<svg xmlns="http://www.w3.org/2000/svg" width="384" height="384" viewBox="0 0 384 384">
  <defs/>
  <path fill="rgb(69.803922%, 99.607843%, 94.509804%)" opacity="0.131" d="M231.992,306.934 C231.887,358.191 243.961,355.445 161.234,353.691 C148.574,357.492 153.203,310.863 124.414,309.043 C112.863,254.504 109.344,281.199 158.527,288.23 C168.965,303.488 172.789,296.793 231.992,306.934"/>
  <path fill="rgb(100%, 79.607843%, 100%)" opacity="0.065" d="M153.285,346.531 C184.906,364.371 203.977,344.852 175.871,352.121 C173.637,341.844 181.148,361.129 180.52,336.109 C152.723,337.453 157.414,364.809 217.469,354.73 C195.594,304.223 163.367,304.199 153.285,346.531"/>
  <path fill="rgb(77.254902%, 92.156863%, 100%)" opacity="0.024" d="M358.816,302.543 C339.031,375.535 283.5,381.172 256.535,370.758 C239.953,315.777 193.516,332.723 227.141,348.102 C259.461,280.816 209.746,172.855 390.23,129.008 C432.867,347.98 346.512,263.453 358.816,302.543"/>
  <path fill="rgb(80.392157%, 91.372549%, 100%)" opacity="0.077" d="M72.02,237.871 C58.742,256.328 47.762,219.367 29.84,235.973 C28.238,274.008 22.43,261.816 39.129,196.316 C84.512,190.719 65.957,221.855 76.219,228.375 C70.074,192.066 63.648,232.387 72.02,237.871"/>
  <path fill="rgb(89.019608%, 92.54902%, 100%)" opacity="0.016" d="M122.543,119.625 C82.254,131.484 36.027,135.25 -37.871,145.57 C14.477,106.734 23.148,113.301 40.02,145.695 C68.711,147.762 90.633,128.422 101.473,125.051 C122.969,130.047 142.426,138.582 122.543,119.625"/>
  <path fill="rgb(81.568627%, 100%, 72.941176%)" opacity="0.052" d="M118,265.035 C155.133,258.441 130.168,212.07 145.922,227.574 C160.035,197.098 144.844,203.738 124.359,203.285 C101.777,204.266 93.094,182.699 142.184,207.262 C149.418,190.523 114.828,194.914 118,265.035"/>
  <path fill="rgb(52.156863%, 64.705882%, 67.45098%)" opacity="0.446" d="M274.727,262.332 C270.34,406.93 291.582,373.227 216.738,377.73 C27.902,368.68 63.195,397.051 62.031,316.922 C60.117,185.078 51.418,217.473 121.562,207.836 C305.141,198.68 269.945,170.035 274.727,262.332"/>
  <path fill="rgb(92.941176%, 85.490196%, 84.313725%)" opacity="0.022" d="M208.496,149.613 C163.453,190.254 186.66,181.316 179.785,198.422 C103.422,182.375 96.863,198.402 104.184,165.227 C160.422,175.109 141.281,162.461 143.547,92.195 C167.84,79.621 187.008,105.637 208.496,149.613"/>
  <path fill="rgb(96.470588%, 54.509804%, 5.882353%)" opacity="0.896" d="M317.555,80.227 C316.133,94.379 314.703,111.312 280.148,128.648 C244.223,135.508 226.215,96.289 228.25,78.305 C238.465,32.129 279.766,37.926 292.168,43.898 C314.711,59.188 316.004,77.98 317.555,80.227"/>
  <path fill="rgb(67.843137%, 87.45098%, 70.588235%)" opacity="0.068" d="M136.137,316.957 C124.109,320.023 93.566,303.375 124.277,300.676 C139.797,342.785 157.688,333.668 96.785,312.105 C126.559,243.152 113.578,229.52 70.102,260.262 C113.445,308.379 105.027,323.453 136.137,316.957"/>
  <path fill="rgb(84.705882%, 94.509804%, 100%)" opacity="0.012" d="M89.012,58.32 C137.191,124.176 85.461,131.727 48.504,122.355 C-29.719,109.371 -57.02,117.461 -71.078,95.863 C-64.676,71.066 -52.992,65.73 3.117,65.016 C39.113,53.602 53.242,50.785 89.012,58.32"/>
</svg>

