<svg xmlns="http://www.w3.org/2000/svg" width="384" height="384" viewBox="0 0 384 384">
  <defs/>
  <path fill="rgb(56.862745%, 100%, 83.921569%)" opacity="0.225" d="M411.852,383.379 C392.344,391.68 381.227,390.266 383.176,362.523 C354.035,349.551 326.453,345.488 324.176,356.367 C327.344,304.723 309.305,321.363 372.094,316.555 C406.184,314.031 393.086,283.176 411.852,383.379"/>
  <path fill="rgb(92.54902%, 98.431373%, 100%)" opacity="0.023" d="M166.312,-22.367 C174.688,30.898 166.641,49.934 156.477,33.047 C137.023,32.828 125.848,17.434 115.574,-13.805 C117.262,-44.141 122.922,-53.391 123.5,-48.918 C105.098,-17.207 105.836,-14.129 166.312,-22.367"/>
  <path fill="rgb(69.019608%, 21.568627%, 0%)" opacity="0.986" d="M273.574,158.445 C304.766,199.625 270.652,229.094 227.695,270.539 C218.277,268.277 244.121,225.008 235.23,239.543 C229.398,240.922 258.656,212.148 229.539,223.047 C248.539,205.41 258.699,214.602 273.574,158.445"/>
  <path fill="rgb(72.54902%, 100%, 78.823529%)" opacity="0.142" d="M229.152,370.293 C156.484,324.953 181.152,307.789 170.203,342.137 C184.672,391.656 154.934,382.828 157.484,320.527 C177.461,321.555 190.098,350.539 165.301,304.945 C203.266,299.148 205.953,309.207 229.152,370.293"/>
  <path fill="rgb(99.215686%, 72.54902%, 42.352941%)" opacity="0.007" d="M307.254,-2.914 C269.852,-15.738 243.895,-22.656 260.375,32.98 C282.258,67.004 254.941,37.367 330.215,16.156 C303.191,45.539 302.957,37.566 286.801,5.668 C298.723,-39.613 330.082,-8.703 307.254,-2.914"/>
  <path fill="rgb(67.843137%, 81.568627%, 51.764706%)" opacity="0.162" d="M399.051,11.652 C413.441,48.66 396.305,47.371 390.105,53.059 C380.367,64.836 389.301,18.98 375.184,30.305 C378.328,15.398 370.469,17.715 365.215,19.992 C385.16,33.676 393.227,18.012 399.051,11.652"/>
  <path fill="rgb(62.352941%, 84.313725%, 54.509804%)" opacity="0.067" d="M402.07,207.512 C200.77,265.363 243.242,217.98 263.246,168.445 C171.949,76.293 206.926,152.312 157.91,167.844 C269.816,151.25 190.41,38.434 357.453,11.355 C424.219,52.34 408.836,111.871 402.07,207.512"/>
  <path fill="rgb(56.078431%, 87.058824%, 25.490196%)" opacity="0.337" d="M256.355,290.977 C245.832,415.891 200.457,409.719 200.656,393.363 C31.578,387.395 42.672,401.957 -2.957,312.844 C-18.855,199.023 12.227,205.617 42.359,238.902 C155.191,242.547 225.34,197.16 256.355,290.977"/>
  <path fill="rgb(60.392157%, 83.529412%, 56.862745%)" opacity="0.571" d="M393.93,304.875 C372.902,402.898 428.785,389.688 266.293,401.941 C195.312,320.223 251.492,309.242 208.859,338.641 C204.719,208.586 202.691,229.586 285.305,257.09 C410.348,155.867 408.301,203.168 393.93,304.875"/>
  <path fill="rgb(100%, 72.54902%, 52.941176%)" opacity="0.964" d="M390.367,172.117 C371.324,330.555 305.062,279.734 257.051,274.805 C243.801,236.562 140.672,235.109 208.207,225.852 C220.113,180.531 225.305,188.785 269.645,200.426 C364.777,245.527 289.812,99.355 390.367,172.117"/>
  <path fill="rgb(63.137255%, 84.313725%, 60%)" opacity="0.509" d="M161.738,138.453 C185.473,213.043 183.867,267.879 119.281,204.18 C10.961,173.121 1.98,157.012 16.762,97.812 C72.266,20.359 40.445,66.59 110.332,27.664 C173.18,19.75 237.34,102.105 161.738,138.453"/>
  <path fill="rgb(85.882353%, 92.156863%, 76.078431%)" opacity="0.379" d="M100.082,223.629 C148.285,277.953 165.191,320.832 60.199,352.855 C-12.836,262.594 -7.598,222.176 32.918,175.898 C5.086,153.066 58.422,172.617 90.77,171.758 C84.285,145.113 86.414,170.34 100.082,223.629"/>
  <path fill="rgb(89.803922%, 68.235294%, 56.862745%)" opacity="0.931" d="M211.117,181.352 C235.047,272.57 131.113,315.672 110.582,249.207 C103.258,273.562 49.637,242.906 48.801,217.934 C137.211,195.121 94.879,228.832 105.953,177.531 C109.762,171.492 77.703,224.43 211.117,181.352"/>
  <path fill="rgb(87.843137%, 54.117647%, 57.254902%)" opacity="0.56" d="M256.141,126.621 C204.926,112.988 253.879,171.438 274.297,190.613 C173.684,178.711 206.117,255.922 143.488,150.133 C188.836,76.773 173.93,141.699 199.961,189.371 C251.586,198.816 250.621,150.262 256.141,126.621"/>
  <path fill="rgb(67.843137%, 87.843137%, 99.607843%)" opacity="0.161" d="M429.859,346.887 C383.883,395.434 376.59,360.59 313.035,363.832 C328.168,347.387 306.812,329.496 314.621,343.078 C330.996,326.164 323.723,338.766 308.547,298.07 C345.543,314.367 377.832,292.605 429.859,346.887"/>
  <path fill="rgb(78.039216%, 37.254902%, 49.019608%)" opacity="0.364" d="M173.801,279.773 C189.289,294.328 191.172,280.371 109.945,278.723 C94.121,321.637 124.984,331.141 116.418,303.648 C76.953,312.504 86.883,306.914 76.352,218.258 C154.418,273.777 156.273,275.57 173.801,279.773"/>
  <path fill="rgb(81.960784%, 60.392157%, 57.254902%)" opacity="0.254" d="M295.211,296.422 C303.082,348.871 296.871,350.738 300.754,365.344 C276.281,323.633 262.523,309.23 264.07,279.168 C261.219,277.977 242.344,282.621 238.285,299.523 C244.57,256.062 299.895,260.191 295.211,296.422"/>
  <path fill="rgb(77.254902%, 87.058824%, 57.647059%)" opacity="0.239" d="M252.871,135.309 C221.633,148.734 240.297,187.148 236.812,217.918 C261.531,174.703 250.695,180.805 231.031,184.227 C252.738,166.379 246.391,154.219 275.051,160.801 C309.746,176.582 281.625,149.129 252.871,135.309"/>
  <path fill="rgb(92.54902%, 90.588235%, 99.607843%)" opacity="0.48" d="M164.234,276.863 C196.258,284.789 203.738,286.434 199.797,310.211 C185.73,280.895 186.938,283.957 215.074,297.418 C198.594,271.188 174.43,276.07 198.664,284.977 C203.621,258.594 205.805,277.441 164.234,276.863"/>
  <path fill="rgb(83.529412%, 94.117647%, 90.588235%)" opacity="0.008" d="M312.199,175.82 C303.98,147.383 308.066,153.336 297.875,149.176 C309.863,169.469 308.418,159.898 276.766,153.316 C262.051,110.262 282.945,114.508 333.594,123.953 C359.062,166.715 356.707,192.895 312.199,175.82"/>
  <path fill="rgb(93.333333%, 62.745098%, 63.137255%)" opacity="0.02" d="M127.609,220.406 C128.961,270.203 134.254,283.746 131.707,258.262 C100.348,255.32 92.18,241.223 100.031,205.527 C99.379,195.195 105.691,202.637 106.48,235.496 C103.16,236.906 113.418,236.852 127.609,220.406"/>
  <path fill="rgb(100%, 87.45098%, 66.27451%)" opacity="0.721" d="M262.098,162.531 C258.211,209.438 279.793,211.414 283.902,212.363 C213.09,202.023 252.941,222.562 258.641,184.523 C229.301,189.227 238.527,177.879 257.066,181.312 C233.477,171.879 218.836,136.465 262.098,162.531"/>
  <path fill="rgb(80.784314%, 88.627451%, 79.215686%)" opacity="0.849" d="M242.785,116.828 C241.477,175.605 215.176,184.148 192.133,197.879 C179.109,117.863 150.352,151.449 166.578,159.996 C196.371,135.59 183.051,135.988 167.59,51.359 C203.512,36.746 216.555,63.176 242.785,116.828"/>
  <path fill="rgb(56.078431%, 78.431373%, 47.058824%)" opacity="0.039" d="M227.172,135.438 C215.805,103.031 213.5,99.055 214.773,129.707 C220.934,131.199 220.668,137.938 219.039,134.016 C224.141,142.77 218.457,131.102 225.219,121.457 C268.285,118.469 219.949,119.25 227.172,135.438"/>
  <path fill="rgb(94.117647%, 63.921569%, 58.039216%)" d="M150.855,246.512 C144.008,242.973 163.625,222.785 152.016,229.23 C139.574,234.711 141.004,204.066 169.602,223.523 C161.898,205.633 124.789,176.691 178.273,137.27 C241.133,221.531 198.105,228.598 150.855,246.512"/>
  <path fill="rgb(95.294118%, 92.54902%, 93.333333%)" opacity="0.05" d="M211.414,-4.773 C223.496,30.973 191.25,77.496 183.77,104.781 C123.816,109.363 98.316,124.293 112.516,27.281 C141.77,36.473 151.109,25.84 161.984,28.781 C165.812,39.199 161.859,-1.949 211.414,-4.773"/>
  <path fill="rgb(66.27451%, 94.901961%, 51.764706%)" opacity="0.014" d="M78.016,43.129 C92.41,63.934 85.848,62.605 69.676,59.922 C63.785,22.836 75.355,51.102 75.262,52.688 C43,13.398 35.949,8.457 64.617,39.793 C79.188,45.062 60.426,88.055 78.016,43.129"/>
  <path fill="rgb(70.588235%, 81.176471%, 31.764706%)" opacity="0.193" d="M376.078,298.723 C378.227,360.137 375.746,369.277 316.527,360.195 C335.852,375.68 332.18,333.879 305.578,298.523 C298.863,339.703 310.715,377.062 310.27,322.48 C281.785,262.27 349.035,277.625 376.078,298.723"/>
  <path fill="rgb(72.941176%, 93.333333%, 62.745098%)" opacity="0.362" d="M245.195,266.41 C247.348,252.246 273.273,257.324 233.102,231.91 C215.648,296.371 222.129,302.688 237.312,302.504 C245.562,256 227.906,221.02 206.512,234.484 C241.715,270.145 262.125,259.43 245.195,266.41"/>
  <path fill="rgb(85.098039%, 78.039216%, 29.411765%)" opacity="0.114" d="M67.934,295.266 C41.488,281.941 62.367,284.715 79.953,258.828 C48.254,288.453 28.703,275.953 -8.039,279.855 C31.094,306.027 25.531,274.098 27.496,295.648 C43.273,347.441 93.148,337.23 67.934,295.266"/>
  <path fill="rgb(59.607843%, 98.431373%, 56.862745%)" opacity="0.237" d="M234.5,126 C243.621,137.188 276.891,176.125 236.77,159.422 C205.121,127.039 221.496,111.125 236.836,128.09 C227.895,122.508 242.828,140.973 241.145,110.77 C259.812,110.281 270.84,104.527 234.5,126"/>
  <path fill="rgb(98.039216%, 44.705882%, 62.352941%)" opacity="0.268" d="M180.727,139.48 C213.023,165.574 199.273,167.512 185.391,169.066 C197.254,159.641 217.148,146.844 177.91,159.582 C131.84,137.441 147.738,77.621 204.449,134.176 C188.023,146.77 169.547,115.062 180.727,139.48"/>
  <path fill="rgb(96.078431%, 80%, 50.588235%)" opacity="0.711" d="M439.762,174.195 C400.566,271.242 362.738,253.887 363.059,252.203 C372.055,257.246 365.707,197.828 369.863,168.348 C340.352,175.535 306.121,155.688 369.391,95.566 C416.082,120.52 426.734,112.598 439.762,174.195"/>
  <path fill="rgb(96.862745%, 43.921569%, 17.647059%)" opacity="0.476" d="M292.199,233.359 C311.121,237.125 315.668,234.66 295.266,290.566 C289.195,257.641 313.629,220.668 285.184,222.316 C288.789,262.125 312.562,279.484 336.5,254.062 C321.273,226.121 325.453,233.766 292.199,233.359"/>
  <path fill="rgb(100%, 81.960784%, 51.764706%)" opacity="0.222" d="M328.938,227.508 C298.914,228.281 314.973,238.562 324.645,223.551 C360.43,248.406 356.461,223.637 381.863,184.504 C287.02,203.73 248.039,193.75 317.078,198.41 C333.172,235.363 349.527,257.871 328.938,227.508"/>
  <path fill="rgb(83.137255%, 81.960784%, 98.823529%)" opacity="0.151" d="M323.586,382.211 C345.684,368.176 281.312,367.98 285.832,406.273 C193.195,405.461 162.258,384.59 222.203,403.516 C278.723,409.145 275.031,402.629 276.43,359.449 C241.828,325.914 222.035,356.27 323.586,382.211"/>
  <path fill="rgb(68.235294%, 100%, 69.411765%)" opacity="0.824" d="M218.512,265.848 C263.105,246.215 212.98,219.746 236.605,218.113 C240.02,181.609 230.652,207.562 212.992,175.219 C192.824,183.496 200.781,206.34 212.875,196.812 C175.988,187.961 170.352,225.984 218.512,265.848"/>
</svg>

