<svg xmlns="http://www.w3.org/2000/svg" width="384" height="384" viewBox="0 0 384 384">
  <defs/>
  <path fill="rgb(49.019608%, 100%, 0%)" opacity="0.451" d="M225.598,342.484 C239.68,344.23 241.641,358.93 190.625,347.816 C209.805,377.203 162.203,372.121 138.117,336.402 C166.59,313.227 188.559,333.473 196.477,342.641 C200.387,346.609 183.133,350.129 225.598,342.484"/>
  <path fill="rgb(42.352941%, 74.901961%, 80.392157%)" opacity="0.443" d="M232.641,144.684 C248.059,149.684 220.805,151.918 217.023,156.289 C208.684,158.215 213.656,153.711 213.281,119.738 C195.949,119.891 223.297,106.43 222.043,123.914 C242.355,116.262 239.758,122.102 232.641,144.684"/>
  <path fill="rgb(20.392157%, 90.196078%, 0%)" opacity="0.954" d="M150.305,187.914 C145.387,234.641 161.246,270.352 152.266,245.281 C156.105,217.691 152.207,196.699 152.355,180.684 C161.66,221.746 145.504,222.797 138.031,209.285 C155.691,241.516 136.051,231.492 150.305,187.914"/>
  <path fill="rgb(100%, 53.333333%, 7.058824%)" opacity="0.678" d="M104.961,251.141 C163.832,215.055 166.797,268.105 156.344,207.363 C188.609,222.969 165.395,234.707 170.508,211.172 C163.082,193.055 185.344,165.816 120.492,112.062 C64.945,141.418 111.406,234.211 104.961,251.141"/>
  <path fill="rgb(100%, 71.764706%, 7.45098%)" opacity="0.839" d="M271.355,286.023 C257.379,279.82 247.004,277.629 216,261.492 C222.621,272.664 223.273,277.707 215.117,293.027 C220.402,264.465 212.562,258.703 222.586,286.559 C245.641,307.594 252.875,337.254 271.355,286.023"/>
  <path fill="rgb(48.235294%, 100%, 10.588235%)" opacity="0.59" d="M61.543,268.398 C40.656,316.109 85.09,368.281 75.949,221.09 C24.578,216.984 19.992,255.121 28.168,142.117 C54.777,223.699 38.344,222.578 55.844,235.621 C58.207,193.602 63.574,170.07 61.543,268.398"/>
  <path fill="rgb(38.431373%, 0%, 3.921569%)" opacity="0.997" d="M264.324,257.457 C318.453,239.438 296.137,283.246 257.039,287.344 C245.562,248.23 217.633,261.352 222.809,292.102 C224.113,247.191 218.41,224.363 223.805,241.363 C226.309,250.156 252.852,234.918 264.324,257.457"/>
  <path fill="rgb(11.372549%, 43.529412%, 10.196078%)" opacity="0.929" d="M234.035,37.742 C246,38.469 225.289,39.23 256.055,20.051 C239.926,26.359 211.137,29.594 198.594,23.812 C208.621,-26.727 209.207,-21.711 241.543,-11.043 C249.418,20.207 257.777,24.637 234.035,37.742"/>
  <path fill="rgb(0%, 46.666667%, 28.627451%)" d="M387.152,132.078 C333.32,216.816 258.09,180.195 248.137,195.43 C157.891,177.914 135.23,195.57 121.008,116.535 C165.746,121.227 155.648,71.672 239.523,1.188 C321.039,19.836 328.668,24.211 387.152,132.078"/>
  <path fill="rgb(87.843137%, 83.137255%, 66.27451%)" opacity="0.442" d="M180.773,16.801 C199.711,48.98 186.766,39.172 217.801,35.062 C185.555,55.84 207.98,57.016 180.781,37.258 C181.707,75.062 196.332,35.219 230.02,25.227 C198.27,24.434 151.871,30.305 180.773,16.801"/>
  <path fill="rgb(100%, 87.45098%, 34.901961%)" opacity="0.965" d="M455.496,321.336 C399.805,395.945 390.734,382.109 267.07,358.535 C189.176,340.047 183.562,345.133 195.773,350.102 C221.805,179.559 229.223,147.355 326.434,166.703 C420.371,157.344 422.238,137.371 455.496,321.336"/>
  <path fill="rgb(100%, 90.588235%, 35.294118%)" opacity="0.984" d="M269.012,238.711 C187.562,341.676 187.312,357.77 116.469,349.43 C4.203,329.496 -19.047,298.883 27.105,316.328 C121.902,253.688 122.141,211.789 140.441,179.32 C276.984,191.984 266.191,148.871 269.012,238.711"/>
  <path fill="rgb(100%, 89.411765%, 38.823529%)" opacity="0.658" d="M454.16,155.676 C447.008,250.113 421.312,228.793 346.387,218.664 C329.312,146.883 355.164,170.629 374.348,159.566 C382.266,121.18 381.875,112.918 373.117,91.879 C409.547,101.891 440.688,102.125 454.16,155.676"/>
  <path fill="rgb(11.764706%, 7.45098%, 21.568627%)" opacity="0.914" d="M331.133,330.652 C325.805,393.555 292.477,374.961 285.762,357.926 C219.684,359.957 217.02,383.996 222.031,336.367 C195.137,287.125 209.688,282.816 242.695,316.051 C318.371,312.977 360.062,316.285 331.133,330.652"/>
  <path fill="rgb(99.215686%, 86.666667%, 32.156863%)" opacity="0.994" d="M196.805,85.668 C148.691,99.168 145.176,119.551 106.363,175.551 C11.941,150.605 2.074,143.074 -9.113,8.902 C3.562,-19.793 22.508,-20.547 122.223,-15.473 C229.391,-21.547 220.316,-12.395 196.805,85.668"/>
  <path fill="rgb(18.039216%, 11.764706%, 10.588235%)" d="M285.273,310.367 C355.918,394.801 326.34,374.277 181.812,376.535 C150.52,360.332 159.359,295.66 151.688,289.73 C213.977,309 208.281,320.125 254.812,267.141 C336.199,241.445 234.395,301.82 285.273,310.367"/>
  <path fill="rgb(99.215686%, 86.666667%, 32.54902%)" opacity="0.999" d="M146.559,174.918 C130.574,283.453 127.078,313.867 15.52,327.137 C-64.777,304.184 -63.285,294.492 -86.168,254.312 C-65.164,67.703 -49.797,72.453 93.355,98.137 C167.785,80.25 117.98,101.016 146.559,174.918"/>
  <path fill="rgb(100%, 86.666667%, 32.941176%)" d="M415.91,43.488 C371.992,124.758 366.969,105.031 329.793,69.43 C295.988,-23.621 211.441,27.695 204.625,64.023 C181.625,-55.531 211.242,-62.234 274.695,-83.688 C332.41,-73.551 351.781,-88.34 415.91,43.488"/>
  <path fill="rgb(89.019608%, 97.254902%, 9.803922%)" opacity="0.164" d="M83.223,193.426 C54.785,181.484 44.594,169.125 46.602,180.719 C38.738,231.055 70.996,187.836 27.223,178.191 C16.723,182.688 5.527,129.91 57.68,89.203 C135.883,84.477 109.383,58.621 83.223,193.426"/>
  <path fill="rgb(32.54902%, 10.980392%, 3.137255%)" d="M266.902,287.094 C215.852,271.402 172.602,277.855 165.457,314.23 C161.188,324.277 150.895,339.773 144.68,321.309 C155.004,311.297 179.914,315.469 170.102,314.277 C266.441,317.438 289.711,320.582 266.902,287.094"/>
  <path fill="rgb(86.27451%, 95.686275%, 10.588235%)" opacity="0.101" d="M465.332,236.223 C419.254,279.984 381.824,265.285 350.242,265.922 C351.887,215.41 309.938,198.457 334.988,268.09 C378.734,245.336 319.5,262.027 267.645,230.012 C363.91,226.918 393.141,242.801 465.332,236.223"/>
  <path fill="rgb(100%, 82.352941%, 42.745098%)" opacity="0.301" d="M100.723,62.453 C91.289,152.098 93.887,170.074 51.082,142.223 C-18.934,143.055 -26.375,141.602 -42.582,77.918 C-35.758,26.004 -18.043,31.953 45.887,42.328 C53.133,65.008 82.375,55.102 100.723,62.453"/>
  <path fill="rgb(49.411765%, 7.058824%, 0%)" opacity="0.177" d="M264.156,335.914 C276.363,342.082 280.906,327.789 272.281,334.477 C282.684,346.328 257.926,345.16 263,308.324 C303.363,328.691 319.367,322.875 282.242,306.75 C258.961,300.949 265.039,350.562 264.156,335.914"/>
  <path fill="rgb(29.411765%, 11.372549%, 5.098039%)" d="M282.188,158.117 C238.016,165.543 262.898,133.887 297.414,217.07 C302.469,307.156 221.773,307.512 270.969,245.902 C288.035,174.906 224.254,195.152 265.926,136.594 C245.75,136.715 266.707,138.684 282.188,158.117"/>
  <path fill="rgb(100%, 86.666667%, 79.215686%)" opacity="0.08" d="M401.559,279.098 C429.996,311.266 428.844,307.277 389.98,278.387 C356.609,271.992 372.98,263.457 368.363,349.992 C358.426,250.527 364.453,258.777 402.27,278.047 C402.473,288.465 404.641,270.887 401.559,279.098"/>
  <path fill="rgb(98.823529%, 92.156863%, 34.901961%)" opacity="0.981" d="M226.75,288.602 C196.934,320.379 177.648,321.824 108.461,309.098 C123.895,366.582 162.891,367.785 150.594,331.055 C143.121,242.133 140.852,254.777 139.699,251.977 C203.453,257.398 263.359,225.539 226.75,288.602"/>
  <path fill="rgb(100%, 87.058824%, 38.039216%)" opacity="0.773" d="M399.172,147.43 C377.672,116.188 380.133,100.602 367.188,104.551 C371.219,107.031 377.023,121.348 358.562,86.27 C341.098,93.816 324.02,104.488 355.875,82.277 C362.867,82.961 477.953,94.621 399.172,147.43"/>
</svg>

