<svg xmlns="http://www.w3.org/2000/svg" width="384" height="384" viewBox="0 0 384 384">
  <defs/>
  <path fill="rgb(1.568627%, 2.745098%, 39.607843%)" opacity="0.918" d="M301.16,195.328 C251.609,167.918 260.215,195.375 257.523,170.129 C290.445,187.504 280.672,197.117 293.594,170.227 C249.672,138.859 256.973,140.844 268.633,170.031 C279.906,181.926 299.117,160.062 301.16,195.328"/>
  <path fill="rgb(96.470588%, 73.333333%, 0%)" d="M43.371,227.117 C129.703,190.27 120.812,196.047 74.891,255.113 C-6.492,292.777 -10.551,315.598 -7.184,275.895 C-16.918,119.547 -28.125,117.566 -30.914,170.117 C4.285,196.367 12.32,205.969 43.371,227.117"/>
  <path fill="rgb(0%, 1.176471%, 1.176471%)" d="M360.316,59.438 C363.422,107.801 364.797,141.301 357.691,176.898 C337.246,146.469 330.82,149.957 334.051,57.477 C296.297,62.156 290.488,33.672 346.832,36.684 C416.32,40.332 390.469,58.629 360.316,59.438"/>
  <path fill="rgb(63.921569%, 58.039216%, 97.254902%)" opacity="0.008" d="M373.918,382.168 C350.203,437.734 354.324,448.254 243.223,439.27 C233.301,375.355 243.895,381.195 190.555,381.156 C191.676,297.918 207.867,291.434 229.285,287.145 C319.945,304.523 373.363,280.027 373.918,382.168"/>
  <path fill="rgb(30.980392%, 21.960784%, 25.098039%)" opacity="0.651" d="M387.406,326.332 C414.691,367.262 371.539,365.273 371.172,338.078 C385.07,306.117 379.184,293.68 355.922,237.195 C348.953,184.852 344.043,214.02 345.535,209.926 C346.246,259.578 334.207,277.504 387.406,326.332"/>
  <path fill="rgb(69.019608%, 79.215686%, 16.862745%)" opacity="0.862" d="M200.637,162.258 C204.031,182.781 198.758,190.055 183.902,198.5 C185.797,187.07 185.039,176.844 197.43,157.27 C185.934,158.637 187.098,163.426 197.52,161.336 C185.441,168.07 187.141,176.402 200.637,162.258"/>
  <path fill="rgb(92.54902%, 74.901961%, 85.098039%)" opacity="0.005" d="M48.562,173.414 C46.707,189.348 38.02,163.25 35.641,135.316 C53.875,149.719 37.414,150.633 24.762,139.504 C-32.102,146.273 -13.406,194.074 42.902,185.945 C44.707,160.398 51.34,181.68 48.562,173.414"/>
  <path fill="rgb(77.254902%, 100%, 89.803922%)" opacity="0.043" d="M307.98,74.633 C258.59,71.816 248.066,86.504 216.195,94.582 C200.965,148.441 198.414,123.867 218.906,99.832 C188.781,78.156 145.316,109.164 133.961,-3.746 C330.25,-48.766 329.926,-29.223 307.98,74.633"/>
  <path fill="rgb(99.607843%, 78.823529%, 0%)" d="M575.371,212.055 C477.652,351.07 401.637,332.836 138.469,333.359 C61.777,313.156 34.918,280.805 40.984,243.289 C171.473,157.809 172.633,205.223 212.121,87.547 C388.926,65.465 472.992,61.746 575.371,212.055"/>
  <path fill="rgb(100%, 78.431373%, 0%)" d="M232.688,91.887 C227.598,307.867 264.602,272.484 115.484,276.922 C30.297,260.102 10.094,235.742 91.012,197.758 C134.133,189.547 122.758,171.941 153.348,135.855 C165.723,107.016 190.969,93.258 232.688,91.887"/>
  <path fill="rgb(67.058824%, 88.235294%, 3.921569%)" opacity="0.113" d="M97.469,246.035 C101.293,261.621 96.867,266.617 117.07,263.777 C85.566,258.426 70.969,227.559 103.754,260.137 C116.191,302.367 77.141,283 70.273,264.562 C121.004,255.809 121.68,245.262 97.469,246.035"/>
  <path fill="rgb(13.333333%, 54.901961%, 86.27451%)" opacity="0.847" d="M319.793,143.352 C324.148,211.281 334.719,184.184 150.578,193.109 C116.516,188.227 156.008,172.359 137.402,173.965 C146.559,178.52 152.445,151.992 182.074,120.184 C276.434,124.68 323.609,107.125 319.793,143.352"/>
  <path fill="rgb(93.333333%, 72.156863%, 23.921569%)" opacity="0.237" d="M443.984,248.832 C424.039,256.98 396.215,232.32 301.902,240.582 C277.422,226.199 273.906,249.473 353.645,243.035 C345.902,177.285 330.688,208.668 353.828,123.402 C410.031,108.062 429.527,117.883 443.984,248.832"/>
  <path fill="rgb(97.647059%, 94.509804%, 56.862745%)" opacity="0.01" d="M166.434,38.855 C145.23,121.898 120.434,115.906 13.336,114.836 C5.867,108.152 15.613,106.914 9.172,51.055 C2.543,29.039 2.824,-3.828 1.27,-36.016 C166.254,-49.871 175.754,-51.492 166.434,38.855"/>
</svg>

