<svg xmlns="http://www.w3.org/2000/svg" width="384" height="384" viewBox="0 0 384 384">
  <defs/>
  <path fill="rgb(23.921569%, 76.862745%, 99.215686%)" opacity="0.541" d="M108.328,157.977 C80.777,271.895 72.242,271.398 41.805,247.766 C15.809,265.766 -0.938,284.891 -0.137,268.91 C-48.012,134.254 -48.422,131.41 40.816,92.27 C122.035,68.156 113.125,97.746 108.328,157.977"/>
  <path fill="rgb(100%, 57.647059%, 9.411765%)" opacity="0.915" d="M167.191,167.832 C144.527,179.836 105.812,170.926 87.141,164.988 C83.75,159.367 101.938,172.527 85.328,155.098 C69.773,143.434 65.105,97.473 89.969,92.836 C193.625,63.133 172.285,39.344 167.191,167.832"/>
  <path fill="rgb(50.588235%, 81.568627%, 99.215686%)" opacity="0.702" d="M418.406,147.387 C458.91,293.957 426.438,304.664 307.191,286.648 C286.035,205.883 322.117,193.746 276.277,204.359 C258.145,146.738 278.68,161.633 285.891,79.086 C342.117,86.141 369.512,105.383 418.406,147.387"/>
  <path fill="rgb(58.431373%, 87.058824%, 99.607843%)" opacity="0.736" d="M117.457,194.477 C123.734,235.336 123.203,246.883 47.688,257.738 C24.402,252.324 28.398,226.102 53.488,197.574 C106.77,205.41 79.891,143.973 71.027,160.086 C125.09,162.035 125.141,171.465 117.457,194.477"/>
  <path fill="rgb(61.176471%, 88.627451%, 99.215686%)" opacity="0.946" d="M379.801,248.574 C350.301,270.59 344.531,284.766 324.016,308.031 C237.016,298.059 228.66,285.793 224.59,223.984 C220.496,172.711 245.969,148.168 284.137,166.742 C380.895,175.566 375.059,171.027 379.801,248.574"/>
  <path fill="rgb(56.078431%, 84.705882%, 100%)" opacity="0.983" d="M217.52,181.664 C216.637,266.191 200.168,255.195 104.477,255.188 C83.43,202.227 97.277,192.574 98.711,196.727 C94.418,202.469 91.043,188.902 95.188,160.977 C122.859,165.68 147.875,165.652 217.52,181.664"/>
  <path fill="rgb(93.72549%, 64.705882%, 100%)" opacity="0.215" d="M255.781,271.199 C257.504,298.43 266.609,293.086 252.754,278.387 C252.969,257.391 243.961,253.367 236.625,239.977 C206.84,238.461 207.098,230.871 218.039,231.457 C239.922,245.812 247.562,247.305 255.781,271.199"/>
  <path fill="rgb(53.72549%, 94.509804%, 81.960784%)" opacity="0.076" d="M314.672,236.602 C331.34,271.656 321.129,270.535 307.551,264.016 C320.824,264.109 322.863,255.562 317.09,241.922 C306.391,233.754 304.957,225.859 321.652,270.887 C322.367,209.48 295.398,203.199 314.672,236.602"/>
  <path fill="rgb(45.098039%, 52.941176%, 0%)" opacity="0.799" d="M187.062,170.148 C222.145,179.98 229.117,151.91 254.461,179.883 C216.941,193.477 195.723,178.074 205.145,150.668 C205.664,137.789 214.246,153.848 198.477,170.645 C217.238,167.414 240.758,164.121 187.062,170.148"/>
  <path fill="rgb(73.72549%, 16.078431%, 1.568627%)" opacity="0.997" d="M265.914,64.086 C320.605,118.684 270.039,220.082 190.863,174.418 C169.199,95.637 199.203,180.941 174.855,160.035 C172.039,48.98 195.082,52.516 203.973,64.359 C179.41,65.02 219.531,23.758 265.914,64.086"/>
  <path fill="rgb(26.666667%, 89.019608%, 62.352941%)" opacity="0.687" d="M402.672,380.434 C368.016,405.777 344.711,387.918 327.023,391.695 C320.953,353.652 312.699,351.242 314.113,287.711 C377.887,246.438 409.52,269.609 452.703,258.934 C400.602,295.047 396.98,311.445 402.672,380.434"/>
  <path fill="rgb(85.490196%, 63.137255%, 63.529412%)" opacity="0.359" d="M142.609,379.086 C118.934,401.605 118.633,404.781 121.293,400.461 C109.5,394.523 104.578,388.836 134.008,408.383 C139.516,381.734 138.422,357.777 124.188,317.852 C176.715,305.406 152.516,305.961 142.609,379.086"/>
  <path fill="rgb(87.058824%, 58.431373%, 4.313725%)" opacity="0.825" d="M347.77,391.77 C281.965,407.645 276.309,402.191 227.887,374.109 C294.48,395.047 278.797,380.613 172.473,412.602 C89.609,306.992 121.027,273.695 195.469,220.328 C252.77,276.059 278.152,292.164 347.77,391.77"/>
  <path fill="rgb(42.352941%, 88.235294%, 95.686275%)" opacity="0.459" d="M344.809,271.719 C340.297,319.711 344.777,302.988 278.164,297.016 C220.672,287.719 206.867,312.156 185.34,265.984 C238.422,270.605 230.027,285.066 289.027,303.871 C314.316,260.758 314.5,263.027 344.809,271.719"/>
  <path fill="rgb(80%, 73.72549%, 22.352941%)" opacity="0.806" d="M340.449,300.703 C343.012,318.781 403.012,366.438 310.25,346.051 C311.578,317.008 317.258,338.152 302.836,346.645 C358.312,342.172 353.711,287.281 450.723,293.988 C411.383,291.062 454.922,318.777 340.449,300.703"/>
  <path fill="rgb(83.137255%, 74.509804%, 100%)" opacity="0.053" d="M41.707,144.531 C60.141,162.145 63.332,134.359 18.504,142.492 C13.004,158.691 -11.32,124.969 6.102,149.641 C25.484,164.633 5.723,167.777 51.559,163.07 C24.09,138.207 28.574,134.379 41.707,144.531"/>
  <path fill="rgb(7.058824%, 0%, 3.921569%)" d="M232.32,181.734 C269.938,282.445 279.863,282.137 190.102,289.102 C162.719,382.289 156.363,374.844 135.832,238.555 C229.812,267.781 209.066,262.02 214.523,189.488 C323.883,148.234 251.996,171.742 232.32,181.734"/>
  <path fill="rgb(70.196078%, 21.960784%, 26.666667%)" opacity="0.761" d="M147.648,345.871 C112.227,304.566 150.414,299.238 92.441,297.113 C148.855,317.887 116.633,316.238 97.172,290.359 C106.215,257.211 134.719,275.129 136.895,287.504 C141.977,300.895 173.422,316.859 147.648,345.871"/>
  <path fill="rgb(23.529412%, 20%, 15.686275%)" opacity="0.835" d="M253.391,247.332 C259.18,296.273 269.812,297.699 232.293,262.746 C188.52,265.422 194.574,256.973 208.734,241.711 C217.828,187.723 192.664,166.793 254.043,208.32 C260.547,262.543 240.453,210.949 253.391,247.332"/>
  <path fill="rgb(95.686275%, 70.196078%, 17.254902%)" d="M153.961,402.5 C186.574,400.434 165.172,399.328 147.031,407.555 C130.102,385.32 126.152,385.148 103.93,377.105 C116.5,330.926 94.113,334.609 124.938,339.867 C142.797,350.062 145.125,363.977 153.961,402.5"/>
  <path fill="rgb(20.392157%, 1.960784%, 16.470588%)" opacity="0.726" d="M207.969,242.688 C223.484,246.316 215.188,258.199 155.68,254.73 C152.934,206.734 153.785,216.66 150.312,250.832 C187.457,238.832 199,252.527 194.379,230.781 C268.559,225.832 264.887,246.961 207.969,242.688"/>
  <path fill="rgb(93.333333%, 86.27451%, 58.039216%)" opacity="0.926" d="M170.883,103.504 C211.352,121.695 217.922,151.703 172.918,167.41 C193.867,151.422 214.395,173.621 210.438,191.848 C213.594,172.797 182.586,163.379 138.496,164.316 C199.199,136.336 173.852,133.211 170.883,103.504"/>
  <path fill="rgb(85.490196%, 43.921569%, 13.333333%)" opacity="0.405" d="M266.043,60.695 C198.375,96.094 214.703,71.066 232.414,55.27 C191.379,57.102 209.133,91.301 145.094,76.367 C168.852,56.77 210.07,90.547 188.344,61.477 C204.148,51.664 228.344,35.215 266.043,60.695"/>
  <path fill="rgb(99.215686%, 67.058824%, 11.372549%)" opacity="0.992" d="M251.816,185.477 C247.41,172.699 201.359,188.777 186.777,160.766 C182.621,151.57 170.121,156.465 178.645,122.375 C180.227,64.402 169.625,89.062 155.492,139.473 C142.477,159.66 178.031,179.344 251.816,185.477"/>
  <path fill="rgb(93.72549%, 61.960784%, 3.137255%)" opacity="0.85" d="M64.055,281.848 C65.246,417.191 70.906,429.664 0.086,433.625 C-26.738,339.23 -6.016,374.598 -36.527,257.895 C47.812,266.609 42.418,273.773 38.223,275.82 C39.785,248.094 95.617,266.023 64.055,281.848"/>
  <path fill="rgb(89.803922%, 67.45098%, 20.392157%)" opacity="0.963" d="M408.395,316.527 C391.586,387.059 402.73,381.496 345.938,432.781 C307.91,460.746 306.355,440.57 306.762,357.359 C299.516,338.312 316.191,368.48 347.555,371.305 C329.785,285.496 365.547,286.082 408.395,316.527"/>
  <path fill="rgb(79.215686%, 90.980392%, 37.647059%)" opacity="0.06" d="M267.645,288.727 C266.809,274.582 236.27,266.418 275.051,346.109 C247.066,356.887 229.453,329.508 221.477,273.527 C255.871,273.984 265.855,287.055 255.441,301.258 C257.141,291.879 252.969,280.359 267.645,288.727"/>
  <path fill="rgb(84.705882%, 98.823529%, 9.019608%)" opacity="0.928" d="M284.238,303.488 C292.262,320.453 346.105,298.648 339.379,335.746 C287.352,341.906 288.309,316.711 288.691,318.637 C276.602,305.875 276.027,315.766 282.391,311.984 C315.168,284.746 390.277,310.477 284.238,303.488"/>
  <path fill="rgb(94.901961%, 70.588235%, 18.431373%)" d="M151.68,366.223 C104.402,341.441 144.258,341.613 112.93,425.516 C17.426,393.199 18.117,402.422 19.527,300.613 C59.953,264.781 59.613,267.754 172.785,281.668 C179.285,271.902 179.73,283.766 151.68,366.223"/>
  <path fill="rgb(0%, 0%, 3.921569%)" d="M258.832,261.555 C280.562,328.875 298.922,350.848 273.438,348.742 C244.895,276.012 244.539,266.559 237.699,261.012 C241.113,270.707 253.785,262.723 226.578,263.977 C257.066,258.41 248.23,248.52 258.832,261.555"/>
  <path fill="rgb(89.411765%, 68.235294%, 14.509804%)" d="M457.402,303.402 C420.887,356.965 399.738,345.898 384.758,375.191 C322.898,365.285 295.883,399.23 273.789,307.434 C254.32,285.41 294.59,299.059 384.891,294.336 C390.18,295.535 426.582,287.531 457.402,303.402"/>
  <path fill="rgb(88.235294%, 98.431373%, 65.490196%)" opacity="0.02" d="M415.391,62.027 C410.73,135.75 390.496,133.707 349,117.801 C318.465,137.465 308.754,132.336 303.18,120.531 C292.621,86.117 291.66,47.02 318.875,8.98 C364.641,-17.402 388.086,8.645 415.391,62.027"/>
  <path fill="rgb(20%, 82.352941%, 54.117647%)" opacity="0.834" d="M178.613,276.062 C162.938,291.328 136.871,294.023 96.617,295.41 C73.164,293.52 37.68,294.539 -28.559,294.418 C10.426,244.207 54.047,239.652 66.23,251.398 C124.605,265.219 183.449,267.961 178.613,276.062"/>
  <path fill="rgb(84.705882%, 71.764706%, 0%)" opacity="0.14" d="M163.898,386.848 C123.395,389.93 118.57,412.438 101.16,420.828 C88.746,397.77 84.516,392.867 132.574,404.457 C134.219,401.109 135.773,386.734 110.016,283.973 C106.758,384.219 127.984,394.055 163.898,386.848"/>
  <path fill="rgb(73.333333%, 80.392157%, 87.843137%)" opacity="0.944" d="M151.457,216.082 C185.637,216.41 194.328,227.523 187.199,245.469 C158.156,251.223 163.383,223.578 153.258,228.859 C178.355,212.867 198.898,216.066 179.055,252.867 C169.762,230.93 169.805,251.465 151.457,216.082"/>
  <path fill="rgb(90.196078%, 49.803922%, 1.568627%)" opacity="0.82" d="M176.535,168.625 C165.051,162.215 173.113,170.227 158.309,158.629 C146.637,170.512 164.406,171.488 163.715,162.75 C144.645,112.137 139.406,100.289 178.77,69.781 C188.434,125.914 185.805,180.602 176.535,168.625"/>
  <path fill="rgb(91.764706%, 95.686275%, 96.078431%)" opacity="0.035" d="M173.438,68.715 C96.719,106.59 71.504,73.301 84.66,100.223 C136.625,99.379 84.387,116.754 -31.426,119.137 C-40.875,-3.621 -17.938,12.09 -1.422,4.816 C69.383,-16.086 121.391,-14.5 173.438,68.715"/>
  <path fill="rgb(19.215686%, 28.235294%, 0%)" opacity="0.158" d="M294.523,106.562 C233.484,99.395 199.773,77.121 203.637,116.066 C212.406,126.648 266.977,121.781 261.391,121.727 C256.254,95.113 264.988,93.742 251.555,85.93 C239.055,115.984 254.422,115.734 294.523,106.562"/>
  <path fill="rgb(61.176471%, 87.058824%, 100%)" opacity="0.952" d="M257.398,179.996 C258.836,226.746 277.531,218.617 233.152,221.801 C239.969,201.543 212.457,207.176 233.98,206.148 C232.168,181.168 236.984,192.484 227.891,190.996 C229.832,191.215 236.82,177.418 257.398,179.996"/>
  <path fill="rgb(0%, 9.019608%, 32.54902%)" d="M237.715,65.133 C278.641,100.824 264.734,181.27 203.574,173.277 C151.633,137.527 174.609,95.711 180.242,63.844 C211.621,57.871 235.742,45.133 177.188,76.305 C186.805,61.152 195.742,43.516 237.715,65.133"/>
  <path fill="rgb(84.313725%, 89.803922%, 4.313725%)" opacity="0.121" d="M65.488,356.77 C44.48,341.297 43.07,325.93 48.973,382.562 C40.957,356.074 33.742,390.203 6.934,359.117 C50.355,385.5 40.246,381.781 40.195,289.75 C62.18,367.367 57.465,341.266 65.488,356.77"/>
  <path fill="rgb(99.607843%, 39.607843%, 25.098039%)" d="M171.434,95.406 C165.414,100.824 167.086,107.535 157.895,102.984 C148.91,133.508 151.812,132.164 171.664,132.637 C165.227,79.391 149.793,87.926 183.785,61.684 C233.383,34.727 176.348,65.785 171.434,95.406"/>
  <path fill="rgb(40.392157%, 0.392157%, 6.666667%)" opacity="0.254" d="M284.262,80.699 C244.152,110.762 250.242,88.852 237.254,67.191 C180.754,64.73 183.578,77.008 207.266,56.484 C185.074,82.629 170.723,89.156 196.977,61.613 C211.586,44.883 248.477,41.355 284.262,80.699"/>
  <path fill="rgb(98.823529%, 63.921569%, 10.196078%)" opacity="0.619" d="M165.469,126.23 C158.359,119.113 155.434,135.859 171.281,141.125 C139.211,159.918 128.691,137.918 128.148,111.723 C151.828,96.574 140.73,94.312 145.469,99.168 C169.684,81.02 168.41,73.293 165.469,126.23"/>
  <path fill="rgb(61.176471%, 96.862745%, 100%)" d="M251.121,290.227 C205.375,309.047 243.695,259.566 218.977,224.129 C197.684,288.473 236.629,293.605 190.355,295.355 C199.973,261.059 205.777,248.398 208.992,229.203 C227.734,225.082 232.789,225.309 251.121,290.227"/>
  <path fill="rgb(67.058824%, 32.156863%, 81.960784%)" opacity="0.048" d="M193.305,155.828 C174.094,162.621 186.629,177.789 183.051,127.445 C172.918,173.512 168.402,187.441 187.426,173.234 C150.391,145.691 190.23,155.012 180.496,141.434 C160.625,145.555 181.73,155.824 193.305,155.828"/>
  <path fill="rgb(50.588235%, 86.666667%, 93.333333%)" opacity="0.95" d="M47.93,279.766 C86.59,252.863 68.5,238.988 5.73,247.242 C-32.148,245.941 -26.414,250.207 -24.102,231.535 C-15.43,228.859 -9.57,224.215 -35.164,255.84 C-30.516,256.551 -19.961,257.871 47.93,279.766"/>
  <path fill="rgb(45.882353%, 93.333333%, 95.294118%)" opacity="0.215" d="M304.488,253.949 C278.078,244.836 285.746,256.609 288.871,299.191 C256.289,292.75 299.41,288.984 325.262,275.836 C319.094,231.945 324.969,251.445 328.934,244.645 C319.246,243.004 320.023,247.031 304.488,253.949"/>
  <path fill="rgb(67.843137%, 90.588235%, 98.431373%)" opacity="0.463" d="M221.566,227.406 C270.195,242.195 260.918,249.531 218.102,239.594 C204.73,227.184 183.266,224.441 170.25,222.766 C195.051,215.258 208.668,217.539 169.586,232.934 C174.16,228.332 194.512,220.652 221.566,227.406"/>
  <path fill="rgb(81.176471%, 70.980392%, 99.607843%)" opacity="0.076" d="M323.484,255.766 C329.312,265.984 322.57,249.133 303.707,258.801 C302.152,254.805 299.066,251.762 292.262,254.547 C302.578,261.809 296.145,264.598 281.285,235.023 C298.391,246.215 311.91,272.344 323.484,255.766"/>
  <path fill="rgb(51.372549%, 98.431373%, 72.941176%)" opacity="0.151" d="M44.816,211.805 C41.953,241.449 41.336,254.551 10.789,217.32 C-0.488,174.5 12.621,183.035 -2.641,188.309 C-26.539,188.176 -15.664,191.977 -58.215,200.426 C-52.18,202.957 -42.508,210.168 44.816,211.805"/>
  <path fill="rgb(60.392157%, 31.372549%, 16.470588%)" opacity="0.142" d="M329.645,333.77 C273.863,352.961 248.414,347.059 187.922,352.281 C182.285,343.801 176.566,365.152 182.551,335.66 C241.957,333.172 217.492,335.969 229.109,327.477 C229.086,335.938 226.523,325.348 329.645,333.77"/>
  <path fill="rgb(0%, 88.235294%, 39.607843%)" opacity="0.585" d="M182.023,248.23 C179.055,256.012 135.715,250.852 131.625,249.465 C125.469,234.492 129.5,221.934 129.824,220.25 C86.695,224.125 143.898,223.922 186.352,225.188 C181.379,241.555 156.242,233.297 182.023,248.23"/>
  <path fill="rgb(30.980392%, 17.254902%, 17.254902%)" opacity="0.968" d="M231.82,219.402 C236.32,254.078 232.059,250.047 196.688,237.988 C202.688,219.672 215.5,247.699 194.906,240.238 C212.43,232.188 202.477,232.871 175.484,230.16 C196.992,219.074 187.48,224.004 231.82,219.402"/>
  <path fill="rgb(60.784314%, 90.588235%, 78.431373%)" opacity="0.241" d="M203.621,279.332 C208.16,254.848 217.098,298.113 209.586,286.352 C176.77,292.324 191.938,306.082 192.121,300.043 C207.617,261.176 188.484,274.281 195.535,273.039 C212.168,256.023 193.68,264.098 203.621,279.332"/>
  <path fill="rgb(100%, 58.039216%, 71.372549%)" opacity="0.078" d="M383.57,367.199 C373.199,360.371 367.527,381.48 401.973,374.34 C365.887,368.469 360.016,352.398 390.32,359.406 C363.301,371.211 357.738,328.207 357.332,364.629 C361.074,366.895 368.07,363.883 383.57,367.199"/>
  <path fill="rgb(99.215686%, 61.176471%, 19.215686%)" opacity="0.959" d="M180.93,161.855 C215.609,186.016 179.406,174.871 123.719,166.801 C151.18,153.902 136.281,133.422 149.582,128.398 C146.055,103.125 130.094,70.82 190.32,58.633 C164.176,88.641 154.395,112.906 180.93,161.855"/>
  <path fill="rgb(58.431373%, 87.058824%, 99.215686%)" opacity="0.98" d="M179.477,266.484 C172.32,299.664 189.078,296.547 113.855,292.039 C86.559,226.562 76.789,275.281 41.383,256.105 C52.902,196.117 72.039,185.012 113.926,207.062 C180.93,185.094 198.258,224.504 179.477,266.484"/>
  <path fill="rgb(87.843137%, 74.117647%, 0%)" opacity="0.189" d="M106.668,365.348 C125.145,390.773 94.523,409.477 68.516,410.371 C86.75,395.402 84.523,388.406 68.133,393.938 C89.574,432.285 122.66,445.852 120.059,369.848 C31.562,366.191 77.949,336.336 106.668,365.348"/>
  <path fill="rgb(100%, 90.588235%, 29.803922%)" opacity="0.122" d="M307.59,301.559 C312.062,328.848 319.887,312.926 283.215,320.25 C275.957,284.684 266.312,275.758 274.98,313.77 C268.277,291.949 253.859,300.66 277.461,294.426 C258.203,286.348 258.918,293.285 307.59,301.559"/>
</svg>

