<svg xmlns="http://www.w3.org/2000/svg" width="384" height="384" viewBox="0 0 384 384">
  <defs/>
  <path fill="rgb(53.72549%, 100%, 100%)" opacity="0.537" d="M70.078,336.25 C66.82,348.996 50.168,342.527 51.395,356.641 C35.195,337.469 22.562,330.59 16.551,288.332 C30.801,290.301 24.496,287.094 32.859,304.633 C52.016,282.105 49.75,287.91 70.078,336.25"/>
  <path fill="rgb(96.470588%, 44.705882%, 0%)" d="M162.227,223.691 C193.812,285.375 192.223,267.297 175.762,217.559 C151.125,206.449 142.645,203.695 133.234,184.516 C178.844,187.742 199.109,204.297 139.301,215.672 C112.059,175.492 116.398,194.781 162.227,223.691"/>
  <path fill="rgb(82.745098%, 41.568627%, 20%)" opacity="0.095" d="M329.559,279.539 C302.371,294.242 286.887,289.586 271.422,284.562 C261.426,278.578 234.023,279.004 213.035,268.148 C204.961,239.465 231.629,241.457 308.551,236.945 C327.035,237.043 303.145,290.047 329.559,279.539"/>
  <path fill="rgb(47.45098%, 83.137255%, 88.235294%)" opacity="0.66" d="M362.652,296.402 C238.711,390.809 244.73,383.82 213.164,387.613 C229.113,442.422 218.949,435.473 191.906,337.34 C104.996,279.18 100.863,282 230.383,282.512 C316.781,285.051 361.148,274.48 362.652,296.402"/>
  <path fill="rgb(56.862745%, 99.607843%, 100%)" opacity="0.625" d="M314.621,89.383 C197.336,86.898 154.137,84.48 136.871,84 C140.969,91.855 114.293,105.988 146.59,66.168 C195.602,53.324 175.484,67.598 164.66,-20.203 C224.094,-29.285 257.398,-49.918 314.621,89.383"/>
  <path fill="rgb(75.686275%, 98.431373%, 78.039216%)" opacity="0.502" d="M301.664,35.195 C302.516,36.109 364.754,40.824 296.816,49.23 C276.043,21.281 263.699,18.113 259.75,-11.762 C257.945,-13.129 260.391,-24.711 271.703,0.105 C289.586,3.492 292.738,1.734 301.664,35.195"/>
  <path fill="rgb(79.215686%, 80%, 87.843137%)" opacity="0.535" d="M44.375,241.516 C30.078,259.344 74.176,248.645 44.508,265.41 C16.129,247 29.312,244.523 29.418,250.16 C23.184,191.305 14.59,205.574 57.59,221.828 C33.164,225.445 44.727,224.262 44.375,241.516"/>
  <path fill="rgb(64.313725%, 89.411765%, 94.117647%)" d="M395.75,438.801 C278.812,354.355 299.172,415.09 313.492,442.676 C164.984,370.363 175.508,418.469 269.945,342.98 C253.492,322.84 304.488,368.168 351.934,271.105 C331.434,162.668 432.859,182.363 395.75,438.801"/>
  <path fill="rgb(63.137255%, 89.411765%, 94.117647%)" opacity="0.825" d="M226.859,354.75 C180.105,479.312 104.062,448.289 104.27,357.102 C113.152,357.199 141.914,395.82 42.879,416.016 C38.734,308.859 57.383,316.113 141.449,256.559 C136.371,312.957 190.984,284.66 226.859,354.75"/>
  <path fill="rgb(55.294118%, 95.294118%, 86.27451%)" opacity="0.478" d="M139.797,219.184 C141.996,293.828 150.113,262.922 67.816,239.648 C-18.953,309.652 -41.844,237.324 29.887,248.547 C43.281,256.219 67.809,236.625 84.496,246.242 C83.715,170.715 103.523,186.449 139.797,219.184"/>
  <path fill="rgb(74.117647%, 99.215686%, 98.431373%)" d="M66.809,307.148 C87.754,325.922 90.535,295.762 99.25,383.039 C-13.977,429.328 -2.793,398.422 -20,354.273 C-26.766,299.066 -48.57,263.117 9.625,245.969 C57.02,283.672 76.188,275.41 66.809,307.148"/>
  <path fill="rgb(54.117647%, 76.078431%, 96.862745%)" opacity="0.562" d="M96.754,350.844 C128.453,358.387 122.23,401.633 108.383,354.641 C73.387,327.539 46.203,312.098 36.707,291.816 C41.41,252.371 79.316,259.344 74.891,281.582 C110.875,296.594 84.309,325.23 96.754,350.844"/>
  <path fill="rgb(70.588235%, 70.980392%, 70.588235%)" opacity="0.097" d="M334.133,114.945 C279.617,71.781 252.336,1.23 304.801,178.539 C89.883,238.555 102.465,220.484 184.172,209.641 C180.141,71.559 206.113,105.414 193.375,71.242 C190.195,55.594 230.59,71.887 334.133,114.945"/>
  <path fill="rgb(58.823529%, 95.686275%, 96.078431%)" opacity="0.568" d="M152.129,153.961 C134.16,201.469 156.605,207.867 88.551,199.727 C17.547,180.711 -0.062,183.734 -32.344,87.805 C-60.262,5.664 -61.934,13.746 74.66,-52.371 C183.812,22.949 179.75,122.219 152.129,153.961"/>
  <path fill="rgb(97.647059%, 94.509804%, 100%)" opacity="0.923" d="M122.332,270.02 C118.637,319.621 76.445,323.824 49.574,306.121 C40.781,303.918 31.98,275.164 33.367,264.828 C65.77,235.938 29.988,277.484 43.496,267.656 C51.355,287.562 64.992,268.828 122.332,270.02"/>
  <path fill="rgb(78.431373%, 96.078431%, 96.470588%)" opacity="0.909" d="M111.887,169.914 C103.402,206.121 115.012,248.535 65.977,251.059 C-20.383,213.93 -51.668,274.371 -38.883,133.555 C44.918,64.367 57.402,103.234 66.254,137.953 C107.086,147.5 78.727,154.402 111.887,169.914"/>
  <path fill="rgb(72.941176%, 98.823529%, 99.607843%)" opacity="0.953" d="M447.387,65.105 C363.414,120.582 365.012,121.734 333.574,98.535 C279.508,65.262 274.195,97.402 171.195,23.629 C205.652,-86.078 274.898,44.406 298.84,-25.742 C394.371,-85.629 356.207,-24.031 447.387,65.105"/>
  <path fill="rgb(68.627451%, 85.490196%, 90.980392%)" opacity="0.913" d="M449.801,223.203 C411.066,250.66 360.848,255.691 348.145,242.621 C351.988,224.094 351.859,177.422 345.098,169.777 C341.582,142.027 324.602,157.344 312.176,91.566 C438.105,77.277 439.961,88.953 449.801,223.203"/>
  <path fill="rgb(82.745098%, 77.647059%, 99.215686%)" opacity="0.056" d="M452.527,87.285 C455.902,65.473 416.504,112.527 358.793,128.59 C214.426,142.617 268.695,123.277 340.598,97.531 C365.832,60.805 372.91,67.973 388.016,74.242 C426.832,51.609 431.758,34.438 452.527,87.285"/>
  <path fill="rgb(69.803922%, 99.215686%, 95.294118%)" opacity="0.483" d="M316.074,357.785 C319.07,438.426 305.422,421.941 222.871,447.664 C202.922,455.703 200.695,453.961 172.984,339.617 C236.496,341.512 276.727,363.266 320.754,340.504 C313.52,306.07 331.188,319.332 316.074,357.785"/>
  <path fill="rgb(76.470588%, 96.470588%, 97.254902%)" opacity="0.816" d="M60.465,197.98 C71.582,225.562 69.188,243.887 52.277,252.453 C-31.707,257.762 -2.402,253.156 -5.969,160.613 C28.418,145.969 46.805,187.203 66.82,168.445 C29.98,157.715 25.527,163.211 60.465,197.98"/>
  <path fill="rgb(99.607843%, 79.215686%, 5.490196%)" opacity="0.957" d="M317.879,194.25 C222.508,260.996 199.773,271.047 209.785,270.809 C123.148,240.395 132.035,186.887 196.641,188.469 C176.086,145.484 170.918,191.148 157.145,143.285 C154.051,114.422 257.617,133.422 317.879,194.25"/>
  <path fill="rgb(75.686275%, 98.039216%, 100%)" opacity="0.991" d="M147.449,104.977 C137.469,107.629 149.727,119.023 129.891,122.477 C118.367,149.016 116.156,126.359 122.527,28.969 C134.516,-23 81.578,-66.137 148.426,-101.629 C213.082,14.387 182.5,78.973 147.449,104.977"/>
  <path fill="rgb(100%, 34.509804%, 5.882353%)" opacity="0.951" d="M113.359,272.754 C65.738,290.328 49.93,273.527 47.402,267.691 C46.965,267.086 43.391,289.793 69.934,264.773 C98.836,247.637 103,299.113 40.977,271.398 C43.16,248.758 115.203,244.672 113.359,272.754"/>
  <path fill="rgb(47.058824%, 92.941176%, 75.294118%)" opacity="0.065" d="M416.176,321.922 C343.918,330.445 340.152,319.129 338.445,323.445 C345.16,341.828 363.043,318.457 357.895,360.746 C322.422,342.117 318.668,347.676 367.832,351.164 C414.281,353.266 440.281,343.383 416.176,321.922"/>
  <path fill="rgb(100%, 77.647059%, 3.921569%)" d="M120.625,224.375 C133.371,219.609 183.348,247.238 165.531,195.711 C112.461,170.945 109.652,216.953 132.043,240.406 C128.379,202.082 147.707,209.027 111.934,195.711 C134.527,205.582 156.746,194.586 120.625,224.375"/>
  <path fill="rgb(36.862745%, 87.058824%, 80%)" opacity="0.217" d="M320.449,92.988 C327.664,90.27 368.891,120.332 328.34,111.406 C309.492,73.801 270.609,69.621 283.875,82.027 C321.926,86.363 322.102,92.289 327.57,80.512 C326.199,96.191 326.996,100.996 320.449,92.988"/>
  <path fill="rgb(100%, 79.215686%, 14.117647%)" opacity="0.936" d="M331.566,258.441 C246.816,268.188 282.422,278.312 245.355,285.422 C214.539,276.992 215.402,258.852 210.707,270.848 C185.102,246.797 204.102,239.219 246.98,183.414 C274.602,221.977 357.805,217.707 331.566,258.441"/>
  <path fill="rgb(57.254902%, 100%, 79.215686%)" opacity="0.281" d="M336.414,386.484 C361.008,429.32 353.074,428.324 339,395.023 C302.402,376.875 300.219,379.082 251.504,378.992 C261.418,442.172 315.035,426.719 303.27,358.211 C314.977,380.531 324.602,347.973 336.414,386.484"/>
  <path fill="rgb(67.45098%, 32.941176%, 0%)" opacity="0.329" d="M258.566,189.688 C305.875,202.234 312.5,214.906 306.258,155.043 C315.793,159.773 296.66,145.895 228.84,146.852 C301.863,168.809 304.496,166.988 314.773,182.363 C328.832,218.922 314.82,193.891 258.566,189.688"/>
  <path fill="rgb(80.784314%, 71.764706%, 84.705882%)" opacity="0.176" d="M190.922,258.105 C243.652,282.523 251.992,283.859 216.309,302.582 C194.262,293.062 209.672,269.539 210.711,299.801 C214.25,271.387 193.75,256.348 179.82,253.414 C233.371,243.484 223.891,243.992 190.922,258.105"/>
  <path fill="rgb(58.039216%, 83.137255%, 92.156863%)" opacity="0.871" d="M387.066,184.992 C337.645,128.785 313.848,96.906 309.758,108.738 C346.617,119.66 327.191,110.043 327.172,76.293 C324.246,91.57 348.961,102.426 384.684,84.613 C431.914,43.461 458.977,47.703 387.066,184.992"/>
  <path fill="rgb(86.27451%, 98.431373%, 89.803922%)" opacity="0.138" d="M213.484,115.832 C181.797,180.191 166.113,134.789 197.559,144.516 C206.43,138.961 155.055,138.688 180.738,148.773 C176.777,138.598 170.445,93.324 172.594,77.234 C164.621,67.008 196.148,96.066 213.484,115.832"/>
  <path fill="rgb(61.568627%, 73.333333%, 99.607843%)" opacity="0.069" d="M408.531,293.855 C410.031,299.086 405.512,294.406 408.531,271.508 C391.625,272.934 361.312,235.973 362.809,303.383 C429.875,303.465 451.547,301.934 444.863,287.215 C412.266,218.848 406.258,231.457 408.531,293.855"/>
</svg>

