<svg xmlns="http://www.w3.org/2000/svg" width="384" height="384" viewBox="0 0 384 384">
  <defs/>
  <path fill="rgb(60%, 42.352941%, 61.960784%)" opacity="0.649" d="M48.531,46.609 C38.68,80.383 44.789,100.207 27.004,74.008 C30.262,45.512 9.551,67.199 30.574,53.41 C20.141,26.719 15.219,13.441 36.648,47.066 C70.219,61.164 66.883,39.469 48.531,46.609"/>
  <path fill="rgb(1.960784%, 66.27451%, 84.313725%)" opacity="0.994" d="M135.391,112.969 C93.391,102.648 105.312,127.746 111.422,126.305 C72.57,169.383 31.574,184.875 26.07,136.336 C33.602,61.613 18.535,50.055 77.125,54.484 C167.449,29.934 167.734,27 135.391,112.969"/>
  <path fill="rgb(3.529412%, 68.627451%, 83.137255%)" opacity="0.991" d="M264.699,152.742 C169.035,265.426 178.645,278.844 154.609,233.082 C116.906,201.73 99.953,249.094 110.586,256.277 C104.523,189.137 62.684,238.148 117.453,169.246 C216.883,129.324 269.094,117.949 264.699,152.742"/>
  <path fill="rgb(0%, 47.843137%, 71.372549%)" d="M57.746,1.758 C61.148,46.637 57.945,59.984 42.121,38.391 C5.996,51.211 -2.531,59.047 -19.375,37.332 C-17.531,4.121 -3.879,-2.711 23.355,-12.68 C13.691,-11.77 16.902,7.41 57.746,1.758"/>
  <path fill="rgb(40.392157%, 44.705882%, 77.254902%)" opacity="0.684" d="M325.84,139.391 C325.164,171.129 323.797,159.406 336.973,164.113 C330.082,146.328 326.723,158.188 346.938,147.906 C312.543,151.738 319.051,146.168 360.5,155.59 C360.172,87.707 367.738,116.477 325.84,139.391"/>
  <path fill="rgb(88.235294%, 86.666667%, 87.45098%)" opacity="0.165" d="M258.746,264.477 C250.152,334.199 254.723,323.477 296.164,333.086 C263.629,339.254 252.891,331.77 242.656,280.18 C325.395,289.145 317.43,288.391 279.676,281.926 C250.137,289.141 261.871,270.289 258.746,264.477"/>
  <path fill="rgb(0%, 73.72549%, 84.313725%)" opacity="0.788" d="M56.203,38.82 C42.832,44.461 35.438,35.379 24.031,45.094 C16.77,74.516 -3.938,72.078 -29.277,32.598 C-22.789,5.078 -14.789,0.051 21.086,-6.449 C63.148,13.504 40.703,50.914 56.203,38.82"/>
  <path fill="rgb(96.078431%, 99.607843%, 100%)" opacity="0.016" d="M344.84,67 C322.82,72.848 311.23,71.629 325.148,68.129 C324.148,78.914 311.484,76.176 340.668,36.793 C349.02,2.309 331.023,29.52 312.68,11.277 C311.41,22.426 328.48,51.672 344.84,67"/>
  <path fill="rgb(27.843137%, 13.333333%, 10.196078%)" opacity="0.852" d="M380.719,277.547 C286.746,291.926 239.656,283.734 45.348,286.109 C-8.922,287.215 44.883,316.512 33.531,218.652 C174.766,221.059 133.242,217.457 155.199,236.328 C205.02,238.438 247.656,251.934 380.719,277.547"/>
  <path fill="rgb(0.784314%, 67.843137%, 85.490196%)" d="M477.301,80.07 C320.371,64.309 355.598,-31.246 231.34,60.797 C192.051,30.637 178.762,87.969 131.398,55.039 C115.41,-61.871 139.465,-32.824 193.285,-58.281 C260.352,-65.965 359.355,-148.914 477.301,80.07"/>
  <path fill="rgb(10.196078%, 10.196078%, 19.607843%)" opacity="0.983" d="M168.383,225.93 C174.938,288.914 145.805,296.227 139.25,253.062 C96.875,258.301 28.07,264.91 -5.945,248.824 C69.512,208.441 118.02,159.699 101.383,220.812 C250.859,210.59 259.941,247.762 168.383,225.93"/>
  <path fill="rgb(18.039216%, 22.745098%, 20%)" opacity="0.735" d="M478.695,325.598 C429.973,321.254 348.117,304.117 328.797,321.168 C270.582,337.375 302.609,291.664 259.895,239.273 C225.5,228.684 222.297,220.758 331.961,230.449 C322.242,161.672 424.902,119.828 478.695,325.598"/>
  <path fill="rgb(2.352941%, 66.27451%, 87.843137%)" opacity="0.969" d="M200.137,48.426 C147.25,64.41 220.324,88.902 122.668,87.516 C27.801,-53.949 114.457,38.57 115.188,33.715 C137.832,81.793 41.742,116.766 29.895,-14.797 C155.57,-93.547 194.211,-66.262 200.137,48.426"/>
  <path fill="rgb(100%, 98.823529%, 100%)" opacity="0.821" d="M236.703,292.32 C206.055,300.754 192.977,311.262 176.227,319.324 C178.727,290.961 180.73,261.438 101.352,275.473 C157.789,270.281 183.828,282.605 162.895,287.289 C177.457,309.762 206.266,297.441 236.703,292.32"/>
  <path fill="rgb(0%, 76.078431%, 65.882353%)" opacity="0.193" d="M185,5.582 C186.441,66.828 194.699,52.398 151.777,21.688 C88.836,43.91 95.449,36.457 56.359,15.891 C53.379,-43.344 98.441,-2.863 134.18,-3.906 C162.633,-1.781 174.441,-5.305 185,5.582"/>
  <path fill="rgb(9.803922%, 12.156863%, 28.235294%)" opacity="0.835" d="M229.094,238.199 C336.363,244.68 333.508,265.801 261.344,286.824 C117.18,259.242 99.512,273.512 103.023,212.316 C280.609,214.598 273.555,223.535 209.668,252.32 C199.273,193.574 205.59,194.523 229.094,238.199"/>
  <path fill="rgb(4.705882%, 8.627451%, 9.411765%)" opacity="0.853" d="M446.309,270.773 C275.418,299.973 216.234,270.379 237.957,274.246 C245.238,260.527 194.148,270.074 216.211,258.402 C290.711,266.586 299.871,256.895 293.656,269.113 C277.566,268.281 258.73,248.344 446.309,270.773"/>
  <path fill="rgb(99.215686%, 72.54902%, 13.333333%)" opacity="0.747" d="M360.082,350.383 C381.562,393.434 316.586,379.715 252.883,407.727 C185.109,388.824 209.473,408.742 -14.172,384.828 C154.441,229.672 269.941,326.418 266.148,278.867 C322.137,294.555 282.891,278.445 360.082,350.383"/>
  <path fill="rgb(1.176471%, 58.823529%, 61.176471%)" opacity="0.065" d="M335.453,199.016 C255.625,253.766 221,236.164 159.938,239.953 C156.148,289.523 185.836,217.82 135.809,195.828 C202.832,200.031 192.148,217.234 193.926,162.508 C181.633,121.082 236.914,114.098 335.453,199.016"/>
  <path fill="rgb(25.098039%, 76.470588%, 68.627451%)" opacity="0.221" d="M201.363,284.32 C104.121,276.043 125.242,291.871 92.285,303.238 C91.16,304.195 90.215,246.598 66.496,298.297 C114.504,306.68 164.199,291.035 138.48,272.473 C84.387,284.777 90.582,290.703 201.363,284.32"/>
  <path fill="rgb(1.176471%, 59.215686%, 80.392157%)" opacity="0.995" d="M67.258,323.629 C80.688,352.152 78.957,331.738 5.035,334.98 C-46.504,332.613 -23.012,327.977 -20.031,268.367 C-33.488,235.051 -38.656,222.398 48.262,229.824 C60.594,349.574 50.164,321.184 67.258,323.629"/>
  <path fill="rgb(74.117647%, 41.960784%, 39.215686%)" opacity="0.494" d="M8.684,237.719 C34.438,272.676 56.883,266.176 60.355,186.871 C-17.602,217.355 -8.461,264.176 -7.117,221.145 C-6.855,185.953 19.117,187.543 35.961,180.059 C41.324,222.512 43.445,203.605 8.684,237.719"/>
  <path fill="rgb(100%, 95.686275%, 60%)" opacity="0.923" d="M425.598,294.543 C274.219,310.41 218,282.496 262.57,289.516 C241.695,293.32 148.562,300.312 96.344,300.824 C214.645,292.414 264.285,306.598 234.215,288.441 C215.531,295.859 262.242,282.953 425.598,294.543"/>
  <path fill="rgb(19.607843%, 13.333333%, 20.392157%)" opacity="0.996" d="M354.477,207.543 C327.723,227.812 264.77,185.645 241.047,214.676 C174.762,212.574 178.586,231.004 176.25,205.074 C269,209.555 192.812,201.012 225.934,183.742 C262.43,182.531 314.152,136.77 354.477,207.543"/>
  <path fill="rgb(21.568627%, 0%, 20.392157%)" opacity="0.857" d="M318.496,174.234 C279.613,232.883 310.609,298.68 286.383,224.812 C303.953,237.035 294.973,242.816 269.23,228.16 C270.668,171.703 263.141,191.996 305.117,185.703 C336.523,189.715 348.273,207.031 318.496,174.234"/>
  <path fill="rgb(100%, 79.607843%, 36.862745%)" d="M185.172,298.23 C32.078,332.82 104.09,328.316 46.125,368.652 C-33.855,367.691 -44.508,364.07 -62.918,302.34 C8.18,273.387 76.406,292.938 41.648,289.895 C47.172,298.809 131.324,285.105 185.172,298.23"/>
  <path fill="rgb(3.921569%, 18.039216%, 10.588235%)" opacity="0.048" d="M62.562,225.059 C46.211,238.938 142.863,221.832 98.691,243.039 C80.645,262.23 127.754,192.902 62.23,219.934 C104.773,212.848 104.68,211 93.758,215.039 C51.59,214.398 70.703,193.758 62.562,225.059"/>
  <path fill="rgb(1.960784%, 65.882353%, 87.843137%)" opacity="0.875" d="M383.352,324.859 C430.277,274.641 420.254,316.496 391.77,293.383 C253.418,292.914 226.633,298.109 279.227,278.484 C327.211,282.43 281.301,274.27 309.848,291.684 C350.543,256.16 387.395,303.477 383.352,324.859"/>
  <path fill="rgb(42.745098%, 90.196078%, 95.294118%)" opacity="0.079" d="M151.727,-11.297 C148.25,0.766 157.996,0.176 110.914,0.961 C120.992,-9.438 126.039,-31.715 124.297,-33.102 C107.645,-7.066 107.258,-1.539 109.031,-3.266 C115.719,-4.98 118.023,-4.148 151.727,-11.297"/>
  <path fill="rgb(1.960784%, 67.45098%, 80.784314%)" d="M84.191,214.871 C21.98,201.301 34.371,261.465 64.383,271.156 C-36.305,259.246 -18.508,224.805 -29.176,185.082 C-60.441,144.184 -25.969,153.043 88.742,140.289 C73.996,198.551 81.09,147.797 84.191,214.871"/>
  <path fill="rgb(2.352941%, 78.823529%, 88.235294%)" opacity="0.63" d="M25.973,266.641 C-1.172,270.449 -27.508,267.863 -48.945,269.359 C-25.055,237.734 -27.234,232.594 -37.504,208.605 C-33.551,177.32 -34.602,184.016 9.77,179.188 C4.469,150.023 11.879,177.203 25.973,266.641"/>
  <path fill="rgb(98.823529%, 12.941176%, 8.235294%)" opacity="0.976" d="M422.43,205.75 C371.582,207.207 388.258,183.027 385.668,266.035 C357.793,264.215 395.535,266.742 224.453,266.203 C227.508,124.844 229.445,180.016 319.559,168 C388.094,187.262 416.996,162.477 422.43,205.75"/>
  <path fill="rgb(1.960784%, 67.843137%, 80.392157%)" opacity="0.999" d="M86.336,103.395 C35.52,118.352 31.824,121.391 8.52,226.301 C-63.457,213.555 -67.219,192.66 -105.695,57.754 C-62.188,29.773 -35.055,38.41 30.84,47.371 C105.234,29.441 52.695,49.574 86.336,103.395"/>
  <path fill="rgb(100%, 100%, 99.607843%)" d="M152.902,63.668 C5.215,60.418 19.117,58.168 25.078,47.949 C25.961,40.797 32.797,45.691 37.543,43.34 C47.73,53.824 61.453,7.996 92.055,24.801 C78.812,52.07 82.035,21.789 152.902,63.668"/>
  <path fill="rgb(99.215686%, 80.392157%, 30.980392%)" opacity="0.855" d="M375.598,395.039 C280.578,385.531 309.266,373.676 337.078,372.336 C320.961,360.59 317.906,371.91 318.898,337.172 C263.891,320.824 246.258,278.465 286.113,286.367 C424.539,286.156 474.926,277.012 375.598,395.039"/>
  <path fill="rgb(0.392157%, 68.235294%, 85.882353%)" opacity="0.998" d="M446.695,99.727 C443.414,209.602 438.777,199.668 317.762,199.773 C181.801,201.105 186.453,213.164 285.402,110.484 C334.703,125.469 368.887,115.055 377.094,71.164 C347.449,-4.363 402.402,38.25 446.695,99.727"/>
  <path fill="rgb(62.352941%, 55.294118%, 81.568627%)" opacity="0.067" d="M365.98,77.391 C381.121,76.945 393.32,70.016 418.484,104.855 C408.203,128.395 374.867,122.875 319.859,116.277 C370.895,102.289 374.215,88.91 406.289,90.719 C377.945,90 373.602,65.109 365.98,77.391"/>
  <path fill="rgb(61.960784%, 19.607843%, 26.27451%)" opacity="0.773" d="M145.145,261.195 C146.305,275.398 145.445,282.582 191.484,256.805 C220.73,258.977 219.148,265.543 150.043,259.504 C175.758,250.383 185.184,285.867 224.34,270.844 C146.805,265.398 93.031,250.98 145.145,261.195"/>
  <path fill="rgb(0.392157%, 88.235294%, 98.823529%)" opacity="0.098" d="M298.867,-43.301 C292.5,-0.664 294.02,-2.984 294.848,6.656 C295.477,-10.016 251.062,7.867 151.109,2.277 C222.004,-36.719 252.172,-16.289 274.965,-17.281 C277.566,-19.926 282.793,-12.98 298.867,-43.301"/>
  <path fill="rgb(34.901961%, 1.568627%, 6.27451%)" d="M61.043,292.93 C49.609,236.492 85.898,264.398 78.438,277.066 C24.629,272.559 42.977,286.449 49.023,276.367 C27.684,293.48 15.336,241.605 60.039,264.145 C73.273,306.613 30.305,288.227 61.043,292.93"/>
  <path fill="rgb(20.392157%, 85.882353%, 85.882353%)" opacity="0.819" d="M198.391,297.621 C218.957,271.867 203.281,280.305 221.77,288.34 C201.859,289.859 204.473,294.504 161.406,288.105 C143.539,288.965 175.105,302.168 178.188,270.039 C195.801,304.527 206.23,286.516 198.391,297.621"/>
</svg>

