<svg xmlns="http://www.w3.org/2000/svg" width="384" height="384" viewBox="0 0 384 384">
  <defs/>
  <path fill="rgb(87.843137%, 99.607843%, 100%)" opacity="0.03" d="M459.246,143.73 C473.055,203.793 454.512,192.215 348.691,194.484 C321.324,158.141 330.105,143.051 357.172,140.918 C344.707,122.367 330.09,83.758 351.191,-9.488 C497.789,16.523 492.105,27.418 459.246,143.73"/>
  <path fill="rgb(76.470588%, 96.470588%, 82.745098%)" opacity="0.017" d="M102.207,49.535 C113.211,76.176 94.527,85.727 9.609,91.57 C-6.047,85.875 14.371,76.055 4.281,24.84 C33.371,42.98 28.301,51.43 26.754,-10.766 C79.629,-29.652 71.984,-17.699 102.207,49.535"/>
  <path fill="rgb(84.313725%, 98.823529%, 100%)" opacity="0.011" d="M299.691,382.367 C291.543,418.395 281.859,403.734 219.406,416.449 C171.754,436.469 171.93,421.949 173.711,342.855 C150.648,303.719 166.82,298.066 237.691,295.906 C325.395,300.246 318.441,288.742 299.691,382.367"/>
  <path fill="rgb(68.235294%, 91.764706%, 69.411765%)" opacity="0.012" d="M356.898,212.023 C358.594,252.246 359.727,225.332 345.617,236.453 C352.805,244.434 330.559,237.898 310.625,233.645 C289.879,184.23 306.863,192.984 330.477,197.527 C316.637,185.891 352.457,193.824 356.898,212.023"/>
  <path fill="rgb(0%, 99.607843%, 98.823529%)" d="M270.41,115.613 C280.676,196.836 283.215,199.773 168.129,191.305 C195.184,120.32 162.953,134.906 185.422,148.238 C234.914,151.211 204.145,102.496 206.008,119.699 C220.102,121.762 228.551,129.168 270.41,115.613"/>
  <path fill="rgb(72.54902%, 88.627451%, 87.058824%)" opacity="0.021" d="M414.645,329.445 C363.195,333.461 346.594,298.887 386.871,352.5 C271.09,355.484 246.133,364.52 287.836,294.871 C291.176,226.32 273.301,204.773 326.27,234.75 C439.941,232.781 456.332,231.059 414.645,329.445"/>
  <path fill="rgb(0%, 34.117647%, 75.686275%)" opacity="0.957" d="M199.266,196.344 C204.016,198.141 285.125,209.215 242.848,276.203 C197.445,323.465 163.184,282.035 132.762,195.875 C166.766,162.117 193.246,78.488 304.688,79.84 C270.137,226.402 279.496,193.707 199.266,196.344"/>
  <path fill="rgb(0%, 35.294118%, 72.54902%)" d="M136.102,160.18 C170.695,124.184 149.535,274.008 87.32,296.32 C13.52,280.371 19.297,201.805 86.402,197.816 C10.824,196.516 13.219,218.578 -12.359,79.648 C122.902,88.641 140.543,214.125 136.102,160.18"/>
  <path fill="rgb(63.529412%, 7.843137%, 21.176471%)" opacity="0.132" d="M131.109,193.73 C76.676,193.828 68.582,207.93 61.547,194.949 C42.656,213.023 33.809,217.031 84.73,194.426 C70.887,207.004 80.082,189.969 44.285,209.621 C74.387,214.355 74.34,196.777 131.109,193.73"/>
  <path fill="rgb(100%, 100%, 97.647059%)" opacity="0.108" d="M47.43,219.098 C22.984,211.027 30.562,244.309 28.48,262.742 C-5.852,250.547 -6.938,247.812 -14.84,262.113 C-11.391,214.734 2.863,194.09 38.82,203.137 C26.695,188.871 24.742,222.137 47.43,219.098"/>
  <path fill="rgb(81.960784%, 84.705882%, 63.921569%)" opacity="0.023" d="M223.738,292.91 C210.32,306.781 212.359,325.18 229.582,341.895 C239.215,336.137 212.074,337.691 159.836,366.934 C121.309,320.84 125.668,281.824 168.859,292.289 C225.035,293.75 217.773,341.43 223.738,292.91"/>
  <path fill="rgb(89.803922%, 76.470588%, 0%)" opacity="0.116" d="M-27.777,142.754 C-5.156,171.664 1.266,173.547 -3.168,193.758 C-4.082,186.508 -5.203,166.25 15.312,161.574 C15.414,160.934 -8.086,127.934 -2,100.133 C-3.656,153.941 -11.27,143.492 -27.777,142.754"/>
  <path fill="rgb(100%, 99.215686%, 97.647059%)" opacity="0.304" d="M364.488,103.258 C362.141,164.895 373.922,168.492 315.562,171.656 C281.949,165.539 271.438,178.055 286.07,136.055 C311.051,140.223 305.945,109.527 298.727,78.426 C357.871,64.242 392.09,62.934 364.488,103.258"/>
</svg>

