<svg xmlns="http://www.w3.org/2000/svg" width="384" height="384" viewBox="0 0 384 384">
  <defs/>
  <path fill="rgb(4.313725%, 43.921569%, 0%)" opacity="0.987" d="M186.137,125.695 C166.668,195.18 176.059,174.418 174.035,171.629 C143.637,160.898 154.914,158.273 159.348,161.582 C134.867,193.012 144.906,168.207 150.102,123.113 C187.523,92.98 186.309,79.82 186.137,125.695"/>
  <path fill="rgb(7.45098%, 0%, 10.980392%)" d="M264.719,137.391 C234.621,138.016 278.93,131.934 271.934,125.492 C252.809,95.77 227.961,110.66 270.535,116.875 C257.824,79.855 281.594,92.949 251.637,116.68 C263.168,86.906 270.141,44.344 264.719,137.391"/>
  <path fill="rgb(100%, 100%, 100%)" opacity="0.005" d="M114.82,146.371 C75.512,171.922 92.988,205.766 142.699,150.973 C130.098,148.789 107.148,156.371 66.305,149.535 C115.574,132.762 129.434,125.145 116.617,97.574 C132.125,99.824 133.574,104.82 114.82,146.371"/>
  <path fill="rgb(88.627451%, 99.215686%, 100%)" opacity="0.006" d="M175.535,33.941 C138.289,93.633 87.934,83.336 40.875,106.262 C-29.027,108.203 -37.684,78.352 -25.613,48.566 C-4.812,8.246 -16.594,7.301 20.852,-19.457 C94.5,-32.527 144.535,-56.797 175.535,33.941"/>
  <path fill="rgb(100%, 100%, 100%)" opacity="0.201" d="M250.605,79.375 C212.234,79.629 199.98,76.379 175.684,68.703 C215.645,65.613 228.465,66.375 204.078,62.945 C223.098,29.602 228.426,32.625 205.012,35.832 C258.004,32.707 252.281,26.477 250.605,79.375"/>
  <path fill="rgb(59.215686%, 55.294118%, 18.823529%)" opacity="0.651" d="M391.582,380.324 C388.43,392.891 383.738,397.555 364.285,399.855 C359.227,398.809 354.195,394.961 368.309,397.648 C375.34,389.664 381.676,385.621 382.387,389.98 C390.637,389.488 388.59,382.414 391.582,380.324"/>
  <path fill="rgb(80.392157%, 79.607843%, 96.470588%)" opacity="0.018" d="M202.828,287.797 C202.371,327.746 239.77,369.988 203.508,403.879 C-12.938,392.676 10.461,381.113 61.137,292.824 C144.93,325.672 148.961,336.703 149.504,312.746 C150.258,282.48 180.367,279.047 202.828,287.797"/>
  <path fill="rgb(5.490196%, 48.235294%, 4.705882%)" opacity="0.913" d="M163.715,294.582 C253.777,334.508 184.609,369.375 140.496,312.773 C123.848,168.922 65.625,265.336 58.871,192.125 C35.02,188.645 79.859,190.086 69.742,185.805 C133.102,198.605 139.953,193.918 163.715,294.582"/>
  <path fill="rgb(48.235294%, 29.803922%, 12.156863%)" opacity="0.782" d="M286.961,164.668 C277.18,170.906 257.469,181.762 242.055,172.641 C259.453,194.617 255.891,192.277 237.512,227.359 C258.066,194.84 275.484,173.832 246.871,218.641 C279.48,125.398 255.883,114.355 286.961,164.668"/>
  <path fill="rgb(2.352941%, 36.078431%, 20%)" d="M247.586,225.523 C209.992,234.953 246.391,228.25 212.355,342.371 C75.594,232.477 124.602,220.035 147.57,143.02 C129.941,111.656 108.359,133.504 205.473,145.676 C214.082,216.969 180.969,164.535 247.586,225.523"/>
  <path fill="rgb(1.176471%, 32.941176%, 22.745098%)" opacity="0.96" d="M227.938,208.902 C83.164,177.281 150.172,173.125 121.68,265.262 C60.09,234.215 59.637,184.93 125.652,227.887 C157.988,195.871 123.32,85.27 173.023,48.82 C209.668,39.348 222.246,85.727 227.938,208.902"/>
  <path fill="rgb(15.686275%, 34.117647%, 23.137255%)" opacity="0.999" d="M81.023,144.383 C82.871,180.008 90.605,174.262 100.355,215.312 C55.527,207.387 49.711,181.082 67.48,115.34 C71.828,130.273 67.328,150.879 57.973,121.84 C82.207,147.004 80.168,150.102 81.023,144.383"/>
  <path fill="rgb(77.647059%, 95.686275%, 29.803922%)" opacity="0.589" d="M88.367,216.949 C75.414,244.078 73.703,256.148 76.691,246.492 C79.875,222.762 73.309,246.363 109.418,245.113 C106.738,264.719 90.531,219.945 80.211,170.594 C71.332,176.977 83.379,210.191 88.367,216.949"/>
  <path fill="rgb(27.45098%, 16.862745%, 40%)" opacity="0.079" d="M154.543,219.281 C149.82,235.719 153.242,242.984 185.309,234.457 C179.062,190.266 175.051,218.332 182.645,229.168 C140.867,203.805 135.336,174.926 148.348,233.547 C139.422,220.012 161.57,191.613 154.543,219.281"/>
  <path fill="rgb(61.960784%, 88.627451%, 87.058824%)" opacity="0.006" d="M228.094,275.309 C203.188,351.492 222.133,339.172 237.105,316.277 C194.508,338.336 180.812,316.293 224.652,383.73 C413.051,412.422 387.516,393.645 321.68,213.312 C209.355,237.824 241.766,292.895 228.094,275.309"/>
  <path fill="rgb(0%, 21.176471%, 24.705882%)" d="M266.379,339.777 C191.352,344.141 126.836,342.152 99.023,340.652 C98.008,342.051 101.246,331.156 142.789,331.352 C138.441,332.871 156.598,333.137 150.973,333.211 C161.066,308.637 153.91,326.859 266.379,339.777"/>
  <path fill="rgb(100%, 99.215686%, 100%)" opacity="0.985" d="M135.031,212.422 C135.93,210.68 136.312,214.809 135.547,237.09 C101.316,232.781 96.641,201.816 86.77,171.84 C53.191,172.008 67.777,164.422 132.609,173.191 C141.266,212.359 130.969,223.922 135.031,212.422"/>
  <path fill="rgb(100%, 100%, 99.215686%)" opacity="0.116" d="M111.676,142.195 C89.742,133.578 72.73,140.168 58.312,156.008 C82.332,183.82 85.523,184.301 87.148,164.781 C97.707,164.82 122.156,180.047 122.922,175.191 C125.227,135.59 110.559,143.062 111.676,142.195"/>
  <path fill="rgb(63.529412%, 100%, 19.607843%)" opacity="0.214" d="M205.258,160.645 C206.477,299.73 221.879,288.492 150.742,264.328 C147.711,161.348 161.703,104.719 152.062,124.965 C130.273,140.266 114.832,113.855 177.656,40.426 C184.133,36.336 198.039,53.559 205.258,160.645"/>
  <path fill="rgb(13.333333%, 47.45098%, 8.235294%)" opacity="0.965" d="M72.672,203.141 C58.938,235.02 93.16,216.406 88.992,226.48 C89.789,167.305 91.402,152.414 61.926,164.719 C60.059,148.633 63.965,192.621 84.574,224.113 C104.766,182.453 113.504,196.664 72.672,203.141"/>
  <path fill="rgb(11.372549%, 46.27451%, 18.823529%)" opacity="0.939" d="M266.762,218.043 C254.824,228.719 240.754,237.324 225.668,234.859 C189.609,172.027 187.672,166.375 189.457,210.699 C257.109,213.215 241.285,201.609 254.438,97.992 C287.277,47.898 285.738,188.43 266.762,218.043"/>
  <path fill="rgb(8.627451%, 29.803922%, 16.470588%)" opacity="0.915" d="M106.598,244.5 C165.242,251.734 141.902,280.047 102.906,263.191 C78.449,251.395 71.277,231.715 64.27,218.043 C84.633,212.594 42.871,213.844 68.668,215.379 C92.973,223.508 84.086,236.328 106.598,244.5"/>
  <path fill="rgb(3.137255%, 32.941176%, 18.823529%)" opacity="0.987" d="M180.496,282.477 C184.148,334.801 190.547,320.012 139.422,278.836 C167.73,311.812 157.059,308.098 143.395,278.68 C175.699,356.336 148.281,357.969 139.207,310.953 C127.91,268.328 138.906,290.035 180.496,282.477"/>
  <path fill="rgb(46.27451%, 95.294118%, 26.666667%)" opacity="0.184" d="M177.656,166.629 C142.156,128.844 119.055,143.777 145.293,278.742 C204.18,223.492 170,148.352 139.051,116.441 C137.16,194.656 141.566,187.438 122.512,161.281 C124.461,166.676 161.992,198.984 177.656,166.629"/>
  <path fill="rgb(83.529412%, 100%, 100%)" opacity="0.007" d="M279.754,-15.332 C295.598,87.371 268.523,107.863 198.883,48.836 C219.16,-18.367 284.754,18.203 312.754,84.738 C305.59,87.801 315.125,97.93 407.012,68.527 C423.125,-2.426 388.512,9.293 279.754,-15.332"/>
  <path fill="rgb(89.411765%, 96.470588%, 95.686275%)" opacity="0.009" d="M393.477,144.402 C392.918,130.145 397.316,144.09 336.594,175.418 C301.883,182.348 268.219,163.699 282.012,118.012 C292.156,55.051 324.852,64.453 369.594,66.352 C397.445,80.109 402.789,105.156 393.477,144.402"/>
  <path fill="rgb(27.058824%, 58.039216%, 21.960784%)" opacity="0.752" d="M157.289,131.98 C161.73,55.711 179.148,73.305 150.906,56.398 C165.836,90.25 141.879,99.996 137.523,87.859 C136.82,95.32 151.895,97.348 177.465,46.02 C175.758,110.148 185.016,158.906 157.289,131.98"/>
  <path fill="rgb(100%, 79.215686%, 100%)" opacity="0.085" d="M18.512,-14.758 C22.289,24.777 35.562,25.195 24.594,-18.352 C-35.266,0.836 -40.824,7.445 -39.207,9.879 C-6.688,-3.059 -4.152,-8.418 13.789,-21.742 C34.77,-25.652 40.422,-14.324 18.512,-14.758"/>
</svg>

