<svg xmlns="http://www.w3.org/2000/svg" width="384" height="384" viewBox="0 0 384 384">
  <defs/>
  <path fill="rgb(32.941176%, 10.980392%, 1.176471%)" opacity="0.855" d="M315.258,195.488 C309.152,344.516 340.781,318.789 254,347.969 C175.238,360.996 130.754,371.586 142.535,319.066 C134.023,186.27 129.164,223.559 172.812,169.105 C238.516,150.594 311.598,170.875 315.258,195.488"/>
  <path fill="rgb(98.039216%, 70.980392%, 93.333333%)" opacity="0.025" d="M282.973,13.953 C284.449,83.035 279.367,94.234 251.176,68.98 C195.625,81.207 181.828,79.387 213.129,44.621 C213.09,32.016 205.391,10.004 219.062,-4.816 C293.273,17.926 284.766,-0.082 282.973,13.953"/>
  <path fill="rgb(97.254902%, 0%, 12.156863%)" d="M178.969,121.535 C194.785,174.867 160.27,216.621 110.562,231.766 C70.918,211.336 57.34,153.773 65.938,132.062 C84.406,83.703 108.039,106.992 119.398,101.82 C130.723,106.391 154.395,77.773 178.969,121.535"/>
  <path fill="rgb(32.156863%, 100%, 54.509804%)" opacity="0.293" d="M-44.164,247.824 C62.027,249.367 39.328,242.285 46.137,264.711 C30.383,243.562 19.98,261.262 56.66,232.309 C-15.641,227.648 13.91,213.816 68.219,212.496 C72.48,260.082 30.309,271.113 -44.164,247.824"/>
  <path fill="rgb(40.784314%, 13.333333%, 0%)" opacity="0.868" d="M79.969,190.266 C98.586,368.75 56.773,366.551 -25.957,340.082 C-14.336,292.52 -1.863,286.812 -0.445,276.609 C-3.312,251.75 -4.508,246.039 -27.98,172.555 C29.242,164.621 60.25,137.953 79.969,190.266"/>
  <path fill="rgb(40.784314%, 23.137255%, 9.803922%)" d="M203.883,258.379 C222.809,374 191.805,366.992 30.523,354.367 C24.195,329.512 78.395,309.172 69.215,279.043 C76.699,240.18 81.629,238.965 43.039,231.586 C89.637,195.68 156.277,187.68 203.883,258.379"/>
  <path fill="rgb(34.901961%, 19.607843%, 12.941176%)" opacity="0.939" d="M171.344,186.453 C236.16,214.078 247.562,237.008 163.262,234.551 C48.52,237.785 24.988,235.051 42.211,182.953 C32.605,156.301 71.449,142.395 68.816,173.617 C102.785,216.215 142.816,209.852 171.344,186.453"/>
  <path fill="rgb(100%, 88.627451%, 100%)" opacity="0.016" d="M205.629,404.336 C204.785,389.609 190.648,361.676 182.676,346.27 C198.559,343.383 174.969,367.828 179.148,335.195 C194.113,355.902 218.414,353.941 222.227,344.715 C199.848,331.914 201.766,337 205.629,404.336"/>
  <path fill="rgb(100%, 51.372549%, 63.529412%)" opacity="0.204" d="M401.375,13.98 C403.828,21.59 406.309,19.254 393.973,9.301 C391.445,-2.598 384.875,-6.988 369.66,-10.93 C362.266,-5.414 369.863,-12.996 377.246,-15.801 C384.949,-8.992 389.633,-4.309 401.375,13.98"/>
  <path fill="rgb(30.196078%, 34.117647%, 0%)" opacity="0.117" d="M71.449,265.801 C110.078,290.664 167.906,336.984 99.227,315.934 C72.871,236.977 91.926,266.961 57.543,323.98 C46.738,265.762 77.484,260.883 59.09,231.895 C53.359,284.051 78.207,316.555 71.449,265.801"/>
  <path fill="rgb(47.058824%, 12.941176%, 20.392157%)" opacity="0.105" d="M205.18,242.516 C305.52,212.711 310.055,203.312 220.977,210.613 C122.727,208.938 148.891,219.957 202.359,233.539 C158.117,203.215 145.164,194.215 176.641,193.211 C207.168,196.441 199.09,197.062 205.18,242.516"/>
  <path fill="rgb(50.980392%, 0.784314%, 23.137255%)" opacity="0.068" d="M104.539,238.977 C129.055,203.125 144.703,208.453 117.863,240.82 C71.145,234.281 82.07,240.145 135.566,274.406 C142.055,254.582 155.145,194.562 119.492,174.281 C78.453,253.414 107.684,298.48 104.539,238.977"/>
  <path fill="rgb(41.176471%, 83.137255%, 0.392157%)" opacity="0.994" d="M213.457,188.555 C217.496,190.609 208.367,187.211 194.656,191.941 C184.035,190.367 189.25,191.113 166.547,185.113 C201.047,153.012 155.656,138.004 223.094,108.559 C310.305,68.832 270.199,160.348 213.457,188.555"/>
</svg>

