<svg xmlns="http://www.w3.org/2000/svg" width="384" height="384" viewBox="0 0 384 384">
  <defs/>
  <path fill="rgb(56.862745%, 19.215686%, 13.333333%)" opacity="0.628" d="M133.598,201.648 C141.766,225.113 138.008,229.754 130.688,183.734 C133.906,151.617 126.129,177.645 109.895,172.973 C99.676,150.672 137.938,145.945 157.082,135.949 C122.844,174.75 130.566,206.137 133.598,201.648"/>
  <path fill="rgb(0%, 51.764706%, 85.882353%)" opacity="0.955" d="M134.816,170.719 C147.281,305.324 142.355,294.855 0.453,297.562 C-61.262,263.801 -87.387,272.832 -55.031,205.656 C48.758,176.551 45.543,184.043 39.543,163.754 C65.277,158.684 74.008,160.566 134.816,170.719"/>
  <path fill="rgb(5.490196%, 54.901961%, 89.019608%)" opacity="0.999" d="M144.66,279.613 C132.004,323.152 112.801,307.387 55.277,327.332 C20.5,332.777 11.238,354.043 -37.91,339.598 C24.113,251.703 47.625,278.051 128.879,281.688 C133.562,249.816 141.074,246.102 144.66,279.613"/>
  <path fill="rgb(43.529412%, 73.333333%, 0%)" opacity="0.838" d="M107.691,332.812 C156.512,382.391 140.266,392.543 86.531,386.102 C8.203,394.086 -32.102,399.023 -19.547,342.852 C49.395,350.68 29.172,317.848 54.641,242.332 C69.535,260.727 56.273,329.18 107.691,332.812"/>
  <path fill="rgb(52.54902%, 78.823529%, 8.627451%)" opacity="0.925" d="M182.945,373.254 C90.25,397.09 93.348,382.152 74.566,334.992 C82.668,306.414 81.891,326.055 76.977,321.832 C116.84,307.152 138.812,311.066 152.312,302.715 C169.477,224.383 186.047,228.105 182.945,373.254"/>
  <path fill="rgb(20%, 49.019608%, 88.627451%)" opacity="0.846" d="M248.984,132.156 C270.305,159.727 275.223,213.004 222.32,199.344 C159.137,208.461 163.891,196.969 181.734,170.07 C177.945,154.293 168.742,172.387 184.961,175.18 C201.148,89.93 233.512,84.141 248.984,132.156"/>
  <path fill="rgb(25.098039%, 59.607843%, 100%)" opacity="0.082" d="M128.758,221.02 C143.934,259.375 137.91,275.527 123.344,306.312 C131.879,297.324 139.016,279.848 132.895,293.488 C127.555,282.117 126.16,273.836 133.27,275.891 C138.543,290.133 117.34,288.52 128.758,221.02"/>
  <path fill="rgb(100%, 84.705882%, 44.313725%)" opacity="0.997" d="M163.25,198.539 C154.723,249.836 160.801,239.246 153.285,297.074 C115.227,337.523 135.801,275.074 130.055,165.219 C123.133,178.637 125.43,166.84 120.461,182.977 C118.273,145.629 123.695,152.164 163.25,198.539"/>
  <path fill="rgb(3.137255%, 52.941176%, 87.45098%)" d="M125.297,199.812 C130.035,258.824 139.633,157.195 89.586,206.941 C79.473,124.629 -48.148,309.797 -104.809,71.641 C-41.859,-60.211 11.93,56.738 195.066,-8.531 C154.266,52.191 151.148,44.016 125.297,199.812"/>
  <path fill="rgb(100%, 44.313725%, 26.666667%)" d="M172.129,127.371 C137.996,125.465 152.133,107.609 135.156,174.785 C118.762,149.023 114.398,138.367 146.336,134.246 C161.883,112.996 173.383,101.055 172.449,87.383 C170.184,83.039 173.688,105.379 172.129,127.371"/>
  <path fill="rgb(3.137255%, 51.764706%, 83.137255%)" opacity="0.973" d="M520.445,176.09 C469.504,284.738 465.18,294.125 349.383,333.941 C225.055,300.785 277.863,296.75 254.879,149.133 C234.43,32.285 228.711,39.824 362.188,31.746 C474.617,37.406 485.527,36.359 520.445,176.09"/>
  <path fill="rgb(56.470588%, 27.45098%, 45.490196%)" opacity="0.473" d="M233.098,430.891 C248.254,373.383 253.496,425.148 245.086,392.227 C233.047,380.23 219.078,392.254 118.977,447.086 C152.484,307.398 180.008,264.895 182.758,208.148 C346.211,359.781 381.816,426.711 233.098,430.891"/>
  <path fill="rgb(3.137255%, 54.117647%, 87.058824%)" opacity="0.981" d="M260.188,139.039 C237.77,156.129 236.609,179.012 166.668,194.375 C169.473,53.891 120.078,91.406 122.613,6.918 C96.676,-16.707 69.578,-3.438 303.672,-4.973 C331.348,40.914 313.699,51.32 260.188,139.039"/>
  <path fill="rgb(42.352941%, 72.941176%, 0%)" opacity="0.882" d="M422.391,297.07 C458.285,361.133 456.41,394.941 314.688,406.148 C335.527,255.215 303.668,328.316 366.781,335.438 C375.645,322.57 377.969,282.461 393.988,236.738 C389.559,232.02 397.977,230.52 422.391,297.07"/>
  <path fill="rgb(3.529412%, 54.117647%, 89.019608%)" d="M414.719,38.934 C417.051,91.199 409.305,91.461 391.199,20.617 C347.883,-3.969 321.16,37.898 238.797,36.094 C235.996,-59.191 254.496,-52.094 325.586,-50.121 C389.059,-13.008 395.133,-8.211 414.719,38.934"/>
  <path fill="rgb(10.196078%, 25.882353%, 87.843137%)" opacity="0.916" d="M94.836,-42.047 C61.453,-36.848 40.961,-27.789 -26.258,10.383 C6.148,119.992 -37.605,89.566 -65.176,-1.062 C18.703,-44.945 63.477,-14.832 88.141,-6.168 C111.305,-14.441 133.484,-22.391 94.836,-42.047"/>
  <path fill="rgb(6.666667%, 54.509804%, 99.215686%)" opacity="0.306" d="M159.582,33.008 C196.574,36.812 175.164,36.105 145.121,19.805 C110.555,-12.637 38.152,0.488 52.152,-11.508 C67.473,-16.824 71.586,-19.988 96.875,-41.59 C180.582,-41.664 174.879,-19.164 159.582,33.008"/>
  <path fill="rgb(99.215686%, 69.411765%, 44.313725%)" opacity="0.939" d="M182.57,200.492 C214.879,174.125 245.953,251.398 158.785,229.02 C125.164,163.16 153.285,159.848 159.457,17.938 C166.324,124.734 163.762,127.625 186.414,141.922 C189.215,192.988 177.727,148.441 182.57,200.492"/>
  <path fill="rgb(32.54902%, 36.078431%, 78.431373%)" opacity="0.058" d="M176.266,-45.266 C163.566,0.789 158.758,17.734 161.895,82.012 C150.551,59.25 170.363,50.297 172.504,-1.086 C142.602,-32.344 154.293,-40.914 193.469,-33.969 C176.156,-1.527 196.625,-12.148 176.266,-45.266"/>
  <path fill="rgb(100%, 38.823529%, 31.372549%)" opacity="0.991" d="M283.539,187.109 C307.352,139.836 306.574,158.871 303.242,222.809 C225.777,240.73 240.559,265.645 242.137,182.551 C309.762,59.957 270.188,-9.93 313.406,128.602 C333.902,166.574 311.977,179.723 283.539,187.109"/>
  <path fill="rgb(87.843137%, 50.980392%, 34.901961%)" opacity="0.972" d="M319.75,31.168 C318.27,19.055 325.707,20.727 306.023,33.332 C285.812,34.84 293.402,75.348 288.129,46.457 C294.438,6.578 279.918,26.105 294.141,32.023 C278.727,21.766 273.262,25.824 319.75,31.168"/>
  <path fill="rgb(84.313725%, 57.254902%, 19.215686%)" opacity="0.671" d="M216.66,312.156 C235.125,279.688 254.785,268.449 274.891,320.363 C251.664,315.035 255.227,301.5 244.68,275.695 C230.887,246.918 200.629,257.098 243.027,268.449 C275.434,316.043 270.469,325.441 216.66,312.156"/>
  <path fill="rgb(12.941176%, 46.666667%, 100%)" opacity="0.127" d="M68.223,99.945 C61.766,165.391 81.688,188.039 70.852,168.926 C104.629,166.168 89.312,175.07 84.445,150.023 C88.879,149.262 63.66,146.457 71.848,159.891 C77.641,142.023 50.551,93.895 68.223,99.945"/>
  <path fill="rgb(100%, 73.72549%, 48.235294%)" opacity="0.965" d="M261.367,255.523 C230.73,358.562 153.988,286.73 128.18,314.215 C139.824,304.312 135.098,303.605 136.117,245.984 C134.762,232.238 135.301,213.852 132.773,201.414 C139.133,213.883 213.25,163.223 261.367,255.523"/>
  <path fill="rgb(96.862745%, 76.078431%, 47.843137%)" opacity="0.973" d="M149.191,162.008 C119.461,174.516 129.418,162.656 178.094,226.852 C183.543,168.754 187.578,164.277 148.844,170.633 C115.152,178.25 119.391,166.383 149.082,83.734 C146.301,116.254 145.742,136.793 149.191,162.008"/>
  <path fill="rgb(100%, 81.176471%, 58.039216%)" d="M317.09,342.91 C308.199,352.867 248.48,299.664 261.445,318.883 C266.168,320.207 281.605,306.301 223.41,312.879 C226.855,217.664 199.359,193.543 313.414,180.91 C316.051,237.703 311.051,262.07 317.09,342.91"/>
  <path fill="rgb(100%, 30.980392%, 25.882353%)" opacity="0.947" d="M179.402,140.535 C195.91,163.906 169.691,152.918 125.09,156.613 C135.883,124.215 139.332,132.301 125.719,140.035 C150.211,107.281 133.547,119.938 159.484,50.031 C166.504,81.246 170.707,97.879 179.402,140.535"/>
  <path fill="rgb(4.705882%, 50.196078%, 100%)" opacity="0.054" d="M354.922,228.336 C355.109,244.594 375.77,238.422 315.992,237.664 C309.156,211.098 335.445,243.434 327.168,186.277 C375.824,188.914 389.262,204.188 346.805,188.57 C347.668,227.625 330.918,210.441 354.922,228.336"/>
  <path fill="rgb(56.078431%, 78.431373%, 14.117647%)" opacity="0.957" d="M205.969,328.68 C230.359,292.215 138.645,312.895 120.137,336.301 C128.707,314.645 99.395,375.434 148.637,411.051 C143.66,340.504 125.227,357.16 138.34,349.445 C146.176,419.844 201.066,460.949 205.969,328.68"/>
  <path fill="rgb(99.215686%, 75.686275%, 43.921569%)" opacity="0.956" d="M292.934,167.656 C335.996,156.477 301.07,205.652 298.922,232.523 C208.781,198.262 215.066,222.223 211.105,186.645 C230.91,192.707 231.102,178.027 231.938,200.789 C272.32,207.086 223.254,158.535 292.934,167.656"/>
  <path fill="rgb(100%, 52.54902%, 23.921569%)" opacity="0.041" d="M297,231.895 C286.723,226.402 291.441,264.363 286.105,318.602 C272.418,296.375 283.668,290.648 308.012,258.359 C298.441,314.977 322.344,297.293 321.254,241.711 C305.258,212.129 284.027,225.793 297,231.895"/>
  <path fill="rgb(3.529412%, 51.764706%, 88.627451%)" opacity="0.8" d="M382.105,135.109 C408.82,159.285 365.836,153.516 316.387,138.039 C321.945,144.152 320.406,142.906 298.977,86.883 C284.172,16.887 273.922,37.438 356.172,54.262 C352.066,121.531 338.168,119.676 382.105,135.109"/>
  <path fill="rgb(12.941176%, 67.45098%, 78.039216%)" opacity="0.107" d="M273.746,-5.355 C242.59,10.102 227.742,0.84 264.855,11.695 C150.656,9.508 174.352,19.223 174.648,-3.215 C212.645,-12.039 201.531,-32 205.312,-44.363 C237.672,-11.234 241.301,-7.621 273.746,-5.355"/>
  <path fill="rgb(72.941176%, 39.215686%, 61.176471%)" opacity="0.509" d="M237.012,379.969 C174.613,381.621 187.742,381.215 192.664,388.676 C187.129,367.031 175.254,372.578 177.535,361.824 C190.172,399.555 200.434,358.523 207.688,282.891 C241.945,255.387 244.094,277.195 237.012,379.969"/>
  <path fill="rgb(0%, 58.431373%, 68.235294%)" opacity="0.131" d="M358.219,163.211 C359.375,198.34 368.758,175.844 335.629,178.602 C337.168,175.844 343.199,186.809 349.633,136.441 C337.938,156.012 345.77,96.668 328.34,67.156 C313.812,172.078 323.898,155.848 358.219,163.211"/>
  <path fill="rgb(4.705882%, 54.509804%, 90.588235%)" opacity="0.988" d="M264.543,175.266 C256.453,163.145 260.809,162.555 254.125,138.777 C245.672,124.055 237.008,128.59 239.863,131.598 C212.305,137.113 211.367,120.512 222.969,176.871 C262.465,191.566 263.406,222.594 264.543,175.266"/>
  <path fill="rgb(50.588235%, 76.078431%, 12.941176%)" opacity="0.96" d="M382.324,321.266 C313.504,456.637 239.473,427.832 245.016,368.535 C237.512,303.508 236.582,317.531 263.727,340.512 C231.969,328.625 234.281,296.691 238.859,311.918 C289.617,308.711 313.93,300.34 382.324,321.266"/>
  <path fill="rgb(9.411765%, 46.666667%, 76.078431%)" opacity="0.896" d="M387.809,74.57 C385.141,71.047 414.734,43.727 397.18,27.43 C358.926,-7.211 352.973,26.801 354.832,13.473 C400.297,20.93 413.086,31.949 442.094,50.898 C406.98,44.566 408.551,46.715 387.809,74.57"/>
  <path fill="rgb(96.470588%, 58.431373%, 36.078431%)" opacity="0.086" d="M268.234,304.473 C250.23,299.051 286.148,296.723 254.375,319.789 C215.449,292.941 232.742,275.062 261.23,276.582 C262.156,172.27 270.863,182.996 263.906,262.352 C267.391,244.93 270.258,222.105 268.234,304.473"/>
</svg>

