<svg xmlns="http://www.w3.org/2000/svg" width="384" height="384" viewBox="0 0 384 384">
  <defs/>
  <path fill="rgb(36.078431%, 82.352941%, 0%)" opacity="0.809" d="M118.727,245.934 C118.816,249.398 113.098,238.406 88.547,192.055 C79.574,246.887 80.863,253.25 103.34,248.188 C99.344,211.211 106.57,211.801 103.148,200.383 C99.012,182.5 118.109,207.684 118.727,245.934"/>
  <path fill="rgb(96.078431%, 75.294118%, 5.490196%)" opacity="0.87" d="M269.711,351.02 C267.68,395.523 267.293,398.855 208.516,408.949 C174.449,406.254 187.09,411.145 183.215,337.203 C218.504,338.793 197.355,335.41 255.84,337.488 C254.078,277.934 255.309,289.609 269.711,351.02"/>
  <path fill="rgb(90.196078%, 72.54902%, 11.372549%)" opacity="0.807" d="M270.219,277.039 C273.27,242.059 266.633,254.707 246.688,259.695 C244.191,277.355 246.676,264.332 245.023,240.137 C230.047,250.68 250.855,248.453 273.957,267.445 C278.766,267.23 308.449,279.418 270.219,277.039"/>
  <path fill="rgb(96.862745%, 77.254902%, 19.215686%)" opacity="0.984" d="M386.094,332.965 C407.684,393.445 397.215,402.617 294.039,432.422 C247.637,369.07 238.602,355.188 264.219,359.773 C241.766,279.758 231.996,302.027 322.238,248.934 C332.82,253.961 358.484,281.73 386.094,332.965"/>
  <path fill="rgb(14.117647%, 4.705882%, 5.098039%)" opacity="0.892" d="M358.66,67.48 C347.039,105.938 354.777,89.773 350.902,73.754 C292.895,45.648 271.234,40.523 263.16,44.91 C237.457,37.926 249.684,40.02 304.289,26.453 C379.223,3.242 354.922,-14.641 358.66,67.48"/>
  <path fill="rgb(100%, 92.156863%, 100%)" opacity="0.006" d="M40.73,254.406 C35.984,298.391 37.516,306.406 15.266,301.344 C-0.105,292.285 8.09,263.34 13.285,284.602 C-0.867,295.035 -34.684,295.129 -11.891,229.41 C45.91,215.777 79.027,216.816 40.73,254.406"/>
  <path fill="rgb(56.078431%, 100%, 13.72549%)" opacity="0.847" d="M250.43,43.449 C272.219,117.336 264.105,127.73 211.219,121.293 C163.52,110.059 146.059,151.008 175.312,52.945 C220.168,54.988 233.465,100.906 217.234,66.707 C194.648,32.801 195.859,41.113 250.43,43.449"/>
  <path fill="rgb(36.862745%, 100%, 26.666667%)" opacity="0.545" d="M222.047,364.324 C181.043,357.699 197.691,341.555 200.277,385.203 C163.344,388.035 137.809,355.898 186.953,352.465 C199.383,325.996 199.5,322.277 216.172,273.484 C221.316,301.754 212.777,342.75 222.047,364.324"/>
  <path fill="rgb(99.607843%, 73.72549%, 1.960784%)" opacity="0.833" d="M304.301,68.113 C299.094,211.262 260.738,179.883 156.211,233.066 C100.465,236.883 93.375,221.203 100.488,175.148 C181.32,111.551 195.672,122.805 223.551,0.855 C275.305,-9.809 309.062,14.027 304.301,68.113"/>
  <path fill="rgb(99.215686%, 78.823529%, 21.568627%)" opacity="0.994" d="M257.43,4.207 C271.676,201.191 179.629,124.137 101.773,180.055 C13.367,163.855 52.09,175.406 8.363,142.949 C17.547,47.086 71.91,46.805 84.613,22.406 C156.219,-1.258 169.629,-11.262 257.43,4.207"/>
  <path fill="rgb(99.215686%, 76.470588%, 20.784314%)" opacity="0.978" d="M274.281,264.793 C260.488,372.266 253.379,355.164 154.781,433.605 C-27.16,424.469 -5.602,403.754 29.395,321.074 C77.328,238.922 109.199,226.844 165.75,237.754 C208.719,250.863 251.73,187.375 274.281,264.793"/>
  <path fill="rgb(100%, 74.509804%, 40.392157%)" opacity="0.154" d="M151.711,218.734 C107.734,202.129 144.512,249.805 163.316,305.355 C89.402,280.254 99.797,268.508 88.484,224.18 C87.051,175.234 78.047,151.027 113.793,142.32 C117.547,203.477 134.523,228.879 151.711,218.734"/>
  <path fill="rgb(99.607843%, 76.862745%, 18.823529%)" opacity="0.997" d="M210.988,242.695 C65.215,259.789 64.293,249.359 57.789,239.293 C74.188,242.516 89.734,238.926 55.309,242.305 C6.59,207.238 -7.34,146.09 27.664,89.773 C166.93,133.73 194.254,132.473 210.988,242.695"/>
  <path fill="rgb(99.215686%, 76.862745%, 24.313725%)" d="M389.441,82.258 C433.594,175.988 381.984,246.969 296.754,271.84 C284.035,83.016 312.641,103.656 237.977,102.844 C246.07,24.297 188.363,13.613 285.375,7.984 C345.281,33.027 355.578,36.977 389.441,82.258"/>
  <path fill="rgb(99.215686%, 77.254902%, 20%)" d="M111.426,268.895 C116.754,258.535 115.324,284.875 70.457,267.785 C86,251.125 85.289,258.363 100.602,268.906 C88.125,260.742 70.258,261.547 51.32,232.457 C126.402,214.543 85.727,260.445 111.426,268.895"/>
  <path fill="rgb(98.039216%, 85.490196%, 30.588235%)" opacity="0.105" d="M269.617,109.219 C274.395,88.797 268.105,93.52 281.137,101.754 C272.918,163.074 241.398,153.594 239.508,67.496 C223.23,86.234 257.055,73.934 257.82,88.496 C260.281,74.074 269.711,78.086 269.617,109.219"/>
  <path fill="rgb(6.27451%, 0%, 6.27451%)" d="M242.445,187.297 C247.336,231.148 246.383,242.18 195.863,239.809 C196.277,236.523 216.605,211.324 190.773,202.93 C179.238,190.16 210.852,198.984 232.816,196.367 C224.773,183.586 230.289,184.293 242.445,187.297"/>
  <path fill="rgb(100%, 80%, 20%)" d="M294.266,175.246 C322.625,257.742 322.496,271.43 262.453,277.418 C213.887,252.801 186.441,213.172 222,201.27 C215.453,157.383 165.957,168.961 273.324,174.023 C265.379,123.438 302.738,126.922 294.266,175.246"/>
  <path fill="rgb(89.411765%, 87.058824%, 23.921569%)" opacity="0.083" d="M201.652,175.188 C120.391,155.164 132.746,131.07 159.32,126.164 C179.695,119.578 197.609,144.812 158.074,98.914 C146.469,22.258 150.715,49.195 147,140.746 C126.414,159.051 206.59,112.062 201.652,175.188"/>
  <path fill="rgb(100%, 75.294118%, 23.921569%)" opacity="0.285" d="M339.113,314.641 C319.191,384.965 301.426,363.988 243.641,351.5 C246.871,316.578 221.832,305.918 231.719,312.984 C220.441,280.352 219.711,269.84 287.309,204.527 C325.375,188.5 320.512,213.539 339.113,314.641"/>
  <path fill="rgb(57.254902%, 92.156863%, 95.686275%)" opacity="0.021" d="M61.98,78.043 C82.535,167.387 49.094,161.172 -2.324,159.699 C-22.148,94.402 -22.355,91.789 -13.945,86.023 C18.535,82.211 42.426,96.242 0.477,58.543 C23.871,21.602 31.91,38.68 61.98,78.043"/>
  <path fill="rgb(9.803922%, 5.098039%, 0%)" opacity="0.974" d="M76.648,30.566 C66.445,39.801 49.91,42.578 55.125,55.074 C53.332,45.191 57.246,63.684 52.188,8.078 C57.066,3.227 99.32,28.578 96.125,19.289 C62.551,37.395 69.008,39.289 76.648,30.566"/>
  <path fill="rgb(82.352941%, 82.352941%, 0%)" opacity="0.111" d="M199.699,367.145 C212.223,398.832 185.391,404.434 182.039,364.484 C161.734,360.707 154.309,367.605 162.52,293.777 C170.582,352.18 146.754,393.07 170.469,388.941 C170.551,325.566 165.672,362.043 199.699,367.145"/>
  <path fill="rgb(85.882353%, 85.882353%, 10.588235%)" opacity="0.127" d="M302.988,256.004 C219.762,243.418 219.523,237.047 257.238,230.211 C255.324,214.512 238.078,212.922 240.09,279.105 C285.363,270.199 299.961,264.031 317.008,259.535 C295.02,233.457 294.777,214.758 302.988,256.004"/>
</svg>

