<svg xmlns="http://www.w3.org/2000/svg" width="384" height="384" viewBox="0 0 384 384">
  <defs/>
  <path fill="rgb(100%, 76.078431%, 21.568627%)" opacity="0.729" d="M197.383,372.121 C124.648,396.734 90.965,400.121 71.684,387.324 C72.992,350.785 71.582,344.203 82.609,349.16 C88.383,318.133 93.324,295.918 92.254,307.402 C116.77,313.883 165.828,276.863 197.383,372.121"/>
  <path fill="rgb(19.215686%, 41.176471%, 16.078431%)" opacity="0.932" d="M280.723,10.809 C184.004,66.652 168.043,64.777 181.656,96.582 C185.059,110.902 169.453,82.969 179.695,51.359 C166.82,40.879 152.934,43.992 194.012,11.426 C285.625,-43.211 292.25,-1.586 280.723,10.809"/>
  <path fill="rgb(54.901961%, 85.098039%, 38.823529%)" opacity="0.562" d="M168.121,129.016 C176.086,101.762 169.109,92.93 158.129,111.266 C154.484,175.723 135.246,153.57 129.672,156.371 C124.234,122.246 113.84,128.668 152.719,133.469 C190.672,137 176.461,110.73 168.121,129.016"/>
  <path fill="rgb(24.313725%, 38.431373%, 17.254902%)" opacity="0.961" d="M333.199,4.758 C432.453,51.961 392.805,114.758 275.297,98.938 C213.898,110.516 194.383,51.082 282.945,78.965 C294.07,18.703 275.277,-18.574 319.676,-18.797 C369.645,10.09 306.469,-11.777 333.199,4.758"/>
  <path fill="rgb(37.254902%, 99.215686%, 0%)" opacity="0.56" d="M80.691,159.148 C69.059,117.367 80.434,110.535 82.273,141.742 C58.199,146.973 64.359,136.254 59.117,130.805 C80.969,144.762 55.336,95.566 42.152,119.891 C49.465,165.93 33.527,153.172 80.691,159.148"/>
  <path fill="rgb(94.509804%, 60%, 0%)" d="M152.324,120.098 C121.191,122.922 120.328,125.172 60.699,92.328 C74.848,71.094 71,75.082 99.16,38.141 C104.461,72.121 112.723,97.219 144.926,128.801 C161.062,123.504 150.555,83.438 152.324,120.098"/>
  <path fill="rgb(97.647059%, 64.313725%, 11.372549%)" opacity="0.978" d="M241.957,58.91 C261.957,154.586 258.699,133.039 246.02,107.957 C234.516,85.727 222.926,87.715 287.625,90.051 C284.672,125.773 312.402,136.957 367.727,72.344 C253.215,47.125 248.602,17.59 241.957,58.91"/>
  <path fill="rgb(94.509804%, 75.686275%, 13.333333%)" opacity="0.817" d="M148.188,238.973 C146.949,295.969 151.582,248.227 121.902,276.285 C101.695,267.094 126.008,275.672 109.699,217.34 C127.426,228.773 117.098,199.168 108.129,168.348 C174.629,195.055 171.781,226.66 148.188,238.973"/>
  <path fill="rgb(14.117647%, 100%, 4.705882%)" opacity="0.504" d="M64,225.441 C70.02,265.09 45.555,235.84 12.297,178.98 C-14.523,271.359 -5.336,255.82 -4.852,203.547 C-26.566,217.508 -7.793,239.984 56.43,228.734 C53.914,229.203 56.891,211.859 64,225.441"/>
  <path fill="rgb(99.215686%, 82.745098%, 28.235294%)" opacity="0.987" d="M362.438,351.516 C310.379,366.375 290.613,365.641 182.383,383.457 C65.473,291.992 46.844,259.215 121.57,271.609 C142.215,223.293 90.504,213.539 181.867,217.859 C256.926,192.824 277.703,144.508 362.438,351.516"/>
  <path fill="rgb(100%, 84.705882%, 31.372549%)" opacity="0.956" d="M447.102,221.289 C459.852,336.102 449.52,328.332 343.957,357.129 C173.609,316.648 255.078,240.32 205.762,129.074 C192.184,123.219 245.035,144.609 334.355,75.922 C393.438,76.895 421.879,55.508 447.102,221.289"/>
  <path fill="rgb(59.215686%, 91.372549%, 3.137255%)" opacity="0.665" d="M235.125,198.836 C240.605,144.66 203.543,137.609 209.027,126.891 C194.383,124.762 209.449,99.309 132.047,86.207 C116.559,120.891 129.16,150.59 192.805,186.02 C198.258,123.441 217.812,116.637 235.125,198.836"/>
  <path fill="rgb(44.705882%, 100%, 41.960784%)" opacity="0.471" d="M163.027,192.816 C161.441,199.754 155.641,187.594 161.75,201.258 C160.348,194.934 155.102,178.969 143.984,190.48 C88.637,191.969 68.91,169.066 146.516,185.914 C161.566,200.09 161.355,196.453 163.027,192.816"/>
  <path fill="rgb(100%, 85.490196%, 29.803922%)" opacity="0.933" d="M268.453,186.355 C268.918,273.34 274.996,244.406 172.234,228.043 C143.148,190.809 133.75,187.051 128.5,177.684 C134.152,147.629 142.664,145.188 175.184,91.219 C255.59,84.09 254.637,88.16 268.453,186.355"/>
  <path fill="rgb(92.54902%, 58.823529%, 18.039216%)" opacity="0.953" d="M148.906,188.605 C92.652,338.613 87.207,309.145 83.254,391.59 C-37.945,371.531 -50.98,343.863 -26.211,212.668 C-6.41,171.363 10.113,149.891 119.406,1.406 C276.27,26.012 217.965,71.703 148.906,188.605"/>
  <path fill="rgb(90.588235%, 69.019608%, 1.568627%)" opacity="0.202" d="M152.453,96.062 C105.496,52.383 65.609,60.281 110.586,93.832 C129.008,35.078 101.945,48.43 105.672,87.285 C190.41,97.758 193.504,96.785 146.223,44.82 C103.203,135.27 156.883,160.691 152.453,96.062"/>
  <path fill="rgb(76.862745%, 65.490196%, 10.588235%)" opacity="0.073" d="M75.66,297.387 C115.285,347.77 73.996,371.328 57.555,323.203 C33.277,236.531 22.996,260.41 26.145,351.852 C72.719,322.977 80.98,325.215 57.973,248.941 C84.289,272.105 83.246,247.062 75.66,297.387"/>
  <path fill="rgb(100%, 87.843137%, 36.470588%)" opacity="0.878" d="M166.578,184.41 C160.344,171.195 152.445,172.289 172.5,211.277 C143.906,213.938 142.871,208.316 154.227,189.398 C156.734,170.234 159.508,168.656 189.496,160.113 C183.133,133.023 155.5,155.566 166.578,184.41"/>
  <path fill="rgb(88.627451%, 89.411765%, 13.333333%)" opacity="0.108" d="M317.66,144.742 C324.973,224.02 343.02,211.078 286.391,200.535 C247.27,172.539 252.941,139.863 231.25,137.34 C252.98,141.137 220.309,138.949 210.164,135.996 C253.406,156.766 283.219,139.5 317.66,144.742"/>
  <path fill="rgb(98.039216%, 82.352941%, 4.313725%)" opacity="0.128" d="M334.465,146.23 C335.676,188.766 354.383,212.391 342.855,272.07 C286.359,187.48 310.695,139.934 306.16,114.73 C303.578,135.328 286.973,124.25 310.543,99.969 C353.965,93.812 346.008,113.109 334.465,146.23"/>
  <path fill="rgb(92.941176%, 60.392157%, 17.647059%)" opacity="0.976" d="M345.586,98.082 C199.863,133.156 155.531,137.465 148.828,147.957 C165.41,103.422 208.82,115.062 186.43,69.426 C174.984,60.574 165.863,74.344 151.547,21.75 C254.363,33.289 265.43,19.137 345.586,98.082"/>
  <path fill="rgb(91.372549%, 90.196078%, 33.333333%)" opacity="0.013" d="M334.547,139.793 C330.309,185.727 291.781,163.395 275.246,156.645 C270.848,125.625 269.879,137.078 271.809,178.965 C289.305,156.348 297.207,134.602 301,154.523 C261.938,154.559 276.945,134.402 334.547,139.793"/>
</svg>

