<svg xmlns="http://www.w3.org/2000/svg" width="384" height="384" viewBox="0 0 384 384">
  <defs/>
  <path fill="rgb(44.705882%, 1.960784%, 25.490196%)" opacity="0.995" d="M128.379,281.184 C161.016,304.27 137.035,294.34 92.938,291.598 C98.266,287.676 92.988,300.777 74.75,334.25 C96.832,275.23 108.449,248.445 86.469,292.844 C116.176,289.273 113.188,305.773 128.379,281.184"/>
  <path fill="rgb(69.019608%, 9.019608%, 5.490196%)" opacity="0.935" d="M134.496,261.707 C96.293,261.148 74.223,244.859 106.312,259.875 C91.941,260.57 80.023,265.883 86.426,252.918 C79.312,261.98 102.113,259.191 107.93,202.285 C111.305,187.812 106.652,225.879 134.496,261.707"/>
  <path fill="rgb(0%, 81.568627%, 38.039216%)" opacity="0.962" d="M381.883,304.844 C334.617,306.949 305.297,317.004 306.836,312.254 C302.391,315.238 291.008,308.27 322.242,308.027 C312.004,316.777 315.301,314.16 296.758,305.84 C300.172,304.84 337.668,286.664 381.883,304.844"/>
  <path fill="rgb(72.156863%, 62.745098%, 85.098039%)" opacity="0.447" d="M289.195,289.203 C294.859,315.902 296.875,314.887 258.109,312.488 C245.57,308.699 251.266,319.395 255.164,323.461 C274.34,319.02 272.129,305.297 273.852,296.25 C285.562,309.992 283.801,323.34 289.195,289.203"/>
  <path fill="rgb(6.27451%, 43.529412%, 14.117647%)" opacity="0.923" d="M373.16,291.266 C414.449,336.715 372.613,319.164 297.355,314.707 C255.664,328.531 204.273,335.672 226.312,330.727 C265.824,263.625 256.117,241.262 280.539,198.293 C351.426,204.852 341.113,228.195 373.16,291.266"/>
  <path fill="rgb(5.490196%, 38.039216%, 14.901961%)" opacity="0.994" d="M383.082,266.461 C276.875,271.242 294.629,243.977 321.668,261.074 C286.688,247.195 235.016,272.73 232.367,267.582 C268.047,216.957 249.504,206.141 306.102,79.688 C361.516,185.367 338.895,199.336 383.082,266.461"/>
  <path fill="rgb(90.196078%, 99.607843%, 97.647059%)" opacity="0.008" d="M166.828,324.359 C175.336,317.102 140.703,319.207 146.316,392.082 C188.312,417.969 178.324,375.398 212.836,395.438 C213.668,370.184 244.605,354.715 188.711,198.742 C113.566,261.195 144.867,325.215 166.828,324.359"/>
  <path fill="rgb(76.078431%, 77.254902%, 72.941176%)" opacity="0.074" d="M385,343.281 C391.949,408.641 385.715,399.105 265.441,380.758 C237.652,325.207 242.574,324.883 305.848,312.191 C375.508,326.535 393.164,327.758 404.754,261.898 C387.664,287.863 396.355,265.684 385,343.281"/>
  <path fill="rgb(71.372549%, 100%, 96.470588%)" opacity="0.008" d="M419.84,66.152 C419.926,116.281 409.34,122.559 364.02,65.559 C302.52,18.062 342.426,67.27 286.883,-4.574 C254.172,-32.23 271.941,-31.82 338.887,-27.562 C378.586,-28.891 393.098,-29.922 419.84,66.152"/>
  <path fill="rgb(89.803922%, 100%, 93.72549%)" opacity="0.012" d="M222.984,55.312 C105.535,187.395 148.379,134.258 39.285,255.102 C-11.516,276.074 0.559,237.574 -29.035,115.129 C-22.375,4.414 -16.336,-3.988 89.719,-53.934 C189.918,-26.605 239.609,-8.652 222.984,55.312"/>
  <path fill="rgb(13.72549%, 43.921569%, 46.666667%)" opacity="0.089" d="M40.523,-29.02 C-8.797,6.988 -24.145,2.668 -53.309,18.727 C-13.949,69.652 -15.215,61.676 -14.828,38.289 C-13.328,5.281 -16.301,-6.141 19.133,-10.379 C53.328,-8.734 64.336,-8.918 40.523,-29.02"/>
  <path fill="rgb(82.745098%, 17.254902%, 8.627451%)" opacity="0.94" d="M132.305,282.328 C130.574,345.035 197.809,330.141 92,337.031 C-26.145,322.258 -61.488,304.848 35.961,332.664 C93.641,287.836 96.59,279.746 103.668,239.824 C124.301,194.07 99.391,217.875 132.305,282.328"/>
  <path fill="rgb(86.666667%, 99.215686%, 85.098039%)" opacity="0.026" d="M204.008,359.16 C306.699,392.098 295.52,396.965 169.605,409.273 C176.09,308.836 143.055,318.449 155.422,286.461 C230.742,297.75 202.301,368.629 229.641,237.43 C187.164,190.648 175.082,265.125 204.008,359.16"/>
  <path fill="rgb(87.45098%, 95.686275%, 100%)" opacity="0.004" d="M444.18,112.977 C412.07,131.324 394.953,102.555 400.223,93.809 C373.293,84.355 373.898,80.828 377.805,87.812 C368.965,92.512 344.754,69.668 360.809,45.301 C383.121,60.285 399.074,71.27 444.18,112.977"/>
  <path fill="rgb(0%, 37.647059%, 14.901961%)" d="M363.613,270.449 C381.707,307.73 399.812,328.504 394.762,325.191 C369.02,312.875 229.801,314.262 220.629,320.605 C261.512,277.742 224.98,264.789 305.082,273.059 C343.535,284.922 352.277,281.973 363.613,270.449"/>
  <path fill="rgb(100%, 100%, 100%)" opacity="0.087" d="M43.805,322.066 C74.535,329.328 105.285,377.242 60.375,406.309 C-40.234,393.691 -17.891,363.457 -4.957,238.043 C77.312,213.996 92.469,231.875 80.023,303.934 C42.082,331.551 55.34,314.926 43.805,322.066"/>
  <path fill="rgb(98.823529%, 96.470588%, 0%)" d="M349.387,67.125 C288.277,120.242 336.273,71.449 286.816,103.188 C295.426,71.227 302.758,88.703 279.344,61.156 C317.566,52.367 293.188,70.449 315.348,35.574 C334.543,68.59 315.328,55.652 349.387,67.125"/>
  <path fill="rgb(18.823529%, 0%, 0%)" opacity="0.999" d="M373.422,325.949 C287.074,307.293 339.73,321.305 304.164,345.395 C301.023,348.812 300.34,314.469 312.605,322.215 C314.84,329.102 272.344,313.379 322.855,315.336 C378.453,325.145 406.109,332.09 373.422,325.949"/>
  <path fill="rgb(97.647059%, 89.019608%, 0%)" opacity="0.604" d="M325.195,107.672 C324.598,129.602 321.895,114.023 330.43,128.535 C325.66,113.375 322.219,120.816 330.086,128.059 C346.168,43.543 291.164,94.707 333.375,106.523 C331.168,140.023 322.617,128.785 325.195,107.672"/>
  <path fill="rgb(4.705882%, 53.72549%, 9.019608%)" opacity="0.04" d="M287,261.301 C297.613,256.703 304.18,217.312 292.07,219.195 C293.078,290.477 307.555,296.797 311.988,257.344 C273.754,243.332 281.059,269.738 291.195,286.996 C296.09,260.035 298.383,256.562 287,261.301"/>
  <path fill="rgb(68.235294%, 79.607843%, 94.901961%)" opacity="0.053" d="M68.633,28.254 C70.828,38.82 68.492,54.902 67.707,33.941 C83.613,37.543 62.738,61.531 63.57,25.266 C79.441,21.816 86.363,37.91 69.41,33.539 C62.957,36.637 63.105,31.285 68.633,28.254"/>
  <path fill="rgb(76.470588%, 96.470588%, 90.196078%)" opacity="0.053" d="M186.801,312.43 C220.375,445.883 207.793,465.332 92.73,445.043 C49.875,389.148 68.492,350.938 46.086,341.59 C-3.465,360.363 12.082,372.938 57.922,349.156 C61.645,342.852 77.293,324.688 186.801,312.43"/>
  <path fill="rgb(60%, 97.254902%, 68.627451%)" opacity="0.037" d="M33.762,95.547 C38.055,94.91 20.797,111.777 33.48,97.332 C37.625,110.734 25.145,108.258 30.312,92.355 C13.656,91.801 19.738,87.16 37.633,92.641 C34.305,96.711 42.695,91.445 33.762,95.547"/>
  <path fill="rgb(100%, 99.607843%, 100%)" opacity="0.061" d="M41.91,353.855 C40.227,364.879 30.168,362.051 73.438,364.891 C43.762,427.324 49.672,382.641 59.945,327.715 C23.191,313.188 21.086,336.031 41.027,356.426 C83.418,374.789 81.262,367.18 41.91,353.855"/>
  <path fill="rgb(85.490196%, 95.294118%, 97.647059%)" opacity="0.023" d="M228.516,342.207 C310.402,329.227 313.41,380.445 241.57,401.691 C169.473,388.23 169.352,405.77 198.258,404.633 C203.277,369.5 186.855,348.566 172.879,331.445 C175.77,332.227 198.352,328.418 228.516,342.207"/>
  <path fill="rgb(65.490196%, 100%, 94.509804%)" opacity="0.037" d="M267.184,179.586 C169.828,202.215 118.012,192.656 85.418,191.785 C89.527,145.699 75.723,171.949 121.605,167.965 C108.695,116.117 104.215,71.074 100.191,56.461 C283.352,2.449 291.98,-36.105 267.184,179.586"/>
  <path fill="rgb(93.72549%, 100%, 70.588235%)" opacity="0.131" d="M181.953,389.672 C172.98,393.738 178.324,407.395 194.504,410.449 C182.672,417.301 179.109,403.586 210.43,413.078 C202.797,403.57 197.801,372.699 194.656,379.34 C170.957,397.863 170.145,398.164 181.953,389.672"/>
  <path fill="rgb(3.529412%, 19.215686%, 54.509804%)" opacity="0.073" d="M259.59,280.902 C268.953,291.156 272.719,296.461 240.316,283.57 C277.82,285.605 268.004,293.336 265.219,289.625 C299.645,281.613 318.164,304.109 313.297,300.871 C276.285,301.707 291.727,285.016 259.59,280.902"/>
  <path fill="rgb(90.196078%, 97.254902%, 76.078431%)" opacity="0.054" d="M270.668,367.91 C267.965,349.035 260.391,342.477 271.137,345.758 C266.703,331.645 254.953,333.199 266.945,345.047 C271.496,348.922 268.664,352.504 285.812,348.133 C267.047,337.379 256.34,354.156 270.668,367.91"/>
  <path fill="rgb(99.607843%, 100%, 100%)" d="M94.965,295.953 C66.594,351.973 55.637,361.395 -3.957,338.484 C-9.133,307.453 17.793,285.586 19.551,288.918 C27.926,312.562 16.852,300.766 22.141,266.027 C26.652,292.246 16.777,290.406 94.965,295.953"/>
  <path fill="rgb(83.137255%, 98.039216%, 91.372549%)" opacity="0.046" d="M93.227,202.512 C81.484,251.832 78.488,256.965 39.066,252.793 C-5.035,245.961 7.758,261.938 4.746,181.273 C74.426,181.684 61.633,201.688 38.844,149.727 C88.219,162.484 112.879,152.809 93.227,202.512"/>
  <path fill="rgb(82.352941%, 40%, 80.784314%)" opacity="0.06" d="M386.773,258.215 C385.641,266.734 383.965,273.316 375.348,304.805 C367.801,283.637 359.469,268.582 375.113,283.461 C390.773,276.203 418.914,272.891 437.957,272.539 C383.27,264.355 383.547,270.047 386.773,258.215"/>
  <path fill="rgb(98.039216%, 100%, 60.784314%)" opacity="0.045" d="M351.969,13.844 C316.117,6.434 317.133,23.352 338.316,19.809 C327.297,-20.918 312.07,-21.949 296.379,-11.863 C303.016,-9.816 303.484,-11.863 367.562,-44.664 C368.504,-46.703 356.512,-37.875 351.969,13.844"/>
  <path fill="rgb(68.627451%, 38.039216%, 15.294118%)" opacity="0.124" d="M82.676,347.746 C104.891,328.629 121.484,337.77 134.203,319.359 C113.254,313.285 84.855,333.293 113.074,352.617 C135.969,312.605 122.539,316.945 107.926,340.977 C100.523,343.398 111.711,304.02 82.676,347.746"/>
</svg>

