<svg xmlns="http://www.w3.org/2000/svg" width="384" height="384" viewBox="0 0 384 384">
  <defs/>
  <path fill="rgb(27.45098%, 75.686275%, 43.529412%)" opacity="0.705" d="M104.898,125.109 C97.188,156.844 115.984,150.914 97.293,105.734 C83.582,83.613 99.867,113.75 64.051,134.352 C81.602,102.836 63.168,71.102 82.691,48.324 C121.836,64.637 127.93,102.988 104.898,125.109"/>
  <path fill="rgb(100%, 50.588235%, 7.843137%)" opacity="0.869" d="M55.953,51.504 C71.691,128.574 105.145,150.555 51.164,190.723 C-80.086,188.035 -76.43,174.547 -59.82,107.871 C-30.027,34.711 -33.246,21.133 32.848,-11.98 C73.984,4.102 55.906,33.461 55.953,51.504"/>
  <path fill="rgb(92.54902%, 54.901961%, 9.019608%)" opacity="0.92" d="M470.633,203.035 C436.723,229.133 397.816,213.973 345.055,211.508 C296.121,205.719 301.352,222.355 335.73,177.941 C396.617,115.566 323.41,32.887 352.055,-40.129 C518.121,3.305 507.309,18.633 470.633,203.035"/>
  <path fill="rgb(100%, 58.039216%, 17.254902%)" opacity="0.994" d="M236.902,-53.785 C252.012,82.93 244.938,169.055 122.664,181.965 C34.082,101.574 56.43,55.801 18.699,50.48 C-44.77,62.82 -33.824,5.23 85.676,-74.688 C155.418,-25.191 134.695,-10.625 236.902,-53.785"/>
  <path fill="rgb(99.607843%, 56.862745%, 19.607843%)" opacity="0.981" d="M110.359,144.59 C67.055,147.172 59.699,148.418 59.043,132.035 C49.434,134.773 68.574,126.559 59.82,103.918 C30.43,76.902 33.477,94.816 32.293,59.102 C77.121,62.52 86.418,59.898 110.359,144.59"/>
  <path fill="rgb(97.647059%, 56.078431%, 16.862745%)" opacity="0.994" d="M418.195,234.707 C424.992,343.59 413.508,354.422 338.215,341.684 C305.695,270.133 316.922,215.715 264.719,192.188 C253.008,179.75 279.902,185.613 354.801,175.664 C393.055,169.387 388.664,178.602 418.195,234.707"/>
  <path fill="rgb(98.431373%, 56.862745%, 19.215686%)" opacity="0.984" d="M451.23,137.414 C393.789,224.309 358.996,196.883 314.695,192.031 C242.438,223.258 194.102,227.562 210.5,117.852 C240.609,96.652 253.406,95.371 265.629,62.98 C336.688,53.602 396.523,51.336 451.23,137.414"/>
  <path fill="rgb(98.039216%, 58.431373%, 20%)" opacity="0.991" d="M401.527,79.293 C305.473,76.582 331.023,71.277 333.234,106.953 C282.594,103.426 239.949,110.59 245.016,8.938 C243.625,4.973 223.617,-14.727 261.117,-65.105 C356.602,-41.75 361.797,-19.43 401.527,79.293"/>
  <path fill="rgb(0%, 15.294118%, 26.666667%)" d="M219.664,279.859 C227.262,424.094 243.836,429.465 186.371,425.086 C-15.938,410.34 -27.121,405.953 -8.18,357.855 C84.055,326.078 89.645,282.461 167.723,178.5 C208.48,233.57 239.738,191.266 219.664,279.859"/>
  <path fill="rgb(0%, 10.980392%, 32.54902%)" d="M213.637,166.078 C182.258,180.059 181.078,122.887 172.859,200.461 C140.828,263.355 166.395,239.699 155.184,167.543 C203.336,92.082 208.371,55.32 212.5,65.262 C301.637,144.199 241.281,114.672 213.637,166.078"/>
  <path fill="rgb(0%, 12.54902%, 26.666667%)" d="M223.309,272.148 C233.484,269.715 259.238,261.73 217.883,279.598 C235.602,267.051 204.883,266.129 184.602,204.176 C233.664,180.906 207.66,171.109 212.496,112.863 C221.656,183.008 210.141,242.824 223.309,272.148"/>
  <path fill="rgb(98.823529%, 67.45098%, 51.764706%)" opacity="0.965" d="M366.23,297.023 C378.309,368.789 383.648,378.727 324.113,372.254 C211.297,364.68 222.289,355.113 221.367,359.172 C219.656,279.816 209.605,229.832 224.375,176.199 C339.234,197.758 328.059,226.254 366.23,297.023"/>
  <path fill="rgb(99.215686%, 56.470588%, 18.431373%)" opacity="0.995" d="M166.867,227.473 C162.062,373.059 177.809,337.938 127.777,348.129 C-77.664,375.078 -78.992,387.918 -28.512,214.199 C-2.73,163.051 35.898,208.602 88.07,135.305 C190.008,131.891 163.398,127.133 166.867,227.473"/>
  <path fill="rgb(0%, 11.372549%, 26.27451%)" d="M205.57,63.473 C225.957,203.191 216.652,219.973 202.688,160.574 C162.309,167.258 168.125,215.73 167.43,155.66 C140.398,148.738 190.34,168.258 195.621,29.238 C196.07,98.773 197.195,104.445 205.57,63.473"/>
  <path fill="rgb(96.470588%, 29.019608%, 26.666667%)" opacity="0.973" d="M425.57,341.977 C391.602,367 395.129,388.574 350.238,419.785 C301.957,425.457 279.773,437.957 286.051,366.715 C289.094,316.938 309.441,276.969 362.184,265.574 C461.922,264.922 420.984,309.852 425.57,341.977"/>
  <path fill="rgb(85.098039%, 62.352941%, 1.568627%)" opacity="0.082" d="M156.168,253.547 C165.145,265.246 154.82,292.426 142.809,345.328 C124.934,328.648 135.621,300.227 130.246,275.73 C106.773,264 105.02,224.66 141.293,178.762 C156.945,240.176 152.812,266.422 156.168,253.547"/>
  <path fill="rgb(0%, 16.078431%, 27.45098%)" d="M218.18,345.129 C387.719,359.832 456.605,370.516 394.594,388.609 C202.73,431.012 232.824,401.742 216.422,360.164 C223.949,217.316 207.797,249.137 216.266,230.188 C222.082,228.566 210.105,263.207 218.18,345.129"/>
  <path fill="rgb(0%, 0%, 27.843137%)" opacity="0.215" d="M395.855,373.047 C397.402,380.309 389.984,382.664 402.426,444.527 C397.023,413.859 365.367,367.27 394,338.348 C382.707,343.828 387.473,319.223 415.145,309.238 C392.656,354.848 392.238,362.496 395.855,373.047"/>
  <path fill="rgb(0%, 6.666667%, 52.156863%)" opacity="0.068" d="M185.082,262.797 C209.66,259.965 199.387,282.547 201.07,304.004 C180.777,300.496 172.844,298.852 176.566,297.855 C177.797,312.434 174.836,313.961 204.867,311.152 C189.43,296.512 187,299.18 185.082,262.797"/>
  <path fill="rgb(63.921569%, 0%, 61.960784%)" opacity="0.32" d="M121.969,321.68 C143.586,366.48 65.805,348.277 25.543,364.969 C-43.758,355.09 -27.867,359.703 -42.707,308.383 C-33.5,279.336 25.07,242.312 94.352,292.086 C141.094,349.352 85.031,308.008 121.969,321.68"/>
  <path fill="rgb(98.039216%, 40.784314%, 52.941176%)" opacity="0.199" d="M82.277,261.605 C110.082,320.391 114.305,313.586 68.82,281.23 C46.719,260.715 58.125,279.523 72.66,280.738 C104.172,286.887 96.602,273.297 65.5,282.301 C94.305,297.422 75.391,249.398 82.277,261.605"/>
  <path fill="rgb(98.823529%, 26.666667%, 73.72549%)" opacity="0.139" d="M326.23,339.617 C301.609,341.832 303.293,360.695 300.59,317.035 C289.434,308.258 306.637,323.047 306.809,301.59 C312.785,284.258 297.812,280.738 291.551,285.547 C320.32,285.598 309.035,286.875 326.23,339.617"/>
  <path fill="rgb(100%, 57.647059%, 16.470588%)" d="M255.324,49.488 C299.312,45.797 313.648,61.965 233.539,157.305 C202.387,140.227 201.906,117.41 181.973,20.121 C183.906,-34.164 282.043,-4.914 280.746,19.395 C272.762,93.957 264.594,100.156 255.324,49.488"/>
</svg>

