<svg xmlns="http://www.w3.org/2000/svg" width="384" height="384" viewBox="0 0 384 384">
  <defs/>
  <path fill="rgb(12.54902%, 99.215686%, 47.843137%)" opacity="0.874" d="M231.492,272.797 C236.074,267.656 230.895,274.996 233.656,241.164 C231.652,236.254 258.191,238.352 184.312,244.312 C160.418,227.543 200.02,234.875 267.527,233.336 C233.094,223.668 227.441,234.074 231.492,272.797"/>
  <path fill="rgb(89.019608%, 28.235294%, 72.54902%)" opacity="0.795" d="M224.293,357.863 C231.152,377.246 240.184,358.973 215.934,356.48 C196.469,361.074 194.863,359.148 198.645,323.301 C220.41,324.625 231.078,321.078 219.707,328.684 C213.152,338.578 218.453,346.215 224.293,357.863"/>
  <path fill="rgb(24.705882%, 60.784314%, 93.72549%)" opacity="0.775" d="M143.68,178.613 C130.371,339.188 80.051,342.859 21.195,297.188 C-15.012,257.133 -1.18,189.164 54.52,185.328 C117.383,183.457 74.605,218.758 67.441,148.25 C59.406,123.633 72.648,137.195 143.68,178.613"/>
  <path fill="rgb(51.764706%, 98.431373%, 23.921569%)" opacity="0.619" d="M164.035,281.121 C162.266,304.48 158.812,300.055 150.688,202.398 C142.508,276.344 138.457,253.09 132.844,218.848 C133.922,168.598 133.012,195.875 141.152,192.688 C157.312,192.059 154.66,217.336 164.035,281.121"/>
  <path fill="rgb(85.490196%, 78.039216%, 96.078431%)" opacity="0.218" d="M265.414,334.008 C271.211,341.379 268.008,336.078 251.766,319.863 C267.688,313.027 260.285,311.633 257.852,296.312 C239.609,323.34 246.512,314.344 264.207,286.938 C268.07,293.109 273.508,306.672 265.414,334.008"/>
  <path fill="rgb(67.45098%, 99.607843%, 45.098039%)" opacity="0.698" d="M164.23,199.461 C152.93,217.773 174.762,223.543 135.199,202.754 C126.992,207.984 146.328,168.215 126.703,167.219 C71.836,200.395 112.473,234.906 145.766,227.168 C121.102,170.527 168.926,166.395 164.23,199.461"/>
  <path fill="rgb(14.509804%, 50.588235%, 100%)" opacity="0.532" d="M333.766,56.738 C376.461,172 346.125,174.273 191.754,147.773 C109.523,104.512 91.418,87.273 133.383,41.094 C204.191,28.535 195.832,4.391 224.871,1.168 C283.43,-4.758 288.641,14.301 333.766,56.738"/>
  <path fill="rgb(77.647059%, 98.823529%, 39.607843%)" opacity="0.019" d="M75.508,198.039 C54.039,203.77 14.848,188.633 1.074,189.375 C-12.801,170.992 -26.68,199.402 -3.184,194.055 C24.344,176.379 28.727,158.879 38.18,156.676 C41.766,142.84 44.57,152.02 75.508,198.039"/>
  <path fill="rgb(12.54902%, 44.313725%, 77.254902%)" opacity="0.824" d="M467.426,251.012 C321.816,341.004 311.555,385.312 251.066,381.625 C189.859,359.363 207.074,389.609 224.367,297.484 C237.633,210.797 207.766,147.012 371.582,154.957 C391.387,190.125 468.277,191.871 467.426,251.012"/>
  <path fill="rgb(0%, 100%, 17.254902%)" opacity="0.975" d="M242.23,181.66 C242.336,224.863 224.336,244.824 266.727,306.504 C275.727,213.266 260.594,213.727 229.684,203.551 C231.395,250.105 240.504,236.918 234.832,189.211 C258.227,191.09 297.234,183.301 242.23,181.66"/>
  <path fill="rgb(100%, 100%, 100%)" opacity="0.917" d="M429.027,368.383 C399.039,405.543 423.504,378.324 354.977,414.828 C330.211,359.746 356.746,357.715 325.52,359.832 C327.73,329.484 332.234,332.852 391.684,308.34 C400.094,278.379 396.512,274.719 429.027,368.383"/>
  <path fill="rgb(99.215686%, 14.117647%, 100%)" opacity="0.806" d="M234.359,336.355 C229.727,364.504 204.629,370.82 198.566,338.977 C203.66,366.855 193.762,376.18 197.875,376.02 C185.07,295.414 202.859,294.316 225.109,321.082 C231.883,317.391 296.031,331.016 234.359,336.355"/>
  <path fill="rgb(42.352941%, 59.607843%, 92.941176%)" opacity="0.124" d="M335.312,231.883 C342.137,365.121 338.922,366.203 232.836,360.949 C169.988,368.609 179.543,360.98 172.859,215.426 C179.895,181.254 179.602,194.699 187.555,140.645 C274.852,139.648 318.582,129.469 335.312,231.883"/>
  <path fill="rgb(29.019608%, 56.078431%, 82.745098%)" opacity="0.988" d="M353.348,263.75 C195.152,220.445 241.023,230.418 248.723,185.188 C253.508,137.961 258.547,148.141 256.43,172.969 C257.977,122.438 236.246,142.5 308.754,151.258 C357.223,122.668 426.988,162.457 353.348,263.75"/>
  <path fill="rgb(41.176471%, 68.235294%, 96.470588%)" opacity="0.989" d="M317.777,292.582 C244.266,391.906 165.219,405.52 122.684,344.051 C130.773,280.988 46.582,346.18 72.184,272.52 C84.863,180.523 13.824,126.062 120.918,85.402 C289.902,146.301 292.211,167.082 317.777,292.582"/>
  <path fill="rgb(34.117647%, 75.686275%, 87.843137%)" opacity="0.072" d="M275.211,331.848 C238.023,362.785 201.789,383.598 171.055,374.953 C195.07,382.375 215.879,348.195 207.789,337.582 C215.457,326.66 251.906,331.949 275.625,317.188 C275.609,273.422 268.691,278.312 275.211,331.848"/>
  <path fill="rgb(31.372549%, 56.470588%, 81.176471%)" opacity="0.939" d="M306.492,162.75 C218.691,159.906 252.297,154.039 218.016,162.918 C203.695,161.012 201.348,165.074 204.68,163.125 C168.676,124.215 179.223,114.113 219.078,100.238 C240.637,99.785 291.246,110.398 306.492,162.75"/>
  <path fill="rgb(19.215686%, 81.176471%, 80.784314%)" opacity="0.039" d="M168.973,144.777 C202.695,148.93 181.93,134.438 182.934,178.855 C115.188,143.695 134.973,118.805 159.105,128.062 C167.355,123.457 160.102,128.27 172.137,106.27 C175.336,135.852 163.648,118.426 168.973,144.777"/>
  <path fill="rgb(100%, 100%, 98.823529%)" opacity="0.891" d="M372.379,320.273 C418.137,301.492 398.277,369.359 331.812,353.551 C337.156,333.418 337.527,338.629 336.16,349.207 C320.625,354.32 333.25,349.301 337.207,318.723 C378.914,312.836 355.977,320.062 372.379,320.273"/>
  <path fill="rgb(65.098039%, 69.019608%, 100%)" opacity="0.03" d="M146.785,305.934 C140.109,358.941 127.465,351.984 100.516,354.055 C78.703,310.004 46.438,343.598 70.879,340.172 C93.754,330.043 66.074,308.402 41.98,315.656 C95.602,314.383 94.734,304.242 146.785,305.934"/>
  <path fill="rgb(58.431373%, 73.72549%, 99.215686%)" opacity="0.279" d="M368.129,160.031 C380.176,127.887 383.027,135.363 359.211,141.082 C359.941,173.598 387.574,170.512 388.879,100.969 C366.711,48.133 304.465,38.309 321.945,54.191 C307.785,155.164 314.738,154.285 368.129,160.031"/>
  <path fill="rgb(52.54902%, 70.196078%, 100%)" opacity="0.703" d="M355.652,137.242 C361.113,157.789 390.152,187.156 441.625,154.695 C369.445,108.523 340.102,120.512 340.949,131.324 C317.008,151.664 332.504,149.379 340.832,133.414 C350.227,96.844 371.309,97.871 355.652,137.242"/>
</svg>

