<svg xmlns="http://www.w3.org/2000/svg" width="384" height="384" viewBox="0 0 384 384">
  <defs/>
  <path fill="rgb(63.137255%, 93.333333%, 100%)" opacity="0.037" d="M225.371,243.383 C264.871,294.34 222.289,363.309 197.359,393.492 C88.156,358.91 64.957,364.652 143.797,309.402 C135.93,244.289 168.402,315.992 194.723,240.578 C120.223,196.191 162.969,223.648 225.371,243.383"/>
  <path fill="rgb(90.980392%, 89.019608%, 77.254902%)" opacity="0.148" d="M169.914,280.297 C163.977,310.926 202.547,298.246 158.645,285.707 C153.621,266.324 152.898,260.855 177.547,244.777 C161.586,221.441 170.273,196.469 183.203,250.098 C190.668,238.094 202.137,279.043 169.914,280.297"/>
  <path fill="rgb(94.117647%, 100%, 87.843137%)" opacity="0.095" d="M216.766,240.641 C183.82,238.293 178.52,231.949 177.316,245.07 C200.848,210.633 203.809,196.246 139.918,179.832 C81.039,181.102 108.293,256.281 147.406,223.133 C205.172,217.883 222.875,233.121 216.766,240.641"/>
  <path fill="rgb(100%, 97.647059%, 93.72549%)" opacity="0.067" d="M358.176,222.488 C354.184,297.953 341.887,289.695 301.098,289.762 C258.914,275.191 245.773,281.992 313.816,244.285 C325.25,237.949 301.754,235.773 333.074,229.863 C356.516,194.789 354.684,190.805 358.176,222.488"/>
  <path fill="rgb(81.176471%, 92.941176%, 99.607843%)" opacity="0.005" d="M237.297,91.07 C179.625,39.918 160.922,95.66 144.109,106.219 C168.754,116.25 136.609,107.426 148.973,30.684 C228.812,57.969 254.496,41.5 190.094,0.609 C230.023,-0.512 253.445,87.781 237.297,91.07"/>
  <path fill="rgb(85.098039%, 90.588235%, 98.431373%)" opacity="0.023" d="M206.879,89.102 C190.219,128.234 167.969,170.922 127.793,200.176 C3.895,207.18 21.637,189.594 38.738,107.266 C77.879,71.871 100.895,70.324 147.199,48.562 C198.125,55.523 176.879,47.906 206.879,89.102"/>
  <path fill="rgb(56.862745%, 93.72549%, 99.215686%)" opacity="0.066" d="M361.578,95.719 C364.629,94.402 348.906,130.953 367.934,175.441 C436.219,143.402 398.047,110.094 361.305,91.266 C346.328,78.25 330.82,110.242 354.285,121.43 C389.473,84.336 422.211,103.508 361.578,95.719"/>
  <path fill="rgb(80%, 67.058824%, 9.019608%)" opacity="0.775" d="M272.305,131.492 C265.672,124.465 278.051,120.164 210.734,135.906 C174.465,182.555 192.324,162.578 241,42.574 C262.285,95.094 269.223,111.527 251.207,78.527 C269.691,97.07 269.918,115.32 272.305,131.492"/>
  <path fill="rgb(72.156863%, 63.137255%, 16.470588%)" opacity="0.854" d="M388.457,192.473 C254.379,254.277 261.777,244.695 238.762,262.949 C171.152,227.395 163.938,226.82 91.199,192.535 C202.074,146.289 241.441,119.742 264.031,99.996 C285.883,152.039 268.363,134.621 388.457,192.473"/>
  <path fill="rgb(41.568627%, 40%, 33.333333%)" opacity="0.703" d="M263.328,124.773 C253.844,109.438 271.352,113.219 218.867,92.531 C253.895,221.055 241.973,211.598 236.078,120.199 C245.164,174.281 236.348,132.691 240.125,42.801 C242.906,114.66 236.348,120.227 263.328,124.773"/>
  <path fill="rgb(83.921569%, 68.235294%, 19.607843%)" opacity="0.892" d="M290.246,231.918 C260.445,292.629 255.504,304.16 240.934,344.348 C205.387,261.418 198.387,241.82 201.555,252.309 C205.203,251.84 187.293,236.031 157.125,188.512 C172.098,234.688 180.977,238.523 290.246,231.918"/>
</svg>

