<svg xmlns="http://www.w3.org/2000/svg" width="384" height="384" viewBox="0 0 384 384">
  <defs/>
  <path fill="rgb(52.156863%, 49.803922%, 70.588235%)" opacity="0.597" d="M267.773,234.789 C269.375,288.164 281.02,302.363 282.078,237.699 C255.152,257.625 259.664,259.742 264.605,223.004 C268.418,243.402 266.254,255.625 275.539,241.633 C289.07,213.59 290.582,238.973 267.773,234.789"/>
  <path fill="rgb(0%, 23.529412%, 28.627451%)" d="M49.953,187.621 C46.047,169.012 59.176,178.945 41.473,197.977 C17.406,223.617 8.051,259.008 -10.406,170.414 C50.332,106.801 35.945,131.355 62.805,168.121 C62.469,179.809 45.387,187.344 49.953,187.621"/>
  <path fill="rgb(100%, 94.901961%, 86.27451%)" opacity="0.028" d="M399.422,212.652 C395.09,224.477 397.695,231.93 352.699,224.668 C331.52,214.859 328.957,200.125 342.715,182.059 C411.637,176.73 390.734,197.66 391.691,202.984 C412.266,195.836 409.402,199.707 399.422,212.652"/>
  <path fill="rgb(0%, 25.098039%, 25.882353%)" opacity="0.993" d="M304.602,90.398 C332.535,127.504 344.477,160.379 298.816,94.895 C278.906,76.098 279.809,40.449 233.453,34.426 C242.047,25.473 284.875,3.164 301.723,48.586 C325.547,95.344 348.062,102.309 304.602,90.398"/>
  <path fill="rgb(98.823529%, 58.823529%, 63.921569%)" opacity="0.165" d="M402.348,53.676 C399.711,58.723 398.672,71.254 396.164,109.039 C362.355,110.84 382.672,111.312 400.48,88.227 C393.309,60.492 390.824,45.41 402.172,24.453 C403.031,25.66 407.301,33.273 402.348,53.676"/>
  <path fill="rgb(0%, 31.372549%, 29.411765%)" d="M318.109,39.188 C271.02,31.855 214.523,38.473 221.383,40.918 C220.832,54.309 219.926,44.25 219.891,50.309 C219.223,34.93 236.914,47.602 268.664,-29.133 C293.547,-3.543 292.5,7.902 318.109,39.188"/>
  <path fill="rgb(80.784314%, 95.294118%, 100%)" opacity="0.004" d="M315.621,121.457 C362.562,184.66 314.602,195.973 253.992,177.328 C199.617,141.637 154.195,153.203 214.559,131.641 C227.562,55.574 208.379,36.734 264.051,43.227 C279.543,39.5 262.879,80.723 315.621,121.457"/>
  <path fill="rgb(65.490196%, 34.901961%, 10.588235%)" opacity="0.769" d="M244.461,273.262 C223.461,226.922 219.887,254.887 55.953,344.539 C65.363,356.203 78.688,235.801 55.672,247.258 C207.434,215.051 177.84,222.453 193.254,196.461 C262.953,217.832 282.246,214.961 244.461,273.262"/>
  <path fill="rgb(71.372549%, 55.686275%, 34.901961%)" opacity="0.929" d="M303.641,371.363 C326.867,411.004 268.738,388.508 215.91,398.961 C77.023,387.691 36.746,388.703 17.984,377.656 C91.555,253.488 170.172,303.695 196.234,234.953 C277.18,233.211 295.203,197.156 303.641,371.363"/>
  <path fill="rgb(14.901961%, 32.54902%, 47.843137%)" opacity="0.027" d="M89.777,143.953 C43,208.406 34.949,204.07 28.395,192.574 C13.996,225.105 -20.996,188.793 37.969,194.156 C71.277,167.129 69.602,163.953 76.734,154.098 C79.984,100.711 104.465,96.309 89.777,143.953"/>
  <path fill="rgb(29.411765%, 67.843137%, 76.470588%)" opacity="0.995" d="M72.715,331.52 C1.512,261.012 -125.441,377.438 64.809,425.117 C94.945,337.18 65.949,295.387 -2.996,313.309 C-10.758,183.723 -27.211,175.77 24.668,270.305 C82.348,256.965 59.879,203.332 72.715,331.52"/>
  <path fill="rgb(93.72549%, 88.235294%, 99.607843%)" opacity="0.092" d="M180.816,103.531 C200.492,139.641 148.898,87.914 59.125,145.523 C92.539,152.773 73.973,160.656 64.684,140.121 C108.625,80.949 134.441,85.59 91.57,100.223 C112.797,120.555 156.762,115.438 180.816,103.531"/>
  <path fill="rgb(90.588235%, 99.607843%, 96.470588%)" opacity="0.031" d="M334.418,263.285 C333.395,298.273 294.949,293.227 293.992,252.836 C316.164,238.172 308.316,262.84 317.32,235.027 C293.621,178.711 285.812,174.121 355.094,183.312 C329.051,287.219 312.176,250.543 334.418,263.285"/>
  <path fill="rgb(64.313725%, 51.764706%, 40%)" opacity="0.225" d="M285.562,252.336 C220.125,225.562 214.059,236.98 203.637,236.652 C193.344,216.32 192.105,197.918 198.145,229.535 C215.926,232.297 222.812,216.762 264.312,192.422 C247.973,197.637 234.664,203.965 285.562,252.336"/>
  <path fill="rgb(86.666667%, 48.235294%, 15.686275%)" opacity="0.142" d="M219.367,294.805 C215.355,336.977 238.168,337.691 173.41,327.758 C177.398,297.398 185.641,287.105 180.652,235.145 C173.406,250.699 165.004,236.324 161.895,240.098 C221.121,242.109 216.043,217.746 219.367,294.805"/>
  <path fill="rgb(0%, 30.588235%, 32.156863%)" d="M102.848,122.625 C67.73,172.852 83.883,137.891 34.031,142.207 C28.391,315.285 -60.984,288.656 18.902,7.402 C46.57,121.133 63.441,153.676 78.285,132.93 C92.062,115.465 120.488,58.699 102.848,122.625"/>
  <path fill="rgb(23.529412%, 43.921569%, 40%)" opacity="0.567" d="M450.223,275.336 C432.527,299.664 408.5,298.031 363.469,308.609 C344.387,337.137 311.078,318.301 366.242,259.527 C432.508,217.574 354.852,184.789 364.836,159.5 C458.543,179.113 464.098,180.223 450.223,275.336"/>
  <path fill="rgb(0%, 25.098039%, 23.137255%)" opacity="0.993" d="M148.938,67.039 C120.188,102 113.523,114.707 99.996,123.152 C108.934,93.953 88.387,123.32 73.457,106.098 C86.43,92.273 102.387,80.867 118.809,-15.82 C136.84,0.777 124.32,3.363 148.938,67.039"/>
  <path fill="rgb(12.156863%, 66.666667%, 66.27451%)" opacity="0.769" d="M401.203,381.949 C326.203,415.875 309.215,384.484 327.004,364.812 C395.547,375.574 396.875,381.91 317.535,377.18 C327.156,347.262 316.887,310.738 320.906,275.098 C408.695,271.418 425.66,244.91 401.203,381.949"/>
  <path fill="rgb(96.862745%, 100%, 100%)" opacity="0.031" d="M395.922,239.828 C325.672,282.457 299.555,270.707 301.422,267.234 C295.445,255.996 306.348,258.492 297.578,243 C304.059,245.742 322.566,240.324 323.496,237.973 C326.492,213.805 326.27,197.664 395.922,239.828"/>
  <path fill="rgb(65.098039%, 93.333333%, 92.941176%)" opacity="0.032" d="M233.137,91.398 C222.102,114.98 212.551,120.168 156.812,128.789 C172.688,121.082 160.773,151.18 169.977,113.691 C226.652,85.5 282.406,-1.055 165.445,22.441 C155.109,71.238 182.605,81.938 233.137,91.398"/>
  <path fill="rgb(0%, 25.098039%, 51.764706%)" opacity="0.054" d="M138.211,92.426 C102.145,107.289 103.789,117.582 81.039,112.797 C72.02,90.301 108.848,75.043 129.582,86.734 C84.004,99.371 99.742,62.016 78.172,92.238 C84.469,90.215 97.605,93.863 138.211,92.426"/>
  <path fill="rgb(60.392157%, 42.352941%, 25.882353%)" d="M246.875,208.008 C255.926,229.047 255.656,245.613 115.172,254.164 C7.176,267.414 52.773,259.785 103.223,193.953 C145.719,154.445 142.832,153.227 169.719,124.645 C184.395,132.773 161.977,119.922 246.875,208.008"/>
  <path fill="rgb(61.960784%, 44.313725%, 32.54902%)" opacity="0.973" d="M359.219,302.863 C344.289,405.898 347.973,387.754 344.082,393.434 C282.777,410.215 290.793,421.281 297.293,330.367 C299.688,232.16 268.27,253.43 320.445,276.148 C379.297,246.961 361.543,251.172 359.219,302.863"/>
  <path fill="rgb(0%, 22.745098%, 27.45098%)" d="M434.191,141.754 C415.582,178.113 413.297,206.852 370.5,182.512 C328.094,128.75 321.727,118.723 319.035,132.121 C357.125,45.055 347.414,-43.68 368.465,82.855 C406.332,102.023 388.793,74.816 434.191,141.754"/>
  <path fill="rgb(88.627451%, 98.039216%, 97.254902%)" opacity="0.97" d="M409.438,80.652 C394.785,158.125 394.109,165.867 397.125,184.57 C376.609,151.383 384.031,147.934 375.828,99.359 C365.742,63.289 362.836,86.328 379.863,86.719 C389.676,84.074 382.242,71.977 409.438,80.652"/>
  <path fill="rgb(51.764706%, 58.431373%, 0%)" opacity="0.112" d="M155.625,248.824 C135.77,259.133 127.172,266.848 85.781,232.641 C167.367,221.402 170.934,208.656 196.047,274.316 C197.148,223.414 165.234,204.16 230.469,218.336 C192.469,267.125 188.641,252.887 155.625,248.824"/>
  <path fill="rgb(13.333333%, 39.215686%, 52.156863%)" opacity="0.871" d="M179.809,319.727 C96.836,316.598 109.523,317.012 116.766,324.719 C105.199,312.977 107.336,324.266 120.551,320.723 C125.234,252.945 116.426,260.293 116.367,263.965 C199.41,268.945 170.801,238.762 179.809,319.727"/>
  <path fill="rgb(99.607843%, 100%, 97.254902%)" opacity="0.238" d="M382.414,256.629 C348.668,213.629 352.035,205.609 346.219,211.633 C340.703,214.844 334.695,213.676 345.949,224.594 C349.766,223.445 316.254,233.551 318.027,197.875 C359.047,192.863 396.82,213.102 382.414,256.629"/>
  <path fill="rgb(84.313725%, 92.54902%, 76.078431%)" d="M437.594,134.754 C501.484,235.773 474.422,207.305 386.02,201.758 C369.516,178.176 406.945,212.066 420.09,155.523 C369.434,134.512 355.465,141.363 388.566,131.305 C418.734,122.719 407.629,85.871 437.594,134.754"/>
  <path fill="rgb(72.941176%, 34.901961%, 43.529412%)" opacity="0.099" d="M300.559,337.254 C324.875,332.203 320.715,330.645 320.242,331.09 C306.367,330.297 315.965,345.844 310.297,321.402 C270.074,299.332 254.695,287.234 263.59,340.242 C280.582,344.582 287.906,351.121 300.559,337.254"/>
  <path fill="rgb(100%, 99.607843%, 100%)" opacity="0.93" d="M110.672,119.062 C107.148,110.738 97.035,131.656 96.523,128.008 C100.418,131.207 100.961,111.445 120.008,120.594 C104.293,129.098 102.324,120.742 111.684,119.156 C113.934,117.75 106.438,118.797 110.672,119.062"/>
  <path fill="rgb(92.941176%, 53.333333%, 60.392157%)" opacity="0.059" d="M216.117,324.543 C230.961,295.742 248.27,364.555 237.934,320.926 C194.277,346.527 210.695,341.473 204.281,295.363 C172.887,270.934 187.035,306.051 192.211,348.688 C211.273,342.332 206.293,362.566 216.117,324.543"/>
  <path fill="rgb(72.54902%, 65.490196%, 19.215686%)" opacity="0.123" d="M212.914,348.125 C210.867,394.148 210.965,400.684 205.32,394.246 C209.688,353.301 197.59,363.062 155.07,344.48 C149.645,331.441 135.977,346.879 220.352,330.602 C269.188,336.918 241.656,351.812 212.914,348.125"/>
  <path fill="rgb(100%, 99.607843%, 100%)" opacity="0.98" d="M392.863,256.691 C379.562,242 368.836,219.66 353.254,225.969 C365.758,248.73 392.375,245.863 372.918,239.684 C345.391,232.152 363.465,247.691 337.719,259.043 C339.453,269.262 392.078,273.461 392.863,256.691"/>
</svg>

