<svg xmlns="http://www.w3.org/2000/svg" width="384" height="384" viewBox="0 0 384 384">
  <defs/>
  <path fill="rgb(10.588235%, 90.980392%, 76.470588%)" opacity="0.99" d="M250.406,176.66 C265.816,176.688 260.426,185.469 288.113,204.051 C192.133,219.57 188.863,198.516 214.398,187.078 C214.656,160.734 205.402,163.32 239.973,175.73 C233.422,164.027 236.242,165.27 250.406,176.66"/>
  <path fill="rgb(60.784314%, 87.45098%, 98.823529%)" opacity="0.12" d="M348.758,373.883 C319.832,359.812 305.219,376.969 310.18,383.078 C273.602,399.203 266.453,389.391 291.883,349.152 C301.062,331.59 321.059,340.137 334.176,343.352 C363.215,363.441 389.469,358.613 348.758,373.883"/>
  <path fill="rgb(100%, 21.960784%, 78.039216%)" opacity="0.9" d="M419.863,109.73 C388.18,217.602 375.906,211.879 291.719,205.191 C277.836,183.5 278.684,167.641 230.742,144.633 C191.359,60.699 220.922,42.184 344.004,58.867 C389.512,77.945 383.738,79.027 419.863,109.73"/>
  <path fill="rgb(100%, 47.843137%, 85.098039%)" opacity="0.12" d="M389.406,151.289 C393.824,219.961 349.992,209.914 370.199,158.156 C375.562,79.633 336.559,88.918 274.473,82.992 C288.422,69.754 311.414,85.02 321.289,85.379 C316.105,127.555 330.477,124.09 389.406,151.289"/>
  <path fill="rgb(70.588235%, 29.411765%, 15.294118%)" opacity="0.867" d="M221.059,301.102 C201.137,295.773 185.934,286.805 184.777,342.211 C177.301,356.996 149.543,340.434 197.117,297.512 C154.812,298.184 164.094,315.723 197.082,292.699 C159.145,296.707 204.594,325.457 221.059,301.102"/>
  <path fill="rgb(96.470588%, 62.352941%, 30.588235%)" opacity="0.395" d="M205.102,102.504 C203.578,192.863 214.141,191.41 188.902,178.566 C174.742,159.203 179.957,170.406 160.941,159.918 C165.352,115.617 162.801,131.773 177.918,129.949 C170.688,149.738 183.219,132.402 205.102,102.504"/>
  <path fill="rgb(97.647059%, 48.235294%, 3.137255%)" opacity="0.482" d="M478.836,257.84 C426.293,372.195 370.051,387.477 231.457,380.652 C64.43,333.445 102.691,283.879 162.902,221.828 C208.078,237.508 202.953,245.426 222.621,266.074 C259.945,266.277 250.055,245.316 478.836,257.84"/>
  <path fill="rgb(79.607843%, 69.411765%, 32.156863%)" opacity="0.633" d="M117.52,230.824 C143.707,245.152 122.527,219.32 158.098,234.734 C164.867,292.844 142.418,341.004 95.219,269.074 C74.082,157.652 129.617,182.34 129.305,208.492 C139.102,205.48 129.094,188.922 117.52,230.824"/>
  <path fill="rgb(24.705882%, 56.862745%, 75.294118%)" opacity="0.597" d="M230.891,178.195 C222.957,185.793 225.16,157.98 239.035,185.891 C243.938,226.031 222.559,234.973 226.086,243.223 C221.137,193.812 234.797,199.418 198.434,201.844 C206.738,206.02 203.25,192.586 230.891,178.195"/>
  <path fill="rgb(34.509804%, 0%, 36.078431%)" opacity="0.995" d="M120.383,146.754 C70.926,184.516 109.68,259.004 102.574,169.32 C102.734,177.133 94.543,173.398 103.262,207.566 C90.07,196.914 105.582,174.523 101.879,163.449 C108.801,128.488 143.918,85.352 120.383,146.754"/>
  <path fill="rgb(78.823529%, 100%, 54.901961%)" opacity="0.435" d="M234.492,146.535 C203.148,169.711 186.664,169.277 206.602,189.512 C184.449,190.422 189.703,190.129 164.738,177.316 C138.082,192.324 155.559,141.016 160.293,154.055 C192.473,150.727 211.848,139.293 234.492,146.535"/>
  <path fill="rgb(94.509804%, 29.411765%, 33.333333%)" opacity="0.464" d="M190.102,315.613 C170.895,298.922 142.207,316.863 116.918,333.078 C156.914,329.098 104.301,343.367 153.297,317.977 C152.801,294.004 132.73,292.781 107.16,293.746 C140.602,277.566 162.98,295.109 190.102,315.613"/>
  <path fill="rgb(100%, 90.196078%, 72.54902%)" opacity="0.043" d="M76.371,22.844 C79.754,37.871 86.812,35.695 35.809,33.449 C-41.734,36.531 -35.473,24.918 -20.992,-3.035 C24.918,-18.359 23.984,-15.332 53.305,-31.305 C75.32,-58.762 78.996,-50.148 76.371,22.844"/>
  <path fill="rgb(98.039216%, 78.431373%, 53.72549%)" opacity="0.885" d="M335.656,148.309 C393.539,204.816 297.5,228.68 214.266,214.617 C168.574,201.914 165,218.852 194.273,189.574 C194.727,158.32 190.383,115.535 247.48,151.309 C242.004,161.512 273.352,120.062 335.656,148.309"/>
  <path fill="rgb(41.960784%, 0.392157%, 47.058824%)" opacity="0.991" d="M410.148,247.078 C415.574,277.812 410.422,272.977 375.684,299.777 C341.883,322.758 359.938,306.047 419.832,168.309 C372.965,121.156 390.574,108.129 415.793,133.531 C421.152,152.75 417.074,168.789 410.148,247.078"/>
  <path fill="rgb(100%, 27.843137%, 81.568627%)" opacity="0.943" d="M215.801,193.59 C232,215.957 249.887,178.102 196.293,293.105 C140.207,318.055 110.719,300.328 93.797,195.742 C92.582,179.277 112.16,98.531 224.738,54.836 C304.234,179.672 205.426,138.172 215.801,193.59"/>
  <path fill="rgb(99.215686%, 100%, 100%)" opacity="0.242" d="M243.176,66.934 C256.066,63.098 262.797,104.801 270.105,90.066 C230.234,98.852 200.035,121.973 205.602,86.863 C258.945,60.145 299.855,43.695 270.582,23.133 C278.027,41.727 263.41,36.867 243.176,66.934"/>
  <path fill="rgb(100%, 81.176471%, 52.54902%)" opacity="0.979" d="M212.715,305.035 C214.184,372.328 205.074,371.387 171.199,364.109 C103.102,328.395 110.191,316.156 100.691,291.156 C88.883,225.008 93.406,196.113 127.953,274.359 C155.812,272.668 141.242,284.805 212.715,305.035"/>
  <path fill="rgb(100%, 43.921569%, 97.254902%)" opacity="0.416" d="M422.734,160.824 C389.355,188.945 397.898,216.062 374.984,205.352 C346.492,209.621 330.082,216.324 351.148,173.414 C344.359,166.176 338.625,150.695 367.66,131.668 C412.871,159.91 423.141,163.051 422.734,160.824"/>
  <path fill="rgb(83.137255%, 98.823529%, 66.666667%)" opacity="0.012" d="M80.898,170.34 C108.836,137.203 109.984,146.824 91.48,233.855 C-11.586,221.742 -20.777,210.465 -38.715,180.332 C-31.094,108.188 29.602,88.426 100.094,127.309 C72.324,169.691 65.539,155.062 80.898,170.34"/>
  <path fill="rgb(80%, 100%, 78.039216%)" opacity="0.036" d="M139.605,280.531 C121.008,295.887 96.531,300.867 88.332,299.742 C98.652,282.027 62.613,266.051 81.773,234.496 C112.914,307.523 102.41,293.957 114.457,273.598 C131.023,288.73 153.211,284.973 139.605,280.531"/>
  <path fill="rgb(100%, 30.980392%, 80.784314%)" opacity="0.882" d="M401.754,260.992 C334.289,336.496 346.285,292.777 299.793,306.469 C206.316,330.648 154.336,305.504 168.016,239.844 C190.293,185.496 210.57,207.805 273.641,212.594 C338.645,216.414 426.688,136.559 401.754,260.992"/>
  <path fill="rgb(97.254902%, 84.313725%, 29.019608%)" opacity="0.276" d="M300.652,316.129 C286.867,381.164 252.102,359.109 217.914,333.93 C201.805,323.301 213.949,312.68 233.422,322.84 C226.664,297.91 208.066,305.953 216.641,345.594 C218.188,310.293 213.98,314.105 300.652,316.129"/>
  <path fill="rgb(100%, 81.176471%, 95.686275%)" opacity="0.234" d="M142.77,176.691 C133.324,169.051 151.48,164.371 143.938,167.703 C139.023,192.406 132.531,177.629 137.562,157.82 C125.395,159.508 137.27,104.832 168.715,121.441 C163.992,176.809 163.676,172.594 142.77,176.691"/>
  <path fill="rgb(98.431373%, 58.039216%, 72.54902%)" opacity="0.087" d="M149.023,176.098 C121.59,190.648 94.699,158.645 114.863,205.113 C157.414,260.703 187.559,243.211 181.434,195.297 C130.473,182.68 124.109,180.016 121.777,148.504 C151.414,130.207 137.73,156.469 149.023,176.098"/>
  <path fill="rgb(100%, 85.490196%, 100%)" opacity="0.123" d="M209.82,72.328 C273.398,52.836 213.105,64.695 178.277,80.109 C143.504,92.109 144.832,77.074 219.633,66.703 C214.328,71.984 196.527,90.824 190.82,92.773 C180.395,79.348 182.926,59.613 209.82,72.328"/>
  <path fill="rgb(93.333333%, 99.607843%, 98.039216%)" opacity="0.15" d="M268.758,51.711 C260.605,69.238 263.566,95.121 258.465,92.824 C302.848,98.363 316.305,98.312 311.574,67.746 C274.934,68.215 252.266,67.316 265.16,42.344 C274.992,19.715 275.578,12.211 268.758,51.711"/>
  <path fill="rgb(66.666667%, 67.058824%, 12.54902%)" opacity="0.054" d="M320.207,328.809 C321.922,312.328 313.348,313.82 310.133,339.52 C305.309,335.164 309.688,325.418 329.48,305.125 C312.605,295.965 271.613,297.891 288.25,313.293 C355.938,308.73 340.402,301.07 320.207,328.809"/>
</svg>

