<svg xmlns="http://www.w3.org/2000/svg" width="384" height="384" viewBox="0 0 384 384">
  <defs/>
  <path fill="rgb(30.980392%, 2.352941%, 0%)" d="M78.023,191.426 C25.348,180.812 39,165.762 38.023,246.137 C47.941,294.766 50.934,237.594 54.047,185.184 C73.438,170.625 54.488,187.074 46.277,198.734 C66.875,139.906 112.699,197.52 78.023,191.426"/>
  <path fill="rgb(87.843137%, 2.352941%, 16.078431%)" opacity="0.981" d="M185.508,152.855 C124.477,170.457 135.734,160.398 162.43,152.172 C163.152,205.477 188.504,205.043 138.168,199.02 C120.27,167.105 125.141,157.148 108.117,121.578 C161.652,94.812 180.633,98.887 185.508,152.855"/>
  <path fill="rgb(8.627451%, 9.411765%, 16.078431%)" d="M278.246,196.988 C248.188,204.91 241.617,206.387 247.727,221.438 C260.805,212.793 253.938,175.957 255.594,162.805 C269.508,163.453 276.285,158 269.648,179.465 C282.383,134.109 278.855,170.055 278.246,196.988"/>
  <path fill="rgb(81.176471%, 6.27451%, 10.196078%)" d="M296.52,162.223 C233.93,185.781 228.422,171.465 239.707,166.52 C175.699,171.199 150.297,193.707 142.977,105.965 C202.941,62.84 192.684,32.527 230.223,67.262 C273.129,102.312 279.172,97.535 296.52,162.223"/>
  <path fill="rgb(100%, 100%, 100%)" opacity="0.013" d="M344.465,75.266 C325.164,63.664 302.391,62.824 307.121,91.891 C291.941,113.594 278.508,96.207 209.715,45.551 C190.145,-20.004 220.023,-8.781 329.805,20.52 C334,58.961 323.781,53.363 344.465,75.266"/>
  <path fill="rgb(84.313725%, 99.607843%, 100%)" opacity="0.026" d="M173.18,59.898 C132.863,105.223 91.316,112.91 67.625,132.379 C34.652,157.812 10.066,151.305 10.906,74.055 C12.582,1.523 13.434,0.816 71.688,-24.191 C190.949,3.539 183.574,3.137 173.18,59.898"/>
  <path fill="rgb(89.803922%, 84.313725%, 93.333333%)" opacity="0.062" d="M403.566,99.59 C426.219,232.852 406.215,212.355 350.566,217.871 C263.387,225.242 278.711,225.117 290.746,159.492 C312.812,151.609 334.945,154.824 332.758,102.953 C334.551,86.859 362.164,70.5 403.566,99.59"/>
  <path fill="rgb(51.764706%, 0.784314%, 0%)" opacity="0.905" d="M272.059,200.301 C250.816,205.16 227.777,205.137 250.422,203.648 C221.02,193.27 237.461,206.281 236.059,217.773 C226.691,204.098 232.555,194.785 210.961,164.266 C210.043,150.695 254.77,149.074 272.059,200.301"/>
  <path fill="rgb(16.078431%, 65.490196%, 27.843137%)" d="M228.289,210.645 C151.09,347.23 109.203,351.973 21.73,337.188 C-27.609,336.023 -35.012,356.844 -67.18,285.844 C-6.711,239.844 50.285,293.191 121.82,190.82 C89.016,233 95.312,200.871 228.289,210.645"/>
  <path fill="rgb(90.980392%, 85.490196%, 82.745098%)" opacity="0.023" d="M398.16,227.984 C415.426,258.141 424.125,302.07 369.562,295.664 C310.152,290.324 312.121,296.781 283.926,184.371 C306.07,178.926 372.074,237.691 412.035,208.242 C429.793,143.859 392.238,195.641 398.16,227.984"/>
  <path fill="rgb(100%, 97.254902%, 100%)" opacity="0.018" d="M350.727,102.461 C383.23,172.664 382.531,194.605 336.277,180.066 C310.008,173.098 304.738,156.504 281.316,145.398 C314.828,129.074 304.922,143.34 318.301,144.473 C284.34,101.004 308.078,112.559 350.727,102.461"/>
  <path fill="rgb(56.078431%, 34.509804%, 12.54902%)" opacity="0.803" d="M407.539,342.793 C409.562,361.867 443.902,331.066 316.59,336.961 C268.727,310.195 242.445,398.41 242.207,327.215 C236.113,195.5 257.441,230.211 265.059,251.836 C386.57,276.77 397.449,249.938 407.539,342.793"/>
  <path fill="rgb(98.823529%, 69.019608%, 15.294118%)" d="M305.539,382.945 C253.789,397.543 191.477,394.102 89.348,397.398 C38.574,383.23 9.754,407.496 -143.801,338.027 C-55.578,227.004 119.617,315.316 261.621,254.883 C242.715,207.605 271.633,168.902 305.539,382.945"/>
  <path fill="rgb(85.098039%, 0%, 6.27451%)" opacity="0.891" d="M168.863,97.641 C87.961,151.035 123.488,116.141 131.754,224.27 C94.488,130.801 111.09,172.121 115.328,148.969 C118.016,110.035 104.027,125.719 169.73,76.863 C223.398,40.434 241.168,64.84 168.863,97.641"/>
  <path fill="rgb(86.666667%, 3.529412%, 7.058824%)" opacity="0.981" d="M216.418,213.715 C228.246,217.277 227.965,233.672 136.715,240.164 C99.266,240.512 116.141,228.605 108.746,230.641 C113.223,196.578 107.488,169.141 146.848,133.934 C205.84,150.168 198.254,201.289 216.418,213.715"/>
  <path fill="rgb(81.960784%, 6.27451%, 7.843137%)" opacity="0.945" d="M211.488,198.52 C195.434,243.969 199.926,233.52 153.68,232.543 C162.676,219.043 138.348,216.645 122.551,190.82 C116.531,112.844 102.422,137.309 152.301,138.816 C215.469,125.992 206.055,132.75 211.488,198.52"/>
  <path fill="rgb(99.607843%, 99.607843%, 100%)" opacity="0.137" d="M214.297,39.797 C188.848,80.449 176.469,77.215 147.75,113.332 C127.68,134.555 161.723,128.133 171.027,49.836 C130.418,61.379 141.41,62.453 123.582,10.934 C159.977,-30.562 233.441,-24.523 214.297,39.797"/>
  <path fill="rgb(96.862745%, 21.960784%, 18.823529%)" opacity="0.196" d="M174.398,183.238 C173.816,191.555 172.09,184.77 171.867,210.281 C137.754,208.789 152.477,214.188 149.703,170.906 C153.453,167.984 152.992,162.461 143.52,159.168 C150.848,176.176 146.492,174.855 174.398,183.238"/>
  <path fill="rgb(2.352941%, 23.921569%, 20%)" opacity="0.974" d="M278.133,146.801 C316.918,133.152 290.469,166.117 262.133,125.93 C184.945,90.84 196.906,126.781 197.418,91.48 C219.52,78.07 239.711,110.699 238.066,78.875 C218.574,126.203 237.898,57.164 278.133,146.801"/>
  <path fill="rgb(100%, 51.372549%, 42.352941%)" opacity="0.037" d="M142.457,351.09 C88.371,362.359 70.785,342.996 48.898,323.66 C72.34,404.398 60.383,399.422 44.883,320.961 C92.691,317.797 149.367,322.895 58.266,300.57 C55.602,342.234 72.836,335.656 142.457,351.09"/>
  <path fill="rgb(89.411765%, 72.156863%, 2.745098%)" opacity="0.151" d="M30.867,364.113 C34.504,302.414 39.098,286.934 38.41,376.027 C15.961,373.641 -10.695,375.656 -53.312,354.316 C-33.5,289.477 -8.871,287.055 77.703,300.848 C17.391,310.203 5.688,281.211 30.867,364.113"/>
  <path fill="rgb(85.490196%, 7.45098%, 12.54902%)" opacity="0.886" d="M265.664,246.977 C189.852,246.301 180.457,248.273 177.652,261.215 C174.832,235.613 175.664,219.418 176.762,264.652 C181.398,273.121 195.219,242.59 185.406,144.066 C277.383,193.074 271.223,161.645 265.664,246.977"/>
  <path fill="rgb(96.078431%, 100%, 100%)" opacity="0.049" d="M415.266,124.223 C373.254,174.641 376.348,164.281 321.379,154.188 C310.941,124.734 321.652,129.457 336.734,157.73 C316.562,129.531 286.027,173.812 260.34,68.523 C368.652,85.34 423.941,64.797 415.266,124.223"/>
  <path fill="rgb(88.627451%, 85.098039%, 5.098039%)" opacity="0.086" d="M208.461,340.566 C227.16,375.695 176.445,358.953 179.293,338.312 C134.621,335.211 150.742,305.086 149.664,371.938 C168.145,381.797 144.188,375.57 158.219,294.383 C187.855,250.359 170.191,324.379 208.461,340.566"/>
  <path fill="rgb(100%, 99.215686%, 95.686275%)" opacity="0.03" d="M56.996,252.426 C48.812,258.973 16.48,257.586 -5.879,266.84 C-9.867,248.453 -44.074,266.109 3.727,209.227 C72.832,210.484 23.871,206.238 50.25,188.004 C140.98,192.012 121.965,223.301 56.996,252.426"/>
  <path fill="rgb(85.098039%, 6.666667%, 10.196078%)" d="M181.527,181.184 C139.684,195.242 115.688,165.422 131.691,114.637 C136.789,163.715 145.812,132.125 139.465,235.492 C110.793,107.961 116.688,112.859 94.254,136.164 C120.207,131.348 202.148,112.277 181.527,181.184"/>
  <path fill="rgb(2.745098%, 49.019608%, 2.745098%)" opacity="0.964" d="M100.945,165.531 C86.16,185.758 74.336,204.027 49.777,191.203 C48.453,185.156 23.074,226.992 -10.094,155.906 C12.707,135.973 17.473,101.406 45.336,107.336 C84.582,109.988 72.234,146.867 100.945,165.531"/>
  <path fill="rgb(100%, 98.039216%, 100%)" opacity="0.961" d="M115.93,235.207 C88.527,238.973 69.812,248.047 58.816,237.918 C120.859,217.555 95.051,234.508 59.582,228.078 C67.859,184.312 81.934,202.516 103.656,143.781 C123.117,146.625 114.383,144.148 115.93,235.207"/>
  <path fill="rgb(98.823529%, 67.843137%, 12.54902%)" d="M495.859,326.242 C385.246,412.355 353.141,377.707 298.355,419.484 C248.918,428.797 250.844,431.453 227.152,346.797 C249.883,267.957 240.059,260.133 251.293,272.352 C329.816,281.773 376.32,261.656 495.859,326.242"/>
  <path fill="rgb(9.803922%, 69.411765%, 16.078431%)" d="M397.422,275.875 C239.242,280.414 229.312,276.906 232.148,277.109 C218.109,267.688 187.625,276.926 167.43,264.996 C225.305,259.145 251.094,280.125 246.922,238.465 C253.27,235.43 314.266,226.652 397.422,275.875"/>
  <path fill="rgb(14.117647%, 67.45098%, 27.45098%)" d="M297.551,237.227 C302.305,290.621 288.195,271.891 192.695,278.5 C175.523,276.293 131.285,279.695 153.227,274.656 C145.418,227.441 172.113,242.891 220.805,235.242 C253.09,233.945 281.242,215.191 297.551,237.227"/>
  <path fill="rgb(0%, 83.529412%, 17.647059%)" opacity="0.133" d="M63.027,259.688 C75.723,274.434 83.023,273.875 54.082,280.395 C50.773,281.98 59.934,279.172 50.918,274.945 C74.805,233.531 61.203,224.582 55.609,263.301 C184.129,266.023 170.301,257.492 63.027,259.688"/>
  <path fill="rgb(73.72549%, 85.098039%, 3.529412%)" opacity="0.11" d="M249.848,297.453 C262.078,336.391 232.629,316.496 199.969,303.898 C190.203,295.871 166.492,300.672 198.227,306.855 C222.281,324.441 257.062,331.836 248.922,297.539 C212.461,281 198.129,287.402 249.848,297.453"/>
  <path fill="rgb(100%, 100%, 100%)" opacity="0.071" d="M189.496,83.375 C161.734,110.582 126.555,110.805 113.926,99.34 C147.09,103.492 138.895,98.16 122.68,88.098 C144.562,78.926 144.848,84.918 155.891,78.281 C170.719,95.668 204.027,89.141 189.496,83.375"/>
  <path fill="rgb(94.901961%, 74.901961%, 10.980392%)" opacity="0.166" d="M278.605,289.512 C302.879,374.344 306.316,366.66 264.789,328.27 C248.703,313.859 232.254,312.348 253.863,340.812 C244.27,379.047 213.035,385.691 235.41,291.469 C280.211,302.574 292.23,288.672 278.605,289.512"/>
  <path fill="rgb(85.098039%, 4.705882%, 6.27451%)" opacity="0.943" d="M259.469,209.93 C244.961,254.215 219.301,232.453 182.859,233.992 C189.297,206.934 192.949,166.324 198.719,160.703 C204.977,174.082 174.129,141.648 207.906,114.078 C300.719,135.324 268.727,126.426 259.469,209.93"/>
  <path fill="rgb(85.098039%, 0.784314%, 1.176471%)" d="M295.652,230.305 C298.984,249.926 329.969,229.203 268.395,237.785 C240.613,232.711 231.504,242.492 242.477,191.656 C260.992,190.559 265.844,228.836 250.57,142.188 C310.484,118.781 292.176,100.5 295.652,230.305"/>
  <path fill="rgb(25.882353%, 89.803922%, 34.901961%)" opacity="0.286" d="M57.828,254.379 C61.004,278.434 59.27,279.277 12.379,278.941 C56.039,273.602 33.945,255.719 0.062,262.418 C2.188,288.336 10.379,252.051 66.086,249.359 C52.457,264.277 39.805,253.168 57.828,254.379"/>
  <path fill="rgb(100%, 97.254902%, 100%)" opacity="0.024" d="M389.383,187.727 C321.871,179.648 299.871,207.199 309.789,183.223 C289.602,168.441 308.281,166.098 329.418,164.832 C323.43,148.016 317.973,127.66 384.957,147.793 C395.129,135.883 375.762,142.488 389.383,187.727"/>
  <path fill="rgb(88.627451%, 75.686275%, 81.176471%)" opacity="0.076" d="M172.867,271.438 C174.375,275.613 176.684,279.082 105.121,277.211 C120.801,271.918 135.238,271.184 111.805,272.238 C124.469,280.633 123.039,288.152 117.203,279.156 C185.309,285.578 206.113,275.363 172.867,271.438"/>
  <path fill="rgb(60.392157%, 65.882353%, 29.411765%)" opacity="0.295" d="M439.809,259.27 C389.684,260.973 373.809,272.41 337.613,255.207 C340.273,228.707 317.676,246.688 373.348,240.906 C386.309,284.812 387.422,284.07 389.23,223.055 C396.992,231.184 405.09,254.699 439.809,259.27"/>
  <path fill="rgb(89.019608%, 0.392157%, 4.313725%)" opacity="0.987" d="M319.492,136.242 C304.383,143.785 291.551,125.727 297.898,135.758 C292.352,147.098 270.652,163.141 240.086,148.352 C219.789,158.074 206.094,59.492 236.32,78.098 C296.547,115.277 304.16,119.281 319.492,136.242"/>
  <path fill="rgb(45.098039%, 38.039216%, 3.137255%)" opacity="0.038" d="M296.363,137.824 C308.938,155.012 305.02,161.945 283.074,152.832 C292.633,117.621 298.355,129.227 271.262,134.43 C283.078,116.363 292.148,105.418 265.254,130.676 C285.48,137.895 291.609,142.934 296.363,137.824"/>
  <path fill="rgb(85.098039%, 75.294118%, 1.176471%)" opacity="0.09" d="M327.133,396.367 C301.242,342.676 360.551,322.66 358.812,374.945 C292.922,339.492 302.645,367.133 305.539,339.805 C308.848,327.203 284.859,357.172 329.922,347.137 C316.352,288.473 319.527,323.715 327.133,396.367"/>
  <path fill="rgb(26.666667%, 81.176471%, 26.666667%)" opacity="0.007" d="M299.855,131.945 C315.891,174.352 314.754,195.223 301.215,174.75 C297.16,200.758 291.062,170.145 313.664,189.059 C304.359,188.535 303.438,154.664 311.035,172.707 C267.863,173.746 285.527,147.766 299.855,131.945"/>
  <path fill="rgb(100%, 52.941176%, 58.039216%)" opacity="0.074" d="M193.57,320.832 C200.562,327.172 171.676,329.684 167.219,298.242 C204.387,302.262 203.113,283.617 128.453,283.953 C126.27,263.418 190.918,272.414 158.316,306.684 C150.027,322.902 156.949,319.496 193.57,320.832"/>
  <path fill="rgb(100%, 66.666667%, 30.588235%)" opacity="0.15" d="M126.973,349.613 C126.352,311.453 126.477,318.004 105.449,320.82 C122.742,346.547 133.316,325.945 90.852,283.512 C152.387,280.582 130.254,273.926 134.48,330.844 C106.473,327.664 136.746,320.715 126.973,349.613"/>
  <path fill="rgb(100%, 60%, 40.784314%)" opacity="0.138" d="M375.289,323.762 C310.293,319.699 262.125,301.09 271.785,303.961 C270.289,298.137 271.949,290.348 256.316,295.43 C272.105,321.629 283.434,319.777 258.316,280.801 C315.176,296.465 341.762,292.488 375.289,323.762"/>
  <path fill="rgb(70.588235%, 0%, 13.333333%)" opacity="0.139" d="M198.066,138.566 C199.91,152.805 211.156,210.984 198.93,243.562 C184.82,193.125 183.148,173.582 211.465,187.598 C223.129,202.23 188.219,195.746 170.016,148.852 C218.289,153.246 225.488,138.426 198.066,138.566"/>
  <path fill="rgb(0%, 62.352941%, 59.607843%)" opacity="0.061" d="M308.73,281.145 C239.648,275.25 220.91,284.941 250.07,270.461 C253.172,269.793 211.105,280.023 219.707,267.43 C209.668,230.766 215.477,229.836 235.203,250.852 C315.438,253.078 313.5,235.953 308.73,281.145"/>
</svg>

