<svg xmlns="http://www.w3.org/2000/svg" width="384" height="384" viewBox="0 0 384 384">
  <defs/>
  <path fill="rgb(72.941176%, 0%, 31.372549%)" d="M266.027,87.977 C273.039,74.043 315.195,99.457 282.648,129.496 C268.5,116.227 259.926,108.855 251.828,94.004 C254.188,86.934 251.426,79.977 249.594,83.223 C258.812,98.664 261.48,108.254 266.027,87.977"/>
  <path fill="rgb(40%, 79.215686%, 25.882353%)" opacity="0.6" d="M248.387,224.57 C258.633,234.016 232.902,225.934 232.734,208.98 C212.238,197.543 210.859,189.816 217.867,189.031 C191.629,201.445 199.465,182.367 213.641,190.219 C216.004,189.742 234.918,175.645 248.387,224.57"/>
  <path fill="rgb(76.470588%, 82.352941%, 81.176471%)" opacity="0.269" d="M274.984,227.938 C251.094,219.094 267.09,277.277 225.855,244.609 C261.539,241.129 274.973,226.18 267.637,287.898 C260.387,208.109 264.332,169.793 257.117,203.469 C264.258,260.449 280.633,257.105 274.984,227.938"/>
  <path fill="rgb(95.686275%, 9.411765%, 36.078431%)" opacity="0.939" d="M300.676,155.82 C309.375,140.887 343.926,201.465 316.805,208.207 C310.383,163.156 290.012,153.762 277.227,123.844 C270.461,119.77 309.52,134.637 287.473,137.207 C321.43,151.508 311.109,139.672 300.676,155.82"/>
  <path fill="rgb(85.098039%, 97.254902%, 48.627451%)" opacity="0.598" d="M199.547,222.973 C227.062,274.605 225.578,276.863 209.121,256.336 C208.273,237.75 175.863,224.109 167.141,226.273 C181.789,201.27 184.125,215.918 219.27,243.32 C228.121,192.379 196.637,184.926 199.547,222.973"/>
  <path fill="rgb(99.215686%, 98.039216%, 95.294118%)" opacity="0.024" d="M310.746,298.695 C326.84,327.559 323.777,395.793 269.926,401.492 C179.809,382.348 194.973,379.816 231.352,366.316 C218.164,351.395 252.195,303.844 237.363,313.285 C229.66,335.875 244.82,321.484 310.746,298.695"/>
  <path fill="rgb(72.54902%, 86.27451%, 45.490196%)" opacity="0.457" d="M205.117,164.371 C179.277,158.43 189.715,193.863 185.996,289.359 C180.922,266.367 193.684,222.277 199.855,189.605 C193.973,229.73 214.875,213.246 219.719,209.223 C207.004,209.945 214.012,211.984 205.117,164.371"/>
  <path fill="rgb(100%, 26.666667%, 16.862745%)" opacity="0.393" d="M226.301,392.016 C245.848,414.273 227.902,412.855 214.848,433.41 C192.105,436.449 180.859,424.863 181.535,386.422 C185.109,338.645 181.379,304.367 216.336,275.309 C228.582,302.785 232.297,332.504 226.301,392.016"/>
  <path fill="rgb(100%, 9.803922%, 50.980392%)" opacity="0.985" d="M277.699,58.082 C290.613,121.805 399.543,151.105 340.855,218.812 C278.91,116.395 264.297,123.469 267.48,110.863 C243.902,107.684 213.211,14.188 308.043,-8.617 C372.281,14.598 381.949,101.613 277.699,58.082"/>
  <path fill="rgb(96.862745%, 12.941176%, 50.196078%)" opacity="0.987" d="M318.199,291.098 C244.523,330.719 202.027,323.707 224.34,359.973 C248.57,287.059 264.012,346.777 138.398,340.938 C139.777,169 155.824,134.762 309.309,211.129 C368.504,90.41 397.992,247.254 318.199,291.098"/>
  <path fill="rgb(33.72549%, 62.745098%, 41.176471%)" opacity="0.034" d="M275,40.957 C278.219,22.777 273.535,72.828 281.766,73.914 C282.043,54.379 256.867,44.91 272.441,75.746 C264.469,78.441 267.344,79.102 246.348,101.129 C228.695,21.973 225.824,47.051 275,40.957"/>
  <path fill="rgb(98.823529%, 16.470588%, 50.196078%)" d="M240.332,224.699 C208.637,205.012 199.57,214.594 169.82,304.242 C44.91,339.992 30.324,312.633 80.582,208.91 C121.539,151.875 151.555,134.172 200.473,128.297 C264.879,137.961 251.762,156.125 240.332,224.699"/>
  <path fill="rgb(99.607843%, 17.647059%, 48.627451%)" opacity="0.991" d="M295.879,206.387 C252.863,223.742 210.039,189 236.465,219.945 C225.996,212.168 207.32,194.961 198.281,171.234 C146.637,149.988 147.605,142.27 222.605,132.094 C256.617,144.004 276.16,152.895 295.879,206.387"/>
  <path fill="rgb(100%, 0.784314%, 45.490196%)" opacity="0.919" d="M45.16,236.293 C100.02,262.352 147.215,274.793 103.621,280.766 C65.898,272.25 66.766,262.656 28.375,304.211 C40.605,331.062 16.844,323.43 68.918,316.773 C95.984,265.512 93.34,256.758 45.16,236.293"/>
  <path fill="rgb(62.352941%, 100%, 62.352941%)" opacity="0.041" d="M179.215,336.398 C132.504,312.242 116.965,315.105 94.535,347.086 C110.707,332.473 97.809,370.047 144.227,366.656 C195.742,366.656 188.965,335.273 158.285,291.309 C159.625,309.863 185.172,311.074 179.215,336.398"/>
  <path fill="rgb(61.176471%, 87.843137%, 0%)" opacity="0.078" d="M355.277,80.82 C283.844,68.316 274.172,45.953 259.84,57.582 C285.414,87.172 280.133,80.312 279.629,43.547 C262.172,71.371 271.469,74.922 271.859,91.316 C292.672,5.316 326.871,3.184 355.277,80.82"/>
  <path fill="rgb(0%, 0%, 1.960784%)" d="M373.965,134.355 C346.25,153.5 369.695,104.98 355.852,96.219 C326.148,66.227 320.785,85.375 324.039,31.367 C317.727,15.484 321.211,52.93 348.238,30.156 C365.18,56.949 398.902,76.34 373.965,134.355"/>
  <path fill="rgb(80.392157%, 31.764706%, 36.862745%)" opacity="0.537" d="M159.82,326.789 C170.734,337.289 125.887,324.934 142.328,326.848 C101.652,330.406 99.398,337.551 41.258,402.66 C100.297,299.77 137.086,312.898 156.062,300.215 C134.594,296.797 113.57,301.84 159.82,326.789"/>
  <path fill="rgb(36.078431%, 100%, 100%)" opacity="0.07" d="M263.246,173.883 C270.242,187.242 251.02,149.293 281.336,162.719 C270.336,177.098 269.102,144.062 244.398,159.43 C246.727,168.488 250.109,129.941 243.973,153.473 C269.891,138.359 266.719,145.301 263.246,173.883"/>
  <path fill="rgb(81.568627%, 21.960784%, 42.352941%)" opacity="0.538" d="M202.289,319.051 C199.203,363.82 196.98,352.469 186.418,420.34 C165.715,341.668 180,331.84 172.008,338.133 C174.137,314.094 182.328,313.18 171.102,319.164 C228.617,323.773 229.133,314.32 202.289,319.051"/>
</svg>

