<svg xmlns="http://www.w3.org/2000/svg" width="384" height="384" viewBox="0 0 384 384">
  <defs/>
  <path fill="rgb(94.117647%, 99.215686%, 99.607843%)" opacity="0.039" d="M92.621,208.754 C94.742,201.02 72.586,202.016 87.473,233.32 C75.672,231.418 75.316,246.73 -50.008,241.551 C-10.531,125.02 28.098,148.508 75.258,164.309 C53.422,159.895 55.539,213.98 92.621,208.754"/>
  <path fill="rgb(54.117647%, 72.54902%, 8.235294%)" opacity="0.686" d="M113.848,336.586 C128.391,396.93 127.309,414.156 15.809,398.242 C-105.629,296.387 -108.586,289.582 0.203,293.84 C79.383,323.934 28.117,343.996 60.543,318.574 C83.191,308.891 102.742,311.754 113.848,336.586"/>
  <path fill="rgb(87.843137%, 87.058824%, 98.823529%)" opacity="0.04" d="M411.047,102.078 C401.586,165.539 365.672,172.457 228.938,153.617 C250.559,82.277 268.09,106.633 251.863,52.266 C258.48,23.457 312.668,20.68 326.266,25.676 C365.188,25.961 373.523,44.008 411.047,102.078"/>
  <path fill="rgb(47.45098%, 91.372549%, 21.568627%)" opacity="0.88" d="M150.938,379.387 C105.336,381.039 100.605,384.422 88.758,391.754 C106.68,384.918 134.98,373.34 105.742,346.781 C89.91,337.754 50.461,343.066 88.703,313.832 C144.852,317.621 135.352,341.695 150.938,379.387"/>
  <path fill="rgb(51.372549%, 72.156863%, 10.196078%)" opacity="0.688" d="M304.281,288.695 C408.051,326.297 428.258,328.105 398.773,388.797 C212.844,384.914 226.574,390.688 235.371,366.797 C225.465,315.566 210.23,299.227 231.508,316.02 C254.332,354.996 189.797,328.441 304.281,288.695"/>
  <path fill="rgb(77.254902%, 85.882353%, 9.411765%)" opacity="0.871" d="M158.332,355.852 C154.863,402.039 158.84,433.605 165.152,453.246 C128.285,416.672 113.707,385.684 154.629,363.312 C113.535,353.848 106.957,350.914 156.109,332.676 C187.223,321.273 190.062,368.121 158.332,355.852"/>
  <path fill="rgb(61.568627%, 88.627451%, 23.529412%)" opacity="0.831" d="M258.781,331.832 C226.207,429.094 217.477,429.293 186.109,431.16 C146.559,415.336 142.578,425.895 121.125,407.77 C104.398,385.117 126.914,356.961 142.785,316.156 C192.156,284.234 222.723,299.141 258.781,331.832"/>
  <path fill="rgb(52.941176%, 78.823529%, 41.568627%)" opacity="0.266" d="M235.023,336.758 C307.715,351.582 300.066,367.441 307.781,409.309 C211.301,411.707 204.645,416.496 197.188,382.094 C180.617,357.359 195.809,339.316 197.828,365.293 C220.586,372.18 173.766,332.57 235.023,336.758"/>
  <path fill="rgb(100%, 46.27451%, 16.862745%)" opacity="0.118" d="M274.152,304.102 C273.348,352.871 280.152,347.25 181.422,354.281 C56.965,310.078 33.957,362.586 25.609,288.18 C51.281,122.496 19.492,109.273 230.559,73.734 C268.973,167.215 271.055,208.512 274.152,304.102"/>
  <path fill="rgb(75.686275%, 100%, 100%)" opacity="0.037" d="M254.293,94.676 C236.832,67.719 238.273,62.637 242.762,102.062 C234.59,87.5 199.117,95.25 186.922,57.18 C168.781,31.398 147.41,27.359 270.867,32.383 C273.602,33.629 267.859,60.16 254.293,94.676"/>
  <path fill="rgb(95.686275%, 85.490196%, 88.627451%)" opacity="0.048" d="M358.156,287.488 C317.691,315.332 273.141,304.438 301.562,250.172 C303.184,238.812 297.969,257.195 239.793,280.684 C227.008,202.551 241.23,188.461 281.281,123.887 C377.258,118.852 361.59,125.402 358.156,287.488"/>
  <path fill="rgb(76.078431%, 96.862745%, 100%)" opacity="0.065" d="M410.84,273.355 C326.559,294.203 318.688,248.465 352.473,241.734 C310.453,249.141 289.012,242.875 283.965,222.484 C308.309,222.203 330.859,221.609 356.465,218.328 C376.098,212.352 421.879,197.742 410.84,273.355"/>
  <path fill="rgb(100%, 76.862745%, 66.666667%)" opacity="0.132" d="M146.457,151.492 C150.172,252.715 162.922,246.125 143.551,248.16 C46.562,248.816 0.297,250.68 56.016,233.957 C82.598,187.141 50.551,140.18 92.711,161.125 C96.773,183.191 43.676,151.859 146.457,151.492"/>
</svg>

