<svg xmlns="http://www.w3.org/2000/svg" width="384" height="384" viewBox="0 0 384 384">
  <defs/>
  <path fill="rgb(100%, 100%, 95.686275%)" opacity="0.006" d="M55.43,151.828 C51.195,166.555 48.195,161.035 19.633,147.582 C18.164,135.449 4.68,143.195 -22.277,153.246 C1.586,152.012 25.699,156.703 30.113,147.574 C40.637,137.844 59.93,133.16 55.43,151.828"/>
  <path fill="rgb(13.333333%, 65.490196%, 85.882353%)" opacity="0.797" d="M106.207,274.012 C123.277,283.453 122.875,279.402 109.805,276.488 C95.438,294.504 127.605,280.953 117.961,250.719 C83.48,262.199 76.086,243.707 101.375,206.082 C116.301,237.422 116.941,267.754 106.207,274.012"/>
  <path fill="rgb(75.294118%, 98.823529%, 0%)" opacity="0.902" d="M300.895,77.57 C249.984,66.16 312.492,62.113 316.086,74.941 C277.543,74.055 261.688,90.625 294.758,101.766 C354.348,71.395 365.211,75.371 286.699,43.5 C318.305,32.996 337.094,67.793 300.895,77.57"/>
  <path fill="rgb(1.568627%, 11.372549%, 95.294118%)" opacity="0.934" d="M106.004,154.129 C91.941,150.852 61.582,149.59 42.945,141.758 C29.219,143.398 50.754,125.762 45.027,112.004 C43.922,126.129 69.516,120.914 62.629,120.578 C59.418,75.73 63.836,90.582 106.004,154.129"/>
  <path fill="rgb(40%, 75.686275%, 74.509804%)" opacity="0.382" d="M81.637,144.734 C58.109,163.43 32.984,164.848 64.355,158.516 C31.348,142.742 38.676,135.359 34.379,126.75 C17.551,104.332 3.348,77.156 11.762,73.637 C76.457,66.199 79.551,89.812 81.637,144.734"/>
  <path fill="rgb(18.431373%, 40.392157%, 35.294118%)" opacity="0.627" d="M143.625,305.996 C113.684,258.512 131.168,277.133 120.828,368.984 C130.539,268.039 128.293,235.945 117.211,279.859 C93.082,315.688 67.406,331.766 61.285,295.477 C154.297,279.168 144.871,259.227 143.625,305.996"/>
  <path fill="rgb(65.098039%, 88.235294%, 46.666667%)" opacity="0.084" d="M41.719,178.34 C48.211,158.172 59.125,161.523 80.008,163.102 C60.211,156.066 42.688,152.234 49.898,137.168 C17.738,126.773 28.832,125.566 51.832,132 C52.418,154.758 58.828,169.707 41.719,178.34"/>
  <path fill="rgb(6.27451%, 37.254902%, 63.137255%)" opacity="0.853" d="M172.664,149.488 C204.961,185.363 201.441,203.555 252.398,154.941 C210.035,149.75 216.016,168.359 203.887,171.398 C196.207,82.148 194.93,71.859 228.008,97.742 C261.027,107.879 236.109,124.547 172.664,149.488"/>
  <path fill="rgb(37.647059%, 3.137255%, 82.352941%)" opacity="0.87" d="M412.219,143.82 C444.73,286.555 444.594,291.129 322.375,322.473 C241.496,315.73 246.641,295.684 312.633,93.207 C286.551,10.121 244.762,-4.898 265.891,35.285 C360.73,147.098 374.578,138.914 412.219,143.82"/>
  <path fill="rgb(44.313725%, 10.980392%, 81.568627%)" opacity="0.979" d="M298.293,261.27 C236.16,324.262 222.297,383.574 169.375,383.48 C214.527,367.215 122.289,422.254 96.918,308.004 C97.219,220.273 135.469,252.785 254.805,230.773 C287.73,239.773 276.859,260.996 298.293,261.27"/>
  <path fill="rgb(90.196078%, 98.039216%, 100%)" opacity="0.523" d="M76.18,93.504 C98.859,98.074 106.977,95.18 95.457,78.84 C64.488,95.512 44.945,81.434 80.109,88.707 C80.504,84.848 79.777,69.57 102.02,22.379 C90.484,102.754 78.508,120.746 76.18,93.504"/>
  <path fill="rgb(49.411765%, 19.215686%, 78.039216%)" opacity="0.98" d="M287.609,163.234 C300.875,265.766 309.609,293.875 178.219,262.781 C130.961,278.09 118.141,266.008 115.148,264.172 C195.883,181.406 240.293,163.023 316.062,119.789 C308.645,76.969 311.582,130.625 287.609,163.234"/>
  <path fill="rgb(53.72549%, 25.490196%, 90.980392%)" opacity="0.993" d="M408.789,307.027 C389.449,325.496 402.918,352.387 318.133,389.445 C249.082,375.398 229.555,326.375 239.699,271.383 C359.992,298.098 338.801,294.613 333.238,278.082 C383.289,252.586 408.176,252.953 408.789,307.027"/>
  <path fill="rgb(56.078431%, 56.470588%, 10.980392%)" opacity="0.936" d="M371.57,2.203 C341.297,42.641 332.168,69.535 383.633,8.41 C353.812,-18.719 346.305,-18.137 347.965,-41.785 C333.066,-19.438 349.535,-7.73 370.77,-5.113 C378.594,-35.707 388.41,-31.84 371.57,2.203"/>
  <path fill="rgb(53.333333%, 21.960784%, 88.235294%)" opacity="0.962" d="M342.527,123.211 C346.09,285.688 242.891,220.66 95.062,229.344 C96.422,262.473 113.922,267.91 106.695,160.016 C109.363,99.77 117.523,95.754 148.344,44.609 C223.156,-23.094 271.875,-17.852 342.527,123.211"/>
  <path fill="rgb(62.352941%, 18.039216%, 100%)" opacity="0.196" d="M404.938,206.16 C391.906,211.316 389.133,230.234 370.805,218.543 C377.723,183.73 379.113,181.145 361.793,178.656 C360.859,151.34 318.828,115.426 373.383,107.496 C452.824,158.906 444,170.832 404.938,206.16"/>
  <path fill="rgb(35.686275%, 41.960784%, 65.098039%)" opacity="0.795" d="M440.172,58.383 C395.449,167.816 393.391,151.52 370.445,140.625 C323.84,145.168 330.688,125.246 341.07,106.875 C327.312,91.309 308.934,101.434 362.352,57.355 C389.48,44.594 420.16,41.871 440.172,58.383"/>
  <path fill="rgb(48.235294%, 12.941176%, 84.313725%)" opacity="0.999" d="M134.305,85.715 C128.41,222.16 210.848,344.371 55.469,326.871 C-38.758,271.496 -5.82,189.156 59.32,161.824 C-8.418,113.602 -14,27.602 79.023,-0.43 C175.719,17.645 148.84,43.957 134.305,85.715"/>
  <path fill="rgb(39.607843%, 77.647059%, 1.176471%)" opacity="0.986" d="M376.781,79.746 C382.379,100.836 445.113,146.961 387.844,148.547 C353.145,81.504 342.449,98.301 346.797,86.102 C329.199,87.527 278.172,78.121 389.789,2.02 C373.355,43.098 330.566,55.809 376.781,79.746"/>
  <path fill="rgb(50.196078%, 3.921569%, 94.117647%)" opacity="0.193" d="M381.418,236.703 C333.379,193.074 359.219,202.367 354.965,264.793 C367.633,219.832 377.766,202.211 348.891,225.586 C348.797,283.441 361.746,257.582 377.977,192.41 C402.84,195.926 400.055,219.754 381.418,236.703"/>
  <path fill="rgb(94.117647%, 36.470588%, 100%)" opacity="0.035" d="M212.098,63.688 C148.609,45.441 159.145,26.25 125.969,57.434 C174.367,72.645 182.707,54.957 160.039,62.484 C155.859,47.293 159.227,66.039 176.035,25.297 C197.879,21.688 214.805,36.266 212.098,63.688"/>
  <path fill="rgb(38.823529%, 61.568627%, 4.705882%)" opacity="0.854" d="M338.375,47.258 C322.734,48.281 341.688,74.715 334.453,52.238 C329.977,36.711 356.504,90.035 344.383,98.656 C345.852,14.438 371.176,35.09 309.57,56.906 C340.207,79.316 362.973,88.184 338.375,47.258"/>
  <path fill="rgb(99.215686%, 98.823529%, 96.470588%)" opacity="0.977" d="M426.305,311.98 C398.09,334.977 392.504,343.105 421.348,366.586 C394.773,372.57 368.246,376.625 356.582,372.109 C396.656,328.43 377.004,309.832 382.344,281.758 C419.352,288.504 428.359,297.242 426.305,311.98"/>
  <path fill="rgb(58.823529%, 36.078431%, 83.137255%)" opacity="0.19" d="M147.945,228.934 C90.406,221.418 95.812,267.461 106.848,246.898 C108.367,221.336 128.25,235.836 129.066,204.195 C126.238,153.176 95,185.078 140.008,165.203 C139.922,202.281 133.547,225.457 147.945,228.934"/>
  <path fill="rgb(57.647059%, 27.843137%, 98.039216%)" opacity="0.965" d="M160.82,48.746 C165.086,30.879 147.062,46.324 145.668,64.285 C136.184,49.105 97.828,56.418 113.148,17.98 C154.699,51.605 141.91,40.816 79,6.137 C115.602,3.031 145.203,29.145 160.82,48.746"/>
  <path fill="rgb(25.882353%, 50.588235%, 42.352941%)" opacity="0.198" d="M136.703,78.992 C133.324,73.348 112.066,68.84 101.762,117.68 C111,121.16 111.801,137.441 104.926,143.762 C93.742,132.273 82.582,169.844 135.457,153.469 C139.934,136.184 131.328,94.941 136.703,78.992"/>
  <path fill="rgb(35.294118%, 40.392157%, 30.196078%)" opacity="0.137" d="M186.051,214.027 C178.266,201.301 209.578,198.496 227.828,211.953 C178.965,202.543 170.98,215.68 144.605,239.496 C198.688,227.223 194.445,207.414 187.777,212.594 C133.484,188.875 162.512,223.984 186.051,214.027"/>
  <path fill="rgb(49.411765%, 47.058824%, 39.215686%)" opacity="0.084" d="M257.426,297.43 C256.488,321.664 255.371,352.824 244.059,333 C214.484,321.168 226.672,326.168 228.078,306.016 C222.051,324.574 229.43,327.676 204.027,284.254 C217,249.328 241.672,269.883 257.426,297.43"/>
  <path fill="rgb(52.941176%, 21.176471%, 89.019608%)" opacity="0.478" d="M420.836,280.309 C392.824,321.52 313.883,327.555 320.25,289.773 C329.348,269.969 325.707,279.855 323.113,260.531 C295.773,257.266 315.875,249.023 348.801,243.637 C372.246,219.52 406.934,208.477 420.836,280.309"/>
</svg>

