<svg xmlns="http://www.w3.org/2000/svg" width="384" height="384" viewBox="0 0 384 384">
  <defs/>
  <path fill="rgb(73.72549%, 0%, 0%)" d="M409.445,250.129 C390.137,280.918 388.031,264.66 385.254,253.934 C390.797,259.016 383.48,263.973 373.598,246.871 C385.793,232.48 385.695,230.699 369.777,235.184 C394.996,228.23 415.629,230.062 409.445,250.129"/>
  <path fill="rgb(18.431373%, 55.294118%, 95.686275%)" opacity="0.763" d="M275.723,100.246 C251.707,123.75 247.047,126.227 232.309,96.125 C213.348,104.211 212.914,93.742 202.008,62.059 C195.371,45.715 183.449,74.797 182.004,122 C236.988,123.18 284.371,116.449 275.723,100.246"/>
  <path fill="rgb(12.54902%, 63.921569%, 0%)" d="M153.035,343.074 C141.93,407.625 79.535,411.711 41.312,428.281 C-12.379,393.066 -21.02,386.414 -22.711,309.445 C-2.863,296.266 18.988,307.383 52.926,308.844 C32.992,305.27 57.645,299.258 153.035,343.074"/>
  <path fill="rgb(27.843137%, 36.078431%, 98.823529%)" opacity="0.778" d="M210.477,86.43 C213.992,45.926 225.016,46.879 225.863,83.973 C182.281,85.613 199.156,53.988 177.547,57.082 C140.715,47.059 175.02,25.203 177.668,65.766 C197.234,72.289 205.008,68.641 210.477,86.43"/>
  <path fill="rgb(1.176471%, 38.823529%, 99.607843%)" opacity="0.991" d="M12.957,6.984 C18.824,53.621 29.133,45.977 5.844,47.84 C-21.848,28.902 -20.43,19.984 -14.973,10.605 C-6.605,-1.281 -1.922,-5.965 20.375,-32.234 C11.402,-34.742 17.363,-38.914 12.957,6.984"/>
  <path fill="rgb(100%, 100%, 52.156863%)" opacity="0.465" d="M427.965,317.609 C340.883,342.414 286.43,340.652 237.043,321.668 C243.742,274.445 265.551,293.277 296.676,315.539 C304.598,297.371 289.254,306.281 277.492,266.664 C338.309,230.68 381.188,229.254 427.965,317.609"/>
  <path fill="rgb(63.921569%, 36.470588%, 10.588235%)" opacity="0.486" d="M270.938,309.023 C266.785,326.859 237.953,322.16 224.504,320.043 C226.438,303.918 204.574,300.07 198.391,298.973 C161.422,306.555 174.625,270.562 180.871,268.633 C220.832,291.23 239.066,296.938 270.938,309.023"/>
  <path fill="rgb(96.078431%, 100%, 49.803922%)" opacity="0.034" d="M314.508,357.996 C321.375,391.977 316.754,404.531 295.465,444.938 C237.309,431.5 235.977,425.25 278.551,407.465 C292.184,363.02 295.062,342.848 296.695,347.027 C275.328,351.871 267.301,352.113 314.508,357.996"/>
  <path fill="rgb(16.470588%, 49.411765%, 11.372549%)" opacity="0.887" d="M404.926,313.988 C435.836,336.449 439.41,321.07 328.352,344.105 C140.023,375.355 121.625,332.527 204.734,169.035 C299.809,113.016 279.613,122.895 348.551,-20.492 C416.504,2.098 404.711,28.484 404.926,313.988"/>
  <path fill="rgb(1.176471%, 45.882353%, 94.509804%)" opacity="0.998" d="M486.766,90.707 C454.715,154.41 411.207,123.281 333.418,180.641 C189.031,212.238 240.785,178.48 212.727,19.598 C200.453,-91.395 222.355,-65.449 248.316,-45.027 C323.367,-32.758 347.887,-48.914 486.766,90.707"/>
  <path fill="rgb(29.411765%, 71.372549%, 0%)" opacity="0.722" d="M145.527,225.438 C167.523,385.305 247.984,346.438 102.992,401.504 C6.617,308.871 -27.051,365.902 -134.215,338.371 C-2.633,198.316 -20.078,171.27 54.672,101.293 C140.211,86.184 151.027,77.234 145.527,225.438"/>
  <path fill="rgb(1.960784%, 32.941176%, 76.862745%)" opacity="0.97" d="M158.906,-39.91 C168.199,79.605 164.668,104.055 159.785,143.18 C42.184,87.094 56.625,50.039 24.133,15.477 C45.328,-13.719 27.266,-30.918 72.898,-30.871 C113.398,-18.684 136.496,-31.082 158.906,-39.91"/>
  <path fill="rgb(46.666667%, 75.686275%, 22.745098%)" opacity="0.947" d="M173.898,261.973 C231.25,277.043 328.656,343.992 278.348,352.988 C181.52,363.609 160.707,408.57 106.59,334 C171.418,193.867 126.492,161.18 202.449,228.48 C216.645,132.742 154.336,156.688 173.898,261.973"/>
  <path fill="rgb(2.352941%, 40.392157%, 83.529412%)" d="M79.949,54.578 C83.594,151.488 120.219,215.535 25.887,230.289 C-42.234,206.078 -90.078,230.895 -51.168,52.781 C-14.082,-32.699 39.543,66.633 34.754,-12.695 C151.367,-39.102 97.613,12.656 79.949,54.578"/>
  <path fill="rgb(100%, 67.058824%, 10.588235%)" d="M63.398,199.656 C61.812,338.801 106.523,385.293 34.832,336.734 C30.043,172.977 21.102,202.59 5.762,201.105 C46.973,185.344 27.156,197.77 24.031,119.055 C69.32,117.934 29.215,160.117 63.398,199.656"/>
  <path fill="rgb(0%, 56.078431%, 85.490196%)" d="M147.02,75.77 C116.172,127.195 115.555,160.043 145.898,250.105 C-3.117,222.812 17.867,212.504 59.344,142.75 C61.484,104.969 36.883,78.082 69.898,92.285 C114.648,26.594 126.352,59.5 147.02,75.77"/>
  <path fill="rgb(22.745098%, 70.980392%, 12.941176%)" opacity="0.835" d="M119.25,33.258 C168.301,63.238 165.258,69.219 125.504,73.195 C128.719,55.113 133.543,60.656 92.824,34.039 C75.668,-11.727 96.945,-22.734 82.316,25.695 C107.277,-8.922 127.148,-57.832 119.25,33.258"/>
  <path fill="rgb(100%, 76.470588%, 10.980392%)" opacity="0.989" d="M46.48,37.77 C27.078,94.652 74.391,135.016 59.934,244.898 C-13.09,189.797 34.566,95.012 2.875,38.914 C20.59,27.469 -6.379,3.551 8.648,-125.441 C47.941,-20.57 30.031,25.074 46.48,37.77"/>
  <path fill="rgb(29.019608%, 81.568627%, 0%)" opacity="0.924" d="M401.703,411.289 C280.445,385.922 313.406,360.598 347.133,364.434 C295.836,392.184 332.773,349.887 316.371,369.109 C323.059,368.914 328.359,350.234 436.512,308.266 C436.012,244.137 437.062,383.277 401.703,411.289"/>
  <path fill="rgb(0%, 49.411765%, 96.470588%)" opacity="0.983" d="M231.895,103.34 C255.992,138.066 258.625,147.891 224.898,137.059 C201,101.891 214.457,95.512 152.996,35.305 C119.469,-2.121 97.766,-25.082 213.496,-57.129 C231.32,-41.91 220.891,8.438 231.895,103.34"/>
  <path fill="rgb(0.784314%, 55.686275%, 87.843137%)" opacity="0.976" d="M328.305,82.039 C358.559,236.031 376.586,282.852 168.176,260.559 C96.211,233.516 89.508,237.848 157.445,123.035 C162.09,79.586 122.836,74.668 110.133,3.434 C225.855,53.445 198.164,69.43 328.305,82.039"/>
  <path fill="rgb(69.019608%, 30.196078%, 0%)" opacity="0.876" d="M376.039,124.695 C374.633,178.902 341.586,162.078 331.859,228.793 C337.832,199.57 351.523,143.453 340.215,129.125 C354.238,98.676 329.004,46.031 318.918,21.277 C378.27,45.293 360.305,78.453 376.039,124.695"/>
  <path fill="rgb(10.196078%, 76.078431%, 21.176471%)" opacity="0.78" d="M86.477,57.891 C103.562,55.605 105.961,22.711 111.629,83.039 C88.824,23.465 57.547,13.184 93.469,21.195 C121.195,67 106.77,46.348 145.324,-9.098 C148.488,11.086 103.008,12.887 86.477,57.891"/>
  <path fill="rgb(9.411765%, 62.352941%, 42.745098%)" opacity="0.023" d="M81.633,49.281 C121.77,19.406 124.895,31.695 83.766,75.816 C29.078,56.48 -4.727,49.797 53.625,54.105 C78.844,75.695 98.855,75.355 61.883,75.805 C82.27,46.809 98.176,28.246 81.633,49.281"/>
  <path fill="rgb(6.666667%, 50.588235%, 87.45098%)" opacity="0.03" d="M241.492,154.773 C237.766,213.379 250.734,212.418 223.742,276.668 C192.305,204.18 218.902,146.504 182.066,152.387 C184.965,127.062 170,96.098 225.379,63.738 C227.168,138.73 254.738,94.688 241.492,154.773"/>
  <path fill="rgb(100%, 74.117647%, 9.411765%)" d="M154.961,148.316 C137.504,176.516 144.688,208.559 122.844,356.34 C76.191,259.277 126.445,190.648 114.113,143.5 C140.262,93.629 114.363,76.91 141.887,27.438 C180.637,80.344 136.277,137.645 154.961,148.316"/>
  <path fill="rgb(17.254902%, 61.960784%, 85.098039%)" opacity="0.886" d="M62.496,150.082 C57.062,160.102 82.125,180.887 80.727,208.512 C57.652,207.438 51.039,161.254 51.602,118.289 C78.992,101.719 63.695,89.812 72.238,101.859 C82.484,144.32 83.539,128.633 62.496,150.082"/>
  <path fill="rgb(13.72549%, 12.941176%, 20%)" opacity="0.127" d="M110,200.574 C99.941,211.781 103.551,217.223 108.133,266.711 C85.809,273.105 95.09,253.898 103.301,233.039 C120.426,212.84 110.594,163.02 124.316,105.734 C108.949,200.43 109.277,190.676 110,200.574"/>
  <path fill="rgb(95.294118%, 48.627451%, 5.098039%)" opacity="0.961" d="M63.395,180.344 C68.684,164.02 75.023,143.934 64.059,265.699 C51.203,228.676 68.152,153.809 76.426,118.684 C72.805,110.633 60.121,105.523 83.453,-7.949 C82.25,125.238 60.133,106.695 63.395,180.344"/>
  <path fill="rgb(0.784314%, 81.176471%, 69.019608%)" opacity="0.115" d="M242.434,211.945 C209.016,221.547 235.586,260.898 279.539,302.812 C279.902,183.938 261.738,191.609 266.48,173.008 C234.254,170.094 241.898,168.117 235.191,146.484 C245.004,177 251.824,203.645 242.434,211.945"/>
  <path fill="rgb(100%, 74.509804%, 10.980392%)" opacity="0.994" d="M370.055,82.93 C360.41,104.789 378.707,112.766 378.027,194.605 C309.43,123 330.207,96.191 331.406,91.406 C343.586,75.184 297.672,7.109 321.941,-41.223 C370.328,30.316 347.742,66.75 370.055,82.93"/>
  <path fill="rgb(100%, 73.72549%, 11.764706%)" opacity="0.971" d="M103.398,222.035 C103.172,303.43 148.289,359.438 89.301,336.789 C112.949,200.621 131.539,182.312 136.203,191.539 C150.188,177.207 148.711,161.262 140.793,101.945 C158.668,172.953 126.414,150.781 103.398,222.035"/>
  <path fill="rgb(100%, 72.941176%, 9.803922%)" d="M396.191,207.285 C383.523,232.348 386.676,222.938 417.73,341.379 C370.121,362.906 395.531,329.684 367.539,238.027 C344.652,229.234 324.918,193.273 372.637,120.875 C387.418,165.824 388.535,195.246 396.191,207.285"/>
  <path fill="rgb(96.862745%, 77.254902%, 18.039216%)" opacity="0.202" d="M358.266,130.379 C368.934,137.328 359.918,174.812 314.609,192.359 C314.73,108.457 314.098,116.23 321.68,114.047 C337.91,113.859 336.551,128.844 313.5,123.551 C319.652,126.672 326.234,131.328 358.266,130.379"/>
  <path fill="rgb(0%, 56.078431%, 87.058824%)" opacity="0.995" d="M337.324,165.453 C323.914,143.082 369.254,169.254 368.113,241.152 C238.469,240.68 289.387,206.906 308.957,200.023 C328.336,125.359 288.996,93.52 327.984,90.316 C359.066,133.824 355.891,191.312 337.324,165.453"/>
  <path fill="rgb(7.45098%, 23.137255%, 60.784314%)" opacity="0.261" d="M-18.18,150 C-1.031,134.77 1.113,155.82 -7.344,144.754 C-14.598,138.355 -12.25,150.145 -18.996,152.457 C3.348,138.895 30.09,129.82 14.344,143.094 C3.418,131.422 2.734,119.078 -18.18,150"/>
  <path fill="rgb(83.921569%, 76.862745%, 0.784314%)" opacity="0.311" d="M363.672,137.008 C369.734,136.156 378.203,156.613 416.613,166.062 C371.012,161.234 362.195,170.41 359.32,168.156 C372.227,151.316 358.285,181.121 352.352,144.91 C401.043,138.449 376.18,171.379 363.672,137.008"/>
  <path fill="rgb(65.490196%, 35.686275%, 27.058824%)" opacity="0.074" d="M379.242,335.629 C381.84,351.324 349.816,347.168 371.367,342.594 C377.02,326.383 343.488,308.508 333.695,331.926 C377.152,344.973 371.496,343.691 396.852,348.777 C367.418,329.488 355.617,337.562 379.242,335.629"/>
  <path fill="rgb(100%, 8.627451%, 22.745098%)" opacity="0.197" d="M377.43,85.734 C357.496,83.328 346.547,106.414 339.891,145.066 C356.273,92.305 338.605,88.668 339.777,113.375 C337.879,101.609 382.016,78.516 350.762,93.18 C306.781,106.355 343.375,101.477 377.43,85.734"/>
  <path fill="rgb(0%, 49.019608%, 58.039216%)" opacity="0.061" d="M249.047,152.176 C261.355,151.895 257.254,142.129 300.875,146.027 C307.387,135.129 250.258,126.914 260.668,163.887 C288.129,169.867 265.719,137.785 269.336,131.938 C202.27,132.184 241.543,137.875 249.047,152.176"/>
  <path fill="rgb(0%, 62.352941%, 40.784314%)" opacity="0.072" d="M354.441,58.457 C361.258,7.168 408.273,47.574 390.688,110.875 C383.102,24.758 399.371,4.141 349.945,21.906 C376.047,61.875 372.609,60.328 370.324,-1.164 C402.047,39.445 361.863,87.973 354.441,58.457"/>
  <path fill="rgb(98.039216%, 70.980392%, 10.196078%)" opacity="0.994" d="M153.758,115.195 C153.684,93.211 155.078,113.719 123.355,102.363 C162.184,93.941 174.773,63.723 154.73,61.191 C144.078,102.68 121.684,59.438 152.922,-78.152 C193.52,-17.043 153.477,35.176 153.758,115.195"/>
  <path fill="rgb(100%, 31.764706%, 0%)" opacity="0.393" d="M32.082,179.527 C17.875,207.012 7.5,202.754 16.023,198.637 C-7.367,201.285 0.062,186.031 -21.195,198.051 C22.289,203.039 54.113,184.16 71.113,210.199 C55.285,219.547 11.172,203.957 32.082,179.527"/>
  <path fill="rgb(100%, 69.803922%, 13.333333%)" d="M14.656,111.414 C21.859,125.168 38.113,97.961 54.582,109.309 C26.02,152.648 12.164,124.66 9.266,117.137 C7.301,124.504 4.582,114.285 29.219,119.156 C7.016,121.246 2.066,128.145 14.656,111.414"/>
  <path fill="rgb(76.470588%, 11.372549%, 39.607843%)" opacity="0.171" d="M432.02,169.074 C408.008,190.637 409.895,185.391 365.762,172.078 C371.695,169.941 368.852,153.855 378.117,149.836 C358.414,160.281 371.523,175.129 376.129,160.254 C386.234,148.703 416.121,150.879 432.02,169.074"/>
  <path fill="rgb(99.607843%, 76.078431%, 13.72549%)" opacity="0.806" d="M352.332,10.324 C343.148,60.762 346.57,9.293 325.75,35.723 C367.793,27.465 341.633,11.574 330.324,37.535 C329.082,80.734 320.379,53.109 336.844,-14.152 C337.465,-13.43 328,9.391 352.332,10.324"/>
  <path fill="rgb(0%, 57.254902%, 89.803922%)" opacity="0.907" d="M16.465,204.547 C19.012,233.176 27.117,227.871 -14.352,228.438 C-4.117,150.918 -4.727,151.379 -29.98,126.656 C-40.363,109.816 -48.207,103.82 9.789,117.297 C22.371,136.789 32.895,194.562 16.465,204.547"/>
  <path fill="rgb(100%, 100%, 98.823529%)" d="M278.562,69.625 C286.543,47.145 253.863,64.059 329.484,57.547 C326.824,42.762 302.043,37.281 278.66,23.348 C118.766,82.535 236.637,90.449 290.586,70.652 C309.293,80.281 282.383,82.957 278.562,69.625"/>
  <path fill="rgb(3.921569%, 49.019608%, 97.254902%)" opacity="0.948" d="M135.328,7.102 C135.152,43.09 136.969,42.371 98.965,39.066 C64.102,62.621 90.223,18.652 89.273,5.109 C126.156,18.402 147.703,49.164 107.832,3.078 C56.902,10.098 109.191,6.27 135.328,7.102"/>
  <path fill="rgb(93.333333%, 79.607843%, 6.27451%)" opacity="0.754" d="M386.113,160.367 C384.312,133.676 338.039,167.945 370.637,164.535 C356.098,158.059 338.008,181.004 352.266,162.215 C341.371,102.344 354.348,124.977 356.875,155.227 C348.805,154.754 339.137,156.117 386.113,160.367"/>
  <path fill="rgb(0%, 50.588235%, 99.215686%)" opacity="0.954" d="M249.051,45.363 C233.727,28.195 220.57,57.281 221.07,56.203 C218.828,1.648 217.832,4.543 272.434,11.219 C243.797,41.102 252.629,36.672 244.594,40.32 C250.973,47.824 244.305,38.074 249.051,45.363"/>
</svg>

