<svg xmlns="http://www.w3.org/2000/svg" width="384" height="384" viewBox="0 0 384 384">
  <defs/>
  <path fill="rgb(67.058824%, 29.803922%, 17.647059%)" opacity="0.807" d="M265.051,320.062 C289.309,334.227 286.207,333.809 200.234,324.195 C158.824,339.969 159.523,343.23 164.512,278.707 C164.613,224.262 183.086,238.09 265.988,235.219 C277.707,258.254 271.566,283.613 265.051,320.062"/>
  <path fill="rgb(61.176471%, 43.529412%, 20%)" opacity="0.707" d="M308.98,181.07 C284.551,243.902 287.262,250.207 236.875,236.496 C215.621,236.379 224.977,215.574 244.004,213.125 C239.078,181.789 227.969,150.43 265.082,76.539 C340.574,111.93 324.258,120.496 308.98,181.07"/>
  <path fill="rgb(0%, 39.607843%, 18.823529%)" opacity="0.988" d="M263.332,331.402 C256.531,404.215 274.641,376.137 198.312,366.191 C200.723,316.18 161.055,331.809 133.492,331.387 C161.363,273.004 145.227,254.086 197.176,268.73 C177.746,348.285 139.18,326.766 263.332,331.402"/>
  <path fill="rgb(1.568627%, 63.529412%, 35.686275%)" opacity="0.985" d="M123.137,244.969 C166.117,264.793 114.074,317.676 81.02,284.633 C56.555,306.715 30.816,280.527 52.754,266.91 C68,211.379 106.645,176.539 125.441,222.461 C122.75,250.02 97.398,245.191 123.137,244.969"/>
  <path fill="rgb(81.568627%, 87.45098%, 96.862745%)" opacity="0.017" d="M149.25,208.633 C160.859,232.594 131.688,220.613 113.863,197.34 C99.309,198.949 146.938,204.312 69.977,193.723 C-2.203,98.301 -3.516,101.012 152.73,107.5 C207.043,109.316 167.215,129.059 149.25,208.633"/>
  <path fill="rgb(64.313725%, 58.823529%, 34.509804%)" opacity="0.531" d="M247.969,155.613 C260.055,220.133 271.074,185.375 197.043,199.488 C173.914,152.629 175.312,152.547 225.453,165.105 C235.098,155.984 226.039,143.121 242.371,130.824 C241.859,140.535 215.516,148.746 247.969,155.613"/>
  <path fill="rgb(86.666667%, 100%, 100%)" opacity="0.023" d="M424.043,42.156 C378.891,85.641 345.297,79.785 327.547,57.602 C306.043,98.34 293.676,79.281 305.363,44.652 C321.551,57.422 329.246,41.422 316.52,-3.938 C361.051,-22.094 385.629,-14.883 424.043,42.156"/>
  <path fill="rgb(65.490196%, 98.039216%, 73.72549%)" opacity="0.009" d="M234.344,129.938 C253.672,44.16 196.121,46.633 194.109,78.617 C212.09,125.812 186.797,135.918 156.188,117.25 C163.973,97.508 140.066,83.695 165.113,90.59 C186.359,102.844 190.055,108.602 234.344,129.938"/>
  <path fill="rgb(61.568627%, 47.843137%, 34.901961%)" opacity="0.952" d="M414.734,344.039 C382.254,380.062 334.695,345.074 311.348,355.242 C347.137,450.965 213.586,421.258 253.535,341.844 C261.445,176.953 260.094,156.25 312.316,258.684 C413.531,277.625 432.375,236.543 414.734,344.039"/>
  <path fill="rgb(70.196078%, 54.117647%, 39.607843%)" opacity="0.808" d="M270.992,203.336 C245.008,247.895 284.566,183.766 265.305,270.332 C201.707,248.523 167.629,282.938 194.602,220.859 C174.711,142.09 193.219,181.898 235.977,183.836 C264.773,227.438 312.777,183.199 270.992,203.336"/>
  <path fill="rgb(18.823529%, 5.098039%, 0%)" d="M105.207,345.844 C121.156,347.496 115.375,376.293 114.402,408.855 C138.953,369.414 132.375,345.531 110.602,371.57 C99.105,362.785 109.691,320.602 84.504,332.316 C95.566,381.109 118.508,363.91 105.207,345.844"/>
  <path fill="rgb(43.921569%, 86.27451%, 0%)" opacity="0.848" d="M175.934,331.238 C172.879,345.57 170.312,353.133 177.488,401.039 C190.301,345.754 189.789,346.07 152.809,380.391 C168.227,373.797 63.133,431.281 85.797,360.68 C233.426,300.234 195.992,327.438 175.934,331.238"/>
  <path fill="rgb(60.784314%, 47.058824%, 33.72549%)" opacity="0.992" d="M374.68,189.355 C373.414,216.648 375.676,315.711 389.062,315.926 C273.668,327.371 319.379,299.188 302.617,229.988 C263.234,128.289 237.027,44.941 314.621,21.863 C349.93,177.621 344.926,128.129 374.68,189.355"/>
  <path fill="rgb(0%, 44.313725%, 20.392157%)" opacity="0.962" d="M392.074,153.566 C544.164,308.332 443.504,365.082 378.062,359.633 C349.586,323.496 396.328,336.172 398.219,292.191 C373.785,292.684 392.199,285.25 378.164,269.52 C364.539,272.672 378.566,232.203 392.074,153.566"/>
  <path fill="rgb(39.215686%, 81.176471%, 7.45098%)" opacity="0.889" d="M266.055,362.164 C265.723,409.434 209.254,409.891 65.453,377.691 C162.098,355.004 152.766,370.023 116.828,345.457 C178.574,335 152.25,254.789 158.695,245.676 C138.355,402.953 166.242,323.184 266.055,362.164"/>
  <path fill="rgb(47.058824%, 77.254902%, 1.960784%)" opacity="0.955" d="M428.406,336.133 C424.086,399.871 385.23,385.988 306.098,391.539 C299.609,347.359 297.551,359.883 297.484,307.414 C358.914,301.512 362.184,316.723 371.109,310.617 C348.523,335.742 350.137,314.18 428.406,336.133"/>
  <path fill="rgb(55.294118%, 89.411765%, 71.372549%)" opacity="0.421" d="M189.57,220.301 C203.09,171.73 204.324,185.879 198.059,250.703 C219.266,237.531 161.27,225.32 163.816,231.023 C189.539,227.668 185.086,213.707 192.441,191.281 C200.879,181.211 199.023,195.418 189.57,220.301"/>
  <path fill="rgb(66.666667%, 14.901961%, 0%)" opacity="0.925" d="M74.848,272.945 C77.062,385.266 109.062,418.477 98.141,261.582 C74.758,366.273 62.891,284.391 70.246,288.59 C64.66,285.695 46.859,283.938 93.48,294.848 C96.816,327.211 83.613,339.469 74.848,272.945"/>
  <path fill="rgb(60%, 47.45098%, 36.470588%)" opacity="0.612" d="M321.078,145.891 C332.445,229.578 348.336,252.773 278.449,233.191 C284.402,132.141 247.871,145.207 335.527,145.75 C380.109,163.961 374.754,164.957 349.902,206.227 C271.996,184.492 261.883,158.793 321.078,145.891"/>
  <path fill="rgb(6.27451%, 62.745098%, 26.666667%)" opacity="0.903" d="M203.141,156.645 C219.656,248.465 226.328,323.941 156.566,292.68 C126.41,306.469 147.574,324.41 158.492,259.875 C171.727,239.398 144.23,289.773 166.539,249.75 C203.398,119.691 190.789,58.133 203.141,156.645"/>
  <path fill="rgb(3.529412%, 80.392157%, 0%)" opacity="0.588" d="M414.59,289.641 C383.855,296.281 383.016,309.215 416.066,326.656 C397.543,328.086 391.867,344.234 372.859,341.031 C373.457,295.559 362.125,321.848 371.234,337.195 C373.09,303.738 382.668,292.801 414.59,289.641"/>
  <path fill="rgb(13.72549%, 6.27451%, 1.960784%)" opacity="0.942" d="M306.98,246.078 C304.48,277.781 322.879,254.586 277.836,263.461 C276.32,278.859 279.156,260.414 278.262,225.387 C284.148,247.129 275.445,260.676 279.648,194.902 C316.434,179.098 306.531,207.867 306.98,246.078"/>
  <path fill="rgb(34.509804%, 41.960784%, 0%)" opacity="0.51" d="M176.633,354.055 C63.133,359.449 68.629,341.934 87.926,390.93 C68.07,394.418 30.617,398.402 51.254,391.781 C72.852,370.711 88.066,357.328 144.805,355.656 C130.195,327.793 152.086,303.59 176.633,354.055"/>
  <path fill="rgb(63.137255%, 25.490196%, 1.960784%)" opacity="0.048" d="M331.207,321.105 C342.473,290.48 329.234,299.277 300.953,302.137 C267.23,329.832 278.422,347.191 351.535,332.996 C321.418,304.734 291.504,313.094 301.621,335.328 C322.594,316.859 335.801,306.461 331.207,321.105"/>
  <path fill="rgb(0.392157%, 49.411765%, 36.078431%)" opacity="0.409" d="M132.086,288.148 C215.824,273.875 215.941,309.285 167.918,330.039 C157.684,313.797 144.684,331.945 118.398,353.75 C140.676,324.52 151.105,314.762 147.551,285.004 C121.641,290.379 109.906,286.707 132.086,288.148"/>
  <path fill="rgb(49.803922%, 83.529412%, 1.568627%)" opacity="0.885" d="M246.613,353.691 C248.297,387.32 295.168,414.535 289.402,308.203 C136.961,303.84 166.133,309.535 181.199,370.23 C242.305,376.973 236.645,370.082 247.027,339.238 C247.199,351.559 210.254,321.109 246.613,353.691"/>
  <path fill="rgb(82.352941%, 79.607843%, 46.666667%)" opacity="0.108" d="M266.125,264.02 C258.988,223.32 260.488,214.453 254.172,227.113 C247.355,198.617 266.902,208.184 234.746,201.816 C220.418,205.59 224.453,222.734 220.879,230.91 C216.387,194.898 229.062,203.188 266.125,264.02"/>
  <path fill="rgb(13.333333%, 71.764706%, 1.176471%)" opacity="0.409" d="M325.195,339.934 C320.883,372.164 329.926,351.254 373.617,347.094 C305.422,351.938 323.555,339.387 404.598,312.578 C378.23,306.875 304.527,317.863 299.168,327.055 C359.051,329.848 358.652,359.719 325.195,339.934"/>
</svg>

