<svg xmlns="http://www.w3.org/2000/svg" width="384" height="384" viewBox="0 0 384 384">
  <defs/>
  <path fill="rgb(47.843137%, 32.156863%, 18.039216%)" opacity="0.61" d="M359.594,366.395 C337.77,444.781 270.555,461.938 155.715,381.949 C110.016,332.914 111.93,290.016 160.086,292.688 C151.875,367.336 147.336,313.879 174.145,256.254 C324.078,222.699 349.645,234.816 359.594,366.395"/>
  <path fill="rgb(27.058824%, 54.117647%, 14.901961%)" opacity="0.967" d="M438.824,147.262 C468.656,181.305 473.004,196.258 393.914,179 C345.391,179.98 363.168,178.555 423.914,165.633 C398.805,97.453 380.938,102.043 393.727,120.949 C399.152,109.184 410.848,112.23 438.824,147.262"/>
  <path fill="rgb(53.333333%, 55.686275%, 40.392157%)" opacity="0.517" d="M404.199,238.887 C380.984,289.641 391.242,284.02 349.691,310.922 C327.781,332.555 346.258,342.945 344.328,280.012 C328.617,274.543 324.242,260.633 400.02,227.344 C417.434,197.809 417.719,192.109 404.199,238.887"/>
  <path fill="rgb(31.372549%, 59.607843%, 8.627451%)" opacity="0.841" d="M177.797,162.91 C199.031,258.59 191.961,266.723 126.789,215.621 C99.562,175.008 95.688,157.145 54.434,93.707 C27.086,-22.781 50.883,33.746 107.449,80.953 C105.176,114.172 114.602,111.5 177.797,162.91"/>
  <path fill="rgb(57.647059%, 48.235294%, 47.843137%)" opacity="0.908" d="M214.984,148.078 C188.438,205.828 166.453,200.062 158.793,159.316 C116.426,160.52 105.215,137.727 106.918,118.809 C98.539,108.566 102.523,61.469 147.391,44.793 C188.938,55.262 172.02,72.273 214.984,148.078"/>
  <path fill="rgb(85.490196%, 79.607843%, 97.254902%)" opacity="0.053" d="M149.332,234.109 C161.996,326.723 104.762,336.574 40.805,347.582 C50.887,290.551 51.859,289.047 55.91,279.5 C68.871,294.547 66.512,291.93 41.105,282.457 C76.977,253.383 109.402,226.582 149.332,234.109"/>
  <path fill="rgb(83.921569%, 69.019608%, 29.803922%)" opacity="0.616" d="M3.078,-15.25 C-1.223,1.121 -7.188,4.223 -9.672,13.434 C-10.602,23.031 -16.613,19.316 -18.582,13.129 C-10.445,0 -5.762,-4.684 8.516,-13.977 C17.332,-11.629 23.875,-9.84 3.078,-15.25"/>
  <path fill="rgb(5.490196%, 54.509804%, 80.784314%)" opacity="0.911" d="M265.027,191.695 C250.711,218.18 257.883,193.281 256.738,204.91 C220.621,199.957 218.918,162.93 237.492,134.297 C258.949,164.973 263.492,167.961 257.883,125.207 C262.113,161.84 254.449,167.773 265.027,191.695"/>
  <path fill="rgb(42.352941%, 56.862745%, 17.254902%)" opacity="0.653" d="M366.059,165.16 C296.328,258.41 277.988,225.734 265.012,248.664 C241.789,217.07 204.543,218.043 178.883,196.723 C208.223,179.727 244.242,184.453 312.473,223.191 C343.977,172.156 416.496,150.863 366.059,165.16"/>
  <path fill="rgb(31.764706%, 99.607843%, 63.529412%)" opacity="0.386" d="M235.738,123.508 C232.051,146.895 229.379,97.438 228.746,78.98 C243.504,72.629 274.902,83.117 249.211,95.52 C239.984,63.496 231.527,78.051 256.43,88.543 C242.266,80.742 242.617,88.078 235.738,123.508"/>
  <path fill="rgb(46.27451%, 65.098039%, 0%)" opacity="0.384" d="M163.848,253.5 C186.258,264.613 200.727,279.84 183.469,237.203 C157.75,221.469 173.141,189.676 166.883,215.617 C177.672,201.555 157.746,218.453 152.75,196.305 C157.871,223.41 146.734,260.039 163.848,253.5"/>
  <path fill="rgb(0%, 2.745098%, 15.294118%)" opacity="0.991" d="M265.055,150.609 C260.496,211.25 257.637,201.543 206.832,206.379 C210.473,228.91 206.688,230.57 225.879,149.66 C229.441,121.355 226.602,125.906 221.422,154.082 C231.312,146.734 254.848,147.094 265.055,150.609"/>
  <path fill="rgb(56.862745%, 54.509804%, 40%)" opacity="0.974" d="M236.258,282.82 C261.766,305.562 225.199,332.098 170.934,306.684 C126.098,297.312 136.051,268.164 139.117,249.93 C159.148,240.285 166.332,231.73 200.969,161 C220.059,117.129 222.125,171.484 236.258,282.82"/>
  <path fill="rgb(64.705882%, 53.333333%, 37.647059%)" opacity="0.917" d="M309.484,118.238 C256.609,123.984 247.566,112.008 279.41,143.172 C262.914,158.516 210.398,140.633 173.262,99.484 C153.105,56.484 201.668,77.867 265.066,68.582 C307.344,55.316 304.945,37.82 309.484,118.238"/>
  <path fill="rgb(38.823529%, 38.039216%, 47.058824%)" opacity="0.999" d="M379.945,80.555 C387.031,176.18 304.621,148.914 285.773,132.059 C327.781,81.539 312.57,68.926 276.488,53.934 C234.984,55.344 263.105,83.023 289.719,70.738 C302.156,25.207 346.73,14.508 379.945,80.555"/>
  <path fill="rgb(82.745098%, 48.235294%, 55.686275%)" opacity="0.912" d="M269.445,125.609 C272.703,178.188 258.453,214.891 213.07,219.559 C185.023,205.719 210.211,213.859 259.711,197.117 C263.082,165.562 249.23,167.27 273.926,168.328 C249.211,127.336 237.977,126.383 269.445,125.609"/>
  <path fill="rgb(72.941176%, 49.019608%, 50.980392%)" opacity="0.959" d="M251.656,246.836 C300.535,209.676 250.441,199.086 214.863,261.777 C193.145,241.117 202.941,221.934 160.633,187.348 C228.352,164.477 218.316,195.258 238.047,200.961 C250.625,199.332 227.789,181.695 251.656,246.836"/>
  <path fill="rgb(67.843137%, 54.901961%, 44.313725%)" opacity="0.989" d="M316.145,185.789 C275.289,215.285 275.941,235.949 235.891,223.543 C257.578,201.875 262.473,192.129 254.652,149.234 C265.359,163.129 226.375,147.367 266.309,80.227 C343.613,34.363 349.887,101.273 316.145,185.789"/>
  <path fill="rgb(37.647059%, 39.215686%, 37.647059%)" opacity="0.844" d="M136.445,103.828 C159.902,166.055 159.777,158.84 133.969,143.031 C105.242,132.645 116.84,151.398 103.363,136.934 C83.559,85.746 108.199,105.754 101.207,72.898 C143.734,59.375 161.965,64.668 136.445,103.828"/>
  <path fill="rgb(65.882353%, 65.882353%, 4.313725%)" opacity="0.314" d="M218.43,275.547 C210.906,225.254 209.523,247.133 234.562,270.848 C227.961,215.711 211.883,215.004 228.383,202.859 C214.426,194.453 192.48,189.305 219.891,178.531 C239.262,218.609 234.848,244.195 218.43,275.547"/>
  <path fill="rgb(61.176471%, 51.372549%, 45.490196%)" d="M284.68,202.828 C300.449,225.375 338.812,266.527 269.668,274.695 C244.234,189.242 272.543,196.887 263.789,229.133 C261.398,198 243.973,221.801 264.984,205.301 C259.703,196.395 263.523,207.387 284.68,202.828"/>
  <path fill="rgb(68.235294%, 55.294118%, 43.529412%)" opacity="0.968" d="M309.613,105.355 C204.098,99.855 225.469,106.797 256.379,146.902 C198.48,143.879 156.184,153.371 142.449,100.91 C186.312,66.723 201.379,56.043 235.641,46.402 C282.414,52.988 297.172,48.141 309.613,105.355"/>
  <path fill="rgb(50.588235%, 51.764706%, 35.294118%)" opacity="0.135" d="M191,396.73 C127.734,401.273 153.566,365.887 180.227,379.543 C165.121,339.129 182.75,343.379 195.938,369.547 C195.121,329.551 187.578,309.992 163.574,284.867 C175.922,300.676 152.883,339.324 191,396.73"/>
  <path fill="rgb(52.941176%, 23.921569%, 77.254902%)" opacity="0.117" d="M167.691,121.559 C171.363,137.848 157.82,128.34 160.324,106.516 C86.785,115.043 126.98,91.715 114.512,139.258 C109.863,65.172 109.277,55.141 130.156,107.797 C193.449,102.48 245.141,138.402 167.691,121.559"/>
  <path fill="rgb(76.470588%, 60.392157%, 46.666667%)" opacity="0.591" d="M188.98,91.785 C205,79.848 223.438,52.074 222.969,167.352 C150.238,124.305 119.098,111.699 139.602,120.637 C170.547,102.23 160.164,87.625 169.895,80.906 C205.449,56.988 192.566,44.16 188.98,91.785"/>
  <path fill="rgb(39.607843%, 90.196078%, 0.784314%)" opacity="0.413" d="M173.508,212.867 C182.008,236.961 172.391,233.293 167.883,222.578 C170.723,208.242 164.902,227.285 213.141,212.727 C166.777,196.461 152.102,218.402 167.445,257.25 C183.246,240.219 158.668,216.605 173.508,212.867"/>
  <path fill="rgb(95.294118%, 100%, 97.647059%)" opacity="0.076" d="M400.883,324.594 C384.75,331.582 372.633,341.859 394.781,342.844 C385.336,310.727 350.594,294.723 342.566,327.039 C379.426,331.836 379.961,323.918 367.082,336.137 C369.73,325.309 342.445,323.301 400.883,324.594"/>
  <path fill="rgb(65.098039%, 55.686275%, 44.705882%)" d="M309.441,213.516 C257.887,258.484 237.531,252.625 204.395,261.566 C186.277,253.207 199.785,239.121 215.07,213.688 C234.645,225.039 235.031,225.211 246.266,212.664 C284.922,220.73 293.164,175.184 309.441,213.516"/>
  <path fill="rgb(70.588235%, 37.254902%, 46.27451%)" opacity="0.043" d="M221.68,228.434 C239.609,231.043 223.094,231.883 229.32,228.531 C221.551,215.934 224.5,202.488 229.34,196.316 C203.129,177.652 218.082,189.918 230.031,188.582 C217.344,218.523 223.863,224.047 221.68,228.434"/>
  <path fill="rgb(67.058824%, 55.294118%, 44.705882%)" opacity="0.767" d="M285.469,218.277 C293.281,270.141 264.203,297.809 223.43,277.594 C189.555,243.957 166.449,196.691 224.793,194.598 C166.648,172.641 165.371,201.777 260.062,202.137 C272.414,219.531 255.445,233.836 285.469,218.277"/>
  <path fill="rgb(27.058824%, 50.980392%, 50.980392%)" opacity="0.012" d="M423.625,105.973 C388.289,120.887 362.07,119.793 374.156,109.781 C362.23,110.926 344.008,94.465 325.875,158.125 C381.648,116.406 382.418,114.637 413.344,115.324 C375.93,93.645 395.102,86.387 423.625,105.973"/>
  <path fill="rgb(57.647059%, 48.235294%, 40.392157%)" opacity="0.994" d="M315.172,220.578 C308.727,213.246 312.848,213.879 285.957,217.371 C298.164,296.031 353.152,307.676 329.926,246.062 C307.832,197.496 289.945,241.031 308.781,250.066 C337.773,193.227 330.762,191.398 315.172,220.578"/>
  <path fill="rgb(56.078431%, 78.039216%, 65.098039%)" opacity="0.476" d="M404.832,53.906 C394.465,54.418 388.84,57.613 378.91,71.324 C404.512,36.285 436.52,33.027 390.504,-5.438 C355.254,-57.277 369.191,-71.055 444.801,-63.75 C404.602,26.926 406.199,43.062 404.832,53.906"/>
  <path fill="rgb(59.607843%, 60.784314%, 52.156863%)" opacity="0.257" d="M322.965,265.32 C325.109,317.852 340.191,314.68 278.184,385.047 C247.543,287.574 259.559,304.984 247.504,226.41 C235.875,264.258 252.602,305.887 217.223,280.43 C221.184,241.926 259.504,224.809 322.965,265.32"/>
  <path fill="rgb(28.627451%, 76.078431%, 65.098039%)" opacity="0.12" d="M265.234,97.453 C259.875,42.738 255.766,57.625 254.648,57.961 C256.758,53.793 249.23,57.598 252.949,85.984 C255.891,54.746 278.09,44.074 264.598,71.438 C270.848,91.27 274.844,68.18 265.234,97.453"/>
  <path fill="rgb(84.313725%, 82.745098%, 82.352941%)" opacity="0.072" d="M273.848,208.859 C291.402,201.91 298.141,199.332 307.895,205.375 C278.699,209.684 262.652,201.633 282.223,227.5 C323.168,250.367 309.094,211.629 342.441,202.699 C295.707,216.391 275.133,213.738 273.848,208.859"/>
  <path fill="rgb(33.333333%, 43.921569%, 39.215686%)" opacity="0.539" d="M336.035,116.832 C333.742,145.586 316.023,154.184 351.555,154.941 C329.762,237.848 316.766,234.73 362.395,153.73 C334.664,68.402 339.586,91.105 355.219,82.191 C363.555,-1.383 364.988,47.223 336.035,116.832"/>
</svg>

