<svg xmlns="http://www.w3.org/2000/svg" width="384" height="384" viewBox="0 0 384 384">
  <defs/>
  <path fill="rgb(0%, 78.431373%, 23.921569%)" opacity="0.959" d="M126.348,233.73 C112.273,286.75 104.273,304.98 42.984,287.125 C11.637,270.719 18.891,246.973 45.457,205.066 C55.145,179.582 58.188,189.051 107.965,197.477 C131.223,217.789 153.105,224.141 126.348,233.73"/>
  <path fill="rgb(78.431373%, 0%, 0%)" d="M350.648,166.574 C333.922,175.273 304.035,171.051 273.281,178.562 C253.984,138.797 235.387,146.84 226.551,130.891 C243.953,136.613 259.301,126.508 324.141,126.996 C276.117,117.41 281.25,121.039 350.648,166.574"/>
  <path fill="rgb(2.352941%, 78.431373%, 25.490196%)" opacity="0.989" d="M435.465,100.879 C398.344,156.152 377.352,137.414 354.648,142.859 C279.234,124.676 282.582,104.281 249.746,27.062 C255.508,24.609 238.164,10.223 288.477,-15.645 C364.285,-22.012 386.242,-39.215 435.465,100.879"/>
  <path fill="rgb(3.137255%, 68.235294%, 11.764706%)" opacity="0.903" d="M208.473,373.238 C223.824,391.59 189.773,397.113 149.406,381.977 C133.457,351.41 144.316,329.727 135.684,313.645 C126.418,294.57 114.121,288.465 168.578,261.77 C198.977,249.766 197.98,241.535 208.473,373.238"/>
  <path fill="rgb(38.039216%, 50.588235%, 21.568627%)" opacity="0.175" d="M259.676,292.066 C255.773,340.117 219.461,333.379 154.355,314.953 C97.262,305.664 105.086,326.043 120.832,279.176 C121.805,231.695 123.676,237.113 135.758,225.211 C158.707,241.52 155.773,251.219 259.676,292.066"/>
  <path fill="rgb(18.431373%, 0%, 0%)" d="M167.188,222.32 C161.371,235.953 150.305,243.742 135.652,266.91 C166.07,267.215 151.648,273.652 121.789,264.367 C148.27,247.168 152.98,231.047 154.621,216.406 C156.035,237.359 169.426,241.734 167.188,222.32"/>
  <path fill="rgb(12.54902%, 90.588235%, 54.901961%)" opacity="0.502" d="M389.188,214.301 C364.223,268.91 352.816,269.352 335.355,310.684 C275.84,288.719 281.504,263.676 289.66,226.555 C307.363,226.758 332.336,231.617 367.164,216.453 C372.09,183.27 357.574,142.133 389.188,214.301"/>
  <path fill="rgb(5.882353%, 79.607843%, 32.156863%)" opacity="0.942" d="M183.004,377.227 C73.176,432.586 60.09,378.832 -22.457,384.504 C10.148,311.219 -0.211,297.906 2.578,299.023 C14.34,271.32 8.41,248.688 44.961,238.332 C166.086,229.363 205.047,275.629 183.004,377.227"/>
  <path fill="rgb(3.921569%, 76.470588%, 30.588235%)" opacity="0.917" d="M415.633,172.484 C407.648,316.801 382.551,282.98 328.066,310.504 C187.316,302.051 192.309,304.648 245.473,241.004 C245.172,110.895 114.902,78.988 246.316,12.355 C383.027,102.523 387.211,70.32 415.633,172.484"/>
  <path fill="rgb(100%, 26.666667%, 4.705882%)" opacity="0.949" d="M302.07,146.426 C271.562,185.988 274.684,228.465 218.961,276.207 C162.027,288.941 122.148,288.84 105.059,148.359 C199.867,91.805 226.812,150.023 261.5,115.059 C284.242,111.375 280.719,130.691 302.07,146.426"/>
  <path fill="rgb(0%, 87.45098%, 22.352941%)" opacity="0.147" d="M366.656,186.867 C389.238,246.789 364.891,262.855 326.348,272.621 C256.035,237.789 263.211,224.898 297.5,213.848 C328.988,206.344 326.281,200.555 317.336,172.445 C323.344,164.707 315.414,193.121 366.656,186.867"/>
  <path fill="rgb(2.352941%, 80.392157%, 32.54902%)" opacity="0.97" d="M343.512,301.789 C326.703,354.078 288.574,347.984 261.902,399.418 C171.328,410.078 173.602,413.887 130.559,294.488 C181.902,289.496 222.012,271.52 271.082,216.578 C340.555,253.043 357.812,264.977 343.512,301.789"/>
  <path fill="rgb(100%, 96.470588%, 0%)" d="M267.336,165.465 C275.508,207.027 228.148,170.848 228.652,153.543 C219.391,194.805 196.355,210.832 158.051,122.438 C266.113,119.691 218.059,143.789 213.992,164.207 C240.684,166.836 230.203,111.762 267.336,165.465"/>
  <path fill="rgb(0%, 0%, 3.137255%)" d="M175.984,221.844 C149.516,249.191 158.793,269.266 195.078,248.695 C102.867,226.848 198.27,231.031 97.922,214.918 C96.301,191.738 71.293,178.426 142.719,131.922 C220.746,109.473 197.359,141.316 175.984,221.844"/>
  <path fill="rgb(5.098039%, 79.607843%, 32.54902%)" opacity="0.97" d="M242.781,124.113 C241.008,142.328 158.945,164.445 180.582,143.918 C125.504,79.113 96.039,164.43 97.398,166.16 C161.762,137.246 170.543,134.414 194.758,103.391 C211.938,81.133 257.344,52.895 242.781,124.113"/>
  <path fill="rgb(0%, 85.490196%, 23.921569%)" opacity="0.996" d="M270.789,166.832 C266.918,184.738 265.242,192.102 255.805,267.363 C298.129,256.113 303.902,241.148 289.535,188.738 C269.562,181.414 244.086,156.039 257.117,103.109 C267.301,181.379 265.293,181.348 270.789,166.832"/>
  <path fill="rgb(72.156863%, 10.588235%, 1.176471%)" opacity="0.288" d="M219.84,224.602 C233.344,216.617 240.137,229.578 227.293,245.148 C190.715,209.988 208.715,185.859 209.781,188.035 C194.754,192.82 186.047,174.305 222.809,205.5 C260.242,190.074 260.641,202.289 219.84,224.602"/>
  <path fill="rgb(98.039216%, 10.588235%, 0%)" opacity="0.886" d="M219.555,231.688 C237.23,241.559 223.602,248.406 218.273,250.648 C183.234,282.746 106.441,288.262 120.703,202.32 C138.449,139.504 227.914,123.062 274.473,151.406 C254.18,234.906 236.281,242.16 219.555,231.688"/>
  <path fill="rgb(1.176471%, 77.254902%, 26.666667%)" opacity="0.579" d="M168.102,141.203 C192.422,120.531 187.535,116.297 168.191,80.363 C229.652,70.422 240.508,86.633 216.207,80.648 C198.648,138.652 182.816,142.902 174.449,119.16 C161.363,95.875 156.586,130.836 168.102,141.203"/>
  <path fill="rgb(0%, 0%, 0%)" opacity="0.999" d="M286.383,151.922 C299.422,167.582 282.766,198.543 264.699,187.242 C238.281,158.48 233.379,145.855 243.625,165.656 C243.035,155.594 211.734,137.941 219.332,126.742 C243.266,104.566 279.387,125.477 286.383,151.922"/>
  <path fill="rgb(4.313725%, 0.784314%, 0%)" opacity="0.044" d="M309.395,121.949 C272.289,143.848 268.461,142.84 278.578,155.539 C248.371,139.484 235.152,136.027 245.074,121.348 C246.43,103.777 238.711,92.027 244.195,104.215 C252.527,123.258 266.09,107.352 309.395,121.949"/>
  <path fill="rgb(98.431373%, 28.235294%, 5.098039%)" opacity="0.006" d="M164.414,150.684 C144.98,164.699 127.07,165.219 167.148,162.484 C149.02,178.16 149.211,166.312 167.238,182.211 C174.793,215.379 148.312,192.738 204.473,175.258 C209.184,129.5 179.281,154.77 164.414,150.684"/>
  <path fill="rgb(0%, 90.196078%, 5.882353%)" opacity="0.505" d="M289.242,277.777 C270.457,265.219 267.074,249.613 247.684,277.938 C211.992,273.535 226.109,260.738 255.98,227.609 C252.539,241.566 250.25,253.242 291.379,250.625 C293.223,282.184 290.348,266.473 289.242,277.777"/>
  <path fill="rgb(3.921569%, 78.823529%, 30.588235%)" opacity="0.954" d="M117.773,210.176 C125.023,276.93 99.648,236.465 64.727,215.562 C86.746,235.219 77.664,246.016 51.141,198.016 C64.254,218.996 37.711,212.594 51.203,184.805 C78.141,146.676 83.742,131.707 117.773,210.176"/>
  <path fill="rgb(100%, 74.901961%, 99.215686%)" opacity="0.464" d="M189.969,140.863 C203.395,138.551 170.316,157.043 186.129,141.375 C177.344,114.332 169.852,115.844 172.98,100.547 C169.848,99.383 169.203,102.969 170.23,111.613 C187.027,83.254 189.012,75.828 189.969,140.863"/>
  <path fill="rgb(1.176471%, 3.529412%, 0%)" opacity="0.969" d="M251.484,266.289 C248.414,288.285 244.199,297.543 238.477,290.23 C252.051,289.094 263.625,264.477 270.645,242.953 C268.148,206.121 253.59,226.27 257.051,245.207 C244.797,271.387 253.273,274.211 251.484,266.289"/>
  <path fill="rgb(98.039216%, 100%, 56.862745%)" opacity="0.008" d="M21.922,10.781 C68.125,54.871 72.855,51.547 -2.742,49.82 C-2.238,41.402 20.594,46.621 26.531,50.855 C27.504,46.473 20.891,19.414 23.457,27.582 C-2.945,33.359 -10.16,37.176 21.922,10.781"/>
  <path fill="rgb(99.215686%, 45.098039%, 0%)" opacity="0.219" d="M234.906,181.383 C209.84,261.648 209.594,267.527 210.484,268.164 C222.531,255.801 224.184,256.199 221.004,158.07 C168.262,182.324 190.477,193.441 186.125,215.695 C197.809,215.391 215.133,188.391 234.906,181.383"/>
  <path fill="rgb(36.470588%, 74.117647%, 42.745098%)" opacity="0.077" d="M60.633,298.656 C96.953,329.762 85.383,318.57 75.43,313.688 C25.43,347.738 17.816,368.668 112.855,359.559 C103.137,339.328 102.16,325.613 147.926,314.973 C152.766,262.938 120.629,280.484 60.633,298.656"/>
  <path fill="rgb(1.176471%, 77.647059%, 30.196078%)" opacity="0.918" d="M205.469,67.816 C205.609,125.027 199.523,140.914 182.328,136.773 C124.535,143.309 85.281,157.184 125.82,101.844 C165.555,62.027 206.379,33.539 203.375,63.852 C196.105,75.844 186.016,68.852 205.469,67.816"/>
  <path fill="rgb(81.568627%, 23.137255%, 2.352941%)" opacity="0.672" d="M233.43,191.164 C243.312,188.5 251.645,213.363 229.301,240.945 C195.371,236.523 212.527,208.516 216.938,165.078 C222.766,178.488 219.91,186.383 233.855,191.246 C222,194.398 210.293,213.188 233.43,191.164"/>
  <path fill="rgb(4.313725%, 83.137255%, 28.627451%)" d="M105.27,160.98 C114.668,154.555 143.578,141.367 98.605,132.574 C59.652,157.004 68.707,155.906 118.59,222.621 C123.766,203.383 136.797,184.602 135.488,180.957 C167.586,150.363 163.758,153.941 105.27,160.98"/>
  <path fill="rgb(13.333333%, 84.705882%, 38.823529%)" opacity="0.104" d="M357.582,237.613 C363.145,303.031 360.031,278.02 281.43,296.852 C268.352,329.559 282.055,293.355 299.332,261.113 C284.598,258.914 281.359,254.125 303.281,278.75 C301.336,232.594 288.684,242.836 357.582,237.613"/>
</svg>

