<svg xmlns="http://www.w3.org/2000/svg" width="384" height="384" viewBox="0 0 384 384">
  <defs/>
  <path fill="rgb(97.647059%, 98.039216%, 100%)" opacity="0.115" d="M324.863,188.32 C378.949,186.656 342.168,186.066 296.879,181.84 C320.488,169.422 345.824,151.309 326.109,108.594 C250.777,131.887 252.266,114.879 291.531,92.062 C318.691,126.418 301.695,156.75 324.863,188.32"/>
  <path fill="rgb(85.098039%, 23.137255%, 0%)" d="M352.027,231.027 C325.039,354.809 344.668,337.871 270.473,335.879 C255.68,283.512 260.348,267.66 244.203,233.605 C263.625,223.23 294.543,217.438 283.699,233.871 C236.605,236.551 284.684,208.574 352.027,231.027"/>
  <path fill="rgb(24.313725%, 67.058824%, 32.941176%)" opacity="0.951" d="M329.23,208.176 C335.676,238.441 357.617,228.609 252.379,230.891 C225.594,185.789 206.434,171.059 264.422,163.773 C265.77,92.062 235.617,100.883 265.297,117.57 C241.652,98.633 280.23,103.492 329.23,208.176"/>
  <path fill="rgb(5.098039%, 69.803922%, 8.627451%)" opacity="0.794" d="M375.129,170.422 C354.559,229.301 351.598,238.363 310.375,223.027 C324.523,174.641 307.539,158.012 282.391,154.082 C282.688,125.688 282.145,139.227 299.695,183.301 C344.23,174.02 379.574,151.309 375.129,170.422"/>
  <path fill="rgb(48.235294%, 96.470588%, 15.686275%)" opacity="0.806" d="M26.5,214.738 C-2.246,226.086 -22.648,230.797 11.371,234.395 C-8.441,216.094 14.445,207.523 21.031,166.41 C4.938,173.09 18.492,183.539 9.906,216.043 C-26.254,198.266 14.602,191.773 26.5,214.738"/>
  <path fill="rgb(100%, 100%, 100%)" opacity="0.024" d="M177.941,3.285 C196.551,32.117 146.578,37.176 107.172,30.504 C103.414,25.449 94.504,26.922 87.375,11.625 C117.027,-18.246 116.082,-27.086 146.586,-38.961 C152.676,-24.91 150.973,-13.973 177.941,3.285"/>
  <path fill="rgb(98.431373%, 82.352941%, 100%)" opacity="0.013" d="M332.641,93.137 C335.809,162.777 303.457,166.66 293.352,130.121 C283.289,71.074 284.418,62.234 253.082,69.938 C261.496,42.879 263.562,27.949 294.289,12.125 C314.441,41.781 343.02,38.43 332.641,93.137"/>
  <path fill="rgb(64.313725%, 98.039216%, 100%)" opacity="0.026" d="M409.828,355.664 C392.629,372.09 386.957,373.215 386.766,386.484 C370,377.852 353.293,382.719 355.84,353.023 C362.594,352.453 385.098,355.902 387.16,339.977 C405.551,334.844 411.637,338.098 409.828,355.664"/>
  <path fill="rgb(0%, 98.039216%, 0%)" d="M126.125,233.844 C131.789,268.773 114.578,269.105 106.645,241.898 C63.973,248.578 34.883,239.176 93.266,239.895 C101.383,171.191 76.016,196.297 88.445,212.652 C89.555,236.93 84.836,236.145 126.125,233.844"/>
  <path fill="rgb(98.039216%, 99.607843%, 99.607843%)" opacity="0.127" d="M420.18,161.137 C404.98,168.742 363.164,166.477 370.75,175.012 C349.969,189.27 348.109,197.953 367.609,168.297 C378.566,150.766 346.766,135.898 349.027,155.227 C342.508,171.562 366.184,157.5 420.18,161.137"/>
  <path fill="rgb(9.411765%, 6.27451%, 23.137255%)" opacity="0.838" d="M249.312,344.953 C225.699,354.156 74.512,346.91 8.703,348.602 C-74.543,337.188 -105.496,275.301 16.379,274.523 C11.914,266.242 28.57,283.566 7.984,276.188 C76.688,214.414 128.957,217.359 249.312,344.953"/>
  <path fill="rgb(72.156863%, 94.509804%, 85.098039%)" opacity="0.047" d="M400.832,127.348 C412.738,208.328 384.863,195.035 299.809,191.805 C312.477,136.348 345.898,167.273 295.668,172.98 C302.738,103.301 295.859,103.98 312.965,146.559 C321.957,151.699 323.359,134.164 400.832,127.348"/>
  <path fill="rgb(17.647059%, 23.921569%, 32.54902%)" d="M62.016,247.559 C86.102,268.23 122.074,261.516 28.715,269.164 C-25.434,280.582 -28.57,296.508 -3.801,285.066 C-8.805,219.73 -14.621,220.43 18.672,221.535 C10.75,252.32 36.848,215.344 62.016,247.559"/>
  <path fill="rgb(72.156863%, 88.235294%, 96.862745%)" opacity="0.982" d="M185.133,110.695 C174.676,229.441 179.777,273.793 159.258,268.68 C-21.488,266.547 -72.938,276.004 -128.945,222.348 C-112.746,32.707 -100.645,42.113 138.23,47.348 C205.938,46.184 192.133,40.785 185.133,110.695"/>
  <path fill="rgb(100%, 100%, 92.941176%)" opacity="0.051" d="M114.227,30.086 C78.375,48.742 90.754,57.18 53.406,59.746 C29.133,56.484 37.246,58.672 45.215,11.926 C13.465,9.531 19.574,-0.242 33.742,-24.039 C107.309,-18.875 111.223,-16.156 114.227,30.086"/>
  <path fill="rgb(100%, 100%, 99.607843%)" opacity="0.97" d="M356.359,155.09 C353.82,171.203 318.176,188.609 322.973,193.621 C316.457,167.996 306.023,198.934 328.156,167.48 C300.355,112.039 300.945,131.02 316.43,155.84 C304.621,135.746 306.387,167.395 356.359,155.09"/>
</svg>

