<svg xmlns="http://www.w3.org/2000/svg" width="384" height="384" viewBox="0 0 384 384">
  <defs/>
  <path fill="rgb(97.647059%, 51.372549%, 9.019608%)" opacity="0.896" d="M66.305,13.016 C68.961,60.004 76.918,76.973 41.227,98.902 C-60.863,95.664 -66.008,90.465 -42.219,60.934 C-4.855,-3.633 -2.008,-10.43 45.418,-43.113 C73.121,-53.723 66.723,-48.688 66.305,13.016"/>
  <path fill="rgb(97.647059%, 50.980392%, 11.372549%)" opacity="0.935" d="M84.734,325.527 C85.887,329.805 79.363,338.949 17.664,339.141 C15.25,317.918 -12.125,332.539 -49.375,332.121 C-26.035,249.066 -16.242,241.77 20.902,257.316 C74.031,255.953 96.191,266.98 84.734,325.527"/>
  <path fill="rgb(47.843137%, 58.431373%, 25.882353%)" opacity="0.596" d="M390.125,39.055 C404.164,83.504 420.398,113.121 381.066,115.23 C341.98,104.598 370.594,74.613 356.363,38.863 C362.016,21.453 351.859,29.531 371.551,31.672 C373.016,54.086 374.414,53.176 390.125,39.055"/>
  <path fill="rgb(99.607843%, 44.705882%, 29.803922%)" opacity="0.172" d="M35.641,300.02 C-0.016,285.793 26.336,280.016 15.02,314 C-31.797,320.008 -19.004,307.523 -25.91,277.133 C-26.238,257.711 -36.562,237.422 -16.473,232.992 C18.887,236.445 21.461,255.727 35.641,300.02"/>
  <path fill="rgb(96.470588%, 52.156863%, 12.156863%)" opacity="0.926" d="M183.004,12.941 C163.492,83.422 132.984,72.242 72.062,63.277 C61.551,62.777 54.969,67.383 61.781,30.047 C60.199,-30.922 61.957,-30.289 92.852,-43.258 C166.086,-59.059 172.801,-59.957 183.004,12.941"/>
  <path fill="rgb(96.470588%, 56.470588%, 15.686275%)" opacity="0.987" d="M58.93,324.977 C57.23,391.051 63.211,413.691 50.387,421.109 C-4.547,392.484 -8.332,388.402 -45.832,319.664 C-18.91,295.98 -1.426,295.633 37.668,298.527 C51.652,330.34 72.91,325.66 58.93,324.977"/>
  <path fill="rgb(96.862745%, 55.686275%, 18.431373%)" opacity="0.989" d="M183.656,384.41 C173.145,410.48 160.293,409.699 130.086,411.938 C73.344,406.984 64.465,417.711 48.684,386.906 C47.598,292.832 49.668,321.27 81.062,302.363 C150.324,301.754 165.984,304.289 183.656,384.41"/>
  <path fill="rgb(94.117647%, 56.862745%, 15.294118%)" opacity="0.738" d="M70.395,4.078 C76.918,47.262 81.086,45.68 42.945,44.234 C39.605,60.836 49.75,27.898 45.016,-9.004 C40.398,-1.312 47.09,-4.785 72.238,-24.785 C92.574,-16.441 103.164,-8.238 70.395,4.078"/>
  <path fill="rgb(98.431373%, 54.117647%, 16.078431%)" opacity="0.961" d="M158.906,94.938 C136.426,104.203 159.828,173.531 34.793,256.758 C-11.902,76.719 -53.332,96.422 47.559,73.836 C150.07,59.691 128.535,92.152 114.301,92.051 C138.973,86.863 168.164,74.766 158.906,94.938"/>
  <path fill="rgb(0%, 2.352941%, 18.039216%)" opacity="0.997" d="M218.293,231.254 C172.824,218.266 204.809,229.297 121.801,237.715 C120.348,298.32 192.777,360.625 51.219,274.266 C194.215,226.094 219.133,215.809 170.918,185.723 C275.281,178.609 134.648,197.281 218.293,231.254"/>
  <path fill="rgb(6.666667%, 28.627451%, 34.901961%)" opacity="0.959" d="M281.316,78.02 C156.914,107.926 189.77,158.043 134.309,137.844 C119.898,175.645 115.398,161.988 65.109,63.824 C75.512,72.914 67.555,70.645 242.609,42.367 C252.512,18.828 234.66,35.684 281.316,78.02"/>
  <path fill="rgb(0%, 26.666667%, 40.784314%)" opacity="0.97" d="M144.137,246.168 C212.859,253.25 313.098,243.051 275.156,304.91 C84.18,357.031 51.246,311.008 57.621,211.609 C93.223,150.969 125.082,228.586 145.746,203.98 C182.738,136.414 176.371,150.703 144.137,246.168"/>
  <path fill="rgb(1.960784%, 25.098039%, 42.352941%)" opacity="0.825" d="M208.605,333.418 C176.418,352.41 182.402,403.301 147.715,328.543 C80.844,305.527 85.277,355.09 101.812,290 C49.355,259.953 44.41,189.254 96.887,116.355 C92.305,233.426 132.609,239.508 208.605,333.418"/>
  <path fill="rgb(99.215686%, 72.941176%, 0.392157%)" opacity="0.721" d="M174.547,176.59 C145.305,221.617 179.504,252.086 170.188,249.652 C117.734,189.535 105.531,195.559 53.328,207.738 C69.59,181.117 76.363,217.969 122.441,88.676 C182.484,162.219 224.434,182.734 174.547,176.59"/>
  <path fill="rgb(99.215686%, 64.705882%, 28.627451%)" opacity="0.933" d="M297.805,170.078 C204.902,108.445 269.27,175.914 216.961,182.398 C76.699,187.844 128.223,189.332 78.094,169.109 C122.598,82.879 111.301,64.031 180.531,110.152 C287.305,87.137 312.652,8.461 297.805,170.078"/>
  <path fill="rgb(96.862745%, 55.686275%, 16.470588%)" d="M128.324,309.688 C136.578,376.32 98.562,360.992 74.152,354.988 C56.004,322.805 27.156,319.875 53.535,288.855 C35.34,233.559 26.156,236.801 84.004,252.844 C114.633,244.855 106.234,251.688 128.324,309.688"/>
  <path fill="rgb(1.568627%, 29.019608%, 40.392157%)" opacity="0.986" d="M442.082,204.688 C399.176,319.66 336.965,273.012 205.715,317.805 C178.109,327.727 191.164,279.426 190.883,271.512 C273.309,177.023 170.691,153.008 244.125,145.574 C312.156,94.469 355.422,100.496 442.082,204.688"/>
  <path fill="rgb(96.470588%, 54.901961%, 15.294118%)" opacity="0.996" d="M396.621,381.828 C349.941,400.16 346.184,410.742 232.25,426.316 C171.121,397.836 232.078,403.992 145.328,350.438 C249.844,289.816 304.145,290.59 313.613,176.473 C411.789,147.59 396.844,197.195 396.621,381.828"/>
  <path fill="rgb(96.470588%, 54.509804%, 13.72549%)" opacity="0.959" d="M454.039,12.246 C399.281,108.344 335.145,97.203 317.656,62.34 C280.25,79.883 293.66,59.617 223.855,37.641 C214.211,-13.453 223.68,-25.5 293.457,-45.082 C271.574,-42.352 325.941,-10.57 454.039,12.246"/>
  <path fill="rgb(1.960784%, 25.490196%, 34.901961%)" opacity="0.995" d="M339.902,88.641 C339.895,209.633 381.582,186.566 321.449,164.949 C269.387,122.785 261.621,151.883 275.109,106.105 C276.637,76.219 161.777,84.699 332.062,49.766 C333.035,69.324 350.598,45.828 339.902,88.641"/>
  <path fill="rgb(99.215686%, 54.901961%, 16.078431%)" opacity="0.995" d="M201.586,412.477 C94.637,392.168 133.27,294.012 134.008,349.141 C96.289,343.785 83.121,333.285 90.125,300.582 C90.785,338.199 85.18,324.723 158.805,280.453 C175.441,324.594 188.906,302.828 201.586,412.477"/>
  <path fill="rgb(7.843137%, 30.196078%, 44.313725%)" d="M107.176,67.348 C108.098,147.551 144.934,112.031 69.77,208.938 C90.754,110.77 79.852,151.266 54.488,80.328 C34.82,42.301 50.918,30.098 51.324,81.25 C76.43,153.309 87.527,134.176 107.176,67.348"/>
  <path fill="rgb(92.54902%, 50.196078%, 21.176471%)" opacity="0.993" d="M60.117,243.676 C121.117,227.188 103.699,212.84 115.375,257.441 C85.41,276.078 92.055,266.098 69.82,249.602 C16.801,254.148 26.016,235.395 61.066,224.27 C79.566,249.328 87.117,261.703 60.117,243.676"/>
  <path fill="rgb(0%, 28.235294%, 43.137255%)" opacity="0.958" d="M305.41,190.051 C338.625,367.672 224.711,252.98 191.652,339.176 C180.914,305.777 154.906,310.242 194.871,257.633 C247.867,257.598 270.281,260.594 278.672,249.961 C315.418,267.109 274.703,273.375 305.41,190.051"/>
  <path fill="rgb(96.862745%, 55.294118%, 20%)" opacity="0.982" d="M407.094,116.293 C403.961,181.328 411.828,196.492 331.645,179.508 C296.43,129.164 329.094,185.879 290.672,119.922 C281.227,82.441 261.23,51.816 278.168,34.246 C395.898,45.637 398.863,58.477 407.094,116.293"/>
  <path fill="rgb(0%, 28.235294%, 38.431373%)" d="M129.359,170.527 C173.078,235.168 193.777,273.824 144.059,248.309 C65.93,202.871 55.172,202.699 81.426,147.418 C113.359,131.809 104.965,121.844 124.918,135.918 C142.047,143.039 122.793,160.164 129.359,170.527"/>
  <path fill="rgb(16.862745%, 36.470588%, 50.588235%)" opacity="0.752" d="M247.613,306.469 C266.52,298.844 248.789,299.02 235.398,294.586 C288.207,292.625 265.961,298.406 202.723,309.629 C262.23,316.727 253.379,319.441 257.086,291.402 C255.055,297.938 242.766,307.105 247.613,306.469"/>
  <path fill="rgb(1.568627%, 38.823529%, 45.098039%)" opacity="0.164" d="M282.516,239.281 C278.785,227.23 270.871,209.027 265.805,249.227 C270.422,276.062 282.039,258.828 269.246,261.312 C242.648,251.91 253.398,243.676 274.484,261.484 C290.617,226.668 294.57,223.098 282.516,239.281"/>
  <path fill="rgb(9.803922%, 29.411765%, 53.72549%)" opacity="0.031" d="M134.422,197.953 C140.16,207.508 139.801,177.113 108.645,185.324 C93.523,191.176 123.434,165.848 129.848,134.555 C139.625,131.555 133.125,115.891 123.996,142.059 C125.426,161.676 116.77,150.785 134.422,197.953"/>
  <path fill="rgb(0%, 20.392157%, 49.019608%)" opacity="0.057" d="M145.602,282.102 C166.98,281.5 139.812,287.539 183.848,318.402 C173.934,260.016 186.023,264.91 117.145,266.414 C96.109,191.281 107.965,213.336 160.68,207.398 C149.734,231.195 151.953,226.891 145.602,282.102"/>
  <path fill="rgb(96.078431%, 56.078431%, 16.862745%)" opacity="0.978" d="M119.016,34.656 C108.637,77.918 106.461,78.426 97.121,105.805 C82.84,159.742 49.926,165.84 30.488,140.805 C25.977,10.465 22.152,16.996 52.637,19.344 C101.848,21.023 100.977,60.066 119.016,34.656"/>
  <path fill="rgb(96.470588%, 56.078431%, 18.823529%)" opacity="0.979" d="M71.477,280.004 C68.621,273.977 51.57,259.996 59.02,238.766 C61.992,289.625 54.266,295.309 35.781,259.23 C-55.625,259.145 -68.504,234.102 28.375,103.293 C102.262,162.465 69.512,211.195 71.477,280.004"/>
  <path fill="rgb(97.647059%, 43.137255%, 34.901961%)" opacity="0.255" d="M418.746,45.449 C417.973,67.707 408.039,60.016 352.812,54.836 C352.855,93.684 328.953,20.008 369.625,40.246 C370.203,-0.773 362.555,-64.781 384.055,-37.312 C427.078,14.234 433.633,13.086 418.746,45.449"/>
  <path fill="rgb(94.117647%, 58.039216%, 14.117647%)" opacity="0.342" d="M427.711,77.047 C385.492,168.023 364.316,173.727 371.613,101.465 C307.848,95.543 300.523,127.855 303.277,37.023 C349.102,40.348 331,29.941 339.051,-53.371 C411.625,1.504 426.445,-0.902 427.711,77.047"/>
  <path fill="rgb(16.862745%, 9.411765%, 72.54902%)" opacity="0.106" d="M110.449,148.902 C89.93,179.113 76.824,182.613 59.098,168.34 C76.059,168.941 77.082,178.316 68.168,148.059 C77.02,143.988 73.379,137.871 71.164,177.406 C72.109,149.625 72.375,139.402 110.449,148.902"/>
  <path fill="rgb(94.509804%, 71.764706%, 32.156863%)" opacity="0.946" d="M190.93,158.996 C259.715,170.129 255.516,175.285 241.863,159.574 C185.465,162.836 196.664,162.895 186.477,163.086 C208.082,89.688 170.125,78.902 131.859,135.898 C188.07,150.508 189.797,129.062 190.93,158.996"/>
  <path fill="rgb(96.078431%, 51.372549%, 14.901961%)" opacity="0.92" d="M116.004,54.996 C138.309,56.57 140.281,68.422 78.754,74.23 C72.172,42.32 107.703,51.504 71.199,53.184 C58,11.637 52.27,37.898 77.445,24.32 C114.004,26.938 111.215,17.48 116.004,54.996"/>
  <path fill="rgb(96.862745%, 68.235294%, 35.686275%)" opacity="0.969" d="M253.719,154.066 C255.562,174.391 260.574,158.191 243.914,190.797 C212.883,228.078 229.93,232.215 208.492,165.84 C224.242,130.984 244.254,143.93 237.926,127.16 C261.062,124.828 247.332,126.836 253.719,154.066"/>
  <path fill="rgb(98.823529%, 55.294118%, 16.078431%)" opacity="0.957" d="M305.922,286.09 C298.746,305.938 318.953,313.859 256.5,319.176 C249.285,312.926 274.848,273.129 277.387,226.648 C356.086,253.727 334.848,246.949 312.992,230.934 C326.383,297.828 339.961,288.301 305.922,286.09"/>
  <path fill="rgb(96.862745%, 56.470588%, 17.647059%)" opacity="0.974" d="M278.668,70.164 C221.164,61.059 235.344,44.414 192.059,71.5 C180.523,65.277 176.391,62.816 155.637,53.418 C177.746,-5.02 155.93,-33.551 172.543,-77.16 C258.273,-42.312 288.41,-31.164 278.668,70.164"/>
  <path fill="rgb(97.254902%, 53.333333%, 17.647059%)" opacity="0.809" d="M389.777,210.43 C415.445,217.133 377.242,215.566 309.172,215.406 C304.965,196.047 312.242,168.906 315.23,147.285 C320.078,161.609 310.191,155.062 347.453,153.203 C350.227,135.426 353.18,160.68 389.777,210.43"/>
  <path fill="rgb(80%, 57.647059%, 0%)" opacity="0.1" d="M51.945,253.062 C41.008,244.648 37.895,239.41 39.082,251.332 C47.02,215.227 17.551,185.691 11.508,271.191 C19.527,312.602 41.074,290.434 26.234,177.812 C53.238,196.176 45.586,236.754 51.945,253.062"/>
  <path fill="rgb(94.901961%, 39.607843%, 33.72549%)" opacity="0.029" d="M68.887,209.602 C72.34,218.016 84.418,230.23 78.645,209.859 C64.512,211.367 60.957,207.996 64.484,211.453 C65.504,202.961 53.082,192.453 81.09,177.141 C101.133,215.852 85.746,211.488 68.887,209.602"/>
  <path fill="rgb(98.431373%, 47.45098%, 18.823529%)" opacity="0.979" d="M240.711,306.344 C262.695,331.512 280.016,309.402 227.707,280.758 C209.484,323.68 171.434,332.262 265.234,312.656 C249.852,298.617 232.535,288.297 235.961,302.914 C283.156,323.094 261.492,312.852 240.711,306.344"/>
</svg>

