<svg xmlns="http://www.w3.org/2000/svg" width="384" height="384" viewBox="0 0 384 384">
  <defs/>
  <path fill="rgb(1.568627%, 54.901961%, 40.784314%)" opacity="0.942" d="M403.363,146.125 C388.633,201.43 370.406,208.836 354.793,225.457 C271.582,182.535 339.508,206.09 374.715,147.07 C390.035,62.941 332.332,91.395 321.293,69.684 C319.715,46 406.223,67.453 403.363,146.125"/>
  <path fill="rgb(60.392157%, 29.803922%, 1.568627%)" opacity="0.874" d="M124.406,391.648 C127.227,404.055 71.891,391.148 34.988,379.629 C92.785,387.387 33.199,396.414 -19.02,389.344 C-34.277,299.07 -21.875,290.223 12.391,271.23 C87.273,301.781 97.312,303.918 124.406,391.648"/>
  <path fill="rgb(49.803922%, 23.137255%, 0%)" opacity="0.979" d="M246.902,381.219 C283.32,456.617 265.859,444.418 230.566,432.418 C185.754,397.422 155.875,376.043 178.172,344.707 C146.457,249.867 140.453,252.844 179.277,263.645 C197.57,286.008 209.422,297.93 246.902,381.219"/>
  <path fill="rgb(74.117647%, 35.686275%, 3.529412%)" opacity="0.87" d="M15.535,286.461 C18.996,271.168 0.879,280.375 -17.77,292.203 C-28.281,317.422 -14.531,305.762 -3.551,324.023 C-8.445,293.746 -12.121,280.633 22.008,246.562 C72.758,241.746 40.996,256.078 15.535,286.461"/>
  <path fill="rgb(70.588235%, 37.647059%, 15.294118%)" opacity="0.898" d="M214.145,297.871 C216.402,343.445 229.562,392.879 178.824,412.438 C75.406,393.207 83.699,373.211 78.309,291.871 C127.426,277.48 130.98,317.453 147.035,288.66 C165.094,284.277 152.27,285.117 214.145,297.871"/>
  <path fill="rgb(98.823529%, 0%, 1.176471%)" opacity="0.992" d="M148.367,144.621 C169.188,158.273 152.809,170.984 133.473,164.719 C112.887,149.703 123.914,127.77 151.312,139.648 C171.168,140.07 161.547,136.203 151.641,132.301 C160.836,145.27 148.906,132.078 148.367,144.621"/>
  <path fill="rgb(81.568627%, 100%, 88.235294%)" opacity="0.02" d="M186.336,47.996 C160.363,194.402 107.352,178.98 64.262,150.695 C61.078,141.43 38.723,141.594 4.145,94.504 C-88.625,71.398 -29.312,30.598 4.582,-7.219 C118.801,-28.914 178.785,-32.336 186.336,47.996"/>
  <path fill="rgb(76.862745%, 43.529412%, 23.921569%)" opacity="0.985" d="M198.512,288.332 C220.277,288.379 222.711,325.691 145.434,316.816 C138.941,306.316 118.234,324.215 30.367,285.711 C-2.48,234.43 83.773,240.398 130.352,240.828 C157.328,249.293 183.512,259.949 198.512,288.332"/>
  <path fill="rgb(0%, 62.745098%, 47.843137%)" opacity="0.982" d="M212.777,158.277 C270.441,229.309 268.879,254.449 218.336,242.555 C179.754,230.656 161.559,213.57 138.633,185.312 C67.984,170.398 53.914,153.543 141.441,167.742 C225.934,121.66 205.934,123.656 212.777,158.277"/>
  <path fill="rgb(0%, 59.607843%, 45.098039%)" opacity="0.972" d="M255.223,206.906 C226.934,224.055 233.758,237.254 223.898,274.035 C260.035,241.109 230.043,261.234 177.684,215.246 C130.711,239.746 139.73,134.613 186.129,136.938 C180.984,209.141 219.105,190.035 255.223,206.906"/>
  <path fill="rgb(100%, 100%, 93.333333%)" opacity="0.121" d="M342.438,300.039 C305.824,311.977 259.473,312.23 270.281,288.246 C286.691,288.012 261.66,302.852 251.391,252.59 C260.25,222.227 275.52,239.023 296.977,259.32 C339.566,234.195 355.965,237.008 342.438,300.039"/>
  <path fill="rgb(2.352941%, 62.745098%, 46.666667%)" opacity="0.88" d="M191.395,168.039 C177.789,228.938 161.031,214.59 129.438,202.211 C92.16,187.234 82.254,174.008 85.57,167.512 C84.129,159.926 73.402,154.305 121.633,144.602 C145.285,187.781 151.207,152.918 191.395,168.039"/>
  <path fill="rgb(1.176471%, 66.666667%, 51.372549%)" opacity="0.85" d="M138.918,183.566 C181.805,182.82 175.633,177.977 159.723,188.621 C161.926,179.48 183.359,170.863 145.488,136.605 C103.246,178.105 120.602,119.145 159.566,131.535 C214.414,165.586 194.48,165.594 138.918,183.566"/>
  <path fill="rgb(0%, 65.490196%, 51.372549%)" d="M353.09,224.113 C303.188,256.941 279.055,249.738 312.688,238.945 C289.016,257.25 241.555,260.672 213.25,216.055 C242.242,168.184 272.246,161.426 286.422,180.441 C319.078,193.5 363.008,157.285 353.09,224.113"/>
  <path fill="rgb(89.411765%, 33.72549%, 10.588235%)" opacity="0.097" d="M59.551,355.617 C14.477,307.855 -20.879,278.297 -14.258,318.617 C-2.242,317.18 8.461,274.719 -16.98,271.547 C11.934,333.348 19.156,331.43 27.445,267.852 C94.883,242.508 80.383,226.906 59.551,355.617"/>
  <path fill="rgb(0%, 43.137255%, 40.392157%)" d="M198.27,295.48 C214.805,275.719 225.984,279.836 195.707,278.777 C214.66,286.246 158.605,278.836 227.195,267.09 C228.68,236.691 241.262,218.895 249.867,205.348 C276.348,279.891 230.75,282.066 198.27,295.48"/>
  <path fill="rgb(76.862745%, 100%, 85.882353%)" opacity="0.02" d="M441.363,323.074 C375.316,417.695 340.688,412.938 325.82,399.914 C325.305,366.965 313.402,359.562 319.168,408.316 C313.984,378.711 302.168,394.934 259.805,272.176 C338.176,256.621 396.758,252.398 441.363,323.074"/>
  <path fill="rgb(0%, 66.666667%, 48.627451%)" opacity="0.999" d="M247.754,162.453 C305.789,205.5 294.969,230.512 234.656,216.754 C229.695,249.109 230.199,245.832 235.09,240.086 C228.008,240.09 198.711,207.734 202.895,146.746 C265.266,137.051 250.055,134.547 247.754,162.453"/>
  <path fill="rgb(7.058824%, 54.509804%, 61.568627%)" opacity="0.047" d="M261.594,206.32 C224.137,201.605 217.438,205.754 210.551,241.867 C245.84,251.363 237.828,250.395 257.828,214.59 C263.906,182.09 273.938,213.312 250.43,207.457 C224.344,211.023 222.242,227.07 261.594,206.32"/>
  <path fill="rgb(0%, 65.882353%, 52.941176%)" d="M142.57,246.102 C163.586,233.605 97.391,225.727 99.281,240.902 C184.355,230.465 148.77,233.969 151.219,234.543 C163.473,220.926 183.465,218.984 195.105,218.609 C192.27,183.625 128.773,211.129 142.57,246.102"/>
  <path fill="rgb(0%, 36.470588%, 44.313725%)" opacity="0.876" d="M155.141,212.289 C163.195,222.117 170.078,216.492 170.094,225.305 C162.031,227.477 167.398,237.648 110.41,247.523 C145.707,203.754 160.816,210.254 159.078,216.273 C156.711,221.754 156.594,240.57 155.141,212.289"/>
  <path fill="rgb(80%, 58.039216%, 34.901961%)" opacity="0.96" d="M26.828,278.418 C2.172,282.465 0.242,288.859 -0.742,297.922 C-18.867,286.316 -31.504,286.992 -8.434,283.828 C1.223,282.273 1.594,266.637 12.531,286.836 C23.684,275.086 50.121,252.953 26.828,278.418"/>
  <path fill="rgb(98.823529%, 90.196078%, 92.54902%)" opacity="0.138" d="M383.879,95.762 C346.848,77.234 321.254,93.566 366.426,100.953 C347.801,110.246 318.305,92.379 305.594,81.539 C316.43,60.039 309.773,72.406 349.035,61.449 C380.039,39.906 405.973,55.441 383.879,95.762"/>
  <path fill="rgb(0%, 66.27451%, 49.411765%)" opacity="0.926" d="M290.336,201.051 C299.367,178.348 314.227,187.219 314.723,206.191 C263.918,214.926 249.398,211.047 234.711,190.195 C230.785,158.543 279.93,156.559 293.527,162.113 C285.609,184.109 292.562,206.363 290.336,201.051"/>
</svg>

