<svg xmlns="http://www.w3.org/2000/svg" width="384" height="384" viewBox="0 0 384 384">
  <defs/>
  <path fill="rgb(35.294118%, 100%, 60.392157%)" opacity="0.601" d="M415.043,263.684 C389.703,414.984 384.922,418.664 344.465,404.598 C343.996,338.734 345.348,349.039 342.414,344.477 C336.816,313.129 349.043,349.777 349.133,246.152 C375.695,226.172 398.164,236.418 415.043,263.684"/>
  <path fill="rgb(41.176471%, 94.117647%, 70.980392%)" opacity="0.208" d="M363.777,329.344 C364.434,392.582 367.758,382.277 359.164,383.469 C284.441,379.59 288.586,396.359 285.973,366.566 C313.953,354.488 336.746,368.031 355.961,348.707 C333.586,302.797 339.285,312.504 363.777,329.344"/>
  <path fill="rgb(9.803922%, 51.372549%, 35.294118%)" opacity="0.898" d="M316.973,283.016 C292.855,444.488 302.473,443.441 258.215,424.496 C186.488,392.742 170.141,387.012 172.309,328.688 C180.043,320.18 183.074,320.848 198.227,182.562 C255.379,180.406 292.555,212.848 316.973,283.016"/>
  <path fill="rgb(17.647059%, 53.333333%, 29.019608%)" opacity="0.908" d="M144.094,342.602 C135.777,453.441 144.527,466.043 64.93,458.281 C40.691,431.312 52.855,403.742 38.504,364.898 C9.297,343.07 18.242,341.91 24.723,286.238 C19.039,301.648 80.457,285.613 144.094,342.602"/>
  <path fill="rgb(40%, 71.764706%, 38.039216%)" opacity="0.833" d="M71.301,335.133 C116.672,367.742 140.297,366.363 120.742,385.512 C-29.707,400.262 -43.621,390.379 -51.281,323.078 C-62.816,269.637 -64.52,238.305 32.625,185.344 C126.352,176.969 54.062,227.145 71.301,335.133"/>
  <path fill="rgb(40.392157%, 72.941176%, 43.529412%)" d="M390.848,229.297 C400.914,457.488 387.117,462.023 302.523,383.195 C285.121,320.27 277.645,314.91 248.504,219.059 C347.785,208.383 362.031,214.969 318.395,279.688 C280.422,233.879 320.469,196.652 390.848,229.297"/>
  <path fill="rgb(16.862745%, 88.235294%, 56.078431%)" opacity="0.153" d="M389.379,357.164 C398.508,357.918 397.438,380.551 391.699,447.066 C352.902,427.492 358.637,405.875 359.07,342.031 C377.363,326.77 341.863,307.867 372.598,313.453 C407.883,314.773 407.621,340.508 389.379,357.164"/>
  <path fill="rgb(30.980392%, 63.921569%, 43.137255%)" opacity="0.969" d="M229.102,369.074 C247.48,408.543 221.93,402.887 184.496,438.137 C109.172,420.125 133.398,388.969 105.586,368.922 C82.984,334.586 95.578,349.387 155.973,340.762 C195.055,315.066 201.32,308.027 229.102,369.074"/>
  <path fill="rgb(57.254902%, 65.882353%, 69.803922%)" opacity="0.087" d="M327.137,297.891 C369.887,371.301 401.094,359.75 300.613,360.852 C319.348,303.867 316.574,330.879 303.102,387.078 C283.207,308.719 259.305,294.906 381.238,301.5 C355.125,258.754 290.875,267.395 327.137,297.891"/>
  <path fill="rgb(100%, 13.72549%, 14.117647%)" d="M216.086,153.422 C206.566,316.734 223.52,306.035 138.391,281.918 C28.496,304.184 52.469,318.52 37.375,167.312 C31.594,139.184 28.832,74.125 113.328,48.094 C202.043,44.969 227.52,126.16 216.086,153.422"/>
  <path fill="rgb(96.862745%, 13.72549%, 16.078431%)" opacity="0.998" d="M208.461,327.879 C211.32,351.398 226.109,339.008 90.918,343.227 C34.625,338.777 54.016,362.09 45.867,295.961 C47.859,250.051 16.176,276.836 176.062,272.055 C216.934,284.82 211.199,242.008 208.461,327.879"/>
  <path fill="rgb(100%, 100%, 97.647059%)" opacity="0.059" d="M11.762,209.953 C32.301,231.898 10.949,217.441 -42.051,219.812 C-8.477,239.148 -5.617,254 -6.887,206.57 C-2.352,201.379 17.223,211.586 3.625,172.324 C43.996,161.535 41.734,171.422 11.762,209.953"/>
  <path fill="rgb(81.960784%, 83.529412%, 68.627451%)" opacity="0.041" d="M444.023,217.805 C369.547,246.27 311.344,212.777 306.926,197.59 C289.684,224.379 223.852,235.125 207.574,172.016 C226.234,129.219 226.305,109.633 263.168,51.5 C425.191,63.465 428.781,57.242 444.023,217.805"/>
  <path fill="rgb(24.313725%, 38.823529%, 51.372549%)" opacity="0.833" d="M153.371,146.523 C221.047,173.645 66.625,164.238 89.734,155.785 C115.086,127.703 93.188,134.125 99.965,147.961 C106.52,147.055 63.461,142.414 154.59,143.473 C155.906,130.16 153.195,83.086 153.371,146.523"/>
  <path fill="rgb(46.666667%, 47.058824%, 77.254902%)" opacity="0.052" d="M236.559,325.027 C252.453,408.793 283.082,399.977 234.969,452.879 C212.844,405.211 200.785,380.895 209.453,333.828 C249.562,358.023 205.598,355.145 328.836,326.336 C240.828,303.074 259.355,298.352 236.559,325.027"/>
  <path fill="rgb(79.607843%, 34.901961%, 0%)" opacity="0.114" d="M194.055,297.027 C176.824,302.914 168.133,309.422 155.859,307.188 C165.328,273.996 165.367,281.617 121.441,293.797 C165.367,296.445 178.605,306 170.461,305.27 C201.844,301.766 211.645,296.785 194.055,297.027"/>
</svg>

