<svg xmlns="http://www.w3.org/2000/svg" width="384" height="384" viewBox="0 0 384 384">
  <defs/>
  <path fill="rgb(100%, 80.784314%, 0%)" opacity="0.941" d="M283.637,138.648 C276.586,189.758 298.293,190.852 294.996,102.594 C257.871,139.395 246.117,148.523 242.688,159.906 C277.871,197.121 264.762,181.539 272.344,118.48 C243.973,137.98 257.539,147.117 283.637,138.648"/>
  <path fill="rgb(99.607843%, 89.411765%, 63.137255%)" opacity="0.006" d="M389.375,361.422 C420.078,364.285 430.516,380.914 397.828,373.441 C374.219,360.68 329.926,363.191 329.293,365.023 C325.781,230.113 311.262,227.938 387.344,250.441 C386.156,325.27 386.703,348.555 389.375,361.422"/>
  <path fill="rgb(100%, 100%, 0%)" opacity="0.942" d="M271.59,187.164 C292.016,215.633 274.035,248.039 274.074,229.613 C249.254,238.016 233.102,231.52 224.934,211.922 C222.102,146.336 227.848,137.871 248.285,162.352 C240.531,175.16 275.266,158.934 271.59,187.164"/>
  <path fill="rgb(100%, 86.666667%, 0%)" d="M295.055,245.383 C247.465,289.324 238.008,300 150.379,336.84 C59.016,376.562 -46.449,333.352 32.297,252.246 C130.262,198.922 154.965,200.637 188.145,173.367 C252.289,144.566 247.723,96.418 295.055,245.383"/>
  <path fill="rgb(99.607843%, 83.529412%, 38.823529%)" opacity="0.032" d="M236.785,86.945 C181.129,79.699 203.984,104.145 135.254,157.125 C57.652,134.766 67.449,88.793 91.605,-22.422 C139.715,11.75 144.746,31.824 138.895,12.844 C252.438,-3.625 258.922,-10.09 236.785,86.945"/>
  <path fill="rgb(100%, 85.098039%, 0%)" d="M363.801,138.367 C329.094,214.566 315.488,225.277 300.355,241.172 C284.375,260.863 277.883,224.156 239.445,148.074 C216.145,152.426 249.328,144.949 297.965,82.02 C375.641,43.316 364.586,13.176 363.801,138.367"/>
</svg>

