<svg xmlns="http://www.w3.org/2000/svg" width="384" height="384" viewBox="0 0 384 384">
  <defs/>
  <path fill="rgb(100%, 22.745098%, 0%)" opacity="0.682" d="M151.707,283.641 C167.285,347.199 228.238,332.121 219.801,293.121 C156.996,289.645 160.984,302.281 113.949,272.656 C39.457,267.027 50.969,344.953 154.848,341.578 C172.988,254.418 193.008,244.141 151.707,283.641"/>
  <path fill="rgb(92.156863%, 91.372549%, 96.470588%)" opacity="0.059" d="M116.129,242.133 C115.871,235.734 124.133,272.156 97.66,324.914 C85.973,249.676 114.086,254.258 122.645,220.504 C125.977,177.918 129.695,180.645 82.141,183.75 C109.676,206.723 131.02,208.586 116.129,242.133"/>
  <path fill="rgb(81.568627%, 76.862745%, 34.901961%)" opacity="0.18" d="M41.008,356.535 C81.168,361.742 40.949,385.031 -24.918,360.285 C-14.77,242.078 -25.824,284.449 11.945,334.242 C45.258,318.594 57.738,287.625 52.703,201.992 C21.645,244.406 32.918,270.699 41.008,356.535"/>
  <path fill="rgb(16.078431%, 54.117647%, 87.843137%)" opacity="0.724" d="M206.66,76.281 C271.27,102.191 294.766,163.395 256.832,177.746 C123.152,174.469 104.535,191.395 116.922,132.758 C141.336,77.727 182.941,87.27 180.559,73.172 C178.898,86.023 178.516,78.246 206.66,76.281"/>
  <path fill="rgb(60.392157%, 100%, 52.54902%)" opacity="0.061" d="M342.723,128.039 C348.609,194.031 367.316,194.535 284.395,180.586 C273.23,196.363 279.656,191.625 307.426,169.082 C313.383,152.719 324.535,134.121 340.512,157.211 C315.195,163.402 327.762,147.383 342.723,128.039"/>
  <path fill="rgb(30.196078%, 62.745098%, 90.980392%)" opacity="0.826" d="M393.715,117.367 C418.535,197.789 396.621,208.402 333.062,203.488 C300.695,211.789 291.078,188.004 313.074,154.957 C336.398,123.832 349.777,123.82 361.527,114.25 C340.488,114.141 349.559,113.59 393.715,117.367"/>
  <path fill="rgb(77.254902%, 100%, 99.215686%)" opacity="0.052" d="M318.031,160.66 C334.277,135.918 346.293,105.668 329.57,198.625 C276.734,198.895 236.168,196.598 264.906,218.844 C285.312,173.914 294.648,167.809 324.285,136.57 C320.035,125.879 329.707,144.281 318.031,160.66"/>
  <path fill="rgb(54.509804%, 67.843137%, 62.745098%)" opacity="0.092" d="M241.48,173.891 C285.008,208.285 264.93,241.141 206.336,346.344 C84.398,345.082 73.801,367.863 36.82,159.711 C105.473,92.402 160.906,161.629 159.367,179.84 C155.781,161.492 213.816,172.898 241.48,173.891"/>
  <path fill="rgb(99.607843%, 23.921569%, 11.372549%)" opacity="0.63" d="M183.406,252.922 C161.602,375.688 148.324,320.652 78.883,361.941 C9.359,371.754 40.953,394.457 78.621,241.766 C47.016,207.461 41.047,226.121 41.699,265.621 C116.234,270.086 118.469,279.926 183.406,252.922"/>
  <path fill="rgb(11.372549%, 82.745098%, 94.509804%)" opacity="0.195" d="M243.34,140.246 C239.777,173.281 235.43,178.484 224.496,162.336 C148.02,160.133 181.438,155.473 234.422,151.113 C232.098,171.586 204.066,180.094 213.344,160.309 C196,152.547 196.57,128.84 243.34,140.246"/>
  <path fill="rgb(27.843137%, 20.784314%, 34.117647%)" opacity="0.773" d="M281.27,369.027 C294.285,356.238 254.035,364.301 235.547,372.34 C216.812,350.926 225.828,363.75 262.914,374.574 C247.652,367.578 254.527,368.457 266.062,283.238 C290.594,258.891 288.004,300.238 281.27,369.027"/>
  <path fill="rgb(60.784314%, 71.372549%, 84.705882%)" opacity="0.211" d="M476.742,129.973 C428.234,117.617 384.961,112.652 252.477,112.773 C253.789,104.551 265.023,49.066 328.758,53.633 C350.918,42.473 365.383,17.762 400.109,10.602 C406.781,27.535 425.016,4.906 476.742,129.973"/>
  <path fill="rgb(95.686275%, 60.784314%, 18.431373%)" opacity="0.868" d="M382.289,211.039 C488.781,405.348 429.688,365.879 250.52,368.215 C277.258,341.316 274.723,295.77 277.195,365.871 C286.934,384.258 274.32,336.43 308.434,221.973 C320.457,265.535 237.891,180.684 382.289,211.039"/>
  <path fill="rgb(91.764706%, 32.54902%, 15.294118%)" opacity="0.93" d="M300.797,290.164 C268.371,307.645 242.578,306.906 260.684,266.258 C227.105,286.434 244.488,303.414 256.754,252.602 C286.137,233.75 275.566,231.875 280.48,226.719 C274.137,260.598 282.875,261.863 300.797,290.164"/>
  <path fill="rgb(99.607843%, 53.72549%, 31.764706%)" opacity="0.572" d="M206.934,271.227 C228.391,267.852 227.93,275.293 116.957,264.277 C126.59,221.66 194.434,269.207 142.566,282.883 C213.406,284.453 189.789,292.602 198.008,166.512 C206.863,275.652 196.23,301.441 206.934,271.227"/>
  <path fill="rgb(2.745098%, 5.490196%, 6.666667%)" opacity="0.982" d="M281.281,244.645 C277.086,235.379 267.137,245.508 259.23,257.395 C244.902,250.062 258.859,269.141 270.594,241.266 C252.812,227.855 281.27,212.805 276.887,236.789 C276.312,235.996 261.848,237.957 281.281,244.645"/>
  <path fill="rgb(62.352941%, 56.078431%, 36.862745%)" opacity="0.518" d="M139.637,286.742 C141.938,373.371 167.941,373.312 128.941,370.352 C-0.27,369.637 42.008,372.773 77.633,340.336 C93.195,259.637 66.957,282.484 72.66,261.543 C175.523,280.484 157.262,254.34 139.637,286.742"/>
  <path fill="rgb(50.196078%, 60%, 69.803922%)" d="M307.766,259.367 C439.105,280.809 463.75,297.996 353.051,303.23 C266.793,303.094 277.355,305.379 295.445,299.207 C262.25,288.191 289.02,295.461 304.398,255.43 C261.035,274.676 292.758,279.91 307.766,259.367"/>
  <path fill="rgb(0.784314%, 39.607843%, 47.058824%)" opacity="0.999" d="M209.102,334.926 C176.184,326.035 173.793,312.246 203.238,345.422 C166.676,327.414 164.609,320.996 173.188,322.785 C183.645,347.426 201.594,358.82 246.133,347.309 C240.531,233.449 199.605,260.449 209.102,334.926"/>
  <path fill="rgb(83.137255%, 39.215686%, 23.921569%)" opacity="0.281" d="M187.777,256.836 C235.711,350.777 281.129,327.641 244.281,373.566 C205.504,374.918 208.332,359.711 170.168,253.707 C158.375,228.848 248.992,253.68 192.246,257.598 C192.25,220.254 226.18,201.855 187.777,256.836"/>
  <path fill="rgb(87.058824%, 76.078431%, 100%)" opacity="0.056" d="M259.609,134.934 C270.988,138.527 257.527,137.055 229.715,112.84 C260.016,156.914 283.785,128.215 272.52,132.754 C270.398,124.406 277.422,90.391 252.82,95.371 C249.141,97.664 247.602,130.215 259.609,134.934"/>
  <path fill="rgb(95.686275%, 79.607843%, 40%)" opacity="0.995" d="M205.562,305.035 C208.891,368.887 226.832,374.035 185.66,368.668 C122.035,374.062 125.465,367.152 132.492,306.516 C163.434,319.992 166.273,298.566 193.246,308.93 C191.133,353.199 138.633,325.434 205.562,305.035"/>
  <path fill="rgb(92.941176%, 41.960784%, 0%)" opacity="0.613" d="M110.652,346.625 C121.68,367.832 128.895,372.551 73.07,370.023 C63.414,338.512 78.785,341.438 65.43,320.512 C87.402,320.844 82.094,305.918 50.34,316.461 C76.391,318.168 77.52,333.031 110.652,346.625"/>
  <path fill="rgb(47.45098%, 69.411765%, 40.392157%)" opacity="0.095" d="M191.707,213.684 C180.555,237.883 218.781,210.516 202.191,234.102 C217.301,229.574 183.09,238.547 192.223,198.668 C210.809,188.742 199.148,211.523 190.832,204.344 C201.047,213.098 214.73,236.312 191.707,213.684"/>
  <path fill="rgb(99.607843%, 79.607843%, 28.627451%)" opacity="0.748" d="M153.348,302.293 C150.094,379.312 164.898,354.582 95.328,353.555 C86.59,344.098 89.008,343.809 88.73,325.621 C131.035,329.672 145.078,338.004 101.168,326.062 C83.332,296.344 62.336,307.113 153.348,302.293"/>
  <path fill="rgb(94.509804%, 38.039216%, 30.196078%)" opacity="0.046" d="M377.852,249.219 C384.848,298.801 422.57,262.762 338.883,224.418 C331.094,287.695 335.246,291.973 288.297,281.691 C395.988,271.988 359.918,290.066 341.844,208.617 C398.898,210.875 375.93,180.059 377.852,249.219"/>
  <path fill="rgb(92.941176%, 90.196078%, 99.607843%)" opacity="0.096" d="M254.055,299.828 C244.289,322.809 266.246,331.988 266.234,301.727 C246.363,293.223 223.906,289.949 232.031,341.867 C248.551,318.137 226.699,273.184 243.242,189.609 C278.02,249.352 271.125,287.793 254.055,299.828"/>
  <path fill="rgb(80.392157%, 92.54902%, 91.372549%)" opacity="0.067" d="M199.316,96.586 C91.98,143.023 39.492,131.059 -27.742,131.773 C0.492,81.57 23.895,100.324 1.668,108.582 C-62.5,42.77 -13.871,47.289 3.715,-5.098 C27.496,-59.336 154.062,-56.105 199.316,96.586"/>
  <path fill="rgb(92.941176%, 97.647059%, 77.647059%)" opacity="0.073" d="M50.277,70.383 C23.566,78.844 -2.191,72.91 12.555,75.023 C31.438,76.234 30.633,91.422 22.844,52.074 C7.938,47.773 4.082,45.637 7.023,75.441 C18.957,82.602 35.121,59.363 50.277,70.383"/>
  <path fill="rgb(99.215686%, 98.039216%, 94.509804%)" opacity="0.139" d="M154.887,214.953 C136.094,221.965 138.32,233.262 154.875,222.418 C132.207,216.199 139.332,203.723 144.293,169.84 C155.02,173.984 149.145,179.828 189.836,160.457 C197.102,201.016 180.379,212.082 154.887,214.953"/>
  <path fill="rgb(85.490196%, 98.431373%, 93.72549%)" opacity="0.066" d="M298.363,90.238 C281.379,97.254 302.773,112.418 240.359,119.512 C253.629,68.934 233.094,89.02 181.402,62.52 C175.281,-23.625 165.941,-11.422 297.148,-24.527 C337.359,11.688 329.684,77.891 298.363,90.238"/>
  <path fill="rgb(86.666667%, 95.294118%, 98.431373%)" opacity="0.837" d="M260.191,252.207 C261.348,341.66 254.73,342.988 244.953,336.066 C254.227,308.09 224.109,277.051 235.434,276.414 C228.598,279.82 247.289,270.801 212.73,277.879 C211.363,244.457 204.59,251.141 260.191,252.207"/>
  <path fill="rgb(44.313725%, 31.764706%, 30.588235%)" opacity="0.602" d="M95.566,174.391 C120.285,262.012 163.555,281.641 69.551,309.371 C58.512,213.805 89.512,262.719 56.582,194.426 C53.234,218.082 61.254,181.117 58.375,212.805 C63.027,249.102 42.172,207.453 95.566,174.391"/>
</svg>

