<svg xmlns="http://www.w3.org/2000/svg" width="384" height="384" viewBox="0 0 384 384">
  <defs/>
  <path fill="rgb(57.647059%, 32.54902%, 92.156863%)" opacity="0.84" d="M41.719,398.387 C39.137,403.645 32.539,402.551 5.789,403.129 C-3.074,403.188 -7.59,397.449 -25.777,356.172 C-36.773,337.91 -46.781,321.188 -10.848,337.953 C47.078,345.461 39.363,351.434 41.719,398.387"/>
  <path fill="rgb(90.980392%, 92.941176%, 91.764706%)" opacity="0.038" d="M166.711,198.668 C143.855,280.484 112.215,260.402 70.473,265.926 C8.719,241.262 -1.137,231.957 -38.621,189.43 C-64.84,121.492 -59.477,110.605 29.215,106.066 C102.203,149.223 136.402,125.203 166.711,198.668"/>
  <path fill="rgb(52.54902%, 7.058824%, 54.117647%)" opacity="0.788" d="M429.141,253.371 C405.395,416.273 386.309,401.383 282.73,442.297 C210.926,478.52 198.23,482.785 145.215,319.852 C184.797,306 225.805,331.273 292.375,269.461 C333.852,197.688 324.309,207.992 429.141,253.371"/>
  <path fill="rgb(74.117647%, 29.803922%, 78.039216%)" opacity="0.824" d="M162.191,319.824 C117.762,425.316 122.203,431.953 55.902,406.219 C65.344,361.938 60.625,365.652 -50.465,333.59 C-49.48,268.996 12.77,232.223 71.531,239.668 C108.73,305.711 149.465,297.32 162.191,319.824"/>
  <path fill="rgb(74.509804%, 36.470588%, 74.509804%)" opacity="0.98" d="M222.086,319.602 C210.223,434.312 199.398,433.922 174.727,425.969 C60.516,413.703 62.312,405.371 128.672,416.555 C130.871,367.305 136.855,346.176 86.523,321.938 C106.883,303.953 148.777,300.379 222.086,319.602"/>
  <path fill="rgb(77.254902%, 40.784314%, 80.392157%)" opacity="0.986" d="M97.66,356.77 C83.84,410.891 61.047,405.492 29.613,422.344 C16.715,404.109 14.984,395.723 5.676,398.07 C-12.555,345.949 -28.707,330.91 36.449,333.801 C62.906,334.996 56.699,341.988 97.66,356.77"/>
  <path fill="rgb(91.372549%, 100%, 65.490196%)" opacity="0.044" d="M245.945,246.977 C249.555,247.961 259.73,295.801 239.918,302.602 C225.074,296.031 228.816,278.945 215.273,257.715 C212.012,246.527 222.969,249.52 244.949,256.297 C257.77,244.906 260.469,254.219 245.945,246.977"/>
  <path fill="rgb(71.372549%, 47.058824%, 73.72549%)" opacity="0.092" d="M23.645,328.809 C59.402,329.488 56.207,324.004 60.965,354.996 C40.211,346.977 50.695,375.414 40.684,395.879 C71.652,390.438 37.469,398.602 15.531,364.598 C52.164,360.996 21.324,371.988 23.645,328.809"/>
  <path fill="rgb(43.137255%, 58.039216%, 33.333333%)" opacity="0.025" d="M396.559,347.625 C413.344,378.457 405.141,393.168 398.445,370.477 C382.492,347.691 341.266,362.684 328.473,357.461 C384.406,338.57 399.992,334.418 402.82,319.676 C390.312,311.488 389.836,313.098 396.559,347.625"/>
</svg>

