<svg xmlns="http://www.w3.org/2000/svg" width="384" height="384" viewBox="0 0 384 384">
  <defs/>
  <path fill="rgb(0%, 38.823529%, 62.745098%)" opacity="0.905" d="M90.836,91.309 C86.621,126.605 92.973,139.746 56.484,153.723 C67.402,125.902 53.566,127.531 36.703,121.203 C38.027,75.926 39.82,72.906 69.914,50.648 C90.871,57.867 92.141,61.523 90.836,91.309"/>
  <path fill="rgb(96.078431%, 95.294118%, 99.607843%)" opacity="0.009" d="M229.848,46.871 C206.113,53.406 185.809,77.332 213.773,60.992 C200.395,35.41 199.352,39.637 203.664,58.16 C190.707,63.852 200.543,54.988 206.535,41.402 C185.695,43.469 210.141,39.395 229.848,46.871"/>
  <path fill="rgb(21.568627%, 7.058824%, 92.156863%)" opacity="0.982" d="M417.93,33.699 C395.828,124.27 394.688,126.508 358.508,103.227 C369.391,88.098 361.125,109.348 359.316,103.918 C353.453,50.602 338.754,42.363 362.195,43.16 C352.383,55.141 382.121,39.172 417.93,33.699"/>
  <path fill="rgb(4.313725%, 0%, 78.823529%)" opacity="0.989" d="M78.902,56.949 C115.086,59.34 99.25,49.887 86.012,69.672 C-8.75,58.941 -54.512,43.262 7.445,35.457 C37.426,34.082 53.645,31.395 62.871,30.461 C74.332,32.164 76.195,28.871 78.902,56.949"/>
  <path fill="rgb(41.176471%, 27.058824%, 14.901961%)" opacity="0.741" d="M67.762,150.684 C71.258,152.504 58.305,168.832 62.332,143.711 C63.676,112.383 72.312,94.957 66.664,127.762 C103.84,151.762 95.316,143.918 112.27,112.453 C120.492,99.402 95.984,125.195 67.762,150.684"/>
  <path fill="rgb(23.921569%, 20.784314%, 100%)" opacity="0.933" d="M184.598,247.273 C152.223,260.438 155.48,267.852 139.008,323.238 C43.977,297.508 27.855,306.527 37.973,246.387 C72.27,194.875 91.328,220.34 80.316,173.184 C134.414,149.828 168.707,150.266 184.598,247.273"/>
  <path fill="rgb(27.058824%, 0%, 20.784314%)" opacity="0.372" d="M147.203,300.133 C130.988,283.93 138.453,280.301 154.238,252.004 C157.43,304.656 148.035,309.531 148.234,265.066 C155.262,286.062 169.957,285.082 191.832,255.195 C152.285,246.613 153.648,268.141 147.203,300.133"/>
  <path fill="rgb(47.058824%, 70.196078%, 84.705882%)" opacity="0.218" d="M69.512,54.59 C44.836,77.645 42.184,61.586 59.555,104.414 C40.422,131.77 75.574,142.891 6.809,148.98 C-6.828,37.168 33.469,110.203 60.258,55.816 C161.742,47.699 119.445,1.531 69.512,54.59"/>
  <path fill="rgb(3.921569%, 29.411765%, 99.607843%)" opacity="0.912" d="M168.148,54.242 C69.121,172.504 239.012,196.676 29.117,159.629 C-10.629,160.918 42.137,243.836 -49.07,135.043 C11.684,96.238 124.309,107.984 92.215,129.043 C101.121,10.641 57.426,19.801 168.148,54.242"/>
  <path fill="rgb(16.470588%, 28.627451%, 98.431373%)" opacity="0.377" d="M32.559,192.719 C30.461,232.883 24.203,261.629 89.727,237.309 C88.754,153.508 81.188,173.793 82.27,174.508 C71.418,174.18 29.141,170.035 16.57,184.977 C53.215,189.898 40.582,178.414 32.559,192.719"/>
  <path fill="rgb(24.313725%, 38.823529%, 42.352941%)" opacity="0.664" d="M136.688,314.102 C203.492,389.301 96.98,362.789 81.027,355.891 C9.293,383.445 -13.234,420.734 -11.066,326.332 C22.105,310.914 1.238,310.484 7.531,299.895 C-11.535,281.488 23.938,261.004 136.688,314.102"/>
  <path fill="rgb(14.901961%, 30.980392%, 27.45098%)" opacity="0.394" d="M404.145,258.43 C395.703,348.035 376.66,308.176 359.41,294.129 C352.105,162.461 400.574,302.648 248.695,294.766 C266.281,240.855 330.578,314.527 355.609,221.293 C379.742,200.754 340.52,246.211 404.145,258.43"/>
  <path fill="rgb(100%, 100%, 56.862745%)" opacity="0.717" d="M179.586,312.93 C143.945,299.773 138.227,323.367 140.734,335.965 C118.379,324.008 87.457,330.918 119.711,340.422 C139.68,340.184 166.84,347.746 157.574,361.422 C180.766,347.938 166.418,336.543 179.586,312.93"/>
  <path fill="rgb(39.607843%, 59.607843%, 95.294118%)" opacity="0.585" d="M250.895,419.227 C231.977,384.934 229.555,392.75 225.621,396.5 C223.23,392.855 221.086,384.77 231.414,394.434 C226.301,334.297 216.582,345.508 238.098,354.746 C246.398,364.906 246.539,370.277 250.895,419.227"/>
  <path fill="rgb(20%, 14.509804%, 100%)" opacity="0.901" d="M338.762,213.371 C336.07,279.348 325.422,257.57 328.363,228.328 C380.566,271.746 274.141,253.332 243.52,270.578 C188.004,178.859 232.832,179.016 299.691,160.109 C340.43,152.617 323.387,183.273 338.762,213.371"/>
  <path fill="rgb(18.431373%, 16.470588%, 90.196078%)" d="M452.223,151.258 C341.98,229.801 374.043,190.719 388.855,145.41 C406.328,65.5 310.555,131.773 243.898,68.32 C264.586,35.555 315.793,88.656 368.559,33.648 C351.285,153.508 372.828,86.266 452.223,151.258"/>
  <path fill="rgb(23.529412%, 23.921569%, 93.333333%)" d="M284.125,142.184 C230.586,298.316 274.301,236.27 178.184,239.656 C147.371,240.957 133.07,244.918 128.562,214.945 C115.262,150.875 100,184.211 154.367,127.113 C188.793,81.516 229.73,29 284.125,142.184"/>
  <path fill="rgb(9.019608%, 54.509804%, 30.196078%)" opacity="0.854" d="M366.09,277.848 C339.465,267.434 366.992,231.648 358.988,331.293 C342.809,263.895 369.684,261.684 338.543,275.977 C338.652,235.949 344.531,262.238 398.004,211.797 C387.195,328.609 357.691,262.691 366.09,277.848"/>
  <path fill="rgb(0%, 45.098039%, 30.588235%)" opacity="0.945" d="M58.395,239.762 C37.723,224.68 70.98,190.77 56.051,261.586 C-26.734,275.406 -37.273,263.469 -63.418,278.16 C-3.035,206.984 -6.641,199.715 -19.391,199.934 C48.031,187.004 41.012,182.23 58.395,239.762"/>
  <path fill="rgb(59.607843%, 47.058824%, 100%)" opacity="0.893" d="M47.938,206.098 C56.066,220.574 52.84,237.805 15.289,204.828 C31.727,180.766 64.09,190.281 75.512,212.684 C68.223,242.922 56.445,229.715 40.801,250.336 C36.234,226.238 44.734,222.094 47.938,206.098"/>
  <path fill="rgb(100%, 100%, 53.72549%)" opacity="0.005" d="M118.473,3.633 C122.426,40.391 148.699,38.359 132.578,80.871 C127.129,44.109 125.422,26.266 109.797,57.961 C112.598,59.391 127.801,61.547 159.141,56.426 C173.16,19.336 175.492,0.199 118.473,3.633"/>
  <path fill="rgb(14.901961%, 15.294118%, 97.254902%)" opacity="0.945" d="M124.203,35.902 C121.516,73.879 140.457,93.035 89.453,159.73 C62.844,108.25 57.211,105.234 14.859,50.465 C46.797,15.984 56.84,23.078 65.227,22.449 C104.398,36.438 125.027,49.375 124.203,35.902"/>
  <path fill="rgb(14.117647%, 26.27451%, 31.764706%)" opacity="0.392" d="M117.516,311.363 C123.184,321.699 125.008,312.309 134.102,323.902 C65.473,315.184 35,315.414 63.953,288.812 C74.75,284.211 105.527,282.766 90.84,302.914 C91.484,309.988 109.32,279.223 117.516,311.363"/>
  <path fill="rgb(93.333333%, 60.784314%, 18.431373%)" opacity="0.393" d="M241.543,306.609 C261.086,327.781 269.312,384.664 210.332,369.441 C90.156,383.098 187.332,348.422 118.789,314.035 C145.863,327.391 140.496,310.652 178.219,320.312 C225.438,294.73 197.086,313.797 241.543,306.609"/>
  <path fill="rgb(30.196078%, 33.72549%, 90.588235%)" opacity="0.929" d="M79.816,196.746 C71.402,237.312 59.617,257.27 34.906,281.273 C34.387,208.867 33.633,206.469 9.035,237.047 C37.344,243.148 31.469,218.777 28.121,212.645 C55.066,221.492 114.102,210.23 79.816,196.746"/>
  <path fill="rgb(43.137255%, 76.078431%, 58.431373%)" opacity="0.717" d="M76.32,335.324 C77.699,317.355 47.605,314.086 65.59,320.516 C110.465,348.484 101.023,341.535 94.871,327.859 C80.348,332.168 87.867,323.324 71.242,319.141 C72.035,321.086 76.883,308.742 76.32,335.324"/>
  <path fill="rgb(42.745098%, 15.294118%, 92.54902%)" opacity="0.116" d="M251.504,134.441 C262.914,172.695 248.898,184.219 274.914,194.105 C256.488,188.328 249.746,178.961 237.625,169.105 C265.52,150.805 262.828,154.164 246.617,149.641 C256.25,155.973 267.207,159.977 251.504,134.441"/>
  <path fill="rgb(17.254902%, 76.078431%, 83.529412%)" opacity="0.45" d="M23.992,189.48 C21.539,190.395 17.344,203.289 28.535,214.98 C20.555,208.371 33.062,178.668 -32.594,213.125 C-57.855,181.379 -1.168,181.145 23.004,189.137 C16.934,191.785 23.406,210.281 23.992,189.48"/>
  <path fill="rgb(0%, 49.411765%, 38.823529%)" d="M347.504,338.262 C359.652,332.66 460.914,333.703 417.402,394.711 C126.59,428.91 166.074,425.379 150.141,343.23 C268.5,351.008 262.988,346.555 245.605,332.551 C237.648,344.07 300.977,331.004 347.504,338.262"/>
  <path fill="rgb(98.039216%, 100%, 100%)" d="M81.992,69.711 C89.672,57.637 74.316,68.172 82.453,63.188 C59.504,55.945 68.656,65.438 63.133,59.25 C56.195,63.402 63.137,66.664 82.531,61.281 C96.328,50.59 65.594,74.219 81.992,69.711"/>
  <path fill="rgb(24.705882%, 25.098039%, 90.588235%)" opacity="0.984" d="M110.836,151.449 C167.559,227.266 183.387,236.625 120.875,263.625 C-26.426,209.273 -8.523,192.262 -5.07,130.438 C59.043,122.516 66.316,120.113 47.297,94.887 C61.695,96.449 88.336,101.844 110.836,151.449"/>
  <path fill="rgb(2.352941%, 5.882353%, 68.235294%)" opacity="0.936" d="M129.965,41.109 C168.105,45.629 228.164,39.305 225.973,77.832 C138.711,86.207 137.422,58.402 106.215,62.453 C92.02,36.418 89.832,36.965 128.547,34.797 C150.852,48.379 157.605,53.539 129.965,41.109"/>
  <path fill="rgb(21.960784%, 57.647059%, 10.196078%)" opacity="0.998" d="M166.391,427.703 C200.438,375.719 195.484,391.82 160.598,433.828 C148.449,409.887 144.887,383.777 136.746,361.617 C81.934,358.238 131.293,355.758 149.109,352.82 C144.598,391.629 157.16,415.516 166.391,427.703"/>
  <path fill="rgb(12.54902%, 14.117647%, 89.803922%)" opacity="0.137" d="M187.418,169.879 C167.18,177.121 166.863,169.168 170.527,179.648 C140.145,179.484 124.832,200.445 189.453,193.785 C191.379,155.359 195.039,133.898 172.078,154.219 C164.363,167.02 183.949,190.164 187.418,169.879"/>
  <path fill="rgb(43.137255%, 30.588235%, 100%)" opacity="0.421" d="M177.07,119.945 C196.34,136.387 196.816,144.965 167.77,139.484 C146.641,133.852 154.078,118.207 144.367,136.797 C144.449,126.156 173.973,128.043 161.328,107.559 C137.434,109.504 142.715,138.074 177.07,119.945"/>
  <path fill="rgb(25.882353%, 27.058824%, 93.72549%)" opacity="0.437" d="M129.246,115.246 C118.688,133.512 144.281,165.301 111.156,165.09 C62.797,175.512 79.059,152.871 27.953,154.77 C29.082,75.254 78.977,122.254 126.395,101.031 C141.508,94.418 140.922,91.727 129.246,115.246"/>
  <path fill="rgb(26.27451%, 54.901961%, 65.490196%)" opacity="0.278" d="M67.652,119.578 C74.766,121.715 79.902,130.586 33.402,126.711 C41.707,98.488 47.867,124.852 43.168,126.301 C67.242,117.77 59.547,107.594 60.41,83.395 C66.758,114.629 62.055,123.012 67.652,119.578"/>
  <path fill="rgb(10.980392%, 14.901961%, 99.215686%)" opacity="0.574" d="M343.32,62.75 C353.441,36.637 372.703,44.117 378.332,83.25 C290.73,136.969 311.25,81.758 304.965,65.477 C322.629,53.254 359.609,66.859 371.363,44.957 C349.5,54.059 345.199,44.297 343.32,62.75"/>
  <path fill="rgb(38.823529%, 31.764706%, 100%)" opacity="0.277" d="M114.094,270.633 C100.199,302.027 118.656,274.25 117.996,274.863 C88.965,264.262 51.297,264.602 29.152,250.148 C85.656,195.105 51.848,254.754 43.973,296.27 C91.383,299.531 87.562,282.945 114.094,270.633"/>
  <path fill="rgb(65.490196%, 49.803922%, 55.686275%)" opacity="0.167" d="M159.312,310.875 C160.172,307.188 160.02,324.105 150.199,317.012 C143.422,300.129 156.117,269.594 165.277,278.258 C145.176,302.293 152.656,286.41 154.148,266.969 C136.074,295.805 136.453,292.789 159.312,310.875"/>
  <path fill="rgb(18.823529%, 19.215686%, 100%)" opacity="0.966" d="M132.941,121.762 C115.883,113.816 117.793,103.52 140.316,139.898 C93.605,129.164 95.141,90.004 126.938,86.477 C108.57,75.738 138.98,27.078 182.109,52.523 C188.785,123.129 175.48,118.797 132.941,121.762"/>
  <path fill="rgb(45.490196%, 27.45098%, 92.941176%)" opacity="0.439" d="M160.137,142.07 C110.621,117.637 146.355,92.004 144.035,140.699 C137.941,136.469 112.172,114.352 138.738,93.137 C123.977,106.25 113.52,88.758 147.23,106.637 C172.914,101.312 180.953,108.035 160.137,142.07"/>
  <path fill="rgb(7.45098%, 13.333333%, 20%)" opacity="0.831" d="M80.59,65.234 C103.707,55.773 79.816,57.887 27,93.246 C25.766,143.168 37.551,102.914 43.223,58.516 C70.691,51.141 50.723,64.641 86.988,95.543 C87.484,102.406 99.078,89.082 80.59,65.234"/>
  <path fill="rgb(43.137255%, 38.039216%, 61.176471%)" opacity="0.568" d="M378.863,201.789 C397.887,241.633 394.793,245.43 390.805,235.43 C383.656,228.461 362.766,254.359 362.613,213.531 C407.43,217.676 420.336,216.676 394.449,201.641 C358.527,199.859 361.312,215.719 378.863,201.789"/>
  <path fill="rgb(29.803922%, 21.960784%, 93.333333%)" opacity="0.591" d="M83.293,219.914 C58.348,267.016 21.004,276.895 26.133,213.812 C13.195,202.477 -10.832,229.566 -53.793,193.934 C-33.938,200.543 -38.348,196.246 9.598,212.328 C27.707,208.859 10.867,221.098 83.293,219.914"/>
  <path fill="rgb(79.607843%, 76.862745%, 38.823529%)" opacity="0.122" d="M7.965,88.605 C11.52,90.031 -5.652,88.402 -39.137,88.668 C-31.82,108.625 9.66,124.195 31.055,101.875 C3.199,87.527 -2.891,72.281 -15.543,73.195 C0.523,82.297 10.18,94.852 7.965,88.605"/>
  <path fill="rgb(100%, 100%, 96.862745%)" d="M43.402,49.059 C105.105,77.398 116.031,76.641 71.465,96.125 C-33.707,85.527 -40.566,85.367 -51.148,69.324 C-23.688,41.738 -21.918,39.359 7.273,101.5 C31.906,85.305 2.008,39.41 43.402,49.059"/>
  <path fill="rgb(16.862745%, 24.313725%, 90.588235%)" opacity="0.623" d="M154.562,133.227 C165.258,132.258 169.035,123.48 166.035,142.117 C110.723,158.973 116.211,176.207 115.82,131.734 C100.285,103.75 102.23,108.273 147.984,114.305 C157.73,122.328 168.164,130.551 154.562,133.227"/>
  <path fill="rgb(0%, 49.411765%, 36.078431%)" opacity="0.788" d="M403.66,341.605 C400.754,340.148 383.984,330.512 380.777,453.246 C393.535,434.535 367.359,413.48 355.777,343.129 C347.562,219.777 382.68,232.688 397.785,267.426 C405.531,305.719 407.66,311.445 403.66,341.605"/>
  <path fill="rgb(21.568627%, 10.196078%, 49.411765%)" opacity="0.96" d="M313.852,267.492 C314.957,290.836 278.816,264.297 256.824,259.199 C243.695,265.711 235.492,282.168 248.551,279.496 C268.777,275.746 274,287.055 274.652,259.926 C275.066,299.27 285.973,276.586 313.852,267.492"/>
  <path fill="rgb(25.490196%, 20%, 100%)" opacity="0.924" d="M340.117,280.184 C257.363,303.395 279.195,301.441 252.363,275.84 C220.297,286.098 245.539,296.398 236.168,250.145 C241.77,262.18 229.195,263.219 223.609,225.613 C274.766,194.871 310.82,173.535 340.117,280.184"/>
  <path fill="rgb(21.176471%, 23.137255%, 90.588235%)" opacity="0.946" d="M80.488,136.188 C41.176,135.09 41.957,150.656 38.973,112.57 C64.621,115.344 52.77,121.523 45.168,149.402 C23.082,115.855 24.488,105.723 38.09,87.977 C127.102,83.109 109.852,98.363 80.488,136.188"/>
  <path fill="rgb(98.039216%, 100%, 73.333333%)" opacity="0.076" d="M371.203,64.266 C417.828,48.965 414.43,48.379 396.465,50.949 C373.637,50.082 360.57,62 320.609,63.742 C360.484,78.969 352.441,78.156 350.25,24.312 C363.914,18.199 367.734,19.422 371.203,64.266"/>
  <path fill="rgb(3.529412%, 20.392157%, 76.862745%)" opacity="0.084" d="M164.859,181.66 C232.203,185.668 208.625,211.648 215.52,174.48 C184.367,173.043 170.52,186.434 196.672,179.918 C205.121,173.871 223.59,144.855 194.465,133.152 C161.797,162.242 163.613,180.195 164.859,181.66"/>
  <path fill="rgb(23.529412%, 27.843137%, 18.823529%)" opacity="0.795" d="M22.121,310.418 C4.699,336.871 10.672,336.164 18.547,360.906 C-14.473,350.238 -38.867,352.691 -29.648,331.426 C-17.266,314.582 -24.848,301.34 19.93,261.562 C18.152,288.727 36.012,294.469 22.121,310.418"/>
  <path fill="rgb(60.392157%, 66.666667%, 96.078431%)" opacity="0.369" d="M407.176,115.895 C375.527,120.543 366.691,108.957 351.227,96.09 C367.062,98.336 367.992,95.02 376.055,69.402 C367.945,66.969 357.938,89.039 369.898,80.801 C397.023,92.012 404.535,83.094 407.176,115.895"/>
  <path fill="rgb(9.411765%, 11.372549%, 80.392157%)" opacity="0.896" d="M212.879,315.5 C217.887,324.434 196.688,327.332 188.66,293.723 C227.859,294.973 220.73,304.301 216.109,307.551 C189.242,312.773 180.723,302.941 218.766,274.891 C229.312,316.836 207.438,332.223 212.879,315.5"/>
  <path fill="rgb(16.078431%, 38.823529%, 67.843137%)" opacity="0.915" d="M418.434,307.797 C386.055,328.363 358.672,352.602 283.074,334.613 C320.086,266.688 349.918,225.883 330.629,160.457 C298.125,181.293 316.727,174.023 370.199,168.48 C393.539,203.633 408.512,179.812 418.434,307.797"/>
  <path fill="rgb(0%, 0%, 26.666667%)" d="M281.93,264.027 C277.492,285.371 323.234,252.84 317.914,314.543 C197.047,316.598 240.242,293.062 239.719,319.789 C281.988,306.938 230.586,253.742 237.297,225.051 C283.633,235.469 290.781,239.434 281.93,264.027"/>
  <path fill="rgb(26.27451%, 23.137255%, 92.941176%)" opacity="0.955" d="M154.484,129.25 C143,197.992 133.828,177.652 81.328,181.043 C62.711,166.625 58.492,143.785 108.32,133.625 C124.738,110.766 122.152,90.664 153.027,90.062 C155.992,79.477 150.652,89.164 154.484,129.25"/>
  <path fill="rgb(22.352941%, 50.980392%, 63.921569%)" opacity="0.15" d="M41.297,224.508 C32.184,229.895 20.414,222.965 30.832,185.402 C64.301,204.484 40.574,212.027 -5.199,222.57 C1.055,169.215 5.797,181.445 15.246,208.312 C56.441,195.324 33.324,193.258 41.297,224.508"/>
  <path fill="rgb(2.352941%, 37.647059%, 58.039216%)" opacity="0.117" d="M263.102,193.566 C281.586,195.168 272.535,175.352 263.438,172.43 C278.324,188.594 277.168,179.234 264.012,147.266 C250.918,195.219 276.195,164.727 245.605,173.508 C271.238,178.105 271.582,170.613 263.102,193.566"/>
  <path fill="rgb(46.666667%, 50.980392%, 20.784314%)" opacity="0.363" d="M366.641,354.93 C364.199,353.336 356.047,356.195 302.32,343.512 C296.449,345.18 259.375,344.258 239.527,344.586 C234.66,323.086 250.984,326.867 298.188,315.773 C378.801,311.766 337.504,319.688 366.641,354.93"/>
  <path fill="rgb(7.843137%, 33.72549%, 94.117647%)" opacity="0.109" d="M-35.383,162.02 C9.387,180.531 -7.434,181.281 -24.465,183.016 C-7.746,200.289 -20.621,198.105 -13.496,154.461 C-13.059,144.375 -5.949,128.465 14.141,146.254 C13.648,194.41 -28.32,157.938 -35.383,162.02"/>
  <path fill="rgb(0%, 52.941176%, 13.333333%)" opacity="0.674" d="M379.352,332.855 C432.695,351.273 396.918,384.207 344.344,345.273 C319.641,339.059 285.156,352.418 289.777,331 C306.691,334.004 319.508,343.316 326.281,335.934 C366.508,311.398 375.355,318.426 379.352,332.855"/>
  <path fill="rgb(29.019608%, 43.529412%, 86.666667%)" opacity="0.094" d="M321.926,274.934 C324.609,260.07 325.238,278.426 338.539,271.379 C304.949,269.934 315.492,266.043 352.273,270.441 C334.758,290.473 325.309,268.855 340.707,265.617 C322.676,273.234 315.426,271.574 321.926,274.934"/>
  <path fill="rgb(5.098039%, 62.745098%, 47.45098%)" opacity="0.187" d="M290.039,382.715 C288.902,407.379 287.34,399.156 273.887,400.484 C260.938,431.934 254.641,433.562 257.203,366.316 C251.363,362.227 274.273,372.078 291.859,371.203 C276.031,341.887 295.488,344.32 290.039,382.715"/>
  <path fill="rgb(0%, 27.45098%, 19.215686%)" opacity="0.192" d="M108.422,341.645 C106.043,331.621 116.914,312.555 86.508,310.883 C91.02,345 101.457,376.605 89.953,359.98 C91.055,322.328 112.465,315.965 107.27,342.062 C72.363,334.062 103.656,337.176 108.422,341.645"/>
  <path fill="rgb(84.313725%, 53.72549%, 100%)" opacity="0.767" d="M8.488,123.234 C24.797,115.359 17.25,117.926 -26.711,121.711 C4.207,138.488 18.969,130.484 19.668,156.367 C12.32,115.801 30.453,103.648 25.762,111.434 C20.395,104.215 13.82,98.504 8.488,123.234"/>
  <path fill="rgb(50.980392%, 100%, 0%)" opacity="0.899" d="M103.051,350.449 C132.391,368.375 93.316,361.23 56.879,362.77 C44.863,340.699 39.426,329.734 60.484,344.82 C52.207,323.992 53.391,314.887 71.852,310.727 C53.07,313.492 51.121,343.059 103.051,350.449"/>
  <path fill="rgb(4.313725%, 46.666667%, 79.607843%)" opacity="0.511" d="M-20.562,106.875 C-7.098,164.105 1.168,152.195 42.414,132.203 C30.531,132.629 0.758,138.473 11.922,136.645 C51.414,138.344 32.203,144.23 40.547,138.23 C59.551,118.859 36.711,97.473 -20.562,106.875"/>
  <path fill="rgb(23.921569%, 49.411765%, 55.294118%)" opacity="0.992" d="M122.684,313.195 C158.715,313.473 145.578,361.059 94.492,351.008 C56.766,340.473 34.824,355.73 33.535,321.84 C48.562,311.434 74.559,293.438 109.277,260.559 C138.102,300.41 119.742,311.379 122.684,313.195"/>
  <path fill="rgb(95.294118%, 43.137255%, 9.411765%)" opacity="0.266" d="M182.562,244.965 C195.48,262.43 201.172,279.617 191.078,272.32 C143.953,272.227 135.898,300.816 163.645,295.375 C153.441,268.309 170.379,252.184 247.625,235.262 C224.672,199.855 186.855,239.406 182.562,244.965"/>
  <path fill="rgb(98.823529%, 100%, 54.117647%)" opacity="0.066" d="M367.645,27.648 C406.621,17.227 410.395,13.863 371.676,48.945 C340.676,38.453 341.125,-6.023 315.449,12.129 C362.242,3.758 365.875,4.066 368.949,24.324 C364.965,23.852 347.988,37.355 367.645,27.648"/>
  <path fill="rgb(100%, 32.941176%, 20.392157%)" opacity="0.86" d="M165.973,271.738 C140.891,303.621 162.832,294.805 145.707,311.312 C169.492,309.598 189.211,322.09 149.156,317.297 C145.832,279.797 160.508,284.707 181.965,268.973 C158.086,252.281 185.051,248.773 165.973,271.738"/>
  <path fill="rgb(73.333333%, 18.039216%, 85.098039%)" opacity="0.648" d="M34.59,323.488 C88.41,324.59 74.266,313.852 52.043,282.32 C41.773,310.918 32.68,354.195 44.781,322.695 C45.594,291.625 25.691,333.633 36.938,314.664 C70.207,295.008 13.789,316.637 34.59,323.488"/>
  <path fill="rgb(2.352941%, 34.509804%, 63.529412%)" opacity="0.712" d="M28.641,104.395 C21.035,138.445 25.301,121.59 22.375,134.145 C7,125.754 -6.227,134.109 -53.223,126.461 C-10.004,98.926 -0.645,109.078 17.234,101.898 C5.41,90 37.312,74.496 28.641,104.395"/>
  <path fill="rgb(6.666667%, 14.509804%, 86.666667%)" opacity="0.932" d="M379.043,89.719 C353.059,66.508 346.055,49.324 331.352,64.195 C331.57,84.16 345.566,83.828 384.758,94.164 C382.945,101.934 402.82,88.691 381.727,-33.148 C351.668,-12.156 352,38.598 379.043,89.719"/>
  <path fill="rgb(0%, 0%, 49.019608%)" opacity="0.3" d="M294.43,262.934 C270.758,290.984 249.605,278.031 271.395,277.453 C280.594,258.848 284.629,265.316 236.906,277.773 C247.395,282.145 241.453,275.965 248.137,287.062 C254.578,254.168 278.668,253.773 294.43,262.934"/>
  <path fill="rgb(46.666667%, 10.980392%, 76.862745%)" opacity="0.36" d="M152.941,158.086 C156.211,162.043 151.215,164.801 141.379,156.707 C158.055,162.734 171.082,130.504 142.551,146.406 C159.516,131.223 143.461,104.957 154.77,107.27 C155.309,117.645 171.312,118.289 152.941,158.086"/>
  <path fill="rgb(0%, 30.980392%, 69.411765%)" opacity="0.088" d="M77.668,106.461 C76.984,111.809 78.301,128.152 95.051,111.926 C71.973,108.789 87.547,125.895 79.121,131.023 C92.258,127.883 94.688,121.941 70.363,130.672 C60.559,101.121 47.25,117.379 77.668,106.461"/>
  <path fill="rgb(20.392157%, 17.254902%, 100%)" opacity="0.624" d="M366.961,37.887 C352.879,45.43 361.656,80.449 326.207,59.355 C293.469,73.965 294.875,94.633 294.922,59.754 C338.449,69.996 335.73,61.285 375.523,37.543 C346.488,63.5 367.691,62.512 366.961,37.887"/>
  <path fill="rgb(10.588235%, 0%, 43.921569%)" opacity="0.621" d="M53.855,330.164 C22.133,342.719 10.215,325.973 19.777,373.965 C-44.926,376.039 -20.43,343.035 1.555,336.719 C-4.965,291.801 24.828,311.684 30.082,298.082 C40.215,308.664 51.906,293.707 53.855,330.164"/>
  <path fill="rgb(14.117647%, 19.607843%, 42.745098%)" opacity="0.802" d="M65.266,294.453 C84.152,259.844 84.672,216.137 90.629,328.898 C68.414,360.188 -9.031,349.375 -34.379,317.172 C-5.258,236.031 7.012,250.164 48.395,264.812 C43.445,262.52 45.363,243.008 65.266,294.453"/>
  <path fill="rgb(6.666667%, 50.588235%, 30.196078%)" opacity="0.995" d="M166.84,350.164 C154.195,454.148 165.098,489.066 112.676,468.703 C13.867,404.301 6.648,398.535 -47.832,355.312 C-37.059,333.41 -7.875,330.801 33.078,327.398 C120.926,323.32 94.309,324.965 166.84,350.164"/>
  <path fill="rgb(97.254902%, 76.862745%, 61.176471%)" opacity="0.889" d="M254.625,246.832 C226.344,288.395 184.508,251.766 200.758,273.129 C174.562,261.523 120.891,275.195 184.191,275.188 C178.789,247.379 191.031,228.578 225.609,226.668 C241.793,227.695 264.207,228.25 254.625,246.832"/>
  <path fill="rgb(26.27451%, 48.627451%, 81.960784%)" opacity="0.058" d="M55.883,253.137 C70.434,265.875 68.734,278.332 49.453,298 C33.094,269.941 -8.391,272.555 -10.641,266.98 C-10.363,224.395 -6.328,225.719 43.812,242.172 C65.543,249.328 62.312,258.07 55.883,253.137"/>
  <path fill="rgb(21.568627%, 18.039216%, 93.72549%)" opacity="0.999" d="M45.449,142.234 C5.152,137.156 9.242,120.488 27.402,118.473 C17.102,143.965 38.133,156.164 16.125,152.461 C-13.387,153.965 -39.492,133.629 -11.059,83.559 C70.215,89.824 56.598,83.762 45.449,142.234"/>
  <path fill="rgb(12.941176%, 48.627451%, 95.294118%)" opacity="0.353" d="M289.035,101.719 C289.055,99.633 301.652,95.086 315.98,103.059 C298.324,105.023 293.215,106.84 287.965,96.941 C296.918,81.926 293.191,115.465 307.688,94.461 C276.648,72.918 288,94.195 289.035,101.719"/>
  <path fill="rgb(6.666667%, 42.352941%, 82.352941%)" opacity="0.016" d="M8.672,158.668 C-18.984,117.531 -6.406,124.445 16.355,129.473 C6.355,124.762 26.383,126.469 2.16,146.047 C4.707,130.586 26.109,144.48 8.727,140.891 C24.434,140.211 51.441,154.68 8.672,158.668"/>
  <path fill="rgb(8.235294%, 20.784314%, 53.333333%)" opacity="0.716" d="M376.105,303.203 C373.957,328.898 303.996,337.344 319.512,322.77 C318.133,284.137 329.211,307.133 364,305.082 C338.566,291.48 348.723,278 343.125,278.332 C348.91,314.297 327.742,297.297 376.105,303.203"/>
  <path fill="rgb(11.372549%, 16.470588%, 98.039216%)" opacity="0.929" d="M375.125,89.277 C331.805,87.867 332.934,76.648 310.496,58.961 C332.512,57.445 343.008,35.027 361,48.887 C344.426,64.234 341.672,43.086 353.133,28.836 C409.371,34.879 406.121,55.32 375.125,89.277"/>
  <path fill="rgb(44.705882%, 16.862745%, 29.019608%)" opacity="0.642" d="M9.723,-6.031 C-3.004,-13.293 -0.152,-4.199 -7.676,17.633 C-12.297,11.512 -5.012,21.594 -17.906,10.633 C-4.121,-8.637 -1.891,-10.824 18.129,-11.129 C26.043,-11.34 4.625,-8.773 9.723,-6.031"/>
  <path fill="rgb(20.784314%, 42.745098%, 35.294118%)" opacity="0.33" d="M218.016,344.348 C235.633,359.695 205.594,344.66 226.316,316.617 C189.223,307.934 181.949,307.469 216.883,306.504 C243.086,331.145 206.637,325.445 177.469,318.938 C200.969,302.949 217.152,303.922 218.016,344.348"/>
  <path fill="rgb(71.372549%, 100%, 36.862745%)" opacity="0.016" d="M333.461,58.32 C328.668,75.43 297.078,64.512 284.93,46.816 C264.832,54.914 235.785,62.703 219.52,42.102 C266.391,25.453 283.219,34.223 282.586,36.711 C319.629,31.191 290.816,46.152 333.461,58.32"/>
  <path fill="rgb(6.666667%, 50.980392%, 3.529412%)" opacity="0.479" d="M414.691,315.496 C410.242,330.391 410.945,332.559 382.426,346.324 C365.727,349.195 361.559,316.492 389.207,295.812 C403.27,304.621 398.934,320.668 412.328,312.414 C400.602,289.383 410.516,291.395 414.691,315.496"/>
  <path fill="rgb(11.372549%, 13.333333%, 96.862745%)" d="M153.504,66.02 C139.93,80.961 121.086,82.406 109.863,63.23 C86.609,75.152 105.793,69.16 62.883,66.332 C53.484,29.426 52.211,23.707 87.723,24.199 C125.863,28.969 141.793,42.191 153.504,66.02"/>
  <path fill="rgb(50.980392%, 6.27451%, 100%)" opacity="0.552" d="M389.055,173.59 C402.781,265.898 404.602,261.301 359.902,246.344 C357.715,221.777 357.25,216.281 367.988,226.391 C336.938,213.57 321.18,212.25 331.918,186.922 C371.746,185.27 376.633,167.395 389.055,173.59"/>
  <path fill="rgb(55.686275%, 30.588235%, 93.72549%)" opacity="0.345" d="M66.309,331.566 C99.098,339.262 92.723,307.27 52.152,284 C57.117,298.23 52.848,329.629 40.969,315.977 C72.797,307.113 110.086,302.031 49.965,314.438 C56.031,321.902 67.711,309.121 66.309,331.566"/>
  <path fill="rgb(43.137255%, 32.54902%, 1.568627%)" opacity="0.441" d="M215.336,320.102 C183.535,324.527 173.398,319.277 210.113,340.438 C213.191,285.539 214.598,293.918 214.66,343.094 C205.703,270.402 241.406,282.453 200.805,260.438 C200.262,285.977 212.664,303.188 215.336,320.102"/>
  <path fill="rgb(16.470588%, 29.803922%, 56.470588%)" opacity="0.486" d="M379.086,280.637 C378.359,233.844 389.172,285.508 364.137,282.129 C325.402,286.617 354.602,303.719 352.594,281.859 C353.129,261.129 334.777,284.18 337.465,301.602 C330.461,273.438 364.02,280.492 379.086,280.637"/>
  <path fill="rgb(100%, 60%, 25.490196%)" opacity="0.91" d="M301.305,261.129 C345.379,330.156 314.766,378.734 241.902,327.254 C148.934,345.734 127.953,347.57 152.223,299.332 C162.711,262.418 167.547,248.348 192.195,240.738 C249.398,220.363 272.93,235.543 301.305,261.129"/>
  <path fill="rgb(1.176471%, 21.176471%, 84.313725%)" opacity="0.142" d="M129.445,106.559 C109.508,126.578 98.285,135.414 123.121,109.824 C106.621,100.051 107.109,102.863 103.879,161.539 C123.824,145.125 126.004,119.082 132.516,108.781 C96.215,95.434 91.133,98.75 129.445,106.559"/>
  <path fill="rgb(13.333333%, 16.078431%, 90.196078%)" opacity="0.892" d="M270.258,69.234 C202.68,166.895 179.816,169.902 131.699,159.473 C137.73,128.156 150.805,146.047 142.438,163.352 C147.215,97.809 114.105,121.762 110.395,74.137 C142.984,46.895 185.484,46.699 270.258,69.234"/>
  <path fill="rgb(0%, 45.098039%, 42.745098%)" opacity="0.558" d="M189.355,384.723 C205.488,387.973 191.66,387.246 213.766,432.215 C121.359,436.992 112.41,413.191 87.973,357.125 C111.512,341.309 130.949,351.285 160.969,342.715 C170.961,340.262 159.613,344.672 189.355,384.723"/>
  <path fill="rgb(20.784314%, 65.490196%, 0%)" opacity="0.73" d="M352.219,163.488 C341.293,143.16 338.883,134.871 305.445,137.527 C300.969,159.371 312.855,130.602 314.508,124.27 C291.703,125.449 322.934,136.059 301.227,148.434 C329.516,150.109 357.27,139.746 352.219,163.488"/>
  <path fill="rgb(18.431373%, 16.862745%, 91.372549%)" opacity="0.997" d="M395.078,132.363 C411.871,225.66 350.289,241.973 301.082,180.441 C310.684,158.051 229.035,202.848 166.242,47.832 C224.508,19.832 289.562,53.906 320.383,103.211 C266.074,127.68 275.609,129.02 395.078,132.363"/>
  <path fill="rgb(54.509804%, 40%, 41.568627%)" opacity="0.16" d="M54.926,347.91 C46.586,345.477 58.914,333.242 47.293,329.867 C69.391,334.746 67.383,336.578 59.441,333.316 C35.312,334.648 19.023,328.508 17.473,342.777 C51.172,329.594 55.973,323.938 54.926,347.91"/>
  <path fill="rgb(25.098039%, 23.137255%, 94.509804%)" opacity="0.785" d="M37.285,127.832 C70.469,131.223 70.465,153.566 6.84,164.199 C-38.93,158.008 -25.934,130.695 18.398,129.414 C38.621,118.387 55.824,111.965 49.879,132.387 C11.492,139.152 14.621,139.266 37.285,127.832"/>
  <path fill="rgb(27.45098%, 45.882353%, 81.960784%)" opacity="0.098" d="M185.855,188 C190.535,176.84 171.98,190.609 154.031,182.902 C153.348,178.039 147.711,174.859 171.363,180.078 C165.219,174.465 174.805,172.938 144.988,175.223 C142.949,180.504 187.188,183.68 185.855,188"/>
  <path fill="rgb(40%, 20.784314%, 97.254902%)" opacity="0.288" d="M67.613,231.773 C75.527,254.809 54.684,248.703 35.848,253.004 C33.738,265.664 41.961,270.582 41.5,263.445 C30.902,282.426 38.652,288.375 68.398,284.836 C55.832,248.176 43.762,242.16 67.613,231.773"/>
  <path fill="rgb(32.54902%, 28.235294%, 97.254902%)" opacity="0.626" d="M297.352,181.867 C305.949,221.902 271.543,211.047 238.734,203.648 C251.699,197.297 228.801,210.191 254.926,202.977 C243.473,167.332 236.441,199.434 235.363,141.508 C239.695,143.668 259.07,136.164 297.352,181.867"/>
  <path fill="rgb(26.27451%, 29.411765%, 46.27451%)" opacity="0.482" d="M147.918,358.832 C146.504,348.59 146.672,371.023 146.242,342.984 C130.043,341.062 101.016,336.891 142.75,327.152 C140.957,322.91 145.648,280.012 137.82,322.414 C145.453,379.324 147.242,346.223 147.918,358.832"/>
</svg>

