<svg xmlns="http://www.w3.org/2000/svg" width="384" height="384" viewBox="0 0 384 384">
  <defs/>
  <path fill="rgb(54.901961%, 92.156863%, 96.078431%)" opacity="0.32" d="M369.242,49.363 C308.398,58.133 325.609,76.898 334.387,92.258 C279.934,92.41 319.27,104.434 321.227,55.863 C291.359,26.324 269.758,73.633 273.074,-1.512 C311.473,-49.148 350.586,-26.457 369.242,49.363"/>
  <path fill="rgb(87.058824%, 97.647059%, 44.313725%)" opacity="0.235" d="M158.07,358.945 C96.738,348.816 114.168,319.559 134.52,383.789 C65.457,388.336 87.328,377.828 55.82,338.98 C50.488,314.848 61.266,326.438 93.344,333.129 C118.035,349.508 152.645,339.078 158.07,358.945"/>
  <path fill="rgb(41.960784%, 82.745098%, 97.254902%)" opacity="0.767" d="M359.645,61.938 C375.301,197.016 379.074,174.965 262.688,204.965 C156.078,131.602 179.676,123.055 174.141,36.816 C146.051,16.137 139.121,3.25 164.914,-17.348 C337.094,-55.297 334.277,-49.703 359.645,61.938"/>
  <path fill="rgb(97.254902%, 97.254902%, 42.745098%)" opacity="0.481" d="M372.242,375.602 C368.988,372.418 345.613,365.336 357.438,360.277 C349.176,384.766 349.992,349.895 349.203,342.352 C387.641,348.43 402.641,346.594 340.074,333.953 C350.707,323.246 358.18,319.16 372.242,375.602"/>
  <path fill="rgb(100%, 100%, 100%)" d="M430.363,65.332 C385.805,121.449 362.16,115.898 352.273,83.344 C294.422,74.523 264.906,86.453 306.129,65.652 C343.684,66.883 320.293,14.598 332.68,15.438 C412.457,18.074 420.527,19.578 430.363,65.332"/>
  <path fill="rgb(92.156863%, 81.568627%, 85.098039%)" opacity="0.142" d="M122.137,280.727 C135.137,287.914 122.582,376.16 129.305,355.949 C99.516,354.57 82.914,347.797 69.727,341.367 C113.586,385.281 113.535,370.859 117.852,349.805 C159.43,366.168 140.891,347.883 122.137,280.727"/>
  <path fill="rgb(57.647059%, 49.019608%, 61.960784%)" opacity="0.34" d="M143.555,72.477 C129.246,138.863 123.398,146.328 61.773,129.684 C113.902,158.176 100.203,114.75 74.719,109.371 C58.395,89.812 59.953,73.848 133.762,87.105 C136.328,96.121 143.316,45.078 143.555,72.477"/>
  <path fill="rgb(52.156863%, 85.490196%, 97.647059%)" opacity="0.955" d="M232.637,33.699 C250.461,105.715 182.258,95.289 118.793,59.414 C84.402,57.605 50.105,70.309 31.004,28.113 C-5.812,24.742 -24.129,45.457 0.551,-1.797 C238.105,-90.805 237.309,-91.277 232.637,33.699"/>
  <path fill="rgb(6.666667%, 0%, 40.392157%)" opacity="0.985" d="M456.418,181 C399.508,242.586 415.922,210.184 364.734,225.785 C289.348,208.812 331.906,215.809 224.203,194.254 C243.781,154.375 236.109,212.977 329.77,197.262 C361.297,174.488 408.793,209.828 456.418,181"/>
  <path fill="rgb(98.431373%, 65.098039%, 17.254902%)" opacity="0.69" d="M281.945,331.5 C278.871,417.922 302.137,370.184 179.875,399.195 C66.199,397.918 39.613,425.426 -90.566,328.555 C3.215,192.266 44.883,254.809 121.711,259.969 C140.984,256.176 171.98,281.562 281.945,331.5"/>
  <path fill="rgb(0%, 51.372549%, 57.647059%)" opacity="0.976" d="M428.328,278.004 C370.727,360.996 351.766,318.227 363.32,291.316 C255.344,315.535 282.391,330.477 230.293,261.043 C280.445,216.418 226.59,197.801 344.676,253.531 C405.078,274.324 379.207,215.168 428.328,278.004"/>
  <path fill="rgb(0%, 53.72549%, 61.176471%)" opacity="0.873" d="M318.461,232.453 C369.516,299.793 294.242,265.012 244.773,283.352 C156.898,259.348 128.387,266.715 173.188,273.078 C229.668,255.52 229.496,241.461 247.711,265.707 C228.125,251.969 201.309,253.5 318.461,232.453"/>
  <path fill="rgb(53.333333%, 85.882353%, 100%)" opacity="0.959" d="M467.246,93.977 C430.617,202.523 410.762,188.68 364.434,190.207 C333.02,194.984 384.852,145.172 250.59,231.141 C202.23,89.984 341.379,78.41 333.477,81.871 C470.953,79.406 474.297,70.121 467.246,93.977"/>
  <path fill="rgb(68.627451%, 33.333333%, 21.960784%)" opacity="0.699" d="M88.555,352.648 C64.324,357.246 76.02,330.77 70.531,333.77 C40.648,324.727 40.488,329.488 5.016,342.629 C25.621,323.445 18.762,280.922 62.73,231.508 C39.641,338.617 5.164,371.688 88.555,352.648"/>
  <path fill="rgb(14.509804%, 72.54902%, 76.078431%)" opacity="0.428" d="M179.902,262.871 C126.539,278.07 63.273,236.992 -23.496,246.02 C56.793,300.582 54.922,299.133 -21.301,246.363 C90.098,215.688 17.297,247.723 104.266,238.176 C171.23,266.465 134.961,232.637 179.902,262.871"/>
  <path fill="rgb(95.686275%, 89.019608%, 26.27451%)" opacity="0.133" d="M127.594,288.812 C70.324,289.309 57.41,283.359 17.637,276.078 C18.52,308.895 14.492,352.699 0.496,332.492 C-16.465,266.305 -11.367,264.18 13.543,206.203 C-19.609,291.066 87.418,265.934 127.594,288.812"/>
  <path fill="rgb(1.176471%, 23.137255%, 45.098039%)" opacity="0.863" d="M449.832,283.316 C368.285,292.445 294.648,278.566 315.23,292.398 C257.484,292.172 213.957,303.41 161.617,264.875 C292.59,279.852 241.176,283.082 301.672,274.664 C366.625,295.094 335.469,311.453 449.832,283.316"/>
  <path fill="rgb(14.509804%, 74.901961%, 93.333333%)" opacity="0.448" d="M143.438,123.43 C70.957,245.746 8.676,275.598 58.719,233.621 C-28.176,220.484 -57.586,242.07 -69.414,224.539 C-85.066,80.145 -128.812,60.125 -24.285,56.434 C55.691,113.012 132.066,89.707 143.438,123.43"/>
  <path fill="rgb(100%, 80.392157%, 45.490196%)" opacity="0.979" d="M422.633,365.566 C342.816,351.859 437.797,362.234 364,415.719 C251.191,416.613 205.883,423.934 169.957,288.504 C292.434,284.754 333.418,298.301 332.938,283.695 C362.289,314.824 412.617,269.945 422.633,365.566"/>
  <path fill="rgb(0%, 59.607843%, 68.627451%)" d="M466.414,316.684 C339.164,323.016 312.219,309.344 226.059,297.391 C162.148,283.27 186.117,291.867 65.953,252.336 C169.418,241.152 219.266,269.629 258.562,264.137 C264.375,272.723 273.336,220.23 466.414,316.684"/>
  <path fill="rgb(57.647059%, 85.882353%, 95.686275%)" opacity="0.975" d="M244.527,76.5 C278.312,231.719 207.348,210.672 111.73,196.934 C101.898,185.648 77.402,149.512 -46.766,8.688 C127.293,-61.727 62.066,43.809 163.031,70.906 C166.465,45.582 127.082,81.508 244.527,76.5"/>
  <path fill="rgb(100%, 74.509804%, 38.431373%)" opacity="0.969" d="M166.055,368.844 C156.402,370.668 182.629,363.371 95.766,364.09 C77.941,377.27 131.223,393.02 0.992,385.988 C-47.906,315.383 -41.359,309.68 36.84,320.477 C107.176,343.23 115.5,343.75 166.055,368.844"/>
  <path fill="rgb(5.098039%, 12.54902%, 48.235294%)" opacity="0.981" d="M259.551,217.309 C243.754,227.211 269.496,210.297 205.695,235.594 C168.828,248.629 95.867,228.023 49.48,192.039 C120.145,186.164 111.652,187.098 161.332,192.578 C209.695,185.039 245.422,181.277 259.551,217.309"/>
  <path fill="rgb(6.27451%, 74.509804%, 87.843137%)" opacity="0.016" d="M271.555,195.227 C257.145,210.789 250.918,220.859 175.207,236.637 C130.426,220.762 113.215,251.582 57.949,198.199 C167.012,162.645 157.168,160.793 164.266,181.266 C154.379,181.773 196.535,180.961 271.555,195.227"/>
  <path fill="rgb(9.411765%, 15.686275%, 71.764706%)" opacity="0.967" d="M144.516,238.336 C272.039,228.215 277.145,195.895 191.18,238.621 C90.707,237.078 108.996,230.234 24.816,236.559 C124.09,153.254 81.414,206.617 95.723,202.621 C79.566,206.688 98.68,202.281 144.516,238.336"/>
  <path fill="rgb(87.45098%, 86.27451%, 18.039216%)" opacity="0.126" d="M312.43,380.629 C253.965,385.055 261.797,380.766 263.453,389.184 C269.484,345.891 287.738,345.355 235.051,360.316 C237.309,366.844 221.812,367.562 289.945,372.914 C303.691,310.883 309.559,323.777 312.43,380.629"/>
  <path fill="rgb(56.862745%, 59.215686%, 49.019608%)" opacity="0.283" d="M67.535,233.945 C59.078,250.375 82.375,229.684 21.633,230.656 C41.113,217.07 17.633,267.758 18.957,167.996 C145.957,160.312 81.332,198.082 75.703,174.785 C81.016,202.289 55.352,238.801 67.535,233.945"/>
  <path fill="rgb(100%, 100%, 100%)" opacity="0.816" d="M409.797,244.051 C373.43,274.371 319.773,268.277 280.723,225.777 C243.465,222.797 208.125,236.648 221.711,230.973 C264.258,213.383 283.656,210.129 264.812,209.578 C273.805,203.785 289.691,198.352 409.797,244.051"/>
  <path fill="rgb(78.431373%, 32.54902%, 13.333333%)" opacity="0.136" d="M193.703,287.27 C119.664,275.938 70.445,273.996 130.707,284.492 C113.043,268.207 102.121,253.121 27.41,265.918 C48.008,249.582 112.922,269.922 119.836,274.703 C143.742,279.723 130.996,269.223 193.703,287.27"/>
  <path fill="rgb(60.392157%, 84.705882%, 61.568627%)" opacity="0.222" d="M116.426,236.348 C158.824,236.602 173.852,242.945 56.207,230.227 C111.773,226.035 110.043,230.109 128.586,232.457 C117.379,205.469 127.391,201.184 121.375,192.535 C121.309,197.547 134.996,234.051 116.426,236.348"/>
  <path fill="rgb(5.490196%, 74.901961%, 83.529412%)" opacity="0.819" d="M246.27,272.359 C223.285,269.996 260.746,278.422 268.094,268.859 C233.625,249.191 192.23,265.891 170.762,256.082 C205.664,261.145 227.078,243.035 256.867,250.336 C233.484,237.891 252.801,270.996 246.27,272.359"/>
  <path fill="rgb(86.666667%, 88.627451%, 15.294118%)" opacity="0.07" d="M187.582,308.523 C226.137,305.895 182.676,307.805 242.105,388.598 C258.082,340.074 157.902,324.883 129.812,352.898 C262.5,315.5 185.195,333.43 83.086,317.238 C242.934,306.891 195.742,353.484 187.582,308.523"/>
  <path fill="rgb(1.176471%, 53.72549%, 58.039216%)" opacity="0.954" d="M364.668,262.164 C331.215,280.348 329.535,264.258 316.051,270.984 C289.73,272.492 287.727,266.27 251.41,263.133 C281.438,266.918 223.242,231.066 280.844,222.312 C334.879,225.594 303.996,254.836 364.668,262.164"/>
  <path fill="rgb(9.411765%, 0%, 22.352941%)" opacity="0.99" d="M413.043,222.723 C435.125,235.398 418.461,231.172 377.301,231.59 C345.363,227.102 348.32,216.309 282.141,200.375 C343.559,226.41 365.344,213.938 351.457,220.555 C315.117,224.996 349.656,211.715 413.043,222.723"/>
  <path fill="rgb(92.54902%, 80.784314%, 100%)" opacity="0.342" d="M417.523,314.941 C415.914,312.539 348.832,317.191 310.809,302.898 C230.957,291.898 206.98,306.336 379.012,317.32 C271.488,320.129 262.91,309.27 367.645,311.355 C366.473,314.059 275.188,334.645 417.523,314.941"/>
  <path fill="rgb(69.411765%, 94.901961%, 96.862745%)" opacity="0.079" d="M317.297,132.824 C373.684,147.727 391.195,126.555 404.266,199.359 C323.73,217.598 323.258,231.336 338,176.344 C317.461,138.383 297.723,131.566 302.766,181.875 C309.414,212.25 308.625,232.543 317.297,132.824"/>
  <path fill="rgb(74.509804%, 83.529412%, 84.313725%)" opacity="0.116" d="M161.113,145.32 C154.516,142.227 138.168,162.797 102.734,189.312 C101.391,173.824 79.754,138.555 141.836,149.902 C77.82,180.352 59.262,146.211 135.094,148.52 C86.914,149.5 101.504,115.484 161.113,145.32"/>
  <path fill="rgb(13.72549%, 15.686275%, 60.392157%)" d="M315.379,213.191 C274.109,201.805 269.965,215.469 319.84,192.414 C317.074,210.723 259.434,225.621 200.086,202.773 C227.324,170.863 245.465,203.504 315.449,190.508 C364.113,184.617 336.891,208.375 315.379,213.191"/>
  <path fill="rgb(78.431373%, 42.745098%, 20.784314%)" opacity="0.871" d="M15.238,331.738 C53.328,289.066 48.355,256.934 32.984,343.566 C-8.98,324.281 -7.074,297.812 -14.578,290.602 C-7.285,311.707 -7.035,302.891 -66.824,333.156 C-37.832,318.629 -31.5,303.703 15.238,331.738"/>
  <path fill="rgb(50.196078%, 84.313725%, 97.254902%)" opacity="0.983" d="M379.887,47.41 C357.195,63.898 384.246,37.578 340.543,40.367 C308.453,53.719 333.164,36.676 304.418,35.137 C301.715,-15.66 304.484,-42.355 342.68,-17.383 C408.039,14.715 430.215,0.371 379.887,47.41"/>
  <path fill="rgb(32.941176%, 58.431373%, 27.843137%)" opacity="0.671" d="M124.094,240.051 C142.594,163.531 87.746,171.984 109.129,154.82 C138.613,108.309 151.672,117.75 89.105,151.047 C45.102,94.117 52.363,154.723 56.453,180.082 C89.578,162.832 78.906,183.66 124.094,240.051"/>
  <path fill="rgb(16.862745%, 33.72549%, 29.803922%)" opacity="0.105" d="M280.609,226.062 C247.746,232.168 251.418,237.359 242.242,248.562 C244.371,228.824 240.152,249.781 212.914,254.211 C241.492,260.707 213.793,259.848 226.25,262.523 C264.797,240.066 264.523,235.926 280.609,226.062"/>
  <path fill="rgb(54.509804%, 89.019608%, 98.823529%)" opacity="0.219" d="M242.824,126.523 C254.316,35.699 250.078,39.938 207.406,51.637 C202.566,38.211 209.066,61.098 249.191,136.898 C228.004,119.066 216.898,125.98 189.254,124.34 C199.09,121.328 220.609,111.297 242.824,126.523"/>
  <path fill="rgb(75.294118%, 34.901961%, 26.27451%)" opacity="0.971" d="M42.199,230.258 C60.719,228.02 71.949,257.555 41.84,268.621 C50.496,235.062 69.926,229.07 43.129,229.84 C18.734,232.531 37.656,228.34 22.414,231.863 C20.453,225.641 46.812,226.688 42.199,230.258"/>
  <path fill="rgb(100%, 81.960784%, 82.352941%)" opacity="0.084" d="M361.781,355.32 C301.328,356.844 304.762,344.27 283.066,344.277 C263.578,347.527 220.164,332.207 251.219,345.539 C325.242,365.992 263.051,335.305 325.254,347.484 C285.98,344.816 260.059,335.301 361.781,355.32"/>
  <path fill="rgb(34.509804%, 42.745098%, 90.196078%)" opacity="0.611" d="M358.035,231.496 C318.297,219.875 338.156,225.199 361.004,216.023 C315.016,212.906 300.273,209.996 315.879,215.008 C248.262,203.562 264.914,205.762 335.344,210.645 C356.395,209.996 315.66,219.676 358.035,231.496"/>
  <path fill="rgb(1.960784%, 14.901961%, 63.529412%)" opacity="0.909" d="M405.215,190.75 C421.668,194.398 401.445,202.457 416.172,220.395 C397.734,225.48 369.609,237.23 322.828,208.113 C311.023,186.012 352.941,191.406 357.535,186.512 C361.406,188.789 367,181.07 405.215,190.75"/>
  <path fill="rgb(33.333333%, 58.431373%, 27.843137%)" opacity="0.945" d="M78.855,135.773 C98.43,169.703 80.719,180.832 37.137,185.727 C5.977,224.109 3.277,178.949 57.586,154.52 C-1.285,113.211 7.137,135.418 19.004,128.152 C5.598,136.602 45.383,101.488 78.855,135.773"/>
  <path fill="rgb(58.039216%, 85.490196%, 98.039216%)" opacity="0.474" d="M186.84,146.582 C178.715,82.402 188.016,52.34 116.938,65.66 C56.145,84.996 66.555,61.48 111.516,76.621 C133.188,70.812 111.492,118.699 127.422,133.699 C158.543,119.926 115.02,120.535 186.84,146.582"/>
  <path fill="rgb(29.411765%, 65.882353%, 0%)" opacity="0.191" d="M74.77,170.262 C98.344,167.703 69.91,174.289 69.109,168.172 C62.977,158.312 86.637,165.789 77.375,173.891 C49.496,159.531 33.562,148.645 97.211,160.914 C69.656,192.289 34.414,177.277 74.77,170.262"/>
  <path fill="rgb(68.235294%, 90.196078%, 100%)" opacity="0.421" d="M237.621,299.828 C184.941,303.211 181.98,296.703 199.363,285.727 C194.953,286.25 174.738,300.984 201.148,299.742 C233.652,299.398 217.148,280.633 128.332,275.395 C196.5,298.141 185.102,290.281 237.621,299.828"/>
  <path fill="rgb(96.862745%, 79.607843%, 97.254902%)" opacity="0.04" d="M411.77,244.086 C398.887,241.883 393.945,248.094 404.445,234.258 C374.273,229.645 350.578,232.797 318.48,223.836 C386.547,239.137 399.969,235.648 366.742,259.852 C399.473,255.961 401.195,248.664 411.77,244.086"/>
  <path fill="rgb(49.019608%, 63.921569%, 83.137255%)" opacity="0.31" d="M37.297,236.785 C38.848,228.57 27.871,236.141 -19.844,239.445 C-9.781,245.703 -14.48,245.16 -17.203,238.723 C-18.777,227.844 -16.457,227.605 -2.066,233.121 C14.625,238.836 41.281,242.398 37.297,236.785"/>
  <path fill="rgb(14.509804%, 33.72549%, 12.156863%)" opacity="0.074" d="M83.918,176.207 C77.113,178.684 85.68,193.98 48.762,192.984 C98.637,178.23 78.73,173.273 65.742,159.086 C77.961,192.285 92.629,185.922 82.965,166.992 C108.414,188.215 97.133,163.812 83.918,176.207"/>
  <path fill="rgb(2.352941%, 70.588235%, 67.843137%)" opacity="0.751" d="M100.527,254.844 C136.129,247.77 105.379,239.66 104.238,249.762 C131.414,256.508 129.234,269.738 85.184,257.984 C61.043,263.848 44.695,239.84 91.262,243.359 C143.473,239.309 118.926,263.258 100.527,254.844"/>
  <path fill="rgb(85.098039%, 60.392157%, 45.882353%)" opacity="0.084" d="M83.609,302.008 C69.223,289.746 56.398,328.215 69.141,361.344 C22.633,364.84 13.688,354.793 9.484,328.949 C44.41,314.66 36.848,312.719 88.27,317.309 C73.246,306.191 75.957,322.172 83.609,302.008"/>
  <path fill="rgb(93.333333%, 71.764706%, 94.117647%)" opacity="0.196" d="M235.668,299 C187.312,302.207 185.031,281.852 211.594,294.293 C195.637,295.266 206.367,289.559 206.203,317.355 C195.211,288.816 226.379,287.676 237.641,299.117 C187.418,283.879 210.211,298.148 235.668,299"/>
  <path fill="rgb(93.72549%, 38.039216%, 6.666667%)" opacity="0.885" d="M58.719,243.047 C61.406,252.344 68.328,243.48 41.891,248.324 C41.414,221.422 51.691,178.289 58.219,207.891 C74.988,167.18 71.594,172.305 74.164,160.84 C77.988,159.363 85.277,186.859 58.719,243.047"/>
  <path fill="rgb(9.019608%, 15.686275%, 65.490196%)" opacity="0.988" d="M44.133,233.434 C15.598,244.07 -7.773,231.551 -37.215,241.816 C-11.641,248.312 -16.383,242.07 -35.988,229.973 C-34.129,219.969 -21.289,218.797 -15.957,197.945 C72.625,187.855 70.367,174.699 44.133,233.434"/>
  <path fill="rgb(100%, 87.058824%, 74.901961%)" opacity="0.109" d="M111.199,331.613 C94.133,333.191 108.734,368.141 100.281,345.375 C122.879,350.809 148.141,363.281 123.312,341.465 C119.16,332.43 121.699,343.25 113.008,343.684 C129.355,282.988 127.082,301.715 111.199,331.613"/>
  <path fill="rgb(90.196078%, 83.137255%, 23.921569%)" opacity="0.149" d="M225.469,357.426 C197.215,359.078 201.5,337.148 179.93,340.375 C173.863,326.973 188.367,378.496 168.105,423.945 C151.062,332.211 192.832,337.082 172.016,333.57 C164.336,362.789 221.859,332.48 225.469,357.426"/>
  <path fill="rgb(88.235294%, 91.372549%, 98.431373%)" opacity="0.104" d="M255.527,324.777 C254.156,312.543 235.387,319.457 255.262,317.711 C247.496,322.172 235.441,308.402 268.621,297.738 C207.727,297.004 204.312,300.934 201.148,289.477 C268.746,310.766 253.242,307.344 255.527,324.777"/>
</svg>

