<svg xmlns="http://www.w3.org/2000/svg" width="384" height="384" viewBox="0 0 384 384">
  <defs/>
  <path fill="rgb(0%, 43.529412%, 61.568627%)" opacity="0.998" d="M82.344,362.402 C49.27,384.984 9.555,383.211 -31.996,368.848 C-41,321.691 -43.605,319.52 6.637,245.434 C31.691,259.121 20.117,265.164 24.863,277.918 C31.453,292.863 63.441,276.766 82.344,362.402"/>
  <path fill="rgb(9.803922%, 29.411765%, 97.647059%)" opacity="0.78" d="M228.77,311.062 C261.082,346.16 261.309,391.059 188.781,358.512 C153.41,334.242 148.289,318.219 129.418,304.742 C141.789,271.961 167.871,287.527 217.371,262.699 C236.973,237.344 223.559,253.906 228.77,311.062"/>
  <path fill="rgb(49.411765%, 13.72549%, 89.803922%)" opacity="0.869" d="M57.699,158.508 C51.039,192.262 65.938,218.031 65.613,187.824 C35.203,198.227 42.535,195.035 13.086,168.82 C21.746,162.84 27.258,150.363 47.266,147.406 C79.285,148.988 58.34,136.949 57.699,158.508"/>
  <path fill="rgb(79.215686%, 92.156863%, 88.235294%)" opacity="0.534" d="M32.219,95.098 C53.262,89.227 36.465,72.617 21.027,60.348 C23.246,51.543 19.316,63.012 4.211,55.098 C17.012,33.824 5.477,37.488 9.176,7.672 C20.691,16.461 13.773,61.91 32.219,95.098"/>
  <path fill="rgb(20.784314%, 34.509804%, 99.607843%)" opacity="0.801" d="M137.762,259.91 C163.066,257.191 156.684,291.113 127.156,293.988 C83.363,286.422 65.434,278.441 95.559,277.609 C105.492,266.484 91.863,253.996 134.84,228.023 C141.02,268.168 142.445,268.145 137.762,259.91"/>
  <path fill="rgb(10.588235%, 41.176471%, 38.823529%)" opacity="0.863" d="M221.367,272.992 C215.141,308.988 205.391,296.383 172.645,297.641 C153.336,296.406 144.945,290.488 123.863,280.168 C131.32,242.906 151.578,243.254 209.281,218.094 C207.941,235.66 215.305,242.125 221.367,272.992"/>
  <path fill="rgb(0%, 43.529412%, 64.705882%)" opacity="0.995" d="M121.953,335.699 C98.668,354.152 91.5,369.293 53.07,376.488 C26.785,329.199 33.965,274.336 37.059,275.812 C55.156,286.379 56.348,285.375 65.367,244.707 C190.871,297.887 162.852,313.777 121.953,335.699"/>
  <path fill="rgb(99.607843%, 100%, 87.843137%)" opacity="0.077" d="M274.168,32.727 C273.477,15.398 224.535,17.516 236.887,37.117 C227.02,37.816 232.895,21.312 211.609,-1.918 C232.438,-27.574 236.609,-19.598 270.578,-47.34 C279.121,-52.949 259.449,-19.688 274.168,32.727"/>
  <path fill="rgb(3.137255%, 45.490196%, 64.313725%)" opacity="0.963" d="M175.512,92.984 C132.621,195.703 214.836,254.727 -2.641,311.973 C-41.023,88.984 59.449,197.82 -18.594,263.141 C-0.949,107.766 115.781,209.918 62.973,-12.676 C187.578,-31.625 181.914,-17.707 175.512,92.984"/>
  <path fill="rgb(58.431373%, 85.098039%, 33.333333%)" opacity="0.381" d="M203.117,94.477 C199.293,120.391 198.512,129.75 186.395,118.074 C203.887,123.102 204.051,119.758 178.859,132.199 C165.402,97.055 166.352,76.531 179.344,82.887 C192.391,84.402 212.934,90.184 203.117,94.477"/>
  <path fill="rgb(94.509804%, 100%, 96.470588%)" opacity="0.088" d="M403.621,125.297 C320.645,206.191 237.316,224.844 175.453,150.156 C289.805,96.848 246.027,56.984 206.605,157.824 C121.609,-53.688 116.879,-39.496 285.125,-3.449 C390.371,-26.707 401.641,-27.492 403.621,125.297"/>
  <path fill="rgb(0%, 46.666667%, 60.392157%)" d="M193.191,149.555 C264.297,287.242 272.805,328.109 128.148,333.605 C29.828,221.676 56.508,135.094 92.574,136.699 C129.543,143.484 96.363,116.922 152.93,40.152 C229.969,81.297 200.527,110.895 193.191,149.555"/>
  <path fill="rgb(13.72549%, 98.039216%, 56.078431%)" opacity="0.705" d="M268.293,300.211 C270.984,340.391 269,352.996 267.734,345.527 C239.238,345.375 242.559,359.441 204.73,330.828 C202.531,235.344 231.93,236.309 269.605,288.738 C255.531,298.512 255.914,295.73 268.293,300.211"/>
  <path fill="rgb(1.176471%, 42.352941%, 58.431373%)" opacity="0.97" d="M389.004,141.785 C381.59,189.594 382.281,194.297 347.418,225.133 C315.188,256.707 266.871,257.953 252.332,200.602 C314.449,170.887 346.453,192.414 364.508,134.875 C407.426,106.348 417.82,129.539 389.004,141.785"/>
  <path fill="rgb(3.137255%, 49.411765%, 67.058824%)" opacity="0.201" d="M81.465,254.68 C44.652,289.148 46.609,266.262 62.992,247.562 C120.129,256.301 94.336,294.449 75.145,280.945 C48.43,275.266 71.477,287.082 59.902,277.375 C74.59,243.664 87.879,209.832 81.465,254.68"/>
  <path fill="rgb(63.921569%, 45.098039%, 64.313725%)" opacity="0.452" d="M81.426,31.781 C141.836,43.625 147.199,25.602 103.52,20.227 C73.504,39.039 73.012,28.094 58.895,8.551 C44.625,-12.863 59.09,-9.844 98.324,-9.605 C141.066,-7.391 146.402,19.273 81.426,31.781"/>
  <path fill="rgb(100%, 100%, 97.254902%)" d="M394.18,71.207 C391.414,123.355 363.117,167.016 308.949,191.43 C244.426,208.621 245.293,191.859 297.867,155.055 C376.516,145.125 361.547,103.867 469.992,65.797 C441.012,66.266 394.203,61.996 394.18,71.207"/>
  <path fill="rgb(3.529412%, 40%, 51.764706%)" opacity="0.133" d="M34.125,258.16 C31.602,281.879 38.359,272.836 22.332,269.922 C22.445,280.27 49.531,284.477 40.625,283.789 C55.992,297.977 52.871,281.898 69.648,285.789 C55.625,253.602 81.195,255.832 34.125,258.16"/>
  <path fill="rgb(100%, 100%, 99.607843%)" d="M132.457,39.438 C104.23,61.355 96.516,50.93 79.52,81.969 C78.508,96.25 71.293,108.18 22.027,140.504 C-32.094,52.309 -55.918,1.699 40.645,-82.484 C131.723,-68.02 142.301,-14.121 132.457,39.438"/>
  <path fill="rgb(100%, 100%, 99.607843%)" opacity="0.991" d="M207.098,51.109 C198.617,47.012 171.609,57.566 223.488,58.074 C178.285,56.961 144.125,70.34 132.883,-25.785 C175.391,-38.559 196.652,-15.645 210.07,18.293 C201.047,23.59 207.195,47.898 207.098,51.109"/>
  <path fill="rgb(0%, 42.745098%, 61.568627%)" opacity="0.988" d="M383.812,232.586 C416.57,291.246 342.027,390.512 228.141,378.637 C90.977,329.84 136.801,272.324 162.141,250.805 C225.324,258.586 203.566,216.895 191.824,213.707 C220.398,185.773 231.516,185.227 383.812,232.586"/>
  <path fill="rgb(79.607843%, 100%, 77.254902%)" opacity="0.018" d="M403.004,100.621 C358.016,120.004 370.367,138.137 408.32,135.812 C358.09,145.5 354.902,118.621 361.574,120.562 C365.691,132.949 374.535,107.375 415.691,112.465 C397.234,98.562 396.285,100.023 403.004,100.621"/>
  <path fill="rgb(0.784314%, 43.137255%, 60.392157%)" opacity="0.996" d="M255.254,198.742 C339.91,218.898 305.41,226.293 240.379,212.141 C164.98,218.531 186.504,204.938 190.449,104.176 C191.496,115.621 186.801,139.922 184.422,125.254 C202,147.652 187.32,177.852 255.254,198.742"/>
  <path fill="rgb(98.039216%, 25.490196%, 6.666667%)" opacity="0.977" d="M114.48,125.84 C118.672,127.34 101.586,139.602 101.199,129.602 C106.516,135.801 98.164,141.781 80.672,119.152 C65.059,94.68 91.031,64.793 110.312,84.414 C127.383,95.695 121.227,128.773 114.48,125.84"/>
  <path fill="rgb(10.980392%, 36.862745%, 72.156863%)" opacity="0.012" d="M294.156,301.484 C295.711,337.922 303.426,352.688 278.34,354.723 C299.152,334.469 290.664,324.332 284.793,336.848 C285.348,327.906 304.984,335.48 295.18,307.98 C286.156,307.688 284.371,324.875 294.156,301.484"/>
  <path fill="rgb(95.686275%, 25.490196%, 7.843137%)" opacity="0.957" d="M194.84,102.637 C208.531,107.301 203.441,114.691 198.539,123.16 C182.422,136.801 156.785,141.266 155.301,110.195 C153.977,62.262 202.512,73.547 203.336,103.934 C203.871,116.559 200.453,122.715 194.84,102.637"/>
  <path fill="rgb(3.529412%, 24.705882%, 64.705882%)" opacity="0.173" d="M165.285,279.074 C140.316,271.578 156.969,299.91 149.371,293.105 C112.219,270.879 116.043,262.188 132.789,324.57 C161.875,323.203 155.785,294.574 153.898,282.055 C155.508,274.898 152.117,266.668 165.285,279.074"/>
  <path fill="rgb(100%, 100%, 76.078431%)" opacity="0.158" d="M299.93,-45.242 C303.504,2.414 297.309,31.168 305.379,42.633 C297.594,33.531 304.816,0.258 296.098,3.844 C234.996,6.664 249.074,0.297 271.555,-2.059 C318.152,-7.582 319.492,-7.25 299.93,-45.242"/>
  <path fill="rgb(100%, 100%, 99.607843%)" opacity="0.998" d="M83.492,150.57 C63.547,200.148 20.055,195.578 -10.297,190.73 C-31.645,154.18 -27.863,142.023 -10.832,89.414 C-16.016,85.305 -23.117,63.484 16.375,102.754 C60.566,99.078 78.398,91.566 83.492,150.57"/>
  <path fill="rgb(86.27451%, 64.705882%, 60%)" opacity="0.042" d="M148.949,29.875 C136.984,57.66 94.277,47.441 78.535,64.117 C103.488,56.516 103.695,53.234 94.867,52.816 C90.926,57.934 108.879,49.523 116.934,54.238 C109.453,65.895 111.051,52.664 148.949,29.875"/>
  <path fill="rgb(94.509804%, 99.215686%, 96.470588%)" opacity="0.032" d="M280.895,128.199 C282.41,162.945 306.301,156.48 243.703,152.391 C225.207,124.699 224.492,97.977 200.836,83.34 C224.238,121.285 250.492,96.781 258.145,57.746 C286.465,90.684 300.941,77.074 280.895,128.199"/>
  <path fill="rgb(0.392157%, 25.882353%, 58.431373%)" opacity="0.167" d="M99.141,275.926 C102.246,303.207 110.113,297.168 141.145,299.652 C128.527,333.691 144.086,326.223 106.234,323.977 C101.797,299.25 126.75,292.398 143.148,299.309 C150.586,289.801 141.453,276.539 99.141,275.926"/>
</svg>

