<svg xmlns="http://www.w3.org/2000/svg" width="384" height="384" viewBox="0 0 384 384">
  <defs/>
  <path fill="rgb(62.352941%, 60.784314%, 0%)" d="M398.797,154.52 C409.016,190.375 424.926,217 382.07,229.789 C346.152,212.234 361.477,184.129 351.48,149.559 C373.219,165.387 369.27,159.449 353.562,142.266 C384.684,134.602 397.027,145.68 398.797,154.52"/>
  <path fill="rgb(1.568627%, 47.45098%, 80.392157%)" opacity="0.994" d="M55.777,149.016 C63.969,177.535 25.496,168.867 1.031,138.121 C5.484,114.465 -20.133,106.246 -1.465,80.887 C-46.984,46.375 -47.977,5.023 43.621,10.957 C57.324,56.309 50.105,75.016 55.777,149.016"/>
  <path fill="rgb(100%, 97.254902%, 40%)" opacity="0.579" d="M54.547,370.527 C-8.066,371.941 43.098,358.582 19.711,404.402 C-11.129,348.832 -8.18,326.586 13.711,331.496 C57.695,334.949 9.34,343.539 19.074,299.648 C56.191,316.637 43.699,354.402 54.547,370.527"/>
  <path fill="rgb(16.470588%, 82.745098%, 88.235294%)" opacity="0.678" d="M392.398,229.426 C394.605,226.449 403.312,247.809 390.516,268.543 C352.418,268.848 380.602,275.113 381.336,235.629 C372.293,199.922 365.602,188.992 363.199,206.68 C373.945,206.539 374.484,225.051 392.398,229.426"/>
  <path fill="rgb(1.568627%, 25.490196%, 84.705882%)" opacity="0.634" d="M419.57,276.949 C410.617,283.215 387.082,285.234 359.094,290.941 C394.941,293.016 364.559,310.898 344.973,298.289 C336.035,230.465 352.457,227.383 393.527,227.25 C405.992,244.477 400.484,240.25 419.57,276.949"/>
  <path fill="rgb(14.509804%, 70.196078%, 0%)" opacity="0.998" d="M91.645,52.277 C75.934,18.715 68.027,37.32 48.637,26.707 C54.797,-6.23 57.188,1.695 10.32,3.641 C33.676,13.809 34.441,2.574 90.039,2.715 C93.953,-30.062 88.539,-44.672 91.645,52.277"/>
  <path fill="rgb(17.254902%, 41.176471%, 23.529412%)" opacity="0.799" d="M110.352,238.914 C112.434,295.379 99.426,276.98 50.438,295.316 C-23.332,299.43 -40.273,303.855 -45.895,239.34 C-10.121,191.207 11.633,194.07 24.484,202.102 C16.84,228.883 22.086,225.672 110.352,238.914"/>
  <path fill="rgb(0.392157%, 70.588235%, 29.019608%)" opacity="0.846" d="M35.512,168.75 C38.09,215.945 44.598,210.672 18.02,201.848 C20.652,142.449 16.074,133.555 13.73,190.359 C6.605,188.105 14.074,169.48 9.117,145.457 C94.027,131.203 95.594,168.707 35.512,168.75"/>
  <path fill="rgb(100%, 59.607843%, 0%)" d="M319.379,176.688 C298.637,318.055 283.301,308.641 194.625,311.238 C85.914,255.301 41.531,282.719 45.906,222.098 C69.945,94.234 70.09,83.078 102.703,118.617 C238.016,116.449 258.781,98.617 319.379,176.688"/>
  <path fill="rgb(1.176471%, 53.333333%, 78.039216%)" opacity="0.976" d="M415.582,26.598 C417.992,203.734 362.66,193.016 335.137,138.508 C267.91,71.484 226.703,92.891 209.191,42.836 C215.73,-0.852 190.441,-23.258 361.207,-50.879 C385.312,-57.941 370.566,-31.93 415.582,26.598"/>
  <path fill="rgb(0.784314%, 50.196078%, 78.431373%)" opacity="0.975" d="M313.336,69.027 C281.004,120.469 229.727,57.32 170.934,104.055 C77.809,186.754 59.992,136.16 -5.902,13.258 C-7.457,-114.555 11.062,-93.484 144.059,-88.93 C291.957,-79.551 301.621,-86.426 313.336,69.027"/>
  <path fill="rgb(0%, 33.72549%, 77.254902%)" d="M386.75,162.211 C415.297,214.52 431.148,253.934 406.781,298.527 C314.062,367.742 340.43,363.605 331.844,191.172 C255.461,91.723 303.688,108.734 339.805,93.879 C321.574,113.523 306.316,98.617 386.75,162.211"/>
  <path fill="rgb(100%, 51.764706%, 1.568627%)" d="M371.434,116.469 C421.867,180.195 406.105,269.145 348.09,303.98 C298.82,150.484 304.977,123.719 155.277,118.625 C179.348,90.641 213.453,72.172 240.641,79.133 C291.574,72.012 330.328,72.453 371.434,116.469"/>
  <path fill="rgb(100%, 58.823529%, 3.921569%)" d="M208.379,261.938 C214.422,396.859 243.305,427.238 155.52,439.73 C-30.75,382.438 -56.273,402.574 -24.859,301.074 C115.039,266.453 152.152,285.941 142.574,264.082 C118.551,255.062 170.922,247.617 208.379,261.938"/>
  <path fill="rgb(100%, 38.823529%, 4.705882%)" opacity="0.874" d="M472.086,340.234 C398.41,395.684 383.285,393.035 326.484,422.574 C243.574,404.367 229.805,405.203 236.484,312.324 C248.867,271.949 294.047,315.199 374.074,307.418 C404.559,288.359 445.805,288.094 472.086,340.234"/>
  <path fill="rgb(0%, 38.823529%, 69.019608%)" opacity="0.993" d="M347.734,339.258 C310.02,413.738 351.547,423.176 309.535,423.34 C167.609,377.219 249.203,398.527 185.41,324.184 C73.91,235.812 108.395,254.008 202.465,319.039 C425.816,284.246 384.684,288.168 347.734,339.258"/>
  <path fill="rgb(0.392157%, 52.941176%, 79.215686%)" opacity="0.977" d="M134.148,160.266 C138.383,150.961 99.777,220.266 167.168,300.289 C0.074,246.27 -56.289,262.629 -57.371,174.098 C29.762,91.355 46.27,100.168 91.551,32.238 C225.645,76.043 148.262,108.305 134.148,160.266"/>
  <path fill="rgb(100%, 68.627451%, 5.098039%)" opacity="0.831" d="M436.781,381.539 C434.973,395.801 423.777,386.492 343.512,424.492 C321.398,400.426 339.883,350.844 335.148,389.199 C336.93,340.363 372.066,301.418 424.652,284.398 C406.262,292.211 401.328,306.574 436.781,381.539"/>
  <path fill="rgb(100%, 62.352941%, 6.27451%)" d="M364.785,246.078 C364.863,292.035 381.547,287.613 330.574,319.281 C242.145,353.363 162.438,307.109 206.094,302.184 C236.293,199.711 228.676,202.922 288.914,222.145 C319.047,179.348 321.34,185.988 364.785,246.078"/>
  <path fill="rgb(93.333333%, 67.058824%, 0%)" opacity="0.33" d="M249.219,227.676 C276.32,238.945 279.457,246.918 229.441,225.902 C255.59,277.375 286.719,281.027 246.973,228.598 C210.473,216.23 236.77,204.637 272.246,224.691 C260.875,186.234 245.164,176.848 249.219,227.676"/>
  <path fill="rgb(96.078431%, 57.647059%, 0.392157%)" opacity="0.233" d="M243.516,190.383 C233.949,168.703 229.52,118.344 248.727,118.641 C272.805,129.242 256.973,117.805 217.184,98.555 C206.414,123.453 222.961,130.055 302.688,162.281 C294.984,80.777 243.996,88.895 243.516,190.383"/>
  <path fill="rgb(6.27451%, 52.54902%, 86.27451%)" opacity="0.163" d="M131.055,233.93 C142.875,225.32 135.219,267.793 142.156,254.234 C42.348,243.801 97.105,231.719 111.273,249.48 C134.332,248.324 113.484,257.312 129.625,159.742 C123.555,148.156 129.918,202.895 131.055,233.93"/>
  <path fill="rgb(47.058824%, 52.941176%, 0%)" opacity="0.597" d="M260.816,51.406 C303.34,95.969 282.949,90.551 238.711,87.914 C249.02,79.137 220.379,83.957 197.379,36.352 C206.461,36.316 203.199,34.473 223.082,40.031 C216.914,42.297 224.965,37.363 260.816,51.406"/>
  <path fill="rgb(3.921569%, 61.568627%, 76.862745%)" opacity="0.088" d="M254.207,0.305 C303.98,9.191 313.027,-13.176 305.18,25.012 C248.625,25.621 295.207,11.723 263.293,9.879 C300.973,5.406 322.203,2.93 342,1.082 C276.016,-23.465 275.844,-23.883 254.207,0.305"/>
  <path fill="rgb(82.352941%, 25.490196%, 2.745098%)" opacity="0.309" d="M191.484,106.664 C146.602,138.531 134.203,124.211 202.559,87.488 C159.141,89.664 162.789,107.824 245.094,77.254 C173.109,81.984 164.871,102.617 155.98,134.293 C133.805,128.883 195.473,105.742 191.484,106.664"/>
  <path fill="rgb(100%, 92.156863%, 26.666667%)" opacity="0.068" d="M340.785,350.023 C360.188,381.25 357.965,387.09 330.328,368.406 C325.277,376.086 332.645,363.273 337.637,383.539 C333.906,393.918 336.188,385.352 362.961,334.035 C320.941,361.348 336.031,363.078 340.785,350.023"/>
  <path fill="rgb(95.686275%, 60.392157%, 8.235294%)" opacity="0.543" d="M156.914,139.137 C132.539,145.891 152.957,113.645 140.281,136.281 C135.742,132.309 165.676,124.738 150.609,145.551 C156.625,123.773 154.922,97.234 181.211,104.398 C134.422,138.695 137.98,161.152 156.914,139.137"/>
  <path fill="rgb(98.823529%, 39.607843%, 8.235294%)" opacity="0.179" d="M329.184,87.77 C271.043,67.73 300.168,94.547 317.223,115.895 C320.812,103.246 294.586,153.938 294.094,122.172 C308.629,123.438 310.629,118.152 335.215,77.832 C255.426,93.09 275.07,98.859 329.184,87.77"/>
  <path fill="rgb(83.137255%, 59.607843%, 0%)" opacity="0.182" d="M207.219,194.598 C225.051,245.453 223.84,222.285 214.039,201.703 C224.617,209.598 203.141,187.172 190.523,173.797 C189.672,209.305 192.961,205.719 178.242,174.316 C213.922,175.27 208.914,168.297 207.219,194.598"/>
</svg>

