<svg xmlns="http://www.w3.org/2000/svg" width="384" height="384" viewBox="0 0 384 384">
  <defs/>
  <path fill="rgb(91.372549%, 89.019608%, 96.470588%)" opacity="0.398" d="M225.695,400.465 C235.617,329.887 225.227,292.605 192.09,319 C158.527,295.336 181.816,283.719 181.098,322.449 C189.887,335.375 172.891,324.848 182.406,279.809 C194.297,265.348 203.387,286.586 225.695,400.465"/>
  <path fill="rgb(100%, 100%, 77.647059%)" opacity="0.012" d="M167.027,98.246 C92.355,200.062 92.977,195.77 59.52,186.141 C-21.125,197.727 -31.094,210.281 -62.543,175.18 C-53.238,62.871 -78.266,23.516 49.828,-27.836 C144.582,-14.801 152.145,39.031 167.027,98.246"/>
  <path fill="rgb(83.137255%, 100%, 61.960784%)" opacity="0.019" d="M216.375,29.48 C158.742,59.828 157.105,67.969 185.262,60.82 C138.547,68.445 126.074,56.969 121.879,51.195 C124.426,17.383 137.184,-7.164 166.719,26.605 C177.402,35.227 198.094,29.988 216.375,29.48"/>
  <path fill="rgb(92.156863%, 96.078431%, 83.137255%)" opacity="0.005" d="M116.914,222.062 C107.016,291.441 104.57,284.062 11.777,273.797 C8.449,212.598 19.602,219.09 7.418,214.715 C-10.207,178.496 -6.988,169.52 43.547,160.938 C78.68,158.082 126.098,149.766 116.914,222.062"/>
  <path fill="rgb(82.352941%, 52.941176%, 96.078431%)" opacity="0.179" d="M118.684,349.457 C83.602,353.137 95.004,336.383 97.609,373.434 C93.566,375.531 77.797,360.062 50.703,362.207 C16.863,343.043 12.23,305.07 17.457,310.871 C132.867,314.465 117.02,287.992 118.684,349.457"/>
  <path fill="rgb(0%, 0.784314%, 61.960784%)" opacity="0.999" d="M119.98,267.648 C123.09,294.691 129.973,296.652 138.133,309.863 C104.414,291.289 73.484,296.648 99.113,252.98 C143.852,262.691 98.961,235.023 140.84,312.305 C120.984,320.43 111.523,303.188 119.98,267.648"/>
  <path fill="rgb(100%, 100%, 100%)" opacity="0.178" d="M70.371,233.848 C100.453,282.133 109.648,255.781 36.824,253.504 C21.008,235.477 10.051,222.406 8.078,185.484 C-19.059,195.695 -29.023,210.535 46.551,212.449 C59.387,205.625 50.543,224.484 70.371,233.848"/>
  <path fill="rgb(84.705882%, 99.607843%, 83.137255%)" opacity="0.069" d="M145.258,67.312 C124.824,53.566 145.246,59.105 139.023,118.332 C116.18,79.438 139.992,78.367 125.973,30.445 C101.652,29.039 132.18,43.148 115.773,54.258 C138.348,35.695 149.047,44.523 145.258,67.312"/>
  <path fill="rgb(0%, 6.666667%, 27.45098%)" opacity="0.99" d="M262.031,61.812 C296.902,121.172 330.141,209.496 255.512,119.418 C289.301,86.074 216.066,26.391 221.488,130.621 C171.934,2.684 240.715,83.125 269.887,42.75 C269.992,24.438 270.805,65.703 262.031,61.812"/>
  <path fill="rgb(67.843137%, 80%, 2.745098%)" opacity="0.687" d="M474.164,372.703 C332.773,386.734 315.383,409.414 278.988,435.48 C139.328,392.516 156.863,396.191 137.441,284.531 C148.246,260.727 244.191,288.141 310.566,200.488 C407.805,182.395 421.004,160.379 474.164,372.703"/>
  <path fill="rgb(98.039216%, 100%, 99.215686%)" opacity="0.986" d="M418.086,132.676 C382.961,182.461 378.508,199.766 204.918,240.453 C217.242,260.215 272.641,227.711 276.078,170.145 C280.758,75.449 256.82,34.18 334.051,-25.121 C446.805,18.734 452.168,29.523 418.086,132.676"/>
  <path fill="rgb(0%, 10.980392%, 37.254902%)" d="M195.035,166.441 C175.609,232.156 128.641,245.742 89.512,305.43 C124.918,211.801 104.059,243.523 117.844,236.586 C117.027,196.539 117.816,156.715 149.367,125.719 C136.035,121.867 196.516,107.762 195.035,166.441"/>
  <path fill="rgb(74.901961%, 86.27451%, 21.176471%)" opacity="0.872" d="M106.41,314.871 C13.59,343.938 58.398,305.734 44.949,374.023 C-20.82,373.715 -45.328,376.539 -17.938,308.977 C8.332,139.703 -17.273,196.742 62.176,255.027 C87.047,274.375 97.125,248.918 106.41,314.871"/>
  <path fill="rgb(25.098039%, 6.27451%, 10.196078%)" opacity="0.803" d="M108.531,275.305 C151.746,265.77 210.816,243.844 186.129,293.047 C100.582,300.352 98.988,280.602 103.723,272.566 C116.945,234.141 122.062,211.617 101.734,266.609 C107.914,253.73 104.008,255.332 108.531,275.305"/>
  <path fill="rgb(70.588235%, 84.705882%, 16.078431%)" opacity="0.095" d="M358.383,374.234 C357.098,286.562 370.133,292.742 325.414,276.051 C322.418,415.609 320.359,384.383 299.777,270.539 C243.684,222.465 306.996,223.066 354.973,242.953 C341.359,268.984 334.012,331.586 358.383,374.234"/>
  <path fill="rgb(79.215686%, 86.666667%, 38.039216%)" opacity="0.946" d="M200.203,295.867 C231.523,404.531 211.43,401.855 75.602,413.754 C-33.602,368.988 -37.715,390.668 46.352,321.285 C40.492,278.594 55.797,268.469 92.223,273.449 C164.102,269.172 160.844,249.863 200.203,295.867"/>
  <path fill="rgb(74.117647%, 94.117647%, 16.470588%)" opacity="0.149" d="M300.398,346.371 C217.789,314.84 249.012,346.094 285.293,370.73 C263.238,372.449 213.125,369.746 141.789,323.883 C195.684,292.824 222.238,305.383 266.043,313.301 C315.992,314.668 291.699,306.406 300.398,346.371"/>
  <path fill="rgb(0%, 9.803922%, 19.607843%)" opacity="0.994" d="M164.523,97.426 C160.473,99.941 163.738,117.738 173.887,123.949 C142.598,128.559 115.887,136.992 155.238,127.074 C163.93,130.227 144.129,96.953 166.371,65.305 C205.012,66.648 162.684,70.723 164.523,97.426"/>
  <path fill="rgb(0%, 3.921569%, 33.333333%)" d="M226.105,50.988 C229.281,126.988 204.238,62.609 181.262,71.75 C140.84,71.312 133.934,37.328 133.113,42.715 C133.012,39.793 137.48,51.301 134.062,42.395 C145.043,67.895 162.379,60.035 226.105,50.988"/>
  <path fill="rgb(91.764706%, 67.058824%, 23.137255%)" opacity="0.051" d="M261.941,280.109 C261.992,315.059 262.828,302.395 261.75,300.812 C242.777,279.047 201.844,254.117 204.363,314.016 C258.594,319.848 240.32,325.352 247.758,246.57 C284.461,274.297 280.578,293.117 261.941,280.109"/>
  <path fill="rgb(18.823529%, 0%, 25.098039%)" opacity="0.976" d="M239.719,272.039 C230.305,298.605 246.852,288.832 206.523,265.879 C208.129,308.039 209.906,291.98 179.328,267.688 C221.891,252.43 229.098,266.086 229.523,260.004 C228.266,268.98 226.285,251.109 239.719,272.039"/>
  <path fill="rgb(100%, 99.607843%, 94.117647%)" opacity="0.08" d="M322.977,63.523 C358.5,63.109 350.336,68.781 337.512,20.441 C402.504,18.301 388.508,13.566 332.777,17.691 C362.137,42.91 339.207,58.828 351.926,74.695 C352.578,49.355 370.734,65.285 322.977,63.523"/>
</svg>

