<svg xmlns="http://www.w3.org/2000/svg" width="384" height="384" viewBox="0 0 384 384">
  <defs/>
  <path fill="rgb(0%, 4.313725%, 5.490196%)" opacity="0.987" d="M240.047,206.004 C266.844,215.16 247.828,227.031 201.691,237.539 C203.117,229.801 189.258,256.477 169.34,234.062 C193.336,190.09 164.109,200.168 208.723,199.859 C244.785,193.215 230.793,205.316 240.047,206.004"/>
  <path fill="rgb(14.509804%, 14.509804%, 0%)" opacity="0.933" d="M86.465,153.305 C111.977,197.934 110.551,187.875 102.199,188.547 C98.094,174.586 106.055,183.758 100.711,196.402 C95.523,158.332 76.508,147.992 75.648,133.617 C80.207,133.93 68.133,126.91 86.465,153.305"/>
  <path fill="rgb(84.313725%, 52.941176%, 80.392157%)" opacity="0.257" d="M226.719,171.66 C195.801,172.723 192.047,194.727 176.5,169 C206.449,156.777 197.012,167.402 193.324,174.312 C190.629,166.234 219.086,163.676 214.699,128.648 C221.203,161.898 219.223,153.934 226.719,171.66"/>
  <path fill="rgb(24.313725%, 40%, 47.45098%)" opacity="0.58" d="M199.711,233.387 C207.922,256.047 187.781,253.34 150.867,237.578 C126.812,225.832 131.23,234.371 152.961,217.645 C125.359,196.555 126.859,207.438 147.629,211.09 C194.73,211.453 193.09,196.277 199.711,233.387"/>
  <path fill="rgb(50.980392%, 0%, 9.803922%)" d="M186.137,162.629 C169.656,181.059 163.234,195.445 167.738,200.852 C160.656,161.086 167.184,166.301 149.246,174.73 C169.844,156.117 166.723,132.348 159.039,133.074 C205.949,137.934 201.391,133.422 186.137,162.629"/>
  <path fill="rgb(4.705882%, 1.960784%, 8.235294%)" opacity="0.981" d="M315.012,156.809 C305.844,172.344 261.875,185.02 276.676,230.035 C144.785,199.113 159.562,227.195 183.094,128.125 C179.133,69.719 166.438,74.609 196.867,134.359 C241.828,145.656 254.137,133.684 315.012,156.809"/>
  <path fill="rgb(4.705882%, 4.313725%, 11.764706%)" d="M211.219,216.812 C225.801,286.652 238.512,272.746 187.859,249.645 C134.453,297.273 126.883,249.977 99.895,195.812 C105.488,124.891 99.559,112.906 99.258,141.445 C163.926,159.121 172.789,148.473 211.219,216.812"/>
  <path fill="rgb(3.921569%, 4.313725%, 6.666667%)" opacity="0.995" d="M183.238,250.211 C128.922,301.066 180.34,315.023 144.559,297.078 C111.539,283.965 77.73,311.594 75.266,347.18 C82.773,233.68 85.117,258.926 101.891,180.312 C159.344,147.047 105.918,167.996 183.238,250.211"/>
  <path fill="rgb(92.941176%, 78.039216%, 26.27451%)" opacity="0.904" d="M168.465,167.051 C133.484,139.262 154.453,176.941 125.715,160.004 C128.738,184.379 143.117,172.965 136.312,190.02 C56.258,193.18 43.762,94.785 112.879,64.547 C204.109,59.598 210.758,127.109 168.465,167.051"/>
  <path fill="rgb(0%, 2.352941%, 0%)" d="M340.586,171.441 C323.41,159.449 304.777,164.488 267.594,185.492 C246.074,195.594 252.344,222.695 269.164,185.105 C275.086,116.219 278.406,159.18 299.809,153.238 C313.062,152.988 325.832,162.738 340.586,171.441"/>
  <path fill="rgb(87.058824%, 99.215686%, 86.27451%)" opacity="0.013" d="M87.145,237.121 C31.398,227.824 58.719,230.578 64.387,264.574 C-16.391,258.316 -13.238,261.035 -22.324,215.359 C-40.676,153.266 -42.883,135.262 54.949,118.094 C83.68,117.574 84.012,198.879 87.145,237.121"/>
</svg>

