<svg xmlns="http://www.w3.org/2000/svg" width="384" height="384" viewBox="0 0 384 384">
  <defs/>
  <path fill="rgb(69.803922%, 89.411765%, 99.607843%)" opacity="0.049" d="M375.586,203.18 C340.477,203.703 340.891,218.25 324.898,249.734 C312.809,291.66 329.344,282.68 351.715,218.793 C358.621,150.57 394.828,135.141 384.41,184.641 C407.484,237.348 408.93,216.465 375.586,203.18"/>
  <path fill="rgb(100%, 68.235294%, 27.843137%)" opacity="0.723" d="M349.789,245.188 C372.684,252.527 352.297,257.066 338.562,271.23 C304.25,290.488 290.34,237.574 309.734,213.066 C358.539,212.879 345.312,233.277 326.645,215.055 C340.668,221.168 326.949,206.539 349.789,245.188"/>
  <path fill="rgb(57.647059%, 0%, 87.45098%)" d="M185.227,335.523 C161.742,362.141 192.203,367.984 170.199,338.098 C130.344,283.727 122.441,281.156 174.801,344 C197.047,367.34 189.98,340.461 173.793,339.648 C179.289,289.965 162.043,314.148 185.227,335.523"/>
  <path fill="rgb(94.901961%, 43.137255%, 18.039216%)" opacity="0.914" d="M349.941,211.742 C328.938,249.305 304.992,244.316 260.223,254.047 C209.512,252.18 234.105,251.473 197.719,250.984 C156.344,190.762 191.527,189.438 263.371,170.949 C326.637,180.73 341.09,198.293 349.941,211.742"/>
  <path fill="rgb(99.215686%, 99.215686%, 99.607843%)" opacity="0.006" d="M284.496,107.348 C325.219,146.004 305.668,189.582 232.086,168.055 C178.957,150.09 179.488,129.875 192.227,134.734 C185.844,84.629 217.91,102.98 221.945,79.426 C220.453,81.227 202.641,110.293 284.496,107.348"/>
  <path fill="rgb(83.137255%, 56.470588%, 3.921569%)" opacity="0.943" d="M294.598,243.145 C318.754,296.953 314.113,283.859 222.113,274.402 C192.188,302.207 202.211,283.668 178.031,266.125 C174.84,232.82 242.281,232.062 207.375,209.168 C206.348,233.785 229.293,246.074 294.598,243.145"/>
  <path fill="rgb(6.27451%, 51.764706%, 0%)" opacity="0.641" d="M215.93,363.855 C211.289,375.039 213.172,379.465 201.387,355.688 C167.504,367.133 152.445,359.359 137.621,345.637 C104.969,290.242 119.449,270.414 167.422,295.805 C207.242,327.605 185.695,362.723 215.93,363.855"/>
  <path fill="rgb(54.117647%, 88.627451%, 71.372549%)" opacity="0.039" d="M224.125,267.059 C252.023,319.055 239.934,332.773 216.457,332.414 C180.359,384.82 174.91,344.75 259.594,267.969 C230.457,234.602 186.156,229.762 135.16,172.199 C176.863,156.066 197.227,194.555 224.125,267.059"/>
  <path fill="rgb(48.627451%, 62.352941%, 15.294118%)" opacity="0.717" d="M356.043,322.875 C386.242,324.926 412.66,319.488 388.277,356.098 C323.617,388.109 280.473,386.359 308.27,352.852 C321.551,243.266 343.406,207.117 342.297,272.098 C389.223,288.086 385.695,322.129 356.043,322.875"/>
  <path fill="rgb(89.019608%, 57.254902%, 9.803922%)" opacity="0.913" d="M340.176,302.156 C367.395,392.902 341.215,362.352 302.539,380.57 C162.906,386.375 155.961,365.859 193.082,336.379 C157.336,270.293 190.332,294.473 307.797,237.418 C356.062,220.332 348.637,226.609 340.176,302.156"/>
  <path fill="rgb(91.372549%, 87.843137%, 83.921569%)" opacity="0.04" d="M475.938,76.551 C447.98,144.984 427.43,149.16 291.363,145.699 C232.977,123.34 234.875,110.801 217.172,112.02 C227.551,-25.121 210.945,-49.902 243.406,-59.898 C379.043,-18.227 388.105,-20.332 475.938,76.551"/>
  <path fill="rgb(84.313725%, 100%, 99.215686%)" opacity="0.023" d="M187.184,130.273 C143.516,154.207 164.785,213.074 94.445,231.949 C0.984,239.035 -23.609,236.852 -25.543,122.734 C-28.223,-12.219 -29.145,-23.652 183.18,-19.301 C239.789,47.973 244.676,78.16 187.184,130.273"/>
  <path fill="rgb(84.705882%, 68.235294%, 14.509804%)" opacity="0.841" d="M226.828,98.742 C217.371,107.281 226.258,127.223 234.324,112.184 C229.504,76.781 227.445,88.594 229.082,40.91 C206.031,-16.227 184.234,-22.34 239.008,-10.879 C222.91,74.043 232.844,60.949 226.828,98.742"/>
  <path fill="rgb(100%, 76.078431%, 6.27451%)" opacity="0.919" d="M207.605,10.82 C243.609,12.352 201.105,37.758 265.328,9.738 C260.852,-69.109 288.379,-64.781 264.996,-61.602 C199.961,-12.102 206.172,-18.664 253.492,-11.852 C252.738,-20.508 237.84,-25.793 207.605,10.82"/>
  <path fill="rgb(100%, 84.313725%, 79.215686%)" opacity="0.086" d="M340.559,71.586 C329.691,82.777 336.75,81.879 332.328,82.609 C327.801,57.633 320.297,57.707 304.371,82.004 C296.066,95.664 252.793,88.176 263.5,52.656 C295.824,71.336 339.578,61.027 340.559,71.586"/>
  <path fill="rgb(85.490196%, 96.862745%, 98.431373%)" opacity="0.061" d="M395.473,73.879 C408.863,89.922 418.047,82.113 344.953,81.113 C359.867,77.453 357.156,52.723 372.832,49.664 C359.395,21.184 320.57,4.426 378.906,6.152 C420.863,13.512 411.551,22.773 395.473,73.879"/>
  <path fill="rgb(85.098039%, 92.941176%, 91.764706%)" opacity="0.099" d="M61.043,102.758 C83.855,101.5 79.586,86.062 52.188,84.527 C55.195,125.359 45.535,115.938 52.82,113.121 C35.773,106.336 46.309,93.859 56.219,88.105 C51.363,83.562 68.578,88.586 61.043,102.758"/>
  <path fill="rgb(93.333333%, 90.980392%, 91.764706%)" opacity="0.049" d="M154.355,47.211 C164.332,91.723 130.805,84.598 68.527,40.047 C55.898,32.293 67.016,48.027 37.457,42.777 C41.801,-32.051 25.469,-44.348 92.355,-69.488 C128.914,-37.004 134.059,-34.848 154.355,47.211"/>
  <path fill="rgb(93.333333%, 87.45098%, 99.607843%)" opacity="0.068" d="M104.586,89.797 C106.273,49.992 109.953,79.164 97.707,126.652 C123.781,134.09 126.895,114.016 110.18,105.656 C103.031,84.812 75.477,79.535 84.059,115.621 C133.004,117.445 108.77,113.734 104.586,89.797"/>
  <path fill="rgb(52.54902%, 70.588235%, 85.098039%)" opacity="0.02" d="M379.07,363.078 C345.68,380.039 312.242,384.852 277.898,392.758 C270.637,353.262 253.574,306.48 306.117,331.949 C249.609,340.406 255.547,322.371 278.488,344.406 C312.156,339.945 317.898,347.043 379.07,363.078"/>
</svg>

