<svg xmlns="http://www.w3.org/2000/svg" width="384" height="384" viewBox="0 0 384 384">
  <defs/>
  <path fill="rgb(84.313725%, 100%, 77.647059%)" opacity="0.037" d="M93.512,129.012 C84.168,143.969 109.734,145.797 16.129,148.738 C-13.602,142.793 -17.848,141.312 -35.301,67.52 C-20.656,18.84 -25.43,17.117 48.512,-48.168 C134.133,-7.77 123.184,78.289 93.512,129.012"/>
  <path fill="rgb(6.666667%, 38.431373%, 6.27451%)" opacity="0.509" d="M210.148,23.66 C202.715,36.148 188.402,17.742 182.152,94.66 C168.621,23.219 80.922,87.711 132.133,31.461 C206.473,-21.086 164.859,45.168 189.859,54.652 C183.02,-3.133 203.98,3.93 210.148,23.66"/>
  <path fill="rgb(0%, 54.117647%, 36.078431%)" opacity="0.953" d="M67.238,291.551 C33.785,280.457 28.18,299.438 30.195,320.648 C11.441,328.703 -8.938,340.086 -23.711,236.02 C-33.25,135.656 8.395,170.633 58.426,233.805 C67.781,254.562 74.312,274.727 67.238,291.551"/>
  <path fill="rgb(50.980392%, 79.607843%, 89.803922%)" opacity="0.357" d="M293.5,272.012 C280.719,267.516 273.758,274.602 278.656,303.469 C274.383,299.758 275.785,277.992 294.387,294.926 C304.812,291.633 333.188,277.066 325.023,261.426 C315.246,234.488 319.297,255.055 293.5,272.012"/>
  <path fill="rgb(99.215686%, 100%, 89.411765%)" opacity="0.061" d="M345.582,167.266 C312.223,186.48 301.965,180.305 308.613,183.742 C266.609,198.789 243.516,189.738 281.156,164.242 C287.609,169.387 279.031,149.953 305.383,113.535 C358.066,128.957 344.309,131.969 345.582,167.266"/>
  <path fill="rgb(0%, 54.509804%, 35.686275%)" opacity="0.968" d="M391.789,141.16 C414.016,309.758 370.602,294.684 313.281,322.324 C267.383,322.727 266.859,280.629 277.703,250.348 C281.355,227.852 293.672,221.473 294.812,216.02 C302.395,205.852 327.297,177.445 391.789,141.16"/>
  <path fill="rgb(94.509804%, 58.039216%, 0%)" d="M194.102,285.809 C195.398,401.902 160.48,425.941 -34.402,382.453 C-96.641,295.27 -26.93,299.5 6.641,313.094 C33.441,302.734 56.613,280.809 165.855,257.316 C149.254,206.719 172.93,225.094 194.102,285.809"/>
  <path fill="rgb(10.588235%, 36.862745%, 67.843137%)" d="M186.523,153.59 C151.941,161.93 184.68,186.512 201.809,247.527 C101.145,249.375 124.02,272.441 92.555,150.188 C110.039,82.961 147.812,62.82 192.969,62.285 C242.961,66.875 277.883,152.367 186.523,153.59"/>
  <path fill="rgb(0%, 45.490196%, 76.862745%)" d="M286.328,371.023 C272.633,464.559 252.457,449.219 189.117,424.566 C106.805,414.738 79.18,431.812 71.727,413.945 C83.797,329.492 96.824,271.652 178.723,242.828 C246.684,252.855 241.242,282.949 286.328,371.023"/>
  <path fill="rgb(89.411765%, 55.294118%, 0%)" opacity="0.978" d="M381.105,339.305 C397.93,399.844 403.211,396.656 287.262,407.66 C269.004,338.684 261.984,313.332 205.727,245.762 C190.652,217.625 165.73,214.902 183.078,258.516 C246.754,280.914 297.344,276.312 381.105,339.305"/>
  <path fill="rgb(1.568627%, 94.509804%, 83.921569%)" d="M187.93,261.168 C96.957,275.148 112.93,281.133 163.977,275.742 C179.961,272.363 171.082,260.633 121.211,249.555 C104.305,246.676 113.398,247.004 155.461,233.258 C206.574,226.492 199.211,217.852 187.93,261.168"/>
  <path fill="rgb(0%, 45.882353%, 75.294118%)" opacity="0.977" d="M248.539,297.828 C195.699,309.035 141.688,299.07 104.848,292.789 C107.336,267.18 101.199,254.438 112.863,249.641 C114.121,277.082 96.754,255.434 89.445,181.105 C196.996,197.383 216.109,227.043 248.539,297.828"/>
  <path fill="rgb(88.235294%, 95.686275%, 85.098039%)" opacity="0.021" d="M233.816,270.684 C258.508,290.086 280.23,295.672 278.25,257.449 C222.137,239.613 246.617,297.352 224.391,248.098 C172.477,184.391 160.941,223.98 197.789,223.66 C234.5,251.379 238.809,247.859 233.816,270.684"/>
  <path fill="rgb(100%, 22.745098%, 12.54902%)" opacity="0.099" d="M250.617,321.191 C274.301,272.238 268.586,268.02 270.047,302.125 C260.332,285.609 247.473,258.973 235.809,286.68 C236.516,305.996 260.574,292.902 242.293,311.125 C264.23,325.996 259.227,341.191 250.617,321.191"/>
  <path fill="rgb(96.078431%, 99.607843%, 23.137255%)" opacity="0.062" d="M97.523,270.789 C106.082,284.211 85.285,309.742 80.59,314.785 C73.012,293.281 66.016,267.75 64.676,249.172 C108.543,279.043 99.832,294.922 106.988,268.238 C110.094,281.852 101.219,241.059 97.523,270.789"/>
  <path fill="rgb(79.607843%, 67.45098%, 0%)" opacity="0.203" d="M62.348,388.785 C51.656,358.938 35.238,356.875 53.832,363.559 C53.043,416.129 48.336,431.523 32.832,388.711 C34.762,336.641 19.379,323.582 13.262,350.195 C52.227,358.848 56.328,354.172 62.348,388.785"/>
  <path fill="rgb(93.333333%, 65.098039%, 36.470588%)" opacity="0.991" d="M254.547,114.66 C298.652,122.273 287.621,215.305 264.766,171.363 C203.883,138.922 193.773,172.988 225.164,128.082 C138.781,146.723 144.836,25.914 228.426,120.461 C250.461,97.039 231.16,89.789 254.547,114.66"/>
  <path fill="rgb(44.705882%, 18.039216%, 25.490196%)" opacity="0.21" d="M273.383,278.121 C265.215,285.148 246.375,286.176 257.492,284.703 C250.781,271.648 225.051,279.867 233.145,276.164 C269.883,284.246 219.766,283.867 240.348,287.09 C230.445,276.766 250.672,276.285 273.383,278.121"/>
  <path fill="rgb(80.784314%, 56.470588%, 0%)" opacity="0.225" d="M38.406,343.582 C25.012,340.262 51.043,370.559 25.648,426.312 C-52.078,382.629 -35.75,379.559 26.551,378.227 C30.449,390.191 13.109,379.57 21.547,323.301 C43.988,324.77 19.938,340.973 38.406,343.582"/>
  <path fill="rgb(0%, 46.27451%, 100%)" opacity="0.135" d="M231.543,371.312 C159.809,375.352 194.816,360.93 188.34,391.875 C152.492,427.543 154.508,423.18 155.156,356.965 C183.066,361.215 146.27,346.684 187.156,351.707 C175.996,333.031 200.766,334.52 231.543,371.312"/>
  <path fill="rgb(30.588235%, 47.45098%, 100%)" opacity="0.115" d="M113.387,291.715 C96.078,328.516 92.438,336.223 110.891,352.805 C175.75,356.121 150.426,346.926 108.996,352.348 C111.234,338.121 107.207,328.105 115.238,342.605 C115.738,341.605 119.605,327.227 113.387,291.715"/>
  <path fill="rgb(78.431373%, 23.921569%, 51.764706%)" opacity="0.123" d="M330.961,324.137 C359.781,326.051 384.293,322.762 351.477,319.324 C350.25,343.074 353.984,349.145 353.41,335.254 C318.723,299.266 291.617,292.516 336.07,303.52 C337.879,294.414 336.566,322.418 330.961,324.137"/>
  <path fill="rgb(0%, 58.039216%, 50.196078%)" opacity="0.058" d="M193.348,353.953 C139.152,354.867 148.473,333.383 182.547,330.82 C123.977,327.434 140.988,336.609 135.863,312.227 C124.277,277.465 125.777,289.527 183.695,278.582 C200.305,336.68 191.145,378.523 193.348,353.953"/>
  <path fill="rgb(47.45098%, 36.470588%, 8.235294%)" opacity="0.24" d="M273.191,350.699 C286.09,393.191 286.863,431.734 284.281,449.914 C245.262,397.371 251.531,403.801 270.266,391.629 C272.918,300.059 258.406,324.664 263.848,317.441 C259.293,339.77 259.426,330.551 273.191,350.699"/>
  <path fill="rgb(1.568627%, 43.921569%, 76.862745%)" opacity="0.951" d="M175.039,162.391 C175.605,166.973 185.93,191.508 216.668,229.297 C100.586,271.262 95.945,256.43 91.957,164.094 C103.656,103.047 157.652,94.336 178.82,141.504 C175.613,208.098 170.07,212.414 175.039,162.391"/>
  <path fill="rgb(88.627451%, 31.372549%, 0%)" opacity="0.094" d="M91.418,314.141 C98.188,323.926 103.09,311.848 95.492,318.453 C93.445,366.035 83.988,346.668 34.852,292.395 C80.664,286.84 78.043,296.156 88.789,305.32 C83.906,291.883 98.797,295.883 91.418,314.141"/>
</svg>

