<svg xmlns="http://www.w3.org/2000/svg" width="384" height="384" viewBox="0 0 384 384">
  <defs/>
  <path fill="rgb(39.215686%, 80.392157%, 0%)" opacity="0.954" d="M198.676,175.523 C213.016,208.211 205.809,209.227 153.363,211.398 C144.523,171.246 147.996,169.371 60.023,165.262 C67.441,135.828 69.906,77.992 121.375,78.902 C178.055,72.082 184.621,129.242 198.676,175.523"/>
  <path fill="rgb(100%, 89.803922%, 94.901961%)" opacity="0.016" d="M327.508,172.668 C290.543,277.574 366.602,282.438 225.117,269.945 C189.309,230.809 194.355,187.211 197.316,146.449 C208.746,52.809 184.863,41.758 198.836,112.375 C271.992,139.379 314.395,114.703 327.508,172.668"/>
  <path fill="rgb(39.215686%, 78.039216%, 0%)" opacity="0.998" d="M244.129,249.609 C256.629,363.648 167.949,383.191 68.742,362.922 C12.07,343.773 -8.242,282.023 21.477,227.668 C54.91,183 54.262,187.43 79.211,126.125 C171.977,130.855 178.762,132.98 244.129,249.609"/>
  <path fill="rgb(78.039216%, 100%, 63.137255%)" opacity="0.023" d="M415.07,297.324 C407.574,314.309 394.273,321.266 397,343.352 C351.762,357.273 276.043,343.578 230.453,252.805 C345.719,242.668 273.086,165.5 362.23,113.305 C447.434,115.512 482.797,242.586 415.07,297.324"/>
  <path fill="rgb(100%, 94.117647%, 100%)" opacity="0.007" d="M252.523,118.703 C236.199,122 240.234,113.824 222.707,151.402 C167.527,170.008 196.41,135.492 238.184,141.48 C234.48,147.824 235.551,126.5 240.949,65.156 C235.156,84.801 247.406,110.957 252.523,118.703"/>
  <path fill="rgb(93.333333%, 100%, 65.098039%)" opacity="0.017" d="M406.234,54.492 C455.098,124.383 428.246,173.434 367.516,173.727 C242.371,193.137 233.75,195.078 264.242,148.59 C263.035,39.316 241.383,39.469 298.398,40.566 C353.219,42.965 364.402,38.219 406.234,54.492"/>
  <path fill="rgb(16.862745%, 81.568627%, 0%)" opacity="0.086" d="M156.207,367.918 C141.523,263.496 168.297,219.77 139.793,224.328 C122.941,220.473 129.031,243.91 125.285,157.82 C133.535,222.246 111.379,250.148 127.355,143.18 C181.066,144.387 149.984,137.297 156.207,367.918"/>
  <path fill="rgb(83.137255%, 99.607843%, 72.941176%)" opacity="0.026" d="M334.707,31.785 C291.777,198.789 317.996,172.445 228.656,163.289 C180.523,154.414 189.492,152.035 183.289,104.945 C175.363,50.918 174.148,30.891 231.27,19.008 C301.715,15.258 313.996,32.27 334.707,31.785"/>
  <path fill="rgb(6.666667%, 0%, 0%)" d="M131.242,72.438 C134.117,91.043 147.121,82.395 116.379,87.551 C110.297,91.258 120.23,82.191 110.387,83.168 C127.895,84.094 105.156,57.539 140.562,15.648 C174.219,33.832 126.738,26.492 131.242,72.438"/>
</svg>

