<svg xmlns="http://www.w3.org/2000/svg" width="384" height="384" viewBox="0 0 384 384">
  <defs/>
  <path fill="rgb(54.901961%, 85.490196%, 45.098039%)" opacity="0.049" d="M212.559,16.711 C213.43,66.094 207.246,63.371 141.863,64.992 C135.27,65.191 136.25,33.633 153.656,25.418 C137.121,22.91 140.629,17.57 172.605,15.012 C187.285,22.297 215.535,6.996 212.559,16.711"/>
  <path fill="rgb(26.27451%, 42.745098%, 21.176471%)" opacity="0.025" d="M296.414,139.52 C319.996,171.996 309.254,183.504 292.609,171.355 C298.297,121.57 302.09,125.785 252.781,125.777 C219.461,98.293 213.734,48.332 263.598,49.633 C293.078,113.211 269.969,145.184 296.414,139.52"/>
  <path fill="rgb(46.27451%, 29.411765%, 56.078431%)" opacity="0.437" d="M225.109,20.941 C248.359,66.055 233.016,56.926 190.066,50.863 C151.938,45.875 120.777,54.598 152.227,49.266 C176.156,28.93 176.18,15.984 185.484,2.25 C205.793,-39.824 203.945,-24.039 225.109,20.941"/>
  <path fill="rgb(0%, 2.352941%, 20.392157%)" opacity="0.982" d="M250.977,41.918 C270.539,70.129 252.406,46.496 224.145,59.031 C202.09,78.789 173.879,95.359 168.719,24.82 C184.398,1.078 170.32,3.734 214.344,4.578 C209.863,21.375 234.98,20.934 250.977,41.918"/>
  <path fill="rgb(0%, 4.705882%, 16.470588%)" opacity="0.999" d="M347.184,284.277 C347.309,311.828 341.48,319.969 330.867,300.656 C319.93,275.445 316.805,256.527 314.422,224.258 C327.98,256.152 322.008,266.723 322.527,215.316 C335.816,225.727 344.828,258.859 347.184,284.277"/>
  <path fill="rgb(17.647059%, 85.098039%, 33.72549%)" opacity="0.026" d="M75.34,225.012 C74.145,239.703 55.012,243.113 40.418,236.113 C46.66,197.625 46.148,212.406 52.625,199.141 C76.621,209.078 65.629,199.012 77.262,180.844 C85.168,175.215 81.172,175.973 75.34,225.012"/>
  <path fill="rgb(100%, 99.607843%, 99.607843%)" opacity="0.959" d="M294.484,11.355 C268.875,27.832 242.039,32.902 218.895,20.145 C194.398,8.172 175.469,26.062 150.629,14.215 C151.641,-40.465 182.547,-22.848 255.824,-26.043 C285.254,-51.539 291.496,-49.547 294.484,11.355"/>
  <path fill="rgb(0%, 5.882353%, 17.254902%)" d="M295.949,136.059 C338.137,187.441 360.746,274.688 315.172,230.004 C285.875,131.641 282.055,139.039 278.305,106.469 C263.996,29.727 192.035,70.598 245.898,37.691 C287.777,90.484 266.383,117.32 295.949,136.059"/>
  <path fill="rgb(77.647059%, 99.607843%, 98.823529%)" opacity="0.067" d="M318.258,333.137 C302.008,342.008 286.746,340.566 283.797,323.34 C255.422,311.973 253.664,376.879 287.973,365.348 C283.938,334.391 324.559,357.309 266.762,371.645 C251.371,269.684 317.672,252.715 318.258,333.137"/>
  <path fill="rgb(49.411765%, 77.647059%, 50.980392%)" opacity="0.13" d="M81.824,187.227 C79.406,211.488 80.008,202.09 60.176,198.254 C80.477,181.34 109.168,150.156 79.613,184.68 C97.043,154.047 112.867,138.262 105.551,110.969 C102.504,136.172 107.148,133.219 81.824,187.227"/>
  <path fill="rgb(75.686275%, 92.941176%, 97.254902%)" opacity="0.05" d="M315.547,238.414 C328.078,355.496 303.199,355.723 219.461,364.684 C211.977,350.629 288.598,377.234 121.602,364.227 C188.652,260.539 195.953,263.551 196.523,133.336 C298.02,110.602 274.363,110.766 315.547,238.414"/>
  <path fill="rgb(25.098039%, 76.470588%, 40%)" opacity="0.115" d="M292.688,346.715 C293.742,378.77 274.559,364.75 239.695,362.852 C230.527,361.621 239.375,366.375 210.52,372.121 C242.035,370.57 264.426,377.535 287.957,355.957 C313.43,326.203 310.727,312.113 292.688,346.715"/>
  <path fill="rgb(26.666667%, 16.862745%, 0%)" opacity="0.998" d="M318.012,379.891 C269.949,390.559 230.379,365.609 247.445,367.91 C192.777,380.902 161.312,365.398 159.855,367.988 C75.402,397.445 78.949,349.598 128.656,359.434 C228.828,394.906 302.793,326.039 318.012,379.891"/>
  <path fill="rgb(0%, 3.137255%, 16.862745%)" d="M83.223,199.73 C62.137,279.211 100.777,283.672 68.055,285.625 C53.242,334.184 34.852,300.77 53.641,226.41 C68.516,147.723 101.328,139.75 118.754,109.113 C123.527,103.715 108.758,116.164 83.223,199.73"/>
  <path fill="rgb(33.333333%, 11.764706%, 0.392157%)" d="M300.664,338.066 C292.262,348.906 282.898,348.93 288.547,362.508 C295.145,371.562 220.352,363.828 224.988,368.855 C287.801,356.117 302.023,354.707 317.727,299.086 C315.406,264.613 321.484,306.395 300.664,338.066"/>
  <path fill="rgb(0%, 6.27451%, 27.058824%)" d="M321.184,261.777 C307.797,215.641 331.887,245.035 310.711,315.793 C295.926,351.316 310.191,335.184 316.172,298.688 C327.777,222.875 294.051,203.664 333.754,213.914 C348.992,252.93 354.113,313.227 321.184,261.777"/>
  <path fill="rgb(95.686275%, 47.058824%, 0%)" d="M183.242,74.117 C153.02,87.133 199.039,200.211 227.242,87.188 C195.359,68.281 180.5,74.727 173.457,56.719 C155.875,37.633 161.984,28.152 173.816,61.281 C186.504,74.383 232.121,74.234 183.242,74.117"/>
  <path fill="rgb(77.254902%, 99.215686%, 97.647059%)" opacity="0.054" d="M188.559,263.832 C174.16,290.766 198.539,313.93 79.195,348.422 C55.715,260.848 83.648,205.277 87.344,191.254 C102.664,194.246 73.449,124.969 143.145,58.664 C208.773,116.727 184.824,190.867 188.559,263.832"/>
  <path fill="rgb(98.431373%, 99.215686%, 97.647059%)" opacity="0.851" d="M80.629,299.285 C80.746,332.062 81.996,342.469 88.574,306.48 C54.375,287.656 62.059,300.258 73.562,256.488 C84.164,249.043 82.609,211.816 84.191,226.84 C91.934,286.648 120.711,286.773 80.629,299.285"/>
  <path fill="rgb(0%, 4.705882%, 19.607843%)" d="M211.293,45.836 C236.602,49.121 215.836,72.723 195.605,111.73 C171.824,51.746 165.797,60.012 153.375,33.199 C172.305,7.273 234.121,5.535 250.961,48.199 C160.117,61.77 166.613,42.762 211.293,45.836"/>
  <path fill="rgb(0%, 3.921569%, 22.745098%)" d="M159.961,54.199 C128.367,60.641 121.02,94.98 107.887,130.879 C67.84,169.496 106.438,144.215 121.199,98.371 C129.207,69.543 135.219,49.004 153.574,32.891 C187.047,28.387 212.887,78.512 159.961,54.199"/>
  <path fill="rgb(7.843137%, 4.705882%, 1.176471%)" d="M117.238,355.41 C132.191,361.316 113.922,389.996 162.152,367.754 C100.711,357.758 94.102,356.266 81.992,290.973 C71.129,287.996 77.617,220.438 78.371,259.602 C80.383,309.668 79.41,327.996 117.238,355.41"/>
  <path fill="rgb(100%, 100%, 100%)" opacity="0.016" d="M77.414,340.234 C81.578,377.266 83.652,395.781 93.586,376.465 C33.133,365.07 29.891,364.48 44.938,334.742 C57.305,346.195 67.16,343.355 51.867,324.523 C75.395,329.902 91.406,312.68 77.414,340.234"/>
  <path fill="rgb(81.176471%, 96.078431%, 100%)" opacity="0.009" d="M401.449,147.344 C340.082,149.328 327.5,151.148 317.816,128.215 C265.086,115.574 283.602,114.957 311.371,127.527 C311.469,135.285 313.5,103.875 330.703,21.379 C410.473,6.969 411.312,52.359 401.449,147.344"/>
</svg>

