<svg xmlns="http://www.w3.org/2000/svg" width="384" height="384" viewBox="0 0 384 384">
  <defs/>
  <path fill="rgb(83.137255%, 86.27451%, 94.509804%)" opacity="0.015" d="M256.355,22.254 C313.367,48.023 322.379,174.645 213.734,171.668 C125.359,137.41 138.125,131.812 152.016,0.227 C246.43,9.988 200.137,28.641 174.074,18.941 C205.492,28.234 205.965,21.027 256.355,22.254"/>
  <path fill="rgb(72.54902%, 96.470588%, 0%)" opacity="0.812" d="M375.582,323.523 C381.488,361.098 327.898,346.773 274.074,350.398 C281.25,350.473 288.078,346.691 282.047,342.543 C285.426,364.086 306.504,382.797 299.289,324.906 C316.059,317.48 326.621,325.75 375.582,323.523"/>
  <path fill="rgb(43.529412%, 43.529412%, 6.666667%)" opacity="0.351" d="M221.535,198.738 C258.402,278.219 252.027,280.926 151.133,303.031 C35.355,302.57 40.539,289.336 127.809,320.133 C138.188,319.766 143.062,306.227 204.887,156.809 C180.715,107.84 197.688,132.477 221.535,198.738"/>
  <path fill="rgb(83.529412%, 96.862745%, 97.647059%)" opacity="0.068" d="M108.316,235.293 C110.055,287.715 105.777,293.93 94.535,226.574 C132.07,215.281 144.301,191.168 135.781,246.848 C108.316,249.637 131.836,283.355 119.293,214.445 C73.305,209.691 89.43,242.172 108.316,235.293"/>
  <path fill="rgb(92.156863%, 96.862745%, 71.372549%)" opacity="0.154" d="M176.387,386.688 C141.75,395.77 139.27,392.676 101.699,436.172 C86.562,435.043 83.977,414.008 58.375,355.133 C146.434,356.148 148.375,339.785 156.559,308.418 C151.309,370.668 171.223,362.074 176.387,386.688"/>
  <path fill="rgb(89.411765%, 88.235294%, 100%)" opacity="0.165" d="M146.012,383.129 C159.02,423.473 120.164,411.68 115.477,401.902 C106.031,394.395 98.117,390.242 31.242,474.273 C31.719,444.871 24.824,431.465 13.91,366.004 C178.469,367.496 158.637,356.121 146.012,383.129"/>
  <path fill="rgb(88.235294%, 96.862745%, 85.490196%)" opacity="0.065" d="M405.27,34.434 C454.789,148.93 441.391,146.496 307.434,156.945 C171.961,143.797 210.031,125.059 290.32,21.039 C351.363,12.562 367.27,32.695 324.598,35.074 C349.191,23.953 380.391,21.371 405.27,34.434"/>
  <path fill="rgb(98.039216%, 81.960784%, 89.411765%)" opacity="0.004" d="M211.105,24.918 C230.684,135.84 232.078,121.883 55.543,122.98 C15.301,125.312 23.246,36.141 67.703,7.09 C131.242,-1.035 161.469,-1.496 153.473,8.262 C142.652,36.086 209.629,3.297 211.105,24.918"/>
  <path fill="rgb(51.764706%, 76.862745%, 0%)" opacity="0.589" d="M141.492,319.93 C162.359,407.859 145.047,425.262 2.434,431.043 C-6.539,299.039 -48.742,349.289 -16.137,237.285 C37.57,269.941 38.047,293.941 35.035,310.902 C70.125,292.758 49.242,275.887 141.492,319.93"/>
  <path fill="rgb(41.568627%, 68.627451%, 24.705882%)" opacity="0.517" d="M393.855,256.941 C429.656,364.809 500.332,375.488 305.957,427.68 C257.148,413.309 242.742,439.41 155.922,280.738 C283.375,277.641 213.355,227.105 292.473,165.637 C372.254,117.172 431.617,214.121 393.855,256.941"/>
  <path fill="rgb(68.235294%, 88.235294%, 40%)" d="M353.176,379.012 C213.457,442.711 183.527,442.266 170.051,427.801 C164.512,422.43 141.539,426.219 142.977,369.695 C116.5,306.633 201.648,351.527 186.672,283.875 C246.008,294.832 337.516,297.125 353.176,379.012"/>
  <path fill="rgb(79.607843%, 44.705882%, 46.27451%)" opacity="0.328" d="M164.109,324.438 C114.938,327.641 69.008,320.605 -8.379,321.703 C-34.137,335.148 -33.605,282.359 4.008,292.848 C32.473,264.496 53.18,322.871 71.785,315.559 C78.742,295.605 100.648,275.988 164.109,324.438"/>
  <path fill="rgb(71.764706%, 43.529412%, 42.352941%)" opacity="0.387" d="M221.691,309.574 C195.961,288.824 140.984,317.473 155.492,349.707 C127.379,350.156 116.359,352.289 120.004,337.805 C118.715,334.797 118.867,325.172 118.18,340.703 C148.516,351.551 187.695,338.508 221.691,309.574"/>
  <path fill="rgb(72.156863%, 83.921569%, 47.843137%)" opacity="0.487" d="M193.75,281.035 C203.684,367.359 203.078,360.125 128.883,349.652 C137.477,306.719 120.664,339.07 120.523,297.199 C142.094,307.762 153.465,325.516 141.301,337.641 C100.508,317.57 101.453,304.773 193.75,281.035"/>
  <path fill="rgb(7.058824%, 1.176471%, 0.392157%)" d="M266.789,286.133 C273.141,362.227 283.578,265.676 286.438,263.715 C154.176,307.602 183.684,292.391 136.953,269.445 C169.09,274.363 112.129,274.516 154.012,274.18 C301.082,249.816 335.281,227.043 266.789,286.133"/>
  <path fill="rgb(0%, 0%, 0.392157%)" d="M277.234,267.805 C275.48,302.352 262.855,303.961 266.605,295.766 C99.672,289.543 140.516,310.906 134.676,264.996 C242.391,264.941 236.344,271.883 209.582,259.945 C235.34,244.461 224.504,271.914 277.234,267.805"/>
  <path fill="rgb(0%, 0%, 0%)" d="M148.547,312.246 C120.473,290.438 106.102,328.73 110.59,325.434 C108.59,330.863 111.145,292.949 107.219,324.754 C98.27,329.52 104.266,318.375 161.039,291.289 C156.117,372.77 151.875,353.332 148.547,312.246"/>
  <path fill="rgb(0%, 0%, 0.392157%)" d="M143.047,282.125 C199.324,312.117 142.82,296.316 51.055,296.492 C59.645,298.266 74.043,305.402 75.07,315.816 C71.395,287.262 99.395,289.023 104.328,290.633 C155.324,317.633 137.844,282.656 143.047,282.125"/>
  <path fill="rgb(99.215686%, 77.647059%, 59.607843%)" opacity="0.451" d="M477.316,316.25 C414.328,350.84 373.602,317.855 320.512,325.363 C322.078,328.688 330.215,315.078 316.633,314.676 C339.645,220.312 323.664,204.645 342.367,325.828 C390.793,332.855 417.078,320.152 477.316,316.25"/>
  <path fill="rgb(0%, 0%, 9.803922%)" d="M293.395,294.5 C268.816,300.039 286.113,305.516 273.191,350.359 C258.09,286.875 276.5,255.262 283.859,270.629 C278.625,252.648 208.688,262.707 239.074,275.988 C299.254,273.551 290.891,240.191 293.395,294.5"/>
  <path fill="rgb(100%, 100%, 100%)" opacity="0.131" d="M73.453,28.855 C66.961,32.102 65.547,86.855 61.121,26.395 C2.387,36.598 -4.336,59.723 -16.34,3.852 C31.16,-7.781 34.52,-28.117 106.344,-32.762 C105.945,39.121 99.844,62.543 73.453,28.855"/>
  <path fill="rgb(100%, 100%, 100%)" d="M122.793,311.703 C76.223,322.836 47.816,311.777 74.031,275.066 C125.035,307.176 151.664,273.926 146.961,318.832 C114.852,317.57 85.836,309.336 110.211,252.59 C117.445,256.875 123.039,253.086 122.793,311.703"/>
  <path fill="rgb(72.156863%, 26.27451%, 19.215686%)" opacity="0.589" d="M343.152,326.5 C344.945,299.316 312.98,305.93 320.633,327.867 C348.633,331.938 354.488,338.707 356.195,322.289 C375.805,321.352 368.125,333.008 344.371,252.621 C326.816,316.035 328.453,302.266 343.152,326.5"/>
  <path fill="rgb(87.45098%, 10.196078%, 47.058824%)" opacity="0.915" d="M65.008,271.027 C58.973,305.746 9.766,293.18 -20.727,194.762 C-9.941,218.965 -4.469,229.473 -3.551,226.355 C-10.043,204.773 -6.918,200.707 -64.23,244.309 C-53.934,252.664 -26.074,257.445 65.008,271.027"/>
  <path fill="rgb(100%, 21.176471%, 67.058824%)" opacity="0.113" d="M256.031,288.246 C253.242,278.355 246.562,310.922 263.922,304.629 C252.074,285.387 231.09,287.078 159.094,291.953 C194.398,318.621 241.02,306.734 294.57,299.152 C281.273,286.637 267.453,292.82 256.031,288.246"/>
  <path fill="rgb(0%, 52.54902%, 22.745098%)" d="M121.664,240.555 C113.629,291.902 59.797,271.84 -12.324,271.398 C-13.398,301.578 -36.656,296.539 -19.484,245.191 C24.117,100.379 24.047,23.504 50.062,33.426 C90.359,145.633 94.684,172.18 121.664,240.555"/>
  <path fill="rgb(0%, 0%, 0%)" opacity="0.927" d="M285.387,266.414 C188.852,261.75 206.172,263.73 209.953,285.246 C192.652,263.703 221.375,263.805 170.199,268.605 C193.004,261.617 199.789,275.402 273.059,303.07 C293.742,274.398 289.527,267.137 285.387,266.414"/>
  <path fill="rgb(83.921569%, 99.607843%, 48.235294%)" opacity="0.478" d="M320.848,321.645 C321.848,305.375 338.039,314.559 324.621,316.102 C327.273,351.715 322.059,336.828 284.656,319.375 C322.871,330.109 306.285,328.012 320.828,321.465 C362.652,317.562 361.105,328.02 320.848,321.645"/>
  <path fill="rgb(85.098039%, 64.313725%, 58.431373%)" opacity="0.941" d="M41.633,264.809 C5.453,273.965 40.922,313.922 42.465,303.898 C40.254,303.875 43.09,299.988 67.195,309.637 C59.145,311.828 69.461,308.867 62.676,287.98 C20.258,276.871 40.461,305.113 41.633,264.809"/>
</svg>

