<svg xmlns="http://www.w3.org/2000/svg" width="384" height="384" viewBox="0 0 384 384">
  <defs/>
  <path fill="rgb(86.27451%, 97.254902%, 100%)" opacity="0.056" d="M311.508,109.859 C274.598,108.129 264.324,130.801 259.805,167.445 C244.742,140.945 256.578,109.168 244.586,86.012 C196.879,30.852 192.102,49.531 286.789,42.957 C332.57,50.316 310.844,53.09 311.508,109.859"/>
  <path fill="rgb(19.607843%, 67.058824%, 80%)" opacity="0.809" d="M208.309,158.578 C143.203,171.617 156.535,196.949 125.152,192.152 C91.023,180.414 77.312,174.367 121.297,148.453 C133.117,131.973 122.59,127.312 135.172,65.285 C158.348,64.254 179.398,79.535 208.309,158.578"/>
  <path fill="rgb(59.607843%, 100%, 83.921569%)" opacity="0.067" d="M164.969,379.25 C155.414,406.762 119.137,410.559 119.582,386.105 C93.848,387.941 114.121,365.188 122.262,373.066 C139.227,376.352 148.371,376.141 146.668,362.637 C131.012,362.406 163.488,346.258 164.969,379.25"/>
  <path fill="rgb(89.019608%, 100%, 80%)" opacity="0.421" d="M318.27,86.855 C255.812,103.641 250.219,94.387 254.082,117.465 C194.281,121.004 191.91,129.277 204.414,130.148 C233.766,83.352 244.422,80.09 233.07,25.762 C284.652,10.996 313.711,17.348 318.27,86.855"/>
  <path fill="rgb(80.392157%, 94.901961%, 96.470588%)" opacity="0.045" d="M305.328,348.457 C305.582,374.516 304.531,387.859 300.855,421.836 C281.691,389.938 278.953,394.438 279.762,369.594 C288.758,375.641 278.078,364.34 288.664,374.688 C306.016,367.195 298.918,364.543 305.328,348.457"/>
  <path fill="rgb(30.196078%, 67.843137%, 82.352941%)" opacity="0.981" d="M141.059,76.469 C123.824,191.355 112.332,199.816 48.793,192.305 C-28.773,200.832 -77.793,194.566 -23.648,18.055 C51.645,-6.848 71.508,29.891 21.516,33.828 C74.367,-6.133 108.738,13.125 141.059,76.469"/>
  <path fill="rgb(14.117647%, 68.627451%, 87.843137%)" opacity="0.987" d="M387.352,1.398 C340.727,192.438 303.23,185.734 211.469,163.832 C170.738,93.082 218.957,99.336 211.234,51.301 C173.941,63.055 167.543,21.07 169.277,-25.684 C282.008,-72.336 335.77,-87.418 387.352,1.398"/>
  <path fill="rgb(29.803922%, 68.627451%, 85.490196%)" opacity="0.985" d="M259.195,31.406 C266.754,119.445 252.688,136.879 169.824,144.91 C120.488,99.594 104.176,100.227 63.895,14.434 C76.188,-33.07 70.965,-60.027 167.234,-47.484 C247.465,-1.375 235.605,-6.16 259.195,31.406"/>
  <path fill="rgb(25.098039%, 69.411765%, 99.215686%)" opacity="0.424" d="M520.09,306.887 C462.586,376.117 393.633,351.301 338.328,396 C262.152,454.285 235.254,435.762 258.078,335.762 C255.988,148.289 236.734,177.793 302.363,193.488 C398.914,230.531 427.086,223.23 520.09,306.887"/>
  <path fill="rgb(100%, 58.823529%, 18.431373%)" d="M266.504,90.566 C280.055,136.43 289.094,120.34 324.492,64.965 C352.824,42.293 358.707,53.293 319.238,58.219 C297.457,42.559 289.285,44.785 302.047,42.996 C331.168,51.215 334.004,55.223 266.504,90.566"/>
  <path fill="rgb(25.098039%, 68.627451%, 98.039216%)" opacity="0.369" d="M254.723,250.309 C272.203,434.961 228.312,451.719 119.867,372.574 C27.934,331.074 -19.457,343.246 -53.32,356.867 C-34.543,130.602 -21.934,168.766 71.375,194.672 C217.855,188.891 217.887,148.527 254.723,250.309"/>
  <path fill="rgb(16.078431%, 67.058824%, 86.27451%)" opacity="0.991" d="M415.32,8.152 C462.18,195.398 379.41,180.473 279.504,189.703 C249.211,145.879 213.777,147.363 207.398,141.734 C249.867,88.191 263.543,113.613 287.605,126.211 C319.691,61.016 343.391,-18.035 415.32,8.152"/>
  <path fill="rgb(40.784314%, 77.647059%, 95.686275%)" opacity="0.851" d="M380.168,243.801 C330.719,274.043 295.457,264.895 266.73,245.66 C270.906,218.691 245.82,226.641 261.781,234.648 C251.633,176.324 214.902,140.949 336.281,131.797 C383.242,76.832 468.117,132.84 380.168,243.801"/>
  <path fill="rgb(100%, 61.960784%, 33.333333%)" d="M309.723,52.977 C378.547,49.148 369.402,73.273 304.133,90.465 C322.805,39.156 282.156,38.195 258.688,-22.973 C345.578,49.398 362.531,95.621 414.676,20.121 C330.902,54.473 299.453,86.375 309.723,52.977"/>
  <path fill="rgb(21.176471%, 69.803922%, 86.666667%)" d="M255.863,193.207 C268.129,249.426 234.707,205.043 198.59,193.895 C213.312,175.168 176.484,161.781 177.039,156.328 C135.145,168.238 136.855,162.684 164.113,147.781 C231.359,120.875 224.281,126.336 255.863,193.207"/>
  <path fill="rgb(60.392157%, 90.980392%, 88.627451%)" opacity="0.106" d="M88.02,310.656 C163.34,326.902 136.766,322.473 25.027,330.32 C-17.297,350.746 -0.516,369.461 36.473,337.863 C13.535,276.934 27.066,289.312 92.68,295.16 C91.926,334.613 72.191,294.254 88.02,310.656"/>
  <path fill="rgb(100%, 100%, 100%)" d="M438.426,223.301 C421.758,251.172 404.09,235.207 364.039,231.305 C289.91,259.184 305.91,198.34 333.145,205.992 C344.789,207.785 327.699,164.707 420.309,168.426 C399.684,132.891 395.434,146.828 438.426,223.301"/>
  <path fill="rgb(35.686275%, 67.843137%, 76.470588%)" opacity="0.522" d="M113.766,177.062 C98.473,173.875 93.797,200.949 76.539,229.785 C68.801,186.234 64.656,176.875 86.328,180.172 C97.977,183.832 96.512,167.77 104.152,152.891 C74.82,151.359 73.398,186.695 113.766,177.062"/>
  <path fill="rgb(100%, 64.705882%, 0%)" d="M390.262,52.918 C362.785,77.801 306.441,62.465 306.746,103.977 C278.188,63.273 255.539,55.895 252.824,64.812 C287.109,107.203 317.699,84.707 320.301,37.027 C327.316,45.398 330.121,53.387 390.262,52.918"/>
  <path fill="rgb(81.176471%, 96.078431%, 100%)" opacity="0.394" d="M289.723,247.504 C294.074,250.926 310.441,236.418 160.125,239.094 C169.672,215.953 208.297,244.199 207.527,226.566 C206.441,200.164 237.516,208.867 197.676,201.727 C242.195,175.227 255.328,221.926 289.723,247.504"/>
  <path fill="rgb(38.823529%, 81.176471%, 94.509804%)" opacity="0.958" d="M245.117,237.047 C248.578,245.82 268.852,259.777 281.094,221 C231.203,209.684 236.855,212.473 225.953,205.812 C235.848,227.832 291.086,226.645 266.91,146.109 C225.559,157.289 229.141,188.762 245.117,237.047"/>
  <path fill="rgb(27.843137%, 69.411765%, 82.352941%)" opacity="0.908" d="M123.754,213.914 C129.777,226.301 115.531,207.105 89.82,227.422 C60.836,256.004 106.555,224.43 33.773,193.238 C22.898,147.938 70.156,182.887 80.938,161.73 C106.41,124.555 178.617,120.742 123.754,213.914"/>
  <path fill="rgb(83.921569%, 74.117647%, 99.607843%)" opacity="0.035" d="M118.699,294.988 C103.992,270.078 109.609,261.801 145.574,270.945 C81.02,274.684 66.605,280.855 85.93,311.023 C71.5,250.668 58.559,245.023 103.016,246.582 C108.805,237.344 118.965,271.551 118.699,294.988"/>
  <path fill="rgb(16.862745%, 81.960784%, 50.980392%)" opacity="0.082" d="M268.578,101.852 C269.066,82.301 247.543,107.125 231.793,88.473 C272.18,95.062 262.812,97.707 276.469,144.301 C284.746,100.781 273.332,102.516 163.633,94.348 C269.129,124.125 271.027,124.348 268.578,101.852"/>
  <path fill="rgb(66.666667%, 87.843137%, 89.411765%)" opacity="0.005" d="M205.004,327.625 C261.613,333.852 242.578,393.145 218.656,407.703 C117.562,391.594 101.609,363.457 113.711,319.43 C117.613,349.574 96.887,283.086 129.137,283.066 C155.422,265.379 211.289,278.902 205.004,327.625"/>
  <path fill="rgb(100%, 100%, 100%)" d="M171.625,157.867 C171.895,185.211 181.219,190.629 135.57,187.73 C129.844,191.184 84.598,201.227 95.66,174 C104.746,167.094 114.711,155.043 123.512,171.926 C105.879,157.207 145.867,122.777 171.625,157.867"/>
  <path fill="rgb(33.333333%, 76.862745%, 55.686275%)" opacity="0.123" d="M207.789,123.234 C215.004,148.379 201.582,147.957 201.555,140.516 C213.461,139.711 226.277,132.73 237.953,158.297 C207.453,146.758 185.023,136.477 249.668,141.211 C250.973,83.031 222.715,103.832 207.789,123.234"/>
  <path fill="rgb(100%, 61.568627%, 23.529412%)" d="M393.062,119.711 C344.059,41.844 358.746,44.238 317.598,63.797 C343.18,43.547 350.871,47.211 374.871,50.984 C332,64.996 356.324,35.555 361.914,38.977 C313.719,69.785 332.18,100.137 393.062,119.711"/>
  <path fill="rgb(21.176471%, 65.882353%, 85.098039%)" opacity="0.966" d="M334.93,142.367 C349.309,100.832 334.156,125.383 300.496,124.637 C299.074,100.512 311.031,83.93 271.242,105 C232.27,161.555 294.832,149.367 302.887,143.16 C311.57,129.863 337.047,142.551 334.93,142.367"/>
  <path fill="rgb(39.607843%, 79.607843%, 97.254902%)" opacity="0.68" d="M209.031,208.594 C193.535,224.637 228.977,205.645 243.289,223.84 C244.84,224.039 248.297,229.02 234.34,242.504 C243.508,259.945 271.914,248.863 287.496,239.488 C283.262,207.711 306.387,186.18 209.031,208.594"/>
</svg>

