<svg xmlns="http://www.w3.org/2000/svg" width="384" height="384" viewBox="0 0 384 384">
  <defs/>
  <path fill="rgb(12.941176%, 20%, 49.803922%)" d="M443.66,317.215 C370.523,413.555 346.414,412.07 310.031,402.551 C318.422,390.883 324.746,380.172 319.812,354.328 C294.965,380.891 303.371,347.422 304.473,290.812 C334.992,287.297 411.613,268.77 443.66,317.215"/>
  <path fill="rgb(57.254902%, 81.960784%, 18.823529%)" opacity="0.478" d="M173.648,382.258 C179.68,408.078 168.602,398.902 151.121,395.164 C156.488,357.02 141.285,367.547 165.578,364.52 C158.039,289.852 144.59,294.609 160.363,368.918 C162.348,320.957 172.367,323.535 173.648,382.258"/>
  <path fill="rgb(4.313725%, 0%, 0%)" d="M197.891,290.051 C150.258,280.527 145.84,310.379 186.316,280.363 C209.551,265.773 189.453,257.344 168.086,268.59 C122.559,305.633 152.77,293.273 170.785,267.719 C228.09,262.875 249.086,296.484 197.891,290.051"/>
  <path fill="rgb(8.235294%, 100%, 5.098039%)" opacity="0.524" d="M154.094,368.438 C156.902,421.035 148.227,406.215 154.707,411.906 C152.066,407.07 145.312,423.234 146.871,369.258 C109.043,367.316 115.93,363.152 214.375,367.301 C262.793,363.488 260.172,369.402 154.094,368.438"/>
  <path fill="rgb(0%, 43.921569%, 47.843137%)" d="M332.629,205.895 C309.598,240.469 293.773,249.738 265.617,243.648 C250.391,249.41 240.629,218.152 260.176,223.961 C260.602,195.086 239.066,190.328 259.766,183.285 C320.277,181.004 324.078,180.727 332.629,205.895"/>
  <path fill="rgb(21.568627%, 18.039216%, 46.27451%)" opacity="0.854" d="M151.605,140.875 C158.441,204.441 132.469,200.348 30.379,198.73 C18.605,187.656 37.602,169.656 82.77,129.789 C159.43,94.113 88.336,121.953 97.309,74.633 C128.066,41.898 135.777,55.289 151.605,140.875"/>
  <path fill="rgb(99.215686%, 100%, 43.921569%)" opacity="0.14" d="M-4.348,172.203 C14.926,237.301 8.43,218.895 38.336,260.273 C-40.324,261.281 -37,246.953 -20.766,229.375 C-4.828,209.871 -5.223,180.988 24.762,163.785 C37.488,181.457 22.273,156.355 -4.348,172.203"/>
  <path fill="rgb(0%, 79.607843%, 73.72549%)" opacity="0.97" d="M147.113,227.062 C19.824,197.152 42.301,240.125 19.336,272.242 C-32.707,237.289 -26.602,240.031 -35.133,186.68 C-14.117,187.434 8.348,172.797 35.375,167.426 C189.898,172.441 228.039,178.098 147.113,227.062"/>
  <path fill="rgb(12.941176%, 20.392157%, 45.882353%)" opacity="0.96" d="M339.352,261.699 C367.492,388.676 394.578,370.695 286.293,447.184 C69.441,412.621 58.91,420.152 66.613,308.465 C116.48,148.68 182.973,266.086 190.391,160.836 C285.359,136.207 257.324,181.84 339.352,261.699"/>
  <path fill="rgb(83.921569%, 100%, 78.431373%)" opacity="0.059" d="M181.406,108.668 C107.047,107.645 99.676,108.938 123.703,139.441 C107.402,120.043 73.43,107.863 46.719,124.34 C32.477,91.207 48.812,87.027 98.32,90.555 C153.777,78.969 169.109,88.949 181.406,108.668"/>
  <path fill="rgb(18.823529%, 53.72549%, 57.647059%)" opacity="0.097" d="M98.645,294.402 C94.047,274.836 100.566,300.223 105.195,328.332 C104.902,308.789 110.289,283.242 109.043,289.605 C83,293.723 70,293.566 71.285,277.59 C128.746,276.262 136.52,280.453 98.645,294.402"/>
  <path fill="rgb(12.156863%, 38.431373%, 61.176471%)" opacity="0.711" d="M202.082,179.953 C195.496,164.957 182.23,164.5 181.383,183.152 C168.508,192.227 207.754,153.785 201.438,94.637 C65.195,99.742 65.082,189.547 170.922,188.789 C180.582,158.004 207.336,154.656 202.082,179.953"/>
  <path fill="rgb(25.882353%, 17.254902%, 5.882353%)" opacity="0.383" d="M317.188,259.465 C185.41,284.234 183.738,301.684 182.945,299.559 C182.402,290.863 174.121,290.816 94.797,285.371 C87.645,193.234 166.828,186.754 170.668,241.637 C147.578,274.543 259.164,235.906 317.188,259.465"/>
  <path fill="rgb(14.509804%, 26.27451%, 54.117647%)" opacity="0.963" d="M342.121,145.977 C184.441,160.578 135.453,160.27 104.137,159.594 C95.719,195.191 46.84,149.922 58.785,150.781 C91.168,98.242 121.328,110.473 134.348,112.168 C170.688,122.359 313.031,74.262 342.121,145.977"/>
  <path fill="rgb(16.470588%, 24.705882%, 45.490196%)" opacity="0.924" d="M116.551,227.047 C67.383,358.156 95.352,373.805 45.805,454.32 C-61.344,380.477 -65.164,379.727 -61.805,217.574 C-3.113,191.16 58.926,203.578 34.84,211.141 C152.609,225.473 182.512,201.684 116.551,227.047"/>
  <path fill="rgb(12.156863%, 67.058824%, 70.196078%)" opacity="0.922" d="M387.992,176.898 C414.188,262.133 402.184,240.777 319.758,252.621 C309.648,179.387 298.809,183.48 309.066,187.281 C310.102,189.191 288.188,156.918 228.32,121.422 C270.801,108.363 296.344,128.895 387.992,176.898"/>
  <path fill="rgb(99.607843%, 0.392157%, 3.921569%)" opacity="0.999" d="M197.41,63.961 C219.586,126.359 220.152,104.625 155.613,101.223 C84.551,86.062 77.836,107.848 107.27,105.766 C146.465,97.887 173.82,98.789 145.48,104.41 C139.215,72.637 134.059,64.059 197.41,63.961"/>
  <path fill="rgb(3.137255%, 50.980392%, 73.333333%)" opacity="0.851" d="M230.191,250.152 C240.598,248.383 240.18,254.105 209.824,259.359 C161.613,256.148 168.141,269.281 168.297,247.391 C168.793,228.027 177.32,237.215 230.137,238.762 C235.836,252.199 229.539,230.902 230.191,250.152"/>
  <path fill="rgb(18.431373%, 16.078431%, 23.921569%)" opacity="0.999" d="M367.438,218.023 C392.902,295.273 327.137,295.715 301.52,280.852 C212.594,291.316 205.555,292.707 246.633,286.605 C312.691,282.238 323.551,241.684 312.07,224.906 C275.562,259.574 318.453,200.191 367.438,218.023"/>
  <path fill="rgb(3.529412%, 63.137255%, 63.921569%)" opacity="0.903" d="M315.004,137.566 C334.094,206.062 329.656,262.148 263.16,272.465 C142.031,244.641 169.398,243.441 160.207,178.367 C192.918,140.859 199.613,98.797 197.719,135.844 C272.137,138.488 296.387,138.27 315.004,137.566"/>
  <path fill="rgb(38.823529%, 16.470588%, 48.235294%)" opacity="0.078" d="M85.117,137.48 C94.746,135.66 96.211,151.812 61.664,138.172 C86.105,112.223 90.707,109.301 89.184,111.91 C63.184,113.215 77.094,111.504 108.352,123.934 C73.109,163.258 48.391,146.777 85.117,137.48"/>
  <path fill="rgb(100%, 100%, 98.823529%)" d="M306.102,262.156 C313.668,296.074 362.129,280.18 231.016,285.164 C151.422,281.441 196.516,298.805 206.988,257.465 C320.633,256.719 302.441,251.84 304.484,263.051 C243.934,307.434 246.277,260.488 306.102,262.156"/>
  <path fill="rgb(43.529412%, 10.588235%, 32.54902%)" opacity="0.31" d="M79.691,284.156 C56,280.527 41.059,300.504 46.262,302.398 C42.984,302.402 23.645,316.578 -55.254,302.664 C-64.816,249.777 -20.125,263.289 81.699,265.461 C119.941,255.652 94.887,264.012 79.691,284.156"/>
  <path fill="rgb(78.823529%, 73.72549%, 64.313725%)" opacity="0.931" d="M89.41,208.992 C105.23,243.168 88.375,223.652 38.715,225.363 C-26.422,217.105 -61.234,216.973 -15.059,211.438 C43.328,213.023 57.797,216.691 8.84,227.5 C-39.895,222.02 -1.863,217.727 89.41,208.992"/>
  <path fill="rgb(100%, 65.098039%, 3.921569%)" opacity="0.944" d="M152.297,112.914 C168.297,97.844 173,122.367 310.879,102.102 C141.5,92.363 75.355,107.41 130.484,107.52 C131.133,49.586 135.844,56.117 170.305,65.094 C160.719,99.594 172.164,94.742 152.297,112.914"/>
  <path fill="rgb(0%, 60.392157%, 80%)" opacity="0.156" d="M233.73,228.512 C276.953,232.293 268.516,262.109 177.82,254.871 C183.73,234.02 194.84,210.566 194.043,230.406 C216.879,249.824 189.102,261.656 190.582,218.125 C239.098,219.25 230.352,216.848 233.73,228.512"/>
  <path fill="rgb(9.411765%, 11.764706%, 31.372549%)" opacity="0.32" d="M286.836,63.242 C308.871,127.145 288.863,130.418 212.77,121.871 C177.984,125.492 207.59,139.504 187.27,131.023 C192.363,78.512 187.469,52.984 243.426,59.945 C257.895,80.074 239.398,58.48 286.836,63.242"/>
  <path fill="rgb(96.078431%, 100%, 92.156863%)" d="M107.504,284.855 C12.023,284.461 -33.766,281.941 -50.039,290.297 C-11.117,302.812 -13.609,302.789 -41.211,296.18 C-27.066,291.195 5.559,301.793 12.801,262.629 C136.238,265.492 73.715,255.516 107.504,284.855"/>
  <path fill="rgb(8.627451%, 63.529412%, 97.254902%)" opacity="0.15" d="M173.543,224.598 C143.789,232.203 151.527,206.812 178.816,223.488 C172.41,216.289 192.473,248.387 173.402,227.781 C140.191,218.238 119.418,214.074 169.656,209.883 C180.898,234.906 164.117,221.387 173.543,224.598"/>
</svg>

