<svg xmlns="http://www.w3.org/2000/svg" width="384" height="384" viewBox="0 0 384 384">
  <defs/>
  <path fill="rgb(45.098039%, 29.411765%, 32.941176%)" opacity="0.904" d="M174.215,266.34 C147.504,278.496 142.469,304.156 122.898,287.875 C77.965,284.469 59.922,275.895 82.512,259.398 C125.508,276.289 118.723,266.605 124.285,225.441 C157.918,212.414 165.824,230.035 174.215,266.34"/>
  <path fill="rgb(38.823529%, 33.72549%, 20.392157%)" opacity="0.547" d="M389.066,366.25 C375.766,415.719 368.457,416.207 351.812,405.629 C336.094,396.457 325.504,399.066 308.773,351.348 C310.414,335.484 343.594,335.766 364.715,348.371 C376.699,324.863 388.832,315.305 389.066,366.25"/>
  <path fill="rgb(74.901961%, 79.215686%, 80.392157%)" opacity="0.008" d="M133.719,207.102 C97.16,229.812 79.633,217.801 61.355,248.793 C33.57,273.922 49.055,281.176 92.668,200.328 C21.875,155.938 -12.973,87.613 51.016,105.703 C115.316,199.652 147.441,166.047 133.719,207.102"/>
  <path fill="rgb(56.470588%, 39.215686%, 35.686275%)" opacity="0.622" d="M151.719,387.906 C145.93,321.945 173.715,387.82 181.238,348.406 C122.406,307.52 105.348,266.758 110.48,270.371 C116.914,288.746 139.801,290.555 130.199,277.074 C162.781,276.258 147.059,320.301 151.719,387.906"/>
  <path fill="rgb(46.27451%, 12.941176%, 82.352941%)" opacity="0.777" d="M359.555,285.609 C349.18,339.66 326.039,346.828 297.191,331.613 C290.223,275.027 286.148,269.898 285.414,294.289 C300.09,325.422 304.113,307.691 292.855,247.887 C335.441,235.359 362.395,235.754 359.555,285.609"/>
  <path fill="rgb(52.156863%, 80%, 17.254902%)" opacity="0.751" d="M382.316,110.418 C381.812,198.145 385.965,218.645 372.906,198.668 C347.402,128.043 352.875,78.992 374.008,148.266 C369.277,92.961 356.988,126.281 406.441,125.816 C412.762,200.004 402.418,150.246 382.316,110.418"/>
  <path fill="rgb(31.764706%, 31.764706%, 29.411765%)" opacity="0.751" d="M187.148,27.18 C200.016,46.855 223.512,112.512 212.621,133.98 C127.352,91.332 121.426,80.707 105.469,65.309 C126.012,20.027 82.598,-58.438 160.211,-3.953 C181.738,15.895 184.727,24.297 187.148,27.18"/>
  <path fill="rgb(49.019608%, 42.745098%, 44.705882%)" opacity="0.993" d="M153.777,24.688 C147.527,63.77 213.438,91.57 118.266,74.465 C96.336,56.227 89.141,48.98 72.988,13.59 C71.281,8.371 66.879,11.336 66.113,-23.52 C126.285,-19.605 137.914,-1.895 153.777,24.688"/>
  <path fill="rgb(100%, 41.176471%, 5.490196%)" d="M126.371,270.508 C25.492,354.367 66.387,334.676 23.133,357.793 C-11.348,375.309 -4.379,386.293 -7.656,345.352 C7.082,302.281 0.797,317.91 32.699,249.387 C46.613,187.707 113.375,188.148 126.371,270.508"/>
  <path fill="rgb(43.137255%, 46.27451%, 49.019608%)" opacity="0.997" d="M257.473,383.242 C271.75,391.805 231.02,395.047 124.715,443.078 C125.32,443.469 107.996,462.211 87.977,347.234 C114.527,210.18 156.406,249.145 184.215,302.672 C260.988,306.402 264.824,295.152 257.473,383.242"/>
  <path fill="rgb(45.490196%, 47.45098%, 50.588235%)" opacity="0.999" d="M355.141,170.797 C371.875,314.5 324.934,309.648 227.992,320.395 C127.457,296.109 132.406,285.953 123.379,225.059 C145.395,147.172 152.207,105.98 227.008,80.23 C299.352,67.926 327.004,110.113 355.141,170.797"/>
  <path fill="rgb(48.627451%, 48.627451%, 52.156863%)" d="M336.281,329.867 C346.633,407.41 306.516,422.547 213.797,411.934 C205.008,376.832 207.016,393.078 210.582,325.855 C209.168,311.359 246.293,334.52 254.109,306.797 C261.004,312.703 261.203,321.137 336.281,329.867"/>
  <path fill="rgb(47.058824%, 48.627451%, 50.980392%)" d="M280.523,130.918 C253.746,136.793 213.949,124.93 233.586,144.633 C203.887,135.516 229.484,104.434 265.047,146.496 C286.578,159.711 256.402,77.25 337.375,-8.91 C449.383,-15.602 400.438,98.516 280.523,130.918"/>
  <path fill="rgb(100%, 44.705882%, 16.078431%)" opacity="0.963" d="M397.043,280.984 C391.82,328.352 393.926,337.848 360.43,340.465 C353.297,372.941 347.445,386.605 348.578,325.32 C349.574,194.094 335.758,143.113 413.582,176.871 C420.266,263.676 407.734,276.992 397.043,280.984"/>
  <path fill="rgb(45.882353%, 48.627451%, 52.54902%)" d="M372,220.453 C399.227,335.148 388.68,297.367 307.355,290.078 C282.93,293.602 314.254,283.312 287.121,202.262 C267.445,186.777 277.922,217.688 300.277,224.148 C357.996,176.957 354.492,144.691 372,220.453"/>
  <path fill="rgb(45.098039%, 49.019608%, 52.156863%)" opacity="0.813" d="M250.312,273.461 C267.047,320.43 289.262,308.043 236.074,325.848 C150.129,318.902 132.68,348.156 105.301,328.59 C111.043,251.957 154.77,248.516 182.055,266.977 C207.312,277.766 271.734,261.434 250.312,273.461"/>
  <path fill="rgb(54.117647%, 44.313725%, 48.627451%)" opacity="0.406" d="M254.234,342.602 C248.281,271.012 247.23,296.551 289.059,327.816 C266.215,326.242 220.547,323.047 221.918,326.391 C198.852,274.922 199.723,283.734 269.844,275.059 C317.992,346.359 335.555,340.918 254.234,342.602"/>
  <path fill="rgb(32.156863%, 29.019608%, 41.568627%)" opacity="0.085" d="M104.07,270.348 C98.738,253.957 96.016,251.992 138.645,257.984 C100.684,238.238 117.699,253.203 148.473,276.805 C131.762,278.258 111.914,274.77 110.738,280.809 C131.594,281.789 112.465,264.16 104.07,270.348"/>
  <path fill="rgb(45.882353%, 48.235294%, 52.941176%)" opacity="0.992" d="M337.547,236.27 C395.824,299.711 433.953,340.102 351.582,424.723 C223.945,351.996 260.543,275.125 304.102,295.816 C320.812,292.496 308.457,265.594 280.859,236.773 C271.438,248.555 274.883,250.656 337.547,236.27"/>
  <path fill="rgb(35.294118%, 66.27451%, 47.843137%)" opacity="0.179" d="M202.094,280.195 C180.902,311.066 201,331.469 245.242,314.016 C201.012,276.574 195.555,284.07 178.473,279.801 C212.512,253.996 181.355,285.699 208.523,298.973 C246.316,285.277 225.398,277.855 202.094,280.195"/>
  <path fill="rgb(36.078431%, 57.647059%, 53.333333%)" opacity="0.17" d="M209,310.207 C190.734,386.906 163.73,373.328 245.25,403.359 C238.258,321.82 257.688,355.207 178.023,362.996 C153.605,325.133 147.512,316.762 199.922,319.082 C217.031,317.848 245.191,309.797 209,310.207"/>
  <path fill="rgb(38.039216%, 60.392157%, 45.490196%)" opacity="0.139" d="M255.395,332.141 C257.777,373.164 275.48,384.305 240.242,342.164 C229.949,319.777 211.715,327.016 279.078,338.012 C281.887,274.406 260.949,266.188 236.512,299.855 C203.277,306.828 260.102,326.258 255.395,332.141"/>
  <path fill="rgb(51.372549%, 63.137255%, 3.137255%)" opacity="0.944" d="M101.996,224.762 C66.469,204.371 82.477,218.773 108.637,224.734 C79.797,212.691 81.852,209.836 91.078,194.488 C79.508,89.223 164.539,61.84 178.84,126.762 C173.535,169.242 151.465,160.793 101.996,224.762"/>
  <path fill="rgb(100%, 38.823529%, 23.921569%)" d="M247.844,271.137 C218.84,295.125 255.492,261.238 249.316,277.371 C240.047,251.223 263.691,258.367 228.945,231.109 C291.004,216.281 263.629,251.395 241.664,243.574 C258.152,249.035 247.797,235.859 247.844,271.137"/>
</svg>

