<svg xmlns="http://www.w3.org/2000/svg" width="384" height="384" viewBox="0 0 384 384">
  <defs/>
  <path fill="rgb(93.333333%, 58.039216%, 12.54902%)" opacity="0.815" d="M174.418,165.473 C128.273,182.918 121.379,184.496 131.328,212.48 C97.633,237.594 93.418,233.344 65.836,152.648 C63.117,110.348 89.285,104.422 90.223,134.875 C149.5,143.309 190.547,120.953 174.418,165.473"/>
  <path fill="rgb(0%, 51.372549%, 76.078431%)" d="M476.574,254.766 C477.828,394.457 399.641,394.66 293.016,404.383 C189.48,421.328 166.32,405.062 233.773,294.391 C354.051,311.895 294.812,307.961 340.258,253.066 C411.469,204.645 398.555,236.758 476.574,254.766"/>
  <path fill="rgb(16.862745%, 64.705882%, 29.803922%)" opacity="0.09" d="M368.355,287.09 C364.148,341.199 368.73,292.027 290.691,313.75 C200.066,316.223 199.211,300.004 226.34,295.391 C223.359,222.355 217.855,185.879 260.441,176.512 C352.336,190.383 384.352,173.609 368.355,287.09"/>
  <path fill="rgb(4.705882%, 74.509804%, 0%)" opacity="0.985" d="M114.27,320.809 C110.812,379.848 112.805,375.887 92.168,364.281 C83.145,333.566 73.727,339.551 75.562,318.566 C63.945,314.148 60.004,318.492 75.109,323.758 C100.723,314.91 118.273,304.953 114.27,320.809"/>
  <path fill="rgb(100%, 51.372549%, 32.941176%)" opacity="0.839" d="M412.91,13.691 C400.273,187.648 372.508,186.84 310.836,194.125 C208.172,107.266 143.242,94.312 161.012,8.637 C173.227,-8.984 178.371,-12.773 201.895,-22.348 C263.23,-27.355 315.078,-35.801 412.91,13.691"/>
  <path fill="rgb(99.215686%, 58.431373%, 41.568627%)" opacity="0.971" d="M331.992,146.355 C320.484,219.645 297.309,224.758 229.07,214.848 C121.047,184.961 146.027,187.449 125.324,61.199 C93.199,29.629 102.703,24.16 136.715,0.117 C199.414,-37.969 224.824,-5.938 331.992,146.355"/>
  <path fill="rgb(10.980392%, 73.72549%, 98.431373%)" opacity="0.193" d="M184.652,389.77 C183.844,403.848 189.199,413.211 208.402,417.957 C194.582,393.957 213.328,369.336 194.934,381.465 C215.93,400.426 221.57,363.059 242.176,369.43 C238.012,383.738 213.199,350.184 184.652,389.77"/>
  <path fill="rgb(100%, 61.568627%, 41.568627%)" opacity="0.937" d="M214.098,124.855 C179.07,166.973 198.574,162.223 77.551,160.887 C37.414,126.035 46.918,108.383 70.238,64.266 C83.84,46.746 84.133,42.336 108.438,23.035 C212.418,49.996 219.16,48.812 214.098,124.855"/>
  <path fill="rgb(99.607843%, 83.529412%, 28.235294%)" opacity="0.979" d="M255.953,307.945 C167.648,254.598 128.809,267.332 166.004,260.527 C139.711,261.07 110.32,262.797 68.91,218.566 C111.383,180.438 152.777,149.121 240.062,175.453 C367.543,173.184 356.93,298.367 255.953,307.945"/>
  <path fill="rgb(0%, 48.235294%, 70.588235%)" opacity="0.957" d="M112.672,354.676 C143.996,422.359 49.152,425.332 -10.273,393.359 C40.855,282.281 12,278.906 13.578,236.199 C-44.238,144.16 -127.719,90.262 10.031,52.957 C105.078,81.312 92.473,165.492 112.672,354.676"/>
  <path fill="rgb(0%, 50.196078%, 72.941176%)" d="M126.496,248.516 C141.285,335.684 124.625,332.82 36.895,411.32 C-79.633,382.996 -67.449,358.004 -39.129,227.5 C-27.918,202.461 -9.469,214.844 56.953,216.52 C67.441,228.441 115.852,202.438 126.496,248.516"/>
  <path fill="rgb(61.960784%, 46.666667%, 33.72549%)" opacity="0.287" d="M176.488,225.809 C144.723,206.934 146.473,207.992 162.992,223.199 C176.98,254 168.527,262.34 137.863,239.633 C138.375,203.02 148.516,206.918 139.715,214.125 C162.699,205.172 173.387,199.062 176.488,225.809"/>
  <path fill="rgb(0%, 52.156863%, 75.294118%)" opacity="0.99" d="M189.941,248.418 C270.133,232.48 290.012,374.742 204.23,397.141 C-6.133,405.625 59.414,363.047 73.75,202.914 C95.141,185.992 132.898,167.523 164.887,211.406 C203.848,278.078 150.723,261.871 189.941,248.418"/>
  <path fill="rgb(100%, 61.176471%, 44.705882%)" d="M496.871,168.816 C512.723,237.523 492.395,228.977 333.668,241.902 C307.613,206.266 267.527,224.543 301.102,195.926 C422.43,151.125 409.66,110.191 465.641,79.625 C448.48,23.668 439.676,40.012 496.871,168.816"/>
  <path fill="rgb(1.176471%, 30.980392%, 69.803922%)" opacity="0.026" d="M352.805,344.594 C347.266,401.207 353.035,415.988 354.547,342.273 C377.891,339.867 384.914,353.254 374.477,293.492 C368.48,364.121 405.684,346.922 325.855,351.691 C287.93,342.543 316.941,341.738 352.805,344.594"/>
</svg>

