<?xml version="1.0" ?>
<svg xmlns="http://www.w3.org/2000/svg" version="1.1" width="512" height="512" viewBox="0 0 512 512">
  <defs/>
  <g>
    <path d="M 426.75341797 475.84259033 C 416.55364990 477.93945312 406.38034058 479.88113403 396.26806641 481.57400513 C 386.21911621 482.94979858 376.24240112 484.13146973 366.32687378 485.16860962 C 356.48669434 486.12307739 346.69601440 487.10910034 336.92208862 488.01586914 C 327.11605835 488.69699097 317.28112793 489.20889282 307.32662964 489.67129517 C 297.23855591 490.11465454 287.03845215 490.44161987 276.66574097 490.65817261 C 266.07232666 490.75521851 255.31967163 490.71838379 244.35684204 490.58609009 C 233.14326477 490.46401978 221.76737976 490.28808594 210.22958374 489.97146606 C 198.52642822 489.48791504 186.72720337 488.84817505 174.88267517 487.99658203 C 163.07745361 487.00958252 151.34373474 485.83389282 139.81083679 484.53662109 C 128.54977417 483.17114258 117.62330627 481.75302124 107.20416260 480.29046631 C 97.45931244 478.48193359 88.42731476 476.56121826 80.25142670 474.54718018 C 73.08872223 472.42456055 67.12756348 470.09545898 62.50571823 467.52905273 C 59.41035461 464.54818726 57.87532806 461.36108398 57.80087280 458.13772583 C 59.20427704 455.08212280 62.06940460 452.33123779 66.38716125 449.94787598 C 72.00908661 447.89517212 78.68482208 446.04672241 86.33303070 444.36254883 C 94.74770355 442.70156860 103.70147705 440.77648926 113.09130859 438.70196533 C 122.78441620 436.52200317 132.73298645 434.24954224 142.83544922 431.96566772 C 152.96264648 429.73229980 163.13597107 427.61233521 173.28305054 425.63046265 C 183.38217163 423.88961792 193.41375732 422.33547974 203.36042786 421.05249023 C 213.20745850 420.02377319 222.94531250 419.23184204 232.59977722 418.64160156 C 242.11251831 418.27365112 251.54582214 418.10003662 260.90402222 418.11151123 C 270.20083618 418.39074707 279.45156860 418.86865234 288.61569214 419.58078003 C 297.74548340 420.48294067 306.81719971 421.51522827 315.83972168 422.71328735 C 324.80163574 424.06112671 333.70471191 425.50741577 342.49121094 427.08267212 C 351.19973755 428.72628784 359.80050659 430.44531250 368.24047852 432.21865845 C 376.51870728 434.01962280 384.63949585 435.84808350 392.55258179 437.67575073 C 400.25814819 439.43673706 407.74615479 441.08877563 414.98428345 442.62109375 C 421.98468018 443.96084595 428.67340088 445.24987793 434.96401978 446.69415283 C 440.81109619 448.49188232 446.07934570 451.12414551 450.80581665 454.92684937 C 455.14495850 459.86303711 459.51934814 465.32733154 426.75341797 475.84259033" stroke-width="2.00000000" fill="rgb(221, 215, 225)" opacity="1.0" stroke="rgb(216, 217, 219)" stroke-opacity="0.0293441" stroke-linecap="round" stroke-linejoin="round"/>
    <path d="M 416.63775635 456.93780518 C 416.11441040 457.42465210 415.38699341 457.86407471 414.23321533 458.08023071 C 412.73114014 458.37112427 410.68899536 458.82247925 407.94650269 459.05090332 C 404.51263428 459.32406616 400.44680786 459.92462158 395.52917480 460.68389893 C 389.75631714 461.25598145 383.18460083 462.01339722 375.67950439 462.88809204 C 367.17501831 463.68292236 357.75122070 464.57983398 347.48760986 465.29959106 C 336.40350342 466.16665649 324.38241577 466.93328857 311.72647095 467.34255981 C 298.41058350 467.92956543 284.48779297 468.22598267 270.09213257 468.40682983 C 255.41743469 468.55279541 240.57328796 468.40347290 225.53738403 468.07669067 C 210.62272644 467.83422852 195.88151550 467.40518188 181.57414246 466.54791260 C 167.82029724 465.65496826 154.62818909 464.84881592 142.31137085 463.71148682 C 131.08187866 462.57977295 120.99229431 461.46636963 112.31689453 460.25683594 C 105.32582855 459.28930664 100.00283051 458.72616577 97.00002289 457.53649902 C 96.50875092 454.27246094 96.79079437 448.95486450 96.85890961 441.90667725 C 96.91407776 433.54843140 96.71022797 424.05764771 96.91204071 413.62200928 C 96.92112732 402.56387329 96.99812317 391.15759277 97.01683044 379.60180664 C 96.97734070 368.06744385 97.04062653 356.79901123 97.21218109 346.03192139 C 97.94997406 335.98626709 99.80825806 326.73284912 102.78098297 318.25677490 C 106.77416229 310.55303955 111.71101379 303.56521606 117.62178040 297.32351685 C 124.52521515 291.83938599 132.36146545 287.06494141 141.08691406 283.04162598 C 150.62901306 279.78353882 160.97093201 277.16580200 172.12017822 275.11785889 C 183.92790222 273.64889526 196.17832947 272.64346313 208.79696655 271.91906738 C 221.69982910 271.41390991 234.76612854 271.13726807 248.02763367 271.11914062 C 261.45892334 271.22943115 274.84454346 271.52322388 288.08935547 271.78057861 C 301.15655518 272.13540649 314.06781006 272.56488037 326.69381714 272.95559692 C 338.85800171 273.23843384 350.51242065 273.58383179 361.62356567 274.10861206 C 371.97982788 275.12011719 381.54837036 275.89212036 390.19754028 276.82354736 C 397.78695679 277.87142944 404.14459229 278.42010498 409.08819580 279.00695801 C 412.24588013 280.51354980 414.31329346 282.65356445 415.82000732 284.48782349 C 416.25640869 286.26211548 416.12576294 288.09649658 416.21160889 289.92102051 C 416.25756836 291.70800781 416.54754639 293.48257446 416.63775635 456.93780518" stroke-width="0.53765994" fill="rgb(83, 46, 35)" opacity="1.0" stroke="rgb(97, 88, 84)" stroke-opacity="0.46528554" stroke-linecap="round" stroke-linejoin="round"/>
    <path d="M 415.28744507 379.91091919 C 406.18972778 379.77786255 397.10003662 379.63833618 388.01870728 379.47674561 C 378.87423706 379.42044067 369.69491577 379.51885986 360.49215698 379.97424316 C 351.25271606 380.73056030 341.94281006 381.38690186 332.57885742 381.84570312 C 323.12472534 382.16299438 313.52377319 382.38995361 303.72399902 382.55102539 C 293.74822998 382.61773682 283.69354248 382.74105835 273.55966187 382.87728882 C 263.26623535 382.77349854 252.76142883 382.66421509 242.12052917 382.85272217 C 231.40223694 383.43136597 220.51728821 383.86883545 209.40792847 384.02810669 C 198.16784668 384.03372192 186.93563843 383.93890381 175.68836975 383.70770264 C 164.50924683 383.24520874 153.54130554 382.44943237 142.89813232 381.34011841 C 132.73033142 379.76406860 123.38137054 377.57495117 115.08832550 374.59802246 C 108.12354279 370.58233643 102.83784485 365.37246704 99.38623047 358.96331787 C 97.68513489 351.42340088 97.13684845 343.10858154 97.28907013 334.38281250 C 97.34311676 325.58938599 97.32771301 317.01885986 97.26648712 308.78149414 C 97.29794312 301.06881714 97.33748627 294.23895264 97.16390991 288.51882935 C 97.24099731 284.24990845 98.92540741 281.56497192 102.12084198 279.94036865 C 106.33788300 279.13494873 111.64675903 278.53115845 117.76467133 277.58673096 C 124.79985046 276.75653076 132.64620972 275.83972168 141.13082886 275.22747803 C 150.12812805 274.41122437 159.56546021 273.66925049 169.39353943 273.14880371 C 179.40823364 272.46224976 189.62864685 272.07913208 199.98350525 271.79806519 C 210.53964233 271.32861328 221.21838379 271.21899414 231.94595337 270.90594482 C 242.59236145 270.66482544 253.38536072 270.40304565 264.20965576 270.13238525 C 274.91522217 270.33868408 285.47637939 270.77301025 296.00903320 270.94805908 C 306.51971436 271.27481079 316.84826660 271.81170654 327.13412476 272.19436646 C 337.36682129 272.79989624 347.37597656 273.39340210 357.21572876 274.34359741 C 366.72494507 275.59539795 376.12850952 276.80389404 385.15240479 277.71087646 C 393.35928345 278.66110229 400.49920654 279.36685181 406.41918945 280.00588989 C 410.87326050 281.25463867 413.72229004 283.63848877 415.15576172 287.40728760 C 415.46752930 292.50418091 415.35440063 298.76226807 415.34414673 305.85015869 C 415.26055908 313.43286133 415.30145264 321.18176270 415.26376343 328.98089600 C 415.25711060 336.77893066 415.28512573 344.53424072 415.28744507 379.91091919" stroke-width="0.70773405" fill="rgb(63, 32, 22)" opacity="1.0" stroke="rgb(0, 0, 0)" stroke-opacity="0.46911255" stroke-linecap="round" stroke-linejoin="round"/>
    <path d="M 396.57083130 383.39077759 C 383.90164185 381.33663940 371.58227539 379.19744873 359.74902344 378.39099121 C 348.29782104 380.41870117 337.22222900 384.23294067 326.20083618 387.72430420 C 314.97946167 388.75759888 303.43096924 387.09423828 291.26666260 384.26116943 C 278.30282593 382.47741699 264.87490845 381.48489380 251.26498413 381.00906372 C 237.79476929 381.13372803 224.68780518 382.56259155 212.03800964 384.69839478 C 199.85673523 385.56747437 188.07490540 384.30126953 176.54141235 382.31311035 C 165.13607788 382.13153076 153.93045044 382.88226318 142.93685913 382.71939087 C 132.28790283 381.17855835 122.10651398 379.90576172 113.05300903 378.94229126 C 105.86117554 377.84246826 101.17815399 376.22293091 99.22984314 374.03292847 C 99.55336761 371.89807129 102.47935486 370.56994629 108.04193878 370.51263428 C 115.85596466 371.22546387 125.24356842 372.20202637 135.76528931 372.97280884 C 147.05511475 373.68450928 158.88131714 374.33224487 170.99505615 374.85418701 C 183.33555603 375.31381226 195.81120300 375.66854858 208.31088257 375.89923096 C 220.80725098 376.04794312 233.20597839 376.22851562 245.49697876 376.43142700 C 257.67016602 376.57757568 269.65234375 376.46218872 281.47424316 376.16894531 C 293.08966064 376.03372192 304.48678589 375.87170410 315.66970825 375.56747437 C 326.62786865 375.21081543 337.38507080 374.84255981 347.90869141 374.45581055 C 358.22631836 373.97436523 368.36727905 373.42697144 378.32675171 372.81066895 C 388.17202759 372.08700562 397.82815552 370.98413086 407.38580322 369.70391846 C 416.98394775 369.17895508 426.66873169 369.33914185 396.57083130 383.39077759" stroke-width="0.86297995" fill="rgb(152, 87, 64)" opacity="1.0" stroke="rgb(253, 160, 134)" stroke-opacity="0.3336188" stroke-linecap="round" stroke-linejoin="round"/>
    <path d="M 183.89073181 168.32478333 C 184.93508911 169.63183594 186.12483215 170.75910950 187.23449707 171.81309509 C 188.27612305 172.73408508 189.14212036 173.53926086 189.74029541 174.22105408 C 189.77984619 174.95298767 189.26104736 175.73602295 188.33535767 176.50985718 C 187.04771423 177.26875305 185.49145508 178.00329590 183.73376465 178.61013794 C 181.73915100 179.13700867 179.58465576 179.43536377 177.29254150 179.62088013 C 174.89323425 179.48497009 172.51019287 179.06994629 170.16729736 178.22003174 C 167.86267090 176.96948242 165.57350159 175.28070068 163.28782654 173.33422852 C 160.82215881 171.23713684 158.26353455 169.04193115 155.64611816 166.74154663 C 152.93353271 164.45127869 150.19676208 162.02662659 147.51152039 159.65083313 C 144.83088684 157.26742554 142.14427185 154.91224670 139.52958679 152.66178894 C 136.98260498 150.50474548 134.69805908 148.41546631 132.62071228 146.35780334 C 130.74227905 144.44300842 129.15386963 142.60554504 128.12426758 140.65045166 C 127.52355957 138.57800293 127.23995209 136.55210876 127.47315216 134.62290955 C 128.12742615 132.88992310 129.13571167 131.37188721 130.44635010 130.10279846 C 131.83755493 128.95127869 133.37329102 128.30064392 135.08427429 128.18562317 C 136.91894531 128.73786926 138.87428284 129.83752441 141.00239563 131.33303833 C 143.26550293 133.11947632 145.64231873 135.16944885 148.15744019 137.46492004 C 150.82269287 139.92805481 153.71228027 142.33251953 156.61129761 144.84841919 C 159.61714172 147.53742981 162.69548035 150.18037415 165.73435974 152.89231873 C 168.84982300 155.69335938 171.75903320 158.65026855 183.89073181 168.32478333" stroke-width="0.50645280" fill="rgb(69, 45, 34)" opacity="1.0" stroke="rgb(0, 21, 20)" stroke-opacity="0.39090744" stroke-linecap="round" stroke-linejoin="round"/>
    <path d="M 226.16023254 209.21481323 C 231.47503662 214.59364319 236.82318115 219.90849304 242.10763550 225.18653870 C 247.42626953 230.19639587 252.42845154 235.19137573 256.95947266 240.24679565 C 261.24633789 245.01106262 265.21273804 249.37420654 268.75198364 253.22297668 C 272.00091553 256.35977173 274.55654907 258.89309692 276.36422729 260.57153320 C 277.12210083 261.70211792 276.70092773 262.10385132 275.18853760 261.85671997 C 272.65463257 261.17004395 269.17657471 260.18649292 264.87072754 259.00839233 C 259.89703369 257.46316528 254.61286926 255.53320312 249.00526428 252.88792419 C 243.20497131 250.01583862 237.49287415 246.63424683 232.19850159 242.61662292 C 226.86712646 238.46482849 221.97343445 234.19195557 217.52050781 229.79588318 C 213.11227417 225.67771912 209.24270630 221.58554077 206.28524780 217.17739868 C 204.09672546 212.71133423 201.71382141 208.47477722 198.49710083 204.77137756 C 194.40272522 201.27758789 190.33219910 197.28173828 186.26158142 193.02037048 C 182.18806458 188.71371460 178.07147217 184.64086914 174.16636658 181.01617432 C 170.58882141 177.72496033 167.89799500 174.94108582 166.16061401 172.81042480 C 166.07176208 171.08613586 167.38099670 169.63885498 169.09530640 167.83369446 C 170.71115112 165.88821411 172.40568542 164.33715820 174.37200928 163.94615173 C 176.80706787 165.12652588 179.50897217 167.59634399 182.47944641 170.86015320 C 186.02931213 174.15574646 190.42005920 177.12620544 195.22077942 179.95208740 C 199.94505310 183.22264099 204.37609863 187.20568848 208.55264282 191.59173584 C 212.92477417 195.84915161 217.22540283 200.23870850 226.16023254 209.21481323" stroke-width="2.00000000" fill="rgb(199, 204, 208)" opacity="1.0" stroke="rgb(12, 13, 13)" stroke-opacity="1.0" stroke-linecap="round" stroke-linejoin="round"/>
  </g>
</svg>
