<?xml version="1.0" ?>
<svg xmlns="http://www.w3.org/2000/svg" version="1.1" width="512" height="512" viewBox="0 0 512 512">
  <defs/>
  <g>
    <path d="M 405.17742920 363.40332031 C 398.40567017 362.34985352 391.61254883 360.94915771 384.84927368 359.71597290 C 377.96408081 359.04046631 370.87390137 358.39547729 363.64178467 357.74917603 C 356.37561035 357.22018433 349.05804443 356.70376587 341.63055420 356.16168213 C 334.10458374 355.82952881 326.52420044 355.31613159 318.96752930 354.58551025 C 311.37106323 354.40182495 303.60815430 354.45693970 295.69070435 353.84161377 C 287.60458374 353.70401001 279.37109375 353.14212036 270.88348389 352.65112305 C 262.15151978 352.28805542 253.28547668 352.11526489 244.33322144 352.23382568 C 235.21835327 352.68472290 225.92431641 353.37051392 216.49052429 353.88269043 C 206.94497681 354.20935059 197.40507507 354.63534546 187.97026062 354.85437012 C 178.68395996 354.76382446 169.55595398 354.90997314 160.66921997 355.26046753 C 152.16813660 355.94290161 144.10063171 357.01193237 136.55709839 358.34973145 C 129.58496094 359.53173828 123.25505829 360.71228027 117.68704224 361.55078125 C 113.13809204 362.11178589 109.73144531 362.91470337 107.48062897 362.78353882 C 106.35535431 360.70370483 105.39225769 357.67697144 104.41362762 354.27868652 C 104.49624634 350.70770264 105.96916199 347.21398926 108.64231873 343.64901733 C 112.20460510 339.96978760 116.49784851 336.21527100 121.52416229 332.45034790 C 127.30728149 328.85577393 133.76106262 325.49655151 140.76527405 322.34747314 C 148.22390747 319.35540771 156.03417969 316.54843140 164.13043213 314.05639648 C 172.45220947 311.84118652 180.95979309 309.83514404 189.57353210 308.04489136 C 198.25979614 306.60269165 206.97509766 305.40185547 215.74226379 304.49813843 C 224.53976440 303.96252441 233.29377747 303.58163452 241.95332336 303.42239380 C 250.53755188 303.52410889 259.04977417 303.87203979 267.43301392 304.42056274 C 275.67987061 305.18002319 283.78253174 306.11654663 291.76068115 307.21267700 C 299.58209229 308.41390991 307.18569946 309.66812134 314.61599731 310.93246460 C 321.88250732 312.26577759 328.92468262 313.65512085 335.68768311 315.08059692 C 342.21301270 316.47406006 348.49838257 317.91162109 354.59994507 319.44165039 C 360.48696899 321.00155640 366.23272705 322.50119019 371.75375366 323.93728638 C 377.01367188 325.39572144 382.05126953 326.94976807 387.00946045 328.49942017 C 391.88638306 330.07666016 396.67053223 331.75097656 401.35308838 333.65841675 C 406.14416504 335.72207642 411.14581299 337.89117432 405.17742920 363.40332031" stroke-width="1.28313553" fill="rgb(244, 212, 12)" opacity="1.0" stroke="rgb(231, 209, 0)" stroke-opacity="0.31336853" stroke-linecap="round" stroke-linejoin="round"/>
    <path d="M 298.06256104 293.60571289 C 300.19128418 294.86978149 301.66833496 296.49209595 302.13088989 298.76776123 C 301.66235352 301.46173096 300.40042114 304.38299561 298.28079224 307.31906128 C 295.34487915 310.10217285 291.83886719 312.62289429 287.84576416 314.81704712 C 283.35974121 316.68881226 278.49203491 318.28305054 273.34664917 319.53686523 C 267.94247437 320.37542725 262.35507202 320.85925293 256.74005127 321.08486938 C 251.17459106 320.98052979 245.72879028 320.53598022 240.43055725 319.69473267 C 235.34806824 318.56414795 230.62530518 317.15142822 226.29132080 315.32388306 C 222.47755432 312.95355225 219.33007812 310.16299438 216.88101196 307.01217651 C 215.14463806 303.40423584 214.09481812 299.35256958 213.76045227 294.89651489 C 214.22290039 289.91131592 214.99876404 284.71066284 216.30442810 279.02050781 C 217.54887390 273.00640869 218.79162598 266.80026245 220.05467224 260.36203003 C 221.39413452 253.68162537 222.81381226 246.89520264 224.23464966 240.05043030 C 225.83790588 233.13352966 227.34095764 226.17726135 228.83128357 219.19656372 C 230.39048767 212.19419861 232.13777161 205.09707642 233.73664856 198.07038879 C 235.19882202 190.98811340 236.80630493 183.98895264 238.58984375 176.95550537 C 240.00038147 170.06365967 241.63327026 163.08569336 243.38838196 156.44413757 C 244.81817627 149.87886047 246.40933228 143.34744263 247.84057617 137.20559692 C 249.23220825 131.31770325 250.55133057 125.94664001 251.56727600 120.76617432 C 252.70817566 116.25007629 253.54670715 112.21364594 254.36856079 109.01115417 C 254.99992371 106.54991913 255.62600708 104.86842346 256.50878906 104.22628784 C 257.26763916 104.50758362 257.85089111 105.83708954 258.18249512 108.11943817 C 258.83477783 111.36089325 259.61285400 115.36791992 260.46109009 120.10134125 C 261.73593140 125.47563171 262.93328857 131.08793640 264.33792114 137.18876648 C 265.80651855 143.68814087 267.43661499 150.28361511 269.01416016 157.12550354 C 270.49340820 164.11824036 272.01608276 171.17903137 273.67782593 178.22094727 C 275.09423828 185.27581787 276.56198120 192.26071167 278.29315186 199.11209106 C 279.84411621 205.84594727 281.24124146 212.68612671 282.48794556 219.40312195 C 283.87780762 225.89509583 285.56265259 232.26763916 286.85736084 238.69544983 C 288.08538818 245.12225342 289.57748413 251.41653442 290.78576660 257.81738281 C 291.83200073 264.17102051 293.66326904 270.41873169 298.06256104 293.60571289" stroke-width="1.14025044" fill="rgb(245, 208, 10)" opacity="1.0" stroke="rgb(232, 191, 0)" stroke-opacity="0.34982264" stroke-linecap="round" stroke-linejoin="round"/>
    <path d="M 224.41308594 290.06253052 C 221.75929260 294.39218140 219.05201721 298.61578369 216.23558044 302.67694092 C 213.23393250 306.48510742 210.07167053 309.99215698 206.77383423 313.11682129 C 203.27824402 315.79638672 199.63972473 318.01336670 195.92074585 319.79266357 C 192.10351562 321.17434692 188.22453308 322.12387085 184.34729004 322.61578369 C 180.51147461 322.75997925 176.69277954 322.68322754 172.93061829 322.37872314 C 169.28996277 321.74041748 165.81906128 320.78829956 162.59304810 319.57925415 C 159.62220764 318.12026978 156.92388916 316.35305786 154.57719421 314.29467773 C 152.69139099 311.94406128 151.30409241 309.32604980 150.36940002 306.47894287 C 149.92765808 303.29467773 150.19927979 300.00186157 150.89157104 296.39392090 C 151.96414185 292.31591797 152.90373230 288.06155396 153.64591980 283.55975342 C 154.57307434 278.80059814 155.67497253 273.91674805 156.63351440 268.96685791 C 157.60968018 263.88748169 158.82508850 258.71270752 159.83216858 253.43663025 C 160.80032349 248.14462280 162.04617310 242.88815308 163.26434326 237.67222595 C 164.23919678 232.27543640 165.20072937 226.90707397 166.53279114 221.79479980 C 167.77317810 216.59957886 168.65686035 211.36878967 169.74732971 206.25125122 C 170.88830566 201.20750427 171.96603394 196.15960693 172.84651184 191.26861572 C 173.76237488 186.49452209 174.75924683 181.92285156 175.80052185 177.77027893 C 176.77888489 173.91236877 177.56330872 170.30424500 178.30863953 167.14381409 C 178.70462036 164.41798401 179.33261108 162.37805176 179.91156006 160.86927795 C 180.41275024 160.12705994 180.88569641 160.10945129 181.24189758 160.77937317 C 181.37033081 161.99438477 181.61572266 163.69151306 182.28160095 165.90078735 C 182.79182434 168.65341187 183.48118591 171.92968750 184.41156006 175.45822144 C 185.25767517 179.51652527 186.21157837 183.84759521 187.34715271 188.26278687 C 188.48715210 193.05751038 189.54914856 198.09208679 190.71638489 203.28263855 C 191.72129822 208.47720337 192.90525818 213.83187866 194.11750793 219.43278503 C 195.11059570 224.94682312 196.23716736 230.50137329 197.48043823 236.31222534 C 198.67340088 242.05570984 199.95176697 247.85935974 201.03042603 253.76515198 C 202.47396851 259.70901489 203.72114563 265.72903442 205.28283691 271.84494019 C 206.67190552 277.83062744 207.82568359 283.69277954 209.22421265 289.36273193 C 210.04759216 294.67453003 210.66824341 299.65432739 224.41308594 290.06253052" stroke-width="1.11927152" fill="rgb(244, 209, 9)" opacity="1.0" stroke="rgb(234, 195, 0)" stroke-opacity="0.35833573" stroke-linecap="round" stroke-linejoin="round"/>
    <path d="M 349.72592163 334.61846924 C 345.56457520 334.19781494 341.47793579 333.81271362 337.41424561 333.39141846 C 333.26736450 332.98376465 329.10839844 332.63046265 325.04553223 332.37109375 C 321.07614136 332.21194458 317.12927246 331.99703979 313.35729980 331.74169922 C 309.88699341 331.43627930 306.71356201 330.82135010 303.89047241 329.82452393 C 301.64266968 328.27584839 299.90490723 326.26846313 298.59658813 323.78540039 C 297.69515991 320.84307861 297.24548340 317.52090454 297.27017212 313.94509888 C 297.67050171 310.18637085 298.38092041 306.20910645 299.36364746 302.00881958 C 300.52816772 297.57202148 301.83682251 292.94186401 302.99612427 288.17495728 C 304.03451538 283.17028809 305.18978882 278.08932495 306.51919556 273.11199951 C 307.58468628 267.94604492 308.60244751 262.68426514 309.64581299 257.44592285 C 311.10525513 252.33190918 312.32318115 247.10446167 313.20574951 241.82516479 C 314.43991089 236.60220337 315.80325317 231.30618286 316.85879517 225.77915955 C 318.12228394 220.45074463 319.25634766 214.80097961 320.27435303 209.38787842 C 321.45901489 204.03677368 322.68164062 198.71926880 323.92745972 193.52799988 C 324.80963135 188.53329468 325.85559082 183.78433228 327.09552002 179.27555847 C 328.28533936 175.15200806 329.05291748 171.36724854 329.70788574 167.97985840 C 330.41040039 164.99780273 331.03039551 162.81581116 331.41687012 161.11901855 C 331.91268921 160.04449463 332.23956299 159.81343079 332.71572876 160.42041016 C 333.00186157 161.69824219 333.48687744 163.67239380 334.06457520 166.22377014 C 334.58377075 169.36694336 335.32449341 172.94667053 336.11853027 176.85418701 C 336.94134521 181.08483887 337.84829712 185.75129700 339.00378418 190.50352478 C 340.06536865 195.57460022 341.06478882 200.65756226 342.12722778 206.03128052 C 343.12985229 211.34997559 344.42419434 216.59631348 345.38955688 221.96859741 C 346.36853027 227.34747314 347.57315063 232.49195862 348.68572998 237.61665344 C 349.59176636 242.94473267 350.67367554 247.90382385 351.89022827 252.61508179 C 352.82733154 257.37072754 353.68948364 262.07006836 354.60992432 266.53582764 C 355.49862671 270.87292480 356.40127563 275.04019165 357.23956299 279.12045288 C 358.07702637 283.24148560 358.78417969 287.12268066 359.56152344 290.80770874 C 360.20556641 294.40509033 360.99691772 298.03582764 361.62551880 301.51428223 C 362.18292236 304.97088623 362.80895996 308.59158325 349.72592163 334.61846924" stroke-width="1.11994040" fill="rgb(244, 209, 11)" opacity="1.0" stroke="rgb(234, 191, 0)" stroke-opacity="0.37071434" stroke-linecap="round" stroke-linejoin="round"/>
    <path d="M 126.37310791 322.10449219 C 126.51848602 323.59448242 126.83627319 325.16012573 126.90045929 326.85369873 C 126.67615509 328.67767334 126.16911316 330.61334229 125.33314514 332.52490234 C 124.22961426 334.41262817 122.88803101 336.31723022 121.30799103 338.17062378 C 119.50304413 339.76943970 117.63904572 340.98364258 115.73934937 341.61306763 C 113.79884338 341.45507812 111.94322968 340.49584961 110.26871490 338.82714844 C 108.75186157 336.65530396 107.25441742 334.19189453 105.60337067 331.61550903 C 103.54328918 329.23410034 101.14325714 327.05212402 98.68783569 324.78918457 C 96.20198059 322.60989380 93.82319641 320.58007812 91.68372345 318.62582397 C 89.88893127 316.76138306 88.11920929 315.64089966 86.65487671 314.89517212 C 86.23496246 313.71563721 86.49829102 312.17889404 86.97406006 310.26904297 C 87.72345734 308.07766724 88.40085602 305.58538818 88.73094177 302.74676514 C 89.35561371 299.77392578 90.05717468 296.56655884 90.94969940 293.28393555 C 91.81459045 289.79516602 92.56778717 286.06118774 93.50070953 282.46337891 C 94.59664917 278.72146606 95.31520081 274.81732178 96.21266174 270.99621582 C 97.12676239 267.22177124 97.92136383 263.41339111 98.70605469 259.74301147 C 99.68317413 255.95484924 100.42161560 252.33889771 101.26554871 248.87854004 C 102.26200867 245.40513611 102.92414093 242.10136414 103.64456177 239.02795410 C 104.32913971 236.13327026 104.87086487 233.43650818 105.35520172 230.92428589 C 105.97344208 228.82225037 106.47848511 226.86907959 106.82829285 225.34106445 C 107.35487366 224.21937561 107.61341095 223.35968018 107.85415649 223.00244141 C 108.17353821 223.40232849 108.36141968 224.42364502 108.66188049 225.77909851 C 109.21202087 227.64747620 109.58692932 229.83512878 109.90562439 232.28924561 C 110.39498901 235.09902954 110.92375946 238.15615845 111.24497223 241.35485840 C 111.91770935 244.60882568 112.58556366 248.03286743 113.17537689 251.53065491 C 113.77043915 255.11227417 114.32105255 258.58978271 114.96346283 262.17044067 C 115.75403595 265.67160034 116.41258240 269.27511597 117.02593231 272.85946655 C 117.70726776 276.33178711 118.39598846 279.76730347 118.94922638 283.08850098 C 119.50168610 286.33563232 120.12962341 289.42483521 120.52870178 292.52960205 C 121.17658997 295.46771240 121.82532501 298.40347290 122.30870056 301.43563843 C 122.75561523 304.55642700 123.06939697 307.54623413 126.37310791 322.10449219" stroke-width="1.15213144" fill="rgb(242, 208, 11)" opacity="1.0" stroke="rgb(235, 203, 0)" stroke-opacity="0.32232982" stroke-linecap="round" stroke-linejoin="round"/>
    <path d="M 379.64230347 343.32434082 C 380.22918701 340.17636108 380.86892700 337.21041870 381.58068848 334.39514160 C 382.34414673 331.53851318 383.12332153 328.63656616 383.77026367 325.77130127 C 384.24783325 322.95178223 385.23458862 320.34735107 386.11764526 317.62799072 C 386.68051147 314.96365356 387.30581665 312.20559692 388.07159424 309.55642700 C 388.50454712 306.72903442 389.05648804 303.89996338 389.51541138 301.03405762 C 390.00704956 298.22613525 390.87420654 295.37860107 391.40786743 292.37249756 C 391.94689941 289.18673706 392.63464355 285.99227905 393.18542480 282.71817017 C 393.79220581 279.18597412 394.52590942 275.79214478 395.19622803 272.29608154 C 395.76742554 268.65618896 396.36022949 265.00570679 397.11587524 261.35482788 C 397.86526489 257.60006714 398.55053711 254.06980896 399.15634155 250.55310059 C 399.83798218 246.96743774 400.38986206 243.54432678 400.70483398 240.28836060 C 401.39477539 237.24281311 402.02896118 234.23652649 402.38723755 231.46047974 C 402.69793701 229.07814026 403.04254150 227.03559875 403.48391724 225.39495850 C 403.58837891 224.15245056 403.63934326 223.58818054 403.86276245 223.58692932 C 404.31365967 224.15599060 404.89001465 225.02580261 405.37585449 226.47404480 C 405.77554321 228.52513123 406.41015625 230.98104858 407.04632568 233.70576477 C 407.74511719 236.56829834 408.58663940 239.75103760 409.27468872 243.20579529 C 410.18283081 246.74438477 411.05096436 250.32566833 411.87091064 254.02359009 C 412.86624146 257.69787598 413.92214966 261.39944458 414.66232300 265.01388550 C 415.31451416 268.56512451 416.50643921 272.21795654 417.29736328 275.87921143 C 417.93701172 279.49200439 418.92874146 283.13046265 419.92263794 286.80081177 C 420.70117188 290.28866577 421.46405029 293.72631836 421.95367432 297.00915527 C 422.73937988 299.94769287 423.56082153 302.60375977 424.08575439 305.19857788 C 424.50930786 307.52484131 424.96835327 309.72705078 425.43548584 311.62405396 C 425.80850220 313.14663696 426.01596069 314.44488525 425.61712646 315.42504883 C 424.43911743 316.29351807 422.57720947 317.30419922 420.58932495 318.65112305 C 418.64645386 320.41043091 416.64862061 322.41021729 414.24142456 324.32293701 C 411.88418579 326.28271484 409.79354858 328.54177856 407.85284424 331.19778442 C 406.22985840 334.06066895 404.75683594 337.14538574 403.39666748 340.30792236 C 402.06893921 343.50778198 400.80123901 346.72607422 379.64230347 343.32434082" stroke-width="1.11772418" fill="rgb(241, 207, 13)" opacity="1.0" stroke="rgb(235, 200, 0)" stroke-opacity="0.35002273" stroke-linecap="round" stroke-linejoin="round"/>
    <path d="M 181.72271729 338.84521484 C 181.70356750 340.76052856 181.59422302 342.77816772 181.37210083 344.73077393 C 181.26200867 346.53335571 180.95153809 348.31478882 180.42103577 350.03433228 C 180.00796509 351.76348877 179.52189636 353.46414185 178.72727966 355.15655518 C 177.84600830 356.81301880 176.80238342 358.45834351 175.54197693 359.93844604 C 174.39454651 361.50262451 173.27520752 363.05990601 171.77465820 364.27435303 C 170.19300842 365.57800293 168.39572144 366.83532715 166.50540161 367.95938110 C 164.56407166 368.88354492 162.49673462 369.53143311 160.49618530 370.10791016 C 158.52685547 370.36502075 156.50683594 370.64974976 154.52064514 370.82846069 C 152.62123108 370.72338867 150.70245361 370.53665161 148.70402527 370.28173828 C 146.80598450 369.52868652 144.79632568 368.88681030 142.89909363 367.89401245 C 140.99909973 366.69418335 139.13484192 365.35522461 137.35966492 363.84527588 C 135.58105469 362.27423096 133.99800110 360.60736084 132.49017334 358.94592285 C 131.15211487 357.29434204 130.25613403 355.35617065 129.59739685 353.41275024 C 128.74717712 351.55477905 127.79721069 349.65997314 127.37772369 347.65301514 C 126.95790100 345.60830688 126.62612915 343.54290771 126.44301605 341.47744751 C 126.19439697 339.36514282 126.11617279 337.23202515 126.24701691 335.03369141 C 126.70547485 332.73593140 127.16078949 330.47033691 127.59084320 328.22698975 C 128.12512207 326.18814087 129.32852173 324.43716431 130.36412048 322.52981567 C 131.43904114 320.70596313 132.64781189 319.07357788 133.65611267 317.34606934 C 135.04757690 316.07855225 136.27799988 314.73056030 137.41163635 313.40859985 C 138.89030457 312.57742310 140.18898010 311.50015259 141.49971008 310.46151733 C 143.03796387 309.63375854 144.65444946 308.75369263 146.54460144 308.13958740 C 148.31520081 307.60742188 150.10035706 307.30471802 152.11221313 307.42037964 C 154.16268921 307.31539917 156.18096924 307.33102417 158.18946838 307.73620605 C 160.23645020 308.41436768 162.24740601 309.11141968 164.22331238 309.76730347 C 166.09913635 310.75415039 167.80749512 311.91455078 169.39329529 313.21588135 C 170.92695618 314.67343140 172.38438416 316.21530151 173.71997070 317.81549072 C 175.01707458 319.46496582 176.18786621 321.20697021 177.23020935 323.01669312 C 178.05599976 324.88687134 178.84854126 326.62023926 179.66467285 328.61816406 C 180.43194580 330.72296143 181.08271790 332.58840942 181.72271729 338.84521484" stroke-width="0.71212041" fill="rgb(204, 7, 28)" opacity="1.0" stroke="rgb(175, 36, 48)" stroke-opacity="0.40821412" stroke-linecap="round" stroke-linejoin="round"/>
    <path d="M 280.26306152 355.83166504 C 278.93862915 357.68280029 277.62829590 359.50143433 276.27090454 361.35321045 C 274.58419800 362.96743774 272.90753174 364.67736816 270.99450684 365.98904419 C 269.03134155 367.22546387 267.02581787 368.38079834 265.13497925 369.43862915 C 263.22940063 370.12615967 261.11868286 370.46682739 259.19686890 370.78280640 C 257.36459351 370.81347656 255.50872803 370.87362671 253.75962830 371.07192993 C 252.30220032 370.63980103 250.60980225 370.49676514 248.72656250 370.34829712 C 246.50920105 369.51879883 244.02662659 368.61877441 241.80546570 367.42819214 C 239.62927246 366.33056641 237.66798401 364.93890381 236.03947449 363.29592896 C 234.39196777 361.69168091 232.85632324 359.97195435 231.51960754 358.10086060 C 230.15133667 356.22668457 228.89721680 354.28640747 227.85694885 352.24014282 C 227.02999878 350.12255859 226.45822144 347.91098022 226.13220215 345.64978027 C 225.91914368 343.45474243 225.76589966 341.23602295 225.47877502 339.12524414 C 225.52561951 337.11331177 225.63476562 334.98095703 225.90609741 332.77786255 C 226.26609802 330.76458740 226.91577148 328.80868530 227.51193237 326.88482666 C 228.34819031 325.18960571 229.35089111 323.32794189 230.43165588 321.72241211 C 231.42230225 319.96328735 232.61076355 318.34552002 234.08677673 317.01052856 C 235.61871338 315.62387085 237.25057983 314.23928833 238.74803162 312.89007568 C 240.44221497 311.84048462 242.14288330 310.78158569 243.75994873 309.78500366 C 245.56620789 309.00122070 247.35104370 308.34881592 249.19613647 307.83731079 C 251.11807251 307.53540039 253.12017822 307.32217407 255.20114136 307.29104614 C 257.29104614 307.39260864 259.27850342 307.60140991 261.23880005 308.02954102 C 263.27218628 308.66644287 265.21691895 309.51843262 267.07211304 310.44415283 C 268.95535278 311.30883789 270.79800415 312.47650146 272.41159058 313.83621216 C 274.05572510 315.17651367 275.55200195 316.75082397 276.98672485 318.36392212 C 278.42001343 319.89746094 279.58071899 321.62597656 280.54559326 323.66729736 C 281.51989746 325.54544067 282.38174438 327.60214233 282.99725342 329.69610596 C 283.46389771 331.78118896 283.73782349 334.00033569 284.08715820 336.05816650 C 284.28067017 338.08551025 284.06567383 340.13916016 283.84838867 342.30648804 C 283.64016724 344.54376221 283.23599243 346.68722534 282.63082886 348.72854614 C 281.86273193 350.81317139 281.29306030 352.91452026 280.26306152 355.83166504" stroke-width="0.73431802" fill="rgb(216, 9, 25)" opacity="1.0" stroke="rgb(179, 34, 48)" stroke-opacity="0.54830545" stroke-linecap="round" stroke-linejoin="round"/>
    <path d="M 372.45172119 364.80877686 C 370.85357666 365.92117310 369.20199585 366.93151855 367.47491455 367.79403687 C 365.81320190 368.72961426 364.19158936 369.44833374 362.43453979 369.96896362 C 360.73181152 370.26715088 359.02096558 370.54980469 357.29071045 370.70129395 C 355.64312744 370.70574951 354.01989746 370.71023560 352.18505859 370.71215820 C 350.33935547 370.46408081 348.53683472 369.95742798 346.66751099 369.37039185 C 344.95742798 368.38900757 343.17987061 367.47167969 341.35891724 366.49468994 C 339.64685059 365.06433105 337.87524414 363.53982544 336.43844604 361.67718506 C 334.88967896 360.00900269 333.70355225 358.11309814 332.44677734 356.19241333 C 331.44866943 354.28375244 330.66799927 352.13305664 330.05560303 349.97491455 C 329.59051514 347.84246826 329.03466797 345.52191162 328.71304321 343.24639893 C 328.52313232 341.07525635 328.43191528 338.83435059 328.36254883 336.61294556 C 328.68197632 334.51223755 329.18588257 332.44473267 329.51867676 330.38497925 C 330.04516602 328.46072388 330.72668457 326.58071899 331.43292236 324.78594971 C 332.20306396 322.86135864 333.18179321 321.16275024 334.24273682 319.59924316 C 335.32305908 318.08950806 336.65353394 316.78274536 338.04663086 315.52746582 C 339.26013184 314.14166260 340.50289917 312.80923462 342.04431152 311.80426025 C 343.66464233 310.85736084 345.34350586 309.86166382 347.03054810 308.95651245 C 348.84442139 308.41748047 350.48693848 307.87387085 352.18041992 307.46505737 C 353.99609375 307.20401001 355.76745605 307.02587891 357.67471313 307.06411743 C 359.69015503 307.16186523 361.68719482 307.37838745 363.66867065 308.01779175 C 365.67172241 308.85882568 367.59384155 309.64859009 369.52487183 310.61560059 C 371.34143066 311.76028442 372.96569824 313.05331421 374.61846924 314.56210327 C 376.09414673 316.43032837 377.71118164 318.15368652 379.24395752 320.06729126 C 380.42279053 322.13861084 381.46499634 324.18463135 382.39004517 326.23123169 C 382.78411865 328.23101807 383.06991577 330.27993774 383.52990723 332.33724976 C 383.93685913 334.37896729 384.01535034 336.45355225 383.95623779 338.51306152 C 383.78683472 340.49621582 383.57803345 342.50234985 383.30288696 344.53308105 C 382.79299927 346.38714600 382.31945801 348.18438721 381.82073975 350.13934326 C 381.06008911 352.05789185 380.21807861 353.91406250 379.39483643 355.73614502 C 378.47357178 357.86279297 377.50836182 359.81915283 372.45172119 364.80877686" stroke-width="0.71060741" fill="rgb(207, 6, 29)" opacity="1.0" stroke="rgb(180, 30, 50)" stroke-opacity="0.4755025" stroke-linecap="round" stroke-linejoin="round"/>
    <path d="M 165.19932556 349.95120239 C 163.89430237 350.89743042 162.61004639 351.87387085 161.31288147 352.79598999 C 160.02522278 353.72171021 158.76747131 354.61383057 157.53228760 355.39688110 C 156.27476501 356.04199219 154.95179749 356.50369263 153.65718079 356.77984619 C 152.37716675 356.91381836 151.11875916 356.81762695 149.91664124 356.43377686 C 148.76828003 355.78735352 147.64387512 354.89620972 146.54602051 353.86419678 C 145.48661804 352.68328857 144.44917297 351.36895752 143.42062378 349.97076416 C 142.47676086 348.49987793 141.58274841 346.95230103 140.84901428 345.32427979 C 140.32238770 343.63973999 140.09075928 341.91778564 140.05868530 340.13442993 C 140.23191833 338.32412720 140.61238098 336.51913452 141.08949280 334.73501587 C 141.64683533 332.95715332 142.34945679 331.26699829 143.12478638 329.64382935 C 144.01043701 328.09072876 145.00927734 326.62652588 146.07389832 325.31384277 C 147.25213623 324.13183594 148.50906372 323.11175537 149.79026794 322.22064209 C 151.10742188 321.44573975 152.41751099 320.74496460 153.72026062 320.22982788 C 155.08412170 320.00454712 156.52210999 319.98703003 157.92349243 320.15032959 C 159.26707458 320.41775513 160.56347656 320.87823486 161.83255005 321.56344604 C 163.06790161 322.36648560 164.26855469 323.26065063 165.42156982 324.29132080 C 166.48576355 325.42956543 167.48480225 326.65148926 168.43733215 328.02600098 C 169.32136536 329.44000244 170.18627930 330.90188599 170.93229675 332.46871948 C 171.63941956 334.07138062 172.36715698 335.71002197 173.08206177 337.34906006 C 173.76960754 338.96975708 174.46093750 340.59246826 165.19932556 349.95120239" stroke-width="2.00000000" fill="rgb(232, 7, 8)" opacity="1.0" stroke="rgb(223, 9, 37)" stroke-opacity="0.8169731" stroke-linecap="round" stroke-linejoin="round"/>
    <path d="M 353.65444946 357.39743042 C 352.80142212 356.68728638 351.95568848 355.96255493 351.08673096 355.20117188 C 350.23712158 354.37713623 349.40606689 353.47863770 348.60226440 352.56521606 C 347.81082153 351.54260254 347.01943970 350.44903564 346.15188599 349.33645630 C 345.22689819 348.23364258 344.31564331 347.08078003 343.36929321 345.89068604 C 342.50839233 344.68112183 341.83615112 343.41647339 341.42089844 342.01608276 C 341.36828613 340.49404907 341.58895874 338.88943481 341.99557495 337.22970581 C 342.61703491 335.54238892 343.30953979 333.82144165 344.16638184 332.14254761 C 345.10607910 330.48934937 346.17373657 328.88156128 347.34030151 327.37475586 C 348.62255859 325.94482422 350.02493286 324.60421753 351.49780273 323.44073486 C 352.99789429 322.40463257 354.55459595 321.53564453 356.08648682 320.84335327 C 357.60668945 320.29934692 359.14938354 320.03582764 360.65386963 320.05715942 C 362.14993286 320.29412842 363.61404419 320.77786255 365.03387451 321.48019409 C 366.36450195 322.41885376 367.62124634 323.54238892 368.89660645 324.73733521 C 370.15997314 325.96917725 371.38665771 327.22973633 372.53469849 328.50708008 C 373.56536865 329.85266113 374.42816162 331.24377441 375.06082153 332.66528320 C 375.45648193 334.13156128 375.65039062 335.62084961 375.71545410 337.11132812 C 375.64968872 338.59481812 375.44583130 340.09094238 375.05892944 341.52288818 C 374.46319580 342.95004272 373.70382690 344.38864136 372.92800903 345.80618286 C 372.12628174 347.25549316 371.29803467 348.72171021 370.51257324 350.20401001 C 369.76849365 351.71075439 369.03134155 353.22943115 353.65444946 357.39743042" stroke-width="2.00000000" fill="rgb(233, 8, 3)" opacity="1.0" stroke="rgb(226, 8, 31)" stroke-opacity="0.8133534" stroke-linecap="round" stroke-linejoin="round"/>
    <path d="M 339.23043823 336.37686157 C 339.22915649 335.14999390 339.25457764 334.01119995 339.49539185 332.86032104 C 339.84622192 331.78308105 340.05371094 330.66986084 340.05258179 329.63534546 C 340.13702393 328.60012817 340.47277832 327.51675415 341.00827026 326.48950195 C 341.59228516 325.64648438 342.22753906 324.64239502 343.08563232 323.77343750 C 343.90447998 323.04138184 344.82794189 322.30807495 345.90158081 321.81063843 C 347.06698608 321.51168823 348.30087280 321.13299561 349.46023560 320.77798462 C 350.66314697 320.59069824 351.71716309 320.39312744 352.69531250 320.20916748 C 353.59283447 319.92318726 354.38513184 319.93164062 355.00247192 320.13201904 C 355.40863037 320.30648804 355.68750000 320.53707886 355.68432617 320.98751831 C 355.47372437 321.71734619 355.24908447 322.44436646 354.86230469 323.25167847 C 354.66946411 324.25036621 354.45071411 325.34503174 354.28173828 326.51861572 C 353.93399048 327.73303223 353.90005493 328.96939087 353.99389648 330.19247437 C 353.82275391 331.38034058 353.61169434 332.51239014 353.28479004 333.54107666 C 352.67361450 334.44766235 351.90084839 335.33532715 351.29589844 336.21212769 C 350.66342163 337.01226807 349.94625854 337.68338013 349.25323486 338.47802734 C 348.47958374 339.07592773 347.81118774 339.66360474 347.06109619 340.14309692 C 346.26110840 340.61636353 345.54855347 341.09539795 344.82559204 341.45425415 C 344.05859375 341.68637085 343.22570801 342.00732422 342.43780518 342.06774902 C 341.74395752 342.21783447 341.11740112 342.17926025 340.53240967 341.97854614 C 339.89974976 341.91470337 339.22726440 341.98260498 339.23043823 336.37686157" stroke-width="0.73051828" fill="rgb(253, 155, 176)" opacity="1.0" stroke="rgb(221, 155, 180)" stroke-opacity="0.4158308" stroke-linecap="round" stroke-linejoin="round"/>
    <path d="M 244.15927124 340.12405396 C 243.21331787 340.26779175 242.64736938 340.63415527 242.12226868 341.33273315 C 241.50807190 341.72540283 240.67846680 341.84341431 239.86085510 341.93618774 C 239.14363098 341.83859253 238.52372742 341.86123657 238.07916260 341.73187256 C 237.82183838 341.32458496 237.77976990 340.79452515 237.68852234 340.29904175 C 237.40699768 339.70379639 236.98747253 339.00588989 236.79010010 338.14297485 C 236.92736816 337.28701782 236.96682739 336.37045288 236.79682922 335.34701538 C 236.86784363 334.17535400 237.08464050 332.86346436 237.25242615 331.50097656 C 237.68942261 330.31390381 237.81448364 329.13281250 237.98326111 327.78796387 C 238.66052246 326.74279785 239.20225525 325.68826294 239.95916748 324.59997559 C 240.97267151 323.94592285 242.08943176 323.42022705 243.22874451 322.70861816 C 244.48887634 322.23098755 245.71408081 321.76205444 246.81652832 321.25732422 C 247.79322815 320.89483643 248.72233582 320.72915649 249.57095337 320.45483398 C 250.38327026 320.48690796 251.12382507 320.53060913 251.69441223 320.50778198 C 252.06312561 320.40292358 252.28443909 320.42279053 252.34490967 320.66204834 C 252.29130554 321.01663208 252.16416931 321.50573730 252.01489258 322.15182495 C 251.88766479 323.00881958 251.80400085 323.95425415 251.43713379 324.99063110 C 251.09942627 326.00607300 250.94021606 327.12908936 250.76927185 328.34957886 C 250.55570984 329.62222290 250.39515686 330.89816284 250.17614746 332.06210327 C 249.78608704 333.07968140 249.24311829 334.06329346 248.61584473 334.96466064 C 248.00996399 335.84771729 247.53715515 336.89370728 244.15927124 340.12405396" stroke-width="0.63231546" fill="rgb(254, 156, 186)" opacity="1.0" stroke="rgb(232, 109, 132)" stroke-opacity="0.7286221" stroke-linecap="round" stroke-linejoin="round"/>
    <path d="M 400.15396118 349.47781372 C 398.73092651 348.08276367 397.76901245 346.52630615 397.04833984 344.79119873 C 396.60653687 343.22265625 396.43215942 341.71588135 396.68472290 340.03695679 C 397.05056763 338.46691895 397.42712402 336.97802734 398.17037964 335.63470459 C 399.15072632 334.60174561 400.12878418 333.74517822 401.02554321 333.29003906 C 402.09802246 333.45455933 403.39962769 334.16577148 404.60653687 334.69195557 C 405.37445068 335.73828125 406.01348877 337.21328735 406.97763062 338.39694214 C 407.72381592 339.72991943 407.83306885 341.27221680 407.66757202 342.66799927 C 408.14178467 343.85577393 408.76492310 345.21731567 408.54095459 346.42425537 C 407.83007812 347.65716553 407.43804932 349.24859619 407.34072876 351.01174927 C 407.35531616 352.50088501 407.80773926 353.91207886 400.15396118 349.47781372" stroke-width="1.87295842" fill="rgb(223, 184, 237)" opacity="1.0" stroke="rgb(111, 16, 206)" stroke-opacity="0.5777587" stroke-linecap="round" stroke-linejoin="round"/>
    <path d="M 147.56733704 320.59020996 C 148.30093384 320.62237549 148.96177673 320.74435425 149.53627014 320.80972290 C 150.03523254 320.74588013 150.49520874 320.72595215 150.90101624 320.76916504 C 151.19599915 320.98995972 151.22193909 321.27520752 151.11540222 321.57077026 C 150.87475586 322.03717041 150.58244324 322.64840698 150.43774414 323.33737183 C 150.21458435 324.07385254 149.85833740 324.78997803 149.69619751 325.66479492 C 149.81851196 326.72201538 149.86039734 327.82513428 149.88366699 328.99224854 C 149.64649963 330.20565796 149.38215637 331.36978149 149.13064575 332.51528931 C 148.60565186 333.60708618 148.12466431 334.66204834 147.49252319 335.72610474 C 146.86813354 336.64303589 146.10012817 337.46231079 145.37493896 338.31530762 C 144.69345093 339.19018555 143.90504456 339.90759277 143.08079529 340.52560425 C 142.12171936 341.18185425 141.44920349 341.81048584 140.85940552 342.31332397 C 140.36935425 342.48007202 140.00221252 342.42443848 139.58882141 342.26110840 C 139.05284119 342.01818848 138.39555359 341.83636475 137.74197388 341.63131714 C 137.25033569 341.17404175 136.84698486 340.65454102 136.43209839 340.03015137 C 136.21632385 339.25695801 136.06037903 338.41964722 136.03462219 337.50689697 C 136.16323853 336.48767090 136.25559998 335.37622070 136.28564453 334.25720215 C 136.31788635 333.18792725 136.54887390 332.10559082 136.80363464 330.96667480 C 136.98025513 329.84619141 137.41627502 328.70364380 137.85234070 327.63943481 C 138.46655273 326.56021118 139.16067505 325.46307373 139.96049500 324.36437988 C 140.79650879 323.36956787 141.69628906 322.26904297 147.56733704 320.59020996" stroke-width="0.79386574" fill="rgb(254, 156, 183)" opacity="1.0" stroke="rgb(237, 153, 197)" stroke-opacity="0.46324152" stroke-linecap="round" stroke-linejoin="round"/>
    <path d="M 107.81584167 334.65899658 C 108.85494995 334.19769287 109.97825623 334.07623291 110.96817017 334.22399902 C 111.71003723 334.92480469 112.55860901 335.82211304 113.34069061 336.70724487 C 113.60698700 337.97454834 114.04709625 339.36038208 114.43420410 340.77572632 C 114.26546478 342.57269287 114.03336334 344.40289307 113.49588776 346.37374878 C 112.64975739 347.94906616 111.76913452 349.34304810 110.45762634 350.38940430 C 109.08480072 351.25869751 107.91948700 351.77139282 106.96539307 351.61489868 C 106.58261871 351.03479004 106.26566315 350.25421143 105.78350830 349.45434570 C 105.60381317 348.32040405 105.16615295 347.39511108 104.76312256 346.31457520 C 104.87612152 345.12762451 104.63768005 343.79895020 104.53981781 342.34136963 C 104.77643585 340.76864624 104.99091339 339.03076172 107.81584167 334.65899658" stroke-width="2.00000000" fill="rgb(239, 196, 238)" opacity="1.0" stroke="rgb(107, 18, 159)" stroke-opacity="0.68579453" stroke-linecap="round" stroke-linejoin="round"/>
    <path d="M 207.47528076 333.13568115 C 207.85171509 334.63244629 208.45085144 335.99212646 208.48820496 337.21597290 C 208.43914795 338.43441772 208.08451843 339.59405518 207.70037842 340.71585083 C 207.04089355 341.48507690 206.51635742 342.33300781 205.88735962 343.29605103 C 204.93197632 343.88735962 203.81797791 344.48458862 202.59034729 344.78149414 C 201.30822754 344.82812500 200.03367615 344.59573364 198.82868958 344.12921143 C 197.75898743 343.30578613 196.87312317 342.15939331 196.28080750 340.86267090 C 196.16384888 339.65173340 196.03793335 338.47842407 195.56732178 337.42187500 C 195.73120117 336.33395386 196.08767700 335.20562744 196.59944153 334.16116333 C 197.38502502 333.02221680 198.11976624 331.94671631 199.42797852 331.26391602 C 201.10371399 330.61996460 202.80462646 329.67663574 207.47528076 333.13568115" stroke-width="1.79605997" fill="rgb(239, 201, 236)" opacity="1.0" stroke="rgb(76, 29, 192)" stroke-opacity="0.64882827" stroke-linecap="round" stroke-linejoin="round"/>
    <path d="M 302.29049683 334.40182495 C 302.99603271 333.13235474 303.74075317 332.07595825 304.74230957 331.28021240 C 305.94683838 330.85009766 307.32766724 330.55386353 308.67282104 330.34027100 C 309.76614380 330.80725098 310.70935059 331.40103149 311.92016602 331.82235718 C 312.69082642 332.62484741 313.28671265 333.43395996 313.70596313 334.51574707 C 314.16567993 335.65499878 314.50784302 336.70220947 314.46670532 337.94387817 C 314.18511963 339.36962891 313.95101929 340.89956665 313.20236206 342.15933228 C 312.32144165 343.27236938 311.16772461 344.09539795 309.94338989 344.69326782 C 308.92419434 344.83068848 307.77313232 344.79171753 306.74020386 344.57861328 C 305.66018677 343.80813599 304.51498413 343.03350830 303.66510010 341.73117065 C 302.56338501 340.56405640 301.35336304 339.42193604 302.29049683 334.40182495" stroke-width="1.64978182" fill="rgb(235, 190, 239)" opacity="1.0" stroke="rgb(140, 90, 125)" stroke-opacity="1.0" stroke-linecap="round" stroke-linejoin="round"/>
    <path d="M 408.03775024 307.49789429 C 406.78201294 306.73413086 405.52301025 305.97048950 404.41979980 305.18392944 C 403.40478516 304.39605713 402.56307983 303.53277588 401.95480347 302.58349609 C 401.53955078 301.53402710 401.28555298 300.45660400 401.15655518 299.46725464 C 401.08389282 298.51147461 401.20507812 297.57882690 401.51681519 296.77142334 C 402.05139160 296.07775879 402.76428223 295.46405029 403.58129883 295.02627563 C 404.51544189 294.73031616 405.53451538 294.68774414 406.57095337 294.89239502 C 407.65972900 295.31347656 408.77542114 295.93774414 409.87228394 296.65988159 C 410.96179199 297.45065308 411.92123413 298.42364502 412.69210815 299.55718994 C 413.36068726 300.79489136 413.70483398 302.18960571 413.77383423 303.77359009 C 413.88183594 305.47253418 414.02258301 307.25885010 408.03775024 307.49789429" stroke-width="0.88230515" fill="rgb(255, 232, 82)" opacity="1.0" stroke="rgb(247, 225, 57)" stroke-opacity="0.7450673" stroke-linecap="round" stroke-linejoin="round"/>
    <path d="M 110.24667358 303.40509033 C 109.26345062 304.40054321 108.32035828 305.31604004 107.31326294 306.08242798 C 106.23442078 306.62738037 105.15087891 306.98397827 104.09054565 307.18557739 C 103.09969330 307.20654297 102.18024445 307.02890015 101.34526062 306.70690918 C 100.59952545 306.21286011 99.96130371 305.62426758 99.47265625 304.98904419 C 99.15360260 304.21343994 98.98393250 303.35632324 98.96308899 302.44995117 C 99.09361267 301.50289917 99.38808441 300.54974365 99.83112335 299.58782959 C 100.42666626 298.64456177 101.17604065 297.72454834 102.03326416 296.85284424 C 102.98398590 296.08712769 104.01460266 295.43371582 105.09519958 294.89685059 C 106.25910950 294.66821289 107.51422119 294.69781494 108.87016296 294.90280151 C 110.28846741 295.30752563 111.87730408 295.73297119 110.24667358 303.40509033" stroke-width="1.06276894" fill="rgb(254, 234, 78)" opacity="1.0" stroke="rgb(247, 225, 53)" stroke-opacity="0.7676678" stroke-linecap="round" stroke-linejoin="round"/>
    <path d="M 170.41700745 342.13998413 C 170.45185852 343.28225708 170.32524109 344.38928223 169.95626831 345.47482300 C 169.51605225 346.62387085 169.02061462 347.78820801 168.38290405 348.92620850 C 167.58647156 349.97769165 166.74037170 350.97171021 166.00004578 351.97909546 C 165.12628174 352.90527344 164.22698975 353.66522217 163.37414551 354.36758423 C 162.47605896 355.04754639 161.57351685 355.58312988 160.69912720 355.99874878 C 159.91482544 356.39273071 159.11343384 356.71246338 158.39753723 356.98483276 C 157.79003906 357.24301147 157.26766968 357.41452026 156.81335449 357.47869873 C 156.49760437 357.53814697 156.32005310 357.52487183 156.20182800 357.38220215 C 156.22409058 357.14614868 156.31225586 356.82000732 156.38461304 356.38964844 C 156.42973328 355.86532593 156.29655457 355.14996338 170.41700745 342.13998413" stroke-width="0.63403696" fill="rgb(249, 79, 90)" opacity="1.0" stroke="rgb(235, 70, 71)" stroke-opacity="0.5880928" stroke-linecap="round" stroke-linejoin="round"/>
    <path d="M 371.20330811 349.58843994 C 370.10699463 350.76898193 369.01718140 351.83767700 367.94104004 352.89355469 C 366.85794067 353.81631470 365.83474731 354.68103027 364.81967163 355.36087036 C 363.80517578 355.87338257 362.80438232 356.21313477 361.90084839 356.38327026 C 361.11300659 356.53387451 360.49337769 356.63232422 360.04602051 356.65109253 C 359.78863525 356.46612549 359.77392578 356.12561035 360.04476929 355.72003174 C 360.47546387 355.19619751 361.06173706 354.57672119 361.79617310 353.77886963 C 362.64065552 352.87744141 363.62783813 351.98272705 364.62802124 350.93026733 C 365.78872681 349.86987305 367.00085449 348.76058960 368.23220825 347.57458496 C 369.52078247 346.39315796 370.78900146 345.15332031 372.10189819 343.91180420 C 373.33596802 342.58972168 374.55789185 341.23910522 371.20330811 349.58843994" stroke-width="0.69602960" fill="rgb(248, 96, 72)" opacity="1.0" stroke="rgb(242, 101, 86)" stroke-opacity="0.545599" stroke-linecap="round" stroke-linejoin="round"/>
    <path d="M 249.40730286 70.64959717 C 249.76962280 69.03562164 250.08834839 67.47393799 250.38056946 65.87124634 C 250.53797913 64.35102081 250.80567932 63.03974533 251.27476501 61.84857559 C 251.95069885 60.84502411 252.79194641 59.98645782 253.65478516 59.27949524 C 254.52894592 58.70446014 255.45053101 58.41739273 256.52221680 58.32208633 C 257.61965942 58.31901932 258.60302734 58.39447403 259.46224976 58.66194916 C 260.22070312 59.30198288 260.84231567 60.11413193 261.32757568 61.13932037 C 261.77270508 62.40765762 262.22311401 63.83872604 262.61682129 65.38255310 C 263.05343628 67.06658173 263.27032471 68.82889557 263.32797241 70.70668793 C 263.32733154 72.71192932 263.31436157 74.78023529 263.39050293 76.93828583 C 263.56542969 79.08197021 263.75958252 81.19676971 263.94070435 83.29721832 C 264.14639282 85.35912323 264.30776978 87.36596680 264.22399902 89.25904846 C 263.78396606 91.07995605 263.29855347 92.77588654 262.68518066 94.29566193 C 261.86077881 95.60105896 260.94464111 96.73757935 260.09069824 97.86615753 C 259.40185547 98.90231323 258.85946655 99.80744934 258.23025513 100.47868347 C 257.38366699 100.70829773 256.44393921 100.64511108 255.38146973 100.26566315 C 254.35684204 99.60403442 253.39823914 98.68360901 252.43511963 97.60818481 C 251.47644043 96.39294434 250.56604004 95.10382080 249.80532837 93.70119476 C 249.40048218 92.18487549 249.30686951 90.58290100 249.28649902 88.85835266 C 249.28890991 87.03067780 249.41625977 85.22313690 249.78231812 83.39765930 C 250.24047852 81.54943085 250.76119995 79.71763611 249.40730286 70.64959717" stroke-width="2.00000000" fill="rgb(205, 183, 46)" opacity="1.0" stroke="rgb(222, 200, 10)" stroke-opacity="0.25464138" stroke-linecap="round" stroke-linejoin="round"/>
    <path d="M 251.47801208 85.18933105 C 250.09478760 85.29837036 248.73997498 85.33083344 247.46083069 85.28136444 C 246.24920654 85.38002777 245.02702332 85.48957062 243.80952454 85.50964355 C 242.65411377 85.46032715 241.56562805 85.24133301 240.59176636 84.79675293 C 239.71798706 84.36083984 238.94201660 83.81945801 238.32965088 83.11108398 C 237.80487061 82.27320099 237.42997742 81.40140533 237.18882751 80.42055511 C 237.27568054 79.44690704 237.65203857 78.42893982 238.33175659 77.45173645 C 239.25355530 76.54036713 240.31353760 75.65979767 241.50856018 74.94929504 C 242.84826660 74.48750305 244.28947449 74.29891968 245.87620544 74.20874786 C 247.55685425 74.22588348 249.33549500 74.32625580 251.24128723 74.34082031 C 253.14930725 74.26383972 255.08544922 74.21058655 256.95605469 74.17514038 C 258.86331177 74.21734619 260.74493408 74.27478790 262.51687622 74.36601257 C 264.27416992 74.42520905 265.92675781 74.39469147 267.43841553 74.34450531 C 268.88778687 74.42601013 270.18664551 74.62135315 271.29241943 75.01877594 C 272.17379761 75.62905884 272.87524414 76.50965881 273.53027344 77.45375824 C 274.15832520 78.35375977 274.63449097 79.29368591 274.87136841 80.26661682 C 274.87164307 81.26098633 274.85003662 82.22570038 274.74774170 83.12455750 C 274.27490234 83.75402832 273.59182739 84.25059509 272.66403198 84.57958221 C 271.65005493 84.74396515 270.43020630 84.72442627 269.14889526 84.78833008 C 267.74380493 84.85739136 266.23120117 84.95418549 264.68710327 85.15726471 C 263.14086914 85.55535889 261.58261108 86.00448608 251.47801208 85.18933105" stroke-width="1.93690050" fill="rgb(195, 166, 22)" opacity="1.0" stroke="rgb(204, 179, 0)" stroke-opacity="0.2636239" stroke-linecap="round" stroke-linejoin="round"/>
  </g>
</svg>
