<?xml version="1.0" ?>
<svg xmlns="http://www.w3.org/2000/svg" version="1.1" width="512" height="512" viewBox="0 0 512 512">
  <defs/>
  <g>
    <path d="M 375.83267212 387.92584229 C 368.80172729 389.35754395 361.88803101 390.59664917 355.00967407 391.80227661 C 348.08224487 392.92687988 341.15808105 393.77655029 334.23745728 394.34786987 C 327.39617920 394.96343994 320.53216553 395.43218994 313.64782715 395.91973877 C 306.77374268 396.34301758 299.87811279 396.76712036 293.00466919 397.11016846 C 286.05010986 397.25952148 279.02099609 397.43539429 271.96310425 397.83926392 C 264.81939697 398.11291504 257.55105591 398.10815430 250.17057800 397.99328613 C 242.66950989 397.94619751 235.08831787 397.89093018 227.42565918 397.56228638 C 219.61628723 397.28567505 211.73477173 397.00854492 203.89508057 396.47427368 C 195.96298218 396.01663208 188.02198792 395.59609985 180.15509033 394.90658569 C 172.36846924 394.15756226 164.75659180 393.33673096 157.34722900 392.16613770 C 150.14868164 391.03436279 143.31364441 389.96749878 136.91223145 388.72787476 C 130.99114990 387.58303833 125.63052368 386.35055542 121.07128906 384.97943115 C 117.34790802 383.37048340 114.66353607 381.58151245 113.00833893 379.59307861 C 112.50141144 377.46615601 113.17832184 375.48352051 114.89202881 373.77050781 C 117.66085815 372.16943359 121.33986664 370.70077515 125.68338776 369.19161987 C 130.59863281 367.70440674 136.11552429 366.55374146 142.17182922 365.46841431 C 148.54682922 364.11782837 155.30268860 362.71896362 162.35197449 361.76773071 C 169.64300537 361.10894775 177.09025574 360.32824707 184.68135071 359.63952637 C 192.30099487 358.87844849 199.97509766 358.21212769 207.71887207 358.03726196 C 215.56523132 358.37298584 223.43138123 358.81240845 231.42349243 358.78973389 C 239.43942261 358.53686523 247.50245667 358.45608521 255.43775940 358.44454956 C 263.41027832 358.61068726 271.26681519 358.65533447 279.04220581 358.86633301 C 286.52725220 358.89019775 293.78659058 358.50933838 300.88449097 358.01123047 C 307.82821655 357.98443604 314.54968262 358.58966064 321.13589478 359.25021362 C 327.58187866 359.83676147 333.94714355 360.40219116 340.15393066 361.05529785 C 346.11184692 361.53103638 351.86328125 361.96374512 357.37857056 362.63912964 C 362.57586670 363.79190063 367.46249390 365.13241577 372.11520386 366.31723022 C 376.51586914 367.42214966 380.65655518 368.68624878 384.54449463 369.87573242 C 388.17013550 371.06683350 391.29318237 372.68664551 394.06903076 374.93347168 C 396.18334961 378.17984009 398.20727539 382.12820435 375.83267212 387.92584229" stroke-width="0.25503844" fill="rgb(39, 46, 66)" opacity="1.0" stroke="rgb(30, 22, 0)" stroke-opacity="0.4544571" stroke-linecap="round" stroke-linejoin="round"/>
    <path d="M 371.41894531 332.79687500 C 361.35018921 332.60522461 351.22946167 332.25418091 341.19024658 332.51043701 C 331.13455200 332.44482422 321.11315918 332.57476807 310.94451904 334.15405273 C 300.44088745 335.31704712 289.46624756 336.10586548 278.06005859 336.49081421 C 266.47946167 336.50759888 254.80786133 336.31390381 242.98440552 335.94335938 C 231.09617615 335.40374756 219.36485291 334.77285767 207.90634155 334.16314697 C 196.82125854 333.67956543 186.26211548 333.42788696 176.33509827 333.30548096 C 167.19213867 332.30850220 158.82617188 332.26110840 151.40292358 332.65972900 C 145.17167664 332.81063843 140.42773438 332.82720947 137.38603210 332.25439453 C 136.27113342 330.72415161 136.41159058 328.22903442 136.61938477 325.17730713 C 136.46047974 322.13726807 136.21690369 319.51882935 136.85646057 317.62036133 C 139.49502563 316.86181641 143.99090576 316.66625977 149.88226318 316.74087524 C 157.07968140 317.25674438 165.29273987 318.12875366 174.33119202 318.94470215 C 184.17234802 319.50567627 194.67404175 319.83041382 205.68762207 320.03469849 C 216.93872070 320.15527344 228.30555725 320.19146729 239.79190063 320.04809570 C 251.29064941 319.79678345 262.56613159 319.48870850 273.70846558 319.21722412 C 284.55258179 318.88006592 295.05484009 318.50836182 305.05499268 318.11041260 C 314.55337524 317.73205566 323.53710938 317.40835571 332.00601196 317.14178467 C 339.76330566 316.91928101 346.84182739 316.77661133 353.19729614 316.74380493 C 358.84588623 316.78524780 363.70394897 316.66137695 367.65921021 316.52206421 C 370.64144897 316.48385620 372.75134277 316.03045654 371.41894531 332.79687500" stroke-width="2.00000000" fill="rgb(231, 163, 107)" opacity="1.0" stroke="rgb(0, 0, 0)" stroke-opacity="1.0" stroke-linecap="round" stroke-linejoin="round"/>
    <path d="M 161.39842224 360.00018311 C 160.69589233 363.34317017 159.85784912 366.63247681 158.96519470 369.74630737 C 158.27008057 372.62283325 157.71475220 375.23492432 157.11068726 377.53359985 C 156.49087524 379.33364868 155.60865784 380.53988647 154.35478210 381.12121582 C 152.79328918 381.15307617 150.96652222 381.04650879 149.19766235 380.83081055 C 147.66885376 380.44299316 146.34965515 379.78677368 145.30474854 378.98007202 C 144.91958618 378.10348511 145.10197449 377.08078003 145.61412048 375.73419189 C 146.08038330 374.00320435 146.58041382 372.08874512 147.32508850 369.98446655 C 147.92120361 367.56655884 148.33160400 365.09854126 148.79338074 362.36001587 C 149.54017639 359.52502441 150.23614502 356.66439819 151.07203674 353.87463379 C 151.58462524 351.10116577 152.38882446 348.69357300 153.21804810 346.46276855 C 153.57234192 344.26028442 154.04515076 342.23367310 154.64387512 340.33261108 C 155.00038147 338.63571167 155.37983704 337.11846924 155.71351624 336.04663086 C 156.47810364 335.43588257 157.70802307 335.26318359 159.29263306 335.26425171 C 161.10266113 335.35159302 163.00408936 335.33932495 164.86477661 335.27801514 C 166.56433105 335.10842896 167.87628174 335.12924194 168.61911011 335.41027832 C 168.79457092 335.87194824 168.64257812 336.64880371 168.38572693 337.86846924 C 168.15768433 339.44955444 167.63136292 341.18795776 166.89886475 343.09606934 C 166.31101990 345.19735718 165.65075684 347.53363037 164.77279663 349.71731567 C 164.39904785 351.95516968 163.75280762 354.32214355 162.97332764 356.51092529 C 162.49111938 358.87493896 162.26612854 361.24853516 161.39842224 360.00018311" stroke-width="2.00000000" fill="rgb(231, 179, 131)" opacity="1.0" stroke="rgb(0, 0, 0)" stroke-opacity="1.0" stroke-linecap="round" stroke-linejoin="round"/>
    <path d="M 207.52975464 345.17434692 C 207.38931274 343.50350952 207.21881104 342.06646729 207.30473328 340.96191406 C 207.66789246 340.22277832 208.27532959 339.83123779 209.19139099 339.64672852 C 210.23223877 339.78118896 211.45835876 340.14376831 212.96139526 340.42349243 C 214.50181580 340.67770386 215.96626282 340.87429810 217.42514038 341.18450928 C 218.83036804 341.42382812 220.03413391 341.69848633 220.99534607 342.05062866 C 221.70637512 342.39407349 221.90536499 343.13369751 221.62879944 344.18856812 C 221.42536926 345.66333008 221.06773376 347.42709351 220.59204102 349.33251953 C 220.31278992 351.54821777 219.83729553 353.89840698 219.20465088 356.18066406 C 218.18066406 358.15530396 217.55453491 360.38427734 217.11788940 362.69497681 C 216.45520020 364.96307373 215.85806274 367.34313965 215.26077271 369.71676636 C 214.84739685 371.85992432 214.64718628 373.92614746 214.31610107 375.83050537 C 213.81486511 377.32635498 213.14794922 378.57226562 212.22856140 379.49032593 C 210.97450256 379.90975952 209.44230652 380.08404541 207.89840698 380.19134521 C 206.37452698 380.42315674 204.96687317 380.37979126 203.83320618 380.04995728 C 203.02903748 379.48458862 202.55139160 378.89642334 202.36564636 378.04074097 C 202.48124695 376.79965210 202.76544189 375.28408813 203.19694519 373.58334351 C 203.47857666 371.63012695 203.62449646 369.45123291 203.98417664 367.13748169 C 204.47866821 364.72650146 204.95465088 362.19268799 205.34617615 359.53585815 C 205.27888489 356.79153442 205.58369446 354.01522827 206.33012390 351.14703369 C 206.46510315 347.97900391 206.28820801 344.64147949 207.52975464 345.17434692" stroke-width="2.00000000" fill="rgb(233, 180, 132)" opacity="1.0" stroke="rgb(0, 0, 0)" stroke-opacity="1.0" stroke-linecap="round" stroke-linejoin="round"/>
    <path d="M 300.99487305 333.71038818 C 301.48873901 335.78213501 302.00796509 337.93106079 302.44805908 340.12219238 C 302.51150513 342.43252563 302.74871826 344.66928101 303.43496704 346.84417725 C 303.60678101 349.10321045 303.87643433 351.42031860 304.39062500 353.79324341 C 304.62661743 356.42611694 304.81185913 359.22415161 305.16098022 361.93545532 C 305.79379272 364.60122681 306.33731079 367.25735474 306.83480835 369.74090576 C 307.35369873 371.99224854 308.04067993 374.06008911 308.44192505 375.90963745 C 308.64019775 377.40609741 308.57598877 378.49737549 308.22833252 379.24911499 C 307.36187744 379.55700684 306.32952881 379.67474365 305.18789673 379.75576782 C 303.93685913 379.99444580 302.54635620 380.27047729 301.17044067 380.35601807 C 299.86987305 380.09027100 298.71319580 379.61798096 297.82998657 378.88394165 C 297.43014526 377.73233032 297.19567871 376.24362183 296.71429443 374.72048950 C 295.98696899 373.09841919 295.52474976 371.21600342 295.22283936 369.14080811 C 294.59552002 367.00857544 293.89901733 364.77435303 293.20501709 362.37695312 C 292.48953247 359.96389771 291.58843994 357.60714722 290.70800781 355.41329956 C 290.27737427 353.10937500 289.71075439 350.99438477 289.16827393 349.05966187 C 288.65963745 347.41787720 288.36465454 346.03573608 288.31933594 344.89431763 C 287.80804443 344.13317871 287.43969727 343.63336182 287.35205078 343.17858887 C 287.71685791 342.59942627 288.23065186 341.80932617 288.54138184 340.74884033 C 288.81362915 339.46524048 289.13168335 338.19589233 289.41567993 336.89654541 C 289.60275269 335.59701538 289.70986938 334.20651245 300.99487305 333.71038818" stroke-width="2.00000000" fill="rgb(233, 178, 130)" opacity="1.0" stroke="rgb(0, 0, 0)" stroke-opacity="1.0" stroke-linecap="round" stroke-linejoin="round"/>
    <path d="M 356.77410889 381.69253540 C 355.56933594 381.15850830 354.50445557 380.43258667 353.68289185 379.40573120 C 353.06967163 378.09783936 352.53793335 376.62887573 352.03317261 375.06304932 C 351.66558838 373.24273682 351.23236084 371.31695557 350.70147705 369.56106567 C 350.03796387 367.72543335 349.45956421 365.63861084 349.09176636 363.63778687 C 348.45397949 361.75402832 347.52554321 359.77148438 346.77618408 357.63000488 C 346.22882080 355.35824585 345.38265991 352.93307495 344.56893921 350.57495117 C 344.10620117 348.10131836 343.43569946 345.62783813 342.57278442 343.47674561 C 341.94003296 341.33276367 341.30307007 339.45513916 340.88662720 337.86029053 C 340.52542114 336.52688599 340.31213379 335.63357544 340.57214355 335.17233276 C 341.40859985 335.00634766 342.62606812 335.09008789 344.14813232 335.26556396 C 345.82019043 335.28051758 347.57040405 335.03405762 349.30581665 334.68807983 C 350.95236206 334.63806152 352.41537476 334.87460327 353.61157227 335.50845337 C 354.50460815 336.58154297 355.05105591 338.13882446 355.42538452 339.80151367 C 355.75216675 341.65533447 356.28149414 343.55511475 356.55502319 345.70367432 C 357.08511353 347.81335449 357.56854248 349.83706665 358.21792603 351.94677734 C 358.73931885 354.16314697 359.24618530 356.18072510 359.72122192 358.10964966 C 360.38436890 360.09368896 360.72915649 362.06045532 360.69039917 363.93069458 C 360.86245728 365.88250732 361.48605347 367.80139160 362.26263428 369.65216064 C 362.84564209 371.61883545 363.36483765 373.73342896 363.93490601 376.00521851 C 364.61932373 378.38601685 365.28167725 380.90872192 356.77410889 381.69253540" stroke-width="2.00000000" fill="rgb(231, 178, 129)" opacity="1.0" stroke="rgb(0, 0, 0)" stroke-opacity="1.0" stroke-linecap="round" stroke-linejoin="round"/>
    <path d="M 292.34085083 342.36474609 C 286.07751465 344.66473389 279.93881226 346.76278687 273.43984985 347.82623291 C 266.75888062 348.65725708 259.93872070 349.10946655 253.00787354 349.19494629 C 246.12120056 349.03860474 239.31144714 348.07211304 232.52359009 346.86950684 C 225.78320312 345.29077148 219.26083374 343.22396851 212.79931641 340.52102661 C 206.34588623 337.92874146 200.23365784 334.91455078 194.48864746 330.78634644 C 188.39776611 326.94458008 182.60047913 322.57476807 177.44677734 317.25915527 C 172.25610352 311.57214355 167.41671753 305.54205322 163.19018555 298.87216187 C 159.17044067 291.98294067 155.45434570 284.96365356 152.90596008 277.35324097 C 150.37721252 269.61312866 148.38449097 261.74105835 147.35142517 253.62808228 C 146.37492371 245.46704102 146.23760986 237.32675171 146.88973999 229.27484131 C 147.64158630 221.33683777 149.38613892 213.62791443 151.96830750 206.10575867 C 154.57833862 198.64360046 158.06503296 191.55561829 161.85978699 184.62098694 C 165.79554749 177.89285278 170.03198242 171.54762268 175.08551025 165.91610718 C 180.21713257 160.44261169 185.76647949 155.44268799 191.70414734 151.05834961 C 197.73854065 146.77333069 204.15179443 143.17723083 210.73675537 140.01632690 C 217.55798340 137.25122070 224.51963806 135.18589783 231.47140503 133.29560852 C 238.75032043 131.97615051 245.94697571 130.97926331 253.22213745 130.70893860 C 260.66003418 130.63723755 268.16653442 131.00068665 275.66781616 132.07307434 C 283.09725952 133.32499695 290.39047241 135.36453247 297.43103027 137.95979309 C 304.44363403 140.70671082 311.01000977 144.23361206 317.32241821 148.37265015 C 323.60781860 152.50640869 329.19348145 157.59114075 334.65829468 162.91390991 C 339.87371826 168.37422180 344.35681152 174.48989868 348.46023560 180.98689270 C 352.61071777 187.51499939 356.01354980 194.47129822 358.57876587 201.92658997 C 361.24209595 209.39804077 363.05429077 217.15203857 364.34265137 224.99574280 C 365.43597412 232.85551453 365.71649170 240.67575073 365.48007202 248.31491089 C 364.78530884 255.79696655 363.31036377 262.89617920 361.48889160 269.89578247 C 359.45428467 276.73074341 356.90823364 283.23712158 353.69467163 289.42956543 C 350.68231201 295.66699219 347.17453003 301.66674805 343.06063843 307.29910278 C 338.48474121 312.75820923 333.37515259 317.71392822 327.41073608 322.09246826 C 321.51141357 326.97875977 315.69970703 332.31256104 292.34085083 342.36474609" stroke-width="0.79556823" fill="rgb(11, 101, 20)" opacity="1.0" stroke="rgb(0, 63, 20)" stroke-opacity="0.4223594" stroke-linecap="round" stroke-linejoin="round"/>
    <path d="M 334.05838013 284.71456909 C 330.93420410 289.83837891 327.51611328 294.68817139 323.73162842 299.26467896 C 319.63845825 303.55801392 315.37124634 307.59909058 310.60763550 311.17395020 C 305.80191040 314.68017578 300.59863281 317.64584351 295.22592163 320.40191650 C 289.79296875 323.03598022 284.20422363 325.07052612 278.32427979 326.73941040 C 272.36477661 328.10556030 266.35049438 329.32748413 260.22747803 329.91186523 C 254.09870911 330.09963989 247.95532227 329.65988159 241.79698181 328.63378906 C 235.52745056 327.67541504 229.48985291 326.08398438 223.69944763 323.82162476 C 217.67283630 321.74203491 211.93066406 319.12561035 206.49673462 315.83184814 C 201.07821655 312.41119385 196.03793335 308.42260742 191.43118286 303.88525391 C 186.93539429 299.13253784 182.88407898 294.09317017 179.50762939 288.44567871 C 176.20436096 282.72662354 173.48306274 276.71633911 171.16787720 270.49514771 C 169.12707520 264.29165649 167.80541992 258.05575562 166.88894653 251.64382935 C 166.35124207 245.30596924 166.11936951 239.04190063 166.32621765 232.80239868 C 166.78746033 226.63455200 167.83912659 220.65100098 169.50328064 214.89845276 C 170.97988892 209.03637695 173.28616333 203.58218384 176.01963806 198.29161072 C 178.72994995 193.03427124 182.01435852 188.17851257 185.64457703 183.61061096 C 189.18252563 179.00679016 193.03569031 174.81915283 197.36288452 171.09504700 C 201.64083862 167.30668640 206.20362854 163.87838745 211.07527161 160.85758972 C 216.25503540 158.19464111 221.74113464 155.90963745 227.40072632 154.03155518 C 233.16735840 152.45028687 239.20295715 151.10301208 245.15733337 150.05238342 C 251.29721069 149.75134277 257.43026733 149.67102051 263.59072876 150.01289368 C 270.01263428 150.95298767 276.36099243 151.94366455 282.60562134 153.64578247 C 288.75094604 155.40422058 294.63003540 157.80993652 300.19033813 160.96670532 C 305.63973999 164.20658875 310.78402710 167.89193726 315.48602295 171.97909546 C 320.13647461 176.03746033 324.30517578 180.34782410 327.79010010 185.24629211 C 331.37417603 189.94828796 334.51092529 194.94686890 336.94747925 200.31701660 C 339.29254150 205.74581909 341.36911011 211.32322693 343.07159424 216.99192810 C 344.47167969 222.77000427 345.33462524 228.80207825 345.91622925 234.86544800 C 346.21524048 241.13027954 346.08389282 247.47067261 345.07250977 253.91395569 C 343.87692261 260.59661865 342.90545654 267.49160767 334.05838013 284.71456909" stroke-width="0.34185567" fill="rgb(159, 233, 155)" opacity="1.0" stroke="rgb(91, 138, 95)" stroke-opacity="0.98457247" stroke-linecap="round" stroke-linejoin="round"/>
    <path d="M 306.72149658 242.18748474 C 306.11584473 246.10755920 305.37655640 250.09519958 304.20910645 253.96702576 C 302.80099487 257.69296265 301.02258301 261.19680786 299.08795166 264.56637573 C 296.96313477 267.72714233 294.61495972 270.61175537 292.17102051 273.33523560 C 289.60070801 275.80346680 287.08511353 278.21948242 284.47265625 280.43826294 C 281.72592163 282.28839111 278.77355957 283.86764526 275.71868896 285.22348022 C 272.75692749 286.48956299 269.56039429 287.24673462 266.36105347 288.03128052 C 263.17300415 288.72662354 259.91302490 289.02517700 256.59725952 289.13986206 C 253.25630188 289.12158203 249.86578369 288.79962158 246.48109436 288.27020264 C 243.21102905 287.48861694 240.04267883 286.49545288 236.89733887 285.16925049 C 233.74707031 283.87152100 230.76455688 282.31005859 227.90658569 280.35455322 C 225.08392334 278.19119263 222.38746643 275.98608398 219.77928162 273.41961670 C 217.35760498 270.67373657 215.19197083 267.73120117 213.27325439 264.59500122 C 211.34844971 261.50762939 209.89616394 258.28411865 208.75883484 254.91082764 C 207.61758423 251.51026917 206.71507263 248.05682373 206.31861877 244.62283325 C 206.16291809 241.24382019 206.20098877 237.79728699 206.43301392 234.39656067 C 206.72129822 231.07075500 207.47760010 227.93711853 208.40693665 224.85369873 C 209.42741394 221.81745911 210.66543579 218.84941101 212.17094421 216.05360413 C 213.88255310 213.35157776 215.71661377 210.71926880 217.76467896 208.19648743 C 220.04949951 205.85810852 222.46173096 203.60575867 224.96383667 201.36521912 C 227.56210327 199.28894043 230.35061646 197.43055725 233.40621948 195.88201904 C 236.54711914 194.43843079 239.80520630 193.23136902 243.18281555 192.11833191 C 246.59205627 191.36743164 249.90661621 190.92213440 253.18153381 190.50244141 C 256.54254150 190.48080444 259.82864380 190.84895325 263.04223633 191.22442627 C 266.31686401 191.83992004 269.60769653 192.69647217 272.82199097 193.76022339 C 276.11294556 195.13012695 279.40728760 196.66236877 282.53683472 198.23358154 C 285.40216064 200.20927429 288.09973145 202.25657654 290.64294434 204.41995239 C 292.99740601 206.79452515 295.14483643 209.34251404 297.16046143 211.90185547 C 299.12936401 214.45263672 300.73028564 217.21377563 302.03625488 220.04710388 C 303.31762695 222.91641235 304.39379883 225.88583374 305.40704346 228.78308105 C 305.92709351 231.81558228 306.37246704 234.84771729 306.72149658 242.18748474" stroke-width="0.29536989" fill="rgb(120, 77, 23)" opacity="1.0" stroke="rgb(117, 134, 83)" stroke-opacity="0.93058574" stroke-linecap="round" stroke-linejoin="round"/>
    <path d="M 295.63180542 231.63752747 C 296.14859009 231.13343811 296.67340088 230.82279968 297.12634277 230.61039734 C 297.56042480 230.44853210 297.89215088 230.46260071 298.14910889 230.94386292 C 298.30691528 231.75065613 298.58157349 232.53028870 298.87243652 233.37078857 C 299.20907593 234.15870667 299.13497925 234.87748718 298.90118408 235.58512878 C 299.13754272 236.33657837 299.30551147 237.05827332 299.29617310 237.95555115 C 299.29241943 239.02870178 299.28009033 240.07315063 299.27011108 240.95498657 C 299.19049072 241.74804688 298.96463013 242.47933960 298.58483887 243.05012512 C 298.19033813 243.44407654 297.77078247 243.76905823 297.35321045 244.00300598 C 296.92782593 244.09416199 296.49423218 243.96820068 296.11712646 243.62828064 C 295.55178833 243.31330872 294.91433716 242.80134583 295.63180542 231.63752747" stroke-width="0.63402653" fill="rgb(249, 245, 231)" opacity="1.0" stroke="rgb(209, 209, 198)" stroke-opacity="0.5946994" stroke-linecap="round" stroke-linejoin="round"/>
  </g>
</svg>
