<?xml version="1.0" ?>
<svg xmlns="http://www.w3.org/2000/svg" version="1.1" width="512" height="512" viewBox="0 0 512 512">
  <defs/>
  <g>
    <path d="M 345.38409424 406.82019043 C 339.00881958 406.61596680 332.58987427 406.60922241 325.95706177 406.72076416 C 319.09274292 406.93072510 311.89489746 406.43786621 304.25082397 405.48291016 C 295.96054077 404.80453491 287.07653809 404.41113281 277.68243408 404.25390625 C 267.81494141 404.22406006 257.51089478 404.30465698 246.97824097 404.51742554 C 236.25920105 404.81689453 225.56848145 405.16656494 215.05796814 405.47354126 C 204.95808411 405.68649292 195.58067322 405.72412109 187.18611145 405.68185425 C 179.77165222 405.76412964 173.84718323 405.96389771 169.67739868 405.68621826 C 167.39562988 403.72415161 166.18028259 400.33209229 165.22302246 395.75119019 C 164.21252441 390.17477417 163.44213867 383.62820435 162.84942627 376.24676514 C 162.40194702 368.00885010 162.17291260 359.06951904 162.17996216 349.42669678 C 162.16329956 339.24191284 162.23214722 328.52215576 162.70216370 317.42114258 C 163.39489746 305.95523071 164.21636963 294.29620361 165.25860596 282.38592529 C 166.51806641 270.37744141 167.93403625 258.41363525 169.65631104 246.61962891 C 171.59274292 234.97341919 173.56781006 223.50083923 175.67601013 212.33526611 C 177.94033813 201.58937073 180.63771057 191.32710266 183.55882263 181.52825928 C 186.26130676 172.12849426 189.09530640 163.20516968 192.25587463 155.00065613 C 195.28726196 147.22122192 198.72340393 140.32131958 202.71572876 134.20649719 C 207.00335693 128.78234863 211.91677856 124.50080109 217.89196777 121.91163635 C 225.12757874 120.75507355 233.12539673 119.45368195 241.59001160 117.85987854 C 250.67117310 117.28773499 260.03109741 117.54893494 269.35366821 118.40325928 C 278.48886108 119.56986237 287.11083984 120.72930908 294.90386963 122.16585541 C 301.39022827 125.04877472 306.56121826 129.76992798 311.05334473 135.91160583 C 315.35107422 142.72007751 319.13745117 150.33209229 322.49221802 158.65184021 C 325.76855469 167.44816589 328.58999634 176.70231628 331.14071655 186.39317322 C 333.66241455 196.41851807 336.01580811 206.71058655 338.21502686 217.35588074 C 340.28250122 228.29216003 342.28726196 239.55525208 344.23657227 251.15927124 C 346.10522461 263.11566162 347.79910278 275.42694092 349.26419067 288.07089233 C 350.48007202 301.12011719 351.51617432 314.50015259 352.22784424 328.25924683 C 352.71414185 342.16632080 352.83517456 356.21640015 352.12509155 370.44494629 C 351.36254883 384.82385254 351.08029175 399.21865845 345.38409424 406.82019043" stroke-width="1.71038759" fill="rgb(244, 243, 243)" opacity="1.0" stroke="rgb(76, 76, 80)" stroke-opacity="0.6486334" stroke-linecap="round" stroke-linejoin="round"/>
    <path d="M 273.89587402 117.74846649 C 271.12701416 117.51813507 268.40933228 117.26652527 265.71517944 117.12117767 C 263.00845337 117.18617249 260.45111084 117.42713165 257.99105835 117.68077850 C 255.61962891 117.98060608 253.29478455 118.32672882 251.14070129 118.55635834 C 249.13395691 118.67853546 247.34106445 118.71631622 245.78422546 118.57665253 C 244.47842407 118.21356201 243.44531250 117.58765411 242.73059082 116.64900208 C 242.29035950 115.33822632 241.98371887 113.70005035 241.86380005 111.79526520 C 241.82374573 109.71710205 241.95500183 107.40484619 242.02154541 104.93651581 C 241.97673035 102.26480865 241.93388367 99.49085999 241.97413635 96.59866333 C 241.92335510 93.71894836 241.92752075 90.82733917 241.99723816 88.02432251 C 242.05529785 85.32823944 242.05755615 82.76655579 241.96942139 80.43247223 C 242.11946106 78.33984375 242.57167053 76.51111603 243.37965393 74.90265656 C 244.61689758 73.55337524 246.13392639 72.44049835 247.84188843 71.48019409 C 249.68998718 70.77300262 251.69058228 70.22335815 253.82623291 69.88422394 C 256.04043579 69.70713806 258.23501587 69.76460266 260.40063477 69.96526337 C 262.46060181 70.38890839 264.41189575 71.06526947 266.15664673 71.93125153 C 267.65905762 73.08412933 268.84091187 74.52941132 269.73205566 76.27970886 C 270.10220337 78.35655975 270.09963989 80.78878784 270.02795410 83.54466248 C 270.01138306 86.61717224 270.00228882 90.01449585 270.02893066 93.58290863 C 270.09915161 97.35939789 270.07220459 101.28753662 270.06793213 105.28252411 C 269.88327026 109.32810211 269.62799072 113.41716003 273.89587402 117.74846649" stroke-width="1.58048904" fill="rgb(245, 242, 242)" opacity="1.0" stroke="rgb(192, 191, 192)" stroke-opacity="1.0" stroke-linecap="round" stroke-linejoin="round"/>
    <path d="M 252.38542175 76.60720825 C 250.51899719 76.56022644 248.59539795 76.52666473 246.65660095 76.52994537 C 244.81230164 76.55165863 243.04682922 76.57870483 241.40396118 76.66635895 C 239.85446167 76.66938019 238.43452454 76.53378296 237.20939636 76.47187042 C 236.19963074 76.30531311 235.50910950 75.95475769 235.12303162 75.29831696 C 235.01025391 74.48204803 234.99995422 73.42700195 235.10043335 72.32205200 C 235.09942627 71.25099182 235.15675354 70.25057220 235.18223572 69.36223602 C 235.27197266 68.69002533 235.63948059 68.26680756 236.19869995 68.09033203 C 237.06555176 68.26753235 238.24325562 68.46101379 239.69633484 68.46633148 C 241.44897461 68.40824127 243.45742798 68.35958099 245.68721008 68.34150696 C 248.10157776 68.38890076 250.60496521 68.37730408 253.23194885 68.32386780 C 255.87802124 68.24993134 258.50860596 68.25872803 261.16604614 68.31521606 C 263.69799805 68.40101624 266.10879517 68.41235352 268.36700439 68.35958099 C 270.46697998 68.45189667 272.25405884 68.38425446 273.84906006 68.19104767 C 275.17947388 68.17269897 276.19345093 68.31607056 276.85778809 68.68034363 C 277.04714966 69.39104462 277.09906006 70.31682587 277.04446411 71.39012909 C 277.09494019 72.49962616 277.15277100 73.57131195 276.96646118 74.56681824 C 276.59527588 75.31871033 275.93878174 75.86671448 275.11575317 76.33033752 C 274.28073120 76.64540863 273.41232300 76.71385956 272.42242432 76.67994690 C 271.36096191 76.57440948 270.27383423 76.63523865 269.18844604 76.59955597 C 268.04037476 76.52313232 266.94628906 76.46880341 252.38542175 76.60720825" stroke-width="1.56518340" fill="rgb(247, 248, 251)" opacity="1.0" stroke="rgb(36, 37, 39)" stroke-opacity="0.616205" stroke-linecap="round" stroke-linejoin="round"/>
    <path d="M 317.09982300 393.18688965 C 315.66400146 395.70428467 314.06689453 398.15615845 312.08734131 400.31576538 C 309.66476440 402.22650146 306.83248901 403.83712769 303.62966919 405.24191284 C 300.00436401 406.38146973 295.95797729 407.08392334 291.57040405 407.44653320 C 286.88174438 407.78152466 281.86560059 408.09307861 276.70913696 408.59124756 C 271.38021851 408.92410278 265.85260010 408.86740112 260.18991089 408.76199341 C 254.51225281 408.86929321 248.85913086 408.88995361 243.23591614 408.77029419 C 237.70774841 408.50418091 232.32255554 408.16964722 227.18634033 407.97137451 C 222.33821106 407.80386353 217.68817139 407.16174316 213.28765869 406.35061646 C 209.21192932 405.23934937 205.63639832 403.78839111 202.48764038 401.67868042 C 199.62837219 399.19329834 197.49920654 395.97686768 196.11947632 391.99401855 C 195.37144470 387.23809814 194.81127930 381.93914795 194.26184082 376.09289551 C 193.80908203 369.82843018 193.14944458 363.33117676 192.34243774 356.67456055 C 191.63265991 349.91293335 190.97056580 343.17834473 190.31343079 336.61682129 C 189.77487183 330.19454956 189.24771118 324.19665527 188.77174377 318.57263184 C 188.22915649 313.46920776 187.87611389 309.00430298 187.35096741 305.29406738 C 186.99516296 302.28463745 187.38334656 300.06808472 188.72468567 298.59793091 C 190.99002075 297.69509888 194.07858276 297.11093140 197.96041870 296.64508057 C 202.41105652 296.27636719 207.37406921 296.04769897 212.78370667 295.82998657 C 218.51350403 295.45202637 224.59535217 295.14379883 230.86187744 294.95361328 C 237.31417847 294.84304810 243.99441528 294.79519653 250.79765320 294.82366943 C 257.54272461 294.90365601 264.25936890 294.81082153 270.91867065 294.85839844 C 277.50354004 295.05496216 283.83905029 295.27423096 290.05664062 295.40908813 C 295.98876953 295.65789795 301.50964355 295.92941284 306.62725830 296.23126221 C 311.32781982 296.61380005 315.51483154 296.93136597 319.04956055 297.43426514 C 321.77764893 298.50479126 323.76077271 300.04028320 324.99877930 302.10696411 C 325.57382202 304.74588013 325.53671265 307.83972168 325.21844482 311.38394165 C 324.88641357 315.34414673 324.50091553 319.63922119 324.00747681 324.24371338 C 323.46444702 329.11019897 323.10861206 334.15875244 322.89450073 339.32641602 C 322.28189087 344.64303589 321.71862793 350.06802368 321.17779541 355.54901123 C 320.72595215 361.08432007 320.37500000 366.69308472 317.09982300 393.18688965" stroke-width="1.49135101" fill="rgb(39, 197, 173)" opacity="1.0" stroke="rgb(0, 6, 163)" stroke-opacity="0.8542799" stroke-linecap="round" stroke-linejoin="round"/>
    <path d="M 323.88546753 305.78713989 C 317.58602905 305.26681519 311.35177612 304.85720825 305.03778076 304.44122314 C 298.69537354 304.00411987 292.32394409 303.70874023 285.90802002 303.46456909 C 279.45748901 303.36804199 272.92761230 303.34780884 266.34558105 303.42922974 C 259.72570801 303.66976929 253.10922241 303.97549438 246.50241089 304.33361816 C 239.96282959 304.68368530 233.48561096 304.99368286 227.12826538 305.24731445 C 221.01750183 305.40383911 215.09423828 305.39443970 209.51377869 305.18859863 C 204.35919189 304.82553101 199.62690735 304.35531616 195.47348022 303.68075562 C 191.89933777 302.88549805 189.07733154 302.03405762 187.03300476 300.98406982 C 185.93316650 299.81329346 185.63705444 298.68069458 186.06805420 297.71817017 C 187.23280334 297.14852905 189.12411499 296.96511841 191.68388367 296.97174072 C 194.81675720 297.08282471 198.41259766 297.10217285 202.52890015 296.97805786 C 207.04228210 296.66497803 211.86901855 296.28424072 216.96829224 295.88006592 C 222.31788635 295.51028442 227.81631470 295.22634888 233.46226501 295.07003784 C 239.16868591 294.96792603 244.90206909 294.95297241 250.63615417 294.96649170 C 256.33398438 295.00839233 261.95816040 295.01687622 267.45532227 295.09146118 C 272.86416626 295.17526245 278.09680176 295.29852295 283.20736694 295.51181030 C 288.16387939 295.82077026 292.92459106 296.08197021 297.56402588 296.28009033 C 302.07266235 296.50665283 306.36987305 296.78067017 310.54516602 296.98037720 C 314.62051392 297.02355957 318.56430054 297.03369141 322.36935425 297.07208252 C 326.13403320 296.99639893 329.84484863 296.92352295 323.88546753 305.78713989" stroke-width="1.17729580" fill="rgb(75, 146, 227)" opacity="1.0" stroke="rgb(0, 0, 209)" stroke-opacity="0.5198918" stroke-linecap="round" stroke-linejoin="round"/>
    <path d="M 312.79449463 310.24264526 C 312.39593506 307.66397095 311.97903442 305.10940552 311.55300903 302.56161499 C 311.07623291 300.02102661 310.61138916 297.56640625 310.14242554 295.14807129 C 309.69357300 292.79684448 309.32485962 290.55429077 308.97845459 288.43786621 C 308.60647583 286.45953369 308.31576538 284.64141846 307.99710083 283.00436401 C 307.76733398 281.55572510 307.58700562 280.26998901 307.51364136 279.20886230 C 307.39300537 278.32626343 307.41607666 277.64572144 307.45248413 277.12149048 C 307.51522827 276.81524658 307.60348511 276.59512329 307.74789429 276.59863281 C 307.85763550 276.62615967 307.99865723 276.84384155 308.11895752 277.07803345 C 308.27883911 277.43649292 308.38958740 277.75711060 308.54101562 278.16204834 C 308.65905762 278.56417847 308.80780029 278.93817139 312.79449463 310.24264526" stroke-width="0.76297832" fill="rgb(244, 243, 245)" opacity="1.0" stroke="rgb(240, 237, 255)" stroke-opacity="0.23214395" stroke-linecap="round" stroke-linejoin="round"/>
    <path d="M 313.54541016 345.92953491 C 312.74746704 346.83151245 311.89611816 347.33511353 310.98516846 347.29574585 C 309.98379517 346.74389648 309.04598999 345.71139526 308.38174438 344.32992554 C 308.11068726 342.75677490 308.43887329 341.22918701 309.33355713 339.75900269 C 310.10314941 338.11358643 310.23791504 335.96826172 309.98593140 333.25469971 C 309.92956543 329.93881226 310.01321411 326.16491699 309.92889404 321.90435791 C 310.04266357 317.21273804 310.16104126 312.24429321 310.16204834 307.00973511 C 310.27194214 301.60504150 310.38421631 296.07815552 310.31799316 290.55300903 C 310.14724731 285.01779175 309.88919067 279.60305786 309.64468384 274.28283691 C 309.39242554 269.17919922 309.11062622 264.27502441 308.80172729 259.68093872 C 308.52783203 255.38397217 308.20608521 251.47529602 307.74288940 247.95013428 C 307.25363159 244.86898804 306.80325317 242.24293518 306.36666870 240.08607483 C 305.95156860 238.41133118 305.66195679 237.21485901 305.47976685 236.48876953 C 305.47299194 236.29048157 305.59991455 236.53178406 305.87200928 237.21444702 C 306.34631348 238.39509583 306.98297119 239.97491455 307.74664307 241.93295288 C 308.63381958 244.26176453 309.61758423 246.97074890 310.63754272 249.96255493 C 311.55886841 253.31234741 312.32504272 256.93743896 312.91815186 260.80813599 C 313.31805420 264.92550659 313.55749512 269.23651123 313.72525024 273.71212769 C 313.74038696 278.29684448 313.75814819 282.96261597 313.82141113 287.75485229 C 313.84310913 292.57226562 313.83691406 297.38439941 313.77902222 302.27587891 C 313.65960693 307.14447021 313.46582031 312.01763916 313.54541016 345.92953491" stroke-width="0.69943094" fill="rgb(250, 250, 251)" opacity="1.0" stroke="rgb(239, 253, 205)" stroke-opacity="0.5252709" stroke-linecap="round" stroke-linejoin="round"/>
    <path d="M 311.11413574 395.06628418 C 309.78308105 396.67773438 308.32608032 398.17941284 306.69699097 399.49313354 C 305.02395630 400.49456787 303.32696533 401.19192505 301.82836914 401.70898438 C 300.54913330 402.03182983 299.39315796 402.10299683 298.48660278 401.90591431 C 298.04882812 401.50811768 297.98474121 400.89065552 298.14361572 400.11828613 C 298.46945190 399.46841431 298.89782715 399.13006592 299.59033203 399.05960083 C 300.51541138 399.23010254 301.52743530 399.50021362 302.45257568 399.74429321 C 303.33114624 399.72998047 304.06668091 399.45837402 304.68545532 398.85305786 C 305.21173096 397.86529541 305.65243530 396.63098145 306.09429932 395.22518921 C 306.62734985 393.75115967 307.24157715 392.26544189 308.21224976 390.82595825 C 309.57232666 389.50186157 311.07403564 388.16439819 311.11413574 395.06628418" stroke-width="1.00118959" fill="rgb(241, 247, 245)" opacity="1.0" stroke="rgb(120, 145, 135)" stroke-opacity="0.47917607" stroke-linecap="round" stroke-linejoin="round"/>
    <path d="M 329.37561035 282.61941528 C 329.42071533 282.55737305 329.37692261 282.59704590 329.41323853 282.58493042 C 329.40170288 282.58004761 329.37945557 282.58773804 329.42282104 282.58340454 C 329.38378906 282.57489014 329.41375732 282.59472656 329.40377808 282.57626343 C 329.39407349 282.59072876 329.41006470 282.57574463 329.40646362 282.59149170 C 329.40664673 282.57629395 329.39822388 282.58712769 329.41775513 282.58804321 C 329.38909912 282.59176636 329.41860962 282.56832886 329.38717651 282.59219360 C 329.43029785 282.59197998 329.40313721 282.57342529 329.40573120 282.58804321 C 329.38635254 282.58163452 329.41519165 282.57727051 329.41580200 282.58868408 C 329.39120483 282.57672119 329.41000366 282.58142090 329.40838623 282.58169556 C 329.40905762 282.58157349 329.40646362 282.57641602 329.37561035 282.61941528" stroke-width="0.00000000" fill="rgb(0, 0, 0)" opacity="1.0" stroke="rgb(255, 255, 255)" stroke-opacity="1.0" stroke-linecap="round" stroke-linejoin="round"/>
    <path d="M 298.31805420 173.12727356 C 298.34234619 172.55349731 298.36019897 171.99090576 298.39453125 171.43307495 C 298.44839478 170.87199402 298.49966431 170.34028625 298.59774780 169.83432007 C 298.71041870 169.31710815 298.84201050 168.86599731 299.03900146 168.43348694 C 299.23211670 168.02278137 299.47683716 167.67787170 299.75366211 167.36125183 C 300.04501343 167.09420776 300.36511230 166.90638733 300.74923706 166.74641418 C 301.11135864 166.65881348 301.48181152 166.68569946 301.90386963 166.67001343 C 302.33435059 166.81176758 302.73870850 166.99375916 303.18374634 167.20610046 C 303.61691284 167.49821472 304.03674316 167.83282471 304.49688721 168.18563843 C 304.92642212 168.58456421 305.36740112 169.00926208 305.82839966 169.45268250 C 306.25988770 169.88015747 306.72573853 170.36709595 298.31805420 173.12727356" stroke-width="1.67179751" fill="rgb(255, 255, 255)" opacity="1.0" stroke="rgb(251, 251, 250)" stroke-opacity="0.891529" stroke-linecap="round" stroke-linejoin="round"/>
    <path d="M 313.44009399 356.11468506 C 313.46478271 356.87197876 313.43511963 357.57989502 313.38845825 358.28518677 C 313.19052124 358.93920898 312.97326660 359.53131104 312.77560425 360.12374878 C 312.49322510 360.56863403 312.15322876 360.94409180 311.82650757 361.17010498 C 311.50915527 361.34750366 311.17889404 361.41732788 310.82501221 361.28210449 C 310.47573853 361.00204468 310.14105225 360.69107056 309.77102661 360.35321045 C 309.43255615 359.90847778 309.09359741 359.42449951 308.83547974 358.91934204 C 308.69238281 358.41018677 308.51019287 357.89080811 308.34970093 357.38208008 C 308.36285400 356.84970093 308.55511475 356.31127930 308.70578003 355.67562866 C 308.96041870 355.05203247 309.25567627 354.37994385 309.57287598 353.64688110 C 309.96640015 352.92425537 310.51562500 352.25491333 313.44009399 356.11468506" stroke-width="0.77295083" fill="rgb(241, 243, 246)" opacity="1.0" stroke="rgb(147, 167, 144)" stroke-opacity="0.5058602" stroke-linecap="round" stroke-linejoin="round"/>
  </g>
</svg>
