<?xml version="1.0" ?>
<svg xmlns="http://www.w3.org/2000/svg" version="1.1" width="512" height="512" viewBox="0 0 512 512">
  <defs/>
  <g>
    <path d="M 272.46020508 117.95514679 C 270.91955566 118.42609406 269.43328857 118.84009552 267.95678711 119.28877258 C 266.42007446 119.68214417 264.91848755 120.11543274 263.42764282 120.41857147 C 261.91317749 120.73872375 260.38848877 120.95924377 258.93527222 121.17899323 C 257.42630005 121.25717926 255.94116211 121.26625824 254.54631042 121.03787231 C 253.07952881 120.68733978 251.67405701 120.14546204 250.34112549 119.43161774 C 249.08413696 118.42827606 247.82966614 117.20483398 246.66313171 115.77048492 C 245.62886047 114.15016174 244.63334656 112.27353668 243.72103882 110.27805328 C 242.96080017 108.02861786 242.34147644 105.69806671 241.81549072 103.21589661 C 241.41783142 100.60356903 241.16540527 97.89907074 241.11781311 95.14324951 C 241.26325989 92.38549042 241.70762634 89.61534882 242.47375488 86.84608459 C 243.32135010 84.07984161 244.33021545 81.34204102 245.43505859 78.62295532 C 246.63783264 76.08850861 247.75357056 73.63935852 248.97750854 71.38827515 C 250.28100586 69.35084534 251.57957458 67.67744446 252.76988220 66.19248199 C 253.82141113 64.98490906 254.85939026 64.26117706 255.87437439 64.15459442 C 256.86941528 64.65762329 257.90396118 65.63402557 258.98266602 66.91669464 C 260.30545044 68.53438568 261.60488892 70.38767242 262.89743042 72.45329285 C 264.12350464 74.84376526 265.15850830 77.41383362 266.16101074 80.06080627 C 267.29656982 82.72519684 268.43948364 85.36532593 269.26602173 88.04971313 C 269.55078125 90.87253571 269.60089111 93.73323059 269.60134888 96.61552429 C 269.67050171 99.42252350 269.66427612 102.23292542 272.46020508 117.95514679" stroke-width="2.00000000" fill="rgb(251, 203, 39)" opacity="1.0" stroke="rgb(229, 96, 0)" stroke-opacity="0.78378785" stroke-linecap="round" stroke-linejoin="round"/>
    <path d="M 291.89361572 108.77451324 C 290.70156860 110.99787903 289.55444336 113.16315460 288.32211304 115.29357147 C 287.06582642 117.33703613 285.72738647 119.24040985 284.28402710 120.91273499 C 282.83355713 122.49096680 281.31045532 123.79984283 279.78222656 124.92530060 C 278.18692017 125.78597260 276.64639282 126.35826874 275.05471802 126.64779663 C 273.46832275 126.59197235 272.01733398 126.33815765 270.63217163 125.81625366 C 269.39013672 125.05327606 268.29360962 124.10404968 267.42111206 122.89743805 C 266.74783325 121.46969604 266.34173584 119.91770935 266.26669312 118.07587433 C 266.38015747 116.03183746 266.77273560 113.88745117 267.29788208 111.57842255 C 267.81066895 109.09300995 268.34774780 106.46670532 269.01950073 103.82336426 C 269.90844727 101.15407562 270.92907715 98.49036407 272.22665405 95.94335938 C 273.68933105 93.47225952 275.38394165 91.11780548 277.26666260 88.85453796 C 279.33285522 86.76843262 281.51589966 84.89308167 283.68032837 83.11492157 C 285.79345703 81.33850098 287.94082642 79.88336182 290.09286499 78.71240997 C 292.00308228 77.60203552 293.68930054 76.56741333 295.11999512 75.74821472 C 296.33630371 75.25045776 297.31509399 75.15504456 298.12814331 75.54519653 C 298.70526123 76.43957520 299.14535522 77.69715118 299.47039795 79.28202057 C 299.71124268 81.10768890 299.88732910 83.25232697 300.09411621 85.45839691 C 300.43789673 87.80791473 300.41265869 90.22660065 300.09378052 92.80756378 C 299.50964355 95.35529327 298.77868652 97.91867065 298.01913452 100.51265717 C 297.36895752 103.19788361 296.78134155 105.92253876 291.89361572 108.77451324" stroke-width="2.00000000" fill="rgb(249, 202, 36)" opacity="1.0" stroke="rgb(230, 112, 8)" stroke-opacity="0.8114479" stroke-linecap="round" stroke-linejoin="round"/>
    <path d="M 312.77947998 131.50750732 C 310.56698608 132.10086060 308.37246704 132.80625916 306.25762939 133.66433716 C 304.21112061 134.69630432 302.17407227 135.75518799 300.22467041 136.88832092 C 298.27014160 138.03845215 296.33786011 139.05148315 294.39749146 139.96197510 C 292.53945923 140.72636414 290.69113159 141.21609497 288.90106201 141.53555298 C 287.12518311 141.56790161 285.37600708 141.35211182 283.74816895 140.83955383 C 282.22930908 140.11558533 280.84356689 139.08593750 279.65194702 137.90383911 C 278.68768311 136.55618286 277.96551514 135.05441284 277.57174683 133.37666321 C 277.41891479 131.69531250 277.56298828 129.92982483 278.11962891 128.17314148 C 279.01046753 126.45687103 280.21261597 124.79678345 281.66891479 123.09580231 C 283.27655029 121.32791901 284.99069214 119.51764679 286.83624268 117.71619415 C 288.81771851 115.90766907 290.93502808 114.12206268 293.14620972 112.34510803 C 295.34341431 110.59745026 297.54928589 108.89501953 299.84945679 107.33770752 C 302.35696411 106.14640808 305.00115967 105.27203369 307.77258301 104.81362152 C 310.65066528 104.59133911 313.56588745 104.45384216 316.45806885 104.43908691 C 319.21255493 104.50140381 321.73718262 104.62999725 324.08209229 104.90572357 C 326.08532715 105.38585663 327.65267944 105.92842102 328.80474854 106.54898834 C 329.41445923 107.22904205 329.55886841 108.10457611 329.28216553 109.16519928 C 328.92752075 110.43518829 328.38827515 111.76876831 327.69464111 113.23989105 C 326.75845337 114.74081421 325.78958130 116.31941986 324.84545898 117.96067810 C 324.06085205 119.68746948 323.30682373 121.39932251 312.77947998 131.50750732" stroke-width="2.00000000" fill="rgb(251, 203, 40)" opacity="1.0" stroke="rgb(227, 112, 3)" stroke-opacity="0.8437034" stroke-linecap="round" stroke-linejoin="round"/>
    <path d="M 323.32638550 159.04254150 C 321.25717163 159.59379578 319.20611572 160.08967590 317.03936768 160.42366028 C 314.81549072 160.51466370 312.51174927 160.45278931 310.14221191 160.46281433 C 307.71237183 160.49176025 305.35348511 160.54786682 302.95523071 160.62062073 C 300.54620361 160.65612793 298.25006104 160.56845093 296.08877563 160.33644104 C 293.96752930 159.91766357 292.00274658 159.29917908 290.16452026 158.56517029 C 288.49057007 157.59176636 287.04373169 156.50625610 285.77450562 155.28102112 C 284.68984985 153.96131897 283.87887573 152.53051758 283.35409546 151.03225708 C 283.04150391 149.50408936 282.97503662 148.10011292 283.25811768 146.65766907 C 283.79818726 145.29035950 284.62979126 144.09806824 285.81799316 143.03439331 C 287.32077026 142.15745544 289.08685303 141.45980835 291.08035278 140.82107544 C 293.25958252 140.23416138 295.63452148 139.63583374 298.09826660 139.05264282 C 300.62359619 138.39872742 303.23916626 137.77511597 305.86651611 137.11032104 C 308.47467041 136.42658997 311.05230713 135.89404297 313.58554077 135.65960693 C 316.16741943 135.90469360 318.74468994 136.30090332 321.25817871 136.83926392 C 323.72488403 137.64898682 326.12094116 138.62854004 328.37982178 139.70123291 C 330.59216309 140.83102417 332.64505005 141.92102051 334.49130249 143.03895569 C 336.14041138 144.19064331 337.54287720 145.34382629 338.76751709 146.21682739 C 339.70953369 147.01376343 340.33383179 147.70298767 340.49133301 148.41726685 C 340.14849854 149.12995911 339.51702881 149.90847778 338.78451538 150.88723755 C 338.22161865 151.99438477 337.55575562 153.09461975 323.32638550 159.04254150" stroke-width="2.00000000" fill="rgb(250, 199, 40)" opacity="1.0" stroke="rgb(226, 111, 1)" stroke-opacity="0.8138803" stroke-linecap="round" stroke-linejoin="round"/>
    <path d="M 313.49093628 193.18487549 C 311.62646484 192.84854126 309.63479614 192.58346558 307.67553711 192.26548767 C 305.76647949 191.69158936 303.77505493 191.01226807 301.79937744 190.16764832 C 300.01080322 189.03210449 298.34912109 187.67034912 296.64273071 186.10928345 C 294.87982178 184.51296997 293.14202881 182.96134949 291.37191772 181.39649963 C 289.54608154 179.76083374 287.80664062 178.11407471 286.13339233 176.54998779 C 284.46868896 174.95140076 282.93002319 173.37049866 281.52307129 171.86549377 C 280.28933716 170.36956787 279.38635254 168.80567932 278.74694824 167.23966980 C 278.38198853 165.65435791 278.31765747 164.13311768 278.53869629 162.61988831 C 278.97924805 161.20220947 279.65582275 159.91223145 280.55035400 158.84512329 C 281.70285034 157.85055542 283.01296997 157.08860779 284.54983521 156.58659363 C 286.21493530 156.36285400 288.09436035 156.39315796 290.05310059 156.64457703 C 292.15237427 157.13542175 294.34899902 157.68173218 296.62713623 158.30679321 C 299.02703857 158.95874023 301.39755249 159.64582825 303.78887939 160.29841614 C 306.15814209 161.06327820 308.43597412 161.97361755 310.67184448 162.95439148 C 312.76153564 164.10099792 314.58056641 165.44165039 316.26684570 167.04483032 C 317.81512451 168.86486816 319.30380249 170.68960571 320.70266724 172.63508606 C 322.00546265 174.61799622 323.17645264 176.68336487 324.34283447 178.74989319 C 325.42422485 180.81858826 326.33764648 182.84457397 327.10461426 184.83619690 C 327.80453491 186.84651184 328.24057007 188.88822937 328.54174805 190.85395813 C 328.85424805 192.74673462 329.26913452 194.54887390 313.49093628 193.18487549" stroke-width="2.00000000" fill="rgb(250, 205, 38)" opacity="1.0" stroke="rgb(234, 118, 4)" stroke-opacity="0.8527333" stroke-linecap="round" stroke-linejoin="round"/>
    <path d="M 300.62588501 211.51977539 C 300.40832520 213.11512756 300.26504517 214.72892761 300.09683228 216.34513855 C 299.89019775 217.80433655 299.68164062 219.04873657 299.44863892 220.15617371 C 299.21026611 221.17872620 298.98382568 221.97035217 298.61749268 222.43101501 C 298.00384521 222.52053833 297.06613159 222.35588074 295.88796997 222.04243469 C 294.57107544 221.40025330 293.14749146 220.61650085 291.40939331 219.85188293 C 289.46359253 219.01419067 287.47326660 217.97843933 285.45751953 216.66915894 C 283.37808228 215.15249634 281.28616333 213.57601929 279.10784912 211.91615295 C 277.08190918 210.04367065 275.10363770 208.05867004 273.21829224 205.95954895 C 271.55096436 203.65423584 269.92950439 201.37031555 268.46298218 199.00061035 C 267.17449951 196.56666565 266.04589844 194.16142273 265.10571289 191.79133606 C 264.38571167 189.44519043 263.96868896 187.11877441 263.81500244 184.88262939 C 263.90380859 182.79090881 264.25167847 180.78771973 264.84100342 178.88903809 C 265.66528320 177.20886230 266.65264893 175.68942261 267.80844116 174.37818909 C 269.09008789 173.32110596 270.47229004 172.49989319 271.95831299 171.92744446 C 273.46588135 171.64440918 274.96566772 171.70626831 276.46728516 172.01689148 C 277.95324707 172.72720337 279.37963867 173.77166748 280.76394653 175.09703064 C 282.22665405 176.57090759 283.70379639 178.21873474 285.27581787 179.95274353 C 286.90765381 181.75265503 288.58102417 183.53874207 290.29171753 185.39709473 C 292.02832031 187.18435669 293.82931519 188.95251465 295.74938965 190.56617737 C 297.71630859 192.07511902 299.70239258 193.61882019 300.62588501 211.51977539" stroke-width="2.00000000" fill="rgb(250, 204, 40)" opacity="1.0" stroke="rgb(230, 117, 0)" stroke-opacity="0.81823826" stroke-linecap="round" stroke-linejoin="round"/>
    <path d="M 266.09503174 399.11926270 C 264.04418945 400.48773193 261.85488892 401.51953125 259.56488037 401.96228027 C 257.21093750 401.99472046 254.95312500 401.70333862 253.04542542 401.13006592 C 251.57492065 400.05786133 250.71952820 398.28701782 250.46444702 395.70178223 C 250.42536926 392.27835083 250.39625549 388.05895996 250.39797974 383.18310547 C 250.33663940 377.60702515 250.48114014 371.49142456 250.56153870 364.79739380 C 250.56549072 357.58523560 250.59745789 349.95431519 250.75492859 341.94821167 C 250.83001709 333.65927124 250.79370117 325.11471558 250.76982117 316.37298584 C 250.75193787 307.56542969 250.92681885 298.77639771 250.99508667 289.98452759 C 250.88381958 281.37658691 250.75520325 272.94357300 250.68508911 264.82012939 C 250.81250000 257.05221558 250.81596375 249.68533325 250.80859375 242.87705994 C 250.62304688 236.64866638 250.52322388 231.08776855 250.84437561 226.35913086 C 251.92057800 222.37556458 253.55668640 219.19186401 255.56199646 216.92959595 C 257.76025391 215.50103760 260.01303101 214.96754456 262.10949707 215.39294434 C 263.94860840 216.70144653 265.27877808 219.03355408 266.02352905 222.34530640 C 266.27029419 226.65101624 266.20504761 231.74920654 266.14157104 237.64001465 C 266.23190308 244.08505249 266.34689331 251.06358337 266.51486206 258.44656372 C 266.76361084 266.18179321 266.67675781 274.17926025 266.34622192 282.41564941 C 266.10650635 290.82583618 266.05551147 299.34967041 266.02496338 307.99047852 C 266.02935791 316.70089722 266.05688477 325.42199707 265.92083740 334.18121338 C 265.90060425 342.95437622 266.04840088 351.69204712 266.09503174 399.11926270" stroke-width="1.04253066" fill="rgb(96, 168, 65)" opacity="1.0" stroke="rgb(129, 196, 112)" stroke-opacity="0.18346708" stroke-linecap="round" stroke-linejoin="round"/>
    <path d="M 265.18548584 218.72193909 C 263.84732056 219.95811462 262.59558105 221.28190613 261.58941650 222.63792419 C 260.71664429 224.15489197 259.97320557 225.61436462 259.24780273 226.91802979 C 258.53268433 228.12646484 257.80883789 229.07121277 257.09729004 229.71408081 C 256.37054443 229.97502136 255.60903931 229.90766907 254.74552917 229.41923523 C 253.87429810 228.59095764 252.86198425 227.50657654 251.75929260 226.20274353 C 250.66145325 224.58685303 249.51934814 222.72454834 248.37413025 220.68475342 C 247.28646851 218.45884705 246.21520996 216.03814697 245.27621460 213.53015137 C 244.50964355 210.84379578 243.67306519 208.14073181 242.93701172 205.50646973 C 242.52589417 202.89788818 242.44488525 200.26667786 242.51234436 197.68595886 C 242.70043945 195.17837524 243.01637268 192.71334839 243.49778748 190.39489746 C 244.08526611 188.15182495 244.81602478 186.14643860 245.65069580 184.26701355 C 246.61807251 182.57156372 247.72460938 181.08245850 248.89573669 179.84111023 C 250.23672485 178.79164124 251.57460022 178.01937866 252.99351501 177.53939819 C 254.41535950 177.32826233 255.86723328 177.30984497 257.27090454 177.58688354 C 258.57449341 178.07588196 259.79293823 178.84617615 260.92504883 179.84095764 C 261.89282227 181.07054138 262.72149658 182.55163574 263.48583984 184.18583679 C 264.12835693 186.01753235 264.75021362 187.95713806 265.34835815 189.98852539 C 265.99499512 192.04870605 266.54034424 194.22097778 267.05642700 196.40830994 C 267.57812500 198.59407043 268.07760620 200.75791931 268.53323364 202.95260620 C 268.98663330 205.12063599 269.45187378 207.18066406 265.18548584 218.72193909" stroke-width="2.00000000" fill="rgb(247, 204, 44)" opacity="1.0" stroke="rgb(216, 108, 25)" stroke-opacity="0.8532184" stroke-linecap="round" stroke-linejoin="round"/>
    <path d="M 231.45783997 212.52342224 C 229.66065979 213.99374390 227.96592712 215.46810913 226.27610779 216.85031128 C 224.52706909 218.08032227 222.71328735 218.98966980 220.97087097 219.82495117 C 219.43139648 220.69685364 218.03662109 221.55140686 216.76675415 222.23432922 C 215.69680786 222.54301453 214.83799744 222.60803223 214.12045288 222.29570007 C 213.62644958 221.46166992 213.16461182 220.21401978 212.69505310 218.66441345 C 212.30195618 216.87651062 211.94459534 214.89198303 211.68585205 212.63540649 C 211.56361389 210.21400452 211.57803345 207.61192322 211.79795837 205.00030518 C 212.28132629 202.37974548 212.55363464 199.68276978 212.98631287 197.06411743 C 213.82098389 194.53308105 214.95028687 192.21195984 216.46751404 190.03979492 C 218.13398743 187.91493225 219.87684631 185.79837036 221.61804199 183.73136902 C 223.27282715 181.64710999 224.83502197 179.59724426 226.31712341 177.66268921 C 227.82643127 175.85360718 229.37353516 174.32856750 230.88598633 173.06532288 C 232.49021912 172.14776611 234.02896118 171.56089783 235.58804321 171.28343201 C 237.10917664 171.30589294 238.57017517 171.59815979 239.95123291 172.09768677 C 241.24162292 172.86022949 242.35708618 173.79273987 243.29545593 175.00100708 C 244.03518677 176.37400818 244.56434631 177.91152954 244.86802673 179.67475891 C 244.89842224 181.55804443 244.66377258 183.56861877 244.33546448 185.76858521 C 243.83067322 188.07667542 243.17848206 190.41624451 242.36459351 192.84072876 C 241.43310547 195.30194092 240.44842529 197.84333801 239.46937561 200.43461609 C 238.65043640 203.12283325 237.94972229 205.85488892 231.45783997 212.52342224" stroke-width="2.00000000" fill="rgb(249, 202, 38)" opacity="1.0" stroke="rgb(230, 118, 7)" stroke-opacity="0.85100573" stroke-linecap="round" stroke-linejoin="round"/>
    <path d="M 211.46751404 190.07861328 C 208.36154175 190.85862732 205.19844055 191.63984680 202.09135437 192.32617188 C 199.08045959 192.83195496 196.21421814 193.26361084 193.51553345 193.48312378 C 190.99533081 193.58410645 188.72613525 193.68750000 186.77784729 193.74517822 C 185.25997925 193.69810486 184.08779907 193.51594543 183.31259155 193.01469421 C 183.05020142 192.20472717 183.18006897 190.94558716 183.55793762 189.44232178 C 184.06330872 187.59782410 184.70083618 185.54254150 185.46546936 183.36573792 C 186.40242004 181.08255005 187.51327515 178.73048401 188.82516479 176.39427185 C 190.13694763 173.97442627 191.63406372 171.70347595 193.30628967 169.57238770 C 195.03015137 167.42320251 196.94277954 165.44786072 199.04794312 163.71710205 C 201.28793335 162.20834351 203.66506958 160.82501221 205.99291992 159.49801636 C 208.36529541 158.30078125 210.65382385 157.25964355 212.93664551 156.48255920 C 215.16311646 155.92309570 217.35681152 155.62451172 219.51380920 155.65205383 C 221.56703186 155.92781067 223.43737793 156.39826965 225.19021606 157.09982300 C 226.75263977 158.00593567 228.12568665 159.09555054 229.26252747 160.35649109 C 230.23045349 161.68725586 230.90792847 163.18130493 231.32342529 164.68788147 C 231.49511719 166.20315552 231.43444824 167.72886658 230.99423218 169.22785950 C 230.25721741 170.64537048 229.23789978 171.96609497 227.93482971 173.27468872 C 226.46620178 174.56614685 224.91714478 175.89953613 223.26327515 177.28237915 C 221.60026550 178.76594543 219.93707275 180.27418518 218.30932617 181.86117554 C 216.64608765 183.44392395 214.97181702 185.02450562 211.46751404 190.07861328" stroke-width="2.00000000" fill="rgb(251, 204, 41)" opacity="1.0" stroke="rgb(230, 109, 0)" stroke-opacity="0.83463794" stroke-linecap="round" stroke-linejoin="round"/>
    <path d="M 199.44723511 159.53660583 C 197.65258789 160.00128174 195.88903809 160.30575562 194.07864380 160.37428284 C 192.12728882 159.98898315 190.13272095 159.40061951 188.05300903 158.70863342 C 185.96797180 157.84642029 183.82182312 157.08209229 181.74081421 156.34579468 C 179.72544861 155.50407410 177.79707336 154.63017273 176.10519409 153.69039917 C 174.65646362 152.71031189 173.47912598 151.79483032 172.58496094 150.91242981 C 172.09965515 149.92109680 172.11860657 148.89900208 172.37242126 147.82084656 C 173.02822876 146.95762634 174.10437012 146.11923218 175.54753113 145.19131470 C 177.09825134 144.08705139 178.83020020 142.95339966 180.69985962 141.82629395 C 182.75445557 140.70954895 184.96054077 139.50186157 187.27308655 138.42585754 C 189.77235413 137.65042114 192.38183594 136.89079285 195.03051758 136.14559937 C 197.69602966 135.42926025 200.35723877 134.93199158 203.03070068 134.66473389 C 205.64163208 134.53239441 208.20869446 134.62687683 210.68661499 134.95829773 C 213.05128479 135.46218872 215.31001282 136.14509583 217.44564819 136.98800659 C 219.35472107 137.90653992 221.10446167 138.95315552 222.62580872 140.11256409 C 223.92103577 141.36093140 224.96388245 142.63870239 225.72056580 144.04791260 C 226.20721436 145.42887878 226.45663452 146.81750488 226.47286987 148.15945435 C 226.18910217 149.47880554 225.72157288 150.67276001 225.05108643 151.74273682 C 224.14732361 152.75291443 223.05926514 153.56594849 221.78286743 154.23323059 C 220.43286133 154.81439209 218.94276428 155.29479980 217.43322754 155.81257629 C 215.92596436 156.39935303 214.37831116 156.99545288 199.44723511 159.53660583" stroke-width="2.00000000" fill="rgb(250, 199, 40)" opacity="1.0" stroke="rgb(229, 120, 9)" stroke-opacity="0.84390026" stroke-linecap="round" stroke-linejoin="round"/>
    <path d="M 227.69012451 141.70196533 C 225.01150513 140.61322021 222.28153992 139.52279663 219.57461548 138.61895752 C 216.80284119 137.76069641 214.01524353 136.92974854 211.24552917 136.12132263 C 208.48478699 135.25321960 205.87290955 134.24298096 203.30282593 133.13131714 C 200.81195068 131.90498352 198.60804749 130.42048645 196.49673462 128.60873413 C 194.55895996 126.68911743 192.59742737 124.70522308 190.71133423 122.69636536 C 189.01539612 120.53806305 187.44853210 118.40392303 185.83296204 116.43242645 C 184.57174683 114.44258881 183.55757141 112.54573822 182.67514038 110.87838745 C 182.14439392 109.40141296 182.02674866 108.14497375 182.45222473 107.05590820 C 183.44131470 106.17552185 184.83012390 105.48509216 186.57507324 104.97129059 C 188.61994934 104.58927917 190.98661804 104.37171173 193.57635498 104.34333801 C 196.37762451 104.33869171 199.24224854 104.45283508 202.15579224 104.65433502 C 205.03427124 105.05322266 207.89308167 105.58099365 210.62097168 106.34346771 C 213.13648987 107.56446075 215.47454834 109.07035828 217.74282837 110.74044037 C 219.94223022 112.40312958 222.23361206 114.08502197 224.49676514 115.70767975 C 226.67794800 117.27120972 228.70021057 118.82221222 230.59899902 120.35983276 C 232.39736938 121.92202759 234.03269958 123.55496216 235.39073181 125.26579285 C 236.63258362 126.98374939 237.72151184 128.76939392 238.65357971 130.58866882 C 239.53256226 132.41069031 240.28959656 134.20639038 240.98953247 136.09283447 C 241.65945435 137.94229126 242.30441284 139.76063538 242.91496277 141.58242798 C 243.54367065 143.44964600 244.12625122 145.26943970 227.69012451 141.70196533" stroke-width="2.00000000" fill="rgb(251, 204, 40)" opacity="1.0" stroke="rgb(230, 111, 6)" stroke-opacity="0.85979605" stroke-linecap="round" stroke-linejoin="round"/>
    <path d="M 227.96807861 117.73869324 C 226.35183716 116.18845367 224.82339478 114.53929138 223.37301636 112.84200287 C 221.98094177 111.13411713 220.57096863 109.45375061 219.12017822 107.84986877 C 217.55451965 106.32533264 216.05146790 104.85610962 214.89421082 103.21636200 C 213.97932434 101.31372833 213.31420898 99.21562958 212.74339294 97.05931091 C 212.20478821 94.93643188 211.83854675 92.72274017 211.65620422 90.43998718 C 211.76643372 88.20352173 211.83494568 86.02612305 211.70712280 83.91434479 C 211.62796021 81.91242218 211.68769836 80.11846924 212.06016541 78.58361053 C 212.57884216 77.19937134 213.15487671 76.20635223 213.93383789 75.55032349 C 214.86206055 75.31993103 216.08056641 75.60517883 217.48181152 76.24055481 C 219.04737854 77.13095856 220.84078979 78.13821411 222.83903503 79.26900482 C 224.86245728 80.53499603 226.84504700 81.87913513 228.77838135 83.41275024 C 230.68327332 85.05007935 232.51528931 86.78081512 234.31710815 88.59681702 C 236.03355408 90.55360413 237.63652039 92.57389832 238.98078918 94.58023071 C 240.13713074 96.67021179 241.11416626 98.82398224 241.82627869 101.00753784 C 242.34226990 103.24842072 242.83151245 105.40605927 243.28608704 107.46992493 C 243.75840759 109.49267578 244.18530273 111.44953918 244.46038818 113.36030579 C 244.67828369 115.27014923 244.73059082 117.04746246 244.71476746 118.80651093 C 244.58113098 120.51754761 244.40129089 122.22675323 244.05073547 123.82946777 C 243.72964478 125.49277496 243.39305115 127.12980652 243.04406738 128.78463745 C 242.67819214 130.40983582 242.27297974 132.01956177 227.96807861 117.73869324" stroke-width="2.00000000" fill="rgb(251, 204, 38)" opacity="1.0" stroke="rgb(232, 127, 22)" stroke-opacity="0.8802179" stroke-linecap="round" stroke-linejoin="round"/>
    <path d="M 239.84776306 175.05773926 C 237.72244263 173.39729309 235.69711304 171.69422913 233.77302551 169.92848206 C 231.93089294 168.01245117 230.33946228 165.95298767 229.03269958 163.75329590 C 227.99688721 161.35133362 227.12747192 158.83448792 226.35064697 156.26618958 C 225.80429077 153.66465759 225.54299927 151.03121948 225.57469177 148.35368347 C 225.78746033 145.65603638 226.32687378 143.01049805 227.16033936 140.42356873 C 228.14675903 137.82380676 229.50402832 135.33264160 231.17298889 132.97274780 C 233.03935242 130.62980652 235.10426331 128.38212585 237.40367126 126.32258606 C 239.99661255 124.55287170 242.78527832 123.03790283 245.71929932 121.75766754 C 248.75953674 120.86928558 251.92765808 120.32528687 255.08091736 120.05019379 C 258.25781250 120.02610016 261.33712769 120.43090820 264.36953735 121.29363251 C 267.27920532 122.39597321 270.11468506 123.83962250 272.79522705 125.54925537 C 275.18008423 127.54528046 277.29693604 129.84326172 279.13714600 132.43251038 C 280.77032471 135.13272095 282.21905518 138.00317383 283.34893799 140.95597839 C 284.04040527 144.02767944 284.36254883 147.12155151 284.46481323 150.21556091 C 284.32351685 153.25476074 283.80963135 156.17663574 282.89224243 159.02510071 C 281.69842529 161.79586792 280.28103638 164.45721436 278.73483276 166.96813965 C 276.90225220 169.23701477 274.80368042 171.26275635 272.50158691 173.02540588 C 270.04699707 174.57695007 267.50891113 175.92774963 264.89358521 177.08711243 C 262.16088867 177.78492737 259.23367310 178.20504761 256.24209595 178.49552917 C 253.20877075 178.76370239 250.15617371 179.05725098 239.84776306 175.05773926" stroke-width="2.00000000" fill="rgb(136, 79, 20)" opacity="1.0" stroke="rgb(247, 197, 62)" stroke-opacity="1.0" stroke-linecap="round" stroke-linejoin="round"/>
    <path d="M 223.20846558 293.43649292 C 220.49273682 293.90530396 217.81552124 294.56668091 215.24584961 295.34292603 C 212.79385376 295.64151001 210.43521118 295.69686890 208.26206970 295.74172974 C 206.37860107 295.75061035 204.77861023 295.96981812 203.48518372 296.21957397 C 202.60470581 296.15444946 202.11012268 295.95852661 202.08685303 295.62176514 C 202.59124756 295.12033081 203.46504211 294.29345703 204.50892639 293.10809326 C 205.70378113 291.82019043 207.27243042 290.50317383 208.97698975 288.93734741 C 210.56427002 287.20742798 212.06626892 285.29916382 213.51658630 283.17004395 C 214.92727661 280.88171387 216.44606018 278.69860840 217.93553162 276.56881714 C 219.47970581 274.37850952 220.97569275 272.32107544 222.43119812 270.33200073 C 224.02595520 268.58837891 225.62866211 266.96319580 227.35873413 265.51947021 C 229.27970886 264.54565430 231.14463806 263.59689331 232.93542480 262.63317871 C 234.72972107 262.01406860 236.47572327 261.61001587 238.20204163 261.66857910 C 240.10856628 262.23040771 242.20059204 262.86392212 244.13261414 263.71826172 C 245.94329834 264.79028320 247.44526672 266.10092163 248.48573303 267.47888184 C 248.93077087 269.00799561 248.88273621 270.67483521 248.54179382 272.30041504 C 247.90869141 273.81524658 246.94656372 275.32241821 245.80494690 276.96475220 C 244.79930115 278.66629028 243.54713440 280.17709351 242.21995544 281.80368042 C 240.87686157 283.28646851 239.33894348 284.52648926 237.65596008 285.68130493 C 235.91426086 286.84848022 234.23066711 288.07565308 232.42036438 289.11614990 C 230.60137939 290.29135132 228.66531372 291.36419678 223.20846558 293.43649292" stroke-width="2.00000000" fill="rgb(134, 203, 68)" opacity="1.0" stroke="rgb(0, 110, 43)" stroke-opacity="0.9055105" stroke-linecap="round" stroke-linejoin="round"/>
    <path d="M 271.86819458 261.72769165 C 273.61419678 261.44277954 275.38766479 261.36700439 277.18002319 261.57373047 C 278.96209717 262.03408813 280.72933960 262.77294922 282.44650269 263.67459106 C 284.14367676 264.72363281 285.84313965 265.98928833 287.46389771 267.49295044 C 289.14398193 269.08920288 290.77005005 270.84143066 292.49606323 272.60134888 C 294.07061768 274.62036133 295.43005371 276.79452515 296.83328247 279.03790283 C 298.40087891 281.13449097 299.87655640 283.29644775 301.36132812 285.35903931 C 303.08999634 287.17175293 304.62646484 288.90432739 306.02157593 290.54772949 C 307.30828857 291.98965454 308.45898438 293.10940552 309.53137207 293.88583374 C 310.22744751 294.56561279 310.47979736 295.12890625 310.21154785 295.46151733 C 309.43664551 295.60324097 308.28485107 295.66885376 306.77322388 295.68875122 C 304.95251465 295.62017822 302.78695679 295.54074097 300.38339233 295.42993164 C 297.88159180 295.16467285 295.40524292 294.83355713 292.79113770 294.43911743 C 290.23645020 293.75518799 287.69729614 293.14340210 285.34771729 292.43832397 C 283.25466919 291.52117920 281.19610596 290.57650757 279.21716309 289.72338867 C 277.48968506 288.60934448 275.91839600 287.45755005 274.46328735 286.40332031 C 273.00863647 285.30041504 271.66708374 284.14358521 270.53741455 282.86849976 C 269.50759888 281.53750610 268.65530396 280.09774780 267.89212036 278.52233887 C 267.05691528 277.05331421 266.27349854 275.56765747 265.75164795 273.98919678 C 265.56240845 272.32510376 265.52328491 270.66436768 265.51080322 268.89761353 C 265.53326416 267.06869507 265.60107422 265.21063232 271.86819458 261.72769165" stroke-width="2.00000000" fill="rgb(135, 204, 70)" opacity="1.0" stroke="rgb(0, 106, 45)" stroke-opacity="0.8873983" stroke-linecap="round" stroke-linejoin="round"/>
    <path d="M 211.15101624 376.18823242 C 213.17968750 378.65921021 215.18663025 381.08245850 216.93583679 383.57214355 C 218.53292847 386.07217407 219.98510742 388.51699829 221.22949219 390.87182617 C 222.19375610 393.18099976 222.91436768 395.31973267 223.44366455 397.33053589 C 223.82080078 399.00167847 223.91233826 400.20489502 223.56134033 401.05627441 C 222.76998901 401.48074341 221.77549744 401.51119995 220.78201294 401.21130371 C 220.06105042 400.37268066 219.45762634 398.99481201 218.77076721 397.23104858 C 218.03628540 395.26055908 217.27919006 393.00576782 216.40643311 390.53045654 C 215.39836121 387.96051025 214.24482727 385.41018677 212.91015625 382.87158203 C 211.40986633 380.44711304 209.68443298 378.19390869 207.73390198 376.00292969 C 206.05519104 373.61865234 204.49861145 371.09921265 211.15101624 376.18823242" stroke-width="0.89121616" fill="rgb(135, 172, 53)" opacity="1.0" stroke="rgb(103, 156, 0)" stroke-opacity="0.29836133" stroke-linecap="round" stroke-linejoin="round"/>
    <path d="M 219.05880737 369.41647339 C 220.05010986 371.43133545 221.08717346 373.27807617 222.20730591 375.04327393 C 223.07812500 376.76004028 223.71995544 378.37957764 224.35571289 379.91729736 C 225.01741028 381.14340210 225.50193787 382.23855591 225.74449158 383.25149536 C 225.77143860 384.15655518 225.58103943 384.93557739 225.32810974 385.56359863 C 224.99299622 385.96405029 224.62629700 386.13232422 224.23786926 386.11181641 C 223.79463196 385.81240845 223.31250000 385.22808838 222.67373657 384.33395386 C 221.99163818 383.23822021 221.38015747 381.88360596 220.78964233 380.29809570 C 220.04270935 378.44763184 219.18821716 376.50796509 218.41085815 374.38598633 C 217.54357910 372.19714355 216.56369019 370.02218628 215.57580566 367.84573364 C 214.98245239 365.54846191 214.67050171 363.16534424 219.05880737 369.41647339" stroke-width="0.95655376" fill="rgb(103, 146, 44)" opacity="1.0" stroke="rgb(98, 160, 0)" stroke-opacity="0.27719504" stroke-linecap="round" stroke-linejoin="round"/>
    <path d="M 228.16941833 388.66381836 C 228.62338257 385.45986938 229.09562683 382.45037842 229.64910889 379.85662842 C 230.27423096 377.92883301 230.98730469 376.88687134 231.51994324 376.93658447 C 231.56205750 378.08407593 231.29933167 380.10400391 230.80841064 382.78826904 C 230.37702942 385.87139893 230.31811523 389.17135620 230.30377197 392.48489380 C 230.40612793 395.56961060 230.49514771 398.15066528 230.11712646 399.95175171 C 229.10429382 400.74804688 227.68969727 400.89282227 226.20207214 400.72006226 C 224.92828369 400.32971191 224.07855225 399.29827881 223.56549072 397.72308350 C 223.38150024 395.61621094 223.32307434 393.08694458 223.06715393 390.30786133 C 222.61961365 387.37225342 222.11265564 384.28808594 221.53010559 381.04440308 C 221.00494385 377.71621704 220.57894897 374.36621094 228.16941833 388.66381836" stroke-width="0.88641256" fill="rgb(140, 184, 50)" opacity="1.0" stroke="rgb(126, 180, 15)" stroke-opacity="0.4008077" stroke-linecap="round" stroke-linejoin="round"/>
    <path d="M 281.67361450 400.36264038 C 283.54269409 396.38659668 285.50625610 392.59033203 287.64785767 388.94320679 C 289.89758301 385.55014038 292.10519409 382.42572021 294.28253174 379.69873047 C 296.38757324 377.38751221 298.40209961 375.43905640 300.13943481 373.94067383 C 301.76000977 373.04388428 303.10488892 372.50689697 304.08154297 372.29318237 C 304.54888916 372.42068481 304.65090942 372.90805054 304.32022095 373.64315796 C 303.57455444 374.55831909 302.50885010 375.66851807 301.18542480 376.99905396 C 299.87738037 378.61212158 298.48831177 380.50018311 297.12728882 382.68182373 C 295.85412598 385.06411743 294.59387207 387.60620117 293.52471924 390.25012207 C 292.42715454 392.88961792 291.38220215 395.41833496 290.59143066 397.91757202 C 290.44348145 400.38937378 290.62670898 402.72314453 281.67361450 400.36264038" stroke-width="0.91405064" fill="rgb(133, 181, 47)" opacity="1.0" stroke="rgb(122, 180, 26)" stroke-opacity="0.22874044" stroke-linecap="round" stroke-linejoin="round"/>
    <path d="M 280.80480957 390.75302124 C 281.54772949 389.02377319 282.18386841 387.20956421 282.77017212 385.37918091 C 283.44854736 383.69833374 284.08895874 382.16433716 284.71624756 380.75915527 C 285.40625000 379.50402832 286.04476929 378.46475220 286.58212280 377.58377075 C 286.90072632 376.81185913 287.15286255 376.31729126 287.32498169 376.05560303 C 287.47775269 376.03637695 287.56793213 376.28890991 287.60302734 376.79232788 C 287.63000488 377.62222290 287.59732056 378.72921753 287.49539185 380.00210571 C 287.36599731 381.42309570 287.01641846 383.11364746 286.53894043 384.99313354 C 286.08834839 387.08489990 285.64694214 389.30093384 285.20208740 391.67449951 C 284.55438232 394.15280151 283.54696655 396.64749146 282.28421021 399.12078857 C 280.88919067 401.54147339 279.37976074 404.03317261 280.80480957 390.75302124" stroke-width="1.12563419" fill="rgb(131, 175, 49)" opacity="1.0" stroke="rgb(149, 197, 44)" stroke-opacity="0.33040938" stroke-linecap="round" stroke-linejoin="round"/>
    <path d="M 290.84185791 372.92337036 C 290.26947021 374.91271973 289.63986206 376.79425049 288.74963379 378.55310059 C 287.83853149 380.23068237 286.94085693 381.84399414 286.04174805 383.31195068 C 285.31280518 384.63034058 284.62271118 385.78314209 283.93664551 386.73269653 C 283.32986450 387.47021484 282.94021606 387.94174194 282.65783691 388.22006226 C 282.40155029 388.23123169 282.19241333 388.00308228 282.18041992 387.52017212 C 282.32351685 386.69497681 282.53073120 385.58221436 282.87445068 384.37451172 C 283.37966919 382.95410156 283.96774292 381.25292969 284.62582397 379.32208252 C 285.49212646 377.31759644 286.50741577 375.31164551 287.80267334 373.31903076 C 289.13626099 371.17465210 290.56015015 369.01470947 292.30737305 366.97729492 C 294.45983887 365.31192017 296.71914673 363.82104492 290.84185791 372.92337036" stroke-width="1.01106274" fill="rgb(100, 148, 38)" opacity="1.0" stroke="rgb(58, 134, 0)" stroke-opacity="0.22861928" stroke-linecap="round" stroke-linejoin="round"/>
  </g>
</svg>
