<?xml version="1.0" ?>
<svg xmlns="http://www.w3.org/2000/svg" version="1.1" width="512" height="512" viewBox="0 0 512 512">
  <defs/>
  <g>
    <path d="M 500.01327515 268.89462280 C 496.54321289 269.22943115 493.03421021 269.36300659 489.54681396 269.40304565 C 486.04537964 269.44116211 482.49493408 269.41101074 479.04498291 269.39434814 C 475.61383057 269.40249634 472.19531250 269.47454834 468.83670044 269.50119019 C 465.53826904 269.58572388 462.34869385 269.72381592 459.23309326 269.76794434 C 456.26565552 269.67529297 453.48870850 269.36718750 450.79699707 268.84777832 C 448.28298950 268.06646729 445.98135376 267.10055542 443.87322998 265.93896484 C 441.97207642 264.66012573 440.31472778 263.20654297 438.89950562 261.67205811 C 437.78366089 260.00195312 436.89813232 258.28546143 436.33779907 256.45355225 C 436.04959106 254.63014221 436.10812378 252.73283386 436.46978760 250.88845825 C 437.13082886 249.01181030 438.13906860 247.22688293 439.42651367 245.46551514 C 441.03802490 243.85780334 442.95077515 242.32664490 445.13616943 240.95964050 C 447.57461548 239.79583740 450.29507446 238.83692932 453.18399048 238.11985779 C 456.31698608 237.71032715 459.62304688 237.55900574 463.03625488 237.56391907 C 466.53491211 237.62455750 470.10485840 237.61582947 473.65060425 237.58135986 C 477.16107178 237.49578857 480.56549072 237.43823242 483.82623291 237.36935425 C 486.93313599 237.22294617 489.76950073 237.13319397 492.36502075 237.09510803 C 494.62118530 236.99082947 496.50619507 237.08233643 497.94442749 237.48449707 C 498.96054077 238.28370667 499.54696655 239.54048157 499.93222046 241.12217712 C 500.26495361 242.95991516 500.50311279 245.11364746 500.74270630 247.43096924 C 501.17599487 249.80412292 501.82598877 252.28567505 500.01327515 268.89462280" stroke-width="0.45440760" fill="rgb(71, 80, 84)" opacity="1.0" stroke="rgb(57, 55, 56)" stroke-opacity="0.3833446" stroke-linecap="round" stroke-linejoin="round"/>
    <path d="M 66.72673798 317.34997559 C 63.52246857 305.53729248 60.99048615 293.67047119 59.20425415 281.64016724 C 58.18869019 269.49322510 58.10470581 257.17208862 58.49625778 244.81903076 C 59.42729950 232.48423767 61.26057434 220.23471069 64.12844086 207.96797180 C 67.41344452 195.69308472 71.63513947 183.65881348 76.86050415 171.83410645 C 82.75387573 160.07037354 89.47131348 148.65164185 97.04766846 137.65631104 C 105.32083130 126.94497681 114.38262939 116.76552582 124.33049011 107.35936737 C 134.72735596 98.25354004 145.87171936 90.11813354 157.64649963 82.89162445 C 169.87124634 76.25370789 182.59364319 70.72835541 195.81123352 66.24745941 C 209.26875305 62.22618484 223.01565552 59.30440521 237.12142944 57.56891632 C 251.41308594 56.88265991 265.79309082 57.02917862 280.17379761 58.11138916 C 294.55996704 60.22146606 308.68597412 63.47864532 322.44165039 67.89205933 C 335.96478271 72.85160828 348.88995361 78.99710083 361.09820557 86.28273010 C 372.93399048 94.04737091 384.00048828 102.81384277 394.37060547 112.27272797 C 404.25683594 122.10533142 413.18859863 132.61901855 421.27481079 143.77545166 C 428.74615479 155.19540405 435.18380737 167.14208984 440.74829102 179.50708008 C 445.71533203 191.97642517 449.52188110 204.82157898 452.32095337 217.97473145 C 454.56015015 231.05349731 455.62838745 244.21998596 455.64874268 257.50207520 C 455.21264648 270.78366089 453.74053955 283.83895874 451.24157715 296.76956177 C 448.03216553 309.58996582 443.87930298 322.11410522 438.99743652 334.45736694 C 433.42364502 346.53604126 426.96881104 358.15267944 419.54089355 369.30664062 C 411.50177002 380.13873291 402.59170532 390.34576416 392.97256470 400.04046631 C 382.77819824 409.27932739 371.85165405 417.66748047 360.12646484 425.15020752 C 348.01132202 432.24108887 335.33242798 438.35702515 322.07144165 443.33782959 C 308.39691162 447.53997803 294.45272827 450.77230835 280.27673340 452.80059814 C 265.97473145 453.92846680 251.56613159 453.99288940 237.27864075 453.23718262 C 223.21975708 451.44125366 209.39183044 448.70452881 195.76901245 445.01269531 C 182.56927490 440.77536011 170.01437378 435.48034668 157.90446472 429.06268311 C 146.25384521 422.03219604 135.18040466 414.12127686 124.71875000 405.49884033 C 114.65870667 396.36422729 105.40975952 386.40441895 96.86731720 375.57632446 C 88.47203827 364.27050781 79.68261719 353.09054565 66.72673798 317.34997559" stroke-width="2.00000000" fill="rgb(149, 156, 164)" opacity="1.0" stroke="rgb(45, 47, 46)" stroke-opacity="1.0" stroke-linecap="round" stroke-linejoin="round"/>
    <path d="M 354.08441162 312.70965576 C 349.23696899 316.76681519 344.30514526 320.68188477 339.07800293 324.29953003 C 333.70907593 327.75369263 328.04812622 330.75033569 321.96179199 333.22317505 C 315.74298096 335.74099731 309.41796875 338.06155396 302.69711304 339.72552490 C 295.99917603 341.98236084 288.83380127 343.19531250 281.31414795 344.23464966 C 273.71551514 344.83102417 266.02450562 345.25201416 258.24359131 345.27606201 C 250.53669739 345.26571655 242.88031006 344.67807007 235.17088318 343.96667480 C 227.55216980 343.27624512 220.26376343 341.77413940 212.91329956 340.11300659 C 205.75370789 338.43917847 198.72053528 336.12017822 191.84233093 333.58645630 C 185.18190002 330.88137817 178.76826477 327.75061035 172.49011230 324.20700073 C 166.44857788 320.39566040 160.84097290 316.22314453 155.89773560 311.31536865 C 151.03361511 306.39199829 146.71202087 301.19171143 143.29859924 295.39453125 C 139.99993896 289.61383057 137.36361694 283.76455688 135.99382019 277.51480103 C 134.64364624 271.10748291 134.11692810 264.39663696 134.61984253 257.46420288 C 135.46540833 250.36753845 137.02949524 243.36981201 139.75128174 236.42268372 C 143.08145142 229.43229675 147.28189087 222.85586548 152.15499878 216.76766968 C 157.17349243 211.33233643 162.64645386 206.57774353 168.48655701 202.37966919 C 174.46495056 198.24650574 180.77038574 194.78364563 187.49514771 191.77799988 C 194.30616760 188.96925354 201.37637329 186.72189331 208.61871338 184.73217773 C 215.91561890 182.93489075 223.34484863 181.53958130 230.80023193 180.62567139 C 238.20962524 179.49661255 245.49876404 178.83921814 252.90803528 178.60691833 C 260.38562012 178.21780396 267.78781128 178.63052368 275.31896973 178.75540161 C 282.95654297 179.47994995 290.73718262 180.57119751 298.47155762 181.79481506 C 306.09332275 183.42541504 313.66485596 185.47128296 321.01919556 187.92016602 C 328.13681030 190.65110779 334.89614868 193.93827820 341.43600464 197.50990295 C 347.57495117 201.31341553 353.10968018 205.66665649 358.15127563 210.49293518 C 363.02194214 215.37091064 367.24172974 220.56344604 370.43463135 226.50196838 C 373.93869019 232.11871338 376.25393677 238.18241882 377.79095459 244.62886047 C 379.09851074 251.20599365 379.54992676 257.60662842 378.90051270 263.95162964 C 378.54931641 270.45590210 376.81314087 276.97326660 374.26742554 283.50692749 C 371.40887451 290.28524780 368.90255737 297.39556885 354.08441162 312.70965576" stroke-width="2.00000000" fill="rgb(252, 249, 241)" opacity="1.0" stroke="rgb(2, 1, 5)" stroke-opacity="0.94122523" stroke-linecap="round" stroke-linejoin="round"/>
    <path d="M 312.26843262 218.74310303 C 314.38192749 221.97116089 316.41619873 225.23504639 318.15322876 228.61465454 C 319.57186890 231.97074890 320.67160034 235.44496155 321.67202759 238.95396423 C 322.21731567 242.37309265 322.59667969 245.91374207 322.81390381 249.44525146 C 322.85403442 252.78802490 322.59973145 256.20608521 322.17861938 259.81167603 C 321.77923584 263.30413818 320.86450195 266.52322388 319.47045898 269.80404663 C 317.94332886 273.07543945 316.19909668 276.27282715 313.95718384 279.22012329 C 311.90707397 282.35189819 309.64617920 285.31106567 306.98449707 287.96643066 C 304.10476685 290.47601318 300.91796875 292.69030762 297.58761597 294.64602661 C 294.15386963 296.43988037 290.50616455 297.98495483 286.88439941 299.39358521 C 283.37982178 300.55541992 279.77487183 301.34588623 276.06198120 301.75134277 C 272.48016357 301.82943726 268.87832642 301.93630981 265.22241211 301.93057251 C 261.68972778 301.68576050 258.20788574 301.19195557 254.79425049 300.29223633 C 251.42453003 299.10873413 248.07469177 297.65252686 244.84364319 296.06442261 C 241.62963867 294.20034790 238.57615662 292.15509033 235.73115540 289.79891968 C 232.98219299 287.21426392 230.45846558 284.53497314 228.18202209 281.62069702 C 225.98110962 278.71701050 224.13830566 275.68740845 222.44346619 272.56201172 C 221.09873962 269.41662598 220.07409668 266.13342285 219.17787170 262.83947754 C 218.46795654 259.52020264 218.11904907 256.11911011 218.16049194 252.60894775 C 218.08497620 249.00428772 218.18783569 245.38571167 218.36209106 241.89653015 C 219.26783752 238.49867249 220.16996765 235.01101685 221.11819458 231.53883362 C 222.19270325 228.22183228 223.77374268 225.17027283 225.77453613 222.26217651 C 227.72581482 219.20162964 230.00218201 216.43832397 232.63992310 213.73175049 C 235.51028442 211.25686646 238.59387207 208.95677185 241.60046387 206.77815247 C 244.74501038 205.02056885 248.10780334 203.67724609 251.48205566 202.48132324 C 254.69000244 201.43975830 257.87326050 200.66059875 261.05859375 200.04228210 C 264.22036743 199.38830566 267.38168335 199.22933960 270.60720825 199.35466003 C 273.88894653 199.54652405 277.14727783 199.98025513 280.47152710 200.53173828 C 283.79165649 201.22874451 287.12316895 202.10426331 290.36038208 203.24835205 C 293.45840454 204.70339966 296.61312866 206.17048645 299.74383545 207.84985352 C 302.77896118 209.88198853 305.71865845 212.01876831 312.26843262 218.74310303" stroke-width="1.73018074" fill="rgb(254, 186, 0)" opacity="1.0" stroke="rgb(229, 140, 20)" stroke-opacity="0.9469365" stroke-linecap="round" stroke-linejoin="round"/>
    <path d="M 291.38629150 285.99066162 C 289.47421265 286.20022583 287.75384521 286.22235107 286.15292358 285.93026733 C 284.75247192 285.38510132 283.63494873 284.50823975 282.91632080 283.49566650 C 282.45834351 282.56506348 282.31222534 281.64981079 282.68624878 280.83016968 C 283.64126587 280.15783691 284.95565796 279.40209961 286.62875366 278.63809204 C 288.49862671 277.81503296 290.52441406 276.74905396 292.59542847 275.17715454 C 294.73889160 273.39575195 296.86547852 271.42523193 298.91378784 269.17971802 C 300.75949097 266.70114136 302.46176147 263.96237183 303.96664429 261.14968872 C 305.33868408 258.21151733 306.41168213 255.23939514 307.20068359 252.15927124 C 307.71807861 249.17247009 307.90591431 246.23625183 307.68566895 243.35255432 C 307.33276367 240.57868958 306.84109497 238.00476074 306.09939575 235.64933777 C 305.03271484 233.65731812 303.85046387 231.95367432 302.91107178 230.45761108 C 302.30566406 229.18737793 302.13674927 228.12249756 302.42156982 227.36595154 C 303.20379639 226.88221741 304.31420898 226.68783569 305.61932373 226.82421875 C 306.98477173 227.41639709 308.31570435 228.48310852 309.64910889 229.98098755 C 310.94515991 231.81172180 312.31698608 233.85552979 313.59924316 236.05577087 C 314.66763306 238.50126648 315.36050415 241.23403931 315.86151123 244.14212036 C 316.15957642 247.16496277 316.28454590 250.31230164 316.23873901 253.52566528 C 315.90560913 256.78005981 315.29083252 260.08901978 314.09060669 263.37478638 C 312.58786011 266.69616699 310.53845215 269.95758057 308.06610107 273.26928711 C 305.33035278 276.68725586 302.63265991 280.34512329 291.38629150 285.99066162" stroke-width="1.39993238" fill="rgb(252, 242, 158)" opacity="1.0" stroke="rgb(197, 123, 61)" stroke-opacity="0.320944" stroke-linecap="round" stroke-linejoin="round"/>
    <path d="M 330.44152832 298.90563965 C 329.30139160 299.80340576 328.19174194 300.70727539 327.10675049 301.55709839 C 326.06793213 302.34835815 325.05059814 303.01907349 324.07110596 303.57443237 C 323.20587158 304.08654785 322.46008301 304.54168701 321.83465576 304.91497803 C 321.35275269 305.21502686 321.00894165 305.35147095 320.85739136 305.31124878 C 320.89828491 305.09292603 321.15911865 304.85040283 321.63491821 304.51763916 C 322.30963135 304.10382080 323.12167358 303.65185547 324.08358765 303.20190430 C 325.15039062 302.57019043 326.20034790 301.74053955 327.33425903 300.69085693 C 328.52975464 299.53378296 329.76461792 298.27200317 331.06958008 296.90924072 C 332.35452271 295.41610718 333.64501953 293.87258911 334.95614624 292.28112793 C 336.55682373 290.95605469 338.35397339 289.84893799 330.44152832 298.90563965" stroke-width="0.86719471" fill="rgb(125, 203, 166)" opacity="1.0" stroke="rgb(133, 226, 193)" stroke-opacity="0.6903805" stroke-linecap="round" stroke-linejoin="round"/>
    <path d="M 230.80705261 236.27714539 C 230.11451721 235.24343872 229.58283997 234.28218079 229.41326904 233.26588440 C 229.59945679 232.08322144 229.97853088 230.67906189 230.52812195 229.21356201 C 231.40164185 227.71575928 232.56411743 226.20750427 233.86396790 224.58508301 C 235.25918579 222.83221436 236.78201294 221.06939697 238.37603760 219.38362122 C 240.11108398 217.78726196 241.83232117 216.26377869 243.52680969 214.95997620 C 245.18046570 213.90525818 246.74417114 213.35360718 248.10784912 213.09028625 C 249.15524292 213.11322021 249.70747375 213.45503235 249.56695557 213.91755676 C 248.89012146 214.49652100 247.66526794 215.12556458 245.91136169 215.80426025 C 244.10754395 216.97755432 242.23493958 218.67607117 240.28022766 220.91807556 C 237.89471436 223.20916748 234.89860535 225.11097717 230.80705261 236.27714539" stroke-width="1.99544466" fill="rgb(249, 248, 207)" opacity="1.0" stroke="rgb(249, 253, 221)" stroke-opacity="0.8499748" stroke-linecap="round" stroke-linejoin="round"/>
  </g>
</svg>
