<?xml version="1.0" ?>
<svg xmlns="http://www.w3.org/2000/svg" version="1.1" width="512" height="512" viewBox="0 0 512 512">
  <defs/>
  <g>
    <path d="M 550.84375000 303.77462769 C 532.97265625 309.53286743 515.17248535 315.20919800 497.33242798 320.90255737 C 479.47158813 326.54006958 461.54663086 332.09591675 443.55725098 337.47778320 C 425.48083496 342.69226074 407.22857666 347.66281128 388.90859985 352.28085327 C 370.40011597 356.49996948 351.72143555 360.28512573 332.89065552 363.50564575 C 313.89767456 366.11795044 294.73574829 368.08843994 275.46981812 369.30606079 C 256.08639526 369.69580078 236.64068604 369.26300049 217.22012329 367.90466309 C 197.85575867 365.56677246 178.61016846 362.24209595 159.52705383 357.90472412 C 140.76037598 352.50701904 122.39715576 346.04058838 104.48481750 338.45639038 C 87.21540833 329.80078125 70.62667084 319.99758911 54.92872238 309.14379883 C 40.16532898 297.22924805 26.46009064 284.21597290 13.90505314 270.29595947 C 2.55084825 255.43231201 -7.37039042 239.66255188 -15.94246197 223.16426086 C -23.14223289 206.03472900 -28.96400642 188.46011353 -33.35590744 170.47488403 C -36.37300491 152.29684448 -37.99337387 134.02326965 -38.17439270 115.87997437 C -36.95743942 97.94944763 -34.35589600 80.37797546 -30.32749367 63.35008240 C -24.90260506 46.93133163 -18.00474739 31.29393196 -9.66488838 16.57297325 C 0.23280948 2.79464579 11.62481308 -9.88890266 24.47421455 -21.54671288 C 38.61251831 -32.19625473 53.93581772 -41.85848236 70.29090881 -50.66300964 C 87.55314636 -58.64585114 105.64006805 -65.76984406 124.36349487 -72.21012878 C 143.63278198 -77.87556458 163.39460754 -82.83406067 183.41517639 -87.18404388 C 203.64300537 -90.81726074 223.97970581 -93.84226227 244.26394653 -96.22676849 C 264.47967529 -97.93956757 284.43814087 -98.94873810 304.08859253 -99.25862122 C 323.36480713 -98.87065125 342.09689331 -97.64975739 360.31256104 -95.65700531 C 377.85275269 -92.78496552 394.66799927 -89.00718689 410.74832153 -84.28720856 C 425.94165039 -78.61392975 440.22579956 -71.90185547 453.59341431 -64.10447693 C 465.92025757 -55.29032516 477.17684937 -45.39272308 487.42608643 -34.42063141 C 496.58554077 -22.36337280 504.58270264 -9.26862717 511.50128174 4.84781742 C 517.24224854 19.96340370 522.02667236 35.95763016 526.00244141 52.67503357 C 529.30249023 70.05010223 532.09448242 87.91286469 534.45587158 106.15666962 C 536.51940918 124.73107147 538.42877197 143.47633362 540.21887207 162.30213928 C 541.94671631 181.23640442 543.68707275 200.11520386 550.84375000 303.77462769" stroke-width="2.00000000" fill="rgb(135, 210, 214)" opacity="1.0" stroke="rgb(102, 204, 213)" stroke-opacity="0.8530249" stroke-linecap="round" stroke-linejoin="round"/>
    <path d="M 628.67504883 448.14947510 C 614.56628418 456.34191895 600.47137451 464.53698730 586.32366943 472.66912842 C 572.11218262 480.75933838 557.74475098 488.66442871 543.23889160 496.27639771 C 528.40039062 503.58093262 513.28051758 510.45986938 497.70336914 516.78686523 C 481.74075317 522.61712646 465.26516724 527.90838623 448.31851196 532.64172363 C 430.89575195 536.96435547 412.96688843 540.79699707 394.58242798 544.21093750 C 375.72039795 547.19696045 356.40277100 549.78497314 336.67404175 552.00677490 C 316.59939575 553.86138916 296.18063354 555.40441895 275.49218750 556.64886475 C 254.63436890 557.52001953 233.59034729 558.09088135 212.56228638 558.25555420 C 191.52613831 558.02716064 170.66036987 557.37933350 150.00250244 556.17968750 C 129.73536682 554.37750244 109.88217163 551.93658447 90.66611481 548.66217041 C 72.13174438 544.52020264 54.47686768 539.37219238 37.82632446 533.08483887 C 22.26345634 525.55163574 8.01366425 516.64184570 -4.76878214 506.24499512 C -16.08260536 494.38134766 -25.89402008 481.17584229 -34.31070328 466.84027100 C -41.39525223 451.49411011 -47.08247375 435.43048096 -51.46871185 418.84552002 C -54.55255890 401.92254639 -56.30794144 384.78552246 -56.86229706 367.69519043 C -56.10552597 350.91830444 -54.14190674 334.62133789 -50.90650940 319.07904053 C -46.39640427 304.59097290 -40.60008240 291.42095947 -33.50211334 279.79302979 C -25.00155258 270.07116699 -15.16656971 262.46893311 -3.84589529 257.36267090 C 8.97330952 254.95336914 23.23812294 254.58653259 38.79633331 254.94030762 C 55.48639679 255.11445618 73.14984131 255.16378784 91.68355560 255.13168335 C 110.88364410 255.12852478 130.63291931 255.13821411 150.88992310 255.15737915 C 171.43774414 255.22300720 192.14607239 255.25177002 213.06747437 255.17660522 C 233.99368286 255.15625000 254.82832336 255.16920471 275.58523560 255.18156433 C 296.13186646 255.18341064 316.44573975 255.16764832 336.45422363 255.13441467 C 356.14096069 255.13659668 375.48455811 255.13430786 394.41491699 255.18164062 C 412.99731445 255.16777039 431.13415527 255.18736267 448.94616699 255.20314026 C 466.39031982 255.24359131 483.49145508 255.21572876 500.32608032 255.33119202 C 516.88470459 255.73370361 533.22338867 256.45336914 549.40234375 257.48086548 C 565.41784668 258.69970703 581.37396240 260.04934692 597.25781250 261.49484253 C 613.11230469 263.02239990 628.99047852 264.50805664 628.67504883 448.14947510" stroke-width="1.06349277" fill="rgb(71, 149, 200)" opacity="1.0" stroke="rgb(108, 192, 216)" stroke-opacity="1.0" stroke-linecap="round" stroke-linejoin="round"/>
    <path d="M 469.70974731 272.77548218 C 450.57748413 271.91442871 431.54754639 271.72216797 412.82308960 273.50698853 C 394.48443604 276.81622314 376.40798950 281.60256958 358.33016968 285.71160889 C 339.97726440 288.03793335 321.62783813 288.49905396 303.34881592 287.45410156 C 285.28903198 285.21386719 267.72161865 281.26202393 250.39701843 276.63796997 C 233.02633667 273.36520386 215.71986389 271.57019043 198.69189453 270.86325073 C 182.15036011 270.64761353 166.33308411 271.30291748 151.38877869 273.38766479 C 137.42182922 276.16384888 124.57131958 279.13992310 112.89270782 281.88574219 C 102.54723358 284.30935669 93.79532623 286.30990601 86.71801758 287.91802979 C 81.50769043 289.13830566 78.26749420 290.01312256 76.94366455 290.35632324 C 77.60115051 290.15087891 80.29883575 289.57662964 85.06514740 288.58245850 C 91.69567871 287.07104492 100.02599335 285.14175415 110.00622559 282.85195923 C 121.51555634 280.25851440 134.32046509 277.37014771 148.22801208 274.42630005 C 163.02090454 272.07312012 178.83992004 271.30871582 195.52725220 271.52392578 C 212.76783752 271.94830322 230.37139893 273.66638184 248.19960022 276.83276367 C 266.15399170 280.66571045 284.31210327 284.26443481 302.61633301 286.68026733 C 320.85952759 288.09927368 339.05792236 287.52511597 357.05758667 285.07336426 C 374.69143677 281.35494995 392.16021729 276.88696289 409.56298828 273.24822998 C 427.17401123 271.18035889 444.98541260 270.94610596 462.80313110 271.84375000 C 480.69000244 273.22366333 498.45553589 275.63861084 516.17321777 278.50387573 C 534.01611328 281.18960571 551.85162354 283.57147217 469.70974731 272.77548218" stroke-width="2.00000000" fill="rgb(254, 249, 244)" opacity="1.0" stroke="rgb(236, 249, 251)" stroke-opacity="0.9982688" stroke-linecap="round" stroke-linejoin="round"/>
    <path d="M 485.22619629 319.43670654 C 464.71197510 318.56753540 444.12295532 318.29037476 423.50488281 318.65716553 C 402.75714111 319.42346191 381.88989258 320.63357544 360.88891602 321.84490967 C 339.71099854 322.89193726 318.38464355 323.83822632 296.86550903 323.73849487 C 275.17269897 322.77728271 253.35636902 321.06942749 231.43247986 319.20309448 C 209.44236755 318.36416626 187.48483276 318.09054565 165.73139954 318.09396362 C 144.38096619 317.94027710 123.60305786 318.29858398 103.61299133 319.59616089 C 84.53106689 321.56967163 66.73632812 323.62756348 50.31501770 325.12780762 C 35.53347015 325.42361450 22.66390610 325.16680908 12.04955578 324.95526123 C 3.93454289 324.86840820 -1.37269104 324.18341064 -3.60399747 322.73730469 C -2.72903490 321.17141724 1.19069016 320.33609009 8.08101559 320.53265381 C 17.73166847 320.87609863 29.76484871 321.15322876 43.83341217 321.08758545 C 59.63810349 320.18841553 76.86994171 318.54840088 95.33040619 316.68737793 C 114.83844757 315.00711060 135.16909790 313.98977661 156.08923340 313.73080444 C 177.48167419 313.63647461 199.06994629 313.78555298 220.66389465 314.24557495 C 242.15270996 315.65527344 263.46838379 317.45407104 284.49996948 318.95532227 C 305.31951904 319.81805420 325.89407349 319.41986084 346.24343872 318.20565796 C 366.44769287 317.11462402 386.43234253 315.94555664 406.20758057 314.89105225 C 425.82592773 314.05117798 445.30606079 313.82815552 464.64770508 314.25946045 C 483.90563965 314.90322876 503.08947754 316.10748291 522.18933105 318.07714844 C 541.20764160 320.69851685 560.23010254 323.72949219 485.22619629 319.43670654" stroke-width="0.65741962" fill="rgb(243, 250, 251)" opacity="1.0" stroke="rgb(170, 208, 226)" stroke-opacity="0.9870889" stroke-linecap="round" stroke-linejoin="round"/>
    <path d="M 530.39398193 362.49417114 C 509.43350220 360.95379639 488.41802979 359.64038086 467.39898682 358.91079712 C 446.30270386 359.17196655 425.09970093 359.93731689 403.66906738 360.36444092 C 381.94641113 360.80233765 359.92327881 362.35583496 337.34753418 363.56539917 C 314.06240845 363.33163452 290.31484985 362.92086792 266.22479248 362.22305298 C 241.93730164 360.99969482 217.57040405 359.78002930 193.43090820 358.88888550 C 169.58258057 358.42349243 146.23654175 358.38616943 123.63851166 358.79415894 C 102.04497528 359.68038940 81.68741608 360.77859497 62.77293015 361.78149414 C 45.61740875 362.22976685 30.51247597 362.18472290 17.75658417 361.99371338 C 7.71106195 362.06311035 0.72112888 361.69839478 -3.02002263 360.34280396 C -3.23517871 358.67388916 0.04916970 357.59054565 6.86424923 357.47067261 C 16.92890930 357.72375488 29.81753540 357.83770752 45.14680862 357.94958496 C 62.53205490 357.40118408 81.66520691 356.38763428 102.17845154 355.37808228 C 123.77998352 354.65249634 146.25183105 354.34826660 169.19331360 353.93161011 C 192.38377380 353.22940063 215.60517883 353.77651978 238.69816589 356.25186157 C 261.75656128 357.93496704 284.77810669 358.49118042 307.57342529 358.76071167 C 329.94476318 359.38949585 351.93530273 358.85839844 373.52136230 356.99133301 C 394.76721191 356.12365723 415.76751709 355.82656860 436.41152954 355.18795776 C 456.77139282 354.43267822 476.94683838 354.78402710 497.03152466 355.95156860 C 516.98767090 357.14242554 536.96734619 358.30612183 556.93176270 359.44570923 C 576.82025146 360.61999512 596.72918701 361.74563599 530.39398193 362.49417114" stroke-width="0.54333568" fill="rgb(241, 250, 251)" opacity="1.0" stroke="rgb(173, 207, 222)" stroke-opacity="0.9473698" stroke-linecap="round" stroke-linejoin="round"/>
    <path d="M 129.59245300 530.96673584 C 123.24634552 531.52282715 116.91026306 532.13482666 110.64428711 532.65203857 C 104.41928101 533.16101074 98.25431061 533.57769775 92.24932098 533.81591797 C 86.41690826 533.87127686 80.78130341 533.65179443 75.38454437 533.08416748 C 70.27455902 532.14172363 65.68002319 530.71026611 61.50557709 528.74560547 C 57.86998749 526.20635986 54.89911652 522.98870850 52.65727234 519.04089355 C 51.26039886 514.36230469 50.67812347 508.87716675 50.71096039 502.57028198 C 50.78560638 495.50399780 50.76305389 487.72082520 50.74866867 479.30493164 C 50.72831726 470.22106934 50.70477676 460.62060547 50.67009354 450.48370361 C 50.64995575 439.94186401 50.66709518 428.95996094 50.69295502 417.64932251 C 50.65452576 406.02313232 50.64403152 394.19412231 50.64036560 382.07012939 C 50.67856216 369.82290649 50.76199722 357.43890381 50.76000595 344.96621704 C 50.79182816 332.41668701 50.81615067 319.85595703 50.74190903 307.33932495 C 50.47438812 294.91091919 50.32715225 282.59320068 50.61203766 270.45117188 C 50.67783356 258.50833130 50.63345337 246.83067322 50.59964752 235.53456116 C 50.57598877 224.65478516 50.53454590 214.32041931 50.38216400 204.62522888 C 50.00868225 195.67681885 49.82431793 187.58090210 50.71920395 180.41775513 C 53.35654068 174.25025940 57.42889023 169.07000732 62.79872513 164.82872009 C 69.06313324 161.60899353 76.04243469 159.27317810 83.42279053 157.91360474 C 91.00070190 157.54447937 98.46572876 158.08253479 105.62407684 159.54856873 C 112.20690918 162.00360107 118.04038239 165.36059570 122.85494995 169.69981384 C 126.45598602 175.05996704 128.54393005 181.53874207 129.20252991 189.17933655 C 129.16680908 197.93630981 129.07403564 207.61392212 129.08050537 218.03042603 C 129.12606812 228.97070312 129.08718872 240.37408447 129.12683105 252.06625366 C 129.20429993 263.87609863 129.27096558 275.80120850 129.44099426 287.75509644 C 129.49385071 299.62850952 129.48716736 311.42950439 129.53285217 323.08352661 C 129.54071045 334.61410522 129.54554749 345.96182251 129.53353882 357.14041138 C 129.53549194 368.18933105 129.55403137 379.07250977 129.52819824 389.84307861 C 129.52619934 400.43569946 129.57048035 410.97860718 129.59103394 421.39682007 C 129.55392456 431.76113892 129.50219727 442.11752319 129.54895020 452.41635132 C 129.46385193 462.70806885 129.36921692 473.02334595 129.59245300 530.96673584" stroke-width="0.72487932" fill="rgb(253, 253, 252)" opacity="1.0" stroke="rgb(232, 255, 243)" stroke-opacity="0.5691895" stroke-linecap="round" stroke-linejoin="round"/>
    <path d="M 89.30265045 180.44909668 C 84.98101044 180.49577332 80.71474457 180.54191589 76.45102692 180.51423645 C 72.32037354 180.60293579 68.20802307 180.59713745 64.38121796 180.57989502 C 60.78676605 180.55566406 57.50813293 180.59118652 54.62263489 180.65093994 C 52.25388336 180.72927856 50.45508957 180.74076843 49.37757874 180.44367981 C 49.05164719 179.82461548 49.41217804 178.78205872 50.30030823 177.28575134 C 51.59156799 175.21148682 53.21612930 172.74754333 55.26235580 169.91778564 C 57.43115616 166.62884521 59.85402679 163.04895020 62.53785706 159.26739502 C 65.30889130 155.18553162 68.16316223 150.92556763 71.13124847 146.69230652 C 74.10220337 142.45324707 76.93905640 138.32575989 79.57477570 134.37632751 C 82.11727905 130.73089600 84.23912811 127.43179321 85.93212891 124.54357910 C 87.22565460 122.26036835 88.16639709 120.76657867 89.07257843 120.25488281 C 90.02713013 120.93957520 91.02210999 122.54573059 92.42508698 124.76770782 C 94.16997528 127.47306061 96.21950531 130.51785278 98.43654633 133.92419434 C 100.81888580 137.52185059 103.23693085 141.33006287 105.77227020 145.19970703 C 108.35035706 148.97697449 110.86131287 152.66998291 113.33048248 156.25524902 C 115.64224243 159.58406067 117.89162445 162.75842285 119.84622955 165.79028320 C 121.60814667 168.47032166 123.31901550 170.87239075 124.82662964 173.01066589 C 126.15997314 174.80271912 127.29935455 176.31385803 128.22888184 177.67765808 C 128.93843079 178.76522827 129.44410706 179.64314270 129.90702820 180.30035400 C 130.28929138 180.57780457 130.71371460 180.64219666 89.30265045 180.44909668" stroke-width="0.89537519" fill="rgb(249, 11, 13)" opacity="1.0" stroke="rgb(214, 108, 112)" stroke-opacity="0.762675" stroke-linecap="round" stroke-linejoin="round"/>
    <path d="M 218.54206848 399.32366943 C 215.39456177 399.38262939 212.25000000 399.30816650 209.12945557 399.30786133 C 206.08036804 399.38543701 203.01509094 399.41046143 200.07170105 399.40151978 C 197.24130249 399.32482910 194.44886780 399.23010254 191.87100220 399.23590088 C 189.46212769 399.23785400 187.25990295 399.15432739 185.37530518 399.12826538 C 183.79646301 399.30856323 182.63310242 399.17288208 181.78140259 398.34912109 C 181.21122742 396.69165039 180.54646301 394.45504761 179.57192993 391.77944946 C 178.44735718 388.74179077 177.44123840 385.33172607 176.49415588 381.65475464 C 175.46580505 377.75354004 174.51161194 373.71075439 173.73803711 369.64779663 C 173.00685120 365.60809326 172.26214600 361.67382812 171.59809875 357.95391846 C 171.09962463 354.50469971 170.63391113 351.41943359 170.38693237 348.78488159 C 170.12870789 346.70797729 170.00909424 345.19577026 170.47222900 344.33932495 C 171.68998718 344.16488647 173.51307678 344.53292847 175.82614136 345.19128418 C 178.68280029 345.95629883 181.95314026 346.85119629 185.40954590 347.81204224 C 189.02900696 349.01892090 192.83517456 349.82910156 196.72526550 350.33959961 C 200.45201111 351.39828491 204.11538696 352.61181641 207.77709961 353.65884399 C 211.36505127 354.43655396 214.74810791 355.01821899 217.90391541 355.73004150 C 220.75617981 356.29888916 223.29193115 356.53378296 225.48425293 356.62985229 C 227.28990173 356.63235474 228.62376404 356.68121338 229.43025208 356.89138794 C 229.67613220 357.40151978 229.54380798 358.10266113 229.34489441 359.05154419 C 229.52445984 360.27310181 230.03672791 361.62942505 218.54206848 399.32366943" stroke-width="1.14233851" fill="rgb(251, 11, 16)" opacity="1.0" stroke="rgb(183, 60, 78)" stroke-opacity="0.868951" stroke-linecap="round" stroke-linejoin="round"/>
    <path d="M 239.54866028 348.14736938 C 237.52722168 347.38732910 235.55430603 346.63311768 233.42959595 346.04290771 C 231.08178711 345.67639160 228.61204529 345.36395264 226.09376526 344.84649658 C 223.41812134 344.46185303 220.66687012 343.88787842 217.83653259 343.11355591 C 214.96092224 342.33334351 212.06289673 341.50363159 209.18534851 340.74179077 C 206.34204102 340.16867065 203.78779602 339.53125000 201.65632629 338.85559082 C 199.82537842 338.54281616 198.49369812 338.15927124 197.81047058 337.07846069 C 197.71246338 335.11456299 197.84751892 332.43878174 197.88529968 329.15032959 C 197.82173157 325.20733643 197.65200806 320.87173462 197.44869995 316.20520020 C 197.80294800 311.29089355 197.91819763 306.16207886 197.84164429 300.82684326 C 197.82263184 295.50820923 197.73077393 290.16195679 197.76170349 284.98660278 C 197.86425781 279.97875977 197.77845764 275.26589966 197.50183105 270.86679077 C 197.72190857 266.84719849 197.82240295 263.31283569 197.79623413 260.43121338 C 197.70495605 258.21179199 197.55714417 256.68264771 197.69709778 255.95373535 C 198.16471863 256.10964966 198.70867920 257.12036133 199.39591980 258.76657104 C 200.60882568 260.59780884 202.03021240 262.80145264 203.25584412 265.33776855 C 204.35836792 268.17016602 205.44207764 271.22686768 207.00274658 274.25085449 C 209.30996704 277.23614502 211.47492981 280.81182861 213.34388733 284.92019653 C 215.17626953 289.20553589 217.22412109 293.56167603 219.44741821 298.00753784 C 221.57237244 302.50961304 223.43258667 307.03579712 225.20463562 311.52832031 C 226.62060547 316.12417603 228.22265625 320.61843872 239.54866028 348.14736938" stroke-width="2.00000000" fill="rgb(248, 217, 104)" opacity="1.0" stroke="rgb(81, 73, 87)" stroke-opacity="0.6941171" stroke-linecap="round" stroke-linejoin="round"/>
    <path d="M 369.88870239 388.56494141 C 368.96408081 391.59548950 368.04730225 394.64489746 367.03912354 397.62719727 C 366.04071045 400.47753906 365.06668091 403.13690186 364.09710693 405.70462036 C 363.32913208 408.18545532 362.64334106 410.36776733 361.93420410 412.29788208 C 361.41125488 413.95724487 360.90542603 415.23474121 360.17376709 415.97540283 C 359.03942871 416.19235229 357.58825684 416.09710693 355.94198608 416.05087280 C 354.14828491 416.08715820 352.24560547 415.99667358 350.26589966 415.84313965 C 348.38397217 415.86633301 346.58410645 416.03237915 345.00549316 416.14474487 C 343.73464966 416.19497681 342.63931274 415.90667725 341.73376465 415.10198975 C 340.94046021 413.75958252 340.15203857 411.91601562 339.26123047 409.74682617 C 338.30358887 407.25799561 337.33679199 404.56735229 336.41964722 401.71279907 C 335.57382202 398.77905273 334.72235107 395.80187988 333.92437744 392.83776855 C 333.38317871 389.94082642 332.99316406 387.14083862 332.74462891 384.52789307 C 332.59371948 382.10000610 332.42474365 379.94644165 332.25369263 378.07498169 C 332.10324097 376.66275024 332.06036377 375.69854736 332.32217407 375.18612671 C 332.81872559 375.20977783 333.57150269 375.68585205 334.63000488 376.45123291 C 336.04071045 377.28741455 337.59399414 378.22250366 339.27899170 379.20693970 C 341.11633301 380.04473877 343.01663208 380.64114380 345.05023193 380.89868164 C 347.11441040 381.08395386 349.05984497 381.72000122 350.90835571 382.79446411 C 352.95352173 383.59585571 355.14349365 384.17520142 357.44091797 384.84753418 C 359.75155640 385.59164429 362.12536621 386.39666748 369.88870239 388.56494141" stroke-width="1.79456425" fill="rgb(10, 17, 135)" opacity="1.0" stroke="rgb(2, 11, 96)" stroke-opacity="0.95204383" stroke-linecap="round" stroke-linejoin="round"/>
    <path d="M 359.99584961 369.97860718 C 358.52188110 369.12145996 356.94735718 368.53231812 355.37841797 368.16458130 C 353.86376953 367.78677368 352.55065918 367.23056030 351.70248413 366.22637939 C 351.33361816 364.62536621 350.82608032 362.83557129 350.33068848 360.85784912 C 350.78610229 358.69879150 351.44696045 356.20660400 351.52697754 353.28295898 C 351.48526001 349.90283203 351.36343384 346.26995850 351.37179565 342.44262695 C 351.35180664 338.43450928 351.36856079 334.41833496 351.37673950 330.42816162 C 350.98217773 326.61697388 350.58432007 323.02612305 350.39178467 319.66470337 C 350.83483887 316.54602051 351.08666992 313.68609619 351.03189087 311.18194580 C 350.80477905 309.19351196 350.41760254 307.74426270 350.36669922 306.99209595 C 350.84201050 306.96984863 351.64678955 307.70129395 352.44400024 309.14199829 C 353.08383179 311.24154663 354.05999756 313.42102051 355.24865723 315.76879883 C 355.98532104 318.34341431 356.85324097 320.84442139 358.36993408 323.12979126 C 359.96630859 325.69409180 361.20532227 328.59582520 362.32867432 331.74029541 C 363.84222412 334.92312622 365.30545044 338.28176880 366.70150757 341.73419189 C 368.08026123 345.20895386 369.39257812 348.60742188 370.67529297 351.99069214 C 371.78729248 355.24020386 372.82757568 358.37826538 373.66247559 361.22424316 C 374.91775513 363.58944702 376.37207031 365.62817383 377.92318726 367.40612793 C 379.42199707 369.05847168 380.89984131 370.67303467 382.26757812 372.17651367 C 383.53985596 373.71173096 384.66415405 375.29016113 385.76553345 376.72589111 C 387.05416870 378.11804199 388.26281738 379.49780273 359.99584961 369.97860718" stroke-width="2.00000000" fill="rgb(245, 249, 253)" opacity="1.0" stroke="rgb(47, 90, 128)" stroke-opacity="0.8138647" stroke-linecap="round" stroke-linejoin="round"/>
    <path d="M 441.22705078 420.80438232 C 440.79934692 418.91586304 440.21582031 417.20312500 439.59576416 415.55847168 C 438.90518188 413.94949341 438.18722534 412.50787354 437.57180786 411.17446899 C 437.05770874 409.95352173 436.50906372 408.90106201 435.94207764 408.05648804 C 435.66101074 407.38723755 435.64785767 406.80352783 435.83920288 406.41177368 C 436.35543823 406.24728394 437.12808228 406.14694214 438.17092896 406.16567993 C 439.33065796 406.25976562 440.60247803 406.31213379 442.00103760 406.33462524 C 443.43521118 406.31835938 444.85003662 406.06045532 446.21151733 405.80630493 C 447.53558350 405.90454102 448.82598877 406.26522827 450.13775635 406.57806396 C 451.45983887 406.37313843 452.79440308 406.00955200 454.24902344 405.75857544 C 455.72122192 405.74060059 457.17349243 405.73385620 458.50479126 405.68765259 C 459.66735840 405.75640869 460.72589111 405.92401123 461.61657715 406.01318359 C 462.42602539 405.86145020 462.95111084 405.75326538 463.19210815 405.95367432 C 463.18988037 406.37423706 463.02246094 406.95571899 462.68063354 407.72381592 C 462.28799438 408.63449097 461.78890991 409.67648315 461.24365234 410.81707764 C 460.69650269 411.91888428 460.13647461 413.08642578 459.68115234 414.34600830 C 459.19879150 415.54830933 458.64141846 416.56658936 458.22766113 417.52825928 C 457.73968506 418.29461670 457.36444092 419.02874756 457.13635254 419.64370728 C 457.00137329 420.11953735 456.97384644 420.49499512 456.89566040 420.83523560 C 456.63830566 420.94464111 456.27478027 420.95663452 455.85522461 420.95855713 C 455.36596680 420.89306641 454.97857666 420.79589844 441.22705078 420.80438232" stroke-width="1.59094834" fill="rgb(247, 220, 28)" opacity="1.0" stroke="rgb(251, 235, 57)" stroke-opacity="0.78620917" stroke-linecap="round" stroke-linejoin="round"/>
    <path d="M 473.59463501 402.68728638 C 472.29635620 402.34631348 470.88488770 402.19155884 469.46704102 401.90820312 C 468.13720703 401.56591797 466.63528442 401.34472656 464.97631836 401.35150146 C 463.27029419 401.31408691 461.62066650 401.11831665 459.88009644 400.80816650 C 458.19558716 400.64178467 456.62030029 400.66708374 455.16210938 400.60241699 C 453.78332520 400.62316895 452.71911621 400.77041626 452.05380249 400.81793213 C 451.74084473 400.53518677 451.61032104 399.92553711 451.66088867 398.89419556 C 451.70138550 397.48074341 451.80908203 395.77487183 451.70080566 393.72360229 C 451.50338745 391.27932739 451.59490967 388.54132080 451.78634644 385.65133667 C 451.72308350 382.57495117 451.55511475 379.33615112 451.62997437 375.92855835 C 451.81262207 372.61840820 451.79827881 369.39578247 451.55389404 366.25985718 C 451.63528442 363.10140991 451.42813110 360.24591064 450.75961304 357.67028809 C 450.56454468 355.19207764 450.57943726 352.91183472 450.14465332 350.94119263 C 449.15295410 349.30627441 447.89559937 348.04971313 446.68301392 347.08352661 C 446.04544067 346.02868652 446.01620483 345.20526123 446.55789185 344.89062500 C 447.51147461 345.35189819 448.70785522 346.37808228 449.94155884 347.91891479 C 451.26550293 349.61245728 452.49496460 351.32800293 453.27166748 353.07510376 C 453.23986816 354.87136841 453.50054932 356.41284180 454.55715942 357.86758423 C 456.07388306 359.61233521 457.82974243 361.68817139 459.52484131 364.20492554 C 461.16390991 367.13189697 462.63342285 370.36407471 464.16018677 373.57736206 C 465.80938721 376.79440308 467.35272217 379.99569702 473.59463501 402.68728638" stroke-width="2.00000000" fill="rgb(245, 250, 249)" opacity="1.0" stroke="rgb(66, 140, 103)" stroke-opacity="0.69732517" stroke-linecap="round" stroke-linejoin="round"/>
    <path d="M 88.08095551 95.43972778 C 88.33427429 95.74772644 88.45592499 96.00000000 88.58551788 96.29649353 C 88.72639465 96.65419006 88.95384216 96.97993469 89.16780853 97.38314056 C 89.40963745 97.81478119 89.59539795 98.24791718 89.81551361 98.78413391 C 90.06599426 99.35880280 90.30428314 99.98833466 90.33984375 100.68111420 C 90.23957062 101.45668793 90.03906250 102.34366608 89.88707733 103.34578705 C 89.82558441 104.44764709 89.75811768 105.65177917 89.64888763 106.95373535 C 89.62971497 108.35089111 89.66236877 109.81586456 89.71773529 111.36476898 C 89.70418549 112.99975586 89.56027222 114.63561249 89.57572174 116.33611298 C 89.62017059 118.05975342 89.58505249 119.75495911 89.36993408 121.38213348 C 88.72751617 123.02781677 87.82126617 124.62004852 88.08095551 95.43972778" stroke-width="1.55865097" fill="rgb(111, 57, 54)" opacity="1.0" stroke="rgb(255, 184, 177)" stroke-opacity="0.21506815" stroke-linecap="round" stroke-linejoin="round"/>
    <path d="M 90.11317444 95.39811707 C 90.35707855 96.44893646 90.53311920 97.51126099 90.52551270 98.57671356 C 90.29133606 99.62450409 89.85031128 100.59618378 89.38075256 101.51256561 C 88.85677338 102.14443970 88.10730743 102.43512726 87.08269501 102.50656891 C 85.83361053 102.50841522 84.54734039 102.53987122 83.14990997 102.49674988 C 81.75706482 102.41892242 80.30883789 102.35419464 78.90673828 102.40664673 C 77.59520721 102.50983429 76.43231964 102.49385071 75.43985748 102.39704132 C 74.65662384 102.15759277 74.16226196 101.78507233 74.03934479 101.21297455 C 74.17027283 100.33476257 74.31129456 99.23615265 74.37800598 98.08923340 C 74.41930389 97.09028625 74.37273407 96.28781891 74.18747711 95.73953247 C 73.89241028 95.47463989 73.64199066 95.48846436 90.11317444 95.39811707" stroke-width="1.43103325" fill="rgb(203, 44, 43)" opacity="1.0" stroke="rgb(255, 202, 195)" stroke-opacity="0.30527595" stroke-linecap="round" stroke-linejoin="round"/>
    <path d="M 102.60346222 241.08642578 C 100.41139221 241.18003845 98.36218262 241.23492432 96.33103943 241.05752563 C 94.56495667 241.45826721 92.74264526 241.26043701 91.02996063 240.95114136 C 89.31105804 241.22528076 87.64939880 241.32293701 86.00437164 241.05876160 C 84.23173523 241.34996033 82.38737488 241.10554504 80.52088165 241.04255676 C 79.04114532 241.33224487 77.59487152 241.09671021 76.29602814 241.29241943 C 75.20051575 241.18763733 74.36653900 240.80830383 73.83158112 240.16793823 C 73.90941620 238.95594788 73.97335815 237.13865662 74.01035309 234.99090576 C 74.07464600 232.48475647 74.06329346 229.81634521 73.84891510 227.10104370 C 73.94596863 224.35498047 74.01605225 221.61010742 73.87303925 218.91941833 C 73.87130737 216.39071655 73.97164154 214.07862854 73.98630524 211.95368958 C 73.82366180 209.97338867 73.69821930 208.40600586 73.85300446 207.22300720 C 74.46080780 206.52032471 75.30873871 206.32104492 76.52065277 206.55528259 C 78.23448181 206.57046509 80.33677673 206.57810974 82.66889191 206.52185059 C 85.22081757 206.47148132 87.80547333 206.58296204 90.31950378 206.73039246 C 92.74160767 206.67845154 95.04808807 206.40126038 97.13105011 206.57615662 C 99.02984619 206.61264038 100.58695221 206.53373718 101.72485352 206.38510132 C 102.44564819 206.52923584 102.78975677 206.97851562 102.68218994 207.74713135 C 102.50092316 208.59465027 102.62962341 209.59248352 102.57325745 210.68275452 C 102.39202118 212.01519775 102.44412231 213.41371155 102.50173950 214.91929626 C 102.50568390 216.56567383 102.28350067 218.24314880 102.60346222 241.08642578" stroke-width="0.25752586" fill="rgb(65, 81, 115)" opacity="1.0" stroke="rgb(169, 169, 147)" stroke-opacity="0.51440585" stroke-linecap="round" stroke-linejoin="round"/>
    <path d="M 102.27868652 298.24841309 C 100.43385315 298.08908081 98.48826599 298.17507935 96.48868561 298.45953369 C 94.48651123 298.30404663 92.37681580 298.42956543 90.22403717 298.36074829 C 87.98377228 298.12500000 85.78615570 298.25823975 83.65914917 298.40722656 C 81.79894257 298.26943970 80.11664581 298.29980469 78.55852509 298.45480347 C 77.27729034 298.29678345 76.11063385 298.25283813 75.16738892 298.40298462 C 74.28450775 298.31719971 73.73265839 298.12738037 73.67222595 297.55813599 C 73.95186615 296.51028442 73.92267609 295.06637573 74.06401825 293.25332642 C 73.94188690 290.95956421 73.92847443 288.37606812 74.01022339 285.66851807 C 74.00254822 282.86727905 73.88095856 279.99295044 73.94568634 277.16723633 C 73.73493958 274.34121704 73.79924011 271.67614746 74.13323975 269.26300049 C 74.13504791 266.91802979 74.02789307 264.87390137 73.86615753 263.27081299 C 74.31436157 262.45016479 75.59880829 262.31289673 77.39361572 262.26684570 C 79.37957764 262.35357666 81.57627869 262.28652954 83.93280029 262.29382324 C 86.32343292 262.25549316 88.74053955 262.09796143 91.21314240 262.06646729 C 93.63244629 262.07028198 95.86302185 262.24130249 97.72420502 262.39544678 C 99.37583923 262.39312744 100.77831268 262.14184570 101.86548615 262.07202148 C 102.34086609 262.54391479 102.31356049 263.44281006 102.07322693 264.74859619 C 102.42716217 266.34149170 102.42134094 268.18365479 102.12566376 270.24264526 C 102.20850372 272.21832275 102.37912750 274.34939575 102.10608673 276.60510254 C 102.31829834 278.71987915 102.20144653 280.79748535 102.27868652 298.24841309" stroke-width="0.19470340" fill="rgb(63, 84, 113)" opacity="1.0" stroke="rgb(131, 127, 112)" stroke-opacity="0.63494337" stroke-linecap="round" stroke-linejoin="round"/>
    <path d="M 102.39885712 352.32150269 C 101.12736511 352.50515747 99.97673035 352.76824951 98.60829163 352.51013184 C 96.90844727 352.55554199 95.12541199 352.49346924 93.12588501 352.38946533 C 90.82254791 352.41333008 88.47364807 352.54760742 86.29780579 352.42169189 C 84.22834015 352.24841309 82.33464050 352.49948120 80.53905487 352.42626953 C 78.75695038 352.48413086 77.14854431 352.47375488 75.96713257 352.10778809 C 75.07666779 352.29238892 74.36665344 352.46258545 74.20133209 352.16381836 C 73.91172028 351.13217163 73.95157623 349.61846924 74.12049103 347.56100464 C 74.00289917 344.92401123 74.04622650 341.77188110 74.08839417 338.55776978 C 74.16920471 335.45584106 73.93622589 332.46600342 74.27120972 329.53973389 C 74.17533875 326.68804932 74.02140808 324.11587524 73.99102783 322.01849365 C 73.96941376 320.31942749 73.90192413 319.09420776 74.35589600 318.61587524 C 75.08860779 318.76303101 76.38099670 318.82348633 77.97883606 318.54357910 C 79.74365997 318.59695435 81.65111542 318.67367554 83.81008148 318.48535156 C 86.22454834 318.62612915 88.74037933 318.65667725 91.11643219 318.49896240 C 93.68428802 318.51687622 96.05216217 318.63336182 98.01687622 318.58401489 C 99.68660736 318.07348633 101.12194061 318.28454590 102.11725616 318.61709595 C 102.36635590 319.30715942 102.22732544 320.28564453 102.45324707 321.67083740 C 102.29382324 323.09301758 102.40925598 324.58926392 102.57256317 326.18054199 C 102.09733582 327.88104248 102.20774841 329.83737183 102.37294006 331.81246948 C 102.42057800 333.77801514 102.19690704 335.63732910 102.39885712 352.32150269" stroke-width="0.22816311" fill="rgb(65, 81, 114)" opacity="1.0" stroke="rgb(151, 146, 114)" stroke-opacity="0.5535414" stroke-linecap="round" stroke-linejoin="round"/>
    <path d="M 102.23786926 407.98773193 C 99.53873444 407.90695190 96.82875824 408.06597900 94.13262939 407.93835449 C 91.36528778 407.99987793 88.78750610 408.04598999 86.36525726 408.09237671 C 84.24440765 407.88897705 82.29270172 407.76205444 80.55272675 407.99578857 C 79.10662079 408.27810669 77.76232147 408.05709839 76.41938019 407.84982300 C 75.24911499 407.91049194 74.41050720 407.79730225 73.83557129 407.18066406 C 73.85987091 406.02380371 73.85570526 404.55245972 74.09871674 402.79641724 C 74.13066864 400.69775391 74.11869049 398.48776245 74.31082153 396.22113037 C 74.28072357 393.62036133 74.27421570 390.97988892 74.22752380 388.49121094 C 74.24327087 386.04241943 74.17623138 383.71813965 74.41334534 381.58322144 C 74.13105774 379.67822266 74.13162994 377.83728027 74.31578064 376.08700562 C 74.14520264 374.54095459 74.16844177 373.32327271 74.52712250 372.66940308 C 75.31690216 372.57351685 76.60982513 372.60079956 78.25959015 372.56323242 C 79.99650574 372.46075439 81.87482452 372.48355103 84.27111816 372.63247681 C 87.09130096 372.51681519 89.92351532 372.60037231 92.48145294 372.70663452 C 94.88517761 372.56506348 97.19548035 372.63464355 99.19279480 372.66043091 C 100.80962372 372.81951904 101.88505554 372.82452393 102.35614777 372.74343872 C 102.38416290 373.53131104 102.37599945 374.72122192 102.34756470 376.27114868 C 102.40931702 378.32229614 102.29382324 380.77413940 102.34220886 383.40267944 C 102.25772858 386.21710205 102.26604462 388.95623779 102.48244476 391.45529175 C 102.23227692 393.99438477 102.07989502 396.56295776 102.23786926 407.98773193" stroke-width="0.27145571" fill="rgb(65, 82, 119)" opacity="1.0" stroke="rgb(147, 149, 131)" stroke-opacity="0.6605365" stroke-linecap="round" stroke-linejoin="round"/>
    <path d="M 102.52391052 425.93637085 C 102.28581238 427.60028076 102.29907227 429.31756592 102.43811035 431.01336670 C 102.26863861 432.79394531 102.50749969 434.63421631 102.29141235 436.48403931 C 102.26142120 438.50714111 102.25139618 440.45825195 102.30471802 442.45166016 C 102.16999054 444.51858521 102.13935089 446.56445312 102.49751282 448.57290649 C 102.05402374 450.60269165 102.22393036 452.81274414 102.42656708 455.04409790 C 102.23381042 456.89761353 102.34413147 458.50308228 102.53159332 459.81857300 C 101.91931152 460.46237183 100.83249664 460.76977539 99.28373718 460.79843140 C 97.50786591 460.65371704 95.48525238 460.63922119 93.09923553 460.79187012 C 90.52534485 460.68768311 88.07328033 460.82510376 85.52656555 460.74069214 C 82.98698425 460.71932983 80.66138458 460.80801392 78.55424500 460.97824097 C 76.72625732 460.90307617 75.39906311 461.01568604 74.52343750 461.14303589 C 74.12931824 460.32263184 74.07614136 459.17922974 74.18388367 457.78442383 C 74.16021729 456.22134399 73.99106598 454.45767212 74.10063171 452.49557495 C 74.07118988 450.27856445 74.07022858 447.82595825 74.17089081 445.26412964 C 74.20203400 442.68731689 74.07613373 440.14874268 74.15110779 437.68191528 C 74.07001495 435.36911011 74.18221283 433.24310303 74.20940399 431.31427002 C 74.06560516 429.84100342 73.97186279 428.92056274 74.52918243 428.39401245 C 74.53026581 427.95053101 74.18623352 427.65042114 74.09255219 427.27532959 C 74.16926575 426.85641479 74.46559906 426.48358154 74.95986938 426.25030518 C 75.52518463 425.96026611 76.02799988 425.96432495 102.52391052 425.93637085" stroke-width="0.32253876" fill="rgb(64, 83, 114)" opacity="1.0" stroke="rgb(155, 152, 130)" stroke-opacity="0.6846918" stroke-linecap="round" stroke-linejoin="round"/>
    <path d="M 102.24973297 483.76760864 C 102.32250977 485.64862061 102.04893494 487.43911743 102.16460419 489.33840942 C 102.24676514 491.24667358 102.27057648 493.31478882 102.17441559 495.49838257 C 102.21813965 497.57492065 102.27643585 499.57104492 102.14984894 501.59994507 C 102.21491241 503.54714966 101.97732544 505.33627319 102.08844757 507.23098755 C 102.01213074 509.11300659 102.05039215 511.01599121 101.83828735 512.88641357 C 101.31425476 514.62750244 100.58634949 516.28424072 99.60187531 517.80706787 C 98.35680389 519.07128906 96.90325165 520.14941406 95.36805725 521.16192627 C 93.75792694 522.02337646 92.01563263 522.68725586 90.18022156 523.14392090 C 88.32566071 523.37054443 86.46813965 523.40362549 84.67742920 523.26000977 C 82.93579865 522.84637451 81.19718933 522.19769287 79.51035309 521.33679199 C 77.98578644 520.26855469 76.68888855 519.00323486 75.59157562 517.51507568 C 74.78754425 515.82928467 74.26574707 513.89550781 74.04508209 511.78781128 C 74.21314240 509.41653442 74.21154785 506.86093140 74.22550964 504.24325562 C 74.23155212 501.75115967 74.13211060 499.33792114 74.21137238 497.05606079 C 74.37971497 495.07907104 74.30778503 493.35708618 74.11129761 491.73666382 C 74.01605225 490.21463013 74.09907532 488.78762817 74.29550934 487.43710327 C 74.29000092 486.12960815 74.06238556 485.10021973 74.11320496 484.29867554 C 74.45435333 483.94494629 75.12094879 483.76382446 75.86182404 483.66891479 C 76.75802612 483.77075195 77.85997009 483.78518677 79.12313080 483.67916870 C 80.33171844 483.78225708 81.67564392 483.64205933 102.24973297 483.76760864" stroke-width="0.29707599" fill="rgb(67, 90, 127)" opacity="1.0" stroke="rgb(117, 121, 98)" stroke-opacity="0.84105" stroke-linecap="round" stroke-linejoin="round"/>
    <path d="M 121.64737701 80.06356812 C 120.11221313 79.59329987 118.60978699 79.05861664 117.13324738 78.47131348 C 115.68494415 77.80720520 114.28428650 77.06012726 112.97187805 76.16478729 C 111.66345978 75.26303864 110.45825195 74.19873810 109.37874603 72.97403717 C 108.36194611 71.64590454 107.42830658 70.23115540 106.64122772 68.67648315 C 105.97559357 67.01647949 105.43827820 65.23975372 105.02117920 63.35074997 C 104.75007629 61.41139603 104.61653137 59.40872192 104.69944000 57.34329987 C 104.86833191 55.29227829 105.22315216 53.21311188 105.69058990 51.21052170 C 106.40043640 49.25737000 107.19209290 47.42308044 108.15483093 45.71060562 C 109.34616089 44.18872070 110.67539978 42.89486313 112.14947510 41.79220581 C 113.71148682 40.74496078 115.39875793 39.99721146 117.17315674 39.51613998 C 118.98609924 39.18962097 120.85880280 39.08139801 122.71057129 39.17131042 C 124.54046631 39.47666550 126.29232788 40.02795410 127.97827911 40.71447754 C 129.53692627 41.66136169 131.00419617 42.80226898 132.30735779 44.08300400 C 133.52598572 45.53715134 134.54951477 47.17276382 135.46740723 48.84806061 C 136.23860168 50.68700409 136.86843872 52.54159164 137.32804871 54.51422882 C 137.67459106 56.52661896 137.89334106 58.61379242 137.98112488 60.71667480 C 137.94778442 62.88354492 137.85954285 65.05383301 137.66101074 67.25096893 C 137.37292480 69.46584320 137.05242920 71.68773651 136.69308472 73.92111206 C 136.24107361 76.17901611 135.82653809 78.45573425 135.36054993 80.70740509 C 134.89527893 82.98738098 134.44601440 85.23519135 121.64737701 80.06356812" stroke-width="0.80721569" fill="rgb(250, 252, 254)" opacity="1.0" stroke="rgb(224, 246, 240)" stroke-opacity="0.7270069" stroke-linecap="round" stroke-linejoin="round"/>
    <path d="M 132.48526001 85.05577087 C 130.40055847 84.22618866 128.35676575 83.34210205 126.43569183 82.35211182 C 124.64985657 81.15789032 123.03804016 79.72534943 121.68324280 78.11953735 C 120.42187500 76.32392883 119.43064117 74.37631989 118.62375641 72.22853851 C 117.96422577 69.99664307 117.55638123 67.66188049 117.34722137 65.20243073 C 117.32405090 62.69208908 117.52662659 60.17752457 117.95724487 57.57572174 C 118.55189514 54.98747253 119.33187103 52.40266418 120.33572388 49.93039703 C 121.50487518 47.50722122 122.85848999 45.15929794 124.36602020 43.02312851 C 126.05870819 41.04162598 127.82727051 39.24194336 129.80085754 37.74021149 C 131.87760925 36.60343933 134.13990784 35.75506592 136.46464539 35.17766190 C 138.87921143 34.80991364 141.32337952 34.65101242 143.77929688 34.76624680 C 146.20098877 35.20569611 148.58404541 35.86945724 150.83810425 36.66205215 C 153.01570129 37.56641006 154.98321533 38.68616104 156.78718567 39.92095184 C 158.19184875 41.40317917 159.29054260 43.17382050 160.09584045 45.13064575 C 160.73707581 47.21824265 161.25013733 49.46373749 161.53044128 51.80679703 C 161.67124939 54.21723175 161.69186401 56.64048767 161.48831177 59.01880264 C 161.16122437 61.47439957 160.63710022 63.85911560 159.92201233 66.19312286 C 159.06401062 68.43782806 158.02761841 70.61201477 156.81881714 72.72893524 C 155.44833374 74.72701263 153.89042664 76.59759521 152.22189331 78.36104584 C 150.36668396 79.99700165 148.31632996 81.45812988 146.15544128 82.81713867 C 143.91070557 84.22551727 141.68290710 85.57260132 132.48526001 85.05577087" stroke-width="0.85776919" fill="rgb(252, 253, 254)" opacity="1.0" stroke="rgb(246, 255, 250)" stroke-opacity="0.64354074" stroke-linecap="round" stroke-linejoin="round"/>
    <path d="M 91.50532532 76.08947754 C 90.49768066 74.57680511 89.55274963 73.03143311 88.81414795 71.42065430 C 88.23466492 69.71501923 87.80920410 67.96840668 87.52122498 66.12829590 C 87.36751556 64.34499359 87.26315308 62.53240204 87.43019867 60.73662186 C 87.74135590 58.98584366 88.30288696 57.23736572 89.04753876 55.55872345 C 89.95958710 53.99030304 91.01204681 52.51467514 92.20244598 51.12912369 C 93.47035980 49.85995483 94.83401489 48.78305435 96.34052277 47.91424179 C 97.89482880 47.22169113 99.52874756 46.71087265 101.17311859 46.35740280 C 102.79473877 46.23129654 104.46070862 46.35313797 106.11668396 46.72264481 C 107.77019501 47.28740311 109.40467834 47.99480057 111.06243134 48.83847427 C 112.64886475 49.87885666 114.16191101 51.02962875 115.63874054 52.29990387 C 117.00508118 53.62981796 118.28020477 55.11219406 119.43534088 56.69790649 C 120.47231293 58.33650970 121.36944580 60.01493073 122.13830566 61.77155685 C 122.74881744 63.58566284 123.17926788 65.35482788 123.45623779 67.16918182 C 123.62082672 68.94283295 123.52289581 70.70419312 123.30821228 72.42889404 C 122.93792725 74.06819153 122.33638000 75.64883423 121.60823822 77.08546448 C 120.69371033 78.44306183 119.57266235 79.67066956 118.29952240 80.70089722 C 116.87293243 81.60069275 115.28390503 82.33893585 113.62876892 82.97370911 C 111.83245850 83.43434906 110.03173065 83.76227570 108.10630035 83.92919159 C 106.16999054 83.90418243 104.10540009 83.63928986 102.04122925 83.23326111 C 99.93777466 82.80635834 97.77544403 82.33531952 91.50532532 76.08947754" stroke-width="0.76119697" fill="rgb(252, 253, 253)" opacity="1.0" stroke="rgb(249, 255, 250)" stroke-opacity="0.6070019" stroke-linecap="round" stroke-linejoin="round"/>
    <path d="M 145.84423828 79.82135010 C 145.54536438 78.38973999 145.22346497 76.98423767 144.96723938 75.50675964 C 144.70773315 74.06013489 144.49388123 72.53645325 144.33679199 71.08106995 C 144.29016113 69.53911591 144.24496460 68.01349640 144.33801270 66.42775726 C 144.53744507 64.87563324 144.82633972 63.28201675 145.25360107 61.73575974 C 145.80104065 60.11353683 146.49316406 58.55771637 147.26760864 57.00740433 C 148.25442505 55.50645828 149.31901550 54.05865097 150.50924683 52.66521454 C 151.83679199 51.32533646 153.26374817 50.09273148 154.73590088 48.99649048 C 156.35974121 47.99452209 158.02354431 47.11812592 159.69454956 46.46775436 C 161.44110107 45.92131042 163.19665527 45.64646149 164.94790649 45.59088516 C 166.70729065 45.77143097 168.41552734 46.20888138 170.09037781 46.79143524 C 171.67292786 47.65717316 173.21823120 48.74704742 174.61709595 50.09128571 C 175.84117126 51.61460114 177.06488037 53.27708817 178.11207581 55.00091934 C 178.99168396 56.80592728 179.62828064 58.73429108 180.13500977 60.65604019 C 180.45941162 62.60134506 180.56170654 64.55873871 180.46185303 66.52098846 C 180.17251587 68.47973633 179.66127014 70.35245514 179.01028442 72.20107269 C 178.24591064 74.01045227 177.35401917 75.73039246 176.36891174 77.33304596 C 175.15626526 78.74133301 173.78080750 80.03589630 172.26690674 81.20395660 C 170.67570496 82.25038147 168.96208191 83.13794708 167.10472107 83.72589111 C 165.14163208 84.10240936 163.07234192 84.31449127 160.89434814 84.37745667 C 158.68797302 84.44769287 156.47692871 84.63574219 145.84423828 79.82135010" stroke-width="0.76816744" fill="rgb(252, 254, 253)" opacity="1.0" stroke="rgb(251, 255, 253)" stroke-opacity="0.6282669" stroke-linecap="round" stroke-linejoin="round"/>
    <path d="M 277.71224976 114.84052277 C 275.71633911 114.34938049 273.77453613 113.82453156 271.84533691 113.17306519 C 270.04501343 112.33305359 268.31692505 111.29814911 266.71463013 110.19838715 C 265.15936279 108.88459778 263.73123169 107.48654938 262.46151733 105.87319946 C 261.28457642 104.16191864 260.28106689 102.32771301 259.39065552 100.32630920 C 258.64093018 98.23836517 258.07656860 96.06385803 257.64297485 93.79753876 C 257.40264893 91.44696045 257.30426025 89.05024719 257.42660522 86.64194489 C 257.68161011 84.19316864 258.12796021 81.79658508 258.73269653 79.43962097 C 259.51586914 77.12586975 260.49685669 74.98071289 261.63616943 72.94235992 C 262.93173218 71.08549500 264.42233276 69.47317505 266.16363525 68.13518524 C 268.05813599 67.00713348 270.04696655 66.19867706 272.19924927 65.62283325 C 274.35000610 65.25788879 276.54415894 65.11512756 278.67849731 65.16441345 C 280.78567505 65.42105865 282.78884888 65.99377441 284.65237427 66.92526245 C 286.44375610 68.17118073 288.10678101 69.61608124 289.69308472 71.28295898 C 291.20358276 73.04180145 292.48815918 74.98151398 293.70660400 76.97650146 C 294.72857666 79.04800415 295.56704712 81.17922974 296.21789551 83.31866455 C 296.72857666 85.49638367 297.02401733 87.69643402 297.14401245 89.88446808 C 297.15008545 92.05450439 296.90454102 94.20796967 296.56875610 96.38394928 C 296.07064819 98.50327301 295.44815063 100.59134674 294.71829224 102.73607635 C 293.96563721 104.82533264 293.05245972 106.94642639 292.15777588 109.08391571 C 291.26229858 111.19355774 290.28146362 113.36091614 277.71224976 114.84052277" stroke-width="0.77275491" fill="rgb(252, 252, 252)" opacity="1.0" stroke="rgb(208, 239, 240)" stroke-opacity="0.8585166" stroke-linecap="round" stroke-linejoin="round"/>
    <path d="M 291.17565918 116.98338318 C 289.28320312 115.06823730 287.40408325 113.08576965 285.77490234 110.94972992 C 284.34915161 108.64575195 283.13754272 106.19704437 282.13378906 103.63146210 C 281.32797241 100.96427917 280.75335693 98.23039246 280.35836792 95.41850281 C 280.13403320 92.53006744 280.12240601 89.67145538 280.31591797 86.76165009 C 280.67065430 83.86883545 281.24920654 81.04740143 281.93295288 78.22492218 C 282.89141846 75.52425385 283.96432495 72.92650604 285.18307495 70.46518707 C 286.56494141 68.10666656 288.18408203 66.04150391 289.91564941 64.19244385 C 291.95040894 62.64656448 294.18853760 61.39657593 296.64822388 60.47205734 C 299.23199463 59.74970627 301.88265991 59.27728653 304.64239502 59.06218338 C 307.38339233 59.07431030 310.10049438 59.46240234 312.78555298 60.22129059 C 315.38116455 61.26860046 317.91088867 62.59365845 320.25808716 64.12397766 C 322.35455322 65.97660065 324.04440308 68.16050720 325.47198486 70.58601379 C 326.61404419 73.19496918 327.48764038 76.04887390 328.05624390 78.96016693 C 328.38238525 82.00086975 328.45782471 85.09403229 328.28298950 88.21509552 C 327.90582275 91.33096313 327.38281250 94.36836243 326.56610107 97.39707184 C 325.59921265 100.29290771 324.48992920 103.14737701 323.19552612 105.82649231 C 321.76818848 108.36389160 320.21176147 110.74778748 318.56893921 112.93635559 C 316.77078247 114.94087982 314.92523193 116.68686676 312.90057373 118.17140961 C 310.76266479 119.32823944 308.44595337 120.05054474 305.89089966 120.52945709 C 303.29681396 120.97257996 300.60586548 121.42371368 291.17565918 116.98338318" stroke-width="0.79372126" fill="rgb(252, 254, 254)" opacity="1.0" stroke="rgb(250, 255, 248)" stroke-opacity="0.5557173" stroke-linecap="round" stroke-linejoin="round"/>
    <path d="M 258.49285889 117.37422943 C 256.75405884 117.09619904 255.01626587 116.72693634 253.34111023 116.21111298 C 251.64381409 115.56151581 249.99098206 114.76045227 248.40429688 113.77525330 C 246.90008545 112.71142578 245.47303772 111.43472290 244.07196045 110.06278229 C 242.81471252 108.52198792 241.70022583 106.83776855 240.71037292 105.00840759 C 239.81156921 103.13685608 239.04640198 101.14501953 238.49987793 99.01093292 C 238.16622925 96.87917328 238.00393677 94.70771027 238.04988098 92.46381378 C 238.23760986 90.26628876 238.66308594 88.10390472 239.37545776 86.02561951 C 240.27972412 84.01181030 241.44659424 82.13283539 242.80770874 80.32514954 C 244.33290100 78.68313599 245.91395569 77.16355896 247.64901733 75.90725708 C 249.53289795 74.80081177 251.47796631 73.97468567 253.48571777 73.41838074 C 255.53962708 73.11865234 257.63983154 73.17658234 259.72000122 73.42861938 C 261.78488159 73.87565613 263.79653931 74.56053162 265.76858521 75.44470978 C 267.61889648 76.50251007 269.34341431 77.66130829 270.99877930 78.98779297 C 272.47738647 80.47375488 273.79589844 82.01667786 274.99050903 83.63188934 C 275.98052979 85.33889771 276.76818848 87.13462067 277.42153931 88.92662811 C 277.86322021 90.78867340 278.11694336 92.72229767 278.17779541 94.62731934 C 278.09460449 96.58070374 277.77795410 98.54855347 277.34710693 100.53171539 C 276.74948120 102.53421021 276.03634644 104.55854797 275.17956543 106.59045410 C 274.20529175 108.66519928 273.14251709 110.76354218 271.95761108 112.87773895 C 270.75393677 115.07755280 269.46643066 117.29109955 258.49285889 117.37422943" stroke-width="0.73519802" fill="rgb(251, 253, 253)" opacity="1.0" stroke="rgb(251, 255, 250)" stroke-opacity="0.62498873" stroke-linecap="round" stroke-linejoin="round"/>
    <path d="M 341.73907471 113.13444519 C 340.03359985 114.55934906 338.27203369 115.85966492 336.39581299 116.90280914 C 334.40914917 117.71385956 332.38894653 118.30116272 330.29257202 118.60762024 C 328.19799805 118.69418335 326.11126709 118.57968903 323.99676514 118.18630219 C 321.91131592 117.64824677 319.91293335 116.95838165 317.98785400 116.08182526 C 316.22537231 114.96197510 314.55557251 113.70199585 313.07437134 112.25653839 C 311.79006958 110.61444855 310.66278076 108.89081573 309.70181274 107.02231598 C 308.94448853 105.05898285 308.42086792 102.98830414 308.07077026 100.87812805 C 307.91213989 98.72301483 307.98239136 96.54538727 308.20178223 94.38259888 C 308.66690063 92.18655396 309.37466431 89.98793793 310.23379517 87.92689514 C 311.28134155 85.90872192 312.48751831 83.91847229 313.91308594 82.06448364 C 315.48989868 80.33258057 317.17260742 78.78402710 318.98846436 77.33105469 C 320.92581177 76.03526306 322.90780640 75.00217438 325.02725220 74.16136169 C 327.08990479 73.54958344 329.23263550 73.20262146 331.33901978 73.10767365 C 333.38449097 73.35773468 335.35180664 73.87634277 337.25750732 74.67626953 C 339.04202271 75.69856262 340.64349365 77.00890350 342.19540405 78.53751373 C 343.65347290 80.12115479 344.98251343 81.87394714 346.14175415 83.83638763 C 347.04907227 85.87402344 347.80480957 87.99438477 348.46032715 90.12877655 C 348.86779785 92.29553223 349.06686401 94.45844269 349.01855469 96.60494232 C 348.75051880 98.79325867 348.30273438 100.94026184 347.61907959 103.04454041 C 346.88885498 105.20750427 346.19152832 107.34220886 341.73907471 113.13444519" stroke-width="0.95950580" fill="rgb(252, 253, 254)" opacity="1.0" stroke="rgb(249, 255, 255)" stroke-opacity="0.71481097" stroke-linecap="round" stroke-linejoin="round"/>
    <path d="M 447.84024048 44.44186020 C 446.76071167 45.79657745 445.72787476 47.20130157 444.65185547 48.56371307 C 443.59011841 49.92847443 442.52319336 51.28087997 441.40710449 52.59278870 C 440.31646729 53.87732697 439.16101074 55.09380341 437.98522949 56.22514343 C 436.78637695 57.35058975 435.52499390 58.33135605 434.24154663 59.22386932 C 432.90454102 59.97657394 431.51528931 60.65696716 430.08746338 61.14851761 C 428.63558960 61.52093124 427.15530396 61.72643661 425.61093140 61.78537750 C 424.09170532 61.64976501 422.57272339 61.40332413 421.03332520 60.92304230 C 419.52368164 60.31912231 418.06124878 59.55326462 416.63018799 58.58781815 C 415.25836182 57.51755524 413.97732544 56.27835083 412.73950195 54.89249420 C 411.61865234 53.40881348 410.62448120 51.84300613 409.71520996 50.16722488 C 408.93624878 48.37546539 408.29437256 46.58101273 407.79556274 44.74667358 C 407.46002197 42.84315491 407.23562622 40.97468185 407.17550659 39.14031982 C 407.28512573 37.32740021 407.52566528 35.55503845 407.97595215 33.92224884 C 408.56546021 32.36900711 409.43978882 30.98223114 410.56475830 29.76074219 C 411.92028809 28.60764694 413.42919922 27.57317924 415.12222290 26.69137573 C 416.93789673 25.94999504 418.82769775 25.31478310 420.78915405 24.84593582 C 422.80081177 24.64971733 424.85443115 24.65513992 426.90261841 24.84067726 C 428.97531128 25.26971626 431.08288574 25.79070091 433.15960693 26.37363434 C 435.31536865 26.97884941 437.45294189 27.63667488 439.60293579 28.25204659 C 441.80410767 28.90733719 443.89636230 29.54099846 447.84024048 44.44186020" stroke-width="0.71141535" fill="rgb(252, 253, 254)" opacity="1.0" stroke="rgb(220, 247, 242)" stroke-opacity="0.6952778" stroke-linecap="round" stroke-linejoin="round"/>
    <path d="M 462.73742676 66.90288544 C 460.29779053 67.93342590 457.89208984 68.98163605 455.51196289 69.99301910 C 453.09838867 71.04047394 450.71020508 72.07330322 448.37390137 73.03525543 C 446.10415649 73.96837616 443.77496338 74.71902466 441.42852783 75.17002869 C 439.08993530 75.33840179 436.76864624 75.36149597 434.48025513 75.16609192 C 432.25820923 74.85476685 430.15768433 74.26664734 428.09472656 73.48161316 C 426.11566162 72.53802490 424.27502441 71.50216675 422.55847168 70.27735901 C 421.03945923 68.78459930 419.78936768 67.10192871 418.70104980 65.25018311 C 417.84194946 63.19313049 417.19076538 60.99146652 416.73159790 58.72882843 C 416.48672485 56.29437637 416.46691895 53.82661057 416.68637085 51.29317093 C 417.03900146 48.77796555 417.64016724 46.20986938 418.43750000 43.68094635 C 419.36938477 41.17429733 420.54421997 38.79028702 421.83657837 36.45684433 C 423.27896118 34.26022720 424.92312622 32.24289322 426.62347412 30.32601929 C 428.46197510 28.58934975 430.29470825 27.02565765 432.26654053 25.73114586 C 434.23043823 24.73975945 436.26910400 24.14665222 438.45538330 23.93066025 C 440.66027832 23.94978333 442.87554932 24.17382240 445.10287476 24.57494736 C 447.23626709 25.29591751 449.22460938 26.26001930 451.16894531 27.36712646 C 452.91122437 28.75440407 454.38992310 30.40159225 455.75091553 32.30708313 C 457.08108521 34.29689407 458.40805054 36.34701157 459.73861694 38.48522949 C 461.02096558 40.68455887 462.37280273 42.87694550 463.65139771 45.07419586 C 464.97613525 47.31228256 466.28179932 49.52766418 462.73742676 66.90288544" stroke-width="0.78003657" fill="rgb(251, 253, 251)" opacity="1.0" stroke="rgb(246, 255, 249)" stroke-opacity="0.65563494" stroke-linecap="round" stroke-linejoin="round"/>
    <path d="M 430.95965576 50.96284103 C 430.36895752 52.82673645 429.78710938 54.75007248 429.17642212 56.66448593 C 428.60128784 58.52474213 427.92611694 60.35384369 427.23336792 62.17697144 C 426.47802734 63.85240936 425.62640381 65.47930145 424.66845703 67.03714752 C 423.61264038 68.44275665 422.43716431 69.75163269 421.10726929 70.89678192 C 419.59179688 71.82660675 417.94924927 72.54253387 416.17742920 73.21327209 C 414.37075806 73.84992218 412.43878174 74.35248566 410.48431396 74.63758087 C 408.40161133 74.76392365 406.36245728 74.73590851 404.22857666 74.53012085 C 402.14245605 74.19277954 400.05575562 73.70926666 398.10989380 73.04363251 C 396.20776367 72.10294342 394.50933838 70.97637177 392.86514282 69.63854980 C 391.38632202 68.17244720 389.96545410 66.66234589 388.72579956 64.96485901 C 387.57559204 63.18347168 386.67620850 61.32835770 385.96688843 59.36300278 C 385.49816895 57.34641266 385.32281494 55.29430008 385.23117065 53.22378540 C 385.34100342 51.18305969 385.65890503 49.20058441 386.21676636 47.29538727 C 387.08746338 45.50172806 388.20397949 43.84237671 389.38183594 42.22168732 C 390.77767944 40.71525192 392.26217651 39.31040573 393.85964966 37.99216080 C 395.48483276 36.84895706 397.29092407 35.92878723 399.18811035 35.30507278 C 401.20672607 34.86701965 403.32910156 34.60709000 405.46832275 34.44442749 C 407.70654297 34.32997131 409.97781372 34.27540588 412.26281738 34.31111908 C 414.60784912 34.26116562 416.92391968 34.32481003 419.28329468 34.29069519 C 421.64392090 34.33404160 423.97576904 34.33456802 430.95965576 50.96284103" stroke-width="0.83152771" fill="rgb(252, 253, 253)" opacity="1.0" stroke="rgb(251, 255, 252)" stroke-opacity="0.5653304" stroke-linecap="round" stroke-linejoin="round"/>
    <path d="M 470.00158691 34.71956635 C 472.15939331 35.88594437 474.25030518 37.15314484 476.16232300 38.58412552 C 477.84329224 40.15745163 479.29434204 41.85085297 480.54769897 43.73259735 C 481.55911255 45.66909790 482.32400513 47.68580246 482.91513062 49.77887344 C 483.31451416 51.91040039 483.49725342 54.08432007 483.50241089 56.27575684 C 483.30841064 58.46786499 482.90112305 60.62068558 482.36010742 62.74062729 C 481.64501953 64.79685974 480.76019287 66.71528625 479.63534546 68.52362061 C 478.35363770 70.16940308 476.92553711 71.66027069 475.29537964 72.92579651 C 473.49237061 74.02583313 471.55862427 74.87302399 469.53430176 75.52575684 C 467.40063477 76.00168610 465.23449707 76.26669312 463.03323364 76.40003967 C 460.85928345 76.38692474 458.74194336 76.15660095 456.71057129 75.71131897 C 454.70779419 75.04536438 452.86364746 74.15171814 451.18209839 73.00701904 C 449.56460571 71.62889099 448.08172607 70.15383148 446.75659180 68.55774689 C 445.60751343 66.80369568 444.59667969 65.02543640 443.74224854 63.18271255 C 443.09307861 61.28762817 442.62011719 59.40863419 442.34420776 57.55673218 C 442.26785278 55.64853287 442.34555054 53.85546875 442.61511230 52.05624008 C 443.07409668 50.33582306 443.69842529 48.65716553 444.47817993 47.06673431 C 445.42657471 45.53893280 446.47674561 44.06745148 447.72921753 42.68875885 C 449.05606079 41.36296082 450.51412964 40.08892059 452.06909180 38.81872940 C 453.69656372 37.60435486 455.42187500 36.43374252 457.19729614 35.23070526 C 458.99862671 34.03286743 460.85601807 32.80192184 470.00158691 34.71956635" stroke-width="0.83082765" fill="rgb(252, 253, 254)" opacity="1.0" stroke="rgb(248, 255, 249)" stroke-opacity="0.58507043" stroke-linecap="round" stroke-linejoin="round"/>
  </g>
</svg>
