<?xml version="1.0" ?>
<svg xmlns="http://www.w3.org/2000/svg" version="1.1" width="512" height="512" viewBox="0 0 512 512">
  <defs/>
  <g>
    <path d="M 541.11212158 516.77136230 C 524.20385742 520.14111328 507.30944824 523.50750732 490.39901733 526.89373779 C 473.43359375 530.26635742 456.46163940 533.62237549 439.39486694 536.95794678 C 422.22332764 540.25811768 404.97857666 543.51983643 387.56912231 546.69744873 C 369.99188232 549.78515625 352.22277832 552.74255371 334.26745605 555.57476807 C 316.12243652 558.23065186 297.74380493 560.68292236 279.13778687 562.82470703 C 260.36328125 564.69268799 241.46493530 566.19470215 222.42604065 567.26019287 C 203.31918335 567.85833740 184.18096924 567.89422607 165.12493896 567.37017822 C 146.23667908 566.21234131 127.58115387 564.31097412 109.28260803 561.62481689 C 91.46463013 558.08587646 74.25005341 553.63897705 57.82767868 548.20306396 C 42.36417389 541.76013184 28.03408623 534.23950195 14.93721771 525.56420898 C 3.29785848 515.71093750 -6.70452976 504.66647339 -15.06238842 492.57266235 C -21.79533195 479.58261108 -26.91773033 465.90072632 -30.44532204 451.72033691 C -32.43480682 437.24496460 -32.92497253 422.72119141 -32.00307846 408.33920288 C -29.60962868 394.30105591 -25.79589081 380.84140015 -20.55508804 368.15240479 C -13.90384960 356.37222290 -5.88930845 345.69509888 3.49203324 336.33200073 C 14.16764164 328.45062256 25.98333549 321.93154907 38.86449051 316.75808716 C 52.64764023 312.77212524 67.25280762 309.92233276 82.56452942 308.14947510 C 98.35995483 307.42526245 114.63823700 307.70562744 131.33656311 308.94110107 C 148.40403748 310.91931152 165.70690918 313.40304565 183.15200806 316.34616089 C 200.73745728 319.77639771 218.44992065 323.50823975 236.23123169 327.24624634 C 254.07048035 330.76919556 271.90365601 333.88824463 289.72866821 336.34423828 C 307.59097290 338.00329590 325.39080811 338.89566040 343.07333374 338.91320801 C 360.59469604 338.79739380 377.88513184 338.97674561 394.85543823 338.95080566 C 411.43087769 338.93768311 427.53121948 338.97872925 443.03060913 338.90380859 C 457.84588623 338.84082031 471.92996216 338.80297852 485.25579834 339.20892334 C 497.69332886 339.10202026 509.23672485 339.05795288 519.89379883 340.53079224 C 529.75799561 343.79376221 538.91528320 348.58224487 547.42730713 354.72726440 C 555.46099854 361.93997192 563.12451172 369.99475098 570.45971680 378.62561035 C 577.55371094 387.80679321 584.50274658 397.30499268 591.37902832 406.95770264 C 598.20989990 416.72665405 605.00683594 426.55032349 541.11212158 516.77136230" stroke-width="1.00520015" fill="rgb(107, 196, 227)" opacity="1.0" stroke="rgb(11, 202, 237)" stroke-opacity="0.1686025" stroke-linecap="round" stroke-linejoin="round"/>
    <path d="M 91.35069275 320.79888916 C 84.57527161 322.53521729 77.81283569 324.27804565 71.10482025 326.02185059 C 64.41667175 327.79400635 57.74158096 329.53784180 51.14013672 331.20764160 C 44.63531113 332.74813843 38.24024200 334.08932495 32.00096512 335.25442505 C 25.97671127 336.30361938 20.22803879 337.14587402 14.78896427 337.79483032 C 9.77750778 338.40310669 5.29989815 338.86801147 1.32544255 338.73489380 C -2.21691871 337.40597534 -5.30887032 335.02813721 -7.89434004 331.76287842 C -10.01370049 327.74383545 -11.68036366 323.07543945 -12.90661335 317.74374390 C -13.71925735 311.86907959 -14.17869091 305.57205200 -14.31281376 298.91372681 C -14.14362049 291.93051147 -13.67142677 284.61077881 -12.96078205 277.02536011 C -12.00310516 269.23162842 -10.83870602 261.25701904 -9.50625706 253.14176941 C -8.01980305 244.92460632 -6.38257599 236.59115601 -4.71982574 228.21063232 C -3.00970149 219.80197144 -1.27847075 211.37847900 0.40561911 202.85726929 C 1.98263729 194.37049866 3.66263056 185.96499634 5.52161169 177.65577698 C 7.41783762 169.46928406 9.12403107 161.45921326 10.86894417 153.67759705 C 12.74872208 146.25518799 14.35555935 139.13201904 15.69831562 132.44268799 C 16.98985100 126.29011536 18.37010384 120.77853394 19.66504860 115.97961426 C 20.55350876 111.80699158 21.19043541 108.43398285 21.77096176 106.02681732 C 22.52726173 104.76382446 23.53049088 104.68695068 24.76534653 105.76043701 C 26.15450096 107.98436737 27.90961456 111.16222382 30.08821106 115.12995911 C 32.38411331 119.86325073 35.06451416 125.05564117 38.05112839 130.71418762 C 41.49785995 136.65744019 44.86245728 143.04965210 48.09481049 149.86480713 C 51.38191605 156.88766479 54.73121643 163.99333191 58.14504242 171.22265625 C 61.71442413 178.43061829 65.33726501 185.54470825 68.72865295 192.72338867 C 72.09343719 199.80851746 75.51603699 206.76202393 78.99883270 213.46374512 C 82.51723480 220.07861328 85.89299011 226.57322693 89.18022919 232.90795898 C 92.45119476 239.19157410 95.59893036 245.28442383 98.86389923 251.22589111 C 102.16828156 257.02398682 105.37676239 262.69729614 108.51465607 268.37905884 C 111.60994720 273.98211670 114.56990814 279.58642578 117.55745697 285.09991455 C 120.55564117 290.57351685 123.54113770 296.06069946 126.52354431 301.50640869 C 129.50198364 306.96350098 132.48086548 312.40588379 91.35069275 320.79888916" stroke-width="1.84177566" fill="rgb(199, 238, 240)" opacity="1.0" stroke="rgb(191, 237, 236)" stroke-opacity="0.06413373" stroke-linecap="round" stroke-linejoin="round"/>
    <path d="M 108.25473785 337.65188599 C 101.36204529 337.83599854 94.48326111 337.92526245 87.59893036 337.82131958 C 80.75687408 337.92770386 73.95824432 338.21878052 67.12329102 338.13345337 C 60.31153870 338.13284302 53.56483078 338.08627319 46.89857864 338.12258911 C 40.37642288 338.08285522 34.02809143 338.04153442 27.90509033 338.12713623 C 22.08465576 338.09442139 16.65989876 338.06716919 11.66952705 338.09149170 C 7.27639103 338.06094360 3.54515791 337.79394531 0.61311924 336.91043091 C -1.51652884 334.89468384 -2.86006665 331.88192749 -3.53831530 328.01855469 C -3.62786674 323.48300171 -3.26084709 318.42086792 -2.43485236 312.83950806 C -1.29928160 306.91213989 0.07818374 300.64743042 1.70837152 294.10791016 C 3.50914454 287.33398438 5.34670734 280.40066528 7.16341734 273.32733154 C 8.97522354 266.12197876 10.76070118 258.79348755 12.44946480 251.45452881 C 14.07204533 244.09307861 15.60830784 236.71804810 17.04103470 229.36543274 C 18.46220207 222.08161926 19.87577629 214.89714050 21.35984230 207.72706604 C 22.84123993 200.66952515 24.33240318 193.78858948 25.78308678 187.09288025 C 27.22123718 180.61758423 28.52723694 174.33535767 29.68726158 168.28245544 C 30.76280022 162.47822571 31.70744896 156.98292542 32.64095306 151.88720703 C 33.47554016 147.24768066 34.32734680 143.28517151 35.20022202 140.17308044 C 36.25305176 138.13610840 37.59319305 137.28079224 39.21996307 137.72972107 C 41.12095261 139.35813904 43.16093826 141.91622925 45.30317688 145.25683594 C 47.47459793 149.26776123 49.64800644 153.81063843 51.86918640 158.68150330 C 54.16767883 163.81060791 56.37838364 169.21429443 58.46356964 174.93977356 C 60.61913681 180.81246948 62.90772247 186.79331970 65.32099152 192.85017395 C 67.77721405 198.95014954 70.25709534 205.11210632 72.79033661 211.29704285 C 75.36283112 217.46984863 77.92344666 223.60398865 80.46998596 229.71153259 C 83.02710724 235.73594666 85.76155090 241.65588379 88.55947876 247.50428772 C 91.26927185 253.32405090 93.75532532 259.18005371 96.02989960 265.08132935 C 98.15512085 270.96914673 100.30536652 276.81732178 102.47550964 282.62545776 C 104.74578857 288.34533691 106.96136475 294.04394531 109.09600830 299.76193237 C 111.15316772 305.50253296 113.20243073 311.21456909 115.21849823 316.92114258 C 117.19350433 322.63604736 119.25918579 328.33764648 108.25473785 337.65188599" stroke-width="0.92053318" fill="rgb(217, 244, 249)" opacity="1.0" stroke="rgb(219, 250, 252)" stroke-opacity="0.7131682" stroke-linecap="round" stroke-linejoin="round"/>
    <path d="M 236.95410156 339.24810791 C 228.74543762 338.92910767 220.48132324 338.58966064 212.22004700 338.30041504 C 203.98316956 338.12133789 195.74523926 338.10546875 187.47113037 338.01962280 C 179.21034241 338.01092529 170.95135498 338.07632446 162.71118164 338.26101685 C 154.54574585 338.62265015 146.45669556 338.90274048 138.48080444 338.86492920 C 130.65388489 338.62948608 123.04911041 338.71487427 115.77242279 338.76147461 C 108.92195892 338.63793945 102.57495880 338.38821411 96.83303070 338.25592041 C 91.85278320 338.13146973 87.79473114 337.88888550 84.96418762 337.26568604 C 83.71849823 336.04275513 84.06716919 334.06884766 85.56076813 331.24108887 C 87.72209930 327.53295898 90.34741211 323.00762939 93.26108551 317.68356323 C 96.37620544 311.66610718 99.78997803 305.09808350 103.45819855 298.02365112 C 107.32486725 290.61364746 111.52109528 282.98712158 115.93327332 275.20242310 C 120.28903198 267.11340332 124.67067719 258.92864990 129.17764282 250.81448364 C 133.52131653 242.60635376 137.68931580 234.39770508 141.89198303 226.27426147 C 145.94233704 218.34042358 149.94947815 210.52352905 153.75987244 202.91487122 C 157.43153381 195.62536621 161.00431824 188.70811462 164.60293579 182.23417664 C 167.97624207 176.29302979 171.02867126 170.73060608 173.63278198 165.76179504 C 175.99316406 161.49652100 178.13885498 158.04954529 180.05439758 155.49729919 C 181.78845215 154.02795410 183.58332825 153.82919312 185.52752686 154.85487366 C 187.65486145 157.06336975 190.09562683 160.19294739 192.91958618 164.00701904 C 196.05361938 168.47679138 199.41912842 173.49084473 202.95976257 178.99830627 C 206.64404297 184.90130615 210.27252197 191.17716980 213.62620544 197.88677979 C 216.93974304 204.75923157 220.52711487 211.58004761 224.52854919 218.20678711 C 228.76080322 224.63984680 233.06173706 230.95700073 237.31974792 237.15863037 C 241.46333313 243.27256775 245.35488892 249.30500793 248.97122192 255.23776245 C 252.26979065 261.08218384 255.19287109 266.87774658 257.79772949 272.59130859 C 260.08883667 278.14935303 262.08145142 283.59594727 263.75473022 288.95791626 C 265.20816040 294.21301270 266.47521973 299.32907104 267.57940674 304.35186768 C 268.44528198 309.36056519 269.06353760 314.36096191 269.51028442 319.30868530 C 269.91580200 324.19839478 270.27935791 329.07629395 270.62356567 333.94894409 C 270.93872070 338.80926514 271.23471069 343.65985107 236.95410156 339.24810791" stroke-width="1.17070973" fill="rgb(193, 234, 239)" opacity="1.0" stroke="rgb(177, 239, 236)" stroke-opacity="0.100006804" stroke-linecap="round" stroke-linejoin="round"/>
    <path d="M 257.97430420 337.80593872 C 252.02282715 337.66400146 246.12464905 337.52709961 240.21295166 337.41262817 C 234.28086853 337.31817627 228.37419128 337.26452637 222.52787781 337.17547607 C 216.78083801 337.09445190 211.12127686 337.05868530 205.49516296 337.01388550 C 199.85691833 337.04605103 194.25402832 336.93560791 188.69264221 336.94613647 C 183.19754028 337.07232666 177.81651306 337.05880737 172.52023315 337.05914307 C 167.35266113 336.97634888 162.42117310 336.76687622 157.75665283 336.72991943 C 153.52664185 336.93801880 149.94749451 337.06512451 147.28718567 336.45010376 C 145.90766907 334.87289429 145.74975586 332.28308105 146.59857178 328.84448242 C 148.01434326 324.65118408 149.76199341 319.97445679 151.63256836 314.96365356 C 153.49742126 309.67843628 155.41032410 304.11206055 157.37780762 298.36297607 C 159.39143372 292.56726074 161.50451660 286.79879761 163.61959839 280.95767212 C 165.73625183 275.03622437 167.79270935 269.02941895 169.84603882 262.92904663 C 171.82679749 256.79257202 173.75772095 250.61680603 175.65330505 244.46620178 C 177.61137390 238.38031006 179.60690308 232.34124756 181.50585938 226.42523193 C 183.28616333 220.60633850 184.98220825 214.87969971 186.61856079 209.32165527 C 188.23034668 203.99993896 189.72312927 198.92671204 191.09217834 194.17356873 C 192.29014587 189.72970581 193.26905823 185.66271973 194.05981445 182.18080139 C 194.77421570 179.38046265 195.60437012 177.36521912 196.68977356 176.27709961 C 198.07856750 176.34899902 199.60476685 177.49426270 201.23170471 179.50578308 C 203.05657959 182.11978149 205.06254578 185.24177551 207.21096802 188.81837463 C 209.37593079 192.73735046 211.47763062 197.08157349 213.56086731 201.70063782 C 216.01657104 206.19506836 218.71420288 210.61247253 221.45181274 215.11569214 C 224.08486938 219.77264404 226.60537720 224.55490112 228.96282959 229.40647888 C 231.11433411 234.36009216 233.07063293 239.45083618 234.92041016 244.64311218 C 236.78981018 249.84947205 238.68833923 254.98118591 240.56790161 260.05810547 C 242.39495850 265.13305664 244.19480896 270.19570923 245.97752380 275.22070312 C 247.74192810 280.22735596 249.42160034 285.20205688 251.04850769 290.21533203 C 252.69303894 295.24185181 254.32417297 300.21853638 255.91412354 305.19049072 C 257.47512817 310.16629028 259.04962158 315.12356567 260.62112427 320.07003784 C 262.23284912 325.01324463 263.88116455 329.98794556 257.97430420 337.80593872" stroke-width="1.97447157" fill="rgb(213, 241, 246)" opacity="1.0" stroke="rgb(223, 250, 255)" stroke-opacity="0.6151423" stroke-linecap="round" stroke-linejoin="round"/>
    <path d="M 478.00091553 338.86126709 C 476.08831787 338.66601562 474.12268066 338.39218140 472.10833740 337.84878540 C 469.91046143 337.63912964 467.49417114 337.73965454 464.68127441 337.91522217 C 461.43612671 338.07147217 457.81552124 338.23553467 453.83657837 338.24880981 C 449.38647461 338.04980469 444.50662231 337.78543091 439.26754761 337.53985596 C 433.66055298 337.37216187 427.67449951 337.18917847 421.34082031 336.94952393 C 414.66091919 336.65313721 407.70648193 336.48092651 400.51910400 336.45938110 C 393.11413574 336.56811523 385.57623291 336.72970581 377.99478149 336.97134399 C 370.41485596 337.36392212 363.01837158 337.90643311 355.85989380 338.48031616 C 349.00103760 338.64535522 342.60803223 338.74603271 336.74887085 338.69073486 C 331.56219482 338.53585815 327.14611816 337.55670166 323.45837402 335.50601196 C 320.47531128 332.42907715 318.12557983 328.46249390 316.29183960 323.87893677 C 314.98352051 318.75942993 314.20022583 313.12347412 313.85232544 307.10659790 C 313.91003418 300.86306763 314.40621948 294.41970825 315.35632324 287.73760986 C 316.68640137 280.86328125 318.34689331 273.92825317 320.35076904 266.97500610 C 322.72134399 260.03228760 325.53805542 253.01119995 328.75888062 245.85467529 C 332.20449829 238.61190796 335.75698853 231.34912109 339.30691528 224.02651978 C 342.74691772 216.64807129 346.02203369 209.19659424 349.34396362 201.86459351 C 352.54495239 194.64382935 355.84310913 187.60484314 359.16503906 180.80467224 C 362.31280518 174.17294312 365.24011230 167.89816284 367.97653198 162.01937866 C 370.59503174 156.66935730 373.16098022 151.97352600 375.51843262 147.79948425 C 377.35192871 144.28237915 379.07543945 141.71553040 380.97436523 140.24598694 C 383.22790527 139.93118286 385.84103394 140.88697815 388.72668457 142.78207397 C 391.73477173 145.40841675 394.73931885 148.87863159 397.67886353 153.08140564 C 400.59530640 157.89625549 403.08666992 163.37007141 405.07717896 169.63400269 C 407.16275024 176.41767883 409.57699585 183.38232422 412.17630005 190.61303711 C 414.70529175 198.12840271 417.29010010 205.79057312 420.06042480 213.45654297 C 422.93014526 221.19122314 426.31143188 228.79006958 429.89739990 236.32051086 C 433.19647217 243.98992920 436.46313477 251.79489136 439.72528076 259.56494141 C 443.02667236 267.37191772 446.35449219 275.07742310 449.84634399 282.90499878 C 453.26766968 290.73410034 456.25994873 298.82449341 478.00091553 338.86126709" stroke-width="1.02398610" fill="rgb(196, 236, 241)" opacity="1.0" stroke="rgb(178, 235, 238)" stroke-opacity="0.09493242" stroke-linecap="round" stroke-linejoin="round"/>
    <path d="M 464.80499268 338.62677002 C 459.08880615 338.52450562 453.34158325 338.49478149 447.62506104 338.46566772 C 441.87207031 338.41622925 436.05282593 338.48696899 430.18328857 338.61160278 C 424.27999878 338.59802246 418.28247070 338.50872803 412.23706055 338.51617432 C 406.21856689 338.55886841 400.26602173 338.55297852 394.41217041 338.54125977 C 388.65676880 338.54586792 383.07061768 338.62139893 377.75277710 338.63198853 C 372.76998901 338.58331299 368.22473145 338.50787354 364.24978638 338.51925659 C 360.87582397 338.45590210 358.24145508 337.68249512 356.34185791 335.77981567 C 354.87313843 332.77914429 353.38894653 329.10772705 351.71960449 325.12811279 C 350.15722656 321.04357910 349.46368408 316.70046997 349.89675903 312.00296021 C 351.21847534 306.92147827 352.97265625 301.56790161 354.88015747 295.97158813 C 356.81857300 290.12515259 358.83682251 284.01623535 360.88894653 277.75964355 C 362.95806885 271.41751099 364.96337891 264.96319580 366.84524536 258.47225952 C 368.72058105 251.89189148 370.60052490 245.29254150 372.56198120 238.68795776 C 374.48510742 232.08203125 376.39651489 225.54652405 378.24008179 219.06248474 C 380.01577759 212.61509705 381.82089233 206.24847412 383.58395386 199.97424316 C 385.20083618 193.81355286 386.79232788 187.79229736 388.29754639 181.97613525 C 389.68914795 176.41328430 390.98648071 171.25723267 392.12863159 166.62435913 C 393.11108398 162.61489868 394.03662109 159.44374084 395.06875610 157.28808594 C 396.28012085 156.36633301 397.63500977 156.81285095 399.04965210 158.48060608 C 400.57955933 161.23014832 402.24676514 164.78088379 403.98883057 168.90731812 C 405.69305420 173.54536438 407.40798950 178.57051086 409.12612915 183.83856201 C 410.95233154 189.34800720 412.85687256 194.99398804 414.86563110 200.68257141 C 416.94525146 206.37059021 419.03979492 212.05297852 421.22866821 217.73704529 C 423.59130859 223.29177856 425.83364868 228.93296814 427.86605835 234.63111877 C 429.70706177 240.38183594 431.38247681 246.13310242 432.96612549 251.91413879 C 434.60903931 257.64730835 436.23764038 263.35769653 437.94705200 269.04541016 C 439.76141357 274.64529419 441.63092041 280.18414307 443.52496338 285.68795776 C 445.46557617 291.15576172 447.51275635 296.58203125 449.56710815 301.95715332 C 451.74993896 307.25698853 453.99456787 312.54492188 456.26794434 317.82342529 C 458.50347900 323.11807251 460.70260620 328.40338135 464.80499268 338.62677002" stroke-width="0.87433016" fill="rgb(217, 244, 249)" opacity="1.0" stroke="rgb(251, 254, 249)" stroke-opacity="0.12689306" stroke-linecap="round" stroke-linejoin="round"/>
    <path d="M 321.82098389 338.70239258 C 316.19720459 338.60229492 310.70327759 338.79867554 305.29516602 338.70895386 C 300.06298828 338.70828247 295.05630493 338.91891479 290.11242676 339.27069092 C 285.26712036 339.21823120 280.61611938 338.77633667 276.24127197 337.97875977 C 272.13006592 336.78601074 268.28225708 335.31060791 264.77389526 333.62719727 C 261.61340332 331.67077637 258.76126099 329.48983765 256.19448853 327.11270142 C 253.91677856 324.49118042 251.95146179 321.67666626 250.33180237 318.72836304 C 249.01362610 315.57647705 247.99359131 312.16043091 247.29194641 308.51568604 C 246.88705444 304.64413452 246.77635193 300.61965942 246.93946838 296.45425415 C 247.32514954 292.06295776 247.97308350 287.50942993 248.91813660 282.86975098 C 250.08953857 278.09930420 251.39689636 273.16348267 252.89021301 268.14120483 C 254.60157776 263.06207275 256.48559570 257.87689209 258.50277710 252.58241272 C 260.66452026 247.24632263 262.92239380 241.88009644 265.22491455 236.50314331 C 267.60913086 231.18533325 270.17144775 225.96923828 272.88851929 220.85319519 C 275.65087891 215.81355286 278.43676758 210.87086487 281.17596436 206.00616455 C 283.86767578 201.26991272 286.61871338 196.89752197 289.42288208 192.91156006 C 291.94824219 189.09768677 293.92993164 185.31726074 295.75677490 181.90592957 C 296.86590576 178.70541382 297.71972656 176.33656311 298.82006836 175.43763733 C 300.32635498 176.27459717 302.08587646 178.41244507 304.08630371 181.50300598 C 306.31622314 185.14950562 308.86755371 189.11770630 311.88024902 193.40028381 C 315.07229614 197.94648743 318.25808716 202.60700989 321.34939575 207.36843872 C 324.31631470 212.14259338 327.30786133 216.65022278 330.32705688 220.79609680 C 333.11172485 224.61988831 335.08963013 228.20776367 335.61590576 231.88017273 C 334.43731689 235.92961121 332.20437622 240.30754089 329.55664062 244.84889221 C 326.96624756 249.39634705 324.90286255 253.94616699 323.86975098 258.55316162 C 324.32519531 263.29034424 325.86050415 268.13223267 327.57189941 273.26535034 C 328.74249268 278.80801392 329.52505493 284.56958008 330.10647583 290.31121826 C 330.45797729 295.95593262 330.62594604 301.36563110 330.69348145 306.62338257 C 330.66958618 311.63116455 330.46548462 316.23861694 330.05300903 320.46771240 C 329.30081177 324.34304810 328.18978882 328.04251099 327.21041870 331.66473389 C 326.72659302 335.28744507 326.49035645 338.88424683 321.82098389 338.70239258" stroke-width="1.50536239" fill="rgb(214, 242, 247)" opacity="1.0" stroke="rgb(192, 234, 230)" stroke-opacity="0.083064295" stroke-linecap="round" stroke-linejoin="round"/>
    <path d="M 330.79425049 323.36605835 C 327.78833008 323.14868164 324.83050537 322.79516602 322.00216675 322.16464233 C 319.55313110 320.99383545 317.57296753 319.32720947 316.22967529 317.11508179 C 315.76605225 314.25256348 315.44030762 311.21014404 314.68637085 308.23251343 C 312.92037964 306.07852173 310.59594727 304.85092163 308.30474854 304.06347656 C 307.07437134 302.86935425 307.24685669 301.06381226 308.16665649 298.55603027 C 308.81607056 295.33691406 308.86932373 291.54147339 308.90502930 287.40332031 C 309.24273682 282.96722412 309.75592041 278.30972290 310.41394043 273.53451538 C 311.23883057 268.69332886 312.10635376 263.79943848 312.84814453 258.85971069 C 313.53421021 254.00350952 314.25946045 249.35737610 314.78149414 244.89714050 C 315.30551147 240.68792725 315.95513916 236.76039124 316.72235107 233.24206543 C 317.56179810 230.24041748 318.39004517 227.76979065 319.16296387 225.77062988 C 319.73214722 224.19104004 320.08074951 223.07179260 320.18475342 222.49060059 C 320.15008545 222.48117065 320.01293945 223.00021362 319.65771484 224.05273438 C 319.13674927 225.57772827 318.42605591 227.54446411 317.63204956 230.00056458 C 316.83648682 232.86415100 316.04190063 235.99641418 315.32974243 239.29518127 C 314.95422363 242.80657959 315.26739502 246.45146179 316.55566406 250.01992798 C 318.70480347 253.56805420 320.89233398 257.35095215 322.53002930 261.54907227 C 323.54696655 265.94308472 324.68594360 270.12945557 326.74121094 273.59268188 C 329.28494263 276.53094482 330.79229736 280.09097290 331.39318848 284.45190430 C 332.26123047 289.33230591 333.85394287 294.51904297 330.79425049 323.36605835" stroke-width="0.00000000" fill="rgb(227, 244, 246)" opacity="1.0" stroke="rgb(217, 213, 253)" stroke-opacity="0.0" stroke-linecap="round" stroke-linejoin="round"/>
    <path d="M 68.36967468 368.43771362 C 69.35068512 369.99829102 70.30614471 371.51525879 71.17714691 373.02066040 C 71.91378784 374.48028564 72.50524139 375.88793945 72.94472504 377.21990967 C 73.31231689 378.50039673 73.52366638 379.65188599 73.58771515 380.72375488 C 73.53637695 381.68896484 73.29529572 382.49069214 72.81951904 383.09698486 C 72.10881805 383.54455566 71.14830017 383.79559326 69.97785950 383.92517090 C 68.65507507 383.97894287 67.16027069 383.99984741 65.48284912 383.97354126 C 63.73598099 383.98095703 61.88483429 383.98092651 59.92111206 383.99304199 C 57.92403030 383.99597168 55.90072632 384.01321411 53.85723877 384.01358032 C 51.83334351 384.02127075 49.85346222 384.01168823 47.93176270 384.00292969 C 46.11727905 384.01580811 44.41003799 384.04382324 42.85916519 384.02551270 C 41.49446869 383.99014282 40.32593536 383.81494141 39.40607452 383.49447632 C 38.74828339 382.96475220 38.35989761 382.21490479 38.17602158 381.29138184 C 38.17581940 380.22369385 38.33513260 379.03326416 38.66914368 377.74978638 C 39.10950089 376.38793945 39.64935303 374.97845459 40.30651474 373.54904175 C 41.06213760 372.11578369 41.88526535 370.74829102 42.78637695 369.41061401 C 43.77040863 368.16345215 44.81466293 367.01556396 45.85836792 365.93347168 C 46.90886688 364.88595581 47.99105835 363.99221802 49.10197830 363.20776367 C 50.23115921 362.51046753 51.37860489 361.99871826 52.59349442 361.63092041 C 53.87963486 361.49179077 55.19699097 361.54013062 56.61253357 361.65139771 C 58.07858276 361.75912476 59.60085678 361.83175659 68.36967468 368.43771362" stroke-width="1.06880367" fill="rgb(190, 232, 244)" opacity="1.0" stroke="rgb(215, 242, 247)" stroke-opacity="0.99722075" stroke-linecap="round" stroke-linejoin="round"/>
    <path d="M 221.58641052 393.45324707 C 220.30982971 393.52032471 219.03546143 393.60183716 217.75686646 393.65127563 C 216.48545837 393.68041992 215.18116760 393.66073608 213.84677124 393.60278320 C 212.48110962 393.57702637 211.08599854 393.66616821 209.69801331 393.73785400 C 208.22035217 393.77404785 206.70845032 393.78158569 205.21604919 393.71136475 C 203.65277100 393.66445923 202.07740784 393.67999268 200.52851868 393.74475098 C 199.00488281 393.75726318 197.54121399 393.76538086 196.16653442 393.76553345 C 194.86328125 393.76293945 193.71180725 393.72525024 192.77061462 393.63195801 C 192.02607727 393.39151001 191.47869873 392.95339966 191.18617249 392.27822876 C 191.07931519 391.38385010 191.08953857 390.32870483 191.15397644 389.13876343 C 191.36276245 387.82305908 191.77969360 386.51196289 192.34886169 385.13476562 C 193.02655029 383.70755005 193.78965759 382.30267334 194.58123779 380.93304443 C 195.46195984 379.55130005 196.34924316 378.23135376 197.24714661 376.99047852 C 198.17863464 375.83560181 199.17251587 374.82928467 200.20625305 374.00631714 C 201.29650879 373.36062622 202.46275330 372.88339233 203.68145752 372.63650513 C 204.93859863 372.59008789 206.22163391 372.68927002 207.49481201 372.92013550 C 208.76420593 373.29833984 210.01068115 373.80090332 211.23480225 374.38140869 C 212.39927673 375.11718750 213.50984192 375.91036987 214.59918213 376.83288574 C 215.58401489 377.91064453 216.56588745 379.01354980 217.51771545 380.20895386 C 218.45852661 381.48596191 219.37178040 382.76980591 220.25376892 384.15249634 C 221.16448975 385.57305908 222.09806824 386.97775269 221.58641052 393.45324707" stroke-width="1.85832834" fill="rgb(188, 233, 244)" opacity="1.0" stroke="rgb(225, 246, 251)" stroke-opacity="0.9671272" stroke-linecap="round" stroke-linejoin="round"/>
    <path d="M 419.74142456 374.46484375 C 418.52883911 374.68075562 417.35073853 374.86410522 416.12530518 374.91223145 C 414.90145874 374.89852905 413.64822388 374.85116577 412.37780762 374.79275513 C 411.05957031 374.80902100 409.73507690 374.86929321 408.35507202 374.91702271 C 406.95382690 374.97293091 405.50811768 375.01846313 404.04150391 375.03894043 C 402.53585815 375.02874756 401.03881836 375.01644897 399.52770996 374.98208618 C 398.03204346 374.95944214 396.58474731 374.94393921 395.19641113 374.95678711 C 393.87097168 374.95471191 392.70281982 374.94430542 391.63803101 374.82159424 C 390.73394775 374.55554199 390.05654907 374.12738037 389.55355835 373.52651978 C 389.23040771 372.80764771 389.14263916 371.95773315 389.24298096 370.98071289 C 389.57159424 369.93011475 390.05419922 368.78393555 390.63537598 367.56781006 C 391.25753784 366.26876831 391.91696167 364.92950439 392.61038208 363.55401611 C 393.32922363 362.16824341 394.09780884 360.84191895 394.96969604 359.61581421 C 395.93280029 358.45858765 396.88134766 357.40609741 397.81405640 356.40634155 C 398.77951050 355.55770874 399.73342896 354.91516113 400.76327515 354.49295044 C 401.79531860 354.28991699 402.87136841 354.32940674 404.00625610 354.57684326 C 405.11331177 354.94955444 406.30264282 355.43249512 407.47534180 355.96060181 C 408.62930298 356.54110718 409.79046631 357.24862671 410.85162354 358.05929565 C 411.89990234 358.97256470 412.91821289 359.99353027 413.86914062 361.09149170 C 414.80404663 362.25125122 415.72137451 363.47265625 416.61502075 364.73754883 C 417.50683594 366.06628418 418.45565796 367.33401489 419.74142456 374.46484375" stroke-width="1.08746552" fill="rgb(191, 233, 245)" opacity="1.0" stroke="rgb(214, 240, 245)" stroke-opacity="0.99689114" stroke-linecap="round" stroke-linejoin="round"/>
    <path d="M 115.20532990 415.61743164 C 115.68206787 416.62521362 116.14949036 417.63088989 116.60181427 418.61907959 C 117.02439880 419.55017090 117.32244110 420.47387695 117.50360870 421.36529541 C 117.52381897 422.22180176 117.42089081 423.04385376 117.26289368 423.74243164 C 116.97563171 424.30416870 116.53243256 424.71182251 115.88671875 424.94613647 C 114.99689484 425.02325439 113.91968536 425.00030518 112.69926453 424.95608521 C 111.33503723 424.92480469 109.85189056 424.94155884 108.27218628 424.95687866 C 106.63085938 424.94317627 104.94353485 424.95785522 103.18981934 424.93856812 C 101.41409302 424.90460205 99.69008636 424.89981079 97.93625641 424.93524170 C 96.23309326 424.99700928 94.60628510 425.07446289 93.06130981 425.09982300 C 91.62735748 425.08862305 90.33689880 425.01739502 89.22801971 424.84658813 C 88.30883026 424.56103516 87.61401367 424.07281494 87.14121246 423.41656494 C 86.89455414 422.60952759 86.78410339 421.65844727 86.89228058 420.59182739 C 87.11975098 419.46261597 87.50157928 418.24166870 87.98809814 417.01119995 C 88.58009338 415.76873779 89.27571869 414.48641968 90.04225922 413.23617554 C 90.87763214 412.01736450 91.73844147 410.81347656 92.60364532 409.67611694 C 93.49782562 408.61831665 94.35675049 407.55859375 95.19548035 406.62835693 C 96.08840942 405.85549927 97.01998901 405.28887939 98.01116943 404.97637939 C 99.07301331 404.87527466 100.22399902 404.95751953 101.41336823 405.15829468 C 102.69124603 405.50311279 104.06052399 405.90093994 105.48458862 406.37240601 C 106.93094635 406.78762817 108.46365356 407.15832520 115.20532990 415.61743164" stroke-width="1.22231364" fill="rgb(186, 233, 245)" opacity="1.0" stroke="rgb(214, 242, 247)" stroke-opacity="0.99715734" stroke-linecap="round" stroke-linejoin="round"/>
    <path d="M 319.60058594 431.81008911 C 317.88629150 431.89321899 316.14529419 431.95764160 314.41833496 431.96905518 C 312.64025879 431.96981812 310.86080933 431.97174072 309.10989380 431.97363281 C 307.33654785 431.97314453 305.53472900 431.97821045 303.76516724 431.96481323 C 301.97009277 431.95269775 300.19158936 431.96148682 298.46063232 431.94625854 C 296.76062012 431.95605469 295.09854126 431.94723511 293.54620361 431.95474243 C 292.07910156 431.98675537 290.74877930 432.03765869 289.57397461 431.98492432 C 288.56942749 431.88095093 287.77377319 431.61853027 287.21862793 431.11990356 C 286.87573242 430.44662476 286.75396729 429.58026123 286.81997681 428.53247070 C 287.00689697 427.37292480 287.33187866 426.07415771 287.76058960 424.71072388 C 288.32720947 423.29556274 288.99865723 421.82815552 289.75744629 420.36437988 C 290.57028198 418.92666626 291.49227905 417.50122070 292.49868774 416.17425537 C 293.57211304 414.95404053 294.72415161 413.82083130 295.93930054 412.81600952 C 297.15237427 411.97595215 298.46810913 411.28894043 299.80941772 410.84078979 C 301.19424438 410.55700684 302.59262085 410.47763062 303.98376465 410.55422974 C 305.38540649 410.76037598 306.74835205 411.13049316 308.08358765 411.60882568 C 309.41207886 412.18801880 310.67901611 412.86724854 311.90866089 413.67663574 C 313.05285645 414.58016968 314.17263794 415.53717041 315.24270630 416.55169678 C 316.20910645 417.63171387 317.06094360 418.79537964 317.79556274 420.10134888 C 318.42800903 421.45684814 318.99969482 422.91058350 319.58831787 424.38290405 C 320.20193481 425.85955811 320.82131958 427.35671997 319.60058594 431.81008911" stroke-width="1.08541548" fill="rgb(189, 232, 245)" opacity="1.0" stroke="rgb(214, 241, 247)" stroke-opacity="0.99913734" stroke-linecap="round" stroke-linejoin="round"/>
    <path d="M 309.24566650 303.04159546 C 307.27828979 308.65432739 305.51135254 314.19818115 303.46768188 319.16122437 C 300.56726074 323.23516846 297.45275879 326.91256714 294.17230225 330.20190430 C 290.66720581 333.04959106 287.00335693 335.58935547 283.15512085 337.78305054 C 279.16842651 339.62414551 274.97760010 341.12365723 270.69793701 342.21264648 C 266.33572388 342.90936279 261.88308716 343.28540039 257.40844727 343.30694580 C 252.91120911 342.98406982 248.38467407 342.37670898 243.93540955 341.41055298 C 239.49826050 340.07357788 235.08166504 338.47442627 230.78057861 336.59402466 C 226.67344666 334.47454834 222.71160889 332.21954346 218.85032654 329.79708862 C 215.17123413 327.20773315 211.84046936 324.60452271 209.50250244 321.12609863 C 207.55877686 317.06881714 206.15664673 312.20584106 204.70951843 306.90426636 C 203.41596985 301.35351562 201.75019836 295.65017700 200.94815063 289.66680908 C 199.60639954 283.91635132 198.76023865 277.96627808 197.76196289 272.03582764 C 196.90936279 266.27261353 196.16423035 260.58349609 196.33621216 255.26245117 C 197.90930176 250.01370239 199.13363647 244.68406677 200.65625000 239.14349365 C 202.42248535 233.75251770 204.54119873 228.61587524 206.96470642 223.52896118 C 209.51814270 218.86776733 212.05809021 214.51446533 214.73371887 210.71078491 C 216.64073181 207.13751221 218.98257446 204.34461975 220.29939270 201.45799255 C 220.80546570 198.47982788 220.88356018 195.44654846 221.40876770 192.58180237 C 222.89271545 189.95498657 225.30940247 187.78738403 228.35511780 186.00207520 C 231.85816956 184.49070740 235.85641479 183.27272034 240.24319458 182.44157410 C 244.84620667 182.01441956 249.64707947 181.98599243 254.62950134 182.34529114 C 259.67889404 183.10194397 264.62432861 184.32627869 269.43667603 186.03752136 C 274.12652588 188.16169739 278.73062134 190.65768433 283.18331909 193.55511475 C 287.34066772 196.90078735 291.06927490 200.74459839 294.40100098 205.17872620 C 297.39904785 209.97546387 300.75524902 214.63265991 303.85476685 219.40776062 C 306.19580078 224.42616272 308.63610840 229.42393494 310.61987305 234.55690002 C 312.51046753 239.77896118 314.04907227 245.23200989 315.42935181 250.57315063 C 315.72439575 256.15469360 315.38357544 261.75167847 314.66397095 267.52038574 C 313.86199951 273.47531128 313.52789307 279.43862915 312.85559082 285.18130493 C 311.42831421 290.63211060 311.32302856 296.41632080 309.24566650 303.04159546" stroke-width="0.69174838" fill="rgb(3, 2, 4)" opacity="1.0" stroke="rgb(0, 0, 0)" stroke-opacity="0.5100286" stroke-linecap="round" stroke-linejoin="round"/>
    <path d="M 299.99465942 329.45895386 C 296.69921875 332.94818115 293.38555908 336.30508423 290.29125977 339.76708984 C 287.32977295 343.25875854 284.35928345 346.50723267 281.21292114 349.35067749 C 277.74755859 351.72009277 274.02456665 353.57846069 270.10852051 354.97271729 C 266.12863159 355.95956421 262.14904785 356.65670776 258.16644287 357.12210083 C 254.23480225 357.53921509 250.33604431 357.85009766 246.50083923 357.92004395 C 242.80345154 357.65707397 239.20454407 357.04949951 235.73283386 356.11734009 C 232.40872192 354.79406738 229.23629761 353.04736328 226.27508545 350.81085205 C 223.54386902 348.07852173 221.10281372 344.95159912 218.97938538 341.56707764 C 217.16914368 337.85235596 215.45390320 333.95046997 213.96336365 329.82626343 C 212.93563843 325.61300659 212.00382996 321.16375732 211.52156067 316.85861206 C 210.24642944 312.84561157 209.45629883 308.70208740 209.00822449 304.49227905 C 208.14401245 300.33569336 207.82356262 296.12023926 207.70251465 291.89944458 C 207.30287170 287.49221802 207.46806335 283.10836792 207.76405334 278.81570435 C 208.98915100 274.47543335 209.65216064 269.98580933 210.34576416 265.34951782 C 211.05723572 260.88555908 212.30880737 256.38043213 214.02732849 252.14573669 C 215.68533325 247.79919434 217.34584045 243.70639038 219.77888489 240.06500244 C 221.94902039 236.16349792 224.70277405 232.63514709 227.83232117 229.44372559 C 231.00952148 226.35896301 234.41780090 223.70068359 237.93194580 221.50263977 C 241.36564636 219.96522522 245.05697632 219.00186157 248.61685181 218.08789062 C 252.31404114 217.51997375 255.92309570 217.04489136 259.61163330 217.22869873 C 263.30508423 217.84071350 266.97988892 219.02145386 270.71777344 220.44345093 C 274.29110718 222.15472412 277.87942505 224.04510498 281.28060913 226.29336548 C 284.60971069 228.99256897 287.37417603 232.39152527 290.08334351 236.01849365 C 292.89117432 239.54655457 295.14028931 243.38540649 296.73028564 247.45816040 C 298.72119141 251.59550476 300.30648804 255.90609741 301.20596313 260.13070679 C 302.30331421 264.32775879 303.45669556 268.47360229 304.01266479 272.58148193 C 305.00418091 276.54418945 305.23144531 280.73464966 305.58944702 284.77020264 C 305.55834961 288.91165161 305.20129395 293.21264648 305.04458618 297.56445312 C 303.98406982 302.03750610 303.37725830 306.65173340 302.53829956 311.06179810 C 301.07873535 314.94189453 299.80426025 318.54156494 299.99465942 329.45895386" stroke-width="0.61084598" fill="rgb(245, 244, 236)" opacity="1.0" stroke="rgb(251, 250, 248)" stroke-opacity="0.4879796" stroke-linecap="round" stroke-linejoin="round"/>
    <path d="M 290.97366333 213.88468933 C 287.72668457 214.19839478 284.54281616 214.56008911 281.40707397 214.90632629 C 278.33953857 215.20005798 275.29608154 215.51441956 272.23101807 215.86557007 C 269.21218872 216.15124512 266.35910034 216.35969543 263.52297974 216.56231689 C 260.59857178 216.59967041 257.69970703 216.52085876 254.88897705 216.41044617 C 252.07066345 215.87103271 249.29447937 215.26948547 246.62924194 214.51963806 C 243.98146057 213.62077332 241.34127808 212.59588623 238.76861572 211.45985413 C 236.32240295 210.17459106 233.98948669 208.73001099 231.73933411 207.15875244 C 229.65223694 205.40306091 227.79258728 203.40773010 226.16108704 201.31752014 C 224.60902405 199.21769714 223.13980103 197.07035828 221.81530762 194.80172729 C 220.65733337 192.52989197 220.04710388 190.20889282 219.79461670 187.93977356 C 218.60752869 185.98413086 218.07536316 183.59501648 217.82879639 181.05619812 C 217.49806213 178.38272095 217.51086426 175.61315918 217.31562805 172.66293335 C 217.80058289 169.59085083 218.40164185 166.58039856 219.27397156 163.78576660 C 220.37924194 161.02694702 221.39660645 158.53562927 222.67068481 155.97163391 C 223.71339417 153.56365967 225.23027039 151.31045532 226.65640259 149.17303467 C 228.39457703 147.51948547 229.86027527 145.71661377 231.65591431 144.19744873 C 233.82852173 142.57360840 236.30081177 141.02821350 238.92083740 139.85195923 C 241.50691223 138.76913452 244.28909302 138.10380554 246.97975159 137.26551819 C 249.71728516 136.58882141 252.52746582 136.12107849 255.47468567 136.19958496 C 258.44903564 136.24452209 261.48538208 136.43560791 264.46286011 136.96536255 C 267.37417603 137.40910339 270.24523926 138.21253967 272.91247559 139.52877808 C 275.75903320 140.71975708 278.36584473 142.30548096 280.85400391 143.91902161 C 283.02865601 145.64656067 284.77902222 147.75326538 286.69363403 149.72866821 C 288.53439331 151.89248657 289.92346191 154.29164124 291.05661011 157.01490784 C 292.48858643 159.69992065 293.68600464 162.55290222 294.39916992 165.55038452 C 295.33441162 168.65119934 295.91641235 171.70458984 295.75003052 174.98368835 C 295.55413818 178.41238403 295.00402832 181.84710693 294.51458740 185.21357727 C 293.13186646 187.96533203 292.44485474 190.76530457 291.88522339 193.60182190 C 291.53973389 196.25413513 291.53341675 198.66180420 292.19717407 200.85568237 C 293.34091187 203.05929565 294.39349365 205.28427124 290.97366333 213.88468933" stroke-width="0.65981716" fill="rgb(3, 3, 2)" opacity="1.0" stroke="rgb(0, 0, 0)" stroke-opacity="0.5061764" stroke-linecap="round" stroke-linejoin="round"/>
    <path d="M 194.32633972 328.69793701 C 194.04728699 329.83078003 194.08195496 331.04995728 194.15829468 332.07125854 C 193.98854065 332.75195312 193.83929443 333.64898682 193.29258728 334.07339478 C 192.45626831 334.28921509 191.79850769 334.04394531 190.99835205 333.31549072 C 189.99276733 332.15267944 189.08258057 330.36883545 188.09635925 328.29455566 C 186.91653442 325.93374634 185.90924072 323.20751953 184.58502197 320.27957153 C 183.62036133 317.04205322 182.40531921 313.64663696 181.21391296 310.13546753 C 180.03157043 306.74902344 179.56008911 303.03271484 179.19447327 299.19323730 C 178.95048523 295.51873779 179.09385681 291.99475098 179.66563416 288.41323853 C 180.19038391 284.86828613 181.59996033 281.88510132 183.16615295 278.66854858 C 184.78419495 275.53228760 186.52813721 272.63888550 188.35375977 269.99856567 C 189.89888000 267.36001587 191.29238892 265.05648804 192.39002991 262.76565552 C 193.89778137 260.87844849 194.93643188 259.02871704 195.79870605 257.52944946 C 195.91696167 256.34686279 195.90090942 255.61888123 196.13146973 255.66790771 C 196.56219482 256.35012817 196.97814941 257.58981323 197.35900879 259.31069946 C 197.86387634 261.50842285 198.49487305 264.17181396 199.03707886 267.04147339 C 199.32546997 270.05758667 199.34356689 273.27612305 198.87701416 276.45364380 C 197.85044861 279.44427490 197.29315186 282.59225464 197.43125916 285.87768555 C 196.87576294 289.59011841 196.19490051 293.38165283 195.69680786 297.24603271 C 195.16940308 300.89248657 195.06286621 304.54022217 195.18904114 308.24453735 C 194.51963806 311.70767212 194.90695190 315.17132568 194.32633972 328.69793701" stroke-width="0.60265547" fill="rgb(0, 2, 3)" opacity="1.0" stroke="rgb(0, 0, 0)" stroke-opacity="0.4940989" stroke-linecap="round" stroke-linejoin="round"/>
    <path d="M 326.50225830 323.56713867 C 325.96414185 325.69900513 325.00021362 327.77993774 323.96731567 329.66476440 C 323.08325195 331.51882935 321.93246460 332.84710693 320.92156982 333.80316162 C 320.17877197 334.29486084 319.59225464 333.97610474 318.98645020 333.30804443 C 318.54760742 332.32485962 318.53634644 330.85021973 318.51199341 328.86691284 C 317.63116455 326.79156494 317.56936646 324.19012451 317.70346069 320.94726562 C 317.56622314 317.06970215 317.51721191 312.87338257 317.43121338 308.57522583 C 317.51882935 304.23022461 317.41122437 299.73132324 317.21081543 295.05938721 C 316.85180664 290.72360229 316.13253784 286.62973022 315.23706055 282.67227173 C 314.51806641 278.70483398 313.87307739 275.03903198 313.16842651 271.50320435 C 312.91152954 268.17303467 312.88995361 265.00076294 313.03350830 262.00650024 C 313.32907104 259.34115601 313.72543335 257.10177612 314.25744629 255.18395996 C 314.86996460 253.63452148 315.44625854 252.61366272 315.94888306 252.17979431 C 316.26351929 252.31970215 316.17245483 252.54786682 316.06460571 253.32307434 C 316.44259644 254.45857239 316.97274780 255.96942139 317.67294312 257.90301514 C 318.80752563 259.97558594 320.24581909 262.18316650 321.60873413 264.76028442 C 323.14956665 267.35061646 324.73782349 270.09216309 326.14071655 273.00711060 C 328.02267456 275.76904297 329.37966919 278.78930664 330.78543091 281.84780884 C 332.16323853 284.67666626 332.83972168 287.75515747 333.31066895 290.83236694 C 333.41854858 294.06805420 333.51733398 297.09906006 333.08084106 300.09960938 C 333.18914795 303.12319946 333.14987183 306.01739502 326.50225830 323.56713867" stroke-width="0.69161445" fill="rgb(1, 2, 2)" opacity="1.0" stroke="rgb(0, 0, 0)" stroke-opacity="0.4816332" stroke-linecap="round" stroke-linejoin="round"/>
    <path d="M 228.89630127 351.58377075 C 229.41429138 351.08465576 229.81849670 350.57775879 230.38488770 350.20272827 C 231.09478760 349.92315674 231.68768311 349.88729858 232.46885681 350.21170044 C 233.50843811 350.55154419 234.69798279 351.09414673 235.97904968 351.37985229 C 237.46582031 351.73110962 239.02621460 352.15820312 240.55079651 352.55276489 C 241.92825317 352.98864746 243.40461731 353.36120605 244.83976746 353.53741455 C 246.06452942 353.63531494 247.06138611 353.75000000 247.81660461 354.01995850 C 248.14013672 354.65338135 248.17515564 355.34851074 248.01277161 356.07366943 C 247.61227417 357.05847168 247.45759583 358.38201904 247.30812073 359.73162842 C 247.19647217 360.94146729 247.12797546 362.08892822 247.03536987 363.21273804 C 246.60919189 364.25558472 246.29689026 365.07287598 246.09799194 365.42639160 C 245.70504761 365.30981445 245.14228821 364.77560425 244.57707214 363.85778809 C 243.94660950 362.88772583 243.11322021 361.94201660 242.04527283 361.36981201 C 240.86616516 361.13977051 239.62803650 361.11001587 238.45837402 361.46817017 C 237.47160339 362.04202271 236.80323792 362.69989014 236.39474487 363.37887573 C 236.13407898 364.24160767 235.94721985 365.09042358 235.55268860 365.52438354 C 235.23565674 365.05453491 234.98474121 364.08364868 234.72065735 362.99356079 C 234.58441162 361.96536255 234.11831665 361.13742065 233.19540405 360.76654053 C 232.11099243 360.41589355 230.75531006 360.41329956 229.11528015 360.63046265 C 227.57096863 361.34558105 225.89625549 362.36831665 224.08351135 363.58251953 C 222.12905884 364.62683105 219.98654175 365.45257568 228.89630127 351.58377075" stroke-width="1.17823422" fill="rgb(244, 171, 72)" opacity="1.0" stroke="rgb(222, 175, 116)" stroke-opacity="1.0" stroke-linecap="round" stroke-linejoin="round"/>
    <path d="M 261.18518066 353.88320923 C 263.70730591 353.88116455 266.12225342 353.64218140 268.32376099 353.10662842 C 270.51141357 352.61550903 272.47076416 351.95190430 274.24371338 351.42663574 C 275.70828247 350.80914307 276.82296753 350.16662598 277.73532104 350.04666138 C 278.51782227 350.53625488 279.39276123 351.36276245 280.42010498 352.43417358 C 281.48446655 353.76956177 282.40640259 355.12826538 283.46224976 356.76596069 C 284.50640869 358.38909912 285.45709229 359.72384644 286.22570801 361.01239014 C 286.66036987 362.28411865 286.91284180 363.35379028 286.87982178 363.79464722 C 286.53363037 363.46875000 285.92495728 362.85324097 284.98876953 362.23284912 C 283.94183350 361.82864380 282.76123047 361.36669922 281.43081665 360.99475098 C 280.11532593 360.36267090 278.77984619 360.13751221 277.54067993 360.32736206 C 276.33660889 360.62554932 275.34982300 361.04629517 274.66717529 361.82513428 C 274.35375977 362.79244995 274.32037354 363.74435425 274.25775146 364.75875854 C 274.25653076 365.67352295 274.29083252 366.26348877 274.08901978 366.40295410 C 273.60421753 366.01077271 272.99923706 365.32028198 272.52758789 364.55731201 C 271.96527100 363.65899658 271.53579712 362.58178711 270.93261719 361.85839844 C 269.99377441 361.61727905 268.88824463 361.84829712 267.83706665 362.27694702 C 267.19146729 362.75329590 266.59841919 363.49130249 265.92941284 364.38772583 C 265.51571655 364.92523193 265.07598877 365.02865601 264.80398560 364.69256592 C 264.77160645 363.95889282 264.54385376 362.85708618 264.02621460 361.73580933 C 263.66476440 360.56893921 263.36029053 359.54690552 261.18518066 353.88320923" stroke-width="1.27175927" fill="rgb(243, 166, 73)" opacity="1.0" stroke="rgb(219, 167, 106)" stroke-opacity="1.0" stroke-linecap="round" stroke-linejoin="round"/>
    <path d="M 253.25558472 190.75288391 C 253.89256287 190.72546387 254.67111206 190.48979187 255.41308594 190.29280090 C 256.29980469 190.27748108 257.44232178 190.34934998 258.65844727 190.57490540 C 259.70092773 190.98947144 260.91394043 191.40213013 262.20123291 191.82171631 C 263.23019409 192.40792847 264.28479004 192.91549683 265.21551514 193.59155273 C 265.86431885 194.24247742 266.52105713 194.74942017 267.41921997 194.79399109 C 267.97329712 195.21160889 268.40283203 195.73841858 268.77102661 196.42939758 C 268.72528076 197.17639160 268.59136963 197.95089722 267.98715210 198.66235352 C 266.87393188 199.34043884 265.78607178 200.25787354 264.61630249 201.21380615 C 263.56326294 202.41474915 262.39865112 203.42196655 261.11175537 204.26895142 C 260.39553833 205.57653809 259.44952393 206.42713928 258.40127563 207.00253296 C 257.88708496 207.70050049 257.70126343 208.50660706 257.53973389 209.19084167 C 257.31829834 209.48336792 257.00616455 209.43322754 256.53210449 209.07931519 C 255.96508789 208.58605957 255.30743408 207.85862732 254.59880066 206.95425415 C 253.70373535 206.17204285 252.92517090 205.34127808 252.11231995 204.35534668 C 251.01513672 203.60755920 250.02633667 202.64299011 248.94873047 201.95399475 C 247.91818237 201.28134155 246.97064209 200.58068848 246.21484375 199.90034485 C 245.52893066 199.45889282 244.84117126 199.09861755 244.40899658 198.70292664 C 244.08580017 198.15513611 243.97650146 197.50180054 244.02001953 196.94416809 C 244.17300415 196.41902161 244.46682739 195.84590149 245.04592896 195.41412354 C 245.51033020 194.75709534 245.83575439 193.89996338 253.25558472 190.75288391" stroke-width="0.67163450" fill="rgb(245, 205, 108)" opacity="1.0" stroke="rgb(129, 101, 71)" stroke-opacity="0.73211694" stroke-linecap="round" stroke-linejoin="round"/>
    <path d="M 96.15282440 26.41644287 C 96.04593658 25.78102684 95.61026764 25.27091789 95.13608551 24.80616379 C 94.94973755 24.23195076 94.51507568 23.84457779 94.01042175 23.60392761 C 93.89352417 22.97644997 94.09101105 21.87084198 94.02822876 20.46858597 C 93.94770813 19.23813629 93.89506531 18.20997238 94.03005981 17.33022690 C 94.69242096 16.85388756 95.38259888 16.25624847 95.91058350 15.58325863 C 96.18357849 14.98596668 96.92390442 14.79475880 97.58529663 14.75106907 C 98.44818878 14.17952538 99.72354889 13.96051598 100.77104950 13.93976974 C 101.41991425 13.19308853 101.85818481 12.68259144 102.38218689 11.88856697 C 103.56031036 11.63669872 104.84062195 12.20374203 105.85246277 12.91206074 C 107.11730957 12.96663189 108.26132965 12.98906422 108.92156982 13.03162098 C 109.10923767 13.56424999 108.99815369 14.12210846 109.32701874 14.69709015 C 110.01508331 15.49899578 110.98067474 16.48178101 111.85065460 17.38623238 C 112.24140930 18.44398117 112.11702728 19.67046738 112.08416748 21.15956116 C 112.21406555 22.61411858 112.34809875 23.82791519 112.08432770 24.92511368 C 112.00920105 25.94879150 112.08750916 26.87804985 111.95920563 27.66201401 C 111.15557861 28.24728012 109.99975586 28.64150810 108.94106293 28.81708336 C 108.16620636 28.82841682 108.00394440 29.36661720 107.74567413 30.07245255 C 106.69194031 30.13992500 105.31935120 30.04987335 103.98839569 30.08032227 C 102.90991974 29.64019966 101.89718628 29.14675140 100.96457672 29.03636169 C 99.99120331 29.13781357 98.75754547 29.54719925 96.15282440 26.41644287" stroke-width="1.29749250" fill="rgb(255, 255, 255)" opacity="1.0" stroke="rgb(255, 255, 255)" stroke-opacity="0.0" stroke-linecap="round" stroke-linejoin="round"/>
    <path d="M 340.77017212 26.26389122 C 341.02005005 25.12862396 341.11105347 23.89536095 340.92404175 22.66329384 C 340.67153931 21.53450775 340.27355957 20.53106880 340.06741333 19.40646553 C 340.07705688 18.18282127 340.03625488 16.92977905 339.98526001 15.75730896 C 339.90841675 14.57939434 339.88174438 13.37568378 339.99276733 12.31823921 C 340.91796875 11.45515251 341.97558594 10.48580647 343.13073730 10.10539055 C 344.40533447 10.24618435 345.48269653 9.85357761 346.30157471 9.12466812 C 347.38055420 8.88169098 348.81149292 9.01320839 350.24975586 9.09132671 C 351.58486938 8.94891739 352.72311401 8.89101315 353.62371826 9.17453575 C 354.46047974 9.66465378 355.15710449 10.46589375 355.84020996 11.41370487 C 356.17483521 12.54392719 356.60693359 13.54963398 357.04013062 14.68500423 C 357.10400391 16.12150574 356.99044800 17.49819183 356.74887085 18.87006569 C 356.91955566 20.17981148 357.34619141 21.40624428 357.77346802 22.54509926 C 358.00018311 23.90001678 357.96990967 25.17329025 358.01263428 26.40290260 C 358.12506104 27.63479996 358.20315552 28.69659233 358.11389160 29.59702873 C 357.27230835 30.09375572 356.41482544 30.70229530 355.84555054 31.51041412 C 355.16461182 32.35336304 354.46722412 33.18347168 353.60848999 33.98222733 C 352.37615967 34.13772964 350.90182495 34.17099380 349.66787720 33.98010635 C 348.85458374 33.24873352 347.94976807 32.94300079 347.21627808 32.91900635 C 346.74624634 32.16770935 346.17471313 31.39887047 345.22140503 30.77599525 C 344.34774780 29.87464142 343.63836670 28.87247658 340.77017212 26.26389122" stroke-width="1.37963736" fill="rgb(255, 255, 255)" opacity="1.0" stroke="rgb(255, 255, 255)" stroke-opacity="0.0" stroke-linecap="round" stroke-linejoin="round"/>
    <path d="M 283.29821777 176.19369507 C 283.03106689 176.49066162 282.76898193 176.99934387 282.60079956 177.48884583 C 282.62252808 177.95288086 282.60482788 178.31059265 282.38305664 178.68565369 C 281.86566162 178.95091248 281.32080078 179.35269165 281.02432251 179.90666199 C 280.62231445 180.39547729 280.12542725 180.77662659 279.53057861 181.23298645 C 278.83865356 181.50543213 278.23748779 181.62644958 277.45446777 181.60404968 C 276.50195312 181.50521851 275.63903809 181.32460022 274.80441284 180.95573425 C 274.08721924 180.32566833 273.23007202 179.93418884 272.43093872 179.59800720 C 271.96063232 179.00709534 271.29864502 178.46955872 270.61358643 178.01292419 C 270.24667358 177.42817688 269.79544067 176.88603210 269.44580078 176.09997559 C 269.28878784 175.32357788 269.17602539 174.80717468 269.02224731 174.35702515 C 268.80572510 173.62054443 269.02493286 172.72312927 268.74966431 171.98100281 C 268.69021606 171.19886780 269.20254517 170.22753906 269.47152710 169.26379395 C 269.66543579 168.30168152 270.18933105 167.41806030 270.69262695 166.60116577 C 271.56881714 166.14253235 272.26473999 165.64909363 272.88613892 165.14709473 C 273.64938354 164.65829468 274.51425171 164.58589172 275.43295288 164.64727783 C 276.31918335 164.49473572 277.03179932 164.41490173 277.67984009 164.62731934 C 278.48339844 164.74977112 279.02786255 165.12947083 279.54992676 165.52474976 C 280.27645874 165.91793823 280.92025757 166.37030029 281.28320312 167.17109680 C 282.14746094 167.81614685 282.74984741 168.65220642 283.10754395 169.91151428 C 283.78192139 171.05613708 284.48526001 172.21902466 283.29821777 176.19369507" stroke-width="0.64628750" fill="rgb(243, 244, 244)" opacity="1.0" stroke="rgb(134, 134, 133)" stroke-opacity="0.8578012" stroke-linecap="round" stroke-linejoin="round"/>
    <path d="M 241.42248535 177.86209106 C 240.62011719 178.85017395 239.69714355 179.80253601 238.76100159 180.57194519 C 237.74888611 181.01284790 236.69438171 181.53262329 235.72964478 181.71932983 C 234.43051147 181.21459961 233.01069641 180.57147217 231.70332336 179.97413635 C 230.61445618 179.02929688 229.75631714 177.80914307 228.99969482 176.43763733 C 228.59559631 174.46411133 228.40728760 172.48103333 228.82170105 170.46348572 C 229.69873047 168.63659668 230.76962280 166.93882751 232.09515381 165.70596313 C 233.56654358 165.04690552 235.17988586 164.79791260 236.54028320 164.47055054 C 237.90097046 164.61576843 238.98905945 165.29072571 240.05335999 166.14822388 C 241.06336975 167.11076355 241.92674255 168.30212402 242.73410034 169.71769714 C 243.34700012 171.25938416 244.02476501 172.91540527 241.42248535 177.86209106" stroke-width="0.66957992" fill="rgb(246, 245, 245)" opacity="1.0" stroke="rgb(127, 128, 127)" stroke-opacity="0.8376372" stroke-linecap="round" stroke-linejoin="round"/>
    <path d="M 280.90216064 176.93963623 C 279.97122192 178.02825928 278.85791016 178.84436035 277.64895630 179.15008545 C 276.47341919 179.12426758 275.29711914 178.79518127 274.18496704 178.32409668 C 273.33630371 177.49082947 272.51239014 176.59953308 271.88406372 175.77787781 C 271.67584229 174.97032166 271.66903687 174.22746277 271.76721191 173.46708679 C 272.04904175 172.51124573 272.08911133 171.53102112 272.24484253 170.57200623 C 272.83605957 169.41029358 273.52349854 168.40219116 274.36727905 167.64411926 C 275.28170776 167.48789978 276.04577637 167.33309937 276.74893188 167.27403259 C 277.73281860 167.54643250 278.87460327 167.93647766 279.90542603 168.44030762 C 280.75360107 169.16337585 281.34698486 169.96621704 281.56100464 171.03556824 C 282.07186890 172.02592468 282.66735840 173.07885742 280.90216064 176.93963623" stroke-width="0.66569054" fill="rgb(3, 6, 7)" opacity="1.0" stroke="rgb(105, 105, 106)" stroke-opacity="0.77173585" stroke-linecap="round" stroke-linejoin="round"/>
    <path d="M 236.10467529 179.22149658 C 234.93827820 179.06311035 233.74478149 178.70141602 232.76762390 178.36518860 C 232.13557434 177.62022400 231.42294312 176.99244690 230.77870178 176.21900940 C 230.39459229 175.24571228 230.12538147 174.04106140 230.05821228 172.76438904 C 230.22245789 171.33561707 230.57220459 169.97236633 231.22029114 168.93849182 C 232.33018494 168.37693787 233.27769470 168.08816528 234.44876099 167.52043152 C 235.50979614 167.42704773 236.52572632 167.42114258 237.35906982 167.60711670 C 238.14263916 168.12513733 238.91683960 168.76457214 239.58415222 169.58627319 C 240.24153137 170.53979492 240.60586548 171.80635071 240.92079163 173.15168762 C 240.79180908 174.24411011 240.38871765 175.41020203 239.94273376 176.51223755 C 239.23739624 177.49612427 238.58276367 178.49906921 236.10467529 179.22149658" stroke-width="0.57791090" fill="rgb(6, 5, 6)" opacity="1.0" stroke="rgb(117, 116, 117)" stroke-opacity="0.79225576" stroke-linecap="round" stroke-linejoin="round"/>
    <path d="M 385.11080933 139.49145508 C 386.12908936 140.47463989 386.99703979 141.57032776 387.97418213 142.53520203 C 388.90994263 143.47761536 389.75869751 144.42823792 390.54180908 145.43730164 C 391.36599731 146.38063049 392.09088135 147.30387878 392.81768799 148.18118286 C 393.54278564 148.96066284 394.12057495 149.80046082 394.49563599 150.66419983 C 394.64953613 151.57252502 394.69338989 152.56719971 394.61611938 153.63832092 C 394.36123657 154.66262817 393.98748779 155.60108948 393.62606812 156.53584290 C 393.24880981 157.52439880 392.92596436 158.50737000 392.55334473 159.30624390 C 392.11383057 159.92665100 391.56204224 160.40365601 390.90698242 160.67366028 C 390.22857666 160.74761963 389.52444458 160.76982117 388.85070801 160.84596252 C 388.30975342 160.97062683 387.89135742 161.08670044 385.11080933 139.49145508" stroke-width="1.31937861" fill="rgb(248, 255, 253)" opacity="1.0" stroke="rgb(220, 241, 240)" stroke-opacity="0.4642452" stroke-linecap="round" stroke-linejoin="round"/>
    <path d="M 185.61384583 156.79783630 C 186.39604187 157.70083618 187.21786499 158.56355286 188.09123230 159.36456299 C 188.94403076 160.13783264 189.75575256 160.92369080 190.41700745 161.79730225 C 191.08850098 162.68173218 191.67437744 163.56680298 192.24501038 164.42022705 C 192.78115845 165.22421265 193.19854736 166.05796814 193.59205627 166.86174011 C 194.01600647 167.56932068 194.37055969 168.23619080 194.54467773 168.89042664 C 194.46519470 169.53625488 194.19122314 170.20993042 193.78903198 170.96176147 C 193.40655518 171.79244995 193.05261230 172.67448425 192.65127563 173.57638550 C 192.21994019 174.51072693 191.70700073 175.41880798 191.14266968 176.27255249 C 190.52691650 177.11268616 189.87963867 177.88229370 189.17671204 178.59645081 C 188.49713135 179.28538513 187.89277649 179.95059204 185.61384583 156.79783630" stroke-width="1.10653365" fill="rgb(252, 255, 253)" opacity="1.0" stroke="rgb(223, 242, 243)" stroke-opacity="0.9384164" stroke-linecap="round" stroke-linejoin="round"/>
  </g>
</svg>
