<?xml version="1.0" ?>
<svg xmlns="http://www.w3.org/2000/svg" version="1.1" width="512" height="512" viewBox="0 0 512 512">
  <defs/>
  <g>
    <path d="M 462.59701538 487.63134766 C 454.52569580 488.88772583 446.01739502 488.92907715 436.86785889 488.66650391 C 426.93313599 488.60879517 416.05291748 488.60958862 404.09057617 488.57107544 C 391.07034302 488.59191895 376.87115479 488.57177734 361.46087646 488.55795288 C 344.80569458 488.57562256 327.01666260 488.64154053 308.18399048 488.62594604 C 288.33554077 488.63836670 267.70861816 488.65979004 246.41830444 488.60620117 C 224.68261719 488.53970337 202.78448486 488.61849976 180.98632812 488.63204956 C 159.59295654 488.55029297 139.01731873 488.56271362 119.52218628 488.56939697 C 101.48369598 488.57910156 85.38275146 488.51223755 71.59307098 488.59597778 C 60.51633835 489.11834717 52.51044464 489.23089600 47.85427475 486.86062622 C 46.46662521 480.92620850 46.90882111 471.53054810 46.98755264 458.91253662 C 46.81402969 443.31497192 46.91195679 425.20724487 46.99367142 404.93212891 C 47.00021362 382.74810791 46.97723007 359.01049805 46.93342590 334.28280640 C 47.00550842 308.80902100 47.01649857 282.92459106 46.96375275 257.05236816 C 46.96673584 231.66679382 46.98409653 207.11901855 46.99739075 183.70854187 C 47.02949524 161.98957825 46.98023987 142.32435608 46.99385452 125.10945892 C 46.98527145 110.71872711 46.73155594 99.62679291 47.07727814 92.23435974 C 49.41597366 88.89402771 54.80076218 88.64031982 63.23005295 89.14697266 C 74.54942322 89.18107605 88.52540588 89.07637024 104.83464813 89.16113281 C 123.18105316 89.26030731 143.30311584 89.14530182 164.97201538 89.09395599 C 187.82806396 89.07769012 211.61611938 89.19229889 235.96478271 89.22667694 C 260.64895630 89.15621948 285.30227661 89.11216736 309.62020874 89.16078949 C 333.21408081 89.11049652 355.83660889 89.14254761 377.20526123 89.23437500 C 397.01919556 89.19098663 414.73565674 89.10984039 430.20797729 89.04543304 C 443.10308838 88.95111084 453.10836792 88.78553772 459.93432617 89.60993958 C 463.24594116 92.35871887 463.63995361 97.80500031 462.95004272 106.09215546 C 462.80130005 116.97427368 462.78808594 130.08567810 462.80041504 145.15379333 C 462.82635498 161.91044617 462.72998047 180.02207947 462.77062988 199.35379028 C 462.70886230 219.58596802 462.66116333 240.55523682 462.68359375 262.07705688 C 462.72225952 284.00070190 462.79385376 306.13162231 462.76000977 328.43057251 C 462.78204346 350.81665039 463.08081055 373.23263550 462.59701538 487.63134766" stroke-width="0.68867743" fill="rgb(74, 62, 37)" opacity="1.0" stroke="rgb(16, 8, 0)" stroke-opacity="0.292996" stroke-linecap="round" stroke-linejoin="round"/>
    <path d="M 459.77371216 485.09918213 C 449.57803345 485.20812988 439.23562622 485.23397827 428.60696411 485.25347900 C 417.45416260 485.23477173 405.65234375 485.23931885 393.11224365 485.26480103 C 379.72714233 485.29302979 365.45867920 485.28125000 350.17343140 485.24893188 C 333.96273804 485.27297974 316.78732300 485.29434204 298.66372681 485.27667236 C 279.72598267 485.21002197 260.09152222 485.23657227 239.84098816 485.23278809 C 219.28462219 485.20260620 198.62036133 485.25103760 178.03601074 485.30691528 C 157.87719727 485.32443237 138.40066528 485.31030273 119.87277985 485.22192383 C 102.75424194 485.11642456 87.41418457 485.16223145 74.12683868 485.22702026 C 63.39460754 485.71197510 55.53320694 485.82739258 50.86357880 483.86172485 C 49.68770218 478.08792114 50.01835632 468.81253052 50.21779251 456.33569336 C 50.23195267 441.02883911 50.18107605 423.18640137 50.17436981 403.24075317 C 50.20398712 381.47271729 50.28831100 358.24588013 50.29132462 333.97857666 C 50.25835800 309.00192261 50.21080017 283.58984375 50.21755981 258.17547607 C 50.21235657 233.09034729 50.17179108 208.79678345 50.19729614 185.58316040 C 50.20528412 164.00633240 50.17860031 144.40765381 50.18262100 127.25501251 C 50.09898376 112.95323181 49.84770203 102.05175018 50.20520401 94.94977570 C 52.88458633 92.05187225 58.38401031 92.03096771 66.60805511 92.62084198 C 77.47976685 92.64061737 90.72485352 92.58823395 106.17890930 92.61426544 C 123.58993530 92.64858246 142.74928284 92.59094238 163.47222900 92.58114624 C 185.45927429 92.60751343 208.35662842 92.64039612 231.95816040 92.66796112 C 255.89620972 92.64293671 279.88912964 92.61432648 303.68072510 92.61924744 C 327.13653564 92.61759949 349.86441040 92.60540771 371.50619507 92.57699585 C 391.67803955 92.60105896 410.01461792 92.62442780 426.09719849 92.63420868 C 439.56149292 92.42569733 450.02108765 92.15713501 456.95932007 92.86855316 C 459.99432373 96.19899750 460.40322876 102.30854034 459.94567871 111.07859039 C 459.72927856 122.35006714 459.72213745 135.68861389 459.72155762 150.89596558 C 459.16134644 167.63650513 458.94754028 185.70854187 459.57369995 204.92915344 C 459.79177856 225.06311035 459.70486450 245.88023376 459.65811157 267.21743774 C 459.72534180 288.91851807 459.77029419 310.86575317 459.70788574 332.99514771 C 459.85012817 355.25082397 459.94229126 377.49401855 459.77371216 485.09918213" stroke-width="1.62162173" fill="rgb(216, 179, 143)" opacity="1.0" stroke="rgb(222, 199, 146)" stroke-opacity="0.8124477" stroke-linecap="round" stroke-linejoin="round"/>
    <path d="M 438.75836182 459.28125000 C 429.24755859 459.40875244 419.67889404 459.45632935 409.88479614 459.48822021 C 399.73751831 459.50305176 389.19168091 459.47161865 378.10433960 459.42471313 C 366.43316650 459.40158081 354.11886597 459.35986328 341.11495972 459.40219116 C 327.42022705 459.42172241 313.04461670 459.45458984 297.99899292 459.49694824 C 282.36508179 459.54534912 266.17517090 459.58419800 249.57171631 459.57803345 C 232.60877991 459.63916016 215.48837280 459.68359375 198.37763977 459.85522461 C 181.43113708 460.12438965 164.85578918 460.32043457 148.89773560 460.55206299 C 133.82131958 460.90661621 119.85153198 461.32113647 107.33948517 461.51947021 C 96.53904724 461.03546143 87.76627350 459.09512329 81.36002350 455.02890015 C 77.43590546 448.30026245 75.65718079 439.12698364 75.25004578 427.73010254 C 75.30191040 414.42175293 75.50378418 399.43173218 75.67764282 383.13189697 C 75.87185669 365.65573120 76.11161041 347.35244751 76.33189392 328.39785767 C 76.43674469 309.07965088 76.57067871 289.56124878 76.78963470 270.14947510 C 77.07947540 251.02441406 77.37740326 232.38896179 77.51287079 214.47564697 C 77.55211639 197.54791260 77.47106171 181.70018005 77.22679138 167.34161377 C 76.99562073 154.60478210 77.31037140 143.75250244 78.97640991 135.05021667 C 82.73873138 128.77206421 88.78435516 124.77729797 97.18043518 122.74999237 C 107.61405945 121.92253113 119.81990051 121.87888336 133.63458252 122.32258606 C 148.80294800 122.90229034 165.04521179 123.43502808 182.26797485 123.75705719 C 200.21363831 123.74240875 218.67822266 123.51478577 237.54609680 123.01822662 C 256.55868530 122.37058258 275.55923462 121.58769989 294.37588501 120.73030853 C 312.77166748 119.77548981 330.65017700 118.85205841 347.74356079 117.93437958 C 363.89739990 117.15526581 378.89901733 116.65526581 392.58291626 116.75386810 C 404.68588257 117.63599396 415.01986694 119.53009796 423.37631226 122.85950470 C 429.43338013 127.94882202 433.24633789 134.96775818 435.08743286 143.98052979 C 435.61807251 154.74595642 435.57150269 167.06251526 435.38012695 180.66006470 C 435.30422974 195.39309692 435.31958008 211.00360107 435.43786621 227.31683350 C 435.54721069 244.23400879 435.70745850 261.54125977 435.92886353 279.17535400 C 436.18963623 297.03936768 436.37057495 315.04956055 436.53353882 333.13940430 C 436.89154053 351.26889038 437.26306152 369.38711548 438.75836182 459.28125000" stroke-width="2.00000000" fill="rgb(238, 174, 82)" opacity="1.0" stroke="rgb(229, 176, 113)" stroke-opacity="1.0" stroke-linecap="round" stroke-linejoin="round"/>
    <path d="M 290.81234741 353.66833496 C 289.86566162 358.00778198 288.61270142 362.38812256 287.05276489 366.61480713 C 285.40209961 370.87561035 283.27774048 374.95785522 280.80456543 378.81466675 C 278.13925171 382.55795288 275.13815308 385.95239258 271.86450195 388.95062256 C 268.45358276 391.77432251 265.14007568 394.37365723 261.91177368 396.55252075 C 258.99914551 398.52111816 256.37158203 399.97171021 254.21057129 400.56719971 C 252.31936646 400.06707764 250.27755737 398.84106445 248.01799011 397.19827271 C 245.53320312 395.38491821 242.75875854 393.38098145 239.90495300 390.96704102 C 237.11358643 388.11676025 234.31544495 384.93069458 231.74057007 381.26470947 C 229.32432556 377.14437866 227.13423157 372.79333496 225.28723145 368.02334595 C 223.65234375 363.10342407 222.41716003 358.05422974 221.53227234 352.91897583 C 220.85267639 347.87539673 220.38290405 343.03863525 220.33422852 338.51760864 C 220.00474548 334.36404419 219.70758057 330.69790649 219.54020691 327.72604370 C 219.30442810 325.51071167 219.38801575 324.08160400 220.38455200 323.37484741 C 222.20773315 323.24865723 224.74766541 323.40005493 227.98851013 323.53704834 C 231.64781189 323.99261475 235.77438354 324.36077881 240.29646301 324.38220215 C 245.02069092 324.63931274 249.81465149 325.15563965 254.75756836 325.82830811 C 259.74087524 326.56277466 264.68606567 327.29724121 269.52285767 327.91107178 C 274.17648315 328.31716919 278.57315063 328.63772583 282.70639038 328.82934570 C 286.45172119 329.25601196 289.70108032 329.40011597 292.51885986 329.31930542 C 294.70077515 328.96252441 296.37506104 328.40121460 290.81234741 353.66833496" stroke-width="2.00000000" fill="rgb(192, 186, 177)" opacity="1.0" stroke="rgb(17, 8, 1)" stroke-opacity="0.90118647" stroke-linecap="round" stroke-linejoin="round"/>
    <path d="M 267.01013184 344.61410522 C 263.01226807 344.36718750 259.14279175 344.03890991 255.45631409 343.79260254 C 252.04118347 343.63882446 249.01647949 343.49676514 246.51100159 343.63034058 C 244.57974243 343.80349731 243.29826355 343.48696899 242.66906738 342.31777954 C 242.38786316 340.19387817 242.71315002 337.15026855 243.46624756 333.31091309 C 244.02679443 328.57073975 244.64445496 323.13482666 246.05110168 317.10543823 C 248.56280518 310.52536011 250.42138672 302.93685913 251.51239014 294.32513428 C 252.87287903 285.03295898 254.34977722 275.04602051 256.13122559 264.52890015 C 257.86328125 253.64456177 259.74487305 242.56666565 261.69085693 231.44114685 C 263.64285278 220.37373352 265.52450562 209.50306702 267.24240112 199.07719421 C 269.02648926 189.29003906 270.38122559 180.11828613 271.46838379 171.77696228 C 272.57144165 164.55648804 273.26318359 158.63337708 273.71847534 154.05657959 C 274.61157227 151.15722656 276.39706421 149.96064758 279.30032349 150.14572144 C 283.06033325 150.87008667 287.23257446 151.72377014 291.60107422 152.31779480 C 295.79867554 152.89277649 299.26458740 153.70352173 301.43338013 155.17526245 C 301.93392944 157.75976562 301.22711182 161.43817139 300.01257324 166.22193909 C 298.77108765 172.22616577 297.27001953 179.18893433 295.67123413 187.05241394 C 293.97204590 195.73880005 292.06994629 204.94653320 290.04840088 214.62510681 C 287.87066650 224.74691772 285.82592773 235.27947998 283.72988892 246.02033997 C 281.39324951 256.83746338 279.02261353 267.73056030 276.64151001 278.66519165 C 274.18319702 289.61651611 272.05166626 300.44064331 267.01013184 344.61410522" stroke-width="2.00000000" fill="rgb(208, 56, 52)" opacity="1.0" stroke="rgb(49, 20, 7)" stroke-opacity="0.95315814" stroke-linecap="round" stroke-linejoin="round"/>
    <path d="M 270.96133423 315.72201538 C 268.22973633 315.58670044 265.57583618 315.57385254 263.02520752 315.61846924 C 260.60839844 315.59326172 258.32580566 315.43835449 256.23370361 315.13922119 C 254.35081482 314.67544556 252.74337769 314.05764771 251.42041016 313.41378784 C 250.43867493 312.69189453 249.85847473 311.97689819 249.72946167 311.46017456 C 249.99749756 311.05319214 250.67489624 310.93734741 251.71459961 311.19400024 C 253.07427979 311.74746704 254.75427246 312.41375732 256.78106689 313.04891968 C 259.01058960 313.52056885 261.31121826 313.75131226 263.63400269 313.87515259 C 265.67889404 313.72726440 267.42102051 313.01388550 268.78842163 311.60507202 C 269.69570923 309.43859863 270.33871460 306.64648438 271.04986572 303.54217529 C 272.20175171 300.31265259 273.55856323 297.19058228 270.96133423 315.72201538" stroke-width="1.50361574" fill="rgb(78, 22, 8)" opacity="1.0" stroke="rgb(165, 113, 88)" stroke-opacity="0.43137825" stroke-linecap="round" stroke-linejoin="round"/>
    <path d="M 402.95031738 129.26603699 C 395.35858154 131.32699585 387.78503418 133.25996399 380.08557129 134.88111877 C 372.33966064 136.15048218 364.47290039 137.12211609 356.50204468 137.80786133 C 348.44580078 138.23512268 340.30218506 138.50399780 332.00479126 138.49250793 C 323.63800049 138.21267700 315.15509033 137.73603821 306.53457642 137.02354431 C 297.81900024 136.21228027 289.00601196 135.36428833 280.06701660 134.57542419 C 271.02548218 134.14561462 261.88186646 134.21231079 252.62217712 134.67497253 C 243.29121399 135.37283325 233.84822083 135.97891235 224.36791992 136.34362793 C 214.89337158 136.35858154 205.38479614 136.03753662 196.03115845 135.36515808 C 186.73521423 134.42138672 177.60922241 133.31492615 168.74133301 132.04643250 C 160.11691284 130.73234558 151.82989502 129.48135376 143.96943665 128.31745911 C 136.51853943 127.20596313 129.65965271 126.31331635 123.33591461 125.55078125 C 117.75690460 124.91885376 112.84429169 124.31990051 108.84153748 123.82674408 C 105.72043610 123.20159912 103.64071655 122.50749207 102.66030884 121.66179657 C 102.80452728 120.78792572 104.09523010 120.08617401 106.31337738 119.57213593 C 109.54536438 119.37077332 113.53225708 119.49864960 118.30655670 119.78421021 C 123.69989014 120.18817902 129.68859863 120.66993713 136.17544556 121.14687347 C 143.09669495 121.59698486 150.38171387 122.02716827 157.95306396 122.37358093 C 165.82127380 122.69502258 173.80992126 122.89795685 182.00407410 122.99038696 C 190.24241638 122.96876526 198.57516479 122.74784851 206.87542725 122.35095978 C 215.19909668 121.67093658 223.45721436 120.68537903 231.64981079 119.36549377 C 239.74893188 117.88605499 247.83419800 116.33534241 255.82527161 114.96046448 C 263.75332642 113.83641052 271.68167114 113.11791992 279.54779053 112.87394714 C 287.33346558 113.03403473 295.13000488 113.59420013 302.79443359 114.41353607 C 310.36843872 115.49694824 317.92132568 116.54902649 325.33605957 117.51271820 C 332.68630981 117.96382141 339.97009277 117.96374512 347.13964844 117.44036865 C 354.25823975 116.68128204 361.24642944 115.79268646 368.12423706 115.05615234 C 374.95986938 114.65959167 381.67605591 114.63300323 388.23834229 115.06454468 C 394.77847290 115.82932281 401.15240479 116.82221985 407.48583984 117.90254974 C 413.74069214 118.89183044 419.96408081 119.64558411 426.11480713 120.19963837 C 432.26062012 120.56185913 438.37252808 120.79180908 402.95031738 129.26603699" stroke-width="0.98007703" fill="rgb(250, 212, 155)" opacity="1.0" stroke="rgb(238, 205, 158)" stroke-opacity="0.49881738" stroke-linecap="round" stroke-linejoin="round"/>
    <path d="M 364.18762207 125.05614471 C 363.26763916 125.40754700 362.41168213 125.74336243 361.55892944 126.02797699 C 360.67984009 126.26720428 359.89941406 126.43482971 359.13430786 126.55979919 C 358.39797974 126.68993378 357.71630859 126.78685760 357.06771851 126.86904144 C 356.43637085 127.01915741 355.84460449 127.13880157 355.26556396 127.26908112 C 354.64050293 127.32432556 354.03405762 127.34602356 353.34378052 127.40384674 C 352.67016602 127.41967773 351.86135864 127.44523621 351.01760864 127.50425720 C 350.10897827 127.53099823 349.07006836 127.58909607 347.94000244 127.62876892 C 346.75518799 127.66156006 345.44885254 127.68515778 344.05383301 127.69929504 C 342.59997559 127.57821655 341.12487793 127.34751892 339.55334473 126.99468231 C 338.04132080 126.49792480 336.48159790 125.93292999 364.18762207 125.05614471" stroke-width="2.00000000" fill="rgb(231, 174, 108)" opacity="1.0" stroke="rgb(210, 145, 75)" stroke-opacity="0.54231036" stroke-linecap="round" stroke-linejoin="round"/>
    <path d="M 292.55575562 171.56994629 C 292.03070068 173.05661011 291.39572144 174.43933105 290.61267090 175.64945984 C 289.77804565 176.58692932 288.76055908 177.20172119 287.58111572 177.56109619 C 286.30261230 177.74340820 285.05032349 177.71961975 283.93203735 177.36703491 C 282.98703003 176.77656555 282.02279663 176.07023621 281.13250732 175.31813049 C 280.60589600 174.42337036 280.39193726 173.46012878 280.37924194 172.37530518 C 280.31027222 171.22833252 280.24105835 170.12867737 280.31304932 169.16658020 C 280.68591309 168.37892151 281.22149658 167.53697205 281.86691284 166.74392700 C 282.62902832 166.05599976 283.50317383 165.56593323 284.47106934 165.26980591 C 285.59909058 165.22557068 286.91333008 165.27946472 288.36557007 165.42755127 C 289.89489746 165.74679565 291.42416382 166.20220947 292.55575562 171.56994629" stroke-width="2.00000000" fill="rgb(236, 171, 114)" opacity="1.0" stroke="rgb(29, 9, 0)" stroke-opacity="0.8750501" stroke-linecap="round" stroke-linejoin="round"/>
    <path d="M 382.13278198 351.49954224 C 378.52526855 353.37661743 374.82363892 354.78775024 370.88452148 355.67877197 C 366.71517944 356.22589111 362.39068604 356.56069946 357.97543335 356.74932861 C 353.48522949 356.78372192 348.88113403 356.82489014 344.37503052 356.80548096 C 339.97390747 356.74136353 335.73690796 356.56112671 331.65414429 356.36248779 C 327.94769287 356.12719727 324.63565063 355.82888794 321.75216675 355.43682861 C 319.45263672 354.77264404 317.75704956 353.67739868 316.72702026 352.03881836 C 316.32739258 349.76446533 316.19259644 346.86199951 316.25781250 343.44009399 C 316.11837769 339.67849731 315.77618408 335.67062378 315.74548340 331.36471558 C 315.80984497 326.80627441 315.74243164 322.15203857 315.71679688 317.59817505 C 315.68081665 313.19717407 315.69461060 309.01434326 315.90945435 305.27371216 C 316.51950073 302.08401489 317.68392944 299.59060669 319.35647583 297.83480835 C 321.58270264 296.78686523 324.41943359 296.45996094 327.86953735 296.55789185 C 331.81607056 296.49990845 336.14953613 296.41503906 340.78500366 296.44525146 C 345.62622070 296.46527100 350.56796265 296.39105225 355.56481934 296.37164307 C 360.36337280 296.38555908 364.97586060 296.53179932 369.27969360 296.53485107 C 373.21939087 296.38311768 376.69366455 296.31600952 379.57720947 296.71270752 C 381.81900024 297.78366089 383.49362183 299.41033936 384.48217773 301.59259033 C 384.71871948 304.23828125 384.56076050 307.25262451 384.48019409 310.58416748 C 384.47238159 314.17376709 384.28479004 317.82720947 383.72793579 321.63891602 C 383.68811035 325.53607178 383.94726562 329.41107178 382.13278198 351.49954224" stroke-width="2.00000000" fill="rgb(237, 75, 60)" opacity="1.0" stroke="rgb(60, 6, 1)" stroke-opacity="0.9614656" stroke-linecap="round" stroke-linejoin="round"/>
    <path d="M 318.86831665 297.20639038 C 321.99127197 297.46865845 325.01721191 297.61047363 328.14202881 297.62518311 C 331.26242065 297.62426758 334.39807129 297.59170532 337.55148315 297.57504272 C 340.67913818 297.54986572 343.81549072 297.59133911 346.96020508 297.64709473 C 350.11013794 297.74844360 353.19598389 297.76419067 356.25494385 297.67205811 C 359.24331665 297.56719971 362.18405151 297.51361084 365.07095337 297.57495117 C 367.84503174 297.62716675 370.50518799 297.74639893 372.97415161 297.78942871 C 375.21353149 297.73840332 377.16897583 297.62661743 378.80917358 297.65689087 C 380.11831665 297.97656250 381.09481812 298.60037231 381.83804321 299.44757080 C 382.32546997 300.32467651 382.53155518 301.10546875 382.39328003 301.76513672 C 381.87173462 302.22787476 380.95373535 302.43832397 379.68142700 302.42758179 C 378.09106445 302.47601318 376.23986816 302.77075195 374.19854736 303.15197754 C 371.97695923 303.37814331 369.55419922 303.49057007 366.96624756 303.54611206 C 364.26675415 303.64440918 361.47933960 303.70861816 358.60308838 303.73458862 C 355.67938232 303.69720459 352.78457642 303.74038696 349.88940430 303.73190308 C 347.03744507 303.73345947 344.22888184 303.71478271 341.47857666 303.65881348 C 338.86514282 303.56756592 336.31872559 303.55548096 333.84942627 303.47543335 C 331.50857544 303.20620728 329.28927612 302.79931641 327.11450195 302.52374268 C 324.99325562 302.43218994 322.85501099 302.39697266 320.82519531 302.18704224 C 318.81811523 301.72772217 316.79229736 301.25988770 314.81457520 300.77932739 C 312.82565308 300.21420288 310.81970215 299.65814209 318.86831665 297.20639038" stroke-width="2.00000000" fill="rgb(208, 75, 59)" opacity="1.0" stroke="rgb(83, 7, 1)" stroke-opacity="0.9680098" stroke-linecap="round" stroke-linejoin="round"/>
    <path d="M 382.43444824 297.41821289 C 380.12634277 294.22213745 377.72961426 291.10147095 375.17550659 288.22955322 C 372.44927979 285.66674805 369.43041992 283.43087769 366.30664062 281.57318115 C 363.12744141 279.92535400 359.81411743 278.65225220 356.35830688 277.80911255 C 352.91998291 277.34979248 349.39025879 277.24026489 345.90057373 277.30523682 C 342.53607178 277.57604980 339.31823730 278.19439697 336.29895020 279.20526123 C 333.51885986 280.53979492 330.88284302 282.03128052 328.46942139 283.58200073 C 326.42620850 285.23315430 324.78131104 286.88525391 323.39648438 288.43209839 C 322.02188110 289.38540649 320.69265747 289.85015869 319.47692871 289.82339478 C 318.48907471 289.44821167 317.75601196 288.71130371 317.28347778 287.65209961 C 317.25479126 286.39154053 317.68750000 285.01412964 318.55636597 283.59628296 C 319.84066772 282.12811279 321.56433105 280.60122681 323.51348877 279.04235840 C 325.63250732 277.46563721 328.02236938 276.11462402 330.63796997 274.83969116 C 333.23352051 273.57907104 336.04614258 272.53646851 338.97048950 271.79290771 C 341.94000244 271.28033447 344.99661255 270.93151855 348.12927246 270.75891113 C 351.23526001 270.90667725 354.38928223 271.21670532 357.60931396 271.68524170 C 360.70275879 272.39367676 363.67208862 273.27667236 366.61965942 274.28237915 C 369.37380981 275.57794189 371.98501587 277.08569336 374.48284912 278.79156494 C 376.82073975 280.75350952 379.03799438 282.89904785 381.06121826 285.10485840 C 382.98251343 287.37161255 384.73513794 289.86502075 386.21823120 292.54934692 C 387.46170044 295.37115479 388.68060303 298.25335693 382.43444824 297.41821289" stroke-width="1.95198262" fill="rgb(120, 46, 34)" opacity="1.0" stroke="rgb(229, 165, 216)" stroke-opacity="0.20297499" stroke-linecap="round" stroke-linejoin="round"/>
    <path d="M 322.23184204 289.99285889 C 321.01654053 291.11532593 319.92950439 292.38153076 319.00213623 293.77548218 C 318.19290161 295.29135132 317.50115967 296.81314087 316.89477539 298.30032349 C 316.40539551 299.75051880 315.95040894 301.04867554 315.46990967 302.18768311 C 314.91357422 303.17636108 314.29998779 303.79922485 313.65588379 304.14813232 C 312.99087524 304.17321777 312.34713745 303.94625854 311.70220947 303.50012207 C 311.16677856 302.92874146 310.84448242 302.24984741 310.72412109 301.31805420 C 310.77584839 300.16287231 310.91961670 298.85131836 311.22521973 297.41171265 C 311.58435059 295.83673096 312.13345337 294.23745728 312.97839355 292.59841919 C 313.89337158 290.93447876 314.82580566 289.13833618 315.73599243 287.31372070 C 316.56466675 285.45046997 317.44338989 283.58529663 322.23184204 289.99285889" stroke-width="2.00000000" fill="rgb(101, 40, 31)" opacity="1.0" stroke="rgb(100, 151, 255)" stroke-opacity="0.08814143" stroke-linecap="round" stroke-linejoin="round"/>
    <path d="M 380.35733032 295.32995605 C 380.93331909 295.64877319 381.47134399 296.01818848 381.99291992 296.39624023 C 382.48501587 296.68600464 383.00341797 296.90078735 383.52343750 296.93649292 C 384.09039307 296.86065674 384.58596802 296.71325684 385.03109741 296.61608887 C 385.41885376 296.61474609 385.74987793 296.68167114 385.95495605 296.88122559 C 386.04052734 297.27963257 386.02746582 297.78158569 386.03506470 298.35699463 C 386.07070923 298.85662842 386.20181274 299.35614014 386.33557129 299.79928589 C 386.33914185 300.18060303 386.30163574 300.49246216 386.20153809 300.64224243 C 385.88217163 300.67153931 385.48925781 300.54534912 385.07623291 300.27926636 C 384.80328369 299.91235352 384.61953735 299.42388916 384.49697876 298.87240601 C 384.46005249 298.23767090 384.48138428 297.57342529 380.35733032 295.32995605" stroke-width="1.51246881" fill="rgb(148, 81, 77)" opacity="1.0" stroke="rgb(93, 24, 14)" stroke-opacity="1.0" stroke-linecap="round" stroke-linejoin="round"/>
    <path d="M 376.00222778 357.23541260 C 370.22241211 357.66555786 364.49050903 358.13998413 358.87890625 358.54440308 C 353.42553711 358.70928955 348.20175171 358.70675659 343.35876465 358.61804199 C 338.86804199 358.48898315 334.82781982 358.31884766 331.30477905 358.15216064 C 328.28674316 357.89862061 325.90393066 357.60058594 324.24523926 357.17465210 C 323.37945557 356.54522705 323.39514160 355.92211914 324.29211426 355.48471069 C 326.01797485 355.54098511 328.49636841 355.80206299 331.50851440 356.12231445 C 335.15417480 356.29351807 339.20825195 356.43380737 343.69900513 356.58126831 C 348.50830078 356.66525269 353.62905884 356.62371826 358.94488525 356.51812744 C 364.41244507 356.33804321 369.94461060 355.87960815 375.51315308 355.10049438 C 381.05651855 354.23117065 386.65216064 353.32000732 376.00222778 357.23541260" stroke-width="0.95050466" fill="rgb(56, 5, 0)" opacity="1.0" stroke="rgb(89, 48, 54)" stroke-opacity="0.5746682" stroke-linecap="round" stroke-linejoin="round"/>
  </g>
</svg>
