<?xml version="1.0" ?>
<svg xmlns="http://www.w3.org/2000/svg" version="1.1" width="512" height="512" viewBox="0 0 512 512">
  <defs/>
  <g>
    <path d="M 233.20085144 269.93811035 C 228.55387878 269.57482910 224.24913025 269.86672974 220.75277710 271.03729248 C 218.23503113 272.62133789 216.62951660 274.12405396 215.28904724 274.45187378 C 214.24635315 273.11676025 213.01591492 271.01974487 210.72395325 269.37866211 C 207.45281982 268.17166138 203.44409180 267.66162109 199.10260010 267.70034790 C 194.68797302 268.24035645 190.61859131 268.90896606 187.43183899 270.03240967 C 185.42855835 271.68658447 184.13366699 272.33264160 183.46658325 271.19107056 C 183.19831848 268.14739990 182.62780762 263.63314819 181.30772400 258.34478760 C 179.53858948 252.50160217 177.20327759 246.33226013 174.45256042 240.38967896 C 171.71415710 234.59008789 168.51611328 229.44468689 165.06637573 224.93276978 C 161.91502380 220.78482056 158.98768616 217.25498962 156.27532959 214.38861084 C 153.86370850 212.31332397 152.16477966 210.87557983 151.35694885 209.82293701 C 151.55291748 209.46548462 152.95039368 209.38514709 155.16770935 209.53741455 C 158.08332825 210.01350403 161.69459534 210.71664429 165.82409668 211.62443542 C 170.37419128 212.86122131 175.07667542 214.57360840 179.86639404 216.77964783 C 184.90130615 219.04815674 189.86540222 221.57792664 194.91172791 224.16970825 C 199.87400818 226.77331543 204.85063171 229.24974060 209.70811462 231.80999756 C 214.34234619 234.41952515 219.08299255 236.70497131 223.89337158 238.63488770 C 228.62081909 240.54985046 233.27565002 242.21351624 238.06184387 243.63671875 C 242.89419556 244.34822083 247.71369934 245.00263977 252.53750610 245.76959229 C 257.40249634 246.53941345 262.28216553 247.22973633 233.20085144 269.93811035" stroke-width="0.77887452" fill="rgb(1, 3, 3)" opacity="1.0" stroke="rgb(0, 0, 0)" stroke-opacity="0.49703267" stroke-linecap="round" stroke-linejoin="round"/>
    <path d="M 341.99542236 232.44728088 C 338.71109009 238.99716187 335.87667847 245.41275024 333.42068481 251.61230469 C 331.29473877 257.33688354 329.64010620 262.44396973 328.76354980 266.76898193 C 328.40774536 270.10882568 328.19882202 272.12445068 327.41683960 272.34423828 C 325.55743408 270.67922974 322.20812988 269.22824097 317.56057739 268.41879272 C 312.48092651 267.79367065 307.44726562 267.96441650 302.94967651 268.70230103 C 299.63595581 269.99044800 297.82199097 272.09152222 296.95806885 274.26702881 C 296.29025269 275.14682007 295.34909058 274.32714844 293.84161377 272.67141724 C 291.50500488 270.98501587 288.55929565 269.99914551 285.22396851 269.51858521 C 282.03887939 268.28363037 279.27584839 266.31295776 276.98773193 263.79718018 C 275.21188354 260.86923218 274.00714111 257.71649170 273.46887207 254.45959473 C 273.60903931 251.25062561 274.49414062 248.19886780 276.11450195 245.42007446 C 278.48315430 243.02182007 281.74661255 241.15422058 285.77108765 239.74371338 C 290.14776611 238.18846130 294.82171631 236.09020996 299.53720093 233.63505554 C 304.48934937 231.16250610 309.57345581 228.51263428 314.60818481 225.65505981 C 319.63763428 222.76988220 324.70935059 220.00321960 329.67239380 217.54010010 C 334.56036377 215.38713074 339.28692627 213.71713257 343.85113525 212.38009644 C 347.94534302 211.10444641 351.55117798 210.38323975 354.68872070 209.91889954 C 357.21868896 209.35713196 358.95962524 209.08984375 359.85437012 209.30874634 C 359.85040283 210.14266968 358.98873901 211.41864014 357.56250000 212.80142212 C 355.71517944 214.55360413 352.96572876 215.75201416 341.99542236 232.44728088" stroke-width="0.74530524" fill="rgb(1, 4, 3)" opacity="1.0" stroke="rgb(12, 14, 14)" stroke-opacity="0.5260751" stroke-linecap="round" stroke-linejoin="round"/>
    <path d="M 283.50131226 269.51547241 C 279.84979248 269.53646851 276.52883911 269.98138428 274.00369263 271.42404175 C 272.18560791 273.73495483 269.90252686 275.07174683 267.35775757 275.54925537 C 266.10977173 277.35534668 265.41455078 279.67169189 264.49166870 281.54193115 C 263.31478882 282.41220093 262.08776855 282.04571533 260.90692139 280.47998047 C 259.72497559 278.55010986 258.33996582 277.33612061 256.50643921 277.21438599 C 254.63813782 277.52609253 253.33389282 278.91134644 252.33435059 280.80648804 C 251.28065491 282.33120728 250.10580444 282.76742554 248.87120056 281.85797119 C 247.84597778 279.92861938 247.29632568 277.70788574 246.26567078 276.21975708 C 244.22016907 276.44189453 242.51855469 275.92315674 241.63928223 273.75274658 C 239.87794495 271.86618042 237.49212646 270.77212524 235.01518250 270.05313110 C 233.29614258 268.65789795 232.32678223 266.64773560 232.04524231 264.18124390 C 232.32084656 261.41244507 233.03582764 258.52212524 234.17950439 255.55406189 C 235.72985840 252.63714600 237.54096985 249.96229553 239.57575989 247.64845276 C 241.81570435 245.73974609 244.24987793 244.19116211 246.84442139 242.96829224 C 249.57328796 242.25344849 252.35305786 241.83023071 255.17266846 241.66011047 C 258.06805420 241.67497253 260.94973755 241.96340942 263.75088501 242.48735046 C 266.43463135 242.96264648 268.96893311 243.43902588 271.32977295 243.87263489 C 273.50808716 243.69229126 275.48147583 243.11703491 277.62145996 242.39628601 C 279.84582520 241.90830994 282.08132935 241.54327393 284.32836914 241.05856323 C 286.55328369 240.53143311 288.85888672 239.91325378 283.50131226 269.51547241" stroke-width="0.81745005" fill="rgb(2, 1, 2)" opacity="1.0" stroke="rgb(5, 0, 0)" stroke-opacity="0.45992872" stroke-linecap="round" stroke-linejoin="round"/>
    <path d="M 255.41378784 251.37304688 C 254.23197937 250.65585327 252.93467712 249.89256287 251.55021667 249.14047241 C 250.23936462 248.35824585 249.02488708 247.53419495 247.87164307 246.59898376 C 246.82051086 245.63063049 246.02432251 244.59796143 245.45204163 243.48098755 C 245.25468445 242.21020508 245.02183533 240.99171448 244.47436523 239.88371277 C 243.75053406 238.80148315 243.07263184 237.61851501 242.62306213 236.31938171 C 242.31179810 234.95486450 242.21113586 233.52645874 242.06236267 232.24742126 C 241.77194214 230.92117310 241.60676575 229.61082458 241.48416138 228.43510437 C 241.62512207 227.47964478 242.05056763 226.71484375 242.77220154 226.14939880 C 243.73185730 225.68452454 244.93821716 225.28718567 246.30734253 224.99960327 C 247.76971436 224.91960144 249.32559204 224.92816162 251.04350281 224.96789551 C 252.85113525 225.00862122 254.66046143 225.15083313 256.47518921 225.33335876 C 258.29028320 225.05059814 259.98785400 224.61094666 261.64096069 224.24572754 C 263.32598877 224.00683594 265.00857544 223.93508911 266.50314331 223.93962097 C 267.74014282 224.04629517 268.79870605 224.34757996 269.72866821 224.91717529 C 270.34405518 225.71202087 270.56265259 226.62448120 270.65432739 227.69198608 C 270.75909424 228.88580322 270.58831787 230.13081360 270.42242432 231.40570068 C 270.52105713 232.70318604 270.49319458 234.05130005 270.24508667 235.42204285 C 269.96939087 236.72161865 269.67947388 237.78984070 269.04638672 238.71295166 C 268.54113770 239.90771484 268.02871704 241.01423645 267.63943481 242.11006165 C 267.20288086 243.38064575 266.92373657 244.69329834 255.41378784 251.37304688" stroke-width="0.75942427" fill="rgb(7, 5, 8)" opacity="1.0" stroke="rgb(0, 0, 0)" stroke-opacity="0.4717564" stroke-linecap="round" stroke-linejoin="round"/>
    <path d="M 242.22674561 211.72055054 C 243.85803223 212.96438599 245.29135132 214.37449646 246.57797241 215.84538269 C 247.79193115 217.30364990 249.04936218 218.68054199 250.20271301 220.01489258 C 251.18824768 221.26655579 251.96237183 222.47848511 252.68411255 223.56359863 C 253.30456543 224.39302063 253.68341064 225.15071106 253.66621399 225.83508301 C 253.25773621 226.44612122 252.57858276 227.00794983 251.74765015 227.51275635 C 250.79220581 227.89637756 249.65861511 228.23657227 248.39825439 228.52220154 C 247.17378235 228.68363953 246.04827881 228.70767212 244.96594238 228.65106201 C 243.86627197 228.54153442 242.84451294 228.30924988 242.11672974 227.77583313 C 241.66752625 227.02940369 241.43696594 226.05227661 241.39266968 224.78002930 C 241.26611328 223.35440063 240.77299500 221.91186523 242.22674561 211.72055054" stroke-width="0.85514033" fill="rgb(3, 4, 5)" opacity="1.0" stroke="rgb(0, 0, 0)" stroke-opacity="0.507721" stroke-linecap="round" stroke-linejoin="round"/>
    <path d="M 262.35644531 219.83232117 C 262.93862915 218.27297974 263.92459106 217.10598755 265.04077148 215.98445129 C 265.90988159 214.64151001 266.85681152 213.55947876 267.85205078 212.79336548 C 268.50408936 212.07041931 269.04760742 211.74787903 269.44168091 211.91398621 C 269.64923096 212.50883484 269.89062500 213.40258789 270.27438354 214.52629089 C 270.68255615 215.77093506 270.76870728 217.12243652 270.59234619 218.54525757 C 270.51205444 219.92108154 270.61291504 221.28256226 270.76678467 222.74331665 C 270.72079468 224.16348267 270.51684570 225.46865845 269.89758301 226.57272339 C 268.90570068 227.45753479 267.45391846 228.09808350 265.68927002 228.50872803 C 263.76651001 228.82385254 261.65197754 229.08377075 259.34622192 229.27793884 C 256.98574829 229.41644287 254.65567017 229.56581116 262.35644531 219.83232117" stroke-width="0.75128096" fill="rgb(2, 1, 3)" opacity="1.0" stroke="rgb(0, 2, 4)" stroke-opacity="0.50358313" stroke-linecap="round" stroke-linejoin="round"/>
    <path d="M 251.96710205 231.63214111 C 252.61328125 232.11775208 253.23248291 232.60092163 253.74467468 233.14935303 C 254.10165405 233.89137268 254.50204468 234.51324463 254.83032227 235.00094604 C 254.89140320 235.50245667 254.85392761 235.99494934 254.63116455 236.50007629 C 254.32978821 236.99327087 253.94966125 237.29132080 253.55758667 237.54252625 C 252.95062256 237.69299316 252.44421387 237.83128357 251.93305969 238.05735779 C 251.41410828 238.20417786 250.97860718 238.31217957 250.52229309 238.22114563 C 250.07443237 237.92739868 249.55813599 237.48902893 249.06109619 237.07791138 C 248.64012146 236.56512451 248.40808105 236.02310181 248.25172424 235.47608948 C 248.24517822 234.91482544 248.48762512 234.34431458 248.83116150 233.72164917 C 249.16780090 233.05343628 249.60377502 232.37710571 251.96710205 231.63214111" stroke-width="0.65958363" fill="rgb(247, 243, 92)" opacity="1.0" stroke="rgb(167, 149, 68)" stroke-opacity="0.66360295" stroke-linecap="round" stroke-linejoin="round"/>
    <path d="M 260.83145142 231.77996826 C 261.42984009 231.94676208 262.07235718 232.13226318 262.66452026 232.32490540 C 263.08770752 232.70098877 263.36410522 233.07112122 263.66476440 233.31050110 C 263.87420654 233.62228394 263.94619751 234.02438354 263.96746826 234.42405701 C 264.00808716 234.83850098 264.11468506 235.18858337 264.14785767 235.47825623 C 264.05114746 235.79925537 263.89996338 236.16145325 263.65756226 236.38627625 C 263.27960205 236.58558655 262.93267822 236.80064392 262.60394287 236.96072388 C 262.13671875 237.08715820 261.61132812 237.19570923 261.15606689 237.15780640 C 260.63867188 237.02070618 260.07083130 236.83943176 259.56201172 236.60292053 C 259.14926147 236.23561096 258.77221680 235.78089905 258.37341309 235.33082581 C 257.88766479 234.86804199 257.35632324 234.46025085 260.83145142 231.77996826" stroke-width="0.67184556" fill="rgb(241, 237, 86)" opacity="1.0" stroke="rgb(148, 150, 60)" stroke-opacity="0.7731587" stroke-linecap="round" stroke-linejoin="round"/>
    <path d="M 455.57766724 115.13156128 C 454.52575684 117.65082550 453.41299438 120.10187531 452.16192627 122.51920319 C 450.71624756 124.83256531 449.13510132 127.07144165 447.42294312 129.28683472 C 445.55859375 131.42648315 443.56109619 133.41653442 441.38583374 135.33851624 C 439.03173828 137.10948181 436.54461670 138.70251465 433.97470093 140.19903564 C 431.24285889 141.52284241 428.38153076 142.63362122 425.40060425 143.45634460 C 422.27865601 144.14161682 419.11193848 144.65896606 415.87271118 144.98387146 C 412.62094116 145.23262024 409.39007568 145.34823608 406.20587158 145.26445007 C 403.09793091 144.81382751 400.03054810 144.01731873 397.03555298 142.89765930 C 394.06863403 141.56791687 391.12823486 140.14195251 388.24780273 138.55375671 C 385.49896240 136.75743103 382.90335083 134.77798462 380.45910645 132.59776306 C 378.19094849 130.28875732 376.04095459 127.86374664 374.11862183 125.26807404 C 372.49121094 122.48728180 371.03332520 119.61888123 369.72442627 116.69057465 C 368.67761230 113.64898682 367.84265137 110.54149628 367.22195435 107.43063354 C 366.79675293 104.26701355 366.59368896 101.11421967 366.51168823 97.93952179 C 366.51187134 94.80730438 366.61898804 91.73642731 366.92770386 88.75083923 C 367.64715576 85.82178497 368.61526489 82.98876953 369.74728394 80.21449280 C 371.06893921 77.55898285 372.56588745 75.03088379 374.24090576 72.61512756 C 376.04006958 70.28029633 377.99444580 68.11430359 380.18795776 66.13194275 C 382.60565186 64.38752747 385.18209839 62.77131653 387.88037109 61.27252197 C 390.72283936 59.95300674 393.65802002 58.72072983 396.68209839 57.63259506 C 399.67736816 56.63616562 402.77114868 55.74789429 405.89889526 55.12856674 C 409.04135132 54.78244400 412.24078369 54.65407944 415.38754272 54.69584274 C 418.52462769 54.93965912 421.62255859 55.36221695 424.67282104 56.04239655 C 427.63565063 56.94823074 430.55514526 58.09417725 433.33676147 59.38073730 C 436.01852417 60.88204956 438.57913208 62.55288315 441.01361084 64.37484741 C 443.31298828 66.38288116 445.40151978 68.52957153 447.34817505 70.84336090 C 449.02893066 73.34647369 450.55560303 75.93038940 452.00784302 78.59751892 C 453.31793213 81.25775146 454.44982910 83.99564362 455.39901733 86.75104523 C 456.24118042 89.54882812 457.01412964 92.35639191 457.69586182 95.09195709 C 458.36795044 97.88095856 459.00009155 100.65003204 455.57766724 115.13156128" stroke-width="2.00000000" fill="rgb(247, 245, 203)" opacity="1.0" stroke="rgb(241, 242, 169)" stroke-opacity="0.16791716" stroke-linecap="round" stroke-linejoin="round"/>
    <path d="M 383.88409424 79.07102203 C 384.70065308 78.33055878 385.54067993 77.65743256 386.39495850 76.96232605 C 387.22116089 76.28365326 388.05548096 75.64072418 388.91186523 75.02626801 C 389.76541138 74.45973969 390.66809082 74.03890228 391.61688232 73.69846344 C 392.59942627 73.51173401 393.61380005 73.41352844 394.66275024 73.42553711 C 395.70245361 73.48982239 396.73062134 73.61569977 397.78302002 73.83207703 C 398.78375244 74.10284424 399.75881958 74.47058868 400.70840454 74.94639587 C 401.60217285 75.49168396 402.40637207 76.16906738 403.15869141 76.92008209 C 403.84072876 77.75336456 404.40881348 78.65222931 404.89562988 79.63535309 C 405.28775024 80.65990448 405.53564453 81.73694611 405.71359253 82.84883118 C 405.78567505 83.98206329 405.77807617 85.13024902 405.68508911 86.25936890 C 405.50891113 87.37822723 405.21572876 88.46927643 404.81845093 89.49005890 C 404.32226562 90.49177551 403.69943237 91.37461090 402.99966431 92.23022461 C 402.22201538 92.99392700 401.36944580 93.66821289 400.47946167 94.30100250 C 399.53244019 94.80596924 398.55847168 95.20884705 397.54440308 95.51631165 C 396.49539185 95.67076111 395.45895386 95.73869324 394.39227295 95.65045929 C 393.34536743 95.49584198 392.32388306 95.23555756 391.33728027 94.84595490 C 390.39910889 94.36171722 389.52255249 93.78246307 388.68307495 93.09976959 C 387.91534424 92.36095428 387.20571899 91.54066467 386.51800537 90.68360901 C 385.89410400 89.80429840 385.30340576 88.84445190 384.74166870 87.90441132 C 384.15734863 86.96488953 383.62796021 85.98068237 383.88409424 79.07102203" stroke-width="2.00000000" fill="rgb(240, 233, 180)" opacity="1.0" stroke="rgb(248, 244, 195)" stroke-opacity="0.9642535" stroke-linecap="round" stroke-linejoin="round"/>
    <path d="M 419.39770508 114.42428589 C 418.99343872 113.69773102 418.62741089 112.96314240 418.27212524 112.23120880 C 417.91064453 111.51423645 417.65213013 110.75363159 417.48309326 110.02791595 C 417.35623169 109.24806213 417.34487915 108.48526001 417.40277100 107.70589447 C 417.50851440 106.96205902 417.69958496 106.19044495 417.97409058 105.46816254 C 418.33197021 104.76898956 418.75814819 104.11159515 419.25280762 103.48058319 C 419.80926514 102.89497375 420.41763306 102.37007141 421.06118774 101.89887238 C 421.78729248 101.51224518 422.55337524 101.20329285 423.32913208 100.96003723 C 424.16848755 100.79270935 424.99154663 100.74411774 425.85098267 100.78761292 C 426.72317505 100.94216919 427.56619263 101.18145752 428.43972778 101.49716949 C 429.30273438 101.84109497 430.12182617 102.27539825 430.93533325 102.72760773 C 431.71295166 103.21867371 432.42767334 103.78060913 433.06930542 104.38288879 C 433.62377930 105.05400085 434.07113647 105.78674316 434.42745972 106.55210876 C 434.69216919 107.36898041 434.85876465 108.19274139 434.94943237 109.03197479 C 434.94848633 109.90901184 434.86437988 110.73983002 434.72125244 111.57604218 C 434.48165894 112.40222931 434.17578125 113.17710114 433.80364990 113.90796661 C 433.36172485 114.60804749 432.83767700 115.24337769 432.26309204 115.80954742 C 431.62774658 116.32557678 430.94784546 116.80739594 430.24252319 117.19554901 C 429.49215698 117.54618835 428.73233032 117.82692719 427.93643188 118.06390381 C 427.13931274 118.23867798 426.31460571 118.39605713 425.46539307 118.50883484 C 424.63494873 118.66621399 423.75921631 118.75593567 419.39770508 114.42428589" stroke-width="2.00000000" fill="rgb(239, 232, 182)" opacity="1.0" stroke="rgb(248, 244, 195)" stroke-opacity="0.99895936" stroke-linecap="round" stroke-linejoin="round"/>
  </g>
</svg>
