<?xml version="1.0" ?>
<svg xmlns="http://www.w3.org/2000/svg" version="1.1" width="512" height="512" viewBox="0 0 512 512">
  <defs/>
  <g>
    <path d="M 315.33987427 336.66323853 C 312.79293823 339.08160400 310.12445068 341.37567139 307.29229736 343.43115234 C 304.23611450 345.35751343 300.82315063 346.97253418 297.02038574 348.14086914 C 292.92425537 349.17233276 288.52236938 350.07647705 283.83636475 350.85525513 C 278.93502808 351.50918579 273.95294189 352.12155151 268.80303955 352.74591064 C 263.60775757 353.17538452 258.36361694 353.45983887 253.22801208 353.42312622 C 248.22637939 352.76046753 243.35142517 351.58303833 238.57273865 349.81536865 C 234.04541016 347.43289185 229.72595215 344.47262573 225.65469360 341.09185791 C 221.78250122 337.25561523 218.20835876 332.99893188 214.93994141 328.37426758 C 211.91427612 323.31619263 209.21237183 317.94595337 206.80308533 312.34860229 C 204.73934937 306.53753662 202.88879395 300.47213745 201.38957214 294.21957397 C 200.07878113 287.81042480 199.04316711 281.35470581 198.23335266 274.84045410 C 197.68093872 268.23849487 197.26795959 261.57867432 197.06909180 254.95483398 C 196.96166992 248.40953064 196.97985840 241.95588684 197.19322205 235.55856323 C 197.63308716 229.30595398 198.40814209 223.27487183 199.49584961 217.39123535 C 200.92974854 211.76667786 202.70899963 206.42666626 204.86863708 201.36439514 C 207.41494751 196.57025146 210.31260681 192.10545349 213.66928101 188.08088684 C 217.42492676 184.44641113 221.50373840 181.12629700 225.93946838 178.22413635 C 230.77769470 175.77288818 235.95115662 173.72819519 241.42518616 172.06793213 C 247.17221069 170.77479553 253.07676697 169.89118958 259.11715698 169.45115662 C 265.30047607 169.42752075 271.48483276 169.79919434 277.56127930 170.39613342 C 283.52410889 170.86680603 289.28924561 171.27806091 294.73190308 171.71812439 C 299.85659790 172.05335999 304.43707275 172.48138428 308.36801147 173.08712769 C 311.64730835 173.45515442 314.12893677 173.86660767 315.64590454 174.72434998 C 315.97305298 176.70606995 315.69335938 179.73083496 315.35897827 183.66029358 C 315.20190430 188.44653320 315.27035522 193.95280457 315.31066895 200.08792114 C 315.34100342 206.79734802 315.33258057 214.00994873 315.32894897 221.63291931 C 315.23907471 229.47033691 315.25399780 237.59930420 315.37451172 245.95381165 C 315.28698730 254.47175598 315.24185181 263.05850220 315.30932617 271.77517700 C 315.36016846 280.51278687 315.38476562 289.27856445 315.31604004 298.09240723 C 315.26544189 306.91027832 315.33520508 315.65356445 315.33987427 336.66323853" stroke-width="1.79513979" fill="rgb(213, 200, 182)" opacity="1.0" stroke="rgb(0, 0, 0)" stroke-opacity="0.6992896" stroke-linecap="round" stroke-linejoin="round"/>
    <path d="M 254.89094543 313.06774902 C 252.47526550 315.81835938 250.05241394 318.60928345 247.56484985 321.37493896 C 244.97886658 324.10089111 242.23693848 326.69839478 239.42279053 329.25631714 C 236.43682861 331.71627808 233.34550476 333.95739746 230.10432434 336.07876587 C 226.74670410 337.97280884 223.24661255 339.60488892 219.70170593 341.01116943 C 216.17956543 342.12060547 212.66925049 342.92947388 209.20938110 343.41580200 C 205.98022461 343.48794556 203.01982117 343.18588257 200.37918091 342.44827271 C 198.16854858 341.27124023 196.56008911 339.57806396 195.58351135 337.21231079 C 195.28041077 334.14141846 195.30561829 330.44033813 195.48391724 326.16513062 C 195.54296875 321.34860229 195.53007507 316.15899658 195.55816650 310.50619507 C 195.62825012 304.49740601 195.58140564 298.21969604 195.51676941 291.70181274 C 195.50567627 284.98858643 195.43357849 278.12948608 195.37234497 271.15274048 C 195.40020752 264.11474609 195.39233398 257.06146240 195.38406372 250.00703430 C 195.39796448 243.05020142 195.38580322 236.09130859 195.36639404 229.33564758 C 195.34153748 222.77714539 195.35742188 216.45481873 195.34721375 210.41163635 C 195.32545471 204.73716736 195.38540649 199.36473083 195.49578857 194.49263000 C 195.59823608 190.14146423 195.52386475 186.44238281 194.92385864 183.45071411 C 193.46257019 181.15232849 192.08538818 179.15773010 191.53883362 177.21862793 C 192.01522827 175.35610962 193.57121277 173.78619385 196.18457031 172.62651062 C 199.73013306 171.85838318 204.05499268 171.39236450 208.97613525 170.92294312 C 214.30021667 170.37397766 219.84631348 169.90946960 225.46507263 169.51832581 C 231.04815674 169.18428040 236.36036682 168.88504028 241.29046631 168.66499329 C 245.74024963 168.73966980 249.48283386 169.17420959 252.48338318 170.30311584 C 254.67092896 172.27876282 255.98092651 175.02403259 256.36688232 178.48353577 C 256.11648560 182.65299988 255.65377808 187.48385620 255.22825623 192.84727478 C 255.01641846 198.57827759 254.92814636 204.56169128 254.94943237 210.74812317 C 255.01182556 216.92759705 254.99903870 223.19564819 255.03198242 229.41690063 C 255.00683594 235.63061523 254.98156738 241.86027527 254.97912598 248.00308228 C 254.99066162 254.14588928 255.04138184 260.31161499 255.07809448 266.50616455 C 255.06358337 272.73220825 255.04582214 278.89895630 255.00358582 285.03332520 C 255.03524780 291.17453003 255.06742859 297.27438354 254.89094543 313.06774902" stroke-width="0.37325796" fill="rgb(177, 158, 153)" opacity="1.0" stroke="rgb(0, 0, 0)" stroke-opacity="0.22359872" stroke-linecap="round" stroke-linejoin="round"/>
    <path d="M 305.43380737 345.25695801 C 300.15921021 347.10324097 294.71554565 348.63217163 289.23840332 350.01745605 C 283.72814941 351.16110229 278.09060669 351.97564697 272.41015625 352.44577026 C 266.75158691 352.81069946 261.00799561 353.07165527 255.22911072 353.17745972 C 249.54804993 353.17379761 243.97662354 352.97991943 238.56805420 352.48638916 C 233.19587708 351.85470581 227.95976257 351.08236694 223.03536987 350.15847778 C 218.42211914 348.90747070 214.05995178 347.65133667 210.13418579 346.40209961 C 206.58819580 344.90625000 203.55438232 343.28985596 201.12672424 341.60348511 C 199.18249512 339.83285522 197.89718628 338.15197754 197.55862427 336.67028809 C 198.38320923 335.38299561 199.78558350 333.92910767 201.51840210 332.08053589 C 203.64244080 330.02835083 206.14340210 327.94528198 209.15931702 326.03356934 C 212.68212891 324.23803711 216.54904175 322.50466919 220.61967468 320.88613892 C 224.97253418 319.43954468 229.56997681 318.26824951 234.26426697 317.26202393 C 239.07292175 316.45205688 243.95513916 315.76004028 248.82572937 315.37396240 C 253.66014099 315.11459351 258.47296143 315.17056274 263.17083740 315.48095703 C 267.82019043 315.92694092 272.37918091 316.44036865 276.77972412 317.11932373 C 280.95822144 318.00900269 284.94091797 319.02337646 288.71755981 320.04486084 C 292.21478271 321.18652344 295.40911865 322.48846436 298.36666870 324.02185059 C 301.23846436 325.42971802 303.89468384 326.97711182 306.27536011 328.68066406 C 308.47625732 330.48718262 310.54766846 332.48580933 312.46990967 334.70108032 C 314.33105469 337.06402588 316.15075684 339.53918457 305.43380737 345.25695801" stroke-width="1.73038757" fill="rgb(124, 121, 128)" opacity="1.0" stroke="rgb(39, 36, 40)" stroke-opacity="0.9487459" stroke-linecap="round" stroke-linejoin="round"/>
    <path d="M 300.95779419 171.57534790 C 294.70260620 171.12145996 288.44750977 170.61465454 282.25491333 170.07455444 C 276.14520264 169.62422180 270.12335205 169.37403870 264.12133789 169.28669739 C 258.20761108 169.23937988 252.45234680 169.25326538 246.81143188 169.45452881 C 241.27880859 169.80380249 235.92059326 170.12322998 230.74420166 170.32154846 C 225.75299072 170.42478943 221.03153992 170.76522827 216.55944824 171.25389099 C 212.37713623 171.68455505 208.52749634 172.11495972 205.07682800 172.50645447 C 202.12709045 172.87554932 199.61491394 173.24345398 197.69827271 173.52885437 C 196.40287781 173.59350586 195.72404480 173.60511780 195.84020996 173.45463562 C 196.76086426 173.11022949 198.33088684 172.72116089 200.51716614 172.26820374 C 203.21234131 171.87101746 206.41362000 171.53041077 209.99761963 171.30638123 C 213.98541260 170.92396545 218.31948853 170.54743958 222.86357117 170.24151611 C 227.64932251 169.98469543 232.62513733 169.71304321 237.76496887 169.54048157 C 242.99223328 169.42361450 248.22457886 169.27882385 253.42257690 169.12753296 C 258.75585938 169.00685120 264.05657959 168.98886108 269.34362793 169.08323669 C 274.59033203 169.23530579 279.73968506 169.42007446 284.87881470 169.80804443 C 289.89041138 170.23983765 294.72906494 170.55560303 299.37701416 170.90051270 C 303.81118774 171.31216431 307.84124756 171.80502319 311.48641968 172.47532654 C 314.52505493 173.26571655 316.84243774 174.26126099 318.42684937 175.43153381 C 319.05780029 176.83401489 319.35604858 177.52742004 319.69229126 176.97389221 C 320.09808350 175.30543518 320.66378784 173.14013672 300.95779419 171.57534790" stroke-width="0.56769049" fill="rgb(10, 7, 8)" opacity="1.0" stroke="rgb(74, 73, 73)" stroke-opacity="0.9902328" stroke-linecap="round" stroke-linejoin="round"/>
    <path d="M 243.82679749 118.62731171 C 239.28337097 122.94566345 234.69132996 127.20756531 230.29438782 131.67678833 C 225.86897278 136.11845398 221.43934631 140.52345276 217.09655762 144.93563843 C 212.80651855 149.27017212 208.60050964 153.45368958 204.65695190 157.53335571 C 200.95545959 161.39305115 197.56909180 164.91729736 194.67120361 168.14277649 C 192.24557495 170.96806335 190.92317200 173.55755615 189.95266724 175.38671875 C 188.49407959 175.68452454 186.90527344 174.98921204 186.06817627 173.84973145 C 186.52113342 172.37878418 187.83067322 170.36022949 189.75320435 167.79357910 C 192.17646790 164.75642395 195.13514709 161.40888977 198.42405701 157.73550415 C 201.90289307 153.80784607 205.76895142 149.87110901 209.58700562 145.66685486 C 213.58682251 141.49247742 217.62420654 137.46684265 220.86535645 132.75688171 C 224.23036194 127.98809814 228.12767029 123.62066650 232.20707703 119.49985504 C 236.35656738 115.53386688 241.02285767 112.22845459 245.92045593 109.20120239 C 250.38102722 105.16955566 254.89411926 101.11390686 259.43634033 97.30298615 C 263.76046753 93.65976715 267.78741455 90.30130768 271.47842407 87.42162323 C 274.68743896 84.90777588 277.23974609 82.88475037 278.91976929 81.65187073 C 279.77688599 82.02139282 280.41799927 82.79942322 280.47531128 83.57694244 C 279.17495728 84.61635590 277.41134644 86.62944031 274.98934937 88.96673584 C 272.24905396 91.80148315 268.89825439 94.67910004 265.43502808 97.98748016 C 261.72045898 101.45220947 257.87695312 105.01780701 254.07824707 108.80358887 C 250.05812073 112.42150116 246.22227478 116.26039886 243.82679749 118.62731171" stroke-width="1.46627975" fill="rgb(171, 187, 188)" opacity="1.0" stroke="rgb(11, 19, 21)" stroke-opacity="0.8023033" stroke-linecap="round" stroke-linejoin="round"/>
    <path d="M 226.77160645 119.43539429 C 228.25119019 117.73622894 229.87509155 116.25019836 231.24232483 114.64072418 C 232.57095337 113.27194214 233.86300659 112.12225342 234.90199280 110.95273590 C 235.91418457 109.99293518 236.67507935 109.34721375 237.20910645 109.02162933 C 237.94084167 109.29311371 238.70385742 109.75667572 239.09678650 110.28807068 C 238.90794373 111.11919403 238.33480835 111.93572235 237.44691467 112.87073517 C 236.21575928 114.01500702 234.68286133 115.20843506 233.03305054 116.68997955 C 231.46195984 118.48561096 229.77896118 120.22805023 227.97773743 121.98486328 C 226.33084106 123.87167358 224.68376160 125.53594971 223.24214172 127.19891357 C 222.04168701 128.69041443 220.79348755 129.75143433 219.42651367 129.98400879 C 217.76863098 129.18319702 216.08511353 128.78152466 226.77160645 119.43539429" stroke-width="1.77253568" fill="rgb(19, 129, 92)" opacity="1.0" stroke="rgb(0, 54, 29)" stroke-opacity="0.8379811" stroke-linecap="round" stroke-linejoin="round"/>
    <path d="M 297.04180908 311.52462769 C 296.20410156 311.92083740 295.41082764 312.12182617 294.61102295 312.07342529 C 293.85949707 311.85229492 293.26696777 311.33749390 292.84173584 310.49234009 C 292.74090576 309.27502441 292.76696777 307.74362183 292.87390137 305.86196899 C 292.85665894 303.66616821 292.83505249 301.10003662 292.78524780 298.25546265 C 292.79409790 295.06195068 292.83688354 291.56414795 292.85803223 287.73034668 C 292.71936035 283.60574341 292.75195312 279.23098755 292.82958984 274.54867554 C 292.79144287 269.60702515 292.68066406 264.47732544 292.81921387 259.12701416 C 292.95709229 253.71461487 292.88558960 248.11386108 292.84320068 242.55584717 C 292.80838013 236.99824524 292.86099243 231.47645569 292.81588745 226.14523315 C 292.85671997 220.98655701 292.89099121 216.10826111 292.91592407 211.52809143 C 292.90963745 207.34819031 292.84182739 203.63012695 292.85964966 200.39317322 C 292.76400757 197.72416687 292.81503296 195.71406555 293.31335449 194.30670166 C 294.15618896 193.56277466 295.24078369 193.49710083 296.31341553 193.94447327 C 296.94796753 194.86122131 297.09487915 196.39022827 297.02023315 198.42755127 C 297.00836182 201.00602722 297.01312256 204.08088684 297.03533936 207.60382080 C 297.00939941 211.48901367 296.94992065 215.75595093 296.99929810 220.24397278 C 296.99356079 225.00169373 297.00802612 229.95497131 297.03125000 235.04655457 C 297.01400757 240.29515076 296.98965454 245.66273499 297.01446533 251.08113098 C 297.01763916 256.56246948 297.05505371 262.11816406 297.09115601 267.63327026 C 297.11441040 273.14877319 297.23941040 278.78652954 297.04180908 311.52462769" stroke-width="1.94449091" fill="rgb(215, 208, 190)" opacity="1.0" stroke="rgb(48, 43, 38)" stroke-opacity="0.8515782" stroke-linecap="round" stroke-linejoin="round"/>
    <path d="M 221.07359314 312.10296631 C 219.86840820 312.96493530 218.70077515 313.65933228 217.48832703 314.08782959 C 216.19825745 314.17950439 214.96296692 314.01910400 213.85313416 313.57623291 C 212.97833252 312.71444702 212.35958862 311.46884155 212.04315186 309.72445679 C 211.94947815 307.49911499 211.99641418 304.83596802 211.98518372 301.73364258 C 212.01727295 298.23208618 212.01325989 294.36944580 212.00926208 290.16693115 C 211.99237061 285.60241699 211.97877502 280.78186035 211.96746826 275.69973755 C 211.98458862 270.39093018 212.01562500 264.88708496 211.97778320 259.28384399 C 212.03192139 253.56521606 212.03137207 247.79818726 212.03988647 242.03851318 C 211.98583984 236.31739807 212.00567627 230.71766663 212.05462646 225.24137878 C 212.08818054 220.05953979 212.07962036 215.05850220 212.02256775 210.42866516 C 212.01583862 206.18182373 212.03868103 202.38973999 212.07182312 199.08093262 C 212.20121765 196.36230469 212.66061401 194.26760864 213.55766296 192.77619934 C 214.86418152 191.95468140 216.37182617 191.69021606 217.88752747 191.92692566 C 219.23002625 192.73205566 220.33580017 194.06973267 220.96980286 196.09609985 C 221.06300354 198.72550964 221.02209473 202.00218201 221.06483459 205.76664734 C 220.98768616 209.92778015 221.05722046 214.57531738 221.01553345 219.51856995 C 221.01092529 224.72242737 221.02000427 230.18617249 221.07884216 235.81932068 C 221.01321411 241.56910706 221.02143860 247.48368835 221.03791809 253.44033813 C 221.02807617 259.47027588 221.00468445 265.51928711 221.03419495 271.62155151 C 221.10461426 277.66757202 221.10379028 283.77496338 221.07359314 312.10296631" stroke-width="0.00000000" fill="rgb(132, 118, 115)" opacity="1.0" stroke="rgb(202, 243, 243)" stroke-opacity="0.18263696" stroke-linecap="round" stroke-linejoin="round"/>
  </g>
</svg>
