<?xml version="1.0" ?>
<svg xmlns="http://www.w3.org/2000/svg" version="1.1" width="512" height="512" viewBox="0 0 512 512">
  <defs/>
  <g>
    <path d="M 364.16363525 353.02902222 C 358.39422607 355.68923950 352.48583984 357.94845581 346.41812134 359.81808472 C 340.35900879 361.50177002 334.20721436 362.81781006 328.08862305 363.99984741 C 321.80541992 365.18365479 315.64093018 366.17712402 309.47140503 366.83966064 C 303.18762207 367.63424683 296.95474243 368.35635376 290.75305176 368.55471802 C 284.42828369 368.76376343 277.98855591 369.31298828 271.50253296 369.49118042 C 264.96621704 369.66781616 258.26809692 369.88635254 251.49034119 369.86871338 C 244.67019653 369.55404663 237.81748962 369.40435791 230.89855957 369.16207886 C 223.91128540 368.76977539 216.91467285 368.33108521 209.99626160 367.47201538 C 203.11506653 366.66522217 196.17381287 365.80596924 189.34609985 364.77835083 C 182.75654602 363.57513428 176.37712097 361.99627686 170.16667175 360.55172729 C 164.30932617 359.06539917 158.78970337 357.35501099 153.89724731 355.31051636 C 149.57292175 353.14761353 145.78393555 350.70852661 142.84970093 348.07821655 C 140.63423157 345.24707031 139.38206482 342.11444092 138.97413635 338.81176758 C 138.86540222 335.62869263 139.67366028 332.68371582 141.34677124 329.95529175 C 144.00830078 327.54943848 147.46138000 325.49761963 151.52813721 323.50146484 C 155.98651123 321.22586060 160.83709717 319.01614380 166.11186218 316.96563721 C 171.75471497 315.07031250 177.69383240 313.31549072 183.82461548 311.69338989 C 190.05581665 310.18853760 196.42655945 308.85534668 202.89576721 307.66241455 C 209.44390869 306.57168579 215.95877075 305.58575439 222.41918945 304.78829956 C 228.86585999 304.09918213 235.29939270 303.59655762 241.71476746 303.19094849 C 248.04847717 302.96459961 254.37380981 302.80035400 260.67041016 302.79248047 C 266.89337158 302.93670654 273.08380127 303.25415039 279.25646973 303.68475342 C 285.43823242 304.29104614 291.56570435 305.02560425 297.66427612 305.92291260 C 303.75323486 306.92199707 309.79788208 308.01150513 315.73977661 309.27545166 C 321.57928467 310.69168091 327.30386353 312.17071533 332.93511963 313.68347168 C 338.46496582 315.25415039 343.77224731 316.86761475 348.78979492 318.47915649 C 353.57440186 320.06353760 358.12268066 321.69387817 362.36288452 323.34576416 C 366.14669800 325.13595581 369.47738647 327.12933350 372.11297607 329.31826782 C 374.14572144 331.67172241 375.17227173 334.31277466 375.28738403 337.44140625 C 375.40121460 341.14517212 375.57000732 344.93630981 364.16363525 353.02902222" stroke-width="1.25415826" fill="rgb(248, 185, 81)" opacity="1.0" stroke="rgb(210, 137, 0)" stroke-opacity="0.26310462" stroke-linecap="round" stroke-linejoin="round"/>
    <path d="M 364.08633423 311.46694946 C 362.89208984 315.33016968 360.83312988 318.39047241 357.53881836 320.49008179 C 352.51730347 321.88876343 346.65420532 323.53131104 340.14334106 325.15048218 C 332.87847900 326.71017456 325.29876709 327.94369507 317.50015259 328.81030273 C 309.63156128 329.80398560 301.81500244 330.60546875 294.10678101 331.22503662 C 286.51333618 331.82916260 278.99777222 332.17565918 271.64120483 332.33264160 C 264.42425537 332.41317749 257.28482056 332.42584229 250.21597290 332.35006714 C 243.24539185 332.17401123 236.32527161 331.96658325 229.39373779 331.44705200 C 222.51290894 331.01791382 215.71542358 330.67529297 208.91180420 330.30151367 C 202.17184448 329.98226929 195.59016418 329.13284302 189.11322021 328.15270996 C 182.73358154 327.26327515 176.56335449 326.19125366 170.80541992 325.01263428 C 165.50039673 323.76971436 160.55720520 322.48135376 156.37550354 321.40081787 C 153.25318909 319.80783081 150.90370178 317.68676758 149.18226624 315.24633789 C 148.07556152 312.47406006 147.62855530 309.49279785 147.99334717 306.61895752 C 149.03706360 303.46099854 150.82890320 301.01181030 153.10566711 299.04071045 C 155.10527039 297.77645874 157.15159607 297.97390747 159.73587036 299.15695190 C 163.22209167 300.06240845 167.32571411 300.97442627 171.71505737 301.93856812 C 176.34837341 302.79269409 180.93948364 304.03265381 185.39819336 306.04376221 C 190.09556580 307.60446167 195.05854797 308.46118164 200.32507324 308.71044922 C 205.93850708 308.39434814 211.89443970 307.63107300 218.15451050 306.47183228 C 224.64669800 305.03454590 231.39111328 303.45837402 238.42512512 301.77835083 C 245.70616150 300.10440063 253.20225525 298.45098877 260.90682983 296.88323975 C 268.76458740 295.47155762 276.67572021 294.23303223 284.53948975 293.16946411 C 292.32125854 292.27835083 299.99261475 291.64022827 307.49667358 291.34103394 C 314.65292358 291.28030396 321.31106567 291.37200928 327.43212891 291.55245972 C 332.86120605 291.88937378 337.33068848 292.53002930 340.78228760 293.35037231 C 343.01766968 293.97103882 343.79678345 295.08624268 343.25427246 296.58334351 C 341.51550293 298.55465698 339.04824829 300.38528442 336.86663818 301.94854736 C 335.61608887 303.33453369 335.81533813 304.09750366 337.57113647 303.94302368 C 340.85290527 303.28210449 345.29385376 301.75335693 350.66394043 300.01528931 C 356.31658936 297.80972290 362.47967529 295.55108643 364.08633423 311.46694946" stroke-width="0.75264186" fill="rgb(160, 112, 20)" opacity="1.0" stroke="rgb(168, 105, 48)" stroke-opacity="0.42385712" stroke-linecap="round" stroke-linejoin="round"/>
    <path d="M 315.45043945 323.95324707 C 308.32150269 321.37875366 301.07287598 319.34521484 293.83801270 317.62753296 C 286.81671143 315.96386719 280.09182739 314.34066772 273.82156372 312.70758057 C 268.14389038 311.14743042 262.75170898 310.92507935 257.45065308 312.48782349 C 251.79798889 314.72225952 245.66508484 316.92764282 239.45945740 319.05117798 C 233.39553833 321.42712402 227.44869995 324.05529785 221.68391418 326.14498901 C 216.80526733 328.22219849 213.49784851 330.34460449 210.91772461 329.86108398 C 207.58283997 326.48779297 203.21121216 321.83395386 198.39816284 317.15069580 C 193.35313416 312.70465088 188.44795227 308.19448853 184.32818604 303.42871094 C 180.01380920 299.92208862 175.54341125 297.53573608 171.67707825 295.44000244 C 168.62878418 293.79888916 166.59686279 292.75912476 166.09436035 292.19778442 C 167.32084656 291.39361572 170.28276062 290.46981812 174.68016052 289.45568848 C 180.27262878 288.37689209 186.86698914 287.51693726 194.28997803 286.90267944 C 202.43585205 286.51272583 211.07875061 286.37609863 219.94490051 286.67687988 C 228.86315918 287.68884277 237.53810120 289.47067261 245.65850830 292.02981567 C 252.77392578 295.39828491 258.35964966 299.54437256 262.96975708 303.34500122 C 268.67214966 303.86706543 274.79165649 304.13088989 280.90777588 304.58166504 C 287.09304810 304.79223633 293.39401245 304.77810669 299.67211914 304.76858521 C 305.79391479 304.92968750 311.75613403 304.85824585 317.59219360 304.62506104 C 323.18051147 304.26501465 328.42382812 303.52197266 333.40689087 302.27722168 C 338.16052246 300.78192139 342.55752563 299.17526245 315.45043945 323.95324707" stroke-width="2.00000000" fill="rgb(252, 221, 7)" opacity="1.0" stroke="rgb(104, 206, 3)" stroke-opacity="0.22195725" stroke-linecap="round" stroke-linejoin="round"/>
    <path d="M 351.40380859 290.28829956 C 346.80233765 291.37786865 342.22848511 292.52539062 337.45944214 293.17306519 C 332.86245728 293.74288940 328.21832275 294.50006104 323.49496460 295.62197876 C 318.72070312 296.53567505 313.90841675 297.30786133 308.91543579 297.91735840 C 303.91806030 298.31915283 298.93814087 298.57629395 293.91894531 298.86172485 C 288.73074341 299.17526245 283.54232788 299.35226440 278.40002441 299.21981812 C 273.15374756 299.24197388 267.80764771 299.16198730 262.43429565 298.86523438 C 257.02606201 298.41223145 251.48368835 298.48257446 245.79437256 298.38790894 C 239.92050171 297.89852905 233.97361755 297.51437378 228.08523560 296.89389038 C 222.12638855 296.30807495 216.10902405 295.74844360 210.33563232 295.06820679 C 204.64099121 294.14321899 198.95796204 293.75131226 193.49989319 292.75057983 C 188.20082092 291.96386719 182.96075439 291.08370972 178.03768921 290.45605469 C 173.52449036 290.79672241 169.32824707 291.35815430 165.75639343 291.56558228 C 163.05346680 292.05541992 161.00086975 291.46414185 159.63342285 290.33483887 C 159.06626892 288.39294434 158.71406555 286.04663086 158.59417725 283.28417969 C 158.52641296 280.45266724 158.97012329 277.61596680 160.10882568 274.95913696 C 161.96362305 272.63964844 164.52626038 270.56848145 167.70639038 268.71206665 C 171.47756958 267.12567139 175.71160889 265.74975586 180.41677856 264.52667236 C 185.47570801 263.51879883 190.80383301 262.73486328 196.33070374 262.06207275 C 201.96990967 261.42001343 207.70321655 260.86694336 213.52178955 260.42199707 C 219.41999817 260.11990356 225.30027771 259.91958618 231.16075134 259.75656128 C 237.04125977 259.63241577 242.92329407 259.57077026 248.80311584 259.57226562 C 254.68159485 259.62030029 260.57650757 259.66729736 266.51245117 259.74191284 C 272.42681885 259.82583618 278.31079102 260.00567627 284.19317627 260.37246704 C 290.04537964 260.82907104 295.89984131 261.33584595 301.75439453 261.95639038 C 307.59777832 262.73367310 313.30880737 263.65322876 318.92968750 264.64364624 C 324.38516235 265.69436646 329.69491577 266.85968018 334.72854614 268.10250854 C 339.42260742 269.37539673 343.72689819 270.61309814 347.60659790 271.72192383 C 350.93899536 272.57318115 353.58825684 273.32049561 355.23010254 274.56838989 C 355.70974731 276.60592651 355.91122437 279.13040161 356.26242065 282.24548340 C 355.94192505 285.56268311 356.09591675 289.13778687 351.40380859 290.28829956" stroke-width="2.00000000" fill="rgb(205, 34, 26)" opacity="1.0" stroke="rgb(134, 249, 83)" stroke-opacity="0.21390778" stroke-linecap="round" stroke-linejoin="round"/>
    <path d="M 361.61401367 253.45890808 C 354.77636719 256.68054199 347.81738281 259.72677612 340.61169434 262.34863281 C 333.04992676 264.37231445 325.17700195 265.95663452 316.91213989 267.11016846 C 308.30120850 267.78909302 299.48413086 268.14089966 290.65911865 268.36172485 C 281.87765503 268.54907227 273.31387329 268.84957886 265.28695679 269.33477783 C 257.94046021 270.28915405 251.45358276 271.94158936 246.19227600 274.58053589 C 242.58178711 278.56838989 239.24499512 282.03906250 235.31407166 284.10665894 C 231.25505066 284.89120483 227.58042908 283.61975098 224.73747253 280.87246704 C 222.61061096 277.65695190 220.48265076 275.83221436 217.76803589 276.48171997 C 214.19396973 279.16595459 210.04182434 281.93206787 205.54594421 283.60308838 C 201.62440491 283.46826172 198.61955261 281.16632080 196.38101196 277.14999390 C 193.46864319 272.85369873 188.95794678 269.47247314 182.97457886 267.16717529 C 176.04180908 265.56710815 168.89546204 264.11477661 162.07897949 262.34606934 C 155.97592163 259.93078613 151.02326965 256.46505737 147.46205139 251.80192566 C 144.12548828 246.99218750 141.84321594 242.10760498 141.16957092 236.73356628 C 141.14268494 231.27870178 142.22335815 226.12036133 144.71778870 221.10751343 C 147.90122986 216.00865173 152.00891113 211.54223633 156.55502319 207.25669861 C 161.64167786 203.37882996 166.89970398 199.86705017 172.61845398 196.72882080 C 178.52104187 193.88713074 184.56942749 191.42268372 190.72212219 189.06503296 C 197.00914001 186.83111572 203.32888794 184.91323853 209.77313232 183.36193848 C 216.33190918 181.98451233 222.90090942 180.86798096 229.53021240 180.15901184 C 236.16848755 179.43832397 242.84045410 178.84091187 249.46655273 178.59561157 C 256.13720703 178.45188904 262.82031250 178.40728760 269.34298706 178.45103455 C 275.70678711 178.54942322 282.06506348 179.16960144 288.41647339 179.99655151 C 294.63040161 180.88909912 300.64529419 181.91854858 306.65689087 183.39981079 C 312.54046631 184.71745300 318.22897339 186.11381531 323.77713013 188.14782715 C 329.13696289 190.36291504 334.36700439 192.58253479 339.33319092 195.17939758 C 344.22604370 197.75740051 348.74255371 200.53768921 352.93054199 203.69633484 C 356.92675781 206.75675964 360.49926758 210.11636353 363.77877808 213.85754395 C 366.72842407 217.95524597 368.89599609 222.48892212 370.30151367 227.77079773 C 371.60592651 233.43168640 373.05038452 239.14678955 361.61401367 253.45890808" stroke-width="1.21155488" fill="rgb(246, 183, 75)" opacity="1.0" stroke="rgb(201, 137, 0)" stroke-opacity="0.24764898" stroke-linecap="round" stroke-linejoin="round"/>
    <path d="M 349.13354492 282.91143799 C 334.58413696 279.63513184 325.75338745 273.33764648 319.41409302 275.12927246 C 311.00833130 284.74276733 301.18414307 285.64544678 292.71850586 277.28414917 C 286.37780762 276.61557007 280.35922241 283.12167358 271.78494263 287.83203125 C 262.76925659 287.92346191 256.30377197 281.91366577 251.19984436 274.25161743 C 244.46702576 274.39843750 235.64289856 277.22817993 224.49707031 276.73519897 C 212.06706238 276.76596069 200.45986938 275.44207764 190.94436646 273.08038330 C 183.99877930 278.22140503 177.41996765 283.54605103 169.81814575 284.41381836 C 163.12550354 283.26922607 160.14369202 279.33532715 161.16584778 273.82263184 C 162.81895447 268.40524292 161.22927856 265.56802368 156.04280090 266.01190186 C 149.44511414 268.34667969 143.36015320 268.77465820 139.60197449 265.74423218 C 139.20951843 261.34414673 142.91398621 257.34042358 149.00102234 255.23954773 C 155.77069092 257.63839722 164.19282532 261.36071777 174.93743896 263.92105103 C 187.56950378 266.27081299 201.70755005 267.41741943 217.09243774 267.56585693 C 233.23103333 267.76281738 249.65705872 267.86248779 266.01821899 267.71157837 C 281.96920776 267.41906738 297.18734741 266.54556274 311.54534912 265.48535156 C 324.75082397 264.39089966 336.34753418 262.40072632 346.02444458 259.47036743 C 353.80899048 255.90835571 360.10681152 253.81851196 365.50302124 254.49078369 C 369.92501831 256.22219849 372.51776123 258.59143066 372.50469971 261.49990845 C 370.41372681 264.60784912 366.81631470 266.23596191 361.99307251 265.55343628 C 356.88714600 263.76046753 353.03552246 261.36401367 349.13354492 282.91143799" stroke-width="1.85691249" fill="rgb(165, 210, 104)" opacity="1.0" stroke="rgb(109, 146, 61)" stroke-opacity="0.60773283" stroke-linecap="round" stroke-linejoin="round"/>
    <path d="M 283.58392334 219.39459229 C 285.03976440 219.71902466 286.52020264 220.21908569 287.90985107 220.76922607 C 289.27578735 221.01008606 290.59631348 221.16656494 291.86877441 221.39950562 C 292.98263550 221.56098938 293.80282593 221.63410950 294.55831909 221.62309265 C 295.11688232 221.88171387 295.51727295 222.23406982 295.75177002 222.64379883 C 295.78326416 223.12988281 295.64627075 223.63584900 295.43014526 224.08906555 C 295.07766724 224.42286682 294.58462524 224.61805725 294.00631714 224.79917908 C 293.21682739 224.79585266 292.27822876 224.70886230 291.35870361 224.65672302 C 290.36807251 224.54313660 289.24011230 224.26069641 288.09445190 223.88305664 C 286.84814453 223.57740784 285.46612549 223.36613464 283.94503784 223.09741211 C 282.46270752 222.66845703 281.00390625 222.09939575 283.58392334 219.39459229" stroke-width="0.98328310" fill="rgb(250, 249, 234)" opacity="1.0" stroke="rgb(229, 213, 165)" stroke-opacity="0.6207153" stroke-linecap="round" stroke-linejoin="round"/>
    <path d="M 226.74012756 187.06387329 C 227.67279053 186.99592590 228.52458191 186.91467285 229.29319763 186.80555725 C 230.08663940 186.58248901 230.84941101 186.53511047 231.57220459 186.71551514 C 232.20353699 186.95793152 232.72842407 187.15690613 233.15672302 187.34248352 C 233.47518921 187.52383423 233.60644531 187.68518066 233.61451721 187.86460876 C 233.37905884 188.10444641 233.00224304 188.31213379 232.53404236 188.56072998 C 231.92860413 188.80717468 231.19004822 188.96743774 230.52006531 188.98342896 C 229.80285645 188.97428894 229.05447388 189.05094910 228.31909180 189.19747925 C 227.61502075 189.67355347 226.84202576 190.04586792 226.02757263 190.32708740 C 225.37255859 190.51304626 224.71359253 190.37219238 224.01858521 189.99064636 C 223.32461548 189.54501343 222.55101013 189.01676941 226.74012756 187.06387329" stroke-width="0.78576589" fill="rgb(253, 249, 226)" opacity="1.0" stroke="rgb(241, 245, 221)" stroke-opacity="0.6432772" stroke-linecap="round" stroke-linejoin="round"/>
    <path d="M 277.48080444 188.75164795 C 277.89248657 189.07447815 278.43527222 189.36228943 278.93255615 189.61361694 C 279.22225952 190.00813293 279.43106079 190.41654968 279.73263550 190.69136047 C 280.10540771 190.76600647 280.42230225 190.79396057 280.66674805 190.90527344 C 280.76519775 191.09693909 280.68997192 191.24253845 280.44949341 191.39704895 C 280.13113403 191.53361511 279.78137207 191.72436523 279.37796021 191.85870361 C 278.89868164 191.97637939 278.31402588 192.07025146 277.56945801 192.20478821 C 276.85168457 192.17840576 276.13052368 192.13232422 275.40426636 192.13880920 C 274.65789795 192.01112366 273.84844971 191.91734314 272.95263672 191.77832031 C 272.01116943 191.67907715 271.24908447 191.43803406 270.75115967 190.82972717 C 270.25323486 190.01451111 269.63214111 188.98390198 277.48080444 188.75164795" stroke-width="0.87946576" fill="rgb(252, 250, 240)" opacity="1.0" stroke="rgb(241, 226, 199)" stroke-opacity="0.6981344" stroke-linecap="round" stroke-linejoin="round"/>
    <path d="M 331.81018066 209.40153503 C 332.74746704 209.77098083 333.67346191 210.13165283 334.60693359 210.45658875 C 335.50369263 210.69419861 336.28506470 211.03013611 336.97305298 211.45864868 C 337.61935425 211.88862610 338.07812500 212.29800415 338.41030884 212.64189148 C 338.63031006 212.91877747 338.50454712 213.30908203 338.10668945 213.63949585 C 337.68301392 213.90093994 337.22625732 214.14886475 336.71673584 214.35371399 C 336.09576416 214.41552734 335.45889282 214.37957764 334.77630615 214.32463074 C 334.05749512 214.03117371 333.31881714 213.74266052 332.52334595 213.56225586 C 331.80090332 213.20889282 331.10302734 212.97463989 330.44183350 212.69398499 C 329.86343384 212.19979858 329.46148682 211.54696655 329.24884033 210.81651306 C 329.02804565 210.09098816 328.74917603 209.38929749 331.81018066 209.40153503" stroke-width="0.94577539" fill="rgb(251, 245, 221)" opacity="1.0" stroke="rgb(236, 222, 178)" stroke-opacity="0.56441206" stroke-linecap="round" stroke-linejoin="round"/>
    <path d="M 257.48226929 198.87052917 C 256.83688354 198.73994446 256.24481201 198.73602295 255.71237183 198.67428589 C 255.33267212 198.40997314 255.03967285 198.01467896 254.75611877 197.63000488 C 254.52685547 197.30314636 254.23768616 196.99142456 254.00769043 196.65777588 C 253.90998840 196.37023926 254.04444885 196.14363098 254.28770447 195.98855591 C 254.58956909 195.80296326 255.02301025 195.74287415 255.49406433 195.71031189 C 256.02954102 195.64248657 256.60848999 195.55580139 257.22778320 195.50186157 C 257.78839111 195.34614563 258.34945679 195.14994812 258.95953369 195.14973450 C 259.62338257 195.20756531 260.27593994 195.27621460 260.85421753 195.33647156 C 261.35986328 195.47344971 261.89596558 195.66604614 262.42831421 196.01850891 C 262.87265015 196.50224304 263.25247192 197.05921936 257.48226929 198.87052917" stroke-width="0.94173145" fill="rgb(252, 247, 225)" opacity="1.0" stroke="rgb(246, 243, 213)" stroke-opacity="0.5945672" stroke-linecap="round" stroke-linejoin="round"/>
    <path d="M 312.27972412 213.05509949 C 311.69509888 212.61296082 311.02172852 212.34637451 310.28643799 212.08375549 C 309.55984497 211.64828491 308.98486328 211.32720947 308.54129028 210.98558044 C 308.09381104 210.47816467 307.74996948 209.92092896 307.51443481 209.47116089 C 307.36660767 209.19830322 307.41442871 208.92588806 307.70855713 208.61056519 C 308.06353760 208.26300049 308.43005371 208.02476501 308.93801880 207.99601746 C 309.52597046 208.07920837 310.16455078 208.24499512 310.79495239 208.65423584 C 311.49774170 209.03010559 312.24594116 209.35276794 313.03195190 209.69813538 C 313.86264038 210.07951355 314.58874512 210.42808533 315.10202026 210.78907776 C 315.44104004 211.19406128 315.64495850 211.80580139 315.62457275 212.45028687 C 315.73553467 213.03671265 315.79589844 213.64918518 312.27972412 213.05509949" stroke-width="0.98094493" fill="rgb(252, 251, 241)" opacity="1.0" stroke="rgb(229, 221, 198)" stroke-opacity="0.534461" stroke-linecap="round" stroke-linejoin="round"/>
    <path d="M 192.27642822 209.29559326 C 192.73626709 209.32868958 193.19836426 209.40145874 193.57868958 209.44624329 C 193.94252014 209.49345398 194.31236267 209.55676270 194.63150024 209.65036011 C 194.79861450 209.82685852 194.79197693 210.04513550 194.71717834 210.35899353 C 194.67169189 210.73837280 194.51658630 211.05592346 194.31874084 211.35221863 C 193.87416077 211.54981995 193.42854309 211.78181458 193.05108643 212.15014648 C 192.62263489 212.53871155 192.24845886 212.94523621 191.86105347 213.37231445 C 191.37007141 213.58537292 190.82707214 213.63809204 190.22990417 213.61256409 C 189.60395813 213.62562561 189.00996399 213.60525513 188.53312683 213.58778381 C 188.10214233 213.47482300 187.69979858 213.14640808 187.34629822 212.59202576 C 187.03643799 211.95741272 186.74406433 211.33520508 192.27642822 209.29559326" stroke-width="1.04183173" fill="rgb(252, 246, 222)" opacity="1.0" stroke="rgb(239, 218, 173)" stroke-opacity="0.57799995" stroke-linecap="round" stroke-linejoin="round"/>
    <path d="M 271.16705322 181.64274597 C 271.17868042 182.06872559 271.16342163 182.46051025 271.12368774 182.78965759 C 270.98699951 183.14080811 270.79956055 183.49176025 270.47683716 183.80870056 C 270.11123657 184.04286194 269.74691772 184.24928284 269.32986450 184.46438599 C 268.85601807 184.64033508 268.36340332 184.63813782 267.85510254 184.52856445 C 267.30526733 184.53330994 266.72961426 184.58587646 266.11917114 184.55448914 C 265.57397461 184.38122559 265.05404663 184.25999451 264.51925659 184.18374634 C 264.07839966 184.05271912 263.69467163 183.82009888 263.39538574 183.56726074 C 263.16302490 183.31704712 263.10040283 182.97865295 263.09381104 182.70205688 C 263.28280640 182.35156250 263.66024780 182.04562378 264.14199829 181.65724182 C 264.83807373 181.33641052 265.43154907 180.79331970 271.16705322 181.64274597" stroke-width="0.81279600" fill="rgb(249, 249, 231)" opacity="1.0" stroke="rgb(226, 209, 204)" stroke-opacity="0.39708623" stroke-linecap="round" stroke-linejoin="round"/>
    <path d="M 245.64402771 190.81381226 C 245.29400635 190.66757202 244.92630005 190.60420227 244.47219849 190.53077698 C 244.04077148 190.30264282 243.70411682 190.06660461 243.47326660 189.81526184 C 243.30458069 189.54559326 243.14338684 189.23635864 243.09182739 188.97888184 C 243.17306519 188.71784973 243.40982056 188.50381470 243.77780151 188.32373047 C 244.23374939 188.14311218 244.77235413 188.01219177 245.35116577 187.86309814 C 245.95416260 187.75524902 246.58917236 187.73367310 247.19223022 187.84349060 C 247.76066589 188.00349426 248.29455566 188.09109497 248.88253784 188.12091064 C 249.44998169 188.13781738 250.04006958 188.24580383 250.62205505 188.39291382 C 251.09977722 188.56254578 251.44079590 188.75842285 251.60218811 189.17848206 C 251.56614685 189.82629395 251.55978394 190.62989807 245.64402771 190.81381226" stroke-width="0.87874800" fill="rgb(255, 254, 241)" opacity="1.0" stroke="rgb(234, 242, 240)" stroke-opacity="0.52727664" stroke-linecap="round" stroke-linejoin="round"/>
    <path d="M 239.93852234 210.61834717 C 240.06274414 210.88475037 240.16084290 211.15173340 240.22518921 211.43429565 C 240.25737000 211.72160339 240.21932983 211.96754456 240.11720276 212.27822876 C 239.96667480 212.59835815 239.74996948 212.89503479 239.44976807 213.14894104 C 239.12025452 213.42835999 238.78591919 213.65936279 238.43605042 213.89727783 C 238.08349609 214.06585693 237.56713867 214.12213135 237.06271362 214.20196533 C 236.53450012 214.19908142 235.96484375 214.21479797 235.38891602 214.32164001 C 234.83801270 214.35455322 234.26542664 214.13832092 233.65979004 213.81881714 C 233.06965637 213.67311096 232.55406189 213.65342712 232.04020691 213.49003601 C 231.70066833 213.23138428 231.58592224 212.86369324 231.73554993 212.34439087 C 232.14135742 211.57728577 232.60142517 210.64733887 239.93852234 210.61834717" stroke-width="0.89232677" fill="rgb(252, 249, 230)" opacity="1.0" stroke="rgb(240, 227, 181)" stroke-opacity="0.62979037" stroke-linecap="round" stroke-linejoin="round"/>
    <path d="M 314.64913940 224.60290527 C 315.05459595 224.90902710 315.52960205 225.22076416 316.07760620 225.42602539 C 316.56582642 225.40258789 317.09060669 225.41186523 317.51574707 225.49598694 C 317.90084839 225.65621948 318.24832153 225.91418457 318.53723145 226.18089294 C 318.73721313 226.57302856 318.93557739 226.93496704 318.93771362 227.28115845 C 318.82409668 227.67277527 318.53109741 228.00822449 318.14898682 228.32208252 C 317.72970581 228.66983032 317.34524536 229.03163147 316.87890625 229.31378174 C 316.25726318 229.46405029 315.62442017 229.44758606 314.94119263 229.33905029 C 314.22164917 229.15007019 313.48477173 228.86982727 312.76361084 228.46340942 C 312.14349365 227.85467529 311.53952026 227.25860596 310.93972778 226.57321167 C 310.53778076 225.62057495 310.23120117 224.52796936 314.64913940 224.60290527" stroke-width="1.00029278" fill="rgb(251, 243, 221)" opacity="1.0" stroke="rgb(225, 207, 161)" stroke-opacity="0.48286512" stroke-linecap="round" stroke-linejoin="round"/>
    <path d="M 238.26455688 194.43933105 C 238.45007324 194.60699463 238.65844727 194.74902344 238.94865417 194.88478088 C 239.21281433 195.02592468 239.38334656 195.13456726 239.44993591 195.34909058 C 239.36363220 195.61473083 239.23208618 195.89888000 239.08854675 196.24127197 C 238.90892029 196.58918762 238.61485291 196.80880737 238.21968079 196.96771240 C 237.79658508 197.11752319 237.41052246 197.33100891 236.97445679 197.54109192 C 236.51939392 197.70640564 236.05740356 197.71279907 235.55883789 197.69778442 C 235.09611511 197.79583740 234.74078369 198.02734375 234.33218384 198.11056519 C 233.87396240 197.98066711 233.40715027 197.83221436 232.92904663 197.67912292 C 232.58616638 197.31983948 232.23783875 196.81939697 231.94096375 196.19468689 C 231.79095459 195.46134949 231.64973450 194.70892334 238.26455688 194.43933105" stroke-width="0.80184323" fill="rgb(252, 250, 222)" opacity="1.0" stroke="rgb(242, 236, 197)" stroke-opacity="0.63988787" stroke-linecap="round" stroke-linejoin="round"/>
    <path d="M 209.00730896 194.86610413 C 208.49342346 194.65321350 208.00350952 194.46704102 207.56411743 194.30491638 C 207.13929749 194.23805237 206.83782959 194.08483887 206.66743469 193.90573120 C 206.57386780 193.65336609 206.61352539 193.29841614 206.75875854 193.00465393 C 207.01274109 192.69837952 207.36575317 192.37921143 207.85423279 192.13148499 C 208.36691284 191.82109070 208.89895630 191.52047729 209.46766663 191.23585510 C 210.09333801 191.08718872 210.72006226 190.96043396 211.27458191 190.81695557 C 211.80850220 190.84497070 212.26426697 190.98852539 212.72543335 191.30955505 C 213.23167419 191.60539246 213.55471802 191.98875427 213.63172913 192.39305115 C 213.60826111 192.75746155 213.43951416 193.16685486 213.21070862 193.57472229 C 212.94570923 194.02738953 212.56942749 194.51063538 209.00730896 194.86610413" stroke-width="0.82405943" fill="rgb(250, 245, 221)" opacity="1.0" stroke="rgb(238, 245, 217)" stroke-opacity="0.53573346" stroke-linecap="round" stroke-linejoin="round"/>
    <path d="M 257.38922119 222.75917053 C 257.06094360 222.38722229 256.65145874 222.08473206 256.17047119 221.78904724 C 255.74789429 221.52809143 255.50172424 221.28042603 255.44384766 221.06398010 C 255.47386169 220.81269836 255.66256714 220.61485291 255.98944092 220.38841248 C 256.36749268 220.07991028 256.85406494 219.80252075 257.29275513 219.48864746 C 257.79956055 219.31068420 258.35195923 219.09573364 258.92294312 218.98017883 C 259.56704712 219.00849915 260.30126953 219.06767273 261.05923462 219.10533142 C 261.74172974 219.21337891 262.30569458 219.41192627 262.72372437 219.61505127 C 263.07113647 219.78729248 263.33795166 220.04212952 263.40188599 220.32783508 C 263.26257324 220.66990662 262.94277954 221.08329773 262.57385254 221.54496765 C 262.18173218 222.05694580 261.75146484 222.71037292 257.38922119 222.75917053" stroke-width="0.98607635" fill="rgb(253, 252, 237)" opacity="1.0" stroke="rgb(234, 221, 188)" stroke-opacity="0.49590546" stroke-linecap="round" stroke-linejoin="round"/>
    <path d="M 217.46014404 229.98265076 C 216.93598938 229.72050476 216.42919922 229.43035889 215.96147156 229.15528870 C 215.58908081 228.80873108 215.24775696 228.45755005 214.91342163 228.10925293 C 214.72868347 227.77580261 214.64773560 227.40185547 214.63153076 227.07502747 C 214.77273560 226.69093323 214.96789551 226.25756836 215.20606995 225.82905579 C 215.43457031 225.39219666 215.72358704 225.00425720 216.00308228 224.60008240 C 216.43826294 224.25637817 216.83627319 223.94775391 217.25477600 223.72792053 C 217.78424072 223.64759827 218.35679626 223.55123901 218.85203552 223.43711853 C 219.20094299 223.25584412 219.48823547 223.24343872 219.78594971 223.42839050 C 219.96632385 223.80648804 220.05761719 224.29899597 220.28868103 224.95814514 C 220.45913696 225.65292358 220.69985962 226.30270386 217.46014404 229.98265076" stroke-width="1.03653693" fill="rgb(251, 248, 228)" opacity="1.0" stroke="rgb(230, 214, 162)" stroke-opacity="0.521463" stroke-linecap="round" stroke-linejoin="round"/>
    <path d="M 285.74407959 205.22370911 C 286.24734497 205.40153503 286.64559937 205.45683289 287.07757568 205.52540588 C 287.51049805 205.78361511 287.95593262 206.10722351 288.38430786 206.39700317 C 288.73272705 206.61578369 288.96609497 206.85028076 289.05389404 207.13409424 C 289.05007935 207.47732544 288.97207642 207.81111145 288.86981201 208.16760254 C 288.64663696 208.45184326 288.24526978 208.62132263 287.79901123 208.82185364 C 287.32327271 209.06872559 286.84912109 209.28524780 286.38092041 209.34220886 C 285.93695068 209.32940674 285.46655273 209.14154053 285.01446533 208.89672852 C 284.58819580 208.68286133 284.22146606 208.46420288 283.81661987 208.23234558 C 283.59176636 207.81224060 283.48532104 207.34330750 283.35641479 206.86492920 C 283.23196411 206.51129150 283.16421509 206.20861816 285.74407959 205.22370911" stroke-width="1.02475297" fill="rgb(251, 255, 245)" opacity="1.0" stroke="rgb(237, 229, 193)" stroke-opacity="0.68886095" stroke-linecap="round" stroke-linejoin="round"/>
    <path d="M 196.06835938 196.61199951 C 195.80172729 197.09011841 195.61050415 197.51699829 195.44787598 197.83100891 C 195.16921997 198.15043640 194.74865723 198.42935181 194.31602478 198.72428894 C 193.97610474 199.02862549 193.68849182 199.46717834 193.34454346 199.81805420 C 192.94895935 200.07882690 192.59988403 200.32987976 192.23315430 200.51638794 C 191.83741760 200.61399841 191.35902405 200.61476135 190.92823792 200.43295288 C 190.53395081 200.06488037 190.23200989 199.72146606 189.89663696 199.57528687 C 189.53736877 199.43997192 189.27050781 199.19735718 189.15354919 198.97935486 C 189.24559021 198.73889160 189.41804504 198.41444397 189.78968811 198.05415344 C 190.24443054 197.64968872 190.80043030 197.32508850 191.29858398 196.82324219 C 191.98191833 196.23629761 192.62591553 195.55429077 196.06835938 196.61199951" stroke-width="0.99026948" fill="rgb(249, 247, 232)" opacity="1.0" stroke="rgb(235, 219, 182)" stroke-opacity="0.47832757" stroke-linecap="round" stroke-linejoin="round"/>
    <path d="M 212.57858276 211.22621155 C 212.88633728 211.53024292 213.20893860 211.82633972 213.45237732 212.06382751 C 213.55410767 212.28411865 213.55349731 212.56219482 213.48242188 212.82766724 C 213.28479004 213.07437134 212.99813843 213.28514099 212.70362854 213.48005676 C 212.32699585 213.56872559 211.92353821 213.62713623 211.49760437 213.69850159 C 211.03063965 213.81820679 210.48963928 213.89517212 209.94171143 213.96823120 C 209.44989014 214.00950623 208.95736694 213.98908997 208.45935059 213.87051392 C 208.01632690 213.72587585 207.63699341 213.56983948 207.34910583 213.40032959 C 207.28330994 213.12712097 207.24081421 212.81811523 207.20178223 212.47764587 C 207.38688660 212.09654236 207.69102478 211.71697998 208.05143738 211.28579712 C 208.49203491 210.86322021 208.88641357 210.30758667 212.57858276 211.22621155" stroke-width="0.90003866" fill="rgb(252, 246, 224)" opacity="1.0" stroke="rgb(236, 235, 207)" stroke-opacity="0.5726007" stroke-linecap="round" stroke-linejoin="round"/>
    <path d="M 209.63488770 202.13208008 C 209.56506348 202.27209473 209.51408386 202.53254700 209.42037964 202.67274475 C 209.31079102 202.79197693 209.12297058 202.91273499 208.87246704 203.08447266 C 208.57704163 203.29609680 208.22517395 203.45957947 207.85089111 203.58621216 C 207.44931030 203.71661377 206.99308777 203.86360168 206.52729797 203.96128845 C 206.08242798 203.98403931 205.56414795 203.89068604 205.03219604 203.70826721 C 204.55256653 203.58474731 204.09197998 203.34683228 203.59451294 202.97203064 C 203.11395264 202.62297058 202.75534058 202.37094116 202.57203674 202.22520447 C 202.66178894 202.01257324 202.96713257 201.72824097 203.39961243 201.50234985 C 203.99070740 201.35885620 204.73631287 201.12728882 205.64762878 200.92012024 C 206.61540222 200.72874451 207.66108704 200.42411804 209.63488770 202.13208008" stroke-width="0.91808063" fill="rgb(252, 245, 196)" opacity="1.0" stroke="rgb(237, 226, 170)" stroke-opacity="0.5245781" stroke-linecap="round" stroke-linejoin="round"/>
    <path d="M 265.06311035 211.07991028 C 264.77014160 210.83166504 264.42773438 210.56959534 264.07260132 210.45976257 C 263.78948975 210.43493652 263.49725342 210.35195923 263.27911377 210.20138550 C 263.26577759 209.97274780 263.32385254 209.77444458 263.47140503 209.61207581 C 263.75576782 209.46678162 264.14282227 209.24038696 264.57199097 208.97064209 C 265.06518555 208.76901245 265.59689331 208.61445618 266.12655640 208.47354126 C 266.63192749 208.39659119 267.16744995 208.31556702 267.76986694 208.23291016 C 268.29769897 208.20611572 268.76123047 208.19895935 269.14654541 208.12669373 C 269.40243530 208.00605774 269.66021729 207.98764038 269.81173706 208.16682434 C 269.89990234 208.47291565 269.91101074 208.90486145 269.87417603 209.38665771 C 269.78921509 209.94419861 269.72085571 210.55879211 265.06311035 211.07991028" stroke-width="0.96114367" fill="rgb(250, 248, 224)" opacity="1.0" stroke="rgb(246, 250, 230)" stroke-opacity="0.56311744" stroke-linecap="round" stroke-linejoin="round"/>
    <path d="M 297.42990112 191.11112976 C 297.24765015 190.65658569 297.07635498 190.24177551 297.02722168 189.80259705 C 297.06607056 189.32772827 297.23355103 188.94091797 297.47689819 188.63949585 C 297.81167603 188.47857666 298.17431641 188.41596985 298.63720703 188.35571289 C 299.14614868 188.33990479 299.68035889 188.33229065 300.21957397 188.27380371 C 300.69866943 188.27348328 301.16397095 188.32667542 301.60089111 188.41368103 C 302.07284546 188.47286987 302.51000977 188.48162842 302.90435791 188.65583801 C 303.17831421 188.81794739 303.34536743 189.04483032 303.41632080 189.29602051 C 303.47937012 189.55766296 303.40441895 189.86950684 303.24310303 190.23332214 C 302.95635986 190.60137939 302.52609253 190.85980225 301.97970581 191.21835327 C 301.47088623 191.64355469 301.07522583 192.09623718 297.42990112 191.11112976" stroke-width="1.01742566" fill="rgb(254, 251, 242)" opacity="1.0" stroke="rgb(223, 219, 217)" stroke-opacity="0.41597664" stroke-linecap="round" stroke-linejoin="round"/>
    <path d="M 291.78201294 185.76071167 C 291.67504883 185.31834412 291.48245239 184.89891052 291.22964478 184.63941956 C 290.94973755 184.50617981 290.74160767 184.31907654 290.66027832 184.08702087 C 290.77069092 183.92878723 290.96951294 183.76992798 291.19598389 183.52896118 C 291.41101074 183.20811462 291.60534668 182.85997009 291.85482788 182.63323975 C 292.20962524 182.44526672 292.63375854 182.30123901 293.11251831 182.18818665 C 293.59942627 182.08976746 294.09118652 182.06867981 294.51773071 182.12965393 C 294.93072510 182.20533752 295.28460693 182.27658081 295.48184204 182.38177490 C 295.54364014 182.57252502 295.61163330 182.70193481 295.73269653 182.93922424 C 295.83059692 183.33891296 295.89004517 183.87692261 295.90014648 184.43045044 C 295.79479980 184.96293640 295.67462158 185.49079895 291.78201294 185.76071167" stroke-width="0.97462696" fill="rgb(251, 254, 242)" opacity="1.0" stroke="rgb(230, 220, 191)" stroke-opacity="0.54081595" stroke-linecap="round" stroke-linejoin="round"/>
    <path d="M 317.77114868 195.84170532 C 317.24978638 195.72550964 316.80606079 195.58581543 316.42218018 195.42518616 C 316.08883667 195.15014648 315.75698853 194.77748108 315.37045288 194.44200134 C 315.03366089 194.23200989 314.70223999 194.01921082 314.48342896 193.70269775 C 314.33117676 193.34376526 314.34997559 193.04814148 314.56811523 192.80516052 C 314.88598633 192.47857666 315.27844238 192.17799377 315.68872070 192.01800537 C 316.11441040 191.93312073 316.59414673 191.85186768 317.09698486 191.68344116 C 317.50021362 191.61607361 317.75680542 191.82786560 318.10610962 192.16061401 C 318.52954102 192.41680908 318.95690918 192.55151367 319.30642700 192.60360718 C 319.57522583 192.82272339 319.75500488 193.30610657 319.81112671 193.95315552 C 319.94244385 194.52571106 320.07632446 195.01681519 317.77114868 195.84170532" stroke-width="0.88826621" fill="rgb(253, 249, 230)" opacity="1.0" stroke="rgb(233, 222, 185)" stroke-opacity="0.5358319" stroke-linecap="round" stroke-linejoin="round"/>
    <path d="M 421.19683838 244.59580994 C 421.29446411 244.77378845 421.36956787 245.00596619 421.42974854 245.27751160 C 421.02438354 245.78062439 420.82324219 246.52233887 421.10540771 247.30805969 C 421.57107544 247.98686218 422.22280884 248.63038635 422.74075317 249.16441345 C 422.87017822 249.78913879 422.71060181 250.27177429 422.32855225 250.68305969 C 421.80279541 250.96549988 421.16061401 251.01046753 420.48635864 250.78028870 C 419.94314575 250.24478149 419.63888550 249.49627686 419.47863770 248.65867615 C 419.39562988 247.73934937 419.34036255 246.74124146 419.18585205 245.67715454 C 419.15881348 244.46498108 419.21514893 243.14929199 419.43460083 241.79307556 C 419.57049561 240.46002197 419.78137207 239.17019653 420.11566162 237.93251038 C 420.51919556 236.69068909 420.75372314 235.47975159 421.19683838 244.59580994" stroke-width="0.71056396" fill="rgb(13, 13, 20)" opacity="1.0" stroke="rgb(0, 0, 10)" stroke-opacity="0.5516947" stroke-linecap="round" stroke-linejoin="round"/>
    <path d="M 421.02743530 239.12011719 C 420.08209229 239.52108765 419.51477051 239.74240112 419.29547119 239.73965454 C 419.07934570 239.62339783 418.58218384 239.32890320 418.25369263 238.74822998 C 418.10824585 237.99835205 418.10653687 237.20909119 418.09399414 236.61436462 C 418.21981812 236.29965210 418.19494629 236.00422668 418.20434570 235.59210205 C 418.21383667 235.24009705 418.45513916 234.93127441 418.77877808 235.14198303 C 419.01553345 235.37963867 419.31600952 235.41125488 419.68359375 235.12390137 C 420.16229248 234.96174622 420.52813721 234.97158813 420.79946899 235.14619446 C 420.96182251 235.48020935 420.98544312 236.02517700 421.03833008 236.46728516 C 421.18380737 236.78562927 421.50500488 236.82069397 421.82083130 236.58541870 C 422.10247803 236.30693054 422.35824585 235.89477539 421.02743530 239.12011719" stroke-width="1.74970865" fill="rgb(215, 17, 26)" opacity="1.0" stroke="rgb(91, 28, 29)" stroke-opacity="1.0" stroke-linecap="round" stroke-linejoin="round"/>
    <path d="M 401.41220093 276.73574829 C 404.30413818 279.54272461 409.48852539 278.98840332 416.88662720 279.34103394 C 425.39413452 279.17443848 433.05853271 279.19439697 438.56628418 279.02792358 C 440.41445923 280.63897705 440.80642700 282.80624390 440.51388550 284.93267822 C 438.32339478 285.99542236 434.60583496 286.42465210 429.93222046 286.31475830 C 424.56658936 286.34185791 418.88436890 286.54345703 413.42059326 286.79721069 C 408.69894409 286.97619629 405.32754517 286.30154419 403.31170654 284.89938354 C 403.21066284 282.80593872 403.40075684 280.23428345 403.31198120 278.22805786 C 402.19375610 277.40698242 401.49862671 276.07101440 401.47857666 273.98696899 C 401.39666748 271.50942993 401.26834106 268.55352783 401.27423096 265.23254395 C 401.37512207 261.83499146 401.53280640 258.46240234 401.34185791 255.23623657 C 401.35116577 252.53030396 401.23278809 250.60787964 401.16772461 249.39634705 C 401.74795532 249.34999084 403.14401245 249.36495972 405.18457031 249.51728821 C 407.75213623 249.43934631 410.67468262 249.37844849 413.96130371 249.47735596 C 417.59793091 249.55574036 421.16595459 249.69183350 424.41906738 249.53128052 C 427.44580078 249.67059326 430.30441284 249.76771545 432.73849487 249.56307983 C 434.72778320 249.69921875 436.33255005 249.61859131 437.51916504 249.97964478 C 437.71493530 251.18231201 437.22537231 253.37811279 437.59140015 256.58132935 C 437.69772339 260.33218384 437.78857422 264.18591309 437.43716431 267.89877319 C 437.46710205 271.01571655 437.68692017 273.59042358 437.42190552 275.61471558 C 438.02053833 276.94784546 438.43017578 277.88845825 401.41220093 276.73574829" stroke-width="1.70899367" fill="rgb(170, 239, 212)" opacity="1.0" stroke="rgb(0, 15, 9)" stroke-opacity="0.7815735" stroke-linecap="round" stroke-linejoin="round"/>
    <path d="M 415.76156616 346.75982666 C 413.60491943 347.46557617 411.21365356 347.68392944 408.84854126 347.73913574 C 406.68676758 347.45230103 404.49047852 347.62145996 402.27847290 347.93557739 C 400.23233032 347.77792358 398.55499268 347.75708008 397.40158081 347.39447021 C 397.53417969 345.61587524 397.54290771 342.91619873 397.49182129 339.42596436 C 397.36221313 335.34188843 397.53793335 330.72851562 397.47976685 325.95626831 C 397.78048706 321.75595093 397.29052734 317.74472046 397.77941895 313.57678223 C 397.57345581 309.26666260 397.81475830 304.90756226 398.18841553 300.60574341 C 398.17346191 296.54644775 397.54891968 293.01852417 396.96127319 290.20617676 C 396.77780151 288.15295410 397.19479370 286.90359497 398.37460327 286.39489746 C 400.64389038 286.63250732 403.79876709 286.81350708 407.41250610 286.58819580 C 411.21548462 286.69253540 414.88476562 285.89779663 418.71298218 286.41076660 C 422.69515991 286.26724243 426.91989136 286.42413330 431.07699585 286.43106079 C 434.61380005 286.19903564 437.54794312 286.28012085 439.90289307 286.52529907 C 441.70758057 286.51449585 442.85867310 286.97592163 443.19082642 287.90750122 C 442.88439941 290.03076172 442.65408325 292.56637573 442.85922241 295.56008911 C 442.45538330 299.01724243 442.57812500 303.04879761 442.91015625 307.39120483 C 442.95767212 311.93292236 443.01153564 316.64202881 442.92517090 321.49356079 C 443.41546631 326.10552979 443.17272949 330.54254150 443.56225586 334.69754028 C 443.33566284 338.76483154 443.44091797 342.60617065 443.41143799 345.93438721 C 443.85165405 347.75708008 444.50634766 348.61819458 415.76156616 346.75982666" stroke-width="1.82764208" fill="rgb(179, 244, 204)" opacity="1.0" stroke="rgb(34, 47, 39)" stroke-opacity="0.9617765" stroke-linecap="round" stroke-linejoin="round"/>
    <path d="M 396.52554321 294.92636108 C 393.17269897 294.80474854 390.12280273 294.15222168 388.38995361 293.08877563 C 387.62872314 293.25851440 387.08117676 294.64208984 387.29046631 295.61447144 C 388.39984131 295.97659302 390.25784302 296.51245117 392.38616943 296.97753906 C 394.17147827 297.18814087 395.26736450 297.69857788 395.29550171 298.38119507 C 394.44348145 299.70242310 393.41040039 301.64080811 392.74560547 304.11050415 C 391.73208618 307.05352783 390.59573364 310.19949341 389.57031250 313.18945312 C 388.82598877 315.81063843 387.95764160 318.16571045 387.12622070 320.04510498 C 386.29046631 321.44384766 385.98745728 322.70007324 385.30340576 323.00808716 C 384.48663330 322.98489380 384.05139160 322.41592407 383.56008911 321.42144775 C 382.45889282 320.65072632 381.29333496 319.71109009 380.16122437 318.75613403 C 378.88613892 318.19180298 378.07144165 317.32449341 377.44198608 316.39468384 C 377.58282471 315.54553223 378.38647461 314.32211304 379.09060669 312.88729858 C 380.10968018 311.28796387 381.08328247 309.57803345 382.03436279 307.57186890 C 383.16915894 305.74072266 383.83917236 303.69665527 384.83340454 301.91958618 C 385.14114380 300.05444336 385.96371460 298.58679199 386.81805420 297.22988892 C 386.90591431 295.58270264 387.35144043 294.14227295 387.94735718 292.87619019 C 387.98034668 292.45831299 388.22085571 292.51278687 388.23037720 292.18496704 C 388.29840088 291.40368652 389.12786865 291.38830566 391.00323486 291.35821533 C 392.62527466 290.54095459 393.80676270 289.07012939 394.93722534 287.77441406 C 395.76416016 286.78646851 395.90792847 285.68283081 396.52554321 294.92636108" stroke-width="2.00000000" fill="rgb(174, 245, 211)" opacity="1.0" stroke="rgb(11, 24, 23)" stroke-opacity="0.9253426" stroke-linecap="round" stroke-linejoin="round"/>
    <path d="M 450.98382568 294.93862915 C 451.99673462 297.27706909 452.73278809 299.67016602 453.36926270 301.98757935 C 454.20626831 304.15386963 454.89941406 306.23983765 455.63143921 308.15435791 C 456.22726440 310.06863403 456.60211182 311.81695557 457.39385986 313.11865234 C 457.73309326 314.51672363 457.91345215 315.73965454 457.76498413 316.64440918 C 456.51037598 317.34277344 454.97070312 318.29641724 453.29290771 318.85763550 C 452.06790161 319.66253662 451.09454346 320.38546753 450.55126953 320.37368774 C 450.43078613 319.75262451 450.37081909 318.42959595 449.60772705 317.07101440 C 448.78747559 315.22650146 448.14093018 312.86062622 447.42071533 310.22415161 C 446.36254883 307.40432739 445.40151978 304.68670654 445.14141846 302.00952148 C 444.51089478 299.87741089 443.67739868 298.57092285 450.98382568 294.93862915" stroke-width="2.00000000" fill="rgb(174, 247, 206)" opacity="1.0" stroke="rgb(9, 21, 14)" stroke-opacity="0.97863626" stroke-linecap="round" stroke-linejoin="round"/>
    <path d="M 422.73788452 270.20709229 C 421.19616699 270.52285767 419.95556641 270.66415405 418.91049194 270.59799194 C 417.98455811 270.31524658 417.14529419 270.20526123 416.37475586 270.18881226 C 415.78765869 270.15203857 414.95770264 269.90829468 414.26895142 269.65368652 C 413.54150391 269.42852783 412.77581787 269.07846069 412.25613403 268.53302002 C 411.50131226 267.96032715 410.89221191 267.16006470 410.59359741 266.10852051 C 410.49533081 264.91024780 410.38409424 263.69769287 410.09036255 262.71234131 C 410.34521484 261.84652710 410.29959106 261.03372192 410.04684448 260.29913330 C 410.19021606 259.47085571 410.50521851 258.58081055 411.01815796 257.73330688 C 411.71078491 256.84387207 412.36157227 256.10833740 413.35391235 255.95602417 C 414.61880493 255.94332886 416.04980469 255.74371338 417.19015503 255.40614319 C 418.39685059 255.65934753 419.59774780 255.68762207 420.71075439 255.54025269 C 421.80670166 255.61140442 422.58975220 255.58969116 423.49047852 255.39274597 C 424.53912354 255.72006226 425.42498779 255.60597229 426.28488159 255.66897583 C 427.03677368 255.93304443 427.62280273 256.36218262 428.19210815 256.90783691 C 428.69372559 257.44476318 428.93957520 258.24209595 429.28680420 258.93685913 C 429.37179565 259.71517944 429.49911499 260.63760376 430.04196167 261.70336914 C 429.75350952 262.67175293 429.81848145 263.70755005 429.90066528 264.81372070 C 429.95227051 265.80087280 429.56869507 266.87161255 429.13595581 267.72946167 C 428.64212036 268.47024536 428.04324341 269.21362305 427.29949951 269.69940186 C 426.64080811 270.26510620 425.95785522 270.80493164 422.73788452 270.20709229" stroke-width="1.83337831" fill="rgb(44, 201, 254)" opacity="1.0" stroke="rgb(2, 17, 42)" stroke-opacity="0.9010447" stroke-linecap="round" stroke-linejoin="round"/>
    <path d="M 424.69168091 293.16976929 C 425.80676270 294.27081299 427.03463745 295.09536743 427.74084473 295.96771240 C 427.87796021 296.87030029 428.24230957 297.72467041 428.75506592 298.65036011 C 428.69018555 299.92797852 428.35278320 301.40847778 427.74822998 302.96380615 C 426.98867798 304.18756104 426.02612305 305.11465454 424.95211792 305.76229858 C 423.74218750 306.04638672 422.38626099 306.41217041 421.36187744 306.52749634 C 420.13607788 306.25817871 418.83547974 305.61203003 417.63073730 304.92788696 C 416.58087158 303.81552124 415.79339600 302.69030762 415.24920654 301.44158936 C 415.18734741 300.33120728 415.15521240 299.36660767 414.85971069 298.46121216 C 415.04766846 297.18157959 415.51135254 295.78802490 416.51370239 294.91244507 C 417.78359985 293.68319702 418.95831299 292.25006104 424.69168091 293.16976929" stroke-width="1.64526749" fill="rgb(235, 55, 42)" opacity="1.0" stroke="rgb(57, 14, 3)" stroke-opacity="0.89781857" stroke-linecap="round" stroke-linejoin="round"/>
    <path d="M 427.70620728 369.18569946 C 427.74926758 366.76278687 427.72308350 364.11883545 427.59719849 361.39413452 C 427.64511108 358.72201538 427.35018921 356.13201904 427.65405273 353.89672852 C 427.55282593 352.34664917 427.39926147 351.15353394 427.46737671 350.42495728 C 428.15219116 350.21615601 428.83889771 350.52984619 429.55648804 350.60726929 C 430.31555176 350.07812500 431.18103027 349.66333008 432.33645630 349.79904175 C 433.75051880 349.89321899 435.30648804 349.87860107 437.14401245 349.92736816 C 438.78015137 349.69869995 439.95938110 349.58172607 440.57641602 349.77835083 C 440.35290527 350.82348633 440.39065552 352.41979980 440.62020874 354.62124634 C 440.81970215 356.99246216 440.90594482 359.71789551 440.61312866 362.77096558 C 441.26940918 365.69631958 442.15625000 368.71456909 427.70620728 369.18569946" stroke-width="1.93796837" fill="rgb(185, 243, 211)" opacity="1.0" stroke="rgb(1, 2, 2)" stroke-opacity="0.94880575" stroke-linecap="round" stroke-linejoin="round"/>
    <path d="M 411.25479126 350.51681519 C 411.85635376 350.85296631 411.89505005 351.48214722 411.34417725 352.38180542 C 411.55093384 353.38977051 411.66735840 354.33718872 411.46853638 355.30227661 C 411.67465210 356.30322266 411.72747803 357.22274780 411.52838135 358.16967773 C 411.39083862 359.35479736 411.56152344 360.58169556 411.65512085 361.88912964 C 411.64102173 363.35092163 411.69570923 364.60382080 411.51608276 365.62832642 C 411.19357300 366.44842529 410.67108154 367.12347412 410.02465820 367.70431519 C 409.40292358 368.17382812 408.80435181 368.57849121 408.13140869 368.94277954 C 407.34509277 369.19387817 406.52023315 369.34750366 405.71151733 369.51327515 C 404.87374878 369.68817139 403.98062134 369.77630615 403.09133911 369.71047974 C 402.27307129 369.46731567 401.56884766 369.11621094 400.94696045 368.71859741 C 400.40451050 368.29437256 400.05627441 367.81878662 399.85861206 367.21859741 C 399.65347290 366.46868896 399.32006836 365.66418457 399.29208374 364.71340942 C 399.33148193 363.43096924 399.50765991 362.14099121 399.65087891 360.75473022 C 399.37414551 359.54605103 399.40121460 358.46063232 399.55410767 357.44631958 C 399.92581177 356.54574585 399.91903687 355.73797607 399.51187134 355.27804565 C 399.56637573 354.47543335 399.69515991 353.22366333 399.56124878 352.02252197 C 399.45285034 350.99060059 399.43011475 350.22848511 399.74017334 349.71594238 C 400.31576538 349.39212036 401.23895264 349.46258545 401.98693848 349.55691528 C 402.81961060 349.62930298 403.07229614 349.80819702 402.57778931 350.12142944 C 402.08105469 350.34667969 401.50793457 350.07086182 411.25479126 350.51681519" stroke-width="1.92752981" fill="rgb(184, 253, 220)" opacity="1.0" stroke="rgb(23, 28, 24)" stroke-opacity="1.0" stroke-linecap="round" stroke-linejoin="round"/>
    <path d="M 427.21789551 380.06213379 C 426.64901733 378.51403809 426.81103516 376.71044922 427.03244019 374.92245483 C 427.84957886 373.31954956 429.09075928 372.08297729 430.71939087 371.22744751 C 432.81106567 370.73535156 435.11083984 370.63934326 437.25790405 371.00717163 C 439.15240479 371.74508667 440.62298584 372.79333496 441.26098633 374.15377808 C 441.17880249 376.06954956 441.35296631 378.51928711 441.50439453 380.84426880 C 441.85162354 382.94796753 441.91656494 384.79846191 441.40518188 386.10214233 C 440.82693481 386.78375244 439.97943115 386.83148193 438.62557983 386.43103027 C 436.71456909 386.43475342 434.76519775 386.34158325 432.66400146 386.42456055 C 430.63555908 386.57846069 429.02261353 386.45202637 427.74771118 386.27713013 C 426.71179199 386.57229614 426.39154053 387.42315674 427.21789551 380.06213379" stroke-width="1.87917495" fill="rgb(169, 248, 201)" opacity="1.0" stroke="rgb(0, 7, 2)" stroke-opacity="0.8629275" stroke-linecap="round" stroke-linejoin="round"/>
    <path d="M 399.61105347 366.64221191 C 402.23645020 367.42547607 404.63494873 368.47561646 406.72949219 369.71166992 C 408.50891113 370.90277100 410.04574585 371.97164917 411.26409912 373.26785278 C 411.86932373 374.82559204 411.96472168 376.33706665 411.60803223 377.78781128 C 411.87109375 379.12680054 411.89614868 380.59283447 411.80606079 382.00814819 C 411.47817993 383.14712524 411.57418823 384.15567017 411.93136597 384.96896362 C 411.96633911 385.78530884 412.06628418 386.17340088 411.87512207 386.28601074 C 411.20181274 386.36294556 409.87292480 386.38333130 408.27322388 386.34448242 C 406.59121704 386.36221313 404.84024048 386.41503906 403.22546387 386.20050049 C 401.98278809 386.50970459 400.72805786 386.29275513 399.59722900 386.27432251 C 398.71414185 386.77981567 397.35040283 387.17755127 399.61105347 366.64221191" stroke-width="1.93283248" fill="rgb(170, 247, 212)" opacity="1.0" stroke="rgb(0, 7, 0)" stroke-opacity="0.9230317" stroke-linecap="round" stroke-linejoin="round"/>
    <path d="M 427.54870605 366.66421509 C 430.50289917 366.95022583 433.25222778 366.90246582 435.60067749 366.62405396 C 437.70208740 366.98245239 439.31799316 367.02691650 440.38580322 366.72470093 C 440.88739014 366.81680298 441.18362427 367.37493896 441.00451660 368.07727051 C 440.42526245 368.68304443 440.50411987 369.35296631 440.90118408 370.41012573 C 440.70001221 371.60055542 440.58621216 372.70050049 440.54086304 373.59835815 C 440.52566528 373.94070435 440.12039185 373.73092651 439.61672974 373.39367676 C 438.63952637 373.88546753 437.36111450 373.94958496 435.92361450 373.72988892 C 434.53051758 373.89324951 433.27987671 373.88262939 431.95773315 373.67547607 C 430.58444214 373.97384644 429.34280396 373.90661621 428.21417236 373.79730225 C 427.47842407 374.30587769 427.05694580 375.08834839 427.54870605 366.66421509" stroke-width="1.92599618" fill="rgb(191, 247, 221)" opacity="1.0" stroke="rgb(13, 23, 18)" stroke-opacity="0.97006774" stroke-linecap="round" stroke-linejoin="round"/>
    <path d="M 411.51962280 373.61734009 C 409.28201294 373.58908081 406.99276733 373.68682861 404.64785767 373.74703979 C 402.61425781 373.69805908 400.86929321 373.76391602 399.54571533 373.67556763 C 398.91766357 373.29306030 398.97134399 372.62844849 399.35992432 371.62704468 C 399.19085693 370.31631470 399.64199829 369.42538452 399.21612549 368.76571655 C 399.32803345 368.11767578 399.37420654 367.18005371 399.17803955 366.53866577 C 399.67361450 366.66186523 400.15835571 366.82382202 400.97781372 366.74777222 C 402.20358276 366.73052979 403.56152344 366.90533447 405.01150513 366.96237183 C 406.39547729 366.64242554 407.66668701 366.86065674 408.65753174 366.94131470 C 409.36972046 366.83831787 410.22497559 366.89291382 410.96121216 366.65994263 C 411.39947510 366.12796021 411.58255005 365.20870972 411.51962280 373.61734009" stroke-width="1.98278165" fill="rgb(183, 243, 221)" opacity="1.0" stroke="rgb(20, 21, 23)" stroke-opacity="1.0" stroke-linecap="round" stroke-linejoin="round"/>
  </g>
</svg>
