<svg xmlns="http://www.w3.org/2000/svg" width="384" height="384" viewBox="0 0 384 384">
  <defs/>
  <path fill="rgb(84.705882%, 77.647059%, 83.921569%)" opacity="0.142" d="M8.963,173.986 Q8.861,174.032 8.726,174.1 Q7.094,174.926 4.876,177.484 Q-1.39,184.711 -7.388,199.945 Q-8.399,202.514 -10.968,201.503 Q-11.177,201.421 -11.37,201.306 Q-31.108,189.554 -53.075,194.948 Q-45.283,201.201 -40.743,216.048 Q-40.339,217.368 -40.797,218.23 Q-41.255,219.092 -42.575,219.496 Q-45.216,220.303 -46.023,217.663 Q-51.392,200.106 -60.978,196.755 Q-62.236,196.315 -62.674,195.056 Q-63.581,192.448 -60.973,191.541 L-60.959,191.536 Q-34.767,182.425 -11.336,194.983 Q-5.539,181.066 0.703,173.867 Q3.632,170.489 6.232,169.173 Q9.853,167.34 12.15,169.486 Q14.168,171.371 12.283,173.388 Q11.341,174.397 10.366,174.431 Q9.673,174.454 8.963,173.986 Z"/>
  <path fill="rgb(82.745098%, 100%, 90.588235%)" opacity="0.025" d="M147.231,185.887 Q137.764,193.302 135.57,196.211 Q135.218,196.678 135.045,197.015 Q135.419,197.123 136.021,197.187 Q141.846,197.807 186.534,189.282 Q220.569,182.791 243.162,178.755 Q244.086,178.59 244.63,178.97 Q245.174,179.349 245.339,180.272 Q245.668,182.118 243.822,182.448 Q221.25,186.479 187.237,192.967 Q142.002,201.596 135.625,200.917 Q132.257,200.559 131.407,198.578 Q130.566,196.617 132.575,193.952 Q135.065,190.651 144.918,182.934 Q146.394,181.777 147.551,183.254 Q148.707,184.73 147.231,185.887 Z"/>
  <path fill="rgb(100%, 0.392157%, 77.647059%)" opacity="0.816" d="M260.559,212.778 Q226.344,218.381 202.995,221.726 Q204.866,234.157 204.213,256.528 Q204.135,259.223 202.748,260.531 Q201.362,261.839 198.667,261.76 Q193.278,261.603 193.435,256.214 Q194.014,236.368 194.904,222.862 Q186.982,223.95 180.553,224.728 Q155.795,227.724 152.695,224.382 Q149.588,221.032 152.248,217.272 Q153.041,216.151 154.409,215.341 Q155.601,214.635 157.739,213.883 Q161.155,212.682 167.235,211.2 Q180.206,208.038 193.328,206.167 Q194.926,205.939 196.38,206.623 Q196.44,206.186 196.5,205.784 Q196.681,204.573 196.843,203.818 Q196.946,203.341 197.056,202.988 Q197.221,202.464 197.464,202.004 Q198.027,200.939 198.981,200.215 Q200.654,198.945 202.745,199.14 Q205.11,199.36 206.544,201.254 Q209.052,204.563 206.173,210.371 Q228.069,207.171 258.816,202.136 Q261.477,201.701 263.025,202.813 Q264.573,203.925 265.008,206.586 Q265.879,211.906 260.559,212.778 Z"/>
  <path fill="rgb(100%, 84.705882%, 100%)" opacity="0.266" d="M260.842,274.492 Q261.183,275.118 261.249,275.97 Q261.339,277.118 260.031,285.705 Q259.789,287.3 258.869,287.977 Q257.95,288.653 256.354,288.41 Q256.171,288.383 256,288.345 Q254.98,288.67 253.716,288.172 Q251.805,287.418 251.476,284.998 Q251.27,283.482 251.496,279.557 Q251.66,276.694 254.223,276.52 Q257.197,235.093 259.447,210.754 Q258.228,204.786 257.963,201.036 Q257.167,189.813 262.147,185.732 Q262.325,184.438 262.495,183.319 Q263.124,179.181 263.661,177.628 Q264.496,175.214 266.579,174.89 Q269.634,174.414 270.477,177.723 Q271.044,179.952 270.852,186.879 Q270.778,189.543 268.148,189.975 Q268.126,189.978 268.104,189.982 Q267.136,197.794 265.962,210.395 Q267.181,216.168 269.315,224.136 Q272.69,236.739 272.436,239.878 Q272.249,242.183 270.842,243.408 Q268.959,245.046 266.338,244.074 Q265.048,243.595 263.272,242.149 Q262.126,256.692 260.842,274.492 Z M263.929,233.924 Q264.187,234.131 264.443,234.398 Q264.978,234.956 265.452,235.429 Q265.015,233.334 264.232,230.231 Q264.081,232.054 263.929,233.924 Z"/>
  <path fill="rgb(68.627451%, 0.392157%, 0.392157%)" opacity="0.464" d="M110.24,337.929 Q125.422,340.148 152.216,344.087 Q236.767,356.515 257.596,358.859 Q273.097,360.604 279.512,360.404 Q282.043,360.325 283.295,359.975 Q283.817,359.145 284.319,358.567 Q284.695,358.134 285.257,358.015 Q286.934,357.658 287.29,359.335 Q287.763,361.56 285.661,362.706 Q284.785,364.316 283.775,366.879 Q281.105,373.654 278.037,376.874 Q272.843,382.327 262.709,384.47 Q237.236,389.858 172.288,375.742 Q170.613,375.378 170.977,373.702 Q171.341,372.027 173.016,372.391 Q237.246,386.351 262,381.116 Q271.093,379.192 275.555,374.509 Q278.161,371.774 280.586,365.621 Q280.981,364.617 281.368,363.733 Q280.555,363.802 279.619,363.831 Q272.958,364.039 257.212,362.266 Q236.326,359.915 151.717,347.479 Q124.98,343.549 109.744,341.321 Q108.048,341.073 108.296,339.377 Q108.42,338.529 108.906,338.167 Q109.392,337.805 110.24,337.929 Z"/>
  <path fill="rgb(56.470588%, 100%, 0%)" d="M172.447,393.939 Q177.904,381.688 174.182,360.827 Q171.344,344.918 155.293,289.563 Q141.46,241.855 132.558,209.509 Q131.111,204.254 136.366,202.808 Q138.994,202.085 140.669,203.037 Q142.344,203.989 143.067,206.616 Q151.95,238.892 165.763,286.527 Q181.974,342.436 184.913,358.912 Q189.223,383.067 182.404,398.374 Q180.187,403.353 175.208,401.135 Q170.23,398.917 172.447,393.939 Z"/>
  <path fill="rgb(100%, 0%, 56.862745%)" opacity="0.926" d="M229.961,298.297 Q231.953,295.045 234.426,289.157 Q241.062,273.354 243.94,256.32 Q243.691,254.945 243.505,253.612 Q242.774,248.392 243.546,245.647 Q244.803,241.176 249.059,240.778 Q252.305,240.474 254.884,243.316 Q256.545,245.146 256.29,247.606 Q255.844,251.909 255.184,256.143 Q256.727,263.489 260.286,272.363 Q272.922,303.865 291.18,306.748 Q296.647,307.611 295.783,313.078 Q294.92,318.545 289.453,317.682 Q265.289,313.866 250.382,277.396 Q247.942,285.56 244.632,293.443 Q241.05,301.972 237.967,306.241 Q235.653,309.444 233.164,310.226 Q229.047,311.518 226.489,308.088 Q225.274,306.459 225.145,304.094 Q224.856,298.777 229.961,298.297 Z"/>
  <path fill="rgb(48.627451%, 77.647059%, 94.509804%)" opacity="0.035" d="M361.172,64.948 Q362.326,63.94 361.014,60.259 Q359.293,55.432 354.6,53.072 Q340.096,45.775 314.982,69.656 Q312.959,71.579 311.036,69.556 Q310.074,68.545 310.099,67.558 Q310.124,66.572 311.135,65.61 Q339.096,39.023 357.109,48.085 Q363.8,51.45 366.272,58.384 Q368.862,65.646 364.844,69.154 Q363.792,70.071 362.808,70.005 Q361.823,69.938 360.905,68.887 Q359.069,66.784 361.172,64.948 Z"/>
  <path fill="rgb(96.862745%, 100%, 90.980392%)" opacity="0.027" d="M153.824,18.131 Q176.353,14.845 192.7,16.893 Q207.77,18.782 213.571,24.598 Q218.427,29.466 216.186,35.202 Q214.419,39.723 208.584,41.843 Q199.847,45.017 183.725,42.496 Q180.448,41.983 179.066,40.089 Q177.683,38.194 178.196,34.917 Q178.928,30.231 182.487,29.419 Q170.727,29.074 155.739,31.26 Q149.174,32.217 148.217,25.653 Q147.738,22.371 149.14,20.49 Q150.542,18.61 153.824,18.131 Z M188.557,29.786 Q190.084,29.983 191.493,30.115 Q191.273,30.086 191.05,30.058 Q189.825,29.905 188.557,29.786 Z"/>
  <path fill="rgb(80.392157%, 14.901961%, 0%)" d="M143.232,198.632 Q143.61,200.81 143.244,202.511 Q142.135,207.662 137.004,208.033 Q133.413,208.292 129.614,204.57 Q125.851,200.883 118.408,190.621 Q104.816,171.878 79.302,131.974 Q79.059,131.593 78.872,131.183 Q71.533,115.069 63.706,101.959 Q63.09,101.14 62.496,100.338 Q58.552,95.026 56.395,91.689 Q55.403,90.155 54.926,89.23 Q54.399,88.208 54.191,87.287 Q53.41,83.821 55.885,81.324 Q59.343,77.838 63.631,80.29 Q66.454,81.903 73.823,94.068 Q74.056,94.451 74.288,94.839 Q84.704,108.66 101.288,128.043 Q105.429,132.882 100.59,137.023 Q99.561,137.903 98.564,138.377 Q117.698,167.944 128.72,183.143 Q133.642,189.931 136.572,193.347 Q142.204,192.719 143.232,198.632 Z"/>
  <path fill="rgb(95.686275%, 30.196078%, 0%)" opacity="0.858" d="M157.492,64.323 Q201.111,62.42 231.26,55.4 Q258.2,49.128 268.997,40.221 Q273.694,36.345 274.405,32.566 Q275.071,29.022 272.068,25.585 Q264.93,17.417 241.584,12.494 Q240.745,12.317 240.414,11.809 Q240.083,11.301 240.26,10.463 Q240.614,8.785 242.291,9.139 Q266.758,14.299 274.65,23.329 Q278.748,28.019 277.775,33.199 Q276.834,38.199 271.179,42.865 Q245.674,63.907 157.641,67.748 Q156.785,67.785 156.338,67.376 Q155.891,66.966 155.854,66.11 Q155.779,64.397 157.492,64.323 Z"/>
  <path fill="rgb(43.529412%, 42.352941%, 2.352941%)" opacity="0.26" d="M277.035,40.127 Q274.248,42.462 273.96,43.649 Q273.895,43.916 274.635,44.281 Q276.867,45.383 287.931,46.339 Q310.261,48.27 318.985,53.137 Q333.067,60.994 328.671,78.618 Q329.772,77.961 331.016,77.325 Q330.899,77.004 330.903,76.583 Q330.957,71.522 333.247,69.611 Q335.952,67.353 338.736,70.08 Q344.154,75.387 339.054,85.679 Q332.816,98.268 311.72,108.395 Q284.623,121.402 236.572,128.201 Q234.875,128.441 234.635,126.744 Q234.515,125.895 234.879,125.411 Q235.243,124.927 236.092,124.807 Q283.617,118.081 310.236,105.304 Q330.268,95.688 335.982,84.157 Q339.977,76.095 336.337,72.529 Q335.768,71.972 335.443,72.243 Q334.598,72.949 334.394,75.252 Q334.562,75.303 334.695,75.355 Q336.548,76.068 336.121,77.74 Q335.857,78.773 333.444,79.945 Q329.142,82.034 326.676,84.273 Q325.909,84.969 324.936,84.615 Q323.326,84.027 323.913,82.417 Q330.76,63.633 317.314,56.131 Q309.233,51.622 287.635,49.755 Q275.929,48.743 273.118,47.356 Q269.915,45.776 270.628,42.84 Q271.182,40.558 274.833,37.498 Q275.49,36.948 276.093,37.001 Q276.697,37.055 277.248,37.712 Q278.349,39.026 277.035,40.127 Z"/>
  <path fill="rgb(49.019608%, 34.901961%, 51.372549%)" opacity="0.16" d="M276.086,55.491 Q318.186,48.846 323.489,58.741 Q327.001,65.293 317.023,71.98 Q309.667,76.91 295.816,81.569 Q262.875,92.649 216.479,95.623 Q158.959,99.309 99.121,88.425 Q96.939,88.028 96.047,86.739 Q95.155,85.45 95.551,83.269 Q96.345,78.906 100.708,79.7 Q159.476,90.39 215.911,86.772 Q261.148,83.873 292.988,73.163 Q305.715,68.883 312.086,64.613 Q313.883,63.409 314.805,62.457 Q312.976,61.923 307.43,61.696 Q296.49,61.249 277.469,64.251 Q275.279,64.597 274.011,63.675 Q272.743,62.752 272.397,60.562 Q271.706,56.182 276.086,55.491 Z"/>
  <path fill="rgb(100%, 0%, 74.509804%)" d="M125.23,229.296 Q136.764,234.687 136.258,241.848 Q135.793,248.44 125.201,253.125 Q119.139,255.806 109.828,258.063 Q106.91,258.77 104.08,259.336 Q103.125,259.526 102.364,259.664 Q102.064,259.718 101.859,259.752 Q101.741,259.772 101.655,259.785 Q101.555,259.8 101.464,259.81 Q101.298,259.828 101.134,259.836 Q100.806,259.851 100.479,259.822 Q95.786,259.41 96.023,254.796 Q96.172,230.016 91.515,215.552 Q90.086,211.115 91.738,208.839 Q93.869,205.902 98.91,207.158 Q106.43,209.032 116.178,208.419 Q121.052,208.112 121.359,212.986 Q121.508,215.359 120.43,216.65 Q121.729,215.979 123.341,216.161 Q127.048,216.578 127.831,220.386 Q128.275,222.548 127.274,225.23 Q126.523,227.242 125.279,228.894 Q125.255,229.089 125.23,229.296 Z M105.079,235.548 Q105.632,241.849 105.758,248.986 Q106.639,248.785 107.528,248.57 Q115.988,246.519 121.249,244.192 Q125.659,242.241 126.376,241.421 Q126.169,241.19 125.808,240.886 Q123.591,239.014 118.229,236.926 Q116.475,236.244 115.707,234.952 Q111.009,236.205 105.079,235.548 Z M119.089,217.649 Q118.138,218.083 116.791,218.167 Q108.986,218.659 102.273,217.733 Q103.173,221.392 103.843,225.503 Q110.681,226.749 114.734,224.979 Q115.597,224.602 116.259,224.132 Q117.12,220.222 118.403,218.461 Q118.73,218.012 119.089,217.649 Z M105.793,254.354 Q105.792,254.67 105.79,254.989 Q105.789,255.147 105.778,255.305 Q105.814,254.806 105.793,254.354 Z"/>
  <path fill="rgb(19.215686%, 73.333333%, 0%)" d="M148.784,247.583 Q154.144,267.365 161.578,296.079 Q172.218,337.17 182.022,372.005 Q183.724,378.054 177.675,379.756 Q174.651,380.607 172.713,379.521 Q170.775,378.434 169.924,375.41 Q160.084,340.449 149.411,299.229 Q141.994,270.584 136.653,250.87 Q135.832,247.837 136.937,245.91 Q138.043,243.983 141.076,243.161 Q147.141,241.518 148.784,247.583 Z"/>
  <path fill="rgb(84.705882%, 92.54902%, 94.509804%)" opacity="0.105" d="M82.015,-6.082 Q59.929,3.529 23.574,22.614 Q-14.157,42.421 -24.128,43.346 Q-33.402,44.206 -35.759,36.663 Q-37.838,30.01 -33.755,15.25 Q-33.616,14.745 -33.281,14.342 Q-3.826,-21.196 4.777,-38.863 Q6.504,-42.409 7.904,-43.748 Q9.672,-45.438 11.361,-43.67 Q11.619,-43.401 11.784,-43.068 Q12.831,-40.959 14.551,-37.376 Q18.622,-28.896 20.559,-26.89 Q22.995,-24.368 28.956,-23.444 Q31.373,-23.069 30.999,-20.653 Q30.811,-19.445 30.114,-18.934 Q29.416,-18.424 28.208,-18.611 Q20.62,-19.787 17.041,-23.493 Q14.555,-26.067 10.142,-35.259 Q9.702,-36.175 9.307,-36.994 Q9.241,-36.86 9.174,-36.721 Q0.364,-18.629 -29.18,17.057 Q-32.709,30.026 -31.091,35.204 Q-29.914,38.971 -24.58,38.476 Q-15.573,37.64 21.301,18.284 Q57.814,-0.884 80.063,-10.566 Q81.184,-11.054 81.989,-10.738 Q82.793,-10.421 83.281,-9.3 Q84.257,-7.058 82.015,-6.082 Z"/>
  <path fill="rgb(100%, 36.470588%, 31.764706%)" d="M76.216,117.531 Q70.811,103.014 62.071,97.435 Q55.866,93.474 50.941,95.432 Q47.345,96.861 47.43,100.616 Q47.569,106.835 56.52,114.034 Q59.018,116.044 59.263,118.298 Q59.507,120.552 57.497,123.051 Q53.478,128.048 48.48,124.029 Q34.88,113.089 34.606,100.903 Q34.322,88.235 46.203,83.512 Q57.232,79.129 68.973,86.624 Q81.333,94.514 88.237,113.055 Q90.475,119.065 84.464,121.303 Q78.454,123.541 76.216,117.531 Z"/>
  <path fill="rgb(100%, 93.72549%, 75.686275%)" opacity="0.316" d="M276.762,120.391 Q285.716,92.195 295.844,77.575 Q301.217,69.818 306.338,67.203 Q313.215,63.691 318.599,68.749 Q336.829,85.877 321.733,208.588 Q321.254,212.481 317.361,212.002 Q315.414,211.763 314.561,210.67 Q313.707,209.577 313.947,207.631 Q321.577,145.607 320.466,110.148 Q319.533,80.391 313.227,74.467 Q311.867,73.188 309.906,74.19 Q306.543,75.907 302.293,82.042 Q292.836,95.693 284.238,122.765 Q283.645,124.635 282.413,125.272 Q281.182,125.91 279.313,125.317 Q275.574,124.129 276.762,120.391 Z"/>
</svg>

