<svg xmlns="http://www.w3.org/2000/svg" width="384" height="384" viewBox="0 0 384 384">
  <defs/>
  <path fill="rgb(100%, 99.607843%, 0%)" d="M196.457,164.771 Q243.949,175.198 289.997,192.276 Q310.891,200.025 320.909,202.278 Q336.358,205.753 356.427,205.219 Q361.216,205.092 361.343,209.881 Q361.47,214.669 356.682,214.796 Q335.42,215.362 318.807,211.625 Q308.162,209.23 286.666,201.258 Q241.243,184.412 194.402,174.128 Q189.724,173.101 190.751,168.422 Q191.778,163.743 196.457,164.771 Z"/>
  <path fill="rgb(51.372549%, 100%, 82.745098%)" opacity="0.156" d="M178.832,324.174 Q153.947,338.444 143.965,338.199 Q137.596,338.043 129.534,334.133 Q124.483,331.683 111.03,323.507 Q85.046,307.716 63.351,296.44 Q61.929,295.702 61.588,294.622 Q61.247,293.542 61.985,292.12 Q63.463,289.278 66.306,290.755 Q88.191,302.13 114.358,318.032 Q136.703,331.611 144.122,331.793 Q152.314,331.995 175.645,318.615 Q178.424,317.022 180.017,319.801 Q180.814,321.19 180.518,322.284 Q180.222,323.377 178.832,324.174 Z"/>
  <path fill="rgb(13.72549%, 9.411765%, 8.235294%)" opacity="0.486" d="M245.102,399.637 Q273.605,363.8 286.692,354.499 Q295.088,348.533 300.027,352.995 Q300.694,353.598 300.71,353.593 Q301.763,353.203 304.393,349.402 Q304.769,348.857 305.413,348.703 Q310.019,347.599 319.102,350.92 Q319.881,350.054 321.081,350.663 Q322.191,351.227 323.053,351.85 Q323.446,352.087 323.922,352.373 Q326.341,348.943 330.82,344.171 Q332.004,342.908 333.267,344.093 Q334.529,345.278 333.345,346.54 Q329.099,351.064 326.852,354.221 Q327.096,354.453 327.236,354.746 Q327.494,355.283 327.368,355.865 Q327.18,356.731 326.369,357.087 Q326.227,357.149 326.081,357.185 Q326.083,360.066 323.526,360.407 Q322.301,360.57 321.599,359.568 Q321.143,358.917 321.201,357.995 Q321.259,357.066 321.882,355.747 Q311.458,351.294 306.831,351.955 Q303.857,356.121 301.911,356.84 Q299.929,357.573 297.706,355.565 Q294.828,352.965 288.698,357.322 Q276.01,366.339 247.812,401.793 Q246.734,403.148 245.379,402.07 Q244.024,400.992 245.102,399.637 Z"/>
  <path fill="rgb(1.176471%, 6.27451%, 35.686275%)" opacity="0.512" d="M64.954,150.359 Q63.92,149.188 63.545,148.188 Q62.186,144.561 64.979,141.982 Q66.647,140.44 69.081,140.431 Q70.571,140.425 72.849,141.124 Q89.639,146.273 156.664,183.678 Q156.899,183.809 157.12,183.963 Q161.559,187.056 158.466,191.495 Q145.496,210.11 129.608,215.407 Q114.487,220.448 99.751,212.838 Q88.009,206.775 79.14,194.015 Q72.319,198.175 66.87,197.849 Q59.042,197.381 56.484,189.449 Q52.664,177.603 64.203,151.723 Q64.546,150.955 64.954,150.359 Z M75.464,158.186 Q78.656,172.834 85.852,184.517 Q93.951,197.666 104.715,203.224 Q126.517,214.482 146,190.125 Q120.791,176.121 103.407,167.097 Q103.249,167.451 103.047,167.818 Q100.437,172.556 95.698,169.946 Q83.194,163.057 75.464,158.186 Z M73.552,184.752 Q70.369,178.65 68.071,171.934 Q65.285,181.483 66.782,186.129 Q67.07,187.021 67.516,187.048 Q69.636,187.174 73.552,184.752 Z"/>
  <path fill="rgb(100%, 96.078431%, 0%)" d="M275.227,51.157 Q274.487,78.396 270.491,92.246 Q268.834,97.988 266.739,100.822 Q264.128,104.355 261.063,103.444 Q255.568,101.811 257.717,92.45 Q258.564,88.763 260.539,85.746 Q259.197,85.869 258.081,85.677 Q256.965,85.486 256.301,84.897 Q255.142,83.867 255.477,82.374 Q255.534,82.119 255.635,81.887 Q251.627,80.706 244.587,79.205 Q243.381,78.948 242.907,78.216 Q242.433,77.485 242.69,76.279 Q243.204,73.867 245.616,74.381 Q258.5,77.128 262.324,79.164 Q264.803,78.751 268.284,78.354 Q269.859,67.14 270.297,51.023 Q270.364,48.558 272.829,48.625 Q274.061,48.658 274.661,49.291 Q275.26,49.924 275.227,51.157 Z M267.034,85.647 Q263.585,88.937 262.524,93.554 Q261.954,96.037 262.36,97.872 Q262.41,98.094 262.467,98.275 Q262.611,98.11 262.773,97.89 Q264.341,95.769 265.752,90.879 Q266.444,88.482 267.034,85.647 Z"/>
  <path fill="rgb(89.803922%, 100%, 98.823529%)" opacity="0.242" d="M284.65,40.731 Q285.048,41.005 285.361,41.57 Q285.834,42.423 285.644,43.085 Q285.454,43.748 284.602,44.221 Q281.031,46.2 278.796,46.252 Q275.763,46.322 274.982,43.626 Q274.088,40.543 277.106,35.603 Q280.563,29.946 283.587,31.351 Q286.39,32.653 284.65,40.731 Z M280.351,41.951 Q281.313,38.258 281.487,36.121 Q280.968,36.76 280.433,37.636 Q278.311,41.109 278.726,42.541 L278.705,42.354 Q279.345,42.339 280.351,41.951 Z"/>
  <path fill="rgb(100%, 100%, 0%)" opacity="0.548" d="M104.766,257.367 Q105.82,257.291 107.058,257.456 Q110.918,257.973 112.616,261.476 Q119.465,275.602 118.258,283.961 Q117.987,285.841 117.357,287.38 Q119.044,288.482 120.036,289.546 Q123.622,293.394 121.514,297.927 Q118.692,303.996 112.184,301.703 Q110.011,300.938 107.763,298.872 Q107.356,298.498 106.967,298.11 Q105.523,297.475 103.261,296.589 Q97.676,294.402 98.526,289.403 Q94.289,285.24 91.879,277.612 Q88.687,267.513 90.43,255.265 Q86.965,252.038 76.322,244.98 Q39.345,220.457 17.934,194.754 Q13.297,189.188 18.863,184.551 Q21.646,182.233 24.197,182.465 Q26.748,182.697 29.066,185.481 Q49.12,209.554 84.33,232.905 Q101.068,244.006 104.342,249.49 Q105.759,251.865 105.234,254.579 Q104.959,255.997 104.766,257.367 Z"/>
  <path fill="rgb(100%, 69.803922%, 0%)" opacity="0.53" d="M166.115,151.612 Q180.197,166.376 203.665,179.661 Q211.8,184.265 214.408,186.407 Q216.327,187.984 217.473,189.666 Q219.774,189.166 220.9,188.487 Q224.51,186.305 224.85,178.749 Q224.948,176.575 226.084,175.537 Q227.221,174.498 229.395,174.596 Q233.744,174.792 233.548,179.141 Q232.998,191.349 225.402,195.939 Q222.932,197.431 218.415,198.321 Q214.943,205.809 194.213,219.449 Q192.827,220.361 191.185,220.119 Q187.207,219.533 183.491,218.959 Q183.329,219.486 183.174,220.027 Q183.119,220.223 183.045,220.412 Q182.255,222.44 180.846,223.06 Q179.436,223.679 177.408,222.889 Q160.171,216.174 145.761,211.999 Q140.75,210.547 137.316,209.764 Q136.019,209.469 135.335,209.358 L135.222,209.336 Q135.573,209.355 135.967,209.295 Q136.296,209.245 136.594,209.171 Q131.027,207.091 130.921,205.269 Q130.69,201.29 134.66,200.687 Q135.15,200.613 135.692,200.642 Q136.119,200.665 136.724,200.763 Q137.683,200.918 139.251,201.275 Q142.931,202.114 148.184,203.636 Q149.3,203.96 150.432,204.298 Q162.304,206.75 177.922,209.268 Q182.569,199.558 190.518,195.129 Q195.877,192.143 205.744,191.01 Q203.23,189.419 199.376,187.238 Q174.786,173.318 159.815,157.622 Q156.81,154.472 159.96,151.467 Q163.11,148.462 166.115,151.612 Z M206.637,199.668 Q198.619,200.582 194.756,202.735 Q190.176,205.287 187.014,210.691 Q188.891,210.976 190.81,211.262 Q201.788,203.974 206.637,199.668 Z"/>
  <path fill="rgb(87.45098%, 93.72549%, 80.392157%)" opacity="0.094" d="M6.089,128.915 Q8.72,123.465 6.229,120.204 Q3.812,117.039 -1.055,117.548 Q-7.267,118.197 -11.828,124.919 Q-18.205,134.32 -18.352,151.858 Q-18.379,155.069 -19.998,156.661 Q-21.617,158.253 -24.827,158.226 Q-31.248,158.172 -31.195,151.751 Q-31.015,130.326 -22.455,117.709 Q-14.541,106.044 -2.39,104.775 Q9.644,103.517 16.435,112.408 Q23.718,121.942 17.654,134.499 Q16.257,137.391 14.114,138.138 Q11.97,138.886 9.079,137.489 Q3.296,134.697 6.089,128.915 Z"/>
  <path fill="rgb(5.882353%, 8.235294%, 9.803922%)" opacity="0.462" d="M380.393,366.007 Q375.301,336.551 368.544,326.675 Q364.575,326.671 360.506,327.851 Q356.409,329.039 351.535,331.917 Q349.769,335.865 348.69,340.756 Q348.32,342.43 346.646,342.061 Q346.543,342.038 346.443,342.002 Q343.347,340.905 340.854,339.491 Q337.918,341.872 334.774,344.707 Q330.614,348.458 328.991,349.657 Q327.988,350.397 326.975,349.672 Q325.581,348.674 326.579,347.28 Q331.018,341.075 333.899,335.499 Q335.005,333.36 335.803,332.971 Q337.131,332.324 338.869,333.894 Q339.68,334.626 340.627,335.296 Q344.954,331.929 348.862,329.534 Q350.003,327.159 351.392,325.098 Q356.296,317.819 362.071,318.297 Q366.307,318.648 369.992,323.254 Q384.399,323.92 397.378,338.599 Q398.514,339.883 397.229,341.019 Q395.945,342.154 394.81,340.87 Q384.085,328.741 372.49,326.976 Q379.122,338.531 383.771,365.423 Q384.063,367.112 382.374,367.404 Q380.685,367.696 380.393,366.007 Z M365.611,323.373 Q363.756,321.877 361.788,321.714 Q358.226,321.419 354.654,326.41 Q357.209,325.237 359.551,324.558 Q362.611,323.67 365.611,323.373 Z M346.669,335.076 Q345.262,336.065 343.799,337.176 Q344.754,337.652 345.802,338.086 Q346.2,336.535 346.669,335.076 Z M337.859,337.513 Q337.445,337.194 337.055,336.862 Q337.001,336.966 336.945,337.073 Q336.382,338.163 335.763,339.273 Q336.823,338.366 337.859,337.513 Z"/>
  <path fill="rgb(100%, 100%, 27.843137%)" opacity="0.269" d="M352.477,186.773 Q365.41,200.489 358.442,216.523 Q355.01,224.422 343.555,235.775 Q341.516,237.797 340.336,239.058 Q340.366,239.223 340.389,239.394 Q343.53,262.048 343.418,274.146 Q343.272,289.87 335.235,291.608 Q327.161,293.355 322.016,280.854 Q318.881,273.236 317.085,262.818 Q315.838,255.579 323.077,254.332 Q325.658,253.887 327.477,254.521 Q326.949,249.673 326.2,244.068 Q324.756,242.108 324.585,239.377 Q324.378,236.063 326.587,232.709 Q328.102,230.407 333.213,225.341 Q342.662,215.976 344.968,210.668 Q348.075,203.519 341.788,196.852 Q336.749,191.507 342.094,186.468 Q344.766,183.949 347.362,184.025 Q349.958,184.101 352.477,186.773 Z"/>
  <path fill="rgb(84.705882%, 100%, 39.215686%)" opacity="0.164" d="M121.566,344.06 Q120.186,345.936 117.85,347.484 Q115.464,349.065 113.883,346.679 Q113.279,345.766 113.437,344.683 Q113.487,344.344 113.54,344.018 Q111.489,336.512 112.889,332.945 Q113.951,330.24 116.501,329.861 Q118.606,329.548 120.503,331.123 Q123.678,333.758 123.552,338.252 Q123.878,338.515 124.215,338.807 Q131.669,345.259 139.189,346.591 Q153.275,349.086 173.943,338.522 Q176.492,337.219 177.795,339.768 Q179.097,342.316 176.549,343.619 Q154.169,355.058 138.19,352.227 Q129.691,350.722 121.566,344.06 Z"/>
  <path fill="rgb(64.705882%, 91.372549%, 63.921569%)" opacity="0.087" d="M359.149,270.677 Q353.621,277.256 348.677,279.467 Q352.918,291.42 357.555,314.109 Q358.431,318.394 354.145,319.27 Q349.86,320.146 348.984,315.86 Q343.826,290.621 339.336,279.479 Q337.463,278.466 336.169,276.557 Q334.276,273.765 334.74,271.041 Q335.438,266.943 339.468,266.985 Q341.699,267.009 343.478,268.954 Q344.359,269.917 345.283,271.565 Q347.921,270.441 352.452,265.049 Q355.266,261.701 358.615,264.515 Q361.963,267.329 359.149,270.677 Z"/>
  <path fill="rgb(36.470588%, 1.568627%, 100%)" opacity="0.997" d="M173.924,207.029 Q169.665,206.244 165.009,204.74 Q163.067,204.113 161.979,202.387 Q142.186,170.989 144.175,157.236 Q145.46,148.35 153.676,147.149 Q159.357,146.32 166.471,150.357 Q180.684,158.424 187.547,174.572 Q192.103,185.292 190.807,195.147 Q193.73,193.966 195.979,191.829 Q201.273,186.799 205.865,171.334 Q210.034,157.292 215.553,155.189 Q223.992,151.974 236.737,168.435 Q238.46,170.659 238.209,172.632 Q237.958,174.605 235.733,176.327 Q231.285,179.772 227.841,175.323 Q222.862,168.893 219.832,166.619 Q219.532,166.393 219.285,166.229 Q218.633,167.86 216.651,174.536 Q211.204,192.884 203.729,199.986 Q196.715,206.65 186.596,207.692 Q185.508,209.662 184.156,211.593 Q180.931,216.202 176.321,212.977 Q172.686,210.433 173.924,207.029 Z M179.031,196.406 Q181.108,188.186 177.192,178.973 Q171.818,166.33 160.917,160.143 Q157.274,158.075 155.415,158.269 Q155.368,158.453 155.311,158.846 Q153.96,168.188 170.395,194.626 Q175.038,195.979 179.031,196.406 Z"/>
  <path fill="rgb(93.333333%, 89.019608%, 0%)" opacity="0.82" d="M30.569,322.276 Q32.743,352.624 39.194,382.994 Q42.734,399.662 40.104,404.003 Q37.521,408.266 19.901,415.039 Q12.545,417.867 8.03,419.681 Q6.439,420.32 5.8,418.729 Q5.48,417.934 5.718,417.376 Q5.956,416.819 6.751,416.499 Q11.291,414.675 18.671,411.838 Q35.196,405.486 37.171,402.226 Q39.099,399.046 35.841,383.707 Q29.341,353.104 27.149,322.521 Q27.088,321.666 27.485,321.208 Q27.882,320.75 28.737,320.689 Q30.447,320.566 30.569,322.276 Z"/>
  <path fill="rgb(72.156863%, 100%, 38.431373%)" opacity="0.042" d="M297.867,110.308 Q298.755,105.833 300.948,94.053 Q304.761,73.572 306.4,66.012 Q307.74,59.832 308.578,57.349 Q309.21,55.478 309.973,54.9 Q310.74,54.319 311.653,54.513 Q312.484,54.689 312.97,55.431 Q313.312,55.953 313.454,56.848 Q313.739,58.644 312.023,58.987 Q311.278,61.365 310.097,66.813 Q308.47,74.319 304.667,94.746 Q302.469,106.548 301.578,111.044 Q301.21,112.899 299.355,112.531 Q298.427,112.347 298.055,111.791 Q297.684,111.236 297.867,110.308 Z"/>
  <path fill="rgb(75.686275%, 100%, 27.45098%)" opacity="0.389" d="M208.273,56.306 Q208.747,51.081 208.745,45.768 Q200.564,48.588 194.485,51.171 Q192.841,64.921 195.242,86.916 Q195.356,87.961 194.891,88.541 Q194.425,89.12 193.381,89.234 Q191.291,89.463 191.062,87.373 Q188.823,66.856 190.057,53.153 Q189.158,53.579 188.32,53.998 Q183.372,59.673 176.159,65.689 Q175.566,66.184 174.793,66.176 Q173.742,66.167 173.221,65.636 Q172.701,65.106 172.71,64.055 Q172.777,56.848 184.91,50.615 Q185.534,50.295 186.245,49.955 Q189.907,45.54 192.039,41.4 Q192.14,41.203 192.181,41.129 Q192.25,41.003 192.318,40.903 Q193.478,39.206 195.199,40.3 Q196.514,41.137 196.019,42.965 Q195.607,44.484 195.273,46.16 Q200.695,44.077 208.106,41.542 Q208.385,41.447 208.663,41.351 Q208.554,37.203 209.605,36.102 Q210.855,34.791 214.936,35.501 Q219.125,36.23 222.667,36.453 Q223.716,36.519 224.208,37.076 Q224.699,37.634 224.633,38.683 Q224.551,39.994 223.336,40.494 Q220.067,41.842 212.941,44.322 Q213.016,50.56 212.461,56.686 Q212.366,57.733 211.795,58.209 Q211.224,58.685 210.178,58.59 Q208.084,58.4 208.273,56.306 Z M212.831,39.907 Q213.321,39.735 213.788,39.57 Q213.213,39.473 212.828,39.418 Q212.827,39.628 212.831,39.907 Z"/>
  <path fill="rgb(36.862745%, 50.588235%, 0%)" opacity="0.918" d="M128.257,174.261 Q126.743,176.352 124.029,180.154 Q116.146,191.198 112.698,194.842 Q109.407,198.32 105.865,200.368 Q106.961,202.289 105.266,204.693 Q104.021,206.459 102.516,206.719 Q101.011,206.98 99.245,205.735 Q97.735,204.67 95.709,203.211 Q84.168,203.484 58.184,196.008 Q56.108,195.411 55.368,194.074 Q54.629,192.737 55.226,190.661 Q56.258,187.074 59.957,187.573 Q74.13,189.486 85.006,189.725 Q90.024,189.835 92.22,190.689 Q93.977,191.372 98.122,194.301 Q98.158,194.292 98.193,194.283 Q102.346,193.208 106.421,188.903 Q109.459,185.692 116.996,175.133 Q119.728,171.305 121.258,169.192 Q123.793,165.692 127.292,168.227 Q130.792,170.762 128.257,174.261 Z"/>
  <path fill="rgb(100%, 100%, 92.156863%)" opacity="0.059" d="M287.331,190.593 Q283.049,181.473 282.707,177.349 Q282.601,176.071 282.923,175.241 Q283.526,173.688 285.124,173.659 Q286.783,173.63 289.162,176.111 Q299.233,186.615 321.934,231.838 Q322.326,232.618 322.131,233.204 Q321.937,233.789 321.158,234.18 Q319.599,234.963 318.816,233.404 Q296.35,188.65 286.643,178.525 Q286.491,178.367 286.356,178.228 Q287.079,181.846 290.489,189.11 Q291.231,190.689 289.652,191.431 Q288.862,191.802 288.282,191.592 Q287.702,191.383 287.331,190.593 Z"/>
  <path fill="rgb(69.019608%, 99.607843%, 92.941176%)" opacity="0.016" d="M228.315,131.466 Q214.173,134.004 202.425,138.031 Q194.982,140.583 189.564,141.316 Q181.406,142.42 164.708,142.183 Q162.548,142.152 162.579,139.993 Q162.609,137.833 164.769,137.864 Q181.146,138.097 188.985,137.036 Q193.982,136.36 201.025,133.945 Q213.085,129.811 227.552,127.214 Q229.678,126.833 230.059,128.958 Q230.441,131.084 228.315,131.466 Z"/>
  <path fill="rgb(100%, 93.333333%, 94.117647%)" opacity="0.055" d="M371.455,269.332 Q370.364,268.283 369.68,268.036 Q369.08,269.16 370.023,272.115 Q373.718,283.687 390.167,283.81 Q393.146,283.832 393.124,286.811 Q393.102,289.791 390.122,289.768 Q379.501,289.689 372.373,284.605 Q366.395,280.342 364.347,273.927 Q362.275,267.437 365.338,263.896 Q367.366,261.552 370.499,262.109 Q373,262.553 375.584,265.035 Q377.732,267.1 375.668,269.248 Q373.604,271.396 371.455,269.332 Z"/>
  <path fill="rgb(93.333333%, 100%, 70.196078%)" opacity="0.045" d="M8.005,262.132 Q14.722,231.253 22.458,216.346 Q30.798,200.277 40.146,203.421 Q41.123,203.75 41.447,204.403 Q41.771,205.055 41.442,206.032 Q40.785,207.986 38.831,207.329 Q32.83,205.31 26.118,218.245 Q18.634,232.665 12.034,263.009 Q11.815,264.016 11.202,264.41 Q10.589,264.804 9.581,264.585 Q7.567,264.147 8.005,262.132 Z"/>
  <path fill="rgb(59.607843%, 100%, 98.039216%)" opacity="0.19" d="M253.683,234.08 Q233.621,224.647 215.928,220.349 Q198.79,216.185 190.189,218.268 Q184.724,219.591 185.879,224.434 Q188.188,234.11 205.767,251.745 Q209.513,255.504 205.755,259.251 Q203.875,261.124 201.999,261.121 Q200.122,261.118 198.249,259.239 Q178.558,239.484 175.555,226.897 Q171.945,211.765 187.691,207.952 Q198.794,205.263 218.434,210.034 Q237.168,214.585 258.2,224.475 Q263.002,226.733 260.744,231.536 Q258.486,236.338 253.683,234.08 Z"/>
  <path fill="rgb(67.45098%, 64.313725%, 14.509804%)" opacity="0.678" d="M170.724,397.132 Q166.942,397.918 166.169,398.913 Q166.118,398.978 166.772,399.498 Q170.772,402.68 183.343,404.008 Q217.548,407.62 251.296,391.509 Q206.607,368.033 182.443,350.98 Q180.506,349.613 179.591,349.025 Q176.895,356.855 165.985,362.858 Q162.196,365.884 156.159,370.707 Q140.951,382.857 140.497,383.126 Q139.679,383.612 138.84,383.196 Q137.717,382.637 137.908,381.397 Q137.958,381.074 138.124,380.792 Q138.207,380.649 138.318,380.521 Q138.405,380.421 138.555,380.285 Q138.725,380.13 139.117,379.794 Q139.825,379.188 141.465,377.815 Q143.599,376.028 151.177,369.721 Q163.127,359.776 171.476,352.809 Q172.605,351.867 173.574,352.701 Q175.553,350.322 176.4,347.758 Q177.402,344.726 179.608,345.25 Q180.606,345.487 184.42,348.179 Q209.201,365.667 255.879,390.039 Q256.369,390.294 256.617,390.787 Q257.003,391.553 256.813,392.128 Q256.623,392.704 255.857,393.09 Q219.72,411.296 182.983,407.417 Q169.419,405.985 164.638,402.181 Q161.332,399.551 163.461,396.81 Q165.008,394.818 170.026,393.775 Q171.705,393.426 172.053,395.104 Q172.228,395.944 171.895,396.45 Q171.563,396.957 170.724,397.132 Z"/>
  <path fill="rgb(100%, 99.607843%, 81.568627%)" opacity="0.008" d="M246.587,67.494 Q235.057,69.298 219.434,72.578 Q214.478,73.619 210.238,70.851 Q205.998,68.082 204.957,63.126 Q204.213,59.584 205.517,56.208 Q212.38,38.44 229.141,32.335 Q232.524,31.102 236.716,30.379 Q236.758,26.017 239.7,22.618 Q243.013,18.788 248.064,18.423 Q253.115,18.058 256.945,21.371 Q262.266,25.976 264.797,28.711 Q270.214,34.566 270.106,40.505 Q270.099,40.854 270.082,41.193 Q277.938,41.415 281.87,43.287 Q292.198,48.206 290.536,59.017 Q289.646,64.808 284.183,70.204 Q277.932,76.377 262.833,84.877 Q258.42,87.361 253.543,85.997 Q248.666,84.633 246.182,80.22 Q243.698,75.807 245.062,70.93 Q245.593,69.03 246.587,67.494 Z"/>
  <path fill="rgb(24.313725%, 100%, 85.098039%)" opacity="0.92" d="M102.681,119.011 Q105.371,103.619 101.451,100.794 Q98.482,98.655 90.641,105.193 Q81.142,113.113 72.489,128.208 Q64.34,142.425 60.14,157.885 Q78.111,152.322 102.238,144.534 Q143.57,131.193 157.098,130.203 Q170.676,129.21 208.853,136.759 Q216.472,138.266 220.725,139.096 Q224.16,139.766 223.49,143.202 Q223.155,144.919 222.128,145.61 Q221.102,146.302 219.384,145.966 Q215.114,145.133 207.495,143.626 Q170.245,136.26 157.608,137.185 Q144.92,138.113 104.388,151.196 Q76.136,160.315 56.295,166.393 Q55.416,166.663 54.518,166.465 Q51.1,165.714 51.851,162.295 Q56.187,142.573 66.416,124.727 Q75.694,108.541 86.159,99.816 Q98.17,89.802 105.543,95.115 Q113.022,100.504 109.577,120.216 Q108.974,123.664 105.526,123.061 Q103.802,122.76 103.091,121.747 Q102.38,120.735 102.681,119.011 Z"/>
  <path fill="rgb(59.607843%, 54.901961%, 17.254902%)" opacity="0.423" d="M280.082,296.206 Q282.241,295.987 284.177,295.855 Q285.848,295.203 287.538,294.896 Q292.711,293.956 296.597,296.312 Q298.624,296.803 299.712,297.661 Q301.739,299.262 303.073,304.472 Q305.709,310.89 305.329,320.829 Q305.244,323.061 303.024,323.304 Q300.45,323.585 300.169,321.012 Q299.94,318.919 299.577,315.265 Q299.049,309.945 298.389,306.684 Q297.692,304.925 296.728,303.537 Q295.571,301.871 294.132,300.953 Q291.256,300.541 285.426,300.94 Q280.941,302.926 276.331,308.377 Q269.244,316.759 264.535,330.514 Q263.697,332.963 261.248,332.125 Q258.799,331.286 259.637,328.837 Q264.661,314.16 272.378,305.034 Q275.092,301.825 277.861,299.605 Q277.799,299.343 277.768,299.043 Q277.507,296.467 280.082,296.206 Z"/>
  <path fill="rgb(100%, 100%, 72.941176%)" opacity="0.066" d="M148.939,214.306 Q149.535,253.172 163.953,277.017 Q169.897,286.847 182.15,298.247 Q183.211,297.788 184.491,297.945 Q185.602,298.082 186.926,298.814 Q195.835,303.736 207.944,318.531 Q209.736,319.313 211.326,319.952 Q212.515,320.302 213.634,320.642 Q217.137,321.708 218.507,322.269 Q219.024,322.481 219.379,322.692 Q220.485,323.348 221.047,324.468 Q222.581,327.526 219.913,329.666 Q218.928,330.456 217.664,330.579 Q216.772,330.666 215.398,330.291 Q212.492,329.497 208.575,327.942 Q182.436,320.28 123.143,308.163 Q119.008,307.318 119.853,303.182 Q120.275,301.114 121.52,300.292 Q122.766,299.469 124.833,299.892 Q162.391,307.567 186.807,313.49 Q165.634,296.114 156.729,281.385 Q141.129,255.586 140.498,214.436 Q140.434,210.215 144.654,210.151 Q148.875,210.086 148.939,214.306 Z"/>
  <path fill="rgb(29.019608%, 14.509804%, 81.176471%)" opacity="0.722" d="M143.344,82.892 Q140.457,70.17 144.626,57.121 Q148.939,43.617 157.124,40.908 Q167.497,37.475 174.168,53.322 Q175.86,57.341 177.238,62.536 Q178.571,64.414 179.895,65.443 Q182.235,67.265 185.123,65.931 Q190.607,63.397 205.484,43.743 Q229.555,11.944 246.852,0.577 Q249.455,-1.134 251.592,1.133 Q252.866,2.484 252.827,3.796 Q252.788,5.108 251.437,6.381 Q221.228,34.856 208.739,52.932 Q197.447,69.276 182.339,104.838 Q181.433,106.972 179.118,107.094 Q175.41,107.291 175.214,103.583 Q173.956,79.802 170.365,65.577 Q167.874,61.702 165.58,55.964 Q164.772,53.944 165.622,52.634 Q162.493,46.953 159.458,47.957 Q154.862,49.478 151.699,59.38 Q148.147,70.501 150.586,81.249 Q151.407,84.87 147.786,85.691 Q145.976,86.102 144.865,85.402 Q143.755,84.702 143.344,82.892 Z M179.59,73.56 Q180.727,80.23 181.516,88.209 Q185.45,79.519 189.119,72.216 Q188.663,72.475 188.238,72.671 Q183.684,74.776 179.59,73.56 Z"/>
  <path fill="rgb(0%, 0%, 23.137255%)" d="M22.182,164.227 Q39.161,166.031 55.28,167.142 Q57.069,158.253 65.039,151.815 Q77.322,141.893 100.723,142.446 Q101.216,142.458 101.7,142.553 Q120.07,146.158 127.761,161.983 Q133.665,174.13 131.432,188.167 Q130.465,194.248 128.121,198.148 Q124.09,204.853 117.921,203.217 Q109.715,201.041 107.494,180.559 Q105.274,180.505 101.635,180.487 Q85.116,180.407 67.563,179.483 Q69.569,184.971 74.831,189.247 Q83.017,195.899 94.116,194.82 Q96.995,194.54 98.575,195.839 Q100.154,197.139 100.434,200.018 Q100.994,205.777 95.236,206.337 Q79.407,207.876 67.534,198.227 Q57.585,190.142 55.374,178.747 Q38.619,177.61 20.959,175.734 Q18.082,175.428 16.797,173.837 Q15.511,172.246 15.817,169.369 Q16.428,163.616 22.182,164.227 Z M67.136,167.872 Q84.961,168.835 101.691,168.916 Q110.207,168.957 112.373,169.277 Q115.97,169.808 117.716,172.042 Q119.878,174.809 118.849,177.85 Q119.298,182.761 120.013,186.296 Q121.654,175.888 117.354,167.041 Q112.28,156.601 99.944,154.004 Q81.173,153.657 72.311,160.816 Q68.516,163.881 67.136,167.872 Z"/>
  <path fill="rgb(65.882353%, 100%, 80.392157%)" opacity="0.425" d="M76.646,184.353 Q102.791,153.325 121.988,143.59 Q117.493,140.257 113.145,138.727 Q105.792,136.141 92.616,139.017 Q83.586,140.988 77.516,140.491 Q71.795,145.881 63.115,149.703 Q57.023,152.385 44.634,155.914 Q28.594,160.482 25.583,163.937 Q21.768,168.315 29.297,181.446 Q32.8,187.556 26.69,191.059 Q23.636,192.81 21.233,192.158 Q18.83,191.507 17.078,188.452 Q4.562,166.622 14.964,154.684 Q20.719,148.08 40.776,142.368 Q63.193,135.983 69.644,128.361 Q72.698,124.752 77.194,126.212 Q80.426,127.261 89.613,125.256 Q106.695,121.528 117.818,125.441 Q128.078,129.049 138.217,139.136 Q146.135,139.218 150.919,145.081 Q156.45,151.86 154.519,163.127 Q153.924,166.598 151.892,168.035 Q149.859,169.473 146.389,168.879 Q143.413,168.369 141.731,165.863 Q137.289,159.246 132.973,154.169 Q115.909,159.615 87.417,193.429 Q85.148,196.121 82.667,196.333 Q80.186,196.545 77.493,194.276 Q72.108,189.738 76.646,184.353 Z"/>
  <path fill="rgb(100%, 93.72549%, 97.254902%)" opacity="0.054" d="M186.049,58.964 Q190.296,60.231 197.675,62.358 Q225.557,70.393 266.139,84.741 Q270.398,86.247 268.892,90.506 Q267.934,93.216 265.073,93.496 Q234.98,96.442 218.448,95.757 Q199.881,94.988 187.56,89.384 Q175.808,84.039 164.772,71.922 Q157.274,63.69 142.1,42.493 Q139.471,38.82 143.144,36.19 Q144.981,34.875 146.556,35.136 Q148.132,35.397 149.447,37.234 Q164.311,57.999 171.451,65.838 Q181.237,76.583 191.3,81.16 Q202.016,86.034 218.822,86.73 Q228.407,87.127 242.918,86.237 Q215.579,76.92 195.173,71.039 Q187.754,68.901 183.466,67.622 Q179.138,66.33 180.429,62.001 Q181.721,57.673 186.049,58.964 Z"/>
  <path fill="rgb(100%, 78.431373%, 99.607843%)" opacity="0.025" d="M180.477,32.184 Q179.76,34.546 178.989,36.691 Q192.107,31.029 211.685,27.516 Q214.615,26.99 215.14,29.92 Q215.403,31.384 214.802,32.248 Q214.201,33.112 212.737,33.375 Q189.655,37.516 176.181,44.618 Q175.753,44.843 175.343,45.065 Q172.715,49.997 169.61,53.061 Q166.724,55.909 164.25,56.098 Q161.751,56.289 160.609,54.226 Q159.756,52.685 160.412,50.716 Q162.021,45.892 170.871,40.752 Q172.975,36.408 174.781,30.456 Q175.645,27.608 178.493,28.472 Q179.917,28.904 180.413,29.832 Q180.909,30.76 180.477,32.184 Z"/>
  <path fill="rgb(1.568627%, 0%, 14.509804%)" opacity="0.979" d="M268.82,157.979 Q261.353,181.704 228.956,193.188 Q211.435,199.398 173.372,204.587 Q137.27,209.509 137.51,212.03 Q138.207,219.367 130.869,220.064 Q126.657,220.464 124.188,217.03 Q118.081,208.537 106.744,204.911 Q99.78,202.684 86.507,201.653 Q79.449,201.105 76.77,200.47 Q68.113,198.42 67.637,191.145 Q67.156,183.79 74.512,183.309 Q78.189,183.069 80.148,184.787 Q80.877,185.427 81.368,186.338 Q83.371,186.623 87.649,186.956 Q102.635,188.12 111.235,190.87 Q121.576,194.178 128.973,200.56 Q133.063,197.572 139.846,195.575 Q148.043,193.162 171.38,189.981 Q207.94,184.997 224.03,179.293 Q249.498,170.265 254.758,153.553 Q256.971,146.522 264.002,148.735 Q267.517,149.841 268.722,152.152 Q269.926,154.463 268.82,157.979 Z"/>
  <path fill="rgb(96.078431%, 100%, 60.392157%)" opacity="0.438" d="M42.31,125.438 Q31.461,127.072 22.987,122.695 Q10.908,116.455 9.555,102.629 Q8.336,90.181 16.962,80.052 Q25.92,69.534 41.311,67.391 Q45.389,66.823 48.834,69.078 Q68.065,81.674 78.032,95.877 Q87.837,109.849 86.556,121.822 Q85.753,129.331 80.734,134.056 Q75.445,139.036 67.713,138.956 Q55.679,138.832 43.054,126.249 Q42.658,125.854 42.31,125.438 Z M58.539,110.712 Q61.667,113.829 64.007,115.406 Q62.875,112.467 60.076,108.478 Q53.449,99.034 40.532,89.951 Q36.19,91.308 33.663,94.275 Q31.076,97.313 31.387,100.493 Q31.578,102.442 33.055,103.205 Q36.576,105.024 44.163,102.449 Q48.465,100.989 52.54,102.999 Q56.614,105.009 58.074,109.311 Q58.295,109.964 58.437,110.611 Q58.488,110.661 58.539,110.712 Z"/>
  <path fill="rgb(10.196078%, 0%, 21.960784%)" opacity="0.429" d="M205.893,341.899 Q222.918,315.971 240.631,318.081 Q247.411,318.888 250.343,323.453 Q251.789,323.155 253.579,323.365 Q255.976,323.646 259.611,325.316 Q259.814,325.087 260.086,324.865 Q262.021,323.287 263.6,325.222 Q267.174,329.605 265.843,331.46 Q264.413,333.452 260.252,331.22 Q255.379,328.605 252.997,328.326 Q252.338,328.249 251.798,328.373 Q251.493,331 248.449,332.983 Q246.357,334.347 244.993,332.254 Q244.446,331.414 244.632,330.428 Q245.111,327.887 246.2,326.249 Q244.552,323.578 240.041,323.041 Q225.397,321.297 210.068,344.641 Q209.383,345.684 208.518,345.864 Q207.653,346.043 206.61,345.357 Q204.522,343.986 205.893,341.899 Z"/>
  <path fill="rgb(44.705882%, 100%, 100%)" opacity="0.108" d="M299.272,101.625 Q290.969,109.148 280.398,110.081 Q269.19,111.07 266.005,104.8 Q265.674,106.165 264.817,106.969 Q263.509,108.197 260.972,108.117 Q260.736,108.109 260.502,108.08 Q251.223,106.918 247.752,109.711 Q244.514,112.315 244.365,120.487 Q244.103,134.855 258.551,188.656 Q259.21,191.107 258.313,192.662 Q257.416,194.217 254.965,194.875 Q250.062,196.192 248.746,191.289 Q233.925,136.103 234.214,120.301 Q234.45,107.382 241.388,101.8 Q247.145,97.168 257.688,97.651 Q259.679,94.269 264.096,90.85 Q270.738,85.709 279.883,82.496 Q304.177,73.96 318.175,86.649 Q319.743,88.07 319.837,90.184 Q319.95,92.72 318.739,94.044 Q317.527,95.369 314.992,95.482 Q307.311,95.824 300.941,96.455 Q302.021,99.134 299.272,101.625 Z"/>
  <path fill="rgb(16.862745%, 0%, 89.019608%)" opacity="0.851" d="M93.221,135.526 Q100.138,101.595 100.543,80.763 Q95.024,83.677 89.419,86.835 Q86.179,88.661 83.885,85.734 Q75.8,75.42 80.553,61.311 Q85.34,47.103 95.28,46.994 Q106.365,46.873 108.65,66.93 Q123.219,59.822 137.204,54.431 Q144.715,51.536 145.089,50.95 Q145.194,50.787 143.707,45.348 Q137.944,24.264 136.868,-1.511 Q136.688,-5.838 141.015,-6.018 Q143.178,-6.109 144.305,-5.072 Q145.432,-4.035 145.522,-1.872 Q146.557,22.925 152.062,43.064 Q154.563,52.213 152.387,55.616 Q150.481,58.597 140.319,62.513 Q125.134,68.366 109.212,76.311 Q109.535,98.858 101.708,137.256 Q101.276,139.377 99.999,140.222 Q98.722,141.067 96.6,140.634 Q92.356,139.769 93.221,135.526 Z M100.335,71.102 Q100.279,70.311 100.21,69.546 Q99.464,61.27 97.283,57.494 Q96.216,55.646 95.375,55.655 Q91.585,55.697 88.762,64.077 Q86.231,71.587 88.796,77.265 Q94.61,74.054 100.335,71.102 Z"/>
  <path fill="rgb(99.215686%, 100%, 98.431373%)" opacity="0.111" d="M36.547,248.866 Q41.219,214.983 52.255,198.288 Q45.725,190.669 40.731,183.788 Q38.743,181.05 41.481,179.063 Q42.85,178.069 44.032,178.257 Q45.213,178.444 46.207,179.813 Q50.69,185.991 56.466,192.799 Q59.093,189.873 62.015,187.745 Q72.458,180.142 84.524,184.999 Q96.406,189.782 108.464,206.658 Q110.34,209.284 107.805,211.282 Q102.705,215.303 96.93,218.599 Q108.606,230.969 119.82,253.383 Q121.139,255.611 119.465,257.496 Q117.746,259.431 115.27,258.267 Q114.607,257.955 113.423,257.092 Q111.407,255.624 107.692,252.519 Q98.861,245.139 87.92,234.915 Q69.811,217.991 56.872,203.552 Q47.52,218.823 43.25,249.79 Q42.788,253.142 39.436,252.68 Q37.761,252.449 37.038,251.495 Q36.316,250.542 36.547,248.866 Z M60.93,197.939 Q73.94,212.588 92.54,229.971 Q99.705,236.666 105.938,242.114 Q98.983,230.61 91.936,223.165 Q88.672,219.717 88.945,217.505 Q89.231,215.184 93.347,212.852 Q97.354,210.582 101.006,207.94 Q91.145,194.959 81.997,191.276 Q73.41,187.819 65.998,193.215 Q63.329,195.159 60.93,197.939 Z M113.709,256.291 Q113.832,256.575 114.016,256.861 Q113.916,256.705 113.833,256.539 Q113.77,256.413 113.709,256.291 Z"/>
  <path fill="rgb(96.078431%, 96.470588%, 100%)" opacity="0.128" d="M280.397,271.643 Q267.34,270.063 255.923,269.983 Q253.306,274.223 245.968,276.172 Q242.172,277.18 229.946,279.156 Q211.58,282.124 198.664,284.814 Q197.631,285.1 196.551,285.116 Q190.687,285.203 188.609,279.724 Q185.8,272.32 192.687,269.28 Q205.548,260.501 223.067,256.549 Q220.31,254.452 220.071,250.18 Q219.935,247.749 221.177,244.508 Q221.56,243.51 222.181,242.64 Q223.14,241.301 224.173,240.415 Q226.792,230.764 223.073,218.834 Q221.832,214.853 223.202,212.242 Q224.572,209.631 228.553,208.39 Q236.515,205.908 238.997,213.869 Q244.258,230.744 240.14,245.258 Q247.116,250.323 249.659,252.435 Q250.217,252.899 250.736,253.361 Q265.417,253.029 282.4,255.084 Q290.68,256.086 289.678,264.365 Q288.676,272.645 280.397,271.643 Z"/>
  <path fill="rgb(0%, 100%, 82.745098%)" d="M148.423,258.032 Q165.956,259.833 178.387,254.19 Q185.51,250.957 188.161,255.738 Q189.304,257.8 188.708,265.025 Q187.392,280.961 187.634,298.187 Q187.669,300.698 185.681,302.231 Q158.814,322.949 134.29,325.048 Q111.573,326.993 96.728,313.174 Q82.571,299.996 81.923,278.851 Q81.258,257.137 95.609,236.824 Q98.504,232.726 102.602,235.621 Q104.651,237.068 104.952,238.817 Q105.253,240.565 103.805,242.614 Q91.391,260.186 91.953,278.544 Q92.473,295.503 103.565,305.829 Q115.152,316.615 133.434,315.05 Q154.147,313.277 177.573,295.788 Q177.452,279.817 178.649,264.909 Q165.052,269.828 147.397,268.015 Q142.406,267.502 142.919,262.511 Q143.432,257.52 148.423,258.032 Z"/>
  <path fill="rgb(0%, 100%, 35.686275%)" d="M309.702,182.007 Q337.91,191.187 371.307,206.708 Q390.994,215.858 392.291,213.676 Q394.006,210.791 385.641,180.612 Q378.828,156.034 374.081,137.094 Q370.497,136.896 367.375,136.35 Q357.192,143.78 350.255,151.723 Q346.405,156.131 344.509,159.275 Q343.941,160.917 343.4,162.05 Q342.897,163.105 342.433,163.464 Q341.191,164.424 340.111,163.31 Q339.56,162.742 339.622,161.923 Q339.647,161.598 339.799,161.157 Q340.311,159.672 341.368,157.866 Q341.763,156.694 342.181,155.228 Q345.493,143.619 346.92,125.01 Q346.927,124.916 346.944,124.824 Q347.444,122.166 347.532,120.582 Q347.534,120.533 347.536,120.489 Q347.522,120.278 347.518,120.068 Q347.512,119.717 347.582,119.456 Q347.933,118.143 349.287,118.179 Q350.521,118.212 350.884,119.397 Q350.94,119.581 350.959,119.795 Q350.981,120.034 350.97,120.416 Q351.161,122.407 352.828,124.812 Q356.913,130.705 366.529,132.732 Q369.673,130.486 373.103,128.291 Q373.344,128.137 373.621,128.069 Q374.454,127.866 374.972,128.181 Q375.49,128.496 375.693,129.328 Q376.226,131.515 376.789,133.783 Q383.943,133.906 392.993,132.703 Q394.692,132.477 394.918,134.176 Q395.031,135.026 394.663,135.507 Q394.294,135.989 393.445,136.102 Q384.742,137.259 377.644,137.203 Q382.313,155.768 388.945,179.696 Q393.954,197.768 395.13,203.406 Q397.015,212.439 395.238,215.428 Q393.108,219.012 386.147,216.81 Q382.265,215.582 369.862,209.817 Q336.653,194.383 308.641,185.267 Q307.826,185.002 307.551,184.461 Q307.277,183.921 307.542,183.106 Q308.072,181.476 309.702,182.007 Z M362.988,135.346 Q354.388,132.855 350.198,127.031 Q349.08,140.51 346.94,150.316 Q347.298,149.897 347.672,149.468 Q354.035,142.183 362.988,135.346 Z M373.219,133.631 Q373.081,133.073 372.937,132.489 Q372.188,132.984 371.454,133.481 Q372.32,133.568 373.219,133.631 Z"/>
  <path fill="rgb(47.058824%, 99.607843%, 100%)" opacity="0.408" d="M175.877,309.488 Q162.274,327.45 149.006,335.312 Q135.195,343.496 126.762,338.427 Q119.857,334.278 121.747,326.246 Q122.892,321.383 127.768,317.111 Q136.676,309.305 154.925,305.481 Q156.69,305.112 158.15,305.207 Q160.399,302.534 162.693,299.504 Q167.685,292.913 174.277,297.904 Q177.573,300.4 177.973,303.296 Q178.373,306.192 175.877,309.488 Z"/>
  <path fill="rgb(14.117647%, 100%, 30.196078%)" d="M314.047,104.314 Q302.341,104.157 299.132,104.926 Q299.158,104.978 299.188,105.038 Q301.7,110.08 298.493,113.641 Q297.713,114.506 296.891,114.549 Q296.068,114.592 295.203,113.813 Q294.943,113.579 294.763,113.279 Q290.163,105.597 284.362,93.247 Q278.808,81.422 277.387,82.079 Q273.827,83.725 261.579,108.864 Q261.068,109.911 260.29,110.18 Q259.511,110.448 258.464,109.938 Q256.37,108.918 257.39,106.823 Q270.366,80.192 275.432,77.85 Q279.588,75.929 283.095,80.822 Q284.775,83.166 288.579,91.267 Q291.646,97.797 294.361,102.98 Q294.96,101.405 297.121,100.662 Q300.57,99.474 314.109,99.655 Q316.439,99.686 316.407,102.015 Q316.392,103.18 315.802,103.755 Q315.212,104.329 314.047,104.314 Z"/>
  <path fill="rgb(5.882353%, 67.058824%, 16.862745%)" opacity="0.791" d="M284.795,261.408 Q288.532,252.32 288.64,247.766 Q288.365,247.488 288.141,247.188 Q286.258,244.663 288.108,242.617 Q289.482,241.098 291.438,241.791 Q292.556,242.187 293.266,243.291 Q293.594,243.801 293.812,244.442 Q297.563,245.81 305.828,245.184 Q307.943,239.436 309.108,235.814 Q309.242,234.739 309.475,233.592 Q309.899,231.506 310.423,230.268 Q310.608,229.831 310.817,229.522 Q311.18,228.985 311.71,228.657 Q313.946,227.272 315.484,229.401 Q316.25,230.46 315.905,232.229 Q315.582,233.888 314.607,236.974 Q314.294,240.033 315.108,241.927 Q316.245,244.577 320.992,243.459 Q323.716,242.818 324.357,245.542 Q324.998,248.267 322.274,248.908 Q314.722,250.686 311.326,246.447 Q310.911,247.58 310.459,248.796 Q309.848,250.44 308.101,250.606 Q299.214,251.452 294.019,250.307 Q293.269,255.518 289.971,263.537 Q288.907,266.125 286.318,265.061 Q283.73,263.997 284.795,261.408 Z"/>
  <path fill="rgb(100%, 99.607843%, 0%)" opacity="0.125" d="M363.195,147.458 Q360.091,153.091 355.859,160.992 Q357.669,165.205 355.982,169.476 Q355.851,169.807 355.727,170.127 Q364.593,172.018 371.236,175.958 Q385.045,184.148 396.203,202.902 Q397.954,205.845 397.749,209.263 Q397.473,213.869 394.021,216.931 Q390.57,219.993 385.964,219.718 Q353.505,217.775 322.027,213.133 Q321.576,213.445 321.126,213.731 Q312.063,219.485 300.109,217.649 Q291.828,216.378 277.348,210.194 Q273.104,208.382 271.385,204.1 Q269.666,199.818 271.478,195.574 Q273.584,190.643 278.752,189.213 Q287.581,186.77 296.926,187.229 Q302.097,187.482 314.113,189.361 Q319.977,181.071 330.474,161.261 Q338.56,146 343.681,136.706 Q345.907,132.665 350.339,131.382 Q354.772,130.098 358.813,132.325 Q362.855,134.552 364.138,138.984 Q365.421,143.416 363.195,147.458 Z M340.578,189.368 Q339.488,191.308 338.554,192.92 Q349.351,194.302 360.268,195.361 Q360.069,195.239 359.871,195.121 Q355.365,192.449 347.973,191.361 Q343.727,190.736 340.578,189.368 Z"/>
  <path fill="rgb(3.137255%, 74.117647%, 41.176471%)" opacity="0.627" d="M343.43,287.04 Q341.059,281.186 337.731,279.834 Q335.785,279.044 331.134,279.547 Q329.637,279.709 328.317,279.716 Q325.172,284.927 323.427,289.717 Q323.222,291.847 322.951,293.738 Q322.129,299.485 320.502,300.843 Q318.889,302.189 316.935,301.483 Q315.44,300.943 314.806,299.448 Q314.475,298.668 314.455,297.621 Q314.432,296.449 314.753,294.666 Q315.324,291.495 316.459,288.191 Q316.965,282.446 316.987,274.87 Q316.822,274.054 316.725,273.123 Q316.352,269.553 316.587,261.193 Q316.599,260.761 316.664,260.383 Q316.505,256.702 316.267,252.726 Q316.057,249.193 319.59,248.982 Q323.124,248.772 323.334,252.305 Q323.834,260.688 323.992,267.825 Q324.323,270.253 324.989,271.474 Q325.28,271.214 325.615,270.908 Q337.265,254.33 357.245,242.582 Q359.92,241.008 361.83,243.455 Q364.007,246.246 361.217,248.423 Q349.769,257.357 335.805,270.975 Q335.101,271.661 334.455,272.286 Q338.034,272.316 340.395,273.276 Q346.497,275.754 349.992,284.382 Q351.321,287.663 348.04,288.992 Q344.759,290.321 343.43,287.04 Z"/>
  <path fill="rgb(44.705882%, 14.117647%, 100%)" opacity="0.766" d="M37.2,30.273 Q43.909,55.312 51.738,116.564 Q52.103,119.423 49.244,119.789 Q47.147,120.057 46.262,118.137 Q41.988,108.87 34.812,93.076 Q17.191,54.3 12.607,48.766 Q11.307,47.198 10.571,46.943 L10.508,47.026 Q8.762,48.46 6.354,56.048 Q5.15,99.549 -3.944,121.209 Q-6.263,126.732 -8.904,128.969 Q-12.934,132.383 -16.952,129.232 Q-22.626,124.783 -26.715,103.041 Q-26.982,101.624 -26.407,100.783 Q-25.832,99.942 -24.416,99.675 Q-22.999,99.409 -22.158,99.984 Q-21.317,100.559 -21.05,101.975 Q-17.362,121.586 -13.395,124.696 Q-13.075,124.948 -12.63,124.571 Q-11.043,123.227 -9.259,118.978 Q-0.541,98.214 0.603,55.489 Q0.614,55.088 0.734,54.705 Q3.732,45.133 6.849,42.572 Q11.675,38.608 17.045,45.089 Q22.121,51.214 40.059,90.691 Q41.868,94.671 43.493,98.239 Q36.72,49.127 30.997,29.338 Q27.366,26.076 25.953,20.483 Q25.062,16.96 26.305,15.302 Q27.444,13.783 29.305,14.084 Q30.349,14.252 31.19,15.069 Q31.953,15.81 32.72,17.336 Q34.301,20.485 35.953,25.899 Q36.134,26.019 36.322,26.131 Q38.796,27.61 37.318,30.084 Q37.26,30.181 37.2,30.273 Z"/>
  <path fill="rgb(100%, 100%, 63.529412%)" opacity="0.268" d="M351.694,132.997 Q366.76,113.744 375.322,98.032 Q377.859,93.377 380.304,92.597 Q384.456,91.274 386.897,94.917 Q387.551,95.893 387.844,97.175 Q387.988,97.806 388.172,99.336 Q389.793,112.814 398.792,126.258 Q401.962,127.411 407.094,130.143 Q415.823,134.791 420.929,136.298 Q423.639,137.099 424.594,138.854 Q425.549,140.609 424.749,143.319 Q424.114,145.47 422.177,146.6 Q418.165,148.941 412.151,152.404 Q402.5,157.962 400.486,159.514 Q398.727,160.87 395.257,165.273 Q394.858,165.779 394.667,166.022 Q392.916,168.24 390.931,168.473 Q388.947,168.707 386.728,166.956 Q382.292,163.454 385.794,159.018 Q386.008,158.746 386.379,158.277 Q390.717,152.772 393.586,150.561 Q396.201,148.546 406.511,142.609 Q406.541,142.591 406.572,142.573 Q404.294,141.459 401.782,140.121 Q395.821,136.947 394.196,136.639 Q391.942,136.21 390.624,134.333 Q383.204,123.759 379.684,112.968 Q371.859,125.57 360.596,139.964 Q357.112,144.415 352.661,140.931 Q348.21,137.448 351.694,132.997 Z"/>
  <path fill="rgb(10.980392%, 60.392157%, 45.098039%)" opacity="0.855" d="M67.621,52.593 Q67.769,107.27 76.972,107.88 Q81.717,108.194 82.957,112.023 Q84.086,115.508 82.763,125.8 Q82.564,127.348 81.691,128.022 Q80.818,128.696 79.27,128.498 Q76.175,128.1 76.573,125.005 Q77.668,116.482 77.076,114.143 Q76.88,114.129 76.559,114.107 Q69.122,113.615 65.991,104.27 Q61.483,90.816 61.379,52.61 Q61.371,49.489 64.492,49.481 Q67.612,49.473 67.621,52.593 Z"/>
  <path fill="rgb(100%, 94.901961%, 97.254902%)" opacity="0.367" d="M34.552,41.075 Q53.865,35.766 68.766,40.093 Q77.401,42.601 88.065,50.437 Q93.754,54.616 95.351,54.677 Q97.568,54.763 101.857,49.037 Q103.509,46.833 105.436,46.557 Q107.364,46.28 109.568,47.931 Q110.791,48.847 111.367,50.261 Q119.004,69.005 118.387,78.485 Q117.67,89.513 108.093,90.347 Q103.975,90.706 99.149,88.619 Q98.267,88.345 97.313,87.749 Q95.354,86.733 94.547,85.844 Q92.639,83.742 93.235,80.973 Q94.345,75.817 99.549,76.7 Q100.278,76.824 100.977,77.145 Q101.275,77.281 101.657,77.498 Q102.104,77.75 102.742,78.148 Q105.532,79.512 107.137,79.372 L107.044,79.531 Q107.298,79.249 107.394,77.77 Q107.727,72.649 104.19,62.403 Q99.6,65.865 94.928,65.686 Q89.954,65.495 81.543,59.315 Q72.452,52.636 65.693,50.673 Q53.783,47.214 37.472,51.698 Q32.16,53.158 30.7,47.847 Q29.24,42.535 34.552,41.075 Z"/>
  <path fill="rgb(21.176471%, 17.647059%, 94.901961%)" opacity="0.99" d="M206.964,173.163 Q157.81,180.919 144.017,180.455 Q135.995,180.186 131.393,177.532 Q128.323,175.762 124.46,170.972 Q116.513,161.118 100.265,153.834 Q95.187,152.426 92.337,150.449 Q89.141,148.233 90.516,144.594 Q92.277,139.934 96.937,141.695 Q100.768,143.143 104.274,144.714 Q113.47,146.961 132.947,147.301 Q150.477,147.607 191.637,145.808 Q238.04,143.779 251.092,145.07 Q256.05,145.56 255.559,150.518 Q255.314,152.996 253.952,154.113 Q252.59,155.23 250.111,154.985 Q237.766,153.764 192.073,155.762 Q150.607,157.575 132.773,157.263 Q128.464,157.188 124.576,157.005 Q128.939,160.655 132.215,164.717 Q134.911,168.06 136.37,168.901 Q138.817,170.311 144.351,170.497 Q157.196,170.929 205.411,163.321 Q210.332,162.545 211.109,167.466 Q211.885,172.387 206.964,173.163 Z"/>
  <path fill="rgb(100%, 100%, 8.235294%)" opacity="0.517" d="M27.967,70.02 Q27.153,50.596 32.968,14.091 Q33.651,9.801 34.204,5.984 Q30.531,8.622 24.931,10.71 Q18.731,13.022 -0.358,17.956 Q-3.027,18.646 -4.419,19.007 Q-9.219,20.252 -10.464,15.452 Q-11.087,13.052 -10.198,11.541 Q-9.309,10.029 -6.909,9.407 Q-5.512,9.044 -2.841,8.354 Q27.752,0.446 30.801,-4.4 Q33.925,-9.365 25.036,-37.071 Q24.582,-38.485 24.98,-39.916 Q26.31,-44.693 31.088,-43.363 Q45.213,-39.432 46.376,-20.842 Q46.997,-10.929 42.763,15.651 Q37.104,51.174 37.877,69.605 Q38.084,74.56 33.13,74.767 Q30.652,74.871 29.362,73.684 Q28.071,72.498 27.967,70.02 Z"/>
  <path fill="rgb(54.509804%, 64.705882%, 99.607843%)" opacity="0.246" d="M311.741,268.97 Q312.014,274.804 313.115,278.327 Q327.424,274.995 331.253,282.968 Q334.154,289.009 328.97,294.295 Q326.346,296.971 322.357,298.27 Q312.329,301.536 304.562,294.386 Q296.466,286.933 295.658,269.725 Q295.28,261.684 303.322,261.306 Q311.363,260.929 311.741,268.97 Z"/>
  <path fill="rgb(50.196078%, 100%, 100%)" opacity="0.212" d="M184.524,231.335 Q181.91,234.513 179.396,236.885 Q181.352,237.704 183.408,238.848 Q184.933,239.696 185.272,240.883 Q185.61,242.07 184.762,243.595 Q183.065,246.646 180.014,244.949 Q175.617,242.503 172.075,241.953 Q168.799,241.443 168.532,238.669 Q168.322,236.482 170.657,234.971 Q174.583,232.432 179.132,226.9 Q180.24,225.552 181.469,225.432 Q182.697,225.312 184.045,226.421 Q186.742,228.638 184.524,231.335 Z"/>
  <path fill="rgb(92.941176%, 100%, 86.27451%)" opacity="0.22" d="M99.943,92.529 Q94.364,105.464 84.852,108.263 Q75.612,110.982 66.476,103.562 Q48.825,89.225 46.647,56.777 Q46.308,51.724 51.36,51.385 Q53.886,51.215 55.234,52.394 Q56.582,53.572 56.752,56.098 Q58.634,84.145 72.861,95.7 Q77.863,99.763 81.993,98.547 Q86.946,97.09 90.643,88.518 Q92.649,83.868 97.298,85.874 Q101.948,87.879 99.943,92.529 Z"/>
  <path fill="rgb(100%, 98.431373%, 97.647059%)" opacity="0.093" d="M100.807,348.01 Q105.472,349.475 110.816,352.331 Q110.597,341.543 112.716,323.675 Q112.965,321.58 114.137,320.657 Q115.308,319.734 117.403,319.982 Q121.593,320.479 121.096,324.669 Q118.519,346.397 119.737,357.751 Q125.833,361.859 132.656,367.462 Q134.09,368.639 135.413,369.679 Q145.689,366.986 163.565,356.605 Q165.244,355.63 167.077,356.272 Q171.059,357.665 169.666,361.647 Q161.383,385.322 149.694,385.961 Q143.963,386.274 133.473,378.749 Q123.855,380.199 118.261,375.403 Q113.555,371.369 111.82,362.656 Q104.288,357.947 98.279,356.061 Q94.254,354.797 95.518,350.771 Q96.149,348.759 97.472,348.068 Q98.794,347.378 100.807,348.01 Z M144.127,375.746 Q147.481,377.631 149.234,377.535 Q153.087,377.324 157.09,369.805 Q149.864,373.54 144.127,375.746 Z"/>
  <path fill="rgb(30.196078%, 0%, 100%)" d="M264.915,158.377 Q245.66,168.58 225.635,169.728 Q209.047,170.68 197.245,165.574 Q191.893,163.258 189.25,160.223 Q185.704,156.151 187.661,152.112 Q191.004,145.216 209.505,145.565 Q211.1,145.595 211.882,146.407 Q212.665,147.219 212.635,148.814 Q212.575,152.003 209.385,151.943 Q194.965,151.672 193.403,154.895 Q193.284,155.14 194.062,156.033 Q195.754,157.977 199.778,159.718 Q210.192,164.224 225.27,163.359 Q243.904,162.29 261.928,152.74 Q263.338,151.993 264.416,152.325 Q265.494,152.656 266.241,154.065 Q267.734,156.884 264.915,158.377 Z"/>
  <path fill="rgb(87.058824%, 100%, 81.568627%)" opacity="0.095" d="M287.574,-4.111 Q286.962,18.674 287.19,44.716 Q287.319,59.545 286.878,64.011 Q286.196,70.917 283.066,75.801 Q280.51,79.789 276.523,77.234 Q274.529,75.956 274.171,74.32 Q273.813,72.685 275.091,70.691 Q276.993,67.722 277.452,63.079 Q277.843,59.119 277.718,44.799 Q277.489,18.589 278.106,-4.365 Q278.169,-6.733 279.385,-7.884 Q280.6,-9.036 282.967,-8.973 Q287.701,-8.845 287.574,-4.111 Z"/>
  <path fill="rgb(30.196078%, 11.372549%, 99.607843%)" opacity="0.936" d="M228.016,13.194 Q270.403,3.098 295.175,1.259 Q291.335,-10.678 284.706,-21.999 Q284.203,-22.857 284.381,-23.537 Q284.559,-24.218 285.417,-24.72 Q287.133,-25.725 288.138,-24.009 Q294.143,-13.753 297.936,-3.002 Q298.05,-3.085 298.182,-3.159 Q299.915,-4.134 300.89,-2.401 Q301.571,-1.19 302.76,0.214 Q303.389,0.956 303.59,1.33 Q304.634,3.267 302.824,4.382 Q302.449,4.613 301.442,4.771 Q301.601,7.79 301.775,10.458 Q303.257,17.214 303.914,24.156 Q304.253,27.737 303.874,28.745 Q303.578,29.532 302.857,29.896 Q301.56,30.551 300.509,29.526 Q300.092,29.119 299.852,28.396 Q299.616,27.682 299.364,26.195 Q298.488,21.042 297.827,11.03 Q297.171,8.078 296.351,5.162 Q271.793,6.856 228.937,17.064 Q227.97,17.294 227.371,16.925 Q226.772,16.557 226.542,15.59 Q226.081,13.655 228.016,13.194 Z"/>
  <path fill="rgb(90.980392%, 79.215686%, 82.352941%)" opacity="0.086" d="M247.451,254.912 Q261.204,290.647 274.993,300.474 Q288.869,310.363 311.553,299.927 Q313.11,299.211 313.827,300.768 Q314.112,301.388 313.893,302.034 Q302.571,335.51 289.039,346.073 Q279.43,353.574 270.67,346.73 Q261.241,339.363 253.612,314.69 Q253.106,313.052 254.744,312.546 Q256.381,312.039 256.888,313.677 Q264.199,337.323 272.781,344.028 Q279.431,349.224 286.93,343.37 Q298.92,334.01 309.375,304.602 Q287.339,313.483 273.003,303.266 Q258.375,292.841 244.252,256.143 Q243.636,254.543 245.236,253.927 Q246.836,253.312 247.451,254.912 Z"/>
  <path fill="rgb(100%, 100%, 100%)" opacity="0.106" d="M72.546,57.911 Q77.407,76.342 81.846,90.133 Q87.009,87.359 95.417,85.475 Q95.463,85.465 95.509,85.456 Q99.158,84.734 99.88,88.384 Q105.152,115.034 104.584,126.055 Q104.239,132.744 101.174,134.679 Q97.035,137.293 92.594,131.99 Q86.229,124.391 78.935,104.482 Q77.351,108.066 75.473,113.683 Q69.118,132.697 61.641,148.332 Q60.036,151.687 56.68,150.083 Q55.416,149.478 54.865,148.19 Q40.983,115.736 30.575,109.453 Q18.79,102.339 1.598,124.554 Q0.46,126.025 -0.845,126.191 Q-2.149,126.358 -3.62,125.219 Q-6.562,122.943 -4.286,120.001 Q16.962,92.544 34.42,103.084 Q45.452,109.744 58.338,137.676 Q63.688,125.474 68.417,111.325 Q72.316,99.659 75.681,95.127 Q70.72,80.162 65.352,59.808 Q64.404,56.211 68.001,55.262 Q71.598,54.314 72.546,57.911 Z M84.235,97.31 Q91.248,117.625 97.15,125.739 Q97.152,125.706 97.154,125.672 Q97.634,116.342 93.324,93.657 Q87.42,95.28 84.235,97.31 Z"/>
</svg>

