<svg xmlns="http://www.w3.org/2000/svg" width="384" height="384" viewBox="0 0 384 384">
  <defs/>
  <path fill="rgb(61.568627%, 96.078431%, 100%)" opacity="0.512" d="M22.718,249.105 Q21.927,255.353 21.655,260.706 Q29.177,267.672 32.327,275.344 Q36.991,286.706 31.072,291.573 Q29.341,292.996 27.466,292.985 Q36.088,300.444 50.036,311.976 Q51.04,312.806 51.127,313.723 Q51.214,314.641 50.384,315.645 Q48.723,317.654 46.714,315.993 Q16.287,290.836 10.745,284.638 Q6.915,280.354 6.094,276.858 Q5.539,274.491 6.213,269.901 Q7.341,262.217 6.252,254.644 Q6.116,253.694 6.628,252.883 Q8.019,250.679 10.223,252.069 Q13.715,254.273 16.707,256.557 Q17.01,252.69 17.547,248.45 Q17.711,247.157 18.439,246.593 Q19.168,246.028 20.46,246.192 Q23.046,246.519 22.718,249.105 Z M16.357,262.964 Q14.31,261.218 11.941,259.509 Q12.192,265.059 11.37,270.658 Q10.84,274.266 11.169,275.667 Q11.686,277.87 14.631,281.164 Q16.106,282.814 19.52,285.946 Q19.256,285.34 19.009,284.682 Q15.968,276.553 16.357,262.964 Z M21.535,268.012 Q21.741,277.108 23.891,282.856 Q25.234,286.444 26.87,287.47 Q27.428,287.821 27.761,287.547 Q30.707,285.125 27.505,277.324 Q25.546,272.552 21.535,268.012 Z"/>
  <path fill="rgb(73.72549%, 100%, 72.941176%)" opacity="0.404" d="M211.415,247.373 Q206.136,240.505 203.695,235.017 Q194.222,234.591 178.978,231.868 Q163.902,232.613 157.158,234.977 Q156.852,239.035 153.119,241.224 Q149.002,243.638 144.773,241.212 Q140.81,238.938 140.157,234.286 Q138.963,232.948 137.171,231.23 Q131.469,225.76 136.938,220.058 Q140.499,216.345 145.335,218.1 Q151.959,220.503 159.415,215.693 Q167.157,210.698 172.16,201.125 Q176.8,192.247 175.736,186.292 Q175.121,182.85 170.754,182.586 Q162.867,182.109 163.344,174.223 Q163.582,170.279 165.673,168.426 Q167.764,166.574 171.707,166.812 Q188.489,167.827 191.292,183.512 Q193.306,194.782 186.166,208.445 Q183.972,212.642 181.346,216.239 Q196.014,218.877 204.167,219.256 Q206.227,216.859 209.836,216.037 Q214.192,215.045 218.088,217.23 Q220.757,218.726 222.038,221.293 Q224.347,225.919 221.381,230.167 Q220.721,231.112 219.824,231.875 Q221.425,234.466 223.945,237.744 Q228.759,244.009 222.495,248.824 Q216.23,253.638 211.415,247.373 Z"/>
  <path fill="rgb(94.509804%, 99.607843%, 94.117647%)" d="M180.052,146.099 Q178.728,149.886 178.076,152.225 Q179,151.385 180.328,150.133 Q192.182,138.96 199.617,136.459 Q213.926,131.645 222.031,148.583 Q222.968,150.54 221.011,151.477 Q220.032,151.945 219.309,151.69 Q218.585,151.434 218.117,150.456 Q211.67,136.982 201.001,140.571 Q194.466,142.77 183.304,153.29 Q176.734,159.484 174.52,158.196 Q171.783,156.603 175.956,144.667 Q176.672,142.619 178.72,143.335 Q180.768,144.051 180.052,146.099 Z"/>
  <path fill="rgb(0%, 100%, 57.254902%)" opacity="0.999" d="M395.893,61.623 Q374.436,58.818 358.006,58.304 Q353.12,58.151 351.941,57.641 Q350.049,56.823 349.543,53.717 Q349.281,52.109 348.81,50.534 Q346.119,50.204 344.539,50.031 Q342.553,49.964 342.5,47.963 Q342.485,47.734 342.512,47.522 Q342.666,45.723 344.57,45.674 Q344.644,45.671 344.721,45.673 Q345.038,45.676 345.309,45.726 Q346.341,45.831 347.256,45.901 Q347.27,45.648 347.355,45.421 Q347.626,44.7 348.618,44.249 Q349.397,43.896 350.209,44.166 Q353.847,45.378 354.683,46.875 Q359.085,47.436 365.104,48.225 Q367.266,48.508 366.982,50.67 Q366.84,51.751 366.229,52.221 Q365.618,52.69 364.537,52.549 Q358.063,51.7 353.474,51.117 Q353.692,52.061 353.847,53.016 Q353.919,53.455 353.968,53.706 Q354.87,53.843 358.142,53.945 Q374.788,54.466 396.458,57.299 Q398.62,57.582 398.338,59.744 Q398.197,60.825 397.585,61.294 Q396.974,61.764 395.893,61.623 Z"/>
  <path fill="rgb(100%, 100%, 99.215686%)" opacity="0.033" d="M372.822,72.717 Q343.408,85.829 323.209,102.654 Q324.071,102.967 324.951,103.289 Q336.234,107.405 341.186,118.348 Q346.064,129.128 341.891,140.2 Q337.718,151.273 326.937,156.151 Q290.619,172.586 267.882,162.532 Q261.69,159.795 257.128,155.758 Q254.96,158.393 252.05,160.592 Q242.609,167.726 230.89,166.095 Q219.17,164.463 212.037,155.023 Q204.903,145.582 206.534,133.862 Q209.571,112.05 220.901,99.756 Q234.539,84.96 256.768,84.973 Q258.747,84.975 260.876,85.113 Q269.983,73.057 284.028,60.97 Q311.083,37.685 349.561,20.533 Q360.368,15.716 371.417,19.951 Q382.465,24.187 387.283,34.994 Q392.101,45.802 387.865,56.85 Q383.63,67.899 372.822,72.717 Z"/>
  <path fill="rgb(10.588235%, 55.686275%, 99.607843%)" opacity="0.374" d="M28.775,141.332 Q19.17,158.705 9.652,183.756 Q6.262,192.677 4.919,195.152 Q3.168,198.377 0.864,199.573 Q-4.45,202.334 -8.095,197.178 Q-9.531,195.146 -11.874,184.487 Q-12.252,184.579 -12.645,184.657 Q-18.454,185.821 -19.618,180.011 Q-20.2,177.107 -19.039,175.363 Q-17.877,173.62 -14.972,173.038 Q-14.505,172.945 -14.224,172.841 Q-15.132,168.028 -16.138,162.281 Q-19.354,143.909 -21.547,131.943 Q-22.615,126.115 -16.787,125.047 Q-11.108,124.006 -9.92,129.656 Q-8.671,135.6 -6.483,145.462 Q-2.098,165.22 -2.084,170.799 Q-2.081,171.949 -2.18,173.007 Q-1.603,176.143 -1.108,178.714 Q8.554,153.416 18.405,135.598 Q19.838,133.005 21.851,132.426 Q23.864,131.846 26.457,133.28 Q31.642,136.146 28.775,141.332 Z"/>
  <path fill="rgb(27.45098%, 100%, 85.490196%)" d="M276.921,79.988 Q280.739,78.268 284.316,78.112 Q285.194,75.776 286.244,73.497 Q286.508,72.924 287.082,72.659 Q287.86,72.299 288.429,72.508 Q288.998,72.718 289.357,73.496 Q290.975,76.998 292.429,79.928 Q293.436,80.446 294.421,81.111 Q300.324,85.094 302.792,91.751 Q303.899,94.735 303.215,96.251 Q302.424,98.007 300.53,97.496 Q299.575,97.238 298.47,96.153 Q295.136,92.879 289.91,82.544 Q288.338,81.89 286.693,81.668 Q282.176,95.239 283.567,110.877 Q284.026,116.027 283.633,117.703 Q282.821,121.167 278.944,121.117 Q274.709,121.062 252.031,111.798 Q251.321,111.508 251.064,110.784 Q250.359,108.795 249.935,107.675 Q249.868,108.123 249.808,108.662 Q249.249,113.699 249.543,132.88 Q249.805,149.97 249.484,156.257 Q249.219,161.442 248.553,163.853 Q248.087,165.541 247.286,166.301 Q245.8,167.71 244.044,166.502 Q242.632,165.531 243.603,164.119 Q244.269,163.15 245.143,163.302 Q245.192,163.145 245.249,162.94 Q245.814,160.892 246.06,156.083 Q246.375,149.909 246.115,132.932 Q245.818,113.536 246.401,108.284 Q246.645,106.085 247.065,104.916 Q247.923,102.531 249.864,102.847 Q251.888,103.177 254.031,108.911 Q275.461,117.643 278.989,117.689 Q280.112,117.703 280.295,116.92 Q280.562,115.782 280.152,111.181 Q278.754,95.457 283.082,81.69 Q280.772,82.014 278.329,83.114 Q277.547,83.466 276.981,83.251 Q276.414,83.036 276.062,82.255 Q275.358,80.692 276.921,79.988 Z M296.481,87.53 Q297.773,89.739 298.878,91.29 Q297.898,89.24 296.481,87.53 Z"/>
  <path fill="rgb(34.117647%, 60.392157%, 24.705882%)" opacity="0.577" d="M32.849,320.246 Q19.481,296.439 15.14,282.367 Q13.803,278.034 13.626,275.597 Q13.605,275.314 13.61,275.062 Q1.033,248.369 -1.184,212.55 Q-3.109,181.439 2.927,154.773 Q8.839,128.655 18.096,125.056 Q23.608,122.913 28.148,129.573 Q32.438,135.865 35.557,150.058 Q35.741,150.895 35.415,151.406 Q35.088,151.916 34.251,152.1 Q33.414,152.284 32.903,151.958 Q32.392,151.631 32.208,150.794 Q29.231,137.248 25.315,131.504 Q22.31,127.096 19.339,128.251 Q11.78,131.19 6.271,155.53 Q0.343,181.716 2.238,212.338 Q4.406,247.372 16.621,273.409 Q16.929,273.716 17.074,274.158 Q17.179,274.477 17.213,274.924 Q17.256,275.489 17.098,275.882 Q17.345,277.884 18.416,281.356 Q22.65,295.079 35.839,318.567 Q36.678,320.062 35.183,320.901 Q34.436,321.321 33.852,321.157 Q33.269,320.993 32.849,320.246 Z"/>
  <path fill="rgb(87.45098%, 100%, 81.176471%)" d="M34.856,294.45 Q36.881,291.355 38.069,289.217 Q38.416,288.017 38.92,286.901 Q39.727,285.112 40.868,283.844 Q46.529,277.555 53.484,282.266 Q58.542,285.693 57.602,291.807 Q57.433,292.908 56.82,294.448 Q59.653,296.354 68.252,296.534 Q70.171,296.574 71.927,297.349 Q81.57,301.603 85.702,301.199 Q92.166,300.568 95.506,305.376 Q97.619,308.417 97.207,313.054 Q96.447,321.6 100.215,339.477 Q101.205,344.176 99.351,347.02 Q97.496,349.865 92.797,350.855 Q83.399,352.836 81.418,343.438 Q78.454,329.372 77.974,319.599 Q72.519,318.442 65.918,315.675 Q52.369,315.047 45.082,309.656 Q41.718,310.414 37.637,307.745 Q29.599,302.488 34.856,294.45 Z"/>
  <path fill="rgb(82.745098%, 95.686275%, 100%)" opacity="0.062" d="M168.466,52.733 Q187.395,46.376 201.524,44.378 Q203.596,40.518 205.322,37.22 Q206.25,35.448 207.886,34.298 Q211.258,31.929 214.129,32.43 Q217,32.932 219.37,36.304 Q223.574,42.288 226.962,45.311 Q229.008,45.971 230.796,46.866 Q232.854,47.898 234.177,49.277 Q235.888,51.062 236.429,53.378 Q237.792,59.209 232.734,62.4 Q228.098,65.324 221.86,61.855 Q220.858,61.298 219.845,60.613 Q219.328,60.536 218.761,60.476 Q217.049,60.971 215.515,60.64 Q214.931,60.514 214.373,60.268 Q212.823,60.264 211.053,60.336 Q210.647,60.353 210.235,60.374 Q206.517,62.435 203.383,61.018 Q190.503,62.723 173.714,68.361 Q165.9,70.985 163.276,63.171 Q161.964,59.264 163.261,56.654 Q164.559,54.045 168.466,52.733 Z"/>
  <path fill="rgb(94.901961%, 100%, 98.431373%)" opacity="0.982" d="M97.118,286.471 Q111.476,277.316 110.706,274.648 Q110.302,273.248 100.397,270.807 Q87.975,267.747 83.553,264.348 Q76.242,258.728 79.367,249.207 Q57.186,246.334 43.413,258.885 Q29.023,272 31.455,294.633 Q34.162,319.83 57.321,344.829 Q84.332,373.985 133.166,395.316 Q135.494,396.333 134.477,398.662 Q133.968,399.826 133.132,400.154 Q132.296,400.482 131.131,399.973 Q81.325,378.217 53.593,348.282 Q29.289,322.048 26.402,295.176 Q23.694,269.98 39.99,255.129 Q56.557,240.032 83.352,244.672 Q83.69,244.731 84.001,244.877 Q85.15,245.419 85.454,246.264 Q85.758,247.11 85.216,248.259 Q81.426,256.303 86.65,260.319 Q90.226,263.068 101.613,265.873 Q114.371,269.017 115.589,273.24 Q117.412,279.558 99.85,290.756 Q97.708,292.122 96.342,289.979 Q94.976,287.837 97.118,286.471 Z"/>
  <path fill="rgb(100%, 100%, 100%)" opacity="0.857" d="M67.386,119.777 Q74.931,124.498 77.551,128.433 Q80.534,132.914 77.517,136.121 Q72.788,141.15 55.456,139.499 Q37.856,137.823 19.029,130.321 Q-2.928,121.572 -17.625,107.973 Q-18.883,106.809 -17.719,105.551 Q-17.137,104.921 -16.531,104.898 Q-15.926,104.874 -15.297,105.457 Q-1.067,118.623 20.298,127.136 Q38.67,134.456 55.781,136.086 Q71.441,137.578 75.02,133.772 Q76.172,132.548 74.697,130.333 Q72.486,127.013 65.567,122.684 Q64.114,121.775 65.023,120.321 Q65.478,119.595 66.069,119.459 Q66.659,119.323 67.386,119.777 Z"/>
  <path fill="rgb(0%, 0%, 100%)" d="M369.452,62.565 Q366.436,55.149 365.455,48.494 Q355.625,57.374 336.68,65.379 Q336.679,65.464 336.678,65.551 Q337.522,66.273 338.032,67.386 Q338.723,68.889 338.403,70.45 Q337.881,72.998 335.772,72.736 Q333.575,72.462 333.197,67.837 Q332.156,67.665 330.504,67.959 Q324.075,69.1 312.336,77.208 Q312.303,77.231 312.269,77.252 Q258.676,110.789 236.4,151.168 Q235.124,153.481 234.677,154.151 Q233.084,156.539 231.322,155.374 Q230.17,154.613 229.775,148.245 Q229.711,147.218 229.676,146.664 Q229.619,145.775 230.035,145.303 Q230.451,144.83 231.34,144.773 Q233.117,144.66 233.231,146.437 Q233.265,146.982 233.33,148.024 Q233.37,148.666 233.406,149.22 Q256.146,108.178 310.345,74.254 Q322.698,65.727 329.881,64.451 Q331.7,64.128 333.149,64.237 Q333.151,64.175 333.154,64.106 Q333.201,62.971 334.25,62.535 Q354.348,54.181 363.972,45.011 Q365.921,43.154 367.145,43.527 Q368.49,43.937 368.805,46.654 Q369.593,53.456 372.752,61.224 Q373.422,62.874 371.772,63.544 Q370.948,63.88 370.367,63.635 Q369.787,63.39 369.452,62.565 Z"/>
  <path fill="rgb(39.215686%, 99.607843%, 59.607843%)" opacity="0.46" d="M92.906,319.454 Q85.605,314.266 85.413,311.541 Q85.232,308.984 90.393,306.984 Q96.15,304.753 98.312,302.04 Q102.142,297.236 100.271,287.667 Q100.105,286.82 100.446,286.314 Q100.786,285.807 101.633,285.642 Q103.328,285.31 103.659,287.005 Q105.837,298.14 101.012,304.193 Q98.268,307.635 91.641,310.204 Q88.856,311.283 88.857,311.298 Q88.935,312.396 94.906,316.64 Q95.61,317.14 95.712,317.742 Q95.814,318.343 95.314,319.047 Q94.313,320.454 92.906,319.454 Z"/>
  <path fill="rgb(58.431373%, 100%, 81.176471%)" opacity="0.283" d="M309.973,380.731 Q305.584,376.412 307.931,370.706 Q308.936,368.263 311.22,366.492 Q313.251,364.918 316.578,363.711 Q322.698,361.491 330.963,360.94 Q353.923,359.409 373.283,371.593 Q380.636,376.22 376.009,383.572 Q373.576,387.438 369.013,387.625 Q330.612,389.204 320.965,394.91 Q312.192,400.098 310.621,421.465 Q309.984,430.129 301.32,429.492 Q292.656,428.855 293.293,420.191 Q294.406,405.057 298.058,396.316 Q302.096,386.649 310.339,381.081 Q310.156,380.911 309.973,380.731 Z"/>
  <path fill="rgb(44.705882%, 100%, 0%)" opacity="0.55" d="M394.113,185.303 Q389.302,177.461 383.078,167.883 Q377.003,158.535 375.735,155.043 Q374.518,151.691 373.307,141.57 Q370.864,141.245 360.27,138.935 Q351.35,136.99 345.147,135.669 Q344.309,135.49 343.979,134.982 Q343.649,134.474 343.827,133.635 Q344.184,131.958 345.861,132.316 Q352.069,133.637 361,135.585 Q367.882,137.086 371.18,137.726 Q366.012,130.806 371.843,124.667 Q372.258,124.23 372.856,124.149 Q373.705,124.034 374.188,124.401 Q374.67,124.768 374.785,125.618 Q375.552,131.287 376.442,138.862 Q376.518,139.027 376.552,139.167 Q376.69,139.739 376.597,140.186 Q376.602,140.236 376.608,140.286 Q377.825,150.753 378.957,153.873 Q380.092,156.996 385.953,166.015 Q392.201,175.629 397.036,183.51 Q397.932,184.971 396.471,185.868 Q395.74,186.316 395.151,186.175 Q394.561,186.033 394.113,185.303 Z"/>
  <path fill="rgb(11.764706%, 10.980392%, 12.941176%)" opacity="0.42" d="M164.339,2.038 Q110.073,26.248 72.148,59.284 Q40.551,86.809 23.884,116.985 Q9.978,142.164 10.268,160.834 Q10.39,168.642 13.24,172.786 Q15.838,176.565 20.257,176.289 Q21.112,176.236 21.567,176.637 Q22.021,177.038 22.074,177.893 Q22.181,179.604 20.47,179.711 Q14.113,180.107 10.415,174.729 Q6.978,169.732 6.84,160.887 Q6.535,141.306 20.883,115.327 Q37.842,84.621 69.896,56.699 Q108.208,23.326 162.942,-1.093 Q163.725,-1.442 164.291,-1.225 Q164.857,-1.009 165.206,-0.226 Q165.905,1.34 164.339,2.038 Z"/>
  <path fill="rgb(88.627451%, 50.196078%, 0%)" d="M366.052,124.082 Q366.884,128.269 367.648,131.618 Q368.635,131.401 369.598,131.684 Q372.071,132.409 373.276,135.509 Q380.19,133.248 388.236,133.054 Q409.534,132.54 425.229,148.934 Q426.615,150.382 425.167,151.768 Q423.719,153.154 422.334,151.706 Q407.862,136.589 388.333,137.061 Q380.698,137.245 374.192,139.435 Q374.299,140.301 374.355,141.263 Q374.535,144.335 373.899,146.14 Q373.329,147.757 372.053,148.214 Q370.386,148.812 368.973,147.266 Q367.874,146.063 366.683,142.848 Q363.709,144.593 361.03,146.861 Q360.081,147.665 358.94,147.172 Q357.1,146.378 357.894,144.538 Q361.096,137.12 364.094,133.93 Q363.133,129.958 362.12,124.863 Q361.73,122.898 363.695,122.507 Q365.661,122.116 366.052,124.082 Z M369.017,137.146 Q369.305,137.017 369.597,136.893 Q369.195,135.844 368.602,135.579 Q368.812,136.398 369.017,137.146 Z M365.3,138.543 Q365.097,138.879 364.886,139.252 Q365.15,139.099 365.417,138.949 Q365.357,138.745 365.3,138.543 Z M370.199,141.016 Q370.275,141.234 370.35,141.438 Q370.336,141.194 370.319,140.961 Q370.256,140.99 370.199,141.016 Z"/>
  <path fill="rgb(95.294118%, 98.431373%, 95.686275%)" opacity="0.015" d="M277.712,290.482 Q273.705,294.788 263.581,293.821 Q258.39,293.324 257.643,294.222 Q256.846,295.178 257.159,297.959 Q258.448,300.607 259.169,306.357 Q259.406,308.246 257.591,308.819 Q256.501,309.163 255.785,308.791 Q255.068,308.418 254.724,307.329 Q253.342,302.953 252.879,299.649 Q252.499,299.067 252.006,299.237 Q248.243,300.531 236.281,316.306 Q234.901,318.126 233.081,316.746 Q231.26,315.366 232.641,313.546 Q245.443,296.663 250.52,294.916 Q251.739,294.497 252.795,294.548 Q253.116,292.518 254.132,291.297 Q256.424,288.547 264.015,289.272 Q271.896,290.026 274.366,287.37 Q275.922,285.697 277.595,287.253 Q279.268,288.809 277.712,290.482 Z"/>
  <path fill="rgb(90.588235%, 100%, 91.372549%)" opacity="0.85" d="M333.028,360.95 Q333.075,362.243 333.301,362.948 L333.487,362.891 Q338.175,364.526 339.595,368.297 Q341.393,373.075 337.338,377.975 Q335.283,380.457 322.269,392.674 Q316.288,398.287 312.547,401.816 Q306.93,407.112 301.634,401.496 Q296.337,395.88 301.953,390.583 Q305.707,387.042 311.702,381.416 Q317.701,375.785 321.117,372.486 Q317.846,368.331 317.598,361.511 Q317.317,353.796 325.032,353.516 Q332.747,353.235 333.028,360.95 Z"/>
</svg>

