<svg xmlns="http://www.w3.org/2000/svg" width="384" height="384" viewBox="0 0 384 384">
  <defs/>
  <path fill="rgb(69.803922%, 18.431373%, 0%)" d="M310.48,51.226 Q313.261,53.294 314.835,56.678 Q317.352,62.09 315.304,67.696 Q308.306,86.862 294.402,89.784 Q286.23,91.501 279.002,86.99 Q273.554,83.59 270.327,77.501 Q263.749,65.092 269.578,52.753 Q276.303,38.516 294.682,36.747 Q300.623,36.175 305.228,39.972 Q309.833,43.769 310.405,49.709 Q310.479,50.479 310.48,51.226 Z"/>
  <path fill="rgb(29.411765%, 13.72549%, 3.137255%)" opacity="0.452" d="M46.647,117.263 Q68.636,145.242 99.381,158.88 Q121.109,168.519 133.815,166.917 Q133.558,166.602 133.276,166.27 Q117.93,148.271 64.623,124.681 Q59.411,122.374 57.356,117.058 Q55.302,111.741 57.608,106.529 Q59.915,101.317 65.231,99.263 Q70.548,97.208 75.76,99.515 Q134.803,125.643 154.218,148.416 Q165.711,161.896 163.252,174.433 Q160.506,188.432 144.304,192.836 Q121.827,198.944 88.221,184.037 Q51.224,167.625 25.009,134.268 Q21.487,129.787 22.166,124.128 Q22.844,118.469 27.325,114.947 Q31.807,111.425 37.466,112.103 Q43.125,112.782 46.647,117.263 Z"/>
  <path fill="rgb(3.137255%, 10.588235%, 25.098039%)" opacity="0.674" d="M36.495,342.985 Q51.491,336.807 55.128,332.783 Q56.701,331.042 55.642,328.562 Q54.177,325.13 55.621,322.821 Q55.965,322.271 56.587,322.087 Q232.677,269.906 283.298,249.886 Q315.772,237.042 327.287,227.355 Q337.35,218.89 332.824,211.23 Q323.983,209.546 324.658,204.981 Q325.061,202.255 332.462,193.877 Q342.36,182.674 348.393,173.998 Q349.372,172.59 350.78,173.569 Q351.483,174.059 351.591,174.655 Q351.698,175.252 351.208,175.955 Q345.061,184.794 335.031,196.147 Q328.304,203.763 328.049,205.482 Q327.837,206.918 334.157,207.985 Q334.886,208.109 335.296,208.723 Q342.302,219.204 329.494,229.979 Q317.552,240.025 284.559,253.075 Q233.91,273.109 58.352,325.14 Q58.239,325.913 58.796,327.216 Q60.716,331.714 57.672,335.082 Q53.514,339.681 37.802,346.155 Q36.217,346.808 35.563,345.223 Q35.237,344.431 35.47,343.871 Q35.703,343.312 36.495,342.985 Z"/>
  <path fill="rgb(14.509804%, 15.686275%, 50.980392%)" opacity="0.122" d="M94.911,182.479 Q86.76,185.085 78.83,177.483 Q72.405,171.322 71.079,163.731 Q70.225,158.835 72.266,155.13 Q74.773,150.579 80.413,149.537 Q89.142,147.924 105.485,156.26 Q110.916,159.031 108.146,164.462 Q106.761,167.177 104.711,167.843 Q102.66,168.508 99.945,167.123 Q87.859,160.958 83.065,161.465 Q83.076,161.546 83.092,161.634 Q83.729,165.286 87.269,168.68 Q89.96,171.26 91.198,170.865 Q97.005,169.008 98.862,174.815 Q99.79,177.719 98.803,179.635 Q97.815,181.551 94.911,182.479 Z"/>
  <path fill="rgb(70.196078%, 63.921569%, 100%)" opacity="0.048" d="M10.288,353.82 Q19.435,357.886 17.87,366.982 Q17.057,371.707 11.511,381.119 Q7.883,387.276 7.437,389.296 Q7.197,390.384 6.533,390.808 Q5.87,391.232 4.782,390.992 Q2.607,390.512 3.086,388.337 Q3.685,385.625 7.673,378.857 Q12.805,370.147 13.48,366.226 Q14.456,360.549 8.478,357.891 Q6.442,356.986 7.347,354.951 Q7.8,353.933 8.535,353.65 Q9.27,353.367 10.288,353.82 Z"/>
  <path fill="rgb(3.529412%, 7.058824%, 32.941176%)" opacity="0.619" d="M137.394,47.959 Q136.738,16.465 155.899,4.699 Q172.131,-5.268 195.838,2.594 Q216.33,9.389 231.289,25.212 Q248.34,43.247 246.499,61.649 Q245.553,71.101 236.101,70.155 Q231.375,69.682 229.249,67.083 Q227.122,64.484 227.595,59.758 Q228.572,49.992 217.483,38.264 Q205.81,25.916 189.858,20.626 Q174.54,15.546 165.841,20.888 Q155.959,26.956 156.388,47.564 Q156.585,57.061 147.088,57.259 Q142.34,57.358 139.916,55.033 Q137.492,52.708 137.394,47.959 Z"/>
  <path fill="rgb(100%, 83.137255%, 0.784314%)" opacity="0.546" d="M206.208,38.929 Q204.475,45.403 200.755,51.554 Q191.724,66.492 176.248,69.405 Q175.496,69.547 174.732,69.517 Q152.228,68.655 140.7,57.187 Q137.169,53.673 135.173,49.817 Q122.034,50.196 103.837,50.346 Q96.859,50.404 93.328,50.44 Q86.54,50.51 86.47,43.722 Q86.435,40.329 88.115,38.614 Q89.794,36.9 93.188,36.865 Q96.735,36.828 103.725,36.77 Q120.42,36.633 132.752,36.304 Q133.289,31.68 135.509,26.681 Q142.956,9.911 168.64,-4.359 Q196.852,-20.034 242.971,-30.18 Q249.601,-31.639 251.059,-25.009 Q251.302,-23.907 251.174,-22.785 Q245.998,22.794 206.208,38.929 Z M207.543,23.313 Q229.901,11.322 236.021,-14.634 Q208.931,-8.022 189.151,0.651 Q191.658,1.061 193.985,2.039 Q206.128,7.141 207.543,23.313 Z M159.187,18.281 Q151.043,25.149 147.917,32.19 Q147.088,34.056 146.702,35.807 Q151.284,35.591 154.861,35.332 Q178.595,33.608 194.107,28.828 Q194.196,26.958 194.063,25.06 Q193.466,16.546 188.726,14.554 Q182.179,11.804 169.021,20.727 Q166.212,22.632 163.855,22.18 Q161.498,21.728 159.593,18.919 Q159.374,18.597 159.187,18.281 Z M189.37,44.141 Q174.973,47.482 155.844,48.872 Q154.055,49.002 152.028,49.121 Q159.663,55.199 174.451,55.917 Q183.47,53.905 189.138,44.531 Q189.255,44.336 189.37,44.141 Z"/>
  <path fill="rgb(100%, 100%, 99.215686%)" opacity="0.038" d="M325.423,217.811 Q341.32,222.868 344.97,227.22 Q345.414,226.392 345.866,225.556 Q350.975,216.109 351.96,212.944 Q353.038,209.481 351.723,207.306 Q348.54,202.045 319.227,187.156 Q315.122,185.071 317.207,180.965 Q319.292,176.86 323.398,178.945 Q355.058,195.026 359.603,202.539 Q363.063,208.26 360.753,215.681 Q359.502,219.702 353.966,229.937 Q346.612,243.536 342.327,253.425 Q340.8,256.948 337.06,256.079 Q332.574,255.037 333.616,250.552 Q334.555,246.512 336.389,240.533 Q338.443,233.841 337.839,233.045 Q336.22,230.911 322.631,226.587 Q318.243,225.191 319.639,220.803 Q321.035,216.415 325.423,217.811 Z"/>
  <path fill="rgb(31.372549%, 17.254902%, 14.117647%)" opacity="0.498" d="M57.178,31.286 Q60.175,28.548 64.417,28.091 Q69.748,27.516 73.924,30.879 Q78.099,34.241 78.675,39.572 L78.675,39.574 Q78.676,39.585 78.677,39.597 Q80.229,53.934 85.166,59.8 Q88.645,63.934 95.841,64.592 Q109.221,65.815 154.56,51.451 Q193.29,39.18 215.472,34.392 Q254.03,26.07 287.5,27.608 Q292.857,27.854 296.47,31.815 Q300.084,35.777 299.837,41.133 Q299.591,46.489 295.63,50.103 Q291.669,53.716 286.312,53.47 Q256.203,52.087 220.934,59.699 Q199.946,64.229 162.379,76.131 Q136.974,84.18 125.828,86.862 Q109.327,90.833 97.574,90.596 Q105.27,95.663 118.495,102.521 Q166.947,127.646 209.986,156.458 Q214.993,159.81 215.652,165.799 Q216.239,171.129 212.885,175.312 Q209.531,179.496 204.201,180.082 Q150.589,185.98 106.713,170.122 Q68.007,156.132 44.739,128.71 Q22.234,102.189 23.12,74.993 Q24.134,43.872 53.458,32.196 Q55.322,31.454 57.178,31.286 Z M55.215,61.036 Q49.299,66.558 48.996,75.836 Q48.435,93.052 64.479,111.96 Q83.288,134.126 115.513,145.774 Q136.189,153.247 159.621,155.144 Q134,139.724 106.577,125.504 Q89.136,116.46 82.865,112.374 Q71.928,105.248 66.192,96.645 Q60.425,87.997 57.441,74.134 Q56.351,69.068 55.215,61.036 Z"/>
  <path fill="rgb(92.941176%, 83.921569%, 41.568627%)" opacity="0.88" d="M276.043,196.565 Q256.304,226.041 233.144,227.756 Q219.337,228.779 194.111,216.764 Q177.268,208.741 168.725,206.987 Q155.344,204.24 143.365,209.999 Q140.118,211.561 137.713,210.718 Q135.308,209.875 133.747,206.627 Q130.929,200.767 136.469,197.363 Q151.029,188.418 157.827,175.798 Q161.895,168.244 165.36,152.893 Q170.053,132.096 178.356,124.391 Q191.232,112.443 222.415,113.174 Q229.62,113.342 229.451,120.548 Q229.283,127.753 222.077,127.584 Q196.746,126.991 188.161,134.958 Q183.131,139.625 179.421,156.066 Q175.522,173.342 170.518,182.633 Q167.914,187.468 164.47,191.843 Q168.012,192.125 171.624,192.867 Q181.884,194.974 200.31,203.75 Q222.085,214.122 232.079,213.381 Q248.235,212.185 264.066,188.544 Q266.071,185.55 268.571,185.056 Q271.071,184.561 274.065,186.566 Q280.054,190.576 276.043,196.565 Z"/>
  <path fill="rgb(86.27451%, 0%, 12.941176%)" d="M36.855,257.322 Q38.603,278.141 39.913,302.995 Q40.317,310.667 32.712,311.754 Q24.395,312.943 23.207,304.626 Q17.896,267.465 19.316,249.395 Q14.025,191.911 5.252,170.818 Q3.014,165.437 3.578,161.867 Q4.026,159.037 7.348,153.482 Q13.454,143.271 19.437,130.832 Q21.257,127.046 24.06,126.063 Q26.863,125.081 30.649,126.902 Q38.22,130.543 34.579,138.114 Q28.266,151.24 21.768,162.106 Q21.051,163.304 20.629,164.035 Q20.693,164.191 20.766,164.365 Q28.965,184.078 34.25,230.653 Q38.584,231.815 41.059,236.513 Q44.55,243.138 42.477,251.026 Q41.033,256.517 36.855,257.322 Z"/>
  <path fill="rgb(67.058824%, 43.921569%, 0%)" opacity="0.693" d="M42.641,44.839 Q43.258,42.672 43.993,41.51 Q48.48,34.418 56.68,34.809 Q61.291,35.029 65.476,38.149 Q67.749,39.843 72.683,45.122 Q88.46,62.001 105.034,71.968 Q135.793,90.467 180.082,96.398 Q185.36,97.105 188.592,101.337 Q191.825,105.569 191.118,110.847 Q190.411,116.125 186.179,119.358 Q181.947,122.59 176.669,121.884 Q127.104,115.246 91.782,94.004 Q78.73,86.154 66.305,74.916 Q70.156,99.46 58.323,116.066 Q52.309,124.505 43.503,128.598 Q34.396,132.83 25.206,131.192 Q14.837,129.344 8.67,120.964 Q2.645,112.776 2.966,100.967 Q3.573,78.614 27.143,48.602 Q30.432,44.414 35.719,43.778 Q39.454,43.329 42.641,44.839 Z M40.053,74.468 Q28.962,90.916 28.67,101.665 Q28.561,105.672 29.718,105.878 Q33.525,106.557 37.382,101.144 Q43.937,91.945 40.106,74.721 Q40.078,74.594 40.053,74.468 Z"/>
  <path fill="rgb(80%, 61.960784%, 7.843137%)" opacity="0.98" d="M135.906,50.32 Q96.067,59.121 79.017,58.414 Q78.401,58.77 77.738,58.957 Q75.14,59.688 71.811,57.822 Q69.018,56.257 68.178,53.168 L68.196,53.235 Q66.273,47.493 70.614,44.462 Q80.604,27.95 94.161,19.983 Q107.555,12.112 121.602,13.847 Q134.8,15.476 143.02,24.499 Q146.163,27.95 147.906,31.703 Q195.365,20.452 267.08,-1.27 Q274.385,-3.482 276.598,3.823 Q277.758,7.652 275.268,10.784 Q220.696,79.448 192.628,92.366 Q179.231,98.532 168.122,94.587 Q161.769,92.331 152.815,84.208 Q145.63,77.69 141.792,76.609 Q135.561,74.853 125.692,80.406 Q119.04,84.149 115.297,77.497 Q113.426,74.171 114.153,71.572 Q114.88,68.973 118.206,67.102 Q133.599,58.441 145.931,61.915 Q153.226,63.97 163.071,72.901 Q169.76,78.969 173.231,80.202 Q178.488,82.069 186.245,78.499 Q207.151,68.877 247.69,20.47 Q189.1,37.789 149.431,47.214 Q148.644,50.456 146.601,51.832 Q144.362,53.339 140.617,52.609 Q137.473,51.995 135.906,50.32 Z M132.179,35.289 Q131.966,35.033 131.735,34.78 Q127.321,29.934 119.732,28.997 Q110.824,27.897 101.896,33.144 Q95.931,36.649 90.728,42.6 Q99.439,41.675 112.339,39.303 Q121.523,37.614 132.179,35.289 Z"/>
  <path fill="rgb(0.392157%, 47.058824%, 100%)" opacity="0.101" d="M50.41,194.202 Q56.238,189.976 64.641,191.922 Q67.291,192.536 73.291,194.756 Q75.18,195.455 77,196.084 Q77.341,190.892 81.498,187.076 Q87.225,181.82 97.788,183.293 Q104,184.16 112.883,187.342 Q115.427,184.517 119.341,183.677 Q124.313,182.609 128.583,185.37 Q132.854,188.131 133.921,193.103 Q134.288,194.814 134.202,196.442 Q137.911,198.22 141.891,200.231 Q147.042,202.836 148.322,208.464 Q149.45,213.423 146.742,217.727 Q144.033,222.03 139.075,223.158 Q115.011,228.632 92.983,225.435 Q80.587,223.635 64.77,217.783 Q61.745,216.664 60.234,216.174 Q58.061,216.643 55.686,216.264 Q50.664,215.464 47.679,211.347 Q44.693,207.231 45.494,202.209 Q46.294,197.187 50.41,194.202 Z M62.684,215.347 Q63.71,214.887 64.824,214.079 Q63.783,214.834 62.684,215.347 Z"/>
</svg>

