<svg xmlns="http://www.w3.org/2000/svg" width="384" height="384" viewBox="0 0 384 384">
  <defs/>
  <path fill="rgb(100%, 4.705882%, 3.137255%)" opacity="0.884" d="M37.757,370.461 Q14.831,374.771 4.41,361.177 Q-2.3,352.424 -2.224,331.414 Q-2.203,325.626 -2.367,323.07 Q-2.454,321.704 -2.292,320.345 Q-2.037,318.214 -2.029,315.551 Q-2.025,314.053 -1.955,313.207 Q-1.765,310.903 -0.98,308.84 Q0.397,305.222 3.327,302.721 Q8.773,298.074 15.812,299.382 Q22.868,300.693 27.256,308.546 Q39.053,329.658 70.143,360.99 Q74.503,365.384 74.479,371.574 Q74.455,377.763 70.061,382.123 Q65.667,386.483 59.477,386.459 Q53.287,386.435 48.927,382.042 Q43.039,376.107 37.757,370.461 Z"/>
  <path fill="rgb(87.843137%, 0.392157%, 0%)" d="M179.563,249.601 Q184.522,256.391 189.23,262.322 Q186.415,256.001 191.881,249.512 Q196.522,244.002 207.731,239.864 Q194.553,224.211 189.235,223.729 Q182.737,223.14 183.325,216.642 Q183.62,213.392 185.392,211.915 Q187.164,210.437 190.413,210.732 Q200.361,211.633 213.153,225.735 Q216.457,229.377 221.505,235.823 Q246.343,230.021 287.102,229.195 Q287.783,229.181 288.452,229.308 Q291.657,229.917 292.956,231.824 Q294.254,233.731 293.645,236.936 Q291.724,247.053 289.457,255.88 Q295.01,254.379 300.73,252.604 Q306.962,250.67 308.896,256.902 Q309.396,258.512 309.053,260.162 Q303.039,289.148 293.347,300.503 Q282.652,313.031 267.937,306.983 Q266.832,306.529 265.695,305.948 Q255.058,316.573 241.491,316.266 Q211.594,315.587 169.023,257.298 Q167.099,254.663 167.454,252.383 Q167.81,250.104 170.444,248.18 Q175.714,244.331 179.563,249.601 Z M194.5,268.783 Q223.037,302.793 241.787,303.218 Q248.86,303.379 254.983,298.317 Q250.367,294.2 245.335,288.437 Q241.689,284.262 236.198,277.148 Q233.608,277.188 231.062,277.151 Q204.805,276.768 194.5,268.783 Z M275.066,259.371 Q277.268,251.605 279.22,242.464 Q249.842,243.468 230.224,247.291 Q232.332,250.128 234.631,253.271 Q238.784,258.95 242.563,263.867 Q257.96,263.026 275.066,259.371 Z M285.189,270.446 Q280.231,285.269 273.988,295.298 Q279.287,296.872 283.42,292.029 Q289.246,285.204 293.761,268.234 Q289.43,269.418 285.189,270.446 Z M216.407,250.701 Q214.777,251.209 213.25,251.746 Q204.453,254.844 201.862,257.919 L201.855,257.923 Q206.706,263.122 226.288,263.962 Q225.213,262.503 224.096,260.975 Q220.037,255.424 216.407,250.701 Z M252.445,276.178 Q258.636,283.495 263.473,288.05 Q267.146,282.024 270.383,273.604 Q261.187,275.289 252.445,276.178 Z"/>
  <path fill="rgb(7.058824%, 34.117647%, 3.529412%)" opacity="0.839" d="M211.659,135.701 Q211.661,135.942 211.663,136.174 Q216.865,152.797 219.015,165.776 Q221.58,181.268 218.563,184.396 Q216.362,186.678 213.801,184.648 Q212.754,183.819 211.876,182.005 Q210.588,179.343 209.473,174.463 Q207.661,181.538 204.616,187.732 Q198.597,199.973 190.403,203.654 Q181.4,207.698 174.548,200.018 Q172.53,200.093 170.401,200.271 Q168.006,200.472 167.036,199.766 Q165.216,198.442 166.03,196.335 Q166.254,195.754 166.724,195.26 Q166.934,195.04 167.456,194.6 Q174.486,188.671 176.414,175.616 Q180.298,149.306 163.373,101.519 Q162.416,98.818 165.117,97.861 Q166.468,97.383 167.383,97.819 Q168.297,98.255 168.776,99.606 Q186.176,148.735 182.084,176.453 Q180.468,187.392 175.516,194.254 Q175.655,194.251 175.794,194.248 Q177.219,194.219 178.102,195.339 Q182.503,200.92 188.055,198.425 Q194.365,195.591 199.472,185.203 Q205.087,173.783 206.154,158.929 Q207.366,142.064 202.122,125.65 Q201.274,122.996 203.902,122.073 Q206.606,121.124 207.556,123.828 Q209.292,128.775 210.796,133.443 Q211.645,134.147 211.659,135.701 Z"/>
  <path fill="rgb(83.921569%, 0%, 5.882353%)" opacity="0.375" d="M184.632,62.248 Q180.716,113.314 172.87,137.942 Q169.323,149.075 165.169,153.74 Q159.921,159.633 154.332,156.094 Q146.223,150.958 143.251,125.804 Q140.183,99.836 144.285,66.676 Q144.671,63.555 147.792,63.941 Q149.353,64.134 150.037,65.011 Q150.72,65.888 150.527,67.449 Q146.519,99.853 149.498,125.066 Q152.118,147.246 157.698,150.78 Q158.775,151.462 160.472,149.557 Q163.737,145.891 166.877,136.033 Q174.501,112.103 178.36,61.767 Q178.601,58.632 181.737,58.872 Q183.304,58.992 184.028,59.836 Q184.752,60.68 184.632,62.248 Z"/>
  <path fill="rgb(100%, 11.764706%, 18.039216%)" opacity="0.076" d="M114.56,112.448 Q124.003,129.799 132.992,135.96 Q133.576,136.36 134.095,136.672 Q134.101,136.445 134.102,136.201 Q134.111,128.491 128.132,118.442 Q122.863,112.2 122.494,101.201 Q122.334,96.405 123.239,85.844 Q123.574,81.941 123.756,78.933 Q121.378,83.635 118.442,88.816 Q115.278,94.4 109.091,96.111 Q102.905,97.822 97.321,94.657 Q91.737,91.492 90.026,85.306 Q88.315,79.12 91.48,73.536 Q100.397,57.801 102.545,49.206 Q104.802,40.178 113.413,37.713 Q121.99,35.257 128.421,41.441 Q129.086,42.08 129.661,42.777 Q131.609,42.693 133.455,42.895 Q146.92,44.367 152.275,57.363 Q156.009,66.426 154.117,88.491 Q153.369,97.213 153.468,100.163 Q153.474,100.344 153.48,100.499 Q153.568,100.634 153.653,100.771 Q165.114,119.153 165.093,136.239 Q165.067,157.059 149.743,165.435 Q133.852,174.12 115.473,161.524 Q100.341,151.154 87.339,127.263 Q84.271,121.625 86.087,115.469 Q87.904,109.313 93.542,106.245 Q99.18,103.177 105.336,104.994 Q111.492,106.811 114.56,112.448 Z"/>
  <path fill="rgb(27.058824%, 92.941176%, 0%)" d="M346.521,45.21 Q352.979,42.609 357.76,42.048 Q369.198,40.706 373.232,49.212 Q376.241,55.557 372.199,63.624 Q369.448,69.114 364.278,73.87 Q350.155,86.859 336.482,81.028 Q320.728,74.308 319.262,43.594 Q318.934,36.729 324.734,34.777 Q324.999,34.489 325.344,34.078 Q326.595,32.584 329.377,28.636 Q332.212,24.611 333.444,23.258 Q336.42,19.99 340.151,19.589 Q346.635,18.893 349.492,24.78 Q350.511,26.88 350.483,29.414 Q350.446,32.731 346.521,45.21 Z"/>
  <path fill="rgb(11.764706%, 0%, 57.254902%)" opacity="0.34" d="M175.763,187.384 Q190.081,214.35 190.075,228.076 Q192.123,229.67 192.501,231.78 Q192.979,234.45 190.63,236.957 Q190.038,237.588 189.427,237.608 Q188.815,237.628 188.184,237.036 Q188.028,236.89 187.909,236.743 Q187.51,237.357 187.038,237.904 Q185.141,240.099 182.549,240.037 Q180.084,239.977 178.345,237.945 Q174.524,233.482 178.101,226.443 Q178.507,225.644 179.394,225.514 Q183.049,224.979 186.167,226.009 Q186.018,224.365 185.697,222.485 Q183.431,209.207 172.706,189.007 Q171.894,187.478 173.423,186.667 Q174.951,185.855 175.763,187.384 Z M186.272,229.784 Q183.804,228.595 180.794,228.837 Q178.854,233.217 180.974,235.694 Q181.711,236.554 182.632,236.576 Q183.591,236.599 184.419,235.64 Q186.077,233.721 186.272,229.784 Z"/>
  <path fill="rgb(0%, 80.392157%, 0%)" d="M121.074,47.204 Q112.928,34.197 102.529,26.573 Q96.63,22.247 86.567,17.891 Q79.443,14.807 76.819,12.623 Q70.704,7.532 71.968,-0.412 Q73.372,-9.242 93.178,-34.985 Q95.532,-38.044 98.239,-38.397 Q100.945,-38.75 104.005,-36.396 Q106.687,-34.333 106.987,-30.962 Q107.176,-28.832 107.242,-26.705 Q124.837,-29.414 152.761,-25.521 Q157.227,-24.899 158.879,-20.704 Q165.353,-4.261 170.222,2.761 Q170.632,3.352 170.967,3.778 Q172.408,4.922 173.212,6.338 Q175.293,9.998 173.376,13.724 Q170.33,19.644 164.009,17.508 Q162.649,17.049 161.45,16.085 Q161.418,16.059 161.385,16.032 Q160.26,15.817 158.525,16.208 Q151.086,17.885 140.384,28.417 Q134.881,33.832 129.466,28.329 Q126.759,25.578 126.781,22.848 Q126.803,20.119 129.554,17.411 Q141.578,5.579 152.012,2.029 Q149.231,-3.495 146.217,-10.81 Q118.502,-14.24 103.994,-10.279 Q98.23,-8.705 94.85,-11.305 Q88.513,-2.257 87.411,1.225 Q88.878,2.067 92.701,3.722 Q104.358,8.768 111.659,14.121 Q124.443,23.494 134.16,39.007 Q138.258,45.55 131.715,49.648 Q128.444,51.697 125.784,51.086 Q123.124,50.475 121.074,47.204 Z"/>
  <path fill="rgb(22.745098%, 100%, 1.960784%)" d="M212.589,231.7 Q266.008,220.611 297.503,208.527 Q304.686,182.628 316.645,168.074 Q321.843,161.748 326.571,159.51 Q331.912,156.982 334.772,160.259 Q340.383,166.687 329.287,187.014 Q316.181,211.02 284.94,242.508 Q283.732,243.725 282.515,242.518 Q281.298,241.31 282.506,240.093 Q300.869,221.585 312.866,205.747 Q312.343,205.995 311.775,206.257 Q309.309,207.395 306.66,208.525 Q303.356,210.549 299.35,213.223 Q298.637,213.699 298.043,213.58 Q297.448,213.462 296.973,212.749 Q296.876,212.604 296.812,212.455 Q265.348,224.25 213.286,235.057 Q211.607,235.406 211.259,233.727 Q210.911,232.049 212.589,231.7 Z M305.097,205.464 Q311.653,201.465 315.611,199.91 Q316.704,199.481 317.41,199.519 Q322.585,192.134 326.277,185.371 Q336.229,167.142 332.19,162.514 Q331.034,161.191 328.038,162.609 Q324.005,164.518 319.294,170.251 Q308.37,183.545 301.519,206.946 Q303.348,206.207 305.097,205.464 Z"/>
  <path fill="rgb(6.666667%, 5.098039%, 15.686275%)" opacity="0.641" d="M248.12,50.526 Q267.99,47.069 282.51,70.479 Q294.747,90.207 301.318,125.547 Q307.232,157.348 306.734,190.28 Q306.239,223.042 299.678,239.793 Q299.366,240.591 298.81,240.834 Q298.255,241.077 297.457,240.764 Q296.495,240.388 296.379,239.361 Q286.266,150.181 277.813,112.232 Q277.691,111.685 277.784,111.299 Q277.887,110.87 278.183,110.544 Q278.935,109.719 279.993,110.072 Q280.603,110.275 280.929,110.828 Q281.008,110.964 281.062,111.112 Q281.081,111.164 281.097,111.218 Q281.104,111.242 281.111,111.27 Q281.116,111.289 281.123,111.317 Q281.131,111.349 281.153,111.435 Q282.674,117.569 285.293,125.991 Q285.75,127.458 284.481,128.019 Q291.203,164.626 298.881,231.074 Q302.922,215.643 303.306,190.228 Q303.799,157.639 297.947,126.174 Q291.494,91.467 279.596,72.286 Q266.297,50.844 248.708,53.904 Q247.019,54.198 246.725,52.509 Q246.578,51.664 246.927,51.169 Q247.276,50.673 248.12,50.526 Z"/>
  <path fill="rgb(100%, 10.980392%, 11.372549%)" opacity="0.441" d="M61.449,198.642 Q74.678,177.784 69.67,171.012 Q66.945,167.329 54.585,164.859 Q49.444,163.831 47.407,162.895 Q41.586,160.217 40.851,154.267 Q40.112,148.274 45.212,144.194 Q49.098,141.085 71.062,133.096 Q75.766,131.385 78.974,132.881 Q82.181,134.378 83.892,139.082 Q87.314,148.49 77.906,151.912 Q77.78,151.958 77.667,151.999 Q82.773,155.058 85.767,159.106 Q98.939,176.915 78.356,209.366 Q75.675,213.593 72.221,214.366 Q68.767,215.139 64.54,212.458 Q56.086,207.096 61.449,198.642 Z"/>
  <path fill="rgb(84.313725%, 94.901961%, 73.333333%)" opacity="0.011" d="M361.407,193.755 Q357.861,180.964 356.79,153.716 Q348.88,166.407 340.678,171.688 Q331.368,177.683 323.728,173.135 Q307.918,163.725 310.582,121.229 Q310.636,120.373 311.09,119.972 Q311.545,119.571 312.4,119.625 Q314.111,119.732 314.004,121.443 Q311.471,161.85 325.481,170.189 Q331.297,173.651 338.822,168.806 Q347.195,163.414 355.484,149.245 L355.54,148.289 Q356.136,138.031 356.258,137.09 Q356.302,136.744 356.381,136.521 Q356.478,136.247 356.653,136.023 Q357.436,135.019 358.624,135.471 Q359.475,135.795 359.695,136.703 Q359.763,136.983 359.792,137.697 Q359.821,138.425 359.873,141.311 Q360.521,177.726 364.711,192.839 Q364.94,193.665 364.641,194.192 Q364.343,194.72 363.517,194.949 Q361.865,195.407 361.407,193.755 Z"/>
  <path fill="rgb(63.529412%, 36.470588%, 77.647059%)" opacity="0.211" d="M179.585,77.695 Q197.649,89.72 218.139,91.46 Q224.952,92.038 228.335,92.902 Q236.982,95.111 242.112,101.514 Q249.45,110.674 248.426,132.453 Q248.1,139.406 242.952,144.091 Q237.805,148.776 230.852,148.45 Q223.899,148.123 219.214,142.976 Q214.528,137.828 214.855,130.875 Q215.018,127.414 214.987,124.921 Q186.075,122.389 160.962,105.672 Q155.168,101.815 153.798,94.99 Q152.428,88.166 156.285,82.372 Q160.142,76.578 166.967,75.208 Q173.791,73.838 179.585,77.695 Z"/>
  <path fill="rgb(100%, 9.019608%, 48.627451%)" opacity="0.32" d="M112.561,172.234 Q142.454,184.671 152.301,180.577 Q160.211,177.289 182.224,147.693 Q184.618,144.475 185.874,142.792 Q190.011,137.246 196.858,136.251 Q203.706,135.255 209.251,139.393 Q216.423,144.744 215.942,153.68 Q214.632,177.985 195.756,203.501 Q185.591,217.241 161.363,241.104 Q146.239,255.999 140.661,262.629 Q132.121,272.779 120.301,266.761 Q100.767,256.817 90.776,241.701 Q79.855,225.177 84.687,211.093 Q87.488,202.927 94.047,199.25 Q91.953,197.058 90.702,194.024 Q88.064,187.628 90.722,181.24 Q93.38,174.851 99.776,172.214 Q106.173,169.576 112.561,172.234 Z M133.379,213.965 Q135.059,216.091 136.73,218.476 Q137.318,217.895 137.92,217.302 Q139.152,216.088 140.342,214.906 Q137.61,214.674 134.779,214.209 Q134.088,214.095 133.379,213.965 Z"/>
  <path fill="rgb(62.352941%, 4.313725%, 12.156863%)" opacity="0.703" d="M33.411,92.129 Q70.048,55.621 78.66,54.773 Q82.79,54.366 84.691,57.878 Q85.892,60.098 85.829,64.133 Q85.763,68.458 83.409,81.736 Q76.963,118.103 80.125,138.043 Q85.627,172.733 117.193,187.795 Q120.183,189.222 118.756,192.212 Q118.043,193.707 116.938,194.098 Q115.834,194.489 114.339,193.776 Q79.628,177.214 73.58,139.081 Q70.243,118.042 76.884,80.579 Q79.144,67.825 79.203,64.031 Q79.231,62.232 79.008,61.414 Q72.25,62.782 38.089,96.824 Q35.742,99.163 33.403,96.816 Q31.064,94.468 33.411,92.129 Z"/>
  <path fill="rgb(100%, 0.392157%, 12.941176%)" opacity="0.404" d="M49.073,109.761 Q39.368,118.185 35.775,133.29 Q32.134,148.595 35.659,166.255 Q36.274,169.338 37.075,172.325 Q46.578,176.163 60.318,178.391 Q97.634,184.444 146.575,172.138 Q151.817,170.82 155.097,172.782 Q158.376,174.744 159.694,179.985 Q162.33,190.469 151.847,193.104 Q100.996,205.89 60.669,200.305 Q69.53,211.905 79.279,226.483 Q82.85,231.824 79.865,237.514 Q74.844,247.086 65.271,242.065 Q45.118,231.492 31.455,211.36 Q23.906,200.236 19.282,187.67 Q15.366,185.424 12.077,182.843 Q8.806,180.277 7.154,177.837 Q4.557,174.003 5.099,169.715 Q5.789,164.254 10.559,161.517 Q11.696,160.864 12.912,160.499 Q11.081,143.678 14.742,128.288 Q19.945,106.416 34.903,93.434 Q43.067,86.349 50.152,94.512 Q53.695,98.594 53.425,102.407 Q53.155,106.219 49.073,109.761 Z"/>
  <path fill="rgb(41.960784%, 0%, 0%)" opacity="0.99" d="M48.201,113.357 Q40.902,143.501 57.338,168.841 Q64.109,179.279 72.993,185.142 Q81.385,190.68 88.502,190.102 Q90.268,189.958 91.222,190.769 Q92.177,191.58 92.32,193.346 Q92.607,196.877 89.076,197.164 Q79.522,197.941 69.09,191.056 Q58.97,184.377 51.394,172.697 Q33.298,144.798 41.315,111.69 Q41.731,109.968 42.801,109.316 Q43.87,108.663 45.592,109.08 Q49.035,109.914 48.201,113.357 Z"/>
  <path fill="rgb(100%, 7.45098%, 2.745098%)" opacity="0.892" d="M146.25,-18.368 Q144.087,-18.746 141.772,-19.178 Q126.003,-22.114 124.518,-19.382 Q120.924,-12.765 125.862,24.146 Q134.837,27.744 146.94,27.103 Q155.79,26.634 174.385,22.629 Q202.3,16.616 215.372,18.618 Q238.239,22.121 250.671,46.017 Q252.035,48.64 251.406,50.633 Q250.777,52.627 248.155,53.991 Q242.91,56.72 240.181,51.475 Q230.517,32.901 213.581,30.307 Q202.662,28.634 176.874,34.189 Q157.358,38.392 147.565,38.911 Q130.413,39.82 117.787,33.465 Q115.016,32.07 114.589,28.997 Q108.522,-14.707 114.127,-25.026 Q118.131,-32.397 127.525,-32.808 Q132.098,-33.007 143.937,-30.803 Q156.161,-28.526 163.72,-27.812 Q164.582,-27.731 165.384,-27.406 Q176.488,-22.908 180.139,-17.619 Q182.829,-13.723 181.731,-9.716 Q180.672,-5.852 176.657,-3.902 Q171.289,-1.296 163.168,-3.183 Q154.889,-5.107 147.749,-10.998 Q145.469,-12.879 145.269,-14.96 Q145.112,-16.602 146.25,-18.368 Z M161.588,-16.14 Q162.418,-15.768 163.262,-15.464 Q162.527,-15.791 161.721,-16.127 Q161.653,-16.134 161.588,-16.14 Z"/>
  <path fill="rgb(85.098039%, 1.568627%, 0%)" opacity="0.934" d="M42.84,206.362 Q28.72,208.379 17.653,199.26 Q11.818,194.451 2.822,181.472 Q-7.518,166.553 -14.57,161.733 Q-25.837,154.033 -43.306,156.997 Q-47.744,157.751 -50.34,155.908 Q-52.936,154.066 -53.689,149.627 Q-55.195,140.751 -46.319,139.245 Q-21.68,135.064 -4.41,146.867 Q5.388,153.563 17.621,171.214 Q25.195,182.143 29.104,185.363 Q34.039,189.43 40.293,188.536 Q49.206,187.263 50.479,196.176 Q51.116,200.633 49.206,203.179 Q47.296,205.725 42.84,206.362 Z"/>
  <path fill="rgb(86.666667%, 3.921569%, 13.333333%)" opacity="0.705" d="M149.938,118.079 Q169.154,162.258 166.46,181.456 Q165.053,191.486 157.881,193.787 Q151.648,195.788 143.428,190.739 Q127.71,181.083 115.785,156.518 Q102.129,128.388 104.122,98.77 Q104.391,94.775 108.386,95.044 Q110.384,95.178 111.315,96.244 Q112.247,97.31 112.112,99.308 Q110.262,126.803 122.989,153.02 Q133.894,175.483 147.62,183.915 Q152.704,187.038 155.433,186.162 Q157.82,185.396 158.529,180.343 Q160.909,163.381 142.594,121.273 Q140.996,117.601 144.668,116.004 Q148.34,114.407 149.938,118.079 Z"/>
  <path fill="rgb(90.980392%, 82.352941%, 2.352941%)" opacity="0.112" d="M322.124,54.87 Q332.5,57.675 349.812,60.513 Q368.039,63.501 375.004,66.651 Q386.64,71.912 391.935,84.304 Q401.832,107.471 395.787,191.008 Q395.478,195.275 391.211,194.966 Q386.944,194.658 387.253,190.39 Q393.148,108.924 384.066,87.666 Q380.08,78.336 371.479,74.447 Q365.542,71.762 348.428,68.957 Q330.687,66.049 319.891,63.13 Q315.761,62.013 316.878,57.883 Q317.995,53.753 322.124,54.87 Z"/>
  <path fill="rgb(76.078431%, 3.137255%, 2.352941%)" d="M282.744,212.559 Q282.796,212.517 282.843,212.478 Q295.108,202.495 304.878,209.861 Q318.003,219.756 310.313,255.517 Q302.918,289.907 281.751,323.035 Q255.97,363.386 218.347,385.972 Q214.466,388.302 211.361,387.526 Q208.256,386.751 205.926,382.87 Q205.803,382.664 205.69,382.452 Q185.399,344.183 177.253,308.436 Q168.321,269.238 176.637,243.154 Q186.619,211.844 218.596,205.327 Q244.373,200.074 282.744,212.559 Z M263.986,236.435 Q266.934,231.547 269.754,227.483 Q241.067,219.224 222.211,223.067 Q200.642,227.463 193.886,248.653 Q187.071,270.032 194.905,304.413 Q201.591,333.754 217.19,365.21 Q245.88,345.552 266.495,313.288 Q285.904,282.909 292.613,251.711 Q294.479,243.036 294.839,236.252 Q291.239,234.799 287.758,233.492 Q283.941,238.403 279.49,245.784 Q274.815,253.536 267.064,248.861 Q259.312,244.187 263.986,236.435 Z"/>
  <path fill="rgb(85.882353%, 100%, 12.156863%)" opacity="0.157" d="M-0.002,264.98 Q-8.32,243.651 -11.138,230.613 Q-14.398,241.723 -13.119,248.786 Q-11.718,256.529 -1.456,270.64 Q-0.369,272.134 -1.863,273.22 Q-2.61,273.763 -3.255,273.661 Q-3.9,273.56 -4.443,272.813 Q-15.202,258.019 -16.754,249.444 Q-18.569,239.415 -12.412,222.77 Q-12.517,221.665 -12.557,220.656 Q-12.645,218.438 -12.335,217.205 Q-12.114,216.327 -11.638,215.825 Q-10.325,214.442 -8.858,215.634 Q-7.134,217.035 -8.02,221.54 Q-8.052,221.703 -8.112,221.857 Q-8.389,222.563 -8.651,223.257 Q-7.176,236.421 3.439,263.638 Q4.11,265.358 2.39,266.029 Q1.53,266.365 0.932,266.102 Q0.334,265.84 -0.002,264.98 Z"/>
  <path fill="rgb(63.529412%, 20.784314%, 12.156863%)" opacity="0.943" d="M73.55,384.313 Q43.051,382.379 -0.949,371.668 Q-34.115,363.593 -45.696,365.382 Q-48.324,365.788 -49.842,364.677 Q-51.359,363.566 -51.765,360.937 Q-52.577,355.68 -47.32,354.868 Q-33.651,352.756 1.568,361.33 Q44.658,371.821 74.223,373.695 Q79.532,374.032 79.196,379.341 Q79.027,381.995 77.616,383.238 Q76.205,384.481 73.55,384.313 Z"/>
  <path fill="rgb(43.137255%, 25.490196%, 0%)" opacity="0.988" d="M102.646,264.654 Q97.481,274.377 99.614,278.817 Q101.001,281.705 104.924,281.174 Q108.682,280.666 109.036,278.357 Q109.51,275.271 102.265,271.262 Q100.046,270.034 101.273,267.815 Q102.189,266.16 104.037,266.567 Q115.499,269.09 119.389,269.161 Q117.864,266.153 117.939,264.265 Q118.089,260.524 122.555,258.683 Q130.963,255.218 161.247,257.613 Q163.463,257.788 163.579,260.008 Q163.902,266.171 165.549,276.042 Q167.355,286.867 166.289,290.659 Q164.463,297.158 155.098,298.661 Q141.759,300.802 71.704,291.573 Q70.447,291.407 69.901,290.696 Q69.356,289.984 69.521,288.727 Q69.852,286.213 72.366,286.545 Q141.687,295.677 154.294,293.654 Q160.458,292.664 161.407,289.287 Q162.167,286.584 160.547,276.877 Q159.131,268.397 158.663,262.501 Q131.496,260.484 124.487,263.372 Q123.026,263.974 123.006,264.468 Q122.983,265.043 123.925,266.893 Q125.019,269.044 125.063,270.221 Q125.179,273.409 121.592,274.074 Q119.235,274.51 112.7,273.438 Q114.499,276.197 114.049,279.127 Q113.119,285.183 105.604,286.2 Q98.027,287.225 95.043,281.014 Q91.799,274.263 98.167,262.275 Q99.357,260.036 101.596,261.226 Q102.716,261.82 102.978,262.678 Q103.24,263.535 102.646,264.654 Z"/>
  <path fill="rgb(100%, 0%, 5.490196%)" opacity="0.732" d="M102.674,51.321 Q97.705,51.365 94.873,54.129 Q92.569,56.378 89.142,63.189 Q82.42,76.553 73.271,78.513 Q59.829,81.393 48.63,63.729 Q45.26,58.414 46.636,52.273 Q48.011,46.132 53.326,42.762 Q58.641,39.393 64.782,40.768 Q65.741,40.983 66.633,41.294 Q70.1,35.848 73.65,32.384 Q85.222,21.09 102.404,20.937 Q108.697,20.881 113.186,25.291 Q117.675,29.701 117.731,35.994 Q117.787,42.287 113.377,46.776 Q108.967,51.265 102.674,51.321 Z"/>
  <path fill="rgb(24.705882%, 13.333333%, 36.470588%)" opacity="0.839" d="M185.733,365.008 Q166.724,365.43 147.607,373.187 Q141.462,375.68 139.214,375.852 Q135.06,376.168 132.951,372.163 Q130.547,367.597 127.135,337.621 Q126.163,329.081 125.188,320.919 Q124.222,326.057 122.615,332.174 Q117.126,353.065 114.55,374.174 Q114.379,375.569 112.991,375.784 Q96.19,378.381 70.637,381.736 Q50.734,384.35 45.309,385.454 Q41.617,386.206 40.091,386.903 Q44.833,389.886 84.76,401.68 Q94.447,404.542 99.912,406.166 Q101.691,406.695 101.162,408.474 Q100.898,409.364 100.321,409.676 Q99.744,409.989 98.854,409.725 Q93.411,408.107 83.708,405.241 Q38.396,391.855 36.294,388.277 Q35.422,386.792 36.254,385.361 Q36.812,384.4 38.193,383.698 Q40.107,382.725 44.568,381.816 Q50.121,380.686 70.153,378.056 Q94.622,374.842 111.038,372.328 Q113.653,351.674 119.025,331.23 Q122.716,317.181 122.918,308.623 Q122.997,305.276 122.743,301.065 Q120.644,284.555 118.534,269.79 Q118.271,267.952 120.109,267.69 Q121.879,267.437 122.198,269.197 Q125.678,288.408 126.437,300.69 Q128.637,317.992 130.823,337.201 Q134.157,366.485 136.236,370.433 Q137.209,372.281 138.932,372.15 Q140.603,372.023 146.211,369.747 Q165.96,361.733 185.65,361.297 Q187.506,361.255 187.547,363.111 Q187.588,364.967 185.733,365.008 Z"/>
  <path fill="rgb(100%, 92.941176%, 98.039216%)" opacity="0.746" d="M195.815,147.307 Q207.864,171.137 209.857,183.078 Q211.133,190.724 208.698,195.676 Q205.382,202.419 197.52,202.981 Q190.018,203.518 176.788,196.346 Q169.919,192.623 154.763,182.866 Q135.455,170.436 129.106,167.876 Q121.098,164.646 124.328,156.638 Q125.942,152.634 128.752,151.439 Q131.561,150.244 135.565,151.859 Q143.429,155.03 164.111,168.345 Q184.873,181.711 192.615,184.819 Q190.646,175.358 180.403,155.099 Q176.507,147.393 184.213,143.497 Q191.919,139.601 195.815,147.307 Z"/>
  <path fill="rgb(100%, 100%, 100%)" opacity="0.857" d="M233.894,23.875 Q254.247,28.506 281.135,34.24 Q314.486,41.353 334.393,47.782 Q332.111,14.192 338.586,0.802 Q341.98,-6.214 347.366,-6.494 Q352.375,-6.754 356.601,-1.065 Q364.875,10.076 364.263,30.986 Q363.542,55.63 349.081,77.793 Q347.542,80.151 345.184,78.612 Q344.005,77.843 343.8,76.869 Q343.595,75.894 344.365,74.715 Q357.96,53.881 358.634,30.822 Q359.189,11.865 352.08,2.293 Q349.653,-0.974 347.658,-0.87 Q345.599,-0.763 343.656,3.254 Q337.447,16.093 340.322,51.562 Q340.37,52.148 340.179,52.704 Q339.263,55.367 336.6,54.452 Q316.485,47.538 279.96,39.748 Q253.035,34.006 232.645,29.367 Q231.272,29.054 230.742,28.212 Q230.212,27.369 230.524,25.996 Q231.149,23.251 233.894,23.875 Z"/>
  <path fill="rgb(100%, 93.333333%, 34.117647%)" opacity="0.159" d="M48.939,249.989 Q53.431,251.552 56.065,252.306 Q55.85,243.806 64.818,241.874 Q74.805,239.723 105.018,247.587 Q105.355,247.674 105.678,247.801 Q107.964,248.694 112.177,250.343 Q122.623,254.431 130.013,257.21 Q129.191,255.802 129.279,254.004 Q129.919,240.779 133.433,223.208 Q135.248,214.13 135.115,211.633 Q135.034,210.114 133.969,209.567 Q128.715,206.87 91.438,207.068 Q88.493,207.084 87.013,205.619 Q85.533,204.155 85.518,201.211 Q85.487,195.323 91.375,195.291 Q131.532,195.078 139.347,199.089 Q146.436,202.728 146.876,211.008 Q147.087,214.985 144.981,225.517 Q142.016,240.347 141.211,251.741 Q149.114,258.645 151.8,261.809 Q154.731,265.263 154.722,268.253 Q154.711,272.345 151.018,274.137 Q149.291,274.974 147.027,274.871 Q141.947,274.641 107.885,261.31 Q103.929,259.762 101.716,258.897 Q75.729,252.153 67.988,253.264 Q68.002,253.34 68.018,253.419 Q69.817,262.474 62.63,264.368 Q57.962,265.598 45.069,261.112 Q39.507,259.177 41.442,253.616 Q42.41,250.835 44.284,249.928 Q46.158,249.022 48.939,249.989 Z"/>
  <path fill="rgb(14.117647%, 12.941176%, 29.411765%)" opacity="0.492" d="M230.681,292.472 Q249.929,216.045 250.625,180.328 Q250.973,162.484 247.78,142.709 Q245.726,129.989 238.938,99.797 Q235.41,84.103 233.467,75.124 Q233.074,73.306 234.892,72.913 Q235.801,72.716 236.354,73.072 Q236.906,73.428 237.103,74.337 Q239.043,83.304 242.568,98.981 Q249.38,129.284 251.452,142.116 Q254.699,162.222 254.344,180.401 Q253.64,216.542 234.288,293.38 Q233.834,295.184 232.03,294.729 Q230.226,294.275 230.681,292.472 Z"/>
  <path fill="rgb(100%, 100%, 87.843137%)" opacity="0.026" d="M323.365,288.796 Q331.059,289.165 334.926,292.08 Q338.543,294.806 338.031,298.62 Q337.536,302.301 334.164,303.366 Q331.18,304.309 328.669,302.039 Q325.306,303.869 320.655,305.18 Q322.575,306.25 326.391,308.213 Q327.496,308.781 328.111,309.098 Q329.669,309.901 328.867,311.459 Q328.064,313.017 326.506,312.214 Q325.885,311.895 324.788,311.33 Q317.139,307.395 316.205,306.407 Q315.342,305.494 315.517,304.424 Q315.686,303.393 316.731,302.799 Q317.334,302.457 319.305,301.918 Q324.641,300.458 328.066,298.338 Q329.373,297.529 330.345,298.719 Q331.76,300.45 333.108,300.024 Q334.358,299.629 334.557,298.153 Q334.796,296.371 332.816,294.879 Q329.812,292.615 323.197,292.298 Q321.447,292.214 321.531,290.463 Q321.615,288.712 323.365,288.796 Z"/>
  <path fill="rgb(76.078431%, 0%, 7.058824%)" opacity="0.99" d="M218.772,348.093 Q213.357,293.966 218.349,251.224 Q222.753,213.521 232.667,201.287 Q235.809,197.41 239.556,196.481 Q244.38,195.284 248.352,198.799 Q253.459,203.32 256.001,216.5 Q261.052,242.69 256.682,295.92 Q259.038,296.402 260.522,297.239 Q267.608,301.237 264.507,310.414 Q259.876,324.115 222.039,361.269 Q217.954,365.28 213.942,361.195 Q209.931,357.11 214.016,353.098 Q216.485,350.674 218.802,348.364 Q218.786,348.23 218.772,348.093 Z M229.307,337.661 Q250.548,315.471 253.589,306.947 Q252.571,306.836 250.813,306.76 Q250.421,306.743 250.239,306.735 Q250.116,306.729 249.993,306.719 Q247.141,306.465 245.842,304.912 Q244.544,303.36 244.797,300.509 Q249.766,244.639 244.757,218.669 Q243.31,211.167 241.615,208.433 Q241.59,208.464 241.563,208.497 Q233.741,218.149 229.723,252.553 Q225.305,290.38 229.307,337.661 Z"/>
  <path fill="rgb(94.117647%, 87.058824%, 97.254902%)" opacity="0.074" d="M357.096,145.095 Q356.477,143.319 355.771,141.869 Q355.522,145.129 354.777,148.661 Q353.401,155.176 346.886,153.8 Q344.487,153.294 342.989,151.351 Q340.584,148.233 336.202,142.25 Q321.597,122.309 312.676,118.631 Q298.493,112.782 271.313,125.687 Q265.298,128.543 262.442,122.528 Q261.014,119.52 261.804,117.303 Q262.594,115.085 265.601,113.657 Q298.113,98.22 317.753,106.319 Q326.227,109.814 334.065,118.149 Q334.252,118.347 334.444,118.556 Q334.478,118.509 334.513,118.46 Q336.522,115.732 340.024,115.514 Q343.042,115.326 346.165,117.285 Q349.257,119.224 351.42,122.41 Q360.01,124.001 365.852,133.407 Q370.557,140.982 372.469,151.915 Q374.977,166.258 368.234,168.512 Q362.566,170.406 359.619,164.673 Q358.954,163.38 358.356,161.265 Q357.282,157.468 356.165,150.372 Q355.647,147.083 357.032,145.18 Q357.063,145.137 357.096,145.095 Z"/>
  <path fill="rgb(0%, 41.176471%, 0%)" opacity="0.912" d="M83.577,72.614 Q74.472,87.923 61.631,82.047 Q51.409,77.37 46.618,62.89 Q41.638,47.842 48.049,37 Q55.838,23.827 76.758,25.473 Q80.531,25.77 80.234,29.543 Q80.085,31.429 79.068,32.298 Q78.05,33.167 76.164,33.019 Q59.951,31.743 54.564,40.853 Q49.905,48.732 53.803,60.512 Q57.558,71.86 64.78,75.165 Q71.441,78.213 77.072,68.745 Q79.006,65.493 82.259,67.427 Q85.511,69.362 83.577,72.614 Z"/>
  <path fill="rgb(23.921569%, 28.235294%, 30.588235%)" opacity="0.291" d="M252.169,334.356 Q248.686,343.913 248.155,349.395 Q251.661,347.173 256.31,342.369 Q268.935,329.323 280.529,307.885 Q294.084,282.82 300.241,256.337 Q301.783,249.702 308.417,251.245 Q315.052,252.787 313.509,259.421 Q306.938,287.689 292.511,314.365 Q280.027,337.451 266.1,351.842 Q249.637,368.854 239.862,362.799 Q229.617,356.454 239.37,329.691 Q241.702,323.292 248.102,325.624 Q254.501,327.956 252.169,334.356 Z"/>
  <path fill="rgb(27.843137%, 3.137255%, 5.490196%)" opacity="0.887" d="M-1.078,363.347 Q-0.948,303.819 10.478,272.884 Q12.014,268.724 13.414,265.903 Q13.441,265.702 13.51,265.49 Q16.759,255.563 18.696,243.579 Q20.136,234.671 23.329,233.765 Q25.966,233.017 37.356,237.537 Q74.327,252.209 121.314,263.121 Q122.26,263.34 122.623,263.923 Q122.986,264.505 122.766,265.451 Q122.327,267.342 120.436,266.903 Q73.165,255.925 35.924,241.146 Q25.758,237.112 24.389,237.5 Q23.575,237.731 22.529,244.199 Q21.116,252.94 19.015,260.635 Q19.53,260.905 19.845,261.542 Q20.356,262.574 19.567,263.936 Q18.831,265.206 17.226,266.94 Q15.813,269.644 14.12,274.229 Q2.933,304.517 2.805,363.356 Q2.8,365.297 0.859,365.293 Q-0.112,365.291 -0.596,364.804 Q-1.08,364.318 -1.078,363.347 Z"/>
</svg>

