<svg xmlns="http://www.w3.org/2000/svg" width="384" height="384" viewBox="0 0 384 384">
  <defs/>
  <path fill="rgb(95.686275%, 99.607843%, 98.431373%)" opacity="0.014" d="M270.541,126.294 Q290.171,124.198 299.569,119.354 Q304.849,116.632 304.916,114.713 Q304.961,113.415 302.236,111.668 Q298.177,109.067 293.137,109.394 Q286.289,109.84 285.844,102.992 Q285.621,99.569 287.222,97.745 Q288.822,95.922 292.246,95.699 Q301.787,95.079 309.642,100.114 Q318.949,106.08 318.632,115.191 Q317.941,135.034 271.998,139.94 Q265.175,140.669 264.446,133.846 Q264.082,130.434 265.606,128.546 Q267.129,126.658 270.541,126.294 Z"/>
  <path fill="rgb(67.843137%, 85.490196%, 100%)" d="M299.07,-21.708 Q297.84,-4.065 296.84,22.449 Q295.95,46.045 294.852,53.52 Q292.983,66.248 286.971,70.444 Q280.931,74.66 268.474,71.88 Q261.183,70.252 239.104,62.68 Q211.385,53.173 192.181,47.404 Q188.821,46.395 189.084,42.896 Q190.776,20.366 150.87,10.681 Q126.126,4.676 66.492,2.038 Q53.658,1.471 47.793,1.145 Q43.433,0.902 43.676,-3.457 Q43.797,-5.637 44.947,-6.666 Q46.098,-7.695 48.277,-7.574 Q54.093,-7.251 66.878,-6.686 Q127.36,-4.01 152.929,2.195 Q197.197,12.939 197.883,40.007 Q216.314,45.632 241.937,54.42 Q263.558,61.835 270.376,63.357 Q279.084,65.3 281.973,63.283 Q284.892,61.246 286.213,52.251 Q287.242,45.244 288.114,22.12 Q289.119,-4.533 290.359,-22.316 Q290.663,-26.671 295.019,-26.367 Q297.197,-26.215 298.209,-25.051 Q299.222,-23.886 299.07,-21.708 Z"/>
  <path fill="rgb(17.254902%, 100%, 70.588235%)" opacity="0.075" d="M209.443,410.175 Q211.486,402.271 211.297,394.47 Q211.159,388.771 214.104,386.567 Q216.516,384.762 230.154,379.513 Q247.594,372.802 261.921,366.857 Q263.552,366.18 264.229,367.812 Q264.567,368.627 264.329,369.204 Q264.09,369.781 263.274,370.119 Q248.907,376.081 231.422,382.809 Q218.241,387.882 216.22,389.394 Q214.734,390.506 214.828,394.385 Q215.029,402.678 212.862,411.059 Q212.42,412.769 210.71,412.327 Q209.856,412.106 209.539,411.568 Q209.222,411.03 209.443,410.175 Z"/>
  <path fill="rgb(98.039216%, 97.254902%, 0%)" d="M214.221,309.487 Q221.737,320.247 229.863,328.902 Q229.477,327.892 229.218,326.717 Q228.751,324.6 228.458,320.105 Q228.395,319.147 228.34,318.103 Q228.304,318.01 228.268,317.925 Q228.132,317.84 227.997,317.762 Q219.395,312.845 224.312,304.243 Q225.849,301.554 227.942,300.271 Q227.927,294.247 228.018,287.046 Q228.144,277.139 238.051,277.264 Q247.959,277.39 247.833,287.297 Q247.665,300.576 247.862,309.557 Q248.926,310.899 249.961,312.391 Q263.185,331.458 300.995,361.705 Q305.631,361.68 308.323,362.384 Q310.518,362.958 312.197,364.143 Q318.064,368.287 316.203,375.136 Q314.65,380.853 308.261,382.68 Q299.465,385.195 283.427,382.001 Q233.791,372.114 197.975,320.834 Q192.301,312.711 200.424,307.037 Q204.486,304.2 207.935,304.813 Q211.384,305.425 214.221,309.487 Z M235.391,334.478 Q247.055,345.604 259.918,352.603 Q249.645,343.027 242.388,334.725 Q240.798,335.107 238.839,335.051 Q236.937,334.997 235.391,334.478 Z"/>
  <path fill="rgb(99.215686%, 0%, 14.509804%)" opacity="0.623" d="M231.961,289.636 Q240.914,293.257 243.799,298.557 Q244.769,300.338 245.074,302.167 Q249.516,300.207 254.613,298.024 Q258.846,296.211 260.66,300.445 Q262.473,304.679 258.239,306.492 Q247.628,311.036 240.009,314.538 Q235.436,319.233 227.108,323.213 Q222.637,325.349 220.093,325.746 Q218.708,325.962 217.567,325.651 Q215.773,325.162 214.78,323.629 Q213.579,321.775 214.229,319.639 Q214.809,317.735 217.351,315.968 Q221.831,312.854 234.417,306.988 Q234.97,306.287 235.376,305.581 Q236.28,304.009 235.709,302.961 Q234.401,300.559 228.508,298.176 Q224.238,296.449 225.965,292.18 Q227.691,287.91 231.961,289.636 Z"/>
</svg>

