<svg xmlns="http://www.w3.org/2000/svg" width="384" height="384" viewBox="0 0 384 384">
  <defs/>
  <path fill="rgb(20.784314%, 5.490196%, 26.666667%)" opacity="0.953" d="M179.547,217.311 Q180.122,198.892 179.019,195.989 Q177.913,193.077 179.318,177.984 Q179.635,174.579 183.04,174.896 Q186.444,175.213 186.128,178.618 Q184.87,192.131 185.413,193.56 Q187.001,197.74 186.383,217.525 Q186.276,220.943 182.858,220.836 Q179.44,220.729 179.547,217.311 Z"/>
  <path fill="rgb(98.431373%, 79.607843%, 0%)" opacity="0.594" d="M68.6,63.877 Q61.465,89.362 67.717,111.18 Q70.649,121.412 78.41,134.245 Q81.889,129.185 88.952,131.719 Q97.877,134.921 94.676,143.846 Q91.873,151.661 88.67,157.009 Q88.645,157.278 88.603,157.536 Q87.24,165.922 76.649,168.194 Q73.083,169.532 69.714,168.999 Q68.878,169.03 68.005,169.037 Q61.465,169.089 59.093,162.993 Q58.725,162.049 58.398,161.242 Q54.918,156.682 54.954,152.165 Q54.977,149.225 56.628,146.817 Q58.691,143.807 61.506,142.929 Q52.968,128.558 49.486,116.404 Q41.754,89.422 50.337,58.764 Q51.616,54.198 54.538,52.554 Q57.46,50.911 62.025,52.189 Q71.157,54.745 68.6,63.877 Z"/>
  <path fill="rgb(58.823529%, 23.529412%, 0%)" opacity="0.944" d="M46.605,96.577 Q52.48,95.025 58.195,99.992 Q60.734,102.199 64.906,107.683 Q66.048,109.185 66.889,110.216 Q68.416,104.531 69.735,87.333 Q70.136,82.099 75.37,82.501 Q80.604,82.902 80.202,88.136 Q78.07,115.945 72.687,120.709 Q67.678,125.142 61.898,120.216 Q60.054,118.645 56.55,114.039 Q50.704,106.353 49.286,106.727 Q44.211,108.068 42.87,102.993 Q41.53,97.918 46.605,96.577 Z"/>
  <path fill="rgb(85.882353%, 55.686275%, 0%)" d="M34.008,59.989 Q33.168,62.117 32.606,63.752 Q41.406,74.456 52.8,87.658 Q61.599,96.447 69.505,106.805 Q73.801,112.435 68.172,116.731 Q62.93,120.732 58.566,115.788 Q50.39,106.527 43.199,98.21 Q41.79,98.639 40.507,98.399 Q38.046,97.939 36.044,95.018 Q32.919,90.456 29.972,86.195 Q29.181,85.563 28.385,84.943 Q19.557,78.071 17.996,73.006 Q17.372,70.98 17.459,68.331 Q14.793,64.582 12.324,61.164 Q5.919,53.048 1.413,46.752 Q-0.582,43.965 -0.628,41.694 Q-0.738,36.196 4.559,34.723 Q7.303,33.96 9.816,35.31 Q10.642,35.754 11.34,36.408 Q11.636,36.685 11.952,37.045 Q12.242,37.375 12.693,37.938 Q14.601,40.318 18.621,45.766 Q20.661,48.53 22.857,51.56 Q25.501,49.013 30.024,50.8 Q36.61,53.402 34.008,59.989 Z"/>
  <path fill="rgb(92.156863%, 54.509804%, 0%)" d="M245.041,94.038 Q245.185,95.465 245.191,96.771 Q255.696,94.102 259.967,95.433 Q263.326,96.48 264.762,99.542 Q266.471,103.185 264.687,106.262 Q267.871,111.66 262.959,115.675 Q261.156,117.149 258.808,117.333 Q257.817,117.411 256.716,117.23 Q255.77,117.075 254.438,116.681 Q252.208,116.023 249.763,115.108 Q245.049,114.15 238.491,113.517 Q234.807,113.161 233.072,110.385 Q230.612,110.42 227.71,109.763 Q222.876,108.668 215.298,105.06 Q193.575,96.742 172.092,79.257 Q166.908,75.038 170.604,69.469 Q172.641,66.4 175.194,65.884 Q177.747,65.368 180.816,67.405 Q193.515,75.834 203.325,81.754 Q203.691,81.001 204.229,80.215 Q206.309,77.175 208.869,76.695 Q211.429,76.215 214.469,78.295 Q223.902,84.75 231.885,89.576 Q233.548,87.793 236.972,87.448 Q244.302,86.709 245.041,94.038 Z"/>
  <path fill="rgb(7.843137%, 24.705882%, 13.333333%)" opacity="0.123" d="M215.604,360.897 Q215.888,351.555 223.957,345.191 Q224.123,342.206 226.424,340.003 Q241.969,325.115 255.795,323.038 Q262.811,321.984 268.243,324.479 Q274.374,327.295 276.533,333.394 Q280.719,345.223 268.469,355.453 Q262.29,360.612 253.202,363.534 Q250.786,366.146 246.691,368.075 Q241.402,370.566 235.042,371.325 Q227.307,372.248 223.731,369.16 Q223.554,369.159 223.374,369.154 Q215.361,368.91 215.604,360.897 Z"/>
  <path fill="rgb(100%, 6.666667%, 0%)" d="M301.287,164.518 Q309.863,158.679 321.402,163.814 Q337.081,170.791 363.596,201.899 Q369.971,209.377 362.492,215.752 Q358.753,218.94 355.289,218.664 Q351.826,218.388 348.638,214.648 Q325.016,186.935 313.412,181.771 Q312.504,181.367 311.857,181.194 Q305.7,186.791 299.164,183.285 Q294.834,180.963 293.83,177.637 Q292.826,174.311 295.148,169.981 Q297.64,165.334 301.287,164.518 Z"/>
  <path fill="rgb(77.647059%, 77.647059%, 0%)" opacity="0.637" d="M293.261,182.389 Q296.667,177.59 303.435,180.089 Q325.021,188.059 335.831,198.705 Q349.075,211.75 343.843,225.164 Q334.367,249.457 274.771,245.876 Q265.626,245.326 266.175,236.181 Q266.336,233.504 267.234,231.657 Q266.967,231.7 266.698,231.727 Q263.102,232.092 260.217,229.937 Q257.225,227.703 256.622,224.006 Q255.265,215.679 274.175,197.993 Q274.637,197.561 275.154,197.196 Q275.46,196.981 275.762,196.786 Q279.473,191.976 283.856,186.127 Q286.603,182.461 289.81,182.002 Q291.473,181.764 293.261,182.389 Z M309.591,226.28 Q312.462,225.744 315.028,225.039 Q325.328,222.209 326.772,218.505 Q327.619,216.335 322.973,211.759 Q317.614,206.481 307.817,201.775 Q307.556,210.075 309.01,221.016 Q309.427,224.153 309.591,226.28 Z M275.87,227.585 Q281.139,227.902 285.952,227.965 Q283.551,224.776 280.39,220.404 Q279.419,221.574 278.526,222.624 Q275.841,225.782 274.074,227.575 Q274.926,227.529 275.87,227.585 Z"/>
  <path fill="rgb(49.411765%, 40%, 0%)" opacity="0.91" d="M87.278,227.075 Q122.364,216.098 144.298,180.479 Q146.653,176.656 148.346,173.485 Q150.337,167.877 151.606,165.194 Q152.313,163.698 152.902,163.29 Q153.503,162.873 154.222,162.942 Q155.331,163.049 155.807,164.061 Q156.05,164.58 155.985,165.2 Q155.948,165.55 155.788,166.088 Q154.699,169.75 151.904,175.031 Q151.861,175.153 151.817,175.276 Q151.608,175.87 151.274,176.202 Q149.678,179.123 147.594,182.508 Q124.901,219.359 88.433,230.769 Q87.51,231.058 86.904,230.74 Q86.298,230.423 86.009,229.5 Q85.431,227.653 87.278,227.075 Z"/>
  <path fill="rgb(16.862745%, 52.156863%, 1.568627%)" opacity="0.766" d="M313.485,209.108 Q322.139,229.244 328.388,239.621 Q329.221,237.753 330.091,236.453 Q333.102,231.952 336.558,233.68 Q341.75,236.277 341.638,246.556 Q341.589,251.062 339.502,252.678 Q336.663,254.877 332.55,250.942 Q331.042,249.499 329.335,247.212 Q328.822,248.995 328.318,251.062 Q328.115,251.895 327.597,252.21 Q327.079,252.525 326.246,252.322 Q324.581,251.916 324.987,250.25 Q325.897,246.519 326.861,243.619 Q319.979,232.902 310.335,210.462 Q309.997,209.675 310.221,209.112 Q310.446,208.549 311.233,208.21 Q312.808,207.533 313.485,209.108 Z M330.644,243.166 Q332.977,246.605 334.92,248.465 Q336.899,250.358 337.402,249.968 Q338.179,249.366 338.21,246.519 Q338.298,238.384 335.024,236.747 Q334.271,236.37 332.94,238.36 Q331.772,240.106 330.644,243.166 Z"/>
  <path fill="rgb(35.686275%, 37.647059%, 25.882353%)" opacity="0.134" d="M248.216,310.938 Q265.519,323.557 278.571,343.55 Q279.556,345.059 280.288,346.131 Q284.193,340.895 294.315,324.391 Q296.083,321.509 297.019,319.984 Q300.594,314.163 306.415,317.738 Q312.235,321.313 308.66,327.134 Q307.713,328.677 305.961,331.533 Q290.732,356.364 286.178,359.588 Q279.478,364.332 273.3,359.02 Q271.143,357.165 267.131,351.018 Q255.447,333.12 240.167,321.976 Q234.648,317.951 238.673,312.432 Q242.697,306.913 248.216,310.938 Z"/>
  <path fill="rgb(4.705882%, 0%, 0%)" d="M304.609,96.937 Q316.748,124.477 322.303,144.407 Q330.649,144.442 340.598,144.943 Q345.322,145.181 348.494,148.69 Q351.666,152.198 351.428,156.922 Q351.19,161.646 347.681,164.818 Q344.173,167.99 339.449,167.752 Q339.13,167.736 338.822,167.721 Q341.286,169.375 342.655,172.247 Q344.69,176.516 343.111,180.974 Q341.442,185.684 336.849,187.654 Q330.541,190.36 322.062,190.303 Q321.263,191.276 320.334,192.099 Q314.44,197.32 307.357,196.756 Q303.46,199.961 301.079,201.196 Q291.199,206.32 283.467,199.283 Q276.159,192.633 273.076,163.845 Q272.239,156.026 279.244,152.455 Q279.604,152.272 279.965,152.115 Q283.118,149.537 288,147.909 Q292.439,146.428 299.031,145.573 Q293.777,128.983 283.712,106.149 Q281.804,101.821 283.515,97.411 Q285.227,93.002 289.555,91.094 Q293.882,89.187 298.292,90.898 Q302.701,92.609 304.609,96.937 Z"/>
  <path fill="rgb(90.196078%, 47.843137%, 1.960784%)" d="M37.365,161.807 Q33.847,157.455 30.654,153.975 Q18.47,147.965 13.66,142.401 Q12.011,140.494 11.514,138.66 Q10.876,136.306 11.917,134.211 Q13.229,131.569 16.171,130.964 Q19.542,130.27 24.594,133.532 Q26.175,134.553 27.836,135.831 Q27.917,135.795 28.001,135.759 Q33.203,133.518 35.444,138.72 Q36.523,141.223 39.079,144.069 Q42.385,140.041 46.684,143.052 Q53.631,147.92 58.482,151.709 Q60.174,152.802 61.778,153.736 Q69.592,156.014 78.36,157.924 Q79.141,155.688 80.009,154.132 Q83.671,147.574 89.226,150.085 Q93.776,152.141 93.061,158.069 Q92.639,161.573 90.347,164.564 Q88.966,166.367 87.251,167.629 Q85.661,170.848 81.555,170.154 Q77.493,171.029 72.293,170.06 Q70.883,169.797 69.405,169.387 Q67.914,171.854 64.216,172.052 Q61.483,172.199 56.877,170.207 Q50.795,167.576 44.472,163.274 Q40.575,165.779 37.365,161.807 Z"/>
  <path fill="rgb(66.666667%, 72.941176%, 19.215686%)" d="M245.733,245.957 Q285.186,221.355 327.418,217.632 Q326.24,216.566 324.841,215.307 Q313.836,205.409 303.821,195.898 Q285.499,201.237 274.402,200.538 Q266.88,200.064 262.627,196.741 Q257.239,192.532 258.044,185.852 Q259.211,176.166 271.229,170.481 Q283.24,164.8 295.556,169.328 Q296.986,169.854 298.064,170.93 Q302.657,175.515 307.504,180.2 Q307.942,180.054 308.384,179.905 Q316.602,163.997 329.753,162.758 Q341.562,161.645 350.895,171.996 Q360.17,182.283 357.272,191.798 Q355.236,198.484 348.03,200.191 Q342.446,201.513 334.304,199.015 Q330.986,197.998 329.836,195.829 Q328.685,193.661 329.703,190.343 Q331.739,183.707 338.376,185.742 Q342.083,186.88 344.041,186.785 Q343.743,184.797 340.584,181.293 Q335.921,176.122 331.055,176.58 Q324.809,177.169 319.684,188.411 Q319.14,189.603 318.29,190.459 Q325.926,197.61 334.125,204.984 Q346.904,216.478 347.796,220.377 Q348.87,225.066 345.286,228.2 Q343.502,229.76 340.677,230.376 Q338.744,230.797 333.112,231.132 Q291.807,233.588 253.079,257.738 Q250.134,259.575 247.743,259.02 Q245.352,258.466 243.516,255.521 Q239.843,249.63 245.733,245.957 Z M292.18,184.646 Q290.792,183.28 289.425,181.921 Q283.253,180.152 277.165,183.032 Q273.533,184.75 272.367,186.298 Q273.44,186.566 275.275,186.682 Q281.789,187.092 292.18,184.646 Z"/>
  <path fill="rgb(59.607843%, 73.333333%, 18.431373%)" opacity="0.937" d="M351.034,229.974 Q349.677,228.717 348.364,227.529 Q349.345,233.728 349.418,240.441 Q349.478,245.871 344.048,245.93 Q338.618,245.989 338.558,240.559 Q338.407,226.665 333.778,215.381 Q318.374,203.969 312.883,207.607 Q308.874,210.263 305.499,208.493 Q302.9,207.13 301.128,202.36 Q300.256,200.011 301.477,197.823 Q305.083,191.361 306.676,185.556 Q295.384,178.87 277.829,172.047 Q275.015,170.954 273.669,170.422 Q272.423,169.929 271.548,168.914 Q268.006,164.798 272.121,161.256 Q282.492,152.328 293.296,151.347 Q304.348,150.344 311.628,157.619 Q318.838,164.826 318.797,176.913 Q318.791,178.606 318.637,180.332 Q322.023,182.682 324.756,185.04 Q336.583,195.241 342.739,208.645 Q349.919,214.143 358.411,222.003 Q362.397,225.692 358.708,229.677 Q355.019,233.662 351.034,229.974 Z M307.75,173.701 Q307.074,168.423 303.95,165.301 Q300.267,161.62 294.278,162.163 Q290.819,162.478 287.271,164.123 Q298.89,168.895 307.75,173.701 Z M321.164,196.516 Q319.493,194.843 317.662,193.263 Q316.891,192.598 316.056,191.931 Q315.376,193.887 314.528,195.88 Q317.671,195.619 321.164,196.516 Z"/>
  <path fill="rgb(21.960784%, 21.960784%, 8.235294%)" opacity="0.848" d="M183.654,231.885 Q187.683,231.926 196.074,224.285 Q205.068,216.096 208.063,208.348 Q211.144,200.377 204.598,197.576 Q194.929,193.438 168.328,199.335 Q166.267,199.792 165.81,197.73 Q165.581,196.7 165.982,196.07 Q166.384,195.441 167.414,195.212 Q195.342,189.022 206.259,193.694 Q216.552,198.098 212.002,209.87 Q208.648,218.547 198.917,227.407 Q189.299,236.165 183.611,236.107 Q182.556,236.097 182.033,235.564 Q181.511,235.03 181.522,233.975 Q181.543,231.864 183.654,231.885 Z"/>
  <path fill="rgb(72.156863%, 58.823529%, 0%)" d="M236.06,201.724 Q246.203,189.577 264.307,186.764 Q279.606,184.387 290.104,189.104 Q295.396,191.481 296.226,195.001 Q297.212,199.186 291.859,202.501 Q281.387,208.985 248.532,211.153 Q246.442,211.291 246.304,209.2 Q246.166,207.11 248.257,206.972 Q280.069,204.873 289.653,198.939 Q292.442,197.211 292.148,195.963 Q291.792,194.456 288.387,192.926 Q279.022,188.718 264.95,190.905 Q248.407,193.475 239.276,204.409 Q238.605,205.213 237.867,205.28 Q237.129,205.346 236.325,204.674 Q234.717,203.332 236.06,201.724 Z"/>
  <path fill="rgb(94.509804%, 78.431373%, 40.392157%)" opacity="0.441" d="M263.964,380.8 Q273.631,382.255 289.521,385.73 Q290.938,383.957 293.786,384.781 Q297.063,385.729 303.064,387.465 Q323.943,393.503 326.069,394.182 Q326.562,394.339 326.831,394.441 Q327.217,394.587 327.528,394.764 Q328.852,395.516 329.391,396.927 Q330.565,399.998 327.864,401.872 Q327.025,402.454 326.009,402.587 Q325.184,402.695 323.578,402.33 Q322.404,402.063 317.475,400.859 Q279.865,391.673 262.716,389.091 Q258.57,388.467 259.194,384.321 Q259.818,380.175 263.964,380.8 Z"/>
  <path fill="rgb(99.215686%, 51.372549%, 0%)" opacity="0.988" d="M67.044,106.388 Q66.826,106.31 66.607,106.216 Q63.547,104.908 62.64,101.208 Q61.345,95.922 64.395,72.592 Q65.151,66.816 70.927,67.571 Q73.815,67.949 75.071,69.582 Q76.326,71.215 75.948,74.103 Q74.65,84.036 74.131,90.004 Q77.358,90.101 79.022,93.648 Q80.328,96.43 78.673,106.977 Q77.771,112.732 72.015,111.83 Q69.138,111.378 67.924,109.714 Q66.98,108.418 67.044,106.388 Z"/>
  <path fill="rgb(66.27451%, 70.980392%, 21.960784%)" d="M257.849,274.747 Q273.576,240.668 288.155,226.89 Q299.582,216.091 309.309,218.086 Q326.847,213.921 330.576,207.981 Q331.1,207.146 330.664,206.582 Q329.171,204.651 324.409,203.412 Q310.583,199.813 290.692,206.629 Q265.664,215.204 243.926,237.5 Q242.166,239.305 240.384,239.327 Q238.602,239.35 236.797,237.59 Q233.188,234.071 236.707,230.461 Q260.122,206.445 287.424,197.091 Q310.186,189.291 326.949,193.655 Q335.043,195.761 338.641,200.416 Q343.381,206.547 339.115,213.341 Q334.551,220.612 320.101,225.445 Q320.642,226.269 321.102,227.172 Q324.873,228.16 328.149,228.507 Q329.192,227.848 330.221,227.294 Q334.521,224.98 337.927,224.91 Q340.261,224.861 341.986,225.885 Q345.204,227.795 344.846,231.442 Q344.107,238.976 331.035,238.774 Q326.978,241.89 322.5,247.09 Q320.532,252.593 315.338,255.592 Q313.155,256.853 311.433,256.392 Q309.711,255.93 308.451,253.748 Q306.807,250.902 308.748,248.25 Q311.057,245.094 313.317,242.354 Q313.748,240.391 313.553,237.728 Q313.459,236.444 313.244,235.322 Q307.169,233.284 300.289,230.042 Q297.875,231.577 295.08,234.218 Q281.916,246.659 267.003,278.972 Q264.891,283.549 260.313,281.437 Q255.736,279.324 257.849,274.747 Z"/>
  <path fill="rgb(12.54902%, 16.470588%, 23.137255%)" opacity="0.149" d="M286.991,275.323 Q297.883,273.883 311.358,272.002 Q318.629,270.986 324.488,275.41 Q330.347,279.833 331.362,287.104 Q332.272,293.627 328.702,299.162 Q325.132,304.697 318.814,306.557 Q294.844,313.614 292.146,329.238 Q293.951,337.202 293.822,341.87 Q293.742,344.784 292.958,347.35 Q289.398,359.007 277.397,360.096 Q266.227,361.109 260.731,352.214 Q253.067,357.577 243.301,363.002 Q236.883,366.566 229.825,364.549 Q222.766,362.531 219.202,356.114 Q215.637,349.696 217.654,342.637 Q219.672,335.579 226.09,332.014 Q242.325,322.996 249.985,315.55 Q250.463,315.086 250.887,314.648 Q234.83,315.398 228.237,312.787 Q219.974,309.516 216.872,301.713 Q213.283,292.686 218.628,284.147 Q221.884,278.945 229.753,273.928 Q238.669,268.244 261.816,257.418 Q268.466,254.308 275.367,256.811 Q282.268,259.314 285.379,265.964 Q287.539,270.583 286.991,275.323 Z"/>
</svg>

