<svg xmlns="http://www.w3.org/2000/svg" width="384" height="384" viewBox="0 0 384 384">
  <defs/>
  <path fill="rgb(50.196078%, 100%, 96.078431%)" opacity="0.073" d="M318.077,202.727 Q332.469,192.026 341.161,190.291 Q351.696,188.189 357.802,197.37 Q367.583,212.074 370.213,277.786 Q370.313,280.3 367.8,280.4 Q365.286,280.501 365.186,277.987 Q362.612,213.686 353.613,200.156 Q349.374,193.783 342.146,195.225 Q334.563,196.738 321.079,206.765 Q319.061,208.266 317.56,206.247 Q316.809,205.238 316.938,204.358 Q317.068,203.478 318.077,202.727 Z"/>
  <path fill="rgb(0%, 44.313725%, 100%)" d="M217.379,207.65 Q235.202,218.93 242.577,224.563 Q254.35,233.557 261.418,243.519 Q268.415,253.38 273.737,268.371 Q277.493,278.953 283.562,301.749 Q285.834,310.284 281.406,317.925 Q276.978,325.567 268.443,327.839 Q259.908,330.112 252.266,325.683 Q244.624,321.255 242.352,312.72 Q232.817,276.906 226.638,268.196 Q221.205,260.54 194.574,243.686 Q187.111,238.963 185.173,230.346 Q183.236,221.729 187.959,214.265 Q192.682,206.802 201.299,204.865 Q209.916,202.927 217.379,207.65 Z"/>
  <path fill="rgb(79.215686%, 97.647059%, 99.607843%)" opacity="0.012" d="M149.327,165.217 Q169.538,205.444 181.993,219.208 Q187.647,225.457 191.663,226.428 Q194.66,227.153 197.208,224.342 Q203.283,217.64 208.058,191.387 Q210.513,177.889 214.575,145.133 Q210.156,156.512 206.793,161.084 Q203.546,165.499 200.043,165.352 Q196.315,165.195 193.965,160.237 Q190.493,152.91 187.925,126.226 Q181.763,124.8 176.549,122.539 Q161.173,115.874 162.449,107.519 Q163.179,102.744 169.011,102.106 Q173.641,101.599 180.402,104.336 Q183.314,105.515 186.375,107.171 Q185.525,94.9 184.801,79.933 Q184.654,76.886 187.7,76.738 Q189.224,76.665 190.022,77.39 Q190.821,78.114 190.894,79.638 Q191.747,97.267 192.749,111.026 Q199.689,115.648 207.327,122.493 Q213.268,122.693 219.874,122.345 Q220.136,122.331 220.395,122.362 Q221.91,122.542 222.577,123.389 Q223.244,124.236 223.064,125.751 L222.775,128.182 Q217.165,175.404 214.06,192.479 Q208.973,220.446 201.729,228.439 Q196.747,233.935 190.229,232.358 Q184.385,230.944 177.469,223.301 Q164.458,208.923 143.876,167.955 Q142.507,165.23 145.232,163.86 Q147.958,162.491 149.327,165.217 Z M194.128,127.414 Q196.466,151.269 199.478,157.624 Q199.996,158.718 200.444,159.189 Q200.82,158.909 201.879,157.47 Q205.787,152.155 211.754,135.137 Q208.231,131.587 204.864,128.492 Q199.216,128.199 194.128,127.414 Z M187.344,119.803 Q187.126,117.238 186.915,114.523 Q182.32,111.694 178.113,109.991 Q172.776,107.831 169.674,108.17 Q168.501,108.298 168.48,108.441 Q168.331,109.413 170.295,111.431 Q173.238,114.455 178.975,116.942 Q182.855,118.624 187.344,119.803 Z M196.934,121.658 Q195.122,120.207 193.361,118.903 Q193.455,120.038 193.551,121.142 Q195.207,121.429 196.934,121.658 Z M216.29,131.047 Q216.436,129.822 216.583,128.589 Q215.219,128.632 213.882,128.651 Q215.078,129.823 216.29,131.047 Z M200.318,159.255 L200.299,159.257 Q200.308,159.257 200.318,159.255 Z"/>
  <path fill="rgb(87.843137%, 14.117647%, 0%)" opacity="0.948" d="M307.063,248.678 Q305.216,243.85 301.971,242.745 Q298.981,241.728 294.695,243.704 Q285.327,248.023 277.33,260.772 Q269.189,273.75 270.872,282.649 Q272.667,292.143 287.592,291.28 Q288.51,291.227 289.229,291.801 Q293.962,295.585 291.871,300.059 Q290.351,303.312 284.855,306.086 Q275.401,310.859 259.497,312.977 Q243.205,315.147 235.038,312.409 Q229.473,310.544 229.009,306.405 Q228.551,302.321 233.832,297.307 Q235.572,295.654 237.225,297.394 Q238.877,299.135 237.137,300.787 Q233.587,304.158 233.779,305.87 Q233.902,306.966 236.564,307.858 Q243.675,310.242 258.863,308.219 Q273.963,306.209 282.692,301.802 Q286.705,299.775 287.523,298.026 Q287.913,297.191 286.868,296.12 Q268.666,296.818 266.155,283.541 Q264.124,272.793 273.264,258.221 Q282.02,244.262 292.686,239.345 Q298.713,236.566 303.518,238.202 Q308.895,240.032 311.546,246.963 Q312.404,249.204 310.162,250.062 Q307.921,250.919 307.063,248.678 Z"/>
  <path fill="rgb(82.352941%, 52.54902%, 34.117647%)" opacity="0.247" d="M50.021,264.157 Q14.058,254.714 -9.345,250.709 Q-10.28,253.538 -12.485,256.245 Q-15.88,260.412 -22.044,262.362 Q-29.866,264.837 -65.143,266.649 Q-66.677,266.727 -68.191,266.478 Q-74.023,265.519 -77.469,260.716 Q-80.914,255.914 -79.955,250.082 Q-75.211,221.25 -42.133,219.361 Q-14.274,217.771 57.268,236.554 Q62.985,238.055 65.966,243.159 Q68.947,248.262 67.446,253.979 Q65.945,259.696 60.841,262.677 Q55.738,265.657 50.021,264.157 Z"/>
  <path fill="rgb(28.627451%, 100%, 50.588235%)" opacity="0.671" d="M95.996,114.85 Q113.663,115.131 125.279,116.466 Q127.355,114.793 129.752,113.107 Q135.172,109.296 141.699,110.434 Q148.226,111.571 152.037,116.991 Q155.848,122.41 154.711,128.937 Q154.489,130.212 154.104,131.383 Q154.89,133.729 155.027,136.445 Q155.67,149.235 142.516,154.29 Q137.208,156.33 131.434,156.097 Q120.567,155.66 115.189,147.576 Q107.161,147.022 95.489,146.837 Q88.864,146.732 84.254,141.973 Q79.644,137.215 79.749,130.59 Q79.854,123.965 84.613,119.355 Q89.371,114.745 95.996,114.85 Z"/>
  <path fill="rgb(17.647059%, 32.941176%, 96.862745%)" opacity="0.294" d="M26.016,54.666 Q36.559,49.068 45.699,42.433 Q40.888,35.985 37.422,30.085 Q25.45,9.707 17.651,-19.326 Q-4.098,-7.309 -11.332,5.777 Q-15.532,13.374 -15.282,25.129 Q-15.134,32.111 -16.797,34.558 Q-19.388,38.372 -27.893,38.554 Q-28.75,38.572 -29.188,38.153 Q-29.625,37.733 -29.644,36.876 Q-29.68,35.163 -27.966,35.126 Q-21.23,34.982 -19.633,32.631 Q-18.585,31.089 -18.71,25.202 Q-18.979,12.523 -14.332,4.118 Q-6.296,-10.42 17.941,-23.387 Q18.121,-23.483 18.318,-23.534 Q19.147,-23.75 19.67,-23.443 Q20.193,-23.137 20.409,-22.307 Q28.214,7.643 40.378,28.348 Q43.752,34.091 48.45,40.388 Q63.256,29.121 74.203,15 Q75.717,13.047 76.219,12.502 Q76.752,11.923 77.193,11.675 Q78.784,10.783 79.765,12.238 Q80.411,13.197 79.379,19.487 Q75.094,45.601 73.598,77.991 Q74.148,82.803 73.18,88.29 Q72.922,89.753 71.437,89.706 Q70.581,89.678 70.166,89.236 Q69.751,88.794 69.779,87.937 Q69.938,82.965 70.159,78.131 Q69.676,74.234 68.065,70.883 Q65.813,66.196 57.396,56.706 Q52.101,50.737 47.776,45.162 Q38.416,51.963 27.624,57.694 Q26.867,58.096 26.288,57.918 Q25.708,57.741 25.306,56.984 Q24.904,56.227 25.082,55.647 Q25.259,55.068 26.016,54.666 Z M50.527,43.116 Q54.765,48.573 59.961,54.431 Q67.924,63.409 70.672,68.457 Q72.308,41.404 75.995,18.932 Q76.067,18.495 76.131,18.099 Q65.164,31.978 50.527,43.116 Z"/>
  <path fill="rgb(0%, 100%, 55.294118%)" opacity="0.97" d="M356.847,297.06 Q353.265,294.186 355.745,289.371 Q358.73,283.577 364.524,286.562 Q394.509,302.008 402.589,309.001 Q408.267,313.916 408.352,319.463 Q413.938,323.252 416.721,326.765 Q425.316,337.616 413.692,350.385 Q415.828,361.467 415.813,370.015 Q415.805,374.626 415.085,377.423 Q414.473,379.797 413.198,381.328 Q409.673,385.561 404.74,383.313 Q396.021,379.337 393.896,329.111 Q393.556,327.423 393.657,325.675 Q380.458,318.698 355.269,309.92 Q349.115,307.775 351.26,301.621 Q352.892,296.937 356.847,297.06 Z M407.286,336.091 Q407.322,336.722 407.358,337.35 Q407.39,337.276 407.414,337.209 Q407.578,336.756 407.286,336.091 Z"/>
  <path fill="rgb(10.588235%, 0%, 0%)" d="M277.456,324.328 Q267.82,352.742 247.591,367.376 Q247.317,367.574 247.041,367.769 Q253.509,374.255 251.843,379.794 Q248.013,392.53 204.449,405.236 Q203.607,405.481 202.915,404.942 Q190.938,395.604 185.326,391.912 Q185.038,391.723 184.871,391.519 Q183.788,390.194 185.111,389.108 Q185.821,388.526 186.699,388.794 Q186.839,388.837 186.969,388.902 Q187.011,388.923 187.052,388.947 Q187.069,388.957 187.093,388.971 Q187.109,388.98 187.148,389.004 Q194.475,393.439 202.307,395.269 Q215.857,398.435 222.483,390.529 Q211.277,384.944 210.272,382.798 Q209.583,381.328 210.547,380.061 Q211.125,379.301 212.405,378.72 Q213.673,378.144 217.91,376.978 Q231.792,373.159 241.424,367.344 Q239.887,366.125 238.029,364.84 Q236.619,363.864 237.594,362.454 Q238.569,361.045 239.979,362.02 Q242.465,363.739 244.444,365.4 Q245.021,365.003 245.581,364.598 Q264.925,350.605 274.209,323.227 Q274.759,321.603 276.383,322.154 Q278.006,322.704 277.456,324.328 Z M244.152,369.69 Q233.843,376.151 218.819,380.284 Q214.864,381.372 213.833,381.837 Q215.809,383.471 225.841,388.362 Q226.612,388.737 226.809,389.31 Q227.006,389.883 226.631,390.654 Q226.58,390.758 226.515,390.855 Q224.38,394.05 221.56,396.081 Q246.068,387.091 248.56,378.806 Q249.719,374.953 244.152,369.69 Z M211.291,399.573 Q206.858,399.853 201.527,398.608 Q200.63,398.398 199.74,398.157 Q201.902,399.809 204.33,401.698 Q207.958,400.631 211.291,399.573 Z"/>
  <path fill="rgb(83.137255%, 100%, 91.764706%)" opacity="0.029" d="M50.4,310.148 Q25.476,313.906 19.63,317.956 Q20.374,318.169 21.505,318.38 Q28.54,319.695 45.117,319.227 Q46.272,319.194 47.046,320.053 Q59.307,333.669 58.285,345.102 Q57.199,357.256 41.307,364.607 Q42.992,366.672 43.354,370.001 Q43.929,375.293 40.565,379.646 Q36.76,384.57 29.659,385.439 Q27.177,385.743 26.873,383.261 Q26.721,382.02 27.266,381.323 Q27.811,380.627 29.052,380.475 Q34.08,379.86 36.608,376.588 Q38.739,373.83 38.382,370.541 Q38.077,367.734 36.259,366.903 Q36.119,366.839 35.974,366.789 Q33.012,367.863 29.66,368.809 Q28.456,369.149 27.685,368.717 Q26.914,368.285 26.574,367.082 Q26.091,365.371 27.548,364.353 Q31.847,361.348 35.529,361.625 Q52.363,355.187 53.304,344.656 Q54.102,335.727 44.09,324.257 Q27.887,324.66 20.586,323.296 Q16.6,322.551 15.007,321.125 Q13.629,319.891 13.676,318.203 Q13.717,316.76 14.86,315.502 Q20.184,309.646 49.655,305.203 Q52.127,304.83 52.5,307.303 Q52.686,308.539 52.161,309.251 Q51.636,309.962 50.4,310.148 Z"/>
  <path fill="rgb(61.568627%, 59.215686%, 41.568627%)" opacity="0.535" d="M84.88,63.523 Q66.143,-17.563 66.311,-22.344 Q66.616,-31.009 75.281,-30.705 Q79.614,-30.552 81.704,-28.31 Q83.795,-26.067 83.642,-21.734 Q83.554,-19.24 101.777,59.618 Q103.729,68.066 95.28,70.019 Q86.832,71.971 84.88,63.523 Z"/>
  <path fill="rgb(14.117647%, 0%, 6.27451%)" opacity="0.847" d="M300.826,118.203 Q300.947,118.972 301.081,119.804 Q302.359,127.743 303.547,132.988 Q304.978,135.659 306.612,139.368 Q306.867,139.946 306.685,140.552 Q306.097,142.509 304.527,142.514 Q303.209,142.519 302.372,140.947 Q301.632,139.554 300.738,135.992 Q300.521,135.127 300.301,134.173 Q298.632,131.115 297.366,129.822 Q296.378,128.811 295.91,128.94 Q295.104,129.161 294.097,131.462 Q287.944,145.524 286.786,221.194 Q305.406,267.135 296.114,272.02 Q286.28,277.191 246.63,231.744 Q245.503,230.452 246.795,229.325 Q248.087,228.198 249.214,229.49 Q287.082,272.895 294.519,268.985 Q301.092,265.529 283.478,222.161 Q283.347,221.838 283.352,221.49 Q284.512,144.814 290.956,130.087 Q292.618,126.288 295.002,125.634 Q296.876,125.119 298.742,126.482 Q298.226,123.641 297.696,120.349 Q296.245,111.336 296.182,108.785 Q296.171,108.325 296.231,108.032 Q296.404,107.183 297.141,106.796 Q298.474,106.095 299.37,107.333 Q299.67,107.747 299.973,108.965 Q300.485,111.017 301.498,116.435 Q301.736,117.713 300.826,118.203 Z"/>
  <path fill="rgb(20%, 35.686275%, 16.862745%)" opacity="0.314" d="M64.022,235.994 Q34.129,177.122 20.489,153.806 Q19.568,152.231 19.389,151.799 Q18.678,150.085 19.13,148.691 Q11.034,117.687 4.685,79.376 Q3.317,71.12 2.491,66.918 Q0.023,72.893 -5.344,86.422 Q-14.575,109.69 -21.421,125.936 Q-22.28,127.973 -23.728,128.563 Q-25.176,129.152 -27.213,128.294 Q-31.288,126.577 -29.571,122.502 Q-22.762,106.342 -13.565,83.161 Q-7.502,67.879 -5.448,63.348 Q-1.634,54.935 1.792,53.798 Q5.996,52.403 8.531,56.607 Q9.545,58.29 10.382,61.594 Q11.309,65.249 13.41,77.931 Q20.024,117.839 28.534,149.658 Q28.615,149.963 28.659,150.259 Q42.473,174.02 71.908,231.99 Q72.909,233.962 72.424,235.448 Q71.938,236.934 69.967,237.935 Q66.024,239.937 64.022,235.994 Z"/>
  <path fill="rgb(0%, 40.392157%, 100%)" opacity="0.765" d="M170.2,7.521 Q166.489,39.401 157.702,58.051 Q147.765,79.141 135.975,74.314 Q124.915,69.786 129.761,47.607 Q130.929,42.263 132.903,36.492 Q126.361,12.392 124.389,-38.523 Q124.111,-45.696 131.285,-45.974 Q134.871,-46.113 136.734,-44.389 Q138.597,-42.665 138.736,-39.079 Q139.991,-6.691 142.913,13.778 Q146.325,7.309 150.523,0.424 Q152.972,-3.595 156.45,-3.373 Q157.631,-6.407 158.765,-9.411 Q159.547,-11.481 159.794,-12.105 Q160.045,-12.738 160.225,-13.125 Q160.472,-13.655 160.755,-14.099 Q164.462,-19.926 170.42,-16.518 Q175.15,-13.812 173.037,-4.894 Q171.437,1.858 170.2,7.521 Z"/>
  <path fill="rgb(95.294118%, 100%, 98.431373%)" opacity="0.053" d="M-15.881,41.966 Q21.126,32.966 30.818,23.51 Q32.413,21.954 34.093,22.346 Q36.451,22.895 36.505,25.744 Q36.638,32.665 45.569,44.312 Q46.61,41.972 48.148,40.066 Q52.781,34.322 60.383,34.569 Q61.892,34.619 62.621,35.397 Q63.351,36.176 63.302,37.684 Q63.204,40.701 60.187,40.602 Q52.16,40.341 50.06,49.823 Q50.755,50.632 51.486,51.46 Q52.495,52.604 52.173,54.094 Q51.477,57.315 50.556,58.753 Q49.549,60.326 47.953,60.58 Q45.755,60.929 44.488,58.947 Q43.015,56.643 43.643,51.568 Q33.735,39.537 31.278,30.895 Q18.535,39.809 -14.455,47.831 Q-17.387,48.544 -18.101,45.612 Q-18.814,42.679 -15.881,41.966 Z"/>
  <path fill="rgb(43.529412%, 97.647059%, 27.843137%)" opacity="0.369" d="M233.565,154.746 Q236.5,147.405 242.214,133.525 Q252.157,109.373 254.285,102.67 Q254.803,101.038 255.109,99.895 Q254.482,100.106 253.808,100.309 Q252.845,100.6 252.122,99.901 Q251.505,99.306 251.495,98.7 Q251.484,98.094 252.079,97.477 Q253.918,95.572 255.112,94.954 Q256.077,94.455 256.935,94.595 Q257.55,94.695 257.984,95.045 Q259.812,94.057 259.897,93.142 Q260.049,91.511 254.535,88.453 Q247.332,84.459 218.899,74.541 Q222.857,87.036 203.686,108.388 Q203.113,109.025 202.508,109.058 Q201.903,109.09 201.265,108.518 Q199.989,107.372 201.135,106.097 Q219.624,85.506 215.375,74.861 Q214.989,73.895 214.413,72.985 Q212.481,72.319 210.459,71.627 Q188.211,64.015 176.039,59.584 Q174.428,58.997 175.014,57.386 Q175.467,56.143 176.785,56.266 Q208.225,59.208 216.561,70.1 Q248.316,81.084 256.198,85.455 Q263.67,89.599 263.311,93.46 Q263.054,96.221 258.828,98.371 Q258.605,100.393 257.553,103.707 Q255.381,110.547 245.384,134.831 Q239.676,148.698 236.748,156.019 Q236.112,157.611 234.52,156.975 Q233.724,156.656 233.485,156.099 Q233.246,155.542 233.565,154.746 Z M207.345,66.935 Q202.179,64.171 193.984,62.315 Q200.074,64.439 207.345,66.935 Z"/>
  <path fill="rgb(39.607843%, 0%, 1.568627%)" d="M235.591,182.454 Q229.567,188.943 220.134,198.89 Q209.781,209.808 206.283,214.048 Q208.791,213.927 213.371,213.519 Q243.49,210.831 270.455,214.15 Q273.788,210.518 275.745,206.09 Q276.152,205.169 276.376,204.79 Q276.897,203.904 277.671,203.374 Q280.359,201.53 282.692,203.804 Q283.74,204.826 284.329,208.175 Q285.292,213.655 286.62,219.036 Q286.819,219.845 286.669,220.664 Q286.32,222.571 285.191,223.349 Q284.063,224.128 282.157,223.778 Q277.715,222.964 273.177,222.329 Q254.377,238.905 209.05,238.49 Q207.112,238.472 206.152,237.494 Q205.191,236.516 205.209,234.578 Q205.245,230.701 209.121,230.736 Q244.383,231.059 261.731,221.024 Q239.041,219.013 214.06,221.242 Q205.907,221.969 203.428,221.822 Q200.729,221.662 199.161,220.65 Q196.264,218.78 196.859,215.287 Q197.508,211.481 214.508,193.555 Q223.911,183.638 229.909,177.178 Q231.228,175.758 232.598,175.707 Q233.967,175.656 235.388,176.975 Q238.229,179.613 235.591,182.454 Z"/>
  <path fill="rgb(67.058824%, 55.294118%, 47.843137%)" opacity="0.254" d="M189.334,96.28 Q178.268,85.512 167.902,72.461 Q167.824,92.153 165.943,110.784 Q165.717,113.023 164.484,114.03 Q163.252,115.036 161.013,114.81 Q157.348,114.44 156.986,110.775 Q156.802,108.916 156.467,105.489 Q154.977,90.279 154.038,84.42 Q152.498,86.301 150.067,89.478 Q135.326,108.741 121.378,121.808 Q118.093,124.885 115.016,121.601 Q113.478,119.958 113.529,118.368 Q113.581,116.777 115.224,115.239 Q128.629,102.68 142.918,84.008 Q148.045,77.308 149.932,75.515 Q152.082,73.473 154.156,73.004 Q156.864,72.393 158.892,73.899 Q158.905,72.104 158.903,70.3 Q158.892,59.466 161.881,57.743 Q165.502,55.655 169.181,59.644 Q170.139,60.683 172.83,64.158 Q183.826,78.36 195.612,89.829 Q198.837,92.968 195.698,96.194 Q194.129,97.807 192.538,97.828 Q190.946,97.85 189.334,96.28 Z"/>
  <path fill="rgb(100%, 79.215686%, 100%)" opacity="0.439" d="M-3.571,99.907 Q11.516,89.784 31.147,76.153 Q47.331,64.914 48.966,65.256 Q50.129,65.499 50.544,66.6 Q50.797,67.272 50.597,68.008 Q50.456,68.529 50.019,69.187 Q49.465,70.023 48.078,71.634 Q46.358,73.633 40.048,80.495 Q32.647,88.544 27.81,93.906 Q23.53,102.797 15.334,117.421 Q6.536,133.12 4.227,139.526 Q0.727,149.236 3.359,156.019 Q9.129,170.893 54.082,187.505 Q54.019,115.837 68.899,73.653 Q74.843,56.803 83.909,42.43 Q89.27,33.93 100.106,20.312 Q117.477,-1.517 122.507,-16.948 Q123.135,-18.875 125.062,-18.247 Q126.025,-17.933 126.35,-17.294 Q126.675,-16.656 126.36,-15.692 Q121.104,0.434 103.278,22.836 Q92.58,36.28 87.337,44.592 Q78.514,58.58 72.722,75.001 Q57.775,117.375 58.144,190.396 Q58.146,190.756 58.023,191.095 Q57.335,193.001 55.429,192.312 Q6.19,174.523 -0.42,157.485 Q-3.6,149.288 0.414,138.152 Q2.836,131.431 11.799,115.439 Q20.054,100.709 24.282,91.89 Q24.408,91.626 24.604,91.409 Q29.5,85.978 37.065,77.751 Q38.093,76.634 38.997,75.647 Q36.619,77.288 33.459,79.482 Q13.802,93.132 -1.312,103.273 Q-2.154,103.837 -2.857,103.699 Q-3.56,103.56 -4.124,102.719 Q-4.689,101.878 -4.55,101.175 Q-4.412,100.472 -3.571,99.907 Z"/>
  <path fill="rgb(0%, 100%, 25.098039%)" opacity="0.964" d="M242.167,336.385 Q242.298,337.07 242.428,337.753 Q242.99,336.379 243.701,335.298 Q246.732,330.69 252.023,330.878 Q257.574,331.075 265.25,337.027 Q267.113,338.473 265.668,340.336 Q264.945,341.267 264.118,341.372 Q263.291,341.476 262.36,340.754 Q255.886,335.733 251.856,335.59 Q249.214,335.497 247.64,337.89 Q245.293,341.458 245.045,350.318 Q245.02,351.206 244.995,351.48 Q244.924,352.254 244.547,352.796 Q243.861,353.783 242.663,353.815 Q241.567,353.844 240.831,353.025 Q240.51,352.666 240.336,352.184 Q240.174,351.733 239.614,348.571 Q238.564,342.647 237.536,337.271 Q237.093,334.955 239.409,334.512 Q241.725,334.07 242.167,336.385 Z"/>
  <path fill="rgb(26.27451%, 31.372549%, 12.941176%)" opacity="0.445" d="M371.015,62.856 Q366.354,52.765 358.686,35.721 Q349.698,15.741 344.972,6.597 Q343.275,12.041 336.953,10.967 Q333.366,10.357 331.877,8.259 Q330.389,6.161 330.998,2.574 Q332.833,-8.219 336.384,-11.855 Q340.751,-16.325 346.483,-14.104 Q349.567,-12.909 352.357,-9.368 Q357.027,-3.44 371.958,29.75 Q379.597,46.729 384.227,56.753 Q387.278,63.359 380.673,66.411 Q377.37,67.936 374.955,67.048 Q372.541,66.159 371.015,62.856 Z"/>
  <path fill="rgb(40.392157%, 49.019608%, 28.627451%)" opacity="0.445" d="M26.134,107.102 Q36.323,104.418 51.404,102.078 Q53.43,101.764 55.204,101.457 Q55.576,100.869 56.316,100.342 Q56.333,100.33 56.388,100.291 Q62.927,95.59 69.323,96.675 Q69.96,96.033 70.474,95.27 Q65.816,82.602 64.936,73.999 Q63.385,58.84 68.02,31.444 Q68.404,29.175 70.685,28.87 Q72.232,28.664 73.109,29.335 Q73.986,30.005 74.192,31.552 Q81.035,82.879 77.984,93.652 Q77.686,94.704 77.297,95.671 Q77.567,96.371 77.849,97.084 Q79.952,102.41 81.682,107.274 Q84.7,113.253 86.495,122.541 Q87.045,125.391 84.243,126.147 Q81.229,126.96 80.416,123.946 Q78.622,117.299 75.791,109.343 Q73.503,105.109 70.535,103.584 Q69.687,104.08 68.753,104.496 Q64.598,106.349 52.362,108.248 Q37.601,110.538 27.725,113.14 Q24.706,113.935 23.911,110.916 Q23.513,109.407 24.069,108.453 Q24.625,107.5 26.134,107.102 Z M72.746,81.843 Q72.638,72.963 71.054,57.698 Q70.477,66.813 71.147,73.364 Q71.532,77.132 72.746,81.843 Z"/>
  <path fill="rgb(0.392157%, 52.941176%, 100%)" opacity="0.599" d="M374.749,101.601 Q417.111,79.741 418.228,61.155 Q418.77,52.157 408.408,36.549 Q408.425,40.549 407.985,44.23 Q406.762,54.483 400.386,55.508 Q393.234,56.657 391.496,48.793 Q391.026,46.664 391.038,43.326 Q391.054,38.717 394.01,37.069 Q394.063,26.266 389.852,11.909 Q388.552,7.478 392.038,4.448 Q394.756,2.086 397.295,2.264 Q399.835,2.442 402.197,5.159 Q417.716,23.015 424.293,34.043 Q433.371,49.262 432.604,62.019 Q430.994,88.782 381.353,114.399 Q374.954,117.701 371.652,111.302 Q368.35,104.903 374.749,101.601 Z"/>
  <path fill="rgb(21.176471%, 55.686275%, 100%)" opacity="0.996" d="M267.007,365.885 Q240.713,399.523 199.615,406.822 Q183.891,409.614 168.865,407.874 Q155.495,406.326 147.41,401.937 Q144.13,400.156 145.911,396.875 Q146.802,395.235 148.067,394.86 Q149.332,394.486 150.972,395.376 Q157.788,399.076 169.723,400.458 Q183.663,402.073 198.309,399.471 Q236.592,392.673 261.126,361.287 Q263.424,358.347 266.365,360.645 Q269.306,362.944 267.007,365.885 Z"/>
  <path fill="rgb(0%, 43.529412%, 100%)" d="M332.192,230.882 Q331.052,247.567 322.866,254.818 Q314.879,261.893 300.376,260.093 Q284.042,258.066 232.21,234.673 Q203.765,221.835 187.491,215.02 Q182.264,212.831 184.453,207.604 Q185.548,204.991 187.401,204.231 Q189.255,203.472 191.869,204.566 Q208.286,211.442 236.872,224.344 Q287.14,247.031 301.772,248.846 Q311.196,250.016 315.352,246.334 Q320.062,242.162 320.886,230.11 Q321.272,224.457 326.925,224.843 Q332.579,225.229 332.192,230.882 Z"/>
  <path fill="rgb(17.254902%, 46.27451%, 100%)" opacity="0.314" d="M101.481,196.98 Q111.653,219.677 125.689,241.572 Q126.395,239.614 126.991,237.53 Q127.719,234.986 130.263,235.714 Q132.04,236.222 132.174,238.065 Q132.44,241.7 139.368,243.338 Q148.056,245.394 159.458,241.751 Q191.03,231.663 209.934,190.367 Q211.035,187.961 213.441,189.063 Q215.848,190.164 214.746,192.57 Q194.868,235.993 161.069,246.792 Q148.268,250.882 138.149,248.489 Q132.932,247.255 130.127,244.839 Q129.701,245.943 129.244,247.01 Q135.082,255.775 141.545,264.41 Q146.816,271.452 148.127,273.74 Q151.178,279.063 147.829,281.397 Q144.958,283.398 123.138,279.646 Q109.244,277.256 95.343,275.203 Q90.033,276.427 84.026,276.83 Q62.352,278.286 15.597,266.151 Q13.449,265.594 13.624,263.382 Q13.727,262.063 14.439,261.456 Q15.15,260.848 16.469,260.952 Q55.782,264.047 95.03,269.807 Q114.474,264.897 123.188,247.444 Q107.687,223.768 96.652,199.145 Q95.569,196.73 97.984,195.648 Q99.192,195.107 100.066,195.44 Q100.94,195.773 101.481,196.98 Z M126.544,252.482 Q119.261,265.382 106.211,271.503 Q115.125,272.897 124.035,274.43 Q140.555,277.271 143.974,277.192 Q143.802,276.837 143.535,276.372 Q142.385,274.365 137.308,267.582 Q131.694,260.081 126.544,252.482 Z"/>
  <path fill="rgb(15.294118%, 58.823529%, 100%)" opacity="0.686" d="M199.242,139.111 Q223.674,170.501 251.429,217.942 Q255.476,224.859 248.559,228.905 Q241.641,232.952 237.595,226.035 Q205.377,170.967 178.015,138.321 Q169.857,128.588 168.876,123.896 Q167.794,118.717 172.221,108.255 Q174.109,103.792 175.256,100.862 Q176.103,98.695 177.979,97.32 Q184.44,92.579 189.181,99.041 Q199.914,113.673 203.674,121.56 Q205.788,125.993 206.01,129.138 Q206.586,137.31 199.242,139.111 Z"/>
  <path fill="rgb(56.078431%, 67.45098%, 48.627451%)" opacity="0.258" d="M-4.344,340.912 Q-5.048,344.213 -7.768,345.285 Q-11.924,346.923 -14.357,342.836 Q-15.401,341.083 -15.995,337.654 Q-17.302,330.117 -15.805,322.814 Q-15.494,321.3 -15.074,319.915 Q-19.601,316.77 -21.41,312.482 Q-22.016,311.045 -21.692,309.519 Q-21.176,307.089 -19.703,306.132 Q-18.23,305.175 -15.8,305.69 Q-10.188,306.882 -5.069,307.484 Q-3.919,306.936 -2.688,306.554 Q-2.45,305.911 -2.033,305.223 Q0.545,300.975 4.792,303.553 Q7.029,304.91 8.877,306.229 Q11.205,306.68 13.711,307.496 Q16.233,307.132 18.571,306.546 Q22.953,304.22 25.428,303.689 Q29.363,302.845 31.248,305.999 Q33.701,310.107 29.495,312.982 Q28.092,313.941 25.396,314.875 Q23.833,315.417 22.201,315.865 Q20.628,316.748 18.662,317.94 Q18.169,318.239 17.666,318.42 Q17.463,322.712 13.019,324.808 Q10.323,326.079 6.213,326.155 Q0.187,326.267 -5.952,324.264 Q-6.013,324.533 -6.07,324.811 Q-7.164,330.144 -6.249,335.692 Q-5.298,336.21 -4.781,337.009 Q-3.825,338.483 -4.344,340.912 Z"/>
  <path fill="rgb(78.823529%, 10.588235%, 0.392157%)" d="M351.383,208.569 Q355.215,207.518 357.508,209.225 Q359.624,210.8 359.862,214.274 Q360.25,219.931 356.155,228.142 Q352.014,236.446 346.472,240.852 Q339.937,246.047 334.517,243.04 Q328.9,245.031 320.219,239.386 Q321.072,240.61 321.63,241.412 Q322.609,242.819 321.202,243.798 Q320.521,244.272 319.727,244.032 Q294.448,236.391 270.411,242.301 Q251.126,247.043 236.589,259.09 Q224.366,269.22 223.343,276.459 Q223.063,278.435 224.433,278.781 Q226.967,279.422 232.695,276.843 Q233.476,276.491 234.043,276.706 Q234.61,276.921 234.962,277.702 Q235.666,279.265 234.102,279.969 Q227.286,283.039 223.592,282.105 Q219.237,281.004 219.948,275.979 Q221.156,267.427 234.401,256.451 Q249.543,243.901 269.593,238.972 Q292.332,233.381 316.091,239.458 Q312.214,233.883 311.814,233.089 Q311.075,231.626 312.135,230.705 Q313.176,229.802 314.497,230.69 Q314.878,230.947 316.172,232.043 Q328.296,242.322 333.916,239.58 Q334.81,239.145 335.632,239.703 Q339.284,242.186 344.338,238.168 Q349.285,234.235 353.087,226.612 Q356.766,219.235 356.442,214.509 Q356.311,212.608 355.461,211.976 Q354.509,211.267 352.289,211.876 Q351.463,212.103 350.936,211.803 Q350.409,211.503 350.183,210.676 Q349.729,209.023 351.383,208.569 Z"/>
  <path fill="rgb(7.058824%, 7.058824%, 0.784314%)" opacity="0.721" d="M56.204,309.024 Q74.694,308.341 107.154,309.868 Q133.6,311.113 143.221,310.312 Q148.51,309.872 149.13,315.144 Q150.184,324.105 147.463,334.979 Q144.741,345.862 139.533,353.476 Q132.957,363.088 124.592,363.837 Q114.766,364.717 106.761,353.144 Q104.924,350.489 106.351,347.593 Q108.094,344.054 111.944,339.92 Q100.794,339.513 71.071,339.831 Q68.325,339.861 66.937,338.503 Q65.55,337.144 65.52,334.399 Q65.461,328.907 70.953,328.848 Q112.048,328.408 119.088,329.43 Q122.26,329.89 124.055,330.893 Q128.305,333.269 127.521,337.835 Q127.046,340.605 122.613,344.774 Q119.699,347.514 117.984,349.709 Q121.049,353.127 123.613,352.897 Q126.817,352.61 130.467,347.274 Q134.564,341.286 136.808,332.314 Q138.259,326.514 138.421,321.542 Q127.488,321.821 106.638,320.84 Q74.639,319.334 56.609,320 Q51.121,320.202 50.918,314.714 Q50.817,311.97 52.138,310.548 Q53.46,309.125 56.204,309.024 Z"/>
  <path fill="rgb(23.529412%, 89.803922%, 27.843137%)" opacity="0.879" d="M279.698,92.988 Q280.392,89.711 280.729,87.178 Q280.107,86.217 279.66,85.164 Q277.7,80.548 279.678,77.359 Q280.44,76.13 281.68,75.66 Q283.535,74.957 285.156,76.149 Q286.743,77.316 287.184,80.126 Q287.297,80.846 287.344,81.68 Q287.606,73.129 286.2,57.738 Q283.72,30.591 284.999,16.95 Q287.239,-6.959 299.897,-20.419 Q300.983,-21.574 302.104,-21.608 Q303.224,-21.643 304.38,-20.556 Q306.69,-18.384 304.517,-16.074 Q293.351,-4.2 291.314,17.541 Q290.09,30.599 292.517,57.161 Q294.873,82.96 292.531,91.21 Q292.462,91.454 292.355,91.684 Q291.014,94.558 288.14,93.218 Q287.178,92.769 286.313,92.27 Q286.125,93.256 285.903,94.301 Q285.247,97.404 282.144,96.747 Q280.593,96.419 279.981,95.479 Q279.37,94.539 279.698,92.988 Z"/>
  <path fill="rgb(69.411765%, 7.843137%, 0%)" d="M125.579,211.199 Q146.713,217.946 164.357,221.266 Q184.947,211.018 220.894,200.756 Q225.505,199.44 229.886,201.388 Q246.385,208.725 252.341,218.983 Q262.429,214.334 274.086,209.343 Q279.115,207.189 284.194,209.223 Q289.273,211.256 291.427,216.285 Q293.58,221.314 291.547,226.393 Q289.514,231.472 284.484,233.626 Q264.387,242.232 249.247,249.714 Q244.2,252.209 242.035,252.638 Q234.243,254.185 229.171,248.196 Q225.386,243.724 225.982,238.485 Q225.947,238.566 225.911,238.649 Q223.742,243.586 218.419,246.48 Q207.779,252.263 183.336,250.44 Q180.351,250.218 177.264,249.885 Q171.5,257.979 162.795,261.982 Q155.653,265.266 149.275,264.033 Q143.31,262.881 139.78,258.263 Q135.692,252.914 137,246.106 Q137.356,244.252 138.216,242.397 Q128.255,239.783 117.546,236.364 Q112.334,234.7 109.825,229.838 Q107.316,224.976 108.98,219.764 Q110.644,214.553 115.506,212.044 Q120.368,209.535 125.579,211.199 Z M227.068,229.908 Q227.488,231.913 227.228,234.029 Q227.786,232.807 228.742,231.349 Q228.745,231.344 228.749,231.338 Q228.644,231.234 228.526,231.123 Q227.887,230.52 227.068,229.908 Z"/>
  <path fill="rgb(9.019608%, 100%, 79.607843%)" opacity="0.604" d="M166.955,405.62 Q156.297,414.007 127.897,424.442 Q119.096,427.676 115.238,419.13 Q110.414,408.444 106.517,398.151 Q105.089,394.38 104.523,392.589 Q104.298,391.878 104.174,391.333 Q103.831,389.831 103.928,388.341 Q104.06,386.317 104.962,384.503 Q107.684,379.026 113.798,378.91 Q118.698,378.817 121.806,382.619 Q122.829,383.872 123.771,386.146 Q124.469,387.832 124.735,389.338 Q125.016,390.097 125.364,391.016 Q125.464,391.281 125.563,391.542 Q154.419,373.778 168.554,369.326 Q177.603,366.476 183.07,368.931 Q189.209,371.688 189.955,378.322 Q190.38,382.109 188.471,386.037 Q184.421,394.366 171.327,402.937 Q169.129,404.376 166.955,405.62 Z"/>
  <path fill="rgb(63.921569%, 56.078431%, 79.215686%)" opacity="0.452" d="M294.722,43.831 Q294.824,44.803 294.888,45.816 Q296.036,64.03 277.847,76.68 Q254.902,92.637 202.903,96.94 Q201.96,97.018 201.088,96.65 Q197.548,95.152 199.046,91.611 Q208.289,69.767 221.835,35.918 Q234.786,3.556 239.501,-6.027 Q247.261,-21.799 254.295,-23.566 Q262.149,-25.54 271.173,-12.865 Q276.298,-5.665 290.527,19.958 Q292.15,22.88 292.985,24.382 Q294.853,27.742 291.493,29.61 Q290.795,29.998 290.161,30.16 Q292.975,34.192 294.151,40.04 Q295.246,41.542 295.054,42.857 Q294.981,43.357 294.722,43.831 Z M286.892,43.151 Q281.871,36.274 280.244,32.504 Q278.912,29.415 279.914,27.409 Q281.425,24.384 284.703,25.307 Q284.24,24.472 283.806,23.691 Q269.785,-1.557 264.909,-8.406 Q258.931,-16.804 256.169,-16.11 Q252.588,-15.21 246.399,-2.632 Q241.814,6.686 228.973,38.775 Q217.166,68.278 208.613,88.699 Q253.584,84.189 273.458,70.368 Q288.091,60.192 287.215,46.3 Q287.11,44.643 286.892,43.151 Z"/>
  <path fill="rgb(23.137255%, 31.764706%, 29.803922%)" opacity="0.566" d="M182.679,360.101 Q171.783,325.287 161.708,306.492 Q159.924,303.164 160.09,301.596 Q160.384,298.823 163.017,297.936 Q164.14,297.558 165.391,297.793 Q165.93,297.895 167.019,298.275 Q173.028,300.376 179.897,299.115 Q184.012,298.36 184.768,302.475 Q185.523,306.59 181.408,307.346 Q176.453,308.255 171.782,307.818 Q180.965,326.606 190.665,357.602 Q191.29,359.599 190.604,360.909 Q189.918,362.22 187.922,362.845 Q183.928,364.094 182.679,360.101 Z"/>
  <path fill="rgb(70.980392%, 4.705882%, 0%)" opacity="0.988" d="M248.893,255.872 Q259.822,255.577 262.14,275.481 Q263.867,290.31 260.832,310.241 Q257.872,329.684 253.539,334.476 Q251.349,336.899 248.785,335.828 Q246.862,335.025 245.751,332.093 Q244.063,327.642 243.38,316.464 Q243.216,313.79 245.891,313.626 Q248.566,313.462 248.73,316.137 Q249.308,325.59 250.522,329.491 Q253.221,324.621 255.533,309.435 Q258.46,290.215 256.816,276.101 Q255.065,261.067 249.037,261.23 Q246.358,261.302 246.286,258.623 Q246.214,255.944 248.893,255.872 Z"/>
  <path fill="rgb(12.54902%, 55.686275%, 100%)" opacity="0.658" d="M118.718,280.263 Q114.925,264.964 108.418,239.071 Q104.368,222.952 101.398,210.893 Q95.255,197.104 88.597,170.904 Q88.455,170.92 88.315,170.936 Q83.535,171.494 79.574,172.478 Q79.169,172.579 78.801,172.677 Q78.034,172.963 77.413,173.171 Q76.891,173.345 76.542,173.438 Q76.268,173.512 76.041,173.55 Q75.673,173.612 75.314,173.603 Q74.598,173.587 73.944,173.304 Q71.347,172.181 71.788,169.387 Q72.064,167.641 75.189,166.324 Q75.01,166.335 74.835,166.364 Q74.718,166.384 74.656,166.4 Q74.793,166.364 75.105,166.259 Q76.099,165.927 77.638,165.314 Q82.308,163.454 88.921,160.236 Q89.862,159.778 90.664,159.722 Q90.292,155.468 90.6,152.941 Q91.268,147.459 94.913,145.681 Q98.132,144.111 103.053,146.056 Q107.287,147.729 119.617,156.03 Q119.424,124.736 117.045,78.845 Q116.951,77.026 117.813,76.069 Q118.676,75.112 120.495,75.018 Q124.133,74.829 124.322,78.468 Q126.901,128.223 126.918,161.002 Q137.7,168.316 147.026,174.143 Q156.233,178.622 165.249,184.896 Q167.935,186.766 166.364,189.636 Q165.489,191.234 164.252,191.596 Q163.016,191.957 161.418,191.082 Q153.252,186.611 143.557,180.566 Q135.259,176.563 126.811,174.114 Q126.624,184.497 126.114,192.732 Q125.101,209.061 122.785,216.967 Q119.956,226.628 114.047,226.198 Q113.349,226.147 112.643,225.903 Q114.001,231.391 115.485,237.295 Q121.99,263.182 125.79,278.51 Q126.667,282.046 123.131,282.923 Q121.363,283.361 120.259,282.696 Q119.156,282.032 118.718,280.263 Z M108.593,209.306 Q112.189,217.813 114.149,218.802 Q114.984,217.68 115.793,214.919 Q117.879,207.795 118.841,192.281 Q119.384,183.533 119.555,172.304 Q109.829,170.267 99.906,170.26 Q102.577,184.242 108.593,209.306 Z M98.622,162.977 Q109.239,162.847 119.626,164.87 L119.626,164.849 Q119.425,164.711 119.228,164.576 Q104.456,154.445 100.375,152.832 Q98.701,152.171 98.226,152.204 Q97.967,152.716 97.833,153.823 Q97.549,156.152 98.622,162.977 Z M98.148,152.215 Q98.125,152.222 98.107,152.231 L98.148,152.215 Z"/>
  <path fill="rgb(20.392157%, 38.431373%, 7.843137%)" opacity="0.319" d="M14.43,260.74 Q20.736,287.227 19.884,303.75 Q21.136,303.775 22.501,304.307 Q25.292,305.394 26.398,308.181 Q26.533,308.521 26.635,308.885 Q26.733,309.235 27.571,312.913 Q34.867,344.925 46.154,392.443 Q47.742,399.131 41.054,400.72 Q37.709,401.514 35.64,400.239 Q33.57,398.964 32.776,395.62 Q22.853,353.842 16.007,324.019 Q15.035,323.927 14.031,323.689 Q12.487,325.727 10.544,327.208 Q2.786,333.123 -5.105,328.637 Q-10,325.853 -10.087,320.88 Q-10.179,315.672 -5.695,313.431 Q-0.51,306.906 5.819,306.67 Q5.931,305.745 6.016,304.738 Q7.262,289.996 1.054,263.924 Q-0.538,257.236 6.15,255.644 Q9.494,254.848 11.564,256.122 Q13.634,257.396 14.43,260.74 Z"/>
  <path fill="rgb(49.411765%, 41.960784%, 38.823529%)" opacity="0.512" d="M157.441,97.441 Q157.966,97.866 158.914,98.63 Q164.58,103.193 165.322,105.289 Q166.243,107.89 163.316,112.887 Q146.464,141.659 141.671,218.573 Q163.5,196.305 176.464,171.087 Q185.107,154.275 194.969,122.722 Q204.711,91.554 212.984,76.794 Q214.425,74.223 216.996,75.664 Q219.566,77.105 218.125,79.675 Q210.152,93.899 200.594,124.481 Q190.581,156.518 181.705,173.781 Q166.718,202.935 140.326,228.184 Q139.405,229.065 138.133,228.997 Q135.191,228.841 135.347,225.899 Q139.83,141.324 158.23,109.909 Q159.773,107.274 159.767,107.256 Q159.582,106.734 155.218,103.22 Q154.257,102.446 153.731,102.02 Q151.442,100.166 153.296,97.876 Q155.151,95.586 157.441,97.441 Z"/>
  <path fill="rgb(28.627451%, 27.058824%, 31.372549%)" opacity="0.889" d="M358.823,155.465 Q370.604,149.384 374.817,151.986 Q377.68,153.755 377.734,161.128 Q377.782,167.703 379.849,168.777 Q383.163,170.501 392.909,166.593 Q396.284,164.45 399.443,163.738 Q400.778,163.437 401.368,164.672 Q401.737,165.446 401.534,166.017 Q401.332,166.588 400.558,166.957 Q397.341,168.492 394.531,169.613 Q390.004,172.544 384.847,178.531 Q379.537,184.694 368.749,200.696 Q355.922,219.723 346.918,229.226 Q349.274,233.606 349.859,236.914 Q350.766,242.047 347.603,244.684 Q344.954,246.892 339.789,246.821 Q331.047,246.7 318.92,241.099 Q317.037,240.23 315.349,239.358 Q312.466,238.092 309.603,236.012 Q305.062,232.986 302.857,229.934 Q301.974,228.713 303.072,227.681 Q303.697,227.094 304.302,227.112 Q304.908,227.131 305.495,227.756 Q309.048,231.536 312.62,233.889 Q313.878,234.673 315.319,235.463 Q326.286,241.024 337.424,233.183 Q339.818,231.497 342.685,228.666 Q337.792,220.568 326.852,208.61 Q326.274,207.978 326.301,207.372 Q326.328,206.767 326.96,206.188 Q328.225,205.031 329.382,206.296 Q339.959,217.857 345.123,226.145 Q353.673,216.925 365.906,198.78 Q376.807,182.61 382.249,176.293 Q384.148,174.089 385.989,172.261 Q380.964,173.222 378.267,171.819 Q374.368,169.792 374.305,161.153 Q374.265,155.676 373.015,154.903 Q370.453,153.321 360.396,158.512 Q358.872,159.298 358.086,157.775 Q357.3,156.251 358.823,155.465 Z M344.406,231.763 Q341.707,234.36 339.397,235.986 Q333.599,240.068 327.875,241.029 Q334.594,243.32 339.836,243.392 Q343.733,243.446 345.408,242.05 Q347.044,240.686 346.482,237.511 Q346.042,235.018 344.406,231.763 Z"/>
  <path fill="rgb(0%, 100%, 32.54902%)" d="M291.79,62.334 Q291.843,64.007 291.877,65.439 Q292.574,66.923 293.146,68.904 Q295.458,76.903 299.65,100.472 Q300.87,107.329 294.013,108.549 Q290.584,109.159 288.565,107.749 Q286.546,106.34 285.936,102.911 Q283.224,87.665 281.383,79.346 Q280.37,78.663 279.419,77.519 Q276.977,74.579 277.618,67.898 Q277.716,66.869 277.957,65.992 Q277.922,64.533 277.867,62.776 Q277.756,59.295 279.441,57.499 Q281.126,55.704 284.607,55.593 Q291.569,55.372 291.79,62.334 Z"/>
  <path fill="rgb(32.941176%, 26.27451%, 24.313725%)" opacity="0.402" d="M122.013,83.276 Q121.879,82.21 121.626,81.145 Q113.412,73.001 110.044,68.17 Q107.832,64.996 107.915,63.078 Q108.043,60.096 110.974,59.764 Q112.189,59.626 113.6,60.303 Q117.506,62.176 121.846,68.042 Q125.462,72.931 127.024,77.98 Q128.539,79.461 130.216,81.058 Q141.779,81.31 154.004,83.423 Q159.727,84.411 160.113,84.041 Q160.886,83.3 162.418,74.461 Q168.953,36.765 186.146,-10.732 Q187.175,-13.574 190.017,-12.545 Q191.438,-12.031 191.891,-11.063 Q192.344,-10.095 191.83,-8.674 Q174.818,38.322 168.374,75.494 Q166.502,86.288 164.298,88.403 Q161.708,90.888 152.975,89.379 Q140.592,87.239 128.947,87.081 Q127.768,87.065 126.912,86.255 Q126.612,85.972 126.317,85.691 Q125.903,85.832 125.39,85.897 Q123.89,86.086 123.046,85.431 Q122.202,84.776 122.013,83.276 Z"/>
  <path fill="rgb(5.490196%, 12.156863%, 29.411765%)" opacity="0.415" d="M70.473,379.531 Q80.042,365.994 86.02,353.531 Q85.832,352.37 86.27,350.963 Q88.594,343.501 93.114,334.915 Q93.432,333.759 93.715,332.615 Q94.042,325.008 95.048,321.692 Q95.706,319.524 96.936,318.471 Q97.357,317.866 97.835,317.423 Q100.95,314.54 104.307,316.677 Q104.541,316.338 104.779,315.997 Q110.791,307.36 111.411,304.972 L111.593,304.649 Q111.349,304.258 109.662,303.624 Q104.948,301.853 106.719,297.139 Q107.605,294.782 109.227,294.046 Q110.848,293.31 113.205,294.196 Q123.603,298.103 121.16,307.505 Q120.086,311.636 113.045,321.751 Q108.844,327.786 105.56,333.307 Q104.777,335.802 103.641,338.598 Q103.636,339.08 103.634,339.578 Q103.615,343.071 101.186,344.128 Q100.49,345.585 99.714,347.109 Q92.889,365.267 78.698,385.344 Q75.792,389.457 71.679,386.55 Q69.623,385.097 69.322,383.342 Q69.02,381.587 70.473,379.531 Z"/>
  <path fill="rgb(8.235294%, 100%, 1.176471%)" opacity="0.759" d="M46.291,140.022 Q45.39,148.538 35.745,156.658 Q30.363,161.189 16.622,169.415 Q-2.692,180.978 -7.749,187.62 Q-9.787,190.297 -12.464,188.259 Q-13.325,187.603 -13.642,186.567 Q-19.934,166.027 -14.718,149.06 Q-14.681,148.939 -14.646,148.825 Q-16.134,149.006 -18.95,149.388 Q-22.061,149.811 -22.697,146.736 Q-24.539,137.829 -27.532,128.173 Q-29.832,120.751 -28.805,118.054 Q-27.775,115.348 -21.13,111.389 Q-18.069,109.565 -16.124,108.34 Q-13.277,106.548 -11.485,109.396 Q-10.589,110.819 -10.853,111.979 Q-11.117,113.139 -12.54,114.035 Q-14.555,115.303 -17.686,117.169 Q-22.32,119.929 -22.517,120.448 Q-22.718,120.976 -21.105,126.182 Q-18.517,134.533 -16.757,142.364 Q-11.325,141.87 -9.657,142.819 Q-6.34,144.705 -8.287,151.037 Q-12.182,163.705 -8.725,178.925 Q-1.58,172.471 13.166,163.642 Q26.443,155.694 31.412,151.511 Q38.984,145.136 39.6,139.314 Q39.954,135.969 43.299,136.323 Q44.972,136.499 45.72,137.424 Q46.468,138.349 46.291,140.022 Z"/>
  <path fill="rgb(29.019608%, 64.705882%, 100%)" opacity="0.659" d="M4.345,119.769 Q9.112,112.439 13.937,111.349 Q18.806,110.249 22.92,114.989 Q27.002,119.691 32.558,135.763 Q34.965,142.726 36.034,144.987 Q36.557,146.094 36.964,146.687 Q50.575,142.36 60.725,152.17 Q66.634,157.881 75.402,174.902 Q82.231,188.161 86.233,193.128 Q88.076,195.417 90.005,197.075 Q93.502,196.451 95.785,196.877 Q101.056,197.86 102.127,203.649 Q102.193,204.005 102.165,204.365 Q102.059,205.744 101.316,206.381 Q100.573,207.017 99.194,206.911 Q93.603,206.48 88.643,203.025 Q87.008,203.453 85.039,204.108 Q74.924,207.478 32.58,227.373 Q31.128,228.055 29.782,228.688 Q28.53,229.276 27.61,228.944 Q26.689,228.612 26.101,227.36 Q24.925,224.856 27.429,223.679 Q28.444,223.203 30.227,222.365 Q72.866,202.331 83.29,198.858 Q83.518,198.783 83.744,198.709 Q82.821,197.714 81.924,196.6 Q77.57,191.195 70.482,177.436 Q62.132,161.226 56.88,156.149 Q48.81,148.35 37.782,152.249 Q37.702,152.277 37.621,152.301 Q33.876,153.373 31.03,147.351 Q29.834,144.818 27.328,137.571 Q22.121,122.51 18.741,118.616 Q16.797,116.376 15.157,116.747 Q12.525,117.341 8.983,122.786 Q8.229,123.946 7.272,124.148 Q6.315,124.351 5.156,123.597 Q2.836,122.088 4.345,119.769 Z"/>
</svg>

