<svg xmlns="http://www.w3.org/2000/svg" width="384" height="384" viewBox="0 0 384 384">
  <defs/>
  <path fill="rgb(98.823529%, 99.607843%, 98.823529%)" opacity="0.054" d="M56.076,333.036 Q112.866,328.999 150.702,333.771 Q165.551,335.643 169.781,338.212 Q171.851,339.469 172.171,341.367 Q172.611,343.982 170.055,345.503 Q168.018,346.715 162.818,347.27 Q161.239,347.439 160.366,346.734 Q159.492,346.029 159.323,344.451 Q159.122,342.561 160.171,341.682 Q156.156,340.859 149.908,340.071 Q112.692,335.378 56.526,339.37 Q54.942,339.483 54.094,338.747 Q53.246,338.012 53.134,336.428 Q52.909,333.261 56.076,333.036 Z"/>
  <path fill="rgb(96.470588%, 100%, 0%)" opacity="0.346" d="M120.024,47.672 Q124.208,73.677 121.986,90.244 Q120.936,98.077 118.463,102.631 Q114.734,109.497 108.572,109.294 Q107.448,117.994 105.635,127.879 Q104.996,131.363 102.934,132.785 Q100.873,134.207 97.39,133.568 Q90.424,132.29 91.701,125.324 Q94.661,109.192 95.691,96.59 Q94.311,92.774 93.287,87.812 Q90.354,73.588 90.629,53.181 Q89.195,45.425 91.424,38.725 Q93.132,33.592 98.534,33.889 Q105.606,34.278 105.217,41.35 Q104.917,46.795 104.817,51.818 Q105.132,53.137 105.618,54.546 Q106.714,57.723 107.557,60.902 Q106.966,55.686 106.038,49.922 Q105.476,46.425 106.943,44.396 Q108.41,42.366 111.906,41.804 Q118.899,40.679 120.024,47.672 Z"/>
  <path fill="rgb(99.607843%, 100%, 91.764706%)" opacity="0.061" d="M142.141,330.933 Q144.023,339.002 146.996,352.393 Q154.399,385.729 159.255,391.018 Q162.258,394.289 168.287,395.248 Q173.44,396.068 187.062,395.795 Q190.591,395.724 190.662,399.254 Q190.667,399.484 190.641,399.714 Q185.292,447.9 176.589,455.354 Q173.479,458.017 170.086,456.607 Q167.639,455.59 165.955,452.451 Q163.435,447.755 162.885,439.827 Q162.762,438.066 163.582,437.124 Q164.401,436.183 166.162,436.061 Q169.683,435.816 169.928,439.338 Q170.373,445.753 172.176,449.113 Q172.319,449.38 172.431,449.574 Q178.458,443.156 183.171,402.912 Q172.098,403.003 167.178,402.221 Q158.72,400.875 154.054,395.793 Q149.737,391.09 146.541,380.516 Q144.539,373.894 140.104,353.923 Q137.139,340.57 135.265,332.536 Q134.865,330.817 135.524,329.757 Q136.183,328.697 137.902,328.297 Q141.339,327.495 142.141,330.933 Z"/>
  <path fill="rgb(32.156863%, 0%, 15.686275%)" d="M62.444,278.621 Q97.092,242.611 154.114,218.465 Q159.169,216.325 164.256,218.386 Q169.344,220.446 171.484,225.501 Q173.624,230.555 171.563,235.643 Q169.503,240.73 164.448,242.871 Q107.781,266.866 76.194,302.811 Q72.65,306.844 71.094,308.294 Q64.083,314.832 56.122,312.688 Q47.915,310.479 45.285,300.937 Q44.553,298.282 43.719,292.565 Q42.927,287.134 46.207,282.733 Q49.488,278.332 54.919,277.54 Q58.968,276.949 62.444,278.621 Z"/>
  <path fill="rgb(96.470588%, 30.980392%, 0%)" opacity="0.295" d="M204.63,283.365 Q202.104,284.009 199.425,284.565 Q189.419,286.644 169.889,288.514 Q152.773,290.153 150.491,291.182 Q141.285,295.331 132.459,290.427 Q125.177,286.381 122.889,278.371 Q120.601,270.361 124.647,263.08 Q128.246,256.604 127.855,249.562 Q127.514,243.399 128.682,239.34 Q130.906,231.616 137.503,227.251 Q143.095,223.551 150.066,223.633 Q155.7,223.699 172.175,229.786 Q188.701,235.893 203.942,241.083 Q205.244,240.424 206.15,239.726 Q212.299,234.995 197.138,210.719 Q192.725,203.654 194.601,195.538 Q196.477,187.422 203.542,183.009 Q210.608,178.596 218.724,180.472 Q226.84,182.348 231.253,189.414 Q265.735,244.627 230.679,271.602 Q226.838,274.558 222.081,276.985 Q219.671,279.612 216.227,281.346 Q210.564,284.196 204.63,283.365 Z"/>
  <path fill="rgb(98.431373%, 100%, 100%)" opacity="0.061" d="M227.048,77.388 Q226.777,79.235 225.488,79.927 Q223.206,81.151 221.697,78.67 Q220.004,75.886 221.642,73.505 Q223.757,70.431 229.006,73.001 Q233.788,75.343 241.978,82.786 Q242.866,83.594 242.906,84.441 Q242.947,85.289 242.139,86.177 Q240.525,87.953 238.749,86.339 Q231.204,79.481 227.048,77.388 Z"/>
  <path fill="rgb(93.72549%, 98.039216%, 0%)" d="M399.641,133.093 Q386.665,62.615 371.876,30.13 Q355.495,-5.853 332.372,-7.081 Q330.758,-7.166 329.993,-8.016 Q329.229,-8.866 329.315,-10.48 Q329.486,-13.708 332.714,-13.537 Q359.754,-12.101 377.76,27.452 Q392.88,60.661 406,131.923 Q406.585,135.102 403.406,135.687 Q401.816,135.98 400.875,135.331 Q399.934,134.683 399.641,133.093 Z"/>
  <path fill="rgb(100%, 0%, 77.254902%)" d="M104.731,35.834 Q104.623,36.026 104.509,36.185 Q104.015,36.874 103.277,37.217 Q101.188,38.186 99.709,36.421 Q98.824,35.365 99.01,33.454 Q99.476,28.671 101.983,22.642 Q101.716,3.225 106.907,-1.173 Q110.906,-4.562 115.655,-0.625 Q118.738,1.93 121.298,7.218 Q125.514,15.925 125.223,22.734 Q125.636,23.471 126.047,24.26 Q126.732,25.573 126.418,26.571 Q126.104,27.57 124.791,28.254 Q124.383,28.467 124.005,28.584 Q121.921,33.687 116.477,34.499 Q112.988,35.019 108.346,33.486 Q108.131,35.672 105.604,35.848 Q105.132,35.881 104.731,35.834 Z M108.018,27.043 Q112.754,29.066 115.603,28.641 Q117.839,28.308 118.652,26.003 Q118.982,25.066 119.151,24.039 Q115.274,17.565 112.614,18.094 Q110.285,18.557 107.892,23.894 Q107.94,25.414 108.018,27.043 Z M107.95,13.894 Q109.606,12.654 111.459,12.286 Q114.578,11.666 117.607,13.595 Q116.923,11.772 115.968,9.799 Q113.969,5.669 111.876,3.934 Q110.948,3.165 110.735,3.345 Q108.447,5.284 107.95,13.894 Z"/>
  <path fill="rgb(89.019608%, 93.72549%, 89.411765%)" opacity="0.075" d="M292.882,133.549 Q309.148,141.985 312.235,138.206 Q315.414,134.314 318.136,104.243 Q318.249,102.997 318.348,101.905 Q316.175,103.463 313.26,105.059 Q307.794,108.052 301.919,109.901 Q301.152,114.893 299.71,122.512 Q298.781,127.421 298.3,130.059 Q297.874,132.393 295.539,131.968 Q294.372,131.755 293.894,131.065 Q293.417,130.374 293.63,129.207 Q294.114,126.554 295.046,121.63 Q296.139,115.853 296.793,111.279 Q273.143,116.585 261.353,101.343 Q260.627,100.404 260.733,99.572 Q260.84,98.739 261.778,98.013 Q262.012,97.832 262.283,97.714 Q293.078,84.314 299.819,90.953 Q303.339,94.42 302.738,103.252 Q302.695,103.885 302.616,104.659 Q306.92,103.119 310.981,100.896 Q317.333,97.418 319.337,94.554 Q320.128,93.423 321.502,93.551 Q322.683,93.661 323.219,94.307 Q323.754,94.953 323.644,96.134 Q323.364,99.142 322.864,104.671 Q320.01,136.19 315.911,141.209 Q312.393,145.516 305.703,144.077 Q300.864,143.036 290.697,137.763 Q289.643,137.217 289.39,136.417 Q289.136,135.617 289.682,134.564 Q290.775,132.457 292.882,133.549 Z M297.416,106.249 Q298.431,96.248 296.488,94.335 Q292.276,90.186 267.159,100.789 Q277.084,110.843 295.777,106.642 Q296.601,106.457 297.416,106.249 Z"/>
  <path fill="rgb(97.647059%, 20.784314%, 36.470588%)" opacity="0.567" d="M192.722,398.917 Q149.784,403.454 127.426,402.326 Q102.896,401.089 91.809,392.393 Q80.852,383.798 79.596,365.774 Q78.879,355.502 81.876,327.904 Q84.486,303.856 85.295,289.456 Q85.664,282.891 92.228,283.26 Q95.51,283.444 97.059,285.177 Q98.608,286.911 98.424,290.193 Q97.596,304.936 94.948,329.323 Q92.078,355.757 92.713,364.86 Q93.564,377.057 99.925,382.046 Q115.041,393.903 191.34,385.841 Q197.879,385.15 198.57,391.688 Q198.915,394.957 197.453,396.765 Q195.991,398.572 192.722,398.917 Z"/>
  <path fill="rgb(34.901961%, 14.117647%, 42.352941%)" opacity="0.652" d="M135.806,392.141 Q136.35,391.919 137.425,391.479 Q162.926,381.029 191.929,374.721 Q201.532,359.266 223.857,331.843 Q226.126,329.057 228.653,328.798 Q231.18,328.539 233.966,330.807 Q237.115,333.37 236.543,337.391 Q234.371,352.666 226.126,363.384 Q223.915,366.258 220.419,369.581 Q283.766,360.063 384.283,358.827 Q391.468,358.739 391.556,365.923 Q391.624,371.469 386.277,372.94 Q296.901,397.526 263.102,405.332 Q216.217,416.16 199.797,413.599 Q195.835,412.98 192.815,411.64 Q192.832,412.047 192.855,412.46 Q193.048,416.048 191.351,417.938 Q189.655,419.829 186.067,420.023 Q178.892,420.41 178.505,413.235 Q177.864,401.372 180.867,392.146 Q160.925,397.38 142.873,404.776 Q141.773,405.227 141.24,405.445 Q137.915,406.803 135.572,405.82 Q133.23,404.836 131.872,401.51 Q129.155,394.858 135.806,392.141 Z M201.105,387.488 Q200.393,388.832 199.852,390.011 Q197.095,396.022 197.804,397.927 Q198.126,398.794 202.012,399.4 Q215.689,401.533 259.869,391.33 Q281.08,386.431 324.56,374.814 Q255.07,377.851 208.98,386.007 Q205.01,386.709 201.105,387.488 Z"/>
  <path fill="rgb(99.215686%, 100%, 92.54902%)" opacity="0.093" d="M264.581,385.303 Q271.118,378.685 276.69,372.186 Q246.799,354.266 218.107,318.59 Q215.233,315.017 217.847,311.25 Q241.682,276.888 268.892,267.743 Q295.641,258.753 311.117,276.49 Q326.394,294 317.762,324.964 Q311.848,346.178 295.493,368.284 Q298.908,369.854 302.333,371.171 Q317.989,377.192 337.662,379.622 Q349.834,381.125 375.693,382.121 Q389.655,382.658 396.977,383.084 Q403.1,383.439 402.745,389.563 Q402.389,395.686 396.266,395.331 Q389.062,394.912 375.221,394.379 Q348.844,393.364 336.158,391.797 Q314.991,389.182 297.929,382.621 Q292.797,380.648 287.699,378.165 Q281.146,385.989 273.309,393.924 Q268.999,398.288 264.635,393.977 Q260.271,389.667 264.581,385.303 Z M284.476,362.542 Q300.427,341.464 305.945,321.669 Q312.8,297.079 301.873,284.555 Q291.783,272.991 272.801,279.371 Q250.89,286.736 230.596,314.493 Q257.227,346.666 284.476,362.542 Z"/>
  <path fill="rgb(100%, 68.627451%, 100%)" opacity="0.302" d="M133.282,328.051 Q101.845,347.034 73.497,361.271 Q115.178,360.892 139.299,358.868 Q146.771,358.242 147.397,365.713 Q147.711,369.449 145.999,371.474 Q144.288,373.498 140.553,373.811 Q109.84,376.387 51.813,376.354 Q46.316,376.35 41.211,376.38 Q35.059,379.034 29.071,381.433 Q2.715,391.995 -28.301,399.852 Q-33.962,401.286 -36.274,401.925 Q-42.633,403.685 -45.187,397.601 Q-50.98,383.798 -42.532,374.644 Q-36.12,367.696 -20.711,364.692 Q-5.696,361.766 38.039,361.408 Q78.109,343.85 125.531,315.215 Q128.74,313.277 131.313,313.912 Q133.887,314.548 135.825,317.757 Q139.7,324.176 133.282,328.051 Z M-5.759,377.906 Q-13.336,378.532 -17.842,379.411 Q-28.431,381.475 -31.512,384.814 Q-31.716,385.035 -31.875,385.288 Q-18.348,381.858 -5.759,377.906 Z"/>
  <path fill="rgb(100%, 100%, 90.588235%)" opacity="0.004" d="M64.099,75.029 Q64.015,70.369 69.535,68.639 Q78.035,65.976 90.672,61.991 Q108.423,56.393 109.925,56.132 Q110.917,55.96 111.864,56.027 Q114.743,56.23 116.743,58.297 Q121.044,62.743 117.491,67.813 Q116.35,69.442 114.363,70.41 Q113.675,70.745 112.107,71.384 Q110.867,71.889 107.327,73.283 Q111.209,77.27 113.883,84.31 Q115.707,89.112 119.321,102.76 Q120.951,108.916 121.902,112.39 Q123.879,119.609 116.661,121.586 Q109.442,123.563 107.465,116.344 Q106.496,112.807 104.85,106.592 Q99.349,85.816 96.189,83.351 Q93.941,81.596 85.284,81.985 Q78.629,84.641 72.866,86.984 Q65.933,89.803 63.114,82.87 Q61.087,77.887 64.099,75.029 Z"/>
  <path fill="rgb(19.215686%, 0%, 5.490196%)" d="M123.826,259.131 Q143.162,262.615 154.913,260.648 Q160.709,259.678 167.192,256.168 Q180.78,248.81 192.214,254.961 Q194.308,256.087 197.075,258.198 Q202.903,249.765 209.596,245.343 Q217.425,240.169 225.557,241.102 Q234.75,242.156 240.962,250.371 Q258.293,273.29 248.104,364.185 Q247.502,369.557 243.277,372.93 Q239.052,376.304 233.679,375.702 Q232.918,375.616 232.198,375.458 Q231.767,376.173 231.305,376.85 Q227.552,382.361 222.005,384.26 Q213.966,387.012 207.044,381.753 Q200.02,376.415 197.374,362.846 Q192.922,340.011 199.028,295.818 Q185.721,281.806 180.768,278.509 Q180.278,278.768 179.621,279.123 Q169.312,284.705 159.223,286.394 Q142.998,289.111 119.197,284.822 Q113.876,283.863 110.792,279.423 Q107.708,274.983 108.666,269.662 Q109.625,264.341 114.065,261.257 Q118.506,258.172 123.826,259.131 Z M225.079,286.721 Q224.022,274.638 221.723,269.025 Q219.674,271.105 217.514,274.552 Q219.297,277.773 220.927,280.992 Q221.654,281.766 222.393,282.559 Q224.199,284.497 225.079,286.721 Z"/>
  <path fill="rgb(96.078431%, 4.705882%, 43.137255%)" opacity="0.856" d="M237.797,272.609 Q224.448,278.561 209.229,278.323 Q192.937,278.068 182.723,270.576 Q170.867,261.879 171.14,245.91 Q171.446,227.987 187.477,203.125 Q188.434,201.641 189.918,202.598 Q190.497,202.971 190.67,203.637 Q195.458,222.023 207.246,225.457 Q209.777,226.195 212.33,226.233 Q197.147,220.984 193.266,209.809 Q189.371,198.592 198.978,189.095 Q209.062,179.127 229.489,176.908 Q230.12,176.84 230.65,177.188 Q244.699,186.422 242.994,201.129 Q241.508,213.943 229.977,222.984 Q228.071,224.479 226.166,225.645 Q238.366,226.951 253.81,224.187 Q255.549,223.876 255.86,225.615 Q256.171,227.353 254.432,227.664 Q235.099,231.124 220.509,228.383 Q213.377,230.923 206.258,228.848 Q193.885,225.243 188.366,208.343 Q174.94,230.23 174.671,245.97 Q174.43,260.111 184.813,267.728 Q194.119,274.554 209.284,274.791 Q223.722,275.017 236.359,269.383 Q237.972,268.664 238.691,270.277 Q239.41,271.89 237.797,272.609 Z M220.176,224.719 Q223.963,223.211 227.798,220.204 Q238.169,212.073 239.485,200.722 Q240.908,188.451 229.234,180.491 Q210.516,182.657 201.462,191.607 Q193.438,199.538 196.603,208.65 Q199.948,218.282 213.702,222.969 Q216.796,224.024 220.176,224.719 Z"/>
  <path fill="rgb(65.490196%, 34.509804%, 32.54902%)" d="M1.73,372.49 Q29.613,393.342 50.112,383.887 Q68.824,375.256 80.288,342.45 Q90.917,312.033 93.634,266.083 Q77.266,264.92 63.77,265.905 Q41.049,267.563 36.286,273.411 Q35.738,274.084 35.807,274.53 Q35.882,275.013 36.662,275.568 Q39.222,277.393 45.793,277.775 Q63.315,278.794 90.98,269.101 Q92.598,268.534 93.165,270.152 Q93.448,270.961 93.185,271.507 Q92.923,272.053 92.114,272.337 Q63.801,282.257 45.594,281.198 Q38.037,280.759 34.672,278.36 Q32.716,276.966 32.42,275.057 Q32.116,273.102 33.628,271.246 Q39.325,264.251 63.52,262.486 Q77.234,261.485 93.825,262.661 Q94.858,242.827 94.329,222.194 Q93.732,221.602 93.191,221.013 Q75.566,201.818 91.148,171.945 Q91.572,171.134 92.482,171.034 Q94.186,170.848 94.372,172.552 Q97.055,197.134 97.719,220.692 Q107.841,230.014 133.302,240.244 Q152.567,247.985 154.932,252.759 Q157.098,257.13 152.395,261.814 Q148.062,266.13 136.814,271.582 Q136.307,271.828 135.753,271.724 Q114.778,267.821 97.053,266.347 Q94.304,312.733 83.525,343.581 Q71.581,377.76 51.548,387 Q29.194,397.31 -0.324,375.236 Q-1.01,374.723 -1.097,374.123 Q-1.183,373.523 -0.67,372.837 Q0.357,371.464 1.73,372.49 Z M97.244,262.924 Q114.952,264.39 135.824,268.251 Q146.142,263.203 149.976,259.384 Q152.93,256.441 151.86,254.281 Q150.075,250.679 132.024,243.426 Q108.794,234.092 97.829,225.294 Q98.21,244.451 97.244,262.924 Z M94.168,216.896 Q93.513,198.262 91.596,178.983 Q81.901,201.658 94.168,216.896 Z"/>
  <path fill="rgb(9.019608%, 60.392157%, 92.156863%)" opacity="0.48" d="M112.975,132.542 Q112.286,133.054 111.39,133.435 Q107.705,135.002 103.328,131.865 Q97.525,127.705 93.211,118.921 Q87.947,108.202 88.821,96.88 Q89.916,82.694 100.662,70.524 Q101.832,69.199 103.562,68.836 Q118.613,65.678 128.426,75.409 Q136.58,83.496 137.976,97.164 Q139.304,110.176 133.879,120.248 Q127.348,132.376 114.881,132.701 Q113.827,132.729 112.975,132.542 Z M114.603,122.049 Q120.895,121.884 124.497,115.196 Q128.371,108.003 127.375,98.247 Q126.367,88.375 120.923,82.976 Q115.716,77.813 107.468,78.964 Q93.688,95.717 102.776,114.224 Q104.861,118.469 107.164,121.04 Q107.646,120.839 108.206,120.682 Q111.971,119.627 113.748,122.109 Q114.156,122.06 114.603,122.049 Z"/>
  <path fill="rgb(99.607843%, 100%, 10.588235%)" opacity="0.01" d="M264.831,130.078 Q263.769,146.299 261.854,174.279 Q256.256,256.081 258.337,267.244 Q258.435,267.767 258.539,268.208 Q262.689,264.4 271.857,250.398 Q274.409,246.501 278.305,249.053 Q282.202,251.604 279.65,255.501 Q268.666,272.276 263.382,276.295 Q258.097,280.314 253.705,277.466 Q250.364,275.3 249.18,268.952 Q246.881,256.625 252.561,173.643 Q254.476,145.67 255.536,129.469 Q255.84,124.822 260.488,125.126 Q265.135,125.43 264.831,130.078 Z"/>
  <path fill="rgb(100%, 0%, 48.235294%)" d="M330.758,271.695 Q272.409,271.302 224.318,272.13 Q207.192,272.425 202.56,272.149 Q198.174,271.887 191.752,270.504 Q194.786,283.615 191.969,301.667 Q190.417,311.612 192.586,312.374 Q196.811,313.86 218.409,305.621 Q220.01,305.01 220.621,306.612 Q220.927,307.413 220.679,307.966 Q220.431,308.519 219.631,308.824 Q196.859,317.511 191.449,315.609 Q187.989,314.392 187.714,309.923 Q187.572,307.606 188.582,301.138 Q191.585,281.893 187.737,268.691 Q187.611,268.257 187.714,267.817 Q187.911,266.983 188.427,266.664 Q188.943,266.346 189.777,266.543 Q197.761,268.428 202.764,268.726 Q207.265,268.994 224.259,268.702 Q272.392,267.875 330.781,268.266 Q332.495,268.278 332.484,269.992 Q332.472,271.706 330.758,271.695 Z"/>
  <path fill="rgb(27.45098%, 49.803922%, 49.411765%)" opacity="0.489" d="M214.518,84.047 Q213.666,84.54 212.867,85.003 Q211.082,86.28 208.631,87.82 Q206.196,89.351 203.979,90.599 Q203.034,91.131 202.452,91.426 Q202.129,91.589 201.93,91.672 Q201.73,91.754 201.557,91.794 Q201.222,91.872 200.891,91.822 Q199.274,91.581 199.43,89.955 Q199.469,89.55 200.98,88.421 Q200.882,88.432 200.785,88.454 Q200.682,88.478 200.62,88.503 Q200.698,88.471 200.903,88.367 Q201.135,88.249 201.442,88.084 Q204.281,86.053 211.121,82.055 Q212.056,81.387 212.742,80.831 Q211.036,81.163 208.367,81.929 Q206.72,82.402 206.247,80.754 Q206.219,80.659 206.203,80.56 Q204.141,68.067 205.284,61.455 Q203.945,61.01 202.442,60.401 Q201.648,60.079 201.411,59.521 Q201.175,58.963 201.497,58.168 Q202.141,56.58 203.73,57.224 Q205.059,57.763 206.195,58.166 Q207.294,55.527 209.269,54.664 Q211.266,53.791 213.297,54.912 Q215.017,55.862 215.704,57.605 Q216.607,59.895 215,61.453 Q213.139,63.257 208.598,62.354 Q207.727,67.787 209.288,78.121 Q213.229,77.095 215.022,77.153 Q216.84,77.211 217.518,78.375 Q218.243,79.619 217.255,81.097 Q216.71,81.914 215.418,83.028 Q215.263,83.616 214.518,84.047 Z M209.507,59.151 Q211.914,59.669 212.613,58.992 L212.514,58.862 Q212.28,58.267 211.64,57.914 Q211.09,57.61 210.643,57.805 Q210.016,58.079 209.507,59.151 Z"/>
  <path fill="rgb(100%, 100%, 99.607843%)" opacity="0.096" d="M81.208,143.518 Q81.811,162.416 79.162,179.401 Q84.184,167.886 87.242,155.553 Q97.986,112.214 78.082,92.625 Q75.867,90.445 78.047,88.23 Q79.137,87.123 80.235,87.114 Q81.334,87.105 82.442,88.195 Q104.871,110.27 93.275,157.048 Q88.794,175.122 80.259,191.514 Q76.97,197.831 73.685,202.767 Q68.424,219.071 60.145,229.877 Q49.39,243.914 36.672,244.65 Q23.07,245.438 11.763,230.671 Q11.134,229.849 11.123,228.815 Q10.874,205.635 23.459,196.44 Q33.597,189.034 48.849,192.258 Q60.915,194.808 67.32,201.075 Q67.673,200.572 68.028,200.051 Q69.132,196.545 70.097,192.764 Q75.843,170.237 74.996,143.716 Q74.896,140.61 78.002,140.511 Q79.555,140.462 80.357,141.213 Q81.158,141.965 81.208,143.518 Z M63.471,206.024 Q58.376,200.624 47.563,198.339 Q35.025,195.689 27.126,201.459 Q17.386,208.575 17.334,227.706 Q26.352,239.022 36.313,238.445 Q46.189,237.874 55.211,226.097 Q58.905,221.275 61.966,215.209 Q60.627,215.323 59.835,214.72 Q58.961,214.054 58.753,212.515 Q58.529,210.861 59.783,209.761 Q61.616,208.155 63.471,206.024 Z"/>
  <path fill="rgb(13.72549%, 30.196078%, 58.431373%)" opacity="0.518" d="M208.353,90.146 Q207.984,99.098 207.15,114.046 Q206.921,118.153 202.814,117.923 Q200.76,117.809 199.791,116.725 Q198.821,115.641 198.936,113.587 Q199.964,95.165 200.287,86.175 Q200.13,83.49 200.179,80.423 Q200.206,78.785 200.282,77.802 Q200.349,76.946 200.525,76.401 Q201.224,74.224 203.421,73.654 Q207.174,72.681 208.378,76.38 Q208.541,76.88 208.59,77.487 Q208.736,79.319 208.513,85.924 Q208.57,86.822 208.652,87.664 Q208.798,89.148 208.353,90.146 Z"/>
  <path fill="rgb(25.490196%, 7.058824%, 21.568627%)" d="M255.474,218.826 Q237.688,246.002 208.898,230.992 Q201.206,226.981 189.176,216.959 Q193.465,222.19 195.34,225.45 Q202.125,237.245 195.277,243.081 Q189.48,248.022 170.614,249.622 Q169.803,249.691 169.237,249.107 Q159.362,238.912 153.19,244.006 Q144.01,251.583 134.05,289.977 Q133.62,291.637 131.96,291.206 Q130.301,290.776 130.731,289.116 Q140.971,249.646 151.008,241.362 Q159.416,234.422 171.124,246.136 Q188.206,244.603 193.053,240.472 Q197.732,236.484 192.368,227.159 Q183.534,211.802 118.144,150.079 Q116.955,148.957 118.019,147.716 Q118.577,147.066 119.181,147.019 Q119.785,146.973 120.436,147.531 Q132.727,158.067 156.472,181.814 Q194.024,219.37 210.483,227.952 Q236.52,241.526 252.605,216.948 Q253.074,216.231 253.667,216.107 Q254.261,215.983 254.978,216.452 Q256.412,217.391 255.474,218.826 Z"/>
  <path fill="rgb(100%, 0%, 54.509804%)" d="M396.213,26.221 Q396.383,27.005 396.495,27.683 Q397.08,31.23 396.38,33.812 Q395.332,37.673 391.99,39.647 Q388.258,41.853 384.073,40.445 Q380.217,39.149 376.228,33.562 Q370.851,26.031 365.418,14.153 Q359.048,0.226 358.713,-7.641 Q358.331,-16.631 367.321,-17.014 Q371.816,-17.205 374.159,-15.053 Q374.975,-14.303 375.53,-13.27 Q375.848,-13.292 376.166,-13.281 Q379.345,-13.179 382.423,-9.897 Q386.619,-5.424 395.644,-1.409 Q404.428,2.499 406.405,7.286 Q409.806,15.525 399.675,24.076 Q397.909,25.566 396.213,26.221 Z"/>
  <path fill="rgb(18.039216%, 0.784314%, 54.901961%)" opacity="0.573" d="M27.3,173.303 Q25.237,177.622 26.381,178.887 Q27.627,180.263 30.591,179.637 Q34.236,178.867 35.658,175.065 Q38.183,168.311 33.046,156.126 Q30.86,152.055 26.556,151.038 Q23.138,150.231 15.514,150.95 Q12.187,151.264 9.53,151.093 Q7.67,154.836 6.991,158.429 Q5.745,165.023 6.904,185.903 Q10.502,250.726 1.771,324.842 Q1.231,329.424 -1.33,331.446 Q-3.891,333.467 -8.474,332.927 Q-17.64,331.848 -16.56,322.682 Q-8.016,250.153 -11.526,186.926 Q-12.809,163.803 -11.146,155.002 Q-8.603,141.545 2.931,128.423 Q8.338,122.272 15.088,126.908 Q18.582,129.307 19.369,132.209 Q26.198,131.988 30.799,133.074 Q43.552,136.087 49.621,147.993 Q49.763,148.271 49.885,148.558 Q58.092,167.767 52.947,181.529 Q47.974,194.83 34.406,197.696 Q21.06,200.516 12.695,191.272 Q3.247,180.831 10.645,165.346 Q14.623,157.018 22.951,160.997 Q27.115,162.986 28.202,166.062 Q29.289,169.139 27.3,173.303 Z"/>
</svg>

