<svg xmlns="http://www.w3.org/2000/svg" width="384" height="384" viewBox="0 0 384 384">
  <defs/>
  <path fill="rgb(0%, 75.294118%, 0%)" d="M293.657,85.712 Q298.092,69.365 315.106,63.946 Q328.217,59.771 342.639,63.33 Q359.577,67.508 357.894,77.007 Q356.253,86.272 331.969,88.481 Q327.113,88.923 326.671,84.067 Q326.45,81.639 327.554,80.314 Q328.657,78.99 331.086,78.769 Q341.015,77.865 345.977,75.986 Q346.66,75.727 347.189,75.475 Q344.719,73.888 340.303,72.798 Q328.553,69.9 318.066,73.239 Q306.113,77.046 303.07,88.265 Q301.793,92.971 297.087,91.695 Q294.733,91.056 293.876,89.56 Q293.019,88.065 293.657,85.712 Z"/>
  <path fill="rgb(65.098039%, 0%, 21.960784%)" d="M90.536,247.503 Q88.34,247.239 87.352,247.15 Q87.305,247.146 87.258,247.142 Q87.134,247.131 87.047,247.122 Q78.946,246.294 79.094,238.156 Q79.247,229.767 87.632,229.472 Q87.905,229.462 88.177,229.469 Q88.314,229.473 88.452,229.481 Q88.521,229.485 88.594,229.49 Q88.656,229.495 88.724,229.5 Q88.792,229.506 88.864,229.513 Q88.956,229.52 89.08,229.529 Q89.801,229.584 90.735,229.637 Q98.903,230.105 108.952,229.818 Q147.06,228.731 179.895,217.794 Q184.093,216.396 186.892,217.796 Q189.69,219.196 191.089,223.395 Q193.886,231.792 185.488,234.589 Q150.176,246.351 109.457,247.513 Q101.146,247.75 93.947,247.502 Q92.419,247.729 90.536,247.503 Z"/>
  <path fill="rgb(100%, 72.156863%, 100%)" opacity="0.123" d="M196.447,274.201 Q195.841,265.046 189.143,257.059 Q187.24,254.79 185.281,253.129 Q180.743,257.379 175.43,261.931 Q166.597,269.499 165.387,272.683 Q164.006,276.317 164.948,285.179 Q178.222,285.249 186.702,287.955 Q192.934,289.944 195.998,293.416 Q199.016,296.835 198.953,301.132 Q198.883,305.907 195.196,309.206 Q188.782,314.945 173.373,312.556 Q158.37,310.231 139.94,301.037 Q134.213,298.18 134.789,291.806 Q137.668,259.901 149.063,244.121 Q160.7,228.007 178.115,230.083 Q179.734,230.276 181.313,230.617 Q187.601,224.119 194.333,230.399 Q198.834,234.599 197.621,238.997 Q200.67,241.627 203.508,245.011 Q214.144,257.693 215.155,272.963 Q215.774,282.317 206.42,282.936 Q201.743,283.246 199.25,281.062 Q196.756,278.878 196.447,274.201 Z"/>
  <path fill="rgb(17.254902%, 2.745098%, 7.45098%)" opacity="0.671" d="M127.526,77.565 Q123.06,87.347 115.836,104.551 Q104.689,131.094 100.673,131.817 Q97.426,132.402 96.029,128.475 Q95.271,126.344 94.924,122.045 Q94.754,119.935 94.669,117.092 Q94.371,117.458 94.058,117.781 Q90.567,121.384 83.698,120.475 Q81.545,120.19 81.315,120.335 Q80.868,120.617 80.862,123.493 Q80.841,133.096 90.348,169.551 Q90.692,170.869 90.205,171.7 Q89.717,172.532 88.399,172.875 Q86.58,173.35 85.49,171.818 Q74.613,156.529 66.558,149.222 Q60.465,143.694 58.95,144.372 Q58.054,144.773 59.731,150.731 Q62.104,159.16 69.596,171.755 Q70.989,174.098 68.647,175.491 Q66.305,176.884 64.912,174.542 Q57.052,161.329 54.485,152.208 Q51.532,141.719 56.725,139.396 Q64.409,135.959 81.724,157.701 Q75.393,131.817 75.411,123.481 Q75.424,117.606 78.407,115.725 Q80.306,114.528 84.414,115.071 Q88.562,115.62 90.143,113.989 Q93.831,110.182 94.852,95.745 Q95.037,93.133 97.654,93.213 Q99.016,93.255 99.676,93.957 Q100.336,94.659 100.294,96.021 Q99.743,113.982 100.357,121.607 Q100.521,123.636 100.758,124.982 Q103.223,120.509 110.81,102.441 Q118.067,85.159 122.568,75.302 Q123.7,72.823 126.179,73.954 Q127.418,74.52 127.755,75.423 Q128.092,76.326 127.526,77.565 Z"/>
  <path fill="rgb(40%, 0%, 81.176471%)" opacity="0.73" d="M327.204,2.546 Q326.832,-0.784 326.908,-8.721 Q327.04,-22.447 325.426,-24.949 L325.477,-24.718 Q322.268,-24.171 315.835,-19.149 Q313.027,-16.958 309.694,-18.212 Q279.498,-29.578 278.568,-28.514 Q277.325,-27.091 288.394,5.86 Q293.791,21.928 298.034,35.255 Q304.265,19.071 310.041,3.893 Q311.823,-0.792 312.022,-1.183 Q312.993,-3.101 314.926,-4.035 Q320.458,-6.706 323.309,-1.264 Q324.06,0.17 324.033,1.79 Q324.022,2.398 323.896,2.994 Q323.828,3.32 323.721,3.653 Q323.681,3.777 323.616,3.963 Q323.533,4.2 323.351,4.706 Q323.124,5.339 322.315,7.571 Q313.204,32.729 304.041,58.905 Q302.97,61.966 299.862,62.891 Q296.821,63.797 294.847,62.729 Q292.874,61.662 291.968,58.62 Q286.048,38.742 276.361,9.902 Q269.175,-11.491 267.517,-18.377 Q264.351,-31.533 269.009,-36.865 Q274.1,-42.693 287.13,-39.393 Q293.65,-37.741 310.919,-31.308 Q318.033,-36.325 323.342,-37.231 Q331.69,-38.656 336.094,-31.829 Q339.769,-26.129 339.601,-8.599 Q339.532,-1.432 339.819,1.134 Q340.172,4.288 338.772,6.041 Q337.371,7.794 334.218,8.147 Q327.91,8.853 327.204,2.546 Z"/>
  <path fill="rgb(100%, 100%, 98.039216%)" opacity="0.005" d="M63.952,345.984 Q68.253,296.701 86.619,279.759 Q97.575,269.652 106.408,277.426 Q113.425,283.601 111.201,298.232 Q110.657,301.809 108.596,303.326 Q106.536,304.842 102.959,304.298 Q95.806,303.211 96.893,296.057 Q97.467,292.284 97.111,289.8 Q96.793,290.062 96.431,290.396 Q90.893,295.505 86.257,308.183 Q80.374,324.271 78.369,347.242 Q77.74,354.451 70.531,353.822 Q66.927,353.507 65.282,351.548 Q63.637,349.588 63.952,345.984 Z"/>
  <path fill="rgb(23.137255%, 27.058824%, 17.647059%)" opacity="0.278" d="M276.53,61.81 Q298.518,64.182 305.394,63.906 Q302.678,55.854 306.32,49.79 Q308.306,46.482 312.308,43.351 Q301.517,43.637 299.276,42.525 Q296.442,41.117 296.233,38.114 Q296.059,35.608 298.011,33.762 Q298.745,33.068 300.005,32.377 Q299.974,23.668 314.79,18.992 Q325.196,15.708 340.469,14.769 Q346.365,14.406 350.477,14.587 Q352.627,14.681 353.907,14.935 Q355.102,15.172 355.964,15.645 Q360.253,17.996 358.138,22.304 Q356.322,26.006 333.334,27.913 Q331.156,30.365 326.481,32.524 Q326.018,32.738 325.475,32.974 Q329.759,32.658 334.88,32.246 Q338.569,31.95 339.84,35.426 Q341.512,39.997 336.941,41.668 Q318.5,48.412 314.664,54.8 Q313.22,57.206 314.877,61.515 Q316.406,65.49 315.843,67.851 Q314.751,72.438 308.659,73.374 Q302.191,74.368 275.486,71.487 Q273.066,71.226 271.987,69.886 Q270.908,68.546 271.169,66.126 Q271.691,61.288 276.53,61.81 Z"/>
  <path fill="rgb(100%, 5.490196%, 29.019608%)" opacity="0.657" d="M151.253,81.097 Q151.261,81.647 151.399,83.069 Q152.312,92.491 148.445,98.549 Q142.79,107.407 125.89,113.352 Q118.729,115.871 116.21,108.71 Q114.951,105.13 116.111,102.71 Q117.272,100.29 120.852,99.031 Q132.811,94.824 135.648,90.38 Q136.695,88.739 136.288,84.533 Q135.666,78.11 137.564,74.532 Q141.122,67.826 147.827,71.384 Q151.18,73.163 151.967,75.729 Q152.689,78.082 151.253,81.097 Z"/>
  <path fill="rgb(99.607843%, 0%, 28.235294%)" d="M212.165,227.174 Q210.081,228.782 207.208,231.316 Q201.486,236.366 196.318,237.821 Q190.703,239.401 174.307,240.303 Q168.079,240.646 167.736,234.417 Q167.393,228.188 173.622,227.845 Q188.645,227.019 192.937,225.811 Q195.365,225.127 198.953,221.961 Q202.135,219.154 204.546,217.295 Q209.486,213.485 213.295,218.425 Q215.2,220.895 214.918,223.082 Q214.635,225.269 212.165,227.174 Z"/>
  <path fill="rgb(29.019608%, 23.529412%, 30.196078%)" opacity="0.318" d="M323.199,124.301 L323.204,124.231 Q325.29,97.144 322.334,70.652 Q318.09,102.398 307.886,120.849 Q299.588,135.854 284.163,144.443 Q280.542,146.459 279.917,147.702 Q288.088,155.472 292.091,162.897 Q292.916,161.991 293.875,161.816 Q295.131,161.587 296.617,162.614 Q299.589,164.669 297.534,167.64 Q296.273,169.466 295.269,171.077 Q297.044,178.552 293.843,183.322 Q291.576,186.7 288.299,186.198 Q284.296,185.584 284.141,180.768 Q284.005,176.59 287.467,170.17 Q284.391,161.63 273.865,151.935 Q273.082,151.214 272.815,150.184 Q271.61,145.533 274.635,142.258 Q276.121,140.65 280.648,138.13 Q294.266,130.548 301.563,117.352 Q315.219,92.657 317.626,41.424 Q317.756,38.65 320.47,38.063 Q324.001,37.298 324.766,40.83 Q333.696,82.093 330.408,124.786 L330.403,124.855 Q330.264,126.657 329.294,127.488 Q328.325,128.319 326.523,128.18 Q322.921,127.903 323.199,124.301 Z"/>
  <path fill="rgb(3.921569%, 0%, 32.54902%)" opacity="0.461" d="M242.185,88.608 Q252.5,104.695 251.642,110.809 Q250.496,118.971 242.345,119.029 Q239.214,119.051 236.154,117.085 Q233.329,115.269 230.178,111.586 Q222.993,103.187 221.047,94.661 Q219.885,89.568 221.038,85.296 Q220.255,84.893 219.485,84.49 Q215.211,101.922 193.847,121.536 Q187.346,127.504 181.378,121.003 Q175.41,114.503 181.911,108.534 Q205.23,87.125 202.656,73.164 Q202.347,71.491 202.345,70.44 Q202.337,67.705 203.739,65.458 Q206.333,61.301 211.254,61.206 Q214.135,61.151 218.798,63.917 Q227.729,69.214 238.995,74.407 Q242.689,76.11 243.794,80.024 Q245.384,85.656 242.185,88.608 Z"/>
  <path fill="rgb(100%, 20.392157%, 0%)" opacity="0.991" d="M-4.435,144.424 Q-6.774,159.448 -8.888,168.124 Q-6.2,169.778 -5.487,170.369 Q-4.98,170.788 -4.742,171.162 Q-4.398,171.701 -4.432,172.301 Q-4.489,173.324 -5.405,173.801 Q-6.165,174.197 -7.712,173.826 Q-8.424,173.655 -10.238,173.092 Q-11.787,178.111 -13.206,179.473 Q-14.938,181.135 -17.054,180.418 Q-18.579,179.9 -20.221,177.93 Q-22.304,175.433 -26.641,167.502 Q-27.052,166.75 -26.882,166.169 Q-26.711,165.587 -25.959,165.176 Q-25.349,164.842 -24.678,165.028 Q-21.488,165.914 -16.784,167.398 Q-20.668,165.128 -26.171,161.98 Q-27.715,172.267 -34.639,184.437 Q-37.734,189.877 -37.708,191.318 Q-37.681,192.848 -33.527,193.754 Q-25.159,195.578 28.01,195.286 Q29.724,195.276 29.734,196.991 Q29.739,197.848 29.312,198.279 Q28.886,198.71 28.029,198.714 Q-25.519,199.009 -34.257,197.104 Q-41.06,195.62 -41.136,191.38 Q-41.179,188.999 -37.619,182.742 Q-30.173,169.654 -29.279,159.063 Q-29.247,158.686 -29.059,158.358 Q-28.635,157.613 -28.05,157.453 Q-27.466,157.293 -26.721,157.718 Q-17.196,163.15 -11.892,166.309 Q-10.04,158.136 -7.823,143.896 Q-7.559,142.203 -5.865,142.466 Q-5.018,142.598 -4.661,143.088 Q-4.303,143.577 -4.435,144.424 Z M-13.38,172.091 Q-13.52,172.045 -13.662,171.999 Q-18.185,170.53 -21.598,169.497 Q-18.966,174.083 -17.588,175.735 Q-16.564,176.963 -15.952,177.171 Q-15.809,177.219 -15.581,177 Q-14.57,176.029 -13.38,172.091 Z"/>
  <path fill="rgb(1.176471%, 7.843137%, 22.745098%)" opacity="0.572" d="M324.39,241.219 Q348.758,233.207 355.546,223.289 Q359.167,217.999 357.68,209.491 Q356.628,203.473 359.22,201.73 Q362.274,199.675 373.459,201.34 Q374.307,201.466 374.668,201.953 Q375.029,202.44 374.903,203.287 Q374.65,204.983 372.955,204.731 Q363.085,203.262 361.133,204.575 Q360.388,205.076 361.057,208.901 Q362.785,218.783 358.376,225.226 Q350.932,236.101 325.461,244.476 Q323.833,245.012 323.297,243.383 Q322.762,241.755 324.39,241.219 Z"/>
  <path fill="rgb(98.823529%, 100%, 98.823529%)" opacity="0.077" d="M333.744,321.434 Q335.493,322.865 337.594,324.568 L337.842,324.769 L338.092,324.971 Q338.406,325.226 338.666,325.538 Q339.849,326.958 342.149,328.742 Q344.933,330.902 345.628,332.664 Q346.989,336.117 343.825,339.605 Q341.441,342.231 325.329,353.775 Q312.578,362.911 303.625,369.449 Q300.282,371.891 297.84,368.547 Q295.398,365.204 298.742,362.762 Q307.724,356.203 320.506,347.044 Q333.27,337.899 336.683,334.979 Q334.172,332.989 332.582,331.164 L332.38,331.001 Q319.753,320.765 318.378,318.875 Q316.349,316.083 317.973,313.483 Q319.354,311.27 322.353,311.328 Q323.574,311.351 327.368,312.117 Q331.035,312.857 333.288,313.216 Q337.377,313.867 336.726,317.956 Q336.23,321.067 333.744,321.434 Z"/>
  <path fill="rgb(100%, 23.137255%, 0%)" d="M183.214,114.502 Q171.897,105.722 159.405,94.454 Q157.993,99.687 156.793,103.723 Q155.074,109.503 149.772,112.374 Q144.47,115.246 138.691,113.527 Q132.911,111.808 130.04,106.506 Q127.168,101.205 128.887,95.425 Q130.652,89.49 132.974,80.518 Q135.075,72.399 136.168,69.494 Q140.048,59.19 148.835,56.882 Q157.172,54.693 165.701,61.122 Q168.208,63.012 174.531,68.845 Q188.651,81.873 201.059,91.498 Q205.823,95.194 206.579,101.176 Q207.334,107.158 203.638,111.922 Q199.942,116.687 193.96,117.442 Q187.978,118.197 183.214,114.502 Z"/>
  <path fill="rgb(100%, 8.627451%, 0.392157%)" opacity="0.986" d="M261.453,258.055 Q261.456,258.068 261.46,258.088 Q263.21,265.823 257.323,271.197 Q251.122,276.856 241.641,275.318 Q236.349,274.46 232.962,271.143 Q226.759,265.068 229.969,256.855 Q232.969,249.179 247.357,242.313 Q251.468,240.351 255.763,241.871 Q260.057,243.39 262.019,247.502 Q263.981,251.613 262.462,255.907 Q262.051,257.066 261.453,258.055 Z"/>
  <path fill="rgb(96.078431%, 86.666667%, 0%)" opacity="0.433" d="M98.946,313.741 Q96.263,334.302 99.447,340.977 Q101.146,344.538 107.612,345.633 Q117.618,347.327 121.208,354.879 Q126.848,366.741 124.55,399.697 Q124.49,400.553 124.033,400.95 Q123.576,401.348 122.721,401.288 Q121.01,401.169 121.13,399.459 Q123.365,367.401 118.112,356.352 Q115.287,350.41 107.039,349.013 Q98.818,347.621 96.353,342.453 Q92.732,334.864 95.546,313.298 Q95.657,312.448 96.138,312.078 Q96.618,311.709 97.468,311.82 Q99.168,312.042 98.946,313.741 Z"/>
  <path fill="rgb(47.843137%, 50.196078%, 47.843137%)" opacity="0.942" d="M314.205,187.154 Q317.928,211.942 286.364,220.689 Q287.5,231.201 276.329,237.849 Q269.914,241.666 253.607,246.194 Q240.729,249.769 237.651,251.958 Q235.971,253.152 235.99,254.232 Q236.018,255.84 238.689,258.487 Q240.382,260.164 238.705,261.857 Q237.027,263.55 235.334,261.873 Q231.286,257.861 231.224,254.314 Q231.162,250.723 234.889,248.073 Q238.648,245.4 252.332,241.601 Q268.025,237.244 273.891,233.753 Q281.844,229.02 281.677,222.113 Q280.469,222.081 280.139,221.974 Q278.596,221.473 278.464,219.878 Q278.339,218.37 279.663,217.593 Q279.98,217.407 280.457,217.269 Q280.758,217.182 281.746,216.95 Q312.764,209.652 309.491,187.862 Q309.314,186.683 309.815,186.006 Q310.315,185.328 311.494,185.151 Q313.851,184.797 314.205,187.154 Z"/>
  <path fill="rgb(77.647059%, 0%, 100%)" d="M29.86,92.154 Q28.342,94.899 25.546,94.24 Q23.71,93.807 21.379,91.534 Q18.777,88.996 12.676,80.636 Q2.372,66.517 -1.113,65.792 Q-2.91,65.418 -4.082,69.229 Q-5.85,74.975 -5.641,88.665 Q-5.615,90.379 -7.329,90.406 Q-8.186,90.419 -8.621,89.997 Q-9.057,89.575 -9.07,88.718 Q-9.286,74.485 -7.359,68.221 Q-5.269,61.426 -0.415,62.435 Q4.362,63.429 15.445,78.615 Q21.377,86.743 23.773,89.079 Q25.423,90.688 26.332,90.903 Q26.599,90.966 26.859,90.495 Q27.274,89.745 27.856,89.577 Q28.439,89.409 29.189,89.824 Q30.689,90.654 29.86,92.154 Z"/>
  <path fill="rgb(100%, 100%, 44.313725%)" opacity="0.25" d="M169.043,282.497 Q181.942,281.826 202.673,280.829 Q212.234,280.37 219.791,279.954 Q220.266,273.922 222.793,268.72 L222.795,268.717 Q226.734,260.617 234.834,264.556 Q237.758,265.978 242.931,268.421 Q249.09,271.33 252.577,273.189 Q253.192,266.217 261.083,265.813 Q270.079,265.354 270.538,274.349 Q272.079,304.501 268.282,317.352 Q265.359,327.245 255.383,335.851 Q245.461,344.411 239.605,356.839 Q236.677,363.053 229.911,361.873 Q221.037,360.327 222.584,351.454 Q227.029,325.944 221.743,298.49 Q221.682,298.17 221.623,297.861 Q213.551,298.341 203.538,298.822 Q182.85,299.817 169.98,300.487 Q165.483,300.721 163.117,298.59 Q160.751,296.458 160.517,291.961 Q160.049,282.966 169.043,282.497 Z M239.714,296.582 Q242.193,310.044 242.565,323.134 Q243.086,322.668 243.616,322.211 Q249.583,317.063 251.006,312.247 Q252.708,306.487 252.952,294.911 Q249.309,295.744 239.714,296.582 Z"/>
  <path fill="rgb(81.960784%, 100%, 80.392157%)" opacity="0.345" d="M309.649,99.178 Q316.824,92.19 326.467,89.176 Q329.714,88.161 334.795,87.442 Q341.381,75.013 344.503,71.773 Q346.88,69.307 349.74,68.891 Q356.225,67.949 358.243,74.346 Q359.082,77.006 358.282,81.929 Q358.037,83.438 357.492,85.85 Q374.567,85.406 399.57,86.241 Q403.181,86.362 404.927,88.228 Q406.672,90.095 406.552,93.706 Q406.31,100.93 399.087,100.688 Q370.979,99.749 353.773,100.362 Q350.586,112.033 345.241,130.202 Q337.202,157.534 333.697,170.434 Q331.803,177.408 324.828,175.514 Q322.036,174.755 320.538,172.28 Q307.726,151.096 303.552,131.694 Q300.845,135.681 297.66,140.024 Q295.523,142.938 292.997,143.327 Q290.472,143.715 287.558,141.578 Q281.795,137.352 285.956,131.542 Q289.351,126.802 294.622,118.992 Q300.147,110.353 302.683,104.115 Q304.319,100.094 308.17,99.341 Q308.934,99.192 309.649,99.178 Z M338.481,101.463 Q333.644,102.077 330.779,102.973 Q323.998,105.092 319.075,110.196 Q317.837,111.478 316.073,113.731 Q315.961,118.488 316.854,124.199 Q318.728,136.181 324.644,149.233 Q327.483,139.35 331.374,126.123 Q335.637,111.63 338.481,101.463 Z"/>
  <path fill="rgb(100%, 100%, 3.921569%)" opacity="0.302" d="M29.298,192.245 Q19.55,203.35 20.93,209.809 Q21.695,213.391 26.809,214.188 Q33.755,215.271 39.553,210.28 Q46.707,204.122 46.677,191.578 Q46.667,187.503 48.7,185.46 Q50.733,183.417 54.809,183.407 Q58.884,183.397 60.927,185.43 Q62.97,187.463 62.98,191.539 Q63.028,211.583 50.189,222.636 Q38.684,232.54 24.297,230.296 Q8.096,227.77 4.987,213.215 Q1.896,198.748 17.046,181.49 Q22.423,175.364 28.549,180.741 Q34.675,186.119 29.298,192.245 Z"/>
  <path fill="rgb(7.058824%, 11.372549%, 21.568627%)" opacity="0.505" d="M289.709,356.53 Q287.591,344.269 295.678,333.978 Q299.382,329.264 297.954,326.556 Q295.226,321.384 277.937,310.217 Q276.497,309.287 277.427,307.847 Q277.729,307.38 278.248,307.179 Q313.297,293.592 326.921,281.157 Q334.285,274.435 336.215,265.712 Q337.469,260.044 341.037,258.565 Q345.339,256.782 359.432,257.479 Q361.145,257.564 361.06,259.276 Q361.018,260.132 360.568,260.539 Q360.119,260.946 359.263,260.904 Q345.939,260.245 342.35,261.732 Q340.431,262.528 339.563,266.453 Q337.398,276.235 329.232,283.689 Q315.754,295.991 282.583,309.161 Q298.092,319.467 300.987,324.956 Q303.453,329.633 298.374,336.096 Q291.229,345.188 293.088,355.947 Q293.38,357.636 291.69,357.928 Q290.001,358.219 289.709,356.53 Z"/>
  <path fill="rgb(85.490196%, 100%, 59.607843%)" opacity="0.393" d="M236.487,78.559 Q237.852,78.756 239.183,78.941 Q239.906,78.174 240.673,77.454 Q257.905,61.268 311.706,57.175 Q313.869,57.01 314.671,59.025 Q315.217,60.396 314.805,61.355 Q314.393,62.313 313.022,62.859 Q305.906,65.693 302.646,73.709 Q298.486,83.933 288.65,86.4 Q275.503,89.696 241.577,85.22 Q229.363,101.069 234.62,137.465 Q234.831,138.925 234.206,139.761 Q233.582,140.597 232.121,140.808 Q229.2,141.229 228.778,138.309 Q223.568,102.237 235.037,84.277 Q232.772,83.656 233.145,81.06 Q233.356,79.6 234.191,78.974 Q235.026,78.349 236.487,78.559 Z M246.834,79.941 Q275.972,83.494 287.215,80.675 Q294.147,78.936 297.178,71.485 Q298.929,67.181 301.587,64.016 Q261.776,68.24 246.834,79.941 Z"/>
  <path fill="rgb(30.980392%, 23.529412%, 37.647059%)" opacity="0.223" d="M192.496,157.152 Q184.053,167.167 179.825,170.34 Q175.147,173.851 170.722,172.756 Q163.652,171.007 164.034,163.007 Q164.128,161.037 165.517,156.612 Q162.355,160.509 159.203,164.265 Q140.49,186.558 131.113,193.247 Q127.748,195.647 124.983,196.248 Q121.604,196.983 118.707,195.498 Q115.072,193.634 114.107,189.551 Q112.942,184.619 117.955,174.6 Q126.736,157.049 154.666,117.131 Q159.234,110.601 165.764,115.17 Q169.029,117.454 169.519,120.228 Q170.009,123.003 167.725,126.268 Q162.059,134.366 157.213,141.494 Q171.525,123.467 186.062,102.441 Q189.212,97.885 194.579,99.249 Q202.303,101.211 200.341,108.935 Q197.994,118.172 188.132,141.946 Q187.758,142.846 187.404,143.706 Q189.413,144.131 191.538,145.923 Q197.632,151.059 192.496,157.152 Z"/>
  <path fill="rgb(100%, 93.72549%, 100%)" opacity="0.051" d="M139.527,351.086 Q169.806,338.89 189.884,324.439 Q207.092,312.054 209.081,304.446 Q209.358,303.386 208.938,303.1 Q206.859,301.682 200.661,301.993 Q183.622,302.848 150.025,316.722 Q147.734,317.668 146.116,316.995 Q144.498,316.323 143.552,314.032 Q142.606,311.742 143.278,310.124 Q143.95,308.505 146.241,307.56 Q181.418,293.033 200.165,292.093 Q209.69,291.615 214.523,294.91 Q220.715,299.132 218.671,306.953 Q215.78,318.014 195.674,332.485 Q174.623,347.636 143.231,360.281 Q140.932,361.207 139.32,360.521 Q137.707,359.834 136.782,357.535 Q134.93,352.938 139.527,351.086 Z"/>
  <path fill="rgb(12.941176%, 12.156863%, 17.647059%)" opacity="0.253" d="M144.05,192.442 Q150.681,159.685 149.457,148.55 Q149.412,148.136 149.357,147.771 Q149.096,148.049 148.819,148.376 Q148.603,148.631 148.428,148.856 Q148.295,149.044 148.173,149.212 Q148.063,149.364 147.972,149.476 Q147.41,150.172 146.635,150.598 Q145.189,151.393 143.574,151.062 Q140.276,150.386 140.004,147.031 Q139.915,145.936 140.343,144.923 Q140.459,144.646 140.613,144.385 Q140.751,144.152 140.991,143.822 Q141.095,143.68 141.206,143.534 Q143.886,139.698 151.597,126.291 Q151.657,126.187 151.722,126.087 Q161.471,111.058 168.6,106.857 Q178.792,100.85 190.311,109.112 Q197.416,114.208 209.054,129.781 Q212.005,131.235 215.646,135.564 Q227.475,149.628 253.4,198.783 Q255.394,202.563 251.714,204.737 Q249.783,205.877 248.248,205.481 Q246.712,205.086 245.572,203.155 Q223.879,166.421 208.949,144.876 Q210.626,155.924 217.085,178.53 Q217.701,180.686 216.932,182.072 Q216.162,183.458 214.006,184.074 Q209.694,185.306 208.461,180.994 Q198.849,147.353 199.433,137.081 Q199.572,134.632 200.303,132.926 Q190.859,120.542 185.084,116.401 Q178.313,111.544 173.153,114.584 Q167.866,117.7 159.311,130.868 Q156.688,135.427 154.614,138.933 Q157.688,141.336 158.373,147.57 Q159.749,160.095 152.841,194.222 Q151.951,198.617 147.556,197.727 Q143.16,196.838 144.05,192.442 Z"/>
  <path fill="rgb(59.607843%, 93.72549%, 3.529412%)" opacity="0.652" d="M334.3,110.419 Q345.885,106.285 352.181,109.805 Q360.079,114.22 355.664,122.118 Q353.456,126.067 350.378,126.938 Q347.942,127.627 344.961,126.389 Q344.56,126.435 344.016,126.535 Q342.099,126.888 339.996,127.626 Q343.237,128.263 346.941,128.962 Q380.395,135.269 392.458,139.903 Q404.496,144.528 408.464,151.083 Q415.12,162.078 403.371,172.224 Q400.149,175.005 395.952,174.297 Q349.686,166.49 329.401,156.086 Q314.833,148.614 311.983,139.216 Q309.316,138.237 307.948,137.357 Q301.365,133.124 302.347,126.272 Q303.158,120.606 309.398,117.221 Q315.322,114.007 331.18,110.729 Q332.868,110.38 334.3,110.419 Z"/>
  <path fill="rgb(83.529412%, 100%, 100%)" opacity="0.055" d="M319.948,393.509 Q328.112,369.346 323.108,342.99 Q321.643,335.27 322.698,332.215 Q324.881,325.895 331.651,326.259 Q334.21,326.396 337.601,328.063 Q344.5,331.453 341.109,338.351 Q339.999,340.61 338.513,341.766 Q343.711,371.202 334.513,398.429 Q332.052,405.711 324.77,403.251 Q317.488,400.791 319.948,393.509 Z"/>
  <path fill="rgb(0%, 17.254902%, 3.137255%)" opacity="0.358" d="M335.204,20.685 Q329.063,40.27 335.507,55.556 Q339.889,65.951 349.297,73.182 Q355.031,75.367 358.546,77.16 Q360.636,78.226 361.758,79.083 Q362.714,79.813 363.26,80.627 Q365.706,84.274 362.36,86.988 Q357.884,90.618 345.373,81.659 Q345.111,81.471 344.852,81.281 Q344.358,81.097 343.847,80.91 Q341.238,81.629 338.734,82.298 Q341.233,84.463 343.808,87.343 Q345.822,89.596 344.539,92.332 Q342.598,96.472 338.457,94.531 Q329.368,90.271 319.606,88.501 Q315.601,95.257 318.307,109.016 Q319.19,113.503 314.703,114.386 Q310.216,115.268 309.333,110.781 Q306.786,97.832 309.441,89.1 Q303.224,90.236 298.325,90.751 Q291.721,91.445 288.887,90.737 Q283.818,89.471 284.702,84.836 Q285.21,82.168 288.268,80.731 Q294.823,77.649 308.748,78.157 Q312.011,78.276 315.213,78.626 Q315.821,78.496 316.442,78.36 Q320.895,74.931 326.746,75.946 Q331.255,74.828 336.207,73.506 Q330.445,67.094 327.079,59.109 Q319.332,40.733 326.476,17.948 Q327.16,15.766 328.593,15.017 Q330.026,14.269 332.208,14.953 Q336.572,16.321 335.204,20.685 Z"/>
  <path fill="rgb(8.627451%, 60%, 0%)" opacity="0.231" d="M395.53,31.379 Q395.678,31.928 395.786,32.397 Q398.765,45.373 390.041,51.782 Q384.154,56.106 370.833,56.151 Q363.898,56.175 342.507,54.782 Q333.868,54.219 329.002,53.921 Q323.698,53.595 321.208,50.781 Q318.719,47.966 319.044,42.662 Q319.695,32.054 330.303,32.704 Q335.209,33.005 343.888,33.57 Q346.888,33.766 349.62,33.934 Q345.767,17.05 355.49,-21.134 Q358.112,-31.434 368.412,-28.811 Q374.117,-27.359 375.911,-21.752 Q380.701,-6.789 389.052,13.71 Q389.118,13.87 389.175,14.011 Q391.691,14.757 394.269,17.147 Q398.166,20.76 398.308,24.515 Q398.435,27.89 395.53,31.379 Z M370.968,25.704 Q370.32,24.075 369.575,22.241 Q369.576,24.653 369.819,26.581 Q370.37,26.183 370.968,25.704 Z"/>
  <path fill="rgb(0%, 0%, 14.509804%)" opacity="0.273" d="M197.919,298.428 Q189.179,308.795 190.404,311.149 Q191.002,312.299 198.68,312.885 Q208.105,313.605 211.943,315.695 Q219.226,319.66 217.754,329.646 Q217.661,330.278 217.279,330.79 Q214.376,334.685 214.322,336.799 Q214.295,337.906 215.598,338.649 Q218.38,340.235 230.156,341.001 Q240.389,341.667 244.679,342.776 Q252.856,344.891 254.399,350.49 Q257.721,359.935 252.278,364.321 Q249.24,366.77 249.598,371.719 Q250.346,382.047 261.451,407.641 Q262.458,409.963 260.136,410.97 Q257.815,411.977 256.807,409.656 Q245.361,383.272 244.55,372.085 Q244,364.492 249.102,360.38 Q250.559,359.206 250.748,358.452 Q251.207,356.622 249.596,352.09 Q249.56,351.989 249.533,351.885 Q248.318,347.255 229.828,346.052 Q216.886,345.21 213.091,343.046 Q209.159,340.803 209.263,336.672 Q209.352,333.145 212.825,328.306 Q213.506,322.309 209.523,320.14 Q206.638,318.569 198.295,317.932 Q187.811,317.131 185.914,313.485 Q183.125,308.125 194.05,295.166 Q195.681,293.231 197.616,294.862 Q198.583,295.678 198.659,296.569 Q198.735,297.461 197.919,298.428 Z"/>
  <path fill="rgb(84.705882%, 100%, 83.529412%)" opacity="0.022" d="M212.239,273.847 Q218.16,274.249 219.104,279.713 Q225.341,283.518 226.593,287.002 Q228.526,292.384 224.39,296.33 Q222.421,298.209 219.324,298.913 Q216.303,299.6 210.474,299.423 Q205.083,299.26 203.165,294.22 Q196.025,275.469 192.003,269.945 Q183.187,275.733 175.076,271.798 Q165.767,267.281 153.868,246.634 Q151.849,243.132 152.591,240.372 Q153.333,237.612 156.835,235.594 Q160.337,233.576 163.097,234.318 Q165.857,235.06 167.875,238.562 Q177.156,254.667 181.991,257.182 Q182.442,256.913 183.417,256.237 Q193.793,249.035 201.919,256.784 Q206.432,261.087 212.239,273.847 Z"/>
  <path fill="rgb(100%, 100%, 72.156863%)" opacity="0.019" d="M36.657,374.17 Q39.328,366.167 41.053,358.75 Q41.555,355.503 41.956,353.844 Q42.031,353.531 42.099,353.326 Q42.195,353.037 42.33,352.796 Q42.673,352.181 43.265,351.813 Q44.292,351.173 45.452,351.515 Q46.457,351.812 46.998,352.71 Q47.519,353.574 47.31,354.994 Q47.117,356.298 46.592,358.653 Q46.466,359.219 46.334,359.789 Q46.227,360.491 46.114,361.273 Q46.464,361.786 46.652,362.491 Q47.311,364.949 46.775,369.684 Q46.139,375.294 44.079,378.15 Q42.443,380.42 40.059,380.769 Q36.94,389.413 32.799,398.672 Q32.25,399.9 31.362,400.239 Q30.473,400.579 29.246,400.03 Q26.79,398.931 27.888,396.476 Q31.885,387.539 34.903,379.21 Q34.848,379.17 34.795,379.13 Q33.718,378.324 33.583,377.383 Q33.447,376.441 34.253,375.365 Q35.333,373.921 36.657,374.17 Z"/>
  <path fill="rgb(77.254902%, 100%, 39.607843%)" opacity="0.177" d="M166.049,221.037 Q166.916,220.958 168.181,220.803 Q167.589,219.832 166.939,218.944 Q161.67,220.858 154.246,219.524 Q144.853,217.837 137.784,211.32 Q137.456,211.018 137.313,210.595 Q136.753,208.94 138.409,208.38 Q150.397,204.323 159.958,208.762 Q160.472,209.001 160.972,209.261 Q166.644,209.944 169.163,211.576 Q171.934,213.37 170.917,215.867 Q170.623,216.589 169.997,217.2 Q171.167,218.847 172.163,220.737 Q173.536,221.033 174,221.952 Q174.391,222.728 174.076,224.993 Q182.722,247.429 167.4,275.696 Q166.877,276.66 165.782,276.609 Q164.909,276.569 164.493,276.112 Q164.077,275.655 164.117,274.782 Q165.391,247.383 170.044,227.44 Q170.316,226.274 170.499,225.455 Q170.377,225.156 170.25,224.857 Q170.089,224.478 169.922,224.11 Q169.619,224.145 169.254,224.191 Q167.502,224.415 166.365,224.518 Q165.495,224.597 165.02,224.201 Q164.545,223.806 164.466,222.935 Q164.308,221.195 166.049,221.037 Z M172.596,232.088 Q169.444,247.144 168.11,266.278 Q176.156,247.669 172.596,232.088 Z M149.808,209.95 Q146.365,209.877 142.608,210.792 Q148.054,214.86 154.864,216.084 Q160.432,217.084 164.448,216.058 Q162.372,214.023 159.858,212.63 Q156.373,212.277 151.495,212.263 Q150.621,212.261 150.186,211.823 Q149.75,211.385 149.752,210.511 Q149.753,210.204 149.808,209.95 Z"/>
  <path fill="rgb(100%, 17.647059%, 27.45098%)" d="M99.776,120.667 Q84.98,147.657 64.334,177.981 Q55.406,191.093 53.03,195.69 Q49.708,202.116 50.408,206.406 Q50.956,209.774 56.755,216.393 Q67.838,217.025 73.029,222.588 Q78.751,228.72 74.311,236.025 Q74.203,236.203 74.064,236.359 Q73.302,237.213 72.494,237.259 Q71.686,237.306 70.832,236.544 Q58.775,225.792 54.11,220.889 Q25.974,220.696 -15.598,251.12 Q-16.521,251.796 -17.321,251.672 Q-18.12,251.549 -18.796,250.625 Q-20.148,248.778 -18.301,247.427 Q21.756,218.11 50.308,216.415 Q46.586,211.416 45.89,207.143 Q44.947,201.358 48.964,193.588 Q51.467,188.746 60.55,175.405 Q81.072,145.264 95.763,118.466 Q96.863,116.459 98.87,117.56 Q99.873,118.11 100.1,118.886 Q100.326,119.663 99.776,120.667 Z M61.661,221.63 Q65.807,225.826 71.471,230.963 Q71.971,228.164 69.682,225.711 Q66.948,222.78 61.661,221.63 Z"/>
  <path fill="rgb(19.215686%, 1.960784%, 0.392157%)" opacity="0.972" d="M66.09,232.417 Q63.922,231.812 62.194,231.288 Q61.317,231.023 60.857,230.862 Q59.069,230.235 57.752,229.048 Q54.355,225.987 54.935,221.453 Q55.698,215.481 61.552,214.07 Q63.022,213.716 64.533,213.876 Q65.007,213.926 65.503,214.032 Q66.346,214.211 69.061,214.995 Q69.264,215.054 69.463,215.122 Q70.348,215.425 71.222,215.72 Q74.457,216.616 78.768,217.717 Q96.495,222.244 112.893,225.132 Q117.487,219.49 125.305,220.579 Q131.148,221.393 133.947,226.204 Q134.575,227.284 134.967,228.337 Q160.279,231.131 174.99,228.029 Q191.28,224.594 190.096,213.48 Q189.633,209.139 191.572,206.737 Q193.511,204.335 197.852,203.873 Q206.534,202.948 207.459,211.63 Q210.314,238.426 178.593,245.115 Q158.345,249.385 123.483,244.489 Q121.272,244.178 119.036,243.837 Q117.786,243.914 116.346,243.6 Q99.074,243.51 66.09,232.417 Z"/>
  <path fill="rgb(99.607843%, 100%, 7.058824%)" opacity="0.389" d="M313.987,272.555 Q317.551,283.069 319.723,286.796 Q320.969,283.571 319.966,277.211 Q318.281,266.516 319.564,258.222 Q319.774,256.862 321.148,256.774 Q322.859,256.664 322.969,258.374 Q323.032,259.357 323.183,261.592 Q324.568,282.072 323.66,287.586 Q323.563,288.174 323.433,288.678 Q334.061,292.099 353.865,287.665 Q357.021,286.958 358.84,286.459 Q356.42,286.333 352.502,286.498 Q350.789,286.57 350.717,284.857 Q350.645,283.145 352.358,283.072 Q358.122,282.83 360.966,283.205 Q362.487,283.406 363.304,283.818 Q365.099,284.726 364.603,286.452 Q363.891,288.934 354.614,291.011 Q333.063,295.836 321.419,291.61 Q319.634,292.423 317.802,290.086 Q315.171,286.729 310.74,273.656 Q310.189,272.032 311.813,271.482 Q313.437,270.932 313.987,272.555 Z"/>
  <path fill="rgb(19.215686%, 13.333333%, 15.294118%)" opacity="0.6" d="M119.415,34.045 Q130.479,18.871 138.376,12.404 Q139.377,8.428 141.2,5.278 Q147.292,-5.249 157.463,-1.91 Q164.684,0.46 169.001,9.127 Q178.712,10.866 186.074,23.512 Q193.455,36.188 196.407,55.817 Q199.33,75.254 196.557,92.337 Q196.293,93.966 194.958,94.937 Q193.337,96.115 191.937,95.893 Q190.538,95.672 189.36,94.051 Q172.939,71.457 158.754,35.298 Q155.879,27.969 153.667,23.367 Q149.546,27.559 145.158,34.453 Q143.006,37.833 139.626,35.681 Q138.04,34.672 137.802,32.808 Q137.231,28.328 137.164,24.355 Q132.397,29.843 125.89,38.767 Q124.71,40.386 123.31,40.605 Q121.91,40.825 120.291,39.644 Q117.054,37.283 119.415,34.045 Z M172.567,19.432 Q175.312,31.729 172.809,48.064 Q172.803,48.1 172.798,48.133 Q180.954,66.44 189.764,80.363 Q190.317,69.215 188.482,57.009 Q185.757,38.896 179.148,27.544 Q175.979,22.101 172.567,19.432 Z M155.975,11.551 Q158.026,10.42 160.083,9.762 Q157.834,6.646 154.964,5.704 Q151.726,4.642 149.25,7.662 Q152.886,8.137 155.975,11.551 Z M160.281,18.293 Q162.413,22.715 165.972,31.754 Q165.778,23.579 163.618,17.097 Q161.974,17.44 160.281,18.293 Z M145.709,16.345 Q145.341,18.422 145.22,20.801 Q147.328,18.333 149.443,16.375 Q148.743,15.671 148.199,15.607 Q147.2,15.49 145.709,16.345 Z"/>
  <path fill="rgb(100%, 100%, 73.333333%)" opacity="0.354" d="M262.564,278.627 Q261.731,276.354 261.034,274.171 Q257.196,280.818 251.925,288.207 Q253.571,303.128 251.933,313.714 Q251.089,319.171 249.419,322.088 Q246.224,327.668 241.203,325.281 Q230.058,319.982 226.083,252.329 Q225.925,249.643 228.332,248.438 Q270.248,227.452 289.91,219.831 Q312.656,211.015 322.185,213.689 Q332.989,216.721 332.579,232.87 Q332.356,241.662 326.883,268.617 Q320.424,300.429 317.731,320.5 Q317.188,324.548 313.141,324.005 Q309.093,323.462 309.636,319.414 Q312.365,299.071 318.878,266.992 Q324.209,240.738 324.414,232.662 Q324.662,222.868 319.978,221.553 Q310.64,218.933 266.985,238.889 Q267.335,239.04 267.694,239.241 Q273.486,242.474 269.251,256.137 Q268.194,259.549 266.596,263.24 Q267.742,269.016 270.233,275.818 Q271.638,279.653 267.803,281.058 Q263.968,282.462 262.564,278.627 Z M258.12,262.18 Q257.077,255.519 257.664,249.937 Q258.172,245.107 259.859,242.19 Q248.212,247.652 234.4,254.537 Q236.334,285.616 239.999,303.267 Q241.823,312.053 243.239,315.587 Q243.582,314.271 243.861,312.465 Q245.414,302.428 243.633,287.592 Q243.442,286.005 244.379,284.711 Q253.414,272.23 258.12,262.18 Z"/>
  <path fill="rgb(5.882353%, 92.156863%, 62.745098%)" opacity="0.159" d="M302.944,16.101 Q301.724,14.264 300.052,9.314 Q295.953,-2.824 288.771,-6.734 Q288.152,-6.472 287.458,-6.191 Q286.595,-5.842 286.17,-5.651 Q285.85,-3.994 285.492,2.993 Q284.27,26.806 281.133,53.667 Q280.837,56.204 279.42,57.324 Q278.003,58.445 275.466,58.148 Q270.392,57.556 270.984,52.482 Q274.083,25.95 275.288,2.469 Q275.783,-7.189 276.708,-9.641 Q278.141,-13.441 283.622,-15.661 Q285.456,-16.404 286.613,-16.952 Q288.59,-17.89 290.633,-17.105 Q303.596,-12.125 309.732,6.045 Q310.975,9.726 311.454,10.446 Q312.868,12.573 312.511,14.344 Q312.154,16.115 310.027,17.528 Q305.772,20.356 302.944,16.101 Z"/>
  <path fill="rgb(100%, 19.215686%, 2.352941%)" opacity="0.998" d="M49.824,175.023 Q34.638,171.576 9.038,160.385 Q-13.621,150.481 -25.41,147.86 Q-34.523,145.835 -43.64,145.886 Q-43.098,146.548 -43.174,147.439 Q-43.325,149.205 -45.529,149.548 Q-46.839,149.752 -48.509,149.316 Q-50.645,148.757 -52.633,147.392 Q-57.331,147.476 -64.165,148.624 Q-65.713,148.884 -66.108,147.365 Q-66.324,146.535 -66.017,146.013 Q-65.71,145.49 -64.881,145.275 Q-60.731,144.195 -56.581,143.529 Q-56.922,142.626 -55.988,141.803 Q-55.345,141.237 -54.74,141.275 Q-54.135,141.314 -53.569,141.957 Q-53.086,142.506 -52.596,142.985 Q-38.629,141.41 -24.666,144.513 Q-12.552,147.206 10.411,157.244 Q35.714,168.304 50.583,171.68 Q52.254,172.059 51.875,173.731 Q51.685,174.567 51.172,174.89 Q50.659,175.213 49.824,175.023 Z"/>
  <path fill="rgb(20.784314%, 36.470588%, 16.862745%)" opacity="0.212" d="M166.635,250.359 Q162.899,207.908 155.695,182.777 Q155.432,183.025 155.015,183.217 Q154.188,183.597 153.584,183.374 Q152.981,183.151 152.6,182.324 Q145.976,167.935 145.548,161.836 Q145.428,160.137 146.017,159.256 Q146.709,158.219 147.93,158.28 Q148.697,158.319 149.404,158.873 Q150.865,160.02 152.818,164.204 Q165.008,190.319 170.263,250.04 Q170.423,251.854 168.609,252.013 Q166.795,252.173 166.635,250.359 Z M152.489,172.913 Q151.988,171.557 151.472,170.27 Q151.934,171.527 152.489,172.913 Z"/>
  <path fill="rgb(100%, 58.039216%, 100%)" opacity="0.288" d="M26.831,158.629 Q27.164,151.243 27.952,137.979 Q28.169,134.337 28.334,131.233 Q27.015,131.243 25.421,130.678 Q22.435,129.619 21.472,127.597 Q20.509,125.575 21.568,122.589 Q25.11,112.603 27.215,109.128 Q29.854,104.771 33.833,104.627 Q39.651,104.416 41.073,110.862 Q42.006,115.092 40.601,138.731 Q39.818,151.904 39.489,159.199 Q39.347,162.364 37.693,163.875 Q36.04,165.386 32.875,165.243 Q26.546,164.958 26.831,158.629 Z"/>
  <path fill="rgb(100%, 94.901961%, 97.254902%)" opacity="0.032" d="M64.527,122.772 Q67.882,103.467 74.964,91.91 Q64.328,96.587 62.382,96.682 Q60.458,96.776 59.794,95.293 Q59.332,94.259 59.909,92.784 Q60.363,91.622 62.64,87.958 Q70.807,74.812 73.603,64.212 Q73.831,63.347 74.377,63.029 Q74.924,62.711 75.788,62.939 Q76.981,63.253 77.111,64.48 Q78.126,74.071 77.295,76.432 Q76.934,77.458 76.148,77.911 Q75.695,78.171 75.219,78.207 Q75.254,79.557 73.735,79.837 Q72.855,79.999 72.334,79.641 Q71.974,79.392 71.785,78.894 Q69.215,84.152 65.678,89.845 Q64.622,91.545 64.012,92.607 Q67.852,91.245 78.968,86.2 Q79.057,86.159 79.148,86.129 Q86.626,77.404 94.716,77.489 Q98.338,77.528 100.082,79.515 Q102.315,82.061 99.942,84.864 Q95.882,89.659 80.9,89.627 Q71.954,100.925 68.051,123.384 Q67.745,125.146 65.983,124.84 Q65.102,124.687 64.738,124.17 Q64.374,123.653 64.527,122.772 Z M84.18,86.002 Q94.6,85.637 97.213,82.552 Q97.593,82.103 97.393,81.874 Q96.703,81.088 94.678,81.066 Q89.418,81.011 84.18,86.002 Z"/>
  <path fill="rgb(8.627451%, 4.705882%, 12.54902%)" opacity="0.189" d="M272.487,198.854 Q269.299,195.854 265.972,192.686 Q262.065,208.804 233.365,207.215 Q226.619,206.841 226.993,200.095 Q227.179,196.722 228.959,195.129 Q230.739,193.536 234.112,193.723 Q251.778,194.701 252.889,189.28 Q253.619,185.717 249.19,177.502 Q248.285,175.823 248.008,175.101 Q246.21,170.419 249.867,167.271 Q253.859,163.832 258.376,166.921 Q259.474,167.672 264.834,172.86 Q273.731,181.471 281.747,189.013 Q286.667,193.643 282.038,198.563 Q277.408,203.484 272.487,198.854 Z"/>
  <path fill="rgb(86.666667%, 98.039216%, 94.901961%)" opacity="0.089" d="M86.601,60.112 Q84.762,61.572 82.93,59.513 Q82.337,58.846 80.982,56.62 Q73.035,43.566 60.752,39.998 Q59.106,39.52 59.584,37.873 Q60.062,36.227 61.709,36.705 Q75.271,40.645 83.911,54.837 Q84.86,56.397 85.3,56.992 Q86.152,56.79 86.878,57.703 Q87.944,59.046 86.601,60.112 Z"/>
  <path fill="rgb(99.607843%, 100%, 55.294118%)" opacity="0.377" d="M67.053,148.451 Q47.67,121.042 32.572,111.762 Q26.712,108.161 22.976,108.278 Q20.621,108.352 19.468,110.403 Q15.285,117.845 22.124,137.866 Q26.484,150.626 34.483,165.012 Q42.795,142.912 51.513,140.785 Q58.19,139.156 61.251,146.457 Q63.199,151.103 62.805,158.881 Q61.934,176.044 51.634,196.23 Q51.117,197.245 50.187,197.903 Q48.3,199.239 46.688,198.963 Q45.077,198.687 43.742,196.8 Q40.281,191.911 37.153,187.161 Q30.66,211.136 25.561,246.507 Q25.231,248.796 23.922,249.775 Q22.613,250.754 20.325,250.424 Q15.748,249.764 16.408,245.188 Q22.466,203.165 30.548,176.672 Q19.076,157.548 13.373,140.855 Q5.196,116.92 11.407,105.872 Q15.116,99.272 22.686,99.035 Q29.193,98.831 37.415,103.884 Q54.126,114.155 74.603,143.112 Q77.273,146.887 73.498,149.556 Q71.61,150.891 69.999,150.615 Q68.388,150.339 67.053,148.451 Z M40.63,175.444 Q43.52,180.096 46.761,184.905 Q52.95,170.614 53.569,158.412 Q53.849,152.891 52.784,150.182 Q48.593,152.871 42.208,170.813 Q41.41,173.055 40.63,175.444 Z"/>
  <path fill="rgb(100%, 82.352941%, 86.666667%)" opacity="0.228" d="M261.2,117.388 Q301.757,116.018 312.092,121.251 Q317.537,124.008 318.89,129.553 Q319.688,132.828 319.253,141.137 Q318.338,158.641 322.677,170.815 Q323.253,172.43 321.638,173.005 Q320.831,173.293 320.283,173.033 Q319.736,172.774 319.448,171.966 Q314.878,159.147 315.83,140.958 Q316.238,133.151 315.559,130.365 Q314.58,126.354 310.544,124.31 Q300.994,119.474 261.316,120.815 Q259.602,120.873 259.545,119.159 Q259.516,118.303 259.929,117.86 Q260.343,117.417 261.2,117.388 Z"/>
  <path fill="rgb(97.254902%, 99.607843%, 84.313725%)" opacity="0.009" d="M204.759,26.505 Q203.044,17.057 205.521,8.943 Q206.967,4.212 211.289,-3.002 Q215.057,-9.289 215.636,-12.397 Q216.017,-14.445 218.065,-14.064 Q219.089,-13.873 219.506,-13.266 Q219.922,-12.658 219.732,-11.634 Q219.016,-7.79 214.863,-0.86 Q210.802,5.916 209.506,10.16 Q207.324,17.307 208.858,25.761 Q209.23,27.81 207.181,28.183 Q206.156,28.369 205.55,27.949 Q204.945,27.53 204.759,26.505 Z"/>
  <path fill="rgb(3.137255%, 0%, 3.529412%)" opacity="0.728" d="M177.463,-5.778 Q143.243,11.193 136.928,18.678 Q133.125,23.185 131.404,30.404 Q130.18,35.54 128.546,50.582 Q126.017,73.859 122.632,93.314 Q126.335,90.045 129.705,84.728 Q133.554,78.653 139.042,65.47 Q143.477,54.818 145.786,51.992 Q148.615,48.53 152.122,48.882 Q155.493,49.219 158.217,53.24 Q165.027,63.295 179.145,123.382 Q207.969,90.271 219.773,65.574 Q221.98,60.955 223.313,57.213 Q222.782,49.165 225.708,45.986 Q226.709,44.898 228.123,44.689 Q230.263,44.373 231.698,46.014 Q232.652,47.105 232.8,48.818 Q232.944,50.486 232.399,53.172 Q231.999,55.143 231.305,57.382 Q231.613,63.454 233.71,71.073 Q241.246,98.462 267.764,131.957 Q270.135,134.952 267.14,137.323 Q265.643,138.508 264.302,138.352 Q262.96,138.196 261.775,136.699 Q234.293,101.985 226.345,73.1 Q226.02,71.919 225.729,70.787 Q212.262,97.881 179.952,134.011 Q179.145,134.914 177.964,135.186 Q174.243,136.045 173.384,132.324 Q158.304,66.99 151.892,57.524 Q151.707,57.25 151.54,57.033 Q149.905,59.252 146.094,68.406 Q140.355,82.191 136.157,88.816 Q128.513,100.878 118.69,104.578 Q117.682,104.958 116.623,104.755 Q114.748,104.395 113.99,103.277 Q113.233,102.159 113.593,100.284 Q117.898,77.866 120.952,49.757 Q122.638,34.236 123.974,28.633 Q126.115,19.648 131.09,13.752 Q138.428,5.055 174.069,-12.621 Q177.49,-14.318 179.187,-10.896 Q180.884,-7.475 177.463,-5.778 Z"/>
  <path fill="rgb(53.333333%, 75.686275%, 60.392157%)" opacity="0.219" d="M110.7,213.53 Q108.899,216.847 107.107,219.624 Q104.076,224.322 98.685,225.805 Q88.225,228.682 79.564,222.454 Q73.296,217.947 69.99,209.542 Q64.869,196.521 67.9,180.198 Q71.297,161.907 83.341,151.27 Q98.68,137.723 121.062,142.47 Q126.997,143.729 130.303,148.815 Q133.609,153.901 132.35,159.836 Q132.134,160.855 131.805,161.797 Q151.317,160.013 186.993,160.977 Q192.25,161.119 196.215,164.572 Q200.79,168.556 201.208,174.608 Q201.626,180.66 197.642,185.235 Q180.814,204.561 161.382,212.974 Q142.689,221.067 124.784,217.964 Q117.173,216.645 110.7,213.53 Z"/>
  <path fill="rgb(98.039216%, 99.607843%, 100%)" d="M281.483,116.299 Q281.704,113.316 281.514,110.214 Q281.161,104.452 284.831,101.86 Q289.101,98.844 294.583,102.151 Q308.174,110.351 342.716,110.333 Q344.628,108.109 348.297,107.672 Q350.133,107.453 353.895,107.577 Q360.766,107.804 367.835,108.633 Q371.545,109.067 373.361,109.524 Q377.233,110.498 378.939,113.473 Q381.066,117.181 379.06,120.953 Q377.982,122.98 375.951,124.116 Q374.776,124.772 373.288,125.074 Q369.496,125.843 350.888,125.535 Q315.641,126.41 296.377,119.708 Q295.798,121.823 294.42,123.012 Q292.37,124.779 288.553,124.497 Q280.919,123.933 281.483,116.299 Z"/>
  <path fill="rgb(9.019608%, 14.117647%, 10.196078%)" opacity="0.81" d="M327.996,197.318 Q339.272,191.394 338.596,182.393 Q337.96,173.918 327.604,164.645 Q317.286,155.404 301.764,149.289 Q297.415,147.575 293.102,146.293 Q298.051,150.854 302.923,156.161 Q303.503,156.792 303.477,157.398 Q303.451,158.003 302.82,158.583 Q301.557,159.742 300.397,158.48 Q293.168,150.606 285.787,144.424 Q277.563,142.668 269.478,142.507 Q269.036,142.498 268.653,142.277 Q256.038,134.975 253.21,130.155 Q251.273,126.852 253.866,125.26 Q255.607,124.192 259.25,124.991 Q266.605,126.603 277.383,133.814 Q282.396,137.168 287.335,141.252 Q295.125,142.988 303.021,146.099 Q319.115,152.44 329.892,162.091 Q341.275,172.285 342.015,182.136 Q342.859,193.382 329.59,200.354 Q328.073,201.151 327.275,199.633 Q326.478,198.116 327.996,197.318 Z M280.108,139.935 Q277.799,138.218 275.476,136.663 Q265.238,129.813 258.516,128.34 Q256.715,127.945 255.981,128.073 Q256.049,128.218 256.167,128.42 Q258.499,132.396 269.991,139.089 Q275.027,139.216 280.108,139.935 Z"/>
  <path fill="rgb(84.313725%, 100%, 91.372549%)" opacity="0.08" d="M45.552,292.231 Q48.615,297.493 49.869,303.773 Q52.543,305.861 51.664,310.336 Q50.964,313.902 50.663,315.883 Q50.595,317.092 50.47,318.002 Q50.194,320.014 49.16,321.44 Q45.67,326.252 40.406,323.496 Q37.728,322.094 36.949,319.169 Q36.894,318.963 36.852,318.753 Q24.326,322.407 19.384,321.371 Q13.556,320.149 12.147,314.885 Q11.066,310.847 13.793,306.082 Q17.326,299.912 29.606,288.893 Q33.115,285.745 37.316,287.886 Q38.06,288.265 38.728,288.663 Q40.194,288.303 41.475,288.641 Q43.824,289.262 45.552,292.231 Z"/>
</svg>

