<svg xmlns="http://www.w3.org/2000/svg" width="384" height="384" viewBox="0 0 384 384">
  <defs/>
  <path fill="rgb(90.980392%, 0%, 5.098039%)" d="M133.189,245.24 Q139.007,208.827 148.055,150.91 Q163.8,50.133 168.362,32.567 Q170.751,23.369 173.663,18.168 Q177.8,10.778 184.654,7.02 Q199.152,-0.929 212.472,8.967 Q220.073,14.613 223.815,26.342 Q225.424,31.384 227.203,39.915 Q227.768,42.626 227.717,45.394 Q227.714,45.54 227.713,45.626 Q239.875,59.999 252.178,64.954 Q276.035,74.563 271.743,96.274 Q270.172,104.219 259.101,117.358 Q240.283,139.691 221.89,165.977 Q216.042,174.333 205.998,176.108 Q199.708,177.219 194.08,175.341 Q186.78,221.959 181.819,253.01 Q180.21,263.082 171.95,269.066 Q163.691,275.049 153.619,273.44 Q143.547,271.831 137.563,263.571 Q131.579,255.312 133.189,245.24 Z M206.398,97.855 Q205.765,101.697 205.095,105.809 Q208.245,101.766 211.409,97.824 Q210.705,97.292 210.005,96.746 Q209.412,96.973 208.8,97.177 Q207.597,97.577 206.398,97.855 Z"/>
  <path fill="rgb(6.666667%, 0%, 9.411765%)" d="M63.602,101.544 Q83.432,91.981 93.985,92.48 Q100.527,92.79 103.511,96.877 Q106.716,101.266 104.28,106.979 Q100.855,115.011 89.287,120.211 Q76.677,125.88 62.132,123.773 Q56.305,122.928 57.149,117.101 Q57.571,114.187 59.239,112.941 Q60.605,111.922 62.805,112.02 Q61.686,111.126 60.856,109.406 Q58.299,104.102 63.602,101.544 Z M67.877,112.514 Q76.723,112.948 84.458,109.47 Q89.976,106.989 92.27,104.237 Q84.606,104.489 68.718,112.151 Q68.289,112.358 67.877,112.514 Z"/>
  <path fill="rgb(39.215686%, 70.196078%, 0%)" d="M106.685,367.697 Q90.472,332.115 85.302,317.387 Q83.183,315.412 83.583,312.142 Q83.589,312.093 83.596,312.044 Q82.786,309.083 82.894,307.856 Q83.384,302.263 88.906,302.191 Q91.652,302.155 93.632,304.271 Q94.061,304.73 94.534,305.414 Q97.089,305.149 100.351,305.055 Q109.759,304.786 114.231,306.533 Q121.418,309.34 119.298,315.896 Q118.126,319.521 112.654,322.455 Q111.15,323.262 109.845,323.412 Q112.986,331.203 111.867,346.668 Q111.778,347.901 111.344,348.878 Q114.226,355.287 117.612,362.718 Q120.102,368.181 114.638,370.671 Q109.174,373.16 106.685,367.697 Z"/>
  <path fill="rgb(83.137255%, 43.137255%, 12.156863%)" opacity="0.579" d="M112.382,118.533 Q125.363,122.632 132.955,121.152 Q135.225,120.71 136.108,119.949 Q135.038,118.028 128.339,116.885 Q117.711,115.072 101.574,118.79 Q99.786,119.202 98.686,118.514 Q97.586,117.826 97.175,116.039 Q97.134,115.863 97.111,115.684 Q95.817,105.648 103.537,97.484 Q109.543,91.132 117.019,89.157 Q121.101,88.078 123.543,89.4 Q125.884,90.666 126.097,93.291 Q126.243,95.095 125.13,97.062 Q123.869,99.289 120.721,102.137 Q136.912,98.513 141.556,96.544 Q146.899,94.279 146.182,91.529 Q144.004,83.178 94.944,42.07 Q92.132,39.714 94.488,36.901 Q95.667,35.495 96.959,35.381 Q98.251,35.267 99.657,36.445 Q127.655,59.905 137.963,69.772 Q151.461,82.692 153.283,89.677 Q155.6,98.561 144.42,103.3 Q139.386,105.435 123.559,109.019 Q126.719,109.164 129.572,109.651 Q141.198,111.634 143.233,118.027 Q144.504,122.018 141.331,125.111 Q138.915,127.467 134.359,128.355 Q124.934,130.192 110.172,125.53 Q108.423,124.978 107.825,123.827 Q107.226,122.676 107.779,120.926 Q108.884,117.428 112.382,118.533 Z M110.418,101.008 Q112.375,99.614 113.897,98.395 Q112.101,99.486 110.418,101.008 Z"/>
  <path fill="rgb(30.588235%, 9.019608%, 0%)" opacity="0.324" d="M86.104,46.715 Q88.388,48.207 92.792,51.084 Q156.983,93.021 177.287,105.642 Q180.262,107.491 183.033,109.184 Q191.246,100.836 199.667,89.449 Q200.926,87.747 202.82,86.803 Q210.701,82.877 214.627,90.758 Q228.123,117.85 230.22,126.213 Q232.792,136.478 227.335,141.743 Q221.707,147.173 211.128,143.861 Q203.098,141.347 185.268,131.012 Q177.133,137.727 168.999,141.999 Q155.718,148.974 137.072,150.629 Q130.541,151.209 129.058,151.908 Q128.043,152.387 127.286,154.865 Q124.584,163.715 126.787,196.733 Q145.469,194.831 169.507,191.282 Q178.217,189.997 179.503,198.707 Q180.788,207.416 172.079,208.702 Q146.792,212.435 128.15,214.413 Q128.319,218.286 126.482,220.472 Q124.479,222.855 120.094,223.236 Q117.595,223.453 115.357,222.321 Q107.756,218.475 99.656,216.564 Q81.721,217.104 77.298,214.077 Q75.108,212.578 74.074,210.176 Q72.248,205.933 74.66,201.989 Q76.404,199.138 79.743,198.023 Q81.436,197.457 83.938,197.292 Q88.078,197.019 93.731,197.678 Q97.113,198.073 100.429,198.72 Q101.58,198.674 102.796,198.614 Q105.91,198.462 109.26,198.237 Q106.874,161.417 110.446,149.722 Q113.479,139.789 121.544,135.984 Q125.862,133.947 135.515,133.09 Q150.651,131.746 160.811,126.41 Q164.921,124.252 169.086,121.276 Q168.542,120.939 167.991,120.597 Q147.519,107.871 83.161,65.826 Q78.79,62.97 76.474,61.457 Q69.103,56.642 73.918,49.271 Q76.326,45.586 79.372,44.947 Q82.419,44.308 86.104,46.715 Z M198.59,118.379 Q206.211,122.681 211.205,124.979 Q209.108,119.795 204.989,111.146 Q201.79,114.951 198.59,118.379 Z"/>
  <path fill="rgb(13.333333%, 20.392157%, 12.156863%)" opacity="0.227" d="M326.42,319.611 Q300.834,310.781 286.908,292.838 Q284.455,289.678 283.475,288.849 Q280.455,286.293 283.011,283.272 Q285.567,280.252 288.587,282.808 Q290.199,284.172 293.16,287.986 Q305.641,304.069 329.002,312.131 Q332.742,313.422 331.451,317.162 Q330.16,320.902 326.42,319.611 Z"/>
  <path fill="rgb(8.627451%, 34.509804%, 100%)" opacity="0.076" d="M292.618,-3.429 Q250.107,-7.3 237.81,-3.555 Q233.035,-2.101 231.5,0.781 Q230.516,2.63 230.135,7.669 Q229.997,9.504 229.892,10.47 Q229.707,12.174 228.003,11.99 Q227.151,11.897 226.771,11.425 Q226.391,10.953 226.483,10.101 Q226.582,9.19 226.716,7.411 Q227.15,1.654 228.474,-0.831 Q230.676,-4.967 236.811,-6.836 Q249.75,-10.776 292.929,-6.844 Q293.783,-6.766 294.171,-6.301 Q294.559,-5.835 294.481,-4.981 Q294.325,-3.274 292.618,-3.429 Z"/>
  <path fill="rgb(0%, 77.647059%, 0%)" d="M105.56,374.948 Q103.224,373.725 95.813,357.657 Q91.479,352.745 80.908,324.618 Q73.4,304.643 66.127,286.338 Q55.517,260.07 49.516,245.989 Q49.515,245.986 49.514,245.983 L49.513,245.981 Q49.177,245.192 49.403,244.63 Q49.629,244.068 50.418,243.732 Q51.993,243.06 52.666,244.634 Q60.83,263.72 69.313,285.072 Q72.546,293.076 76.204,302.204 Q90.534,337.966 98.359,355.397 Q98.485,355.521 98.602,355.612 Q100.164,356.834 102.631,355.043 Q104.829,353.448 111.263,346.347 Q112.829,344.619 113.68,343.688 Q114.836,342.422 116.101,343.578 Q116.734,344.156 116.762,344.762 Q116.789,345.367 116.211,346 Q115.368,346.922 113.804,348.649 Q107.131,356.014 104.645,357.818 Q102.337,359.494 100.275,359.599 Q105.611,371.105 107.151,371.911 Q107.91,372.309 108.091,372.887 Q108.272,373.466 107.874,374.225 Q107.079,375.744 105.56,374.948 Z"/>
  <path fill="rgb(32.156863%, 73.333333%, 0%)" opacity="0.264" d="M385.111,22.371 Q385.726,19.716 386.942,15.088 Q389.2,6.486 389.09,3.692 Q388.946,0.048 385.409,-1.613 Q377.666,-5.251 335.36,-4.36 Q333.646,-4.324 333.61,-6.038 Q333.592,-6.895 334.012,-7.333 Q334.431,-7.77 335.288,-7.788 Q378.396,-8.696 386.867,-4.717 Q392.289,-2.169 392.515,3.556 Q392.646,6.862 390.258,15.959 Q389.055,20.538 388.451,23.145 Q388.064,24.815 386.394,24.428 Q385.559,24.234 385.238,23.72 Q384.918,23.206 385.111,22.371 Z"/>
  <path fill="rgb(26.666667%, 15.686275%, 0.784314%)" opacity="0.534" d="M212.713,223.96 Q212.731,223.89 212.746,223.83 Q212.751,223.811 212.759,223.777 Q212.762,223.767 212.764,223.758 Q212.766,223.752 212.767,223.748 Q212.775,223.715 212.78,223.694 Q213.224,221.957 214.358,220.571 Q216.625,217.804 220.198,217.621 Q226.226,217.312 228.233,223.005 Q228.767,224.522 228.681,226.127 Q228.656,226.578 228.582,227.024 Q228.553,227.196 228.517,227.368 Q228.5,227.445 228.483,227.52 Q228.475,227.552 228.466,227.592 Q228.461,227.611 228.457,227.629 Q228.453,227.646 228.446,227.672 Q228.443,227.682 228.441,227.693 L228.437,227.706 Q228.43,227.736 228.421,227.77 Q228.354,228.039 228.253,228.451 Q227.812,230.25 227.345,232.262 Q225.714,239.281 224.757,244.578 Q224.58,245.556 224.432,246.427 Q226.98,248.351 227.508,250.725 Q228.128,253.514 225.96,256.923 Q222.636,262.148 218.718,263.199 Q212.508,264.865 209.101,259.365 Q207.886,257.405 207.615,254.723 Q207.214,250.761 208.852,241.703 Q209.88,236.012 211.601,228.605 Q212.091,226.496 212.555,224.604 Q212.61,224.377 212.658,224.186 Q212.684,224.073 212.713,223.96 Z"/>
  <path fill="rgb(8.627451%, 35.294118%, 22.352941%)" opacity="0.226" d="M232.378,339.718 L231.951,339.69 Q210.514,338.286 201.149,334.169 Q189.49,329.042 167.902,309.63 Q156.727,299.781 151.098,290.561 Q147.782,285.13 147.467,280.952 Q147.142,276.66 149.605,273.55 Q152.337,270.099 157.023,269.768 Q172.808,268.653 232.739,322.899 Q233.114,323.239 233.444,323.58 Q241.504,324.113 240.975,332.177 Q240.447,340.246 232.378,339.718 Z"/>
  <path fill="rgb(89.411765%, 94.901961%, 37.647059%)" opacity="0.259" d="M39.497,55.047 Q88.545,67.416 92.974,72.526 Q95.561,75.51 92.845,78.245 Q91.439,79.661 87.913,80.859 Q83.963,82.2 70.463,85.033 Q36.23,92.218 16.181,100.692 Q21.521,101.146 32.141,101.988 Q56.258,103.901 62.535,104.616 Q65.082,104.905 66.146,105.124 Q67.296,105.361 67.889,105.874 Q68.932,106.775 68.767,108.131 Q68.618,109.352 67.56,110.01 Q67.094,110.299 66.451,110.417 Q64.75,110.729 54.89,110.573 Q53.627,110.553 53.005,109.911 Q52.576,109.468 52.453,108.729 Q44.685,108.051 31.742,107.025 Q17.427,105.889 12.667,105.456 Q8.834,105.108 7.323,104.898 Q6.102,104.729 5.578,104.458 Q3.47,103.369 4.378,101.202 Q4.86,100.052 6.096,99.712 Q6.238,99.673 6.41,99.644 Q27.663,88.853 69.425,80.089 Q82.627,77.318 86.288,76.075 Q87.657,75.61 88.43,75.224 Q82.316,71.056 38.261,59.946 Q35.812,59.328 36.429,56.878 Q36.738,55.654 37.505,55.196 Q38.272,54.738 39.497,55.047 Z"/>
  <path fill="rgb(76.078431%, 38.039216%, 2.745098%)" opacity="0.189" d="M262.095,190.548 Q270.217,190.123 280.138,189.622 Q279.042,184.783 279.099,179.156 Q279.121,177.051 279.057,176.675 L279.07,176.82 Q276.657,172.823 265.211,166.04 Q258.235,161.906 256.226,154.051 Q254.216,146.195 258.35,139.219 Q262.484,132.243 270.34,130.234 Q278.196,128.224 285.172,132.358 Q305.087,144.16 312.588,156.584 Q318.381,166.18 318.25,179.534 Q321.042,181.481 329.178,184.888 Q331.127,185.704 332.783,186.83 Q337.843,186.492 340.217,186.244 Q346.734,185.562 359.513,182.589 Q379.318,177.982 399.51,173.928 Q407.46,172.332 414.21,176.825 Q420.96,181.318 422.556,189.268 Q425.48,203.827 412.246,210.566 Q391.61,221.074 362.367,238.078 Q345.049,248.147 338.761,251.168 Q322.385,259.034 311.238,254.544 Q295.35,248.143 296.377,228.009 Q277.73,228.936 264.14,229.647 Q256.042,230.071 250.017,224.644 Q243.991,219.218 243.568,211.12 Q243.144,203.022 248.571,196.997 Q253.997,190.972 262.095,190.548 Z"/>
  <path fill="rgb(0%, 2.352941%, 10.980392%)" d="M122.799,59.628 Q115.499,60.634 109.183,61.089 Q112.434,64.773 115.563,69.209 Q117.515,71.977 117.107,74.337 Q116.699,76.697 113.931,78.649 Q108.396,82.553 104.492,77.017 Q96.629,65.869 88.406,60.786 Q84.431,60.226 81.866,59.237 Q79.781,58.432 78.491,57.232 Q76.514,55.392 76.213,52.799 Q75.7,48.373 79.531,46.045 Q84.22,43.195 92.704,47.644 Q103.46,48.617 120.951,46.208 Q124.306,45.745 126.215,47.192 Q128.123,48.638 128.585,51.994 Q129.51,58.704 122.799,59.628 Z"/>
  <path fill="rgb(59.607843%, 82.352941%, 0%)" opacity="0.512" d="M213.904,22.898 Q185.157,25.624 148.275,29.566 Q118.304,32.769 115.327,32.293 Q114.357,32.137 113.81,31.689 Q112.53,30.639 113.328,29.165 Q113.803,28.288 115.675,27.257 Q117.605,26.195 125.397,22.769 Q163.761,5.9 188.553,-11.322 Q189.753,-12.155 190.766,-11.104 Q218.722,17.91 231.047,44.639 Q237.83,59.348 240.316,76.218 Q241.066,81.31 241.17,81.304 Q242.296,81.238 250.918,74.343 Q255.463,70.708 258.35,68.45 Q259.701,67.394 260.757,68.745 Q261.285,69.42 261.211,70.022 Q261.137,70.623 260.462,71.151 Q257.59,73.397 253.059,77.02 Q243.586,84.596 241.371,84.727 Q238.132,84.917 236.924,76.717 Q234.51,60.336 227.934,46.075 Q222.669,34.658 214.467,22.787 Q214.217,22.868 213.904,22.898 Z M212.228,19.613 Q202.607,6.254 189.304,-7.675 Q164.52,9.311 126.777,25.907 Q122.741,27.682 120.334,28.796 Q127.951,28.29 147.911,26.157 Q183.948,22.305 212.228,19.613 Z"/>
  <path fill="rgb(36.862745%, 0%, 0%)" d="M234.956,58.161 Q228.853,44.108 221.27,32.264 Q211.443,20.585 211.922,17.618 Q212.261,15.52 214.114,14.489 Q215.597,13.664 217.256,14.056 Q218.154,14.268 218.938,14.842 Q219.386,15.17 219.913,15.714 Q220.649,16.475 221.723,17.817 Q224.25,20.975 227.29,25.579 Q227.438,25.804 227.589,26.034 Q228.698,27.339 229.936,28.763 Q244.306,45.298 268.129,68.972 Q269.671,70.504 269.675,72.04 Q269.68,73.577 268.149,75.118 Q265.086,78.2 262.003,75.137 Q251.635,64.833 243.412,56.344 Q243.545,57.321 243.229,58.121 Q242.665,59.55 240.672,60.416 Q236.687,62.146 234.956,58.161 Z"/>
  <path fill="rgb(0%, 4.705882%, 15.686275%)" d="M213.638,228.517 Q213.674,229.383 213.727,230.208 Q213.852,230.266 213.974,230.328 Q217.245,231.987 218.857,236.918 Q221.978,246.468 221.557,251.366 Q221.293,254.437 219.792,256.842 Q216.38,262.311 209.987,261.973 Q204.6,261.688 200.842,256.71 Q193.644,247.176 192.909,229.374 Q192.694,224.191 195.178,221.493 Q197.663,218.795 202.845,218.58 Q208.027,218.366 210.726,220.85 Q213.424,223.334 213.638,228.517 Z"/>
  <path fill="rgb(62.352941%, 64.705882%, 58.431373%)" opacity="0.344" d="M362.793,86.259 Q360.082,68.633 359.991,57.825 Q359.866,42.907 366.247,36.394 Q371.605,30.926 379.169,31.098 Q385.2,31.235 390.016,35.136 Q393.859,38.249 396.357,43.628 Q399.385,50.152 400.592,59.546 Q401.463,66.325 397.286,71.734 Q395.996,73.404 394.458,74.641 Q394.875,77.764 395.41,81.241 Q396.449,87.996 392.407,93.508 Q388.366,99.019 381.61,100.058 Q374.855,101.098 369.344,97.056 Q363.832,93.014 362.793,86.259 Z"/>
  <path fill="rgb(100%, 100%, 59.215686%)" d="M126.413,82.362 Q127.063,112.814 117.878,171.563 Q111.837,210.206 112.575,221.49 Q112.805,225.005 113.422,227.265 Q115.18,227.145 117.158,227.063 Q116.347,225.119 115.272,223.028 Q112.729,218.081 117.675,215.538 Q122.622,212.994 125.166,217.941 Q127.774,223.015 129.166,227.642 Q129.612,227.904 129.968,228.258 Q131.364,229.643 131.375,232.424 Q131.378,233.397 131.052,234.313 Q130.854,234.868 130.671,235.397 Q131.11,241.059 129.376,245.925 Q127.677,250.691 123.529,250.855 Q119.113,251.03 117.726,246.676 Q117.346,245.482 117.363,243.937 Q117.371,243.234 117.455,242.425 Q113.776,242.472 110.828,241.029 Q107.719,240.889 105.793,240.674 Q102.128,240.265 100.491,238.907 Q97.986,236.829 98.47,233.646 Q98.833,231.268 100.827,229.828 Q101.514,229.332 102.432,228.98 Q101.718,225.941 101.474,222.216 Q100.656,209.704 106.887,169.845 Q115.92,112.068 115.291,82.599 Q115.172,77.038 120.733,76.919 Q123.513,76.86 124.933,78.221 Q126.353,79.581 126.413,82.362 Z"/>
  <path fill="rgb(64.705882%, 77.254902%, 100%)" opacity="0.157" d="M206.015,237.993 Q267.431,227.401 317.206,209.731 Q324.395,207.179 327.032,206.419 Q341.181,202.342 350.851,210.155 Q362.212,219.335 358.671,233.785 Q357.78,237.425 355.615,241.254 Q354.302,243.578 350.407,249.273 Q349.146,251.117 347.938,252.922 Q346.61,259.595 340.53,264.563 Q340.01,267.534 339.684,272.804 Q339.507,275.659 339.308,277.017 Q336.731,294.561 319.363,296.321 Q307.638,297.509 300.027,288.499 Q299.925,288.378 299.825,288.256 Q302.546,293.949 306.916,301.681 Q311.465,309.731 308.99,318.641 Q306.514,327.55 298.464,332.1 Q290.413,336.649 281.504,334.173 Q272.594,331.698 268.045,323.647 Q258.37,306.526 254.493,295.518 Q250.462,284.07 251.15,274.663 Q232.894,278.665 213.603,281.992 Q204.49,283.563 196.935,278.231 Q189.381,272.899 187.809,263.786 Q186.238,254.674 191.57,247.119 Q196.902,239.564 206.015,237.993 Z"/>
  <path fill="rgb(2.745098%, 20.392157%, 10.196078%)" opacity="0.396" d="M317.345,192.45 Q317.154,192.492 316.96,192.526 Q309.072,193.918 306.662,186.242 Q305.813,183.539 306.622,180.322 Q308.576,172.546 316.156,165.564 Q340.168,143.448 386.279,164.236 Q394.488,167.937 390.787,176.146 Q389.513,178.974 386.767,180.417 Q356.361,196.394 331.187,195.203 Q322.861,194.809 317.345,192.45 Z M330.421,177.114 Q331.191,177.174 332.038,177.214 Q343.824,177.771 357.565,173.378 Q340.376,169.831 330.421,177.114 Z"/>
  <path fill="rgb(3.137255%, 0%, 25.490196%)" opacity="0.986" d="M259.218,189.838 Q272.181,201.719 276.69,208.998 Q279.154,212.975 279.274,216.017 Q279.471,221.001 274.978,222.816 Q270.39,224.669 262.174,220.973 Q255.04,217.764 248.756,212.26 Q246.976,210.701 246.865,209.031 Q246.755,207.361 248.314,205.58 Q251.433,202.019 254.994,205.138 Q260.214,209.71 266.058,212.339 Q267.234,212.868 268.161,213.237 Q264.112,207.165 252.821,196.818 Q251.076,195.219 251.003,193.547 Q250.931,191.875 252.53,190.13 Q255.728,186.64 259.218,189.838 Z"/>
  <path fill="rgb(100%, 5.882353%, 11.764706%)" opacity="0.248" d="M180.087,117.886 Q125.042,112.899 118.164,85.169 Q111.822,59.597 149.145,27.815 Q151.73,25.615 154.122,25.806 Q156.515,25.998 158.716,28.583 Q163.117,33.752 157.948,38.153 Q127.024,64.486 131.343,81.9 Q135.894,100.248 181.312,104.364 Q188.073,104.976 187.461,111.738 Q186.848,118.499 180.087,117.886 Z"/>
  <path fill="rgb(51.372549%, 61.568627%, 76.470588%)" opacity="0.238" d="M-10.361,151.844 Q40.212,135.042 86.627,113.408 Q88.459,112.554 90.125,111.787 Q89.996,111.366 89.869,110.949 Q86.209,98.929 86.363,93.184 Q86.589,84.761 91.6,78.104 Q99.659,67.396 113.051,67.774 Q121.346,68.008 127.982,73.021 Q132.866,76.71 135.847,82.535 Q137.157,85.096 138.703,89.313 Q142.765,100.392 147.467,117.988 Q148.5,119.653 149.42,121.495 Q151.622,125.906 154.971,136.504 Q156.384,140.978 157.697,144.867 Q178.6,132.781 211.098,114.56 Q233.153,102.194 244.896,95.561 Q254.228,90.29 264.553,93.161 Q274.879,96.033 280.15,105.364 Q285.421,114.696 282.55,125.022 Q279.678,135.348 270.347,140.619 Q258.531,147.293 236.406,159.698 Q187.376,187.189 165.576,200.237 Q169.74,223.001 173.464,247.678 Q175.063,258.275 168.7,266.9 Q162.338,275.525 151.74,277.124 Q147.893,277.705 144.046,277.128 Q99.45,270.449 83.155,256.728 Q67.286,243.365 69.388,224.008 Q70.884,210.238 82.674,197.125 Q91.019,187.844 108.016,175.807 Q106.518,168.761 104.97,161.944 Q57.454,183.844 5.955,200.953 Q-4.216,204.333 -13.798,199.53 Q-23.379,194.727 -26.758,184.556 Q-30.137,174.385 -25.335,164.804 Q-20.532,155.223 -10.361,151.844 Z"/>
  <path fill="rgb(3.137255%, 0%, 12.156863%)" d="M74.327,274.181 Q74.812,273.072 75.522,271.45 Q72.812,271.518 70.21,268.714 Q67.761,266.074 67.857,263.531 Q67.952,260.987 70.591,258.538 Q71.167,258.004 72.263,256.986 Q79.978,249.822 82.398,247.827 Q84.715,245.917 86.313,245.086 Q93.047,241.582 96.903,247.435 Q99.481,251.346 96.186,259.794 Q94.837,263.251 89.91,274.492 Q88.369,278.01 87.524,279.944 Q86.084,283.243 83.714,284.172 Q81.344,285.102 78.044,283.661 Q71.446,280.78 74.327,274.181 Z"/>
  <path fill="rgb(85.098039%, 100%, 90.980392%)" opacity="0.099" d="M327.195,24.417 Q324.144,24.529 318.842,24.735 Q299.364,25.494 296.753,24.248 Q292.83,22.376 294.131,18.379 Q294.651,16.783 296.438,15.238 Q297.823,14.04 302.922,10.665 Q327.482,-5.594 343.438,-23.874 Q346.182,-27.018 349.327,-24.273 Q350.899,-22.901 350.999,-21.429 Q351.099,-19.956 349.727,-18.384 Q333.473,0.236 308.878,16.727 Q312.8,16.616 318.517,16.394 Q323.829,16.187 326.891,16.075 Q328.976,15.999 330.057,17.004 Q331.138,18.008 331.214,20.094 Q331.366,24.265 327.195,24.417 Z"/>
  <path fill="rgb(39.215686%, 55.686275%, 15.686275%)" opacity="0.996" d="M175.252,-7.476 Q174.907,-6.678 174.55,-5.784 Q167.175,12.715 159.152,61.363 Q144.615,149.517 131.376,313.054 Q164.322,236.215 177.468,212.445 Q188.927,191.724 203.08,173.696 Q212.331,161.911 236.899,134.372 Q256.576,112.317 269.119,97.861 Q275.547,90.453 282.955,96.881 Q286.659,100.095 286.904,103.554 Q287.149,107.013 283.935,110.717 Q271.304,125.274 251.537,147.431 Q227.379,174.509 218.51,185.808 Q205.33,202.597 194.634,221.938 Q177.742,252.482 126.02,376.045 Q123.294,382.557 116.253,382.039 Q106.471,381.32 107.191,371.538 Q122.558,162.718 139.798,58.172 Q148.166,7.425 156.329,-13.048 Q161.58,-26.219 168.569,-29.718 Q175.264,-33.07 181.67,-29.156 Q185.67,-26.712 188.622,-21.331 Q190.981,-17.032 190.011,-13.702 Q189.041,-10.373 184.741,-8.014 Q179.187,-4.967 175.252,-7.476 Z"/>
  <path fill="rgb(0%, 0%, 7.058824%)" d="M131.41,290.01 Q139.865,286.501 146.225,279.858 Q148.395,277.593 149.821,275.585 Q146.4,277.566 141.533,281.255 Q138.816,283.314 136.427,282.985 Q134.039,282.656 131.98,279.939 Q127.861,274.505 133.295,270.386 Q146.825,260.132 154.819,259.675 Q161.36,259.301 164.475,264.246 Q166.915,268.117 165.639,273.57 Q163.865,281.156 156.076,289.29 Q147.736,298 136.637,302.607 Q130.339,305.221 127.725,298.923 Q126.418,295.773 127.339,293.545 Q128.26,291.317 131.41,290.01 Z"/>
</svg>

