<svg xmlns="http://www.w3.org/2000/svg" width="384" height="384" viewBox="0 0 384 384">
  <defs/>
  <path fill="rgb(100%, 5.882353%, 8.235294%)" opacity="0.93" d="M274.279,170.848 Q270.335,161.737 268.059,154.673 Q261.861,135.433 265.896,122.806 Q271.53,105.177 291.049,101.57 Q297.667,100.347 311.166,101.054 Q318.096,101.418 321.363,101.372 Q329.878,101.252 336.249,106.904 Q342.62,112.555 343.517,121.025 Q351.589,197.328 334.938,224.968 Q326.82,238.445 313.128,240.054 Q298.323,241.795 287.605,229.026 Q277.266,216.709 271.136,187.408 Q269.273,178.502 274.253,170.887 Q274.268,170.864 274.279,170.848 Z"/>
  <path fill="rgb(0%, 38.431373%, 23.921569%)" opacity="0.607" d="M276.957,385.203 Q283.262,387.871 295.168,388.749 Q303.95,386.596 315.033,382.689 Q330.974,377.07 338.975,376.997 Q351.726,376.881 366.357,386.514 Q367.073,386.985 367.195,387.578 Q367.317,388.172 366.846,388.888 Q365.903,390.32 364.471,389.377 Q350.713,380.319 339.006,380.426 Q331.576,380.493 316.173,385.923 Q310.364,387.97 305.166,389.546 Q313.268,390.638 316.218,393.301 Q322.678,399.129 318.666,416.495 Q318.281,418.166 316.61,417.78 Q315.91,417.618 315.534,417.004 Q304.898,399.628 290.426,393.315 Q288.672,393.662 287.021,393.928 Q266.607,397.222 242.026,393.926 Q240.844,393.767 240.582,392.604 Q240.393,391.767 240.717,391.255 Q241.041,390.743 241.877,390.554 Q262.037,386.009 274.611,386.383 Q274.652,386.251 274.71,386.113 Q275.379,384.534 276.957,385.203 Z M295.98,392.242 Q307.29,398.578 316.153,411.637 Q318.19,399.698 313.921,395.846 Q310.778,393.009 298.244,392.374 Q297.09,392.316 295.98,392.242 Z M283.512,390.982 Q282.171,390.655 280.801,390.412 Q270.999,388.673 253.605,391.692 Q269.552,392.873 283.512,390.982 Z"/>
  <path fill="rgb(25.098039%, 100%, 0%)" d="M98.66,218.853 Q98.547,218.458 98.44,218.059 Q94.827,204.595 103.089,198.44 Q112.021,191.784 132.66,198.791 Q135.134,199.631 135.951,201.288 Q136.768,202.944 135.928,205.418 Q134.248,210.365 129.301,208.686 Q113.862,203.443 109.332,206.818 Q106.757,208.737 108.532,215.351 Q109.99,220.786 112.995,225.181 Q115.337,226.651 118.644,228.264 Q121.112,227.788 123.136,230.327 Q128.255,232.556 135.029,235.03 Q150.955,240.845 191.533,252.441 Q252.836,269.959 266.7,278.54 Q273.141,282.527 275.198,286.788 Q278.276,293.164 272.99,298.615 Q265.944,305.88 238.31,311.386 Q236.934,311.66 235.606,311.208 Q136.669,277.545 117.738,266.598 Q102.375,257.714 102.535,248.054 Q102.629,242.383 108.46,236.137 Q108.058,235.723 107.654,235.271 Q106.296,233.751 105.105,232.123 Q99.752,228.218 98.066,224.428 Q96.509,220.928 98.66,218.853 Z M118.739,240.683 Q113.028,245.505 112.982,248.227 Q112.924,251.744 122.968,257.552 Q140.886,267.912 237.639,300.862 Q260.845,296.129 265.489,291.34 L265.788,291.331 Q265.054,289.81 261.201,287.425 Q248.57,279.607 188.662,262.488 Q147.723,250.789 131.445,244.845 Q125.173,242.555 120.053,240.3 Q119.43,240.565 118.739,240.683 Z"/>
  <path fill="rgb(90.980392%, 100%, 19.607843%)" opacity="0.427" d="M269.352,176.79 Q251.071,179.228 240.786,177.178 Q233.498,175.726 218.968,168.605 Q202.756,160.659 189.397,155.355 Q185.605,153.849 187.11,150.057 Q188.616,146.265 192.408,147.77 Q206.062,153.192 222.559,161.277 Q236.135,167.931 242.381,169.175 Q251.336,170.96 268.273,168.702 Q272.318,168.163 272.857,172.207 Q273.396,176.251 269.352,176.79 Z"/>
  <path fill="rgb(14.509804%, 0%, 16.470588%)" opacity="0.711" d="M251.278,105.022 Q272.779,103.675 291.636,110.821 Q313.203,118.994 325.661,136.422 Q355.619,178.331 323.146,255.82 Q320.037,263.24 312.617,260.13 Q305.198,257.021 308.307,249.602 Q337.312,180.388 312.572,145.779 Q302.947,132.313 285.935,125.866 Q270.322,119.95 252.284,121.08 Q244.255,121.583 243.752,113.554 Q243.501,109.539 245.382,107.406 Q247.264,105.273 251.278,105.022 Z"/>
  <path fill="rgb(4.313725%, 34.509804%, 0%)" opacity="0.985" d="M295.573,175.808 Q290.048,170.335 279.453,159.951 Q254.172,135.173 252.894,131.891 Q251.03,127.108 254.526,123.479 Q257.785,120.095 262.414,121.378 Q263.871,121.782 265.708,122.936 Q267.811,124.257 272.146,127.562 Q280.621,134.024 299.902,149.788 Q302.903,152.242 303.176,154.968 Q303.416,157.352 301.571,159.945 Q304.39,162.721 306.482,164.794 Q311.989,170.249 306.534,175.756 Q301.079,181.263 295.573,175.808 Z"/>
  <path fill="rgb(3.137255%, 34.901961%, 4.313725%)" d="M326.568,248.798 Q317.317,254.611 294.687,265.409 Q290.253,267.525 286.505,269.367 Q288.578,271.902 287.432,275.77 Q286.699,278.243 284.257,280.268 Q279.418,284.283 264.823,289.122 Q261.836,293.823 261.973,299.886 Q262.122,306.488 255.52,306.637 Q248.918,306.786 248.769,300.184 Q248.62,293.56 250.716,287.889 Q250.593,287.635 250.479,287.363 Q246.323,277.473 262.01,267.487 Q269.031,263.017 288.999,253.49 Q310.939,243.021 319.541,237.616 Q325.133,234.102 328.646,239.694 Q332.159,245.285 326.568,248.798 Z"/>
  <path fill="rgb(76.470588%, 100%, 0%)" opacity="0.97" d="M229.163,112.445 Q296.906,127.171 292.978,182.003 Q292.95,182.39 292.928,182.708 Q293.932,188.371 291.652,194.076 Q288.388,202.243 280.305,205.711 Q272.221,209.178 264.053,205.914 Q255.886,202.65 252.418,194.566 Q249.917,188.735 250.617,178.968 Q251.197,170.874 249.245,167.782 Q243.752,159.078 220.142,153.945 Q211.547,152.077 206.79,144.678 Q202.034,137.28 203.902,128.685 Q205.771,120.09 213.169,115.333 Q220.568,110.577 229.163,112.445 Z"/>
  <path fill="rgb(91.764706%, 100%, 89.803922%)" opacity="0.083" d="M93.431,96.895 Q71.272,88.137 60.246,79.828 Q61.165,92.221 51.704,110.253 Q50.857,111.868 49.243,111.021 Q48.169,110.457 48.273,109.249 Q49.069,100.04 49.437,86.873 Q49.854,71.982 51.849,66.636 Q41.014,61.331 30.499,60.557 Q29.59,60.49 29.169,60.002 Q28.747,59.514 28.814,58.604 Q28.948,56.786 30.767,56.92 Q41.978,57.745 53.434,63.352 Q56.969,57.35 65.272,51.077 Q65.999,50.527 66.638,50.616 Q67.276,50.705 67.826,51.432 Q68.049,51.728 68.14,52.088 Q72.961,71.311 72.722,74.131 Q72.569,75.946 71.376,76.686 Q70.212,77.409 68.59,76.787 Q67.367,76.317 63.75,73.763 Q59.408,70.696 55.116,68.335 Q53.466,73.288 53.083,86.975 Q52.888,93.947 52.573,99.827 Q58.218,86.002 56.117,76.754 Q55.999,76.233 55.971,76.022 Q55.725,74.159 57.439,73.795 Q58.42,73.587 59.834,74.815 Q70.167,83.779 94.772,93.504 Q96.467,94.174 95.797,95.869 Q95.127,97.565 93.431,96.895 Z M56.674,65.03 Q61.245,67.529 65.854,70.784 Q67.975,72.282 69.051,72.932 Q68.683,69.44 65.283,55.704 Q59.365,60.543 56.674,65.03 Z"/>
  <path fill="rgb(35.294118%, 49.803922%, 68.235294%)" opacity="0.216" d="M98.958,252.078 Q94.895,257.928 94.697,260.414 Q94.973,260.587 95.453,260.819 Q100.945,263.478 121.564,263.955 Q131.834,264.192 135.685,264.772 Q140.238,265.457 143.161,267.169 Q151.153,271.852 149.204,280.634 Q146.882,291.096 136.421,288.774 Q132.355,287.872 130.22,285.741 Q127.119,285.522 121.069,285.382 Q95.795,284.797 86.113,280.109 Q74.546,274.509 73.378,263.092 Q72.329,252.848 81.354,239.852 Q84.411,235.451 88.139,234.779 Q91.868,234.106 96.269,237.163 Q105.071,243.276 98.958,252.078 Z"/>
  <path fill="rgb(2.745098%, 4.313725%, 0%)" opacity="0.511" d="M236.899,146.737 Q198.988,139.078 173.393,149.387 Q153.707,157.315 144.558,174.073 Q137.27,187.422 139.98,196.503 Q140.17,197.137 140.376,197.555 Q141.278,197.187 142.519,196.229 Q148.637,191.506 153.361,197.624 Q155.722,200.684 155.373,203.394 Q155.025,206.104 151.965,208.466 Q143.486,215.012 135.603,212.555 Q127.924,210.161 125.167,200.924 Q120.614,185.669 130.99,166.665 Q142.794,145.045 167.618,135.047 Q197.51,123.008 239.96,131.584 Q247.537,133.114 246.006,140.691 Q244.476,148.267 236.899,146.737 Z"/>
  <path fill="rgb(0.392157%, 14.509804%, 30.196078%)" opacity="0.692" d="M61.176,217.347 Q77.114,219.143 80.234,223.492 Q82.139,226.147 79.924,228.954 Q78.345,230.954 74.606,232.726 Q67.312,236.185 56.375,237.393 Q44.371,238.719 35.439,236.258 Q33.786,235.803 34.242,234.15 Q34.47,233.324 34.997,233.024 Q35.524,232.725 36.35,232.953 Q44.648,235.239 55.998,233.985 Q66.364,232.84 73.138,229.628 Q76.152,228.199 77.232,226.83 Q77.849,226.049 77.448,225.49 Q75.216,222.379 60.792,220.754 Q59.089,220.562 59.281,218.859 Q59.473,217.155 61.176,217.347 Z"/>
  <path fill="rgb(32.941176%, 43.921569%, 0%)" d="M253.342,214.269 Q263.33,217.893 271.04,219.732 Q270.983,219.547 270.93,219.359 Q269.42,214.01 272.135,209.16 Q274.85,204.31 280.199,202.801 Q281.465,202.444 282.471,202.063 Q279.83,199.232 277.832,198.757 Q272.425,197.471 269.511,192.738 Q266.597,188.005 267.883,182.598 Q269.748,174.758 277.545,172.721 Q289.212,169.672 299.439,176.106 Q308.771,181.977 311.797,192.458 Q312.794,195.912 312.926,199.231 Q318.219,209.63 318.159,219.844 Q318.101,229.755 312.572,236.935 Q306.582,244.716 295.71,247.247 Q277.339,251.523 244.189,239.497 Q238.965,237.601 236.61,232.566 Q234.256,227.531 236.152,222.307 Q238.047,217.082 243.082,214.728 Q248.117,212.373 253.342,214.269 Z"/>
  <path fill="rgb(96.470588%, 89.803922%, 65.490196%)" opacity="0.091" d="M90.73,155.89 Q60.909,135.868 49.016,126.035 Q40.769,119.216 30.31,107.428 Q16.621,91.998 1.168,77.029 Q-9.553,104.463 0.672,126.99 Q6.748,140.376 24.978,157.379 Q28.915,161.051 31.308,163.605 Q32.37,156.278 32.951,150.363 Q32.84,149.656 32.742,148.947 Q31.294,138.538 32.585,133.659 Q33.059,131.869 34.324,131.534 Q35.751,131.156 36.584,132.46 Q36.849,132.874 37.008,133.509 Q37.474,135.369 37.371,140.046 Q37.274,144.488 36.722,150.245 Q38.7,162.473 44.318,173.955 Q45.141,175.636 43.459,176.459 Q42.619,176.87 41.993,176.655 Q41.367,176.441 40.955,175.6 Q37.535,168.61 35.407,161.349 Q34.999,164.317 34.508,167.527 Q37.992,173.276 32.365,176.763 Q31.569,177.256 30.925,177.105 Q30.281,176.953 29.788,176.158 Q29.415,175.557 29.533,174.86 Q30.094,171.537 30.579,168.439 Q28.489,165.773 22.425,160.117 Q3.648,142.604 -2.737,128.537 Q-14.111,103.479 -1.248,73.033 Q-1.113,72.715 -0.874,72.466 Q0.422,71.115 1.773,72.411 Q18.445,88.413 33.111,104.943 Q43.377,116.515 51.402,123.15 Q63.151,132.864 92.817,152.782 Q94.371,153.825 93.328,155.379 Q92.284,156.934 90.73,155.89 Z"/>
  <path fill="rgb(60.392157%, 83.137255%, 14.509804%)" opacity="0.74" d="M-10.295,99.714 Q-10.824,100.205 -11.844,101.148 Q-19.491,108.222 -21.265,110.718 Q-23.436,113.771 -22.104,116.027 Q-19.59,120.282 9.875,135.771 Q39.477,151.332 61.128,163.558 Q62.621,164.401 61.778,165.894 Q61.356,166.64 60.773,166.803 Q60.189,166.965 59.442,166.544 Q37.836,154.343 8.28,138.806 Q-22.048,122.864 -25.056,117.77 Q-27.52,113.598 -24.06,108.731 Q-22.08,105.947 -14.173,98.632 Q-13.157,97.692 -12.627,97.2 Q-11.998,96.617 -11.393,96.64 Q-10.787,96.663 -10.204,97.291 Q-9.038,98.548 -10.295,99.714 Z"/>
  <path fill="rgb(1.568627%, 16.862745%, 24.313725%)" opacity="0.671" d="M257.8,77.689 Q267.501,83.085 286.103,89.874 Q287.353,90.33 287.222,91.653 Q287.053,93.359 285.347,93.19 Q264.249,91.102 247.995,90.472 Q239.227,98.171 226.506,101.044 Q209.469,104.891 200.207,99.491 Q198.042,98.228 197.46,96.569 Q196.717,94.45 198.51,92.628 Q201.294,89.799 210.588,88.314 Q223.854,86.193 246.708,86.997 Q250.511,83.435 253.463,78.841 Q244.034,72.857 243.804,67.897 Q243.396,59.099 266.297,56.851 Q286.295,54.888 296.174,58.288 Q298.942,59.24 299.589,60.805 Q300.518,63.05 297.701,64.828 Q293.805,67.287 280.541,69.763 Q279.699,69.921 279.199,69.578 Q278.699,69.235 278.541,68.393 Q278.227,66.708 279.912,66.393 Q292.531,64.037 295.871,61.929 Q295.922,61.897 295.969,61.866 Q295.636,61.729 295.059,61.53 Q285.886,58.373 266.632,60.263 Q246.972,62.193 247.229,67.738 Q247.399,71.395 255.367,76.272 Q255.455,76.234 255.546,76.21 Q256.132,76.056 256.872,76.488 Q257.725,76.986 257.8,77.689 Z M242.689,90.302 Q222.953,89.809 211.129,91.699 Q202.948,93.007 200.954,95.033 Q200.66,95.332 200.696,95.435 Q200.859,95.902 201.934,96.529 Q210.03,101.249 225.75,97.699 Q235.463,95.506 242.689,90.302 Z M251.357,87.186 Q261.512,87.653 273.411,88.652 Q263.12,84.43 256.405,80.606 Q254.118,84.185 251.357,87.186 Z"/>
  <path fill="rgb(50.588235%, 100%, 11.372549%)" opacity="0.657" d="M314.062,32.953 Q342.275,45.294 384.841,56.474 Q403.985,61.503 410.304,64.104 Q420.733,68.396 422.589,74.644 Q424.574,81.332 417.505,92.354 Q412.077,100.817 399.334,114.936 Q400.381,118.25 398.51,119.771 Q397.128,120.895 394.219,120.514 Q394.116,120.625 394.032,120.715 Q393.177,121.633 392.043,121.096 Q364.834,108.205 345.662,100.375 Q343.621,99.541 342.105,98.945 Q341.445,98.697 340.941,98.499 Q340.882,98.476 340.846,98.462 Q340.815,98.449 340.79,98.438 Q340.748,98.42 340.71,98.4 Q340.631,98.361 340.557,98.315 Q340.4,98.216 340.269,98.087 Q340.013,97.836 339.879,97.503 Q339.459,96.456 340.254,95.656 Q341.035,94.869 342.172,95.295 Q342.445,95.397 342.989,95.609 Q343.16,95.676 343.339,95.746 Q345.699,96.633 350.13,98.187 Q350.156,98.196 350.181,98.206 Q357.07,100.872 371.73,107.783 Q387.822,115.369 392.688,116.699 Q392.849,116.743 393.002,116.783 Q394.196,115.488 395.336,114.229 Q395.044,113.553 395.219,113.034 Q395.413,112.46 396.182,112.08 Q396.904,111.724 397.454,111.873 Q421.914,84.416 419.302,75.62 Q417.913,70.943 408.999,67.274 Q402.892,64.76 383.97,59.791 Q341.146,48.543 312.688,36.094 Q311.903,35.751 311.682,35.186 Q311.461,34.622 311.804,33.836 Q312.491,32.266 314.062,32.953 Z"/>
  <path fill="rgb(40%, 76.470588%, 1.960784%)" opacity="0.593" d="M159.749,93.161 Q130.182,64.717 121.895,55.068 Q121.381,54.605 120.933,54.21 Q120.027,53.412 119.545,53.032 Q119.355,52.883 119.287,52.84 Q119.797,53.161 120.272,53.1 Q118.355,50.643 118.728,50.208 Q119.845,48.906 121.665,50.338 Q122.222,50.776 123.2,51.637 Q125.174,53.377 128.366,56.39 Q135.943,63.54 144.282,72.029 Q145.183,72.947 144.719,73.853 Q152.341,81.277 162.126,90.69 Q163.361,91.879 162.173,93.114 Q160.984,94.35 159.749,93.161 Z"/>
  <path fill="rgb(61.568627%, 100%, 44.705882%)" opacity="0.76" d="M83.667,52.606 Q91.935,63.688 92.881,65.554 Q93.6,66.97 92.559,67.939 Q91.289,69.121 89.892,67.843 Q89.512,67.496 88.685,66.52 Q87.039,64.579 83.74,60.342 Q64.182,35.218 27.242,-16.754 Q26.709,-17.504 26.817,-18.146 Q26.926,-18.788 27.676,-19.321 Q27.756,-19.378 27.841,-19.426 Q62.461,-38.857 91.289,-33.668 Q112.239,-29.897 127.498,-14.024 Q130.116,-14.734 130.574,-15.318 Q130.583,-15.33 130.312,-16.241 Q128.286,-23.029 137.656,-29.227 Q138.424,-29.735 139.062,-29.605 Q139.7,-29.475 140.207,-28.707 Q141.223,-27.171 139.687,-26.156 Q132.595,-21.465 133.84,-17.294 Q134.656,-14.557 133.471,-13.046 Q132.141,-11.351 127.341,-10.184 Q126.296,-9.93 125.561,-10.716 Q110.903,-26.397 90.636,-30.045 Q63.85,-34.866 31.437,-17.207 Q63.161,27.392 81.831,51.834 Q82.163,51.73 82.472,51.775 Q83.116,51.869 83.667,52.606 Z"/>
  <path fill="rgb(100%, 90.588235%, 87.45098%)" opacity="0.02" d="M33.965,63.25 Q54.556,78.839 51.853,88.983 Q51.209,91.401 49.024,92.269 Q47.052,93.053 44.402,92.219 Q39.148,90.567 33.219,83.519 Q32.103,82.192 33.43,81.075 Q34.758,79.958 35.874,81.286 Q41.152,87.56 45.443,88.91 Q46.917,89.373 47.743,89.045 Q48.306,88.821 48.501,88.09 Q49.248,85.284 45.757,79.949 Q41.322,73.171 31.871,66.016 Q30.488,64.969 31.535,63.586 Q32.058,62.894 32.666,62.81 Q33.274,62.726 33.965,63.25 Z"/>
  <path fill="rgb(100%, 100%, 16.078431%)" opacity="0.214" d="M389.338,156.802 Q379.344,154.945 375.134,158.512 Q372.013,161.156 366.549,173.138 Q358.357,191.105 350.137,202.692 Q347.421,206.521 343.593,203.805 Q341.679,202.447 341.4,200.811 Q341.122,199.175 342.48,197.261 Q350.184,186.4 358.008,169.243 Q364.342,155.351 369.065,151.349 Q376.676,144.9 391.053,147.573 Q395.668,148.431 394.81,153.045 Q393.952,157.66 389.338,156.802 Z"/>
  <path fill="rgb(0%, 48.235294%, 22.352941%)" opacity="0.964" d="M125.78,198.35 Q128.664,180.503 139.513,171.693 Q138.931,171.533 138.338,171.368 Q133.424,169.999 134.792,165.084 Q136.161,160.17 141.076,161.538 Q149.003,163.746 154.449,164.924 Q157.684,164.409 161.12,164.56 Q165.301,164.745 167.688,165.902 Q168.916,166.498 169.718,167.421 Q172.329,170.426 170.219,173.749 Q168.689,176.159 165.18,176.419 Q161.617,176.683 154.536,175.316 Q150.596,176.26 147.121,178.722 Q138.275,184.988 135.853,199.978 Q135.039,205.014 130.003,204.2 Q124.966,203.387 125.78,198.35 Z"/>
  <path fill="rgb(46.27451%, 44.313725%, 4.705882%)" opacity="0.639" d="M223.255,142.292 Q239.387,145.876 251.96,155.946 Q274.713,174.171 275.127,202.051 Q275.33,215.715 269.111,226.606 Q261.502,239.928 247.314,244.501 Q222.515,252.491 194.314,229.18 Q188.297,227.597 179.649,225.396 Q155.363,219.215 147.22,215.877 Q121.239,205.23 124.193,182.93 Q125.187,175.425 130.97,167.587 Q132.278,157.327 142.388,146.651 Q152.021,136.478 166.615,129.071 Q183.395,120.556 199.935,119.534 Q209.013,118.973 215.828,124.995 Q222.644,131.017 223.205,140.095 Q223.274,141.216 223.255,142.292 Z M197.389,184.606 Q205.355,186.656 210.552,188.059 Q215.622,189.426 219.524,192.94 Q226.088,198.85 231.126,201.236 Q230.428,194.965 224.507,190.222 Q215.197,182.766 197.389,184.606 Z"/>
  <path fill="rgb(63.529412%, 74.509804%, 42.745098%)" opacity="0.958" d="M132.426,393.285 Q29.269,325.078 21.685,330.834 Q21.002,331.353 20.402,331.27 Q19.801,331.188 19.283,330.505 Q18.765,329.823 18.847,329.222 Q18.929,328.622 19.612,328.103 Q29.133,320.876 134.317,390.426 Q135.032,390.898 135.153,391.492 Q135.274,392.086 134.801,392.801 Q133.856,394.231 132.426,393.285 Z"/>
  <path fill="rgb(34.509804%, 87.45098%, 40.392157%)" opacity="0.173" d="M104.227,140.059 Q73.09,112.297 29.858,86.265 Q10.03,74.324 2.722,68.173 Q-9.517,57.87 -14.636,44.379 Q-17.515,36.79 -9.926,33.911 Q-6.94,32.778 -3.982,33.984 Q3.797,37.156 10.855,40.603 Q2.372,32.541 -7.666,23.089 Q-13.575,17.525 -8.011,11.615 Q-5.229,8.661 -2.36,8.574 Q0.508,8.488 3.463,11.27 Q53.336,58.23 65.477,71.522 Q69.147,75.541 70.531,77.727 Q72.577,80.963 72.19,84.158 Q71.588,89.125 67.163,90.864 Q93.761,108.978 115.031,127.941 Q121.089,133.343 115.688,139.402 Q110.286,145.46 104.227,140.059 Z"/>
</svg>

