<svg xmlns="http://www.w3.org/2000/svg" width="384" height="384" viewBox="0 0 384 384">
  <defs/>
  <path fill="rgb(74.509804%, 72.54902%, 87.058824%)" opacity="0.169" d="M222.118,116.124 Q245.65,101.945 267.591,116.011 Q280.813,124.487 293.317,143.306 Q288.884,134.278 282.899,127.383 Q278.745,122.596 277.621,119.74 Q275.878,115.313 277.011,108.372 Q277.151,107.514 277.65,107.155 Q278.149,106.797 279.007,106.937 Q280.11,107.117 280.404,108.195 Q286.045,128.897 305.81,133.615 Q312.811,135.285 319.875,134.521 Q325.603,133.9 326.972,132.61 Q328.237,131.417 329.429,132.682 Q330.025,133.315 330.007,133.929 Q329.989,134.544 329.357,135.14 Q327.138,137.231 320.249,137.977 Q312.588,138.807 305.003,136.997 Q295.057,134.623 288.365,128.598 Q298.2,141.522 303.446,160.558 Q303.816,161.901 302.585,162.555 Q301.05,163.37 300.234,161.835 Q283.513,130.348 265.714,118.938 Q245.593,106.039 223.913,119.102 Q222.424,120 221.527,118.511 Q221.078,117.766 221.226,117.169 Q221.374,116.573 222.118,116.124 Z"/>
  <path fill="rgb(23.137255%, 11.764706%, 0.784314%)" opacity="0.721" d="M239.335,218.173 Q241.392,193.781 243.461,179.36 Q229.833,180.963 216.01,175.027 Q214.382,174.364 212.989,173.856 Q210.196,173.527 208.152,172.896 Q206.934,172.52 206.133,172.054 Q204.652,171.191 203.954,169.728 Q202.658,167.013 204.401,164.568 Q205.431,163.123 207.152,162.619 Q209.352,161.973 215.149,163.918 Q232.143,165.469 249.856,152.644 Q252.436,150.777 254.567,151.711 Q254.63,151.212 254.695,150.656 Q255.278,145.659 260.278,146.219 Q272.68,147.61 272.529,157.536 Q272.414,165.095 263.687,171.635 Q259.311,174.915 254.051,176.869 Q251.759,191.15 249.408,219.023 Q248.983,224.059 243.946,223.634 Q238.91,223.209 239.335,218.173 Z M245.23,168.863 Q245.408,167.994 245.585,167.198 Q243.213,168.441 240.841,169.463 Q241.592,169.403 242.341,169.314 Q243.823,169.137 245.23,168.863 Z"/>
  <path fill="rgb(26.27451%, 14.509804%, 0%)" opacity="0.2" d="M290.5,310.707 Q302.647,154.116 309.083,137.285 Q310.297,134.111 312.16,131.855 Q319.256,123.263 329.453,127.264 Q337.282,130.336 339.537,140.215 Q340.867,146.043 341.652,160.156 Q343.077,185.766 343.216,243.989 Q343.23,250.058 338.949,254.36 Q334.667,258.662 328.597,258.677 Q326.232,258.683 324.135,258.036 Q322.063,282.761 319.719,312.973 Q319.25,319.025 314.639,322.972 Q310.028,326.919 303.976,326.449 Q297.925,325.98 293.978,321.369 Q290.03,316.758 290.5,310.707 Z"/>
  <path fill="rgb(11.764706%, 3.529412%, 4.705882%)" opacity="0.832" d="M421.817,130.542 Q396.773,130.838 368.368,123.048 Q352.125,118.593 325.942,108.323 Q303.306,99.443 298.445,100.029 Q295.79,100.35 295.586,103.182 Q295.293,107.241 298.857,116.306 Q299.42,117.737 298.058,118.452 Q295.293,119.902 292.952,118.455 Q291.063,117.288 289.77,114.193 Q287.735,109.322 286.837,98.845 Q285.757,86.248 286.28,56.131 Q286.499,43.561 286.397,37.952 Q286.333,38.172 286.268,38.399 Q284.299,45.297 280.83,61.702 Q280.475,63.38 278.798,63.025 Q277.959,62.848 277.628,62.34 Q277.298,61.832 277.475,60.993 Q280.969,44.471 282.971,37.458 Q283.976,33.937 284.717,32.417 Q285.21,31.405 285.768,30.95 Q287.272,29.722 288.571,31.117 Q290.116,32.776 289.709,56.191 Q289.188,86.131 290.253,98.552 Q291.106,108.495 292.934,112.871 Q293.802,114.95 294.754,115.538 Q294.839,115.591 294.93,115.628 Q291.853,107.281 292.166,102.936 Q292.573,97.284 298.035,96.626 Q303.753,95.936 327.194,105.131 Q353.207,115.335 369.275,119.741 Q397.214,127.403 421.777,127.114 Q422.634,127.104 423.067,127.527 Q423.501,127.951 423.511,128.808 Q423.531,130.522 421.817,130.542 Z"/>
  <path fill="rgb(21.568627%, 3.921569%, 5.490196%)" opacity="0.37" d="M280.894,412.681 Q294.19,378.029 292.959,359.019 Q292.589,353.31 294.996,351.005 Q296.699,349.375 304.247,346.761 Q314.839,343.094 324.15,339.292 Q327.8,337.801 329.29,341.451 Q330.781,345.101 327.131,346.591 Q317.621,350.475 306.827,354.212 Q301.864,355.93 300.74,356.516 Q300.737,357.109 300.827,358.509 Q302.17,379.241 288.255,415.506 Q286.843,419.187 283.162,417.775 Q279.481,416.362 280.894,412.681 Z"/>
  <path fill="rgb(74.901961%, 46.27451%, 2.352941%)" opacity="0.258" d="M99.802,221.334 Q114.4,228.269 119.662,231.197 Q122.662,232.867 123.609,233.772 Q124.898,235.004 124.281,236.312 Q123.738,237.464 122.105,237.497 Q118.826,237.561 84.289,227.801 Q32.941,213.29 -3.242,204.016 Q-4.903,203.59 -4.477,201.93 Q-4.264,201.1 -3.743,200.791 Q-3.221,200.482 -2.391,200.695 Q33.833,209.98 85.221,224.502 Q105.919,230.351 115.058,232.624 Q109.429,229.703 98.331,224.431 Q97.557,224.064 97.353,223.492 Q97.15,222.921 97.518,222.147 Q98.254,220.599 99.802,221.334 Z"/>
  <path fill="rgb(14.509804%, 0%, 6.27451%)" d="M380.215,78.425 Q374.411,76.072 368.804,77.972 Q367.595,78.382 367.059,78.399 Q364.972,78.467 364.842,76.339 Q364.781,75.353 366.281,70.434 Q375.118,41.456 384.094,-5.432 Q384.416,-7.115 386.1,-6.793 Q386.942,-6.632 387.282,-6.13 Q387.622,-5.629 387.461,-4.787 Q378.452,42.281 369.561,71.434 Q368.993,73.294 368.674,74.422 Q375.015,72.617 381.503,75.247 Q382.298,75.569 382.534,76.127 Q382.77,76.686 382.448,77.48 Q381.804,79.069 380.215,78.425 Z"/>
  <path fill="rgb(85.490196%, 83.921569%, 71.764706%)" opacity="0.037" d="M297.386,294.046 Q294.994,295.161 290.706,297.198 Q278.445,303.02 274.481,304.095 Q267.481,305.995 264.885,301.498 Q262.701,297.715 263.168,286.525 Q263.468,279.348 265.746,256.484 Q268.867,225.161 270.556,203.274 Q270.558,203.246 270.561,203.218 Q269.358,202.843 268.084,202.457 Q266.439,201.959 266.937,200.314 Q267.186,199.492 267.722,199.205 Q268.258,198.918 269.08,199.168 Q270.078,199.47 271.032,199.765 Q271.577,195.244 271.913,189.579 Q272.467,180.226 275.856,179.556 Q278.489,179.036 291.035,184.822 Q310.501,193.801 327.895,200.546 Q329.497,201.167 328.876,202.77 Q328.481,203.789 327.39,203.863 Q296.083,205.995 290.171,209.35 Q288.808,210.124 286.96,209.227 Q282.577,207.099 273.925,204.287 Q272.239,225.998 269.167,256.825 Q265.325,295.385 267.862,299.779 Q269.135,301.984 273.581,300.778 Q277.248,299.782 289.231,294.092 Q293.531,292.051 295.934,290.931 Q297.492,290.204 298.218,291.762 Q298.944,293.32 297.386,294.046 Z M274.366,200.817 Q283.718,203.832 288.461,206.134 L288.475,206.361 Q294.261,203.077 319.682,200.992 Q305.306,195.19 289.595,187.944 Q278.062,182.624 276.523,182.928 Q275.741,183.083 275.344,189.782 Q274.979,195.952 274.366,200.817 Z"/>
  <path fill="rgb(100%, 100%, 100%)" opacity="0.061" d="M69.758,39.938 Q64.788,30.855 55.544,25.884 Q53.621,24.85 54.655,22.927 Q55.172,21.965 55.912,21.743 Q56.651,21.521 57.612,22.038 Q68.596,27.945 74.212,39.026 Q76.44,43.422 75.775,45.21 Q75.412,46.184 74.476,46.575 Q73.579,46.949 72.651,46.568 Q71.975,46.289 71.341,45.546 Q70.524,44.59 69.423,42.516 Q68.911,41.552 69.137,40.814 Q69.287,40.326 69.758,39.938 Z"/>
  <path fill="rgb(39.607843%, 25.490196%, 5.098039%)" opacity="0.483" d="M199.388,76.833 Q201.222,79.343 201.44,81.245 Q201.71,83.611 199.81,84.946 Q197.403,86.637 191.049,86.007 Q183.985,85.307 167.488,80.849 Q163.441,79.755 162.117,79.439 Q161.307,79.245 160.844,79.164 Q160.731,79.211 160.614,79.235 Q160.02,79.356 159.305,78.883 Q157.875,77.938 158.82,76.508 Q159.691,75.19 168.382,77.539 Q184.605,81.923 191.388,82.595 Q196.474,83.1 197.839,82.141 Q198.072,81.977 198.033,81.634 Q197.919,80.634 196.62,78.855 Q195.608,77.471 196.993,76.459 Q197.685,75.954 198.284,76.047 Q198.883,76.14 199.388,76.833 Z"/>
  <path fill="rgb(90.196078%, 100%, 50.196078%)" opacity="0.242" d="M355.577,381.592 Q356.459,376.707 357.536,372.12 Q357.278,372.165 357.018,372.209 Q352.551,372.957 348.864,370.328 Q345.177,367.699 344.428,363.233 Q343.74,359.129 345.955,355.607 Q346.239,355.154 346.547,354.731 Q345.02,353.69 343.898,352.365 Q338.554,346.056 342.477,338.616 Q344.198,335.353 350.46,330.475 Q357.229,325.203 360.531,321.364 Q363.483,317.93 367.999,317.59 Q372.515,317.25 375.949,320.203 Q379.383,323.155 379.723,327.671 Q380.063,332.187 377.11,335.621 Q375.884,337.047 374.403,338.549 Q383.963,339.649 398.94,341.149 Q404.192,341.675 407.047,341.961 Q409.648,342.223 411.85,343.633 Q415.664,346.076 416.633,350.5 Q417.602,354.923 415.16,358.737 Q406.669,371.993 390.203,373.615 Q385.878,374.041 379.735,373.45 Q378.239,379.145 377.095,385.478 Q376.29,389.935 372.57,392.517 Q368.85,395.099 364.393,394.294 Q359.936,393.49 357.354,389.769 Q354.772,386.049 355.577,381.592 Z"/>
  <path fill="rgb(0%, 0%, 27.058824%)" opacity="0.356" d="M136.204,296.604 Q133.846,388.897 130.166,409.509 Q129.747,411.855 129.156,412.957 Q128.535,414.113 127.486,414.803 Q124.709,416.63 122.028,414.669 Q120.512,413.561 120.04,411.494 Q119.579,409.475 119.605,403.227 Q119.662,389.425 121.53,364.957 Q119.639,314.943 123.109,292.683 Q121.715,292.446 120.26,291.953 Q115.811,290.443 117.321,285.994 Q118.793,281.655 123.168,283.019 Q126.619,284.095 138.729,280.411 Q151.772,276.444 158.312,271.402 Q160.522,269.697 160.922,268.781 Q160.597,268.424 159.789,267.936 Q151.542,262.966 120.206,261.733 Q115.512,261.549 115.696,256.854 Q115.789,254.507 117.008,253.38 Q118.228,252.253 120.575,252.345 Q154.324,253.672 164.639,259.89 Q171.334,263.925 170.258,270.138 Q169.474,274.66 164.049,278.843 Q156.149,284.933 141.464,289.4 Q136.695,290.851 132.817,291.638 Q132.793,291.765 132.769,291.897 Q134.274,292.162 135.12,293.052 Q136.264,294.256 136.204,296.604 Z"/>
  <path fill="rgb(92.54902%, 94.117647%, 76.078431%)" opacity="0.021" d="M199.703,360.648 Q194.714,363.169 191.763,362.613 Q188.15,361.933 186.87,357.197 Q185.01,350.309 187.815,324.999 Q188.004,323.294 189.708,323.483 Q190.561,323.577 190.94,324.051 Q191.319,324.524 191.225,325.376 Q188.491,350.041 190.182,356.302 Q190.9,358.96 192.398,359.242 Q194.205,359.582 198.156,357.586 Q199.687,356.813 200.461,358.344 Q201.234,359.875 199.703,360.648 Z"/>
  <path fill="rgb(0%, 13.333333%, 22.352941%)" opacity="0.486" d="M301.984,66.413 Q301.059,108.236 283.217,134.145 Q267.649,156.753 244.328,161.878 Q237.917,163.287 232.314,163.249 Q231.623,172.238 230.542,182.881 Q228.504,202.934 225.91,221.432 Q224.829,229.146 224.068,233.471 Q223.641,235.899 223.318,237.149 Q222.687,239.595 221.399,241.395 Q218.816,245.006 214.481,245.9 Q206.933,247.456 202.732,240.986 Q201.231,238.673 200.94,235.851 Q200.838,234.87 200.909,233.886 Q204.733,180.81 199.225,150.595 Q196.348,134.813 189.237,122.011 Q183.642,111.94 184.427,104.737 Q184.932,100.099 188.569,97.176 Q192.206,94.254 196.845,94.759 Q201.483,95.264 204.406,98.901 Q207.328,102.538 206.823,107.177 L206.885,107.101 Q207.214,107.981 208.931,111.071 Q209.723,112.496 210.472,113.948 Q210.681,113.679 210.896,113.408 Q217.483,105.13 226.159,111.185 Q233.883,116.577 233.495,140.672 Q236.162,140.606 239.492,139.874 Q254.134,136.656 264.662,121.368 Q278.684,101.005 279.461,65.915 Q279.564,61.25 282.936,58.025 Q286.307,54.799 290.972,54.902 Q295.637,55.006 298.862,58.377 Q302.088,61.749 301.984,66.413 Z"/>
  <path fill="rgb(0.784314%, 20.784314%, 17.647059%)" d="M254.03,291.172 Q253.929,293.062 253.679,296.907 Q252.382,316.858 255.023,323.118 Q256.285,322.99 257.557,322.844 Q265.322,312.848 262.196,276.388 Q261.344,266.447 271.284,265.594 Q281.225,264.742 282.078,274.683 Q284.427,302.086 280.142,319.053 Q290.063,316.904 300.677,313.824 Q308.633,311.516 312.365,318.912 Q314.612,323.366 313.509,326.716 Q312.405,330.067 307.951,332.314 Q274.512,349.186 255.847,346.012 Q248.982,347.399 240.509,346.002 Q236.787,345.388 231.235,343.806 Q211.164,342.972 194.429,337.12 Q191.374,337.121 188.518,334.845 Q171.619,327.649 172.083,318.468 Q172.5,310.199 180.724,308.916 Q183.097,308.546 185.597,309.256 Q187.665,309.844 190.237,311.326 Q193.153,313.007 196.716,315.767 Q201.983,314.87 208.599,316.115 Q214.107,317.152 225.819,321.158 Q230.455,322.744 234.397,323.863 Q233.734,320.791 233.431,317.315 Q232.816,310.238 233.766,295.613 Q234.009,291.884 234.103,290.109 Q234.635,280.146 244.598,280.678 Q254.561,281.209 254.03,291.172 Z"/>
  <path fill="rgb(38.823529%, 100%, 100%)" opacity="0.038" d="M43.867,24.044 Q28.268,-7.641 47.373,-21.767 Q59.931,-31.052 95.184,-34.549 Q96.948,-34.724 97.123,-32.96 Q97.21,-32.078 96.813,-31.594 Q96.416,-31.109 95.534,-31.022 Q61.252,-27.621 49.48,-18.917 Q32.756,-6.551 47.047,22.479 Q47.438,23.274 47.236,23.867 Q47.035,24.46 46.24,24.852 Q44.65,25.634 43.867,24.044 Z"/>
  <path fill="rgb(17.254902%, 5.098039%, 6.666667%)" opacity="0.485" d="M168.771,356.43 Q170.825,327.374 171.818,295.351 Q165.665,299.546 160.124,301.431 Q159.796,307.811 158.616,327.296 Q158.085,351.636 155.078,384.56 Q154.445,394.69 153.735,406.009 Q153.619,407.861 152.66,408.757 Q152.535,409.915 152.408,411.083 Q151.993,414.881 148.195,414.466 Q144.549,414.068 144.797,410.409 Q148.767,351.942 150.655,324.926 Q150.883,321.657 151.086,318.778 Q151.109,312.537 150.943,306.956 Q150.75,300.471 151.353,298.725 Q152.056,296.692 154.329,295.456 Q154.354,295.44 154.377,295.425 Q155.214,294.891 155.987,294.732 Q156.32,294.616 156.675,294.511 Q163.566,292.475 172.113,285.621 Q172.204,283.11 172.266,282.64 Q172.383,281.752 172.798,281.053 Q173.579,279.735 175.05,279.318 Q177.312,278.677 178.908,280.406 Q179.552,281.103 179.805,282.039 Q179.929,282.498 179.997,283.33 Q180.074,284.271 180.199,286.87 Q180.259,288.12 179.647,289.076 Q179.63,289.678 179.611,290.341 Q178.626,325.389 176.393,356.969 Q176.124,360.78 172.313,360.51 Q168.501,360.241 168.771,356.43 Z"/>
  <path fill="rgb(20%, 27.843137%, 0%)" d="M123.15,136.993 Q121.966,141.71 126.112,143.092 Q131.12,144.761 140.058,143.63 Q142.551,143.054 144.339,142.723 Q146.475,142.326 147.705,142.587 Q151.34,143.359 152.055,146.996 Q152.753,150.543 149.806,152.651 Q149.15,153.12 148.342,153.411 Q147.926,153.56 147.325,153.713 Q145.578,154.155 143.166,154.515 Q159.249,164.712 166.539,182.319 Q177.356,208.444 170.491,255.547 Q169.683,261.092 164.137,260.284 Q158.592,259.476 159.4,253.93 Q165.82,209.881 156.184,186.607 Q148.31,167.593 127.467,159.016 Q127.312,159.068 127.151,159.117 Q125.656,159.574 123.536,159.567 Q120.755,160.35 117.687,161.23 Q115.941,161.732 114.233,161.113 Q108.026,158.866 98.845,155.549 Q85.493,150.725 84.024,150.142 Q83.63,149.985 83.377,149.869 Q83.039,149.714 82.75,149.541 Q82.203,149.215 81.747,148.783 Q78.268,145.484 80.98,141.535 Q83.253,138.224 87.599,139.419 Q88.314,139.615 91.26,140.501 Q105.236,144.702 113.005,146.546 Q110.419,141.676 112.279,134.264 Q113.644,128.829 119.079,130.193 Q124.515,131.558 123.15,136.993 Z"/>
  <path fill="rgb(100%, 72.941176%, 100%)" opacity="0.037" d="M105.572,56.493 Q106.428,57.21 107.72,58.241 Q115.379,64.351 118.541,69.034 Q121.822,73.89 122.544,79.19 Q131.834,72.507 131.904,70.235 Q132.033,65.993 114.045,58.241 Q112.249,57.467 111.738,56.182 Q111.227,54.897 112.001,53.1 Q112.775,51.304 114.06,50.793 Q115.346,50.281 117.142,51.056 Q140.017,60.913 139.724,70.474 Q139.531,76.801 125.796,86.479 Q122.329,88.923 120.588,90.224 Q119.126,91.316 117.35,90.898 Q113.542,90.002 114.438,86.193 Q116.054,79.33 112.057,73.413 Q109.564,69.722 102.84,64.358 Q97.649,60.216 96.699,57.972 Q95.267,54.59 97.772,51.928 Q99.276,50.33 102.532,49.286 Q104.395,48.689 105.625,49.322 Q106.855,49.955 107.452,51.817 Q108.535,55.196 105.572,56.493 Z"/>
  <path fill="rgb(95.686275%, 69.411765%, 11.764706%)" opacity="0.251" d="M360.286,259.558 Q356.162,261.916 351.128,261.581 Q344.289,261.126 339.775,255.968 Q335.26,250.81 335.716,243.971 Q340.264,175.633 345.077,146.409 Q347.568,131.283 350.708,125.157 Q352.628,121.411 355.487,118.921 Q362.474,112.835 371.314,115.084 Q380.603,117.447 384.392,127.741 Q392.962,151.028 389.691,249.693 Q389.464,256.543 384.459,261.227 Q379.454,265.91 372.604,265.683 Q365.754,265.456 361.07,260.451 Q360.659,260.012 360.286,259.558 Z"/>
  <path fill="rgb(68.235294%, 100%, 100%)" opacity="0.057" d="M12.027,59.576 Q13.364,61.027 15.894,63.793 Q32.711,82.181 39.239,84.29 Q48.113,87.156 60.934,72.995 Q61.825,72.011 62.763,71.965 Q63.7,71.918 64.684,72.809 Q66.297,74.269 65.183,76.137 Q55.447,92.463 46.098,117.697 Q41.47,130.189 39.023,134.375 Q34.775,141.641 28.594,142.75 Q27.287,142.985 26.517,142.449 Q25.746,141.913 25.512,140.606 Q25.043,137.992 27.656,137.523 Q31.427,136.846 34.439,131.695 Q36.652,127.909 41.119,115.852 Q47.265,99.262 53.606,86.403 Q45.046,91.746 37.606,89.343 Q29.741,86.802 11.975,67.377 Q9.453,64.62 8.121,63.174 Q6.322,61.221 8.275,59.422 Q9.252,58.523 10.19,58.561 Q11.128,58.6 12.027,59.576 Z"/>
  <path fill="rgb(30.196078%, 13.333333%, 8.627451%)" opacity="0.278" d="M325.808,333.741 Q327.324,325.161 328.269,314.03 Q329.166,303.475 332.068,301.957 Q334.729,300.564 346.966,303.863 Q376.781,311.9 409.453,315.955 Q410.304,316.061 410.677,316.539 Q411.049,317.017 410.943,317.867 Q410.732,319.569 409.031,319.358 Q376.12,315.273 346.074,307.173 Q335.131,304.223 333.657,304.995 Q332.423,305.641 331.686,314.32 Q330.727,325.605 329.184,334.337 Q328.886,336.026 327.198,335.727 Q325.51,335.429 325.808,333.741 Z"/>
  <path fill="rgb(92.54902%, 87.45098%, 100%)" opacity="0.066" d="M240.366,254.147 Q242.153,255.183 249.424,257.911 Q277.403,268.407 289.689,281.542 Q312.196,305.602 302.627,346.365 Q301.113,352.812 294.666,351.299 Q288.219,349.785 289.733,343.338 Q297.682,309.475 280.017,290.589 Q269.848,279.719 244.772,270.312 Q236.464,267.195 233.72,265.603 Q227.992,262.28 231.315,256.552 Q234.638,250.824 240.366,254.147 Z"/>
  <path fill="rgb(19.607843%, 0%, 28.627451%)" opacity="0.562" d="M108.636,338.912 Q84.061,329.276 67.068,332.694 Q60.201,334.075 56.442,336.602 Q55.1,338.563 53.96,339.738 Q52.661,341.078 51.615,341.011 Q50.423,340.935 50.034,339.811 Q49.847,339.268 50.005,338.676 Q50.128,338.219 50.488,337.684 Q51.799,335.741 53.945,334.177 Q55.072,332.473 56.388,330.127 Q64.954,314.858 73.912,285.568 Q73.619,283.398 73.423,281.308 Q72.957,276.317 73.821,274.945 Q74.584,273.735 75.935,273.971 Q76.748,274.114 77.443,274.893 Q77.751,275.238 78.096,275.784 Q77.53,270.564 76.813,264.482 Q76.713,263.631 77.088,263.155 Q77.464,262.679 78.315,262.579 Q80.018,262.378 80.218,264.081 Q84.189,297.792 83.587,305.525 Q83.415,307.731 82.626,308.491 Q81.452,309.621 80.1,308.661 Q79.604,308.308 79.193,307.584 Q78.233,305.895 76.969,300.946 Q75.93,296.875 75.166,293.028 Q67.323,317.403 59.728,331.177 Q62.675,330.08 66.392,329.332 Q84.374,325.716 109.888,335.72 Q111.484,336.346 110.858,337.942 Q110.545,338.74 109.989,338.983 Q109.434,339.225 108.636,338.912 Z M77.412,285.845 Q78.336,292.336 80.16,299.581 Q79.887,293.187 78.702,281.54 Q78.056,283.729 77.412,285.845 Z"/>
  <path fill="rgb(7.843137%, 41.960784%, 0%)" d="M251.328,7.741 Q261.698,50.588 257.702,82.007 Q254.031,110.866 238.989,126.304 Q224.48,141.196 204.361,139.612 Q185.111,138.097 168.862,122.007 Q166.572,119.738 166.561,117.459 Q166.55,115.18 168.818,112.89 Q169.609,112.09 170.625,111.606 Q185.553,104.491 203.49,99.259 Q213.874,96.23 215.08,93.411 Q217.014,88.891 218.087,60.252 Q218.742,42.777 219.311,31.298 Q219.631,24.859 226.069,25.178 Q232.508,25.498 232.189,31.937 Q231.623,43.341 230.971,60.735 Q229.809,91.764 226.934,98.482 Q224.392,104.424 218.621,107.516 Q215.51,109.183 207.101,111.636 Q195.567,115.001 185.4,119.166 Q194.964,125.939 205.372,126.758 Q219.464,127.867 229.754,117.306 Q241.785,104.958 244.911,80.38 Q248.608,51.315 238.797,10.774 Q237.28,4.508 243.546,2.992 Q246.679,2.234 248.625,3.421 Q250.57,4.608 251.328,7.741 Z"/>
  <path fill="rgb(0%, 45.098039%, 0%)" d="M91.026,159.355 Q93.988,164.93 107.084,168.372 Q117.323,171.064 122.645,173.8 Q132.296,178.761 138.232,187.982 Q151.47,208.546 148.711,257.864 Q148.445,262.62 145.934,264.865 Q143.423,267.11 138.667,266.844 Q129.156,266.312 129.688,256.8 Q132.101,213.658 122.211,198.295 Q119.041,193.37 113.935,190.745 Q110.465,188.962 102.24,186.799 Q92.51,184.242 87.754,181.744 Q78.867,177.078 74.2,168.294 Q71.966,164.087 72.951,160.867 Q73.937,157.646 78.144,155.411 Q86.557,150.942 91.026,159.355 Z"/>
  <path fill="rgb(1.960784%, 100%, 0%)" d="M148.472,215.201 Q148.912,218.013 149.167,220.155 Q149.378,221.927 149.377,222.739 Q149.376,224.907 147.753,225.886 Q145.14,227.462 143.356,224.931 Q143.098,224.565 142.895,224.07 Q142.237,222.468 142.787,221.371 Q142.78,221.302 142.771,221.228 Q142.463,220.645 142.34,219.813 Q141.169,211.948 141.132,210.902 Q141.101,210.021 141.323,209.365 Q138.76,189.953 131.755,181.812 Q128.165,177.64 118.928,173.265 Q113.699,174.919 108.903,174.488 Q92.521,173.016 68.148,151.395 Q66.204,149.671 67.466,147.4 Q69.039,144.569 71.87,146.142 Q86.095,154.045 107.938,161.822 Q114.181,164.045 119.201,166.284 Q123.101,164.682 127.429,161.667 Q137.665,154.537 144.8,156.013 Q155.299,158.186 170.263,177.263 Q172.262,179.811 169.714,181.81 Q168.44,182.809 167.303,182.672 Q166.166,182.535 165.167,181.261 Q151.665,164.048 143.488,162.356 Q139.081,161.444 131.131,166.982 Q128.78,168.62 126.501,169.905 Q133.339,173.722 136.665,177.587 Q146.115,188.57 148.472,215.201 Z"/>
  <path fill="rgb(100%, 99.215686%, 100%)" opacity="0.54" d="M261.57,73.097 Q266.027,39.587 275.974,23.791 Q271.226,21.875 268.648,18.314 Q263.828,29.76 259.54,35.367 Q251.433,45.968 238.485,49.327 Q236.519,49.837 235.281,49.109 Q234.042,48.381 233.532,46.415 Q232.512,42.482 236.445,41.462 Q246.68,38.806 253.085,30.431 Q256.992,25.322 261.745,13.753 Q266.474,2.242 270.244,-1.097 Q272.612,-3.193 275.226,-1.412 Q278.583,0.876 276.295,4.233 Q273.11,8.906 274.493,12.221 Q275.761,15.259 280.121,16.655 Q280.711,16.843 281.303,16.985 Q289.297,8.899 301.118,7.644 Q305.158,7.214 305.587,11.254 Q305.719,12.501 305.126,13.606 Q300.916,21.445 292.488,24.261 Q288.545,25.578 284.627,25.541 Q284.42,25.814 284.217,26.094 Q274.176,39.953 269.625,74.168 Q269.357,76.182 268.216,77.055 Q267.076,77.928 265.062,77.66 Q261.035,77.124 261.57,73.097 Z"/>
  <path fill="rgb(14.509804%, 5.490196%, 12.54902%)" opacity="0.628" d="M370.634,166.507 Q377.465,123.841 383.735,99.655 Q386.393,89.403 388.505,84.384 Q389.663,81.632 390.76,80.33 Q391.896,78.984 393.362,78.594 Q395.988,77.896 397.79,79.989 Q401.007,83.724 397.401,107.545 Q393.509,133.257 384.325,169.16 Q383.369,172.899 379.63,171.942 Q377.76,171.464 377.064,170.29 Q377.057,170.279 377.052,170.269 Q376.953,170.356 376.846,170.433 Q375.741,171.233 373.835,170.928 Q371.93,170.623 371.129,169.518 Q370.329,168.413 370.634,166.507 Z M381.556,148.013 Q386.601,126.353 389.335,109.181 Q385.554,125.235 381.556,148.013 Z"/>
  <path fill="rgb(70.196078%, 86.666667%, 51.372549%)" opacity="0.969" d="M254.664,134.604 Q285.015,75.965 272.284,50.3 Q269.326,44.335 264.546,41.574 Q264.015,41.268 263.573,41.073 L263.677,41.099 Q263.646,41.089 263.618,41.08 Q263.37,41 263.158,40.917 Q260.381,39.841 259.209,37.113 Q257.912,34.092 259.389,31.153 Q260.592,28.759 263.081,27.766 Q264.432,27.226 265.887,27.264 Q266.477,27.28 267.057,27.393 Q267.323,27.445 267.586,27.518 Q267.828,27.584 268.086,27.67 Q268.667,27.828 269.6,28.014 Q273.064,28.704 274.451,30.782 Q274.672,31.114 274.841,31.481 Q281.053,36.182 284.941,44.022 Q300.853,76.101 267.211,141.099 Q265.588,144.235 263.207,144.992 Q260.827,145.749 257.69,144.125 Q251.417,140.878 254.664,134.604 Z"/>
  <path fill="rgb(94.117647%, 100%, 95.294118%)" opacity="0.034" d="M66.011,38.488 Q82.495,29.42 96.165,33.201 Q110.183,37.079 113.188,51.384 Q116.203,65.735 105.483,83.441 Q93.652,102.982 67.48,121.753 Q65.83,122.937 64.413,122.704 Q62.997,122.47 61.813,120.82 Q59.446,117.52 62.746,115.153 Q87.565,97.351 98.534,79.234 Q107.594,64.269 105.239,53.054 Q103.251,43.589 94,41.03 Q83.515,38.13 69.926,45.605 Q66.368,47.563 64.41,44.004 Q62.453,40.446 66.011,38.488 Z"/>
  <path fill="rgb(100%, 94.509804%, 34.117647%)" opacity="0.151" d="M345.189,130.552 Q334.569,123.663 331.442,112.171 Q328.537,101.497 332.855,89.126 Q341.16,65.329 370.88,44.881 Q374.592,42.327 377.725,42.906 Q380.858,43.485 383.412,47.197 Q388.52,54.621 381.096,59.729 Q356.233,76.835 349.871,95.065 Q345.022,108.96 354.998,115.432 Q358.778,117.884 359.442,121 Q360.106,124.116 357.654,127.897 Q355.202,131.677 352.086,132.341 Q348.97,133.005 345.189,130.552 Z"/>
  <path fill="rgb(27.843137%, 12.941176%, 2.352941%)" opacity="0.626" d="M74.616,408.4 Q73.608,412.222 70.682,415.31 Q66.042,420.207 59.299,420.389 Q58.835,420.402 58.383,420.397 Q56.839,423.257 55.144,425.218 Q47.039,434.593 35.248,432.912 Q26.348,431.643 18.027,423.156 Q17.522,422.64 17.069,422.115 Q13.153,421.557 5.712,420.841 Q-12.69,419.071 -21.848,416.984 Q-41.149,412.585 -49.834,402.223 Q-54.167,397.053 -53.575,390.333 Q-52.983,383.613 -47.813,379.28 Q-42.642,374.947 -35.923,375.539 Q-29.203,376.131 -24.87,381.301 Q-21.336,385.517 8.83,388.419 Q22.897,389.772 28.188,391.075 Q31.118,391.797 33.564,392.845 Q34.356,389.97 34.938,388.39 Q37.608,381.144 42.743,377.803 Q43.997,349.628 50.108,331.643 Q54.71,318.097 62.082,311.079 Q73.53,300.182 87.327,305.109 Q105.927,311.753 110.662,343.438 Q114.859,371.529 106.22,407.886 Q104.66,414.449 98.917,417.987 Q93.173,421.525 86.61,419.966 Q80.047,418.406 76.509,412.663 Q75.229,410.585 74.616,408.4 Z M78.71,350.157 Q74.596,368.303 75.026,398.224 Q81.305,370.639 78.71,350.157 Z"/>
  <path fill="rgb(18.823529%, 0%, 0.392157%)" opacity="0.754" d="M174.897,100.133 Q172.92,116.097 173.879,121.205 Q174.357,123.749 176.751,124.802 Q183.016,127.558 185.522,137.779 Q189.604,154.427 188.933,198.397 Q188.907,200.111 187.193,200.085 L187.191,200.085 Q172.975,199.851 167.427,209.693 Q162.295,218.795 167.554,228.727 Q173.218,239.425 186.883,240.972 Q200.595,242.525 218.033,233.661 Q217.68,233.604 217.339,233.387 Q216.615,232.926 216.501,232.018 Q216.434,231.483 216.84,228.951 Q220.279,207.518 222.664,166.888 Q222.714,166.032 223.167,165.629 Q223.62,165.227 224.475,165.277 Q226.187,165.377 226.086,167.089 Q223.745,206.976 220.38,228.516 Q223.761,227.084 227.784,229.013 Q228.239,229.231 228.504,229.661 Q229.401,231.122 227.94,232.019 Q204.496,246.417 186.497,244.379 Q171.035,242.628 164.524,230.331 Q158.389,218.743 164.44,208.009 Q170.639,197.014 185.529,196.663 Q186.091,154.5 182.192,138.595 Q180.088,130.015 175.37,127.94 Q171.321,126.159 170.509,121.838 Q169.451,116.205 171.494,99.711 Q171.599,98.861 172.077,98.488 Q172.555,98.115 173.406,98.221 Q175.107,98.431 174.897,100.133 Z M220.731,232.24 Q221.143,232.015 221.555,231.786 Q221.133,231.97 220.731,232.24 Z"/>
</svg>

