<svg xmlns="http://www.w3.org/2000/svg" width="384" height="384" viewBox="0 0 384 384">
  <defs/>
  <path fill="rgb(0.784314%, 31.372549%, 50.588235%)" opacity="0.421" d="M-29.419,54.538 Q-20.916,39.474 -13.496,30.273 Q-17.07,13.271 -20.051,-15.915 Q-20.434,-19.659 -18.753,-21.723 Q-17.072,-23.786 -13.327,-24.169 Q-10.598,-24.447 -8.33,-22.905 Q-5.767,-21.162 -3.324,-19.498 Q0.176,-20.896 3.924,-17.516 Q15.164,-7.381 28.084,2.139 Q28.519,2.444 28.941,2.741 Q33.336,5.827 35.276,7.245 Q35.678,7.54 35.911,7.717 Q36.1,7.86 36.243,7.977 Q36.48,8.17 36.692,8.372 Q37.171,8.827 37.562,9.354 Q38.541,10.676 38.88,12.285 Q39.481,15.138 38.004,17.652 Q36.329,20.502 33.097,21.198 Q29.869,21.893 26.511,19.543 Q23.147,17.189 19.883,14.797 Q20.037,15.406 20.138,16.086 Q20.717,19.987 21.272,22.851 Q22.633,25.105 23.359,27.795 Q23.814,29.485 23.887,30.955 Q24.225,37.754 18.065,39.303 Q16.902,39.595 15.852,39.603 Q13.722,47.412 11.385,51.002 Q5.842,59.518 -2.056,55.337 Q-5.565,53.479 -8.079,48.346 Q-11.95,54.219 -16.308,61.939 Q-18.158,65.217 -20.722,65.93 Q-23.286,66.644 -26.564,64.794 Q-29.842,62.944 -30.555,60.38 Q-31.269,57.816 -29.419,54.538 Z M5.334,15.577 Q6.338,10.524 11.586,9.745 Q12.063,9.674 12.514,9.639 Q5.57,4.821 -3.261,-1.223 Q-1.917,9.712 -0.499,18.139 Q2.547,16.325 5.334,15.577 Z"/>
  <path fill="rgb(76.078431%, 100%, 100%)" d="M317.95,121.981 Q312.395,118.778 284.782,117.67 Q281.326,117.531 278.41,117.381 Q267.438,124.256 256.383,127.497 Q243.89,131.159 228.688,131.145 Q219.713,131.137 201.291,129.327 Q195.216,128.73 192.104,128.453 Q184.886,127.811 185.528,120.592 Q185.68,118.876 186.271,117.605 Q171.262,117.039 156.493,117.901 Q132.722,119.289 125.546,123.596 Q119.333,127.326 115.603,121.113 Q113.738,118.006 114.359,115.52 Q114.98,113.034 118.087,111.169 Q128.318,105.028 155.648,103.432 Q177.93,102.131 200.711,103.934 Q227.665,106.067 229.773,113.825 Q230.123,115.112 230.139,116.272 Q243.815,116.078 252.305,113.588 Q253.77,113.159 255.238,112.65 Q251.376,109.62 251.998,104.466 Q252.835,97.539 267.449,89.773 Q280.121,83.039 307.124,72.251 Q313.854,69.562 316.542,76.292 Q318.142,80.295 315.387,83.611 Q305.833,95.112 296.214,103.785 Q318.157,105.369 325.191,109.425 Q331.468,113.046 327.848,119.323 Q324.228,125.601 317.95,121.981 Z M274.469,102.638 Q274.98,102.284 275.491,101.921 Q274.853,102.252 274.251,102.572 Q274.213,102.592 274.164,102.618 Q274.316,102.628 274.469,102.638 Z"/>
  <path fill="rgb(100%, 100%, 100%)" opacity="0.041" d="M-10.467,184.577 Q7.043,186.805 14.275,189.674 Q19.994,191.943 22.109,195.237 Q24.764,199.374 21.943,204.541 Q21.429,205.483 20.7,205.697 Q19.972,205.911 19.03,205.396 Q17.145,204.367 18.174,202.483 Q19.775,199.551 18.495,197.557 Q17.127,195.426 12.691,193.666 Q5.963,190.997 -11.009,188.837 Q-13.139,188.566 -12.868,186.436 Q-12.733,185.371 -12.133,184.906 Q-11.532,184.442 -10.467,184.577 Z"/>
  <path fill="rgb(0.392157%, 12.54902%, 17.254902%)" opacity="0.53" d="M147.928,16.188 Q130.893,6.776 126.974,-0.095 Q123.63,-5.957 128.184,-9.701 Q131.143,-12.135 137.429,-11.992 Q153.412,-11.631 181.94,0.275 Q167.836,-35.645 155.196,-50.21 Q153.752,-51.874 153.862,-53.427 Q153.972,-54.981 155.636,-56.425 Q158.963,-59.313 161.851,-55.986 Q176.885,-38.662 193.27,5.232 Q205.973,11.027 220.794,18.771 Q223.994,20.443 222.984,23.909 Q218.878,37.994 215.049,43.34 Q212.499,46.902 209.378,47.76 Q205.691,48.773 202.351,46.15 Q197.201,42.107 187.443,14.947 Q186.857,13.315 186.273,11.719 Q153.76,-2.808 137.229,-3.183 Q136.24,-3.205 135.528,-3.182 Q139.244,1.323 152.189,8.476 Q154.118,9.541 154.549,11.038 Q154.98,12.535 153.915,14.463 Q151.784,18.319 147.928,16.188 Z M197.553,16.954 Q204.49,35.704 207.408,38.858 Q207.599,38.61 207.885,38.21 Q210.414,34.678 213.48,24.901 Q205.144,20.598 197.553,16.954 Z"/>
  <path fill="rgb(40%, 0%, 0%)" d="M366.717,148.24 Q365.467,149.271 364.339,150.221 Q357.643,160.058 348.916,165.667 Q342.587,169.735 335.416,170.082 Q329.204,170.384 323.531,167.87 Q315.065,164.118 310.854,155.873 Q306.138,146.64 309.035,136.61 Q310.849,130.332 316.287,124.164 Q319.11,120.963 323.47,116.931 Q324.458,115.084 325.222,113.087 Q329.926,100.787 323.258,87.543 Q313.159,67.483 280.996,47.7 Q280.546,47.871 280.096,48.019 Q268.936,51.685 258.71,46.035 Q251.958,42.304 248.093,35.427 Q247.328,34.066 246.631,32.399 Q242.758,32.872 237.253,34.401 Q226.876,37.284 217.499,31.985 Q208.123,26.685 205.24,16.308 Q202.357,5.931 207.656,-3.446 Q212.955,-12.823 223.333,-15.706 Q255.502,-24.643 274.723,-13.823 Q277.871,-12.051 280.595,-9.808 Q285.621,-9.345 290.381,-6.806 Q349.987,24.984 369.708,64.158 Q385.041,94.614 376.033,125.065 Q376.328,127.777 376.052,130.664 Q375.024,141.385 366.717,148.24 Z"/>
  <path fill="rgb(43.529412%, 80.784314%, 76.862745%)" d="M-2.98,29.33 Q2.285,14.392 9.764,5.025 Q8.08,4.592 6.286,3.165 Q5.294,2.375 5.707,1.177 Q6.292,-0.518 7.987,0.067 Q10.05,0.778 12.031,1.431 Q12.085,1.407 12.139,1.379 Q12.935,0.964 12.479,0.046 Q9.533,-5.869 -10.888,-2.177 Q-11.77,-2.018 -12.291,-2.379 Q-12.812,-2.74 -12.971,-3.622 Q-13.29,-5.387 -11.526,-5.706 Q11.544,-9.876 15.688,-1.552 Q15.747,-1.434 15.801,-1.318 Q21.174,-5.99 27.469,-8.342 Q43.227,-14.227 55.485,-5.083 Q60.637,-1.239 61.136,3.182 Q61.729,8.44 55.701,10.786 Q44.021,15.331 13.806,5.771 Q5.907,14.904 0.402,30.522 Q-0.194,32.213 -1.885,31.617 Q-2.731,31.319 -3.004,30.747 Q-3.278,30.175 -2.98,29.33 Z M16.539,2.873 Q44.156,11.43 54.4,7.444 Q57.856,6.099 57.573,3.584 Q57.248,0.706 53.341,-2.209 Q42.65,-10.184 28.724,-4.982 Q22.096,-2.507 16.539,2.873 Z"/>
</svg>

