<svg xmlns="http://www.w3.org/2000/svg" width="384" height="384" viewBox="0 0 384 384">
  <defs/>
  <path fill="rgb(45.882353%, 17.254902%, 72.941176%)" opacity="0.429" d="M223.403,95.182 Q210.331,83.716 200.797,89.114 Q192.211,93.975 190.963,107.771 Q189.671,122.055 197.933,131.632 Q207.065,142.216 224.215,140.405 Q219.029,111.746 231.055,100.202 Q234.916,96.495 239.269,95.683 Q241.341,95.296 242.284,96.004 Q243.322,96.782 242.968,98.015 Q242.777,98.681 242.159,99.113 Q241.674,99.453 240.794,99.696 Q239.944,99.931 239.402,99.624 Q239.216,99.518 239.066,99.349 Q236.2,100.153 233.498,102.747 Q222.476,113.328 228.028,141.586 Q228.037,141.633 228.044,141.681 Q228.166,142.554 227.791,143.052 Q227.416,143.55 226.542,143.673 Q206.133,146.537 195.262,133.936 Q186.022,123.227 187.449,107.453 Q188.864,91.816 199.058,86.044 Q210.773,79.411 225.73,92.529 Q227.056,93.692 225.893,95.019 Q225.311,95.682 224.689,95.723 Q224.066,95.763 223.403,95.182 Z"/>
  <path fill="rgb(85.882353%, 65.098039%, 0%)" opacity="0.251" d="M38.594,395.158 Q49.406,398.652 64.148,395.607 Q79.132,392.512 88.039,384.658 Q97.71,376.131 95.157,365.451 Q92.036,352.394 71.216,338.319 Q70.506,337.839 70.391,337.244 Q70.276,336.649 70.756,335.938 Q71.716,334.518 73.136,335.478 Q95.061,350.3 98.492,364.654 Q101.524,377.339 90.307,387.23 Q80.717,395.685 64.842,398.964 Q49.213,402.192 37.539,398.42 Q36.724,398.157 36.448,397.617 Q36.172,397.078 36.435,396.262 Q36.962,394.631 38.594,395.158 Z"/>
  <path fill="rgb(66.666667%, 46.666667%, 32.54902%)" opacity="0.104" d="M80.362,344.025 Q79.583,342.385 78.847,342.357 Q78.115,342.328 77.167,343.65 Q74.03,348.027 75.318,355.741 Q76.936,365.428 85.709,372.898 Q96.988,382.502 118.116,386.301 Q118.96,386.453 119.305,386.95 Q119.651,387.448 119.5,388.292 Q119.196,389.979 117.509,389.676 Q95.47,385.713 83.487,375.509 Q73.76,367.227 71.937,356.306 Q70.414,347.187 74.38,341.652 Q76.403,338.83 78.981,338.931 Q81.789,339.04 83.459,342.553 Q84.194,344.102 82.646,344.838 Q81.872,345.205 81.301,345.002 Q80.73,344.799 80.362,344.025 Z"/>
  <path fill="rgb(0%, 85.882353%, 69.803922%)" opacity="0.215" d="M153.883,63.572 Q161.718,62.189 173.091,59.894 Q173.931,59.724 174.436,60.06 Q174.941,60.395 175.11,61.235 Q175.449,62.916 173.769,63.255 Q146.709,68.715 139.303,69.074 Q138.556,69.11 138.168,69.038 Q136.805,68.783 136.68,67.465 Q136.569,66.284 137.679,65.707 Q138.256,65.407 140.198,65.006 Q144.481,64.121 152.358,63.12 Q153.398,62.987 153.883,63.572 Z"/>
  <path fill="rgb(43.529412%, 36.470588%, 15.686275%)" opacity="0.174" d="M80.817,65.261 Q72.883,65.574 66.304,65.65 Q39.519,80.579 -4.831,96.446 Q-13.145,99.421 -21.126,95.645 Q-29.108,91.87 -32.083,83.556 Q-35.057,75.242 -31.282,67.26 Q-27.506,59.278 -19.193,56.304 Q-5.117,51.268 7.241,46.174 Q-0.316,42.549 -5.073,35.765 Q-11.499,26.6 -10.294,15.697 Q-7.94,-5.596 17.085,-12.673 Q35.614,-17.914 65.643,-12.826 Q71.466,-11.84 75.951,-7.997 Q77.52,-6.653 78.759,-5.142 Q79.236,-5.114 79.701,-5.078 Q97.384,-3.704 104.321,9.166 Q112.195,23.774 100.736,38.956 Q101.192,40.953 101.277,43.121 Q101.625,51.944 95.632,58.428 Q89.64,64.913 80.817,65.261 Z"/>
  <path fill="rgb(3.529412%, 81.568627%, 85.490196%)" opacity="0.391" d="M347.863,217.401 Q368.039,219.048 380.455,235.14 Q380.548,235.26 380.638,235.378 Q387.964,234.919 398.28,236.85 Q401.851,237.519 401.238,241.099 Q397.328,263.931 396.045,266.93 Q394.875,269.662 392.552,270.097 Q389.694,270.631 387.94,267.779 Q387.174,266.533 385.584,261.929 Q381.597,250.388 377.059,243.171 Q371.773,244.389 370.581,248.123 Q368.433,254.852 376.668,284.792 Q383.356,309.109 386.291,323.932 Q387.007,327.551 383.388,328.267 Q379.77,328.984 379.053,325.365 Q376.17,310.805 369.554,286.749 Q364.927,269.924 363.691,263.282 Q361.594,252.015 363.552,245.88 Q365.581,239.522 372.387,236.981 Q362.437,225.993 347.263,224.755 Q343.586,224.455 343.886,220.778 Q344.186,217.101 347.863,217.401 Z M385.289,242.632 Q388.371,248.25 391.151,255.622 Q392.058,250.864 393.339,243.487 Q388.885,242.795 385.289,242.632 Z"/>
  <path fill="rgb(40.784314%, 42.745098%, 47.058824%)" opacity="0.226" d="M83.218,381.709 Q91.27,376.687 98.853,373.439 Q89.544,371.76 84.697,369.239 Q78.3,365.912 76.784,359.969 Q74.519,351.089 82.687,345.711 Q87.778,342.359 99.165,340.999 Q116.338,338.948 143.295,340.705 Q142.043,338.858 140.614,336.929 Q126.751,318.215 101.285,299.978 Q97.424,297.213 96.649,292.527 Q95.874,287.842 98.639,283.981 Q101.404,280.12 106.09,279.345 Q110.775,278.57 114.636,281.335 Q143.032,301.67 159.04,323.28 Q166.766,333.711 170.782,343.204 Q214.019,348.139 264.991,359.915 Q272.477,361.644 273.724,369.226 Q274.494,373.912 271.726,377.77 Q268.957,381.629 264.271,382.399 Q201.284,392.757 145.788,390.442 Q126.798,389.65 119.441,390.934 Q108.774,392.795 95.353,401.166 Q91.323,403.679 86.697,402.607 Q82.07,401.535 79.557,397.505 Q77.044,393.475 78.116,388.849 Q79.188,384.222 83.218,381.709 Z M174.652,367.864 Q178.222,367.804 181.822,367.692 Q178.297,367.214 174.826,366.781 Q174.749,367.328 174.652,367.864 Z"/>
  <path fill="rgb(11.372549%, 41.960784%, 45.490196%)" opacity="0.221" d="M154.204,90.225 Q147.177,89.619 136.901,90.376 Q127.708,91.053 123.372,90.104 Q113.059,87.845 108.681,77.872 Q104.713,68.834 104.765,32.493 Q104.773,27.017 108.65,23.151 Q112.528,19.285 118.003,19.293 Q127.099,19.306 130.338,27.806 Q138.831,50.101 152.499,63.629 Q154.559,63.719 156.475,63.884 Q161.931,64.355 165.456,68.545 Q168.98,72.735 168.51,78.19 Q168.04,83.645 163.85,87.17 Q159.66,90.695 154.204,90.225 Z"/>
  <path fill="rgb(92.941176%, 100%, 100%)" opacity="0.047" d="M344.908,35.746 Q355.405,40.796 356.954,43.06 Q358.832,45.804 354.306,49.997 Q348.048,55.794 345.378,62.363 Q340.478,74.422 342.824,94.214 Q343.028,95.936 341.306,96.14 Q340.214,96.27 339.631,95.338 Q332.809,84.429 327.205,85.051 Q323.635,85.448 315.858,92.878 Q309.167,99.272 305.064,101.788 Q297.898,106.184 290.3,105.735 Q288.569,105.633 288.671,103.902 Q288.722,103.036 289.181,102.629 Q289.639,102.222 290.505,102.273 Q300.395,102.856 313.462,90.371 Q322.086,82.13 326.822,81.604 Q332.747,80.946 338.792,88.204 Q337.767,71.881 342.165,61.057 Q345.125,53.774 351.949,47.452 Q354.279,45.293 354.092,45.019 Q353.066,43.52 343.404,38.871 Q342.623,38.495 342.42,37.917 Q342.218,37.338 342.593,36.557 Q343.345,34.994 344.908,35.746 Z"/>
  <path fill="rgb(0%, 91.372549%, 86.666667%)" opacity="0.822" d="M414.825,98.014 Q373.314,109.913 356.838,109.324 Q345.805,108.93 339.049,100.823 Q335.666,96.763 332.671,95.286 Q327.328,92.65 316.948,92.661 Q314.154,92.664 314.151,89.87 Q314.148,87.076 316.942,87.073 Q328.628,87.061 335.143,90.275 Q339.2,92.276 343.342,97.245 Q348.5,103.435 357.037,103.74 Q372.627,104.297 413.285,92.642 Q414.628,92.257 415.492,92.736 Q416.356,93.215 416.741,94.558 Q417.51,97.244 414.825,98.014 Z"/>
  <path fill="rgb(3.921569%, 59.215686%, 79.607843%)" opacity="0.273" d="M-19.006,38.065 Q6.041,35.444 15.521,38.809 Q21.946,41.091 25.306,49.098 Q27.363,54.003 29.614,56.295 Q33.517,60.268 41.757,62.702 Q43.645,63.259 43.087,65.148 Q42.793,66.145 41.803,66.464 Q31.702,69.72 22.576,67.028 Q18.002,65.678 15.018,66.157 Q9.838,66.988 1.226,72.502 Q0.396,73.033 -0.283,72.884 Q-0.963,72.734 -1.494,71.905 Q-2.556,70.247 -0.897,69.186 Q8.405,63.23 14.394,62.269 Q18.26,61.649 23.691,63.251 Q28.784,64.754 34.281,64.114 Q29.662,61.963 26.805,59.054 Q24.025,56.224 21.675,50.622 Q18.989,44.219 14.203,42.52 Q5.564,39.453 -18.596,41.982 Q-20.554,42.187 -20.759,40.228 Q-20.861,39.249 -20.423,38.709 Q-19.985,38.168 -19.006,38.065 Z"/>
  <path fill="rgb(7.45098%, 9.019608%, 6.27451%)" opacity="0.565" d="M26.43,310.566 Q30.53,312.185 32.673,312.895 Q27.406,304.527 30.049,298.992 Q34.47,289.734 59.504,285.855 Q71.512,238.069 87.019,236.927 Q101.505,235.86 113.536,273.775 Q113.796,274.591 113.517,275.13 Q113.238,275.668 112.421,275.927 Q110.787,276.445 110.268,274.811 Q99.056,239.478 87.271,240.346 Q74.063,241.319 62.555,287.791 Q62.278,288.907 61.141,289.075 Q36.877,292.652 33.143,300.469 Q31.283,304.365 35.716,311.291 Q36.815,313.008 37.069,313.679 Q37.447,314.677 37.142,315.49 Q36.69,316.693 35.293,316.854 Q33.533,317.057 25.171,313.755 Q24.374,313.44 24.133,312.884 Q23.891,312.328 24.206,311.531 Q24.836,309.936 26.43,310.566 Z"/>
  <path fill="rgb(36.470588%, 29.019608%, 59.215686%)" opacity="0.104" d="M209.767,194.103 Q219.238,199.539 227.848,205.388 Q241.385,203.178 264.296,194.27 Q266.154,193.548 268.113,193.182 Q284.871,190.056 292.727,190.68 Q313.845,192.358 319.68,211.685 Q322.7,221.687 319.723,240.06 Q318.182,249.574 312.06,277.657 Q309.221,290.68 307.63,298.121 Q306.287,304.406 301.694,308.902 Q294.51,315.935 285.348,316.625 Q275.042,317.4 266.866,310.2 Q262.535,306.386 256.003,295.62 Q245.753,278.727 235.59,267.655 Q217.054,247.459 188.538,231.092 Q180.877,226.695 178.569,218.17 Q176.261,209.644 180.658,201.983 Q185.055,194.322 193.58,192.014 Q202.106,189.706 209.767,194.103 Z"/>
  <path fill="rgb(52.54902%, 100%, 100%)" opacity="0.188" d="M249.999,111.763 Q246.605,117.803 243.843,120.051 Q239.744,123.388 235.895,120.713 Q232.711,118.501 228.075,105.636 Q218.096,77.946 205.085,67.688 Q193.691,72.379 189.478,69.135 Q186.076,66.516 188.054,61.551 Q189.364,58.263 193.361,53.829 Q212.804,32.257 272.426,0.526 Q275.384,-1.048 276.958,1.91 Q277.746,3.389 277.4,4.522 Q277.054,5.655 275.574,6.443 Q216.994,37.62 198.34,58.316 Q195.146,61.859 194.281,64.032 Q194.279,64.035 194.278,64.037 Q196.542,64.177 204.179,60.785 Q205.915,60.014 207.468,61.107 Q217.825,68.397 225.184,81.797 Q229.324,89.333 234.38,103.363 Q238.291,114.217 239.719,115.209 L239.612,114.853 Q241.386,113.409 244.157,108.479 Q244.978,107.019 246.119,106.699 Q247.259,106.379 248.72,107.2 Q250.181,108.021 250.501,109.162 Q250.82,110.302 249.999,111.763 Z"/>
  <path fill="rgb(13.333333%, 99.215686%, 100%)" opacity="0.719" d="M257.732,166.675 Q251.282,154.749 248.419,147.709 Q247.16,144.612 246.93,143.134 Q246.8,142.3 246.912,141.578 Q247.382,138.551 250.371,138.17 Q252.694,137.875 254.406,140.019 Q260.082,147.128 269.425,175.801 Q270.03,177.659 269.404,178.89 Q268.779,180.121 266.921,180.726 Q263.207,181.936 261.997,178.222 Q260.139,172.522 258.461,167.751 Q258.07,167.301 257.732,166.675 Z"/>
  <path fill="rgb(48.235294%, 80.784314%, 100%)" opacity="0.118" d="M184.441,107.343 Q178.673,101.671 170.82,94.413 Q169.581,93.739 168.514,92.543 Q165.398,89.052 166.874,84.597 Q167.307,83.29 168.191,82.113 Q170.208,79.43 172.502,78.702 Q184.175,69.738 190.78,66.741 Q199.054,62.986 204.69,65.692 Q212.903,69.635 210.736,81.591 Q210.251,84.266 208.584,85.906 Q209.197,87.129 209.524,88.484 Q211.241,95.594 204.305,104.614 Q208.976,109.644 211.431,113.04 Q217.639,121.63 225.939,143.496 Q230.094,154.444 232.923,161.532 Q235.914,169.026 228.421,172.017 Q224.674,173.512 222.053,172.387 Q219.432,171.261 217.936,167.515 Q215.056,160.297 210.852,149.223 Q203.31,129.352 198.352,122.493 Q195.951,119.17 190.731,113.704 Q188.796,113.055 186.882,111.08 Q185.062,109.202 184.441,107.343 Z"/>
  <path fill="rgb(2.745098%, 76.862745%, 93.72549%)" opacity="0.708" d="M290.581,111.135 Q294.005,111.789 299.987,112.799 Q311.523,114.748 316.107,116.349 Q323.788,119.031 329,124.846 Q337.822,134.69 350.197,172.246 Q350.988,174.647 350.183,176.243 Q349.378,177.839 346.977,178.63 Q342.175,180.213 340.592,175.41 Q328.88,139.864 321.469,131.595 Q317.996,127.719 312.773,125.895 Q308.996,124.576 298.303,122.77 Q292.215,121.742 288.685,121.068 Q283.719,120.12 284.666,115.154 Q285.14,112.67 286.619,111.666 Q288.098,110.661 290.581,111.135 Z"/>
  <path fill="rgb(0%, 17.647059%, 43.137255%)" opacity="0.549" d="M343.19,48.535 Q328.467,48.656 321.672,51.949 Q317.989,53.734 315.326,57.931 Q311.975,63.211 306.266,63.069 Q298.747,62.882 277.14,54.889 Q276.336,54.592 276.082,54.041 Q275.829,53.49 276.127,52.686 Q276.721,51.079 278.329,51.673 Q299.402,59.469 306.351,59.642 Q310.12,59.735 312.431,56.094 Q315.616,51.074 320.176,48.864 Q327.666,45.234 343.162,45.106 Q344.876,45.092 344.89,46.806 Q344.897,47.663 344.472,48.095 Q344.047,48.527 343.19,48.535 Z"/>
  <path fill="rgb(18.823529%, 73.72549%, 78.823529%)" opacity="0.94" d="M354.298,286.738 Q351.627,326.128 345.718,368.692 Q343.774,382.691 343.555,386.615 Q343.483,387.907 343.5,388.818 Q344.022,390.309 344.539,391.766 Q345.917,395.655 343.087,398.658 Q338.452,403.578 333.533,398.943 Q331.017,396.572 330.292,392 Q322.941,370.932 314.147,342.658 Q304.864,312.814 300.865,307.741 Q297.407,303.355 285.743,305.552 Q279.101,306.803 277.85,300.161 Q276.599,293.519 283.241,292.268 Q302.952,288.555 311.48,299.372 Q317.029,306.41 327.055,338.643 Q330.342,349.212 333.424,358.76 Q338.427,320.995 340.811,285.824 Q341.269,279.081 348.012,279.538 Q354.755,279.995 354.298,286.738 Z"/>
  <path fill="rgb(8.235294%, 13.72549%, 17.647059%)" opacity="0.281" d="M31.359,299.61 Q32.361,298.976 33.36,298.357 Q34.088,297.076 35.994,296.28 Q37.348,295.715 38.668,295.161 Q46.985,290.305 55.003,286.582 Q58.641,283.956 61.389,280.003 Q69.414,268.462 76.618,241.87 Q77.857,237.297 82.43,238.536 Q84.717,239.156 85.551,240.609 Q86.384,242.062 85.765,244.348 Q79.598,267.112 72.564,279.897 Q73.673,279.805 74.657,280.145 Q78.39,281.437 77.832,285.34 Q77.614,286.867 76.526,288.014 Q75.496,289.1 71.197,291.198 Q65.004,294.221 52.882,299.426 Q52.123,302.77 53.853,314.255 Q53.896,314.542 53.904,314.831 Q54.034,319.567 49.298,319.697 Q46.424,319.776 43.911,319.895 Q43.51,320.459 43.042,320.995 Q37.743,327.078 27.954,326.271 Q23.704,325.92 21.407,324.101 Q18.651,321.918 19.18,318.663 Q19.612,316.001 22.272,314.331 Q26.038,311.966 36.799,310.926 Q36.635,309.561 36.016,307.863 Q32.295,309.943 29.892,306.148 Q28.624,304.147 28.991,302.512 Q29.358,300.878 31.359,299.61 Z"/>
  <path fill="rgb(87.45098%, 90.588235%, 100%)" opacity="0.026" d="M167.427,268.249 Q170.743,245.175 165.145,242.696 Q161.871,241.246 148.99,244.236 Q150.974,244.94 152.691,245.571 Q157.927,247.493 160.393,248.636 Q162.184,249.466 163.2,250.244 Q165.656,252.121 166.177,255.024 Q167.404,261.848 160.627,263.59 Q155.816,264.826 113.628,252.361 Q109.462,251.13 108.523,246.89 Q107.727,243.294 109.126,241.098 Q109.582,240.383 110.27,239.816 Q110.351,239.521 110.449,239.217 Q112.705,232.204 119.717,234.461 Q121.747,235.114 123.694,235.745 Q128.256,234.541 133.97,232.927 Q147.683,229.053 153.503,228.085 Q164.428,226.266 171.111,229.226 Q186.913,236.224 182.01,270.345 Q180.962,277.636 173.671,276.588 Q170.025,276.064 168.464,273.98 Q166.904,271.895 167.427,268.249 Z"/>
  <path fill="rgb(21.568627%, 77.254902%, 81.960784%)" opacity="0.78" d="M234.259,110.67 Q212.038,113.062 188.163,114.319 Q181.644,114.663 178.683,114.911 Q178.888,141.225 159.5,177.048 Q161.221,198.047 157.055,205.703 Q152.61,213.873 140.123,213.562 Q134.407,213.42 132.176,215.234 Q126.424,219.909 122.276,237.377 Q121.322,241.393 118.836,242.925 Q116.351,244.456 112.334,243.502 Q104.301,241.594 106.209,233.561 Q111.654,210.634 121.759,202.42 Q128.722,196.76 140.534,197.054 Q142.063,197.092 142.868,197.068 Q144.404,192.571 142.835,176.063 Q142.593,173.518 143.831,171.282 Q162.403,137.736 162.169,114.908 Q162.056,103.897 168.802,100.486 Q172.518,98.607 187.295,97.829 Q210.719,96.595 232.491,94.252 Q236.596,93.81 238.869,95.641 Q241.143,97.473 241.584,101.577 Q242.468,109.787 234.259,110.67 Z"/>
  <path fill="rgb(1.568627%, 89.803922%, 94.509804%)" opacity="0.901" d="M168.417,268.618 Q190.998,269.037 201.404,280.782 Q207.757,287.954 213.556,307.943 Q218.809,326.052 223.968,335.988 Q226.949,341.729 221.208,344.71 Q215.466,347.691 212.485,341.95 Q206.738,330.882 201.13,311.548 Q196.142,294.355 191.719,289.362 Q185.08,281.868 168.177,281.554 Q164.943,281.494 163.356,279.847 Q161.769,278.2 161.829,274.966 Q161.949,268.498 168.417,268.618 Z"/>
  <path fill="rgb(0%, 17.254902%, 30.980392%)" opacity="0.315" d="M44.527,313.81 Q57.716,321.947 62.589,328.217 Q67.63,334.703 67.762,341.732 Q72.865,338.876 79.385,339.626 Q87.685,340.58 92.838,347.298 Q95.371,350.599 96.714,355.222 Q97.757,358.817 98.487,364.494 Q99.86,375.19 99.584,384.504 Q99.379,391.404 97.885,395.815 Q94.561,405.626 85.266,408.898 Q76.312,412.051 69.203,407.931 Q58.489,404.832 38.945,395.44 Q15.229,384.045 1.667,379.236 Q-20.649,371.324 -39.541,370.603 Q-41.554,370.527 -43.508,370.036 Q-51.27,368.088 -55.381,361.222 Q-59.492,354.355 -57.544,346.593 Q-52.152,325.111 -19.603,323.268 Q-8.277,322.626 15.888,324.51 Q16.612,322.261 17.939,320.11 Q22.141,313.299 29.928,311.454 Q37.716,309.609 44.527,313.81 Z M57.004,360.793 Q56.785,360.915 56.562,361.034 Q56.761,361.129 56.936,361.213 Q56.97,361.003 57.004,360.793 Z"/>
  <path fill="rgb(49.803922%, 100%, 47.058824%)" opacity="0.334" d="M348.713,107.909 Q348.189,114.106 348.244,117.774 Q349.084,117.769 349.827,118.383 Q350.723,119.123 350.794,120.401 Q350.942,123.098 348.991,124.745 Q348.03,125.557 346.862,125.445 Q345.561,125.32 344.766,124.155 Q344.503,123.768 344.302,123.221 Q327.071,110.584 321.889,105.068 Q317.501,100.397 312.138,89.624 Q309.494,84.313 307.699,80.91 Q306.621,78.866 308.665,77.789 Q309.367,77.418 310.149,77.558 Q317.142,78.808 324.449,78.591 Q331.238,78.39 334.888,81.82 Q338.012,84.757 350.037,101.778 Q353.127,106.152 354.908,108.664 Q356.244,110.548 354.36,111.884 Q353.417,112.552 352.612,112.415 Q351.807,112.278 351.139,111.336 Q350.132,109.916 348.713,107.909 Z M343.623,116.976 Q343.632,111.966 344.487,103.46 Q344.552,102.807 344.786,102.357 Q334.328,87.635 331.724,85.187 Q329.465,83.065 324.586,83.209 Q319.145,83.371 313.861,82.768 Q314.965,84.937 316.274,87.565 Q321.334,97.729 325.256,101.904 Q329.636,106.567 343.623,116.976 Z"/>
  <path fill="rgb(40.392157%, 35.294118%, 81.960784%)" opacity="0.168" d="M65.43,276.222 Q64.422,271.192 64.329,266.199 Q64.307,265.013 64.367,264.178 Q64.455,262.936 64.782,261.856 Q66.595,255.864 72.508,255.18 Q73.248,251.143 73.642,246.853 Q74.508,237.425 83.936,238.291 Q88.65,238.724 90.791,241.297 Q92.931,243.871 92.498,248.585 Q91.032,264.541 85.53,277.883 Q85.654,278.177 85.781,278.436 Q88.903,278.006 91.815,277.661 Q98.067,276.92 101.169,282.399 Q105.833,290.638 97.594,295.302 Q88.802,300.278 81.496,298.204 Q79.534,298.51 77.49,298.847 Q68.01,300.411 64.474,298.512 Q59.51,295.846 59.228,290.224 Q59.1,287.679 60.238,285.146 Q60.799,283.895 62.428,281.375 Q64.041,278.88 65.43,276.222 Z"/>
  <path fill="rgb(9.019608%, 45.490196%, 71.764706%)" opacity="0.371" d="M46.021,82.227 Q66.859,82.618 75.829,87.982 Q81.711,91.499 84.77,99.692 Q86.684,104.817 89.906,105.996 Q96.82,108.527 116.956,105.573 Q118.744,105.311 119.769,106.074 Q120.794,106.836 121.056,108.624 Q121.58,112.199 118.005,112.724 Q96.056,115.943 87.422,112.783 Q81.078,110.461 78,102.221 Q75.827,96.401 72.12,94.184 Q64.801,89.807 45.885,89.453 Q42.273,89.385 42.34,85.772 Q42.408,82.159 46.021,82.227 Z"/>
  <path fill="rgb(93.333333%, 100%, 69.019608%)" opacity="0.168" d="M140.717,151.971 Q118.988,157.807 103.563,155.388 Q86.665,152.737 83.332,142.026 Q80.691,133.538 87.847,127.897 Q92.269,124.412 99.381,124.062 Q111.97,123.442 129.656,132.389 Q130.995,133.067 132.027,133.845 Q133.782,133.424 135.604,132.935 Q145.122,130.379 147.678,139.897 Q150.235,149.415 140.717,151.971 Z"/>
  <path fill="rgb(33.72549%, 43.529412%, 100%)" opacity="0.024" d="M293.495,140.136 Q308.583,139.735 316.691,154.816 Q322.102,164.882 323,178.796 Q323.347,184.159 322.803,187.778 Q322.429,190.264 321.531,191.795 Q320.075,194.278 317.399,194.885 Q313.912,195.675 311.403,192.996 Q307.789,189.139 306.626,165.47 Q306.528,163.473 307.138,162.118 Q306.73,161.245 306.282,160.412 Q301.621,151.742 293.809,151.95 Q287.903,152.107 287.746,146.2 Q287.667,143.247 289.105,141.731 Q290.542,140.215 293.495,140.136 Z"/>
  <path fill="rgb(100%, 67.058824%, 24.313725%)" opacity="0.59" d="M56.359,342.618 Q75.165,341.52 83.148,342.206 Q87.299,342.563 88.873,343.562 Q91.069,344.956 90.428,347.292 Q90.051,348.666 88.522,349.659 Q81.986,353.902 52.119,357.542 Q42.667,363.292 30.37,355.577 Q27.334,353.672 26.469,353.516 Q26.29,353.484 25.941,354.193 Q23.429,359.294 23.171,385.941 Q23.158,387.317 22.463,387.999 Q21.768,388.681 20.391,388.668 Q17.638,388.641 17.665,385.887 Q17.935,357.986 21.001,351.76 Q23.182,347.33 27.443,348.096 Q29.358,348.44 33.297,350.912 Q42.968,356.979 49.66,352.582 Q50.2,352.227 50.842,352.149 Q69.998,349.837 78.954,347.494 Q71.169,347.27 56.68,348.116 Q53.931,348.277 53.771,345.528 Q53.69,344.153 54.337,343.426 Q54.985,342.699 56.359,342.618 Z"/>
  <path fill="rgb(7.058824%, 50.588235%, 27.058824%)" opacity="0.233" d="M362.603,271.632 Q361.137,257.011 359.351,245.772 Q358.95,243.477 358.699,241.965 Q358.57,241.185 358.534,240.936 Q358.518,240.824 358.513,240.746 Q358.496,240.486 358.555,240.234 Q358.707,239.596 359.245,239.222 Q360.434,238.395 361.448,239.43 Q361.705,239.692 361.832,240.037 Q361.875,240.153 361.903,240.283 Q361.921,240.365 361.959,240.58 Q362.353,242.816 362.732,245.203 Q362.904,246.186 363.106,247.326 Q365.227,259.304 368.797,278.094 Q368.957,278.936 368.616,279.437 Q368.275,279.938 367.433,280.098 Q365.749,280.418 365.429,278.734 Q364.886,275.875 364.377,273.175 Q362.769,273.285 362.603,271.632 Z"/>
  <path fill="rgb(10.980392%, 34.117647%, 67.843137%)" opacity="0.209" d="M317.977,91.392 Q299.088,88.031 290.095,85.767 Q284.18,84.279 281.081,82.843 Q276.863,80.89 274.359,77.622 Q270.508,72.596 271.272,66.367 Q272.007,60.382 276.66,56.458 Q281.728,52.183 295.227,51.746 Q300.436,51.577 313.08,51.61 Q327.847,51.649 331.399,51.349 Q337.586,50.826 342.33,54.832 Q347.074,58.837 347.597,65.024 Q348.119,71.211 344.114,75.955 Q344.032,76.052 343.948,76.148 Q352.005,87.008 363.159,96.075 Q375.372,106.002 385.899,109.732 Q385.148,107.867 384.083,105.67 Q381.374,100.083 383.408,94.217 Q385.443,88.351 391.03,85.642 Q396.616,82.932 402.482,84.967 Q408.349,87.002 411.058,92.588 Q423.622,118.498 412.273,132.423 Q400.975,146.285 377.468,138.531 Q361.301,133.198 344.25,119.338 Q328.841,106.814 317.977,91.392 Z"/>
  <path fill="rgb(40.392157%, 46.27451%, 45.490196%)" opacity="0.193" d="M79.312,284.285 Q140.203,288.319 154.329,321.31 Q158.314,330.617 158.153,342.105 Q170.338,336.938 192.712,336.746 Q215.034,336.555 235.285,341.061 Q257.238,345.946 262.009,353.654 Q262.363,354.227 262.445,354.895 Q263.981,367.389 273.219,373.84 Q278.67,377.647 290.489,380.779 Q296.591,382.396 298.567,383.503 Q303.626,386.341 301.342,391.258 Q300.049,394.042 297.266,392.749 Q294.482,391.456 295.775,388.672 L295.564,388.858 Q294.267,388.13 288.917,386.713 Q276.046,383.303 269.704,378.873 Q258.506,371.053 256.45,356.393 Q252.508,351.183 233.952,347.053 Q214.386,342.7 192.764,342.885 Q169.626,343.083 158.626,348.647 Q158.14,348.893 157.689,349.145 Q156.874,356.233 154.645,364.064 Q154.563,364.35 154.493,364.601 Q155.2,366.225 153.941,367.696 Q152.886,368.927 151.678,369.147 Q148.913,369.65 148.098,366.948 Q147.9,366.291 147.976,365.525 Q144.375,358.67 146.315,352.903 Q147.712,348.747 151.857,345.625 Q152.759,333.241 148.685,323.726 Q136.041,294.196 78.906,290.41 Q75.844,290.208 76.047,287.145 Q76.148,285.613 76.965,284.898 Q77.781,284.183 79.312,284.285 Z"/>
  <path fill="rgb(20.392157%, 80.784314%, 72.941176%)" opacity="0.802" d="M193.171,103.067 Q193.053,102.267 192.935,101.469 Q192.269,96.977 196.543,96.149 Q199.956,91 205.062,88.789 Q211.5,86.002 218.012,88.904 Q231.429,94.882 235.951,120.209 Q241.14,149.267 232.629,197.165 Q231.8,201.834 227.132,201.004 Q224.797,200.59 223.838,199.215 Q222.878,197.841 223.293,195.507 Q231.508,149.271 226.616,121.876 Q222.977,101.498 214.153,97.566 Q208.076,94.859 203.801,102.447 Q203.319,103.302 202.92,104.192 Q208.158,140.191 210.013,165.081 Q210.54,167.295 211.114,169.605 Q216.614,191.745 216.356,200.211 Q215.914,214.765 204.111,219.096 Q202.161,220.326 199.653,220.054 Q197.296,219.798 196.245,218.492 Q195.194,217.185 195.45,214.828 Q195.81,211.515 199.049,210.731 Q199.053,210.73 199.058,210.729 Q199.217,210.399 199.426,209.84 Q201.079,205.405 201.448,194.98 Q201.854,183.507 200.62,166.567 Q195.097,143.182 194.639,129.825 Q189.147,114.85 193.171,103.067 Z"/>
  <path fill="rgb(18.823529%, 90.588235%, 100%)" opacity="0.291" d="M249.678,79.598 Q270.43,72.408 315.858,45.953 Q309.237,38.61 299.328,27.683 Q278.313,4.512 276.587,1.453 Q275.239,-0.936 276.819,-2.091 Q277.883,-2.868 280,-2.115 Q281.751,-1.492 288.323,1.872 Q324.559,20.422 350.632,23.343 Q351.484,23.439 351.862,23.912 Q352.241,24.386 352.145,25.238 Q351.954,26.941 350.251,26.751 Q323.554,23.76 286.761,4.924 Q283.448,3.228 281.442,2.266 Q286.132,8.029 301.867,25.38 Q312.861,37.502 319.817,45.224 Q319.934,45.354 320.023,45.506 Q320.888,46.986 319.408,47.851 Q268.517,77.596 247.477,83.916 Q244.13,84.922 242.413,84.982 Q241.208,85.024 240.524,84.547 Q239.676,83.956 239.691,82.941 Q239.701,82.265 240.152,81.684 Q241.792,79.571 247.887,78.716 Q249.26,78.524 249.678,79.598 Z"/>
  <path fill="rgb(3.137255%, 70.196078%, 97.647059%)" opacity="0.471" d="M64.525,199.679 Q46.011,149.406 30.348,142.575 Q15.278,136.002 -23.423,160.702 Q-30.215,165.037 -34.55,158.245 Q-36.718,154.849 -36.103,152.067 Q-35.489,149.285 -32.093,147.118 Q-9.134,132.465 5.563,127.719 Q23.393,121.96 36.791,127.804 Q49.701,133.435 60.29,150.926 Q69.108,165.492 79.647,194.11 Q82.432,201.671 74.871,204.456 Q67.309,207.24 64.525,199.679 Z"/>
  <path fill="rgb(21.960784%, 50.980392%, 31.764706%)" opacity="0.179" d="M333.483,277.119 Q327.566,263.306 326.312,251.196 Q325.571,244.044 326.528,232.872 Q327.476,221.811 326.117,216.071 Q323.888,206.657 314.545,195.157 Q312.428,192.55 315.035,190.432 Q315.491,190.061 316.046,189.868 Q326.208,186.322 335.982,196.438 Q344.146,204.888 345.973,215.315 Q346.262,216.969 345.58,217.941 Q344.898,218.913 343.244,219.203 Q339.935,219.783 339.356,216.474 Q337.884,208.075 331.15,201.105 Q327.31,197.13 323.688,196.087 Q330.604,205.866 332.654,214.523 Q334.261,221.311 333.221,233.446 Q332.318,243.985 332.994,250.504 Q334.143,261.599 339.658,274.474 Q340.98,277.562 337.893,278.884 Q334.805,280.207 333.483,277.119 Z"/>
  <path fill="rgb(24.705882%, 48.627451%, 53.72549%)" opacity="0.464" d="M244.279,81.876 Q250.285,76.255 255.361,76.893 Q261.731,77.694 264.225,86.128 Q265.135,89.205 266.741,98.576 Q273.107,135.717 285.746,166.258 Q288.398,172.667 281.988,175.32 Q275.579,177.972 272.926,171.563 Q265.04,152.504 259.499,131.067 Q256.412,131.985 252.727,133.138 Q242.729,136.267 239.204,135.09 Q233.549,133.202 232.574,123.478 Q230.712,104.911 219.507,83.196 Q217.917,80.114 218.663,77.778 Q219.409,75.442 222.491,73.851 Q225.295,72.404 228.228,73.567 Q237.383,77.197 244.279,81.876 Z M246.193,120.41 Q246.207,120.524 246.219,120.629 Q246.347,120.59 246.479,120.549 Q246.337,120.481 246.193,120.41 Z"/>
  <path fill="rgb(48.627451%, 43.137255%, 34.509804%)" opacity="0.199" d="M345.425,56.664 Q298.819,64.505 272.264,80.158 Q269.704,83.449 265.588,87.414 Q259.352,93.421 238.059,111.534 Q235.546,114.016 233.7,115.188 Q230.109,117.47 227.827,113.879 Q225.843,110.756 228.661,108.358 Q229.857,107.34 232.223,105.328 Q232.352,105.218 232.467,105.12 Q234.603,102.953 237.548,99.42 Q251.118,83.143 266.425,73.741 Q267.91,71.848 267.971,71.007 Q268.111,69.057 237.871,65.132 Q226.685,63.68 220.171,62.759 Q218.064,62.462 217.16,61.26 Q216.754,60.721 216.59,59.999 Q195.173,64.786 174.376,68.157 Q170.176,68.837 169.496,64.638 Q168.815,60.438 173.015,59.758 Q198.281,55.662 224.489,49.449 Q228.979,48.384 230.308,48.113 Q231.511,47.866 232.198,47.804 Q232.971,47.734 233.618,47.839 Q237.347,48.443 237.309,52.162 Q237.292,53.804 234.179,56.069 Q236.455,56.368 238.966,56.694 Q259.201,59.321 265.115,60.875 Q274.336,63.299 276.077,68.424 Q302.536,55.252 344.013,48.273 Q348.208,47.568 348.914,51.763 Q349.267,53.861 348.395,55.086 Q347.522,56.311 345.425,56.664 Z"/>
  <path fill="rgb(0%, 8.627451%, 20.392157%)" opacity="0.287" d="M103.23,57.501 Q108.679,67.354 114.862,69.416 Q118.768,70.718 128.464,69.314 Q139.522,67.712 146.538,68.405 Q158.584,69.596 171.081,76.766 Q172.173,77.392 172.405,78.251 Q172.638,79.11 172.012,80.202 Q170.759,82.385 168.575,81.133 Q157.015,74.5 146.042,73.415 Q139.637,72.782 129.186,74.296 Q118.308,75.872 113.269,74.192 Q105.224,71.509 98.824,59.937 Q97.606,57.734 99.809,56.516 Q102.012,55.298 103.23,57.501 Z"/>
  <path fill="rgb(85.098039%, 65.490196%, 100%)" opacity="0.118" d="M334.112,77.7 Q309.552,95.088 311.978,113.632 Q313.594,125.989 332.86,154.199 Q335.714,158.378 338.183,162.101 Q340.258,137.493 338.95,116.046 Q338.401,107.052 337.428,101.292 Q335.926,99.399 335.979,95.999 Q336.03,92.742 337.845,90.577 Q340.385,87.549 344.315,87.881 Q347.106,88.117 349.092,90.115 Q350.158,91.188 350.802,92.671 Q351.489,94.251 352.095,97.528 Q353.365,104.397 354.02,115.127 Q355.976,147.187 350.762,185.666 Q350.251,189.44 346.911,191.272 Q343.601,193.087 341.039,192.339 Q338.477,191.592 336.662,188.282 Q331.808,179.429 320.392,162.714 Q309.846,147.272 305.684,139.685 Q298.428,126.459 297.007,115.59 Q293.401,88.024 325.388,65.378 Q328.469,63.197 331.099,63.646 Q333.73,64.096 335.911,67.177 Q340.273,73.338 334.112,77.7 Z"/>
  <path fill="rgb(0%, 51.372549%, 100%)" opacity="0.516" d="M140.516,18.933 Q176.308,33.354 182.728,44.243 Q183.98,46.366 184.142,48.428 Q189.212,47.662 204.029,47.626 Q213.199,47.604 219.123,47.531 Q221.066,43.177 224.049,43.343 Q225.989,43.451 230.578,46.913 Q247.521,59.7 269.358,58.99 Q270.215,58.962 270.657,59.376 Q271.1,59.791 271.127,60.647 Q271.183,62.361 269.47,62.417 Q246.422,63.166 228.512,49.65 Q224.757,46.816 223.858,46.766 Q223.044,46.721 221.888,49.828 Q221.479,50.928 220.305,50.945 Q214.13,51.031 204.037,51.055 Q186.358,51.098 183.584,52.005 Q183.557,52.074 183.528,52.142 Q184.615,53.631 189.117,56.884 Q189.807,57.382 189.827,58.233 Q189.868,59.947 188.154,59.987 Q178.709,60.21 176.968,59.738 Q175.906,59.45 175.432,58.72 Q174.742,57.658 175.434,56.491 Q175.776,55.915 177.115,54.795 Q178.984,53.232 179.86,51.668 Q179.871,51.434 179.921,51.203 Q180.069,50.521 180.515,49.991 Q180.957,47.989 179.775,45.985 Q173.946,36.099 139.234,22.114 Q137.644,21.473 138.285,19.883 Q138.605,19.088 139.163,18.85 Q139.721,18.613 140.516,18.933 Z M181.621,55.167 Q181.001,55.896 180.23,56.617 Q181.436,56.648 183.207,56.638 Q182.268,55.834 181.621,55.167 Z"/>
  <path fill="rgb(50.980392%, 55.686275%, 70.980392%)" opacity="0.217" d="M297.667,407.643 Q279.861,398.546 268.635,383.747 Q262.252,375.332 254.881,359.354 Q250.001,348.777 247.184,344.959 Q243.493,339.957 237.831,337.418 Q231.414,334.54 228.911,327.968 Q226.408,321.396 229.285,314.979 Q232.163,308.562 238.735,306.059 Q245.307,303.556 251.724,306.434 Q265.523,312.621 274.507,324.797 Q279.383,331.405 285.714,345.13 Q291.538,357.754 295.689,363.226 Q302.223,371.839 313.115,377.404 Q319.377,380.603 321.544,387.294 Q323.71,393.985 320.51,400.248 Q317.311,406.51 310.62,408.676 Q303.929,410.842 297.667,407.643 Z"/>
  <path fill="rgb(13.72549%, 21.176471%, 36.862745%)" opacity="0.27" d="M366.576,113.189 Q366.29,113.332 365.997,113.47 Q358.34,117.064 350.384,114.191 Q342.428,111.318 338.835,103.661 Q335.241,96.004 338.114,88.048 Q344.22,71.139 350.991,47.561 Q353.293,39.544 354.148,37.094 Q355.729,32.565 358.001,29.583 Q360.679,26.069 364.497,23.954 Q373.893,18.748 383.523,23.476 Q392.275,27.774 394.586,37.465 Q395.683,42.071 394.449,68.547 Q393.718,84.217 393.281,94.571 Q392.925,103.022 386.697,108.746 Q380.47,114.47 372.019,114.113 Q369.139,113.992 366.576,113.189 Z"/>
  <path fill="rgb(79.607843%, 80%, 100%)" opacity="0.036" d="M-6.654,383.477 Q7.103,386.531 25.019,389.634 Q38.023,391.886 39.016,394.049 Q40.23,396.694 37.451,398.341 Q36.63,398.828 35.046,399.327 Q32.944,399.989 27.01,401.376 Q25.609,401.703 24.745,401.166 Q23.881,400.63 23.554,399.229 Q22.899,396.427 25.701,395.773 Q25.912,395.723 26.139,395.67 Q25.16,395.498 24.037,395.304 Q5.988,392.178 -7.901,389.094 Q-10.709,388.47 -10.086,385.662 Q-9.774,384.257 -8.916,383.711 Q-8.058,383.165 -6.654,383.477 Z"/>
</svg>

