<svg xmlns="http://www.w3.org/2000/svg" width="384" height="384" viewBox="0 0 384 384">
  <defs/>
  <path fill="rgb(0%, 0%, 100%)" d="M122.164,264.724 Q118.985,236.791 115.257,233.459 Q115.097,233.574 114.826,233.856 Q113.913,234.807 112.14,237.968 Q109.297,243.039 106.84,242.12 Q104.413,241.212 104.389,232.716 Q104.35,218.803 108.744,153.492 Q108.9,151.174 111.219,151.33 Q112.378,151.408 112.919,152.026 Q113.459,152.645 113.381,153.804 Q108.998,218.953 109.037,232.703 Q109.039,233.408 109.049,234.036 Q110.473,231.678 111.475,230.635 Q114.931,227.04 118.257,229.909 Q123.383,234.329 126.782,264.198 Q127.044,266.507 124.735,266.77 Q123.581,266.901 122.938,266.39 Q122.295,265.878 122.164,264.724 Z"/>
  <path fill="rgb(6.666667%, 0%, 100%)" d="M266.234,310.306 Q269.643,265.09 261.812,258.41 Q258.394,255.495 249.506,263.617 Q246.911,265.988 245.97,266.297 Q244.864,266.66 243.971,266.051 Q243.105,265.461 243,264.316 Q242.956,263.826 243.088,263.091 Q241.064,261.546 239.323,260.765 Q231.106,274.984 225.543,282.43 Q220.23,289.542 216.262,292.124 Q211.168,295.439 207.571,292.228 Q196.615,282.445 207.99,179.318 Q208.2,177.418 210.1,177.627 Q211.05,177.732 211.473,178.259 Q211.896,178.787 211.791,179.737 Q200.632,280.906 210.118,289.376 Q211.533,290.64 214.177,288.919 Q217.575,286.708 222.48,280.142 Q227.79,273.035 235.627,259.522 Q235.017,259.037 234.962,258.147 Q234.901,257.156 235.95,256.227 Q238.435,254.025 241.282,249.531 Q243.872,244.855 246.687,239.612 Q247.554,237.996 249.205,238.795 Q250.925,239.629 250.092,241.349 Q247.261,247.191 244.642,251.355 Q242.885,254.525 241.228,257.44 Q243.704,258.619 246.445,260.876 Q246.551,260.963 246.641,261.055 Q246.779,260.93 246.927,260.795 Q258.307,250.396 264.293,255.501 Q273.602,263.441 270.047,310.593 Q269.903,312.499 267.997,312.356 Q266.091,312.212 266.234,310.306 Z"/>
  <path fill="rgb(4.313725%, 0%, 71.764706%)" d="M265.362,286.856 Q210.657,276.944 198.972,284.452 Q193.239,288.136 191.662,297.976 Q190.572,304.781 190.84,324.917 Q191.129,346.623 190.475,360.262 Q190.422,361.36 189.847,361.884 Q189.271,362.407 188.172,362.354 Q185.974,362.249 186.08,360.051 Q186.727,346.547 186.44,324.975 Q186.167,304.459 187.317,297.28 Q189.205,285.498 196.594,280.75 Q204.215,275.854 220.866,276.484 Q235.955,277.056 266.146,282.526 Q268.311,282.919 267.919,285.084 Q267.527,287.249 265.362,286.856 Z"/>
  <path fill="rgb(89.803922%, 97.647059%, 0%)" d="M226.585,80.364 Q229.319,86.982 231.158,92.704 Q236.334,93.103 241.068,94.287 Q254.57,97.663 259.809,105.772 Q266.259,115.756 256.919,122.548 Q249.007,128.301 232.361,126.186 Q232.301,126.178 232.242,126.169 Q231.033,125.983 229.968,125.858 Q228.64,126.88 226.956,127.478 Q223.846,128.582 220.979,127.57 Q219.155,126.926 218.081,125.548 Q215.974,122.846 217.589,119.873 Q219.274,116.771 225.343,116.487 Q225.634,115.254 225.713,113.385 Q225.915,108.626 224.199,101.723 Q217.077,101.893 208.99,103.579 Q204.485,104.517 203.546,100.013 Q203.077,97.761 203.968,96.4 Q204.86,95.039 207.112,94.57 Q214.605,93.008 221.436,92.626 Q219.998,88.521 218.08,83.878 Q216.322,79.626 220.575,77.869 Q222.701,76.99 224.203,77.614 Q225.706,78.238 226.585,80.364 Z M233.733,102.231 Q235.118,108.8 234.907,113.774 Q234.83,115.592 234.564,117.182 Q246.748,118.566 251.507,115.106 Q253.804,113.435 252.079,110.766 Q248.812,105.709 238.835,103.214 Q236.364,102.596 233.733,102.231 Z"/>
  <path fill="rgb(94.901961%, 89.411765%, 36.078431%)" opacity="0.165" d="M399.2,314.898 Q403.783,319.774 405.981,324.852 Q407.017,321.949 407.323,320.1 Q408.59,312.446 416.244,313.713 Q423.898,314.98 422.631,322.634 Q421.742,328.004 417.841,336.925 Q413.128,347.701 414.514,353.144 Q415.051,355.252 414.414,357.332 Q414.258,357.841 413.776,360.003 Q410.278,375.709 403.687,382.511 Q390.407,396.216 367.179,383.786 Q366.499,383.421 365.903,382.93 Q359.918,377.993 364.855,372.009 Q368.75,367.287 376.017,359.094 Q389.432,343.97 391.647,338.335 Q394.091,332.118 387.894,325.524 Q382.581,319.871 388.234,314.558 Q393.887,309.245 399.2,314.898 Z M398.797,355.894 Q394.398,361.755 387.625,369.39 Q385.573,371.704 383.805,373.723 Q389.521,374.833 392.544,371.713 Q396.086,368.059 398.631,356.63 Q398.716,356.248 398.797,355.894 Z"/>
  <path fill="rgb(3.137255%, 0%, 9.803922%)" opacity="0.914" d="M166.485,313.405 Q166.399,312.888 166.28,312.265 Q164.773,304.399 160.543,294.981 Q155.814,284.45 151.761,281.969 Q150.307,281.078 149.254,281.828 Q147.361,283.177 145.748,288.219 Q145.487,289.035 144.743,289.46 Q142.52,290.732 137.719,289.733 Q132.572,288.662 130.849,291.172 Q126.904,296.917 127.356,318.826 Q127.402,321.03 125.198,321.075 Q122.994,321.121 122.948,318.917 Q122.467,295.59 127.214,288.677 Q130.599,283.748 138.617,285.417 Q140.871,285.886 141.912,285.797 Q143.874,280.248 146.696,278.237 Q150.123,275.796 154.064,278.209 Q159.278,281.402 164.565,293.175 Q169.006,303.063 170.61,311.435 Q171.428,315.702 170.746,317.439 Q169.727,320.034 167.167,319.106 Q166.023,318.691 164.75,317.133 Q164.053,316.279 164.131,315.504 Q164.209,314.728 165.062,314.031 Q165.803,313.426 166.485,313.405 Z"/>
  <path fill="rgb(100%, 0.784314%, 89.411765%)" opacity="0.983" d="M34.075,31.354 Q45.222,39.041 50.904,45.695 Q51.072,44.519 51.328,43.228 Q52.313,38.259 54.615,32.617 Q54.944,24.858 55.999,14.571 Q56.966,5.145 56.995,1.193 Q55.49,-1.758 53.939,-4.993 Q53.197,-6.539 54.743,-7.28 Q55.051,-7.428 55.392,-7.446 Q58.06,-7.591 59.356,-5.13 Q60.253,-3.426 60.401,-0.187 Q60.413,0.069 60.418,0.362 Q63.847,7.039 66.989,12.138 Q67.305,12.227 67.65,12.453 Q67.745,12.515 67.832,12.589 Q76.431,20.018 79.861,25.004 Q81.525,27.423 81.287,28.747 Q81.114,29.706 80.279,30.153 Q79.645,30.493 78.875,30.352 Q78.149,30.218 77.219,29.587 Q72.241,26.207 66.408,17.535 Q61.057,26.066 58.015,33.358 Q57.766,39.694 58.028,44.226 Q58.077,45.081 57.674,45.534 Q57.271,45.986 56.415,46.036 Q54.704,46.134 54.605,44.423 Q54.603,44.389 54.601,44.359 Q53.983,47.616 53.965,49.824 Q55.502,52.298 55.741,54.006 Q55.959,55.566 54.986,56.313 Q53.466,57.48 52.133,55.785 Q50.814,54.107 50.615,50.956 Q45.607,43.471 32.128,34.177 Q30.717,33.204 31.69,31.792 Q32.663,30.381 34.075,31.354 Z M58.563,24.234 Q61.067,19.501 64.358,14.366 Q62.291,11.053 60.123,7.108 Q59.872,10.418 59.41,14.921 Q58.901,19.88 58.563,24.234 Z"/>
  <path fill="rgb(0%, 0%, 3.921569%)" d="M241.076,404.314 Q245.998,417.533 245.057,428.192 Q244.532,434.15 241.944,437.504 Q239.407,440.793 235.52,441.3 Q231.631,441.807 228.283,439.264 Q214.958,429.143 212.744,360.671 Q212.495,352.966 220.2,352.717 Q227.905,352.468 228.154,360.173 Q228.904,383.37 231.079,399.811 Q231.119,399.795 231.162,399.779 Q238.386,397.089 241.076,404.314 Z"/>
  <path fill="rgb(100%, 59.215686%, 97.254902%)" opacity="0.352" d="M212.089,298.546 Q209.498,274.452 212.697,262.582 Q216.257,249.374 226.302,250.267 Q233.642,250.92 241.619,260.171 Q248.512,268.164 253.194,279.053 Q253.926,280.755 253.254,282.481 Q252.024,285.639 250.488,288.801 Q249.271,291.306 249.108,302.294 Q248.674,331.39 247.137,368.395 Q247.043,370.655 245.866,371.737 Q244.689,372.82 242.429,372.726 Q237.91,372.539 238.098,368.019 Q239.63,331.135 240.062,302.159 Q240.256,289.161 242.351,284.848 Q243.306,282.882 244.127,280.923 Q240.214,272.394 234.768,266.079 Q229.186,259.606 225.501,259.278 Q223.016,259.057 221.432,264.936 Q218.674,275.17 221.083,297.579 Q221.567,302.076 217.07,302.56 Q212.572,303.043 212.089,298.546 Z"/>
  <path fill="rgb(100%, 0%, 92.941176%)" d="M81.807,32.236 Q89.945,7.13 94.681,-5.298 Q94.419,-6.107 94.912,-6.936 Q95.702,-8.265 96.324,-9.481 Q96.543,-10.02 96.753,-10.523 Q97.396,-12.063 97.661,-12.531 Q98.285,-13.63 99.481,-13.654 Q101.274,-13.69 101.579,-11.922 Q101.634,-11.604 101.591,-11.28 Q101.569,-11.111 101.517,-10.93 Q101.446,-10.683 101.262,-10.236 Q100.773,-9.042 100.119,-7.749 Q99.731,-6.793 99.312,-5.722 Q108.521,7.981 116.11,17.641 Q122.234,10.472 123.723,-1.373 Q125.189,-13.029 122.355,-16.863 Q121.117,-18.539 122.792,-19.777 Q123.63,-20.397 124.359,-20.288 Q125.088,-20.178 125.707,-19.34 Q129.533,-14.165 127.859,-0.853 Q126.15,12.734 118.756,20.947 Q119.919,22.371 121.04,23.692 Q125.649,28.079 128.122,30.903 Q128.77,31.642 129.079,32.077 Q129.348,32.455 129.471,32.777 Q129.831,33.719 129.354,34.581 Q128.527,36.073 126.883,35.569 Q126.099,35.328 124.224,33.413 Q121.286,30.411 118.013,26.565 Q116.202,24.845 114.049,22.872 Q113.281,22.169 113.249,21.432 Q113.236,21.145 113.336,20.853 Q106.126,11.737 97.502,-0.955 Q92.995,11.238 85.772,33.522 Q85.129,35.504 83.146,34.861 Q82.155,34.54 81.82,33.884 Q81.485,33.228 81.807,32.236 Z"/>
  <path fill="rgb(4.313725%, 0%, 16.470588%)" d="M31.828,393.375 Q31.231,385.866 31.525,378.551 Q32.173,362.414 36.272,355.049 Q37.535,352.779 39.174,351.707 Q42.674,349.416 45.875,351.961 Q48.724,354.226 49.161,360.944 Q49.97,373.363 44.523,399.51 Q44.048,401.793 42.668,402.697 Q42.524,402.791 42.369,402.871 Q43.444,409.495 45.237,416.291 Q45.528,417.397 45.275,418.513 Q44.243,423.061 39.694,422.029 Q18.014,417.107 18.743,402.627 Q18.961,398.307 21.393,393.94 Q22.109,392.655 22.919,391.548 Q23.197,391.167 23.431,390.885 Q23.66,390.607 23.879,390.4 Q24.103,390.186 24.353,390.005 Q28.109,387.279 30.854,391.02 Q31.711,392.187 31.828,393.375 Z M30.499,396.986 Q30.475,397.018 30.449,397.054 Q29.978,397.698 29.542,398.48 Q28.168,400.947 28.06,403.096 Q27.831,407.639 34.307,410.565 Q32.516,401.92 31.839,393.518 Q31.924,394.908 31.002,396.327 Q30.887,396.504 30.746,396.684 Q30.623,396.841 30.499,396.986 Z M23.962,397.296 Q25.228,398.632 26.693,398.699 Q25.496,398.501 24.199,397.488 Q24.077,397.393 23.962,397.296 Z"/>
  <path fill="rgb(100%, 75.294118%, 100%)" opacity="0.569" d="M125.025,44.924 Q104.447,8.117 102.693,-4.497 Q101.57,-12.584 104.665,-20.218 Q106.5,-24.744 112.815,-34.701 Q113.223,-35.343 113.425,-35.662 Q116.571,-40.628 121.537,-37.481 Q124.02,-35.908 124.475,-33.88 Q124.93,-31.852 123.356,-29.369 Q123.147,-29.039 122.744,-28.404 Q116.997,-19.342 115.561,-15.799 Q113.648,-11.084 114.339,-6.115 Q115.788,4.309 135.287,39.186 Q136.722,41.751 136.156,43.751 Q135.591,45.751 133.025,47.186 Q127.894,50.055 125.025,44.924 Z"/>
  <path fill="rgb(99.607843%, 99.215686%, 79.607843%)" opacity="0.026" d="M162.928,65.246 Q149.506,62.142 143.393,69.436 Q137.933,75.951 140.307,86.558 Q142.739,97.43 151.323,102.749 Q161.136,108.83 174.23,103.275 Q175.174,102.874 175.847,103.146 Q176.52,103.418 176.92,104.363 Q177.722,106.252 175.833,107.053 Q160.782,113.439 149.161,106.238 Q139.111,100.01 136.302,87.454 Q133.486,74.868 140.247,66.8 Q147.977,57.576 163.853,61.247 Q165.852,61.709 165.39,63.708 Q165.159,64.708 164.544,65.092 Q163.928,65.477 162.928,65.246 Z"/>
  <path fill="rgb(0%, 0.784314%, 11.372549%)" opacity="0.954" d="M229.627,57.138 Q231.319,60.636 234.702,67.152 Q245.871,88.672 249.48,105.018 Q255.345,131.576 253.326,177.446 Q253.26,178.942 251.89,179.546 Q251.282,179.814 249.362,180.877 Q236.721,187.879 230.935,184.175 Q221.253,177.977 228.206,144.34 Q228.694,141.98 231.054,142.468 Q232.235,142.712 232.703,143.424 Q233.171,144.136 232.927,145.316 Q226.646,175.705 233.534,180.115 Q236.899,182.269 247.026,176.66 Q247.913,176.169 248.57,175.821 Q250.411,131.591 244.773,106.057 Q241.3,90.33 230.423,69.373 Q227.01,62.797 225.287,59.237 Q224.762,58.153 225.042,57.348 Q225.322,56.543 226.407,56.018 Q228.577,54.968 229.627,57.138 Z"/>
  <path fill="rgb(2.745098%, 3.529412%, 14.509804%)" opacity="0.976" d="M273.628,100.399 Q227.374,116.676 215.929,106.201 Q213.798,117.009 212.655,127.393 Q210.821,144.049 211.558,165.117 Q211.873,174.116 210.754,178.512 Q213.115,178.825 215.756,179.077 Q231.868,180.609 249.442,179.017 Q267.497,177.382 276.126,173.375 Q280,171.576 280.699,169.876 Q281.2,168.657 279.227,166.671 Q278.237,165.675 278.24,164.682 Q278.243,163.689 279.239,162.699 Q281.232,160.72 283.211,162.712 Q287.812,167.343 285.894,172.01 Q284.36,175.744 278.492,178.469 Q268.977,182.888 249.949,184.611 Q231.855,186.25 215.224,184.668 Q196.84,182.92 190.113,177.843 Q188.25,176.437 189.291,174.349 Q190.544,171.835 193.058,173.088 Q197.303,175.204 200.105,176.382 Q202.482,177.092 205.469,177.666 Q206.339,176.584 205.945,165.314 Q205.193,143.839 207.072,126.779 Q208.648,112.463 212.055,97.381 Q211.638,92.383 213.483,85.435 Q215.446,78.044 222.167,62.123 Q222.713,60.829 223.632,60.455 Q224.552,60.081 225.846,60.627 Q228.262,61.647 227.41,64.127 Q221.556,81.176 217.833,97.309 Q217.981,99.607 218.81,100.957 Q225.266,111.464 271.763,95.101 Q274.412,94.169 275.345,96.818 Q276.277,99.467 273.628,100.399 Z"/>
  <path fill="rgb(6.27451%, 0%, 91.372549%)" d="M235.198,252.394 Q241.54,245.748 247.852,246.255 Q253.763,246.73 258.961,253.434 Q267.955,265.037 274.261,293.841 Q280.064,320.349 282.044,353.545 Q284.024,386.744 281.423,413.929 Q281.252,415.715 279.466,415.544 Q277.68,415.373 277.851,413.587 Q280.426,386.679 278.462,353.759 Q276.499,320.842 270.756,294.609 Q264.623,266.595 256.125,255.633 Q251.897,250.18 247.565,249.832 Q242.956,249.461 237.794,254.871 Q236.556,256.169 235.258,254.931 Q233.96,253.692 235.198,252.394 Z"/>
  <path fill="rgb(100%, 97.254902%, 100%)" opacity="0.069" d="M-17.074,127.774 Q-10.451,129.477 3.01,132.601 Q36.267,140.319 52.161,146.472 Q63.812,150.983 73.746,156.826 Q56.535,119.614 51.501,93.166 Q42.601,46.397 55.879,-9.211 Q56.746,-12.841 58.995,-14.223 Q61.244,-15.605 64.875,-14.738 Q72.136,-13.004 70.402,-5.743 Q57.867,46.75 66.17,90.375 Q70.972,115.609 88.09,152.261 Q96.143,169.505 98.9,177.574 Q100.401,181.964 97.129,185.253 Q94.496,187.9 91.857,187.907 Q89.217,187.914 86.571,185.281 Q70.974,169.767 46.771,160.397 Q31.862,154.625 -0.365,147.146 Q-13.998,143.982 -20.793,142.234 Q-24.409,141.304 -25.751,139.032 Q-27.094,136.759 -26.164,133.144 Q-25.234,129.529 -22.961,128.186 Q-20.689,126.844 -17.074,127.774 Z"/>
  <path fill="rgb(100%, 100%, 100%)" opacity="0.043" d="M52.988,87.566 Q48.967,80.907 45.537,74.377 Q46.808,87.318 49.766,97.012 Q53.777,110.156 62.172,123.31 Q67.495,131.649 81.436,149.568 Q81.744,149.964 81.978,150.264 Q84.522,149.176 105.118,121.075 Q125.298,93.542 138.381,77.399 Q140.079,75.304 142.175,77.002 Q143.223,77.851 143.322,78.8 Q143.422,79.748 142.572,80.796 Q129.573,96.836 109.469,124.264 Q96.436,142.047 91.875,147.423 Q83.424,157.383 79.119,155.016 Q78.631,154.748 78.289,154.308 Q77.914,153.827 77.178,152.881 Q63.082,134.764 57.624,126.212 Q48.832,112.436 44.606,98.586 Q40.054,83.67 39.33,61.581 Q31.347,43.614 28.021,26.66 Q25.165,12.105 28.832,6.414 Q31.356,2.495 36.201,2.907 Q40.343,3.259 46.034,7.148 Q47.367,8.059 47.194,9.665 Q44.068,38.596 44.679,60.328 Q50.075,72.306 57.606,84.778 Q59,87.087 56.691,88.481 Q54.382,89.875 52.988,87.566 Z M39.253,46.926 Q39.58,30.465 41.655,10.728 Q38.056,8.479 35.745,8.282 Q34.134,8.146 33.367,9.335 Q30.878,13.2 33.315,25.621 Q35.363,36.06 39.253,46.926 Z"/>
  <path fill="rgb(100%, 0%, 100%)" opacity="0.978" d="M129.342,45.763 Q127.771,47.014 126.538,46.211 Q125.31,45.411 125.811,43.532 Q126.186,42.125 127.859,38.78 Q129.875,34.751 136.424,23.003 Q147.671,2.827 147.818,0.857 Q147.881,0.003 148.34,-0.393 Q148.8,-0.789 149.654,-0.725 Q150.646,-0.651 151.075,0.246 Q155.589,9.707 157.483,42.236 Q158.901,66.599 161.352,70.805 Q161.969,71.864 162.531,71.952 Q163.233,72.062 164.52,71.031 Q168.245,68.045 174.306,56.996 Q174.718,56.244 175.3,56.075 Q175.881,55.905 176.633,56.317 Q178.136,57.142 177.312,58.645 Q170.923,70.293 166.664,73.706 Q164.197,75.683 162,75.339 Q159.828,74.999 158.389,72.531 Q155.526,67.617 154.06,42.436 Q152.546,16.436 149.454,5.757 Q146.645,11.71 139.419,24.672 Q132.907,36.353 130.925,40.314 Q130.008,42.149 129.541,43.265 Q129.578,43.308 129.614,43.354 Q130.682,44.695 129.342,45.763 Z"/>
  <path fill="rgb(100%, 100%, 100%)" opacity="0.032" d="M40.64,304.944 Q87.648,311.419 92.055,304.786 Q97.011,297.326 65.857,257.003 Q65.193,256.144 65.291,255.383 Q65.388,254.622 66.247,253.958 Q67.965,252.631 69.292,254.349 Q86.516,276.642 92.585,287.944 Q99.679,301.156 95.671,307.188 Q91.854,312.932 77.092,312.872 Q66.056,312.827 40.048,309.244 Q37.897,308.948 38.194,306.798 Q38.342,305.723 38.953,305.259 Q39.565,304.796 40.64,304.944 Z"/>
  <path fill="rgb(0%, 1.568627%, 9.803922%)" opacity="0.955" d="M150.995,362.814 Q147.534,409.5 153.94,443.357 Q155.227,450.157 154.175,452.886 Q152.084,458.312 146.304,458.378 Q143.672,458.407 141.302,456.899 Q140.109,456.139 138.325,454.427 Q132.861,449.183 137.209,443.738 Q131.026,408.627 134.513,361.592 Q134.818,357.472 137.031,355.564 Q139.244,353.656 143.365,353.962 Q151.606,354.573 150.995,362.814 Z"/>
  <path fill="rgb(100%, 0%, 88.627451%)" opacity="0.885" d="M225.94,69.176 Q239.354,79.385 245.814,87.287 Q250.143,79.809 261.11,71.527 Q264.032,69.321 266.238,72.243 Q267.341,73.704 267.163,74.986 Q266.984,76.268 265.523,77.371 Q251.887,87.668 250.459,95.205 Q249.745,98.972 246.337,98.619 Q244.384,98.418 243.177,96.259 Q238.543,87.97 221.505,75.003 Q220.049,73.895 219.875,72.612 Q219.701,71.329 220.809,69.873 Q221.918,68.416 223.201,68.242 Q224.483,68.068 225.94,69.176 Z"/>
  <path fill="rgb(90.588235%, 81.176471%, 89.803922%)" opacity="0.034" d="M359.219,344.931 Q374.057,345.159 374.511,352.598 Q374.751,356.524 368.007,365.237 Q359.846,375.779 360.061,380.454 Q360.373,387.264 375.051,392.053 Q376.133,378.036 380.946,366.003 Q384.467,357.203 385.251,350.004 Q386.587,337.744 383.939,314.95 Q383.528,311.416 387.062,311.005 Q390.596,310.595 391.007,314.129 Q393.747,337.718 392.325,350.775 Q391.435,358.942 387.553,368.646 Q382.426,381.461 381.911,396.865 Q381.898,397.279 381.789,397.679 Q380.856,401.112 377.423,400.18 Q353.545,393.693 352.952,380.78 Q352.618,373.492 362.38,360.881 Q367.083,354.805 367.389,353.262 Q367.216,353.163 366.893,353.034 Q364.625,352.131 359.109,352.046 Q355.552,351.991 355.607,348.434 Q355.661,344.876 359.219,344.931 Z"/>
  <path fill="rgb(15.686275%, 6.27451%, 100%)" d="M102.472,251.966 Q101.508,239.502 98.141,237.761 Q95.483,236.386 90.917,244.796 Q86.632,252.687 83.06,264.857 Q89.759,260.645 102.883,261.66 Q115.154,262.609 139.269,268.698 Q141.048,269.147 140.599,270.926 Q140.551,271.116 140.464,271.292 Q129.208,293.968 124.918,309.209 Q124.438,312.752 123.897,315.745 Q123.229,319.446 122.738,320.769 Q122.528,321.334 122.23,321.66 Q121.189,322.8 119.882,322.013 Q119.168,321.583 118.999,320.734 Q118.893,320.204 119.05,319.052 Q119.698,314.279 121.312,308.495 Q122.503,299.634 123.318,287.254 Q123.439,285.424 125.269,285.545 Q126.184,285.605 126.612,286.093 Q127.039,286.58 126.979,287.496 Q126.786,290.428 126.571,293.168 Q130.433,283.419 136.169,271.705 Q94.588,261.444 84.654,268.198 Q82.723,269.511 81.195,271.695 Q76.263,291.123 72.848,319.658 Q71.982,328.546 71.195,334.886 Q70.975,336.66 69.196,336.486 Q68.283,336.396 67.871,335.895 Q67.46,335.394 67.549,334.481 Q68.322,326.608 69.195,319.316 Q69.733,313.793 70.302,307.276 Q72.033,287.459 73.643,280.592 Q75.126,274.269 77.816,270.148 Q82.17,253.217 87.693,243.046 Q93.975,231.475 99.827,234.502 Q105.008,237.182 106.13,251.683 Q106.271,253.512 104.442,253.653 Q103.528,253.724 103.035,253.302 Q102.543,252.88 102.472,251.966 Z"/>
</svg>

