<svg xmlns="http://www.w3.org/2000/svg" width="384" height="384" viewBox="0 0 384 384">
  <defs/>
  <path fill="rgb(74.509804%, 57.647059%, 100%)" d="M349.829,316.329 Q349.868,317.001 349.894,317.706 Q367.206,254.696 405.146,140.339 Q405.686,138.712 407.313,139.252 Q408.527,139.654 408.487,140.933 Q405.564,234.347 393.542,356.176 Q387.404,418.388 388.06,434.832 Q388.546,447.001 391.503,451.869 Q393.829,455.697 398.446,455.519 Q397.647,437.42 399.297,426.462 Q398.854,426.38 398.382,425.99 Q397.059,424.899 398.15,423.577 Q399.574,421.852 400.553,420.362 Q401.042,418.585 401.631,417.103 Q402.447,415.056 403.427,414.653 Q404.814,414.082 405.617,415.34 Q405.925,415.822 405.918,416.454 Q405.912,416.967 405.686,417.695 Q405.11,419.552 403.719,421.768 Q400.765,433.028 401.947,456.97 Q402.022,458.501 400.51,458.747 Q392.465,460.056 388.573,453.649 Q385.155,448.024 384.634,434.969 Q383.967,418.288 390.13,355.84 Q401.381,241.821 404.655,152.737 Q367.144,266.348 350.972,326.834 Q349.669,331.705 349.424,332.228 Q349.212,332.681 348.854,332.953 Q348.005,333.601 347.048,333.138 Q346.432,332.84 346.181,332.194 Q346.032,331.811 346.044,331.2 Q346.052,330.801 346.16,329.349 Q346.717,321.814 346.406,316.531 Q346.305,314.819 348.016,314.718 Q349.728,314.618 349.829,316.329 Z"/>
  <path fill="rgb(14.901961%, 8.235294%, 100%)" opacity="0.683" d="M77.312,279.895 Q76.684,281.243 76.068,282.56 Q76.315,282.353 76.656,282.243 Q77.32,282.03 77.945,282.34 Q78.259,282.497 78.488,282.765 Q78.578,282.871 78.654,282.994 Q78.758,283.164 79.608,284.925 Q82.436,290.789 85.513,297.018 Q85.618,297.229 85.661,297.46 Q85.925,298.862 84.802,299.317 Q86.476,304.49 87.407,308.732 Q89.312,317.414 87.929,321.724 Q86.964,324.734 84.476,325.766 Q81.977,326.802 78.25,325.578 Q76.621,325.043 77.157,323.414 Q77.424,322.6 77.965,322.327 Q78.506,322.053 79.32,322.321 Q81.839,323.148 83.163,322.599 Q84.184,322.175 84.664,320.677 Q85.765,317.246 84.058,309.467 Q83.14,305.286 81.466,300.14 Q72.089,302.872 63.077,311.96 Q61.195,313.859 59.554,315.745 Q57.257,319.951 55.29,323.216 Q52.379,328.05 51.192,329.063 Q49.983,330.095 48.823,329.275 Q47.822,328.567 48.126,327.203 Q48.289,326.472 48.968,325.127 Q51.816,319.477 56.721,313.779 Q63.85,300.687 74.204,278.448 Q74.927,276.894 76.481,277.618 Q77.258,277.98 77.466,278.549 Q77.674,279.118 77.312,279.895 Z M75.465,283.845 Q69.63,296.261 64.863,305.636 Q72.438,299.235 80.366,296.889 Q78.535,291.666 76.007,285.555 Q75.736,284.9 75.664,284.719 Q75.591,284.538 75.56,284.442 Q75.46,284.14 75.465,283.845 Z"/>
  <path fill="rgb(57.647059%, 0%, 5.882353%)" opacity="0.907" d="M161.31,68.401 Q172.479,74.956 180.708,78.644 Q190.618,73.236 199.193,78.122 Q203.584,80.623 203.401,84.063 Q203.811,84.206 204.099,84.479 Q204.744,85.089 204.779,86.344 Q205.265,103.597 210.535,113.615 Q213.597,119.433 221.288,126.344 Q229.277,133.523 231.693,139.401 Q235.552,148.786 232.933,165.33 Q232.85,165.856 232.561,166.302 Q221.123,183.965 199.12,186.069 Q179.76,187.92 161.9,177.644 Q143.636,167.135 140.388,151.557 Q136.715,133.941 155.341,119.245 Q162.889,92.283 175.834,81.894 Q168.261,78.303 158.768,72.732 Q156.603,71.461 157.874,69.296 Q158.509,68.213 159.368,67.989 Q160.227,67.765 161.31,68.401 Z M181.116,84.256 Q180.965,84.355 180.812,84.458 Q167.663,93.318 159.96,121.379 Q159.738,122.191 159.071,122.704 Q142.209,135.688 145.304,150.532 Q148.092,163.905 164.405,173.291 Q180.876,182.768 198.642,181.07 Q217.949,179.224 228.056,164.015 Q230.313,149.25 227.049,141.311 Q225.068,136.492 217.931,130.079 Q209.571,122.567 206.091,115.953 Q200.537,105.398 199.816,88.116 Q198.571,88.422 196.895,88.411 Q190.984,88.374 181.116,84.256 Z M187.376,81.334 Q193.182,83.366 196.927,83.389 Q197.576,83.394 198.019,83.331 Q197.601,82.994 196.707,82.485 Q192.39,80.026 187.376,81.334 Z"/>
  <path fill="rgb(9.803922%, 1.960784%, 79.215686%)" opacity="0.434" d="M79.987,100.213 Q83.865,101.658 84.835,102.25 Q85.658,102.753 85.994,103.354 Q86.848,104.884 85.42,105.945 Q84.576,106.573 82.117,106.768 Q81.268,106.836 79.508,106.86 Q79.379,107.026 79.22,107.158 Q78.076,108.111 76.909,107.175 Q76.752,107.048 76.614,106.874 Q65.273,106.849 33.489,105.864 Q10.392,105.148 -4.327,104.721 Q-5.184,104.697 -5.6,104.256 Q-6.016,103.815 -5.991,102.958 Q-5.983,102.7 -5.9,102.456 Q-1.574,89.729 6.381,65.98 Q27.953,1.575 32.591,-6.181 Q33.471,-7.652 34.942,-6.772 Q35.678,-6.332 35.826,-5.744 Q35.974,-5.157 35.534,-4.421 Q31.086,3.016 9.632,67.069 Q2.337,88.846 -1.908,101.362 Q12.273,101.776 33.596,102.437 Q64.103,103.383 75.611,103.446 Q75.531,102.88 75.455,102.216 Q68.402,99.695 64.218,97.994 Q63.944,97.883 63.724,97.687 Q62.443,96.548 63.582,95.267 Q70.252,87.769 75.052,90.272 Q78.518,92.08 79.719,98.579 Q79.877,99.434 79.987,100.213 Z M76.174,98.343 Q75.269,94.252 73.467,93.312 Q71.484,92.278 67.861,95.751 Q71.118,97.015 75.66,98.647 Q75.867,98.453 76.174,98.343 Z"/>
  <path fill="rgb(36.078431%, 0%, 100%)" opacity="0.81" d="M74.011,132.489 Q74.181,129.649 74.485,124.612 Q75.608,106.028 75.668,100.632 Q75.048,101.422 74.426,102.135 Q73.533,103.456 72.221,104.651 Q70.713,106.024 68.908,106.912 Q64.767,109.357 60.529,108.495 Q58.753,108.134 59.114,106.357 Q59.416,104.877 60.927,104.907 Q64.517,104.978 67.189,103.708 Q69.315,102.43 71.506,99.966 Q72.542,98.358 72.682,96.543 Q72.761,95.524 72.465,95.019 Q72.376,94.865 72.228,94.863 Q70.29,94.838 66.634,99.716 Q65.547,101.166 64.097,100.079 Q62.646,98.992 63.733,97.542 Q68.494,91.189 72.275,91.238 Q74.471,91.267 75.595,93.189 Q76.083,94.023 76.244,95.069 Q77.972,94.571 78.813,96.403 Q79.162,97.165 79.262,98.675 Q79.483,101.997 78.104,124.83 Q77.8,129.863 77.63,132.706 Q77.521,134.515 75.712,134.407 Q74.807,134.353 74.382,133.874 Q73.957,133.394 74.011,132.489 Z"/>
  <path fill="rgb(0%, 90.196078%, 43.921569%)" opacity="0.671" d="M123.439,33.221 Q123.926,31.326 124.43,29.545 Q120.77,25.204 117.924,20.788 Q117.35,29.622 115.574,40.75 Q115.307,42.428 114.334,43.133 Q113.361,43.838 111.683,43.57 Q108.328,43.035 108.863,39.679 Q111.606,22.491 111.386,11.169 Q111.327,8.162 111.074,6.252 Q110.993,5.905 110.928,5.569 Q110.849,5.163 110.83,4.866 Q110.812,4.587 110.836,4.316 Q111.136,0.998 114.454,1.223 Q116.768,1.38 117.479,3.621 Q117.627,4.086 117.76,4.995 Q118.636,8.505 121.698,13.906 Q123.939,17.857 126.906,21.768 Q132.059,7.458 138.759,3.301 Q143.553,0.327 148.235,2.587 Q152.013,4.41 154.391,9.194 Q159.237,18.942 155.398,28.864 Q150.708,40.987 136.163,40.395 Q134.913,40.344 133.994,39.495 Q131.831,37.495 129.847,35.479 Q129.41,36.669 128.565,37.169 Q127.531,37.78 125.885,37.358 Q122.594,36.512 123.439,33.221 Z M132.003,27.875 Q134.633,30.76 137.663,33.622 Q146.314,33.508 149.06,26.412 Q151.818,19.284 148.305,12.22 Q146.963,9.519 145.281,8.708 Q143.963,8.071 142.342,9.076 Q136.764,12.537 132.003,27.875 Z"/>
  <path fill="rgb(12.941176%, 8.235294%, 5.882353%)" d="M208.242,77.701 Q214.626,93.436 213.109,106.423 Q211.571,119.595 202.549,126.92 Q193.787,134.034 181.39,132.997 Q168.844,131.948 156.933,122.706 Q155.739,121.779 155.582,120.276 Q152.9,94.732 153.814,82.989 Q154.267,77.179 155.671,74.209 Q157.762,69.784 161.88,70.147 Q167.498,70.642 178.628,89.923 Q179.694,87.984 181.216,85.838 Q187.041,77.624 194.2,72.633 Q198.161,69.872 201.164,69.481 Q206.594,68.774 208.01,73.959 Q208.427,75.489 208.242,77.701 Z M194.127,96.531 Q200.049,84.368 201.083,78.942 Q200.968,78.673 200.852,78.404 Q200.547,77.702 200.46,77.087 Q199.51,77.571 198.253,78.447 Q192.107,82.731 186.996,89.938 Q182.365,96.467 183.25,98.141 Q184.905,101.274 181.773,102.929 Q178.74,104.532 177.04,101.553 Q176.203,100.087 174.383,96.811 Q164.909,79.751 161.947,77.535 Q161.203,79.383 160.879,83.539 Q160.042,94.293 162.471,118.008 Q172.137,125.112 181.98,125.935 Q191.535,126.734 198.082,121.418 Q204.866,115.91 206.071,105.601 Q206.916,98.367 204.83,89.936 Q203.097,94.295 200.498,99.633 Q198.947,102.819 195.762,101.268 Q194.169,100.492 193.76,99.308 Q193.351,98.124 194.127,96.531 Z"/>
  <path fill="rgb(100%, 86.666667%, 100%)" opacity="0.055" d="M210.426,141.189 Q245.1,115.685 236.267,99.685 Q234.558,96.59 231.508,94.06 Q229.407,93.308 226.587,92.657 Q216.127,90.243 210.062,86.1 Q206.62,83.75 205.964,79.634 Q204.439,70.078 213.995,68.553 Q222.65,67.172 234.324,73.012 Q238.124,74.913 241.325,77.199 Q245.604,79.141 248.617,81.698 Q250.698,83.464 252.635,85.758 Q252.807,85.59 252.991,85.434 Q255.601,83.223 260.423,83.622 Q270.067,84.42 269.269,94.064 Q268.157,107.499 267.93,109.606 Q267.819,110.638 267.71,111.257 Q267.539,112.232 267.23,113.083 Q266.476,115.165 264.914,116.709 Q262.855,118.744 260.16,119.3 Q259.32,119.781 258.332,120.128 Q256.294,120.842 254.552,120.943 Q247.123,138.222 221.894,156.78 Q214.099,162.513 208.365,154.718 Q202.631,146.923 210.426,141.189 Z"/>
  <path fill="rgb(17.647059%, 25.098039%, 91.764706%)" opacity="0.658" d="M209.021,-22.112 Q197.54,-28.087 190.092,-20.374 Q184.077,-14.145 180.779,0.112 Q194.925,-1.636 216.667,-6.582 Q217.502,-6.772 218.015,-6.449 Q218.528,-6.126 218.718,-5.29 Q219.099,-3.619 217.427,-3.239 Q194.681,1.935 180.026,3.647 Q179.885,4.366 179.752,5.092 Q184.469,15.223 178.573,34.631 Q178.385,35.347 178.051,35.748 Q177.379,36.552 176.369,36.388 Q175.57,36.258 175.113,35.547 Q174.722,34.937 174.545,33.378 Q174.238,30.669 174.323,25.773 Q174.504,15.293 176.177,5.615 Q175.741,4.834 175.221,4.133 Q168.156,4.728 163.388,4.339 Q156.933,3.814 156.042,1.156 Q155.463,-0.573 157.063,-2.01 Q158.075,-2.919 159.854,-3.51 Q169.743,-6.791 176.693,0.566 Q176.932,0.542 177.174,0.518 Q180.699,-15.581 187.626,-22.755 Q196.852,-32.31 210.604,-25.153 Q212.125,-24.362 211.333,-22.841 Q210.938,-22.081 210.359,-21.899 Q209.781,-21.716 209.021,-22.112 Z M171.911,0.938 Q167.174,-2.326 160.934,-0.256 Q160.122,0.014 159.648,0.319 Q160.545,0.668 163.666,0.922 Q167.136,1.205 171.911,0.938 Z M178.415,14.531 Q177.99,18.692 177.828,22.998 Q178.577,18.328 178.415,14.531 Z"/>
  <path fill="rgb(6.666667%, 0%, 100%)" d="M134.569,182.63 Q139.399,173.352 146.744,171.279 Q151.04,170.066 158.926,171.537 Q166.754,172.997 169.515,170.468 Q175.407,165.068 178.516,142.405 Q179.041,138.577 182.869,139.102 Q186.407,139.588 186.201,143.153 Q185.345,157.896 203.972,180.668 Q208.972,186.781 209.415,188.812 Q209.993,191.463 208.061,193.163 Q206.65,194.403 204.498,194.295 Q202.735,194.206 199.331,192.954 Q195.705,191.621 197.038,187.995 Q197.532,186.651 198.341,185.988 Q198.17,185.778 197.991,185.56 Q187.339,172.537 182.49,161.493 Q179.371,171.915 174.735,176.164 Q169.13,181.3 157.509,179.133 Q151.4,177.993 148.843,178.715 Q144.711,179.881 141.423,186.198 Q139.639,189.625 136.212,187.841 Q132.785,186.057 134.569,182.63 Z"/>
  <path fill="rgb(7.45098%, 64.705882%, 17.254902%)" opacity="0.591" d="M102.715,16.218 Q102.396,18.764 101.514,21.149 Q98.819,28.441 91.949,32.195 Q87.432,34.663 83.409,34.573 Q83.564,43.858 83.844,53.345 Q83.917,55.807 83.931,56.491 Q83.944,57.061 83.941,57.32 Q83.937,57.665 83.895,57.931 Q83.826,58.373 83.645,58.777 Q83.239,59.688 82.397,60.221 Q80.477,61.437 78.656,60.077 Q77.656,59.331 77.394,58.092 Q77.299,57.645 76.865,51.838 Q76.05,40.921 75.225,30.585 Q73.725,27.959 74.872,23.75 Q75.305,22.159 76.318,21.58 Q76.478,21.488 76.653,21.422 Q76.553,7.554 76.74,-5.851 Q76.786,-9.149 80.085,-9.103 Q83.384,-9.057 83.338,-5.759 Q83.281,-1.694 83.251,2.413 Q93.579,-4.903 101.655,-2.262 Q108.656,0.027 110.873,7.711 Q111.787,10.879 111.211,13.398 Q110.195,17.84 106.126,17.622 Q104.47,17.533 102.715,16.218 Z M83.219,9.357 Q83.201,18.553 83.314,27.96 Q85.681,28.101 88.785,26.405 Q100.478,20.015 94.429,4.282 Q94.384,4.165 94.345,4.05 Q90.644,5.066 85.99,8.585 Q84.674,9.58 83.518,9.419 Q83.367,9.398 83.219,9.357 Z M102.767,6.097 Q103.555,7.531 104.2,8.548 Q103.643,7.118 102.767,6.097 Z"/>
  <path fill="rgb(0%, 39.215686%, 100%)" d="M231.847,202.703 Q183.547,214.299 162.806,214.569 Q147.393,214.77 136.751,207.393 Q132.743,204.614 126.832,204.441 Q121.963,204.298 118.621,200.755 Q115.28,197.212 115.422,192.343 Q115.565,187.475 119.108,184.133 Q122.652,180.791 127.52,180.934 Q140.406,181.311 150.149,188.066 Q154.608,191.157 162.499,191.054 Q180.613,190.818 226.357,179.836 Q231.093,178.699 235.245,181.244 Q239.398,183.789 240.535,188.525 Q241.672,193.261 239.127,197.413 Q236.583,201.566 231.847,202.703 Z"/>
  <path fill="rgb(38.823529%, 0%, 100%)" opacity="0.947" d="M149.415,299.86 Q143.927,300.178 137.502,300.075 Q137.55,310.87 137.646,324.092 Q137.686,325.247 137.663,326.45 Q137.641,327.668 136.745,328.004 Q136.705,329.754 136.664,331.49 Q137.121,343.602 135.931,357.78 Q135.859,358.634 135.396,359.025 Q134.933,359.417 134.079,359.345 Q132.458,359.209 132.509,357.583 Q132.928,344.274 133.234,331.494 Q132.832,321.034 131.174,312.185 Q129.072,308.483 125.529,306.002 Q118.194,300.865 108.814,302.495 Q100.649,303.914 101.004,307.822 Q101.463,312.863 116.658,317.4 Q118.301,317.891 117.811,319.534 Q117.565,320.355 117.032,320.643 Q116.499,320.931 115.677,320.686 Q98.259,315.484 97.59,308.132 Q96.948,301.078 108.226,299.117 Q119.001,297.244 127.496,303.194 Q128.542,303.927 129.481,304.746 Q129.395,304.428 129.308,304.114 Q127.899,299.072 129.2,297.701 Q130.114,296.738 133.875,296.621 Q133.968,289.163 134.017,281.908 Q134.021,281.435 134.022,281.303 Q134.022,281.198 134.023,281.15 Q134.023,281.117 134.024,281.098 Q134.025,281.062 134.027,281.03 Q134.063,280.409 134.488,279.955 Q134.999,279.41 135.747,279.414 Q136.492,279.418 136.998,279.966 Q137.263,280.253 137.377,280.626 Q137.419,280.764 137.438,280.908 Q137.446,280.968 137.449,281.028 Q137.451,281.051 137.452,281.175 Q137.453,281.418 137.454,282.053 Q137.456,288.626 137.488,296.646 Q143.826,296.749 149.217,296.437 Q150.929,296.338 151.028,298.049 Q151.077,298.905 150.674,299.358 Q150.271,299.81 149.415,299.86 Z M133.831,300.006 Q131.762,299.982 131.686,300.062 L131.874,300.242 Q131.97,300.902 132.61,303.192 Q133.206,305.327 133.718,307.57 Q133.78,303.76 133.831,300.006 Z"/>
  <path fill="rgb(15.686275%, 12.54902%, 0%)" d="M121.585,176.561 Q134.712,174.057 144.302,172.545 Q144.031,171.089 145.316,169.439 Q147.315,166.873 150.215,168.344 Q152.037,169.269 153.832,170.135 Q155.313,170.538 157.253,170.699 Q157.495,170.719 157.732,170.734 Q158.845,170.626 159.748,170.565 Q165.367,170.184 165.815,174.038 Q165.899,174.767 165.819,175.38 Q178.721,180.419 190.156,182.137 Q200.219,183.648 212.882,182.448 Q219.847,181.788 222.528,182.481 Q227.661,183.809 229.516,189.69 Q231.446,195.808 231.131,230.577 Q230.947,250.935 230.946,264.305 Q230.946,266.278 229.959,267.264 Q228.973,268.251 227,268.251 Q223.054,268.251 223.054,264.304 Q223.055,250.904 223.239,230.505 Q223.543,196.988 221.989,192.064 Q221.45,190.355 220.551,190.122 Q219.212,189.775 213.626,190.305 Q200.002,191.596 188.984,189.941 Q172.875,187.522 154.306,179.072 Q154.202,179.085 154.11,179.097 Q142.598,180.586 123.064,184.314 Q119.188,185.053 118.448,181.177 Q117.709,177.301 121.585,176.561 Z"/>
  <path fill="rgb(0%, 35.686275%, 1.960784%)" opacity="0.533" d="M300.699,249.133 Q200.669,248.701 91.228,243.277 Q91.063,243.269 90.683,243.25 Q70.581,246.424 38.393,244.182 Q36.734,244.066 36.083,242.536 Q35.023,240.043 37.06,238.273 Q38.137,237.337 40.237,236.89 Q43.225,236.254 50.047,236.243 Q58.312,236.229 88.456,237.703 Q88.758,237.658 89.053,237.612 Q105.638,235.034 112.315,230.022 Q114.474,228.402 114.648,227.258 Q114.72,226.78 113.862,226.2 Q109.521,223.265 97.557,225.03 Q94.87,225.426 94.474,222.74 Q94.276,221.397 94.848,220.626 Q95.421,219.856 96.764,219.658 Q110.816,217.584 116.904,221.701 Q120.606,224.204 120.017,228.074 Q119.509,231.413 115.575,234.366 Q112.366,236.774 107.953,238.643 Q208.359,243.304 300.723,243.703 Q303.438,243.714 303.426,246.43 Q303.415,249.145 300.699,249.133 Z"/>
  <path fill="rgb(6.666667%, 0%, 9.019608%)" d="M124.025,186.185 Q116.908,190.585 113.59,199.525 Q110.478,207.909 111.88,216.485 Q113.255,224.899 118.266,228.778 Q123.529,232.853 131.565,230.208 Q130.758,223.989 133.257,219.185 Q140.215,205.806 170.193,206.618 Q172.981,206.694 172.905,209.482 Q172.867,210.876 172.151,211.554 Q171.436,212.232 170.042,212.194 Q143.553,211.477 138.206,221.758 Q135.54,226.884 138.538,235.143 Q138.784,235.821 138.855,236.08 Q139.063,236.837 138.923,237.526 Q138.484,239.693 136.281,239.78 Q135.311,239.818 134.507,239.243 Q134.022,238.896 132.547,236.963 Q132.146,236.436 131.785,235.966 Q121.923,238.663 114.851,233.189 Q108.105,227.966 106.375,217.384 Q104.735,207.353 108.361,197.584 Q112.345,186.849 121.092,181.44 Q123.464,179.974 124.931,182.346 Q126.397,184.718 124.025,186.185 Z"/>
</svg>

