<svg xmlns="http://www.w3.org/2000/svg" width="384" height="384" viewBox="0 0 384 384">
  <defs/>
  <path fill="rgb(100%, 51.764706%, 0%)" d="M295.547,202.399 Q299.296,200.486 301.943,204.374 Q307.268,212.197 304.116,218.412 Q301.201,224.159 294.33,224.219 Q286.48,224.288 284.815,217.387 Q283.322,211.195 290.389,204.036 Q292.957,201.435 295.547,202.399 Z"/>
  <path fill="rgb(14.509804%, 0%, 64.313725%)" d="M432.434,18.123 Q403.572,28.617 352.517,32.118 Q322.857,34.153 264.318,34.297 Q219.092,34.409 204.064,35.756 Q192.39,36.802 186.895,38.825 Q181.9,40.665 182.187,43.117 Q182.387,44.82 180.684,45.019 Q180.408,45.051 180.136,44.995 Q111.37,30.703 52.843,12.003 Q33.733,5.897 28.541,5.516 Q27.6,5.446 26.669,5.501 Q21.373,7.811 16.019,10.364 Q14.839,10.926 13.984,9.937 Q12.863,8.64 14.16,7.519 Q19.749,2.689 25.84,2.123 Q79.348,-21.108 127.153,-19.889 Q142.234,-19.505 151.94,-16.899 Q153.454,-16.492 154.303,-16.147 Q154.829,-15.932 155.124,-15.715 Q155.75,-15.253 155.863,-14.526 Q156.101,-12.998 154.591,-12.57 Q153.543,-12.273 149.236,-13.583 Q148.484,-13.811 148.181,-14.28 Q139.57,-16.143 127.066,-16.462 Q82.634,-17.594 33.061,2.792 Q39.894,4.267 53.886,8.737 Q111.44,27.126 178.945,41.244 Q179.941,37.733 185.71,35.608 Q191.631,33.427 203.758,32.341 Q218.934,30.981 264.31,30.869 Q322.735,30.724 352.283,28.698 Q402.855,25.23 431.262,14.901 Q432.873,14.315 433.459,15.926 Q433.752,16.731 433.495,17.281 Q433.239,17.83 432.434,18.123 Z"/>
  <path fill="rgb(22.745098%, 0%, 60.784314%)" opacity="0.737" d="M93.72,53.404 Q82.198,52.334 80.178,48.616 Q78.479,45.489 82.661,40.536 Q84.463,38.402 84.549,37.862 Q84.989,35.122 87.728,35.561 Q89.098,35.781 89.673,36.575 Q90.248,37.37 90.029,38.74 Q89.698,40.803 86.901,44.116 Q85.63,45.621 85.296,46.216 Q86.638,47.173 94.233,47.878 Q95.614,48.006 96.241,48.761 Q96.868,49.516 96.739,50.897 Q96.483,53.66 93.72,53.404 Z M85.176,46.119 L85.054,45.966 Q85.096,46.043 85.176,46.119 Z"/>
  <path fill="rgb(25.882353%, 0%, 61.568627%)" d="M188.115,316.743 Q196.61,326.527 195.432,330.016 Q194.572,332.561 191.183,331.726 Q189.096,331.212 186.278,329.362 Q179.92,325.189 175.511,318.678 Q169.995,310.531 171.129,303.04 Q171.229,302.384 171.744,301.966 Q177.509,297.288 183.301,299.242 Q186.735,300.401 194.056,306.387 Q207.391,317.29 218.729,321.295 Q238.73,328.359 267.133,323.711 Q267.157,323.707 267.18,323.704 Q288.669,320.79 297.477,312.236 Q304.006,305.895 301.448,299.651 Q299.162,294.068 293.894,295.727 Q287.252,297.818 284.255,311.195 Q284.067,312.032 283.556,312.356 Q283.044,312.681 282.207,312.493 Q280.534,312.118 280.909,310.445 Q284.339,295.141 292.864,292.456 Q301.14,289.85 304.621,298.351 Q308.057,306.74 299.865,314.696 Q290.254,324.031 267.664,327.098 Q238.408,331.881 217.587,324.527 Q205.684,320.323 191.886,309.041 Q185.048,303.45 182.205,302.491 Q178.451,301.224 174.436,304.215 Q173.84,310.095 178.35,316.756 Q182.375,322.699 188.159,326.496 Q190.486,328.023 192.003,328.397 Q192.112,328.424 192.205,328.443 Q191.884,326.314 185.526,318.991 Q184.964,318.344 185.007,317.739 Q185.049,317.135 185.696,316.573 Q186.991,315.449 188.115,316.743 Z"/>
  <path fill="rgb(16.470588%, 0%, 63.529412%)" opacity="0.878" d="M29.235,97.772 Q41.617,115.952 39.763,125.38 Q38.899,129.775 35.193,131.396 Q31.978,132.803 27.781,131.582 Q21.924,129.877 18.559,125.506 Q17.559,126.383 16.476,126.597 Q14.647,126.958 13.165,125.506 Q3.022,115.574 12.228,10.167 Q12.381,8.415 14.134,8.568 Q15.01,8.645 15.409,9.121 Q15.809,9.597 15.733,10.473 Q6.672,114.224 15.626,122.992 Q15.785,123.147 15.795,123.145 Q16.075,123.09 16.59,122.507 Q16.624,122.468 16.657,122.428 Q16.012,121.114 15.524,119.631 Q11.923,108.679 22.201,97.194 Q23.374,95.883 24.685,97.056 Q25.181,97.5 25.259,98.161 Q26.339,107.328 22.814,117.799 Q21.865,120.619 20.793,122.554 Q23.563,126.69 28.764,128.204 Q31.736,129.069 33.783,128.173 Q35.802,127.29 36.311,124.701 Q37.881,116.716 26.327,99.752 Q25.832,99.025 25.948,98.414 Q26.064,97.803 26.791,97.308 Q28.245,96.318 29.235,97.772 Z M18.837,118.442 Q19.161,117.623 19.48,116.677 Q21.886,109.53 21.989,103.108 Q16.469,111.09 18.837,118.442 Z"/>
  <path fill="rgb(16.078431%, 1.176471%, 46.27451%)" opacity="0.92" d="M138.912,258.667 Q140.431,269.461 138.514,276.81 Q136.082,286.139 129.999,285.13 Q123.997,284.134 124.462,274.163 Q124.843,265.993 129.603,254.034 Q131.182,250.067 135.149,251.646 Q138.537,252.995 137.88,256.085 Q138.677,257.002 138.912,258.667 Z"/>
  <path fill="rgb(30.196078%, 6.27451%, 72.156863%)" opacity="0.769" d="M286.248,98.528 Q286.85,104.851 282.038,114.832 Q278.011,123.184 272.435,130.044 Q266.02,137.938 262.929,135.965 Q262.122,135.451 261.857,134.268 Q260.485,134.949 259.149,134.064 Q255.99,131.973 258.204,121.379 Q260.414,110.805 265.896,102.952 Q273.032,92.73 283.109,91.891 Q284.052,91.812 284.563,92.244 Q285.074,92.677 285.152,93.62 Q285.31,95.507 283.423,95.664 Q275.119,96.356 269.001,105.119 Q263.962,112.338 261.911,122.154 Q260.645,128.213 260.9,130.107 Q261.055,129.9 261.231,129.636 Q262.297,128.043 263.555,125.14 Q264.255,123.215 265.221,120.961 Q265.967,119.221 267.707,119.967 Q269.363,120.677 268.736,122.366 Q267.79,124.914 266.91,126.915 Q265.954,129.516 265.569,131.27 Q265.496,131.604 265.446,131.893 Q265.472,131.873 265.498,131.852 Q267.19,130.494 269.497,127.656 Q274.792,121.14 278.627,113.187 Q282.981,104.158 282.479,98.887 Q282.299,97.002 284.184,96.822 Q285.126,96.732 285.642,97.159 Q286.158,97.585 286.248,98.528 Z"/>
  <path fill="rgb(18.823529%, 5.882353%, 62.745098%)" opacity="0.441" d="M72.015,341.564 Q79.157,347.282 82.089,351.043 Q83.876,353.335 84.374,355.306 Q85.395,359.345 82.242,361.699 Q77.323,365.37 63.751,358.37 Q51.345,351.972 43.421,343.2 Q32.493,331.103 36.148,319.921 Q37.637,315.366 42.192,316.855 Q44.47,317.6 45.236,319.111 Q46.003,320.622 45.258,322.899 Q43.329,328.801 50.533,336.775 Q56.325,343.187 65.132,348.218 Q62.691,345.542 65.279,342.31 Q66.776,340.439 68.46,340.253 Q70.144,340.066 72.015,341.564 Z"/>
  <path fill="rgb(19.215686%, 0%, 42.352941%)" d="M39.226,324.001 Q39.262,342.86 51.106,353.026 Q61,361.518 71.218,359.568 Q75.292,358.79 76.896,356.241 Q78.608,353.523 76.98,349.281 Q72.408,337.362 46.654,321.932 Q45.919,321.491 45.771,320.903 Q45.624,320.315 46.065,319.58 Q46.946,318.109 48.416,318.99 Q75.186,335.029 80.181,348.053 Q82.423,353.897 79.798,358.068 Q77.399,361.878 71.86,362.935 Q60.02,365.195 48.873,355.628 Q35.836,344.438 35.797,324.007 Q35.796,323.15 36.224,322.721 Q36.651,322.291 37.508,322.29 Q39.223,322.286 39.226,324.001 Z"/>
  <path fill="rgb(11.372549%, 0%, 58.431373%)" d="M142.127,157.578 Q148.857,170.969 165.029,175.835 Q180.337,180.44 194.704,175.189 Q209.565,169.758 213.475,156.752 Q218.085,141.419 205.207,120.269 Q205.078,120.057 204.996,119.823 Q201.484,109.763 193.154,104.161 Q185.016,98.687 174.313,98.764 Q149.534,98.94 130.198,124.601 Q129.494,125.536 128.674,125.651 Q127.854,125.766 126.919,125.061 Q125.049,123.652 126.458,121.782 Q147.187,94.274 174.28,94.081 Q186.429,93.994 195.768,100.275 Q205.292,106.681 209.335,118.043 Q223.147,140.846 217.96,158.1 Q213.374,173.351 196.311,179.588 Q180.48,185.374 163.68,180.319 Q145.577,174.873 137.943,159.68 Q136.892,157.588 138.984,156.537 Q141.076,155.485 142.127,157.578 Z"/>
  <path fill="rgb(14.901961%, 0.784314%, 45.098039%)" opacity="0.738" d="M39.189,208.82 Q39.807,211.058 40.316,211.495 Q40.674,211.387 41.232,210.991 Q45.348,208.069 49.386,198.836 Q53.625,189.144 53.544,181.641 Q53.473,175.103 49.62,174.428 Q47.777,174.105 47.017,173.022 Q46.257,171.939 46.58,170.096 Q47.226,166.41 50.912,167.056 Q60.889,168.805 61.027,181.56 Q61.126,190.67 56.243,201.835 Q51.373,212.97 45.564,217.093 Q41.238,220.165 37.328,218.382 Q33.597,216.681 31.975,210.813 Q31.477,209.01 32.129,207.859 Q32.782,206.708 34.585,206.21 Q38.192,205.213 39.189,208.82 Z"/>
  <path fill="rgb(15.686275%, 0%, 25.098039%)" opacity="0.601" d="M177.139,92.755 Q182.569,93.541 188.128,96.2 Q199.907,101.833 208.543,112.744 Q215.408,121.417 215.554,130.23 Q215.692,138.567 210.52,145.002 Q205.828,150.839 198.827,152.707 Q198.168,156.923 196.774,160.947 Q191.913,174.979 179.503,182.798 Q168.618,189.656 155.47,189.487 Q142.222,189.316 131.706,182.101 Q119.328,173.607 115.82,159.031 Q109.273,131.832 138.046,100.61 Q142.735,95.522 149.1,94.055 Q150.265,93.036 151.611,92.138 Q164.98,83.218 177.139,92.755 Z"/>
</svg>

