<svg xmlns="http://www.w3.org/2000/svg" width="384" height="384" viewBox="0 0 384 384">
  <defs/>
  <path fill="rgb(100%, 100%, 96.078431%)" opacity="0.048" d="M326.914,77.568 Q295.539,84.844 294.515,91.478 Q293.957,95.086 308.355,105.221 Q319.048,112.746 324.299,118.385 Q326.129,109.219 328.149,107.259 Q331.281,104.219 338.096,109.682 Q346.516,116.432 354.081,118.675 Q367.778,122.737 386.531,117.375 Q388.992,116.671 389.696,119.132 Q390.399,121.593 387.938,122.297 Q367.752,128.069 352.626,123.584 Q344.097,121.055 334.893,113.677 Q332.31,111.606 331.5,111.205 Q330.193,113.236 328.337,124.936 Q328.144,126.155 327.07,126.763 Q324.843,128.024 323.581,125.797 Q320.193,119.813 305.409,109.407 Q297.18,103.615 294.251,100.8 Q288.716,95.479 289.455,90.696 Q291.008,80.639 325.758,72.581 Q327.004,72.291 327.772,72.77 Q328.54,73.249 328.83,74.496 Q329.408,76.99 326.914,77.568 Z M331.581,111.087 L331.714,110.933 Q331.648,110.997 331.581,111.087 Z"/>
  <path fill="rgb(94.509804%, 12.54902%, 51.764706%)" opacity="0.729" d="M129.664,167.264 Q88.563,153.695 32.427,131.575 Q-14.801,112.966 -30.433,110.462 Q-51.8,107.04 -69.244,119.263 Q-71.428,120.793 -73.285,120.466 Q-75.143,120.14 -76.673,117.955 Q-79.734,113.587 -75.366,110.526 Q-54.382,95.823 -28.746,99.928 Q-11.969,102.615 36.337,121.65 Q92.193,143.66 133.008,157.134 Q138.073,158.806 136.401,163.871 Q134.729,168.936 129.664,167.264 Z"/>
  <path fill="rgb(100%, 33.333333%, 0%)" opacity="0.982" d="M137.527,408.582 Q136.09,410.417 134.174,412.982 Q128.501,420.576 120.623,422.17 Q115.412,423.224 108.082,425.668 Q101.19,429.932 96.594,432.272 Q82.18,439.609 68.116,441.462 Q59.851,442.551 56.43,434.949 Q54.524,430.714 56.171,426.373 Q57.817,422.031 62.051,420.125 Q83.368,410.531 98.333,405.328 Q102.803,402.511 108.344,398.824 Q124.973,387.758 134.91,382.423 Q152.011,373.241 169.849,368.304 Q215.121,355.774 278.572,367.194 Q283.142,368.016 285.792,371.829 Q288.441,375.642 287.619,380.212 Q286.796,384.782 282.983,387.432 Q279.17,390.082 274.6,389.259 Q216.177,378.744 175.83,389.912 Q159.482,394.436 138.997,406.167 Q138.434,407.422 137.527,408.582 Z"/>
  <path fill="rgb(30.588235%, 40%, 87.058824%)" opacity="0.554" d="M385.913,251.617 Q361.12,246.819 350.799,241.671 Q342.525,237.545 340.677,231.175 Q338.734,224.478 343.368,219.181 Q345.773,216.431 349.684,214.939 Q357.696,211.881 374.432,213.261 Q391.416,214.662 410.137,219.987 Q414.637,221.267 416.914,225.355 Q419.191,229.442 417.911,233.942 Q416.631,238.442 412.544,240.719 Q408.457,242.996 403.957,241.716 Q401.647,241.059 399.373,240.47 Q399.365,241.55 399.148,242.674 Q398.259,247.267 394.382,249.886 Q390.506,252.506 385.913,251.617 Z"/>
  <path fill="rgb(42.352941%, 19.607843%, 0%)" d="M388.279,269.473 Q338.903,268.167 313.852,271.474 Q307.165,272.356 302.815,273.491 Q302.11,275.915 299.976,277.756 Q295.969,281.212 291.18,279.485 Q291.541,309.659 291.057,379.119 Q290.726,426.599 290.616,453.68 Q290.602,457.048 288.911,458.726 Q287.22,460.403 283.851,460.389 Q277.115,460.362 277.142,453.625 Q277.253,426.523 277.584,379.025 Q278.226,286.854 277.383,264.307 Q277.233,260.281 277.054,257.112 Q274.964,256.991 272.748,255.064 Q269.516,252.255 270.689,248.136 Q272.531,241.666 274.323,239.058 Q276.707,235.588 280.233,235.349 Q285.951,227.496 290.216,219.373 Q291.639,216.663 292.662,214.528 Q293.845,210.225 294.84,207.601 Q295.525,205.794 296.172,204.823 Q296.865,203.783 297.829,203.062 Q299.492,201.819 301.557,201.715 Q305.036,201.541 307.198,204.274 Q309.023,206.579 308.592,209.665 Q308.123,213.025 305.402,219.027 Q305.278,219.489 305.15,219.977 Q301.239,234.922 297.678,258.678 Q298.509,259.716 299.212,260.711 Q322.873,254.264 388.635,256.004 Q395.37,256.182 395.192,262.916 Q395.013,269.651 388.279,269.473 Z"/>
  <path fill="rgb(100%, 18.039216%, 57.647059%)" opacity="0.785" d="M303.462,164.675 Q313.525,127.304 313.483,95.229 Q313.475,88.986 312.99,82.351 Q309.003,100.182 302.383,126.616 Q301.243,131.167 296.692,130.027 Q294.417,129.457 293.564,128.035 Q292.712,126.612 293.282,124.337 Q305.436,75.805 309.025,53.259 Q307.923,46.118 308.658,43.734 Q309.256,41.794 310.489,40.636 Q310.62,37.604 310.315,35.897 Q310.211,35.672 310.111,35.46 Q309.203,35.921 308.049,36.773 Q307.782,37.192 307.491,37.652 Q292.039,62.116 270.172,80.588 Q266.588,83.615 263.561,80.031 Q261.128,77.151 263.417,74.155 Q285.666,45.045 296.36,34.572 Q298.832,32.151 300.998,30.4 Q303.105,27.177 304.137,26.02 Q308.258,21.399 312.836,23.877 Q314.027,24.522 315.682,26.966 Q317.092,28.07 318.143,30.038 Q318.814,31.293 319.208,33.161 Q320.994,36.696 323.119,41.543 Q323.429,42.25 323.617,42.679 Q324.369,44.394 323.732,46.156 Q322.936,48.362 321.434,49.067 Q320.441,49.533 319.139,49.342 Q318.906,51.386 318.587,53.62 Q318.707,54.287 318.841,55.016 Q322.841,76.686 322.865,95.217 Q322.909,128.539 312.522,167.114 Q311.912,169.379 310.475,170.207 Q309.037,171.034 306.773,170.424 Q302.243,169.205 303.462,164.675 Z"/>
  <path fill="rgb(46.27451%, 24.313725%, 0%)" d="M318.164,17.991 Q316.231,50.776 318.747,90.976 Q320.317,116.07 326.057,172.544 Q331.404,225.156 333.994,256.294 Q334.305,260.041 330.558,260.353 Q326.81,260.665 326.499,256.917 Q323.915,225.849 318.575,173.305 Q312.82,116.686 311.241,91.446 Q308.696,50.79 310.656,17.548 Q310.767,15.671 311.761,14.788 Q312.755,13.905 314.632,14.016 Q318.385,14.237 318.164,17.991 Z"/>
  <path fill="rgb(46.27451%, 16.078431%, 4.313725%)" opacity="0.962" d="M283.164,215.927 L283.308,215.756 Q305.015,189.838 314.114,185.345 Q321.263,181.816 328.483,182.822 Q336.986,184.007 342.844,190.8 Q343.181,191.19 343.507,191.604 Q350.261,192.471 357.265,195.975 Q376.68,205.688 392.441,236.46 Q395.854,243.123 393.555,250.248 Q391.257,257.372 384.594,260.785 Q377.931,264.197 370.807,261.899 Q363.683,259.601 360.27,252.938 Q351.775,236.352 344.317,230.401 Q338.302,235.912 333.243,238.247 Q326.908,241.171 320.666,240.159 Q315.917,239.39 312.537,237.154 Q311.79,238.042 311.018,238.964 L310.875,239.135 Q306.068,244.874 298.611,245.534 Q291.154,246.193 285.415,241.386 Q279.676,236.58 279.017,229.123 Q278.358,221.666 283.164,215.927 Z"/>
  <path fill="rgb(71.372549%, 0%, 40.392157%)" d="M170.889,31.972 Q183.74,60.958 202.556,105.004 Q210.195,122.886 213.852,131.2 Q219.545,127.417 223.759,129.356 Q228.481,131.529 227.6,136.696 Q227.289,138.519 226.01,140.246 Q224.715,141.996 221.851,144.357 Q221.09,144.984 220.215,145.662 Q220.005,146.004 219.76,146.345 Q219.312,148.087 217.97,149.395 Q216.345,150.978 214.482,151.275 Q214.103,151.541 213.705,151.807 Q213.097,153.093 212.476,154.693 Q208.558,164.793 208.36,180.577 Q208.28,187.035 201.822,186.954 Q195.364,186.874 195.444,180.415 Q195.598,168.124 197.839,158.52 Q195.386,158.109 193.695,155.361 Q190.31,149.861 195.811,146.476 Q200.486,143.599 204.161,141.181 Q201.005,134.254 190.677,110.079 Q171.896,66.114 159.08,37.208 Q156.462,31.303 162.367,28.686 Q165.319,27.377 167.449,28.198 Q169.58,29.02 170.889,31.972 Z"/>
  <path fill="rgb(54.117647%, 7.45098%, 9.411765%)" opacity="0.629" d="M300.406,238.597 Q300.718,224.96 301.024,208.113 Q301.042,207.161 301.578,206.748 Q302.544,181.969 303.951,149.169 Q303.988,148.312 304.435,147.903 Q304.881,147.493 305.738,147.53 Q307.45,147.603 307.377,149.316 Q304.945,205.987 303.833,238.706 Q303.604,248.752 303.371,257.065 Q303.181,263.852 303.078,266.307 Q303.056,266.829 303.042,267.029 Q302.983,267.855 302.404,268.326 Q301.472,269.085 300.441,268.468 Q299.991,268.198 299.769,267.723 Q299.672,267.517 299.632,267.292 Q299.615,267.195 299.608,267.091 Q299.604,267.03 299.603,266.948 Q299.597,266.574 299.634,264.905 Q299.862,254.618 300.406,238.597 Z"/>
  <path fill="rgb(100%, 85.098039%, 0%)" d="M15.017,397.639 Q30.794,394.902 53.31,391.626 Q112.714,382.984 227.036,355.875 Q229.274,355.344 229.805,357.582 Q230.336,359.821 228.097,360.352 Q113.578,387.508 53.973,396.18 Q31.519,399.447 15.803,402.173 Q13.536,402.567 13.143,400.3 Q12.946,399.166 13.415,398.501 Q13.883,397.836 15.017,397.639 Z"/>
  <path fill="rgb(92.54902%, 96.470588%, 100%)" opacity="0.291" d="M82.872,216.268 Q71.308,239.273 50.909,233.515 Q37.352,229.689 29.132,215.874 Q26.496,211.444 27.393,207.911 Q28.29,204.377 32.72,201.741 Q34.115,200.911 35.697,200.55 Q40.999,199.339 49.586,199.791 Q61.047,200.393 70.855,195.802 Q90.162,186.764 122.794,156.219 Q130.321,149.173 137.367,156.7 Q144.413,164.227 136.886,171.273 Q105.457,200.692 84.298,212.105 Q83.985,214.054 82.872,216.268 Z"/>
  <path fill="rgb(100%, 100%, 0%)" opacity="0.344" d="M3.371,158.577 Q5.638,154.232 10.252,144.363 Q28.527,105.272 48.161,84.284 Q80.861,49.328 139.399,28.387 Q152.691,23.632 165.453,29.668 Q178.214,35.705 182.969,48.997 Q187.724,62.289 181.687,75.05 Q175.651,87.812 162.359,92.567 Q119.362,107.948 97.94,130.849 Q85.695,143.939 72,173.231 Q66.756,184.447 63.801,190.111 Q57.27,202.626 43.802,206.858 Q30.334,211.09 17.819,204.559 Q5.303,198.028 1.072,184.56 Q-3.16,171.092 3.371,158.577 Z"/>
  <path fill="rgb(100%, 21.960784%, 7.058824%)" opacity="0.524" d="M109.244,191.208 Q29.958,192.037 -9.434,193.978 Q-6.964,200.034 -4.458,206.81 Q-4.23,207.426 -4.346,208.074 Q-4.771,210.455 -7.152,210.029 Q-33.423,205.336 -41.782,203.143 Q-48.509,201.377 -50.512,199.75 Q-53.114,197.635 -51.404,195.163 Q-50.479,193.825 -47.821,192.987 Q-41.504,190.995 -16.533,189.553 Q-25.622,168.525 -34.083,157.876 Q-35.002,156.923 -35.558,156.227 Q-35.832,155.885 -35.971,155.632 Q-36.135,155.333 -36.213,155.011 Q-36.368,154.374 -36.182,153.748 Q-35.736,152.245 -34.182,152.036 Q-33.11,151.892 -32.255,152.613 Q-31.909,152.906 -31.263,153.679 Q-30.853,154.17 -30.442,154.684 Q-29.986,155.151 -29.421,155.701 Q-29.474,154.99 -28.97,154.135 Q-28.356,153.093 -27.528,152.88 Q-26.7,152.666 -25.659,153.28 Q-21.853,155.523 -16.239,158.632 Q-8,163.194 -6.81,165.394 Q-5.298,168.186 -8.666,174.402 Q-8.717,174.496 -8.776,174.584 Q-9.443,175.593 -10.281,175.764 Q-11.119,175.934 -12.127,175.267 Q-16.997,172.046 -21.144,168.955 Q-16.34,177.653 -11.394,189.273 Q28.385,187.216 109.193,186.371 Q111.612,186.345 111.637,188.764 Q111.663,191.182 109.244,191.208 Z M-14.551,194.244 Q-37.496,195.503 -44.854,197.197 Q-43.183,197.774 -40.554,198.464 Q-33.056,200.431 -10.484,204.516 Q-12.533,199.128 -14.551,194.244 Z M-26.562,158.355 Q-20.453,163.786 -11.704,169.728 Q-10.894,168.009 -11.064,167.696 Q-11.581,166.741 -18.582,162.863 Q-23.162,160.327 -26.562,158.355 Z"/>
</svg>

