<svg xmlns="http://www.w3.org/2000/svg" width="384" height="384" viewBox="0 0 384 384">
  <defs/>
  <path fill="rgb(44.705882%, 16.470588%, 100%)" opacity="0.498" d="M304.761,-10.263 Q304.105,-9.867 303.513,-9.82 Q302.128,-9.708 301.56,-10.951 Q301.136,-11.878 301.689,-13.455 Q302.399,-15.483 304.8,-19.569 Q310.128,-28.634 319.585,-41.269 Q320.522,-42.522 321.855,-41.702 Q326.341,-38.944 334.094,-33.178 Q348.657,-22.347 358.042,-20.026 Q373.413,-16.224 397.156,-23.973 Q397.97,-24.239 398.511,-23.965 Q399.051,-23.691 399.317,-22.876 Q399.468,-22.414 399.354,-21.941 Q395.335,-5.317 385.9,7.639 Q377.762,18.813 369.077,23.112 Q364.927,25.165 361.832,24.818 Q358.097,24.398 356.883,20.9 Q354.628,14.401 362.996,-0.092 Q363.853,-1.576 365.338,-0.719 Q366.08,-0.29 366.237,0.295 Q366.394,0.881 365.965,1.623 Q358.381,14.758 360.122,19.776 Q360.627,21.232 362.215,21.41 Q364.309,21.646 367.556,20.039 Q375.487,16.114 383.128,5.621 Q391.314,-5.62 395.251,-19.78 Q372.551,-12.905 357.219,-16.697 Q347.164,-19.184 332.048,-30.427 Q325.517,-35.284 321.384,-37.947 Q312.719,-26.277 307.756,-17.832 Q305.869,-14.621 305.149,-12.901 Q305.249,-12.772 305.343,-12.616 Q305.786,-11.882 305.64,-11.294 Q305.495,-10.705 304.761,-10.263 Z"/>
  <path fill="rgb(100%, 13.333333%, 0%)" d="M318.692,35.12 Q306.497,37.715 288.219,41.003 Q263.028,45.534 260.226,48.715 Q257.185,52.167 255.321,79.129 Q255.01,83.62 251.614,86.577 Q248.219,89.533 243.727,89.223 Q241.19,89.048 238.995,87.765 Q211.8,71.883 219.744,24.236 Q225.659,-11.245 248.138,-53.735 Q250.243,-57.715 254.546,-59.041 Q258.849,-60.366 262.829,-58.261 Q266.809,-56.155 268.134,-51.852 Q269.46,-47.549 267.354,-43.569 Q246.524,-4.194 241.188,27.811 Q240.015,34.846 239.746,40.756 Q241.511,37.071 243.913,34.345 Q249.63,27.854 260.904,24.526 Q266.969,22.736 284.371,19.606 Q302.31,16.379 314.168,13.856 Q318.572,12.919 322.348,15.371 Q326.125,17.822 327.062,22.226 Q327.999,26.63 325.547,30.407 Q323.096,34.183 318.692,35.12 Z"/>
  <path fill="rgb(25.098039%, 34.117647%, 73.72549%)" opacity="0.06" d="M238.451,262.622 Q242.12,266.888 248.536,273.733 Q257.864,283.686 260.468,288.257 Q264.563,295.445 263.091,303.7 Q265.068,313.11 265.304,318.79 Q266.03,319.598 265.536,320.984 Q265.386,321.405 265.297,321.693 Q265.264,322.21 265.203,322.574 Q265.111,323.116 264.891,323.502 Q264.409,324.346 263.474,324.585 Q261.667,325.047 260.859,323.363 Q260.645,322.917 260.63,322.398 Q260.613,321.839 260.785,321.067 Q260.786,321.038 260.787,321 Q260.961,315.506 258.558,304.198 Q258.462,303.744 258.551,303.289 Q259.9,296.427 256.525,290.503 Q254.186,286.397 245.225,276.836 Q238.743,269.921 235.01,265.581 Q233.531,263.861 235.251,262.381 Q236.971,260.902 238.451,262.622 Z"/>
  <path fill="rgb(55.294118%, 0%, 0%)" d="M175.726,100.064 Q214.762,109.414 260.16,125.93 Q261.806,121.236 264.548,115.611 Q264.637,115.428 264.748,115.256 Q266.61,112.367 269.498,114.228 Q275.028,117.792 281.828,122.154 Q281.925,121.812 282.018,121.466 Q285.764,107.518 279.582,92.799 Q275.027,90.318 272.435,87.751 Q271.389,87.942 270.062,87.262 Q268.533,86.478 268.16,85.322 Q267.787,84.166 268.57,82.636 Q268.866,82.059 269.053,81.594 Q268.863,79.799 269.75,78.549 Q270.445,77.57 271.576,77.214 Q273.34,76.659 274.793,77.809 Q275.933,78.711 276.144,80.236 Q276.232,80.875 276.135,81.632 Q277.307,83.905 283.834,87.275 Q284.909,87.829 285.399,88.934 Q293.169,106.443 288.656,123.249 Q288.276,124.661 287.837,126.007 Q293.313,129.515 299.494,133.467 Q325.642,150.184 327.523,152.081 Q329.058,153.629 328.753,155.488 Q328.201,158.857 324.601,158.431 Q323.557,158.308 321.261,157.457 Q318.703,156.51 309.215,152.541 Q294.105,146.222 279.613,140.593 Q277.628,142.764 275.298,144.55 Q270.784,148.012 266.661,148.249 Q261.194,148.563 258.855,143.738 Q256.853,139.608 258.284,132.561 Q212.988,116.057 174.125,106.748 Q170.783,105.948 171.584,102.606 Q171.984,100.935 173.02,100.299 Q174.055,99.664 175.726,100.064 Z M277.323,132.343 Q278.429,130.649 279.355,128.734 Q273.8,125.171 269.075,122.131 Q267.565,125.47 266.547,128.277 Q271.892,130.262 277.323,132.343 Z M264.69,134.919 Q264.054,138.706 265.04,140.739 Q265.378,141.438 266.266,141.387 Q268.279,141.271 271.116,139.096 Q271.869,138.519 272.578,137.888 Q268.61,136.377 264.69,134.919 Z M283.856,134.87 Q290.488,137.458 297.248,140.189 Q296.522,139.724 295.792,139.258 Q290.203,135.685 285.181,132.468 Q284.552,133.706 283.856,134.87 Z"/>
  <path fill="rgb(100%, 100%, 100%)" opacity="0.053" d="M110.477,399.303 L110.272,399.058 Q111.042,398.524 112.196,396.929 Q114.462,393.796 117.763,387.073 Q121.171,380.132 127.077,366.047 Q125.791,359.416 125.749,357.954 Q125.694,356.074 127.206,355.766 Q128.512,355.499 129.315,356.905 Q129.58,357.37 130.236,358.901 Q130.885,358.31 131.965,358.756 Q132.967,359.17 133.024,360.254 Q133.155,362.736 132.881,363.749 Q132.531,365.044 131.418,365.343 Q131.24,365.39 131.069,365.407 Q130.857,365.915 130.648,366.415 Q131.076,368.584 131.628,371.284 Q131.973,372.967 130.29,373.312 Q128.639,373.65 128.276,372.037 Q123.706,382.766 120.847,388.588 Q117.417,395.573 114.98,398.943 Q113.483,401.012 112.231,401.881 Q110.135,403.336 108.421,402.056 Q107.045,401.028 108.073,399.652 Q109.101,398.275 110.477,399.303 Z"/>
  <path fill="rgb(24.705882%, 16.862745%, 100%)" opacity="0.643" d="M143.381,58.161 Q162.077,73.825 161.205,80.704 Q160.666,84.956 155.16,85.161 Q151.373,85.302 145.727,83.346 Q133.287,79.033 123.983,70.2 Q112.421,59.224 114.942,48.307 Q115.2,47.188 115.889,46.758 Q116.578,46.328 117.697,46.586 Q119.935,47.103 119.418,49.341 Q117.487,57.7 127.146,66.869 Q135.729,75.018 147.232,79.005 Q152.063,80.68 154.989,80.571 Q156.599,80.511 156.648,80.126 Q157.204,75.736 140.431,61.682 Q138.671,60.207 140.146,58.447 Q140.883,57.566 141.692,57.495 Q142.501,57.424 143.381,58.161 Z"/>
  <path fill="rgb(97.647059%, 36.862745%, 100%)" opacity="0.304" d="M132.505,215.081 Q150.12,206.665 172.203,195.202 Q181.293,190.484 184.055,189.188 Q190.171,186.317 192.698,188.013 Q196.036,190.253 193.937,194.328 Q193.345,195.477 191.91,197.322 Q190.278,199.422 184.332,206.291 Q167.736,225.467 155.373,241.353 Q152.876,244.562 149.667,242.064 Q148.062,240.816 147.884,239.389 Q147.706,237.963 148.955,236.358 Q161.276,220.527 177.723,201.501 Q176.867,201.944 175.95,202.42 Q153.746,213.945 136.011,222.419 Q134.176,223.296 132.821,222.817 Q131.465,222.338 130.589,220.503 Q128.836,216.834 132.505,215.081 Z"/>
  <path fill="rgb(49.019608%, 21.568627%, 23.137255%)" opacity="0.308" d="M65.046,124.139 Q65.019,132.092 63.485,150.082 Q61.666,171.408 62.393,177.698 Q62.586,179.366 62.889,180.495 Q65.923,180.391 69.38,180.29 Q70.195,180.267 70.728,180.884 Q71.288,181.533 71.243,182.137 Q71.199,182.742 70.55,183.302 Q65.595,187.578 62.363,185.662 Q61.415,185.1 60.716,183.99 Q39.303,184.709 39.22,185.327 Q39.165,185.739 64.078,193.767 Q67.813,194.971 70,195.678 Q91.742,189.827 104.737,177.367 Q116.194,166.382 117.046,154.572 Q117.85,143.435 108.739,138.208 Q98.36,132.254 80.03,137.313 Q78.378,137.769 77.922,136.116 Q77.694,135.29 77.993,134.763 Q78.292,134.236 79.118,134.008 Q98.826,128.569 110.445,135.234 Q121.425,141.533 120.466,154.819 Q119.518,167.944 107.11,179.841 Q93.331,193.054 70.392,199.122 Q69.904,199.251 69.425,199.096 Q67.186,198.371 63.027,197.031 Q47.985,192.183 43.516,190.502 Q35.472,187.476 35.822,184.871 Q36.18,182.203 45.255,181.394 Q49.836,180.986 59.413,180.62 Q59.147,179.473 58.987,178.092 Q58.22,171.46 60.069,149.79 Q61.591,131.94 61.618,124.127 Q61.624,122.413 63.338,122.419 Q65.052,122.424 65.046,124.139 Z"/>
  <path fill="rgb(0%, 3.529412%, 65.098039%)" opacity="0.989" d="M140.306,316.784 Q144.563,318.281 147.875,320.59 Q147.271,314.021 146.331,303.063 Q145.441,292.698 144.919,286.75 Q144.471,281.63 149.59,281.181 Q151.248,281.036 152.416,281.474 Q152.564,280.288 152.72,279.089 Q153.05,276.541 154.49,275.432 Q155.929,274.323 158.477,274.653 Q163.116,275.255 162.953,279.929 Q161.137,331.988 160.119,335.461 Q159.904,336.195 159.561,336.809 Q159.911,346.299 161.073,354.383 Q162.983,367.668 166.841,376.121 Q172.583,381.799 184.726,383.675 Q185.868,383.851 186.824,384.499 Q192.339,388.236 189.905,393.801 Q188.158,397.795 183.05,398.928 Q173.268,401.096 164.505,391.373 Q160.895,387.368 158.127,381.859 Q156.378,379.828 155.051,377.48 Q150.741,369.852 149.91,352.739 Q149.327,340.741 147.504,336.096 Q144.823,329.267 136.897,326.481 Q134.473,325.629 133.687,323.991 Q132.901,322.353 133.753,319.929 Q135.457,315.08 140.306,316.784 Z"/>
  <path fill="rgb(100%, 0%, 73.72549%)" opacity="0.102" d="M376.563,43.149 Q356.627,18.399 343.655,17.906 Q335.914,17.612 322.527,29.872 Q310.633,40.765 302.689,44.277 Q301.689,44.72 300.968,44.441 Q300.247,44.162 299.805,43.162 Q298.92,41.162 300.92,40.277 Q308.208,37.055 319.573,26.647 Q326.92,19.918 330.751,17.485 Q337.356,13.289 343.821,13.535 Q358.783,14.104 379.969,40.406 Q380.655,41.257 380.572,42.026 Q380.489,42.795 379.638,43.48 Q377.934,44.852 376.563,43.149 Z"/>
  <path fill="rgb(44.313725%, 30.588235%, 0%)" d="M70.49,148.17 Q51.308,164.163 39.894,184.654 Q29.52,203.281 27.513,221.8 Q25.608,239.377 31.71,251.456 Q37.82,263.549 50.24,266.18 Q52.612,266.682 52.109,269.053 Q51.858,270.239 51.14,270.706 Q50.422,271.173 49.236,270.922 Q34.542,267.81 27.383,253.642 Q20.634,240.282 22.693,221.278 Q24.807,201.781 35.659,182.296 Q47.511,161.017 67.385,144.447 Q69.247,142.895 70.799,144.757 Q72.351,146.618 70.49,148.17 Z"/>
  <path fill="rgb(72.156863%, 13.333333%, 69.411765%)" opacity="0.149" d="M204.698,29.439 Q217.62,10.8 232.543,8.725 Q246.533,6.78 255.727,18.097 Q265.31,29.894 259.38,40.264 Q255.007,47.911 245.592,47.182 Q239.709,46.726 232.531,42.186 Q227.16,38.788 227.208,34.171 Q224.531,36.926 221.598,41.155 Q218.669,45.38 215.092,46.028 Q211.515,46.676 207.29,43.747 Q203.065,40.818 202.417,37.241 Q201.769,33.664 204.698,29.439 Z"/>
  <path fill="rgb(17.254902%, 3.529412%, 0%)" d="M331.848,88.957 Q346.58,114.108 338.293,138.47 Q334.234,150.404 320.319,168.792 Q324.401,176.976 330.909,185.842 Q334.499,190.734 335.269,192.743 Q336.776,196.673 334.06,199.867 Q331.163,203.274 309.561,213.579 Q306.827,214.883 305.322,215.603 Q303.063,216.683 301.983,214.424 Q301.443,213.294 301.738,212.46 Q302.033,211.625 303.162,211.085 Q304.653,210.372 307.405,209.059 Q328.041,199.214 330.245,196.622 Q331.514,195.131 326.871,188.805 Q321.561,181.57 317.784,174.731 Q313.671,192.328 307.729,200.011 Q301.65,207.871 294.448,205.4 Q288.802,203.463 287.716,198.999 Q287.097,196.453 289.333,195.547 Q290.752,194.971 292.411,195.979 Q293.226,196.475 294.282,197.458 Q298.429,188.249 311.036,172.547 Q312.535,170.68 313.939,168.878 Q314.149,167.851 314.354,166.79 Q314.81,164.438 317.08,164.772 Q329.852,147.736 333.552,136.857 Q341.102,114.663 327.527,91.488 Q326.894,90.408 327.118,89.551 Q327.342,88.695 328.422,88.062 Q330.583,86.797 331.848,88.957 Z M311.094,180.577 Q301.067,193.638 298.259,200.893 Q300.994,200.533 303.767,196.947 Q307.866,191.647 311.094,180.577 Z"/>
  <path fill="rgb(43.921569%, 0%, 100%)" opacity="0.77" d="M216.731,61.846 Q227.882,88.214 223.522,103.805 Q219.807,117.09 207.449,118.729 Q195.952,120.254 190.177,111.743 Q183.775,102.31 194.235,91.063 Q194.912,90.335 195.615,90.309 Q196.318,90.284 197.046,90.961 Q198.503,92.316 197.148,93.773 Q188.847,102.698 193.469,109.509 Q197.865,115.987 206.926,114.785 Q216.682,113.491 219.69,102.733 Q223.676,88.483 213.066,63.396 Q212.291,61.564 214.124,60.789 Q215.04,60.401 215.692,60.666 Q216.343,60.93 216.731,61.846 Z"/>
  <path fill="rgb(81.960784%, 0%, 10.196078%)" d="M351.022,96.985 Q348.852,97.604 346.62,98.186 Q323.087,104.316 300.199,103.719 Q300.404,105.488 300.66,106.817 Q300.694,106.905 300.728,106.994 Q301.006,107.728 301.143,108.302 Q301.219,108.621 301.243,108.87 Q301.452,111.023 299.381,111.275 Q297.344,111.523 296.592,108.042 Q296.038,106.731 295.123,105.318 Q286.431,91.902 262.608,90.957 Q260.494,90.874 260.578,88.76 Q260.662,86.646 262.775,86.73 Q285.965,87.65 296.337,99.872 Q296.887,99.366 297.944,99.41 Q321.381,100.389 345.554,94.092 Q355.386,91.53 363.967,88.218 Q376.261,80.743 381.93,78.51 Q383.919,77.726 384.921,78.043 Q386.359,78.497 386.465,79.986 Q386.52,80.765 386.058,81.455 Q385.764,81.894 385.161,82.385 Q383.245,83.948 378.311,86.465 Q372.426,89.468 365.833,92.031 Q360.695,95.165 354.358,99.237 Q353.469,99.808 352.738,99.649 Q352.007,99.49 351.435,98.601 Q350.865,97.714 351.022,96.985 Z"/>
  <path fill="rgb(100%, 100%, 94.117647%)" opacity="0.24" d="M189.066,95.54 Q185.369,115.338 179.219,125.499 Q176.077,130.691 172.732,132.144 Q168.331,134.055 165.02,130.021 Q153.313,115.759 164.275,37.62 Q141.385,40.074 123.213,54.823 Q111.865,64.033 96.007,85.33 Q81.69,104.555 74.032,107.784 Q71.752,108.746 70.79,106.466 Q70.309,105.325 70.639,104.515 Q70.969,103.704 72.109,103.224 Q78.525,100.518 92.037,82.373 Q108.265,60.58 120.094,50.98 Q140.686,34.266 166.99,32.41 Q167.254,32.392 167.516,32.429 Q168.741,32.605 169.265,33.306 Q169.79,34.006 169.614,35.231 Q163.772,75.891 164.222,100.906 Q164.596,121.703 168.846,126.881 Q169.787,128.027 170.76,127.604 Q172.658,126.779 174.985,122.936 Q180.668,113.545 184.2,94.632 Q184.654,92.199 187.087,92.653 Q188.304,92.88 188.798,93.602 Q189.293,94.324 189.066,95.54 Z"/>
  <path fill="rgb(100%, 0.784314%, 5.490196%)" d="M275.934,233.516 Q257.925,233.035 255.05,231.283 Q252.66,229.826 252.243,227.152 Q251.786,224.215 253.953,222.081 Q255.032,221.018 256.931,220.289 Q257.231,220.174 257.657,220.032 Q255.651,219.681 253.337,219.324 Q247.849,218.478 248.695,212.99 Q249.118,210.245 250.702,209.085 Q252.286,207.924 255.03,208.348 Q266.104,210.055 271.246,211.814 Q280.039,214.822 278.599,221.094 Q278.42,221.875 277.953,222.62 Q281.757,223.505 281.633,228.113 Q281.485,233.665 275.934,233.516 Z"/>
  <path fill="rgb(10.196078%, 0%, 0.392157%)" opacity="0.974" d="M222.304,2.367 Q220.366,-4.393 220.325,-9.599 Q220.279,-15.524 224.436,-19.746 Q228.592,-23.969 234.517,-24.015 Q240.442,-24.061 244.664,-19.904 Q248.887,-15.748 248.933,-9.823 Q248.984,-3.329 258.667,14.614 Q270.911,37.304 271.996,50.147 Q274.079,74.814 250.022,91.77 Q247.527,93.529 244.531,94.116 Q221.752,98.578 207.484,85.024 Q195.838,73.961 194.337,54.882 Q193.066,38.714 199.358,24.331 Q207.151,6.518 222.047,2.435 Q222.176,2.4 222.304,2.367 Z"/>
  <path fill="rgb(10.588235%, 2.352941%, 27.843137%)" opacity="0.772" d="M217.023,178.353 Q244.777,183.672 263.504,233.006 Q265.757,238.94 267.562,244.64 Q274.766,243.403 291.496,242.645 Q323.093,241.212 349.05,239.126 Q353.291,238.786 353.631,243.027 Q353.972,247.267 349.731,247.608 Q323.627,249.705 291.882,251.145 Q275.825,251.873 269.931,252.734 Q271.016,256.783 271.861,260.707 Q272.616,260.714 273.352,260.995 Q276.717,262.281 276.026,265.826 Q275.825,266.856 275.096,267.825 Q274.77,268.26 273.307,269.876 Q273.316,270.182 273.31,270.448 Q273.281,271.719 272.871,272.662 Q272.128,274.372 270.429,275.039 Q268.319,275.867 266.405,274.605 Q264.99,273.673 263.946,271.073 Q263.712,270.488 263.632,269.932 Q262.526,269.075 261.862,267.571 Q261.037,265.701 261.312,262.926 Q261.158,262.51 260.963,261.983 Q258.782,256.107 258.585,253.794 Q258.315,250.621 259.841,248.458 Q257.966,242.391 255.549,236.026 Q238.508,191.134 215.422,186.71 Q211.244,185.909 212.044,181.73 Q212.845,177.552 217.023,178.353 Z"/>
  <path fill="rgb(99.607843%, 94.901961%, 92.54902%)" opacity="0.224" d="M105.925,65.31 Q101.686,63.793 94.335,65.287 Q86.167,66.946 80.539,71.329 Q68.116,81.005 80.745,97.98 Q83.161,101.228 82.745,104.06 Q82.33,106.891 79.082,109.308 Q72.587,114.14 67.755,107.645 Q56.743,92.844 58.308,79.259 Q59.717,67.025 70.591,58.556 Q79.217,51.837 91.111,49.42 Q102.888,47.027 111.38,50.065 Q115.191,51.429 116.414,54.016 Q117.638,56.604 116.275,60.415 Q113.547,68.037 105.925,65.31 Z"/>
  <path fill="rgb(54.117647%, 94.117647%, 69.411765%)" opacity="0.086" d="M-2.628,37.151 Q-4.723,36.146 -5.281,36.563 Q-5.867,37.001 -5.65,39.346 Q-5.054,45.782 1.798,59.595 Q18.179,92.619 52.937,136.137 Q53.472,136.807 53.405,137.409 Q53.337,138.012 52.668,138.547 Q52.079,139.016 51.335,138.901 Q33.895,136.197 20.41,123.069 Q12.57,115.436 1.189,97.773 Q-8.994,81.969 -14.634,77.462 Q-23.378,70.473 -34.632,74.915 Q-36.227,75.544 -36.856,73.95 Q-37.171,73.152 -36.93,72.596 Q-36.688,72.04 -35.891,71.726 Q-22.79,66.554 -12.493,74.783 Q-6.415,79.641 4.071,95.916 Q15.241,113.251 22.802,120.612 Q33.722,131.243 47.346,134.609 Q14.575,93.068 -1.274,61.119 Q-8.409,46.734 -9.064,39.662 Q-9.458,35.404 -7.333,33.817 Q-5.112,32.157 -1.145,34.06 Q0.4,34.801 -0.341,36.347 Q-0.712,37.12 -1.283,37.321 Q-1.855,37.522 -2.628,37.151 Z"/>
  <path fill="rgb(100%, 61.960784%, 29.411765%)" opacity="0.775" d="M224.47,69.54 Q228.256,68.373 231.555,67.426 Q227.212,60.061 230.741,47.079 Q231.668,43.67 235.176,43.261 Q237.168,43.029 240.656,42.616 Q254.809,40.938 257.572,41.441 Q263.151,42.457 263.247,47.743 Q263.277,49.418 262.093,52.55 Q259.67,58.965 260.319,64.672 Q260.614,67.266 259.464,68.711 Q258.598,69.799 256.913,70.235 Q256.38,72.177 254.59,73.367 Q252.711,74.616 249.156,75.038 Q246.107,75.4 243.444,75.058 Q237.381,76.492 227.546,79.523 Q222.554,81.061 221.016,76.069 Q220.247,73.574 221.111,71.941 Q221.974,70.309 224.47,69.54 Z M243.461,64.373 Q247.315,63.557 249.755,63.378 Q249.555,57.795 251.277,51.958 Q247.862,52.281 241.886,52.989 Q240.9,53.106 240.032,53.209 Q238.644,60.564 241.389,63.16 Q242.245,63.97 243.461,64.373 Z"/>
  <path fill="rgb(1.568627%, 0%, 95.686275%)" d="M105.226,400.54 Q89.354,407.874 81.163,395.91 Q74.758,386.556 75.584,366.154 Q77.23,325.532 100.494,274.177 Q109.681,245.687 114.516,242.562 Q117.896,240.377 121.31,242.377 Q123.223,243.497 124.834,246.173 Q126.317,248.638 129.583,256.76 Q139.603,281.678 150.783,295.664 Q153.666,299.271 150.059,302.154 Q148.256,303.595 146.633,303.415 Q145.011,303.234 143.569,301.43 Q131.541,286.383 121.015,260.206 Q119.065,255.357 117.918,252.89 Q115.178,258.7 109.204,277.259 Q109.123,277.511 109.014,277.752 Q86.388,327.612 84.812,366.527 Q84.11,383.867 88.783,390.693 Q92.565,396.216 101.352,392.156 Q103.448,391.187 104.98,391.751 Q106.512,392.315 107.481,394.411 Q109.418,398.602 105.226,400.54 Z"/>
  <path fill="rgb(94.901961%, 100%, 85.098039%)" opacity="0.066" d="M76.177,135.947 Q71.463,129.321 74.474,120.01 Q77.196,111.597 84.422,105.748 Q92.186,99.464 100.254,100.436 Q109.62,101.563 115.548,112.446 Q115.566,112.479 115.583,112.513 Q121.826,125.285 122.256,132.417 Q122.722,140.145 116.875,141.088 Q107.287,142.636 88.439,124.804 Q87.194,123.626 88.372,122.38 Q88.961,121.758 89.567,121.741 Q90.173,121.724 90.795,122.313 Q108.413,138.981 116.328,137.704 Q119.113,137.254 118.834,132.624 Q118.445,126.184 112.52,114.053 Q107.441,104.754 99.845,103.84 Q93.216,103.041 86.579,108.413 Q80.144,113.621 77.737,121.066 Q75.256,128.737 78.971,133.959 Q79.965,135.356 78.568,136.35 Q77.87,136.847 77.272,136.746 Q76.674,136.645 76.177,135.947 Z"/>
  <path fill="rgb(36.470588%, 21.176471%, 0%)" opacity="0.949" d="M79.135,158.232 Q63.582,173.558 42.522,186.063 Q14.944,202.438 -11.952,207.014 Q-14.024,207.366 -14.377,205.294 Q-14.553,204.258 -14.123,203.652 Q-13.693,203.046 -12.657,202.869 Q13.469,198.425 40.376,182.448 Q60.996,170.204 76.185,155.237 Q76.933,154.5 77.677,154.505 Q78.42,154.511 79.157,155.259 Q80.633,156.756 79.135,158.232 Z"/>
  <path fill="rgb(91.764706%, 97.254902%, 47.058824%)" opacity="0.343" d="M370.133,23.787 Q389.766,20.435 396.8,33.891 Q400.847,41.633 401.998,63.353 Q402.627,75.209 403.508,80.524 Q403.788,82.216 402.097,82.496 Q401.251,82.636 400.758,82.283 Q400.265,81.931 400.125,81.085 Q399.213,75.581 398.574,63.534 Q397.463,42.56 393.761,35.479 Q387.883,24.234 370.71,27.166 Q369.866,27.311 369.371,26.96 Q368.876,26.61 368.732,25.765 Q368.444,24.075 370.133,23.787 Z"/>
  <path fill="rgb(93.72549%, 91.764706%, 99.607843%)" opacity="0.078" d="M241.998,279.485 Q246.341,275.77 250.256,274.965 Q250.245,274.877 250.236,274.787 Q249.741,270.008 254.521,269.513 Q276.224,267.268 285.476,270.545 Q297.862,274.933 298.396,289.723 Q298.823,301.565 290.902,326.765 Q285.838,342.876 270.465,384.756 Q271.381,386.783 272.766,389.337 Q273.525,390.736 273.737,391.248 Q275.263,394.934 272.201,397.197 Q269.108,399.482 266.013,396.877 Q265.239,396.226 260.748,391.294 L260.627,391.161 Q258.662,389.004 259.67,386.266 Q259.99,385.398 260.294,384.571 Q257.84,376.221 261.495,371.542 Q264.07,327.129 259.792,302.413 Q257.555,289.49 253.948,285.585 Q252.051,283.532 248.245,286.788 Q244.593,289.912 241.47,286.26 Q238.346,282.609 241.998,279.485 Z M260.574,278.609 Q260.791,278.83 261.006,279.063 Q266.541,285.053 269.262,300.774 Q272.72,320.752 271.918,352.551 Q278.71,333.502 281.734,323.883 Q289.159,300.26 288.792,290.069 Q288.494,281.81 282.267,279.604 Q276.033,277.396 260.574,278.609 Z"/>
  <path fill="rgb(100%, 96.470588%, 55.686275%)" opacity="0.138" d="M132.259,156.087 Q132.591,165.698 137.046,170.908 Q140.614,175.081 145.19,175.004 Q149.229,174.935 150.562,171.775 Q152.164,167.977 148.304,162.273 Q147.304,160.796 148.781,159.796 Q150.259,158.796 151.259,160.274 Q156.203,167.58 153.849,173.162 Q151.613,178.463 145.251,178.571 Q138.995,178.677 134.334,173.227 Q129.069,167.069 128.694,156.21 Q128.632,154.427 130.415,154.366 Q132.198,154.304 132.259,156.087 Z"/>
  <path fill="rgb(75.294118%, 30.980392%, 63.921569%)" opacity="0.008" d="M273.416,297.983 Q269.052,282.456 258.013,257.78 Q250.228,240.376 248.702,233.648 Q246.134,222.327 252.291,216.351 Q264.444,204.557 330.784,207.369 Q331.64,207.406 332.05,207.852 Q332.46,208.298 332.424,209.155 Q332.406,209.574 332.197,209.938 Q319.336,232.267 293.465,265.278 Q283.454,278.052 280.761,282.242 Q278.767,285.342 278.302,286.999 Q278.075,287.804 278.149,287.849 Q279.608,288.747 278.71,290.207 Q277.811,291.667 276.352,290.769 Q274.074,289.367 275.001,286.071 Q275.606,283.92 277.877,280.387 Q280.657,276.063 290.766,263.164 Q315.079,232.141 327.792,210.68 Q265.527,208.283 254.679,218.812 Q249.903,223.446 252.046,232.889 Q253.497,239.287 261.143,256.38 Q272.284,281.285 276.717,297.056 Q277.181,298.706 275.53,299.17 Q273.88,299.634 273.416,297.983 Z"/>
  <path fill="rgb(26.666667%, 0%, 18.823529%)" opacity="0.848" d="M332.742,259.534 Q331.435,259.577 330.147,259.621 Q330.894,263.453 327.025,264.257 Q315.139,266.725 293.758,268.603 Q279.286,269.874 270.643,271.403 Q267.771,289.646 267.108,320.561 Q266.603,344.152 265.354,354.064 Q263.216,371.04 256.965,379.242 Q241.476,399.568 195.174,374.636 Q192.475,373.183 193.176,370.199 Q209.353,301.266 235.613,278.686 Q244.346,271.177 255.758,267.047 Q244.793,269.091 237.238,269.697 Q231.645,270.146 229.829,269.245 Q226.218,267.454 227.815,263.826 Q228.429,262.43 229.952,261.615 Q230.992,261.058 233.042,260.503 Q256.928,254.035 332.477,251.537 Q336.476,251.405 336.608,255.403 Q336.74,259.401 332.742,259.534 Z M262.275,273.327 Q249.848,276.998 240.83,284.752 Q217.1,305.158 201.679,369.027 Q239.64,388.776 250.601,374.393 Q255.546,367.903 257.416,353.064 Q258.613,343.565 259.109,320.389 Q259.726,291.587 262.275,273.327 Z M275.408,262.566 Q273.815,262.697 272.274,262.831 Q272.249,262.939 272.227,263.034 Q273.751,262.797 275.408,262.566 Z"/>
  <path fill="rgb(45.882353%, 24.313725%, 51.764706%)" opacity="0.334" d="M147.484,216.205 Q129.367,218.196 122.533,213.917 Q118.584,211.445 119.54,207.575 Q120.365,204.233 125.178,200.835 Q149.159,183.904 227.496,178.894 Q229.274,178.78 229.387,180.558 Q229.444,181.447 229.028,181.92 Q228.612,182.393 227.723,182.45 Q187.74,185.007 159.963,191.539 Q136.812,196.983 127.233,203.745 Q123.506,206.377 122.999,208.429 Q122.662,209.794 124.424,210.897 Q130.209,214.519 147.094,212.663 Q148.865,212.468 149.06,214.239 Q149.255,216.01 147.484,216.205 Z"/>
  <path fill="rgb(3.921569%, 0%, 100%)" d="M179.066,322.527 Q144.017,335.335 124.537,336.056 Q125.541,348.016 121.128,366.52 Q120.481,369.233 118.801,370.265 Q117.122,371.298 114.409,370.651 Q108.985,369.357 110.279,363.933 Q115.045,343.95 112.949,333.549 Q112.044,329.061 114.426,326.7 Q116.396,324.747 120.614,324.914 Q138.137,325.609 175.238,312.051 Q180.476,310.137 182.39,315.375 Q184.304,320.613 179.066,322.527 Z"/>
  <path fill="rgb(92.54902%, 99.607843%, 82.745098%)" opacity="0.377" d="M79.212,224.003 Q70.821,227.341 65.218,235.8 Q61.767,241.01 56.78,253.45 Q47.943,275.493 38.011,282.587 Q21.458,294.411 -12.546,286.885 Q-14.22,286.514 -13.85,284.841 Q-13.664,284.004 -13.153,283.678 Q-12.642,283.352 -11.805,283.537 Q20.708,290.733 36.018,279.797 Q45.134,273.286 53.598,252.175 Q58.715,239.409 62.359,233.907 Q68.555,224.552 77.944,220.817 Q78.741,220.5 79.298,220.74 Q79.854,220.98 80.171,221.777 Q80.805,223.369 79.212,224.003 Z"/>
  <path fill="rgb(43.921569%, 38.431373%, 40.784314%)" opacity="0.964" d="M348.884,102.58 Q344.53,92.979 339.024,90.952 Q335.103,89.508 322.509,90.487 Q300.998,92.16 283.506,90.203 Q252.621,86.748 213.987,72.505 Q211.908,71.739 212.674,69.659 Q213.058,68.619 213.769,68.291 Q214.481,67.963 215.521,68.346 Q253.649,82.403 283.999,85.798 Q301.073,87.708 322.165,86.068 Q335.725,85.014 340.555,86.792 Q347.801,89.459 352.921,100.749 Q353.836,102.767 351.818,103.683 Q350.809,104.14 350.075,103.864 Q349.342,103.589 348.884,102.58 Z"/>
  <path fill="rgb(96.078431%, 0%, 5.882353%)" opacity="0.923" d="M122.257,123.966 Q119.253,131.155 109.239,138.925 Q96.205,149.038 91.718,161.709 Q91.431,162.517 90.884,162.778 Q90.337,163.039 89.529,162.753 Q87.913,162.18 88.486,160.564 Q93.309,146.946 107.137,136.216 Q116.438,129 119.094,122.644 Q119.755,121.062 121.337,121.723 Q122.919,122.384 122.257,123.966 Z"/>
  <path fill="rgb(34.117647%, 19.607843%, 18.039216%)" opacity="0.759" d="M184.584,133.888 Q188.245,164.154 173.707,182.491 Q159.552,200.344 133.399,200.685 Q83.825,234.729 57.255,222.939 Q45.215,217.597 40.361,203.479 Q36.048,190.934 38.14,173.54 Q27.935,168.448 28.909,165.172 Q29.688,162.55 40.755,160.584 Q61.315,156.931 76.002,151.49 Q102.508,141.671 124.656,123.04 Q126.491,121.496 128.034,123.331 Q129.578,125.166 127.743,126.71 Q104.956,145.878 77.668,155.987 Q62.578,161.578 41.594,165.306 Q36.917,166.137 35.116,166.561 Q37.216,167.815 41.765,169.97 Q43.352,170.721 43.114,172.461 Q38.097,209.191 59.201,218.556 Q83.475,229.328 131.282,196.32 Q131.893,195.898 132.636,195.895 Q157.027,195.81 169.949,179.512 Q183.243,162.743 179.823,134.464 Q179.535,132.083 181.915,131.795 Q184.296,131.507 184.584,133.888 Z"/>
  <path fill="rgb(64.313725%, 86.27451%, 100%)" opacity="0.009" d="M150.467,242.778 Q155.532,246.406 154.795,250.769 Q154.16,254.532 150.262,256.051 Q145.966,257.725 143.798,254.43 Q141.883,251.516 143.857,245.89 Q140.242,244.42 137.824,245.115 Q135.966,245.65 132.316,248.835 Q122.465,257.429 110.008,258.601 Q108.302,258.762 108.141,257.055 Q108.058,256.172 108.73,255.594 Q132.654,235.036 142.424,233.219 Q147.63,232.25 152.375,234.946 Q155.225,236.565 161.19,242.022 Q164.865,245.385 167.047,247.225 Q168.357,248.33 167.252,249.64 Q166.147,250.951 164.836,249.846 Q162.602,247.961 158.875,244.552 Q153.195,239.355 150.681,237.927 Q147.026,235.85 143.051,236.589 Q135.156,238.058 115.864,254.056 Q123.569,251.916 130.062,246.251 Q134.286,242.566 136.876,241.82 Q141.026,240.626 146.794,243.453 Q147.42,243.76 147.66,244.213 Q147.681,243.724 148.075,243.174 Q148.574,242.477 149.172,242.378 Q149.77,242.279 150.467,242.778 Z M147.807,244.856 Q147.801,245.221 147.621,245.652 Q145.491,250.764 146.663,252.546 Q147.306,253.523 149.017,252.856 Q151.103,252.043 151.415,250.198 Q151.795,247.947 148.471,245.566 Q148.006,245.233 147.807,244.856 Z"/>
  <path fill="rgb(100%, 99.215686%, 91.764706%)" opacity="0.005" d="M55.652,372.062 Q57.508,368.371 60.695,362.072 Q69.647,344.38 70.672,340.957 Q69.487,341.306 66.82,342.378 Q61.147,344.657 57.342,345.763 Q55.696,346.242 55.217,344.596 Q54.919,343.572 55.707,342.852 Q62.552,336.596 80.677,331.193 Q93.879,327.257 97.364,324.019 Q102.603,319.152 98.034,308.967 Q97.683,308.185 97.898,307.619 Q98.114,307.052 98.896,306.702 Q100.46,306 101.162,307.564 Q106.737,319.991 99.698,326.531 Q95.626,330.314 81.656,334.479 Q76.634,335.976 72.54,337.519 Q73.229,337.756 73.685,338.344 Q74.473,339.358 74.157,341.122 Q73.618,344.127 63.755,363.62 Q60.568,369.918 58.715,373.602 Q58.33,374.368 57.755,374.558 Q57.179,374.749 56.413,374.364 Q54.882,373.593 55.652,372.062 Z"/>
  <path fill="rgb(100%, 0%, 16.470588%)" d="M261.842,184.474 Q260.243,196.622 250.535,197.609 Q245.768,198.093 233.575,194.133 Q219.294,189.494 210.866,188.756 Q196.641,187.511 184.059,193.654 Q182.682,194.327 181.526,194.356 Q179.597,196.643 177.359,198.771 Q163.834,211.627 143.995,213.549 Q139.129,214.02 138.658,209.155 Q138.187,204.29 143.052,203.818 Q159.54,202.221 170.623,191.685 Q176.322,186.268 179.516,179.676 Q179.625,179.451 179.675,179.354 Q179.793,179.125 179.917,178.927 Q180.268,178.37 180.747,177.928 Q182.239,176.552 184.267,176.636 Q187.916,176.788 188.806,180.331 Q188.918,180.78 188.935,181.268 Q199.859,177.979 211.719,179.017 Q221.255,179.852 236.596,184.835 Q246.829,188.159 249.546,187.883 Q251.56,187.678 252.15,183.198 Q252.469,180.775 253.84,179.723 Q255.211,178.671 257.634,178.99 Q262.48,179.628 261.842,184.474 Z"/>
  <path fill="rgb(0%, 22.352941%, 54.901961%)" d="M211.397,94.692 Q243.106,105.031 260.116,94.221 Q274.175,85.287 275.176,64.626 Q276.152,44.481 265.031,27.193 Q253.606,9.432 236.855,7.994 Q231.927,7.571 232.35,2.644 Q232.561,0.18 233.899,-0.947 Q235.236,-2.073 237.7,-1.861 Q259.295,-0.008 273.35,21.841 Q286.185,41.794 285.056,65.104 Q283.808,90.886 265.422,102.57 Q244.474,115.882 208.33,104.097 Q203.628,102.564 205.161,97.861 Q205.928,95.51 207.486,94.718 Q209.045,93.926 211.397,94.692 Z"/>
  <path fill="rgb(18.823529%, 27.45098%, 98.823529%)" opacity="0.883" d="M154.816,408.727 Q190.949,400.16 196.733,395.071 Q198.89,393.173 199.17,389.775 Q199.437,386.536 198.092,376.199 Q193.976,344.576 197.32,315.63 Q197.686,312.458 199.456,311.055 Q201.225,309.652 204.397,310.019 Q210.742,310.752 210.009,317.096 Q206.845,344.483 210.758,374.551 Q212.279,386.234 211.9,390.825 Q211.196,399.359 205.171,404.66 Q196.995,411.854 157.762,421.156 Q151.548,422.629 150.075,416.415 Q149.338,413.308 150.523,411.386 Q151.709,409.464 154.816,408.727 Z"/>
  <path fill="rgb(0%, 0%, 88.235294%)" d="M327.645,100.515 Q338.451,110.232 339.412,116.421 Q340.283,122.038 335.667,125.163 Q334.671,125.837 333.439,126.299 Q333.965,126.332 334.404,126.438 Q339.659,127.698 339.697,133.179 Q339.711,135.22 338.532,137.903 Q336.498,142.529 319.408,169.082 Q316.103,174.216 310.969,170.911 Q305.835,167.607 309.139,162.473 Q318.198,148.399 322.795,140.901 Q299.276,144.243 289.782,117.357 Q289.428,116.354 289.434,115.29 Q289.451,112.237 290.986,110.72 Q292.521,109.202 295.573,109.219 Q297.063,109.227 303.547,110.84 Q318.408,114.537 325.09,115.018 Q323.132,112.878 319.48,109.595 Q317.21,107.553 317.096,105.398 Q316.981,103.242 319.023,100.972 Q323.105,96.432 327.645,100.515 Z M327.41,127.291 Q320.843,127.35 307.082,124.234 Q310.18,127.92 314.012,128.928 Q318.457,130.097 326.84,127.465 Q327.129,127.375 327.41,127.291 Z"/>
  <path fill="rgb(8.627451%, 0%, 39.215686%)" d="M237.423,265.979 Q233.051,280.835 229.85,293.547 Q229.889,293.498 229.924,293.454 Q237.889,283.443 244.333,286.29 Q257.597,292.15 237.761,355.802 Q237.45,356.801 236.662,357.491 Q230.775,362.653 226.267,363.697 Q220.548,365.021 217.129,360.608 Q212.662,354.84 214.062,337.928 Q216.24,311.62 230.288,263.88 Q231.338,260.313 234.905,261.363 Q238.472,262.412 237.423,265.979 Z M224.432,317.8 Q222.221,329.511 221.473,338.542 Q220.312,352.572 223.008,356.054 Q223.51,356.701 224.589,356.452 Q227.038,355.885 230.977,352.572 Q240.436,322.036 242.073,305.59 Q243.234,293.935 241.328,293.093 Q240.135,292.566 235.744,298.084 Q230.053,305.236 226.767,315.228 Q226.05,317.406 224.432,317.8 Z"/>
  <path fill="rgb(100%, 100%, 99.215686%)" opacity="0.182" d="M72.113,302.308 Q70.957,302.437 70.409,302.469 Q70.004,302.492 69.747,302.465 Q68.283,302.305 67.885,300.918 Q67.366,299.105 69.121,298.348 Q69.655,298.117 72.135,297.73 Q78.165,296.789 85.118,296.194 Q86.236,296.098 87.295,296.021 Q84.925,295.342 83.087,295.155 Q78.528,294.69 69.381,297.761 Q62.19,300.175 57.117,301.459 Q55.049,301.983 54.525,299.914 Q54.264,298.88 54.65,298.232 Q55.036,297.584 56.07,297.322 Q60.986,296.078 68.023,293.715 Q78.044,290.351 83.52,290.909 Q89.073,291.476 98.437,295.77 Q99.16,295.811 99.819,295.872 Q103.333,296.197 105.036,297.168 Q108.306,299.033 106.544,302.254 Q105.537,304.095 103.68,303.12 Q100.338,301.365 97.411,299.993 Q92.819,299.818 85.482,300.446 Q79.017,300.999 73.384,301.855 Q72.919,302.218 72.113,302.308 Z"/>
  <path fill="rgb(15.294118%, 0%, 18.823529%)" d="M147.822,149.937 Q149.589,148.849 151.736,146.265 Q154.614,142.803 154.546,140.979 Q153.535,140.513 150.945,140.726 Q147.138,141.038 146.825,137.231 Q146.512,133.423 150.32,133.11 Q161.323,132.207 162.137,140.051 Q162.659,145.079 157.612,151.15 Q152.97,156.735 148.326,157.985 Q144.249,159.082 141.807,156.284 Q139.737,153.912 140.199,149.41 Q140.59,145.61 144.39,146 Q148.062,146.377 147.822,149.937 Z"/>
  <path fill="rgb(100%, 99.215686%, 98.823529%)" opacity="0.112" d="M147.109,101.446 Q152.034,119.073 143.201,126.862 Q136.194,133.041 116.918,132.718 Q114.021,132.67 112.948,132.706 Q111.498,132.754 111.119,131.353 Q108.581,121.971 102.68,105.99 Q97.573,92.164 96.023,85.855 Q93.461,75.422 94.758,67.234 Q97.766,48.252 124.988,29.378 Q125.74,28.856 126.377,28.971 Q127.015,29.087 127.536,29.839 Q127.712,30.092 127.795,30.388 Q140.578,75.936 157.632,95.521 Q160.007,98.248 159.435,99.628 Q158.852,101.031 155.239,101.206 Q151.571,101.383 148.606,101.78 Q147.699,101.902 147.184,101.509 Q147.145,101.479 147.109,101.446 Z M140.036,83.882 Q144.329,92.444 146.537,99.515 Q146.686,98.341 148.12,98.149 Q151.034,97.759 154.563,97.572 Q137.636,77.87 124.976,33.87 Q101.025,51.09 98.376,67.808 Q96.607,78.973 106.116,104.721 Q111.657,119.725 114.277,129.027 Q115.36,129.028 116.979,129.055 Q134.836,129.355 140.778,124.115 Q151.411,114.739 136.761,85.524 Q135.94,83.887 137.577,83.066 Q138.396,82.655 139.011,82.859 Q139.625,83.063 140.036,83.882 Z"/>
  <path fill="rgb(38.431373%, 12.156863%, 39.607843%)" opacity="0.752" d="M325.28,57.467 Q306.54,61.556 282.985,62.502 Q271.24,62.973 267.561,64.151 Q262.516,65.766 260.092,71.118 Q256.168,79.784 252.358,132.593 Q252.187,134.95 252.106,136.071 Q252.032,137.101 251.48,137.578 Q250.928,138.056 249.898,137.981 Q247.839,137.833 247.987,135.773 Q248.088,134.375 248.238,132.296 Q252.102,78.752 256.33,69.415 Q259.51,62.392 266.302,60.217 Q270.514,58.869 282.82,58.375 Q306.013,57.444 324.4,53.432 Q325.408,53.212 326.023,53.606 Q326.637,54 326.857,55.009 Q327.298,57.026 325.28,57.467 Z"/>
  <path fill="rgb(29.803922%, 22.745098%, 45.882353%)" d="M358.897,94.964 Q342.684,103.899 334.478,111.494 Q332.757,113.087 331.642,114.387 Q330.816,116.562 329.609,117.321 Q328.985,117.713 328.281,117.582 Q327.01,117.346 326.822,116.058 Q326.742,115.512 326.992,114.904 Q327.228,114.33 327.81,113.51 Q328.181,112.988 328.645,112.427 Q329.084,110.792 329.429,107.798 Q330.441,99.02 326.833,87.14 Q319.008,91.947 315.011,96.305 Q314.813,96.52 314.643,96.713 Q314.32,97.301 313.974,97.847 Q313.525,98.557 313.147,98.873 Q312.801,99.162 312.387,99.266 Q310.679,99.695 310.214,97.999 Q310.033,97.341 310.354,96.634 Q310.706,95.861 311.698,94.685 Q317.441,83.842 314.851,57.27 Q314.697,55.685 316.255,55.358 Q346.572,48.984 349.045,36.044 Q351.019,25.713 336.15,14.37 Q322.007,3.582 309.609,3.021 Q304.358,2.783 302.71,5.266 Q300.766,8.197 303.576,14.971 Q304.257,16.613 302.615,17.295 Q301.794,17.635 301.213,17.395 Q300.632,17.155 300.291,16.334 Q296.755,7.809 299.747,3.3 Q302.508,-0.86 309.77,-0.531 Q323.279,0.08 338.307,11.543 Q354.925,24.219 352.538,36.711 Q349.69,51.61 318.538,58.503 Q320.28,77.942 317.437,89.3 Q321.395,86.183 326.948,82.924 Q327.11,82.828 327.29,82.769 Q328.134,82.49 328.696,82.772 Q329.257,83.055 329.536,83.899 Q334.119,97.769 332.979,108.052 Q341.458,100.514 357.181,91.849 Q358.738,90.991 359.596,92.548 Q360.026,93.327 359.851,93.931 Q359.676,94.534 358.897,94.964 Z"/>
  <path fill="rgb(0.784314%, 0%, 98.431373%)" d="M336.38,38.144 Q326.81,46.513 312.211,49.237 Q296.199,52.224 286.895,45.356 Q275.819,37.181 279.727,18.477 Q276.251,9.171 286.351,2.851 Q296.051,-3.219 310.877,-0.518 Q327.831,2.571 343.636,16.626 Q362.403,33.315 376.193,62.981 Q376.646,63.957 376.389,65.001 Q370.953,87.063 336.027,92.826 Q317.494,95.884 283.417,94.169 Q282.421,94.119 281.507,94.075 Q282.308,95.155 281.653,96.893 Q281.114,98.323 280.13,98.769 Q279.146,99.215 277.716,98.676 Q271.882,96.479 269.664,95.247 Q267.96,94.301 267.307,93.262 Q266.295,91.654 267.086,89.992 Q267.652,88.801 268.97,88.245 Q270.92,87.42 283.724,88.065 Q317.146,89.747 335.032,86.796 Q365.108,81.833 370.181,64.554 Q358.774,40.355 344.029,25.424 Q343.61,31.821 336.38,38.144 Z M336.378,18.48 Q323.375,7.971 309.781,5.495 Q297.286,3.218 289.593,8.031 Q283.461,11.869 285.71,16.97 Q286.117,17.893 285.895,18.877 Q282.381,34.428 290.524,40.439 Q297.691,45.729 311.09,43.229 Q324.045,40.812 332.357,33.543 Q340.116,26.757 336.826,20.85 Q336.084,19.518 336.378,18.48 Z"/>
  <path fill="rgb(69.019608%, 12.54902%, 19.607843%)" opacity="0.64" d="M137.199,217.119 Q78.966,219.752 53.282,231.115 Q47.423,233.707 43.197,236.941 Q43.339,237.371 43.222,237.976 Q35.658,276.885 23.519,293.283 Q18.428,300.161 13.277,301.825 Q8.075,303.505 4.455,299.797 Q-2.924,292.237 3.278,276.394 Q10.199,258.713 31.069,246.686 Q36.046,234.991 51.895,227.979 Q78.168,216.356 137.044,213.694 Q138.756,213.616 138.834,215.329 Q138.911,217.041 137.199,217.119 Z M39.223,240.502 Q35.759,244.171 34.022,248.519 Q33.799,249.077 33.277,249.373 Q13.034,260.877 6.47,277.644 Q1.075,291.426 6.909,297.402 Q9.044,299.589 12.223,298.562 Q16.327,297.237 20.764,291.243 Q31.948,276.135 39.223,240.502 Z"/>
  <path fill="rgb(59.215686%, 52.941176%, 67.058824%)" opacity="0.458" d="M219.962,251.624 Q240.766,257.696 255.592,247.163 Q264.924,240.533 280.659,217.863 Q295.377,196.658 307.122,185.225 Q300.476,168.432 292.165,138.297 Q291.56,136.102 293.754,135.497 Q294.851,135.195 295.551,135.592 Q296.251,135.989 296.554,137.086 Q304.444,165.698 310.685,181.92 Q312.052,180.718 313.375,179.66 Q314.264,178.949 315.064,179.038 Q315.864,179.127 316.574,180.016 Q316.777,180.269 316.901,180.569 Q321.91,192.697 322.673,199.323 Q323.138,203.357 321.358,204.632 Q318.874,206.41 316.001,202.714 Q312.79,198.583 308.995,189.771 Q298.072,200.759 284.399,220.459 Q268.209,243.783 258.229,250.874 Q241.605,262.684 218.686,255.994 Q217.594,255.675 217.207,254.969 Q216.82,254.263 217.139,253.171 Q217.777,250.986 219.962,251.624 Z M312.484,186.42 Q315.261,193.086 317.684,197.098 Q316.663,192.361 313.856,185.194 Q313.176,185.788 312.484,186.42 Z"/>
  <path fill="rgb(71.764706%, 4.705882%, 48.627451%)" opacity="0.155" d="M39.662,190.393 Q36.327,190.414 33.889,192.821 Q31.719,194.964 31.876,197.096 Q32.008,198.879 34.476,199.405 Q38.648,200.295 46.698,197.358 Q48.553,196.681 49.323,198.499 Q52.402,205.773 54.602,209.005 Q55.332,210.077 55.871,210.58 Q56.34,209.235 55.836,201.748 Q55.177,191.947 52.546,182.016 Q49.818,171.718 47.335,170.139 Q45.582,169.025 46.697,167.273 Q47.254,166.396 47.97,166.237 Q48.687,166.077 49.563,166.634 Q53.417,169.084 56.561,180.952 Q59.294,191.27 59.98,201.47 Q60.799,213.633 56.885,214.838 Q52.584,216.163 46.27,201.902 Q38.398,204.488 33.61,203.467 Q28.094,202.292 27.734,197.402 Q27.436,193.356 30.971,189.866 Q34.611,186.272 39.635,186.24 Q41.712,186.227 41.725,188.303 Q41.732,189.342 41.216,189.864 Q40.7,190.387 39.662,190.393 Z"/>
  <path fill="rgb(63.137255%, 27.843137%, 0%)" opacity="0.52" d="M49.227,202.658 Q49.222,202.692 49.218,202.726 Q46.951,219.594 29.68,242.055 Q26.109,246.699 20.3,247.457 Q14.491,248.216 9.848,244.645 Q1.219,238.01 5.424,227.97 Q8.287,221.135 13.191,209.316 Q15.982,202.589 18.519,196.697 Q17.698,196.09 17.056,195.448 Q13.261,191.651 12.806,186.406 Q11.918,176.181 21.347,172.063 Q25.557,170.224 30.282,171.117 Q35.286,161.251 38.433,157.471 Q45.133,149.423 54.86,146.082 Q60.121,144.275 72.763,142.476 Q79.366,141.536 83.266,140.888 Q89.045,139.929 93.81,143.337 Q98.574,146.745 99.534,152.524 Q100.493,158.303 97.085,163.067 Q93.677,167.832 87.898,168.792 Q83.676,169.492 76.749,170.478 Q66.768,171.899 64.049,172.833 Q61.807,173.603 60.171,175.569 Q58.57,177.492 55.632,183.297 Q57.831,187.359 57.066,192.127 Q56.138,197.911 51.391,201.345 Q50.335,202.109 49.227,202.658 Z"/>
  <path fill="rgb(0%, 3.921569%, 62.352941%)" opacity="0.854" d="M284.99,71.102 Q283.731,79.18 280.865,86.788 Q291.194,89.429 308.545,94.314 Q309.665,94.629 310.57,95.065 Q311.826,94.986 313.071,94.911 Q316.959,94.679 319.019,96.507 Q321.079,98.335 321.311,102.223 Q321.723,109.128 314.916,110.354 Q312.773,110.74 309.977,110.717 Q306.887,115.559 304.037,120.138 Q304.256,121.107 304.315,122.254 Q305.507,145.496 293.26,169.727 Q282.477,191.06 271.303,196.942 Q266.67,199.381 262.48,198.154 Q256.717,196.467 255.469,190.067 Q254.29,184.017 258.642,172.271 Q266.543,150.945 290.627,112.204 Q283.494,112.833 276.056,113.599 Q262.713,114.974 259.58,113.766 Q255.294,112.115 254.216,107.801 Q253.481,104.855 254.814,101.807 Q255.489,100.262 257.795,97.035 Q258.274,96.365 258.734,95.691 Q257.726,94.067 257.612,91.96 Q257.301,86.18 262.754,84.166 Q263.974,83.715 265.334,83.662 Q268.392,76.429 269.596,68.703 Q270.795,61.006 278.492,62.205 Q282.341,62.805 283.965,65.029 Q285.59,67.253 284.99,71.102 Z"/>
  <path fill="rgb(16.862745%, 3.529412%, 40%)" opacity="0.914" d="M373.552,239.05 Q381.18,225.115 379.362,205.02 Q377.771,187.433 371.195,178.101 Q368.685,174.538 366.84,174.614 Q364.968,174.691 363.291,179.072 Q358.241,192.257 360.803,230.95 Q360.841,231.521 360.572,232.025 Q352.804,246.574 343.908,244.66 Q344.386,247.085 345.742,252.802 Q354.058,287.854 362.955,333.846 Q363.226,335.25 361.987,335.963 Q361.398,336.301 360.288,336.943 Q351.295,342.144 348.696,340.891 Q346.142,339.659 344.162,329.24 Q338.22,297.978 323.873,263.906 Q323.096,262.06 324.942,261.283 Q326.787,260.506 327.565,262.352 Q342.077,296.814 348.097,328.492 Q349.701,336.928 350.436,337.283 Q351.125,337.615 358.283,333.476 Q358.521,333.338 358.75,333.206 Q350.014,288.162 341.845,253.726 Q339.731,244.814 339.649,243.274 Q339.514,240.736 341.457,240.193 Q342.33,239.95 343.882,240.496 Q350.172,242.712 356.768,230.638 Q354.225,191.543 359.55,177.639 Q362.17,170.797 366.675,170.612 Q370.701,170.446 374.47,175.794 Q381.663,186.004 383.352,204.659 Q385.28,225.968 377.065,240.973 Q376.104,242.73 374.347,241.769 Q372.59,240.807 373.552,239.05 Z"/>
  <path fill="rgb(92.941176%, 100%, 100%)" opacity="0.063" d="M332.257,324.265 Q332.264,324.249 332.271,324.233 Q333.482,321.333 334.228,321.019 Q335.462,320.5 336.272,321.565 Q336.576,321.964 336.622,322.474 Q336.644,322.714 336.602,323.001 Q336.565,323.259 336.45,323.728 Q336.25,324.547 335.734,326.351 Q334.983,329.846 335.02,338.017 Q335.089,353.355 330.882,360.08 Q323.794,371.409 301.9,374.201 Q300.2,374.417 299.983,372.717 Q299.766,371.016 301.467,370.8 Q321.749,368.213 327.975,358.261 Q331.656,352.378 331.591,338.032 Q331.577,334.89 331.681,332.381 Q331.077,332.721 330.378,332.575 Q328.934,332.274 328.803,330.461 Q328.705,329.09 329.349,325.302 Q329.637,323.612 331.327,323.9 Q331.91,323.999 332.257,324.265 Z"/>
  <path fill="rgb(17.647059%, 0%, 100%)" opacity="0.497" d="M14.957,73.856 Q22.461,72.606 26.779,76.901 Q29.281,79.391 32.302,86.644 Q35.996,95.509 39.666,98.762 Q43.128,101.831 48.449,102.918 Q46.682,98.42 44.973,92.268 Q41.195,78.673 42.138,71.925 Q42.823,67.021 46.218,66.676 Q49.317,66.361 54,70.943 Q55.225,72.141 54.026,73.367 Q53.427,73.979 52.821,73.986 Q52.215,73.993 51.602,73.393 Q48.066,69.934 46.564,70.087 Q45.847,70.16 45.534,72.4 Q44.69,78.441 48.276,91.35 Q50.304,98.647 52.36,103.434 Q55.007,103.612 58.02,103.399 Q59.73,103.279 59.851,104.989 Q59.856,105.064 59.855,105.139 Q59.744,111.442 57.913,112.982 Q56.391,114.262 54.553,113.096 Q53.519,112.441 52.422,110.839 Q51.23,109.098 50.062,106.656 Q42.293,105.673 37.392,101.328 Q33.133,97.553 29.137,87.962 Q26.378,81.34 24.361,79.332 Q21.29,76.277 15.52,77.238 Q13.829,77.52 13.547,75.829 Q13.406,74.983 13.759,74.49 Q14.111,73.997 14.957,73.856 Z M54.051,106.936 Q54.65,108.024 55.251,108.901 Q55.663,109.503 55.984,109.846 Q56.256,109 56.366,106.918 Q55.183,106.957 54.051,106.936 Z"/>
</svg>

