<svg xmlns="http://www.w3.org/2000/svg" width="384" height="384" viewBox="0 0 384 384">
  <defs/>
  <path fill="rgb(16.862745%, 41.568627%, 34.117647%)" opacity="0.445" d="M-12.976,199.991 Q30.771,210.973 41.078,209.334 Q45.041,208.704 46.079,206.127 Q46.902,204.084 46.947,197.164 Q47.051,181.241 51.811,170.774 Q52.842,168.507 55.109,169.538 Q56.242,170.054 56.551,170.878 Q56.86,171.702 56.345,172.836 Q52.024,182.336 51.927,197.197 Q51.876,205.065 50.699,207.988 Q48.607,213.18 41.86,214.253 Q30.546,216.051 -14.188,204.821 Q-15.396,204.518 -15.848,203.763 Q-16.3,203.008 -15.997,201.8 Q-15.391,199.385 -12.976,199.991 Z"/>
  <path fill="rgb(11.764706%, 65.098039%, 0%)" d="M235.502,96.497 Q236.064,91.773 240.149,91.875 Q241.675,91.913 244.428,93.311 Q244.436,93.315 244.444,93.319 Q243.992,89.604 240.819,79.884 Q240.614,79.256 240.704,78.602 Q243.38,59.101 244.894,56.382 Q245.423,55.433 246.224,54.945 Q247.854,53.951 249.491,54.928 Q250.648,55.62 251.291,57.404 Q251.733,58.629 252.6,62.645 Q255.747,77.204 258.409,76.797 Q261.249,76.362 261.684,79.202 Q261.901,80.622 261.3,81.441 Q260.699,82.259 259.279,82.477 Q253.567,83.351 250.228,75.446 Q249.172,72.947 248.013,68.306 Q247.34,72.551 246.487,78.731 Q250.993,92.685 250.016,96.529 Q249.058,100.299 245.279,99.752 Q244.075,99.578 241.826,98.435 Q241.37,98.203 241.026,98.038 Q240.773,98.811 240.241,99.23 Q239.443,99.859 238.016,99.689 Q236.59,99.519 235.961,98.721 Q235.333,97.923 235.502,96.497 Z"/>
  <path fill="rgb(0%, 59.215686%, 0%)" d="M250.974,99.111 Q247.878,91.8 245.032,86.998 Q240.5,95.792 230.877,103.869 Q229.699,104.859 228.615,104.764 Q227.531,104.669 226.541,103.491 Q224.562,101.133 226.92,99.154 Q237.254,90.479 240.906,81.209 Q240.082,80.303 239.281,79.638 Q237.321,78.01 238.502,75.796 Q239.84,73.287 242.447,74.423 Q242.588,74.484 242.722,74.559 Q242.768,74.38 242.81,74.254 Q243.099,73.381 243.678,72.795 Q245.122,71.337 247.059,72.014 Q248.333,72.46 250.273,75.476 Q251.469,77.337 252.345,78.634 Q253.078,79.721 252.802,81.003 Q252.261,83.516 250.073,83.479 Q253.301,88.819 256.643,96.71 Q257.843,99.544 255.009,100.744 Q253.592,101.345 252.583,100.936 Q251.575,100.528 250.974,99.111 Z"/>
  <path fill="rgb(90.588235%, 100%, 100%)" opacity="0.024" d="M160.105,318.405 Q167.076,306.495 166.57,299.75 Q166.432,297.912 165.848,297.51 Q165.582,297.326 164.731,297.782 Q160.268,300.174 157.02,310.512 Q152.751,324.107 153.991,344.291 Q154.131,346.568 151.888,346.99 Q100.623,356.636 80.99,355.477 Q70.771,354.874 61.179,351.619 Q55.095,349.554 41.617,343.327 Q19.717,333.208 1.994,326.717 Q0.78,326.272 0.395,325.443 Q0.01,324.614 0.455,323.4 Q1.344,320.972 3.772,321.861 Q21.694,328.426 43.786,338.633 Q57.016,344.745 62.841,346.722 Q71.772,349.753 81.295,350.315 Q99.871,351.412 148.705,342.325 Q147.779,322.68 152.087,308.963 Q155.966,296.612 162.289,293.224 Q165.918,291.279 168.781,293.251 Q171.404,295.057 171.726,299.364 Q172.352,307.716 164.567,321.017 Q163.914,322.133 163.03,322.364 Q162.146,322.595 161.03,321.942 Q158.799,320.636 160.105,318.405 Z"/>
  <path fill="rgb(1.960784%, 3.921569%, 14.117647%)" opacity="0.678" d="M100.537,325.913 Q104.717,320.875 105.021,317.281 Q105.19,315.284 103.874,314.569 Q98.58,311.697 89.498,319.544 Q87.052,368.593 84.39,388.396 Q80.01,420.98 68.999,444.588 Q68.232,446.233 66.442,446.526 Q63.053,447.081 62.498,443.692 Q54.225,393.157 62.077,357.904 Q68.223,330.31 82.778,316.372 Q82.826,315.392 82.874,314.409 Q84.733,275.874 86.281,252.802 Q86.51,249.375 89.937,249.605 Q91.65,249.72 92.449,250.634 Q93.248,251.548 93.133,253.261 Q91.674,275.027 89.933,310.631 Q99.587,304.429 107.15,308.532 Q112.413,311.388 111.865,317.861 Q111.379,323.602 105.823,330.298 Q103.63,332.941 100.987,330.748 Q99.665,329.652 99.553,328.443 Q99.44,327.234 100.537,325.913 Z M68.781,359.397 Q62.179,389.037 67.479,430.308 Q74.359,411.462 77.583,387.481 Q79.982,369.635 82.22,327.36 Q73.242,339.369 68.781,359.397 Z"/>
  <path fill="rgb(5.490196%, 18.431373%, 34.117647%)" opacity="0.344" d="M139.406,83.521 Q159.481,119.171 179.951,118.391 Q182.486,118.294 184.427,117.74 Q184.661,117.481 184.985,117.233 Q187.781,115.094 189.252,114.722 Q190.362,114.442 191.297,114.904 Q193.449,115.967 192.633,118.257 Q192.31,119.166 191.269,120.017 Q187.209,123.335 180.15,123.604 Q156.498,124.506 134.86,86.081 Q134.22,84.944 134.468,84.056 Q134.716,83.168 135.853,82.528 Q138.126,81.248 139.406,83.521 Z"/>
  <path fill="rgb(4.313725%, 3.529412%, 10.196078%)" opacity="0.225" d="M251.902,303.891 Q252.881,324.123 251.802,337.978 Q254.351,336.469 257.307,335.118 Q277.789,325.754 311.543,328.718 Q314.233,328.954 315.46,330.417 Q316.687,331.88 316.45,334.57 Q315.978,339.95 310.598,339.478 Q279.685,336.764 261.798,344.941 Q252.904,349.007 249.257,354.286 Q248.17,358.103 246.792,359.638 Q245.829,360.711 244.52,361.192 Q240.728,362.586 238.283,359.376 Q236.837,357.478 237.223,354.943 Q237.446,353.484 238.327,351.652 Q238.741,350.792 239.222,349.959 Q239.29,349.67 239.357,349.364 Q242.58,334.722 241.113,304.413 Q240.852,299.019 246.247,298.758 Q251.641,298.497 251.902,303.891 Z"/>
  <path fill="rgb(0%, 9.019608%, 3.921569%)" opacity="0.954" d="M220.131,175.905 Q274.67,91.271 319.422,41.859 Q325.344,35.32 331.883,41.242 Q334.841,43.921 334.783,47.911 Q334.706,53.139 336.135,55.677 Q340.609,54.919 343.927,59.025 Q345.477,60.943 345.809,63.386 Q346.049,65.158 345.573,66.916 Q345.563,66.952 345.552,66.992 Q348.819,68.998 349.609,71.723 Q350.477,74.718 348.35,78.583 Q344.095,86.312 336.366,82.057 Q330.216,78.671 328.523,72.576 Q324.249,70.131 321.579,66.127 Q282.107,112.305 234.963,185.463 Q230.184,192.879 222.768,188.1 Q215.352,183.321 220.131,175.905 Z"/>
  <path fill="rgb(18.823529%, 54.117647%, 64.313725%)" opacity="0.239" d="M346.214,333.25 Q335.633,339.989 323.763,343.424 Q323.494,344.151 323.158,344.875 Q322.106,347.146 320.503,348.99 Q319.854,354.266 319.13,358.328 Q313.02,392.578 293.488,404.104 Q274.984,415.024 240.133,406.83 Q235.661,405.778 229.551,404.022 Q200.721,403.937 160.623,380.609 Q154.339,376.953 152.48,369.924 Q150.622,362.896 154.277,356.611 Q161.618,343.993 175.363,348.911 Q213.209,362.454 233.764,368.677 Q234.538,368.567 235.283,368.419 Q243.209,366.843 252.643,360.319 Q259.034,355.9 273.188,343.56 Q267.009,341.699 263.634,339.14 Q253.707,331.613 257.266,319.84 Q260.954,307.639 273.861,307.28 Q276.807,307.198 280.568,308.126 Q283.885,308.944 288.375,310.527 Q289.079,297.032 289.605,280.051 Q289.829,272.784 295.127,267.805 Q300.424,262.825 307.691,263.05 Q314.958,263.275 319.938,268.572 Q324.917,273.869 324.692,281.136 Q324.282,294.409 323.751,305.74 Q325.587,304.768 327.356,303.641 Q333.488,299.735 340.586,301.309 Q347.684,302.884 351.59,309.016 Q355.495,315.148 353.921,322.246 Q352.347,329.344 346.214,333.25 Z"/>
  <path fill="rgb(4.313725%, 9.411765%, 10.980392%)" d="M330.462,68.929 Q330.404,68.703 330.297,68.293 Q329.928,66.872 329.823,66.308 Q329.573,64.96 329.74,63.754 Q330.192,60.486 332.974,58.759 Q336.371,56.651 339.921,58.53 Q341.659,59.449 344.489,63.601 Q364.242,92.578 403.405,136.598 Q405.704,139.182 405.561,141.623 Q405.419,144.064 402.835,146.362 Q397.668,150.959 393.071,145.792 Q355.113,103.126 334.931,74.109 Q331.604,73.369 330.462,68.929 Z"/>
  <path fill="rgb(79.215686%, 47.45098%, 14.509804%)" opacity="0.74" d="M302.473,142.37 Q300.128,137.794 300.891,132.419 Q301.84,125.738 306.359,121.177 Q311.617,115.871 319.2,115.598 Q326.176,115.347 333.193,119.89 Q341.752,125.432 347.479,134.731 Q351.11,140.626 352.009,146.342 Q353.842,158.004 345.554,165.555 Q334.63,175.508 311.399,168.179 Q304.696,166.064 301.451,159.829 Q298.206,153.594 300.321,146.891 Q301.11,144.39 302.473,142.37 Z"/>
  <path fill="rgb(100%, 100%, 100%)" opacity="0.086" d="M61.817,54.392 Q67.584,56.583 70.774,56.388 Q63.566,45.327 20.085,26.315 Q18.15,25.469 17.606,24.079 Q17.061,22.688 17.907,20.753 Q19.599,16.883 23.469,18.575 Q70.248,39.028 78.283,52.466 Q80.668,56.454 79.459,59.834 Q78.18,63.413 73.842,64.447 Q68.098,65.816 58.816,62.288 Q54.868,60.788 56.368,56.839 Q57.869,52.891 61.817,54.392 Z"/>
  <path fill="rgb(32.156863%, 13.72549%, 12.941176%)" opacity="0.167" d="M314.47,253.226 Q325.448,267.845 327.945,282.047 Q329.396,290.305 327.856,302.874 Q326.527,313.711 329.359,317.211 Q334.384,323.423 356.227,328.175 Q359.642,328.918 358.899,332.333 Q358.156,335.747 354.742,335.005 Q330.497,329.73 323.925,321.606 Q319.23,315.802 320.919,302.024 Q322.332,290.489 321.061,283.257 Q318.854,270.703 308.881,257.423 Q306.783,254.628 309.577,252.53 Q312.372,250.431 314.47,253.226 Z"/>
  <path fill="rgb(0%, 10.588235%, 16.862745%)" opacity="0.509" d="M169.931,303.451 Q169.738,341.614 171.303,362.976 Q173.75,365.434 176.072,368.027 Q176.225,367.081 176.38,366.082 Q179.278,347.397 180.236,322.46 Q180.37,318.973 183.857,319.107 Q187.22,319.236 187.212,322.602 Q187.13,355.875 190.372,382.277 Q191.151,388.622 190.099,390.06 Q188.006,392.918 185.037,390.866 Q184.436,390.451 183.829,389.68 Q183.376,389.106 182.117,387.218 Q180.995,385.535 179.831,383.899 Q178.062,388.598 175.912,390.166 Q172.853,392.398 170.025,389.863 Q168.602,388.588 167.633,385.78 Q166.073,381.259 165.027,371.275 Q164.772,368.843 164.548,366.119 Q163.11,364.732 161.629,363.393 Q159.04,361.053 161.38,358.465 Q162.55,357.171 163.782,357.108 Q163.859,357.105 163.936,357.105 Q162.786,336.451 162.952,303.416 Q162.961,301.671 163.838,300.803 Q164.714,299.936 166.459,299.944 Q169.948,299.962 169.931,303.451 Z M172.423,374.446 Q172.919,378.239 173.491,380.8 Q173.957,379.173 174.454,376.861 Q173.451,375.639 172.423,374.446 Z M182.205,375.391 Q182.421,375.67 182.637,375.952 Q182.546,375.062 182.458,374.17 Q182.333,374.792 182.205,375.391 Z"/>
  <path fill="rgb(0%, 0%, 1.176471%)" d="M220.157,281.272 Q248.031,293.654 276.327,273.33 Q280.266,270.501 281.545,270.9 Q283.48,271.504 282.773,274.071 Q282.486,275.117 281.515,277.317 Q280.816,278.902 279.23,278.203 Q277.807,277.575 278.225,276.233 Q248.378,297.6 218.75,284.439 Q217.958,284.087 217.738,283.516 Q217.518,282.944 217.87,282.152 Q218.573,280.569 220.157,281.272 Z"/>
  <path fill="rgb(9.411765%, 42.745098%, 32.941176%)" opacity="0.337" d="M403.382,46.632 Q378.486,53.289 373.055,52.717 Q368.339,52.221 365.469,48.628 Q363.888,46.649 361.211,40.737 Q353.175,22.996 339.208,6.862 Q338.269,8.997 337.364,11.688 Q335.029,18.634 331.79,20.587 Q327.269,23.313 317.221,20.741 Q302.134,16.881 232.113,-13.453 Q230.525,-14.141 230.075,-15.279 Q229.625,-16.417 230.313,-18.005 Q231.688,-21.18 234.864,-19.805 Q304.382,10.311 318.936,14.036 Q326.177,15.889 328.216,14.659 Q329.278,14.019 330.803,9.482 Q333.014,2.907 335.579,-1.039 Q335.817,-1.405 336.14,-1.701 Q338.689,-4.042 341.03,-1.493 Q358.103,17.099 367.516,37.881 Q370.984,45.539 373.78,45.833 Q377.936,46.271 401.594,39.946 Q403.266,39.499 404.326,40.111 Q405.385,40.723 405.832,42.395 Q406.726,45.739 403.382,46.632 Z"/>
  <path fill="rgb(8.627451%, 5.882353%, 13.333333%)" opacity="0.778" d="M86.263,225.724 Q79.611,244.054 85.315,253.37 Q88.845,259.135 103.156,266.702 Q113.902,272.385 118.958,276.359 Q119.888,277.09 120.769,277.85 Q127.707,272.879 130.508,273.063 Q135.543,273.395 135.313,280.227 Q135.307,280.406 135.297,280.592 Q141.973,281.509 149.21,282.81 Q171.8,286.872 179.092,285.431 Q189.383,283.396 190.905,269.841 Q191.237,266.89 194.187,267.222 Q197.137,267.553 196.806,270.503 Q194.798,288.378 180.244,291.256 Q171.852,292.915 148.159,288.654 Q140.98,287.363 134.385,286.458 Q133.591,290.008 132.124,294.732 Q131.731,296 130.524,296.552 Q127.824,297.786 126.589,295.086 Q124.235,289.938 120.294,285.643 Q119.369,286.386 118.358,287.213 Q104.243,298.758 98.037,300.291 Q91.638,301.872 88.14,297.24 Q84.889,292.934 84.961,282.869 Q84.979,280.417 87.39,279.971 Q97.819,278.045 111.706,278.487 Q107.335,275.629 100.38,271.951 Q84.631,263.624 80.252,256.471 Q73.054,244.716 80.682,223.698 Q81.695,220.907 84.485,221.92 Q85.881,222.427 86.325,223.378 Q86.77,224.328 86.263,225.724 Z M112.339,284.443 Q100.242,283.998 90.935,285.398 Q91.173,291.404 92.878,293.662 Q94.016,295.169 96.613,294.527 Q101.084,293.422 112.339,284.443 Z M129.384,279.842 Q129.393,279.462 129.379,279.177 Q128.947,279.36 128.333,279.723 Q128.858,279.781 129.384,279.842 Z M127.946,285.651 Q128.151,285.936 128.35,286.224 Q128.413,285.965 128.473,285.711 Q128.212,285.681 127.946,285.651 Z"/>
  <path fill="rgb(0%, 25.098039%, 12.156863%)" d="M-11.741,297.793 Q1.126,307.216 22.437,294.207 Q29.234,290.058 36.076,284.166 Q0.953,289.778 -20.583,256.239 Q-21.325,256.859 -21.989,257.439 Q-23.28,258.567 -24.408,257.276 Q-24.972,256.631 -24.931,256.026 Q-24.891,255.422 -24.245,254.858 Q-23.386,254.107 -22.403,253.293 Q-26.192,246.926 -29.536,239.278 Q-30.029,238.152 -30.378,237.388 Q-30.669,237.303 -30.821,237.259 Q-32.113,236.881 -32.052,235.536 Q-31.987,234.083 -31.404,233.459 Q-30.353,232.334 -29.04,233.175 Q-28.635,233.434 -28.292,233.944 Q-28.163,234.135 -27.961,234.522 Q-27.347,234.701 -26.794,234.862 Q-10.199,239.702 -8.277,241.593 Q-6.011,243.822 -8.404,246.54 Q-9.405,247.676 -13.34,250.59 Q-15.831,252.434 -17.886,254.054 Q4.195,288.573 41.037,279.67 Q43.126,277.683 45.219,275.535 Q45.539,275.206 45.633,275.111 Q45.735,275.01 45.8,274.952 Q45.968,274.803 46.154,274.704 Q46.437,274.553 46.754,274.514 Q48.027,274.359 48.536,275.535 Q48.854,276.27 48.494,276.989 Q48.386,277.205 47.607,278.141 Q45.959,280.121 44.436,281.995 Q44.084,282.428 43.545,282.571 Q43.14,282.678 42.737,282.781 Q33.463,291.493 24.224,297.133 Q0.953,311.339 -13.767,300.559 Q-14.458,300.052 -14.551,299.453 Q-14.643,298.854 -14.137,298.163 Q-13.124,296.78 -11.741,297.793 Z M-19.694,251.114 Q-17.722,249.569 -15.38,247.835 Q-11.738,245.137 -10.977,244.274 L-10.681,244.037 Q-11.916,242.822 -26.067,238.649 Q-23.062,245.416 -19.694,251.114 Z"/>
  <path fill="rgb(13.72549%, 35.686275%, 32.54902%)" opacity="0.372" d="M402.557,302.558 Q382.934,302.325 376.754,294.661 Q372.635,289.551 373.235,276.338 Q373.818,263.508 370.962,256.766 Q365.978,245.004 348.825,235.821 Q344.93,233.736 347.015,229.841 Q349.1,225.946 352.995,228.031 Q372.898,238.685 379.098,253.319 Q382.736,261.907 382.062,276.739 Q381.614,286.609 383.633,289.114 Q387.2,293.539 402.662,293.723 Q407.08,293.776 407.027,298.193 Q406.975,302.611 402.557,302.558 Z"/>
  <path fill="rgb(0%, 30.980392%, 27.843137%)" d="M3.076,374.194 Q36.681,352.825 59.78,342.554 Q40.417,342.413 19.744,333.882 Q18.16,333.228 18.814,331.643 Q19.141,330.851 19.7,330.618 Q20.26,330.385 21.052,330.712 Q41.34,339.085 60.235,339.128 Q65.343,339.139 68.773,338.866 Q70.888,338.093 72.677,337.554 Q74.58,336.981 75.67,336.815 Q76.338,336.713 76.76,336.779 Q77.825,336.946 78.187,337.914 Q78.609,339.043 77.682,339.871 Q75.825,341.529 69.739,342.163 Q66.074,343.514 61.373,345.598 Q38.454,355.76 4.916,377.087 Q4.193,377.547 3.601,377.416 Q3.009,377.284 2.55,376.561 Q1.63,375.114 3.076,374.194 Z"/>
  <path fill="rgb(95.686275%, 83.921569%, 100%)" opacity="0.07" d="M194.246,253.331 Q191.02,248.466 187.986,244.007 Q185.74,254.859 183.456,267.213 Q181.823,276.044 173.103,278.191 Q167.508,279.568 162.578,276.586 Q157.647,273.604 156.27,268.009 Q155.021,262.936 139.991,241.739 Q127.438,224.037 122.833,215.63 Q112.744,197.207 117.096,185.123 Q118.458,181.34 121.629,178.867 Q131.528,171.146 138.079,169.094 Q150.385,165.241 162.864,172.622 Q168.227,175.795 175.062,182.612 Q176.12,179.496 177.175,176.696 Q193.356,133.728 223.249,111.017 Q227.837,107.532 233.546,108.311 Q239.255,109.09 242.741,113.679 Q246.226,118.267 245.447,123.976 Q244.667,129.685 240.079,133.17 Q216.568,151.033 203.211,186.501 Q199.873,195.365 196.439,207.978 Q206.064,220.809 217.434,237.958 Q220.618,242.76 219.473,248.407 Q218.329,254.055 213.527,257.239 Q208.724,260.422 203.077,259.278 Q197.43,258.134 194.246,253.331 Z M166.171,214.082 Q155.087,200.346 148.7,196.568 Q146.88,195.492 146.393,195.644 Q145.603,195.892 143.945,196.985 Q146.952,203.459 162.685,225.646 Q162.988,226.074 163.291,226.503 Q164.735,220.01 166.171,214.082 Z"/>
  <path fill="rgb(3.137255%, 82.352941%, 12.156863%)" opacity="0.348" d="M386.97,160.883 Q382.694,160.327 374.891,159.289 Q338.92,154.503 332.546,156.154 Q329.303,156.994 329.187,159.524 Q329.025,163.055 332.921,171.283 Q333.993,173.548 331.729,174.62 Q330.596,175.156 329.762,174.858 Q328.928,174.56 328.392,173.428 Q323.961,164.072 324.181,159.294 Q324.467,153.07 331.29,151.303 Q338.611,149.406 375.552,154.321 Q383.349,155.358 387.616,155.914 Q390.101,156.237 389.778,158.722 Q389.454,161.206 386.97,160.883 Z"/>
  <path fill="rgb(14.117647%, 24.705882%, 25.490196%)" opacity="0.301" d="M-8.651,75.918 Q-13.642,72.679 -11.811,66.535 Q-10.664,62.686 -7.04,58.918 Q-3.402,55.136 -0.575,54.761 Q1.222,54.522 2.528,55.59 Q3.93,56.735 3.956,58.678 Q3.975,60.048 3.123,61.987 Q5.439,72.443 7.867,90.321 Q11.405,116.371 16.521,122.648 Q23.991,131.813 46.854,125.358 Q47.917,125.058 48.944,125.464 Q70.74,134.083 75.791,130.905 Q79.196,128.762 81.387,111.147 Q84.364,87.214 89.432,70.626 Q98.368,41.378 117.658,12.418 Q119.47,9.697 122.191,11.51 Q123.552,12.416 123.779,13.549 Q124.006,14.682 123.1,16.043 Q104.341,44.205 95.685,72.537 Q90.783,88.583 87.876,111.954 Q86.528,122.79 85.463,126.718 Q83.559,133.742 79.273,136.439 Q71.579,141.28 47.563,131.945 Q21.433,139.024 11.453,126.779 Q5.173,119.075 1.388,91.2 Q-0.904,74.32 -3.072,64.264 Q-4.96,66.439 -5.545,68.403 Q-5.979,69.858 -5.091,70.434 Q-3.72,71.323 -3.48,72.454 Q-3.239,73.584 -4.129,74.955 Q-5.908,77.698 -8.651,75.918 Z"/>
  <path fill="rgb(6.27451%, 0%, 15.686275%)" opacity="0.488" d="M139.828,308.472 Q139.308,318.523 139.671,342.488 Q140.171,375.563 138.731,384.031 Q137.286,392.528 128.789,391.083 Q124.541,390.361 122.778,387.875 Q121.015,385.39 121.737,381.141 Q122.911,374.238 122.435,342.749 Q121.981,312.787 122.93,303.18 Q123.997,292.369 128.311,288.759 Q134.807,283.323 141.528,289.104 Q144.021,291.248 146.355,295.729 Q148.346,299.551 147.43,302.457 Q146.515,305.364 142.693,307.355 Q141.19,308.138 139.828,308.472 Z"/>
  <path fill="rgb(3.137255%, 8.235294%, 35.294118%)" opacity="0.272" d="M174.171,121.9 Q146.067,131.509 136.957,141.512 Q132.126,146.817 132.123,155.285 Q132.121,162.236 128.898,164.978 Q124.752,168.505 111.97,169.59 Q101.848,182.576 98.004,186.096 Q95.858,188.06 94.3,188.067 Q93.681,188.069 93.175,187.871 Q92.83,188.284 92.401,188.829 Q90.687,191.284 87.597,195.538 Q84.95,199.183 83.314,201.445 Q81.927,203.363 79.983,202.013 Q78.002,200.637 79.378,198.655 Q85.508,189.827 88.448,186.057 Q87.45,185.905 86.636,185.507 Q85.552,184.977 85.275,184.171 Q84.998,183.364 85.528,182.28 Q86.587,180.113 88.755,181.173 Q89.382,181.479 90.998,181.207 Q92.881,180.891 93.854,181.534 Q94.486,181.951 94.791,182.496 Q98.475,179.101 108.814,165.79 Q109.471,164.944 110.539,164.864 Q122.652,163.957 125.772,161.303 Q127.297,160.006 127.299,155.284 Q127.301,144.949 133.39,138.263 Q143.334,127.345 172.61,117.335 Q174.893,116.554 175.673,118.837 Q176.454,121.119 174.171,121.9 Z"/>
  <path fill="rgb(0.784314%, 25.098039%, 6.666667%)" opacity="0.864" d="M104.949,348.506 Q105.793,342.414 107.374,340.277 Q107.371,339.298 107.365,338.083 Q107.248,312.06 107.353,276.12 Q107.357,274.548 108.145,273.764 Q108.933,272.981 110.505,272.985 Q113.649,272.995 113.64,276.138 Q113.535,312.046 113.652,338.055 Q113.678,343.646 113.657,344.47 Q113.645,344.904 113.614,345.161 Q113.539,345.786 113.264,346.312 Q112.563,347.651 111.382,347.948 Q111.281,348.612 111.176,349.369 Q110.961,350.926 110.074,351.596 Q109.188,352.267 107.631,352.051 Q104.517,351.62 104.949,348.506 Z"/>
  <path fill="rgb(0.392157%, 3.137255%, 10.980392%)" opacity="0.995" d="M269.348,154.438 Q266.651,158.184 264.951,174.69 Q273.484,171.495 285.958,167.945 Q325.655,156.647 368.461,149.862 Q366.41,141.663 364.218,133.198 Q363.296,129.641 364.614,127.402 Q365.932,125.162 369.49,124.241 Q373.047,123.32 375.286,124.638 Q377.525,125.956 378.447,129.513 Q380.841,138.757 383.069,147.691 Q388.026,147.002 393.023,146.373 Q400.314,145.454 401.233,152.746 Q401.322,153.451 401.274,154.161 Q399.019,187.437 398.744,216.681 Q405.433,249.924 408.973,277.259 Q411.937,300.145 411.991,314.012 Q412.063,332.462 403.421,333.343 Q394.929,334.208 391.031,316.676 Q388.147,303.705 386.326,282.735 Q383.764,253.242 384.034,218.085 Q378.926,192.868 371.987,164.186 Q329.396,170.864 289.981,182.082 Q273.27,186.838 264.76,190.578 Q265.949,192.303 265.955,195 Q266.069,248.589 264.715,258.044 Q264.439,259.971 263.863,261.228 Q261.839,265.642 257.073,265.656 Q252.365,265.669 250.293,261.346 Q249.472,259.633 249.099,255.777 Q248.559,250.207 248.296,239.159 Q247.794,218.091 248.583,198.888 Q245.575,196.723 244.737,193.483 Q243.131,187.27 249.539,182.301 Q251.76,153.713 257.418,145.851 Q261.711,139.887 267.676,144.18 Q273.641,148.473 269.348,154.438 Z"/>
  <path fill="rgb(20.784314%, 1.568627%, 56.862745%)" opacity="0.491" d="M212.04,166.131 Q217.737,165.078 228.983,172.606 Q240.594,180.379 248.013,181.486 Q260.69,183.379 275.319,172.537 Q276.008,172.026 276.607,172.116 Q277.207,172.205 277.717,172.893 Q278.738,174.271 277.361,175.291 Q261.59,186.98 247.507,184.877 Q239.326,183.656 227.076,175.455 Q216.988,168.703 212.663,169.502 Q210.977,169.814 210.666,168.128 Q210.354,166.442 212.04,166.131 Z"/>
</svg>

