<svg xmlns="http://www.w3.org/2000/svg" width="384" height="384" viewBox="0 0 384 384">
  <defs/>
  <path fill="rgb(37.254902%, 23.921569%, 59.215686%)" opacity="0.477" d="M321.698,397.074 Q318.991,390.797 315.113,378.513 Q309.483,360.676 305.256,357.043 Q299.249,351.881 285.208,361.087 Q282.496,362.866 280.717,360.153 Q278.939,357.441 281.651,355.663 Q299.775,343.78 309.484,352.124 Q315.113,356.961 321.299,376.561 Q325.078,388.531 327.654,394.505 Q328.939,397.483 325.96,398.767 Q322.982,400.052 321.698,397.074 Z"/>
  <path fill="rgb(100%, 93.72549%, 0%)" d="M365.106,291.478 Q369.647,286.74 370.94,283.658 Q368.7,282.866 367.366,281.98 Q364.731,280.232 365.487,278.116 Q366.111,276.369 368.524,276.059 Q373.845,275.375 374.769,280.226 Q374.867,280.742 374.872,281.294 Q379.456,282.491 387.018,283.476 Q387.412,283.527 387.742,283.746 Q391.392,286.159 394.886,284.539 Q397.919,283.133 399.007,280.23 Q399.377,279.243 399.211,278.729 Q399.158,278.563 398.839,278.512 Q396.174,278.083 389.393,282.887 Q387.995,283.878 387.004,282.479 Q386.013,281.081 387.411,280.09 Q395.336,274.475 399.383,275.127 Q401.779,275.512 402.476,277.68 Q403.006,279.33 402.217,281.433 Q400.636,285.653 396.328,287.65 Q391.268,289.995 386.193,286.826 Q378.909,285.862 374.177,284.633 Q372.621,288.593 367.581,293.85 Q366.395,295.088 365.158,293.902 Q363.92,292.716 365.106,291.478 Z M371.062,280.055 Q370.64,279.498 369.766,279.431 Q370.332,279.749 371.062,280.055 Z"/>
  <path fill="rgb(18.431373%, 0%, 45.882353%)" opacity="0.995" d="M242.053,64.396 Q238.113,59.33 234.755,59.379 Q231.866,59.422 229.136,63.35 Q225.476,68.618 223.569,77.232 Q244.869,98.372 261.788,124.674 Q278.986,151.413 284.253,170.134 Q286.677,178.75 284.051,180.55 Q281.008,182.638 275.034,174.693 Q262.492,158.01 240.958,109.734 Q235.591,115.699 231.153,116.991 Q225.83,118.542 222.417,113.87 Q217.026,106.494 218.506,88.364 Q218.946,82.968 219.837,78.367 Q214.476,73.12 208.838,68.202 Q208.192,67.638 208.151,67.034 Q208.11,66.429 208.673,65.783 Q209.8,64.491 211.092,65.618 Q216.007,69.907 220.715,74.441 Q222.741,66.546 226.32,61.394 Q230.055,56.019 234.705,55.951 Q239.771,55.877 244.759,62.291 Q245.812,63.645 244.459,64.697 Q243.782,65.223 243.181,65.148 Q242.579,65.073 242.053,64.396 Z M222.795,81.308 Q222.241,84.75 221.923,88.643 Q220.547,105.501 225.185,111.847 Q227.18,114.577 230.194,113.7 Q234.343,112.491 240.096,105.472 Q240.639,104.809 241.243,104.749 Q241.846,104.689 242.509,105.233 Q242.824,105.491 242.989,105.864 Q265.148,155.838 277.775,172.633 Q280.143,175.782 281.709,177.032 Q282.016,177.277 282.247,177.417 Q282.413,176.255 280.952,171.062 Q275.825,152.835 258.904,126.529 Q242.844,101.56 222.795,81.308 Z"/>
  <path fill="rgb(1.176471%, 24.313725%, 10.980392%)" opacity="0.201" d="M-30.087,153.358 Q-16.043,153.174 4.76,150.503 Q4.773,150.501 4.786,150.5 Q6.994,136.629 26.073,133.071 Q43.508,129.82 68.233,138.324 Q77.315,141.448 74.191,150.53 Q72.63,155.071 69.578,156.561 Q66.527,158.05 61.986,156.488 Q57.473,154.936 53.343,153.854 Q62.913,157.933 72.888,165.234 Q76.763,168.071 77.282,171.426 Q77.801,174.782 74.965,178.657 Q72.238,182.383 67.625,182.58 Q39.61,183.778 22.476,175.953 Q15.745,172.879 11.535,169.029 Q9.445,169.268 7.205,169.555 Q-14.69,172.366 -29.835,172.564 Q-34.637,172.627 -37.069,170.258 Q-39.501,167.888 -39.564,163.087 Q-39.69,153.483 -30.087,153.358 Z"/>
  <path fill="rgb(50.196078%, 0%, 56.078431%)" opacity="0.652" d="M-15.748,122.024 Q31.24,125.194 37.778,133.848 Q39.845,136.584 37.989,139.419 Q36.532,141.646 32.433,143.625 Q24.548,147.432 7.51,150.331 Q5.82,150.618 5.533,148.928 Q5.389,148.083 5.74,147.589 Q6.09,147.094 6.935,146.951 Q23.495,144.133 30.942,140.538 Q34.184,138.972 35.121,137.542 Q35.655,136.726 35.042,135.914 Q29.448,128.51 -15.979,125.445 Q-17.689,125.329 -17.574,123.619 Q-17.516,122.764 -17.06,122.365 Q-16.603,121.966 -15.748,122.024 Z"/>
  <path fill="rgb(14.117647%, 0%, 100%)" d="M329.814,105.465 Q352.363,111.03 375.846,108.78 Q382.611,108.132 387.815,107.119 Q384.279,102.551 381.052,98.745 Q361.503,98.272 328.608,101.774 Q326.944,101.951 326.023,101.208 Q325.103,100.464 324.925,98.8 Q324.81,97.712 325.358,96.767 Q343.364,65.706 363.656,74.666 Q371.994,78.348 384.142,92.153 Q390.17,92.399 394.888,93.045 Q404.31,94.336 407.505,97.374 Q410.002,99.748 409.278,102.825 Q408.735,105.136 406.26,107.086 Q403.493,109.265 399.052,110.939 Q401.876,114.793 404.848,119.042 Q406.767,121.785 404.024,123.704 Q401.281,125.623 399.363,122.88 Q395.675,117.608 392.249,112.98 Q385.568,114.574 376.484,115.445 Q351.866,117.803 328.21,111.965 Q326.585,111.564 325.973,110.551 Q325.361,109.538 325.762,107.913 Q326.564,104.663 329.814,105.465 Z M375.015,92.005 Q366.743,83.348 360.952,80.791 Q347.911,75.032 334.721,94.419 Q358.545,92.088 375.015,92.005 Z M394.878,105.35 Q399.563,103.838 402.117,101.827 Q402.174,101.781 402.223,101.743 Q400.093,100.516 393.979,99.678 Q392.144,99.427 390.093,99.239 Q392.425,102.133 394.878,105.35 Z"/>
  <path fill="rgb(42.745098%, 20%, 24.313725%)" opacity="0.863" d="M234.248,49.136 Q230.122,51.05 225.194,53.107 Q228.589,55.16 231.02,58.697 Q235.537,65.267 234.086,73.106 Q232.634,80.945 226.065,85.462 Q219.495,89.979 211.656,88.527 Q187.71,84.093 176.539,81.142 Q158.97,76.499 153.216,68.448 Q148.49,61.835 149.387,53.883 Q150.129,47.307 154.633,42.152 Q158.217,38.051 164.577,34.955 Q169.268,32.67 183.092,27.854 Q205.405,20.081 218.049,14.216 Q225.281,10.861 232.767,13.602 Q240.253,16.344 243.608,23.576 Q246.963,30.808 244.222,38.295 Q241.48,45.781 234.248,49.136 Z"/>
  <path fill="rgb(7.058824%, 86.27451%, 94.117647%)" opacity="0.004" d="M127.756,20.009 Q119.762,4.817 114.579,-18.284 Q112.519,-27.467 110.245,-32.244 Q110.387,-30.873 110.55,-29.327 Q112.046,-15.132 111.069,-12.733 Q109.847,-9.731 106.517,-11 Q105.164,-11.516 102.809,-13.233 Q99.974,-8.796 88.854,-7.187 Q82.143,-6.216 80.22,-5.094 Q78.739,-4.23 77.875,-5.71 Q77.443,-6.45 77.597,-7.037 Q77.751,-7.623 78.491,-8.055 Q80.991,-9.514 88.363,-10.58 Q99.831,-12.239 100.326,-16.197 Q100.386,-16.673 100.683,-17.049 Q101.216,-17.721 101.818,-17.791 Q102.42,-17.86 103.092,-17.328 Q106.386,-14.72 107.738,-14.204 L107.894,-14.026 Q108.547,-15.628 107.141,-28.968 Q106.542,-34.652 106.216,-38.027 Q106.155,-38.653 106.514,-39.169 Q107.491,-40.577 108.9,-39.6 Q114.125,-35.972 117.925,-19.035 Q123.008,3.622 130.791,18.413 Q131.589,19.93 130.072,20.728 Q129.313,21.127 128.734,20.947 Q128.156,20.768 127.756,20.009 Z"/>
  <path fill="rgb(29.803922%, 10.196078%, 58.431373%)" opacity="0.333" d="M101.71,360.468 Q88.912,338.728 74.515,328.475 Q73.194,327.534 71.635,326.576 Q69.492,330.092 64.8,329.698 Q56.217,328.975 39.334,312.577 Q16.392,303.735 0.658,293.248 Q-0.155,292.706 -0.291,292.028 Q-0.426,291.35 0.116,290.537 Q0.405,290.104 0.871,289.871 Q17.211,281.734 26.844,285.566 Q34.665,288.678 35.888,297.638 Q36.374,301.201 35.887,303.563 Q38.758,306.576 41.398,309.182 Q44.19,310.25 47.092,311.295 Q60.671,316.184 69.369,320.794 Q69.943,315.628 67.708,306.285 Q62.547,284.713 46.051,252.375 Q28.553,218.07 6.514,188.232 Q5.933,187.445 6.036,186.762 Q6.138,186.079 6.925,185.498 Q8.497,184.337 9.658,185.909 Q31.889,216.007 49.534,250.598 Q66.24,283.35 71.51,305.376 Q74.185,316.557 73.051,322.601 Q73.029,322.72 73.005,322.837 Q75.075,324.074 76.783,325.291 Q91.859,336.026 105.079,358.485 Q105.575,359.327 105.402,359.996 Q105.228,360.665 104.386,361.161 Q102.702,362.153 101.71,360.468 Z M32.178,299.603 Q32.119,298.933 32.014,298.167 Q31.1,291.467 25.399,289.199 Q18.263,286.36 5.755,291.892 Q14.589,297.455 25.594,302.544 Q24.38,299.682 23.38,295.328 Q22.942,293.423 24.848,292.986 Q25.978,292.726 26.747,293.594 Q29.55,296.753 32.178,299.603 Z M68.143,324.569 Q60.563,320.473 48.807,316.087 Q59.44,325.323 65.128,325.802 Q67.072,325.966 68.143,324.569 Z"/>
  <path fill="rgb(7.843137%, 0.784314%, 26.666667%)" d="M142.245,134.707 Q143.414,137.062 144.176,138.58 Q144.67,139.155 145.15,139.791 Q146.509,141.596 147.336,143.375 Q148.238,145.319 148.336,147.192 Q148.475,149.857 147.158,152.16 Q144.141,157.434 138.121,156.6 Q136.602,156.39 135.289,155.727 Q132.335,160.147 125.852,158.368 Q117.211,155.997 119.581,147.356 Q121.47,140.471 124.921,136.951 Q125.388,133.071 130.235,130.665 Q138.261,126.681 142.245,134.707 Z"/>
  <path fill="rgb(82.352941%, 52.54902%, 83.137255%)" opacity="0.092" d="M102.755,143.642 Q107.609,145.986 111.127,148.417 Q115.916,151.724 117.308,155.187 Q119.183,159.85 116.103,163.556 Q113.676,166.476 109.604,166.547 Q103.721,166.649 97.731,161.408 Q95.346,167.601 92.042,173.992 Q80.265,196.771 62.059,212.347 Q56.493,217.109 51.731,211.543 Q49.35,208.76 49.551,206.178 Q49.752,203.596 52.535,201.215 Q68.566,187.5 79.029,167.264 Q83.024,159.536 85.46,152.259 Q62.27,144.002 17.132,136.578 Q4.489,144.312 -6.419,144.016 Q-21.666,143.602 -23.53,130.53 Q-25.094,119.568 -12.958,106.827 Q-0.705,93.963 23.334,81.874 Q24.515,81.28 25.829,81.137 Q64.153,76.944 84.449,90.837 Q103.306,103.745 103.9,128.967 Q104.07,136.144 102.755,143.642 Z M88.794,138.005 Q89.355,133.563 89.255,129.312 Q88.837,111.594 76.174,102.926 Q60.671,92.314 28.733,95.561 Q7.862,106.21 -2.35,116.931 Q-9.588,124.53 -9.027,128.461 Q-8.909,129.293 -6.021,129.371 Q1.306,129.57 11.497,122.798 Q13.886,121.21 16.719,121.667 Q63.158,129.17 88.794,138.005 Z"/>
  <path fill="rgb(7.45098%, 0%, 36.078431%)" opacity="0.807" d="M200.193,324.728 Q227.926,327.105 253.888,318.342 Q258.22,316.88 262.317,318.91 Q266.414,320.939 267.876,325.271 Q269.338,329.603 267.309,333.7 Q265.28,337.797 260.948,339.259 Q225.523,351.216 187.457,345.433 Q158.482,341.031 138.247,329.007 Q128.45,323.186 125.607,317.487 Q123.691,313.647 124.348,309.648 Q125.269,304.041 130.243,301.137 Q134.485,298.66 140.857,299.437 Q157.307,301.442 199.066,324.038 Q199.659,324.359 200.193,324.728 Z"/>
  <path fill="rgb(56.862745%, 7.45098%, 80.392157%)" opacity="0.464" d="M283.259,100.299 Q339.448,91.409 344.111,87.442 L344.288,87.343 Q343.587,86.482 340.691,85.237 Q336.553,83.459 321.176,78.899 Q303.867,73.766 293.71,70.315 Q292.899,70.039 292.631,69.495 Q292.363,68.951 292.639,68.14 Q293.19,66.517 294.813,67.068 Q304.906,70.498 322.151,75.612 Q337.721,80.23 342.044,82.087 Q345.714,83.664 346.947,85.178 Q349.041,87.75 346.333,90.054 Q340.936,94.645 283.795,103.685 Q282.949,103.819 282.458,103.463 Q281.968,103.107 281.834,102.26 Q281.566,100.567 283.259,100.299 Z"/>
  <path fill="rgb(61.176471%, 74.901961%, 71.764706%)" opacity="0.022" d="M300.995,82.734 Q311.877,65.157 328.792,49.865 Q329.549,49.181 330.269,49.218 Q330.99,49.254 331.674,50.011 Q333.042,51.524 331.528,52.892 Q318.341,64.814 308.932,78.138 Q312.595,74.677 316.54,70.606 Q318.988,68.08 319.776,67.391 Q320.568,66.7 321.167,66.437 Q323.16,65.564 324.198,67.347 Q324.962,68.66 322.647,77.154 Q313.825,109.525 307.767,148.47 Q308.593,151.151 308.812,152.546 Q309.254,155.36 308.442,157.026 Q307.336,159.295 304.459,159.425 Q304.267,159.434 304.076,159.406 Q302.056,159.115 302.348,157.095 Q302.954,152.899 303.591,148.775 Q302.723,146.078 301.255,142.07 Q295.035,125.084 293.595,114.948 Q293.348,113.205 293.192,111.506 Q293.01,111.882 292.834,112.22 Q292.027,113.77 291.311,114.252 Q290.536,114.773 289.652,114.594 Q288.552,114.37 288.106,113.318 Q287.853,112.721 287.928,111.881 Q288.094,110.047 289.674,105.802 Q291.588,100.66 293.943,95.684 Q295.282,89.221 298.396,83.618 Q298.892,82.727 299.586,82.529 Q300.21,82.35 300.995,82.734 Z M297.25,101.073 Q296.631,107.308 297.635,114.375 Q298.999,123.972 304.947,140.283 Q310.692,105.501 318.71,76.081 Q319.105,74.632 319.403,73.516 Q312.017,81.133 305.572,86.669 Q304.798,87.334 304.078,87.279 Q303.637,87.245 303.217,86.942 Q301.427,89.955 299.818,93.036 Q298.456,97.5 297.25,101.073 Z"/>
  <path fill="rgb(57.647059%, 56.470588%, 57.254902%)" opacity="0.453" d="M233.251,344.02 Q248.245,351.763 266.677,357.429 Q276.93,360.115 288.444,362.993 Q291.295,363.705 292.683,364.053 Q298.686,365.556 301.972,370.8 Q305.258,376.044 303.993,382.102 Q302.692,388.334 297.366,391.82 Q292.039,395.306 285.808,394.005 Q271.375,390.992 258.328,387.016 Q228.076,379.078 208.347,372.7 Q160.87,357.352 128.737,338.774 Q123.226,335.587 121.582,329.437 Q119.938,323.287 123.125,317.776 Q128.185,309.025 138.224,310.205 Q149.19,311.494 161.306,313.143 Q152.228,305.978 144.08,299.045 Q139.232,294.92 138.72,288.575 Q138.209,282.229 142.334,277.381 Q146.459,272.532 152.804,272.021 Q159.149,271.509 163.998,275.635 Q184.278,292.889 210.827,311.821 Q215.08,314.853 217.862,316.909 Q220.476,316.718 223.313,316.662 Q229.678,316.536 234.267,320.947 Q238.857,325.359 238.983,331.723 Q239.109,338.088 234.697,342.677 Q233.998,343.405 233.251,344.02 Z"/>
  <path fill="rgb(7.058824%, 2.352941%, 26.27451%)" opacity="0.75" d="M67.535,147.757 Q73.286,149.756 76.242,151.708 Q79.139,153.62 80.243,156.05 Q82.154,160.26 79.191,163.823 Q75.042,168.811 61.238,168.405 Q47,167.987 43.205,161.969 Q39.259,155.71 46.086,149.944 Q50.11,146.545 59.356,142.923 Q62.133,141.836 64.065,142.681 Q65.997,143.525 67.084,146.302 Q67.382,147.061 67.535,147.757 Z"/>
  <path fill="rgb(96.862745%, 0%, 17.254902%)" d="M147.53,91.972 Q147.399,92.018 147.228,92.081 Q143.946,93.287 139.38,96.822 Q122.807,109.651 103.031,142.486 Q102.033,144.144 100.704,144.474 Q99.376,144.803 97.717,143.805 Q94.401,141.807 96.398,138.491 Q116.922,104.415 134.64,90.699 Q140.152,86.433 144.557,84.813 Q146.167,84.222 147.272,84.124 Q147.902,84.069 148.469,84.177 Q150.458,84.556 151.291,86.388 Q152.635,89.346 149.952,91.193 Q149.149,91.746 147.976,91.92 Q147.747,91.954 147.53,91.972 Z"/>
  <path fill="rgb(84.313725%, 58.039216%, 99.215686%)" opacity="0.441" d="M112.871,177.559 Q110.175,176.471 107.778,175.403 Q107.523,175.468 107.249,175.521 Q105.618,175.837 104.137,175.086 Q97.935,171.94 92.906,167.236 Q89.285,163.848 83.798,162.551 Q74.004,160.236 44.681,158.322 Q39.847,158.007 40.162,153.173 Q40.356,150.212 43.081,149.039 Q48.446,146.73 63.388,145.153 Q64.166,141.473 68.403,141.765 Q84.026,142.842 85.782,143.956 Q87.707,145.176 88.033,147.405 Q88.452,150.265 86.134,152.024 Q85.476,152.523 84.63,152.813 Q85.366,152.967 86.026,153.123 Q88.567,153.723 90.857,154.653 Q91.424,154.264 92.128,153.938 Q97.175,151.602 103.414,156.551 Q107.906,160.114 109.965,165.76 Q112.911,167.128 116.496,168.574 Q120.988,170.387 119.176,174.879 Q117.364,179.371 112.871,177.559 Z"/>
  <path fill="rgb(26.27451%, 4.705882%, 100%)" opacity="0.833" d="M280.712,262.368 Q288.401,218.018 299.726,191.154 Q306.747,174.501 320.279,155.525 Q323.105,151.563 327.068,154.389 Q329.05,155.802 329.334,157.499 Q329.618,159.196 328.205,161.178 Q315.299,179.276 308.697,194.936 Q297.803,220.776 290.304,264.031 Q289.472,268.827 284.676,267.995 Q279.881,267.164 280.712,262.368 Z"/>
  <path fill="rgb(3.921569%, 0%, 25.490196%)" d="M159.95,40.766 Q159.505,39.743 159.416,38.477 Q157.74,14.682 179.099,4.647 Q197.836,-4.156 219.281,4.009 Q242.617,12.895 249.622,36.004 Q257.642,62.462 239.125,98.158 Q237.451,101.384 233.825,101.629 Q200.019,103.905 183.105,94.156 Q157.803,79.572 159.95,40.766 Z M177.278,60.78 Q175.904,53.502 175.543,48.242 Q174.19,47.99 172.719,47.582 Q173.055,73.451 189.557,82.963 Q202.227,90.266 229.297,88.951 Q243.409,60.045 237.258,39.751 Q232.093,22.712 214.683,16.083 Q198.365,9.869 184.592,16.34 Q177.826,19.518 174.762,24.932 Q174.761,25.755 174.599,26.691 Q173.916,30.622 173.48,34.303 Q175.856,35.22 177.519,35.563 Q178.225,34.562 179.173,33.855 Q182.527,31.352 186.256,33.112 Q189.027,34.421 189.965,37.426 Q191.203,41.391 188.525,44.825 Q188.415,44.965 188.302,45.1 Q188.331,49.688 189.972,58.384 Q190.571,61.558 189.284,63.444 Q187.997,65.33 184.823,65.929 Q178.476,67.127 177.278,60.78 Z"/>
  <path fill="rgb(15.294118%, 1.960784%, 38.823529%)" opacity="0.327" d="M223.588,167.551 Q203.299,166.565 186.644,159.701 Q177.681,161.943 169.333,165.37 Q155.044,173.963 137.706,184.268 Q131.458,187.982 126.885,182.333 Q124.242,179.068 124.553,176.114 Q124.864,173.16 128.128,170.517 Q143.718,157.898 161.83,150.276 Q163.897,149.032 165.904,147.822 Q155.466,139.82 149.024,129.557 Q145.378,123.749 144.178,118.858 Q141.437,107.683 150.548,105.061 Q159.897,102.37 170.979,121.37 Q182.316,126.045 194.206,130.577 Q205.007,123.901 212.234,119.235 Q217.702,115.704 221.454,116.511 Q225.536,117.351 227.167,119.814 Q228.807,122.29 227.971,126.407 Q227.135,130.523 224.659,132.163 Q223.345,133.033 221.57,133.206 Q221.481,133.264 221.348,133.35 Q217.962,135.536 213.808,138.154 Q217.508,139.882 218.579,141.101 Q221.033,143.894 220.733,147.543 Q220.602,149.139 219.996,150.471 Q222.172,150.661 224.404,150.769 Q232.795,151.177 232.387,159.568 Q232.183,163.764 229.983,165.759 Q227.784,167.755 223.588,167.551 Z"/>
  <path fill="rgb(99.607843%, 100%, 77.647059%)" opacity="0.245" d="M63.655,327.791 Q74.224,293.931 77.637,280.17 Q79.286,273.52 79.851,269.713 Q78.816,269.546 77.937,268.771 Q76.473,267.482 76.386,266.105 Q76.299,264.729 77.588,263.265 Q80.955,259.442 84.134,260.226 Q84.968,260.432 85.62,260.848 Q97.792,258.788 106.565,260.512 Q103.21,249.661 101.207,232.411 Q100.756,228.536 104.632,228.085 Q106.57,227.86 107.651,228.717 Q108.733,229.573 108.958,231.511 Q111.511,253.502 116.158,264.037 Q120.866,266.907 121.08,271.005 Q121.164,272.596 120.264,273.828 Q118.983,275.581 116.791,275.537 Q114.935,275.5 113.267,273.94 Q111.764,272.534 110.303,269.833 Q109.349,269.373 108.188,268.986 Q100.407,266.388 87.854,268.385 Q87.444,273.045 85.211,282.049 Q81.742,296.035 71.103,330.116 Q70.522,331.978 69.3,332.618 Q68.078,333.259 66.216,332.677 Q62.492,331.515 63.655,327.791 Z"/>
  <path fill="rgb(28.235294%, 13.333333%, 98.431373%)" opacity="0.53" d="M328.461,207.389 Q328.09,226.654 331.699,252.05 Q332.275,256.097 328.228,256.672 Q326.204,256.96 325.049,256.092 Q323.893,255.224 323.605,253.2 Q322.512,245.508 321.775,238.345 Q283.995,236.755 284.46,224.401 Q284.817,214.928 307.997,205.608 Q314.562,202.968 320.509,201.136 Q320.783,196.053 321.348,191.403 Q324.016,169.463 332.127,163.755 Q337.418,160.031 342.5,163.862 Q346.305,166.73 348.465,173.667 Q351.543,183.55 350.817,198.255 Q353.347,199.442 354.326,201.747 Q356.642,207.2 348.086,214.938 Q345.054,217.68 342.312,214.648 Q341.023,213.223 341.298,211.321 Q341.754,208.17 342.07,205.214 Q335.923,205.511 328.461,207.389 Z M321.034,230.13 Q320.2,219.301 320.258,209.798 Q315.845,211.264 311.047,213.193 Q292.787,220.535 292.63,224.708 L292.935,224.899 Q294.176,225.983 297.295,226.97 Q304.957,229.394 321.034,230.13 Z M342.698,197.008 Q343.236,184.369 340.66,176.098 Q339.282,171.674 337.579,170.39 Q337.253,170.145 336.832,170.441 Q331.693,174.057 329.464,192.39 Q329.081,195.536 328.84,198.898 Q336.303,197.21 342.629,197.01 Q342.663,197.009 342.698,197.008 Z"/>
  <path fill="rgb(42.745098%, 6.27451%, 26.27451%)" opacity="0.348" d="M26.969,381.73 Q27.752,390.885 29.658,405.28 Q33.332,433.035 31.274,439.147 Q29.735,443.718 25.957,446.25 Q20.129,450.154 13.578,447.358 Q9.298,445.53 5.655,440.208 Q1.575,434.247 -5.419,418.873 Q-7.502,414.294 -5.737,409.583 Q-3.972,404.871 0.607,402.788 Q2.645,401.861 4.708,401.696 Q1.481,375.558 2.354,366.264 Q4.094,347.735 18.541,347.948 Q28.239,348.091 38.924,362.568 Q41.912,366.616 41.163,371.591 Q40.413,376.566 36.365,379.553 Q32.318,382.541 27.343,381.792 Q27.154,381.763 26.969,381.73 Z"/>
  <path fill="rgb(5.882353%, 0%, 21.176471%)" opacity="0.293" d="M241.763,334.009 Q249.072,334.581 251.095,336.641 Q253.895,339.491 252.166,343.104 Q251.403,344.701 249.613,345.958 Q247.646,347.339 243.181,349.126 Q238.395,351.041 236.48,346.255 Q235.925,344.868 235.932,343.723 Q234.203,343.425 233.291,343.038 Q231.458,342.261 230.442,340.781 Q228.614,338.116 229.978,335.143 Q231.005,332.905 234.342,331.079 Q238.865,328.605 241.339,333.128 Q241.586,333.579 241.763,334.009 Z"/>
  <path fill="rgb(45.490196%, 4.705882%, 63.137255%)" opacity="0.309" d="M339.576,32.726 Q309.831,32.015 288.009,19.962 Q275.676,13.15 261.516,-1.116 Q251.822,-10.883 248.558,-8.853 Q247.83,-8.4 247.24,-8.538 Q246.649,-8.675 246.197,-9.403 Q245.291,-10.859 246.747,-11.764 Q250.669,-14.204 255.315,-11.268 Q257.879,-9.647 263.949,-3.532 Q277.763,10.386 289.667,16.961 Q310.753,28.608 339.658,29.298 Q341.372,29.339 341.331,31.053 Q341.311,31.91 340.872,32.328 Q340.433,32.746 339.576,32.726 Z"/>
  <path fill="rgb(34.509804%, 17.647059%, 45.490196%)" opacity="0.369" d="M64.783,115.578 Q81.592,120.081 86.958,119.212 Q90.385,118.657 94.322,113.189 Q102.171,102.287 115.35,94.186 Q95.919,94.689 72.656,89.813 Q61.51,87.477 57.367,87.522 Q51.309,87.588 47.56,91.388 Q47.176,91.777 46.637,91.872 Q30.752,94.666 25.818,93.295 Q21.716,92.154 21.281,86.652 Q20.874,81.506 17.239,78.98 Q10.112,74.028 -10.973,72.051 Q-12.679,71.891 -12.519,70.184 Q-12.439,69.33 -11.973,68.944 Q-11.506,68.557 -10.652,68.637 Q11.328,70.698 19.195,76.165 Q24.164,79.617 24.699,86.382 Q24.945,89.493 26.737,89.992 Q30.85,91.135 45.52,88.587 Q50.172,84.171 57.329,84.094 Q61.847,84.045 73.36,86.458 Q100.629,92.173 122.433,90.374 Q123.573,90.28 124.097,91.295 Q124.491,92.057 124.307,92.634 Q124.122,93.212 123.361,93.605 Q106.305,102.414 97.104,115.192 Q92.336,121.814 87.506,122.596 Q81.415,123.583 63.896,118.89 Q62.24,118.447 62.684,116.791 Q62.906,115.963 63.431,115.66 Q63.955,115.357 64.783,115.578 Z"/>
  <path fill="rgb(61.176471%, 22.745098%, 93.333333%)" opacity="0.347" d="M114.751,48.331 Q94.079,47.778 87.492,50.316 Q84.532,51.457 84.449,54.329 Q84.284,60.002 76.333,60.284 Q66.116,60.648 31.774,54.705 Q30.085,54.413 30.377,52.723 Q30.523,51.879 31.019,51.529 Q31.514,51.18 32.359,51.326 Q66.35,57.209 76.212,56.858 Q79.825,56.73 80.682,55.92 Q80.981,55.637 81.021,54.229 Q81.171,49.077 86.26,47.117 Q93.485,44.333 114.843,44.904 Q115.7,44.926 116.117,45.366 Q116.533,45.806 116.511,46.663 Q116.465,48.377 114.751,48.331 Z"/>
  <path fill="rgb(34.117647%, 0%, 69.411765%)" opacity="0.815" d="M235.888,383.829 Q254.453,378.994 269.448,378.69 Q278.523,378.506 293.707,380.472 Q313.612,383.049 327.769,382.036 Q351.679,380.326 386.456,369.596 Q388.094,369.091 388.599,370.729 Q389.105,372.367 387.466,372.873 Q352.315,383.718 328.014,385.456 Q313.512,386.494 293.267,383.872 Q278.336,381.939 269.518,382.118 Q254.926,382.414 236.752,387.147 Q235.093,387.579 234.661,385.92 Q234.229,384.261 235.888,383.829 Z"/>
  <path fill="rgb(2.352941%, 7.058824%, 94.117647%)" opacity="0.996" d="M159.089,85.413 Q166.472,99.357 175.868,105.696 Q181.281,109.347 191.032,111.89 Q198.914,113.945 201.849,116.398 Q206.589,120.359 207.56,129.49 Q209.553,148.229 195.526,211.92 Q195.157,213.594 193.483,213.225 Q192.646,213.041 192.319,212.53 Q191.993,212.019 192.177,211.182 Q206.085,148.036 204.151,129.853 Q203.326,122.1 199.651,119.029 Q197.305,117.069 190.167,115.208 Q179.849,112.517 173.95,108.538 Q163.843,101.72 156.059,87.017 Q155.257,85.502 156.772,84.7 Q157.53,84.299 158.109,84.477 Q158.688,84.655 159.089,85.413 Z"/>
  <path fill="rgb(100%, 100%, 0%)" d="M82.92,-22.785 Q68.623,-9.226 62.572,1.643 Q60.041,6.19 59.531,8.347 Q59.545,8.503 59.554,8.654 Q59.62,9.677 59.497,10.358 Q59.202,11.983 57.771,12.573 Q55.278,13.601 54.163,11.131 Q53.984,10.734 53.922,10.276 Q53.809,9.43 53.956,8.363 Q53.752,6.816 53.029,4.679 Q52.654,3.569 52.177,2.414 Q52.039,2.541 51.89,2.655 Q47.983,5.651 41.742,-2.11 Q40.004,-4.271 42.165,-6.008 Q43.245,-6.877 44.22,-6.771 Q45.194,-6.666 46.063,-5.585 Q47.312,-4.032 48.269,-3.122 Q48.206,-4.09 47.962,-5.328 Q47.916,-5.562 47.867,-5.794 Q44.713,-10.841 40.041,-16.558 Q38.286,-18.705 40.433,-20.459 Q40.818,-20.774 41.288,-20.935 Q45.902,-22.518 49.714,-16.228 Q51.953,-12.534 53.072,-7.909 Q55.579,-3.785 57.166,-0.026 Q57.436,-0.531 57.727,-1.054 Q64.191,-12.666 79.104,-26.809 Q80.11,-27.763 81.09,-27.737 Q82.069,-27.711 83.023,-26.705 Q84.931,-24.693 82.92,-22.785 Z"/>
  <path fill="rgb(0%, 0%, 100%)" d="M176.804,58.416 Q186.948,71.109 185.092,75.284 Q183.536,78.785 172.004,78.369 Q146.575,77.453 132.17,87.161 Q105.802,104.93 97.367,159.099 Q97.177,160.322 96.47,160.838 Q95.764,161.354 94.541,161.164 Q92.096,160.783 92.477,158.338 Q101.244,102.034 129.405,83.056 Q145.144,72.449 172.183,73.423 Q180.372,73.718 180.57,73.274 Q181.204,71.848 172.938,61.506 Q171.393,59.573 173.326,58.028 Q174.293,57.255 175.162,57.352 Q176.032,57.449 176.804,58.416 Z"/>
  <path fill="rgb(100%, 87.45098%, 0%)" d="M113.314,281.541 Q113.998,272.051 109.576,270.464 Q107.012,269.544 101.446,271.213 Q99.67,271.745 99.07,271.719 Q98.328,271.686 97.818,271.218 Q97.055,270.518 97.263,269.477 Q97.387,268.861 98.009,268.11 Q99.025,266.886 107.329,259.225 Q110.514,256.287 112.433,254.511 Q113.692,253.347 114.856,254.605 Q115.438,255.234 115.415,255.84 Q115.391,256.446 114.762,257.028 Q112.826,258.819 109.654,261.745 Q106.097,265.027 103.928,267.074 Q108.117,266.298 110.734,267.237 Q117.604,269.703 116.733,281.787 Q116.61,283.497 114.9,283.374 Q114.045,283.312 113.649,282.854 Q113.252,282.396 113.314,281.541 Z"/>
  <path fill="rgb(16.078431%, 0.784314%, 100%)" d="M386.654,90.761 Q396.074,84.823 401.044,85.612 Q407.429,86.627 407.641,93.136 Q407.731,95.91 406.033,99.334 Q400.585,110.318 384.911,122.511 Q366.12,137.131 350.574,136.615 Q328.826,135.893 322.138,107.334 Q321.406,104.211 322.602,102.284 Q323.798,100.357 326.92,99.626 Q333.166,98.163 334.628,104.408 Q339.075,123.397 351,123.793 Q361.906,124.155 377.034,112.386 Q383.616,107.266 387.961,102.639 Q386.119,101.942 384.648,99.608 Q382.938,96.895 383.439,94.683 Q383.941,92.472 386.654,90.761 Z"/>
  <path fill="rgb(98.431373%, 78.823529%, 33.72549%)" d="M229.729,135.064 Q267.567,113.4 258.266,95.266 Q254.926,88.756 246.363,84.071 Q238.937,80.007 233.729,80.012 Q232.364,80.013 231.68,79.331 Q230.997,78.649 230.996,77.284 Q230.993,74.553 233.724,74.55 Q240.331,74.545 248.985,79.28 Q259.02,84.77 263.125,92.774 Q274.806,115.548 232.443,139.803 Q230.073,141.16 228.716,138.79 Q228.038,137.606 228.291,136.674 Q228.544,135.742 229.729,135.064 Z"/>
  <path fill="rgb(67.45098%, 91.764706%, 46.666667%)" opacity="0.127" d="M292.847,69.447 Q293.259,70.369 296.594,71.366 Q302.072,73.002 308.696,71.627 Q324.968,68.251 327.884,51.866 Q328.695,47.309 332.492,44.66 Q334.807,43.044 337.407,42.715 Q333.632,33.81 324.48,22.946 Q321.498,19.405 321.893,14.793 Q322.288,10.181 325.828,7.199 Q329.368,4.217 333.98,4.612 Q338.592,5.006 341.575,8.547 Q356.355,26.094 360.601,41.446 Q364.7,56.263 358.837,66.383 Q355.593,71.983 350.169,74.362 Q345.844,76.259 341.64,75.645 Q339.176,79.006 336.054,81.915 Q326.578,90.743 313.237,93.511 Q301.085,96.033 290.198,92.781 Q277.04,88.851 272.443,78.569 Q270.553,74.343 272.205,70.019 Q273.858,65.695 278.083,63.806 Q282.309,61.917 286.633,63.569 Q290.957,65.221 292.847,69.447 Z"/>
  <path fill="rgb(80%, 100%, 74.509804%)" opacity="0.031" d="M314.45,31.09 Q313.95,32.593 314.846,33.387 Q316.058,34.46 319.11,34.744 Q326.282,35.413 335.633,31.834 Q336.464,31.516 337.039,31.772 Q337.583,32.015 337.897,32.772 Q340.105,31.281 342.04,30.556 Q343.539,29.995 344.255,31.426 Q347.555,38.012 343.986,41.926 Q341.111,45.076 335.946,44.674 Q333.018,44.445 331.371,43.278 Q320.763,54.685 305.274,79.14 Q303.335,82.2 302.624,83.292 Q301.652,84.783 300.161,83.811 Q299.416,83.326 299.286,82.71 Q299.156,82.094 299.642,81.349 Q300.342,80.274 302.267,77.235 Q318.215,52.056 329.412,40.263 Q329.116,38.829 329.76,37.38 Q323.843,38.76 318.78,38.288 Q314.57,37.895 312.487,36.052 Q309.83,33.7 311.073,29.965 Q311.354,29.121 311.917,28.839 Q312.48,28.558 313.324,28.839 Q315.012,29.401 314.45,31.09 Z M333.936,40.641 Q334.761,41.011 336.223,41.125 Q339.654,41.393 341.356,39.527 Q342.92,37.813 341.751,34.579 Q338.31,36.362 333.936,40.641 Z"/>
  <path fill="rgb(99.607843%, 40.392157%, 100%)" opacity="0.138" d="M-41.056,193.882 Q-33.127,152.591 -17.586,131.315 Q-2.57,110.759 13.563,115.624 Q29.385,120.395 36.452,147.474 Q43.974,176.298 38.323,220.499 Q37.957,223.361 35.095,222.995 Q33.664,222.812 33.04,222.005 Q32.416,221.198 32.599,219.767 Q38.108,176.674 30.869,148.932 Q24.619,124.985 11.897,121.149 Q-0.322,117.465 -12.926,134.719 Q-27.704,154.95 -35.389,194.97 Q-35.933,197.803 -38.767,197.259 Q-40.184,196.987 -40.756,196.143 Q-41.328,195.298 -41.056,193.882 Z"/>
  <path fill="rgb(29.803922%, 1.568627%, 82.745098%)" opacity="0.937" d="M235.261,410.28 Q195.01,400.551 170.318,389.117 Q156.403,382.672 143.637,373.181 Q138.187,369.129 135.808,368.179 Q132.373,366.807 127.466,367.625 Q119.824,368.899 82.693,383.829 Q62.135,392.096 48.305,397.555 Q55.903,434.354 64.95,452.136 Q74.106,470.135 87.224,473.565 Q99.662,476.818 120.099,468.02 Q136.506,460.957 168.611,440.874 Q176.845,431.907 190.57,427.854 Q196.852,425.999 196.86,423.647 Q196.863,422.789 197.293,422.362 Q197.723,421.935 198.58,421.938 Q200.294,421.944 200.289,423.658 Q200.272,428.564 191.542,431.142 Q178.603,434.963 170.988,443.355 Q170.829,443.531 170.628,443.656 Q138.154,463.981 121.455,471.169 Q99.935,480.433 86.356,476.882 Q71.748,473.062 61.894,453.691 Q52.464,435.155 44.656,396.831 Q44.369,395.421 45.707,394.893 Q59.858,389.317 81.414,380.648 Q118.892,365.578 126.902,364.243 Q132.755,363.268 137.08,364.995 Q139.874,366.11 145.683,370.429 Q158.165,379.71 171.759,386.006 Q196.144,397.299 236.067,406.947 Q237.733,407.35 237.33,409.016 Q236.928,410.682 235.261,410.28 Z"/>
</svg>

