<svg xmlns="http://www.w3.org/2000/svg" width="384" height="384" viewBox="0 0 384 384">
  <defs/>
  <path fill="rgb(99.607843%, 100%, 100%)" opacity="0.417" d="M176.948,198.188 Q180.797,203.301 192.014,204.252 Q194.278,204.444 196.464,204.447 Q200.282,187.966 204.969,175.701 Q205.014,175.582 205.076,175.472 Q205.917,173.978 207.411,174.819 Q223.969,184.135 224.273,192.846 Q224.543,200.615 213.203,204.925 Q206.622,207.426 199.216,207.807 Q197.014,217.681 195.111,229.043 Q190.563,256.199 183.969,263.706 Q173.904,275.164 145.688,271.804 Q144.837,271.703 144.462,271.226 Q144.087,270.75 144.188,269.899 Q144.269,269.218 144.797,268.781 Q150.126,264.368 152.13,256.028 Q153.344,250.979 153.741,240.5 Q154.258,226.869 157.571,223.607 Q158.181,223.005 158.787,223.01 Q159.393,223.015 159.995,223.625 Q161.198,224.847 159.976,226.05 Q157.632,228.358 157.167,240.63 Q156.757,251.449 155.464,256.829 Q153.725,264.063 149.68,268.773 Q173.135,270.844 181.394,261.443 Q187.343,254.67 191.73,228.477 Q193.57,217.491 195.691,207.869 Q193.735,207.839 191.724,207.668 Q178.98,206.587 174.209,200.25 Q173.178,198.88 174.547,197.849 Q175.917,196.818 176.948,198.188 Z M200.013,204.322 Q206.344,203.864 211.985,201.72 Q221.031,198.282 220.846,192.966 Q220.624,186.587 207.467,178.808 Q203.403,189.885 200.013,204.322 Z"/>
  <path fill="rgb(42.352941%, 100%, 47.843137%)" opacity="0.926" d="M74.841,355.248 Q69.518,391.195 69.337,411.959 Q69.291,417.295 67.676,420.339 Q64.965,425.451 59.401,426.996 Q53.081,428.75 47.807,424.834 Q45.446,423.081 43.975,420.435 Q43.578,419.723 43.041,418.5 Q42.528,417.334 42.153,416.637 Q39.826,412.323 40.839,407.527 Q42.873,397.889 42.551,392.63 Q42.394,390.068 40.965,385.739 Q37.883,376.399 37.685,365.908 Q37.569,365.892 37.447,365.876 Q27.742,364.567 9.776,364.791 Q-27.295,365.255 -35.567,367.471 Q-40.918,368.904 -45.716,366.134 Q-50.514,363.363 -51.947,358.011 Q-53.381,352.66 -50.61,347.862 Q-47.84,343.064 -42.488,341.631 Q-30.98,338.548 9.442,338.043 Q29.372,337.793 41.024,339.365 Q48.908,340.429 53.685,342.513 Q58.117,339.251 63.568,340.058 Q69.049,340.869 72.351,345.318 Q75.652,349.768 74.841,355.248 Z"/>
  <path fill="rgb(80.392157%, 100%, 61.960784%)" opacity="0.879" d="M129.399,179.824 Q135.209,197.655 135.299,205.244 Q135.421,215.515 126.976,219.987 Q119.494,223.949 100.501,225.171 Q96.394,225.436 89.477,225.651 Q87.004,227.337 84.063,228.849 Q81.157,240.038 80.472,256.418 Q80.427,257.49 79.868,258.003 Q79.31,258.516 78.238,258.472 Q76.095,258.382 76.185,256.238 Q76.789,241.793 79.118,231.132 Q77.272,231.897 75.282,232.609 Q75.292,232.961 75.186,233.333 Q74.961,234.13 74.249,234.644 Q73.711,235.031 72.769,235.279 Q70.22,235.95 61.752,236.423 Q59.611,236.543 59.491,234.401 Q59.426,233.242 60.128,232.66 Q53.636,232.067 43.829,231.453 Q-5.21,228.38 -52.272,228.579 Q-54.343,228.588 -54.425,226.518 Q-54.467,225.446 -53.952,224.889 Q-53.438,224.332 -52.366,224.29 Q-9.211,222.589 50.859,222.023 Q69.477,221.847 81.823,221.564 Q83.205,217.733 84.914,214.62 Q87.925,209.133 91.455,206.933 Q95.357,204.5 98.191,206.616 Q100.952,208.678 99.949,213.021 Q99.038,216.968 95.09,221.003 Q95.013,221.082 94.933,221.162 Q98.001,221.033 100.226,220.89 Q118.299,219.726 124.968,216.195 Q131.1,212.948 131.009,205.295 Q130.927,198.361 125.32,181.153 Q124.655,179.113 126.695,178.449 Q128.734,177.784 129.399,179.824 Z M80.389,225.887 Q68.398,226.148 50.899,226.313 Q41.725,226.4 32.946,226.513 Q38.509,226.82 44.097,227.17 Q64.058,228.421 70.697,229.63 Q76.062,227.932 80.389,225.887 Z M88.067,221.402 Q90.282,219.782 92.023,218.003 Q95.128,214.829 95.769,212.056 Q96.142,210.441 95.624,210.054 Q95.139,209.692 93.725,210.574 Q91.147,212.181 88.676,216.684 Q87.478,218.867 86.45,221.448 Q87.275,221.425 88.067,221.402 Z"/>
  <path fill="rgb(35.686275%, 76.078431%, 14.509804%)" opacity="0.796" d="M370.649,392.315 Q370.651,392.359 370.654,392.398 Q380.646,391.879 385.385,389.701 Q392.496,386.434 392.473,376.488 Q392.456,369.311 387.275,346.088 L387.093,345.272 Q386.719,343.599 388.392,343.225 Q390.066,342.852 390.439,344.525 L390.53,344.934 L390.621,345.341 Q395.884,368.929 395.902,376.48 Q395.93,388.629 386.817,392.816 Q381.577,395.224 370.97,395.802 Q371.051,396.533 371.149,397.361 Q372.139,405.705 370.41,408.831 Q367.646,413.827 357.174,414.55 Q336.688,415.966 255.639,400.453 Q254.021,400.144 254.266,398.515 Q254.931,394.08 256.074,385.567 Q256.08,385.497 256.089,385.426 Q258.798,364.405 259.544,358.785 Q259.685,357.727 259.715,357.528 Q259.722,357.479 259.729,357.444 Q259.749,357.335 259.781,357.232 Q259.843,357.038 259.948,356.863 Q260.22,356.411 260.699,356.191 Q261.954,355.612 262.786,356.716 Q263.13,357.173 263.131,357.745 Q263.131,357.85 263.114,358.004 Q263.1,358.126 263.062,358.436 Q262.901,359.741 262.441,363.321 Q260.869,375.554 259.729,384.1 Q272.903,385.303 294.716,387.38 Q341.196,391.806 355.908,392.391 Q362.143,392.639 367.226,392.524 Q367.122,390.818 368.831,390.711 Q370.542,390.604 370.649,392.315 Z M367.536,395.938 Q362.231,396.074 355.772,395.817 Q340.965,395.227 294.391,390.793 Q272.46,388.705 259.273,387.501 Q258.453,393.571 257.897,397.394 Q337.097,412.501 356.937,411.13 Q365.549,410.535 367.409,407.171 Q368.604,405.012 367.744,397.765 Q367.628,396.788 367.536,395.938 Z"/>
  <path fill="rgb(7.843137%, 64.313725%, 84.705882%)" opacity="0.469" d="M59.124,49.58 Q62.717,27.194 68.604,-0.699 Q72.948,-21.285 71.762,-23.166 Q71.011,-24.358 58.553,-18.546 Q40.61,-10.176 26.283,-5.178 Q25.367,-4.859 24.622,-5.48 Q9.711,-17.9 3.641,-33.376 Q-2.953,-50.187 4.147,-63.2 Q4.969,-64.705 6.473,-63.884 Q7.226,-63.473 7.397,-62.892 Q7.568,-62.31 7.157,-61.558 Q0.823,-49.949 6.833,-34.628 Q12.431,-20.356 26.074,-8.739 Q39.893,-13.625 57.104,-21.653 Q65.278,-25.466 67.891,-26.268 Q72.893,-27.802 74.662,-24.995 Q76.589,-21.937 71.958,0.009 Q66.089,27.82 62.509,50.123 Q62.237,51.816 60.545,51.544 Q58.852,51.272 59.124,49.58 Z"/>
  <path fill="rgb(98.823529%, 100%, 88.235294%)" opacity="0.023" d="M361.814,240.289 Q348.051,285.427 336.538,294.772 Q329.108,300.804 318.294,300.178 Q312.45,299.841 298.081,296.17 Q280.229,291.61 265.215,289.399 Q271.457,301.216 280.615,313.512 Q282.719,316.338 284.109,318.36 Q286.526,316.593 289.377,314.272 Q301.621,304.309 310.323,302.384 Q324.494,299.248 343.319,309.348 Q349.928,312.894 346.382,319.503 Q342.837,326.111 336.228,322.566 Q322.304,315.095 313.563,317.029 Q308.331,318.186 298.844,325.906 Q290.277,332.878 284.361,335.928 Q281.251,338.395 275.409,339.376 Q275.194,339.412 274.966,339.447 Q267.759,341.253 259.753,340.73 Q253.142,340.298 252.755,333.684 Q252.318,326.197 259.805,325.759 Q266.562,325.364 270.393,324.928 Q269.599,323.833 268.585,322.471 Q253.66,302.432 245.764,283.249 Q245.076,281.577 245.225,279.775 Q245.845,272.301 253.319,272.92 Q274.56,274.681 301.793,281.637 Q314.76,284.95 319.159,285.204 Q324.169,285.494 327.085,283.126 Q335.04,276.669 347.467,235.914 Q349.654,228.741 356.828,230.928 Q364.002,233.115 361.814,240.289 Z"/>
  <path fill="rgb(100%, 0%, 5.490196%)" d="M264.317,17.113 Q279.277,20.931 289.975,23.487 Q288.526,16.177 290.493,7.415 Q292.355,-0.877 300.647,0.985 Q304.793,1.916 306.401,4.455 Q308.008,6.993 307.077,11.139 Q304.848,21.067 310.079,26.601 Q310.648,27.203 311.238,27.704 Q308.55,16.74 309.139,8.451 Q310.27,-7.462 321.552,-22.853 Q324.064,-26.28 327.034,-26.737 Q330.004,-27.195 333.431,-24.682 Q335.311,-23.304 336.225,-21.159 Q347.928,6.311 343.832,24.618 Q339.744,42.889 323.629,46.517 Q313.526,48.791 305.239,44.218 Q291.089,41.488 260.113,33.582 Q255.996,32.532 254.463,29.947 Q252.929,27.363 253.98,23.246 Q255.031,19.129 257.615,17.595 Q260.199,16.062 264.317,17.113 Z M327.18,21.188 Q327.213,21.049 327.245,20.906 Q328.773,14.076 326.844,4.617 Q326.272,7.147 326.093,9.656 Q325.753,14.447 327.18,21.188 Z"/>
  <path fill="rgb(100%, 66.666667%, 21.960784%)" opacity="0.745" d="M302.311,-10.577 Q303.867,-9.342 303.364,-7.597 Q303.023,-6.415 301.694,-5.674 Q300.337,-4.917 297.471,-4.386 Q291.817,-3.341 283.763,-3.437 Q269.93,-3.602 262.23,-6.745 Q263.976,-0.474 264.021,8.939 Q264.098,25.105 259.411,29.814 Q257.843,31.389 256.268,29.821 Q254.693,28.253 256.261,26.678 Q259.645,23.279 259.577,8.96 Q259.506,-5.944 255.171,-11.625 Q253.869,-13.33 255.529,-14.691 Q257.247,-16.1 258.656,-14.382 Q263.791,-8.12 283.816,-7.881 Q291.436,-7.79 296.663,-8.757 Q297.883,-8.982 298.642,-9.209 Q298.776,-9.697 299.189,-10.217 Q300.57,-11.958 302.311,-10.577 Z"/>
  <path fill="rgb(100%, 100%, 9.803922%)" opacity="0.219" d="M159.842,164.495 Q172.791,180.716 193.506,200.948 Q197.359,204.711 200.175,207.728 Q201.277,207.979 202.372,208.223 Q206.042,209.04 206.742,209.439 Q208.983,210.715 208.186,213.095 Q207.74,214.428 206.354,215.011 Q206.31,215.029 206.258,215.049 Q207.533,216.956 207.768,218.115 Q208.754,222.959 203.32,224.974 Q199.866,226.255 191.922,226.568 Q190.435,226.627 189.662,225.912 Q188.889,225.198 188.83,223.711 Q188.813,223.273 188.923,222.849 Q190.583,216.425 195.938,212.859 Q188.962,211.223 181.742,209.311 Q178.865,208.549 179.626,205.672 Q180.388,202.794 183.266,203.556 Q186.272,204.352 189.236,205.1 Q168.333,184.675 155.189,168.209 Q153.332,165.882 155.659,164.025 Q157.985,162.168 159.842,164.495 Z M200.584,217.057 Q198.149,218.35 196.647,220.283 Q199.729,219.956 201.25,219.392 Q201.676,219.234 201.885,219.123 Q201.648,218.43 200.584,217.057 Z"/>
  <path fill="rgb(100%, 0%, 24.705882%)" d="M85.275,382.706 Q86.663,370.653 105.524,371.188 Q112.773,371.393 131.844,374.245 Q166.695,379.455 174.382,376.522 Q175.407,376.131 175.131,374.894 Q173.469,367.432 160.093,352.101 Q154.5,345.69 160.911,340.097 Q164.116,337.301 167.117,337.505 Q170.118,337.709 172.914,340.915 Q189.136,359.507 191.74,371.194 Q195.212,386.785 180.449,392.419 Q168.592,396.944 129.328,391.073 Q111.269,388.373 105.041,388.196 Q102.703,388.13 101.237,388.262 Q100.524,389.805 99.335,390.749 Q96.979,392.618 92.753,392.131 Q84.302,391.158 85.275,382.706 Z"/>
  <path fill="rgb(100%, 100%, 84.705882%)" opacity="0.017" d="M139.092,29.363 Q134.228,21.999 130.888,10.568 Q126.88,-3.153 119.562,-14.13 Q118.356,-15.939 120.165,-17.145 Q121.07,-17.748 121.823,-17.598 Q122.577,-17.447 123.18,-16.542 Q130.868,-5.012 135.063,9.348 Q138.219,20.149 142.721,26.966 Q143.919,28.78 142.105,29.979 Q141.197,30.578 140.444,30.424 Q139.691,30.27 139.092,29.363 Z"/>
  <path fill="rgb(80.784314%, 100%, 98.039216%)" d="M173.765,169.307 Q173.995,166.13 174.033,163.509 Q172.71,161.119 171.743,158.803 Q169.711,153.94 169.937,150.905 Q170.115,148.523 171.749,147.592 Q174.021,146.297 175.991,148.508 Q179.176,152.081 179.337,162.044 Q185.122,171.91 197.647,183.403 Q211.26,195.897 230.909,208.204 Q240.43,183.121 245.17,142.453 Q245.479,139.803 248.129,140.111 Q249.454,140.266 250.04,141.006 Q250.625,141.746 250.471,143.071 Q245.574,185.08 235.525,211.042 Q246.375,217.593 258.941,224.091 Q260.75,225.026 260.324,227.018 Q258.689,234.677 260.934,239.873 Q262.453,243.387 259.733,244.566 Q258.735,244.999 255.846,244.518 Q240.855,242.019 215.289,242.535 Q212.104,244.95 208.774,246.131 Q199.508,249.419 191.342,242.844 Q190.42,242.101 190.352,240.92 Q190.198,238.256 192.862,238.102 Q203.806,237.469 213.362,237.241 Q217.386,233.771 221.302,227.731 Q225.386,221.433 228.887,213.231 Q208.286,200.41 194.038,187.335 Q184.672,178.739 178.825,170.873 Q178.21,172.305 176.233,172.161 Q173.571,171.968 173.765,169.307 Z M233.479,216.038 Q229.922,224.247 225.78,230.635 Q223.418,234.278 220.962,237.123 Q241.669,236.979 255.011,238.983 Q253.745,234.037 254.728,227.916 Q243.413,222.005 233.479,216.038 Z"/>
  <path fill="rgb(94.509804%, 99.215686%, 95.294118%)" opacity="0.032" d="M365.463,190.159 Q361.76,194.558 358.601,194.899 Q356.882,195.084 355.793,193.925 Q354.781,192.847 354.921,191.15 Q355.076,189.282 356.905,186.096 Q358.157,183.914 360.338,185.166 Q361.536,185.854 361.699,186.823 Q362.47,185.953 363.311,185.881 Q364.197,185.805 365.159,186.615 Q367.083,188.235 365.463,190.159 Z"/>
  <path fill="rgb(44.705882%, 100%, 98.039216%)" opacity="0.371" d="M40.389,229.153 Q44.144,235.486 59.978,227.859 Q69.568,223.239 88.193,210.282 Q97.963,203.485 99.702,203.103 Q101.377,202.735 101.745,204.41 Q101.929,205.247 101.602,205.757 Q101.275,206.268 100.438,206.452 Q99.363,206.688 90.151,213.097 Q71.302,226.209 61.466,230.947 Q42.798,239.94 37.439,230.902 Q36.565,229.427 38.04,228.553 Q38.777,228.116 39.364,228.266 Q39.951,228.416 40.389,229.153 Z"/>
  <path fill="rgb(100%, 52.156863%, 5.098039%)" opacity="0.328" d="M-9.508,44.914 Q-17.593,43.08 -23.311,41.509 Q-26.012,40.768 -26.57,40.469 Q-27.019,40.228 -27.272,39.827 Q-27.871,38.876 -27.247,37.944 Q-26.894,37.417 -26.277,37.24 Q-25.901,37.132 -25.35,37.188 Q-24.812,37.243 -23.578,37.474 Q-10.019,40.011 63.693,57.897 Q64.526,58.099 64.842,58.616 Q65.157,59.134 64.955,59.967 Q64.551,61.633 62.885,61.228 Q14.638,49.522 -7.776,44.405 Q-8.31,45.186 -9.508,44.914 Z"/>
  <path fill="rgb(92.941176%, 100%, 100%)" opacity="0.06" d="M317.821,195.404 Q313.205,174.208 306.318,151.644 Q302.039,137.625 303.064,133.929 Q304.208,129.802 314.303,124.842 Q316.516,123.754 317.604,125.967 Q318.691,128.18 316.478,129.268 Q308.369,133.253 307.816,135.246 Q307.175,137.559 311.035,150.205 Q317.981,172.962 322.64,194.354 Q323.165,196.764 320.755,197.288 Q318.346,197.813 317.821,195.404 Z"/>
  <path fill="rgb(5.882353%, 3.137255%, 12.54902%)" opacity="0.885" d="M53.386,258.342 Q53.764,268.006 54.532,271.714 L54.44,272.124 Q57.369,275.428 56.779,285.171 Q56.282,293.382 53.123,325.93 Q68.906,329.593 100.32,335.065 Q106.954,336.22 105.799,342.855 Q105.221,346.172 103.273,347.542 Q101.326,348.912 98.009,348.334 Q64.283,342.46 47.963,338.547 Q46.71,338.808 45.113,338.652 Q43.335,338.478 41.877,337.445 Q41.179,336.95 40.387,336.567 Q40.319,336.547 40.253,336.528 Q37.904,335.839 36.938,335.336 Q36.259,334.983 35.687,334.506 Q34.595,333.595 33.963,332.327 Q31.889,328.167 35.039,324.751 Q37.071,322.546 39.917,322.562 Q42.868,292.078 43.335,284.357 Q43.527,281.181 43.495,279.825 Q40.545,274.655 39.927,258.869 Q39.663,252.14 46.393,251.876 Q49.757,251.744 51.506,253.361 Q53.254,254.977 53.386,258.342 Z"/>
  <path fill="rgb(0%, 9.411765%, 30.588235%)" d="M254.743,24.298 Q259.573,-5.122 277.482,-18.616 Q293.421,-30.626 312.859,-26.173 Q331.851,-21.822 341.504,-4.956 Q346.552,3.865 347.474,13.903 Q348.587,14.812 348.97,15.778 Q350.252,19.014 346.001,32.642 Q345.361,34.696 344.912,36.149 Q344.725,36.772 344.526,37.4 Q343.923,39.301 342.022,38.698 Q340.139,38.101 340.718,36.212 Q340.884,35.671 341.092,34.999 Q344.098,24.933 343.611,15.952 Q341.215,14.777 335.439,13.343 Q316.723,8.697 300.106,1.633 Q299.189,1.242 298.925,0.588 Q298.661,-0.066 299.051,-0.983 Q299.832,-2.819 301.667,-2.039 Q317.992,4.901 336.4,9.471 Q340.405,10.465 343.154,11.557 Q341.958,3.869 338.041,-2.975 Q329.257,-18.323 311.968,-22.284 Q294.339,-26.323 279.882,-15.43 Q263.25,-2.898 258.679,24.944 Q258.518,25.928 257.945,26.34 Q257.372,26.751 256.388,26.589 Q254.42,26.266 254.743,24.298 Z"/>
  <path fill="rgb(100%, 100%, 66.27451%)" d="M72.625,329.109 Q71.902,350.59 69.876,367.902 Q70.667,388.036 69.403,395.35 Q69.044,397.425 68.449,398.311 Q67.674,399.465 66.411,399.399 Q65.985,399.376 65.629,399.221 Q64.458,401.103 63.319,402.821 Q62.507,405.656 61.627,408.273 Q57.576,420.322 52.624,425.555 Q47.158,431.331 41.626,428.338 Q31.508,422.865 29.166,392.15 Q26.563,358.017 35.599,309.527 Q35.959,307.594 37.891,307.954 Q39.737,308.298 39.478,310.158 Q28.565,388.555 36.942,410.68 Q38.668,415.239 41.027,416.468 Q43.116,417.556 46.152,415.917 Q51.946,412.789 59.701,401.176 Q63.65,387.171 65.94,367.737 Q65.56,358.319 64.73,346.019 Q64.598,344.058 66.559,343.926 Q67.468,343.864 67.984,344.253 Q68.429,336.905 68.696,328.977 Q68.729,327.995 69.236,327.52 Q69.744,327.045 70.726,327.079 Q72.691,327.145 72.625,329.109 Z M55.703,412.881 Q51.602,417.442 48.019,419.376 Q43.149,422.006 39.211,419.954 Q39.102,419.897 38.994,419.837 Q40.957,423.507 43.497,424.881 Q46.376,426.438 49.769,422.853 Q52.885,419.561 55.703,412.881 Z"/>
  <path fill="rgb(100%, 83.921569%, 78.039216%)" opacity="0.697" d="M64.47,81.748 Q64.501,79.86 64.53,77.401 Q64.548,75.832 65.069,74.777 Q66.308,61.319 68.382,44.734 Q67.409,43.787 67.035,42.765 Q65.517,38.619 69.411,36.704 Q73.237,7.513 79.432,-30.556 Q80.211,-35.338 84.993,-34.56 Q88.973,-33.912 89.059,-29.881 Q90.295,27.677 79.061,41.53 Q80.446,43.992 78.064,46.686 Q77.971,46.791 77.879,46.889 Q75.697,64.449 74.472,78.408 Q74.279,80.611 74.133,82.486 Q73.964,89.203 73.581,90.564 Q73.211,91.876 72.223,92.802 Q69.271,95.57 66.02,93.16 Q64.837,92.283 64.34,90.893 Q64.092,90.2 64.054,89.419 Q64.04,89.12 64.05,88.646 Q64.067,87.861 64.146,86.476 Q64.262,84.424 64.47,81.748 Z"/>
  <path fill="rgb(54.901961%, 5.490196%, 6.27451%)" d="M163.772,328.983 Q154.458,326.353 145.476,321.799 Q147.049,369.701 123.307,461.536 Q121.196,469.7 114.534,474.868 Q107.871,480.036 99.439,480.05 Q89.21,480.067 81.965,472.846 Q74.721,465.624 74.704,455.396 Q74.699,452.451 74.688,445.831 Q74.538,355.07 75.714,311.093 Q75.116,311.166 74.516,311.249 Q70.817,311.764 68.749,311.809 Q62.461,311.944 57.013,309.376 Q48.35,305.291 44.647,296.489 Q41.13,288.13 43.815,279.433 Q46.148,271.877 56.736,262.974 Q69.668,252.101 81.939,240.39 Q89.338,233.328 99.564,233.566 Q108.27,233.769 114.683,239.163 Q123.073,240.826 131.316,247.577 Q134.54,250.218 141.136,256.682 Q162.048,277.175 177.197,281.454 Q187.041,284.235 192.035,293.161 Q197.03,302.088 194.249,311.932 Q191.468,321.775 182.542,326.77 Q173.615,331.764 163.772,328.983 Z"/>
  <path fill="rgb(99.215686%, 64.313725%, 45.882353%)" opacity="0.447" d="M39.464,339.454 Q17.633,352.847 -21.064,356.356 Q-22.771,356.511 -22.926,354.803 Q-23.003,353.95 -22.615,353.484 Q-22.227,353.019 -21.374,352.941 Q18.501,349.325 39.808,335.168 Q43.811,285.92 48.559,258.07 Q50.893,244.382 53.037,238.431 Q54.167,235.293 55.354,234.243 Q56.489,233.239 57.783,233.625 Q58.826,233.937 59.5,235.133 Q62.751,240.9 61.294,274.308 Q59.65,311.982 52.648,364.181 Q52.42,365.88 50.721,365.652 Q49.441,365.48 49.253,364.202 Q48.191,356.965 47.62,349.984 Q42.257,359.386 38.651,366.469 Q37.419,368.89 36.564,370.704 Q35.98,372.184 35.521,373.042 Q35.501,373.095 35.492,373.122 Q35.5,373.097 35.508,373.067 Q35.012,373.986 34.664,374.175 Q33.791,374.647 32.946,374.127 Q32.274,373.713 32.151,372.931 Q32.103,372.628 32.163,372.32 Q32.189,372.189 32.24,372.035 Q32.291,371.883 32.39,371.636 Q32.595,371.131 32.967,370.312 Q33.176,369.854 33.412,369.351 Q34.005,367.816 34.621,365.989 Q37.135,358.526 38.629,350.345 Q39.042,344.778 39.464,339.454 Z M51.534,343.214 Q51.108,343.942 50.688,344.663 Q50.834,347.236 51.049,349.847 Q56.454,306.579 57.869,274.158 Q59.161,244.523 56.959,237.867 Q56.642,238.538 56.262,239.593 Q54.222,245.258 51.939,258.646 Q47.355,285.532 43.462,332.558 Q43.884,332.234 44.299,331.904 Q47.878,329.055 49.372,330.411 Q50.34,331.289 50.398,336.236 Q50.424,338.437 50.504,340.666 Q50.706,340.742 50.921,340.868 Q51.66,341.301 51.814,341.887 Q51.967,342.474 51.534,343.214 Z M47.21,343.824 Q47.014,340.011 46.97,336.277 Q46.955,334.987 46.932,334.193 Q46.702,334.373 46.434,334.586 Q44.824,335.868 43.093,337.078 Q42.561,343.692 42.042,350.689 Q42.035,350.78 42.019,350.869 Q41.727,352.474 41.397,354.051 Q44.041,349.283 47.21,343.824 Z"/>
  <path fill="rgb(17.647059%, 68.627451%, 14.117647%)" opacity="0.871" d="M367.821,42.925 Q361.643,95.229 356.87,109.714 Q354.746,116.158 352.043,117.159 Q349.982,117.922 347.13,115.645 Q345.947,114.701 345.808,114.729 Q345.229,114.844 344.18,117.758 Q340.843,127.025 336.768,163.069 Q336.574,164.782 334.861,164.588 Q333.148,164.394 333.342,162.681 Q337.463,126.236 340.936,116.59 Q342.645,111.844 345.134,111.348 Q346.846,111.007 349.281,112.951 Q350.611,114.012 350.846,113.925 Q351.992,113.501 353.595,108.635 Q358.26,94.479 364.398,42.52 Q364.499,41.664 364.977,41.287 Q365.456,40.91 366.312,41.011 Q368.024,41.213 367.821,42.925 Z"/>
  <path fill="rgb(16.470588%, 0%, 0%)" d="M44.622,270.46 Q80.188,245.347 112.794,214.462 Q122.988,204.805 126.83,201.977 Q133.576,197.009 139.399,197.337 Q144.999,197.652 152.099,203.157 Q156.258,206.382 167.702,217.194 Q174.218,223.35 178.102,226.946 Q179.781,228.501 179.843,230.118 Q179.905,231.735 178.351,233.414 Q175.241,236.773 171.883,233.663 Q167.964,230.035 161.415,223.848 Q143.292,206.724 138.885,206.476 Q134.779,206.245 119.089,221.107 Q86.005,252.446 49.902,277.938 Q46.163,280.578 43.523,276.839 Q42.203,274.97 42.478,273.375 Q42.752,271.78 44.622,270.46 Z"/>
  <path fill="rgb(87.843137%, 86.27451%, 90.980392%)" opacity="0.016" d="M169.116,169.002 Q164.585,165.948 164.452,161.799 Q164.338,158.222 167.696,154.007 Q171.511,149.22 186.388,137.915 Q205.002,123.769 212.814,115.298 Q213.53,114.522 214.277,114.491 Q215.023,114.461 215.8,115.177 Q216.206,115.552 216.377,116.078 Q216.893,117.667 217.408,119.233 Q249.381,118.121 275.976,124.937 Q291.922,129.025 309.83,137.732 Q317.02,141.227 317.322,141.013 Q317.811,140.665 315.762,131.775 Q315.287,129.717 317.346,129.242 Q319.405,128.768 319.879,130.826 Q322.563,142.472 319.769,144.457 Q317.425,146.123 307.983,141.532 Q290.459,133.012 274.927,129.031 Q249.435,122.497 218.794,123.416 Q226.057,145.156 232.895,161.836 Q233.167,162.453 233.435,163.064 Q235.721,168.27 236.709,170.672 Q236.896,171.128 236.991,171.376 Q237.05,171.528 237.082,171.626 Q237.13,171.771 237.157,171.907 Q237.247,172.353 237.148,172.793 Q236.812,174.291 235.285,174.435 Q234.39,174.519 233.708,173.934 Q233.31,173.592 232.728,172.267 Q230.883,168.067 229.007,163.492 Q222.102,147.826 210.73,123.337 Q202.711,130.817 188.945,141.279 Q174.488,152.266 171.001,156.641 Q168.611,159.64 168.676,161.663 Q168.739,163.652 171.478,165.498 Q173.23,166.679 172.049,168.431 Q170.868,170.183 169.116,169.002 Z"/>
  <path fill="rgb(20.784314%, 0%, 7.45098%)" opacity="0.881" d="M202.399,278.945 Q200.432,278.476 197.829,277.623 Q197.165,290.362 194.584,317.109 Q190.796,356.36 189.262,385.118 Q188.818,399.813 188.248,414.255 Q188.173,416.149 187.189,417.058 Q186.205,417.967 184.311,417.893 Q180.628,417.747 180.671,414.062 Q180.821,401.099 181.688,384.822 Q182.824,347.178 183.131,307.868 Q183.358,278.833 184.675,274.012 Q186.1,268.791 190.262,268.112 Q190.281,257.791 188.834,255.78 Q185.716,256.764 184.4,253.505 Q183.522,251.332 182.402,249.149 Q175.372,241.104 172.023,236.442 Q170.012,233.643 169.592,232.247 Q169.201,230.946 169.585,229.743 Q170.543,226.748 173.688,227.053 Q174.997,227.18 176.335,228.236 Q183.534,233.919 188.999,245.175 Q190.569,246.961 192.32,248.913 Q198.023,252.625 198.064,269.693 Q201.753,270.999 204.156,271.571 Q207.843,272.449 206.964,276.136 Q206.086,279.823 202.399,278.945 Z"/>
  <path fill="rgb(52.941176%, 100%, 51.372549%)" opacity="0.807" d="M396.996,322.117 Q397.917,318.668 398.811,315.932 Q397.674,305.04 395.004,300.824 Q394.847,300.576 394.728,300.399 Q393.752,301.131 392.518,303.233 Q390.446,306.764 390.396,310.212 Q390.297,317.144 383.366,317.045 Q377.201,316.957 376.569,310.823 Q369.814,245.2 373.528,174.096 Q374.82,149.366 376.764,136.065 Q377.934,128.064 380.443,125.902 Q383.761,123.044 387.778,124.73 Q390.211,125.751 391.414,128.163 Q392.019,129.376 392.262,131.033 Q392.498,132.642 392.545,135.622 Q392.599,139.088 390.893,140.848 Q390.499,141.255 390.01,141.571 Q388.467,153.877 387.373,174.819 Q384.318,233.323 388.452,288.006 Q389.868,287.231 391.398,286.775 Q400.751,283.984 406.717,293.406 Q411.348,300.719 412.759,316.105 Q412.896,317.605 412.399,319.027 Q408.827,329.241 404.562,353.465 Q403.06,361.999 402.438,364.548 Q401.709,367.54 400.702,369.066 Q397.352,374.138 391.888,371.849 Q388.884,370.59 387.705,367.253 Q386.179,362.937 385.067,327.727 Q384.849,320.798 391.777,320.579 Q395.21,320.471 396.996,322.117 Z"/>
  <path fill="rgb(42.745098%, 100%, 54.901961%)" opacity="0.949" d="M181.844,158.28 Q186.194,158.487 187.619,163.273 Q188.286,165.513 187.974,167.223 Q192.321,171.709 189.068,177.083 Q186.788,180.849 180.699,181.749 Q178.482,182.077 176.103,182.135 Q178.278,189.259 177.446,198.414 Q176.817,205.329 169.902,204.699 Q167.924,204.52 166.34,203.32 Q154.05,194.015 139.142,186.382 Q135.531,184.533 134.345,183.769 Q127.778,179.541 130.795,173.461 Q132.525,169.973 142.182,167.738 Q141.785,165.694 142.766,163.361 Q143.753,161.016 146.291,159.374 Q148.918,157.674 166.005,151.126 Q170.305,149.478 172.753,148.536 Q179.233,146.043 181.726,152.523 Q183.05,155.963 181.844,158.28 Z M157.682,178.565 Q156.326,178.879 154.964,179.185 Q158.422,181.181 161.737,183.274 Q160.832,181.476 159.528,180.06 Q159.016,179.505 158.379,178.972 Q158.25,178.902 158.126,178.831 Q157.899,178.701 157.682,178.565 Z"/>
  <path fill="rgb(79.215686%, 100%, 82.745098%)" opacity="0.998" d="M214.397,237.987 Q217.223,218.425 221.916,198.459 Q223.273,192.683 229.049,194.041 Q231.937,194.719 233.041,196.503 Q234.146,198.286 233.467,201.174 Q223.378,244.096 222.155,285.01 Q222.099,286.896 222.069,287.468 Q222.035,288.116 221.976,288.536 Q221.858,289.381 221.548,290.121 Q220.63,292.318 218.461,293.278 Q214.297,295.12 211.43,291.575 Q210.258,290.124 209.634,284.642 Q207.427,265.234 203.842,243.003 Q202.897,237.146 208.755,236.201 Q212.677,235.568 214.397,237.987 Z"/>
  <path fill="rgb(43.137255%, 86.666667%, 69.803922%)" opacity="0.377" d="M132.526,184.692 Q159.309,181.415 166.983,190.328 Q171.93,196.074 169.848,212.249 Q168.445,223.145 169.461,227.943 Q169.489,228.074 169.518,228.204 Q172.999,231.705 176.738,236.7 Q178.11,238.533 178.588,239.115 Q178.801,239.374 178.937,239.522 Q181.57,241.013 180.129,243.801 Q178.854,246.267 176.217,245.4 Q176.002,245.329 175.75,245.177 L175.738,245.199 Q166.418,240.38 163.65,231.466 Q156.496,224.662 152.228,227.225 Q137.468,236.086 134.787,317.277 Q142.713,319.029 154.168,321.413 Q180.199,326.83 184.421,331.092 Q187.881,334.585 187.476,340.761 Q187.251,344.179 184.92,353.883 Q178.641,380.024 176.965,404.155 Q176.74,407.406 173.489,407.18 Q171.864,407.067 171.108,406.198 Q170.352,405.329 170.465,403.704 Q172.178,379.031 178.584,352.361 Q182.045,337.953 179.791,335.678 Q176.95,332.81 152.84,327.793 Q139.362,324.988 130.731,323.05 Q128.108,322.461 128.189,319.773 Q130.819,232.477 148.874,221.638 Q154.992,217.965 162.531,222.522 Q162.557,217.848 163.385,211.417 Q165.096,198.124 162.045,194.58 Q156.643,188.306 133.318,191.16 Q130.083,191.556 129.688,188.322 Q129.292,185.087 132.526,184.692 Z M178.625,239.355 Q178.678,239.383 178.731,239.41 Q178.757,239.424 178.784,239.438 Q178.71,239.395 178.625,239.355 Z"/>
  <path fill="rgb(100%, 100%, 96.078431%)" opacity="0.004" d="M117.582,101.585 Q103.878,105.167 87.623,118.438 Q81.538,123.407 77.741,125.004 Q80.964,126.842 85.75,129.452 Q103.453,139.105 109.221,143.74 Q110.154,144.489 110.246,145.331 Q110.337,146.172 109.588,147.104 Q108.089,148.97 106.224,147.471 Q100.787,143.103 83.459,133.654 Q73.391,128.164 70.019,125.961 Q67.162,124.095 65.908,122.742 Q63.252,119.877 65.337,117.568 Q65.517,117.369 65.737,117.215 Q65.88,117.114 66.012,117.021 Q65.091,114.794 64.27,111.999 Q63.716,110.111 65.461,109.202 Q80.502,101.37 87.012,98.474 Q90.418,96.959 91.968,96.587 Q93.461,96.229 94.451,96.711 Q95.895,97.415 95.905,99.018 Q95.909,99.787 95.477,100.531 Q94.005,103.066 72.007,118.647 Q73.366,120.9 74.694,120.976 Q76.801,121.096 84.597,114.731 Q101.659,100.8 116.371,96.954 Q118.687,96.349 119.292,98.664 Q119.594,99.822 119.167,100.552 Q118.739,101.282 117.582,101.585 Z M70.009,114.2 Q75.522,110.299 79.614,107.331 Q75.213,109.533 69.44,112.527 Q69.725,113.41 70.009,114.2 Z"/>
  <path fill="rgb(42.745098%, 0%, 0%)" d="M163.611,345.961 Q155.382,357.871 159.663,364.118 Q162.968,368.939 169.192,364.977 Q178.18,359.255 179.342,340.978 Q180.934,315.93 165.54,277.42 Q163.889,273.292 168.018,271.641 Q170.082,270.816 171.527,271.436 Q172.971,272.055 173.796,274.119 Q189.935,314.492 188.216,341.542 Q186.767,364.329 173.967,372.478 Q168.208,376.144 162.127,375.244 Q155.874,374.318 152.329,369.145 Q144.588,357.851 156.295,340.906 Q158.823,337.249 162.48,339.776 Q164.309,341.039 164.592,342.586 Q164.875,344.132 163.611,345.961 Z"/>
  <path fill="rgb(0%, 48.627451%, 1.568627%)" d="M344.957,30.318 Q382.284,37.408 404.512,36.363 Q410.002,35.03 414.169,34.567 Q415.695,34.398 416.632,34.419 Q419.302,34.48 419.351,36.565 Q419.4,38.694 414.688,39.435 Q410.291,40.126 405.108,40.386 Q399.35,41.804 392.041,44.216 Q391.079,44.534 390.44,44.212 Q389.8,43.889 389.483,42.928 Q388.848,41.005 390.771,40.37 Q390.793,40.362 390.815,40.355 Q371.864,39.484 345.5,34.543 Q344.582,37.95 344.576,41.688 Q344.569,45.687 342.082,46.091 Q340.814,46.297 335.617,44.641 Q313.422,37.57 281.198,31.668 Q280.202,31.486 279.795,30.896 Q279.388,30.307 279.57,29.311 Q279.586,29.228 279.608,29.146 Q286.42,3.987 301.928,-5.467 Q315.225,-13.573 329.993,-8.263 Q343.818,-3.292 348.51,8.792 Q353.044,20.47 344.957,30.318 Z M341.512,33.78 Q341.063,33.693 340.613,33.605 Q339.992,33.482 339.551,33.028 Q338.14,31.575 339.593,30.164 Q348.939,21.087 344.734,10.258 Q340.71,-0.105 328.623,-4.451 Q315.679,-9.105 304.036,-2.008 Q290.551,6.213 284.115,28.088 Q315.165,33.874 336.847,40.782 Q339.383,41.59 340.524,41.9 Q340.525,41.799 340.525,41.682 Q340.532,37.568 341.512,33.78 Z"/>
  <path fill="rgb(15.686275%, 12.941176%, 11.764706%)" opacity="0.218" d="M219.727,36.788 Q200.619,39.741 186.731,37.054 Q183.44,36.418 182.925,36.892 Q182.066,37.682 179.438,44.471 Q167.109,76.313 142.863,119.623 Q142.156,120.885 140.793,120.4 Q114.516,111.059 95.175,104.476 Q78.87,99.276 70.044,96.325 Q66.063,94.993 65.647,94.783 Q65.268,94.592 65.024,94.263 Q64.579,93.664 64.713,92.93 Q64.88,92.022 65.729,91.661 Q66.096,91.504 66.498,91.525 Q66.685,91.535 66.922,91.594 Q67.113,91.642 67.516,91.762 Q68.302,91.996 69.859,92.49 Q80.866,95.985 96.247,101.219 Q99.39,102.222 102.812,103.307 Q103.326,103.471 103.627,103.744 Q119.937,109.354 140.577,116.685 Q164.178,74.385 176.24,43.233 Q179.157,35.699 180.603,34.369 Q182.392,32.723 187.382,33.688 Q200.685,36.261 219.203,33.4 Q220.05,33.269 220.539,33.627 Q221.028,33.985 221.159,34.832 Q221.421,36.526 219.727,36.788 Z"/>
  <path fill="rgb(100%, 63.529412%, 58.431373%)" opacity="0.563" d="M33.199,315.431 Q31.366,344.772 36.505,362.735 Q40.81,377.784 47.147,377.845 Q53.531,377.906 58.07,362.532 Q63.554,343.956 62.299,312.287 Q62.231,310.574 63.944,310.506 Q64.8,310.472 65.246,310.883 Q65.691,311.294 65.725,312.151 Q67.002,344.385 61.358,363.503 Q56.086,381.359 47.114,381.273 Q38.218,381.188 33.209,363.678 Q27.907,345.147 29.777,315.217 Q29.831,314.362 30.285,313.961 Q30.74,313.56 31.595,313.613 Q33.306,313.72 33.199,315.431 Z"/>
</svg>

