<svg xmlns="http://www.w3.org/2000/svg" width="384" height="384" viewBox="0 0 384 384">
  <defs/>
  <path fill="rgb(94.509804%, 87.843137%, 0%)" d="M295.547,133.361 Q262.665,148.702 249.486,150.591 Q248.291,150.762 247.155,150.846 Q244.437,152.307 241.13,152.479 Q235.455,152.772 231.113,149.107 Q223.942,143.054 218.693,132.583 Q215.915,127.041 211.228,114.442 Q198.852,81.171 182.485,62.441 Q153.111,28.827 92.28,4.628 Q86.746,2.427 84.39,-3.042 Q82.034,-8.511 84.235,-14.045 Q86.436,-19.578 91.905,-21.934 Q97.375,-24.29 102.908,-22.089 Q170.193,4.677 204.137,43.521 Q217.275,58.555 226.392,76.494 Q231.61,86.762 238.178,104.418 Q240.132,109.671 241.884,113.757 Q245.306,112.07 249.031,111.934 Q256.855,111.648 260.976,117.151 Q270.07,113.518 283.39,107.304 Q288.787,104.786 294.383,106.821 Q299.979,108.857 302.497,114.253 Q305.015,119.65 302.98,125.246 Q300.944,130.843 295.547,133.361 Z"/>
  <path fill="rgb(100%, 100%, 73.72549%)" opacity="0.779" d="M421.886,89.34 Q419.017,91.072 415.817,92.783 Q409.051,98.767 400.1,102.078 Q394.224,104.252 387.093,105.326 Q378.646,108.421 369.002,111.437 Q336.117,121.722 305.39,126.163 Q270.842,131.157 253.391,126.188 Q240.501,122.517 236.409,113.22 Q231.97,103.132 239.484,90.468 Q240.881,88.113 243.288,86.807 Q260.584,77.424 286.749,77.688 Q301.52,77.838 331.785,82.335 Q355.723,85.893 366.493,86.389 Q375.282,86.794 382.221,85.959 Q394.479,81.378 403.701,76.705 Q413.776,66.537 416.16,44.741 Q372.698,53.517 359.618,58.438 Q349.108,62.392 335.692,66.052 Q326.112,68.666 323.499,59.086 Q322.192,54.297 323.933,51.248 Q325.675,48.2 330.465,46.893 Q342.985,43.477 352.625,39.85 Q369.063,33.666 424.909,22.758 Q425.92,22.561 426.95,22.575 Q431.914,22.644 434.362,25.161 Q436.81,27.677 436.741,32.642 Q436.342,61.404 426.745,78.917 Q428.717,85.216 421.886,89.34 Z M328.016,101.853 Q299.755,97.68 286.549,97.546 Q267.577,97.355 255.324,102.981 Q254.849,104.079 254.699,104.933 L254.586,105.221 Q254.918,105.974 258.83,107.088 Q272.2,110.895 302.549,106.509 Q315.078,104.697 328.016,101.853 Z"/>
  <path fill="rgb(100%, 94.901961%, 88.627451%)" opacity="0.988" d="M390.342,294.437 Q387.51,293.895 371.144,294.23 Q325.289,295.17 297.761,288.973 Q245.801,277.275 216.093,239.438 Q210.11,231.817 211.267,222.197 Q212.425,212.577 220.046,206.593 Q227.667,200.61 237.287,201.767 Q246.907,202.925 252.891,210.546 Q272.318,235.289 308.037,243.33 Q330.016,248.279 370.185,247.455 Q391.47,247.019 399.135,248.485 Q408.651,250.306 414.093,258.323 Q419.535,266.34 417.714,275.857 Q415.893,285.374 407.876,290.816 Q399.859,296.258 390.342,294.437 Z"/>
  <path fill="rgb(17.254902%, 63.529412%, 0%)" d="M202.861,247.167 Q203.942,250.38 204.896,252.614 Q205.816,250.461 207.181,247.124 Q210.22,239.696 212.007,236.554 Q216.231,229.13 221.94,228.129 Q229.505,226.802 235.336,235.972 Q239.612,242.697 244.317,257.254 Q245.371,260.518 244.267,262.677 Q243.162,264.836 239.899,265.891 Q233.371,268 231.261,261.473 Q227.154,248.762 223.852,243.482 Q222.504,245.905 219.88,252.319 Q214.139,266.352 209.094,268.836 Q201.93,272.363 196.255,265.098 Q193.03,260.969 189.858,251.544 Q187.67,245.042 194.171,242.854 Q197.422,241.76 199.595,242.838 Q201.767,243.917 202.861,247.167 Z"/>
  <path fill="rgb(38.823529%, 93.72549%, 3.921569%)" d="M190.082,300.98 Q212.247,300.381 228.089,296.088 Q235.463,294.089 239.031,295.813 Q241.764,297.134 246.747,303.7 Q248.07,302.292 249.703,300.526 Q270.404,278.145 283.174,272.108 Q308.534,260.121 325.017,287.033 Q327.973,291.858 323.147,294.814 Q318.321,297.77 315.366,292.944 Q304.188,274.695 288.011,282.341 Q277.224,287.44 258.012,308.211 Q255.52,310.906 253.696,312.824 Q253.7,312.83 253.768,312.917 Q257.655,312.415 266.048,309.149 Q269.276,307.893 270.339,307.632 Q275.589,306.34 277.516,310.948 Q279.039,314.589 275.89,317.753 Q273.95,319.701 259.933,329.927 Q255.677,333.033 252.276,329.008 Q250.094,326.427 247.886,323.696 Q246.289,323.189 244.988,322.279 Q241.107,319.561 240.734,314.546 Q239.541,312.972 238.344,311.358 Q235.149,307.052 234.335,306.204 Q233.513,306.344 231.049,307.012 Q213.904,311.659 190.387,312.294 Q184.73,312.446 184.577,306.789 Q184.425,301.133 190.082,300.98 Z"/>
  <path fill="rgb(100%, 96.470588%, 34.509804%)" opacity="0.606" d="M35.684,302.553 Q34.899,302.271 34.085,301.762 Q32.692,300.888 31.731,299.286 Q30.415,297.091 28.829,291.178 Q25.926,280.348 23.19,263.71 Q20.2,245.53 19.912,234.732 Q19.728,227.863 20.846,224.507 Q22.194,220.459 25.651,219.269 Q28.278,218.364 30.738,219.435 Q32.847,198.667 37.853,176.033 Q39.132,170.249 44.916,171.528 Q47.808,172.168 48.934,173.934 Q50.061,175.7 49.421,178.592 Q38.645,227.312 41.743,266.728 Q43.315,286.747 48.012,300.315 Q48.15,300.714 48.2,300.869 Q48.292,301.151 48.352,301.397 Q48.476,301.906 48.511,302.419 Q48.583,303.454 48.301,304.451 Q47.113,308.645 42.756,308.76 Q39.064,308.858 37.037,305.027 Q36.396,303.814 35.684,302.553 Z"/>
  <path fill="rgb(100%, 100%, 97.254902%)" opacity="0.628" d="M261.912,107.127 Q253.443,119.936 242.895,130.27 Q237.502,135.553 236.429,139.283 Q234.634,145.52 234.557,166.328 Q234.534,172.549 228.313,172.526 Q224.791,172.513 222.989,169.486 Q214.576,155.347 213.032,113.833 Q211.558,114.294 209.937,114.375 Q198.789,114.936 176.743,95.647 Q172.061,91.55 176.158,86.868 Q178.206,84.527 180.401,84.381 Q182.595,84.234 184.937,86.283 Q203.193,102.256 209.312,101.948 Q210.179,101.905 211.867,97.049 Q211.954,96.796 212.022,96.602 Q213.04,92.563 215.934,91.267 Q220.497,89.223 223.524,93.224 Q224.274,94.216 224.627,95.474 Q224.84,96.234 224.946,97.294 Q225.108,98.906 225.243,105.52 Q225.536,119.939 226.509,131.035 Q229.107,126.358 234.187,121.382 Q243.792,111.972 251.533,100.264 Q254.964,95.074 260.154,98.506 Q262.749,100.221 263.188,102.377 Q263.628,104.532 261.912,107.127 Z"/>
  <path fill="rgb(100%, 100%, 67.843137%)" opacity="0.496" d="M428.992,198.447 Q424.407,187.718 405.591,177.502 Q396.75,172.703 377.993,165.147 Q350.26,166.78 335.424,164.555 Q291.365,157.947 294.206,122.28 Q294.373,120.176 295.441,118.354 Q297.77,114.381 300.921,113.559 Q304.072,112.737 308.044,115.066 Q325.587,125.349 366.854,141.028 Q374.428,143.906 380.991,146.511 Q391.462,145.802 403.873,144.553 Q419.797,142.951 426.23,142.601 Q430.828,142.35 433.252,144.524 Q435.676,146.698 435.927,151.296 Q436.428,160.492 427.232,160.993 Q423.348,161.205 415.503,161.931 Q438.993,174.973 445.93,191.209 Q449.549,199.679 441.08,203.297 Q436.845,205.107 433.823,203.894 Q430.801,202.682 428.992,198.447 Z"/>
  <path fill="rgb(6.666667%, 9.019608%, 0%)" d="M132.895,246.526 Q132.236,245.69 131.243,244.472 Q129.203,241.97 129.016,240.644 Q128.469,236.762 132.426,236.121 Q132.959,236.035 133.974,236.059 Q151.604,236.481 171.55,191.982 Q173.107,188.509 176.58,190.066 Q180.053,191.623 178.497,195.096 Q159.306,237.908 139.604,242.99 Q140.625,245.274 138.24,247.156 Q136.747,248.335 135.41,248.177 Q134.074,248.02 132.895,246.526 Z"/>
  <path fill="rgb(98.823529%, 92.941176%, 92.156863%)" opacity="0.021" d="M380.903,339.728 Q377.938,336.07 374.752,331.764 Q364.975,355.159 351.041,378.228 Q348.541,382.368 343.846,383.527 Q339.15,384.686 335.01,382.186 Q329.753,379.011 329.391,372.88 Q329.058,367.238 328.52,357.458 Q328.038,348.685 327.648,342.751 Q327.506,342.924 327.339,343.126 Q310.144,363.97 296.343,378.269 Q292.984,381.749 288.148,381.834 Q283.313,381.92 279.833,378.561 Q276.353,375.203 276.267,370.367 Q276.182,365.531 279.54,362.052 Q292.709,348.408 309.326,328.266 Q318.275,317.418 321.571,314.309 Q333.831,302.745 343.724,312.31 Q348.618,317.042 350.056,330.031 Q353.55,322.244 356.541,314.43 Q358.636,308.959 359.583,307.03 Q363.238,299.587 369.933,298.343 Q377.475,296.943 383.322,303.754 Q384.698,305.358 387.876,309.959 Q393.896,318.674 399.043,325.022 Q402.088,328.779 401.585,333.59 Q401.082,338.4 397.325,341.445 Q393.568,344.491 388.758,343.988 Q383.948,343.485 380.903,339.728 Z"/>
  <path fill="rgb(100%, 74.117647%, 0%)" d="M254.172,136.936 Q256.424,143.504 258.433,148.772 Q276.726,151.041 287.828,163.121 Q289.389,164.312 290.607,166.044 Q291.332,167.074 291.84,168.213 Q295.522,173.838 295.346,178.852 Q294.989,188.98 285.139,191.149 Q281.543,191.941 278.431,190.955 Q267.476,197.53 257.755,192.764 Q257.301,194.673 256.746,196.5 Q257.351,196.757 258.007,197.035 Q280.544,206.577 302.903,217.668 Q307.709,220.052 309.421,225.135 Q311.134,230.219 308.75,235.024 Q306.366,239.83 301.283,241.542 Q296.199,243.255 291.394,240.871 Q269.731,230.125 247.909,220.886 Q235.815,215.766 232.709,212.701 Q224.883,204.978 230.47,192.92 Q235.482,182.106 233.191,162.812 Q233.138,162.364 233.116,161.914 Q232.983,159.175 233.859,156.799 Q231.77,151.456 229.672,145.338 Q227.932,140.263 230.289,135.445 Q232.647,130.627 237.721,128.887 Q242.795,127.147 247.613,129.504 Q252.432,131.862 254.172,136.936 Z"/>
  <path fill="rgb(35.686275%, 10.588235%, 0%)" opacity="0.978" d="M145.733,288.946 Q145.637,288.733 145.544,288.511 Q142.577,281.371 149.716,278.404 Q179.759,265.916 201.837,265.13 Q220.799,264.456 230.262,272.115 Q235.551,276.396 236.19,282.047 Q237.008,289.277 230.737,293.24 Q226.675,295.808 221.443,295.646 Q219.977,302.096 212.934,306.301 Q203.223,312.099 185.841,312.687 Q168.166,313.285 162.97,307.3 Q148.7,308.699 144.589,299.863 Q141.875,294.028 145.733,288.946 Z M194.608,296.299 Q194.588,296.348 194.568,296.396 Q201.135,295.336 205.007,293.024 Q205.911,292.484 206.329,292.039 Q206.155,291.508 205.045,290.224 Q199.653,293.589 194.608,296.299 Z M187.847,282.386 Q185.172,282.924 182.378,283.618 Q183.383,283.892 184.404,284.197 Q186.096,283.339 187.847,282.386 Z"/>
  <path fill="rgb(1.176471%, 0%, 10.588235%)" d="M223.659,297.665 Q212.736,298.842 203.702,299.995 Q197.919,305.928 184.038,308.781 Q173.204,311.007 165.906,310.393 Q164.438,311.191 162.432,310.058 Q162.111,309.876 161.8,309.7 Q160.666,309.34 159.912,308.784 Q159.598,308.553 159.338,308.295 Q144.011,299.488 137.505,294.124 Q133.769,291.044 132.423,288.635 Q130.119,284.514 133.034,281.531 Q136.774,277.703 161.646,280.4 Q184.155,282.841 184.346,282.21 Q184.905,280.367 186.73,279.749 Q194.202,277.222 211.809,268.497 Q221.714,263.589 225.206,262.162 Q228.282,260.905 230.069,260.638 Q231.758,260.385 233.045,260.868 Q235.733,261.876 235.884,264.745 Q236.124,269.296 212.794,291.344 Q217.612,290.783 222.857,290.218 Q224.718,290.017 225.749,290.848 Q226.781,291.679 226.981,293.54 Q227.182,295.402 226.351,296.433 Q225.521,297.464 223.659,297.665 Z M200.119,292.909 Q215.985,278.361 222.952,271.4 Q219.787,272.902 215.135,275.208 Q198.373,283.514 190.322,286.426 Q187.456,289.446 178.9,289.323 Q173.782,289.25 160.839,287.846 Q144.632,286.089 140.089,286.383 Q140.922,287.234 142.269,288.345 Q147.948,293.027 161.367,300.819 Q163.76,299.576 168.246,298.422 Q178.771,295.716 200.119,292.909 Z"/>
  <path fill="rgb(7.45098%, 40.392157%, 0%)" opacity="0.888" d="M246.722,210.636 Q267.835,243.469 265.096,259.306 Q263.572,268.118 256.555,271.408 Q261.921,309.236 253.195,393.461 Q252.684,398.398 247.746,397.887 Q242.809,397.375 243.321,392.438 Q251.922,309.41 246.866,273.363 Q245.143,273.392 243.26,273.26 Q230.109,272.342 218.714,265.429 Q212.397,261.597 211.968,257.502 Q211.47,252.752 216.318,251.044 Q217.599,250.593 219.376,250.469 Q227.463,240.66 235.301,239.723 Q246.829,238.346 252.634,254.376 Q253.583,256.994 254.38,260.109 Q255.068,259.035 255.314,257.614 Q257.394,245.587 238.372,216.005 Q235.687,211.83 239.862,209.145 Q241.95,207.803 243.665,208.176 Q245.38,208.548 246.722,210.636 Z M244.995,263.412 Q244.226,260.313 243.3,257.756 Q240.179,249.138 236.479,249.581 Q232.147,250.098 225.955,258.139 Q234.395,262.69 243.952,263.357 Q244.486,263.394 244.995,263.412 Z"/>
</svg>

