<svg xmlns="http://www.w3.org/2000/svg" width="384" height="384" viewBox="0 0 384 384">
  <defs/>
  <path fill="rgb(83.921569%, 100%, 99.607843%)" opacity="0.046" d="M-1.167,110.482 Q16.74,107.508 23.187,112.213 Q27.32,115.228 27.675,123.406 Q27.825,126.844 28.35,127.732 Q28.984,128.806 31.603,128.595 Q32.567,128.517 33.22,129.231 Q41.896,138.733 42.56,142.118 Q43.275,145.761 37.38,148.251 Q30.019,151.361 26.487,156.536 Q20.137,165.844 19.791,185.313 Q37.236,193.014 51.082,189.707 Q59.206,187.767 69.807,179.869 Q75.175,175.87 77.552,175.068 Q82.083,173.539 85.369,177.342 Q86.66,178.836 85.166,180.127 Q84.419,180.772 83.723,180.721 Q83.026,180.67 82.381,179.923 Q80.831,178.129 78.814,178.809 Q77.031,179.411 72.166,183.036 Q60.913,191.419 52,193.547 Q36.366,197.281 16.977,188.376 Q15.817,187.843 15.827,186.567 Q15.99,164.916 23.226,154.311 Q27.412,148.176 35.844,144.614 Q38.783,143.372 38.686,142.879 Q38.252,140.67 30.925,132.576 Q26.649,132.616 24.951,129.741 Q23.923,128.002 23.731,123.578 Q23.457,117.298 20.86,115.402 Q15.752,111.675 -0.52,114.377 Q-1.494,114.539 -2.062,114.133 Q-2.63,113.727 -2.791,112.753 Q-2.953,111.779 -2.547,111.212 Q-2.141,110.644 -1.167,110.482 Z"/>
  <path fill="rgb(100%, 100%, 100%)" opacity="0.009" d="M270.84,90.875 Q268.756,90.474 264.837,89.77 Q246.292,86.436 240.524,81.089 Q231.936,73.128 231.234,50.691 Q228.225,41.45 223.935,37.828 Q219.446,34.036 211.662,34.938 Q196.297,36.717 153.429,61.605 Q147.507,65.225 145.876,68.402 Q144.714,70.668 146.131,72.735 Q149.676,77.907 165.001,81.756 Q179.657,85.437 198.809,86.321 Q218.093,87.21 232.411,84.81 Q233.562,84.617 234.235,85.096 Q234.907,85.575 235.1,86.727 Q235.486,89.03 233.183,89.417 Q218.374,91.899 198.593,90.987 Q178.974,90.082 163.863,86.286 Q146.823,82.006 142.278,75.376 Q139.287,71.013 141.721,66.269 Q143.954,61.917 151.017,57.604 Q151.039,57.591 151.062,57.578 Q194.789,32.189 211.124,30.298 Q228.951,28.233 235.783,49.577 Q235.884,49.892 235.893,50.222 Q236.485,70.976 243.7,77.664 Q248.464,82.081 265.664,85.173 Q269.61,85.882 271.723,86.289 Q272.869,86.509 273.332,87.193 Q273.795,87.877 273.575,89.023 Q273.133,91.317 270.84,90.875 Z"/>
  <path fill="rgb(95.294118%, 99.607843%, 100%)" opacity="0.02" d="M50.471,370.865 Q59.438,366.548 62.581,363.611 Q50.787,361.162 25.418,370.084 Q23.335,370.817 21.928,370.141 Q20.52,369.466 19.787,367.383 Q18.322,363.217 22.488,361.752 Q51.153,351.67 65.438,355.204 Q69.846,356.295 71.606,359.115 Q73.958,362.882 71.119,367.155 Q67.629,372.407 54.302,378.823 Q52.313,379.781 50.839,379.265 Q49.366,378.749 48.408,376.759 Q46.492,372.78 50.471,370.865 Z"/>
  <path fill="rgb(73.333333%, 45.490196%, 36.862745%)" opacity="0.955" d="M229.46,162.103 Q267.583,135.784 297.529,144.984 Q309.284,148.596 321.331,158.101 Q328.416,163.692 341.102,176.399 Q357.112,192.437 365.38,197.278 Q373.662,202.126 381.979,202.171 Q386.921,201.338 392.154,200.461 Q393.875,200.173 394.43,201.826 Q395.08,203.764 393.143,204.414 Q387.669,206.252 382.228,206.274 Q327.06,215.57 307.66,219.412 Q276.914,225.5 264.844,230.835 Q253.489,235.854 251.356,243.501 Q249.876,248.808 252.029,264.896 Q254.121,280.53 254.476,290.808 Q254.547,292.851 252.504,292.922 Q251.09,292.97 250.546,291.663 Q237.71,260.779 236.825,244.921 Q236.289,235.301 241.143,227.14 Q244.786,221.015 242.615,214.102 Q238.861,202.147 218.651,172.082 Q217.511,170.385 219.208,169.245 Q220.056,168.675 220.765,168.814 Q221.474,168.953 222.044,169.801 Q242.584,200.357 246.515,212.877 Q249.234,221.534 244.656,229.23 Q240.439,236.319 240.907,244.693 Q241.57,256.579 249.437,277.732 Q248.867,272.081 247.977,265.438 Q245.713,248.519 247.419,242.403 Q250.071,232.896 263.192,227.096 Q275.677,221.577 306.866,215.402 Q324.281,211.954 370.337,204.139 Q366.819,202.857 363.315,200.805 Q354.592,195.699 338.209,179.287 Q325.694,166.751 318.799,161.31 Q307.352,152.279 296.328,148.892 Q268.275,140.273 231.782,165.467 Q230.941,166.048 230.231,165.917 Q229.52,165.787 228.939,164.946 Q227.778,163.264 229.46,162.103 Z"/>
  <path fill="rgb(15.686275%, 5.098039%, 23.137255%)" opacity="0.898" d="M353.934,314.859 Q354.105,287.577 354.569,265.848 Q308.14,267.608 284.186,280.639 Q282.084,291.92 278,299.289 Q273.033,308.249 266.178,309.111 Q261.667,309.677 258.41,306.618 Q255.708,304.08 255.12,299.978 Q254.132,293.083 259.289,285.401 Q263.931,278.487 272.627,272.761 Q274.468,258.223 273.242,236.662 Q273.061,233.491 274.556,231.816 Q274.91,231.419 275.358,231.106 Q272.096,227.12 265.088,219.552 Q234.541,186.566 227.125,166.931 Q224.881,160.99 230.822,158.746 Q236.764,156.502 239.008,162.444 Q245.546,179.756 274.408,210.922 Q286.13,223.581 288.693,227.853 Q292.397,234.026 289.651,238.559 Q288.394,240.635 286.199,241.673 Q286.718,254.906 285.996,265.689 Q311.256,254.923 352.905,253.203 Q354.095,249.675 355.101,245.654 Q355.681,227.57 356.528,214.527 Q357.372,201.522 358.356,195.919 Q358.998,192.271 360.164,190.597 Q361.623,188.505 364.037,187.916 Q367.712,187.019 370.324,189.794 Q371.646,191.198 372.162,193.406 Q373.838,200.576 371.844,221.516 Q370.464,236.011 367.754,247.361 Q366.885,275.193 366.636,314.938 Q366.596,321.289 360.245,321.249 Q353.895,321.209 353.934,314.859 Z"/>
  <path fill="rgb(13.333333%, 21.568627%, 78.823529%)" opacity="0.125" d="M231.713,258.999 Q227.105,259.706 226.271,260.395 Q226.693,260.821 227.625,261.301 Q228.631,261.818 229.538,262.126 Q229.599,262.014 229.675,261.899 Q230.62,260.468 232.051,261.413 Q234.016,262.712 234.018,264.007 Q234.02,265.488 232.507,265.896 Q231.991,266.035 231.269,265.979 Q228.86,265.791 226.057,264.35 Q221.851,262.187 222.893,259.404 Q223.894,256.73 231.193,255.61 Q232.888,255.35 233.148,257.045 Q233.408,258.739 231.713,258.999 Z"/>
  <path fill="rgb(5.882353%, 34.117647%, 0%)" d="M138.859,161.86 Q140.391,146.863 144.459,131.041 Q147.165,120.517 156.521,114.988 Q165.876,109.46 176.401,112.166 Q193.736,116.624 195.908,134.391 Q201.815,182.712 209.54,202.375 Q214.125,214.044 229.407,232.942 Q264.296,276.085 293.361,332.688 Q298.325,342.355 294.999,352.7 Q291.674,363.046 282.007,368.01 Q276.726,370.721 270.792,370.895 Q227.748,372.156 192.801,346.375 Q162.727,324.189 145.12,286.958 Q128.715,252.268 128.163,215.861 Q127.695,185.028 138.859,161.86 Z"/>
  <path fill="rgb(100%, 100%, 99.607843%)" opacity="0.017" d="M37.677,311.771 Q37.211,310.517 36.246,309.053 Q35.768,308.328 35.892,307.727 Q36.016,307.126 36.74,306.648 Q37.907,305.879 38.754,306.669 Q39.166,305.285 39.731,303.69 Q40.021,302.872 40.575,302.608 Q41.129,302.344 41.947,302.633 Q43.583,303.213 43.003,304.849 Q41.582,308.862 41.256,311.571 Q41.339,311.875 41.4,312.172 Q41.599,313.136 41.527,313.841 Q41.469,314.414 41.214,314.828 Q40.829,315.456 40.131,315.64 Q39.217,315.882 38.496,315.256 Q37.471,314.364 37.677,311.771 Z"/>
</svg>

