<svg xmlns="http://www.w3.org/2000/svg" width="384" height="384" viewBox="0 0 384 384">
  <defs/>
  <path fill="rgb(52.941176%, 64.313725%, 0%)" d="M273.104,166.978 Q268.713,155.424 269.254,149.129 Q269.647,144.566 272.869,141.188 Q272.367,140.271 271.226,138.501 Q269.997,136.593 267.795,133.613 Q265.999,136.887 262.609,137.182 Q257.945,137.588 256.249,132.869 Q255.67,131.259 255.625,128.891 Q255.552,125.086 256.658,119.342 Q249.174,110.049 238.215,96.929 Q234.646,92.655 238.919,89.086 Q241.864,86.627 245.21,88.502 Q255.295,94.154 261.317,101.789 Q261.743,100.443 262.201,99.045 Q263.067,96.399 264.823,95.509 Q266.579,94.62 269.225,95.486 Q274.516,97.219 272.784,102.51 Q270.17,110.492 268.689,116.409 Q268.721,116.526 268.751,116.643 Q277.458,127.613 280.587,132.469 Q287.33,142.936 281.137,148.667 Q278.858,150.775 283.513,163.022 Q285.491,168.226 280.287,170.205 Q275.082,172.183 273.104,166.978 Z"/>
  <path fill="rgb(99.607843%, 98.431373%, 98.823529%)" opacity="0.049" d="M250.099,240.978 Q259.517,238.29 261.609,238.828 Q263.058,239.201 263.542,240.542 Q264.062,241.987 263.038,243.217 Q262.534,243.823 261.438,244.412 Q259.856,245.263 256.549,246.465 Q237.476,253.399 200.922,260.148 Q198.423,260.609 197.962,258.11 Q197.5,255.611 200,255.149 Q230.275,249.56 248.293,243.888 Q247.773,241.642 250.099,240.978 Z"/>
  <path fill="rgb(2.352941%, 1.176471%, 22.352941%)" opacity="0.349" d="M228.337,96.026 Q188.849,92.429 142.13,117.939 Q132.952,122.952 122.734,129.708 Q127.257,148.174 126.241,191.258 Q126.157,194.826 124.331,196.568 Q122.505,198.31 118.937,198.226 Q111.801,198.058 111.97,190.922 Q112.81,155.254 110.03,138.493 Q104.394,142.55 98.478,147.079 Q98.033,148.54 97.625,150.072 Q97.98,150.301 98.29,150.581 Q100.161,152.274 100.34,155.838 Q100.412,157.282 100.575,160.519 Q110.051,349.391 109.789,405.94 Q109.67,431.629 105.738,435.233 Q101.231,439.362 96.272,435.778 Q94.573,434.55 93.512,432.374 Q92.614,430.533 91.753,427.025 Q90.263,420.955 88.306,407.928 Q80.064,353.085 62.838,171.38 Q61.936,171.207 61.071,170.808 Q57.468,169.145 56.808,165.18 Q56.4,162.73 57.605,159.713 Q58.715,156.932 62.291,150.934 Q65.946,144.804 72.077,148.459 Q72.568,148.751 72.989,149.087 Q79.805,143.496 86.316,138.433 Q89.922,128.487 95.316,121.247 Q100.959,113.675 107.329,113.141 Q112.784,112.683 116.599,116.66 Q126.384,110.273 135.289,105.41 Q185.819,77.818 229.632,81.81 Q236.74,82.457 236.093,89.566 Q235.769,93.12 233.83,94.735 Q231.891,96.35 228.337,96.026 Z M82.793,159.51 Q82.211,159.987 81.626,160.468 Q78.845,162.752 76.531,164.556 Q86.982,275.084 94.156,339.449 Q92.006,274.914 86.467,164.236 Q85.89,163.883 85.343,163.417 Q83.545,161.881 82.793,159.51 Z"/>
  <path fill="rgb(48.627451%, 54.509804%, 7.843137%)" opacity="0.993" d="M375.197,-43.608 Q369.329,-3.392 365.443,30.675 Q364.318,40.535 363.799,42.23 Q361.768,48.856 355.11,48.462 Q349.52,48.131 347.531,42.626 Q347.184,41.668 346.643,39.178 Q343.036,22.603 336.158,21.613 Q332.028,21.018 330.26,18.656 Q328.492,16.293 329.086,12.162 Q330.276,3.901 338.537,5.09 Q345.686,6.119 350.971,10.983 Q354.271,-15.805 358.679,-46.017 Q359.884,-54.277 368.143,-53.072 Q372.272,-52.469 374.036,-50.103 Q375.799,-47.737 375.197,-43.608 Z"/>
</svg>

