<svg xmlns="http://www.w3.org/2000/svg" width="384" height="384" viewBox="0 0 384 384">
  <defs/>
  <path fill="rgb(87.45098%, 94.509804%, 100%)" opacity="0.068" d="M283.602,276.913 Q286.288,276.597 289.558,276.059 Q289.173,264.368 290.988,249.647 Q291.285,247.24 291.401,246.089 Q289.597,241.683 294.223,239.111 Q298.155,236.925 301.379,240.027 Q302.828,241.421 303.2,243.493 Q303.388,244.536 303.293,246.065 Q303.217,247.298 302.748,251.098 Q302.038,256.858 301.681,262.066 Q305.955,257.672 312.437,260.707 Q315.021,261.916 321.248,266.87 Q324.152,269.18 326.738,271.123 Q333.145,272.775 336.528,278.699 Q339.465,283.844 334.321,286.781 Q331.195,288.566 328.17,286.615 Q325.334,284.784 321.99,282.349 Q321.842,282.341 321.689,282.337 Q318.162,282.249 307.038,284.694 Q306.17,290.493 305.148,298.611 Q304.408,304.489 298.53,303.749 Q295.001,303.305 293.734,299.982 Q291.688,294.615 290.628,287.889 Q287.572,288.377 284.984,288.681 Q279.1,289.372 278.409,283.488 Q277.718,277.604 283.602,276.913 Z"/>
  <path fill="rgb(60%, 31.764706%, 0%)" d="M106.261,79.603 Q85.618,130.877 48.057,257.181 Q45.57,265.545 40.071,272.32 Q34.572,279.096 26.899,283.251 Q19.226,287.407 10.546,288.31 Q1.867,289.212 -6.497,286.725 Q-14.861,284.238 -21.637,278.739 Q-28.412,273.24 -32.568,265.567 Q-36.723,257.894 -37.626,249.214 Q-38.529,240.535 -36.041,232.171 Q2.692,101.925 24.872,46.835 Q28.13,38.74 34.239,32.509 Q40.348,26.277 48.376,22.858 Q56.404,19.439 65.13,19.352 Q73.856,19.265 81.95,22.524 Q90.045,25.783 96.276,31.891 Q102.508,38 105.927,46.028 Q109.347,54.057 109.433,62.782 Q109.52,71.508 106.261,79.603 Z"/>
  <path fill="rgb(4.313725%, 4.313725%, 36.862745%)" opacity="0.222" d="M108.875,357.415 Q108.255,357.891 107.603,358.308 Q104.292,360.424 100.5,360.702 Q93.942,361.182 89.232,356.62 Q84.133,351.683 84.857,344.605 Q85.412,339.189 89.661,334.956 Q90.474,331.159 88.335,323.266 Q83.187,304.276 62.195,276.309 Q58.577,271.488 59.428,265.522 Q60.278,259.555 65.098,255.938 Q74.777,248.672 83.684,256.867 Q102.414,274.101 121.57,284.674 Q124.189,285.55 126.56,287.311 Q133.346,290.74 140.185,293.337 Q155.819,299.276 168.166,299.972 Q169.846,299.696 171.426,299.489 Q175.01,299.02 177.496,299.044 Q179.784,299.066 181.699,299.532 Q185.431,300.439 188.221,302.971 Q192.356,306.722 192.941,312.265 Q193.533,317.863 190.211,322.418 Q185.473,328.913 172.94,329.149 Q171.59,329.175 170.221,329.155 Q158.474,331.403 140.418,337.621 Q138.193,342.534 134.549,345.4 Q135.745,351.146 132.58,356.131 Q129.35,361.219 123.468,362.532 Q117.586,363.846 112.498,360.616 Q110.35,359.252 108.875,357.415 Z"/>
  <path fill="rgb(95.686275%, 100%, 100%)" opacity="0.037" d="M114.218,174.622 Q122.498,190.332 122.383,198.696 Q122.274,206.618 115.357,208.169 Q110.785,209.195 103.859,207.018 Q98.725,205.404 96.341,203.764 Q95.541,203.214 95.416,202.539 Q95.291,201.863 95.842,201.063 Q96.942,199.464 98.542,200.564 Q100.446,201.874 105.024,203.313 Q110.954,205.176 114.507,204.38 Q118.433,203.499 118.5,198.643 Q118.601,191.268 110.782,176.433 Q109.877,174.715 111.595,173.809 Q113.312,172.904 114.218,174.622 Z"/>
  <path fill="rgb(97.647059%, 0%, 29.019608%)" opacity="0.995" d="M42.972,64.205 Q45.297,67.977 46.071,70.243 Q49.576,80.515 41.924,87.202 Q39.352,89.45 36.093,90.392 Q35.921,91.27 35.759,92.139 Q35.145,95.44 34.694,98.379 Q38.624,109.733 38.985,119.108 Q39.433,130.738 33.19,136.279 Q28.71,140.255 22.79,139.966 Q17.718,139.718 13.792,136.311 Q10.332,133.307 8.515,128.185 Q5.08,118.502 6.677,101.807 Q4.293,96.186 0.753,89.654 Q-1.953,84.661 -0.336,79.216 Q1.282,73.772 6.275,71.066 Q9.476,69.331 12.862,69.373 Q12.937,69.095 13.013,68.815 Q0.527,49.675 0.754,36.679 Q1.265,7.425 46.247,-1.131 Q51.826,-2.192 56.522,1.003 Q61.218,4.198 62.279,9.778 Q63.099,14.088 61.264,18.074 Q49.745,43.098 42.972,64.205 Z"/>
</svg>

