<svg xmlns="http://www.w3.org/2000/svg" width="384" height="384" viewBox="0 0 384 384">
  <defs/>
  <path fill="rgb(0%, 10.588235%, 9.019608%)" d="M-11.16,214.687 Q-7.436,166.096 -2.406,149.333 Q0.8,138.647 6.895,137.462 Q7.086,134.879 6.854,128.945 Q6.697,124.893 10.732,124.493 Q29.146,122.669 44.311,123.264 Q44.863,123.286 45.325,123.301 Q44.757,111.904 49.579,97.41 Q50.491,94.669 53.374,94.474 Q164.018,87.009 190.548,89.406 Q205.217,90.731 208.9,96.02 Q211.761,100.127 208.793,108.803 Q206.943,114.209 206.921,117.058 Q206.886,121.619 210.321,125.915 Q221.125,139.431 265.042,152.427 Q269.17,153.648 267.948,157.776 Q267.338,159.84 266,160.567 Q264.663,161.294 262.599,160.683 Q216.089,146.92 203.595,131.292 Q195.474,121.133 200.646,106.016 Q202.202,101.468 201.835,100.941 Q200.445,98.945 189.773,97.981 Q164.266,95.677 56.88,102.868 Q53.298,114.77 53.985,123.84 Q54.39,129.184 51.454,130.983 Q49.647,132.09 43.973,131.868 Q31.048,131.36 15.565,132.692 Q15.635,138.886 14.986,141.245 Q13.633,146.158 8.477,145.924 L8.513,145.782 Q7.311,146.909 5.841,151.808 Q1.078,167.681 -2.575,215.345 Q-2.739,217.491 -3.895,218.482 Q-5.05,219.473 -7.196,219.308 Q-9.342,219.144 -10.333,217.988 Q-11.324,216.833 -11.16,214.687 Z"/>
  <path fill="rgb(0%, 100%, 60%)" d="M300.695,268.794 Q301.202,266.841 301.79,264.433 Q302.353,262.13 304.657,262.693 Q306.045,263.032 306.392,264.003 Q306.634,264.019 306.881,264.063 Q311.521,264.895 314.18,278.656 Q314.63,280.984 312.302,281.434 Q309.973,281.884 309.523,279.555 Q307.481,268.989 306.044,268.731 Q305.862,268.698 305.213,270.171 Q302.989,278.338 301.718,278.931 Q299.638,279.901 298.579,277.862 Q298.33,277.383 298.301,276.815 Q298.284,276.487 298.343,276.049 Q298.423,275.469 298.637,274.595 Q299.134,272.571 299.921,270.568 Q300.297,269.611 300.695,268.794 Z"/>
  <path fill="rgb(90.980392%, 100%, 96.862745%)" opacity="0.011" d="M136.868,375.552 Q160.454,385.099 173.808,387.272 Q188.54,389.669 196.573,384.398 Q213.542,373.262 213.024,315.837 Q177.872,312.909 147.981,326.02 Q147.135,326.391 146.849,326.505 Q146.417,326.678 146.068,326.767 Q145.215,326.985 144.366,326.872 Q142.462,326.62 141.364,325.048 Q140.097,323.234 140.817,321.139 Q141.299,319.735 143.944,317.861 Q148.217,314.833 152.25,311.752 Q155.701,309.115 158.338,312.566 Q158.435,312.693 158.523,312.818 Q186.244,304.185 217.775,307.564 Q221.584,307.972 221.655,311.802 Q222.881,377.523 201.339,391.661 Q190.481,398.786 172.413,395.846 Q158.098,393.517 133.609,383.604 Q131.596,382.789 130.996,381.376 Q130.397,379.962 131.212,377.949 Q132.842,373.922 136.868,375.552 Z"/>
  <path fill="rgb(19.607843%, 85.490196%, 0%)" d="M153.091,20.14 Q136.353,17.329 123.327,20.553 Q115.865,22.401 105.336,28.113 Q97.853,32.173 94.021,33.168 Q86.821,35.036 80.166,31.729 Q68.594,25.978 49.903,-4.513 Q48.253,-7.204 48.774,-9.375 Q49.294,-11.545 51.986,-13.195 Q57.368,-16.495 60.668,-11.112 Q77.463,16.285 85.786,20.421 Q89.57,22.302 99.315,17.015 Q111.263,10.532 120.292,8.296 Q135.861,4.442 155.183,7.688 Q161.409,8.734 160.363,14.96 Q159.84,18.073 158.022,19.368 Q156.204,20.663 153.091,20.14 Z"/>
  <path fill="rgb(0%, 10.980392%, 11.372549%)" d="M89.502,332.472 Q89.88,321.129 90.33,301.241 Q91.107,266.895 92.352,254.406 Q94.341,234.463 100.097,224.425 Q106.626,213.037 120.46,208.942 Q133.111,205.197 156.891,206.352 Q160.2,206.512 160.039,209.821 Q159.959,211.475 159.091,212.262 Q158.224,213.049 156.57,212.969 Q133.914,211.869 122.34,215.294 Q111.052,218.636 105.844,227.72 Q100.793,236.53 98.944,255.063 Q97.724,267.299 96.953,301.39 Q96.502,321.314 96.123,332.692 Q96.068,334.348 95.213,335.148 Q94.357,335.948 92.702,335.893 Q89.392,335.782 89.502,332.472 Z"/>
  <path fill="rgb(0%, 3.529412%, 1.176471%)" d="M44.315,414.548 Q46.989,383.52 51.438,339.792 Q56.874,286.367 54.744,277.772 Q53.463,272.606 49.306,271.329 Q46.183,270.37 35.561,270.608 Q17.706,271.007 4.646,269.186 Q3.797,269.068 3.432,268.584 Q3.067,268.1 3.185,267.252 Q3.422,265.554 5.12,265.79 Q17.906,267.573 35.485,267.18 Q46.659,266.93 50.313,268.052 Q56.324,269.898 58.071,276.947 Q60.346,286.12 54.849,340.139 Q50.403,383.84 47.731,414.843 Q47.658,415.697 47.194,416.087 Q46.73,416.477 45.876,416.403 Q44.168,416.256 44.315,414.548 Z"/>
  <path fill="rgb(0%, 60.392157%, 0%)" d="M205.411,128.252 Q231.174,117.407 244.855,118.488 Q252.318,119.078 256.087,123.217 Q260.139,127.666 258.772,134.188 Q256.702,144.069 244.105,152.95 Q231.03,162.167 214.752,163.909 Q209.077,164.516 208.47,158.842 Q208.166,156.004 209.433,154.434 Q210.7,152.863 213.537,152.56 Q226.872,151.133 237.529,143.62 Q246.452,137.33 247.601,131.847 Q247.77,131.037 247.648,130.903 Q246.918,130.101 243.956,129.867 Q233.043,129.005 209.839,138.772 Q204.579,140.986 202.365,135.726 Q200.151,130.466 205.411,128.252 Z"/>
  <path fill="rgb(51.764706%, 83.529412%, 45.882353%)" opacity="0.998" d="M360.004,175.829 Q353.71,174.694 347.999,173.713 Q347.772,173.852 347.53,174.001 Q359.4,191.34 368.66,194.09 Q370.171,194.538 370.483,196.084 Q371.001,198.652 368.432,199.17 Q336.462,205.618 324.105,204.173 Q317.368,203.386 315.411,200.008 Q313.366,196.478 316.713,191.641 Q321.46,184.781 337.52,174.19 Q324.869,175.005 312.064,173.234 Q310.257,175.788 308.334,178.856 Q307.638,179.967 306.735,180.174 Q305.832,180.381 304.722,179.685 Q302.501,178.294 303.893,176.073 Q305.129,174.1 306.342,172.314 Q304.561,171.989 302.777,171.613 Q295.252,170.029 292.961,168.411 Q291.533,167.403 291.407,165.94 Q291.226,163.833 293.332,162.883 Q294.71,162.262 297.975,162.215 Q303.458,162.138 313.428,163.262 Q321.953,154.138 329.153,155.469 Q334.882,156.529 343.063,167.564 Q344.439,167.793 345.861,168.033 Q346.879,167.873 347.858,167.69 Q357.58,161.825 370.155,155.02 Q371.49,154.297 372.781,155.095 Q375.009,156.474 373.631,158.702 Q368.935,166.298 358.445,170.224 Q359.674,170.444 360.934,170.671 Q362.223,170.904 362.752,171.665 Q363.28,172.426 363.048,173.715 Q362.583,176.294 360.004,175.829 Z M343.08,176.787 Q325.668,187.91 321.022,194.623 Q319.567,196.727 319.946,197.381 Q320.586,198.485 324.713,198.968 Q334.753,200.142 359.672,195.529 Q355.981,193.062 352.483,189.267 Q348.835,185.31 343.08,176.787 Z M319.923,164.059 Q326.852,164.97 335.457,166.329 Q331.019,161.144 328.2,160.623 Q324.599,159.957 319.923,164.059 Z"/>
  <path fill="rgb(36.470588%, 3.137255%, 17.647059%)" d="M392.605,20.235 Q376.794,65.806 372.724,105.278 Q370.268,129.101 371.631,170.699 Q372.565,199.226 372.094,214.937 Q371.305,241.242 366.898,267.223 Q366.748,268.112 366.228,268.481 Q365.708,268.85 364.82,268.699 Q363.043,268.398 363.344,266.62 Q369.899,227.968 368.028,170.817 Q366.657,128.975 369.138,104.908 Q373.251,65.02 389.199,19.054 Q389.495,18.202 390.068,17.924 Q390.642,17.646 391.493,17.942 Q393.196,18.532 392.605,20.235 Z"/>
  <path fill="rgb(3.137255%, 27.45098%, 13.72549%)" opacity="0.845" d="M365.41,223.516 Q343.448,199.475 340.375,201.452 Q338.529,202.64 342.902,223.512 Q349.865,256.738 347.918,272.658 Q365.564,275.976 369.49,285.718 Q372.15,292.322 369.241,312.31 Q366.142,333.604 366.32,347.589 Q366.629,371.905 374.633,396.895 Q374.894,397.711 374.617,398.25 Q374.339,398.789 373.523,399.051 Q371.89,399.573 371.367,397.941 Q363.207,372.461 362.891,347.633 Q362.71,333.377 365.848,311.816 Q368.624,292.744 366.31,287 Q362.924,278.597 345.709,275.75 Q344.023,275.471 344.296,273.784 Q346.756,258.618 339.547,224.215 Q337.066,212.379 336.586,208.127 Q335.71,200.377 338.519,198.569 Q344.027,195.025 367.942,221.203 Q369.098,222.469 367.832,223.625 Q366.566,224.781 365.41,223.516 Z"/>
  <path fill="rgb(38.039216%, 93.333333%, 56.470588%)" opacity="0.997" d="M26.656,226.863 Q13.011,245.935 5.06,258.773 Q12.383,252.81 21.879,244.27 Q28.906,237.949 35.227,244.977 Q38.387,248.49 38.21,251.827 Q38.033,255.164 34.519,258.324 Q15.44,275.484 4.158,283.125 Q-2.284,287.488 -6.683,289.014 Q-17.026,292.603 -21.993,284.775 Q-26.992,276.897 -16.336,257.824 Q-7.783,242.513 11.282,215.864 Q16.781,208.177 24.468,213.676 Q28.311,216.426 28.858,219.723 Q29.405,223.019 26.656,226.863 Z"/>
  <path fill="rgb(30.588235%, 43.137255%, 0.784314%)" opacity="0.973" d="M219.932,37.5 Q207.921,34.276 176.721,38.511 Q160.671,40.689 128.82,46.766 Q137.276,63.255 140.806,92.218 Q140.914,93.103 140.525,93.6 Q140.136,94.096 139.251,94.204 Q137.48,94.42 137.265,92.649 Q133.707,63.457 125.161,47.466 Q122.289,48.019 119.297,48.601 Q87.764,54.734 78.076,55.813 Q70.859,56.617 67.818,55.961 Q66.757,57.556 65.745,59.256 Q65.644,59.426 65.612,59.48 Q65.568,59.551 65.534,59.6 Q65.445,59.731 65.34,59.842 Q64.639,60.572 63.653,60.347 Q61.977,59.963 62.298,58.273 Q62.347,58.016 62.638,57.434 Q63.571,55.564 64.658,53.251 Q64.627,53.008 64.633,52.746 Q64.67,51.079 66.71,49.096 Q67.723,48.111 68.714,48.709 Q71.128,45.721 73.761,43.171 Q82.58,34.628 91.228,33.855 Q91.442,32.49 92.845,31.016 Q97.84,25.765 106.833,27.202 Q118.052,28.994 126.37,42.416 Q126.694,42.939 127.012,43.479 Q159.813,37.206 176.241,34.976 Q208.153,30.644 220.857,34.055 Q222.58,34.517 222.117,36.24 Q221.886,37.101 221.34,37.416 Q220.793,37.731 219.932,37.5 Z M123.276,44.196 Q115.839,32.253 106.27,30.724 Q99.131,29.584 95.43,33.474 Q95.191,33.726 95.037,33.892 Q96.562,34.059 98.082,34.469 Q98.943,34.702 99.258,35.249 Q99.572,35.796 99.339,36.657 Q99.016,37.851 97.785,37.967 Q94.743,38.254 93.082,37.358 Q84.93,37.319 76.243,45.733 Q73.025,48.85 70.143,52.677 Q72.722,52.82 77.681,52.267 Q87.225,51.204 118.616,45.099 Q120.983,44.638 123.276,44.196 Z"/>
  <path fill="rgb(30.196078%, 58.039216%, 0%)" opacity="0.78" d="M75.95,92.784 Q83.903,23.67 94.255,2.462 Q95.084,0.764 95.059,0.504 Q95.038,0.285 94.827,-0.313 Q94.636,0.378 94.417,1.079 Q91.353,10.904 83.947,17.471 Q65.174,34.117 26.949,23.428 Q9.303,24.161 -7.958,37.989 Q-10.341,39.898 -12.251,37.515 Q-13.205,36.323 -13.087,35.25 Q-12.968,34.177 -11.777,33.222 Q3.849,20.704 20.002,18.014 Q20.915,15.291 23.723,16.095 Q26.079,16.77 28.048,17.284 Q30.671,17.243 33.307,17.457 Q36.571,17.722 38.444,18.389 Q40.232,19.025 40.864,20.336 Q66.605,24.685 79.894,12.901 Q86.028,7.462 88.586,-0.74 Q90.644,-7.337 89.794,-12.59 Q89.404,-15.001 91.669,-15.912 Q93.086,-16.481 94.079,-16.058 Q95.072,-15.634 95.642,-14.218 Q97.043,-10.735 98.957,-6.337 Q100.989,-1.67 101.14,-0.07 Q101.326,1.9 99.744,5.141 Q89.851,25.408 82.018,93.482 Q81.669,96.516 78.635,96.167 Q75.601,95.818 75.95,92.784 Z"/>
  <path fill="rgb(1.568627%, 14.509804%, 4.705882%)" d="M182.134,388.252 Q174.082,324.751 176.399,269.993 Q177.317,248.3 174.41,241.637 Q170.838,233.451 151.856,217.903 Q149.539,216.005 151.437,213.688 Q152.386,212.529 153.44,212.425 Q154.493,212.32 155.652,213.269 Q175.751,229.732 179.9,239.241 Q183.361,247.172 182.385,270.246 Q180.089,324.499 188.077,387.498 Q188.265,388.984 187.617,389.821 Q186.968,390.658 185.482,390.847 Q182.511,391.223 182.134,388.252 Z"/>
</svg>

