<svg xmlns="http://www.w3.org/2000/svg" width="384" height="384" viewBox="0 0 384 384">
  <defs/>
  <path fill="rgb(100%, 56.470588%, 0%)" opacity="0.693" d="M194.732,232.6 Q200.034,237.843 199.888,247.354 Q202.437,249.72 200.52,253.567 Q200.04,254.531 198.951,255.378 Q197.302,263.267 192.955,270.326 Q186.502,280.805 178.284,281.761 Q167.723,282.991 161.66,268.73 Q159.812,264.384 163.82,261.886 Q172.003,256.788 179.188,252.941 Q170.708,249.461 162.658,242.583 Q158.462,238.998 162.046,234.802 Q163.839,232.704 165.784,232.551 Q167.729,232.399 169.827,234.191 Q179.094,242.108 188.714,244.466 Q188.331,241.792 186.971,240.447 Q185.009,238.507 184.998,236.556 Q184.988,234.605 186.928,232.643 Q190.809,228.719 194.732,232.6 Z M184.732,262.491 Q179.647,265.202 173.988,268.603 Q175.584,270.964 177.007,270.798 Q179.91,270.46 183.557,264.538 Q184.181,263.525 184.732,262.491 Z"/>
  <path fill="rgb(0%, 33.333333%, 0%)" d="M185.835,219.34 Q208.839,232.895 231.522,236.821 Q244.645,239.092 265.38,238.39 Q284.768,237.734 292.122,241.219 Q303.651,246.683 309.832,266.489 Q309.884,266.657 309.901,266.831 Q310.461,272.48 315.82,274.061 Q320.466,275.432 325.665,273.739 Q327.005,273.302 327.737,272.839 Q324.746,271.729 313.919,272.599 Q312.21,272.737 312.073,271.028 Q311.935,269.319 313.644,269.182 Q327.301,268.085 330.477,270.444 Q331.708,271.359 331.686,272.717 Q331.668,273.856 330.706,274.834 Q329.448,276.113 326.727,276.999 Q320.517,279.022 314.85,277.35 Q307.363,275.141 306.508,267.348 Q300.781,249.117 290.653,244.317 Q284.052,241.189 265.496,241.817 Q244.408,242.53 230.938,240.199 Q207.638,236.167 184.095,222.293 Q183.356,221.858 183.204,221.271 Q183.053,220.685 183.488,219.946 Q184.358,218.469 185.835,219.34 Z"/>
  <path fill="rgb(52.54902%, 96.078431%, 41.176471%)" opacity="0.504" d="M-6.192,80.417 Q-7.884,115.086 -17.433,150.169 Q-19.707,158.524 -19.97,160.837 Q-19.977,160.899 -19.983,160.958 Q-16.326,160.944 -0.158,158.194 Q23.101,154.238 42.667,151.756 Q18.727,107.423 7.784,82.381 Q-0.359,63.745 -9.814,34.211 Q-10.678,31.515 -9.761,29.735 Q-8.845,27.955 -6.148,27.092 Q-0.756,25.365 0.971,30.758 Q10.25,59.741 18.161,77.847 Q29.795,104.472 56.586,153.667 Q57.112,154.633 57.238,155.727 Q57.562,158.539 56.318,160.107 Q55.074,161.676 52.262,162 Q29.736,164.597 1.741,169.358 Q-11.214,171.562 -15.434,171.965 Q-23.393,172.727 -27.071,170.383 Q-32.09,167.185 -31.222,159.557 Q-30.861,156.385 -28.36,147.195 Q-19.135,113.302 -17.503,79.865 Q-17.227,74.209 -11.572,74.485 Q-8.744,74.623 -7.399,76.106 Q-6.054,77.589 -6.192,80.417 Z"/>
  <path fill="rgb(54.509804%, 100%, 0%)" opacity="0.207" d="M94.009,172.264 Q98.596,192.773 107.132,210.299 Q109.661,215.492 110.432,217.926 Q113.219,226.72 108.562,233.679 Q105.143,238.789 97.893,241.415 Q95.471,242.292 88.907,244.062 Q73.861,248.117 61.306,252.547 Q55.627,254.551 50.194,251.952 Q44.762,249.353 42.758,243.674 Q40.754,237.994 43.353,232.562 Q45.952,227.129 51.631,225.125 Q63.859,220.811 78.122,216.864 Q70.172,198.914 65.632,178.611 Q64.317,172.734 67.544,167.648 Q70.77,162.563 76.647,161.249 Q82.524,159.934 87.609,163.161 Q92.695,166.387 94.009,172.264 Z"/>
  <path fill="rgb(15.294118%, 0%, 16.078431%)" opacity="0.566" d="M115.51,251.324 Q125.782,244.32 121.769,230.652 Q118.573,219.769 112.252,214.188 Q87.944,213.697 86.234,218.024 Q86.161,218.209 86.13,218.449 Q86.561,219.45 86.925,220.263 Q90.617,228.521 102.293,250.874 Q104.619,255.327 105.889,257.763 Q105.894,257.773 105.9,257.782 Q108.017,261.842 103.968,263.979 Q101.933,265.053 100.379,264.572 Q98.825,264.092 97.751,262.058 Q97.746,262.048 97.741,262.038 Q94.371,255.655 88.117,244.9 Q81.295,233.169 79.302,228.576 Q77.353,224.086 76.996,220.487 Q72.853,210.674 63.924,187.568 Q57.188,170.136 52.561,158.26 Q50.89,153.974 55.177,152.303 Q57.321,151.468 58.81,152.122 Q60.299,152.776 61.135,154.919 Q65.766,166.805 72.507,184.251 Q78.51,199.786 82.311,209.216 Q85.315,207.293 89.969,206.307 Q97.982,204.611 114.072,205.026 Q115.582,205.065 116.776,205.992 Q126.288,213.381 130.598,228.06 Q136.497,248.151 120.694,258.926 Q118.793,260.222 117.195,259.92 Q115.596,259.618 114.3,257.717 Q111.708,253.916 115.51,251.324 Z"/>
  <path fill="rgb(56.470588%, 100%, 69.411765%)" opacity="0.439" d="M217.87,101.397 Q197.321,82.491 192.315,68.343 Q189.198,59.535 192.112,49.612 Q192.854,47.085 192.78,46.883 Q192.532,46.205 189.098,44.698 Q183.871,42.405 167.572,38.264 Q163.985,46.311 160.627,54.913 Q158.929,59.262 154.58,57.564 Q152.405,56.716 151.742,55.204 Q151.079,53.692 151.928,51.517 Q155.048,43.524 158.365,35.99 Q147.61,33.399 133.371,30.225 Q131.092,29.718 130.207,28.324 Q129.321,26.931 129.829,24.652 Q130.567,21.341 133.944,21.02 Q134.515,20.965 138.949,18.774 Q144.627,15.967 147.734,13.237 Q149.256,11.9 149.732,10.953 L149.884,11.182 Q149.151,9.456 140.581,7.712 Q136.005,6.781 136.936,2.206 Q137.822,-2.149 142.215,-1.479 Q158.564,1.013 173.991,-1.325 Q182.619,-2.632 183.978,2.144 Q184.745,4.836 180.633,12.153 Q175.932,20.519 171.55,29.659 Q187.364,33.74 192.85,36.147 Q199.929,39.253 201.548,43.668 Q202.682,46.761 201.073,52.243 Q199.01,59.268 201.119,65.229 Q205.351,77.189 224.193,94.525 Q225.911,96.105 225.979,97.755 Q226.048,99.404 224.467,101.122 Q221.306,104.559 217.87,101.397 Z M162.309,27.346 Q166.997,17.424 172.053,8.361 Q165.595,9.136 159.002,9.146 Q160.242,14.678 153.899,20.252 Q151.674,22.207 148.612,24.104 Q156.046,25.82 162.309,27.346 Z"/>
  <path fill="rgb(93.333333%, 100%, 76.078431%)" opacity="0.264" d="M175.247,74.966 Q175.374,74.004 175.506,72.818 Q176.626,62.723 177.068,42.32 Q177.46,24.204 177.123,11.244 Q177.064,8.974 176.99,7.342 Q175.774,6.484 175.999,4.475 Q176.261,2.141 176.695,1.28 Q177.258,0.163 178.252,-0.267 Q188.519,-18.403 201.5,-12.941 Q209.617,-9.525 228.42,12.93 Q252.314,41.465 269.008,54.347 Q271.489,56.262 269.574,58.742 Q268.617,59.983 267.519,60.124 Q266.42,60.266 265.18,59.309 Q247.946,46.01 223.615,16.953 Q205.787,-4.338 199.069,-7.165 Q190.88,-10.611 183.05,4.009 Q183.264,6.315 183.388,11.081 Q183.729,24.19 183.333,42.456 Q182.885,63.137 181.734,73.509 Q181.013,80.009 179.883,82.008 Q179.032,83.512 177.566,83.927 Q175.458,84.523 173.91,82.807 Q172.907,81.694 172.165,78.978 Q171.752,77.467 172.301,76.505 Q172.85,75.543 174.362,75.13 Q174.831,75.002 175.247,74.966 Z"/>
  <path fill="rgb(30.588235%, 0%, 88.235294%)" opacity="0.482" d="M298.207,27.387 Q260.31,41.157 242.434,45.694 Q223.552,50.485 213.879,48.47 Q217.136,57.82 218.83,64.255 Q224.08,84.197 223.008,101.371 Q222.824,104.317 219.879,104.133 Q217.496,103.984 217.144,101.623 Q212.24,68.775 205.953,44.715 Q201.028,40.557 199.003,32.343 Q198.076,28.58 197.413,20.969 Q196.486,18.336 195.704,15.971 Q188.469,5.005 186.377,-1.426 Q185.755,-3.338 185.887,-4.512 Q186.127,-6.641 188.055,-7.285 Q189.583,-7.796 191.031,-6.809 Q190.998,-16.798 195.666,-24.06 Q196.468,-25.308 197.948,-25.409 Q199.42,-25.509 200.206,-24.823 Q200.993,-24.137 201.093,-22.665 Q201.714,-13.528 202.26,1.984 Q202.533,9.73 202.919,15.605 Q203.14,16.175 203.359,16.753 Q203.942,17.594 204.553,18.46 Q205.661,20.032 205.022,21.302 Q207.981,29.704 210.69,39.62 Q210.997,40.448 211.295,41.259 Q212.47,41.962 213.823,42.373 Q221.882,44.82 240.982,39.973 Q258.573,35.509 296.191,21.84 Q298.965,20.832 299.973,23.605 Q300.477,24.992 300.035,25.938 Q299.594,26.883 298.207,27.387 Z"/>
  <path fill="rgb(78.039216%, 71.764706%, 59.215686%)" opacity="0.009" d="M336.257,-12.395 Q340.426,10.064 341.146,22.444 Q351.349,15.258 356.692,14.601 Q361.981,13.951 367.392,17.205 Q370.546,19.101 377.884,25.426 Q384.165,30.841 388.208,34.024 Q389.418,34.977 389.547,36.059 Q389.676,37.141 388.723,38.352 Q386.816,40.774 384.394,38.867 Q380.244,35.599 373.859,30.096 Q362.291,20.124 357.444,20.72 Q352.626,21.312 341.222,29.977 Q341.117,31.792 340.865,33.179 Q339.838,38.838 336.079,40.042 Q333.946,40.726 330.341,39.536 Q329.103,39.127 328.938,39.134 Q325.858,39.264 325.729,36.184 Q325.666,34.679 326.814,33.705 Q331.265,29.927 335.162,26.894 Q335.143,15.38 330.196,-11.269 Q329.915,-12.785 330.532,-13.683 Q331.149,-14.581 332.664,-14.863 Q335.695,-15.425 336.257,-12.395 Z"/>
  <path fill="rgb(0%, 0%, 17.647059%)" d="M175.402,300.007 Q176.876,297.236 178.067,294.819 Q171.399,293.54 166.815,292 Q152.315,287.13 142.687,276.665 Q121.236,253.353 126.465,203.211 Q127.539,192.909 135.583,186.384 Q143.628,179.86 153.929,180.934 Q164.231,182.008 170.756,190.052 Q177.281,198.096 176.207,208.398 Q173.319,236.096 179.489,242.802 Q181.454,244.937 193.123,246.641 Q203.29,248.126 208.568,249.967 Q223.598,255.209 229.621,268.489 Q235.189,280.768 230.828,296.942 Q227.894,307.823 219.552,323.501 Q214.686,332.644 204.78,335.669 Q194.874,338.694 185.73,333.829 Q176.586,328.963 173.561,319.057 Q170.536,309.151 175.402,300.007 Z"/>
  <path fill="rgb(100%, 11.764706%, 20%)" opacity="0.832" d="M87.743,238.344 Q87.925,237.753 88.162,237.135 Q90.181,231.86 95.012,225.997 Q104.371,214.637 113.159,213.368 Q114.421,212.105 116.726,211.356 Q120.388,210.166 128.209,211.624 Q144.933,214.742 164.662,224.729 Q189.851,237.48 206.156,255.647 Q226.934,278.797 229.855,307.386 Q229.938,308.193 229.799,308.992 Q229.295,311.891 227.594,313.089 Q225.892,314.287 222.993,313.783 Q101.442,292.673 78.191,266.862 Q71.77,259.734 73.279,252.408 Q74.68,245.607 82.66,240.88 Q84.961,239.516 87.743,238.344 Z M124.44,243.337 Q109.552,244.195 99.794,246.701 Q98.6,249.076 94.959,249.377 Q93.397,249.507 92.143,249.249 Q90.234,250.074 88.66,251.007 Q85.159,253.081 84.808,254.784 Q84.5,256.279 86.937,258.983 Q95.685,268.694 127.083,279.222 Q161.468,290.751 216.93,300.756 Q212.693,280.554 197.396,263.51 Q182.565,246.986 159.346,235.232 Q141.12,226.005 126.051,223.196 Q125.362,223.067 124.756,222.963 Q124.589,223.229 124.395,223.501 Q121.56,227.482 117.126,225.426 Q112.501,223.281 104.097,233.482 Q103.955,233.654 103.817,233.825 Q112.593,232.229 123.763,231.585 Q129.639,231.246 129.978,237.122 Q130.147,240.06 128.763,241.614 Q127.378,243.168 124.44,243.337 Z"/>
  <path fill="rgb(86.27451%, 100%, 86.666667%)" opacity="0.052" d="M394.202,69.067 Q370.723,71.309 358.8,57.846 Q349.351,47.177 349.243,29.592 Q349.151,14.705 354.696,5.661 Q358.177,-0.015 362.803,0.375 Q367.801,0.796 370.2,8.047 Q371.474,11.896 367.625,13.169 Q365.701,13.806 364.42,13.162 Q363.14,12.518 362.503,10.594 Q362.253,9.84 362.007,9.291 Q361.814,9.564 361.608,9.9 Q357.273,16.97 357.35,29.542 Q357.44,44.082 364.87,52.471 Q374.058,62.846 393.431,60.996 Q395.449,60.803 396.554,61.715 Q397.659,62.628 397.852,64.646 Q398.238,68.681 394.202,69.067 Z"/>
  <path fill="rgb(100%, 78.431373%, 0%)" opacity="0.381" d="M133.431,193.263 Q136.205,197.727 138.565,196.8 Q142.644,195.197 146.753,185.558 Q157.94,159.319 155.566,108.624 Q155.461,106.382 156.529,105.208 Q157.598,104.034 159.841,103.929 Q164.326,103.719 164.536,108.204 Q167.007,160.951 155.014,189.08 Q149.43,202.178 141.85,205.158 Q132.527,208.822 125.804,198.003 Q123.434,194.189 127.247,191.819 Q131.061,189.449 133.431,193.263 Z"/>
  <path fill="rgb(92.156863%, 50.980392%, 0%)" opacity="0.771" d="M298.205,133.094 Q308.312,154.406 304.235,168.935 Q303.84,170.343 303.361,171.616 Q315.691,166.751 336.914,161.788 Q338.584,161.397 338.974,163.067 Q339.093,163.575 338.908,164.063 Q319.822,214.558 299.728,234.824 Q321.169,228.103 338.433,216.687 Q352.096,207.652 356.656,200.002 Q358.097,197.585 357.769,197.024 Q357.612,196.755 355.479,197.46 Q353.852,197.998 353.314,196.37 Q352.776,194.742 354.403,194.204 Q359.175,192.627 360.731,195.297 Q362.077,197.604 359.601,201.758 Q354.64,210.08 340.324,219.547 Q319.892,233.058 293.805,240.125 Q292.826,240.891 291.845,241.585 Q282.197,248.416 271.104,249.414 Q264.602,249.998 252.737,248.255 Q249.049,247.713 245.969,247.452 Q240.275,247.758 234.388,247.843 Q233.025,247.863 232.699,246.54 Q232.288,244.875 233.953,244.465 Q238.278,243.397 245.985,244.018 Q271.024,242.658 292.235,236.996 Q313.798,219.692 334.547,165.874 Q312.513,171.186 301.018,176.309 Q298.193,180.61 293.795,182.395 Q292.375,182.971 291.357,182.832 Q290.348,182.695 289.815,181.934 Q289.213,181.075 289.571,180.008 Q290.211,178.102 294.8,175.559 Q296.542,174.594 298.64,173.625 Q300.025,171.25 300.934,168.009 Q304.664,154.715 295.107,134.563 Q294.373,133.014 295.922,132.279 Q296.696,131.912 297.267,132.116 Q297.838,132.319 298.205,133.094 Z M283.139,242.695 Q273.51,244.739 263.173,245.977 Q267.684,246.279 270.797,245.999 Q277.223,245.421 283.139,242.695 Z"/>
  <path fill="rgb(79.215686%, 39.607843%, 0%)" opacity="0.835" d="M252.163,254.128 Q263.648,236.88 267.138,219.191 Q269.198,208.754 268.93,190.593 Q268.653,171.882 271.53,163.084 Q276.228,148.717 292.162,136.968 Q292.852,136.459 293.452,136.55 Q294.051,136.64 294.56,137.33 Q295.577,138.71 294.197,139.727 Q279.146,150.825 274.789,164.15 Q272.09,172.403 272.358,190.542 Q272.631,209.064 270.502,219.855 Q266.88,238.213 255.017,256.028 Q254.067,257.455 252.64,256.505 Q251.213,255.555 252.163,254.128 Z"/>
  <path fill="rgb(100%, 11.764706%, 100%)" opacity="0.999" d="M138.535,288.494 Q138.089,291.372 135.089,294.154 Q131.694,297.302 128.422,297.178 Q125.15,297.055 122.002,293.659 Q112.846,283.784 111.208,277.637 Q109.329,270.587 114.175,265.986 Q117.786,262.557 123.55,262.761 Q134.096,263.134 148.883,273.134 Q152.718,275.728 153.339,278.943 Q153.96,282.157 151.366,285.992 Q146.187,293.649 138.535,288.494 Z"/>
  <path fill="rgb(52.156863%, 94.117647%, 29.019608%)" opacity="0.576" d="M391.882,245.147 Q389.265,244.488 384.52,243.283 Q382.606,242.796 380.869,242.36 Q381.085,242.619 381.327,242.911 Q386.495,249.119 389.509,252.798 Q395.758,260.424 388.132,266.673 Q380.506,272.922 374.257,265.296 Q371.287,261.672 366.171,255.526 Q357.217,244.769 354.71,241.219 Q346.873,230.12 352.973,222.961 Q357.808,217.286 369.933,219.545 Q374.589,220.413 389.377,224.171 Q394.104,225.372 396.696,226.025 Q406.257,228.432 403.85,237.993 Q401.444,247.554 391.882,245.147 Z"/>
  <path fill="rgb(30.588235%, 88.235294%, 0%)" opacity="0.332" d="M239.423,398.689 Q236.705,387.141 234.278,379.01 Q233.727,391.735 234.352,412.046 Q234.466,415.74 232.676,417.644 Q230.886,419.547 227.192,419.661 Q221.799,419.827 219.998,414.741 Q209.769,385.858 209.985,359.869 Q192.06,371.667 172.168,381.952 Q165.603,385.347 162.208,378.781 Q160.511,375.499 161.304,373.009 Q162.096,370.519 165.379,368.821 Q186.404,357.951 205.121,345.349 Q214.294,339.173 218.317,339.926 Q224.648,341.111 225.153,348.257 Q225.254,349.678 225.022,353.273 Q226.71,351.141 228.92,350.391 Q238.36,347.186 244.899,364.202 Q249.009,374.897 253.812,395.303 Q255.505,402.497 248.31,404.191 Q241.116,405.884 239.423,398.689 Z"/>
  <path fill="rgb(98.431373%, 87.843137%, 90.196078%)" opacity="0.436" d="M270.054,204.116 Q281.451,206.766 285.396,210.415 Q290.638,215.264 286.43,222.225 Q282.258,229.127 251.69,252.199 Q240.127,260.926 233.534,265.999 Q231.048,267.912 229.134,265.425 Q228.178,264.182 228.321,263.082 Q228.464,261.982 229.708,261.025 Q236.321,255.937 247.909,247.19 Q277.513,224.846 281.06,218.978 Q282.621,216.396 281.135,215.022 Q278.41,212.502 268.633,210.228 Q267.105,209.873 266.519,208.931 Q265.932,207.989 266.288,206.461 Q266.998,203.405 270.054,204.116 Z"/>
  <path fill="rgb(44.705882%, 78.823529%, 10.196078%)" opacity="0.364" d="M231.882,53.107 Q236.398,66.341 232.975,76.324 Q229.063,87.731 217.987,92.109 Q209.903,95.304 200.774,93.058 Q191.907,90.877 180.842,82.584 Q173.209,76.863 171.857,67.421 Q171.596,65.602 171.598,63.85 Q160.66,59.509 151.038,47.776 Q146.042,41.685 134.255,23.794 Q129.015,15.842 125.979,11.312 Q119.966,2.338 123.022,-8.023 Q125.721,-17.172 134.098,-21.733 Q142.476,-26.294 151.625,-23.595 Q174.201,-16.936 195.41,2.278 Q201.434,7.735 206.738,13.581 Q209.347,12.542 212.316,11.339 Q265.35,-10.154 316.086,-24.653 Q325.258,-27.275 333.596,-22.643 Q341.935,-18.011 344.556,-8.839 Q347.177,0.332 342.545,8.67 Q337.913,17.009 328.742,19.63 Q281.451,33.145 231.882,53.107 Z"/>
  <path fill="rgb(100%, 1.176471%, 13.72549%)" opacity="0.889" d="M200.462,235.817 Q205.286,241.017 207.724,244.527 Q219.015,260.782 210.98,277.279 Q207.631,284.155 202.257,288.354 Q199.212,309.942 183.226,328.152 Q147.117,369.286 33.405,397.088 Q21.241,400.062 10.609,393.446 Q0.142,386.931 -2.653,374.924 Q-5.448,362.916 1.066,352.449 Q48.371,276.439 105.194,249.427 Q122.768,241.073 142.023,237.611 Q143.345,234.458 145.298,231.555 Q152.181,221.327 164.281,218.961 Q176.38,216.595 186.609,223.478 Q191.09,226.494 194.062,230.51 Q197.507,232.631 200.462,235.817 Z"/>
  <path fill="rgb(82.745098%, 93.72549%, 99.215686%)" opacity="0.044" d="M5.188,265.301 Q13.019,286.114 11.283,291.373 Q9.699,296.17 3.619,297.84 Q0.824,298.607 -7.422,299.434 Q-11.065,299.8 -14.618,300.25 Q-14.529,302.582 -14.469,304.332 Q-14.305,309.067 -19.039,309.23 Q-21.406,309.312 -22.631,308.17 Q-23.855,307.027 -23.937,304.66 Q-23.984,303.315 -24.047,301.623 Q-37.513,303.844 -49.574,307.378 Q-54.12,308.71 -55.452,304.164 Q-55.92,302.566 -55.286,301.026 Q-38.757,260.942 -19.893,247.372 Q-11.112,241.056 1.355,237.477 Q8.922,235.305 26.827,232.159 Q51.631,227.8 67.524,223.542 Q69.812,222.929 71.262,223.766 Q72.713,224.603 73.326,226.891 Q74.468,231.154 70.297,232.595 Q45.944,241.007 15.094,249.1 Q-9.533,255.561 -12.725,260.214 Q-15.879,264.812 -14.985,290.748 Q-11.712,290.343 -8.368,290.007 Q2.103,288.957 2.286,288.403 Q2.974,286.32 -3.68,268.637 Q-4.514,266.42 -3.822,264.895 Q-3.131,263.369 -0.914,262.535 Q3.519,260.867 5.188,265.301 Z M-24.419,292.085 Q-25.052,275.74 -24.729,270.046 Q-24.555,266.981 -24.087,264.358 Q-33.579,275.718 -42.675,295.732 Q-33.867,293.598 -24.419,292.085 Z"/>
  <path fill="rgb(81.568627%, 61.960784%, 37.254902%)" opacity="0.842" d="M320.584,197.056 Q320.733,200.956 305.68,205.205 Q289.509,209.77 270.199,210.323 Q213.443,211.945 171.984,178.181 Q171.319,177.64 171.258,177.037 Q171.196,176.434 171.737,175.769 Q172.568,174.749 173.769,175.288 Q178.467,177.398 180.979,176.304 Q183.104,175.378 183.925,171.849 Q185.62,164.56 181.711,149.847 Q178.182,136.564 172.697,126.004 Q170.195,121.19 168.226,119.03 Q167.992,118.773 167.784,118.572 Q166.712,118.364 165.713,118.21 Q165.108,118.117 164.699,117.663 Q163.552,116.389 164.825,115.242 Q166.804,113.46 169.336,115.39 Q183.065,118.278 207.252,129.368 Q229.864,139.736 236.498,139.111 Q241.027,138.683 242.727,134.388 Q244.844,129.036 243.312,117.427 Q243.2,116.578 243.569,116.097 Q243.938,115.616 244.788,115.504 Q246.487,115.279 246.711,116.979 Q248.359,129.47 245.915,135.65 Q243.442,141.899 236.82,142.524 Q229.271,143.236 205.823,132.485 Q185.719,123.266 173.1,119.83 Q174.363,121.776 175.739,124.424 Q181.399,135.319 185.025,148.967 Q189.153,164.505 187.264,172.626 Q186.053,177.833 182.349,179.447 Q181.26,179.921 180.002,180.051 Q218.578,208.368 270.101,206.895 Q288.986,206.356 304.749,201.906 Q317.204,198.389 317.158,197.187 Q317.093,195.474 318.806,195.408 Q320.519,195.343 320.584,197.056 Z"/>
  <path fill="rgb(9.411765%, 59.215686%, 43.921569%)" opacity="0.531" d="M325.881,85.509 Q331.157,96.771 323.229,119.643 Q323.095,120.028 322.934,120.404 Q321.102,124.657 316.798,126.37 Q312.495,128.082 308.241,126.25 Q279.048,113.676 267.654,103.483 Q260.642,97.211 259.331,90.695 Q257.233,80.266 266.659,74.729 Q275.575,69.491 291.834,72.914 Q299.006,74.425 305.351,77.149 Q305.881,76.885 306.447,76.673 Q308.127,76.043 309.812,75.85 Q310.308,75.692 310.979,75.456 Q315.35,73.924 319.524,75.93 Q323.698,77.937 325.231,82.307 Q325.797,83.922 325.881,85.509 Z"/>
  <path fill="rgb(25.098039%, 25.882353%, 32.54902%)" opacity="0.492" d="M46.65,134.327 Q49.036,142.97 51.689,153.481 Q52.217,155.569 51.436,156.877 Q50.655,158.185 48.566,158.713 Q44.389,159.767 43.334,155.59 Q39.615,140.859 36.456,129.922 Q32.329,126.11 29.022,119.134 Q24.207,108.978 24.069,101.242 Q24.026,98.854 24.823,97.371 Q25.998,95.184 28.379,94.861 Q30.365,94.592 32.063,95.893 Q34.238,97.558 36.884,103.947 Q39.997,111.465 43.954,124.867 Q45.107,125.559 46.292,125.781 Q48.41,126.177 49.271,127.434 Q50.131,128.69 49.735,130.808 Q49.146,133.959 46.65,134.327 Z"/>
  <path fill="rgb(35.686275%, 94.509804%, 0%)" d="M319.462,139.862 Q328.202,116.613 329.084,99.506 Q329.857,84.537 324.643,77.687 Q320.04,71.64 312.109,74.151 Q303.206,76.97 293.802,89.138 Q292.979,90.203 291.749,89.656 Q288.792,88.342 289.516,79.321 Q290.197,70.826 288.453,70.07 Q284.587,68.393 268.837,81.348 Q262.568,97.577 270.314,107.409 Q275.201,113.613 292.477,122.353 Q315.532,134.019 321.759,144.832 Q322.615,146.318 321.129,147.173 Q320.386,147.601 319.801,147.443 Q319.216,147.286 318.788,146.543 Q313.072,136.616 290.929,125.413 Q272.977,116.33 267.621,109.531 Q258.558,98.027 265.808,79.679 Q265.97,79.268 266.311,78.987 Q283.981,64.394 289.817,66.924 Q293.811,68.656 292.933,79.595 Q292.641,83.245 292.735,84.976 Q301.962,73.768 311.074,70.882 Q321.306,67.642 327.371,75.61 Q333.346,83.46 332.508,99.683 Q331.598,117.321 322.671,141.068 Q322.068,142.673 320.463,142.07 Q319.661,141.768 319.411,141.216 Q319.16,140.664 319.462,139.862 Z"/>
  <path fill="rgb(96.078431%, 56.862745%, 36.862745%)" opacity="0.937" d="M235.307,96.37 Q285.735,166.092 269.823,179.531 Q254.437,192.527 174.331,151.156 Q172.807,150.369 173.594,148.846 Q173.987,148.085 174.565,147.901 Q175.142,147.716 175.904,148.11 Q253.975,188.43 267.611,176.912 Q281.093,165.525 232.529,98.38 Q231.524,96.991 232.913,95.986 Q233.608,95.484 234.206,95.58 Q234.805,95.676 235.307,96.37 Z"/>
</svg>

