<svg xmlns="http://www.w3.org/2000/svg" width="384" height="384" viewBox="0 0 384 384">
  <defs/>
  <path fill="rgb(100%, 85.490196%, 100%)" opacity="0.285" d="M206.165,124.728 Q203.196,124.202 199.069,123.726 Q166.351,119.951 110.547,129.074 Q152.615,134.291 186.867,131.232 Q190.559,130.903 191.755,130.867 Q197.211,130.706 198.753,134.679 Q200.368,138.839 195.93,142.31 Q195.437,142.696 194.361,143.458 Q193.672,146.089 190.13,147.874 Q188.929,148.479 186.216,149.189 Q167.576,162.715 149.855,180.178 Q147.883,182.121 145.926,182.107 Q143.968,182.092 142.025,180.12 Q141.595,179.684 141.271,179.164 Q135.115,169.294 137.094,161.132 Q138.865,153.827 146.796,148.964 Q151.642,145.993 160.906,143.434 Q122.605,143.48 76.463,134.992 Q72.785,134.315 72.039,130.65 Q71.488,127.937 72.568,126.305 Q73.649,124.673 76.362,124.121 Q156.994,107.725 200.338,112.726 Q217.079,114.657 221.637,119.615 Q224.05,122.24 223.601,125.487 Q223.174,128.575 220.341,130.509 Q217.447,132.486 211.791,133.006 Q206.278,133.512 205.772,127.998 Q205.593,126.051 206.165,124.728 Z M161.074,154.888 Q155.532,156.596 152.584,158.404 Q148.549,160.878 147.855,163.741 Q147.528,165.089 147.829,166.75 Q154.389,160.565 161.074,154.888 Z"/>
  <path fill="rgb(27.058824%, 25.098039%, 0%)" opacity="0.845" d="M10.212,155.662 Q12.111,155.81 13.741,156.095 Q17.805,156.806 19.167,158.353 Q20.019,159.322 19.889,160.401 Q23.662,161.5 24.815,162.475 Q25.575,163.118 25.733,163.941 Q25.946,165.049 25.117,165.891 Q24.388,166.63 22.663,167.022 Q20.115,167.602 15.123,167.677 Q4.08,167.844 -5.329,166.038 Q-10.504,165.044 -12.987,163.639 Q-13.89,163.129 -14.479,162.534 Q-16.808,163.33 -18.78,164.097 Q-19.381,166.349 -21.211,168.242 Q-23.509,170.618 -26.724,171.205 Q-28.214,171.477 -29.308,171.174 Q-31.293,170.625 -31.303,168.786 Q-31.321,165.615 -21.993,161.697 Q-22.02,157.682 -26.826,151.861 Q-27.589,150.937 -26.983,149.903 Q-26.55,149.164 -25.964,149.01 Q-25.377,148.857 -24.638,149.29 Q-16.781,153.891 -9.336,156.675 Q-7.46,156.422 -5.692,156.223 Q21.644,148.451 71.921,140.549 Q73.615,140.283 73.881,141.976 Q74.014,142.823 73.657,143.313 Q73.3,143.803 72.454,143.936 Q34.867,149.843 10.212,155.662 Z M-14.937,158.103 Q-17.529,156.973 -20.164,155.639 Q-18.906,158.137 -18.591,160.358 Q-17.123,159.813 -15.484,159.254 Q-15.326,158.677 -14.937,158.103 Z M-8.498,160.618 Q-9.137,160.811 -9.763,161.005 Q-10.008,161.081 -10.253,161.157 Q-8.252,161.985 -4.683,162.67 Q0.632,163.691 6.506,164.057 Q4.481,163.841 2.182,163.429 Q-3.061,162.491 -8.498,160.618 Z M12.177,164.257 Q13.608,164.271 15.071,164.249 Q18.14,164.202 20.142,163.967 Q18.988,163.588 17.353,163.175 Q15.283,164.085 12.177,164.257 Z M-24.782,166.794 Q-25.386,167.119 -25.873,167.393 Q-25.3,167.147 -24.782,166.794 Z"/>
  <path fill="rgb(100%, 100%, 63.921569%)" opacity="0.124" d="M80.735,248.991 Q90.749,233.54 92.802,227.904 Q90.19,229.486 86.391,232.763 Q75.186,242.429 64.237,256.863 Q51.895,273.132 48.354,284.973 Q47.819,286.763 46.656,287.391 Q45.493,288.018 43.703,287.483 Q40.122,286.412 41.193,282.832 Q45.122,269.693 58.282,252.345 Q69.707,237.285 81.509,227.104 Q87.174,222.217 91,220.382 Q93.58,219.145 95.579,219.239 Q99.269,219.413 100.384,222.885 Q102.431,229.257 87.007,253.056 Q85.991,254.624 84.699,254.9 Q83.407,255.176 81.839,254.16 Q78.702,252.127 80.735,248.991 Z"/>
  <path fill="rgb(87.058824%, 100%, 98.039216%)" opacity="0.009" d="M195.892,266.843 Q198.045,265.589 201.303,267.127 Q203.143,267.996 208.175,271.832 Q231.069,289.287 256.948,296.08 Q258.544,296.499 259.133,297.507 Q259.722,298.515 259.303,300.112 Q258.465,303.305 255.271,302.467 Q228.115,295.339 204.171,277.083 Q200.826,274.533 199.305,273.569 Q198.693,277.813 198.816,294.649 Q198.902,306.514 198.884,314.137 Q198.88,315.517 197.896,316.485 Q195.54,318.798 193.226,316.442 Q170.567,293.37 160.477,269.283 Q151.277,247.322 155.27,232.271 Q159.621,215.871 175.727,217.18 Q191.573,218.469 211.905,238.74 Q214.144,240.972 212.012,243.305 Q202.159,254.089 197.401,263.6 Q196.517,265.368 195.892,266.843 Z M193.228,250.438 Q193.84,253.14 194.284,255.619 Q198.506,248.668 205.007,241.232 Q187.812,224.788 175.191,223.762 Q164.588,222.9 161.653,233.964 Q158.236,246.844 166.568,266.732 Q174.87,286.55 192.274,305.808 Q192.257,300.82 192.212,294.697 Q192.124,282.523 192.6,276.043 Q190.928,276.895 189.193,275.554 Q187.807,274.482 187.783,272.383 Q187.756,270.1 188.848,266.846 Q188.807,260.81 186.788,251.898 Q186.058,248.678 189.278,247.948 Q190.888,247.583 191.876,248.206 Q192.863,248.828 193.228,250.438 Z"/>
  <path fill="rgb(33.72549%, 21.960784%, 0%)" d="M61.049,152.12 Q60.404,143.779 59.358,128.403 Q57.12,95.499 55.187,81.997 Q52.14,60.721 45.841,46.834 Q31.996,16.308 -13.34,-4.226 Q-15.019,-4.986 -15.478,-6.205 Q-15.937,-7.424 -15.177,-9.102 Q-13.656,-12.458 -10.3,-10.938 Q37.562,10.739 52.552,43.79 Q59.286,58.636 62.481,80.952 Q64.453,94.726 66.71,127.903 Q67.753,143.244 68.396,151.552 Q68.68,155.225 65.007,155.509 Q63.17,155.652 62.181,154.804 Q61.191,153.957 61.049,152.12 Z"/>
  <path fill="rgb(92.941176%, 94.901961%, 87.843137%)" opacity="0.621" d="M158.262,181.839 Q97.479,201.529 53.664,199.52 Q10.563,197.545 4.482,176.91 Q0.348,162.881 14.999,153.616 Q24.745,147.453 42.179,145.286 Q81.36,140.417 143.19,156.001 Q146.647,156.872 148.951,159.293 Q149.858,159.003 150.769,158.708 Q155.56,157.156 160.045,159.446 Q164.529,161.736 166.081,166.527 Q167.633,171.318 165.343,175.802 Q163.053,180.287 158.262,181.839 Z M45.177,169.415 Q38.041,170.302 33.326,171.808 Q41.563,174.626 54.778,175.232 Q75.06,176.161 99.894,171.756 Q67.722,166.613 45.177,169.415 Z"/>
</svg>

