<svg xmlns="http://www.w3.org/2000/svg" width="384" height="384" viewBox="0 0 384 384">
  <defs/>
  <path fill="rgb(21.960784%, 3.529412%, 32.54902%)" opacity="0.951" d="M401.213,196.067 Q399.896,182.567 397.713,175.341 Q400.607,197.792 403.217,206.62 Q408.169,223.374 418.397,225.949 Q423.51,227.237 422.223,232.35 Q420.935,237.463 415.822,236.176 Q399.762,232.132 393.104,209.61 Q390.707,201.499 388.165,183.423 Q382.909,196.32 376.875,219.481 Q375.802,231.613 374.471,243.938 Q370.191,283.564 365.247,302.813 Q362.473,313.612 359.132,316.168 Q356.43,318.235 353.337,317.2 Q351.03,316.429 349.627,314.064 Q348.308,311.841 347.524,307.315 Q347.361,306.375 347.537,305.437 Q357.614,251.997 366.399,218.226 Q374.009,131.931 368.433,55.548 Q368.049,50.289 373.308,49.905 Q377.742,49.582 378.81,53.898 Q388.65,93.69 395.505,156.618 Q395.629,157.757 395.752,158.869 Q395.975,158.869 396.199,158.879 Q401.817,159.153 405.33,165.981 Q409.702,174.475 411.709,195.043 Q412.221,200.291 406.973,200.802 Q404.349,201.058 402.909,199.875 Q401.469,198.691 401.213,196.067 Z M385.854,165.178 Q385.44,161.595 385.022,157.76 Q383.269,141.668 381.323,127.122 Q381.198,151.188 379.918,176.113 Q382.909,169.274 385.706,165.382 Q385.779,165.28 385.854,165.178 Z"/>
  <path fill="rgb(22.745098%, 7.058824%, 0%)" d="M193.805,196.927 Q186.537,212.405 183.049,221.519 Q182.627,222.62 182.383,222.951 Q181.401,224.283 179.785,223.965 Q177.905,223.596 177.702,221.684 Q177.667,221.361 177.714,221.001 Q177.731,220.87 177.79,220.531 Q179.158,212.644 175.514,210.237 Q167.102,204.681 136.569,223.149 Q134.35,224.491 133.007,222.272 Q132.336,221.162 132.555,220.272 Q132.775,219.382 133.884,218.711 Q167.223,198.545 178.373,205.909 Q180.85,207.545 182.094,210.197 Q185.012,203.448 189.109,194.722 Q190.212,192.374 192.559,193.477 Q194.907,194.579 193.805,196.927 Z"/>
  <path fill="rgb(20%, 0%, 100%)" opacity="0.903" d="M65.842,385.222 Q62.832,384.343 56.934,382.621 Q-0.618,365.816 -10.449,360.892 Q-17.642,357.289 -19.904,352.758 Q-21.398,349.764 -21.838,342.192 Q-22.049,338.573 -22.258,336.462 Q-22.346,335.571 -21.945,335.082 Q-21.544,334.592 -20.653,334.504 Q-18.872,334.327 -18.695,336.109 Q-18.479,338.293 -18.264,341.984 Q-17.867,348.822 -16.7,351.158 Q-14.971,354.622 -8.846,357.691 Q0.696,362.47 57.938,379.184 Q63.816,380.9 66.846,381.786 Q68.564,382.288 68.062,384.006 Q67.811,384.865 67.256,385.169 Q66.701,385.473 65.842,385.222 Z"/>
  <path fill="rgb(33.333333%, 97.254902%, 5.882353%)" opacity="0.951" d="M219.815,107.346 Q208.659,84.88 205.858,69.569 Q202.779,52.738 211.148,50.116 Q218.914,47.683 228.535,61.769 Q237.468,74.849 245.465,97.867 Q264.571,113.34 265.138,118.036 Q265.615,121.976 262.017,123.896 Q260.352,124.785 257.556,125.002 Q254.869,125.211 246.453,124.798 Q214.735,123.239 192.356,128.291 Q151.917,137.42 120.297,167.721 Q118.68,169.269 117.098,169.235 Q115.516,169.202 113.967,167.586 Q110.87,164.353 114.102,161.256 Q147.519,129.234 190.384,119.557 Q213.954,114.236 246.892,115.855 Q250.87,116.051 253.376,116.105 Q249.178,112.34 238.847,104.032 Q237.837,103.219 237.417,101.993 Q229.627,79.243 221.141,66.818 Q217.751,61.855 214.997,59.706 Q214.574,59.377 214.217,59.152 Q214.192,59.279 214.168,59.421 Q213.655,62.435 214.665,67.958 Q217.239,82.028 227.834,103.365 Q229.825,107.374 225.815,109.365 Q221.806,111.356 219.815,107.346 Z"/>
  <path fill="rgb(47.843137%, 0%, 100%)" d="M-8.218,295.425 Q-4.252,287.254 10.782,281.634 Q19.058,278.541 36.331,274.721 Q45.541,272.684 48.759,271.561 Q48.276,271.368 47.644,271.131 Q45.542,270.343 46.165,268.186 Q49.835,255.482 50.585,244.465 Q50.719,242.489 50.728,241.279 Q50.71,240.924 50.703,240.63 Q50.693,240.258 50.705,240.074 Q50.756,239.274 51.26,238.666 Q52.004,237.767 53.172,237.788 Q54.267,237.807 54.977,238.642 Q55.306,239.029 55.453,239.517 Q55.507,239.698 55.534,239.889 Q55.553,240.024 55.561,240.209 Q55.581,240.626 55.58,241.153 Q55.608,241.691 55.66,242.398 Q57.877,272.448 76.453,336.95 Q76.788,338.115 76.373,338.866 Q75.958,339.617 74.793,339.953 Q72.461,340.624 71.79,338.293 Q60.385,298.693 55.094,271.879 Q55.071,273.93 52.136,275.411 Q49.371,276.807 37.379,279.459 Q1.022,287.499 -3.852,297.544 Q-4.382,298.635 -5.193,298.916 Q-6.003,299.197 -7.094,298.667 Q-9.277,297.608 -8.218,295.425 Z M53.069,260.751 Q52.342,264.054 51.407,267.471 Q53.944,268.732 54.657,270.17 Q54.761,270.38 54.841,270.586 Q53.839,265.426 53.069,260.751 Z"/>
  <path fill="rgb(99.215686%, 29.803922%, 100%)" opacity="0.698" d="M373.057,302.154 Q371.998,304.478 368.466,308.489 Q368.656,315.745 372.453,322.378 Q372.578,322.596 372.679,322.827 Q373.649,325.026 373.034,326.61 Q372.419,328.194 370.22,329.164 Q353.51,336.53 345.438,339.03 Q333.878,342.61 331.831,336.547 Q330.432,332.405 336.745,325.845 Q339.464,323.019 347.073,316.091 Q354.591,309.246 358.871,304.824 Q359.629,294.792 365.583,284.051 Q372.318,271.902 389.216,255.353 Q391.815,252.808 392.772,251.818 Q396.114,248.364 399.569,251.706 Q403.023,255.048 399.681,258.502 Q398.634,259.585 395.942,262.221 Q380.046,277.789 373.991,288.712 Q371.991,292.32 370.713,295.803 Q375.043,297.799 373.057,302.154 Z M359.982,317.196 Q357.076,319.984 353.545,323.199 Q350.712,325.778 348.598,327.751 Q354.007,325.708 361.744,322.373 Q360.67,319.811 359.982,317.196 Z"/>
  <path fill="rgb(11.372549%, 0%, 8.235294%)" d="M107.543,190.662 Q143.954,187.358 177.843,195.658 Q192.42,199.228 196.956,196.067 Q203.716,191.355 217.506,163.468 Q219.23,159.982 222.716,161.705 Q226.202,163.429 224.478,166.915 Q209.803,196.594 201.403,202.448 Q196.241,206.045 189.464,205.733 Q185.547,205.553 175.993,203.213 Q143.364,195.221 108.246,198.408 Q106.309,198.584 105.253,197.704 Q104.197,196.823 104.021,194.887 Q103.67,191.014 107.543,190.662 Z"/>
  <path fill="rgb(100%, 100%, 0%)" opacity="0.348" d="M158.06,32.583 Q176.753,69.828 174.101,87.13 Q172.625,96.759 165.245,101.002 Q159.426,104.347 150.856,103.465 Q139.288,102.276 125.457,94.523 Q120.21,91.581 117.681,89.305 Q112.714,84.834 115.468,79.739 Q116.207,78.371 117.203,77.493 Q118.031,73.743 118.926,69.005 Q119.961,63.525 120.563,61.706 Q123.396,53.143 130.952,55.476 Q134.877,56.688 143.51,70.198 Q148.42,77.882 151.764,82.938 Q154.243,86.685 152.714,89.616 Q159.511,90.157 160.3,85.014 Q162.278,72.113 145.581,38.846 Q142.449,32.607 148.689,29.476 Q151.808,27.91 154.151,28.687 Q156.494,29.464 158.06,32.583 Z M135.979,84.304 Q134.027,81.288 131.745,77.716 Q131.623,77.526 131.51,77.349 Q131.067,79.491 130.637,81.396 Q131.395,81.845 132.285,82.344 Q134.168,83.4 135.979,84.304 Z"/>
  <path fill="rgb(9.019608%, 0%, 29.019608%)" opacity="0.581" d="M47.4,268.255 Q51.304,233.572 60.359,219.982 Q61.553,218.192 63.143,216.487 Q64.709,214.416 66.996,212.79 Q67.52,212.417 68.255,211.969 Q73.964,207.725 82.511,204.096 Q87.879,201.817 92.227,199.596 Q97.064,196.911 101.405,194.207 Q103.798,192.717 105.402,195.036 Q106.244,196.252 106.056,197.282 Q105.868,198.311 104.652,199.152 Q100.606,201.951 95.04,204.802 Q87.82,208.808 79.54,212.763 Q68.204,218.179 66.523,222.45 Q65.622,224.737 65.091,231.661 Q65.473,231.839 65.869,232.042 Q68.457,233.373 76.298,238.466 Q96.649,251.684 114.266,260.935 Q116.886,262.311 115.51,264.93 Q114.135,267.55 111.515,266.174 Q93.656,256.796 73.075,243.428 Q67.682,239.926 64.718,238.11 Q64.448,244.369 64.363,252.963 Q64.07,282.805 63.061,306.602 Q62.936,309.558 59.98,309.433 Q57.079,309.31 57.148,306.406 Q57.745,281.277 55.69,252.152 Q54.313,259.74 53.28,268.917 Q53.114,270.387 52.297,271.039 Q51.479,271.692 50.009,271.526 Q47.069,271.195 47.4,268.255 Z"/>
  <path fill="rgb(100%, 44.705882%, 51.764706%)" opacity="0.264" d="M204.366,148.282 Q219.898,163.261 223.071,176.166 Q226.474,190.006 215.63,200.202 Q193.03,221.452 112.525,223.187 Q112.166,223.194 111.834,223.057 Q77.2,208.767 68.336,218.314 Q66.513,220.278 66.734,222.711 Q70.239,226.512 75.211,231.082 Q75.946,231.757 75.721,232.73 Q75.528,233.565 75.014,233.886 Q74.5,234.207 73.665,234.014 Q69.484,233.048 66.87,230.382 Q67.577,238.344 65.958,247.528 Q65.66,249.216 63.972,248.919 Q62.284,248.621 62.581,246.933 Q64.862,233.993 62.303,223.744 Q62.144,223.11 61.978,222.51 Q59.161,219.202 57.514,216.482 Q55.814,213.675 55.985,212.227 Q56.09,211.336 56.752,210.82 Q57.47,210.261 58.404,210.451 Q59.219,210.617 60.089,211.441 Q62.485,213.708 64.195,218.241 Q64.812,217.071 65.823,215.982 Q76.26,204.742 112.809,219.751 Q191.689,218.006 213.281,197.704 Q222.666,188.88 219.742,176.984 Q216.805,165.041 201.986,150.75 Q200.752,149.56 201.942,148.326 Q203.132,147.092 204.366,148.282 Z"/>
  <path fill="rgb(73.333333%, 0%, 14.901961%)" opacity="0.233" d="M132.793,383.917 Q88.469,359.976 56.66,337.147 Q26.543,315.532 18.909,303.258 Q14.526,296.211 15.881,289.361 Q17.332,282.027 23.87,278.396 Q27.823,276.2 32.636,276.262 Q39.769,276.355 51.88,282.692 Q74.87,294.722 113.822,325.327 Q118.698,329.158 119.437,335.314 Q119.844,338.71 118.861,341.717 Q128.655,347.485 139.258,353.338 Q146.304,342.849 158.251,346.098 Q168.366,348.848 173.5,363.753 Q175.52,369.616 172.803,375.189 Q170.085,380.762 164.223,382.782 Q162.341,383.43 160.489,383.59 Q160.395,383.825 160.294,384.057 Q158.425,388.337 154.455,390.795 Q145.378,396.414 137.109,389.662 Q134.208,387.294 132.793,383.917 Z"/>
  <path fill="rgb(23.529412%, 16.078431%, 31.764706%)" opacity="0.815" d="M370.354,51.763 Q332.561,34.097 321.659,35.275 Q318.018,35.669 316.585,38.481 Q315.477,40.656 314.473,47.528 Q313.493,54.231 312.448,57.854 Q311.789,60.138 309.429,59.858 Q304.792,59.31 298.634,75.457 Q291.7,93.64 286.66,125.99 Q274.698,202.773 279.995,303.333 Q280.142,306.129 277.347,306.276 Q274.551,306.424 274.403,303.628 Q269.076,202.486 281.128,125.128 Q291.66,57.522 307.558,54.392 Q308.249,51.393 308.932,46.718 Q310.069,38.935 311.596,35.939 Q314.404,30.428 321.057,29.708 Q333.515,28.362 372.725,46.69 Q375.261,47.876 374.075,50.412 Q373.483,51.68 372.552,52.018 Q371.622,52.356 370.354,51.763 Z"/>
  <path fill="rgb(39.607843%, 24.313725%, 2.352941%)" opacity="0.577" d="M268.699,28.729 Q270.147,35.705 261.906,45.906 Q253.324,56.53 250.11,66.247 Q246.337,77.658 246.481,93.011 Q251.529,87.206 256.97,82.748 Q262.053,78.584 266.37,80.95 Q271.882,83.971 269.46,89.843 Q269.107,90.699 268.499,91.548 Q267.954,92.308 266.99,93.356 Q263.743,96.883 256.09,103.627 Q257.477,107.892 257.437,110.777 Q257.316,119.474 248.847,122.39 Q235.87,126.858 193.797,111.163 Q187.275,108.73 189.708,102.208 Q190.925,98.946 193.164,97.924 Q195.402,96.902 198.664,98.118 Q221.565,106.662 233.538,108.907 Q230.5,81.206 236.892,61.876 Q240.901,49.752 251.076,37.157 Q255.176,32.083 255.067,31.56 Q254.359,28.152 255.709,26.094 Q257.059,24.037 260.467,23.329 Q267.283,21.913 268.699,28.729 Z"/>
  <path fill="rgb(25.882353%, 5.490196%, 0%)" opacity="0.971" d="M152.327,209.799 Q163.142,186.374 183.615,181.514 Q195.181,178.769 218.122,182.626 Q238.799,186.103 245.043,182.638 Q250.807,179.439 254.007,185.203 Q255.606,188.085 254.965,190.326 Q254.323,192.567 251.441,194.167 Q244.343,198.106 233.806,197.822 Q228.057,197.667 215.936,195.629 Q195.628,192.214 186.66,194.343 Q172.425,197.722 164.298,215.326 Q161.535,221.311 155.549,218.548 Q149.564,215.785 152.327,209.799 Z"/>
  <path fill="rgb(0%, 92.941176%, 0.392157%)" opacity="0.567" d="M303.821,53.935 Q285.777,61.572 278.134,74.538 Q273.737,81.996 271.14,96.565 Q269.813,104.008 268.663,107.224 Q265.617,115.741 258.444,118.565 Q252.758,120.803 244.097,117.934 Q239.593,119.176 234.639,118.242 Q227.326,116.862 221.901,111.189 Q217.261,106.337 215.448,100.809 Q204.162,91.68 199.825,83.623 Q195.95,76.426 197.258,69.86 Q198.869,61.771 206.533,58.439 Q217.8,53.541 228.755,62.354 Q239.868,71.294 238.369,86.898 Q238.243,88.212 237.818,89.453 Q238.216,89.724 238.621,89.996 Q239.302,90.443 239.953,90.861 Q240.666,87.056 240.492,81.67 Q239.789,59.867 225.073,22.863 Q223.355,18.543 225.195,14.272 Q227.035,10.002 231.356,8.284 Q235.676,6.566 239.946,8.406 Q244.216,10.246 245.935,14.566 Q256.324,40.69 260.515,60.381 Q272.001,43.024 295.07,33.26 Q299.352,31.448 303.661,33.194 Q307.971,34.94 309.783,39.222 Q311.595,43.504 309.849,47.814 Q308.103,52.123 303.821,53.935 Z"/>
  <path fill="rgb(0%, 0%, 100%)" d="M380.975,318.303 Q297.829,360.419 268.722,355.816 Q262.677,361.51 245.505,368.211 Q234.173,372.633 212.579,379.387 Q212.867,379.9 212.992,380.641 Q213.464,383.442 210.663,383.914 Q200.048,385.703 195.436,386.296 Q193.001,386.609 191.813,386.645 Q190.965,386.671 190.411,386.559 Q189.574,386.389 188.969,385.871 Q187.341,384.476 188.183,382.506 Q188.944,380.726 204.603,375.912 Q250.873,361.689 262.514,353.784 Q261.468,353.149 260.712,352.349 Q257.766,349.233 259.855,346.105 Q261.829,343.15 265.713,344.258 Q268.939,345.179 271.446,349.006 Q271.909,349.712 271.92,350.486 Q300.142,352.879 378.408,313.236 Q380.942,311.952 382.225,314.486 Q383.509,317.02 380.975,318.303 Z"/>
  <path fill="rgb(13.333333%, 9.803922%, 2.352941%)" opacity="0.186" d="M56.897,331.574 Q57.758,328.696 58.435,326.097 Q51.099,329.477 46.225,330.151 Q34.325,331.795 27.655,322.803 Q20.683,313.404 26.35,302.453 Q31.846,291.833 47.271,283.804 Q64.162,248.246 73.788,233.914 Q82.655,220.714 91.212,216.084 Q99.384,211.662 107.859,213.479 Q116.074,215.241 121.817,222.347 Q131.948,234.88 136.701,279.292 Q140.246,312.416 144.04,390.386 Q144.396,397.705 139.473,403.132 Q134.549,408.559 127.231,408.915 Q119.912,409.271 114.485,404.348 Q109.059,399.424 108.702,392.106 Q103.934,294.095 98.676,260.894 Q93.426,269.947 86.162,284.637 Q87.478,285.82 88.689,287.214 Q102.379,302.986 90.791,341.715 Q88.691,348.735 82.242,352.214 Q75.793,355.692 68.773,353.592 Q61.753,351.492 58.275,345.043 Q54.796,338.594 56.897,331.574 Z"/>
  <path fill="rgb(16.078431%, 3.529412%, 78.431373%)" d="M245.437,399.064 Q210.708,390.535 169.725,380.634 Q146.298,374.975 139.903,373.294 Q132.83,374.972 128.941,374.132 Q122.719,372.788 103.332,359.789 Q65.004,334.09 23.555,310.469 Q20.593,308.782 22.281,305.82 Q23.125,304.339 24.287,304.021 Q25.449,303.703 26.93,304.546 Q68.594,328.29 107.129,354.127 Q125.432,366.399 130.381,367.469 Q131.638,367.74 133.57,367.564 Q134.013,366.2 135.316,365.531 Q136.32,365.015 139.787,365.001 Q142.606,364.989 144.431,364.924 Q146.46,364.252 148.74,363.413 L149.492,363.137 Q151.055,362.562 152.469,363.442 Q153.916,364.343 154.189,365.516 Q154.462,366.69 153.562,368.137 Q153.13,368.831 152.362,369.394 Q159.735,371.208 171.325,374.008 Q212.334,383.914 247.063,392.444 Q250.373,393.257 249.56,396.567 Q248.747,399.877 245.437,399.064 Z"/>
  <path fill="rgb(14.509804%, 29.019608%, 24.313725%)" opacity="0.258" d="M180.165,347.349 Q180.268,283.283 188.994,241.144 Q195.766,208.444 206.093,194.943 Q211.491,187.887 217.187,187.787 Q221.856,187.704 224.448,191.613 Q226.165,194.205 226.165,197.909 Q226.165,205.4 220.688,213.818 Q247.269,211.874 264.595,205.867 Q270.461,203.834 273.446,206.632 Q277.901,210.808 272.973,217.064 Q247.487,249.416 245.834,329.145 Q245.701,335.569 239.277,335.436 Q236.065,335.369 234.492,333.73 Q232.92,332.091 232.986,328.879 Q234.444,258.55 254.399,222.052 Q234.319,226.558 206.531,227.403 Q206.024,227.418 205.545,227.366 Q203.452,234.699 201.578,243.75 Q193.116,284.61 193.015,347.37 Q193.005,353.795 186.58,353.785 Q180.154,353.774 180.165,347.349 Z"/>
  <path fill="rgb(87.058824%, 3.137255%, 100%)" opacity="0.365" d="M249.285,424.113 Q224.886,400.649 221.321,385.358 Q211.15,387.236 201.917,383.493 Q200.311,382.923 198.701,381.994 Q192.442,378.385 195.718,371.946 Q197.445,368.553 200.004,367.72 Q202.564,366.887 205.956,368.613 Q206.264,368.769 206.574,368.914 Q207.348,369.124 208.509,368.249 Q209.21,367.721 209.864,367.048 Q204.307,362.18 209.163,356.465 Q212.782,352.206 215.706,350.495 Q223.508,345.932 228.103,352.823 Q231.355,357.701 228.043,366.097 Q230.86,363.774 234.742,361.848 Q238.288,360.088 245.403,357.644 Q246.493,357.013 247.631,356.348 Q275.429,340.089 296.003,331.018 Q300.026,329.244 303.573,331.842 Q309.715,336.341 305.216,342.483 Q297.354,353.217 282.613,360.409 Q274.427,364.403 257.932,369.569 Q254.488,370.647 251.582,371.656 Q242.41,376.918 235.949,380.075 Q233.581,387.885 259.84,413.137 Q265.328,418.415 260.05,423.902 Q254.773,429.39 249.285,424.113 Z"/>
</svg>

