<svg xmlns="http://www.w3.org/2000/svg" width="384" height="384" viewBox="0 0 384 384">
  <defs/>
  <path fill="rgb(72.156863%, 87.843137%, 69.803922%)" opacity="0.91" d="M-0.847,163.391 Q-5.444,101.329 -11.598,63.424 Q-13.075,62.218 -13.618,59.592 Q-17.19,42.329 -17.054,37.879 Q-17,36.134 -16.28,34.789 Q-14.249,30.996 -10.018,31.653 Q-7.61,32.027 -6.1,33.993 Q-5.216,35.144 -4.542,37.416 Q-3.651,40.421 -2.418,46.71 Q-2.05,48.585 -1.688,50.536 Q9.036,48.055 21.196,47.46 Q32.01,46.93 37.785,44.674 Q46.996,41.075 60.805,29.553 Q68.94,3.322 89.279,-2.792 Q101.402,-6.436 129.118,-2.543 Q148.807,0.223 158.244,-0.273 Q173.286,-1.064 183.639,-8.635 Q188.47,-12.168 192.003,-7.338 Q193.769,-4.922 193.445,-2.831 Q193.12,-0.741 190.705,1.026 Q177.475,10.702 158.872,11.68 Q148.284,12.236 127.453,9.31 Q102.335,5.782 92.725,8.671 Q77.962,13.108 71.78,34.633 Q71.28,36.373 69.899,37.544 Q53.662,51.322 42.141,55.823 Q34.546,58.79 21.781,59.415 Q10.313,59.976 0.353,62.352 Q6.508,100.656 11.09,162.507 Q11.532,168.476 5.563,168.918 Q2.579,169.139 0.976,167.757 Q-0.626,166.376 -0.847,163.391 Z"/>
  <path fill="rgb(0%, 1.568627%, 29.019608%)" d="M144.997,275.462 Q151.944,269.869 157.331,263.805 Q151.56,227.228 154.596,206.173 Q154.814,204.658 155.081,203.242 Q154.208,201.915 153.316,200.714 Q147.353,192.693 142.661,192.626 Q138.67,192.57 136.703,190.546 Q134.735,188.523 134.792,184.532 Q134.904,176.55 142.886,176.663 Q153.635,176.815 162.689,186.681 Q163.024,186.373 163.37,186.09 Q168.054,182.264 173.756,183.227 Q178.394,184.01 182.2,187.941 Q188.018,193.951 190.446,205.348 Q191.283,209.276 191.599,213.369 Q191.939,213.495 192.284,213.65 Q196.418,215.512 196.961,220.099 Q197.084,221.136 197.037,229.469 Q196.79,273.322 197.621,330.881 Q197.758,336.558 197.795,342.395 Q197.845,350.301 189.939,350.427 Q185.949,350.49 183.922,348.527 Q181.894,346.563 181.831,342.572 Q181.739,336.8 181.658,331.153 Q181.326,317.577 180.403,304.988 Q180.38,305.044 180.362,305.088 Q178.786,308.9 174.766,309.82 Q170.875,310.711 168.484,309.211 Q166.094,307.711 165.203,303.82 Q162.712,292.938 160.754,282.994 Q158.003,285.487 155.011,287.897 Q148.793,292.904 143.787,286.686 Q138.78,280.469 144.997,275.462 Z M170.548,242.061 Q170.596,242.546 170.647,243.04 Q170.696,242.925 170.744,242.81 Q170.647,242.438 170.548,242.061 Z M174.257,268.375 Q174.287,268.543 174.316,268.709 Q174.372,268.434 174.43,268.147 Q174.345,268.26 174.257,268.375 Z"/>
  <path fill="rgb(0.392157%, 20.392157%, 31.764706%)" opacity="0.372" d="M13.784,185.358 Q14.172,198.646 13.694,218.617 Q13.214,238.663 14.471,245.495 Q16.274,255.29 23.578,261.774 Q31.22,268.558 50.542,276.987 Q63.604,282.685 104.414,298.212 Q139.886,311.707 162.373,320.512 Q163.508,320.956 163.853,321.746 Q164.198,322.535 163.754,323.67 Q162.865,325.939 160.596,325.051 Q138.129,316.254 102.681,302.768 Q61.761,287.199 48.593,281.455 Q28.562,272.717 20.342,265.419 Q11.784,257.822 9.677,246.378 Q8.329,239.05 8.821,218.501 Q9.296,198.659 8.911,185.501 Q8.84,183.065 11.276,182.994 Q12.495,182.958 13.121,183.549 Q13.748,184.14 13.784,185.358 Z"/>
  <path fill="rgb(25.882353%, 67.45098%, 12.54902%)" opacity="0.878" d="M2.801,273.588 Q29.192,310.188 40.967,333.679 Q48.659,349.022 54.106,368.709 Q57.226,379.986 60.152,386.802 Q65.391,399.008 76.514,416.504 Q82.732,426.285 80.213,437.597 Q77.694,448.91 67.914,455.128 Q58.133,461.346 46.821,458.827 Q35.508,456.308 29.29,446.527 Q15.747,425.225 8.729,408.876 Q4.305,398.569 0.172,383.631 Q-3.817,369.213 -9.059,358.756 Q-18.823,339.278 -42.59,306.318 Q-49.368,296.918 -47.514,285.477 Q-45.66,274.037 -36.259,267.258 Q-26.859,260.479 -15.418,262.334 Q-3.978,264.188 2.801,273.588 Z"/>
  <path fill="rgb(0%, 26.666667%, 21.568627%)" opacity="0.317" d="M388.398,219.634 Q352.024,241.761 343.961,262.726 Q340.814,270.911 341.151,280.893 Q341.366,287.253 343.761,300.646 Q346.701,317.091 346.884,326.252 Q347.197,342.003 341.859,356.504 Q339.83,362.016 334.201,360.334 Q301.514,350.561 275.364,342.61 Q274.35,342.527 273.183,342.139 Q269.596,340.946 266.14,339.8 Q204.184,320.886 182.424,313.171 Q178.859,311.907 177.681,310.523 Q175.055,307.438 176.789,303.781 Q178.166,300.879 181.331,300.303 Q182.296,300.128 183.299,300.254 Q183.72,300.307 184.252,300.432 Q184.822,300.565 185.858,300.856 Q189.995,302.018 200.952,305.461 Q227.341,313.754 269.963,327.894 Q297.072,336.169 331.918,346.6 Q334.589,336.883 334.383,326.501 Q334.22,318.323 331.453,302.846 Q328.9,288.571 328.655,281.315 Q328.232,268.795 332.291,258.239 Q341.883,233.294 381.899,208.952 Q387.241,205.703 390.49,211.044 Q393.739,216.385 388.398,219.634 Z"/>
  <path fill="rgb(75.294118%, 1.176471%, 18.823529%)" opacity="0.849" d="M151.895,167.92 Q168.24,171.37 183.894,180.433 Q199.1,189.238 205.558,198.497 Q209.946,204.79 209.258,210.538 Q208.341,218.19 200.161,221.3 Q189.2,225.467 162.389,219.525 Q158.64,218.694 157.182,216.404 Q155.723,214.114 156.553,210.366 Q157.384,206.617 159.674,205.158 Q161.964,203.699 165.712,204.53 Q185.582,208.934 193.048,207.41 Q193.005,207.347 192.96,207.283 Q188.453,200.821 176.198,193.725 Q162.668,185.891 148.723,182.947 Q141.209,181.361 142.795,173.848 Q144.381,166.334 151.895,167.92 Z"/>
</svg>

