<svg xmlns="http://www.w3.org/2000/svg" width="384" height="384" viewBox="0 0 384 384">
  <defs/>
  <path fill="rgb(13.72549%, 23.529412%, 55.294118%)" opacity="0.602" d="M60.555,308.698 Q51.324,298.891 50.385,297.073 Q48.818,294.037 50.216,291.04 Q52.603,285.925 58.114,287.448 Q59.297,287.775 60.772,288.706 Q61.763,289.332 64.903,291.558 Q80.335,302.501 89.838,306.703 Q92.858,308.038 93.7,310.216 Q94.543,312.393 93.207,315.413 Q90.537,321.452 84.498,318.782 Q77.724,315.786 68.634,310.006 Q66.874,311.225 65.152,311.173 Q62.818,311.102 60.555,308.698 Z"/>
  <path fill="rgb(0.784314%, 0%, 29.803922%)" d="M271.13,406.25 Q267.366,378.399 268.377,354.748 Q261.224,350.16 252.98,340.752 Q249.227,336.47 250.394,330.896 Q251.363,326.272 255.317,323.687 Q259.272,321.102 263.897,322.07 Q266.751,322.668 271.295,323.519 Q273.113,323.86 274.755,324.248 Q274.505,323.153 274.222,321.989 Q270.029,304.784 259.087,278.902 Q257.248,274.551 259.024,270.172 Q260.8,265.794 265.152,263.955 Q269.504,262.115 273.882,263.891 Q278.26,265.668 280.1,270.02 Q303.957,326.454 298.113,346.206 Q296.116,352.957 291.144,356.335 Q290.293,377.708 293.738,403.195 Q294.37,407.877 291.507,411.636 Q288.643,415.394 283.961,416.027 Q279.279,416.659 275.521,413.796 Q271.762,410.932 271.13,406.25 Z"/>
  <path fill="rgb(5.882353%, 0%, 61.568627%)" d="M101.889,257.545 Q105.477,267.669 96.607,277.017 Q95.42,278.269 95.04,278.692 Q95.847,279.049 97.645,279.382 Q103.44,280.454 142.637,282.856 Q164.629,284.204 178.977,285.125 Q179.832,285.18 180.233,285.635 Q180.633,286.09 180.578,286.946 Q180.507,288.059 179.46,288.444 Q159.734,295.719 121.951,289.522 Q100.644,286.028 61.951,275.352 Q50.307,272.139 45.743,270.995 Q44.08,270.578 44.497,268.915 Q44.706,268.084 45.226,267.772 Q45.746,267.461 46.577,267.669 Q51.179,268.823 62.863,272.047 Q78.64,276.4 91.5,279.551 Q91.465,279.403 91.45,279.248 Q91.289,277.641 94.12,274.658 Q101.543,266.834 98.658,258.69 Q98.085,257.074 99.701,256.501 Q100.509,256.215 101.056,256.476 Q101.603,256.737 101.889,257.545 Z M112.358,284.266 Q117.854,285.376 122.506,286.139 Q150.35,290.706 167.932,287.86 Q156.81,287.16 142.427,286.279 Q123.567,285.123 112.358,284.266 Z"/>
  <path fill="rgb(14.901961%, 36.862745%, 100%)" opacity="0.131" d="M152.161,317.373 Q147.57,310.049 147.83,288.827 Q147.207,288.629 146.581,288.417 Q146.473,288.421 146.378,288.425 Q141.467,288.632 137.849,285.306 Q137.373,284.868 136.955,284.403 Q133.344,282.623 129.66,280.407 Q110.324,268.776 94.383,247.721 Q93.396,246.416 92.798,244.892 Q91.003,240.317 92.969,235.812 Q94.935,231.308 99.51,229.513 Q146.85,210.942 163.901,236.291 Q166.256,239.793 167.917,244.165 Q177.016,250.26 191.457,267.78 Q201.135,279.521 204.84,282.768 Q208.536,286.007 208.859,290.911 Q209.183,295.815 205.943,299.512 Q202.704,303.208 197.8,303.531 Q192.896,303.854 189.199,300.615 Q184.766,296.73 176.074,286.394 Q174.307,288.707 171.514,289.999 Q171.228,303.109 172.268,304.768 Q174.879,308.932 173.78,313.723 Q172.681,318.513 168.517,321.124 Q164.353,323.734 159.562,322.636 Q154.772,321.537 152.161,317.373 Z M141.907,247.244 Q136.637,243.706 124.563,246.379 Q130.616,252.41 137.08,256.941 Q138.437,252.568 140.339,249.518 Q141.097,248.303 141.907,247.244 Z"/>
  <path fill="rgb(1.176471%, 17.647059%, 48.627451%)" opacity="0.879" d="M402.046,94.763 Q399.306,94.286 394.224,93.404 Q347.271,85.252 339.322,81.378 Q333.344,78.464 331.755,73.431 Q330.757,70.273 330.954,61.532 Q331.043,57.602 330.993,54.095 Q327.052,65.845 317.921,85.682 Q317.307,87.014 315.896,86.614 Q305.771,83.743 292.899,79.204 Q284.134,76.114 284.072,76.192 Q283.942,76.356 288.417,85.051 Q296.047,99.875 301.362,112.315 Q301.698,113.103 301.473,113.665 Q301.247,114.228 300.459,114.565 Q298.882,115.238 298.209,113.662 Q292.942,101.336 285.369,86.62 Q279.878,75.952 281.392,74.054 Q282.974,72.07 294.039,75.971 Q305.919,80.159 315.42,82.911 Q329.014,53.218 330.414,42.784 Q330.594,41.446 331.936,41.307 Q332.789,41.218 333.26,41.6 Q333.73,41.982 333.818,42.835 Q334.629,50.645 334.382,61.609 Q334.198,69.782 335.024,72.399 Q336.17,76.028 340.824,78.296 Q348.337,81.957 394.81,90.026 Q399.918,90.913 402.634,91.385 Q403.478,91.532 403.827,92.028 Q404.176,92.524 404.029,93.368 Q403.735,95.057 402.046,94.763 Z"/>
  <path fill="rgb(7.058824%, 0%, 50.588235%)" opacity="0.977" d="M177.154,286.883 Q201.229,285.31 219.665,293.565 Q238.952,302.202 244.037,317.35 Q247.135,326.579 243.618,335.312 Q240.269,343.626 231.64,349.185 Q216.636,358.851 187.929,358.429 Q182.409,358.348 178.562,354.387 Q175.83,351.574 175.08,347.974 Q164.706,349.203 140.7,353.899 Q139.122,354.208 137.558,354.512 Q127.168,361.88 114.658,364.574 Q93.894,369.045 84.873,356.416 Q83.081,353.908 82.572,350.868 Q81.661,345.423 84.867,340.928 Q88.073,336.433 93.519,335.522 Q106.262,333.389 126.057,329.584 Q131.062,324.905 131.078,320.645 Q131.101,314.315 120.272,306.218 Q115.85,302.912 115.061,297.447 Q114.273,291.983 117.579,287.561 Q120.885,283.139 126.35,282.35 Q131.814,281.562 136.236,284.868 Q157.809,300.999 157.736,320.743 Q157.731,322.229 157.607,323.686 Q174.531,320.841 180.99,320.88 Q194.454,320.962 200.2,328.924 Q201.023,330.064 201.641,331.259 Q211.95,330.158 217.203,326.774 Q218.299,326.068 218.694,325.636 Q217.186,321.665 208.769,317.896 Q196.369,312.343 178.893,313.485 Q173.383,313.845 169.233,310.203 Q165.083,306.562 164.723,301.053 Q164.363,295.543 168.004,291.393 Q171.645,287.243 177.154,286.883 Z"/>
  <path fill="rgb(27.058824%, 12.941176%, 81.176471%)" opacity="0.532" d="M281.388,191.095 Q267.079,208.539 258.866,218.961 Q260.81,225.361 262.152,235.01 Q263.54,244.999 265.491,249.437 Q268.623,256.558 276.611,262.312 Q278.002,263.314 277,264.705 Q275.999,266.096 274.607,265.094 Q265.861,258.794 262.353,250.817 Q260.21,245.943 258.756,235.482 Q257.688,227.803 256.247,222.304 Q255.913,222.734 255.612,223.124 Q255.298,223.616 254.947,224.14 Q253.116,226.863 251.884,228.111 Q251.841,228.177 251.825,228.205 Q251.843,228.173 251.861,228.134 Q250.797,229.205 250.184,229.164 Q248.577,229.056 248.58,227.443 Q248.581,227.127 248.694,226.826 Q248.752,226.672 248.848,226.503 Q248.939,226.344 249.113,226.087 Q249.44,225.604 250.093,224.72 Q251.154,223.285 252.844,221.098 Q254.807,218.043 254.734,217.241 Q254.657,216.388 255.044,215.922 Q255.432,215.456 256.286,215.379 Q256.827,215.329 257.222,215.51 Q265.301,205.3 278.737,188.921 Q279.824,187.595 281.15,188.682 Q281.812,189.226 281.872,189.829 Q281.932,190.432 281.388,191.095 Z"/>
  <path fill="rgb(27.45098%, 0%, 25.490196%)" opacity="0.56" d="M295.54,315.304 Q284.092,314.772 276.814,296.744 Q272.143,285.173 271.004,274.524 Q270.227,267.272 272.001,262.651 Q274.53,256.064 280.972,254.159 Q286.93,252.398 292.64,255.939 Q300.627,260.891 313.582,285.476 Q315.918,289.91 314.435,294.699 Q312.951,299.487 308.517,301.824 Q308.337,301.918 308.156,302.007 Q308.233,302.87 308.19,303.777 Q307.958,308.784 304.252,312.16 Q300.547,315.536 295.54,315.304 Z"/>
  <path fill="rgb(100%, 72.54902%, 16.470588%)" opacity="0.798" d="M338.889,223.464 Q334.806,223.367 332.844,222.608 Q330.172,221.576 330.391,219.283 Q330.533,217.787 332.874,215.556 Q332.329,215.673 331.716,215.812 Q330.88,216.002 330.367,215.68 Q329.854,215.357 329.664,214.521 Q329.284,212.849 330.956,212.469 Q337.38,211.008 338.569,212.163 Q340.022,213.575 338.258,215.395 Q337.836,215.83 336.613,216.833 Q333.853,219.095 333.804,219.608 L334.079,219.41 Q335.484,219.953 338.97,220.036 Q340.684,220.077 340.644,221.791 Q340.603,223.505 338.889,223.464 Z"/>
  <path fill="rgb(3.137255%, 77.647059%, 72.941176%)" opacity="0.403" d="M50.656,193.56 Q49.337,200.051 47.753,208.453 Q47.475,209.928 47.337,210.66 Q47.009,212.4 45.27,212.072 Q44.792,211.981 44.427,211.66 Q42.571,210.023 32.917,212.391 Q21.436,215.207 18.765,211.842 Q14.787,206.831 25.176,187.577 Q26.017,186.019 27.575,186.86 Q29.133,187.701 28.292,189.259 Q19.012,206.458 21.538,209.641 Q22.798,211.228 32.074,208.953 Q40.275,206.941 44.267,207.837 Q44.27,207.817 44.274,207.797 Q49.832,178.302 52.254,171.88 Q53.327,169.034 54.462,168.038 Q55.582,167.056 56.878,167.382 Q57.966,167.657 58.725,168.848 Q60.548,171.714 61.815,183.681 Q61.861,184.115 61.7,184.521 Q61.046,186.166 59.401,185.512 Q57.682,184.829 56.394,183.945 Q55.679,187.754 53.911,193.103 Q53.356,194.783 51.675,194.228 Q50.967,193.994 50.656,193.56 Z M56.871,179.572 Q57.274,180.148 57.905,180.661 Q57.085,174.113 56.175,171.675 Q55.898,172.249 55.567,173.129 Q55.131,174.284 54.582,176.259 Q55.809,176.083 56.464,177.345 Q56.683,177.767 56.782,178.381 Q56.866,178.9 56.871,179.572 Z M51.908,187.548 Q52.767,184.444 53.112,182.132 Q52.548,184.562 51.908,187.548 Z"/>
  <path fill="rgb(99.607843%, 27.058824%, 83.921569%)" opacity="0.016" d="M94.997,319.922 Q63.612,325.441 45.697,319.204 Q25.562,312.194 18.315,289.819 Q16.894,285.434 21.279,284.014 Q23.471,283.304 24.923,284.045 Q26.374,284.786 27.084,286.978 Q32.919,304.995 48.728,310.499 Q64.378,315.947 93.401,310.844 Q95.671,310.445 97.005,311.38 Q98.339,312.315 98.738,314.585 Q99.537,319.124 94.997,319.922 Z"/>
  <path fill="rgb(11.372549%, 45.098039%, 93.333333%)" opacity="0.167" d="M397.078,78.577 Q373.209,97.677 347.011,103.191 Q335.885,105.533 328.777,104.086 Q320.418,102.384 320.357,96.195 Q320.348,95.208 320.836,94.709 Q321.325,94.211 322.313,94.201 Q324.288,94.182 324.307,96.156 Q324.336,99.151 329.565,100.215 Q335.872,101.499 346.198,99.326 Q371.475,94.006 394.61,75.493 Q396.152,74.259 397.386,75.801 Q398.62,77.343 397.078,78.577 Z"/>
  <path fill="rgb(100%, 96.078431%, 100%)" opacity="0.224" d="M153.371,275.196 Q163.86,323.599 162.777,347.07 Q163.26,346.637 163.722,346.244 Q172.884,338.445 186.645,332.669 Q187.436,332.338 187.997,332.567 Q188.558,332.796 188.889,333.587 Q189.553,335.167 187.972,335.831 Q174.701,341.401 165.944,348.855 Q164.305,350.25 162.369,352.183 Q161.916,356.03 161.057,359.006 Q158.043,369.457 149.466,376.194 Q143.876,380.584 129.203,387.451 Q127.651,388.178 126.924,386.625 Q126.369,385.44 127.366,384.592 Q137.446,376.022 149.234,361.753 Q154.806,355.009 159.108,350.607 Q161.348,328.197 150.02,275.922 Q149.657,274.246 151.332,273.883 Q152.17,273.702 152.68,274.03 Q153.189,274.358 153.371,275.196 Z M158.128,356.666 Q155.249,359.856 151.878,363.937 Q144.763,372.549 138.237,379.138 Q144.299,375.892 147.348,373.497 Q155.055,367.444 157.763,358.056 Q157.957,357.385 158.128,356.666 Z"/>
  <path fill="rgb(3.529412%, 0%, 59.607843%)" opacity="0.795" d="M39.342,190.481 Q41.963,187.502 46.654,181.42 Q52.25,174.163 54.588,172.1 Q56.693,170.243 58.469,169.927 Q60.881,169.497 62.575,171.544 Q67.421,177.397 66.956,218.89 Q66.937,220.605 65.223,220.585 Q63.509,220.566 63.528,218.852 Q63.979,178.615 59.934,173.73 Q59.514,173.223 59.069,173.302 Q58.24,173.45 56.856,174.671 Q54.765,176.516 49.369,183.514 Q44.611,189.684 41.916,192.746 Q40.783,194.033 39.496,192.9 Q38.853,192.334 38.814,191.729 Q38.776,191.124 39.342,190.481 Z"/>
  <path fill="rgb(12.54902%, 0%, 38.823529%)" d="M85.512,148.537 Q86.002,149.143 96.362,141.071 Q105.364,134.057 109.181,132.891 Q113.913,131.445 116.789,134.471 Q119.26,137.071 119.257,142.837 Q119.257,144.704 118.323,145.637 Q117.389,146.571 115.522,146.57 Q111.788,146.569 111.79,142.835 Q111.791,140.052 111.376,139.616 L111.363,140.033 Q108.866,140.796 100.952,146.962 Q94.083,152.314 90.959,153.973 Q83.507,157.93 79.707,153.236 Q77.358,150.334 80.26,147.985 Q81.711,146.81 83.024,146.948 Q84.337,147.086 85.512,148.537 Z"/>
  <path fill="rgb(3.137255%, 0%, 28.627451%)" opacity="0.789" d="M275.765,358.968 Q265.361,352.527 254.501,354.572 Q252.609,362.657 252.449,372.696 Q252.404,375.568 249.999,377.139 Q229.366,390.621 221.317,384.035 Q212.858,377.113 223.496,362.595 Q232.202,350.711 245.749,345.803 Q247.884,339.434 251.122,334.151 Q251.179,334.057 251.223,333.986 Q248.778,332.541 242.456,329.282 Q239.627,327.824 238.014,326.986 Q233.212,324.492 235.706,319.69 Q238.199,314.888 243.001,317.382 Q244.601,318.212 247.415,319.663 Q258.87,325.567 260.904,327.924 Q264.839,332.479 260.349,339.806 Q259.343,341.448 258.464,343.235 Q270.219,342.807 281.462,349.767 Q286.062,352.615 283.214,357.215 Q280.366,361.816 275.765,358.968 Z M242.632,359.259 Q236.638,362.967 232.225,368.991 Q229.576,372.606 228.912,375.361 Q229.68,375.253 230.706,374.954 Q235.093,373.676 241.711,369.586 Q241.929,364.184 242.632,359.259 Z"/>
  <path fill="rgb(61.960784%, 40.392157%, 59.607843%)" opacity="0.346" d="M344.831,237.613 Q348.108,231.091 347.719,228.9 L347.83,228.845 Q347.723,228.841 347.643,228.832 Q347.283,228.788 346.973,228.608 Q346.113,228.105 346.122,227.109 Q346.129,226.351 346.696,225.845 Q346.967,225.603 347.406,225.457 Q347.477,225.433 347.551,225.408 Q347.318,224.68 347.646,223.876 Q348.594,221.55 355.95,221.571 Q356.972,221.574 357.455,222.473 Q357.861,223.228 357.687,223.809 Q357.512,224.389 356.757,224.795 Q355.724,225.35 354.793,225.833 Q368.527,229.983 398.528,231.017 Q400.241,231.076 400.182,232.79 Q400.123,234.503 398.41,234.444 Q367.726,233.386 353.579,229.048 Q352.147,228.608 351.07,228.166 Q351.083,228.233 351.096,228.302 Q351.682,231.613 347.895,239.152 Q347.126,240.684 345.594,239.915 Q344.062,239.145 344.831,237.613 Z"/>
  <path fill="rgb(83.529412%, 55.686275%, 87.843137%)" opacity="0.149" d="M93.418,131.738 Q94.28,130.897 95.061,130.118 Q77.27,132.217 68.685,128.65 Q65.381,127.277 64.416,124.939 Q63.45,122.601 64.823,119.298 Q67.568,112.691 74.175,115.436 Q79.905,117.817 96.253,115.537 Q102.284,114.696 104.697,114.629 Q112.226,114.419 114.991,119.274 Q118.005,124.566 112.973,131.51 Q110.151,135.404 103.41,141.98 Q100.85,144.479 98.32,144.447 Q95.791,144.416 93.293,141.855 Q88.297,136.734 93.418,131.738 Z"/>
  <path fill="rgb(100%, 46.27451%, 38.823529%)" opacity="0.365" d="M290.684,349.265 Q295.045,347.667 304.995,335.87 Q313.653,325.604 321.183,319.625 Q319.346,318.661 317.344,317.714 Q313.609,315.948 312.795,311.898 Q308.257,289.315 300.414,278.352 Q295.055,270.859 289.252,270.296 Q284.517,269.836 279.797,273.752 Q274.939,277.783 273.371,283.279 Q271.116,291.189 263.205,288.934 Q255.295,286.678 257.551,278.768 Q260.514,268.374 269.292,261.092 Q279.285,252.8 290.84,253.921 Q317.386,256.497 328.082,304.671 Q333.924,307.687 338.603,310.975 Q356.794,307.13 378.976,320.802 Q382.477,322.96 383.149,325.79 Q383.821,328.62 381.663,332.121 Q379.529,335.583 375.482,335.989 Q354.859,338.061 348.918,337.428 Q341.635,336.652 336.138,330.497 Q335.768,330.082 335.371,329.67 Q328.08,334.016 317.57,346.476 Q304.806,361.61 296.347,364.711 Q288.624,367.543 285.793,359.82 Q282.961,352.097 290.684,349.265 Z"/>
  <path fill="rgb(21.960784%, 0.392157%, 37.647059%)" opacity="0.82" d="M174.619,38.011 Q177.272,57.014 177.028,72.461 Q176.982,75.383 177.034,76.136 Q177.574,76.202 178.965,76.256 Q193.896,76.842 214.642,85.592 Q216.832,86.515 215.908,88.705 Q215.708,89.179 215.329,89.528 Q200.465,103.233 183.94,109.863 Q174.509,113.648 159.854,116.24 Q147.103,118.495 146.006,122.367 Q144.158,128.892 154.894,154.483 Q155.814,156.674 153.622,157.594 Q152.527,158.053 151.749,157.735 Q150.972,157.417 150.512,156.322 Q139.132,129.197 141.434,121.072 Q142.769,116.36 148.013,114.194 Q150.919,112.994 159.026,111.56 Q173.197,109.054 182.17,105.453 Q196.344,99.765 209.304,88.541 Q191.599,81.508 178.779,81.005 Q174.345,80.831 173.143,79.064 Q172.193,77.666 172.276,72.386 Q172.514,57.307 169.912,38.668 Q169.748,37.492 170.254,36.821 Q170.76,36.151 171.937,35.986 Q174.29,35.658 174.619,38.011 Z"/>
  <path fill="rgb(21.176471%, 0%, 16.862745%)" opacity="0.802" d="M9.472,99.402 Q12.56,80.288 18.874,70.892 Q7.595,73.306 -12.593,71.004 Q-14.296,70.81 -14.102,69.107 Q-14.005,68.255 -13.53,67.878 Q-13.056,67.5 -12.204,67.598 Q12.416,70.404 22.89,66.124 Q24.318,65.54 25.136,66.479 Q26.229,67.731 24.82,69.069 Q16.581,76.896 12.856,99.949 Q12.583,101.642 10.891,101.368 Q10.044,101.231 9.69,100.74 Q9.335,100.249 9.472,99.402 Z"/>
  <path fill="rgb(94.117647%, 89.411765%, 100%)" opacity="0.233" d="M177.339,373.773 Q177.374,373.394 177.409,373.016 Q175.314,372.14 175.122,369.104 Q175.073,368.321 175.166,367.665 Q174.457,366.778 173.769,365.84 Q172.262,363.782 173.232,361.424 Q178.866,347.717 182.524,337.194 Q182.688,336.388 182.856,335.591 Q185.612,322.497 187.582,318.792 Q188.202,317.624 189.127,316.947 Q191.599,315.139 194.213,316.7 Q195.915,317.716 196.36,319.681 Q196.625,320.855 196.279,322.772 Q195.796,325.445 194.269,330.51 Q192.999,334.724 191.317,339.592 Q189.06,350.817 187.511,363.927 Q203.496,363.597 211.136,366.64 Q216.691,368.852 217.613,372.931 Q218.71,377.788 213.658,380.74 Q206.684,384.816 195.642,381.728 Q190.27,380.226 185.572,377.21 Q184.361,378.982 181.453,378.716 Q179.188,378.508 178.16,377.273 Q177.132,376.037 177.339,373.773 Z M199.591,373.354 Q201.893,373.888 203.789,373.963 Q201.9,373.587 199.591,373.354 Z"/>
  <path fill="rgb(18.823529%, 0%, 13.333333%)" opacity="0.546" d="M149.3,191.859 Q159.13,192.755 171.115,191.913 Q179.968,191.291 180.524,194.42 Q180.916,196.627 175.029,207.339 Q166.455,222.941 159.498,237.47 Q170.776,236.649 186.026,236.571 Q186.884,236.567 187.314,236.993 Q187.745,237.419 187.749,238.276 Q187.753,239.031 187.2,239.543 Q172.286,253.345 163.426,265.97 Q154.367,278.877 154.566,286.366 Q154.758,293.615 165.154,294.042 Q178.227,294.58 204.672,284.603 Q206.276,283.998 206.881,285.602 Q207.184,286.404 206.934,286.956 Q206.684,287.508 205.882,287.811 Q178.784,298.034 165.013,297.468 Q151.415,296.909 151.138,286.457 Q150.691,269.536 181.663,240.038 Q167.96,240.213 157.807,241.037 Q157.522,241.645 157.237,242.255 Q156.829,243.131 155.869,243.236 Q144.462,244.476 140.569,244.247 Q139.513,244.184 138.975,243.964 Q137.926,243.534 137.783,242.484 Q137.636,241.392 138.589,240.71 Q139.362,240.157 142.039,239.626 Q147.694,238.503 155.547,237.792 Q162.871,222.343 172.024,205.688 Q177.329,196.036 177.148,195.021 Q177.132,194.927 171.355,195.333 Q159.095,196.195 148.989,195.274 Q147.282,195.118 147.437,193.411 Q147.593,191.704 149.3,191.859 Z"/>
  <path fill="rgb(2.745098%, 0%, 76.470588%)" d="M259.656,307.896 Q249.772,329.075 227.958,360.711 Q226.977,362.134 225.554,361.153 Q224.132,360.172 225.113,358.75 Q250.623,321.753 259.613,299.344 Q260.528,297.063 261.002,295.558 Q261.055,295.388 261.09,295.27 Q261.096,295.247 261.102,295.226 Q261.106,295.212 261.108,295.205 Q261.107,295.209 261.106,295.214 Q261.171,294.991 261.222,294.883 Q261.851,293.55 263.267,293.961 Q264.654,294.364 264.503,295.802 Q264.493,295.901 264.47,296.001 Q264.462,296.039 264.45,296.083 Q264.437,296.134 264.417,296.204 Q264.383,296.32 264.339,296.466 L264.334,296.528 Q263.314,300.786 263.027,307.264 Q262.95,308.99 261.224,308.914 Q259.946,308.857 259.656,307.896 Z"/>
  <path fill="rgb(100%, 98.431373%, 92.941176%)" opacity="0.081" d="M76.438,402.506 Q113.909,395.902 121.578,392.795 Q120.909,392.41 120.017,391.96 Q116.065,389.966 101.839,384.595 Q99.924,386.227 97.194,387.188 Q87.033,390.765 72.454,383.046 Q54.69,373.641 33.76,348.582 Q31.997,346.472 33.321,344.061 Q43.132,326.189 54.194,325.325 Q63.484,324.599 70.496,334.986 Q75.857,342.927 76.426,350.403 Q76.903,356.677 72.263,357.555 Q68.638,358.242 64.706,353.25 Q63.46,351.668 63.628,350.254 Q63.796,348.839 65.379,347.593 Q66.452,346.748 67.448,346.553 Q66.3,343.17 63.819,339.494 Q59.433,332.997 54.822,333.357 Q48.696,333.836 41.744,345.551 Q60.601,367.655 76.224,375.926 Q84.538,380.328 90.417,380.271 Q89.793,380.032 89.237,379.818 Q85.477,378.371 86.924,374.612 Q87.474,373.184 88.832,372.481 Q94.21,369.698 98.335,370.015 Q103.462,370.41 105.092,374.673 Q105.613,376.036 105.606,377.406 Q119.457,382.653 123.646,384.767 Q127.667,386.796 129.367,388.702 Q132.8,392.551 129.956,396.449 Q125.932,401.964 77.836,410.44 Q75.852,410.789 74.686,409.972 Q73.519,409.155 73.17,407.172 Q72.471,403.205 76.438,402.506 Z"/>
  <path fill="rgb(10.588235%, 21.568627%, 69.019608%)" opacity="0.318" d="M269.699,109.92 Q272.422,96.67 285.154,85.323 Q295.517,76.088 306.463,72.723 Q314.29,70.316 320.348,72.318 Q326.631,74.394 329.586,80.138 Q332.14,85.103 331.055,90.98 Q329.11,101.521 311.211,118.769 Q307.156,122.677 301.526,122.573 Q297.449,122.497 294.275,120.35 Q292.823,122.474 290.497,124.007 Q285.795,127.106 280.28,125.972 Q274.764,124.839 271.665,120.138 Q268.566,115.436 269.699,109.92 Z"/>
  <path fill="rgb(77.647059%, 29.019608%, 24.705882%)" opacity="0.54" d="M315.534,132.942 Q310.785,107.937 325.92,101.307 Q333.84,97.837 350.607,100.46 Q352.273,100.721 353.418,100.872 Q353.849,100.298 354.589,99.779 Q357.606,97.661 359.725,100.679 Q361.552,103.282 360.605,105.616 Q359.572,108.163 356.343,108.424 Q354.669,108.558 349.468,107.745 Q334.827,105.454 328.878,108.061 Q319.125,112.333 322.778,131.566 Q323.466,135.188 319.844,135.876 Q318.033,136.22 316.956,135.486 Q315.878,134.753 315.534,132.942 Z"/>
  <path fill="rgb(100%, 0.784314%, 46.27451%)" d="M249.97,301.865 Q283.012,306.309 304.634,317.911 Q325.251,328.975 325.736,340.745 Q326.282,353.993 303.316,356.013 Q279.94,358.07 239.331,346.954 Q236.158,346.086 237.026,342.913 Q237.895,339.74 241.068,340.608 Q280.539,351.413 302.74,349.46 Q319.45,347.99 319.162,341.015 Q318.832,332.997 301.523,323.709 Q280.952,312.67 249.093,308.385 Q245.833,307.947 246.271,304.687 Q246.71,301.426 249.97,301.865 Z"/>
  <path fill="rgb(14.509804%, 10.196078%, 58.039216%)" opacity="0.457" d="M14.812,94.419 Q13.876,91.405 15.375,90.146 Q16.725,89.011 19.338,90.028 Q21.617,90.915 28.764,95.497 Q44.311,105.464 49.849,105.638 Q53.437,105.751 54.479,102.22 Q55.986,97.117 53.131,85.309 Q52.728,83.643 54.394,83.24 Q55.227,83.039 55.744,83.354 Q56.262,83.67 56.463,84.503 Q59.535,97.205 57.767,103.191 Q55.975,109.262 49.741,109.065 Q43.257,108.861 26.913,98.383 Q20.055,93.986 18.095,93.224 Q18.06,93.21 18.025,93.197 Q18.053,93.295 18.086,93.401 Q18.595,95.038 16.958,95.547 Q16.139,95.802 15.603,95.52 Q15.067,95.237 14.812,94.419 Z"/>
  <path fill="rgb(100%, 100%, 100%)" opacity="0.268" d="M158.008,26.591 Q168.403,18.003 183.166,4.575 Q193.534,-4.854 196.868,-7.222 Q199.945,-9.408 202.157,-9.848 Q206.326,-10.676 208.363,-7.083 Q210.273,-3.714 208.911,7.092 Q208.097,13.555 204.45,34.501 Q203.993,37.123 203.755,38.492 Q203.107,42.22 199.379,41.572 Q195.651,40.924 196.299,37.196 Q196.535,35.838 196.994,33.203 Q201.915,4.936 201.981,-1.555 Q201.644,-1.332 201.25,-1.052 Q198.288,1.052 188.259,10.174 Q173.362,23.722 162.828,32.425 Q159.911,34.835 157.501,31.918 Q156.296,30.459 156.423,29.127 Q156.549,27.796 158.008,26.591 Z"/>
  <path fill="rgb(10.588235%, 0%, 33.333333%)" opacity="0.906" d="M261.248,384.262 Q284.256,376.102 307.902,369.998 Q311.258,369.131 313.229,368.584 Q301.875,350.301 297.168,325.046 Q296.853,324.825 296.531,324.589 Q287.83,318.202 271.317,302.799 Q255.189,287.754 246.784,278.332 Q241.416,272.314 240.759,269.382 Q239.574,264.086 244.372,261.844 Q246.85,260.686 249.74,261.637 Q251.574,262.24 254.615,264.188 Q259.08,267.049 257.383,271.259 Q265.339,279.982 279.916,293.58 Q291.372,304.266 298.78,310.348 Q299.82,309.886 301.215,309.693 Q304.913,309.182 307.139,312.179 Q314.236,321.735 310.273,326.317 Q314.67,347.132 324.107,362.203 Q326.348,365.782 326.969,367.383 Q328.96,372.516 325.632,376.297 Q323.191,379.071 311.053,382.204 Q287.946,388.17 265.463,396.144 Q259.522,398.251 257.415,392.31 Q255.308,386.369 261.248,384.262 Z"/>
  <path fill="rgb(38.039216%, 0%, 0%)" d="M161.217,139.275 Q142.951,165.762 123.174,163.914 Q111.491,162.823 90.423,147.081 Q78.891,138.466 73.13,135.471 Q63.893,130.669 56.269,131.55 Q53.942,131.818 53.673,129.491 Q53.619,129.027 53.748,128.578 Q66.607,83.641 76.75,83.286 Q81.362,83.125 83.56,89.716 Q84.985,93.994 84.652,97.299 Q87.648,102.476 93.338,102.845 Q95.369,102.976 96.247,101.78 Q97.543,100.014 96.834,95.73 Q96.451,93.419 98.762,93.037 Q101.073,92.654 101.456,94.965 Q102.487,101.196 100.024,104.552 Q97.627,107.817 93.035,107.52 Q84.369,106.958 80.148,98.825 Q79.781,98.119 79.921,97.335 Q80.353,94.911 79.115,91.198 Q78.026,87.93 76.913,87.969 Q70.432,88.195 59.159,126.732 Q66.742,126.87 75.291,131.314 Q81.39,134.484 93.227,143.328 Q113.239,158.281 123.61,159.25 Q140.653,160.842 157.361,136.615 Q158.691,134.687 160.619,136.017 Q162.547,137.347 161.217,139.275 Z"/>
  <path fill="rgb(33.72549%, 18.431373%, 0%)" d="M207.295,295.886 Q225.84,315.902 234.827,315.164 Q241.212,314.64 241.8,302.333 Q242.346,290.904 238.261,278.705 Q236.513,273.486 234.685,271.1 Q233.957,270.149 233.475,269.967 Q233.462,269.962 233.405,270.011 Q232.078,271.174 230.915,269.847 Q230.333,269.183 230.374,268.56 Q230.415,267.938 231.079,267.356 Q232.729,265.91 234.725,266.665 Q236.148,267.204 237.488,268.953 Q239.673,271.806 241.608,277.584 Q245.904,290.411 245.327,302.501 Q244.591,317.905 235.116,318.683 Q224.417,319.561 204.705,298.286 Q203.506,296.991 204.8,295.791 Q205.448,295.191 206.071,295.215 Q206.695,295.239 207.295,295.886 Z"/>
  <path fill="rgb(86.666667%, 76.862745%, 100%)" opacity="0.31" d="M126.215,194.69 Q127.965,195.425 128.976,196.383 Q131.253,196.58 133.944,196.82 Q136.227,197.025 137.266,198.268 Q138.306,199.512 138.101,201.795 Q138.079,202.046 138.029,202.293 Q136.341,210.666 133.59,218.659 Q141.38,213.624 149.744,208.993 Q153.755,206.773 155.976,210.783 Q157.086,212.789 156.638,214.347 Q156.191,215.905 154.185,217.015 Q141.769,223.889 130.682,231.672 Q125.455,235.341 122.936,234.513 Q119.452,233.368 119.682,229.625 Q119.734,228.787 120.084,227.79 Q120.326,227.101 121.181,225.177 Q125.417,215.648 127.919,205.494 Q123.077,205.076 120.176,204.861 Q119.58,204.838 118.934,204.801 Q117.608,204.727 117.148,204.658 Q114.867,204.316 113.776,202.305 Q112.215,199.427 114.431,197.016 Q115.183,196.198 116.226,195.815 Q116.72,195.634 117.242,195.569 Q117.48,195.539 117.725,195.534 Q117.918,195.53 118.196,195.542 Q118.548,195.557 119.239,195.603 Q119.901,195.647 120.712,195.707 Q120.861,195.712 121.004,195.717 Q122.816,193.265 126.215,194.69 Z"/>
  <path fill="rgb(27.45098%, 24.705882%, 76.078431%)" opacity="0.15" d="M313.909,140.706 Q315.862,141.836 317.628,142.728 Q318.603,142.18 319.96,141.874 Q327.892,140.085 339.652,137.962 Q347.349,130.431 354.588,127.733 Q367.73,122.833 388.23,127.179 Q390.351,127.058 391.8,127.232 Q398.295,128.013 398.444,133.775 Q398.451,134.048 398.434,134.318 Q398.518,136.576 396.66,138.625 Q395.81,139.564 394.563,140.207 Q392.865,141.444 390.426,142.564 Q378.937,147.842 360.389,151.469 Q349.401,153.617 339.749,154.229 Q335.77,157.06 332.215,157.781 Q322.642,159.721 307.857,151.169 Q305.241,149.656 304.69,147.592 Q304.138,145.527 305.651,142.911 Q308.677,137.68 313.909,140.706 Z"/>
  <path fill="rgb(0%, 0%, 54.509804%)" opacity="0.934" d="M16.052,285.63 Q26.263,288.991 32.634,282.255 Q36.401,278.272 40.189,268.159 Q42.35,262.388 43.84,261.648 Q45.886,260.632 47.454,263.039 Q48.349,264.413 49.403,267.649 Q51.924,275.39 63.211,326.501 Q66.111,322.647 67.498,317.354 Q67.933,315.696 69.591,316.131 Q70.42,316.348 70.726,316.871 Q71.032,317.395 70.815,318.224 Q68.851,325.716 64.14,330.714 Q64.519,332.436 64.909,334.209 L65.807,338.296 Q65.991,339.133 65.665,339.644 Q65.338,340.154 64.501,340.338 Q64.075,340.432 63.657,340.311 Q49.741,336.287 39.476,335.94 Q36.602,335.842 35.876,334.961 Q34.979,333.874 36.082,331.281 Q37.864,327.092 38.766,322.45 Q39.093,320.768 40.776,321.095 Q41.5,321.235 41.896,321.858 Q47.38,330.482 52.419,332.027 Q56.128,333.165 59.684,330.205 Q60.041,329.908 60.384,329.598 Q48.672,276.475 46.143,268.711 Q45.457,266.605 44.921,265.519 Q44.415,266.649 43.399,269.361 Q39.368,280.124 35.125,284.611 Q27.258,292.928 14.98,288.886 Q13.351,288.35 13.887,286.722 Q14.155,285.908 14.696,285.635 Q15.238,285.362 16.052,285.63 Z M47.307,333.2 Q44.257,331.004 41.227,326.939 Q40.427,329.804 39.288,332.502 Q39.436,332.508 39.593,332.513 Q43.239,332.636 47.307,333.2 Z M61.213,333.366 Q59.548,334.614 57.828,335.219 Q59.798,335.691 61.846,336.244 L61.56,334.944 Q61.387,334.157 61.213,333.366 Z"/>
  <path fill="rgb(0%, 0.392157%, 100%)" opacity="0.283" d="M155.825,42.535 Q174.73,50.018 183.089,57.199 Q191.102,64.084 193.546,73.021 Q196.736,84.687 190.198,95.297 Q184.477,104.579 168.873,112.838 Q161.754,116.606 142.522,125.163 Q108.24,140.417 87.693,151.542 Q79.477,155.991 70.522,153.327 Q61.566,150.663 57.118,142.447 Q52.669,134.231 55.333,125.276 Q57.997,116.32 66.213,111.872 Q88.301,99.913 124.183,83.947 Q128.641,81.963 132.343,80.285 Q128.845,77.139 126.823,72.468 Q123.112,63.894 126.551,55.206 Q129.989,46.519 138.563,42.808 Q147.138,39.096 155.825,42.535 Z"/>
  <path fill="rgb(36.078431%, 74.901961%, 100%)" opacity="0.939" d="M198.521,101.507 Q154.585,114.161 138.541,109.577 Q130.212,107.197 123.116,99.83 Q118.676,95.22 109.286,81.943 Q108.1,80.266 107.485,79.398 Q107.33,79.181 107.25,78.927 Q92.126,31.51 76.233,0.821 Q74.646,-2.243 73.117,-5.023 Q61.379,-4.472 50.093,-5.861 Q36.547,-7.527 30.738,-11.416 Q26.956,-13.948 26.63,-17.362 Q26.286,-20.976 29.967,-24.937 Q30.55,-25.564 31.156,-25.587 Q31.762,-25.609 32.39,-25.025 Q33.645,-23.858 32.478,-22.602 Q29.845,-19.769 30.043,-17.688 Q30.214,-15.892 32.645,-14.265 Q37.776,-10.831 50.512,-9.263 Q60.679,-8.012 71.232,-8.377 Q65.997,-17.493 61.469,-23.104 Q60.559,-24.231 60.982,-25.195 Q61.485,-26.343 62.731,-26.213 Q63.042,-26.181 63.322,-26.041 Q63.462,-25.971 63.593,-25.874 Q63.663,-25.822 63.749,-25.748 Q63.81,-25.695 63.988,-25.534 Q72.719,-17.645 88.099,-10.801 Q89.666,-10.104 88.969,-8.537 Q88.791,-8.139 88.445,-7.874 Q86.002,-6.002 77.178,-5.279 Q93.355,24.131 110.435,77.632 Q111.038,78.482 112.085,79.963 Q121.326,93.029 125.585,97.451 Q132.042,104.154 139.483,106.28 Q154.582,110.594 197.572,98.212 Q198.396,97.975 198.927,98.268 Q199.457,98.561 199.694,99.385 Q200.169,101.032 198.521,101.507 Z M75.323,-8.577 Q80.114,-8.881 82.912,-9.419 Q76.103,-12.682 70.673,-16.189 Q72.989,-12.636 75.323,-8.577 Z"/>
  <path fill="rgb(7.45098%, 35.686275%, 87.45098%)" opacity="0.445" d="M165.979,43.329 Q167.077,42.711 167.919,42.469 Q171.39,41.472 172.806,44.482 Q174.423,47.921 162.945,63.754 Q162.259,64.7 161.141,65.039 Q156.508,66.443 148.708,68.833 Q136.809,72.478 133.418,73.423 Q130.684,74.185 129.372,74.417 Q128.323,74.602 127.604,74.542 Q126.374,74.44 125.478,73.692 Q123.528,72.064 124.43,69.675 Q125.223,67.576 148.648,55.724 Q151.676,54.192 154.344,52.841 Q154.294,52.103 154.507,51.212 Q154.733,50.266 155.472,48.937 Q156.079,47.846 157.181,46.21 Q152.29,44.359 147.298,42.894 Q142.602,41.516 142.882,38.541 Q143.167,35.519 148.087,35.118 Q157.305,34.368 167.037,32.221 Q168.733,31.847 169.768,32.508 Q170.803,33.169 171.177,34.865 Q171.925,38.257 168.533,39.005 Q164.951,39.795 161.431,40.405 Q162.665,40.891 163.894,41.401 Q164.277,41.56 164.612,41.805 Q165.592,42.521 165.979,43.329 Z"/>
  <path fill="rgb(100%, 94.509804%, 100%)" d="M144.991,346.588 Q144.006,342.467 143.873,336.706 Q142.662,335.723 143.429,333.962 Q143.623,333.515 143.868,333.195 Q143.901,331.4 144.005,329.47 Q144.049,328.653 144.574,328.027 Q148.771,323.008 152.673,324.202 Q156.325,325.319 156.601,330.017 Q156.853,334.307 153.848,336.736 Q151.703,338.471 148.83,338.285 Q149.011,342.132 149.64,344.974 Q156.769,344.611 158.81,348.435 Q160.011,350.683 158.822,353.065 Q157.789,355.135 155.58,355.971 Q150.115,358.04 146.685,351.358 Q146.333,350.671 146.024,349.901 Q145.095,349.429 144.899,347.992 Q144.787,347.17 144.991,346.588 Z M148.774,333.335 Q150.035,333.505 150.761,332.918 Q151.803,332.075 151.699,330.305 Q151.623,329.016 151.236,328.897 Q150.551,328.688 148.867,330.567 Q148.8,331.997 148.774,333.335 Z M151.433,349.8 Q152.662,351.826 153.842,351.379 Q154.253,351.223 154.428,350.872 Q154.485,350.759 154.479,350.748 Q153.985,349.822 151.433,349.8 Z"/>
  <path fill="rgb(5.490196%, 28.235294%, 96.470588%)" opacity="0.664" d="M2.842,93.176 Q-37.92,83.867 -42.045,81.311 Q-43.465,80.431 -44.19,79.023 Q-45.464,76.547 -44.246,74.05 Q-43.347,72.208 -41.455,71.385 Q-40.063,70.78 -38.238,70.93 Q-36.935,71.037 -34.856,71.502 Q-29.901,72.612 -26.575,74.207 Q-25.529,74.709 -24.809,75.326 Q-14.411,77.957 5.29,82.456 Q10.65,83.681 9.426,89.041 Q8.814,91.72 7.168,92.754 Q5.522,93.788 2.842,93.176 Z"/>
  <path fill="rgb(100%, 73.72549%, 0%)" d="M197.323,175.119 Q207.366,173.699 207.926,177.431 Q208.235,179.483 204.105,183.737 Q203.04,184.835 202.484,185.471 Q204.383,185.35 208.053,184.523 Q208.889,184.335 209.401,184.658 Q209.914,184.982 210.102,185.818 Q210.479,187.491 208.807,187.868 Q199.585,189.946 198.484,187.252 Q197.723,185.389 201.645,181.349 Q203.937,178.988 204.413,178.237 Q204.229,178.196 203.969,178.162 Q202.056,177.912 197.803,178.514 Q196.105,178.754 195.865,177.056 Q195.625,175.359 197.323,175.119 Z"/>
  <path fill="rgb(40.392157%, 5.098039%, 11.764706%)" opacity="0.516" d="M252.296,196.933 Q253.094,201.142 252.654,204.163 Q258.88,204.965 267.999,207.215 Q268.98,207.457 269.349,208.068 Q269.718,208.679 269.476,209.66 Q268.992,211.62 267.032,211.136 Q257.4,208.759 251.282,208.052 Q250.477,209.295 249.247,210.131 Q245.014,213.009 240.98,210.081 Q238.362,208.18 239.881,205.832 Q240.96,204.164 244.394,203.821 Q246.202,203.641 248.647,203.779 Q249.045,201.465 248.329,197.685 Q248.141,196.693 248.543,196.103 Q248.945,195.513 249.937,195.325 Q251.921,194.949 252.296,196.933 Z"/>
  <path fill="rgb(100%, 26.666667%, 100%)" d="M139.635,299.742 Q174.514,295.012 179.275,296.806 Q181.683,297.713 182.844,299.766 Q184.306,302.351 183.188,305.215 Q182.359,307.339 179.66,309.594 Q177.328,311.544 168.82,317.126 Q153.035,327.482 143.487,334.945 Q139.151,338.335 135.762,333.999 Q132.654,330.023 136.346,326.583 Q138.941,324.165 139.705,322.727 Q138.077,321.441 130.915,318.509 Q119.193,313.711 113.274,309.612 Q102.489,302.144 98.245,290.956 Q96.293,285.81 101.439,283.858 Q106.584,281.906 108.536,287.052 Q111.567,295.042 119.54,300.563 Q124.473,303.979 135.085,308.323 Q135.429,308.464 135.761,308.602 Q135.138,307.535 134.921,305.935 Q134.182,300.481 139.635,299.742 Z M140.467,310.716 Q147.135,313.976 149.109,316.793 Q149.196,316.918 149.279,317.043 Q155.373,312.783 162.782,307.923 Q162.798,307.912 162.814,307.901 Q154.608,308.819 141.115,310.649 Q140.782,310.694 140.467,310.716 Z"/>
  <path fill="rgb(1.960784%, 0%, 32.156863%)" d="M42.875,136.374 Q52.748,131.456 63.725,124.659 Q66.909,122.688 68.026,122.092 Q69.554,121.278 70.841,120.927 Q78.06,118.963 81.309,125.491 Q83.514,129.921 80.373,135.476 Q79.689,136.685 77.434,140.279 Q58.223,170.893 40.929,210.531 Q39.198,214.498 36.35,215.616 Q33.501,216.734 29.535,215.003 Q21.602,211.542 25.063,203.609 Q37.27,175.632 50.456,151.936 Q42.812,155.659 38.987,147.98 Q37.058,144.107 38.03,141.205 Q39.002,138.304 42.875,136.374 Z"/>
  <path fill="rgb(0%, 0%, 63.921569%)" d="M61.745,331.339 Q61.371,327.409 60.999,324.079 Q58.516,318.298 57.09,312.126 Q55.833,306.682 56.002,303.207 Q56.263,297.824 60.386,295.635 Q65.473,292.934 69.654,297.029 Q70.765,298.116 71.554,299.709 Q74.012,304.669 75.914,319.861 Q76.989,322.13 78.278,324.325 Q92.699,311.86 100.82,311.636 Q106.479,311.48 109.852,314.568 Q109.727,313.193 109.637,311.819 Q109.386,307.994 111.172,305.957 Q112.959,303.919 116.783,303.668 Q124.431,303.166 124.933,310.814 Q126.035,327.589 133.243,344.635 Q134.942,348.653 135.334,350.27 Q136.028,353.126 135.257,355.563 Q133.705,360.473 128.553,361.314 Q124.988,361.897 112.256,356.45 Q111.534,356.141 110.807,355.832 Q110.752,356.054 110.696,356.284 Q110.617,356.603 110.512,356.913 Q108.048,364.171 100.79,361.707 Q81.391,355.121 69.138,338.303 Q62.423,338.474 61.745,331.339 Z M99.243,334.461 Q99.655,330.273 99.341,327.527 Q96.978,328.642 92.892,331.946 Q96.04,333.177 99.243,334.461 Z M113.9,340.493 Q114.724,340.841 115.549,341.191 Q114.898,339.258 114.317,337.325 Q114.141,338.855 113.9,340.493 Z"/>
  <path fill="rgb(32.54902%, 0%, 24.705882%)" opacity="0.965" d="M286.901,310.702 Q305.65,306.346 313.452,296.269 Q319.996,287.817 317.45,277.621 Q315.042,267.98 306.312,262.062 Q297.171,255.866 286.673,257.954 Q285.908,258.106 285.28,257.644 Q273.105,248.664 265.025,255.558 Q257.615,261.881 255.576,277.881 Q253.575,293.569 258.01,306.944 Q262.682,321.033 271.942,322.963 Q272.007,322.977 272.07,322.995 Q306.527,332.91 313.353,343.665 Q316.601,348.784 313.469,353.314 Q310.915,357.007 304.638,359.214 Q291.347,363.887 278.79,359.448 Q263.647,354.094 267.353,339.168 Q267.778,337.455 269.492,337.88 Q270.349,338.093 270.671,338.628 Q270.993,339.163 270.78,340.019 Q267.846,351.834 279.967,356.119 Q291.35,360.143 303.467,355.883 Q308.663,354.057 310.565,351.306 Q312.366,348.701 310.371,345.557 Q304.269,335.942 271.156,326.406 Q259.955,324.028 254.659,308.055 Q249.972,293.919 252.073,277.434 Q254.285,260.081 262.734,252.872 Q272.723,244.349 286.75,254.348 Q298.264,252.34 308.294,259.14 Q318.141,265.815 320.875,276.765 Q323.837,288.624 316.244,298.43 Q307.673,309.5 287.7,314.142 Q285.981,314.541 285.581,312.822 Q285.182,311.102 286.901,310.702 Z"/>
  <path fill="rgb(100%, 32.941176%, 57.254902%)" opacity="0.191" d="M41.798,178.787 Q43.013,175.224 45.004,172.398 Q50.437,133.136 61.805,113.573 Q70.206,99.118 80.714,100.021 Q92.192,101.007 104.652,120.911 Q104.917,121.335 104.916,121.835 Q104.878,145.483 93.838,155.136 Q87.248,160.896 70.503,163.997 Q59.482,166.037 54.989,168.311 Q50.947,170.357 48.32,173.767 Q47.222,181.854 46.373,190.793 Q46.291,191.657 45.818,192.049 Q45.345,192.44 44.48,192.358 Q44.164,192.327 43.878,192.187 Q-1.517,169.871 -9.29,163.028 Q-11.487,161.094 -11.806,159.525 Q-12.259,157.3 -9.955,156.183 Q-8.27,155.365 -2.141,154.96 Q7.045,154.353 8.756,152.672 Q9.375,152.063 9.989,152.068 Q10.603,152.074 11.211,152.693 Q12.428,153.932 11.19,155.149 Q8.56,157.733 -1.912,158.425 Q-6.852,158.752 -8.199,159.211 Q-7.864,159.656 -6.995,160.421 Q0.243,166.793 43.16,187.962 Q43.51,184.473 43.899,181.113 Q43.456,181.187 42.881,180.991 Q41.238,180.431 41.798,178.787 Z M49.157,167.957 Q51.088,166.393 53.421,165.213 Q58.359,162.713 69.871,160.582 Q85.68,157.655 91.552,152.521 Q101.296,144.002 101.441,122.329 Q90.055,104.31 80.417,103.481 Q72.102,102.767 64.808,115.318 Q54.487,133.079 49.157,167.957 Z"/>
  <path fill="rgb(57.647059%, 43.529412%, 81.176471%)" opacity="0.015" d="M61.797,104.066 Q61.989,104.537 62.24,105.118 Q64.606,110.6 67.366,114.379 Q70.959,119.297 73.674,119.143 Q76.351,118.991 78.781,113.81 Q77.265,111.4 75.404,109.162 Q75.006,108.683 74.882,108.514 Q74.679,108.238 74.577,107.986 Q74.343,107.406 74.504,106.815 Q74.837,105.598 76.1,105.499 Q76.758,105.448 78.42,106.447 Q80.752,107.848 82.849,109.009 Q84.155,109.733 83.666,111.144 Q83.228,112.408 82.764,113.535 Q91.479,128.714 88.001,149.761 Q92.734,181.626 76.876,195.886 Q67.913,203.946 47.068,207.837 Q36.329,209.842 36.462,211.63 Q36.528,212.516 36.118,212.991 Q35.708,213.467 34.823,213.533 Q33.052,213.664 32.921,211.893 Q32.653,208.297 37.299,206.506 Q39.601,205.618 46.416,204.346 Q66.281,200.638 74.501,193.246 Q89.007,180.202 84.447,150.011 Q84.405,149.731 84.452,149.451 Q87.567,131.001 80.827,117.452 Q77.798,122.465 73.876,122.689 Q69.231,122.953 64.498,116.474 Q61.503,112.373 58.979,106.525 Q58.147,104.598 57.864,103.649 Q57.745,103.252 57.742,102.957 Q57.736,102.325 58.121,101.832 Q59.141,100.524 60.52,101.451 Q60.856,101.677 61.082,102.05 Q61.258,102.339 61.595,103.141 Q61.808,103.649 61.797,104.066 Z"/>
  <path fill="rgb(11.764706%, 1.568627%, 41.960784%)" opacity="0.993" d="M398.81,144.868 Q374.197,148.211 358.302,161.304 Q354.561,164.385 352.862,165.004 Q349.793,166.12 346.802,163.744 Q344.508,161.923 338.26,152.754 Q336.044,151.843 333.636,150.911 Q333.526,160.329 332.6,165.985 Q331.993,169.69 331.065,171.263 Q330.328,172.512 329.216,172.753 Q327.752,173.069 326.77,171.743 Q324.896,169.212 325.747,162.077 Q326.602,154.9 330.031,148.899 Q330.041,144.582 329.89,139.499 Q329.86,138.472 330.726,137.919 Q332.252,136.946 333.225,138.472 Q334.736,140.842 336.112,142.966 Q348.026,152.437 354.904,156.696 Q355.717,157.2 355.804,158.093 Q355.834,158.407 355.803,158.672 Q355.903,158.59 356,158.511 Q372.69,144.763 398.323,141.281 Q399.22,141.159 399.729,141.547 Q400.238,141.934 400.36,142.831 Q400.603,144.624 398.81,144.868 Z M344.558,155.482 Q347.715,159.847 349.053,160.91 Q350.458,162.026 351.625,161.602 Q352.36,161.335 354.026,160.077 Q353.79,160.08 353.558,160.022 Q353.421,159.987 353.29,159.931 Q353.232,159.906 353.176,159.877 Q353.149,159.863 353.122,159.849 Q353.107,159.84 353.091,159.831 L353.046,159.805 Q349.411,157.706 344.558,155.482 Z M333.638,145.798 Q333.644,146.429 333.647,147.039 Q334.185,147.244 334.717,147.449 Q334.186,146.641 333.638,145.798 Z M329.581,160.841 Q329.441,161.664 329.341,162.506 Q329.193,163.744 329.125,164.779 Q329.392,162.997 329.581,160.841 Z"/>
  <path fill="rgb(42.745098%, 13.333333%, 35.686275%)" opacity="0.536" d="M175.699,140.719 Q176.105,141.824 176.194,142.838 Q176.57,147.108 172.085,147.94 Q162.346,149.746 125.518,130.284 Q123.999,129.482 124.802,127.963 Q125.604,126.444 127.123,127.247 Q162.895,146.15 171.458,144.562 Q172.874,144.299 172.772,143.14 Q172.68,142.093 171.914,140.689 Q171.879,140.625 171.865,140.597 Q171.823,140.517 171.792,140.44 Q171.646,140.083 171.666,139.699 Q171.698,139.092 172.104,138.64 Q172.724,137.95 173.641,138.09 Q174.124,138.164 174.496,138.481 Q174.67,138.629 174.873,138.92 Q175.078,139.214 175.283,139.498 Q175.755,140.151 175.699,140.719 Z"/>
  <path fill="rgb(100%, 100%, 100%)" opacity="0.259" d="M211.2,92.481 Q210.912,92.189 210.633,91.876 Q207.742,88.627 207.237,84.237 Q206.761,80.109 211.303,67.373 Q224.553,30.217 236.823,-14.089 Q238.301,-19.423 243.116,-22.15 Q247.932,-24.876 253.265,-23.399 Q258.599,-21.922 261.325,-17.106 Q264.052,-12.291 262.575,-6.957 Q252.397,29.793 241.529,61.81 Q242.868,62.732 244.008,64.005 Q246.667,66.978 247.25,70.677 Q249.956,79.752 247.894,88.497 Q243.913,105.391 224.167,115.84 Q219.276,118.429 213.987,116.8 Q208.698,115.172 206.109,110.281 Q203.521,105.389 205.149,100.1 Q206.698,95.069 211.2,92.481 Z"/>
  <path fill="rgb(100%, 80.392157%, 78.431373%)" opacity="0.668" d="M126.793,48.274 Q119.63,51.723 116.907,54.153 Q120.975,58.945 131.151,62.992 Q138.123,65.765 141.092,72.655 Q144.062,79.546 141.289,86.518 Q140.438,88.659 139.334,90.4 Q148.855,90.445 159.472,90.032 Q166.969,89.741 172.477,94.836 Q177.985,99.931 178.276,107.429 Q178.544,114.309 174.174,119.629 Q158.742,138.419 149.893,147.305 Q138.001,159.245 128.828,161.402 Q118.225,163.895 109.986,157.275 Q104.643,152.982 102.101,145.541 Q100.397,140.554 98.944,128.192 Q98.704,126.143 98.45,124.216 Q60.948,119.008 51.343,102.718 Q47.107,95.536 48.38,87.556 Q49.533,80.325 54.961,74.777 Q61.237,68.361 73.093,65.019 Q76.789,63.977 80.963,63.213 Q77.157,51.44 83.095,39.611 Q90.048,25.758 111.074,15.633 Q117.834,12.377 124.917,14.855 Q131.999,17.334 135.254,24.094 Q138.509,30.854 136.031,37.936 Q133.553,45.018 126.793,48.274 Z"/>
  <path fill="rgb(0%, 0%, 47.843137%)" d="M54.708,76.217 Q55.242,76.074 56.553,75.748 Q70.692,72.229 73.18,67.736 Q77.549,59.847 51.218,42.658 Q49.613,41.611 49.335,40.285 Q49.056,38.959 50.104,37.355 Q51.404,35.362 53.767,35.644 Q71.35,37.743 78.187,35.982 Q82.742,34.808 90.619,28.219 Q100.761,19.734 110.07,13.898 Q111.693,12.88 113.014,13.183 Q114.334,13.486 115.352,15.109 Q117.388,18.356 114.141,20.391 Q105.277,25.949 95.536,34.097 Q86.331,41.797 80.1,43.403 Q75.263,44.65 66.702,44.379 Q86.146,60.144 79.885,71.449 Q75.781,78.861 58.404,83.185 Q57.163,83.494 56.698,83.619 Q52.997,84.613 52.002,80.913 Q51.008,77.212 54.708,76.217 Z"/>
  <path fill="rgb(9.803922%, 0%, 33.72549%)" opacity="0.698" d="M361.802,345.676 Q360.355,342.662 359.062,339.874 Q350.586,336.885 343.905,335.207 Q340.57,339.708 336.08,341.717 Q327.152,345.711 321.068,339.667 Q318.249,336.866 319.319,333.915 Q320.433,330.844 325.387,329.974 Q331.577,328.888 342.388,331.336 Q345.652,325.998 347.556,317.313 Q347.914,315.679 349.516,315.988 Q348.962,314.038 348.656,312.449 Q345.581,310.851 342.685,308.872 Q341.543,308.092 342.065,306.81 Q342.712,305.223 344.299,305.87 Q347.076,307.001 348.464,307.343 Q348.687,306.487 349.174,306.015 Q350.06,305.156 351.231,305.466 Q352.065,305.688 352.58,306.448 Q353.687,308.083 352.436,309.576 Q352.146,309.922 351.752,310.161 Q365.273,316.645 382.427,315.545 Q385.247,315.364 386.089,315.459 Q387.296,315.594 387.894,316.298 Q388.831,317.402 388.04,318.814 Q387.307,320.121 379.058,326.707 Q369.885,334.031 362.845,339.873 Q363.826,341.971 364.893,344.191 Q365.635,345.737 364.09,346.479 Q362.545,347.221 361.802,345.676 Z M361.356,336.654 Q368.173,331.011 376.919,324.028 Q381.114,320.679 383.15,318.935 Q382.911,318.949 382.646,318.966 Q366.055,320.03 352.628,314.322 Q352.723,314.66 352.826,315.017 Q355.129,323.022 361.356,336.654 Z M340.212,334.35 Q331.166,332.441 325.98,333.351 Q322.98,333.878 322.543,335.084 Q322.219,335.977 323.485,337.235 Q327.899,341.621 334.68,338.587 Q337.749,337.214 340.212,334.35 Z M357.099,335.571 Q352.794,325.968 350.59,319.426 Q348.781,327.005 345.858,332.182 Q351.016,333.523 357.099,335.571 Z"/>
  <path fill="rgb(34.901961%, 87.45098%, 91.372549%)" opacity="0.073" d="M343.916,61.55 Q338.891,64.699 339.474,67.852 Q340.098,71.233 346.295,74.606 Q361.626,82.952 392.562,83.437 Q393.539,83.452 394.019,83.948 Q394.5,84.444 394.485,85.421 Q394.454,87.375 392.501,87.344 Q360.603,86.844 344.426,78.038 Q336.594,73.775 335.631,68.562 Q334.566,62.798 341.841,58.239 Q342.669,57.72 343.343,57.875 Q344.016,58.029 344.535,58.857 Q345.572,60.513 343.916,61.55 Z"/>
  <path fill="rgb(14.509804%, 0%, 100%)" opacity="0.767" d="M86.128,317.66 Q80.428,316.09 74.261,314.963 Q67.899,313.801 64.223,308.481 Q60.546,303.161 61.709,296.8 Q62.871,290.438 68.191,286.762 Q73.511,283.086 79.872,284.248 Q101.566,288.211 119.158,296.849 Q134.848,304.554 141.67,312.9 Q151.272,324.647 143.349,335.42 Q136.305,344.996 122.662,341.453 Q111.615,338.584 92.166,325.478 Q87.744,322.498 86.128,317.66 Z"/>
  <path fill="rgb(0%, 18.431373%, 72.941176%)" opacity="0.669" d="M280.52,115.546 Q302.251,107.913 312.363,102.798 Q313.046,102.452 313.623,102.147 Q315.12,100.292 317.28,98.848 Q320.169,96.918 323.493,96.453 Q327.29,95.923 330.785,97.393 Q337.576,100.247 338.892,107.358 Q339,107.449 339.107,107.543 Q355.869,122.286 362.011,130.933 Q366.72,137.562 366.899,143.414 Q367.11,150.319 362.2,154.955 Q358.369,158.572 352.816,159.13 Q338.929,160.525 307.493,138.931 Q305.443,137.524 304.104,135.655 Q297.469,138.197 289.464,141.009 Q284.191,142.861 279.152,140.442 Q274.113,138.023 272.261,132.749 Q270.409,127.476 272.828,122.437 Q275.247,117.398 280.52,115.546 Z"/>
  <path fill="rgb(9.019608%, 0%, 45.098039%)" d="M159.802,119.618 Q168.125,103.038 165.134,96.872 Q163.593,93.696 155.331,91.465 Q149.285,89.832 147.028,88.12 Q142.56,84.731 143.909,78.429 Q144.336,76.432 145.535,73.844 Q145.338,73.754 145.135,73.64 Q114.677,56.543 96.156,55.66 Q92.556,55.489 91.734,53.486 Q90.914,51.489 93.345,48.834 Q104.92,36.194 114.035,6.513 Q114.216,5.925 114.612,5.454 Q116.56,3.137 118.878,5.085 Q126.242,11.274 130.771,25.667 Q134.347,37.036 139.536,39.247 Q148.94,43.255 175.487,35.269 Q177.118,34.778 178.384,35.917 Q180.635,37.942 178.61,40.193 Q151.941,69.838 149.83,79.697 Q149.287,82.233 150.687,83.295 Q152.004,84.294 156.91,85.619 Q167.837,88.57 170.582,94.229 Q174.877,103.084 165.214,122.335 Q163.855,125.041 161.15,123.682 Q158.444,122.324 159.802,119.618 Z M148.412,68.549 Q154.276,58.933 167.392,43.753 Q146.509,48.801 137.162,44.818 Q129.408,41.513 124.994,27.485 Q122.137,18.404 118.252,13.231 Q110.289,37.36 100.341,49.945 Q119.406,52.253 148.099,68.36 Q148.264,68.452 148.412,68.549 Z"/>
  <path fill="rgb(100%, 0%, 77.647059%)" opacity="0.088" d="M170.702,303.245 Q150.293,306.007 115.065,302.736 Q115.79,306.825 113.425,311.917 Q109.651,320.04 100.251,329.209 Q89.367,339.825 80.322,341.572 Q71.829,343.212 66.337,337.487 Q63.969,335.019 62.703,331.431 Q44.237,329.127 38.144,320.383 Q33.003,313.005 36.155,297.135 Q37.242,291.662 37.494,288.96 Q37.896,284.641 41.503,282.231 Q48.107,277.819 63.245,278.604 Q71.127,279.013 91.351,281.698 Q143.218,288.583 168.259,285.193 Q172.772,284.582 175.333,286.533 Q177.895,288.484 178.506,292.997 Q179.728,302.023 170.702,303.245 Z M92.323,300.195 Q90.65,299.981 88.954,299.755 Q62.73,296.274 54.763,296.741 Q54.444,298.561 54.022,300.685 Q52.38,308.951 53.089,309.968 Q55.217,313.021 70.876,313.87 Q79.156,314.319 79.484,322.605 Q79.485,322.629 79.486,322.65 Q82.729,320.853 87.532,316.168 Q91.384,312.411 93.833,309.181 Q93.26,308.204 92.795,306.985 Q91.282,303.018 92.323,300.195 Z"/>
  <path fill="rgb(0.784314%, 0%, 20%)" opacity="0.937" d="M77.756,2.196 Q78.98,7.831 81.922,17.034 Q84.534,25.206 84.882,28.332 Q85.505,33.916 82.136,36.698 Q78.274,39.886 64.941,39.967 Q64.967,40.085 64.978,40.21 Q65.069,41.263 64.178,41.833 Q63.796,42.077 63.343,42.105 Q63.017,42.126 62.686,42.024 Q62.53,41.976 62.313,41.882 Q62.055,41.77 61.857,41.635 Q61.008,41.292 59.719,40.925 Q56.442,39.991 52.41,39.511 Q49.842,39.333 47.064,39.086 Q46.195,39.009 45.799,38.536 Q45.403,38.062 45.48,37.193 Q45.628,35.53 47.296,35.604 Q50.211,35.733 52.839,36.047 Q75.505,37.646 79.913,34.006 Q82.895,31.544 78.597,18.096 Q75.604,8.735 74.345,2.937 Q74.16,2.084 74.494,1.565 Q74.828,1.046 75.68,0.861 Q77.386,0.49 77.756,2.196 Z"/>
  <path fill="rgb(97.647059%, 68.235294%, 72.54902%)" opacity="0.363" d="M354.346,88.886 Q353.267,99.724 358.182,101.956 Q360.344,102.937 364.555,101.704 Q372.423,99.4 382.275,90.67 Q387.774,85.797 395.108,86.24 Q402.441,86.682 407.314,92.181 Q412.187,97.68 411.745,105.014 Q411.302,112.348 405.803,117.221 Q371.987,147.187 343.513,134.256 Q329.829,128.042 323.256,113.512 Q317.508,100.809 319.045,85.372 Q319.773,78.061 325.457,73.406 Q331.141,68.751 338.452,69.478 Q345.763,70.206 350.418,75.89 Q355.073,81.575 354.346,88.886 Z"/>
  <path fill="rgb(0%, 10.980392%, 100%)" opacity="0.453" d="M91.079,66.312 Q74.089,71.094 64.605,72.925 Q57.536,74.29 53.327,74.258 Q43.163,74.18 39.852,66.47 Q35.747,56.908 49.412,45.774 Q54.169,41.898 67.983,32.089 Q83.739,20.902 91.231,15.028 Q94.595,12.392 98.856,12.716 Q103.4,13.063 106.368,16.521 Q109.337,19.979 108.991,24.524 Q108.17,35.288 108.787,43.685 Q111.031,45.669 111.942,48.734 Q112.613,50.995 112.356,53.159 Q113.787,55.444 114.836,57.672 Q117.404,63.129 117.153,67.566 Q116.824,73.382 112.404,76.701 Q106.553,81.094 99.891,77.651 Q94.402,74.815 91.079,66.312 Z"/>
  <path fill="rgb(100%, 75.294118%, 13.333333%)" opacity="0.899" d="M279.435,-18.736 Q265.903,14.5 255.116,36.17 Q264.78,35.793 268.843,35.687 Q269.925,35.658 270.307,35.66 Q270.427,35.66 270.505,35.664 Q270.602,35.668 270.688,35.68 Q270.852,35.703 271.007,35.755 Q271.307,35.855 271.552,36.056 Q272.479,36.817 272.082,37.948 Q271.709,39.012 270.431,39.11 Q269.675,39.168 266.945,39.275 Q259.296,39.576 253.345,39.686 Q248.228,49.723 243.755,57.044 Q240.947,61.641 239.401,63.133 Q237.825,64.655 236.421,63.925 Q235.087,63.233 235.278,61.079 Q235.679,56.548 242.552,39.704 Q239.658,39.638 237.595,39.479 Q236.74,39.413 236.346,38.953 Q235.951,38.492 236.017,37.638 Q236.149,35.928 237.858,36.06 Q242.412,36.412 251.223,36.292 Q262.246,14.391 276.26,-20.029 Q276.583,-20.823 277.142,-21.058 Q277.7,-21.294 278.494,-20.971 Q280.082,-20.324 279.435,-18.736 Z M249.421,39.828 Q247.837,39.892 246.151,39.961 Q241.48,51.333 239.727,57.018 Q240.244,56.215 240.83,55.256 Q244.857,48.665 249.421,39.828 Z"/>
  <path fill="rgb(43.921569%, 7.058824%, 26.666667%)" opacity="0.303" d="M265.053,108.574 Q257.448,107.678 253.37,108.368 Q252.92,108.596 252.459,108.787 Q251.813,109.055 251.313,109.12 Q250.815,109.185 250.396,109.049 Q249.689,108.82 249.36,108.166 Q248.955,107.362 249.378,106.56 Q249.886,105.596 252.018,105.137 Q252.123,105.114 252.229,105.093 Q257.865,101.93 261.773,90.744 Q261.511,90.746 261.205,90.68 Q259.982,90.416 258.873,90.185 Q255.131,90.654 250.693,89.783 Q248.687,89.39 247.687,88.912 Q246.15,88.178 246.389,86.784 Q246.637,85.33 248.437,85.206 Q250.813,85.043 258.979,86.708 Q259.233,86.668 259.482,86.62 Q263.047,85.935 263.861,83.714 Q263.968,83.292 264.073,82.862 Q264.277,82.029 264.795,81.715 Q265.314,81.401 266.146,81.604 Q267.681,81.98 267.431,83.541 Q267.318,84.244 267.103,84.875 Q263.603,98.48 258.076,104.646 Q261.305,104.68 265.454,105.169 Q267.157,105.369 266.956,107.072 Q266.756,108.774 265.053,108.574 Z"/>
  <path fill="rgb(72.54902%, 62.352941%, 83.137255%)" opacity="0.426" d="M94.738,281.913 Q90.553,258.878 101.802,236.418 Q104.227,231.575 109.07,234.001 Q110.103,234.518 110.835,235.412 Q129.041,257.638 133.714,274.727 Q138.366,291.742 129.291,299.978 Q122.983,305.703 113.613,304.429 Q112.101,307.462 108.662,307.516 Q104.231,307.586 100.416,299.88 Q90.202,294.344 81.347,282.968 Q78.02,278.693 82.294,275.366 Q84.431,273.703 86.332,273.94 Q88.232,274.177 89.895,276.314 Q92.278,279.375 94.738,281.913 Z M109.647,288.385 Q110.876,290.877 111.779,292.956 Q118.651,295.006 122.011,291.957 Q126.164,288.187 123.265,277.584 Q119.924,265.368 108.019,249.384 Q101.717,267.169 106.619,285.335 Q106.627,285.338 106.635,285.341 Q108.448,285.956 109.647,288.385 Z"/>
  <path fill="rgb(29.019608%, 20%, 67.058824%)" d="M221.603,302.399 Q215.794,340.6 197.568,340.508 Q190.046,340.47 182.092,333.45 Q178.515,330.293 171.906,322.699 Q168.771,319.096 166.784,317.004 Q165.97,320.85 165.415,326.864 Q164.512,336.65 154.726,335.747 Q149.833,335.296 147.612,332.623 Q145.392,329.951 145.843,325.058 Q148.768,293.357 165.013,294.095 Q171.374,294.384 178.124,300.575 Q181.019,303.23 186.733,309.796 Q194.122,318.287 196.612,320.258 Q196.757,319.999 196.921,319.684 Q199.986,313.811 202.171,299.445 Q203.648,289.729 213.364,291.206 Q223.08,292.683 221.603,302.399 Z"/>
  <path fill="rgb(0%, 0%, 57.254902%)" opacity="0.957" d="M68.702,321.015 Q67.368,326.668 67.13,329.675 Q67.18,329.893 67.222,330.112 Q88.27,346.325 98.096,360.117 Q100.968,364.147 103.921,369.877 Q105.445,367.781 107.257,365.738 Q119.542,351.888 140.39,346.686 Q163.676,340.875 192.972,347.466 Q196.381,348.233 197.703,350.321 Q199.024,352.41 198.257,355.819 Q196.723,362.639 189.903,361.105 Q163.843,355.242 143.775,360.249 Q127.127,364.403 117.715,375.014 Q112.973,380.36 111.094,385.996 Q113.979,393.336 116.938,402.198 Q118.97,408.285 120.091,411.563 Q122.352,418.177 115.738,420.438 Q112.445,421.564 109.562,419.615 Q96.204,410.586 95.887,394.26 Q95.815,390.564 96.435,386.996 Q91.335,374.718 86.711,368.229 Q75.04,351.848 44.013,330.548 Q40.836,328.367 40.984,324.517 Q41.118,321.025 42.931,319.346 Q44.745,317.666 48.237,317.801 Q51.873,317.94 54.883,318.721 Q54.986,318.269 55.095,317.805 Q55.898,314.404 58,313.104 Q60.102,311.805 63.503,312.607 Q70.306,314.212 68.702,321.015 Z"/>
  <path fill="rgb(0%, 0%, 54.901961%)" opacity="0.794" d="M280.694,388.613 Q308.772,371.71 316.76,365.974 Q314.666,366.486 311.416,367.366 Q298.388,370.893 292.005,371.725 Q280.285,373.253 276.853,368.781 Q270.293,363.725 258.147,361.914 Q248.623,360.494 241.843,361.727 Q243.869,365.251 246.365,368.526 Q250.557,374.027 254.691,376.685 Q258.04,377.928 261.953,379.224 Q263.58,379.763 263.041,381.391 Q262.622,382.656 261.292,382.562 Q257.18,382.268 253.153,379.764 Q237.792,373.996 233.518,368.962 Q230.599,365.523 232.543,362.528 Q233.746,360.676 236.794,359.525 Q234.651,355.135 233.152,350.404 Q231.597,345.497 231.59,342.34 Q231.58,337.682 234.84,337.501 Q239.778,337.228 251.036,353.985 Q251.514,354.697 251.398,355.292 Q251.281,355.886 250.569,356.364 Q249.146,357.32 248.19,355.897 Q238.297,341.171 235.198,340.927 Q235.017,341.367 235.019,342.333 Q235.025,344.964 236.42,349.368 Q237.936,354.153 240.147,358.57 Q247.824,356.909 258.652,358.523 Q271.867,360.493 279.154,366.227 Q279.354,366.384 279.499,366.593 Q282.942,371.522 310.52,364.056 Q317.592,362.142 319.534,361.889 Q322.023,361.564 322.842,362.805 Q323.885,364.383 321.728,366.416 Q317.334,370.558 282.462,391.551 Q280.994,392.435 280.109,390.966 Q279.225,389.498 280.694,388.613 Z M238.392,362.59 Q236.085,363.369 235.419,364.395 Q234.864,365.249 236.132,366.743 Q238.549,369.59 245.447,372.855 Q244.54,371.788 243.638,370.604 Q240.708,366.759 238.392,362.59 Z"/>
  <path fill="rgb(100%, 90.980392%, 100%)" opacity="0.037" d="M28.51,-4.581 Q39.439,-7.275 41.557,-2.895 Q43.177,0.455 38.753,6.323 Q35.819,10.215 32.367,13.096 Q31.68,13.669 31.215,13.959 Q30.795,14.221 30.417,14.332 Q29.813,14.508 29.224,14.361 Q27.891,14.03 27.607,12.686 Q27.328,11.363 29.609,8.823 Q30.327,8.024 31.085,7.983 Q31.324,7.971 31.567,8.033 Q33.544,6.098 35.323,3.738 Q38.169,-0.037 37.69,-1.026 Q37.088,-2.272 29.537,-0.411 Q28.495,-0.154 27.845,-0.547 Q27.195,-0.94 26.938,-1.982 Q26.682,-3.025 27.074,-3.674 Q27.467,-4.324 28.51,-4.581 Z"/>
  <path fill="rgb(98.039216%, 38.823529%, 14.509804%)" opacity="0.2" d="M191.789,148.125 Q194.528,168.295 197.563,176.231 Q198.885,179.689 200.134,180.66 Q200.709,181.107 201.409,180.632 Q205.974,177.531 216.148,144.667 Q210.835,130.785 217.979,92.521 Q195.908,85.917 178.75,83.617 Q178.475,83.58 178.392,83.568 Q178.307,83.556 178.254,83.547 Q178.175,83.533 178.104,83.515 Q177.94,83.473 177.789,83.401 Q177.381,83.206 177.122,82.837 Q176.174,81.486 177.487,80.487 Q178.006,80.093 179.143,80.171 Q185.895,80.636 195.403,80.766 Q196.26,80.778 196.682,81.213 Q197.105,81.647 197.093,82.504 Q197.085,83.055 196.903,83.427 Q207.914,85.881 220.447,89.684 Q221.922,90.131 221.633,91.645 Q214.132,130.978 219.547,143.933 Q219.786,144.506 219.603,145.099 Q208.936,179.664 203.335,183.468 Q200.572,185.345 198.029,183.366 Q196.025,181.807 194.36,177.455 Q191.184,169.15 188.391,148.586 Q188.16,146.887 189.859,146.657 Q191.558,146.426 191.789,148.125 Z"/>
  <path fill="rgb(5.882353%, 6.27451%, 100%)" opacity="0.978" d="M123.211,211.647 Q130.549,213.061 141.669,211.286 Q146.731,210.479 148.426,210.868 Q151.134,211.491 151.776,214.005 Q152.204,215.683 151.303,217.969 Q149.683,222.076 133.045,245.481 Q132.136,246.76 131.043,246.945 Q129.949,247.129 128.671,246.221 Q126.114,244.403 127.932,241.847 Q141.633,222.573 144.702,217.174 Q143.836,217.293 142.658,217.481 Q130.447,219.43 122.024,217.807 Q118.944,217.213 119.537,214.133 Q120.131,211.053 123.211,211.647 Z"/>
  <path fill="rgb(95.294118%, 92.941176%, 94.509804%)" opacity="0.109" d="M247.662,249.916 Q234.382,243.799 229.127,240.59 Q228.855,243.671 228.529,246.383 Q228.545,246.319 228.559,246.261 Q228.974,244.598 230.637,245.012 Q232.301,245.427 231.886,247.091 Q229.207,257.837 224.219,264.918 Q218.009,280.963 203.529,292.845 Q202.204,293.932 201.116,292.607 Q200.864,292.3 200.773,291.913 Q198.964,284.244 201.649,279.9 Q203.327,277.184 209.156,273.621 Q216.081,269.389 219.533,265.366 Q220.381,264.378 221.17,263.288 Q222.386,260.084 223.254,256.709 Q224.939,250.163 225.877,238.37 Q220.736,234.429 219.13,229.937 Q217.163,224.434 219.487,215.185 Q221.199,208.37 227.474,192.06 Q228.09,190.46 229.69,191.076 Q230.825,191.513 230.788,192.729 Q230.582,199.355 230.411,211.529 Q230.207,226.047 229.437,236.712 Q229.836,236.983 230.256,237.253 Q235.067,240.34 249.096,246.802 Q250.653,247.52 249.936,249.077 Q249.219,250.634 247.662,249.916 Z M226.178,234.156 Q226.801,224.375 226.983,211.481 Q227.048,206.845 227.118,203.006 Q220.261,222.915 222.358,228.782 Q223.344,231.539 226.178,234.156 Z M216.65,272.667 Q214.13,274.599 210.944,276.546 Q205.813,279.683 204.565,281.702 Q203.093,284.084 203.594,288.284 Q211.584,281.202 216.65,272.667 Z"/>
  <path fill="rgb(92.54902%, 61.568627%, 74.901961%)" opacity="0.303" d="M349.286,162.324 Q348.761,170.322 344.342,175.674 Q339.802,181.173 332.874,181.638 Q326.618,182.058 320.818,178.045 Q309.912,170.501 306.664,152.641 Q303.111,133.103 310.631,107.082 Q312.607,100.246 319.655,101.226 Q324.235,101.863 329.895,102.039 Q338.736,102.316 341.492,107.086 Q343.752,110.997 341.249,119.159 Q340.247,122.426 339.39,125.692 Q341.395,126.714 343.029,129.337 Q345.931,133.999 351.664,141.614 Q354.552,145.451 355.515,146.918 Q359.69,153.276 356.612,158.21 Q353.949,162.479 349.286,162.324 Z M322.038,142.792 Q322.228,146.392 322.83,149.701 Q324.859,160.862 330.165,164.532 Q331.245,165.279 331.774,165.244 L331.671,165.213 Q334.376,161.937 331.602,151.468 Q330.549,147.497 332.009,144.986 Q332.042,144.928 332.076,144.872 Q330.019,145.607 327.085,145.091 Q323.756,144.506 322.038,142.792 Z"/>
  <path fill="rgb(100%, 41.960784%, 3.137255%)" opacity="0.261" d="M261.536,100.601 Q258.559,96.345 257.996,93.706 Q257.275,90.327 259.843,88.876 Q262.082,87.611 269.043,88.872 Q271.171,89.258 272.209,89.357 Q272.439,88.586 273.498,88.202 Q274.42,87.867 275.049,88.16 Q275.678,88.454 276.013,89.377 Q276.702,91.273 275.402,92.479 Q274.55,93.27 272.99,93.316 Q271.746,93.352 268.343,92.736 Q262.778,91.727 261.775,92.294 Q261.716,92.327 261.836,92.886 Q262.233,94.747 264.753,98.352 Q265.878,99.961 264.269,101.085 Q263.465,101.648 262.782,101.527 Q262.098,101.406 261.536,100.601 Z"/>
  <path fill="rgb(16.862745%, 1.176471%, 56.470588%)" opacity="0.608" d="M230.698,109.239 Q233.593,109.574 237.057,109.798 Q238.357,109.883 238.864,110.664 Q239.34,106.697 239.538,102.395 Q239.591,101.26 240.184,100.719 Q240.778,100.177 241.913,100.23 Q244.184,100.334 244.079,102.605 Q243.607,112.832 241.611,121.317 Q249.721,133.083 254.828,150.723 Q255.46,152.907 253.277,153.539 Q252.84,153.665 252.389,153.614 Q239.476,152.151 227.658,151.965 Q223.241,151.895 222.305,151.182 Q221.055,150.23 221.355,148.694 Q221.49,148.003 222.015,147.348 Q222.346,146.935 223.413,145.945 Q232.712,137.308 236.695,122.249 Q235.222,120.251 233.653,118.454 Q231.207,115.654 228.797,113.57 Q218.985,112.255 215.063,109.468 Q213.618,108.441 213.223,107.206 Q212.524,105.019 214.52,103.8 Q216.415,102.642 220.143,103.613 Q225.441,104.993 230.698,109.239 Z M239.988,127.166 Q236.03,139.412 228.376,147.431 Q238.538,147.62 249.476,148.729 Q245.538,136.273 239.988,127.166 Z M236.763,114.334 Q236.389,114.31 236.02,114.284 Q236.549,114.86 237.076,115.464 Q237.53,115.983 237.976,116.518 Q238.21,115.253 238.413,113.95 Q237.817,114.403 236.763,114.334 Z"/>
  <path fill="rgb(100%, 100%, 83.921569%)" opacity="0.075" d="M56.589,349.282 Q58.233,349.005 59.679,348.658 Q64.768,345.401 67.224,345.335 Q69.407,345.276 69.516,347.339 Q69.572,348.401 68.649,349.238 Q67.928,349.891 66.415,350.601 Q64.109,351.682 61.066,352.45 Q56.854,355.304 50.238,360.784 Q49.465,361.425 48.758,361.358 Q48.051,361.292 47.411,360.519 Q46.131,358.973 47.677,357.692 Q51.716,354.346 55.009,351.906 Q54.97,351.759 54.942,351.595 Q54.609,349.616 56.589,349.282 Z"/>
  <path fill="rgb(0%, 22.352941%, 93.333333%)" opacity="0.194" d="M148.873,299.138 Q153.333,299.282 155.64,299.946 Q160.247,301.271 162.256,305.248 Q165.557,311.785 160.172,317.009 Q157.973,319.142 149.28,322.535 Q131.813,329.353 124.7,334.825 Q115.967,341.544 119.04,348.343 Q123.002,357.106 114.239,361.068 Q109.858,363.049 106.676,361.849 Q103.495,360.648 101.514,356.267 Q92.165,335.588 112.971,319.581 Q121.54,312.988 139.243,305.826 Q140.675,298.873 148.873,299.138 Z"/>
  <path fill="rgb(50.980392%, 19.215686%, 21.960784%)" opacity="0.359" d="M11.626,346.098 Q11.757,346.751 11.989,347.824 Q12.734,351.272 11.692,352.233 Q10.661,353.183 7.266,352.206 Q-15.119,345.76 -57.662,351.888 Q-59.359,352.133 -59.603,350.436 Q-59.737,349.507 -59.026,348.893 Q-28.534,322.586 -11.063,304.472 Q-9.559,302.912 -9.073,302.764 Q-7.803,302.375 -7.106,303.503 Q-6.707,304.147 -6.915,304.881 Q-6.979,305.107 -7.11,305.33 Q-7.183,305.455 -7.325,305.656 Q-7.466,305.857 -7.961,306.529 Q-10.273,309.671 -12.17,312.473 Q-13.131,313.892 -14.551,312.931 Q-14.562,312.924 -14.575,312.915 Q-29.667,327.908 -52.431,347.716 Q-13.328,342.708 8.215,348.911 Q8.503,348.994 8.747,349.063 Q8.698,348.826 8.638,348.549 Q8.4,347.449 8.264,346.77 Q8.096,345.929 8.433,345.425 Q8.769,344.921 9.609,344.753 Q11.29,344.417 11.626,346.098 Z"/>
  <path fill="rgb(84.313725%, 69.803922%, 85.098039%)" opacity="0.293" d="M55.408,270.675 Q57.793,261.972 62.301,256.344 Q59.793,251.679 57.07,246.783 Q56.221,245.256 57.748,244.406 Q58.512,243.982 59.106,244.151 Q59.7,244.321 60.125,245.084 Q62.547,249.44 64.801,253.614 Q66.715,251.79 68.933,250.405 Q77.718,244.921 85.771,248.708 Q94.114,252.63 93.713,262.822 Q93.288,273.621 81.983,286.158 Q82.813,289.178 83.601,291.943 Q88.811,304.143 91.653,313.809 Q92.141,315.471 92.33,316.448 Q92.8,318.884 91.11,319.353 Q89.292,319.858 87.391,315.047 Q84.401,307.48 80.297,293.1 Q73.972,278.323 64.117,259.744 Q60.716,264.528 58.779,271.598 Q58.548,272.441 58.012,272.747 Q57.475,273.053 56.632,272.822 Q54.947,272.36 55.408,270.675 Z M66.526,256.831 Q74.186,271.199 79.79,283.367 Q89.852,272.038 90.22,262.684 Q90.53,254.808 84.284,251.87 Q77.954,248.894 70.784,253.37 Q68.472,254.814 66.526,256.831 Z"/>
  <path fill="rgb(30.588235%, 0%, 9.019608%)" opacity="0.469" d="M362.129,169.917 Q332.609,170.255 313.597,187.537 Q310.565,190.293 309.357,190.869 Q306.496,192.232 304.771,189.425 Q303.872,187.963 302.37,181.037 Q296.75,181.016 290.974,181.127 Q284.381,181.253 283.339,180.694 Q282.173,180.069 282.203,178.805 Q282.221,178.072 282.76,177.326 Q283.144,176.795 284.571,175.407 Q293.822,166.415 297.536,154.268 Q297.84,153.275 298.861,153.084 Q299.704,152.927 300.204,153.27 Q300.704,153.612 300.861,154.455 Q301.88,159.91 303.438,168.573 Q304.38,173.81 305.144,177.626 Q310.769,177.679 316.238,177.865 Q317.951,177.923 317.893,179.636 Q317.892,179.666 317.891,179.695 Q336.149,166.786 362.09,166.489 Q363.804,166.469 363.824,168.184 Q363.833,169.041 363.41,169.474 Q362.986,169.908 362.129,169.917 Z M301.656,177.606 Q300.92,173.942 300.064,169.18 Q299.272,164.775 298.618,161.197 Q294.55,170.446 287.082,177.748 Q288.515,177.745 290.908,177.699 Q296.35,177.595 301.656,177.606 Z M305.857,181.062 Q307.057,186.598 307.691,187.629 Q307.803,187.811 307.882,187.774 Q308.633,187.416 311.29,185 Q313.452,183.035 315.741,181.279 Q310.861,181.118 305.857,181.062 Z"/>
  <path fill="rgb(37.254902%, 0%, 9.803922%)" opacity="0.456" d="M35.677,285.477 Q34.83,288.684 33.372,293.178 Q33.308,293.377 33.247,293.57 Q34.297,293.233 35.629,293.228 Q40.157,293.213 46.189,296.823 Q47.841,294.754 49.651,293.463 Q57.14,288.12 65.038,295.725 Q71.344,301.796 74.094,311.68 Q77.085,322.434 72.137,325.686 Q70.768,326.586 69.807,325.26 Q59.137,310.528 48.894,302.803 Q47.969,302.105 47.084,301.487 Q44.924,305.031 43.056,310.391 Q43.708,311.286 42.854,312.338 Q42.556,312.706 42.233,312.886 Q40.907,317.128 39.739,322.354 Q39.553,323.191 39.041,323.516 Q38.529,323.84 37.693,323.654 Q36.02,323.28 36.393,321.607 Q37.629,316.077 39.07,311.557 Q37.047,309.984 35.461,308.451 Q30.198,303.892 29.249,301.972 Q27.84,299.12 30.111,292.12 Q31.539,287.716 32.362,284.601 Q32.8,282.944 34.457,283.382 Q35.286,283.601 35.591,284.124 Q35.896,284.648 35.677,285.477 Z M49.066,298.691 Q49.996,299.34 50.958,300.065 Q61.003,307.641 71.331,321.54 Q72.552,318.931 70.791,312.599 Q68.292,303.617 62.66,298.194 Q56.813,292.565 51.643,296.254 Q50.311,297.204 49.066,298.691 Z M40.281,308.035 Q42.109,303.112 44.232,299.639 Q39.185,296.645 35.64,296.657 Q34.051,296.662 33.506,297.348 Q32.987,298.001 33.363,299.418 Q34.163,302.437 37.767,305.926 Q38.907,306.903 40.281,308.035 Z"/>
  <path fill="rgb(98.823529%, 96.862745%, 100%)" opacity="0.105" d="M42.718,379.1 Q32.234,369.787 29.781,357.424 Q28.384,350.382 29.714,338.376 Q29.843,337.212 29.924,336.164 Q15.171,330.865 -1.586,323.728 Q-2.509,323.335 -2.703,322.351 Q-3.069,320.491 -1.21,320.125 Q43.651,311.289 62.236,314.182 Q67.23,314.959 66.88,317.695 Q66.607,319.835 61.762,321.394 Q53.58,324.027 32.766,326.699 Q33.804,329.252 33.802,333.522 Q56.497,341.518 74.225,344.994 Q75.245,345.193 76.018,345.327 Q76.493,345.395 76.827,345.454 Q76.882,345.463 76.924,345.472 Q76.992,345.486 77.056,345.504 Q77.216,345.549 77.365,345.62 Q77.889,345.87 78.183,346.371 Q78.769,347.37 78.147,348.348 Q77.818,348.864 77.25,349.09 Q76.783,349.276 76.231,349.201 Q76.058,349.177 75.732,349.123 Q75.578,349.097 75.416,349.069 Q74.187,348.897 71.876,348.656 Q59.189,347.331 40.714,347.094 Q38.819,347.07 38.844,345.175 Q38.856,344.228 39.336,343.76 Q39.815,343.292 40.763,343.305 Q47.052,343.385 52.683,343.592 Q43.625,340.969 33.613,337.471 Q33.555,338.118 33.48,338.794 Q32.215,350.218 33.498,356.686 Q35.703,367.799 45.235,376.267 Q46.652,377.526 45.393,378.942 Q44.764,379.65 44.095,379.69 Q43.426,379.73 42.718,379.1 Z M30.054,332.182 Q29.938,327.756 28.363,326.884 Q26.706,325.966 27.624,324.309 Q28.092,323.464 29.05,323.346 Q52.136,320.51 60.601,317.786 Q60.612,317.782 60.624,317.779 Q43.809,315.557 5.662,322.666 Q18.482,327.991 30.054,332.182 Z"/>
  <path fill="rgb(100%, 77.647059%, 54.901961%)" opacity="0.15" d="M185.094,252.861 Q186.22,263.881 197.522,272.93 Q206.292,279.951 217.642,283.321 Q224.93,281.862 231.719,279.047 Q240.405,275.447 262.51,262.704 Q267.804,259.653 270.674,258.01 Q274.318,255.925 278.451,256.663 Q283.166,257.505 285.905,261.434 Q288.644,265.364 287.802,270.08 Q283.555,293.865 262.052,303.836 Q244.391,312.025 221.289,307.906 Q218.92,307.483 216.617,306.955 Q211.787,307.645 206.809,307.889 Q189.956,308.713 159.834,304.864 Q140.252,302.361 82.232,293.16 Q63.674,290.217 53.374,288.596 Q48.642,287.851 45.823,283.978 Q43.003,280.106 43.748,275.374 Q44.493,270.642 48.366,267.823 Q52.238,265.003 56.97,265.748 Q67.274,267.37 85.855,270.317 Q143.529,279.463 162.766,281.921 Q169.182,282.741 174.905,283.336 Q163.684,270.868 162.085,255.21 Q161.599,250.445 164.624,246.731 Q167.65,243.017 172.415,242.531 Q177.181,242.044 180.894,245.07 Q184.608,248.095 185.094,252.861 Z"/>
  <path fill="rgb(100%, 76.078431%, 3.529412%)" opacity="0.943" d="M-9.658,250.344 Q-6.677,252.406 -2.387,254.502 Q3.792,257.52 6.847,257.477 Q7.871,257.463 8.06,257.122 Q8.451,256.418 7.742,254.29 Q7.174,252.587 8.878,252.019 Q9.729,251.735 10.297,252.019 Q10.865,252.303 11.149,253.155 Q12.357,256.781 11.2,258.866 Q10.001,261.025 6.898,261.068 Q2.986,261.123 -3.963,257.729 Q-9.615,254.968 -13.211,252.198 Q-15.67,250.303 -15.202,248.793 Q-14.671,247.081 -12.575,247.502 Q-11.877,247.643 -10.702,248.108 Q-9.867,248.438 -9.615,249.021 Q-9.378,249.571 -9.658,250.344 Z"/>
  <path fill="rgb(86.27451%, 100%, 87.058824%)" opacity="0.061" d="M138.287,365.716 Q138.442,369.381 138.116,374.933 Q137.878,378.991 138.119,379.899 Q138.182,380.138 138.735,380.062 Q141.526,379.676 160.309,369.795 L160.578,369.654 Q161.376,369.234 161.985,369.423 Q162.595,369.612 163.014,370.41 Q163.854,372.007 162.258,372.846 L161.989,372.988 Q142.646,383.163 139.229,383.636 Q135.514,384.15 134.632,380.824 Q134.242,379.356 134.515,374.721 Q134.83,369.352 134.682,365.87 Q134.606,364.067 136.408,363.991 Q138.21,363.914 138.287,365.716 Z"/>
  <path fill="rgb(0%, 0%, 48.627451%)" opacity="0.857" d="M330.892,163.047 Q305.027,153.992 301.896,144.787 Q299.8,138.625 308.981,126.992 Q314.794,119.626 317.206,113.73 Q317.759,110.676 318.564,107.184 Q294.347,124.192 267.394,131.77 Q280.442,134.171 292.335,137.019 Q293.207,137.228 293.538,137.768 Q293.869,138.308 293.661,139.179 Q293.243,140.922 291.501,140.505 Q279.626,137.661 266.585,135.266 Q260.158,134.085 259.467,133.171 Q258.823,132.321 259.191,131.331 Q259.406,130.751 259.95,130.36 Q260.352,130.071 261.099,129.811 Q261.815,129.561 264.282,128.906 Q293.674,121.091 319.802,101.88 Q320.346,101.48 321.019,101.539 Q321.912,101.617 322.319,102.102 Q322.727,102.588 322.649,103.48 Q322.559,104.506 322.471,105.494 Q322.496,105.674 322.499,105.879 Q322.527,107.988 322.027,110.295 Q321.192,119.011 320.5,123.761 Q320.11,126.435 319.82,127.366 Q319.699,127.757 319.537,128.022 Q319.282,128.44 318.879,128.679 Q317.836,129.299 316.861,128.579 Q316.116,128.029 316.043,126.763 Q315.953,125.213 316.03,123.372 Q314.178,126.192 311.795,129.212 Q303.821,139.316 305.289,143.633 Q307.859,151.185 332.077,159.664 Q332.922,159.96 333.197,160.531 Q333.472,161.102 333.176,161.948 Q332.584,163.639 330.892,163.047 Z"/>
  <path fill="rgb(84.313725%, 81.960784%, 100%)" opacity="0.05" d="M351.583,23.876 Q345.486,36.807 339.247,48.256 Q339.89,50.741 339.841,53.978 Q339.713,62.388 334.449,71.061 Q333.588,72.478 332.449,72.757 Q331.31,73.035 329.892,72.175 Q327.057,70.454 328.778,67.619 Q330.746,64.378 331.84,61.244 Q330.322,63.783 328.797,66.236 Q327.045,69.052 324.229,67.301 Q322.706,66.354 322.665,64.561 Q322.369,51.687 325.559,45.669 Q327.314,42.357 330.004,41.416 Q332.699,40.473 335.083,42.003 Q341.564,29.863 347.901,16.068 Q349.824,11.88 350.446,10.652 Q351.009,9.541 351.403,8.977 Q351.86,8.321 352.406,7.924 Q354.934,6.087 356.985,8.395 Q358.407,9.994 356.181,21.438 Q355.548,24.693 352.293,24.06 Q351.911,23.986 351.583,23.876 Z"/>
  <path fill="rgb(93.333333%, 90.980392%, 100%)" opacity="0.223" d="M112.359,293.284 Q116.702,293.089 122.457,292.895 Q117.551,279.116 111.624,265.914 Q111.523,265.689 111.431,265.461 Q110.154,262.282 106.801,255.288 Q101.296,243.808 99.362,237.779 Q95.52,225.804 97.732,216.289 Q103.211,192.712 143.851,185.66 Q152.191,184.213 156.519,191.488 Q182.435,235.051 191.42,253.133 Q198.601,267.586 201.209,278.025 Q206.478,277.546 212.007,277.247 Q217.092,276.972 220.883,280.373 Q224.673,283.774 224.948,288.859 Q225.224,293.944 221.823,297.734 Q218.421,301.525 213.336,301.8 Q205.489,302.225 198.291,303.03 Q192.446,311.122 178.929,314.089 Q170.717,315.892 148.167,316.726 Q147.348,317.035 146.722,317.217 Q141.449,318.747 136.966,317.063 Q122.21,317.456 113.461,317.849 Q108.374,318.077 104.615,314.641 Q100.856,311.205 100.628,306.118 Q100.4,301.03 103.836,297.272 Q107.271,293.513 112.359,293.284 Z M176.654,281.503 Q170.597,263.774 139.829,211.561 Q123.145,215.561 121.682,221.855 Q120.493,226.973 128.972,244.656 Q132.562,252.143 134.152,256.059 Q141.601,272.678 147.531,290.139 Q160.5,284.728 176.654,281.503 Z"/>
  <path fill="rgb(61.568627%, 67.843137%, 90.588235%)" opacity="0.857" d="M316.273,288.493 Q327.251,319.976 310.666,329.829 Q301.498,335.276 276.253,333.93 Q265.212,333.341 261.642,333.897 Q258.749,334.348 258.298,331.455 Q257.848,328.561 260.741,328.111 Q264.914,327.461 276.565,328.082 Q300.035,329.333 307.675,324.795 Q320.146,317.385 310.743,290.421 Q309.779,287.656 312.544,286.692 Q315.309,285.728 316.273,288.493 Z"/>
  <path fill="rgb(100%, 100%, 100%)" opacity="0.694" d="M271.546,106.794 Q257.863,98.8 250.848,89.8 Q246.483,84.199 241.257,72.284 Q236.571,61.599 232.185,54.385 Q230.653,56.415 228.973,57.85 Q227.867,58.795 227.016,59.18 Q226.221,59.539 225.516,59.429 Q224.472,59.268 223.988,58.345 Q223.618,57.638 223.818,56.836 Q224.313,54.842 229.513,51.367 Q230.044,50.613 230.56,49.765 Q230.79,49.387 231.16,49.144 Q232.365,48.351 233.269,49.023 Q236.331,47.216 240.381,45.099 Q241.253,44.643 241.917,44.851 Q242.582,45.059 243.038,45.931 Q243.95,47.676 242.205,48.589 Q238.327,50.616 235.48,52.224 Q240.038,59.699 244.863,70.702 Q249.891,82.167 253.954,87.379 Q260.503,95.782 273.532,103.394 Q275.232,104.387 274.239,106.087 Q273.743,106.937 273.069,107.114 Q272.396,107.29 271.546,106.794 Z"/>
  <path fill="rgb(81.176471%, 41.568627%, 26.27451%)" d="M237.971,373.851 Q231.474,376.231 225.793,378.707 Q223.904,379.53 223.155,379.255 Q222.059,378.852 221.943,377.69 Q221.881,377.076 222.199,376.544 Q222.345,376.298 222.57,376.092 Q222.69,375.981 222.885,375.838 Q223.053,375.715 223.61,375.331 Q239.014,364.709 252.449,347.386 Q264.694,331.597 273.532,312.5 Q272.582,312.174 271.617,311.835 Q249.055,303.91 237.598,295.032 Q230.873,289.822 229.549,285.019 Q227.92,279.11 234.025,274.743 Q246.175,266.052 290.806,264.018 Q291.051,264.007 291.29,264.06 Q292.197,264.259 292.551,264.813 Q292.905,265.366 292.706,266.274 Q287.484,290.028 278.611,310.275 Q295.401,315.711 306.143,316.241 Q307.071,316.287 307.512,316.774 Q307.953,317.261 307.907,318.189 Q307.815,320.046 305.959,319.954 Q294.611,319.393 277.079,313.686 Q268.013,333.384 255.387,349.664 Q245.961,361.817 235.56,370.778 Q236.123,370.569 236.693,370.36 Q238.438,369.721 239.077,371.466 Q239.717,373.211 237.971,373.851 Z M275.068,309.097 Q283.446,290.066 288.543,267.849 Q247.126,269.943 236.187,277.767 Q232.193,280.624 233.133,284.031 Q234.128,287.641 239.874,292.093 Q250.856,300.602 272.849,308.328 Q273.97,308.722 275.068,309.097 Z"/>
  <path fill="rgb(92.156863%, 95.686275%, 99.607843%)" opacity="0.026" d="M396.429,283.876 Q397.53,286.026 398.807,288.188 Q399.784,289.841 399.465,290.835 Q399.009,292.256 397.52,292.365 Q396.98,292.404 396.471,292.188 Q396.216,292.08 395.948,291.89 Q395.797,291.783 395.407,291.473 Q384.105,282.474 364.139,281.817 Q363.349,281.791 362.757,281.268 Q359.507,278.392 356.818,274.832 Q349.996,283.533 335.182,306.426 Q333.99,308.268 332.148,307.076 Q330.307,305.884 331.498,304.043 Q346.75,280.474 353.673,271.736 Q353.952,271.384 354.23,271.038 Q353.384,269.662 352.607,268.201 Q348.492,260.465 348.667,254.766 Q348.903,247.064 356.147,247.008 Q362.782,246.956 374.694,255.049 Q375.601,255.665 375.746,256.427 Q375.892,257.189 375.275,258.096 Q374.947,258.58 374.421,258.836 Q367.521,262.194 359.688,271.33 Q362.126,274.731 365.089,277.462 Q381.287,278.132 392.267,284.147 Q392.509,283.418 393.477,282.922 Q395.43,281.923 396.429,283.876 Z M357.221,267.483 Q363.434,260.44 369.245,256.726 Q360.691,251.36 356.18,251.395 Q353.159,251.418 353.052,254.901 Q352.913,259.434 356.48,266.141 Q356.843,266.823 357.221,267.483 Z"/>
  <path fill="rgb(100%, 76.078431%, 99.215686%)" opacity="0.078" d="M250.507,192.802 Q233.657,211.284 210.672,230.089 Q195.271,242.689 186.047,251.706 Q184.74,252.983 183.462,251.676 Q182.824,251.023 182.831,250.376 Q182.838,249.73 183.492,249.091 Q192.831,239.962 208.357,227.26 Q231.136,208.623 247.806,190.339 Q249.037,188.988 250.388,190.22 Q251.063,190.835 251.093,191.481 Q251.123,192.126 250.507,192.802 Z"/>
  <path fill="rgb(0%, 0%, 55.686275%)" d="M345.982,100.659 Q347.018,100.533 348.986,100.294 Q359.238,99.046 364.452,98.557 Q364.048,96.702 364.421,95.08 Q365.531,90.259 374.671,87.069 Q377.028,86.247 377.425,85.957 Q379.14,84.707 380.391,86.421 Q381.409,87.818 380.247,89.098 Q375.59,94.23 371.915,98.758 Q374.162,99.775 374.129,102.79 Q374.097,105.586 376.414,108.381 Q378.659,110.464 381.539,112.807 Q383.046,114.033 381.957,115.643 Q381.362,116.521 380.625,116.663 Q379.889,116.805 379.01,116.211 Q375.355,113.738 373.164,111.106 Q369.544,107.639 367.392,104.612 Q362.136,111.807 359.881,117.16 Q357.518,122.767 358.489,128.388 Q359.59,134.756 354.479,139.566 Q348.036,145.628 322.761,160.168 Q320.922,161.226 319.864,159.386 Q319.334,158.467 319.53,157.742 Q319.725,157.018 320.645,156.489 Q345.489,142.196 351.57,136.474 Q355.019,133.23 354.307,129.111 Q353.124,122.265 355.969,115.512 Q358.272,110.048 363.386,102.92 Q358.412,103.422 349.499,104.507 Q347.516,104.748 346.494,104.872 Q344.388,105.128 344.132,103.022 Q344.004,101.968 344.466,101.377 Q344.929,100.787 345.982,100.659 Z M368.521,96.212 Q369.594,94.886 370.747,93.512 Q368.851,94.757 368.557,96.032 Q368.537,96.121 368.521,96.212 Z"/>
  <path fill="rgb(100%, 81.176471%, 100%)" opacity="0.116" d="M123.6,287.41 Q143.82,287.948 164.943,286.176 Q174.049,247.989 200.791,241.766 Q229.064,235.188 285.412,266.455 Q289.44,268.691 290.707,273.119 Q291.975,277.548 289.74,281.576 Q288.799,283.271 287.34,284.548 Q243.093,323.273 217.943,338.017 Q215.625,340.528 212.096,341.256 Q212.081,341.259 212.067,341.262 Q209.41,342.615 207.447,343.343 Q205.36,344.117 203.609,344.298 Q198.463,344.829 194.731,341.389 Q189.887,336.923 191.453,330.519 Q192.076,327.972 193.776,325.944 Q196.768,322.375 204.069,320.324 Q224.131,309.254 260.431,278.394 Q222.731,259.498 205.832,263.43 Q194.851,265.985 188.928,283.12 Q199.515,284.609 198.923,294.966 Q198.403,304.077 186.937,306.065 Q183.842,306.601 178.761,307.169 Q150.165,310.367 123.009,309.645 Q118.404,309.522 115.235,306.179 Q112.065,302.836 112.188,298.232 Q112.31,293.627 115.653,290.457 Q118.996,287.288 123.6,287.41 Z"/>
</svg>

