<svg xmlns="http://www.w3.org/2000/svg" width="384" height="384" viewBox="0 0 384 384">
  <defs/>
  <path fill="rgb(7.058824%, 18.431373%, 52.941176%)" opacity="0.606" d="M219.161,-11.5 Q209.461,4.725 198.937,11.588 Q187.889,18.794 178.352,14.427 Q172.779,11.876 168.871,6.244 Q167.641,11.377 165.898,16.479 Q160.348,32.728 153.19,37.73 Q148.256,41.179 143.611,38.589 Q139.446,36.268 136.612,28.909 Q136.04,27.425 136.497,26.396 Q136.953,25.368 138.438,24.796 Q141.408,23.652 142.552,26.622 Q144.558,31.83 146.71,33.03 Q147.875,33.679 149.544,32.513 Q154.997,28.702 159.875,14.422 Q162.851,5.712 164.24,-3.081 Q159.207,-17.31 159.748,-41.855 Q159.818,-45.037 163,-44.967 Q164.609,-44.931 165.534,-43.614 Q172.335,-33.932 171.772,-15.354 Q171.606,-9.866 170.868,-4.412 Q174.726,5.767 181.001,8.64 Q187.349,11.547 195.46,6.257 Q204.753,0.197 213.698,-14.766 Q215.331,-17.497 218.063,-15.864 Q220.794,-14.231 219.161,-11.5 Z"/>
  <path fill="rgb(3.921569%, 15.294118%, 70.588235%)" opacity="0.752" d="M252.35,89.921 Q254.75,87.732 257.491,84.224 Q261.655,78.895 264.416,73.02 Q266.219,66.964 267.96,63.176 Q271.653,48.849 268.122,31.716 Q267.511,28.752 270.475,28.141 Q273.318,27.555 274.022,30.371 Q278.161,46.919 279.115,54.527 Q280.366,54.959 281.776,55.959 Q284.664,58.005 288.918,62.806 Q293.122,67.206 298.323,74.533 Q300.032,76.94 297.669,78.708 Q295.246,80.522 293.432,78.098 Q288.309,71.251 284.53,66.958 Q282.257,64.583 280.393,63.274 Q277.128,60.979 275.435,62.362 Q274.715,62.95 273.927,64.382 Q272.445,70.25 269.86,75.705 Q268.17,81.768 266.262,90.505 Q258.832,124.526 250.929,142.538 Q236.965,174.367 212.372,189.873 Q209.812,191.487 208.198,188.927 Q206.583,186.366 209.144,184.752 Q232.167,170.237 245.386,140.106 Q252.88,123.025 260.03,90.661 Q255.207,96.197 250.93,98.247 Q249.457,98.953 248.288,98.926 Q246.85,98.893 245.885,97.921 Q244.802,96.829 244.926,95.24 Q245.085,93.199 248.155,90.054 Q250.227,87.93 252.35,89.921 Z"/>
  <path fill="rgb(1.568627%, 47.45098%, 100%)" opacity="0.413" d="M27.098,266.601 Q19.562,272.664 7.62,281.159 Q5.606,282.592 4.769,283.135 Q3.912,283.691 3.337,283.682 Q1.878,283.658 1.662,282.217 Q1.571,281.61 1.887,281.076 Q2.001,280.882 2.178,280.7 Q2.305,280.569 2.54,280.367 Q4.212,278.928 13.685,271.765 Q14.522,271.132 15.235,271.4 Q20.78,267.284 24.949,263.93 Q25.617,263.393 26.219,263.458 Q26.822,263.523 27.359,264.191 Q28.434,265.527 27.098,266.601 Z"/>
  <path fill="rgb(17.254902%, 23.921569%, 28.627451%)" opacity="0.338" d="M290.977,37.666 Q290.71,37.892 290.492,38.092 Q291.615,38.42 293.879,38.829 Q304.582,40.765 332.619,39.547 Q336.716,39.369 336.894,43.467 Q337.045,46.945 333.637,47.659 Q296.66,55.399 275.204,44.118 Q265.894,39.224 261.457,31.532 Q257.128,24.029 258.531,16.078 Q259.938,8.096 266.579,2.68 Q273.383,-2.868 283.77,-3.943 Q304.817,-6.12 331.972,10.082 Q332.671,9.824 333.407,9.566 Q346.623,4.945 357.5,6.392 Q372.806,8.428 377.76,22.03 Q379.163,25.884 375.31,27.287 Q373.383,27.989 372.069,27.376 Q370.754,26.764 370.053,24.837 Q366.799,15.903 356.418,14.522 Q349.296,13.575 340.628,15.908 Q341.127,16.548 341.269,17.26 Q341.554,18.681 340.417,20.388 Q339.623,21.579 338.26,22.017 Q330.314,24.574 326.182,25.023 Q323.658,25.297 322.086,24.769 Q320.294,24.166 319.397,22.64 Q318.333,20.828 319.024,18.776 Q319.773,16.553 322.986,14.389 Q301.186,2.501 284.614,4.216 Q268.661,5.866 266.608,17.502 Q264.537,29.244 279.02,36.858 Q280.188,37.472 281.415,38.021 Q281.696,34.774 285.679,31.404 Q287.245,30.08 288.689,30.2 Q290.134,30.321 291.459,31.886 Q294.108,35.017 290.977,37.666 Z"/>
  <path fill="rgb(23.529412%, 22.352941%, 3.921569%)" opacity="0.386" d="M48.283,284.178 Q41.12,291.229 31.329,303.615 Q11.849,328.259 -14.48,353.143 Q-19.156,357.563 -25.586,357.381 Q-32.017,357.2 -36.436,352.524 Q-40.855,347.848 -40.674,341.418 Q-40.493,334.987 -35.817,330.568 Q-11.124,307.23 6.96,284.352 Q17.95,270.448 26.491,262.041 Q31.076,257.527 37.509,257.578 Q43.942,257.629 48.455,262.214 Q52.969,266.798 52.918,273.232 Q52.867,279.665 48.283,284.178 Z"/>
  <path fill="rgb(4.705882%, 24.313725%, 46.27451%)" opacity="0.236" d="M122.219,135.119 Q119.087,115.037 128.08,108.355 Q135.42,102.902 143.347,108.139 Q147.911,111.155 150.36,117.098 Q155.207,128.858 149.255,142.016 Q142.512,156.927 123.374,166.995 Q114.347,171.744 109.598,162.718 Q104.849,153.691 113.876,148.942 Q120.619,145.394 124.895,141.379 Q122.857,139.208 122.219,135.119 Z"/>
  <path fill="rgb(12.941176%, 97.254902%, 0%)" d="M48.766,238.2 Q42.319,220.594 35.933,204.345 Q33.415,197.939 33.123,196.681 Q32.854,195.523 32.992,194.528 Q33.446,191.235 36.658,190.534 Q38.28,190.18 40.288,191.088 Q40.5,191.183 40.636,191.24 Q44.316,189.373 46.458,193.128 Q46.716,193.581 46.865,194.08 Q55.317,222.449 60.877,226.21 Q62.71,227.449 70.387,221.369 Q79.579,214.089 86.024,211.37 Q97.463,206.543 110.381,209.136 Q114.826,210.029 113.934,214.474 Q113.041,218.92 108.596,218.028 Q98.416,215.984 89.55,219.725 Q84.242,221.965 76.018,228.478 Q70.068,233.19 67.13,234.492 Q61.714,236.892 57.059,234.475 Q57.171,234.782 57.281,235.082 Q58.84,239.339 54.582,240.899 Q52.454,241.678 50.999,241.003 Q49.545,240.329 48.766,238.2 Z"/>
  <path fill="rgb(12.156863%, 41.960784%, 61.176471%)" opacity="0.225" d="M-11.161,14.808 Q27.536,18.049 35.333,11.017 Q37.721,8.863 34.317,2.774 Q33.434,1.194 33.172,0.461 Q32.566,-1.232 33.055,-2.783 Q34.097,-6.088 37.631,-6 Q39.588,-5.952 45.795,-2.374 Q57.908,4.301 72.678,12.987 Q76.462,15.212 79.343,16.816 Q80.395,15.849 81.507,15.006 Q97.771,2.695 128.29,13.799 Q130.775,14.704 131.138,17.323 Q131.44,19.497 130.503,20.736 Q129.567,21.974 127.392,22.275 Q112.591,24.327 99.066,28.07 Q90.069,30.561 85.503,29.385 Q84.059,29.013 81.43,27.773 Q75.816,35.927 72.881,51.048 Q72.462,53.203 71.176,54.071 Q69.889,54.94 67.734,54.521 Q63.423,53.685 64.26,49.374 Q67.382,33.29 73.633,23.671 Q71.155,22.279 68.226,20.557 Q55.769,13.231 45.124,7.294 Q45.807,13.397 41.214,17.539 Q30.593,27.118 -11.894,23.559 Q-16.269,23.193 -15.903,18.817 Q-15.536,14.441 -11.161,14.808 Z M88.288,20.985 Q90.773,21.254 96.723,19.607 Q101.003,18.422 105.402,17.401 Q95.065,16.715 88.288,20.985 Z"/>
  <path fill="rgb(3.137255%, 32.941176%, 0%)" d="M51.86,237.505 Q51.889,237.443 51.948,237.317 Q49.773,234.833 50.915,230.389 Q56.836,207.351 65.433,171.205 Q73.64,136.699 76.741,126.909 Q79.356,118.651 81.825,114.735 Q87.225,106.169 95.153,109.16 Q102.44,111.91 109.394,133.65 Q113.326,145.944 124.531,187.633 L125.03,189.491 Q131.793,211.462 129.445,216.921 Q127.33,221.839 122.07,221.846 Q118.604,221.85 116.088,219.238 Q114.686,217.784 113.519,215.2 Q112.024,211.892 110.737,206.803 Q106.843,201.643 101.402,193.757 Q97.155,187.604 95.044,185.067 Q89.937,192.374 73.774,227.101 Q68.743,237.91 65.859,244.065 Q62.579,251.065 55.579,247.785 Q52.079,246.145 51.15,243.575 Q50.22,241.005 51.86,237.505 Z M78.84,181.635 Q83.135,174.382 86.487,171.563 Q95.051,164.362 103.791,171.906 Q104.085,172.159 104.409,172.473 Q95.745,140.756 92.114,129.63 Q91.805,130.55 91.479,131.577 Q88.55,140.827 80.473,174.783 Q79.644,178.27 78.84,181.635 Z"/>
  <path fill="rgb(100%, 75.294118%, 44.705882%)" opacity="0.265" d="M261.768,193.462 Q280.834,199.568 294.822,211.943 Q303.035,219.208 314.787,234.686 Q328.931,253.313 339.127,258.981 Q355.878,268.294 385.448,264.387 Q389.952,263.791 390.547,268.295 Q390.671,269.232 390.411,270.14 Q386.629,283.367 378.428,295.032 Q369.908,307.151 359.39,313.54 Q347.319,320.872 335.591,318.73 Q322.547,316.348 312.562,302.55 Q309.898,298.87 313.579,296.206 Q317.259,293.543 319.923,297.223 Q334.833,317.825 354.673,305.774 Q363.567,300.371 370.995,289.806 Q376.247,282.336 379.461,274.173 Q351.903,276.48 334.711,266.923 Q322.848,260.327 307.55,240.181 Q296.341,225.419 288.801,218.749 Q276.243,207.639 258.997,202.116 Q254.67,200.73 256.056,196.403 Q256.749,194.24 258.177,193.505 Q259.605,192.769 261.768,193.462 Z"/>
  <path fill="rgb(21.568627%, 9.803922%, 21.960784%)" opacity="0.625" d="M270.611,110.379 Q281.76,77.786 283.57,59.124 Q285.324,41.037 278.867,30.254 Q272.938,20.352 257.026,11.998 Q246.412,6.425 216.033,-5.186 Q212.566,-6.511 210.784,-7.194 Q208.846,-7.936 208.248,-9.277 Q207.65,-10.617 208.393,-12.556 Q209.878,-16.432 213.755,-14.947 Q215.535,-14.265 218.997,-12.941 Q249.835,-1.154 260.885,4.647 Q278.863,14.086 285.991,25.989 Q293.852,39.118 291.834,59.926 Q289.93,79.554 278.467,113.066 Q277.795,115.03 276.477,115.676 Q275.16,116.322 273.196,115.651 Q269.268,114.307 270.611,110.379 Z"/>
  <path fill="rgb(100%, 100%, 98.039216%)" opacity="0.748" d="M130.849,219.486 Q126.557,226.535 127.792,229.454 Q128.784,231.802 134.499,232.068 Q145.459,232.578 174.437,224.116 Q175.502,223.805 176.19,224.182 Q176.878,224.559 177.189,225.624 Q177.329,226.104 177.25,226.597 Q172.849,254.076 161.764,264.457 Q150.778,274.746 117.509,282.717 Q115.351,283.234 114.834,281.076 Q114.576,279.997 114.986,279.328 Q115.396,278.659 116.475,278.401 Q148.602,270.703 158.731,261.218 Q168.028,252.511 172.274,229.358 Q145.309,237.014 134.292,236.501 Q125.785,236.106 123.704,231.182 Q121.584,226.169 127.058,217.178 Q128.212,215.283 130.107,216.437 Q132.003,217.591 130.849,219.486 Z"/>
  <path fill="rgb(6.666667%, 8.627451%, 37.254902%)" opacity="0.348" d="M213.87,137.842 Q218.45,127.562 221.368,117.402 Q220.712,118.052 219.889,118.56 Q215.815,121.073 211.65,118.716 Q209.504,117.501 208.397,115.294 Q207.655,113.815 207.535,112.088 Q207.488,111.406 207.527,110.418 Q207.59,108.783 207.868,106.109 Q207.88,105.993 207.892,105.878 Q207.88,100.585 207.124,94.832 Q201.265,50.269 163.202,37.653 Q155.525,35.109 158.07,27.432 Q159.342,23.594 161.897,22.311 Q164.452,21.028 168.29,22.3 Q195.386,31.281 209.957,54.544 Q217.443,66.496 221.005,81.116 Q221.904,81.359 222.691,81.879 Q222.935,58.308 210.957,28.607 Q208.955,23.642 212.743,19.859 Q217.831,14.779 223.939,19.168 Q225.4,20.218 226.853,22.053 Q229.068,24.852 231.385,29.452 Q237.039,40.679 240.01,55.456 Q248.801,99.174 228.645,144.423 Q225.355,151.811 217.967,148.52 Q210.58,145.23 213.87,137.842 Z"/>
  <path fill="rgb(73.333333%, 99.215686%, 20.392157%)" opacity="0.234" d="M340.454,338.058 Q284.437,352.883 248.901,346.749 Q233.739,344.132 225.81,337.976 Q217.666,331.653 218.994,323.388 Q221.776,306.07 258.899,296.37 Q301.529,285.231 368.717,291.902 Q370.788,292.108 370.582,294.178 Q370.479,295.213 369.91,295.68 Q369.341,296.146 368.306,296.043 Q301.86,289.445 259.951,300.396 Q225.454,309.41 223.102,324.048 Q222.165,329.878 228.362,334.69 Q235.471,340.209 249.609,342.649 Q284.25,348.629 339.39,334.036 Q341.401,333.504 341.933,335.515 Q342.465,337.526 340.454,338.058 Z"/>
  <path fill="rgb(7.45098%, 10.196078%, 63.137255%)" opacity="0.473" d="M259.918,318.37 Q265.229,307.796 263.625,301.994 Q262.406,297.584 256.668,295.736 Q248.82,293.208 229.718,295.735 Q225.333,296.315 224.116,296.333 Q222.131,296.363 221.251,295.292 Q220.057,293.84 221.12,292.215 Q221.449,291.713 222.072,291.238 Q224.267,289.564 242.703,281.216 Q243.79,280.724 244.58,281.021 Q245.37,281.319 245.862,282.406 Q246.847,284.581 244.672,285.565 Q238.423,288.395 234.135,290.403 Q250.412,288.705 258.131,291.192 Q266.321,293.83 268.227,300.722 Q270.321,308.296 264.184,320.513 Q263.112,322.646 260.979,321.574 Q258.846,320.503 259.918,318.37 Z"/>
  <path fill="rgb(40.784314%, 32.156863%, 5.490196%)" opacity="0.541" d="M88.511,342.121 Q111.061,339.93 152.975,342.747 Q206.247,346.327 250.703,346.089 Q263.13,346.023 271.964,354.763 Q280.798,363.503 280.864,375.93 Q280.931,388.356 272.19,397.19 Q263.45,406.024 251.024,406.091 Q204.393,406.34 148.952,402.615 Q109.226,399.945 92.266,402.068 Q67.14,405.213 23.619,421.912 Q16.711,424.563 9.363,423.698 Q-2.979,422.245 -10.678,412.49 Q-18.378,402.736 -16.924,390.394 Q-13.381,360.301 -1.566,343.053 Q6.642,331.073 24.364,319.778 Q34.94,313.038 39.902,307.264 Q48.001,297.838 60.392,296.901 Q72.784,295.963 82.209,304.062 Q91.634,312.161 92.572,324.552 Q93.305,334.244 88.511,342.121 Z"/>
  <path fill="rgb(68.627451%, 40.392157%, 54.901961%)" opacity="0.148" d="M259.806,143.421 Q259.607,133.599 259.338,116.249 Q258.72,76.487 257.594,63.551 Q255.924,44.355 250.932,36.674 Q246.042,29.152 234.318,27.467 Q225.058,26.137 200.302,27.738 Q198.591,27.849 198.481,26.138 Q198.462,25.843 198.542,25.559 Q199.788,21.167 202.067,13.18 Q214.263,-29.57 213.22,-35.126 Q212.757,-37.597 209.427,-37.102 Q206.31,-36.638 195.4,-32.382 L195.219,-32.311 Q187.693,-23.18 186.567,4.98 Q185.912,21.38 187.829,52.536 Q188.562,64.438 188.578,67.957 Q188.591,70.883 188.282,72.089 Q187.926,73.48 186.88,73.881 Q185.503,74.408 184.403,73.069 Q183.858,72.407 183.917,71.804 Q183.976,71.201 184.638,70.657 Q184.865,70.469 185.086,70.353 Q185.156,69.474 185.15,67.973 Q185.134,64.551 184.407,52.746 Q182.479,21.417 183.141,4.843 Q184.335,-25.014 192.897,-34.874 Q193.174,-35.193 193.568,-35.347 L193.862,-35.462 L194.154,-35.576 Q205.423,-39.973 208.923,-40.493 Q215.517,-41.474 216.59,-35.759 Q217.782,-29.408 205.364,14.12 Q203.636,20.179 202.503,24.165 Q225.663,22.76 234.806,24.073 Q248.069,25.979 253.806,34.806 Q259.265,43.205 261.01,63.254 Q262.146,76.312 262.766,116.196 Q263.035,133.532 263.234,143.352 Q263.251,144.209 262.831,144.646 Q262.411,145.083 261.554,145.101 Q259.84,145.135 259.806,143.421 Z"/>
  <path fill="rgb(0.392157%, 6.27451%, 18.039216%)" opacity="0.076" d="M201.722,184.093 Q176.093,194.281 141.536,158.237 Q136.347,152.825 130.609,145.987 Q124.094,145.272 117.27,143.447 Q110.713,161.618 110.041,167.454 Q109.238,174.418 114.593,196.853 Q116.464,204.692 117.536,209.342 Q119.172,216.439 115.311,222.615 Q111.45,228.79 104.353,230.426 Q97.256,232.063 91.081,228.202 Q84.905,224.34 83.269,217.244 Q82.227,212.725 80.387,205.016 Q73.594,176.551 75.106,163.428 Q76.552,150.877 90.459,114.767 Q90.621,114.346 90.805,113.933 Q93.768,107.28 100.567,104.67 Q101.429,104.34 102.289,104.098 Q102.172,102.095 102.523,99.984 Q103.721,92.8 109.648,88.567 Q114.338,85.217 120.102,85.294 Q147.827,85.664 162.687,94.425 Q172.277,100.08 175.904,108.779 Q180.671,120.214 174.138,130.81 Q172.169,134.004 169.512,136.547 Q178.115,145.136 184.658,148.978 Q187.663,150.743 189.514,151.122 Q195.886,148.891 202.187,151.607 Q208.875,154.491 211.566,161.259 Q214.256,168.027 211.373,174.715 Q208.49,181.403 201.722,184.093 Z"/>
  <path fill="rgb(0%, 18.431373%, 72.941176%)" d="M202.957,232.468 Q233.307,242.605 252.854,204.848 Q256.431,197.939 258.72,191.432 Q258.658,188.511 259.709,187.491 Q260.49,184.401 260.97,183.082 Q261.214,182.412 261.51,182.097 Q262.282,181.273 263.339,181.637 Q264.273,181.957 264.474,182.935 Q264.535,183.231 264.499,183.597 Q264.437,184.209 264.065,185.657 Q263.759,186.846 263.409,188.047 Q264.063,188.543 264.835,189.261 Q270.923,194.929 275.766,194.659 Q284.939,194.149 295.549,176.89 Q299.77,166.034 304.102,145.593 Q308.636,124.2 309.398,110.128 Q309.803,102.648 308.918,99.214 Q308.547,97.773 308.078,97.383 Q307.95,97.276 307.566,97.443 Q302.04,99.842 288.457,129.02 Q288.095,129.797 287.525,130.005 Q286.956,130.213 286.179,129.851 Q284.625,129.128 285.348,127.573 Q299.481,97.215 306.201,94.298 Q308.521,93.291 310.271,94.747 Q311.591,95.846 312.238,98.359 Q313.255,102.305 312.821,110.313 Q312.045,124.651 307.456,146.304 Q303.038,167.154 298.686,178.281 Q298.631,178.422 298.552,178.552 Q286.957,197.471 275.956,198.082 Q269.655,198.433 262.499,191.771 Q262.394,191.673 262.295,191.582 Q262.217,191.813 262.137,192.044 Q262.13,192.073 262.115,192.139 Q262.029,192.506 261.882,192.774 Q259.529,199.411 255.899,206.424 Q235.002,246.786 201.871,235.72 Q200.245,235.177 200.788,233.551 Q201.06,232.738 201.602,232.467 Q202.144,232.196 202.957,232.468 Z"/>
  <path fill="rgb(50.980392%, 25.098039%, 0%)" d="M320.768,223.269 Q331.18,201.426 345.084,189.746 Q339.604,188.899 329.985,190.853 Q324.639,191.938 322.97,191.588 Q320.419,191.053 320.107,188.638 Q319.908,187.102 321.045,184.854 Q323.976,179.06 347.475,151.395 Q348.986,149.617 350.765,151.128 Q351.654,151.883 351.721,152.705 Q351.788,153.528 351.033,154.417 Q327.891,181.66 325.21,186.961 Q326.525,186.793 329.056,186.279 Q340.742,183.906 347.31,185.423 Q351.465,186.086 351.985,187.903 Q352.517,189.763 349.301,192.325 Q335.417,203.383 324.982,225.278 Q323.978,227.384 321.871,226.38 Q319.764,225.376 320.768,223.269 Z"/>
  <path fill="rgb(100%, 81.960784%, 100%)" opacity="0.051" d="M245.907,201.177 Q246.221,200.9 246.55,200.612 Q247.006,198.33 247.763,195.937 Q252.096,182.25 277.781,145.77 Q274.069,143.688 269.809,141.964 Q266.962,140.811 266.114,138.812 Q265.267,136.812 266.419,133.965 Q268.724,128.271 274.418,130.575 Q281.143,133.297 286.781,136.823 Q289.259,136.618 291.594,139.207 Q292.863,140.615 293.964,142.005 Q299.396,146.524 303.491,152.033 Q313.584,165.615 313.14,181.646 Q312.692,197.768 301.672,211.51 Q290.273,225.724 269.976,234.018 Q267.356,235.089 264.839,233.793 Q247.78,225.004 246.055,210.568 Q245.706,210.239 245.36,209.847 Q241.299,205.238 245.907,201.177 Z M258.138,206.827 Q258.048,210.099 259.14,212.651 Q261.196,217.455 267.998,221.506 Q283.417,214.636 292.088,203.824 Q300.526,193.302 300.859,181.306 Q301.039,174.815 298.825,168.814 Q294.615,176.747 273.626,193.911 Q264.467,201.401 258.138,206.827 Z M287.134,153.828 Q275.059,171.02 268.129,182.524 Q285.349,168.255 287.995,163.011 Q289.954,159.13 287.134,153.828 Z"/>
  <path fill="rgb(67.843137%, 83.137255%, 29.803922%)" opacity="0.008" d="M175.105,307.264 Q187.711,301.007 195.537,289.632 Q195.587,289.561 195.633,289.492 Q187.551,294.97 176.193,304.298 Q165.917,312.738 161.752,315.241 Q154.3,319.719 149.933,317.135 Q149.127,316.658 148.963,316.017 Q148.798,315.376 149.275,314.57 Q149.286,314.552 149.297,314.534 Q153.593,307.629 156.899,301.736 Q156.474,301.759 155.95,301.571 Q154.187,300.939 154.819,299.176 Q158.616,288.588 162.607,282.201 Q164.338,279.431 165.67,278.251 Q166.636,277.395 167.563,277.281 Q169.426,277.051 170.05,278.885 Q172.036,284.722 153.932,314.161 Q159.316,313.313 173.816,301.404 Q189.571,288.464 199.232,282.759 Q199.295,282.628 199.352,282.525 Q199.496,282.259 199.652,282.077 Q200.123,281.525 200.827,281.422 Q201.954,281.257 202.621,282.18 Q202.918,282.589 202.97,283.095 Q203.037,283.738 202.42,285.14 Q201.085,288.177 198.623,291.755 Q190.246,303.93 176.77,310.619 Q175.931,311.035 175.304,310.824 Q174.676,310.613 174.26,309.774 Q173.427,308.097 175.105,307.264 Z M160.071,295.876 Q161.952,292.258 163.382,289.1 Q164.219,287.251 164.835,285.772 Q162.429,289.973 160.071,295.876 Z"/>
  <path fill="rgb(96.470588%, 82.745098%, 97.254902%)" opacity="0.023" d="M114.417,258.369 Q123.59,271.003 117.622,282.359 Q112.891,291.361 99.127,298.41 Q88.308,303.95 75.255,306.877 Q63.038,309.617 59.911,307.875 Q59.134,307.442 58.962,306.837 Q58.79,306.231 59.223,305.454 Q60.089,303.9 61.644,304.766 Q63.584,305.847 74.476,303.405 Q87.088,300.576 97.505,295.242 Q110.265,288.708 114.472,280.704 Q119.411,271.305 111.537,260.46 Q110.491,259.02 111.931,257.974 Q113.371,256.929 114.417,258.369 Z"/>
  <path fill="rgb(30.588235%, 58.039216%, 97.647059%)" opacity="0.184" d="M112.31,360.486 Q111.695,360.533 111.061,360.538 Q104.128,360.597 99.184,355.737 Q94.24,350.877 94.181,343.944 Q94.122,337.011 98.982,332.067 Q108.733,322.147 126.142,315.515 Q135.363,312.002 154.611,307.032 Q158.785,305.954 162.457,304.919 Q162.581,303.378 162.712,301.471 Q164.634,273.383 171.28,246.414 Q172.938,239.682 178.871,236.095 Q184.804,232.508 191.536,234.166 Q197.382,235.607 200.971,240.441 Q235.732,287.266 215.363,314.032 Q207.355,324.555 190.44,331.204 Q189.01,331.766 187.287,332.371 Q186.051,333.733 184.629,334.954 Q177.344,341.205 147.394,350.268 Q129.416,355.708 117.258,359.632 Q114.753,360.44 112.31,360.486 Z"/>
  <path fill="rgb(69.411765%, 51.372549%, 22.352941%)" opacity="0.522" d="M346.753,146.627 Q316.566,141.131 307.131,128.471 Q300.124,119.069 303.203,104.759 Q300.124,104.361 295.964,104.184 Q295.741,104.803 295.458,105.42 Q292.985,110.819 287.419,112.887 Q281.853,114.955 276.455,112.482 Q271.056,110.008 268.988,104.442 Q265.209,94.272 260.871,90.38 Q250.616,81.182 258.404,70.637 Q258.707,70.227 259.023,69.846 Q260.12,61.15 267.758,57.563 Q273.981,54.641 280.304,57.484 Q283.662,58.994 286.13,61.968 Q290.001,66.632 291.614,75.414 Q315.973,75.886 324.886,82.504 Q336.679,91.259 331.59,109.357 Q331.09,111.136 330.877,112.104 Q334.838,115.316 351.888,118.42 Q357.73,119.484 361.109,124.366 Q364.487,129.249 363.424,135.091 Q362.36,140.933 357.477,144.312 Q352.595,147.69 346.753,146.627 Z"/>
  <path fill="rgb(70.588235%, 62.745098%, 100%)" opacity="0.043" d="M115.128,273.632 Q113.431,274.435 112.238,275.013 Q127.468,277.103 137.938,284.494 Q138.638,284.988 138.741,285.586 Q138.844,286.183 138.35,286.883 Q137.58,287.973 136.335,287.495 Q117.317,280.198 106.942,291.714 Q91.501,308.854 84.437,369.386 Q84.338,370.238 83.862,370.614 Q83.387,370.99 82.536,370.89 Q80.928,370.703 81.023,369.087 Q82.311,347.212 77.179,308.978 Q75.964,299.93 76.505,299.055 Q77.053,298.167 78.085,298.211 Q78.778,298.24 79.286,298.747 Q79.561,299.02 79.794,299.492 Q80.053,300.017 80.45,301.158 Q81.145,303.152 82.623,308.078 Q82.869,308.899 82.581,309.433 Q82.294,309.966 81.473,310.212 Q81.118,310.319 80.817,310.326 Q83.452,330.351 84.303,345.875 Q91.489,303.745 104.395,289.419 Q112.179,280.779 123.894,281.22 Q118.004,279.202 111.058,278.315 Q108.839,278.031 108.159,277.853 Q107.297,277.627 106.827,277.186 Q105.645,276.078 106.507,274.677 Q107.165,273.607 113.661,270.533 Q114.436,270.166 115.007,270.37 Q115.577,270.574 115.944,271.349 Q116.677,272.898 115.128,273.632 Z"/>
  <path fill="rgb(98.039216%, 56.862745%, 26.666667%)" opacity="0.185" d="M259.69,151.168 Q236.001,179.067 206.96,193.146 Q183.115,204.705 164.913,203.505 Q156.867,202.974 153.127,199.74 Q148.765,195.968 151.52,190.46 Q157.037,179.434 187.974,168.874 Q189.596,168.32 190.15,169.942 Q190.427,170.754 190.159,171.298 Q189.892,171.842 189.081,172.118 Q159.474,182.224 154.587,191.994 Q153.024,195.118 155.37,197.146 Q158.24,199.628 165.138,200.083 Q182.435,201.225 205.464,190.06 Q233.855,176.297 257.076,148.949 Q257.631,148.296 258.235,148.246 Q258.839,148.197 259.492,148.752 Q260.799,149.861 259.69,151.168 Z"/>
  <path fill="rgb(0.784314%, 28.235294%, 55.686275%)" opacity="0.45" d="M410.327,200.744 Q388.758,218.938 374.801,236.443 Q362.616,251.725 360.814,260.195 Q360.326,262.488 360.669,262.785 Q361.194,263.24 364.088,262.394 Q374.142,259.456 394.212,242.719 Q396.965,240.423 399.261,243.176 Q401.558,245.93 398.804,248.226 Q377.587,265.919 366.1,269.277 Q359.449,271.221 355.969,268.201 Q352.433,265.132 353.8,258.703 Q355.954,248.577 369.195,231.972 Q383.594,213.914 405.704,195.263 Q407.074,194.108 408.337,194.215 Q409.6,194.322 410.756,195.692 Q413.068,198.433 410.327,200.744 Z"/>
  <path fill="rgb(5.098039%, 18.823529%, 53.333333%)" opacity="0.806" d="M147.741,179.883 Q161.732,178.083 170.975,165.426 Q170.555,163.959 171.753,162.174 Q173.568,159.472 174.69,157.847 Q176.093,153.906 177.19,151.601 Q177.861,150.191 178.422,149.424 Q179.054,148.561 179.853,148.085 Q181.123,147.328 182.564,147.547 Q184.475,147.836 185.454,149.513 Q187.229,152.552 182.588,161.579 Q182.36,162.022 182.13,162.457 Q189.545,162.428 198.013,150.152 Q209.022,134.192 217.152,105.601 Q224.738,78.926 224.311,62.421 Q224.157,56.445 223.108,54.89 Q221.984,55.368 220.166,57.187 Q218.766,58.589 217.365,58.589 Q215.964,58.59 214.563,57.19 Q211.76,54.389 214.561,51.586 Q222.458,43.682 228.079,48.632 Q231.971,52.059 232.233,62.216 Q232.691,79.931 224.775,107.769 Q216.286,137.617 204.536,154.652 Q191.138,174.075 177.565,169.861 Q166.351,185.479 148.752,187.742 Q144.822,188.248 144.316,184.318 Q143.811,180.388 147.741,179.883 Z"/>
  <path fill="rgb(54.117647%, 68.627451%, 100%)" opacity="0.138" d="M96.63,114.295 Q101.325,170.725 115.645,200.766 Q127.282,225.179 139.238,223.05 Q150.703,221.007 152.254,197.88 Q154.062,170.918 138.53,135.827 Q138.183,135.043 138.402,134.478 Q138.62,133.912 139.404,133.565 Q140.971,132.871 141.665,134.439 Q157.54,170.304 155.675,198.11 Q153.945,223.912 139.839,226.425 Q125.311,229.012 112.55,202.241 Q97.96,171.634 93.214,114.58 Q93.142,113.725 93.534,113.263 Q93.926,112.8 94.78,112.729 Q96.488,112.587 96.63,114.295 Z"/>
  <path fill="rgb(41.176471%, 82.745098%, 100%)" opacity="0.252" d="M269.454,250.069 Q269.24,245.626 268.929,240.766 Q264.611,235.045 265.213,228.838 Q265.555,225.311 267.473,221.586 Q266.539,209.747 267.627,207.184 Q269.439,202.916 277.964,203.856 Q280.732,204.161 283.532,204.272 Q291.053,198.47 304.706,189.476 Q307.234,187.811 308.474,186.989 Q311.297,185.12 313.167,187.943 Q314.102,189.355 313.863,190.528 Q313.625,191.701 312.213,192.636 Q310.968,193.46 308.431,195.131 Q301.062,199.986 295.548,203.864 Q302.587,203.121 309.826,201.207 Q313.099,200.342 313.965,203.615 Q313.996,203.733 314.019,203.853 Q316.956,219.429 314.601,239.488 Q313.19,251.501 315.549,254.701 Q318.082,258.138 327.148,260.895 Q332.32,262.212 337.975,263.508 Q341.172,264.241 340.542,267.459 Q339.891,270.782 336.568,270.131 Q330.654,268.973 325.975,267.568 Q290.976,258.593 276.112,247.626 Q276.167,248.695 276.218,249.743 Q276.381,253.125 272.999,253.288 Q269.617,253.451 269.454,250.069 Z M275.583,238.74 Q283.509,247.521 308.521,255.585 Q306.569,249.818 307.875,238.698 Q309.844,221.936 307.948,208.643 Q296.668,211.215 285.8,211.102 Q284.584,212.079 283.591,212.94 Q277.293,218.398 274.389,223.051 Q275.094,231.354 275.583,238.74 Z M276.232,210.483 Q274.512,210.311 273.756,210.312 Q273.657,211.129 273.713,213.032 Q274.892,211.768 276.232,210.483 Z"/>
  <path fill="rgb(1.568627%, 59.607843%, 59.607843%)" opacity="0.27" d="M-23.386,31.652 Q-29.11,58.899 -22.401,77.603 Q-16.937,92.834 -4.847,99.135 Q5.688,104.624 14.63,100.831 Q23.284,97.161 22.907,87.155 Q22.855,85.769 23.522,85.05 Q24.189,84.33 25.575,84.278 Q28.348,84.174 28.452,86.946 Q28.973,100.775 16.797,105.94 Q5.445,110.755 -7.411,104.056 Q-21.428,96.752 -27.624,79.477 Q-34.864,59.294 -28.817,30.512 Q-28.247,27.796 -25.531,28.367 Q-24.173,28.652 -23.637,29.473 Q-23.101,30.295 -23.386,31.652 Z"/>
  <path fill="rgb(50.588235%, 37.647059%, 96.078431%)" opacity="0.195" d="M156.974,230.904 Q158.809,230.666 160.051,231.766 Q162.425,233.868 160.519,236.532 Q159.894,237.406 158.37,238.408 Q155.737,240.14 151.567,241.888 Q139.649,246.883 129.906,245.95 Q115.356,244.558 111.097,230.283 Q106.249,214.035 116.394,181.566 Q117.406,178.327 120.645,179.339 Q122.264,179.845 122.821,180.908 Q123.378,181.971 122.872,183.59 Q113.345,214.081 117.601,228.342 Q120.553,238.237 130.552,239.194 Q138.598,239.964 148.944,235.628 Q152.084,234.312 154.09,233.086 Q154.528,231.221 156.974,230.904 Z"/>
  <path fill="rgb(1.568627%, 10.588235%, 27.843137%)" opacity="0.344" d="M84.962,32.405 Q82.642,20.735 87.859,14.956 Q93.065,9.189 103.127,11.261 Q119.425,14.617 139.496,34.263 Q161.107,55.415 170.806,80.835 Q182.666,111.92 171.674,138.999 Q170.68,141.448 168.959,142.175 Q167.238,142.902 164.79,141.908 Q159.893,139.921 161.881,135.024 Q171.309,111.8 160.932,84.602 Q152.059,61.347 132.104,41.816 Q114.251,24.342 100.995,21.613 Q96.858,20.76 95.705,22.038 Q94.043,23.879 95.328,30.345 Q96.358,35.528 91.175,36.558 Q85.992,37.588 84.962,32.405 Z"/>
  <path fill="rgb(18.039216%, 51.764706%, 88.235294%)" opacity="0.245" d="M61.833,254.404 Q75.35,241.914 83.165,239.885 Q99.26,235.708 114.739,255.993 Q117.222,259.247 116.296,262.043 Q125.179,267.06 135.162,274.122 Q140.787,278.1 136.808,283.725 Q134.138,287.499 129.633,286.459 Q109.153,281.729 99.488,299.845 Q93.671,310.748 91.557,330.245 Q91.335,332.297 91.224,332.961 Q90.954,334.577 90.256,335.768 Q89.219,337.534 87.404,338.455 Q83.767,340.301 80.39,338.011 Q78.459,336.702 77.681,334.438 Q77.263,333.221 76.525,326.362 Q76.224,323.561 76.035,321.833 Q75.409,316.135 80.046,314.658 Q82.677,302.082 87.331,293.359 Q95.494,278.059 108.676,273.503 Q89.021,262.458 77.28,263.602 Q73.477,263.973 69.861,265.747 Q68.282,267.248 66.581,268.927 Q55.634,279.73 47.874,285.968 Q42.164,291.572 37.842,294.608 Q26.193,302.788 11.793,304.449 Q5.898,305.13 4.352,299.399 Q2.558,292.748 9.21,290.954 Q23.158,287.192 36.244,277.545 Q37.433,276.669 38.736,275.635 Q41.344,273.044 44.346,269.795 Q52.586,260.875 57.421,257.283 Q59.588,255.672 61.833,254.404 Z"/>
  <path fill="rgb(0.784314%, 88.235294%, 25.098039%)" opacity="0.096" d="M340.097,95.528 Q339.18,95.187 337.352,94.511 Q322.986,89.194 318.596,86.99 Q314.509,84.938 312.822,82.96 Q308.823,78.27 313.198,74.161 Q317.911,69.735 354.421,66.663 Q333.783,59.906 325.274,58.095 Q311.513,55.167 303.608,57.771 Q286.445,63.425 279.187,106.76 Q279.208,110.122 279.828,110.867 L280.02,110.507 Q283.105,109.826 293.892,102.394 Q303.768,95.591 308.928,92.92 Q310.948,91.874 312.481,92.361 Q314.014,92.849 315.06,94.869 Q317.152,98.91 313.111,101.002 Q308.459,103.41 299.055,109.889 Q286.804,118.328 281.983,119.393 Q276.152,120.681 272.829,116.685 Q270.065,113.36 270.087,106.373 Q270.088,106.005 270.148,105.642 Q274.382,80.119 281.45,66.835 Q288.769,53.078 300.761,49.128 Q311.002,45.754 327.168,49.194 Q336.804,51.245 360.438,59.063 Q372.703,63.121 379.419,65.224 Q382.416,66.163 382.601,69.299 Q382.735,71.57 381.666,72.772 Q380.598,73.975 378.326,74.109 Q335.302,76.645 323.569,79.285 Q328.012,81.35 340.511,85.977 Q342.323,86.647 343.263,86.996 Q347.529,88.579 345.946,92.845 Q345.154,94.978 343.692,95.648 Q342.23,96.319 340.097,95.528 Z"/>
  <path fill="rgb(19.607843%, 28.235294%, 34.117647%)" opacity="0.591" d="M157.655,205.397 Q152.238,215.574 147.224,224.141 Q151.584,223.664 156.189,223.645 Q160.294,223.627 162.355,225.672 Q164.417,227.716 164.434,231.821 Q164.468,240.032 156.257,240.066 Q144.318,240.116 134.677,243.97 Q129.065,252.035 124.085,257.572 Q117.885,264.467 113.252,266.434 Q107.948,268.687 103.664,265.869 Q98.85,262.703 99.57,256.529 Q100.782,246.125 115.551,235.765 Q119.476,233.012 123.734,230.884 Q132.52,217.668 143.158,197.681 Q147.016,190.433 154.264,194.291 Q161.512,198.149 157.655,205.397 Z"/>
  <path fill="rgb(0%, 9.803922%, 7.843137%)" opacity="0.226" d="M138.042,285.474 Q138.599,280.317 141.58,276.413 Q146.729,269.669 154.965,270.245 Q162.983,270.805 167.284,277.966 Q170.042,282.557 169.988,288.638 Q169.961,291.628 168.792,294.133 Q174.205,300.433 184.573,307.759 Q194.02,314.435 188.722,324.719 Q186.198,329.618 180.949,331.297 Q175.7,332.976 170.801,330.452 Q151.601,320.56 138.061,316.353 Q133.448,314.919 131.326,314.455 Q129.876,314.532 128.571,314.457 Q123.921,314.19 120.571,311.625 Q117.465,309.248 116.134,305.575 Q113.91,299.434 117.402,293.914 Q119.971,289.853 124.562,288.351 Q126.293,287.785 128.227,287.672 Q129.696,287.586 131.364,287.681 Q134.481,287.091 138.042,285.474 Z"/>
  <path fill="rgb(40%, 54.509804%, 75.686275%)" opacity="0.861" d="M205.217,11.649 Q225.496,51.24 239.501,62.627 Q244.693,66.848 247.919,66.281 Q250.464,65.834 251.831,61.995 Q255.279,52.313 250.011,36.578 Q244.324,19.592 233.203,13.745 Q231.27,12.729 232.286,10.796 Q232.794,9.83 233.531,9.601 Q234.269,9.372 235.235,9.88 Q247.908,16.544 254.152,35.192 Q259.899,52.357 255.944,63.46 Q253.724,69.694 248.675,70.582 Q243.485,71.494 236.746,66.015 Q222.029,54.048 201.33,13.64 Q200.833,12.668 201.07,11.934 Q201.307,11.199 202.278,10.701 Q204.221,9.706 205.217,11.649 Z"/>
  <path fill="rgb(13.333333%, 15.294118%, 50.588235%)" opacity="0.508" d="M309.818,370.475 Q302.005,363.767 299.086,365.059 Q296.885,366.032 291.935,375.361 Q282.586,392.979 272.418,402.905 Q254.505,420.393 224.493,429.116 Q222.919,429.574 221.904,429.015 Q220.888,428.457 220.431,426.884 Q220.399,426.774 220.375,426.662 Q216.874,410.482 215.054,406.703 Q214.22,404.972 211.871,404.401 Q207.464,403.329 203.998,401.29 Q201.173,399.627 202.835,396.803 Q203.667,395.39 204.788,395.099 Q205.91,394.809 207.323,395.64 Q209.954,397.188 213.419,398.031 Q218.781,399.334 220.96,403.859 Q222.887,407.859 226.017,421.806 Q252.099,413.58 267.839,398.214 Q277.275,389.003 286.144,372.288 Q292.158,360.956 296.432,359.064 Q303.135,356.098 314.088,365.502 Q316.575,367.637 314.44,370.123 Q312.305,372.61 309.818,370.475 Z"/>
  <path fill="rgb(100%, 90.980392%, 81.568627%)" opacity="0.008" d="M213.584,183.866 Q230.503,188.33 238.985,193.187 Q254.681,202.175 255.603,217.61 Q256.332,229.821 245.953,244.107 Q240.023,252.27 227.996,264.551 Q224.276,289.805 226.373,309.31 Q233.643,308.722 239.306,313.39 Q270.081,338.763 269.65,361.093 Q269.318,378.335 254.013,384.598 Q242.484,389.317 229.327,383.291 Q206.914,373.026 196.275,341.043 Q184.369,305.249 193.174,252.94 Q194.14,247.205 198.264,243.105 Q211.441,230.007 216.659,222.825 Q216.707,222.759 216.756,222.691 Q212.155,220.937 204.346,218.876 Q197.095,216.963 193.321,210.483 Q189.546,204.003 191.46,196.752 Q193.373,189.501 199.853,185.727 Q206.333,181.953 213.584,183.866 Z"/>
  <path fill="rgb(89.803922%, 47.058824%, 100%)" opacity="0.251" d="M83.535,252.366 Q57.208,243.225 42.757,249.267 Q31.24,254.082 28.134,268.198 Q25.575,279.825 28.981,293.854 Q31.807,305.493 35.294,308.306 Q53.224,307.222 60.337,308.43 Q71.652,310.352 75.806,318.821 Q83.942,335.408 66.342,400.071 Q66.117,400.898 65.59,401.199 Q65.064,401.5 64.237,401.275 Q63.1,400.966 62.982,399.793 Q59.773,368.003 56.066,353.736 Q51.893,337.674 44.217,330.986 Q36.916,324.624 21.909,323.065 Q11.843,322.019 -17.469,322.592 L-17.725,322.597 L-17.982,322.602 L-18.24,322.607 L-18.498,322.612 Q-19.355,322.629 -19.792,322.209 Q-20.228,321.789 -20.245,320.932 Q-20.279,319.218 -18.565,319.185 L-18.307,319.179 L-18.049,319.174 L-17.792,319.169 L-17.536,319.164 Q11.987,318.587 22.263,319.655 Q38.35,321.326 46.469,328.401 Q54.944,335.786 59.384,352.874 Q62.591,365.215 65.409,390.215 Q79.745,334.636 72.728,320.331 Q69.347,313.438 59.763,311.81 Q52.92,310.648 34.895,311.766 Q34.332,311.801 33.859,311.495 Q28.969,308.335 25.649,294.663 Q22.056,279.863 24.785,267.461 Q28.274,251.606 41.434,246.104 Q57.094,239.556 84.66,249.127 Q86.279,249.689 85.717,251.308 Q85.436,252.118 84.891,252.382 Q84.345,252.647 83.535,252.366 Z"/>
  <path fill="rgb(0.392157%, 7.843137%, 58.039216%)" opacity="0.57" d="M82.827,47.578 Q88.278,49.494 94.018,61.547 Q110.453,73.029 119.983,90.145 Q131.78,111.335 128.767,134.769 Q127.546,146.49 125.409,149.641 Q123.478,152.488 120.752,151.074 Q119.186,150.262 117.693,147.531 Q114.519,141.723 106.573,113.323 Q97.079,79.39 90.15,64.059 Q89.717,63.769 89.281,63.483 Q73.188,52.958 59.326,53.029 Q45.679,53.099 42.471,64.182 Q41.879,66.227 39.834,65.635 Q38.811,65.339 38.448,64.68 Q38.085,64.02 38.381,62.998 Q42.474,48.858 59.305,48.772 Q72.097,48.706 86.331,56.707 Q83.628,52.372 81.415,51.594 Q79.407,50.888 80.113,48.88 Q80.466,47.876 81.144,47.55 Q81.823,47.225 82.827,47.578 Z M97.409,69.486 Q97.805,70.509 98.203,71.579 Q102.69,83.643 110.673,112.176 Q118.489,140.108 121.429,145.489 Q121.861,146.279 122.181,146.73 Q123.532,143.943 124.535,134.303 Q124.538,134.277 124.541,134.251 Q127.385,112.193 116.263,92.216 Q108.971,79.12 97.409,69.486 Z"/>
  <path fill="rgb(66.666667%, 89.803922%, 100%)" opacity="0.636" d="M168.336,40.508 Q173.36,33.838 171.678,23.63 Q169.909,12.894 161.65,4.147 Q152.41,-5.639 138.314,-8.935 Q121.829,-12.79 101.672,-6.824 Q100.187,-6.385 99.225,-6.907 Q98.263,-7.43 97.824,-8.914 Q96.945,-11.883 99.914,-12.762 Q121.643,-19.193 139.724,-14.965 Q155.634,-11.244 166.152,-0.104 Q175.711,10.02 177.788,22.623 Q179.901,35.447 173.282,44.234 Q172.35,45.47 171.266,45.623 Q170.182,45.776 168.946,44.844 Q166.473,42.981 168.336,40.508 Z"/>
  <path fill="rgb(2.745098%, 24.705882%, 49.803922%)" opacity="0.438" d="M410.26,324.471 Q402.207,327.189 383.483,328.539 Q359.054,330.301 350.88,335.734 Q337.793,344.432 340.566,370.383 Q341.003,374.473 336.914,374.909 Q332.824,375.346 332.388,371.257 Q329.084,340.344 346.328,328.884 Q356.304,322.254 382.891,320.336 Q400.57,319.061 407.63,316.678 Q411.527,315.363 412.842,319.259 Q414.157,323.156 410.26,324.471 Z"/>
  <path fill="rgb(9.803922%, 3.921569%, 7.058824%)" opacity="0.459" d="M129.553,145.696 Q143.546,142.829 144.715,126.332 Q145.789,111.189 136.65,88.31 Q128.387,67.625 115.96,50.21 Q106.966,37.605 100.508,33.149 Q85.654,33.524 72.872,47.256 Q71.104,49.156 69.205,47.388 Q68.255,46.504 68.222,45.587 Q68.189,44.67 69.073,43.72 Q80.861,31.056 94.44,28.554 Q94.471,28.207 94.584,27.82 Q94.949,26.575 95.754,26.135 Q96.56,25.695 97.805,26.061 Q98.917,26.387 100.087,26.942 Q101.551,27.505 102.835,27.97 Q105.211,28.067 107.637,28.452 Q110.598,28.921 112.297,29.744 Q113.883,30.511 114.267,31.801 Q114.892,33.895 112.961,34.965 Q112.345,35.306 111.525,35.361 Q111.138,35.387 110.663,35.359 Q115.135,40.118 120.185,47.195 Q132.975,65.119 141.469,86.385 Q151.05,110.369 149.892,126.699 Q148.444,147.123 130.595,150.781 Q128.053,151.302 127.532,148.759 Q127.011,146.217 129.553,145.696 Z"/>
  <path fill="rgb(92.54902%, 90.980392%, 100%)" opacity="0.345" d="M154.677,257.382 Q154.1,258.256 153.414,259.297 Q164.541,252.703 171.109,249.7 Q184.723,243.476 197.009,242.593 Q207.588,241.832 208.349,252.411 Q209.109,262.99 198.53,263.751 Q185.462,264.69 160.736,279.637 Q141.671,291.161 131.777,293.749 Q130.165,294.171 128.581,294.469 Q125.457,297.624 122.723,299.075 Q112.767,304.359 104.148,296.185 Q100.685,292.901 95.206,283.727 Q89.768,274.621 98.874,269.183 Q105.203,265.404 110.951,270.017 Q114.386,272.774 118.285,273.568 Q122.852,267.175 130.984,254.796 Q134.827,248.945 136.979,245.688 Q139.902,241.264 143.576,240.513 Q147.25,239.763 151.675,242.686 Q160.524,248.533 154.677,257.382 Z"/>
  <path fill="rgb(0%, 14.117647%, 62.352941%)" opacity="0.34" d="M334.961,304.475 Q344.848,289.055 345.476,282.797 Q345.642,281.144 345.166,280.767 Q344.536,280.268 342.483,280.497 Q335.005,281.331 309.38,295.739 Q293.009,304.943 290.306,304.031 Q288.39,303.385 288.165,301.378 Q288.047,300.336 288.585,299.125 Q289.226,297.683 291.152,295.284 Q294.793,290.748 304.153,281.329 Q304.232,281.249 304.318,281.176 Q310.832,275.64 310.634,267.708 Q310.445,260.141 304.607,255.387 Q298.227,250.192 288.725,252.025 Q276.959,254.295 264.156,266.972 Q263.203,267.915 262.255,267.91 Q261.307,267.906 260.364,266.953 Q258.644,265.216 260.215,263.343 Q278.867,241.111 302.172,231.429 Q319.491,224.233 336.728,224.775 Q352.126,225.258 353.483,229.638 Q354.179,231.884 352.078,233.05 Q351.38,233.437 350.368,233.528 Q349.076,233.644 346.855,233.334 Q341.884,232.64 333.58,230.116 Q333.559,230.11 333.539,230.104 Q318.955,230.263 304.23,236.381 Q293.976,240.641 284.645,247.496 Q286.181,247.054 287.709,246.76 Q299.67,244.452 307.993,251.229 Q315.745,257.54 315.995,267.574 Q316.256,278.013 307.879,285.187 Q300.961,292.152 297.309,296.305 Q300.849,294.383 306.751,291.064 Q333.327,276.122 341.888,275.167 Q346.134,274.693 348.495,276.562 Q351.271,278.761 350.812,283.333 Q350.056,290.868 339.476,307.369 Q338.029,309.626 335.772,308.179 Q333.514,306.732 334.961,304.475 Z"/>
</svg>

