<svg xmlns="http://www.w3.org/2000/svg" width="384" height="384" viewBox="0 0 384 384">
  <defs/>
  <path fill="rgb(11.372549%, 4.705882%, 0%)" opacity="0.988" d="M148.868,165.756 Q141.622,221.188 132.104,263.736 Q132.063,317.707 112.172,359.268 Q98.456,387.926 77.009,406.578 Q59.755,421.582 44.747,425.003 Q41.861,425.66 39.634,423.71 Q37.45,421.799 37.315,419.751 Q37.179,417.704 39.09,415.521 Q43.435,410.559 52.775,401.592 Q66.787,388.14 74.076,378.76 Q86.421,362.873 96.192,340.776 Q109.772,310.06 120.5,262.477 Q120.333,216.132 104.999,159.95 Q104.235,157.151 105.252,155.369 Q106.27,153.587 109.069,152.823 Q114.668,151.295 116.197,156.894 Q125.138,189.654 129.054,219.272 Q133.52,193.617 137.358,164.252 Q138.111,158.497 143.866,159.249 Q149.62,160.001 148.868,165.756 Z"/>
  <path fill="rgb(3.137255%, 48.627451%, 4.313725%)" opacity="0.263" d="M-20.009,326.542 Q-6.071,331.155 9.754,343.838 Q18.259,350.654 33.64,365.521 Q41.951,373.555 47.496,378.361 Q47.454,360.267 43.074,346.757 Q32.741,314.881 -1.486,293.065 Q-7.859,289.003 -9.493,281.625 Q-11.127,274.246 -7.065,267.873 Q-3.003,261.5 4.375,259.866 Q11.754,258.232 18.127,262.294 Q63.41,291.157 77.786,335.504 Q85.573,359.523 83.577,391.486 Q83.431,393.834 83.382,394.957 Q84.843,402.122 80.365,408.58 Q71.94,420.731 58.397,421.784 Q48.317,422.568 37.441,416.273 Q27.969,410.791 8.279,391.758 Q-19.121,365.274 -31.475,361.185 Q-38.65,358.81 -42.044,352.057 Q-45.438,345.305 -43.063,338.13 Q-40.689,330.956 -33.936,327.561 Q-27.184,324.167 -20.009,326.542 Z"/>
  <path fill="rgb(40.392157%, 70.980392%, 0%)" d="M309.196,415.259 Q304.895,418.903 300.199,422.408 Q298.008,424.044 295.288,424.322 Q290.367,424.825 287.655,422.617 Q284.943,420.408 284.44,415.487 Q283.225,403.607 295.621,399.722 Q296.867,399.332 297.992,398.8 Q302.037,395.276 305.651,391.625 Q311.348,383.037 316.183,365.838 Q318.861,356.314 328.385,358.992 Q328.64,359.064 328.886,359.14 Q329.515,358.782 330.09,358.566 Q333.68,357.21 337.209,358.428 Q342.308,360.187 343.732,365.432 Q344.598,368.623 343.434,372.293 Q342.492,375.263 339.907,379.638 Q332.234,392.624 320.91,404.323 Q319.559,406.214 318.149,407.838 Q314.252,412.327 309.196,415.259 Z"/>
  <path fill="rgb(5.490196%, 0%, 8.627451%)" d="M194.747,243.728 Q203.175,254.731 217.862,265.515 Q218.027,265.637 218.197,265.761 Q218.321,264.85 218.976,263.822 Q220.272,261.788 222.669,262.059 Q230.062,262.895 235.795,269.349 Q236.551,270.199 237.416,271.357 Q246.478,277.752 248.889,280.958 Q250.997,283.761 249.785,286.29 Q249.131,287.654 247.946,288.276 Q252.801,295.642 256.715,298.362 Q258.778,299.795 261.177,300.638 Q261.24,300.629 261.268,300.624 Q268.308,297.093 277.461,290.964 Q301.416,274.922 329.537,246.877 Q332.273,244.149 335.002,246.885 Q337.73,249.621 334.994,252.349 Q306.341,280.925 281.761,297.385 Q280.075,298.514 278.451,299.562 Q280.125,299.569 281.865,299.61 Q284.63,299.675 285.46,302.314 Q286.618,306 282.932,307.159 Q271.063,310.89 261.9,308.882 Q257.264,311.007 253.45,312.05 Q251.372,312.618 249.976,312.671 Q248.847,312.714 247.958,312.418 Q245.05,311.452 245.099,308.468 Q245.15,305.257 250.419,303.24 Q244.534,298.174 237.78,286.482 Q237.388,286.307 236.98,286.119 Q225.922,281.022 213.287,271.744 Q197.712,260.306 188.612,248.428 Q186.263,245.361 189.33,243.011 Q190.864,241.836 192.218,242.015 Q193.572,242.195 194.747,243.728 Z"/>
  <path fill="rgb(30.588235%, 46.27451%, 54.901961%)" opacity="0.247" d="M89.599,49.046 Q60.561,48.277 28.529,48.069 Q10.376,47.952 7.356,47.259 Q0.476,45.682 -1.088,39.277 Q-2.806,32.243 3.431,27.847 Q4.876,26.828 8.939,24.959 Q11.148,23.942 12.392,23.339 Q17.01,21.099 20.439,22.289 Q23.649,23.402 25.817,27.521 Q27.173,27.532 28.662,27.541 Q60.899,27.75 90.143,28.525 Q100.403,28.796 100.132,39.057 Q99.996,44.187 97.363,46.684 Q94.73,49.182 89.599,49.046 Z"/>
  <path fill="rgb(81.568627%, 54.509804%, 98.823529%)" opacity="0.119" d="M74.489,103.709 Q70.404,106.75 65.179,110.183 Q59.953,113.616 53.83,112.348 Q47.707,111.081 44.274,105.855 Q37.915,96.175 45.618,87.527 Q46.999,85.976 48.457,84.499 Q42.439,80.576 38.841,77.379 Q23.748,63.971 33.649,50.941 Q37.293,46.146 43.237,45.176 Q49.182,44.206 54.161,47.595 Q58.403,50.482 69.018,54.507 Q77.271,57.637 80.785,59.678 Q83.027,60.98 84.836,62.468 Q96.592,58.528 106.578,58.552 Q117.288,58.577 122.836,64.61 Q130.314,72.742 125.47,82.777 Q123.4,87.064 118.9,90.309 Q109.547,97.053 81.943,103.752 Q78.066,104.693 74.489,103.709 Z"/>
  <path fill="rgb(91.372549%, 99.607843%, 98.431373%)" opacity="0.019" d="M91.597,112.872 Q77.742,103.536 77.069,93.332 Q76.41,83.33 88.343,73.442 Q94.221,67.792 100.435,73.007 Q102.989,75.15 104.587,79.588 Q106.468,84.809 107.441,93.286 Q108.383,101.503 107.643,104.887 Q107.134,107.211 106.057,108.682 Q110.824,117.084 119.098,115.137 Q122.005,114.454 122.816,112.927 Q123.153,112.293 122.058,110.869 Q117.544,105.001 123.412,100.488 Q126.346,98.231 128.942,98.569 Q131.537,98.908 133.794,101.842 Q140.701,110.822 135.891,119.875 Q131.93,127.329 122.487,129.55 Q113.282,131.715 104.748,127.227 Q96.185,122.724 91.597,112.872 Z M92.445,92.712 Q92.315,91.78 92.173,90.919 Q91.801,91.723 91.843,92.358 Q91.869,92.755 92.023,93.187 Q92.218,92.939 92.445,92.712 Z M97.65,84.958 Q98.111,84.613 98.563,84.156 Q98.291,84.431 97.991,84.677 Q97.818,84.819 97.65,84.958 Z"/>
  <path fill="rgb(5.098039%, 29.411765%, 17.647059%)" opacity="0.336" d="M184.095,397.237 Q178.675,409.615 164.061,418.807 Q153.366,425.535 144.851,416.199 Q135.253,405.676 129.329,404.862 Q123.883,404.114 113.606,409.549 Q110.562,411.607 106.936,413.291 Q101.694,415.726 96.164,414.04 Q90.634,412.355 87.641,407.409 Q84.401,402.053 85.897,395.975 Q87.392,389.897 92.748,386.657 Q95.01,385.288 97.216,384.075 Q98.656,382.903 99.064,381.59 Q99.665,379.655 99.106,374.437 Q98.345,367.323 99.954,363.134 Q103.925,352.797 114.969,352.838 Q119.544,352.855 124.166,355.448 Q129.124,358.23 150.367,376.607 Q154.239,379.957 155.246,384.744 Q155.702,385.091 156.157,385.449 Q156.936,383.914 157.039,382.389 Q157.231,379.573 155.135,375.363 Q154.498,374.084 154.182,373.277 Q152.82,369.802 153.154,366.183 Q154.05,356.444 163.286,353.252 Q168.71,351.377 174.034,353.57 Q176.796,354.708 180.58,358.261 Q186.898,364.194 194.452,370.599 Q199.227,374.647 199.74,380.885 Q200.253,387.124 196.206,391.898 Q192.158,396.672 185.919,397.185 Q184.991,397.262 184.095,397.237 Z"/>
  <path fill="rgb(48.235294%, 90.980392%, 47.45098%)" opacity="0.17" d="M195.793,295.247 Q214.387,293.173 228.336,301.142 Q229.05,301.549 229.537,301.81 Q229.997,299.369 230.648,291.456 Q230.684,291.014 230.722,290.553 Q227.585,289.873 222.961,287.307 Q216.244,283.578 211.96,282.56 Q204.675,280.83 196.63,283.5 Q173.976,291.018 141.855,333.689 Q141.103,334.689 140.226,334.812 Q139.35,334.936 138.35,334.183 Q136.351,332.678 137.856,330.678 Q170.917,286.759 195.053,278.749 Q204.448,275.631 213.117,277.69 Q218.071,278.867 225.391,282.93 Q231.145,286.124 232.964,285.782 Q233.297,285.72 233.635,285.748 Q234.882,285.853 235.453,286.529 Q236.025,287.204 235.92,288.452 Q235.818,289.67 235.637,291.866 Q234.705,303.191 233.718,305.094 Q232.3,307.825 229.351,307.131 Q228.295,306.883 225.853,305.488 Q213.321,298.329 196.348,300.222 Q193.86,300.499 193.583,298.012 Q193.305,295.524 195.793,295.247 Z"/>
  <path fill="rgb(100%, 100%, 63.921569%)" opacity="0.17" d="M71.463,213.989 Q14.152,220.556 -0.895,188.194 Q-2.311,185.15 -1.497,182.921 Q-0.682,180.692 2.361,179.276 Q2.555,179.186 2.754,179.109 Q19.936,172.413 46.578,167.425 Q46.744,167.394 46.905,167.364 Q45.389,166.261 43.873,164.974 Q39.49,161.251 36.327,160.575 Q29.942,159.211 16.576,162.583 Q10.067,164.225 8.425,157.716 Q7.604,154.462 8.82,152.424 Q10.037,150.387 13.291,149.565 Q29.69,145.428 39.133,147.447 Q45.603,148.829 52.563,154.74 Q57.64,159.052 62.046,160.145 Q63.31,160.458 64.365,161.222 Q69.045,164.608 69.192,168.94 Q69.378,174.413 63.524,177.086 Q60.456,178.486 49.049,180.622 Q29.372,184.306 15.33,188.879 Q29.304,205.306 69.935,200.651 Q76.604,199.887 77.368,206.556 Q77.75,209.891 76.274,211.749 Q74.798,213.607 71.463,213.989 Z"/>
  <path fill="rgb(65.490196%, 100%, 100%)" opacity="0.142" d="M-9.923,93.167 Q3.173,89.682 10.791,98.155 Q14.862,102.683 18.498,113.875 Q19.928,118.278 20.618,119.575 Q20.735,119.795 20.833,119.956 Q23.148,118.515 29.777,106.801 Q19.56,78.316 3.95,61.109 Q-2.46,54.044 -0.701,49.586 Q0.595,46.3 12.235,36.066 Q24.692,25.113 34.133,16.195 Q36.544,13.918 38.821,16.329 Q39.959,17.534 39.926,18.706 Q39.892,19.878 38.687,21.016 Q29.16,30.015 16.614,41.046 Q6.177,50.223 5.468,52.019 Q5.223,52.642 8.861,56.653 Q25.758,75.278 36.535,106.016 Q37.03,107.427 36.3,108.732 Q26.562,126.143 21.057,126.746 Q15.891,127.312 12.191,115.924 Q8.99,106.07 5.86,102.589 Q0.955,97.135 -8.218,99.575 Q-9.82,100.002 -10.834,99.414 Q-11.848,98.826 -12.275,97.224 Q-13.127,94.019 -9.923,93.167 Z"/>
  <path fill="rgb(32.156863%, 12.941176%, 0%)" d="M287.514,297.246 Q283.291,292.799 275.899,290.766 Q269.25,288.938 267.334,291.564 Q263.964,296.184 269.871,311.81 Q270.796,314.257 270.035,315.944 Q269.274,317.63 266.827,318.555 Q261.932,320.405 260.082,315.51 Q252.173,294.589 258.88,285.396 Q265.056,276.931 278.673,280.675 Q289.189,283.567 295.478,290.442 Q299.473,294.811 299.081,299.137 Q298.547,305.037 291.537,306.891 Q286.478,308.229 285.14,303.17 Q283.999,298.854 287.514,297.246 Z"/>
</svg>

