<svg xmlns="http://www.w3.org/2000/svg" width="384" height="384" viewBox="0 0 384 384">
  <defs/>
  <path fill="rgb(100%, 0%, 40.392157%)" opacity="0.521" d="M240.936,124.332 Q245.589,127.629 250.757,124.436 Q255.986,121.204 261.283,112.201 Q271.666,94.557 275.401,71.694 Q277.033,61.701 275.996,56.384 Q275.552,54.108 274.738,53.329 Q274.273,52.883 273.348,53.152 Q263.722,55.952 240.339,99.808 Q239.804,100.812 239.035,101.046 Q238.265,101.28 237.262,100.745 Q236.333,100.25 236.109,99.222 Q226.488,54.984 216.252,32.939 Q206.078,11.029 192.798,5.486 Q180.339,0.287 160.817,8.016 Q144.393,14.518 114.05,34.372 Q113.098,34.995 112.311,34.83 Q111.524,34.666 110.901,33.714 Q109.656,31.811 111.559,30.565 Q142.289,10.459 159.142,3.786 Q180.384,-4.624 194.55,1.288 Q209.461,7.511 220.378,31.024 Q230.117,51.998 239.231,92.285 Q261.308,51.917 272.078,48.784 Q275.524,47.781 277.885,50.044 Q279.74,51.821 280.461,55.512 Q281.654,61.63 279.89,72.428 Q276.018,96.131 265.204,114.509 Q259.335,124.482 253.149,128.305 Q245.418,133.083 238.306,128.043 Q237.378,127.386 237.243,126.593 Q237.108,125.8 237.765,124.872 Q239.081,123.017 240.936,124.332 Z"/>
  <path fill="rgb(93.72549%, 4.705882%, 20.392157%)" opacity="0.407" d="M253.806,157.097 Q263.781,159.806 272.281,160.345 Q275.567,157.03 278.858,153.176 Q291.066,138.88 297.161,124.92 Q302.179,113.426 300.075,109.571 Q299.601,108.944 299.091,108.412 Q298.465,107.759 298.479,107.119 Q298.493,106.479 299.146,105.853 Q300.311,104.738 301.553,105.766 Q302.43,106.492 303.019,107.469 Q307.517,113.524 309.047,126.225 Q310.975,142.227 304.713,153.556 Q304.663,153.888 304.486,154.259 Q304.384,154.474 304.21,154.71 Q303.673,155.444 302.54,156.4 Q299.229,159.196 294.148,161.113 Q285.165,164.504 273.699,164.041 Q263.759,173.794 253.781,178.86 Q236.885,187.438 224.38,179.84 Q223.607,179.37 223.455,178.748 Q223.304,178.126 223.774,177.353 Q224.713,175.806 226.26,176.746 Q237.043,183.298 252.142,175.632 Q260.466,171.406 268.828,163.682 Q261.329,162.891 252.858,160.591 Q251.111,160.116 251.585,158.369 Q252.06,156.623 253.806,157.097 Z M277.185,160.474 Q285.885,160.363 292.87,157.727 Q297.369,156.029 300.205,153.634 Q300.605,153.296 300.876,153.031 Q300.947,152.843 301.061,152.651 Q307.314,142.109 305.453,126.658 Q304.802,121.251 303.626,117.222 Q302.731,121.21 300.478,126.369 Q294.168,140.822 281.61,155.527 Q279.399,158.117 277.185,160.474 Z"/>
  <path fill="rgb(85.490196%, 0%, 23.137255%)" opacity="0.58" d="M-3.302,185.11 Q2.925,137.762 30.973,93.408 Q65.815,38.31 130.23,-4.396 Q131.176,-5.024 131.963,-4.864 Q132.749,-4.705 133.377,-3.759 Q134.631,-1.866 132.739,-0.612 Q69.134,41.558 34.811,95.835 Q7.297,139.345 1.2,185.702 Q1.052,186.828 0.416,187.317 Q-0.221,187.805 -1.347,187.657 Q-3.598,187.361 -3.302,185.11 Z"/>
  <path fill="rgb(60.784314%, 66.666667%, 59.607843%)" opacity="0.201" d="M125.458,189.465 Q145.504,199.693 163.762,218.86 Q174.764,230.412 182.598,234.533 Q192.05,239.506 207.662,242.148 Q207.638,242.102 207.613,242.057 Q204.468,236.43 188.949,233.156 Q184.68,232.255 182.995,229.67 Q181.311,227.085 182.212,222.816 Q184.013,214.277 192.551,216.079 Q215.834,220.99 222.849,233.544 Q225.72,238.682 225.657,245.275 Q229.371,247.568 228.816,253.387 Q228.387,257.886 224.465,260.132 Q215.955,265.004 210.682,260.874 Q210.236,260.525 209.847,260.138 Q187.916,257.052 174.471,249.979 Q164.103,244.524 151.124,230.898 Q134.92,213.886 117.526,205.012 Q109.753,201.046 113.719,193.272 Q117.685,185.499 125.458,189.465 Z"/>
  <path fill="rgb(54.901961%, 7.058824%, 7.058824%)" opacity="0.534" d="M171.282,236.15 Q191.745,211.276 192.542,180.514 Q193.274,152.255 177.766,126.049 Q176.774,124.372 175.74,122.744 Q164.692,114.127 154.649,108.152 Q117.793,86.225 74.683,82.578 Q67.199,81.944 67.833,74.461 Q68.149,70.719 70.178,69.006 Q71.772,67.661 74.421,67.568 Q74.563,67.379 74.717,67.191 Q76.115,65.475 77.398,63.603 Q79.294,60.835 82.621,60.4 Q93.642,58.961 104.422,60.003 Q110.013,60.127 116.217,61.009 Q160.282,67.27 223.201,110.886 Q225.844,112.719 226.342,115.897 Q228.837,131.829 229.312,139.036 Q230.015,149.709 226.371,153.743 Q220.402,160.352 210.974,153.433 Q208.628,151.711 203.09,146.595 Q208.012,163.365 207.558,180.903 Q206.627,216.829 182.882,245.693 Q178.111,251.493 172.311,246.722 Q169.411,244.336 169.153,241.693 Q168.896,239.051 171.282,236.15 Z M186.991,112.488 Q198.25,121.432 210.381,132.854 Q212.373,134.73 213.986,136.214 Q213.394,130.612 211.994,121.405 Q193.828,108.964 177.471,99.854 Q182.555,105.79 186.991,112.488 Z"/>
  <path fill="rgb(47.45098%, 5.490196%, 5.098039%)" opacity="0.673" d="M200.364,289.769 Q197.366,288.934 192.685,287.589 Q184.111,285.126 182.757,285.166 Q182.495,285.173 181.521,286.766 Q181.484,286.825 181.447,286.887 Q182.127,287.167 182.627,287.812 Q183.748,289.258 182.92,290.954 Q182.575,291.659 181.69,292.476 Q180.451,293.62 177.679,295.556 Q171.484,299.881 160.322,306.383 Q160.009,306.582 159.694,306.781 Q159.358,306.992 159.04,307.127 Q158.773,307.282 158.515,307.431 Q156.061,308.848 154.644,306.394 Q153.226,303.94 155.68,302.522 Q156.2,302.222 156.711,301.925 Q164.832,295.286 170.345,291.536 Q174.324,287.667 176.686,283.807 Q179.262,279.598 182.591,279.5 Q184.828,279.434 194.25,282.141 Q198.912,283.481 201.886,284.309 Q203.251,284.689 203.743,285.562 Q204.235,286.435 203.855,287.8 Q203.094,290.53 200.364,289.769 Z"/>
  <path fill="rgb(85.098039%, 84.705882%, 96.470588%)" opacity="0.011" d="M1.506,38.256 Q7.692,35.814 17.702,32.884 Q17.906,31.506 18.241,30.053 Q20.241,21.366 25.371,17.508 Q31.813,12.662 39.523,18.33 Q43.703,21.012 44.503,23.421 Q45.495,26.41 42.296,28.659 Q39.355,30.726 26.065,34.359 Q23.487,35.063 21.111,35.742 Q20.873,39.822 22.12,42.916 Q23.888,47.305 28.294,45.94 Q30.057,45.394 30.603,47.157 Q30.876,48.039 30.572,48.616 Q30.268,49.193 29.386,49.466 Q21.734,51.836 18.696,44.296 Q17.349,40.954 17.383,36.827 Q8.476,39.473 2.861,41.689 Q1.145,42.367 0.467,40.65 Q0.128,39.792 0.388,39.193 Q0.647,38.595 1.506,38.256 Z M21.649,31.752 Q23.324,31.281 25.092,30.798 Q37.76,27.335 40.174,25.639 Q41.127,24.968 40.999,24.584 Q40.607,23.403 37.483,21.407 Q37.43,21.373 37.379,21.336 Q31.853,17.251 27.59,20.458 Q23.536,23.507 21.838,30.881 Q21.737,31.321 21.649,31.752 Z"/>
  <path fill="rgb(0%, 64.313725%, 20.392157%)" d="M329.299,265.343 Q325.815,265.381 323.388,265.569 Q324.1,269.004 324.371,271.387 Q324.949,276.457 322.703,279.282 Q320.457,282.106 315.387,282.684 Q312.363,283.029 309.644,281.661 Q280.915,267.211 264.421,276.407 Q259.594,279.099 258.001,282.711 Q257.897,282.946 257.825,283.135 Q262.789,289.989 255.866,296.154 Q248.244,302.941 241.456,295.319 Q233.882,286.814 239.323,274.475 Q243.676,264.601 254.48,258.578 Q274.852,247.22 302.901,256.688 Q303.908,252.923 306.618,250.403 Q312.307,245.114 329.076,244.931 Q339.282,244.819 339.394,255.025 Q339.505,265.231 329.299,265.343 Z"/>
  <path fill="rgb(97.647059%, 28.235294%, 0%)" d="M337.872,274.846 Q337.3,277.483 336.434,280.471 Q330.508,300.942 316.256,319.764 Q271.158,379.326 171.293,386.213 Q169.772,386.318 168.416,385.619 Q165.992,384.368 165.405,382.53 Q164.818,380.692 166.069,378.268 Q199.329,313.801 247.168,287.933 Q264.891,278.349 285.334,273.739 Q296.991,271.111 315.932,269.235 Q323.561,268.479 327.771,267.799 Q326.292,265.491 328.198,262.359 Q330.34,258.84 334.182,259.549 Q337.808,260.219 338.722,264.007 Q339.104,265.591 338.894,268.252 Q338.716,270.514 338.214,273.167 Q338.191,274.093 337.872,274.846 Z M325.439,279.148 Q321.811,279.619 317.008,280.094 Q298.736,281.904 287.735,284.385 Q268.759,288.664 252.359,297.532 Q210.759,320.027 180.469,374.493 Q267.689,365.828 307.556,313.176 Q319.984,296.762 325.439,279.148 Z"/>
  <path fill="rgb(0%, 49.411765%, 40%)" opacity="0.954" d="M274.246,198.947 Q296.928,202.551 305.065,216.629 Q308.947,223.346 308.396,230.793 Q307.864,237.972 303.466,243.418 Q298.682,249.341 291.452,250.692 Q283.746,252.132 276.523,247.695 Q263.449,239.663 257.291,214.73 Q254.876,204.951 264.208,202.266 Q267.211,197.83 274.246,198.947 Z M281.976,222.781 Q284.495,228.039 287.452,229.867 Q287.937,228.781 286.961,227.093 Q285.504,224.572 281.976,222.781 Z"/>
  <path fill="rgb(100%, 80.784314%, 17.647059%)" d="M255.103,205.114 Q276.262,205.838 284.741,219.535 Q286.434,222.27 287.661,225.924 Q288.354,225.38 289.234,225.653 Q292.157,226.559 293.11,229.839 Q297.282,235.384 299.346,241.786 Q301.486,248.422 300.849,253.492 Q300.538,255.963 299.49,256.859 Q298.173,257.984 296.791,256.953 Q296.109,256.444 295.69,255.341 Q294.697,252.719 294.725,246.591 Q292.653,248.926 291.179,249.52 Q288.941,262.902 291.47,266.642 Q296.201,273.639 319.348,263.183 Q320.947,262.461 321.669,264.059 Q322.391,265.658 320.792,266.38 Q294.951,278.052 288.565,268.607 Q285.117,263.508 287.995,247.368 Q287.313,245.413 287.034,241.832 Q285.971,228.186 281.759,221.381 Q274.267,209.279 254.983,208.62 Q254.107,208.59 253.684,208.137 Q253.26,207.684 253.29,206.807 Q253.35,205.055 255.103,205.114 Z M293.359,236.684 Q293.008,239.755 292.082,244.629 Q293.168,243.159 295.104,240.375 Q294.339,238.488 293.359,236.684 Z M288.845,230.115 Q289.4,232.474 289.805,235.131 Q289.932,232.524 289.584,231.014 Q289.223,230.562 288.845,230.115 Z"/>
  <path fill="rgb(70.980392%, 5.490196%, 5.490196%)" opacity="0.638" d="M-3.819,275.867 Q24.315,283.333 21.863,298.4 Q20.58,306.29 8.266,317.714 Q8.023,317.939 7.798,318.149 Q20.617,327.378 44.488,324.853 Q49.848,324.285 51.096,325.186 Q52.804,326.418 52.109,328.432 Q51.842,329.205 51.095,329.968 Q50.389,330.689 48.784,331.858 Q44.04,342.99 31.048,356.819 Q23.299,365.067 6.261,380.273 Q-15.999,400.141 -17.819,405.865 Q-18.591,408.292 -21.018,407.521 Q-22.231,407.135 -22.645,406.335 Q-23.059,405.536 -22.673,404.322 Q-20.43,397.269 2.869,376.474 Q37.028,345.986 44.028,330.018 Q18.984,332.442 4.875,322.32 Q3.749,322.511 3.048,322.404 Q1.317,322.14 0.731,320.604 Q0.267,319.387 0.932,318.116 Q1.484,317.058 4.802,313.98 Q15.834,303.746 16.836,297.582 Q18.546,287.071 -5.126,280.789 Q-7.587,280.136 -6.934,277.675 Q-6.607,276.444 -5.829,275.992 Q-5.05,275.54 -3.819,275.867 Z"/>
</svg>

