<svg xmlns="http://www.w3.org/2000/svg" width="384" height="384" viewBox="0 0 384 384">
  <defs/>
  <path fill="rgb(56.078431%, 67.058824%, 100%)" opacity="0.795" d="M-28.663,256.257 Q-17.513,235.703 2.448,222.39 Q15.818,213.472 56.591,194.714 Q79.931,183.976 93.922,177.259 Q94.695,176.888 95.267,177.089 Q95.839,177.29 96.21,178.063 Q96.951,179.608 95.406,180.35 Q81.39,187.079 58.024,197.829 Q17.497,216.474 4.351,225.242 Q-14.904,238.084 -25.649,257.892 Q-26.058,258.645 -26.639,258.817 Q-27.22,258.99 -27.974,258.581 Q-29.481,257.764 -28.663,256.257 Z"/>
  <path fill="rgb(0%, 45.490196%, 100%)" opacity="0.32" d="M241.062,239.4 Q244.223,267.504 236.844,300.035 Q234.055,312.328 234.743,315.096 Q235.425,317.838 242.984,321.072 Q254.322,325.922 284.894,332.315 Q305.815,336.689 371.554,348.729 Q376.115,349.565 378.369,349.977 Q380.802,349.837 384.475,349.826 Q384.814,349.825 385.129,349.822 Q383.181,341.759 391.826,338.539 Q401.51,334.931 405.118,344.615 Q410.94,360.245 400.608,367.209 Q395.787,370.458 384.541,370.494 Q380.528,370.507 378.737,370.67 Q377.327,370.799 375.935,370.544 Q373.359,370.072 367.831,369.06 Q301.838,356.973 280.663,352.546 Q248.081,345.733 234.854,340.074 Q217.847,332.798 214.686,320.084 Q212.811,312.548 216.687,295.463 Q223.294,266.34 220.523,241.71 Q219.368,231.44 229.638,230.285 Q239.907,229.13 241.062,239.4 Z"/>
  <path fill="rgb(0.784314%, 8.627451%, 24.705882%)" opacity="0.905" d="M180.686,360.12 Q175.8,344.666 177.844,336.744 Q178.065,335.888 178.373,335.075 Q174.307,334.452 172.434,332.09 Q170.417,329.546 170.945,324.985 Q173.818,300.127 179.594,285.734 Q179.315,283.997 179.73,282.219 Q184.475,261.916 196.635,260.149 Q207.708,258.54 216.112,272.273 Q221.992,281.883 223.932,293.843 Q226.309,308.501 220.442,316.795 Q215.139,324.292 207.642,318.989 Q207.531,318.91 207.424,318.83 Q207.699,321.891 207.554,324.338 Q206.859,336.104 196.22,341.638 Q195.798,341.857 195.519,342.005 Q195.244,345.244 198.197,354.583 Q200.965,363.339 192.21,366.107 Q183.454,368.875 180.686,360.12 Z"/>
  <path fill="rgb(87.058824%, 100%, 60.784314%)" opacity="0.095" d="M196.24,125.056 Q200.732,117.086 203.091,114.263 Q207.117,109.447 211.224,111.043 Q215.299,112.628 223.911,132.173 Q226.095,137.131 227.831,141.001 Q232.885,133.711 241.449,128.979 Q250.568,123.942 260.5,123.157 Q271.886,122.258 272.665,127.777 Q273.439,133.253 259.148,137.419 Q256.202,138.278 255.343,135.332 Q254.913,133.858 255.435,132.907 Q255.957,131.956 257.43,131.526 Q261.513,130.336 264.007,129.195 Q262.661,129.144 260.983,129.276 Q252.374,129.956 244.418,134.352 Q234.604,139.774 230.284,149.015 Q229.807,150.034 228.784,150.504 Q227.389,151.144 226.372,150.767 Q225.355,150.39 224.715,148.995 Q222.217,143.553 218.294,134.648 Q210.707,117.428 208.999,116.764 Q208.145,116.432 201.588,128.069 Q200.081,130.743 197.408,129.236 Q194.734,127.73 196.24,125.056 Z"/>
  <path fill="rgb(0%, 56.470588%, 98.431373%)" opacity="0.629" d="M171.335,8.881 Q227.303,15.795 245.862,22.64 Q255.268,26.109 255.391,30.157 Q255.513,34.167 247.033,37.017 Q216.064,47.425 114.377,47.074 Q114.294,47.073 114.212,47.065 Q90.503,44.689 72.262,38.347 Q71.666,38.478 71.119,38.199 Q70.097,37.677 69.222,37.249 Q66.143,36.083 65.505,35.547 Q65.265,35.344 65.111,35.075 Q64.293,33.646 65.685,32.768 Q66.284,32.39 66.996,32.545 Q67.174,32.583 67.431,32.678 Q67.813,32.819 68.478,33.114 Q69.444,33.542 70.681,34.146 Q71.46,34.43 72.441,34.777 Q102.992,27.374 114.728,23.112 Q121.34,20.711 122.989,19.099 L123.262,19.179 Q123.197,19.02 122.147,18.604 Q108.673,13.27 -11.524,16.819 Q-13.237,16.87 -13.288,15.156 Q-13.313,14.299 -12.897,13.858 Q-12.482,13.417 -11.625,13.392 Q109.278,9.822 123.409,15.416 Q125.818,16.37 126.436,17.882 Q127.207,19.769 125.386,21.55 Q123.207,23.681 115.899,26.335 Q105.05,30.274 78.596,36.802 Q94.54,41.641 114.472,43.645 Q215.522,43.99 245.941,33.767 Q252.009,31.727 251.964,30.261 Q251.911,28.525 244.676,25.856 Q226.489,19.149 170.915,12.283 Q169.213,12.073 169.424,10.372 Q169.529,9.521 170.007,9.148 Q170.485,8.776 171.335,8.881 Z"/>
  <path fill="rgb(0%, 29.803922%, 84.705882%)" opacity="0.803" d="M229.265,457.605 Q217.396,454.76 203.619,441.164 Q189.698,427.426 183.245,411.793 Q175.046,391.929 182.935,377.079 Q192.027,359.963 220.521,354.878 Q228.26,353.498 229.641,361.236 Q230.332,365.106 228.742,367.386 Q227.153,369.665 223.283,370.356 Q202.322,374.096 196.819,384.455 Q192.402,392.77 197.778,405.795 Q203.013,418.477 214.662,429.973 Q225.321,440.492 232.93,442.317 Q240.575,444.149 238.742,451.794 Q237.826,455.616 235.456,457.069 Q233.087,458.522 229.265,457.605 Z"/>
  <path fill="rgb(0.392157%, 17.647059%, 100%)" opacity="0.478" d="M4.222,233.074 Q3.6,234.165 8.386,238.08 Q15.453,243.859 33.213,252.421 Q56.725,263.757 139.405,296.757 Q158.519,304.385 168.72,308.473 Q173.255,310.29 171.437,314.825 Q170.529,317.093 168.941,317.772 Q167.353,318.451 165.085,317.543 Q154.878,313.453 135.783,305.832 Q52.787,272.706 28.969,261.223 Q10.165,252.157 2.2,245.643 Q-8.976,236.503 -4.269,228.238 Q-3.06,226.116 -1.394,225.659 Q0.272,225.202 2.395,226.411 Q6.64,228.829 4.222,233.074 Z"/>
  <path fill="rgb(78.823529%, 65.098039%, 0%)" d="M327.439,331.801 Q327.666,330.857 328.21,330.083 Q329.545,328.18 331.861,328.011 Q334.458,327.82 336.069,329.87 Q336.885,330.91 337.097,332.315 Q337.169,332.796 337.219,333.675 Q337.297,335.05 337.358,337.775 Q337.486,343.488 337.492,351.962 Q337.508,373.947 336.773,387.373 Q336.311,395.809 335.551,399.053 Q334.161,404.991 329.286,404.267 Q325.679,403.732 324.318,398.754 Q323.18,394.595 321.805,382.724 Q320.562,384.613 317.475,384.439 Q312.598,384.164 312.873,379.288 Q313.75,363.736 314.016,346.052 Q314.176,335.396 315.907,333.591 Q316.661,332.805 317.496,332.4 Q317.449,331.696 317.401,331.008 Q316.936,325.933 316.865,324.124 Q316.858,323.948 316.86,323.794 Q316.869,323.291 316.978,322.805 Q317.973,318.343 322.491,319.04 Q325.368,319.485 326.347,322.228 Q326.543,322.777 326.615,323.438 Q326.644,323.695 326.691,324.246 Q326.801,325.514 326.955,327.627 Q327.051,328.934 327.147,330.339 Q327.232,331.259 327.332,332.307 Q327.377,332.059 327.439,331.801 Z"/>
  <path fill="rgb(48.627451%, 56.470588%, 89.411765%)" opacity="0.603" d="M267.418,73.584 Q230.947,79.917 219.283,86.048 Q213.846,88.906 213.749,91.468 Q213.65,94.09 219.02,97.562 Q241.53,112.113 376.519,140.306 Q377.358,140.482 377.689,140.989 Q378.021,141.496 377.846,142.335 Q377.496,144.013 375.818,143.662 Q240.205,115.339 217.159,100.441 Q210.15,95.911 210.323,91.339 Q210.494,86.795 217.687,83.013 Q229.829,76.631 266.832,70.206 Q268.521,69.912 268.814,71.601 Q268.961,72.446 268.612,72.941 Q268.263,73.437 267.418,73.584 Z"/>
  <path fill="rgb(100%, 100%, 83.137255%)" opacity="0.068" d="M90.622,155.441 Q76.892,151.882 58.546,146.148 Q38.128,139.765 28.128,139.068 Q22.209,138.655 13.796,139.295 Q1.831,140.843 -8.43,142.266 Q-8.219,152.173 -10.545,158.249 Q-13.524,166.033 -19.897,165.955 Q-32.66,165.8 -52.515,130.524 Q-52.798,130.022 -52.801,129.446 Q-52.813,127.223 -50.59,127.211 Q-25.091,127.072 12.936,126.78 Q66.336,126.37 70.701,126.878 Q72.063,127.036 72.702,127.496 Q73.504,128.073 73.65,129.03 Q73.816,130.124 73.053,130.945 Q72.628,131.403 71.917,131.666 Q70.894,132.044 67.507,132.555 Q63.355,133.183 47.057,135.15 Q42.764,135.668 38.634,136.173 Q47.407,138.008 59.872,141.905 Q78.114,147.607 91.737,151.138 Q93.889,151.695 93.331,153.847 Q92.774,155.998 90.622,155.441 Z M13.266,134.881 Q27.418,133.051 43.944,131.048 Q31.411,131.083 12.97,131.225 Q-22.28,131.496 -46.762,131.635 Q-29.522,161.393 -19.843,161.51 Q-16.568,161.55 -14.696,156.66 Q-12.739,151.546 -12.865,142.887 Q-13.573,142.987 -14.281,143.087 Q-16.408,143.39 -16.782,141.274 Q-17.169,139.085 -14.981,138.698 Q1.446,135.795 13.266,134.881 Z"/>
  <path fill="rgb(32.941176%, 81.568627%, 99.607843%)" opacity="0.164" d="M392.287,143.452 Q392.305,143.805 392.424,144.448 Q392.837,146.695 395.712,153.868 Q402.946,171.917 401.476,179.852 Q398.721,194.723 373.326,192.332 Q370.771,192.091 371.012,189.537 Q371.132,188.26 371.831,187.681 Q372.53,187.103 373.807,187.223 Q394.53,189.174 396.43,178.917 Q397.629,172.445 390.949,155.777 Q387.883,148.128 387.377,145.376 Q386.863,142.586 387.693,140.856 Q388.904,138.333 392.076,138.325 Q393.359,138.322 394.002,138.962 Q394.645,139.602 394.648,140.884 Q394.654,143.349 392.287,143.452 Z"/>
  <path fill="rgb(16.470588%, 87.058824%, 100%)" opacity="0.303" d="M366.053,105.404 Q365.665,105.148 363.524,108.244 Q360.913,112.02 359.088,112.831 Q355.757,114.311 352.672,110.344 Q340.051,110.733 336.187,107.047 Q333.91,104.875 334.951,102.024 Q335.774,99.767 338.656,97.814 Q344.565,93.806 354.297,93.255 Q365.688,92.61 376.537,97.541 Q378.098,98.25 377.389,99.811 Q377.034,100.591 376.467,100.804 Q375.899,101.017 375.119,100.662 Q365.039,96.081 354.49,96.678 Q345.705,97.176 340.58,100.651 Q338.615,101.983 338.171,103.199 Q337.9,103.943 338.553,104.566 Q341.502,107.38 353.449,106.885 Q354.397,106.846 354.934,107.629 Q356.665,110.155 357.695,109.698 Q358.64,109.278 360.704,106.294 Q364.752,100.441 367.939,102.541 Q368.655,103.013 368.777,103.606 Q368.899,104.2 368.428,104.916 Q367.484,106.347 366.053,105.404 Z"/>
  <path fill="rgb(66.27451%, 69.803922%, 78.431373%)" opacity="0.174" d="M103.399,140.943 Q117.857,132.169 129.184,130.698 Q131.525,128.76 134.501,127.171 Q154.671,116.401 216.756,118.609 Q223.422,118.846 227.969,123.727 Q230.45,126.391 231.506,129.586 Q266.601,132.703 319.129,155.809 Q325.235,158.495 327.654,164.712 Q330.072,170.929 327.386,177.035 Q324.7,183.141 318.483,185.56 Q312.266,187.978 306.16,185.292 Q265.181,167.266 235.673,162.877 Q220.487,160.618 211.496,162.098 Q207.787,164.604 204.246,165.841 Q196.529,168.538 189.927,164.946 Q184.82,162.168 182.621,156.801 Q181.367,153.741 181.385,150.577 Q172.787,150.873 166.269,151.605 Q168.999,153.413 170.832,156.242 Q174.459,161.84 173.066,168.364 Q171.673,174.887 166.074,178.515 Q150.659,188.505 138.836,178.758 Q134.615,175.279 131.654,168.03 Q129.478,166.195 127.767,164.336 Q124.466,165.835 120.109,168.479 Q114.406,171.94 107.926,170.354 Q101.447,168.769 97.986,163.066 Q94.525,157.363 96.111,150.883 Q97.696,144.404 103.399,140.943 Z"/>
  <path fill="rgb(0%, 38.431373%, 100%)" opacity="0.453" d="M409.772,222.798 Q397.936,217.862 373.023,213.284 Q360.187,210.926 359.1,209.244 Q357.853,207.315 360,205.909 Q360.861,205.345 362.704,204.816 Q365.952,203.885 373.701,202.631 Q374.614,202.483 375.144,202.865 Q375.675,203.248 375.823,204.161 Q376.118,205.988 374.292,206.284 Q368.306,207.252 365.16,208.001 Q368.032,208.605 373.692,209.645 Q398.994,214.294 411.197,219.382 Q412.05,219.738 412.299,220.343 Q412.548,220.948 412.192,221.802 Q411.48,223.51 409.772,222.798 Z"/>
  <path fill="rgb(3.921569%, 47.058824%, 86.27451%)" opacity="0.368" d="M332.85,257.536 Q332.761,256.523 333.936,255.885 Q341.038,252.027 346.872,253.283 Q352.383,254.47 353.313,258.599 Q353.816,260.833 352.308,262.487 Q350.911,264.02 348.234,264.315 Q342.776,264.915 333.605,260.286 Q331.892,259.422 332.757,257.71 Q332.802,257.62 332.85,257.536 Z M338.047,258.152 Q344.238,260.895 347.814,260.502 Q349.052,260.366 349.473,259.903 Q349.635,259.726 349.57,259.441 Q349.179,257.704 346.064,257.033 Q342.507,256.267 338.047,258.152 Z"/>
  <path fill="rgb(0%, 7.058824%, 18.039216%)" d="M223.157,328.079 Q247.08,279.367 239.569,243.815 Q238.542,238.952 236.73,234.094 Q236.414,236.089 236.097,237.97 Q234.37,248.187 232.745,253.864 Q230.007,263.425 224.231,264.691 Q216.954,266.285 214.062,258.805 Q213.303,256.841 212.926,253.733 Q212.33,248.811 212.47,240.023 Q212.511,237.472 212.606,234.734 Q204.892,249.844 202.612,255.592 Q200.828,260.09 200.561,261.684 Q200.929,261.948 201.501,262.341 Q212.355,269.798 216.354,283.812 Q222.469,305.242 218.066,350.942 Q217.292,358.977 209.257,358.202 Q201.223,357.428 201.997,349.394 Q206.107,306.734 200.83,288.242 Q198.425,279.814 192.36,275.647 Q186.024,271.294 184.802,265.986 Q183.45,260.115 187.606,249.64 Q191.963,238.655 213.81,197.678 Q213.625,197.265 213.506,196.901 Q211.476,190.719 216.19,186.596 Q218.103,184.923 221.033,184.197 Q224.525,177.708 228.373,170.61 Q230.9,165.949 236.181,166.417 Q240.201,166.773 242.033,168.961 Q243.865,171.149 243.509,175.169 Q241.976,192.467 240.376,206.59 Q251.728,223.268 255.364,240.478 Q264.027,281.481 237.647,335.195 Q234.089,342.44 226.844,338.882 Q219.599,335.324 223.157,328.079 Z"/>
</svg>

