<svg xmlns="http://www.w3.org/2000/svg" width="384" height="384" viewBox="0 0 384 384">
  <defs/>
  <path fill="rgb(0%, 33.333333%, 67.45098%)" opacity="0.495" d="M343.316,138.27 Q334.695,118.865 321.674,108.274 Q314.164,102.166 300.255,96.379 Q287.687,91.149 284.437,86.157 Q279.41,78.436 283.929,61.446 Q284.15,60.618 284.674,60.314 Q285.198,60.01 286.027,60.23 Q287.683,60.671 287.243,62.327 Q283.116,77.844 287.31,84.286 Q289.982,88.391 301.572,93.213 Q315.941,99.192 323.838,105.615 Q337.495,116.723 346.449,136.878 Q347.146,138.445 345.579,139.141 Q344.796,139.489 344.23,139.271 Q343.664,139.054 343.316,138.27 Z"/>
  <path fill="rgb(40.392157%, 38.823529%, 0%)" opacity="0.537" d="M65.328,124.408 Q101.552,102.439 114.968,84.824 Q122.252,75.26 123.395,64.123 Q123.855,59.649 124.944,57.905 Q125.441,57.109 126.087,56.96 Q126.733,56.81 127.529,57.307 Q128.698,58.037 128.351,59.371 Q127.161,63.941 126.606,70.057 Q125.926,77.544 123.555,82.972 Q119.907,91.323 108.758,106.71 Q107.657,108.229 106.137,107.129 Q104.618,106.028 105.719,104.509 Q111.577,96.424 115.295,90.38 Q100.814,107.275 67.274,127.616 Q66.472,128.102 65.827,127.944 Q65.183,127.787 64.697,126.985 Q63.724,125.38 65.328,124.408 Z"/>
  <path fill="rgb(23.529412%, 15.686275%, 31.764706%)" opacity="0.492" d="M173.386,96.989 Q182.457,158.287 174.542,178.037 Q170.971,186.949 163.44,190.005 Q159.123,191.756 149.829,192.057 Q136.129,192.5 131.237,198.398 Q122.233,209.256 122.357,244.255 Q122.368,247.374 119.249,247.385 Q118.693,247.387 118.171,247.196 Q111.45,244.748 104.677,243.914 Q99.916,243.328 98.819,240.975 Q98.024,239.27 99.068,233.933 Q107.841,189.06 96.45,84.862 Q96.111,81.762 99.212,81.423 Q100.762,81.253 101.622,81.944 Q102.482,82.634 102.651,84.185 Q114.145,189.326 105.19,235.13 Q104.867,236.782 104.727,237.632 Q105.041,237.674 105.439,237.723 Q110.813,238.385 116.141,239.961 Q116.604,206.271 126.435,194.416 Q130.921,189.008 137.852,187.135 Q141.772,186.076 149.627,185.822 Q157.809,185.558 161.094,184.225 Q166.167,182.166 168.752,175.717 Q176.04,157.532 167.215,97.902 Q166.759,94.817 169.844,94.36 Q172.93,93.903 173.386,96.989 Z"/>
  <path fill="rgb(90.588235%, 90.980392%, 73.72549%)" opacity="0.21" d="M223.664,210.173 Q234.159,210.541 240.906,214.206 Q247.349,217.707 250.623,223.853 Q254.504,231.139 252.715,239.309 Q252.245,241.456 251.379,243.503 Q254.804,244.514 257.86,246.877 Q277.142,261.781 285.418,274.837 Q291.024,283.681 291.357,291.837 Q291.669,299.456 287.698,305.609 Q283.278,312.459 275.345,314.985 Q250.092,323.027 201.746,274.482 Q200.82,273.552 200.035,272.524 Q180.952,275.775 164.44,272.151 Q156.475,270.403 152.079,263.535 Q147.683,256.667 149.431,248.702 Q149.481,248.474 149.536,248.247 Q150.623,243.802 152.557,235.767 Q158.063,212.883 160.422,205.831 Q168.569,181.483 187.43,183.469 Q200.996,184.897 211.35,204.418 Q212.74,207.038 215.011,211.778 Q218.976,210.008 223.664,210.173 Z"/>
  <path fill="rgb(38.039216%, 56.862745%, 5.882353%)" opacity="0.4" d="M69.199,-3.683 Q68.927,11.7 69.44,22.996 Q71.281,19.112 73.481,14.03 Q79.612,-0.127 83.715,-8.156 Q86.341,-13.295 91.832,-15.072 Q97.322,-16.849 102.461,-14.222 Q107.6,-11.596 109.376,-6.106 Q111.153,-0.615 108.527,4.523 Q104.829,11.761 99.051,25.103 Q88.198,50.166 79.451,57.062 Q76.876,59.093 74.093,60.453 Q71.547,64.567 66.643,66.44 Q60.3,68.863 54.882,65.985 Q53.14,66.079 51.331,65.724 Q46.936,64.863 41.328,59.454 Q37.886,56.134 35.093,53.598 Q30.822,49.718 30.545,43.953 Q30.268,38.189 34.148,33.917 Q36.74,31.064 39.581,29.848 Q39.855,28.93 40.257,28.048 Q40.87,26.705 41.679,25.573 Q41.039,12.823 41.34,-4.176 Q41.442,-9.946 45.594,-13.954 Q49.746,-17.962 55.516,-17.86 Q61.286,-17.757 65.294,-13.605 Q69.302,-9.453 69.199,-3.683 Z"/>
  <path fill="rgb(0%, 56.470588%, 33.333333%)" d="M158.054,389.896 Q172.057,400.187 176.819,405.527 Q185.167,414.889 186.9,429.167 Q187.706,435.805 181.067,436.611 Q177.748,437.014 175.887,435.556 Q174.026,434.098 173.623,430.778 Q172.988,425.541 171.192,421.345 Q169.807,421.005 168.352,420.144 Q165.622,418.528 160.967,413.62 Q157.295,409.749 149.77,400.826 Q146.777,404.491 141.368,406.056 Q132.636,408.582 124.234,403.772 Q113.987,397.906 115.785,387.772 Q117.23,379.635 127.558,373.202 Q127.448,369.548 130.512,367.505 Q135.532,364.156 141.459,370.344 Q144.221,373.228 153.569,384.51 Q155.953,387.387 158.054,389.896 Z M135.628,383.928 Q129.433,387.409 128.954,390.109 Q128.8,390.976 130.879,392.165 Q134.363,394.16 137.651,393.208 Q139.886,392.562 140.076,389.571 Q140.087,389.399 140.102,389.233 Q137.497,386.113 135.628,383.928 Z"/>
  <path fill="rgb(2.352941%, 17.647059%, 17.647059%)" opacity="0.973" d="M25.267,-7.615 Q36.173,60.413 49.144,94.305 Q49.657,95.645 50.133,96.984 Q50.989,89.55 51.596,83.48 Q51.843,74.609 52.602,67.281 Q52.73,66.047 52.837,65.532 Q53.138,64.087 54.432,63.969 Q55.956,63.831 56.287,65.362 Q56.325,65.536 56.34,65.763 Q56.412,66.864 56.118,71.09 Q55.747,76.423 55.019,83.706 Q54.632,97.805 55.549,115.883 Q61.479,139.971 62.062,148.489 Q62.996,162.144 55.865,169.233 Q48.591,176.464 29.216,180.47 Q12.517,183.923 -24.74,187.126 Q-26.448,187.273 -26.595,185.565 Q-26.668,184.711 -26.278,184.247 Q-25.888,183.783 -25.034,183.71 Q12.021,180.524 28.521,177.112 Q46.898,173.313 53.448,166.801 Q59.468,160.816 58.641,148.723 Q58.199,142.266 54.491,126.203 Q54.475,126.204 54.457,126.206 Q53.602,126.27 53.143,125.875 Q52.683,125.479 52.619,124.625 Q51.528,110.126 45.942,95.53 Q32.844,61.307 21.882,-7.072 Q21.746,-7.919 22.101,-8.41 Q22.457,-8.901 23.303,-9.036 Q24.996,-9.308 25.267,-7.615 Z"/>
  <path fill="rgb(30.588235%, 13.72549%, 27.058824%)" opacity="0.306" d="M418.859,170.037 Q395.592,157.629 367.708,151.048 Q355.931,148.268 352.023,145.97 Q345.736,142.272 343.717,133.885 Q341.052,122.812 345.189,62.855 Q345.952,51.793 346.366,45.675 Q346.535,43.181 349.028,43.35 Q350.275,43.434 350.856,44.1 Q351.437,44.766 351.353,46.012 Q350.937,52.159 350.176,63.199 Q346.092,122.39 348.577,132.715 Q350.099,139.039 354.557,141.661 Q357.814,143.576 368.856,146.183 Q397.372,152.913 421.211,165.627 Q422.314,166.215 422.571,167.06 Q422.829,167.906 422.241,169.008 Q421.064,171.213 418.859,170.037 Z"/>
  <path fill="rgb(1.960784%, 98.823529%, 0%)" opacity="0.656" d="M344.289,-32.9 Q362.019,0.166 388.159,12.079 Q403.9,19.252 437.269,22.029 Q464.74,24.315 477.276,28.878 Q484.963,31.676 488.42,39.091 Q491.878,46.506 489.079,54.193 Q487.276,59.147 483.245,62.543 Q440.019,98.957 429.542,116.207 Q427.185,120.087 427.071,121.744 Q427.034,122.286 427.871,125.365 Q429.273,130.517 429.71,133.946 Q430.744,142.061 425.736,148.531 Q420.728,155 412.613,156.034 Q404.497,157.068 398.028,152.06 Q391.558,147.053 390.525,138.937 Q390.435,138.236 389.755,135.736 Q387.168,126.227 387.662,119.036 Q388.434,107.793 395.78,95.7 Q404.35,81.591 426.089,60.654 Q391.562,57.04 371.778,48.024 Q333.506,30.583 309.476,-14.233 Q305.61,-21.443 307.975,-29.275 Q310.34,-37.107 317.55,-40.973 Q324.76,-44.839 332.591,-42.474 Q340.423,-40.11 344.289,-32.9 Z"/>
  <path fill="rgb(100%, 65.882353%, 93.333333%)" opacity="0.012" d="M178.487,-3.037 Q192.055,27.281 190.142,33.09 Q189.225,35.877 186.378,36.25 Q184.627,36.48 182.137,35.518 Q179.57,34.528 172.623,30.408 Q154.861,19.874 145.686,19.269 Q130.452,18.264 123.495,38.891 Q123.065,40.166 122.213,40.588 Q121.36,41.011 120.085,40.581 Q117.536,39.721 118.396,37.171 Q126.676,12.622 146.04,13.899 Q156.499,14.589 175.368,25.779 Q181.928,29.669 184.075,30.498 Q184.72,30.747 185.132,30.849 Q185.516,25.844 173.575,-0.838 Q173.026,-2.066 173.365,-2.955 Q173.704,-3.844 174.932,-4.393 Q177.388,-5.493 178.487,-3.037 Z"/>
  <path fill="rgb(40%, 63.921569%, 0%)" d="M55.637,412.872 Q55.829,366.438 67.732,339.44 Q70.519,333.118 69.303,331 Q67.825,328.423 55.077,318.523 Q52.132,316.236 50.244,314.761 Q48.256,315.3 44.881,316.335 Q35.214,319.299 31.092,319.104 Q23.646,318.751 20.947,311.128 Q15.2,294.899 30.719,232.189 Q8.217,209.359 -3.531,212.661 Q-13.464,215.452 -16.073,237.634 Q-20.305,273.612 -6.479,339.197 Q-6.125,340.875 -7.803,341.228 Q-8.641,341.405 -9.149,341.074 Q-9.657,340.743 -9.834,339.904 Q-23.776,273.769 -19.478,237.234 Q-16.601,212.772 -4.459,209.36 Q9.422,205.459 33.84,230.474 Q34.507,231.158 34.277,232.086 Q18.734,294.606 24.179,309.984 Q26.109,315.435 31.254,315.679 Q34.78,315.846 43.876,313.057 Q48.074,311.77 50.205,311.226 Q51.021,311.017 51.685,311.536 Q53.689,313.104 57.18,315.815 Q70.463,326.13 72.277,329.294 Q74.355,332.915 70.869,340.823 Q59.255,367.168 59.066,412.886 Q59.059,414.6 57.344,414.593 Q56.487,414.59 56.061,414.159 Q55.634,413.729 55.637,412.872 Z"/>
  <path fill="rgb(21.960784%, 47.058824%, 0%)" opacity="0.974" d="M338.501,166.457 Q357.042,180.362 370.312,182.684 Q377.504,183.943 385.248,181.269 Q388.925,180 390.541,180.389 Q393.13,181.012 394.618,185.111 Q396.383,189.968 401.167,220.238 Q405.174,245.595 408.207,263.737 Q408.489,265.428 406.798,265.71 Q406.671,265.732 406.542,265.734 Q370.914,266.278 363.002,251.831 Q353.62,234.698 387.24,201.223 Q387.847,200.618 388.453,200.619 Q389.059,200.621 389.664,201.228 Q390.874,202.443 389.659,203.652 Q357.864,235.31 366.009,250.184 Q372.72,262.438 404.495,262.324 Q401.574,244.775 397.78,220.773 Q393.048,190.829 391.396,186.281 Q390.536,183.914 389.738,183.722 Q389.097,183.568 386.367,184.51 Q377.786,187.473 369.721,186.061 Q355.642,183.598 336.444,169.2 Q335.758,168.685 335.673,168.085 Q335.587,167.485 336.101,166.8 Q337.13,165.428 338.501,166.457 Z"/>
  <path fill="rgb(100%, 97.254902%, 92.54902%)" opacity="0.092" d="M137.403,388.954 Q174.239,389.538 181.779,377.58 Q184.841,372.724 184.271,364.23 Q184.005,360.274 182.44,352.431 Q181.982,352.535 181.494,352.635 Q168.628,355.275 118.123,360.704 Q115.634,360.972 115.366,358.483 Q115.275,357.632 115.722,356.904 Q121.712,347.159 146.507,337.244 Q159.663,331.982 164.284,328.834 Q171.157,324.15 171.013,318.284 Q170.951,315.781 173.454,315.72 Q175.957,315.658 176.019,318.161 Q176.23,326.753 167.104,332.972 Q162.031,336.429 148.366,341.893 Q131.286,348.724 123.987,355.032 Q168.68,350.153 180.487,347.729 Q180.975,347.629 181.417,347.532 Q181.218,346.614 181.006,345.656 L180.904,345.196 L180.899,345.174 Q180.893,345.148 180.888,345.121 Q180.411,342.718 182.802,342.188 Q185.014,341.698 185.668,343.652 Q185.939,343.846 186.648,344.248 Q187.857,344.934 188.364,345.38 Q190.426,347.195 189.159,349.369 Q188.684,350.183 187.237,350.893 Q188.972,359.496 189.267,363.894 Q189.947,374.015 186.015,380.251 Q176.973,394.589 137.324,393.961 Q134.82,393.921 134.86,391.417 Q134.9,388.914 137.403,388.954 Z M185.724,343.834 Q185.759,343.958 185.788,344.091 Q185.757,343.94 185.724,343.834 Z"/>
  <path fill="rgb(7.058824%, 36.078431%, 100%)" opacity="0.946" d="M273.561,216.53 Q274.34,212.507 274.769,209.814 Q274.893,206.59 275.724,204.116 Q276.499,201.808 278.066,199.955 Q282.717,194.452 289.824,195.634 Q295.105,196.513 297.97,200.588 Q298.619,187.824 298.386,175.611 Q295.746,176.121 292.804,176.443 Q286.666,177.113 271.603,177.424 Q238.813,178.101 217.039,181.839 Q178.909,188.383 140.814,206.444 Q136.072,208.693 131.13,206.929 Q126.187,205.166 123.939,200.424 Q121.69,195.682 123.454,190.739 Q125.217,185.796 129.959,183.548 Q171.195,163.998 212.752,156.865 Q236.395,152.806 271.08,152.09 Q291.418,151.671 296.854,149.885 Q295.797,139.528 294.039,129.608 Q293.55,126.848 293.42,125.874 Q293.215,124.345 293.245,123.104 Q293.303,120.663 294.195,118.46 Q295.555,115.102 298.466,112.962 Q302.804,109.775 308.114,110.669 Q314.385,111.725 317.945,118.303 Q318.447,119.231 319.863,122.045 Q321.23,124.764 322.116,126.493 Q323.007,128.232 323.333,130.159 Q325.929,145.532 322.815,155.8 Q324.938,183.93 322.421,214.758 Q322.007,219.822 318.209,223.197 Q302.135,237.482 290.049,234.785 Q285.357,233.739 282.104,231.004 Q278.002,229.73 275.502,226.03 Q272.564,221.682 273.561,216.53 Z"/>
  <path fill="rgb(0%, 0%, 1.176471%)" d="M255.306,117.088 Q240.267,106.148 230.098,98.244 Q229.662,118.128 225.696,165.288 Q225.47,167.972 222.786,167.747 Q221.444,167.634 220.829,166.906 Q220.215,166.179 220.328,164.837 Q224.762,112.103 224.782,94.053 Q220.443,90.577 217.287,87.837 Q217.23,87.882 217.171,87.926 Q212.615,91.351 193.417,87.038 Q192.103,86.743 191.594,85.938 Q191.085,85.134 191.38,83.82 Q191.834,81.797 193.906,81.718 Q201.448,81.433 212.363,77.766 Q220.408,75.064 223.477,75.879 Q228.69,77.264 229.835,86.302 Q230.072,88.177 230.132,91.426 Q240.954,99.986 258.475,112.732 Q260.653,114.316 259.069,116.495 Q257.484,118.673 255.306,117.088 Z M224.475,86.861 Q223.783,81.534 222.094,81.086 Q221.169,80.84 218.353,81.571 Q219.334,82.479 220.728,83.691 Q222.424,85.165 224.475,86.861 Z M212.542,83.378 Q211.087,83.846 209.687,84.255 Q211.947,84.344 213.123,83.998 Q212.797,83.663 212.542,83.378 Z"/>
  <path fill="rgb(36.078431%, 31.372549%, 19.215686%)" opacity="0.586" d="M277.797,164.516 Q259.501,85.57 266.948,38.129 Q268.041,31.162 269.717,24.726 Q269.219,25.892 268.379,26.49 Q265.329,28.661 259.704,24.025 Q257.005,21.8 248.58,13.626 Q228.528,-5.828 211.982,-19.903 Q209.78,-21.777 211.653,-23.979 Q212.59,-25.08 213.609,-25.162 Q214.628,-25.244 215.729,-24.308 Q232.419,-10.111 252.607,9.475 Q260.864,17.486 263.383,19.563 Q264.327,20.341 265.019,20.816 Q264.716,17.378 262.222,1.696 Q259.186,-17.394 257.441,-30.823 Q257.347,-31.549 257.61,-32.232 Q259.351,-36.763 264.664,-36.478 Q267.087,-36.348 273.512,-34.364 Q287.79,-29.954 297.823,-30.121 Q298.096,-30.126 298.365,-30.079 Q301.214,-29.585 300.72,-26.736 Q299.757,-21.183 292.497,-10.335 Q285.178,0.599 281.573,8.447 Q275.327,22.04 272.66,39.026 Q265.387,85.358 283.43,163.211 Q284.083,166.027 281.266,166.68 Q279.858,167.006 278.99,166.465 Q278.123,165.924 277.797,164.516 Z M270.27,22.672 Q272.731,13.839 276.318,6.032 Q280.116,-2.234 287.691,-13.552 Q292.187,-20.268 293.962,-24.424 Q284.315,-24.975 271.806,-28.839 Q264.722,-31.027 263.323,-30.445 Q265.036,-17.428 267.933,0.788 Q269.952,13.483 270.307,17.341 Q270.6,20.525 270.27,22.672 Z"/>
  <path fill="rgb(7.843137%, 9.019608%, 0%)" d="M169.507,95.567 Q168.857,95.405 168.201,95.252 Q165.303,94.578 164.243,94.175 Q161.908,93.287 160.584,91.52 Q157.01,86.752 161.12,82.342 Q162.833,80.504 172.026,77.257 Q192.926,69.877 213.904,61.073 Q220.211,58.426 222.857,64.733 Q224.18,67.886 223.265,70.124 Q222.35,72.362 219.197,73.685 Q203.285,80.363 187.412,86.238 Q312.347,96.698 323.771,111.528 Q327.948,116.951 323.915,122.272 Q321.828,125.025 317.244,126.705 Q310.899,129.03 297.619,130.265 Q269.938,132.84 219.932,130.625 Q216.496,130.473 214.569,127.624 Q201.3,108.001 181.149,99.445 Q178.245,99.208 175.285,98.974 Q170.815,98.62 169.507,95.567 Z M210.451,102.062 Q217.77,108.643 223.9,117.105 Q270.53,119.048 296.352,116.646 Q300.033,116.304 303.016,115.896 Q294.372,113.627 278.377,110.82 Q251.114,106.036 210.451,102.062 Z"/>
  <path fill="rgb(52.941176%, 94.509804%, 0%)" d="M400.011,301.307 Q399.207,302.891 398.497,304.329 Q397.827,305.687 397.283,306.407 Q395.818,308.344 393.589,309.305 Q386.922,312.18 382.583,306.36 Q380.774,303.933 380.76,300.906 Q380.754,299.467 381.189,298.087 Q381.282,297.792 381.406,297.471 Q381.456,297.342 381.58,297.034 Q382.779,294.052 383.594,291.4 Q383.014,291.739 382.414,291.972 Q378.388,293.533 374.615,291.451 Q370.792,289.341 370.001,285.038 Q369.63,283.022 370.147,280.975 Q370.381,280.052 370.856,278.953 Q373.905,271.896 380.384,263.208 Q384.5,257.69 388.118,254.932 Q397.105,248.083 404.499,254.335 Q412.862,261.406 407.612,293.525 Q406.39,301.002 400.011,301.307 Z"/>
  <path fill="rgb(15.686275%, 35.686275%, 27.843137%)" opacity="0.36" d="M-18.402,311.258 Q-16.123,310.235 -13.748,309.735 Q-0.191,306.882 6.112,318.936 Q10.013,326.396 6.745,334.162 Q6.249,335.341 5.603,336.422 Q29.529,332.933 40.961,347.396 Q47.859,356.123 46.814,367.789 Q46.02,376.658 40.599,385 Q30.044,401.24 9.964,406.72 Q-12.572,412.869 -36.227,401.249 Q-46.171,396.364 -46.197,385.285 Q-46.307,339.713 -29.612,320.115 Q-28.15,318.399 -26.639,316.955 Q-23.313,312.812 -18.402,311.258 Z M-9.756,367.001 Q-10.029,369.727 -10.206,372.721 Q-4.901,373.636 -0.102,372.483 Q-3.211,371.846 -6.11,370.005 Q-8.191,368.684 -9.756,367.001 Z"/>
  <path fill="rgb(89.411765%, 87.843137%, 100%)" opacity="0.079" d="M251.931,289.294 Q267.209,297.244 272.301,307.284 Q275.183,312.968 274.021,318.107 Q272.612,324.345 266.511,326.825 Q257.179,330.617 243.109,322.438 Q228.697,314.06 213.426,295.091 Q208.881,289.447 214.526,284.902 Q220.171,280.358 224.715,286.002 Q238.302,302.879 250.393,309.908 Q256.219,313.295 259.243,313.587 Q256.15,307.828 245.241,302.151 Q238.813,298.806 242.158,292.378 Q245.503,285.949 251.931,289.294 Z"/>
</svg>

