<svg xmlns="http://www.w3.org/2000/svg" width="384" height="384" viewBox="0 0 384 384">
  <defs/>
  <path fill="rgb(100%, 0%, 48.627451%)" opacity="0.551" d="M366.625,230.913 Q367.236,223.918 366.175,220.824 Q362.306,221.629 353.15,231.438 Q348.823,236.072 344.663,241.313 Q354.222,241.658 357.747,241.958 Q367.061,242.752 370.258,246.091 Q376.531,252.643 368.327,260.807 Q365.975,263.147 357.657,269.707 Q356.885,270.316 356.121,270.924 Q357.443,273.213 356.426,276.811 Q354.419,283.909 347.322,281.902 Q345.599,281.415 343.926,280.923 Q320.251,300.971 301.7,321.869 Q298.345,325.648 293.609,323.885 Q286.697,321.311 289.272,314.399 Q298.856,288.662 309.96,267.917 Q301.118,263.294 295.686,258.317 Q288.645,251.866 287.403,244.879 Q286.078,237.427 291.115,231.684 Q295.09,227.15 301.654,225.462 Q307.917,223.852 313.942,225.502 Q321.052,227.45 325.061,233.219 Q326.919,235.894 327.856,239.075 Q334.863,229.409 342.366,221.371 Q357.613,205.038 368.46,206.079 Q383.476,207.52 381.321,232.197 Q380.679,239.544 373.331,238.903 Q365.983,238.261 366.625,230.913 Z M317.58,254.563 Q316.406,254.061 315.615,253.205 Q313.845,251.29 313.989,247.605 Q313.994,247.472 314.005,247.338 Q314.488,240.947 310.044,239.73 Q304.912,238.324 302.206,241.41 Q300.809,243.003 305.652,247.441 Q309.922,251.353 317.235,255.13 Q317.407,254.846 317.58,254.563 Z M330.877,261.085 Q335.419,262.795 340.623,264.475 Q344.51,261.288 348.522,258.124 Q349.734,257.169 350.796,256.322 Q345.992,256.101 338.078,255.851 Q336.116,255.789 334.282,255.73 Q332.564,258.35 330.877,261.085 Z M323.435,273.992 Q320.845,278.792 318.335,283.888 Q322.844,279.705 327.56,275.56 Q325.442,274.781 323.435,273.992 Z"/>
  <path fill="rgb(8.235294%, 94.509804%, 0%)" d="M158.277,305.069 Q202.362,355.798 204.499,360.047 Q206.897,364.816 202.963,368.113 Q199.294,371.188 195.094,368.478 Q194.142,367.863 192.496,366.343 Q189.864,363.912 184.098,358.015 Q175.404,349.124 158.88,331.634 Q158.892,356.667 153.981,379.801 Q151.017,393.761 147.012,401.82 Q140.99,413.933 132.439,411.916 Q126.219,410.449 127.686,404.228 Q128.944,398.893 133.699,399.213 Q134.534,398.204 135.565,396.13 Q138.85,389.522 141.477,377.146 Q147.679,347.934 145.556,315.357 Q145.386,312.754 147.008,310.857 Q145.759,307.481 149.261,304.438 Q151.673,302.342 153.927,302.499 Q156.181,302.657 158.277,305.069 Z"/>
  <path fill="rgb(4.705882%, 2.352941%, 11.372549%)" opacity="0.852" d="M358.213,260.94 Q349.136,260.153 346.353,258.267 Q339.823,253.841 344.507,245.439 Q346.906,241.136 346.25,236.65 Q344.697,226.026 330.887,209.262 Q326.211,203.586 331.887,198.91 Q334.725,196.572 337.313,196.822 Q339.901,197.072 342.239,199.91 Q358.657,219.84 360.803,234.523 Q361.69,240.59 360.003,246.342 Q366.786,247.187 366.174,254.248 Q365.539,261.575 358.213,260.94 Z"/>
  <path fill="rgb(100%, 11.764706%, 8.235294%)" opacity="0.904" d="M288.622,336.274 Q276.947,333.487 269.334,330.368 Q260.657,336.928 244.508,344.976 Q237.915,348.261 234.63,341.668 Q231.344,335.075 237.937,331.79 Q249.567,325.995 256.371,321.641 Q256.364,321.63 256.357,321.619 Q251.49,314.061 258.306,308.352 Q261.81,305.417 267.109,305.131 Q273.222,304.802 276.878,308.335 Q281.474,312.776 279.445,318.596 Q284.551,320.156 292.042,321.945 Q299.207,323.655 297.497,330.82 Q295.787,337.985 288.622,336.274 Z"/>
  <path fill="rgb(63.529412%, 99.215686%, 100%)" opacity="0.05" d="M347.708,345.832 Q288.205,362.375 281.863,374.368 Q279.003,379.778 286.298,386.362 Q293.595,392.948 312.312,401.872 Q324.741,390.399 337.411,387.684 Q346.197,385.802 369.192,386.956 Q385.334,387.766 396.023,387.868 Q396.637,386.509 397.201,384.844 Q398.259,381.724 400.204,382.244 Q401.158,382.499 403,385.094 Q404.402,387.069 405.462,388.471 Q406.538,389.894 405.115,390.97 Q403.692,392.045 402.616,390.623 Q401.542,389.201 400.139,387.227 Q399.471,389.015 398.73,390.47 Q398.23,391.451 397.13,391.444 Q386.098,391.376 369.013,390.519 Q346.487,389.388 338.159,391.173 Q326.012,393.774 313.872,405.298 Q312.987,406.138 311.883,405.617 Q291.808,396.139 283.908,389.01 Q274.551,380.566 278.71,372.701 Q285.77,359.35 346.753,342.395 Q348.471,341.917 348.949,343.636 Q349.427,345.354 347.708,345.832 Z"/>
  <path fill="rgb(100%, 46.666667%, 78.431373%)" opacity="0.456" d="M97.291,238.898 Q114.373,270.135 128.928,274.836 Q136.992,277.44 157.55,270.973 Q157.987,270.277 158.368,269.638 Q157.848,259.766 165.122,255.143 Q169.808,252.165 175.043,253.696 Q180.817,255.386 182.934,261.067 Q191.258,258.997 201.922,259.453 Q219.686,260.212 235.552,266.856 Q258.927,276.643 254.547,291.656 Q250.473,305.619 218.744,306.431 Q213.971,306.554 210.508,303.265 Q207.046,299.975 206.924,295.202 Q206.802,290.428 210.091,286.965 Q211.889,285.073 214.132,284.178 Q207.73,282.78 200.937,282.49 Q187.338,281.909 182.177,286.423 Q177.245,290.738 172.405,289.529 Q170.714,290.965 168.484,291.681 Q167.667,291.943 166.049,292.465 Q152.155,296.952 145.208,298.103 Q132.477,300.213 121.842,296.778 Q98.548,289.255 77.061,249.961 Q74.769,245.771 76.112,241.188 Q77.454,236.606 81.644,234.314 Q85.834,232.023 90.417,233.366 Q95,234.708 97.291,238.898 Z"/>
  <path fill="rgb(94.509804%, 100%, 100%)" opacity="0.029" d="M130.82,352.393 Q132.813,351.84 134.442,351.411 Q136.461,350.88 138.361,351.748 Q143.679,354.179 141.248,359.498 Q134.482,374.301 133.457,382.327 Q133.875,386.4 134.939,390.065 Q137.611,392.849 144.809,393.623 Q146.301,393.784 147.531,394.642 Q152.326,397.989 148.979,402.785 Q142.787,411.655 134.724,408.724 Q128.614,406.503 125.116,397.493 Q124.825,396.744 124.558,395.984 Q122.667,393.115 121.969,389.39 Q121.42,386.463 121.744,382.702 Q121.086,375.301 122.142,366.983 Q120.397,367.428 119.444,367.595 Q113.403,368.648 110.424,365.182 Q107.799,362.128 108.841,356.329 Q109.254,354.026 111.126,347.227 Q118.958,318.775 122.595,289.437 Q123.315,283.633 129.118,284.353 Q134.921,285.072 134.202,290.876 Q130.46,321.059 122.402,350.331 Q121.606,353.222 121.109,355.159 Q122.591,354.75 124.59,354.169 Q124.907,354.077 125.21,353.989 Q125.731,353.291 126.42,352.863 Q128.113,351.812 130.82,352.393 Z"/>
  <path fill="rgb(60.784314%, 0%, 0%)" d="M180.872,213.375 Q183.024,209.248 187.69,208.499 Q189.137,208.267 190.808,208.498 Q191.341,208.572 192.983,208.859 Q202.699,210.556 209.122,210.829 Q208.048,207.792 205.973,203.314 Q204.7,200.566 204.262,199.415 Q201.621,192.48 206.06,187.932 Q211.85,181.998 219.673,187.356 Q221.474,188.59 224.656,191.358 Q225.147,191.785 225.574,192.276 Q237.188,205.619 235.527,215.458 Q234.083,224.007 225.457,227.414 Q215.664,241.139 181.074,231.87 Q176.547,230.657 174.89,227.787 Q173.233,224.917 174.446,220.39 Q176.107,214.194 180.872,213.375 Z"/>
  <path fill="rgb(23.529412%, 16.078431%, 32.156863%)" opacity="0.267" d="M143.703,187.366 Q165.304,177.738 182.598,167.475 Q201.408,145.354 215.935,134.261 Q224.844,127.457 231.257,126.145 Q235.314,125.315 239.104,126.251 Q246.333,128.036 249.692,134.616 Q253.441,141.959 249.593,150.246 Q247.04,155.745 240.617,162.384 Q242.83,162.235 245.07,162.387 Q251.328,162.812 255.605,166.494 Q262.06,172.049 260.997,180.456 Q260.288,186.063 256.11,190.085 Q251.797,194.236 242.126,196.573 Q239.492,197.209 236.391,197.782 Q234.94,200.502 235.226,204.76 Q235.654,211.109 231.467,215.901 Q227.28,220.693 220.931,221.121 Q214.582,221.549 209.79,217.362 Q204.998,213.175 204.57,206.826 Q204.38,203.994 204.466,201.316 Q196.4,201.835 187.096,202.184 Q185.428,202.247 183.867,201.987 Q170.912,208.878 156.212,215.43 Q150.399,218.021 144.458,215.743 Q138.516,213.465 135.925,207.653 Q133.334,201.841 135.612,195.899 Q137.89,189.957 143.703,187.366 Z"/>
  <path fill="rgb(52.54902%, 0%, 31.372549%)" opacity="0.508" d="M325.066,288.81 Q333.4,306.058 321.933,316.637 Q313.414,324.495 299.027,324.68 Q282.178,324.896 281.921,315.05 Q281.678,305.727 305.246,297.281 Q309.672,295.694 311.259,300.121 Q312.845,304.547 308.418,306.134 Q298.444,309.708 293.778,312.964 Q292.712,313.708 292.052,314.342 Q294.644,315.331 298.906,315.276 Q309.688,315.138 315.556,309.724 Q321.9,303.873 316.598,292.901 Q314.552,288.668 318.786,286.622 Q323.02,284.576 325.066,288.81 Z"/>
  <path fill="rgb(10.588235%, 59.607843%, 0%)" d="M306.128,393.034 L306.277,392.995 Q322.603,388.671 329.122,389.113 Q335.566,389.551 357.131,396.406 Q372.199,401.196 382.909,404.433 Q386.177,403.983 387.608,391.653 Q388.734,381.953 389.633,345.752 Q391.081,287.471 393.597,244.232 Q393.697,242.521 395.408,242.621 Q397.12,242.72 397.02,244.432 Q394.507,287.612 393.061,345.838 Q392.158,382.193 391.014,392.049 Q389.187,407.785 382.736,407.878 Q382.47,407.882 382.215,407.805 Q371.394,404.538 356.092,399.673 Q334.921,392.943 328.89,392.534 Q322.935,392.13 307.155,396.309 L307.005,396.349 Q305.348,396.788 304.909,395.13 Q304.47,393.473 306.128,393.034 Z"/>
  <path fill="rgb(13.333333%, 4.313725%, 22.745098%)" opacity="0.533" d="M110.504,98.862 Q109.636,105.924 107.495,110.459 Q109.908,112.109 112.636,114.167 Q112.952,113.993 113.276,113.815 Q149.951,93.701 185.169,62.498 Q161.213,67.498 142.146,63.681 Q135.166,62.283 129.308,59.886 Q131.834,66.601 134.508,74.971 Q135.296,77.438 134.457,79.065 Q133.617,80.693 131.15,81.481 Q126.217,83.057 124.64,78.123 Q118.702,59.535 113.86,50.064 Q113.015,49.254 112.217,48.401 Q108.284,44.202 107.469,41.029 Q106.835,38.559 108.074,36.556 Q110.63,32.424 115.081,34.622 Q116.703,35.423 118.412,37.681 Q120.22,40.069 122.13,43.592 Q130.316,50.748 144.18,53.524 Q168.45,58.383 202.59,47.012 Q205.688,45.98 207.955,48.331 Q211.55,52.059 207.822,55.654 Q165.724,96.245 121.4,121.153 Q121.498,121.235 121.597,121.317 Q125.573,124.636 122.253,128.612 Q120.547,130.657 117.891,130.458 Q111.962,130.014 110.033,129.743 Q104.342,128.946 103.103,125.334 Q102.205,122.715 103.713,120.43 Q101.749,119.013 100.038,117.897 Q92.745,120.667 87.927,114.065 Q83.988,108.668 88.795,105.041 Q91.917,102.685 97.231,104.694 Q97.901,104.947 98.625,105.271 Q99.606,102.619 100.222,97.599 Q100.854,92.458 105.995,93.09 Q108.566,93.406 109.693,94.849 Q110.82,96.292 110.504,98.862 Z"/>
  <path fill="rgb(0%, 81.568627%, 21.568627%)" opacity="0.966" d="M112.728,308.252 Q145.762,305.633 158.915,298.529 Q165.882,294.767 169.8,285.666 Q172.807,278.683 175.826,275.199 Q180.871,269.379 189.94,266.238 Q196.588,263.936 198.891,270.584 Q200.042,273.908 198.956,276.146 Q197.869,278.384 194.545,279.535 Q189.037,281.443 186.46,284.416 Q184.87,286.251 182.725,291.231 Q176.872,304.825 165.602,310.911 Q148.856,319.954 109.054,322.63 Q104.469,322.938 102.344,318.864 Q92.782,300.537 86.414,281.272 Q81.047,265.037 80.621,257.276 Q80.45,254.157 81.405,252.087 Q83.388,247.787 88.04,247.756 Q91.109,247.735 93.431,249.991 Q95.632,252.129 98.272,258.801 Q103.672,272.45 111.641,303.088 Q112.162,305.091 111.941,306.658 Q112.332,307.456 112.728,308.252 Z"/>
  <path fill="rgb(0%, 100%, 0%)" d="M251.536,-2.963 Q266.374,6.629 277.042,7.443 Q278.772,7.575 280.275,7.473 Q280.425,6.205 280.467,5.008 Q280.539,2.912 281.954,2.645 Q282.279,2.584 282.586,2.652 Q283.06,-3.879 282.088,-15.818 Q282.019,-16.672 282.411,-17.134 Q282.804,-17.596 283.658,-17.666 Q285.366,-17.805 285.506,-16.096 Q286.741,-0.916 285.666,5.978 Q285.802,5.917 285.937,5.879 Q286.284,5.783 286.637,5.832 Q287.861,5.999 288.092,7.213 Q288.253,8.061 287.534,8.858 Q287.513,8.881 287.49,8.907 Q288.118,9.695 288.811,10.494 Q291.557,12.854 295.171,16.915 Q296.193,18.063 295.163,19.203 Q294.589,19.84 293.984,19.871 Q293.378,19.902 292.742,19.327 Q289.063,16.006 286.303,12.834 Q285.712,12.336 285.182,11.946 Q282.538,15.919 279.5,22.59 Q278.794,24.282 277.977,26.042 Q277.276,27.55 275.748,26.896 Q274.96,26.559 274.734,25.997 Q274.509,25.434 274.846,24.646 Q275.608,22.864 276.352,21.23 Q278.623,15.778 279.645,11.145 Q268.023,11.778 249.675,-0.084 Q248.955,-0.549 248.828,-1.142 Q248.701,-1.734 249.166,-2.454 Q250.097,-3.894 251.536,-2.963 Z"/>
  <path fill="rgb(15.294118%, 7.058824%, 4.313725%)" opacity="0.456" d="M242.828,27.742 Q239.366,47.14 237.228,59.134 Q236.866,63.512 235.496,68.927 Q235.286,70.532 235.061,72.17 Q234.61,75.442 234.194,78.136 Q234.035,79.164 233.925,79.819 Q233.873,80.134 233.839,80.318 Q233.811,80.468 233.785,80.583 Q233.736,80.802 233.671,81.008 Q233.443,81.722 233.005,82.329 Q232.004,83.712 230.76,84.163 Q228.438,91.765 226.71,99.5 Q234.103,129.196 228.004,250.067 Q227.806,253.98 223.919,254.462 Q219.288,255.037 218.713,250.407 Q209.206,173.812 213.143,126.724 Q214.288,113.038 217.11,99.728 Q213.696,87.892 206.672,83.482 Q201.52,80.247 185.38,77.372 Q157.787,72.458 138.788,63.48 Q134.569,61.487 136.563,57.268 Q137.559,55.159 139.112,54.603 Q140.665,54.046 142.775,55.043 Q160.648,63.489 187.016,68.185 Q204.944,71.379 211.634,75.579 Q217.029,78.966 220.797,84.943 Q222.305,79.693 224.082,74.504 Q225.42,70.597 226.305,67.245 Q227.283,59.707 227.892,53.003 Q228.115,50.554 229.511,49.513 Q231.261,39.437 233.641,26.102 Q234.051,23.805 235.404,22.862 Q236.758,21.919 239.054,22.329 Q243.647,23.148 242.828,27.742 Z M221.4,148.528 Q221.226,157.352 221.428,167.012 Q221.509,157.107 221.4,148.528 Z"/>
  <path fill="rgb(2.352941%, 51.764706%, 24.313725%)" opacity="0.687" d="M62.893,265.836 Q62.333,265.544 61.226,264.964 Q44.085,255.988 41.668,259.055 Q33.335,269.628 45.952,332.449 Q46.679,336.068 45.233,338.24 Q43.787,340.413 40.169,341.14 Q32.931,342.594 31.477,335.356 Q17.516,265.847 30.072,249.916 Q37.153,240.931 50.202,244.156 Q56.099,245.613 68.075,251.884 Q69.173,252.459 69.716,252.743 Q72.99,254.448 73.773,256.938 Q74.557,259.428 72.851,262.701 Q69.439,269.247 62.893,265.836 Z"/>
  <path fill="rgb(96.470588%, 100%, 100%)" opacity="0.178" d="M269.102,-7.728 Q265.851,-3.496 259.873,4.31 Q226.328,48.106 217.24,54.913 Q209.768,60.51 203.224,58.736 Q197.869,57.285 190.845,49.595 Q189.825,48.478 189.873,47.41 Q189.921,46.341 191.038,45.321 Q193.272,43.281 195.312,45.515 Q201.149,51.906 204.806,52.897 Q208.502,53.899 213.613,50.071 Q222.034,43.765 255.07,0.631 Q261.052,-7.18 264.304,-11.413 Q265.226,-12.612 266.286,-12.752 Q267.346,-12.891 268.546,-11.969 Q270.945,-10.127 269.102,-7.728 Z"/>
  <path fill="rgb(81.176471%, 100%, 22.352941%)" opacity="0.43" d="M345.546,149.259 Q333.262,149.841 324.569,149.849 Q326.834,150.686 329.179,151.649 Q330.764,152.3 330.113,153.886 Q329.787,154.679 329.228,154.912 Q328.669,155.146 327.876,154.82 Q319.173,151.246 311.65,149.467 Q311.308,149.386 310.981,149.312 Q308.419,149.037 306.737,148.621 Q305.96,148.429 305.58,147.85 Q304.656,146.443 306.044,145.489 Q306.36,145.272 306.743,145.207 Q306.921,145.177 307.128,145.18 Q307.474,145.185 308.183,145.286 Q309.64,145.495 311.63,145.943 Q321.49,146.966 345.384,145.835 Q347.096,145.753 347.177,147.466 Q347.218,148.322 346.81,148.77 Q346.402,149.219 345.546,149.259 Z"/>
  <path fill="rgb(25.098039%, 40%, 28.235294%)" opacity="0.565" d="M291.602,281.801 Q312.064,301.985 307.687,319.038 Q303.972,333.516 284.971,339.971 Q270.342,344.94 256.301,342.888 Q248.476,341.744 244.162,338.207 Q235.969,331.492 240.969,322.105 Q243.03,318.236 245.995,317.332 Q248.96,316.428 252.829,318.489 Q257.865,321.172 257.877,325.386 Q258.321,325.462 258.837,325.538 Q268.701,326.979 279.331,323.368 Q289.347,319.966 290.703,314.68 Q292.574,307.39 279.289,294.285 Q273.047,288.128 279.204,281.886 Q285.361,275.645 291.602,281.801 Z"/>
  <path fill="rgb(9.019608%, 100%, 0%)" opacity="0.972" d="M313.219,69.226 Q295.466,82.769 281.241,95.527 Q276.144,100.099 274.676,100.655 Q272.6,101.442 269.681,99.143 Q260.153,91.641 237.701,88.455 Q236.852,88.335 236.488,87.85 Q236.124,87.366 236.244,86.517 Q236.485,84.82 238.182,85.061 Q261.549,88.376 271.802,96.45 Q273.198,97.549 273.461,97.449 Q274.331,97.119 278.952,92.975 Q293.279,80.126 311.14,66.5 Q312.503,65.461 313.543,66.824 Q314.063,67.505 313.982,68.106 Q313.901,68.706 313.219,69.226 Z"/>
  <path fill="rgb(100%, 100%, 45.882353%)" opacity="0.095" d="M15.753,293.61 Q15.41,292.36 15.095,291.208 Q13.634,291.296 12.006,289.08 Q6.144,285.93 -4.719,293.588 Q-9.585,297.018 -11.479,296.98 Q-13.698,296.935 -14.537,294.593 Q-15.128,292.945 -14.966,289.696 Q-14.923,288.84 -14.474,288.433 Q-14.025,288.027 -13.169,288.069 Q-11.457,288.154 -11.542,289.867 Q-11.669,292.432 -11.309,293.436 L-11.41,293.552 Q-10.64,293.567 -6.694,290.786 Q5.853,281.94 13.558,286.021 Q13.469,285.401 13.338,284.683 Q12.14,280.156 11.748,278.355 Q11.534,277.368 11.704,276.872 Q11.912,276.266 12.465,275.944 Q13.307,275.453 14.161,275.925 Q14.569,276.151 14.811,276.557 Q14.896,276.698 14.965,276.876 Q15.02,277.018 15.094,277.257 Q15.388,278.2 15.816,279.957 Q16.355,282.166 16.68,283.912 Q17.619,287.459 19.059,292.702 Q19.286,293.529 18.987,294.056 Q18.687,294.582 17.86,294.809 Q16.207,295.263 15.753,293.61 Z"/>
  <path fill="rgb(100%, 100%, 100%)" opacity="0.36" d="M374.147,241.839 Q307.646,240.055 297.034,214.285 Q288.684,194.008 315.311,157.42 Q312.837,156.376 310.352,155.23 Q307.874,154.088 307.206,152.277 Q306.538,150.467 307.68,147.989 Q309.965,143.032 314.922,145.317 Q318.565,146.997 322.175,148.441 Q322.518,148.011 322.863,147.584 Q324.221,145.899 326.363,145.602 Q363.6,140.437 381.632,144.055 Q390.476,145.83 393.582,149.928 Q398.599,156.546 391.202,162.187 Q382.331,168.953 361.01,168.139 Q343.758,167.481 325.892,161.444 Q300.796,194.752 307.127,210.128 Q315.036,229.334 374.439,230.927 Q379.895,231.073 379.749,236.529 Q379.603,241.985 374.147,241.839 Z M342.138,154.686 Q351.912,156.868 361.426,157.231 Q374.996,157.749 381.483,155.196 Q380.596,154.981 379.484,154.758 Q366.738,152.2 342.138,154.686 Z"/>
  <path fill="rgb(16.862745%, 0%, 18.431373%)" opacity="0.85" d="M194.903,137.76 Q197.882,142.811 198.097,157.216 Q198.197,163.931 198.348,168.139 Q198.426,170.278 197.395,171.386 Q196.364,172.494 194.225,172.571 Q189.946,172.725 189.792,168.447 Q189.637,164.149 189.536,157.343 Q189.35,144.84 187.711,142.356 Q185.89,141.927 185.221,140.489 Q181.155,138.274 170.842,134.758 Q146.344,126.407 124.996,117.201 Q123.144,116.402 122.581,114.465 Q121.385,110.355 125.495,109.159 Q171.616,95.74 188.965,115.569 Q195.102,122.584 195.612,131.435 Q195.821,135.067 194.903,137.76 Z M187.067,131.977 Q187.065,131.952 187.064,131.927 Q186.723,126.01 182.521,121.207 Q170.962,107.996 140.247,114.287 Q156.103,120.688 173.604,126.654 Q181.958,129.502 187.067,131.977 Z"/>
  <path fill="rgb(25.882353%, 70.588235%, 26.27451%)" opacity="0.904" d="M213.423,285.573 Q206.757,297.323 194.582,303.41 Q187.76,306.82 174.646,309.808 Q167.149,311.516 163.803,313.061 Q164.103,321.33 163.23,329.975 Q162.891,333.333 159.753,334.576 Q154.595,336.618 152.553,331.46 Q146.501,316.175 152.385,308.201 Q151.131,294.027 145.935,281.2 Q145.605,280.386 145.298,279.659 Q144.452,279.956 143.375,280.063 Q137.855,280.614 137.304,275.094 Q136.805,270.093 137.942,267.364 Q139.245,264.235 142.279,263.361 Q145.1,262.547 147.809,264.219 Q152.099,266.868 156.218,277.034 Q161.007,288.857 162.803,301.642 Q166.786,300.22 172.181,298.99 Q183.994,296.299 189.621,293.486 Q198.774,288.91 203.773,280.099 Q206.51,275.274 211.335,278.011 Q216.16,280.748 213.423,285.573 Z"/>
  <path fill="rgb(100%, 52.941176%, 60%)" opacity="0.514" d="M266.375,329.552 Q268.144,324.133 275.067,310.14 Q290.458,279.031 288.192,271.508 Q287.454,269.057 280.787,268.754 Q266.911,268.124 238.073,278.069 Q233.374,279.69 230.215,278.151 Q227.055,276.612 225.435,271.913 Q222.194,262.516 231.591,259.275 Q264.019,248.091 281.69,248.894 Q302.426,249.836 307.228,265.773 Q310.419,276.364 304.393,293.277 Q301.309,301.932 292.886,318.956 Q286.598,331.665 285.274,335.722 Q282.189,345.171 272.739,342.086 Q263.29,339.001 266.375,329.552 Z"/>
  <path fill="rgb(58.823529%, 63.921569%, 56.470588%)" opacity="0.376" d="M314.587,248.594 Q311.177,248.308 306.606,248.14 Q306.352,267.579 296.29,276.397 Q291.39,288.76 284.234,293.417 Q271.579,301.651 260.104,292.257 Q253.65,286.974 251.672,277.495 Q248.525,262.421 256.986,247.696 Q257.759,246.351 258.729,245.2 Q245.539,241.481 237.657,231.858 Q228.122,220.217 226.277,199.179 Q224.649,180.62 228.509,149.891 Q229.38,142.963 234.894,138.68 Q240.408,134.397 247.335,135.267 Q253.482,136.039 257.666,140.609 Q272.743,157.073 283.476,174.919 Q286.548,173.615 290.16,173.636 Q297.142,173.677 302.051,178.642 Q306.959,183.608 306.919,190.59 Q306.845,203.254 306.327,214.4 Q312.682,214.603 317.405,214.999 Q324.363,215.583 328.87,220.915 Q333.377,226.248 332.794,233.206 Q332.21,240.163 326.878,244.671 Q321.545,249.178 314.587,248.594 Z M264.149,210.904 Q263.653,209.751 263.129,208.586 Q262.005,206.09 260.783,203.619 Q261.851,208.192 263.738,210.496 Q263.91,210.706 264.149,210.904 Z"/>
  <path fill="rgb(35.686275%, 100%, 19.215686%)" opacity="0.879" d="M87.167,319.154 Q64.753,342.036 51.083,345.346 Q33.278,349.656 22.95,327.926 Q14.155,309.421 7.973,264.113 Q2.495,223.965 -3.191,145.258 Q-3.387,142.551 -2.131,141.1 Q-0.875,139.649 1.832,139.453 Q5.129,139.215 6.853,142.035 Q37.632,192.363 57.517,232.66 Q58.604,233.557 59.319,235.329 Q60.74,238.852 61.962,241.828 Q62.952,243.909 63.912,245.963 Q66.751,252.036 68.262,255.669 Q68.947,257.317 69.17,258.052 Q69.35,258.644 69.411,259.191 Q69.606,260.944 68.753,262.47 Q67.185,265.276 63.972,265.254 Q62.276,265.243 60.884,264.268 Q59.794,263.504 59.027,262.096 Q57.13,258.611 52.045,246.252 Q35.213,210.921 9.337,167.209 Q14.116,228.835 18.729,262.645 Q24.683,306.283 32.755,323.266 Q39.297,337.03 48.528,334.795 Q59.175,332.217 79.411,311.557 Q81.311,309.619 83.229,309.599 Q85.148,309.579 87.087,311.478 Q90.965,315.276 87.167,319.154 Z"/>
  <path fill="rgb(87.058824%, 98.431373%, 91.764706%)" opacity="0.067" d="M352.371,115.458 Q353.191,104.779 352.64,96.968 Q349.183,91.908 350.182,85.791 Q351.49,77.784 359.448,74.363 Q366.837,71.187 377.874,73.797 Q380.251,74.359 381.712,76.315 Q385.732,81.699 380.349,85.72 Q375.485,89.352 371.069,91.936 Q374.463,93.35 374.41,98.136 Q374.374,101.495 372.676,103.157 Q370.977,104.818 367.618,104.781 Q366.946,104.774 366.295,104.729 Q366.254,110.196 365.77,116.488 Q365.255,123.187 358.555,122.672 Q351.856,122.157 352.371,115.458 Z"/>
  <path fill="rgb(3.137255%, 0%, 14.509804%)" d="M321.651,201.857 Q322.456,164.191 308.293,154.701 Q300.83,149.701 283.534,152.46 Q278.022,153.34 275.818,153.301 Q268.145,153.165 266.988,146.65 Q265.935,140.719 278.705,123.691 Q282.377,118.795 287.274,122.467 Q289.722,124.303 290.028,126.445 Q290.334,128.587 288.498,131.035 Q284.266,136.678 281.9,140.326 Q303.726,136.907 315.106,144.533 Q334.837,157.753 333.888,202.119 Q333.823,205.179 332.261,206.676 Q330.698,208.173 327.639,208.107 Q321.52,207.976 321.651,201.857 Z"/>
  <path fill="rgb(11.372549%, 68.627451%, 3.921569%)" opacity="0.888" d="M140.101,263.762 L140.261,264.3 Q150.926,300.053 151.62,306.398 Q152.451,313.984 147.867,316.949 Q145.244,318.646 139.452,318.349 Q132.926,318.015 128.646,319.59 Q120.563,322.566 112.379,332.679 Q108.699,337.226 104.153,333.547 Q101.879,331.707 101.663,329.65 Q101.446,327.594 103.285,325.321 Q113.497,312.702 124.605,308.613 Q131.055,306.238 139.841,306.657 Q138.598,299.649 129.052,267.644 L128.972,267.375 L128.891,267.105 Q127.22,261.501 132.824,259.829 Q135.627,258.993 137.446,259.976 Q139.265,260.959 140.101,263.762 Z"/>
  <path fill="rgb(94.901961%, 38.823529%, 64.313725%)" opacity="0.898" d="M259.03,114.316 Q264.125,115.153 269.249,116.881 Q291.643,124.433 303.296,146.529 Q306.219,152.072 301.862,156.575 Q295.85,162.788 289.637,156.776 Q278.239,145.749 256.086,133.084 Q254.13,131.966 252.422,130.945 Q245.062,130.417 237.846,132.502 Q233.317,133.81 230.8,135.717 Q234.836,138.28 243.758,140.06 Q247.998,140.906 249.695,143.449 Q251.391,145.992 250.545,150.231 Q248.853,158.71 240.374,157.018 Q212.697,151.495 212.466,136.125 Q212.252,121.897 233.046,115.89 Q235.592,115.154 238.146,114.647 Q238.231,113.134 238.761,111.572 Q240.411,106.714 246.462,103.689 Q254.195,99.822 258.061,107.555 Q259.993,111.418 259.03,114.316 Z"/>
  <path fill="rgb(75.294118%, 83.529412%, 47.843137%)" opacity="0.331" d="M176.74,33.719 Q174.645,34.321 172.633,34.891 Q181.199,43.145 185.791,52.559 Q190.712,62.647 189.445,71.722 Q187.85,83.154 177.898,88.753 Q174.192,90.838 169.832,91.737 Q167.547,104.643 163.855,119.023 Q162.579,123.995 158.16,126.608 Q153.742,129.222 148.77,127.945 Q143.798,126.668 141.184,122.25 Q138.571,117.831 139.848,112.859 Q143.058,100.357 145.113,89.221 Q139.3,87.312 132.859,84.265 Q103.53,70.388 66.43,35.208 Q58.075,27.285 65.362,18.371 Q81.589,-1.478 102.972,-9.756 Q127.518,-19.26 146.565,-8.604 Q158.49,-1.932 165.158,11.247 Q167.464,10.596 169.893,9.898 Q174.827,8.48 179.318,10.966 Q183.809,13.452 185.227,18.385 Q186.645,23.319 184.159,27.81 Q181.673,32.301 176.74,33.719 Z M134.048,19.068 Q136.739,18.549 140.033,17.8 Q137.586,14.774 134.463,13.027 Q125.593,8.064 111.921,13.358 Q101.481,17.4 92.532,25.58 Q121.172,51.315 143.46,61.86 Q146.034,63.078 148.412,64.036 Q149.034,54.889 148.577,47.017 Q145.77,44.976 142.515,42.989 Q140.139,43.231 138.179,43.513 Q137.916,43.563 137.658,43.611 Q136.835,43.763 136.262,43.853 Q135.873,43.914 135.559,43.952 Q135.118,44.005 134.696,44.028 Q133.86,44.074 133.031,44.009 Q131.255,43.87 129.591,43.237 Q126.566,42.086 124.49,39.603 Q120.089,34.341 122.212,27.818 Q124.576,20.553 133.427,19.164 Q133.734,19.116 134.048,19.068 Z"/>
  <path fill="rgb(80.784314%, 76.862745%, 20.784314%)" opacity="0.059" d="M79.596,341.709 Q80.779,332.926 82.407,320.125 Q84.656,302.436 85.778,299.914 Q86.592,298.083 88.02,296.898 Q91.693,293.849 95.989,295.891 Q98.753,297.205 100.14,300.554 Q100.733,301.987 102.035,306.679 Q103.97,313.654 105.514,318.209 Q110.738,330.152 116.688,337.37 Q116.988,337.734 117.118,337.902 Q117.405,338.273 117.628,338.635 Q118.085,339.378 118.353,340.199 Q120.128,345.636 115.248,348.607 Q111.021,351.181 106.58,347.797 Q101.677,344.06 94.362,340.09 Q94.117,341.937 93.888,343.634 Q93.407,347.207 91.38,348.753 Q89.353,350.299 85.78,349.818 Q78.634,348.855 79.596,341.709 Z"/>
  <path fill="rgb(100%, 100%, 99.215686%)" opacity="0.219" d="M287.89,18.002 Q295.057,5.799 309.101,4.526 Q316.614,3.845 330.908,7.145 Q340.613,9.384 342.739,8.791 Q343.815,8.491 342.845,3.295 Q342.411,0.965 343.358,-0.417 Q344.306,-1.798 346.635,-2.233 Q351.294,-3.102 352.163,1.557 Q354.724,15.288 345.286,17.921 Q340.834,19.163 328.777,16.38 Q315.96,13.422 309.956,13.966 Q300.764,14.799 296.063,22.802 Q293.663,26.889 289.577,24.489 Q287.533,23.289 287.112,21.667 Q286.69,20.045 287.89,18.002 Z"/>
  <path fill="rgb(100%, 83.529412%, 97.254902%)" opacity="0.777" d="M203.073,114.012 Q159.807,107.439 127.897,93.005 Q124.457,94.742 120.346,94.422 Q114.351,93.956 110.442,89.387 Q109.461,88.24 108.737,86.917 Q107.143,84.004 105.731,81.181 Q69.954,58.758 57.77,26.246 Q45.269,-7.11 60.12,-43.287 Q74.483,-78.273 112.147,-109.155 Q116.739,-112.92 122.652,-112.388 Q128.566,-111.856 132.412,-107.332 Q182.656,-48.228 178.508,5.966 Q177.714,16.342 174.986,26.249 Q190.582,38.451 202.121,56.614 Q205.345,61.69 204.036,67.559 Q202.727,73.428 197.652,76.652 Q192.576,79.876 186.707,78.567 Q180.838,77.258 177.614,72.183 Q171.051,61.853 162.92,54.147 Q157.702,62.823 150.774,71.084 Q175.418,80.444 207.434,85.308 Q213.379,86.211 216.944,91.053 Q220.509,95.896 219.606,101.841 Q218.703,107.786 213.861,111.351 Q209.018,114.916 203.073,114.012 Z M148.652,11.31 Q155.849,-29.126 119.533,-77.039 Q96.441,-55.308 86.979,-32.261 Q76.456,-6.627 84.957,16.057 Q88.614,25.814 95.551,34.503 Q97.767,23.05 105.927,15.955 Q113.764,9.139 125.221,8.049 Q136.475,6.978 148.652,11.31 Z M126.098,55.214 Q133.373,47.033 138.419,38.469 Q132.658,36.507 127.971,36.953 Q124.528,37.28 124.012,40.26 Q123.006,46.068 126.098,55.214 Z"/>
  <path fill="rgb(100%, 92.156863%, 70.588235%)" opacity="0.184" d="M152.592,116.102 Q159.952,129.629 164.614,132.552 Q165.012,131.075 165.173,128.528 Q165.975,115.868 158.842,95.038 Q154.895,94.546 150.627,93.756 Q146.601,93.011 144.96,90.625 Q143.319,88.239 144.065,84.213 Q145.393,77.036 151.933,77.439 Q142.491,56.04 127.266,32.57 Q125.038,29.135 125.641,26.303 Q126.245,23.471 129.68,21.243 Q131.314,20.183 133.251,19.972 Q155.553,17.546 176.108,29.642 Q194.754,40.615 202.236,56.931 Q211.491,77.114 196.884,88.69 Q189.296,94.703 176.264,95.671 Q182.398,115.692 181.519,129.564 Q180.942,138.682 177.108,143.838 Q171.541,151.326 162.514,149.219 Q150.43,146.398 138.205,123.93 Q134.291,116.736 141.484,112.822 Q148.678,108.908 152.592,116.102 Z M170.585,79.579 Q181.777,79.763 186.711,75.853 Q191.246,72.259 187.348,63.758 Q182.012,52.121 167.801,43.758 Q158.636,38.365 149.129,36.698 Q162.414,58.976 170.585,79.579 Z"/>
  <path fill="rgb(100%, 47.843137%, 74.117647%)" opacity="0.674" d="M84.735,62.971 Q79.834,60.657 76.842,60.346 Q76.955,61.661 77.581,63.489 Q79.923,70.323 85.894,75.673 Q87.591,77.193 89.286,78.281 Q106.837,68.479 125.527,76.836 Q137.549,82.212 154.529,99.839 Q155.56,100.909 156.456,101.824 Q156.469,98.569 156.274,94.266 Q155.895,85.922 164.238,85.543 Q168.41,85.354 170.591,87.345 Q172.771,89.336 172.961,93.508 Q173.497,105.309 172.537,111.319 Q170.886,121.658 163.421,123.536 Q157.444,125.039 150.728,119.453 Q148.219,117.367 142.499,111.428 Q127.769,96.137 118.708,92.086 Q114.946,90.404 111.207,90.007 Q123.251,101.427 130.079,109.57 Q134.333,114.642 136.074,117.982 Q137.54,120.794 137.677,123.296 Q138.079,130.64 131.128,132.629 Q120.392,135.703 80.229,96.614 Q76.95,93.422 77.216,90.182 Q75.972,89.211 74.747,88.114 Q65.533,79.858 61.779,68.904 Q56.851,54.524 65.425,47.233 Q74.387,39.612 91.867,47.865 Q99.42,51.432 95.853,58.984 Q92.287,66.537 84.735,62.971 Z"/>
  <path fill="rgb(2.745098%, 0%, 0%)" d="M232.348,131.799 Q222.658,124.32 196.791,134.867 Q195.011,135.592 193.431,136.283 Q203.234,162.472 204.999,181.025 Q206.575,197.593 201.642,204.384 Q198.193,209.133 193.311,207.752 Q189.232,206.598 187.509,201.554 Q184.575,192.969 190.042,179.979 Q191.613,176.248 195.042,177.078 Q192.793,161.745 185.163,141.049 Q184.232,141.48 183.61,141.716 Q182.86,142.001 182.256,142.102 Q180.938,142.325 179.724,141.87 Q177.673,141.103 176.93,139.047 Q176.324,137.37 176.976,135.704 Q177.578,134.166 179.523,132.898 Q184.24,129.822 193.238,126.153 Q224.121,113.561 238.098,124.35 Q241.822,127.225 238.947,130.949 Q237.51,132.812 235.86,133.024 Q234.21,133.236 232.348,131.799 Z"/>
  <path fill="rgb(12.54902%, 83.921569%, 0%)" opacity="0.98" d="M74.557,73.738 Q75.598,79.012 72.79,80.921 Q70.463,82.502 65.774,81.174 Q60.688,79.733 46.703,72.064 Q27.984,61.799 24.653,62.94 Q22.987,63.511 24.595,68.754 Q26.886,76.218 35.952,91.374 Q36.392,92.109 36.244,92.697 Q36.096,93.285 35.361,93.725 Q35.191,93.826 35.004,93.886 Q-6.866,107.301 -28.336,128.111 Q-29.158,128.907 -29.429,129.143 Q-29.734,129.408 -29.974,129.547 Q-31.307,130.319 -32.268,129.204 Q-33.05,128.296 -31.828,125.383 Q-24.098,106.969 -19.24,78.996 Q-19.093,78.151 -18.598,77.802 Q-18.102,77.453 -17.257,77.6 Q-15.568,77.893 -15.862,79.582 Q-20.195,104.534 -26.817,122.065 Q-5.619,103.617 31.912,91.285 Q23.584,77.146 21.318,69.76 Q18.736,61.344 23.542,59.697 Q28.305,58.065 48.351,69.058 Q61.996,76.541 66.708,77.875 Q69.858,78.768 70.863,78.085 Q71.795,77.451 71.193,74.402 Q70.861,72.721 72.543,72.389 Q74.225,72.056 74.557,73.738 Z"/>
</svg>

