<?xml version="1.0" ?>
<svg xmlns="http://www.w3.org/2000/svg" version="1.1" width="512" height="512" viewBox="0 0 512 512">
  <defs/>
  <g>
    <path d="M 404.56298828 395.91812134 C 403.15475464 399.74945068 400.81365967 402.67724609 397.14974976 404.43191528 C 392.16833496 404.98519897 386.00805664 404.68594360 378.39456177 404.60922241 C 369.35449219 404.64624023 359.13378906 404.49740601 347.86648560 404.69094849 C 335.50213623 404.59442139 322.19290161 404.68542480 308.11325073 404.65618896 C 293.42199707 404.58871460 278.28344727 404.79473877 262.92529297 404.91357422 C 247.43479919 404.94207764 231.86134338 404.71899414 216.37358093 404.57684326 C 201.26403809 404.61029053 186.63391113 404.82681274 172.71759033 404.61535645 C 159.67234802 404.65386963 147.71163940 404.46255493 137.04267883 404.70321655 C 127.89881134 404.49786377 120.34758759 404.98062134 114.37344360 404.58630371 C 110.13603210 402.54971313 107.95019531 398.88937378 108.39247894 392.99310303 C 108.16326141 384.32626343 108.34521484 373.46762085 108.35900879 360.61886597 C 108.38244629 345.96414185 108.32622528 329.87469482 108.40312195 312.65258789 C 108.40003967 294.61605835 108.36270142 276.10250854 108.32192230 257.31771851 C 108.31800079 238.43640137 108.49576569 219.87748718 108.43634033 201.88552856 C 108.39616394 184.65652466 108.36754608 168.40919495 108.48020172 153.56538391 C 108.48037720 140.45590210 108.27272034 129.30404663 108.36556244 120.39739990 C 108.12525940 114.05015564 110.22377014 109.83885193 114.67160034 107.30530548 C 121.12573242 106.35240936 129.61495972 106.68914795 139.89508057 106.78506470 C 151.64993286 106.71247101 164.77348328 106.64248657 179.10266113 106.69595337 C 194.40766907 106.68149567 210.46337891 106.77362823 227.09512329 106.69392395 C 244.23602295 106.36749268 261.68243408 106.44192505 279.04632568 106.55410004 C 296.03030396 106.99529266 312.56665039 106.59965515 328.41616821 106.66990662 C 343.24194336 106.52014923 356.91171265 106.84416199 369.34500122 106.64784241 C 380.34365845 106.78153992 389.43392944 106.75666046 396.29617310 106.76621246 C 400.72842407 107.92807770 403.29458618 110.72747803 404.59649658 115.18870544 C 404.59344482 121.91998291 404.62136841 130.49372864 404.53314209 140.60488892 C 404.68597412 152.20372009 404.67535400 165.00158691 404.55093384 178.65165710 C 404.56970215 193.01614380 404.72500610 208.11312866 404.61776733 223.70953369 C 404.44494629 239.57162476 404.56231689 255.61874390 404.52337646 271.81204224 C 404.53625488 288.07183838 404.62075806 304.32711792 404.56298828 395.91812134" stroke-width="2.00000000" fill="rgb(240, 13, 24)" opacity="1.0" stroke="rgb(85, 11, 7)" stroke-opacity="1.0" stroke-linecap="round" stroke-linejoin="round"/>
    <path d="M 416.34347534 279.19744873 C 413.72201538 283.21972656 410.54760742 284.49429321 405.01644897 283.58599854 C 397.14184570 283.69906616 388.02197266 283.68353271 378.15225220 283.63729858 C 368.00619507 283.64892578 357.93170166 283.67385864 347.99148560 283.61508179 C 338.24826050 283.60101318 328.66009521 283.66519165 319.19357300 283.71047974 C 309.84194946 283.64462280 300.58560181 283.58108521 291.35498047 283.62683105 C 282.09988403 283.62203979 272.78198242 283.32205200 263.26034546 283.19964600 C 253.48304749 283.19610596 243.47708130 283.37442017 233.25419617 283.60864258 C 222.84519958 283.63180542 212.29718018 283.79116821 201.72888184 283.68164062 C 191.27359009 283.85156250 180.90687561 283.60186768 170.73040771 283.69403076 C 160.75863647 283.80004883 151.04995728 283.68521118 141.75517273 283.63751221 C 132.91802979 283.72875977 124.69343567 283.61764526 117.25147247 283.63153076 C 110.65261078 283.53848267 105.07153320 283.83688354 100.77391815 283.67553711 C 97.89884949 281.74841309 95.87631989 279.06088257 95.29730988 275.12127686 C 95.35761261 269.26266479 95.37529755 262.09512329 95.20096588 254.34837341 C 95.43173981 246.50857544 95.29254913 239.21040344 95.50109863 233.09465027 C 96.86559296 229.07945251 99.22895813 226.91638184 102.60634613 226.17169189 C 106.83869934 226.51646423 112.08274841 226.75323486 118.40219879 226.61564636 C 125.63734436 226.41378784 133.60830688 226.39825439 142.16648865 226.51007080 C 151.31135559 226.45893860 161.02853394 226.43760681 171.17663574 226.47882080 C 181.58628845 226.62586975 192.10342407 226.43734741 202.78227234 226.37776184 C 213.51408386 226.72200012 224.23669434 226.69453430 234.99978638 226.14659119 C 245.81134033 225.87088013 256.56298828 225.80804443 267.22177124 225.98329163 C 277.67727661 226.35412598 287.97634888 226.72244263 298.15759277 226.89976501 C 308.13586426 226.70329285 317.88946533 226.49650574 327.37606812 226.51782227 C 336.61737061 226.56053162 345.61227417 226.59577942 354.24984741 226.56449890 C 362.42730713 226.52352905 370.22619629 226.55245972 377.71224976 226.55004883 C 384.66259766 226.57391357 390.91528320 226.57855225 396.38714600 226.47062683 C 401.21603394 226.49240112 405.34020996 226.64324951 408.41055298 226.13179016 C 410.61584473 225.92335510 412.22778320 226.89237976 413.76931763 228.59642029 C 416.03497314 230.03411865 418.81817627 231.67697144 416.34347534 279.19744873" stroke-width="2.00000000" fill="rgb(250, 203, 22)" opacity="1.0" stroke="rgb(80, 1, 2)" stroke-opacity="1.0" stroke-linecap="round" stroke-linejoin="round"/>
    <path d="M 279.63458252 411.39877319 C 274.96389771 411.69006348 270.37673950 411.48626709 265.82342529 411.64334106 C 261.36645508 411.68194580 257.07171631 411.69039917 252.90011597 411.55270386 C 248.91072083 411.61141968 245.36393738 411.78811646 242.18955994 411.56896973 C 239.37307739 411.59417725 236.94142151 411.74386597 234.98728943 411.59725952 C 233.72131348 410.70660400 232.74557495 409.37887573 232.45707703 407.46511841 C 232.78381348 404.49801636 232.64027405 400.34786987 232.59745789 395.19158936 C 232.62416077 389.21023560 232.58219910 382.44812012 232.63043213 375.02529907 C 232.60917664 367.10055542 232.71693420 358.60775757 232.62747192 349.55895996 C 232.78210449 340.01928711 232.61924744 330.23101807 232.64183044 320.12805176 C 232.73480225 309.64559937 232.63755798 298.86523438 232.75086975 287.89636230 C 232.52264404 276.80267334 232.47621155 265.49096680 232.52557373 254.01316833 C 232.50428772 242.46986389 232.44659424 230.85336304 232.85931396 219.19013977 C 233.05493164 207.56590271 233.16394043 195.95135498 233.25645447 184.46197510 C 233.37860107 173.25546265 233.58549500 162.41908264 233.66595459 152.03569031 C 233.34556580 142.20223999 233.25762939 133.04338074 233.35310364 124.64054108 C 233.33886719 117.18172455 233.42329407 110.82216644 233.15234375 105.69517517 C 231.97680664 101.85634613 232.55465698 99.08050537 234.79200745 97.53910065 C 238.29986572 97.35003662 242.64871216 97.46269989 247.54158020 97.30859375 C 252.95576477 97.27474976 258.64511108 97.15633392 264.11456299 97.40860748 C 269.30618286 97.40905762 274.05285645 97.16107941 277.86389160 97.51018524 C 280.46395874 99.44520569 281.25238037 102.32021332 279.80426025 106.12374878 C 279.36529541 111.44557953 279.67077637 118.15873718 279.65191650 125.93666840 C 279.73699951 134.55839539 279.73376465 143.96369934 279.26113892 153.95407104 C 278.80566406 164.31768799 278.30422974 174.89244080 278.04455566 185.54603577 C 278.09484863 196.31443787 278.32318115 207.16723633 278.95281982 217.84596252 C 279.78738403 228.09750366 279.69268799 238.16156006 279.66424561 248.19190979 C 279.67929077 258.07647705 279.58789062 267.77447510 279.64859009 277.32196045 C 279.55993652 286.66976929 279.56967163 295.83380127 279.62799072 304.93658447 C 279.69546509 313.95028687 279.69760132 322.92724609 279.72357178 331.94885254 C 279.52191162 340.92138672 279.77337646 349.84750366 279.63458252 411.39877319" stroke-width="2.00000000" fill="rgb(251, 204, 23)" opacity="1.0" stroke="rgb(80, 0, 0)" stroke-opacity="1.0" stroke-linecap="round" stroke-linejoin="round"/>
    <path d="M 240.08233643 173.46054077 C 235.73596191 172.29035950 232.02296448 169.91328430 228.61215210 166.66691589 C 224.86160278 163.34089661 220.93955994 160.04922485 217.22035217 156.36598206 C 213.29127502 152.94325256 209.36712646 149.56744385 205.74937439 145.80076599 C 202.10319519 142.03100586 198.19229126 138.47096252 194.47401428 134.73535156 C 190.53565979 131.27983093 186.85818481 127.73177338 183.36784363 124.25380707 C 179.92457581 121.06485748 176.95410156 117.85552216 174.04347229 115.11873627 C 171.48541260 112.96724701 169.56242371 110.83920288 168.38902283 109.25985718 C 167.89144897 108.17485809 168.24089050 107.53945923 169.61669922 107.55360413 C 171.81509399 107.49542999 174.53823853 107.62415314 177.50332642 108.13563538 C 180.60060120 108.39810181 183.75929260 108.35042572 186.58497620 108.51751709 C 188.77644348 110.33982086 191.08358765 112.80464935 193.98051453 115.43111420 C 197.19607544 118.14523315 200.36746216 121.36360168 203.66395569 124.66597748 C 207.11068726 127.97239685 210.92153931 131.06996155 214.45332336 134.40574646 C 217.88195801 137.88279724 221.26502991 141.24966431 224.63124084 144.42222595 C 228.11550903 147.22708130 231.15028381 150.26795959 234.25939941 153.01599121 C 237.30369568 155.58045959 240.00924683 158.14854431 242.55162048 160.62217712 C 245.07658386 162.81105042 247.34922791 165.13066101 249.34361267 167.42445374 C 251.01663208 169.76992798 252.58462524 172.10653687 254.00177002 174.46569824 C 255.35250854 176.80467224 256.67572021 179.13975525 257.93380737 181.43151855 C 259.18811035 183.64099121 260.42565918 185.82347107 240.08233643 173.46054077" stroke-width="2.00000000" fill="rgb(247, 206, 38)" opacity="1.0" stroke="rgb(95, 7, 0)" stroke-opacity="1.0" stroke-linecap="round" stroke-linejoin="round"/>
    <path d="M 274.67977905 156.19999695 C 278.55294800 152.29557800 282.59719849 148.59809875 286.65283203 144.94334412 C 290.47576904 141.10604858 294.33929443 137.36773682 298.15417480 133.72128296 C 301.92251587 130.20524597 305.36206055 126.63945770 308.81054688 123.38843536 C 311.90322876 120.19352722 314.94869995 117.37611389 317.68429565 114.78288269 C 320.02792358 112.39296722 322.15155029 110.33008575 323.98162842 108.71482086 C 326.10980225 107.99685669 328.53836060 108.19165039 331.25869751 108.48976898 C 334.06576538 108.40933228 336.72903442 108.40633392 339.07821655 108.39379120 C 340.93893433 108.13710785 342.20300293 108.17567444 342.69628906 108.69678497 C 341.99887085 109.59471130 340.62127686 110.80837250 338.69500732 112.59880829 C 336.40460205 114.90821838 333.79620361 117.60269165 330.67517090 120.34284210 C 327.57592773 123.58884430 324.25262451 126.99775696 320.81924438 130.44369507 C 317.38589478 133.98345947 313.81137085 137.44869995 310.28396606 140.89897156 C 306.93841553 144.37745667 303.50387573 147.63140869 300.16644287 150.83427429 C 296.99325562 154.09509277 293.80249023 157.06295776 290.82205200 159.98695374 C 287.82391357 162.56101990 285.07733154 165.00781250 282.62048340 167.31193542 C 280.57745361 169.47740173 278.48547363 170.99388123 276.63275146 172.08030701 C 274.86370850 172.33148193 273.26226807 172.28466797 271.71875000 172.14436340 C 270.32064819 171.63662720 269.29510498 170.78851318 268.66482544 169.43374634 C 268.00592041 167.92753601 267.41320801 166.24658203 267.01388550 164.72079468 C 266.48361206 163.93583679 266.24554443 163.80850220 274.67977905 156.19999695" stroke-width="2.00000000" fill="rgb(245, 204, 28)" opacity="1.0" stroke="rgb(98, 10, 3)" stroke-opacity="1.0" stroke-linecap="round" stroke-linejoin="round"/>
    <path d="M 209.26602173 235.32142639 C 208.89111328 235.77120972 208.45874023 235.68891907 207.83116150 235.25874329 C 207.16497803 234.37026978 206.48718262 232.93391418 205.74230957 231.17581177 C 205.00956726 229.16163635 204.18128967 226.92707825 203.27523804 224.61685181 C 202.28001404 222.19711304 201.23791504 219.65417480 200.66848755 217.28369141 C 200.46064758 214.91473389 200.27574158 212.89500427 199.56010437 211.64912415 C 197.69224548 211.23242188 195.19720459 210.83770752 192.50671387 210.25285339 C 189.91613770 209.67646790 187.52626038 209.51731873 185.80220032 209.48014832 C 185.05715942 209.04374695 184.95841980 207.98182678 185.50352478 206.51173401 C 186.96440125 204.72714233 189.00314331 202.43450928 191.65391541 199.86163330 C 194.66600037 197.10885620 198.01405334 194.14726257 201.73495483 191.27281189 C 205.66619873 188.34742737 209.84991455 185.73240662 214.21316528 183.32142639 C 218.41281128 181.28877258 222.63661194 179.54093933 226.56022644 177.68814087 C 230.01850891 176.22024536 233.33328247 175.48713684 236.28172302 175.12413025 C 238.55961609 174.24182129 240.27862549 173.85267639 241.71023560 174.59451294 C 243.06005859 176.40121460 244.75570679 178.44480896 246.12429810 180.83230591 C 247.68151855 183.13543701 249.52536011 185.22056580 251.17616272 187.36691284 C 252.70709229 189.16687012 253.08790588 190.93025208 252.40951538 193.10687256 C 251.23838806 195.39370728 249.83020020 197.68717957 248.10391235 200.34239197 C 246.18469238 203.17842102 243.27954102 205.60589600 240.56864929 208.76309204 C 237.92602539 212.40115356 235.52502441 216.55516052 209.26602173 235.32142639" stroke-width="2.00000000" fill="rgb(251, 203, 23)" opacity="1.0" stroke="rgb(91, 7, 3)" stroke-opacity="1.0" stroke-linecap="round" stroke-linejoin="round"/>
    <path d="M 302.04605103 236.93572998 C 299.63687134 235.19636536 297.25192261 233.60537720 295.14764404 231.56460571 C 292.94503784 229.71659851 290.36822510 228.16252136 288.26998901 226.04634094 C 286.44116211 223.67953491 283.94671631 221.74485779 281.47589111 219.92793274 C 278.99468994 218.62530518 276.73516846 217.02185059 274.79867554 214.91397095 C 273.04415894 212.25823975 270.65103149 209.74911499 268.11141968 207.18945312 C 265.95510864 204.23049927 264.02792358 201.22515869 262.29342651 198.35481262 C 260.25122070 196.23899841 258.83489990 194.16969299 258.32534790 191.87245178 C 258.24291992 189.64349365 258.95300293 187.50613403 260.22860718 185.37777710 C 261.77380371 183.07151794 263.40255737 180.65969849 265.08786011 178.38218689 C 266.79306030 176.40969849 268.49118042 174.93634033 270.49017334 174.22006226 C 272.89080811 174.50796509 275.57156372 175.38830566 278.65603638 176.62464905 C 282.10922241 177.62539673 285.63131714 178.94085693 289.18948364 180.36724854 C 292.89605713 181.94667053 296.62911987 183.74324036 300.06521606 185.97532654 C 303.67767334 188.15193176 307.22488403 190.41815186 310.46386719 193.05468750 C 313.48883057 195.91090393 316.48025513 198.56211853 319.26669312 201.10273743 C 321.42987061 203.59657288 323.19519043 205.70152283 324.44308472 207.39262390 C 324.96847534 208.66822815 324.69244385 209.34489441 323.58517456 209.54585266 C 321.94696045 209.43789673 319.90216064 209.82360840 317.72354126 210.43757629 C 315.42678833 210.60911560 313.38943481 210.55998230 312.01428223 210.87408447 C 311.41955566 212.05934143 312.20126343 213.77824402 302.04605103 236.93572998" stroke-width="2.00000000" fill="rgb(247, 205, 25)" opacity="1.0" stroke="rgb(97, 7, 2)" stroke-opacity="1.0" stroke-linecap="round" stroke-linejoin="round"/>
    <path d="M 244.67034912 170.23320007 C 245.37446594 169.06817627 245.87538147 167.72850037 246.56398010 166.52024841 C 247.18493652 165.51821899 247.84657288 164.80335999 248.89427185 164.27159119 C 249.58139038 163.55450439 250.24281311 162.91592407 250.95407104 162.50680542 C 251.99415588 162.50111389 253.16276550 162.22944641 254.30311584 161.73358154 C 255.63090515 161.47398376 257.10830688 161.72784424 258.69451904 162.21076965 C 260.00421143 162.83291626 261.08700562 163.42164612 262.23773193 163.56675720 C 263.02023315 163.48170471 263.25769043 163.79637146 263.28649902 164.60380554 C 263.85845947 165.46740723 264.62435913 166.64366150 265.31326294 167.89186096 C 265.68234253 169.34890747 265.93325806 170.73283386 266.22134399 172.24984741 C 266.05807495 173.81234741 266.14733887 175.23368835 266.46246338 176.52180481 C 266.12139893 177.76388550 265.41390991 179.05819702 264.62005615 180.51310730 C 263.94891357 181.93879700 263.16659546 183.03871155 261.76986694 183.65820312 C 260.19125366 184.00689697 259.65316772 184.99023438 259.42749023 186.16857910 C 258.49447632 186.21713257 257.10095215 186.15098572 255.66996765 186.44779968 C 254.45950317 186.47238159 253.32122803 186.30763245 252.40165710 186.09184265 C 251.65618896 185.59509277 250.81784058 184.99490356 249.89312744 184.39279175 C 249.05857849 183.69911194 248.30422974 182.91911316 247.64392090 181.97277832 C 247.25590515 180.70132446 246.82469177 179.77392578 245.91700745 179.14407349 C 245.43946838 178.29467773 245.23333740 177.33061218 245.03231812 176.69567871 C 244.52691650 176.77841187 244.48252869 176.77516174 244.67034912 170.23320007" stroke-width="2.00000000" fill="rgb(246, 201, 29)" opacity="1.0" stroke="rgb(92, 1, 1)" stroke-opacity="1.0" stroke-linecap="round" stroke-linejoin="round"/>
  </g>
</svg>
