<?xml version="1.0" ?>
<svg xmlns="http://www.w3.org/2000/svg" version="1.1" width="512" height="512" viewBox="0 0 512 512">
  <defs/>
  <g>
    <path d="M 627.52020264 408.97567749 C 605.30041504 419.12026978 583.03936768 429.24496460 560.76788330 439.38870239 C 538.48278809 449.54275513 516.23406982 459.62875366 493.93069458 469.59054565 C 471.58184814 479.40921021 449.20645142 489.01516724 426.78195190 498.30972290 C 404.25515747 507.14398193 381.62326050 515.44812012 358.95834351 523.10900879 C 336.24758911 530.06463623 313.47058105 536.17272949 290.65682983 541.34240723 C 267.92489624 545.50372314 245.26179504 548.55883789 222.74003601 550.45837402 C 200.46293640 551.13922119 178.56144714 550.45477295 157.07817078 548.34838867 C 136.11140442 544.75500488 115.77986908 539.61376953 96.19886780 532.96160889 C 77.43276215 524.71020508 59.62440491 514.83752441 42.88517380 503.32287598 C 27.29249954 490.07446289 12.96504402 475.16842651 -0.02759073 458.60339355 C -11.63579750 440.40930176 -21.92987251 420.81680298 -30.88099480 399.89321899 C -38.56035614 377.81402588 -45.01673508 354.81027222 -50.40319443 331.06951904 C -54.74948883 306.74291992 -58.04379272 282.04620361 -60.22337723 257.16760254 C -61.26436615 232.31713867 -61.17298126 207.62632751 -60.07802200 183.33905029 C -58.01702499 159.50799561 -54.96360016 136.12754822 -50.94846725 113.37094879 C -45.80974960 91.48792267 -39.39527512 70.71846771 -31.46792793 51.24674225 C -21.90410805 33.14797974 -10.67351818 16.51918793 2.19434667 1.51730251 C 16.90695953 -11.74124050 33.25809479 -23.42107582 51.25421524 -33.56214905 C 70.82172394 -42.19477844 91.81259155 -49.45654678 113.97640991 -55.45743942 C 136.98254395 -60.34325027 160.58460999 -64.24732971 184.69682312 -67.23623657 C 209.29093933 -69.25868225 234.29797363 -70.33760834 259.60562134 -70.45663452 C 285.11389160 -69.60499573 310.66186523 -67.83883667 336.05075073 -65.17092133 C 361.00714111 -61.53677368 385.35635376 -56.84814835 408.95559692 -51.01362610 C 431.57940674 -43.89189529 453.05850220 -35.37470245 473.23922729 -25.40560532 C 491.93942261 -13.88640594 509.03720093 -0.69605333 524.50683594 14.16409874 C 538.38989258 30.60515404 550.80126953 48.52114868 561.90924072 67.69368744 C 571.84674072 87.98532104 580.77014160 109.19101715 588.89013672 131.16232300 C 596.33746338 153.70310974 603.31439209 176.67802429 610.01757812 199.89219666 C 616.55206299 223.24197388 623.01812744 246.62207031 629.50567627 269.98312378 C 636.01452637 293.34545898 642.51220703 316.70846558 627.52020264 408.97567749" stroke-width="2.00000000" fill="rgb(212, 240, 245)" opacity="1.0" stroke="rgb(177, 228, 225)" stroke-opacity="0.53001416" stroke-linecap="round" stroke-linejoin="round"/>
    <path d="M 514.79052734 521.72314453 C 501.25250244 522.17456055 487.69485474 522.65899658 474.12707520 523.12451172 C 460.54357910 523.61370850 446.93295288 524.12072754 433.25244141 524.64019775 C 419.51538086 525.18634033 405.69830322 525.76519775 391.76965332 526.39019775 C 377.69418335 527.07147217 363.45623779 527.78350830 349.06494141 528.51275635 C 334.46890259 529.26177979 319.64505005 530.07446289 304.58322144 530.91973877 C 289.29412842 531.76263428 273.78750610 532.57604980 258.04730225 533.37213135 C 242.10791016 534.14416504 225.94384766 534.84136963 209.64892578 535.44128418 C 193.22436523 535.93365479 176.71611023 536.30047607 160.24436951 536.47064209 C 143.85186768 536.41394043 127.60949707 536.05383301 111.63839722 535.44586182 C 96.04033661 534.53344727 80.90763855 533.23419189 66.35604095 531.48767090 C 52.54073334 529.28674316 39.63145828 526.58416748 27.75423813 523.35211182 C 17.02367401 519.49444580 7.62677431 514.97595215 -0.24665380 509.80065918 C -6.48135662 504.11029053 -11.14841557 497.96020508 -14.26750755 491.61618042 C -15.76252842 485.41003418 -15.59411049 479.65704346 -13.75021267 474.53894043 C -10.29617691 470.26358032 -5.24727678 467.06817627 1.46596682 465.27999878 C 9.87424469 464.94808960 19.67241096 465.20437622 30.76968384 465.03692627 C 43.00808716 465.07369995 56.21636581 465.14544678 70.18823242 465.11022949 C 84.73803711 465.19406128 99.74066925 465.09030151 115.16775513 465.15615845 C 130.95735168 465.12686157 146.94177246 465.01797485 162.99015808 465.14050293 C 179.06047058 465.07476807 195.15835571 465.10882568 211.26156616 465.12649536 C 227.23861694 465.11035156 243.06529236 465.12039185 258.71765137 465.24356079 C 274.23779297 465.26428223 289.65020752 465.10998535 304.84020996 465.10491943 C 319.82830811 465.09497070 334.65347290 465.10379028 349.23605347 465.16833496 C 363.55343628 465.01098633 377.64596558 464.97036743 391.47045898 465.05062866 C 405.01153564 465.01605225 418.26129150 465.10784912 431.24484253 465.09463501 C 443.96020508 465.07116699 456.40887451 465.13333130 468.58529663 465.12170410 C 480.49060059 465.07904053 492.18173218 464.97247314 503.65002441 465.07910156 C 514.94207764 465.41452026 526.07342529 465.96267700 537.07891846 466.56414795 C 548.03094482 467.16268921 558.85626221 467.86642456 569.69934082 468.66284180 C 580.49200439 469.46182251 591.27996826 470.20840454 514.79052734 521.72314453" stroke-width="1.53988552" fill="rgb(176, 212, 114)" opacity="1.0" stroke="rgb(180, 213, 147)" stroke-opacity="1.0" stroke-linecap="round" stroke-linejoin="round"/>
    <path d="M 270.48187256 368.31509399 C 271.03207397 373.24652100 271.81979370 377.98751831 272.64111328 382.69247437 C 273.30166626 387.42282104 273.57962036 392.24172974 273.78305054 397.10937500 C 273.94378662 401.96353149 273.94372559 406.87948608 274.30624390 411.87368774 C 274.41064453 416.97998047 274.46994019 422.03787231 274.63171387 427.12716675 C 274.67565918 432.39141846 274.78912354 437.72351074 274.99520874 443.05310059 C 274.97994995 448.38238525 275.07543945 453.80224609 275.08612061 459.25381470 C 275.05972290 464.65481567 275.15124512 469.95822144 275.25708008 475.28060913 C 275.35644531 480.57077026 275.43551636 485.68463135 275.51113892 490.65866089 C 275.62179565 495.45602417 275.56939697 499.98944092 275.58010864 504.18338013 C 275.79156494 507.99902344 275.91238403 511.44903564 275.38796997 514.39984131 C 274.03939819 516.91094971 272.05285645 519.04162598 269.56011963 520.82434082 C 266.64831543 522.20709229 263.36270142 523.18762207 259.81515503 523.76342773 C 256.15869141 523.97412109 252.46520996 523.85015869 248.82775879 523.32379150 C 245.37843323 522.37268066 242.23300171 521.02099609 239.47247314 519.32403564 C 237.20523071 517.27111816 235.58241272 514.75732422 234.70413208 511.79409790 C 234.77294922 508.51989746 234.79809570 504.90466309 234.82794189 500.94320679 C 234.87353516 496.66036987 234.94224548 492.12579346 234.89590454 487.33511353 C 234.94541931 482.36264038 234.97503662 477.32177734 235.13180542 472.16107178 C 235.15020752 466.86572266 235.11563110 461.52807617 234.97735596 456.26440430 C 235.22738647 451.06405640 235.35324097 445.82275391 235.36979675 440.45632935 C 235.73867798 434.87561035 235.85754395 429.15762329 235.96064758 423.29943848 C 236.05453491 417.41806030 236.08544922 411.47372437 236.33459473 405.59277344 C 236.51420593 399.87161255 236.44779968 394.24841309 236.55043030 388.63385010 C 237.14334106 383.28869629 238.05111694 378.24935913 238.83699036 373.43072510 C 239.40597534 368.91567993 239.86344910 364.73257446 240.47100830 361.07345581 C 240.91520691 357.94055176 241.01818848 355.50772095 241.26737976 353.85516357 C 242.39831543 353.16918945 244.09600830 353.17657471 246.44783020 353.58715820 C 249.39784241 354.10421753 252.77696228 354.44628906 256.25143433 354.30584717 C 259.44702148 353.29116821 262.47167969 351.70471191 265.35894775 349.68542480 C 267.94155884 347.27978516 269.88351440 344.67517090 270.48187256 368.31509399" stroke-width="0.83037555" fill="rgb(137, 77, 40)" opacity="1.0" stroke="rgb(124, 73, 33)" stroke-opacity="0.5121745" stroke-linecap="round" stroke-linejoin="round"/>
    <path d="M 359.14511108 302.33297729 C 354.10302734 307.63906860 349.00131226 312.91442871 343.83410645 318.10549927 C 338.77734375 323.42224121 333.61901855 328.64633179 328.49801636 333.92715454 C 323.35180664 339.28912354 318.11273193 344.60974121 312.94506836 350.00970459 C 307.69769287 355.33395386 302.54901123 360.69802856 297.41567993 365.98809814 C 292.35903931 371.17974854 287.37277222 376.18130493 282.60833740 381.05877686 C 277.93215942 385.62524414 273.64425659 389.87719727 269.13644409 393.12448120 C 264.26159668 395.34326172 259.18585205 396.51846313 253.99909973 396.82882690 C 248.80258179 396.36862183 243.79127502 395.06497192 239.12673950 392.55319214 C 234.77690125 388.84863281 230.53135681 384.20767212 225.82943726 379.25744629 C 220.77461243 374.06106567 215.50071716 368.63961792 210.15281677 362.98434448 C 204.69049072 357.30288696 199.14833069 351.68914795 193.78433228 346.04522705 C 188.64396667 340.47308350 183.52696228 335.28210449 178.83070374 330.25680542 C 174.70642090 325.37365723 170.84231567 321.09646606 167.87030029 316.93588257 C 165.47282410 313.20285034 163.55181885 310.01760864 162.15309143 307.27862549 C 161.30366516 305.07226562 160.96832275 303.47323608 161.14567566 302.41760254 C 161.82333374 301.85159302 162.99285889 301.90338135 164.62435913 302.55068970 C 166.72073364 303.78067017 169.15447998 305.68884277 171.85981750 308.29431152 C 174.83946228 311.55526733 178.12057495 315.39431763 182.14688110 319.38763428 C 186.65901184 323.77645874 191.31614685 328.71438599 196.50746155 333.64892578 C 201.77362061 338.84960938 206.99127197 344.27621460 212.40087891 349.53039551 C 217.80633545 354.66250610 222.83183289 359.91775513 227.97563171 364.65124512 C 232.83348083 369.18865967 237.48497009 373.32662964 242.11999512 376.70001221 C 246.84832764 378.94113159 251.76989746 380.12347412 256.81460571 380.11486816 C 261.95571899 378.85791016 267.04577637 376.57241821 271.97647095 373.47366333 C 277.04870605 369.86508179 281.85565186 365.55947876 286.48458862 360.63879395 C 291.54064941 355.88095093 296.52505493 350.86651611 301.71505737 345.95141602 C 306.83029175 340.96096802 311.94515991 336.02291870 316.85702515 330.98181152 C 321.86932373 326.18334961 326.66372681 321.27935791 331.24948120 316.21612549 C 335.78005981 311.09246826 340.40533447 306.06082153 345.00106812 300.99066162 C 349.55639648 295.90835571 354.08541870 290.78860474 359.14511108 302.33297729" stroke-width="0.55115372" fill="rgb(131, 79, 46)" opacity="1.0" stroke="rgb(128, 76, 45)" stroke-opacity="0.46581915" stroke-linecap="round" stroke-linejoin="round"/>
    <path d="M 293.25079346 314.70910645 C 290.69235229 319.10467529 287.71295166 323.17062378 285.28598022 327.55020142 C 282.75140381 331.72259521 279.97494507 335.63006592 277.53442383 339.60440063 C 275.26397705 343.53378296 272.94735718 346.98910522 270.88836670 350.30917358 C 269.65563965 353.43896484 268.26519775 356.07647705 266.47323608 358.02319336 C 264.22201538 359.34222412 261.49203491 360.08508301 258.51223755 360.40945435 C 255.49943542 360.41491699 252.50473022 360.16329956 249.52519226 359.52966309 C 246.68113708 358.32153320 244.15255737 356.49905396 241.89532471 354.12655640 C 240.07232666 350.92169189 238.06657410 347.19229126 235.60552979 343.13827515 C 232.91273499 338.79156494 230.04951477 334.13681030 227.05389404 329.35189819 C 224.25453186 324.44006348 221.30583191 319.60690308 218.51856995 314.90640259 C 215.93769836 310.34387207 213.46530151 306.14721680 211.17726135 302.37322998 C 208.91526794 299.21405029 207.13800049 296.39041138 205.79377747 294.03799438 C 205.13667297 292.08950806 205.12803650 290.60018921 205.67562866 289.54437256 C 206.74795532 288.90301514 208.29081726 288.69689941 210.12229919 289.07342529 C 212.21197510 290.13845825 214.40728760 291.88098145 216.71369934 294.20776367 C 219.02961731 297.20117188 221.44477844 300.87158203 223.98185730 305.01388550 C 226.78337097 309.67080688 229.84687805 314.48294067 233.00547791 319.56893921 C 235.92951965 324.87780762 239.49412537 329.73629761 242.67547607 334.78256226 C 245.66297913 339.70254517 248.57986450 344.18844604 251.18045044 348.02841187 C 253.21231079 351.24172974 254.41076660 353.51831055 255.55863953 354.26736450 C 256.61672974 353.38095093 258.26800537 351.18643188 260.20532227 347.81323242 C 262.70999146 343.75753784 265.70303345 339.27557373 268.98406982 334.41259766 C 272.21102905 329.30508423 275.48532104 324.13351440 278.92584229 319.11474609 C 281.89862061 313.96279907 285.10794067 309.28076172 287.94869995 304.78067017 C 290.47552490 300.61151123 293.02523804 297.07070923 295.38659668 294.02325439 C 297.63104248 291.56649780 299.64138794 289.51638794 301.44546509 287.88412476 C 303.06362915 286.68768311 304.52166748 285.90237427 305.85507202 285.47903442 C 306.95553589 285.32305908 307.82434082 285.45129395 308.55361938 285.79513550 C 309.18115234 286.34466553 309.56829834 286.99923706 309.73922729 287.65707397 C 309.73187256 288.28424072 309.51263428 288.84963989 293.25079346 314.70910645" stroke-width="0.63730127" fill="rgb(131, 75, 44)" opacity="1.0" stroke="rgb(134, 74, 41)" stroke-opacity="0.48817486" stroke-linecap="round" stroke-linejoin="round"/>
    <path d="M 180.25001526 312.97290039 C 176.15873718 313.77859497 172.31286621 314.87249756 168.56903076 316.28042603 C 164.83352661 317.23910522 161.04522705 317.78698730 157.35935974 318.11206055 C 153.68237305 318.04949951 149.91639709 317.82937622 146.09043884 317.38436890 C 142.32266235 316.68634033 138.62402344 315.72201538 135.01168823 314.39614868 C 131.42861938 312.79385376 127.98742676 310.96524048 124.68576813 308.83123779 C 121.46594238 306.46160889 118.41922760 303.86441040 115.44577026 301.09799194 C 112.60388947 298.22610474 110.09989166 294.98699951 107.88408661 291.48291016 C 105.67968750 287.93713379 103.57718658 284.27355957 101.80724335 280.51330566 C 100.43112183 276.48748779 99.29608154 272.35247803 98.41321564 268.19903564 C 97.74001312 264.12689209 97.70974731 260.05020142 97.84562683 255.90536499 C 97.95680237 251.77322388 98.43579102 247.71784973 99.33388519 243.79891968 C 100.51258087 239.85705566 101.80665588 235.95773315 103.30071259 232.10829163 C 105.07559967 228.44755554 107.35041046 225.04858398 109.92546082 221.86003113 C 112.74624634 218.89680481 115.72370911 216.04505920 118.90231323 213.48062134 C 122.24139404 211.24383545 125.69662476 209.24652100 129.26646423 207.53173828 C 132.88143921 206.13211060 136.60269165 205.21087646 140.41915894 204.68164062 C 144.32627869 204.22869873 148.28919983 203.91369629 152.22526550 203.78109741 C 156.17375183 203.74450684 160.10044861 203.89158630 164.00375366 204.28845215 C 167.83364868 204.88406372 171.58448792 205.68133545 175.26976013 206.73464966 C 178.86479187 208.06678772 182.31826782 209.61303711 185.65829468 211.40985107 C 188.85748291 213.44075012 191.94558716 215.73094177 194.85873413 218.26727295 C 197.59593201 221.00955200 200.14218140 223.91146851 202.48675537 227.02819824 C 204.65602112 230.36000061 206.61767578 233.84051514 208.35807800 237.47621155 C 209.84184265 241.21994019 211.08401489 245.04943848 212.11499023 248.99150085 C 212.94775391 253.01502991 213.51673889 257.10293579 213.81373596 261.15548706 C 213.79815674 265.19525146 213.55513000 269.25634766 213.11682129 273.24578857 C 212.40783691 277.18649292 211.44458008 281.03662109 210.09747314 284.69134521 C 208.47055054 288.11666870 206.56607056 291.33901978 204.47592163 294.43045044 C 202.09420776 297.28097534 199.41441345 299.89318848 196.53047180 302.31170654 C 193.68907166 304.81127930 190.79959106 307.32617188 180.25001526 312.97290039" stroke-width="1.23845279" fill="rgb(246, 170, 179)" opacity="1.0" stroke="rgb(232, 187, 197)" stroke-opacity="0.7487197" stroke-linecap="round" stroke-linejoin="round"/>
    <path d="M 411.95904541 259.70556641 C 411.47741699 263.75408936 411.00854492 267.72048950 410.36578369 271.61013794 C 409.43093872 275.35821533 408.15045166 279.01678467 406.65255737 282.60513306 C 405.16632080 286.13873291 403.42639160 289.51916504 401.51855469 292.75903320 C 399.32220459 295.74606323 396.79022217 298.53799438 394.02355957 301.19079590 C 391.27102661 303.86914062 388.22625732 306.30688477 384.89227295 308.49758911 C 381.48855591 310.58459473 377.87600708 312.38513184 373.98681641 313.81399536 C 370.01498413 315.05847168 366.00769043 315.97418213 361.91363525 316.72644043 C 357.83993530 317.21978760 353.72570801 317.37423706 349.52301025 317.18197632 C 345.35662842 316.57757568 341.17480469 315.93655396 336.97488403 315.14819336 C 332.83480835 313.92269897 328.81854248 312.46603394 324.81661987 310.75915527 C 321.13070679 308.66677856 317.69598389 306.24337769 314.24038696 303.82604980 C 311.14245605 301.22634888 308.27444458 298.39471436 305.54483032 295.68460083 C 302.96646118 293.03094482 300.78692627 290.23168945 299.07440186 287.21188354 C 297.81149292 283.95651245 296.87945557 280.57546997 296.25979614 277.11218262 C 295.91848755 273.62145996 295.88482666 270.01312256 296.17138672 266.31597900 C 296.69790649 262.61251831 297.41772461 258.91162109 298.39434814 255.20730591 C 299.62188721 251.51681519 301.07910156 247.85426331 302.74383545 244.24421692 C 304.57647705 240.73728943 306.61746216 237.31187439 308.85601807 233.95350647 C 311.27911377 230.72447205 313.86691284 227.64448547 316.59805298 224.74746704 C 319.53591919 221.96022034 322.66677856 219.32444763 325.88784790 216.90116882 C 329.20800781 214.66120911 332.68994141 212.63400269 336.31216431 210.83526611 C 340.00674438 209.26254272 343.76721191 207.91676331 347.61474609 206.77673340 C 351.52484131 205.85066223 355.46994019 205.19631958 359.36001587 204.81248474 C 363.22781372 204.60453796 367.04043579 204.64189148 370.75836182 204.89082336 C 374.26928711 205.55659485 377.62454224 206.60211182 380.90298462 207.96293640 C 384.12918091 209.43519592 387.18685913 211.19837952 390.04394531 213.28567505 C 392.86163330 215.44142151 395.66967773 217.71580505 398.22991943 220.22595215 C 400.45870972 223.02302551 402.58422852 225.96145630 404.53283691 229.11862183 C 406.40844727 232.33561707 407.88180542 235.78340149 409.03305054 239.49455261 C 410.20971680 243.27949524 411.58316040 246.95048523 411.95904541 259.70556641" stroke-width="1.31848574" fill="rgb(248, 169, 180)" opacity="1.0" stroke="rgb(230, 183, 195)" stroke-opacity="0.8080887" stroke-linecap="round" stroke-linejoin="round"/>
    <path d="M 212.54629517 268.16564941 C 209.18817139 267.98559570 205.81044006 267.82681274 202.47021484 267.67318726 C 199.09298706 267.54473877 195.77032471 267.45059204 192.43823242 267.42117310 C 189.13952637 267.52337646 185.84840393 267.57867432 182.62542725 267.42630005 C 179.46919250 266.98812866 176.34320068 266.36416626 173.28489685 265.50939941 C 170.29722595 264.47122192 167.42716980 263.22488403 164.63685608 261.78897095 C 161.92340088 260.16918945 159.31889343 258.34695435 156.87818909 256.37893677 C 154.54602051 254.17825317 152.33921814 251.76229858 150.31080627 249.16629028 C 148.42643738 246.41047668 146.70242310 243.51194763 145.15461731 240.45928955 C 143.77957153 237.28497314 142.59175110 234.00584412 141.60791016 230.62005615 C 140.80615234 227.15374756 140.18609619 223.63175964 139.74642944 220.09825134 C 139.51295471 216.54730225 139.49792480 213.00155640 139.69647217 209.50698853 C 140.09884644 206.08424377 140.72810364 202.77453613 141.66444397 199.57664490 C 142.85731506 196.49935913 144.21047974 193.54129028 145.87232971 190.73493958 C 147.90982056 188.09452820 150.19534302 185.55126953 152.65785217 183.22773743 C 155.22644043 181.03620911 158.10023499 179.18562317 161.08554077 177.45144653 C 164.07904053 175.76240540 167.09226990 174.15177917 170.18145752 172.77499390 C 173.33145142 171.71133423 176.55332947 170.88964844 179.71006775 170.23898315 C 182.86761475 169.77102661 186.05905151 169.68769836 189.20039368 169.87707520 C 192.33161926 170.30007935 195.45780945 170.91781616 198.54833984 171.76255798 C 201.61335754 172.80975342 204.56774902 174.03442383 207.41746521 175.50360107 C 210.19952393 177.16630554 212.91369629 179.03138733 215.46275330 181.03047180 C 217.84953308 183.18981934 220.11053467 185.53446960 222.22097778 187.99458313 C 224.15765381 190.56904602 225.89408875 193.27384949 227.44284058 196.07392883 C 228.82064819 198.99266052 230.00859070 201.94532776 230.99450684 204.99958801 C 231.77766418 208.09405518 232.39006042 211.24504089 232.81350708 214.46537781 C 233.06558228 217.69241333 233.15676880 220.95005798 233.08729553 224.21835327 C 232.89198303 227.52191162 232.56671143 230.84469604 232.14529419 234.15565491 C 231.63645935 237.46362305 231.05021667 240.78981018 230.42205811 244.13032532 C 229.74681091 247.47230530 229.04589844 250.76284790 228.33947754 254.10937500 C 227.60801697 257.44219971 226.88343811 260.76922607 212.54629517 268.16564941" stroke-width="1.23567736" fill="rgb(247, 170, 180)" opacity="1.0" stroke="rgb(245, 168, 181)" stroke-opacity="0.54396445" stroke-linecap="round" stroke-linejoin="round"/>
    <path d="M 345.18075562 260.44461060 C 342.21228027 260.94168091 339.19549561 261.38250732 336.13885498 261.73748779 C 333.13360596 262.05682373 330.09872437 262.29516602 327.05172729 262.39093018 C 324.01586914 262.33840942 320.97482300 262.15515137 317.93762207 261.78775024 C 314.94375610 261.24288940 311.97708130 260.54000854 309.05538940 259.63482666 C 306.24105835 258.52188110 303.46551514 257.23922729 300.80462646 255.80039978 C 298.23809814 254.21891785 295.80621338 252.48243713 293.48022461 250.57266235 C 291.32083130 248.48388672 289.33129883 246.24325562 287.48477173 243.84152222 C 285.83190918 241.30401611 284.36856079 238.65040588 283.09140015 235.89602661 C 282.03039551 233.02400208 281.17297363 230.05201721 280.51538086 227.00425720 C 280.08966064 223.85984802 279.84967041 220.67710876 279.88085938 217.43768311 C 280.06848145 214.20866394 280.47476196 210.97952271 281.11676025 207.75785828 C 281.93975830 204.57760620 282.96746826 201.46720886 284.17272949 198.37394714 C 285.55056763 195.33711243 287.10885620 192.44659424 288.87112427 189.69252014 C 290.75036621 187.00312805 292.76098633 184.45248413 294.90679932 182.06445312 C 297.20407104 179.85751343 299.63818359 177.79632568 302.17132568 175.95886230 C 304.76815796 174.33975220 307.44094849 172.90687561 310.21813965 171.66806030 C 313.09185791 170.70349121 315.99304199 170.01571655 318.91528320 169.57737732 C 321.84191895 169.41900635 324.82080078 169.52117920 327.91098022 169.93070984 C 330.98898315 170.31979370 334.00122070 171.08418274 337.00244141 172.04911804 C 340.02539062 173.08726501 343.01852417 174.32803345 345.93362427 175.87266541 C 348.75469971 177.41613770 351.46112061 179.18748474 354.05502319 181.07954407 C 356.38980103 183.18089294 358.66778564 185.27990723 360.72079468 187.56086731 C 362.55838013 189.90422058 364.17861938 192.38105774 365.61578369 194.85920715 C 366.83999634 197.37876892 367.79049683 199.99058533 368.35238647 202.70111084 C 368.52874756 205.62666321 368.54571533 208.73399353 368.48019409 211.94692993 C 368.33068848 215.12344360 368.05944824 218.32968140 367.64181519 221.63299561 C 367.14547729 224.94720459 366.61297607 228.18618774 365.97888184 231.37516785 C 365.24142456 234.57150269 364.40988159 237.69274902 363.57739258 240.78419495 C 362.72973633 243.90022278 361.87301636 246.99102783 361.03036499 250.10838318 C 360.22512817 253.25009155 359.36767578 256.31643677 345.18075562 260.44461060" stroke-width="1.23823953" fill="rgb(248, 169, 182)" opacity="1.0" stroke="rgb(240, 166, 180)" stroke-opacity="0.663038" stroke-linecap="round" stroke-linejoin="round"/>
    <path d="M 198.04104614 243.25592041 C 196.91719055 238.26438904 195.71708679 233.27543640 194.50415039 228.28085327 C 193.30377197 223.29762268 192.12010193 218.28704834 190.97354126 213.28166199 C 189.89094543 208.32177734 188.88992310 203.33854675 187.99987793 198.36012268 C 187.30400085 193.36808777 186.75428772 188.37748718 186.41957092 183.46788025 C 186.35719299 178.58401489 186.56111145 173.72657776 187.02992249 168.93101501 C 187.72200012 164.25082397 189.07296753 159.74925232 190.80134583 155.30937195 C 192.61157227 150.88224792 194.70274353 146.51631165 197.11029053 142.31948853 C 199.75749207 138.26995850 202.70744324 134.32373047 206.02711487 130.67839050 C 209.56370544 127.15449524 213.46911621 123.94043732 217.59051514 121.01562500 C 221.84742737 118.24038696 226.28239441 115.92316437 230.96432495 114.07928467 C 235.77380371 112.58712006 240.60865784 111.39517975 245.52725220 110.46140289 C 250.45042419 109.78169250 255.31311035 109.58986664 260.19985962 109.84348297 C 265.08792114 110.48350525 269.92666626 111.53543091 274.61901855 112.96916199 C 279.26980591 114.59896088 283.74368286 116.60295868 288.06008911 118.92113495 C 292.15521240 121.46650696 296.00881958 124.28112793 299.68664551 127.39696503 C 303.19293213 130.60997009 306.31668091 134.15135193 309.21182251 137.91413879 C 311.83078003 141.81101990 314.14895630 145.96839905 316.08642578 150.29074097 C 317.86798096 154.61769104 319.25521851 159.08604431 320.13455200 163.69900513 C 320.62588501 168.39263916 320.87402344 173.15353394 320.92193604 177.96189880 C 320.75299072 182.81716919 320.32312012 187.59782410 319.66253662 192.31591797 C 318.72543335 197.00959778 317.57839966 201.60623169 316.17294312 206.06500244 C 314.46197510 210.38075256 312.52590942 214.53732300 310.31756592 218.48098755 C 307.82400513 222.24906921 305.09500122 225.78518677 302.10714722 229.08213806 C 298.86685181 232.15324402 295.41357422 234.98239136 291.73382568 237.56205750 C 287.86141968 239.90843201 283.79153442 242.02963257 279.54354858 243.91381836 C 275.14923096 245.57414246 270.62350464 247.02847290 265.93319702 248.30093384 C 261.14965820 249.42285156 256.27990723 250.34332275 251.33407593 251.18125916 C 246.30802917 251.86634827 241.23068237 252.47192383 236.12289429 253.01643372 C 230.99327087 253.50604248 225.82115173 253.94364929 220.65991211 254.37756348 C 215.49327087 254.80006409 210.29029846 255.20735168 198.04104614 243.25592041" stroke-width="1.19699264" fill="rgb(247, 169, 179)" opacity="1.0" stroke="rgb(240, 166, 179)" stroke-opacity="0.556575" stroke-linecap="round" stroke-linejoin="round"/>
    <path d="M 242.77796936 291.88369751 C 240.25886536 293.10281372 237.80760193 294.32489014 235.35765076 295.42675781 C 232.86068726 296.30551147 230.42852783 297.14138794 228.08113098 297.78863525 C 225.88275146 298.42712402 223.66807556 298.72689819 221.61918640 298.66552734 C 219.84577942 297.96691895 218.01933289 297.45889282 215.98680115 297.47311401 C 213.74737549 297.26510620 211.54879761 296.80596924 209.37661743 295.99044800 C 207.29821777 294.88195801 205.34965515 293.55410767 203.42375183 292.09451294 C 201.54191589 290.42642212 199.76838684 288.51028442 198.18080139 286.35366821 C 196.80787659 284.02328491 195.61708069 281.60333252 194.52545166 279.13958740 C 193.54429626 276.68756104 192.75874329 274.16577148 192.37806702 271.55926514 C 192.31158447 268.83795166 192.37174988 266.05499268 192.55688477 263.31692505 C 192.86811829 260.58306885 193.28575134 257.89047241 193.83187866 255.24656677 C 194.55191040 252.64610291 195.42457581 250.11431885 196.38771057 247.70141602 C 197.52589417 245.34442139 198.87580872 243.02127075 200.36105347 240.77566528 C 201.91497803 238.62005615 203.57493591 236.61991882 205.33256531 234.73268127 C 207.20747375 232.96067810 209.21549988 231.30671692 211.32009888 229.76164246 C 213.47366333 228.34074402 215.67828369 227.09977722 217.94671631 225.99414062 C 220.31159973 225.03051758 222.70732117 224.18258667 225.12222290 223.49327087 C 227.54122925 222.99830627 230.02049255 222.65489197 232.51402283 222.45024109 C 235.02360535 222.38000488 237.48464966 222.44192505 239.92027283 222.69934082 C 242.32490540 223.16156006 244.68492126 223.78068542 246.94967651 224.60287476 C 249.13642883 225.60527039 251.20240784 226.74137878 253.12779236 228.10305786 C 254.94436646 229.72402954 256.56832886 231.49501038 258.03900146 233.42085266 C 259.35119629 235.48826599 260.50076294 237.67103577 261.49884033 239.97509766 C 262.33596802 242.36869812 263.01629639 244.78210449 263.54837036 247.22288513 C 263.89471436 249.67944336 264.12225342 252.17626953 264.21069336 254.68801880 C 264.11071777 257.17303467 263.84921265 259.63796997 263.46102905 262.12371826 C 262.95932007 264.55361938 262.33309937 266.91229248 261.56982422 269.19744873 C 260.65039062 271.42025757 259.62927246 273.54440308 258.54168701 275.64306641 C 257.36346436 277.68688965 256.13919067 279.67764282 254.79965210 281.57080078 C 253.37451172 283.40136719 251.90844727 285.20462036 242.77796936 291.88369751" stroke-width="0.90700424" fill="rgb(246, 169, 181)" opacity="1.0" stroke="rgb(241, 170, 180)" stroke-opacity="0.47213054" stroke-linecap="round" stroke-linejoin="round"/>
    <path d="M 327.29324341 251.63426208 C 326.15005493 253.42120361 324.89941406 255.31530762 323.56460571 257.38208008 C 322.31936646 259.54360962 321.16058350 261.79785156 320.08660889 264.14309692 C 319.10058594 266.56808472 318.21374512 269.00366211 317.39065552 271.46786499 C 316.57061768 273.93948364 315.72073364 276.33435059 314.87631226 278.64276123 C 314.05456543 280.92468262 313.19293213 283.21246338 312.18341064 285.42858887 C 311.01980591 287.53298950 309.75140381 289.50894165 308.30017090 291.32238770 C 306.65805054 292.94531250 304.81851196 294.35531616 302.77026367 295.44528198 C 300.55630493 296.34570312 298.11358643 297.10537720 295.76956177 297.78149414 C 293.14248657 298.20913696 290.43060303 298.37991333 287.59130859 298.12594604 C 284.65701294 297.78082275 281.75631714 297.28265381 278.91464233 296.50762939 C 276.05880737 295.65304565 273.21597290 294.60440063 270.48632812 293.31478882 C 267.88876343 292.00405884 265.39093018 290.52380371 262.99868774 288.79949951 C 260.79650879 286.87548828 258.63769531 284.96179199 256.53839111 283.00970459 C 254.64375305 280.95599365 252.95712280 278.81378174 251.44468689 276.59832764 C 250.12573242 274.31661987 249.02680969 271.95184326 248.14236450 269.50299072 C 247.41918945 267.03073120 246.85978699 264.52859497 246.49269104 261.97625732 C 246.33866882 259.41439819 246.35630798 256.87338257 246.52770996 254.31900024 C 246.86247253 251.74488831 247.39596558 249.20790100 248.10855103 246.73643494 C 248.93341064 244.28158569 249.94007874 241.89035034 251.11763000 239.56463623 C 252.44493103 237.37547302 253.94920349 235.27069092 255.61865234 233.31976318 C 257.43225098 231.56414795 259.40451050 229.94117737 261.52597046 228.42581177 C 263.72030640 227.11027527 265.97781372 225.95025635 268.32296753 224.94425964 C 270.70858765 224.12492371 273.11044312 223.44747925 275.53225708 222.96252441 C 277.96835327 222.63743591 280.44677734 222.47137451 282.88284302 222.47023010 C 285.30905151 222.68981934 287.69869995 223.07571411 290.05258179 223.63743591 C 292.36840820 224.36682129 294.65542603 225.23306274 296.89770508 226.21499634 C 299.13470459 227.33786011 301.30621338 228.59979248 303.38977051 229.97308350 C 305.44836426 231.48631287 307.44766235 233.07798767 309.44155884 234.71604919 C 311.39883423 236.42428589 313.34143066 238.13777161 315.26165771 239.91458130 C 317.17199707 241.68165588 319.07907104 243.48684692 327.29324341 251.63426208" stroke-width="0.90690345" fill="rgb(247, 169, 180)" opacity="1.0" stroke="rgb(242, 170, 180)" stroke-opacity="0.5315759" stroke-linecap="round" stroke-linejoin="round"/>
    <path d="M 100.51082611 349.76727295 C 100.49788666 349.76712036 100.50080109 349.76333618 100.50963593 349.76733398 C 100.49673462 349.76351929 100.50028992 349.76058960 100.50289154 349.76751709 C 100.49282074 349.76181030 100.50327301 349.76071167 100.49623108 349.76028442 C 100.50128937 349.76306152 100.49943542 349.75793457 100.49624634 349.76104736 C 100.49563599 349.76382446 100.49778748 349.75048828 100.49306488 349.76217651 C 100.50109863 349.76043701 100.49370575 349.76455688 100.48804474 349.74856567 C 100.49694061 349.76510620 100.49878693 349.75811768 100.48676300 349.75891113 C 100.48989105 349.75686646 100.50231934 349.76785278 100.47988129 349.75592041 C 100.49589539 349.76080322 100.48903656 349.76486206 100.48498535 349.76220703 C 100.49274445 349.76330566 100.48430634 349.76461792 100.51082611 349.76727295" stroke-width="0.62885600" fill="rgb(255, 183, 197)" opacity="1.0" stroke="rgb(0, 0, 0)" stroke-opacity="1.0" stroke-linecap="round" stroke-linejoin="round"/>
    <path d="M 201.50637817 402.45782471 C 201.51148987 402.44342041 201.51271057 402.45523071 201.50114441 402.45266724 C 201.51135254 402.44332886 201.51795959 402.45721436 201.49783325 402.44955444 C 201.51535034 402.44702148 201.51138306 402.45483398 201.50456238 402.45166016 C 201.51838684 402.44869995 201.50332642 402.45129395 201.51150513 402.45236206 C 201.51658630 402.45010376 201.50341797 402.45169067 201.51261902 402.45056152 C 201.51921082 402.45364380 201.50323486 402.44833374 201.52021790 402.45169067 C 201.50935364 402.45700073 201.51071167 402.44699097 201.51712036 402.45465088 C 201.51757812 402.45901489 201.50431824 402.44729614 201.52340698 402.45288086 C 201.51336670 402.45837402 201.51325989 402.45016479 201.51828003 402.45825195 C 201.51795959 402.44808960 201.51473999 402.46261597 201.50637817 402.45782471" stroke-width="0.21826692" fill="rgb(237, 236, 200)" opacity="1.0" stroke="rgb(255, 255, 255)" stroke-opacity="1.0" stroke-linecap="round" stroke-linejoin="round"/>
    <path d="M 289.89477539 377.40158081 C 289.85198975 377.37902832 289.83953857 377.37628174 289.79772949 377.36950684 C 289.77877808 377.35058594 289.75079346 377.34866333 289.72747803 377.32928467 C 289.71194458 377.32037354 289.69635010 377.31661987 289.67895508 377.30273438 C 289.67935181 377.28820801 289.68118286 377.29873657 289.67669678 377.29959106 C 289.68560791 377.28652954 289.71554565 377.30401611 289.72988892 377.31405640 C 289.75918579 377.32717896 289.78646851 377.34896851 289.83029175 377.38037109 C 289.87063599 377.39276123 289.92230225 377.43820190 289.96737671 377.46865845 C 290.02734375 377.49761963 290.08612061 377.55078125 290.14187622 377.58248901 C 290.20312500 377.62268066 290.27377319 377.67630005 290.33468628 377.70794678 C 290.39822388 377.75164795 290.46701050 377.79907227 289.89477539 377.40158081" stroke-width="1.08289838" fill="rgb(229, 255, 255)" opacity="1.0" stroke="rgb(213, 240, 242)" stroke-opacity="1.0" stroke-linecap="round" stroke-linejoin="round"/>
    <path d="M 400.89404297 420.22967529 C 400.90219116 420.23452759 400.89041138 420.22906494 400.90203857 420.24081421 C 400.89947510 420.22912598 400.89031982 420.22677612 400.90795898 420.24118042 C 400.89190674 420.23666382 400.89578247 420.21932983 400.90756226 420.24157715 C 400.89175415 420.23422241 400.89279175 420.22726440 400.91406250 420.24032593 C 400.88375854 420.23092651 400.90170288 420.23062134 400.90203857 420.24005127 C 400.89492798 420.22540283 400.89874268 420.23223877 400.90011597 420.23855591 C 400.89837646 420.22958374 400.89712524 420.22503662 400.90646362 420.23406982 C 400.89437866 420.22885132 400.90286255 420.22848511 400.90258789 420.22674561 C 400.89990234 420.22872925 400.89923096 420.22720337 400.90698242 420.21868896 C 400.89907837 420.23104858 400.90570068 420.21780396 400.89404297 420.22967529" stroke-width="0.80000001" fill="rgb(255, 183, 197)" opacity="1.0" stroke="rgb(0, 0, 0)" stroke-opacity="1.0" stroke-linecap="round" stroke-linejoin="round"/>
    <path d="M 147.12521362 445.29882812 C 147.12261963 445.32928467 147.12899780 445.30770874 147.11711121 445.31289673 C 147.11897278 445.32409668 147.13014221 445.31420898 147.11291504 445.32113647 C 147.11776733 445.32516479 147.12025452 445.31402588 147.11167908 445.32452393 C 147.11648560 445.33023071 147.11338806 445.31958008 147.10842896 445.32104492 C 147.11883545 445.33541870 147.10958862 445.31976318 147.10881042 445.32574463 C 147.11668396 445.32632446 147.11032104 445.33169556 147.10920715 445.31570435 C 147.11567688 445.33377075 147.10900879 445.33093262 147.11026001 445.31661987 C 147.11288452 445.33401489 147.12254333 445.32638550 147.09638977 445.32308960 C 147.12841797 445.32797241 147.10841370 445.32958984 147.11784363 445.32403564 C 147.11541748 445.32672119 147.11605835 445.32598877 147.12521362 445.29882812" stroke-width="0.29447475" fill="rgb(255, 255, 255)" opacity="1.0" stroke="rgb(181, 148, 150)" stroke-opacity="1.0" stroke-linecap="round" stroke-linejoin="round"/>
    <path d="M 345.18716431 430.54583740 C 345.14343262 430.52761841 345.06958008 430.47537231 345.01464844 430.43841553 C 344.94833374 430.40277100 344.88998413 430.34707642 344.82635498 430.30334473 C 344.77880859 430.25000000 344.73089600 430.17825317 344.68249512 430.13900757 C 344.67376709 430.06542969 344.64312744 429.99685669 344.64190674 429.94064331 C 344.66180420 429.87728882 344.67532349 429.81097412 344.70944214 429.76083374 C 344.76037598 429.71035767 344.81280518 429.64813232 344.88784790 429.61557007 C 344.95980835 429.57901001 345.04339600 429.52813721 345.13894653 429.50408936 C 345.22741699 429.46310425 345.32879639 429.43066406 345.42617798 429.39660645 C 345.53659058 429.35476685 345.61984253 429.31997681 345.72418213 429.28848267 C 345.83102417 429.23294067 345.90911865 429.21350098 345.18716431 430.54583740" stroke-width="2.00000000" fill="rgb(208, 245, 251)" opacity="1.0" stroke="rgb(210, 241, 245)" stroke-opacity="0.9930659" stroke-linecap="round" stroke-linejoin="round"/>
    <path d="M 285.55215454 233.07412720 C 287.89276123 236.35177612 289.93655396 239.62675476 291.15994263 242.73686218 C 291.73919678 245.36235046 291.58984375 247.14668274 290.52780151 247.96273804 C 288.57131958 247.66986084 286.09317017 246.50267029 283.67248535 244.67626953 C 281.67663574 242.28512573 279.88940430 239.95126343 278.09036255 238.50825500 C 276.33032227 238.52352905 274.87893677 239.98672485 273.44458008 242.25389099 C 271.64669800 244.53184509 269.34506226 246.35710144 266.91555786 247.54911804 C 264.74765015 247.86718750 263.06051636 247.29168701 262.16394043 245.83821106 C 262.41860962 243.58067322 262.67410278 240.92620850 261.64852905 238.25427246 C 259.17114258 235.60812378 256.74829102 232.43904114 254.69946289 228.84082031 C 252.23007202 225.72390747 250.18901062 223.11650085 249.18632507 221.04570007 C 249.79364014 219.46073914 251.69027710 218.41653442 254.54847717 217.90213013 C 257.82675171 217.95364380 261.01818848 217.25553894 263.87152100 215.44071960 C 266.73944092 213.77604675 269.87417603 213.16751099 272.74490356 212.49037170 C 274.67019653 210.54383850 275.88632202 207.88366699 276.91122437 205.36579895 C 278.00851440 203.60881042 279.25234985 202.98912048 280.58309937 203.65420532 C 281.94686890 205.50762939 283.07135010 208.12351990 283.69390869 211.13400269 C 283.64263916 214.17538452 283.12872314 216.94338989 282.91912842 219.19248962 C 283.50231934 220.65760803 284.96417236 221.20085144 287.04696655 220.68807983 C 289.76770020 219.60501099 293.07095337 219.09730530 297.01043701 219.61843872 C 301.39123535 221.12821960 306.01910400 223.05212402 285.55215454 233.07412720" stroke-width="1.99304652" fill="rgb(253, 212, 224)" opacity="1.0" stroke="rgb(252, 209, 219)" stroke-opacity="0.9728206" stroke-linecap="round" stroke-linejoin="round"/>
    <path d="M 218.78503418 269.87030029 C 213.82557678 269.31167603 209.34419250 268.88476562 205.77947998 269.20565796 C 203.32649231 271.15093994 201.58758545 273.72622681 200.04112244 275.60522461 C 198.37403870 276.06497192 196.80023193 275.03564453 195.60343933 272.81933594 C 194.79801941 269.81973267 193.74955750 267.12240601 191.75743103 265.58142090 C 188.72105408 265.46090698 185.36636353 265.65109253 182.43472290 265.12011719 C 180.71189880 263.64965820 180.55989075 261.44439697 181.96343994 258.92343140 C 184.70515442 256.64224243 187.39045715 254.50152588 188.90315247 252.40742493 C 188.38986206 250.48193359 186.29208374 248.80273438 183.57150269 246.98458862 C 181.15843201 244.67059326 179.72377014 242.14100647 179.62426758 239.70533752 C 180.88706970 237.95976257 183.29606628 237.09770203 186.35766602 237.12068176 C 189.58953857 237.90188599 192.57472229 239.19589233 195.09878540 240.21510315 C 197.01535034 239.87472534 198.23751831 238.15155029 199.18891907 235.44027710 C 200.40235901 232.65188599 201.96069336 230.40615845 203.57968140 229.24462891 C 205.04223633 229.46745300 206.13989258 231.05575562 206.83558655 233.70637512 C 207.08613586 236.84062195 207.00292969 239.85379028 207.28485107 242.19538879 C 208.60456848 243.26786804 210.71278381 243.11912537 213.46107483 242.27381897 C 216.64086914 241.94580078 219.79461670 242.16740417 222.52044678 242.82604980 C 224.48713684 243.81167603 225.33395386 245.13400269 224.80282593 246.84095764 C 223.03807068 248.86010742 220.41819763 250.86639404 217.13256836 252.43894958 C 213.48847961 253.28308105 209.86703491 253.85195923 218.78503418 269.87030029" stroke-width="2.00000000" fill="rgb(251, 215, 223)" opacity="1.0" stroke="rgb(254, 222, 231)" stroke-opacity="0.69436955" stroke-linecap="round" stroke-linejoin="round"/>
    <path d="M 245.89239502 169.00918579 C 243.41940308 172.26692200 240.81039429 175.24211121 238.07815552 177.47329712 C 235.40954590 178.67881775 233.13362122 178.87828064 231.41375732 178.16743469 C 230.38551331 176.70320129 230.41058350 174.69360352 231.38378906 172.35464478 C 233.13391113 170.07232666 235.13388062 168.03005981 236.83532715 166.25898743 C 237.64851379 164.73384094 237.36936951 163.54814148 235.86412048 162.73973083 C 233.32740784 162.17115784 230.40290833 161.40585327 227.59259033 160.05758667 C 225.17153931 158.11334229 223.34471130 155.85659790 222.39425659 153.49208069 C 222.55912781 151.38421631 223.84147644 149.74468994 225.97337341 148.65986633 C 228.71824646 148.26818848 231.97595215 148.45681763 235.43498230 148.73117065 C 238.80560303 148.93432617 241.61224365 149.06396484 243.62127686 148.38972473 C 244.63648987 146.44404602 245.16806030 143.71406555 245.93649292 140.89851379 C 247.32612610 138.53713989 249.03768921 137.08732605 250.82725525 137.06436157 C 252.45774841 138.63568115 253.63627625 141.29124451 254.09066772 144.56188965 C 253.81713867 147.90672302 253.88830566 150.64404297 255.02714539 152.33064270 C 257.38848877 152.70379639 260.58612061 152.36543274 264.04315186 152.12286377 C 267.24688721 152.47694397 269.52337646 153.60079956 270.36495972 155.25776672 C 269.42227173 157.32514954 267.16278076 159.37867737 264.06130981 161.04359436 C 260.60900879 162.15522766 257.69604492 163.41166687 256.30609131 165.30230713 C 257.19158936 167.79420471 259.35775757 171.03018188 261.37811279 175.30162048 C 262.08709717 180.65806580 261.88473511 186.44503784 245.89239502 169.00918579" stroke-width="2.00000000" fill="rgb(253, 213, 227)" opacity="1.0" stroke="rgb(253, 210, 223)" stroke-opacity="0.98076236" stroke-linecap="round" stroke-linejoin="round"/>
    <path d="M 356.21197510 270.51943970 C 352.15789795 270.66198730 348.65554810 269.92630005 345.88458252 268.11105347 C 343.83862305 265.45645142 342.38284302 262.62786865 340.89483643 260.71371460 C 339.05856323 260.54840088 337.03152466 261.91259766 334.80175781 264.09915161 C 332.27734375 266.00671387 329.43591309 267.07943726 326.61505127 267.18838501 C 324.38647461 266.40411377 323.35690308 264.88806152 323.61987305 262.71023560 C 324.94909668 260.33496094 327.11843872 258.16101074 329.52798462 256.38916016 C 331.51828003 254.88700867 332.26477051 253.38623047 331.43328857 251.88552856 C 329.27935791 250.73901367 326.50283813 249.48538208 323.80685425 247.69767761 C 321.59951782 245.33686829 320.02279663 242.78752136 319.50659180 240.35325623 C 320.50201416 238.53642273 322.81658936 237.50617981 325.97567749 237.31539917 C 329.39059448 237.71957397 332.65856934 238.18391418 335.37911987 237.78680420 C 337.16049194 235.91644287 338.30776978 233.11749268 339.43637085 230.20140076 C 340.81341553 227.98814392 342.38192749 226.83790588 344.02499390 227.13421631 C 345.48522949 228.85316467 346.62860107 231.52490234 347.24371338 234.71687317 C 347.23199463 237.88061523 347.13473511 240.61764526 347.86248779 242.55084229 C 349.78674316 243.20556641 352.46902466 242.76867676 355.57571411 242.11267090 C 358.74008179 242.10517883 361.59747314 242.99560547 363.89529419 244.38265991 C 365.46786499 245.83389282 365.68640137 247.34278870 364.53353882 249.02865601 C 362.48327637 250.94935608 359.65390015 252.62615967 356.26181030 253.49014282 C 352.58322144 253.69642639 348.93609619 253.48773193 356.21197510 270.51943970" stroke-width="2.00000000" fill="rgb(250, 213, 225)" opacity="1.0" stroke="rgb(252, 215, 224)" stroke-opacity="0.8447345" stroke-linecap="round" stroke-linejoin="round"/>
    <path d="M 160.96891785 266.66812134 C 159.49868774 270.10116577 157.46360779 272.75601196 154.77102661 274.37960815 C 151.84277344 275.31152344 149.26338196 276.10580444 147.72131348 277.47039795 C 147.63339233 279.51412964 148.85829163 281.74676514 150.58924866 284.01220703 C 151.81767273 286.37509155 152.17031860 288.79098511 151.62164307 290.77426147 C 149.90196228 291.80569458 147.47257996 291.76324463 144.96516418 290.90036011 C 142.69741821 289.41217041 140.99499512 287.37561035 139.96292114 284.94573975 C 139.48548889 282.40957642 138.68121338 280.67172241 137.18333435 280.28674316 C 135.25965881 281.08642578 132.98471069 282.71408081 130.40229797 284.57574463 C 127.69869995 286.18560791 125.05109406 287.29598999 122.72681427 287.71511841 C 121.01337433 287.40704346 120.28870392 286.33639526 120.65073395 284.53024292 C 121.77498627 282.22555542 123.57661438 279.85421753 125.75882721 277.80920410 C 127.41498566 276.09030151 127.82663727 274.47238159 126.72990417 272.98214722 C 124.27742767 271.62396240 121.72645569 269.95294189 119.74452209 267.87280273 C 118.68852234 265.53082275 118.66096497 263.30944824 119.78756714 261.47299194 C 121.89225769 260.14587402 124.64637756 259.72213745 127.58333588 260.39746094 C 130.26614380 262.13128662 132.64634705 263.30297852 134.65264893 262.54360962 C 136.06571960 260.04751587 137.29455566 256.99874878 138.87435913 254.27337646 C 140.52371216 252.42089844 142.05111694 251.80636597 143.32586670 252.65328979 C 144.37420654 254.80735779 144.87046814 257.68063354 144.49836731 260.80496216 C 143.31266785 263.71609497 141.92486572 266.28610229 160.96891785 266.66812134" stroke-width="1.94972765" fill="rgb(252, 213, 224)" opacity="1.0" stroke="rgb(253, 213, 219)" stroke-opacity="0.93954736" stroke-linecap="round" stroke-linejoin="round"/>
    <path d="M 397.63858032 414.51754761 C 399.31243896 414.40481567 400.90173340 414.37878418 402.41284180 414.51535034 C 403.80145264 414.85617065 405.03485107 415.38366699 406.00802612 416.07177734 C 406.80392456 416.88455200 407.40039062 417.82894897 407.82147217 418.86883545 C 408.12570190 420.01303101 408.31277466 421.22378540 408.29962158 422.42288208 C 408.07864380 423.57812500 407.77099609 424.63662720 407.32797241 425.55563354 C 406.64263916 426.32186890 405.80865479 426.94140625 404.82345581 427.41665649 C 403.76846313 427.73718262 402.66085815 427.93222046 401.46865845 427.99575806 C 400.29696655 427.98239136 399.11904907 427.85299683 398.02355957 427.50057983 C 396.95080566 426.76641846 395.91574097 425.71478271 394.97848511 424.36212158 C 394.04336548 422.73037720 393.07699585 421.05142212 397.63858032 414.51754761" stroke-width="1.88290322" fill="rgb(244, 214, 217)" opacity="1.0" stroke="rgb(233, 219, 227)" stroke-opacity="0.7981558" stroke-linecap="round" stroke-linejoin="round"/>
    <path d="M 437.91683960 319.83880615 C 437.33050537 320.19827271 436.74185181 320.49667358 436.19198608 320.79067993 C 435.60226440 321.03195190 435.05133057 321.23278809 434.50219727 321.41204834 C 433.98620605 321.55395508 433.47671509 321.60903931 433.00460815 321.64627075 C 432.54641724 321.62054443 432.10290527 321.50729370 431.69277954 321.34640503 C 431.30923462 321.14352417 430.92285156 320.86874390 430.60174561 320.54229736 C 430.29519653 320.18289185 430.01507568 319.78942871 429.77478027 319.35330200 C 429.57141113 318.90579224 429.39440918 318.43002319 429.26376343 317.94009399 C 429.17639160 317.41482544 429.12622070 316.88720703 429.12432861 316.33679199 C 429.18289185 315.75732422 429.28060913 315.16976929 429.42236328 314.55783081 C 429.59722900 313.90194702 429.79412842 313.24789429 437.91683960 319.83880615" stroke-width="2.00000000" fill="rgb(228, 238, 242)" opacity="1.0" stroke="rgb(222, 239, 242)" stroke-opacity="0.8677907" stroke-linecap="round" stroke-linejoin="round"/>
    <path d="M 98.17768097 343.42141724 C 99.53797913 343.24502563 100.92679596 343.13467407 102.24911499 343.24246216 C 103.52633667 343.48547363 104.69160461 343.90536499 105.70136261 344.51354980 C 106.51319885 345.36059570 107.18362427 346.33023071 107.72252655 347.43502808 C 108.17642975 348.55465698 108.51226044 349.73593140 108.68113708 350.90151978 C 108.63835144 352.12716675 108.45865631 353.32611084 108.09500122 354.45016479 C 107.52573395 355.48529053 106.78889465 356.37274170 105.90274811 357.07302856 C 104.85390472 357.60476685 103.73320770 357.93728638 102.50109863 358.11041260 C 101.20482635 358.09140015 99.88103485 357.87127686 98.63217926 357.37545776 C 97.46353149 356.51638794 96.38770294 355.26388550 95.34381104 353.66531372 C 94.21483612 351.84710693 93.05510712 349.95822144 98.17768097 343.42141724" stroke-width="1.76982188" fill="rgb(243, 215, 219)" opacity="1.0" stroke="rgb(230, 225, 231)" stroke-opacity="0.80173486" stroke-linecap="round" stroke-linejoin="round"/>
    <path d="M 201.99212646 399.64501953 C 202.91052246 400.66519165 203.74177551 401.69442749 204.38002014 402.77911377 C 204.73562622 403.96655273 204.90797424 405.17276001 204.91795349 406.35070801 C 204.85238647 407.49255371 204.70338440 408.56509399 204.44003296 409.55612183 C 203.92877197 410.41134644 203.26492310 411.13345337 202.47805786 411.74966431 C 201.62620544 412.24850464 200.66233826 412.53924561 199.60055542 412.69512939 C 198.54777527 412.71899414 197.48115540 412.56875610 196.43981934 412.22558594 C 195.45559692 411.71862793 194.48150635 411.06033325 193.63693237 410.29562378 C 192.89842224 409.40869141 192.40727234 408.33364868 192.15428162 407.08636475 C 192.10705566 405.66061401 192.24081421 404.10214233 192.58924866 402.42233276 C 193.05534363 400.62725830 193.59074402 398.75042725 201.99212646 399.64501953" stroke-width="1.85209382" fill="rgb(243, 214, 219)" opacity="1.0" stroke="rgb(233, 218, 226)" stroke-opacity="0.83812034" stroke-linecap="round" stroke-linejoin="round"/>
    <path d="M 439.86654663 377.80944824 C 439.77462769 379.39413452 439.57699585 380.92501831 439.15625000 382.37295532 C 438.50363159 383.66647339 437.63690186 384.70764160 436.60949707 385.48965454 C 435.52163696 386.06018066 434.39608765 386.37557983 433.27658081 386.49444580 C 432.20440674 386.51876831 431.19561768 386.38333130 430.23233032 386.12661743 C 429.38137817 385.73989868 428.63439941 385.18719482 428.02120972 384.53112793 C 427.55584717 383.77902222 427.19674683 382.89718628 426.94223022 381.92340088 C 426.77810669 380.88919067 426.76412964 379.82049561 426.86941528 378.75912476 C 427.14758301 377.74264526 427.62991333 376.76318359 428.30599976 375.83340454 C 429.26400757 374.99035645 430.48880005 374.23129272 431.93368530 373.56463623 C 433.55364990 372.95150757 435.22109985 372.27429199 439.86654663 377.80944824" stroke-width="1.85246217" fill="rgb(246, 233, 238)" opacity="1.0" stroke="rgb(231, 234, 242)" stroke-opacity="0.8957684" stroke-linecap="round" stroke-linejoin="round"/>
    <path d="M 170.11662292 358.09729004 C 169.18125916 357.20190430 168.30216980 356.30651855 167.49435425 355.36294556 C 166.86987305 354.38504028 166.43608093 353.37414551 166.16053772 352.33471680 C 166.13894653 351.31121826 166.26086426 350.30261230 166.50642395 349.35348511 C 166.94277954 348.46807861 167.49462891 347.67471313 168.14309692 346.95611572 C 168.89093018 346.34481812 169.72801208 345.85394287 170.58079529 345.46261597 C 171.53294373 345.24676514 172.48522949 345.15362549 173.46240234 345.10675049 C 174.39520264 345.16305542 175.33142090 345.35717773 176.18734741 345.67214966 C 176.95391846 346.16662598 177.62559509 346.81372070 178.13307190 347.66546631 C 178.47950745 348.71395874 178.63830566 349.96514893 178.74176025 351.40698242 C 178.88447571 352.94595337 179.02348328 354.60317993 170.11662292 358.09729004" stroke-width="1.95981550" fill="rgb(246, 234, 239)" opacity="1.0" stroke="rgb(230, 235, 242)" stroke-opacity="0.9385309" stroke-linecap="round" stroke-linejoin="round"/>
    <path d="M 155.89404297 383.46667480 C 156.63685608 384.48699951 157.33566284 385.50964355 157.88290405 386.57290649 C 158.28968811 387.64279175 158.50148010 388.74182129 158.50630188 389.78134155 C 158.39453125 390.75555420 158.14663696 391.67633057 157.79882812 392.49398804 C 157.36889648 393.22875977 156.84698486 393.86172485 156.21334839 394.35076904 C 155.45939636 394.67733765 154.65263367 394.87316895 153.77598572 394.96426392 C 152.89250183 394.99789429 152.00555420 394.98629761 151.09207153 394.91873169 C 150.23069763 394.71173096 149.42800903 394.37051392 148.73233032 393.84683228 C 148.16816711 393.12026978 147.72772217 392.23629761 147.41462708 391.16833496 C 147.26832581 389.93405151 147.27154541 388.57910156 147.34298706 387.14324951 C 147.44827271 385.61312866 147.56642151 384.04232788 155.89404297 383.46667480" stroke-width="1.87134635" fill="rgb(244, 233, 240)" opacity="1.0" stroke="rgb(232, 234, 243)" stroke-opacity="0.86174697" stroke-linecap="round" stroke-linejoin="round"/>
    <path d="M 422.45965576 316.82861328 C 423.55783081 316.60125732 424.65524292 316.38360596 425.71423340 316.24353027 C 426.76364136 316.20343018 427.79083252 316.27310181 428.74539185 316.51055908 C 429.68264771 316.87832642 430.56094360 317.38769531 431.35296631 317.99896240 C 432.09216309 318.66464233 432.70458984 319.42691040 433.17938232 320.23007202 C 433.49749756 321.07962036 433.65994263 321.96759033 433.69689941 322.83480835 C 433.61990356 323.64480591 433.35098267 324.41247559 432.94345093 325.12689209 C 432.41748047 325.77246094 431.75717163 326.38885498 431.03396606 326.93783569 C 430.26025391 327.39657593 429.37887573 327.72912598 428.40002441 327.89016724 C 427.33746338 327.85153198 426.16900635 327.66983032 424.89895630 327.31982422 C 423.53399658 326.86514282 422.07803345 326.35855103 422.45965576 316.82861328" stroke-width="1.88425159" fill="rgb(247, 234, 237)" opacity="1.0" stroke="rgb(254, 229, 237)" stroke-opacity="0.3526126" stroke-linecap="round" stroke-linejoin="round"/>
    <path d="M 152.93344116 451.61682129 C 151.67750549 451.76419067 150.46018982 451.83737183 149.30690002 451.90054321 C 148.23025513 451.92883301 147.21942139 451.74826050 146.29035950 451.38015747 C 145.49394226 450.83758545 144.79273987 450.11190796 144.19480896 449.30282593 C 143.70358276 448.43804932 143.41078186 447.50759888 143.31385803 446.52441406 C 143.43539429 445.49935913 143.72677612 444.46044922 144.11096191 443.47595215 C 144.57577515 442.54742432 145.18395996 441.71105957 145.87629700 440.95883179 C 146.64497375 440.33029175 147.48594666 439.81973267 148.38099670 439.41339111 C 149.37658691 439.27896118 150.41822815 439.34762573 151.54028320 439.70590210 C 152.64465332 440.39276123 153.72921753 441.37554932 154.81439209 442.62637329 C 155.93795776 444.02630615 157.10214233 445.44506836 152.93344116 451.61682129" stroke-width="1.86502445" fill="rgb(244, 212, 216)" opacity="1.0" stroke="rgb(230, 223, 228)" stroke-opacity="0.85454255" stroke-linecap="round" stroke-linejoin="round"/>
    <path d="M 356.64422607 443.49676514 C 356.74670410 444.68310547 356.82058716 445.79656982 356.73672485 446.87969971 C 356.47183228 447.89672852 356.01184082 448.83480835 355.46020508 449.67297363 C 354.74594116 450.38378906 353.95294189 450.96826172 353.09741211 451.40985107 C 352.14196777 451.67138672 351.18997192 451.78054810 350.18646240 451.78668213 C 349.18334961 451.71511841 348.27014160 451.46676636 347.37652588 451.08255005 C 346.55239868 450.50851440 345.80157471 449.78787231 345.14971924 448.96221924 C 344.61614990 448.04895020 344.30224609 447.03237915 344.13235474 445.97592163 C 344.12014771 444.82604980 344.35403442 443.65423584 344.84991455 442.45089722 C 345.62792969 441.27160645 346.70721436 440.13812256 348.06295776 439.06225586 C 349.59423828 438.00021362 351.20162964 436.84548950 356.64422607 443.49676514" stroke-width="1.73896539" fill="rgb(243, 213, 216)" opacity="1.0" stroke="rgb(228, 225, 230)" stroke-opacity="0.9285282" stroke-linecap="round" stroke-linejoin="round"/>
    <path d="M 83.57015228 382.44287109 C 84.48099518 383.54846191 85.31561279 384.61560059 85.99742889 385.72265625 C 86.46086884 386.82800293 86.64977264 387.94067383 86.68992615 389.05395508 C 86.59586334 390.10137939 86.37409210 391.10546875 86.01189423 392.02709961 C 85.52313995 392.81787109 84.91470337 393.49713135 84.25435638 394.07843018 C 83.45825958 394.45742798 82.63481140 394.69519043 81.74244690 394.82095337 C 80.82738495 394.83795166 79.92450714 394.77734375 79.07301331 394.64343262 C 78.24279022 394.37133789 77.55149841 393.92825317 76.93801880 393.30200195 C 76.41188812 392.50662231 75.95522308 391.58270264 75.61258698 390.52697754 C 75.43353271 389.32434082 75.39813232 388.00994873 75.50048065 386.58529663 C 75.61520386 385.10665894 75.78500366 383.54049683 83.57015228 382.44287109" stroke-width="1.95271039" fill="rgb(244, 235, 239)" opacity="1.0" stroke="rgb(228, 234, 242)" stroke-opacity="0.8988927" stroke-linecap="round" stroke-linejoin="round"/>
    <path d="M 307.45263672 388.61337280 C 308.30923462 388.07571411 309.17047119 387.53863525 310.06704712 387.05014038 C 310.98739624 386.69421387 311.90957642 386.50863647 312.82864380 386.43240356 C 313.69833374 386.50161743 314.55889893 386.65933228 315.36318970 386.94656372 C 316.10592651 387.33795166 316.79806519 387.80822754 317.42016602 388.35089111 C 317.92752075 388.93896484 318.32635498 389.62234497 318.55453491 390.35833740 C 318.64785767 391.18011475 318.64376831 392.03341675 318.49783325 392.88897705 C 318.24072266 393.73019409 317.84573364 394.58163452 317.28018188 395.39144897 C 316.57519531 396.13204956 315.75415039 396.79974365 314.77114868 397.30725098 C 313.58224487 397.57617188 312.21752930 397.65002441 310.68972778 397.64184570 C 309.06253052 397.64120483 307.34536743 397.67739868 307.45263672 388.61337280" stroke-width="2.00000000" fill="rgb(245, 231, 238)" opacity="1.0" stroke="rgb(230, 236, 242)" stroke-opacity="0.90738" stroke-linecap="round" stroke-linejoin="round"/>
    <path d="M 62.85099030 432.01885986 C 62.19889450 431.18032837 61.61477661 430.33145142 61.00764084 429.49765015 C 60.55535507 428.64828491 60.23258591 427.80929565 60.07637405 426.95199585 C 60.08391953 426.06469727 60.15979385 425.22521973 60.31283569 424.37026978 C 60.53725815 423.56585693 60.84501266 422.82089233 61.29381180 422.14852905 C 61.88396072 421.58700562 62.57657623 421.11520386 63.37636948 420.76162720 C 64.24736786 420.50088501 65.15421295 420.36398315 66.09826660 420.29010010 C 66.99530792 420.26461792 67.82817841 420.36798096 68.61371613 420.65490723 C 69.29509735 421.11541748 69.85037231 421.80413818 70.25372314 422.67242432 C 70.50566101 423.74465942 70.58687592 425.00885010 70.61907959 426.39660645 C 70.67018890 427.94378662 70.76240540 429.52038574 62.85099030 432.01885986" stroke-width="1.91401255" fill="rgb(246, 232, 237)" opacity="1.0" stroke="rgb(229, 235, 241)" stroke-opacity="0.8814866" stroke-linecap="round" stroke-linejoin="round"/>
    <path d="M 106.46540070 421.51217651 C 106.14730072 420.66259766 105.86694336 419.76861572 105.56494141 418.92150879 C 105.30077362 418.13009644 104.93887329 417.42446899 104.41979218 416.86950684 C 103.90837860 416.42730713 103.54735565 415.97549438 103.39019012 415.57739258 C 103.59588623 415.19168091 104.04488373 414.85845947 104.62150574 414.48727417 C 105.25177002 414.04415894 105.80454254 413.47854614 106.24903870 412.84097290 C 106.51174164 412.13229370 106.67421722 411.45690918 106.80564117 410.89456177 C 107.00753784 410.49761963 107.28487396 410.34500122 107.60985565 410.48425293 C 107.89559937 410.92056274 108.17469025 411.58837891 108.47468567 412.35144043 C 108.93343353 413.03530884 109.59107971 413.63247681 110.38784027 414.16375732 C 111.20935059 414.68960571 112.05274200 415.23968506 106.46540070 421.51217651" stroke-width="2.00000000" fill="rgb(244, 244, 246)" opacity="1.0" stroke="rgb(247, 251, 251)" stroke-opacity="0.8004411" stroke-linecap="round" stroke-linejoin="round"/>
    <path d="M 392.35671997 332.26742554 C 392.05984497 332.89797974 391.75964355 333.50894165 391.49459839 334.14352417 C 391.26559448 334.76400757 391.06707764 335.31356812 390.82077026 335.88174438 C 390.53900146 336.37005615 390.20150757 336.77951050 389.81210327 337.07565308 C 389.40493774 337.24804688 388.91461182 337.30233765 388.38839722 337.23162842 C 387.83755493 337.01852417 387.22622681 336.73455811 386.55642700 336.38711548 C 385.88473511 335.97344971 385.23632812 335.46939087 384.63995361 334.83477783 C 384.13192749 334.11389160 383.66342163 333.39282227 383.22210693 332.65182495 C 382.94253540 331.91567993 382.87738037 331.17864990 383.10812378 330.42529297 C 383.55883789 329.62948608 384.16156006 328.82739258 384.80032349 327.92080688 C 385.40777588 326.99557495 385.98266602 326.07153320 392.35671997 332.26742554" stroke-width="1.71080196" fill="rgb(241, 244, 245)" opacity="1.0" stroke="rgb(238, 247, 249)" stroke-opacity="0.9531434" stroke-linecap="round" stroke-linejoin="round"/>
    <path d="M 402.67965698 351.88296509 C 403.56951904 352.35037231 404.46508789 352.83581543 405.25390625 353.40286255 C 406.01943970 354.05749512 406.69177246 354.72103882 407.39855957 355.25408936 C 408.21905518 355.58056641 409.06707764 355.72769165 409.84738159 355.83370972 C 410.45535278 356.00921631 410.88153076 356.33212280 411.05578613 356.75354004 C 411.01571655 357.27645874 410.81964111 357.89202881 410.42706299 358.48086548 C 409.92788696 359.09692383 409.34725952 359.71493530 408.70385742 360.31747437 C 408.03067017 360.95410156 407.32717896 361.54611206 406.54922485 362.06488037 C 405.71386719 362.44439697 404.77960205 362.54074097 403.81729126 362.33294678 C 402.82885742 361.84603882 401.74151611 361.15838623 400.61978149 360.42578125 C 399.40280151 359.71664429 398.13583374 358.98828125 402.67965698 351.88296509" stroke-width="2.00000000" fill="rgb(240, 247, 246)" opacity="1.0" stroke="rgb(224, 241, 242)" stroke-opacity="0.8604761" stroke-linecap="round" stroke-linejoin="round"/>
    <path d="M 355.51443481 399.04864502 C 355.04629517 399.66757202 354.56338501 400.30535889 354.07015991 400.91976929 C 353.54397583 401.53408813 353.01885986 402.06970215 352.46087646 402.53338623 C 351.93890381 402.93972778 351.47521973 403.30380249 351.06030273 403.57070923 C 350.69915771 403.65612793 350.32489014 403.55007935 349.97845459 403.21783447 C 349.54113770 402.85272217 349.05270386 402.45886230 348.50805664 402.07394409 C 347.96392822 401.73669434 347.45187378 401.40521240 347.10144043 401.06640625 C 346.95944214 400.72363281 347.05117798 400.34393311 347.34811401 399.95657349 C 347.88333130 399.58215332 348.51593018 399.14535522 349.12576294 398.59957886 C 349.66726685 397.89663696 350.04983521 397.06658936 350.27151489 396.11782837 C 350.43484497 395.13626099 350.52685547 394.14019775 355.51443481 399.04864502" stroke-width="1.79215395" fill="rgb(244, 245, 245)" opacity="1.0" stroke="rgb(238, 246, 248)" stroke-opacity="0.940592" stroke-linecap="round" stroke-linejoin="round"/>
    <path d="M 335.69561768 419.73959351 C 336.48120117 420.09344482 337.27423096 420.39181519 338.05816650 420.62582397 C 338.82470703 420.73178101 339.52764893 420.79849243 340.16125488 420.97976685 C 340.64785767 421.30380249 341.00839233 421.71771240 341.28848267 422.18237305 C 341.49578857 422.59826660 341.59234619 423.00119019 341.53009033 423.40036011 C 341.37936401 423.72384644 341.10705566 424.02230835 340.70849609 424.24478149 C 340.22753906 424.38861084 339.65039062 424.53283691 339.07492065 424.68365479 C 338.57034302 424.91281128 338.04840088 425.17492676 337.60427856 425.40515137 C 337.19223022 425.57174683 336.77529907 425.52093506 336.35174561 425.27929688 C 335.91696167 424.88192749 335.41070557 424.41082764 334.83160400 423.88592529 C 334.22180176 423.32095337 333.60665894 422.75741577 335.69561768 419.73959351" stroke-width="2.00000000" fill="rgb(244, 246, 246)" opacity="1.0" stroke="rgb(243, 248, 251)" stroke-opacity="0.87294877" stroke-linecap="round" stroke-linejoin="round"/>
    <path d="M 279.90719604 232.27494812 C 279.31564331 232.96797180 278.78707886 233.78781128 278.25393677 234.43606567 C 277.54687500 234.55570984 276.51684570 234.52252197 275.45114136 234.39988708 C 274.49554443 234.01023865 273.50668335 233.63432312 272.61636353 233.11648560 C 271.96859741 232.31269836 271.44067383 231.46864319 270.93176270 230.72955322 C 270.62567139 230.00279236 270.67013550 229.17494202 270.75909424 228.23928833 C 271.33065796 227.58195496 271.97616577 226.83496094 272.55249023 225.91468811 C 273.27883911 225.16377258 274.05163574 224.64326477 274.84246826 224.42796326 C 275.71463013 224.39596558 276.47970581 224.61334229 277.32565308 224.94575500 C 278.09658813 225.55644226 278.94400024 226.19720459 279.64187622 227.07127380 C 280.26419067 228.04273987 280.90728760 229.03987122 279.90719604 232.27494812" stroke-width="1.08842850" fill="rgb(223, 175, 9)" opacity="1.0" stroke="rgb(234, 194, 85)" stroke-opacity="0.7251304" stroke-linecap="round" stroke-linejoin="round"/>
    <path d="M 250.87533569 164.87448120 C 250.31573486 165.81605530 249.73970032 166.76063538 249.05650330 167.27905273 C 248.24494934 167.67863464 247.32824707 167.87583923 246.44935608 167.92417908 C 245.55027771 167.87692261 244.74397278 167.43199158 244.05123901 166.75154114 C 243.33552551 166.09968567 242.64407349 165.57466125 241.99133301 165.12805176 C 241.60223389 164.66706848 241.52619934 164.16383362 241.48103333 163.46932983 C 241.45758057 162.70394897 241.63301086 161.97250366 241.81681824 161.27746582 C 242.24391174 160.65383911 242.70661926 160.03355408 243.16101074 159.42436218 C 243.70860291 158.83131409 244.39517212 158.55593872 245.14955139 158.27270508 C 246.11483765 158.33552551 247.17729187 158.52932739 248.29635620 158.75793457 C 249.55021667 159.36231995 250.83737183 160.07034302 250.87533569 164.87448120" stroke-width="1.14288473" fill="rgb(227, 173, 29)" opacity="1.0" stroke="rgb(235, 193, 84)" stroke-opacity="0.52410364" stroke-linecap="round" stroke-linejoin="round"/>
    <path d="M 197.34646606 249.71520996 C 197.73991394 249.73306274 198.17039490 249.63497925 198.51908875 249.31538391 C 198.96333313 248.72125244 199.45262146 248.13647461 199.95613098 247.61634827 C 200.64535522 247.35667419 201.48643494 247.32199097 202.35009766 247.41627502 C 203.17005920 247.53616333 203.93363953 247.81071472 204.46955872 248.45788574 C 204.93263245 249.30421448 205.49124146 250.07394409 205.89384460 250.71723938 C 205.76589966 251.63963318 205.71818542 252.71102905 205.88510132 253.79301453 C 205.50128174 254.61709595 204.62925720 255.35600281 203.90803528 256.21551514 C 203.10440063 256.78942871 202.21302795 257.14227295 201.40977478 257.26217651 C 200.71815491 256.96658325 199.93898010 256.34854126 198.97653198 256.06912231 C 197.99769592 255.67980957 197.01904297 255.09490967 197.34646606 249.71520996" stroke-width="1.11941373" fill="rgb(227, 173, 13)" opacity="1.0" stroke="rgb(238, 195, 95)" stroke-opacity="0.60537475" stroke-linecap="round" stroke-linejoin="round"/>
    <path d="M 64.77388763 381.08181763 C 64.52973938 380.81600952 64.26804352 380.53985596 64.01103973 380.26074219 C 63.73137665 379.98452759 63.46476746 379.71066284 63.18649292 379.42501831 C 62.89288712 379.13473511 62.59758759 378.87725830 62.34652328 378.62719727 C 62.18033218 378.33450317 62.09651947 378.00497437 62.09903717 377.63916016 C 62.16489029 377.27532959 62.32319641 376.92874146 62.54547119 376.56576538 C 62.81222153 376.17510986 63.10198975 375.80856323 63.42490768 375.46261597 C 63.76900101 375.20898438 64.10485077 375.04858398 64.44602966 375.02172852 C 64.79254150 375.17266846 65.17321014 375.47613525 65.55538940 375.92486572 C 65.96140289 376.40509033 66.45154572 376.93774414 67.03350067 377.45831299 C 67.62745667 377.95901489 68.25455475 378.49752808 64.77388763 381.08181763" stroke-width="2.00000000" fill="rgb(241, 247, 246)" opacity="1.0" stroke="rgb(243, 249, 253)" stroke-opacity="0.86899894" stroke-linecap="round" stroke-linejoin="round"/>
    <path d="M 343.64431763 255.57298279 C 342.82800293 255.53265381 342.11407471 255.35223389 341.50320435 254.94015503 C 340.94998169 254.23576355 340.37149048 253.46621704 339.79843140 252.79621887 C 339.51943970 252.19190979 339.49124146 251.59609985 339.57714844 250.89976501 C 339.69186401 250.24989319 339.78500366 249.74394226 340.08624268 249.29249573 C 340.50103760 248.78155518 340.94345093 248.26245117 341.35906982 247.74284363 C 341.87896729 247.51780701 342.54190063 247.22898865 343.20834351 246.81680298 C 343.75405884 246.69787598 344.34301758 246.70397949 344.85977173 246.77816772 C 345.24868774 247.12889099 345.74792480 247.57699585 346.38681030 248.04624939 C 346.88262939 249.00502014 347.54269409 250.01148987 348.22048950 251.14822388 C 348.60159302 252.64916992 349.01095581 254.26902771 343.64431763 255.57298279" stroke-width="1.19575596" fill="rgb(228, 174, 13)" opacity="1.0" stroke="rgb(233, 189, 82)" stroke-opacity="0.7116446" stroke-linecap="round" stroke-linejoin="round"/>
    <path d="M 140.18830872 278.60192871 C 139.17254639 278.61389160 138.21128845 278.54388428 137.36569214 278.32287598 C 136.65991211 277.91519165 136.00810242 277.35873413 135.43627930 276.59857178 C 134.86758423 275.84771729 134.50077820 275.08151245 134.41767883 274.42224121 C 134.50895691 273.95812988 134.85992432 273.67529297 135.24797058 273.48239136 C 135.48579407 272.97967529 135.92855835 272.33786011 136.47189331 271.76718140 C 137.10847473 271.39126587 137.86686707 271.00204468 138.58969116 270.76742554 C 139.34448242 270.95971680 140.09854126 271.20330811 140.78749084 271.48211670 C 141.27476501 272.11444092 141.80917358 272.88980103 142.28527832 273.79626465 C 142.47004700 274.55987549 142.59074402 275.18698120 142.64457703 275.76724243 C 143.00332642 276.23538208 143.37960815 276.46420288 140.18830872 278.60192871" stroke-width="1.00192773" fill="rgb(220, 161, 12)" opacity="1.0" stroke="rgb(231, 184, 85)" stroke-opacity="0.6411079" stroke-linecap="round" stroke-linejoin="round"/>
  </g>
</svg>
