<?xml version="1.0" ?>
<svg xmlns="http://www.w3.org/2000/svg" version="1.1" width="512" height="512" viewBox="0 0 512 512">
  <defs/>
  <g>
    <path d="M 343.67987061 303.98345947 C 339.52703857 310.60314941 335.08224487 316.91238403 330.21557617 322.82678223 C 325.04641724 328.19375610 319.47091675 333.14782715 313.73696899 337.67385864 C 308.03881836 341.81192017 302.04684448 345.28250122 295.89770508 348.02584839 C 289.78436279 350.15280151 283.59970093 351.29995728 277.28427124 351.31628418 C 270.90774536 350.37658691 264.62094116 349.20230103 258.40667725 348.17611694 C 252.22885132 347.86294556 246.22711182 348.73709106 240.39852905 350.24557495 C 234.56977844 351.19671631 228.76594543 351.16458130 222.89585876 350.27188110 C 217.06799316 348.62435913 211.40122986 346.18215942 205.74768066 343.22528076 C 200.08956909 339.62750244 194.68884277 335.40673828 189.49078369 330.72787476 C 184.37760925 325.66818237 179.65963745 320.14810181 175.32247925 314.22579956 C 171.24884033 308.05172729 167.77500916 301.55517578 164.83453369 294.74038696 C 162.22561646 287.80218506 160.10339355 280.74679565 158.71586609 273.50112915 C 157.57139587 266.18646240 157.01667786 258.86791992 157.19335938 251.60543823 C 157.61973572 244.34725952 158.44900513 237.12387085 159.91542053 230.12811279 C 161.67004395 223.28880310 163.87680054 216.58161926 166.67164612 210.22599792 C 169.56669617 203.97106934 172.91735840 198.09519958 176.78810120 192.63713074 C 180.93495178 187.50862122 185.29695129 182.71467590 189.93009949 178.29653931 C 194.70169067 174.21667480 199.82426453 170.77197266 205.30628967 168.01783752 C 211.12489319 165.72315979 217.17858887 164.16697693 223.46887207 163.44210815 C 230.03459167 163.60636902 236.73014832 164.22631836 243.49932861 164.94253540 C 250.34040833 165.80056763 257.17382812 165.98619080 264.00747681 165.57035828 C 270.91561890 164.82365417 277.67810059 164.47132874 284.34255981 164.80354309 C 290.80841064 165.66134644 297.08905029 167.26849365 303.16409302 169.54862976 C 309.02505493 172.30473328 314.47988892 175.76493835 319.65243530 179.85673523 C 324.58505249 184.29818726 329.25378418 189.10021973 333.55047607 194.32795715 C 337.52719116 199.75114441 341.16970825 205.45884705 344.40121460 211.38716125 C 347.36904907 217.40257263 349.84439087 223.56774902 351.89999390 229.95811462 C 353.44619751 236.42187500 354.55474854 242.93824768 355.34606934 249.59802246 C 355.41278076 256.43450928 354.99923706 263.35119629 354.34417725 270.34896851 C 353.25808716 277.47155762 352.29837036 284.81970215 343.67987061 303.98345947" stroke-width="1.95258570" fill="rgb(239, 17, 22)" opacity="1.0" stroke="rgb(166, 0, 0)" stroke-opacity="0.8729321" stroke-linecap="round" stroke-linejoin="round"/>
    <path d="M 191.18705750 212.66673279 C 191.64559937 211.48631287 192.12615967 210.35250854 192.63447571 209.24967957 C 193.27381897 208.29017639 194.02529907 207.46456909 194.93817139 206.74797058 C 195.91865540 206.02050781 196.89364624 205.24899292 197.96376038 204.56956482 C 199.15476990 204.06663513 200.42680359 203.56312561 201.69984436 203.12327576 C 203.00747681 202.76080322 204.38385010 202.68670654 205.80979919 202.70617676 C 207.22415161 202.65693665 208.63888550 202.63583374 210.05053711 202.74018860 C 211.41371155 203.03620911 212.71853638 203.26771545 214.02012634 203.46255493 C 215.23612976 203.71087646 216.33268738 204.01770020 217.28117371 204.36746216 C 218.12825012 204.76670837 218.73498535 205.31433105 219.17280579 205.85112000 C 219.51214600 206.48869324 219.62689209 207.16323853 219.45382690 207.92312622 C 219.10598755 208.74365234 218.65602112 209.68522644 218.10762024 210.73013306 C 217.34152222 211.73155212 216.39201355 212.70463562 215.28872681 213.70152283 C 214.14256287 214.73919678 213.03155518 215.81658936 211.88818359 216.97262573 C 210.70043945 218.07174683 209.47187805 219.03283691 208.24456787 219.97712708 C 207.03060913 220.86911011 205.83270264 221.72137451 204.65124512 222.48735046 C 203.49127197 223.11268616 202.33367920 223.56338501 201.13708496 223.81301880 C 199.97309875 223.88531494 198.87731934 223.84048462 197.83560181 223.66125488 C 196.89520264 223.25219727 196.04992676 222.62982178 195.16761780 221.96507263 C 194.33784485 221.22042847 193.62413025 220.36123657 192.91978455 219.38551331 C 192.21553040 218.43350220 191.45339966 217.57012939 191.18705750 212.66673279" stroke-width="1.67040217" fill="rgb(244, 211, 209)" opacity="1.0" stroke="rgb(60, 51, 52)" stroke-opacity="0.275127" stroke-linecap="round" stroke-linejoin="round"/>
    <path d="M 300.64328003 133.78602600 C 299.21380615 136.20495605 297.79183960 138.58618164 296.20825195 140.88514709 C 294.45065308 142.90745544 292.49975586 144.82586670 290.36013794 146.50421143 C 288.13436890 148.06669617 285.84408569 149.49185181 283.60433960 150.85046387 C 281.31228638 151.91529846 278.99331665 152.77398682 276.69857788 153.41258240 C 274.43118286 153.78694153 272.23513794 154.06413269 270.09884644 154.32838440 C 268.17324829 154.58886719 266.51901245 154.63427734 265.00613403 154.44264221 C 263.74453735 153.79141235 262.74014282 152.74406433 261.81335449 151.45390320 C 260.98947144 150.03315735 260.47381592 148.39399719 260.30764771 146.49473572 C 260.40048218 144.31227112 260.47994995 141.94113159 260.58740234 139.51950073 C 261.02926636 136.97802734 261.76617432 134.47233582 262.72079468 131.97219849 C 264.00109863 129.61268616 265.59408569 127.32695007 267.41027832 125.24185944 C 269.52346802 123.30385590 271.91378784 121.67881775 274.54650879 120.27025604 C 277.27978516 118.96891785 280.04058838 117.68891144 282.86602783 116.57199097 C 285.68237305 115.60870361 288.42880249 114.80583954 291.03503418 113.99999237 C 293.50411987 113.31951904 295.69442749 112.54496765 297.55856323 111.62117767 C 299.16738892 110.53031921 300.38986206 109.45760345 301.43978882 108.54534149 C 302.38610840 107.96607208 303.20230103 107.91202545 303.88287354 108.20539093 C 304.47064209 108.95025635 304.96084595 110.04763794 305.25463867 111.46814728 C 305.30709839 113.18350983 305.25845337 115.14613342 305.27279663 117.37482452 C 305.38311768 119.71326447 305.59970093 122.10523224 300.64328003 133.78602600" stroke-width="0.91148853" fill="rgb(18, 161, 33)" opacity="1.0" stroke="rgb(0, 117, 0)" stroke-opacity="0.40148613" stroke-linecap="round" stroke-linejoin="round"/>
    <path d="M 231.94757080 152.41761780 C 229.37728882 151.49020386 226.83613586 150.51687622 224.31575012 149.48776245 C 221.86639404 148.31971741 219.46896362 147.08084106 217.07723999 145.71817017 C 214.81913757 144.21464539 212.65254211 142.55894470 210.59162903 140.71984863 C 208.56945801 138.82043457 206.67565918 136.74642944 204.90878296 134.54565430 C 203.21891785 132.32456970 201.75679016 129.96682739 200.41197205 127.61486816 C 199.16458130 125.22341919 198.08802795 122.86788940 197.23725891 120.56503296 C 196.54103088 118.40650940 195.95111084 116.37062073 195.47323608 114.62358093 C 195.12582397 113.14421844 194.98342896 112.06743622 195.08950806 111.33233643 C 195.53669739 111.05081177 196.29774475 111.20302582 197.39920044 111.68420410 C 198.89128113 112.33843994 200.65521240 113.07511902 202.72444153 113.88093567 C 205.16699219 114.57400513 207.75842285 115.29047394 210.54580688 116.11856079 C 213.44793701 116.95384979 216.47763062 117.83457184 219.52970886 118.73062134 C 222.57641602 119.67436218 225.60702515 120.70944977 228.50181580 121.78469086 C 231.24641418 122.99470520 233.82315063 124.38825989 236.25856018 125.91728210 C 238.41485596 127.67655182 240.31050110 129.56764221 242.04156494 131.46400452 C 243.54859924 133.45591736 244.79812622 135.49072266 245.85620117 137.56463623 C 246.84262085 139.58052063 247.70881653 141.49879456 248.40203857 143.26828003 C 248.85437012 144.98619080 249.04815674 146.55839539 248.82696533 148.05825806 C 248.22502136 149.33737183 247.26936340 150.55799866 246.02398682 151.80619812 C 244.66955566 153.06147766 243.29815674 154.39430237 231.94757080 152.41761780" stroke-width="0.92356825" fill="rgb(67, 199, 29)" opacity="1.0" stroke="rgb(34, 149, 0)" stroke-opacity="0.3157463" stroke-linecap="round" stroke-linejoin="round"/>
    <path d="M 247.57057190 117.83304596 C 248.63661194 117.71613312 249.69665527 117.61962128 250.65151978 117.57099915 C 251.68290710 117.55447388 252.59579468 117.64730835 253.42369080 117.76545715 C 254.23908997 117.77080536 254.96614075 117.71263885 255.58013916 117.65719604 C 256.05804443 117.66471863 256.43142700 117.78148651 256.60174561 118.11361694 C 256.58959961 118.70414734 256.51098633 119.44524384 256.43994141 120.42543793 C 256.40505981 121.64399719 256.40270996 123.05942535 256.31100464 124.72099304 C 256.11892700 126.66184998 255.99664307 128.74627686 255.93659973 131.03483582 C 255.85290527 133.51531982 255.81463623 136.15356445 255.80212402 138.99319458 C 255.68798828 141.84500122 255.63594055 144.83094788 255.71850586 147.87420654 C 255.82019043 150.89228821 255.78785706 153.94319153 255.75762939 156.90585327 C 255.72392273 159.81332397 255.62701416 162.54203796 255.42984009 165.13677979 C 255.21966553 167.52268982 255.11735535 169.71168518 255.07191467 171.61511230 C 255.02108765 173.23072815 254.94990540 174.49136353 254.70973206 175.37861633 C 254.31053162 175.91781616 253.83013916 176.01487732 253.29983521 175.70967102 C 252.77497864 175.05073547 252.27134705 174.02275085 251.86447144 172.66264343 C 251.38662720 171.03935242 250.94442749 169.15774536 250.54321289 167.08087158 C 250.18878174 164.89888000 249.87730408 162.50024414 249.74064636 160.03059387 C 249.58090210 157.43864441 249.38085938 154.81797791 249.14538574 152.13435364 C 248.80422974 149.41069031 248.50405884 146.70744324 248.28092957 143.94895935 C 248.08740234 141.20265198 248.01150513 138.48110962 247.57057190 117.83304596" stroke-width="0.66524988" fill="rgb(111, 22, 23)" opacity="1.0" stroke="rgb(31, 2, 0)" stroke-opacity="0.4174842" stroke-linecap="round" stroke-linejoin="round"/>
    <path d="M 271.43026733 178.33520508 C 269.48965454 178.84764099 267.56079102 179.33694458 265.62466431 179.85502625 C 263.64294434 180.22840881 261.70645142 180.61875916 259.74655151 180.91282654 C 257.74996948 181.13975525 255.79057312 181.25878906 253.82469177 181.20031738 C 251.83236694 180.99058533 249.85888672 180.70010376 247.91625977 180.33395386 C 245.96182251 179.93438721 244.07994080 179.52879333 242.28158569 179.09518433 C 240.51065063 178.65249634 238.91276550 178.23779297 237.39433289 177.76992798 C 236.12078857 177.37414551 234.98037720 176.97361755 234.13557434 176.57838440 C 233.52635193 176.19978333 233.27516174 175.86117554 233.25096130 175.52488708 C 233.60675049 175.28218079 234.21243286 175.11366272 235.08811951 175.06747437 C 236.14855957 175.13043213 237.44017029 175.27725220 238.88150024 175.54260254 C 240.42181396 175.84832764 242.06355286 176.20130920 243.83564758 176.42304993 C 245.63963318 176.58634949 247.51451111 176.59873962 249.44900513 176.58213806 C 251.36465454 176.49206543 253.30380249 176.42193604 255.25454712 176.44688416 C 257.11923218 176.50164795 259.01712036 176.60160828 260.83380127 176.62312317 C 262.61322021 176.57344055 264.34890747 176.45306396 266.00579834 176.23718262 C 267.60705566 175.95321655 269.14117432 175.61178589 270.61245728 175.27563477 C 272.05364990 174.97683716 273.42807007 174.71540833 274.76174927 174.54299927 C 276.07699585 174.43539429 277.32736206 174.32354736 278.56466675 174.31382751 C 279.75772095 174.33468628 280.94281006 174.37998962 282.08499146 174.43023682 C 283.26513672 174.44592285 284.39630127 174.42834473 271.43026733 178.33520508" stroke-width="1.14904153" fill="rgb(127, 1, 4)" opacity="1.0" stroke="rgb(0, 67, 103)" stroke-opacity="0.13015886" stroke-linecap="round" stroke-linejoin="round"/>
  </g>
</svg>
