<?xml version="1.0" ?>
<svg xmlns="http://www.w3.org/2000/svg" version="1.1" width="512" height="512" viewBox="0 0 512 512">
  <defs/>
  <g>
    <path d="M 634.55957031 481.20330811 C 609.61706543 489.24362183 584.64721680 497.27795410 559.67529297 505.28829956 C 534.65875244 513.24945068 509.59072876 521.09307861 484.44647217 528.79486084 C 459.21286011 536.29705811 433.87677002 543.49603271 408.43591309 550.33618164 C 382.89651489 556.74029541 357.27255249 562.60980225 331.57855225 567.82885742 C 305.86160278 572.33081055 280.16201782 575.99011230 254.51165771 578.69873047 C 229.04560852 580.35809326 203.75395203 580.85955811 178.82809448 580.11096191 C 154.34970093 577.93695068 130.44670105 574.29632568 107.24913788 569.09344482 C 84.87186432 562.18670654 63.47296143 553.53820801 43.22004700 543.06134033 C 24.29505730 530.62811279 6.88428497 516.15521240 -8.78206062 499.55706787 C -22.64790535 480.88250732 -34.86776733 460.48733521 -45.51047897 438.58361816 C -54.64663315 415.39370728 -62.39054489 391.17565918 -68.74755096 366.14889526 C -73.78836823 340.48028564 -77.56420135 314.43402100 -80.07351685 288.19210815 C -81.37377930 261.96908569 -81.49032593 235.97673035 -80.40645599 210.39286804 C -78.13061523 185.34696960 -74.70780182 161.03141785 -70.07156372 137.50633240 C -64.27101898 114.94647980 -57.24832916 93.39465332 -49.01664734 72.94828033 C -39.53567505 53.69367218 -28.76868439 35.72021103 -16.66300201 19.00490570 C -3.18567610 3.75146675 11.73400593 -10.09843254 28.02904129 -22.53175163 C 45.63586044 -33.58237839 64.48645782 -43.34440231 84.49420166 -51.86421204 C 105.57708740 -59.17765045 127.66612244 -65.33109283 150.67161560 -70.31285858 C 174.48109436 -74.18906403 198.97845459 -76.93037415 224.07234192 -78.56478119 C 249.57928467 -79.09106445 275.33724976 -78.50222015 301.19326782 -76.77907562 C 326.96820068 -73.90142059 352.42135620 -69.84102631 377.40560913 -64.49974823 C 401.69186401 -57.91115189 425.11849976 -49.96338654 447.48474121 -40.53526306 C 468.53277588 -29.55990791 488.12084961 -16.93400955 506.01919556 -2.56879687 C 522.03533936 13.65508747 536.30834961 31.57804108 548.90344238 51.04849243 C 559.99041748 71.90184784 569.72766113 93.96047211 578.26782227 117.05599976 C 585.77172852 141.05955505 592.39752197 165.80186462 598.22949219 191.18045044 C 603.41186523 217.09587097 608.14190674 243.38439941 612.44616699 269.97033691 C 616.48760986 296.76712036 620.37036133 323.68939209 624.11596680 350.68667603 C 627.83496094 377.70458984 631.53448486 404.74127197 634.55957031 481.20330811" stroke-width="2.00000000" fill="rgb(168, 225, 242)" opacity="1.0" stroke="rgb(98, 202, 222)" stroke-opacity="0.62682444" stroke-linecap="round" stroke-linejoin="round"/>
    <path d="M 424.47317505 297.58190918 C 413.75408936 302.02545166 403.08270264 306.40847778 392.14624023 310.69180298 C 381.13284302 314.31698608 369.88446045 317.59463501 358.54873657 320.66555786 C 347.26470947 323.52517700 336.05911255 326.15405273 324.96081543 328.59780884 C 314.07263184 331.01660156 303.62533569 333.63409424 293.86892700 336.61087036 C 284.88473511 339.94021606 276.70590210 343.53933716 269.33691406 347.32925415 C 262.79846191 350.48016357 256.22640991 351.05447388 249.42695618 349.28665161 C 242.42849731 346.17477417 234.85700989 342.54501343 226.33451843 338.97604370 C 217.02713013 335.86813354 206.98327637 333.07492065 196.34428406 330.54370117 C 185.24804688 328.39498901 173.89698792 326.69577026 162.60221863 325.33200073 C 151.51989746 324.24746704 140.80296326 323.45462036 130.77580261 322.92721558 C 121.70517731 321.79101562 113.51011658 318.52890015 105.54141998 314.17782593 C 97.73678589 309.36886597 90.60295868 303.71527100 84.50903320 297.18005371 C 78.61690521 290.82272339 74.39811707 283.77905273 71.35638428 276.22372437 C 68.70222473 268.80340576 67.92683411 261.54937744 68.46961212 254.11233521 C 69.19076538 246.74540710 71.23796844 239.85487366 74.58268738 233.35821533 C 78.32394409 227.02354431 82.96257782 221.52250671 89.08623505 217.53401184 C 96.58206940 214.96382141 104.75305939 212.17068481 113.41201019 209.02067566 C 122.52709198 205.63391113 132.06286621 202.15007019 142.01060486 198.54180908 C 152.30398560 194.96493530 162.83547974 191.47135925 173.52963257 188.17126465 C 184.36502075 185.08743286 195.37957764 182.28497314 206.41500854 179.74707031 C 217.36245728 177.55311584 228.24218750 175.76469421 239.05764771 174.37055969 C 249.78923035 173.39947510 260.36206055 172.80993652 270.71524048 172.64187622 C 280.90194702 172.90872192 290.90679932 173.63169861 300.68896484 174.77696228 C 310.21435547 176.33758545 319.45468140 178.30064392 328.41842651 180.71026611 C 337.16470337 183.52713013 345.67401123 186.71797180 353.90563965 190.25439453 C 361.81051636 194.15797424 369.50729370 198.49351501 377.02169800 203.13484192 C 384.24893188 208.05279541 391.15423584 213.23593140 397.86315918 218.74322510 C 404.45108032 224.56082153 410.88708496 230.58038330 417.11697388 236.83825684 C 423.20202637 243.35699463 429.26647949 250.09577942 435.29324341 257.04949951 C 441.08264160 264.16873169 446.90484619 271.51547241 424.47317505 297.58190918" stroke-width="2.00000000" fill="rgb(130, 190, 209)" opacity="1.0" stroke="rgb(15, 74, 103)" stroke-opacity="0.9072545" stroke-linecap="round" stroke-linejoin="round"/>
    <path d="M 207.15426636 250.90612793 C 202.93478394 251.85002136 198.70611572 252.82394409 194.48783875 253.74638367 C 190.25701904 254.63970947 186.03495789 255.45640564 181.82997131 256.22717285 C 177.63488770 256.84469604 173.44895935 257.34213257 169.25585938 257.68698120 C 165.10108948 257.78509521 161.00062561 257.64822388 156.93006897 257.25628662 C 152.92561340 256.56744385 148.92761230 255.57942200 144.97724915 254.28271484 C 141.04698181 252.68371582 137.20632935 250.75463867 133.43148804 248.51414490 C 129.73574829 246.00135803 126.04043579 243.26193237 122.46778107 240.29098511 C 118.95227814 237.18914795 115.54065704 233.97569275 112.23230743 230.70826721 C 108.99227905 227.53738403 105.86469269 224.48754883 102.88222504 221.55418396 C 100.07537079 218.86109924 97.45660400 216.42810059 95.29267120 214.20733643 C 94.23799133 211.44642639 93.99643707 208.18893433 94.17500305 204.24822998 C 94.38132477 199.87307739 94.83776855 195.39425659 95.77352905 190.81028748 C 97.22119904 186.41061401 98.71362305 181.89263916 100.43814850 177.52204895 C 102.57095337 173.36480713 104.62689209 169.26637268 107.24971008 165.55358887 C 109.69599152 161.81988525 112.62689209 158.62174988 115.90002441 155.76673889 C 118.85498047 152.64770508 122.49797821 150.29098511 126.15161133 147.84953308 C 129.71842957 145.51765442 133.63157654 143.82182312 137.67866516 142.40269470 C 141.42953491 140.90910339 145.30747986 140.22950745 149.30165100 139.22222900 C 153.09024048 138.48187256 156.84921265 138.19261169 160.45028687 138.41238403 C 163.92959595 138.17831421 167.24562073 138.35740662 170.63095093 139.31126404 C 174.70794678 139.55580139 178.91102600 141.14552307 183.13960266 142.68312073 C 186.98344421 144.56784058 190.51086426 146.84129333 193.80967712 149.48599243 C 196.97264099 152.32804871 200.04107666 155.29902649 203.03327942 158.40803528 C 205.82453918 161.67149353 208.29849243 165.14401245 210.57429504 168.77757263 C 212.66194153 172.52890015 214.58053589 176.41296387 216.30557251 180.37014771 C 217.80400085 184.40306091 219.09722900 188.51715088 220.17747498 192.70098877 C 221.06732178 196.92308044 221.81159973 201.17254639 222.43440247 205.47897339 C 222.94210815 209.86486816 223.32789612 214.24220276 223.62161255 218.57684326 C 223.89868164 222.89279175 224.08677673 227.28446960 224.20568848 231.74330139 C 224.35156250 236.14843750 224.54492188 240.51884460 207.15426636 250.90612793" stroke-width="2.00000000" fill="rgb(253, 251, 251)" opacity="1.0" stroke="rgb(21, 75, 104)" stroke-opacity="1.0" stroke-linecap="round" stroke-linejoin="round"/>
    <path d="M 337.52014160 195.00708008 C 334.25500488 198.64016724 330.96133423 202.27185059 327.69479370 205.87562561 C 324.40457153 209.49136353 321.11489868 213.06951904 317.76361084 216.57238770 C 314.36697388 220.03320312 310.92227173 223.37327576 307.43490601 226.62060547 C 303.92037964 229.74563599 300.24868774 232.65406799 296.50173950 235.36187744 C 292.66485596 237.91046143 288.77926636 240.20985413 284.78900146 242.23187256 C 280.68469238 243.97874451 276.45324707 245.43067932 272.18557739 246.56390381 C 267.85598755 247.40077209 263.49304199 247.92684937 259.04937744 248.08668518 C 254.58345032 247.92617798 250.10873413 247.38128662 245.63323975 246.51441956 C 241.21714783 245.33874512 236.83815002 243.80274963 232.55114746 241.94131470 C 228.34565735 239.78764343 224.25440979 237.30474854 220.30487061 234.52560425 C 216.58238220 231.52033997 213.00912476 228.21281433 209.65370178 224.67813110 C 206.46994019 220.91020203 203.53967285 216.95019531 200.87705994 212.81535339 C 198.48374939 208.50003052 196.33226013 204.06202698 194.46937561 199.51568604 C 192.93885803 194.92207336 191.72079468 190.25721741 190.77778625 185.52996826 C 190.13989258 180.73757935 189.76574707 175.96501160 189.70442200 171.25059509 C 189.89009094 166.58964539 190.29689026 161.95300293 191.01504517 157.39651489 C 191.96412659 153.00810242 193.10253906 148.73373413 194.66352844 144.57888794 C 196.96969604 140.73851013 199.39093018 136.92626953 202.45242310 133.62266541 C 205.33941650 129.98013306 208.63249207 126.79301453 212.44238281 124.27355957 C 215.77824402 121.20635223 219.68638611 118.76642609 224.03044128 116.60486603 C 228.53143311 114.41625977 232.95346069 112.38520813 237.87327576 111.20864868 C 242.77488708 109.79946899 247.96826172 109.22207642 252.85269165 108.62757874 C 257.62576294 109.22911072 262.36038208 109.29270935 267.13900757 109.76406097 C 272.00009155 110.84340668 277.10437012 112.11846924 281.85818481 114.24923706 C 286.77789307 116.31169128 291.53430176 118.99481201 296.01354980 121.94234467 C 300.30624390 125.00314331 304.26382446 128.44842529 307.93792725 132.05345154 C 311.33142090 135.82559204 314.10781860 139.90829468 316.80661011 143.89373779 C 319.58694458 147.53602600 321.34063721 151.82777405 322.82196045 156.22607422 C 324.41522217 160.74176025 326.06402588 165.25296021 327.77377319 169.69667053 C 329.46179199 174.16827393 331.05258179 178.75608826 337.52014160 195.00708008" stroke-width="2.00000000" fill="rgb(246, 248, 248)" opacity="1.0" stroke="rgb(25, 76, 104)" stroke-opacity="0.9911554" stroke-linecap="round" stroke-linejoin="round"/>
    <path d="M 381.60733032 153.05661011 C 384.58297729 155.03590393 387.46694946 157.40429688 390.57589722 159.55879211 C 393.28710938 162.41743469 396.30773926 165.20065308 399.27023315 168.23994446 C 401.73260498 171.94487000 404.48263550 175.68757629 406.89453125 179.86050415 C 409.49713135 183.96229553 411.52764893 188.47193909 413.01098633 193.15138245 C 414.42575073 197.70495605 415.65521240 202.10270691 415.68243408 206.61048889 C 416.43347168 211.08175659 416.85546875 215.62345886 416.72586060 220.18182373 C 416.13336182 224.84078979 415.08981323 229.46427917 413.68972778 234.00373840 C 411.91470337 238.44544983 409.73516846 242.72270203 407.22113037 246.80845642 C 404.43756104 250.73030090 401.38693237 254.49018860 398.11260986 258.02468872 C 394.62387085 261.27099609 390.92199707 264.29782104 387.00839233 267.03155518 C 382.97283936 269.52389526 378.82269287 271.69476318 374.56726074 273.60250854 C 370.22210693 275.16961670 365.80178833 276.44860840 361.30557251 277.39276123 C 356.78030396 278.09780884 352.26062012 278.45935059 347.73513794 278.50903320 C 343.21243286 278.22033691 338.79693604 277.62490845 334.42623901 276.73019409 C 330.12905884 275.58923340 325.93341064 274.14056396 321.86206055 272.39709473 C 317.95574951 270.36532593 314.23379517 268.09823608 310.67752075 265.61618042 C 307.32241821 262.87402344 304.19384766 259.90560913 301.27468872 256.70507812 C 298.66815186 253.35691833 296.34869385 249.83341980 294.29101562 246.15496826 C 292.55154419 242.35609436 291.12438965 238.44033813 290.02868652 234.40686035 C 289.26690674 230.26016235 288.83880615 226.09667969 288.80133057 221.89620972 C 289.06445312 217.65113831 289.68041992 213.39720154 290.61062622 209.15168762 C 291.87600708 204.90722656 293.42703247 200.68034363 295.26376343 196.47660828 C 297.37005615 192.35676575 299.68209839 188.28889465 302.13931274 184.28332520 C 304.71936035 180.28913879 307.42169189 176.42861938 310.19097900 172.57424927 C 312.96694946 168.84963989 315.58465576 165.09095764 318.06112671 161.37995911 C 320.24774170 157.72096252 322.15695190 154.12326050 324.30700684 150.95808411 C 327.57485962 148.80476379 331.09017944 146.90162659 335.03149414 145.70164490 C 339.02404785 144.46392822 343.37139893 144.01875305 347.76425171 143.65708923 C 351.91329956 143.35935974 356.22644043 144.05471802 360.72607422 144.78564453 C 365.52053833 145.91184998 370.46969604 146.79434204 381.60733032 153.05661011" stroke-width="2.00000000" fill="rgb(250, 251, 249)" opacity="1.0" stroke="rgb(27, 82, 111)" stroke-opacity="0.9938904" stroke-linecap="round" stroke-linejoin="round"/>
    <path d="M 255.37658691 329.82025146 C 252.68798828 331.91687012 249.96159363 334.02606201 247.21482849 336.18142700 C 244.46398926 338.38058472 241.80044556 340.61630249 239.27894592 342.87829590 C 236.73310852 345.08782959 233.82695007 347.03237915 230.74729919 348.78363037 C 227.35643005 350.38781738 223.80393982 351.76635742 220.27243042 352.79299927 C 216.95518494 354.02868652 213.42539978 354.40493774 209.82983398 355.20776367 C 205.99754333 355.59771729 201.95523071 355.80416870 197.91337585 355.80874634 C 193.73310852 355.68927002 189.73870850 355.68444824 185.76519775 355.33081055 C 181.63665771 354.66156006 177.43450928 353.55957031 173.33541870 352.50592041 C 169.33633423 351.09002686 165.33387756 349.54898071 161.79199219 347.53213501 C 158.06802368 345.83447266 154.91873169 343.38653564 151.63920593 340.93991089 C 148.75784302 338.26040649 145.99244690 335.56045532 143.58428955 332.67645264 C 141.53802490 329.61740112 139.43428040 326.74911499 137.71487427 323.89288330 C 136.82215881 320.71182251 136.25175476 317.30606079 135.87431335 313.87106323 C 135.73014832 310.46252441 135.93164062 307.07537842 136.49716187 303.64492798 C 137.41940308 300.22967529 138.65284729 296.89147949 140.22140503 293.66397095 C 142.10719299 290.50671387 144.22514343 287.45675659 146.52388000 284.53558350 C 149.03286743 281.80297852 151.77416992 279.26327515 154.71688843 276.90829468 C 157.78833008 274.68807983 160.98112488 272.62222290 164.33105469 270.76245117 C 167.79421997 269.12722778 171.33251953 267.75247192 174.94136047 266.54595947 C 178.63064575 265.51568604 182.30422974 264.71359253 185.99551392 264.14508057 C 189.71102905 263.82000732 193.41308594 263.70346069 197.15963745 263.76577759 C 200.88697815 264.02160645 204.51878357 264.51724243 208.10964966 265.22970581 C 211.64630127 266.11383057 215.12130737 267.20443726 218.51132202 268.48626709 C 221.84188843 269.94891357 225.06588745 271.57672119 228.18869019 273.35659790 C 231.21546936 275.30978394 234.13359070 277.42700195 236.96688843 279.68075562 C 239.70176697 282.03839111 242.35971069 284.52941895 244.90687561 287.12594604 C 247.39347839 289.81631470 249.80581665 292.57550049 252.12493896 295.40444946 C 254.38993835 298.31582642 256.63412476 301.26855469 258.84774780 304.22457886 C 261.03283691 307.23004150 263.18005371 310.24380493 265.33190918 313.28558350 C 267.47094727 316.33517456 269.62225342 319.34078979 255.37658691 329.82025146" stroke-width="2.00000000" fill="rgb(254, 250, 250)" opacity="1.0" stroke="rgb(25, 82, 115)" stroke-opacity="1.0" stroke-linecap="round" stroke-linejoin="round"/>
    <path d="M 374.03842163 329.01205444 C 370.51367188 331.67297363 366.96160889 334.18090820 363.08767700 336.43667603 C 359.27249146 338.71948242 355.27697754 340.72131348 351.13641357 342.67901611 C 346.81338501 344.29626465 342.52709961 346.00543213 338.03005981 347.26855469 C 333.46737671 348.56860352 328.97375488 349.39065552 324.46307373 350.19860840 C 319.78976440 350.65451050 315.06237793 350.56906128 310.25689697 350.85028076 C 305.11196899 350.80374146 299.70239258 350.30709839 294.24880981 349.58718872 C 288.89205933 348.78421021 283.73583984 347.22692871 278.86703491 345.18850708 C 274.61798096 342.55020142 270.55886841 339.85366821 266.46746826 337.25128174 C 262.35751343 334.70782471 258.27536011 332.29269409 254.33728027 329.96640015 C 250.56968689 327.67059326 246.96508789 325.31365967 243.57322693 322.85247803 C 240.36747742 320.32852173 237.44670105 317.72872925 234.91075134 314.99166870 C 232.77275085 312.08944702 230.98580933 309.09097290 229.51992798 306.06979370 C 228.44160461 302.98931885 227.77621460 299.80160522 227.53373718 296.53283691 C 227.73468018 293.20654297 228.31248474 289.83645630 229.31124878 286.47659302 C 230.72476196 283.14990234 232.52534485 279.87426758 234.67758179 276.64935303 C 237.13577271 273.53097534 239.92187500 270.49438477 243.04527283 267.53607178 C 246.51910400 264.73809814 250.23417664 262.12976074 254.14256287 259.71063232 C 258.23971558 257.47192383 262.54034424 255.43130493 267.08654785 253.61914062 C 271.76876831 252.01745605 276.61331177 250.69694519 281.54943848 249.63233948 C 286.54296875 248.76803589 291.59686279 248.17155457 296.75369263 247.85873413 C 301.96820068 247.78303528 307.15579224 247.97404480 312.33230591 248.43298340 C 317.49768066 249.14845276 322.63156128 250.07688904 327.66473389 251.21470642 C 332.62521362 252.61434937 337.47326660 254.22579956 342.18759155 256.00177002 C 346.73168945 257.96420288 351.13931274 260.08224487 355.36972046 262.34283447 C 359.37069702 264.75155640 363.21224976 267.27578735 366.81277466 269.86007690 C 370.15280151 272.48809814 373.26989746 275.23736572 376.18731689 278.03112793 C 378.84460449 280.79559326 381.27584839 283.61102295 383.52539062 286.47683716 C 385.54772949 289.35989380 387.37307739 292.27340698 388.99407959 295.17492676 C 390.39843750 298.10186768 391.64016724 301.14376831 392.74597168 304.31045532 C 393.66613770 307.59661865 394.62646484 311.13934326 374.03842163 329.01205444" stroke-width="2.00000000" fill="rgb(251, 251, 248)" opacity="1.0" stroke="rgb(21, 75, 106)" stroke-opacity="0.9636648" stroke-linecap="round" stroke-linejoin="round"/>
    <path d="M 178.24842834 304.86029053 C 174.89514160 306.49606323 171.59291077 308.16336060 168.35401917 309.84332275 C 165.09823608 311.48141479 161.80879211 313.03253174 158.55410767 314.46017456 C 155.34320068 315.79589844 152.11801147 317.12280273 148.83413696 318.30657959 C 145.49491882 319.16918945 142.25093079 319.84338379 139.09286499 320.43661499 C 135.83499146 320.70629883 132.43305969 320.66891479 129.01568604 320.36651611 C 125.55086517 319.82531738 122.14526367 318.78622437 118.81043243 317.52255249 C 115.42709351 315.96142578 111.92785645 314.32843018 108.26701355 312.88528442 C 104.92892456 310.97036743 101.78341675 308.63546753 98.60915375 306.26904297 C 95.40440369 303.87301636 92.35119629 301.23199463 89.52854156 298.38177490 C 86.71636200 295.48413086 84.01325989 292.55285645 81.59130859 289.36694336 C 79.39636993 286.01354980 77.44709015 282.56918335 75.66146851 279.14114380 C 74.12141418 275.54461670 72.85668945 271.82672119 72.00822449 268.00778198 C 71.55663300 264.09094238 71.30888367 260.15090942 71.24590302 256.09948730 C 71.43431091 252.00466919 72.11631775 248.01414490 73.29262543 244.10426331 C 74.60178375 240.25051880 76.14938354 236.51953125 77.90890503 233.03851318 C 79.88021088 229.90826416 82.16116333 227.08081055 84.70272827 224.60308838 C 87.32907104 222.19740295 89.70118713 219.80563354 91.78318787 218.18014526 C 93.90039062 218.65187073 96.23256683 219.12512207 98.84780884 218.62968445 C 101.88813019 218.31446838 105.29805756 218.24288940 108.88269806 218.29446411 C 112.44324493 218.41889954 115.97567749 218.64004517 119.50712585 218.93438721 C 123.08403778 219.37637329 126.66219330 219.99330139 130.12974548 220.74734497 C 133.50318909 221.60998535 136.83117676 222.55654907 140.13937378 223.68125916 C 143.27648926 224.98368835 146.30674744 226.46731567 149.21762085 228.10668945 C 151.98381042 229.93855286 154.58476257 232.01568604 157.05375671 234.30758667 C 159.33164978 236.71838379 161.46266174 239.25753784 163.45030212 241.99411011 C 165.29695129 244.90342712 167.00798035 247.94018555 168.58695984 251.04985046 C 170.08407593 254.26591492 171.48110962 257.60791016 172.78973389 261.04690552 C 174.03628540 264.52783203 175.22386169 268.03958130 176.40821838 271.60794067 C 177.57061768 275.23501587 178.69673157 278.85211182 179.79383850 282.47277832 C 180.92781067 286.13104248 182.11740112 289.74688721 178.24842834 304.86029053" stroke-width="2.00000000" fill="rgb(252, 250, 249)" opacity="1.0" stroke="rgb(247, 255, 255)" stroke-opacity="0.7773156" stroke-linecap="round" stroke-linejoin="round"/>
    <path d="M 434.78683472 283.36828613 C 433.31735229 286.31701660 431.65899658 289.06481934 429.58911133 291.55807495 C 427.44305420 293.83184814 425.20993042 295.94039917 422.95611572 297.93426514 C 420.87850952 299.95040894 418.68276978 301.62020874 416.16705322 302.64730835 C 413.84280396 304.17605591 411.31158447 305.35821533 408.55035400 306.41821289 C 406.02435303 307.44412231 403.16284180 307.84945679 400.29675293 308.53305054 C 397.30749512 308.73272705 394.17153931 308.75085449 391.00338745 308.19012451 C 387.83389282 307.30331421 384.61941528 306.13577271 381.42581177 304.61996460 C 378.31268311 302.85302734 375.28610229 300.94573975 372.32910156 298.91546631 C 369.45050049 296.70367432 366.78665161 294.27526855 364.36672974 291.64007568 C 362.11203003 288.82220459 360.06753540 285.92391968 358.22207642 282.95913696 C 356.56051636 279.88717651 355.14624023 276.68835449 353.97119141 273.48220825 C 353.01098633 270.28768921 352.22973633 267.02890015 351.71307373 263.69055176 C 351.45452881 260.37472534 351.39999390 257.05334473 351.51687622 253.76322937 C 351.86120605 250.54316711 352.42773438 247.36126709 353.20578003 244.20346069 C 354.17260742 241.16255188 355.32385254 238.23573303 356.64257812 235.42901611 C 358.18429565 232.70254517 359.91448975 230.07171631 361.81338501 227.60086060 C 363.88446045 225.28456116 366.08963013 223.09683228 368.39965820 221.17744446 C 370.89978027 219.43714905 373.59396362 217.84414673 376.38284302 216.43000793 C 379.22299194 215.18072510 382.19799805 214.13166809 385.32852173 213.21604919 C 388.50506592 212.50822449 391.64736938 212.05093384 394.82687378 211.77938843 C 398.09646606 211.63775635 401.38388062 211.64524841 404.61108398 211.76879883 C 407.75112915 211.93307495 410.86248779 212.09880066 413.75955200 212.37655640 C 416.47790527 212.65231323 418.90374756 213.38645935 421.03417969 214.90962219 C 423.28549194 216.75965881 425.59408569 218.80442810 427.63507080 221.36914062 C 430.28173828 223.52061462 432.29660034 226.39964294 434.02032471 229.51028442 C 435.95846558 232.49157715 437.45623779 235.58497620 438.71505737 238.84851074 C 439.98434448 241.78491211 440.41552734 245.03877258 441.27423096 247.98632812 C 441.59985352 250.94363403 441.83660889 254.14533997 441.84649658 257.46957397 C 441.58255005 260.83074951 441.57232666 264.54949951 440.90853882 268.47497559 C 439.71914673 272.39804077 438.94952393 276.70404053 434.78683472 283.36828613" stroke-width="2.00000000" fill="rgb(245, 249, 248)" opacity="1.0" stroke="rgb(32, 83, 106)" stroke-opacity="1.0" stroke-linecap="round" stroke-linejoin="round"/>
    <path d="M 349.15307617 168.06565857 C 346.86901855 175.13667297 344.67797852 182.27328491 342.57257080 189.46112061 C 340.50930786 196.67140198 338.45843506 203.82835388 336.43490601 210.94512939 C 334.46081543 218.12754822 332.56668091 225.41198730 330.62863159 232.80635071 C 328.63146973 240.17536926 326.55511475 247.53182983 324.43887329 254.92848206 C 322.20742798 262.40173340 319.80618286 269.86996460 317.24545288 277.30590820 C 314.47787476 284.65756226 311.45385742 291.81954956 308.23947144 298.78903198 C 304.85693359 305.57031250 301.30639648 312.13510132 297.52783203 318.36544800 C 293.51147461 324.19638062 289.36053467 329.60656738 285.14907837 334.58203125 C 280.83319092 338.96844482 276.42532349 342.66723633 271.85244751 345.51373291 C 267.46295166 347.78985596 263.02017212 349.00396729 258.35247803 349.19705200 C 253.54460144 349.15954590 248.83650208 348.56838989 244.27052307 346.40905762 C 239.61842346 343.19009399 234.35723877 339.73803711 228.65005493 336.22155762 C 222.72810364 332.54370117 216.71160889 328.61203003 210.65138245 324.45346069 C 204.66201782 320.08221436 198.83543396 315.47958374 193.23945618 310.57827759 C 187.98365784 305.35510254 183.12747192 299.90975952 178.68206787 294.24252319 C 174.58744812 288.33773804 170.87692261 282.18270874 167.61798096 275.82470703 C 164.79312134 269.28146362 162.37609863 262.53039551 160.29324341 255.66949463 C 158.61370850 248.68925476 157.39497375 241.61137390 156.54360962 234.47250366 C 156.11672974 227.30506897 156.24291992 220.10673523 156.88891602 212.85900879 C 157.91336060 205.67494202 159.36285400 198.66003418 161.36624146 191.72035217 C 163.85197449 184.86537170 166.73257446 178.24786377 170.05526733 171.95491028 C 173.82656860 166.04115295 178.02525330 160.43161011 182.67527771 155.21734619 C 187.82615662 150.56611633 193.40093994 146.37641907 199.27256775 142.37663269 C 205.10754395 138.40866089 211.12040710 134.65425110 217.41403198 131.17353821 C 223.88058472 128.06030273 230.39270020 125.43188477 237.03976440 123.39238739 C 243.95095825 122.10616302 251.04893494 121.47941589 258.17782593 121.44706726 C 265.22882080 122.08946991 272.19207764 123.46907806 279.09725952 125.59008789 C 285.88378906 128.31494141 292.48846436 131.53840637 298.84298706 135.27146912 C 304.94540405 139.56092834 310.85055542 144.27348328 316.60424805 149.30355835 C 322.09634399 154.61509705 327.60192871 159.96006775 349.15307617 168.06565857" stroke-width="0.95950031" fill="rgb(255, 251, 249)" opacity="1.0" stroke="rgb(255, 251, 248)" stroke-opacity="0.33402452" stroke-linecap="round" stroke-linejoin="round"/>
    <path d="M 416.66009521 295.13064575 C 413.11932373 296.91201782 409.70410156 298.78326416 406.34243774 300.65487671 C 402.98269653 302.45089722 399.71643066 304.28161621 396.63888550 306.27447510 C 393.70419312 308.35845947 390.82531738 310.35861206 387.77383423 311.98098755 C 384.51828003 313.11956787 381.10043335 313.82040405 377.58255005 314.18389893 C 373.97546387 314.22134399 370.26296997 313.93756104 366.55731201 313.41082764 C 362.85379028 312.57012939 359.12252808 311.40158081 355.38845825 309.93264771 C 351.71090698 308.17715454 348.07760620 306.10263062 344.48596191 303.72521973 C 341.02203369 301.09857178 337.72866821 298.24707031 334.58541870 295.12399292 C 331.55972290 291.79519653 328.74838257 288.30584717 326.21224976 284.62347412 C 323.87115479 280.76919556 321.72366333 276.79248047 319.85003662 272.73559570 C 318.23776245 268.54205322 316.86367798 264.27301025 315.73010254 260.00857544 C 314.86776733 255.74873352 314.29129028 251.43846130 313.94369507 247.13793945 C 313.86456299 242.89714050 314.06414795 238.68231201 314.50735474 234.52940369 C 315.20626831 230.43528748 316.15731812 226.41590881 317.37850952 222.47503662 C 318.80352783 218.63410950 320.46188354 214.89923096 322.32620239 211.28044128 C 324.43405151 207.80516052 326.74694824 204.41215515 329.22915649 201.16680908 C 331.90707397 198.12255859 334.75283813 195.18536377 337.80886841 192.41905212 C 340.99490356 189.87025452 344.34851074 187.54676819 347.83493042 185.47894287 C 351.46334839 183.63240051 355.26062012 182.12341309 359.12796021 180.93579102 C 363.07739258 180.06576538 367.08316040 179.52670288 371.11755371 179.35504150 C 375.16360474 179.54632568 379.16305542 180.04481506 383.04327393 180.93093872 C 386.79470825 182.16957092 390.37652588 183.68359375 393.79632568 185.48901367 C 397.09616089 187.59294128 400.16900635 189.93630981 403.05755615 192.55670166 C 405.74261475 195.36772156 408.18942261 198.40846252 410.34344482 201.68536377 C 412.27142334 205.14926147 413.91162109 208.80168152 415.34994507 212.67874146 C 416.87695312 216.62532043 418.49441528 220.65779114 420.10983276 224.77920532 C 421.68725586 229.03240967 423.25531006 233.39929199 424.72088623 237.84011841 C 426.02719116 242.41241455 427.13818359 247.13937378 428.08306885 251.98327637 C 428.91494751 256.92022705 429.62213135 261.91635132 430.29461670 266.99624634 C 430.96472168 272.12072754 431.67901611 277.23629761 416.66009521 295.13064575" stroke-width="0.98702359" fill="rgb(255, 251, 249)" opacity="1.0" stroke="rgb(255, 252, 251)" stroke-opacity="0.7248816" stroke-linecap="round" stroke-linejoin="round"/>
    <path d="M 242.81198120 270.57073975 C 243.60502625 270.00759888 244.41955566 269.43777466 245.18298340 268.90609741 C 246.03436279 268.49359131 246.94197083 268.15045166 247.83860779 267.87924194 C 248.73814392 267.63153076 249.67755127 267.42382812 250.61546326 267.31713867 C 251.54008484 267.27658081 252.47784424 267.29101562 253.40600586 267.35531616 C 254.33988953 267.45642090 255.23658752 267.62026978 256.08386230 267.88421631 C 256.91400146 268.17755127 257.73831177 268.42398071 258.51879883 268.63754272 C 259.22320557 268.93356323 259.85873413 269.39782715 260.31167603 269.94564819 C 260.73217773 270.55758667 261.10501099 271.22384644 261.39157104 271.92611694 C 261.56896973 272.71145630 261.72079468 273.49710083 261.77096558 274.26092529 C 261.74200439 275.04019165 261.63571167 275.79064941 261.44790649 276.49923706 C 261.07775879 277.11157227 260.57897949 277.65792847 259.98068237 278.19924927 C 259.32138062 278.74279785 258.66351318 279.27932739 257.91430664 279.77752686 C 257.13140869 280.16998291 256.28689575 280.43453979 255.41302490 280.55105591 C 254.46887207 280.54101562 253.47343445 280.51824951 252.45043945 280.47412109 C 251.49732971 280.48223877 250.51338196 280.50518799 249.57063293 280.45016479 C 248.72633362 280.27459717 247.90367126 280.05340576 247.16059875 279.76843262 C 246.45770264 279.38818359 245.86029053 278.98864746 245.28535461 278.65380859 C 244.71325684 278.35571289 244.20539856 278.04135132 243.73281860 277.73468018 C 243.32240295 277.39343262 242.95123291 277.04263306 242.63856506 276.67089844 C 242.32666016 276.27914429 242.06616211 275.87500000 242.81198120 270.57073975" stroke-width="2.00000000" fill="rgb(252, 207, 221)" opacity="1.0" stroke="rgb(230, 186, 201)" stroke-opacity="0.59383345" stroke-linecap="round" stroke-linejoin="round"/>
    <path d="M 151.20791626 280.71612549 C 150.51927185 280.19757080 149.81645203 279.74392700 149.09681702 279.27780151 C 148.37785339 278.87768555 147.70935059 278.49581909 147.12007141 278.07015991 C 146.65885925 277.58917236 146.28305054 277.02651978 146.04066467 276.42984009 C 145.89584351 275.77685547 145.86804199 275.08068848 145.89701843 274.37057495 C 145.91770935 273.63055420 145.99743652 272.85632324 146.07882690 272.11196899 C 146.18103027 271.40036011 146.40992737 270.71356201 146.78524780 270.11895752 C 147.26100159 269.57315063 147.85491943 269.08435059 148.59910583 268.69247437 C 149.43206787 268.33477783 150.33967590 268.05172729 151.31893921 267.82211304 C 152.37203979 267.63156128 153.47488403 267.46334839 154.60009766 267.29913330 C 155.74249268 267.19433594 156.87773132 267.19793701 157.99427795 267.29727173 C 159.14538574 267.46939087 160.22441101 267.76666260 161.26660156 268.09182739 C 162.28414917 268.42721558 163.23924255 268.78765869 164.09779358 269.12860107 C 164.85934448 269.47683716 165.48728943 269.81658936 165.93101501 270.19232178 C 166.15151978 270.64724731 166.10725403 271.20605469 166.03422546 271.82168579 C 165.95915222 272.55249023 165.87324524 273.34521484 165.75151062 274.13900757 C 165.53286743 274.93978882 165.22683716 275.75588989 164.85922241 276.53512573 C 164.38484192 277.27188110 163.80392456 277.96292114 163.20013428 278.61434937 C 162.54592896 279.23449707 161.80741882 279.72293091 161.00465393 280.13052368 C 160.10411072 280.46768188 159.17721558 280.76040649 158.22416687 281.02520752 C 157.23156738 281.25958252 156.26393127 281.55206299 151.20791626 280.71612549" stroke-width="1.54808283" fill="rgb(253, 210, 223)" opacity="1.0" stroke="rgb(242, 219, 226)" stroke-opacity="0.9993155" stroke-linecap="round" stroke-linejoin="round"/>
    <path d="M 238.54647827 267.94967651 C 237.87088013 267.84478760 237.21836853 267.83404541 236.40423584 267.94442749 C 235.60450745 267.75216675 234.66242981 267.54321289 233.77922058 267.33184814 C 233.04190063 266.85733032 232.52563477 266.36401367 232.02035522 266.01516724 C 231.44580078 265.96185303 231.15145874 265.73962402 230.89018250 265.46435547 C 230.62330627 264.77822876 230.28332520 263.92407227 229.91665649 263.11206055 C 229.54530334 262.35934448 229.14312744 261.53573608 228.83821106 260.61801147 C 228.84164429 259.69900513 229.09776306 258.72824097 229.14329529 257.62869263 C 229.36618042 256.72940063 229.68258667 255.91554260 230.18458557 255.15814209 C 230.67912292 254.47264099 231.46243286 254.00837708 232.07527161 253.47224426 C 232.77862549 253.00886536 233.58795166 252.51727295 234.49148560 252.16384888 C 235.26936340 251.99035645 236.01657104 251.80076599 236.73947144 251.56405640 C 237.54803467 251.66995239 238.19741821 252.02822876 238.88165283 252.41967773 C 239.75712585 252.68373108 240.59175110 252.94757080 241.27145386 253.32516479 C 241.73333740 254.02238464 242.31430054 254.70846558 243.08410645 255.24501038 C 243.57649231 256.06228638 243.92233276 256.94555664 244.28465271 257.71582031 C 244.63053894 258.50833130 244.95462036 259.30090332 244.93785095 260.06756592 C 244.72581482 260.75430298 244.79469299 261.42126465 244.98931885 262.06311035 C 244.97169495 262.67312622 244.60385132 263.22677612 244.22480774 263.78979492 C 243.78117371 264.29037476 243.28767395 264.81909180 242.79901123 265.35028076 C 242.37637329 265.89416504 242.00103760 266.44079590 238.54647827 267.94967651" stroke-width="0.86948842" fill="rgb(71, 125, 169)" opacity="1.0" stroke="rgb(145, 208, 238)" stroke-opacity="0.36547887" stroke-linecap="round" stroke-linejoin="round"/>
    <path d="M 173.87609863 252.62471008 C 174.58105469 253.16085815 175.26362610 253.61149597 175.94007874 254.00952148 C 176.44851685 254.47723389 176.92112732 254.96530151 177.19342041 255.49353027 C 177.58160400 256.03485107 177.86598206 256.53295898 178.14234924 257.04168701 C 178.14889526 257.64990234 178.12989807 258.26608276 178.27743530 259.03640747 C 178.36717224 259.89666748 178.42776489 260.82470703 178.33590698 261.63482666 C 177.84486389 262.40490723 177.55291748 263.24880981 177.24020386 264.09823608 C 176.57585144 264.79339600 175.91676331 265.40798950 175.34214783 265.97903442 C 174.64443970 266.50271606 173.90364075 266.97140503 173.05081177 267.36871338 C 172.15878296 267.64547729 171.24868774 267.87033081 170.39468384 268.01760864 C 169.44851685 268.02691650 168.61132812 267.99139404 167.80334473 267.73779297 C 167.05686951 267.31231689 166.38487244 266.74337769 165.67497253 266.29312134 C 164.89361572 265.83093262 164.32600403 265.21075439 163.80322266 264.58496094 C 163.23431396 263.99594116 162.76777649 263.37948608 162.55780029 262.67779541 C 162.43020630 261.95376587 162.34774780 261.15103149 162.10520935 260.32315063 C 162.09101868 259.46264648 162.16682434 258.63882446 162.37849426 257.93292236 C 162.72848511 257.37823486 163.03483582 256.69967651 163.42208862 256.02844238 C 163.80055237 255.61303711 164.01841736 255.07693481 164.53909302 254.58053589 C 165.14546204 254.14373779 165.63230896 253.65681458 166.29827881 253.23045349 C 167.15881348 252.78063965 167.98474121 252.48725891 168.88842773 252.09295654 C 169.76805115 251.73524475 170.49079895 251.33778381 173.87609863 252.62471008" stroke-width="0.81223321" fill="rgb(69, 126, 169)" opacity="1.0" stroke="rgb(128, 192, 223)" stroke-opacity="0.41559842" stroke-linecap="round" stroke-linejoin="round"/>
    <path d="M 190.30203247 277.08169556 C 190.49168396 278.63912964 190.50633240 280.12322998 191.02775574 281.45236206 C 192.63275146 282.54461670 194.77587891 283.53274536 197.29122925 284.15264893 C 200.09851074 284.63244629 202.84045410 284.42642212 205.52444458 283.87915039 C 207.84803772 282.89071655 209.65095520 281.57351685 210.65843201 280.17025757 C 211.01925659 278.85083008 211.13343811 278.06369019 211.72991943 277.91632080 C 212.57238770 278.26196289 213.32574463 278.95843506 213.28584290 280.08636475 C 212.53924561 281.76348877 210.90966797 283.13604736 208.74519348 284.30770874 C 206.16629028 285.39331055 203.06472778 285.89758301 199.74195862 286.14572144 C 196.60740662 285.98684692 193.48153687 284.96762085 190.57305908 283.15805054 C 187.85456848 280.58615112 185.16064453 277.87521362 190.30203247 277.08169556" stroke-width="0.76404142" fill="rgb(33, 66, 102)" opacity="1.0" stroke="rgb(105, 148, 180)" stroke-opacity="0.7458194" stroke-linecap="round" stroke-linejoin="round"/>
  </g>
</svg>
