<?xml version="1.0" ?>
<svg xmlns="http://www.w3.org/2000/svg" version="1.1" width="512" height="512" viewBox="0 0 512 512">
  <defs/>
  <g>
    <path d="M 210.35115051 413.68746948 C 208.32066345 413.63125610 206.34004211 413.62823486 204.44572449 413.54779053 C 202.76560974 413.34133911 201.33827209 412.95785522 200.15924072 412.31652832 C 199.26342773 411.37829590 198.75337219 410.10794067 198.68299866 408.46591187 C 198.81755066 406.29339600 198.80650330 403.75213623 198.62597656 400.80895996 C 198.42152405 397.50180054 198.42782593 393.76751709 198.45675659 389.75125122 C 198.40510559 385.44854736 198.31358337 380.88006592 198.19355774 376.14331055 C 198.21691895 371.25646973 198.30300903 366.17718506 198.17779541 361.05895996 C 198.31864929 355.78659058 198.03421021 350.46694946 197.65734863 345.08129883 C 197.62812805 339.63534546 197.44865417 334.25759888 197.47009277 329.05017090 C 197.44027710 324.02563477 197.33818054 319.27435303 197.18453979 314.87106323 C 197.19827271 310.92016602 196.94299316 307.51351929 196.77223206 304.63577271 C 197.33799744 302.38296509 198.55366516 300.73657227 200.19531250 299.65969849 C 202.15719604 299.12673950 204.23086548 299.10073853 206.31590271 299.70581055 C 208.34573364 300.77029419 210.25756836 302.28713989 211.80075073 304.33602905 C 212.81828308 306.84045410 213.31922913 309.83016968 213.39912415 313.27740479 C 213.08892822 317.03515625 212.92425537 321.16958618 212.78335571 325.65545654 C 212.69128418 330.37142944 212.50419617 335.36645508 212.40565491 340.51934814 C 212.51034546 345.78536987 212.31927490 351.19635010 211.96011353 356.73568726 C 211.78524780 362.34127808 211.59796143 367.98110962 211.47492981 373.68164062 C 211.19313049 379.38153076 210.79193115 385.09243774 210.35115051 413.68746948" stroke-width="1.85713530" fill="rgb(229, 200, 127)" opacity="1.0" stroke="rgb(85, 64, 15)" stroke-opacity="0.65648496" stroke-linecap="round" stroke-linejoin="round"/>
    <path d="M 238.18676758 291.39923096 C 240.79975891 293.35891724 243.31385803 295.33648682 245.65751648 297.33908081 C 247.82641602 299.39895630 249.83390808 301.51849365 251.61053467 303.74371338 C 252.98989868 306.17736816 253.94651794 308.76394653 254.42829895 311.66763306 C 254.40022278 314.86666870 254.27423096 318.39398193 254.11790466 322.23751831 C 254.01269531 326.43765259 253.83654785 330.88635254 253.83038330 335.58023071 C 253.73007202 340.56460571 253.56542969 345.80139160 253.48712158 351.13494873 C 253.36807251 356.62948608 253.21278381 362.28097534 253.09588623 367.95910645 C 252.92337036 373.62652588 252.92333984 379.29785156 252.84936523 384.91098022 C 252.63845825 390.40612793 252.67025757 395.70101929 252.45384216 400.69036865 C 252.36943054 405.31576538 252.21154785 409.58847046 252.12394714 413.34725952 C 252.25729370 416.52978516 252.03401184 419.07391357 251.17231750 420.96844482 C 249.68676758 422.22875977 247.72254944 422.91235352 245.61323547 422.99819946 C 243.58207703 422.62222290 241.86361694 421.67883301 240.49331665 420.23004150 C 239.81932068 418.11145020 239.81901550 415.44088745 240.01776123 412.20620728 C 239.87142944 408.52352905 239.76661682 404.41333008 239.82507324 399.99099731 C 239.68760681 395.29400635 239.50987244 390.32366943 239.50636292 385.24078369 C 239.45361328 379.93499756 239.42979431 374.51147461 239.43296814 368.98828125 C 239.22373962 363.40362549 239.21707153 357.74414062 239.25737000 352.07067871 C 239.23085022 346.33224487 239.14360046 340.57925415 239.01039124 334.83419800 C 238.77818298 329.08190918 238.51663208 323.36367798 238.18676758 291.39923096" stroke-width="1.68646586" fill="rgb(227, 197, 123)" opacity="1.0" stroke="rgb(67, 51, 14)" stroke-opacity="0.6202659" stroke-linecap="round" stroke-linejoin="round"/>
    <path d="M 290.28085327 405.73764038 C 290.23165894 408.79919434 290.12512207 411.75067139 289.97140503 414.56814575 C 290.05630493 417.28146362 290.07073975 419.69406128 289.83648682 421.68881226 C 289.05438232 423.10891724 287.87100220 424.19891357 286.49176025 425.02407837 C 284.96493530 425.46340942 283.37448120 425.46661377 281.70443726 425.24526978 C 280.26669312 424.70407104 279.20712280 423.53530884 278.52239990 421.65338135 C 278.25732422 419.05883789 278.30001831 415.91961670 278.38128662 412.22012329 C 278.39730835 407.97445679 278.41213989 403.18225098 278.30960083 398.02532959 C 278.20254517 392.43054199 278.25805664 386.55746460 278.22329712 380.41879272 C 278.20202637 374.10351562 278.28662109 367.67987061 278.24926758 361.24130249 C 278.11965942 354.67999268 278.03378296 348.23083496 278.17944336 341.94915771 C 278.11712646 335.97033691 277.96798706 330.26315308 277.65493774 324.88452148 C 277.68249512 319.88143921 277.81326294 315.42889404 278.04434204 311.52618408 C 278.93408203 308.27197266 280.29690552 305.72778320 281.98583984 303.87860107 C 283.89944458 302.64880371 285.89657593 302.04669189 287.91467285 302.05435181 C 289.78558350 302.60348511 291.34246826 303.76815796 292.59805298 305.50128174 C 293.45031738 307.71682739 293.64434814 310.47659302 293.31008911 313.76190186 C 293.11407471 317.52154541 292.91571045 321.71029663 292.86724854 326.24658203 C 292.80419922 331.03271484 292.54830933 336.02804565 292.51806641 341.16455078 C 292.43734741 346.37161255 292.31533813 351.65390015 291.95617676 356.95104980 C 291.63906860 362.25888062 291.42498779 367.54931641 290.28085327 405.73764038" stroke-width="1.81321967" fill="rgb(226, 198, 124)" opacity="1.0" stroke="rgb(108, 86, 42)" stroke-opacity="0.7583425" stroke-linecap="round" stroke-linejoin="round"/>
    <path d="M 330.90362549 348.51889038 C 330.71362305 354.16943359 330.65161133 359.82373047 330.70166016 365.40899658 C 330.33642578 371.07662964 330.26416016 376.73599243 330.34991455 382.30130005 C 330.07849121 387.70053101 329.92279053 392.83853149 330.00503540 397.73516846 C 329.95620728 402.25268555 329.87933350 406.28240967 329.95571899 409.71313477 C 329.92831421 412.49658203 329.44949341 414.57281494 328.35156250 415.97140503 C 326.81381226 416.75521851 325.14935303 416.94555664 323.38552856 416.54406738 C 321.63778687 415.64956665 320.22781372 414.03836060 319.45141602 411.76702881 C 319.33184814 408.63122559 319.33074951 404.86251831 319.20831299 400.44567871 C 319.16067505 395.48852539 319.17208862 390.15005493 319.19696045 384.45477295 C 319.25482178 378.51797485 318.95285034 372.40121460 318.41012573 366.17742920 C 318.52478027 359.85800171 318.55999756 353.50534058 318.44342041 347.14804077 C 318.32949829 340.93789673 318.35455322 334.83245850 318.27020264 328.92980957 C 318.20797729 323.25000000 318.09091187 317.92480469 317.91635132 312.99691772 C 317.52761841 308.58337402 317.41738892 304.72366333 317.82852173 301.36123657 C 318.82260132 298.58538818 320.40408325 296.35397339 322.28137207 294.65158081 C 324.28344727 293.53253174 326.32901001 292.85662842 328.27423096 292.67080688 C 329.97061157 292.94537354 331.28109741 293.68066406 332.05093384 294.80712891 C 332.07742310 296.30319214 331.95178223 298.12933350 331.96789551 300.19607544 C 332.12945557 302.43865967 332.00781250 304.78601074 331.93295288 307.21343994 C 331.83908081 309.69934082 331.79470825 312.17153931 330.90362549 348.51889038" stroke-width="1.71644878" fill="rgb(228, 200, 127)" opacity="1.0" stroke="rgb(71, 57, 23)" stroke-opacity="0.69853973" stroke-linecap="round" stroke-linejoin="round"/>
    <path d="M 352.06704712 216.67259216 C 352.17254639 220.57757568 352.16326904 224.40322876 352.14553833 228.24975586 C 352.14553833 232.07121277 352.04779053 235.80509949 351.86770630 239.48730469 C 351.29687500 243.00326538 350.33590698 246.33975220 348.94937134 249.50866699 C 347.30780029 252.32893372 345.44509888 254.83029175 343.40255737 256.95907593 C 341.23605347 258.70730591 339.00030518 259.98464966 336.61901855 260.81466675 C 334.14538574 261.09289551 331.74893188 260.89035034 329.40032959 260.18820190 C 327.07470703 258.97943115 324.81707764 257.25085449 322.74328613 255.05455017 C 320.87173462 252.41539001 319.09524536 249.30911255 317.54382324 245.80738831 C 316.24636841 242.02319336 315.23248291 237.96920776 314.48965454 233.60267639 C 313.99069214 228.99502563 313.85220337 224.29573059 314.13934326 219.59843445 C 314.70199585 214.83607483 315.53805542 210.06678772 316.81924438 205.46165466 C 318.58035278 201.08569336 319.78924561 196.64930725 319.97283936 191.86647034 C 320.07015991 186.52185059 320.12069702 180.81495667 320.19921875 174.86822510 C 320.21102905 168.63879395 320.24316406 162.14865112 320.30169678 155.52545166 C 320.21865845 148.80676270 320.39797974 141.96759033 320.51791382 135.05760193 C 320.43817139 128.13681030 320.44839478 121.24003601 320.58676147 114.45510101 C 320.67562866 107.79946899 320.95675659 101.25647736 321.00003052 95.02306366 C 321.18438721 89.19051361 321.34603882 83.74519348 321.78573608 78.65922546 C 323.05398560 74.23374939 324.96258545 70.43165588 327.50823975 67.14266205 C 330.59414673 64.41189575 333.94796753 62.32323074 337.35882568 60.86006927 C 340.66128540 59.94783401 343.73007202 59.62720871 346.42117310 59.94689560 C 348.62786865 60.97183228 350.23248291 62.72734451 351.03076172 65.21348572 C 350.93435669 68.42951202 350.56784058 72.34095764 350.52041626 76.84937286 C 350.33950806 81.82919312 350.08337402 87.20687866 350.01919556 92.96894073 C 350.04904175 98.95603180 350.11108398 105.18363953 350.10659790 111.50511169 C 350.44589233 117.89199829 350.48458862 124.27962494 350.46496582 130.80447388 C 350.65112305 137.22317505 350.70846558 143.60563660 350.70663452 149.85646057 C 350.75811768 156.08985901 350.97109985 162.11705017 351.02383423 167.93493652 C 351.45382690 173.40820312 351.62173462 178.80429077 351.38195801 184.12948608 C 351.63095093 189.42079163 351.77328491 194.65003967 352.06704712 216.67259216" stroke-width="1.75289321" fill="rgb(226, 194, 121)" opacity="1.0" stroke="rgb(63, 44, 14)" stroke-opacity="0.8284285" stroke-linecap="round" stroke-linejoin="round"/>
    <path d="M 344.64181519 279.94735718 C 341.61141968 284.32983398 338.18502808 288.32217407 334.20184326 291.65493774 C 329.87039185 294.35671997 325.33840942 296.94134521 320.76776123 299.37905884 C 315.91760254 301.43206787 310.93878174 303.18395996 305.84616089 304.70004272 C 300.48355103 306.16000366 295.08807373 307.33493042 289.48812866 307.90234375 C 283.66183472 308.45217896 277.80465698 309.10284424 271.92269897 309.55828857 C 266.03527832 309.86965942 260.00875854 309.78085327 253.95649719 309.63964844 C 247.94586182 309.80889893 241.89842224 309.81259155 235.91165161 309.13204956 C 229.93800354 308.82107544 224.01066589 308.32952881 218.10997009 307.66720581 C 212.28918457 307.01229858 206.61318970 305.83160400 201.10424805 304.27719116 C 195.83636475 302.36318970 190.74255371 300.24142456 185.96826172 297.47644043 C 181.58099365 294.13272095 177.61587524 290.28195190 173.90554810 286.27246094 C 170.57206726 282.04629517 167.92407227 277.52282715 166.07933044 272.79495239 C 164.41067505 267.92410278 163.28324890 262.86853027 163.18542480 257.81927490 C 163.16650391 252.88011169 163.08111572 248.04348755 162.65081787 243.51556396 C 162.48143005 239.56396484 163.64883423 236.25508118 166.08840942 233.22047424 C 169.25286865 230.10058594 172.81971741 226.78144836 176.73017883 223.42366028 C 180.92082214 220.03536987 185.42839050 216.85252380 190.17192078 213.88201904 C 195.04550171 210.95018005 200.00843811 208.33741760 205.18299866 206.16671753 C 210.45164490 204.05622864 215.70472717 202.20925903 221.05665588 200.72213745 C 226.56193542 199.68843079 232.03793335 198.87187195 237.49397278 198.17935181 C 243.02743530 197.79022217 248.57150269 197.55264282 254.13937378 197.78842163 C 259.70730591 197.95579529 265.28329468 198.46958923 270.78808594 199.41426086 C 276.34378052 200.27064514 281.70971680 201.68768311 287.00888062 203.49566650 C 292.30053711 205.33065796 297.71539307 206.86781311 303.08724976 208.44992065 C 308.04415894 211.15345764 312.77465820 214.38778687 317.54348755 217.73858643 C 322.45819092 220.96318054 327.21301270 224.01986694 331.73413086 226.76321411 C 336.29779053 228.84739685 340.71127319 230.55392456 344.54452515 232.41357422 C 347.76074219 234.43356323 350.28924561 236.71972656 351.77487183 239.67773438 C 352.04699707 243.79106140 351.85391235 248.83065796 351.25762939 254.39445496 C 350.80239868 260.28588867 350.75274658 266.31005859 344.64181519 279.94735718" stroke-width="1.59996748" fill="rgb(225, 190, 117)" opacity="1.0" stroke="rgb(111, 97, 69)" stroke-opacity="1.0" stroke-linecap="round" stroke-linejoin="round"/>
    <path d="M 231.70436096 242.59085083 C 230.87596130 244.01005554 230.06127930 245.44537354 229.10185242 246.72399902 C 228.03361511 247.94767761 226.81713867 249.00891113 225.53273010 249.91333008 C 224.14842224 250.70603943 222.71627808 251.34461975 221.20378113 251.73818970 C 219.63948059 251.94606018 218.07110596 251.91026306 216.45602417 251.74490356 C 214.82366943 251.47494507 213.28813171 250.94409180 211.82579041 250.19549561 C 210.38383484 249.29048157 209.08757019 248.16085815 207.92785645 246.83119202 C 206.80529785 245.38554382 205.86753845 243.84291077 205.10662842 242.07264709 C 204.54023743 240.18014526 204.07481384 238.14814758 203.70045471 236.08999634 C 203.48007202 233.96513367 203.39776611 231.77886963 203.43142700 229.63877869 C 203.66355896 227.50267029 204.01362610 225.41122437 204.45259094 223.36016846 C 204.99777222 221.37339783 205.67674255 219.53761292 206.45396423 217.81057739 C 207.39683533 216.12709045 208.44926453 214.67642212 209.68663025 213.37976074 C 211.01792908 212.28913879 212.44119263 211.35513306 213.98619080 210.68183899 C 215.64062500 210.17658997 217.27612305 209.83995056 218.97297668 209.72389221 C 220.58721924 209.94233704 222.11145020 210.40748596 223.61676025 211.10403442 C 225.09654236 211.94834900 226.47204590 212.92846680 227.78034973 214.09286499 C 228.97273254 215.42028809 230.02854919 216.89295959 231.00112915 218.49205017 C 231.82427979 220.17996216 232.50462341 221.98844910 233.02423096 223.96391296 C 233.35972595 226.01542664 233.60116577 228.10931396 233.75184631 230.36044312 C 233.87745667 232.60668945 234.09637451 234.87902832 231.70436096 242.59085083" stroke-width="0.35231975" fill="rgb(167, 104, 32)" opacity="1.0" stroke="rgb(186, 139, 72)" stroke-opacity="0.918326" stroke-linecap="round" stroke-linejoin="round"/>
    <path d="M 293.38290405 281.49304199 C 292.29714966 283.21441650 291.20959473 284.86267090 290.05313110 286.41058350 C 288.76690674 287.80123901 287.39141846 289.03189087 285.90417480 290.03863525 C 284.29666138 290.87057495 282.67495728 291.53323364 281.00848389 292.01141357 C 279.33200073 292.23657227 277.58499146 292.24072266 275.91320801 292.11441040 C 274.25964355 291.78393555 272.66192627 291.19018555 271.16302490 290.51730347 C 269.81158447 289.57241821 268.46209717 288.43475342 267.31188965 287.06213379 C 266.26727295 285.50259399 265.29855347 283.81182861 264.51187134 281.99923706 C 263.88604736 280.08276367 263.48498535 278.04257202 263.22515869 275.95782471 C 263.11895752 273.80136108 263.12158203 271.65750122 263.25915527 269.53799438 C 263.55895996 267.41271973 263.97268677 265.35552979 264.59042358 263.36276245 C 265.36154175 261.45870972 266.26541138 259.63903809 267.38021851 257.97460938 C 268.62536621 256.50128174 270.01354980 255.18167114 271.52264404 254.00602722 C 273.13952637 253.03315735 274.84307861 252.28701782 276.53729248 251.74884033 C 278.32977295 251.46240234 280.11462402 251.41720581 281.88082886 251.55755615 C 283.52413940 251.89123535 285.12469482 252.40008545 286.62713623 253.09126282 C 287.99102783 253.93913269 289.22817993 254.95846558 290.40579224 256.09976196 C 291.43246460 257.39715576 292.35394287 258.81234741 293.10543823 260.32827759 C 293.74447632 261.92279053 294.32025146 263.59814453 294.76168823 265.34237671 C 295.06066895 267.10522461 295.21090698 268.91537476 295.28366089 270.77413940 C 295.37762451 272.62979126 295.52194214 274.54650879 293.38290405 281.49304199" stroke-width="0.49173611" fill="rgb(161, 98, 31)" opacity="1.0" stroke="rgb(191, 141, 76)" stroke-opacity="0.9456821" stroke-linecap="round" stroke-linejoin="round"/>
    <path d="M 291.51089478 204.94937134 C 293.73815918 205.63256836 295.87469482 206.32385254 297.86431885 206.93800354 C 299.74716187 207.44584656 301.69012451 207.66300964 303.63745117 207.53103638 C 305.47381592 207.44590759 307.18087769 207.44606018 308.80557251 207.47030640 C 310.32983398 207.18923950 311.61462402 206.74415588 312.71936035 206.16157532 C 313.58483887 205.42858887 314.27914429 204.61093140 314.85638428 203.99423218 C 315.28573608 203.52142334 315.57070923 203.17929077 315.84545898 203.18020630 C 316.14538574 203.61305237 316.38150024 204.40437317 316.56567383 205.43888855 C 316.72589111 206.77593994 316.80838013 208.34822083 316.77691650 210.06642151 C 316.63601685 211.97975159 316.53054810 213.97914124 316.43161011 216.03163147 C 316.19165039 218.07144165 315.92407227 220.14561462 315.58493042 222.14907837 C 315.12619019 223.97792053 314.46652222 225.62689209 313.72805786 227.18246460 C 312.80966187 228.51954651 311.80224609 229.69302368 310.68524170 230.63340759 C 309.49481201 231.29214478 308.19668579 231.65602112 306.83053589 231.83093262 C 305.41046143 231.84214783 304.00942993 231.75746155 302.63003540 231.50318909 C 301.22341919 231.03108215 299.78985596 230.39680481 298.48031616 229.64288330 C 297.24826050 228.73786926 296.12823486 227.69808960 295.07867432 226.45919800 C 294.19815063 225.06846619 293.38171387 223.63084412 292.62847900 222.11154175 C 292.00296021 220.46398926 291.52035522 218.76554871 291.07376099 217.05697632 C 290.65914917 215.25318909 290.39300537 213.43444824 290.24435425 211.55841064 C 290.11004639 209.62780762 290.01968384 207.72291565 291.51089478 204.94937134" stroke-width="0.56263870" fill="rgb(166, 104, 36)" opacity="1.0" stroke="rgb(22, 0, 0)" stroke-opacity="0.43593284" stroke-linecap="round" stroke-linejoin="round"/>
    <path d="M 323.13580322 122.02903748 C 323.20086670 120.33502960 323.24136353 118.66045380 323.29443359 117.03499603 C 323.35916138 115.44424438 323.45947266 113.92130280 323.63891602 112.53990936 C 323.92776489 111.22644806 324.33413696 110.06901550 324.79241943 108.97222137 C 325.41229248 108.03775787 326.09973145 107.21285248 326.83828735 106.53645325 C 327.67794800 106.00448608 328.54830933 105.58438110 329.49691772 105.26778412 C 330.41494751 105.13642883 331.35922241 105.09618378 332.26629639 105.14684296 C 333.23876953 105.35216522 334.12493896 105.73822021 334.94500732 106.18763733 C 335.70312500 106.86837769 336.47161865 107.61034393 337.13269043 108.39676666 C 337.67669678 109.36397552 338.12734985 110.42181396 338.48007202 111.58179474 C 338.77310181 112.85500336 339.00393677 114.14859772 339.19073486 115.53717804 C 339.25790405 116.99101257 339.24133301 118.45225525 339.20062256 119.93669128 C 339.13867188 121.43734741 338.97018433 122.90925598 338.76376343 124.36573792 C 338.42340088 125.76818085 338.07196045 127.07969666 337.70590210 128.36746216 C 337.26678467 129.53590393 336.65924072 130.55960083 335.95086670 131.38183594 C 335.16647339 132.11296082 334.38046265 132.77108765 333.71881104 133.34483337 C 332.95779419 133.70074463 332.22802734 133.77174377 331.48159790 133.67268372 C 330.66830444 133.52096558 329.84234619 133.43521118 329.08331299 133.28944397 C 328.33816528 132.99568176 327.75869751 132.57220459 327.18942261 131.98796082 C 326.62957764 131.36946106 326.05169678 130.72746277 325.46823120 130.05734253 C 324.88217163 129.35282898 324.23498535 128.69519043 323.13580322 122.02903748" stroke-width="0.20673020" fill="rgb(170, 108, 35)" opacity="1.0" stroke="rgb(169, 124, 51)" stroke-opacity="0.6496199" stroke-linecap="round" stroke-linejoin="round"/>
    <path d="M 345.08596802 194.38705444 C 344.40603638 195.62309265 343.64144897 196.77648926 342.87268066 197.86135864 C 341.97808838 198.75613403 340.96231079 199.49142456 339.89730835 200.09707642 C 338.84933472 200.61166382 337.73342896 201.02316284 336.55377197 201.18875122 C 335.41519165 201.11537170 334.18460083 200.80807495 332.93743896 200.36853027 C 331.67938232 199.86444092 330.44415283 199.27334595 329.30194092 198.47351074 C 328.25057983 197.50810242 327.31698608 196.36605835 326.47570801 195.05760193 C 325.77127075 193.58560181 325.14453125 192.05313110 324.62615967 190.41390991 C 324.21792603 188.67771912 323.92660522 186.90856934 323.82485962 185.02627563 C 323.86911011 183.12966919 323.95898438 181.28671265 324.10244751 179.40509033 C 324.28887939 177.50585938 324.58032227 175.66719055 324.99282837 173.92129517 C 325.58639526 172.24371338 326.29467773 170.68737793 327.03051758 169.18659973 C 327.82940674 167.87243652 328.74566650 166.72578430 329.72747803 165.69483948 C 330.79391479 164.90293884 331.94421387 164.36120605 333.20175171 163.93945312 C 334.46813965 163.78410339 335.78762817 163.78437805 337.15036011 163.90263367 C 338.44631958 164.18229675 339.70599365 164.61479187 340.97406006 165.21427917 C 342.09609985 165.95751953 343.11810303 166.82907104 344.09188843 167.80426025 C 344.90264893 168.90071106 345.56292725 170.14843750 346.04098511 171.51982117 C 346.25585938 172.99003601 346.34146118 174.57748413 346.43505859 176.21658325 C 346.41290283 177.93196106 346.38745117 179.71028137 346.42895508 181.51606750 C 346.49258423 183.33937073 346.58355713 185.15798950 345.08596802 194.38705444" stroke-width="0.46930149" fill="rgb(167, 102, 34)" opacity="1.0" stroke="rgb(193, 141, 70)" stroke-opacity="0.80003446" stroke-linecap="round" stroke-linejoin="round"/>
    <path d="M 342.67739868 79.98834229 C 338.70364380 80.54499817 334.79943848 80.71241760 331.08389282 80.31002045 C 327.77322388 79.44583130 324.72543335 78.02658081 322.07220459 76.35842133 C 319.80187988 74.51543427 318.05468750 72.58567810 317.10964966 70.28433990 C 316.90420532 67.58189392 317.26235962 64.78982544 317.80212402 62.19499207 C 318.64590454 60.18145370 319.03262329 58.85733032 318.62258911 58.28169632 C 317.24792480 58.45510101 315.14566040 58.91256332 312.48590088 58.87592316 C 309.66592407 58.75724030 307.07189941 58.52288818 305.23348999 57.75383759 C 304.64526367 56.59513474 305.35592651 55.07984543 306.94781494 52.99343872 C 308.93884277 50.44214249 311.51794434 47.93755341 314.74032593 45.64183807 C 318.16366577 43.65753937 321.80349731 42.22421265 325.04092407 41.00720215 C 327.22775269 39.30149841 328.81890869 37.55821991 330.71878052 36.64444733 C 333.37121582 37.03207779 336.64303589 38.24944687 340.28515625 39.11755753 C 343.98025513 39.26051331 347.30432129 40.05965042 350.15036011 42.19774628 C 352.39505005 45.22780228 355.41360474 47.73024368 359.03930664 49.45120621 C 362.35577393 51.64790726 364.83190918 54.44288635 366.77655029 57.12696457 C 368.01171875 59.47288895 368.00186157 61.51525116 366.79891968 63.06623077 C 364.90985107 64.33785248 362.48068237 64.75954437 359.82723999 64.45264435 C 357.21011353 63.99366760 355.05014038 62.95681381 353.41558838 62.13029861 C 352.27896118 62.61923218 351.51193237 64.36392975 350.63281250 66.88605499 C 349.77944946 70.00901031 349.00854492 73.54837799 342.67739868 79.98834229" stroke-width="1.55152321" fill="rgb(231, 202, 131)" opacity="1.0" stroke="rgb(47, 29, 0)" stroke-opacity="0.6983075" stroke-linecap="round" stroke-linejoin="round"/>
    <path d="M 335.31091309 36.57656479 C 333.90588379 36.51572037 332.49005127 36.46667862 331.21011353 36.47102356 C 330.07708740 36.41448593 329.13821411 36.40760803 328.30953979 36.56178665 C 327.74923706 36.87015152 327.37371826 37.14010620 327.13226318 37.02368164 C 326.87362671 36.51737213 326.75387573 35.78681564 326.70788574 34.88176346 C 326.76824951 33.82041550 326.76190186 32.65185928 326.65902710 31.48797226 C 326.77890015 30.20193291 326.83099365 28.75748634 326.91558838 27.42994308 C 327.24157715 26.25417328 327.60504150 25.17014885 328.08776855 24.22430038 C 328.85897827 23.60363770 329.75399780 23.20359993 330.77615356 22.98270226 C 331.80087280 23.02073288 332.86328125 23.29129219 334.04196167 23.83857536 C 335.32254028 24.54816055 336.68237305 25.13967514 335.31091309 36.57656479" stroke-width="0.54132044" fill="rgb(85, 44, 25)" opacity="1.0" stroke="rgb(8, 9, 15)" stroke-opacity="0.31370676" stroke-linecap="round" stroke-linejoin="round"/>
    <path d="M 348.77502441 26.35805893 C 349.81631470 26.34062004 350.76629639 26.45512199 351.69711304 26.62810135 C 352.68856812 26.85755920 353.46783447 27.23304176 354.12762451 27.77514267 C 354.65966797 28.47609138 355.15823364 29.45692062 355.48577881 30.57354736 C 355.54129028 31.64515686 355.40121460 32.80201721 355.09942627 34.16876221 C 354.73257446 35.51813507 354.20419312 36.69707870 353.56661987 37.82542801 C 353.08706665 38.98427200 352.77597046 40.05201340 352.43051147 40.86214828 C 352.06488037 41.54848480 351.68917847 41.73139954 351.39257812 41.34849167 C 350.88323975 40.63012314 350.07974243 39.72916412 348.94537354 38.95877838 C 347.69879150 38.41661835 346.35452271 38.21060181 344.94815063 38.20436096 C 343.51538086 38.54928589 342.12255859 39.02439499 348.77502441 26.35805893" stroke-width="0.54371095" fill="rgb(88, 47, 26)" opacity="1.0" stroke="rgb(5, 8, 0)" stroke-opacity="0.42181104" stroke-linecap="round" stroke-linejoin="round"/>
    <path d="M 325.60140991 48.90815735 C 324.99499512 48.95255280 324.41229248 48.89485931 323.90216064 48.80623627 C 323.46511841 48.72203064 323.10641479 48.55182648 322.82528687 48.33050537 C 322.51605225 48.08250046 322.30984497 47.69988251 322.16116333 47.27135849 C 321.96743774 46.89030075 321.84796143 46.50197220 321.86239624 46.13689804 C 321.99426270 45.76406860 322.18624878 45.44012833 322.45303345 45.13346863 C 322.69277954 44.81539154 322.90618896 44.61696243 323.24496460 44.49665070 C 323.75167847 44.45324707 324.32318115 44.41260910 324.80929565 44.35881424 C 325.27133179 44.39840317 325.72509766 44.53697586 326.16320801 44.75106430 C 326.57598877 45.03981781 326.89770508 45.37155533 327.16265869 45.79084396 C 327.46331787 46.30764389 327.74902344 46.80958176 325.60140991 48.90815735" stroke-width="0.53391308" fill="rgb(9, 5, 5)" opacity="1.0" stroke="rgb(67, 73, 94)" stroke-opacity="0.6626601" stroke-linecap="round" stroke-linejoin="round"/>
    <path d="M 347.99060059 54.25302124 C 348.08105469 53.55254364 348.19088745 52.97190475 348.37731934 52.41028214 C 348.55810547 51.81415558 348.72302246 51.28729248 348.89398193 50.84645844 C 349.10070801 50.58135605 349.33621216 50.45245743 349.62277222 50.47684479 C 349.97784424 50.68592453 350.39889526 50.94253922 350.73818970 51.12685776 C 351.02655029 51.33916855 351.37451172 51.60597992 351.81167603 51.82873917 C 352.15505981 52.08954239 352.47003174 52.41004562 352.56185913 52.79013062 C 352.55944824 53.25395584 352.50265503 53.69397354 352.31671143 54.09058380 C 352.12554932 54.54049683 351.99731445 54.95746613 351.77209473 55.33110428 C 351.34472656 55.67869186 350.87493896 55.95053101 350.38433838 56.12483215 C 349.95776367 56.28057861 349.53588867 56.64572144 347.99060059 54.25302124" stroke-width="0.45488009" fill="rgb(21, 14, 8)" opacity="1.0" stroke="rgb(95, 95, 93)" stroke-opacity="0.5567533" stroke-linecap="round" stroke-linejoin="round"/>
    <path d="M 140.93127441 333.99230957 C 140.56059265 334.97827148 140.21701050 336.11273193 140.08438110 337.17669678 C 139.71372986 338.03900146 139.50889587 338.72186279 139.32557678 339.25656128 C 139.23196411 339.61532593 139.33551025 339.72503662 139.27685547 339.54025269 C 139.31988525 339.00021362 139.63458252 338.19522095 140.08460999 337.01602173 C 140.58491516 335.15270996 141.18493652 332.97677612 141.62571716 330.25234985 C 142.33671570 327.21640015 143.09092712 323.73382568 143.74137878 319.97064209 C 144.64233398 315.81072998 145.32690430 311.38616943 145.91853333 306.71896362 C 146.72760010 301.82476807 147.46583557 296.80554199 148.05413818 291.66079712 C 149.03421021 286.51000977 149.94967651 281.36895752 150.74314880 276.23550415 C 151.57312012 271.22769165 152.79478455 266.61962891 154.15805054 262.15582275 C 155.06385803 257.72048950 156.27183533 253.72073364 157.71003723 250.09448242 C 158.80857849 246.69740295 159.98469543 243.97679138 161.17829895 241.84118652 C 161.85905457 240.24368286 162.22950745 239.46560669 162.42643738 239.66265869 C 162.55651855 240.70756531 162.35942078 242.41197205 161.99504089 244.81462097 C 161.00357056 247.67916870 159.89619446 250.95530701 159.08909607 254.67646790 C 158.00640869 258.80187988 156.80358887 263.21591187 155.58180237 267.94320679 C 154.23448181 272.79742432 152.91748047 277.80484009 151.63652039 282.83895874 C 150.65270996 287.97839355 149.65046692 293.16613770 148.50613403 298.34826660 C 147.51260376 303.54589844 146.48828125 308.68994141 145.50593567 313.80429077 C 144.30548096 318.71725464 142.94227600 323.59042358 140.93127441 333.99230957" stroke-width="1.16454256" fill="rgb(200, 181, 117)" opacity="1.0" stroke="rgb(38, 29, 0)" stroke-opacity="0.759429" stroke-linecap="round" stroke-linejoin="round"/>
    <path d="M 132.14347839 352.18545532 C 132.91810608 351.17779541 133.47813416 350.09555054 134.00477600 349.13717651 C 134.83372498 348.49758911 135.61955261 347.95553589 136.09104919 347.42227173 C 136.52265930 347.05111694 137.00750732 347.04144287 137.43972778 347.43704224 C 137.88989258 348.19046021 138.35803223 349.05838013 138.95010376 350.08340454 C 139.30476379 351.63549805 139.93803406 353.36178589 140.60435486 355.07168579 C 140.76762390 357.16378784 140.92601013 359.39398193 140.89045715 361.62594604 C 140.91075134 363.85647583 140.69931030 366.06542969 140.38851929 368.17385864 C 139.90234375 370.17907715 139.34281921 371.87222290 138.76634216 373.19784546 C 138.41644287 374.20443726 138.30734253 375.13598633 138.06466675 375.83062744 C 137.84719849 375.89001465 137.72921753 375.44326782 137.82505798 374.67413330 C 137.76170349 373.88482666 137.60879517 373.05737305 137.23580933 372.36071777 C 136.65954590 371.88522339 135.91780090 371.59219360 135.11643982 371.59027100 C 134.34869385 371.82550049 133.82815552 372.21566772 133.46211243 372.90911865 C 133.34611511 373.83566284 133.39106750 374.71197510 133.51997375 375.54559326 C 133.43785095 376.29498291 133.33805847 377.03408813 133.25822449 377.49212646 C 132.92971802 377.50479126 132.54725647 377.13006592 132.20585632 376.29953003 C 131.67344666 375.23449707 131.07104492 374.11514282 130.16531372 373.05166626 C 129.51603699 371.84509277 129.05670166 370.33715820 128.68325806 368.58251953 C 128.30198669 366.65988159 128.28137207 364.64184570 128.40052795 362.52377319 C 128.82006836 360.26089478 129.11375427 357.83316040 132.14347839 352.18545532" stroke-width="1.80569124" fill="rgb(118, 59, 12)" opacity="1.0" stroke="rgb(81, 52, 30)" stroke-opacity="1.0" stroke-linecap="round" stroke-linejoin="round"/>
    <path d="M 337.48468018 82.51429749 C 338.32379150 82.02171326 339.22619629 81.62195587 340.13610840 81.41613007 C 341.00820923 81.24689484 341.75689697 80.99729156 342.32321167 80.68547058 C 342.68972778 80.35922241 342.96762085 80.02968597 343.26019287 79.87683105 C 343.52883911 79.85410309 343.67459106 80.06244659 343.65136719 80.43677521 C 343.55065918 81.06037903 343.38571167 81.77670288 343.31674194 82.62226868 C 343.39077759 83.55838776 343.44842529 84.62590027 343.37319946 85.74188995 C 343.07473755 86.88873291 342.63058472 88.07451630 342.10574341 89.18166351 C 341.40887451 90.25804901 340.58450317 91.29395294 339.63290405 92.21588898 C 338.56759644 93.00281525 337.39508057 93.68820953 336.16186523 94.25682831 C 334.85269165 94.59986115 333.57220459 94.78307343 332.24047852 94.77947235 C 330.93066406 94.64675140 329.67739868 94.45994568 328.47964478 94.18824005 C 327.36724854 93.60282135 326.32583618 92.86449432 325.46395874 91.98207855 C 324.58721924 91.03302765 323.78027344 89.99662781 323.06234741 88.95721436 C 322.38455200 87.88479614 321.75085449 86.84955597 321.32498169 85.84330750 C 321.07080078 84.85310364 320.94686890 83.78502655 321.01901245 82.77128601 C 321.12899780 81.77227783 321.35174561 80.84296417 321.51971436 80.04809570 C 321.49420166 79.32482910 321.42703247 78.66098785 321.40344238 78.22183228 C 321.49307251 77.95223999 321.79296875 77.88414001 322.26599121 78.03797913 C 322.81463623 78.34153748 323.40811157 78.71329498 324.07205200 79.25854492 C 324.63064575 79.90119171 325.14675903 80.65403748 337.48468018 82.51429749" stroke-width="0.96742213" fill="rgb(179, 117, 46)" opacity="1.0" stroke="rgb(64, 14, 0)" stroke-opacity="0.42606246" stroke-linecap="round" stroke-linejoin="round"/>
    <path d="M 252.39317322 423.72848511 C 250.94003296 424.31402588 249.52273560 424.70718384 247.97137451 424.72564697 C 246.36509705 424.64315796 244.75538635 424.55862427 243.24932861 424.53643799 C 241.88320923 424.35864258 240.63359070 424.29937744 239.56677246 424.06234741 C 238.91282654 423.45788574 238.48411560 422.72122192 238.17033386 421.88623047 C 237.98951721 421.07870483 237.99967957 420.45544434 238.11991882 419.96975708 C 238.42977905 419.70999146 238.92863464 419.66711426 239.57760620 419.70422363 C 240.45748901 419.84738159 241.55548096 419.89617920 242.77668762 419.92037964 C 244.15272522 419.93179321 245.58589172 419.98733521 247.01803589 420.05145264 C 248.59243774 420.09576416 250.24839783 420.03933716 251.89059448 419.86813354 C 253.47785950 419.58444214 255.05639648 419.27166748 252.39317322 423.72848511" stroke-width="0.53442621" fill="rgb(81, 39, 22)" opacity="1.0" stroke="rgb(10, 1, 3)" stroke-opacity="0.29736328" stroke-linecap="round" stroke-linejoin="round"/>
    <path d="M 197.35412598 411.56628418 C 199.19132996 411.48468018 201.07806396 411.49844360 202.90631104 411.55029297 C 204.51928711 411.61123657 206.04504395 411.64291382 207.50498962 411.59918213 C 208.78144836 411.61941528 209.81718445 411.59973145 210.58110046 411.55734253 C 211.12263489 411.68286133 211.44441223 411.94601440 211.55661011 412.36856079 C 211.40434265 412.92681885 211.10829163 413.61029053 210.70536804 414.26940918 C 210.29473877 414.83499146 209.63114929 415.11767578 208.83854675 415.35510254 C 207.99345398 415.67016602 207.12393188 415.86456299 206.16885376 415.84686279 C 205.14604187 415.80181885 204.08283997 415.81607056 202.97766113 415.83334351 C 201.82185364 415.74533081 200.67547607 415.55541992 199.51628113 415.33148193 C 198.33093262 414.79501343 197.17106628 414.29248047 197.35412598 411.56628418" stroke-width="0.56671965" fill="rgb(85, 42, 23)" opacity="1.0" stroke="rgb(8, 0, 0)" stroke-opacity="0.40053603" stroke-linecap="round" stroke-linejoin="round"/>
    <path d="M 276.95962524 422.92642212 C 278.63479614 423.02508545 280.40325928 423.06103516 282.19427490 422.97103882 C 283.85385132 422.94619751 285.34625244 422.95599365 286.78289795 423.01629639 C 288.16754150 422.90066528 289.34201050 422.77182007 290.22366333 422.76565552 C 290.80419922 422.85574341 291.22805786 423.08615112 291.52572632 423.51486206 C 291.60406494 424.07461548 291.60702515 424.64648438 291.50888062 425.13391113 C 291.13217163 425.52395630 290.57955933 425.85736084 289.91119385 426.23007202 C 289.25149536 426.45306396 288.48818970 426.54110718 287.54837036 426.50070190 C 286.51022339 426.24526978 285.34954834 426.08044434 284.08544922 425.98086548 C 282.79385376 425.91705322 281.42959595 425.99273682 279.95462036 426.02148438 C 278.44284058 425.94467163 276.89779663 425.83215332 276.95962524 422.92642212" stroke-width="0.63120651" fill="rgb(59, 31, 16)" opacity="1.0" stroke="rgb(91, 75, 80)" stroke-opacity="0.5769729" stroke-linecap="round" stroke-linejoin="round"/>
    <path d="M 318.47290039 413.55218506 C 320.15444946 413.58499146 321.90850830 413.60839844 323.57260132 413.53350830 C 325.09924316 413.48706055 326.50064087 413.38507080 327.78298950 413.25509644 C 328.94952393 413.14401245 329.92388916 413.09292603 330.63064575 413.04846191 C 331.11288452 413.21395874 331.32131958 413.58639526 331.35528564 414.16522217 C 331.28729248 414.73263550 331.12423706 415.36489868 330.95141602 416.14245605 C 330.64767456 416.81176758 330.24063110 417.40649414 329.70361328 417.88555908 C 328.96188354 418.10424805 328.07330322 418.20416260 327.13891602 418.21514893 C 326.13333130 418.31219482 325.14318848 418.35406494 324.05725098 418.33380127 C 322.94641113 418.34948730 321.72766113 418.10592651 320.47708130 417.77520752 C 319.34420776 417.35397339 318.06173706 417.05285645 318.47290039 413.55218506" stroke-width="0.47860640" fill="rgb(72, 32, 18)" opacity="1.0" stroke="rgb(79, 74, 62)" stroke-opacity="0.44389635" stroke-linecap="round" stroke-linejoin="round"/>
    <path d="M 139.89294434 339.55081177 C 140.22080994 340.49853516 140.41975403 341.48947144 140.40660095 342.34460449 C 140.03343201 343.10256958 139.58444214 343.80770874 139.16502380 344.53759766 C 138.67385864 345.07153320 137.99020386 345.39453125 137.24705505 345.57940674 C 136.38824463 345.73577881 135.48844910 345.88183594 134.59570312 345.91235352 C 133.71200562 345.92135620 132.84458923 345.95318604 131.96963501 345.69262695 C 131.14382935 345.42660522 130.42608643 345.13467407 129.72229004 344.81835938 C 129.18777466 344.49676514 128.77722168 344.04254150 128.39746094 343.57867432 C 128.31613159 343.28179932 128.58375549 343.04302979 129.08161926 342.95166016 C 129.83050537 342.84118652 130.68000793 342.75076294 131.64591980 342.62304688 C 132.74481201 342.66510010 133.90525818 342.82827759 139.89294434 339.55081177" stroke-width="0.49604249" fill="rgb(93, 23, 34)" opacity="1.0" stroke="rgb(0, 10, 15)" stroke-opacity="0.51841795" stroke-linecap="round" stroke-linejoin="round"/>
  </g>
</svg>
