<?xml version="1.0" ?>
<svg xmlns="http://www.w3.org/2000/svg" version="1.1" width="512" height="512" viewBox="0 0 512 512">
  <defs/>
  <g>
    <path d="M 550.84375000 303.77462769 C 532.97265625 309.53286743 515.17248535 315.20919800 497.33242798 320.90255737 C 479.47158813 326.54006958 461.54663086 332.09591675 443.55725098 337.47778320 C 425.48083496 342.69226074 407.22857666 347.66281128 388.90859985 352.28085327 C 370.40011597 356.49996948 351.72143555 360.28512573 332.89065552 363.50564575 C 313.89767456 366.11795044 294.73574829 368.08843994 275.46981812 369.30606079 C 256.08639526 369.69580078 236.64068604 369.26300049 217.22012329 367.90466309 C 197.85575867 365.56677246 178.61016846 362.24209595 159.52705383 357.90472412 C 140.76037598 352.50701904 122.39715576 346.04058838 104.48481750 338.45639038 C 87.21540833 329.80078125 70.62667084 319.99758911 54.92872238 309.14379883 C 40.16532898 297.22924805 26.46009064 284.21597290 13.90505314 270.29595947 C 2.55084825 255.43231201 -7.37039042 239.66255188 -15.94246197 223.16426086 C -23.14223289 206.03472900 -28.96400642 188.46011353 -33.35590744 170.47488403 C -36.37300491 152.29684448 -37.99337387 134.02326965 -38.17439270 115.87997437 C -36.95743942 97.94944763 -34.35589600 80.37797546 -30.32749367 63.35008240 C -24.90260506 46.93133163 -18.00474739 31.29393196 -9.66488838 16.57297325 C 0.23280948 2.79464579 11.62481308 -9.88890266 24.47421455 -21.54671288 C 38.61251831 -32.19625473 53.93581772 -41.85848236 70.29090881 -50.66300964 C 87.55314636 -58.64585114 105.64006805 -65.76984406 124.36349487 -72.21012878 C 143.63278198 -77.87556458 163.39460754 -82.83406067 183.41517639 -87.18404388 C 203.64300537 -90.81726074 223.97970581 -93.84226227 244.26394653 -96.22676849 C 264.47967529 -97.93956757 284.43814087 -98.94873810 304.08859253 -99.25862122 C 323.36480713 -98.87065125 342.09689331 -97.64975739 360.31256104 -95.65700531 C 377.85275269 -92.78496552 394.66799927 -89.00718689 410.74832153 -84.28720856 C 425.94165039 -78.61392975 440.22579956 -71.90185547 453.59341431 -64.10447693 C 465.92025757 -55.29032516 477.17684937 -45.39272308 487.42608643 -34.42063141 C 496.58554077 -22.36337280 504.58270264 -9.26862717 511.50128174 4.84781742 C 517.24224854 19.96340370 522.02667236 35.95763016 526.00244141 52.67503357 C 529.30249023 70.05010223 532.09448242 87.91286469 534.45587158 106.15666962 C 536.51940918 124.73107147 538.42877197 143.47633362 540.21887207 162.30213928 C 541.94671631 181.23640442 543.68707275 200.11520386 550.84375000 303.77462769" stroke-width="2.00000000" fill="rgb(135, 210, 214)" opacity="1.0" stroke="rgb(102, 204, 213)" stroke-opacity="0.8530249" stroke-linecap="round" stroke-linejoin="round"/>
    <path d="M 628.67504883 448.14947510 C 614.56628418 456.34191895 600.47137451 464.53698730 586.32366943 472.66912842 C 572.11218262 480.75933838 557.74475098 488.66442871 543.23889160 496.27639771 C 528.40039062 503.58093262 513.28051758 510.45986938 497.70336914 516.78686523 C 481.74075317 522.61712646 465.26516724 527.90838623 448.31851196 532.64172363 C 430.89575195 536.96435547 412.96688843 540.79699707 394.58242798 544.21093750 C 375.72039795 547.19696045 356.40277100 549.78497314 336.67404175 552.00677490 C 316.59939575 553.86138916 296.18063354 555.40441895 275.49218750 556.64886475 C 254.63436890 557.52001953 233.59034729 558.09088135 212.56228638 558.25555420 C 191.52613831 558.02716064 170.66036987 557.37933350 150.00250244 556.17968750 C 129.73536682 554.37750244 109.88217163 551.93658447 90.66611481 548.66217041 C 72.13174438 544.52020264 54.47686768 539.37219238 37.82632446 533.08483887 C 22.26345634 525.55163574 8.01366425 516.64184570 -4.76878214 506.24499512 C -16.08260536 494.38134766 -25.89402008 481.17584229 -34.31070328 466.84027100 C -41.39525223 451.49411011 -47.08247375 435.43048096 -51.46871185 418.84552002 C -54.55255890 401.92254639 -56.30794144 384.78552246 -56.86229706 367.69519043 C -56.10552597 350.91830444 -54.14190674 334.62133789 -50.90650940 319.07904053 C -46.39640427 304.59097290 -40.60008240 291.42095947 -33.50211334 279.79302979 C -25.00155258 270.07116699 -15.16656971 262.46893311 -3.84589529 257.36267090 C 8.97330952 254.95336914 23.23812294 254.58653259 38.79633331 254.94030762 C 55.48639679 255.11445618 73.14984131 255.16378784 91.68355560 255.13168335 C 110.88364410 255.12852478 130.63291931 255.13821411 150.88992310 255.15737915 C 171.43774414 255.22300720 192.14607239 255.25177002 213.06747437 255.17660522 C 233.99368286 255.15625000 254.82832336 255.16920471 275.58523560 255.18156433 C 296.13186646 255.18341064 316.44573975 255.16764832 336.45422363 255.13441467 C 356.14096069 255.13659668 375.48455811 255.13430786 394.41491699 255.18164062 C 412.99731445 255.16777039 431.13415527 255.18736267 448.94616699 255.20314026 C 466.39031982 255.24359131 483.49145508 255.21572876 500.32608032 255.33119202 C 516.88470459 255.73370361 533.22338867 256.45336914 549.40234375 257.48086548 C 565.41784668 258.69970703 581.37396240 260.04934692 597.25781250 261.49484253 C 613.11230469 263.02239990 628.99047852 264.50805664 628.67504883 448.14947510" stroke-width="1.06349277" fill="rgb(71, 149, 200)" opacity="1.0" stroke="rgb(108, 192, 216)" stroke-opacity="1.0" stroke-linecap="round" stroke-linejoin="round"/>
    <path d="M 469.70974731 272.77548218 C 450.57748413 271.91442871 431.54754639 271.72216797 412.82308960 273.50698853 C 394.48443604 276.81622314 376.40798950 281.60256958 358.33016968 285.71160889 C 339.97726440 288.03793335 321.62783813 288.49905396 303.34881592 287.45410156 C 285.28903198 285.21386719 267.72161865 281.26202393 250.39701843 276.63796997 C 233.02633667 273.36520386 215.71986389 271.57019043 198.69189453 270.86325073 C 182.15036011 270.64761353 166.33308411 271.30291748 151.38877869 273.38766479 C 137.42182922 276.16384888 124.57131958 279.13992310 112.89270782 281.88574219 C 102.54723358 284.30935669 93.79532623 286.30990601 86.71801758 287.91802979 C 81.50769043 289.13830566 78.26749420 290.01312256 76.94366455 290.35632324 C 77.60115051 290.15087891 80.29883575 289.57662964 85.06514740 288.58245850 C 91.69567871 287.07104492 100.02599335 285.14175415 110.00622559 282.85195923 C 121.51555634 280.25851440 134.32046509 277.37014771 148.22801208 274.42630005 C 163.02090454 272.07312012 178.83992004 271.30871582 195.52725220 271.52392578 C 212.76783752 271.94830322 230.37139893 273.66638184 248.19960022 276.83276367 C 266.15399170 280.66571045 284.31210327 284.26443481 302.61633301 286.68026733 C 320.85952759 288.09927368 339.05792236 287.52511597 357.05758667 285.07336426 C 374.69143677 281.35494995 392.16021729 276.88696289 409.56298828 273.24822998 C 427.17401123 271.18035889 444.98541260 270.94610596 462.80313110 271.84375000 C 480.69000244 273.22366333 498.45553589 275.63861084 516.17321777 278.50387573 C 534.01611328 281.18960571 551.85162354 283.57147217 469.70974731 272.77548218" stroke-width="2.00000000" fill="rgb(254, 249, 244)" opacity="1.0" stroke="rgb(236, 249, 251)" stroke-opacity="0.9982688" stroke-linecap="round" stroke-linejoin="round"/>
    <path d="M 485.22619629 319.43670654 C 464.71197510 318.56753540 444.12295532 318.29037476 423.50488281 318.65716553 C 402.75714111 319.42346191 381.88989258 320.63357544 360.88891602 321.84490967 C 339.71099854 322.89193726 318.38464355 323.83822632 296.86550903 323.73849487 C 275.17269897 322.77728271 253.35636902 321.06942749 231.43247986 319.20309448 C 209.44236755 318.36416626 187.48483276 318.09054565 165.73139954 318.09396362 C 144.38096619 317.94027710 123.60305786 318.29858398 103.61299133 319.59616089 C 84.53106689 321.56967163 66.73632812 323.62756348 50.31501770 325.12780762 C 35.53347015 325.42361450 22.66390610 325.16680908 12.04955578 324.95526123 C 3.93454289 324.86840820 -1.37269104 324.18341064 -3.60399747 322.73730469 C -2.72903490 321.17141724 1.19069016 320.33609009 8.08101559 320.53265381 C 17.73166847 320.87609863 29.76484871 321.15322876 43.83341217 321.08758545 C 59.63810349 320.18841553 76.86994171 318.54840088 95.33040619 316.68737793 C 114.83844757 315.00711060 135.16909790 313.98977661 156.08923340 313.73080444 C 177.48167419 313.63647461 199.06994629 313.78555298 220.66389465 314.24557495 C 242.15270996 315.65527344 263.46838379 317.45407104 284.49996948 318.95532227 C 305.31951904 319.81805420 325.89407349 319.41986084 346.24343872 318.20565796 C 366.44769287 317.11462402 386.43234253 315.94555664 406.20758057 314.89105225 C 425.82592773 314.05117798 445.30606079 313.82815552 464.64770508 314.25946045 C 483.90563965 314.90322876 503.08947754 316.10748291 522.18933105 318.07714844 C 541.20764160 320.69851685 560.23010254 323.72949219 485.22619629 319.43670654" stroke-width="0.65741962" fill="rgb(243, 250, 251)" opacity="1.0" stroke="rgb(170, 208, 226)" stroke-opacity="0.9870889" stroke-linecap="round" stroke-linejoin="round"/>
    <path d="M 530.39398193 362.49417114 C 509.43350220 360.95379639 488.41802979 359.64038086 467.39898682 358.91079712 C 446.30270386 359.17196655 425.09970093 359.93731689 403.66906738 360.36444092 C 381.94641113 360.80233765 359.92327881 362.35583496 337.34753418 363.56539917 C 314.06240845 363.33163452 290.31484985 362.92086792 266.22479248 362.22305298 C 241.93730164 360.99969482 217.57040405 359.78002930 193.43090820 358.88888550 C 169.58258057 358.42349243 146.23654175 358.38616943 123.63851166 358.79415894 C 102.04497528 359.68038940 81.68741608 360.77859497 62.77293015 361.78149414 C 45.61740875 362.22976685 30.51247597 362.18472290 17.75658417 361.99371338 C 7.71106195 362.06311035 0.72112888 361.69839478 -3.02002263 360.34280396 C -3.23517871 358.67388916 0.04916970 357.59054565 6.86424923 357.47067261 C 16.92890930 357.72375488 29.81753540 357.83770752 45.14680862 357.94958496 C 62.53205490 357.40118408 81.66520691 356.38763428 102.17845154 355.37808228 C 123.77998352 354.65249634 146.25183105 354.34826660 169.19331360 353.93161011 C 192.38377380 353.22940063 215.60517883 353.77651978 238.69816589 356.25186157 C 261.75656128 357.93496704 284.77810669 358.49118042 307.57342529 358.76071167 C 329.94476318 359.38949585 351.93530273 358.85839844 373.52136230 356.99133301 C 394.76721191 356.12365723 415.76751709 355.82656860 436.41152954 355.18795776 C 456.77139282 354.43267822 476.94683838 354.78402710 497.03152466 355.95156860 C 516.98767090 357.14242554 536.96734619 358.30612183 556.93176270 359.44570923 C 576.82025146 360.61999512 596.72918701 361.74563599 530.39398193 362.49417114" stroke-width="0.54333568" fill="rgb(241, 250, 251)" opacity="1.0" stroke="rgb(173, 207, 222)" stroke-opacity="0.9473698" stroke-linecap="round" stroke-linejoin="round"/>
    <path d="M 129.59245300 530.96673584 C 123.24634552 531.52282715 116.91026306 532.13482666 110.64428711 532.65203857 C 104.41928101 533.16101074 98.25431061 533.57769775 92.24932098 533.81591797 C 86.41690826 533.87127686 80.78130341 533.65179443 75.38454437 533.08416748 C 70.27455902 532.14172363 65.68002319 530.71026611 61.50557709 528.74560547 C 57.86998749 526.20635986 54.89911652 522.98870850 52.65727234 519.04089355 C 51.26039886 514.36230469 50.67812347 508.87716675 50.71096039 502.57028198 C 50.78560638 495.50399780 50.76305389 487.72082520 50.74866867 479.30493164 C 50.72831726 470.22106934 50.70477676 460.62060547 50.67009354 450.48370361 C 50.64995575 439.94186401 50.66709518 428.95996094 50.69295502 417.64932251 C 50.65452576 406.02313232 50.64403152 394.19412231 50.64036560 382.07012939 C 50.67856216 369.82290649 50.76199722 357.43890381 50.76000595 344.96621704 C 50.79182816 332.41668701 50.81615067 319.85595703 50.74190903 307.33932495 C 50.47438812 294.91091919 50.32715225 282.59320068 50.61203766 270.45117188 C 50.67783356 258.50833130 50.63345337 246.83067322 50.59964752 235.53456116 C 50.57598877 224.65478516 50.53454590 214.32041931 50.38216400 204.62522888 C 50.00868225 195.67681885 49.82431793 187.58090210 50.71920395 180.41775513 C 53.35654068 174.25025940 57.42889023 169.07000732 62.79872513 164.82872009 C 69.06313324 161.60899353 76.04243469 159.27317810 83.42279053 157.91360474 C 91.00070190 157.54447937 98.46572876 158.08253479 105.62407684 159.54856873 C 112.20690918 162.00360107 118.04038239 165.36059570 122.85494995 169.69981384 C 126.45598602 175.05996704 128.54393005 181.53874207 129.20252991 189.17933655 C 129.16680908 197.93630981 129.07403564 207.61392212 129.08050537 218.03042603 C 129.12606812 228.97070312 129.08718872 240.37408447 129.12683105 252.06625366 C 129.20429993 263.87609863 129.27096558 275.80120850 129.44099426 287.75509644 C 129.49385071 299.62850952 129.48716736 311.42950439 129.53285217 323.08352661 C 129.54071045 334.61410522 129.54554749 345.96182251 129.53353882 357.14041138 C 129.53549194 368.18933105 129.55403137 379.07250977 129.52819824 389.84307861 C 129.52619934 400.43569946 129.57048035 410.97860718 129.59103394 421.39682007 C 129.55392456 431.76113892 129.50219727 442.11752319 129.54895020 452.41635132 C 129.46385193 462.70806885 129.36921692 473.02334595 129.59245300 530.96673584" stroke-width="0.72487932" fill="rgb(253, 253, 252)" opacity="1.0" stroke="rgb(232, 255, 243)" stroke-opacity="0.5691895" stroke-linecap="round" stroke-linejoin="round"/>
    <path d="M 89.30265045 180.44909668 C 84.98101044 180.49577332 80.71474457 180.54191589 76.45102692 180.51423645 C 72.32037354 180.60293579 68.20802307 180.59713745 64.38121796 180.57989502 C 60.78676605 180.55566406 57.50813293 180.59118652 54.62263489 180.65093994 C 52.25388336 180.72927856 50.45508957 180.74076843 49.37757874 180.44367981 C 49.05164719 179.82461548 49.41217804 178.78205872 50.30030823 177.28575134 C 51.59156799 175.21148682 53.21612930 172.74754333 55.26235580 169.91778564 C 57.43115616 166.62884521 59.85402679 163.04895020 62.53785706 159.26739502 C 65.30889130 155.18553162 68.16316223 150.92556763 71.13124847 146.69230652 C 74.10220337 142.45324707 76.93905640 138.32575989 79.57477570 134.37632751 C 82.11727905 130.73089600 84.23912811 127.43179321 85.93212891 124.54357910 C 87.22565460 122.26036835 88.16639709 120.76657867 89.07257843 120.25488281 C 90.02713013 120.93957520 91.02210999 122.54573059 92.42508698 124.76770782 C 94.16997528 127.47306061 96.21950531 130.51785278 98.43654633 133.92419434 C 100.81888580 137.52185059 103.23693085 141.33006287 105.77227020 145.19970703 C 108.35035706 148.97697449 110.86131287 152.66998291 113.33048248 156.25524902 C 115.64224243 159.58406067 117.89162445 162.75842285 119.84622955 165.79028320 C 121.60814667 168.47032166 123.31901550 170.87239075 124.82662964 173.01066589 C 126.15997314 174.80271912 127.29935455 176.31385803 128.22888184 177.67765808 C 128.93843079 178.76522827 129.44410706 179.64314270 129.90702820 180.30035400 C 130.28929138 180.57780457 130.71371460 180.64219666 89.30265045 180.44909668" stroke-width="0.89537519" fill="rgb(249, 11, 13)" opacity="1.0" stroke="rgb(214, 108, 112)" stroke-opacity="0.762675" stroke-linecap="round" stroke-linejoin="round"/>
    <path d="M 218.54206848 399.32366943 C 215.39456177 399.38262939 212.25000000 399.30816650 209.12945557 399.30786133 C 206.08036804 399.38543701 203.01509094 399.41046143 200.07170105 399.40151978 C 197.24130249 399.32482910 194.44886780 399.23010254 191.87100220 399.23590088 C 189.46212769 399.23785400 187.25990295 399.15432739 185.37530518 399.12826538 C 183.79646301 399.30856323 182.63310242 399.17288208 181.78140259 398.34912109 C 181.21122742 396.69165039 180.54646301 394.45504761 179.57192993 391.77944946 C 178.44735718 388.74179077 177.44123840 385.33172607 176.49415588 381.65475464 C 175.46580505 377.75354004 174.51161194 373.71075439 173.73803711 369.64779663 C 173.00685120 365.60809326 172.26214600 361.67382812 171.59809875 357.95391846 C 171.09962463 354.50469971 170.63391113 351.41943359 170.38693237 348.78488159 C 170.12870789 346.70797729 170.00909424 345.19577026 170.47222900 344.33932495 C 171.68998718 344.16488647 173.51307678 344.53292847 175.82614136 345.19128418 C 178.68280029 345.95629883 181.95314026 346.85119629 185.40954590 347.81204224 C 189.02900696 349.01892090 192.83517456 349.82910156 196.72526550 350.33959961 C 200.45201111 351.39828491 204.11538696 352.61181641 207.77709961 353.65884399 C 211.36505127 354.43655396 214.74810791 355.01821899 217.90391541 355.73004150 C 220.75617981 356.29888916 223.29193115 356.53378296 225.48425293 356.62985229 C 227.28990173 356.63235474 228.62376404 356.68121338 229.43025208 356.89138794 C 229.67613220 357.40151978 229.54380798 358.10266113 229.34489441 359.05154419 C 229.52445984 360.27310181 230.03672791 361.62942505 218.54206848 399.32366943" stroke-width="1.14233851" fill="rgb(251, 11, 16)" opacity="1.0" stroke="rgb(183, 60, 78)" stroke-opacity="0.868951" stroke-linecap="round" stroke-linejoin="round"/>
    <path d="M 239.54866028 348.14736938 C 237.52722168 347.38732910 235.55430603 346.63311768 233.42959595 346.04290771 C 231.08178711 345.67639160 228.61204529 345.36395264 226.09376526 344.84649658 C 223.41812134 344.46185303 220.66687012 343.88787842 217.83653259 343.11355591 C 214.96092224 342.33334351 212.06289673 341.50363159 209.18534851 340.74179077 C 206.34204102 340.16867065 203.78779602 339.53125000 201.65632629 338.85559082 C 199.82537842 338.54281616 198.49369812 338.15927124 197.81047058 337.07846069 C 197.71246338 335.11456299 197.84751892 332.43878174 197.88529968 329.15032959 C 197.82173157 325.20733643 197.65200806 320.87173462 197.44869995 316.20520020 C 197.80294800 311.29089355 197.91819763 306.16207886 197.84164429 300.82684326 C 197.82263184 295.50820923 197.73077393 290.16195679 197.76170349 284.98660278 C 197.86425781 279.97875977 197.77845764 275.26589966 197.50183105 270.86679077 C 197.72190857 266.84719849 197.82240295 263.31283569 197.79623413 260.43121338 C 197.70495605 258.21179199 197.55714417 256.68264771 197.69709778 255.95373535 C 198.16471863 256.10964966 198.70867920 257.12036133 199.39591980 258.76657104 C 200.60882568 260.59780884 202.03021240 262.80145264 203.25584412 265.33776855 C 204.35836792 268.17016602 205.44207764 271.22686768 207.00274658 274.25085449 C 209.30996704 277.23614502 211.47492981 280.81182861 213.34388733 284.92019653 C 215.17626953 289.20553589 217.22412109 293.56167603 219.44741821 298.00753784 C 221.57237244 302.50961304 223.43258667 307.03579712 225.20463562 311.52832031 C 226.62060547 316.12417603 228.22265625 320.61843872 239.54866028 348.14736938" stroke-width="2.00000000" fill="rgb(248, 217, 104)" opacity="1.0" stroke="rgb(81, 73, 87)" stroke-opacity="0.6941171" stroke-linecap="round" stroke-linejoin="round"/>
    <path d="M 369.88870239 388.56494141 C 368.96408081 391.59548950 368.04730225 394.64489746 367.03912354 397.62719727 C 366.04071045 400.47753906 365.06668091 403.13690186 364.09710693 405.70462036 C 363.32913208 408.18545532 362.64334106 410.36776733 361.93420410 412.29788208 C 361.41125488 413.95724487 360.90542603 415.23474121 360.17376709 415.97540283 C 359.03942871 416.19235229 357.58825684 416.09710693 355.94198608 416.05087280 C 354.14828491 416.08715820 352.24560547 415.99667358 350.26589966 415.84313965 C 348.38397217 415.86633301 346.58410645 416.03237915 345.00549316 416.14474487 C 343.73464966 416.19497681 342.63931274 415.90667725 341.73376465 415.10198975 C 340.94046021 413.75958252 340.15203857 411.91601562 339.26123047 409.74682617 C 338.30358887 407.25799561 337.33679199 404.56735229 336.41964722 401.71279907 C 335.57382202 398.77905273 334.72235107 395.80187988 333.92437744 392.83776855 C 333.38317871 389.94082642 332.99316406 387.14083862 332.74462891 384.52789307 C 332.59371948 382.10000610 332.42474365 379.94644165 332.25369263 378.07498169 C 332.10324097 376.66275024 332.06036377 375.69854736 332.32217407 375.18612671 C 332.81872559 375.20977783 333.57150269 375.68585205 334.63000488 376.45123291 C 336.04071045 377.28741455 337.59399414 378.22250366 339.27899170 379.20693970 C 341.11633301 380.04473877 343.01663208 380.64114380 345.05023193 380.89868164 C 347.11441040 381.08395386 349.05984497 381.72000122 350.90835571 382.79446411 C 352.95352173 383.59585571 355.14349365 384.17520142 357.44091797 384.84753418 C 359.75155640 385.59164429 362.12536621 386.39666748 369.88870239 388.56494141" stroke-width="1.79456425" fill="rgb(10, 17, 135)" opacity="1.0" stroke="rgb(2, 11, 96)" stroke-opacity="0.95204383" stroke-linecap="round" stroke-linejoin="round"/>
    <path d="M 359.99584961 369.97860718 C 358.52188110 369.12145996 356.94735718 368.53231812 355.37841797 368.16458130 C 353.86376953 367.78677368 352.55065918 367.23056030 351.70248413 366.22637939 C 351.33361816 364.62536621 350.82608032 362.83557129 350.33068848 360.85784912 C 350.78610229 358.69879150 351.44696045 356.20660400 351.52697754 353.28295898 C 351.48526001 349.90283203 351.36343384 346.26995850 351.37179565 342.44262695 C 351.35180664 338.43450928 351.36856079 334.41833496 351.37673950 330.42816162 C 350.98217773 326.61697388 350.58432007 323.02612305 350.39178467 319.66470337 C 350.83483887 316.54602051 351.08666992 313.68609619 351.03189087 311.18194580 C 350.80477905 309.19351196 350.41760254 307.74426270 350.36669922 306.99209595 C 350.84201050 306.96984863 351.64678955 307.70129395 352.44400024 309.14199829 C 353.08383179 311.24154663 354.05999756 313.42102051 355.24865723 315.76879883 C 355.98532104 318.34341431 356.85324097 320.84442139 358.36993408 323.12979126 C 359.96630859 325.69409180 361.20532227 328.59582520 362.32867432 331.74029541 C 363.84222412 334.92312622 365.30545044 338.28176880 366.70150757 341.73419189 C 368.08026123 345.20895386 369.39257812 348.60742188 370.67529297 351.99069214 C 371.78729248 355.24020386 372.82757568 358.37826538 373.66247559 361.22424316 C 374.91775513 363.58944702 376.37207031 365.62817383 377.92318726 367.40612793 C 379.42199707 369.05847168 380.89984131 370.67303467 382.26757812 372.17651367 C 383.53985596 373.71173096 384.66415405 375.29016113 385.76553345 376.72589111 C 387.05416870 378.11804199 388.26281738 379.49780273 359.99584961 369.97860718" stroke-width="2.00000000" fill="rgb(245, 249, 253)" opacity="1.0" stroke="rgb(47, 90, 128)" stroke-opacity="0.8138647" stroke-linecap="round" stroke-linejoin="round"/>
    <path d="M 441.22705078 420.80438232 C 440.79934692 418.91586304 440.21582031 417.20312500 439.59576416 415.55847168 C 438.90518188 413.94949341 438.18722534 412.50787354 437.57180786 411.17446899 C 437.05770874 409.95352173 436.50906372 408.90106201 435.94207764 408.05648804 C 435.66101074 407.38723755 435.64785767 406.80352783 435.83920288 406.41177368 C 436.35543823 406.24728394 437.12808228 406.14694214 438.17092896 406.16567993 C 439.33065796 406.25976562 440.60247803 406.31213379 442.00103760 406.33462524 C 443.43521118 406.31835938 444.85003662 406.06045532 446.21151733 405.80630493 C 447.53558350 405.90454102 448.82598877 406.26522827 450.13775635 406.57806396 C 451.45983887 406.37313843 452.79440308 406.00955200 454.24902344 405.75857544 C 455.72122192 405.74060059 457.17349243 405.73385620 458.50479126 405.68765259 C 459.66735840 405.75640869 460.72589111 405.92401123 461.61657715 406.01318359 C 462.42602539 405.86145020 462.95111084 405.75326538 463.19210815 405.95367432 C 463.18988037 406.37423706 463.02246094 406.95571899 462.68063354 407.72381592 C 462.28799438 408.63449097 461.78890991 409.67648315 461.24365234 410.81707764 C 460.69650269 411.91888428 460.13647461 413.08642578 459.68115234 414.34600830 C 459.19879150 415.54830933 458.64141846 416.56658936 458.22766113 417.52825928 C 457.73968506 418.29461670 457.36444092 419.02874756 457.13635254 419.64370728 C 457.00137329 420.11953735 456.97384644 420.49499512 456.89566040 420.83523560 C 456.63830566 420.94464111 456.27478027 420.95663452 455.85522461 420.95855713 C 455.36596680 420.89306641 454.97857666 420.79589844 441.22705078 420.80438232" stroke-width="1.59094834" fill="rgb(247, 220, 28)" opacity="1.0" stroke="rgb(251, 235, 57)" stroke-opacity="0.78620917" stroke-linecap="round" stroke-linejoin="round"/>
    <path d="M 473.59463501 402.68728638 C 472.29635620 402.34631348 470.88488770 402.19155884 469.46704102 401.90820312 C 468.13720703 401.56591797 466.63528442 401.34472656 464.97631836 401.35150146 C 463.27029419 401.31408691 461.62066650 401.11831665 459.88009644 400.80816650 C 458.19558716 400.64178467 456.62030029 400.66708374 455.16210938 400.60241699 C 453.78332520 400.62316895 452.71911621 400.77041626 452.05380249 400.81793213 C 451.74084473 400.53518677 451.61032104 399.92553711 451.66088867 398.89419556 C 451.70138550 397.48074341 451.80908203 395.77487183 451.70080566 393.72360229 C 451.50338745 391.27932739 451.59490967 388.54132080 451.78634644 385.65133667 C 451.72308350 382.57495117 451.55511475 379.33615112 451.62997437 375.92855835 C 451.81262207 372.61840820 451.79827881 369.39578247 451.55389404 366.25985718 C 451.63528442 363.10140991 451.42813110 360.24591064 450.75961304 357.67028809 C 450.56454468 355.19207764 450.57943726 352.91183472 450.14465332 350.94119263 C 449.15295410 349.30627441 447.89559937 348.04971313 446.68301392 347.08352661 C 446.04544067 346.02868652 446.01620483 345.20526123 446.55789185 344.89062500 C 447.51147461 345.35189819 448.70785522 346.37808228 449.94155884 347.91891479 C 451.26550293 349.61245728 452.49496460 351.32800293 453.27166748 353.07510376 C 453.23986816 354.87136841 453.50054932 356.41284180 454.55715942 357.86758423 C 456.07388306 359.61233521 457.82974243 361.68817139 459.52484131 364.20492554 C 461.16390991 367.13189697 462.63342285 370.36407471 464.16018677 373.57736206 C 465.80938721 376.79440308 467.35272217 379.99569702 473.59463501 402.68728638" stroke-width="2.00000000" fill="rgb(245, 250, 249)" opacity="1.0" stroke="rgb(66, 140, 103)" stroke-opacity="0.69732517" stroke-linecap="round" stroke-linejoin="round"/>
    <path d="M 88.08095551 95.43972778 C 88.33427429 95.74772644 88.45592499 96.00000000 88.58551788 96.29649353 C 88.72639465 96.65419006 88.95384216 96.97993469 89.16780853 97.38314056 C 89.40963745 97.81478119 89.59539795 98.24791718 89.81551361 98.78413391 C 90.06599426 99.35880280 90.30428314 99.98833466 90.33984375 100.68111420 C 90.23957062 101.45668793 90.03906250 102.34366608 89.88707733 103.34578705 C 89.82558441 104.44764709 89.75811768 105.65177917 89.64888763 106.95373535 C 89.62971497 108.35089111 89.66236877 109.81586456 89.71773529 111.36476898 C 89.70418549 112.99975586 89.56027222 114.63561249 89.57572174 116.33611298 C 89.62017059 118.05975342 89.58505249 119.75495911 89.36993408 121.38213348 C 88.72751617 123.02781677 87.82126617 124.62004852 88.08095551 95.43972778" stroke-width="1.55865097" fill="rgb(111, 57, 54)" opacity="1.0" stroke="rgb(255, 184, 177)" stroke-opacity="0.21506815" stroke-linecap="round" stroke-linejoin="round"/>
    <path d="M 90.11317444 95.39811707 C 90.35707855 96.44893646 90.53311920 97.51126099 90.52551270 98.57671356 C 90.29133606 99.62450409 89.85031128 100.59618378 89.38075256 101.51256561 C 88.85677338 102.14443970 88.10730743 102.43512726 87.08269501 102.50656891 C 85.83361053 102.50841522 84.54734039 102.53987122 83.14990997 102.49674988 C 81.75706482 102.41892242 80.30883789 102.35419464 78.90673828 102.40664673 C 77.59520721 102.50983429 76.43231964 102.49385071 75.43985748 102.39704132 C 74.65662384 102.15759277 74.16226196 101.78507233 74.03934479 101.21297455 C 74.17027283 100.33476257 74.31129456 99.23615265 74.37800598 98.08923340 C 74.41930389 97.09028625 74.37273407 96.28781891 74.18747711 95.73953247 C 73.89241028 95.47463989 73.64199066 95.48846436 90.11317444 95.39811707" stroke-width="1.43103325" fill="rgb(203, 44, 43)" opacity="1.0" stroke="rgb(255, 202, 195)" stroke-opacity="0.30527595" stroke-linecap="round" stroke-linejoin="round"/>
  </g>
</svg>
