<?xml version="1.0" ?>
<svg xmlns="http://www.w3.org/2000/svg" version="1.1" width="512" height="512" viewBox="0 0 512 512">
  <defs/>
  <g>
    <path d="M 403.89730835 403.49508667 C 393.83786011 408.05459595 384.22534180 413.49008179 374.38616943 418.19436646 C 364.88507080 423.20449829 355.73233032 428.52023315 346.37548828 433.24887085 C 337.15673828 437.93914795 328.05398560 442.52984619 318.72817993 446.03668213 C 309.52117920 449.93334961 299.94198608 452.90731812 290.36145020 455.87350464 C 280.56793213 458.15612793 271.17050171 460.86145020 261.07458496 461.43646240 C 250.65670776 462.12490845 239.88999939 460.80529785 228.26533508 458.44241333 C 216.49201965 455.38308716 204.16964722 452.14135742 191.86743164 447.53659058 C 179.37689209 442.61871338 167.00167847 437.11791992 155.14768982 430.93621826 C 143.90203857 424.84124756 133.61868286 418.57531738 123.96593475 413.29574585 C 115.69724274 407.86322021 108.79129028 404.10601807 104.23889160 401.29397583 C 104.45629120 397.01913452 105.83765411 390.81842041 107.43679810 383.12017822 C 110.22817993 374.69662476 111.56079102 365.07650757 115.09836578 354.82595825 C 118.38826752 343.44589233 122.63155365 331.95040894 127.20653534 320.15512085 C 131.71606445 308.32836914 136.63510132 296.60525513 142.08367920 285.70581055 C 147.05986023 275.00506592 152.14643860 264.62512207 157.42674255 254.74566650 C 162.95399475 245.40950012 168.49075317 236.36090088 174.59956360 227.93629456 C 180.70437622 219.54493713 186.94029236 211.27825928 193.46794128 203.16618347 C 200.35371399 195.17546082 207.19256592 187.17448425 214.83543396 180.08731079 C 222.09039307 172.82304382 229.91094971 166.52789307 237.28512573 160.61553955 C 244.06326294 155.45013428 249.97644043 151.44755554 255.39413452 149.75511169 C 260.17465210 151.04655457 265.01205444 154.84689331 271.19656372 159.28015137 C 278.34759521 164.34213257 285.82247925 170.36111450 293.57302856 177.13113403 C 301.84674072 183.92333984 309.30218506 192.20684814 316.95666504 200.71055603 C 324.05340576 209.71414185 331.31936646 218.45516968 337.73910522 227.84217834 C 344.42980957 237.10365295 350.38702393 246.78657532 355.82644653 256.59613037 C 361.44256592 265.87658691 366.02514648 275.36563110 369.73309326 285.29190063 C 373.89779663 294.96667480 377.44805908 304.83300781 381.11666870 314.57992554 C 385.06268311 324.07489014 387.82357788 334.21896362 391.64190674 344.04617310 C 394.96710205 354.23687744 398.10510254 364.54348755 400.18234253 375.11587524 C 401.74957275 385.58654785 403.74597168 395.67745972 403.89730835 403.49508667" stroke-width="2.00000000" fill="rgb(68, 161, 34)" opacity="1.0" stroke="rgb(1, 0, 5)" stroke-opacity="1.0" stroke-linecap="round" stroke-linejoin="round"/>
    <path d="M 254.07392883 461.77230835 C 255.97041321 461.86312866 256.94781494 461.20330811 256.83914185 459.30218506 C 256.63342285 456.12667847 256.52709961 451.93344116 256.49584961 446.87615967 C 256.45239258 441.07977295 256.40014648 434.61383057 256.41101074 427.55328369 C 256.40054321 420.00161743 256.39260864 411.94268799 256.43045044 403.35180664 C 256.45312500 394.24191284 256.49099731 384.63861084 256.43850708 374.60510254 C 256.44262695 364.17059326 256.45669556 353.34552002 256.43527222 342.17007446 C 256.45037842 330.71029663 256.38421631 318.96572876 256.54299927 306.96548462 C 256.71838379 294.75146484 256.96255493 282.43823242 257.17361450 269.94583130 C 257.11312866 257.31671143 256.77813721 244.63594055 256.53634644 231.91613770 C 256.43899536 219.35716248 256.40847778 207.12519836 256.39529419 195.34091187 C 256.28302002 184.31147766 256.14041138 174.37867737 256.28271484 165.84036255 C 256.42773438 159.00199890 256.15899658 154.23515320 255.27525330 151.74635315 C 254.45149231 151.67041016 254.07395935 154.06051636 254.10162354 158.78674316 C 254.14424133 165.49119568 254.13336182 173.84570312 254.05552673 183.51258850 C 254.08268738 194.11221313 254.12406921 205.37762451 254.10566711 217.10394287 C 254.10354614 229.11723328 254.03092957 241.19470215 253.94189453 253.32760620 C 253.54978943 265.43951416 253.15635681 277.53536987 253.12220764 289.63095093 C 253.53999329 301.71725464 254.03680420 313.79843140 254.11602783 325.90356445 C 254.06466675 338.03424072 254.05162048 350.20776367 254.06950378 362.35583496 C 254.09706116 374.50753784 254.14556885 386.61593628 254.07392883 461.77230835" stroke-width="1.10839117" fill="rgb(11, 53, 0)" opacity="1.0" stroke="rgb(15, 59, 0)" stroke-opacity="0.5777045" stroke-linecap="round" stroke-linejoin="round"/>
    <path d="M 241.22758484 283.87490845 C 234.11846924 286.14498901 226.12759399 286.54235840 217.60324097 287.41650391 C 208.84901428 289.04083252 199.89700317 290.18942261 191.45071411 292.29507446 C 183.58171082 294.03591919 176.22921753 295.88150024 169.48281860 297.88732910 C 163.14060974 299.46801758 157.09428406 301.32128906 152.27507019 303.07489014 C 149.65119934 303.21804810 150.02612305 302.61682129 153.27386475 301.39584351 C 157.51998901 299.26712036 162.36949158 296.85058594 167.87628174 294.41555786 C 174.00428772 291.91058350 180.88671875 289.52197266 188.52178955 287.37969971 C 196.60275269 285.50640869 204.83502197 283.80972290 213.17530823 282.21923828 C 221.44743347 280.71081543 229.16021729 280.02621460 236.30322266 281.16152954 C 242.59490967 284.55285645 248.63749695 288.71722412 241.22758484 283.87490845" stroke-width="0.00000000" fill="rgb(4, 14, 10)" opacity="1.0" stroke="rgb(51, 0, 110)" stroke-opacity="0.68707967" stroke-linecap="round" stroke-linejoin="round"/>
    <path d="M 235.69839478 351.18255615 C 235.69314575 351.68283081 235.52803040 352.14190674 235.17935181 352.46704102 C 234.73329163 352.62457275 233.95234680 352.67538452 232.96084595 352.75668335 C 231.80476379 353.04058838 230.32714844 353.38003540 228.32748413 353.60150146 C 225.99159241 353.86633301 223.20271301 354.46084595 219.98962402 355.09552002 C 216.25599670 355.85202026 212.04489136 356.71444702 207.55329895 357.65472412 C 202.54908752 358.59854126 197.25569153 359.86917114 191.66664124 361.33978271 C 185.76864624 362.61212158 179.76870728 364.28778076 173.55297852 366.26510620 C 167.04023743 368.19131470 160.53826904 370.15850830 153.92239380 372.01309204 C 147.42034912 374.30279541 141.07128906 376.91177368 134.79751587 379.13101196 C 129.00617981 381.72332764 123.92527771 384.14813232 119.57975006 386.77224731 C 116.05888367 389.38684082 113.41329193 391.63299561 111.78194427 392.71932983 C 111.40743256 392.70925903 112.25624084 391.28826904 114.10359955 389.11373901 C 116.69092560 386.52853394 120.39640045 384.11508179 124.88005066 381.67144775 C 130.00946045 379.11511230 135.48200989 376.64175415 141.07383728 373.83859253 C 146.76077271 370.97937012 152.65332031 368.35272217 158.79719543 365.92257690 C 164.94606018 363.58358765 171.01919556 361.49032593 176.97790527 359.54379272 C 182.92259216 357.80767822 188.83102417 356.25799561 194.61480713 354.95050049 C 200.36346436 353.87493896 206.03698730 353.10513306 211.60174561 352.58480835 C 217.02598572 352.11715698 222.35868835 351.63400269 227.68698120 351.05261230 C 233.05783081 350.35458374 238.28132629 349.78433228 235.69839478 351.18255615" stroke-width="1.42061472" fill="rgb(3, 28, 5)" opacity="1.0" stroke="rgb(181, 219, 187)" stroke-opacity="0.20405181" stroke-linecap="round" stroke-linejoin="round"/>
    <path d="M 344.28863525 296.73376465 C 340.54330444 295.52188110 336.86163330 294.09109497 332.99008179 293.21914673 C 329.13497925 292.23645020 325.40747070 291.11007690 321.73022461 290.15283203 C 318.09463501 289.18527222 314.64633179 288.10656738 311.16201782 287.28613281 C 307.71414185 287.18533325 304.20458984 287.84927368 300.66210938 288.97937012 C 297.17193604 290.41241455 293.64080811 292.10897827 290.08206177 293.92779541 C 286.67834473 295.76046753 283.40927124 297.57000732 280.20285034 299.24389648 C 277.02090454 300.65625000 273.94515991 301.71514893 271.15533447 302.21408081 C 268.43170166 302.05169678 265.74130249 301.59158325 263.45559692 301.13754272 C 261.80035400 300.24691772 260.62411499 299.17349243 260.06195068 297.79605103 C 260.21267700 296.71682739 261.13436890 295.63616943 262.74267578 294.51419067 C 264.89102173 293.41433716 267.54257202 292.36831665 270.61993408 291.31427002 C 273.96591187 290.27471924 277.54254150 289.23086548 281.27828979 288.17160034 C 285.13870239 287.14590454 289.13821411 286.22955322 293.20306396 285.45156860 C 297.24560547 284.80273438 301.30102539 284.35839844 305.49703979 284.16317749 C 309.73529053 284.14501953 313.79522705 284.30673218 317.69070435 284.80126953 C 321.55599976 285.77014160 325.50558472 286.94296265 329.48641968 287.60845947 C 333.43774414 288.63128662 337.17486572 290.11727905 340.97546387 291.80429077 C 345.05056763 292.80230713 348.99554443 293.84277344 352.54495239 295.20611572 C 355.82894897 296.82736206 358.80932617 298.94329834 361.77047729 301.26815796 C 364.63229370 303.35168457 367.74649048 304.87231445 344.28863525 296.73376465" stroke-width="1.61506438" fill="rgb(2, 14, 9)" opacity="1.0" stroke="rgb(144, 209, 202)" stroke-opacity="0.10879441" stroke-linecap="round" stroke-linejoin="round"/>
    <path d="M 377.75924683 380.32986450 C 370.60430908 377.76922607 363.82080078 375.01171875 356.84924316 372.47161865 C 350.00323486 370.10617065 343.26565552 368.11126709 336.75765991 366.04321289 C 330.52551270 364.04098511 324.44387817 362.65557861 318.68103027 361.14846802 C 313.42749023 359.73333740 308.58795166 358.41220093 303.98730469 357.39797974 C 299.96453857 356.61019897 296.18460083 355.80014038 292.83999634 354.90652466 C 289.85183716 354.52606201 287.05703735 354.07565308 284.40328979 353.76473999 C 282.19042969 353.41925049 280.27450562 353.06738281 278.65588379 352.57733154 C 277.12316895 352.47775269 275.95611572 352.43688965 275.09219360 352.27487183 C 274.59823608 352.25823975 274.27053833 351.98443604 274.17864990 351.45245361 C 274.27560425 350.81521606 274.63577271 350.13922119 275.29132080 349.51171875 C 276.43084717 349.01199341 277.95272827 348.71813965 279.87216187 348.59097290 C 282.21578979 348.63653564 285.05075073 348.85443115 288.26107788 349.18463135 C 291.80718994 349.61547852 295.71975708 350.23608398 300.02108765 351.07632446 C 304.61026001 352.03881836 309.46389771 353.10464478 314.59106445 354.30459595 C 319.91226196 355.59878540 325.39202881 357.02340698 330.98431396 358.63055420 C 336.57568359 360.37118530 342.17556763 362.12982178 347.81866455 363.96737671 C 353.35729980 366.06338501 358.69921875 368.37817383 363.91287231 370.84375000 C 368.93774414 373.32223511 373.82769775 376.10629272 378.76846313 378.66622925 C 383.51803589 381.27877808 388.24801636 383.92938232 392.68981934 386.71417236 C 396.65899658 390.19796753 401.09957886 393.30444336 377.75924683 380.32986450" stroke-width="1.54750061" fill="rgb(7, 17, 10)" opacity="1.0" stroke="rgb(192, 222, 235)" stroke-opacity="0.13304599" stroke-linecap="round" stroke-linejoin="round"/>
    <path d="M 306.32067871 293.73062134 C 305.13143921 295.44439697 303.37124634 296.68179321 301.27828979 297.62432861 C 298.92321777 298.60922241 296.46154785 299.47671509 293.81829834 299.95159912 C 291.06002808 300.72647095 288.07046509 301.28173828 285.08316040 301.64294434 C 281.96014404 301.74502563 278.76046753 301.72875977 275.60833740 301.32620239 C 272.54367065 301.02136230 269.62835693 300.38623047 266.73556519 299.18032837 C 263.94885254 297.61349487 261.21777344 295.88546753 258.74905396 293.89956665 C 256.62542725 291.56610107 254.91848755 288.96182251 253.44497681 286.20254517 C 252.15768433 283.26663208 251.11132812 280.22833252 250.38192749 277.23547363 C 250.00512695 274.28079224 249.93403625 271.27313232 250.14326477 268.22335815 C 250.67864990 265.29370117 251.66545105 262.57418823 253.11177063 260.07400513 C 254.82685852 257.87438965 256.82202148 256.02230835 259.25274658 254.47940063 C 262.02331543 253.37921143 264.75036621 251.89601135 267.50900269 250.53211975 C 270.42868042 249.78257751 273.33197021 248.73220825 276.16387939 247.82368469 C 279.17599487 247.74659729 282.16714478 248.09934998 285.34484863 248.85467529 C 288.33236694 250.03320312 291.33776855 251.35093689 294.51538086 252.74015808 C 297.56317139 254.44416809 300.43634033 256.32467651 303.11987305 258.60736084 C 305.72549438 260.83050537 307.91122437 263.32962036 309.52651978 266.29110718 C 311.12377930 269.04156494 312.17166138 272.14120483 313.21313477 274.93618774 C 313.55844116 277.62109375 313.46929932 280.50942993 313.28735352 283.51806641 C 312.65466309 286.47192383 312.06124878 289.55514526 306.32067871 293.73062134" stroke-width="1.75486612" fill="rgb(242, 68, 40)" opacity="1.0" stroke="rgb(21, 2, 4)" stroke-opacity="0.9246982" stroke-linecap="round" stroke-linejoin="round"/>
    <path d="M 239.91485596 279.56402588 C 240.58427429 278.19616699 240.96528625 276.71972656 241.13894653 275.16815186 C 241.38591003 273.76132202 241.63737488 272.35461426 241.78305054 270.93905640 C 242.21499634 269.59341431 242.87016296 268.24111938 243.64456177 266.95431519 C 244.36750793 265.63757324 245.14942932 264.32421875 246.12882996 263.21435547 C 247.19714355 262.05694580 248.29338074 260.87396240 249.38973999 259.74395752 C 250.40896606 258.55172729 251.52734375 257.47305298 252.72343445 256.57931519 C 253.99362183 255.98298645 255.32862854 255.73417664 256.76461792 255.71490479 C 258.35339355 255.93200684 259.99923706 256.28506470 261.46948242 256.76821899 C 262.89709473 257.53765869 264.15200806 258.70947266 265.29565430 259.85809326 C 266.43923950 260.98822021 267.27841187 262.36553955 267.98779297 263.90875244 C 268.72222900 265.54278564 269.05804443 267.22906494 269.08929443 269.07662964 C 269.05947876 270.89285278 268.94522095 272.79489136 268.83514404 274.72647095 C 268.53045654 276.49548340 268.09051514 278.25744629 267.49606323 280.02453613 C 266.87261963 281.77316284 265.91302490 283.33587646 264.70922852 285.02267456 C 263.46859741 286.63156128 261.96047974 288.04110718 260.16665649 289.24725342 C 258.27511597 290.23965454 256.41506958 291.09768677 254.69834900 291.70285034 C 253.12049866 291.67922974 251.85314941 291.49194336 250.98870850 291.83694458 C 250.51129150 292.89846802 249.86375427 293.81100464 249.02099609 293.92510986 C 248.42207336 293.29989624 248.60919189 292.45999146 249.24191284 291.76498413 C 249.98593140 291.49221802 250.89593506 291.53622437 239.91485596 279.56402588" stroke-width="0.71810830" fill="rgb(3, 1, 1)" opacity="1.0" stroke="rgb(36, 16, 43)" stroke-opacity="0.64279866" stroke-linecap="round" stroke-linejoin="round"/>
    <path d="M 279.12545776 289.06427002 C 279.14807129 289.08663940 279.12652588 289.07022095 279.13278198 289.06796265 C 279.14434814 289.07965088 279.13098145 289.07830811 279.12533569 289.07427979 C 279.14172363 289.07305908 279.12655640 289.08380127 279.14001465 289.07638550 C 279.12969971 289.07659912 279.13177490 289.07501221 279.13134766 289.08312988 C 279.13449097 289.07022095 279.12905884 289.08087158 279.12860107 289.08093262 C 279.13964844 289.06781006 279.12759399 289.08581543 279.12350464 289.07403564 C 279.14389038 289.07321167 279.12875366 289.08099365 279.12875366 289.06991577 C 279.13787842 289.08016968 279.13497925 289.06604004 279.12866211 289.08679199 C 279.13574219 289.06527710 279.13845825 289.06243896 279.13436890 289.09124756 C 279.13473511 289.05493164 279.14031982 289.08657837 279.12545776 289.06427002" stroke-width="0.00000000" fill="rgb(210, 194, 131)" opacity="1.0" stroke="rgb(255, 169, 6)" stroke-opacity="1.0" stroke-linecap="round" stroke-linejoin="round"/>
    <path d="M 277.84078979 259.16006470 C 277.83862305 259.16012573 277.84124756 259.15835571 277.84164429 259.16210938 C 277.83438110 259.15570068 277.84869385 259.15884399 277.82928467 259.15567017 C 277.84835815 259.16430664 277.83700562 259.15151978 277.83865356 259.15960693 C 277.84045410 259.15527344 277.84106445 259.15954590 277.84054565 259.15170288 C 277.83743286 259.16418457 277.83990479 259.15368652 277.83633423 259.15148926 C 277.84249878 259.16116333 277.83120728 259.15521240 277.84381104 259.15069580 C 277.83508301 259.16333008 277.83172607 259.14385986 277.83526611 259.16198730 C 277.84204102 259.15838623 277.83132935 259.14154053 277.83178711 259.15844727 C 277.83486938 259.15454102 277.83276367 259.14566040 277.82714844 259.15008545 C 277.83486938 259.15225220 277.82562256 259.14440918 277.84078979 259.16006470" stroke-width="0.20785995" fill="rgb(255, 255, 255)" opacity="1.0" stroke="rgb(134, 121, 123)" stroke-opacity="1.0" stroke-linecap="round" stroke-linejoin="round"/>
    <path d="M 278.46701050 291.01092529 C 278.45220947 291.01049805 278.46957397 291.01428223 278.46572876 291.01138306 C 278.45428467 291.00784302 278.46578979 291.01229858 278.45989990 291.01589966 C 278.46856689 291.00076294 278.45806885 291.02322388 278.46051025 291.00695801 C 278.46768188 291.00015259 278.46075439 291.01745605 278.46243286 291.01757812 C 278.46209717 290.99743652 278.46206665 291.01174927 278.47042847 291.01702881 C 278.45703125 291.00305176 278.46887207 291.01251221 278.46273804 291.00988770 C 278.46572876 291.00830078 278.46875000 291.01092529 278.45999146 291.00714111 C 278.46969604 291.00686646 278.47378540 291.01251221 278.46270752 291.00317383 C 278.47180176 291.01480103 278.47457886 291.00094604 278.47103882 291.00534058 C 278.47406006 291.01651001 278.47537231 290.99530029 278.46701050 291.01092529" stroke-width="0.30894971" fill="rgb(255, 0, 0)" opacity="1.0" stroke="rgb(137, 11, 150)" stroke-opacity="1.0" stroke-linecap="round" stroke-linejoin="round"/>
    <path d="M 230.41514587 260.22125244 C 230.92974854 259.49703979 231.15397644 258.89447021 231.36915588 258.55941772 C 231.83056641 258.68576050 232.35754395 259.08374023 233.01113892 259.67892456 C 233.90008545 260.49826050 234.92427063 261.39282227 235.91825867 262.46676636 C 237.09332275 263.40243530 238.21055603 264.18377686 239.39665222 265.03329468 C 240.56449890 265.75097656 241.43838501 266.69079590 242.25625610 267.66363525 C 243.16665649 268.48721313 244.07121277 269.16976929 244.87164307 269.76303101 C 245.65702820 270.19635010 246.46139526 270.53881836 247.22282410 270.82092285 C 247.94696045 271.02215576 248.61293030 271.21536255 249.17222595 271.45593262 C 249.57495117 271.73135376 249.89396667 271.99740601 250.17793274 272.32293701 C 250.28317261 272.89273071 250.19628906 273.68356323 230.41514587 260.22125244" stroke-width="1.34961724" fill="rgb(4, 0, 8)" opacity="1.0" stroke="rgb(2, 4, 5)" stroke-opacity="0.9075844" stroke-linecap="round" stroke-linejoin="round"/>
    <path d="M 246.39198303 306.70425415 C 246.40097046 306.70910645 246.40437317 306.71966553 246.40824890 306.72839355 C 246.41215515 306.74670410 246.41654968 306.73937988 246.40943909 306.74954224 C 246.41033936 306.75527954 246.41716003 306.75534058 246.40519714 306.75570679 C 246.40054321 306.76608276 246.41421509 306.76019287 246.40185547 306.76678467 C 246.38879395 306.75857544 246.41532898 306.77355957 246.39753723 306.77621460 C 246.39714050 306.77136230 246.39976501 306.76824951 246.39384460 306.77835083 C 246.38470459 306.77618408 246.39964294 306.76635742 246.38218689 306.77838135 C 246.38371277 306.76617432 246.38952637 306.76745605 246.37435913 306.76800537 C 246.37878418 306.76501465 246.36523438 306.76638794 246.37121582 306.75851440 C 246.35700989 306.75540161 246.35171509 306.76321411 246.39198303 306.70425415" stroke-width="2.00000000" fill="rgb(0, 255, 0)" opacity="1.0" stroke="rgb(68, 169, 26)" stroke-opacity="0.9627035" stroke-linecap="round" stroke-linejoin="round"/>
    <path d="M 304.07601929 308.23327637 C 305.76800537 309.46093750 307.58715820 310.38302612 309.41687012 310.85894775 C 311.04992676 311.42977905 312.74002075 311.55767822 314.33502197 311.60202026 C 315.69897461 311.33834839 316.91055298 311.27795410 317.90951538 311.33013916 C 318.76904297 311.71960449 319.19158936 312.41348267 319.19976807 313.40457153 C 318.63439941 314.23141479 317.79800415 315.15017700 316.62612915 315.71417236 C 315.18524170 315.53573608 313.36273193 315.41940308 311.33386230 315.42367554 C 309.39834595 314.77182007 307.12896729 313.97592163 305.03567505 312.94998169 C 303.18585205 311.53659058 301.32934570 309.80975342 299.77618408 307.88308716 C 298.50738525 305.82922363 297.28564453 303.70043945 296.22183228 301.34463501 C 295.27139282 298.78695679 294.77450562 295.85650635 304.07601929 308.23327637" stroke-width="1.35058403" fill="rgb(0, 4, 5)" opacity="1.0" stroke="rgb(238, 227, 255)" stroke-opacity="0.16257545" stroke-linecap="round" stroke-linejoin="round"/>
    <path d="M 250.46696472 256.28994751 C 251.30189514 256.37286377 252.31356812 256.31033325 253.36178589 255.90316772 C 254.27008057 255.36541748 255.06591797 254.85687256 255.80789185 254.48423767 C 256.44708252 254.19395447 257.02310181 254.02587891 257.54016113 254.02862549 C 257.97875977 254.32908630 258.26843262 254.76655579 258.42327881 255.30793762 C 258.69201660 255.86495972 259.00750732 256.40808105 259.35760498 256.82638550 C 259.68142700 257.21173096 259.86984253 257.68606567 259.94061279 258.20193481 C 259.93713379 258.72454834 259.80874634 259.27255249 259.58209229 259.86434937 C 259.32415771 260.42926025 258.96664429 260.95642090 258.44451904 261.51950073 C 257.85488892 262.13446045 257.35012817 262.77798462 256.84426880 263.37963867 C 256.27685547 263.90908813 255.68786621 264.48275757 250.46696472 256.28994751" stroke-width="1.08090234" fill="rgb(1, 1, 1)" opacity="1.0" stroke="rgb(5, 1, 10)" stroke-opacity="0.83804274" stroke-linecap="round" stroke-linejoin="round"/>
    <path d="M 388.78701782 383.72592163 C 383.69274902 381.14633179 378.41970825 378.76419067 373.26239014 376.31628418 C 367.89517212 374.27252197 362.71173096 371.91772461 357.27593994 370.10052490 C 351.90359497 368.04345703 346.58337402 366.25241089 340.98678589 364.64825439 C 335.45065308 362.86059570 329.78985596 361.13067627 324.33746338 359.57830811 C 318.78479004 358.07312012 313.32257080 356.74850464 308.00137329 355.58111572 C 302.77197266 354.56430054 297.80783081 353.45718384 293.18554688 352.66778564 C 288.83920288 351.84143066 284.73425293 351.35842896 281.07620239 351.06628418 C 278.16656494 350.37838745 275.67376709 349.74948120 273.85070801 349.25979614 C 273.02532959 348.54211426 272.99893188 347.68841553 273.65032959 346.91574097 C 274.97793579 346.48284912 276.82901001 346.29840088 279.20455933 346.48791504 C 282.15701294 346.57318115 285.56723022 347.00781250 289.36019897 347.41079712 C 293.57647705 347.78277588 298.12603760 348.40240479 302.72024536 349.30355835 C 307.35729980 350.40155029 312.27017212 351.57482910 317.34124756 352.82403564 C 322.31912231 354.25033569 327.35034180 355.65447998 332.39468384 357.22595215 C 337.35397339 358.76144409 342.27447510 360.30740356 347.04275513 362.06594849 C 351.83566284 363.69442749 356.51940918 365.40374756 361.07876587 367.14596558 C 365.56356812 369.00830078 369.81549072 370.86630249 373.88442993 372.93072510 C 377.99520874 374.83142090 381.78729248 377.00323486 385.33096313 379.32507324 C 388.93222046 381.54635620 392.48840332 383.79095459 395.56304932 386.44384766 C 398.24993896 389.78829956 400.97540283 393.14035034 388.78701782 383.72592163" stroke-width="1.51647139" fill="rgb(126, 217, 61)" opacity="1.0" stroke="rgb(17, 101, 0)" stroke-opacity="0.23976915" stroke-linecap="round" stroke-linejoin="round"/>
    <path d="M 236.77957153 347.67010498 C 234.96093750 348.49520874 233.14253235 349.37420654 231.20816040 349.97842407 C 229.01448059 350.45901489 226.55865479 350.94790649 223.95417786 351.47106934 C 221.08966064 351.92358398 217.99436951 352.42187500 214.70474243 353.12252808 C 211.19363403 353.75497437 207.42031860 354.54284668 203.50036621 355.42373657 C 199.39001465 356.10253906 195.04412842 357.19995117 190.56597900 358.26382446 C 185.97140503 359.27655029 181.23632812 360.72244263 176.57746887 362.39663696 C 171.62614441 363.76031494 166.60700989 365.19537354 161.66000366 366.85852051 C 156.72236633 368.28744507 152.00332642 369.93218994 147.49703979 371.84158325 C 143.13610840 373.47857666 138.98667908 375.01232910 135.26119995 376.71133423 C 131.63439941 378.31607056 128.28196716 379.77545166 125.26101685 380.89886475 C 122.64121246 381.99139404 120.52863312 382.87908936 119.10771942 383.44039917 C 118.53872681 383.51547241 118.89572906 383.02340698 120.05775452 382.14138794 C 121.94508362 380.94894409 124.38915253 379.47912598 127.34048462 377.83874512 C 130.58833313 375.97988892 134.09249878 374.15573120 137.95660400 372.29785156 C 142.02346802 370.51870728 146.23004150 368.64111328 150.62908936 366.73995972 C 155.15399170 364.92211914 159.92832947 363.23046875 164.86445618 361.59301758 C 169.87969971 360.05880737 175.03807068 358.69891357 180.29745483 357.36529541 C 185.46582031 355.84228516 190.61732483 354.18176270 195.82868958 352.61300659 C 201.12124634 351.40014648 206.49009705 350.43444824 211.88926697 349.49826050 C 217.28886414 348.54187012 222.65023804 347.45635986 236.77957153 347.67010498" stroke-width="0.50697780" fill="rgb(135, 224, 65)" opacity="1.0" stroke="rgb(163, 255, 90)" stroke-opacity="0.42039084" stroke-linecap="round" stroke-linejoin="round"/>
    <path d="M 251.89265442 75.06729889 C 251.68568420 72.81060791 251.89225769 70.52679443 251.93894958 68.09717560 C 251.70538330 65.59543610 251.66313171 63.02178192 251.79991150 60.46202850 C 251.77793884 58.08655548 251.79182434 55.95805740 252.21905518 54.24703217 C 253.05709839 52.87926483 254.03535461 51.93439102 255.13558960 51.80723953 C 256.49615479 51.83543777 257.67874146 52.68819809 258.31759644 54.31591797 C 258.50122070 56.51626205 258.44903564 59.36348724 258.60952759 62.73869324 C 258.44433594 66.52056122 258.44924927 70.70271301 258.50762939 75.19427490 C 258.58908081 79.95076752 258.53817749 84.94905090 258.63021851 90.12836456 C 258.61502075 95.46210480 258.45974731 100.80365753 258.45065308 106.20697021 C 258.59890747 111.64610291 258.44372559 116.99387360 258.53414917 122.18733978 C 258.58111572 127.19529724 258.56903076 131.77375793 258.52157593 135.86259460 C 258.50384521 139.50897217 258.59353638 142.84443665 258.57971191 145.80009460 C 258.75915527 148.23236084 259.03115845 150.01602173 258.78665161 151.16619873 C 257.50384521 151.49772644 255.65214539 151.57693481 253.88578796 151.42695618 C 252.54544067 150.72625732 251.66145325 149.59365845 251.37355042 148.13253784 C 251.87721252 146.43959045 251.67364502 144.27676392 251.69543457 141.48754883 C 251.83918762 138.15446472 251.78239441 134.58374023 251.85769653 130.86161804 C 252.02777100 126.95925903 251.89979553 122.93672943 251.77677917 118.90590668 C 251.89195251 114.83786774 251.89216614 110.74025726 251.85792542 106.49392700 C 251.87654114 102.19093323 251.84667969 97.87249756 251.89265442 75.06729889" stroke-width="0.83832073" fill="rgb(5, 14, 7)" opacity="1.0" stroke="rgb(16, 35, 16)" stroke-opacity="0.48190635" stroke-linecap="round" stroke-linejoin="round"/>
    <path d="M 236.70549011 283.00732422 C 233.30859375 283.29464722 229.97778320 283.54547119 226.45344543 283.74069214 C 222.81422424 284.37091064 218.78321838 284.87612915 214.72853088 285.53253174 C 210.56657410 286.04959106 206.28804016 286.76000977 201.85945129 287.59567261 C 197.47753906 288.30688477 193.20089722 289.44787598 188.85285950 290.38577271 C 184.47561646 291.32019043 180.15208435 292.42993164 175.76567078 293.56896973 C 171.51397705 295.05056763 167.18643188 295.93585205 163.02912903 297.48684692 C 159.19596863 299.00506592 155.44776917 300.23602295 151.99803162 301.28988647 C 148.96580505 302.47503662 146.31085205 303.41384888 144.27555847 304.16503906 C 142.77172852 304.62030029 141.89849854 304.63003540 141.72714233 304.22280884 C 142.27729797 303.55831909 143.55471802 302.79794312 145.43646240 302.01547241 C 147.72470093 300.81268311 150.43855286 299.58340454 153.57455444 298.37405396 C 156.89337158 296.72485352 160.42396545 295.10861206 164.24577332 293.75994873 C 168.08723450 292.13537598 172.14582825 290.94586182 176.14041138 289.56939697 C 180.24188232 288.08526611 184.32916260 287.03216553 188.39872742 286.16790771 C 192.53175354 285.24835205 196.53237915 284.46572876 200.29389954 283.66888428 C 204.00941467 282.98153687 207.58506775 282.53393555 210.97511292 282.14492798 C 214.16181946 281.45880127 217.16862488 281.25781250 220.03623962 281.06280518 C 222.81002808 280.59301758 225.59130859 280.39187622 228.35476685 280.43923950 C 230.94070435 280.19705200 233.42408752 280.24264526 235.93646240 280.34671021 C 238.44123840 280.51925659 240.97210693 280.39352417 236.70549011 283.00732422" stroke-width="1.63080406" fill="rgb(135, 225, 71)" opacity="1.0" stroke="rgb(7, 88, 0)" stroke-opacity="0.27949864" stroke-linecap="round" stroke-linejoin="round"/>
    <path d="M 265.78820801 237.62478638 C 266.65240479 235.65280151 267.60583496 233.75663757 268.78634644 231.88638306 C 270.60632324 230.33674622 272.71270752 228.73745728 274.81906128 226.93534851 C 277.22314453 225.27601624 279.68515015 223.38813782 282.13623047 221.47131348 C 284.70077515 219.58340454 287.63494873 217.98533630 290.45233154 216.14503479 C 293.42221069 214.39823914 296.47329712 212.77708435 299.47387695 211.00498962 C 302.50552368 209.50532532 305.33203125 207.95173645 307.94268799 206.58308411 C 310.42108154 205.77404785 312.32379150 204.66380310 313.75549316 203.46003723 C 314.60202026 202.20858765 315.18368530 201.37632751 315.71948242 201.27940369 C 316.52572632 202.19189453 317.44378662 203.41624451 318.04241943 204.58793640 C 317.61483765 205.51039124 316.31918335 206.25361633 314.40704346 207.06736755 C 312.44201660 208.37522888 310.07040405 209.58966064 307.49493408 210.38627625 C 305.05960083 211.71359253 302.39755249 213.32882690 299.54006958 214.90332031 C 296.56365967 216.32862854 293.64431763 218.00149536 290.70217896 219.77767944 C 287.84640503 221.55668640 284.84616089 223.40570068 281.96035767 224.99938965 C 279.39038086 226.60375977 276.88711548 228.34187317 274.73379517 229.90390015 C 272.53079224 231.29634094 270.73168945 232.63075256 269.43402100 234.23536682 C 268.43109131 235.87275696 267.88363647 237.86607361 267.53466797 239.81297302 C 266.90838623 241.58406067 266.57208252 243.48641968 266.29367065 245.37413025 C 266.11755371 247.07205200 265.76620483 248.37052917 264.93469238 249.50546265 C 263.54965210 250.57208252 262.09594727 251.59249878 265.78820801 237.62478638" stroke-width="2.00000000" fill="rgb(115, 207, 64)" opacity="1.0" stroke="rgb(2, 30, 0)" stroke-opacity="0.53267866" stroke-linecap="round" stroke-linejoin="round"/>
    <path d="M 316.04046631 281.16577148 C 322.59362793 283.26062012 329.19927979 285.18753052 335.46517944 287.14407349 C 341.06240845 289.40151978 346.37954712 291.67791748 351.17294312 293.82687378 C 355.54797363 295.68588257 359.26736450 297.66110229 362.35653687 299.57843018 C 365.06524658 300.97103882 367.03561401 301.88320923 368.42916870 302.49545288 C 368.72323608 303.06842041 368.23007202 303.44949341 366.91308594 303.34423828 C 364.88586426 302.81585693 362.49691772 301.85678101 359.68264771 300.64852905 C 356.55618286 298.97610474 352.74691772 297.62820435 348.72375488 296.07559204 C 344.45471191 294.40817261 339.66989136 293.05932617 335.07287598 291.29461670 C 330.34115601 289.51501465 325.31005859 288.31362915 320.66958618 287.13339233 C 316.59460449 286.54315186 312.63302612 286.60171509 316.04046631 281.16577148" stroke-width="1.43368101" fill="rgb(137, 222, 69)" opacity="1.0" stroke="rgb(25, 86, 0)" stroke-opacity="0.3701621" stroke-linecap="round" stroke-linejoin="round"/>
    <path d="M 192.02795410 206.11297607 C 194.25735474 205.01579285 196.93020630 204.95401001 199.79878235 205.55424500 C 202.41462708 206.96913147 205.12953186 208.81813049 208.14875793 210.86938477 C 211.53474426 212.70236206 215.19143677 214.65342712 218.78813171 217.01310730 C 222.48966980 219.64640808 226.25099182 222.33383179 230.04013062 224.97280884 C 233.67886353 227.77841187 236.84596252 230.73959351 239.97813416 233.26206970 C 243.08450317 235.06553650 245.52725220 236.94798279 247.28388977 238.17230225 C 248.06599426 238.94297791 247.66159058 239.15135193 246.23757935 238.70788574 C 244.21205139 237.38568115 241.34291077 235.63311768 238.00447083 233.38403320 C 234.27761841 230.46446228 229.98921204 227.37652588 225.14843750 224.34056091 C 219.87857056 221.25759888 215.22558594 216.85528564 192.02795410 206.11297607" stroke-width="2.00000000" fill="rgb(123, 215, 62)" opacity="1.0" stroke="rgb(5, 26, 0)" stroke-opacity="0.5223218" stroke-linecap="round" stroke-linejoin="round"/>
    <path d="M 283.74041748 282.58441162 C 285.05105591 283.79650879 286.13500977 285.12579346 286.93240356 286.63247681 C 287.61785889 288.20767212 287.94952393 289.72033691 287.84301758 291.31784058 C 287.75213623 292.92367554 287.31857300 294.51382446 286.53927612 295.79455566 C 285.74890137 296.89874268 284.77154541 297.76898193 283.56213379 298.20129395 C 282.37051392 298.46200562 281.22531128 298.36618042 279.94168091 298.06475830 C 278.68963623 297.54452515 277.62890625 296.84197998 276.69296265 295.83425903 C 275.99340820 294.64413452 275.33166504 293.35467529 274.70312500 292.01266479 C 274.44244385 290.53213501 273.99954224 289.05996704 273.68170166 287.60153198 C 273.68322754 286.15881348 273.94790649 284.66394043 274.69717407 283.25228882 C 275.86578369 281.80563354 277.13195801 280.22076416 283.74041748 282.58441162" stroke-width="0.81090856" fill="rgb(9, 3, 5)" opacity="1.0" stroke="rgb(81, 33, 37)" stroke-opacity="0.6660931" stroke-linecap="round" stroke-linejoin="round"/>
    <path d="M 287.78271484 264.19808960 C 286.73251343 265.17416382 285.75576782 266.14730835 284.77154541 267.07611084 C 283.51589966 267.60128784 282.24038696 268.21652222 280.80398560 268.66577148 C 279.17700195 268.62988281 277.33926392 268.40356445 275.68218994 267.82968140 C 274.35598755 266.74877930 273.21102905 265.48806763 272.40548706 264.07559204 C 272.15048218 262.45416260 272.27163696 260.68328857 272.49005127 259.17303467 C 273.38693237 258.17227173 274.58221436 257.24523926 275.57479858 256.00888062 C 276.95227051 255.10960388 278.46725464 254.40977478 280.09439087 254.07635498 C 281.64089966 254.20700073 283.08792114 254.21701050 284.43939209 254.20361328 C 285.47439575 254.69508362 286.36947632 255.33285522 287.29153442 256.41369629 C 288.24133301 257.72518921 289.38836670 259.10116577 287.78271484 264.19808960" stroke-width="2.00000000" fill="rgb(17, 3, 4)" opacity="1.0" stroke="rgb(210, 130, 142)" stroke-opacity="0.26320598" stroke-linecap="round" stroke-linejoin="round"/>
    <path d="M 305.81838989 277.69799805 C 304.61328125 278.03341675 303.40536499 278.12280273 302.30313110 277.96838379 C 301.15643311 277.52575684 299.96118164 277.10412598 298.94018555 276.35452271 C 298.15371704 275.16555786 297.29644775 274.00531006 296.69308472 272.88598633 C 296.31951904 271.85455322 296.37179565 270.88159180 296.68811035 269.89401245 C 297.04342651 268.91677856 297.42117310 267.91403198 297.92306519 267.00247192 C 298.71459961 266.52551270 299.66891479 266.21755981 300.73910522 265.97763062 C 301.87289429 265.75112915 302.96398926 265.68460083 304.03686523 265.83947754 C 305.07815552 266.39578247 306.10198975 267.24551392 306.98623657 268.10278320 C 307.73040771 269.02206421 307.97583008 270.10125732 308.10623169 271.49923706 C 308.21481323 273.15176392 308.46939087 274.90124512 305.81838989 277.69799805" stroke-width="0.87761390" fill="rgb(9, 8, 12)" opacity="1.0" stroke="rgb(43, 10, 8)" stroke-opacity="0.8085984" stroke-linecap="round" stroke-linejoin="round"/>
    <path d="M 277.60348511 322.05993652 C 277.44628906 319.87109375 277.36306763 317.59298706 277.15686035 315.59613037 C 276.10046387 314.28915405 274.55459595 313.27630615 272.65487671 312.22711182 C 270.93869019 310.79675293 269.25665283 309.25759888 267.77947998 307.49884033 C 266.75723267 305.56860352 265.95413208 303.77319336 265.46749878 302.18389893 C 265.58474731 300.71673584 266.10699463 299.75286865 266.90701294 299.44909668 C 267.79647827 299.86129761 268.51760864 301.20025635 269.22677612 302.99566650 C 270.68273926 304.75970459 271.97589111 306.75225830 273.27517700 308.83328247 C 274.86129761 310.65762329 276.74291992 311.70223999 278.83157349 312.16018677 C 280.40869141 312.82385254 281.39978027 314.17248535 282.16369629 316.00231934 C 282.51989746 318.02868652 282.87622070 320.21060181 277.60348511 322.05993652" stroke-width="1.75849915" fill="rgb(6, 12, 8)" opacity="1.0" stroke="rgb(194, 255, 189)" stroke-opacity="0.13641728" stroke-linecap="round" stroke-linejoin="round"/>
    <path d="M 303.14916992 246.30139160 C 304.79107666 245.62545776 306.32192993 244.98883057 307.87609863 244.28492737 C 309.26434326 244.19604492 310.63311768 244.16415405 312.02728271 243.63072205 C 313.28814697 242.94755554 314.29171753 242.57035828 315.29754639 242.56642151 C 316.16638184 242.79817200 316.53768921 243.50491333 316.48077393 244.54096985 C 316.27737427 245.64031982 315.70214844 246.74015808 314.58605957 247.63537598 C 313.23251343 248.08657837 311.83178711 248.39031982 310.56723022 248.44093323 C 309.67285156 247.77801514 308.88809204 247.39912415 307.97241211 247.63320923 C 306.86102295 248.40606689 305.40454102 249.25265503 303.91854858 250.43630981 C 302.84213257 252.00590515 301.42346191 253.35327148 299.55972290 254.40844727 C 297.41555786 254.92745972 295.07040405 255.12025452 303.14916992 246.30139160" stroke-width="1.64380026" fill="rgb(6, 10, 5)" opacity="1.0" stroke="rgb(152, 225, 255)" stroke-opacity="0.12812142" stroke-linecap="round" stroke-linejoin="round"/>
    <path d="M 238.38470459 304.82217407 C 237.28228760 304.66064453 236.48304749 304.11276245 235.94891357 303.24884033 C 235.55844116 302.23898315 235.16821289 301.34606934 235.20288086 300.61297607 C 235.91693115 300.25784302 236.79800415 300.07077026 237.79386902 300.15347290 C 238.94689941 300.30856323 240.17842102 300.64682007 241.33535767 300.91418457 C 242.38891602 300.86984253 243.27732849 300.36178589 244.07594299 299.57623291 C 245.09260559 299.07006836 245.98216248 298.35592651 246.60949707 297.45806885 C 247.42283630 296.68896484 248.00822449 295.83789062 248.34652710 295.16445923 C 248.64701843 294.67864990 248.74748230 294.38073730 248.58189392 294.31619263 C 248.21525574 294.72082520 247.84271240 295.42529297 247.41102600 296.34710693 C 247.00959778 297.40521240 246.67503357 298.67126465 238.38470459 304.82217407" stroke-width="1.05209577" fill="rgb(5, 0, 4)" opacity="1.0" stroke="rgb(0, 0, 8)" stroke-opacity="0.9115446" stroke-linecap="round" stroke-linejoin="round"/>
    <path d="M 254.65478516 274.38162231 C 253.95606995 274.39245605 253.40327454 274.25289917 252.78663635 274.21069336 C 252.39141846 274.13708496 251.99449158 273.88470459 251.65089417 273.48721313 C 251.18925476 273.08499146 250.93110657 272.74502563 250.69993591 272.20471191 C 250.61070251 271.50421143 250.60270691 270.75451660 250.60496521 270.18103027 C 250.79591370 269.75765991 251.31965637 269.32244873 251.76312256 268.72918701 C 252.04434204 267.96096802 252.41716003 267.40316772 253.04264832 266.97442627 C 253.73736572 266.60137939 254.35153198 266.20635986 254.87974548 266.15789795 C 255.28031921 266.58355713 255.85290527 266.92700195 256.45632935 267.16860962 C 256.94281006 267.72784424 257.26272583 268.50830078 257.70114136 269.49465942 C 258.18472290 270.38793945 258.54434204 271.49032593 254.65478516 274.38162231" stroke-width="0.62391031" fill="rgb(241, 243, 242)" opacity="1.0" stroke="rgb(131, 134, 136)" stroke-opacity="0.75937116" stroke-linecap="round" stroke-linejoin="round"/>
    <path d="M 279.82485962 243.27107239 C 279.34042358 243.87519836 278.85910034 244.48008728 278.50686646 244.98925781 C 278.25338745 245.34843445 277.91265869 245.49992371 277.50375366 245.49668884 C 277.14831543 245.39346313 276.90701294 245.24511719 276.83468628 244.87854004 C 277.00936890 244.22561646 277.15802002 243.48812866 277.35073853 242.69647217 C 277.42791748 241.84892273 277.45040894 240.95036316 277.47738647 240.01882935 C 277.58795166 239.05075073 277.75695801 238.08103943 277.70425415 237.23287964 C 277.48095703 236.49786377 277.21997070 235.90570068 277.17370605 235.46270752 C 277.48962402 235.18156433 278.06005859 235.08778381 278.74462891 235.08604431 C 279.54635620 235.29226685 280.38150024 235.47111511 281.23214722 235.60752869 C 282.01870728 235.48335266 282.72375488 235.28811646 279.82485962 243.27107239" stroke-width="0.58121490" fill="rgb(1, 5, 3)" opacity="1.0" stroke="rgb(1, 16, 15)" stroke-opacity="0.7043051" stroke-linecap="round" stroke-linejoin="round"/>
  </g>
</svg>
