<?xml version="1.0" ?>
<svg xmlns="http://www.w3.org/2000/svg" version="1.1" width="512" height="512" viewBox="0 0 512 512">
  <defs/>
  <g>
    <path d="M 268.53247070 303.08425903 C 268.43960571 308.59628296 268.47384644 314.07070923 268.51043701 319.57647705 C 268.53085327 325.09750366 268.48275757 330.64675903 268.55697632 336.24392700 C 268.49774170 341.90142822 268.49499512 347.64123535 268.45889282 353.48974609 C 268.48742676 359.44906616 268.53973389 365.53564453 268.47521973 371.71713257 C 268.47268677 378.04067993 268.54058838 384.48696899 268.58755493 391.05715942 C 268.46636963 397.73635864 268.43978882 404.44506836 268.50616455 411.12976074 C 268.51358032 417.83554077 268.45422363 424.48934937 268.49865723 430.91070557 C 268.46121216 437.12423706 268.48669434 443.09722900 268.52517700 448.69348145 C 268.51583862 453.79598999 268.56982422 458.31454468 268.63906860 462.12423706 C 268.85781860 465.14465332 268.85229492 467.27401733 268.22933960 468.53372192 C 266.72882080 468.80960083 264.48706055 468.76235962 261.51275635 468.64749146 C 257.96435547 468.64221191 254.19557190 468.63049316 250.32933044 468.57205200 C 246.40220642 468.59951782 242.61151123 468.58438110 239.21052551 468.57919312 C 236.27870178 468.66073608 233.92239380 468.68701172 232.40328979 468.32470703 C 231.79765320 467.11318970 231.71881104 465.19146729 231.84112549 462.59115601 C 231.68107605 459.43313599 231.62478638 455.65734863 231.72247314 451.41467285 C 231.77322388 446.71044922 231.77210999 441.69772339 231.75373840 436.36224365 C 231.68379211 430.70693970 231.67958069 424.77291870 231.72256470 418.72235107 C 231.92288208 412.53060913 231.84252930 406.17108154 231.75775146 399.72015381 C 231.76307678 393.23925781 231.77110291 386.73010254 231.79423523 380.21249390 C 231.76141357 373.72833252 231.69572449 367.25430298 231.73741150 360.88067627 C 231.80140686 354.65762329 231.75840759 348.58016968 231.86605835 342.63504028 C 231.73928833 336.88735962 231.65975952 331.35726929 231.83982849 326.15289307 C 231.67839050 321.21276855 231.69790649 316.49642944 231.80838013 312.14819336 C 231.64555359 307.99398804 231.64053345 304.18069458 231.63645935 300.65451050 C 231.60139465 297.46365356 231.87426758 294.61227417 232.64544678 292.12002563 C 234.01860046 289.88800049 235.95687866 287.98745728 238.45898438 286.26431274 C 241.35670471 284.71508789 244.60203552 283.30523682 248.15104675 282.02343750 C 251.95538330 280.80340576 255.98797607 279.61087036 260.18789673 278.45288086 C 264.42098999 277.26382446 268.69964600 276.14862061 268.53247070 303.08425903" stroke-width="2.00000000" fill="rgb(242, 200, 135)" opacity="1.0" stroke="rgb(1, 0, 0)" stroke-opacity="1.0" stroke-linecap="round" stroke-linejoin="round"/>
    <path d="M 321.22369385 294.27783203 C 317.77554321 294.44009399 314.23553467 294.21542358 310.44143677 293.72509766 C 306.34567261 293.48953247 301.88363647 293.45651245 297.11828613 293.45520020 C 292.03262329 293.51290894 286.47988892 293.53900146 280.63055420 293.48696899 C 274.48022461 293.44830322 268.03613281 293.47448730 261.27990723 293.61169434 C 254.27555847 293.66012573 247.18374634 293.57611084 239.99887085 293.56564331 C 232.70948792 293.54702759 225.46125793 293.53228760 218.37106323 293.54443359 C 211.53407288 293.71496582 204.99426270 293.75250244 198.89038086 293.65521240 C 193.35711670 293.47937012 188.45903015 293.46188354 184.35064697 293.79757690 C 181.21459961 294.39202881 178.96086121 294.69674683 177.68037415 293.78503418 C 177.38780212 291.63739014 177.56057739 288.37228394 177.62109375 284.06106567 C 177.59194946 278.79934692 177.56364441 272.59909058 177.55281067 265.67816162 C 177.53172302 258.22747803 177.55424500 250.28005981 177.54193115 241.91893005 C 177.52873230 233.37030029 177.54393005 224.70030212 177.54949951 216.06694031 C 177.57872009 207.47782898 177.48321533 199.20896912 177.49687195 191.28811646 C 177.50947571 183.80261230 177.51795959 176.89399719 177.72433472 170.72958374 C 178.84529114 165.33442688 180.98062134 160.72770691 183.91058350 156.67935181 C 187.32717896 152.90156555 191.49676514 149.72573853 196.06478882 146.88392639 C 201.04003906 144.14736938 206.27258301 141.63787842 211.61758423 139.16233826 C 217.31349182 137.21011353 223.26487732 135.56002808 229.30261230 134.17918396 C 235.70225525 133.24308777 242.21940613 132.61660767 248.83010864 132.48731995 C 255.53227234 132.61703491 262.28662109 133.21440125 269.07849121 133.95048523 C 275.77597046 134.97163391 282.21383667 136.49513245 288.44534302 138.47871399 C 294.38732910 140.54077148 299.91491699 143.02804565 304.97225952 145.82461548 C 309.56475830 148.87409973 313.46392822 152.20816040 316.59564209 156.07228088 C 319.12420654 160.11770630 320.62408447 164.62774658 321.31665039 169.66108704 C 321.55468750 175.13064575 321.48440552 181.01605225 321.41586304 187.19831848 C 321.55432129 193.57176208 321.75265503 200.25665283 321.92150879 207.20121765 C 321.98559570 214.30128479 322.01812744 221.46186829 321.91299438 228.68331909 C 321.68099976 236.01673889 321.38674927 243.38816833 321.22048950 250.78813171 C 321.32440186 258.14862061 321.35034180 265.50430298 321.22369385 294.27783203" stroke-width="2.00000000" fill="rgb(238, 24, 6)" opacity="1.0" stroke="rgb(0, 0, 6)" stroke-opacity="0.9682667" stroke-linecap="round" stroke-linejoin="round"/>
    <path d="M 293.36123657 235.53785706 C 289.38635254 236.26051331 285.29324341 236.55650330 281.07373047 236.46864319 C 276.68698120 236.43591309 272.19888306 236.49987793 267.55187988 236.47038269 C 262.85317993 236.49708557 258.06558228 236.58160400 253.23762512 236.59947205 C 248.37371826 236.49023438 243.50346375 236.60244751 238.69316101 236.68347168 C 234.00666809 236.63699341 229.38241577 236.62217712 224.97753906 236.67835999 C 220.92655945 236.68031311 217.21392822 236.57151794 213.89622498 236.54342651 C 211.05564880 236.65205383 208.73320007 236.70584106 207.09498596 236.40580750 C 206.10789490 235.53091431 205.67903137 234.20126343 205.55899048 232.40791321 C 205.48997498 230.41658020 205.49125671 228.29905701 205.57600403 226.16877747 C 205.73039246 224.20922852 206.15286255 222.57542419 206.97329712 221.47645569 C 208.33448792 220.90573120 210.32202148 220.78347778 212.76591492 220.92468262 C 215.69168091 220.91426086 218.99681091 220.90457153 222.58995056 220.90315247 C 226.45178223 220.93594360 230.48854065 220.93434143 234.66043091 220.82669067 C 238.90788269 220.74894714 243.14910889 220.79847717 247.41777039 220.83386230 C 251.58450317 220.85845947 255.65216064 220.85169983 259.59759521 220.82575989 C 263.39984131 220.87669373 266.95162964 220.94750977 270.33334351 220.88278198 C 273.56039429 220.74842834 276.55267334 220.77543640 279.28765869 220.86206055 C 281.85021973 220.85823059 284.20074463 220.85733032 286.33462524 220.88385010 C 288.28143311 220.86486816 290.10678101 220.84257507 291.75195312 220.85623169 C 293.27780151 220.78871155 294.66702271 220.72206116 293.36123657 235.53785706" stroke-width="2.00000000" fill="rgb(203, 203, 203)" opacity="1.0" stroke="rgb(0, 10, 13)" stroke-opacity="0.8704856" stroke-linecap="round" stroke-linejoin="round"/>
    <path d="M 346.55535889 242.18806458 C 343.59344482 242.27354431 340.61215210 242.26371765 337.74478149 242.17134094 C 334.99978638 242.31654358 332.52923584 242.45031738 330.25946045 242.24971008 C 328.28088379 242.10423279 326.56005859 242.20936584 325.20407104 242.28019714 C 324.08163452 241.85688782 323.22714233 240.87367249 322.69149780 239.47525024 C 322.64730835 237.60755920 322.70074463 235.32099915 322.70104980 232.63796997 C 322.59921265 229.53466797 322.59814453 226.28077698 322.73886108 222.80366516 C 322.82131958 219.15928650 322.72119141 215.42424011 322.62332153 211.63813782 C 322.65112305 207.90084839 322.65249634 204.24528503 322.60409546 200.74926758 C 322.59103394 197.43270874 322.70812988 194.43316650 322.81933594 191.74974060 C 322.68188477 189.45455933 322.59335327 187.57511902 322.77517700 186.27227783 C 323.48727417 185.52764893 324.75408936 185.23585510 326.41339111 185.22204590 C 328.33480835 185.30284119 330.39865112 185.37336731 332.65637207 185.25880432 C 334.93368530 185.23469543 337.09985352 185.25527954 339.02136230 185.27404785 C 340.71014404 185.70213318 341.97674561 186.77717590 342.93383789 188.30914307 C 343.95358276 190.06675720 344.82116699 192.04112244 345.59408569 194.20149231 C 346.19793701 196.56562805 346.38714600 199.12165833 346.21655273 201.87892151 C 346.15042114 204.82928467 346.19091797 208.00677490 346.37673950 211.39678955 C 346.47558594 214.84477234 346.45495605 218.27915955 346.39138794 221.83674622 C 346.27688599 225.50402832 346.27166748 229.12118530 346.41555786 232.67227173 C 346.38989258 236.28007507 346.23782349 239.93496704 346.55535889 242.18806458" stroke-width="2.00000000" fill="rgb(231, 25, 7)" opacity="1.0" stroke="rgb(17, 5, 12)" stroke-opacity="0.9570574" stroke-linecap="round" stroke-linejoin="round"/>
    <path d="M 288.53454590 293.60879517 C 291.04678345 293.54913330 293.58386230 293.45849609 296.06985474 293.43667603 C 298.41278076 293.43356323 300.50875854 293.52386475 302.37002563 293.77301025 C 303.95587158 294.22195435 305.24707031 294.81948853 306.12576294 295.62420654 C 306.51507568 296.63577271 306.69284058 297.76824951 306.82427979 298.95468140 C 306.93899536 300.10183716 307.11547852 301.06481934 307.27093506 301.89682007 C 307.33544922 302.47418213 307.20755005 302.90087891 306.72726440 303.00253296 C 305.90960693 303.11911011 304.86135864 303.13964844 303.57144165 303.10873413 C 302.14883423 303.01580811 300.60925293 303.02603149 298.95529175 302.97708130 C 297.25076294 302.96954346 295.58123779 303.01858521 293.95175171 303.08438110 C 292.34951782 303.11785889 290.76617432 303.20999146 288.53454590 293.60879517" stroke-width="0.84598207" fill="rgb(28, 26, 29)" opacity="1.0" stroke="rgb(21, 4, 0)" stroke-opacity="0.4211293" stroke-linecap="round" stroke-linejoin="round"/>
    <path d="M 193.88739014 302.48281860 C 193.85115051 301.25830078 193.93484497 300.05459595 193.99378967 298.91748047 C 193.99577332 297.83041382 193.98320007 296.87051392 194.15771484 296.00894165 C 194.60546875 295.34573364 195.32881165 294.79696655 196.23292542 294.34259033 C 197.35566711 294.01065063 198.58226013 293.82449341 199.98980713 293.75430298 C 201.42172241 293.69342041 202.91484070 293.64666748 204.37817383 293.63787842 C 205.86851501 293.62118530 207.18640137 293.60183716 208.45506287 293.66500854 C 209.55816650 293.83200073 210.38189697 294.13778687 211.01417542 294.60571289 C 211.32365417 295.23031616 211.32933044 295.99987793 211.08958435 296.96359253 C 210.64370728 298.13204956 210.09413147 299.41015625 209.43399048 300.84344482 C 208.82002258 302.31024170 208.25053406 303.79681396 193.88739014 302.48281860" stroke-width="0.88643008" fill="rgb(28, 29, 30)" opacity="1.0" stroke="rgb(11, 4, 0)" stroke-opacity="0.44084382" stroke-linecap="round" stroke-linejoin="round"/>
  </g>
</svg>
