<?xml version="1.0" ?>
<svg xmlns="http://www.w3.org/2000/svg" version="1.1" width="512" height="512" viewBox="0 0 512 512">
  <defs/>
  <g>
    <path d="M 544.61132812 277.96710205 C 526.93841553 288.04727173 509.21609497 298.10665894 491.45852661 308.11724854 C 473.63693237 317.99935913 455.72125244 327.62313843 437.66464233 336.92279053 C 419.42343140 345.87869263 400.97225952 354.38381958 382.36178589 362.35623169 C 363.64715576 369.69790649 344.69213867 376.31365967 325.47634888 382.21746826 C 306.07983398 387.27902222 286.58288574 391.41583252 266.97958374 394.58322144 C 247.25759888 396.72448730 227.49075317 397.80865479 207.73492432 397.74774170 C 188.04539490 396.43777466 168.53715515 393.89810181 149.30433655 390.21777344 C 130.44476318 385.29278564 112.03192902 379.07437134 94.12258148 371.63687134 C 76.85825348 362.98184204 60.39763260 353.02951050 44.89836884 341.80108643 C 30.43023491 329.41079712 17.07060432 315.88653564 4.91724253 301.27944946 C -5.73223877 285.46292114 -14.89781380 268.63983154 -22.66071129 251.02015686 C -29.07728195 232.79376221 -34.17186737 214.01490784 -37.90615845 194.82807922 C -40.34715652 175.40058899 -41.47575760 155.91152954 -41.32125854 136.47471619 C -39.93136215 117.25932312 -37.36875534 98.36626434 -33.58467865 79.89236450 C -28.55397034 61.99572754 -22.28177261 44.75816345 -14.78093529 28.32009506 C -6.09264421 12.79858971 3.77356100 -1.78055811 14.85195351 -15.34496212 C 27.06816101 -27.91402817 40.35777283 -39.41447449 54.64689636 -49.77209854 C 69.95311737 -59.05582809 86.16605377 -67.28855133 103.20999146 -74.52535248 C 120.97272491 -80.70693207 139.39909363 -85.81201935 158.51347351 -89.93123627 C 178.19256592 -93.07482147 198.31861877 -95.26251984 218.77714539 -96.47289276 C 239.54251099 -96.76229858 260.53103638 -96.15167236 281.64334106 -94.64013672 C 302.74057007 -92.19794464 323.67657471 -88.86022186 344.41409302 -84.70478821 C 364.84780884 -79.67808533 384.83105469 -73.76488495 404.22714233 -66.95807648 C 422.95059204 -59.26951981 440.92974854 -50.68507385 458.04962158 -41.18618393 C 474.13140869 -30.72788239 489.10568237 -19.24277878 502.91989136 -6.76109886 C 515.50384521 6.73700809 526.87200928 21.21064758 537.14550781 36.55333710 C 546.36712646 52.67383575 554.71319580 69.46697235 562.34155273 86.78796387 C 569.38513184 104.48044586 575.94006348 122.51185608 582.09918213 140.84284973 C 587.98187256 159.32557678 593.71844482 177.87721252 599.35491943 196.48014832 C 604.91070557 215.15815735 610.44427490 233.83319092 544.61132812 277.96710205" stroke-width="2.00000000" fill="rgb(171, 225, 242)" opacity="1.0" stroke="rgb(129, 210, 236)" stroke-opacity="0.7510942" stroke-linecap="round" stroke-linejoin="round"/>
    <path d="M 515.23767090 522.32403564 C 496.94738770 523.36773682 478.60455322 524.45715332 460.26766968 525.53747559 C 441.93133545 526.62518311 423.53198242 527.73596191 405.04229736 528.91217041 C 386.50250244 530.17010498 367.82775879 531.52496338 349.01251221 532.96826172 C 330.06466675 534.44360352 310.92532349 536.01678467 291.58999634 537.71600342 C 272.14862061 539.38946533 252.57337952 541.00823975 232.83084106 542.60644531 C 212.99186707 544.09472656 193.15560913 545.36596680 173.35231018 546.35626221 C 153.67399597 546.95776367 134.23591614 547.02239990 115.09518433 546.47613525 C 96.37039185 545.22949219 78.25394440 543.07672119 60.90160751 539.82818604 C 44.41306686 535.42211914 28.98445511 529.69146729 14.83394241 522.39935303 C 2.12525702 513.34167480 -9.06146145 502.64831543 -18.78933144 490.51177979 C -27.04840088 477.10598755 -33.90334320 462.68954468 -39.31294250 447.44418335 C -43.28441238 431.64471436 -45.87644958 415.50326538 -47.03925323 399.34197998 C -46.86409378 383.45275879 -45.33274841 368.08468628 -42.45621490 353.53601074 C -38.21789932 340.08007812 -32.64350891 328.06549072 -25.76392746 317.73281860 C -17.58464813 309.39584351 -8.16355610 303.27658081 2.47324753 299.70928955 C 14.35430431 299.55883789 27.42130089 299.65808105 41.70466995 299.60327148 C 57.00751877 300.17874146 73.30146790 300.30819702 90.52498627 300.10336304 C 108.58859253 300.35665894 127.40736389 300.46206665 146.81007385 300.39682007 C 166.56243896 299.94808960 186.64649963 300.27117920 207.08625793 300.14553833 C 227.87857056 300.33947754 248.93057251 300.10537720 270.00579834 300.34732056 C 291.01327515 300.55780029 311.99285889 300.16787720 332.78472900 299.85311890 C 353.10336304 299.85784912 372.93725586 300.46984863 392.36404419 300.27420044 C 411.22882080 300.19329834 429.31665039 300.23876953 446.51895142 300.08129883 C 462.71203613 299.30944824 477.84100342 299.53909302 491.69177246 299.77233887 C 504.02929688 299.38150024 514.71990967 299.59994507 523.78283691 302.16754150 C 531.30340576 307.49288940 537.37506104 315.18930054 542.29077148 324.94125366 C 546.11358643 336.50616455 549.02954102 349.69009399 551.16400146 364.23519897 C 552.66552734 379.87490845 553.68560791 396.36627197 554.36553955 413.48355103 C 554.74157715 431.10607910 554.95111084 449.06286621 555.07177734 467.20812988 C 555.12493896 485.44467163 555.18658447 503.67144775 515.23767090 522.32403564" stroke-width="2.00000000" fill="rgb(237, 248, 251)" opacity="1.0" stroke="rgb(94, 145, 172)" stroke-opacity="0.6721796" stroke-linecap="round" stroke-linejoin="round"/>
    <path d="M 299.36199951 292.32498169 C 294.28692627 293.63317871 289.18640137 294.82675171 283.98645020 295.86782837 C 278.55981445 296.88049316 272.75076294 297.76904297 266.54290771 298.28723145 C 259.86636353 298.22088623 252.70195007 298.10775757 244.96714783 298.13961792 C 236.61408997 298.15243530 227.60765076 298.08071899 218.00512695 298.10217285 C 207.87454224 298.11669922 197.17968750 298.12414551 185.99728394 298.12176514 C 174.33738708 298.13592529 162.21954346 298.12554932 149.64212036 297.89004517 C 136.85919189 297.35296631 124.07363892 297.34588623 111.50294495 298.18252563 C 99.35603333 298.22073364 87.88081360 297.99096680 77.17646027 298.00762939 C 67.60271454 298.25039673 59.66387177 298.19271851 53.75322723 298.24081421 C 50.20430756 298.81359863 49.30405426 298.42208862 50.66926193 296.05120850 C 52.82650757 291.07971191 55.23930740 283.65682983 58.59887695 274.39916992 C 62.53719711 263.59570312 66.52158356 251.52139282 70.80281830 238.79684448 C 75.56553650 226.04333496 79.51858521 212.98320007 83.56294250 200.26844788 C 87.81643677 188.21807861 91.26558685 177.00691223 94.64495850 167.36318970 C 97.47427368 159.43817139 98.98712158 153.49249268 99.46800232 149.84265137 C 100.18711853 149.27670288 101.10546112 151.55322266 102.89746094 155.98342896 C 105.97375488 161.86416626 109.59268188 169.13993835 113.52683258 177.47924805 C 117.80978394 186.34602356 122.33557129 195.46125793 126.99250031 204.41075134 C 131.18708801 213.04360962 135.04875183 220.97242737 139.34867859 227.16989136 C 144.49603271 231.10433960 149.77499390 232.82519531 154.54556274 232.19613647 C 158.34835815 229.08135986 161.04135132 223.42599487 163.32461548 215.66871643 C 166.11683655 206.65061951 169.20008850 196.43708801 172.75051880 185.69505310 C 176.25765991 174.63035583 179.58596802 163.40603638 183.01423645 152.61250305 C 186.08143616 142.48602295 188.95028687 133.35289001 191.15124512 125.55911255 C 193.59594727 119.85318756 196.94596863 116.60311127 200.84867859 115.69857025 C 204.96882629 116.89442444 209.23583984 120.26940918 213.48690796 125.93919373 C 217.44639587 133.49581909 221.80213928 142.44552612 226.93515015 152.30548096 C 232.32476807 163.08572388 237.91510010 174.60760498 244.11798096 186.59004211 C 250.47985840 198.99588013 256.73333740 211.83825684 263.39471436 224.78909302 C 269.96231079 237.93074036 275.36804199 251.70545959 299.36199951 292.32498169" stroke-width="0.71440828" fill="rgb(42, 154, 171)" opacity="1.0" stroke="rgb(0, 145, 165)" stroke-opacity="0.3711356" stroke-linecap="round" stroke-linejoin="round"/>
    <path d="M 283.55783081 269.91528320 C 281.25781250 275.77920532 278.86166382 281.11318970 276.14923096 286.15618896 C 273.77709961 290.69393921 272.18832397 294.57196045 270.56814575 297.35638428 C 267.58502197 297.90551758 263.38342285 297.62542725 257.99749756 297.63702393 C 251.44725037 297.59298706 243.74952698 297.59884644 234.98490906 297.63565063 C 225.37683105 297.53332520 215.05819702 297.58328247 204.00401306 297.47412109 C 192.26658630 297.50961304 180.01440430 297.52673340 167.45956421 297.52682495 C 154.67221069 297.62731934 141.74491882 297.42864990 128.83551025 297.14648438 C 116.20939636 297.18402100 104.09485626 297.45397949 92.67111969 297.38830566 C 82.13345337 297.45428467 72.67047882 297.49661255 64.60582733 297.53686523 C 58.32280350 297.46075439 54.11166382 297.59497070 52.25347519 297.26568604 C 52.99019241 295.43630981 54.74541092 291.70254517 56.82090378 286.01504517 C 59.48373413 278.79080200 62.47365570 270.22842407 65.86161041 260.57049561 C 69.33283234 250.08959961 73.03793335 238.94398499 76.89048767 227.47494507 C 80.98664856 216.09321594 84.41732788 204.71771240 88.03638458 193.86470032 C 91.40920258 183.81225586 94.35633850 174.79357910 96.89260864 167.21971130 C 98.74222565 161.42399597 99.92839050 157.64266968 100.76474762 156.46920776 C 102.03634644 158.57412720 104.05914307 163.14146423 106.92584991 169.48490906 C 110.49468994 177.15780640 114.87783051 185.57920837 119.28094482 194.46597290 C 123.88311005 203.30038452 128.08514404 211.84312439 131.95295715 219.64332581 C 137.21563721 225.29464722 143.07986450 229.11303711 149.02043152 231.29066467 C 154.47097778 231.63713074 159.01426697 229.72241211 162.48904419 224.89375305 C 165.14608765 217.02111816 168.24842834 207.15464783 171.68930054 195.99644470 C 175.43376160 184.16888428 179.21791077 172.23617554 183.05842590 160.65214539 C 186.33201599 149.74639893 189.02166748 139.89843750 191.45857239 131.68457031 C 193.16543579 125.39518738 195.78900146 121.52764130 199.43438721 120.24194336 C 203.74745178 121.48408508 208.44458008 124.91987610 213.14884949 130.30836487 C 217.23678589 137.61784363 221.45072937 146.37057495 226.22274780 156.02160645 C 231.38343811 166.50787354 236.68774414 177.64237976 242.67701721 188.91748047 C 248.57678223 200.59361267 254.41328430 212.56372070 260.47656250 224.51953125 C 266.54080200 236.50918579 272.46081543 248.62339783 283.55783081 269.91528320" stroke-width="0.62157267" fill="rgb(144, 221, 238)" opacity="1.0" stroke="rgb(96, 196, 216)" stroke-opacity="1.0" stroke-linecap="round" stroke-linejoin="round"/>
    <path d="M 448.51208496 291.82391357 C 445.68493652 291.94839478 442.80587769 292.08837891 439.84558105 292.17807007 C 436.68252563 292.33245850 433.30700684 292.53329468 429.74337769 292.74105835 C 425.92977905 292.97750854 421.80474854 293.20785522 417.33474731 293.37692261 C 412.54556274 293.49465942 407.48175049 293.65478516 402.24877930 293.90213013 C 396.87539673 294.22348022 391.35546875 294.51412964 385.74694824 294.77990723 C 380.23767090 295.06442261 374.91320801 295.37890625 369.86291504 295.71914673 C 365.20751953 296.11660767 361.08993530 296.63381958 357.63607788 297.21124268 C 355.02667236 297.82092285 353.45205688 298.11697388 353.00939941 297.78036499 C 353.66314697 296.57205200 354.99804688 294.36151123 356.49188232 291.05206299 C 358.48995972 286.99063110 360.79516602 282.36221313 363.52261353 277.17764282 C 366.20574951 271.40866089 368.95443726 265.26394653 372.04788208 259.02514648 C 375.16378784 252.71636963 378.13281250 246.32749939 381.05648804 240.02018738 C 383.95663452 234.03858948 386.69799805 228.26354980 389.04199219 222.81179810 C 391.31063843 217.91271973 393.36880493 213.57785034 395.34216309 210.12088013 C 396.55038452 207.14575195 397.48214722 204.98310852 398.49136353 204.09977722 C 399.48815918 204.22294617 400.41558838 205.54574585 401.45339966 207.89195251 C 403.05368042 211.01806641 405.22158813 214.63708496 407.77185059 218.76907349 C 410.45330811 223.46017456 413.17153931 228.51750183 416.09649658 233.89410400 C 419.23034668 239.42271423 422.37353516 245.09608459 425.62097168 250.87339783 C 428.88912964 256.73861694 432.17385864 262.59799194 448.51208496 291.82391357" stroke-width="0.62352037" fill="rgb(42, 163, 172)" opacity="1.0" stroke="rgb(10, 186, 204)" stroke-opacity="0.33499497" stroke-linecap="round" stroke-linejoin="round"/>
    <path d="M 449.31777954 296.04373169 C 445.76858521 296.53140259 442.21707153 296.94641113 438.64358521 297.12796021 C 434.93353271 297.31222534 431.00964355 297.47705078 426.90148926 297.46633911 C 422.62799072 297.49511719 418.20306396 297.65765381 413.62326050 297.56253052 C 408.83428955 297.47366333 403.81509399 297.49215698 398.67095947 297.51147461 C 393.42858887 297.50280762 388.13284302 297.44931030 382.93109131 297.41757202 C 377.86459351 297.47296143 373.03274536 297.45166016 368.54040527 297.44979858 C 364.48522949 297.44845581 360.93893433 297.43533325 358.04754639 297.49029541 C 356.05200195 297.85726929 355.00360107 297.91799927 355.02694702 297.47189331 C 356.06640625 296.19198608 357.36126709 293.94766235 358.64562988 290.67807007 C 360.86550903 286.91674805 363.24273682 282.23736572 365.63775635 277.00228882 C 368.57208252 271.62786865 371.22085571 265.75299072 374.01440430 259.67456055 C 376.89895630 253.50810242 379.79486084 247.35372925 382.56707764 241.34326172 C 385.28057861 235.54063416 387.89331055 230.06326294 390.36285400 225.02896118 C 392.39923096 220.33822632 394.20059204 216.32530212 396.05957031 213.07673645 C 397.37307739 210.63162231 398.31021118 208.75637817 398.84494019 207.94761658 C 399.47729492 208.51065063 400.33755493 209.92741394 401.70318604 212.26849365 C 403.45178223 215.18312073 405.34460449 218.71533203 407.54562378 222.83779907 C 409.96649170 227.19355774 412.50646973 232.10269165 415.37329102 236.91519165 C 418.14849854 242.11035156 421.09341431 247.45487976 424.15023804 252.71908569 C 427.13500977 258.22811890 430.21395874 263.65844727 449.31777954 296.04373169" stroke-width="1.52106738" fill="rgb(141, 221, 239)" opacity="1.0" stroke="rgb(24, 124, 152)" stroke-opacity="0.4552482" stroke-linecap="round" stroke-linejoin="round"/>
    <path d="M 119.40854645 283.02880859 C 120.78543854 279.58975220 122.27178192 276.36111450 123.92717743 273.67956543 C 125.22625732 271.30242920 125.97255707 269.46157837 126.48186493 268.75643921 C 126.92543030 269.64071655 127.37038422 271.42245483 127.82466888 273.91226196 C 128.53979492 276.30429077 129.63267517 278.13610840 130.65533447 279.25891113 C 131.56651306 279.14215088 132.33789062 277.99029541 133.28761292 276.44259644 C 133.89587402 274.79003906 134.03326416 273.35253906 134.07467651 272.33084106 C 134.61874390 272.19235229 135.47163391 272.86941528 136.12214661 274.50393677 C 137.22564697 276.59042358 138.73939514 278.59747314 140.38304138 280.84350586 C 141.37699890 283.56738281 142.63906860 286.20428467 144.05038452 288.72668457 C 145.28143311 291.08859253 146.69393921 292.99121094 147.90145874 294.55572510 C 148.79832458 295.97915649 149.44468689 296.96548462 149.55149841 297.59793091 C 148.57736206 297.84628296 147.18588257 297.75085449 145.44644165 297.58798218 C 143.51983643 297.89224243 141.79812622 297.91983032 140.18742371 297.61486816 C 138.22282410 298.02557373 135.92141724 297.96527100 133.32957458 297.72766113 C 130.43328857 297.66827393 127.42550659 297.74533081 124.64143372 297.98007202 C 122.24722290 297.67773438 120.20122528 297.63537598 118.30505371 297.81958008 C 116.54163361 297.49490356 115.00470734 297.59408569 113.66712952 297.83755493 C 112.61297607 297.82470703 111.84533691 297.66610718 111.48812103 297.39773560 C 111.53497314 296.65585327 111.85983276 296.01586914 112.47403717 295.35098267 C 113.04389191 295.06863403 113.19810486 294.60186768 119.40854645 283.02880859" stroke-width="1.95153487" fill="rgb(247, 255, 255)" opacity="1.0" stroke="rgb(63, 124, 155)" stroke-opacity="0.81632936" stroke-linecap="round" stroke-linejoin="round"/>
    <path d="M 310.05047607 292.05429077 C 309.72622681 293.29312134 309.13107300 294.38360596 308.29586792 295.18988037 C 307.24447632 295.91412354 305.92343140 296.44360352 304.39074707 296.77700806 C 302.68154907 296.98001099 300.72985840 297.05978394 298.65032959 296.97424316 C 296.60430908 296.81011963 294.60440063 296.68624878 292.62878418 296.67367554 C 290.71856689 296.77606201 288.96273804 296.97213745 287.41262817 297.25735474 C 286.01821899 297.56231689 284.77273560 297.99096680 283.71395874 298.59008789 C 282.94458008 299.01153564 282.34552002 299.20742798 281.87557983 299.06466675 C 281.44689941 298.59854126 281.00476074 297.93875122 280.69833374 297.17819214 C 280.79974365 296.33792114 281.22409058 295.36651611 281.81762695 294.18524170 C 282.46752930 292.79266357 283.19110107 291.27453613 284.10418701 289.75778198 C 285.29568481 288.27621460 286.65182495 286.74288940 287.96807861 285.04226685 C 289.13391113 283.21322632 290.21218872 281.38092041 291.30639648 279.62313843 C 292.30752563 277.96484375 293.22070312 276.43325806 294.01916504 274.92749023 C 294.48580933 273.55099487 294.65197754 272.47738647 294.69085693 271.62380981 C 294.56124878 270.96377563 294.67700195 270.49234009 294.93460083 270.56509399 C 295.29190063 271.14483643 295.90747070 271.80859375 296.70791626 272.66009521 C 297.58245850 273.56893921 298.45141602 274.96554565 299.54583740 276.63607788 C 300.54852295 278.44506836 301.69125366 280.45816040 302.84133911 282.68045044 C 304.09527588 285.01104736 305.39083862 287.28012085 306.75048828 289.75555420 C 307.97280884 292.11123657 308.87326050 294.43322754 310.05047607 292.05429077" stroke-width="0.37950984" fill="rgb(60, 152, 169)" opacity="1.0" stroke="rgb(0, 108, 148)" stroke-opacity="0.41352484" stroke-linecap="round" stroke-linejoin="round"/>
    <path d="M 310.42001343 297.58843994 C 308.07858276 297.61257935 305.90982056 297.61331177 303.75939941 297.53448486 C 301.84286499 297.76293945 299.92272949 297.89443970 298.01470947 297.90933228 C 296.15066528 297.88897705 294.28408813 297.86016846 292.53359985 297.82424927 C 290.87771606 297.92529297 289.32424927 297.92953491 287.71813965 297.82559204 C 285.89056396 297.76379395 283.95175171 298.07849121 282.12094116 298.42501831 C 280.24639893 298.07553101 278.20751953 297.92391968 276.21502686 297.80892944 C 274.52206421 297.70938110 273.30325317 297.62231445 272.81076050 297.55020142 C 272.83230591 296.62512207 273.60305786 295.33215332 274.84979248 293.50213623 C 276.38766479 291.58233643 277.26345825 289.02081299 278.75802612 286.33590698 C 280.13607788 283.34564209 281.71020508 280.45223999 282.87130737 277.50073242 C 284.17681885 275.06204224 285.15679932 273.27807617 285.65240479 271.94290161 C 286.37048340 271.82736206 287.27191162 272.68597412 287.46014404 274.51516724 C 288.44369507 276.27761841 289.36105347 277.96795654 289.58590698 279.69079590 C 290.41799927 280.81375122 291.49151611 281.51943970 291.97036743 281.37448120 C 292.24642944 280.45352173 292.97781372 279.09405518 293.96832275 277.73962402 C 294.38833618 276.20755005 294.59432983 274.81619263 294.99566650 273.78366089 C 295.44784546 273.05941772 295.80957031 273.12164307 296.06729126 274.07067871 C 296.74255371 275.64437866 297.93530273 277.48205566 299.26742554 279.81207275 C 300.74545288 282.47213745 302.41113281 285.44247437 303.83868408 288.68258667 C 305.90725708 291.90487671 306.96878052 295.68728638 310.42001343 297.58843994" stroke-width="1.89742506" fill="rgb(249, 254, 252)" opacity="1.0" stroke="rgb(61, 86, 134)" stroke-opacity="0.4434174" stroke-linecap="round" stroke-linejoin="round"/>
    <path d="M 452.93658447 298.91973877 C 452.38116455 299.38369751 451.97140503 299.75683594 451.73892212 299.87182617 C 451.49337769 299.61788940 451.07995605 299.18392944 450.32714844 298.76330566 C 449.18661499 298.71279907 447.93606567 298.65933228 446.56481934 298.52713013 C 445.08666992 298.47836304 443.63284302 298.40365601 442.05914307 298.38055420 C 440.49288940 298.39761353 438.95648193 298.48251343 437.44869995 298.63607788 C 436.04501343 298.58139038 434.66983032 298.34466553 433.35507202 298.00054932 C 432.07839966 297.59628296 430.88000488 297.19757080 429.76339722 296.83151245 C 428.75109863 296.38793945 427.86621094 295.82037354 427.05874634 295.16925049 C 426.38092041 294.38470459 425.84848022 293.43817139 425.51995850 292.33868408 C 425.32037354 291.11181641 425.23797607 289.75036621 425.25076294 288.31417847 C 425.41882324 286.80279541 425.70782471 285.20324707 426.05068970 283.62673950 C 426.51818848 282.13894653 427.05337524 280.64785767 427.63214111 279.19448853 C 428.26791382 277.79760742 428.99548340 276.49356079 429.76370239 275.28018188 C 430.58084106 274.16488647 431.42660522 273.22848511 432.23571777 272.47705078 C 433.02203369 271.95098877 433.78591919 271.67059326 434.52334595 271.64285278 C 435.18667603 271.87780762 435.80056763 272.40548706 436.46484375 273.13659668 C 437.05624390 274.08001709 437.72018433 275.15234375 438.34536743 276.37527466 C 438.99932861 277.71270752 439.78045654 279.13833618 440.62399292 280.60864258 C 441.50064087 282.08377075 442.46051025 283.59295654 443.52526855 285.11648560 C 444.94470215 286.35571289 446.45254517 287.46487427 452.93658447 298.91973877" stroke-width="0.48024166" fill="rgb(45, 144, 171)" opacity="1.0" stroke="rgb(23, 96, 144)" stroke-opacity="0.22504339" stroke-linecap="round" stroke-linejoin="round"/>
    <path d="M 425.29208374 255.85025024 C 426.23413086 257.81021118 427.19378662 259.80261230 428.21835327 261.74325562 C 429.25729370 263.64215088 430.29815674 265.49856567 431.37268066 267.28939819 C 432.55429077 269.03897095 433.77835083 270.81292725 435.00524902 272.64944458 C 436.17971802 274.56158447 437.18386841 276.45867920 438.29605103 278.46618652 C 439.40411377 280.51452637 440.56442261 282.54620361 441.75265503 284.61843872 C 442.90563965 286.63003540 444.00564575 288.57238770 445.18109131 290.37673950 C 446.29757690 292.12710571 447.15405273 293.69369507 447.92471313 295.03906250 C 448.61306763 296.02871704 449.30239868 296.65945435 449.71145630 297.07589722 C 449.74270630 297.25903320 449.27844238 297.36486816 448.45562744 297.50091553 C 447.30142212 297.56884766 445.85983276 297.48175049 444.18414307 297.52127075 C 442.32492065 297.66491699 440.28649902 297.69766235 438.13253784 297.61593628 C 435.95495605 297.55517578 433.70806885 297.51245117 431.42642212 297.53112793 C 429.21304321 297.46301270 427.12036133 297.46267700 425.19717407 297.50091553 C 423.38644409 297.45288086 421.72177124 297.13525391 420.22863770 296.63497925 C 418.89804077 296.01873779 417.71951294 295.25747681 416.69079590 294.33590698 C 415.84408569 293.27328491 415.11212158 292.12496948 414.46035767 290.96105957 C 413.85131836 289.80712891 413.34561157 288.59851074 412.92965698 287.27395630 C 412.61538696 285.85592651 412.41882324 284.36181641 412.32095337 282.84515381 C 412.24758911 281.33432007 412.17971802 279.82897949 412.13421631 278.33139038 C 412.01193237 276.78308105 411.85214233 275.18679810 425.29208374 255.85025024" stroke-width="0.52105528" fill="rgb(145, 223, 239)" opacity="1.0" stroke="rgb(129, 220, 240)" stroke-opacity="0.5931721" stroke-linecap="round" stroke-linejoin="round"/>
    <path d="M 437.25076294 98.20644379 C 429.27713013 99.33435059 421.31768799 99.22872925 413.30493164 97.94067383 C 405.30715942 96.00214386 397.33865356 93.06136322 389.38528442 89.68779755 C 381.31292725 86.40981293 373.11572266 83.58943939 364.74172974 81.29672241 C 356.36462402 79.44518280 348.12359619 78.32472229 339.97631836 77.95807648 C 331.93316650 77.80603790 324.15853882 78.09729004 316.75704956 78.84646606 C 309.78860474 79.66474152 303.24212646 81.00196838 297.44064331 82.59844208 C 292.36889648 84.07655334 288.12918091 85.28916168 284.96136475 86.05645752 C 283.12985229 86.44123840 282.73513794 86.28990936 283.77505493 85.55354309 C 286.29388428 84.33905792 289.82302856 82.45580292 294.16015625 80.33187866 C 299.29034424 78.01015472 305.19299316 75.83971405 311.66452026 74.20378876 C 318.58349609 72.73441315 325.83773804 71.83155060 333.34310913 71.45710754 C 341.05828857 71.31522369 348.82040405 71.65727234 356.58709717 72.93244934 C 364.27014160 74.80607605 371.90435791 77.07881165 379.34484863 79.50483704 C 386.51589966 81.99656677 393.29306030 84.58425903 399.61694336 87.38187408 C 405.60015869 89.75972748 411.36132812 91.62525940 416.90216064 92.89472198 C 422.15713501 93.49774170 427.11206055 93.61476898 431.80554199 93.30522156 C 436.16574097 92.48975372 440.18194580 91.17837524 443.83581543 89.55046082 C 447.25216675 88.04125214 450.16448975 86.50479126 452.64053345 84.64550781 C 454.50033569 82.61498260 455.80563354 81.02082825 456.82803345 80.70282745 C 457.91781616 82.32020569 459.35836792 85.03690338 437.25076294 98.20644379" stroke-width="1.75569439" fill="rgb(239, 249, 253)" opacity="1.0" stroke="rgb(235, 252, 255)" stroke-opacity="0.968442" stroke-linecap="round" stroke-linejoin="round"/>
    <path d="M 118.58282471 50.00214005 C 110.25856018 48.23769760 101.96882629 46.79404831 93.78425598 45.95475388 C 85.76736450 45.42006683 78.08167267 45.57169342 70.78725433 45.99885941 C 63.97671127 46.62016678 57.67396545 47.75183487 51.88167572 49.06163406 C 46.70063400 50.29669571 42.30447388 51.53065109 38.69624329 52.74040985 C 36.15506744 53.62465668 34.84723663 53.96213531 34.84899521 53.49316788 C 36.39285278 52.34680557 39.32052231 50.75578690 43.30988312 49.02099991 C 47.98153305 46.95661926 53.25386047 44.91608429 59.10903168 43.04119492 C 65.42466736 41.35438156 72.16443634 40.24094391 79.41291046 39.58358765 C 86.89045715 39.16523361 94.51408386 39.46020508 102.28054047 40.66083908 C 110.15042877 41.94371033 117.90501404 43.70022583 125.52558136 46.15695572 C 132.99208069 48.72961426 140.09223938 51.67105865 146.75668335 54.97959518 C 153.29801941 57.91202927 159.80445862 59.78411865 166.24624634 60.94354630 C 172.39894104 61.58036423 178.20361328 61.41758728 183.66169739 60.43633270 C 188.57073975 59.47974396 192.62973022 57.72529984 195.90882874 55.28850174 C 198.56887817 52.86880112 200.48507690 50.82410049 201.73974609 49.73064423 C 202.28068542 49.97309875 201.93142700 51.42308044 200.90620422 53.63706589 C 199.27482605 56.25158310 196.82809448 58.80911255 193.79408264 61.27741241 C 190.46057129 63.59108734 186.58493042 65.26036835 182.16856384 66.08018494 C 177.44725037 66.81189728 172.60002136 66.92713165 167.71171570 66.53555298 C 162.84181213 66.30757904 158.24314880 65.82902527 118.58282471 50.00214005" stroke-width="1.94592941" fill="rgb(239, 249, 253)" opacity="1.0" stroke="rgb(235, 253, 255)" stroke-opacity="0.96583" stroke-linecap="round" stroke-linejoin="round"/>
    <path d="M 155.98556519 237.76629639 C 155.52020264 240.24377441 154.60623169 242.42218018 153.79943848 244.30793762 C 153.32901001 246.33042908 152.74746704 248.11209106 152.14636230 249.53582764 C 151.65336609 250.74511719 151.42369080 251.55650330 151.36393738 251.92289734 C 151.18109131 251.71694946 150.74269104 251.08265686 150.12593079 249.86079407 C 149.56106567 248.57542419 148.91584778 246.89369202 147.96493530 245.22206116 C 146.91218567 243.37472534 145.71203613 241.39253235 144.55297852 239.21957397 C 143.44854736 236.95587158 142.29516602 234.56465149 141.25048828 232.13899231 C 139.89610291 230.01884460 138.80970764 227.84252930 137.98941040 225.76277161 C 136.88038635 224.04394531 135.91131592 222.52435303 135.46328735 221.17161560 C 135.37678528 219.98564148 135.92918396 218.97126770 136.94764709 218.09260559 C 137.91482544 216.78253174 138.70820618 215.27140808 139.69859314 213.54399109 C 140.90039062 211.81857300 141.83486938 210.07325745 142.56877136 208.26704407 C 143.51000977 206.86019897 144.30995178 205.78555298 144.60021973 204.61962891 C 144.79106140 203.84796143 145.17265320 203.47900391 145.85409546 203.42190552 C 146.46800232 204.10893250 147.15116882 205.16914368 147.79443359 206.64898682 C 148.62089539 208.41268921 149.53688049 210.42019653 150.65879822 212.45950317 C 151.82228088 214.58827209 152.69578552 216.79589844 153.88092041 218.71520996 C 154.79975891 220.56396484 155.52436829 222.21211243 156.62414551 223.68327332 C 157.34594727 225.20448303 158.00935364 226.05992126 158.75143433 226.30986023 C 159.42488098 226.25450134 159.99105835 225.89193726 155.98556519 237.76629639" stroke-width="2.00000000" fill="rgb(203, 246, 251)" opacity="1.0" stroke="rgb(1, 125, 149)" stroke-opacity="0.6533701" stroke-linecap="round" stroke-linejoin="round"/>
    <path d="M 94.52135468 323.34405518 C 95.94249725 324.31616211 96.85228729 325.91659546 97.75188446 327.84564209 C 98.83731079 329.73883057 99.87567902 331.90853882 101.05403900 333.89898682 C 101.88816071 335.76098633 102.58882904 337.59387207 103.78083038 339.03540039 C 104.50537109 340.63943481 105.17698669 342.15551758 105.96137238 343.07635498 C 106.48287964 344.04223633 106.73857880 345.08697510 106.92823029 345.55133057 C 106.38801575 345.23434448 105.53591156 345.01757812 104.30600739 345.36264038 C 102.41922760 345.42401123 100.08663940 345.39212036 97.40673828 345.44799805 C 94.38447571 345.39880371 91.26550293 345.64270020 88.00592804 345.46817017 C 84.72861481 345.45791626 81.48122406 345.64334106 78.56906891 345.60632324 C 76.21704102 345.74896240 74.52720642 345.64468384 73.43822479 345.37579346 C 73.06520844 345.65396118 72.89574432 345.84286499 72.90627289 345.36016846 C 73.77730560 344.07995605 74.72265625 342.69894409 75.33128357 340.85760498 C 76.67150879 339.39456177 77.34156036 337.66430664 78.31139374 335.89123535 C 79.44556427 334.22894287 79.94006348 332.95843506 80.51156616 332.26464844 C 80.66099548 332.48452759 80.73445129 333.11383057 81.36218262 333.96246338 C 82.11202240 334.88507080 82.59578705 336.31808472 83.46916199 337.64318848 C 83.58660889 339.42047119 84.21442413 340.90478516 85.10722351 342.03265381 C 85.74059296 342.71023560 86.13592529 342.61154175 86.47785187 341.64486694 C 86.37303925 340.21908569 86.85852051 338.73083496 87.92485809 337.03955078 C 89.19634247 335.01617432 89.51013947 332.49594116 94.52135468 323.34405518" stroke-width="1.99587131" fill="rgb(248, 255, 253)" opacity="1.0" stroke="rgb(49, 92, 131)" stroke-opacity="0.8859434" stroke-linecap="round" stroke-linejoin="round"/>
    <path d="M 201.41024780 117.55225372 C 200.56817627 120.62821198 199.18309021 123.39076996 197.77597046 125.32346344 C 196.02352905 126.01820374 194.52922058 125.95308685 193.58277893 125.10604095 C 193.57490540 123.58411407 194.22297668 121.43997955 194.92486572 118.62591553 C 195.96731567 115.70114136 196.70657349 112.39153290 197.69595337 109.32684326 C 198.57992554 106.39781189 199.30451965 104.01907349 200.04142761 102.35173035 C 200.17991638 101.25630188 200.36494446 101.42968750 200.70397949 102.47804260 C 201.73306274 104.15163422 203.09252930 106.68759155 204.23376465 109.88137817 C 205.23104858 113.20614624 207.06153870 116.32248688 208.61933899 119.68128967 C 209.94631958 122.81882477 211.28042603 125.36265564 211.68371582 127.42361450 C 209.67906189 129.28054810 207.35939026 131.67118835 201.41024780 117.55225372" stroke-width="2.00000000" fill="rgb(225, 249, 253)" opacity="1.0" stroke="rgb(70, 171, 188)" stroke-opacity="1.0" stroke-linecap="round" stroke-linejoin="round"/>
    <path d="M 56.53501129 408.68890381 C 55.59742737 408.81124878 54.81343842 409.05273438 54.16563034 408.93530273 C 53.47027588 408.82135010 52.77536392 408.60803223 52.19125748 408.64523315 C 51.48809814 409.17636108 50.89694595 409.44216919 49.95931244 409.18502808 C 48.64184952 409.06973267 46.99140167 409.18130493 45.30162048 409.09628296 C 43.65245056 409.37744141 42.06851959 409.35897827 40.67412186 409.11065674 C 39.65066910 409.23223877 38.89234924 409.36694336 38.60284042 409.30221558 C 38.97351837 408.98080444 39.58757401 408.38784790 40.27445984 407.38565063 C 41.15995407 406.25476074 42.17253494 405.03192139 43.42140961 404.00949097 C 44.10060501 402.60723877 45.14852524 401.60662842 46.40786362 400.77221680 C 47.10084534 399.64733887 47.80039215 398.51437378 56.53501129 408.68890381" stroke-width="1.94601655" fill="rgb(241, 253, 254)" opacity="1.0" stroke="rgb(28, 108, 133)" stroke-opacity="0.8223609" stroke-linecap="round" stroke-linejoin="round"/>
    <path d="M 422.61679077 394.14456177 C 419.65893555 394.76293945 416.73635864 394.91421509 413.80480957 394.93609619 C 410.94750977 395.04248047 408.31182861 395.10479736 405.93527222 395.01913452 C 403.92239380 395.04031372 402.36755371 395.05606079 401.26342773 394.96438599 C 400.71524048 394.47195435 400.54379272 393.82403564 400.67443848 392.97048950 C 401.03228760 392.19592285 401.67172241 391.55273438 402.41278076 390.84063721 C 403.14328003 389.85494995 403.94839478 388.88867188 404.82281494 387.99340820 C 405.61486816 386.95318604 406.44680786 386.05126953 407.28033447 385.14358521 C 408.15402222 384.33102417 408.84942627 383.56033325 409.42303467 382.87713623 C 410.12487793 382.54309082 410.84024048 382.44235229 411.52572632 382.49359131 C 412.28143311 382.55661011 412.93807983 382.46575928 422.61679077 394.14456177" stroke-width="0.16563380" fill="rgb(145, 183, 201)" opacity="1.0" stroke="rgb(124, 226, 242)" stroke-opacity="0.44566032" stroke-linecap="round" stroke-linejoin="round"/>
    <path d="M 323.96081543 300.61593628 C 321.69915771 300.52151489 319.32196045 300.46777344 316.81790161 300.54809570 C 314.33050537 300.51498413 312.07150269 300.68048096 310.12634277 300.50354004 C 308.79876709 300.25714111 308.27758789 299.94696045 308.39370728 299.67050171 C 308.90634155 299.87326050 309.72909546 299.76477051 310.56231689 299.35720825 C 310.84094238 298.76663208 310.59185791 297.97073364 309.84466553 297.30999756 C 309.18521118 296.53631592 309.14123535 295.71942139 309.59243774 294.83822632 C 310.38104248 293.91900635 311.19915771 292.94036865 311.82550049 291.57000732 C 312.58343506 290.23529053 313.44384766 289.12579346 314.22711182 288.01818848 C 314.97323608 286.98364258 315.60839844 286.08807373 316.07086182 285.39694214 C 315.98944092 284.84017944 315.64733887 284.48071289 323.96081543 300.61593628" stroke-width="1.94815588" fill="rgb(246, 254, 255)" opacity="1.0" stroke="rgb(0, 31, 67)" stroke-opacity="0.2452447" stroke-linecap="round" stroke-linejoin="round"/>
    <path d="M 386.17153931 142.35960388 C 386.06423950 143.10356140 385.86578369 143.80494690 385.72787476 144.39270020 C 385.46389771 144.84092712 385.07778931 145.18286133 384.63775635 145.46272278 C 384.23416138 145.56800842 383.81298828 145.57124329 383.36425781 145.50663757 C 382.83035278 145.42543030 382.34237671 145.40332031 381.99700928 145.27177429 C 381.67391968 144.97882080 381.33297729 144.65498352 380.96990967 144.34573364 C 380.68481445 143.97505188 380.55667114 143.53100586 380.51687622 143.08894348 C 380.50616455 142.61230469 380.47082520 142.10125732 380.49978638 141.55313110 C 380.69601440 141.10720825 381.02661133 140.70185852 381.38461304 140.24328613 C 381.91738892 139.95835876 382.51470947 139.75332642 383.21237183 139.62336731 C 384.00750732 139.58880615 384.79656982 139.52618408 386.17153931 142.35960388" stroke-width="1.35196686" fill="rgb(241, 252, 253)" opacity="1.0" stroke="rgb(228, 255, 255)" stroke-opacity="0.99616337" stroke-linecap="round" stroke-linejoin="round"/>
    <path d="M 129.02973938 91.68219757 C 128.68420410 92.29042053 128.30862427 92.86605072 127.87409973 93.28970337 C 127.39937592 93.55676270 126.90936279 93.69218445 126.41693878 93.78170776 C 125.88478851 93.77550507 125.32104492 93.62102509 124.79843140 93.37361908 C 124.30524445 93.08601379 123.90238190 92.76270294 123.62039948 92.34749603 C 123.44883728 91.84658813 123.36666870 91.30529785 123.28952026 90.81633759 C 123.29628754 90.34350586 123.33563232 89.89223480 123.45475006 89.47722626 C 123.59149933 89.07713318 123.87998962 88.71018982 124.23217773 88.43032074 C 124.53352356 88.11739349 124.92601013 87.85041809 125.41865540 87.73290253 C 125.97477722 87.59284210 126.59119415 87.49971008 127.28514862 87.57295990 C 128.04335022 87.79864502 128.89178467 88.11668396 129.02973938 91.68219757" stroke-width="1.08876026" fill="rgb(247, 254, 255)" opacity="1.0" stroke="rgb(233, 255, 254)" stroke-opacity="0.9869742" stroke-linecap="round" stroke-linejoin="round"/>
    <path d="M 200.66043091 251.75392151 C 199.72608948 252.15379333 198.81610107 252.59805298 198.01838684 252.92739868 C 197.14874268 252.86729431 196.19865417 252.56137085 195.34860229 252.29141235 C 194.65362549 251.84274292 194.08097839 251.21408081 193.65386963 250.59083557 C 193.46748352 249.76733398 193.47494507 248.85115051 193.55345154 248.02534485 C 193.74607849 247.25056458 193.95950317 246.47164917 194.25770569 245.68310547 C 194.82054138 245.09152222 195.55102539 244.74491882 196.33442688 244.49505615 C 197.10446167 244.33111572 197.99227905 244.32179260 198.90956116 244.28460693 C 199.65873718 244.49285889 200.31353760 245.07228088 200.93667603 245.62826538 C 201.42938232 246.14413452 201.74993896 246.77241516 201.70419312 247.71273804 C 201.94891357 248.63546753 202.14192200 249.49592590 200.66043091 251.75392151" stroke-width="1.75229859" fill="rgb(244, 251, 255)" opacity="1.0" stroke="rgb(134, 174, 184)" stroke-opacity="0.3100307" stroke-linecap="round" stroke-linejoin="round"/>
    <path d="M 150.51057434 125.96764374 C 150.51167297 125.14047241 150.47923279 124.36540985 150.61224365 123.58397675 C 150.93624878 122.70324707 151.38281250 121.90933990 151.82952881 121.34046173 C 152.33853149 121.00174713 152.93885803 120.67755127 153.66838074 120.48212433 C 154.38093567 120.30747223 155.10220337 120.40812683 155.83108521 120.68923950 C 156.48715210 121.08855438 157.12368774 121.52309418 157.69851685 121.97042847 C 158.15428162 122.51591492 158.41897583 123.17149353 158.55444336 123.81938171 C 158.55621338 124.56106567 158.44012451 125.45976257 158.17643738 126.34810638 C 157.74284363 127.07838440 157.38059998 127.73960114 156.93501282 128.26275635 C 156.27087402 128.63937378 155.41160583 128.69400024 154.57424927 128.77691650 C 153.80838013 128.78678894 152.98350525 128.97312927 150.51057434 125.96764374" stroke-width="1.78665566" fill="rgb(240, 252, 255)" opacity="1.0" stroke="rgb(140, 198, 209)" stroke-opacity="0.46045443" stroke-linecap="round" stroke-linejoin="round"/>
    <path d="M 288.35928345 144.19123840 C 287.50631714 144.83488464 286.67175293 145.39187622 285.88790894 145.89791870 C 285.06790161 146.16105652 284.24664307 146.23855591 283.49383545 146.18858337 C 282.80502319 145.98529053 282.14920044 145.72395325 281.54431152 145.26565552 C 281.03430176 144.63581848 280.58877563 144.00059509 280.31784058 143.26414490 C 280.26705933 142.33729553 280.20391846 141.50627136 280.11145020 140.79655457 C 280.32006836 140.19213867 280.73892212 139.60675049 281.23336792 139.04949951 C 281.67553711 138.56665039 282.05505371 138.09558105 282.52377319 137.68936157 C 283.15344238 137.57701111 283.87438965 137.60359192 284.62078857 137.63278198 C 285.45831299 137.79660034 286.36154175 138.18849182 287.15640259 138.66027832 C 287.97531128 139.30751038 288.99108887 139.91999817 288.35928345 144.19123840" stroke-width="1.79629970" fill="rgb(237, 252, 255)" opacity="1.0" stroke="rgb(156, 207, 219)" stroke-opacity="0.6673378" stroke-linecap="round" stroke-linejoin="round"/>
    <path d="M 468.14297485 163.69673157 C 468.85397339 163.10960388 469.47885132 162.62985229 470.09112549 162.27406311 C 470.70065308 162.15289307 471.28030396 162.26562500 471.82843018 162.49563599 C 472.32983398 162.80519104 472.80212402 163.17956543 473.19610596 163.55825806 C 473.49499512 163.92140198 473.64633179 164.37211609 473.72851562 164.84780884 C 473.82421875 165.37464905 473.86801147 165.86607361 473.81185913 166.27592468 C 473.65344238 166.66589355 473.38470459 167.03808594 473.02545166 167.37686157 C 472.66299438 167.77279663 472.32696533 168.11314392 471.93923950 168.41232300 C 471.48263550 168.66139221 471.04064941 168.82768250 470.59155273 168.91700745 C 470.10382080 168.98097229 469.59390259 168.91482544 469.10961914 168.62893677 C 468.52990723 168.19268799 467.92770386 167.71751404 468.14297485 163.69673157" stroke-width="0.93293846" fill="rgb(244, 252, 254)" opacity="1.0" stroke="rgb(227, 253, 253)" stroke-opacity="0.9602653" stroke-linecap="round" stroke-linejoin="round"/>
    <path d="M 210.03819275 172.81658936 C 209.51559448 173.24606323 209.01176453 173.73194885 208.48899841 174.17971802 C 207.92047119 174.51106262 207.31230164 174.70442200 206.79260254 174.67573547 C 206.36254883 174.50291443 205.94021606 174.21655273 205.45927429 173.96337891 C 205.12763977 173.61111450 204.93711853 173.13958740 204.72264099 172.64575195 C 204.48002625 172.14465332 204.32861328 171.63763428 204.31187439 171.15481567 C 204.38636780 170.68142700 204.49060059 170.21295166 204.73898315 169.77470398 C 205.09577942 169.28651428 205.32546997 168.82540894 205.55747986 168.44874573 C 205.95256042 168.11891174 206.51274109 167.75358582 207.06803894 167.54434204 C 207.55702209 167.65777588 208.21516418 167.95846558 208.92095947 168.36413574 C 209.61721802 168.85307312 210.32896423 169.31488037 210.03819275 172.81658936" stroke-width="0.94452244" fill="rgb(241, 252, 252)" opacity="1.0" stroke="rgb(226, 253, 252)" stroke-opacity="0.83678657" stroke-linecap="round" stroke-linejoin="round"/>
    <path d="M 451.79510498 234.17089844 C 452.19604492 234.63334656 452.53851318 235.08755493 452.75894165 235.52534485 C 452.82534790 236.00155640 452.83032227 236.50227356 452.84851074 236.99526978 C 452.93881226 237.48542786 453.06842041 237.96188354 453.02651978 238.28347778 C 452.80230713 238.49098206 452.53851318 238.80036926 452.20919800 239.19831848 C 451.80746460 239.53414917 451.35485840 239.75314331 450.93780518 239.86801147 C 450.53918457 239.86155701 450.06188965 239.80018616 449.62484741 239.64646912 C 449.27410889 239.39291382 448.84732056 239.14987183 448.39752197 238.91673279 C 448.10711670 238.58551025 447.90167236 238.16618347 447.80242920 237.61056519 C 447.75784302 237.05979919 447.87127686 236.44305420 448.03524780 235.76361084 C 448.22711182 235.05525208 448.42904663 234.28453064 451.79510498 234.17089844" stroke-width="0.95649135" fill="rgb(248, 253, 255)" opacity="1.0" stroke="rgb(233, 255, 254)" stroke-opacity="0.9454483" stroke-linecap="round" stroke-linejoin="round"/>
    <path d="M 354.31091309 222.80293274 C 354.35531616 222.23667908 354.40597534 221.74754333 354.38574219 221.21444702 C 354.46096802 220.81883240 354.62725830 220.51806641 354.93008423 220.22363281 C 355.27493286 219.97392273 355.58685303 219.73054504 355.96804810 219.53201294 C 356.42465210 219.46029663 356.92279053 219.48599243 357.38055420 219.56135559 C 357.83856201 219.78216553 358.35574341 219.97801208 358.82379150 220.22782898 C 359.12417603 220.61761475 359.29907227 221.00845337 359.39511108 221.42967224 C 359.41720581 221.91415405 359.44448853 222.46160889 359.42962646 222.94879150 C 359.25082397 223.39944458 358.99148560 223.74046326 358.62347412 224.06684875 C 358.11117554 224.23587036 357.59243774 224.31921387 357.06851196 224.47778320 C 356.45404053 224.68699646 355.82989502 224.88406372 354.31091309 222.80293274" stroke-width="1.09095252" fill="rgb(250, 253, 255)" opacity="1.0" stroke="rgb(231, 255, 255)" stroke-opacity="0.9929381" stroke-linecap="round" stroke-linejoin="round"/>
    <path d="M 399.13925171 237.32920837 C 399.36791992 237.77935791 399.65536499 238.19898987 399.95385742 238.62908936 C 400.15466309 239.02639771 400.18948364 239.47549438 400.11590576 239.94787598 C 399.99597168 240.40043640 399.89340210 240.82997131 399.78250122 241.28610229 C 399.72372437 241.72508240 399.67684937 242.11198425 399.52258301 242.43418884 C 399.14166260 242.68974304 398.66705322 242.94679260 398.17858887 243.12438965 C 397.66354370 243.17350769 397.10076904 243.14701843 396.62042236 243.03648376 C 396.19046021 242.71838379 395.81988525 242.23210144 395.53933716 241.64442444 C 395.30429077 240.93225098 395.16268921 240.17544556 395.14675903 239.42323303 C 395.31173706 238.65611267 395.59521484 237.87701416 395.96502686 237.08665466 C 396.47726440 236.25129700 396.93447876 235.41665649 399.13925171 237.32920837" stroke-width="0.87968665" fill="rgb(238, 253, 255)" opacity="1.0" stroke="rgb(219, 249, 254)" stroke-opacity="0.801361" stroke-linecap="round" stroke-linejoin="round"/>
    <path d="M 91.89999390 121.68257141 C 91.82355499 121.09535980 91.74679565 120.52265167 91.69690704 119.99901581 C 91.72872925 119.54566956 91.89571381 119.07078552 92.09954071 118.59661865 C 92.32135773 118.23085785 92.66982269 117.92196655 93.12121582 117.66761780 C 93.62345886 117.41464233 94.13642120 117.22615814 94.56953430 117.19804382 C 94.96658325 117.33462524 95.46459198 117.48407745 95.95697021 117.57515717 C 96.37030029 117.70500946 96.69152069 117.91816711 96.89840698 118.27587891 C 97.02975464 118.72542572 97.13625336 119.21492767 97.18118286 119.74893951 C 97.23233795 120.29448700 97.11180878 120.85729980 96.89009094 121.40816498 C 96.61423492 121.94696045 96.15682220 122.46659088 95.51532745 122.88250732 C 94.68017578 123.28742981 93.75197601 123.65544891 91.89999390 121.68257141" stroke-width="0.82106602" fill="rgb(249, 255, 253)" opacity="1.0" stroke="rgb(232, 253, 253)" stroke-opacity="0.8764015" stroke-linecap="round" stroke-linejoin="round"/>
    <path d="M 191.19773865 163.29641724 C 190.77342224 163.59437561 190.34162903 163.92135620 189.90362549 164.20407104 C 189.50674438 164.30474854 189.08953857 164.27542114 188.64530945 164.20855713 C 188.19502258 164.05822754 187.81846619 163.87312317 187.49835205 163.60742188 C 187.23326111 163.26155090 187.01593018 162.87405396 186.83760071 162.40534973 C 186.78242493 161.90460205 186.81765747 161.30107117 186.81465149 160.69209290 C 186.87631226 160.05870056 187.00947571 159.39273071 187.16316223 158.71493530 C 187.37322998 158.06130981 187.53576660 157.40255737 187.64448547 156.70162964 C 187.73426819 156.08143616 187.89085388 155.54122925 188.17196655 155.12600708 C 188.53088379 154.87904358 189.04031372 154.73722839 189.72784424 154.75856018 C 190.51611328 154.86077881 191.38125610 155.04879761 191.19773865 163.29641724" stroke-width="0.74949396" fill="rgb(227, 253, 254)" opacity="1.0" stroke="rgb(206, 249, 254)" stroke-opacity="0.76387846" stroke-linecap="round" stroke-linejoin="round"/>
    <path d="M 83.11915588 414.32629395 C 83.51747894 413.76654053 83.90798950 413.21371460 84.31150818 412.65280151 C 84.70579529 412.18493652 85.12035370 411.74621582 85.56860352 411.45074463 C 86.03548431 411.25607300 86.53109741 411.12432861 87.02397156 411.10037231 C 87.53525543 411.15396118 88.03524780 411.26602173 88.52125549 411.48321533 C 88.99749756 411.73233032 89.45394897 412.02578735 89.87551117 412.34118652 C 90.25497437 412.67932129 90.55076599 413.06829834 90.75211334 413.47970581 C 90.85458374 413.93704224 90.86918640 414.41921997 90.80780029 414.92404175 C 90.64556885 415.41989136 90.34200287 415.91720581 89.87383270 416.39984131 C 89.27046204 416.81552124 88.55535889 417.25958252 87.76663208 417.69128418 C 86.95992279 418.14053345 86.13226318 418.62973022 83.11915588 414.32629395" stroke-width="2.00000000" fill="rgb(250, 255, 252)" opacity="1.0" stroke="rgb(237, 245, 246)" stroke-opacity="0.8405604" stroke-linecap="round" stroke-linejoin="round"/>
    <path d="M 425.80331421 218.53842163 C 425.78808594 218.54385376 425.80438232 218.53607178 425.79067993 218.54107666 C 425.80059814 218.54156494 425.79177856 218.53297424 425.80172729 218.54225159 C 425.79034424 218.53213501 425.80245972 218.54617310 425.79037476 218.53002930 C 425.79501343 218.53361511 425.80245972 218.54129028 425.78524780 218.53410339 C 425.80081177 218.53100586 425.79788208 218.53712463 425.78546143 218.52940369 C 425.80194092 218.53125000 425.79196167 218.54023743 425.79122925 218.53230286 C 425.79553223 218.52072144 425.79409790 218.54336548 425.79199219 218.52691650 C 425.79525757 218.52926636 425.79534912 218.53514099 425.79525757 218.52720642 C 425.79348755 218.52726746 425.80078125 218.53953552 425.78698730 218.52519226 C 425.80880737 218.52597046 425.78509521 218.53399658 425.80331421 218.53842163" stroke-width="0.00000000" fill="rgb(0, 0, 0)" opacity="1.0" stroke="rgb(255, 255, 255)" stroke-opacity="1.0" stroke-linecap="round" stroke-linejoin="round"/>
    <path d="M 456.56860352 127.30634308 C 455.89227295 127.43480682 455.26562500 127.40046692 454.68258667 127.16696167 C 454.19464111 126.95994568 453.83013916 126.67455292 453.56491089 126.27527618 C 453.32223511 125.83035278 453.07635498 125.43844604 452.89331055 125.08662415 C 452.89746094 124.63175964 452.95474243 124.16219330 453.07675171 123.72120667 C 453.25881958 123.27999878 453.47674561 122.85591888 453.72579956 122.51892090 C 453.97412109 122.20841217 454.26898193 121.96217346 454.57287598 121.82505798 C 454.88360596 121.80545044 455.20709229 121.86270142 455.59390259 121.95613098 C 456.06930542 122.09467316 456.52697754 122.29798126 456.86468506 122.55480957 C 457.17889404 122.90802002 457.43252563 123.44273376 457.65774536 124.06384277 C 457.88095093 124.70597839 458.04180908 125.37187958 456.56860352 127.30634308" stroke-width="0.70407909" fill="rgb(246, 255, 254)" opacity="1.0" stroke="rgb(230, 253, 250)" stroke-opacity="0.84889674" stroke-linecap="round" stroke-linejoin="round"/>
    <path d="M 326.32150269 190.81535339 C 325.70272827 191.23944092 325.08544922 191.57414246 324.41894531 191.78054810 C 323.80236816 191.83929443 323.17785645 191.76338196 322.56393433 191.74205017 C 322.01837158 191.79496765 321.59765625 191.84037781 321.23321533 191.71409607 C 320.95034790 191.33836365 320.68167114 190.83316040 320.40057373 190.31163025 C 320.18545532 189.81455994 320.11941528 189.32534790 320.18289185 188.83741760 C 320.14801025 188.28868103 320.10717773 187.60920715 320.07934570 186.92822266 C 320.08325195 186.46237183 320.33264160 186.17950439 320.74584961 185.94969177 C 321.23913574 185.74159241 321.75335693 185.48391724 322.32653809 185.30923462 C 323.00698853 185.38681030 323.75872803 185.49884033 324.58694458 185.55110168 C 325.54083252 185.64706421 326.53338623 185.58097839 326.32150269 190.81535339" stroke-width="1.92764688" fill="rgb(240, 252, 255)" opacity="1.0" stroke="rgb(153, 211, 210)" stroke-opacity="0.27414054" stroke-linecap="round" stroke-linejoin="round"/>
    <path d="M 88.98779297 223.33772278 C 89.01840210 223.98191833 89.05001831 224.59373474 88.98507690 225.11039734 C 88.85036469 225.59960938 88.68008423 226.05618286 88.43095398 226.43142700 C 88.13613892 226.73864746 87.75090027 226.98576355 87.39261627 227.12147522 C 86.97566223 227.13998413 86.55442047 227.01390076 86.12787628 226.79611206 C 85.74163055 226.53321838 85.46266937 226.24964905 85.16516113 225.88174438 C 84.93957520 225.42320251 84.80376434 224.93420410 84.62200165 224.49911499 C 84.40650177 224.17118835 84.20553589 223.75367737 84.11276245 223.39408875 C 84.13866425 223.05906677 84.32443237 222.74902344 84.62921906 222.49276733 C 84.94013977 222.15429688 85.28703308 221.78097534 85.75299072 221.38224792 C 86.33448792 220.95803833 87.01306152 220.45002747 88.98779297 223.33772278" stroke-width="0.92031264" fill="rgb(241, 254, 252)" opacity="1.0" stroke="rgb(218, 254, 253)" stroke-opacity="0.89867663" stroke-linecap="round" stroke-linejoin="round"/>
    <path d="M 44.01554108 226.17834473 C 44.16835403 225.66180420 44.30584717 225.12031555 44.52736282 224.62800598 C 44.90526581 224.27696228 45.27987671 223.94685364 45.61772537 223.60635376 C 45.99533463 223.42494202 46.41048050 223.29035950 46.82646179 223.20353699 C 47.21039581 223.22444153 47.59383774 223.29782104 47.99533081 223.45446777 C 48.34051132 223.69189453 48.61674500 223.94505310 48.91786957 224.23867798 C 49.13694382 224.64038086 49.26596451 225.09211731 49.37032700 225.57954407 C 49.47109604 226.04196167 49.50682068 226.51341248 49.39326096 226.91937256 C 49.17240143 227.29652405 48.86583710 227.66889954 48.48938370 227.99784851 C 48.00599289 228.21054077 47.48824310 228.26834106 46.89872360 228.29870605 C 46.33070755 228.38226318 45.75757599 228.46577454 44.01554108 226.17834473" stroke-width="0.82160294" fill="rgb(243, 254, 255)" opacity="1.0" stroke="rgb(233, 253, 254)" stroke-opacity="0.7871643" stroke-linecap="round" stroke-linejoin="round"/>
    <path d="M 388.65457153 251.01666260 C 388.77963257 250.51785278 388.94793701 250.12380981 389.16259766 249.82696533 C 389.43829346 249.49069214 389.83633423 249.25448608 390.25088501 249.19650269 C 390.59838867 249.08296204 390.99215698 248.93336487 391.38497925 248.85208130 C 391.73422241 248.86358643 392.00735474 248.95726013 392.22598267 249.21414185 C 392.41296387 249.64169312 392.59121704 249.98832703 392.82073975 250.25465393 C 393.02133179 250.64668274 393.22430420 251.05999756 393.31454468 251.51783752 C 393.27377319 252.01213074 393.14706421 252.50311279 392.89767456 252.96051025 C 392.67694092 253.44360352 392.42907715 253.95832825 392.08776855 254.36412048 C 391.66647339 254.63133240 391.14746094 254.77281189 390.50619507 254.82920837 C 389.72882080 254.80413818 388.85253906 254.74537659 388.65457153 251.01666260" stroke-width="0.88421512" fill="rgb(240, 251, 255)" opacity="1.0" stroke="rgb(220, 251, 252)" stroke-opacity="0.80473244" stroke-linecap="round" stroke-linejoin="round"/>
    <path d="M 46.51745605 141.94898987 C 46.69965744 141.17189026 46.96006775 140.56538391 47.21717834 139.99154663 C 47.55916214 139.49031067 48.00814819 139.17521667 48.50822067 138.92625427 C 49.01634216 138.72706604 49.50662231 138.52285767 49.98046494 138.37927246 C 50.40390015 138.34118652 50.74011230 138.46502686 51.06507492 138.79101562 C 51.36620712 139.25384521 51.81534576 139.55117798 52.23296356 139.81993103 C 52.52344131 140.33047485 52.75387955 140.95220947 52.82757950 141.49909973 C 52.74995804 142.06675720 52.64090729 142.65705872 52.71705246 143.22442627 C 52.79595184 143.65995789 52.72293091 143.97747803 52.46784973 144.21649170 C 52.00291824 144.39990234 51.37324524 144.54908752 50.63803864 144.71690369 C 49.80138779 144.97854614 48.97597885 145.19004822 46.51745605 141.94898987" stroke-width="1.85653734" fill="rgb(232, 252, 255)" opacity="1.0" stroke="rgb(155, 209, 214)" stroke-opacity="0.33174747" stroke-linecap="round" stroke-linejoin="round"/>
    <path d="M 110.58178711 210.41658020 C 110.30394745 211.17010498 110.10741425 211.86714172 109.83238220 212.45536804 C 109.47441864 212.96214294 108.99827576 213.27708435 108.55247498 213.37866211 C 108.07579041 213.46492004 107.51508331 213.53988647 106.88196564 213.46078491 C 106.27465820 213.51239014 105.82927704 213.52291870 105.52479553 213.20455933 C 105.24125671 212.67311096 104.85123444 212.03884888 104.64132690 211.53517151 C 104.61541748 211.03765869 104.54199982 210.51940918 104.38527679 209.86660767 C 104.23284149 209.18600464 104.34833527 208.68727112 104.60709381 208.30879211 C 104.68643188 207.96028137 104.84416199 207.65766907 105.14462280 207.47795105 C 105.58575439 207.44474792 106.21349335 207.39585876 106.92403412 207.16117859 C 107.64331818 206.86614990 108.39270782 206.82823181 110.58178711 210.41658020" stroke-width="1.87794352" fill="rgb(236, 253, 255)" opacity="1.0" stroke="rgb(130, 184, 185)" stroke-opacity="0.21521752" stroke-linecap="round" stroke-linejoin="round"/>
    <path d="M 228.59387207 48.03732681 C 228.19876099 48.10281754 227.81481934 48.20624542 227.39463806 48.25889587 C 226.99336243 48.29249573 226.63607788 48.26528549 226.24642944 48.15297318 C 225.92001343 47.97077179 225.65863037 47.70028305 225.36869812 47.38843155 C 225.04527283 47.05063629 224.79397583 46.70742035 224.62530518 46.37108231 C 224.55006409 46.05074310 224.56396484 45.72495270 224.65544128 45.38405991 C 224.85656738 45.00068283 225.06433105 44.65041733 225.31376648 44.30124283 C 225.62155151 44.05751419 225.97428894 43.92695618 226.40939331 43.83468628 C 226.89741516 43.74721527 227.38375854 43.64049530 227.85971069 43.64656830 C 228.28781128 43.79746246 228.65484619 44.08929062 229.03656006 44.47608185 C 229.53166199 44.92589951 230.05914307 45.38307953 228.59387207 48.03732681" stroke-width="0.78726107" fill="rgb(236, 252, 252)" opacity="1.0" stroke="rgb(229, 253, 253)" stroke-opacity="0.6648709" stroke-linecap="round" stroke-linejoin="round"/>
    <path d="M 389.97540283 365.38424683 C 389.41210938 365.17871094 388.84930420 364.98693848 388.31176758 364.78445435 C 387.80966187 364.61019897 387.33410645 364.40832520 386.93862915 364.19271851 C 386.60162354 363.92587280 386.34985352 363.63723755 386.16659546 363.31637573 C 386.07952881 362.97271729 386.01916504 362.60272217 386.04132080 362.24508667 C 386.15036011 361.89553833 386.26571655 361.53897095 386.43493652 361.22689819 C 386.65484619 360.91717529 386.91876221 360.63525391 387.20959473 360.40658569 C 387.56231689 360.23208618 387.94448853 360.07687378 388.34774780 359.99346924 C 388.78848267 359.98397827 389.25842285 359.99963379 389.73760986 360.11163330 C 390.25167847 360.25759888 390.78976440 360.46154785 391.32421875 360.72103882 C 391.89059448 360.99810791 392.46313477 361.27499390 389.97540283 365.38424683" stroke-width="2.00000000" fill="rgb(249, 254, 255)" opacity="1.0" stroke="rgb(237, 247, 247)" stroke-opacity="1.0" stroke-linecap="round" stroke-linejoin="round"/>
    <path d="M 421.83273315 219.41986084 C 421.95172119 218.95973206 422.08282471 218.56274414 422.31893921 218.15800476 C 422.62042236 217.73178101 422.96948242 217.43058777 423.35229492 217.21029663 C 423.73580933 217.01347351 424.11715698 216.84295654 424.45819092 216.77015686 C 424.77993774 216.92453003 425.09603882 217.18356323 425.40469360 217.41946411 C 425.76544189 217.64839172 426.17160034 217.92443848 426.52627563 218.26043701 C 426.76086426 218.55593872 426.93200684 218.89591980 427.05908203 219.25280762 C 427.10848999 219.61825562 427.10220337 219.98583984 426.99819946 220.33894348 C 426.84967041 220.67616272 426.61685181 221.00447083 426.25201416 221.33131409 C 425.83596802 221.62979126 425.33901978 221.91894531 424.73272705 222.13719177 C 424.04190063 222.27244568 423.30560303 222.47492981 421.83273315 219.41986084" stroke-width="0.80562586" fill="rgb(246, 251, 255)" opacity="1.0" stroke="rgb(223, 244, 242)" stroke-opacity="0.6796363" stroke-linecap="round" stroke-linejoin="round"/>
    <path d="M 108.38943481 270.37667847 C 107.87490845 271.09619141 107.40422821 271.67291260 106.98225403 272.03494263 C 106.51221466 272.22579956 106.01594543 272.43685913 105.56864166 272.52850342 C 105.17020416 272.41699219 104.74382019 272.12301636 104.32331848 271.70806885 C 103.92221069 271.33956909 103.47630310 271.09719849 103.17011261 270.81994629 C 102.97997284 270.45593262 102.90817261 269.97091675 102.82456970 269.44314575 C 102.77184296 268.95458984 102.97936249 268.46520996 103.32926941 268.04171753 C 103.63908386 267.71353149 103.93723297 267.40802002 104.35128021 267.15573120 C 104.73128510 266.87536621 105.19765472 266.70571899 105.64318848 266.64764404 C 106.09723663 266.79675293 106.61402893 267.03308105 107.21594238 267.25024414 C 107.90286255 267.43084717 108.50920868 267.51699829 108.38943481 270.37667847" stroke-width="1.01839864" fill="rgb(230, 251, 255)" opacity="1.0" stroke="rgb(188, 200, 194)" stroke-opacity="0.2772558" stroke-linecap="round" stroke-linejoin="round"/>
    <path d="M 263.68011475 201.83818054 C 263.72128296 201.34422302 263.79104614 200.93405151 263.84558105 200.50733948 C 263.87084961 200.01986694 263.98654175 199.61488342 264.19378662 199.26286316 C 264.35455322 198.96757507 264.52066040 198.68061829 264.75183105 198.44812012 C 265.02432251 198.31890869 265.30459595 198.23197937 265.62741089 198.25065613 C 266.04400635 198.37124634 266.45458984 198.47882080 266.83544922 198.59399414 C 267.18173218 198.75643921 267.48703003 198.94012451 267.74465942 199.18206787 C 267.99581909 199.57638550 268.20251465 200.02436829 268.30761719 200.43913269 C 268.32870483 200.82475281 268.36657715 201.13973999 268.31005859 201.49275208 C 268.02832031 201.88183594 267.66952515 202.34600830 267.31210327 202.77316284 C 266.88684082 203.26261902 266.38641357 203.68226624 263.68011475 201.83818054" stroke-width="0.64103460" fill="rgb(246, 255, 255)" opacity="1.0" stroke="rgb(242, 255, 251)" stroke-opacity="0.59249634" stroke-linecap="round" stroke-linejoin="round"/>
    <path d="M 185.81935120 390.34500122 C 185.52661133 390.87701416 185.21159363 391.40667725 184.85093689 391.87768555 C 184.46853638 392.31472778 184.04656982 392.66320801 183.61083984 392.92199707 C 183.15036011 393.13061523 182.71627808 393.25985718 182.24539185 393.35745239 C 181.79341125 393.40231323 181.36653137 393.41854858 180.95578003 393.36416626 C 180.56825256 393.28903198 180.23434448 393.14483643 179.92716980 392.90902710 C 179.64720154 392.64657593 179.39799500 392.33032227 179.15740967 391.97308350 C 178.95115662 391.60296631 178.76875305 391.22973633 178.64678955 390.82751465 C 178.65814209 390.42379761 178.76428223 390.02288818 178.98550415 389.63162231 C 179.29769897 389.22952271 179.67407227 388.81069946 180.10548401 388.37637329 C 180.52317810 387.88586426 181.02517700 387.37277222 185.81935120 390.34500122" stroke-width="2.00000000" fill="rgb(249, 253, 253)" opacity="1.0" stroke="rgb(237, 247, 246)" stroke-opacity="0.93143386" stroke-linecap="round" stroke-linejoin="round"/>
    <path d="M 64.32529449 236.90472412 C 64.18028259 237.32151794 63.97642517 237.71598816 63.72127914 238.13893127 C 63.45285416 238.45526123 63.19285965 238.68338013 62.92548370 238.89682007 C 62.63940048 239.02531433 62.32333374 239.11045837 61.98815155 239.12312317 C 61.66637802 239.09141541 61.34830475 238.97450256 61.04484940 238.83207703 C 60.82826996 238.61627197 60.60197449 238.38825989 60.37309647 238.13331604 C 60.21451187 237.87147522 60.08201981 237.59573364 59.97115707 237.28421021 C 59.90476990 237.02456665 59.90025330 236.78753662 59.99827957 236.51689148 C 60.12102890 236.25012207 60.32622528 236.04133606 60.51153564 235.84181213 C 60.74820709 235.61869812 61.03570175 235.40881348 61.33218384 235.18937683 C 61.62134933 234.96723938 61.87988281 234.72401428 64.32529449 236.90472412" stroke-width="0.71304029" fill="rgb(229, 252, 255)" opacity="1.0" stroke="rgb(211, 241, 241)" stroke-opacity="0.52916294" stroke-linecap="round" stroke-linejoin="round"/>
    <path d="M 379.15362549 360.63284302 C 374.82333374 359.50030518 371.41879272 358.23880005 369.30627441 357.09497070 C 369.15966797 358.07818604 369.10446167 359.71536255 367.86636353 360.01181030 C 364.98983765 359.65933228 361.42022705 358.67913818 358.07327271 357.41070557 C 355.75265503 355.09823608 353.75820923 352.71218872 352.22567749 350.74017334 C 349.90545654 351.30722046 346.69778442 351.94638062 343.25103760 352.82318115 C 339.92617798 352.79193115 336.57321167 353.06378174 333.50411987 352.65472412 C 330.46813965 353.24908447 327.68533325 354.20672607 324.97256470 354.97167969 C 322.42080688 354.80407715 320.05642700 354.54257202 318.03106689 354.47793579 C 316.57116699 354.34933472 315.61203003 354.11892700 315.16320801 353.28213501 C 315.53683472 351.91156006 316.20196533 350.17456055 317.04135132 348.18829346 C 318.15829468 346.08630371 319.53524780 344.03088379 321.28457642 342.04116821 C 323.41781616 340.10940552 325.80010986 338.31591797 328.28204346 336.80139160 C 330.88626099 335.54464722 333.75900269 334.53915405 336.86700439 333.79028320 C 340.18615723 333.25466919 343.57809448 332.63317871 347.02624512 332.03695679 C 350.44137573 331.25860596 353.56237793 330.43222046 356.89181519 330.66409302 C 359.97778320 330.31936646 362.92355347 329.95898438 365.61773682 330.16818237 C 367.78704834 330.93722534 369.63763428 331.97854614 371.53738403 332.72775269 C 372.99417114 334.45883179 373.73077393 336.62542725 374.15890503 339.35501099 C 374.32006836 342.39273071 374.75061035 345.55899048 375.39260864 348.63134766 C 375.84576416 351.91879272 376.17965698 355.13690186 379.15362549 360.63284302" stroke-width="1.95426071" fill="rgb(240, 118, 24)" opacity="1.0" stroke="rgb(144, 43, 6)" stroke-opacity="0.925705" stroke-linecap="round" stroke-linejoin="round"/>
    <path d="M 328.47872925 356.28735352 C 326.23721313 355.19485474 324.02523804 354.21997070 321.80279541 353.39688110 C 319.55615234 352.79083252 317.30868530 352.39578247 315.14077759 352.10647583 C 313.01025391 351.68481445 311.14672852 350.56115723 309.51498413 349.03228760 C 307.59616089 347.51770020 305.30166626 346.19699097 303.17965698 344.72399902 C 301.04296875 343.28311157 298.88336182 341.93341064 296.77990723 340.66650391 C 294.64703369 339.58013916 292.58029175 338.61013794 290.76647949 337.66946411 C 289.27548218 336.75979614 288.11514282 335.76797485 287.23904419 334.70852661 C 286.69204712 333.67504883 286.57006836 332.92184448 287.06845093 332.35516357 C 288.18087769 331.66418457 289.26913452 330.26470947 290.64443970 328.61541748 C 292.32757568 327.03103638 293.62377930 325.04598999 295.02178955 323.51333618 C 296.29769897 322.27593994 297.91421509 321.87573242 299.73574829 322.39468384 C 301.88681030 322.72747803 304.32418823 322.69766235 306.79156494 322.78631592 C 308.44174194 323.56649780 309.42260742 325.15045166 310.44689941 326.75741577 C 311.67794800 328.11016846 313.31680298 329.04806519 315.39233398 329.59240723 C 317.84594727 329.94720459 320.42810059 330.39718628 322.99746704 330.57763672 C 325.64791870 330.57171631 328.21838379 330.85101318 330.62716675 330.96005249 C 332.63076782 330.89926147 334.53417969 331.02062988 336.37792969 330.78964233 C 337.99661255 330.91638184 339.60446167 330.60104370 341.64294434 330.39999390 C 343.99841309 330.49163818 346.18499756 330.34432983 348.04919434 330.17611694 C 349.67349243 329.75509644 350.92858887 329.20675659 328.47872925 356.28735352" stroke-width="0.72525227" fill="rgb(236, 121, 27)" opacity="1.0" stroke="rgb(237, 127, 50)" stroke-opacity="0.4652299" stroke-linecap="round" stroke-linejoin="round"/>
    <path d="M 293.61932373 326.29650879 C 293.42984009 323.66442871 293.71469116 321.29721069 294.34936523 319.09945679 C 295.07522583 317.06555176 295.56436157 315.36105347 296.16165161 314.24270630 C 296.52532959 313.71063232 297.06567383 313.77758789 297.25521851 314.18225098 C 297.14727783 315.05181885 297.54272461 315.86041260 297.88171387 317.18093872 C 297.66671753 318.58715820 297.75152588 319.93072510 298.32690430 320.70791626 C 298.13204956 321.03823853 297.50878906 321.60058594 297.32220459 322.36248779 C 297.12799072 323.22225952 296.89465332 323.85815430 296.72521973 324.40948486 C 296.61807251 324.59777832 296.50662231 324.47326660 296.22402954 324.26068115 C 296.14691162 323.87612915 296.07183838 323.25906372 296.11734009 322.45825195 C 296.33230591 321.53869629 296.55636597 320.45547485 293.61932373 326.29650879" stroke-width="0.72575271" fill="rgb(97, 24, 7)" opacity="1.0" stroke="rgb(159, 52, 0)" stroke-opacity="0.63633406" stroke-linecap="round" stroke-linejoin="round"/>
    <path d="M 297.84524536 339.81665039 C 297.84439087 339.82528687 297.84365845 339.82424927 297.84274292 339.81463623 C 297.84536743 339.82739258 297.84121704 339.82107544 297.84530640 339.81924438 C 297.83972168 339.81790161 297.84530640 339.83413696 297.83654785 339.80648804 C 297.84625244 339.82620239 297.84341431 339.82546997 297.83718872 339.81405640 C 297.84490967 339.82797241 297.83969116 339.81219482 297.84060669 339.83190918 C 297.84817505 339.80740356 297.83761597 339.82681274 297.84518433 339.82443237 C 297.84283447 339.80841064 297.84454346 339.81634521 297.84445190 339.82406616 C 297.84594727 339.80831909 297.84713745 339.81600952 297.84762573 339.81781006 C 297.84564209 339.81271362 297.85394287 339.80761719 297.85314941 339.81872559 C 297.83532715 339.80718994 297.86917114 339.81240845 297.84524536 339.81665039" stroke-width="0.00000000" fill="rgb(255, 255, 255)" opacity="1.0" stroke="rgb(192, 198, 219)" stroke-opacity="1.0" stroke-linecap="round" stroke-linejoin="round"/>
    <path d="M 373.33676147 330.81973267 C 375.62988281 332.19552612 378.10360718 333.24734497 380.88781738 333.84872437 C 383.75979614 334.47854614 386.59631348 335.56823730 389.66323853 336.45074463 C 392.74429321 337.22848511 396.00402832 337.53244019 399.23110962 337.75012207 C 402.28399658 338.45944214 405.51235962 338.25811768 408.85955811 338.11425781 C 412.39743042 337.64199829 415.57125854 337.54644775 418.28384399 337.56158447 C 420.57955933 337.46954346 422.37570190 337.22814941 423.87362671 336.83050537 C 424.88153076 337.06475830 424.99468994 337.43530273 424.02563477 337.39843750 C 422.97860718 337.87289429 421.78866577 339.17175293 420.46063232 340.43197632 C 419.53332520 341.40161133 419.26400757 342.47488403 419.66604614 343.45501709 C 420.88949585 343.65826416 422.61251831 343.68777466 424.34506226 343.32543945 C 425.79336548 342.12976074 426.82464600 341.30459595 426.98049927 341.35638428 C 426.10537720 342.88046265 424.77343750 345.31820679 422.61456299 347.63363647 C 420.54516602 349.84704590 417.66311646 351.16546631 414.39682007 352.38592529 C 411.35989380 353.31106567 408.25851440 353.49761963 405.27096558 353.84942627 C 402.62475586 353.56076050 400.19543457 353.49490356 397.76052856 353.24737549 C 395.57318115 352.52484131 393.47711182 351.74700928 391.40002441 350.74197388 C 389.39712524 349.95101929 387.57406616 348.75201416 385.57739258 347.70053101 C 384.04190063 346.07669067 382.46478271 344.34420776 380.75836182 342.73706055 C 379.06423950 341.28723145 377.71856689 339.38928223 376.17657471 337.58532715 C 374.79925537 335.15780640 373.26281738 332.83493042 373.33676147 330.81973267" stroke-width="2.00000000" fill="rgb(229, 115, 39)" opacity="1.0" stroke="rgb(255, 245, 207)" stroke-opacity="0.36599737" stroke-linecap="round" stroke-linejoin="round"/>
    <path d="M 304.69436646 346.05718994 C 301.03146362 344.24096680 297.45187378 342.29876709 293.86444092 341.22192383 C 290.45742798 340.47799683 287.72189331 339.85260010 285.71563721 338.56921387 C 284.14654541 337.36727905 283.08029175 336.47195435 283.06527710 336.46459961 C 284.20419312 336.90002441 285.10876465 335.68801880 284.76647949 334.96096802 C 284.15740967 335.53164673 284.31567383 335.59393311 285.50314331 334.57614136 C 286.60525513 333.81817627 287.62438965 333.73214722 288.86444092 333.70471191 C 290.79608154 332.63879395 293.51110840 331.99072266 296.55111694 332.11477661 C 299.15002441 332.78491211 301.49511719 333.89205933 303.73107910 335.62835693 C 306.20007324 336.98986816 308.15512085 338.66931152 309.83648682 340.43121338 C 311.47195435 341.29101562 312.86233521 341.66760254 304.69436646 346.05718994" stroke-width="1.06817687" fill="rgb(253, 246, 237)" opacity="1.0" stroke="rgb(173, 116, 78)" stroke-opacity="0.83273596" stroke-linecap="round" stroke-linejoin="round"/>
    <path d="M 333.16827393 375.45770264 C 331.24569702 373.65127563 330.21539307 371.17593384 329.12557983 368.33959961 C 327.73748779 365.77539062 326.89572144 363.18328857 325.59106445 361.16052246 C 324.58572388 359.48590088 324.25631714 357.75640869 324.39788818 356.62121582 C 325.05407715 356.25912476 326.19686890 356.31942749 327.63879395 356.26000977 C 329.20303345 356.21347046 330.48806763 356.00942993 331.13714600 355.26065063 C 331.27456665 353.83996582 331.92630005 352.82791138 333.11718750 352.60513306 C 333.33782959 353.45770264 333.33401489 354.75631714 333.36337280 356.25790405 C 333.83874512 358.13668823 334.01403809 360.34585571 334.36508179 362.69778442 C 334.91567993 365.61868286 335.77835083 368.52252197 336.80288696 371.58880615 C 337.82821655 374.57882690 339.11572266 377.61169434 333.16827393 375.45770264" stroke-width="0.45201471" fill="rgb(22, 14, 13)" opacity="1.0" stroke="rgb(82, 18, 0)" stroke-opacity="0.53772" stroke-linecap="round" stroke-linejoin="round"/>
    <path d="M 321.09530640 356.41519165 C 318.10610962 358.67773438 315.44854736 361.08917236 312.70608521 363.32897949 C 309.79452515 365.36126709 307.38223267 367.53573608 304.60842896 368.61117554 C 302.18658447 369.96148682 299.91436768 369.99926758 297.76397705 369.74789429 C 296.22695923 369.71438599 295.63302612 369.23422241 295.72595215 368.67358398 C 296.55981445 368.16903687 297.95721436 367.53958130 299.44027710 366.28454590 C 301.30047607 364.95364380 303.48425293 363.56201172 305.46682739 361.73245239 C 307.60168457 360.09014893 309.35772705 358.20645142 310.98684692 356.58505249 C 312.14016724 355.06115723 312.80120850 353.74227905 313.81463623 353.18405151 C 315.77899170 353.45977783 318.11193848 354.03543091 321.04428101 355.16143799 C 324.15380859 356.51300049 327.04272461 358.32006836 321.09530640 356.41519165" stroke-width="0.42194587" fill="rgb(13, 12, 9)" opacity="1.0" stroke="rgb(57, 0, 0)" stroke-opacity="0.48550066" stroke-linecap="round" stroke-linejoin="round"/>
    <path d="M 382.35458374 357.71224976 C 383.52877808 360.89648438 384.20260620 364.12625122 384.27868652 367.40844727 C 384.79501343 370.37698364 384.75991821 373.10025024 384.89770508 375.40597534 C 385.24588013 377.11611938 384.52093506 378.37060547 383.52133179 379.57431030 C 382.08535767 380.22702026 380.50512695 380.32452393 379.42657471 379.85501099 C 378.89056396 378.98352051 378.62588501 378.12887573 378.71307373 377.49829102 C 379.61639404 377.32775879 380.03948975 376.64834595 379.90917969 375.13681030 C 379.40194702 372.91635132 378.90533447 370.29147339 378.28289795 367.49868774 C 378.12512207 364.77508545 377.23721313 362.58261108 377.16116333 361.44161987 C 379.13796997 360.68740845 380.34628296 359.82687378 379.03015137 357.51187134 C 376.91470337 353.62377930 375.33746338 349.05404663 382.35458374 357.71224976" stroke-width="0.44450772" fill="rgb(20, 14, 10)" opacity="1.0" stroke="rgb(48, 7, 0)" stroke-opacity="0.5354701" stroke-linecap="round" stroke-linejoin="round"/>
    <path d="M 417.23806763 437.65927124 C 417.37759399 438.12954712 417.53756714 438.62799072 417.69448853 439.07403564 C 417.89590454 439.50003052 418.05072021 439.85647583 418.10540771 440.21356201 C 418.01565552 440.55688477 417.83389282 440.82949829 417.58752441 441.06924438 C 417.23519897 441.31652832 416.87722778 441.53176880 416.47708130 441.66891479 C 416.01519775 441.70858765 415.56460571 441.72442627 415.06854248 441.70843506 C 414.57260132 441.68814087 414.10891724 441.64236450 413.66085815 441.48641968 C 413.28430176 441.23156738 412.91036987 440.89324951 412.62841797 440.51049805 C 412.41052246 440.06433105 412.25750732 439.57055664 412.24163818 439.04568481 C 412.26733398 438.46212769 412.39355469 437.87072754 412.62811279 437.23120117 C 412.87768555 436.55917358 413.14236450 435.88723755 417.23806763 437.65927124" stroke-width="1.90618408" fill="rgb(244, 248, 253)" opacity="1.0" stroke="rgb(237, 249, 255)" stroke-opacity="1.0" stroke-linecap="round" stroke-linejoin="round"/>
    <path d="M 205.45654297 396.70999146 C 204.37773132 396.31240845 203.29010010 395.92242432 202.35697937 395.43704224 C 201.56845093 394.81817627 200.96363831 394.09606934 200.48294067 393.29421997 C 200.29281616 392.41265869 200.17904663 391.52545166 200.12518311 390.62658691 C 200.19586182 389.79846191 200.41487122 389.04382324 200.72978210 388.28317261 C 201.16513062 387.59722900 201.71022034 387.02908325 202.30368042 386.57977295 C 203.00003052 386.27337646 203.80050659 386.15115356 204.67355347 386.19116211 C 205.61192322 386.19622803 206.56741333 386.32803345 207.45460510 386.68661499 C 208.24624634 387.25317383 208.97663879 387.93710327 209.68469238 388.73886108 C 210.23170471 389.65252686 210.49501038 390.72491455 210.56759644 391.89770508 C 210.62712097 393.16186523 210.80934143 394.42376709 205.45654297 396.70999146" stroke-width="2.00000000" fill="rgb(237, 246, 255)" opacity="1.0" stroke="rgb(198, 232, 243)" stroke-opacity="0.924188" stroke-linecap="round" stroke-linejoin="round"/>
    <path d="M 367.34204102 362.97885132 C 366.76791382 366.34405518 365.00512695 369.02908325 362.59158325 371.61355591 C 359.99322510 373.76751709 357.77410889 375.76550293 355.59240723 377.00173950 C 353.63299561 377.67413330 352.45925903 377.36471558 351.46029663 376.18948364 C 350.79724121 374.89288330 351.27331543 374.09063721 352.53588867 373.33496094 C 354.16778564 372.98303223 355.73422241 372.98086548 357.11767578 371.88912964 C 358.65496826 370.67449951 359.48025513 368.85769653 360.27941895 366.78396606 C 360.96478271 364.88900757 361.56811523 363.31539917 361.18627930 362.26715088 C 359.84063721 361.47570801 358.64495850 360.56573486 358.35812378 359.70300293 C 359.47564697 359.44830322 361.41567993 359.90667725 363.84472656 360.42590332 C 366.76464844 360.92080688 370.05163574 360.83050537 367.34204102 362.97885132" stroke-width="0.44568086" fill="rgb(14, 10, 10)" opacity="1.0" stroke="rgb(77, 21, 13)" stroke-opacity="0.49098817" stroke-linecap="round" stroke-linejoin="round"/>
    <path d="M 106.37950897 375.14300537 C 106.55088043 374.63116455 106.79141235 374.11926270 107.01051331 373.65286255 C 107.25335693 373.23934937 107.56775665 372.89666748 107.95220947 372.63235474 C 108.34107971 372.40710449 108.76023865 372.27319336 109.20145416 372.17297363 C 109.65177917 372.12857056 110.10102844 372.14300537 110.55529022 372.19241333 C 110.95693207 372.29000854 111.33997345 372.45977783 111.66267395 372.71078491 C 111.93795776 373.05551147 112.17769623 373.45776367 112.37556458 373.88192749 C 112.52326202 374.35711670 112.62831116 374.85052490 112.66162109 375.35061646 C 112.63543701 375.80545044 112.45390320 376.21978760 112.11156464 376.57598877 C 111.65610504 376.94757080 111.10834503 377.31387329 110.47867584 377.69372559 C 109.78150177 378.10107422 109.06106567 378.50997925 106.37950897 375.14300537" stroke-width="1.98621368" fill="rgb(243, 247, 252)" opacity="1.0" stroke="rgb(236, 248, 255)" stroke-opacity="1.0" stroke-linecap="round" stroke-linejoin="round"/>
    <path d="M 302.15802002 309.26596069 C 303.47015381 311.17041016 304.13079834 313.40209961 304.78079224 315.40890503 C 305.85037231 316.92437744 306.30218506 318.55661011 306.62509155 320.23822021 C 307.42749023 321.41921997 307.71109009 322.72006226 308.12567139 323.67938232 C 308.41394043 324.57824707 308.41937256 324.94454956 308.33190918 325.20059204 C 307.81033325 324.87768555 306.92446899 324.67718506 305.55947876 324.56854248 C 304.25454712 324.89938354 303.08843994 324.94433594 302.05096436 324.77151489 C 301.02560425 323.84378052 300.38339233 322.56756592 300.51696777 320.72421265 C 300.56597900 319.01080322 300.12814331 317.43627930 300.44409180 315.92532349 C 299.91888428 314.67599487 299.41406250 313.54812622 299.99456787 312.39947510 C 299.58724976 310.82702637 298.83892822 309.72640991 302.15802002 309.26596069" stroke-width="1.78120065" fill="rgb(31, 28, 26)" opacity="1.0" stroke="rgb(255, 232, 167)" stroke-opacity="0.19637063" stroke-linecap="round" stroke-linejoin="round"/>
    <path d="M 128.46658325 340.84405518 C 128.67483521 339.59738159 128.99522400 338.45077515 129.61846924 337.37564087 C 130.51599121 336.40786743 131.56774902 335.43322754 132.94335938 334.72854614 C 134.49452209 334.42086792 136.22801208 334.27859497 137.93778992 334.13754272 C 139.53111267 334.14602661 141.01260376 334.56561279 142.40589905 335.15264893 C 143.57179260 335.67861938 144.44512939 336.52212524 145.04669189 337.46963501 C 145.50459290 338.54464722 145.80818176 339.65298462 145.75628662 340.84167480 C 145.47106934 342.08743286 144.79862976 343.19833374 143.68969727 344.06762695 C 142.64407349 345.04046631 141.26419067 345.79589844 139.78669739 346.32440186 C 138.13487244 346.32589722 136.34721375 346.33731079 134.37306213 346.04776001 C 132.25212097 345.53314209 129.99372864 344.96704102 128.46658325 340.84405518" stroke-width="0.36652452" fill="rgb(52, 180, 228)" opacity="1.0" stroke="rgb(95, 184, 203)" stroke-opacity="0.6246629" stroke-linecap="round" stroke-linejoin="round"/>
    <path d="M 170.27502441 338.51104736 C 170.13621521 337.49301147 170.03678894 336.48931885 170.22973633 335.46984863 C 170.86215210 334.46112061 171.62271118 333.46737671 172.61628723 332.61300659 C 174.00355530 332.08938599 175.59033203 331.81188965 177.25321960 331.71057129 C 178.93228149 331.69021606 180.56948853 331.87057495 182.11177063 332.19235229 C 183.46832275 332.57601929 184.61077881 333.41717529 185.54479980 334.37042236 C 186.41128540 335.44552612 187.06236267 336.48519897 187.26252747 337.72900391 C 187.09347534 338.94570923 186.44573975 340.14886475 185.71012878 341.30154419 C 184.77816772 342.22167969 183.45837402 342.71423340 181.90103149 342.95938110 C 180.09078979 343.27465820 178.14192200 343.33639526 176.04791260 342.95834351 C 173.80163574 342.44482422 171.50398254 342.19662476 170.27502441 338.51104736" stroke-width="0.55286652" fill="rgb(54, 178, 236)" opacity="1.0" stroke="rgb(113, 207, 237)" stroke-opacity="0.68462074" stroke-linecap="round" stroke-linejoin="round"/>
    <path d="M 223.90005493 336.96066284 C 224.63493347 338.11422729 225.24159241 339.32858276 225.77632141 340.43771362 C 226.08853149 341.42544556 225.94728088 342.38800049 225.47630310 343.27816772 C 224.79214478 344.22656250 224.01052856 345.17599487 222.96215820 345.98587036 C 221.83367920 346.76104736 220.65058899 347.31890869 219.16371155 347.47528076 C 217.56256104 347.51464844 215.98350525 347.37963867 214.54664612 347.08834839 C 213.17848206 346.45904541 211.82757568 345.85757446 210.70274353 345.26562500 C 209.81492615 344.33496094 209.05740356 343.27185059 208.65449524 342.06539917 C 208.50569153 340.74142456 208.64860535 339.38055420 209.21595764 338.09219360 C 210.01306152 336.86129761 211.22183228 336.09722900 212.96739197 335.80517578 C 214.94525146 335.11758423 216.99543762 334.25408936 223.90005493 336.96066284" stroke-width="0.52115953" fill="rgb(57, 177, 228)" opacity="1.0" stroke="rgb(131, 210, 226)" stroke-opacity="0.6471337" stroke-linecap="round" stroke-linejoin="round"/>
    <path d="M 252.49208069 337.23867798 C 253.91911316 336.28765869 255.35998535 335.49749756 256.87185669 334.88064575 C 258.54336548 334.76071167 260.22238159 334.66223145 261.86798096 334.69656372 C 263.55126953 335.00692749 265.04248047 335.50241089 266.37884521 336.39492798 C 267.60369873 337.49856567 268.73574829 338.54235840 269.59332275 339.61816406 C 269.80960083 340.79483032 269.63314819 341.99392700 269.29116821 343.12161255 C 268.59561157 344.06689453 267.80496216 344.97711182 266.97637939 345.94879150 C 265.87265015 346.64480591 264.61184692 347.11105347 263.20855713 347.25891113 C 261.75262451 347.58450317 260.12652588 347.73248291 258.60955811 347.61874390 C 256.98049927 347.30236816 255.35493469 346.61306763 253.74296570 345.55581665 C 252.17759705 343.95053101 250.51397705 342.09066772 252.49208069 337.23867798" stroke-width="0.58292419" fill="rgb(57, 178, 235)" opacity="1.0" stroke="rgb(86, 185, 217)" stroke-opacity="0.7440659" stroke-linecap="round" stroke-linejoin="round"/>
  </g>
</svg>
