<?xml version="1.0" ?>
<svg xmlns="http://www.w3.org/2000/svg" version="1.1" width="512" height="512" viewBox="0 0 512 512">
  <defs/>
  <g>
    <path d="M 504.29028320 261.16357422 C 487.80426025 262.31698608 471.30969238 263.52059937 454.71444702 264.67135620 C 438.05145264 265.82037354 421.26031494 266.95687866 404.31634521 268.10577393 C 387.17001343 269.25927734 369.77728271 270.46264648 352.07925415 271.70510864 C 334.16986084 273.04571533 315.94903564 274.36148071 297.41354370 275.75244141 C 278.61071777 277.11087036 259.57186890 278.52310181 240.27078247 279.87942505 C 220.89115906 281.15896606 201.33573914 282.29757690 181.79866028 283.28625488 C 162.32536316 284.02474976 143.01954651 284.35211182 123.99166107 284.26995850 C 105.33233643 283.62683105 87.18727875 282.28399658 69.69961548 280.12808228 C 53.00904083 277.03585815 37.20334244 272.86691284 22.54897308 267.46759033 C 9.07113457 260.71096802 -3.04998970 252.47607422 -13.67530727 242.74746704 C -22.91940689 231.58757019 -30.69192505 219.21379089 -37.18498993 205.77125549 C -42.27125168 191.43455505 -46.14820099 176.39248657 -48.64881516 160.75236511 C -50.00558853 144.69705200 -50.11661530 128.51490784 -49.06423950 112.23598480 C -46.75987244 96.07720184 -43.33327484 80.18466187 -38.65711594 64.82155609 C -32.83608627 49.98672867 -25.72136497 35.92356110 -17.37641716 22.72959900 C -7.74279451 10.55502796 3.20299435 -0.51055712 15.45932007 -10.42024422 C 28.96331787 -19.19077682 43.54866409 -26.87324905 59.12454224 -33.57001877 C 75.62068176 -39.40772247 92.91783142 -44.37424850 110.96277618 -48.60746765 C 129.57946777 -52.19442368 148.79771423 -55.12901306 168.40480042 -57.57597733 C 188.39239502 -59.43924713 208.70530701 -60.89229584 229.19001770 -61.91955185 C 249.81285095 -62.55063248 270.49935913 -62.75769806 291.09045410 -62.55966568 C 311.60247803 -61.95529175 331.83734131 -60.86163330 351.73913574 -59.29377365 C 371.24194336 -57.17263412 390.14129639 -54.43223953 408.43029785 -51.00460052 C 425.91241455 -46.82946777 442.56842041 -41.80233383 458.18637085 -35.85851288 C 472.70391846 -28.94237137 486.00405884 -20.91004372 497.94015503 -11.71179199 C 508.42517090 -1.27376807 517.35107422 10.48873234 524.86877441 23.43976212 C 531.08410645 37.54473495 536.15802002 52.52993011 540.35046387 68.32303619 C 543.73742676 84.77058411 546.55847168 101.74390411 548.85876465 119.10663605 C 550.88397217 136.76264954 552.68359375 154.58593750 554.35321045 172.52993774 C 555.93969727 190.47048950 557.55615234 208.47834778 504.29028320 261.16357422" stroke-width="2.00000000" fill="rgb(143, 204, 232)" opacity="1.0" stroke="rgb(107, 184, 210)" stroke-opacity="0.66634256" stroke-linecap="round" stroke-linejoin="round"/>
        <path d="M 600.54589844 464.63391113 C 584.93634033 473.05432129 569.38226318 481.47122192 553.74139404 489.85101318 C 538.12677002 498.23703003 522.40734863 506.50738525 506.58419800 514.70172119 C 490.65869141 522.76617432 474.56393433 530.63519287 458.23883057 538.28924561 C 441.76977539 545.65740967 424.97747803 552.72186279 407.90869141 559.40270996 C 390.61279297 565.66717529 372.97702026 571.46228027 355.08001709 576.71484375 C 336.87615967 581.44268799 318.41323853 585.50274658 299.68356323 588.95751953 C 280.77438354 591.69281006 261.61660767 593.66711426 242.39985657 594.91125488 C 223.04711914 595.31518555 203.71772766 594.85906982 184.41938782 593.55108643 C 165.28836060 591.29168701 146.36773682 588.10540771 127.78999329 583.94891357 C 109.63037872 578.78814697 91.98337555 572.62084961 74.99423981 565.38922119 C 58.76144028 557.12060547 43.39443588 547.79748535 29.04996872 537.35913086 C 15.79904079 525.86755371 3.79677963 513.31634521 -6.88379765 499.70379639 C -16.18262482 485.17141724 -24.16296959 469.85229492 -30.78380775 453.85235596 C -36.11816406 437.39520264 -40.15596390 420.58877563 -42.86318207 403.61926270 C -44.35592270 386.62091064 -44.55202866 369.78039551 -43.45902252 353.21884155 C -41.11081314 337.12530518 -37.43662643 321.61187744 -32.47531891 306.77114868 C -26.15940857 292.80364990 -18.45541763 279.78073120 -9.36334229 267.91577148 C 1.15838039 257.17529297 13.10974884 247.69999695 26.39800453 239.46232605 C 40.89112854 232.30125427 56.47776031 226.14118958 73.05172729 220.90655518 C 90.41956329 216.50442505 108.54382324 212.79885864 127.29528809 209.75422668 C 146.52091980 207.33750916 166.14001465 205.42349243 186.02301025 203.97438049 C 206.14505005 202.96931458 226.32284546 202.36271667 246.56124878 202.15005493 C 266.67581177 202.31242371 286.65173340 202.90348816 306.44403076 203.86526489 C 325.93411255 205.26629639 345.10192871 207.16848755 363.84786987 209.50299072 C 382.17559814 212.38438416 400.01818848 215.82669067 417.36965942 219.87309265 C 434.16983032 224.51451111 450.41262817 229.78747559 466.17224121 235.75549316 C 481.30212402 242.37554932 495.94036865 249.63595581 510.03421021 257.63397217 C 523.59161377 266.24029541 536.72900391 275.44650269 549.53497314 285.05340576 C 562.10644531 294.98303223 574.52020264 305.11764526 586.82666016 315.43136597 C 599.11645508 325.71411133 611.38623047 336.15838623 600.54589844 464.63391113" stroke-width="2.00000000" fill="rgb(231, 178, 125)" opacity="1.0" stroke="rgb(233, 159, 91)" stroke-opacity="0.78124744" stroke-linecap="round" stroke-linejoin="round"/>

    <path d="M 105.01002502 191.83953857 C 108.31584930 195.29731750 111.72799683 198.52934265 115.17456818 201.68180847 C 118.49483490 204.80305481 121.57786560 207.93605042 124.31243896 211.10990906 C 126.73030090 214.30082703 128.74932861 217.44784546 130.33763123 220.55503845 C 131.52522278 223.57200623 132.25700378 226.48487854 132.46353149 229.26733398 C 132.19248962 231.92942810 131.45220947 234.43740845 130.17970276 236.74305725 C 128.39662170 238.89268494 126.11419678 240.84391785 123.32375336 242.66780090 C 120.10577393 244.29693604 116.43563843 245.79473877 112.32939911 247.14950562 C 107.83386993 248.39689636 103.01005554 249.48635864 97.87529755 250.53273010 C 92.45898438 251.53050232 86.83382416 252.46702576 81.06058502 253.21774292 C 75.04203033 253.48394775 68.92871094 253.45214844 62.70010376 253.37025452 C 56.33384323 253.42820740 49.94355774 253.46530151 43.54769516 253.40307617 C 37.15761566 253.43891907 30.86086464 253.40631104 24.63909531 253.34201050 C 18.55876732 253.38491821 12.66660309 253.39883423 6.96596050 253.41378784 C 1.46848524 253.42079163 -3.68886042 253.46701050 -8.53951359 253.35702515 C -13.10002327 253.06318665 -17.26588821 252.59207153 -21.01901054 251.88336182 C -24.38141441 250.99644470 -27.26922035 249.85157776 -29.75154877 248.44834900 C -31.74322891 246.78193665 -33.19472122 244.91047668 -34.20278549 242.71072388 C -34.70145798 240.23629761 -34.67729950 237.41545105 -34.17022324 234.45013428 C -33.15601730 231.15216064 -31.65474510 227.59197998 -29.68156052 223.79554749 C -27.27597046 219.78170776 -24.47817230 215.51115417 -21.28145599 211.07519531 C -17.67118835 206.50401306 -13.74810410 201.81613159 -9.57777119 196.97351074 C -5.18543768 192.04626465 -0.56525153 187.15959167 4.19202709 182.24058533 C 9.08115196 177.42767334 14.13807869 172.86404419 19.16539001 168.46267700 C 23.94601440 164.10540771 28.42593193 159.81016541 32.73119354 155.84777832 C 36.67583084 152.16033936 40.16118240 148.88435364 43.24872589 146.04603577 C 45.72283173 143.63117981 47.66024780 141.91564941 49.41704178 141.27709961 C 51.22565842 142.05065918 53.23072815 143.93702698 55.75125885 146.50000000 C 58.97066879 149.38450623 62.61586761 152.60346985 66.48158264 156.24960327 C 70.66758728 159.98133850 75.04101562 163.83045959 79.38916016 167.89758301 C 83.71520233 172.05734253 88.17948151 176.13679504 105.01002502 191.83953857" stroke-width="1.93341374" fill="rgb(237, 116, 61)" opacity="1.0" stroke="rgb(183, 72, 26)" stroke-opacity="0.7052843" stroke-linecap="round" stroke-linejoin="round"/>
    <path d="M 352.15689087 251.10977173 C 343.89505005 251.46551514 335.59918213 251.82373047 327.32870483 252.20477295 C 318.99221802 252.54116821 310.63613892 252.92117310 302.21813965 253.26708984 C 293.68008423 253.46247864 285.05426025 253.50462341 276.28738403 253.47067261 C 267.33551025 253.41300964 258.20034790 253.24057007 248.85720825 253.11557007 C 239.31742859 253.04684448 229.56782532 253.08560181 219.60046387 253.14820862 C 209.43698120 253.33070374 199.17701721 253.47111511 188.80258179 253.49301147 C 178.34033203 253.47978210 167.92666626 253.51911926 157.63478088 253.54473877 C 147.51185608 253.54138184 137.68971252 253.54937744 128.25956726 253.54264832 C 119.36717224 253.56163025 111.15407562 253.56201172 103.69075775 253.58720398 C 97.18498230 253.63343811 91.78403473 253.66490173 87.66148376 253.36660767 C 84.92387390 252.44088745 83.75931549 250.81060791 84.13038635 248.52330017 C 85.97330475 245.48367310 89.11545563 241.79611206 93.20050812 237.28463745 C 97.97996521 231.95172119 103.41849518 225.86500549 109.41360474 219.15167236 C 115.98558807 212.02061462 123.12721252 204.68112183 130.63734436 196.98350525 C 138.13417053 188.81282043 145.81224060 180.50363159 153.70616150 172.22576904 C 161.66865540 164.02459717 169.48234558 155.77331543 176.98197937 147.49188232 C 184.13801575 139.25798035 190.98927307 131.22468567 197.55522156 123.55675507 C 203.72364807 116.28230286 209.60438538 109.64282227 215.21783447 103.76615906 C 220.47180176 98.73035431 225.07499695 94.36778259 228.81527710 90.61147308 C 231.43804932 87.30992126 233.34646606 85.03237152 235.03309631 84.32153320 C 236.95951843 85.58612061 239.56983948 88.24790192 243.01283264 91.82546997 C 247.10234070 96.19256592 251.86486816 101.26543427 257.22158813 106.76096344 C 262.97814941 112.68328857 269.06860352 118.85556030 275.47406006 125.22338104 C 281.89501953 131.84445190 288.42251587 138.50344849 294.83801270 145.36111450 C 300.92141724 152.55790710 306.82876587 159.84318542 312.60659790 167.15048218 C 318.46112061 174.26968384 324.49584961 181.01539612 330.66390991 187.47569275 C 336.70932007 193.80928040 342.57446289 200.11318970 348.25915527 206.38600159 C 353.80883789 212.59580994 359.27560425 218.75395203 364.58285522 224.92167664 C 369.82406616 231.02389526 375.00592041 237.12632751 380.16537476 243.20936584 C 385.33563232 249.27685547 390.42828369 255.36544800 352.15689087 251.10977173" stroke-width="1.87805080" fill="rgb(229, 163, 12)" opacity="1.0" stroke="rgb(197, 133, 0)" stroke-opacity="0.6333025" stroke-linecap="round" stroke-linejoin="round"/>
    <path d="M 539.24310303 255.74180603 C 533.21997070 255.51155090 527.23126221 255.28506470 521.26470947 255.04125977 C 515.22454834 254.85661316 509.21774292 254.64790344 503.16479492 254.46084595 C 497.09921265 254.42121887 490.98855591 254.39492798 484.81259155 254.37962341 C 478.57528687 254.33969116 472.27380371 254.34388733 465.88330078 254.27616882 C 459.39068604 254.24768066 452.77874756 254.23959351 446.09136963 254.25192261 C 439.21353149 254.19960022 432.29028320 254.17102051 425.17501831 254.16897583 C 417.95156860 254.20004272 410.56454468 254.28585815 403.09371948 254.33476257 C 395.49172974 254.36486816 387.78967285 254.31524658 380.05209351 254.32318115 C 372.29660034 254.37219238 364.53207397 254.42590332 356.83789062 254.46884155 C 349.32666016 254.50679016 341.93795776 254.53750610 334.90792847 254.54246521 C 328.25619507 254.58491516 322.04641724 254.56803894 316.41610718 254.64273071 C 311.50552368 254.75553894 307.36868286 254.71008301 304.17150879 254.43902588 C 302.01596069 253.77073669 301.01342773 252.58491516 301.14376831 250.97595215 C 302.48541260 248.94613647 304.81903076 246.49473572 307.97851562 243.59617615 C 311.78890991 240.15991211 316.10195923 236.19866943 320.75268555 231.73553467 C 325.73831177 226.84150696 331.06460571 221.71298218 336.62109375 216.32615662 C 342.39437866 210.83840942 348.30044556 205.25572205 354.30404663 199.60485840 C 360.35086060 194.02503967 366.35415649 188.48963928 372.23339844 182.98770142 C 378.04757690 177.66333008 383.76132202 172.53501892 389.23736572 167.63403320 C 394.39892578 162.94906616 399.30581665 158.52314758 403.88162231 154.43568420 C 408.02581787 150.72787476 411.66394043 147.40933228 414.81604004 144.52020264 C 417.32608032 142.21476746 419.38790894 140.78155518 421.23675537 140.52830505 C 423.05081177 141.67765808 425.07092285 143.81619263 427.66326904 146.49931335 C 431.05804443 149.40365601 434.97021484 152.70835876 439.16799927 156.59861755 C 443.72232056 160.79725647 448.56680298 165.24470520 453.67437744 169.88076782 C 458.92803955 174.72108459 464.36663818 179.67033386 469.94439697 184.63261414 C 475.53009033 189.72311401 481.20932007 194.84802246 486.82516479 200.04052734 C 492.54302979 205.16436768 498.28753662 210.25860596 504.02850342 215.33526611 C 509.80532837 220.38882446 515.55541992 225.44645691 521.33544922 230.47410583 C 527.07879639 235.53070068 532.82446289 240.63090515 539.24310303 255.74180603" stroke-width="1.88769567" fill="rgb(244, 182, 42)" opacity="1.0" stroke="rgb(225, 161, 39)" stroke-opacity="0.4964539" stroke-linecap="round" stroke-linejoin="round"/>
    <path d="M 67.47185516 456.67684937 C 67.85765076 457.74874878 68.34468079 458.73089600 69.00914764 459.56484985 C 69.81493378 460.16943359 70.69730377 460.68811035 71.41906738 461.23297119 C 71.93239594 461.85986328 72.18017578 462.57611084 72.14463806 463.30310059 C 71.86837006 464.03570557 71.36290741 464.72692871 70.61961365 465.26724243 C 69.64426422 465.69207764 68.45629120 465.89233398 67.03086853 466.07153320 C 65.49181366 466.11895752 63.84102249 466.13735962 62.06584167 466.10751343 C 60.20099640 466.10134888 58.36151505 466.09783936 56.43914413 466.12500000 C 54.51458359 466.18820190 52.66579819 466.17864990 50.84711456 466.21844482 C 49.07907486 466.24978638 47.42238998 466.27218628 45.86219025 466.26531982 C 44.43623734 466.20004272 43.18806076 465.98541260 42.08748245 465.68612671 C 41.15910339 465.24060059 40.44024277 464.67633057 39.85981369 463.99035645 C 39.46395493 463.25613403 39.20660400 462.39630127 39.08829117 461.53939819 C 39.13737106 460.71667480 39.36391449 459.81967163 39.77885818 459.01864624 C 40.43919754 458.29696655 41.18640137 457.56234741 42.13989258 456.81567383 C 43.10276794 456.02725220 44.07030106 455.19458008 45.12858582 454.27639771 C 46.13673401 453.34045410 47.22566223 452.43664551 48.32046890 451.59359741 C 49.49517822 450.80062866 50.64513016 450.12628174 51.86762238 449.58590698 C 53.12479782 449.11669922 54.35257721 448.87261963 55.66792679 448.76663208 C 56.95512772 448.94165039 58.27159882 449.28912354 59.66110992 449.76211548 C 61.07810211 450.25378418 62.58580017 450.72631836 67.47185516 456.67684937" stroke-width="0.15929922" fill="rgb(191, 130, 85)" opacity="1.0" stroke="rgb(209, 147, 105)" stroke-opacity="0.75325316" stroke-linecap="round" stroke-linejoin="round"/>
    <path d="M 396.05053711 481.90151978 C 397.15850830 480.81484985 398.23403931 479.74407959 399.34460449 478.63568115 C 400.43966675 477.53475952 401.50009155 476.41119385 402.53103638 475.28701782 C 403.69467163 474.26208496 404.82980347 473.26089478 406.03799438 472.31967163 C 407.28512573 471.50488281 408.62881470 470.79824829 409.96591187 470.24136353 C 411.46395874 469.80203247 412.88653564 469.53274536 414.41958618 469.39349365 C 415.92056274 469.36978149 417.43383789 469.63055420 418.91592407 470.08316040 C 420.45703125 470.72705078 421.88409424 471.55035400 423.30908203 472.48010254 C 424.66094971 473.50085449 425.92590332 474.60183716 427.07272339 475.74624634 C 428.06079102 476.98052979 428.88839722 478.22042847 429.55209351 479.38812256 C 430.26556396 480.44448853 431.05545044 481.25018311 431.94970703 481.83068848 C 432.78488159 482.27166748 433.51895142 482.67962646 434.01916504 483.15737915 C 434.20086670 483.64407349 434.08413696 484.21551514 433.68948364 484.77502441 C 433.01034546 485.28472900 432.07440186 485.70529175 430.93627930 486.07745361 C 429.56405640 486.30767822 428.06152344 486.42715454 426.45272827 486.44650269 C 424.71319580 486.47317505 422.92938232 486.50955200 421.09521484 486.54995728 C 419.19754028 486.58651733 417.33703613 486.59326172 415.46548462 486.58221436 C 413.56875610 486.62289429 411.71392822 486.64739990 409.90002441 486.63699341 C 408.03369141 486.70666504 406.22027588 486.73251343 404.47262573 486.69641113 C 402.68084717 486.62887573 400.94976807 486.41098022 399.22964478 486.06378174 C 397.48458862 485.66543579 395.74032593 485.27719116 396.05053711 481.90151978" stroke-width="1.81595218" fill="rgb(196, 133, 91)" opacity="1.0" stroke="rgb(184, 127, 80)" stroke-opacity="0.92987055" stroke-linecap="round" stroke-linejoin="round"/>
    <path d="M 212.91494751 475.26696777 C 211.37669373 475.41189575 209.79254150 475.56976318 208.28587341 475.73248291 C 206.75028992 475.84765625 205.19433594 475.87814331 203.67871094 475.86715698 C 202.16355896 475.92071533 200.64985657 475.97140503 199.18002319 476.01638794 C 197.74378967 476.14703369 196.32225037 476.23211670 194.94882202 476.21276855 C 193.64567566 476.19131470 192.39456177 476.11251831 191.19161987 475.95346069 C 190.14254761 475.71633911 189.17506409 475.38409424 188.31370544 474.92343140 C 187.59005737 474.38549805 186.96022034 473.80596924 186.50065613 473.19918823 C 186.22030640 472.47839355 186.15153503 471.72479248 186.25906372 470.96365356 C 186.55458069 470.05450439 186.94985962 469.17434692 187.47474670 468.22946167 C 188.11499023 467.29870605 188.88247681 466.35589600 189.72309875 465.44494629 C 190.67001343 464.56777954 191.65312195 463.68963623 192.70726013 462.84640503 C 193.71813965 462.03884888 194.79133606 461.28936768 195.85888672 460.63952637 C 196.95751953 460.11953735 198.05499268 459.74096680 199.15077209 459.46859741 C 200.23953247 459.37448120 201.30383301 459.38049316 202.34391785 459.54727173 C 203.33677673 459.90487671 204.28977966 460.37475586 205.20396423 460.93267822 C 206.10243225 461.59408569 206.88873291 462.38409424 207.66438293 463.14495850 C 208.31785583 464.05404663 208.93531799 464.91156006 209.48303223 465.83172607 C 209.96354675 466.73178101 210.48983765 467.51046753 211.08120728 468.20745850 C 211.80479431 468.68856812 212.65113831 469.03274536 213.53225708 469.34063721 C 214.42234802 469.62011719 215.35491943 469.87799072 212.91494751 475.26696777" stroke-width="0.10000939" fill="rgb(194, 131, 89)" opacity="1.0" stroke="rgb(196, 147, 104)" stroke-opacity="0.42886835" stroke-linecap="round" stroke-linejoin="round"/>
    <path d="M 295.42605591 448.54040527 C 294.64566040 448.40151978 293.71539307 448.31683350 292.53488159 448.49295044 C 290.94137573 448.60317993 288.89801025 448.54067993 286.35067749 448.36441040 C 283.16564941 448.35830688 279.39715576 448.37667847 274.99438477 448.44393921 C 270.04421997 448.22784424 264.73596191 448.11734009 259.11190796 448.36199951 C 253.26612854 448.41604614 247.23356628 448.20471191 241.25326538 448.24307251 C 235.59191895 448.32464600 230.31315613 448.24243164 225.49172974 448.13211060 C 221.45086670 448.35812378 218.45114136 448.51217651 216.81625366 447.84945679 C 216.71345520 445.32702637 217.03860474 441.05178833 217.25112915 435.29754639 C 217.33949280 428.20480347 217.28250122 419.92059326 217.33624268 410.70529175 C 217.40046692 400.74966431 217.24047852 390.18392944 217.26567078 379.06649780 C 217.33316040 367.60507202 217.41049194 355.93493652 217.38243103 344.13079834 C 217.38374329 332.27783203 217.39178467 320.36102295 217.44598389 308.47552490 C 217.66258240 296.78890991 217.59252930 285.21820068 217.50761414 273.81915283 C 217.65354919 262.68630981 217.78599548 251.92755127 217.56257629 241.47663879 C 217.60882568 231.38026428 217.68191528 221.77934265 217.52328491 212.81439209 C 217.81077576 204.48468018 219.20074463 196.61811829 220.66062927 189.06762695 C 221.69328308 181.88739014 222.57559204 175.07891846 223.18656921 168.67861938 C 223.71160889 162.86602783 225.00552368 157.69667053 227.72799683 153.29457092 C 231.12738037 149.18797302 235.68571472 145.97262573 241.14353943 143.76776123 C 247.41418457 142.14190674 254.11958313 141.50520325 260.80105591 141.58621216 C 267.36437988 142.15739441 273.40460205 144.01274109 278.76330566 146.97558594 C 283.47955322 150.64239502 287.15551758 155.50834656 290.14767456 161.21932983 C 292.48126221 167.72111511 294.13742065 174.89248657 295.04843140 182.70852661 C 295.21792603 191.00981140 295.16543579 199.63397217 295.16479492 208.57759094 C 295.26556396 217.77001953 295.28408813 227.11549377 295.43222046 236.61192322 C 295.39038086 246.09149170 295.36682129 255.52395630 295.22885132 264.86962891 C 295.30017090 274.20986938 295.42703247 283.48171997 295.34945679 292.67037964 C 295.60726929 301.74700928 295.69543457 310.81100464 295.34228516 319.86627197 C 295.36190796 329.01821899 295.37203979 338.29754639 295.44686890 347.62493896 C 295.33129883 356.89855957 295.25680542 366.13613892 295.42605591 448.54040527" stroke-width="2.00000000" fill="rgb(38, 138, 68)" opacity="1.0" stroke="rgb(0, 57, 16)" stroke-opacity="0.9198766" stroke-linecap="round" stroke-linejoin="round"/>
    <path d="M 219.39506531 167.59164429 C 218.88343811 173.87915039 218.26696777 179.95059204 217.63076782 185.68162537 C 217.31739807 190.98069763 217.38183594 195.63874817 217.52926636 199.58630371 C 217.21710205 202.71472168 216.23896790 204.77902222 214.60252380 205.83450317 C 212.43083191 205.88148499 209.73989868 204.99494934 206.61930847 203.77922058 C 203.27690125 202.16220093 199.90095520 200.16961670 196.69085693 197.55302429 C 194.01370239 194.08872986 191.58947754 190.07225037 189.12930298 185.76802063 C 186.76922607 181.00604248 184.59445190 175.97798157 182.57910156 170.78695679 C 180.75222778 165.21359253 179.21600342 159.46392822 177.98303223 153.71463013 C 176.87507629 147.89741516 176.22340393 142.02709961 175.67034912 136.36784363 C 175.48968506 130.96588135 175.42375183 125.78078461 175.36408997 120.77615356 C 175.36019897 115.94387817 175.45803833 111.45586395 175.67337036 107.47128296 C 176.26924133 103.75118256 176.82189941 100.29882050 177.75930786 97.22037506 C 178.79415894 94.50445557 180.14886475 92.23211670 182.21997070 90.67467499 C 184.65747070 89.59035492 187.15336609 89.30266571 190.02435303 90.05397034 C 192.94146729 91.59704590 196.02565002 93.52164459 199.35650635 95.40042114 C 202.61373901 97.58171844 205.60108948 100.04286194 208.26350403 102.61287689 C 210.18705750 105.54804230 211.43302917 109.05277252 211.85902405 113.10599518 C 212.38415527 117.62792206 212.91191101 122.52563477 213.37307739 127.75933075 C 213.41566467 133.21575928 213.50886536 138.80398560 214.25035095 144.44880676 C 214.59700012 150.35229492 214.94468689 156.25288391 219.39506531 167.59164429" stroke-width="2.00000000" fill="rgb(42, 143, 67)" opacity="1.0" stroke="rgb(0, 56, 30)" stroke-opacity="0.9655508" stroke-linecap="round" stroke-linejoin="round"/>
    <path d="M 327.91540527 156.45704651 C 326.18984985 160.41004944 324.54425049 164.18925476 322.63418579 167.86874390 C 320.48040771 171.25148010 318.25863647 174.29902649 315.63720703 176.90423584 C 312.44476318 179.01181030 309.22821045 180.93708801 306.25875854 182.75665283 C 303.31121826 184.04649353 300.62741089 184.83094788 298.23919678 184.94638062 C 296.23242188 184.14703369 294.72579956 182.38439941 293.65438843 179.71133423 C 292.80093384 176.28526306 292.03634644 172.35588074 291.27752686 168.07319641 C 290.42556763 163.72232056 290.32113647 159.34565735 291.26480103 154.92584229 C 293.08319092 150.41940308 294.75277710 145.69331360 295.72946167 140.60116577 C 296.77075195 135.32943726 297.54061890 129.93608093 297.69763184 124.41053772 C 298.09970093 119.03499603 298.56277466 113.76379395 298.72702026 108.42800140 C 299.20043945 103.17869568 299.87420654 98.23793030 300.69689941 93.67443848 C 302.02890015 89.50873566 303.91824341 85.95951080 306.58618164 83.14266205 C 309.84286499 80.88385010 313.34432983 78.89472198 316.77221680 77.08058929 C 319.58972168 75.11386108 322.24273682 73.60672760 324.90185547 72.86260986 C 327.46197510 72.79397583 329.84921265 73.37329102 331.99084473 74.65107727 C 333.79223633 76.63385773 335.23568726 79.16793823 336.38333130 82.38707733 C 337.11938477 86.12436676 337.50949097 90.29178619 337.53097534 94.89292908 C 337.62487793 99.89242554 337.59423828 105.19921112 337.34234619 110.72504425 C 336.69070435 116.37422943 336.02200317 122.14863586 335.19912720 128.00917053 C 334.09423828 133.89183044 333.09884644 139.96052551 327.91540527 156.45704651" stroke-width="2.00000000" fill="rgb(43, 141, 68)" opacity="1.0" stroke="rgb(0, 62, 31)" stroke-opacity="0.97143906" stroke-linecap="round" stroke-linejoin="round"/>
    <path d="M 245.96949768 450.14797974 C 245.67224121 445.48291016 245.45852661 440.78552246 245.48147583 436.06173706 C 245.52104187 431.32986450 245.61767578 426.46655273 245.79348755 421.50872803 C 245.83296204 416.33285522 245.78347778 410.91476440 245.76493835 405.16506958 C 245.68661499 399.06289673 245.69189453 392.54293823 245.76486206 385.62023926 C 245.80416870 378.26153564 245.79113770 370.42907715 245.84729004 362.16033936 C 245.89576721 353.46923828 246.00784302 344.39117432 246.11976624 334.95907593 C 246.20158386 325.27505493 246.20907593 315.38610840 246.21601868 305.33374023 C 246.24404907 295.31027222 246.29370117 285.29281616 246.27883911 275.44802856 C 246.28517151 265.90130615 246.30168152 256.73953247 246.31854248 248.02833557 C 246.38949585 239.89201355 246.50418091 232.40942383 246.65461731 225.67343140 C 246.80381775 219.73851013 246.88194275 214.70541382 246.98464966 210.57861328 C 246.89849854 207.42976379 246.91403198 205.28160095 246.97621155 204.15763855 C 247.04121399 204.02769470 247.05766296 204.93566895 247.00967407 206.82080078 C 246.99627686 209.66836548 246.99430847 213.45687866 246.99107361 218.11079407 C 247.08758545 223.57098389 247.07302856 229.84906006 246.90455627 236.82859802 C 246.79945374 244.40159607 246.73564148 252.60516357 246.69728088 261.28808594 C 246.71221924 270.39633179 246.73147583 279.92514038 246.70213318 289.73672485 C 246.72744751 299.81170654 246.70184326 310.12747192 246.65550232 320.56985474 C 246.66435242 331.11697388 246.64619446 341.80764771 246.62660217 352.49084473 C 246.43118286 363.20812988 246.02024841 373.94644165 245.96949768 450.14797974" stroke-width="1.65181255" fill="rgb(5, 76, 37)" opacity="1.0" stroke="rgb(0, 60, 22)" stroke-opacity="0.6983899" stroke-linecap="round" stroke-linejoin="round"/>
    <path d="M 265.55838013 451.35211182 C 265.05810547 447.52239990 264.78024292 443.69897461 264.71792603 439.73992920 C 264.72131348 435.63311768 264.76968384 431.29852295 264.80844116 426.79772949 C 264.85485840 422.00991821 265.14053345 416.99429321 265.39974976 411.68469238 C 265.55654907 406.04324341 265.58428955 400.07513428 265.58163452 393.70535278 C 265.58242798 387.01287842 265.70294189 379.93646240 265.82843018 372.47479248 C 265.95352173 364.67932129 265.91644287 356.52505493 265.96136475 348.10842896 C 265.97204590 339.46810913 266.01065063 330.59451294 266.05874634 321.68096924 C 266.10116577 312.67523193 266.15432739 303.73538208 266.16711426 294.92953491 C 266.18020630 286.34298706 266.05191040 278.10766602 265.87454224 270.24514771 C 265.86123657 262.88677979 265.91485596 256.12527466 265.99371338 250.00648499 C 266.07919312 244.64237976 266.14874268 240.03726196 266.15502930 236.29379272 C 266.13079834 233.39575195 266.18838501 231.43322754 266.21743774 230.36592102 C 266.28414917 230.24670410 266.38101196 231.06787109 266.42761230 232.78038025 C 266.47113037 235.34754944 266.56842041 238.80216980 266.70065308 242.97738647 C 266.72897339 247.92854309 266.68750000 253.50997925 266.59976196 259.74792480 C 266.46978760 266.48532104 266.14749146 273.73718262 265.75497437 281.44976807 C 265.47473145 289.48995972 265.40774536 297.88305664 265.42044067 306.54739380 C 265.32464600 315.43719482 265.20269775 324.46130371 265.00564575 333.64343262 C 264.88534546 342.92007446 264.91580200 352.25296021 264.91326904 361.58605957 C 264.85589600 370.99588013 264.82379150 380.37057495 265.55838013 451.35211182" stroke-width="1.69012940" fill="rgb(5, 78, 34)" opacity="1.0" stroke="rgb(0, 40, 9)" stroke-opacity="0.55284405" stroke-linecap="round" stroke-linejoin="round"/>
    <path d="M 290.35437012 445.35723877 C 289.82852173 439.94110107 289.63046265 434.50442505 289.67083740 428.99725342 C 289.76391602 423.46481323 289.79330444 417.77996826 289.71893311 412.08694458 C 289.69186401 406.27816772 289.94372559 400.34432983 290.44888306 394.23440552 C 290.77136230 387.85690308 290.76489258 381.19210815 290.69683838 374.17230225 C 290.58718872 366.75717163 290.59683228 358.88961792 290.65054321 350.55636597 C 290.67373657 341.79980469 290.65847778 332.63854980 290.42401123 323.05825806 C 290.11965942 313.11553955 290.24377441 302.83062744 290.69610596 292.38073730 C 290.97848511 281.68969727 290.92053223 270.88449097 290.66256714 260.06826782 C 290.48132324 249.29954529 290.38870239 238.73216248 290.35797119 228.43745422 C 290.12625122 218.51315308 289.81036377 209.10057068 289.41464233 200.32897949 C 289.24084473 192.25294495 289.01586914 185.04992676 288.44082642 178.85168457 C 287.62918091 173.71017456 286.85000610 169.83416748 286.40756226 167.28617859 C 286.51800537 166.21475220 286.99609375 166.76527405 287.72293091 168.85815430 C 288.42156982 172.33496094 289.13534546 177.03454590 289.71853638 182.77578735 C 290.10494995 189.47424316 290.28918457 197.02925110 290.33645630 205.26104736 C 289.98895264 214.09634399 289.55789185 223.48886108 289.38510132 233.32102966 C 289.46563721 243.49441528 289.71316528 253.99949646 290.16168213 264.70947266 C 290.17477417 275.63400269 290.10406494 286.69577026 290.36624146 297.79498291 C 290.43579102 308.85250854 290.06399536 319.94708252 289.63909912 331.06527710 C 289.62945557 342.19375610 289.66278076 353.28713989 290.35437012 445.35723877" stroke-width="0.97209215" fill="rgb(158, 218, 132)" opacity="1.0" stroke="rgb(191, 194, 113)" stroke-opacity="0.4702569" stroke-linecap="round" stroke-linejoin="round"/>
    <path d="M 213.27418518 429.33221436 C 212.79548645 429.36791992 212.27201843 429.40655518 211.66825867 429.43560791 C 211.00430298 429.44723511 210.25074768 429.49911499 209.40162659 429.52954102 C 208.34819031 429.59259033 207.17379761 429.63473511 205.85015869 429.67523193 C 204.33163452 429.65264893 202.63140869 429.63531494 200.74111938 429.62530518 C 198.66926575 429.54333496 196.45396423 429.55258179 194.07345581 429.51074219 C 191.51046753 429.50534058 188.84552002 429.55328369 186.09690857 429.56552124 C 183.21667480 429.61431885 180.29426575 429.64465332 177.33946228 429.65594482 C 174.35269165 429.67321777 171.43197632 429.67007446 168.54966736 429.68438721 C 165.73843384 429.65789795 163.07984924 429.65219116 160.58973694 429.64669800 C 158.27543640 429.69564819 156.22433472 429.67999268 154.40122986 429.62606812 C 152.98785400 429.41769409 151.84806824 429.13824463 151.15121460 428.71914673 C 150.84214783 428.18801880 151.00466919 427.68334961 151.55676270 427.19256592 C 152.52102661 426.77670288 153.82304382 426.52276611 155.49388123 426.33251953 C 157.38844299 426.26763916 159.56756592 426.27114868 161.94766235 426.29656982 C 164.52835083 426.31961060 167.24926758 426.33590698 170.10510254 426.31484985 C 173.07144165 426.30841064 176.10704041 426.30661011 179.21632385 426.33142090 C 182.38444519 426.34005737 185.57470703 426.34030151 188.77374268 426.39166260 C 192.01606750 426.42413330 195.26724243 426.37655640 198.49954224 426.37817383 C 201.75091553 426.33813477 204.97369385 426.28982544 208.22157288 426.20806885 C 211.46585083 426.07260132 214.65194702 425.90863037 213.27418518 429.33221436" stroke-width="1.62935102" fill="rgb(218, 159, 79)" opacity="1.0" stroke="rgb(203, 139, 46)" stroke-opacity="0.40313232" stroke-linecap="round" stroke-linejoin="round"/>
    <path d="M 359.33999634 429.76553345 C 356.28466797 429.78991699 353.25180054 429.74090576 350.20700073 429.74633789 C 347.20742798 429.70547485 344.17767334 429.69662476 341.22781372 429.67703247 C 338.22494507 429.68792725 335.27740479 429.66851807 332.31781006 429.67294312 C 329.39224243 429.67858887 326.49853516 429.68997192 323.60763550 429.71356201 C 320.77822876 429.72744751 318.00735474 429.69424438 315.32507324 429.68438721 C 312.72900391 429.65765381 310.26336670 429.65637207 307.95407104 429.68420410 C 305.81893921 429.68347168 303.91137695 429.66464233 302.25320435 429.55554199 C 300.89273071 429.32144165 299.84384155 428.98162842 299.18838501 428.50613403 C 298.90612793 427.93948364 298.97671509 427.36203003 299.45739746 426.84094238 C 300.27297974 426.47064209 301.48275757 426.21585083 302.97653198 426.13861084 C 304.72311401 426.12918091 306.72543335 426.15322876 308.95693970 426.19458008 C 311.30032349 426.20782471 313.78189087 426.20828247 316.39102173 426.26135254 C 319.04724121 426.26416016 321.74606323 426.22552490 324.47665405 426.22366333 C 327.21063232 426.20715332 329.90237427 426.19989014 332.58438110 426.21423340 C 335.20874023 426.24380493 337.75115967 426.19589233 340.27392578 426.20556641 C 342.63906860 426.18237305 344.97909546 426.14645386 347.20425415 426.15679932 C 349.32705688 426.16915894 351.36682129 426.16342163 353.30261230 426.16427612 C 355.13235474 426.17181396 356.88912964 426.21755981 358.51245117 426.29421997 C 360.07266235 426.52838135 361.52023315 426.91824341 362.92196655 427.46987915 C 364.32040405 428.10293579 365.65335083 428.75845337 359.33999634 429.76553345" stroke-width="1.52395678" fill="rgb(215, 159, 78)" opacity="1.0" stroke="rgb(215, 157, 80)" stroke-opacity="0.6579249" stroke-linecap="round" stroke-linejoin="round"/>
    <path d="M 306.57598877 73.22744751 C 306.32192993 72.31537628 306.35226440 71.63553619 306.75128174 71.36473083 C 307.63369751 71.72306824 308.66088867 72.36700439 310.08416748 73.20308685 C 311.64001465 73.97185516 313.32751465 74.74718475 314.77239990 75.53536224 C 316.06384277 76.18589783 316.69952393 76.88632202 316.69522095 77.87689209 C 316.10034180 79.22727203 315.40408325 80.84596252 314.55929565 82.65260315 C 313.11428833 84.06549072 311.27648926 84.94702911 309.01071167 85.53660583 C 306.64178467 85.86265564 304.55374146 85.68570709 302.53475952 85.14109039 C 300.79290771 84.76576996 299.50137329 84.37853241 299.07839966 83.95343018 C 299.51315308 83.65338898 300.62564087 83.21743774 301.80908203 82.13403320 C 303.38357544 80.93424225 305.22167969 79.82833099 306.57598877 73.22744751" stroke-width="1.88015473" fill="rgb(240, 241, 173)" opacity="1.0" stroke="rgb(10, 45, 19)" stroke-opacity="0.89129794" stroke-linecap="round" stroke-linejoin="round"/>
    <path d="M 206.94461060 101.37895203 C 205.59068298 101.22644043 204.23828125 101.28182220 203.03479004 101.31787872 C 201.77871704 100.90298462 200.51661682 100.55305481 199.31228638 100.34188080 C 198.14671326 99.96742249 197.23802185 99.26572418 196.59794617 98.64537811 C 196.37199402 97.95490265 196.40466309 97.10939789 196.47630310 96.10018158 C 196.40122986 95.16140747 196.24357605 94.32494354 195.90628052 93.64819336 C 195.41044617 93.30672455 194.89433289 93.00077820 194.53746033 92.76878357 C 194.51477051 92.55787659 194.85057068 92.41746521 195.43067932 92.37812805 C 196.22348022 92.28589630 197.20115662 92.16316986 198.36497498 91.93044281 C 199.46171570 91.40591431 200.51637268 90.73851013 201.59100342 90.14321899 C 202.71484375 89.43594360 203.59292603 88.88119507 204.07862854 88.58433533 C 204.14190674 88.44979858 204.26509094 88.57826996 204.66397095 89.06330109 C 204.97854614 89.69413757 205.09780884 90.53892517 205.37780762 91.40648651 C 205.62971497 92.33396912 205.90560913 93.41231537 206.35986328 94.43443298 C 206.95896912 95.21547699 207.57305908 95.92098236 208.23010254 96.57984924 C 208.83413696 97.18604279 209.39894104 97.72106934 210.02261353 97.96322632 C 210.63047791 98.30822754 211.21105957 98.53325653 211.79646301 98.70330048 C 212.30158997 98.97850800 212.71490479 99.11740112 213.12689209 99.26021576 C 213.46058655 99.44855499 213.51850891 99.64569092 213.27729797 99.73593903 C 212.90733337 99.83071136 212.65852356 99.99907684 212.53552246 100.16721344 C 212.47190857 100.49525452 212.36601257 100.79498291 206.94461060 101.37895203" stroke-width="1.83943141" fill="rgb(239, 244, 171)" opacity="1.0" stroke="rgb(18, 55, 25)" stroke-opacity="0.9036209" stroke-linecap="round" stroke-linejoin="round"/>
    <path d="M 286.56564331 304.39382935 C 287.34646606 302.97485352 288.11846924 301.67196655 288.90643311 300.51849365 C 289.70846558 299.95483398 290.35458374 299.85592651 290.89096069 300.28018188 C 291.23483276 301.16781616 291.60186768 302.32638550 292.08184814 303.59814453 C 292.78561401 304.67752075 293.66394043 305.66131592 294.48095703 306.63345337 C 295.15634155 307.48840332 295.61932373 308.26858521 295.74545288 308.97036743 C 295.34475708 309.51470947 294.65631104 310.00988770 293.87362671 310.59527588 C 292.94033813 311.09286499 291.91195679 311.32492065 290.80236816 311.42550659 C 289.55715942 311.50326538 288.25909424 311.51159668 287.04663086 311.35720825 C 285.95104980 311.11303711 284.93640137 310.63723755 284.18261719 309.53027344 C 283.62792969 308.07852173 282.91735840 306.50180054 286.56564331 304.39382935" stroke-width="0.40586704" fill="rgb(241, 250, 174)" opacity="1.0" stroke="rgb(151, 113, 110)" stroke-opacity="0.73639375" stroke-linecap="round" stroke-linejoin="round"/>
    <path d="M 218.56585693 381.12686157 C 219.07424927 379.63082886 219.83230591 378.26235962 220.59889221 376.92330933 C 221.27238464 375.71926880 221.94300842 374.66983032 222.53654480 373.70230103 C 222.91816711 372.87991333 223.26924133 372.30932617 223.67204285 372.10482788 C 224.17283630 372.33337402 224.71464539 372.72204590 225.14349365 373.25885010 C 225.26065063 373.91366577 225.38536072 374.60409546 225.83067322 375.33090210 C 226.65367126 376.08184814 227.45118713 376.95434570 228.19978333 377.91296387 C 228.93528748 378.87536621 229.65681458 379.62948608 230.00416565 380.26702881 C 229.77549744 380.87658691 229.15666199 381.52264404 228.30210876 382.15643311 C 227.17410278 382.54321289 225.91879272 382.97384644 224.45153809 383.42971802 C 222.76441956 383.44558716 220.95291138 383.66790771 218.56585693 381.12686157" stroke-width="2.00000000" fill="rgb(238, 240, 181)" opacity="1.0" stroke="rgb(13, 17, 0)" stroke-opacity="0.5148926" stroke-linecap="round" stroke-linejoin="round"/>
    <path d="M 291.24456787 399.24670410 C 289.51040649 399.28973389 287.80093384 399.31622314 286.29898071 399.34530640 C 284.98999023 399.18939209 283.77157593 398.85818481 282.80398560 398.37725830 C 282.22302246 397.69735718 282.00375366 396.77441406 281.99496460 395.93945312 C 282.23468018 395.16519165 282.80599976 394.37515259 283.61752319 393.69998169 C 284.37741089 392.82601929 285.08090210 391.99255371 285.78985596 391.24591064 C 286.13214111 390.48440552 286.30172729 389.72717285 286.58239746 389.16772461 C 287.16278076 389.02529907 287.89715576 389.05819702 288.59793091 389.47402954 C 289.08551025 390.41677856 289.40377808 391.52740479 289.55328369 392.59542847 C 289.88241577 393.63275146 290.69641113 394.60940552 291.53994751 395.59182739 C 292.48281860 396.57852173 293.59567261 397.51687622 291.24456787 399.24670410" stroke-width="1.99141550" fill="rgb(238, 244, 202)" opacity="1.0" stroke="rgb(19, 26, 0)" stroke-opacity="0.54396045" stroke-linecap="round" stroke-linejoin="round"/>
    <path d="M 220.79591370 259.93466187 C 220.32006836 258.65838623 220.03854370 257.62777710 219.98236084 256.51092529 C 220.17399597 255.37117004 220.54817200 254.38752747 221.18942261 253.43296814 C 221.60324097 252.51564026 221.87326050 251.66535950 222.19641113 250.98548889 C 222.52708435 250.44351196 222.92013550 250.23429871 223.25926208 250.43251038 C 223.66229248 250.76803589 224.00094604 251.42059326 224.48764038 252.15705872 C 225.15516663 252.72908020 225.71896362 253.34397888 226.32272339 254.06005859 C 227.15859985 254.68728638 228.03633118 255.18565369 228.79461670 255.77906799 C 229.27674866 256.53091431 229.61698914 257.24221802 229.68029785 257.97805786 C 229.43684387 258.69451904 228.90750122 259.26528931 228.12005615 259.90713501 C 227.25892639 260.73040771 226.20062256 261.51486206 220.79591370 259.93466187" stroke-width="2.00000000" fill="rgb(230, 239, 160)" opacity="1.0" stroke="rgb(13, 25, 0)" stroke-opacity="0.54873604" stroke-linecap="round" stroke-linejoin="round"/>
    <path d="M 226.45565796 313.15127563 C 225.45091248 313.72583008 224.54263306 314.03088379 223.50007629 314.20153809 C 222.41479492 314.17974854 221.39459229 314.18975830 220.64387512 313.97290039 C 220.00080872 313.56604004 219.50427246 313.12643433 219.28684998 312.63989258 C 219.31674194 311.99786377 219.35592651 311.17767334 219.42214966 310.16552734 C 219.53367615 309.16186523 219.66786194 308.30807495 219.80519104 307.61453247 C 220.03619385 306.99502563 220.52795410 306.56286621 221.28121948 306.35202026 C 221.95841980 306.08331299 222.54075623 305.74368286 223.12402344 305.61190796 C 223.71177673 305.80737305 224.29258728 306.27615356 224.85864258 306.79385376 C 225.71972656 307.47085571 226.53781128 308.18164062 227.18479919 309.06619263 C 227.95054626 310.11932373 228.91700745 310.99090576 226.45565796 313.15127563" stroke-width="1.92363107" fill="rgb(237, 242, 165)" opacity="1.0" stroke="rgb(15, 30, 0)" stroke-opacity="0.57476723" stroke-linecap="round" stroke-linejoin="round"/>
    <path d="M 221.87387085 207.61750793 C 221.30644226 207.76861572 220.85974121 207.63430786 220.41818237 207.30731201 C 219.96211243 206.75241089 219.53982544 205.98173523 219.45863342 205.07286072 C 219.56320190 204.12684631 220.02250671 203.37303162 220.65301514 202.67932129 C 221.15672302 201.98167419 221.52014160 201.35009766 221.71147156 200.81954956 C 222.18511963 200.51501465 222.89575195 200.50349426 223.69084167 200.69284058 C 224.47518921 200.52189636 225.23094177 200.36080933 225.91075134 200.34246826 C 226.53631592 200.46720886 227.02360535 200.98754883 227.57797241 201.64498901 C 228.19755554 202.33247375 228.60960388 203.08164978 229.03356934 203.84692383 C 229.17175293 204.70587158 229.01745605 205.58647156 228.64103699 206.47869873 C 227.88484192 207.43872070 227.02160645 208.27606201 221.87387085 207.61750793" stroke-width="2.00000000" fill="rgb(240, 243, 184)" opacity="1.0" stroke="rgb(41, 38, 0)" stroke-opacity="0.60410255" stroke-linecap="round" stroke-linejoin="round"/>
    <path d="M 289.60546875 215.77972412 C 288.33230591 215.69781494 287.09790039 215.59346008 285.96743774 215.49485779 C 285.00338745 215.20518494 284.19647217 214.73526001 283.52331543 214.30606079 C 282.98226929 213.92729187 282.56140137 213.45166016 282.46438599 213.00294495 C 282.68490601 212.45237732 282.99243164 211.88613892 283.49490356 211.36976624 C 284.01574707 210.77272034 284.58023071 210.14326477 285.19036865 209.56207275 C 285.65551758 208.91705322 286.06143188 208.35299683 286.47717285 208.00117493 C 286.93307495 207.89112854 287.33978271 207.95713806 287.64898682 208.23664856 C 287.80465698 208.73820496 287.94961548 209.37298584 288.12188721 210.10630798 C 288.62570190 210.77569580 289.37326050 211.30123901 290.19595337 211.79118347 C 290.97219849 212.29148865 291.87036133 212.80499268 289.60546875 215.77972412" stroke-width="0.25700989" fill="rgb(238, 247, 183)" opacity="1.0" stroke="rgb(251, 163, 155)" stroke-opacity="0.4705199" stroke-linecap="round" stroke-linejoin="round"/>
    <path d="M 285.14221191 257.80834961 C 285.33520508 256.85314941 285.58273315 255.94689941 285.77706909 255.22689819 C 285.96005249 254.53318787 286.36560059 253.97064209 286.92321777 253.72953796 C 287.41162109 253.52503967 287.69448853 253.14469910 287.86386108 252.77484131 C 288.16784668 252.49563599 288.69592285 252.23483276 289.25631714 252.10217285 C 289.75436401 252.24449158 290.24200439 252.67984009 290.75671387 253.29884338 C 291.19125366 254.12040710 291.63772583 255.01112366 292.14215088 255.83668518 C 292.42233276 256.63119507 292.48709106 257.54357910 292.40234375 258.47998047 C 292.35531616 259.25845337 292.09048462 259.85650635 291.67340088 260.21417236 C 291.05734253 260.49697876 290.31695557 260.69311523 289.42749023 260.66085815 C 288.46130371 260.67358398 287.52770996 260.74490356 285.14221191 257.80834961" stroke-width="2.00000000" fill="rgb(233, 235, 174)" opacity="1.0" stroke="rgb(37, 33, 0)" stroke-opacity="0.50579566" stroke-linecap="round" stroke-linejoin="round"/>
    <path d="M 315.96359253 178.69607544 C 316.33294678 179.29504395 316.58874512 179.90928650 316.90109253 180.48373413 C 317.27276611 180.87190247 317.59396362 181.26138306 317.73101807 181.83276367 C 317.68783569 182.39720154 317.45892334 182.90423584 317.14526367 183.48515320 C 316.74206543 183.95529175 316.26644897 184.36347961 315.96026611 184.68940735 C 315.69799805 185.03295898 315.54507446 185.37429810 315.25988770 185.31651306 C 314.86862183 185.33268738 314.40307617 185.24003601 313.99517822 184.90560913 C 313.63180542 184.50814819 313.23388672 184.15847778 312.70571899 183.78585815 C 312.16696167 183.32698059 311.91363525 182.93789673 311.82107544 182.60484314 C 311.48638916 182.38850403 311.04077148 182.29711914 310.56823730 182.34959412 C 310.14886475 182.64584351 309.80551147 182.76478577 315.96359253 178.69607544" stroke-width="1.90024042" fill="rgb(236, 232, 190)" opacity="1.0" stroke="rgb(14, 32, 10)" stroke-opacity="0.7888375" stroke-linecap="round" stroke-linejoin="round"/>
    <path d="M 200.10621643 206.88653564 C 199.04660034 206.76423645 198.05529785 206.61608887 197.29614258 206.44132996 C 196.64738464 206.01591492 196.11947632 205.62399292 195.79106140 205.06665039 C 195.79183960 204.33650208 195.86964417 203.57003784 196.13453674 202.80024719 C 196.58450317 202.21154785 196.95451355 201.69042969 197.30078125 201.23008728 C 197.62200928 200.80831909 197.88517761 200.52732849 198.09516907 200.43209839 C 198.33384705 200.61849976 198.62245178 200.97817993 198.87748718 201.22526550 C 199.34539795 201.30987549 199.78874207 201.34262085 200.21937561 201.45571899 C 200.38398743 201.63391113 200.48721313 201.93487549 200.61534119 202.36868286 C 200.86395264 202.83343506 201.24732971 203.29101562 201.57723999 203.67892456 C 202.02247620 204.16958618 202.33358765 204.68704224 200.10621643 206.88653564" stroke-width="1.67783582" fill="rgb(236, 240, 178)" opacity="1.0" stroke="rgb(26, 60, 30)" stroke-opacity="0.8504202" stroke-linecap="round" stroke-linejoin="round"/>
    <path d="M 388.97250366 410.15933228 C 386.04272461 412.26156616 382.98803711 414.22171021 380.02273560 416.13323975 C 377.24826050 418.07736206 374.94860840 420.24847412 373.44323730 422.72857666 C 373.55429077 425.14373779 373.40832520 426.31137085 372.65512085 426.23138428 C 370.91870117 424.77853394 368.33987427 423.24694824 365.96902466 421.68850708 C 365.91821289 419.77328491 366.99826050 417.62036133 368.32611084 415.09524536 C 369.28155518 412.28680420 370.53939819 410.11160278 371.47213745 407.96127319 C 371.52282715 405.98300171 371.35238647 403.76095581 371.08261108 401.33309937 C 370.68255615 399.09570312 370.12423706 397.26303101 369.51940918 395.78082275 C 368.96469116 394.53466797 368.50430298 393.44512939 368.29406738 392.55227661 C 368.23886108 392.09329224 368.23165894 392.15411377 368.52633667 392.58129883 C 369.36334229 392.91494751 370.57180786 393.17895508 371.82351685 393.19262695 C 373.26004028 393.25964355 374.83755493 393.12649536 376.42129517 392.82321167 C 378.04937744 392.44274902 379.50277710 391.96694946 380.84289551 391.53808594 C 382.26358032 391.11441040 383.65551758 390.71453857 384.83828735 390.45217896 C 385.87457275 390.34280396 386.89151001 390.25427246 387.92669678 390.20993042 C 388.96289062 390.34866333 389.91006470 390.70336914 390.76242065 391.24765015 C 391.40499878 391.93936157 391.82290649 392.70336914 392.29409790 393.55786133 C 392.96942139 394.46926880 393.40625000 395.32705688 393.66369629 396.36822510 C 393.54003906 397.47479248 393.89410400 398.47430420 394.49197388 399.40371704 C 395.00259399 400.25875854 395.62887573 401.14257812 388.97250366 410.15933228" stroke-width="0.78052866" fill="rgb(119, 41, 9)" opacity="1.0" stroke="rgb(37, 18, 0)" stroke-opacity="0.80289567" stroke-linecap="round" stroke-linejoin="round"/>
    <path d="M 368.65536499 374.39517212 C 368.49288940 377.45687866 368.31457520 380.48095703 368.06219482 383.55938721 C 368.23733521 386.54190063 368.20669556 389.43875122 368.00863647 392.29971313 C 368.09692383 395.12960815 368.27273560 397.83572388 368.23431396 400.41494751 C 367.63766479 402.86129761 366.54559326 405.18389893 364.98559570 407.28424072 C 363.00451660 409.10498047 361.23226929 411.26931763 359.71817017 413.61016846 C 358.02389526 415.52548218 356.63552856 417.39321899 355.48822021 419.32830811 C 354.21356201 420.99514771 353.14813232 422.43399048 352.52862549 423.65945435 C 352.47720337 424.67065430 352.33169556 425.24850464 351.83325195 425.58728027 C 351.16616821 425.60409546 350.57604980 425.22445679 350.14721680 424.25790405 C 350.58966064 423.20126343 351.49130249 421.77529907 352.76681519 420.18603516 C 353.92233276 418.20098877 355.19042969 416.09924316 356.71719360 414.13616943 C 358.09597778 412.01257324 359.36065674 410.01165771 360.97109985 408.32107544 C 362.46072388 406.69580078 363.65188599 405.02545166 364.69342041 403.29235840 C 365.55136108 401.54071045 366.11328125 399.75152588 366.45465088 397.92199707 C 366.77777100 396.06570435 367.11328125 394.25958252 367.33734131 392.56439209 C 367.20056152 390.69729614 366.90472412 388.63299561 366.58410645 386.50399780 C 366.67346191 384.23071289 366.67153931 381.82797241 366.73147583 379.70217896 C 366.64111328 377.63726807 367.10485840 375.72531128 367.46844482 374.13034058 C 367.79296875 372.76080322 368.35183716 372.01541138 369.25701904 371.76040649 C 370.32971191 371.88687134 371.65637207 372.30068970 368.65536499 374.39517212" stroke-width="0.46483395" fill="rgb(37, 19, 2)" opacity="1.0" stroke="rgb(19, 13, 19)" stroke-opacity="0.51681936" stroke-linecap="round" stroke-linejoin="round"/>
    <path d="M 351.01242065 395.29147339 C 346.84689331 393.30813599 344.06085205 390.97622681 343.51135254 387.29943848 C 343.58749390 383.50451660 345.38293457 379.88906860 346.68505859 376.46273804 C 346.28744507 373.51934814 344.55722046 371.42977905 342.43469238 370.39251709 C 341.88137817 369.11630249 342.63269043 368.55303955 344.31539917 369.52688599 C 346.72937012 371.41918945 348.69662476 373.85699463 348.97393799 376.73126221 C 347.56860352 379.59521484 346.03671265 382.47067261 345.61468506 385.42565918 C 345.91653442 387.83416748 347.63366699 389.54330444 350.33746338 390.73184204 C 353.52175903 391.36563110 357.22280884 391.54351807 360.88613892 391.64807129 C 364.28912354 391.88131714 367.27804565 392.32083130 369.68557739 393.53488159 C 371.23602295 395.60369873 372.22692871 398.03326416 372.86550903 400.46395874 C 373.08889771 402.81903076 372.69049072 404.89187622 371.65710449 406.44537354 C 370.11819458 407.30755615 367.80404663 407.26736450 365.03973389 406.81469727 C 361.93395996 406.13037109 358.58383179 405.25711060 355.13180542 404.35858154 C 351.93844604 403.19998169 348.90298462 402.30108643 345.88427734 401.97784424 C 343.07531738 401.30413818 340.54644775 400.36364746 338.46713257 399.08151245 C 336.82821655 397.52563477 335.75808716 395.67233276 335.10580444 393.80651855 C 334.77090454 391.90676880 334.92639160 390.15939331 335.41601562 388.74737549 C 335.87164307 387.77087402 336.66241455 387.30709839 337.42022705 387.59970093 C 338.19219971 388.75445557 339.27365112 390.44049072 340.87078857 392.47650146 C 342.87738037 394.71643066 345.63201904 397.01086426 351.01242065 395.29147339" stroke-width="0.25818154" fill="rgb(105, 36, 5)" opacity="1.0" stroke="rgb(55, 37, 33)" stroke-opacity="0.5577064" stroke-linecap="round" stroke-linejoin="round"/>
    <path d="M 341.73321533 416.46398926 C 339.94137573 416.29107666 338.83242798 415.68029785 338.73132324 414.86837769 C 339.78628540 414.50244141 341.36328125 414.13626099 342.84924316 412.93161011 C 344.45550537 411.35296631 346.05664062 409.79708862 347.36318970 408.52352905 C 348.07647705 407.37097168 347.90280151 406.66839600 347.11093140 406.60192871 C 345.45651245 407.20358276 342.99499512 407.53280640 340.28781128 407.68200684 C 337.64349365 407.97686768 335.52145386 408.17333984 334.02908325 407.55422974 C 333.08715820 406.69882202 333.50225830 405.72393799 334.93081665 404.95516968 C 337.12689209 405.24768066 339.96160889 405.37881470 342.91955566 405.27902222 C 345.85842896 405.47451782 348.72235107 404.30026245 351.99591064 402.64672852 C 356.12026978 401.70169067 360.18658447 400.63351440 341.73321533 416.46398926" stroke-width="0.45220381" fill="rgb(53, 24, 8)" opacity="1.0" stroke="rgb(13, 9, 15)" stroke-opacity="0.5307005" stroke-linecap="round" stroke-linejoin="round"/>
    <path d="M 391.27264404 394.24432373 C 388.28384399 394.14175415 385.30383301 394.08493042 382.48831177 394.09674072 C 380.10717773 394.22439575 378.31619263 394.40594482 377.03259277 394.28897095 C 376.19107056 393.66592407 376.00900269 392.65597534 375.99700928 391.42678833 C 375.78076172 390.01480103 375.38656616 388.51162720 375.14459229 387.15393066 C 374.91412354 386.18695068 374.65814209 385.83654785 374.41174316 386.04595947 C 374.49917603 386.82675171 374.43688965 387.97015381 374.23391724 389.25524902 C 374.42846680 390.59802246 374.75677490 391.81970215 375.08187866 392.86776733 C 375.36087036 393.60522461 375.29330444 394.02392578 374.87387085 394.16165161 C 374.24047852 394.15505981 373.51934814 393.84265137 372.89770508 393.06246948 C 372.64367676 391.88330078 372.44784546 390.30050659 372.46295166 388.58993530 C 372.32214355 386.85745239 372.54501343 385.18927002 372.71746826 383.74890137 C 373.57037354 382.91699219 373.63854980 382.00323486 373.76004028 380.65322876 C 374.67907715 379.61172485 375.75765991 378.42236328 376.81158447 377.09246826 C 378.16586304 375.75674438 379.56628418 374.64865112 380.52529907 373.45672607 C 381.37524414 372.55288696 382.06991577 371.77093506 382.34811401 370.81979370 C 382.47631836 370.14129639 382.50256348 369.51651001 382.79647827 369.22021484 C 383.39047241 369.26220703 384.19186401 369.64978027 385.11193848 370.09671021 C 386.37033081 370.33905029 387.72558594 370.78588867 389.15228271 371.38897705 C 390.59304810 372.04522705 391.94924927 373.10482788 393.20172119 374.39413452 C 394.47750854 375.71731567 395.86868286 376.98989868 391.27264404 394.24432373" stroke-width="0.00000000" fill="rgb(45, 21, 8)" opacity="1.0" stroke="rgb(79, 54, 42)" stroke-opacity="0.70280033" stroke-linecap="round" stroke-linejoin="round"/>
    <path d="M 374.91928101 384.82269287 C 375.97894287 381.72521973 377.51287842 379.27093506 379.77633667 377.57232666 C 381.43920898 375.55007935 382.72796631 373.52868652 384.13311768 372.06448364 C 384.97970581 370.79553223 385.41107178 369.94302368 385.81442261 369.75732422 C 386.42282104 370.13839722 387.14160156 370.65155029 388.04571533 371.16571045 C 388.81921387 371.45977783 389.63211060 371.55578613 390.37091064 371.65136719 C 390.86172485 371.77957153 391.00067139 372.09457397 390.62097168 372.56872559 C 389.70355225 373.07662964 388.73046875 374.10470581 387.28073120 375.24179077 C 385.56063843 376.66183472 383.71389771 378.19003296 381.78302002 380.02938843 C 380.06420898 382.43872070 378.48733521 385.12933350 377.81713867 388.33496094 C 377.24517822 391.78298950 376.06484985 395.38607788 374.91928101 384.82269287" stroke-width="0.45620623" fill="rgb(239, 198, 152)" opacity="1.0" stroke="rgb(234, 201, 168)" stroke-opacity="0.5786752" stroke-linecap="round" stroke-linejoin="round"/>
    <path d="M 382.40634155 384.48852539 C 383.71096802 382.48852539 384.82025146 380.68682861 386.48117065 379.26492310 C 388.06439209 377.81237793 389.48953247 376.48678589 390.78704834 375.29522705 C 392.07702637 374.38543701 392.88626099 374.06069946 393.66531372 374.45596313 C 394.26809692 375.32980347 394.60702515 376.44277954 394.45489502 377.34600830 C 393.90878296 377.73019409 393.32580566 377.41806030 392.68005371 377.18881226 C 392.02749634 378.16357422 391.17187500 379.53866577 389.99731445 381.19317627 C 388.76150513 382.93414307 387.46520996 384.74066162 386.17785645 386.38879395 C 385.60147095 388.18710327 384.77343750 389.62820435 383.96173096 390.76873779 C 383.25454712 391.72183228 382.68716431 392.31994629 381.74923706 392.23611450 C 380.51559448 391.88674927 379.12036133 391.37771606 382.40634155 384.48852539" stroke-width="0.28852552" fill="rgb(238, 206, 161)" opacity="1.0" stroke="rgb(229, 216, 174)" stroke-opacity="0.41782057" stroke-linecap="round" stroke-linejoin="round"/>
    <path d="M 393.12509155 380.71392822 C 394.22961426 380.51205444 395.15353394 380.25723267 396.00292969 380.05883789 C 396.77340698 380.04995728 397.50140381 380.15200806 398.22625732 380.33023071 C 398.85540771 380.63708496 399.36837769 381.04003906 399.79922485 381.49771118 C 400.23284912 382.00442505 400.66406250 382.59069824 400.93640137 383.28149414 C 400.97833252 384.03485107 400.85409546 384.80160522 400.67742920 385.62081909 C 400.41525269 386.54861450 400.04641724 387.51840210 399.52459717 388.49121094 C 398.81542969 389.39743042 397.98498535 390.16949463 397.05972290 390.86459351 C 396.06399536 391.52453613 394.98361206 392.09677124 393.76086426 392.43734741 C 392.32287598 392.51464844 390.87387085 392.13729858 389.35171509 391.57485962 C 387.61285400 391.54641724 385.51242065 391.08493042 393.12509155 380.71392822" stroke-width="0.31731361" fill="rgb(230, 186, 134)" opacity="1.0" stroke="rgb(220, 183, 145)" stroke-opacity="0.70274645" stroke-linecap="round" stroke-linejoin="round"/>
    <path d="M 374.43026733 422.85202026 C 374.67031860 424.06054688 374.80841064 424.99847412 374.62188721 425.62365723 C 374.17074585 425.82675171 373.43408203 425.71896362 372.81988525 424.93350220 C 372.31317139 423.88870239 371.28128052 423.11364746 370.01889038 422.72711182 C 368.98257446 422.38394165 368.50186157 421.60079956 368.30767822 420.77093506 C 368.10766602 419.96292114 368.04266357 419.40493774 367.95971680 418.80209351 C 367.86160278 418.32708740 368.05044556 417.94314575 368.42935181 417.50152588 C 369.01187134 417.03594971 369.73400879 416.60729980 370.74914551 416.30468750 C 371.96237183 416.19039917 373.37744141 416.15963745 375.00036621 416.16842651 C 376.76568604 416.17214966 378.45803833 416.03729248 380.05444336 415.80661011 C 381.73187256 415.52914429 383.55084229 415.11514282 374.43026733 422.85202026" stroke-width="2.00000000" fill="rgb(255, 226, 179)" opacity="1.0" stroke="rgb(0, 78, 142)" stroke-opacity="0.110918365" stroke-linecap="round" stroke-linejoin="round"/>
    <path d="M 377.28350830 407.53390503 C 378.88543701 407.44500732 380.52502441 407.11523438 381.98083496 407.16894531 C 383.39843750 408.40219116 384.79782104 410.26226807 386.12084961 412.34197998 C 387.26910400 414.29608154 388.34692383 415.84097290 389.33819580 416.68658447 C 390.36666870 416.04205322 391.56619263 415.61859131 393.18981934 415.83602905 C 395.04034424 415.41961670 397.03186035 415.46847534 399.02206421 415.15048218 C 401.21713257 415.36752319 403.12240601 415.16656494 404.83908081 414.71289062 C 406.41281128 414.71261597 407.72900391 414.56817627 408.50875854 414.49291992 C 408.95599365 415.23709106 408.88534546 416.04016113 407.71328735 416.74749756 C 406.29577637 417.11734009 404.87890625 417.53863525 403.35369873 418.09567261 C 401.78851318 418.72076416 400.38293457 419.49337769 399.28250122 420.47280884 C 398.18646240 420.55596924 396.76095581 420.38400269 395.10537720 420.13583374 C 393.20385742 420.09725952 391.30422974 420.23989868 389.70214844 419.83004761 C 388.46136475 419.25714111 387.56018066 419.64920044 386.66143799 419.99673462 C 385.17391968 419.45816040 383.42282104 419.14108276 381.45962524 419.01220703 C 379.97610474 418.09011841 378.67379761 417.15917969 377.21905518 417.49423218 C 375.07122803 417.51129150 372.86108398 417.48843384 370.95324707 417.63693237 C 369.35818481 417.51895142 368.62832642 417.36404419 368.89385986 417.22589111 C 369.96170044 416.86148071 370.52178955 415.51239014 370.61175537 413.37631226 C 371.53048706 411.66378784 372.68453979 410.31604004 373.61795044 408.90734863 C 373.81817627 407.80297852 373.70080566 407.08117676 377.28350830 407.53390503" stroke-width="2.00000000" fill="rgb(224, 192, 146)" opacity="1.0" stroke="rgb(8, 0, 0)" stroke-opacity="0.7744212" stroke-linecap="round" stroke-linejoin="round"/>
    <path d="M 382.49887085 413.03335571 C 381.75918579 414.54006958 381.14953613 416.18267822 381.13375854 417.63385010 C 381.31393433 418.75430298 381.11938477 419.54998779 380.68374634 419.87078857 C 379.98342896 419.53588867 379.17483521 418.82595825 378.61248779 417.90792847 C 378.53842163 416.65551758 379.07998657 415.15524292 379.72335815 413.52639771 C 380.41256714 411.73992920 381.15087891 409.99258423 381.88562012 408.40054321 C 382.95800781 407.29583740 384.59384155 406.53387451 386.37353516 405.90722656 C 388.13427734 405.41720581 389.80722046 405.42565918 391.19656372 405.75051880 C 391.96591187 406.24343872 391.85858154 406.88827515 391.12860107 407.85534668 C 390.37112427 409.48480225 389.48007202 411.53317261 388.96295166 413.59124756 C 389.06967163 415.73846436 389.42639160 417.97894287 382.49887085 413.03335571" stroke-width="0.41685036" fill="rgb(45, 26, 20)" opacity="1.0" stroke="rgb(0, 0, 0)" stroke-opacity="0.466239" stroke-linecap="round" stroke-linejoin="round"/>
    <path d="M 385.72344971 410.15698242 C 384.81317139 412.34658813 384.50570679 414.48950195 384.69427490 416.30358887 C 385.60366821 417.32214355 387.26498413 417.79025269 389.51171875 418.04299927 C 391.97241211 418.02130127 394.76416016 417.60992432 397.69363403 417.41305542 C 400.66476440 417.42141724 403.43173218 417.45477295 405.73297119 417.28958130 C 407.31680298 417.14715576 408.09600830 417.20733643 408.02505493 417.69345093 C 407.03652954 418.35293579 405.46176147 419.14508057 403.65631104 419.65115356 C 401.77554321 419.37625122 399.73989868 418.72988892 397.57919312 418.25039673 C 395.21359253 418.20657349 392.88153076 418.21435547 390.75125122 418.27249146 C 388.72949219 418.00469971 386.92510986 417.43295288 385.26885986 417.22213745 C 383.71276855 417.31542969 382.17660522 417.56393433 385.72344971 410.15698242" stroke-width="1.39354014" fill="rgb(233, 188, 135)" opacity="1.0" stroke="rgb(236, 208, 166)" stroke-opacity="1.0" stroke-linecap="round" stroke-linejoin="round"/>
    <path d="M 393.39324951 400.10223389 C 395.73553467 400.43698120 397.98175049 400.07571411 400.08959961 398.95639038 C 402.20773315 397.70126343 404.09640503 396.32186890 406.18905640 394.92343140 C 408.06506348 393.22512817 409.99508667 391.46081543 412.02770996 389.57434082 C 413.92379761 387.44470215 415.85870361 385.26412964 417.86465454 383.27258301 C 419.60525513 381.15252686 421.30090332 379.06448364 423.08639526 376.79476929 C 424.94836426 374.05160522 426.85778809 371.01000977 429.13818359 367.85397339 C 431.42214966 364.65280151 433.05920410 361.09399414 434.33648682 357.66232300 C 435.34820557 354.84738159 435.01907349 353.49658203 432.93124390 353.34399414 C 430.95513916 353.62368774 430.14889526 353.35433960 430.52935791 351.64987183 C 431.28353882 349.50613403 432.69097900 348.93112183 434.53170776 350.11370850 C 435.64114380 352.33706665 435.49319458 355.74188232 434.87145996 359.79440308 C 433.62756348 363.89669800 431.96054077 367.74707031 430.54519653 371.44290161 C 429.05718994 374.75515747 427.54589844 377.62622070 425.98443604 380.04788208 C 424.38381958 382.34436035 422.79647827 384.54949951 420.94622803 386.71609497 C 418.95538330 388.80841064 416.96249390 390.98129272 414.83245850 392.94650269 C 412.73989868 394.72314453 410.66888428 396.54168701 408.69543457 398.22686768 C 406.61471558 399.67147827 404.51452637 400.97866821 402.30493164 402.11038208 C 400.06515503 403.28262329 397.73522949 404.28393555 395.39227295 405.16900635 C 393.02416992 405.79464722 390.55032349 406.40521240 388.00234985 407.52853394 C 385.58468628 408.79296875 383.55108643 410.01736450 393.39324951 400.10223389" stroke-width="0.43134236" fill="rgb(95, 40, 8)" opacity="1.0" stroke="rgb(160, 112, 74)" stroke-opacity="1.0" stroke-linecap="round" stroke-linejoin="round"/>
  </g>
</svg>
