<?xml version="1.0" ?>
<svg xmlns="http://www.w3.org/2000/svg" version="1.1" width="512" height="512" viewBox="0 0 512 512">
  <defs/>
    <path d="M 384.37124634 393.60818481 C 385.52087402 399.58697510 386.59118652 405.30279541 387.01025391 410.88613892 C 387.23721313 416.33398438 387.28268433 421.57476807 381.05267334 423.66983032 C 374.84085083 425.73471069 368.65899658 427.04782104 362.69534302 427.43283081 C 357.12814331 426.53839111 352.11245728 425.24868774 347.97314453 423.68994141 C 345.13293457 421.52288818 343.67886353 418.33398438 343.04989624 414.15643311 C 342.69003296 409.20660400 342.44775391 403.63870239 342.38281250 397.59072876 C 342.54006958 391.20108032 342.39886475 384.59207153 341.71224976 377.85559082 C 341.33758545 371.01797485 341.35098267 364.12081909 341.70724487 357.21545410 C 342.39230347 350.35159302 343.39938354 343.57614136 344.72088623 336.93496704 C 346.34802246 330.47067261 348.27020264 324.22183228 350.47406006 318.22329712 C 352.94247437 312.50479126 355.65512085 307.09082031 358.58914185 302.00131226 C 361.71929932 297.25210571 365.01889038 292.85565186 368.45989990 288.82250977 C 372.01409912 285.16226196 375.65277100 281.88476562 379.34542847 278.99917603 C 383.05923462 276.51202393 386.75015259 274.41549683 390.35552979 272.67395020 C 389.84667969 278.35766602 389.23883057 284.29129028 388.46963501 290.42813110 C 387.71884155 296.76110840 386.98748779 303.26983643 386.34027100 309.94039917 C 386.01275635 316.77932739 385.43350220 323.73345947 384.89276123 330.80780029 C 384.45770264 337.97921753 384.09429932 345.20715332 383.75189209 352.44909668 C 383.40151978 359.65744019 383.21276855 366.79312134 383.18081665 373.80938721 C 383.23855591 380.65670776 383.65368652 387.27111816 384.37124634 393.60818481" stroke-width="0.75668806" fill="rgb(125, 124, 122)" opacity="1.0" stroke="rgb(124, 121, 117)" stroke-opacity="0.12898237" stroke-linecap="round" stroke-linejoin="round"/>
  <g>
    <path d="M 331.49014282 330.64697266 C 333.59063721 334.84500122 335.02645874 339.58197021 335.88418579 344.79586792 C 336.24792480 350.42703247 336.20147705 356.41726685 335.82962036 362.70977783 C 335.21722412 369.24935913 334.44931030 375.98245239 333.61123657 382.85714722 C 332.78710938 389.82312012 332.05178833 396.83071899 331.44515991 403.82901001 C 331.03823853 410.77197266 331.03726196 417.63421631 331.41113281 424.37847900 C 332.17807007 430.96359253 333.36306763 437.33908081 334.64132690 443.51556396 C 335.95605469 449.42993164 337.23117065 455.06448364 332.45458984 457.42385864 C 327.63067627 459.78756714 322.71475220 461.56805420 317.64495850 462.23468018 C 312.48092651 461.83074951 307.40524292 461.33877563 302.68496704 460.74301147 C 298.67562866 459.19750977 295.03085327 456.90588379 293.74969482 451.38992310 C 293.02124023 445.88525391 292.83377075 440.35015869 292.83905029 434.77331543 C 292.77511597 429.15267944 292.74423218 423.48956299 292.41067505 417.77896118 C 292.24145508 411.99426270 292.26721191 406.12976074 292.26794434 400.18704224 C 292.40185547 394.16946411 292.65200806 388.05993652 292.88464355 381.83840942 C 292.94866943 375.48544312 293.36434937 368.99560547 293.70559692 362.33721924 C 294.00421143 355.51245117 294.50567627 348.55102539 295.59353638 341.50479126 C 297.34320068 334.35144043 298.66857910 327.01696777 299.62359619 319.68173218 C 300.45596313 312.57238770 304.60562134 313.67514038 308.89895630 315.05773926 C 313.21972656 316.73181152 317.45196533 318.74679565 321.48416138 321.14724731 C 325.24356079 323.91220093 328.63168335 327.05368042 331.49014282 330.64697266" stroke-width="0.56800705" fill="rgb(123, 123, 120)" opacity="1.0" stroke="rgb(2, 0, 0)" stroke-opacity="0.32860556" stroke-linecap="round" stroke-linejoin="round"/>
    <path d="M 238.54411316 447.92160034 C 239.92060852 452.21411133 240.36857605 456.27255249 239.69496155 460.15142822 C 238.39949036 463.89611816 231.72914124 465.41201782 225.43096924 467.05450439 C 219.79653931 467.45745850 214.75173950 466.94952393 210.42619324 465.72921753 C 206.85304260 463.48266602 204.13961792 460.16354370 202.05563354 456.01696777 C 200.37246704 451.40051270 199.20254517 446.30902100 198.21060181 440.87915039 C 197.25024414 435.22213745 196.66387939 429.34017944 196.28680420 423.28665161 C 195.97232056 417.13305664 195.92512512 410.90365601 195.86763000 404.64089966 C 195.97029114 398.38442993 196.22811890 392.18280029 196.63722229 386.07608032 C 197.12063599 380.10415649 197.66944885 374.29345703 198.16807556 368.65866089 C 198.78486633 363.23837280 199.42994690 358.03677368 200.05854797 353.05294800 C 200.90121460 348.31713867 201.64945984 343.78491211 202.14524841 339.42868042 C 202.77714539 335.29937744 203.63555908 331.39550781 209.25904846 332.45669556 C 215.02029419 333.67968750 220.86000061 335.03189087 226.71333313 336.50369263 C 232.51168823 338.10266113 238.17544556 339.87286377 243.62747192 341.85482788 C 242.74975586 347.67932129 241.62393188 353.61889648 240.38296509 359.65185547 C 239.36798096 365.79818726 238.57681274 372.03884888 237.68261719 378.30014038 C 236.84254456 384.57141113 236.25518799 390.86523438 235.51808167 397.11398315 C 234.92451477 403.32153320 234.47079468 409.47998047 234.12882996 415.56539917 C 234.02911377 421.57073975 233.97528076 427.40267944 234.52093506 433.00616455 C 235.33049011 438.36459351 236.79434204 443.32876587 238.54411316 447.92160034" stroke-width="0.46729717" fill="rgb(124, 124, 122)" opacity="1.0" stroke="rgb(89, 88, 86)" stroke-opacity="0.26456687" stroke-linecap="round" stroke-linejoin="round"/>
    <path d="M 177.40924072 406.10705566 C 178.07055664 410.51843262 178.31741333 414.60763550 178.05690002 418.37606812 C 177.42576599 421.80868530 172.67669678 423.72543335 168.14700317 425.68875122 C 163.88909912 427.07836914 159.64161682 427.26181030 155.39398193 426.44726562 C 151.14749146 424.90597534 146.88658142 423.53536987 143.01785278 422.01571655 C 140.13745117 419.47268677 138.19694519 415.85086060 136.81390381 411.39218140 C 135.56764221 406.38433838 135.09912109 400.79373169 135.22988892 394.66290283 C 135.43812561 388.11358643 135.76541138 381.28121948 136.48234558 374.29818726 C 136.96662903 367.21365356 137.62709045 360.16131592 138.44572449 353.22607422 C 139.14216614 346.47470093 139.53114319 339.96041870 139.90376282 333.78131104 C 140.42140198 328.02456665 140.74467468 322.75408936 140.77540588 318.04681396 C 140.78840637 313.99160767 140.98591614 310.68719482 141.70605469 308.24768066 C 143.38467407 306.77694702 145.87428284 306.15911865 149.02471924 306.27539062 C 152.68554688 307.01129150 156.70295715 308.27188110 160.91981506 309.97399902 C 165.17567444 312.04605103 169.29928589 314.44006348 173.11346436 317.11831665 C 176.43431091 320.05410767 179.06039429 323.24282837 180.78239441 326.68725586 C 181.38298035 330.39672852 180.78080750 334.40744019 179.39744568 338.82318115 C 178.17077637 343.81085205 177.20774841 349.27728271 176.40011597 355.08181763 C 175.74995422 361.09558105 175.20903015 367.21453857 174.80296326 373.34490967 C 174.73782349 379.40820312 174.80699158 385.31719971 175.02316284 390.99014282 C 175.69445801 396.33856201 176.59877014 401.37167358 177.40924072 406.10705566" stroke-width="0.74124408" fill="rgb(124, 123, 121)" opacity="1.0" stroke="rgb(123, 120, 120)" stroke-opacity="0.1250014" stroke-linecap="round" stroke-linejoin="round"/>
    <path d="M 367.82867432 280.07351685 C 366.09802246 289.73114014 363.06829834 298.88684082 358.73858643 307.37866211 C 353.11593628 315.04037476 346.21627808 321.70327759 338.06509399 327.20126343 C 328.69729614 331.37231445 318.29415894 334.42355347 307.15835571 336.86895752 C 295.62759399 339.30642700 283.88140869 341.28237915 271.80044556 341.38525391 C 259.42135620 342.01776123 246.82725525 341.36764526 233.95864868 340.11761475 C 220.87319946 339.72012329 207.90190125 338.80441284 195.33459473 336.33367920 C 183.32032776 332.40130615 171.72708130 327.86743164 160.72866821 322.99505615 C 150.81105042 317.27398682 142.51167297 310.02999878 136.01248169 300.89566040 C 129.29124451 291.37155151 123.70970917 281.35089111 120.71616364 270.45803833 C 119.26844788 259.33581543 119.60439301 248.47409058 122.61611938 238.10499573 C 125.75730896 227.68557739 131.15339661 218.44682312 138.13574219 209.93205261 C 145.08732605 201.75585938 153.68258667 195.21142578 162.89122009 189.17927551 C 172.56900024 183.84965515 182.74639893 179.33000183 193.48246765 175.91751099 C 204.58981323 172.68395996 216.02636719 170.25582886 227.92622375 169.01834106 C 239.98010254 167.39129639 252.21728516 166.98603821 264.46902466 167.11705017 C 276.46844482 168.66726685 288.12130737 171.54006958 299.33081055 175.63093567 C 310.00100708 180.83421326 320.03695679 187.04476929 329.34591675 194.15708923 C 337.83892822 202.06488037 345.43197632 210.65974426 352.04736328 219.82992554 C 357.61410522 229.45928955 362.06912231 239.42674255 365.35836792 249.60603333 C 367.43685913 259.86566162 368.26910400 270.06890869 367.82867432 280.07351685" stroke-width="1.80891728" fill="rgb(129, 129, 127)" opacity="1.0" stroke="rgb(18, 19, 17)" stroke-opacity="0.7662667" stroke-linecap="round" stroke-linejoin="round"/>
    <path d="M 439.16671753 246.86763000 C 435.48175049 251.99302673 431.85525513 256.78906250 426.91058350 260.23962402 C 420.08969116 262.54214478 412.74829102 265.92614746 405.14483643 270.40011597 C 396.39233398 273.42630005 386.85714722 275.35656738 376.90563965 276.52340698 C 366.87301636 276.99627686 357.05899048 276.67242432 347.76455688 275.42700195 C 339.31838989 272.89108276 331.74166870 269.58996582 325.29373169 265.43707275 C 320.34729004 260.04644775 316.40142822 253.87994385 313.14483643 247.24603271 C 310.25701904 240.43492126 308.56158447 233.17788696 308.06234741 225.36811829 C 308.02694702 217.10600281 308.19845581 208.51519775 308.57421875 199.72192383 C 309.26190186 190.85336304 310.34091187 182.03428650 311.93875122 173.39614868 C 314.16912842 165.06675720 317.09057617 157.16491699 320.70913696 149.78701782 C 324.88998413 142.97465515 329.60986328 136.93986511 335.04455566 131.90197754 C 340.33709717 127.24073029 346.73284912 124.11757660 353.63555908 121.33624268 C 360.76940918 118.88124084 368.25622559 117.63256073 376.10348511 117.36229706 C 384.06683350 116.96977997 392.04876709 117.71747589 400.01324463 119.51867676 C 407.92245483 121.76693726 415.29290771 125.14501953 421.99478149 130.00778198 C 428.51937866 135.39308167 434.10528564 141.75027466 438.73052979 149.15390015 C 442.65441895 157.13804626 445.61056519 165.70722961 447.70321655 174.70956421 C 449.12689209 183.94993591 449.96582031 193.25205994 450.25000000 202.44515991 C 449.95263672 211.36201477 448.99200439 219.84564209 447.46081543 227.75433350 C 445.29672241 234.90599060 442.63610840 241.31153870 439.16671753 246.86763000" stroke-width="1.79740036" fill="rgb(128, 127, 126)" opacity="1.0" stroke="rgb(59, 59, 57)" stroke-opacity="0.9205943" stroke-linecap="round" stroke-linejoin="round"/>
    <path d="M 310.84277344 178.96185303 C 310.27069092 183.76666260 309.72360229 188.60836792 309.16394043 193.44454956 C 308.44015503 198.21926880 307.73327637 202.91459656 307.09408569 207.49346924 C 306.60848999 211.92349243 306.39938354 216.19720459 306.34631348 220.28643799 C 306.29586792 224.15859985 306.08413696 227.80947876 301.18212891 228.40539551 C 296.27743530 229.00088501 291.52664185 229.14486694 287.05892944 228.38549805 C 282.98886108 226.56343079 279.33657837 223.83438110 275.91052246 220.68063354 C 272.37738037 217.79629517 268.61184692 215.58917236 264.67831421 214.14865112 C 260.83804321 213.20187378 262.01428223 210.26336670 263.10421753 206.95701599 C 263.95059204 203.23110962 264.59896851 199.15142822 265.11431885 194.78396606 C 265.57287598 190.19963074 265.86193848 185.44197083 266.02755737 180.56643677 C 266.15359497 175.63336182 266.37683105 170.70565796 266.87689209 165.84295654 C 267.64990234 161.09165955 268.84509277 156.52728271 270.42077637 152.17041016 C 272.15017700 148.00134277 274.09051514 144.13377380 276.52645874 140.72824097 C 279.18521118 137.63758850 282.27587891 135.28634644 285.78692627 133.78111267 C 289.35577393 132.84080505 293.14770508 132.97015381 297.13986206 133.49035645 C 301.12210083 134.51557922 304.91134644 136.22030640 308.53561401 138.29634094 C 311.75061035 140.80061340 314.80371094 143.25878906 317.90151978 145.26371765 C 320.87298584 146.90838623 318.96813965 149.92871094 317.15731812 153.25650024 C 315.64031982 156.96110535 314.34136963 160.96984863 313.18798828 165.21087646 C 312.17605591 169.63298035 311.42529297 174.23100281 310.84277344 178.96185303" stroke-width="1.69531775" fill="rgb(119, 111, 101)" opacity="1.0" stroke="rgb(70, 66, 61)" stroke-opacity="0.9984954" stroke-linecap="round" stroke-linejoin="round"/>
    <path d="M 492.24063110 164.87521362 C 493.13800049 170.05346680 493.61187744 175.32485962 493.75192261 180.64854431 C 494.17938232 185.91366577 494.64443970 191.03755188 494.97189331 195.93424988 C 495.63327026 200.46630859 496.58297729 204.61151123 497.75997925 208.36340332 C 498.71752930 211.81613159 500.05334473 214.72640991 496.87234497 214.59365845 C 493.39016724 215.28746033 489.82611084 216.85859680 486.37869263 219.28236389 C 483.04794312 222.21659851 479.46539307 224.88201904 475.43542480 226.82221985 C 471.29983521 228.41857910 467.05706787 228.94757080 462.72326660 228.38209534 C 458.51055908 227.10491943 454.40310669 225.39533997 450.45513916 223.38810730 C 450.75769043 219.28388977 451.16223145 215.09771729 451.45556641 210.81942749 C 451.56579590 206.45083618 451.55407715 202.00566101 451.39160156 197.49769592 C 451.07592773 192.93788147 450.69314575 188.34840393 450.23587036 183.75874329 C 449.60781860 179.20640564 448.79495239 174.71681213 447.92098999 170.29359436 C 447.04083252 165.95481873 445.88739014 161.77166748 444.48284912 157.74382019 C 442.90945435 153.86254883 441.22769165 150.12208557 439.60870361 146.46913147 C 443.27713013 143.96482849 446.79589844 141.15054321 450.37207031 138.42854309 C 454.22463989 136.22349548 458.20471191 134.56202698 462.19708252 133.46000671 C 466.05688477 132.92265320 469.77865601 133.02168274 473.29193115 133.53979492 C 476.47348022 134.77326965 479.34005737 136.80229187 482.02117920 139.40615845 C 484.43707275 142.58428955 486.50851440 146.31143188 488.22869873 150.53128052 C 489.91229248 155.03878784 491.31665039 159.81288147 492.24063110 164.87521362" stroke-width="1.79238129" fill="rgb(120, 111, 102)" opacity="1.0" stroke="rgb(64, 60, 55)" stroke-opacity="0.9338617" stroke-linecap="round" stroke-linejoin="round"/>
    <path d="M 356.32028198 248.39334106 C 355.12634277 250.73387146 353.64114380 253.09883118 351.86968994 255.48065186 C 350.04931641 258.02218628 348.11914062 260.65057373 345.99597168 263.28460693 C 343.69549561 265.91705322 341.25698853 268.55340576 338.71215820 271.19268799 C 336.15316772 273.88079834 333.30804443 276.32550049 330.29483032 278.63241577 C 327.22503662 280.86560059 324.15536499 283.02148438 321.12042236 285.04272461 C 318.05926514 286.71810913 315.02847290 288.13766479 312.10870361 289.39880371 C 309.18365479 290.16421509 306.32293701 290.53274536 303.62469482 290.74563599 C 301.16842651 290.75021362 298.96987915 290.25643921 296.99801636 289.07308960 C 295.01934814 287.44924927 292.93115234 285.89108276 294.46429443 285.54168701 C 296.27087402 285.14205933 298.30041504 284.75543213 300.48870850 284.35360718 C 302.69976807 283.53210449 304.96188354 282.43737793 307.28399658 281.15625000 C 309.67568970 279.77896118 312.03366089 278.18130493 314.34326172 276.36465454 C 316.68142700 274.46731567 319.06127930 272.52963257 321.44689941 270.52532959 C 323.65539551 268.24151611 325.79531860 265.81964111 327.96337891 263.38552856 C 330.08312988 260.91113281 331.99612427 258.25433350 333.84823608 255.53381348 C 335.59854126 252.74354553 337.33944702 249.97554016 339.01947021 247.23294067 C 340.53674316 244.48905945 342.00183105 241.85154724 343.34832764 239.33062744 C 344.37551880 236.86532593 345.43392944 234.61128235 348.08929443 236.02005005 C 350.53640747 237.60505676 352.76239014 239.33129883 354.62002563 241.34387207 C 356.02832031 243.75680542 357.42495728 246.21726990 356.32028198 248.39334106" stroke-width="1.67671144" fill="rgb(245, 228, 202)" opacity="1.0" stroke="rgb(53, 49, 42)" stroke-opacity="0.8350967" stroke-linecap="round" stroke-linejoin="round"/>
    <path d="M 446.48397827 287.95196533 C 443.83267212 287.05947876 441.24148560 285.99728394 438.74914551 284.72738647 C 436.35519409 283.27105713 433.99578857 281.71875000 431.62942505 280.13333130 C 429.34042358 278.39135742 427.02969360 276.64431763 424.86694336 274.67025757 C 422.66079712 272.66525269 420.37664795 270.69451904 418.10876465 268.67797852 C 415.85168457 266.64990234 413.66940308 264.57614136 411.66607666 262.35769653 C 409.76376343 260.08682251 407.89953613 257.85513306 406.14886475 255.63652039 C 404.54116821 253.44427490 402.98226929 251.36598206 401.36822510 249.48796082 C 399.97247314 247.59155273 398.73474121 245.72911072 400.41818237 243.05284119 C 402.03833008 240.33010864 404.07913208 238.01458740 406.75512695 236.26156616 C 409.70407104 234.60305786 411.19497681 235.85754395 412.39089966 237.49029541 C 413.27569580 239.65173340 414.37011719 242.03680420 415.73388672 244.54760742 C 417.33255005 247.12767029 418.95422363 249.82652283 420.70523071 252.51271057 C 422.46942139 255.21315002 424.27563477 257.85540771 426.22235107 260.33801270 C 428.10598755 262.78189087 430.06268311 265.05752563 432.04171753 267.18838501 C 433.88058472 269.30099487 435.69796753 271.33044434 437.66110229 273.18246460 C 439.74832153 274.93789673 441.82635498 276.75555420 444.04116821 278.46823120 C 446.42266846 280.05999756 448.86303711 281.58691406 451.42010498 282.86437988 C 454.08908081 283.82977295 456.80615234 284.55538940 459.42337036 285.39480591 C 458.61166382 288.57702637 456.43728638 289.35650635 454.19921875 289.72222900 C 451.76815796 289.32931519 449.16830444 288.68325806 446.48397827 287.95196533" stroke-width="1.67201674" fill="rgb(248, 231, 205)" opacity="1.0" stroke="rgb(49, 43, 31)" stroke-opacity="0.77488947" stroke-linecap="round" stroke-linejoin="round"/>
    <path d="M 330.52709961 394.49911499 C 329.02255249 400.05001831 327.48776245 405.45941162 326.19015503 410.62106323 C 325.35302734 415.28845215 324.52865601 419.53558350 322.76846313 422.98831177 C 320.28991699 425.76330566 317.37451172 427.69021606 314.11444092 428.85226440 C 310.73602295 429.29656982 307.46594238 428.70315552 304.30911255 427.07788086 C 301.60485840 424.82064819 299.43493652 421.86062622 297.88293457 418.14468384 C 296.97201538 414.00372314 296.99801636 409.36047363 297.44512939 404.12210083 C 298.31561279 398.42944336 299.72753906 392.45056152 301.63195801 386.05429077 C 303.82177734 379.46215820 306.85379028 372.69741821 310.29818726 365.85580444 C 314.05197144 358.88684082 318.15841675 351.84020996 322.74075317 344.81405640 C 327.38403320 337.79885864 332.29855347 330.67547607 337.42633057 323.66003418 C 342.47531128 316.61462402 347.68060303 309.64550781 352.88973999 302.80880737 C 357.82437134 295.91387939 362.62762451 289.05557251 367.01077271 282.23559570 C 371.06945801 275.51181030 374.58868408 268.84973145 377.56567383 262.34652710 C 380.03170776 256.03890991 381.75970459 249.80433655 382.34619141 243.66735840 C 382.75073242 237.81112671 382.13073730 232.28224182 380.32635498 227.07638550 C 377.98324585 222.18719482 376.10995483 217.28697205 375.23886108 212.41738892 C 375.11935425 207.55819702 375.03930664 203.14884949 375.46548462 199.57273865 C 377.36193848 197.00662231 380.48312378 195.30619812 384.48693848 194.43692017 C 389.29641724 194.20216370 394.42892456 194.05426025 399.45193481 194.75085449 C 404.11572266 196.63107300 408.18438721 199.77305603 411.75454712 204.05976868 C 414.84332275 209.12236023 417.48046875 214.78335571 419.74737549 220.74879456 C 421.47262573 226.83413696 422.36877441 233.20500183 422.70944214 239.55221558 C 422.29452515 245.79541016 421.01358032 252.09356689 419.62811279 258.38494873 C 417.51605225 264.72561646 415.26742554 271.06243896 412.71813965 277.48110962 C 409.01040649 283.70791626 405.09768677 289.91284180 401.08508301 296.06481934 C 396.74713135 302.23367310 392.26409912 308.10543823 388.11730957 314.09323120 C 383.37026978 319.40414429 378.78063965 324.74337769 374.19680786 330.02362061 C 369.58840942 335.27029419 364.99307251 340.59411621 360.32168579 345.88519287 C 355.68933105 351.22558594 351.37121582 357.01721191 347.35366821 363.26718140 C 343.29095459 369.72152710 338.52484131 375.98681641 330.52709961 394.49911499" stroke-width="1.74198639" fill="rgb(96, 90, 92)" opacity="1.0" stroke="rgb(46, 42, 44)" stroke-opacity="0.71457404" stroke-linecap="round" stroke-linejoin="round"/>
    <path d="M 354.80679321 182.40948486 C 354.42080688 180.96115112 354.19332886 179.41090393 354.07839966 177.79638672 C 354.05346680 176.15202332 354.12020874 174.51150513 354.32363892 172.91011047 C 354.73413086 171.38374329 355.35745239 169.94982910 356.15625000 168.60897827 C 357.05841064 167.34745789 358.41424561 167.82595825 359.69729614 168.40170288 C 360.81274414 169.14286804 361.69818115 170.08940125 362.33135986 171.23966980 C 362.71408081 172.56628418 362.88104248 174.03503418 362.89718628 175.60481262 C 362.81784058 177.23304749 362.66235352 178.87792969 362.42010498 180.49395752 C 362.02105713 182.02874756 361.40441895 183.43957520 360.53927612 184.69773865 C 359.45315552 185.80648804 358.26690674 186.81987000 357.19552612 185.89875793 C 356.21810913 184.87631226 355.40728760 183.71781921 354.80679321 182.40948486" stroke-width="0.74252194" fill="rgb(2, 2, 2)" opacity="1.0" stroke="rgb(40, 42, 40)" stroke-opacity="0.9839597" stroke-linecap="round" stroke-linejoin="round"/>
    <path d="M 399.34185791 167.79180908 C 400.87222290 167.79092407 402.38934326 167.87905884 403.00216675 169.43530273 C 403.53167725 171.02342224 403.90444946 172.64685059 404.10061646 174.29609680 C 404.13732910 175.95262146 404.03646851 177.59573364 403.80676270 179.20407104 C 403.44128418 180.75521851 402.93225098 182.22575378 402.25698853 183.58903503 C 401.40307617 184.82283020 400.45223999 185.96504211 399.42376709 185.65596008 C 398.46994019 185.27250671 397.65142822 184.73703003 397.01049805 183.99951172 C 396.56494141 183.04249573 396.27096558 181.89596558 396.07962036 180.59278870 C 395.94448853 179.16528320 395.87307739 177.64083862 395.88375854 176.04502869 C 395.97634888 174.40379333 396.19937134 172.74578857 396.59933472 171.09767151 C 397.17065430 169.47564697 397.82168579 167.88558960 399.34185791 167.79180908" stroke-width="0.78860766" fill="rgb(2, 2, 1)" opacity="1.0" stroke="rgb(49, 49, 48)" stroke-opacity="0.94196874" stroke-linecap="round" stroke-linejoin="round"/>
    <path d="M 120.46498108 390.91076660 C 119.91800690 395.53594971 119.10529327 399.76617432 118.11734772 403.56024170 C 117.04483795 406.87475586 115.97837830 409.66375732 115.00769806 411.87829590 C 114.20983124 413.46215820 113.60894012 414.33355713 113.56375122 413.20150757 C 113.71239471 411.39712524 114.00914001 408.98785400 114.40605927 406.03842163 C 114.85353088 402.60952759 115.30110931 398.75628662 115.69729614 394.52767944 C 115.98955536 389.96710205 116.10851288 385.11279297 115.88118744 380.00039673 C 114.98238373 374.65991211 113.78459930 369.09841919 112.78019714 363.29348755 C 111.76435852 357.34860229 110.95423889 351.30850220 110.49021912 345.21627808 C 110.11975861 339.16183472 110.37127686 333.13998413 110.94711304 327.14144897 C 111.38415527 321.17993164 112.07866669 315.33496094 112.87284851 309.63436890 C 113.84057617 304.14575195 114.85780334 298.87750244 115.73636627 293.82760620 C 116.70700836 289.07135010 117.74193573 284.62380981 118.91583252 280.51715088 C 120.03981018 276.71228027 121.11517334 273.22518921 123.08853912 276.97750854 C 125.07137299 280.87173462 126.75797272 284.82101440 127.62570190 288.83541870 C 127.06395721 292.97662354 125.65850830 297.41836548 124.15028381 302.30691528 C 122.61881256 307.58618164 121.17800140 313.20089722 119.95467377 319.11920166 C 118.66151428 325.19879150 117.67369080 331.43997192 117.09903717 337.80929565 C 116.86692810 344.23715210 116.92477417 350.64880371 117.41135406 356.98831177 C 118.09725952 363.22119141 118.95777130 369.27474976 119.82527161 375.09863281 C 120.50175476 380.65011597 120.67929077 385.93325806 120.46498108 390.91076660" stroke-width="0.58082503" fill="rgb(108, 108, 105)" opacity="1.0" stroke="rgb(97, 94, 93)" stroke-opacity="0.24623749" stroke-linecap="round" stroke-linejoin="round"/>
    <path d="M 111.54368591 415.86196899 C 110.56310272 416.75952148 109.56558990 417.57711792 108.54605865 418.30181885 C 107.49723053 418.91757202 106.42446899 419.43392944 105.34055328 419.87017822 C 104.24859619 420.22048950 103.81398773 419.29693604 103.45147705 418.33026123 C 103.19831848 417.32089233 103.09037781 416.27053833 103.15803528 415.17956543 C 103.38970947 414.04882812 103.65312958 412.86450195 103.87318420 411.62420654 C 104.15917206 410.36196899 104.59214020 409.09994507 105.17268372 407.83346558 C 105.79401398 406.51745605 106.45717621 405.16339111 107.18159485 403.78976440 C 107.90196991 402.37252808 108.65649414 400.93997192 109.45674896 399.50546265 C 110.27057648 398.05944824 111.07676697 396.59893799 111.88681030 395.13858032 C 112.71453094 393.69543457 113.51747894 392.25595093 114.25310516 390.80673218 C 114.89352417 389.34368896 115.46403503 387.88714600 116.02227020 386.47119141 C 116.61430359 385.12609863 117.24357605 383.86660767 117.91221619 382.70672607 C 118.61513519 381.65747070 119.32988739 380.71862793 119.63549805 382.36679077 C 119.89448547 384.10656738 120.09085846 385.92266846 120.23369598 387.79779053 C 120.34539795 389.71343994 120.42424774 391.65371704 120.45606995 393.60357666 C 120.41689301 395.54870605 120.29711914 397.47268677 120.06673431 399.36007690 C 119.72762299 401.19845581 119.30177307 402.97973633 118.81342316 404.69598389 C 118.25805664 406.33212280 117.68228149 407.89077759 117.07462311 409.35253906 C 116.34130096 410.66671753 115.46987915 411.83834839 114.50946045 412.90914917 C 113.50942993 413.91836548 112.51830292 414.90362549 111.54368591 415.86196899" stroke-width="0.69122863" fill="rgb(103, 99, 93)" opacity="1.0" stroke="rgb(66, 66, 58)" stroke-opacity="0.18330808" stroke-linecap="round" stroke-linejoin="round"/>
    <path d="M 355.02014160 410.77816772 C 356.63473511 410.73214722 357.10421753 412.04852295 357.54351807 413.42742920 C 358.03298950 414.83432007 358.48538208 416.28311157 358.83093262 417.78469849 C 359.06640625 419.33035278 359.30227661 420.88458252 359.53530884 422.42935181 C 359.70678711 423.95541382 359.83193970 425.44125366 358.77142334 425.48895264 C 357.66223145 425.47427368 356.51687622 425.35678101 355.34286499 425.11462402 C 354.13409424 424.81423950 352.90695190 424.46246338 351.68569946 424.03686523 C 350.49517822 423.51077271 349.33810425 422.92156982 349.36535645 421.53323364 C 349.46960449 420.12994385 349.65856934 418.72375488 349.97314453 417.32922363 C 350.43728638 415.95748901 351.02343750 414.61343384 351.72592163 413.31076050 C 352.53173828 412.05859375 353.39813232 410.85275269 355.02014160 410.77816772" stroke-width="1.69948518" fill="rgb(238, 232, 149)" opacity="1.0" stroke="rgb(11, 9, 0)" stroke-opacity="0.5732167" stroke-linecap="round" stroke-linejoin="round"/>
    <path d="M 303.94793701 458.12942505 C 304.27334595 456.57577515 304.65029907 455.03311157 305.11938477 453.54791260 C 305.69638062 452.15972900 306.34301758 450.88995361 307.05007935 449.77752686 C 307.86843872 448.89288330 308.84228516 448.28094482 309.95877075 447.89990234 C 311.15591431 447.63790894 312.37112427 447.43820190 312.62628174 448.69781494 C 312.81735229 450.02542114 313.04092407 451.38845825 313.30838013 452.76943970 C 313.55786133 454.16229248 313.78976440 455.55151367 314.02413940 456.91775513 C 314.18875122 458.25738525 314.24862671 459.56808472 314.23333740 460.84017944 C 312.89315796 460.88616943 311.52178955 460.89959717 310.14233398 460.91067505 C 308.77667236 460.87591553 307.43930054 460.70822144 306.13662720 460.42031860 C 304.87231445 460.06344604 303.65982056 459.65280151 303.94793701 458.12942505" stroke-width="1.81281710" fill="rgb(244, 244, 160)" opacity="1.0" stroke="rgb(8, 8, 0)" stroke-opacity="0.51954824" stroke-linecap="round" stroke-linejoin="round"/>
    <path d="M 218.37066650 451.91467285 C 219.14331055 452.88766479 219.78761292 453.96978760 220.28858948 455.16439819 C 220.67428589 456.44836426 220.96786499 457.79757690 221.18994141 459.18890381 C 221.35469055 460.59967041 221.45471191 462.01086426 221.51707458 463.40084839 C 221.63563538 464.74389648 221.75300598 466.02719116 220.49835205 465.95733643 C 219.17933655 465.87350464 217.82121277 465.77856445 216.45233154 465.63604736 C 215.10630798 465.34524536 213.78775024 464.95950317 213.54364014 463.56204224 C 213.37564087 462.14974976 213.26370239 460.74774170 213.22525024 459.37857056 C 213.34797668 458.06027222 213.61796570 456.79809570 213.99369812 455.59466553 C 214.44018555 454.45465088 215.00331116 453.41378784 215.72210693 452.50109863 C 216.59642029 451.72058105 217.53488159 451.01797485 218.37066650 451.91467285" stroke-width="1.77546287" fill="rgb(244, 243, 159)" opacity="1.0" stroke="rgb(25, 21, 0)" stroke-opacity="0.547962" stroke-linecap="round" stroke-linejoin="round"/>
    <path d="M 331.33157349 452.73617554 C 331.59600830 453.91409302 331.61828613 454.99188232 331.35531616 455.96493530 C 330.82492065 456.82785034 330.05368042 457.57043457 329.06527710 458.18319702 C 327.88967896 458.66421509 326.61013794 459.11117554 325.29635620 459.58322144 C 323.98629761 460.05200195 322.68630981 460.43240356 322.40673828 458.93682861 C 322.23831177 457.40893555 322.17205811 455.87643433 322.14489746 454.37368774 C 322.15982056 452.93322754 322.28604126 451.58093262 322.51889038 450.33953857 C 322.85992432 449.23583984 323.33660889 448.29501343 323.96813965 447.54034424 C 324.76599121 446.98709106 325.69577026 446.62924194 326.71929932 446.43603516 C 327.78051758 446.33099365 328.77984619 447.56854248 329.71246338 448.82669067 C 330.44281006 450.12960815 330.95776367 451.45529175 331.33157349 452.73617554" stroke-width="1.88449121" fill="rgb(238, 232, 157)" opacity="1.0" stroke="rgb(15, 12, 0)" stroke-opacity="0.5771568" stroke-linecap="round" stroke-linejoin="round"/>
    <path d="M 226.34239197 464.63888550 C 226.33866882 463.33651733 226.32846069 462.00814819 226.30944824 460.67651367 C 226.27844238 459.36465454 226.23669434 458.09500122 226.26872253 456.88812256 C 226.47558594 455.76373291 226.88174438 454.73297119 227.47262573 453.79220581 C 228.18228149 452.91470337 228.96000671 452.09616089 230.12072754 452.61260986 C 231.22906494 453.20187378 232.22010803 453.93280029 233.06501770 454.82196045 C 233.75691223 455.85256958 234.29914856 457.00262451 234.70442200 458.24285889 C 234.98538208 459.54428101 235.13433838 460.88299561 235.18339539 462.23065186 C 234.11604309 463.00042725 233.02915955 463.73089600 231.93627930 464.38760376 C 230.81402588 464.87805176 229.67231750 465.22793579 228.54125977 465.50515747 C 227.43774414 465.72705078 226.37083435 465.89212036 226.34239197 464.63888550" stroke-width="1.64706457" fill="rgb(239, 243, 155)" opacity="1.0" stroke="rgb(10, 8, 0)" stroke-opacity="0.50178784" stroke-linecap="round" stroke-linejoin="round"/>
    <path d="M 149.45924377 410.56314087 C 150.43446350 410.22735596 151.22151184 410.98733521 151.89379883 411.84701538 C 152.36940002 412.87603760 152.70832825 414.03744507 152.94599915 415.30358887 C 153.12745667 416.64614868 153.25962830 418.03790283 153.31205750 419.45632935 C 153.26493835 420.87832642 153.20381165 422.28091431 153.17053223 423.63980103 C 153.12741089 424.92715454 151.90222168 424.54663086 150.62203979 424.14648438 C 149.29676819 423.77243042 147.98522949 423.31637573 146.73173523 422.69885254 C 145.54847717 421.92263794 144.41217041 421.07583618 144.69113159 419.68957520 C 145.04191589 418.30920410 145.38606262 416.94479370 145.72082520 415.62533569 C 146.12449646 414.40014648 146.59375000 413.29150391 147.12730408 412.32556152 C 147.77391052 411.55126953 148.55677795 410.97708130 149.45924377 410.56314087" stroke-width="1.62638485" fill="rgb(241, 228, 155)" opacity="1.0" stroke="rgb(10, 10, 0)" stroke-opacity="0.5517394" stroke-linecap="round" stroke-linejoin="round"/>
    <path d="M 168.24278259 412.43399048 C 168.89309692 411.35501099 169.93815613 411.70834351 170.93200684 412.15902710 C 171.81561279 412.76568604 172.56773376 413.53289795 173.18678284 414.44119263 C 173.66740417 415.47161865 174.02655029 416.59985352 174.30273438 417.79193115 C 174.51325989 419.01867676 174.63021851 420.26580811 174.67720032 421.51251221 C 173.66288757 422.17742920 172.60409546 422.79254150 171.50915527 423.34881592 C 170.39944458 423.85940552 169.27557373 424.29537964 168.14367676 424.64062500 C 167.01387024 424.88897705 165.90853882 425.06774902 165.91571045 423.86099243 C 165.98014832 422.60794067 166.11323547 421.32196045 166.30462646 420.01327515 C 166.51316833 418.68991089 166.72669983 417.36453247 166.96475220 416.05517578 C 167.26982117 414.78375244 167.68844604 413.57272339 168.24278259 412.43399048" stroke-width="1.67689347" fill="rgb(240, 232, 152)" opacity="1.0" stroke="rgb(13, 10, 0)" stroke-opacity="0.47500238" stroke-linecap="round" stroke-linejoin="round"/>
    <path d="M 375.40515137 423.24743652 C 375.44946289 421.97116089 375.50830078 420.64700317 375.58496094 419.29434204 C 375.72909546 417.93533325 375.90148926 416.58023071 376.04794312 415.23840332 C 376.18359375 413.92779541 376.38955688 412.67242432 376.70367432 411.48965454 C 377.14276123 410.39532471 377.65634155 409.37933350 378.85516357 410.11087036 C 380.04602051 410.88891602 381.14413452 411.74645996 382.05685425 412.72933960 C 382.70568848 413.86871338 383.14318848 415.10791016 383.42846680 416.37796021 C 383.56823730 417.62698364 383.50689697 418.81942749 383.22851562 419.92059326 C 382.73724365 420.89334106 382.01855469 421.71609497 381.11703491 422.40872192 C 380.08889771 422.98944092 378.95965576 423.44714355 377.76388550 423.79705811 C 376.56521606 424.13796997 375.39993286 424.45709229 375.40515137 423.24743652" stroke-width="1.83508921" fill="rgb(235, 230, 146)" opacity="1.0" stroke="rgb(17, 18, 0)" stroke-opacity="0.5350193" stroke-linecap="round" stroke-linejoin="round"/>
    <path d="M 364.68103027 424.70181274 C 364.79226685 423.59924316 364.84246826 422.43698120 364.85073853 421.23150635 C 364.90893555 420.00344849 365.05868530 418.77236938 365.32022095 417.55496216 C 365.70074463 416.36776733 366.17343140 415.21804810 366.70925903 414.11123657 C 367.27636719 413.05252075 367.85467529 412.05303955 368.68942261 412.89984131 C 369.54171753 413.81280518 370.39666748 414.77987671 371.21463013 415.81015015 C 371.95281982 416.91729736 372.60308838 418.08691406 373.14437866 419.31204224 C 373.55075073 420.58920288 373.86447144 421.89050293 374.10781860 423.19140625 C 374.26614380 424.47640991 372.90829468 424.76629639 371.50720215 424.98342896 C 370.07873535 425.11962891 368.64773560 425.21292114 367.24078369 425.32321167 C 365.88510132 425.52023315 364.58963013 425.73321533 364.68103027 424.70181274" stroke-width="1.84808338" fill="rgb(236, 230, 162)" opacity="1.0" stroke="rgb(15, 14, 0)" stroke-opacity="0.49625948" stroke-linecap="round" stroke-linejoin="round"/>
    <path d="M 158.46868896 423.41543579 C 157.95803833 423.34768677 157.46252441 423.25680542 157.48574829 422.65234375 C 157.53126526 422.03237915 157.60211182 421.40460205 157.70181274 420.77658081 C 157.83195496 420.15542603 157.98603821 419.54678345 158.15809631 418.95617676 C 158.34257507 418.38861084 158.52821350 417.84606934 158.70832825 417.33126831 C 158.88385010 416.84902954 159.04895020 417.24234009 159.21867371 417.66845703 C 159.39955139 418.12176514 159.58972168 418.59848022 159.78147888 419.09637451 C 159.96441650 419.61352539 160.13084412 420.14663696 160.27371216 420.69210815 C 160.38586426 421.24584961 160.46246338 421.80337524 160.50502014 422.35913086 C 160.52188110 422.90670776 160.51637268 423.43954468 160.01879883 423.46817017 C 159.50662231 423.47409058 158.98741150 423.45721436 158.46868896 423.41543579" stroke-width="1.62638485" fill="rgb(241, 228, 155)" opacity="1.0" stroke="rgb(10, 10, 0)" stroke-opacity="0.5517394" stroke-linecap="round" stroke-linejoin="round"/>
    <path d="M 409.19662476 119.30267334 C 408.33059692 119.68626404 407.53558350 120.13611603 406.52212524 120.48107147 C 405.38574219 120.48329163 404.06515503 120.72113037 402.57165527 121.23266602 C 400.84548950 121.81119537 398.86221313 122.41214752 396.54190063 122.77679443 C 393.95285034 123.05525970 391.17413330 123.38637543 388.20498657 123.47658539 C 384.96289062 123.64377594 381.47372437 123.62390137 377.92523193 123.64183044 C 374.35714722 123.48309326 370.89785767 123.29327393 367.46478271 122.76283264 C 364.10385132 122.40323639 361.18481445 121.88943481 358.64739990 121.37001801 C 356.44958496 120.95201874 354.97195435 120.32683563 354.13214111 119.32575226 C 354.26571655 117.89031219 355.05770874 115.87725067 356.12973022 113.16477966 C 356.97680664 109.89474487 358.15286255 106.25918579 359.83734131 102.35209656 C 361.47436523 98.18835449 363.25601196 93.58677673 364.89459229 88.76634979 C 366.57397461 83.94149017 368.12927246 79.05815125 370.04989624 74.30169678 C 371.63281250 69.76387787 373.24102783 65.43677521 374.51608276 61.26110840 C 375.80850220 57.51959229 377.10650635 54.26876068 378.39031982 51.56475449 C 379.61248779 49.61940002 380.04391479 48.06427383 380.17630005 47.40282059 C 380.26593018 47.92076874 380.56484985 49.32052231 381.36495972 51.26138306 C 382.27923584 53.72589493 383.47735596 56.42657471 384.91931152 59.52750397 C 386.11492920 63.00080109 387.53012085 66.78835297 389.08932495 70.62988281 C 390.67480469 74.76093292 392.48162842 78.98941040 394.12564087 83.28825378 C 395.86264038 87.69947815 397.78903198 91.97984314 409.19662476 119.30267334" stroke-width="0.89321494" fill="rgb(219, 78, 92)" opacity="1.0" stroke="rgb(143, 0, 0)" stroke-opacity="0.46303627" stroke-linecap="round" stroke-linejoin="round"/>
    <path d="M 373.28692627 40.26433563 C 375.05780029 38.54909134 376.66668701 37.05906677 377.94454956 35.71437454 C 378.74447632 34.62277222 379.06546021 33.82342148 379.30905151 33.55253983 C 379.69909668 34.43119049 380.19943237 35.81879807 380.76495361 36.86138916 C 381.48751831 37.80711746 382.64233398 38.97395706 384.00979614 39.54659653 C 385.55029297 39.75322723 386.54800415 39.87662888 386.67413330 40.13200760 C 386.08639526 40.98503113 385.52728271 41.95508575 384.96194458 43.31778717 C 384.73999023 44.56963730 384.77481079 45.39945602 384.78710938 45.84738541 C 383.86886597 45.66698837 382.27221680 45.62638474 380.02969360 45.66773987 C 377.67016602 45.53281021 375.77081299 45.71744156 374.80450439 45.87593842 C 374.85873413 45.34640121 375.87341309 44.72896576 373.28692627 40.26433563" stroke-width="1.62170625" fill="rgb(248, 212, 80)" opacity="1.0" stroke="rgb(201, 160, 37)" stroke-opacity="0.73842794" stroke-linecap="round" stroke-linejoin="round"/>
    <path d="M 408.70388794 129.46159363 C 405.66244507 130.52655029 402.34713745 131.15377808 399.02136230 131.60493469 C 395.79254150 132.30450439 392.44284058 132.52322388 388.97607422 132.80903625 C 385.57696533 133.22138977 382.40454102 133.38812256 379.26358032 133.31979370 C 376.11514282 133.40786743 373.10421753 133.02069092 370.19372559 132.56762695 C 367.18200684 132.56219482 364.11331177 131.94580078 361.18698120 131.33398438 C 358.53921509 130.70724487 356.16171265 130.14660645 354.02304077 129.56111145 C 352.34106445 129.12152100 351.23098755 128.91513062 350.52886963 128.35574341 C 350.53924561 127.36407471 350.81457520 126.09373474 351.49127197 124.73873138 C 352.34832764 123.58404541 352.64941406 122.38625336 352.81356812 121.58501434 C 353.30776978 121.61325836 354.26748657 121.83371735 355.53729248 122.01280975 C 357.18368530 122.43225861 359.11230469 122.98885345 361.37750244 123.59854126 C 363.91061401 123.71587372 366.55697632 124.14375305 369.41186523 124.66445160 C 372.27154541 124.75613403 375.15414429 124.85796356 378.08251953 125.13641357 C 380.93063354 125.08703613 383.90283203 125.07018280 386.86019897 125.08172607 C 389.55465698 124.82041168 392.12426758 124.62284088 394.77188110 124.46498871 C 397.43865967 124.21008301 399.83773804 123.77645111 401.85821533 123.17594910 C 403.90554810 122.73628998 405.53244019 122.13599396 407.04705811 121.81174469 C 408.35638428 121.72984314 409.36260986 121.40874481 410.10229492 121.57348633 C 410.56835938 122.45455933 411.17404175 123.92700958 411.87991333 125.56873322 C 412.77218628 127.21149445 413.85812378 128.92137146 408.70388794 129.46159363" stroke-width="0.46355572" fill="rgb(252, 254, 252)" opacity="1.0" stroke="rgb(251, 210, 213)" stroke-opacity="0.73083556" stroke-linecap="round" stroke-linejoin="round"/>
  </g>
</svg>
