<?xml version="1.0" ?>
<svg xmlns="http://www.w3.org/2000/svg" version="1.1" width="512" height="512" viewBox="0 0 512 512">
  <defs/>
  <g>
    <path d="M 626.51977539 474.21411133 C 603.12457275 481.48977661 579.67901611 488.73260498 556.22174072 495.94409180 C 532.76562500 503.19055176 509.20220947 510.42816162 485.56808472 517.64245605 C 461.82757568 524.77099609 437.92462158 531.72283936 413.82531738 538.37573242 C 389.54550171 544.70666504 365.00103760 550.62225342 340.34973145 556.03979492 C 315.50094604 560.86590576 290.49191284 565.02459717 265.43151855 568.38922119 C 240.36445618 570.86431885 215.41923523 572.37933350 190.71159363 572.80230713 C 166.31056213 572.02185059 142.38854980 569.92431641 119.06966400 566.43292236 C 96.56402588 561.44146729 75.02480316 554.71374512 54.62406540 546.25622559 C 35.51116943 535.91510010 17.93402672 523.54614258 2.01389551 509.10681152 C -11.96834850 492.37765503 -24.29209328 473.68707275 -34.93536377 453.23812866 C -43.99011612 431.30801392 -51.61923599 408.02374268 -57.87405014 383.64837646 C -62.82090378 358.37432861 -66.54160309 332.46093750 -69.13956451 306.08715820 C -70.65824127 279.52059937 -71.09109497 252.87577820 -70.48415375 226.39295959 C -68.82894135 200.20162964 -66.12516022 174.51742554 -62.43124771 149.58573914 C -57.61392593 125.47874451 -51.57526016 102.30527496 -44.34793472 80.26626587 C -35.90343857 59.50395203 -26.10796547 40.18221283 -14.83841419 22.38662720 C -2.03194046 6.17919350 12.47099400 -8.35173988 28.61878395 -21.15979195 C 46.20041275 -32.35412598 65.20062256 -41.95918655 85.50045013 -50.20480728 C 106.90272522 -57.04979706 129.40432739 -62.65403748 152.80957031 -67.07648468 C 176.95806885 -70.32153320 201.78358459 -72.53467560 227.10693359 -73.72066498 C 252.71238708 -73.89197540 278.53741455 -73.07154846 304.32604980 -71.25262451 C 329.93185425 -68.40029144 355.22406006 -64.50701141 379.91638184 -59.48030853 C 403.90780640 -53.27489853 426.94400024 -45.83370972 448.90130615 -37.07295990 C 469.57748413 -26.88291931 488.76974487 -15.14216232 506.31591797 -1.82828033 C 521.99609375 13.27709770 535.94653320 30.01435852 548.31988525 48.20459747 C 559.16577148 67.71214294 568.72802734 88.35246277 577.12213135 109.97384644 C 584.52111816 132.45491028 591.03613281 155.67146301 596.77325439 179.51686096 C 601.88897705 203.83609009 606.58612061 228.51248169 610.90325928 253.45509338 C 615.05023193 278.54467773 619.00109863 303.73486328 622.85595703 328.98931885 C 626.70678711 354.28219604 630.52587891 379.56896973 626.51977539 474.21411133" stroke-width="2.00000000" fill="rgb(165, 212, 228)" opacity="1.0" stroke="rgb(151, 196, 206)" stroke-opacity="1.0" stroke-linecap="round" stroke-linejoin="round"/>
    <path d="M 475.22561646 249.51811218 C 475.04901123 254.05809021 474.70486450 258.55413818 474.12072754 263.04959106 C 473.21771240 267.53372192 472.03170776 271.95266724 470.46099854 276.33206177 C 468.61343384 280.70584106 466.49789429 284.97335815 464.05206299 289.20928955 C 461.25891113 293.28530884 458.15121460 297.17358398 454.80639648 301.01208496 C 451.16854858 304.58419800 447.24282837 307.95593262 443.07327271 311.06903076 C 438.68051147 313.92929077 434.08670044 316.47433472 429.27926636 318.69076538 C 424.29357910 320.57632446 419.17437744 322.10403442 414.00180054 323.27859497 C 408.68347168 324.05697632 403.29666138 324.54360962 397.91226196 324.64929199 C 392.55709839 324.31756592 387.20455933 323.56265259 381.88516235 322.51232910 C 376.67913818 321.19363403 371.56539917 319.52020264 366.58740234 317.48208618 C 361.78363037 315.04547119 357.21102905 312.25631714 352.80911255 309.13763428 C 348.73825073 305.64920044 344.85671997 301.86407471 341.26217651 297.84384155 C 337.98852539 293.54162598 334.98690796 289.05364990 332.22998047 284.42184448 C 329.83630371 279.59957886 327.72412109 274.67398071 325.91757202 269.68380737 C 324.43081665 264.62835693 323.27987671 259.52709961 322.43688965 254.43988037 C 321.95581055 249.34783936 321.77127075 244.30964661 321.95394897 239.29449463 C 322.45410156 234.43206787 323.32614136 229.62689209 324.54336548 224.94554138 C 326.12625122 220.45262146 328.16699219 216.11505127 330.50070190 211.92129517 C 333.14584351 207.87174988 336.02609253 203.99594116 339.29122925 200.28640747 C 342.83242798 196.77616882 346.61001587 193.44111633 350.69717407 190.38717651 C 355.04266357 187.60240173 359.57247925 184.99914551 364.25958252 182.62399292 C 369.16012573 180.63591003 374.15530396 178.91265869 379.26654053 177.47612000 C 384.43307495 176.38909912 389.63336182 175.66650391 394.88928223 175.34312439 C 400.17138672 175.33381653 405.37719727 175.56538391 410.56106567 176.20355225 C 415.69580078 177.29899597 420.75268555 178.61802673 425.67379761 180.24044800 C 430.48416138 182.10874939 435.16766357 184.32456970 439.64834595 186.84008789 C 443.95272827 189.56538391 448.06790161 192.53733826 451.95437622 195.84228516 C 455.61831665 199.41018677 458.99591064 203.27468872 462.09558105 207.44697571 C 464.92456055 211.90036011 467.37094116 216.62399292 469.56787109 221.63128662 C 471.83770752 226.74885559 474.16714478 231.88662720 475.22561646 249.51811218" stroke-width="0.66017288" fill="rgb(23, 136, 2)" opacity="1.0" stroke="rgb(34, 98, 18)" stroke-opacity="0.9987274" stroke-linecap="round" stroke-linejoin="round"/>
        <path d="M 460.79904175 293.89300537 C 458.39376831 296.66598511 456.02893066 299.44088745 453.69854736 302.20852661 C 451.28500366 304.84744263 448.75076294 307.28808594 446.16094971 309.60205078 C 443.47189331 311.76156616 440.66705322 313.63699341 437.81085205 315.31198120 C 434.86734009 316.79656982 431.95715332 318.13900757 429.09234619 319.32284546 C 426.22711182 320.27120972 423.48794556 321.03909302 420.76873779 321.65420532 C 418.24337769 322.21459961 415.88995361 322.73355103 413.68994141 323.06805420 C 411.72930908 323.31954956 410.01144409 323.50164795 408.53787231 323.56771851 C 407.37380981 323.53933716 406.51086426 323.41558838 406.00802612 323.26455688 C 405.86752319 323.00265503 406.06011963 322.70889282 406.64135742 322.37158203 C 407.59631348 322.05804443 408.84518433 321.66162109 410.39379883 321.25436401 C 412.20965576 320.76898193 414.22998047 320.21408081 416.45944214 319.50451660 C 418.81420898 318.69348145 421.30438232 317.72366333 423.86590576 316.64559937 C 426.53872681 315.46267700 429.21871948 314.16009521 431.90637207 312.79516602 C 434.64477539 311.39361572 437.32818604 309.90267944 439.92965698 308.32986450 C 442.42968750 306.62817383 444.83105469 304.82308960 447.10745239 302.95336914 C 449.31500244 301.02777100 451.41827393 299.08309937 453.46292114 297.17968750 C 455.42227173 295.22775269 457.24496460 293.23452759 458.98507690 291.27969360 C 460.67053223 289.30618286 462.28155518 287.35821533 463.84426880 285.43548584 C 465.35296631 283.46817017 466.75735474 281.52014160 468.15090942 279.55465698 C 469.56820679 277.60800171 471.00402832 275.69729614 460.79904175 293.89300537" stroke-width="0.48496950" fill="rgb(61, 176, 23)" opacity="1.0" stroke="rgb(70, 175, 37)" stroke-opacity="0.51512724" stroke-linecap="round" stroke-linejoin="round"/>

    <path d="M 335.29360962 426.30633545 C 326.69970703 431.01968384 317.94909668 435.34814453 308.90573120 438.95816040 C 299.86431885 442.26159668 290.63253784 444.71731567 281.16958618 446.44497681 C 271.51968384 447.64471436 261.76620483 448.34289551 252.01957703 448.59622192 C 242.27963257 448.29623413 232.50482178 447.27194214 222.75988770 445.41336060 C 212.96301270 443.03060913 203.36749268 439.96203613 193.93389893 436.02227783 C 184.56832886 431.90365601 175.61520386 426.86187744 167.18223572 420.91009521 C 158.82797241 414.77496338 151.32815552 407.56677246 144.37097168 399.71209717 C 137.49031067 391.61926270 131.45930481 382.88424683 126.20213318 373.53451538 C 121.18137360 363.88421631 116.90897369 354.00073242 113.77188110 343.57290649 C 110.90050507 332.92999268 108.83525848 322.23550415 107.94732666 311.40216064 C 107.30860901 300.68673706 107.83821869 289.97216797 109.11898041 279.36700439 C 110.22262573 269.03073120 112.45570374 258.97985840 115.70813751 249.32563782 C 119.33602142 239.78849792 123.45413971 230.65036011 128.50262451 222.01051331 C 133.79299927 213.52415466 139.73512268 205.60404968 146.40997314 198.27729797 C 153.36911011 191.25604248 160.66838074 184.65718079 168.58847046 178.87599182 C 176.76580811 173.44282532 185.24909973 168.57231140 194.09780884 164.54814148 C 203.02479553 160.73065186 212.07318115 157.63201904 221.42781067 155.35714722 C 230.79304504 153.35176086 240.30944824 152.11334229 249.98442078 151.92413330 C 259.77874756 151.76707458 269.61239624 152.22297668 279.46124268 153.66998291 C 289.31686401 155.57751465 299.13909912 158.16691589 308.88171387 161.45669556 C 318.51455688 165.25465393 327.71246338 169.71632385 336.63183594 175.11480713 C 345.42343140 180.68504333 353.71383667 187.14533997 361.37924194 194.31146240 C 368.90194702 201.74710083 375.83776855 209.83839417 381.91174316 218.61152649 C 387.64154053 227.77566528 392.48745728 237.53602600 396.39337158 247.79209900 C 400.03237915 258.15029907 402.69900513 268.70352173 404.40536499 279.45019531 C 405.79901123 290.15368652 405.88064575 300.83923340 405.22741699 311.45150757 C 404.09100342 321.81243896 401.94592285 332.07650757 399.17532349 342.03408813 C 396.23764038 351.87646484 392.33261108 361.31781006 387.50823975 370.44250488 C 382.38583374 379.45187378 376.59057617 388.13623047 369.74923706 396.19021606 C 362.56674194 404.24160767 355.58569336 412.58187866 335.29360962 426.30633545" stroke-width="1.82531023" fill="rgb(0, 120, 0)" opacity="1.0" stroke="rgb(13, 80, 18)" stroke-opacity="0.99998313" stroke-linecap="round" stroke-linejoin="round"/>
    <path d="M 359.62084961 390.28131104 C 353.36315918 395.76141357 346.96533203 401.22158813 340.40515137 406.45935059 C 333.58337402 411.41119385 326.44573975 416.06143188 319.01928711 420.28857422 C 311.24258423 424.10183716 303.18173218 427.42379761 294.82687378 430.29483032 C 286.20471191 432.56643677 277.36505127 434.33743286 268.30563354 435.55407715 C 259.13647461 436.13003540 249.81976318 436.07354736 240.50205994 435.35873413 C 231.14270020 434.01684570 221.81843567 432.03717041 212.59407043 429.48358154 C 203.55220032 426.26229858 194.69892883 422.48974609 186.13500977 418.05795288 C 177.91767883 413.00143433 170.10630798 407.33587646 162.69013977 401.06277466 C 155.84010315 394.22817993 149.40621948 386.86395264 143.54132080 379.05789185 C 138.27139282 370.79977417 133.51989746 362.18460083 129.40217590 353.24325562 C 125.85054779 344.06246948 122.93243408 334.65451050 120.65274811 325.11398315 C 118.95984650 315.48260498 117.92218781 305.80364990 117.56074524 296.12622070 C 117.85308838 286.53768921 118.82296753 277.06506348 120.48247528 267.71276855 C 122.81629181 258.59960938 125.77996826 249.75038147 129.36798096 241.09136963 C 133.53344727 232.82394409 138.20339966 224.85054016 143.42652893 217.23471069 C 149.19430542 210.09385681 155.42510986 203.35522461 162.08386230 197.05061340 C 169.17094421 191.25334167 176.58824158 185.87953186 184.34002686 181.00292969 C 192.39546204 176.67172241 200.69281006 172.83450317 209.25628662 169.58038330 C 217.98521423 166.87145996 226.92051697 164.80256653 235.97521973 163.34197998 C 245.15875244 162.50294495 254.41038513 162.33691406 263.69088745 162.74632263 C 272.99224854 163.82064819 282.22796631 165.54437256 291.40249634 167.85906982 C 300.44265747 170.74967957 309.37008667 174.27278137 318.02838135 178.28074646 C 326.46087646 182.84910583 334.61984253 187.96678162 342.38031006 193.56985474 C 349.75637817 199.64346313 356.68872070 206.22174072 363.06240845 213.24241638 C 368.88345337 220.69853210 374.15060425 228.48257446 378.77459717 236.69602966 C 382.80941772 245.08050537 386.22564697 253.72528076 389.04290771 262.53485107 C 391.16149902 271.44302368 392.72695923 280.38830566 393.57339478 289.37887573 C 393.84176636 298.34292603 393.45266724 307.21911621 392.50888062 316.05749512 C 391.02694702 324.74822998 389.13543701 333.37927246 386.97875977 341.91259766 C 384.70037842 350.41897583 382.34539795 358.91412354 359.62084961 390.28131104" stroke-width="1.32387304" fill="rgb(0, 138, 0)" opacity="1.0" stroke="rgb(0, 141, 1)" stroke-opacity="0.8443528" stroke-linecap="round" stroke-linejoin="round"/>
    <path d="M 305.29174805 261.43365479 C 303.89852905 263.55398560 302.51171875 265.65719604 301.17758179 267.64569092 C 300.07672119 269.57254028 298.80633545 271.05529785 297.14944458 272.05508423 C 295.01574707 272.58935547 292.43627930 272.82659912 289.59054565 273.00662231 C 286.51248169 273.25152588 283.31539917 273.76007080 279.93801880 274.54162598 C 276.44671631 275.56289673 272.80023193 276.65005493 269.01870728 277.56195068 C 265.08145142 278.04132080 260.94815063 278.27880859 256.80075073 278.40991211 C 252.61898804 278.46429443 248.41665649 278.45587158 244.24279785 278.49789429 C 240.18606567 278.61584473 236.26138306 278.26696777 232.45141602 277.19943237 C 228.77197266 275.47845459 225.21076965 273.29898071 221.69667053 270.81341553 C 218.37728882 268.11502075 215.12174988 265.45281982 211.79646301 263.05545044 C 208.40394592 261.19903564 205.25724792 259.50357056 202.69917297 257.67984009 C 200.82586670 255.58753967 199.70521545 253.45573425 199.15417480 251.66181946 C 199.21183777 250.42881775 200.00843811 249.75332642 201.46940613 249.47071838 C 203.27296448 249.30432129 205.03977966 248.98304749 206.34167480 248.39817810 C 206.97145081 247.14680481 207.38288879 245.37080383 208.03430176 243.29841614 C 209.19247437 241.08529663 210.90576172 238.80065918 213.08483887 236.52294922 C 215.60742188 234.24139404 218.45683289 231.99089050 221.39321899 229.72724915 C 224.51974487 227.61228943 227.93527222 225.84556580 231.57170105 224.37854004 C 235.39640808 223.06854248 239.35444641 221.92480469 243.36436462 220.86930847 C 247.49632263 220.00851440 251.58729553 219.24809265 255.63055420 218.53091431 C 259.60864258 217.86065674 263.56787109 217.31974792 267.40078735 216.73919678 C 271.09616089 215.88375854 274.52090454 214.81050110 277.86184692 213.93650818 C 281.16885376 213.24348450 284.40148926 212.82440186 287.37420654 212.49378967 C 289.97375488 211.82394409 292.28866577 211.30145264 294.43972778 211.35186768 C 296.41455078 211.80278015 298.25973511 212.57302856 299.90457153 213.60420227 C 301.39309692 214.93045044 302.70422363 216.61390686 303.90084839 218.53205872 C 305.00567627 220.61915588 305.98239136 222.76860046 306.85366821 225.11982727 C 307.60623169 227.61636353 308.23233032 230.12995911 308.81103516 232.62315369 C 309.33654785 235.19076538 309.73922729 237.73167419 310.09490967 240.29689026 C 310.34912109 242.71354675 310.49664307 245.14224243 305.29174805 261.43365479" stroke-width="2.00000000" fill="rgb(41, 227, 81)" opacity="1.0" stroke="rgb(10, 0, 17)" stroke-opacity="0.68893135" stroke-linecap="round" stroke-linejoin="round"/>
    <path d="M 328.25531006 223.64994812 C 327.02041626 225.63488770 325.85266113 227.53443909 324.64419556 229.43795776 C 323.47613525 231.29853821 322.36648560 233.08769226 321.25463867 234.74568176 C 320.17398071 236.32479858 319.17950439 237.80168152 318.23663330 239.08093262 C 317.34750366 240.23027039 316.51489258 241.21282959 315.73919678 242.03575134 C 315.01266479 242.70472717 314.38504028 243.12918091 313.68777466 243.36561584 C 312.99707031 243.48655701 312.22183228 243.39012146 311.40341187 243.06695557 C 310.48565674 242.60881042 309.56011963 241.99778748 308.63613892 241.20356750 C 307.74237061 240.19444275 306.91082764 238.99189758 306.23498535 237.66561890 C 305.83004761 236.18695068 305.70108032 234.57911682 305.69702148 232.87954712 C 305.72744751 231.16027832 305.68121338 229.52143860 305.45260620 228.04570007 C 304.97851562 226.70391846 304.19387817 225.65803528 303.05551147 224.87962341 C 301.60025024 224.11730957 300.06896973 223.18070984 298.77508545 221.95973206 C 297.91955566 220.39569092 297.28948975 218.55316162 296.77120972 216.55882263 C 296.45596313 214.48570251 296.56161499 212.46540833 296.77832031 210.56523132 C 297.39160156 208.85308838 298.13049316 207.37173462 299.10629272 206.04989624 C 300.09097290 204.83828735 301.07971191 203.91348267 301.93206787 203.30825806 C 302.93878174 203.14567566 304.19107056 203.38496399 305.52255249 203.99464417 C 306.79647827 204.75962830 308.07699585 205.54034424 309.43905640 206.37347412 C 310.62500000 207.22422791 311.55825806 208.27902222 312.15933228 209.65431213 C 312.68341064 211.05465698 313.14901733 212.37242126 328.25531006 223.64994812" stroke-width="2.00000000" fill="rgb(240, 255, 120)" opacity="1.0" stroke="rgb(13, 134, 30)" stroke-opacity="1.0" stroke-linecap="round" stroke-linejoin="round"/>
    <path d="M 305.85513306 221.27005005 C 304.94293213 220.05781555 304.16165161 218.79891968 303.58963013 217.51417542 C 303.31118774 216.13101196 303.22369385 214.78533936 303.24185181 213.49728394 C 303.45059204 212.24143982 303.92041016 210.98875427 304.51486206 209.94129944 C 305.27917480 208.93043518 306.06777954 208.10748291 306.87966919 207.59371948 C 307.87313843 207.48654175 308.85375977 207.72875977 309.63543701 208.44039917 C 310.37380981 209.35946655 310.92062378 210.51655579 311.44613647 211.69302368 C 312.38024902 212.46243286 313.59609985 212.96565247 314.96520996 213.42503357 C 316.42071533 214.12721252 317.92724609 215.03433228 319.42910767 216.09780884 C 320.95419312 217.25814819 322.50079346 218.36361694 323.93997192 219.56872559 C 325.44290161 220.73887634 326.73144531 222.00010681 327.89663696 223.29992676 C 328.76354980 224.65602112 329.39639282 226.09214783 329.81054688 227.60151672 C 330.10556030 229.05177307 330.24212646 230.53080750 330.12252808 231.97453308 C 329.85784912 233.38627625 329.28561401 234.73162842 328.49581909 235.98190308 C 327.47937012 237.10545349 326.13668823 238.11329651 324.53567505 238.89759827 C 322.70654297 239.52543640 320.70675659 239.95069885 318.49713135 240.21191406 C 316.23803711 240.37098694 313.92797852 240.28590393 311.67880249 239.94230652 C 309.63516235 239.38990784 307.88150024 238.51239014 306.56903076 237.24180603 C 305.90988159 235.65972900 305.87829590 233.71896362 306.35379028 231.58087158 C 307.30252075 229.26542664 308.50173950 226.76762390 309.91427612 224.19560242 C 311.47302246 221.62530518 312.97628784 219.05462646 305.85513306 221.27005005" stroke-width="0.67736107" fill="rgb(0, 6, 3)" opacity="1.0" stroke="rgb(4, 53, 8)" stroke-opacity="0.78406435" stroke-linecap="round" stroke-linejoin="round"/>
    <path d="M 319.38650513 218.94351196 C 320.87115479 219.97863770 322.23141479 221.00596619 323.55099487 222.09815979 C 324.82250977 223.11251831 325.99688721 224.11318970 326.95391846 225.12351990 C 327.59173584 226.30072021 328.00152588 227.48826599 328.31054688 228.61953735 C 328.53039551 229.54978943 328.60205078 230.25527954 328.17816162 230.68736267 C 327.22906494 230.98214722 325.93841553 231.18177795 324.31680298 231.15695190 C 322.37847900 231.25727844 320.26980591 231.50798035 318.02572632 231.88075256 C 315.69433594 232.40533447 313.29672241 232.98083496 310.82803345 233.53543091 C 308.37191772 234.21173096 305.96322632 234.90361023 303.67120361 235.66027832 C 301.44900513 236.60720825 299.30291748 237.50083923 297.21560669 238.36250305 C 295.29226685 239.08044434 293.71917725 240.07467651 292.47463989 241.39057922 C 291.26797485 242.75265503 290.09451294 243.94531250 288.93835449 244.88752747 C 287.93927002 245.62861633 287.03771973 246.04205322 286.33868408 246.02688599 C 285.87185669 245.51998901 285.57015991 244.63343811 285.29684448 243.45964050 C 284.97097778 242.13304138 284.81365967 240.73889160 284.87948608 239.41743469 C 285.31527710 238.20767212 286.15945435 237.16735840 287.49697876 236.31114197 C 289.21420288 235.49537659 291.14044189 234.54977417 293.21594238 233.40780640 C 295.32275391 232.06376648 297.47213745 230.68020630 299.65023804 229.40272522 C 301.93124390 228.39370728 304.16946411 227.47492981 306.25283813 226.45539856 C 307.96350098 224.92974854 309.22476196 222.97175598 310.27719116 220.76776123 C 311.27978516 218.50033569 312.25695801 216.15042114 319.38650513 218.94351196" stroke-width="0.69435084" fill="rgb(239, 239, 177)" opacity="1.0" stroke="rgb(149, 160, 111)" stroke-opacity="0.7125127" stroke-linecap="round" stroke-linejoin="round"/>
    <path d="M 326.70397949 236.42619324 C 325.28598022 237.82458496 323.97180176 239.28671265 322.56582642 240.61990356 C 321.19055176 241.95111084 319.84204102 243.21022034 318.45413208 244.33818054 C 317.07971191 245.35450745 315.80859375 246.28683472 314.60647583 247.18684387 C 313.47479248 247.93334961 312.39422607 248.47880554 311.34603882 248.81184387 C 310.42376709 248.96562195 309.56448364 248.81790161 308.73178101 248.38598633 C 307.86911011 247.76466370 306.94143677 246.96417236 305.96200562 246.14703369 C 304.84793091 245.48660278 303.63638306 244.94799805 302.32974243 244.54046631 C 300.94195557 244.42379761 299.49722290 244.47000122 298.04467773 244.52455139 C 296.63977051 244.56770325 295.37484741 244.60655212 294.26116943 244.68595886 C 293.33596802 244.71281433 292.68734741 244.62561035 292.34716797 244.53216553 C 292.37136841 244.38574219 292.64288330 244.08567810 293.23022461 243.71173096 C 294.01290894 243.23326111 294.91494751 242.60252380 295.92861938 241.96229553 C 297.18768311 241.32475281 298.52764893 240.75907898 299.93444824 240.14990234 C 301.42791748 239.48820496 302.95391846 238.88330078 304.49395752 238.34233093 C 306.08651733 237.83012390 307.70922852 237.34321594 309.21554565 236.90655518 C 310.72308350 236.54754639 312.19290161 236.27613831 313.64038086 235.98843384 C 315.17807007 235.73789978 316.63397217 235.52436829 318.03082275 235.22210693 C 319.40521240 234.86305237 320.82397461 234.61935425 322.19705200 234.57003784 C 323.59637451 234.54530334 324.85815430 234.44654846 326.06945801 234.11085510 C 327.30038452 233.60603333 328.51574707 233.02189636 326.70397949 236.42619324" stroke-width="2.00000000" fill="rgb(49, 232, 76)" opacity="1.0" stroke="rgb(11, 38, 13)" stroke-opacity="0.52775013" stroke-linecap="round" stroke-linejoin="round"/>
    <path d="M 257.35729980 306.95016479 C 257.22009277 308.38574219 257.02468872 309.62091064 256.63504028 310.50738525 C 255.87527466 310.93063354 254.88200378 310.82165527 253.50495911 310.31317139 C 251.75805664 309.58645630 249.85299683 308.65792847 247.70022583 307.63397217 C 245.34468079 306.57070923 242.83627319 305.52542114 240.20791626 304.58044434 C 237.46520996 303.84228516 234.82446289 302.89736938 232.49353027 301.53298950 C 230.50518799 299.75045776 228.75608826 297.69180298 227.37725830 295.15789795 C 226.16906738 292.31301880 225.19520569 289.14883423 224.30749512 285.77978516 C 223.36860657 282.41690063 222.31336975 279.08822632 221.09713745 275.87225342 C 219.63580322 272.87414551 218.33482361 270.03964233 217.47901917 267.29953003 C 217.30815125 264.59069824 217.47793579 261.95291138 217.61408997 259.41775513 C 217.62792969 257.14654541 217.51358032 255.16221619 217.43960571 253.48262024 C 217.38970947 252.24824524 217.44424438 251.50001526 217.73197937 251.13475037 C 218.51229858 251.30427551 219.64741516 251.79133606 221.12197876 252.46781921 C 222.70214844 253.36950684 224.34071350 254.56713867 225.96954346 256.00186157 C 227.38441467 257.76364136 228.63737488 259.80804443 229.85096741 262.03503418 C 231.06478882 264.32153320 232.12846375 266.86065674 233.11372375 269.53765869 C 234.10557556 272.25479126 235.03439331 275.06225586 236.02641296 277.82827759 C 236.94071960 280.66067505 237.90846252 283.44088745 238.89735413 286.11978149 C 239.71556091 288.73831177 240.61750793 291.19891357 241.63661194 293.48846436 C 242.50459290 295.61755371 243.47676086 297.56823730 257.35729980 306.95016479" stroke-width="2.00000000" fill="rgb(42, 226, 80)" opacity="1.0" stroke="rgb(4, 0, 8)" stroke-opacity="0.5799965" stroke-linecap="round" stroke-linejoin="round"/>
    <path d="M 274.02468872 257.13562012 C 275.44769287 255.83198547 276.95095825 254.61506653 278.52947998 253.56820679 C 280.00354004 252.69326782 281.34362793 251.87301636 282.51306152 251.05596924 C 283.39617920 250.42120361 284.02301025 250.01609802 284.42572021 249.95217896 C 284.56091309 250.35974121 284.57244873 251.18585205 284.51947021 252.40711975 C 284.50674438 253.94035339 284.43969727 255.88095093 284.45144653 258.03018188 C 284.52075195 260.43814087 284.57299805 263.01361084 284.37472534 265.78353882 C 283.88705444 268.62515259 283.65646362 271.56698608 283.60891724 274.60491943 C 283.67346191 277.68798828 283.61608887 280.61953735 283.60534668 283.42416382 C 283.65362549 285.98153687 283.44134521 288.19152832 282.68182373 289.93820190 C 281.52471924 291.21173096 280.61560059 292.25183105 280.43084717 293.07952881 C 281.16009521 293.43933105 282.60092163 293.35925293 284.52459717 293.15161133 C 286.56500244 293.34722900 288.58435059 294.03298950 290.38934326 295.19985962 C 291.76263428 296.81054688 292.76681519 298.40377808 293.39147949 299.69842529 C 293.42742920 300.54580688 292.73980713 300.88110352 291.45593262 300.87435913 C 289.65093994 300.74575806 287.56570435 300.36428833 285.28195190 299.93405151 C 282.96447754 299.75909424 280.75054932 299.51837158 278.74557495 299.00473022 C 277.10656738 298.10714722 275.97851562 296.69262695 275.22406006 294.82907104 C 274.73742676 292.62445068 274.50906372 290.15252686 274.44500732 287.40066528 C 274.41342163 284.52120972 274.39520264 281.58331299 274.40426636 278.63217163 C 274.16082764 275.66653442 273.87078857 272.65316772 274.02468872 257.13562012" stroke-width="2.00000000" fill="rgb(46, 227, 79)" opacity="1.0" stroke="rgb(2, 0, 4)" stroke-opacity="0.552453" stroke-linecap="round" stroke-linejoin="round"/>
    <path d="M 225.41198730 320.82189941 C 225.66790771 322.00973511 225.75598145 323.18746948 225.60821533 324.15408325 C 225.24681091 324.71807861 224.60830688 324.82208252 223.73493958 324.60412598 C 222.82089233 324.00521851 221.84777832 323.05288696 220.59666443 321.80776978 C 219.07530212 320.54684448 217.36447144 319.21990967 215.43560791 317.84417725 C 213.33476257 316.48458862 211.17843628 314.94644165 209.03582764 313.30343628 C 207.02178955 311.33383179 205.13302612 309.15258789 203.37161255 306.92282104 C 201.75398254 304.56655884 200.17002869 302.21185303 198.78752136 299.91802979 C 197.61643982 297.56381226 196.75791931 295.19277954 196.49034119 292.72167969 C 196.83038330 290.07766724 197.64598083 287.38427734 198.81399536 284.76687622 C 200.30065918 282.13668823 202.14978027 279.78778076 204.16793823 277.55493164 C 206.31135559 275.57586670 208.41856384 273.82315063 210.47372437 272.24896240 C 212.14411926 270.90435791 213.57411194 269.67959595 214.72653198 268.95159912 C 215.67330933 268.95944214 216.40417480 269.48461914 217.08438110 270.56979370 C 217.70997620 271.96536255 218.24992371 273.35626221 218.64753723 274.70910645 C 218.82044983 275.78463745 218.46614075 276.67025757 217.53930664 277.27627563 C 216.11007690 277.81741333 214.59976196 278.61492920 213.04595947 279.60842896 C 211.56150818 280.80786133 210.15518188 282.02822876 209.11517334 283.29336548 C 208.58087158 284.67352295 208.68460083 286.20431519 209.16078186 287.98846436 C 209.67272949 290.01272583 210.14466858 292.24740601 210.55870056 294.65905762 C 210.81904602 297.23889160 210.96107483 299.85980225 225.41198730 320.82189941" stroke-width="2.00000000" fill="rgb(54, 219, 82)" opacity="1.0" stroke="rgb(5, 30, 9)" stroke-opacity="0.96664625" stroke-linecap="round" stroke-linejoin="round"/>
    <path d="M 302.52456665 312.38043213 C 300.22305298 314.39141846 297.98437500 316.32061768 295.76013184 318.00021362 C 293.77459717 319.49594116 291.98867798 320.85479736 290.51284790 322.00927734 C 289.40573120 322.87796021 288.61889648 323.19052124 288.15850830 322.92828369 C 287.99044800 322.05975342 288.15740967 320.76437378 288.80267334 319.05950928 C 289.88394165 316.99447632 291.25836182 314.75158691 292.88513184 312.31887817 C 294.65982056 309.66937256 296.38247681 306.71804810 297.94805908 303.65185547 C 299.15890503 300.55621338 299.93359375 297.35430908 300.42163086 294.16043091 C 300.77716064 291.07958984 300.78060913 288.22467041 300.20254517 285.63375854 C 299.09375000 283.38073730 297.43698120 281.40829468 295.54669189 279.64611816 C 293.62478638 277.85787964 291.79824829 276.13403320 289.95150757 274.70401001 C 288.25744629 273.45816040 286.94155884 272.41171265 286.12188721 271.46511841 C 285.97122192 270.53012085 286.42230225 269.70782471 287.50762939 268.94937134 C 289.05926514 268.10195923 290.65682983 267.11904907 292.21414185 266.12213135 C 293.48361206 265.14916992 294.53302002 264.52572632 295.27169800 264.69885254 C 295.65832520 265.82888794 296.05957031 267.52905273 296.68484497 269.38409424 C 297.86422729 270.94967651 299.64437866 272.27557373 301.78005981 273.50173950 C 303.82922363 274.98553467 305.70764160 276.92504883 307.28378296 279.22949219 C 308.43994141 281.74392700 309.15582275 284.55895996 309.45263672 287.67999268 C 309.51968384 291.07339478 309.33181763 294.66510010 308.90585327 298.24725342 C 308.42971802 301.91702271 307.99224854 305.67398071 302.52456665 312.38043213" stroke-width="2.00000000" fill="rgb(47, 214, 78)" opacity="1.0" stroke="rgb(4, 0, 9)" stroke-opacity="0.6287588" stroke-linecap="round" stroke-linejoin="round"/>
    <path d="M 120.94592285 271.70278931 C 123.43574524 271.35064697 125.84922791 271.11917114 128.18475342 271.14382935 C 130.24916077 271.54788208 132.09843445 271.82037354 133.60302734 271.94372559 C 134.68913269 272.03399658 135.40603638 272.26675415 135.69212341 272.79144287 C 135.47373962 273.54998779 134.80320740 274.62100220 133.80259705 275.79708862 C 132.56141663 277.08401489 131.11149597 278.58056641 129.53507996 280.26815796 C 127.72590637 281.91418457 125.79149628 283.43838501 123.56769562 284.75595093 C 121.08007050 285.87823486 118.35937500 286.88165283 115.56127167 287.82000732 C 112.68365479 288.65563965 109.62423706 289.24856567 106.56134033 289.62542725 C 103.53462982 289.88885498 100.49031067 290.02932739 97.35903931 289.97451782 C 94.30726624 289.77780151 91.43672943 289.45181274 88.70482635 288.95172119 C 86.01163483 288.21475220 83.45825195 287.33843994 81.18074799 286.41323853 C 79.06603241 285.46493530 77.16287994 284.40335083 75.48855591 283.25201416 C 73.97334290 282.26550293 72.67692566 281.39700317 71.56329346 280.62939453 C 70.79605865 279.89443970 70.42298889 279.25704956 70.46913147 278.51498413 C 70.93708801 277.74731445 71.81640625 276.99826050 73.17942047 276.32495117 C 74.87973785 275.68963623 76.89784241 275.04190063 79.20227814 274.39581299 C 81.68457794 273.62655640 84.36373901 272.74041748 87.17131042 271.85864258 C 90.04509735 270.91043091 93.02710724 269.94168091 96.14292145 268.96957397 C 99.23361969 268.04800415 102.35110474 267.09365845 105.49248505 266.16290283 C 108.62618256 265.21832275 111.75358582 264.29638672 120.94592285 271.70278931" stroke-width="1.52768326" fill="rgb(254, 200, 224)" opacity="1.0" stroke="rgb(49, 42, 52)" stroke-opacity="0.7870013" stroke-linecap="round" stroke-linejoin="round"/>
    <path d="M 121.70306396 288.32598877 C 121.15425110 290.43145752 120.62964630 292.46600342 120.14166260 294.43823242 C 119.57028961 296.35858154 119.08470917 298.20294189 118.67884064 299.99462891 C 118.58199310 301.56372070 118.44817352 302.94308472 118.01480865 304.08343506 C 117.28077698 304.99279785 116.24607849 305.52728271 114.94892883 305.54592896 C 113.47331238 305.01281738 111.76730347 304.07238770 109.90426636 302.68875122 C 107.83539581 300.86123657 105.52886200 298.71585083 103.04446411 296.19268799 C 100.43968964 293.54574585 97.66835785 290.72241211 94.75478363 287.95129395 C 91.70940399 285.20907593 88.62593842 282.41690063 85.48375702 279.83447266 C 82.42778015 277.51309204 79.54113007 275.38122559 77.04895020 273.36807251 C 75.33132935 271.19866943 74.17070007 269.02032471 73.28720856 266.98489380 C 72.58239746 265.27822876 72.27011108 263.89236450 72.44304657 262.84515381 C 73.07228088 262.23840332 74.12335968 261.98516846 75.55553436 262.10125732 C 77.25151825 262.24838257 78.97798920 262.40600586 80.61444092 262.72540283 C 81.84240723 263.40878296 82.75437164 263.95770264 83.46061707 264.09332275 C 83.90087891 263.55691528 83.93539429 262.51318359 83.72252655 261.13284302 C 83.65930176 259.46273804 83.77194214 257.64465332 84.17584991 255.88665771 C 84.86524963 254.32507324 85.84636688 253.08247375 86.93733215 252.27870178 C 88.14994049 252.10813904 89.46547699 252.56918335 90.92556000 253.43066406 C 92.48667145 254.55075073 94.19795990 255.73226929 95.99150848 256.87924194 C 97.80024719 258.10443115 99.62348938 259.34149170 121.70306396 288.32598877" stroke-width="0.27788526" fill="rgb(64, 62, 70)" opacity="1.0" stroke="rgb(57, 0, 0)" stroke-opacity="0.28536493" stroke-linecap="round" stroke-linejoin="round"/>
    <path d="M 110.75099945 298.96148682 C 109.63296509 299.95211792 108.46266937 300.92422485 107.33606720 301.86856079 C 106.40859985 302.98004150 105.63478851 304.36599731 105.03829956 305.74084473 C 104.27030182 307.02069092 103.45952606 308.23623657 102.74900818 309.36962891 C 102.17425537 310.48864746 101.78993988 311.45822144 101.23857117 312.01672363 C 100.44492340 312.15270996 99.58307648 311.81323242 98.62363434 310.99334717 C 97.52718353 309.82159424 96.40956116 308.32843018 95.28688812 306.52795410 C 94.19669342 304.42224121 93.30765533 302.08471680 92.65920258 299.52865601 C 92.20681763 296.76232910 91.94517517 293.82543945 91.80750275 290.71453857 C 91.79793549 287.61734009 91.94374847 284.50299072 92.21337128 281.28167725 C 92.54965210 278.10986328 92.96133423 275.03967285 93.44575500 272.00418091 C 94.00959015 269.11569214 94.61848450 266.37814331 95.24405670 263.72894287 C 95.90880585 261.24548340 96.55430603 258.94860840 97.35636139 256.90924072 C 98.38911438 255.15946960 99.34103394 253.55561829 100.09471893 252.09823608 C 100.79428864 250.99703979 101.41403961 250.24317932 102.06373596 249.89416504 C 102.71199036 250.05618286 103.48097229 250.72837830 104.33213806 251.74485779 C 105.28665924 253.09735107 106.29415894 254.72512817 107.21747589 256.61709595 C 108.19406891 258.80297852 109.24459076 261.11532593 110.36072540 263.49356079 C 111.55623627 265.94018555 112.77692413 268.54321289 113.99161530 271.24127197 C 115.21442413 273.96301270 116.45518494 276.64447021 117.74958801 279.42456055 C 119.01440430 282.18676758 120.23157501 284.97558594 110.75099945 298.96148682" stroke-width="1.42204845" fill="rgb(247, 194, 222)" opacity="1.0" stroke="rgb(66, 50, 68)" stroke-opacity="0.87212473" stroke-linecap="round" stroke-linejoin="round"/>
    <path d="M 94.86309814 295.20001221 C 93.55925751 296.65637207 92.11687469 297.83737183 90.46492767 298.71728516 C 88.50125885 299.13217163 86.30813599 299.26629639 84.11784363 299.28826904 C 81.88853455 299.35656738 79.69837189 299.37734985 77.71271515 299.23205566 C 75.94358826 298.97827148 74.55551147 298.37097168 73.51566315 297.54278564 C 72.83255768 296.63800049 72.53995514 295.57818604 72.70503235 294.42486572 C 73.43601990 293.31631470 74.57398224 292.19030762 76.02550507 290.92428589 C 77.74067688 289.55752563 79.72496796 288.27209473 82.06652069 287.27114868 C 84.54164124 286.12481689 87.04278564 284.63607788 89.55640411 282.86251831 C 92.05595398 280.76980591 94.39493561 278.37802124 96.70150757 275.80032349 C 98.97401428 273.21374512 101.24433136 270.59710693 103.47275543 268.05215454 C 105.64643097 265.60409546 107.80627441 263.28787231 109.98069000 261.32067871 C 112.19170380 259.69274902 114.27797699 258.27810669 116.01799011 256.89797974 C 117.46129608 255.65719604 118.86672211 254.81925964 120.19744873 254.38630676 C 121.26684570 254.11576843 122.05227661 254.27789307 122.54638672 254.76808167 C 122.72040558 255.66149902 122.64765930 256.97885132 122.55539703 258.64959717 C 122.40554047 260.48037720 122.35893250 262.48217773 122.17040253 264.52145386 C 122.01351166 266.57473755 121.71858978 268.61306763 121.18708801 270.44210815 C 120.15475464 272.07412720 118.79046631 273.53784180 117.20936584 274.99002075 C 115.63793182 276.50717163 114.04354858 278.12158203 112.38267517 279.79315186 C 110.79857635 281.49600220 109.26326752 283.22842407 94.86309814 295.20001221" stroke-width="0.34796980" fill="rgb(63, 57, 76)" opacity="1.0" stroke="rgb(34, 0, 0)" stroke-opacity="0.41552162" stroke-linecap="round" stroke-linejoin="round"/>
    <path d="M 110.66853333 262.53445435 C 111.75429535 264.02868652 112.87376404 265.50915527 113.96286774 267.03720093 C 115.08560944 268.63116455 116.15663910 270.17755127 117.13156128 271.73858643 C 117.97447205 273.33700562 118.71086884 274.91979980 119.42935181 276.43179321 C 120.26095581 277.74261475 121.08209229 278.83831787 121.79125214 279.86270142 C 122.17502594 280.75323486 122.19180298 281.54977417 121.74791718 282.30004883 C 120.91403198 282.94207764 119.77967834 283.57012939 118.34146881 284.09057617 C 116.67469788 284.57278442 114.78638458 284.95507812 112.77206421 285.35971069 C 110.68359375 285.58361816 108.51176453 285.72314453 106.25059509 285.81790161 C 103.88998413 285.75918579 101.51479340 285.63650513 99.14200592 285.37414551 C 96.80703735 284.97052002 94.50711823 284.39880371 92.28467560 283.73159790 C 90.14436340 282.88690186 88.07678223 281.87698364 86.13814545 280.69995117 C 84.37671661 279.36614990 82.75959015 277.83145142 81.22284698 276.26242065 C 79.84429932 274.63662720 78.63336182 272.99960327 77.56784821 271.31591797 C 76.56031036 269.78112793 75.68444061 268.36203003 74.97097015 267.12298584 C 74.49811554 265.90029907 74.21440887 264.92785645 74.12877655 264.22210693 C 74.33306122 263.69857788 74.86296844 263.31307983 75.61972809 263.20550537 C 76.62780762 263.38061523 77.81922913 263.61083984 79.17348480 263.94531250 C 80.53031158 264.47531128 81.95826721 265.22329712 83.34087372 266.18536377 C 84.61788940 267.34579468 85.79019165 268.66671753 86.95624542 270.04418945 C 88.19908905 271.43551636 89.45839691 272.81307983 110.66853333 262.53445435" stroke-width="0.54577976" fill="rgb(255, 204, 225)" opacity="1.0" stroke="rgb(255, 244, 255)" stroke-opacity="0.40803394" stroke-linecap="round" stroke-linejoin="round"/>
    <path d="M 112.07124329 289.39358521 C 111.49315643 290.20828247 110.84676361 291.10488892 110.22937775 291.97583008 C 109.61286926 292.79147339 108.99215698 293.58648682 108.34225464 294.35620117 C 107.68574524 295.05728149 107.08716583 295.65429688 106.40762329 296.16452026 C 105.73899841 296.56378174 105.05570984 296.81384277 104.38361359 296.94702148 C 103.71240997 296.93768311 102.97291565 296.72500610 102.22712708 296.33190918 C 101.49508667 295.72851562 100.71265411 294.97515869 99.95967102 294.02288818 C 99.22241211 292.78372192 98.44398499 291.42941284 97.60044098 289.81787109 C 96.73445892 288.15628052 95.81987762 286.33438110 94.89936829 284.39190674 C 93.99388885 282.32452393 93.02011871 280.17004395 91.98575592 278.05435181 C 90.94692993 275.89959717 89.90995789 273.75067139 88.92322540 271.62649536 C 87.84242249 269.62222290 86.88719177 267.66421509 86.08991241 265.75201416 C 85.61825562 263.85690308 85.46437073 261.97665405 85.40590668 260.21667480 C 85.60508728 258.52371216 85.80783081 257.03536987 86.11363983 255.65222168 C 86.51443481 254.50149536 86.94426727 253.68597412 87.51341248 253.21286011 C 88.29032135 253.12638855 89.20040131 253.53108215 90.20928192 254.25964355 C 91.38919067 255.10775757 92.73361969 256.05908203 94.05075836 257.23181152 C 95.12996674 258.76330566 96.11164856 260.51232910 97.17546082 262.35821533 C 98.42158508 264.24389648 99.70307159 266.14117432 101.06239319 268.10528564 C 102.46998596 270.06686401 103.96366882 272.05776978 105.53619385 274.01913452 C 107.02451324 276.02804565 108.52475739 278.01672363 112.07124329 289.39358521" stroke-width="0.26205912" fill="rgb(246, 196, 219)" opacity="1.0" stroke="rgb(241, 166, 188)" stroke-opacity="0.621012" stroke-linecap="round" stroke-linejoin="round"/>
    <path d="M 110.21289062 262.84469604 C 111.62776947 261.64895630 113.04357910 260.50976562 114.48597717 259.43569946 C 115.86250305 258.49234009 117.04045868 257.53677368 118.08077240 256.72845459 C 118.99664307 256.08941650 119.79099274 255.65827942 120.45936584 255.48719788 C 120.96887970 255.64875793 121.26033783 256.06607056 121.35393524 256.73602295 C 121.28668976 257.71624756 121.13986206 258.95034790 121.01154327 260.47897339 C 120.99066925 262.10678101 120.89989471 263.81863403 120.70908356 265.53265381 C 120.54495239 267.22418213 120.32569122 268.91674805 119.88764191 270.42663574 C 118.92380524 271.72573853 117.74650574 272.95413208 116.41087341 274.24063110 C 114.99399567 275.48141479 113.52646637 276.76397705 111.97836304 278.02938843 C 110.46395874 279.23992920 108.89491272 280.39999390 107.31085968 281.47521973 C 105.77582550 282.46658325 104.23184967 283.40762329 102.75817871 284.14160156 C 101.35273743 284.76193237 99.96854401 285.27896118 98.72122955 285.61346436 C 97.51175690 285.81729126 96.41678619 285.89523315 95.42255402 285.76309204 C 94.51834869 285.52124023 93.77445221 285.13751221 93.08132172 284.59066772 C 92.54927063 283.90597534 92.10795593 283.15936279 91.79444122 282.24313354 C 91.53907776 281.22589111 91.42691040 280.14630127 91.41183472 278.95364380 C 91.47187042 277.69070435 91.61306000 276.40820312 91.82375336 275.03005981 C 92.05526733 273.64782715 92.42558289 272.23153687 92.74323273 270.77316284 C 93.12068939 269.34481812 93.52675629 267.86993408 93.92372131 266.42477417 C 94.35479736 264.98934937 94.74515533 263.52325439 110.21289062 262.84469604" stroke-width="0.55105454" fill="rgb(250, 195, 215)" opacity="1.0" stroke="rgb(114, 100, 109)" stroke-opacity="1.0" stroke-linecap="round" stroke-linejoin="round"/>
    <path d="M 123.65356445 284.75100708 C 126.17073059 286.86456299 128.54727173 288.89291382 130.64752197 290.78533936 C 132.27162170 292.41482544 133.17626953 293.86300659 133.22016907 295.13592529 C 132.41473389 296.11294556 130.87863159 296.79888916 128.86782837 297.09786987 C 126.50838470 297.18530273 124.07131195 297.11029053 121.71627045 296.92843628 C 119.70292664 296.64007568 118.20369720 296.38610840 117.45568848 296.65203857 C 117.46783447 297.75115967 117.59471130 299.37161255 117.50301361 301.23800659 C 117.23217010 302.95742798 116.56363678 304.22912598 115.34062195 304.61547852 C 113.55564880 304.05825806 111.44515991 303.06002808 109.42082214 301.74176025 C 108.06354523 299.86224365 107.11235046 297.61447144 106.09152985 295.26098633 C 104.60179138 293.00527954 102.74497986 290.89831543 100.64882660 288.91760254 C 98.42200470 286.98901367 96.14830780 285.15841675 93.90850067 283.39440918 C 91.65930176 281.82617188 89.45556641 280.48562622 87.41274261 279.41607666 C 85.64348602 278.50393677 84.22396851 277.69152832 83.16098785 276.96789551 C 82.60491943 276.28637695 82.54342651 275.55004883 82.99083710 274.78790283 C 83.78035736 274.04132080 84.91358948 273.33294678 86.30252075 272.72305298 C 87.93938446 272.42562866 89.86288452 272.38555908 91.96393585 272.45043945 C 94.26184082 272.60134888 96.61501312 272.79568481 99.03607178 273.01791382 C 101.51387787 273.26144409 104.02074432 273.55795288 106.55975342 273.85165405 C 109.07633972 274.19058228 111.58898163 274.56735229 114.04399872 274.95404053 C 116.56051636 275.13973999 119.06127167 275.21218872 123.65356445 284.75100708" stroke-width="1.40764296" fill="rgb(243, 191, 216)" opacity="1.0" stroke="rgb(80, 0, 25)" stroke-opacity="0.37042636" stroke-linecap="round" stroke-linejoin="round"/>
    <path d="M 97.73702240 291.45352173 C 96.68852997 292.69451904 95.53166962 293.89077759 94.27025604 295.03106689 C 93.05515289 296.15319824 91.67875671 297.06448364 89.99866486 297.55392456 C 87.96244049 297.72406006 85.80744171 297.81262207 83.56926727 298.08349609 C 81.27999878 298.13909912 79.18679047 298.07229614 77.32288361 297.74774170 C 75.79051208 297.26605225 74.65917206 296.59353638 74.04135132 295.81045532 C 73.90418243 294.99267578 74.37116241 294.13323975 75.28447723 293.15692139 C 76.55511475 292.08258057 78.08255768 290.90625000 79.69506073 289.59494019 C 81.53624725 288.30502319 83.43148804 287.00033569 85.22045135 285.58291626 C 86.84326935 284.04425049 88.07341003 282.26315308 89.02281189 280.21420288 C 89.54310608 277.99108887 89.85121155 275.63537598 90.12912750 273.27258301 C 90.59008026 271.02288818 91.28677368 268.93847656 92.25805664 267.07492065 C 93.51096344 265.43063354 94.82637024 264.04968262 96.36489868 262.92553711 C 98.01483917 262.06326294 99.74171448 261.49819946 101.48737335 261.19201660 C 103.18548584 261.06219482 104.85547638 261.21511841 106.50811768 261.54403687 C 108.00460052 262.08651733 109.37641907 262.84368896 110.66750336 263.70941162 C 111.77980042 264.69271851 112.75542450 265.82540894 113.52985382 267.04037476 C 114.20545197 268.27255249 114.71747589 269.57971191 115.12318420 270.86572266 C 115.37676239 272.12976074 115.49848938 273.35733032 115.48738861 274.51113892 C 115.37883759 275.62582397 115.13971710 276.63168335 114.82324219 277.65499878 C 114.46420288 278.57714844 114.05990601 279.51602173 97.73702240 291.45352173" stroke-width="0.39361867" fill="rgb(242, 186, 211)" opacity="1.0" stroke="rgb(245, 177, 203)" stroke-opacity="0.5592735" stroke-linecap="round" stroke-linejoin="round"/>
    <path d="M 110.73934937 286.15826416 C 109.57974243 287.71362305 108.20553589 289.12249756 106.65911865 290.08566284 C 104.93268585 290.85244751 103.18934631 291.35336304 101.50676727 291.42245483 C 99.79350281 291.02505493 98.24185181 290.24063110 96.89469910 289.07699585 C 95.57028198 287.79367065 94.52539825 286.33224487 93.82794952 284.66967773 C 93.55251312 283.05068970 93.82146454 281.33599854 94.47609711 279.61666870 C 95.34729004 278.17639160 96.36837006 277.05444336 97.49331665 276.22558594 C 98.88012695 275.89822388 100.31204987 275.74301147 101.78691101 275.71575928 C 103.17202759 275.68685913 104.56062317 275.69738770 105.74162292 276.04693604 C 106.67057037 276.88421631 107.74310303 277.80346680 108.88339996 278.73620605 C 110.03031921 279.45993042 111.27038574 279.93948364 110.73934937 286.15826416" stroke-width="1.53577662" fill="rgb(250, 205, 33)" opacity="1.0" stroke="rgb(79, 33, 0)" stroke-opacity="0.8118194" stroke-linecap="round" stroke-linejoin="round"/>
  </g>
</svg>
