<?xml version="1.0" ?>
<svg xmlns="http://www.w3.org/2000/svg" version="1.1" width="512" height="512" viewBox="0 0 512 512">
  <defs/>
  <g>
    <path d="M 456.31527710 440.49395752 C 443.39193726 440.51132202 430.49133301 440.53308105 417.67221069 440.58297729 C 404.84237671 440.52340698 392.06820679 440.49649048 379.37979126 440.50402832 C 366.76495361 440.52285767 354.21249390 440.53564453 341.70855713 440.56542969 C 329.26574707 440.57629395 316.87557983 440.48672485 304.49050903 440.55596924 C 292.09228516 440.54708862 279.70806885 440.56539917 267.27267456 440.50375366 C 254.78840637 440.49563599 242.23280334 440.50344849 229.62979126 440.56597900 C 216.89698792 440.54748535 204.16130066 440.53805542 191.37059021 440.58453369 C 178.51976013 440.55841064 165.68334961 440.48046875 152.91865540 440.51315308 C 140.23692322 440.53921509 127.75719452 440.59472656 115.62503052 440.57287598 C 103.89789581 440.47735596 92.83981323 440.47488403 82.66940308 440.51028442 C 73.63793182 440.53573608 66.13615417 440.46990967 60.41675949 440.55340576 C 56.99903107 440.92370605 55.85859680 439.92895508 56.14149094 436.88122559 C 56.36669159 431.84671021 56.35275269 425.49890137 56.27995682 418.76394653 C 56.27713394 412.22006226 56.16520691 406.58038330 56.35016251 402.60705566 C 57.54488373 401.12664795 60.38593292 401.31823730 64.81589508 401.57244873 C 70.63646698 401.63442993 77.73697662 401.62576294 85.99871063 401.54470825 C 95.28688812 401.56982422 105.38078308 401.64715576 116.15670776 401.62255859 C 127.53227997 401.45217896 139.34854126 401.44903564 151.55654907 401.53125000 C 164.10726929 401.62448120 176.82009888 401.64242554 189.62825012 401.52899170 C 202.52865601 401.53768921 215.47306824 401.58773804 228.43261719 401.54092407 C 241.37832642 401.51675415 254.20834351 401.50531006 266.93856812 401.54025269 C 279.65960693 401.51889038 292.19168091 401.57568359 304.57476807 401.55538940 C 316.76654053 401.60733032 328.71508789 401.61746216 340.38681030 401.56622314 C 351.70867920 401.58587646 362.70178223 401.63958740 373.19384766 401.68719482 C 383.21740723 401.64898682 392.75949097 401.50885010 401.73272705 401.52963257 C 410.00982666 401.57257080 417.63729858 401.52737427 424.63931274 401.60833740 C 430.93350220 401.62152100 436.48791504 401.63406372 441.33377075 401.54287720 C 445.51889038 401.55575562 448.96310425 401.55920410 451.71279907 401.51922607 C 453.83428955 401.45492554 455.36431885 401.47531128 456.16384888 401.56527710 C 456.36068726 401.61059570 456.26113892 401.43017578 456.31527710 440.49395752" stroke-width="2.00000000" fill="rgb(160, 158, 24)" opacity="1.0" stroke="rgb(106, 6, 0)" stroke-opacity="0.9700043" stroke-linecap="round" stroke-linejoin="round"/>
    <path d="M 185.96279907 392.43136597 C 186.56829834 394.60296631 186.50404358 396.62652588 185.79100037 398.28335571 C 184.11006165 399.29028320 181.55297852 399.71658325 178.20596313 399.81814575 C 174.20112610 399.78839111 169.61294556 399.61642456 164.66535950 399.56381226 C 159.42411804 399.68563843 154.05960083 399.68807983 148.73022461 399.60195923 C 143.58502197 399.58639526 138.79544067 399.60070801 134.48168945 399.57730103 C 130.92585754 399.55270386 128.21704102 399.10327148 126.54234314 397.77609253 C 126.10460663 395.50576782 126.34244537 392.31411743 126.53009033 388.20141602 C 126.60955048 383.28225708 126.70950317 377.56921387 126.74399567 371.18115234 C 127.08583832 364.24069214 127.37057495 356.71606445 127.50786591 348.75122070 C 127.66954803 340.41946411 127.70564270 331.76348877 128.10166931 322.89187622 C 128.42680359 313.83789062 128.54486084 304.63168335 128.66667175 295.30908203 C 128.70870972 285.93261719 129.04774475 276.59954834 129.38636780 267.26068115 C 129.48854065 257.90502930 129.64921570 248.68588257 129.78346252 239.54618835 C 129.62138367 230.58847046 129.75343323 221.75476074 130.25245667 213.15774536 C 130.48077393 204.69459534 130.57725525 196.51788330 130.69357300 188.56617737 C 130.74172974 180.99015808 130.74073792 173.74597168 130.72761536 166.93801880 C 130.56997681 160.60566711 130.66217041 154.86285400 131.31437683 149.67768860 C 132.83493042 145.13352966 135.17562866 141.27261353 138.16795349 138.02006531 C 141.74118042 135.43420410 145.71401978 133.49618530 150.00184631 132.18304443 C 154.51574707 131.52854919 159.05007935 131.58686829 163.48939514 132.21864319 C 167.74316406 133.57289124 171.69087219 135.57781982 175.16690063 138.25625610 C 177.96377563 141.58810425 180.08111572 145.60583496 181.42222595 150.23995972 C 181.73304749 155.57583618 181.65815735 161.49737549 181.64343262 167.88529968 C 181.65689087 174.74702454 181.87733459 181.97154236 182.15821838 189.48081970 C 182.35389709 197.23931885 182.55085754 205.20048523 182.55964661 213.27432251 C 182.71995544 221.47052002 183.09597778 229.70217896 183.30400085 238.07286072 C 183.41427612 246.50125122 183.51579285 254.92176819 183.63603210 263.45532227 C 183.76069641 271.96640015 184.04516602 280.41366577 184.26091003 288.89352417 C 184.35081482 297.35140991 184.44163513 305.79550171 184.53904724 314.25332642 C 184.55482483 322.70825195 184.87251282 331.12286377 185.96279907 392.43136597" stroke-width="2.00000000" fill="rgb(250, 71, 2)" opacity="1.0" stroke="rgb(141, 10, 0)" stroke-opacity="0.9017567" stroke-linecap="round" stroke-linejoin="round"/>
    <path d="M 385.54681396 399.54760742 C 379.67752075 399.54486084 373.83450317 399.53845215 368.13476562 399.53335571 C 362.50115967 399.54083252 357.01287842 399.58084106 351.78884888 399.53918457 C 346.88525391 399.59878540 342.23297119 399.68847656 337.96658325 399.68798828 C 334.22732544 399.65283203 331.12902832 399.63012695 328.62011719 399.67440796 C 326.84539795 399.40426636 325.93643188 398.39254761 325.68026733 396.53311157 C 325.66574097 393.68560791 325.69790649 389.91290283 325.86450195 385.33328247 C 326.25466919 379.94717407 326.34146118 373.93545532 326.30554199 367.26034546 C 326.32553101 360.00164795 326.41516113 352.28427124 326.54974365 344.18438721 C 326.65612793 335.67797852 326.66845703 326.88864136 326.97628784 317.85134888 C 327.38882446 308.67724609 327.65283203 299.28524780 327.79653931 289.79083252 C 328.06439209 280.34054565 328.30407715 270.86581421 328.36627197 261.43563843 C 328.45983887 252.12948608 328.66128540 242.93518066 328.60504150 233.86505127 C 328.85040283 225.04360962 329.21319580 216.40173340 329.34848022 207.95997620 C 329.51596069 199.70941162 329.62255859 191.72769165 329.68551636 183.98146057 C 329.74615479 176.53648376 329.81179810 169.46614075 329.83322144 162.81085205 C 329.91140747 156.61408997 330.13552856 150.94190979 330.96401978 145.90802002 C 332.66009521 141.57522583 335.16146851 137.86952209 338.41442871 134.82298279 C 342.18673706 132.48278809 346.22665405 130.79675293 350.55838013 129.77516174 C 355.09823608 129.45997620 359.69497681 129.81420898 364.18133545 130.88745117 C 368.39492798 132.57562256 372.22058105 134.94973755 375.55270386 138.03013611 C 378.25573730 141.71830750 380.23922729 146.08340454 381.33398438 151.15998840 C 381.35791016 156.76828003 381.20532227 163.06326294 381.11807251 169.80340576 C 381.16995239 177.01959229 381.34616089 184.58404541 381.46633911 192.39407349 C 381.44580078 200.45826721 381.45852661 208.66525269 381.74105835 216.99337769 C 382.31405640 225.35334778 382.41357422 233.80900574 382.35284424 242.26506042 C 382.51293945 250.80499268 382.56094360 259.23184204 382.58474731 267.66296387 C 383.08535767 275.89739990 383.39187622 284.08605957 383.29953003 292.15835571 C 383.35830688 300.23562622 383.41744995 308.13827515 383.53875732 316.03836060 C 383.60250854 323.81204224 384.07614136 331.54055786 384.32745361 339.24755859 C 384.37609863 346.96597290 384.14648438 354.69998169 385.54681396 399.54760742" stroke-width="2.00000000" fill="rgb(248, 70, 2)" opacity="1.0" stroke="rgb(137, 4, 0)" stroke-opacity="0.9031784" stroke-linecap="round" stroke-linejoin="round"/>
    <path d="M 400.70834351 198.29423523 C 392.51727295 198.16932678 384.39791870 198.12939453 376.25717163 198.32072449 C 368.08078003 198.47331238 359.96612549 198.55052185 351.82852173 198.57035828 C 343.67022705 198.54058838 335.58749390 198.34011841 327.46783447 198.09934998 C 319.32525635 198.14146423 311.17874146 198.31350708 302.97476196 198.26293945 C 294.61309814 198.04643250 286.14212036 198.09794617 277.61331177 198.16722107 C 268.89013672 198.09016418 260.02487183 198.14131165 250.98561096 198.14607239 C 241.77072144 198.25500488 232.47465515 198.24528503 223.06442261 198.17993164 C 213.54264832 198.20724487 203.99427795 198.17353821 194.41827393 198.19657898 C 184.94729614 198.17294312 175.59866333 198.33387756 166.47142029 198.51083374 C 157.66184998 198.58500671 149.27586365 198.56990051 141.35665894 198.48092651 C 134.09312439 198.29052734 127.59527588 198.07438660 122.01763153 198.08215332 C 117.35958862 198.32901001 113.83237457 198.36947632 111.63633728 197.61770630 C 110.80722809 195.48187256 110.67103577 192.38458252 110.88724518 188.60421753 C 111.13142395 184.32463074 111.25518036 179.85794067 111.33882904 175.67042542 C 111.19067383 172.01347351 110.97883606 169.06040955 111.44556427 167.11363220 C 113.25217438 166.45288086 116.41633606 166.58049011 120.73496246 166.75030518 C 126.14029694 166.78219604 132.45362854 166.61567688 139.56979370 166.48970032 C 147.41998291 166.47190857 155.80899048 166.49916077 164.62246704 166.48818970 C 173.76797485 166.57812500 183.17712402 166.67736816 192.76232910 166.68945312 C 202.46723938 166.68653870 212.19267273 166.75216675 221.84330750 166.72491455 C 231.41131592 166.72288513 240.88789368 166.71420288 250.28495789 166.64222717 C 259.49954224 166.82546997 268.46206665 166.86689758 277.29031372 166.65641785 C 285.99865723 166.61320496 294.50915527 166.67160034 302.82983398 166.74328613 C 310.95275879 166.60699463 318.89929199 166.68772888 326.65872192 166.80743408 C 334.18759155 166.65422058 341.51290894 166.54516602 348.48440552 166.52928162 C 355.20852661 166.46154785 361.57092285 166.39646912 367.56634521 166.46679688 C 373.11724854 166.54173279 378.29257202 166.58961487 382.96441650 166.79638672 C 387.19055176 166.89280701 390.87149048 166.77299500 394.02072144 166.67240906 C 396.56018066 166.68902588 398.48391724 166.63624573 399.79876709 166.52882385 C 400.44696045 166.20872498 400.64059448 165.90219116 400.70834351 198.29423523" stroke-width="2.00000000" fill="rgb(250, 69, 2)" opacity="1.0" stroke="rgb(175, 38, 10)" stroke-opacity="0.9355747" stroke-linecap="round" stroke-linejoin="round"/>
    <path d="M 407.18203735 146.64190674 C 401.22787476 146.76722717 395.22924805 146.74629211 389.14675903 146.85853577 C 382.97955322 147.28778076 376.70288086 147.62408447 370.17550659 147.52046204 C 363.38555908 147.47558594 356.39932251 147.47175598 349.07495117 147.55438232 C 341.46246338 147.47154236 333.44195557 147.03126526 325.03540039 146.60910034 C 316.16964722 146.77116394 306.86499023 146.82858276 297.20480347 146.75033569 C 287.22155762 146.65916443 276.93640137 146.82698059 266.36840820 146.78591919 C 255.66021729 146.71240234 244.85083008 146.80902100 233.94601440 146.78594971 C 222.90483093 146.74838257 211.97061157 146.64776611 201.11779785 146.72827148 C 190.40269470 147.04570007 179.87931824 147.44839478 169.67480469 147.59375000 C 159.83952332 147.54708862 150.47224426 147.49787903 141.62043762 147.52735901 C 133.36468506 147.57427979 125.93370819 147.27828979 119.39765930 146.81018066 C 113.71681213 146.69413757 108.97029114 147.02874756 105.35223389 146.35696411 C 102.90006256 143.30911255 100.64881134 139.00529480 98.25364685 134.30488586 C 96.06231689 129.72146606 93.61389923 126.17832184 90.64469147 124.12244415 C 87.84171295 122.91764069 86.68631744 121.25573730 87.32836151 119.53640747 C 89.46231842 119.21939850 92.93061066 119.69321442 97.86520386 120.39083099 C 104.09780884 120.75272369 111.42957306 121.26532745 119.79356384 121.58989716 C 128.95330811 121.88861847 138.72543335 122.38905334 149.07060242 122.52207947 C 159.87731934 122.62513733 171.02076721 122.68807983 182.42675781 122.86971283 C 193.97285461 123.48376465 205.63598633 123.42285919 217.34576416 123.35153961 C 229.18572998 123.35865021 240.95138550 123.45999146 252.58744812 123.35732269 C 264.10513306 123.37536621 275.46508789 123.43126678 286.69238281 123.44390869 C 297.72070312 123.28028107 308.45825195 123.30131531 318.95565796 123.15976715 C 329.21453857 122.72637177 339.21926880 122.62636566 348.95657349 122.72821808 C 358.36166382 122.54534149 367.37994385 122.46479034 375.93533325 122.22527313 C 384.04110718 121.66696930 391.64364624 121.52958679 398.64553833 121.34355927 C 404.99978638 120.73867798 410.70947266 120.51054382 415.61074829 120.12193298 C 419.50866699 119.46788788 422.44580078 119.03595734 424.29235840 119.37290955 C 424.95935059 120.74160004 424.51446533 122.40674591 423.00106812 123.54091644 C 420.47198486 123.79268646 417.77703857 123.81012726 407.18203735 146.64190674" stroke-width="2.00000000" fill="rgb(241, 63, 4)" opacity="1.0" stroke="rgb(135, 23, 14)" stroke-opacity="1.0" stroke-linecap="round" stroke-linejoin="round"/>
    <path d="M 157.61659241 414.84500122 C 154.35169983 414.30865479 151.36390686 414.64410400 148.77619934 415.99667358 C 146.38273621 417.89013672 143.94894409 419.50006104 141.30981445 419.72406006 C 138.75971985 418.66369629 136.38226318 417.37521362 133.97714233 417.47039795 C 131.70458984 419.47702026 128.74511719 420.29620361 125.29067993 419.56942749 C 121.85074615 418.65127563 118.75469208 419.26754761 115.90605164 420.73480225 C 113.57085419 419.61239624 111.87545013 416.93643188 110.16328430 414.20822144 C 107.19362640 413.66143799 103.66999817 413.66116333 99.74897766 412.30844116 C 95.86031342 410.03802490 93.79062653 406.85119629 93.65693665 402.88021851 C 94.80967712 399.28283691 94.90237427 395.71948242 94.44543457 392.35708618 C 97.23313904 389.81823730 99.21138763 387.44702148 98.38462067 383.49948120 C 99.89749146 379.26892090 102.97100830 375.30081177 105.30274200 371.36462402 C 107.93093872 369.07147217 110.85676575 368.97094727 113.51878357 368.65237427 C 114.28922272 366.31362915 114.80725861 363.51916504 116.85541534 361.63235474 C 119.44753265 360.90954590 122.03799438 361.88046265 124.73577881 363.15423584 C 127.59020233 361.40777588 130.60343933 359.50845337 134.02796936 359.40417480 C 136.72938538 361.43237305 139.25292969 362.97781372 142.56068420 362.47973633 C 145.70527649 363.76104736 149.01028442 365.78811646 151.86437988 368.03311157 C 153.13458252 371.18026733 153.62860107 375.03826904 154.84333801 379.29449463 C 156.95568848 383.70736694 159.85969543 388.36679077 162.91072083 393.37426758 C 165.85678101 398.74148560 168.61007690 404.42480469 157.61659241 414.84500122" stroke-width="2.00000000" fill="rgb(52, 131, 57)" opacity="1.0" stroke="rgb(3, 3, 7)" stroke-opacity="0.97866553" stroke-linecap="round" stroke-linejoin="round"/>
    <path d="M 192.66699219 383.60604858 C 194.93467712 385.14947510 196.42897034 387.05944824 196.84945679 389.52731323 C 196.30830383 392.09213257 194.68218994 394.91336060 193.30020142 397.86373901 C 191.66854858 400.30651855 189.30776978 401.39373779 186.53327942 401.52865601 C 184.37434387 402.81521606 182.67294312 404.54348755 180.79418945 405.76480103 C 178.44293213 405.72488403 175.72926331 404.89248657 172.75100708 404.55474854 C 169.82376099 405.11117554 167.52926636 405.02996826 166.24803162 403.50323486 C 166.09663391 401.16284180 166.63340759 398.76818848 167.13359070 396.58526611 C 166.72146606 394.62261963 165.28715515 393.33514404 162.94276428 393.02609253 C 160.07077026 392.56414795 157.69874573 391.88302612 156.48085022 390.40399170 C 156.33474731 387.72814941 156.44204712 384.51840210 156.57432556 381.19992065 C 156.79478455 378.07086182 157.20593262 375.44290161 158.21208191 373.33212280 C 158.83151245 371.41973877 159.51101685 370.04226685 160.61875916 369.51354980 C 162.09606934 369.61215210 163.34452820 369.16162109 164.45329285 367.83773804 C 165.82171631 366.38748169 167.72819519 365.37704468 170.08572388 364.39178467 C 172.27520752 363.10571289 174.30293274 362.23678589 176.41027832 362.68499756 C 178.33082581 364.29974365 180.37605286 365.87246704 183.16395569 366.50448608 C 185.71479797 367.71145630 187.83160400 369.19055176 189.76367188 369.49093628 C 191.33753967 369.57360840 191.83566284 370.45809937 191.46090698 371.81506348 C 191.52534485 373.60794067 192.01364136 375.21142578 193.10301208 376.30096436 C 194.81518555 377.28817749 196.28080750 378.55850220 192.66699219 383.60604858" stroke-width="2.00000000" fill="rgb(50, 126, 59)" opacity="1.0" stroke="rgb(19, 28, 18)" stroke-opacity="1.0" stroke-linecap="round" stroke-linejoin="round"/>
    <path d="M 339.08239746 410.80679321 C 336.90777588 410.29031372 334.94784546 409.71170044 332.90640259 409.30093384 C 330.77886963 409.50875854 328.84689331 409.86309814 326.99133301 409.96350098 C 325.20816040 409.16445923 323.47506714 407.90054321 321.98193359 406.35278320 C 320.21853638 404.85885620 318.10659790 403.91986084 315.95376587 403.21142578 C 314.22872925 401.83163452 313.12738037 399.77197266 312.28106689 397.60757446 C 311.12539673 395.78012085 310.80108643 393.80850220 311.31112671 391.82855225 C 312.16564941 390.04077148 311.92230225 387.80252075 311.65466309 385.16027832 C 312.47653198 382.20675659 314.30548096 379.96545410 316.54113770 378.64892578 C 316.95486450 376.96664429 316.15252686 375.22787476 316.25250244 373.56140137 C 318.14236450 372.42449951 319.59109497 370.84042358 319.73559570 368.39633179 C 320.80526733 367.04898071 323.04730225 366.59677124 325.77764893 366.22042847 C 328.06109619 365.01992798 330.41375732 363.63317871 332.57592773 362.64044189 C 334.44985962 362.21109009 336.18142700 362.71783447 337.83749390 363.54367065 C 339.31771851 364.70535278 340.74282837 365.81079102 342.29312134 366.44815063 C 344.20089722 366.46420288 346.04864502 366.96728516 347.81527710 368.00509644 C 349.15362549 369.57769775 350.36099243 371.32827759 351.45532227 373.29055786 C 352.30419922 375.46524048 352.97802734 377.88400269 353.50183105 380.48162842 C 353.91598511 383.17190552 354.17608643 385.92620850 354.26055908 388.69384766 C 354.30252075 391.47219849 354.36480713 394.33630371 354.34265137 397.18826294 C 354.23535156 399.99243164 354.10113525 402.77694702 339.08239746 410.80679321" stroke-width="2.00000000" fill="rgb(54, 132, 59)" opacity="1.0" stroke="rgb(0, 0, 0)" stroke-opacity="0.9492147" stroke-linecap="round" stroke-linejoin="round"/>
    <path d="M 399.43322754 370.65179443 C 399.69076538 373.30093384 399.28219604 375.83767700 399.02423096 378.80087280 C 399.95925903 382.20626831 401.20147705 385.47897339 403.34286499 387.78622437 C 404.63781738 390.42190552 404.37243652 393.31051636 402.75057983 396.66925049 C 400.88873291 400.43899536 398.73532104 404.01879883 395.44851685 406.21734619 C 391.11242676 406.57153320 387.44250488 408.48703003 384.33132935 411.25857544 C 380.68389893 411.67791748 376.76168823 411.29043579 372.92840576 411.14770508 C 369.44622803 411.93359375 366.39111328 411.84683228 363.54983521 410.60238647 C 361.13519287 408.71713257 359.18197632 406.93383789 357.65499878 406.14096069 C 356.34365845 407.08184814 354.97439575 408.77941895 353.42700195 410.41564941 C 351.69519043 410.84310913 350.05987549 409.82821655 348.48519897 407.44506836 C 346.58767700 404.46258545 344.51452637 401.15231323 342.78674316 397.55911255 C 342.08029175 393.71389771 342.30374146 389.75836182 343.59640503 385.65393066 C 345.54244995 381.40069580 347.75201416 377.16943359 349.80017090 372.86749268 C 351.34585571 368.72741699 352.93872070 365.17385864 355.09603882 362.53585815 C 357.82812500 360.76132202 360.53143311 359.70623779 363.11517334 360.15530396 C 365.96310425 361.05041504 368.73568726 361.10269165 371.07345581 360.19479370 C 372.70953369 357.92471313 374.43679810 356.00979614 376.74255371 355.87319946 C 379.62759399 357.69052124 382.49844360 360.49829102 385.29309082 362.50381470 C 388.28213501 362.18725586 390.63531494 362.46224976 392.34735107 364.36337280 C 393.35693359 367.10131836 393.87054443 370.01345825 399.43322754 370.65179443" stroke-width="2.00000000" fill="rgb(50, 133, 55)" opacity="1.0" stroke="rgb(16, 31, 18)" stroke-opacity="0.95441365" stroke-linecap="round" stroke-linejoin="round"/>  
    <path d="M 251.85832214 286.43472290 C 251.85324097 286.44055176 251.85762024 286.43386841 251.85507202 286.44027710 C 251.85368347 286.43234253 251.85751343 286.43542480 251.85325623 286.43762207 C 251.85671997 286.43429565 251.84971619 286.42916870 251.86042786 286.44085693 C 251.84927368 286.43240356 251.85507202 286.42816162 251.85299683 286.43960571 C 251.85731506 286.43600464 251.85025024 286.42495728 251.85658264 286.43933105 C 251.85247803 286.43142700 251.85958862 286.43103027 251.85205078 286.43203735 C 251.85137939 286.43048096 251.85711670 286.43493652 251.85807800 286.42605591 C 251.85293579 286.43084717 251.85548401 286.43173218 251.86077881 286.42526245 C 251.85293579 286.42984009 251.86077881 286.42752075 251.85496521 286.42651367 C 251.86131287 286.42907715 251.85702515 286.42092896 251.85832214 286.43472290" stroke-width="0.00000000" fill="rgb(214, 175, 184)" opacity="1.0" stroke="rgb(200, 177, 189)" stroke-opacity="1.0" stroke-linecap="round" stroke-linejoin="round"/>
    <path d="M 249.79167175 284.14962769 C 249.78157043 284.15859985 249.79418945 284.15280151 249.78741455 284.15466309 C 249.78742981 284.14474487 249.79403687 284.16998291 249.79289246 284.14233398 C 249.79270935 284.15048218 249.79098511 284.16394043 249.79510498 284.14407349 C 249.79484558 284.15484619 249.79882812 284.15463257 249.79179382 284.15060425 C 249.80233765 284.15332031 249.79031372 284.15686035 249.79617310 284.14303589 C 249.80870056 284.15945435 249.78500366 284.14904785 249.80241394 284.14764404 C 249.80085754 284.15447998 249.79335022 284.15093994 249.80049133 284.13870239 C 249.79530334 284.15994263 249.80119324 284.15026855 249.79078674 284.14080811 C 249.80628967 284.15432739 249.79263306 284.14358521 249.79048157 284.14779663 C 249.80455017 284.14221191 249.78831482 284.14978027 249.79167175 284.14962769" stroke-width="0.37309781" fill="rgb(255, 13, 36)" opacity="1.0" stroke="rgb(255, 56, 221)" stroke-opacity="1.0" stroke-linecap="round" stroke-linejoin="round"/>
    <path d="M 451.54922485 135.87059021 C 451.05361938 137.26887512 450.87426758 138.62072754 450.63571167 140.02270508 C 450.25595093 141.44635010 449.82119751 142.66690063 449.14050293 143.66531372 C 448.99307251 144.80743408 448.45187378 145.68547058 447.56365967 146.34513855 C 446.89266968 147.52296448 446.15402222 148.61787415 445.15127563 149.69728088 C 443.79666138 150.56730652 442.48788452 151.55253601 441.09222412 152.59223938 C 439.61669922 153.47862244 438.12780762 154.21765137 436.68618774 154.86125183 C 435.42327881 155.52896118 434.42098999 156.39393616 433.54833984 157.00984192 C 433.03332520 157.53443909 432.76434326 157.75637817 432.81991577 157.99281311 C 432.90603638 158.12071228 432.89706421 157.93273926 432.85650635 157.55967712 C 432.69366455 157.06938171 432.67547607 156.43763733 432.93264771 155.55358887 C 432.91741943 154.43727112 432.73959351 153.24433899 432.71948242 152.11036682 C 432.75985718 150.91052246 432.78366089 149.52539062 432.91345215 148.01562500 C 433.42819214 146.60131836 433.75192261 145.05393982 434.11697388 143.55204773 C 434.83374023 142.03265381 435.77563477 140.75593567 436.88729858 139.61167908 C 438.04046631 138.49562073 439.30328369 137.52789307 440.43191528 136.50828552 C 441.63879395 135.58238220 442.87899780 134.92672729 444.14352417 134.28889465 C 445.36764526 133.84489441 446.54119873 133.41029358 447.51025391 133.06716919 C 448.46542358 132.47190857 449.24380493 132.14439392 450.05715942 132.06082153 C 450.85324097 131.86790466 451.55279541 131.42730713 451.99087524 130.85311890 C 452.05059814 130.19769287 452.08856201 129.60072327 451.54922485 135.87059021" stroke-width="1.53246963" fill="rgb(235, 134, 177)" opacity="1.0" stroke="rgb(140, 0, 57)" stroke-opacity="0.5505781" stroke-linecap="round" stroke-linejoin="round"/>
    <path d="M 416.91494751 75.39561462 C 418.26272583 75.14539337 419.58340454 74.84848022 420.65298462 74.22740173 C 421.86596680 73.55770111 422.95892334 73.21939850 424.11904907 73.17969513 C 425.29193115 73.02526855 426.26062012 72.72225189 427.15008545 72.46143341 C 427.78826904 72.13505554 428.15426636 71.88595581 428.23864746 71.86648560 C 428.18151855 72.26438904 427.91275024 72.78759003 427.60021973 73.55862427 C 427.13125610 74.41638184 426.81076050 75.38214874 426.68005371 76.48010254 C 426.67532349 77.48494720 426.14605713 78.59937286 425.41247559 79.80229950 C 424.86169434 81.33867645 424.15197754 82.77082062 423.28244019 84.18435669 C 422.27926636 85.56794739 421.09463501 86.71647644 419.84786987 87.82622528 C 418.68865967 88.98293304 417.33364868 90.00929260 415.83654785 90.78733063 C 414.47473145 91.42895508 413.14654541 91.94724274 411.82766724 92.35202789 C 410.53958130 92.74462128 409.48004150 93.05615997 408.43493652 93.41579437 C 407.67001343 93.96358490 407.00106812 94.54512024 406.39257812 94.91918945 C 405.96588135 95.15286255 405.83248901 95.25826263 405.81790161 95.15324402 C 405.99475098 94.98593903 406.24670410 94.69798279 406.34402466 94.23095703 C 406.19976807 93.41144562 406.30114746 92.26301575 406.39520264 91.12299347 C 406.69070435 90.04049683 406.96798706 88.83665466 407.07769775 87.41104889 C 407.66213989 86.13822937 408.02160645 84.95458984 408.14318848 83.77924347 C 408.73532104 82.81683350 409.43862915 81.72830963 410.15640259 80.59182739 C 411.04098511 79.41336060 411.87640381 78.40985870 416.91494751 75.39561462" stroke-width="1.63654888" fill="rgb(234, 136, 178)" opacity="1.0" stroke="rgb(144, 0, 62)" stroke-opacity="0.5438428" stroke-linecap="round" stroke-linejoin="round"/>
    <path d="M 429.18383789 309.24273682 C 429.69866943 308.03961182 429.76632690 306.69662476 429.66491699 305.37728882 C 429.96014404 304.03942871 430.36517334 302.68310547 430.75665283 301.13888550 C 431.80694580 299.79907227 432.75503540 298.21881104 433.63391113 296.58953857 C 434.87185669 295.38934326 436.21224976 294.18017578 437.51535034 293.11669922 C 438.89212036 292.27371216 440.30300903 291.51165771 441.73959351 290.80603027 C 443.07580566 290.09988403 444.48974609 289.59378052 445.90365601 289.28417969 C 447.14227295 288.87442017 448.02502441 288.28848267 448.78512573 287.76492310 C 449.56707764 287.50085449 450.34176636 287.30340576 450.95761108 287.39916992 C 451.38613892 287.64822388 451.56265259 288.00378418 451.70025635 288.61624146 C 451.73016357 289.42337036 451.67184448 290.36499023 451.51281738 291.39974976 C 451.18676758 292.60943604 450.91821289 294.02957153 450.82620239 295.50473022 C 450.43652344 297.17135620 450.05810547 298.97088623 449.45181274 300.64010620 C 448.43533325 302.19815063 447.54809570 303.81201172 446.64138794 305.38122559 C 445.47802734 306.52493286 444.32690430 307.45217896 443.37997437 308.52560425 C 442.37335205 309.33782959 441.14907837 309.90484619 440.06072998 310.47152710 C 439.13052368 311.19448853 437.83950806 311.76702881 436.64465332 312.00634766 C 435.82296753 312.59899902 435.24658203 313.32617188 434.50622559 313.87463379 C 433.67166138 314.39181519 433.11679077 314.90582275 432.48715210 315.18438721 C 432.08892822 315.60470581 431.86239624 316.12265015 431.36535645 316.53262329 C 430.44329834 316.62072754 429.39648438 316.67687988 429.18383789 309.24273682" stroke-width="0.95897657" fill="rgb(219, 128, 167)" opacity="1.0" stroke="rgb(180, 114, 133)" stroke-opacity="0.07870798" stroke-linecap="round" stroke-linejoin="round"/>
    <path d="M 67.90561676 73.50652313 C 67.41308594 75.09829712 67.25011444 76.62555695 67.13296509 78.03330231 C 66.61063385 79.46640015 66.19991302 80.75496674 65.76594543 82.01296997 C 65.38465118 82.97738647 64.99351501 83.82642365 64.72834778 84.55398560 C 64.45514679 84.82842255 64.03062439 84.80820465 63.52867889 84.59423828 C 62.97082901 84.29329681 62.29896164 83.69216919 61.57100296 83.04093170 C 60.61740494 82.64459229 59.73855209 81.88023376 58.98668289 80.91645813 C 57.99889374 79.97460938 56.99515152 78.94554138 55.96523285 77.83891296 C 55.08429337 76.67945099 54.34792709 75.46644592 53.61502838 74.17152405 C 53.05444717 72.75120544 52.80871201 71.24011993 52.49983978 69.69321442 C 52.10200119 68.20333862 52.04993057 66.78684998 52.18460083 65.39723969 C 52.43199539 63.78176880 52.57099152 62.18854904 52.70476913 60.87337494 C 53.18600464 59.66637421 53.63618469 58.51296616 53.92151260 57.44377899 C 54.33995819 56.56627274 54.76633072 55.78575516 55.10493088 54.98079681 C 55.43246841 54.38434601 55.61825562 54.16313553 55.84371567 54.11859512 C 56.25684738 54.29795456 56.82833099 54.68181992 57.43249512 55.27896118 C 58.20044708 55.78546906 58.94057846 56.43292236 59.62852097 57.26433182 C 60.48089981 57.98409271 61.39992523 58.74272537 62.25188065 59.72709656 C 63.05898666 60.87063980 63.95261002 61.90834427 64.74151611 63.06848145 C 65.61338806 64.11687469 66.30158234 65.31057739 66.66671753 66.63103485 C 67.27441406 67.81632233 67.84533691 68.86248779 67.90561676 73.50652313" stroke-width="0.88259161" fill="rgb(223, 129, 170)" opacity="1.0" stroke="rgb(174, 92, 122)" stroke-opacity="0.101994716" stroke-linecap="round" stroke-linejoin="round"/>
    <path d="M 275.17187500 27.90439224 C 276.65686035 27.75287819 278.05035400 27.43457603 279.44317627 26.96246719 C 280.77911377 26.51857567 282.06198120 26.22002411 283.29724121 25.94488716 C 284.49429321 25.56294823 285.29098511 24.81850243 286.03558350 24.43971825 C 286.74700928 24.22480202 287.29187012 24.15841866 287.67150879 24.39804077 C 287.74865723 24.84918213 287.72869873 25.53110313 287.66635132 26.45763779 C 287.34600830 27.47426414 286.90728760 28.57025719 286.47750854 29.60799026 C 286.07385254 30.73846054 285.65011597 31.98736000 285.14138794 33.34716034 C 284.54284668 34.60852432 283.73162842 35.93496323 282.88217163 37.22354507 C 281.81335449 38.21455002 281.01315308 39.43785477 280.43933105 40.77474213 C 279.33804321 41.66377258 277.96286011 42.36080933 276.74719238 43.24784470 C 275.43670654 43.97328568 274.09436035 44.63125610 272.68838501 45.16204453 C 271.36065674 45.44948578 269.93890381 45.65686417 268.59414673 45.92226028 C 267.27749634 46.36133575 266.05697632 46.51782227 264.98486328 46.80114365 C 264.10961914 46.92545700 263.20367432 46.78771973 262.38702393 46.60557938 C 261.73403931 46.55598831 261.37811279 46.48350906 261.23962402 46.00300598 C 261.28756714 45.34291458 261.53890991 44.45373917 261.84951782 43.38707352 C 262.10928345 42.23963165 262.37854004 41.03184891 262.52905273 39.64449692 C 263.26806641 38.51625061 263.74822998 37.36256790 264.45025635 36.17974091 C 265.23562622 35.07614899 266.08554077 33.96225739 267.15542603 32.97666550 C 267.97528076 31.78264809 268.77307129 30.48219299 275.17187500 27.90439224" stroke-width="2.00000000" fill="rgb(219, 127, 170)" opacity="1.0" stroke="rgb(199, 151, 169)" stroke-opacity="0.055841625" stroke-linecap="round" stroke-linejoin="round"/>
    <path d="M 71.47076416 284.83642578 C 71.84423828 286.37411499 72.24427032 287.63107300 72.59001923 288.71063232 C 72.87966919 289.72528076 73.05892944 290.33282471 72.86242676 290.49935913 C 71.93330383 290.68560791 70.61496735 290.47207642 68.85074615 289.73437500 C 66.64691925 289.16119385 64.34939575 288.54681396 61.78561401 288.04043579 C 59.68124771 287.63479614 58.09960938 286.51278687 56.97350693 284.88940430 C 55.53347778 283.10333252 54.29350662 281.26467896 53.67591476 279.37295532 C 53.07099152 277.40719604 52.46988297 275.81655884 52.19156647 274.93963623 C 52.08705902 274.88305664 52.46983719 275.17654419 53.67124557 275.32009888 C 55.33020401 275.45184326 57.56328583 275.68978882 60.16289520 276.22067261 C 63.16044998 276.59765625 66.30415344 277.08160400 71.47076416 284.83642578" stroke-width="1.81037235" fill="rgb(237, 136, 183)" opacity="1.0" stroke="rgb(143, 0, 58)" stroke-opacity="0.53652203" stroke-linecap="round" stroke-linejoin="round"/>
    <path d="M 497.63284302 373.64962769 C 497.27008057 374.83352661 496.71524048 375.80947876 495.83645630 376.84774780 C 495.00949097 377.90350342 494.26663208 379.01467896 493.69958496 380.22903442 C 492.92791748 381.34332275 491.94723511 382.35894775 490.90963745 383.22421265 C 489.77404785 384.21524048 488.67913818 385.21868896 487.48498535 385.88888550 C 486.19647217 386.27664185 484.94168091 386.66848755 483.78750610 387.16479492 C 482.50140381 387.38064575 481.11959839 387.35491943 480.08538818 387.30999756 C 479.50241089 387.14895630 478.75665283 387.28817749 477.75042725 387.38940430 C 476.74658203 387.19046021 475.88043213 386.90573120 475.01773071 386.67489624 C 474.23458862 386.43719482 473.64105225 386.16104126 473.38140869 385.83044434 C 473.49703979 385.20037842 473.63079834 384.34182739 473.90240479 383.36361694 C 474.06481934 382.38040161 474.45236206 381.24490356 475.31118774 380.10726929 C 475.93750000 378.91134644 476.65762329 377.85623169 477.60275269 376.81710815 C 478.57162476 375.70834351 479.38809204 374.60656738 480.49279785 373.72018433 C 481.51687622 372.91827393 482.63522339 372.32183838 483.79507446 371.99270630 C 484.93869019 371.76013184 486.17816162 371.26669312 487.40847778 370.85739136 C 488.48757935 370.47027588 489.58526611 370.38922119 490.69122314 370.41949463 C 491.73648071 370.53146362 492.62393188 370.61325073 493.52429199 370.34448242 C 494.41369629 370.34191895 495.29766846 370.36627197 496.17813110 370.07870483 C 497.02288818 369.66378784 497.94247437 369.17120361 498.90151978 368.71569824 C 499.92126465 368.42007446 501.21963501 368.31515503 497.63284302 373.64962769" stroke-width="2.00000000" fill="rgb(219, 131, 171)" opacity="1.0" stroke="rgb(199, 142, 158)" stroke-opacity="0.04363044" stroke-linecap="round" stroke-linejoin="round"/>
    <path d="M 239.67323303 284.26892090 C 240.02210999 283.61428833 240.52345276 282.95989990 241.24209595 282.33642578 C 242.03953552 281.75985718 242.75543213 281.00097656 243.57815552 280.30740356 C 244.68873596 279.67926025 245.76890564 278.97741699 246.68367004 278.23147583 C 247.82221985 277.81481934 249.16662598 277.52224731 250.61634827 277.30184937 C 252.05940247 277.12200928 253.28251648 276.73699951 254.44989014 276.48150635 C 255.79206848 276.43185425 257.16308594 276.52938843 258.35684204 276.71365356 C 259.49404907 276.57232666 260.70776367 276.37072754 261.90728760 276.30914307 C 262.97073364 276.30917358 263.78085327 276.14801025 264.35943604 276.18670654 C 264.52902222 276.43630981 264.31976318 276.88864136 263.82907104 277.54278564 C 263.34970093 278.36746216 262.87271118 279.26403809 262.32775879 280.56637573 C 261.67868042 281.65756226 260.91873169 282.69683838 260.18594360 283.88635254 C 259.45596313 285.06079102 258.56570435 286.09561157 257.55233765 287.09500122 C 256.32168579 287.81744385 255.36685181 288.71325684 254.42767334 289.69177246 C 253.26766968 290.34945679 252.18942261 291.07992554 251.05775452 291.65722656 C 250.00593567 291.81097412 248.93049622 292.02499390 247.87724304 292.38253784 C 246.99330139 292.38516235 246.00878906 292.34048462 244.91198730 292.29586792 C 243.91429138 292.37240601 243.11434937 292.37673950 242.33862305 292.30584717 C 241.43821716 291.93206787 240.35951233 291.59750366 239.24136353 291.30706787 C 238.31515503 290.73257446 237.67846680 290.21493530 236.95321655 289.98355103 C 236.01255798 289.73944092 235.19731140 289.37588501 239.67323303 284.26892090" stroke-width="1.85325265" fill="rgb(220, 129, 169)" opacity="1.0" stroke="rgb(204, 161, 161)" stroke-opacity="0.07210421" stroke-linecap="round" stroke-linejoin="round"/>
    <path d="M 389.53720093 254.53289795 C 391.50918579 254.37902832 393.34939575 254.28726196 395.10113525 254.20803833 C 396.71676636 254.43978882 398.03213501 254.79241943 399.25195312 254.98092651 C 400.56323242 255.24484253 401.70285034 255.64106750 402.75427246 256.08895874 C 403.63247681 256.56567383 404.39291382 257.25442505 405.21136475 257.92385864 C 406.01507568 258.89169312 406.86236572 260.03833008 407.49328613 261.05032349 C 408.41204834 261.66552734 408.84756470 262.49563599 409.22180176 263.51208496 C 409.86758423 264.29406738 410.54840088 264.96054077 411.31616211 265.76351929 C 412.05212402 266.15994263 412.34060669 266.44604492 412.06674194 266.41085815 C 411.70642090 265.86605835 411.25546265 265.68167114 410.63525391 265.99957275 C 409.92672729 266.30044556 409.42761230 266.61248779 408.79312134 266.82684326 C 407.95831299 266.72940063 406.93670654 266.55847168 405.73098755 266.44705200 C 404.56338501 266.60961914 403.35464478 266.67855835 402.16934204 266.40673828 C 401.05999756 266.06002808 399.99099731 265.78677368 398.92486572 265.72082520 C 397.92462158 265.25564575 396.98519897 264.63861084 396.21740723 264.30654907 C 395.33236694 264.04327393 394.70275879 263.44845581 394.08380127 262.85647583 C 393.45129395 262.36157227 392.92684937 261.69329834 392.47494507 261.05889893 C 392.13992310 260.35150146 391.67324829 259.81500244 391.25552368 259.31216431 C 390.84091187 258.75588989 390.60385132 258.13592529 390.36007690 257.51647949 C 390.08258057 256.82983398 389.71032715 256.15747070 389.32318115 255.34587097 C 388.94561768 254.49974060 388.59970093 253.82279968 389.53720093 254.53289795" stroke-width="1.63908100" fill="rgb(237, 141, 183)" opacity="1.0" stroke="rgb(143, 0, 57)" stroke-opacity="0.5300284" stroke-linecap="round" stroke-linejoin="round"/>
    <path d="M 234.42080688 255.43933105 C 233.60238647 256.56500244 233.00975037 257.86776733 232.48014832 259.14611816 C 231.72972107 260.28610229 231.09393311 261.39202881 230.41746521 262.34741211 C 229.86184692 263.28607178 229.54554749 263.85848999 229.31729126 264.28839111 C 229.02682495 264.63128662 228.63619995 264.68682861 228.19273376 264.41366577 C 227.82658386 263.88192749 227.49072266 263.33044434 227.18255615 262.66641235 C 226.63647461 261.96301270 225.86146545 261.22857666 225.20774841 260.39978027 C 224.92762756 259.25836182 224.65480042 257.94409180 224.05377197 256.75921631 C 223.48727417 255.59004211 223.07257080 254.24310303 222.76023865 252.89941406 C 222.66122437 251.43377686 222.50398254 249.98719788 222.02702332 248.59460449 C 222.05160522 247.13743591 222.27677917 245.76168823 222.46055603 244.28005981 C 223.15243530 242.82948303 223.74772644 241.24966431 224.25781250 239.77836609 C 225.15777588 238.72624207 225.99360657 237.75509644 226.34887695 236.80635071 C 226.79296875 236.10382080 227.40049744 235.53581238 227.77796936 235.31857300 C 228.09870911 235.30882263 228.75088501 235.52822876 229.49279785 235.92082214 C 230.00671387 236.57507324 230.55711365 237.45965576 231.34962463 238.34866333 C 231.73594666 239.34005737 232.17977905 240.34506226 232.72950745 241.26458740 C 233.42289734 242.20515442 233.89208984 243.12854004 234.37211609 244.11477661 C 234.46029663 245.01622009 234.57670593 245.89183044 234.81721497 246.73103333 C 235.14248657 247.43699646 235.44371033 248.09805298 235.39346313 248.69105530 C 235.21093750 249.32482910 235.22239685 250.01747131 234.42080688 255.43933105" stroke-width="0.91859829" fill="rgb(219, 128, 167)" opacity="1.0" stroke="rgb(160, 95, 118)" stroke-opacity="0.10619943" stroke-linecap="round" stroke-linejoin="round"/>
    <path d="M 279.78729248 311.51275635 C 280.26934814 310.67715454 280.99060059 309.87759399 281.79251099 309.15362549 C 282.70098877 308.50634766 283.60510254 307.72500610 284.58444214 306.98898315 C 285.35623169 306.37753296 286.37350464 305.91967773 287.50976562 305.67947388 C 288.63369751 305.43563843 289.81939697 305.00482178 291.01562500 304.72128296 C 292.36846924 304.89077759 293.75482178 304.85189819 295.07666016 304.73226929 C 296.34094238 304.74179077 297.58773804 304.88128662 298.70214844 304.78955078 C 299.72009277 304.54882812 300.72296143 304.38922119 301.67309570 304.17922974 C 302.47033691 304.32705688 303.02926636 304.38970947 303.36828613 304.67407227 C 303.55105591 304.98739624 303.24374390 305.30807495 302.59454346 305.73022461 C 301.97280884 306.39831543 301.17755127 307.10662842 300.72729492 308.16455078 C 299.90447998 309.08859253 299.20327759 310.13513184 298.93710327 311.35610962 C 298.36621094 312.45278931 297.58972168 313.39794922 296.71835327 314.27087402 C 295.65386963 315.06222534 294.75524902 315.96060181 293.88873291 316.83380127 C 292.87817383 317.52157593 291.77563477 318.06112671 290.64511108 318.47744751 C 289.81155396 318.97152710 289.00729370 319.22805786 288.15747070 319.21343994 C 287.15768433 319.09835815 286.12405396 319.14889526 285.15664673 319.24328613 C 284.19815063 319.37145996 283.16885376 319.46130371 282.20733643 319.42324829 C 281.28976440 319.09231567 280.41934204 318.70736694 279.51974487 318.58462524 C 278.53710938 318.48580933 277.66510010 318.08496094 276.90213013 317.48263550 C 276.11294556 316.71151733 275.16937256 315.64617920 279.78729248 311.51275635" stroke-width="0.91811186" fill="rgb(220, 132, 172)" opacity="1.0" stroke="rgb(198, 122, 147)" stroke-opacity="0.111501664" stroke-linecap="round" stroke-linejoin="round"/>
    <path d="M 79.40425110 184.44816589 C 79.98023224 185.48176575 80.88803101 185.98881531 81.81711578 186.44302368 C 82.58061218 186.91473389 83.15589142 187.60826111 83.67155457 188.24468994 C 84.21624756 188.63951111 84.71322632 188.58801270 85.13120270 188.34896851 C 85.19841003 188.35021973 84.88780212 188.38545227 84.58786011 188.49717712 C 84.47879791 188.81234741 84.00208282 189.13848877 83.31597900 189.41729736 C 82.48336029 189.78379822 81.43749237 190.29830933 80.23081970 190.81556702 C 78.90838623 191.39323425 77.53406525 191.78102112 76.15544128 192.19226074 C 74.89877319 192.26161194 73.73557281 192.48907471 72.73795319 192.71058655 C 71.94258881 192.30386353 71.11231232 192.11857605 70.11529541 191.84577942 C 69.01972961 191.65232849 67.87413788 191.42622375 66.93786621 191.14048767 C 66.01731873 190.89431763 65.15253448 190.23559570 64.11000824 189.84185791 C 63.39391708 189.27696228 62.95764160 188.60308838 62.49964905 188.00500488 C 62.20609665 187.45907593 61.87943649 187.07766724 61.60004425 186.86233521 C 61.08901978 186.77932739 60.69207764 186.95948792 60.64542007 187.15296936 C 60.91578674 187.23294067 61.29649734 187.16984558 61.66330338 186.90136719 C 61.99272919 186.50018311 62.52134705 186.02719116 63.22657394 185.75155640 C 63.94794846 185.29911804 64.81413269 184.84957886 65.90527344 184.36279297 C 66.99373627 184.12052917 68.08306122 183.80859375 69.18613434 183.41046143 C 70.39221191 183.24745178 71.50058746 183.15441895 72.48326874 183.07690430 C 73.34426880 182.82929993 74.25562286 182.77087402 79.40425110 184.44816589" stroke-width="1.64022124" fill="rgb(240, 136, 183)" opacity="1.0" stroke="rgb(141, 0, 60)" stroke-opacity="0.50659746" stroke-linecap="round" stroke-linejoin="round"/>
    <path d="M 209.14994812 215.52763367 C 206.99995422 215.95986938 204.80511475 216.23144531 202.62191772 216.21286011 C 200.47952271 215.96437073 198.50221252 215.42901611 196.71655273 214.78318787 C 195.36947632 214.22462463 194.42117310 213.76406860 194.05624390 213.19186401 C 194.50517273 212.78114319 195.19812012 212.14675903 196.03796387 211.33256531 C 197.00061035 210.54734802 198.33291626 210.04382324 199.52578735 209.05769348 C 200.89961243 208.52680969 202.53236389 208.14329529 204.09492493 207.61199951 C 205.64691162 207.41954041 207.12792969 207.44206238 208.49969482 207.52789307 C 209.92710876 207.20819092 211.29988098 207.19490051 212.74070740 207.30284119 C 214.18835449 207.31842041 215.45362854 207.53134155 216.58634949 207.55088806 C 217.42233276 207.34204102 218.09107971 206.94000244 209.14994812 215.52763367" stroke-width="1.64379299" fill="rgb(242, 137, 184)" opacity="1.0" stroke="rgb(149, 0, 73)" stroke-opacity="0.4932882" stroke-linecap="round" stroke-linejoin="round"/>
  </g>
</svg>
