<?xml version="1.0" ?>
<svg xmlns="http://www.w3.org/2000/svg" version="1.1" width="512" height="512" viewBox="0 0 512 512">
  <defs/>
  <g>
    <path d="M 351.45944214 439.63119507 C 350.00274658 442.18350220 347.93743896 444.18530273 345.16061401 445.42129517 C 341.68472290 446.04284668 337.45764160 446.15640259 332.57595825 446.14984131 C 327.04678345 446.09362793 321.05438232 445.96395874 314.53085327 445.87896729 C 307.55117798 445.84887695 300.16934204 445.83914185 292.46438599 445.95895386 C 284.46969604 445.90286255 276.22631836 445.78170776 267.77609253 445.86013794 C 259.16265869 445.89953613 250.53512573 445.87597656 241.83776855 445.86026001 C 233.10247803 445.84414673 224.53121948 445.81417847 216.06141663 445.89282227 C 207.80007935 445.99319458 199.84280396 445.97396851 192.20491028 445.88195801 C 185.07791138 445.89300537 178.49317932 446.05291748 172.47430420 446.29888916 C 167.22129822 446.36389160 162.66459656 445.76867676 158.99180603 444.24432373 C 156.12834167 441.60275269 154.23982239 437.86468506 153.51356506 433.07351685 C 153.25248718 427.20181274 153.44386292 420.39593506 153.52711487 412.97637939 C 153.47346497 405.16494751 153.48225403 397.20031738 153.56449890 389.15185547 C 153.49296570 381.33291626 153.41828918 374.10830688 153.58512878 367.60559082 C 153.48701477 361.96630859 153.36714172 357.48327637 153.95114136 354.36975098 C 155.56071472 352.70608521 158.15156555 352.51123047 161.65080261 352.49829102 C 165.51588440 351.22372437 170.13340759 350.09030151 175.41545105 349.03393555 C 181.04008484 348.41049194 187.23152161 348.33383179 193.84216309 348.16726685 C 200.62719727 348.03649902 207.57377625 348.09832764 214.67570496 348.42398071 C 221.75167847 348.94384766 228.76293945 349.17864990 235.67127991 348.65896606 C 242.45489502 346.81906128 249.57565308 345.49349976 257.10357666 345.22445679 C 264.83251953 345.47583008 272.69931030 346.10659790 280.63482666 346.94131470 C 288.57879639 347.90014648 296.41442871 348.95068359 304.09780884 349.81323242 C 311.46899414 350.52301025 318.42684937 350.83383179 325.01702881 350.81445312 C 331.19781494 351.07281494 336.92269897 351.41009521 341.82901001 351.80590820 C 345.84088135 351.85913086 349.04006958 352.01693726 351.56497192 352.87863159 C 353.13040161 354.78631592 353.34426880 358.16366577 353.01541138 363.09912109 C 353.15768433 369.35574341 353.13146973 376.77621460 353.16958618 385.18212891 C 353.19250488 394.40426636 353.23733521 404.31042480 353.12222290 414.66848755 C 353.16751099 425.09939575 353.66238403 435.52709961 351.45944214 439.63119507" stroke-width="2.00000000" fill="rgb(174, 86, 43)" opacity="1.0" stroke="rgb(19, 3, 0)" stroke-opacity="0.8759856" stroke-linecap="round" stroke-linejoin="round"/>
    <path d="M 331.77853394 447.45208740 C 323.47457886 447.43698120 315.18661499 447.40374756 306.88522339 447.40380859 C 298.59188843 447.46197510 290.35617065 447.38488770 282.19491577 447.33953857 C 274.00524902 447.34304810 265.82745361 447.29791260 257.73675537 447.35644531 C 249.67929077 447.43032837 241.62055969 447.56518555 233.61907959 447.42999268 C 225.77156067 447.29306030 218.00627136 447.34793091 210.35733032 447.36340332 C 202.95149231 447.41455078 195.88897705 447.36087036 189.20223999 447.44229126 C 183.00411987 447.36587524 177.35391235 447.47558594 172.33763123 447.49761963 C 168.08857727 447.49298096 164.64472961 447.21823120 161.92707825 446.43453979 C 159.92320251 445.50524902 159.00473022 444.66702271 159.48262024 444.01531982 C 161.37857056 443.94384766 164.57983398 444.06686401 168.88298035 444.17657471 C 174.17553711 444.17013550 180.31694031 444.15731812 187.11300659 444.21414185 C 194.44569397 444.24035645 202.19049072 444.19400024 210.21757507 444.14938354 C 218.43891907 444.17623901 226.85168457 444.20706177 235.23303223 444.16690063 C 243.51802063 444.18908691 251.67127991 444.08990479 259.70361328 444.10180664 C 267.53283691 444.08410645 275.09988403 444.09976196 282.39883423 444.09017944 C 289.45501709 444.12722778 296.17483521 444.13671875 302.57546997 444.19973755 C 308.67037964 444.27252197 314.42938232 444.24612427 319.89492798 444.14846802 C 324.98269653 444.22531128 329.75723267 444.26013184 334.19265747 444.23098755 C 338.26171875 444.18347168 341.93792725 444.17169189 345.10012817 444.55639648 C 347.83297729 445.88110352 350.37799072 447.70080566 331.77853394 447.45208740" stroke-width="1.80764139" fill="rgb(172, 86, 54)" opacity="1.0" stroke="rgb(39, 0, 0)" stroke-opacity="0.6612306" stroke-linecap="round" stroke-linejoin="round"/>
    <path d="M 255.83775330 337.35296631 C 255.13082886 340.55966187 254.42623901 343.24267578 253.16952515 345.56024170 C 251.52140808 347.08947754 249.67944336 347.50311279 247.74464417 346.82159424 C 246.08290100 344.99224854 244.66130066 341.91146851 243.21434021 337.74871826 C 241.88404846 332.55184937 240.40834045 326.31454468 238.75378418 319.11785889 C 237.30187988 311.07687378 236.32659912 302.16821289 235.97753906 292.62191772 C 235.97023010 282.48825073 236.53240967 271.99844360 237.51672363 261.37054443 C 238.87556458 250.83648682 241.83485413 240.65365601 244.66621399 230.30110168 C 246.01977539 219.47203064 246.21702576 208.68344116 245.58752441 198.22909546 C 244.59846497 188.20924377 244.18067932 178.83624268 245.26344299 170.33570862 C 247.03857422 162.81562805 248.27476501 156.15171814 247.90283203 150.31178284 C 247.11955261 145.20994568 247.77857971 140.83276367 249.95529175 137.16754150 C 252.37400818 133.72117615 254.67219543 130.75614929 256.84417725 128.43710327 C 258.61819458 126.67632294 260.07940674 125.61869812 261.23144531 125.34030151 C 262.11154175 125.94637299 262.61920166 127.39202881 262.92800903 129.64602661 C 263.05148315 133.01579285 262.95388794 137.28367615 262.62588501 142.58395386 C 262.22592163 148.86943054 261.68966675 156.13238525 261.09796143 164.31556702 C 260.49685669 173.34725952 260.06900024 183.27153015 259.73989868 193.94085693 C 258.89730835 205.28938293 257.16702271 217.23066711 254.58526611 229.65185547 C 251.47467041 242.62831116 249.13096619 256.17007446 248.18496704 270.46932983 C 247.54545593 285.25320435 246.22064209 300.16781616 255.83775330 337.35296631" stroke-width="0.50550467" fill="rgb(110, 56, 32)" opacity="1.0" stroke="rgb(0, 0, 0)" stroke-opacity="0.4547201" stroke-linecap="round" stroke-linejoin="round"/>
    <path d="M 206.95065308 232.57232666 C 208.62200928 232.65014648 210.19805908 232.77438354 211.70579529 232.87222290 C 213.28210449 233.04536438 214.89839172 233.19026184 216.45686340 233.29170227 C 218.00543213 233.45681763 219.54769897 233.67184448 221.14039612 233.90344238 C 222.73818970 234.18360901 224.30192566 234.44615173 225.85932922 234.87820435 C 227.44493103 235.61782837 229.13516235 236.33999634 230.86877441 236.77636719 C 232.58970642 237.14132690 234.38546753 237.51359558 236.00344849 237.87065125 C 237.49053955 238.35443115 238.85668945 238.83505249 240.03305054 239.10488892 C 241.12294006 239.33355713 241.97409058 239.61961365 242.44088745 240.12367249 C 242.64453125 240.81027222 242.62695312 241.65773010 242.45997620 242.58351135 C 242.20182800 243.51263428 241.94956970 244.41030884 241.63029480 245.22291565 C 241.24259949 245.79411316 240.80346680 246.03096008 240.20309448 245.99470520 C 239.47758484 245.65522766 238.51075745 245.13972473 237.34094238 244.65376282 C 236.04429626 244.30490112 234.69841003 243.95188904 233.19177246 243.35630798 C 231.62557983 242.81312561 230.02638245 242.26028442 228.40653992 241.56590271 C 226.72097778 241.11984253 224.96678162 240.73344421 223.25718689 240.41290283 C 221.55017090 240.11610413 219.83831787 239.86349487 218.11219788 239.66574097 C 216.43244934 239.50976562 214.76530457 239.43109131 213.09420776 239.38618469 C 211.48156738 239.31959534 209.88946533 239.36968994 208.32156372 239.40197754 C 206.74827576 239.49664307 205.14122009 239.62145996 203.59468079 239.67199707 C 202.06831360 239.70716858 200.55711365 239.70555115 206.95065308 232.57232666" stroke-width="0.53907615" fill="rgb(84, 46, 33)" opacity="1.0" stroke="rgb(21, 7, 0)" stroke-opacity="0.3961504" stroke-linecap="round" stroke-linejoin="round"/>
    <path d="M 299.36349487 189.74559021 C 296.87274170 189.92517090 294.36672974 190.08114624 291.82995605 190.30871582 C 289.30026245 190.53111267 286.81311035 190.74295044 284.33367920 191.01998901 C 281.93951416 191.23118591 279.53387451 191.44908142 277.29101562 191.74417114 C 275.11621094 192.05087280 273.09841919 192.55541992 271.24679565 193.31066895 C 269.59875488 194.24884033 268.12652588 195.26138306 266.68887329 196.06019592 C 265.56069946 196.90858459 264.62429810 197.59104919 263.80682373 197.81645203 C 262.98284912 197.45799255 262.06109619 196.91842651 261.10958862 196.31672668 C 260.28997803 195.56263733 259.68127441 194.68296814 259.30664062 193.85348511 C 259.31234741 193.23362732 259.72100830 192.71492004 260.62228394 192.30052185 C 261.80648804 192.02761841 263.08767700 191.33091736 264.52624512 190.39208984 C 266.30661011 189.58923340 268.30557251 188.98841858 270.42297363 188.25354004 C 272.67037964 187.47254944 275.00140381 186.79832458 277.25036621 186.01733398 C 279.52511597 185.35987854 281.86227417 184.82369995 284.16134644 184.44305420 C 286.41604614 184.25169373 288.70068359 184.08412170 290.79980469 184.05123901 C 292.86447144 184.17060852 294.79696655 184.39128113 296.67117310 184.64950562 C 298.41525269 185.01393127 300.05560303 185.45375061 301.61248779 185.97744751 C 303.02395630 186.52568054 304.41809082 187.16206360 305.67517090 187.78112793 C 306.93020630 188.48074341 308.09536743 189.16406250 309.20364380 189.91806030 C 310.26354980 190.61799622 311.37222290 191.40823364 312.49017334 192.16023254 C 313.50122070 192.89570618 314.51065063 193.64794922 299.36349487 189.74559021" stroke-width="0.61315674" fill="rgb(79, 44, 26)" opacity="1.0" stroke="rgb(2, 10, 0)" stroke-opacity="0.38477224" stroke-linecap="round" stroke-linejoin="round"/>
    <path d="M 236.08454895 137.41633606 C 233.69143677 138.21272278 231.21678162 139.07527161 228.80621338 139.83872986 C 226.48497009 140.56869507 224.22041321 141.25016785 222.00595093 141.83241272 C 219.90797424 142.30960083 217.91810608 142.72956848 216.03433228 143.02496338 C 214.31660461 143.18646240 212.80540466 143.19181824 211.40647888 143.14605713 C 210.22354126 142.98347473 209.23753357 142.72251892 208.43894958 142.32659912 C 207.90888977 141.83221436 207.64138794 141.23950195 207.59028625 140.61363220 C 207.78594971 139.91352844 208.23150635 139.16542053 208.95458984 138.38369751 C 209.89537048 137.57992554 211.08564758 136.79992676 212.51728821 136.02749634 C 214.22273254 135.26411438 216.08207703 134.53625488 218.14221191 133.91754150 C 220.38096619 133.30967712 222.75131226 132.81469727 225.20520020 132.39263916 C 227.73338318 132.02117920 230.23345947 131.78448486 232.70381165 131.66157532 C 235.14912415 131.61372375 237.46951294 131.69812012 239.61000061 131.91560364 C 241.50061035 132.18391418 243.17704773 132.51895142 244.48262024 133.02394104 C 245.32852173 133.66725159 245.80107117 134.50334167 246.08624268 135.22424316 C 246.44451904 135.74372864 247.06083679 135.94609070 247.79055786 136.02194214 C 248.55154419 136.00875854 249.34825134 135.96473694 250.21994019 135.83947754 C 251.05645752 135.76614380 251.76542664 135.79936218 252.35687256 136.08457947 C 252.77308655 136.61587524 253.08728027 137.35316467 253.35195923 138.21183777 C 253.44090271 139.26091003 253.37506104 140.38571167 253.28694153 141.68457031 C 253.21180725 143.00772095 253.10536194 144.29261780 236.08454895 137.41633606" stroke-width="0.50149584" fill="rgb(65, 36, 25)" opacity="1.0" stroke="rgb(0, 33, 27)" stroke-opacity="0.40430278" stroke-linecap="round" stroke-linejoin="round"/>
    <path d="M 211.56761169 266.33666992 C 208.66934204 268.86248779 205.65080261 271.09231567 202.30644226 272.98568726 C 198.75947571 274.54876709 195.05332947 275.81784058 191.35409546 276.63629150 C 187.52252197 277.11087036 183.66856384 277.16494751 179.81317139 276.98440552 C 176.06599426 276.61798096 172.41438293 275.80587769 168.85955811 274.57434082 C 165.40850830 273.02844238 162.08450317 271.15679932 159.03585815 268.83569336 C 156.12249756 266.42340088 153.64744568 263.51202393 151.45352173 260.33636475 C 149.53837585 256.95486450 148.03520203 253.39369202 147.00556946 249.61145020 C 146.03878784 245.72772217 145.54946899 241.72320557 145.52343750 237.69686890 C 145.78759766 233.61528015 146.39765930 229.55113220 147.54661560 225.55302429 C 148.98446655 221.64422607 150.90403748 217.93945312 153.42262268 214.59068298 C 156.06288147 211.26884460 159.11116028 208.51777649 162.62187195 206.10694885 C 166.20631409 203.94618225 169.97045898 202.18368530 174.02517700 201.03073120 C 178.11761475 200.16105652 182.23336792 199.85499573 186.34016418 199.96737671 C 190.40878296 200.47171021 194.32562256 201.43449402 198.16499329 202.68202209 C 201.79275513 204.11984253 205.26515198 205.84495544 208.40487671 207.95559692 C 211.38269043 210.32991028 214.11320496 212.96842957 216.47622681 216.00106812 C 218.85342407 218.94076538 220.66143799 222.25500488 222.10496521 225.74674988 C 223.44703674 229.23725891 224.19416809 232.86718750 224.29844666 236.75170898 C 224.02110291 240.81517029 223.24432373 245.00631714 222.03088379 249.29232788 C 220.47834778 253.71609497 218.87171936 258.20800781 211.56761169 266.33666992" stroke-width="0.50048679" fill="rgb(38, 86, 33)" opacity="1.0" stroke="rgb(20, 0, 28)" stroke-opacity="0.3841702" stroke-linecap="round" stroke-linejoin="round"/>
    <path d="M 302.39172363 114.42864990 C 298.25247192 115.73128510 294.12509155 116.98425293 290.05059814 118.16590118 C 286.00805664 119.34475708 281.99603271 120.56506348 277.95849609 121.81836700 C 273.97708130 123.16475677 269.93826294 124.37931824 265.93222046 125.58277893 C 262.06640625 126.76735687 258.35815430 128.01412964 254.60339355 128.98004150 C 250.81762695 129.75297546 247.02081299 130.52250671 243.31059265 130.95851135 C 239.83372498 131.12124634 236.38397217 130.89115906 232.93432617 130.24310303 C 229.63282776 129.18498230 226.56654358 127.72775269 223.55932617 125.87185669 C 220.54527283 123.80485535 217.69625854 121.53659821 215.08154297 118.93972015 C 212.59761047 116.01863861 210.21238708 112.97729492 207.86721802 109.93459320 C 205.61781311 106.74617004 203.62236023 103.38900757 201.92465210 99.93509674 C 200.33439636 96.38636780 198.66307068 93.06343842 197.81538391 89.48815918 C 197.06932068 85.62234497 196.45849609 81.60235596 196.26678467 77.49875641 C 196.40875244 73.34220123 196.80792236 69.23942566 197.70426941 65.27443695 C 198.63021851 61.33867264 200.00447083 57.59294128 201.69190979 54.00564957 C 203.40539551 50.49070358 205.44763184 47.26900101 207.93318176 44.45374680 C 210.23287964 41.50746536 212.91845703 38.92586899 215.60937500 36.46533966 C 218.47212219 34.32406616 221.39651489 32.36109161 224.57765198 30.77288246 C 227.57827759 29.09917450 230.80184937 27.75947571 234.27754211 26.59264946 C 237.99147034 25.71885300 241.80763245 24.61992455 245.51496887 23.92267609 C 249.54731750 23.64579391 253.74247742 23.52599907 257.81896973 23.57154465 C 261.78298950 23.95585823 265.67333984 24.58283043 269.50256348 25.53260612 C 273.25497437 26.35341263 276.82150269 27.74190712 279.97622681 29.71852493 C 283.48889160 31.51727295 286.97116089 33.43317795 290.19033813 35.64271545 C 293.23071289 37.99494171 295.97750854 40.57152939 298.35699463 43.44159317 C 300.81164551 46.18130493 302.80535889 49.21633148 304.28445435 52.54587173 C 305.69943237 56.16939545 306.95428467 59.64076614 308.09732056 63.20397186 C 308.72863770 66.85371399 308.99496460 70.61832428 309.13000488 74.37682343 C 309.27066040 78.12322235 309.46932983 81.93837738 309.62713623 85.83944702 C 309.82260132 89.73570251 309.98510742 93.60305786 310.12088013 97.47486877 C 310.20495605 101.36105347 310.31112671 105.25342560 302.39172363 114.42864990" stroke-width="1.91494465" fill="rgb(54, 133, 39)" opacity="1.0" stroke="rgb(16, 36, 12)" stroke-opacity="0.93806386" stroke-linecap="round" stroke-linejoin="round"/>
    <path d="M 361.81756592 159.85018921 C 363.95187378 162.87532043 365.77960205 166.01858521 367.54818726 169.08131409 C 368.94042969 172.11843872 369.72988892 175.36419678 370.56912231 178.63191223 C 371.17489624 181.88076782 371.64767456 185.20101929 371.88623047 188.37228394 C 371.73403931 191.33071899 371.51901245 194.22860718 371.25628662 197.21890259 C 370.43655396 200.32315063 369.56893921 203.41804504 368.35095215 206.48803711 C 367.03082275 209.69764709 365.32617188 212.61769104 363.40197754 215.36994934 C 361.47326660 218.19723511 359.28863525 220.71455383 357.00140381 223.08387756 C 354.42770386 225.05538940 351.84814453 226.83021545 349.22174072 228.48248291 C 346.51730347 229.65777588 343.97973633 230.92474365 341.30093384 232.12976074 C 338.40130615 232.98182678 335.38665771 233.60536194 332.29354858 234.29292297 C 329.12869263 234.88984680 326.00424194 235.12734985 322.72152710 234.85751343 C 319.39355469 234.64663696 316.13641357 234.15057373 312.81307983 233.55824280 C 309.55181885 232.81480408 306.37835693 231.80494690 303.42599487 230.56303406 C 300.55590820 229.23522949 297.91510010 227.66661072 295.46810913 225.84786987 C 293.12249756 223.89657593 290.89529419 221.88052368 288.83544922 219.67419434 C 287.02395630 217.18820190 285.24899292 214.70719910 283.62707520 212.30213928 C 282.51162720 209.68385315 281.51489258 207.28686523 280.56872559 204.59796143 C 279.97332764 201.69447327 279.33026123 198.85018921 278.46987915 195.81620789 C 278.47009277 192.47723389 278.59713745 189.09251404 278.57055664 185.74728394 C 279.06558228 182.41662598 279.81655884 178.96012878 280.86141968 175.71154785 C 282.22567749 172.60269165 283.73849487 169.38777161 285.38015747 166.14360046 C 287.20199585 163.06983948 289.30435181 160.21980286 291.55914307 157.47924805 C 293.99591064 154.82690430 296.57614136 152.24357605 299.25631714 149.80339050 C 302.16354370 147.67025757 305.21701050 145.87774658 308.31869507 144.34010315 C 311.55105591 142.98786926 314.74755859 141.97074890 318.01724243 141.33882141 C 321.32949829 141.09091187 324.60543823 141.25578308 327.68298340 141.83610535 C 330.59393311 142.63821411 333.55657959 143.30392456 336.49661255 143.47825623 C 339.26208496 143.97175598 341.98867798 145.11087036 344.62631226 146.50732422 C 347.24285889 147.82025146 349.83471680 149.40211487 352.29199219 150.88175964 C 354.63299561 152.52583313 356.59066772 154.32795715 361.81756592 159.85018921" stroke-width="1.94820797" fill="rgb(71, 145, 50)" opacity="1.0" stroke="rgb(10, 28, 5)" stroke-opacity="0.92165256" stroke-linecap="round" stroke-linejoin="round"/>
    <path d="M 234.47116089 144.56480408 C 233.82934570 147.08813477 233.04199219 149.57650757 232.17820740 152.04483032 C 231.33508301 154.48680115 230.51179504 156.98225403 229.54344177 159.48518372 C 228.45387268 161.94522095 227.21455383 164.32077026 225.90664673 166.66685486 C 224.50090027 169.06983948 222.92279053 171.46969604 221.29013062 173.79307556 C 219.48686218 176.00350952 217.59460449 178.15917969 215.63562012 180.23936462 C 213.59559631 182.32542419 211.52058411 184.28131104 209.44160461 186.04704285 C 207.32913208 187.58953857 204.92984009 188.76106262 202.44551086 189.70712280 C 199.92463684 190.38162231 197.32136536 190.64801025 194.58753967 190.77507019 C 191.74488831 190.68298340 188.93630981 190.56610107 186.18954468 190.33651733 C 183.53085327 189.86402893 180.82124329 189.25646973 178.26968384 188.45089722 C 175.68905640 187.41952515 173.02482605 186.38128662 170.66989136 185.07348633 C 168.43934631 183.36630249 166.25604248 181.71496582 164.10923767 180.03715515 C 162.29269409 178.08543396 160.62042236 176.14801025 159.06338501 174.20227051 C 157.74252319 171.94168091 156.49383545 169.75715637 155.13435364 167.52140808 C 154.14082336 165.08639526 153.31713867 162.45315552 152.45660400 159.69317627 C 152.01515198 156.71101379 151.70558167 153.56405640 151.61564636 150.39633179 C 151.61585999 147.30920410 151.81602478 144.15055847 152.34417725 140.80844116 C 153.13410950 137.68231201 154.16424561 134.68336487 155.33343506 131.58596802 C 156.94493103 128.72865295 158.45404053 125.86960602 160.20790100 123.22286987 C 162.15478516 120.83622742 164.14691162 118.57491302 166.17962646 116.43141174 C 168.44844055 114.54602814 170.74958801 112.84020996 173.31350708 111.27323914 C 176.07434082 110.03457642 178.76754761 108.64105225 181.59243774 107.49987030 C 184.65000916 106.75772095 187.77770996 106.08178711 190.87577820 105.45816803 C 194.02287292 105.16773224 197.19515991 105.17221832 200.36007690 105.08477783 C 203.38552856 105.23811340 206.19284058 105.73624420 208.94908142 106.57353973 C 211.61851501 107.53894043 214.22000122 108.63988495 216.70381165 109.94642639 C 219.02792358 111.43798828 221.28524780 113.14828491 223.49667358 114.95024872 C 225.43383789 116.82840729 227.04966736 118.86496735 228.65289307 121.06136322 C 230.20718384 123.26387024 231.35012817 125.60112000 232.43994141 128.05339050 C 233.57168579 130.56170654 234.64906311 133.06036377 234.47116089 144.56480408" stroke-width="1.90156567" fill="rgb(76, 163, 60)" opacity="1.0" stroke="rgb(14, 36, 12)" stroke-opacity="0.95108104" stroke-linecap="round" stroke-linejoin="round"/>
    <path d="M 265.30557251 120.59018707 C 264.19192505 117.17937469 263.44235229 113.68577576 262.97378540 110.22261810 C 262.76974487 106.66410828 262.94616699 103.00949097 263.49179077 99.37444305 C 264.35394287 95.81559753 265.51544189 92.28700256 267.00299072 88.82759094 C 268.64559937 85.39698792 270.59686279 82.17274475 272.90548706 79.19184875 C 275.50012207 76.57395172 278.44036865 74.38854980 281.81848145 72.54906464 C 285.53210449 71.19155121 289.45672607 70.29701996 293.58703613 69.94297791 C 297.93597412 69.70275879 302.42614746 69.63326263 306.91201782 69.94849396 C 311.30911255 70.79632568 315.49267578 72.28159332 319.52557373 74.20376587 C 323.42068481 76.35852051 326.80627441 79.25539398 330.05953979 82.26625061 C 332.91397095 85.47437286 335.34078979 88.85346222 337.32067871 92.43046570 C 338.85614014 96.10131073 340.03979492 99.78959656 340.66339111 103.47257233 C 340.88876343 107.28897858 340.86318970 111.08936310 340.56915283 114.86083221 C 340.09143066 118.56469727 339.06338501 121.99877930 337.65658569 125.22941589 C 336.30233765 128.36193848 334.66088867 131.09011841 332.80810547 133.44082642 C 331.36730957 135.78787231 330.00631714 137.86579895 328.32028198 139.28662109 C 326.05584717 140.05111694 323.28259277 140.24530029 320.07980347 140.49046326 C 316.49002075 140.96319580 312.41744995 141.46807861 308.09658813 141.85438538 C 303.56634521 142.15179443 298.88391113 142.39508057 294.03240967 142.62387085 C 289.07510376 142.79711914 284.02011108 142.91772461 278.93612671 143.01252747 C 273.88430786 143.12049866 268.91213989 143.25155640 265.30557251 120.59018707" stroke-width="1.77589667" fill="rgb(97, 172, 65)" opacity="1.0" stroke="rgb(16, 49, 9)" stroke-opacity="0.9503779" stroke-linecap="round" stroke-linejoin="round"/>
    <path d="M 248.20341492 156.02043152 C 248.75416565 159.54743958 249.14192200 163.01882935 249.28388977 166.36372375 C 249.33795166 169.51867676 249.06219482 172.43655396 248.47627258 175.12652588 C 247.55885315 177.43301392 246.30444336 179.43621826 244.83282471 181.20950317 C 243.36466980 182.89196777 241.68254089 184.07307434 239.66926575 184.99572754 C 237.52268982 186.10021973 235.25680542 187.04408264 232.85313416 187.91488647 C 230.48274231 188.64570618 228.05703735 189.12051392 225.54885864 189.28553772 C 223.13978577 189.32299805 220.84663391 188.99238586 218.64192200 188.68966675 C 216.39794922 188.34506226 214.21426392 187.79359436 212.24401855 186.83657837 C 210.25155640 185.60725403 208.34326172 184.12567139 206.55969238 182.52719116 C 204.92304993 180.72676086 203.58258057 178.55075073 202.45594788 176.18504333 C 201.44725037 173.78756714 200.68275452 171.22619629 200.16749573 168.49768066 C 200.03311157 165.76504517 200.09045410 162.99765015 200.26995850 160.21974182 C 200.91813660 157.56716919 201.99638367 155.08815002 203.23379517 152.72293091 C 204.78419495 150.50291443 206.56719971 148.46604919 208.63160706 146.78511047 C 210.75170898 145.18116760 212.96861267 143.86428833 215.29904175 142.84725952 C 217.69712830 142.07563782 220.10569763 141.61483765 222.48805237 141.47860718 C 224.92813110 141.42834473 227.36094666 141.55207825 229.74386597 142.05125427 C 232.10469055 142.63133240 234.44763184 143.33378601 236.70666504 144.43037415 C 238.80479431 146.14375305 240.80667114 148.14578247 242.52221680 150.65951538 C 244.27224731 153.30712891 246.20544434 155.85748291 248.20341492 156.02043152" stroke-width="1.61057067" fill="rgb(113, 194, 94)" opacity="1.0" stroke="rgb(8, 27, 6)" stroke-opacity="0.87035275" stroke-linecap="round" stroke-linejoin="round"/>
    <path d="M 312.81689453 145.26678467 C 312.57379150 148.46113586 312.17807007 151.66545105 311.40106201 154.72901917 C 310.38009644 157.71347046 309.00680542 160.47523499 307.40649414 163.07867432 C 305.55358887 165.43934631 303.43527222 167.48126221 301.08602905 169.20011902 C 298.58175659 170.80361938 295.93518066 172.08047485 293.24435425 173.22050476 C 290.49819946 174.04914856 287.62194824 174.54190063 284.66555786 174.81480408 C 281.78298950 174.94822693 278.91625977 174.66278076 276.06329346 173.85350037 C 273.16476440 173.01495361 270.31600952 172.01051331 267.72937012 170.53138733 C 265.53863525 168.53176880 262.96914673 166.87631226 260.38790894 165.37316895 C 258.19055176 163.14338684 256.42855835 160.43518066 254.94509888 157.44448853 C 253.95729065 154.09791565 253.21081543 150.77064514 252.67835999 147.48295593 C 252.50729370 144.23362732 252.77127075 141.09013367 253.25651550 138.18847656 C 254.07608032 135.54826355 255.42465210 133.11273193 256.92980957 130.76922607 C 258.73556519 128.53825378 260.81903076 126.38608551 262.94506836 124.42423248 C 265.28350830 122.62850952 267.83999634 120.99353027 270.49597168 119.72643280 C 273.29650879 118.75555420 276.19906616 118.18653107 279.11639404 117.87426758 C 282.13098145 117.61042023 285.12561035 117.72172546 288.04235840 118.22290802 C 290.91073608 118.76158142 293.72625732 119.70948029 296.40368652 120.84233856 C 298.91812134 122.10981750 301.23361206 123.72314453 303.34664917 125.55421448 C 305.43331909 127.39704132 307.27975464 129.54609680 308.74752808 132.03527832 C 310.26083374 134.54341125 311.90289307 137.21127319 312.81689453 145.26678467" stroke-width="1.64584792" fill="rgb(144, 208, 120)" opacity="1.0" stroke="rgb(11, 27, 6)" stroke-opacity="0.85331905" stroke-linecap="round" stroke-linejoin="round"/>
    <path d="M 262.42132568 211.55140686 C 261.54003906 213.02442932 260.71063232 214.65213013 259.85513306 216.17961121 C 258.64669800 217.36434937 257.39825439 218.58706665 256.18826294 219.75509644 C 254.94262695 220.69651794 253.54348755 221.58906555 251.99287415 222.15945435 C 250.45022583 222.71789551 248.87141418 223.06163025 247.04014587 223.30703735 C 245.23815918 223.37632751 243.42813110 223.65460205 241.71784973 223.72650146 C 239.77598572 223.30438232 237.84501648 222.52592468 236.07344055 221.57211304 C 234.39329529 220.56771851 233.12394714 219.21282959 231.98429871 217.68432617 C 231.05307007 216.09570312 230.17904663 214.62072754 229.39901733 212.99243164 C 228.96582031 211.21238708 228.67704773 209.41967773 228.42218018 207.76419067 C 228.67214966 206.37208557 228.98449707 204.98187256 229.23655701 203.54740906 C 229.67066956 202.24417114 230.06718445 201.01451111 230.74148560 199.88423157 C 231.58157349 198.73065186 232.49774170 197.44653320 233.70776367 196.28916931 C 234.98321533 195.12402344 236.39578247 193.91493225 238.01455688 192.91665649 C 239.82020569 192.32916260 241.46716309 191.56947327 243.12402344 190.89297485 C 245.03224182 190.75927734 246.95500183 190.53433228 248.83082581 190.40419006 C 250.71403503 190.77134705 252.56904602 191.41212463 254.35171509 192.31813049 C 256.12072754 193.25167847 257.77664185 194.15185547 259.17098999 195.31665039 C 260.12722778 196.84700012 260.93371582 198.55305481 261.70675659 200.15243530 C 262.02276611 201.78216553 262.39947510 203.37162781 262.75146484 204.97409058 C 263.00527954 206.59579468 263.06820679 208.22792053 262.42132568 211.55140686" stroke-width="1.72286773" fill="rgb(157, 218, 133)" opacity="1.0" stroke="rgb(26, 35, 20)" stroke-opacity="0.9496868" stroke-linecap="round" stroke-linejoin="round"/>
    <path d="M 269.93014526 81.50435638 C 268.35003662 80.76379395 266.84201050 80.22937775 265.27941895 79.53394318 C 263.88986206 78.63317871 262.52706909 77.76853180 261.31405640 76.54479218 C 260.36654663 75.09647369 259.53909302 73.61664581 258.74368286 72.18010712 C 258.40057373 70.62590027 258.29470825 69.06035614 258.16061401 67.63075256 C 258.29043579 66.27025604 258.41720581 64.89775085 258.70675659 63.49615097 C 259.26080322 62.04244232 259.84753418 60.59659195 260.59857178 59.22779846 C 261.68161011 57.94704819 262.85906982 56.74135971 264.17913818 55.72815323 C 265.60641479 54.85944366 266.99209595 54.06953430 268.39706421 53.42468643 C 269.79653931 52.94349289 271.16735840 52.62107086 272.56079102 52.51044083 C 273.95663452 52.63895798 275.37628174 52.79055786 276.84164429 52.90453339 C 278.31369019 53.33394623 279.64633179 53.89321518 280.85720825 54.63912582 C 282.08917236 55.50395203 283.32019043 56.46774673 284.40686035 57.51142120 C 285.38281250 58.65950394 286.11679077 59.96984482 286.66763306 61.38992691 C 287.16442871 62.91308212 287.73910522 64.38153076 288.16345215 65.78880310 C 288.40103149 67.27738190 288.41320801 68.69894409 288.17922974 70.04061890 C 287.64462280 71.30589294 286.88265991 72.60972595 286.16159058 73.82862854 C 285.23788452 74.97367096 284.39739990 76.14342499 283.43249512 77.14068604 C 282.52062988 78.07427979 281.52441406 78.65483093 280.46932983 79.06918335 C 279.49581909 79.66855621 278.53582764 80.08357239 277.50790405 80.40778351 C 276.62832642 80.87539673 275.88992310 81.35173035 269.93014526 81.50435638" stroke-width="1.74043715" fill="rgb(182, 229, 161)" opacity="1.0" stroke="rgb(12, 34, 9)" stroke-opacity="0.8958072" stroke-linecap="round" stroke-linejoin="round"/>
    <path d="M 227.10833740 339.79165649 C 228.20527649 341.17938232 229.34365845 342.34954834 230.27706909 343.62710571 C 231.10281372 344.92047119 231.95031738 345.91610718 232.66375732 346.74505615 C 233.03291321 347.50473022 232.86015320 348.02239990 232.10348511 348.41238403 C 230.84960938 348.94830322 229.37326050 349.70046997 227.60336304 350.30148315 C 225.57168579 350.43548584 223.34963989 350.40402222 221.01568604 350.41595459 C 218.50028992 350.55090332 215.87162781 350.54388428 213.11187744 350.59619141 C 210.28361511 350.59161377 207.44450378 350.59259033 204.70275879 350.63043213 C 201.93589783 350.50320435 199.16084290 350.44631958 196.46281433 350.55654907 C 193.93847656 350.65664673 191.67671204 350.61511230 189.66075134 350.53173828 C 187.81858826 350.58139038 186.17098999 350.59930420 184.86637878 350.85122681 C 183.86137390 350.85104370 183.13414001 350.73068237 182.75729370 350.44863892 C 182.93130493 349.82626343 183.36901855 348.90457153 183.90519714 347.78659058 C 184.50375366 346.45693970 185.39004517 345.05361938 186.42971802 343.65963745 C 187.59623718 342.16360474 188.58914185 340.55084229 189.86949158 339.05084229 C 191.30604553 337.61886597 192.92907715 336.31393433 194.60554504 335.05139160 C 196.30915833 334.06481934 197.97473145 332.94570923 199.56852722 332.12280273 C 201.40205383 331.61178589 203.31518555 331.36712646 205.20231628 331.04833984 C 207.02061462 331.09567261 208.92776489 331.26672363 210.89195251 331.26632690 C 213.05033875 331.66537476 215.35516357 332.15173340 217.55751038 333.10848999 C 220.15753174 334.18960571 222.80038452 335.14920044 227.10833740 339.79165649" stroke-width="1.87652528" fill="rgb(228, 213, 183)" opacity="1.0" stroke="rgb(1, 0, 1)" stroke-opacity="0.8362934" stroke-linecap="round" stroke-linejoin="round"/>
    <path d="M 296.41653442 350.37756348 C 293.62005615 350.45553589 290.72683716 350.47225952 287.84674072 350.44989014 C 284.95007324 350.42987061 282.17132568 350.48242188 279.42858887 350.45904541 C 276.69506836 350.54843140 273.99584961 350.49774170 271.27212524 350.34216309 C 268.58941650 350.36898804 266.01519775 350.49209595 263.50610352 350.41784668 C 261.05975342 350.37307739 258.69659424 350.33016968 256.54727173 350.38598633 C 254.52055359 350.50128174 252.77998352 350.41619873 251.32453918 350.27905273 C 250.15325928 350.42407227 249.24325562 350.57708740 248.68484497 350.45162964 C 248.36251831 349.84500122 248.39216614 348.94180298 249.05186462 348.12518311 C 250.28265381 347.28787231 251.72628784 346.42828369 253.10160828 345.80746460 C 254.06498718 344.81967163 254.73173523 343.45043945 255.79821777 342.32406616 C 257.29498291 341.30545044 258.96780396 340.21936035 260.50378418 338.76846313 C 262.28390503 337.50668335 264.11825562 336.36367798 266.03765869 335.34445190 C 267.97402954 334.72897339 270.01596069 334.12265015 271.92007446 333.63589478 C 273.82507324 333.40029907 275.72406006 333.39019775 277.64282227 333.47412109 C 279.47015381 333.58013916 281.23666382 334.04183960 283.05487061 334.58901978 C 284.70516968 335.31350708 286.43548584 336.19281006 287.94595337 337.10446167 C 289.38067627 338.18838501 290.66491699 339.47900391 291.83193970 340.79391479 C 292.81271362 342.26223755 293.81240845 343.67205811 294.73846436 345.17053223 C 295.73098755 346.60174561 296.89004517 347.81295776 298.25463867 348.86953735 C 299.52246094 350.14138794 300.69088745 351.55212402 296.41653442 350.37756348" stroke-width="1.96278107" fill="rgb(225, 217, 181)" opacity="1.0" stroke="rgb(6, 0, 2)" stroke-opacity="0.84596" stroke-linecap="round" stroke-linejoin="round"/>
    <path d="M 332.45352173 350.48770142 C 330.81399536 350.62219238 329.19982910 350.55072021 327.67593384 350.53897095 C 326.26931763 350.66537476 324.98754883 350.71536255 323.81121826 350.73806763 C 322.88442993 350.88305664 322.11807251 350.85711670 321.68280029 350.64880371 C 321.56405640 350.47375488 321.68161011 350.23373413 322.03277588 349.87945557 C 322.51602173 349.49957275 323.35238647 349.01556396 324.30426025 348.54739380 C 325.48120117 348.11828613 326.81536865 347.80834961 328.11541748 347.65090942 C 329.52001953 347.61276245 331.04455566 347.60192871 332.43347168 347.56817627 C 333.61715698 347.82116699 334.71923828 348.05978394 335.70861816 348.25970459 C 336.50448608 348.65600586 337.13403320 349.21954346 337.70880127 349.79660034 C 338.32992554 350.36434937 339.10675049 350.83709717 332.45352173 350.48770142" stroke-width="1.89835143" fill="rgb(242, 233, 203)" opacity="1.0" stroke="rgb(30, 16, 8)" stroke-opacity="0.892802" stroke-linecap="round" stroke-linejoin="round"/>
    <path d="M 305.90832520 350.83767700 C 305.30661011 350.84088135 304.73150635 350.84732056 304.05194092 350.91992188 C 303.23876953 351.00790405 302.60794067 350.98486328 302.26934814 350.88491821 C 302.05532837 350.59863281 301.92483521 350.17648315 301.88296509 349.64916992 C 301.91882324 349.13940430 301.98727417 348.77972412 302.05249023 348.50845337 C 302.36392212 348.28753662 302.85702515 348.24832153 303.42675781 348.34387207 C 303.98748779 348.16049194 304.76718140 347.90997314 305.66098022 347.69198608 C 306.85134888 347.66052246 307.99722290 347.68157959 309.12039185 347.61642456 C 310.20239258 347.86538696 311.43203735 348.16247559 312.59860229 348.47708130 C 313.45254517 348.80413818 314.28503418 349.17922974 315.03146362 349.70309448 C 315.92370605 350.35467529 316.69931030 351.15625000 305.90832520 350.83767700" stroke-width="1.92405140" fill="rgb(224, 212, 184)" opacity="1.0" stroke="rgb(35, 21, 13)" stroke-opacity="0.86596864" stroke-linecap="round" stroke-linejoin="round"/>
    <path d="M 249.98843384 163.88688660 C 249.37013245 161.78649902 249.01362610 159.71350098 249.12603760 157.76632690 C 249.58692932 156.07736206 250.32423401 154.75660706 251.32942200 154.05281067 C 252.66857910 153.95950317 254.19003296 154.27375793 255.58595276 154.78924561 C 256.56695557 155.65235901 257.16824341 156.91062927 257.32275391 158.54515076 C 257.03015137 160.52784729 256.54721069 162.76454163 256.13290405 164.98080444 C 255.94519043 167.16653442 255.94555664 169.31060791 255.97999573 171.32881165 C 255.82788086 172.95437622 255.40621948 174.21591187 254.74201965 174.93130493 C 254.08825684 174.96952820 253.47010803 174.40449524 253.02359009 173.33717346 C 253.01013184 171.66488647 253.20919800 169.60098267 253.37512207 167.37217712 C 253.76811218 165.02465820 254.21328735 162.66229248 249.98843384 163.88688660" stroke-width="1.37253821" fill="rgb(238, 223, 160)" opacity="1.0" stroke="rgb(117, 0, 0)" stroke-opacity="0.41063264" stroke-linecap="round" stroke-linejoin="round"/>
    <path d="M 268.94268799 217.90931702 C 266.86935425 217.95211792 264.78610229 218.04615784 262.67694092 218.10620117 C 260.60174561 218.25445557 258.56857300 218.42428589 256.52566528 218.36076355 C 254.51074219 218.01217651 252.49745178 217.84793091 250.46607971 217.84609985 C 248.37498474 217.96684265 246.41751099 217.97613525 244.54757690 217.83245850 C 242.72453308 217.68049622 241.03189087 217.71011353 239.69178772 217.85136414 C 238.75648499 218.00749207 238.25770569 217.78053284 238.08271790 217.02551270 C 238.16084290 215.73492432 238.34359741 214.08964539 238.38209534 212.06137085 C 238.36772156 209.63035583 238.27532959 206.88322449 238.03158569 203.88784790 C 238.00692749 200.73468018 237.88177490 197.49697876 237.74098206 194.21844482 C 237.71626282 190.88162231 237.58630371 187.67449951 237.39068604 184.66319275 C 237.24243164 181.84622192 237.19653320 179.38580322 237.16221619 177.26165771 C 237.00564575 175.57809448 237.04708862 174.44075012 237.58595276 173.82128906 C 238.76921082 173.71899414 240.52491760 173.84913635 242.67063904 174.05691528 C 245.17610168 174.18585205 247.87001038 174.41514587 250.69740295 174.67558289 C 253.53089905 174.70755005 256.21868896 174.58929443 258.77587891 174.44151306 C 261.16476440 174.37821960 263.29437256 174.29844666 265.10397339 174.21144104 C 266.48953247 174.02981567 267.50347900 173.96395874 268.16290283 174.34588623 C 268.41958618 175.24639893 268.41287231 176.54327393 268.33465576 178.13674927 C 268.21420288 179.99060059 268.21316528 182.00807190 268.31277466 184.14469910 C 268.52105713 186.35931396 268.99389648 188.60304260 268.94268799 217.90931702" stroke-width="1.43681526" fill="rgb(232, 49, 35)" opacity="1.0" stroke="rgb(121, 40, 26)" stroke-opacity="1.0" stroke-linecap="round" stroke-linejoin="round"/>
    <path d="M 191.74749756 249.30419922 C 190.74459839 248.94445801 189.73829651 248.51812744 188.73405457 248.15840149 C 187.77607727 247.83668518 186.86967468 247.43356323 186.07751465 247.03056335 C 185.27609253 246.61206055 184.56413269 246.13931274 184.00090027 245.66882324 C 183.50100708 245.17053223 183.11225891 244.67112732 182.87281799 244.15361023 C 182.81307983 243.59986877 182.82446289 243.04983521 182.94599915 242.61039734 C 183.17178345 242.16011047 183.45523071 241.80628967 183.86947632 241.56488037 C 184.35147095 241.45137024 184.96319580 241.41281128 185.65390015 241.45503235 C 186.47312927 241.56697083 187.34477234 241.59657288 188.29286194 241.53744507 C 189.29772949 241.40910339 190.37811279 241.25444031 191.50314331 241.14929199 C 192.71812439 241.00061035 193.86865234 240.86320496 191.74749756 249.30419922" stroke-width="1.74468136" fill="rgb(255, 149, 255)" opacity="1.0" stroke="rgb(248, 117, 238)" stroke-opacity="0.70565176" stroke-linecap="round" stroke-linejoin="round"/>
    <path d="M 192.23323059 238.63157654 C 190.52592468 238.95088196 188.84747314 239.16043091 187.30711365 239.38131714 C 185.92372131 239.58160400 184.69364929 239.69052124 183.56176758 239.64715576 C 182.63569641 239.37487793 181.87350464 238.82585144 181.32583618 238.09283447 C 180.97787476 237.27059937 180.73582458 236.35636902 180.61734009 235.36692810 C 180.59919739 234.26878357 180.66477966 233.17515564 180.86383057 232.16183472 C 181.34529114 231.26115417 181.88197327 230.53326416 182.43782043 229.81153870 C 183.10203552 229.18983459 183.84780884 228.62367249 184.60516357 228.25717163 C 185.35168457 227.99830627 186.18286133 227.95397949 187.04882812 228.18272400 C 187.90139771 228.67343140 188.77018738 229.19554138 189.70962524 229.79219055 C 190.74191284 230.39192200 191.76603699 230.94677734 192.23323059 238.63157654" stroke-width="1.32117701" fill="rgb(35, 40, 33)" opacity="1.0" stroke="rgb(79, 87, 97)" stroke-opacity="0.3214776" stroke-linecap="round" stroke-linejoin="round"/>
    <path d="M 195.45199585 242.69664001 C 195.48384094 243.45069885 195.62034607 244.13192749 195.63987732 244.84497070 C 195.63473511 245.57591248 195.51104736 246.23817444 195.23744202 246.84953308 C 194.85462952 247.51835632 194.51188660 248.19999695 194.14776611 248.86427307 C 193.74851990 249.49052429 193.08976746 249.90823364 192.27760315 250.13189697 C 191.47610474 250.29856873 190.60992432 250.40200806 189.75247192 250.29057312 C 188.94953918 249.89294434 188.30624390 249.31643677 187.66735840 248.66802979 C 187.05888367 247.91796875 186.49133301 247.06796265 186.10841370 246.14938354 C 185.93501282 245.38302612 186.04539490 244.65977478 186.53555298 243.88771057 C 187.33743286 243.03353882 188.10574341 242.18682861 188.82752991 241.19029236 C 189.53121948 240.03530884 190.19479370 238.88317871 195.45199585 242.69664001" stroke-width="2.00000000" fill="rgb(225, 134, 222)" opacity="1.0" stroke="rgb(56, 10, 47)" stroke-opacity="0.6990219" stroke-linecap="round" stroke-linejoin="round"/>
    <path d="M 181.09002686 245.89859009 C 181.95269775 246.24151611 182.76205444 246.68461609 183.62367249 247.17453003 C 184.34007263 247.70513916 184.91192627 248.24562073 185.48040771 248.59324646 C 186.01608276 248.82942200 186.38208008 249.13673401 186.63700867 249.59266663 C 186.72450256 250.14968872 186.73660278 250.86395264 186.85563660 251.68655396 C 186.87872314 252.43206787 186.75085449 253.05703735 186.39595032 253.67523193 C 185.82820129 254.23518372 185.16461182 254.68106079 184.49568176 254.99488831 C 183.74728394 255.16659546 182.95542908 255.30155945 182.12765503 255.32766724 C 181.32708740 255.14083862 180.59942627 254.69844055 179.87351990 254.07955933 C 179.09027100 253.30932617 178.34358215 252.51960754 177.77803040 251.56674194 C 177.34977722 250.38658142 176.92314148 249.20190430 181.09002686 245.89859009" stroke-width="1.93320370" fill="rgb(190, 130, 211)" opacity="1.0" stroke="rgb(35, 6, 50)" stroke-opacity="0.45973483" stroke-linecap="round" stroke-linejoin="round"/>
    <path d="M 174.94056702 244.17681885 C 174.41780090 243.37261963 173.92024231 242.47261047 173.50172424 241.53999329 C 173.21551514 240.76353455 173.19839478 239.98596191 173.51779175 239.19906616 C 173.98056030 238.43246460 174.36351013 237.59059143 174.91609192 236.88093567 C 175.70169067 236.54086304 176.52751160 236.29975891 177.37629700 236.00740051 C 178.18696594 235.86674500 178.89762878 235.88494873 179.52165222 236.12297058 C 179.91291809 236.67701721 180.35321045 237.36766052 180.77255249 238.20709229 C 181.29115295 239.14851379 181.87745667 240.01837158 182.60798645 240.77326965 C 183.35554504 241.38633728 183.86029053 242.04501343 184.06582642 242.77966309 C 183.98759460 243.53500366 183.56620789 244.28460693 182.80786133 245.01606750 C 181.76329041 245.76763916 180.59655762 246.58372498 174.94056702 244.17681885" stroke-width="1.84205341" fill="rgb(207, 123, 211)" opacity="1.0" stroke="rgb(75, 0, 84)" stroke-opacity="0.30261427" stroke-linecap="round" stroke-linejoin="round"/>
    <path d="M 182.57374573 233.62977600 C 182.84684753 232.76281738 183.19419861 232.02919006 183.63327026 231.45535278 C 184.20059204 230.95042419 184.80715942 230.42552185 185.40087891 230.07243347 C 185.93931580 229.96592712 186.48725891 230.07489014 187.09030151 230.38256836 C 187.72604370 230.77432251 188.38220215 231.09381104 188.92407227 231.39205933 C 189.43031311 231.76045227 189.89443970 232.31344604 190.15225220 233.06356812 C 190.21850586 233.86770630 190.24800110 234.62565613 190.27844238 235.38522339 C 190.20204163 236.15684509 190.12110901 236.86602783 189.87062073 237.56185913 C 189.48602295 238.24635315 189.00946045 238.81451416 188.43403625 239.31713867 C 187.80705261 239.79048157 187.04766846 240.26760864 186.21257019 240.81367493 C 185.36932373 241.31376648 184.51058960 241.75115967 182.57374573 233.62977600" stroke-width="0.60252810" fill="rgb(216, 125, 212)" opacity="1.0" stroke="rgb(196, 136, 198)" stroke-opacity="0.6784606" stroke-linecap="round" stroke-linejoin="round"/>
    <path d="M 323.07958984 190.70697021 C 323.16549683 189.23374939 323.16909790 187.73083496 323.26364136 186.30537415 C 323.32916260 184.92155457 323.44647217 183.57221985 323.71109009 182.36262512 C 323.97689819 181.25242615 323.96795654 180.20552063 323.80798340 179.16830444 C 323.83843994 178.17820740 324.03234863 177.25044250 324.46548462 176.45573425 C 325.16970825 175.87876892 325.90411377 175.24543762 326.57864380 174.56365967 C 327.36395264 174.08674622 328.18350220 173.79110718 328.92419434 173.66744995 C 329.65216064 173.83465576 330.30953979 174.28189087 331.01776123 174.96751404 C 331.60827637 175.89459229 332.15298462 176.89324951 332.64898682 177.90492249 C 332.79965210 178.99586487 332.69741821 180.03817749 332.57931519 181.06549072 C 332.59710693 182.22938538 332.54208374 183.38917542 323.07958984 190.70697021" stroke-width="1.83174706" fill="rgb(224, 144, 217)" opacity="1.0" stroke="rgb(33, 3, 55)" stroke-opacity="0.5152876" stroke-linecap="round" stroke-linejoin="round"/>
    <path d="M 324.95773315 194.60993958 C 325.34454346 193.53596497 325.74368286 192.54232788 326.11486816 191.56703186 C 326.49728394 190.59613037 326.89987183 189.67251587 327.39205933 188.82008362 C 327.87689209 188.06813049 328.45397949 187.42337036 329.09863281 186.81307983 C 329.81179810 186.29225159 330.51965332 185.80120850 331.29577637 185.41502380 C 332.20794678 185.26528931 333.18856812 185.20355225 334.11746216 185.09904480 C 334.99319458 185.06164551 335.80703735 185.19165039 336.52764893 185.53753662 C 337.20458984 185.90962219 337.74172974 186.35020447 338.11917114 186.96293640 C 338.51519775 187.81050110 338.78591919 188.74900818 338.84573364 189.64662170 C 338.61096191 190.54769897 338.07128906 191.55781555 337.39349365 192.66432190 C 336.55288696 193.74967957 335.76385498 194.94276428 324.95773315 194.60993958" stroke-width="1.75874925" fill="rgb(217, 135, 218)" opacity="1.0" stroke="rgb(54, 0, 70)" stroke-opacity="0.5008477" stroke-linecap="round" stroke-linejoin="round"/>
    <path d="M 326.10110474 197.16690063 C 326.02050781 196.58213806 325.84317017 195.96255493 325.63461304 195.34172058 C 325.47167969 194.80725098 325.28219604 194.22434998 325.17111206 193.74635315 C 325.12539673 193.11608887 325.12225342 192.58473206 325.14709473 192.04438782 C 325.26681519 191.59480286 325.48428345 191.12651062 325.69274902 190.74963379 C 325.87844849 190.32446289 326.12393188 190.00785828 326.35604858 189.71304321 C 326.46334839 189.47779846 326.55090332 189.32997131 326.61447144 189.31575012 C 326.69146729 189.34730530 326.78350830 189.47351074 327.00408936 189.64299011 C 327.25796509 189.81423950 327.63455200 189.97459412 327.97393799 190.13545227 C 328.34469604 190.29202271 328.68710327 190.41703796 329.03512573 190.55847168 C 329.49307251 190.65071106 330.01968384 190.73287964 326.10110474 197.16690063" stroke-width="1.99924433" fill="rgb(85, 23, 72)" opacity="1.0" stroke="rgb(228, 133, 223)" stroke-opacity="1.0" stroke-linecap="round" stroke-linejoin="round"/>
    <path d="M 321.02819824 195.73254395 C 321.39428711 194.61625671 321.74142456 193.49380493 322.20169067 192.51379395 C 322.70983887 191.70927429 323.33258057 191.17835999 324.13003540 190.95535278 C 324.93905640 191.00349426 325.67984009 191.25828552 326.39276123 191.74131775 C 327.13491821 192.38064575 327.98776245 193.04147339 328.89553833 193.72283936 C 329.72204590 194.35791016 330.32186890 195.12669373 330.68173218 195.95478821 C 330.84286499 196.71859741 330.73321533 197.42613220 330.53421021 198.24722290 C 330.19799805 199.05404663 329.71234131 199.81594849 329.16036987 200.44010925 C 328.57388306 200.91525269 327.97943115 201.31463623 327.34997559 201.48970032 C 326.66894531 201.19424438 325.87539673 200.74537659 324.93222046 200.18223572 C 323.88308716 199.64338684 322.69921875 199.20314026 321.02819824 195.73254395" stroke-width="1.81753397" fill="rgb(219, 120, 217)" opacity="1.0" stroke="rgb(61, 15, 73)" stroke-opacity="0.5412654" stroke-linecap="round" stroke-linejoin="round"/>
    <path d="M 316.77258301 180.39874268 C 318.11791992 180.30020142 319.33090210 180.19764709 320.38037109 180.46121216 C 321.31375122 181.14859009 322.15350342 182.09106445 322.93237305 183.29133606 C 323.65206909 184.60205078 324.36962891 185.75061035 325.00885010 186.69683838 C 325.66485596 187.41925049 326.21633911 188.01477051 326.38690186 188.46646118 C 326.07028198 188.64790344 325.34020996 188.62571716 324.45010376 188.55278015 C 323.53573608 188.75877380 322.58126831 189.18601990 321.67379761 189.88996887 C 320.85107422 190.67822266 320.07199097 191.37585449 319.24664307 191.73417664 C 318.46328735 191.70608521 317.67916870 191.22314453 316.73937988 190.41702271 C 315.79302979 189.47644043 314.92007446 188.37892151 314.08343506 187.04936218 C 313.22134399 185.65936279 312.28250122 184.44189453 316.77258301 180.39874268" stroke-width="1.94589221" fill="rgb(223, 132, 221)" opacity="1.0" stroke="rgb(78, 0, 81)" stroke-opacity="0.48501077" stroke-linecap="round" stroke-linejoin="round"/>
    <path d="M 328.73498535 192.13575745 C 329.10964966 192.13436890 329.37527466 192.15019226 329.65753174 192.21401978 C 329.93768311 192.24250793 330.11401367 192.30349731 330.28884888 192.44592285 C 330.46557617 192.61923218 330.57156372 192.80364990 330.69137573 193.05133057 C 330.82308960 193.28161621 330.95944214 193.43908691 331.16629028 193.56990051 C 331.35202026 193.71723938 331.47180176 193.83885193 331.54119873 194.01304626 C 331.57318115 194.17703247 331.56549072 194.35408020 331.48687744 194.52587891 C 331.39978027 194.65924072 331.28640747 194.75770569 331.15029907 194.87408447 C 330.96643066 194.88140869 330.73620605 194.83843994 330.50064087 194.81919861 C 330.18255615 194.76989746 329.91583252 194.65727234 329.65444946 194.57182312 C 329.35968018 194.42517090 329.08401489 194.30969238 328.73498535 192.13575745" stroke-width="0.62867540" fill="rgb(68, 22, 64)" opacity="1.0" stroke="rgb(1, 22, 0)" stroke-opacity="0.2910041" stroke-linecap="round" stroke-linejoin="round"/>
    <path d="M 203.81541443 138.20559692 C 203.82107544 139.16622925 203.75798035 140.10728455 203.54750061 140.98847961 C 203.19694519 141.91094971 202.72705078 142.83192444 202.21514893 143.62365723 C 201.74299622 144.40238953 201.29515076 145.13470459 200.84562683 145.79072571 C 200.38270569 146.33767700 199.89581299 146.64297485 199.37344360 146.68319702 C 198.75123596 146.57893372 198.18220520 146.26997375 197.68812561 145.74978638 C 197.16499329 145.12089539 196.71475220 144.36268616 196.43911743 143.46676636 C 196.39331055 142.52952576 196.38726807 141.50657654 196.33135986 140.40090942 C 196.22477722 139.31495667 196.18772888 138.36225891 196.33396912 137.48905945 C 196.76087952 136.70230103 197.49458313 135.98373413 198.40333557 135.22492981 C 199.25036621 134.37388611 200.01541138 133.44042969 203.81541443 138.20559692" stroke-width="2.00000000" fill="rgb(221, 139, 220)" opacity="1.0" stroke="rgb(56, 0, 90)" stroke-opacity="0.48457074" stroke-linecap="round" stroke-linejoin="round"/>
    <path d="M 206.48812866 151.77832031 C 205.48457336 151.74769592 204.51496887 151.77072144 203.68157959 151.61518860 C 202.80535889 151.16856384 201.98464966 150.60643005 201.27041626 149.95072937 C 200.63069153 149.41934204 200.00399780 149.04435730 199.48077393 148.67634583 C 199.10476685 148.16607666 198.89683533 147.76177979 198.96269226 147.43557739 C 199.32197571 147.05619812 199.86529541 146.66998291 200.53634644 146.34043884 C 201.20114136 145.78999329 202.04197693 145.24780273 202.96572876 144.68315125 C 203.98529053 144.21641541 204.98353577 143.86950684 205.88963318 143.70011902 C 206.58795166 143.79214478 207.20869446 144.18028259 207.77670288 144.74188232 C 208.29393005 145.23463440 208.61613464 145.91581726 208.83230591 146.76123047 C 209.10675049 147.61172485 209.27801514 148.42555237 206.48812866 151.77832031" stroke-width="1.81332052" fill="rgb(227, 135, 220)" opacity="1.0" stroke="rgb(66, 0, 61)" stroke-opacity="0.46156487" stroke-linecap="round" stroke-linejoin="round"/>
    <path d="M 194.62882996 156.54499817 C 194.65695190 156.35101318 194.60662842 156.17483521 194.60430908 156.03117371 C 194.59675598 155.84088135 194.57914734 155.63671875 194.57154846 155.51718140 C 194.57756042 155.34716797 194.56500244 155.19200134 194.61502075 155.05163574 C 194.58044434 154.93466187 194.64584351 154.78811646 194.68583679 154.70014954 C 194.72288513 154.60227966 194.79281616 154.51882935 194.89300537 154.46420288 C 194.95402527 154.40028381 195.07398987 154.37455750 195.17504883 154.36384583 C 195.31533813 154.33767700 195.42994690 154.33187866 195.58499146 154.38577271 C 195.73995972 154.39164734 195.87478638 154.41432190 196.06762695 154.47080994 C 196.21305847 154.50447083 196.37872314 154.53611755 196.55233765 154.61888123 C 196.73130798 154.62861633 196.88005066 154.71614075 194.62882996 156.54499817" stroke-width="2.00000000" fill="rgb(222, 0, 107)" opacity="1.0" stroke="rgb(229, 22, 149)" stroke-opacity="1.0" stroke-linecap="round" stroke-linejoin="round"/>
    <path d="M 201.10009766 157.95152283 C 199.95166016 158.61126709 198.85948181 159.19732666 197.78739929 159.60153198 C 196.77134705 159.79162598 195.79806519 159.71899414 194.85168457 159.49946594 C 193.90934753 159.13967896 192.96951294 158.70318604 192.20593262 158.14491272 C 191.60188293 157.61997986 191.23348999 156.88189697 191.02572632 156.07391357 C 190.87734985 155.25561523 190.85757446 154.46157837 191.05877686 153.66413879 C 191.47673035 152.95579529 192.09390259 152.32939148 192.76086426 151.70921326 C 193.48518372 151.08393860 194.33433533 150.54136658 195.25404358 150.17025757 C 196.16593933 150.08293152 197.16020203 150.18629456 198.14572144 150.54110718 C 199.15238953 151.08135986 200.12489319 151.78981018 201.15307617 152.56861877 C 202.21907043 153.41377258 203.29986572 154.30009460 201.10009766 157.95152283" stroke-width="1.92496467" fill="rgb(220, 132, 212)" opacity="1.0" stroke="rgb(66, 0, 92)" stroke-opacity="0.4428982" stroke-linecap="round" stroke-linejoin="round"/>
    <path d="M 186.97645569 142.96514893 C 188.08285522 142.55064392 189.11462402 142.22720337 190.16975403 141.97734070 C 191.23712158 141.88964844 192.29212952 141.96061707 193.20800781 142.18852234 C 194.05783081 142.61029053 194.84365845 143.13626099 195.54093933 143.72721863 C 196.12405396 144.36293030 196.52597046 145.01214600 196.81462097 145.69239807 C 196.80931091 146.41975403 196.60244751 147.20739746 196.19944763 147.92669678 C 195.62300110 148.62509155 194.98286438 149.32188416 194.30361938 150.04776001 C 193.59715271 150.67126465 192.83531189 151.23326111 192.02403259 151.62373352 C 191.14772034 151.82344055 190.30213928 151.85260010 189.49488831 151.68190002 C 188.66937256 151.22877502 187.83779907 150.64620972 187.04035950 149.88812256 C 186.14437866 149.08988953 185.16514587 148.26809692 186.97645569 142.96514893" stroke-width="1.25908005" fill="rgb(87, 65, 95)" opacity="1.0" stroke="rgb(76, 26, 90)" stroke-opacity="0.43591347" stroke-linecap="round" stroke-linejoin="round"/>
    <path d="M 191.40850830 150.29045105 C 190.58644104 150.11810303 189.78919983 149.89810181 189.05029297 149.62974548 C 188.42530823 149.27973938 187.89930725 148.87573242 187.49665833 148.36817932 C 187.05807495 147.80899048 186.75491333 147.24481201 186.63018799 146.64485168 C 186.62181091 146.04756165 186.69276428 145.44964600 186.90289307 144.91018677 C 187.27604675 144.39981079 187.73741150 143.95718384 188.35113525 143.54791260 C 189.01304626 143.20265198 189.65402222 142.91426086 190.31872559 142.76872253 C 190.99908447 142.81596375 191.65936279 142.94631958 192.39825439 143.23104858 C 193.10177612 143.58123779 193.83634949 143.99038696 194.53608704 144.54351807 C 195.25944519 145.19749451 195.92922974 145.98815918 196.56092834 146.83068848 C 197.18826294 147.70916748 197.83416748 148.68572998 191.40850830 150.29045105" stroke-width="0.76340687" fill="rgb(228, 126, 222)" opacity="1.0" stroke="rgb(203, 138, 204)" stroke-opacity="0.7361055" stroke-linecap="round" stroke-linejoin="round"/>
    <path d="M 304.75466919 99.57015991 C 305.33584595 99.40766907 305.87789917 99.07967377 306.39047241 98.73309326 C 306.93545532 98.55366516 307.47143555 98.55654144 307.99020386 98.75363922 C 308.62478638 99.08703613 309.21072388 99.41880035 309.72604370 99.80366516 C 310.07199097 100.41289520 310.30310059 101.14736176 310.39553833 102.04992676 C 310.37887573 103.12591553 310.34310913 104.22753906 310.30944824 105.24492645 C 310.18692017 106.21465302 309.88180542 107.11962891 309.44393921 107.87677765 C 308.83142090 108.44175720 308.17208862 108.91609192 307.41561890 109.16735077 C 306.63635254 108.97901154 305.85769653 108.52861023 305.05221558 107.97662354 C 304.35699463 107.20346832 303.72668457 106.29815674 303.21563721 105.27511597 C 302.66998291 104.29696655 301.98648071 103.27881622 304.75466919 99.57015991" stroke-width="1.91586041" fill="rgb(233, 137, 215)" opacity="1.0" stroke="rgb(66, 5, 74)" stroke-opacity="0.4095613" stroke-linecap="round" stroke-linejoin="round"/>
    <path d="M 308.28903198 111.93563843 C 308.92892456 110.85655212 309.46304321 109.81851959 309.93325806 108.91574860 C 310.48239136 108.06928253 311.23501587 107.32685852 312.10443115 106.70632935 C 312.97424316 106.33847046 313.79000854 105.87240601 314.66418457 105.38240051 C 315.57293701 105.15749359 316.41448975 105.12088776 317.09753418 105.23105621 C 317.63589478 105.51873016 318.16928101 105.94821167 318.53778076 106.54101562 C 318.83666992 107.21525574 319.03250122 107.93670654 319.18838501 108.73780823 C 319.05279541 109.51923370 318.81503296 110.27948761 318.54464722 110.97333527 C 318.20040894 111.60054016 317.64694214 112.14404297 316.98306274 112.51213837 C 316.24346924 112.71401215 315.37182617 112.82768250 314.50888062 113.04460144 C 313.62069702 113.26242065 312.78588867 113.61186218 308.28903198 111.93563843" stroke-width="1.84500659" fill="rgb(219, 139, 202)" opacity="1.0" stroke="rgb(67, 11, 60)" stroke-opacity="0.5218337" stroke-linecap="round" stroke-linejoin="round"/>
    <path d="M 310.19430542 121.91164398 C 309.20339966 121.74231720 308.30184937 121.51989746 307.59585571 121.17705536 C 307.00228882 120.64463043 306.27886963 120.17415619 305.53482056 119.70096588 C 304.93209839 119.27455902 304.48986816 118.79383087 304.17739868 118.28501129 C 303.97232056 117.65135956 304.01431274 117.00568390 304.26028442 116.18309021 C 304.55148315 115.31790161 304.75866699 114.47663879 304.87490845 113.63977814 C 305.05902100 112.80147552 305.24563599 112.00858307 305.51089478 111.32533264 C 305.86764526 110.94348145 306.35168457 110.72657013 306.87637329 110.72441101 C 307.52087402 110.98551178 308.25256348 111.35544586 309.06829834 111.95902252 C 309.98883057 112.86666870 310.95062256 113.85065460 312.07418823 114.78844452 C 313.25238037 115.88394165 314.52746582 116.88527679 310.19430542 121.91164398" stroke-width="1.95741594" fill="rgb(225, 128, 214)" opacity="1.0" stroke="rgb(60, 0, 82)" stroke-opacity="0.60897154" stroke-linecap="round" stroke-linejoin="round"/>
    <path d="M 310.42025757 110.47677612 C 310.25836182 110.36597443 310.14730835 110.19682312 309.98043823 110.02925873 C 309.86715698 109.87262726 309.73022461 109.72088623 309.62228394 109.62332153 C 309.47521973 109.59323120 309.42712402 109.55965424 309.29653931 109.54007721 C 309.23577881 109.58211517 309.13659668 109.65122223 309.12451172 109.72394562 C 309.01678467 109.81499481 309.00527954 109.90630341 308.92581177 110.00109863 C 308.95159912 110.11209869 308.86062622 110.24964142 308.81552124 110.28189850 C 308.79339600 110.37537384 308.70989990 110.43917847 308.66497803 110.50068665 C 308.59609985 110.53427124 308.52386475 110.55517578 308.48892212 110.55153656 C 308.37503052 110.55487061 308.36367798 110.54734802 308.24523926 110.51681519 C 308.19100952 110.45906067 308.12316895 110.40668488 310.42025757 110.47677612" stroke-width="0.41251421" fill="rgb(241, 172, 243)" opacity="1.0" stroke="rgb(254, 226, 255)" stroke-opacity="0.2772455" stroke-linecap="round" stroke-linejoin="round"/>
    <path d="M 296.51855469 108.95755768 C 297.56774902 108.38212585 298.60363770 108.02857971 299.64913940 107.84750366 C 300.68020630 107.82599640 301.64300537 107.92959595 302.49215698 108.24054718 C 303.20596313 108.81507111 303.89556885 109.39073181 304.54339600 109.83599854 C 305.17660522 109.96331024 305.67483521 110.15078735 306.13549805 110.40655518 C 306.21511841 110.74952698 306.05758667 111.15931702 305.74392700 111.75945282 C 305.43600464 112.58885956 305.07391357 113.51493073 304.55740356 114.36248016 C 303.93353271 115.04150391 303.27258301 115.67026520 302.63162231 116.32595062 C 301.99813843 116.76590729 301.34655762 117.00851440 300.68978882 116.93917847 C 300.05648804 116.50025940 299.34286499 115.82666779 298.47467041 115.15229797 C 297.56060791 114.51180267 296.61352539 113.82764435 296.51855469 108.95755768" stroke-width="1.68680322" fill="rgb(227, 125, 202)" opacity="1.0" stroke="rgb(65, 45, 62)" stroke-opacity="0.68084776" stroke-linecap="round" stroke-linejoin="round"/>
    <path d="M 311.59625244 110.89132690 C 311.63110352 110.92272949 311.69613647 110.95082855 311.72650146 111.00646210 C 311.79104614 111.03301239 311.81176758 111.05635071 311.86907959 111.08638763 C 311.86141968 111.11869812 311.86639404 111.12754059 311.87777710 111.17234039 C 311.88381958 111.09992981 311.86740112 111.04676056 311.87026978 111.00804901 C 311.78463745 110.94488525 311.72106934 110.87854767 311.65521240 110.83814240 C 311.50045776 110.75453949 311.35882568 110.71823883 311.19259644 110.70836639 C 310.99505615 110.65803528 310.79244995 110.58016205 310.56637573 110.49188995 C 310.35980225 110.38166046 310.11129761 110.25298309 309.88665771 110.12946320 C 309.61441040 109.99166107 309.36639404 109.84577179 309.14001465 109.70755768 C 308.81658936 109.61209106 308.57913208 109.43960571 311.59625244 110.89132690" stroke-width="1.35432720" fill="rgb(208, 119, 198)" opacity="1.0" stroke="rgb(233, 130, 215)" stroke-opacity="0.70083016" stroke-linecap="round" stroke-linejoin="round"/>
    <path d="M 258.23907471 81.22335815 C 257.24047852 80.12207794 256.28564453 79.08262634 255.26144409 78.16665649 C 254.31626892 77.29361725 253.46531677 76.38845825 252.81114197 75.46697998 C 252.32798767 74.53113556 251.95085144 73.61314392 251.70556641 72.75165558 C 251.62370300 71.75434113 251.61766052 70.74858856 251.87921143 69.85858154 C 252.33691406 68.96643066 252.78416443 68.14388275 253.14755249 67.43890381 C 253.73428345 66.94200897 254.45657349 66.61875916 255.21798706 66.44155121 C 255.95909119 66.41835785 256.62487793 66.43804932 257.21545410 66.61265564 C 257.61761475 66.92706299 258.00549316 67.46385956 258.41128540 68.05165100 C 258.81179810 68.62107849 259.22302246 69.35404968 259.48596191 70.17504883 C 259.78375244 71.01770782 260.10903931 71.84047699 258.23907471 81.22335815" stroke-width="1.93024623" fill="rgb(218, 148, 216)" opacity="1.0" stroke="rgb(75, 0, 101)" stroke-opacity="0.430729" stroke-linecap="round" stroke-linejoin="round"/>
    <path d="M 266.97247314 80.15392303 C 266.47454834 81.09542847 265.97668457 81.97277832 265.46487427 82.61630249 C 264.83312988 83.20178223 264.04504395 83.54466248 263.19616699 83.83044434 C 262.39312744 84.19151306 261.52072144 84.39024353 260.76287842 84.32913971 C 260.01953125 84.09915161 259.34967041 83.70050812 258.73001099 83.16926575 C 258.12698364 82.65399933 257.66729736 82.11177063 257.26708984 81.56345367 C 257.15686035 81.01837921 257.26959229 80.46012878 257.58026123 79.89995575 C 258.06301880 79.30765533 258.66552734 78.73124695 259.35064697 78.10499573 C 259.92831421 77.32886505 260.36968994 76.53931427 260.96237183 75.90055084 C 261.81887817 75.55123901 262.77496338 75.43495178 263.72882080 75.57833099 C 264.84738159 75.76486969 266.07653809 75.95552826 266.97247314 80.15392303" stroke-width="1.85383415" fill="rgb(221, 123, 225)" opacity="1.0" stroke="rgb(59, 0, 65)" stroke-opacity="0.58407724" stroke-linecap="round" stroke-linejoin="round"/>
    <path d="M 252.86816406 83.93753815 C 252.83824158 83.68552399 252.77067566 83.35150909 252.69523621 83.03335571 C 252.63824463 82.75585938 252.58494568 82.50748444 252.53367615 82.20320129 C 252.48921204 81.86796570 252.44795227 81.55538940 252.36169434 81.29579926 C 252.33489990 80.97644806 252.33143616 80.64473724 252.32540894 80.29418182 C 252.33818054 79.99508667 252.39175415 79.71141815 252.45817566 79.40710449 C 252.59684753 79.16626740 252.75836182 78.96066284 252.90338135 78.84796143 C 253.12980652 78.75370789 253.34004211 78.69825745 253.63623047 78.69912720 C 254.03466797 78.73468018 254.40007019 78.91345978 254.75166321 79.06146240 C 255.18348694 79.25376892 255.61659241 79.36954498 256.11785889 79.52428436 C 256.60025024 79.70446014 257.03195190 79.83815765 252.86816406 83.93753815" stroke-width="0.34978858" fill="rgb(231, 169, 209)" opacity="1.0" stroke="rgb(230, 130, 177)" stroke-opacity="0.29592013" stroke-linecap="round" stroke-linejoin="round"/>
    <path d="M 256.99389648 82.91629028 C 257.61959839 83.55388641 258.21511841 84.24042511 258.75741577 84.92083740 C 259.24005127 85.53305817 259.63308716 86.04926300 259.84594727 86.52478027 C 259.90390015 87.04621124 259.73471069 87.64214325 259.57546997 88.33735657 C 259.48403931 89.01425171 259.39480591 89.72017670 259.24209595 90.36705780 C 258.86160278 90.84971619 258.44268799 91.35948944 258.08370972 92.02590942 C 257.73248291 92.60045624 257.25213623 92.91599274 256.64727783 93.10677338 C 255.93327332 93.31191254 255.22343445 93.45825958 254.53752136 93.39163208 C 253.87034607 93.09014893 253.19384766 92.50796509 252.65231323 91.72193146 C 252.16920471 90.82872772 251.73742676 89.83133698 251.48945618 88.71340179 C 251.43943787 87.44108582 251.25367737 86.19946289 256.99389648 82.91629028" stroke-width="2.00000000" fill="rgb(218, 151, 228)" opacity="1.0" stroke="rgb(69, 25, 90)" stroke-opacity="0.5130663" stroke-linecap="round" stroke-linejoin="round"/>
    <path d="M 255.35057068 81.72415161 C 254.83525085 82.18354797 254.25651550 82.59404755 253.62162781 82.91639709 C 252.98631287 83.15615082 252.30737305 83.36596680 251.63349915 83.56365967 C 251.03837585 83.83790588 250.47857666 83.98282623 249.87130737 83.88568115 C 249.18034363 83.78620911 248.54109192 83.60589600 248.02064514 83.27490997 C 247.58552551 82.85106659 247.16061401 82.37941742 246.77674866 81.90594482 C 246.48547363 81.35745239 246.34341431 80.77303314 246.36201477 80.04935455 C 246.39962769 79.40058136 246.39715576 78.76285553 246.42715454 78.15119171 C 246.67144775 77.60052490 247.08949280 77.19145203 247.64280701 76.84360504 C 248.36074829 76.73171234 249.18797302 76.60072327 250.03590393 76.32859039 C 250.81896973 76.01011658 251.56599426 75.81041718 255.35057068 81.72415161" stroke-width="1.96552336" fill="rgb(226, 120, 222)" opacity="1.0" stroke="rgb(94, 17, 106)" stroke-opacity="0.40600204" stroke-linecap="round" stroke-linejoin="round"/>
    <path d="M 256.31423950 70.84337616 C 256.23834229 70.93370056 256.19064331 71.03869629 256.14221191 71.15790558 C 256.09719849 71.22185516 256.04348755 71.33554077 255.97865295 71.40322876 C 255.95983887 71.50429535 255.88923645 71.57147217 255.82652283 71.62315369 C 255.80113220 71.69891357 255.74905396 71.77092743 255.71438599 71.80120850 C 255.68598938 71.86526489 255.64620972 71.92671204 255.64997864 71.96472931 C 255.64947510 72.03942108 255.63771057 72.10684967 255.68646240 72.16569519 C 255.71839905 72.25542450 255.74658203 72.30667877 255.82575989 72.42617035 C 255.89671326 72.48262787 255.96214294 72.55944824 256.06979370 72.67495728 C 256.17623901 72.70992279 256.28256226 72.81905365 256.41262817 72.88016510 C 256.53384399 72.93219757 256.67382812 73.02985382 256.31423950 70.84337616" stroke-width="2.00000000" fill="rgb(245, 120, 246)" opacity="1.0" stroke="rgb(247, 118, 239)" stroke-opacity="0.61529565" stroke-linecap="round" stroke-linejoin="round"/>
  </g>
</svg>
