<?xml version="1.0" ?>
<svg xmlns="http://www.w3.org/2000/svg" version="1.1" width="512" height="512" viewBox="0 0 512 512">
  <defs/>
  <g>
    <path d="M 245.04748535 239.86299133 C 246.54177856 242.33032227 248.02662659 244.84112549 249.20281982 247.28149414 C 250.09236145 249.60101318 250.65962219 251.74433899 250.85861206 253.58847046 C 250.69967651 255.05899048 250.18634033 256.00915527 249.11962891 256.47735596 C 247.58432007 256.30734253 245.57048035 255.81784058 242.96369934 255.11875916 C 239.80941772 254.40686035 236.10675049 253.55065918 231.95846558 252.52416992 C 227.45082092 251.34815979 222.65174866 249.99726868 217.58544922 248.61294556 C 212.33969116 247.03402710 206.80966187 245.35510254 201.15887451 243.67651367 C 195.41467285 241.86668396 189.61181641 239.87942505 183.66725159 237.84857178 C 177.66609192 235.82904053 171.70390320 233.72474670 165.70132446 231.48030090 C 159.75814819 229.04548645 153.81129456 226.66619873 147.82377625 224.03012085 C 142.01618958 221.31488037 136.17404175 218.49365234 130.39883423 215.52917480 C 124.57924652 212.68202209 118.77937317 209.76216125 113.05352783 206.63594055 C 107.41367340 203.51426697 101.79723358 200.34915161 96.20503235 197.08657837 C 90.78038788 193.76402283 85.28668213 190.57714844 79.96701050 187.45153809 C 74.76301575 184.35569763 69.85028839 181.26977539 65.13460541 178.29885864 C 60.70479965 175.52040100 56.75225830 172.69752502 53.32012939 170.11087036 C 50.32834244 167.62811279 48.11859131 165.22128296 46.67051315 162.90719604 C 45.90233994 160.68165588 45.90888977 158.63710022 46.83098984 156.83929443 C 48.55555344 155.16880798 51.03268051 153.81289673 54.31289291 152.79824829 C 58.34204865 151.92726135 62.83572769 151.04081726 67.80357361 150.25921631 C 73.18407440 149.61740112 78.87705231 149.16011047 84.84395599 148.89642334 C 90.97711945 148.81411743 97.18879700 149.21324158 103.50410461 149.94734192 C 109.92443848 150.81834412 116.37472534 152.00183105 122.68815613 153.46792603 C 128.88780212 155.11387634 135.02546692 157.08287048 140.96331787 159.42111206 C 146.69488525 161.92260742 152.32313538 164.50244141 157.82592773 167.11660767 C 163.14733887 169.94281006 168.32099915 172.83477783 173.29725647 175.91311646 C 178.16098022 179.06184387 182.89923096 182.28179932 187.46795654 185.58299255 C 191.92999268 189.06039429 196.35221863 192.49316406 200.62957764 196.02830505 C 204.69291687 199.77861023 208.79708862 203.51676941 212.97119141 207.16859436 C 217.09622192 210.89286804 221.29812622 214.55128479 245.04748535 239.86299133" stroke-width="0.94135869" fill="rgb(15, 156, 248)" opacity="1.0" stroke="rgb(0, 150, 204)" stroke-opacity="0.27126592" stroke-linecap="round" stroke-linejoin="round"/>
    <path d="M 450.23629761 176.16693115 C 445.46441650 179.32550049 440.69772339 182.40824890 435.97320557 185.52511597 C 431.23800659 188.59576416 426.45614624 191.40728760 421.64154053 194.12556458 C 416.78170776 196.88951111 412.03421021 199.63179016 407.29269409 202.47589111 C 402.37493896 205.17230225 397.46881104 207.76577759 392.42211914 210.44822693 C 387.36544800 213.04885864 382.14718628 215.59642029 376.79125977 218.13591003 C 371.35522461 220.76846313 365.81091309 223.35827637 360.13204956 225.86149597 C 354.24981689 228.31098938 348.23818970 230.75794983 342.23068237 233.14480591 C 336.04452515 235.56465149 329.76858521 237.74279785 323.44024658 239.80786133 C 317.12481689 241.85418701 310.82366943 243.86532593 304.59472656 245.74114990 C 298.55560303 247.50355530 292.67837524 249.17401123 286.99804688 250.67428589 C 281.69024658 251.89794922 276.87811279 253.03956604 272.55218506 254.08396912 C 268.67529297 255.04057312 265.50451660 255.83424377 263.08023071 256.00534058 C 261.22885132 255.36355591 259.99844360 254.01919556 259.50717163 252.07809448 C 259.70083618 249.74874878 260.67291260 247.13578796 262.45053101 244.41679382 C 265.09976196 241.71337891 268.18518066 238.71629333 271.46569824 235.31697083 C 275.04193115 231.70092773 278.68661499 227.71673584 282.46188354 223.55499268 C 286.42883301 219.34083557 290.57131958 215.18524170 294.80569458 211.02024841 C 299.06976318 206.83175659 303.49203491 202.77777100 307.99777222 198.90687561 C 312.50521851 194.96708679 317.03457642 191.10090637 321.72021484 187.48077393 C 326.53222656 183.98204041 331.47888184 180.64675903 336.56985474 177.41062927 C 341.58737183 174.25024414 346.67990112 171.06663513 351.97189331 168.23487854 C 357.23690796 165.44979858 362.53726196 162.94337463 367.96337891 160.68064880 C 373.41613770 158.53334045 378.75024414 156.54710388 384.10360718 154.76205444 C 389.37472534 153.20843506 394.72750854 152.08181763 400.05377197 151.15304565 C 405.26666260 150.30464172 410.39361572 149.73829651 415.43447876 149.32980347 C 420.36444092 149.12321472 425.22836304 149.06597900 429.91311646 149.16564941 C 434.35217285 149.32012939 438.70254517 149.63385010 442.92175293 150.13539124 C 446.86431885 150.75233459 450.63854980 151.47793579 454.24227905 152.21481323 C 457.73104858 152.98930359 460.85513306 154.17973328 463.77764893 156.18031311 C 466.47653198 159.15513611 469.36233521 162.52890015 450.23629761 176.16693115" stroke-width="0.96793175" fill="rgb(14, 155, 249)" opacity="1.0" stroke="rgb(0, 169, 209)" stroke-opacity="0.28490463" stroke-linecap="round" stroke-linejoin="round"/>
    <path d="M 238.17498779 280.20565796 C 234.32832336 285.97354126 230.12242126 291.47875977 225.73506165 296.94012451 C 221.30769348 302.46896362 216.66476440 307.86840820 211.69181824 313.18154907 C 206.47242737 318.39352417 201.08283997 323.66452026 195.34980774 328.71746826 C 189.25209045 333.52954102 182.74972534 338.00585938 175.88507080 342.19293213 C 168.74992371 346.04013062 161.39196777 349.60089111 153.86694336 352.64617920 C 146.37159729 355.34515381 138.87086487 357.41168213 131.56068420 358.96301270 C 124.60369873 359.99166870 118.11117554 360.39776611 112.17270660 360.31277466 C 106.96563721 360.08599854 102.67520905 359.23995972 99.34642792 357.73330688 C 97.14220428 355.73541260 95.95445251 353.47650146 95.70922852 351.26864624 C 96.54528046 349.49874878 98.57178497 347.96627808 101.53767395 346.50399780 C 105.29968262 344.75588989 109.77810669 342.72821045 114.72727203 340.35916138 C 119.97802734 337.55801392 125.74472809 334.58901978 131.91235352 331.51660156 C 138.17070007 328.05203247 144.57484436 324.47094727 151.21237183 320.79745483 C 157.90519714 317.12335205 164.52719116 313.38095093 171.13648987 309.58908081 C 177.64875793 305.79464722 184.12432861 302.30688477 190.47262573 298.65930176 C 196.58888245 295.20547485 202.55444336 291.70294189 208.22550964 288.20626831 C 213.78416443 284.86386108 219.04641724 281.46450806 224.18882751 278.24819946 C 229.27960205 275.25695801 234.18486023 272.33126831 238.70237732 269.04843140 C 243.20564270 265.93539429 247.32107544 262.53225708 251.14642334 258.81542969 C 254.87185669 255.06723022 258.53982544 251.25196838 238.17498779 280.20565796" stroke-width="0.76600468" fill="rgb(40, 111, 209)" opacity="1.0" stroke="rgb(0, 104, 169)" stroke-opacity="0.20953093" stroke-linecap="round" stroke-linejoin="round"/>
    <path d="M 408.90579224 359.45901489 C 401.17138672 360.29553223 393.34310913 360.49453735 385.48266602 359.67913818 C 377.58038330 358.37927246 369.66275024 356.38699341 361.75109863 353.90133667 C 354.11312866 351.03372192 346.59265137 347.63619995 339.28787231 343.73422241 C 332.12429810 339.72821045 325.23007202 335.22799683 318.62130737 330.29086304 C 312.28665161 325.09521484 306.30371094 319.49053955 300.74511719 313.50103760 C 295.21926880 307.62716675 289.94790649 301.67184448 285.04412842 295.71066284 C 280.47540283 289.88952637 276.21105957 284.26382446 272.52993774 278.90017700 C 269.34835815 273.94424438 266.60604858 269.58230591 264.00473022 266.16506958 C 261.92617798 263.63967896 260.85958862 261.62823486 260.86563110 260.27835083 C 261.76400757 260.05328369 263.32244873 261.06854248 265.50759888 263.10626221 C 268.67788696 265.62548828 272.82281494 268.51956177 277.77478027 271.68057251 C 283.26754761 275.14202881 289.34832764 278.83285522 295.75265503 282.82489014 C 302.46969604 286.88864136 309.38436890 291.07525635 316.34274292 295.30450439 C 323.40487671 299.40618896 330.49536133 303.37606812 337.39407349 307.32604980 C 344.09378052 311.27536011 350.52331543 315.10647583 356.86090088 318.74154663 C 362.91360474 322.14526367 368.65780640 325.33465576 374.25830078 328.20202637 C 379.41793823 330.95108032 384.23242188 333.68063354 388.75866699 336.29895020 C 393.11688232 338.53543091 397.29513550 340.53326416 401.35119629 342.39614868 C 405.16760254 344.11141968 408.89932251 345.96203613 412.51828003 347.90390015 C 415.86407471 350.36691284 419.18478394 353.02606201 408.90579224 359.45901489" stroke-width="0.72201467" fill="rgb(43, 110, 212)" opacity="1.0" stroke="rgb(0, 79, 159)" stroke-opacity="0.24307378" stroke-linecap="round" stroke-linejoin="round"/>
    <path d="M 259.69076538 310.17486572 C 258.64364624 311.37390137 257.82736206 312.60296631 257.34301758 313.95404053 C 257.02590942 315.33450317 256.71459961 316.55249023 256.32763672 317.49530029 C 255.82681274 317.98202515 255.40786743 317.93811035 254.98460388 317.29415894 C 254.60340881 316.12451172 254.02015686 314.61608887 253.17108154 312.77203369 C 252.05053711 310.78344727 251.28445435 308.41943359 250.92646790 305.55664062 C 250.38578796 302.28799438 249.59169006 298.77389526 248.86726379 294.90115356 C 248.78375244 290.72961426 248.74330139 286.25598145 248.58869934 281.57702637 C 248.69270325 276.87542725 249.25767517 272.08660889 249.99021912 267.24008179 C 250.54002380 262.44363403 251.08578491 257.66192627 251.59742737 253.00457764 C 252.04582214 248.50460815 252.42173767 244.20486450 252.79408264 240.18067932 C 253.15937805 236.41787720 253.42604065 232.99862671 253.54493713 229.94577026 C 253.57861328 227.28881836 253.60464478 225.04643250 253.71525574 223.24417114 C 253.87882996 221.91671753 254.15052795 221.15261841 254.53277588 220.88337708 C 255.07742310 221.17897034 255.69508362 221.94955444 256.22137451 223.23730469 C 256.66958618 225.01268005 257.10009766 227.20291138 257.52328491 229.73840332 C 257.89495850 232.70242310 258.40512085 235.90057373 258.99060059 239.44503784 C 259.46130371 243.23443604 259.90695190 247.34753418 260.31405640 251.63986206 C 260.75268555 256.17492676 261.27526855 260.84646606 261.75244141 265.69979858 C 262.30807495 270.68951416 262.77774048 275.80484009 263.08535767 280.98275757 C 263.42288208 286.33001709 263.89978027 291.64147949 259.69076538 310.17486572" stroke-width="0.72055888" fill="rgb(66, 132, 170)" opacity="1.0" stroke="rgb(21, 101, 133)" stroke-opacity="0.3060179" stroke-linecap="round" stroke-linejoin="round"/>
    <path d="M 255.61599731 239.07769775 C 254.34077454 238.29795837 253.05291748 237.60325623 251.84410095 236.93579102 C 250.75311279 236.21453857 249.71713257 235.60650635 248.99171448 234.82202148 C 248.52410889 233.89311218 248.15699768 232.90664673 247.96092224 231.90916443 C 248.05726624 230.94900513 248.41363525 230.07145691 249.05413818 229.31655884 C 249.81742859 228.55323792 250.69949341 227.87043762 251.73991394 227.40930176 C 252.93765259 227.10429382 254.18157959 226.97386169 255.39186096 226.97647095 C 256.65701294 227.05932617 257.91830444 227.14666748 259.10116577 227.29234314 C 260.06921387 227.69970703 261.00357056 228.22935486 261.84826660 228.83906555 C 262.48132324 229.61111450 262.85784912 230.61749268 263.06933594 231.72558594 C 263.12039185 233.09632874 263.22146606 234.63410950 255.61599731 239.07769775" stroke-width="0.56301540" fill="rgb(3, 14, 38)" opacity="1.0" stroke="rgb(139, 139, 133)" stroke-opacity="0.73632354" stroke-linecap="round" stroke-linejoin="round"/>
    <path d="M 260.03308105 241.68083191 C 260.46966553 243.24255371 260.99343872 244.74661255 261.47653198 246.33106995 C 261.74414062 247.93530273 261.99310303 249.53248596 262.17007446 251.11550903 C 262.16497803 252.76136780 262.08047485 254.45352173 262.01135254 256.03045654 C 262.01049805 257.64999390 262.04617310 259.17147827 262.11724854 260.73361206 C 262.36654663 262.26065063 262.44000244 263.73574829 262.41149902 265.11456299 C 262.25811768 266.46331787 262.07623291 267.72302246 261.62902832 268.79608154 C 260.87603760 269.64672852 259.80444336 270.28173828 258.57183838 270.69049072 C 257.19537354 270.96713257 255.81147766 271.05053711 254.40287781 271.08193970 C 253.02416992 270.98535156 251.83183289 270.77484131 250.81532288 270.36764526 C 250.09912109 269.72555542 249.60182190 268.79852295 249.23155212 267.63302612 C 248.87525940 266.42007446 248.49130249 265.13705444 248.20599365 263.78472900 C 248.22119141 262.35330200 248.33528137 260.87539673 248.45790100 259.36489868 C 248.53749084 257.75363159 248.49279785 256.12228394 248.41140747 254.51498413 C 248.30264282 252.91329956 248.13772583 251.33015442 248.12786865 249.76708984 C 248.40240479 248.26844788 248.85728455 246.80862427 249.31509399 245.45088196 C 249.69856262 244.03991699 250.13801575 242.73036194 250.59077454 241.46685791 C 250.97570801 240.28157043 251.26103210 239.15715027 251.39865112 238.20979309 C 251.72154236 237.44265747 252.24293518 236.90957642 252.94744873 236.61418152 C 253.90509033 236.56382751 254.83389282 236.54714966 255.78921509 236.39305115 C 256.77487183 236.16017151 257.82519531 235.81356812 260.03308105 241.68083191" stroke-width="0.45195812" fill="rgb(5, 25, 70)" opacity="1.0" stroke="rgb(129, 150, 156)" stroke-opacity="0.91033196" stroke-linecap="round" stroke-linejoin="round"/>
    <path d="M 251.49285889 291.83377075 C 251.48716736 290.87561035 251.46977234 289.91732788 251.49652100 289.03991699 C 251.47605896 288.18695068 251.39143372 287.46917725 251.35763550 286.78286743 C 251.39909363 286.23022461 251.51742554 285.85031128 251.81784058 285.56045532 C 252.25961304 285.41018677 252.79716492 285.39389038 253.50222778 285.37414551 C 254.25274658 285.37893677 255.06947327 285.36157227 255.92916870 285.38464355 C 256.75701904 285.30294800 257.57064819 285.28430176 258.34179688 285.27005005 C 258.97775269 285.25167847 259.52239990 285.35202026 259.88012695 285.62606812 C 260.10717773 286.10092163 260.15371704 286.77679443 260.14877319 287.59011841 C 260.15078735 288.50238037 260.19760132 289.45654297 260.31542969 290.43536377 C 260.52108765 291.46310425 260.67465210 292.40432739 251.49285889 291.83377075" stroke-width="2.00000000" fill="rgb(136, 181, 207)" opacity="1.0" stroke="rgb(167, 223, 241)" stroke-opacity="0.62358755" stroke-linecap="round" stroke-linejoin="round"/>
    <path d="M 256.38864136 215.99061584 C 255.95791626 212.74986267 255.46665955 209.42530823 254.85078430 205.98377991 C 254.10417175 202.33407593 253.19728088 198.45433044 252.09448242 194.39576721 C 250.81503296 190.05088806 249.27368164 185.44450378 247.48643494 180.65600586 C 245.23890686 175.81407166 242.30206299 171.04811096 238.86807251 166.45167542 C 235.08985901 162.17968750 230.71443176 159.00216675 225.72778320 157.39257812 C 220.49404907 156.96270752 215.49472046 157.60398865 211.13577271 158.69642639 C 207.88439941 159.12074280 205.99102783 158.34548950 205.60168457 156.70529175 C 206.70429993 155.16741943 209.40925598 154.33851624 213.54446411 154.14506531 C 218.69580078 154.28703308 224.50585938 155.46293640 230.87757874 158.61448669 C 238.06909180 162.98335266 246.08758545 167.46656799 256.38864136 215.99061584" stroke-width="0.87554711" fill="rgb(0, 7, 20)" opacity="1.0" stroke="rgb(0, 0, 7)" stroke-opacity="0.77308625" stroke-linecap="round" stroke-linejoin="round"/>
    <path d="M 267.43389893 174.83619690 C 265.43679810 179.88270569 263.44998169 184.93161011 261.86755371 189.98870850 C 260.56930542 194.86990356 259.48547363 199.41041565 258.52194214 203.60577393 C 257.94583130 207.45115662 257.45681763 210.67306519 256.85336304 213.17457581 C 256.20153809 214.82197571 255.58001709 215.70709229 255.04861450 215.71589661 C 254.76626587 214.94126892 254.91467285 213.32527161 255.52751160 210.91293335 C 256.39712524 207.83624268 257.18942261 204.10800171 257.88528442 199.89166260 C 258.84689331 195.28579712 260.00854492 190.45182800 261.57626343 185.52554321 C 263.32037354 180.57937622 265.28149414 175.77137756 267.60598755 171.24014282 C 270.13491821 167.11323547 272.91946411 163.51495361 276.02188110 160.51541138 C 279.18496704 158.11061096 282.36483765 156.52162170 285.50268555 155.54791260 C 288.44891357 154.87895203 291.03353882 154.39820862 293.32901001 154.17819214 C 295.26525879 153.95909119 296.86483765 153.84580994 298.16113281 153.83831787 C 299.18066406 153.95642090 300.02072144 154.10269165 300.65939331 154.20297241 C 301.24304199 154.19754028 301.87866211 154.25869751 302.53549194 154.44976807 C 303.20065308 154.65849304 303.86428833 154.87257385 304.47521973 155.18585205 C 304.95602417 155.72860718 305.18402100 156.33843994 305.07012939 157.02934265 C 304.70187378 157.84445190 303.98840332 158.62457275 302.89758301 159.27973938 C 301.30392456 159.51988220 299.26290894 159.15344238 296.77630615 158.41767883 C 293.76184082 157.81903076 290.23037720 157.69715881 286.20590210 158.06805420 C 281.66452026 158.66224670 276.69839478 159.10519409 267.43389893 174.83619690" stroke-width="0.63501465" fill="rgb(8, 11, 25)" opacity="1.0" stroke="rgb(29, 34, 43)" stroke-opacity="0.55469" stroke-linecap="round" stroke-linejoin="round"/>
    <path d="M 179.61569214 310.90646362 C 180.74324036 310.28479004 181.83360291 309.70089722 182.83923340 309.34176636 C 183.88871765 309.19647217 184.82640076 309.32760620 185.72869873 309.66665649 C 186.66415405 310.21228027 187.54701233 310.86688232 188.29049683 311.63705444 C 188.88296509 312.51657104 189.31127930 313.52130127 189.57579041 314.56323242 C 189.66893005 315.63504028 189.55781555 316.75778198 189.25839233 317.85653687 C 188.76774597 318.87557983 188.18212891 319.75860596 187.41418457 320.58935547 C 186.61541748 321.27499390 185.72590637 321.79412842 184.78538513 322.12106323 C 183.78359985 322.24755859 182.79721069 322.12188721 181.78623962 321.76873779 C 180.84138489 321.21072388 179.92687988 320.33050537 179.03660583 319.30117798 C 178.13194275 318.15512085 177.16441345 316.94702148 179.61569214 310.90646362" stroke-width="1.31623113" fill="rgb(85, 219, 241)" opacity="1.0" stroke="rgb(7, 133, 146)" stroke-opacity="0.2780316" stroke-linecap="round" stroke-linejoin="round"/>
    <path d="M 333.56195068 313.81774902 C 333.47491455 315.22872925 333.33120728 316.64297485 333.02789307 317.90844727 C 332.61947632 319.02777100 332.03173828 319.97848511 331.35778809 320.77148438 C 330.55157471 321.35385132 329.63626099 321.61895752 328.65118408 321.71807861 C 327.69281006 321.67404175 326.69055176 321.44506836 325.72296143 321.07785034 C 324.81198120 320.55471802 324.00350952 319.91223145 323.27346802 319.20965576 C 322.74829102 318.40063477 322.35641479 317.52301025 322.13842773 316.58346558 C 322.05761719 315.59863281 322.15768433 314.61779785 322.33447266 313.60339355 C 322.67929077 312.67745972 323.15676880 311.84439087 323.79895020 311.05563354 C 324.62750244 310.44061279 325.62326050 309.96453857 326.82067871 309.55929565 C 328.16894531 309.24194336 329.55520630 308.92764282 333.56195068 313.81774902" stroke-width="0.64549047" fill="rgb(86, 218, 241)" opacity="1.0" stroke="rgb(48, 204, 206)" stroke-opacity="0.38689673" stroke-linecap="round" stroke-linejoin="round"/>
    <path d="M 306.58032227 217.98910522 C 306.77145386 216.62995911 307.17346191 215.43830872 307.74411011 214.37033081 C 308.40704346 213.38978577 309.18865967 212.44522095 310.04522705 211.83197021 C 310.97488403 211.54661560 311.97271729 211.51834106 313.04220581 211.63093567 C 313.96923828 211.81883240 314.88015747 212.18405151 315.79043579 212.71244812 C 316.52633667 213.50413513 316.99859619 214.39665222 317.31427002 215.35987854 C 317.46829224 216.37707520 317.58255005 217.45239258 317.62185669 218.43098450 C 317.53149414 219.27093506 317.18572998 220.01365662 316.59240723 220.64140320 C 315.82214355 221.22625732 315.08972168 221.82754517 314.34197998 222.38566589 C 313.42889404 222.70205688 312.45642090 222.74914551 311.45150757 222.63311768 C 310.37438965 222.57330322 309.20071411 222.47434998 306.58032227 217.98910522" stroke-width="1.45041597" fill="rgb(235, 242, 195)" opacity="1.0" stroke="rgb(106, 117, 85)" stroke-opacity="0.34443787" stroke-linecap="round" stroke-linejoin="round"/>
    <path d="M 356.63894653 337.73614502 C 356.61730957 336.58227539 356.61953735 335.36941528 356.82589722 334.27334595 C 357.24182129 333.31829834 357.81692505 332.50616455 358.52090454 331.86260986 C 359.36962891 331.29711914 360.30123901 330.88336182 361.24282837 330.64617920 C 362.13491821 330.49691772 363.02890015 330.56008911 363.83993530 330.80502319 C 364.56115723 331.19625854 365.18084717 331.79605103 365.62521362 332.52969360 C 366.03305054 333.34362793 366.31042480 334.18539429 366.39956665 335.10037231 C 366.39044189 336.08151245 366.24722290 337.01010132 366.06317139 337.90347290 C 365.72998047 338.74401855 365.28417969 339.51226807 364.65377808 340.12939453 C 363.85775757 340.64224243 362.93322754 341.06170654 361.86621094 341.42175293 C 360.70141602 341.74603271 359.47503662 342.06604004 356.63894653 337.73614502" stroke-width="1.46891761" fill="rgb(94, 222, 239)" opacity="1.0" stroke="rgb(0, 129, 177)" stroke-opacity="0.392458" stroke-linecap="round" stroke-linejoin="round"/>
    <path d="M 198.79936218 213.61712646 C 199.91140747 212.92170715 200.95449829 212.35060120 201.95503235 211.99401855 C 202.92497253 212.04141235 203.87573242 212.24078369 204.77587891 212.60633850 C 205.65686035 213.00933838 206.42155457 213.47933960 207.00573730 214.13980103 C 207.38008118 214.98374939 207.63301086 215.83757019 207.82594299 216.66339111 C 207.84303284 217.49142456 207.77006531 218.32952881 207.51254272 219.15242004 C 207.00979614 219.92507935 206.45178223 220.65638733 205.67892456 221.35397339 C 204.86790466 221.93733215 204.01733398 222.31378174 203.13517761 222.51155090 C 202.20951843 222.62928772 201.20002747 222.55664062 200.31562805 222.32373047 C 199.57475281 221.82437134 198.89251709 221.11137390 198.24174500 220.31820679 C 197.63940430 219.45126343 196.96922302 218.49909973 198.79936218 213.61712646" stroke-width="1.21428537" fill="rgb(237, 243, 189)" opacity="1.0" stroke="rgb(134, 163, 125)" stroke-opacity="0.3797134" stroke-linecap="round" stroke-linejoin="round"/>
    <path d="M 129.64802551 199.74342346 C 130.12059021 198.65219116 130.63340759 197.64028931 131.16940308 196.74171448 C 131.89181519 196.09771729 132.76115417 195.64964294 133.69071960 195.33552551 C 134.68408203 195.17674255 135.59982300 195.10934448 136.33279419 195.21540833 C 136.87918091 195.49227905 137.36592102 195.98773193 137.83029175 196.66973877 C 138.23863220 197.42294312 138.50846863 198.24989319 138.68150330 199.07196045 C 138.79244995 199.95634460 138.81150818 200.80523682 138.87876892 201.69717407 C 139.01936340 202.54270935 138.98741150 203.28860474 138.67881775 203.87001038 C 138.20913696 204.37023926 137.55363464 204.78164673 136.68464661 205.10984802 C 135.69790649 205.40675354 134.58114624 205.50512695 133.33644104 205.45733643 C 131.94201660 205.44697571 130.52162170 205.42274475 129.64802551 199.74342346" stroke-width="1.46296310" fill="rgb(238, 242, 180)" opacity="1.0" stroke="rgb(127, 129, 94)" stroke-opacity="0.33164605" stroke-linecap="round" stroke-linejoin="round"/>
    <path d="M 374.12503052 204.76844788 C 373.64630127 203.72138977 373.33523560 202.59466553 373.22796631 201.44282532 C 373.17248535 200.32164001 373.16763306 199.29040527 373.32986450 198.39027405 C 373.70672607 197.62869263 374.21557617 197.03318787 374.82553101 196.61042786 C 375.55453491 196.33288574 376.44421387 196.18049622 377.38653564 196.09150696 C 378.24438477 196.14701843 379.05825806 196.19618225 379.81100464 196.36862183 C 380.42535400 196.84326172 381.00946045 197.44285583 381.54745483 198.06846619 C 382.02804565 198.75032043 382.33303833 199.52169800 382.58523560 200.27040100 C 382.69778442 201.07995605 382.64285278 201.89682007 382.38418579 202.64164734 C 381.82980347 203.33500671 381.07159424 204.05917358 380.24331665 204.84744263 C 379.28744507 205.65983582 378.23791504 206.52952576 374.12503052 204.76844788" stroke-width="1.41560996" fill="rgb(238, 243, 191)" opacity="1.0" stroke="rgb(132, 133, 110)" stroke-opacity="0.36088878" stroke-linecap="round" stroke-linejoin="round"/>
    <path d="M 151.91099548 331.49835205 C 152.38572693 332.00912476 152.91917419 332.61712646 153.34284973 333.29852295 C 153.64674377 334.05911255 153.79205322 334.89404297 154.01701355 335.78494263 C 153.98187256 336.60540771 153.83551025 337.43545532 153.63616943 338.22265625 C 153.32885742 338.94055176 152.94563293 339.54138184 152.42800903 340.02645874 C 151.84620667 340.41073608 151.26988220 340.62500000 150.63417053 340.70184326 C 149.93952942 340.70446777 149.12104797 340.67980957 148.37306213 340.56054688 C 147.74061584 340.21551514 147.09490967 339.81732178 146.49578857 339.33453369 C 146.02754211 338.70385742 145.67918396 337.88845825 145.39309692 336.90356445 C 145.26766968 335.80624390 145.30262756 334.58175659 145.76675415 333.19454956 C 146.48674011 331.78482056 147.28865051 330.39175415 151.91099548 331.49835205" stroke-width="1.09768224" fill="rgb(204, 245, 194)" opacity="1.0" stroke="rgb(87, 179, 99)" stroke-opacity="0.24998878" stroke-linecap="round" stroke-linejoin="round"/>
    <path d="M 346.31646729 212.27285767 C 347.14010620 212.22291565 347.95068359 212.17893982 348.73757935 212.17636108 C 349.51260376 212.22912598 350.25387573 212.45860291 350.89877319 212.87257385 C 351.49032593 213.42515564 352.12353516 213.97735596 352.63180542 214.57511902 C 352.90237427 215.29692078 353.00659180 216.15005493 352.98117065 217.10719299 C 352.79977417 217.97688293 352.58154297 218.79867554 352.20755005 219.52630615 C 351.52056885 220.07748413 350.80575562 220.55944824 350.04766846 220.94409180 C 349.18109131 221.19926453 348.40652466 221.32386780 347.69009399 221.30845642 C 346.92727661 221.10733032 346.21224976 220.77256775 345.64083862 220.32739258 C 345.01614380 219.69128418 344.42074585 218.87248230 343.90151978 218.04725647 C 343.35015869 217.13023376 342.81176758 216.15820312 346.31646729 212.27285767" stroke-width="1.40705311" fill="rgb(221, 238, 192)" opacity="1.0" stroke="rgb(95, 136, 121)" stroke-opacity="0.31464574" stroke-linecap="round" stroke-linejoin="round"/>
    <path d="M 159.78639221 214.28102112 C 160.40728760 213.49017334 161.05543518 212.74160767 161.72924805 212.09384155 C 162.55767822 211.69816589 163.42167664 211.49270630 164.18286133 211.49685669 C 164.96293640 211.77011108 165.83343506 212.17732239 166.67802429 212.66120911 C 167.36576843 213.08140564 167.88423157 213.60694885 168.28659058 214.27397156 C 168.45712280 215.10444641 168.46351624 215.98066711 168.47187805 216.81393433 C 168.40876770 217.58500671 168.19036865 218.32234192 168.00897217 219.06619263 C 167.81637573 219.73214722 167.51423645 220.17387390 167.03370667 220.43511963 C 166.38076782 220.60661316 165.60116577 220.75869751 164.72331238 220.88412476 C 163.84233093 220.87037659 162.88430786 220.55334473 161.87530518 220.03559875 C 160.83073425 219.47091675 159.75749207 218.90116882 159.78639221 214.28102112" stroke-width="1.34152687" fill="rgb(224, 243, 199)" opacity="1.0" stroke="rgb(114, 119, 79)" stroke-opacity="0.30165637" stroke-linecap="round" stroke-linejoin="round"/>
    <path d="M 410.75598145 176.54893494 C 410.22604370 177.20401001 409.70401001 177.84863281 409.20004272 178.36039734 C 408.65716553 178.82458496 408.06478882 179.11427307 407.45870972 179.30523682 C 406.85638428 179.31944275 406.26562500 179.26455688 405.72039795 179.07670593 C 405.18127441 178.77903748 404.65725708 178.37059021 404.21768188 177.92448425 C 403.83297729 177.38818359 403.57778931 176.82458496 403.42279053 176.19989014 C 403.36172485 175.54832458 403.40057373 174.92958069 403.57022095 174.31716919 C 403.83132935 173.68875122 404.12130737 173.18423462 404.61361694 172.69271851 C 405.06719971 172.31671143 405.64218140 171.99075317 406.21954346 171.81010437 C 406.97262573 171.77529907 407.70462036 171.87185669 408.49060059 172.04058838 C 409.34030151 172.29086304 410.22164917 172.46862793 410.75598145 176.54893494" stroke-width="0.61336094" fill="rgb(7, 50, 129)" opacity="1.0" stroke="rgb(32, 47, 122)" stroke-opacity="0.42232987" stroke-linecap="round" stroke-linejoin="round"/>
    <path d="M 372.48992920 183.15599060 C 373.09475708 182.56422424 373.70996094 182.03726196 374.33392334 181.64051819 C 374.98284912 181.41831970 375.61883545 181.33508301 376.29489136 181.39118958 C 376.96035767 181.56031799 377.59182739 181.84178162 378.13079834 182.18528748 C 378.60482788 182.63604736 378.99258423 183.18092346 379.24859619 183.73980713 C 379.43502808 184.33158875 379.49533081 184.94128418 379.38815308 185.55715942 C 379.15335083 186.10098267 378.94036865 186.67810059 378.61071777 187.20574951 C 378.28778076 187.71119690 377.92794800 188.12582397 377.52160645 188.46669006 C 377.11456299 188.69238281 376.60247803 188.75524902 376.07632446 188.71612549 C 375.55215454 188.59205627 374.93402100 188.38066101 374.29656982 188.11950684 C 373.60946655 187.84889221 372.92108154 187.53601074 372.48992920 183.15599060" stroke-width="0.82859737" fill="rgb(4, 50, 132)" opacity="1.0" stroke="rgb(22, 56, 162)" stroke-opacity="0.4404023" stroke-linecap="round" stroke-linejoin="round"/>
    <path d="M 101.45355225 173.17172241 C 102.28318787 172.76380920 103.05276489 172.35543823 103.77419281 172.05787659 C 104.41282654 171.86776733 105.04606628 171.80487061 105.63810730 171.92938232 C 106.19124603 172.19071960 106.71024323 172.56604004 107.13684082 172.99566650 C 107.48616028 173.49151611 107.77017975 174.05174255 107.97501373 174.63258362 C 108.01341248 175.21948242 107.99129486 175.82574463 107.79460907 176.38356018 C 107.56171417 176.87623596 107.32553864 177.40936279 107.00765991 177.86587524 C 106.66542816 178.24041748 106.22308350 178.57173157 105.75618744 178.80409241 C 105.19281769 178.95333862 104.58181763 178.99798584 103.96524811 178.94531250 C 103.35298157 178.83758545 102.72900391 178.58389282 102.05307770 178.27709961 C 101.37841797 177.90731812 100.68939209 177.47676086 101.45355225 173.17172241" stroke-width="0.76632464" fill="rgb(5, 54, 130)" opacity="1.0" stroke="rgb(40, 49, 118)" stroke-opacity="0.4235815" stroke-linecap="round" stroke-linejoin="round"/>
    <path d="M 133.95367432 182.73817444 C 134.51554871 182.39134216 135.05982971 182.12478638 135.58831787 181.87855530 C 136.13433838 181.74763489 136.69384766 181.74240112 137.18022156 181.80830383 C 137.70405579 182.00444031 138.16178894 182.26075745 138.58219910 182.60362244 C 138.97389221 183.01797485 139.26629639 183.45248413 139.52076721 183.97509766 C 139.71275330 184.56294250 139.80262756 185.08485413 139.90293884 185.69422913 C 139.89445496 186.23902893 139.81352234 186.78454590 139.67813110 187.25602722 C 139.40199280 187.72463989 139.03045654 188.07038879 138.58026123 188.40979004 C 138.11227417 188.61965942 137.66403198 188.85366821 137.13136292 188.86926270 C 136.56173706 188.81408691 135.99119568 188.59980774 135.33053589 188.30322266 C 134.62185669 187.89889526 133.89321899 187.54309082 133.95367432 182.73817444" stroke-width="0.83888102" fill="rgb(6, 51, 127)" opacity="1.0" stroke="rgb(7, 37, 135)" stroke-opacity="0.5024311" stroke-linecap="round" stroke-linejoin="round"/>
  </g>
</svg>
