<?xml version="1.0" ?>
<svg xmlns="http://www.w3.org/2000/svg" version="1.1" width="512" height="512" viewBox="0 0 512 512">
  <defs/>
  <g>
    <path d="M 620.08752441 507.61831665 C 595.04742432 514.13018799 569.94360352 520.62475586 544.88085938 527.10443115 C 519.78778076 533.55786133 494.62493896 539.90765381 469.42965698 546.11798096 C 444.16259766 552.15655518 418.83105469 557.94506836 393.48992920 563.37042236 C 368.12170410 568.38311768 342.70608521 572.92059326 317.27828979 576.95855713 C 291.89111328 580.29840088 266.60662842 582.87689209 241.50164795 584.60601807 C 216.66693115 585.33966064 192.19700623 585.00170898 168.20527649 583.48461914 C 144.75093079 580.69506836 121.96635437 576.60278320 99.97189331 571.09045410 C 78.88411713 564.03125000 58.90689087 555.30682373 40.19067383 544.80401611 C 22.87816238 532.40319824 7.10285664 518.02410889 -6.98675203 501.60638428 C -19.32517624 483.22875977 -30.04490280 463.07485962 -39.27660370 441.32092285 C -47.12977982 418.22006226 -53.66292572 394.01309204 -58.98582840 368.92221069 C -63.17649460 343.17373657 -66.25167847 316.98037720 -68.22779846 290.45373535 C -69.14376068 263.79055786 -69.02310944 237.13423157 -67.90717316 210.68090820 C -65.75287628 184.59143066 -62.61912918 159.13449097 -58.46448898 134.47683716 C -53.23068619 110.72011566 -46.78774261 87.99644470 -39.05165863 66.52166748 C -29.95659828 46.41127777 -19.42756081 27.76604462 -7.32496643 10.70245171 C 6.35985994 -4.65062094 21.61960220 -18.28704262 38.41152191 -30.27693367 C 56.68004990 -40.69258499 76.34629059 -49.66234589 97.23953247 -57.24037933 C 119.26038361 -63.51081467 142.25337219 -68.56465149 166.08346558 -72.44596100 C 190.57769775 -75.21354675 215.60049438 -76.97916412 241.01763916 -77.76760864 C 266.68948364 -77.58116913 292.40124512 -76.37775421 317.95230103 -74.10956573 C 343.19711304 -70.73429108 367.96408081 -66.21790314 392.10751343 -60.51369858 C 415.41421509 -53.59470367 437.65505981 -45.41432571 458.63238525 -35.83432007 C 478.17184448 -24.70970917 496.08093262 -11.96998978 512.18634033 2.49663687 C 526.33905029 18.76504517 538.62457275 36.74839401 549.20294189 56.23197937 C 558.27081299 77.04212189 565.99475098 99.00355530 572.53051758 121.99176788 C 578.05108643 145.81809998 582.68731689 170.36596680 586.55401611 195.56875610 C 589.71166992 221.34928894 592.32177734 247.55990601 594.53344727 274.08703613 C 596.53216553 300.78155518 598.36737061 327.58816528 600.06072998 354.47421265 C 601.73071289 381.37353516 603.40533447 408.26797485 620.08752441 507.61831665" stroke-width="2.00000000" fill="rgb(6, 8, 39)" opacity="1.0" stroke="rgb(6, 7, 41)" stroke-opacity="0.9986053" stroke-linecap="round" stroke-linejoin="round"/>
    <path d="M 54.58262634 59.95331192 C 54.58609772 59.98252869 54.58641434 59.96745682 54.57683945 59.96224213 C 54.59747314 59.97427750 54.58333206 59.97090912 54.58749771 59.97727203 C 54.58602142 59.96973419 54.59886169 59.97127151 54.58161545 59.97701263 C 54.59083557 59.97075272 54.59352493 59.98083115 54.59215164 59.97399902 C 54.58731079 59.97569656 54.59650803 59.97978973 54.59095001 59.97272110 C 54.59941864 59.98017883 54.58168793 59.97604752 54.60166168 59.97903442 C 54.60060120 59.97873306 54.58513260 59.97541809 54.60267258 59.98261261 C 54.59418869 59.97494507 54.59816742 59.98437119 54.58724976 59.97241211 C 54.60923386 59.98377228 54.58932877 59.97991180 54.59480667 59.97904205 C 54.61132812 59.98071289 54.58523178 59.98006821 54.58262634 59.95331192" stroke-width="0.00000000" fill="rgb(148, 255, 255)" opacity="1.0" stroke="rgb(106, 104, 128)" stroke-opacity="1.0" stroke-linecap="round" stroke-linejoin="round"/>
    <path d="M 101.42828369 53.47000885 C 101.42627716 53.48157501 101.42519379 53.46755981 101.43549347 53.48446655 C 101.41930389 53.47677612 101.43611908 53.46626663 101.42449188 53.48654938 C 101.42736053 53.47602463 101.42658234 53.47343063 101.43510437 53.48104858 C 101.42393494 53.47602463 101.42815399 53.47795105 101.42971039 53.47882080 C 101.42784119 53.47409058 101.42943573 53.48280716 101.42948914 53.47276688 C 101.42504120 53.47417450 101.43230438 53.48163986 101.43045044 53.46871567 C 101.42648315 53.47371292 101.42656708 53.48047256 101.43108368 53.46465683 C 101.42562866 53.47510910 101.42789459 53.47490692 101.43118286 53.46114731 C 101.42446136 53.47416687 101.43138123 53.46736908 101.42959595 53.46313095 C 101.42204285 53.46919632 101.43325043 53.46076965 101.42828369 53.47000885" stroke-width="0.00000000" fill="rgb(13, 59, 80)" opacity="1.0" stroke="rgb(0, 0, 0)" stroke-opacity="0.13357759" stroke-linecap="round" stroke-linejoin="round"/>
    <path d="M 199.48211670 70.48571777 C 200.32933044 70.04091644 200.77214050 69.60736084 201.18229675 69.27589417 C 201.48612976 68.88134766 201.78312683 68.95869446 202.04615784 69.52723694 C 202.25968933 70.09722900 202.52635193 70.91398621 202.81657410 71.93852997 C 202.99928284 72.89879608 202.85908508 73.66671753 202.31765747 74.11937714 C 201.66511536 74.29852295 200.69731140 74.18359375 199.79013062 73.75177002 C 199.09916687 73.23621368 198.69511414 72.36840820 198.47026062 71.49024200 C 198.35285950 70.84875488 198.85372925 70.33849335 199.83593750 69.88269043 C 200.87681580 69.46421051 201.50291443 68.73453522 201.93324280 67.93793488 C 201.77206421 67.16829681 201.38960266 66.02762604 201.15133667 64.75771332 C 200.79066467 63.56410217 200.00778198 62.35525131 199.48211670 70.48571777" stroke-width="0.47970608" fill="rgb(116, 225, 231)" opacity="1.0" stroke="rgb(103, 210, 193)" stroke-opacity="0.649626" stroke-linecap="round" stroke-linejoin="round"/>
    <path d="M 319.30529785 64.48802185 C 319.23046875 64.30708313 319.10177612 64.31512451 319.23309326 64.45338440 C 319.39221191 64.76205444 319.00527954 65.32814026 318.64016724 65.35266113 C 318.26467896 65.41944885 318.02590942 65.45322418 317.79620361 65.33332825 C 317.34472656 65.46226501 316.85906982 65.38678741 316.22946167 65.51381683 C 315.86999512 65.52594757 315.60803223 65.36531830 315.35671997 65.17715454 C 315.31777954 64.93069458 315.32791138 64.62236023 315.28903198 64.12381744 C 315.09017944 63.95952988 315.01446533 63.65366745 315.10784912 63.03586578 C 315.32229614 62.48724747 315.60055542 61.88571167 316.07205200 61.56085587 C 316.45349121 61.46597290 316.84970093 61.39601135 317.40783691 61.43973541 C 318.01184082 61.53335190 318.79010010 61.55661011 319.30529785 64.48802185" stroke-width="1.95571923" fill="rgb(251, 249, 246)" opacity="1.0" stroke="rgb(27, 23, 7)" stroke-opacity="0.3358494" stroke-linecap="round" stroke-linejoin="round"/>
    <path d="M 398.19995117 72.41555023 C 397.64303589 72.49005127 396.90170288 72.63872528 396.27905273 72.74751282 C 396.05300903 72.95281982 396.05477905 72.82956696 395.96307373 72.36557007 C 395.94195557 71.93231201 395.66540527 71.72509766 395.24182129 71.58886719 C 395.19134521 71.20890808 395.12860107 70.60713196 394.90676880 70.42454529 C 394.77279663 70.64213562 394.90759277 70.79688263 395.15408325 70.52495575 C 395.30056763 70.33531189 395.45162964 70.30321503 395.52078247 70.38909912 C 395.46685791 70.22843933 395.32321167 69.91158295 395.53958130 69.49684143 C 395.93920898 69.12757874 396.23611450 68.85569000 396.43798828 68.88151550 C 396.70104980 69.02304077 397.30886841 69.08187103 397.82171631 69.22001648 C 398.39517212 69.47504425 399.00741577 69.82530975 398.19995117 72.41555023" stroke-width="0.39197132" fill="rgb(251, 251, 251)" opacity="1.0" stroke="rgb(164, 162, 144)" stroke-opacity="0.7122122" stroke-linecap="round" stroke-linejoin="round"/>
    <path d="M 478.95623779 46.68901062 C 479.52014160 46.65737534 479.88455200 46.75223923 480.05078125 47.05558014 C 480.45309448 47.50527573 480.98562622 47.70688629 481.46279907 47.74178314 C 481.58566284 47.91086960 481.57595825 48.32972717 481.57418823 48.88619614 C 481.56149292 49.50479889 481.49993896 50.15190125 481.21273804 50.37432098 C 481.02249146 50.36320496 480.82656860 50.47246170 480.55810547 50.52648163 C 480.08932495 50.57895660 479.68380737 50.79816437 479.04522705 50.88917160 C 479.13739014 50.81852722 479.02072144 50.38257217 478.21463013 49.74716568 C 477.87277222 49.15066910 477.74014282 48.71010590 477.42254639 48.28726578 C 477.57910156 47.93650818 477.65203857 47.86961365 477.57186890 47.95219040 C 477.63363647 48.13920975 478.04217529 47.89793396 478.95623779 46.68901062" stroke-width="0.26206031" fill="rgb(253, 255, 255)" opacity="1.0" stroke="rgb(191, 187, 165)" stroke-opacity="0.8366863" stroke-linecap="round" stroke-linejoin="round"/>
    <path d="M 81.41056824 146.46997070 C 81.42406464 146.44718933 81.42710114 146.47235107 81.43073273 146.45613098 C 81.45138550 146.44853210 81.44529724 146.46496582 81.45020294 146.44819641 C 81.47234344 146.44648743 81.46420288 146.45491028 81.46952057 146.43472290 C 81.49117279 146.44335938 81.48346710 146.44332886 81.50095367 146.41430664 C 81.49971008 146.43455505 81.51540375 146.41648865 81.51569366 146.39924622 C 81.52698517 146.41070557 81.53650665 146.39305115 81.54959106 146.38482666 C 81.54461670 146.38189697 81.56635284 146.36415100 81.57212067 146.36755371 C 81.57608795 146.33682251 81.59307861 146.34443665 81.59747314 146.32783508 C 81.60221863 146.30937195 81.62252808 146.30667114 81.62494659 146.29084778 C 81.63130188 146.27888489 81.64662933 146.26739502 81.41056824 146.46997070" stroke-width="2.00000000" fill="rgb(0, 0, 0)" opacity="1.0" stroke="rgb(6, 7, 38)" stroke-opacity="1.0" stroke-linecap="round" stroke-linejoin="round"/>
    <path d="M 254.84315491 109.24540710 C 254.82185364 109.25978851 254.83027649 109.23969269 254.84234619 109.25260925 C 254.82562256 109.24511719 254.82968140 109.24491119 254.83015442 109.24420166 C 254.83509827 109.24421692 254.82827759 109.23539734 254.83584595 109.24316406 C 254.83261108 109.23173523 254.82720947 109.24091339 254.83789062 109.23782349 C 254.82759094 109.22997284 254.84228516 109.23093414 254.82934570 109.23970032 C 254.83732605 109.23677063 254.83657837 109.22292328 254.83749390 109.23818207 C 254.83676147 109.23219299 254.84156799 109.23640442 254.84628296 109.22550201 C 254.83819580 109.24356079 254.84600830 109.22325134 254.84884644 109.24715424 C 254.84338379 109.22721863 254.85702515 109.24151611 254.84982300 109.23751831 C 254.85252380 109.23489380 254.86056519 109.24230957 254.84315491 109.24540710" stroke-width="2.00000000" fill="rgb(0, 36, 0)" opacity="1.0" stroke="rgb(5, 6, 38)" stroke-opacity="0.97865987" stroke-linecap="round" stroke-linejoin="round"/>
    <path d="M 348.60995483 175.33741760 C 348.60870361 175.33726501 348.61013794 175.34664917 348.60232544 175.33796692 C 348.61459351 175.33100891 348.60766602 175.35815430 348.60510254 175.33409119 C 348.60473633 175.34767151 348.61633301 175.34585571 348.59942627 175.34580994 C 348.61001587 175.34570312 348.60620117 175.34960938 348.60195923 175.34994507 C 348.60729980 175.34999084 348.60751343 175.34901428 348.59625244 175.35554504 C 348.60903931 175.34916687 348.59841919 175.35684204 348.60626221 175.35130310 C 348.59643555 175.35180664 348.60388184 175.36528015 348.59957886 175.34759521 C 348.59979248 175.35974121 348.59329224 175.36508179 348.60562134 175.34909058 C 348.59237671 175.36734009 348.59692383 175.36270142 348.60150146 175.36146545 C 348.58804321 175.35954285 348.60333252 175.36682129 348.60995483 175.33741760" stroke-width="0.88858086" fill="rgb(0, 0, 93)" opacity="1.0" stroke="rgb(7, 7, 38)" stroke-opacity="1.0" stroke-linecap="round" stroke-linejoin="round"/>
    <path d="M 446.18298340 133.56556702 C 446.20199585 133.56134033 446.18441772 133.56121826 446.18936157 133.57531738 C 446.19808960 133.55300903 446.18838501 133.57536316 446.18957520 133.56639099 C 446.19628906 133.55953979 446.18511963 133.57727051 446.19418335 133.56423950 C 446.18826294 133.56799316 446.19039917 133.57534790 446.19311523 133.56626892 C 446.18618774 133.57128906 446.19052124 133.57745361 446.19503784 133.56854248 C 446.18057251 133.56732178 446.19790649 133.58338928 446.18359375 133.56782532 C 446.18765259 133.57078552 446.19348145 133.58117676 446.18450928 133.56571960 C 446.19186401 133.57386780 446.18267822 133.57652283 446.19500732 133.56803894 C 446.18115234 133.57937622 446.18911743 133.56607056 446.18585205 133.57536316 C 446.18856812 133.57278442 446.18521118 133.57022095 446.18298340 133.56556702" stroke-width="0.50974631" fill="rgb(0, 0, 0)" opacity="1.0" stroke="rgb(0, 0, 0)" stroke-opacity="1.0" stroke-linecap="round" stroke-linejoin="round"/>
    <path d="M 452.58126831 60.79580688 C 455.38790894 61.26539230 458.39614868 61.82338715 461.33596802 62.91671371 C 464.39318848 64.48126221 467.91635132 65.77304077 471.16952515 67.77896118 C 474.28509521 70.18684387 477.28445435 72.89507294 480.03234863 75.98509979 C 482.57031250 79.49787903 484.65707397 83.33630371 486.16763306 87.51611328 C 487.70120239 91.64363861 488.26815796 96.01385498 488.28601074 100.54592133 C 488.35275269 105.08584595 487.48303223 109.45903015 486.09619141 113.54889679 C 484.93307495 117.60065460 482.69235229 120.99004364 480.25189209 124.44565582 C 477.95178223 127.73741150 474.80160522 130.21270752 471.71148682 132.73016357 C 468.43792725 134.88546753 464.96383667 136.39659119 461.47515869 137.79615784 C 458.13769531 139.02690125 454.77255249 139.22610474 451.64801025 139.96849060 C 448.18307495 140.14775085 444.91296387 139.42080688 441.29870605 138.93608093 C 437.48565674 137.64674377 433.49023438 136.38841248 429.84066772 134.02485657 C 426.12533569 131.48208618 422.85925293 128.40847778 419.86068726 124.96261597 C 417.46408081 121.58313751 415.76623535 117.94165802 414.04205322 114.53446198 C 412.92626953 111.17819977 412.65719604 107.77575684 411.98129272 104.29777527 C 411.78332520 100.67691040 411.88372803 96.91685486 412.38299561 93.22557068 C 413.33538818 89.23580933 414.61788940 85.17236328 416.49584961 81.56282806 C 418.74221802 78.09323120 420.85006714 74.62036133 423.77349854 71.77545929 C 426.68203735 68.89198303 430.05676270 66.39634705 433.74295044 64.27313995 C 438.17239380 62.44093323 442.57247925 60.24848175 452.58126831 60.79580688" stroke-width="1.44115460" fill="rgb(247, 187, 0)" opacity="1.0" stroke="rgb(229, 194, 46)" stroke-opacity="0.98969615" stroke-linecap="round" stroke-linejoin="round"/>
    <path d="M 493.64572144 483.66607666 C 473.27032471 482.44732666 452.79800415 481.33428955 432.28292847 480.44754028 C 411.72796631 479.71838379 391.01290894 479.04174805 370.00198364 478.63867188 C 348.83392334 478.33334351 327.45184326 478.08712769 305.79815674 477.95761108 C 283.94158936 477.90576172 261.95016479 477.94552612 239.87992859 477.85525513 C 217.79837036 478.03427124 195.77935791 478.04598999 173.88877869 478.20419312 C 152.30912781 478.53445435 131.06111145 478.93997192 110.44163513 479.42337036 C 90.66271973 480.10690308 71.95590973 480.92077637 54.52093887 481.90585327 C 38.59289551 482.91549683 24.56918716 483.82766724 12.74395561 484.43661499 C 3.37004495 485.22000122 -3.21859360 485.77099609 -6.87240648 484.97186279 C -7.44033909 483.09286499 -4.72591734 480.97451782 1.49662459 479.34887695 C 11.13940048 478.57257080 23.70757103 477.76718140 38.57606888 476.71170044 C 55.30999374 475.65783691 73.64846039 474.97598267 93.30197906 473.88000488 C 114.03285217 473.28100586 135.51405334 472.57974243 157.46806335 472.12817383 C 179.82440186 471.73623657 202.36206055 471.38522339 224.92771912 471.31674194 C 247.40789795 471.21353149 269.68371582 471.39428711 291.69470215 471.46047974 C 313.40911865 471.73733521 334.76132202 471.84674072 355.68356323 472.34701538 C 376.25399780 472.64376831 396.49185181 473.14346313 416.35211182 473.78054810 C 435.89810181 474.61456299 455.20480347 475.57528687 474.32904053 476.76419067 C 493.31634521 477.63378906 512.15325928 478.84555054 530.87817383 481.33853149 C 549.48181152 484.85690308 568.07781982 488.88888550 493.64572144 483.66607666" stroke-width="0.63970208" fill="rgb(34, 157, 178)" opacity="1.0" stroke="rgb(30, 87, 112)" stroke-opacity="0.9986513" stroke-linecap="round" stroke-linejoin="round"/>
    <path d="M 331.33163452 243.07518005 C 326.09252930 244.45500183 320.83883667 244.56938171 315.00756836 244.51240540 C 309.14697266 244.46475220 302.66934204 244.25907898 295.94476318 244.51695251 C 289.47692871 244.38479614 283.36477661 244.33029175 277.47573853 244.46197510 C 271.85589600 244.18949890 266.26739502 244.28094482 260.41891479 244.50697327 C 253.87100220 244.28080750 247.19569397 244.06785583 240.24891663 244.52876282 C 233.25378418 244.84906006 226.27851868 245.05247498 219.29612732 245.13003540 C 212.19337463 245.07435608 204.86193848 244.94703674 197.35110474 244.87065125 C 189.77284241 245.03266907 182.09776306 244.85809326 174.07032776 244.61231995 C 165.67515564 245.01260376 157.51016235 244.87031555 149.97636414 244.95578003 C 143.73944092 244.32884216 138.78564453 244.97857666 134.59500122 244.98899841 C 131.11515808 245.29164124 128.11424255 244.02593994 125.20449829 241.39694214 C 121.80024719 238.07704163 118.74578857 233.81825256 116.40563965 228.53822327 C 114.99893951 222.42338562 114.19635773 215.80688477 114.06746674 208.93025208 C 114.67313385 202.00343323 115.92276001 195.39404297 117.63516998 189.38371277 C 119.82849121 184.16496277 122.74971008 180.14056396 126.32746124 177.40541077 C 129.52865601 175.66102600 133.65600586 174.95877075 137.87762451 175.24023438 C 142.82186890 175.08493042 148.28741455 175.17127991 154.40115356 175.18717957 C 161.10688782 175.24690247 168.23764038 175.16055298 175.48625183 175.05909729 C 182.42454529 175.60827637 189.44511414 174.91496277 196.88212585 175.09735107 C 204.28710938 175.44375610 212.05000305 175.11938477 219.72279358 175.03544617 C 226.56217957 175.46102905 233.13450623 174.75854492 240.02227783 175.31681824 C 247.37496948 174.91950989 254.85922241 175.25309753 262.92480469 175.26492310 C 271.28524780 175.38636780 279.64901733 175.19020081 287.57434082 175.13098145 C 294.64645386 175.21093750 301.42340088 175.44247437 308.08233643 175.01127625 C 314.84649658 175.26550293 321.57400513 175.23971558 327.75479126 175.74278259 C 333.34033203 176.73411560 337.69769287 178.45707703 341.54870605 181.54797363 C 345.39846802 184.58146667 348.52859497 188.21447754 350.89334106 192.70921326 C 353.12551880 197.40705872 354.45196533 202.63328552 355.75250244 207.73765564 C 355.26147461 213.15353394 353.86822510 218.79739380 351.84643555 224.85354614 C 348.71795654 230.80537415 344.68014526 237.67222595 331.33163452 243.07518005" stroke-width="0.00000000" fill="rgb(196, 187, 186)" opacity="1.0" stroke="rgb(147, 146, 150)" stroke-opacity="0.84245694" stroke-linecap="round" stroke-linejoin="round"/>
    <path d="M 395.96463013 203.03315735 C 395.45349121 204.84863281 394.88604736 206.60568237 394.30096436 208.36508179 C 393.77926636 210.09446716 393.21551514 211.77781677 392.57165527 213.47050476 C 391.90133667 215.26036072 391.15621948 217.08534241 390.30084229 218.88677979 C 389.30514526 220.78027344 388.15505981 222.72673035 386.77801514 224.58615112 C 385.26318359 226.47100830 383.38854980 228.28407288 380.95983887 229.86647034 C 378.06552124 231.44659424 375.03561401 232.76159668 372.30581665 234.42822266 C 369.45584106 235.11016846 366.85534668 236.15055847 364.31158447 237.16212463 C 361.51483154 237.58518982 358.86053467 238.17825317 356.68386841 238.14219666 C 355.15447998 237.17982483 354.40615845 235.70770264 354.57553101 233.73294067 C 355.22839355 231.14277649 355.28805542 228.27473450 355.52032471 224.91574097 C 356.25952148 221.44813538 356.57229614 217.92091370 356.03704834 214.46064758 C 354.76098633 211.01937866 354.31002808 207.63438416 354.88784790 204.70529175 C 356.34146118 202.71005249 356.60086060 200.69975281 356.15246582 198.06076050 C 356.00048828 194.98860168 355.77471924 191.54241943 355.24774170 188.25180054 C 354.75039673 185.15914917 354.64175415 182.29562378 355.13171387 180.50169373 C 355.72106934 179.75199890 356.88021851 179.76666260 358.52560425 180.04013062 C 360.65356445 180.65635681 363.27328491 181.34904480 366.15216064 182.19168091 C 369.06060791 183.20829773 371.94250488 184.50338745 374.71261597 185.43823242 C 377.07443237 186.99256897 379.43127441 188.10694885 381.64855957 189.27665710 C 383.55895996 190.74205017 385.39556885 192.27041626 395.96463013 203.03315735" stroke-width="0.17087266" fill="rgb(196, 188, 188)" opacity="1.0" stroke="rgb(211, 201, 154)" stroke-opacity="0.4475523" stroke-linecap="round" stroke-linejoin="round"/>
    <path d="M 209.16525269 269.54064941 C 205.23672485 270.45388794 200.96482849 270.23764038 196.52140808 270.04562378 C 191.65547180 270.00289917 186.98936462 270.35836792 182.47561646 270.10409546 C 178.03446960 270.36956787 174.33412170 270.00930786 171.04978943 270.40426636 C 167.89402771 269.85797119 164.91007996 269.93566895 162.07226562 270.29055786 C 159.61590576 270.22418213 157.44862366 270.41644287 156.08438110 269.96215820 C 155.42750549 268.72610474 156.50628662 267.41925049 159.08659363 265.75946045 C 161.90769958 263.28408813 165.24937439 260.59851074 168.48330688 257.43307495 C 172.21948242 254.86431885 175.46861267 251.88497925 178.67074585 249.05407715 C 181.96833801 246.53366089 184.74189758 244.16447449 186.98152161 242.22924805 C 189.38218689 242.07888794 191.48057556 241.54539490 193.48779297 241.81115723 C 195.76811218 241.73361206 197.89772034 241.66995239 199.75891113 241.99185181 C 201.80911255 241.71238708 203.91213989 241.83071899 205.75697327 242.00221252 C 207.55670166 241.32533264 209.44937134 241.90362549 211.94473267 241.98881531 C 215.41851807 241.82942200 219.26451111 241.85075378 223.47140503 241.95434570 C 227.64236450 241.86590576 231.20767212 241.88041687 234.22557068 241.86557007 C 236.98638916 241.80499268 238.99256897 241.70046997 240.01649475 241.86354065 C 240.31399536 242.76564026 240.38537598 243.77197266 239.67658997 245.08334351 C 238.28680420 246.75309753 236.10363770 248.58261108 233.42166138 250.71496582 C 230.41575623 253.10215759 227.23425293 255.69383240 223.92646790 258.50839233 C 220.23942566 261.08505249 217.06976318 264.36978149 209.16525269 269.54064941" stroke-width="2.00000000" fill="rgb(197, 190, 191)" opacity="1.0" stroke="rgb(8, 7, 17)" stroke-opacity="0.95842093" stroke-linecap="round" stroke-linejoin="round"/>
    <path d="M 213.95718384 172.91584778 C 209.26869202 172.54449463 204.64645386 173.15621948 200.19378662 172.72750854 C 195.86689758 173.18064880 192.01318359 172.79339600 188.54455566 172.72152710 C 185.42784119 172.85995483 182.67829895 172.84867859 180.51928711 172.79644775 C 179.72744751 171.07885742 178.19088745 169.12513733 176.14213562 166.82739258 C 174.20185852 164.01792908 171.69091797 161.46965027 169.58633423 158.50492859 C 167.38818359 155.64807129 165.30873108 153.00067139 163.67791748 150.43429565 C 161.73918152 148.53373718 160.75894165 146.41996765 159.99012756 144.71150208 C 160.51890564 143.89048767 161.90495300 143.63885498 163.94017029 144.00276184 C 166.46423340 143.94738770 169.52276611 143.54591370 173.34782410 143.90586853 C 177.96527100 143.61497498 182.73997498 144.09786987 187.23324585 143.71974182 C 191.21151733 144.04563904 195.11582947 143.69795227 198.92433167 143.79418945 C 202.64048767 143.96479797 206.09088135 143.90995789 209.00942993 143.81018066 C 211.69703674 144.98614502 214.34284973 147.42379761 217.54986572 149.95343018 C 220.73646545 153.09605408 224.62010193 155.54298401 227.53713989 158.75773621 C 230.79934692 161.02304077 233.26139832 163.51864624 235.41680908 165.81813049 C 237.33489990 167.70347595 238.89219666 169.18173218 240.19622803 169.91418457 C 240.99443054 170.15170288 241.11172485 170.44331360 240.95887756 171.30018616 C 240.93872070 171.95359802 241.27459717 172.42912292 241.27551270 172.92495728 C 240.77421570 173.02221680 239.95219421 172.99691772 238.72001648 173.15487671 C 237.66009521 173.01110840 236.36573792 172.60012817 213.95718384 172.91584778" stroke-width="0.00000000" fill="rgb(198, 188, 187)" opacity="1.0" stroke="rgb(180, 178, 148)" stroke-opacity="0.7027148" stroke-linecap="round" stroke-linejoin="round"/>
    <path d="M 119.05101013 212.24246216 C 118.77440643 209.84539795 118.09586334 208.10911560 116.69284058 207.12644958 C 114.85362244 206.55007935 112.98250580 206.19732666 111.13018036 205.92395020 C 109.26623535 205.72142029 107.41327667 205.49545288 105.69023132 205.13110352 C 104.12199402 204.65412903 102.63289642 204.13322449 101.15461731 203.53370667 C 99.74691010 202.83369446 98.49131775 202.07069397 97.37117004 201.21482849 C 96.37187195 200.18623352 95.50949860 198.97758484 94.80535889 197.70701599 C 94.28458405 196.42304993 93.89661407 195.09432983 93.67323303 193.75267029 C 93.65578461 192.43130493 93.88635254 191.11892700 94.34896088 189.89683533 C 94.95582581 188.80001831 95.44644165 187.55375671 95.82208252 186.33815002 C 96.39864349 185.35977173 97.08930969 184.24571228 97.83441925 183.28993225 C 99.25797272 182.88688660 100.86513519 182.45642090 102.42185211 182.02911377 C 104.43824005 181.96823120 106.63027954 182.00355530 108.86563110 182.06681824 C 111.23255157 182.20683289 113.54644775 182.37521362 115.66072845 182.53877258 C 117.40596008 182.64715576 118.94305420 183.40773010 120.44578552 184.09228516 C 121.75823212 184.97651672 122.86706543 185.92271423 123.79249573 186.95721436 C 124.58444977 188.07115173 125.27085114 189.29179382 125.81107330 190.61642456 C 126.27193451 192.04003906 126.66733551 193.42321777 127.04297638 194.79359436 C 127.35186005 196.20849609 127.61269379 197.70393372 127.83907318 199.27891541 C 128.04385376 200.82978821 128.23370361 202.34681702 128.43971252 203.90234375 C 128.64205933 205.48764038 128.88650513 207.06298828 119.05101013 212.24246216" stroke-width="0.70406139" fill="rgb(18, 179, 196)" opacity="1.0" stroke="rgb(24, 89, 106)" stroke-opacity="1.0" stroke-linecap="round" stroke-linejoin="round"/>
    <path d="M 107.55934906 223.32130432 C 105.94987488 223.38229370 104.42277527 223.41873169 103.09724426 223.41264343 C 101.97572327 223.37437439 100.95568848 223.33480835 99.92267609 223.23449707 C 98.84572601 223.07443237 97.76242065 222.83830261 96.79508972 222.47857666 C 95.98536682 221.98780823 95.34761047 221.33766174 94.97601318 220.46026611 C 95.03582764 219.21025085 94.83297729 217.69386292 94.75572205 216.16032410 C 94.54653168 214.61962891 93.97071838 212.92625427 93.55575562 211.12828064 C 93.40239716 209.32768250 93.61407471 207.56524658 93.91949463 205.92216492 C 93.81540680 204.38665771 93.77114105 202.76033020 93.97705841 201.28408813 C 93.66854858 200.04519653 93.59413910 198.87167358 94.17405701 197.62950134 C 94.78971863 196.29751587 95.58347321 195.18228149 96.59171295 194.27569580 C 97.86508942 193.51838684 99.44380951 192.91551208 101.19244385 192.44731140 C 102.96909332 192.07911682 104.68998718 191.72927856 106.42398834 191.53379822 C 108.18128967 191.37277222 109.76106262 190.99142456 111.07575226 190.39738464 C 112.24028778 189.80909729 113.36778259 189.40921021 114.47193909 189.28153992 C 115.52394104 189.56420898 116.40454102 190.27331543 117.00447845 191.28210449 C 117.27449799 192.60403442 117.42032623 194.03785706 117.37022400 195.57269287 C 117.21435547 197.19470215 117.06873322 198.90802002 117.00428772 200.69711304 C 116.97418213 202.55863953 116.97672272 204.44157410 117.05886078 206.36535645 C 117.20537567 208.33106995 117.29106140 210.29129028 117.29628754 212.22756958 C 117.33498383 214.16241455 117.06498718 216.07742310 107.55934906 223.32130432" stroke-width="0.74668407" fill="rgb(15, 174, 193)" opacity="1.0" stroke="rgb(44, 152, 175)" stroke-opacity="0.61748576" stroke-linecap="round" stroke-linejoin="round"/>
    <path d="M 91.77566528 229.73271179 C 92.71094513 227.43838501 93.60054016 225.19123840 94.50424194 222.89712524 C 95.48271942 220.72264099 96.19316864 218.58331299 96.62170410 216.49604797 C 97.40757751 214.61499023 98.52725220 212.92767334 99.69636536 211.37727356 C 100.94005585 210.13816833 102.30576324 209.19342041 103.81825256 208.42704773 C 105.46173859 207.82392883 107.13691711 207.44697571 108.96337128 207.41592407 C 111.01359558 207.63870239 113.04368591 207.98878479 114.85209656 208.53036499 C 116.44064331 209.31457520 117.66545105 210.48733521 118.44359589 212.14738464 C 119.74259186 212.97346497 121.39382172 213.41131592 122.95955658 214.01101685 C 124.18265533 214.93089294 125.06168365 216.15191650 125.64607239 217.60401917 C 126.05128479 219.16101074 126.33399963 220.73751831 126.46045685 222.30714417 C 126.42567444 223.91107178 126.31038666 225.61639404 126.05522919 227.34822083 C 125.55073547 229.00001526 124.84373474 230.51365662 124.12198639 231.98648071 C 123.48928070 233.44543457 122.76627350 234.76473999 121.86750031 235.90164185 C 120.88790131 236.94767761 119.99392700 237.93481445 119.24114990 238.46044922 C 117.94233704 238.26542664 116.15610504 238.38380432 113.81751251 238.52185059 C 111.00089264 238.51008606 108.10974884 238.76312256 105.78591919 238.94746399 C 104.21248627 238.45455933 103.07471466 238.47059631 102.10909271 238.75825500 C 101.00522614 238.55227661 99.79329681 237.78239441 98.41233826 236.71934509 C 97.43178558 235.01443481 96.40775299 233.42579651 95.43356323 232.04302979 C 95.15667725 230.66387939 95.20261383 229.44433594 91.77566528 229.73271179" stroke-width="0.00000000" fill="rgb(16, 172, 192)" opacity="1.0" stroke="rgb(6, 155, 180)" stroke-opacity="0.6323179" stroke-linecap="round" stroke-linejoin="round"/>
    <path d="M 13.32170200 188.20625305 C 11.96852016 187.91642761 10.41482544 187.62287903 8.93127251 187.22021484 C 7.70374441 186.85908508 6.78033304 186.21748352 6.20286989 185.23358154 C 5.97599792 183.83280945 6.04129171 182.46296692 6.54770517 181.32954407 C 6.94585991 180.33735657 8.00783920 179.86726379 9.68370724 179.65879822 C 11.88543129 179.79010010 14.75841808 180.25376892 18.13222122 180.69221497 C 21.77858734 181.20465088 25.91686440 181.83245850 30.19864273 182.08444214 C 34.57546616 182.77645874 39.08768082 183.09475708 43.65461731 183.90362549 C 48.22848511 184.47799683 52.94467545 185.00840759 57.57109451 185.65901184 C 62.16025925 185.99412537 66.80349731 186.96583557 71.41716766 187.39027405 C 75.94744110 187.73478699 80.36218262 188.46142578 84.44881439 188.93217468 C 88.46150970 189.22718811 91.96197510 189.52462769 94.64669037 190.13142395 C 95.93439484 191.58670044 96.69178772 192.80888367 98.03368378 192.95410156 C 100.25222778 192.46168518 102.92613220 192.45048523 105.25858307 193.05314636 C 106.36920166 194.23590088 106.45941925 195.59931946 105.98398590 196.47383118 C 104.63284302 196.61161804 102.48212433 196.40373230 99.77624512 196.22877502 C 96.52435303 196.48071289 92.91722870 196.94322205 88.93184662 196.68321228 C 84.42446136 196.26599121 79.53076935 195.59069824 74.54016113 195.14903259 C 69.35161591 194.51167297 64.22066498 194.28692627 59.05980301 193.53475952 C 53.79738617 192.92036438 48.59361267 192.49102783 43.36848068 191.79751587 C 38.02711868 191.18208313 32.75071335 190.84062195 13.32170200 188.20625305" stroke-width="0.57531595" fill="rgb(116, 249, 251)" opacity="1.0" stroke="rgb(123, 255, 255)" stroke-opacity="0.46046707" stroke-linecap="round" stroke-linejoin="round"/>
    <path d="M 9.01664734 213.94752502 C 8.20923615 213.72857666 7.41998434 213.42079163 6.75654984 212.77317810 C 6.52319717 211.60571289 6.25617504 210.33573914 6.27973461 209.20907593 C 6.78231621 208.23089600 7.20996046 207.17408752 7.69633675 206.47319031 C 8.86523438 206.32977295 10.83368301 206.30725098 13.05163288 206.48156738 C 14.97629547 206.17062378 17.13513565 206.03765869 19.94472885 206.45014954 C 23.19050789 206.30152893 27.05370522 206.54237366 31.70647812 206.60267639 C 36.78060913 206.51135254 42.10163879 206.83454895 47.63259125 206.82015991 C 53.11630630 207.00701904 58.53345490 207.05842590 63.69018936 207.07940674 C 68.67789459 207.03381348 73.69005585 207.16311646 78.56842041 207.21040344 C 83.15509796 207.58131409 87.66830444 207.48571777 91.83958435 207.66004944 C 95.52245331 208.43896484 98.83695221 208.84588623 101.78050995 208.90641785 C 104.28259277 208.98892212 106.18156433 208.79719543 107.25965881 209.08106995 C 107.63726044 209.91773987 107.41127777 211.16439819 107.03152466 212.38169861 C 105.90207672 212.66247559 104.16141510 212.44538879 101.88754272 212.34681702 C 99.17895508 212.22969055 96.30713654 212.58596802 93.33815002 213.45733643 C 89.91843414 213.70024109 86.12287140 213.94181824 82.15933228 213.90649414 C 78.09716797 214.01188660 73.91961670 213.96128845 69.62407684 214.21679688 C 65.25165558 214.10525513 60.72025681 214.29655457 56.11309433 214.18322754 C 51.39656830 214.24909973 46.42208862 214.13854980 41.16907883 214.18460083 C 35.85242081 213.94435120 30.55522728 214.30958557 9.01664734 213.94752502" stroke-width="0.54712486" fill="rgb(128, 249, 250)" opacity="1.0" stroke="rgb(115, 248, 253)" stroke-opacity="0.48824346" stroke-linecap="round" stroke-linejoin="round"/>
    <path d="M 96.09673309 227.31146240 C 95.17550659 228.78485107 93.82376862 229.65954590 91.69490051 229.90824890 C 89.29306793 230.05068970 86.62490845 230.10643005 83.79666138 230.87629700 C 80.38258362 231.17175293 76.58640289 231.67625427 72.49650574 232.03277588 C 68.07522583 232.63433838 63.59560776 233.13313293 58.66074371 233.78315735 C 53.55807877 234.25219727 48.56108475 235.00448608 43.58168411 235.23011780 C 38.66400909 236.04965210 33.88472748 236.41049194 29.21437073 236.95721436 C 24.84087753 237.27452087 20.79838753 237.88555908 17.03961182 238.19258118 C 13.76186943 238.41461182 10.77076912 238.62043762 8.62504482 238.61961365 C 7.09967613 237.94743347 6.37618780 236.90678406 6.23101091 235.52165222 C 6.07930374 234.22225952 6.50919771 232.96131897 7.53388023 231.81665039 C 8.77994823 231.05125427 10.51636314 230.59465027 12.86149406 230.71713257 C 15.65602684 230.43978882 19.24445152 230.04377747 23.25603104 229.61851501 C 27.52045822 229.17317200 31.95082092 228.53057861 36.69183731 228.36286926 C 41.61584091 227.77265930 46.39155960 227.61453247 50.90880203 226.85061646 C 55.31670380 226.80920410 59.44489670 225.83279419 63.49960709 225.71205139 C 67.28363037 225.22962952 70.85855103 224.80210876 74.51123047 224.60147095 C 78.22518921 223.99760437 82.03298187 223.72152710 85.89048767 223.37322998 C 89.80795288 222.91987610 93.71590424 222.42654419 97.35498810 222.43313599 C 100.87041473 222.40744019 103.80602264 222.13275146 106.46063232 222.29698181 C 108.27788544 224.25721741 110.12786865 226.25556946 96.09673309 227.31146240" stroke-width="0.61587292" fill="rgb(122, 248, 251)" opacity="1.0" stroke="rgb(118, 255, 255)" stroke-opacity="0.47044453" stroke-linecap="round" stroke-linejoin="round"/>
    <path d="M 134.54733276 242.28941345 C 134.17045593 243.02212524 134.07438660 243.64918518 134.18341064 244.20938110 C 133.99974060 244.56655884 133.42974854 244.36424255 132.62077332 243.86636353 C 131.78698730 243.76325989 130.88063049 243.84669495 129.84399414 243.54331970 C 128.68649292 243.00675964 127.42774963 242.35646057 126.15361023 241.36468506 C 124.93774414 239.89764404 123.59072876 238.66102600 122.26871490 237.44679260 C 121.14297485 236.07881165 120.56809998 234.30833435 120.10064697 232.16305542 C 119.99090576 229.62380981 119.91522980 226.75119019 119.79003143 223.80462646 C 119.68395233 220.97175598 119.78469849 218.16542053 119.57622528 215.18009949 C 119.63623810 212.21586609 119.87091064 209.31428528 119.71501160 206.38932800 C 119.78118896 203.34461975 119.71782684 200.30407715 119.85112000 197.55555725 C 120.16658783 195.05114746 120.29840088 192.61500549 120.18277740 190.26957703 C 120.31594849 188.05398560 120.26036835 186.12173462 120.56813812 184.36804199 C 121.71974945 182.94635010 123.23866272 181.38075256 124.77809143 179.89804077 C 126.20793152 178.45658875 127.84346771 177.29710388 129.59518433 176.68502808 C 131.33956909 176.33209229 132.78256226 176.15269470 133.73834229 176.27600098 C 134.29692078 176.91918945 134.57209778 178.10284424 134.35795593 179.74481201 C 134.38026428 181.73759460 134.50781250 184.15504456 134.51748657 186.96052551 C 134.53742981 190.06105042 134.50119019 193.35253906 134.31933594 196.78388977 C 134.60543823 200.27140808 134.54814148 203.78993225 134.49981689 207.24353027 C 134.37927246 210.71298218 134.38285828 214.20291138 134.54733276 242.28941345" stroke-width="1.80162275" fill="rgb(243, 93, 126)" opacity="1.0" stroke="rgb(157, 0, 0)" stroke-opacity="0.4664432" stroke-linecap="round" stroke-linejoin="round"/>
    <path d="M 384.73226929 192.45497131 C 384.89324951 192.45152283 384.97497559 192.51448059 385.16351318 192.63902283 C 385.59783936 192.74407959 386.06225586 192.72938538 386.30532837 192.56680298 C 386.56646729 192.94255066 387.09533691 193.56866455 387.87399292 193.94956970 C 388.90118408 194.37911987 389.80392456 195.15612793 390.81112671 195.91653442 C 391.97940063 196.55842590 392.87017822 197.59513855 393.86410522 198.65562439 C 395.16699219 199.47346497 396.32989502 200.54647827 397.43765259 201.85200500 C 398.75311279 202.88667297 399.79501343 204.17771912 400.96575928 205.35194397 C 401.94424438 206.40687561 402.68029785 207.50090027 403.15887451 208.50122070 C 403.33471680 209.58502197 402.89764404 210.39553833 402.13595581 211.40316772 C 401.10247803 212.37527466 400.26473999 213.70671082 398.96859741 215.00764465 C 397.89779663 216.51998901 396.67138672 217.85823059 395.46582031 219.27174377 C 394.07681274 220.25906372 392.80841064 221.21029663 391.67065430 222.27508545 C 390.42800903 223.11059570 389.35449219 224.02050781 388.41217041 224.73309326 C 387.31201172 225.01293945 386.71493530 225.53230286 386.19589233 226.17402649 C 385.39230347 226.38308716 384.64376831 226.35729980 384.32427979 226.34301758 C 384.49008179 225.87257385 384.68307495 225.13244629 384.68444824 224.13807678 C 384.68121338 222.83169556 384.67614746 221.26770020 384.73574829 219.64161682 C 384.88513184 218.05627441 384.82385254 216.40399170 384.60839844 214.73628235 C 384.77401733 213.12586975 384.91894531 211.62355042 384.77505493 210.09683228 C 384.74835205 208.68397522 384.63372803 207.32031250 384.73226929 192.45497131" stroke-width="0.42056975" fill="rgb(240, 75, 119)" opacity="1.0" stroke="rgb(229, 91, 108)" stroke-opacity="0.48869243" stroke-linecap="round" stroke-linejoin="round"/>
    <path d="M 201.98554993 71.15229034 C 202.43644714 73.81910706 202.87762451 76.17498016 202.81051636 78.37739563 C 202.38438416 80.29093933 202.49009705 81.83034515 202.40675354 82.86676025 C 201.48435974 83.52903748 200.86537170 83.03986359 200.55995178 81.77966309 C 200.13259888 80.02353668 200.20515442 77.87059784 200.20364380 75.68469238 C 199.88056946 73.93760681 199.18225098 72.48841095 198.02609253 71.51786041 C 196.60113525 71.09414673 195.07643127 71.04651642 193.58091736 71.35739899 C 192.62046814 71.76033020 192.00148010 72.22425079 192.15400696 72.67672729 C 193.04074097 73.04469299 194.74647522 73.14451599 197.34288025 73.32886505 C 200.45819092 72.97017670 203.86753845 73.07901001 207.53475952 73.28220367 C 210.93923950 72.51485443 214.26651001 71.83740234 201.98554993 71.15229034" stroke-width="0.56524795" fill="rgb(126, 223, 232)" opacity="1.0" stroke="rgb(85, 198, 196)" stroke-opacity="0.465216" stroke-linecap="round" stroke-linejoin="round"/>
    <path d="M 122.95755768 411.16372681 C 125.26003265 411.23776245 127.27502441 411.68472290 128.77056885 411.90356445 C 129.40118408 412.61254883 129.51390076 413.31539917 128.76794434 413.59121704 C 127.15480804 414.05960083 125.37572479 414.88537598 123.68624878 415.85806274 C 122.83654785 417.61721802 122.44054413 419.65768433 122.21540070 421.26647949 C 121.48611450 422.06170654 120.76137543 422.02532959 120.31749725 421.03195190 C 119.68582153 419.34906006 119.64847565 417.45419312 119.28508759 415.74423218 C 117.38880920 414.75765991 115.01795197 414.32778931 113.20622253 413.17596436 C 112.62183380 411.97378540 113.71524048 411.24447632 115.56307220 411.07183838 C 116.99275208 411.39773560 117.92446899 410.34103394 118.55320740 407.84713745 C 119.50577545 405.12213135 119.73964691 402.26766968 122.95755768 411.16372681" stroke-width="0.39365509" fill="rgb(245, 240, 242)" opacity="1.0" stroke="rgb(168, 168, 152)" stroke-opacity="0.8171334" stroke-linecap="round" stroke-linejoin="round"/>
    <path d="M 319.78784180 287.01574707 C 321.96322632 287.00109863 323.84701538 286.65631104 324.87384033 286.83184814 C 324.57147217 286.78234863 323.18963623 286.97241211 321.73007202 286.29736328 C 320.60882568 286.86343384 319.61495972 287.75192261 318.91174316 288.75134277 C 318.54525757 289.80252075 318.65481567 290.72711182 318.91348267 291.24893188 C 319.15502930 290.75183105 319.36764526 289.53756714 319.35256958 288.24453735 C 318.64035034 287.26699829 317.39978027 287.00424194 316.19107056 286.90646362 C 315.06604004 286.65869141 313.76333618 286.36175537 313.41052246 286.11026001 C 314.53347778 285.97070312 315.40063477 285.98742676 315.81683350 285.81338501 C 316.40814209 285.07394409 317.20526123 284.07556152 318.06808472 282.78588867 C 318.02886963 281.51315308 317.90762329 280.05438232 319.78784180 287.01574707" stroke-width="1.52020097" fill="rgb(246, 225, 66)" opacity="1.0" stroke="rgb(246, 230, 97)" stroke-opacity="0.9525789" stroke-linecap="round" stroke-linejoin="round"/>
    <path d="M 222.31715393 309.79708862 C 223.33749390 308.22299194 223.79949951 306.69082642 224.03976440 305.58764648 C 224.46591187 306.26852417 224.35220337 307.48843384 224.05885315 308.49383545 C 224.64888000 309.51351929 225.97070312 309.98413086 227.35083008 310.00625610 C 228.67190552 310.63336182 229.59468079 310.97003174 229.67639160 311.05917358 C 229.17790222 311.15960693 228.37838745 311.43569946 226.92304993 311.51647949 C 225.93423462 312.30755615 225.22189331 313.45999146 224.82855225 314.72668457 C 224.81173706 315.72824097 224.70512390 316.53921509 224.43315125 317.02294922 C 224.35900879 316.35812378 224.51742554 315.14459229 224.03755188 313.95703125 C 223.25569153 312.30630493 221.89852905 311.03881836 220.13836670 310.38580322 C 218.79078674 309.87167358 217.85122681 310.62878418 222.31715393 309.79708862" stroke-width="1.50443971" fill="rgb(252, 247, 246)" opacity="1.0" stroke="rgb(250, 251, 247)" stroke-opacity="0.9788471" stroke-linecap="round" stroke-linejoin="round"/>
    <path d="M 341.18380737 31.54650497 C 341.13406372 33.49810028 341.06634521 35.18456268 340.81314087 36.32860184 C 340.49453735 36.59978104 340.59109497 36.11106491 339.94363403 35.32571793 C 340.05264282 34.14466858 340.00180054 32.76662827 340.07156372 31.50778961 C 339.12136841 30.82500648 337.98480225 30.17816162 336.86999512 29.65302467 C 335.81616211 29.92845345 335.17501831 30.02328300 335.41567993 29.53443909 C 336.77206421 29.31002045 338.29489136 28.92620087 339.55947876 28.13144875 C 339.53115845 26.92615891 339.83874512 25.75438881 340.43630981 25.21553993 C 340.86236572 25.89922523 341.40142822 27.12537956 341.39044189 28.30572891 C 341.62255859 29.06736755 342.88308716 29.32372475 344.33343506 29.12931633 C 345.72653198 29.13262749 346.80804443 28.41585922 341.18380737 31.54650497" stroke-width="1.33488536" fill="rgb(255, 202, 29)" opacity="1.0" stroke="rgb(247, 209, 57)" stroke-opacity="0.9456839" stroke-linecap="round" stroke-linejoin="round"/>
    <path d="M 486.56024170 185.49084473 C 486.15695190 187.63526917 485.99804688 189.44113159 485.87390137 190.34265137 C 485.29244995 189.88345337 484.58996582 188.62210083 483.70861816 187.08032227 C 483.08978271 185.56138611 481.96438599 184.94369507 480.52008057 185.11987305 C 479.01907349 184.81042480 478.08773804 184.29237366 478.32962036 183.80712891 C 479.53851318 183.16210938 481.14617920 182.42555237 482.72494507 181.49928284 C 483.16003418 179.81692505 483.93981934 178.16812134 484.51892090 176.97941589 C 484.95492554 176.64147949 485.36233521 177.13952637 485.78338623 178.32334900 C 486.00872803 179.76403809 486.34921265 181.10643005 486.39688110 182.23040771 C 487.34237671 182.56991577 488.66119385 182.92658997 490.29281616 183.05076599 C 492.20455933 183.41175842 493.95025635 184.19624329 486.56024170 185.49084473" stroke-width="0.43231836" fill="rgb(250, 251, 241)" opacity="1.0" stroke="rgb(159, 156, 138)" stroke-opacity="0.81751275" stroke-linecap="round" stroke-linejoin="round"/>
    <path d="M 108.43508148 306.57754517 C 108.46250916 306.45733643 108.48488617 306.30093384 108.49032593 306.04714966 C 108.62660217 305.83499146 108.74960327 305.63998413 108.87844086 305.52923584 C 108.89041901 305.50411987 108.80105591 305.51214600 108.62265778 305.51928711 C 108.48692322 305.50158691 108.42407990 305.46502686 108.43376160 305.45645142 C 108.51477051 305.42626953 108.57514191 305.38809204 108.61964417 305.31158447 C 108.66249847 305.24459839 108.61528015 305.26821899 108.47553253 305.25375366 C 108.29360199 305.22299194 108.10523987 305.23431396 108.00236511 305.22454834 C 107.99398041 305.14736938 107.96549988 305.10092163 107.90226746 305.10250854 C 107.94598389 305.05160522 107.98223877 305.01373291 108.02918243 305.01876831 C 108.14464569 305.07843018 108.24394226 305.12503052 108.43508148 306.57754517" stroke-width="1.18584168" fill="rgb(0, 4, 0)" opacity="1.0" stroke="rgb(8, 8, 0)" stroke-opacity="0.45636535" stroke-linecap="round" stroke-linejoin="round"/>
    <path d="M 243.76786804 43.82449722 C 243.74273682 43.80857086 243.75059509 43.81547928 243.75956726 43.82067108 C 243.74739075 43.81702042 243.74040222 43.81464386 243.75682068 43.81155396 C 243.74113464 43.82045746 243.75241089 43.81607437 243.74169922 43.81415558 C 243.74998474 43.81622314 243.74623108 43.82139206 243.74720764 43.80603409 C 243.74900818 43.82448196 243.73960876 43.81665039 243.76274109 43.80328369 C 243.73919678 43.82817841 243.74717712 43.81393433 243.75288391 43.80833817 C 243.75216675 43.82546234 243.75460815 43.81447983 243.74960327 43.80916595 C 243.75836182 43.82798004 243.75988770 43.80938339 243.75250244 43.81893921 C 243.76296997 43.81977844 243.75746155 43.82027817 243.76545715 43.81002045 C 243.76101685 43.82931900 243.76634216 43.81110382 243.76786804 43.82449722" stroke-width="2.00000000" fill="rgb(0, 0, 255)" opacity="1.0" stroke="rgb(5, 7, 38)" stroke-opacity="0.9988044" stroke-linecap="round" stroke-linejoin="round"/>
    <path d="M 346.45913696 414.90682983 C 346.95022583 415.17639160 347.26513672 415.41189575 347.34265137 415.81607056 C 347.32269287 416.44110107 347.51303101 417.17660522 347.61624146 417.67443848 C 347.49572754 417.93264771 347.28317261 418.33908081 347.26373291 418.88003540 C 347.17382812 419.59197998 346.85455322 420.16003418 346.35629272 420.67279053 C 345.74996948 420.98071289 344.93869019 421.23806763 344.18951416 421.39907837 C 343.30142212 421.27975464 342.54190063 420.81372070 341.74722290 420.33605957 C 341.35467529 419.55282593 340.93191528 418.88027954 340.64227295 418.42565918 C 340.80453491 417.77529907 340.83380127 417.18637085 340.46246338 416.65237427 C 340.63735962 416.20788574 341.15972900 415.57717896 341.80300903 414.68508911 C 342.52255249 413.81515503 343.60971069 413.28723145 346.45913696 414.90682983" stroke-width="0.41134259" fill="rgb(251, 251, 249)" opacity="1.0" stroke="rgb(189, 187, 171)" stroke-opacity="0.8548952" stroke-linecap="round" stroke-linejoin="round"/>
    <path d="M 412.70785522 238.98576355 C 412.71722412 238.98965454 412.71273804 238.99624634 412.71585083 238.98204041 C 412.71261597 238.99276733 412.72189331 238.99432373 412.71810913 238.98144531 C 412.71261597 238.99084473 412.72424316 238.99623108 412.71322632 238.98123169 C 412.72451782 238.99407959 412.72030640 238.98814392 412.71151733 238.98883057 C 412.72702026 238.99476624 412.72079468 238.99041748 412.71612549 238.99125671 C 412.71957397 238.99203491 412.72314453 238.98806763 412.71646118 238.98616028 C 412.71978760 238.99348450 412.72244263 238.99143982 412.71578979 238.99157715 C 412.71923828 238.99240112 412.71899414 238.97966003 412.72079468 238.99536133 C 412.71368408 238.99848938 412.71572876 238.97357178 412.72360229 238.98655701 C 412.71389771 239.00051880 412.71881104 238.97813416 412.70785522 238.98576355" stroke-width="2.00000000" fill="rgb(0, 140, 178)" opacity="1.0" stroke="rgb(5, 7, 37)" stroke-opacity="0.9682648" stroke-linecap="round" stroke-linejoin="round"/>
    <path d="M 25.51602554 376.12060547 C 25.86840820 375.61312866 26.42006493 375.38055420 27.23989105 375.46755981 C 27.90077209 375.63906860 28.49916267 376.05645752 29.08638763 376.75488281 C 29.59820366 377.43109131 29.79341316 378.14212036 29.76926231 378.88409424 C 29.67013168 379.62484741 29.49757004 380.27069092 29.07764435 380.94396973 C 28.42128372 381.42187500 27.96999741 381.97726440 27.69361877 382.44601440 C 27.18312263 382.39895630 26.58723640 382.24105835 25.80462837 382.33688354 C 25.02743530 382.34793091 24.40091324 382.10046387 23.66652489 381.68707275 C 23.37121773 380.89245605 23.15946960 380.07119751 22.79152107 379.34161377 C 22.86832809 378.72293091 23.15651894 377.90029907 23.68307877 377.00881958 C 24.29536819 375.98944092 25.06279564 375.09832764 25.51602554 376.12060547" stroke-width="0.50865179" fill="rgb(251, 250, 247)" opacity="1.0" stroke="rgb(167, 166, 148)" stroke-opacity="0.77561015" stroke-linecap="round" stroke-linejoin="round"/>
    <path d="M 475.22442627 271.74844360 C 474.39190674 271.90597534 473.52520752 271.99984741 472.77963257 271.84918213 C 472.09817505 271.47744751 471.62347412 271.19909668 471.12036133 270.77026367 C 470.65835571 269.99822998 470.20657349 269.19284058 469.99502563 268.32659912 C 470.31765747 267.71740723 470.54440308 267.03793335 470.47607422 266.38009644 C 470.51760864 265.75680542 470.94543457 265.64114380 471.45639038 265.38793945 C 472.01611328 264.90328979 472.80364990 264.63632202 473.59613037 264.55618286 C 474.26022339 264.50256348 475.02899170 264.52404785 475.80294800 264.95986938 C 476.47259521 265.59057617 477.00579834 266.35681152 477.50180054 267.02569580 C 477.44894409 267.52413940 477.06460571 268.13024902 477.03094482 268.89401245 C 477.27319336 269.90298462 477.24502563 270.89190674 475.22442627 271.74844360" stroke-width="0.54082870" fill="rgb(249, 252, 250)" opacity="1.0" stroke="rgb(148, 146, 123)" stroke-opacity="0.7011659" stroke-linecap="round" stroke-linejoin="round"/>
    <path d="M 304.23458862 390.88229370 C 303.01458740 390.22976685 302.20339966 389.31524658 301.72756958 388.46087646 C 301.70382690 387.69424438 301.62908936 386.95251465 301.50610352 386.53515625 C 301.65542603 385.95724487 301.98239136 385.30068970 302.59912109 384.85559082 C 303.22323608 384.28503418 303.96777344 383.82836914 304.57739258 383.49005127 C 305.41104126 383.49478149 306.26971436 383.58148193 307.05847168 383.79653931 C 307.35662842 384.41027832 307.73007202 384.88543701 308.35888672 385.22729492 C 308.63555908 385.78219604 308.79797363 386.55712891 308.81567383 387.23461914 C 308.69207764 387.88580322 308.48199463 388.46896362 308.19052124 389.11358643 C 307.85919189 389.51831055 307.55374146 389.91586304 307.53649902 390.36181641 C 307.72164917 390.42922974 307.91043091 390.57315063 304.23458862 390.88229370" stroke-width="0.40544072" fill="rgb(247, 247, 243)" opacity="1.0" stroke="rgb(165, 162, 150)" stroke-opacity="0.7040842" stroke-linecap="round" stroke-linejoin="round"/>
    <path d="M 52.26932526 63.90204620 C 51.55529785 63.57606888 50.87683105 63.32847214 50.12575912 63.10467148 C 49.62121964 62.68360138 49.18222427 62.08462906 49.19570541 61.40451431 C 49.13451385 60.71430588 49.35468292 60.01651001 49.52304840 59.49414825 C 49.67315292 59.00975418 50.16284943 58.89698792 50.76065826 58.82588959 C 51.17770767 58.41708755 51.46878052 57.98620224 51.74935913 57.51763916 C 52.21760559 57.42593002 52.90749359 57.38536835 53.74763489 57.14044571 C 54.41207123 57.30636215 55.11090469 57.73573685 55.75678635 58.16930389 C 56.08119202 58.96865082 56.27463913 59.74634933 56.62438965 60.56421661 C 56.69663620 61.33055496 56.46271515 62.20009232 56.17599106 62.97417831 C 56.00462341 63.30906677 55.84892273 63.56229019 52.26932526 63.90204620" stroke-width="0.49637553" fill="rgb(244, 243, 240)" opacity="1.0" stroke="rgb(155, 154, 131)" stroke-opacity="0.6851459" stroke-linecap="round" stroke-linejoin="round"/>
    <path d="M 283.49261475 344.86102295 C 283.87869263 345.47549438 284.42123413 345.94958496 284.69982910 346.56005859 C 284.75799561 347.02853394 284.79885864 347.59011841 284.79586792 348.12411499 C 284.69384766 348.76513672 284.37652588 349.21264648 284.18405151 349.86291504 C 284.23724365 350.58789062 283.96984863 350.99276733 283.43853760 351.07937622 C 283.02908325 351.35458374 282.36694336 351.57064819 281.45248413 351.71047974 C 280.71725464 351.53552246 280.08700562 351.40658569 279.48703003 351.50894165 C 279.17193604 351.35394287 279.04388428 351.02966309 278.85354614 350.55688477 C 278.47381592 350.14987183 277.99945068 349.80700684 277.65969849 349.34896851 C 277.76119995 348.70074463 277.86087036 347.67074585 277.81912231 346.56747437 C 278.55175781 345.18038940 279.48889160 343.77404785 283.49261475 344.86102295" stroke-width="0.41817278" fill="rgb(248, 248, 243)" opacity="1.0" stroke="rgb(150, 145, 134)" stroke-opacity="0.71543485" stroke-linecap="round" stroke-linejoin="round"/>
    <path d="M 56.27111816 23.70634460 C 55.89182663 24.07612419 55.64982224 24.71490669 55.34273911 25.32598305 C 54.84523392 25.74786377 54.43033981 26.07937431 53.88158798 26.43329239 C 53.50892639 26.60032654 52.85969162 26.58979034 52.02222443 26.43354416 C 51.38322067 26.38055992 50.90686798 26.40711021 50.62675095 26.20496368 C 50.48132324 25.84463501 50.30202866 25.47357941 49.82819366 25.26872826 C 49.26249695 24.92228889 49.01347351 24.47409821 49.08672333 23.65083504 C 49.22048569 22.90129471 49.31692123 22.14653206 49.61565018 21.41542244 C 50.10062790 20.75239754 50.73488998 20.16456413 51.31938553 19.70734024 C 51.99838257 19.79618263 52.86063385 19.79000473 53.78296661 19.86373138 C 54.94547653 20.38154411 56.10561752 20.53798294 56.27111816 23.70634460" stroke-width="0.46066725" fill="rgb(250, 249, 249)" opacity="1.0" stroke="rgb(155, 153, 142)" stroke-opacity="0.720903" stroke-linecap="round" stroke-linejoin="round"/>
    <path d="M 75.79669189 127.93797302 C 76.47577667 127.89951324 77.41971588 128.11500549 78.12188721 128.22813416 C 78.70613098 128.63478088 79.32532501 129.18504333 79.77332306 129.68884277 C 79.77460480 130.11843872 79.81921387 130.78492737 79.99573517 131.55813599 C 79.47971344 131.89875793 79.15745544 132.41989136 79.37642670 133.23921204 C 79.10439301 133.66285706 78.31567383 134.11778259 77.71090698 134.59738159 C 77.17954254 134.90042114 76.60260773 135.04687500 75.83740997 134.83395386 C 75.18708038 134.73109436 74.32602692 134.61169434 73.89469910 134.23495483 C 73.49659729 133.50749207 72.95586395 132.84185791 72.54190063 132.46720886 C 72.69014740 131.70385742 72.84529114 131.08843994 72.85390472 130.63024902 C 72.85119629 129.96623230 72.55368805 129.30580139 75.79669189 127.93797302" stroke-width="0.38943195" fill="rgb(247, 246, 247)" opacity="1.0" stroke="rgb(145, 145, 132)" stroke-opacity="0.8016583" stroke-linecap="round" stroke-linejoin="round"/>
    <path d="M 482.35519409 429.18569946 C 482.35552979 429.87234497 482.52743530 430.87374878 482.59802246 431.64849854 C 482.53689575 432.27639771 482.32846069 432.99182129 482.22415161 433.79641724 C 481.89221191 434.20718384 481.59130859 434.66995239 480.93130493 434.74438477 C 480.15136719 434.79336548 479.51635742 434.85049438 478.88824463 434.81304932 C 478.24938965 434.46331787 477.65533447 434.19906616 476.82995605 433.94479370 C 476.48889160 433.28851318 476.04595947 432.32684326 475.89605713 431.65841675 C 475.82208252 431.10150146 476.06170654 430.48767090 476.46371460 429.84579468 C 476.93975830 429.25201416 477.48107910 428.67465210 478.09881592 428.33889771 C 478.76351929 428.16674805 479.41275024 428.22805786 479.87246704 428.43005371 C 480.32574463 428.13235474 480.41079712 427.73065186 482.35519409 429.18569946" stroke-width="0.52270985" fill="rgb(252, 251, 243)" opacity="1.0" stroke="rgb(175, 171, 155)" stroke-opacity="0.75001734" stroke-linecap="round" stroke-linejoin="round"/>
    <path d="M 281.73162842 103.99725342 C 282.46032715 103.94252777 282.94485474 103.81288147 283.25149536 103.50555420 C 283.63305664 103.16748810 283.77120972 103.10513306 284.02856445 103.23378754 C 284.71096802 103.37477112 285.66949463 103.39720154 286.24526978 103.64056396 C 286.58453369 104.48794556 286.98934937 105.28210449 287.34005737 105.65893555 C 287.45443726 106.16651917 287.44281006 106.55569458 287.28463745 107.00620270 C 287.07727051 107.60971069 286.72738647 108.28569794 286.28866577 108.74778748 C 285.99459839 109.34747314 285.56582642 109.55708313 285.07583618 109.65232086 C 284.42843628 109.66778564 283.75415039 109.95697784 283.07266235 110.14285278 C 282.39733887 110.10782623 281.62652588 109.64031219 280.94561768 108.78914642 C 280.56332397 107.44862366 279.94558716 105.97052002 281.73162842 103.99725342" stroke-width="0.53382701" fill="rgb(248, 247, 242)" opacity="1.0" stroke="rgb(164, 161, 145)" stroke-opacity="0.7194961" stroke-linecap="round" stroke-linejoin="round"/>
    <path d="M 331.27850342 134.01640320 C 331.84390259 133.92408752 332.71929932 134.20797729 333.69100952 134.55766296 C 334.44845581 134.66381836 334.90158081 134.95347595 335.34210205 135.39262390 C 335.42041016 135.88430786 335.49591064 136.36885071 335.63885498 136.97720337 C 335.39266968 137.69844055 335.52035522 138.27154541 335.55813599 138.84226990 C 334.95751953 139.26255798 334.55432129 139.73583984 334.06100464 139.94474792 C 333.64303589 140.22804260 333.13650513 140.43846130 332.61593628 140.32843018 C 332.05270386 140.38769531 331.41516113 140.42892456 330.83941650 140.22590637 C 330.58377075 140.05476379 330.09503174 139.65179443 329.78762817 139.06079102 C 329.26324463 138.79730225 329.16268921 137.88189697 329.18051147 137.05148315 C 329.27658081 136.11068726 329.49566650 135.18955994 331.27850342 134.01640320" stroke-width="0.40906155" fill="rgb(253, 252, 249)" opacity="1.0" stroke="rgb(185, 187, 170)" stroke-opacity="0.76771516" stroke-linecap="round" stroke-linejoin="round"/>
    <path d="M 451.96890259 360.56713867 C 451.33209229 360.54989624 450.94827271 361.03378296 450.80017090 361.46887207 C 450.37347412 361.08282471 449.10046387 361.19094849 448.20376587 361.20120239 C 448.01110840 360.46038818 447.40441895 359.96185303 446.66650391 359.62957764 C 446.35879517 359.10375977 446.18515015 358.32730103 446.15948486 357.81387329 C 446.28631592 357.26589966 446.56268311 356.90823364 446.77770996 356.65637207 C 446.91485596 356.38742065 446.90304565 356.17129517 446.78445435 355.90823364 C 447.14215088 355.58135986 447.60171509 355.11480713 447.87875366 354.83633423 C 448.42520142 355.00738525 448.99081421 354.75765991 449.62075806 354.19915771 C 449.66989136 354.20001221 450.03945923 354.76733398 451.31631470 354.80560303 C 452.49517822 355.77633667 453.54214478 356.39550781 451.96890259 360.56713867" stroke-width="0.45965752" fill="rgb(248, 248, 243)" opacity="1.0" stroke="rgb(172, 171, 152)" stroke-opacity="0.821409" stroke-linecap="round" stroke-linejoin="round"/>
    <path d="M 391.84393311 303.92303467 C 391.84408569 303.93106079 391.84689331 303.92462158 391.84042358 303.93359375 C 391.84509277 303.92468262 391.84667969 303.94287109 391.84512329 303.92260742 C 391.83853149 303.94094849 391.85244751 303.93151855 391.83926392 303.93426514 C 391.84558105 303.94342041 391.84335327 303.93383789 391.84854126 303.93753052 C 391.83926392 303.94012451 391.84338379 303.94155884 391.85095215 303.93960571 C 391.83419800 303.93380737 391.85311890 303.95367432 391.84176636 303.93017578 C 391.84100342 303.94158936 391.84945679 303.94711304 391.84396362 303.93914795 C 391.84484863 303.93518066 391.84414673 303.94085693 391.85012817 303.94540405 C 391.84259033 303.92529297 391.84658813 303.94958496 391.84591675 303.93444824 C 391.84545898 303.93392944 391.84747314 303.93444824 391.84393311 303.92303467" stroke-width="0.18196107" fill="rgb(51, 52, 127)" opacity="1.0" stroke="rgb(0, 0, 0)" stroke-opacity="1.0" stroke-linecap="round" stroke-linejoin="round"/>
    <path d="M 394.95819092 21.28171921 C 394.99911499 22.13698769 395.11862183 22.88052559 395.29742432 23.52857780 C 394.92211914 24.22535515 394.73641968 25.06819344 394.76708984 25.68446922 C 394.82931519 26.15572739 394.44284058 26.34936714 393.84210205 26.29651833 C 393.33758545 26.30767059 392.94229126 26.55712700 392.55224609 26.56538963 C 391.97387695 26.48419189 391.14825439 26.32844353 390.46231079 26.00445938 C 390.00460815 25.46491432 389.46820068 24.94716263 388.92810059 24.56264877 C 388.71517944 23.85323715 388.71408081 23.16475105 388.63085938 22.38750076 C 388.70059204 21.53550339 389.19454956 21.07151031 389.67611694 20.54522133 C 389.92276001 20.09943008 390.26803589 20.05458069 390.88995361 19.89481163 C 391.58380127 19.45768166 392.42434692 19.20282555 394.95819092 21.28171921" stroke-width="0.45164558" fill="rgb(244, 241, 239)" opacity="1.0" stroke="rgb(176, 172, 159)" stroke-opacity="0.73208714" stroke-linecap="round" stroke-linejoin="round"/>
    <path d="M 106.03494263 310.12948608 C 105.07405090 310.42584229 104.02124023 310.71682739 103.45004272 310.52130127 C 103.11077118 309.84518433 102.41467285 309.36096191 101.64073944 309.18649292 C 101.22438812 308.79547119 100.96393585 308.05880737 100.75431824 307.22479248 C 100.92050171 306.12432861 101.07377625 305.33703613 101.15121460 304.70364380 C 101.04389954 304.32327271 101.45510101 304.17440796 102.34206390 304.35205078 C 102.87871552 304.06460571 103.40785980 303.48937988 104.34487915 303.05819702 C 105.41910553 303.51449585 106.29147339 303.84213257 106.99633789 304.27319336 C 107.25511169 305.12020874 107.62213898 305.95266724 107.86556244 306.34719849 C 107.63094330 307.02957153 107.40355682 307.46087646 107.37072754 307.96710205 C 107.64703369 308.25894165 108.07732391 308.95700073 106.03494263 310.12948608" stroke-width="0.25627851" fill="rgb(246, 243, 240)" opacity="1.0" stroke="rgb(158, 157, 139)" stroke-opacity="0.72567374" stroke-linecap="round" stroke-linejoin="round"/>
    <path d="M 146.36518860 101.99712372 C 147.02369690 101.61574554 147.37724304 101.08849335 147.47521973 100.43099976 C 147.87734985 100.29090881 148.25155640 100.03392029 148.68560791 99.84252167 C 149.20375061 100.02289581 149.85285950 99.92963409 150.34358215 99.87287140 C 150.79008484 100.28245544 151.24850464 100.77272797 151.97706604 101.02935028 C 152.33235168 101.43287659 152.50578308 102.08682251 152.70075989 102.84516144 C 152.83868408 103.85945892 152.73544312 104.67856598 152.37367249 105.30899811 C 151.76705933 105.63057709 151.60865784 106.00914764 151.57855225 106.34648132 C 151.14613342 106.24746704 150.34631348 106.09130859 149.65679932 106.54570007 C 149.07215881 106.84331512 148.53222656 106.59687805 147.88284302 106.05239868 C 147.00776672 105.80890656 146.07629395 105.26114655 146.36518860 101.99712372" stroke-width="0.37308541" fill="rgb(245, 245, 246)" opacity="1.0" stroke="rgb(162, 159, 140)" stroke-opacity="0.7171569" stroke-linecap="round" stroke-linejoin="round"/>
    <path d="M 261.67895508 55.78839874 C 262.11154175 55.22327042 262.42126465 54.68537903 262.61215210 54.18365097 C 262.98641968 53.81843948 263.53649902 53.61154938 264.17044067 53.50516891 C 264.80477905 53.31751633 265.31094360 53.19950485 265.63070679 53.40489960 C 266.09930420 53.63015366 266.51660156 53.64672852 267.05664062 53.80907059 C 267.41213989 54.03489685 267.67742920 54.43957520 267.90243530 54.96880341 C 268.13781738 55.50521469 268.15411377 56.19133759 268.02908325 56.89738846 C 267.90832520 57.69612122 267.47180176 58.22539139 267.38909912 58.64703369 C 266.96878052 59.14760971 266.55215454 59.61459732 266.06585693 59.70346832 C 265.46243286 59.80099869 264.83648682 59.68037033 264.07443237 59.42313385 C 262.94406128 59.06990814 261.75119019 58.58046341 261.67895508 55.78839874" stroke-width="0.55704606" fill="rgb(249, 249, 251)" opacity="1.0" stroke="rgb(192, 191, 175)" stroke-opacity="0.80464685" stroke-linecap="round" stroke-linejoin="round"/>
    <path d="M 160.68574524 29.29288864 C 159.89808655 28.69492149 159.15402222 28.20791245 158.58702087 27.71189499 C 158.35382080 27.01692581 158.22737122 26.20301247 158.25765991 25.58614349 C 158.11734009 25.23673820 158.38401794 24.90598488 158.71623230 24.53751564 C 159.07087708 24.20285416 159.58728027 23.90904427 160.04095459 23.53863907 C 160.38197327 23.17225075 160.85780334 22.80749512 161.61439514 22.93322182 C 162.40481567 23.28780746 163.12167358 23.47402954 163.79753113 23.45918465 C 164.23030090 23.65594482 164.17958069 24.10017014 164.16236877 24.54681206 C 164.47570801 24.97568321 164.82385254 25.34812546 164.92669678 25.97227478 C 164.96969604 26.57830238 164.91857910 27.10685730 164.55668640 27.85656738 C 164.02125549 28.43504715 163.69877625 29.14017868 160.68574524 29.29288864" stroke-width="0.45404199" fill="rgb(247, 247, 243)" opacity="1.0" stroke="rgb(151, 149, 119)" stroke-opacity="0.63114446" stroke-linecap="round" stroke-linejoin="round"/>
    <path d="M 397.89770508 384.65826416 C 398.31369019 384.27575684 399.01858521 384.02307129 399.84085083 383.79595947 C 400.77618408 383.73471069 401.45401001 383.83602905 401.81015015 384.02661133 C 402.02908325 384.28900146 401.97784424 384.77944946 402.48471069 384.75671387 C 403.10708618 384.92932129 403.34280396 385.40438843 403.27362061 385.90054321 C 403.49508667 386.39971924 403.39703369 386.74533081 403.46060181 387.19451904 C 403.65295410 388.00448608 403.39361572 388.80383301 402.89523315 389.17391968 C 402.37860107 389.71435547 402.04559326 389.96957397 401.61990356 389.86154175 C 401.10342407 389.90118408 400.30212402 389.82855225 399.54263306 389.63302612 C 398.78213501 389.25454712 398.11346436 388.90924072 397.61471558 388.30868530 C 397.07977295 387.66073608 396.54760742 386.95877075 397.89770508 384.65826416" stroke-width="0.55254757" fill="rgb(249, 247, 243)" opacity="1.0" stroke="rgb(171, 170, 152)" stroke-opacity="0.739186" stroke-linecap="round" stroke-linejoin="round"/>
    <path d="M 50.97626114 341.45248413 C 51.17501450 342.07412720 51.18602753 342.82098389 51.19257355 343.42651367 C 51.19802094 343.94100952 50.94992065 344.34698486 50.50876236 344.76803589 C 50.31553268 345.22604370 50.06202316 345.55160522 49.53401184 345.85751343 C 48.95380783 345.62292480 48.26690674 345.76385498 47.55984879 345.85858154 C 46.84448624 345.47482300 46.08811188 345.10556030 45.49615097 344.65621948 C 45.05386353 343.73950195 44.80038071 342.92126465 44.81240845 342.40374756 C 45.02242279 341.83920288 44.91455841 341.39248657 45.08266449 341.10592651 C 45.64582443 341.16683960 45.98904800 340.79119873 46.06277084 340.30966187 C 46.44018936 340.01828003 47.05292892 339.89431763 47.87598801 339.70410156 C 48.54394531 339.57794189 49.13575363 339.01596069 50.97626114 341.45248413" stroke-width="0.51343745" fill="rgb(250, 249, 249)" opacity="1.0" stroke="rgb(172, 163, 149)" stroke-opacity="0.8401439" stroke-linecap="round" stroke-linejoin="round"/>
    <path d="M 436.06042480 319.50143433 C 435.53796387 318.75228882 435.24819946 318.00082397 435.45394897 317.37207031 C 435.57791138 316.52404785 435.55191040 315.51055908 435.96832275 315.07318115 C 436.84356689 314.66455078 437.65191650 314.25833130 438.25357056 313.97805786 C 438.77847290 314.13381958 439.32397461 314.44628906 439.90603638 314.48886108 C 440.36547852 314.92395020 440.68292236 315.22857666 440.89260864 315.74694824 C 441.18038940 315.91616821 441.37948608 316.19750977 441.43307495 316.44763184 C 441.38223267 316.77926636 441.33193970 317.17053223 441.42913818 317.36569214 C 441.56146240 317.67227173 441.38235474 318.12753296 441.34399414 318.42468262 C 440.89968872 318.84448242 440.51092529 319.29080200 439.90295410 319.69088745 C 439.15548706 320.19787598 438.49185181 320.58764648 436.06042480 319.50143433" stroke-width="0.53702426" fill="rgb(250, 250, 246)" opacity="1.0" stroke="rgb(161, 155, 137)" stroke-opacity="0.7454943" stroke-linecap="round" stroke-linejoin="round"/>
    <path d="M 431.98327637 252.35755920 C 431.65264893 252.86486816 431.55508423 253.35755920 431.52191162 253.84614563 C 430.76721191 254.02485657 430.20971680 254.33563232 429.54598999 254.56507874 C 428.96316528 254.73139954 428.41625977 254.58219910 427.91439819 254.22369385 C 427.34738159 254.23291016 426.80538940 254.19683838 426.67037964 253.78002930 C 426.40679932 253.37033081 426.04199219 252.84062195 425.88961792 252.12658691 C 425.86029053 251.47425842 425.95260620 250.92501831 426.13415527 250.42494202 C 426.45074463 250.03965759 426.92236328 249.65766907 427.32675171 249.23979187 C 427.80194092 248.99017334 428.27880859 248.89143372 428.67874146 248.81893921 C 429.08465576 248.96133423 429.67620850 249.13038635 430.23184204 249.05787659 C 430.91708374 248.98638916 431.44241333 248.92016602 431.98327637 252.35755920" stroke-width="0.49835634" fill="rgb(242, 241, 234)" opacity="1.0" stroke="rgb(155, 154, 131)" stroke-opacity="0.66777396" stroke-linecap="round" stroke-linejoin="round"/>
    <path d="M 168.81034851 415.71414185 C 169.20318604 415.98370361 169.53457642 416.24597168 169.80084229 416.64657593 C 169.75030518 417.18222046 169.67024231 417.46929932 169.69049072 417.92108154 C 169.69999695 418.51724243 169.61241150 419.00042725 169.29020691 419.13442993 C 169.34794617 419.30313110 169.10275269 419.35397339 168.56951904 419.37857056 C 167.86480713 419.15957642 167.17555237 418.99450684 166.43576050 418.89486694 C 166.26573181 418.76293945 166.18556213 418.63842773 166.17768860 418.72250366 C 166.23098755 418.45965576 166.31298828 418.30862427 166.31742859 418.30746460 C 166.07441711 418.19589233 165.54859924 418.09783936 165.50683594 417.86492920 C 165.98846436 417.34613037 166.27261353 416.82046509 166.36698914 416.40289307 C 166.34933472 416.03305054 166.24369812 415.29598999 168.81034851 415.71414185" stroke-width="0.39046049" fill="rgb(246, 247, 249)" opacity="1.0" stroke="rgb(157, 155, 135)" stroke-opacity="0.74255925" stroke-linecap="round" stroke-linejoin="round"/>
    <path d="M 446.35034180 175.84678650 C 446.17895508 176.36051941 446.39477539 176.94729614 446.67599487 177.43455505 C 446.55618286 178.04225159 446.35433960 178.55613708 446.14819336 179.20376587 C 445.35852051 179.43334961 444.66564941 179.80737305 443.91659546 180.09262085 C 443.28353882 180.16256714 442.77630615 179.97445679 442.24389648 179.56925964 C 441.50210571 179.43070984 440.94512939 179.10911560 440.63095093 178.87068176 C 440.53543091 178.40086365 440.42459106 177.81857300 440.55505371 176.96981812 C 440.87207031 176.28504944 440.79537964 176.00227356 440.75817871 175.66525269 C 440.92318726 175.44020081 441.23126221 174.96345520 441.69528198 174.66195679 C 442.06274414 174.44056702 442.76998901 174.31205750 443.39523315 174.20669556 C 444.15310669 174.24259949 444.96347046 174.04443359 446.35034180 175.84678650" stroke-width="0.44629556" fill="rgb(252, 237, 238)" opacity="1.0" stroke="rgb(157, 157, 144)" stroke-opacity="0.71541756" stroke-linecap="round" stroke-linejoin="round"/>
    <path d="M 124.95427704 73.02423859 C 124.68558502 72.33467865 124.32514191 72.10902405 123.82848358 72.33747101 C 123.60092163 72.30996704 123.52000427 71.91671753 123.38105774 71.17774963 C 123.49362183 70.35836792 123.77133942 69.50013733 123.73873901 68.62131500 C 123.94109344 68.22052765 124.59107208 68.11316681 125.36423492 67.73645020 C 125.94412994 67.66799927 126.59690857 67.85807800 127.27476501 67.57830811 C 127.49989319 67.25781250 127.89810944 67.77989197 128.86347961 68.19071198 C 129.36801147 68.82933044 129.71647644 69.40879822 129.61553955 69.99659729 C 129.37095642 70.86959839 129.18486023 71.79467010 129.15550232 72.45800781 C 128.79185486 72.78251648 128.28018188 72.90580750 127.98313904 73.04766083 C 127.98470306 73.23949432 128.18432617 73.43565369 124.95427704 73.02423859" stroke-width="0.37677702" fill="rgb(248, 247, 243)" opacity="1.0" stroke="rgb(156, 153, 141)" stroke-opacity="0.76416576" stroke-linecap="round" stroke-linejoin="round"/>
    <path d="M 250.46098328 406.87625122 C 250.02009583 407.32263184 250.09790039 407.87100220 250.25488281 408.13681030 C 249.73318481 408.27178955 249.39050293 408.44381714 249.10981750 409.04067993 C 248.40420532 409.20156860 247.47340393 409.17996216 246.73901367 409.19149780 C 246.00448608 408.85922241 245.39193726 408.39089966 245.07843018 407.74044800 C 244.68218994 407.42803955 244.69747925 407.02249146 244.76763916 406.49874878 C 244.83607483 406.03948975 244.88481140 405.34561157 244.81567383 404.85595703 C 245.02549744 404.64050293 245.43296814 404.39749146 245.96670532 403.86947632 C 246.48358154 403.37271118 247.37588501 403.25125122 248.20326233 403.27206421 C 248.47279358 403.49496460 248.90174866 403.80184937 249.31405640 403.87777710 C 249.79324341 403.98510742 250.29136658 404.09402466 250.46098328 406.87625122" stroke-width="0.41532308" fill="rgb(248, 252, 248)" opacity="1.0" stroke="rgb(164, 157, 145)" stroke-opacity="0.80234647" stroke-linecap="round" stroke-linejoin="round"/>
    <path d="M 395.08795166 304.43942261 C 394.48443604 304.99285889 393.94454956 305.40414429 393.27191162 305.70910645 C 392.61181641 305.78515625 391.98052979 305.40200806 391.35543823 305.12203979 C 390.65850830 305.22033691 390.17642212 304.84042358 389.96530151 304.20816040 C 389.83908081 303.57443237 389.81781006 302.83712769 389.99575806 302.10964966 C 390.30285645 301.46206665 390.86318970 300.92926025 391.57012939 300.61770630 C 392.38125610 300.41781616 393.17056274 300.30035400 393.86206055 300.46115112 C 394.53994751 300.89608765 394.80038452 301.39865112 394.89636230 301.81396484 C 395.05633545 302.24157715 395.29013062 302.38949585 395.35214233 302.40014648 C 395.33993530 302.51858521 395.38430786 302.58383179 395.37222290 302.82345581 C 395.18948364 303.00756836 394.87210083 303.20455933 395.08795166 304.43942261" stroke-width="0.58828938" fill="rgb(253, 254, 250)" opacity="1.0" stroke="rgb(171, 166, 158)" stroke-opacity="0.84689605" stroke-linecap="round" stroke-linejoin="round"/>
    <path d="M 433.05191040 441.14691162 C 432.18942261 441.12078857 431.57620239 440.83270264 431.01434326 440.64016724 C 430.59970093 440.85418701 430.44668579 440.61163330 430.15817261 440.31967163 C 429.96154785 440.00430298 429.78671265 439.88388062 429.90890503 439.53753662 C 429.71789551 438.94140625 429.38812256 438.45791626 429.31399536 438.06100464 C 429.55264282 437.49423218 429.83605957 436.87612915 430.11309814 436.35882568 C 430.41427612 436.21069336 430.53768921 436.11483765 430.86416626 436.22778320 C 431.38684082 436.30447388 431.83703613 436.26605225 432.42630005 436.09948730 C 433.12069702 436.36325073 433.67022705 436.46649170 434.16186523 436.45974731 C 434.31442261 436.93673706 434.34484863 437.40344238 434.58291626 438.14263916 C 434.81094360 438.84552002 435.13790894 439.52297974 433.05191040 441.14691162" stroke-width="0.43733221" fill="rgb(249, 248, 244)" opacity="1.0" stroke="rgb(156, 149, 142)" stroke-opacity="0.7375735" stroke-linecap="round" stroke-linejoin="round"/>
    <path d="M 29.73555946 117.21997070 C 29.10280800 116.91574860 28.57279587 116.60360718 28.23581505 116.15000916 C 27.84360695 115.63734436 27.63015938 114.97496033 27.57622337 114.41739655 C 27.52376938 113.99437714 27.68571281 113.44130707 27.82659912 113.02126312 C 28.17656136 112.76036072 28.56536865 112.58853912 28.93049049 112.38549805 C 29.07741547 112.02702332 29.34790802 111.90185547 29.86412811 112.05983734 C 30.34282875 112.22972107 30.94917488 112.30651855 31.57275200 112.38422394 C 31.80319977 112.68618011 31.97733307 113.02524567 32.36781693 113.23772430 C 32.48497772 113.25539398 32.60416412 113.47102356 32.64806747 113.53453827 C 32.54594421 113.81468964 32.64073181 114.25023651 32.60108185 115.08840179 C 32.70399857 116.04486084 32.97600937 117.45335388 29.73555946 117.21997070" stroke-width="0.41609713" fill="rgb(250, 250, 250)" opacity="1.0" stroke="rgb(147, 143, 113)" stroke-opacity="0.55199885" stroke-linecap="round" stroke-linejoin="round"/>
    <path d="M 174.46261597 332.66064453 C 174.40773010 333.54611206 174.46240234 334.31564331 174.43582153 334.94793701 C 174.24737549 335.48962402 173.92626953 335.73144531 173.35369873 335.81188965 C 172.65840149 335.72329712 172.31280518 335.85430908 172.37841797 336.22756958 C 172.19660950 336.28515625 171.83625793 336.13760376 171.24133301 335.92959595 C 170.82530212 335.60678101 170.25842285 335.35729980 169.93347168 335.19082642 C 169.65084839 334.70434570 169.52398682 334.10803223 169.37403870 333.67208862 C 169.30628967 333.21441650 169.60458374 332.62301636 169.57580566 332.30334473 C 169.56869507 332.20932007 169.79028320 332.02850342 169.80957031 331.82672119 C 170.11651611 331.65353394 170.54107666 331.41207886 171.22393799 331.38348389 C 172.08345032 331.15924072 172.92640686 330.80068970 174.46261597 332.66064453" stroke-width="0.51930714" fill="rgb(250, 249, 248)" opacity="1.0" stroke="rgb(153, 147, 125)" stroke-opacity="0.56871015" stroke-linecap="round" stroke-linejoin="round"/>
    <path d="M 269.67990112 294.62768555 C 269.26330566 294.75845337 268.70498657 294.95126343 268.23199463 295.02850342 C 267.93792725 295.06250000 267.54360962 295.16043091 267.28701782 295.28634644 C 267.28268433 295.30661011 267.28863525 295.19015503 267.47009277 294.78808594 C 267.45339966 294.46060181 267.30398560 294.42666626 267.03463745 294.36904907 C 266.72171021 294.33319092 266.15438843 294.49179077 265.88851929 294.30700684 C 266.21658325 293.75152588 265.74356079 293.01248169 265.29791260 292.49273682 C 265.58282471 291.63076782 266.04953003 291.02868652 266.56857300 290.50463867 C 267.29293823 290.36489868 268.01260376 290.28820801 268.46090698 290.12661743 C 268.78277588 290.32107544 269.21652222 290.60220337 269.60763550 291.12988281 C 270.17391968 291.49221802 270.93099976 292.16931152 269.67990112 294.62768555" stroke-width="0.41792047" fill="rgb(245, 245, 242)" opacity="1.0" stroke="rgb(149, 143, 109)" stroke-opacity="0.581466" stroke-linecap="round" stroke-linejoin="round"/>
    <path d="M 364.57504272 78.24713135 C 364.26614380 77.73985291 364.11032104 77.57406616 364.10980225 77.79891205 C 364.32135010 78.28707886 364.48886108 78.92144775 364.35125732 79.93168640 C 364.19174194 81.00732422 362.71746826 81.44264984 361.47994995 81.59891510 C 360.81335449 81.57109070 360.47973633 81.21401215 359.84262085 80.69502258 C 359.39990234 80.11282349 359.12387085 79.40354156 359.06997681 78.87448883 C 359.04867554 78.16261292 359.07998657 77.59488678 359.45513916 77.22088623 C 360.15277100 76.93943787 360.41894531 76.55750275 360.66818237 76.51257324 C 361.01263428 76.11964417 361.64068604 75.88661194 361.89434814 75.86841583 C 362.21585083 75.88570404 362.47314453 75.99454498 362.94677734 76.43924713 C 363.45089722 76.83757019 363.95892334 77.06285095 364.57504272 78.24713135" stroke-width="0.36110172" fill="rgb(250, 247, 245)" opacity="1.0" stroke="rgb(181, 178, 161)" stroke-opacity="0.75686616" stroke-linecap="round" stroke-linejoin="round"/>
    <path d="M 69.70372772 426.86755371 C 70.24848175 426.79971313 70.71899414 426.66732788 71.12841034 426.53295898 C 71.43551636 426.43215942 71.50959015 426.55114746 71.60108948 426.61877441 C 72.04553223 426.47592163 72.55971527 426.58303833 72.94300842 426.62954712 C 73.17252350 427.07739258 73.47308350 427.40875244 73.71677399 427.66708374 C 73.94749451 427.78759766 74.28220367 428.15133667 74.31981659 428.40087891 C 74.28273010 428.73147583 74.23209381 429.16040039 74.36637115 429.88275146 C 74.35010529 430.47717285 73.70855713 430.65170288 73.26194763 431.05422974 C 72.42214203 431.47293091 71.67316437 431.61679077 70.71029663 431.44003296 C 70.23798370 431.07843018 69.95006561 430.65957642 69.60424042 430.26629639 C 69.22223663 429.96905518 68.61650085 429.84197998 69.70372772 426.86755371" stroke-width="0.39579692" fill="rgb(252, 255, 251)" opacity="1.0" stroke="rgb(158, 147, 124)" stroke-opacity="0.6760713" stroke-linecap="round" stroke-linejoin="round"/>
    <path d="M 361.08493042 330.97177124 C 360.84066772 331.81884766 360.55282593 332.35665894 359.89312744 332.61096191 C 359.23947144 332.99349976 358.98843384 333.45748901 358.49273682 333.52160645 C 357.63702393 332.94873047 356.79794312 332.44155884 356.25048828 331.55026245 C 355.84936523 330.65933228 355.87692261 329.92077637 356.25433350 329.54089355 C 356.64855957 329.19546509 356.93273926 328.97967529 357.33807373 329.16833496 C 357.22879028 329.46441650 356.70257568 329.31451416 356.58230591 328.93771362 C 356.49356079 328.88671875 356.70367432 328.79125977 357.30252075 328.65777588 C 357.82144165 328.22375488 358.29742432 327.68783569 358.37200928 327.65798950 C 358.83187866 328.14840698 359.17236328 328.16186523 359.56027222 328.05374146 C 360.11309814 327.96737671 360.13134766 328.13146973 361.08493042 330.97177124" stroke-width="0.44549200" fill="rgb(244, 243, 240)" opacity="1.0" stroke="rgb(174, 161, 116)" stroke-opacity="0.66899014" stroke-linecap="round" stroke-linejoin="round"/>
    <path d="M 54.32651901 261.18795776 C 54.49195862 260.92047119 54.67229462 260.64743042 54.92148209 260.20101929 C 54.55605316 260.26281738 54.55041504 260.47946167 54.92456818 260.58609009 C 54.96684265 260.32220459 54.92517471 259.86581421 55.14416504 259.47662354 C 55.41371155 259.51580811 56.39208603 259.54116821 57.35718536 259.66601562 C 57.90989304 259.82147217 58.00378418 260.54571533 58.14933777 261.35662842 C 58.30095673 261.77014160 58.40511322 262.13589478 58.12442398 262.32626343 C 57.63486099 262.60595703 57.30381393 262.91665649 57.00218201 263.42852783 C 56.57339478 263.54507446 56.18054962 263.44561768 56.17618561 263.34368896 C 55.99787521 263.04565430 56.01972580 262.91375732 55.77359390 262.98666382 C 55.32876205 263.19726562 54.81622696 263.18051147 54.32651901 261.18795776" stroke-width="0.26759678" fill="rgb(254, 254, 255)" opacity="1.0" stroke="rgb(172, 171, 155)" stroke-opacity="0.764218" stroke-linecap="round" stroke-linejoin="round"/>
    <path d="M 386.91946411 261.95159912 C 387.15948486 261.40118408 387.46987915 260.76797485 387.84497070 260.41156006 C 388.57644653 260.32473755 389.28762817 260.51489258 389.83282471 260.57916260 C 389.60223389 260.29943848 389.25527954 260.05264282 388.87911987 259.85577393 C 389.07443237 259.94573975 389.60223389 260.02813721 389.91888428 260.33227539 C 390.14697266 260.57199097 390.58767700 260.80920410 390.68194580 261.30917358 C 390.84234619 261.82409668 391.13244629 262.28598022 391.04882812 262.58255005 C 390.80456543 262.91784668 390.72619629 263.26452637 390.73867798 263.57510376 C 390.79776001 263.83163452 390.72933960 263.95471191 390.43002319 264.01095581 C 390.22442627 264.00616455 389.70550537 264.03543091 389.07492065 264.26235962 C 388.43756104 264.66531372 387.97750854 265.07012939 386.91946411 261.95159912" stroke-width="0.43675655" fill="rgb(235, 235, 235)" opacity="1.0" stroke="rgb(159, 156, 132)" stroke-opacity="0.7184827" stroke-linecap="round" stroke-linejoin="round"/>
    <path d="M 306.78561401 438.94406128 C 307.22949219 438.32125854 307.59399414 437.68713379 307.90713501 437.47872925 C 307.92559814 436.90524292 307.84402466 436.69531250 308.06173706 436.67684937 C 308.49533081 436.61831665 308.93685913 436.69549561 309.38385010 436.78491211 C 309.86688232 436.82513428 310.26101685 436.86840820 310.44363403 437.09698486 C 310.61669922 437.76605225 310.73965454 438.35052490 311.09414673 438.45693970 C 311.31463623 438.48464966 311.18984985 438.67736816 311.14877319 439.03405762 C 311.12945557 439.14126587 311.13696289 439.32473755 311.16732788 439.55807495 C 311.10525513 439.70373535 310.87637329 439.97415161 310.53421021 440.12438965 C 310.17926025 440.10836792 310.00772095 440.15414429 309.39559937 440.31726074 C 308.58670044 440.69171143 307.92529297 441.06985474 306.78561401 438.94406128" stroke-width="0.42607215" fill="rgb(249, 251, 252)" opacity="1.0" stroke="rgb(139, 136, 93)" stroke-opacity="0.5038437" stroke-linecap="round" stroke-linejoin="round"/>
    <path d="M 129.33172607 382.42819214 C 129.19183350 382.21453857 128.71276855 382.18032837 128.37094116 382.17019653 C 128.26986694 382.33377075 128.29501343 382.54400635 128.33053589 382.73129272 C 128.45669556 382.87905884 128.58285522 382.74139404 128.60284424 382.51095581 C 128.58364868 382.40301514 128.42588806 382.41976929 128.27149963 382.92669678 C 127.71909332 383.06280518 127.28342438 383.20397949 126.81220245 383.30154419 C 126.36619568 382.92001343 125.80152130 382.35574341 125.14022064 381.77694702 C 124.91184235 381.06420898 124.81949615 380.24258423 124.87056732 379.79269409 C 125.39567566 379.48745728 125.92984772 379.08532715 126.43370056 378.76586914 C 126.95781708 378.56503296 127.45327759 378.58804321 128.11968994 378.82083130 C 128.89363098 379.14077759 129.74900818 378.99996948 129.33172607 382.42819214" stroke-width="0.25767615" fill="rgb(251, 249, 241)" opacity="1.0" stroke="rgb(171, 167, 140)" stroke-opacity="0.71114033" stroke-linecap="round" stroke-linejoin="round"/>
    <path d="M 500.28024292 359.26000977 C 499.38122559 359.24252319 498.82006836 359.26660156 498.51373291 359.33328247 C 498.03112793 359.13018799 497.51165771 358.78048706 497.28005981 358.35656738 C 497.16952515 357.78713989 496.86871338 357.55072021 496.72702026 357.56829834 C 496.74133301 357.32669067 496.76278687 357.01501465 496.91937256 356.59146118 C 497.22900391 356.23727417 497.45059204 355.77130127 497.70843506 355.36636353 C 497.97460938 355.00717163 498.31475830 354.85018921 498.72991943 354.74536133 C 499.32537842 354.79409790 499.93905640 354.96044922 500.45974731 354.96124268 C 500.87164307 355.35379028 501.24172974 355.79757690 501.43176270 356.37225342 C 501.45080566 356.82717896 501.38568115 357.12713623 501.33639526 357.60003662 C 501.48303223 357.95468140 501.66735840 358.15988159 500.28024292 359.26000977" stroke-width="0.40814552" fill="rgb(254, 255, 252)" opacity="1.0" stroke="rgb(141, 134, 102)" stroke-opacity="0.57571125" stroke-linecap="round" stroke-linejoin="round"/>
    <path d="M 77.37264252 324.28152466 C 78.05139160 324.49069214 78.85709381 324.62786865 79.29367065 324.78356934 C 79.55912781 325.04455566 79.59527588 325.19833374 79.62473297 325.56015015 C 79.49973297 326.12213135 79.44452667 326.60995483 79.38921356 327.00363159 C 79.23072052 327.22341919 78.93225861 327.35650635 78.72242737 327.48858643 C 78.64406586 327.64993286 78.59735870 327.92843628 78.37795258 328.18722534 C 77.97152710 327.99032593 77.55221558 327.85095215 77.22307587 327.83349609 C 76.89976501 327.91979980 76.56171417 327.92672729 76.41268158 327.81765747 C 76.37177277 327.55538940 76.34880066 327.13479614 75.85532379 326.80331421 C 75.68392944 326.41748047 75.92104340 326.19299316 76.03914642 326.21398926 C 76.02334595 326.41418457 75.36589813 326.68511963 77.37264252 324.28152466" stroke-width="0.36432520" fill="rgb(255, 255, 255)" opacity="1.0" stroke="rgb(190, 187, 165)" stroke-opacity="0.74085724" stroke-linecap="round" stroke-linejoin="round"/>
    <path d="M 427.90496826 22.55403709 C 428.36584473 22.61910820 428.49362183 22.28737640 428.84463501 21.88658714 C 429.13070679 21.95731735 429.78848267 22.05177498 430.50924683 22.02637100 C 430.97369385 22.34827232 431.42388916 22.78225899 431.52947998 23.30132103 C 431.46176147 23.88743019 431.67025757 24.24300003 431.94671631 24.41270828 C 432.02203369 24.75562477 431.83206177 25.12947083 431.52191162 25.55816841 C 431.20693970 25.87957764 431.10046387 26.18914032 430.74502563 26.37610626 C 430.42776489 26.49335098 429.88229370 26.42943192 429.49813843 26.37427521 C 429.23150635 26.51634026 428.79833984 26.44185448 428.37033081 26.51717186 C 428.05633545 26.31266403 427.89208984 26.11566544 427.76669312 25.87802315 C 427.39028931 25.58988571 426.69616699 25.40792084 427.90496826 22.55403709" stroke-width="0.48686045" fill="rgb(250, 251, 248)" opacity="1.0" stroke="rgb(175, 170, 157)" stroke-opacity="0.74654955" stroke-linecap="round" stroke-linejoin="round"/>
    <path d="M 134.77197266 278.76382446 C 135.06745911 277.91351318 135.49423218 277.37457275 136.20158386 277.11328125 C 136.87313843 277.29275513 137.47964478 277.79779053 138.14820862 278.01931763 C 138.35719299 278.61495972 138.42864990 278.89620972 138.49517822 279.19781494 C 138.52514648 279.51446533 138.76623535 279.50830078 138.96784973 279.42791748 C 138.63189697 279.38485718 138.39884949 279.45300293 138.24412537 279.53659058 C 137.95497131 279.79696655 137.70671082 280.56546021 137.84490967 281.50509644 C 137.91004944 281.68612671 137.59689331 281.63980103 137.34423828 281.66461182 C 137.19413757 281.79476929 137.15728760 281.69668579 137.01904297 281.32080078 C 136.61299133 281.11648560 136.20443726 281.16748047 135.71304321 281.27749634 C 135.23477173 281.03897095 134.79110718 280.75833130 134.77197266 278.76382446" stroke-width="0.27743572" fill="rgb(245, 246, 247)" opacity="1.0" stroke="rgb(158, 159, 131)" stroke-opacity="0.657373" stroke-linecap="round" stroke-linejoin="round"/>
    <path d="M 254.02711487 117.97010040 C 253.64593506 118.06093597 253.43954468 118.23312378 253.39198303 118.52619171 C 253.40933228 118.94253540 253.26957703 119.34738159 252.74673462 119.34175110 C 252.45420837 119.03067017 252.48579407 118.98635864 252.57609558 119.29578400 C 252.37049866 119.66483307 251.83848572 119.89925385 251.40122986 120.04108429 C 251.17721558 119.82886505 250.90798950 119.39408112 250.44465637 118.95478821 C 250.06343079 118.83013916 249.85386658 118.55229187 249.88542175 118.10195160 C 249.87043762 117.71089172 249.88948059 117.19647980 249.88885498 116.66996765 C 249.93017578 116.29830933 250.20637512 116.19457245 250.59054565 116.08030701 C 250.95901489 115.86860657 251.29554749 115.72145844 251.70365906 115.62635803 C 252.35563660 115.62899780 253.19790649 115.47307587 254.02711487 117.97010040" stroke-width="0.50292599" fill="rgb(242, 242, 243)" opacity="1.0" stroke="rgb(156, 152, 133)" stroke-opacity="0.6807265" stroke-linecap="round" stroke-linejoin="round"/>
    <path d="M 203.55407715 379.54681396 C 203.04052734 379.59701538 202.51501465 379.55566406 202.07664490 379.63049316 C 201.72857666 379.62377930 201.56761169 379.40368652 201.29772949 379.14718628 C 200.99551392 378.69131470 200.62916565 378.30426025 200.29458618 377.87329102 C 200.03054810 377.56835938 200.07296753 377.20864868 200.23561096 376.70944214 C 200.31771851 376.28341675 200.68472290 375.88604736 201.11720276 375.70956421 C 201.67039490 375.41268921 201.98345947 375.18017578 202.62725830 375.02774048 C 202.78427124 375.26058960 203.05627441 375.68963623 203.46888733 375.85116577 C 203.97842407 375.75177002 204.26959229 375.59616089 204.32412720 375.72250366 C 204.22344971 376.18377686 204.31265259 376.55401611 204.53489685 377.06622314 C 204.91036987 377.45504761 205.25125122 378.06594849 203.55407715 379.54681396" stroke-width="0.28067708" fill="rgb(248, 250, 249)" opacity="1.0" stroke="rgb(164, 160, 146)" stroke-opacity="0.69004476" stroke-linecap="round" stroke-linejoin="round"/>
    <path d="M 118.40634918 37.07242966 C 118.63378906 37.14088058 118.73992920 37.31271744 118.67064667 37.55076218 C 118.54545593 37.40834808 118.53585052 37.12321854 118.58554840 36.94896698 C 118.80280304 36.98033905 118.95254517 37.27333832 118.87969208 37.55049896 C 118.99720764 37.81215286 119.26634216 38.15864944 119.47094727 38.82532883 C 119.19512939 39.05787659 118.65567017 39.33032608 118.11402893 39.78268433 C 117.63943481 40.00390625 116.91669464 40.10361099 116.52928162 40.20798874 C 116.28593445 40.06531143 115.88423157 39.71215057 115.32556915 39.41148376 C 115.10320282 38.94106674 115.09325409 38.10081482 114.79630280 37.80305481 C 115.04869080 37.31224442 115.48973846 36.56752396 116.04806519 36.00127792 C 116.68334961 35.86815262 117.50518799 35.29376602 118.40634918 37.07242966" stroke-width="0.44875091" fill="rgb(246, 246, 241)" opacity="1.0" stroke="rgb(155, 154, 136)" stroke-opacity="0.7539818" stroke-linecap="round" stroke-linejoin="round"/>
    <path d="M 296.64974976 30.99211884 C 296.62011719 30.20475197 296.53698730 29.37180710 296.16772461 28.89577675 C 296.01467896 28.41685295 296.27645874 28.20160866 296.29483032 28.28117943 C 296.43121338 27.94038010 296.83456421 27.74742126 297.02566528 27.92462540 C 296.99758911 27.98895645 296.95404053 27.45819283 297.04638672 26.92550659 C 297.21701050 26.96218681 297.44757080 27.23062706 297.85797119 27.05498505 C 298.34008789 27.20075226 298.66104126 27.05600929 298.98022461 26.90727043 C 299.16607666 27.00142097 299.26675415 27.32302856 299.29547119 27.57530785 C 299.71142578 27.66444397 300.14242554 27.62368774 300.42810059 27.90782356 C 300.45321655 28.41938591 300.59439087 29.14681435 300.59164429 29.70752907 C 300.34014893 30.59803581 299.82055664 31.73167801 296.64974976 30.99211884" stroke-width="0.29860327" fill="rgb(247, 249, 252)" opacity="1.0" stroke="rgb(175, 171, 139)" stroke-opacity="0.6680625" stroke-linecap="round" stroke-linejoin="round"/>
    <path d="M 474.84661865 213.95440674 C 475.21786499 214.28822327 475.35009766 214.71960449 475.27819824 214.98582458 C 475.12292480 214.93226624 475.22763062 214.72000122 475.40802002 214.81117249 C 475.76223755 215.25643921 475.73294067 215.83029175 475.79489136 216.48857117 C 475.85562134 217.15629578 475.81823730 217.54953003 475.67550659 217.63697815 C 475.25454712 217.46424866 474.36730957 217.42222595 473.78216553 217.65628052 C 473.55441284 217.57328796 473.12219238 217.46739197 472.66824341 217.42849731 C 472.59008789 217.57276917 472.53652954 217.39414978 472.40283203 216.83886719 C 472.49502563 216.18139648 472.70849609 215.82337952 472.75183105 215.61386108 C 472.59695435 215.34925842 472.51864624 215.13752747 472.55554199 215.11552429 C 472.56921387 215.07925415 472.40869141 214.69898987 474.84661865 213.95440674" stroke-width="0.40621141" fill="rgb(249, 250, 251)" opacity="1.0" stroke="rgb(145, 141, 123)" stroke-opacity="0.58514285" stroke-linecap="round" stroke-linejoin="round"/>
    <path d="M 95.63901520 150.58615112 C 95.89793396 150.17272949 96.31999207 149.88708496 96.63169098 149.55766296 C 96.91963959 149.34709167 97.32453918 149.49293518 97.72772217 149.40338135 C 98.15733337 149.33374023 98.38796234 149.42114258 98.65444183 149.55010986 C 99.05865479 149.78062439 99.22255707 150.01235962 99.30522919 150.36380005 C 99.34506226 150.99171448 99.54928589 151.69807434 99.70549011 152.18411255 C 99.58090973 152.65383911 99.36195374 153.09477234 99.17909241 152.93302917 C 99.50009155 152.57441711 99.26538849 152.57101440 98.80982208 152.77682495 C 98.75014496 152.66561890 98.91677856 152.68331909 98.91158295 153.05235291 C 98.68280029 153.37132263 98.20953369 153.21623230 97.50532532 153.17504883 C 96.85487366 153.28877258 95.85567474 153.42639160 95.63901520 150.58615112" stroke-width="0.48644945" fill="rgb(252, 251, 250)" opacity="1.0" stroke="rgb(171, 166, 156)" stroke-opacity="0.7576716" stroke-linecap="round" stroke-linejoin="round"/>
    <path d="M 261.87054443 341.04684448 C 262.59857178 340.65692139 263.18597412 340.83764648 263.98034668 341.29577637 C 264.53005981 341.32479858 264.76663208 341.32620239 264.92684937 341.64743042 C 264.91940308 342.12261963 265.14645386 342.71798706 265.47805786 343.02941895 C 265.62536621 343.32324219 265.64672852 343.81103516 265.62899780 344.02511597 C 265.53396606 344.32830811 265.40414429 344.53485107 265.16806030 344.68978882 C 264.86297607 344.93298340 264.67755127 345.22964478 264.46337891 345.49166870 C 264.06369019 345.45413208 263.69235229 345.38748169 263.35867310 345.38449097 C 262.98535156 345.34835815 262.65423584 345.27441406 262.21090698 345.12988281 C 261.77169800 344.92205811 261.64999390 344.42709351 261.40393066 343.95056152 C 261.11019897 343.57888794 260.72427368 343.02569580 261.87054443 341.04684448" stroke-width="0.43611288" fill="rgb(250, 251, 250)" opacity="1.0" stroke="rgb(148, 139, 94)" stroke-opacity="0.5113745" stroke-linecap="round" stroke-linejoin="round"/>
    <path d="M 482.92660522 149.14491272 C 482.97659302 149.44877625 483.33969116 149.58361816 483.54067993 149.30667114 C 483.29776001 149.05145264 483.11032104 149.49855042 482.92965698 150.34228516 C 482.33279419 150.68263245 482.00131226 150.69731140 481.72009277 150.73551941 C 481.40817261 150.72766113 481.18621826 150.70361328 480.80419922 150.41316223 C 480.53744507 150.07945251 480.35842896 149.85586548 480.24371338 149.59176636 C 480.15066528 149.19512939 479.98114014 148.81489563 479.88684082 148.61268616 C 480.12417603 148.43463135 480.45025635 148.39199829 480.49160767 148.13453674 C 480.41137695 147.98695374 480.52001953 147.84837341 480.59823608 147.78218079 C 481.01571655 147.71237183 481.74911499 147.58834839 482.31246948 147.69046021 C 482.95635986 148.26051331 483.78143311 148.81359863 482.92660522 149.14491272" stroke-width="0.41064206" fill="rgb(246, 246, 251)" opacity="1.0" stroke="rgb(138, 141, 115)" stroke-opacity="0.64126116" stroke-linecap="round" stroke-linejoin="round"/>
  </g>
</svg>
