<?xml version="1.0" ?>
<svg xmlns="http://www.w3.org/2000/svg" version="1.1" width="512" height="512" viewBox="0 0 512 512">
  <defs/>
  <g>
    <path d="M 353.29162598 271.33425903 C 353.71160889 276.82656860 354.23876953 282.39056396 354.59588623 288.33480835 C 353.92251587 294.86071777 353.16397095 301.64480591 352.06863403 308.64285278 C 350.21588135 315.46017456 347.68521118 321.96936035 344.65759277 328.15982056 C 341.08721924 333.70642090 337.01751709 338.81796265 332.66159058 343.60748291 C 328.41213989 348.30886841 323.42333984 352.11877441 318.40609741 355.90426636 C 313.01559448 358.96316528 307.16778564 361.33444214 300.85443115 362.91421509 C 294.28649902 363.62945557 287.55282593 363.75543213 280.60763550 363.29663086 C 273.36276245 363.19564819 266.02160645 363.33746338 258.50363159 363.22509766 C 250.71768188 363.42712402 243.07037354 363.46148682 235.58840942 363.73736572 C 228.26268005 363.53854370 221.31871033 363.08779907 214.85824585 362.05541992 C 208.89743042 359.78814697 203.48223877 356.60714722 198.27882385 352.84252930 C 192.66401672 349.31628418 187.43736267 345.11224365 182.59024048 340.38018799 C 177.81816101 335.58761597 173.85916138 330.30093384 170.52967834 324.43469238 C 167.08976746 318.74404907 164.67132568 312.41458130 162.73324585 305.91784668 C 160.96759033 299.43597412 160.11283875 292.96136475 159.62048340 286.29299927 C 159.78459167 279.55346680 160.14492798 273.05645752 161.27963257 266.49423218 C 162.23275757 259.99319458 163.85401917 253.70613098 166.21920776 247.66757202 C 168.06988525 241.56506348 170.70907593 235.68014526 173.46739197 229.89758301 C 176.08546448 224.06475830 178.95513916 218.71746826 182.76277161 213.93780518 C 186.89012146 209.63362122 191.58554077 205.90158081 196.58772278 202.31413269 C 201.81250000 199.04702759 207.25526428 196.14814758 212.96250916 193.52163696 C 218.90722656 191.14517212 225.00041199 189.09535217 231.19209290 187.46548462 C 237.52505493 186.22943115 244.02632141 185.36322021 250.60092163 184.92887878 C 257.19686890 184.93864441 263.80447388 185.33905029 270.39004517 186.14590454 C 276.92645264 187.39331055 283.35125732 189.08486938 289.68936157 191.15272522 C 295.96972656 193.57229614 302.07437134 196.37521362 307.88293457 199.56071472 C 313.40637207 203.04225159 318.66195679 206.80644226 323.61364746 210.84297180 C 328.21575928 215.05972290 331.85717773 220.26734924 335.54223633 225.65922546 C 338.90090942 231.20938110 342.02343750 236.96044922 344.60470581 242.90356445 C 347.22024536 248.84664917 350.00473022 254.72749329 353.29162598 271.33425903" stroke-width="1.87734079" fill="rgb(218, 215, 200)" opacity="1.0" stroke="rgb(0, 0, 0)" stroke-opacity="0.77983487" stroke-linecap="round" stroke-linejoin="round"/>
    <path d="M 258.12863159 237.60574341 C 258.11053467 237.62149048 258.12557983 237.61793518 258.12307739 237.60823059 C 258.11523438 237.60833740 258.12344360 237.62780762 258.12380981 237.61361694 C 258.12359619 237.60699463 258.11975098 237.62216187 258.12579346 237.60700989 C 258.12002563 237.61930847 258.12640381 237.61859131 258.12890625 237.60487366 C 258.11883545 237.62388611 258.12991333 237.60591125 258.12994385 237.61674500 C 258.11883545 237.61581421 258.12893677 237.61346436 258.12637329 237.61277771 C 258.12005615 237.61035156 258.12579346 237.62733459 258.11975098 237.60313416 C 258.12362671 237.61656189 258.12377930 237.62348938 258.12341309 237.61624146 C 258.11529541 237.60491943 258.12304688 237.62930298 258.12561035 237.62234497 C 258.11050415 237.60537720 258.12863159 237.63691711 258.12863159 237.60574341" stroke-width="0.50679314" fill="rgb(172, 197, 121)" opacity="1.0" stroke="rgb(1, 49, 147)" stroke-opacity="1.0" stroke-linecap="round" stroke-linejoin="round"/>
    <path d="M 254.43841553 330.12359619 C 254.42605591 330.11300659 254.43127441 330.13006592 254.43832397 330.12271118 C 254.42076111 330.11199951 254.43786621 330.13632202 254.42820740 330.11282349 C 254.43095398 330.13070679 254.43338013 330.12179565 254.42727661 330.12402344 C 254.42933655 330.12872314 254.43717957 330.12426758 254.42466736 330.12551880 C 254.43333435 330.13146973 254.42994690 330.12335205 254.42553711 330.12701416 C 254.43139648 330.13540649 254.42915344 330.12289429 254.42828369 330.13375854 C 254.43031311 330.13635254 254.42880249 330.12362671 254.42723083 330.14056396 C 254.42480469 330.12945557 254.43246460 330.13433838 254.42462158 330.13491821 C 254.41851807 330.13592529 254.43713379 330.12811279 254.41291809 330.13534546 C 254.43005371 330.14440918 254.41932678 330.12530518 254.43841553 330.12359619" stroke-width="0.00000000" fill="rgb(134, 79, 156)" opacity="1.0" stroke="rgb(255, 255, 255)" stroke-opacity="0.31957346" stroke-linecap="round" stroke-linejoin="round"/>
    <path d="M 288.43963623 236.96200562 C 283.73574829 238.32868958 279.06109619 239.44856262 274.30438232 240.05143738 C 269.54336548 240.70553589 264.72030640 240.96995544 259.88064575 241.14292908 C 255.15513611 241.29530334 250.48664856 241.35183716 245.81007385 240.86511230 C 241.06040955 240.76257324 236.43782043 240.07118225 231.86404419 238.99554443 C 227.15687561 238.30654907 222.61436462 236.75935364 218.16748047 235.15466309 C 213.89813232 233.21966553 209.98875427 230.85539246 206.20013428 228.37399292 C 202.74137878 225.55369568 199.30371094 222.77084351 196.45378113 219.43128967 C 193.53335571 215.19618225 190.28746033 210.97190857 187.46340942 206.51795959 C 185.35893250 201.95881653 184.42190552 197.31001282 184.34597778 192.60336304 C 185.07429504 188.53878784 185.86058044 184.41351318 186.60406494 180.30139160 C 187.81370544 176.34541321 189.24813843 172.23860168 190.76060486 167.91877747 C 192.45550537 163.54235840 194.66464233 159.22509766 196.99253845 154.95025635 C 199.33755493 150.63110352 201.76625061 146.49174500 204.41835022 142.60409546 C 206.90043640 138.88859558 209.14968872 135.28018188 211.56248474 132.16456604 C 213.78247070 129.25964355 216.14456177 127.00547028 219.04925537 125.75485992 C 222.59120178 125.40051270 226.58480835 125.62754059 230.95817566 126.11853027 C 235.58691406 126.76683807 240.45692444 127.37703705 245.59111023 127.65272522 C 250.86323547 127.29626465 256.13851929 127.24552917 261.49728394 127.24668884 C 266.72460938 127.66160583 271.90505981 127.51504517 277.06323242 127.28023529 C 282.01455688 127.22448730 286.61035156 127.52023315 290.91983032 128.19381714 C 294.94628906 129.33258057 298.61575317 131.02314758 301.76293945 133.35671997 C 304.22622681 136.38308716 306.52490234 139.95175171 309.24194336 143.46386719 C 311.93472290 147.22238159 314.48974609 151.35389709 316.85870361 155.63809204 C 319.30886841 159.96778870 321.28399658 164.62521362 323.00006104 169.45889282 C 324.48657227 174.32852173 325.91030884 179.24632263 326.97576904 183.94769287 C 327.96130371 188.33425903 327.71493530 192.82650757 327.60757446 197.15542603 C 326.56918335 201.22506714 325.28564453 205.16905212 323.37271118 208.88941956 C 320.73980713 212.29377747 318.13067627 215.85304260 315.30682373 219.18913269 C 312.38720703 222.38951111 309.25967407 225.24096680 305.98855591 227.82402039 C 302.73397827 230.41177368 299.06579590 232.77215576 288.43963623 236.96200562" stroke-width="1.72582030" fill="rgb(218, 222, 211)" opacity="1.0" stroke="rgb(63, 63, 61)" stroke-opacity="1.0" stroke-linecap="round" stroke-linejoin="round"/>
    <path d="M 225.34451294 131.30538940 C 222.59324646 132.53382874 219.94470215 133.46817017 217.28332520 134.33627319 C 214.99504089 135.45584106 213.05938721 136.71475220 211.50550842 137.71682739 C 210.12341309 137.65084839 208.84651184 137.42092896 208.00801086 137.30917358 C 208.22903442 137.12059021 208.95954895 136.64268494 209.88171387 135.61022949 C 210.80990601 134.17213440 211.94670105 132.59744263 213.63810730 131.05537415 C 214.83927917 129.09803772 215.92816162 126.82050323 217.61219788 124.78440857 C 219.35508728 122.37042999 221.04516602 119.87297821 222.87850952 117.26768494 C 224.73748779 114.61386871 226.58575439 112.08262634 227.98960876 109.28941345 C 229.73980713 106.76490784 231.32269287 104.25521851 232.66168213 101.60094452 C 234.11383057 99.29930878 235.47850037 97.38791656 236.12564087 95.44441986 C 236.10905457 93.82466888 236.27394104 93.28101349 236.22856140 93.90540314 C 235.73811340 95.11405945 235.85354614 95.95310211 237.10333252 95.58625793 C 238.03359985 94.04534149 238.10508728 94.60391998 238.43991089 96.89976501 C 239.25758362 99.65347290 239.52787781 102.82889557 240.58651733 106.04778290 C 240.84333801 109.61521149 241.53955078 112.83323669 242.49433899 115.91852570 C 242.70242310 119.03012848 242.89956665 121.52911377 243.30937195 123.53994751 C 243.41609192 125.32788849 243.78860474 126.47795105 243.89529419 126.57172394 C 242.84176636 126.59709167 241.05027771 126.83361816 239.10762024 126.55905914 C 237.64277649 125.77175903 236.82904053 126.16497040 237.03982544 127.22777557 C 237.76617432 128.03132629 238.46647644 127.82624054 225.34451294 131.30538940" stroke-width="1.78994322" fill="rgb(228, 184, 206)" opacity="1.0" stroke="rgb(63, 63, 59)" stroke-opacity="1.0" stroke-linecap="round" stroke-linejoin="round"/>
    <path d="M 293.59777832 133.62257385 C 290.30377197 132.64625549 287.14291382 131.62147522 284.07299805 130.55870056 C 281.28762817 129.42448425 278.56130981 128.79389954 276.23626709 128.23573303 C 274.51928711 127.30931854 273.09713745 126.87202454 271.65481567 127.43706512 C 270.01504517 127.43105316 268.66452026 127.57218933 267.81692505 127.38191223 C 268.18850708 126.52707672 268.54983521 125.06048584 268.45675659 123.00256348 C 268.53652954 120.50132751 269.09982300 117.99487305 269.82540894 115.47332001 C 269.81118774 113.16203308 270.25851440 110.66690826 270.97219849 107.89170074 C 271.32318115 105.06585693 272.01925659 102.32424164 272.59072876 99.85481262 C 273.35650635 97.71783447 273.79782104 95.49921417 274.48040771 93.41403961 C 275.42462158 92.38233948 275.68078613 91.65816498 275.39807129 91.12421417 C 275.38729858 90.73662567 275.30743408 90.95163727 275.56716919 91.63345337 C 276.51940918 93.04058075 277.10772705 95.15930176 278.27130127 97.48516083 C 279.46679688 99.89872742 280.63528442 102.41658020 281.97988892 104.99986267 C 283.80780029 107.30541229 285.03796387 110.02056885 286.97128296 112.39208221 C 288.44824219 115.20081329 290.28225708 117.73690033 292.08505249 120.40515137 C 294.04312134 122.88291931 295.73776245 125.52299500 297.47412109 127.95668793 C 299.17999268 130.18521118 300.58712769 132.26635742 301.81051636 133.92770386 C 303.00668335 135.00291443 303.57122803 135.81985474 304.00485229 136.37351990 C 303.62802124 136.48004150 302.81781006 136.44877625 301.84973145 136.46142578 C 300.86755371 136.77264404 299.79299927 137.21821594 293.59777832 133.62257385" stroke-width="2.00000000" fill="rgb(228, 190, 204)" opacity="1.0" stroke="rgb(61, 69, 59)" stroke-opacity="1.0" stroke-linecap="round" stroke-linejoin="round"/>
    <path d="M 230.37231445 163.98382568 C 231.19836426 163.56362915 232.17366028 163.47090149 233.17427063 163.57398987 C 234.04302979 163.80096436 234.79469299 164.25617981 235.71490479 164.70202637 C 236.64614868 165.13880920 237.51962280 165.83335876 238.30303955 166.68196106 C 238.98033142 167.75315857 239.74844360 168.71990967 240.38766479 169.87541199 C 240.98455811 171.06683350 241.55345154 172.30953979 241.79611206 173.58665466 C 241.56462097 175.09986877 241.50938416 176.65931702 241.54492188 178.25672913 C 241.13716125 179.94479370 240.34486389 181.35066223 239.88366699 182.84082031 C 239.13523865 183.82279968 238.53202820 184.97702026 237.73426819 185.79858398 C 236.87251282 186.68571472 235.78469849 187.54202271 234.76277161 188.28997803 C 233.30757141 188.72645569 231.86248779 189.14575195 230.61157227 189.51661682 C 229.22419739 189.63630676 227.77445984 189.72454834 226.36756897 189.77172852 C 225.00572205 189.52980042 223.83630371 188.82678223 222.35499573 188.27503967 C 221.14985657 187.57530212 219.88258362 186.76309204 218.83360291 185.79289246 C 217.70770264 184.88374329 216.66064453 183.99259949 215.93586731 182.77244568 C 215.05139160 181.66616821 214.09666443 180.82278442 213.37188721 179.93032837 C 213.02429199 178.85655212 212.75801086 178.00666809 212.47517395 177.27372742 C 212.80747986 176.48886108 213.34495544 175.53958130 214.01087952 174.47091675 C 215.06544495 173.50975037 215.90361023 172.15667725 216.82313538 170.82960510 C 218.05851746 169.66452026 219.37713623 168.33882141 220.78364563 166.90303040 C 222.57589722 165.43200684 224.41038513 163.95713806 230.37231445 163.98382568" stroke-width="1.63173473" fill="rgb(60, 232, 71)" opacity="1.0" stroke="rgb(6, 76, 7)" stroke-opacity="0.8281371" stroke-linecap="round" stroke-linejoin="round"/>
    <path d="M 279.11322021 173.32678223 C 279.26138306 171.42869568 279.43295288 169.69267273 279.61923218 168.09338379 C 279.79180908 166.56674194 279.99755859 165.18695068 280.48858643 164.22775269 C 281.29913330 163.71113586 282.44299316 163.53028870 283.86355591 163.29293823 C 285.32733154 163.65606689 286.98519897 164.20811462 288.60571289 165.02401733 C 290.13052368 166.26159668 291.61981201 167.68867493 293.23028564 169.07612610 C 294.57232666 170.68630981 295.64053345 172.24974060 296.66680908 173.81698608 C 297.58215332 175.19841003 298.15325928 176.57414246 298.46838379 177.72212219 C 298.53860474 178.67427063 298.12478638 179.48623657 297.59445190 180.27189636 C 297.12081909 181.24192810 296.60855103 182.32466125 295.82962036 183.26788330 C 294.73681641 184.23773193 293.65747070 185.46015930 292.38467407 186.57145691 C 290.53729248 187.32893372 288.75280762 188.17817688 286.95895386 188.81634521 C 284.93948364 189.21871948 282.95553589 189.40327454 281.10867310 189.54548645 C 279.22668457 189.57003784 277.38528442 189.38859558 275.85754395 189.03060913 C 274.61352539 188.11380005 273.43444824 186.96376038 272.32962036 185.65609741 C 271.30725098 184.39010620 270.30941772 183.11697388 269.66830444 181.88848877 C 269.22024536 180.81407166 268.96878052 179.93588257 268.96749878 179.45399475 C 269.34048462 179.45759583 269.64819336 179.99392700 270.16122437 180.55615234 C 270.97467041 180.78958130 271.80072021 180.68678284 272.31231689 179.85762024 C 272.45806885 178.68232727 272.99377441 177.35743713 273.67074585 175.57641602 C 273.86999512 173.31755066 274.32214355 171.07269287 279.11322021 173.32678223" stroke-width="1.32804000" fill="rgb(39, 225, 43)" opacity="1.0" stroke="rgb(11, 109, 19)" stroke-opacity="0.8554358" stroke-linecap="round" stroke-linejoin="round"/>
    <path d="M 234.33683777 170.14712524 C 233.93695068 172.15460205 234.13197327 174.29138184 234.34384155 176.55508423 C 234.35223389 178.73864746 234.28941345 180.71095276 234.29949951 182.49644470 C 234.15689087 184.14656067 234.11141968 185.66336060 234.08206177 187.16670227 C 233.96798706 188.40129089 233.78108215 189.38305664 233.64480591 190.08015442 C 233.40611267 190.35395813 233.07986450 190.21946716 232.52824402 190.09010315 C 231.65763855 190.17565918 230.58169556 190.13500977 229.56875610 190.00355530 C 228.70298767 189.88027954 227.97308350 189.82820129 227.33222961 189.57002258 C 226.75134277 189.06451416 226.16767883 188.55665588 225.76304626 188.27609253 C 225.68394470 187.68699646 225.85713196 186.98355103 225.81185913 186.17353821 C 225.49114990 185.01754761 225.30371094 183.63975525 225.24586487 182.11282349 C 225.43295288 180.56066895 225.54649353 178.91633606 225.36203003 177.24447632 C 225.51780701 175.51667786 225.57321167 173.89906311 225.58415222 172.40231323 C 226.13244629 170.76924133 226.40582275 169.13494873 226.44979858 167.75450134 C 226.94856262 166.48619080 227.30101013 165.18869019 227.80625916 164.19841003 C 228.99185181 164.19303894 230.25640869 164.23133850 231.30216980 163.83602905 C 232.25341797 163.14375305 233.19204712 162.61094666 234.29937744 162.62284851 C 235.45542908 163.14611816 236.82107544 163.98672485 237.79100037 164.95617676 C 238.09616089 165.81512451 237.81649780 166.49510193 237.41032410 166.58720398 C 237.02038574 165.94595337 236.39883423 165.47950745 235.39166260 165.29995728 C 233.94854736 165.49978638 232.44825745 165.71743774 234.33683777 170.14712524" stroke-width="2.00000000" fill="rgb(11, 20, 7)" opacity="1.0" stroke="rgb(241, 254, 245)" stroke-opacity="0.24440505" stroke-linecap="round" stroke-linejoin="round"/>
    <path d="M 287.22222900 184.43124390 C 287.22860718 184.40063477 287.18411255 184.38102722 287.19003296 184.38159180 C 287.19982910 184.34738159 287.17504883 184.33970642 287.17147827 184.32228088 C 287.18203735 184.30476379 287.17343140 184.29753113 287.17013550 184.28640747 C 287.17407227 184.28074646 287.16671753 184.27441406 287.17398071 184.26882935 C 287.17028809 184.27804565 287.16198730 184.25013733 287.17523193 184.27560425 C 287.17184448 184.25987244 287.15817261 184.26312256 287.17367554 184.26126099 C 287.16937256 184.27369690 287.16152954 184.25416565 287.17834473 184.29246521 C 287.15756226 184.26385498 287.18411255 184.28465271 287.17614746 184.28431702 C 287.18194580 184.28430176 287.18444824 184.30128479 287.20401001 184.29563904 C 287.21612549 184.31001282 287.22354126 184.31358337 287.22222900 184.43124390" stroke-width="1.80946028" fill="rgb(0, 255, 0)" opacity="1.0" stroke="rgb(44, 254, 78)" stroke-opacity="0.58057356" stroke-linecap="round" stroke-linejoin="round"/>
    <path d="M 263.66464233 200.25683594 C 263.67135620 200.28398132 263.67248535 200.26489258 263.68624878 200.27076721 C 263.66748047 200.28080750 263.68359375 200.26519775 263.68618774 200.26925659 C 263.67504883 200.27658081 263.69204712 200.26762390 263.69183350 200.27629089 C 263.69195557 200.27146912 263.69055176 200.27839661 263.70465088 200.27816772 C 263.69631958 200.26898193 263.68948364 200.27963257 263.70138550 200.27499390 C 263.70736694 200.27261353 263.68447876 200.28092957 263.70373535 200.27194214 C 263.69683838 200.26666260 263.69183350 200.26480103 263.69717407 200.27398682 C 263.69412231 200.25610352 263.69015503 200.26858521 263.69628906 200.27349854 C 263.69427490 200.26194763 263.70013428 200.26907349 263.69360352 200.27679443 C 263.70059204 200.27267456 263.69943237 200.28135681 263.66464233 200.25683594" stroke-width="2.00000000" fill="rgb(255, 255, 255)" opacity="1.0" stroke="rgb(231, 234, 234)" stroke-opacity="0.9472266" stroke-linecap="round" stroke-linejoin="round"/>
    <path d="M 361.44458008 356.46121216 C 358.97482300 355.76419067 357.01599121 354.39770508 355.59475708 351.97344971 C 354.07095337 349.22229004 352.58728027 346.33065796 351.60363770 343.13433838 C 350.75253296 339.61883545 350.13229370 335.78152466 350.09045410 332.03750610 C 349.53683472 328.58914185 349.59271240 325.26574707 349.64135742 322.13961792 C 350.51275635 319.44818115 351.41543579 316.83633423 352.31759644 314.32864380 C 352.77685547 311.62905884 353.51480103 308.96578979 353.99365234 306.40716553 C 354.82113647 304.01678467 355.04071045 301.54522705 355.16232300 299.24832153 C 355.34371948 297.30892944 355.53387451 295.65795898 355.72943115 294.40835571 C 355.80154419 293.48126221 355.95706177 293.10809326 356.29324341 293.14791870 C 356.76419067 293.58956909 357.38986206 294.33236694 357.99328613 295.37710571 C 358.76940918 296.57662964 359.63778687 297.88125610 360.77368164 299.24780273 C 361.94372559 300.59344482 362.77764893 302.40051270 363.67010498 304.44818115 C 364.93249512 306.42868042 365.86181641 308.65420532 366.30374146 311.28015137 C 367.22100830 313.87817383 367.85015869 316.74401855 368.50732422 319.56832886 C 368.77575684 322.26376343 369.39489746 324.84463501 369.48129272 327.51254272 C 369.37399292 330.51632690 369.50195312 333.54849243 369.94030762 336.44052124 C 370.13540649 339.25711060 370.61288452 341.78222656 371.16986084 344.02578735 C 372.33441162 345.71987915 372.75839233 347.27072144 372.50994873 349.25323486 C 372.04681396 350.97036743 371.17782593 352.44119263 369.72692871 353.65365601 C 368.15011597 355.11013794 366.63470459 356.60894775 361.44458008 356.46121216" stroke-width="1.91098344" fill="rgb(220, 217, 202)" opacity="1.0" stroke="rgb(40, 40, 41)" stroke-opacity="0.928909" stroke-linecap="round" stroke-linejoin="round"/>
    <path d="M 239.06106567 371.35946655 C 237.34808350 372.59899902 235.70774841 373.44680786 234.11747742 373.37478638 C 232.72370911 372.88430786 232.06652832 372.24304199 231.63902283 371.79513550 C 230.75439453 372.28796387 229.35139465 373.15362549 227.63307190 373.80737305 C 225.44487000 373.96267700 223.29052734 373.98153687 221.78138733 372.67541504 C 221.28927612 369.79739380 221.32138062 366.80157471 220.59510803 365.51324463 C 219.73863220 367.05828857 219.52188110 369.88366699 219.06645203 372.58804321 C 217.92422485 373.42657471 216.28410339 373.46017456 214.48391724 373.16439819 C 212.53752136 372.62765503 210.80014038 371.92535400 209.59663391 370.41299438 C 208.66995239 368.36071777 207.96369934 366.29708862 207.36737061 364.27737427 C 207.35118103 362.47937012 207.71798706 360.94433594 208.36251831 359.51187134 C 209.10377502 358.44921875 210.03701782 357.59045410 211.28050232 356.87649536 C 212.49847412 356.19815063 213.72167969 355.45178223 215.30075073 355.03143311 C 216.96392822 354.60656738 218.73423767 354.23425293 220.68511963 354.03683472 C 222.62570190 353.79718018 224.49252319 353.72097778 226.25582886 353.97518921 C 227.87678528 353.78683472 229.37092590 353.94921875 230.85162354 354.07192993 C 232.55830383 354.30075073 234.10871887 354.74789429 235.48532104 355.34304810 C 236.93905640 356.25225830 238.24061584 357.28881836 239.38941956 358.21011353 C 240.09983826 359.34765625 240.59829712 360.47479248 241.00428772 361.58013916 C 241.13493347 362.84417725 241.12373352 364.14096069 241.07901001 365.65209961 C 240.98873901 366.97320557 240.70581055 368.53564453 239.06106567 371.35946655" stroke-width="1.50818408" fill="rgb(158, 144, 124)" opacity="1.0" stroke="rgb(67, 65, 61)" stroke-opacity="1.0" stroke-linecap="round" stroke-linejoin="round"/>
    <path d="M 318.33273315 370.69607544 C 316.77224731 371.92825317 315.23870850 372.77856445 313.42797852 372.68249512 C 311.78976440 372.68792725 310.71350098 371.94827271 309.89505005 371.11669922 C 309.08813477 371.71102905 308.14038086 372.81024170 306.57205200 373.29547119 C 304.73278809 373.66018677 302.94467163 373.48654175 301.24270630 372.65145874 C 299.66906738 372.36706543 297.89559937 372.63845825 296.13302612 373.05758667 C 294.47821045 372.99691772 292.92974854 372.77255249 291.51916504 371.88479614 C 290.26977539 371.54550171 289.32418823 370.96743774 288.69647217 369.69869995 C 287.88116455 368.30264282 286.86175537 366.85452271 286.64804077 365.40032959 C 286.48693848 363.84347534 286.50946045 362.52175903 286.70138550 361.35891724 C 287.11788940 360.22302246 287.67605591 359.22857666 288.46292114 358.22714233 C 289.41259766 357.17672729 290.52044678 356.30990601 291.96981812 355.68170166 C 293.55499268 355.10028076 295.32434082 354.58798218 297.22125244 354.21444702 C 298.96838379 354.01864624 300.80664062 353.83441162 302.48379517 353.63757324 C 303.78283691 353.98730469 305.08117676 354.26846313 306.37911987 354.13729858 C 307.63198853 353.95028687 309.04644775 354.12756348 310.60830688 354.47219849 C 312.11492920 354.92889404 313.54171753 355.34020996 314.92330933 355.66561890 C 316.22418213 356.06311035 317.31210327 356.60159302 317.99822998 357.35324097 C 318.82159424 358.09939575 319.62649536 358.85910034 319.83255005 360.03262329 C 320.12310791 361.43563843 320.42327881 362.90219116 320.56542969 364.53552246 C 320.68975830 366.10653687 320.96139526 367.73889160 318.33273315 370.69607544" stroke-width="1.73323488" fill="rgb(158, 144, 123)" opacity="1.0" stroke="rgb(69, 65, 61)" stroke-opacity="1.0" stroke-linecap="round" stroke-linejoin="round"/>
    <path d="M 227.63664246 197.83392334 C 223.06164551 196.85813904 218.34645081 196.13085938 213.93542480 195.23200989 C 209.51350403 194.60147095 205.48458862 193.75952148 201.57699585 193.07987976 C 197.82006836 192.72685242 194.52038574 192.66033936 191.61549377 192.30001831 C 189.12207031 192.16023254 187.07501221 192.21290588 185.69802856 192.22253418 C 185.09190369 192.28239441 185.27862549 192.21684265 186.05728149 191.93934631 C 187.35166931 192.12362671 189.08862305 192.47354126 191.21522522 192.65826416 C 193.74813843 192.81901550 196.71025085 193.23501587 200.17620850 193.14047241 C 203.99777222 193.48539734 207.98764038 193.90339661 212.24931335 194.64932251 C 216.81011963 195.28919983 221.59643555 196.00517273 226.19532776 197.02854919 C 230.95129395 197.69416809 235.81996155 198.80535889 227.63664246 197.83392334" stroke-width="0.66651165" fill="rgb(5, 5, 3)" opacity="1.0" stroke="rgb(75, 75, 77)" stroke-opacity="0.9283528" stroke-linecap="round" stroke-linejoin="round"/>
    <path d="M 219.09010315 203.68830872 C 213.98612976 203.86610413 208.97184753 204.29269409 203.97045898 204.87866211 C 199.17835999 205.31420898 194.53071594 205.91961670 190.20651245 206.88117981 C 186.30641174 207.82519531 182.77537537 208.93638611 179.71846008 209.28779602 C 177.01562500 209.25929260 174.99061584 209.72544861 173.64262390 209.79444885 C 173.20094299 208.91087341 173.84724426 208.60208130 175.51298523 208.81159973 C 178.20060730 208.25666809 181.37416077 207.67913818 184.68588257 206.96821594 C 187.99691772 207.84394836 191.61434937 208.09713745 195.82336426 207.17524719 C 200.73982239 206.63096619 205.91716003 206.14033508 211.07481384 205.37939453 C 216.48179626 205.01835632 222.01045227 204.82014465 227.46856689 204.59712219 C 232.75643921 203.61378479 238.03646851 202.33016968 219.09010315 203.68830872" stroke-width="0.21164879" fill="rgb(52, 58, 56)" opacity="1.0" stroke="rgb(85, 93, 99)" stroke-opacity="0.62065095" stroke-linecap="round" stroke-linejoin="round"/>
    <path d="M 223.00422668 209.55183411 C 220.18667603 210.42442322 217.34802246 211.22262573 214.39889526 211.71282959 C 211.52621460 213.06854248 208.69485474 213.94848633 205.90197754 215.27597046 C 203.30052185 216.23347473 201.17453003 217.25112915 199.62368774 218.44746399 C 198.15437317 218.73410034 197.36714172 219.21896362 197.17195129 219.89605713 C 197.55766296 220.31391907 198.30735779 220.40841675 199.46954346 219.81930542 C 201.33253479 218.73506165 203.73005676 217.51329041 206.30384827 216.41342163 C 209.10939026 215.27661133 212.14906311 214.09454346 215.23513794 213.29553223 C 218.29612732 212.23535156 221.35409546 211.48481750 224.38735962 210.84057617 C 227.08850098 210.53305054 229.60064697 209.65769958 232.15365601 209.17381287 C 234.30505371 208.27740479 236.17892456 206.73852539 223.00422668 209.55183411" stroke-width="0.00000000" fill="rgb(41, 46, 51)" opacity="1.0" stroke="rgb(88, 101, 131)" stroke-opacity="0.6069368" stroke-linecap="round" stroke-linejoin="round"/>
    <path d="M 290.74200439 196.04145813 C 296.39147949 194.70916748 302.10848999 193.99244690 307.72592163 193.30548096 C 313.01449585 192.53384399 317.95956421 191.88816833 322.64254761 191.67655945 C 327.01910400 191.60870361 330.77615356 191.16250610 333.80566406 191.18827820 C 336.32708740 191.11547852 338.11416626 191.18066406 339.06478882 191.59626770 C 339.05383301 192.18264771 338.16571045 192.15428162 336.43630981 191.75312805 C 334.16430664 191.55007935 331.31051636 191.91613770 327.89437866 192.45669556 C 323.88647461 192.79124451 319.42190552 192.97549438 314.63992310 193.45317078 C 309.61596680 193.96006775 304.49356079 194.69491577 299.13031006 195.45593262 C 293.76742554 196.51904297 288.35458374 197.51466370 282.96911621 198.37170410 C 277.78750610 198.70173645 272.79251099 198.25082397 290.74200439 196.04145813" stroke-width="0.53218508" fill="rgb(49, 49, 46)" opacity="1.0" stroke="rgb(86, 86, 91)" stroke-opacity="0.59577376" stroke-linecap="round" stroke-linejoin="round"/>
    <path d="M 280.09875488 203.39360046 C 286.60379028 203.74168396 292.95098877 203.94181824 299.05575562 204.42643738 C 304.87936401 205.13923645 310.55340576 205.70042419 315.82662964 206.53804016 C 320.43206787 207.71537781 324.50006104 208.53392029 328.09078979 208.56007385 C 331.05767822 208.88067627 333.40524292 209.39393616 335.06375122 210.33477783 C 335.83718872 211.44140625 335.64038086 211.74461365 334.72955322 211.16156006 C 333.15490723 210.12875366 330.34967041 209.87973022 327.36059570 209.43771362 C 324.58209229 209.50032043 321.73297119 209.43354797 318.39141846 208.50849915 C 314.36767578 207.68650818 309.73901367 206.80766296 304.66876221 206.27949524 C 299.36282349 205.51802063 293.84637451 205.04875183 288.20333862 204.83998108 C 282.58676147 204.62385559 276.74331665 204.60217285 280.09875488 203.39360046" stroke-width="0.34425107" fill="rgb(38, 38, 39)" opacity="1.0" stroke="rgb(83, 85, 92)" stroke-opacity="0.6457111" stroke-linecap="round" stroke-linejoin="round"/>
    <path d="M 278.58679199 207.41644287 C 284.19772339 208.98542786 289.96667480 209.34849548 295.38360596 210.90177917 C 300.64163208 212.42176819 305.45129395 214.31303406 309.81658936 216.35922241 C 313.88235474 218.37020874 317.34869385 220.43759155 320.14196777 222.58166504 C 322.34869385 224.52937317 324.47250366 225.71443176 325.91000366 226.54365540 C 326.64117432 227.39659119 326.57122803 227.88719177 325.97579956 227.90464783 C 324.86578369 227.07487488 323.03768921 226.05543518 320.72607422 224.86868286 C 318.50125122 223.15467834 315.94076538 221.25578308 312.98477173 219.34425354 C 309.34103394 217.47912598 305.27102661 215.94702148 301.07156372 214.20875549 C 296.62017822 212.77267456 292.25054932 211.54655457 287.80743408 210.60076904 C 283.63699341 209.88090515 279.37380981 209.50402832 278.58679199 207.41644287" stroke-width="0.00000000" fill="rgb(63, 64, 65)" opacity="1.0" stroke="rgb(50, 52, 75)" stroke-opacity="0.5490491" stroke-linecap="round" stroke-linejoin="round"/>
    <path d="M 253.57502747 193.79022217 C 251.55612183 191.69245911 249.34985352 190.27131653 247.66635132 189.71557617 C 247.19474792 188.72064209 247.81729126 187.57760620 248.97422791 186.62182617 C 250.54409790 186.64045715 252.39236450 186.76943970 254.44059753 186.60108948 C 256.60644531 186.58981323 258.73245239 186.55122375 260.65789795 186.95353699 C 262.22970581 187.46267700 263.29119873 188.09550476 263.60073853 189.19804382 C 263.12429810 190.18240356 262.17001343 191.24514771 260.63742065 192.00230408 C 259.02923584 192.95332336 257.50149536 193.87330627 256.28625488 194.95147705 C 256.26345825 196.84089661 256.83422852 199.32144165 258.02206421 201.51423645 C 259.81585693 203.42591858 262.14755249 204.56883240 264.60256958 204.81973267 C 266.88531494 204.04722595 268.67364502 202.74220276 270.00091553 201.89842224 C 270.51321411 202.47592163 269.96960449 203.96470642 268.68038940 205.47363281 C 267.09750366 206.84135437 264.84704590 207.27354431 262.26086426 206.84507751 C 259.64080811 205.80044556 257.35195923 204.28666687 255.74777222 203.03305054 C 254.74295044 203.33467102 253.83247375 204.67652893 252.08026123 205.90351868 C 249.68737793 206.89970398 246.73953247 207.34455872 244.06538391 207.01918030 C 241.68632507 206.09046936 239.93640137 204.70729065 238.97248840 203.01950073 C 238.90884399 201.60867310 239.18418884 200.39503479 239.98399353 200.15267944 C 240.59878540 200.82194519 241.03895569 202.32365417 242.09663391 203.59800720 C 243.63362122 204.58868408 245.72143555 205.03002930 248.39686584 204.82531738 C 251.50140381 203.84295654 254.91885376 202.48492432 253.57502747 193.79022217" stroke-width="2.00000000" fill="rgb(86, 38, 61)" opacity="1.0" stroke="rgb(246, 251, 255)" stroke-opacity="0.52761745" stroke-linecap="round" stroke-linejoin="round"/>
    <path d="M 284.86431885 187.95848083 C 283.65655518 188.86393738 282.33953857 189.44410706 281.02963257 189.65509033 C 279.92947388 189.50991821 279.10791016 188.97793579 278.66744995 188.00559998 C 278.54043579 186.33718872 278.53289795 184.21731567 278.49969482 181.77380371 C 278.26708984 179.12092590 278.16949463 176.44686890 278.23529053 173.79438782 C 278.51641846 171.20805359 278.57424927 168.81237793 278.39614868 166.81285095 C 277.90972900 165.26428223 277.70138550 164.04592896 277.24737549 163.43794250 C 276.21508789 163.59732056 275.15151978 164.17694092 274.39276123 164.36410522 C 274.57086182 164.10499573 275.64382935 163.46623230 277.41220093 162.87794495 C 279.24633789 162.38932800 280.87799072 162.69097900 282.38015747 163.62475586 C 284.11270142 164.41601562 285.49569702 164.95918274 284.86431885 187.95848083" stroke-width="0.75606829" fill="rgb(7, 16, 7)" opacity="1.0" stroke="rgb(41, 85, 42)" stroke-opacity="0.6735374" stroke-linecap="round" stroke-linejoin="round"/>
  </g>
</svg>
