<?xml version="1.0" ?>
<svg xmlns="http://www.w3.org/2000/svg" version="1.1" width="512" height="512" viewBox="0 0 512 512">
  <defs/>
  <g>
    <path d="M 642.66204834 490.02716064 C 617.82226562 497.94409180 592.95770264 505.84457397 568.08880615 513.73547363 C 543.18853760 521.55364990 518.22094727 529.26971436 493.19180298 536.82916260 C 468.05667114 544.15380859 442.79901123 551.21972656 417.43600464 557.88525391 C 391.93106079 564.07098389 366.31381226 569.71508789 340.60449219 574.70404053 C 314.80834961 578.91992188 288.98736572 582.28167725 263.20196533 584.65594482 C 237.51400757 585.94335938 211.98764038 586.04949951 186.79585266 584.82330322 C 162.02519226 582.16705322 137.74902344 578.03057861 114.01792145 572.37933350 C 90.98503113 565.14251709 68.80291748 556.21765137 47.66236877 545.53198242 C 27.76854897 532.91217041 9.45810986 518.17358398 -7.04889727 501.15057373 C -21.61389160 481.94235229 -34.46477890 460.84893799 -45.75769424 438.27053833 C -55.62053680 414.54733276 -64.09741211 389.84365845 -71.24634552 364.39941406 C -77.11730194 338.48754883 -81.72683716 312.22186279 -84.98331451 285.75216675 C -86.94934082 259.30184937 -87.67911530 233.09851074 -87.12850952 207.29908752 C -85.31884766 182.08998108 -82.28725433 157.59756470 -77.94737244 133.98915100 C -72.34142303 111.36523438 -65.43135071 89.81566620 -57.21054459 69.48251343 C -47.63560486 50.37647247 -36.72966766 32.56997299 -24.46798706 16.10781288 C -10.87026787 1.00702584 4.08657074 -12.76601028 20.39114380 -25.18191528 C 37.97324371 -36.25782394 56.80904388 -46.00660706 76.87023926 -54.52649689 C 98.06811523 -61.76646805 120.31755066 -67.81497192 143.55796814 -72.69776917 C 167.62799072 -76.41120148 192.40074158 -78.96295929 217.80894470 -80.42087555 C 243.64436340 -80.76367950 269.70364380 -79.95595551 295.85385132 -78.00167847 C 321.90832520 -74.89273834 347.68438721 -70.60482025 373.00604248 -65.09297180 C 397.66827393 -58.25011444 421.44436646 -50.04833603 444.20202637 -40.46576309 C 465.84463501 -29.49443054 486.10092163 -16.96583939 504.61462402 -2.62802720 C 521.04864502 13.73727417 535.54766846 31.95776367 548.33361816 51.80399704 C 559.70880127 72.95542908 569.87280273 95.19091797 578.92791748 118.43706512 C 586.93988037 142.58448792 594.07141113 167.47305298 600.48492432 193.01707458 C 606.28381348 219.03222656 611.62561035 245.42712402 616.62078857 272.13742065 C 621.31872559 299.07070923 625.85632324 326.05935669 630.31854248 353.15206909 C 634.74414062 380.25100708 639.16400146 407.37704468 642.66204834 490.02716064" stroke-width="2.00000000" fill="rgb(252, 248, 206)" opacity="1.0" stroke="rgb(253, 246, 130)" stroke-opacity="0.35208705" stroke-linecap="round" stroke-linejoin="round"/>
    <path d="M 218.45721436 352.20700073 C 214.81521606 353.38812256 210.86718750 353.96334839 206.75431824 354.25921631 C 202.51165771 354.58929443 198.05116272 355.00436401 193.39480591 355.28442383 C 188.60719299 355.55432129 183.78376770 355.77532959 178.81033325 355.87219238 C 173.68695068 356.07080078 168.47631836 355.93930054 163.27044678 355.88800049 C 158.13768005 355.88034058 153.03410339 355.74420166 147.93653870 355.58496094 C 143.01161194 355.44772339 138.46073914 355.13992310 134.19175720 354.62765503 C 130.17898560 354.47784424 126.60079956 354.18206787 123.59328461 353.91369629 C 121.20985413 353.80212402 119.49285889 353.41549683 118.63729858 352.38909912 C 118.46674347 350.61834717 118.96719360 348.10516357 119.56291962 344.72695923 C 120.30283356 340.83657837 121.23074341 336.36416626 122.25189209 331.37344360 C 123.33620453 325.87866211 124.42285156 320.19775391 125.56118774 314.14752197 C 126.45783234 307.86367798 127.58903503 301.34561157 128.77932739 294.82489014 C 129.89100647 288.12481689 131.00088501 281.39260864 131.78036499 274.77120972 C 132.50343323 268.11148071 133.25144958 261.67053223 133.71200562 255.34536743 C 134.23429871 249.22355652 134.54772949 243.33024597 134.49342346 237.70117188 C 134.61499023 232.45147705 134.82881165 227.55885315 134.64137268 223.13667297 C 134.53857422 219.31414795 135.18180847 215.96376038 136.53569031 212.95837402 C 138.40432739 210.31712341 140.66218567 208.10287476 143.26324463 206.27275085 C 146.17355347 204.79725647 149.43363953 203.76248169 153.06312561 203.17091370 C 156.86499023 202.99621582 160.75228882 203.16282654 164.71289062 203.69180298 C 168.67106628 204.64518738 172.61163330 206.01741028 176.55723572 207.76071167 C 180.44389343 209.87097168 184.11772156 212.37635803 187.55169678 215.28558350 C 190.72190857 218.60752869 193.63211060 222.29588318 196.28613281 226.29226685 C 198.73141479 230.55055237 200.99188232 235.04557800 203.03129578 239.81852722 C 204.89215088 244.80120850 206.54058838 249.89529419 208.02644348 255.13076782 C 209.38490295 260.44863892 210.56977844 265.88549805 211.65101624 271.36730957 C 212.62870789 276.92361450 213.46469116 282.53308105 214.20803833 288.14373779 C 214.90501404 293.79867554 215.50234985 299.45751953 216.04182434 305.11694336 C 216.57096863 310.78457642 217.00985718 316.48507690 217.34123230 322.15747070 C 217.57559204 327.83438110 217.87837219 333.52847290 218.45721436 352.20700073" stroke-width="1.72150207" fill="rgb(253, 255, 253)" opacity="1.0" stroke="rgb(148, 187, 159)" stroke-opacity="0.68145937" stroke-linecap="round" stroke-linejoin="round"/>
    <path d="M 212.70462036 210.78509521 C 210.91253662 211.60673523 209.15875244 212.35113525 207.35490417 212.99401855 C 205.43887329 213.61448669 203.31265259 214.28555298 200.93156433 214.88677979 C 198.31965637 215.39611816 195.54071045 215.86904907 192.50549316 216.17999268 C 189.13288879 216.36906433 185.47615051 216.38931274 181.73832703 216.13792419 C 177.85313416 216.24562073 173.75138855 216.28820801 169.42433167 216.13523865 C 164.94297791 216.12171936 160.33079529 216.05624390 155.77673340 216.06388855 C 151.36643982 216.07168579 147.08316040 216.08210754 142.96293640 215.98280334 C 139.07432556 216.10681152 135.69541931 216.16127014 132.97383118 215.97439575 C 131.04281616 216.30784607 129.77990723 216.33560181 129.10168457 215.79356384 C 129.20741272 214.64689636 129.31350708 212.91175842 129.40599060 210.66416931 C 129.32881165 208.19020081 129.28132629 205.62374878 129.05961609 203.08132935 C 128.85995483 200.84065247 129.15008545 198.85658264 130.16909790 197.16935730 C 131.46955872 195.79144287 133.35652161 194.97839355 135.86376953 194.65927124 C 138.74995422 194.64006042 142.05061340 194.61253357 145.66111755 194.56416321 C 149.51667786 194.55984497 153.59271240 194.63066101 157.81300354 194.64619446 C 162.06193542 194.60697937 166.29632568 194.65039062 170.58097839 194.59066772 C 174.89311218 194.26257324 179.18922424 194.31410217 183.31202698 194.44262695 C 187.16835022 195.12596130 191.05195618 195.00469971 195.02922058 194.67222595 C 199.07798767 194.62297058 203.18278503 194.80393982 207.27166748 194.80690002 C 211.10174561 195.14915466 214.93675232 195.26757812 212.70462036 210.78509521" stroke-width="0.81873143" fill="rgb(229, 22, 14)" opacity="1.0" stroke="rgb(181, 13, 0)" stroke-opacity="0.4816417" stroke-linecap="round" stroke-linejoin="round"/>
    <path d="M 174.25666809 157.34303284 C 174.53153992 156.74259949 174.90673828 156.27362061 175.41070557 156.15026855 C 176.24925232 156.01872253 177.22850037 155.95777893 178.27760315 155.84477234 C 179.30805969 155.99964905 180.25541687 155.97549438 181.11482239 155.79034424 C 181.82530212 155.81918335 182.45915222 156.20645142 182.94804382 156.54246521 C 183.34927368 157.10498047 183.80311584 157.67898560 183.76176453 158.39772034 C 183.42765808 159.19586182 183.30966187 160.19079590 183.62152100 161.47477722 C 183.50604248 163.00631714 183.38568115 164.65118408 183.65678406 166.47062683 C 183.78071594 168.43063354 183.75498962 170.61218262 183.72473145 172.78689575 C 183.72132874 174.91136169 183.82112122 177.05317688 183.76916504 179.21330261 C 183.85798645 181.39059448 183.64326477 183.53701782 183.73956299 185.49615479 C 183.78041077 187.28811646 183.77947998 188.96716309 183.75566101 190.57116699 C 183.70982361 191.90988159 183.67228699 192.84114075 183.43461609 193.42155457 C 182.78359985 193.60437012 181.77407837 193.62554932 180.58074951 193.66398621 C 179.32435608 193.41569519 178.11146545 193.40986633 176.83441162 193.63658142 C 175.71884155 193.83416748 174.83912659 193.68359375 174.18180847 193.20988464 C 173.77026367 192.60415649 173.91815186 191.78492737 174.17140198 190.76069641 C 174.18373108 189.65815735 174.09594727 188.37727356 174.07756042 186.92436218 C 174.16734314 185.26261902 174.22982788 183.41363525 174.17384338 181.42424011 C 174.22325134 179.42539978 174.33598328 177.42732239 174.18360901 175.30143738 C 174.20158386 173.07951355 174.50186157 170.75469971 174.25666809 157.34303284" stroke-width="0.68413478" fill="rgb(2, 166, 109)" opacity="1.0" stroke="rgb(0, 150, 103)" stroke-opacity="0.54484856" stroke-linecap="round" stroke-linejoin="round"/>
    <path d="M 385.06094360 354.82241821 C 381.15628052 354.78732300 377.25650024 354.78231812 373.32098389 354.79739380 C 369.41668701 354.91851807 365.72180176 354.89419556 362.31182861 354.77166748 C 359.16674805 354.79559326 356.34213257 354.89135742 353.91275024 354.94284058 C 351.94293213 354.96188354 350.45462036 355.02951050 349.53900146 354.66360474 C 349.29421997 353.75726318 349.41271973 352.24935913 349.42846680 350.14227295 C 349.49761963 347.45132446 349.60073853 344.30154419 349.38998413 340.75326538 C 349.53985596 336.79809570 349.43173218 332.44036865 349.45138550 327.79611206 C 349.46044922 322.90588379 349.50891113 317.80856323 349.47052002 312.60192871 C 349.64559937 307.36041260 349.23593140 302.01800537 348.60482788 296.69515991 C 348.12228394 291.44662476 347.79220581 286.27209473 347.59869385 281.16403198 C 347.67025757 276.28918457 348.13208008 271.82092285 348.53723145 267.76510620 C 348.67028809 264.11691284 348.65475464 261.00579834 348.40011597 258.73681641 C 348.14184570 257.39709473 348.68765259 256.78918457 350.06832886 256.60595703 C 352.00595093 256.93048096 354.40884399 256.95587158 357.31689453 256.59442139 C 360.84185791 256.70947266 364.82858276 256.75341797 369.17214966 256.76296997 C 373.68637085 256.85681152 378.33956909 256.48837280 383.21765137 256.88989258 C 388.30307007 256.62786865 393.43356323 256.74099731 398.43304443 256.61779785 C 403.19378662 256.83877563 407.51147461 256.69851685 411.39147949 256.75994873 C 414.83459473 257.01589966 417.51031494 256.86227417 419.24401855 256.64727783 C 420.29446411 256.79415894 420.38949585 257.49496460 420.15023804 258.95413208 C 420.00570679 261.08435059 420.12133789 263.69482422 420.09353638 266.75759888 C 420.02114868 270.24197388 420.07150269 273.96487427 420.29550171 277.98760986 C 420.03903198 282.37130737 420.29119873 287.04464722 420.05978394 291.87179565 C 420.20498657 296.86026001 420.08331299 301.89627075 420.05758667 306.88208008 C 420.07083130 311.82031250 420.14263916 316.63592529 420.08816528 321.22952271 C 420.10037231 325.57046509 420.26028442 329.72225952 420.13696289 333.64138794 C 419.89608765 337.35372925 420.04107666 340.91351318 420.24862671 344.08526611 C 420.17248535 347.06066895 420.15396118 349.62390137 420.12005615 351.65249634 C 420.04510498 353.18032837 420.00036621 354.27209473 420.17025757 354.85089111 C 420.37060547 354.86822510 420.48046875 354.99276733 385.06094360 354.82241821" stroke-width="0.74839115" fill="rgb(247, 5, 0)" opacity="1.0" stroke="rgb(217, 119, 88)" stroke-opacity="0.8545726" stroke-linecap="round" stroke-linejoin="round"/>
    <path d="M 360.99053955 216.83815002 C 361.09594727 219.10679626 361.12200928 221.33583069 361.00338745 223.55221558 C 360.94778442 225.81175232 360.89044189 228.16621399 360.98071289 230.46862793 C 361.11666870 232.78381348 361.08102417 235.11866760 360.93127441 237.43870544 C 360.87246704 239.76925659 360.93954468 242.06683350 360.93859863 244.29838562 C 361.09313965 246.42166138 361.26727295 248.38212585 361.26052856 250.20008850 C 361.20968628 251.93778992 361.14184570 253.46763611 361.24917603 254.63285828 C 361.31906128 255.45413208 360.97973633 255.83283997 360.15606689 255.80841064 C 359.02328491 255.81864929 357.73260498 255.89637756 356.38043213 255.78874207 C 355.15719604 255.21173096 354.07727051 254.50723267 352.86581421 254.21247864 C 351.52291870 254.35087585 350.53009033 254.41081238 350.14883423 253.90332031 C 350.27603149 252.73530579 350.53463745 251.24351501 350.94671631 249.88189697 C 351.82748413 249.13775635 353.02346802 248.99798584 354.25683594 248.78274536 C 355.01635742 248.10182190 355.08724976 246.98246765 354.87152100 245.48211670 C 354.81359863 243.64604187 354.94888306 241.50976562 355.13317871 239.22486877 C 355.05847168 236.86380005 355.05148315 234.47332764 355.16860962 232.06758118 C 355.12628174 229.64335632 355.07754517 227.29264832 355.00604248 225.10569763 C 354.98251343 223.05184937 354.99832153 221.21365356 355.03143311 219.63296509 C 355.03201294 218.27912903 355.00717163 217.14004517 355.10845947 216.23385620 C 355.50537109 215.68994141 356.14993286 215.35681152 357.06600952 215.03787231 C 358.19683838 214.73635864 359.41870117 214.42152405 360.99053955 216.83815002" stroke-width="1.26251769" fill="rgb(249, 188, 72)" opacity="1.0" stroke="rgb(237, 156, 0)" stroke-opacity="0.44881698" stroke-linecap="round" stroke-linejoin="round"/>
    <path d="M 369.32394409 214.88771057 C 370.15008545 216.87667847 370.60406494 218.93054199 370.71325684 221.05191040 C 370.64422607 223.31509399 370.60623169 225.61676025 370.65405273 227.93157959 C 370.72308350 230.26159668 370.68777466 232.62994385 370.65521240 235.00274658 C 370.79632568 237.27357483 370.77731323 239.46356201 370.67553711 241.57318115 C 370.86312866 243.66287231 370.89108276 245.69467163 370.93435669 247.53004456 C 370.89990234 249.24655151 370.94970703 250.85104370 371.01300049 252.25955200 C 371.24472046 253.46362305 371.43569946 254.39921570 371.42614746 255.09808350 C 371.07104492 255.54275513 370.48535156 255.76997375 369.73968506 255.76611328 C 368.89941406 255.87806702 367.98117065 256.03399658 367.09600830 256.12402344 C 366.33941650 255.97489929 365.83236694 255.60824585 365.53820801 254.95321655 C 365.45559692 254.01579285 365.32406616 252.80992126 365.25180054 251.37080383 C 365.23950195 249.74337769 365.28662109 248.05645752 365.30969238 246.27296448 C 365.33743286 244.39617920 365.39688110 242.49517822 365.36822510 240.59236145 C 365.28622437 238.70275879 365.34088135 236.82939148 365.46292114 234.97648621 C 365.42123413 233.17414856 365.37417603 231.42369080 365.35006714 229.78680420 C 365.37454224 228.22026062 365.40695190 226.73054504 365.37429810 225.31246948 C 365.31707764 224.00196838 365.30154419 222.81872559 365.28625488 221.72436523 C 365.20022583 220.65786743 365.15090942 219.66734314 365.16122437 218.75305176 C 365.27413940 217.92179871 365.31887817 217.13920593 365.45535278 216.35276794 C 365.70468140 215.57257080 366.06011963 214.76847839 369.32394409 214.88771057" stroke-width="0.95405644" fill="rgb(248, 187, 63)" opacity="1.0" stroke="rgb(237, 163, 0)" stroke-opacity="0.40106308" stroke-linecap="round" stroke-linejoin="round"/>
    <path d="M 380.19543457 216.07212830 C 380.73562622 217.92941284 380.99414062 219.80960083 380.86962891 221.80519104 C 380.75238037 223.89244080 380.71990967 226.04902649 380.79067993 228.26155090 C 380.81118774 230.48443604 380.85839844 232.66416931 380.85205078 234.91654968 C 380.82656860 237.19137573 380.78637695 239.49667358 380.72018433 241.73916626 C 380.88458252 243.80589294 380.96627808 245.69110107 381.13830566 247.44889832 C 381.29562378 249.12702942 381.29211426 250.73617554 381.17471313 252.27525330 C 381.18820190 253.61738586 381.17816162 254.62071228 381.00509644 255.24670410 C 380.57803345 255.54794312 379.92446899 255.79545593 379.06396484 255.97071838 C 377.97024536 256.01315308 376.81823730 256.05010986 375.82958984 256.12857056 C 375.05841064 256.14920044 374.49218750 255.99409485 374.20446777 255.50111389 C 374.22903442 254.69181824 374.30480957 253.63912964 374.19061279 252.33045959 C 374.02273560 250.80813599 374.19586182 249.12295532 374.34011841 247.28955078 C 374.26101685 245.38290405 374.18399048 243.37583923 374.19290161 241.25949097 C 374.09768677 239.10958862 374.13220215 237.06558228 374.20541382 235.10658264 C 374.21707153 233.17070007 374.21420288 231.26422119 374.24172974 229.47068787 C 374.07870483 227.81192017 374.08843994 226.30517578 374.23162842 224.83624268 C 374.32443237 223.46269226 374.38293457 222.16989136 374.42181396 220.99172974 C 374.28421021 219.94975281 374.14065552 219.04997253 374.14364624 218.23715210 C 374.38897705 217.48719788 374.80422974 216.71524048 375.40722656 215.96009827 C 376.30001831 215.26536560 377.16418457 214.50050354 380.19543457 216.07212830" stroke-width="1.46914625" fill="rgb(247, 189, 66)" opacity="1.0" stroke="rgb(235, 162, 0)" stroke-opacity="0.23244564" stroke-linecap="round" stroke-linejoin="round"/>
    <path d="M 389.33959961 215.69013977 C 389.74151611 217.81517029 389.96350098 219.98513794 390.09704590 222.16839600 C 390.01483154 224.31314087 389.91854858 226.48443604 390.02529907 228.71153259 C 390.13214111 230.97479248 390.22378540 233.15736389 390.19772339 235.32786560 C 390.15744019 237.59112549 390.09796143 239.83619690 390.00592041 241.98213196 C 389.97879028 244.00506592 390.12979126 245.92909241 390.25512695 247.81254578 C 390.23052979 249.64143372 390.17440796 251.25483704 390.19335938 252.60771179 C 390.35433960 253.74668884 390.41073608 254.65882874 390.32980347 255.26824951 C 389.88677979 255.57984924 389.11376953 255.71766663 388.18441772 255.85482788 C 387.26708984 256.11050415 386.37533569 256.28457642 385.56854248 256.34683228 C 384.91931152 256.14031982 384.50637817 255.59884644 384.23638916 254.78427124 C 384.14428711 253.69067383 384.12710571 252.46604919 384.24893188 251.02679443 C 384.37423706 249.43168640 384.34960938 247.72918701 384.36044312 245.87704468 C 384.32946777 243.91914368 384.30493164 241.97839355 384.26507568 240.05677795 C 384.32846069 238.09829712 384.47674561 236.16177368 384.48028564 234.27014160 C 384.36392212 232.46560669 384.33120728 230.72647095 384.42550659 229.10023499 C 384.46148682 227.58525085 384.29815674 226.16294861 384.31466675 224.82559204 C 384.34423828 223.52494812 384.31939697 222.30680847 384.33358765 221.25898743 C 384.35131836 220.27172852 384.37551880 219.30960083 384.35791016 218.46051025 C 384.37423706 217.70668030 384.49880981 216.97824097 384.68273926 216.31741333 C 384.99349976 215.63119507 385.35900879 214.94470215 389.33959961 215.69013977" stroke-width="1.06548727" fill="rgb(247, 188, 67)" opacity="1.0" stroke="rgb(236, 166, 0)" stroke-opacity="0.27726725" stroke-linecap="round" stroke-linejoin="round"/>
    <path d="M 399.54739380 215.68612671 C 400.08639526 217.64949036 400.37011719 219.69242859 400.39199829 221.77322388 C 400.38836670 223.90814209 400.26434326 226.07678223 400.29577637 228.23152161 C 400.48394775 230.45269775 400.52984619 232.66897583 400.35311890 234.90293884 C 400.30123901 237.18287659 400.37817383 239.42858887 400.41168213 241.57296753 C 400.35733032 243.69259644 400.32003784 245.75846863 400.28121948 247.73942566 C 400.16250610 249.59710693 400.23495483 251.25683594 400.44781494 252.67796326 C 400.51101685 253.93818665 400.34671021 255.00135803 399.92181396 255.69152832 C 399.29681396 255.94378662 398.61035156 255.76913452 397.86773682 255.53724670 C 396.99136353 255.59233093 396.03454590 255.98547363 395.19061279 256.32412720 C 394.56988525 256.36831665 394.04425049 256.13681030 393.66619873 255.46276855 C 393.53656006 254.41314697 393.45608521 253.07565308 393.38040161 251.59030151 C 393.39129639 249.96511841 393.40039062 248.25772095 393.43585205 246.42811584 C 393.55026245 244.54901123 393.57546997 242.58834839 393.43649292 240.62039185 C 393.33563232 238.68370056 393.36880493 236.77017212 393.48895264 234.85792542 C 393.56271362 233.01364136 393.57397461 231.27793884 393.57135010 229.62380981 C 393.60095215 228.04179382 393.65423584 226.50051880 393.66528320 225.07022095 C 393.55859375 223.80134583 393.67037964 222.66516113 393.88391113 221.63597107 C 393.87600708 220.69586182 393.68481445 219.79365540 393.64242554 218.90373230 C 393.85348511 218.00856018 394.14086914 217.07362366 394.39797974 216.11584473 C 394.61618042 215.09304810 394.97082520 214.08181763 399.54739380 215.68612671" stroke-width="1.00796342" fill="rgb(248, 188, 71)" opacity="1.0" stroke="rgb(238, 159, 0)" stroke-opacity="0.3891197" stroke-linecap="round" stroke-linejoin="round"/>
    <path d="M 410.58450317 215.26376343 C 410.66198730 217.37036133 410.67639160 219.52583313 410.68490601 221.64146423 C 410.77377319 223.75132751 410.73727417 225.86723328 410.67770386 227.96636963 C 410.69647217 230.06788635 410.66619873 232.16835022 410.59494019 234.20610046 C 410.85763550 236.27198792 410.97589111 238.35049438 410.80981445 240.48849487 C 410.76773071 242.61679077 410.72763062 244.68769836 410.74130249 246.69421387 C 410.83316040 248.55326843 410.84289551 250.29193115 410.76135254 251.94869995 C 410.84143066 253.43815613 410.92834473 254.61929321 410.89193726 255.40657043 C 410.42214966 255.86363220 409.72610474 255.97872925 408.95986938 255.95251465 C 408.19287109 255.87274170 407.31607056 255.71618652 406.38085938 255.68168640 C 405.53799438 255.80943298 404.90188599 255.75158691 404.54202271 255.34274292 C 404.45297241 254.59312439 404.40509033 253.55000305 404.41372681 252.26293945 C 404.42617798 250.71032715 404.43005371 249.02403259 404.43011475 247.20645142 C 404.54104614 245.28541565 404.56704712 243.33959961 404.48995972 241.35086060 C 404.42782593 239.33169556 404.51907349 237.30807495 404.56741333 235.27603149 C 404.49877930 233.35229492 404.67355347 231.50114441 404.75000000 229.71820068 C 404.64587402 227.97685242 404.58776855 226.25648499 404.55865479 224.67163086 C 404.55346680 223.17384338 404.56268311 221.81364441 404.63613892 220.58210754 C 404.83056641 219.48814392 404.88507080 218.44723511 404.83935547 217.52287292 C 404.81799316 216.63981628 405.04660034 215.88630676 405.58111572 215.19960022 C 406.31604004 214.44955444 407.14654541 213.58450317 410.58450317 215.26376343" stroke-width="0.90904433" fill="rgb(248, 184, 56)" opacity="1.0" stroke="rgb(241, 159, 0)" stroke-opacity="0.50928783" stroke-linecap="round" stroke-linejoin="round"/>
    <path d="M 347.41592407 306.00891113 C 343.98657227 309.58880615 340.49108887 312.89807129 336.41394043 315.64328003 C 332.22717285 318.33316040 327.84576416 320.74871826 323.12924194 322.72442627 C 318.33102417 324.56454468 313.31085205 326.06262207 308.22479248 327.19271851 C 303.06634521 328.62371826 297.69183350 329.55368042 292.11825562 330.09860229 C 286.56689453 330.91256714 280.90811157 331.46520996 275.05172729 331.71685791 C 269.19171143 332.14013672 263.26519775 332.14547729 257.14285278 332.09771729 C 250.90682983 332.18090820 244.63439941 332.10235596 238.27047729 331.70553589 C 231.80535889 331.21643066 225.31387329 330.75436401 218.83256531 330.14978027 C 212.38670349 329.44284058 206.08599854 328.29934692 199.96562195 326.57266235 C 193.86785889 324.93896484 188.02787781 322.83004761 182.48776245 320.17645264 C 177.10865784 317.44812012 172.29461670 314.19668579 168.01495361 310.41558838 C 164.13967896 306.53439331 161.06381226 302.18740845 158.45011902 297.71286011 C 156.21942139 293.37329102 154.86701965 289.15090942 154.43536377 284.92047119 C 154.04417419 281.05148315 154.18844604 277.78390503 155.10870361 275.49328613 C 156.61015320 274.07366943 158.76333618 273.33953857 161.44831848 272.83621216 C 164.48524475 271.95684814 168.01116943 270.80538940 171.90747070 269.45574951 C 176.12948608 268.02655029 180.66687012 266.56832886 185.48423767 265.03765869 C 190.50663757 263.44195557 195.67257690 261.80841064 200.95826721 260.26303101 C 206.32359314 258.83609009 211.79211426 257.50445557 217.32843018 256.29321289 C 222.86351013 255.21229553 228.40216064 254.33891296 234.01008606 253.65487671 C 239.69845581 253.16960144 245.34112549 252.89024353 250.97819519 252.85241699 C 256.69015503 253.05989075 262.41674805 253.48825073 268.11541748 254.12292480 C 273.84521484 254.93847656 279.62091064 255.94461060 285.36257935 257.18115234 C 291.10232544 258.55535889 296.80426025 260.01080322 302.47357178 261.58673096 C 308.06579590 263.26681519 313.56262207 264.99993896 318.94146729 266.67147827 C 324.16641235 268.23327637 329.24157715 269.64682007 334.05886841 270.75332642 C 338.56243896 271.53625488 342.68923950 271.84170532 346.36840820 271.68057251 C 349.60632324 271.60372925 352.32727051 272.05178833 354.35241699 273.36416626 C 355.90478516 275.47683716 356.59802246 278.16088867 356.50033569 281.52328491 C 356.67251587 285.25045776 357.16876221 289.02673340 347.41592407 306.00891113" stroke-width="0.74549162" fill="rgb(217, 159, 81)" opacity="1.0" stroke="rgb(224, 183, 113)" stroke-opacity="0.61272573" stroke-linecap="round" stroke-linejoin="round"/>
    <path d="M 337.63635254 275.94064331 C 332.87255859 277.19000244 328.12030029 278.42968750 323.35647583 279.28814697 C 318.69274902 280.17709351 313.96697998 280.79617310 309.32885742 281.31835938 C 304.84286499 281.96401978 300.28005981 282.40374756 295.69918823 282.84811401 C 291.20434570 283.16558838 286.73370361 283.35186768 282.14447021 283.63598633 C 277.56039429 284.05352783 272.87164307 284.19573975 268.11581421 284.17880249 C 263.30975342 284.34213257 258.40606689 284.36087036 253.46708679 284.31900024 C 248.43663025 284.35617065 243.30158997 284.28540039 238.08053589 284.09515381 C 232.79971313 283.91754150 227.52915955 283.63955688 222.16416931 283.27505493 C 216.74938965 282.99179077 211.36892700 282.48553467 206.03292847 281.93698120 C 200.72955322 281.33511353 195.51254272 280.73782349 190.61903381 280.00064087 C 186.01481628 279.13641357 181.84681702 278.18551636 178.06953430 277.43368530 C 174.88824463 276.84472656 172.48645020 275.45193481 170.21580505 274.09436035 C 167.85188293 273.78390503 165.63063049 273.59579468 164.03559875 272.71456909 C 163.26406860 270.42575073 162.34210205 267.72885132 161.94071960 264.96530151 C 162.84548950 262.32083130 164.99673462 259.99407959 167.71603394 257.74588013 C 170.67980957 255.50572205 174.03631592 253.49293518 177.71020508 251.67900085 C 181.68153381 250.05632019 185.88572693 248.58457947 190.27815247 247.23194885 C 194.92433167 246.02931213 199.76669312 244.98968506 204.72032166 244.01078796 C 209.72952271 243.13377380 214.80827332 242.32817078 219.96636963 241.65014648 C 225.15982056 241.08604431 230.33691406 240.62326050 235.51170349 240.25662231 C 240.68270874 239.99519348 245.85385132 239.80914307 251.07406616 239.67469788 C 256.33456421 239.67782593 261.53308105 239.77116394 266.72778320 239.93898010 C 271.95745850 240.25758362 277.17529297 240.69381714 282.39050293 241.21878052 C 287.66882324 241.77813721 292.91717529 242.41374207 298.03790283 243.19998169 C 303.04135132 244.17541504 307.98443604 245.27078247 312.86563110 246.39675903 C 317.61663818 247.58403015 322.18545532 248.92106628 326.55664062 250.36694336 C 330.67306519 251.92117310 334.34533691 253.62835693 337.60058594 255.35977173 C 340.56640625 257.04364014 342.99783325 258.87042236 344.55581665 261.02297974 C 345.39688110 263.39770508 345.69464111 265.70437622 345.39181519 268.07431030 C 345.16210938 270.38046265 345.09295654 272.43252563 337.63635254 275.94064331" stroke-width="0.54947048" fill="rgb(116, 56, 25)" opacity="1.0" stroke="rgb(142, 84, 45)" stroke-opacity="0.6118742" stroke-linecap="round" stroke-linejoin="round"/>
    <path d="M 340.69015503 255.70564270 C 333.83923340 255.50428772 327.21905518 255.21548462 320.81768799 255.40853882 C 314.63000488 256.05517578 308.98281860 256.61343384 304.11538696 257.92187500 C 299.82580566 259.64953613 296.37213135 261.12066650 293.49432373 261.05944824 C 290.85256958 259.59805298 288.91650391 257.14508057 286.68795776 254.93917847 C 283.64239502 254.27270508 279.83163452 255.17555237 274.84533691 256.49185181 C 269.37890625 257.95364380 263.45327759 258.92080688 257.13064575 259.29763794 C 250.66470337 259.19842529 244.28746033 258.86022949 238.13499451 258.20031738 C 232.42381287 257.73434448 227.36398315 257.06152344 222.99707031 257.13522339 C 219.60966492 258.44961548 217.13203430 260.60681152 214.60935974 261.48153687 C 211.26788330 260.50430298 207.62823486 258.08807373 203.35704041 256.16818237 C 198.60412598 255.70376587 193.69645691 255.98754883 189.03765869 256.33660889 C 185.00488281 257.35662842 181.56910706 257.15200806 178.18984985 255.84515381 C 174.51484680 255.78495789 170.95916748 256.11041260 167.85685730 255.64068604 C 165.06367493 254.03379822 162.38070679 253.08609009 160.03341675 253.17466736 C 158.49841309 252.93568420 158.12081909 251.87997437 158.67408752 250.08024597 C 160.31091309 248.19462585 162.85981750 246.28468323 166.29731750 244.45370483 C 170.50422668 242.68214417 175.29638672 240.94934082 180.47801208 239.24760437 C 185.99078369 237.72419739 191.72007751 236.30612183 197.51441956 235.02372742 C 203.39125061 233.76466370 209.22692871 232.56929016 214.98806763 231.47570801 C 220.64241028 230.43884277 226.18801880 229.47393799 231.70207214 228.61595154 C 237.24703979 227.85098267 242.85844421 227.16105652 248.46296692 226.58168030 C 253.99574280 226.08985901 259.45285034 225.64364624 264.90402222 225.26873779 C 270.37625122 224.99449158 275.88293457 224.81546021 281.40512085 224.74758911 C 286.91613770 224.80618286 292.38946533 224.98713684 297.83743286 225.33843994 C 303.28042603 225.84182739 308.62664795 226.54418945 313.88705444 227.43757629 C 319.04772949 228.50653076 323.97601318 229.78837585 328.64688110 231.26081848 C 333.06402588 232.94654846 337.11779785 234.90139771 340.74053955 237.06481934 C 343.76672363 239.44567871 346.05749512 242.00891113 347.59036255 244.79895020 C 348.52789307 247.77082825 348.54281616 250.76634216 347.41241455 253.84114075 C 345.61126709 257.13269043 344.36105347 260.61425781 340.69015503 255.70564270" stroke-width="1.21403694" fill="rgb(249, 213, 3)" opacity="1.0" stroke="rgb(255, 230, 29)" stroke-opacity="0.83005834" stroke-linecap="round" stroke-linejoin="round"/>
    <path d="M 250.59953308 232.33634949 C 250.57868958 232.35060120 250.59384155 232.33918762 250.58833313 232.34597778 C 250.58309937 232.35102844 250.59375000 232.34219360 250.58184814 232.34793091 C 250.59562683 232.34753418 250.58920288 232.35369873 250.57939148 232.34533691 C 250.58880615 232.35269165 250.59657288 232.35173035 250.58302307 232.35231018 C 250.58778381 232.35322571 250.59185791 232.34794617 250.59326172 232.35791016 C 250.58108521 232.35606384 250.59571838 232.34869385 250.58840942 232.35708618 C 250.58219910 232.35514832 250.59722900 232.35380554 250.58573914 232.35710144 C 250.58470154 232.35076904 250.59677124 232.35789490 250.57723999 232.35620117 C 250.58973694 232.35470581 250.58848572 232.35614014 250.58232117 232.35578918 C 250.58187866 232.36015320 250.58953857 232.35484314 250.59953308 232.33634949" stroke-width="0.00000000" fill="rgb(255, 255, 0)" opacity="1.0" stroke="rgb(196, 193, 0)" stroke-opacity="1.0" stroke-linecap="round" stroke-linejoin="round"/>
    <path d="M 254.58351135 228.54454041 C 254.58410645 228.54087830 254.57965088 228.54234314 254.59448242 228.54272461 C 254.57801819 228.54147339 254.59336853 228.54911804 254.59455872 228.53987122 C 254.58744812 228.54039001 254.58564758 228.55044556 254.60794067 228.54663086 C 254.58604431 228.53700256 254.59420776 228.55197144 254.59640503 228.54156494 C 254.60197449 228.54570007 254.58836365 228.54772949 254.60403442 228.55160522 C 254.59217834 228.53813171 254.59700012 228.55603027 254.59609985 228.54490662 C 254.59727478 228.54568481 254.59849548 228.55097961 254.59002686 228.54577637 C 254.60212708 228.55377197 254.59593201 228.54548645 254.58935547 228.55046082 C 254.60362244 228.54916382 254.59416199 228.54666138 254.58305359 228.54574585 C 254.60986328 228.55697632 254.58050537 228.53843689 254.58351135 228.54454041" stroke-width="0.00000000" fill="rgb(255, 79, 0)" opacity="1.0" stroke="rgb(245, 197, 229)" stroke-opacity="1.0" stroke-linecap="round" stroke-linejoin="round"/>
    <path d="M 348.51678467 247.24732971 C 342.98175049 246.57536316 337.39648438 246.02449036 331.79699707 245.61268616 C 326.29620361 245.35340881 320.87048340 244.99205017 315.48599243 244.65164185 C 310.17269897 244.43981934 304.96438599 244.37747192 299.86886597 244.37313843 C 294.79980469 244.26963806 289.76034546 244.26258850 284.77346802 244.38761902 C 279.84875488 244.51223755 274.98028564 244.46113586 270.03546143 244.32167053 C 264.97848511 244.38276672 259.89349365 244.42814636 254.74076843 244.36880493 C 249.50671387 244.27830505 244.14985657 244.26368713 238.71145630 244.32246399 C 233.18705750 244.32373047 227.57475281 244.37709045 221.95117188 244.52819824 C 216.33151245 244.58836365 210.63551331 244.68719482 204.95840454 244.91007996 C 199.42214966 245.15895081 193.97552490 245.18022156 188.66130066 245.29985046 C 183.59251404 245.53945923 178.85064697 245.90879822 174.47149658 246.31355286 C 170.47846985 246.60514832 167.08033752 246.82447815 164.34280396 247.11619568 C 162.24459839 247.42547607 160.86746216 247.41958618 160.41836548 246.87051392 C 160.80763245 245.55419922 161.59561157 243.62707520 162.89131165 241.13969421 C 164.61772156 238.29124451 166.90252686 235.27824402 169.77111816 232.22846985 C 173.09588623 229.05944824 176.83041382 226.00524902 180.88401794 222.97340393 C 185.01713562 219.85528564 189.50244141 217.03234863 194.30749512 214.75459290 C 198.96279907 212.23229980 203.73828125 210.07945251 208.72102356 208.61944580 C 213.61042786 206.76268005 218.53009033 205.13331604 223.49829102 204.04566956 C 228.43154907 202.89797974 233.50323486 201.94479370 238.58932495 201.37292480 C 243.55375671 200.95851135 248.49818420 200.72265625 253.50616455 200.54077148 C 258.49087524 200.56384277 263.36923218 200.74879456 268.17596436 201.04920959 C 272.93817139 201.39393616 277.65420532 202.03018188 282.33724976 202.85293579 C 286.92022705 203.48448181 291.44055176 204.35800171 295.90798950 205.63075256 C 300.27359009 206.92965698 304.57333374 208.48551941 308.75689697 210.30931091 C 312.88012695 212.24298096 316.92428589 214.34590149 320.80187988 216.73075867 C 324.65982056 219.21861267 328.37890625 221.82502747 332.02871704 224.42474365 C 335.43359375 227.16522217 338.51092529 230.34092712 341.41238403 233.56149292 C 344.16271973 236.76310730 346.51971436 240.31726074 348.29748535 244.23219299 C 350.18197632 248.14259338 352.21206665 251.92352295 348.51678467 247.24732971" stroke-width="0.82811975" fill="rgb(217, 157, 77)" opacity="1.0" stroke="rgb(214, 159, 79)" stroke-opacity="0.44213402" stroke-linecap="round" stroke-linejoin="round"/>
    <path d="M 221.32250977 222.29324341 C 220.66598511 222.02726746 219.94639587 221.79078674 219.34838867 221.65142822 C 218.84558105 221.62702942 218.36091614 221.61415100 217.97657776 221.41371155 C 217.73838806 221.07078552 217.63000488 220.72758484 217.52236938 220.37832642 C 217.43440247 220.03034973 217.51530457 219.69064331 217.77404785 219.36978149 C 218.17376709 219.15931702 218.68701172 218.91519165 219.27604675 218.76034546 C 219.88169861 218.79217529 220.56692505 218.76733398 221.33081055 218.77307129 C 222.04325867 218.74296570 222.70721436 218.79312134 223.38226318 218.74343872 C 224.02012634 218.76625061 224.52388000 218.68740845 224.86224365 218.74911499 C 225.21553040 219.04356384 225.49325562 219.62149048 225.70755005 220.17794800 C 225.82553101 220.75340271 226.04840088 221.45881653 221.32250977 222.29324341" stroke-width="0.54393613" fill="rgb(251, 253, 240)" opacity="1.0" stroke="rgb(222, 219, 202)" stroke-opacity="0.5815178" stroke-linecap="round" stroke-linejoin="round"/>
    <path d="M 251.29107666 209.17214966 C 250.35008240 209.03565979 249.59445190 208.97366333 248.88822937 208.54052734 C 248.19905090 208.01246643 247.50813293 207.68827820 246.88381958 207.46849060 C 246.39506531 207.08033752 246.09046936 206.73196411 245.85469055 206.32351685 C 245.69960022 205.87510681 245.66665649 205.47296143 245.79733276 205.24885559 C 246.14939880 205.13073730 246.61399841 205.03302002 247.02339172 204.84649658 C 247.37698364 204.80952454 247.79827881 204.73327637 248.25518799 204.77507019 C 248.76870728 204.76525879 249.31584167 204.78764343 249.97344971 204.93905640 C 250.62203979 205.18910217 251.21351624 205.52485657 251.88090515 205.93019104 C 252.63560486 206.22070312 253.25961304 206.54173279 253.80744934 207.01115417 C 254.35145569 207.75616455 254.88745117 208.57017517 251.29107666 209.17214966" stroke-width="0.61256695" fill="rgb(250, 247, 222)" opacity="1.0" stroke="rgb(235, 226, 189)" stroke-opacity="0.5928601" stroke-linecap="round" stroke-linejoin="round"/>
    <path d="M 277.99450684 208.81040955 C 278.87908936 209.27691650 279.82748413 209.72930908 280.67959595 210.09025574 C 281.44448853 210.60462952 282.09988403 211.10816956 282.70339966 211.65112305 C 283.13748169 212.22276306 283.58731079 212.61660767 283.85659790 212.89279175 C 283.92221069 213.17308044 283.84710693 213.51069641 283.64236450 213.64807129 C 283.27746582 213.77325439 282.80245972 213.97525024 282.30078125 214.18672180 C 281.94769287 214.23738098 281.48480225 214.08067322 280.98950195 213.82440186 C 280.45736694 213.55223083 279.78125000 213.25398254 279.15673828 212.93919373 C 278.55084229 212.63818359 277.98007202 212.30595398 277.43289185 211.90934753 C 276.95553589 211.58840942 276.49853516 211.14845276 276.12344360 210.62733459 C 275.73855591 210.05558777 275.47167969 209.49676514 277.99450684 208.81040955" stroke-width="0.80388176" fill="rgb(250, 252, 236)" opacity="1.0" stroke="rgb(223, 218, 195)" stroke-opacity="0.5347881" stroke-linecap="round" stroke-linejoin="round"/>
    <path d="M 311.70016479 230.58892822 C 310.86157227 230.59481812 310.18212891 230.37910461 309.65969849 230.01698303 C 309.07604980 229.62120056 308.51907349 229.32603455 308.04022217 229.02583313 C 307.55572510 228.71142578 307.13073730 228.48533630 306.92968750 228.24523926 C 306.90478516 227.94274902 306.87432861 227.66157532 306.88372803 227.47262573 C 307.09240723 227.32217407 307.44534302 227.09188843 307.82098389 226.91233826 C 308.27761841 226.89797974 308.80743408 226.79702759 309.30099487 226.68016052 C 309.80532837 226.73730469 310.34716797 226.77865601 310.92071533 226.83590698 C 311.45724487 226.77214050 311.95593262 226.78486633 312.46289062 226.93833923 C 312.96740723 227.18826294 313.45922852 227.35856628 314.04287720 227.42022705 C 314.62252808 227.67976379 315.20083618 228.04188538 311.70016479 230.58892822" stroke-width="0.74144137" fill="rgb(251, 247, 231)" opacity="1.0" stroke="rgb(238, 233, 198)" stroke-opacity="0.594115" stroke-linecap="round" stroke-linejoin="round"/>
    <path d="M 202.20646667 229.32357788 C 202.23063660 229.76124573 202.24763489 230.14576721 202.21054077 230.49990845 C 202.02110291 230.86140442 201.72872925 231.21795654 201.34083557 231.47969055 C 200.90248108 231.78614807 200.44442749 232.14256287 200.07902527 232.45121765 C 199.79066467 232.93486023 199.48869324 233.32312012 199.02842712 233.43809509 C 198.30288696 233.51531982 197.58891296 233.56929016 196.93312073 233.64360046 C 196.25843811 233.78776550 195.56318665 233.91090393 194.82818604 233.85003662 C 194.20243835 233.83561707 193.74023438 233.78996277 193.33859253 233.67823792 C 192.99827576 233.42376709 192.84982300 233.05448914 192.96611023 232.63082886 C 193.24557495 232.26007080 193.60575867 231.84111023 194.05622864 231.23811340 C 194.52784729 230.56811523 195.12431335 229.84062195 202.20646667 229.32357788" stroke-width="0.62033826" fill="rgb(248, 253, 240)" opacity="1.0" stroke="rgb(222, 212, 196)" stroke-opacity="0.49641478" stroke-linecap="round" stroke-linejoin="round"/>
    <path d="M 276.50323486 227.31910706 C 277.19345093 227.36817932 277.81375122 227.34237671 278.44284058 227.25096130 C 278.97222900 227.31077576 279.27761841 227.56822205 279.49493408 227.85984802 C 279.66665649 228.15847778 279.60272217 228.57632446 279.47531128 228.99412537 C 279.42123413 229.35577393 279.33050537 229.77609253 279.14035034 230.20927429 C 278.73748779 230.47416687 278.23779297 230.64364624 277.59304810 230.78950500 C 276.94906616 230.82101440 276.33746338 230.77648926 275.71093750 230.57026672 C 275.10818481 230.24865723 274.49703979 229.92095947 273.86532593 229.69961548 C 273.29473877 229.39009094 272.79827881 228.92793274 272.37472534 228.46296692 C 272.10534668 227.78666687 271.85836792 227.13240051 271.59634399 226.50489807 C 271.35299683 225.81286621 271.05554199 225.03330994 276.50323486 227.31910706" stroke-width="0.55974400" fill="rgb(250, 252, 237)" opacity="1.0" stroke="rgb(240, 231, 208)" stroke-opacity="0.5768464" stroke-linecap="round" stroke-linejoin="round"/>
    <path d="M 305.46185303 222.32681274 C 304.77569580 222.19345093 304.19100952 222.12931824 303.60855103 222.13710022 C 303.03613281 222.14434814 302.52859497 222.07269287 302.05612183 221.88249207 C 301.64144897 221.60430908 301.34414673 221.23698425 301.07321167 220.74864197 C 300.93557739 220.20205688 300.74887085 219.75277710 300.59213257 219.40400696 C 300.62118530 219.03439331 300.83209229 218.67776489 301.10675049 218.44514465 C 301.34024048 218.36018372 301.59240723 218.37559509 301.90136719 218.49371338 C 302.32192993 218.55419922 302.89453125 218.63002014 303.51773071 218.78587341 C 304.07299805 218.99032593 304.58862305 219.24430847 305.15411377 219.45379639 C 305.72967529 219.77175903 306.28726196 220.20736694 306.83731079 220.53378296 C 307.40328979 220.80345154 307.92147827 221.05477905 305.46185303 222.32681274" stroke-width="0.61331677" fill="rgb(250, 251, 231)" opacity="1.0" stroke="rgb(214, 207, 181)" stroke-opacity="0.52549034" stroke-linecap="round" stroke-linejoin="round"/>
    <path d="M 246.45184326 227.25341797 C 246.34501648 227.50340271 246.30281067 227.82456970 246.30958557 228.24835205 C 246.13656616 228.66413879 245.93939209 229.03430176 245.75056458 229.32542419 C 245.54754639 229.64704895 245.42909241 229.98941040 245.28575134 230.40100098 C 245.00561523 230.60600281 244.69876099 230.70141602 244.37208557 230.69895935 C 243.96281433 230.75929260 243.45999146 230.82778931 243.01614380 230.94157410 C 242.69993591 231.08425903 242.43116760 231.19668579 242.05720520 231.23559570 C 241.79020691 231.24353027 241.67988586 231.17129517 241.49559021 231.03553772 C 241.13441467 230.92085266 240.88900757 230.66343689 240.73777771 230.56146240 C 240.53161621 230.33769226 240.41854858 230.05604553 240.44515991 229.62609863 C 240.64016724 228.92982483 240.69314575 228.01481628 246.45184326 227.25341797" stroke-width="0.65822202" fill="rgb(252, 249, 235)" opacity="1.0" stroke="rgb(224, 208, 183)" stroke-opacity="0.46380955" stroke-linecap="round" stroke-linejoin="round"/>
  </g>
</svg>
