<?xml version="1.0" ?>
<svg xmlns="http://www.w3.org/2000/svg" version="1.1" width="512" height="512" viewBox="0 0 512 512">
  <defs/>
  <g>
    <path d="M 343.99075317 355.00405884 C 341.50787354 360.70898438 338.49114990 366.23275757 335.04547119 371.37268066 C 331.51840210 376.77780151 327.61657715 382.16247559 323.25259399 387.36511230 C 318.84603882 392.78427124 314.25372314 398.15753174 308.98751831 402.97503662 C 302.96054077 406.95999146 296.20718384 410.24783325 288.86132812 412.83694458 C 281.04913330 414.61987305 272.92294312 415.58728027 264.61193848 416.13427734 C 256.27331543 416.41537476 247.95321655 416.18869019 239.81101990 415.83438110 C 231.96177673 414.69021606 224.36753845 412.97143555 217.11808777 410.58642578 C 210.48345947 407.35916138 204.27478027 403.33822632 198.45364380 398.61172485 C 193.28105164 393.18371582 188.49490356 387.26776123 183.84567261 381.14163208 C 179.19909668 375.07009888 175.18139648 368.61462402 171.61715698 361.91134644 C 168.46006775 355.10046387 165.54365540 348.22232056 163.29554749 341.15484619 C 161.25939941 333.91427612 159.82002258 326.48297119 159.15303040 318.85177612 C 158.42073059 310.97305298 158.14991760 303.13821411 158.73846436 295.23886108 C 159.44888306 287.00326538 160.53694153 278.87750244 162.48612976 270.89154053 C 164.58460999 262.85015869 166.73353577 254.92568970 169.64874268 247.30894470 C 172.63366699 239.87489319 175.89926147 232.69703674 179.25717163 225.80337524 C 182.62690735 219.23164368 186.43702698 213.16998291 190.90559387 207.72752380 C 195.99426270 202.94319153 201.48364258 198.68246460 207.37265015 194.95303345 C 213.68196106 191.66500854 220.28500366 188.88917542 227.18713379 186.61189270 C 234.27847290 184.83187866 241.53410339 183.58534241 248.89387512 182.81153870 C 256.32595825 182.45256042 263.76422119 182.54118347 271.19961548 183.23384094 C 278.43328857 184.43103027 285.48892212 186.08135986 292.38830566 188.17544556 C 299.05169678 190.81350708 305.31524658 193.98640442 311.16592407 197.74186707 C 316.57733154 202.09307861 321.48892212 206.95085144 325.78552246 212.32043457 C 329.53121948 218.23645020 332.91467285 224.71214294 336.59704590 231.12998962 C 339.73681641 238.06878662 342.82232666 245.13993835 345.29348755 252.41772461 C 347.75292969 259.64767456 350.09616089 266.80755615 351.71246338 274.02120972 C 353.16415405 281.16500854 353.69311523 288.46817017 354.52761841 295.91522217 C 354.75115967 303.75897217 354.43719482 311.72360229 353.65859985 319.82595825 C 352.24783325 328.30108643 351.33670044 336.96228027 343.99075317 355.00405884" stroke-width="1.87417972" fill="rgb(239, 176, 41)" opacity="1.0" stroke="rgb(12, 1, 0)" stroke-opacity="0.8943938" stroke-linecap="round" stroke-linejoin="round"/>
    <path d="M 278.26010132 251.46990967 C 272.19354248 252.34472656 266.17523193 253.11163330 260.25653076 253.91905212 C 254.40832520 254.81520081 248.74905396 255.74377441 243.26470947 256.52990723 C 237.94032288 256.93981934 232.91151428 256.95318604 228.17088318 256.48303223 C 223.75759888 255.33558655 219.70976257 253.38247681 216.10089111 250.55828857 C 212.79159546 247.07373047 209.75241089 242.99572754 206.88067627 238.33790588 C 204.16220093 233.27156067 201.17971802 228.23374939 197.75892639 223.45809937 C 193.81730652 218.99784851 189.69143677 214.63998413 185.63148499 210.43998718 C 182.36856079 205.97979736 179.87028503 201.01588440 178.40481567 195.54621887 C 177.37471008 189.72612000 176.78688049 183.73805237 176.48165894 177.70693970 C 176.63792419 171.82313538 176.93125916 166.33335876 177.59074402 161.42361450 C 179.47744751 157.24652100 181.46078491 153.34245300 183.47033691 149.42079163 C 185.68986511 145.48159790 187.97708130 141.52551270 190.17691040 137.40995789 C 192.66902161 133.39746094 195.53866577 129.57250977 198.74726868 125.87429810 C 202.24354553 122.33499908 205.99972534 118.99256134 210.02766418 115.94300842 C 214.38482666 113.20248413 218.92868042 110.70499420 223.68374634 108.45865631 C 228.65272522 106.57395172 233.83955383 105.06983185 239.16804504 103.96019745 C 244.59642029 103.16544342 250.08541870 102.74409485 255.68786621 102.74546814 C 261.23486328 103.15239716 266.77798462 103.96762085 272.25170898 105.18780518 C 277.71679688 106.74431610 283.19110107 108.60805511 288.46859741 110.86759186 C 293.53152466 113.57086945 298.30450439 116.56799316 302.87875366 119.81467438 C 307.29061890 123.30068970 311.48663330 127.03959656 315.36599731 131.04243469 C 318.86209106 135.26165771 322.01669312 139.61071777 324.90768433 144.04034424 C 327.05368042 148.84872437 328.93704224 153.73223877 330.83419800 158.66296387 C 332.50097656 163.65852356 333.80453491 168.55999756 334.27346802 173.76269531 C 334.62640381 179.14328003 334.75488281 184.42549133 334.48635864 189.75192261 C 333.49224854 195.02159119 332.02975464 200.15396118 330.03579712 204.95596313 C 327.47015381 209.39343262 324.38278198 213.61499023 320.88995361 217.60191345 C 317.25881958 221.59887695 313.45932007 225.71109009 309.66854858 229.90032959 C 305.97894287 234.25471497 302.40289307 238.84454346 298.86407471 243.52897644 C 295.15286255 248.19935608 291.39611816 252.86155701 278.26010132 251.46990967" stroke-width="1.60895419" fill="rgb(240, 178, 43)" opacity="1.0" stroke="rgb(155, 115, 41)" stroke-opacity="1.0" stroke-linecap="round" stroke-linejoin="round"/>
    <path d="M 230.63616943 119.59429169 C 230.65037537 119.60115814 230.64880371 119.59288788 230.63909912 119.60705566 C 230.65834045 119.58868408 230.63296509 119.60224915 230.65943909 119.60183716 C 230.64323425 119.58943176 230.64958191 119.60964203 230.65101624 119.59188843 C 230.65110779 119.60807037 230.65376282 119.60332489 230.64927673 119.59468842 C 230.64758301 119.61492920 230.65321350 119.60003662 230.65769958 119.58981323 C 230.64120483 119.62989807 230.65130615 119.60031128 230.64970398 119.60391998 C 230.64518738 119.61977386 230.64526367 119.60140991 230.65946960 119.62061310 C 230.63645935 119.61441803 230.65045166 119.60572052 230.63876343 119.61573792 C 230.64454651 119.62308502 230.64566040 119.59609222 230.64385986 119.63687134 C 230.63958740 119.59944153 230.64306641 119.62983704 230.63616943 119.59429169" stroke-width="0.00000000" fill="rgb(34, 33, 33)" opacity="1.0" stroke="rgb(255, 255, 255)" stroke-opacity="1.0" stroke-linecap="round" stroke-linejoin="round"/>
    <path d="M 292.03274536 119.38440704 C 292.06213379 119.38738251 292.02990723 119.38720703 292.06552124 119.39429474 C 292.03680420 119.38076019 292.04891968 119.39974213 292.04425049 119.38636780 C 292.04907227 119.36631775 292.04544067 119.42163849 292.04843140 119.37081146 C 292.05175781 119.36865997 292.04315186 119.40551758 292.05010986 119.38609314 C 292.05352783 119.37606812 292.03338623 119.40486145 292.05209351 119.38201141 C 292.05130005 119.40059662 292.04898071 119.38111877 292.03744507 119.40123749 C 292.05984497 119.38616943 292.04321289 119.38508606 292.04046631 119.41152954 C 292.05215454 119.37704468 292.04281616 119.39004517 292.03707886 119.39259338 C 292.05181885 119.39610291 292.03817749 119.38721466 292.02777100 119.38534546 C 292.05801392 119.39560699 292.01834106 119.37651825 292.03274536 119.38440704" stroke-width="0.00000000" fill="rgb(38, 38, 38)" opacity="1.0" stroke="rgb(255, 255, 255)" stroke-opacity="1.0" stroke-linecap="round" stroke-linejoin="round"/>
    <path d="M 285.27505493 161.38121033 C 285.95324707 160.88114929 286.55566406 160.44015503 287.22906494 159.96897888 C 287.85360718 159.88601685 288.57302856 159.79843140 289.45132446 159.64459229 C 290.17080688 159.61599731 290.90979004 159.64422607 291.72430420 159.81387329 C 292.58963013 160.12245178 293.32128906 160.60926819 294.05325317 161.06965637 C 294.71743774 161.62187195 295.36352539 162.25073242 295.93627930 162.81286621 C 296.35842896 163.49116516 296.77395630 164.29978943 297.13345337 165.15879822 C 297.50238037 166.00935364 297.68835449 166.85137939 297.59082031 167.65135193 C 297.39083862 168.49014282 297.52758789 169.34175110 297.67367554 170.13670349 C 297.37026978 170.79530334 296.80566406 171.35844421 296.28576660 172.05622864 C 295.82400513 172.89427185 295.11651611 173.66409302 294.16241455 174.25912476 C 293.21389771 174.78849792 292.34716797 175.23181152 291.36758423 175.60523987 C 290.34158325 175.79753113 289.45773315 175.83531189 288.68310547 175.71693420 C 287.92568970 175.41661072 287.33581543 175.02194214 286.77865601 174.55430603 C 286.13174438 174.20327759 285.45480347 174.08692932 284.90090942 173.81089783 C 284.40701294 173.36709595 283.76937866 172.76669312 283.23831177 172.00755310 C 282.85079956 171.11386108 282.45877075 170.32981873 282.18444824 169.43656921 C 282.22970581 168.58059692 282.24038696 167.73913574 282.18258667 166.83900452 C 282.18939209 165.99633789 282.28585815 165.29931641 282.67630005 164.63845825 C 283.08602905 163.97538757 283.60360718 163.34732056 284.06274414 162.65444946 C 284.47216797 161.96090698 284.87234497 161.19305420 285.27505493 161.38121033" stroke-width="2.00000000" fill="rgb(20, 87, 191)" opacity="1.0" stroke="rgb(3, 7, 21)" stroke-opacity="0.97995013" stroke-linecap="round" stroke-linejoin="round"/>
    <path d="M 215.38015747 194.92083740 C 212.27001953 194.58938599 209.21237183 194.30603027 206.18576050 193.83023071 C 203.07518005 193.12431335 199.94686890 192.48812866 196.87011719 191.92507935 C 193.76016235 191.72274780 190.56002808 191.78352356 187.25711060 192.06086731 C 183.91673279 192.02429199 180.43901062 192.03910828 176.94351196 191.98719788 C 173.42977905 191.74528503 169.91677856 191.62290955 166.36207581 191.87881470 C 162.76181030 192.20964050 159.18577576 192.12849426 155.68693542 192.14042664 C 152.30087280 192.87577820 148.86189270 193.37225342 145.58142090 193.89364624 C 142.77212524 194.42181396 140.52561951 194.70591736 138.90371704 194.71383667 C 138.08264160 194.54048157 138.32162476 194.36952209 139.34017944 194.02647400 C 141.10232544 193.61328125 143.53332520 193.12933350 146.36695862 192.39387512 C 149.60513306 192.00474548 153.10829163 191.42335510 156.61427307 190.80546570 C 160.07110596 190.88354492 163.52363586 190.71481323 167.09823608 190.13471985 C 170.96905518 190.03324890 174.93759155 190.08195496 178.98741150 190.15296936 C 183.07612610 190.31437683 187.16891479 190.30102539 191.20831299 190.26135254 C 195.07341003 190.14334106 198.79866028 190.09594727 202.38040161 190.07150269 C 205.78672791 190.03788757 208.98320007 190.02319336 212.03161621 190.05282593 C 214.83073425 190.07319641 217.50267029 190.08424377 220.02001953 190.11949158 C 222.45452881 190.16831970 224.77018738 190.17390442 226.94999695 190.21156311 C 229.11164856 190.22676086 231.27033997 190.21420288 233.35896301 190.16479492 C 235.39692688 190.16818237 237.46095276 190.12104797 215.38015747 194.92083740" stroke-width="0.17791508" fill="rgb(46, 39, 36)" opacity="1.0" stroke="rgb(0, 1, 21)" stroke-opacity="0.35208756" stroke-linecap="round" stroke-linejoin="round"/>
    <path d="M 186.13510132 199.44805908 C 188.75370789 199.53149414 191.36134338 199.55601501 193.95939636 199.50601196 C 196.62115479 199.45750427 199.31100464 199.45085144 201.98669434 199.48869324 C 204.65997314 199.46693420 207.36247253 199.50964355 210.09872437 199.53517151 C 212.74574280 199.57722473 215.36300659 199.57727051 217.96415710 199.59315491 C 220.43859863 199.33357239 222.88865662 198.86000061 225.38285828 198.50798035 C 227.87458801 198.38261414 230.43638611 198.38150024 232.96286011 198.47155762 C 235.28289795 198.51878357 237.49378967 198.51274109 239.50984192 198.44351196 C 241.18882751 198.35397339 242.47869873 198.41862488 243.33616638 198.80360413 C 243.70678711 199.49226379 243.67562866 200.37078857 243.35409546 201.23365784 C 242.67552185 201.85859680 241.66325378 202.15528870 240.25846863 202.20535278 C 238.51480103 202.36357117 236.45167542 202.52452087 234.22746277 202.49241638 C 231.94480896 202.01322937 229.56126404 201.49028015 227.20855713 201.25028992 C 224.78425598 201.13339233 222.34292603 201.44532776 219.84616089 201.95143127 C 217.22390747 202.08555603 214.58197021 201.97091675 211.91485596 202.05885315 C 209.12852478 202.64996338 206.28958130 203.02288818 203.46662903 203.02816772 C 200.67883301 203.61201477 197.87718201 204.02833557 195.01123047 204.07681274 C 192.28540039 204.62670898 189.81394958 205.13658142 187.66574097 205.64753723 C 185.73617554 206.25016785 184.16973877 206.66325378 182.97277832 206.46707153 C 182.17950439 205.24662781 181.55029297 203.32984924 180.77104187 201.08541870 C 179.59135437 199.01451111 178.32083130 196.95608521 186.13510132 199.44805908" stroke-width="2.00000000" fill="rgb(249, 188, 49)" opacity="1.0" stroke="rgb(0, 0, 15)" stroke-opacity="0.3317622" stroke-linecap="round" stroke-linejoin="round"/>
    <path d="M 181.88108826 205.56353760 C 185.43792725 211.05215454 188.63932800 215.63262939 191.62271118 218.05621338 C 194.71002197 217.28340149 198.34162903 215.26596069 203.02117920 213.52813721 C 208.39324951 212.10183716 213.80183411 210.90182495 218.66387939 209.95252991 C 222.49536133 209.04473877 225.03311157 208.86576843 225.80145264 209.59263611 C 224.45808411 210.39682007 221.36241150 211.01358032 216.98582458 211.86386108 C 211.89053345 212.84584045 206.60006714 213.83949280 201.58729553 215.12165833 C 197.15272522 217.05458069 193.78755188 218.52833557 191.02996826 217.68672180 C 188.24235535 214.67604065 185.27525330 210.74446106 181.50973511 207.78108215 C 175.30258179 208.32765198 167.36694336 210.47033691 158.34892273 213.70747375 C 148.90501404 216.68469238 138.87300110 217.63677979 181.88108826 205.56353760" stroke-width="0.45465252" fill="rgb(14, 10, 13)" opacity="1.0" stroke="rgb(0, 0, 36)" stroke-opacity="0.52307284" stroke-linecap="round" stroke-linejoin="round"/>
    <path d="M 324.45269775 190.24667358 C 328.66543579 190.20510864 332.78829956 190.18336487 336.83718872 190.27777100 C 340.84909058 190.32328796 344.74700928 190.28099060 348.37960815 190.53698730 C 351.68182373 190.96888733 354.65270996 191.31205750 357.18765259 191.60794067 C 359.13568115 191.74682617 360.34176636 192.08038330 360.54449463 192.43501282 C 359.74090576 192.79235840 358.04766846 192.82318115 355.65954590 192.42877197 C 352.61843872 191.89648438 348.89297485 191.63960266 344.52984619 191.42678833 C 339.70449829 191.18348694 334.45028687 191.25816345 328.84979248 191.30484009 C 322.97244263 191.32235718 316.78713989 191.63641357 310.35260010 192.04003906 C 303.82373047 192.31147766 297.24316406 192.83799744 290.53927612 193.18988037 C 283.80984497 192.86177063 277.16354370 192.00198364 324.45269775 190.24667358" stroke-width="0.41994518" fill="rgb(22, 10, 12)" opacity="1.0" stroke="rgb(8, 25, 54)" stroke-opacity="0.5439134" stroke-linecap="round" stroke-linejoin="round"/>
    <path d="M 259.56399536 201.56335449 C 270.60821533 201.04695129 281.56115723 200.77241516 292.51675415 200.89291382 C 303.72265625 201.94580078 314.60028076 203.76017761 324.96875000 205.62240601 C 334.55062866 206.28771973 342.99920654 209.36778259 351.32019043 212.06266785 C 358.32434082 214.60939026 363.67916870 216.88612366 366.92517090 218.22392273 C 366.91442871 219.01113892 364.09387207 218.18576050 358.72290039 216.10739136 C 351.22265625 213.67573547 342.30139160 210.98504639 332.85202026 208.34986877 C 323.18954468 207.31997681 314.11584473 205.73431396 305.52111816 204.46783447 C 297.59973145 203.83332825 290.77163696 203.39497375 285.18280029 201.13172913 C 279.43746948 200.54443359 273.60931396 200.96919250 267.59500122 201.32293701 C 261.55230713 201.55213928 255.55963135 201.75837708 259.56399536 201.56335449" stroke-width="0.00000000" fill="rgb(28, 24, 34)" opacity="1.0" stroke="rgb(51, 65, 127)" stroke-opacity="1.0" stroke-linecap="round" stroke-linejoin="round"/>
    <path d="M 288.30068970 209.03988647 C 292.16235352 209.55038452 295.94250488 210.17587280 299.60229492 210.99986267 C 303.10830688 211.88490295 306.44155884 212.78875732 309.52178955 213.76213074 C 312.34094238 214.50935364 314.82376099 215.19905090 316.78979492 215.95205688 C 318.22119141 216.86955261 319.11907959 217.79927063 319.53475952 218.66804504 C 319.56027222 219.30168152 319.26550293 219.54635620 318.72280884 219.35641479 C 318.13821411 218.67419434 317.37188721 217.78024292 316.18096924 216.88600159 C 314.49200439 216.29010010 312.47235107 215.83082581 310.06332397 215.18470764 C 307.36120605 214.64111328 304.53009033 213.95191956 301.57241821 213.15924072 C 298.31344604 212.39933777 294.92022705 211.79684448 291.52499390 211.24259949 C 288.03079224 210.57693481 284.39617920 209.89938354 288.30068970 209.03988647" stroke-width="0.32507449" fill="rgb(21, 9, 25)" opacity="1.0" stroke="rgb(5, 57, 145)" stroke-opacity="0.45012465" stroke-linecap="round" stroke-linejoin="round"/>
    <path d="M 216.46038818 195.00018311 C 213.26058960 194.63572693 210.17677307 194.39164734 207.19073486 194.02975464 C 204.35247803 193.59500122 201.63055420 193.17343140 199.23815918 192.45651245 C 197.29237366 190.95439148 195.45399475 189.17163086 193.46736145 187.29032898 C 191.45187378 185.44267273 189.46401978 183.51840210 187.79852295 181.22439575 C 186.34304810 178.89884949 185.33454895 176.42053223 184.74212646 173.80923462 C 184.30928040 170.99131775 183.89445496 168.19911194 183.79660034 165.43170166 C 184.76013184 162.68354797 186.16769409 159.81967163 187.86987305 156.83482361 C 189.86378479 154.26525879 192.21493530 151.90382385 194.64356995 149.59742737 C 197.29260254 147.71829224 200.11761475 146.32861328 203.21066284 145.12454224 C 206.28627014 144.06170654 209.53080750 143.27719116 212.90139771 142.89718628 C 216.25762939 142.51473999 219.64416504 142.40788269 222.92288208 142.52818298 C 226.05120850 142.78187561 229.04609680 143.47468567 231.92745972 144.18292236 C 234.38758850 145.15596008 236.56152344 146.49258423 238.57232666 148.04205322 C 240.59042358 149.75804138 242.50204468 151.54827881 244.11645508 153.52998352 C 245.39015198 155.75086975 246.52639771 158.09564209 247.29777527 160.54290771 C 247.80842590 163.08189392 247.98890686 165.79441833 248.03921509 168.55566406 C 247.74435425 171.31144714 247.03771973 174.06849670 246.07232666 176.78279114 C 244.87678528 179.35783386 243.20617676 181.82919312 241.43327332 184.25018311 C 239.60507202 186.60279846 237.33110046 188.66462708 234.71321106 190.39735413 C 232.07235718 192.28950500 229.46522522 194.23426819 216.46038818 195.00018311" stroke-width="0.40932980" fill="rgb(0, 0, 3)" opacity="1.0" stroke="rgb(0, 26, 85)" stroke-opacity="0.4870753" stroke-linecap="round" stroke-linejoin="round"/>
    <path d="M 238.57827759 413.90921021 C 237.97503662 416.03408813 237.38572693 418.17147827 236.37947083 419.97073364 C 235.06890869 421.70541382 233.26689148 423.05523682 231.18794250 424.14007568 C 229.09439087 424.96215820 226.91946411 425.44296265 224.65356445 425.31976318 C 222.44201660 425.12005615 220.29113770 425.58734131 217.99324036 426.39996338 C 215.41529846 426.73303223 212.62814331 426.30245972 209.60968018 425.82763672 C 206.63502502 426.04275513 203.92835999 425.70831299 201.48361206 424.75619507 C 198.81890869 424.34036255 196.24342346 424.21206665 193.96838379 423.54251099 C 192.07217407 422.49017334 190.45947266 421.02416992 189.13458252 419.31747437 C 188.24400330 417.39840698 187.72148132 415.41375732 187.38890076 413.48376465 C 187.26019287 411.60040283 187.56831360 409.84216309 188.20471191 408.05801392 C 188.88159180 406.33340454 189.80928040 404.87731934 190.90133667 403.54718018 C 192.24397278 402.56631470 193.76075745 402.06591797 195.63740540 401.53924561 C 197.58412170 400.70037842 199.38612366 399.65100098 201.21858215 398.44894409 C 203.21499634 397.68685913 205.45532227 397.37377930 207.82821655 397.45419312 C 210.37229919 397.39257812 212.97775269 397.39044189 215.65147400 397.41940308 C 218.22172546 397.33801270 220.62553406 397.23767090 222.76353455 397.44445801 C 224.54595947 398.48571777 226.24810791 399.87536621 228.18800354 401.20874023 C 230.36592102 402.39053345 232.71423340 403.43292236 235.07987976 404.41204834 C 237.43696594 405.23797607 239.90812683 405.52273560 242.42350769 405.46466064 C 244.93028259 405.21395874 247.41041565 404.87606812 238.57827759 413.90921021" stroke-width="1.81644881" fill="rgb(232, 171, 40)" opacity="1.0" stroke="rgb(129, 92, 31)" stroke-opacity="1.0" stroke-linecap="round" stroke-linejoin="round"/>
    <path d="M 319.95825195 421.99478149 C 318.84927368 423.37023926 317.38296509 424.21295166 315.59890747 424.65628052 C 313.71203613 425.02746582 311.56027222 425.10583496 309.22204590 425.00643921 C 306.89639282 425.14038086 304.64343262 425.56674194 302.26605225 426.16085815 C 299.75198364 426.01809692 297.11911011 425.93325806 294.49472046 426.06527710 C 291.92883301 426.10006714 289.48648071 425.62081909 287.20025635 424.97427368 C 284.88296509 424.98080444 282.75701904 424.69232178 280.57418823 423.86904907 C 278.46023560 423.00039673 276.63848877 421.64840698 274.99850464 419.95761108 C 273.63433838 417.95458984 272.48562622 415.72476196 271.65155029 413.46383667 C 271.33157349 411.29507446 271.30947876 409.22814941 271.27276611 407.30276489 C 271.40139771 405.64071655 272.04223633 404.33575439 273.24368286 403.30874634 C 274.78137207 402.18838501 276.49411011 400.89428711 278.37670898 399.59313965 C 280.51928711 398.55633545 282.84112549 397.51739502 285.25161743 396.62460327 C 287.84210205 396.04647827 290.50305176 395.55538940 293.28317261 395.37274170 C 296.08758545 395.27407837 298.77539062 395.19573975 301.42312622 395.40731812 C 304.07165527 396.19409180 306.52758789 397.33270264 308.97650146 398.52682495 C 311.50186157 399.40072632 313.87832642 400.05221558 316.14923096 400.51745605 C 318.05725098 401.36386108 319.77572632 402.40191650 321.34609985 403.49472046 C 322.53234863 404.85452271 323.48443604 406.49978638 324.04586792 408.41894531 C 324.45025635 410.42892456 324.61877441 412.76943970 324.30828857 415.33746338 C 323.82421875 417.92596436 323.39047241 420.69064331 319.95825195 421.99478149" stroke-width="1.77378190" fill="rgb(231, 173, 41)" opacity="1.0" stroke="rgb(122, 89, 31)" stroke-opacity="1.0" stroke-linecap="round" stroke-linejoin="round"/>
    <path d="M 402.20086670 360.74600220 C 400.12783813 363.52075195 397.49597168 365.64846802 394.40438843 367.34521484 C 391.37835693 368.99337769 388.10269165 370.05673218 384.89270020 371.07333374 C 381.72970581 371.65713501 378.59671021 372.24343872 375.47753906 372.64764404 C 372.17016602 372.79415894 368.74407959 372.77941895 365.30355835 372.68899536 C 361.98239136 372.81854248 358.75543213 372.65194702 355.50195312 372.19854736 C 352.44995117 371.69699097 349.60623169 371.46719360 346.98452759 371.16522217 C 344.68212891 370.70639038 342.60870361 370.54040527 340.84802246 370.32733154 C 339.60806274 369.95809937 338.62976074 369.73648071 338.02008057 369.59066772 C 338.16818237 368.98220825 339.01358032 367.93490601 340.09765625 366.34335327 C 341.09158325 364.26913452 342.17492676 362.17889404 343.37091064 359.91882324 C 344.42568970 357.91632080 345.43515015 356.20895386 346.40710449 355.26242065 C 347.82629395 355.33892822 349.69393921 355.75875854 352.00521851 356.07107544 C 354.74090576 356.19097900 357.76815796 356.64343262 361.17785645 356.60021973 C 364.71264648 356.70843506 368.40863037 356.40542603 372.08197021 356.00903320 C 375.63537598 355.24874878 378.96102905 354.21694946 382.31985474 353.23809814 C 385.18075562 351.76467896 387.83123779 350.49163818 390.52877808 349.62783813 C 392.82482910 348.71804810 394.97134399 348.23846436 396.85644531 348.25457764 C 398.55398560 348.34976196 399.99249268 348.84222412 401.14294434 349.36383057 C 401.97851562 350.06332397 402.70849609 350.91476440 403.24911499 352.02658081 C 403.89862061 352.99459839 404.55694580 354.08523560 402.20086670 360.74600220" stroke-width="1.82514071" fill="rgb(241, 178, 44)" opacity="1.0" stroke="rgb(23, 17, 20)" stroke-opacity="0.9721512" stroke-linecap="round" stroke-linejoin="round"/>
    <path d="M 273.37002563 125.21264648 C 266.79510498 124.44992828 260.31628418 123.74784851 253.85157776 123.06021881 C 247.37719727 122.37206268 240.96018982 121.57211304 234.65341187 120.82285309 C 228.61621094 120.01280975 222.81745911 119.30285645 217.28926086 118.53353119 C 212.16931152 117.70489502 207.50590515 116.83220673 203.41632080 115.92902374 C 199.85774231 114.97979736 196.92729187 113.93446350 194.73526001 112.88421631 C 193.25149536 111.70703125 192.61193848 110.53886414 192.83628845 109.35766602 C 193.92085266 108.11461639 195.80546570 106.86499786 198.46118164 105.39402771 C 201.65275574 103.48838043 205.00259399 100.77906799 208.60227966 97.38706970 C 212.55332947 93.65290070 216.65670776 89.50592041 220.87832642 85.18202972 C 225.20997620 80.84562683 229.97071838 76.91294861 234.85969543 73.42481232 C 239.81179810 70.31572723 244.91275024 68.10299683 250.21578979 66.92428589 C 255.60479736 66.24356842 260.93649292 66.37467957 266.19723511 67.64514923 C 271.48672485 69.28182220 276.37472534 71.94266510 280.95568848 75.54205322 C 285.61425781 79.13066864 289.83944702 83.20210266 293.70556641 87.47723389 C 297.46224976 91.45439148 301.29507446 94.95391846 304.78305054 98.16678619 C 307.93051147 101.01747894 310.94525146 103.26412964 313.68627930 105.17575073 C 316.10443115 106.60839844 318.27468872 107.81085205 320.21499634 108.96785736 C 321.70529175 110.42209625 323.05770874 111.95789337 324.31903076 113.53486633 C 325.60107422 115.11845398 326.75607300 116.65947723 327.94461060 118.19790649 C 329.04626465 119.77878571 330.24954224 121.41337585 273.37002563 125.21264648" stroke-width="0.64789832" fill="rgb(0, 0, 1)" opacity="1.0" stroke="rgb(30, 32, 35)" stroke-opacity="0.53224254" stroke-linecap="round" stroke-linejoin="round"/>
    <path d="M 312.92495728 136.04882812 C 302.25628662 136.27398682 291.56738281 136.41880798 280.97329712 136.38838196 C 270.49475098 136.17218018 260.14929199 136.12165833 249.95791626 135.94186401 C 240.10899353 135.80700684 230.65408325 135.80441284 221.69613647 135.78732300 C 213.40492249 135.83262634 205.94683838 136.07946777 199.49427795 136.36497498 C 194.18832397 136.53208923 190.21943665 137.08015442 187.77763367 137.34712219 C 186.79084778 135.89009094 185.95240784 133.44728088 184.28869629 130.77940369 C 181.78070068 127.99658966 179.33645630 124.83256531 176.98081970 121.57810211 C 174.80720520 118.56748199 173.17358398 116.30020142 172.41967773 114.85410309 C 173.33697510 114.36236572 175.60533142 114.02120209 179.08184814 113.48229980 C 183.29121399 112.74620819 188.21478271 111.06171417 193.79425049 108.69624329 C 200.24102783 106.74452209 207.52996826 105.20182037 215.52493286 104.00009155 C 223.95623779 103.16623688 232.87832642 102.77713776 242.11398315 102.59687805 C 251.45523071 102.71158600 260.71838379 103.08274841 269.88186646 103.71287537 C 278.88290405 104.39098358 287.60751343 105.00640106 295.92843628 105.67367554 C 303.71508789 106.46326447 310.85339355 107.38368988 317.23068237 108.53344727 C 322.89477539 110.11939240 327.72100830 111.94848633 331.87316895 113.35233307 C 335.49942017 113.91069794 338.29748535 114.11734009 339.83078003 114.48371887 C 339.55184937 115.45256805 338.20437622 117.31597900 336.34332275 119.95289612 C 333.85473633 123.27335358 330.76626587 126.94870758 327.72842407 131.12886047 C 324.71826172 135.69895935 321.73858643 140.34930420 312.92495728 136.04882812" stroke-width="0.64398336" fill="rgb(1, 1, 1)" opacity="1.0" stroke="rgb(6, 0, 8)" stroke-opacity="0.57693994" stroke-linecap="round" stroke-linejoin="round"/>
    <path d="M 243.23217773 117.66745758 C 241.32072449 115.60443115 240.22557068 113.56099701 239.95185852 111.56690979 C 241.02433777 110.16158295 242.80786133 109.66448212 244.90774536 110.30912781 C 247.14059448 111.20344543 249.19209290 111.00392914 250.48326111 109.74874878 C 250.51498413 107.98352814 249.43125916 106.37052155 247.23928833 105.49958801 C 244.34161377 105.70384216 241.70350647 105.30197144 240.12698364 103.93725586 C 240.46983337 102.26618958 240.68759155 100.25226593 240.29144287 98.00289917 C 241.21269226 95.64770508 242.99024963 93.15480804 245.44219971 90.80321503 C 248.51618958 89.06221008 252.11155701 87.88262177 255.91053772 87.41378021 C 259.63955688 87.24981689 263.19570923 87.91953278 266.40533447 89.30618286 C 269.01251221 91.09056091 270.67575073 93.44458008 271.26635742 96.28187561 C 271.62258911 99.02589417 272.72344971 101.00576019 273.26110840 102.48715210 C 271.87438965 103.41596222 269.56121826 104.35346985 266.74441528 105.35240173 C 263.96371460 105.40609741 262.11968994 106.18280029 261.74401855 107.66555023 C 263.12048340 109.32527924 265.30523682 110.73076630 267.29223633 111.15841675 C 268.53359985 109.86029053 269.49569702 108.47952271 270.86016846 108.21978760 C 271.77145386 109.18270874 272.08639526 111.15139771 272.32595825 113.32270050 C 271.72036743 114.94364166 270.43374634 115.86336517 268.92712402 116.04016876 C 267.69461060 115.71159363 267.17333984 114.56241608 266.75488281 113.02300262 C 264.89578247 112.44889069 261.93173218 111.62179565 258.24145508 110.19636536 C 253.76094055 108.88692474 249.11851501 107.41386414 243.23217773 117.66745758" stroke-width="0.70529908" fill="rgb(250, 250, 251)" opacity="1.0" stroke="rgb(136, 136, 136)" stroke-opacity="0.7604138" stroke-linecap="round" stroke-linejoin="round"/>
    <path d="M 258.83938599 107.12161255 C 255.31900024 105.42777252 252.11793518 103.60819244 249.62156677 102.27591705 C 247.47654724 102.11231232 245.91410828 102.27224731 244.78602600 101.54878998 C 243.91339111 99.93660736 243.73291016 98.34628296 244.93658447 97.13369751 C 247.31480408 96.42401886 250.53518677 96.07649231 254.11709595 96.13875580 C 257.50842285 96.70790863 260.33670044 97.84346008 262.27047729 99.05436707 C 263.63934326 98.96879578 264.69131470 97.99794006 266.03543091 96.96459198 C 267.49404907 96.32608032 268.54241943 96.49770355 268.86898804 97.44539642 C 268.36227417 98.97921753 267.53802490 100.88613892 266.56307983 102.31380463 C 265.39883423 102.71805573 264.39489746 102.23736572 263.53012085 100.69540405 C 262.95108032 98.69709015 262.57946777 96.39891815 258.83938599 107.12161255" stroke-width="0.61915094" fill="rgb(7, 10, 8)" opacity="1.0" stroke="rgb(102, 103, 103)" stroke-opacity="0.74706733" stroke-linecap="round" stroke-linejoin="round"/>
    <path d="M 244.75534058 92.29302979 C 245.31127930 91.25661469 245.97547913 90.36247253 246.81285095 89.53047943 C 247.62081909 88.81987762 248.61181641 88.35326385 249.67034912 87.97637177 C 250.71475220 87.82922363 251.86479187 87.64877319 253.12174988 87.62029266 C 254.39549255 87.88195801 255.53021240 88.35781097 256.54156494 88.95918274 C 257.53326416 89.61846924 258.49856567 90.45004272 259.32150269 91.49468231 C 259.89300537 92.59708405 260.11352539 93.65840912 260.10165405 94.68711090 C 259.88400269 95.75392151 259.42617798 96.78339386 258.58944702 97.69902802 C 257.53698730 98.43006897 256.24389648 99.21976471 254.95559692 100.19810486 C 253.55198669 100.99995422 252.28472900 101.65396118 251.17428589 102.20336151 C 250.57955933 102.80644226 250.51327515 103.32677460 250.87174988 104.01517487 C 251.58946228 104.65531158 252.60191345 105.15565491 253.94223022 105.42205048 C 255.39830017 105.59149933 256.77661133 105.58664703 258.01553345 105.15242004 C 259.05700684 104.62263489 259.82620239 104.26654816 260.32257080 104.39337921 C 260.49633789 105.08735657 260.25381470 106.05061340 259.53857422 107.11318970 C 258.39431763 108.17961121 257.02911377 109.13723755 255.54458618 109.81509399 C 253.87712097 110.16624451 252.31161499 110.71353149 251.14991760 111.64439392 C 250.24617004 112.82354736 249.19036865 113.69835663 247.95677185 113.98973083 C 247.01693726 114.13518524 246.38226318 113.84224701 246.28457642 113.20812225 C 246.91693115 112.26462555 248.16740417 111.04166412 249.89663696 109.62863159 C 251.89509583 107.74733734 254.06974792 105.65847015 244.75534058 92.29302979" stroke-width="0.33928975" fill="rgb(251, 251, 251)" opacity="1.0" stroke="rgb(255, 255, 255)" stroke-opacity="0.45007733" stroke-linecap="round" stroke-linejoin="round"/>
    <path d="M 306.77294922 144.00761414 C 303.71209717 144.50228882 300.75769043 144.98381042 297.82073975 145.69189453 C 294.73480225 146.23872375 291.74502563 146.92301941 288.63793945 147.73950195 C 285.49945068 148.51437378 282.33987427 149.35293579 279.16412354 150.06092834 C 275.88375854 151.03593445 272.59817505 151.81182861 269.38491821 152.65670776 C 266.18975830 153.50205994 263.05169678 154.15966797 260.06964111 155.04751587 C 257.33508301 155.95222473 254.73503113 156.53630066 252.35392761 157.11505127 C 250.26493835 157.84278870 248.57904053 158.48466492 247.28321838 158.62483215 C 246.35566711 157.76928711 245.48930359 156.66964722 245.12844849 155.62852478 C 245.43153381 154.87437439 246.44902039 154.54820251 248.19783020 154.50863647 C 250.19038391 153.78176880 252.78945923 152.89530945 255.82920837 152.13516235 C 259.24606323 151.21739197 262.78332520 150.02644348 266.53781128 148.83801270 C 270.48120117 147.94511414 274.45947266 146.88780212 278.22506714 145.62759399 C 281.98486328 145.22143555 285.45489502 144.18716431 288.99542236 143.39770508 C 292.53558350 142.63128662 295.85998535 141.73957825 299.11602783 141.29878235 C 302.28857422 140.41276550 305.42654419 139.64268494 308.42391968 139.12130737 C 311.44036865 138.19198608 314.39883423 137.52937317 316.95089722 137.20011902 C 319.26202393 136.92109680 321.16113281 136.69410706 322.26400757 136.71827698 C 322.67477417 137.27232361 322.78109741 138.24197388 322.77828979 139.26589966 C 322.77398682 140.15521240 322.73336792 140.74302673 322.50341797 141.04321289 C 322.10061646 140.74572754 321.57153320 140.23999023 306.77294922 144.00761414" stroke-width="2.00000000" fill="rgb(245, 247, 249)" opacity="1.0" stroke="rgb(4, 7, 17)" stroke-opacity="0.89619917" stroke-linecap="round" stroke-linejoin="round"/>
    <path d="M 297.73022461 317.59707642 C 294.87530518 317.65161133 292.01776123 317.64984131 289.29812622 317.54699707 C 286.87646484 317.01034546 284.85073853 315.81219482 283.08624268 314.26589966 C 281.68600464 312.50527954 280.60165405 310.76837158 279.91339111 308.96597290 C 279.52359009 307.38247681 279.27343750 306.26055908 279.00183105 305.73608398 C 278.90954590 305.93469238 279.03924561 306.87683105 279.49429321 308.34298706 C 280.38265991 310.16259766 281.70825195 312.16738892 283.52261353 314.10037231 C 285.79525757 315.91589355 288.32574463 317.32003784 291.04647827 318.04898071 C 293.89859009 318.20083618 296.85726929 317.15588379 300.04193115 315.48754883 C 303.21997070 313.10211182 306.31549072 310.14892578 309.30969238 306.77255249 C 312.35012817 303.21520996 315.66455078 299.93368530 297.73022461 317.59707642" stroke-width="0.78396064" fill="rgb(0, 0, 0)" opacity="1.0" stroke="rgb(5, 2, 33)" stroke-opacity="0.91917837" stroke-linecap="round" stroke-linejoin="round"/>
    <path d="M 194.03054810 297.07904053 C 196.60845947 300.16021729 199.22346497 303.12023926 201.77359009 305.99081421 C 204.25703430 308.73971558 206.69487000 311.29214478 209.04968262 313.53396606 C 211.43688965 315.30288696 213.73252869 316.76834106 216.17091370 317.42413330 C 218.96675110 317.11676025 221.90075684 316.14834595 224.72196960 314.37353516 C 227.20082092 312.06732178 228.97695923 309.30944824 229.75958252 305.88015747 C 229.74298096 302.12524414 228.75213623 298.24786377 227.14004517 294.27255249 C 225.36010742 290.15716553 223.27543640 286.45294189 220.97276306 283.09545898 C 218.94752502 280.18194580 217.30267334 277.92080688 216.09927368 276.41458130 C 215.94631958 275.64642334 216.54748535 275.70336914 217.69709778 276.72781372 C 219.27438354 278.69079590 221.18861389 281.24172974 223.39788818 284.16137695 C 225.56817627 287.44003296 227.56604004 290.92343140 229.29429626 294.39340210 C 230.82019043 297.72134399 231.49453735 300.98648071 231.66639709 304.19897461 C 231.42549133 307.14086914 230.69436646 309.75592041 229.36572266 312.13815308 C 227.52497864 314.38415527 225.27328491 316.26129150 222.71388245 317.61041260 C 219.85722351 318.52066040 216.91366577 318.79559326 214.02629089 318.54821777 C 211.41421509 317.70590210 209.11132812 316.01956177 206.95610046 313.71875000 C 204.60212708 311.23843384 202.02784729 308.73205566 199.65737915 305.88143921 C 197.29151917 302.97845459 194.81947327 300.09771729 192.27687073 297.25772095 C 189.81465149 294.48779297 187.37364197 291.75387573 185.23216248 288.85070801 C 182.74665833 286.34722900 180.19219971 283.94903564 194.03054810 297.07904053" stroke-width="0.10848261" fill="rgb(28, 7, 24)" opacity="1.0" stroke="rgb(89, 49, 72)" stroke-opacity="0.7818269" stroke-linecap="round" stroke-linejoin="round"/>
    <path d="M 255.88969421 189.73324585 C 253.42227173 188.83544922 251.15422058 187.77658081 249.43766785 186.49958801 C 248.28361511 185.14196777 247.95599365 183.83073425 248.34564209 182.69985962 C 249.42428589 181.77186584 251.04484558 181.13949585 253.08166504 180.79902649 C 255.38084412 180.71936035 257.76818848 180.84880066 260.03890991 181.11740112 C 262.08993530 181.41415405 263.76446533 182.02636719 264.78082275 182.88258362 C 265.00735474 184.11531067 264.81530762 185.36407471 264.05700684 186.50500488 C 262.78564453 187.45806885 261.15747070 188.06434631 259.54226685 188.52288818 C 258.31671143 189.22253418 257.39587402 190.41490173 256.93676758 191.93190002 C 256.84249878 193.65077209 257.00527954 195.56661987 257.34448242 197.58473206 C 257.81292725 199.46427917 258.49484253 201.11099243 259.41989136 202.46775818 C 260.26071167 203.33726501 261.12634277 203.92826843 261.85110474 204.21749878 C 262.06301880 204.39514160 261.77157593 204.40376282 261.27856445 204.27944946 C 260.54598999 204.03567505 259.72509766 203.71374512 258.99710083 203.15528870 C 258.49438477 202.33880615 258.10055542 201.58596802 257.56585693 201.14340210 C 256.76876831 201.07321167 255.80899048 201.25186157 254.87747192 201.66481018 C 254.12315369 202.28048706 253.44888306 203.23052979 252.86235046 204.17837524 C 252.18840027 204.80474854 251.59460449 205.13032532 251.16021729 205.08020020 C 251.17692566 204.74992371 251.65798950 204.37083435 252.39117432 203.86790466 C 253.09828186 203.00878906 253.83387756 202.03831482 254.67695618 200.96708679 C 255.64042664 200.13154602 256.60745239 199.41421509 255.88969421 189.73324585" stroke-width="0.85613906" fill="rgb(5, 2, 20)" opacity="1.0" stroke="rgb(5, 10, 27)" stroke-opacity="0.90064085" stroke-linecap="round" stroke-linejoin="round"/>
    <path d="M 256.09985352 189.24555969 C 255.52279663 188.59005737 254.90773010 187.95368958 254.25256348 187.39732361 C 253.48982239 187.03128052 252.74012756 186.79806519 252.00540161 186.56861877 C 251.32168579 186.16279602 250.83825684 185.69908142 250.49415588 185.13452148 C 250.20411682 184.53015137 250.10263062 183.98687744 250.18914795 183.54203796 C 250.44125366 183.17167664 250.93807983 182.86857605 251.68197632 182.55964661 C 252.61909485 182.30488586 253.55731201 182.16189575 254.47860718 182.08627319 C 255.56037903 182.09524536 256.68338013 182.03817749 257.83410645 181.96133423 C 258.95281982 182.15245056 259.97982788 182.27545166 260.84786987 182.53915405 C 261.51315308 182.94352722 261.91848755 183.49722290 262.11499023 184.27098083 C 262.24105835 185.15872192 262.46154785 186.00454712 256.09985352 189.24555969" stroke-width="0.59018326" fill="rgb(246, 99, 212)" opacity="1.0" stroke="rgb(164, 74, 148)" stroke-opacity="0.6456695" stroke-linecap="round" stroke-linejoin="round"/>
    <path d="M 178.12406921 161.29608154 C 178.93955994 161.74456787 179.72483826 161.86372375 180.58398438 161.67315674 C 181.65823364 161.44837952 182.77497864 161.24592590 183.76887512 161.13830566 C 184.56976318 161.07743835 185.16015625 161.22865295 185.36224365 161.44482422 C 185.28335571 161.78848267 185.00283813 162.29220581 184.68363953 162.82373047 C 184.36956787 163.44557190 183.93481445 163.97807312 183.31272888 164.48948669 C 182.41523743 164.51002502 181.30981445 164.51275635 180.16419983 164.50942993 C 179.04479980 164.51391602 177.86387634 164.34788513 176.71540833 164.18577576 C 175.67448425 164.27958679 174.85609436 164.30549622 174.32023621 164.12759399 C 174.09367371 163.71269226 173.99679565 163.22013855 174.05462646 162.70817566 C 173.88288879 162.36106873 173.84751892 162.28237915 178.12406921 161.29608154" stroke-width="1.78248143" fill="rgb(243, 245, 255)" opacity="1.0" stroke="rgb(0, 0, 35)" stroke-opacity="0.46558714" stroke-linecap="round" stroke-linejoin="round"/>
  </g>
</svg>
