<?xml version="1.0" ?>
<svg xmlns="http://www.w3.org/2000/svg" version="1.1" width="512" height="512" viewBox="0 0 512 512">
  <defs/>
  <g>
    <path d="M 440.44924927 340.82138062 C 435.78601074 343.77148438 431.31521606 346.74752808 426.95013428 349.35034180 C 421.77651978 349.90927124 415.99639893 349.57904053 409.61538696 348.82653809 C 402.74468994 348.38131714 395.36468506 348.23446655 387.56408691 348.29336548 C 379.33905029 348.50857544 370.59698486 348.80517578 361.39816284 349.15200806 C 351.80944824 349.49581909 341.83154297 349.79067993 331.39248657 350.01025391 C 320.49206543 350.16415405 309.15249634 350.19461060 297.44177246 350.18917847 C 285.35708618 350.33462524 272.84579468 350.20431519 259.96603394 350.26815796 C 246.83612061 350.16528320 233.57814026 350.16848755 220.12504578 350.05477905 C 206.57218933 349.78189087 193.06921387 349.34329224 179.69761658 349.12567139 C 166.52742004 349.22927856 153.69303894 349.50366211 141.40415955 349.77978516 C 129.75309753 350.02850342 118.91159821 350.20626831 109.08808136 350.23004150 C 100.52700043 350.43759155 93.42323303 349.71099854 87.59532166 347.06555176 C 82.75696564 343.91918945 79.88909912 338.95654297 78.41986084 332.42080688 C 77.56175232 324.90850830 77.47291565 316.83972168 77.59949493 308.28140259 C 77.98538971 299.41394043 79.17610931 290.53353882 80.48360443 281.84188843 C 81.83911896 273.57421875 84.06996155 266.05047607 86.69911194 259.53268433 C 89.34437561 254.10900879 93.40568542 250.74438477 98.83265686 248.76994324 C 105.13080597 247.83465576 112.30359650 247.81127930 120.17499542 247.57820129 C 128.81649780 247.21118164 138.17225647 246.68638611 148.15377808 246.44393921 C 158.53256226 246.44209290 169.36993408 246.50271606 180.76068115 245.75222778 C 192.42120361 245.34506226 204.56890869 245.31423950 217.10848999 245.49230957 C 229.91278076 245.80841064 242.84706116 246.27243042 255.92289734 246.98155212 C 269.16116333 247.81579590 282.45669556 248.65748596 295.70831299 249.51026917 C 308.83511353 250.36787415 321.82821655 251.17883301 334.55899048 252.00056458 C 347.01974487 252.71963501 359.09777832 253.28479004 370.68258667 253.60824585 C 381.57211304 253.63075256 391.71307373 253.30615234 400.95919800 252.48518372 C 409.12084961 251.00592041 416.32327271 250.22729492 422.63671875 250.45901489 C 428.08432007 250.47665405 432.35107422 250.19415283 435.07775879 250.37950134 C 435.97851562 251.57566833 436.21170044 253.89157104 436.54696655 257.17657471 C 437.12377930 261.57000732 440.21331787 266.41284180 440.44924927 340.82138062" stroke-width="0.87245750" fill="rgb(235, 52, 1)" opacity="1.0" stroke="rgb(201, 28, 0)" stroke-opacity="0.34718022" stroke-linecap="round" stroke-linejoin="round"/>
    <path d="M 319.39859009 264.85910034 C 315.83300781 264.68243408 312.26092529 264.46456909 308.69540405 264.21395874 C 305.10379028 263.96847534 301.57699585 263.72653198 297.96365356 263.45858765 C 294.36645508 263.20004272 290.76855469 262.94030762 287.13034058 262.67611694 C 283.44869995 262.33895874 279.72714233 261.98583984 275.96466064 261.66616821 C 272.15985107 261.30139160 268.29504395 260.91281128 264.35070801 260.56692505 C 260.36520386 260.25259399 256.29864502 259.94290161 252.14630127 259.64974976 C 247.90219116 259.28842163 243.58798218 258.84478760 239.21893311 258.40621948 C 234.80000305 257.91494751 230.28225708 257.37948608 225.71475220 256.74160767 C 221.17816162 256.06860352 216.66200256 255.39819336 212.15112305 254.66966248 C 207.75079346 253.76838684 203.48251343 252.80165100 199.34620667 251.83822632 C 195.40554810 250.90771484 191.79847717 249.97946167 188.57017517 249.06297302 C 185.72792053 248.13778687 183.40809631 247.22953796 181.76112366 246.46467590 C 180.91195679 245.83091736 181.01708984 245.45346069 182.07423401 245.29609680 C 183.75234985 245.02352905 185.77168274 244.06631470 188.22024536 242.64930725 C 190.85372925 240.83862305 193.68376160 238.70802307 196.85385132 236.55657959 C 199.99809265 234.10295105 203.20533752 231.53018188 206.50578308 229.08076477 C 209.73620605 226.61026001 212.70568848 223.96009827 215.72352600 221.47482300 C 218.59738159 219.12229919 221.34053040 216.76910400 223.81971741 214.49452209 C 226.18527222 212.50904846 228.34671021 210.69760132 230.43984985 209.35882568 C 232.78175354 208.78570557 235.59910583 209.18472290 238.95080566 209.89694214 C 242.59889221 210.74368286 246.50892639 211.93534851 250.68080139 213.26087952 C 255.06340027 214.46202087 259.56472778 215.62779236 264.11038208 216.87719727 C 268.67150879 218.07167053 273.22125244 219.08900452 277.64651489 219.86662292 C 281.90097046 220.30377197 285.90747070 220.41392517 289.64828491 220.52806091 C 293.06335449 222.11007690 296.43344116 223.92417908 299.92703247 225.75157166 C 303.17562866 227.91705322 306.59304810 230.04364014 309.81564331 232.29780579 C 312.74505615 234.89144897 315.63088989 237.54817200 318.57601929 240.01229858 C 321.48693848 242.38589478 323.87826538 245.36894226 326.58526611 248.03179932 C 328.91320801 251.05987549 331.32626343 254.09469604 333.78457642 257.13211060 C 336.19937134 260.18218994 338.65008545 263.13226318 319.39859009 264.85910034" stroke-width="0.78643429" fill="rgb(238, 50, 4)" opacity="1.0" stroke="rgb(228, 38, 0)" stroke-opacity="0.38924512" stroke-linecap="round" stroke-linejoin="round"/>
    <path d="M 303.46090698 249.43234253 C 301.18963623 249.00601196 298.87570190 249.10588074 296.50234985 249.38784790 C 293.91061401 249.28620911 291.25570679 249.16207886 288.45474243 249.30702209 C 285.62985229 249.43884277 282.78073120 249.42510986 279.78201294 249.14010620 C 276.67214966 248.95825195 273.42898560 248.90820312 270.19458008 248.88310242 C 266.97534180 248.76600647 263.64053345 248.73095703 260.13995361 248.66851807 C 256.58743286 248.68496704 252.90101624 248.77949524 249.10337830 248.70013428 C 245.20599365 248.46839905 241.30453491 248.43652344 237.36143494 248.43621826 C 233.41549683 248.28890991 229.38319397 248.27537537 225.42475891 248.17375183 C 221.54676819 248.04818726 217.71997070 247.98144531 213.96026611 247.66662598 C 210.33024597 247.57838440 206.90556335 247.47073364 203.72456360 247.50669861 C 200.86911011 247.42599487 198.38096619 247.26060486 196.26336670 247.23443604 C 194.71325684 247.08222961 193.65533447 246.97825623 193.27706909 246.84109497 C 193.67135620 246.42823792 194.63534546 245.89654541 195.97035217 245.11868286 C 197.67581177 244.17190552 199.57115173 242.73507690 201.65361023 241.00660706 C 203.95533752 239.07339478 206.56877136 237.05290222 209.34216309 235.05883789 C 211.96549988 232.75842285 214.53358459 230.28544617 217.36135864 228.06008911 C 219.95451355 225.58242798 222.80064392 223.41056824 225.36293030 221.13339233 C 227.75054932 218.86103821 229.95849609 216.63206482 232.15316772 214.69049072 C 234.29133606 213.03009033 235.95816040 211.22853088 237.41308594 209.67175293 C 239.28982544 209.07450867 241.57612610 209.06845093 244.26974487 209.46397400 C 247.26309204 209.91751099 250.45500183 210.02215576 253.96636963 210.30622864 C 257.74914551 210.90638733 261.49780273 211.75180054 265.28192139 212.62130737 C 269.04458618 213.66993713 272.79202271 214.72183228 276.29815674 215.88197327 C 279.43222046 217.18899536 282.15075684 218.36605835 284.44793701 219.41291809 C 286.14477539 220.13716125 286.62783813 221.49453735 286.84991455 223.29238892 C 288.56271362 224.53848267 290.77233887 226.25842285 293.25717163 228.43601990 C 296.22851562 230.35852051 299.06631470 232.60952759 301.78335571 234.94941711 C 304.50607300 237.15861511 306.94128418 239.49729919 309.41421509 241.71531677 C 311.77529907 243.67649841 313.68652344 245.58096313 315.10180664 247.48202515 C 316.62249756 248.49427795 318.18066406 248.85754395 303.46090698 249.43234253" stroke-width="0.93612957" fill="rgb(115, 193, 243)" opacity="1.0" stroke="rgb(127, 205, 233)" stroke-opacity="0.48257387" stroke-linecap="round" stroke-linejoin="round"/>
    <path d="M 410.17590332 288.18066406 C 408.26556396 288.89385986 406.23373413 289.20944214 404.06594849 289.22512817 C 401.69631958 289.20410156 399.15100098 289.14611816 396.52432251 289.34356689 C 393.86703491 289.39157104 391.07232666 289.33389282 388.10827637 289.25784302 C 385.03234863 289.28939819 381.83935547 289.26260376 378.55438232 289.20709229 C 375.08544922 289.17062378 371.53454590 289.12304688 367.94125366 288.98028564 C 364.38195801 289.16329956 360.85095215 289.28186035 357.26971436 289.26382446 C 353.72537231 289.27688599 350.31793213 289.13729858 347.12429810 289.23495483 C 344.04580688 289.23934937 341.16787720 289.32138062 338.58517456 289.19107056 C 336.27081299 289.29284668 334.33734131 289.41030884 332.77197266 289.44891357 C 331.62536621 289.18417358 330.90383911 288.57751465 330.52896118 287.68795776 C 330.68890381 286.26559448 330.80767822 284.39450073 330.80984497 282.26339722 C 330.70703125 279.88702393 330.66314697 277.21279907 330.57058716 274.29788208 C 330.60247803 271.27416992 330.60357666 268.25695801 330.50598145 265.26837158 C 330.65249634 262.34194946 330.59072876 259.59579468 330.49670410 257.14443970 C 330.52426147 255.02272034 330.32348633 253.32112122 330.17807007 252.14285278 C 330.57135010 251.53610229 331.52816772 251.24586487 332.85034180 251.12147522 C 334.45333862 251.00476074 336.36163330 250.93180847 338.63610840 251.01693726 C 341.27810669 251.09008789 344.17913818 251.07586670 347.22760010 251.03654480 C 350.41693115 250.97656250 353.84661865 251.04142761 357.43661499 251.08842468 C 361.07257080 251.09672546 364.70486450 251.05741882 368.44259644 251.05293274 C 372.30264282 251.12786865 376.13793945 251.15898132 379.86315918 251.19845581 C 383.50949097 251.19255066 387.13250732 251.07991028 390.66696167 251.08941650 C 394.04003906 251.12989807 397.22766113 251.19374084 400.17398071 251.08418274 C 402.85375977 251.15383911 405.24108887 251.13174438 407.32885742 250.98983765 C 408.97079468 250.83978271 410.07223511 250.95207214 410.62918091 251.21582031 C 410.67706299 251.71232605 410.59207153 252.56591797 410.65411377 253.84764099 C 410.83706665 255.44087219 410.86959839 257.40710449 410.64712524 259.68847656 C 410.49038696 262.20095825 410.57287598 264.87829590 410.58157349 267.71624756 C 410.60842896 270.74322510 410.68759155 273.85989380 410.64663696 277.10079956 C 410.69760132 280.23388672 410.89648438 283.21328735 410.17590332 288.18066406" stroke-width="0.96519011" fill="rgb(115, 193, 242)" opacity="1.0" stroke="rgb(89, 191, 232)" stroke-opacity="0.36591372" stroke-linecap="round" stroke-linejoin="round"/>
    <path d="M 206.58039856 363.76156616 C 205.61293030 366.81503296 204.25598145 369.49514771 203.21450806 372.45733643 C 201.96142578 375.05795288 200.28686523 377.54336548 198.64855957 380.05187988 C 196.70932007 382.34228516 194.76528931 384.66406250 192.51155090 386.84249878 C 189.89373779 388.96533203 187.01773071 390.88046265 183.88923645 392.59265137 C 180.75314331 394.35021973 177.34661865 395.59597778 173.99916077 396.85678101 C 170.62475586 397.99444580 167.20948792 398.52407837 163.75920105 398.84625244 C 160.13542175 399.00509644 156.68510437 398.87588501 153.31256104 398.91503906 C 149.72050476 398.24099731 146.21507263 397.49603271 142.73107910 396.18814087 C 139.28109741 394.66012573 135.98089600 392.82852173 132.62895203 390.90316772 C 129.58229065 388.66281128 126.81573486 386.09170532 124.16006470 383.51507568 C 121.76282501 381.08148193 120.28514099 378.08468628 118.32096863 375.64062500 C 117.05890656 373.19958496 116.10028839 370.76181030 114.71931458 368.33206177 C 113.71105194 365.39834595 112.58890533 362.22091675 112.09870911 358.72958374 C 111.36956024 355.37716675 111.18413544 351.86502075 111.58834839 348.32385254 C 111.90265656 344.77828979 112.50235748 341.31381226 113.22644806 337.92742920 C 114.21175385 334.64569092 115.48198700 331.51037598 116.69405365 328.52877808 C 118.12422943 325.59857178 119.72538757 322.80422974 121.64021301 320.20974731 C 123.50614929 317.58132935 125.53990936 315.06298828 127.74494171 312.72796631 C 130.06767273 310.49377441 132.55094910 308.50747681 135.23118591 306.63973999 C 137.90324402 304.79571533 140.79412842 303.27441406 143.95635986 302.04388428 C 147.14517212 300.92086792 150.53022766 299.96911621 153.96113586 299.30487061 C 157.32836914 299.10092163 160.68220520 299.04159546 164.07707214 299.07138062 C 167.33221436 299.39874268 170.52389526 300.01800537 173.75497437 300.90530396 C 176.88616943 302.06933594 179.98544312 303.30752563 182.97372437 304.81381226 C 185.79814148 306.54681396 188.52137756 308.35980225 191.05969238 310.44113159 C 193.38113403 312.68975830 195.66534424 314.96807861 197.66534424 317.52941895 C 199.69621277 319.90011597 201.42179871 322.54302979 203.01046753 325.22833252 C 204.32546997 327.93862915 205.58460999 330.65093994 206.55146790 333.56222534 C 207.28276062 336.60388184 208.06275940 339.67556763 208.34129333 342.94528198 C 208.70216370 346.30917358 209.15287781 349.66937256 206.58039856 363.76156616" stroke-width="0.70322114" fill="rgb(4, 2, 3)" opacity="1.0" stroke="rgb(34, 30, 32)" stroke-opacity="0.5909618" stroke-linecap="round" stroke-linejoin="round"/>
    <path d="M 409.14572144 356.33029175 C 408.19000244 359.34036255 407.58993530 362.57785034 406.74554443 365.81961060 C 405.51913452 369.23031616 404.13458252 372.66302490 402.37322998 375.91375732 C 400.22259521 378.95794678 398.05181885 381.85217285 395.73730469 384.58990479 C 393.09747314 386.79531860 390.35162354 388.82498169 387.68685913 390.91928101 C 384.71029663 392.53619385 381.69891357 393.93569946 378.73373413 395.51022339 C 375.54803467 396.60839844 372.41683960 397.61233521 369.20507812 398.35537720 C 365.79492188 398.87243652 362.56863403 399.10037231 359.26800537 399.22674561 C 356.07907104 399.18206787 352.89199829 398.40594482 349.45715332 398.05151367 C 346.24472046 397.47418213 343.45907593 396.24981689 340.22976685 395.01123047 C 337.39642334 393.15957642 334.27813721 391.47802734 331.33706665 389.78277588 C 329.10546875 387.50665283 326.54296875 385.68118286 324.44314575 383.35766602 C 322.22549438 380.86395264 320.42922974 378.02270508 318.42584229 375.32177734 C 317.08956909 372.44073486 315.51419067 369.76788330 314.45333862 366.85223389 C 313.44546509 363.76919556 312.74386597 360.28674316 311.98712158 356.88174438 C 311.79440308 353.62582397 311.73373413 350.45297241 312.42764282 347.28729248 C 312.79534912 343.84271240 313.41406250 340.27825928 314.26501465 336.65640259 C 315.40200806 333.22021484 316.74969482 329.79293823 318.06790161 326.45397949 C 319.91104126 323.34005737 321.88690186 320.23403931 323.91571045 317.29269409 C 326.22177124 314.62280273 328.71487427 312.13394165 331.33712769 309.89251709 C 334.11022949 307.71807861 336.95324707 305.92425537 339.97091675 304.23547363 C 343.08224487 302.92413330 346.38208008 301.73022461 349.65524292 300.65570068 C 353.07562256 299.81970215 356.59368896 299.31912231 360.23980713 299.32989502 C 363.80825806 299.39941406 367.29315186 299.83895874 370.73138428 300.28228760 C 374.04028320 301.00659180 377.16717529 302.13000488 380.17315674 303.29891968 C 383.00888062 304.56372070 385.63659668 306.28787231 388.30334473 307.98492432 C 390.88650513 309.87466431 393.28936768 311.99243164 395.62503052 314.23858643 C 397.85128784 316.67193604 399.92852783 319.29235840 401.76885986 322.03097534 C 403.48922729 324.80606079 404.93862915 327.73736572 406.29788208 330.66992188 C 407.25903320 333.71746826 408.13552856 336.80642700 408.63525391 339.90911865 C 409.19949341 342.99014282 409.90347290 346.14288330 409.14572144 356.33029175" stroke-width="0.69462627" fill="rgb(3, 2, 2)" opacity="1.0" stroke="rgb(38, 34, 35)" stroke-opacity="0.5871282" stroke-linecap="round" stroke-linejoin="round"/>
    <path d="M 177.06210327 368.55786133 C 174.84936523 369.95489502 172.76246643 371.50784302 170.52908325 372.60321045 C 168.26263428 373.71078491 165.91998291 374.14959717 163.44784546 374.63949585 C 160.97319031 374.85568237 158.53663635 374.94522095 156.16012573 374.57653809 C 153.83946228 374.21264648 151.44517517 373.38003540 149.17904663 372.26504517 C 147.03236389 371.09207153 144.83006287 369.85067749 143.22549438 368.04016113 C 141.71774292 365.99548340 140.15467834 363.84683228 138.73637390 361.60974121 C 138.02198792 358.97698975 137.61174011 356.18389893 136.69721985 353.40014648 C 136.88822937 350.51181030 136.98165894 347.55944824 137.20472717 344.47579956 C 138.01536560 341.81777954 139.16052246 339.37603760 140.32060242 337.00418091 C 141.78562927 335.04205322 143.25236511 333.14761353 144.91760254 331.40969849 C 146.93997192 329.78906250 149.21763611 328.41757202 151.58180237 327.24108887 C 154.03457642 326.38024902 156.34754944 325.71450806 158.76684570 325.39797974 C 161.14352417 325.68096924 163.37750244 325.76702881 165.69110107 325.93609619 C 168.01403809 326.75119019 170.33564758 327.79901123 172.59587097 329.09692383 C 174.89404297 330.40109253 176.96859741 332.09671021 178.88912964 333.97976685 C 180.38014221 336.19076538 181.77273560 338.52526855 183.01028442 340.81369019 C 183.73422241 343.04641724 184.16548157 345.36901855 184.60034180 347.62445068 C 184.62217712 349.60577393 184.58790588 351.64669800 184.39556885 353.84103394 C 184.11465454 355.92135620 183.71534729 357.76937866 182.84353638 359.35476685 C 182.47331238 361.00912476 182.06092834 362.27017212 177.06210327 368.55786133" stroke-width="0.56448162" fill="rgb(217, 230, 225)" opacity="1.0" stroke="rgb(129, 137, 134)" stroke-opacity="0.92045045" stroke-linecap="round" stroke-linejoin="round"/>
    <path d="M 383.23294067 339.56124878 C 383.85751343 341.96307373 384.62854004 344.32321167 385.05450439 346.82412720 C 384.73602295 349.37585449 384.89303589 351.81188965 384.94882202 354.40206909 C 384.24203491 356.69000244 383.22714233 358.68392944 382.79708862 360.82327271 C 381.87112427 362.61874390 380.84713745 364.62094116 379.55661011 366.46456909 C 377.76098633 368.24511719 375.75204468 370.06768799 373.39498901 371.58349609 C 370.79138184 372.93365479 367.97338867 373.90899658 365.18359375 374.70254517 C 362.42318726 375.01239014 359.81719971 375.00885010 357.39355469 374.76635742 C 354.76293945 374.31524658 352.43826294 373.83523560 350.19122314 373.03207397 C 348.26806641 372.01467896 346.45947266 370.75317383 344.56896973 369.50335693 C 342.85211182 367.81552124 341.20635986 365.95001221 339.87774658 363.75601196 C 338.53726196 361.30661011 337.55718994 358.77194214 337.01086426 356.00772095 C 336.88427734 353.22723389 336.69635010 350.39971924 336.69012451 347.59637451 C 337.09811401 344.98400879 337.88534546 342.28057861 338.83285522 339.69415283 C 340.10552979 337.31649780 341.51037598 335.03997803 343.16247559 333.13552856 C 344.89718628 331.38647461 346.77822876 329.83859253 348.76300049 328.46057129 C 350.99887085 327.29559326 353.31259155 326.28823853 355.84069824 325.75927734 C 358.35357666 325.49151611 360.96099854 325.41647339 363.26034546 325.54437256 C 365.16775513 325.88418579 367.17294312 326.57046509 369.24581909 326.97137451 C 371.17254639 327.90728760 373.16558838 328.98352051 375.17529297 330.16760254 C 377.16525269 331.40109253 379.20852661 332.48257446 383.23294067 339.56124878" stroke-width="0.60678059" fill="rgb(216, 230, 226)" opacity="1.0" stroke="rgb(105, 114, 111)" stroke-opacity="0.85726964" stroke-linecap="round" stroke-linejoin="round"/>
    <path d="M 91.22134399 264.89471436 C 92.61277008 264.61923218 94.02151489 264.67105103 95.47183228 265.00302124 C 96.91286469 265.40026855 98.18972015 265.76602173 99.46995544 266.18988037 C 100.67932129 267.03295898 101.81579590 268.13003540 102.71434021 269.33810425 C 103.63433838 270.67633057 104.26008606 272.09033203 104.61873627 273.70697021 C 104.47116089 275.57873535 104.42476654 277.15405273 104.90640259 278.58520508 C 105.33910370 279.97091675 105.13135529 281.37799072 104.75840759 282.83212280 C 104.05243683 284.32382202 103.35463715 285.90090942 102.77889252 287.50933838 C 101.57064056 288.81039429 100.09110260 289.83526611 98.37749481 290.54061890 C 96.54204559 291.05004883 94.61960602 291.52462769 92.91240692 291.85653687 C 91.60300446 291.68112183 90.21633148 291.53836060 88.88009644 291.54287720 C 87.70231628 291.38858032 86.62238312 290.83364868 85.60644531 290.47305298 C 84.58738708 290.31127930 83.93089294 290.10025024 83.72161102 289.52395630 C 83.77534485 288.85906982 83.87100220 288.00170898 83.84226227 286.88107300 C 84.18626404 285.86959839 84.46670532 284.88677979 84.65897369 283.71450806 C 84.61237335 282.58129883 84.86318207 281.41012573 85.21990967 280.12463379 C 85.48965454 278.85372925 85.75551605 277.41171265 85.85583496 275.87173462 C 86.10192871 274.70968628 86.36654663 273.55917358 86.56217194 272.61279297 C 87.02870178 271.59960938 87.30872345 270.82705688 87.55986023 270.00704956 C 87.89237213 269.19110107 87.95792389 268.27914429 88.20086670 267.44531250 C 88.39362335 266.82260132 88.44805908 266.12063599 91.22134399 264.89471436" stroke-width="2.00000000" fill="rgb(201, 242, 237)" opacity="1.0" stroke="rgb(234, 251, 178)" stroke-opacity="0.8791695" stroke-linecap="round" stroke-linejoin="round"/>
    <path d="M 312.55673218 290.49340820 C 311.58084106 290.37191772 310.62216187 290.23953247 309.59927368 290.15615845 C 308.55645752 290.09402466 307.65167236 290.04547119 306.83670044 289.99490356 C 306.09381104 289.93365479 305.45913696 289.94161987 304.91058350 290.01263428 C 304.52023315 290.03802490 304.26425171 290.03945923 304.11349487 289.95687866 C 304.12600708 289.81393433 304.24301147 289.66183472 304.45758057 289.49655151 C 304.82443237 289.26663208 305.27011108 288.97528076 305.75604248 288.67065430 C 306.30975342 288.33798218 306.95449829 288.00341797 307.68319702 287.66647339 C 308.44131470 287.33068848 309.21841431 287.01586914 310.06414795 286.72283936 C 310.93875122 286.41873169 311.81237793 286.10284424 312.69760132 285.81234741 C 313.55130005 285.54199219 314.46105957 285.29595947 312.55673218 290.49340820" stroke-width="0.76740772" fill="rgb(222, 76, 29)" opacity="1.0" stroke="rgb(185, 3, 0)" stroke-opacity="0.40226907" stroke-linecap="round" stroke-linejoin="round"/>
    <path d="M 439.55438232 342.20324707 C 439.53619385 342.21853638 439.56176758 342.21337891 439.54638672 342.20968628 C 439.54327393 342.21755981 439.55584717 342.21609497 439.54940796 342.21154785 C 439.54925537 342.21862793 439.55215454 342.21658325 439.54913330 342.21408081 C 439.55224609 342.22546387 439.55392456 342.21060181 439.55371094 342.22109985 C 439.54360962 342.22113037 439.55801392 342.21887207 439.55770874 342.21331787 C 439.54415894 342.22531128 439.54745483 342.21545410 439.56140137 342.21875000 C 439.54528809 342.22442627 439.54602051 342.21020508 439.55673218 342.22149658 C 439.55422974 342.22381592 439.54565430 342.20913696 439.54629517 342.21554565 C 439.54879761 342.22857666 439.55148315 342.21060181 439.54492188 342.21206665 C 439.54946899 342.22534180 439.54266357 342.20880127 439.55438232 342.20324707" stroke-width="0.00000000" fill="rgb(255, 255, 255)" opacity="1.0" stroke="rgb(7, 11, 13)" stroke-opacity="1.0" stroke-linecap="round" stroke-linejoin="round"/>
    <path d="M 431.99844360 413.13119507 C 422.87496948 413.15954590 413.77926636 413.26586914 404.67593384 413.59820557 C 395.55130005 414.02642822 386.36755371 414.32571411 377.10174561 414.41452026 C 367.75094604 414.46691895 358.31915283 414.53588867 348.82232666 414.65179443 C 339.25842285 414.85635376 329.55139160 415.06372070 319.74890137 415.21215820 C 309.78665161 415.33889771 299.73358154 415.43667603 289.56011963 415.45846558 C 279.19598389 415.50747681 268.71020508 415.51046753 258.10644531 415.49496460 C 247.40100098 415.49380493 236.59829712 415.49026489 225.73420715 415.47726440 C 214.83250427 415.43383789 203.88899231 415.41046143 192.89129639 415.34750366 C 181.96212769 415.36193848 171.06831360 415.33984375 160.23814392 415.05816650 C 149.49382019 414.68450928 138.90177917 414.47946167 128.50811768 414.42782593 C 118.35912323 414.32568359 108.53840637 414.06375122 99.19298553 413.69784546 C 90.43316650 413.45501709 82.36962891 413.13928223 75.15505219 412.78518677 C 68.99528503 412.25930786 64.23375702 411.12731934 61.19556427 409.26055908 C 60.29556656 406.85516357 61.53264236 404.49798584 64.75093079 402.78164673 C 69.75889587 401.81961060 76.10391235 401.33660889 83.42107391 400.91928101 C 91.48726654 400.55020142 100.12177277 400.28689575 109.21276855 400.17330933 C 118.62364197 400.08697510 128.25369263 400.13363647 137.97752380 400.21661377 C 147.75904846 400.18048096 157.57951355 399.83828735 167.41180420 399.02828979 C 177.27941895 398.05075073 187.17622375 397.25616455 197.11528015 396.96368408 C 207.05981445 396.74868774 217.05586243 396.71200562 227.13540649 396.67941284 C 237.15242004 396.63989258 247.08590698 396.65591431 256.98275757 396.60409546 C 266.84252930 396.56930542 276.62991333 396.63299561 286.33590698 396.75915527 C 295.97042847 396.82086182 305.48388672 396.85470581 314.84661865 396.90270996 C 324.05572510 397.08108521 333.10998535 397.52035522 342.03289795 398.38455200 C 350.87460327 399.19213867 359.55697632 399.72421265 368.21197510 399.84722900 C 376.87960815 399.22821045 385.52719116 398.99459839 394.07440186 399.13418579 C 402.40359497 399.38378906 410.59494019 399.58035278 418.74697876 399.87237549 C 426.83786011 400.30413818 434.73922729 400.79513550 442.39028931 401.35598755 C 449.91207886 402.06857300 457.31680298 403.18222046 464.61697388 404.77551270 C 471.89242554 406.89462280 479.12274170 409.35153198 431.99844360 413.13119507" stroke-width="0.85992259" fill="rgb(229, 238, 252)" opacity="1.0" stroke="rgb(216, 231, 236)" stroke-opacity="0.06760119" stroke-linecap="round" stroke-linejoin="round"/>
    <path d="M 156.11907959 335.79132080 C 157.35160828 335.59164429 158.57632446 335.44863892 159.81996155 335.41036987 C 161.07006836 335.45861816 162.30563354 335.62057495 163.50823975 335.85516357 C 164.67521667 336.24044800 165.77593994 336.80130005 166.89288330 337.42071533 C 167.91722107 338.15106201 168.86291504 338.99108887 169.77221680 339.90097046 C 170.59500122 340.94296265 171.35922241 342.06042480 172.03866577 343.24606323 C 172.65209961 344.50866699 173.15010071 345.79003906 173.50300598 347.16442871 C 173.67114258 348.54473877 173.66836548 349.97085571 173.53114319 351.43771362 C 173.24211121 352.90402222 172.80400085 354.31192017 172.24328613 355.74722290 C 171.61746216 357.13143921 170.81806946 358.41583252 169.92250061 359.62170410 C 168.96357727 360.73348999 167.94229126 361.74868774 166.83111572 362.67166138 C 165.63084412 363.40017700 164.35612488 363.98260498 163.05662537 364.40036011 C 161.73837280 364.64843750 160.34986877 364.76644897 158.99089050 364.72283936 C 157.67451477 364.51425171 156.35896301 364.15264893 155.08264160 363.63421631 C 153.83171082 363.04281616 152.68925476 362.36605835 151.57952881 361.56195068 C 150.60095215 360.64501953 149.68760681 359.68023682 148.89312744 358.61206055 C 148.23997498 357.48275757 147.70449829 356.29605103 147.29272461 355.05224609 C 146.99342346 353.74069214 146.73158264 352.44442749 146.54566956 351.11758423 C 146.47137451 349.77401733 146.53221130 348.45022583 146.68687439 347.11566162 C 146.97003174 345.78518677 147.37374878 344.44433594 147.87127686 343.08505249 C 148.38290405 341.72216797 148.84025574 340.28549194 156.11907959 335.79132080" stroke-width="0.40354836" fill="rgb(188, 195, 204)" opacity="1.0" stroke="rgb(198, 211, 210)" stroke-opacity="0.700994" stroke-linecap="round" stroke-linejoin="round"/>
    <path d="M 348.22817993 345.28216553 C 348.95004272 343.91760254 349.68765259 342.56576538 350.47604370 341.31475830 C 351.40173340 340.22155762 352.37551880 339.23141479 353.38818359 338.38082886 C 354.50900269 337.64236450 355.67135620 337.06564331 356.86148071 336.63381958 C 358.07150269 336.36718750 359.28567505 336.28527832 360.51397705 336.30392456 C 361.80545044 336.36541748 363.05892944 336.54727173 364.32574463 336.83520508 C 365.59057617 337.18966675 366.80038452 337.70333862 367.97933960 338.29980469 C 369.10202026 338.99523926 370.14126587 339.82815552 371.06729126 340.79559326 C 371.86941528 341.88037109 372.57192993 343.09841919 373.12939453 344.38253784 C 373.63113403 345.68923950 373.97299194 347.07525635 374.16775513 348.48492432 C 374.20626831 349.89752197 374.14147949 351.34042358 373.94061279 352.76565552 C 373.61355591 354.16107178 373.16323853 355.51846313 372.55120850 356.78680420 C 371.79486084 357.98742676 370.94757080 359.07485962 370.00634766 360.09185791 C 368.97418213 361.00613403 367.88156128 361.80548096 366.77819824 362.50607300 C 365.56863403 363.03652954 364.32772827 363.49130249 363.10012817 363.80410767 C 361.81973267 363.95147705 360.53152466 363.95535278 359.27160645 363.82369995 C 358.00149536 363.59973145 356.75503540 363.30224609 355.56372070 362.90917969 C 354.36987305 362.38192749 353.25473022 361.79541016 352.22656250 361.10369873 C 351.30651855 360.26214600 350.48764038 359.28479004 349.75460815 358.28015137 C 349.11013794 357.14312744 348.60922241 355.86755371 348.19454956 354.56622314 C 347.73800659 353.20175171 347.24182129 351.80157471 348.22817993 345.28216553" stroke-width="0.55850887" fill="rgb(187, 195, 202)" opacity="1.0" stroke="rgb(201, 214, 216)" stroke-opacity="0.8961448" stroke-linecap="round" stroke-linejoin="round"/>
    <path d="M 445.92114258 336.45751953 C 445.88510132 337.89297485 445.80880737 339.37313843 445.55242920 340.79412842 C 445.61315918 342.06750488 445.54782104 343.29208374 445.46517944 344.36929321 C 445.41021729 345.30047607 445.21435547 346.16693115 444.67651367 346.80130005 C 443.87667847 347.40072632 443.08367920 348.00909424 441.96450806 348.22525024 C 440.77182007 348.04589844 439.55090332 347.98373413 438.28826904 348.04754639 C 437.00729370 348.11953735 435.75112915 348.26065063 434.55392456 348.33633423 C 433.44955444 348.12847900 432.45278931 348.08383179 431.60589600 348.07794189 C 430.96340942 348.16519165 430.64312744 348.02633667 430.41427612 347.59552002 C 430.17578125 346.95571899 430.17773438 346.27804565 430.33520508 345.47677612 C 430.65570068 344.55596924 430.92504883 343.55404663 431.16372681 342.49371338 C 431.36624146 341.24636841 431.62591553 339.94812012 431.77197266 338.67352295 C 431.95370483 337.37991333 432.22210693 336.11181641 432.39675903 334.90966797 C 432.53524780 333.79385376 432.51351929 332.78323364 432.68032837 331.85919189 C 433.05233765 331.04077148 433.52346802 330.41104126 434.18228149 329.83615112 C 434.98953247 329.45401001 435.79489136 329.35040283 436.62188721 329.36123657 C 437.50729370 329.37857056 438.44934082 329.41223145 439.36770630 329.41195679 C 440.23623657 329.25973511 441.00863647 328.96301270 441.58135986 328.82946777 C 442.18554688 328.88623047 442.82537842 328.98529053 443.30697632 328.81359863 C 443.64645386 328.91711426 443.96121216 329.22094727 444.44686890 329.56637573 C 445.04986572 330.01864624 445.74713135 330.54852295 445.92114258 336.45751953" stroke-width="0.69834751" fill="rgb(64, 78, 104)" opacity="1.0" stroke="rgb(30, 63, 75)" stroke-opacity="0.27479315" stroke-linecap="round" stroke-linejoin="round"/>
    <path d="M 319.63992310 289.63952637 C 316.21072388 289.50057983 312.91790771 289.46087646 309.83773804 289.69689941 C 306.85473633 289.78808594 303.95840454 289.68127441 301.29785156 289.61138916 C 298.97244263 289.63803101 296.96847534 289.63861084 295.23660278 289.60018921 C 293.84393311 289.63479614 292.90017700 289.51400757 292.42565918 288.88876343 C 292.17672729 287.87072754 292.12680054 286.79940796 292.28012085 285.88385010 C 292.70455933 285.19418335 293.54632568 284.92916870 294.81076050 284.86727905 C 296.33352661 284.68963623 298.21725464 284.70877075 300.24798584 284.91583252 C 302.39419556 284.66024780 304.66311646 284.71676636 307.01422119 284.82510376 C 309.52401733 284.59808350 312.29025269 284.79794312 315.11373901 284.71856689 C 318.02441406 284.45190430 321.01339722 284.13000488 319.63992310 289.63952637" stroke-width="0.84643888" fill="rgb(212, 199, 178)" opacity="1.0" stroke="rgb(181, 120, 89)" stroke-opacity="0.5804621" stroke-linecap="round" stroke-linejoin="round"/>
    <path d="M 201.77822876 283.23651123 C 202.05722046 281.99499512 202.62208557 280.68386841 203.24525452 279.56100464 C 204.13929749 278.96597290 205.06886292 278.55950928 206.03787231 278.08050537 C 207.09465027 277.91912842 207.94961548 277.94409180 208.66685486 278.16528320 C 209.26492310 278.64385986 210.20091248 279.14456177 211.02392578 279.86654663 C 211.41065979 280.75814819 211.84437561 281.70425415 212.32820129 282.63311768 C 212.36546326 283.61682129 212.34851074 284.67053223 212.25949097 285.63348389 C 211.97959900 286.29031372 211.50068665 286.87850952 210.81915283 287.19924927 C 209.91642761 287.53195190 209.05212402 287.94915771 208.13656616 288.33514404 C 207.11032104 288.46228027 206.04614258 288.41946411 204.91064453 288.08346558 C 203.69088745 287.75521851 202.50791931 287.43563843 201.77822876 283.23651123" stroke-width="0.81273824" fill="rgb(202, 211, 178)" opacity="1.0" stroke="rgb(161, 146, 101)" stroke-opacity="0.42648968" stroke-linecap="round" stroke-linejoin="round"/>
  </g>
</svg>
