<?xml version="1.0" ?>
<svg xmlns="http://www.w3.org/2000/svg" version="1.1" width="512" height="512" viewBox="0 0 512 512">
  <defs/>
  <g>
    <path d="M 634.59185791 390.89871216 C 614.52911377 399.25494385 594.46966553 407.55136108 574.39263916 415.82165527 C 554.27868652 424.05343628 534.12908936 432.16180420 513.88366699 440.10140991 C 493.49475098 447.81512451 472.99728394 455.22799683 452.32440186 462.26959229 C 431.44711304 468.84582520 410.39053345 474.85662842 389.10583496 480.24429321 C 367.59631348 484.92416382 345.90045166 488.83169556 323.95602417 491.83624268 C 301.86828613 493.83535767 279.68603516 494.82315063 257.32446289 494.74676514 C 234.89836121 493.50427246 212.49411011 491.05926514 190.19308472 487.31796265 C 168.11712646 482.27374268 146.26960754 475.90539551 124.82987213 468.10745239 C 103.94447327 458.88314819 83.72830200 448.21026611 64.28969574 436.12805176 C 45.68846893 422.64059448 28.13413620 407.70510864 11.78145409 391.28561401 C -3.13569403 373.34579468 -16.52199173 354.01205444 -28.45298576 333.44296265 C -39.01898956 311.90725708 -48.20975494 289.62603760 -56.02682114 266.80255127 C -62.45854187 243.60058594 -67.45477295 220.15269470 -71.03987122 196.72525024 C -73.27339935 173.59736633 -74.08036804 150.97106934 -73.45790100 128.99984741 C -71.35133362 107.90064240 -67.82276917 87.89741516 -62.83015442 69.31906128 C -56.27554321 52.34073257 -48.16582870 37.22469711 -38.41963959 24.31334686 C -27.05320740 13.86275959 -14.03063488 6.17002630 0.79421353 1.52658248 C 17.41099167 0.28697520 35.72061920 0.54251713 55.58639908 0.89456284 C 76.77128601 0.94935578 99.12345123 0.95082378 122.52452087 0.93593836 C 146.79063416 0.91889870 171.76347351 0.94310683 197.23789978 0.95883703 C 223.03292847 0.92516577 248.97932434 0.76376396 274.84933472 0.69758177 C 300.40090942 1.24348009 325.39093018 1.26049781 349.62463379 -0.87651479 C 373.06140137 -4.71274471 395.68453979 -8.51985359 417.50546265 -11.52616310 C 438.46716309 -13.09509468 458.49966431 -12.82998180 477.49057007 -10.55201721 C 495.28707886 -6.01805258 511.71249390 1.05879831 526.58154297 10.96490288 C 539.95904541 23.59247208 552.02111816 38.56307983 562.98852539 55.47417068 C 572.98876953 74.04953003 582.08831787 94.09859467 590.51556396 115.30116272 C 598.37908936 137.39816284 605.80804443 160.16596985 612.95971680 183.41647339 C 619.87689209 206.97111511 626.60430908 230.71601868 633.21240234 254.56159973 C 639.77478027 278.45886230 646.33032227 302.34094238 634.59185791 390.89871216" stroke-width="2.00000000" fill="rgb(131, 197, 233)" opacity="1.0" stroke="rgb(50, 144, 191)" stroke-opacity="0.6811646" stroke-linecap="round" stroke-linejoin="round"/>
    <path d="M 406.21499634 575.67919922 C 391.64590454 581.85522461 377.08529663 587.99694824 362.51062012 594.14367676 C 347.93060303 600.28100586 333.27935791 606.35400391 318.56439209 612.34851074 C 303.79962158 618.28552246 288.91632080 624.07513428 273.91146851 629.71087646 C 258.76593018 635.14282227 243.42457581 640.36383057 227.94590759 645.30090332 C 212.25875854 649.90429688 196.35316467 654.17425537 180.25079346 658.05645752 C 163.92677307 661.46240234 147.42472839 664.42517090 130.74397278 666.83245850 C 113.91920471 668.68890381 96.98374939 669.95648193 79.94570160 670.59631348 C 62.89331436 670.57586670 45.90332413 669.84643555 28.99890137 668.44427490 C 12.25913620 666.31494141 -4.25120544 663.43548584 -20.42282295 659.81146240 C -36.17119980 655.45739746 -51.38949966 650.34057617 -66.02720642 644.51531982 C -79.98721313 637.99298096 -93.16779327 630.76605225 -105.47299957 622.88922119 C -116.77262878 614.43322754 -127.03865814 605.39422607 -136.19348145 595.86303711 C -144.15507507 585.91662598 -150.85656738 575.55725098 -156.23785400 564.89691162 C -160.25440979 553.96020508 -162.88356018 542.85223389 -164.14648438 531.64398193 C -163.98144531 520.38134766 -162.42723083 509.15011597 -159.45663452 498.02627563 C -155.13511658 487.06097412 -149.52577209 476.29400635 -142.63018799 465.79641724 C -134.52636719 455.64147949 -125.23277283 445.86111450 -114.85692596 436.50894165 C -103.46575165 427.65213013 -91.11392975 419.30590820 -77.94242096 411.52868652 C -64.07961273 404.28637695 -49.55781937 397.65545654 -34.39173508 391.59738159 C -18.74300003 386.13693237 -2.78205824 381.29980469 13.46954060 377.48104858 C 29.84910583 373.68072510 46.45860291 371.20660400 63.23404312 369.62844849 C 79.99990082 368.49789429 96.70861816 368.21807861 113.33526611 368.51281738 C 129.91783142 369.36782837 146.42681885 370.78482056 162.83360291 372.69998169 C 179.10961914 374.96902466 195.28244019 377.53424072 211.23324585 380.42385864 C 226.84165955 383.48910522 242.27386475 386.95458984 257.39831543 390.76721191 C 272.19845581 394.82809448 286.59341431 399.10769653 300.21112061 404.82318115 C 313.24267578 411.73309326 325.85900879 419.50259399 338.30621338 427.74838257 C 350.72415161 436.14331055 363.03103638 444.79669189 375.21441650 453.75799561 C 387.26156616 462.90744019 399.29129028 472.13806152 411.29043579 481.46685791 C 423.22662354 490.86450195 435.09017944 500.33761597 406.21499634 575.67919922" stroke-width="0.27707282" fill="rgb(63, 112, 54)" opacity="1.0" stroke="rgb(79, 127, 144)" stroke-opacity="1.0" stroke-linecap="round" stroke-linejoin="round"/>
    <path d="M 611.22369385 621.94189453 C 598.37878418 624.78967285 585.56652832 627.62896729 572.76928711 630.43908691 C 559.94708252 633.22503662 547.07617188 635.98614502 534.13897705 638.67504883 C 521.19934082 641.26818848 508.16021729 643.73834229 495.03125000 646.06317139 C 481.80511475 648.16210938 468.48693848 650.07196045 455.07553101 651.68310547 C 441.55612183 652.98565674 427.90765381 653.94927979 414.20883179 654.53948975 C 400.41265869 654.69781494 386.56826782 654.41510010 372.71096802 653.61102295 C 358.88647461 652.31170654 345.11267090 650.45080566 331.45657349 648.03991699 C 317.92172241 645.01995850 304.63558960 641.40423584 291.69152832 637.21380615 C 279.09201050 632.42626953 266.89465332 627.05285645 255.17454529 621.10009766 C 244.04086304 614.58612061 233.57469177 607.57116699 223.82850647 600.05877686 C 214.86283875 592.09783936 206.73222351 583.70953369 199.55230713 575.02044678 C 193.31419373 566.09484863 188.07748413 556.90216064 183.88235474 547.54754639 C 180.79704285 538.09851074 178.88368225 528.65057373 178.10610962 519.34063721 C 178.45202637 510.19351196 179.95695496 501.21145630 182.66322327 492.58078003 C 186.65765381 484.38061523 191.89701843 476.66671753 198.32823181 469.63461304 C 205.93785095 463.27636719 214.80363464 457.63424683 224.97618103 452.79067993 C 235.80369568 447.97772217 247.37846375 443.26098633 259.58557129 438.96774292 C 272.06097412 434.50820923 284.90267944 430.44018555 298.29852295 427.11083984 C 311.85919189 424.34747314 325.77426147 422.06973267 339.87228394 419.76873779 C 354.06961060 417.60852051 368.21386719 416.14675903 382.38906860 415.83975220 C 396.67956543 416.19470215 411.02713013 417.03079224 425.21395874 417.95889282 C 439.09826660 419.76373291 452.77505493 421.99963379 466.31192017 423.40621948 C 479.80474854 425.01156616 492.79537964 427.16918945 505.26004028 430.05541992 C 517.34667969 433.02557373 528.90130615 436.77078247 539.83679199 441.39907837 C 550.16882324 446.74612427 559.91424561 452.78833008 569.18115234 459.47607422 C 578.04504395 466.67666626 586.52703857 474.31140137 594.58367920 482.39215088 C 602.21612549 490.88464355 609.57342529 499.69403076 616.72021484 508.75598145 C 623.60113525 518.01293945 630.27178955 527.41967773 636.79815674 536.92559814 C 643.25079346 546.49243164 649.65728760 556.12402344 656.02093506 565.80346680 C 662.29852295 575.50964355 668.55541992 585.23101807 611.22369385 621.94189453" stroke-width="1.73305237" fill="rgb(88, 157, 92)" opacity="1.0" stroke="rgb(31, 83, 33)" stroke-opacity="0.72598296" stroke-linecap="round" stroke-linejoin="round"/>
    <path d="M 460.07763672 616.88403320 C 446.42306519 620.43884277 432.78973389 624.00897217 419.14776611 627.58142090 C 405.45318604 631.10205078 391.77600098 634.63409424 378.04364014 638.14935303 C 364.25637817 641.62463379 350.37631226 645.01965332 336.40832520 648.31451416 C 322.35183716 651.56250000 308.15039062 654.65698242 293.81234741 657.57940674 C 279.33242798 660.32421875 264.72061157 662.85162354 249.96768188 665.12530518 C 235.05702209 667.09655762 220.03742981 668.74572754 204.88294983 670.01300049 C 189.63575745 670.85125732 174.34924316 671.24841309 159.04696655 671.15240479 C 143.75895691 670.50561523 128.55645752 669.28710938 113.52828979 667.48675537 C 98.69512177 665.06909180 84.15785980 661.97631836 69.99503326 658.25097656 C 56.29573441 653.83099365 43.11360168 648.75738525 30.55290604 643.03558350 C 18.73557854 636.67321777 7.68803215 629.70092773 -2.48232675 622.14990234 C -11.69647217 614.05053711 -19.85200500 605.49145508 -26.91112137 596.54327393 C -32.78718948 587.23321533 -37.45715714 577.68029785 -40.86974716 567.97442627 C -42.95652390 558.17218018 -43.68151093 548.48657227 -43.00964737 538.98364258 C -41.01239395 529.72064209 -37.62706375 520.90148926 -32.79761505 512.72766113 C -26.57374573 505.25729370 -18.97192383 498.57382202 -9.91606426 492.95150757 C 0.49793485 488.45611572 12.03203201 484.74771118 24.46870995 481.30746460 C 37.44755936 477.59100342 51.03791809 474.43029785 65.04701996 471.34381104 C 79.24382782 468.29251099 93.79574585 466.08621216 108.53202820 464.12911987 C 123.35932922 462.16567993 138.29039001 460.82223511 153.28283691 459.71536255 C 168.25488281 458.47805786 183.16339111 457.96795654 198.12760925 458.08172607 C 213.13922119 457.96588135 228.10357666 458.35662842 243.01232910 458.99368286 C 257.86968994 459.32528687 272.75561523 460.43917847 287.41421509 462.17181396 C 302.02670288 464.10247803 316.36688232 466.12176514 330.39733887 468.99597168 C 344.22842407 472.05770874 357.77038574 475.51336670 370.96307373 479.42630005 C 383.91223145 483.13775635 396.28442383 487.74481201 408.27856445 492.85748291 C 420.16314697 497.76098633 431.53533936 503.35076904 442.54269409 509.41162109 C 453.20922852 515.93939209 463.79373169 522.55139160 474.31283569 529.16949463 C 484.76818848 535.79022217 495.22195435 542.44146729 505.67242432 549.07354736 C 516.11230469 555.69622803 526.56158447 562.27740479 460.07763672 616.88403320" stroke-width="0.17834343" fill="rgb(170, 209, 153)" opacity="1.0" stroke="rgb(162, 157, 107)" stroke-opacity="0.85454667" stroke-linecap="round" stroke-linejoin="round"/>
    <path d="M 456.84310913 419.41064453 C 452.92102051 419.67117310 448.80340576 419.43579102 444.13223267 418.84616089 C 438.80718994 418.84320068 432.74786377 418.74649048 426.28662109 418.62387085 C 419.57299805 417.18637085 412.57781982 415.96298218 405.04763794 415.08596802 C 397.09335327 414.57040405 388.92666626 414.33367920 380.61273193 414.48184204 C 372.10858154 415.00155640 363.49722290 415.80752563 355.04946899 416.97149658 C 346.98867798 418.52044678 339.18258667 419.46749878 331.49002075 419.94708252 C 324.08261108 420.87213135 317.37966919 421.40365601 311.61523438 422.17425537 C 306.99914551 423.09072876 303.85467529 423.89093018 302.34790039 423.75234985 C 302.20281982 422.00857544 302.31109619 418.48370361 302.24844360 413.31900024 C 302.35168457 406.90921021 302.34884644 399.40707397 302.29891968 390.85638428 C 302.27227783 381.45355225 302.23648071 371.40905762 302.34558105 360.70162964 C 302.28485107 349.41201782 302.36715698 337.85806274 302.35409546 326.11203003 C 302.48388672 314.39022827 302.37692261 302.68188477 302.45547485 291.14175415 C 302.43148804 279.98223877 302.37936401 269.36065674 302.50949097 259.35229492 C 302.20852661 249.92416382 302.36642456 241.24519348 302.46563721 233.66278076 C 302.27731323 227.40151978 302.22271729 222.97685242 302.36352539 220.44331360 C 304.12756348 220.34994507 306.98992920 220.39311218 310.85488892 220.49253845 C 315.97982788 220.55151367 322.14361572 220.60929871 328.88705444 220.46569824 C 336.21820068 220.82768250 344.27575684 220.43054199 353.26733398 220.90109253 C 363.08563232 220.91532898 373.40014648 220.96406555 383.78182983 220.87011719 C 394.40112305 220.30110168 405.09237671 220.68383789 415.46719360 220.66275024 C 425.27551270 220.52102661 434.36026001 220.59217834 442.37960815 220.48175049 C 449.11749268 220.50817871 453.97229004 220.42973328 456.64328003 220.46510315 C 456.85501099 221.75936890 456.55181885 224.31976318 456.88052368 227.77894592 C 456.68811035 232.36132812 456.81185913 237.86541748 456.98175049 244.18220520 C 456.68515015 251.18656921 456.88851929 258.80752563 456.87939453 267.06942749 C 456.89096069 275.95611572 456.87271118 285.17373657 457.00463867 294.77548218 C 456.80215454 304.71212769 456.91973877 314.92065430 456.83020020 325.38049316 C 456.95159912 335.97915649 456.75915527 346.72445679 456.93228149 357.66726685 C 456.80221558 368.83386230 457.18334961 380.01501465 456.84310913 419.41064453" stroke-width="1.79414785" fill="rgb(243, 7, 1)" opacity="1.0" stroke="rgb(154, 19, 14)" stroke-opacity="1.0" stroke-linecap="round" stroke-linejoin="round"/>
    <path d="M 456.84841919 212.66284180 C 449.82083130 209.15400696 443.43203735 204.30848694 436.72695923 199.42605591 C 429.84481812 194.62007141 422.87850952 189.76028442 416.04949951 184.86943054 C 409.37820435 180.01783752 402.85906982 175.44660950 396.74963379 171.08096313 C 391.19293213 167.07565308 386.14144897 163.87316895 382.27880859 160.67556763 C 379.43060303 158.15293884 376.85357666 157.67822266 374.07556152 159.93934631 C 369.31680298 163.06782532 363.53604126 167.85072327 356.13519287 172.92716980 C 348.04574585 178.99072266 339.31680298 185.42317200 330.62142944 192.40116882 C 321.68609619 198.58445740 314.03134155 204.86288452 307.18066406 209.74621582 C 301.77636719 212.64135742 300.61517334 214.04470825 301.89987183 210.81745911 C 302.29190063 203.91586304 302.37979126 197.06944275 300.11737061 193.30868530 C 295.92474365 193.83068848 292.59777832 197.12001038 292.15155029 195.96905518 C 297.00692749 190.33912659 306.47039795 183.64916992 317.08129883 175.43838501 C 327.57391357 167.60409546 337.49835205 160.12977600 346.68557739 153.30638123 C 354.83557129 147.25648499 361.85327148 142.03314209 367.91598511 137.88926697 C 372.57666016 134.41426086 376.18685913 131.70692444 378.77566528 130.41871643 C 382.94024658 133.65493774 389.66348267 137.59220886 397.63107300 143.52314758 C 407.08084106 150.34922791 417.59497070 157.78144836 428.89892578 165.55235291 C 440.25997925 173.91171265 450.86221313 182.05143738 459.84664917 188.98625183 C 466.06289673 193.52566528 467.32907104 195.79501343 463.48367310 195.54684448 C 458.41674805 190.76153564 455.34484863 183.84315491 456.84841919 212.66284180" stroke-width="1.79168439" fill="rgb(215, 18, 12)" opacity="1.0" stroke="rgb(62, 13, 12)" stroke-opacity="0.8924802" stroke-linecap="round" stroke-linejoin="round"/>
    <path d="M 420.27737427 419.02850342 C 415.06845093 418.93066406 409.87973022 418.84967041 404.56762695 418.75851440 C 399.16851807 419.04190063 393.71633911 418.83212280 388.25070190 418.75561523 C 382.80957031 418.76742554 377.49786377 418.96282959 372.25723267 419.04632568 C 367.26202393 418.96426392 362.63433838 418.97628784 358.38739014 419.03146362 C 354.66598511 419.09600830 351.56097412 419.27517700 349.04116821 419.25482178 C 347.17376709 419.45965576 345.98080444 419.62527466 345.49081421 419.12399292 C 345.49957275 417.49826050 345.96539307 415.06527710 345.58792114 411.69393921 C 345.62817383 407.46585083 345.53778076 402.69607544 345.57415771 397.57162476 C 345.65258789 392.24484253 345.55807495 386.81814575 345.57958984 381.36343384 C 345.60119629 376.08853149 345.51629639 371.34909058 345.64047241 367.22817993 C 345.53262329 363.73907471 345.55517578 361.19268799 345.80914307 359.80593872 C 347.48669434 359.90542603 350.30041504 359.77737427 354.02227783 359.76516724 C 358.52114868 359.81558228 363.70788574 359.74874878 369.31527710 359.75674438 C 375.10852051 359.95486450 380.99072266 359.62448120 386.92153931 359.78390503 C 392.89382935 359.68612671 398.57263184 359.89941406 403.84362793 359.85443115 C 408.77062988 359.70806885 413.10510254 359.68951416 416.33688354 359.94821167 C 418.32180786 359.60113525 419.39508057 359.87374878 419.98815918 360.77844238 C 420.04281616 362.09130859 420.09307861 363.70880127 420.12448120 365.54016113 C 420.13253784 367.56796265 420.31790161 369.80117798 420.15179443 372.11172485 C 420.25247192 374.35125732 420.19931030 376.47250366 420.27737427 419.02850342" stroke-width="1.23933744" fill="rgb(222, 102, 98)" opacity="1.0" stroke="rgb(22, 33, 33)" stroke-opacity="0.7623624" stroke-linecap="round" stroke-linejoin="round"/>
    <path d="M 399.40191650 280.75817871 C 398.08731079 280.60574341 396.52581787 280.76104736 394.64425659 280.83486938 C 393.02081299 280.58471680 391.33709717 280.50582886 389.62734985 280.83282471 C 387.93722534 280.84698486 386.38522339 280.85720825 384.90310669 280.46264648 C 383.11312866 280.81634521 381.23294067 281.04003906 379.35467529 280.78405762 C 377.57614136 280.90481567 375.80624390 280.82925415 374.14694214 280.58746338 C 372.82186890 280.90341187 371.47958374 280.78900146 370.26309204 280.41925049 C 369.90045166 279.42074585 369.87612915 277.66119385 369.84985352 275.36065674 C 369.86465454 272.88931274 370.01144409 270.36322021 369.83340454 267.65161133 C 369.66531372 264.75466919 369.89886475 261.88555908 369.85818481 259.02731323 C 370.13641357 256.26858521 369.77853394 253.63238525 369.68670654 251.36625671 C 370.07604980 249.76527405 369.73556519 248.67648315 369.49349976 248.12486267 C 370.20941162 248.13574219 371.57821655 248.00184631 373.42370605 248.06616211 C 375.68359375 248.02912903 378.46289062 247.93307495 381.39901733 248.00357056 C 384.12243652 247.87594604 386.79455566 247.97103882 389.49877930 247.96098328 C 392.05392456 247.61201477 394.29708862 247.67587280 395.95608521 247.92233276 C 397.50955200 247.61109924 398.59863281 247.59463501 399.36737061 247.69662476 C 399.48907471 247.86630249 399.38250732 248.33341980 399.24768066 249.36137390 C 399.39706421 250.68511963 399.41326904 252.31898499 399.19717407 254.31018066 C 399.29690552 256.69802856 399.15295410 259.21261597 399.06716919 261.75744629 C 399.34042358 264.35180664 399.41583252 267.09597778 399.40191650 280.75817871" stroke-width="1.40294337" fill="rgb(234, 196, 175)" opacity="1.0" stroke="rgb(63, 25, 25)" stroke-opacity="0.6396793" stroke-linecap="round" stroke-linejoin="round"/>
    <path d="M 228.89706421 390.01312256 C 224.04382324 390.19094849 219.39445496 390.55081177 214.86973572 390.04156494 C 210.27008057 390.65393066 205.87211609 389.75549316 201.11601257 390.32830811 C 195.57728577 390.11450195 190.05006409 390.11257935 184.32493591 390.07830811 C 178.32444763 390.53222656 172.07142639 389.95721436 165.44972229 390.18969727 C 158.50286865 388.83975220 151.23449707 388.52554321 143.56716919 389.06460571 C 135.68864441 390.29129028 127.73667145 390.31802368 119.76927948 390.23944092 C 112.21122742 389.82473755 105.18958282 390.43572998 98.44187927 390.12722778 C 91.95610046 390.01132202 86.13068390 390.56085205 80.88606262 390.08294678 C 75.94855499 390.49017334 71.96752930 390.65835571 69.49730682 390.20816040 C 68.57667542 388.20614624 68.67010498 384.90261841 69.05211639 380.40197754 C 69.00353241 374.77081299 68.53773499 368.04565430 68.67182922 360.51776123 C 68.63985443 352.41522217 68.30669403 343.97436523 68.88507080 335.29510498 C 69.59143829 326.39465332 69.28633118 317.47006226 69.41688538 308.63662720 C 69.34261322 300.07723999 69.31015015 292.00122070 69.51018524 284.77670288 C 69.40097046 278.84820557 69.46211243 274.50595093 69.50905609 271.72442627 C 71.15447998 270.65747070 72.07498169 269.13772583 73.75159454 268.30249023 C 76.93221283 268.31890869 81.42158508 268.44305420 87.06464386 268.67550659 C 93.15325928 268.43441772 99.91923523 268.76473999 107.12985229 268.84381104 C 114.53589630 268.80749512 122.45266724 268.84045410 130.84957886 268.81152344 C 139.38731384 268.88095093 147.61430359 268.58193970 155.35998535 269.01568604 C 162.97967529 268.26699829 170.71736145 268.60580444 178.31335449 268.86599731 C 185.97512817 268.59973145 193.47583008 269.05636597 200.53784180 268.64981079 C 207.18913269 268.69467163 212.96728516 268.79818726 218.00862122 268.74172974 C 222.29562378 268.58325195 225.79896545 268.80145264 228.11692810 268.96865845 C 229.29139709 269.49411011 229.63862610 270.22119141 229.19502258 271.72152710 C 229.51931763 275.02230835 229.31761169 279.85247803 229.28689575 285.85308838 C 229.49186707 292.43795776 229.27091980 299.41058350 229.25967407 306.60397339 C 229.31289673 314.27697754 229.08412170 322.19689941 229.37551880 330.25924683 C 228.63079834 338.24362183 228.84721375 346.34823608 228.77343750 354.64614868 C 229.03884888 362.89169312 228.30316162 371.05072021 228.89706421 390.01312256" stroke-width="2.00000000" fill="rgb(250, 245, 243)" opacity="1.0" stroke="rgb(44, 57, 51)" stroke-opacity="0.7476023" stroke-linecap="round" stroke-linejoin="round"/>
    <path d="M 210.97195435 256.61016846 C 210.37817383 256.96539307 209.72538757 257.36981201 208.89578247 257.92254639 C 207.75291443 258.61895752 206.29364014 259.34857178 204.60649109 259.99493408 C 202.79025269 260.54180908 200.69990540 261.06344604 198.30026245 261.52041626 C 195.53822327 261.85360718 192.36543274 262.13049316 188.84930420 262.38900757 C 185.10902405 262.59033203 181.13186646 262.72381592 176.87863159 262.81234741 C 172.35867310 262.80673218 167.68331909 262.88870239 162.90232849 262.62933350 C 157.97567749 262.24035645 152.95967102 261.89636230 147.93025208 262.40084839 C 142.69213867 263.57150269 137.23098755 264.52578735 131.46389771 264.82830811 C 125.35656738 264.52920532 119.03033447 264.24588013 112.49652100 264.47317505 C 105.89488220 264.30291748 99.57383728 264.28576660 93.91833496 264.32348633 C 88.98017883 264.36523438 85.17252350 264.47967529 82.86434937 264.16894531 C 82.00420380 263.27770996 82.27216339 262.25143433 83.94503021 260.53375244 C 86.83067322 258.72943115 90.72603607 257.03454590 94.36443329 254.24583435 C 98.83907318 250.28413391 105.06472015 246.60058594 111.23017120 244.02684021 C 115.92024231 240.29368591 120.79979706 236.63462830 126.72677612 233.79315186 C 131.36399841 228.84822083 134.90315247 224.33140564 137.51786804 222.24832153 C 137.89385986 222.78395081 138.61564636 225.14355469 139.84288025 225.88658142 C 142.70553589 224.03276062 145.96162415 221.81590271 149.34571838 220.16160583 C 151.96885681 221.52633667 154.63632202 224.12062073 158.08406067 226.45956421 C 161.93406677 229.18867493 165.18754578 233.13197327 210.97195435 256.61016846" stroke-width="2.00000000" fill="rgb(245, 232, 231)" opacity="1.0" stroke="rgb(158, 7, 0)" stroke-opacity="1.0" stroke-linecap="round" stroke-linejoin="round"/>
    <path d="M 226.27059937 267.22366333 C 221.27331543 267.19805908 216.10572815 267.02478027 210.54504395 267.10800171 C 204.49485779 267.11782837 197.93498230 266.95144653 190.63992310 266.97644043 C 182.36351013 266.95364380 173.28895569 267.39584351 163.33914185 267.37823486 C 152.81372070 267.20220947 142.00387573 267.02682495 132.15249634 267.06195068 C 124.63455963 267.38287354 121.51429749 266.85974121 123.79878998 264.27398682 C 131.55635071 263.95260620 142.28186035 263.47430420 154.13677979 263.58917236 C 165.33288574 263.57412720 174.61164856 263.62658691 180.39350891 263.38439941 C 181.45646667 260.72070312 180.79272461 255.84536743 181.19541931 249.86062622 C 181.23809814 244.54019165 181.65968323 241.53602600 178.20808411 239.76594543 C 172.05891418 235.02517700 163.80770874 229.19784546 155.69763184 222.80834961 C 150.72637939 217.20701599 145.68048096 218.70822144 139.80564880 221.74583435 C 138.07307434 220.12754822 143.19692993 217.05484009 149.13873291 213.02583313 C 152.57461548 214.82914734 156.48855591 218.68862915 161.52066040 222.53431702 C 166.95686340 226.27143860 172.09901428 230.03298950 176.81925964 233.79014587 C 181.55569458 236.87152100 185.21426392 239.97937012 187.79025269 243.19532776 C 190.00332642 245.70161438 192.20890808 247.19233704 194.31233215 247.87234497 C 196.49925232 247.99507141 198.56799316 247.73292542 200.56723022 247.52186584 C 202.49548340 247.35835266 204.35472107 247.18321228 205.94474792 247.13600159 C 206.99378967 247.49032593 207.64176941 248.27673340 208.04896545 249.53099060 C 208.04196167 251.56343079 206.65911865 254.86122131 226.27059937 267.22366333" stroke-width="1.39002001" fill="rgb(178, 31, 30)" opacity="1.0" stroke="rgb(63, 7, 4)" stroke-opacity="0.8992952" stroke-linecap="round" stroke-linejoin="round"/>
    <path d="M 110.52598572 311.58358765 C 109.33919525 311.65371704 108.15603638 311.75854492 106.92981720 311.68609619 C 105.81179047 311.43530273 104.90389252 311.14807129 104.09770203 310.77795410 C 103.47788239 310.16833496 102.92189026 309.28936768 102.30387878 308.43563843 C 101.72940826 307.63580322 101.02704620 307.02590942 100.42628479 306.44378662 C 99.94754791 305.70184326 99.69358826 304.95513916 99.74906158 304.13174438 C 99.95211029 303.29559326 100.32159424 302.54232788 100.93981934 301.77972412 C 101.62452698 301.11822510 102.25732422 300.70910645 103.08122253 300.34878540 C 104.29024506 300.30877686 105.68771362 300.47344971 107.11283112 300.61276245 C 108.35639191 300.59838867 109.41814423 300.52386475 110.18266296 300.51818848 C 110.55992889 300.38253784 110.61610413 300.35162354 110.52598572 311.58358765" stroke-width="0.66255629" fill="rgb(71, 163, 215)" opacity="1.0" stroke="rgb(75, 144, 183)" stroke-opacity="0.63051784" stroke-linecap="round" stroke-linejoin="round"/>
    <path d="M 204.32180786 322.34622192 C 203.28833008 322.11862183 202.30256653 322.14071655 201.16114807 322.25143433 C 199.90823364 322.13250732 198.69117737 322.02328491 197.46336365 322.15460205 C 196.12927246 322.16049194 194.63838196 322.21502686 193.23466492 322.43496704 C 191.93414307 322.54174805 190.66056824 322.91052246 189.36598206 323.10256958 C 188.20300293 323.19955444 187.18911743 323.13815308 186.36180115 323.04904175 C 185.69500732 322.84664917 185.22821045 322.35238647 185.00006104 321.63409424 C 184.94869995 320.77526855 185.10279846 319.73483276 185.15534973 318.48205566 C 185.12442017 317.09777832 185.08708191 315.61602783 185.21142578 314.08374023 C 185.23330688 312.50970459 185.22770691 310.96322632 185.27801514 309.39941406 C 185.27070618 307.84115601 185.23005676 306.40164185 185.33726501 305.18197632 C 185.82536316 304.17684937 186.65461731 303.31982422 187.69590759 302.55953979 C 188.82832336 301.90106201 190.01991272 301.28570557 191.34045410 300.71536255 C 192.75502014 300.31304932 194.11116028 300.17739868 195.42662048 300.20727539 C 196.65856934 300.52551270 197.92816162 300.41983032 199.27249146 300.21759033 C 200.54846191 300.44894409 201.81250000 300.31591797 202.89817810 300.05267334 C 203.75306702 300.08312988 204.33497620 300.41668701 204.60839844 300.96752930 C 204.57496643 301.56375122 204.41595459 302.41378784 204.50653076 303.55609131 C 204.67050171 304.85327148 204.59271240 306.32208252 204.60484314 307.83261108 C 204.80485535 309.19943237 204.30273438 310.23049927 203.57951355 310.92694092 C 204.32312012 311.36987305 204.83151245 311.63378906 204.32180786 322.34622192" stroke-width="0.39435014" fill="rgb(68, 165, 213)" opacity="1.0" stroke="rgb(64, 151, 187)" stroke-opacity="0.42035902" stroke-linecap="round" stroke-linejoin="round"/>
    <path d="M 109.97068024 374.87918091 C 108.33177185 375.74508667 106.80890656 376.64620972 105.36434174 377.45684814 C 104.03977203 377.97451782 102.88254547 377.97937012 101.90722656 377.62039185 C 101.03073883 377.16955566 99.93108368 376.84344482 98.81124878 376.58560181 C 97.60646820 376.44464111 96.15971375 376.36309814 94.51097107 376.32739258 C 92.87312317 376.30249023 91.63815308 376.36712646 90.98204803 376.40695190 C 90.87683105 375.84536743 91.53231812 374.93453979 91.87517548 373.60330200 C 91.69539642 371.99252319 91.93210602 370.11138916 91.70603180 368.35961914 C 91.62209320 366.51248169 91.82225037 364.80502319 91.73917389 363.10220337 C 91.90319824 361.35641479 91.98358917 359.81781006 91.65023804 358.37167358 C 91.78411865 356.97775269 91.75290680 355.53561401 91.95711517 354.28491211 C 91.86280060 353.30987549 91.73242950 352.68908691 91.83654022 352.65295410 C 92.68295288 352.75128174 93.91052246 352.85781860 95.09763336 352.62832642 C 96.41152954 352.93649292 97.84110260 352.54644775 99.50947571 352.58721924 C 101.37964630 352.70062256 102.96745300 352.59301758 104.24537659 352.49685669 C 105.24116516 353.16836548 106.10413361 352.98492432 107.27163696 352.57153320 C 108.52208710 352.71246338 109.50926208 352.74176025 110.19071198 352.77062988 C 110.24849701 352.96685791 109.86735535 353.57254028 109.45256042 354.34191895 C 109.74261475 355.29852295 109.77342224 356.50885010 109.88731384 357.56350708 C 109.81687164 358.76553345 109.95055389 359.85134888 109.80287933 361.24832153 C 109.40911102 362.49923706 108.74534607 363.76547241 109.97068024 374.87918091" stroke-width="0.00000000" fill="rgb(65, 165, 214)" opacity="1.0" stroke="rgb(68, 195, 236)" stroke-opacity="0.67048496" stroke-linecap="round" stroke-linejoin="round"/>
    <path d="M 198.34898376 365.27099609 C 198.33065796 365.24569702 198.35342407 365.26956177 198.33224487 365.25442505 C 198.34291077 365.26092529 198.34219360 365.26095581 198.34004211 365.26199341 C 198.33778381 365.26235962 198.34089661 365.25708008 198.34173584 365.26934814 C 198.33499146 365.26046753 198.34156799 365.26235962 198.33953857 365.26037598 C 198.33625793 365.27093506 198.34454346 365.25564575 198.33609009 365.26196289 C 198.33770752 365.27029419 198.34226990 365.25512695 198.33671570 365.26376343 C 198.34094238 365.26861572 198.33909607 365.25427246 198.33303833 365.25930786 C 198.34768677 365.26446533 198.34196472 365.25823975 198.32933044 365.25656128 C 198.34767151 365.25918579 198.34272766 365.25213623 198.32948303 365.26126099 C 198.35072327 365.25347900 198.33378601 365.25607300 198.34898376 365.27099609" stroke-width="0.00000000" fill="rgb(174, 219, 228)" opacity="1.0" stroke="rgb(255, 255, 255)" stroke-opacity="1.0" stroke-linecap="round" stroke-linejoin="round"/>
    <path d="M 163.04501343 389.59564209 C 160.78965759 389.58679199 158.62107849 389.51669312 156.45970154 389.77975464 C 154.37318420 389.81100464 152.40736389 389.67947388 150.46855164 389.40383911 C 148.73855591 389.84024048 146.98733521 389.98458862 145.18284607 389.74642944 C 143.35484314 389.85025024 141.53350830 389.82870483 139.84986877 389.58706665 C 138.44181824 389.66699219 137.40643311 389.87896729 136.89860535 389.75341797 C 136.74887085 388.86968994 136.79110718 387.41293335 136.96713257 385.37573242 C 136.74020386 383.06091309 136.63975525 380.13833618 136.95173645 376.77890015 C 137.06253052 373.54403687 137.02940369 370.21514893 137.04232788 366.66061401 C 137.15621948 363.09289551 137.03808594 359.89776611 136.88929749 356.81082153 C 137.22416687 353.96585083 136.98390198 351.45761108 137.12120056 349.37756348 C 136.88446045 347.78359985 136.61883545 346.92205811 137.01004028 346.57781982 C 137.87510681 346.60598755 139.24069214 346.61526489 141.05552673 346.67419434 C 143.23173523 346.73901367 145.55215454 346.57357788 148.11511230 346.35433960 C 150.47029114 346.49606323 152.78332520 346.66665649 154.90925598 346.46151733 C 156.64988708 346.42501831 158.23396301 346.79788208 159.71052551 346.48632812 C 161.17552185 346.45159912 162.35057068 346.45883179 163.21714783 346.63211060 C 163.75085449 347.03494263 163.77369690 347.98657227 163.59761047 349.57379150 C 163.65310669 351.45260620 163.64830017 353.76058960 163.31065369 356.42114258 C 163.66799927 359.31253052 163.80532837 362.38528442 163.55122375 365.62442017 C 163.39671326 368.62420654 163.76255798 371.61062622 163.04501343 389.59564209" stroke-width="0.71087676" fill="rgb(188, 52, 49)" opacity="1.0" stroke="rgb(78, 0, 0)" stroke-opacity="0.5750012" stroke-linecap="round" stroke-linejoin="round"/>
    <path d="M 234.78146362 335.32449341 C 229.53224182 335.80532837 224.24186707 335.74124146 218.77812195 335.81521606 C 213.14192200 335.76913452 207.24897766 335.72961426 201.17532349 335.86422729 C 194.88360596 335.82696533 188.34608459 335.68521118 181.61891174 335.75204468 C 174.59571838 335.91760254 167.23524475 335.77963257 159.61380005 335.82775879 C 151.85505676 335.87530518 143.81080627 336.00314331 135.49932861 335.87045288 C 126.97559357 335.81829834 118.52424622 335.99624634 110.29750824 335.81158447 C 102.66433716 335.88525391 95.38427734 335.87332153 88.64299011 335.75213623 C 82.19991302 335.80493164 76.35381317 335.80297852 71.50740814 335.77252197 C 67.91454315 335.67691040 65.45125580 335.70007324 64.15272522 335.49987793 C 64.45770264 334.26510620 65.16902161 332.65191650 66.70203400 331.92010498 C 68.46449280 332.19869995 70.63245392 332.71572876 73.55468750 332.38391113 C 77.72664642 332.34344482 82.75676727 332.57910156 88.46745300 332.42697144 C 94.46423340 332.41076660 100.87588501 332.53561401 107.36535645 332.43402100 C 113.94809723 332.59259033 120.65840149 332.42633057 127.29324341 332.69287109 C 134.08175659 332.54370117 140.75109863 332.53778076 147.34223938 332.60507202 C 154.16084290 332.65658569 161.24636841 332.38488770 168.29338074 332.59951782 C 175.54277039 332.15783691 182.98431396 332.59027100 190.28895569 332.30056763 C 197.21028137 332.41152954 203.92575073 332.47695923 210.34269714 332.31466675 C 216.50624084 332.63055420 222.20782471 332.36282349 227.12109375 332.37826538 C 230.68861389 332.41094971 233.44688416 331.22598267 234.78146362 335.32449341" stroke-width="1.72245479" fill="rgb(232, 52, 33)" opacity="1.0" stroke="rgb(90, 17, 17)" stroke-opacity="0.93390906" stroke-linecap="round" stroke-linejoin="round"/>
    <path d="M 76.32167053 380.91918945 C 75.44444275 382.36953735 74.65552521 383.85839844 73.89022064 385.35061646 C 73.19628143 386.74987793 72.59844971 388.01300049 71.99800873 389.08709717 C 71.36138153 389.81692505 70.66823578 390.16381836 69.90600586 390.30792236 C 69.28112793 390.44146729 68.74554443 390.64932251 68.50772095 390.54763794 C 68.63457489 389.88150024 68.72358704 388.86755371 68.66750336 387.49133301 C 68.86428833 385.72894287 69.08074951 383.55392456 68.79217529 381.26580811 C 68.91881561 378.90017700 68.89528656 376.45297241 68.71664429 373.98141479 C 68.84439087 371.45681763 68.79299164 368.93542480 68.95674896 366.45706177 C 69.05939484 363.83370972 68.95541382 361.20886230 68.96370697 358.66375732 C 68.94861603 356.20053101 68.92805481 353.85574341 68.92106628 351.72247314 C 68.86902618 349.83673096 68.86777496 348.11401367 68.97077179 346.50421143 C 68.76904297 345.15234375 68.70759583 344.12179565 68.89031219 343.31607056 C 69.06040192 342.66406250 69.35384369 342.22933960 69.69388580 341.98199463 C 70.07579041 341.91006470 70.53371429 342.07119751 71.02166748 342.44494629 C 71.45421600 342.97653198 71.81887817 343.69406128 72.19476318 344.68347168 C 72.59236908 345.88848877 72.94125366 347.21423340 73.25128174 348.64675903 C 73.50285339 350.14340210 73.70668793 351.72308350 73.87217712 353.47238159 C 73.99298096 355.38183594 73.99369812 357.31698608 73.91002655 359.28482056 C 73.78373718 361.31631470 73.52953339 363.34277344 73.15304565 365.35092163 C 72.70162964 367.42941284 72.27121735 369.52700806 76.32167053 380.91918945" stroke-width="0.21965522" fill="rgb(248, 246, 243)" opacity="1.0" stroke="rgb(196, 219, 239)" stroke-opacity="0.7102989" stroke-linecap="round" stroke-linejoin="round"/>
    <path d="M 230.82603455 352.73440552 C 230.95164490 356.04498291 231.08673096 359.39059448 231.04640198 362.72872925 C 230.95280457 365.89385986 230.74389648 368.74639893 230.77938843 371.36770630 C 230.84184265 373.81539917 230.87194824 376.08166504 230.92443848 378.03765869 C 231.01895142 379.65594482 231.02781677 380.86010742 230.90043640 381.59442139 C 230.66912842 381.74688721 230.27798462 381.23730469 230.00535583 380.07952881 C 229.85897827 378.39102173 229.81692505 376.26428223 229.67785645 373.68780518 C 229.33317566 370.77536011 229.35147095 367.46130371 230.10667419 363.98678589 C 230.61021423 360.66262817 230.06665039 357.23809814 229.59750366 353.35058594 C 229.82391357 349.02624512 230.04504395 344.47174072 229.76484680 339.98681641 C 230.25814819 335.57843018 231.62673950 331.17703247 230.82603455 352.73440552" stroke-width="1.11536312" fill="rgb(50, 93, 116)" opacity="1.0" stroke="rgb(133, 181, 211)" stroke-opacity="0.34124228" stroke-linecap="round" stroke-linejoin="round"/>
    <path d="M 65.70773315 106.18038177 C 62.70804596 105.66228485 59.71680069 105.20413971 56.78659821 104.62950134 C 53.87356949 104.58727264 50.91102219 103.85092926 47.84070587 102.77545166 C 44.77327728 102.09255219 41.79866028 100.97961426 38.67333984 99.78250122 C 35.80448151 98.60160065 33.08903122 97.04312897 30.33134270 95.71887207 C 27.89663506 94.20108795 25.78606606 92.32165527 23.61177444 90.49492645 C 21.80863190 88.33450317 20.23071480 86.13962555 19.23355103 83.69425201 C 18.66891098 81.10080719 18.37310410 78.62238312 18.61525154 76.23656464 C 19.38907623 73.72755432 20.78598785 71.51145172 22.51406860 69.29039001 C 24.21833611 66.95806122 26.47745705 65.12893677 29.06527138 63.43811417 C 31.59755325 61.67156601 34.50932312 60.17885590 37.51013565 58.78089905 C 40.48104477 57.34873581 43.59537125 56.16026306 46.89640427 55.37506866 C 50.24194336 54.55585098 53.56623077 53.51647568 56.75080109 53.07160568 C 60.05949402 52.46221542 63.25004959 52.24332809 66.37688446 51.64717102 C 69.65217590 51.69567108 73.19152832 51.67940903 76.81320953 51.48599625 C 80.36116028 51.51010895 83.85086060 51.61968231 87.34406281 51.63215256 C 90.67418671 52.02104568 93.75588989 52.53966522 96.88236237 52.69592667 C 100.04116058 53.59974670 103.56873322 54.03629303 107.00936127 54.85241318 C 110.14995575 55.88877869 113.49329376 56.64109421 116.85989380 57.65786362 C 119.86672974 59.02911758 123.16448212 60.25097656 125.99026489 61.85841751 C 128.73004150 63.66470337 131.37574768 65.37522125 133.55323792 67.44493866 C 135.59642029 69.25845337 137.24127197 71.24665070 138.34571838 73.40698242 C 139.24821472 75.61308289 139.76542664 77.64874268 139.57096863 79.91474152 C 139.53041077 82.17649841 138.76339722 84.42625427 137.48814392 86.71553802 C 135.76567078 88.99399567 133.94006348 91.31828308 131.50003052 93.19599915 C 128.94406128 95.04573822 126.00320435 96.75804138 122.90146637 98.37837982 C 119.43807220 99.93964386 115.85885620 101.27471924 112.11911774 102.39113617 C 108.09825134 103.20369720 104.44545746 104.31809235 100.85865784 104.72325134 C 97.82929230 105.54084778 94.71343231 105.79856110 91.70817566 105.70410156 C 88.77887726 106.29262543 85.95182800 106.57423401 83.15486908 106.34573364 C 80.55246735 106.53215790 78.13603973 106.47427368 65.70773315 106.18038177" stroke-width="1.86730814" fill="rgb(252, 252, 252)" opacity="1.0" stroke="rgb(64, 138, 165)" stroke-opacity="0.720178" stroke-linecap="round" stroke-linejoin="round"/>
    <path d="M 272.69827271 79.24195862 C 268.22912598 79.89997864 263.78421021 80.61086273 259.40954590 80.89845276 C 255.14128113 81.41258240 250.64755249 81.29740906 246.29835510 81.36406708 C 242.13647461 80.64565277 237.66641235 80.50986481 232.82336426 80.16240692 C 228.15773010 79.41345978 223.51890564 78.51531219 218.68048096 77.36869049 C 214.32814026 76.12749481 210.59619141 74.34986115 207.26670837 72.10884094 C 204.11343384 69.90821838 201.48875427 67.51445770 199.59182739 64.69068909 C 198.06692505 61.86262131 197.34704590 59.05846024 197.60960388 56.19124603 C 198.17800903 53.43243027 199.64407349 51.00373459 201.64169312 48.62731171 C 203.96159363 46.49864578 206.84112549 44.75632095 209.90992737 42.88390732 C 213.24829102 41.32742310 216.94758606 39.92958832 220.75650024 38.64236450 C 225.07936096 37.67283630 229.24763489 36.71699905 233.72862244 36.27894592 C 238.14372253 35.36221695 242.62837219 35.23164749 247.45565796 35.39525986 C 252.39973450 35.23321152 257.28625488 35.53750229 262.10150146 35.66212463 C 266.76834106 36.42104721 271.38449097 37.24209595 275.64288330 38.44868469 C 279.77926636 39.57070160 283.95755005 40.75770187 287.41085815 42.54124451 C 290.78149414 44.50591278 293.78378296 46.49289703 296.20898438 48.64674377 C 297.82852173 50.92731094 299.25332642 53.09936905 300.01309204 55.27497864 C 300.17712402 57.86499786 299.82327271 60.60440445 298.67468262 63.18950272 C 297.27493286 65.83971405 295.47485352 68.22219086 292.82156372 70.12017822 C 289.80221558 72.37559509 286.92306519 75.06907654 272.69827271 79.24195862" stroke-width="1.84793150" fill="rgb(253, 255, 254)" opacity="1.0" stroke="rgb(58, 135, 161)" stroke-opacity="0.70967567" stroke-linecap="round" stroke-linejoin="round"/>
    <path d="M 471.55599976 119.49600983 C 467.84744263 120.82775116 464.12908936 121.99285889 460.45971680 123.33702087 C 457.09124756 124.67243958 453.30200195 125.16087341 449.71463013 126.14928436 C 446.03652954 126.86656952 442.30053711 127.23047638 438.64492798 127.76405334 C 435.21823120 128.35603333 431.69934082 128.37048340 428.23294067 128.59280396 C 424.67605591 128.58476257 420.87924194 128.44660950 416.99316406 128.59251404 C 413.14450073 128.42756653 409.42129517 128.67062378 405.88577271 128.21940613 C 402.54815674 127.38247681 398.80020142 127.62368774 394.79241943 127.26372528 C 390.55389404 126.51201630 386.25070190 125.74550629 381.88415527 124.67060089 C 377.33746338 123.95404053 373.04327393 122.90652466 368.90142822 121.24832916 C 364.80758667 119.78330994 361.07241821 117.84482574 357.69689941 115.58161163 C 354.61102295 113.49141693 352.37014771 110.71739197 350.03250122 108.29579163 C 348.24368286 105.84284210 347.19454956 103.30315399 346.60537720 100.62902069 C 346.49395752 97.88312531 346.87823486 95.27327728 348.08874512 92.80741119 C 349.16403198 90.07450867 350.96228027 87.56372833 353.41567993 85.21458435 C 356.12933350 82.89503479 358.94586182 80.63957214 362.31011963 78.81263733 C 365.84127808 77.26428223 369.25897217 75.36128235 373.04162598 74.20248413 C 376.87231445 72.81583405 380.68655396 71.84711456 384.43368530 70.62842560 C 388.39694214 70.18997955 392.11633301 69.57381439 395.51477051 68.55179596 C 399.21405029 68.60979462 403.00054932 68.24417877 406.72167969 67.54316711 C 410.37103271 67.21581268 414.34008789 67.35707092 418.56448364 67.26890564 C 422.75863647 67.08991241 426.90832520 67.25851440 431.20492554 67.47200012 C 435.46939087 67.53439331 439.72317505 68.07878113 443.96557617 68.59451294 C 447.99557495 69.50498199 451.90747070 70.18441772 455.63983154 71.34188843 C 459.60458374 71.97382355 463.41244507 73.32598114 466.77633667 74.98842621 C 470.48806763 76.15030670 473.63159180 78.07397461 476.99511719 79.74571991 C 480.08093262 81.60251617 482.56103516 83.81788635 484.83374023 85.90264130 C 486.42071533 88.24594879 488.06222534 90.26493073 489.16931152 92.41172791 C 489.88592529 95.05760193 490.53793335 97.88407135 490.23199463 100.78661346 C 489.61297607 103.97794342 488.42959595 106.74882507 486.20712280 109.16841125 C 483.74237061 111.70857239 481.34405518 114.50617218 471.55599976 119.49600983" stroke-width="1.80910075" fill="rgb(251, 253, 254)" opacity="1.0" stroke="rgb(53, 128, 152)" stroke-opacity="0.7423248" stroke-linecap="round" stroke-linejoin="round"/>
    <path d="M 151.61393738 248.56660461 C 151.59484863 248.54284668 151.61053467 248.55732727 151.60409546 248.56025696 C 151.60388184 248.54438782 151.60810852 248.55142212 151.60681152 248.56199646 C 151.60406494 248.54078674 151.60615540 248.54965210 151.61402893 248.55609131 C 151.60217285 248.54461670 151.60876465 248.55525208 151.61082458 248.54432678 C 151.60668945 248.54974365 151.60968018 248.55102539 151.60690308 248.54512024 C 151.61389160 248.55366516 151.60415649 248.54605103 151.61824036 248.54669189 C 151.60617065 248.55310059 151.61506653 248.54339600 151.60955811 248.55253601 C 151.61936951 248.55302429 151.61022949 248.54377747 151.61080933 248.55783081 C 151.63359070 248.54559326 151.60772705 248.55714417 151.61041260 248.54808044 C 151.63433838 248.55909729 151.60862732 248.54898071 151.61393738 248.56660461" stroke-width="0.00000000" fill="rgb(0, 255, 255)" opacity="1.0" stroke="rgb(211, 238, 247)" stroke-opacity="1.0" stroke-linecap="round" stroke-linejoin="round"/>
    <path d="M 141.94886780 375.48538208 C 140.30484009 376.39413452 139.70681763 378.03967285 140.04452515 380.51846313 C 139.94061279 383.53082275 139.98818970 386.54724121 140.01185608 388.87591553 C 139.43525696 389.75076294 138.32484436 389.74951172 137.21437073 389.65554810 C 136.90928650 389.04022217 136.90330505 387.80526733 136.99641418 386.19091797 C 137.00280762 384.39471436 137.04415894 382.46444702 136.97410583 380.41351318 C 136.88056946 378.40728760 136.82624817 376.80505371 136.99411011 375.85525513 C 137.55400085 375.73330688 138.44519043 375.96829224 139.63150024 375.97958374 C 141.25318909 376.00668335 143.19107056 375.96423340 145.22068787 375.95254517 C 147.21281433 375.97433472 149.25422668 375.98419189 151.37118530 375.96923828 C 153.45620728 375.95916748 155.37155151 375.97680664 156.99688721 375.97973633 C 158.27409363 375.92587280 159.14724731 375.97525024 159.60813904 375.93493652 C 159.65354919 376.25796509 159.40605164 376.69866943 159.05807495 377.31158447 C 158.99217224 378.26556396 159.06173706 379.41415405 159.00978088 380.64608765 C 158.96952820 381.93035889 158.98707581 383.35040283 159.03710938 384.82907104 C 159.02388000 386.05233765 159.05436707 387.09533691 158.87632751 387.95388794 C 158.41893005 388.46804810 157.49880981 388.64465332 156.26878357 388.59326172 C 155.01103210 388.68563843 153.78707886 388.31317139 152.41978455 387.73001099 C 150.68624878 387.65100098 148.93415833 387.42730713 147.20819092 387.06143188 C 145.54267883 387.52767944 144.15869141 388.61196899 142.97463989 389.98358154 C 142.32205200 391.40432739 142.10853577 392.74090576 141.94886780 375.48538208" stroke-width="1.97920454" fill="rgb(196, 35, 35)" opacity="1.0" stroke="rgb(241, 255, 255)" stroke-opacity="0.28082475" stroke-linecap="round" stroke-linejoin="round"/>
    <path d="M 209.01651001 241.40078735 C 208.72605896 244.54150391 209.16931152 247.82678223 209.32704163 250.92109680 C 209.43530273 253.25267029 210.06742859 255.18894958 210.43603516 256.37622070 C 211.54693604 256.57861328 212.94595337 257.21212769 214.06614685 258.40859985 C 215.78114319 259.10592651 216.91976929 260.43582153 217.38401794 261.01730347 C 217.36869812 260.83380127 216.28538513 260.04180908 214.58854675 259.69747925 C 213.28652954 258.80993652 211.78947449 257.89312744 210.01562500 256.86486816 C 208.22232056 255.89982605 206.56138611 254.76141357 204.64807129 253.58738708 C 202.76432800 252.29104614 200.96124268 250.95680237 199.05360413 249.90242004 C 197.59974670 248.75686646 196.28489685 247.87200928 194.79914856 247.38160706 C 193.79156494 246.23706055 192.52117920 245.58088684 191.47846985 244.80805969 C 190.52787781 244.12622070 189.74337769 243.39671326 189.10740662 242.84330750 C 188.39012146 242.44322205 187.92916870 242.13177490 187.80046082 241.66828918 C 188.45922852 241.41255188 189.13972473 241.02464294 189.43954468 240.25595093 C 190.10061646 240.21011353 190.92120361 240.29136658 191.88131714 240.36692810 C 192.87200928 240.64616394 193.70460510 240.47315979 194.59623718 240.00387573 C 195.71817017 240.13375854 196.82203674 240.21615601 197.97570801 239.93580627 C 199.30729675 240.00077820 200.86816406 240.01580811 202.36894226 240.24078369 C 203.64553833 239.82469177 205.01771545 239.77635193 206.38325500 239.90135193 C 207.58590698 239.65835571 208.70755005 239.70129395 209.70249939 239.57431030 C 210.58917236 239.55830383 211.56657410 240.14076233 209.01651001 241.40078735" stroke-width="1.52918756" fill="rgb(231, 233, 236)" opacity="1.0" stroke="rgb(33, 16, 16)" stroke-opacity="0.6346859" stroke-linecap="round" stroke-linejoin="round"/>
    <path d="M 91.71429443 261.78414917 C 89.52152252 261.38632202 87.55484009 261.30459595 86.46034241 261.80532837 C 85.93444061 262.40036011 85.98761749 262.06372070 86.95410919 261.26477051 C 88.64427948 260.89749146 90.71221161 259.88223267 93.10147858 258.63735962 C 96.13703918 257.66275024 98.78604889 255.64965820 100.76770782 253.07720947 C 103.30406189 251.17286682 105.52665710 249.70056152 108.00579834 249.35003662 C 108.79202271 247.42327881 110.81175232 246.72901917 112.14382172 246.13237000 C 112.20207214 246.66987610 111.89240265 248.15061951 111.56826782 250.21241760 C 111.85981750 252.32546997 111.68608093 254.82241821 111.61737061 257.28784180 C 111.69354248 259.53399658 111.68099213 261.09429932 111.57260895 261.79705811 C 111.38244629 262.00091553 110.83955383 261.46292114 91.71429443 261.78414917" stroke-width="2.00000000" fill="rgb(212, 215, 212)" opacity="1.0" stroke="rgb(115, 0, 0)" stroke-opacity="1.0" stroke-linecap="round" stroke-linejoin="round"/>
    <path d="M 201.53489685 258.18182373 C 203.40199280 258.92813110 204.63954163 260.35015869 205.97639465 261.01757812 C 206.84516907 261.50814819 206.85557556 261.73803711 205.70346069 261.63235474 C 203.55459595 261.53866577 201.09501648 261.26040649 198.69163513 261.67083740 C 195.77807617 261.52200317 192.64309692 261.44238281 189.83723450 261.73672485 C 187.39393616 261.56085205 185.60379028 261.80364990 184.53260803 261.63366699 C 184.94447327 260.98071289 185.19491577 259.85473633 184.39511108 258.50955200 C 185.03466797 257.05844116 184.96636963 255.54193115 184.72949219 253.82701111 C 184.89511108 252.16915894 185.07286072 250.51916504 184.76564026 249.12240601 C 184.92572021 247.85876465 184.91259766 246.82069397 184.49484253 245.91372681 C 183.74563599 245.50523376 183.05815125 245.33665466 201.53489685 258.18182373" stroke-width="1.45177364" fill="rgb(235, 238, 237)" opacity="1.0" stroke="rgb(14, 9, 8)" stroke-opacity="0.3984343" stroke-linecap="round" stroke-linejoin="round"/>
    <path d="M 207.22531128 236.05563354 C 208.24340820 236.61228943 208.55317688 237.62025452 208.93499756 238.13673401 C 209.40333557 238.14508057 209.39190674 238.18022156 208.61322021 238.11276245 C 207.37890625 238.15824890 205.96617126 238.32225037 204.50920105 238.08929443 C 202.86285400 238.11605835 200.86640930 238.26498413 198.63438416 238.13058472 C 196.48312378 238.13191223 194.70863342 238.31710815 193.33209229 238.48570251 C 192.30139160 238.48196411 191.54049683 238.56924438 190.95814514 238.49958801 C 190.95191956 237.91662598 191.46662903 237.27352905 192.36492920 236.35408020 C 193.52346802 235.13453674 194.73364258 233.77978516 195.91932678 232.28718567 C 197.09259033 231.27966309 198.08110046 230.13635254 198.78477478 229.08714294 C 199.10945129 228.60690308 198.94837952 228.15849304 207.22531128 236.05563354" stroke-width="1.23866570" fill="rgb(207, 29, 20)" opacity="1.0" stroke="rgb(97, 0, 0)" stroke-opacity="0.8351197" stroke-linecap="round" stroke-linejoin="round"/>
    <path d="M 200.05812073 357.52169800 C 201.01612854 357.97647095 201.91563416 358.45611572 202.79548645 358.90170288 C 203.72817993 359.32666016 204.60772705 359.84796143 205.35206604 360.46762085 C 205.98278809 361.08612061 206.43211365 361.73547363 206.64642334 362.37399292 C 206.59016418 363.03781128 206.51480103 363.75033569 206.37846375 364.70391846 C 206.29008484 365.71453857 206.32141113 366.85510254 206.31063843 368.10116577 C 206.25354004 369.48605347 206.22100830 370.93151855 206.29119873 372.28897095 C 206.34179688 373.51101685 206.22908020 374.69787598 206.21363831 375.82730103 C 206.34191895 376.74905396 206.56323242 377.51782227 206.79997253 378.25601196 C 206.80175781 378.88082886 206.64590454 379.44747925 206.45201111 379.89767456 C 206.07585144 380.08615112 205.46989441 380.01293945 204.70048523 379.74353027 C 203.85494995 379.54428101 203.04829407 379.56842041 202.21377563 379.75930786 C 201.30882263 379.71401978 200.39584351 379.59106445 199.47764587 379.44903564 C 198.73814392 379.66629028 198.10391235 379.77066040 197.57382202 379.65798950 C 197.16293335 379.25408936 196.88996887 378.65274048 196.54788208 378.00399780 C 195.92210388 377.22335815 195.36378479 376.33471680 194.90330505 375.40737915 C 194.46549988 374.48260498 194.03823853 373.56134033 193.65386963 372.53915405 C 193.42587280 371.34497070 193.34552002 370.12887573 193.28930664 368.98034668 C 193.16333008 367.89642334 193.05395508 366.87469482 192.93722534 365.89489746 C 192.84519958 364.91589355 192.81048584 363.93457031 192.82005310 362.93988037 C 192.81921387 361.89932251 192.75143433 360.87210083 200.05812073 357.52169800" stroke-width="0.34378031" fill="rgb(74, 165, 213)" opacity="1.0" stroke="rgb(39, 141, 186)" stroke-opacity="0.47863436" stroke-linecap="round" stroke-linejoin="round"/>
    <path d="M 196.19108582 379.92565918 C 194.58108521 379.41223145 192.94813538 379.72653198 191.26945496 380.01095581 C 189.71812439 380.14871216 188.64041138 379.89819336 188.07080078 379.43246460 C 188.03005981 378.55252075 188.27415466 377.41488647 188.49731445 376.00283813 C 188.23188782 374.47097778 188.28477478 372.84722900 188.28666687 371.23568726 C 188.27503967 369.78585815 188.09858704 368.38342285 188.17678833 366.86898804 C 188.16490173 365.45016479 187.98550415 364.26806641 187.93345642 363.43444824 C 188.26757812 362.79101562 188.81515503 362.22595215 189.52217102 361.85647583 C 190.41043091 361.79095459 191.50976562 361.75839233 192.67028809 361.50155640 C 193.71859741 361.24456787 194.71266174 361.04034424 195.65950012 360.75851440 C 196.35479736 360.58477783 196.72465515 360.35491943 196.19108582 379.92565918" stroke-width="2.00000000" fill="rgb(74, 167, 215)" opacity="1.0" stroke="rgb(241, 247, 245)" stroke-opacity="0.98440945" stroke-linecap="round" stroke-linejoin="round"/>
    <path d="M 141.37870789 233.60351562 C 141.10775757 233.46466064 141.01365662 233.28691101 141.09635925 233.18861389 C 141.37622070 233.23687744 141.84934998 233.27113342 142.52357483 233.21937561 C 143.34005737 233.20770264 144.25091553 233.23509216 145.24786377 233.30876160 C 146.27726746 233.46214294 147.24087524 233.63027954 148.23674011 234.03453064 C 149.23080444 234.44253540 150.19992065 234.81001282 151.17369080 235.19033813 C 152.22720337 235.01107788 153.29597473 235.28373718 154.14831543 235.06474304 C 155.07299805 234.93640137 156.23815918 235.25444031 157.44232178 235.28536987 C 158.55279541 235.24549866 159.38153076 235.04168701 159.64756775 234.78193665 C 159.64347839 234.79426575 159.77096558 235.17005920 160.19779968 235.61199951 C 160.41119385 236.09861755 160.14346313 236.63612366 159.77575684 237.34852600 C 159.58229065 238.30540466 159.77587891 239.54417419 159.81294250 240.98237610 C 159.80046082 242.29869080 159.83042908 243.49601746 160.16728210 244.51191711 C 160.22753906 245.45317078 160.12016296 246.24882507 159.96420288 246.96665955 C 159.60969543 247.55647278 159.04367065 248.06594849 158.23667908 248.50114441 C 157.33992004 248.83413696 156.41159058 249.14094543 155.50706482 249.51396179 C 154.59481812 249.75808716 153.62892151 249.92616272 152.53805542 250.02294922 C 151.41378784 250.11276245 150.34652710 250.16209412 149.33229065 250.14068604 C 148.33389282 250.04156494 147.33386230 249.88682556 146.38299561 249.65342712 C 145.50488281 249.37072754 144.68324280 249.03797913 143.86657715 248.65483093 C 142.98547363 248.28048706 142.08283997 247.94818115 141.37870789 233.60351562" stroke-width="2.00000000" fill="rgb(74, 156, 208)" opacity="1.0" stroke="rgb(243, 251, 251)" stroke-opacity="0.9633172" stroke-linecap="round" stroke-linejoin="round"/>
    <path d="M 91.89234924 300.50537109 C 92.39121246 300.50799561 92.96289062 300.06198120 93.49521637 299.75021362 C 94.25509644 299.93154907 95.43877411 300.11526489 96.69026184 300.14935303 C 97.61377716 300.16226196 98.45230103 300.30126953 99.36642456 300.16622925 C 100.24159241 299.80969238 100.76972198 299.79583740 100.74878693 299.88150024 C 100.77032471 300.27493286 100.67282867 301.06423950 100.60551453 301.91567993 C 100.62506866 303.01727295 100.57206726 304.44717407 100.82295990 305.83874512 C 100.82926178 307.15121460 100.71696472 308.46017456 100.42471313 309.65368652 C 99.91466522 310.90991211 99.17079926 312.16860962 98.19789124 313.33444214 C 96.97844696 314.44689941 95.61096954 315.58715820 94.22544861 316.76358032 C 92.83539581 317.93368530 91.42163086 319.07125854 91.89234924 300.50537109" stroke-width="1.98376656" fill="rgb(69, 165, 215)" opacity="1.0" stroke="rgb(243, 252, 249)" stroke-opacity="0.9511964" stroke-linecap="round" stroke-linejoin="round"/>
    <path d="M 101.87982941 364.57348633 C 103.12649536 364.52947998 104.28265381 364.67156982 105.39366150 364.89849854 C 106.60234833 364.76116943 107.50576782 364.47448730 108.39946747 364.40411377 C 109.10355377 364.55761719 109.57272339 364.65853882 109.80596161 364.98287964 C 109.65804291 365.59194946 109.49649811 366.44921875 109.66371155 367.67492676 C 109.61275482 369.09048462 109.68965912 370.56329346 109.65383911 371.92172241 C 109.78701019 373.01666260 109.94899750 373.95471191 109.79103851 374.68395996 C 109.41321564 375.24450684 109.17687988 375.73153687 109.40613556 376.42440796 C 109.97225952 377.50100708 110.20908356 378.34454346 110.16403198 379.02938843 C 109.63918304 379.84411621 108.58484650 380.15908813 107.07071686 379.92059326 C 105.22355652 380.15447998 103.15426636 380.05529785 100.96309662 379.65686035 C 98.73213196 379.85232544 96.74870300 379.95983887 94.86898041 379.95971680 C 93.38190460 379.96502686 92.37478638 379.91815186 91.82252502 379.65454102 C 91.69521332 378.54077148 91.43963623 377.40121460 91.63660431 376.77142334 C 92.91574860 376.64312744 94.84270477 376.63534546 96.92640686 376.69061279 C 98.78247833 376.65313721 99.66712952 377.20590210 100.10002136 377.86917114 C 101.24672699 377.30645752 103.52023315 376.74713135 105.49324799 376.20870972 C 104.94844055 375.29421997 103.13320160 375.00845337 101.72935486 374.80892944 C 101.43194580 374.28915405 101.63656616 373.27990723 101.48361969 371.93972778 C 101.63465881 370.55923462 101.55198669 369.06774902 101.54066467 367.54281616 C 101.52806854 365.97247314 101.28825378 364.51638794 101.87982941 364.57348633" stroke-width="2.00000000" fill="rgb(59, 161, 207)" opacity="1.0" stroke="rgb(240, 251, 246)" stroke-opacity="0.85592556" stroke-linecap="round" stroke-linejoin="round"/>
    <path d="M 140.40634155 235.18923950 C 141.75471497 234.84384155 142.96073914 234.74438477 144.08326721 234.84301758 C 145.22901917 235.01156616 146.28109741 235.17463684 147.15666199 235.36453247 C 147.91000366 235.51554871 148.46774292 235.53738403 148.73072815 235.69613647 C 148.57646179 235.93457031 148.40591431 236.18945312 148.33610535 236.46380615 C 148.33969116 236.98435974 148.29338074 237.45217896 148.48535156 238.16183472 C 148.32058716 238.96896362 148.03300476 239.78671265 148.09387207 240.66316223 C 148.28385925 241.85220337 148.14637756 243.32374573 148.00070190 244.82029724 C 147.29693604 246.17297363 146.18302917 247.38890076 145.01007080 248.66584778 C 143.86241150 250.06396484 142.81169128 251.53074646 141.70639038 253.18644714 C 140.79275513 254.83625793 140.21441650 256.43563843 140.40634155 235.18923950" stroke-width="1.74530077" fill="rgb(72, 169, 221)" opacity="1.0" stroke="rgb(225, 255, 255)" stroke-opacity="1.0" stroke-linecap="round" stroke-linejoin="round"/>
    <path d="M 111.37623596 320.67156982 C 109.05191803 321.05105591 106.76287079 321.41635132 104.46479034 321.68789673 C 102.21773529 321.88131714 100.09096527 322.07604980 98.17620850 322.08322144 C 96.50122070 321.92611694 95.06268311 321.81774902 93.92343903 321.98263550 C 93.22080994 322.29360962 92.71610260 322.40499878 92.39262390 322.22467041 C 92.26345062 321.51623535 92.06813812 320.50979614 92.04498291 319.45089722 C 92.08502960 318.23721313 92.01026917 316.78924561 92.13599396 315.26406860 C 92.05973053 313.95855713 92.05648804 312.89849854 92.39062500 311.87036133 C 93.02120972 310.87393188 93.79667664 310.29202271 94.69337463 309.89794922 C 95.74951935 309.61172485 96.98665619 309.40771484 98.32320404 309.37933350 C 99.79503632 309.20773315 101.33477783 308.99832153 111.37623596 320.67156982" stroke-width="0.69577962" fill="rgb(63, 155, 205)" opacity="1.0" stroke="rgb(98, 181, 224)" stroke-opacity="0.45103616" stroke-linecap="round" stroke-linejoin="round"/>
    <path d="M 206.75709534 352.49682617 C 206.60160828 354.39389038 206.50019836 356.02929688 206.52674866 357.56320190 C 206.68574524 359.01635742 206.54838562 360.26504517 206.41587830 361.29647827 C 206.48768616 362.01718140 206.66789246 362.55136108 206.73596191 362.67749023 C 206.45838928 362.72851562 205.86795044 362.85128784 205.04100037 362.82446289 C 204.01304626 362.78707886 202.88220215 362.71057129 201.81710815 362.89685059 C 200.74598694 363.02758789 199.78555298 362.94003296 198.86701965 362.60638428 C 198.22473145 362.10177612 197.72729492 361.45538330 197.02333069 360.83340454 C 195.96998596 360.20394897 194.79618835 359.43875122 193.72035217 358.50012207 C 192.67912292 357.42187500 191.58763123 356.20257568 190.51623535 354.91308594 C 189.40661621 353.64761353 188.16668701 352.45129395 206.75709534 352.49682617" stroke-width="2.00000000" fill="rgb(69, 165, 213)" opacity="1.0" stroke="rgb(250, 250, 248)" stroke-opacity="0.85788393" stroke-linecap="round" stroke-linejoin="round"/>
    <path d="M 99.60951233 363.31369019 C 99.48024750 361.86672974 99.54952240 360.49551392 99.94077301 359.14804077 C 99.78392792 357.69812012 99.48096466 356.20428467 99.45238495 354.98428345 C 99.63072968 354.03662109 99.95147705 353.33135986 100.30964661 353.16952515 C 100.66502380 353.36416626 100.96006012 353.81637573 101.09618378 354.70428467 C 101.06901550 355.79748535 100.98561859 356.97604370 101.11134338 358.22454834 C 101.20954895 359.51458740 101.05102539 360.62207031 100.93029022 361.71292114 C 101.26608276 362.70166016 101.52809906 363.46456909 101.21412659 363.97543335 C 100.37604523 364.28466797 99.23865509 364.31561279 97.84259796 364.29223633 C 96.24877930 364.36108398 94.56568146 364.41421509 92.89681244 364.31619263 C 91.23878479 363.82501221 89.93958282 363.01837158 99.60951233 363.31369019" stroke-width="0.60045296" fill="rgb(239, 255, 255)" opacity="1.0" stroke="rgb(255, 239, 230)" stroke-opacity="0.61573476" stroke-linecap="round" stroke-linejoin="round"/>
    <path d="M 141.51737976 255.53768921 C 140.73178101 253.83720398 140.47683716 251.82492065 140.46379089 249.99766541 C 140.38526917 248.49815369 140.25877380 247.57243347 140.72520447 246.99041748 C 141.32376099 246.94282532 142.18469238 247.09283447 143.15344238 247.19137573 C 144.41455078 247.18365479 145.98896790 247.06636047 147.65190125 247.25926208 C 148.81594849 248.27981567 149.77873230 248.26243591 150.82768250 247.12786865 C 152.47294617 246.95079041 154.33758545 247.09223938 156.32589722 247.25431824 C 158.20475769 247.09922791 159.65434265 247.10728455 160.15971375 247.54849243 C 159.85682678 248.40110779 159.53227234 249.62301636 159.84587097 251.13705444 C 159.64923096 252.86746216 159.75566101 254.38238525 160.06271362 255.32752991 C 160.47337341 255.74977112 160.59538269 255.35345459 141.51737976 255.53768921" stroke-width="1.79997575" fill="rgb(73, 161, 213)" opacity="1.0" stroke="rgb(247, 255, 255)" stroke-opacity="0.8730494" stroke-linecap="round" stroke-linejoin="round"/>
    <path d="M 187.95440674 362.61029053 C 188.14770508 361.82153320 188.36083984 360.88391113 188.31800842 360.01736450 C 188.20910645 359.08270264 188.38124084 358.15399170 188.56471252 357.31420898 C 188.33987427 356.41345215 188.07051086 355.54760742 188.11430359 354.73736572 C 188.21789551 353.90505981 188.24877930 353.00402832 188.47407532 352.57397461 C 188.93116760 352.60101318 189.80155945 352.64022827 190.91694641 352.57476807 C 192.17979431 352.45275879 193.44836426 352.52529907 194.55360413 352.56597900 C 195.41629028 352.61392212 196.08142090 352.59210205 196.37931824 352.79263306 C 196.39178467 353.42843628 196.50830078 354.58639526 196.35449219 356.19320679 C 196.49324036 358.14904785 196.47286987 360.03308105 196.27224731 361.51361084 C 196.52763367 362.85653687 197.13822937 363.95416260 187.95440674 362.61029053" stroke-width="1.95444179" fill="rgb(58, 163, 219)" opacity="1.0" stroke="rgb(242, 251, 251)" stroke-opacity="0.81817937" stroke-linecap="round" stroke-linejoin="round"/>
    <path d="M 101.82646942 312.17855835 C 100.54447937 312.02978516 99.24427795 311.92456055 98.08965302 311.86437988 C 96.96884155 311.69836426 95.96415710 311.72393799 95.03414917 311.82183838 C 94.23661804 311.89181519 93.52389526 311.79849243 92.98132324 311.71649170 C 92.60427094 311.62188721 92.47172546 311.41857910 92.52655792 311.17532349 C 92.64050293 310.99108887 92.95775604 310.88571167 93.40663910 310.81887817 C 93.93373871 310.81002808 94.57037354 310.71731567 95.36734772 310.81515503 C 96.14608002 310.95208740 96.89221954 310.84848022 97.57444000 310.67092896 C 98.23366547 310.87069702 98.99892426 310.81628418 99.83050537 310.61770630 C 100.59986115 310.40270996 101.24720001 309.89382935 101.74919128 309.21600342 C 102.19697571 308.49560547 102.70137024 307.82977295 101.82646942 312.17855835" stroke-width="0.47923753" fill="rgb(229, 250, 255)" opacity="1.0" stroke="rgb(255, 250, 240)" stroke-opacity="0.53684485" stroke-linecap="round" stroke-linejoin="round"/>
    <path d="M 103.03273773 318.15914917 C 102.57540131 316.71432495 102.71620941 315.27160645 102.67617035 314.00827026 C 102.78182983 313.12030029 102.84449005 312.53738403 103.24201965 312.21774292 C 104.12395477 312.31204224 105.51702881 312.34820557 107.22122192 312.25201416 C 108.89000702 312.24200439 110.14746094 312.26318359 110.84143829 312.43759155 C 110.56967163 313.01885986 110.52620697 313.86154175 110.95461273 315.05355835 C 110.76211548 316.46487427 110.49762726 317.93316650 110.60706329 319.44641113 C 110.79410553 320.76412964 110.64338684 321.75833130 110.45973206 322.29663086 C 109.93693542 322.45007324 109.27925873 322.37945557 108.63916016 322.12527466 C 107.86370850 322.49075317 106.78417969 322.25927734 105.29388428 322.13720703 C 103.55056763 322.40374756 101.82511902 322.70474243 103.03273773 318.15914917" stroke-width="1.99239957" fill="rgb(62, 154, 208)" opacity="1.0" stroke="rgb(237, 252, 253)" stroke-opacity="0.89469206" stroke-linecap="round" stroke-linejoin="round"/>
    <path d="M 123.97297668 237.99314880 C 127.39467621 235.62066650 130.48966980 233.43133545 132.76525879 230.95088196 C 134.42240906 229.31951904 136.41529846 228.80503845 137.84963989 228.22128296 C 138.22244263 226.81278992 137.79470825 226.07377625 136.66751099 225.55270386 C 136.68695068 224.62474060 136.68659973 224.55889893 136.83958435 224.82716370 C 136.58155823 224.86923218 136.27566528 225.37255859 137.05348206 225.87298584 C 138.34576416 226.52738953 138.84599304 228.63175964 138.36236572 232.26795959 C 138.48071289 236.23730469 138.62677002 240.57955933 138.61944580 244.93827820 C 138.34620667 249.32307434 138.45756531 252.97853088 139.52278137 255.89753723 C 139.66661072 258.99813843 139.32543945 261.52883911 139.41311646 262.61294556 C 138.98884583 262.24899292 137.75045776 261.78948975 135.91711426 261.85955811 C 133.52088928 261.65930176 131.22029114 261.87966919 129.36770630 262.11111450 C 127.38779449 261.95153809 125.34061432 262.04071045 123.39263153 261.88555908 C 121.83348846 262.09384155 120.87967682 262.52136230 120.09064484 261.85260010 C 118.80005646 261.74337769 117.38175201 262.09655762 116.29338074 262.33166504 C 116.12210083 260.95419312 116.19546509 258.81808472 116.21178436 256.44839478 C 116.31075287 254.07444763 116.11386108 251.87614441 116.21331024 249.96636963 C 116.05908966 248.37234497 116.08480072 246.93556213 116.48068237 245.06903076 C 116.86141205 243.43753052 115.80653381 242.67626953 115.16169739 243.19200134 C 116.08148193 243.46316528 117.00273132 242.76824951 118.67800903 242.20481873 C 119.72084045 240.96163940 120.52762604 239.83776855 123.97297668 237.99314880" stroke-width="2.00000000" fill="rgb(250, 246, 240)" opacity="1.0" stroke="rgb(71, 0, 10)" stroke-opacity="0.6906182" stroke-linecap="round" stroke-linejoin="round"/>
    <path d="M 193.33322144 312.02276611 C 193.29615784 314.27639771 193.40216064 316.54290771 193.46788025 318.59194946 C 193.44099426 320.20156860 193.34579468 321.44287109 193.31896973 322.17852783 C 192.56864929 322.34890747 191.25007629 322.34317017 189.67500305 322.28979492 C 188.14318848 322.03234863 186.78083801 322.08923340 185.75082397 322.17498779 C 185.32070923 321.72174072 185.58717346 321.13726807 186.01106262 320.26834106 C 186.02249146 319.13110352 185.76037598 318.03427124 185.75909424 316.71514893 C 185.93676758 315.25796509 185.81626892 313.89126587 185.79611206 312.70956421 C 185.77128601 311.76074219 185.95436096 311.15603638 186.53262329 310.86322021 C 187.55073547 311.07781982 188.98240662 311.55364990 190.55194092 311.79458618 C 192.22872925 311.87310791 193.92617798 311.93521118 193.33322144 312.02276611" stroke-width="1.87531328" fill="rgb(54, 159, 204)" opacity="1.0" stroke="rgb(252, 255, 252)" stroke-opacity="0.8451529" stroke-linecap="round" stroke-linejoin="round"/>
    <path d="M 188.36338806 310.24679565 C 187.22256470 310.50305176 186.23695374 310.54821777 185.67602539 310.44055176 C 185.58952332 309.91159058 185.92118835 309.24179077 186.03240967 308.20193481 C 185.94981384 306.76632690 185.82177734 305.16622925 185.87588501 303.62020874 C 185.71255493 302.12622070 185.53129578 301.03179932 185.96266174 300.36560059 C 186.51419067 300.19854736 187.44161987 300.17953491 188.71890259 300.20257568 C 190.07640076 300.14950562 191.03648376 300.29885864 191.86759949 300.41647339 C 192.72351074 300.08538818 193.25604248 299.90328979 193.42941284 299.99029541 C 193.31024170 300.68881226 193.29501343 301.81201172 193.36552429 303.35787964 C 193.28002930 305.15924072 193.42544556 307.05886841 193.41658020 308.78903198 C 193.87858582 310.01644897 194.59953308 311.03317261 188.36338806 310.24679565" stroke-width="1.78675389" fill="rgb(72, 159, 213)" opacity="1.0" stroke="rgb(247, 252, 248)" stroke-opacity="0.7699439" stroke-linecap="round" stroke-linejoin="round"/>
  </g>
</svg>
