<?xml version="1.0" ?>
<svg xmlns="http://www.w3.org/2000/svg" version="1.1" width="512" height="512" viewBox="0 0 512 512">
  <defs/>
  <g>
    <path d="M 245.58691406 197.64190674 C 245.57536316 197.66175842 245.59124756 197.64416504 245.58111572 197.64300537 C 245.57234192 197.66314697 245.58874512 197.63912964 245.58537292 197.65882874 C 245.57272339 197.64605713 245.58322144 197.64562988 245.57800293 197.65277100 C 245.58758545 197.65161133 245.57211304 197.64283752 245.57792664 197.65402222 C 245.58630371 197.64949036 245.56379700 197.64530945 245.59298706 197.65292358 C 245.56350708 197.64874268 245.57574463 197.64703369 245.58006287 197.65875244 C 245.57188416 197.64189148 245.57600403 197.64874268 245.58087158 197.65815735 C 245.56687927 197.65647888 245.58076477 197.64268494 245.57225037 197.65972900 C 245.56971741 197.65434265 245.58134460 197.65306091 245.57072449 197.65351868 C 245.57618713 197.66474915 245.57421875 197.64608765 245.58691406 197.64190674" stroke-width="0.00000000" fill="rgb(255, 255, 255)" opacity="1.0" stroke="rgb(255, 255, 255)" stroke-opacity="1.0" stroke-linecap="round" stroke-linejoin="round"/>
    <path d="M 232.57272339 162.55410767 C 234.12423706 161.80799866 235.36709595 161.03424072 236.61004639 160.33541870 C 238.18081665 160.04100037 239.31805420 159.63414001 240.48880005 159.57768250 C 241.70056152 159.55641174 243.00000000 159.47303772 244.22706604 159.65267944 C 245.24813843 160.23719788 246.30273438 160.47605896 247.59210205 160.64768982 C 248.63305664 161.31263733 249.68725586 162.28260803 250.80809021 163.11093140 C 251.66961670 163.84115601 252.14434814 164.67056274 252.69831848 165.35227966 C 253.21141052 165.98899841 253.81712341 166.34832764 254.53866577 166.55186462 C 255.08471680 167.21340942 255.39158630 167.95541382 255.25671387 168.61207581 C 254.42947388 169.32936096 253.62174988 170.62805176 252.97470093 172.16726685 C 251.70011902 173.26786804 250.50280762 174.43086243 249.20878601 175.47927856 C 247.82383728 176.02362061 246.39978027 176.56271362 245.08882141 177.30656433 C 243.49688721 177.85282898 241.95285034 178.47853088 240.45835876 178.85791016 C 238.97676086 178.59655762 237.65937805 178.55294800 236.33135986 178.87049866 C 234.71447754 178.47682190 233.34297180 177.93598938 231.86047363 177.69598389 C 230.52375793 177.34719849 229.37403870 176.90486145 228.51812744 176.49243164 C 227.69175720 175.75248718 226.44784546 175.41062927 225.52383423 175.26708984 C 225.31044006 174.59742737 225.38597107 173.50198364 225.58572388 172.12933350 C 226.09222412 170.96922302 226.62716675 169.80332947 227.38365173 169.03587341 C 227.46253967 168.16528320 227.81161499 167.62342834 228.45759583 167.27622986 C 228.83026123 166.21632385 229.60377502 165.63963318 232.57272339 162.55410767" stroke-width="2.00000000" fill="rgb(118, 199, 95)" opacity="1.0" stroke="rgb(0, 9, 1)" stroke-opacity="0.9415642" stroke-linecap="round" stroke-linejoin="round"/>
    <path d="M 263.71868896 183.99717712 C 265.16302490 183.35888672 266.69009399 183.16023254 268.19412231 182.65687561 C 269.87451172 182.68502808 271.55145264 182.50396729 273.16860962 182.28286743 C 274.58288574 182.40876770 275.79211426 182.61848450 276.75122070 183.22496033 C 278.05184937 183.38114929 279.35494995 183.74398804 280.56723022 184.43473816 C 281.57678223 185.49266052 282.74798584 186.42436218 284.14984131 186.82450867 C 284.92245483 187.90190125 285.92007446 188.62513733 286.48916626 189.66003418 C 287.00567627 190.82414246 287.78329468 191.75596619 288.38421631 192.74134827 C 288.56967163 193.96208191 288.49597168 195.03671265 288.24795532 195.89227295 C 287.70080566 196.76803589 287.03186035 197.71774292 286.19332886 198.65524292 C 285.12628174 199.43695068 283.89892578 200.07260132 282.53692627 200.70195007 C 281.00473022 201.25439453 279.30783081 201.69369507 277.51925659 202.03126526 C 275.71871948 202.24859619 273.93194580 202.33998108 272.09396362 202.37741089 C 270.17550659 202.30903625 268.21191406 202.11849976 266.22488403 201.84169006 C 264.24822998 201.48748779 262.31451416 201.08181763 260.50778198 200.73139954 C 258.79138184 200.46879578 257.21020508 200.06196594 255.89392090 199.54727173 C 254.84120178 198.95149231 253.98617554 198.23902893 253.58470154 197.37796021 C 253.68798828 196.37356567 254.12934875 195.18067932 254.38673401 193.93211365 C 254.94396973 192.52465820 255.58137512 191.25390625 256.24508667 189.89971924 C 256.80032349 188.63691711 257.50894165 187.47923279 258.44027710 186.78979492 C 259.69253540 186.20544434 261.17852783 185.62918091 263.71868896 183.99717712" stroke-width="2.00000000" fill="rgb(126, 93, 171)" opacity="1.0" stroke="rgb(5, 0, 11)" stroke-opacity="0.9515983" stroke-linecap="round" stroke-linejoin="round"/>
    <path d="M 276.26745605 299.82916260 C 275.34130859 301.65036011 274.82937622 303.56817627 273.67224121 305.33978271 C 272.39505005 307.25912476 270.80944824 308.96463013 268.79455566 310.36441040 C 266.88735962 312.30871582 264.63037109 313.75405884 261.92095947 314.63110352 C 259.55667114 315.56176758 256.70922852 315.68582153 254.25389099 315.55627441 C 251.87536621 315.21127319 249.56694031 314.31085205 247.14750671 313.64828491 C 245.40470886 312.44778442 243.78465271 311.32070923 242.21669006 310.52392578 C 241.54000854 309.14511108 240.28713989 308.33673096 238.85655212 307.13601685 C 237.50424194 305.19180298 236.63787842 302.52810669 235.78378296 299.65222168 C 235.54203796 296.92541504 235.72840881 294.23394775 236.16293335 291.60635376 C 236.70898438 289.00268555 237.37326050 286.38616943 238.15444946 283.86495972 C 239.07192993 281.53771973 240.14349365 279.40383911 241.43460083 277.38815308 C 242.88796997 275.47048950 244.38424683 273.66970825 245.91018677 272.05346680 C 247.52047729 270.71807861 249.17288208 269.60723877 250.90158081 268.71548462 C 252.66606140 268.06066895 254.39857483 267.61090088 256.14999390 267.37939453 C 257.87402344 267.37319946 259.55633545 267.59838867 261.14074707 268.03042603 C 262.67013550 268.66906738 264.08807373 269.51354980 265.45709229 270.53991699 C 266.79547119 271.69406128 268.04669189 272.95281982 269.18643188 274.35388184 C 270.22164917 275.89248657 271.17175293 277.50296021 272.10119629 279.16174316 C 272.93469238 280.86022949 273.68551636 282.58401489 274.38137817 284.35498047 C 275.03250122 286.13952637 275.64474487 287.89624023 276.26745605 299.82916260" stroke-width="2.00000000" fill="rgb(107, 53, 125)" opacity="1.0" stroke="rgb(12, 8, 16)" stroke-opacity="0.9764688" stroke-linecap="round" stroke-linejoin="round"/>
    <path d="M 298.81103516 297.57702637 C 296.81546021 298.42886353 294.91027832 299.37304688 292.97152710 299.82077026 C 290.82376099 300.09722900 288.46102905 300.21594238 286.13146973 300.21618652 C 283.87387085 300.15713501 281.80133057 299.70382690 279.88549805 299.02645874 C 278.15841675 297.81341553 276.48284912 296.32015991 274.80242920 294.68914795 C 272.97189331 293.03979492 271.32287598 291.26391602 269.89062500 289.36737061 C 268.53625488 287.37112427 267.54864502 285.18774414 266.76525879 282.99267578 C 266.16635132 280.77789307 265.70745850 278.57135010 265.50369263 276.40994263 C 265.67224121 274.31173706 266.22088623 272.29083252 267.08309937 270.33544922 C 268.20608521 268.41253662 269.54074097 266.61135864 271.12396240 264.99237061 C 272.89880371 263.50573730 274.84030151 262.17831421 276.97320557 261.02026367 C 279.26657104 259.98010254 281.66845703 259.06857300 284.05413818 258.33599854 C 286.42370605 257.80856323 288.77676392 257.49359131 291.14379883 257.29486084 C 293.50259399 257.17727661 295.71560669 257.20706177 297.65765381 257.52761841 C 299.40246582 258.29803467 301.04364014 259.49728394 302.74206543 260.72756958 C 304.15145874 262.36788940 305.82214355 263.83526611 307.11117554 265.51174927 C 308.07995605 267.56719971 308.88928223 269.57910156 309.63159180 271.70504761 C 310.08117676 273.75738525 310.38592529 275.79376221 310.26403809 277.79824829 C 310.26419067 279.73971558 309.83547974 281.61422729 309.48657227 283.47705078 C 308.90142822 285.06967163 308.22427368 286.82989502 307.23928833 288.77252197 C 306.26123047 290.57806396 305.23922729 292.67343140 298.81103516 297.57702637" stroke-width="0.67937064" fill="rgb(20, 10, 29)" opacity="1.0" stroke="rgb(22, 16, 26)" stroke-opacity="0.4876901" stroke-linecap="round" stroke-linejoin="round"/>
    <path d="M 237.38458252 294.13131714 C 235.18103027 295.24816895 233.14994812 296.21270752 231.11732483 297.25872803 C 229.30570984 298.19042969 227.47363281 298.65188599 225.50224304 298.67272949 C 223.31202698 299.00814819 221.07359314 298.63580322 218.65667725 298.39938354 C 216.31799316 297.44152832 213.95481873 296.20571899 211.62182617 294.91888428 C 209.47537231 293.49041748 207.98515320 291.37124634 206.40350342 289.36755371 C 205.20791626 287.29461670 204.54161072 285.26528931 203.74974060 283.38433838 C 203.38964844 281.51095581 203.33601379 279.40447998 203.04997253 277.15307617 C 203.18251038 274.67141724 203.67869568 272.11462402 204.47000122 269.63796997 C 205.61590576 267.43032837 206.71734619 265.40045166 208.10006714 263.64953613 C 209.34342957 261.96566772 211.05314636 260.79421997 212.71704102 259.57812500 C 214.23258972 258.27096558 216.04321289 257.57766724 218.14779663 257.39691162 C 220.30033875 257.22988892 222.57591248 256.81387329 224.78857422 256.33172607 C 226.89898682 256.20318604 228.90565491 256.29693604 230.86657715 256.67614746 C 232.74134827 257.40243530 234.51036072 258.50634766 236.15568542 259.83950806 C 237.68371582 261.32928467 238.95213318 262.95910645 240.05354309 264.70764160 C 241.10638428 266.66601562 242.04432678 268.89605713 242.80200195 271.12356567 C 243.59690857 273.11825562 244.47142029 275.02651978 245.14402771 276.97042847 C 245.21878052 278.89633179 245.40249634 280.89630127 245.39843750 282.76663208 C 244.97924805 284.53939819 244.28063965 286.30484009 243.17330933 288.07073975 C 242.03244019 289.93234253 240.94697571 291.88037109 237.38458252 294.13131714" stroke-width="2.00000000" fill="rgb(103, 87, 163)" opacity="1.0" stroke="rgb(15, 13, 28)" stroke-opacity="1.0" stroke-linecap="round" stroke-linejoin="round"/>
    <path d="M 306.35665894 285.47625732 C 304.80587769 288.22463989 302.99954224 290.78381348 300.83920288 292.92861938 C 298.34582520 294.69400024 295.74035645 296.10617065 292.99740601 297.11230469 C 290.33456421 297.72662354 287.68395996 297.93417358 285.07800293 297.70755005 C 282.59750366 297.18762207 280.36041260 296.15625000 278.30242920 294.41018677 C 276.22689819 292.40356445 274.11196899 290.29235840 272.13262939 287.98193359 C 270.30682373 285.43426514 268.93905640 282.70663452 267.89569092 279.61691284 C 266.89416504 276.42987061 265.82305908 273.24642944 264.68725586 270.07083130 C 263.53512573 266.97033691 262.45773315 263.91989136 261.46917725 260.94827271 C 260.54486084 258.16128540 259.75100708 255.58024597 259.16729736 253.09747314 C 258.80349731 250.73646545 258.59240723 248.64027405 258.56164551 246.81700134 C 258.76931763 245.18954468 259.23165894 243.78918457 259.88482666 242.65467834 C 260.73010254 241.76692200 261.77102661 241.12075806 263.00796509 240.72438049 C 264.39422607 240.59509277 265.91256714 240.72395325 267.62057495 241.06991577 C 269.48358154 241.61186218 271.40634155 242.39349365 273.36453247 243.47537231 C 275.36645508 244.85107422 277.41864014 246.40664673 279.57717896 248.02339172 C 281.84881592 249.69163513 284.18322754 251.42419434 286.61840820 253.13380432 C 289.02114868 254.79391479 291.49041748 256.39291382 294.06506348 257.80429077 C 296.57928467 259.07238770 298.96136475 260.51849365 301.09002686 262.30865479 C 303.21893311 264.10556030 304.94201660 266.16915894 306.22402954 268.71044922 C 307.45489502 271.52188110 308.83187866 274.47195435 306.35665894 285.47625732" stroke-width="0.64965951" fill="rgb(110, 56, 129)" opacity="1.0" stroke="rgb(93, 64, 109)" stroke-opacity="0.6449364" stroke-linecap="round" stroke-linejoin="round"/>
    <path d="M 271.67660522 274.03329468 C 270.18780518 275.41220093 268.59750366 276.66143799 267.07061768 277.76403809 C 265.46682739 278.61724854 263.66342163 279.09753418 261.77352905 279.35018921 C 259.91729736 279.49810791 257.98974609 279.52590942 255.97300720 279.60739136 C 254.05844116 279.79794312 252.26741028 279.53820801 250.48065186 278.74453735 C 248.66703796 277.74441528 246.76419067 276.57382202 244.92106628 275.22534180 C 243.39016724 273.44155884 241.97822571 271.43630981 240.51765442 269.36187744 C 238.95309448 267.33020020 237.61373901 265.12960815 236.33015442 263.00064087 C 234.92016602 260.98242188 233.68104553 258.94403076 232.75025940 256.91195679 C 232.19779968 254.88642883 232.07186890 252.82376099 232.26538086 250.81713867 C 232.68048096 248.90019226 233.33712769 247.10308838 234.28326416 245.37568665 C 235.49691772 243.77259827 236.84916687 242.30813599 238.40396118 241.00007629 C 240.14181519 239.83605957 241.98294067 238.84478760 243.89698792 238.03718567 C 245.87832642 237.40322876 247.92167664 236.94104004 249.96250916 236.68914795 C 251.99353027 236.60966492 254.05302429 236.67131042 256.14004517 236.90065002 C 258.17834473 237.33143616 260.12896729 237.89474487 262.01119995 238.58021545 C 263.83316040 239.40562439 265.60882568 240.33599854 267.31283569 241.40028381 C 268.89611816 242.56495667 270.39492798 243.79051208 271.80368042 245.13313293 C 273.17031860 246.57974243 274.50091553 248.09510803 275.74414062 249.61022949 C 276.89398193 251.16969299 277.99581909 252.78507996 279.17279053 254.47175598 C 280.39465332 256.19830322 281.72128296 257.99069214 271.67660522 274.03329468" stroke-width="0.81784105" fill="rgb(36, 23, 49)" opacity="1.0" stroke="rgb(46, 37, 62)" stroke-opacity="0.5663767" stroke-linecap="round" stroke-linejoin="round"/>
    <path d="M 304.36077881 240.18637085 C 303.95565796 241.55448914 303.57629395 243.24545288 303.23010254 244.86730957 C 302.44232178 246.78254700 301.53863525 248.68064880 300.62979126 250.49844360 C 299.26785278 251.82472229 298.15609741 253.19248962 297.01013184 254.22273254 C 296.05090332 255.05317688 295.41488647 255.69992065 294.56158447 255.75210571 C 293.07821655 255.55023193 291.15707397 255.38255310 288.94631958 255.33386230 C 286.63128662 255.52499390 284.20755005 255.58560181 281.65933228 255.37828064 C 279.05899048 255.20805359 276.65786743 254.79942322 274.40847778 253.96755981 C 272.23498535 252.72125244 270.24594116 251.26008606 268.45178223 249.59927368 C 266.79687500 247.69636536 265.29138184 245.64984131 264.05157471 243.54293823 C 263.16864014 241.43066406 262.66528320 239.24150085 262.49484253 236.94830322 C 262.68829346 234.71849060 262.95098877 232.60304260 263.30667114 230.53228760 C 263.72235107 228.51293945 264.39236450 226.70054626 265.21640015 224.95069885 C 266.34185791 223.30558777 267.88040161 221.93986511 269.55587769 220.85322571 C 271.47604370 220.12524414 273.29083252 219.31332397 275.28405762 218.32284546 C 277.42422485 217.52560425 279.52328491 216.98632812 281.61917114 216.79455566 C 283.77267456 217.00314331 286.00164795 217.32727051 288.36392212 217.75910950 C 290.76379395 218.43370056 293.25885010 219.00442505 295.16680908 219.92144775 C 296.51544189 221.21592712 297.88739014 222.39483643 299.20547485 223.65014648 C 300.46359253 225.22421265 301.56817627 227.09463501 302.70431519 229.22822571 C 303.44293213 231.95327759 304.74609375 234.81394958 304.36077881 240.18637085" stroke-width="2.00000000" fill="rgb(126, 99, 181)" opacity="1.0" stroke="rgb(0, 0, 16)" stroke-opacity="0.9356845" stroke-linecap="round" stroke-linejoin="round"/>
    <path d="M 272.95251465 270.05624390 C 271.49502563 271.64392090 270.00112915 273.08740234 268.36242676 274.37503052 C 266.54806519 275.34738159 264.67568970 276.07965088 262.64328003 276.70281982 C 260.61944580 277.16232300 258.48693848 277.34265137 256.47595215 277.60885620 C 254.71511841 277.56320190 252.97953796 277.07467651 251.11112976 276.30282593 C 249.24394226 275.37915039 247.54518127 274.13269043 245.86573792 272.79760742 C 244.16931152 271.24600220 242.77507019 269.50625610 241.35935974 267.52261353 C 239.92691040 265.50933838 238.67057800 263.43307495 237.47679138 261.38543701 C 236.55175781 259.28265381 235.97705078 257.19104004 235.80062866 254.97868347 C 235.46363831 252.68775940 235.28796387 250.49510193 235.45010376 248.47177124 C 235.82887268 246.49932861 236.42442322 244.73005676 237.19349670 243.16244507 C 238.17253113 241.77784729 239.40130615 240.52986145 240.89196777 239.51754761 C 242.60069275 238.95877075 244.49235535 238.77938843 246.52900696 238.65925598 C 248.67245483 238.65260315 250.86880493 238.75431824 253.19694519 238.81573486 C 255.56190491 238.77810669 257.86047363 238.62026978 260.13342285 238.64442444 C 262.30599976 239.01632690 264.42312622 239.31886292 266.50900269 239.71997070 C 268.43652344 240.50659180 270.12915039 241.51147461 271.80038452 242.69403076 C 273.38848877 243.71714783 274.56475830 245.15881348 275.52682495 246.68095398 C 276.20819092 248.16593933 276.68139648 249.65551758 277.42657471 251.22518921 C 277.63696289 252.97261047 277.65585327 254.80615234 277.49792480 256.72372437 C 277.51306152 258.77676392 277.67709351 260.85623169 272.95251465 270.05624390" stroke-width="2.00000000" fill="rgb(108, 89, 165)" opacity="1.0" stroke="rgb(15, 9, 40)" stroke-opacity="1.0" stroke-linecap="round" stroke-linejoin="round"/>
    <path d="M 233.38493347 255.28205872 C 231.09532166 255.21858215 228.74734497 254.98228455 226.46461487 254.67086792 C 224.36479187 254.87725830 222.36851501 254.87986755 220.42211914 254.77255249 C 218.53572083 254.89018250 216.84855652 254.71733093 215.45549011 254.35671997 C 214.41168213 254.46435547 213.66578674 254.65908813 212.97640991 254.25360107 C 212.10115051 253.18746948 210.91972351 251.90438843 209.58433533 250.30317688 C 208.33715820 248.66795349 207.53579712 246.84500122 206.65594482 244.76196289 C 206.16442871 242.74546814 205.60064697 241.01852417 205.34349060 239.26414490 C 205.14694214 237.33007812 205.31752014 235.44613647 205.67086792 233.71316528 C 206.23614502 231.94186401 206.48793030 230.19198608 207.41435242 228.55847168 C 208.28633118 226.65603638 209.48962402 224.81100464 211.23246765 223.07653809 C 212.98280334 221.34417725 214.96870422 219.88771057 216.94744873 218.80758667 C 218.84762573 218.29734802 220.67944336 217.73432922 222.67453003 217.48596191 C 224.62115479 217.32244873 226.55612183 217.30595398 228.47451782 217.44219971 C 230.38140869 217.92257690 232.27024841 218.61384583 234.13183594 219.58128357 C 235.98811340 220.84971619 237.87782288 222.32914734 239.77783203 223.97917175 C 241.53982544 225.86822510 243.07362366 227.85623169 244.38824463 229.85902405 C 245.49914551 231.92768860 246.34089661 234.00952148 246.65795898 235.83087158 C 246.31959534 237.18341064 245.31695557 238.04000854 243.82164001 238.52865601 C 242.20632935 239.19525146 240.76300049 240.58042908 239.33370972 242.50738525 C 237.48934937 244.53248596 235.51144409 246.53736877 233.38493347 255.28205872" stroke-width="2.00000000" fill="rgb(103, 51, 126)" opacity="1.0" stroke="rgb(20, 15, 30)" stroke-opacity="1.0" stroke-linecap="round" stroke-linejoin="round"/>
    <path d="M 290.36233521 208.74143982 C 289.89675903 209.33105469 289.65219116 210.03555298 289.29022217 210.93368530 C 288.40832520 211.72380066 287.71853638 212.86125183 286.89688110 213.90640259 C 286.04794312 215.04452515 284.96591187 215.98031616 283.59588623 216.77639771 C 282.05468750 217.16549683 280.42984009 217.58392334 278.75363159 218.12908936 C 277.06365967 218.33963013 275.46755981 218.57827759 274.01531982 218.82658386 C 272.62936401 218.97950745 271.27581787 218.89907837 269.98458862 218.47158813 C 268.79220581 217.98579407 267.62435913 217.42297363 266.47750854 216.68331909 C 265.40167236 215.77975464 264.38952637 214.81211853 263.53762817 213.77600098 C 262.83181763 212.62715149 262.19836426 211.36123657 261.63821411 210.07444763 C 261.21871948 208.76953125 260.94921875 207.41758728 260.85568237 206.04441833 C 260.94061279 204.64466858 261.19183350 203.28668213 261.66641235 201.96209717 C 262.37200928 200.64237976 263.22637939 199.33386230 264.36508179 198.03555298 C 265.74813843 196.79901123 267.24633789 195.64610291 268.86685181 194.56701660 C 270.66958618 193.49095154 272.56283569 192.46832275 274.48605347 191.56216431 C 276.39794922 190.75366211 278.31655884 190.06716919 280.19046021 189.50845337 C 281.90191650 189.15698242 283.49905396 189.01791382 284.93725586 189.08807373 C 286.14886475 189.63545227 287.20950317 190.47576904 288.06417847 191.59750366 C 288.85906982 192.84274292 289.71493530 194.02156067 290.44946289 195.12173462 C 291.14672852 196.06062317 291.41030884 197.36482239 291.40496826 198.64929199 C 291.48114014 200.15260315 291.66891479 201.77632141 290.36233521 208.74143982" stroke-width="0.77166784" fill="rgb(15, 12, 30)" opacity="1.0" stroke="rgb(25, 25, 32)" stroke-opacity="0.47371188" stroke-linecap="round" stroke-linejoin="round"/>
    <path d="M 267.30310059 209.86990356 C 267.36654663 211.70585632 267.63204956 213.38966370 267.76443481 215.11535645 C 267.79138184 217.01824951 267.87341309 218.89355469 267.57867432 220.64778137 C 266.79583740 222.41091919 266.00320435 224.26220703 265.23440552 226.25059509 C 264.39181519 228.17527771 263.52215576 230.02294922 262.54479980 231.76013184 C 261.35321045 233.52471924 259.88537598 234.89524841 258.18139648 235.81692505 C 256.24523926 236.35995483 254.31001282 236.66473389 252.49404907 237.16934204 C 250.59745789 237.47708130 248.52420044 237.44200134 246.62664795 237.53778076 C 244.72242737 237.21801758 242.83200073 236.87907410 240.87490845 236.28981018 C 238.97872925 235.07862854 237.02272034 233.72523499 235.12446594 232.14755249 C 233.42491150 230.40162659 231.88128662 228.45814514 230.60906982 226.23521423 C 229.56877136 224.03776550 228.91766357 221.93818665 228.70555115 219.73786926 C 228.43542480 217.68046570 227.59693909 215.99037170 227.22546387 214.30455017 C 227.43302917 212.38439941 227.65904236 210.47471619 228.53353882 208.62689209 C 229.83460999 206.87930298 230.76991272 204.88482666 232.10165405 203.17657471 C 233.16526794 201.39996338 234.50955200 200.32528687 235.95433044 199.91642761 C 237.36100769 199.96038818 238.56747437 199.51054382 239.41116333 198.73896790 C 240.56909180 197.98703003 241.73229980 197.37057495 243.00143433 197.28503418 C 244.47312927 197.21804810 246.09617615 197.62261963 247.80505371 198.04963684 C 249.54493713 198.36529541 251.66859436 198.20677185 254.30650330 198.40426636 C 257.42410278 198.87634277 261.11569214 199.46617126 267.30310059 209.86990356" stroke-width="2.00000000" fill="rgb(110, 86, 167)" opacity="1.0" stroke="rgb(10, 10, 32)" stroke-opacity="1.0" stroke-linecap="round" stroke-linejoin="round"/>
    <path d="M 288.98937988 200.09498596 C 288.68121338 201.71031189 288.43576050 203.30978394 288.28619385 204.84161377 C 288.00549316 206.28413391 287.80572510 207.67610168 287.19897461 208.90589905 C 286.45504761 210.09161377 285.57958984 211.36599731 284.63812256 212.48493958 C 283.62448120 213.60020447 282.37536621 214.27424622 280.91952515 214.80459595 C 279.45312500 215.30389404 278.01013184 215.56446838 276.59704590 215.73376465 C 275.19677734 215.79826355 273.96466064 215.89949036 272.89715576 216.27299500 C 271.94335938 216.61094666 271.15692139 216.66682434 270.71279907 216.47688293 C 270.39538574 216.03897095 270.29000854 215.35063171 270.26303101 214.39604187 C 270.10156250 213.27844238 270.01550293 211.97526550 269.80453491 210.49061584 C 269.29635620 209.03102112 268.66497803 207.48988342 267.96221924 205.87020874 C 267.18399048 204.41497803 266.28091431 203.04924011 265.27816772 201.90603638 C 264.27835083 200.85446167 263.56826782 199.67607117 263.07229614 198.44088745 C 262.74603271 197.30029297 262.72833252 196.20370483 262.98751831 195.07615662 C 263.44427490 193.90330505 264.11138916 192.83671570 264.98944092 191.88287354 C 266.06634521 190.91802979 267.26589966 189.92636108 268.55563354 188.94360352 C 269.94515991 188.02484131 271.35818481 187.12017822 272.87472534 186.29049683 C 274.48663330 185.79804993 276.11218262 185.62908936 277.65280151 185.74035645 C 279.08074951 186.10128784 280.45269775 186.72891235 281.81167603 187.51510620 C 283.24459839 188.32496643 284.64169312 189.28646851 285.80029297 190.53887939 C 286.86450195 191.94947815 288.24633789 193.39221191 288.98937988 200.09498596" stroke-width="0.75797749" fill="rgb(129, 94, 174)" opacity="1.0" stroke="rgb(149, 117, 189)" stroke-opacity="0.604833" stroke-linecap="round" stroke-linejoin="round"/>
    <path d="M 258.13482666 184.27038574 C 256.05319214 185.90176392 254.74041748 188.10510254 253.73077393 190.40837097 C 252.90438843 192.47035217 252.32913208 194.35017395 251.98457336 195.82122803 C 251.39012146 196.42468262 250.44982910 196.36341858 248.99971008 196.18014526 C 247.54653931 195.85098267 246.13928223 195.67436218 245.23416138 195.25390625 C 245.55274963 194.96597290 246.40876770 194.42233276 247.09352112 193.31773376 C 247.82518005 192.09303284 248.50814819 190.69140625 249.28794861 189.16613770 C 250.28388977 187.42628479 251.18052673 185.41838074 251.83427429 183.29598999 C 252.82731628 181.08158875 253.60388184 178.54667664 254.16828918 175.92123413 C 254.97773743 173.44062805 255.83355713 170.98931885 256.07522583 168.41229248 C 255.46041870 165.84266663 255.34713745 163.35374451 255.79177856 160.88302612 C 255.35189819 158.56291199 254.90928650 156.37141418 254.40948486 154.31987000 C 253.71273804 152.68760681 253.67709351 151.20419312 253.95812988 149.91987610 C 254.62715149 149.28379822 255.92698669 148.96313477 257.18777466 148.42173767 C 258.51153564 147.97900391 259.74783325 147.76177979 260.75830078 147.53929138 C 261.36972046 147.72212219 261.86685181 148.24328613 262.06488037 149.07792664 C 261.86712646 150.15319824 261.91146851 151.31549072 262.46337891 152.62884521 C 262.64532471 154.48016357 262.79266357 156.60145569 262.69360352 158.92506409 C 262.81195068 161.33929443 262.52127075 163.80178833 262.13110352 166.34378052 C 262.08370972 168.94841003 261.73162842 171.43775940 261.06375122 173.91539001 C 260.49417114 176.52420044 259.89501953 179.10478210 258.13482666 184.27038574" stroke-width="0.53604692" fill="rgb(73, 65, 45)" opacity="1.0" stroke="rgb(0, 0, 4)" stroke-opacity="0.43182012" stroke-linecap="round" stroke-linejoin="round"/>
    <path d="M 250.15002441 204.66130066 C 250.98289490 204.36955261 251.86090088 204.13792419 252.78424072 203.91444397 C 253.60028076 203.72906494 254.39376831 203.65505981 255.20742798 203.62394714 C 255.96640015 203.65425110 256.65606689 203.82983398 257.35150146 204.12825012 C 258.00680542 204.52558899 258.65924072 204.95265198 259.24179077 205.48010254 C 259.82885742 206.03498840 260.38442993 206.62246704 260.96191406 207.16780090 C 261.41213989 207.78607178 261.75494385 208.45321655 261.94979858 209.23065186 C 262.13024902 210.05609131 262.33114624 210.86170959 262.46511841 211.66241455 C 262.48233032 212.47918701 262.30102539 213.25907898 261.99722290 214.03698730 C 261.67797852 214.85295105 261.28591919 215.63005066 260.79257202 216.34777832 C 260.21755981 217.07162476 259.54913330 217.74078369 258.86184692 218.33074951 C 258.16186523 218.92930603 257.48260498 219.51069641 256.75997925 219.96881104 C 255.96330261 220.26736450 255.17984009 220.45170593 254.37123108 220.50453186 C 253.53033447 220.47610474 252.66706848 220.34661865 251.83877563 220.11691284 C 251.02458191 219.88414001 250.19439697 219.61816406 249.39184570 219.23759460 C 248.62364197 218.85130310 247.96492004 218.35491943 247.38496399 217.77777100 C 246.80474854 217.16812134 246.26637268 216.55979919 245.80543518 215.91246033 C 245.40013123 215.24378967 245.08636475 214.57113647 244.92401123 213.89962769 C 244.90611267 213.21337891 244.92585754 212.52281189 244.95368958 211.85848999 C 245.02992249 211.18295288 245.11329651 210.51979065 245.31718445 209.86077881 C 245.58285522 209.17871094 245.84107971 208.47966003 250.15002441 204.66130066" stroke-width="0.87906837" fill="rgb(166, 148, 215)" opacity="1.0" stroke="rgb(151, 127, 205)" stroke-opacity="0.6895246" stroke-linecap="round" stroke-linejoin="round"/>
    <path d="M 220.26814270 229.72450256 C 220.75773621 228.87307739 221.18132019 228.11988831 221.57638550 227.41589355 C 222.11119080 226.86845398 222.67875671 226.40151978 223.40481567 225.95606995 C 224.03500366 225.55775452 224.59754944 225.23083496 225.13932800 224.99145508 C 225.64424133 224.85206604 226.11869812 224.94934082 226.50213623 225.24574280 C 226.92471313 225.71957397 227.43095398 226.32415771 227.94052124 227.04859924 C 228.49121094 227.80003357 228.96835327 228.73190308 229.47665405 229.73770142 C 230.21162415 230.61790466 231.07640076 231.43862915 231.99502563 232.17425537 C 232.84655762 232.93124390 233.56791687 233.87133789 234.25794983 234.71937561 C 235.05960083 235.32766724 235.77255249 235.84552002 236.44918823 236.33573914 C 237.07936096 236.76628113 237.55554199 237.05650330 237.89079285 237.25845337 C 237.94338989 237.60577393 237.75236511 238.01399231 237.33618164 238.57661438 C 236.77478027 239.22001648 236.17929077 239.76132202 235.46501160 240.33514404 C 234.59451294 241.05145264 233.79061890 241.75607300 232.98347473 242.35244751 C 232.10572815 242.98139954 231.45004272 243.70436096 230.86970520 244.26884460 C 230.15267944 244.56021118 229.36280823 244.64378357 228.60618591 244.58547974 C 227.83607483 244.53848267 227.03004456 244.43916321 226.12631226 244.21661377 C 225.25613403 243.73535156 224.42437744 243.08248901 223.56719971 242.36764526 C 222.67729187 241.52415466 221.74218750 240.67962646 220.92485046 239.79547119 C 220.28663635 238.78265381 219.79371643 237.65550232 219.33370972 236.60038757 C 218.81829834 235.54058838 218.37655640 234.55096436 220.26814270 229.72450256" stroke-width="0.98876697" fill="rgb(172, 103, 190)" opacity="1.0" stroke="rgb(145, 86, 164)" stroke-opacity="0.3852704" stroke-linecap="round" stroke-linejoin="round"/>
    <path d="M 298.55450439 226.07327271 C 298.85122681 226.69900513 299.16006470 227.32630920 299.51733398 227.84477234 C 299.83645630 228.34095764 300.04794312 228.91323853 300.12875366 229.54269409 C 300.19580078 230.17152405 300.19937134 230.82626343 300.12249756 231.50677490 C 299.95794678 232.18696594 299.73571777 232.83798218 299.43521118 233.49920654 C 299.02273560 234.15570068 298.54598999 234.80717468 298.04580688 235.44027710 C 297.50659180 236.02690125 296.86898804 236.53593445 296.16464233 237.02012634 C 295.47964478 237.51307678 294.82250977 237.95599365 294.15304565 238.35441589 C 293.44094849 238.58671570 292.70068359 238.62532043 291.91854858 238.61174011 C 291.13558960 238.50714111 290.36029053 238.34349060 289.58428955 238.13548279 C 288.81436157 237.75015259 288.07452393 237.28379822 287.35641479 236.74140930 C 286.67947388 236.15432739 286.01315308 235.59443665 285.37335205 234.99850464 C 284.83526611 234.33331299 284.46093750 233.61976624 284.13464355 232.89831543 C 284.02633667 232.10256958 283.94961548 231.29759216 283.90045166 230.50888062 C 283.81387329 229.68995667 283.76031494 228.85708618 283.83557129 228.06401062 C 284.05020142 227.27967834 284.33398438 226.51011658 284.63473511 225.77307129 C 285.06039429 225.12939453 285.59115601 224.50845337 286.11563110 223.93075562 C 286.72552490 223.46461487 287.34207153 223.04579163 287.90621948 222.63047791 C 288.48162842 222.27980042 289.11795044 222.03782654 289.77642822 221.91094971 C 290.47808838 221.90348816 291.26504517 221.96072388 292.05728149 221.98225403 C 292.86520386 221.99125671 293.72528076 221.96795654 298.55450439 226.07327271" stroke-width="0.70850879" fill="rgb(173, 152, 221)" opacity="1.0" stroke="rgb(158, 137, 211)" stroke-opacity="0.69151676" stroke-linecap="round" stroke-linejoin="round"/>
    <path d="M 233.02995300 280.43643188 C 231.26785278 280.29284668 229.63471985 279.88681030 228.17163086 279.32543945 C 226.91711426 278.61428833 225.93630981 277.71679688 225.22760010 276.73507690 C 224.67893982 275.69180298 224.43478394 274.59307861 224.38410950 273.40454102 C 224.50532532 272.18124390 224.76284790 270.98477173 225.13661194 269.83093262 C 225.71566772 268.76989746 226.34700012 267.78030396 227.11988831 266.92031860 C 227.99121094 266.21679688 228.99006653 265.69256592 230.10464478 265.35806274 C 231.32856750 265.29226685 232.64270020 265.29461670 233.98066711 265.37051392 C 235.19822693 265.37234497 236.29049683 265.58560181 237.29266357 266.25115967 C 238.05549622 267.43115234 238.90989685 268.80404663 239.87294006 270.52017212 C 240.96359253 272.16171265 242.47126770 273.73181152 233.02995300 280.43643188" stroke-width="0.74276918" fill="rgb(170, 151, 222)" opacity="1.0" stroke="rgb(211, 196, 255)" stroke-opacity="0.27438438" stroke-linecap="round" stroke-linejoin="round"/>
    <path d="M 267.85595703 245.03546143 C 269.04214478 245.34317017 270.20965576 245.68115234 271.30911255 246.09544373 C 272.28149414 246.73065186 273.04864502 247.51953125 273.72204590 248.42127991 C 274.27078247 249.44418335 274.71368408 250.51335144 274.98669434 251.58018494 C 275.06292725 252.74075317 275.04681396 253.86882019 274.83206177 254.82885742 C 274.33889771 255.72299194 273.60736084 256.51910400 272.65490723 257.22085571 C 271.50445557 257.76004028 270.27810669 258.15112305 268.96472168 258.45214844 C 267.60882568 258.68099976 266.30426025 258.79653931 265.03186035 258.75125122 C 263.83917236 258.43878174 262.79370117 257.92047119 261.81051636 257.10949707 C 260.87857056 256.05902100 260.09072876 254.73645020 259.70697021 253.03747559 C 259.40472412 251.01121521 259.06311035 248.84452820 267.85595703 245.03546143" stroke-width="0.67062777" fill="rgb(171, 150, 214)" opacity="1.0" stroke="rgb(155, 134, 195)" stroke-opacity="0.4726964" stroke-linecap="round" stroke-linejoin="round"/>
    <path d="M 276.50027466 187.43846130 C 278.14227295 188.37886047 279.63320923 189.40750122 280.81225586 190.53849792 C 281.64984131 191.64385986 282.18093872 192.71870422 282.39050293 193.86851501 C 282.29925537 195.06892395 281.97741699 196.24542236 281.44076538 197.39552307 C 280.71713257 198.46156311 279.85321045 199.39707947 278.86041260 200.23141479 C 277.89025879 200.84385681 276.87738037 201.25958252 275.81616211 201.41325378 C 274.77154541 201.34371948 273.73629761 201.00701904 272.73812866 200.47639465 C 271.76605225 199.89677429 270.83343506 199.23507690 270.04452515 198.40097046 C 269.41824341 197.52108765 268.93325806 196.52662659 268.54284668 195.43656921 C 268.26498413 194.25027466 268.19299316 192.99282837 268.41708374 191.57327271 C 268.95202637 189.94778442 269.64257812 188.12173462 276.50027466 187.43846130" stroke-width="0.70865923" fill="rgb(185, 142, 220)" opacity="1.0" stroke="rgb(156, 117, 197)" stroke-opacity="1.0" stroke-linecap="round" stroke-linejoin="round"/>
    <path d="M 291.83148193 266.09439087 C 293.00311279 265.34228516 294.15646362 264.68054199 295.32656860 264.26632690 C 296.54269409 264.17025757 297.79919434 264.28472900 298.95156860 264.61611938 C 300.08026123 265.07733154 301.13812256 265.62207031 302.04052734 266.20849609 C 302.72225952 266.90109253 303.20584106 267.69360352 303.45913696 268.60333252 C 303.48229980 269.66220093 303.34835815 270.75103760 303.01495361 271.80154419 C 302.48779297 272.83239746 301.76577759 273.80828857 300.98400879 274.69580078 C 300.00750732 275.47644043 298.93621826 276.13833618 297.83834839 276.63455200 C 296.67691040 276.90237427 295.50991821 276.94491577 294.33999634 276.71047974 C 293.17449951 276.26498413 292.04998779 275.50674438 290.96316528 274.41854858 C 289.88589478 273.07083130 288.79736328 271.58843994 291.83148193 266.09439087" stroke-width="1.14173031" fill="rgb(173, 107, 188)" opacity="1.0" stroke="rgb(149, 86, 164)" stroke-opacity="0.72733665" stroke-linecap="round" stroke-linejoin="round"/>
  </g>
</svg>
