<?xml version="1.0" ?>
<svg xmlns="http://www.w3.org/2000/svg" version="1.1" width="512" height="512" viewBox="0 0 512 512">
  <defs/>
  <g>
    <path d="M 286.21569824 511.09356689 C 282.92398071 514.44757080 279.51574707 517.67102051 275.87091064 520.75689697 C 272.03509521 523.69982910 267.89755249 526.26049805 263.49047852 528.47515869 C 258.81887817 530.22375488 253.92263794 531.45190430 248.87483215 532.01593018 C 243.87866211 531.85101318 239.13584900 530.83660889 234.76574707 528.86315918 C 230.88191223 525.85064697 227.84494019 521.70111084 225.91603088 516.26440430 C 225.28057861 509.62930298 225.39796448 501.69149780 225.54351807 492.43914795 C 225.53163147 482.01742554 225.47918701 470.43945312 225.52932739 457.83090210 C 225.55247498 444.29623413 225.49943542 429.90765381 225.54502869 414.84341431 C 225.57081604 399.14465332 225.66125488 382.86227417 225.56494141 366.23965454 C 225.46563721 349.24493408 225.24729919 332.00289917 224.97453308 314.57403564 C 224.72587585 297.06130981 224.60061646 279.42968750 224.61734009 261.83071899 C 224.68087769 244.19200134 224.77528381 226.68687439 224.89814758 209.21931458 C 225.01715088 191.86769104 225.15704346 174.73979187 225.31535339 157.74545288 C 225.42861938 141.04202271 225.40512085 124.60852814 225.54168701 108.52823639 C 225.66459656 92.88117981 225.65682983 77.75527191 225.58567810 63.20173645 C 225.56758118 49.30759048 225.62417603 36.23871994 225.69583130 24.05818558 C 225.51351929 12.96106529 225.35278320 3.07370090 226.37245178 -5.55230093 C 229.36128235 -12.74339199 233.90377808 -18.61799431 239.68064880 -23.04535866 C 246.28378296 -26.09211540 253.30763245 -27.67578125 260.40618896 -27.90066719 C 267.28494263 -26.61203384 273.57345581 -23.87211227 278.91906738 -19.55337524 C 283.07669067 -13.63441849 285.75704956 -6.00135374 286.75265503 3.48329163 C 286.64266968 14.78734684 286.55242920 27.60650444 286.66195679 41.61214447 C 286.56491089 56.64291382 286.64227295 72.34545898 286.65335083 88.60298920 C 285.99581909 105.21819305 286.10125732 122.02041626 286.22805786 139.07983398 C 286.39700317 156.22361755 286.38616943 173.32170105 286.37176514 190.32244873 C 286.37542725 207.20953369 286.48171997 223.85800171 286.57281494 240.33680725 C 286.60296631 256.56283569 286.61972046 272.54116821 286.68072510 288.32461548 C 286.71621704 303.87301636 286.78738403 319.26074219 286.77560425 334.55944824 C 286.61535645 349.76971436 286.56365967 364.89001465 286.65673828 379.99432373 C 286.65838623 395.09719849 286.41696167 410.18841553 286.21569824 511.09356689" stroke-width="0.56690252" fill="rgb(154, 106, 62)" opacity="1.0" stroke="rgb(0, 0, 4)" stroke-opacity="0.36761898" stroke-linecap="round" stroke-linejoin="round"/>
    <path d="M 344.06451416 145.50018311 C 340.85424805 143.73609924 337.68911743 141.87756348 334.45034790 140.10014343 C 331.20480347 138.24203491 327.89303589 136.41526794 324.53356934 134.41763306 C 321.16937256 132.39346313 317.75378418 130.21983337 314.30706787 128.16647339 C 310.82092285 125.98244476 307.41467285 123.74591064 304.05917358 121.43273163 C 300.64624023 119.29482269 297.45880127 117.08311462 294.31887817 115.09603882 C 291.40737915 113.33603668 288.91662598 111.49758911 287.00903320 109.67495728 C 285.90075684 107.77628326 285.58691406 105.78031921 285.75399780 103.66056824 C 286.06381226 101.36711121 286.28012085 99.17704773 286.33895874 97.21276093 C 286.24188232 95.50927734 286.11245728 94.19285583 286.20870972 93.35523987 C 286.70568848 93.07611847 287.37823486 93.50635529 288.27529907 94.52434540 C 289.53424072 95.96440125 291.21740723 97.62392426 293.46572876 99.32655334 C 295.93194580 101.38318634 298.68164062 103.64299774 301.72915649 105.97715759 C 305.04489136 108.47769165 308.44879150 111.08347321 312.03198242 113.82169342 C 315.67758179 116.62592316 319.44628906 119.39920044 323.35134888 122.05316162 C 327.20581055 124.71784210 331.17544556 127.15627289 335.16311646 129.37335205 C 338.81811523 131.72973633 342.35202026 133.97204590 345.71066284 135.79553223 C 348.70376587 137.36456299 351.22570801 138.76928711 353.50903320 139.74400330 C 355.15911865 140.23805237 355.78665161 140.97485352 355.44061279 141.88070679 C 354.35858154 143.14163208 352.92584229 144.79138184 351.24279785 146.54327393 C 350.00659180 148.49975586 349.27276611 150.42663574 344.06451416 145.50018311" stroke-width="0.39459658" fill="rgb(126, 83, 51)" opacity="1.0" stroke="rgb(0, 0, 0)" stroke-opacity="0.3881147" stroke-linecap="round" stroke-linejoin="round"/>
    <path d="M 378.72958374 235.20166016 C 375.09429932 234.15975952 371.49002075 233.03141785 367.78106689 232.05389404 C 364.00210571 231.23332214 360.07400513 230.12467957 356.17694092 228.98011780 C 352.12298584 227.86314392 347.96743774 226.81587219 343.70901489 225.55831909 C 339.43939209 224.24388123 334.95593262 223.01031494 330.56759644 221.77134705 C 326.22760010 220.44869995 321.85952759 219.04864502 317.69607544 217.83145142 C 313.72702026 216.42936707 309.85852051 215.15429688 306.23419189 214.17311096 C 302.94311523 212.91923523 299.95401001 211.63082886 297.31228638 210.57670593 C 294.94744873 209.86476135 293.02325439 209.46127319 291.76647949 208.95021057 C 291.24307251 207.94137573 291.39123535 206.60978699 291.84817505 205.18406677 C 292.43969727 203.53657532 293.33084106 202.14668274 294.38732910 201.38365173 C 295.70266724 201.18098450 297.39855957 201.81916809 299.57745361 202.76902771 C 302.26937866 203.82182312 305.40045166 204.90653992 309.07669067 205.93949890 C 312.76672363 207.26113892 316.87301636 208.53263855 320.98355103 209.82916260 C 325.12957764 211.27330017 329.38845825 212.74780273 333.56478882 214.02429199 C 337.73675537 215.29174805 341.89440918 216.66851807 345.86456299 217.85739136 C 349.67892456 219.16912842 353.40371704 220.26173401 357.04174805 221.22619629 C 360.40896606 222.14277649 363.67660522 222.94076538 366.78784180 223.78195190 C 369.59863281 224.53392029 372.20965576 225.24838257 374.74578857 225.83743286 C 377.02697754 226.63838196 379.00714111 227.12803650 380.91052246 227.67822266 C 382.57626343 227.80018616 383.94723511 227.81011963 378.72958374 235.20166016" stroke-width="0.50882435" fill="rgb(106, 63, 37)" opacity="1.0" stroke="rgb(38, 44, 43)" stroke-opacity="0.3675964" stroke-linecap="round" stroke-linejoin="round"/>
    <path d="M 170.18721008 144.64390564 C 167.20446777 146.45440674 164.15841675 148.06428528 161.22950745 149.72854614 C 158.55572510 151.24967957 155.87843323 152.56648254 153.63948059 153.79035950 C 151.96536255 154.98339844 150.67816162 155.77880859 149.60188293 155.78379822 C 148.69906616 154.96713257 147.75471497 153.73605347 146.77560425 152.63191223 C 145.89796448 151.75410461 145.83105469 150.93092346 146.71342468 150.16270447 C 148.56860352 149.28315735 151.04934692 147.99638367 154.06510925 146.38305664 C 157.45135498 144.50906372 161.27384949 142.37178040 165.29945374 140.12852478 C 169.41795349 137.85575867 173.57313538 135.32130432 177.91310120 133.11404419 C 182.17437744 130.67784119 186.36871338 128.28373718 190.41366577 125.72778320 C 194.44253540 123.23369598 198.38081360 120.80242157 202.27999878 118.43319702 C 205.98786926 116.13629150 209.59526062 113.93511963 213.04765320 111.77047729 C 216.30787659 109.88407135 219.31390381 108.08792877 221.85873413 106.51217651 C 223.90890503 105.15277863 225.40786743 103.97825623 226.44761658 103.49683380 C 226.97605896 103.79204559 227.07524109 104.68430328 226.94851685 105.97297668 C 227.02433777 107.49558258 226.90240479 109.14287567 226.17330933 110.65518188 C 224.43862915 111.89510345 222.17768860 113.28104401 219.55368042 114.96292877 C 216.66764832 116.91251373 213.36070251 118.94554901 209.90095520 121.05152893 C 206.30204773 123.30812836 202.55044556 125.60356903 198.76620483 127.91896820 C 194.86019897 130.23886108 191.02055359 132.53979492 187.11698914 134.90252686 C 183.15162659 137.11863708 179.16331482 139.38493347 170.18721008 144.64390564" stroke-width="0.51777899" fill="rgb(73, 40, 25)" opacity="1.0" stroke="rgb(22, 20, 17)" stroke-opacity="0.39537588" stroke-linecap="round" stroke-linejoin="round"/>
    <path d="M 356.81127930 98.29084015 C 354.33551025 97.58912659 351.85317993 97.03679657 349.43798828 96.33774567 C 347.04205322 95.28184509 344.86746216 93.97719574 342.72686768 92.55912018 C 340.48348999 91.27009583 338.43551636 89.64644623 336.42675781 87.98710632 C 334.52444458 86.23254395 333.02279663 84.17922974 331.42407227 82.37642670 C 330.00851440 80.51562500 328.81695557 78.43859863 328.00543213 76.30693817 C 327.46911621 74.37494659 327.09179688 72.65724945 326.55093384 70.92708588 C 326.27316284 69.03989410 326.30560303 67.44353485 326.41085815 66.30715179 C 326.32324219 65.60208130 326.20721436 65.21624756 326.39120483 65.04263306 C 327.10220337 64.68514252 328.13925171 63.94495773 329.46032715 62.96419144 C 331.12619019 62.28572464 332.86187744 61.83826828 334.83789062 61.39706802 C 337.08120728 61.13365173 339.54556274 61.21532440 342.20812988 61.58455658 C 345.07571411 62.05412292 347.64880371 62.86370468 350.24337769 63.92765427 C 352.82406616 65.33144379 355.52423096 66.99040985 358.19750977 68.77831268 C 360.54669189 70.75158691 363.03027344 72.61676788 365.15747070 74.82637024 C 367.03167725 77.35044098 369.03244019 79.90705872 370.78826904 82.49886322 C 372.35769653 85.18898773 373.54891968 87.99040985 374.43954468 90.61959839 C 375.29577637 93.06174469 375.69546509 95.12745667 375.65872192 96.92797089 C 376.06893921 98.21134186 376.42221069 98.92371368 376.27990723 99.45468140 C 375.63812256 99.62240601 374.64263916 99.70071411 373.44577026 99.66895294 C 371.95800781 99.81703949 370.31381226 100.24555206 356.81127930 98.29084015" stroke-width="2.00000000" fill="rgb(90, 136, 56)" opacity="1.0" stroke="rgb(23, 38, 14)" stroke-opacity="0.9609291" stroke-linecap="round" stroke-linejoin="round"/>
    <path d="M 404.97720337 194.92153931 C 402.56930542 195.63526917 400.08963013 196.22035217 397.70501709 196.69746399 C 395.15991211 197.28862000 392.47232056 197.44886780 389.78384399 197.68872070 C 387.03726196 197.90617371 384.12457275 197.97830200 381.24856567 197.82041931 C 378.36288452 197.71911621 375.38916016 197.54682922 372.35861206 197.01342773 C 369.27890015 196.25173950 366.25942993 195.31761169 363.44699097 193.79113770 C 360.41546631 192.29226685 357.66302490 190.31713867 355.24487305 187.65187073 C 352.80938721 184.92140198 350.53738403 181.94425964 348.61767578 178.76783752 C 347.16918945 175.56874084 346.04641724 172.43008423 345.63397217 169.25712585 C 345.39511108 166.47268677 345.23373413 164.44909668 345.16030884 163.26455688 C 345.48922729 163.21853638 346.21881104 163.48020935 347.51019287 163.49484253 C 349.07229614 162.84825134 350.80865479 161.96295166 352.94485474 161.05699158 C 355.16085815 159.87039185 357.46212769 158.74565125 360.09994507 158.19210815 C 362.77713013 157.56297302 365.80661011 157.43594360 368.96591187 157.46481323 C 372.07046509 157.29177856 375.20346069 157.54190063 378.43927002 157.69746399 C 381.58966064 158.39878845 384.73593140 159.37765503 387.83923340 160.60302734 C 390.88064575 162.17562866 393.96612549 163.97187805 396.90200806 165.94319153 C 399.61401367 168.09759521 402.07537842 170.42292786 404.32821655 172.87124634 C 406.24621582 175.40844727 408.06054688 177.97012329 409.43362427 180.63465881 C 410.51196289 183.46553040 411.73571777 186.09465027 412.34652710 188.77513123 C 412.94104004 191.39402771 413.74435425 193.99232483 404.97720337 194.92153931" stroke-width="2.00000000" fill="rgb(91, 140, 55)" opacity="1.0" stroke="rgb(33, 46, 24)" stroke-opacity="1.0" stroke-linecap="round" stroke-linejoin="round"/>
    <path d="M 92.43714905 145.67492676 C 90.22099304 146.02932739 88.15049744 146.45668030 85.96148682 146.69201660 C 83.67350769 146.63922119 81.47821808 146.69651794 79.36503601 146.81660461 C 77.55679321 147.22758484 75.94694519 147.44664001 74.49889374 147.42018127 C 73.31558990 147.14730835 72.35681915 146.91510010 71.74367523 146.56924438 C 71.63337708 145.88371277 71.98954010 144.92790222 72.64631653 143.64212036 C 73.17311859 141.72564697 73.70655823 139.60276794 74.53582001 137.34944153 C 75.69200897 134.92193604 77.05368042 132.35827637 78.47576904 129.84120178 C 80.19269562 127.46238708 82.03228760 125.16026306 83.83979797 122.85689545 C 85.71740723 120.76055145 87.66843414 118.88514709 89.79949951 117.30953979 C 91.90653229 115.80088806 93.97938538 114.39536285 96.07877350 113.14498138 C 98.35605621 112.16743469 100.70922852 111.32460022 103.03275299 110.58392334 C 105.40401459 110.13809967 107.86011505 109.68621063 110.26486206 109.59100342 C 112.70101929 110.04471588 115.07836151 110.49951935 117.08732605 111.30159760 C 118.83459473 112.33779907 120.22587585 113.31047058 121.30616760 114.06254578 C 121.35188293 115.15063477 121.14893341 116.93798065 121.07969666 118.97943115 C 120.74898529 120.95706177 120.20230103 123.00587463 119.59163666 125.06814575 C 118.55440521 126.94535828 117.31668091 128.79872131 116.20192719 130.82128906 C 114.81080627 132.67945862 113.29470825 134.40518188 111.68912506 136.11834717 C 109.69210052 137.64234924 107.56637573 139.22673035 105.29260254 140.78070068 C 102.83499146 142.22880554 100.47553253 143.84205627 92.43714905 145.67492676" stroke-width="2.00000000" fill="rgb(89, 138, 55)" opacity="1.0" stroke="rgb(9, 26, 0)" stroke-opacity="0.9117117" stroke-linecap="round" stroke-linejoin="round"/>
    <path d="M 216.13095093 263.72915649 C 216.67234802 260.38073730 217.28637695 257.04360962 218.05072021 253.74128723 C 218.63780212 250.38676453 218.99961853 246.96743774 219.43997192 243.54545593 C 219.97674561 240.12626648 220.64205933 236.75213623 221.12141418 233.38842773 C 221.49945068 229.91877747 221.76931763 226.46928406 222.00376892 223.18615723 C 222.36999512 220.05955505 222.92070007 217.08772278 223.71290588 214.26321411 C 224.76379395 211.63912964 226.25527954 209.22431946 228.16673279 207.12467957 C 230.43278503 205.25480652 232.94303894 203.64456177 235.81629944 202.31094360 C 238.91380310 201.23904419 242.27699280 200.32289124 245.80256653 199.65388489 C 249.46208191 199.17132568 253.20037842 198.97317505 257.02200317 198.95867920 C 260.76434326 199.14244080 264.43035889 199.54843140 268.00793457 200.24111938 C 271.45068359 201.15495300 274.75778198 202.36007690 277.77709961 203.74455261 C 280.56832886 205.48786926 283.07540894 207.48590088 285.24334717 209.70793152 C 287.06134033 212.29463196 288.45059204 215.20628357 289.63540649 218.24336243 C 290.66140747 221.56022644 291.54986572 225.05476379 292.23202515 228.62651062 C 292.80773926 232.24531555 293.27142334 235.97151184 293.70101929 239.67756653 C 293.97595215 243.30429077 294.17086792 246.92572021 294.38296509 250.46682739 C 294.58847046 253.83416748 294.82968140 256.97064209 295.21878052 259.80957031 C 296.10937500 262.32870483 296.54534912 264.71197510 296.25283813 267.27038574 C 296.05490112 270.06692505 295.75277710 273.02197266 295.39135742 276.20785522 C 294.84625244 279.29522705 293.89596558 282.28717041 292.21603394 285.09121704 C 290.52432251 288.09823608 288.52410889 291.10482788 285.99118042 293.86257935 C 283.02471924 296.46121216 279.72576904 298.78048706 276.13015747 300.74951172 C 272.34631348 302.35546875 268.48855591 303.86575317 264.59472656 305.07009888 C 260.63342285 305.63912964 256.75607300 305.72842407 253.04736328 305.67153931 C 249.63325500 305.17074585 246.48168945 304.30395508 243.52137756 303.58969116 C 240.56773376 302.86145020 237.78332520 302.07553101 235.25660706 301.21832275 C 232.87712097 300.13351440 230.68191528 298.78442383 228.72442627 297.07244873 C 226.93328857 295.09863281 225.05125427 293.27520752 223.12327576 291.42373657 C 221.66343689 289.04098511 220.24436951 286.49685669 218.93402100 284.00390625 C 217.81626892 281.27075195 216.78054810 278.63491821 216.13095093 263.72915649" stroke-width="2.00000000" fill="rgb(143, 156, 160)" opacity="1.0" stroke="rgb(47, 47, 42)" stroke-opacity="1.0" stroke-linecap="round" stroke-linejoin="round"/>
    <path d="M 251.11456299 233.26898193 C 246.71530151 232.36163330 242.56750488 230.91796875 238.81958008 228.80723572 C 235.21795654 226.46112061 231.95474243 223.82203674 229.19783020 220.86764526 C 227.04878235 217.77893066 225.41973877 214.60226440 224.38063049 211.49986267 C 223.56124878 208.66523743 223.03088379 206.34167480 222.36035156 205.05303955 C 221.30073547 205.00296021 220.41824341 205.85896301 219.80375671 206.79472351 C 219.34152222 206.72776794 219.20542908 205.46240234 219.42079163 203.32617188 C 220.38383484 200.45890808 221.52014160 197.13072205 222.86062622 193.40614319 C 224.44303894 189.36453247 226.29055786 185.26429749 228.53492737 181.30174255 C 231.10494995 177.55213928 233.96612549 174.17471313 237.15551758 171.42652893 C 240.83279419 169.47007751 244.77066040 168.07431030 248.73605347 167.01914978 C 252.71386719 166.35838318 256.64663696 166.22607422 260.50366211 166.69601440 C 264.35293579 167.46876526 268.06463623 168.72430420 271.40307617 170.44267273 C 274.60360718 172.41612244 277.64028931 174.63185120 280.39547729 177.10102844 C 282.81024170 179.86526489 284.91412354 182.88191223 286.72216797 186.00672913 C 288.20422363 189.14682007 289.40158081 192.30805969 290.15270996 195.60617065 C 290.56713867 199.00833130 290.68249512 202.26722717 290.27362061 205.38151550 C 289.30511475 208.57978821 288.41967773 211.72782898 287.29306030 214.84942627 C 285.53347778 217.71171570 283.20321655 220.34963989 280.67782593 222.97975159 C 277.87615967 225.40200806 274.67758179 227.62487793 271.25509644 229.63571167 C 267.43002319 231.49438477 263.31042480 233.45512390 251.11456299 233.26898193" stroke-width="1.92629373" fill="rgb(149, 161, 168)" opacity="1.0" stroke="rgb(32, 35, 38)" stroke-opacity="0.9312909" stroke-linecap="round" stroke-linejoin="round"/>
    <path d="M 245.32330322 189.87367249 C 243.62040710 192.55252075 241.79400635 195.10342407 239.81930542 197.41201782 C 237.66029358 199.34780884 235.28720093 201.00415039 232.84722900 202.29187012 C 230.51254272 203.19711304 228.25798035 203.58920288 226.17346191 203.55474854 C 224.35075378 203.67646790 223.01492310 203.60522461 222.32975769 203.13162231 C 222.34750366 202.26370239 222.71669006 201.21954346 223.04316711 200.21331787 C 222.97053528 199.37985229 222.41589355 198.93901062 221.35037231 199.05508423 C 219.99026489 199.55531311 218.56680298 199.73727417 217.31878662 199.23411560 C 216.36576843 198.00358582 215.39303589 196.26689148 214.03018188 194.48667908 C 212.78469849 192.67840576 211.66386414 190.83570862 210.69166565 188.94267273 C 210.96354675 186.95077515 210.85617065 184.98423767 210.08573914 183.04101562 C 210.53083801 180.98023987 211.00619507 178.88070679 211.48080444 177.12945557 C 212.56944275 176.07733154 213.73973083 175.44941711 214.27499390 174.75247192 C 213.65057373 173.78138733 213.19848633 172.58485413 213.23461914 171.37777710 C 214.31146240 170.62892151 215.59591675 169.87734985 216.37507629 168.75306702 C 216.73692322 167.16310120 217.54185486 166.14851379 219.03517151 165.72863770 C 220.97192383 165.53022766 223.03935242 165.34243774 225.01249695 164.97169495 C 226.94264221 164.85842896 228.86134338 165.45240784 230.78677368 166.59135437 C 232.75476074 167.83927917 234.80709839 169.33370972 236.69883728 171.27355957 C 238.45198059 173.39793396 240.28794861 175.40731812 242.35218811 177.16989136 C 244.47091675 178.81623840 246.54699707 180.36820984 245.32330322 189.87367249" stroke-width="2.00000000" fill="rgb(148, 160, 164)" opacity="1.0" stroke="rgb(91, 97, 100)" stroke-opacity="1.0" stroke-linecap="round" stroke-linejoin="round"/>
    <path d="M 300.61718750 184.00840759 C 300.07473755 185.17050171 299.94705200 186.32374573 300.29644775 187.41670227 C 300.68298340 188.45642090 300.60565186 189.13098145 299.97042847 189.18093872 C 299.15158081 189.34486389 298.82577515 190.06912231 298.88000488 191.32571411 C 298.62594604 192.74980164 297.81103516 194.10615540 296.83493042 195.64891052 C 295.70248413 197.07304382 294.64962769 198.49612427 293.54016113 199.81326294 C 292.01455688 200.54914856 290.40429688 201.13644409 288.86108398 201.62524414 C 287.22973633 201.77966309 285.55004883 201.34475708 283.92340088 200.32797241 C 282.10336304 199.07197571 280.18218994 197.77040100 278.34838867 196.30142212 C 276.61593628 194.67881775 274.96456909 192.99034119 273.44580078 191.44084167 C 271.78195190 190.17790222 270.52114868 188.82536316 269.64422607 187.40380859 C 269.41223145 185.83984375 269.42092896 184.16452026 269.43328857 182.37370300 C 269.44049072 180.51211548 269.50891113 178.66168213 269.77008057 176.94923401 C 270.43698120 175.36663818 271.57272339 173.87629700 273.09286499 172.47193909 C 274.64471436 170.98756409 276.26626587 169.58638000 278.02966309 168.26406860 C 279.80191040 167.05395508 281.64624023 166.09069824 283.71960449 165.61419678 C 285.86264038 165.63745117 288.03915405 165.70075989 290.20361328 165.61296082 C 292.16067505 166.12275696 294.00723267 166.76316833 295.58810425 167.44409180 C 296.69573975 168.67454529 297.86550903 169.67555237 298.37570190 170.75376892 C 297.87890625 172.35430908 297.60571289 173.94325256 298.15130615 175.01112366 C 299.44738770 174.89595032 300.60339355 174.26129150 300.61718750 184.00840759" stroke-width="2.00000000" fill="rgb(148, 162, 165)" opacity="1.0" stroke="rgb(88, 95, 96)" stroke-opacity="1.0" stroke-linecap="round" stroke-linejoin="round"/>
    <path d="M 256.46466064 216.69142151 C 256.51699829 216.67489624 256.47589111 216.68951416 256.47363281 216.68360901 C 256.50082397 216.66683960 256.48785400 216.69595337 256.47579956 216.68066406 C 256.49548340 216.66873169 256.48248291 216.68373108 256.48547363 216.68829346 C 256.48965454 216.66027832 256.48104858 216.68505859 256.47302246 216.67712402 C 256.49795532 216.67167664 256.48635864 216.68356323 256.47131348 216.67468262 C 256.49331665 216.68055725 256.48086548 216.67535400 256.47238159 216.68650818 C 256.49511719 216.67640686 256.46536255 216.67890930 256.49517822 216.68919373 C 256.48068237 216.68244934 256.48171997 216.67231750 256.47927856 216.70619202 C 256.49914551 216.68423462 256.47683716 216.69023132 256.47839355 216.68220520 C 256.49810791 216.70147705 256.47918701 216.68643188 256.46466064 216.69142151" stroke-width="0.00000000" fill="rgb(0, 0, 0)" opacity="1.0" stroke="rgb(0, 0, 0)" stroke-opacity="1.0" stroke-linecap="round" stroke-linejoin="round"/>
    <path d="M 217.73773193 224.48280334 C 219.09724426 222.31175232 220.21568298 220.22323608 221.44409180 218.34002686 C 222.36178589 216.65155029 222.99308777 215.41691589 223.47982788 214.78498840 C 223.83673096 214.88754272 224.11949158 215.70332336 224.57351685 216.89334106 C 225.21165466 218.27908325 226.07817078 219.81248474 227.21458435 221.29682922 C 228.32225037 222.59620667 229.31120300 223.70716858 229.84965515 224.71223450 C 229.55812073 225.67016602 228.66041565 226.59982300 227.43199158 227.55911255 C 225.87541199 228.42185974 224.27688599 229.61201477 222.85440063 231.15200806 C 221.86506653 233.02183533 221.41165161 235.35194397 221.14437866 238.14865112 C 220.42205811 241.26672363 219.45750427 244.40278625 218.31782532 247.63269043 C 217.02813721 251.03419495 215.71302795 254.37034607 214.40995789 257.41448975 C 212.61521912 260.01467896 210.71150208 262.48852539 208.87217712 264.61187744 C 207.00352478 266.25515747 205.25679016 267.72024536 203.77743530 268.92391968 C 202.74499512 269.98361206 201.97676086 270.74957275 201.39572144 270.99813843 C 201.00982666 270.66363525 200.88912964 269.95141602 201.03034973 268.95062256 C 201.35314941 267.57040405 201.55323792 265.88195801 201.64828491 263.99813843 C 202.11372375 262.09301758 202.77867126 260.11773682 203.24581909 258.07678223 C 203.51728821 255.91903687 204.14192200 253.80030823 205.21968079 251.73098755 C 205.82484436 249.43489075 206.65560913 247.08270264 207.74868774 244.78779602 C 208.88354492 242.41195679 209.97814941 239.87838745 211.02943420 237.30752563 C 212.28886414 234.83247375 213.55668640 232.37994385 217.73773193 224.48280334" stroke-width="2.00000000" fill="rgb(146, 162, 164)" opacity="1.0" stroke="rgb(55, 62, 62)" stroke-opacity="0.99256516" stroke-linecap="round" stroke-linejoin="round"/>
    <path d="M 306.71368408 269.70828247 C 305.22320557 267.82644653 303.62167358 265.97924805 302.18090820 264.03131104 C 301.01358032 261.89898682 299.70126343 259.79183960 298.24679565 257.79867554 C 296.90328979 255.65617371 295.84106445 253.31990051 294.94818115 250.82078552 C 294.01513672 248.21839905 293.05154419 245.66584778 292.08181763 243.21339417 C 291.29132080 240.64859009 290.68814087 238.14686584 289.95187378 235.87170410 C 288.68682861 233.80590820 287.50753784 231.83880615 286.72451782 229.94038391 C 286.39511108 228.09075928 286.44009399 226.17266846 286.51699829 224.21376038 C 286.39505005 222.43661499 286.20565796 220.90066528 286.39779663 219.43434143 C 287.11892700 218.12364197 287.93734741 217.00677490 288.56011963 216.26971436 C 289.16577148 216.22845459 289.43463135 216.79257202 289.59848022 217.89190674 C 290.21231079 219.12931824 291.16992188 220.57264709 292.29415894 222.19619751 C 293.54483032 224.02337646 294.75741577 226.14968872 296.00527954 228.25868225 C 297.30404663 230.47994995 298.47439575 232.87316895 299.76101685 235.29414368 C 301.05892944 237.62237549 302.11935425 239.94346619 303.34255981 242.27540588 C 304.38815308 244.55200195 305.41183472 246.85078430 306.28121948 248.92250061 C 306.95440674 250.86080933 307.43447876 252.72209167 308.07492065 254.62815857 C 308.56320190 256.27252197 309.11544800 257.77471924 309.77828979 259.21038818 C 310.25387573 260.84530640 310.37469482 262.42175293 310.45736694 263.96060181 C 311.00650024 265.70202637 311.42965698 267.67449951 311.50103760 269.68264771 C 311.63201904 271.67312622 311.91793823 273.84704590 306.71368408 269.70828247" stroke-width="2.00000000" fill="rgb(146, 160, 163)" opacity="1.0" stroke="rgb(60, 65, 64)" stroke-opacity="1.0" stroke-linecap="round" stroke-linejoin="round"/>
    <path d="M 224.44892883 299.40164185 C 225.46594238 298.87506104 226.40708923 298.28820801 227.32821655 298.03707886 C 228.38259888 298.42947388 229.61180115 299.13989258 230.93785095 300.07617188 C 232.47274780 300.96350098 233.85757446 301.72637939 235.13423157 302.33261108 C 236.20289612 302.74743652 236.80790710 303.20147705 236.72599792 303.71310425 C 235.86112976 304.40151978 234.69506836 305.57336426 233.34384155 307.09741211 C 231.83316040 308.92684937 230.15223694 310.95761108 228.49798584 313.02975464 C 226.89765930 315.00558472 225.77558899 317.06057739 225.14352417 319.18041992 C 224.91041565 321.12817383 224.98326111 322.64215088 224.87072754 323.47640991 C 224.15049744 323.61929321 223.15176392 323.49237061 222.04365540 323.64367676 C 221.11505127 324.02612305 220.55984497 324.70153809 220.59825134 325.89520264 C 220.86308289 327.37478638 220.58967590 328.91955566 219.97406006 330.41201782 C 219.59313965 331.86282349 219.19696045 333.01467896 218.55992126 333.68975830 C 217.61605835 333.53659058 216.19427490 333.45816040 214.51805115 333.26193237 C 212.99468994 332.86087036 211.82650757 332.51177979 211.00279236 332.47158813 C 210.60231018 332.33663940 210.51510620 331.97067261 210.73059082 331.27145386 C 210.73272705 330.23553467 210.78309631 329.01119995 211.19172668 327.57647705 C 211.74377441 325.91598511 212.21299744 323.99499512 212.98100281 322.21685791 C 213.82664490 320.29312134 214.55953979 318.34576416 215.29896545 316.38000488 C 216.19389343 314.33728027 217.13813782 312.31991577 218.14543152 310.25674438 C 219.12139893 308.19873047 220.09217834 306.06063843 224.44892883 299.40164185" stroke-width="1.79848456" fill="rgb(139, 154, 158)" opacity="1.0" stroke="rgb(30, 36, 34)" stroke-opacity="0.82757676" stroke-linecap="round" stroke-linejoin="round"/>
    <path d="M 284.46691895 297.64028931 C 285.30340576 298.40240479 286.18835449 299.11514282 287.13082886 299.79058838 C 287.95751953 300.72982788 288.67996216 301.74197388 289.37088013 302.88800049 C 289.95913696 304.13943481 290.59808350 305.46347046 291.62203979 306.62857056 C 292.18515015 307.97235107 292.79449463 309.46093750 293.54364014 310.88348389 C 294.27764893 312.43450928 294.97225952 313.92535400 295.77795410 315.50186157 C 296.41265869 317.12060547 297.08917236 318.73632812 297.57061768 320.42739868 C 298.00247192 321.99450684 298.64361572 323.49612427 299.15542603 324.81326294 C 299.37023926 325.96463013 299.61444092 326.88198853 299.73364258 327.51040649 C 299.55368042 327.98440552 299.16888428 328.26342773 298.64047241 328.25650024 C 297.92300415 328.07403564 296.98156738 327.66870117 295.85083008 327.06283569 C 294.70455933 326.39965820 293.68777466 325.71960449 292.78540039 324.94415283 C 291.95538330 324.07736206 291.23016357 323.19833374 290.43182373 322.60525513 C 289.69552612 322.23971558 289.17156982 322.08895874 288.72482300 322.38742065 C 288.02188110 322.66253662 287.39697266 322.87109375 286.97552490 322.74450684 C 286.74551392 322.13757324 286.56784058 321.22653198 286.39068604 320.13513184 C 286.08425903 318.96099854 285.54739380 317.59738159 284.82009888 316.01190186 C 283.95278931 314.45681763 283.05807495 312.91754150 282.07574463 311.43145752 C 280.84817505 310.05725098 279.70230103 308.60174561 278.69027710 307.15399170 C 277.72579956 305.84494019 276.83758545 304.83938599 275.96902466 304.10684204 C 275.19326782 303.62820435 274.37622070 303.42129517 284.46691895 297.64028931" stroke-width="2.00000000" fill="rgb(146, 160, 162)" opacity="1.0" stroke="rgb(42, 44, 40)" stroke-opacity="0.89182866" stroke-linecap="round" stroke-linejoin="round"/>
    <path d="M 489.98348999 508.92816162 C 483.18099976 509.04489136 476.39157104 509.03707886 469.57699585 508.97076416 C 462.67575073 508.97979736 455.54519653 508.95904541 448.30484009 509.00909424 C 440.89852905 508.98040771 433.20599365 508.87338257 425.25112915 509.10406494 C 416.99783325 510.65844727 408.39804077 512.60137939 399.42602539 514.43701172 C 390.22885132 515.86492920 380.87539673 516.91339111 371.39178467 517.69580078 C 362.03768921 518.20513916 352.96896362 518.46417236 344.29122925 518.46771240 C 336.01962280 518.29339600 328.32928467 517.87042236 321.42056274 517.21447754 C 315.26312256 516.37957764 310.01300049 515.36779785 305.81988525 514.19506836 C 302.89620972 512.84747314 301.14926147 511.38601685 300.86917114 509.76467896 C 301.99026489 508.17797852 304.28890991 506.64172363 307.72415161 505.08502197 C 312.03524780 503.69213867 317.29650879 502.75485229 323.37084961 501.98150635 C 330.11425781 501.95248413 337.44152832 502.01766968 345.26580811 501.98593140 C 353.49954224 502.05014038 362.02743530 502.02212524 370.84027100 502.06765747 C 379.82397461 501.95996094 388.85983276 501.96520996 397.89495850 501.96563721 C 406.74813843 501.92950439 415.40744019 502.10113525 423.92800903 501.92745972 C 432.05230713 501.16961670 439.84527588 500.54608154 447.39419556 500.07061768 C 454.79638672 499.95867920 462.03033447 500.03302002 469.03698730 500.02310181 C 475.81750488 500.06851196 482.40615845 499.89389038 488.78479004 499.91134644 C 494.87673950 500.49844360 500.76947021 501.25250244 506.60653687 502.11224365 C 512.46099854 503.06298828 518.15167236 504.04354858 489.98348999 508.92816162" stroke-width="1.30711210" fill="rgb(255, 255, 255)" opacity="1.0" stroke="rgb(255, 255, 255)" stroke-opacity="0.0" stroke-linecap="round" stroke-linejoin="round"/>
    <path d="M 247.20901489 208.03851318 C 247.28117371 207.14270020 247.51741028 206.31729126 247.91699219 205.54638672 C 248.39707947 204.74270630 248.91891479 203.81770325 249.47482300 202.85023499 C 250.10957336 202.07789612 250.90104675 201.52235413 251.77436829 201.02821350 C 252.63998413 200.57240295 253.60655212 200.40220642 254.62622070 200.38282776 C 255.72508240 200.36125183 256.90991211 200.46012878 258.07754517 200.61921692 C 259.12600708 200.99388123 260.19781494 201.54672241 261.17446899 202.31050110 C 261.92630005 203.29418945 262.64135742 204.37690735 263.25827026 205.52709961 C 263.59878540 206.81965637 263.90341187 208.19572449 264.24844360 209.55674744 C 264.57879639 210.87226868 264.78839111 212.22293091 264.89068604 213.62071228 C 264.78958130 214.92025757 264.76565552 216.17492676 264.73306274 217.47834778 C 264.70748901 218.75366211 264.70870972 219.93888855 264.52084351 221.08058167 C 264.17260742 222.17788696 263.62509155 223.21591187 262.97460938 224.24732971 C 262.28378296 225.08723450 261.46005249 225.87532043 260.49218750 226.45770264 C 259.36889648 226.69976807 258.16760254 226.91250610 257.01635742 227.19941711 C 255.77389526 227.39714050 254.53985596 227.47760010 253.42002869 227.36169434 C 252.40441895 227.13301086 251.41969299 226.70172119 250.52221680 226.07864380 C 249.63061523 225.47735596 248.83122253 224.74499512 248.07972717 223.88424683 C 247.43113708 222.99346924 246.97749329 222.15052795 246.67478943 221.23162842 C 246.59210205 220.24043274 246.65179443 219.29183960 246.58480835 218.34899902 C 246.38095093 217.35096741 246.21359253 216.37425232 247.20901489 208.03851318" stroke-width="0.16299026" fill="rgb(18, 28, 44)" opacity="1.0" stroke="rgb(71, 54, 29)" stroke-opacity="0.5433163" stroke-linecap="round" stroke-linejoin="round"/>
    <path d="M 263.53594971 -4.88198090 C 264.08987427 -0.03326341 264.21334839 4.77794170 264.18234253 9.56600571 C 264.19134521 14.26317310 264.19970703 18.91556931 264.09069824 23.40579033 C 264.06387329 27.78396988 264.06542969 32.00477219 263.96374512 36.02125168 C 263.87207031 39.86861038 263.81167603 43.54180145 263.73486328 46.98443222 C 263.65042114 50.19645309 263.55856323 53.21380615 263.35363770 56.03828430 C 263.13568115 58.61279297 262.89282227 60.98825836 262.58221436 63.19057083 C 262.23928833 65.19560242 262.01187134 67.06228638 261.99761963 68.82422638 C 262.01483154 70.46612549 261.92803955 72.00964355 261.86105347 73.46566010 C 261.85336304 74.89293671 261.89553833 76.26325989 262.05834961 77.61743927 C 262.35983276 78.95407867 262.66287231 80.28845978 263.53594971 -4.88198090" stroke-width="0.77917784" fill="rgb(45, 2, 0)" opacity="1.0" stroke="rgb(67, 29, 15)" stroke-opacity="0.8215173" stroke-linecap="round" stroke-linejoin="round"/>
    <path d="M 242.14532471 0.15807387 C 242.96949768 3.18799615 243.41731262 6.33849478 243.45915222 9.58658695 C 243.47601318 12.94607830 243.44267273 16.26278877 243.40856934 19.64979362 C 243.42971802 22.99309349 243.40284729 26.30513000 243.39768982 29.52661896 C 243.35101318 32.70631027 243.21798706 35.79005814 243.17529297 38.79726028 C 243.13873291 41.78239059 243.14424133 44.64070892 243.12001038 47.41658020 C 243.07307434 50.19782257 243.02394104 52.84878159 243.05119324 55.48562241 C 243.11799622 58.05997467 243.09576416 60.62406158 243.03543091 63.12094116 C 242.96340942 65.56483459 242.95777893 67.95470428 242.92863464 70.31829071 C 242.92874146 72.56737518 242.77906799 74.76412201 242.23899841 76.83912659 C 241.48423767 78.88196564 240.96911621 80.96273804 242.14532471 0.15807387" stroke-width="0.44878384" fill="rgb(48, 13, 0)" opacity="1.0" stroke="rgb(71, 45, 36)" stroke-opacity="0.7222883" stroke-linecap="round" stroke-linejoin="round"/>
    <path d="M 266.51736450 166.69429016 C 262.45962524 165.88594055 258.60836792 165.03634644 254.98434448 164.58381653 C 251.64031982 164.79026794 248.57658386 165.58340454 245.91824341 166.57661438 C 243.61216736 167.42686462 241.85992432 168.04109192 240.58190918 168.05526733 C 239.95195007 167.23063660 239.92457581 165.51542664 240.03425598 163.00587463 C 240.09919739 159.81884766 240.04733276 155.89703369 240.07255554 151.39785767 C 240.07934570 146.37319946 239.98237610 140.93737793 240.07136536 135.20338440 C 240.05543518 129.37054443 240.02175903 123.42339325 239.96371460 117.64183807 C 239.97332764 112.13770294 240.00703430 107.06292725 239.99554443 102.59143829 C 239.85089111 98.95030212 239.78546143 96.24539185 240.51290894 94.60344696 C 242.84953308 94.14958191 246.23165894 94.27537537 250.20945740 94.42421722 C 254.30468750 94.48281097 258.05233765 94.55633545 260.92980957 94.33353424 C 262.46810913 93.23297119 262.84674072 91.11157990 262.70535278 88.10794830 C 262.75219727 84.41179657 262.84732056 80.28453064 263.01242065 75.92166138 C 263.29953003 71.59374237 263.48153687 67.49530792 263.46456909 63.83021164 C 263.62878418 60.73666763 263.82171631 58.54073334 264.21716309 57.37300873 C 264.84893799 57.45861053 265.57498169 58.64789200 266.27215576 60.87132645 C 266.76501465 64.03916168 266.92977905 67.97318268 266.84817505 72.47918701 C 266.78613281 77.59133148 266.76397705 83.08170319 266.72018433 88.91404724 C 266.66494751 94.99102020 266.57876587 101.13071442 266.54507446 107.37790680 C 266.61041260 113.68945312 266.72793579 120.02920532 266.51736450 166.69429016" stroke-width="1.81865156" fill="rgb(161, 110, 66)" opacity="1.0" stroke="rgb(55, 19, 7)" stroke-opacity="0.70469314" stroke-linecap="round" stroke-linejoin="round"/>
    <path d="M 219.75030518 324.21441650 C 220.40989685 325.69039917 220.81030273 327.07971191 220.84294128 328.48309326 C 220.58161926 329.83322144 220.14849854 331.03506470 219.67846680 331.91671753 C 219.29731750 332.47332764 219.10157776 332.54071045 219.02740479 332.01260376 C 218.89276123 331.13961792 218.46051025 330.39273071 217.78630066 330.01034546 C 217.04292297 330.05908203 216.30610657 330.43289185 215.51864624 331.20837402 C 214.71182251 332.21975708 214.15959167 333.44702148 213.93518066 334.70700073 C 213.84577942 335.78207397 213.55862427 336.30514526 213.15946960 336.25387573 C 213.02041626 335.52661133 213.06721497 334.55181885 212.89988708 333.56204224 C 212.26034546 332.71688843 211.20323181 331.87707520 210.09582520 330.80209351 C 209.05158997 329.50091553 208.11856079 328.11404419 219.75030518 324.21441650" stroke-width="0.92088413" fill="rgb(10, 11, 9)" opacity="1.0" stroke="rgb(0, 0, 0)" stroke-opacity="0.79173774" stroke-linecap="round" stroke-linejoin="round"/>
    <path d="M 302.33563232 329.20312500 C 301.99728394 330.91241455 301.63983154 332.50659180 301.24053955 333.78167725 C 300.63381958 334.68035889 299.93927002 335.09240723 299.49777222 334.85284424 C 299.22595215 333.91687012 298.76150513 332.70510864 298.12063599 331.72198486 C 297.46716309 331.05178833 296.78656006 330.94418335 296.35504150 331.40179443 C 296.27978516 332.43862915 296.11813354 333.72384644 295.94445801 334.97436523 C 295.77114868 335.99069214 295.25958252 336.58953857 294.55770874 336.54516602 C 293.75497437 335.83029175 292.89779663 334.75762939 292.06423950 333.34597778 C 291.67120361 331.68011475 291.19100952 330.21078491 290.39025879 328.94903564 C 289.75708008 327.80767822 290.05545044 326.78665161 290.85986328 325.62838745 C 292.19979858 324.28997803 293.50695801 322.75415039 302.33563232 329.20312500" stroke-width="0.70953077" fill="rgb(23, 17, 14)" opacity="1.0" stroke="rgb(56, 56, 42)" stroke-opacity="0.62891334" stroke-linecap="round" stroke-linejoin="round"/>
    <path d="M 262.31555176 416.38122559 C 259.07098389 417.52560425 256.32110596 419.10961914 254.55210876 421.42300415 C 254.04832458 424.69119263 254.12036133 428.84240723 254.36599731 433.43481445 C 254.47973633 438.29327393 254.69570923 443.25473022 254.76435852 447.95361328 C 254.63824463 452.23165894 254.64463806 455.85632324 255.32705688 458.57211304 C 257.24920654 460.15036011 259.75747681 461.14984131 261.83483887 462.60003662 C 262.44039917 465.63784790 262.44720459 469.88369751 262.33605957 475.04516602 C 262.35559082 480.90420532 262.48068237 487.13430786 262.46694946 493.43899536 C 262.56442261 499.61761475 262.70062256 505.39306641 262.53930664 510.37121582 C 261.37771606 514.44476318 259.39532471 517.54144287 256.72991943 519.60113525 C 253.71832275 520.73352051 250.56800842 520.97943115 247.46452332 520.32397461 C 244.64668274 518.71423340 242.36901855 516.17285156 240.82273865 512.68261719 C 240.28392029 508.21823120 240.29078674 502.84420776 240.40003967 496.61138916 C 240.35496521 489.64059448 240.20674133 482.00332642 240.14279175 473.74536133 C 240.00143433 464.83334351 239.99711609 455.31854248 239.98362732 445.31970215 C 239.93519592 434.78546143 239.80520630 423.84213257 239.77865601 412.66497803 C 239.96525574 401.23522949 240.00469971 389.75909424 239.97869873 378.44528198 C 239.97366333 367.36697388 240.02169800 356.78567505 240.07965088 346.84625244 C 239.82460022 337.74243164 239.43098450 329.66049194 240.78228760 322.90847778 C 246.44049072 317.62634277 253.23487854 312.28234863 259.46893311 306.39822388 C 263.35372925 299.97741699 265.04248047 293.28472900 262.31555176 416.38122559" stroke-width="2.00000000" fill="rgb(160, 108, 66)" opacity="1.0" stroke="rgb(31, 0, 0)" stroke-opacity="0.72633344" stroke-linecap="round" stroke-linejoin="round"/>
    <path d="M 211.69427490 263.83843994 C 211.12738037 265.19515991 210.34632874 266.55270386 209.64601135 267.93765259 C 209.33699036 269.50857544 208.88665771 270.98812866 208.03291321 272.07000732 C 206.86402893 272.94027710 205.96467590 273.91845703 205.44697571 275.26745605 C 204.88311768 276.35787964 204.10752869 276.99301147 203.32810974 277.10025024 C 202.68865967 276.56072998 202.34436035 275.76354980 201.99787903 275.06509399 C 201.28457642 275.13638306 200.62832642 275.53195190 200.00415039 275.79574585 C 199.34712219 275.46951294 198.92170715 274.65161133 198.67201233 273.53707886 C 198.46746826 272.33212280 198.50015259 271.16812134 198.84169006 270.28149414 C 199.36431885 269.86618042 199.97543335 269.86996460 200.59172058 270.37408447 C 201.13206482 271.23721313 201.65014648 272.18518066 211.69427490 263.83843994" stroke-width="0.79014540" fill="rgb(27, 27, 21)" opacity="1.0" stroke="rgb(0, 0, 0)" stroke-opacity="0.43978286" stroke-linecap="round" stroke-linejoin="round"/>
    <path d="M 309.00659180 273.30831909 C 307.98614502 274.32278442 307.50787354 275.26669312 307.40570068 276.24847412 C 307.28817749 276.90557861 306.98895264 277.00872803 306.54196167 276.47650146 C 306.09423828 275.50399780 305.57531738 274.37774658 304.75527954 273.35867310 C 304.15924072 272.18569946 303.83654785 270.97140503 303.93383789 269.87463379 C 304.15802002 268.91989136 304.48922729 268.14682007 304.96438599 267.69638062 C 305.49325562 267.83401489 306.18261719 268.39440918 307.11791992 269.16751099 C 308.17022705 269.95767212 309.29598999 270.58331299 310.44482422 270.77722168 C 311.48852539 270.73718262 312.42437744 270.97360229 313.14749146 271.64486694 C 313.40911865 272.69189453 313.21633911 274.03811646 312.48977661 275.45336914 C 311.21640015 276.88510132 309.80374146 278.53326416 309.00659180 273.30831909" stroke-width="0.59584343" fill="rgb(17, 19, 19)" opacity="1.0" stroke="rgb(7, 0, 0)" stroke-opacity="0.57248026" stroke-linecap="round" stroke-linejoin="round"/>
    <path d="M 272.04028320 205.69987488 C 271.11145020 205.46371460 270.19244385 205.29302979 269.44271851 205.08955383 C 268.79913330 204.78686523 268.31835938 204.32131958 268.04205322 203.73143005 C 267.71496582 203.05479431 267.44424438 202.32325745 267.33822632 201.53053284 C 267.37689209 200.73240662 267.60369873 200.02996826 267.99102783 199.34333801 C 268.49072266 198.67259216 269.07940674 198.04785156 269.78625488 197.58708191 C 270.62945557 197.35330200 271.55725098 197.23931885 272.46688843 197.21372986 C 273.32888794 197.35070801 274.16790771 197.65098572 274.94976807 198.04914856 C 275.53280640 198.63111877 275.92620850 199.45976257 276.18472290 200.29948425 C 276.19418335 201.02131653 275.91516113 201.70220947 275.65444946 202.46646118 C 275.45773315 203.33384705 275.16494751 204.18318176 272.04028320 205.69987488" stroke-width="0.38031545" fill="rgb(16, 15, 18)" opacity="1.0" stroke="rgb(49, 45, 43)" stroke-opacity="0.66186595" stroke-linecap="round" stroke-linejoin="round"/>
    <path d="M 238.63035583 196.83879089 C 239.56996155 197.00125122 240.52726746 197.20050049 241.42732239 197.55116272 C 242.20443726 198.00822449 242.87832642 198.54939270 243.46978760 199.12852478 C 243.86227417 199.86476135 244.14442444 200.66348267 244.21914673 201.44206238 C 244.13533020 202.21385193 243.92164612 202.95408630 243.55178833 203.67956543 C 243.11093140 204.26290894 242.57699585 204.77870178 241.96342468 205.14511108 C 241.35317993 205.47248840 240.60513306 205.62382507 239.85363770 205.63436890 C 239.18643188 205.55158997 238.60583496 205.23875427 238.01020813 204.88844299 C 237.37313843 204.58769226 236.75680542 204.35671997 236.22904968 203.91152954 C 235.76596069 203.31336975 235.47392273 202.51856995 235.27297974 201.52684021 C 235.16108704 200.38819885 234.98654175 199.17420959 238.63035583 196.83879089" stroke-width="0.22262827" fill="rgb(25, 19, 22)" opacity="1.0" stroke="rgb(18, 33, 24)" stroke-opacity="0.35471413" stroke-linecap="round" stroke-linejoin="round"/>
    <path d="M 257.21997070 412.91909790 C 257.25262451 411.91235352 257.22595215 410.84783936 257.19415283 409.75405884 C 257.12240601 408.66070557 257.07412720 407.63854980 257.12194824 406.67367554 C 257.22558594 405.80957031 257.35980225 405.11874390 257.54937744 404.58551025 C 257.86267090 404.23803711 258.18133545 404.11676025 258.54495239 404.17611694 C 258.89349365 404.46072388 259.20846558 404.93087769 259.37527466 405.59664917 C 259.36169434 406.48294067 259.25650024 407.54495239 259.17965698 408.79806519 C 259.11386108 410.17648315 259.06665039 411.70858765 259.08316040 413.26000977 C 259.21514893 414.73330688 259.36920166 416.09808350 259.54083252 417.29147339 C 259.36846924 418.25604248 258.92858887 419.05908203 258.41799927 419.81372070 C 257.95727539 420.61523438 257.58624268 421.42770386 257.21997070 412.91909790" stroke-width="2.00000000" fill="rgb(91, 48, 18)" opacity="1.0" stroke="rgb(166, 117, 79)" stroke-opacity="1.0" stroke-linecap="round" stroke-linejoin="round"/>
  </g>
</svg>
