<?xml version="1.0" ?>
<svg xmlns="http://www.w3.org/2000/svg" version="1.1" width="512" height="512" viewBox="0 0 512 512">
  <defs/>
  <g>
    <path d="M 621.20318604 439.10223389 C 609.38122559 447.86578369 597.60083008 456.66766357 585.78210449 465.39593506 C 573.83941650 473.99737549 561.80474854 482.45919800 549.47198486 490.61761475 C 536.90985107 498.44580078 523.94708252 505.78781128 510.49261475 512.46252441 C 496.44555664 518.44018555 481.88858032 523.77844238 466.70300293 528.50567627 C 450.98431396 532.64770508 434.68664551 536.34338379 417.86145020 539.57769775 C 400.46313477 542.47064209 382.57977295 545.00512695 364.16717529 547.31280518 C 345.28677368 549.28973389 325.98825073 551.12579346 306.25521851 552.72332764 C 286.12530518 554.11065674 265.68997192 555.35430908 244.97265625 556.37438965 C 224.03431702 557.10241699 202.99308777 557.49578857 181.88371277 557.51354980 C 160.75257874 557.02941895 139.81843567 555.89373779 119.19779205 554.07623291 C 98.94024658 551.36663818 79.23880005 547.59887695 60.29464722 542.66625977 C 42.25494766 536.49060059 25.35637665 528.81939697 9.77163792 519.55609131 C -4.09546423 508.55084229 -16.16308975 495.82424927 -26.46433258 481.50866699 C -34.93077087 466.00845337 -41.44628143 449.47726440 -46.11868668 432.14010620 C -48.91367340 414.32232666 -49.71044540 396.48187256 -48.51649475 378.86999512 C -45.35504532 361.84927368 -40.16855240 345.89096069 -32.86566544 331.34817505 C -23.49620056 318.69143677 -12.09666634 308.33123779 1.28937304 300.72726440 C 16.84967995 296.41458130 33.43433762 292.88479614 50.33961105 289.55038452 C 67.12428284 286.20202637 83.10867310 282.47702026 98.05099487 279.73812866 C 112.06398010 281.58068848 125.83411407 285.21990967 139.99176025 287.70706177 C 154.46957397 289.36065674 168.88356018 293.30047607 184.07495117 297.34143066 C 200.98196411 298.15124512 218.86044312 296.94610596 237.21121216 294.97390747 C 255.47682190 294.86306763 273.25030518 294.77731323 290.27697754 293.34399414 C 306.51947021 291.96777344 321.77352905 292.99172974 336.26553345 296.96481323 C 350.69610596 300.52523804 364.70040894 303.33782959 377.70886230 306.17651367 C 389.18634033 309.97854614 399.82055664 311.61325073 410.95343018 309.45266724 C 423.68203735 307.53955078 437.80764771 306.41027832 452.88421631 305.19207764 C 468.78036499 303.86987305 485.39431763 302.63659668 502.43063354 301.48181152 C 519.64544678 300.59237671 537.04791260 299.65432739 554.61260986 298.83374023 C 572.28265381 298.01422119 589.92779541 297.12872314 621.20318604 439.10223389" stroke-width="1.72272944" fill="rgb(150, 132, 111)" opacity="1.0" stroke="rgb(25, 20, 11)" stroke-opacity="0.8366891" stroke-linecap="round" stroke-linejoin="round"/>
    <path d="M 464.35388184 367.52328491 C 463.26797485 366.96548462 462.21383667 366.36907959 461.22232056 365.75759888 C 460.22952271 365.15625000 459.23788452 364.60354614 458.35321045 364.14804077 C 457.52719116 363.64587402 456.79135132 363.21493530 456.13977051 362.87438965 C 455.58624268 362.66424561 455.17227173 362.49005127 454.91217041 362.45123291 C 454.79776001 362.52224731 454.90322876 362.65036011 455.16122437 362.84857178 C 455.65631104 363.12969971 456.30557251 363.40045166 457.07559204 363.77172852 C 457.98330688 364.20809937 459.01443481 364.64544678 460.17227173 365.11242676 C 461.35705566 365.70639038 462.66156006 366.29931641 464.03991699 366.95477295 C 465.47457886 367.65097046 466.84616089 368.45117188 468.26965332 369.30181885 C 469.74670410 370.12408447 471.24536133 371.00125122 464.35388184 367.52328491" stroke-width="0.68470049" fill="rgb(46, 31, 21)" opacity="1.0" stroke="rgb(27, 12, 6)" stroke-opacity="0.8313548" stroke-linecap="round" stroke-linejoin="round"/>
    <path d="M 338.42587280 271.40280151 C 333.42184448 272.68066406 328.45776367 273.48703003 323.48593140 273.45724487 C 318.56939697 273.43154907 313.78192139 274.12020874 308.98696899 275.32711792 C 304.35400391 276.10916138 300.02224731 276.78356934 296.08001709 277.66165161 C 292.83126831 279.54553223 289.88549805 281.37112427 286.56149292 282.51983643 C 282.70083618 282.79302979 278.44250488 282.51986694 273.88809204 282.17984009 C 269.00619507 282.04843140 263.79876709 282.14935303 258.40112305 282.01742554 C 253.00581360 281.59619141 247.40460205 280.87805176 241.58813477 280.12457275 C 235.72109985 279.42599487 229.89152527 278.81472778 223.95793152 278.26171875 C 218.08262634 277.30853271 212.32803345 276.14904785 206.69047546 274.90890503 C 201.16271973 273.85574341 195.90585327 272.88931274 190.94938660 271.93695068 C 186.32618713 271.09857178 182.01150513 270.38134766 178.20640564 269.70294189 C 175.07608032 268.52066040 172.46522522 267.03292847 170.49291992 265.21847534 C 169.16616821 263.20135498 168.35017395 260.90661621 167.98471069 258.44223022 C 168.20686340 255.86813354 169.03773499 253.31742859 170.36126709 250.75260925 C 172.11770630 248.25001526 174.32983398 245.87057495 176.99118042 243.69453430 C 180.21240234 241.86418152 183.91049194 240.28536987 187.85166931 238.65419006 C 191.93211365 236.92858887 196.30044556 235.15904236 200.82295227 233.57115173 C 205.40104675 232.13203430 210.14308167 230.92350769 214.94117737 229.77453613 C 219.74838257 228.73908997 224.56022644 227.84794617 229.41876221 227.26054382 C 234.18548584 226.69953918 239.10707092 226.57231140 244.10165405 226.38613892 C 249.05023193 226.23616028 253.99951172 226.44241333 258.95907593 226.62698364 C 263.93246460 227.23608398 268.79672241 227.94818115 273.62405396 228.65502930 C 278.32937622 229.61227417 282.84051514 230.91578674 287.37188721 232.15789795 C 291.85552979 233.20611572 296.32449341 234.56347656 300.64794922 235.83389282 C 305.06008911 236.90084839 309.18566895 237.99029541 313.42211914 238.86962891 C 317.55541992 239.48406982 321.54129028 239.99649048 325.49609375 240.38395691 C 329.32214355 240.61859131 333.20532227 240.83480835 337.04632568 241.15734863 C 340.83416748 241.91891479 344.57073975 243.05718994 348.24331665 244.60881042 C 351.93338013 246.45048523 355.66650391 248.48222351 359.43872070 250.65634155 C 363.15670776 252.85206604 366.81536865 255.15092468 338.42587280 271.40280151" stroke-width="1.74201572" fill="rgb(155, 231, 118)" opacity="1.0" stroke="rgb(17, 29, 8)" stroke-opacity="0.9004382" stroke-linecap="round" stroke-linejoin="round"/>
    <path d="M 172.29914856 462.51815796 C 167.65093994 466.85217285 162.27114868 470.12979126 155.88418579 472.12564087 C 148.75373840 473.70391846 140.97897339 474.15597534 132.68710327 473.50247192 C 123.86476135 472.43176270 114.89434814 470.22702026 105.69227600 467.34625244 C 96.59774017 464.23327637 87.72558594 460.96603394 79.47170258 457.83596802 C 72.04443359 454.93789673 65.36637115 453.68286133 59.32437515 454.21029663 C 54.22373581 455.32223511 50.42179108 455.21231079 48.50119400 453.74624634 C 49.08929825 451.25796509 51.70035172 448.44827271 56.08552551 445.93380737 C 61.60354614 443.91567993 68.09097290 443.73791504 75.61405182 445.33941650 C 84.11607361 447.34664917 93.10360718 449.81582642 102.27470398 452.59515381 C 111.34759521 455.20843506 120.14932251 457.07733154 128.55093384 457.92666626 C 136.30989075 458.09960938 143.17279053 457.17346191 148.94847107 454.52935791 C 153.92590332 450.96994019 157.23745728 446.18313599 158.53709412 439.95904541 C 158.63671875 432.47329712 156.70147705 424.21533203 153.08821106 415.32672119 C 148.59777832 405.92453003 143.58557129 396.10995483 138.49288940 386.08563232 C 133.68365479 375.93872070 129.84254456 365.58996582 127.22483063 355.02697754 C 125.22393036 344.61120605 124.73007965 334.29745483 125.40653229 324.10372925 C 126.28676605 314.07250977 128.17510986 304.46563721 131.06155396 295.31039429 C 134.26896667 286.61050415 138.86439514 278.84381104 144.44836426 271.63577271 C 149.87472534 264.50274658 156.01045227 258.39495850 162.48878479 253.31062317 C 168.52371216 248.75004578 173.84001160 245.21490479 178.49702454 243.13281250 C 182.14331055 243.27992249 185.00637817 245.17105103 187.00292969 248.30032349 C 188.13148499 252.37458801 188.02311707 256.98068237 186.36392212 261.60174561 C 182.39802551 265.65786743 177.24952698 269.87890625 171.31750488 274.09085083 C 165.50103760 278.95812988 160.43576050 284.79367065 156.30061340 291.66275024 C 152.11215210 298.69732666 149.05537415 306.36990356 147.28921509 314.71527100 C 145.96772766 323.30761719 146.02258301 332.12472534 147.05534363 341.20715332 C 148.55395508 350.51266479 151.01480103 359.78186035 154.47145081 369.07879639 C 158.55857849 378.24905396 163.17993164 387.47344971 167.77693176 396.78909302 C 172.32218933 406.21862793 175.85040283 416.15206909 178.17239380 426.67724609 C 179.70690918 437.62933350 181.09922791 448.87710571 172.29914856 462.51815796" stroke-width="1.61449945" fill="rgb(162, 232, 126)" opacity="1.0" stroke="rgb(20, 32, 8)" stroke-opacity="0.87026155" stroke-linecap="round" stroke-linejoin="round"/>
    <path d="M 197.37451172 299.45034790 C 198.11178589 299.32189941 198.90190125 299.19503784 199.66235352 299.04940796 C 200.43655396 298.83840942 201.21185303 298.61990356 202.02400208 298.33657837 C 202.81163025 298.11181641 203.64297485 297.86669922 204.38969421 297.60360718 C 205.24787903 297.42391968 206.06761169 297.23190308 206.89172363 297.03646851 C 207.68522644 296.99688721 208.48507690 297.04104614 209.24208069 297.06884766 C 209.98663330 297.25122070 210.63264465 297.52899170 211.23344421 297.87554932 C 211.69239807 298.35974121 212.16372681 298.95379639 212.52883911 299.63693237 C 212.82756042 300.45562744 213.03245544 301.36184692 213.23616028 302.40365601 C 213.32760620 303.50769043 213.47384644 304.72457886 213.59364319 305.97906494 C 213.68156433 307.29232788 213.82978821 308.63162231 214.04216003 309.91967773 C 214.41915894 311.20666504 214.91255188 312.43200684 215.44749451 313.54083252 C 215.82226562 314.70025635 216.02478027 315.80923462 215.99325562 316.86599731 C 215.96894836 317.83004761 215.98155212 318.65231323 215.97073364 319.26943970 C 215.88813782 319.65356445 215.69094849 319.71072388 215.51461792 319.49484253 C 215.33345032 318.94470215 215.16841125 318.18011475 214.99526978 317.28369141 C 214.75433350 316.24832153 214.58766174 315.09161377 214.34194946 313.94195557 C 213.76705933 312.86557007 212.95521545 311.86206055 211.93879700 310.89099121 C 210.78997803 309.89874268 209.62030029 308.87402344 208.38365173 307.82687378 C 207.07821655 306.79986572 205.72438049 305.76760864 204.42329407 304.67767334 C 203.13005066 303.56948853 201.79910278 302.42614746 197.37451172 299.45034790" stroke-width="0.19724518" fill="rgb(13, 3, 0)" opacity="1.0" stroke="rgb(26, 35, 47)" stroke-opacity="0.8507545" stroke-linecap="round" stroke-linejoin="round"/>
    <path d="M 235.97831726 308.77590942 C 235.02973938 306.76046753 233.98126221 304.88442993 232.63328552 303.34823608 C 230.82269287 302.36889648 228.79264832 301.58810425 226.81993103 300.89242554 C 225.11994934 300.57199097 223.60125732 300.72085571 222.36183167 301.11096191 C 221.40670776 301.09948730 220.83483887 300.84524536 220.73190308 300.21411133 C 221.03205872 299.12396240 221.54415894 297.85403442 222.39067078 296.60974121 C 223.59140015 295.56793213 224.96218872 294.88134766 226.37258911 294.71682739 C 227.78988647 295.22952271 229.35322571 296.16744995 230.88534546 297.16915894 C 232.23941040 298.40435791 233.65373230 299.46527100 235.10081482 300.28112793 C 236.52752686 301.14212036 237.73672485 302.15582275 238.38594055 303.70193481 C 238.82824707 305.55795288 239.25608826 307.81106567 235.97831726 308.77590942" stroke-width="2.00000000" fill="rgb(234, 252, 209)" opacity="1.0" stroke="rgb(0, 1, 4)" stroke-opacity="0.86624193" stroke-linecap="round" stroke-linejoin="round"/>
    <path d="M 286.80337524 304.53808594 C 286.82821655 304.55899048 286.78314209 304.56048584 286.80508423 304.54922485 C 286.77197266 304.58731079 286.77716064 304.53686523 286.77532959 304.59011841 C 286.74569702 304.56292725 286.76345825 304.57553101 286.73107910 304.55999756 C 286.75598145 304.59686279 286.73443604 304.56356812 286.71725464 304.57092285 C 286.73083496 304.58123779 286.71975708 304.57485962 286.73327637 304.58203125 C 286.70217896 304.57904053 286.73391724 304.57666016 286.72290039 304.57373047 C 286.70199585 304.59112549 286.73654175 304.57150269 286.72363281 304.56765747 C 286.71459961 304.58697510 286.73379517 304.55886841 286.73052979 304.58734131 C 286.71435547 304.56546021 286.74169922 304.57461548 286.73672485 304.56774902 C 286.70828247 304.56616211 286.76724243 304.56750488 286.80337524 304.53808594" stroke-width="0.00000000" fill="rgb(0, 0, 0)" opacity="1.0" stroke="rgb(255, 255, 255)" stroke-opacity="1.0" stroke-linecap="round" stroke-linejoin="round"/>
    <path d="M 365.74877930 250.05526733 C 366.54028320 251.03715515 367.36825562 251.87736511 367.91525269 252.78309631 C 367.89547729 253.91087341 367.60067749 255.12669373 367.10119629 256.31234741 C 366.38095093 257.50280762 365.43133545 258.71621704 364.21374512 259.89978027 C 362.67388916 260.83255005 360.82681274 261.48944092 358.79299927 262.22833252 C 356.72012329 263.03948975 354.47769165 263.73953247 352.28210449 264.16073608 C 350.07214355 264.57351685 347.97470093 265.24694824 346.20437622 266.20733643 C 344.68139648 267.28350830 343.41091919 268.23449707 342.46209717 268.93930054 C 341.89108276 269.12063599 341.49978638 268.76336670 341.32113647 267.82876587 C 341.33956909 266.48779297 341.31036377 264.84899902 341.47146606 263.15274048 C 341.64709473 261.50930786 341.81350708 260.06582642 341.68713379 258.95666504 C 340.87963867 258.31835938 339.91540527 257.70632935 339.31219482 256.90423584 C 339.37002563 255.73834229 339.80160522 254.22123718 340.28192139 252.40368652 C 340.45578003 250.23840332 340.46075439 247.99618530 340.48074341 245.78709412 C 340.57192993 243.75354004 340.57525635 242.10189819 340.16940308 240.93774414 C 339.28274536 240.26707458 338.32244873 239.86177063 337.84323120 239.43986511 C 338.21234131 239.07107544 339.25891113 238.76579285 340.46066284 238.31259155 C 341.91091919 237.56866455 343.55987549 237.15055847 345.42922974 237.18186951 C 347.43450928 237.47955322 349.48059082 238.17520142 351.40466309 239.21897888 C 353.19146729 240.70927429 354.94631958 242.39019775 356.68582153 244.07383728 C 358.32061768 245.81597900 359.84490967 247.69091797 365.74877930 250.05526733" stroke-width="1.82755721" fill="rgb(146, 205, 113)" opacity="1.0" stroke="rgb(65, 92, 51)" stroke-opacity="1.0" stroke-linecap="round" stroke-linejoin="round"/>
    <path d="M 354.06552124 252.98176575 C 353.06613159 253.02827454 352.04403687 253.04267883 351.03414917 252.94902039 C 350.17324829 252.63243103 349.35760498 252.31204224 348.53915405 251.88812256 C 347.97277832 251.19755554 347.47134399 250.43463135 347.03329468 249.80845642 C 346.84680176 249.05313110 346.77014160 248.30422974 346.81137085 247.49070740 C 346.84719849 246.69198608 346.97662354 245.98324585 347.30926514 245.43438721 C 347.86816406 244.99598694 348.58074951 244.50959778 349.31259155 244.09484863 C 350.12841797 243.93342590 350.98742676 243.98974609 351.93197632 244.13208008 C 352.87234497 244.41188049 353.78076172 244.82070923 354.68826294 245.37110901 C 355.41326904 246.21107483 356.03427124 247.29954529 356.68508911 248.41053772 C 357.32214355 249.57727051 357.87710571 250.82609558 354.06552124 252.98176575" stroke-width="0.00000000" fill="rgb(71, 78, 59)" opacity="1.0" stroke="rgb(138, 19, 123)" stroke-opacity="0.031798936" stroke-linecap="round" stroke-linejoin="round"/>
    <path d="M 367.56994629 258.69284058 C 366.66998291 259.32153320 365.78475952 259.96121216 364.92874146 260.63183594 C 364.07110596 261.27606201 363.22915649 261.83218384 362.39871216 262.19003296 C 361.63619995 262.50549316 361.04937744 262.77066040 360.53494263 262.93380737 C 360.19375610 263.06039429 360.03454590 263.04135132 360.02401733 262.94451904 C 360.13473511 262.77020264 360.42068481 262.54318237 360.83679199 262.28411865 C 361.38000488 262.00408936 362.04077148 261.77301025 362.71347046 261.44515991 C 363.30892944 260.99636841 363.89352417 260.43173218 364.37142944 259.72412109 C 364.69284058 258.88580322 365.06564331 258.06869507 365.73596191 257.28430176 C 366.61581421 256.51583862 367.44299316 255.47691345 368.22006226 254.24011230 C 369.16564941 253.06581116 370.20407104 251.91459656 367.56994629 258.69284058" stroke-width="0.88168871" fill="rgb(34, 36, 22)" opacity="1.0" stroke="rgb(39, 0, 27)" stroke-opacity="0.28407514" stroke-linecap="round" stroke-linejoin="round"/>
    <path d="M 231.06138611 288.22363281 C 234.01284790 289.38711548 235.53540039 291.07156372 235.09172058 292.83508301 C 233.05038452 293.57754517 230.12219238 293.27444458 226.86955261 293.78256226 C 223.99681091 296.66909790 221.03321838 300.05413818 218.32904053 303.20214844 C 217.06173706 305.84576416 217.55174255 308.30590820 218.40695190 310.46105957 C 217.92160034 311.86761475 216.37886047 312.21777344 214.14738464 311.11688232 C 211.72581482 308.58758545 208.76383972 305.69161987 205.06877136 303.09579468 C 201.16093445 300.96981812 198.19065857 298.74111938 196.92086792 295.63525391 C 197.52818298 291.47741699 199.60261536 287.16012573 202.30386353 282.95242310 C 205.18913269 279.66632080 207.54187012 277.43789673 208.24462891 275.70288086 C 206.76266479 274.67364502 203.45907593 274.24594116 199.15235901 273.87496948 C 194.54748535 272.99908447 190.14021301 271.94174194 186.39505005 271.08941650 C 184.15859985 269.99221802 183.58909607 268.14505005 184.65284729 265.92230225 C 187.22930908 263.35040283 190.50489807 260.68240356 194.35221863 258.43753052 C 198.68318176 257.53878784 203.34127808 257.82382202 208.22666931 258.46807861 C 212.91149902 258.96081543 217.01739502 259.95007324 220.16856384 261.75784302 C 222.50494385 264.00930786 224.69274902 264.81118774 226.75202942 264.46917725 C 227.92431641 265.00613403 228.25569153 266.54617310 227.95251465 269.11590576 C 227.10168457 272.33343506 225.48857117 275.75122070 222.97218323 279.42648315 C 219.70068359 283.25970459 216.29391479 287.48065186 212.55314636 291.93371582 C 207.38121033 295.61907959 202.35470581 299.61572266 231.06138611 288.22363281" stroke-width="1.77168703" fill="rgb(163, 235, 130)" opacity="1.0" stroke="rgb(29, 42, 19)" stroke-opacity="0.88082904" stroke-linecap="round" stroke-linejoin="round"/>
    <path d="M 302.31542969 303.39205933 C 302.56524658 305.13000488 302.45486450 306.70291138 301.86001587 307.92904663 C 300.85406494 308.64590454 299.64620972 308.65850830 298.47048950 307.70693970 C 297.23959351 306.02606201 295.94992065 303.95745850 294.17736816 302.10848999 C 292.18838501 300.62857056 289.87600708 299.87655640 287.16949463 300.00836182 C 284.16534424 300.29339600 281.12619019 300.05834961 278.33944702 299.37652588 C 276.00277710 298.10034180 274.16458130 296.15643311 273.08465576 293.39407349 C 272.68710327 289.81430054 272.72656250 285.76599121 273.38909912 281.54498291 C 274.57504272 277.45431519 276.53543091 273.87332153 279.41174316 271.21475220 C 282.62042236 269.56182861 285.98007202 269.06655884 289.00479126 269.40567017 C 291.31893921 270.09268188 292.32391357 271.49703979 291.80538940 273.84051514 C 290.84033203 276.97174072 289.37603760 280.44888306 287.50234985 283.42868042 C 285.25408936 285.59112549 284.02737427 287.15979004 284.47811890 287.85086060 C 286.68850708 287.25326538 289.75363159 286.71545410 292.69891357 286.62316895 C 294.62371826 287.32742310 295.62338257 289.01678467 296.79544067 290.61215210 C 299.46276855 290.47161865 302.91119385 289.62252808 306.39157104 288.42291260 C 308.67211914 286.13751221 310.35809326 283.90664673 312.44818115 282.82489014 C 314.51599121 283.10943604 315.93368530 284.58526611 316.44796753 287.09808350 C 316.22299194 289.71237183 314.83346558 291.73773193 312.14779663 292.91830444 C 308.43283081 292.92385864 304.25677490 293.16275024 299.93670654 294.26583862 C 295.33892822 295.13311768 290.78421021 295.63650513 302.31542969 303.39205933" stroke-width="1.79029131" fill="rgb(169, 221, 132)" opacity="1.0" stroke="rgb(4, 9, 6)" stroke-opacity="0.8910655" stroke-linecap="round" stroke-linejoin="round"/>
    <path d="M 42.04417801 349.97592163 C 43.44744492 350.13375854 44.84763718 350.40051270 46.23345947 350.73486328 C 47.57424164 351.21813965 48.93234634 351.74932861 50.30204391 352.24838257 C 51.69130707 352.64175415 53.11851883 353.03607178 54.57492447 353.55804443 C 56.01777649 354.08471680 57.45405960 354.65856934 58.84769440 355.35549927 C 60.20489502 356.23648071 61.60956573 357.03317261 62.95064163 357.87567139 C 64.34204865 358.59463501 65.67386627 359.24978638 66.84905243 359.86279297 C 67.88024902 360.42980957 68.65636444 360.83206177 69.16947937 361.01708984 C 69.37427521 360.91815186 69.24689484 360.66381836 68.86209869 360.29217529 C 68.14308167 359.92807007 67.27017212 359.55624390 66.30693817 359.02825928 C 65.38759613 358.22399902 64.50031281 357.35308838 42.04417801 349.97592163" stroke-width="0.60758233" fill="rgb(23, 0, 0)" opacity="1.0" stroke="rgb(31, 14, 3)" stroke-opacity="0.73787415" stroke-linecap="round" stroke-linejoin="round"/>
    <path d="M 263.08734131 346.31750488 C 262.04989624 345.33291626 260.91207886 344.49121094 259.72427368 343.70678711 C 258.60751343 342.95388794 257.48934937 342.20101929 256.47543335 341.43093872 C 255.55314636 340.69650269 254.75015259 340.03890991 254.03231812 339.50933838 C 253.45304871 339.10479736 253.09478760 338.71429443 253.00453186 338.44949341 C 253.17968750 338.45730591 253.58934021 338.63885498 254.19714355 339.00183105 C 254.92951965 339.54220581 255.82699585 340.22210693 256.87442017 340.98913574 C 258.06259155 341.83959961 259.29125977 342.82397461 260.70617676 343.94091797 C 262.18453979 345.06985474 263.74478149 346.15914917 265.42687988 347.32501221 C 267.09552002 348.55065918 268.73831177 349.88284302 270.32275391 351.23806763 C 271.81289673 352.77050781 273.22100830 354.45971680 263.08734131 346.31750488" stroke-width="0.60870141" fill="rgb(8, 0, 0)" opacity="1.0" stroke="rgb(28, 13, 5)" stroke-opacity="0.75835013" stroke-linecap="round" stroke-linejoin="round"/>
    <path d="M 154.35008240 317.48468018 C 156.00204468 318.33261108 157.52464294 319.36212158 158.93153381 320.49414062 C 160.26942444 321.63388062 161.56146240 322.70443726 162.88650513 323.65521240 C 164.10980225 324.54058838 165.19026184 325.40383911 166.15567017 326.15808105 C 166.99360657 326.81533813 167.61376953 327.37280273 167.96852112 327.80139160 C 168.09303284 328.00448608 167.99679565 327.94674683 167.58979797 327.72164917 C 166.99432373 327.30804443 166.29898071 326.66238403 165.44261169 325.99438477 C 164.40809631 325.27142334 163.32472229 324.43759155 162.17945862 323.52539062 C 160.95916748 322.50256348 159.59934998 321.57583618 158.19929504 320.65817261 C 156.77458191 319.74777222 155.43005371 318.72836304 154.12783813 317.57937622 C 152.81402588 316.40319824 151.40521240 315.38879395 154.35008240 317.48468018" stroke-width="0.61630791" fill="rgb(13, 0, 0)" opacity="1.0" stroke="rgb(22, 11, 0)" stroke-opacity="0.8803636" stroke-linecap="round" stroke-linejoin="round"/>
    <path d="M 359.31033325 338.79559326 C 357.83740234 338.03860474 356.39364624 337.31161499 354.98428345 336.62258911 C 353.66979980 335.92700195 352.45126343 335.24523926 351.25546265 334.70034790 C 350.16424561 334.35083008 349.15951538 334.05191040 348.39306641 333.77539062 C 347.76342773 333.52172852 347.48669434 333.21865845 347.43676758 332.89511108 C 347.66824341 332.59323120 348.08740234 332.33630371 348.66439819 332.30160522 C 349.40414429 332.51339722 350.29782104 332.87020874 351.33511353 333.41052246 C 352.49652100 334.03625488 353.81958008 334.65417480 355.25009155 335.32788086 C 356.79116821 335.95550537 358.28759766 336.65310669 359.76385498 337.46737671 C 361.21829224 338.23397827 362.49600220 339.23284912 363.55984497 340.52905273 C 364.51318359 341.93762207 365.43640137 343.36212158 359.31033325 338.79559326" stroke-width="0.11629384" fill="rgb(27, 13, 9)" opacity="1.0" stroke="rgb(29, 19, 29)" stroke-opacity="0.59121764" stroke-linecap="round" stroke-linejoin="round"/>
  </g>
</svg>
