<?xml version="1.0" ?>
<svg xmlns="http://www.w3.org/2000/svg" version="1.1" width="512" height="512" viewBox="0 0 512 512">
  <defs/>
  <g>
    <path d="M 331.74371338 380.06845093 C 329.80484009 384.35076904 326.96743774 388.09585571 323.34616089 391.31948853 C 319.47039795 394.45507812 314.90582275 396.68780518 309.29513550 397.43161011 C 302.55386353 398.03466797 294.92028809 397.94662476 286.56579590 397.66314697 C 277.64041138 397.64163208 268.18911743 397.43966675 258.40612793 397.48516846 C 248.62055969 397.39773560 238.98168945 397.41479492 229.61570740 397.56878662 C 220.62757874 397.34017944 212.31877136 397.39373779 204.96997070 397.64993286 C 198.58227539 397.55639648 193.35136414 395.79647827 188.99951172 392.85870361 C 185.18786621 389.80612183 182.43945312 385.99804688 180.70877075 381.49993896 C 180.24391174 376.26901245 180.37353516 370.32754517 180.43946838 363.78802490 C 180.40147400 356.71215820 180.43807983 349.12139893 180.51641846 341.10324097 C 180.50505066 332.81759644 180.32391357 324.29598999 180.06671143 315.55081177 C 180.01174927 306.61968994 180.09696960 297.70227051 180.08744812 288.80288696 C 180.00961304 279.98501587 179.96128845 271.32296753 179.96139526 262.95010376 C 180.14404297 254.86700439 180.35226440 247.20587158 180.26124573 240.02082825 C 180.11961365 233.36703491 180.12669373 227.36122131 180.48484802 221.98100281 C 181.69189453 217.46217346 184.14852905 213.82743835 187.78295898 210.83479309 C 192.16198730 207.99516296 197.39663696 205.51791382 203.37077332 203.40534973 C 209.99147034 201.58477783 217.19686890 200.05130005 224.87066650 198.82835388 C 232.89967346 197.94256592 241.12971497 197.34927368 249.61624146 197.07310486 C 258.18621826 197.12348938 266.83642578 197.42166138 275.35144043 198.11569214 C 283.59542847 199.07003784 291.57040405 200.24569702 299.05117798 201.75088501 C 306.03198242 203.57083130 312.43627930 205.69766235 318.08645630 208.15733337 C 322.91015625 210.93116760 326.69903564 214.10342407 329.40908813 217.75427246 C 331.08480835 221.69482422 331.56524658 226.06976318 331.25134277 231.13568115 C 331.21667480 236.87898254 331.17163086 243.27357483 331.35418701 250.06713867 C 331.28619385 257.21755981 331.15335083 264.68789673 331.35214233 272.37322998 C 331.38244629 280.36376953 331.32965088 288.54217529 331.66928101 296.83612061 C 331.55239868 305.20974731 331.51171875 313.66433716 331.62371826 322.21759033 C 331.55221558 330.75811768 331.78100586 339.25958252 331.64947510 347.71276855 C 331.73358154 356.24417114 331.73004150 364.79928589 331.74371338 380.06845093" stroke-width="1.97388875" fill="rgb(212, 204, 214)" opacity="1.0" stroke="rgb(44, 49, 63)" stroke-opacity="0.99590236" stroke-linecap="round" stroke-linejoin="round"/>
    <path d="M 210.86607361 226.93840027 C 207.26869202 224.53100586 203.82986450 221.82546997 200.59806824 218.69995117 C 197.42118835 215.38168335 194.32415771 211.78028870 191.61866760 207.66867065 C 188.91822815 203.31799316 186.27252197 198.81866455 184.09437561 193.89373779 C 182.27838135 188.75048828 180.87944031 183.30519104 179.60337830 177.83709717 C 178.76539612 172.32966614 178.50210571 166.57183838 178.58485413 160.94046021 C 178.93171692 155.39280701 179.59576416 149.85794067 180.79751587 144.46412659 C 182.26123047 139.17111206 184.18086243 134.01901245 186.54483032 129.02485657 C 189.01103210 124.03627014 191.84649658 119.22218323 195.12356567 114.60869598 C 198.73812866 110.17250824 202.70761108 105.96274567 206.97720337 102.03057861 C 211.43817139 98.32673645 216.29388428 95.14505005 221.34793091 92.36641693 C 226.39500427 89.69617462 231.62240601 87.73075867 237.11051941 86.38267517 C 242.61624146 85.12360382 248.01892090 84.43984985 253.35920715 84.11814880 C 258.83657837 84.23078156 264.24673462 84.62387085 269.45904541 85.39431763 C 274.57186890 86.61597443 279.56991577 88.06284332 284.39202881 89.80383301 C 289.09313965 91.84687805 293.56982422 93.97425079 297.76638794 96.63252258 C 301.80108643 99.45359039 305.65765381 102.46034241 309.33407593 105.73411560 C 312.82775879 109.18414307 315.98056030 112.86576080 318.83465576 116.86831665 C 321.71441650 120.74684906 324.10955811 125.10081482 326.33386230 129.56045532 C 328.48117065 134.12849426 330.37567139 138.94366455 331.59573364 143.92338562 C 332.74563599 149.25633240 333.59829712 154.52143860 333.76995850 159.94529724 C 333.82467651 165.54724121 333.73129272 171.23692322 333.14752197 176.91047668 C 332.16851807 182.55900574 330.42395020 188.10963440 328.62817383 193.73027039 C 326.37625122 198.93739319 323.64175415 203.94099426 320.73712158 208.83062744 C 317.27560425 213.31459045 313.60235596 217.53620911 309.52658081 221.36756897 C 305.29910278 225.02587891 300.75189209 228.30955505 295.77139282 230.95335388 C 290.81967163 233.55615234 285.56155396 235.71957397 280.11987305 237.45993042 C 274.68676758 239.08064270 269.15670776 240.17449951 263.60086060 240.73831177 C 258.08297729 241.13429260 252.60675049 241.00488281 247.21504211 240.43226624 C 241.81338501 239.73213196 236.51690674 238.50721741 231.26202393 236.86341858 C 226.01028442 235.06533813 220.74688721 233.19369507 210.86607361 226.93840027" stroke-width="1.90375578" fill="rgb(230, 223, 235)" opacity="1.0" stroke="rgb(24, 27, 40)" stroke-opacity="0.8975102" stroke-linecap="round" stroke-linejoin="round"/>
    <path d="M 246.61968994 147.19267273 C 246.82060242 149.66510010 246.86753845 152.03863525 246.89392090 154.38510132 C 246.89273071 156.73081970 246.50045776 158.95841980 245.79417419 161.03309631 C 244.86636353 163.18977356 243.81007385 165.35565186 242.47624207 167.45922852 C 240.85589600 169.32859802 238.99966431 171.13734436 237.07870483 172.69271851 C 234.79660034 173.92951965 232.52742004 174.93884277 230.16119385 175.88195801 C 227.59948730 176.56814575 225.02770996 177.10983276 222.42593384 177.09599304 C 219.74165344 176.95852661 217.03150940 176.62614441 214.41802979 175.82385254 C 212.00411987 174.71978760 209.77265930 173.26057434 207.70965576 171.43923950 C 205.79655457 169.53414917 204.29704285 167.33001709 203.06001282 164.85086060 C 201.95730591 162.33352661 201.27655029 159.72236633 200.84854126 157.14952087 C 200.75881958 154.49769592 200.86970520 151.91282654 201.22972107 149.36859131 C 201.75241089 146.95678711 202.46411133 144.60963440 203.48851013 142.48197937 C 204.83889771 140.47221375 206.30470276 138.58891296 207.90402222 136.85310364 C 209.78155518 135.40263367 211.55041504 133.83607483 213.57608032 132.57115173 C 215.80509949 131.71679688 218.02600098 130.95587158 220.25027466 130.26217651 C 222.46667480 129.87902832 224.52091980 129.82707214 226.53877258 129.74610901 C 228.52729797 129.95484924 230.44316101 130.15567017 232.23199463 130.77593994 C 233.97885132 131.36093140 235.60003662 132.12684631 237.24592590 132.94990540 C 238.69943237 134.09606934 240.00111389 135.51104736 241.35411072 137.04936218 C 242.81411743 138.58642578 244.32073975 140.01594543 246.61968994 147.19267273" stroke-width="1.68825543" fill="rgb(80, 217, 224)" opacity="1.0" stroke="rgb(4, 58, 80)" stroke-opacity="0.89375854" stroke-linecap="round" stroke-linejoin="round"/>
    <path d="M 274.70349121 173.88774109 C 273.08825684 172.61283875 271.44854736 171.30247498 270.04443359 169.74693298 C 268.70074463 167.89387512 267.47396851 165.92095947 266.44686890 163.70481873 C 265.56536865 161.44236755 265.02438354 159.17308044 264.79754639 156.71286011 C 264.52288818 154.17678833 264.37466431 151.76461792 264.55493164 149.46411133 C 265.06576538 147.17393494 265.75137329 144.91574097 266.54620361 142.78715515 C 267.48519897 140.90049744 268.73403931 139.17594910 270.06317139 137.58346558 C 271.48538208 136.07478333 273.19003296 134.79209900 274.91824341 133.62698364 C 276.80187988 132.51612854 278.65600586 131.58428955 280.81015015 130.81022644 C 283.15759277 130.26387024 285.49148560 129.95007324 287.89367676 129.78132629 C 290.37786865 129.80099487 292.84463501 130.04898071 295.24285889 130.61955261 C 297.50082397 131.54727173 299.79794312 132.59529114 301.87316895 133.97846985 C 303.55657959 135.70472717 305.18658447 137.56016541 306.57327271 139.78884888 C 307.85415649 142.14833069 308.88314819 144.61820984 309.68225098 147.16043091 C 310.19961548 149.70906067 310.47402954 152.14321899 310.44854736 154.54942322 C 310.25680542 156.96783447 309.67788696 159.25714111 308.92605591 161.49400330 C 307.97296143 163.65692139 306.87710571 165.64811707 305.61117554 167.63084412 C 304.24420166 169.50054932 302.66204834 171.10159302 300.93011475 172.55448914 C 298.95800781 173.79005432 296.88305664 174.82131958 294.65179443 175.79127502 C 292.09790039 176.49079895 289.38360596 176.94424438 286.50857544 176.90776062 C 283.50625610 176.98495483 280.49771118 177.11851501 274.70349121 173.88774109" stroke-width="1.67255461" fill="rgb(80, 217, 226)" opacity="1.0" stroke="rgb(7, 62, 84)" stroke-opacity="0.9063656" stroke-linecap="round" stroke-linejoin="round"/>
    <path d="M 241.36904907 147.03636169 C 240.65789795 147.53688049 239.97029114 148.04818726 239.35583496 148.59907532 C 238.73408508 149.14482117 238.06788635 149.47537231 237.39135742 149.71847534 C 236.77465820 149.96997070 236.15527344 150.29640198 235.56643677 150.64810181 C 234.96972656 150.72251892 234.29096985 150.68269348 233.53192139 150.70651245 C 232.77024841 150.80519104 232.07785034 150.68788147 231.40771484 150.26499939 C 230.63600159 149.78976440 229.74957275 149.30284119 228.92486572 148.79861450 C 228.24575806 148.27967834 227.73405457 147.56066895 227.30587769 146.77542114 C 226.85424805 145.93872070 226.48873901 144.99867249 226.23692322 143.97129822 C 226.09843445 142.97518921 225.99342346 141.95198059 225.91163635 140.92134094 C 226.13850403 139.93617249 226.40837097 138.99078369 226.64927673 137.98304749 C 227.24029541 137.19351196 227.82633972 136.25964355 228.51054382 135.38179016 C 229.39244080 134.74140930 230.25218201 134.11856079 230.93765259 133.60984802 C 231.76466370 133.24438477 232.51495361 132.99778748 233.17311096 132.83459473 C 233.80363464 132.55143738 234.56803894 132.37542725 235.23092651 132.46246338 C 235.75630188 132.77525330 236.39408875 133.11622620 237.21786499 133.52508545 C 238.06652832 133.75648499 238.85896301 134.15165710 239.61300659 134.63696289 C 240.27160645 135.15153503 240.92352295 135.79484558 241.57426453 136.47926331 C 242.07099915 137.17202759 242.61674500 137.87335205 243.05859375 138.58099365 C 243.51858521 139.26640320 243.87155151 140.02755737 244.14987183 140.82130432 C 244.42135620 141.53181458 244.65805054 142.33711243 241.36904907 147.03636169" stroke-width="1.59457505" fill="rgb(247, 253, 254)" opacity="1.0" stroke="rgb(26, 66, 93)" stroke-opacity="0.8350946" stroke-linecap="round" stroke-linejoin="round"/>
    <path d="M 304.28063965 147.28912354 C 303.80004883 147.76274109 303.32208252 148.34693909 302.74746704 148.88125610 C 302.03430176 149.25444031 301.37509155 149.65780640 300.76239014 150.13250732 C 300.07009888 150.45899963 299.37194824 150.63368225 298.66677856 150.70658875 C 297.87918091 150.69592285 297.08898926 150.58070374 296.29907227 150.52783203 C 295.48120117 150.30619812 294.71353149 149.95857239 293.90130615 149.57633972 C 293.17364502 149.09904480 292.53918457 148.44798279 291.90493774 147.88154602 C 291.33181763 147.21511841 290.88919067 146.42889404 290.48944092 145.53674316 C 290.21231079 144.59208679 289.87942505 143.65640259 289.65020752 142.65312195 C 289.47573853 141.54197693 289.33056641 140.52542114 289.46542358 139.48641968 C 289.81072998 138.42781067 290.23907471 137.38197327 290.79470825 136.48216248 C 291.59860229 135.75784302 292.40634155 135.01051331 293.20642090 134.36439514 C 294.06439209 133.84020996 294.93853760 133.34951782 295.74331665 133.10565186 C 296.42968750 132.69902039 297.13442993 132.31135559 297.98379517 132.10639954 C 298.76181030 132.13476562 299.42236328 132.45104980 300.02334595 133.05575562 C 300.76077271 133.53132629 301.61856079 134.00540161 302.48297119 134.56213379 C 303.15856934 135.29382324 303.78378296 135.99903870 304.46838379 136.56602478 C 305.08541870 137.10058594 305.60171509 137.74491882 305.96133423 138.40715027 C 306.25866699 139.06779480 306.55010986 139.66242981 306.90692139 140.25767517 C 307.27569580 140.74348450 307.58935547 141.21463013 307.76687622 141.61238098 C 307.85217285 141.94526672 307.99334717 142.11572266 304.28063965 147.28912354" stroke-width="1.64735913" fill="rgb(248, 253, 253)" opacity="1.0" stroke="rgb(25, 52, 81)" stroke-opacity="0.7913098" stroke-linecap="round" stroke-linejoin="round"/>
    <path d="M 273.82498169 193.83081055 C 270.99682617 197.31704712 267.72509766 200.06604004 263.90786743 201.98246765 C 259.95355225 203.34817505 255.90475464 203.70353699 251.80720520 203.44882202 C 247.93595886 202.60369873 244.48272705 201.20220947 241.44979858 199.30607605 C 238.92388916 197.13053894 237.02793884 194.98631287 235.84564209 193.09394836 C 235.83911133 191.70086670 236.54130554 190.94035339 237.54998779 191.04792786 C 238.65353394 192.40234375 240.01066589 194.38864136 241.93545532 196.50588989 C 244.55181885 198.33163452 247.60600281 199.74490356 251.02441406 200.60942078 C 254.66426086 201.05314636 258.26016235 200.91572571 261.64303589 200.16792297 C 264.90600586 199.01795959 267.68423462 197.10058594 269.90951538 194.40335083 C 271.99032593 191.25143433 273.98773193 188.05488586 273.82498169 193.83081055" stroke-width="0.43196228" fill="rgb(14, 10, 61)" opacity="1.0" stroke="rgb(68, 67, 106)" stroke-opacity="0.77072465" stroke-linecap="round" stroke-linejoin="round"/>
    <path d="M 178.54127502 328.60284424 C 175.44877625 328.49313354 172.54702759 328.56518555 169.68275452 328.65167236 C 166.95141602 328.05642700 164.31982422 328.03280640 161.78602600 328.38687134 C 159.37834167 328.56518555 157.11013794 328.18093872 154.92254639 327.63238525 C 152.93820190 327.37619019 151.35336304 326.96582031 150.40853882 325.97372437 C 150.32482910 324.46820068 150.51463318 322.48553467 150.91790771 320.03665161 C 151.16921997 317.05609131 151.45101929 313.69180298 151.96386719 310.00372314 C 152.30482483 306.02719116 152.88864136 301.75604248 153.46980286 297.18707275 C 153.95600891 292.46505737 154.60285950 287.68624878 155.13182068 282.83731079 C 155.63442993 278.03558350 156.36936951 273.41653442 157.04370117 268.83853149 C 157.61912537 264.50180054 158.26130676 260.57617188 158.94166565 257.14315796 C 159.86119080 254.17083740 160.94309998 251.74075317 162.35052490 249.97540283 C 164.55798340 249.14572144 167.20326233 248.81329346 169.83621216 248.45668030 C 172.02139282 248.42053223 173.90058899 248.89968872 175.55096436 249.36410522 C 176.82112122 248.99800110 177.78422546 248.76106262 178.49234009 249.10841370 C 178.97036743 250.13352966 178.94268799 251.55525208 178.44949341 253.30786133 C 178.74293518 255.54226685 178.77148438 258.15222168 178.72386169 261.14416504 C 178.59252930 264.36730957 178.54815674 267.82113647 178.66638184 271.51950073 C 178.66583252 275.40316772 178.57113647 279.40194702 178.63446045 283.51110840 C 178.72068787 287.68255615 178.73341370 291.90695190 178.73176575 296.11428833 C 178.58489990 300.34994507 178.48391724 304.65039062 178.54127502 328.60284424" stroke-width="1.84986389" fill="rgb(219, 220, 227)" opacity="1.0" stroke="rgb(41, 46, 67)" stroke-opacity="0.9151212" stroke-linecap="round" stroke-linejoin="round"/>
    <path d="M 346.89205933 327.71255493 C 346.54525757 326.08126831 345.41131592 325.79830933 343.40612793 326.52792358 C 340.72909546 326.73437500 337.96499634 326.67199707 335.57138062 326.85391235 C 333.94265747 327.08099365 333.29779053 326.55825806 333.40802002 324.86053467 C 333.63867188 322.15768433 333.60012817 318.58242798 333.50701904 314.20043945 C 333.55889893 309.31069946 333.55102539 304.00399780 333.47225952 298.47869873 C 333.31451416 292.80880737 333.28558350 287.13735962 333.25540161 281.55856323 C 333.24951172 276.22018433 333.31930542 271.10134888 333.14859009 266.25027466 C 333.18090820 261.88195801 333.01910400 258.11669922 333.03085327 254.91032410 C 333.25335693 252.28472900 333.50195312 250.36248779 334.25143433 249.44592285 C 336.17669678 249.29776001 338.80749512 249.03466797 341.88772583 248.60569763 C 345.09988403 248.21044922 347.99111938 248.53741455 350.58911133 249.32450867 C 352.52508545 250.44334412 353.73526001 252.17683411 354.65100098 254.37547302 C 355.42825317 256.92779541 355.98654175 259.72915649 356.50094604 262.64230347 C 357.06857300 265.75521851 357.52291870 269.11767578 357.94799805 272.59899902 C 358.26113892 276.07525635 358.77410889 279.67440796 359.05175781 283.35226440 C 359.37512207 286.91827393 359.77590942 290.47518921 359.98278809 294.05856323 C 360.21362305 297.61312866 360.65921021 301.09976196 360.86279297 304.65011597 C 361.03146362 308.05514526 361.23779297 311.35925293 361.65011597 314.59545898 C 361.80688477 317.85339355 362.03067017 320.96978760 361.98657227 323.82943726 C 362.19424438 326.56091309 362.59600830 329.13522339 346.89205933 327.71255493" stroke-width="1.77915680" fill="rgb(219, 218, 226)" opacity="1.0" stroke="rgb(10, 13, 21)" stroke-opacity="0.73470473" stroke-linecap="round" stroke-linejoin="round"/>
    <path d="M 162.42791748 346.56906128 C 161.98962402 347.45413208 161.83357239 348.16983032 161.66082764 348.43698120 C 161.22221375 348.47833252 161.18385315 348.74737549 161.39761353 349.21148682 C 161.08987427 349.56057739 160.34384155 349.78659058 159.82855225 350.42816162 C 159.21357727 351.12628174 158.26762390 351.82125854 157.26612854 352.39501953 C 156.15916443 352.46667480 154.87844849 352.73892212 153.68531799 352.82672119 C 152.66833496 352.31335449 151.67715454 351.67709351 150.78578186 351.12658691 C 150.09779358 350.45443726 149.58416748 349.74099731 149.19883728 348.98251343 C 148.91456604 348.16918945 148.67871094 347.25311279 148.38563538 346.39404297 C 148.26852417 345.62408447 148.27497864 344.90570068 148.49224854 344.12951660 C 148.81417847 343.30163574 148.95042419 342.42483521 149.18415833 341.57937622 C 149.77192688 340.70190430 150.46717834 339.83331299 151.19909668 339.04598999 C 152.12797546 338.26736450 153.12660217 337.62637329 154.03474426 337.06497192 C 154.84382629 336.51965332 155.61546326 335.98468018 156.25387573 335.57260132 C 156.82484436 335.40118408 157.52183533 335.37918091 158.19546509 335.30538940 C 158.60275269 335.17370605 158.64698792 334.97406006 158.48757935 334.96231079 C 158.50904846 335.11776733 158.72947693 335.44662476 158.97195435 335.84259033 C 159.10104370 336.17053223 159.37316895 336.40853882 159.67451477 336.89578247 C 159.98847961 337.47070312 160.38583374 337.94393921 160.94615173 338.32482910 C 161.47377014 338.85232544 161.70153809 339.62606812 161.97143555 340.51516724 C 162.40718079 341.32131958 162.86936951 342.20541382 162.42791748 346.56906128" stroke-width="1.79375386" fill="rgb(209, 207, 220)" opacity="1.0" stroke="rgb(24, 24, 40)" stroke-opacity="0.9469888" stroke-linecap="round" stroke-linejoin="round"/>
    <path d="M 357.30450439 351.67044067 C 356.29660034 352.13159180 355.32363892 352.62158203 354.47064209 352.81085205 C 353.70129395 352.79348755 353.00524902 352.88394165 352.45217896 352.77603149 C 351.90780640 352.25079346 351.28356934 351.90274048 350.57403564 351.73803711 C 349.94543457 351.29528809 349.35598755 350.71069336 348.84402466 350.10931396 C 348.29238892 349.45306396 348.05230713 348.84585571 348.21115112 348.17620850 C 348.03137207 347.44009399 347.72686768 346.70660400 347.38925171 346.06060791 C 347.35934448 345.19174194 347.47454834 344.18020630 347.49011230 343.18637085 C 347.41018677 342.33242798 347.67605591 341.61694336 348.27923584 340.89669800 C 349.01950073 340.11367798 349.69863892 339.23171997 350.38970947 338.34048462 C 350.99621582 337.52621460 351.69314575 336.87277222 352.40765381 336.22372437 C 353.07580566 335.83078003 353.52972412 335.48971558 353.95108032 335.22521973 C 354.38320923 335.05877686 354.78631592 334.94540405 354.96804810 334.88708496 C 355.12048340 334.99822998 355.43423462 335.28890991 355.88568115 335.62872314 C 356.25338745 335.89907837 356.70034790 336.18936157 357.54598999 336.47851562 C 358.32397461 336.87011719 358.99267578 337.48477173 359.53067017 338.33792114 C 359.89739990 339.22183228 360.42611694 339.92147827 361.02017212 340.46020508 C 361.37298584 341.28945923 361.69891357 342.16629028 361.87948608 343.00451660 C 361.98779297 343.81793213 361.81808472 344.61694336 361.59338379 345.51022339 C 361.58456421 346.47763062 361.46347046 347.27572632 361.07385254 347.96945190 C 360.72277832 348.87457275 360.47814941 349.79147339 357.30450439 351.67044067" stroke-width="1.73545623" fill="rgb(213, 208, 222)" opacity="1.0" stroke="rgb(21, 20, 29)" stroke-opacity="0.8505192" stroke-linecap="round" stroke-linejoin="round"/>
    <path d="M 238.01776123 479.26986694 C 235.73674011 479.74276733 233.47508240 480.25253296 231.18392944 480.74819946 C 228.83709717 481.17526245 226.60375977 481.52850342 224.41140747 481.78146362 C 222.24546814 481.93972778 220.11965942 481.93469238 218.08303833 481.66085815 C 216.24047852 481.12713623 214.69123840 480.31665039 213.42109680 479.19085693 C 212.39906311 477.64373779 211.76571655 475.69332886 211.62922668 473.26522827 C 211.83395386 470.33517456 211.91624451 467.01312256 211.64857483 463.34246826 C 211.83361816 459.29129028 211.79811096 454.99349976 211.71292114 450.40844727 C 211.84603882 445.50830078 211.81913757 440.39404297 211.76412964 435.22073364 C 211.72952271 430.10116577 211.76780701 425.03042603 211.78929138 420.13211060 C 211.86206055 415.58468628 211.96041870 411.36846924 211.92460632 407.65869141 C 211.89782715 404.61535645 211.84196472 402.24041748 212.01300049 400.69512939 C 212.62904358 400.02938843 213.89526367 400.08004761 215.79667664 400.35714722 C 218.13960266 400.40814209 220.83226013 400.29962158 223.81677246 400.15072632 C 226.85052490 400.28311157 229.72384644 400.21633911 232.42561340 399.87814331 C 234.90524292 399.66406250 236.77296448 399.49908447 237.86392212 399.75866699 C 238.21199036 400.70544434 238.11837769 402.38168335 238.10899353 404.62713623 C 238.13363647 407.41680908 238.13652039 410.62484741 238.10542297 414.14614868 C 238.06112671 417.81375122 238.01364136 421.74163818 238.15672302 425.86279297 C 238.06843567 430.11071777 238.06593323 434.49020386 238.09645081 438.86138916 C 238.16941833 443.30911255 238.20526123 447.78335571 238.01776123 479.26986694" stroke-width="2.00000000" fill="rgb(228, 221, 235)" opacity="1.0" stroke="rgb(0, 4, 32)" stroke-opacity="0.75278324" stroke-linecap="round" stroke-linejoin="round"/>
    <path d="M 300.14117432 405.31762695 C 300.19406128 409.36837769 300.25146484 413.36816406 300.12191772 417.32781982 C 300.11849976 421.38433838 300.13031006 425.43008423 300.15869141 429.54412842 C 300.17352295 433.61685181 300.17547607 437.73840332 300.20230103 441.74084473 C 300.08386230 445.73785400 300.09036255 449.68295288 300.08126831 453.54052734 C 300.10803223 457.28170776 300.09320068 460.88610840 300.18099976 464.39801025 C 300.22430420 467.78811646 300.23577881 470.87481689 299.92764282 473.68130493 C 298.96640015 476.10620117 297.59985352 478.26712036 295.83898926 480.14068604 C 293.74240112 481.73010254 291.40588379 483.00427246 288.97677612 483.97863770 C 286.51501465 484.58746338 284.07229614 484.84927368 281.67355347 484.66967773 C 279.40667725 484.04885864 277.41482544 482.94589233 275.73321533 481.32369995 C 274.42114258 479.09042358 273.57168579 476.37905884 273.28518677 472.99157715 C 273.46960449 468.87915039 273.55566406 464.24407959 273.41574097 459.18322754 C 273.29113770 453.81674194 273.46472168 448.12899780 273.33880615 442.24514771 C 273.40960693 436.22351074 273.33901978 430.28143311 273.49252319 424.61434937 C 273.50524902 419.22039795 273.36697388 414.15539551 273.40698242 409.58325195 C 273.49072266 405.74969482 273.31088257 402.78295898 273.49243164 400.89605713 C 274.85876465 400.03732300 277.17767334 399.94982910 280.23980713 400.31365967 C 283.77630615 400.48608398 287.36135864 400.44812012 290.47573853 400.35073853 C 292.71426392 400.18832397 293.75936890 400.11572266 293.71707153 400.96932983 C 293.40606689 403.00195312 292.41613770 405.77038574 300.14117432 405.31762695" stroke-width="1.70967090" fill="rgb(231, 221, 235)" opacity="1.0" stroke="rgb(27, 32, 45)" stroke-opacity="0.8403341" stroke-linecap="round" stroke-linejoin="round"/>
    <path d="M 250.42662048 494.47473145 C 248.07054138 494.66479492 245.78469849 495.10070801 243.59049988 495.30123901 C 241.29217529 495.20947266 238.78662109 495.09957886 236.08459473 495.23901367 C 233.26464844 495.19818115 230.43479919 495.15170288 227.57267761 495.23007202 C 224.61848450 495.19747925 221.60131836 495.23953247 218.59527588 495.15148926 C 215.66590881 495.14093018 212.87121582 495.15789795 210.28289795 495.33856201 C 207.72299194 495.17794800 205.33737183 494.90103149 203.24969482 494.70590210 C 201.58343506 494.74298096 200.42529297 494.82949829 199.61862183 494.79156494 C 199.23564148 494.40908813 199.17851257 493.72064209 199.57426453 492.75317383 C 200.01158142 491.50714111 200.84985352 489.99572754 201.83863831 488.53753662 C 202.96838379 487.00024414 203.96954346 485.25881958 204.90489197 483.44540405 C 205.92004395 481.74731445 207.04866028 480.17056274 207.94181824 478.73883057 C 208.61210632 477.42700195 209.35073853 476.44216919 210.22972107 476.03659058 C 211.50987244 476.38873291 213.28669739 476.70315552 215.53826904 476.56124878 C 218.13859558 476.40014648 220.96630859 476.36386108 223.92683411 476.45498657 C 226.80961609 476.36126709 229.60562134 476.38781738 232.27310181 476.39572144 C 234.59478760 476.46313477 236.41307068 476.26257324 237.78292847 476.13259888 C 238.65396118 476.77114868 239.55261230 477.90054321 240.62817383 479.07073975 C 241.51515198 480.63815308 242.54643250 482.29290771 243.79803467 484.07708740 C 245.02700806 486.12866211 246.42619324 488.24911499 247.72856140 490.54986572 C 249.17706299 492.79556274 250.57490540 495.08651733 250.42662048 494.47473145" stroke-width="2.00000000" fill="rgb(227, 190, 225)" opacity="1.0" stroke="rgb(56, 44, 80)" stroke-opacity="1.0" stroke-linecap="round" stroke-linejoin="round"/>
    <path d="M 312.12356567 494.45172119 C 309.38717651 495.04702759 306.57070923 495.33746338 303.68341064 495.26245117 C 300.85845947 495.13873291 297.99243164 495.12039185 295.19195557 495.21102905 C 292.42941284 495.31671143 289.65289307 495.30838013 286.88290405 495.19335938 C 284.06262207 495.13830566 281.38555908 495.21771240 278.74328613 495.22885132 C 276.11331177 495.15377808 273.61703491 495.25195312 271.25622559 495.34353638 C 268.96423340 495.17990112 266.89321899 495.01174927 265.10562134 495.07122803 C 263.50411987 495.12265015 262.23712158 494.95510864 261.35769653 494.65606689 C 260.94583130 494.03155518 261.16854858 493.15597534 261.90692139 492.01821899 C 262.72015381 490.43234253 263.58956909 488.58795166 264.74987793 486.66970825 C 266.07794189 484.65161133 267.47421265 482.54479980 268.59530640 480.44836426 C 269.89590454 478.68768311 271.12612915 477.15270996 272.30957031 476.22943115 C 273.71304321 476.09442139 275.27334595 476.35311890 276.99920654 476.30609131 C 278.97180176 476.17028809 281.19796753 476.26547241 283.57507324 476.34777832 C 285.95538330 476.33380127 288.34143066 476.31311035 290.74435425 476.26840210 C 293.09408569 476.33929443 295.23480225 476.35681152 297.26208496 476.41247559 C 299.06130981 476.34051514 300.50256348 476.53347778 301.54605103 477.44088745 C 302.64950562 478.83709717 303.91336060 480.69271851 305.23797607 482.55505371 C 306.49560547 484.67202759 307.92016602 486.99383545 309.30929565 489.37402344 C 310.52087402 491.64944458 311.70849609 493.62744141 312.38040161 495.92541504 C 312.54464722 498.50003052 312.20840454 501.20861816 312.12356567 494.45172119" stroke-width="2.00000000" fill="rgb(227, 190, 226)" opacity="1.0" stroke="rgb(39, 26, 61)" stroke-opacity="0.8570375" stroke-linecap="round" stroke-linejoin="round"/>
    <path d="M 256.00167847 84.31628418 C 255.50303650 83.29162598 255.04478455 82.27766418 254.71087646 81.23162079 C 254.59043884 80.01325989 254.70770264 78.72884369 254.87179565 77.33803558 C 254.74035645 75.80757904 254.71176147 74.10062408 254.80937195 72.33507538 C 254.83358765 70.49428558 254.70791626 68.54342651 254.67001343 66.56600952 C 254.61994934 64.57331085 254.71672058 62.58003616 254.82341003 60.58487320 C 254.81959534 58.61545563 254.77644348 56.64766312 254.70123291 54.72332382 C 254.66442871 52.84395218 254.82499695 50.94651413 254.95799255 49.14331055 C 254.99574280 47.29698563 254.87452698 45.49130249 254.82960510 43.70413208 C 254.98094177 41.88886642 255.42529297 40.11717224 255.84230042 38.33582306 C 256.11907959 36.48214340 256.16238403 34.65110397 256.00167847 84.31628418" stroke-width="0.71051449" fill="rgb(30, 19, 29)" opacity="1.0" stroke="rgb(122, 112, 124)" stroke-opacity="0.7214827" stroke-linecap="round" stroke-linejoin="round"/>
    <path d="M 265.14965820 32.66024780 C 265.00964355 33.74363708 264.86782837 34.70815277 264.61621094 35.64875793 C 264.21459961 36.55067062 263.88919067 37.47992706 263.53240967 38.34300995 C 263.02017212 38.98927689 262.47772217 39.48374939 261.82934570 40.06401062 C 261.18118286 40.63650894 260.57022095 41.07867432 259.78689575 41.38243866 C 258.97579956 41.60442352 258.22378540 42.02165222 257.52893066 42.19214249 C 256.77056885 41.95237732 256.00640869 41.74141312 255.28189087 41.62456131 C 254.60993958 41.58693695 253.88671875 41.57218170 253.13551331 41.61093140 C 252.47410583 41.29638672 251.84475708 40.95301819 251.25886536 40.44305420 C 250.57043457 39.75782013 250.02134705 39.08559418 249.42124939 38.35418320 C 248.91763306 37.59975815 248.61778259 36.67458344 248.39558411 35.74253845 C 248.23785400 34.93092346 247.88542175 34.24008942 247.63110352 33.57325363 C 247.70870972 32.73089600 247.79525757 31.94655228 248.01637268 31.17465401 C 248.40982056 30.30084229 248.95979309 29.37165260 249.54150391 28.59826088 C 250.28355408 27.92330170 250.98020935 27.15405083 251.80781555 26.42676163 C 252.79927063 25.84752464 253.88450623 25.26489067 254.84678650 24.77339172 C 255.83442688 24.61526871 256.94192505 24.59690666 257.93203735 24.77385139 C 258.75643921 25.10490608 259.66824341 25.47305489 260.50216675 25.88109207 C 261.34130859 26.30929756 261.99438477 26.69385719 262.61038208 27.25738335 C 263.07867432 27.97054863 263.50271606 28.83073425 263.98089600 29.74760246 C 264.55728149 30.46571159 265.12734985 31.12989235 265.14965820 32.66024780" stroke-width="2.00000000" fill="rgb(245, 183, 140)" opacity="1.0" stroke="rgb(100, 27, 23)" stroke-opacity="0.97068787" stroke-linecap="round" stroke-linejoin="round"/>
    <path d="M 196.15362549 370.54953003 C 196.10810852 370.51742554 196.12222290 370.52621460 196.11288452 370.51751709 C 196.09999084 370.49346924 196.08529663 370.50198364 196.09980774 370.48883057 C 196.07313538 370.47457886 196.06707764 370.48550415 196.08540344 370.46844482 C 196.06735229 370.46572876 196.05760193 370.45867920 196.07156372 370.46237183 C 196.06715393 370.47732544 196.05885315 370.43856812 196.06665039 370.47036743 C 196.09164429 370.45892334 196.07418823 370.48397827 196.07241821 370.45611572 C 196.13893127 370.47668457 196.09062195 370.48895264 196.12327576 370.48046875 C 196.14453125 370.50506592 196.15480042 370.50442505 196.15013123 370.50860596 C 196.17222595 370.53518677 196.20315552 370.52865601 196.19796753 370.55319214 C 196.22396851 370.54873657 196.23362732 370.57128906 196.15362549 370.54953003" stroke-width="2.00000000" fill="rgb(172, 171, 172)" opacity="1.0" stroke="rgb(210, 202, 211)" stroke-opacity="0.98958445" stroke-linecap="round" stroke-linejoin="round"/>
    <path d="M 315.52880859 372.82800293 C 315.54287720 372.84750366 315.53637695 372.83761597 315.53561401 372.83428955 C 315.54614258 372.84155273 315.54632568 372.84094238 315.51638794 372.83151245 C 315.55679321 372.83969116 315.55032349 372.83532715 315.52416992 372.83114624 C 315.55737305 372.85131836 315.53097534 372.82843018 315.55450439 372.84246826 C 315.53982544 372.83541870 315.53753662 372.84103394 315.55398560 372.83499146 C 315.53903198 372.84591675 315.55352783 372.82873535 315.53829956 372.85983276 C 315.55807495 372.82690430 315.53594971 372.83486938 315.55697632 372.85198975 C 315.54821777 372.82977295 315.54669189 372.84347534 315.54693604 372.84661865 C 315.56442261 372.83938599 315.53149414 372.82833862 315.54357910 372.85946655 C 315.57205200 372.81771851 315.53057861 372.85894775 315.52880859 372.82800293" stroke-width="0.00000000" fill="rgb(65, 65, 65)" opacity="1.0" stroke="rgb(135, 134, 136)" stroke-opacity="0.5784374" stroke-linecap="round" stroke-linejoin="round"/>
  </g>
</svg>
