<?xml version="1.0" ?>
<svg xmlns="http://www.w3.org/2000/svg" version="1.1" width="512" height="512" viewBox="0 0 512 512">
  <defs/>
  <g>
    <path d="M 360.32971191 302.69659424 C 355.94338989 306.45248413 351.03973389 309.50799561 345.62176514 311.96765137 C 339.97836304 314.27157593 334.12194824 316.43588257 328.08203125 318.19625854 C 321.71359253 319.81292725 315.30697632 321.04345703 308.82302856 322.63323975 C 302.22796631 324.03204346 295.48260498 325.22528076 288.77459717 326.26785278 C 282.14358521 327.31433105 275.42507935 327.62765503 268.68344116 328.37701416 C 262.02697754 328.79760742 255.64021301 328.46096802 249.35369873 328.49230957 C 243.10005188 328.41696167 237.01486206 327.48605347 230.95870972 326.89215088 C 224.83686829 326.35107422 218.45684814 325.22586060 212.01101685 324.42080688 C 205.70663452 322.97607422 199.06101990 321.25930786 192.55566406 319.74114990 C 186.22305298 317.71963501 179.82554626 315.77679443 173.67831421 313.83840942 C 167.86973572 311.87884521 162.28843689 309.59603882 157.27700806 307.20809937 C 152.61422729 304.75079346 148.84118652 301.81777954 145.98918152 298.17095947 C 143.67622375 294.29898071 142.31675720 290.09243774 141.54829407 285.46322632 C 141.51811218 280.45141602 142.04441833 275.34472656 142.87695312 270.26824951 C 143.89482117 265.38040161 145.68321228 260.69287109 147.81164551 256.24588013 C 150.11769104 251.92744446 152.72746277 248.00045776 156.08294678 244.85046387 C 159.61138916 241.92987061 163.84701538 240.10087585 168.87185669 238.85720825 C 174.22280884 237.84519958 179.97322083 236.79724121 185.99201965 236.07881165 C 192.16087341 235.10394287 198.49499512 234.34913635 204.93011475 234.29614258 C 211.51919556 234.25614929 218.27096558 234.32025146 225.06271362 234.46234131 C 231.88250732 234.84468079 238.60365295 235.50480652 245.34988403 236.33053589 C 252.00387573 237.12222290 258.50180054 238.21038818 265.10015869 239.43458557 C 271.60235596 240.40644836 278.05023193 241.73796082 284.40588379 243.15788269 C 290.83813477 244.68034363 296.99423218 246.27601624 303.06799316 248.15133667 C 309.19418335 249.84185791 315.33279419 251.28425598 321.14520264 253.06483459 C 327.08758545 254.50964355 332.66613770 256.23089600 338.17669678 257.68548584 C 343.45095825 259.26181030 348.31298828 260.99096680 352.60275269 263.20797729 C 356.75540161 265.14663696 359.94619751 268.00088501 362.64413452 271.30212402 C 365.23785400 274.84432983 366.95928955 278.92843628 367.60778809 283.53091431 C 367.62658691 288.69952393 367.73345947 293.92367554 360.32971191 302.69659424" stroke-width="1.85939324" fill="rgb(251, 209, 114)" opacity="1.0" stroke="rgb(122, 69, 0)" stroke-opacity="0.75321615" stroke-linecap="round" stroke-linejoin="round"/>
    <path d="M 343.65750122 295.60171509 C 336.42428589 300.97152710 330.29089355 305.52587891 325.87136841 308.93524170 C 321.69369507 308.41778564 318.21911621 307.64096069 315.60040283 309.13482666 C 313.53152466 312.38046265 310.86480713 314.02560425 307.30700684 312.70397949 C 302.98788452 310.51086426 297.96984863 311.16314697 292.79315186 314.31350708 C 288.20736694 317.53536987 283.55438232 317.01977539 278.70764160 314.69995117 C 274.47442627 316.37716675 270.54440308 320.14916992 265.86968994 322.63787842 C 260.48873901 322.04711914 254.67582703 322.01651001 248.49453735 323.19955444 C 241.97760010 321.20294189 235.71232605 318.97064209 230.61445618 315.71606445 C 226.86672974 313.10409546 223.03590393 314.28353882 218.97015381 316.58798218 C 214.26231384 316.22119141 209.23289490 313.98590088 204.08164978 311.48480225 C 198.66815186 311.44366455 194.00285339 309.61782837 189.59387207 306.54501343 C 183.81535339 306.32882690 178.09140015 305.88565063 173.47729492 303.79208374 C 170.70971680 299.48052979 167.71542358 295.08666992 164.20491028 291.38644409 C 163.66690063 286.20007324 163.58929443 280.50723267 163.55116272 275.02474976 C 165.93438721 270.65274048 169.44479370 266.67071533 172.93606567 262.45742798 C 176.28192139 258.04025269 179.45741272 253.81546021 182.55964661 250.18579102 C 185.16398621 247.34098816 187.56680298 246.48956299 189.85299683 248.50685120 C 192.42337036 251.04347229 196.33596802 251.04365540 201.44863892 250.55021667 C 206.71748352 251.35202026 210.88223267 249.77165222 214.28927612 247.07962036 C 217.72683716 247.90556335 220.93093872 250.36767578 224.27574158 251.01271057 C 227.57832336 248.20497131 231.59623718 245.28648376 235.86083984 244.62806702 C 238.54161072 246.75050354 240.25083923 249.97685242 242.78181458 251.74859619 C 247.12925720 251.26048279 252.83708191 250.87985229 259.75732422 251.66886902 C 267.62359619 250.53846741 276.12597656 251.33992004 284.93682861 254.02632141 C 293.93392944 256.77041626 302.29089355 259.28518677 309.17285156 262.77978516 C 315.81774902 263.76235962 321.41137695 265.46182251 326.12869263 267.86914062 C 330.80187988 267.72183228 334.88558960 266.82983398 337.77447510 267.74011230 C 339.13107300 271.17703247 340.04730225 275.08831787 342.13806152 277.43194580 C 346.13375854 277.46536255 350.81604004 277.73745728 355.10220337 280.53634644 C 358.82388306 286.53573608 362.18627930 294.70135498 343.65750122 295.60171509" stroke-width="2.00000000" fill="rgb(202, 124, 3)" opacity="1.0" stroke="rgb(182, 119, 27)" stroke-opacity="0.9268355" stroke-linecap="round" stroke-linejoin="round"/>
    <path d="M 166.29960632 257.94750977 C 167.03651428 256.46969604 167.85044861 255.09509277 168.71206665 253.90356445 C 169.71286011 252.89231873 170.69706726 251.94766235 171.57334900 251.24148560 C 172.60319519 250.96897888 173.66471863 250.86373901 174.71836853 251.03765869 C 175.64962769 251.42704773 176.47520447 251.93301392 177.19813538 252.50314331 C 177.64999390 253.21076965 177.84667969 254.00482178 177.84211731 254.89521790 C 177.64916992 255.81185913 177.26730347 256.77401733 176.76977539 257.78399658 C 176.19160461 258.85531616 175.56536865 259.94161987 174.84414673 260.96307373 C 174.00929260 261.97485352 173.01370239 262.95852661 171.95536804 263.87524414 C 170.88804626 264.77694702 169.70889282 265.65789795 168.42098999 266.44754028 C 167.04830933 267.13943481 165.57800293 267.82885742 166.29960632 257.94750977" stroke-width="0.31895131" fill="rgb(196, 119, 8)" opacity="1.0" stroke="rgb(171, 106, 22)" stroke-opacity="0.56722414" stroke-linecap="round" stroke-linejoin="round"/>
    <path d="M 224.52272034 255.12229919 C 224.47338867 255.13275146 224.49472046 255.11883545 224.49830627 255.12625122 C 224.49433899 255.13299561 224.48257446 255.12438965 224.49610901 255.12123108 C 224.49263000 255.13429260 224.48541260 255.12248230 224.49127197 255.13032532 C 224.49237061 255.12507629 224.48121643 255.13349915 224.48953247 255.11990356 C 224.49737549 255.13502502 224.47822571 255.12985229 224.48428345 255.12054443 C 224.49494934 255.13401794 224.48275757 255.12059021 224.48284912 255.13012695 C 224.49176025 255.12460327 224.48107910 255.12966919 224.48585510 255.11871338 C 224.49052429 255.13034058 224.48036194 255.12071228 224.49125671 255.12251282 C 224.48710632 255.12416077 224.48428345 255.12524414 224.48776245 255.11128235 C 224.48591614 255.13084412 224.48899841 255.10844421 224.52272034 255.12229919" stroke-width="0.29770830" fill="rgb(55, 72, 0)" opacity="1.0" stroke="rgb(255, 217, 0)" stroke-opacity="1.0" stroke-linecap="round" stroke-linejoin="round"/>
    <path d="M 263.58157349 258.46609497 C 263.57958984 258.47610474 263.57803345 258.46765137 263.57824707 258.48492432 C 263.57992554 258.47488403 263.56896973 258.48526001 263.58312988 258.48855591 C 263.56948853 258.48715210 263.56689453 258.49035645 263.57464600 258.49508667 C 263.56875610 258.49255371 263.57217407 258.49652100 263.55383301 258.50317383 C 263.57009888 258.50708008 263.55993652 258.49063110 263.55767822 258.50524902 C 263.55792236 258.50769043 263.54650879 258.50378418 263.55664062 258.49679565 C 263.55145264 258.50936890 263.52993774 258.49713135 263.55587769 258.50637817 C 263.53015137 258.49938965 263.53460693 258.49435425 263.53283691 258.50585938 C 263.52844238 258.49847412 263.52423096 258.49255371 263.52081299 258.48950195 C 263.51611328 258.50036621 263.51663208 258.48229980 263.58157349 258.46609497" stroke-width="2.00000000" fill="rgb(193, 151, 0)" opacity="1.0" stroke="rgb(204, 126, 0)" stroke-opacity="1.0" stroke-linecap="round" stroke-linejoin="round"/>
    <path d="M 299.05480957 266.64627075 C 299.04455566 266.64633179 299.04949951 266.63854980 299.05541992 266.65420532 C 299.04489136 266.63540649 299.04101562 266.64968872 299.06362915 266.64605713 C 299.04296875 266.63690186 299.04220581 266.65057373 299.05438232 266.64617920 C 299.04586792 266.63174438 299.05148315 266.64880371 299.03952026 266.65176392 C 299.05905151 266.63525391 299.03576660 266.64315796 299.04684448 266.65261841 C 299.05624390 266.63598633 299.03942871 266.63812256 299.04980469 266.65240479 C 299.05429077 266.64099121 299.04159546 266.63757324 299.05276489 266.64782715 C 299.04495239 266.64553833 299.04910278 266.64147949 299.04705811 266.64178467 C 299.05551147 266.64035034 299.04354858 266.65979004 299.04806519 266.63449097 C 299.06076050 266.64263916 299.03768921 266.65631104 299.05480957 266.64627075" stroke-width="0.00000000" fill="rgb(201, 127, 0)" opacity="1.0" stroke="rgb(255, 55, 65)" stroke-opacity="0.6573671" stroke-linecap="round" stroke-linejoin="round"/>
    <path d="M 346.24929810 294.36029053 C 345.48983765 294.10195923 344.78338623 293.79879761 344.08911133 293.43426514 C 343.46151733 293.02423096 342.89447021 292.56015015 342.37554932 292.03231812 C 341.91281128 291.51535034 341.52120972 290.98345947 341.15701294 290.46179199 C 340.89538574 289.94665527 340.66732788 289.46542358 340.51773071 289.02023315 C 340.45050049 288.58654785 340.44992065 288.21203613 340.51287842 287.85488892 C 340.69732666 287.54190063 340.92596436 287.26483154 341.23660278 287.01470947 C 341.63415527 286.82397461 342.09289551 286.64190674 342.60946655 286.51434326 C 343.19052124 286.41864014 343.81170654 286.31750488 344.50375366 286.26788330 C 345.19702148 286.21243286 345.93606567 286.15325928 346.71612549 286.10583496 C 347.48431396 286.09072876 348.27548218 285.99658203 346.24929810 294.36029053" stroke-width="2.00000000" fill="rgb(199, 123, 2)" opacity="1.0" stroke="rgb(177, 103, 0)" stroke-opacity="0.16695273" stroke-linecap="round" stroke-linejoin="round"/>
    <path d="M 239.87133789 274.76409912 C 239.92041016 275.26998901 239.99256897 275.78134155 239.96719360 276.32348633 C 239.82583618 276.76739502 239.58050537 277.12835693 239.36399841 277.47857666 C 239.20957947 277.88214111 239.04423523 278.18951416 238.83479309 278.39297485 C 238.57403564 278.56396484 238.27777100 278.63726807 237.90626526 278.57669067 C 237.52545166 278.50903320 237.14900208 278.46911621 236.76376343 278.37127686 C 236.39132690 278.20086670 236.08815002 277.94818115 235.76351929 277.66336060 C 235.47785950 277.37899780 235.28227234 277.07855225 235.21516418 276.76037598 C 235.22671509 276.36151123 235.25366211 275.88177490 235.32423401 275.39459229 C 235.48207092 274.93203735 235.62881470 274.49243164 235.82504272 274.02572632 C 235.92440796 273.52960205 236.01716614 273.05468750 239.87133789 274.76409912" stroke-width="1.29603851" fill="rgb(73, 110, 12)" opacity="1.0" stroke="rgb(118, 149, 61)" stroke-opacity="0.24873562" stroke-linecap="round" stroke-linejoin="round"/>
    <path d="M 263.01599121 309.37832642 C 262.96594238 309.38903809 262.93344116 309.40591431 262.88903809 309.41378784 C 262.84405518 309.43145752 262.81811523 309.43307495 262.76876831 309.45193481 C 262.72592163 309.44915771 262.68969727 309.46752930 262.65332031 309.45437622 C 262.60140991 309.46511841 262.59078979 309.43994141 262.55242920 309.42190552 C 262.50857544 309.42590332 262.49734497 309.39654541 262.46762085 309.37570190 C 262.46264648 309.34552002 262.46722412 309.31576538 262.47033691 309.27560425 C 262.45062256 309.25140381 262.46890259 309.22555542 262.48968506 309.15844727 C 262.49835205 309.13638306 262.52371216 309.08322144 262.56591797 309.00457764 C 262.60617065 308.97329712 262.61459351 308.91265869 262.66290283 308.85888672 C 262.70642090 308.77725220 262.73736572 308.75308228 263.01599121 309.37832642" stroke-width="2.00000000" fill="rgb(207, 162, 0)" opacity="1.0" stroke="rgb(207, 125, 1)" stroke-opacity="0.5829689" stroke-linecap="round" stroke-linejoin="round"/>
    <path d="M 193.39872742 274.56121826 C 193.40098572 274.54562378 193.40385437 274.56170654 193.39649963 274.54537964 C 193.40528870 274.54684448 193.40548706 274.56008911 193.38676453 274.54953003 C 193.40965271 274.54562378 193.40663147 274.55395508 193.39544678 274.55072021 C 193.39434814 274.54940796 193.41270447 274.54705811 193.39424133 274.54769897 C 193.39442444 274.55364990 193.40773010 274.54620361 193.39744568 274.55108643 C 193.39752197 274.55120850 193.40771484 274.54983521 193.40196228 274.54953003 C 193.39758301 274.55245972 193.41018677 274.54739380 193.40533447 274.55895996 C 193.39396667 274.55642700 193.41316223 274.54269409 193.40229797 274.57034302 C 193.40751648 274.55194092 193.40344238 274.55621338 193.41314697 274.55267334 C 193.40313721 274.57864380 193.41101074 274.54113770 193.39872742 274.56121826" stroke-width="2.00000000" fill="rgb(91, 0, 0)" opacity="1.0" stroke="rgb(208, 125, 1)" stroke-opacity="0.77018887" stroke-linecap="round" stroke-linejoin="round"/>
    <path d="M 227.02735901 290.95046997 C 227.04115295 290.92898560 227.02557373 290.94082642 227.02606201 290.94033813 C 227.02038574 290.92721558 227.03152466 290.92956543 227.00610352 290.94122314 C 227.00576782 290.92028809 227.02339172 290.92874146 227.00904846 290.92401123 C 226.98646545 290.92355347 227.00996399 290.92797852 226.99775696 290.91271973 C 226.99472046 290.92373657 227.00506592 290.90988159 226.98699951 290.91537476 C 226.99638367 290.91595459 226.99118042 290.90338135 226.99281311 290.91458130 C 226.99740601 290.90036011 226.98985291 290.90377808 226.99829102 290.90530396 C 226.98544312 290.89169312 227.00558472 290.89334106 226.99688721 290.89703369 C 226.99205017 290.88671875 227.01014709 290.87951660 227.00253296 290.88973999 C 226.99925232 290.88748169 227.01507568 290.86679077 227.02735901 290.95046997" stroke-width="2.00000000" fill="rgb(227, 111, 0)" opacity="1.0" stroke="rgb(206, 127, 1)" stroke-opacity="0.9565013" stroke-linecap="round" stroke-linejoin="round"/>
    <path d="M 281.76779175 249.74153137 C 280.72171021 249.87181091 279.76800537 250.09718323 278.96966553 250.40573120 C 278.24597168 250.73123169 277.50598145 250.92739868 276.87084961 251.25064087 C 276.34179688 251.70176697 275.98330688 252.17118835 275.66854858 252.50267029 C 275.34283447 252.74726868 275.09338379 252.91766357 274.96502686 253.02120972 C 274.91943359 253.04557800 274.97042847 253.05831909 275.00622559 252.98583984 C 274.92407227 252.93867493 274.77072144 252.80784607 274.65011597 252.51924133 C 274.46649170 252.17573547 274.29367065 251.75762939 274.18084717 251.28497314 C 273.98901367 250.87808228 273.74719238 250.45307922 273.38726807 249.99627686 C 272.84002686 249.52743530 272.24044800 248.98171997 271.68185425 248.39683533 C 271.07937622 247.84246826 270.58056641 247.15074158 281.76779175 249.74153137" stroke-width="1.67959535" fill="rgb(249, 211, 108)" opacity="1.0" stroke="rgb(250, 210, 114)" stroke-opacity="1.0" stroke-linecap="round" stroke-linejoin="round"/>
    <path d="M 309.52627563 284.65264893 C 309.58428955 284.70367432 309.64132690 284.72750854 309.71560669 284.73815918 C 309.75003052 284.81723022 309.83358765 284.80834961 309.86355591 284.85406494 C 309.92517090 284.89450073 309.96438599 284.92001343 310.01705933 284.95401001 C 310.03985596 284.98687744 310.07937622 285.02478027 310.10897827 285.05911255 C 310.11926270 285.09545898 310.13095093 285.12759399 310.15487671 285.17050171 C 310.13732910 285.21145630 310.12863159 285.23727417 310.12841797 285.28927612 C 310.10269165 285.32965088 310.07260132 285.35186768 310.04510498 285.41162109 C 310.00640869 285.44577026 309.97598267 285.48184204 309.92776489 285.52377319 C 309.89151001 285.57550049 309.83856201 285.59292603 309.79956055 285.66760254 C 309.74566650 285.67590332 309.70513916 285.74624634 309.52627563 284.65264893" stroke-width="2.00000000" fill="rgb(204, 128, 6)" opacity="1.0" stroke="rgb(202, 127, 0)" stroke-opacity="1.0" stroke-linecap="round" stroke-linejoin="round"/>
    <path d="M 188.82313538 274.91159058 C 188.79823303 274.90750122 188.81072998 274.92041016 188.80664062 274.90115356 C 188.79483032 274.92492676 188.79570007 274.91485596 188.79917908 274.90988159 C 188.79403687 274.92309570 188.77995300 274.91842651 188.79521179 274.91098022 C 188.78446960 274.92501831 188.77622986 274.91549683 188.78587341 274.91256714 C 188.77937317 274.92724609 188.77055359 274.91088867 188.78305054 274.91476440 C 188.76580811 274.92367554 188.77203369 274.90698242 188.76991272 274.91674805 C 188.76637268 274.91458130 188.76333618 274.90496826 188.77053833 274.91845703 C 188.76234436 274.90200806 188.75927734 274.91137695 188.76780701 274.89996338 C 188.75765991 274.90774536 188.76200867 274.89978027 188.75788879 274.89120483 C 188.75984192 274.90591431 188.75901794 274.88098145 188.82313538 274.91159058" stroke-width="2.00000000" fill="rgb(255, 119, 0)" opacity="1.0" stroke="rgb(205, 126, 0)" stroke-opacity="1.0" stroke-linecap="round" stroke-linejoin="round"/>
    <path d="M 236.20579529 262.83627319 C 236.19715881 262.81396484 236.20599365 262.82525635 236.19944763 262.82882690 C 236.20523071 262.81967163 236.19906616 262.81857300 236.20675659 262.82376099 C 236.20188904 262.82220459 236.20133972 262.81838989 236.20491028 262.82418823 C 236.20236206 262.81762695 236.19921875 262.82177734 236.20626831 262.82592773 C 236.20381165 262.81268311 236.19857788 262.82620239 236.21014404 262.82141113 C 236.19190979 262.81866455 236.20664978 262.81976318 236.20422363 262.83264160 C 236.19740295 262.80828857 236.19813538 262.83267212 236.20803833 262.82431030 C 236.19570923 262.81298828 236.19673157 262.83621216 236.20710754 262.81356812 C 236.19035339 262.83245850 236.20074463 262.81625366 236.20207214 262.83590698 C 236.19041443 262.81436157 236.20245361 262.83801270 236.20579529 262.83627319" stroke-width="2.00000000" fill="rgb(182, 92, 151)" opacity="1.0" stroke="rgb(203, 125, 3)" stroke-opacity="0.99667335" stroke-linecap="round" stroke-linejoin="round"/>
    <path d="M 277.43640137 279.76763916 C 277.40536499 279.75338745 277.42578125 279.76876831 277.42761230 279.76156616 C 277.40774536 279.75033569 277.42279053 279.76840210 277.42431641 279.75634766 C 277.40756226 279.75265503 277.42135620 279.76873779 277.41824341 279.74749756 C 277.41409302 279.75790405 277.41659546 279.76724243 277.41857910 279.74478149 C 277.41857910 279.76535034 277.41070557 279.76153564 277.42242432 279.74758911 C 277.41500854 279.76364136 277.41769409 279.75839233 277.41564941 279.75512695 C 277.42135620 279.75939941 277.41836548 279.76010132 277.41244507 279.75924683 C 277.42962646 279.76074219 277.41464233 279.75595093 277.41888428 279.77725220 C 277.43014526 279.74572754 277.41305542 279.76043701 277.41723633 279.77853394 C 277.43557739 279.75482178 277.41128540 279.77044678 277.43640137 279.76763916" stroke-width="2.00000000" fill="rgb(142, 69, 0)" opacity="1.0" stroke="rgb(204, 126, 2)" stroke-opacity="1.0" stroke-linecap="round" stroke-linejoin="round"/>
    <path d="M 312.97390747 296.44787598 C 312.31741333 296.20996094 311.73010254 295.93194580 311.18991089 295.54223633 C 310.75033569 295.15884399 310.48071289 294.65307617 310.25961304 294.07312012 C 310.18530273 293.47860718 310.22085571 292.91903687 310.28170776 292.35174561 C 310.33810425 291.79083252 310.44396973 291.32632446 310.67507935 291.04879761 C 311.03649902 290.87429810 311.39965820 290.72424316 311.80773926 290.64660645 C 312.26513672 290.50048828 312.68017578 290.29873657 313.09860229 290.25125122 C 313.47305298 290.23693848 313.79162598 290.31536865 314.09701538 290.48437500 C 314.30203247 290.75247192 314.42706299 291.14672852 314.50259399 291.57632446 C 314.55688477 291.98785400 314.68176270 292.37173462 314.79275513 292.82077026 C 315.01858521 293.17327881 315.25177002 293.47964478 312.97390747 296.44787598" stroke-width="1.55634177" fill="rgb(87, 71, 24)" opacity="1.0" stroke="rgb(149, 140, 68)" stroke-opacity="0.22788732" stroke-linecap="round" stroke-linejoin="round"/>
    <path d="M 139.51611328 268.89813232 C 138.82701111 267.94830322 138.10975647 266.72427368 137.41282654 265.54296875 C 136.49102783 264.36892700 135.43420410 263.17144775 134.11288452 262.00714111 C 132.69360352 260.73434448 131.03503418 259.36624146 129.36404419 258.02569580 C 127.78730011 256.64282227 126.04475403 255.25119019 124.25265503 253.95808411 C 122.77088928 252.65388489 121.28438568 251.53425598 120.20786285 250.33563232 C 119.66191101 249.00300598 119.65769958 247.89030457 120.23163605 246.76271057 C 120.98603821 245.90922546 122.05696106 245.80258179 123.17074585 246.54254150 C 124.55062103 248.21308899 126.51812744 250.35945129 128.83735657 253.07301331 C 131.51281738 256.13854980 134.61402893 259.35031128 137.88296509 262.74111938 C 141.59567261 265.89511108 145.49177551 269.00231934 139.51611328 268.89813232" stroke-width="0.67706424" fill="rgb(158, 38, 46)" opacity="1.0" stroke="rgb(143, 0, 1)" stroke-opacity="0.27546886" stroke-linecap="round" stroke-linejoin="round"/>
    <path d="M 143.46759033 265.63571167 C 142.23071289 266.67938232 140.81912231 267.65612793 139.24758911 268.26968384 C 137.41625977 268.53143311 135.41976929 268.40911865 133.28602600 268.25338745 C 131.05229187 268.39059448 128.85432434 268.61981201 126.60466766 268.87036133 C 124.54370880 269.15985107 122.51877594 269.05407715 120.65305328 269.13214111 C 118.99571991 269.80947876 117.30032349 270.32440186 115.64472961 270.59939575 C 114.25904083 270.83084106 113.04708099 270.90039062 112.08175659 270.84814453 C 111.19300842 270.34036255 110.60306549 269.82464600 110.37364960 269.15969849 C 110.36442566 268.30438232 110.54741669 267.40985107 111.04320526 266.78625488 C 111.71945953 266.45825195 112.66714478 266.30072021 113.79034424 266.20526123 C 115.05001831 265.79522705 116.32553864 265.19439697 143.46759033 265.63571167" stroke-width="0.82758033" fill="rgb(146, 20, 28)" opacity="1.0" stroke="rgb(128, 2, 4)" stroke-opacity="0.29500845" stroke-linecap="round" stroke-linejoin="round"/>
    <path d="M 265.13516235 301.97845459 C 264.95962524 301.13015747 264.82931519 300.30789185 264.77331543 299.54782104 C 264.81903076 298.81170654 264.91674805 298.14895630 265.02639771 297.55383301 C 265.17382812 297.02423096 265.35244751 296.57580566 265.58901978 296.18170166 C 265.90438843 295.89727783 266.27316284 295.73983765 266.64517212 295.75985718 C 267.06716919 295.87094116 267.49435425 296.04196167 267.97708130 296.28213501 C 268.44064331 296.56478882 268.80078125 296.92779541 269.10742188 297.39349365 C 269.43939209 297.89602661 269.74569702 298.50125122 269.94616699 299.15402222 C 270.08609009 299.83950806 270.14791870 300.54434204 270.14163208 301.27630615 C 270.02880859 302.00909424 269.81893921 302.71163940 269.46325684 303.42813110 C 269.03594971 304.16256714 268.60427856 304.86920166 265.13516235 301.97845459" stroke-width="0.59967661" fill="rgb(247, 224, 27)" opacity="1.0" stroke="rgb(231, 216, 29)" stroke-opacity="0.5616548" stroke-linecap="round" stroke-linejoin="round"/>
    <path d="M 299.72351074 280.30160522 C 299.77911377 280.99468994 299.82962036 281.62722778 299.87518311 282.24365234 C 299.84777832 282.77438354 299.73028564 283.24838257 299.52276611 283.70550537 C 299.25866699 284.09768677 298.97271729 284.42697144 298.70724487 284.71130371 C 298.43753052 284.91232300 298.15979004 285.00094604 297.84387207 285.04681396 C 297.48995972 284.91101074 297.15777588 284.64248657 296.86468506 284.38467407 C 296.59188843 284.09460449 296.31378174 283.80395508 296.13302612 283.40542603 C 296.09341431 282.93634033 295.94570923 282.42181396 295.74435425 281.89419556 C 295.55493164 281.36587524 295.48254395 280.81326294 295.56729126 280.32568359 C 295.79312134 279.82891846 296.08920288 279.30786133 296.46957397 278.85073853 C 296.84811401 278.37084961 297.20358276 277.85873413 299.72351074 280.30160522" stroke-width="0.64161813" fill="rgb(250, 231, 51)" opacity="1.0" stroke="rgb(219, 222, 41)" stroke-opacity="0.48434246" stroke-linecap="round" stroke-linejoin="round"/>
    <path d="M 199.54014587 280.80545044 C 198.99902344 280.44323730 198.47071838 280.05575562 197.97978210 279.60592651 C 197.54518127 279.17227173 197.17535400 278.74813843 196.91424561 278.30041504 C 196.74324036 277.82501221 196.66191101 277.37188721 196.67440796 276.97308350 C 196.76942444 276.61178589 196.99617004 276.27011108 197.24746704 276.00936890 C 197.55937195 275.93023682 197.96684265 275.93252563 198.36520386 275.92974854 C 198.81497192 275.87051392 199.28732300 275.77590942 199.69644165 275.73345947 C 200.13909912 275.83578491 200.56640625 276.00427246 200.94221497 276.24633789 C 201.35014343 276.53674316 201.66188049 276.91729736 201.91726685 277.35986328 C 202.09104919 277.82388306 202.18856812 278.35504150 202.17810059 278.90353394 C 202.19238281 279.51184082 202.13169861 280.14474487 199.54014587 280.80545044" stroke-width="0.65217519" fill="rgb(249, 204, 39)" opacity="1.0" stroke="rgb(248, 206, 43)" stroke-opacity="0.5689486" stroke-linecap="round" stroke-linejoin="round"/>
    <path d="M 200.00604248 263.87255859 C 200.38508606 264.15194702 200.74005127 264.42059326 201.00926208 264.77850342 C 201.20794678 265.23898315 201.28932190 265.67654419 201.38803101 266.04306030 C 201.44412231 266.41580200 201.39694214 266.74652100 201.25982666 267.06356812 C 201.01007080 267.43148804 200.70191956 267.82437134 200.28317261 268.16110229 C 199.91194153 268.49325562 199.56253052 268.80361938 199.23010254 269.13937378 C 198.96391296 269.50598145 198.66659546 269.79666138 198.30331421 269.92208862 C 197.93060303 269.91146851 197.54356384 269.81906128 197.15150452 269.66531372 C 196.80090332 269.44772339 196.57868958 269.14364624 196.47061157 268.76626587 C 196.47473145 268.27484131 196.58616638 267.70358276 196.67976379 267.05236816 C 196.76316833 266.24475098 196.81738281 265.39358521 200.00604248 263.87255859" stroke-width="0.48292649" fill="rgb(251, 203, 67)" opacity="1.0" stroke="rgb(235, 190, 64)" stroke-opacity="0.56960243" stroke-linecap="round" stroke-linejoin="round"/>
    <path d="M 209.11862183 286.57275391 C 209.14115906 287.14337158 209.17752075 287.69528198 209.20053101 288.20764160 C 209.11590576 288.65866089 208.90332031 289.01608276 208.71777344 289.34622192 C 208.54598999 289.65365601 208.33432007 289.84219360 208.04183960 289.92376709 C 207.69361877 289.88076782 207.37010193 289.75698853 207.03775024 289.63287354 C 206.72201538 289.41622925 206.40789795 289.08932495 206.08590698 288.73876953 C 205.77973938 288.40603638 205.57098389 288.02166748 205.44821167 287.60968018 C 205.28860474 287.15853882 205.13301086 286.70455933 205.01719666 286.30300903 C 204.90081787 285.93887329 204.83862305 285.58148193 204.89205933 285.28192139 C 205.02716064 284.97186279 205.29032898 284.66506958 205.60914612 284.37490845 C 205.98107910 284.03451538 206.37481689 283.69470215 209.11862183 286.57275391" stroke-width="0.60909855" fill="rgb(242, 210, 39)" opacity="1.0" stroke="rgb(225, 205, 37)" stroke-opacity="0.53133756" stroke-linecap="round" stroke-linejoin="round"/>
    <path d="M 251.31893921 277.83947754 C 251.77694702 277.63870239 252.07304382 277.53118896 252.40289307 277.56475830 C 252.73979187 277.73779297 252.98365784 278.01507568 253.23950195 278.31478882 C 253.59310913 278.53018188 253.86145020 278.77868652 254.12037659 279.06298828 C 254.29663086 279.36679077 254.29554749 279.74044800 254.23941040 280.19781494 C 254.17701721 280.61227417 254.18392944 281.04055786 254.08850098 281.51718140 C 253.88815308 281.97454834 253.68103027 282.37966919 253.46871948 282.81314087 C 253.17457581 283.22476196 252.85179138 283.49276733 252.57911682 283.59057617 C 252.25045776 283.44494629 251.81471252 283.29223633 251.31570435 283.10189819 C 250.79794312 282.86843872 250.26260376 282.45614624 249.76837158 281.88577271 C 249.34594727 281.22180176 248.92327881 280.50204468 251.31893921 277.83947754" stroke-width="1.33349800" fill="rgb(69, 91, 8)" opacity="1.0" stroke="rgb(115, 146, 51)" stroke-opacity="0.33482438" stroke-linecap="round" stroke-linejoin="round"/>
    <path d="M 284.19903564 268.19601440 C 284.50756836 268.57424927 284.76065063 268.95770264 285.14239502 269.30548096 C 285.45104980 269.63214111 285.69125366 269.98602295 285.92428589 270.34841919 C 286.20843506 270.72714233 286.41119385 271.06896973 286.38070679 271.44839478 C 286.26159668 271.86920166 286.11587524 272.29513550 286.05227661 272.66207886 C 285.96435547 272.98937988 285.77230835 273.32803345 285.56939697 273.55969238 C 285.27996826 273.61737061 284.89117432 273.64157104 284.47811890 273.69158936 C 283.95254517 273.70629883 283.37515259 273.81015015 282.90536499 273.89663696 C 282.51293945 273.79818726 282.21578979 273.58551025 281.95697021 273.22674561 C 281.76513672 272.78549194 281.64462280 272.20895386 281.58129883 271.57894897 C 281.45727539 270.90261841 281.23989868 270.26773071 284.19903564 268.19601440" stroke-width="1.46729517" fill="rgb(75, 78, 13)" opacity="1.0" stroke="rgb(126, 136, 56)" stroke-opacity="0.33417183" stroke-linecap="round" stroke-linejoin="round"/>
    <path d="M 224.24873352 251.09262085 C 224.69889832 251.17913818 225.15707397 251.32673645 225.60649109 251.53839111 C 225.89787292 251.86567688 226.05226135 252.31929016 226.15736389 252.84123230 C 226.26074219 253.37719727 226.43318176 253.89372253 226.46069336 254.39247131 C 226.40371704 254.92022705 226.24296570 255.43823242 226.08180237 255.91923523 C 225.94786072 256.39025879 225.84240723 256.81610107 225.65226746 257.19863892 C 225.38070679 257.46643066 225.09683228 257.64248657 224.75611877 257.72573853 C 224.37213135 257.72799683 223.91903687 257.66586304 223.50061035 257.60397339 C 223.14396667 257.61953735 222.80471802 257.57684326 222.47341919 257.27011108 C 222.13546753 256.67916870 221.84642029 255.84173584 221.68707275 254.84957886 C 221.58351135 253.72479248 221.45562744 252.46504211 224.24873352 251.09262085" stroke-width="1.33040905" fill="rgb(105, 85, 22)" opacity="1.0" stroke="rgb(130, 126, 88)" stroke-opacity="0.21450797" stroke-linecap="round" stroke-linejoin="round"/>
  </g>
</svg>
