<?xml version="1.0" ?>
<svg xmlns="http://www.w3.org/2000/svg" version="1.1" width="512" height="512" viewBox="0 0 512 512">
  <defs/>
  <g>
    <path d="M 629.59783936 481.06143188 C 604.57537842 488.49545288 579.49334717 495.96176147 554.41900635 503.41738892 C 529.31268311 510.79248047 504.17864990 518.11645508 478.92410278 525.32727051 C 453.63580322 532.36816406 428.23318481 539.17303467 402.75183105 545.68157959 C 377.17694092 551.79022217 351.54129028 557.44476318 325.81481934 562.53356934 C 300.09988403 566.97790527 274.42581177 570.66925049 248.81179810 573.48797607 C 223.40460205 575.35314941 198.29922485 576.13037109 173.56173706 575.71929932 C 149.31097412 573.99267578 125.72460938 570.86450195 102.91876984 566.18518066 C 81.05054474 559.85870361 60.29046631 551.81433105 40.80526733 541.86444092 C 22.77942467 529.94262695 6.40349865 515.98419189 -8.23505497 499.91122437 C -21.06633759 481.74136353 -32.19027328 461.78594971 -41.72006607 440.24710083 C -49.76788330 417.27496338 -56.38291931 393.16934204 -61.70092392 368.16464233 C -65.77731323 342.44204712 -68.66725922 316.21667480 -70.45180511 289.72613525 C -71.21016693 263.18539429 -70.89669800 236.73187256 -69.56798553 210.54992676 C -67.25520325 184.86186218 -63.93175507 159.82731628 -59.57252502 135.54005432 C -54.15964890 112.20084381 -47.63108063 89.93960571 -39.93791580 68.81362915 C -30.97213173 48.98761749 -20.73328018 30.55628967 -9.06987190 13.57559204 C 4.06897736 -1.76816475 18.71467209 -15.53253078 34.82595825 -27.74669266 C 52.34674835 -38.45497894 71.10867310 -47.77608490 91.11254883 -55.80431366 C 112.21529388 -62.53515244 134.32261658 -68.08272552 157.30488586 -72.48450470 C 181.06950378 -75.79206848 205.48536682 -78.02680206 230.39212036 -79.23907471 C 255.63768005 -79.40689087 281.10910034 -78.53707886 306.58386230 -76.59217834 C 331.87817383 -73.53799438 356.88223267 -69.40677643 381.32843018 -64.04453278 C 405.08764648 -57.47759628 427.95141602 -49.58368301 449.65542603 -40.25354767 C 470.09921265 -29.42446136 489.07241821 -16.97414398 506.27767944 -2.78281713 C 521.68579102 13.14652824 535.29321289 30.84649849 547.21606445 50.09136581 C 557.64807129 70.64281464 566.71423340 92.43206024 574.54388428 115.32705688 C 581.35211182 139.05636597 587.26586914 163.54183960 592.42285156 188.67549133 C 596.93682861 214.28010559 600.98449707 240.29188538 604.62567139 266.61575317 C 608.00012207 293.13815308 611.22125244 319.77767944 614.32806396 346.52630615 C 617.39495850 373.28009033 620.45410156 400.07901001 629.59783936 481.06143188" stroke-width="2.00000000" fill="rgb(93, 185, 215)" opacity="1.0" stroke="rgb(58, 170, 211)" stroke-opacity="0.81931216" stroke-linecap="round" stroke-linejoin="round"/>
    <path d="M 460.12655640 113.95535278 C 444.18743896 106.58104706 428.13073730 99.64229584 411.61273193 94.20144653 C 394.53582764 90.36823273 377.07476807 87.52201843 359.49456787 85.88272095 C 341.65927124 85.27696991 323.83569336 85.43990326 306.13275146 87.07440186 C 288.69732666 90.39321899 271.62371826 95.06826019 254.78822327 100.34307861 C 238.08462524 105.65969849 221.84996033 110.99188232 205.54115295 114.92173004 C 189.19819641 117.66120911 173.32031250 120.23315430 158.32995605 122.56330872 C 144.13836670 123.53259277 131.02111816 123.79270172 119.07719421 123.76758575 C 108.52014160 123.53321075 99.44822693 123.36199951 91.99938965 123.09075165 C 86.38930511 122.44939423 82.55019379 121.52931976 80.45069885 120.98078156 C 80.22640991 121.27933502 81.93511963 121.86678314 85.57423401 122.27755737 C 91.06797028 122.57719421 98.25446320 123.11367798 107.07869720 123.65472412 C 117.52993774 123.59144592 129.40660095 123.53615570 142.51277161 123.40204620 C 156.81835938 122.62789154 171.96911621 121.38858795 187.76147461 119.06487274 C 203.91322327 115.18608856 220.60910034 110.49066162 237.55285645 105.20434570 C 254.71192932 99.47780609 272.16217041 94.20668793 289.83703613 90.12087250 C 307.69406128 87.68785858 325.44250488 86.54038239 342.74343872 85.46920776 C 359.25601196 86.04064941 375.31301880 87.96724701 391.04669189 90.53292084 C 406.59970093 93.76948547 421.88558960 97.72135162 436.87643433 102.82260895 C 451.64443970 109.41456604 466.14822388 116.81694031 480.32537842 125.40416718 C 494.35470581 134.55969238 508.13778687 144.09248352 460.12655640 113.95535278" stroke-width="1.79268301" fill="rgb(0, 175, 183)" opacity="1.0" stroke="rgb(16, 171, 183)" stroke-opacity="0.9954571" stroke-linecap="round" stroke-linejoin="round"/>
    <path d="M 471.16864014 274.63269043 C 455.48245239 283.02975464 439.95800781 291.65161133 423.99758911 299.69024658 C 407.34490967 306.36334229 389.75250244 311.10760498 371.09011841 313.97787476 C 352.08114624 316.11932373 332.84008789 316.40365601 313.21945190 315.64697266 C 293.84658813 314.17288208 274.78530884 311.57858276 255.80590820 311.56445312 C 236.56192017 312.63067627 217.68966675 311.74676514 199.39004517 308.45986938 C 181.69569397 304.78704834 165.17340088 299.33584595 149.90682983 292.84899902 C 135.72416687 286.99404907 122.98704529 281.49011230 112.06620026 276.56408691 C 101.93901062 275.64965820 92.65027618 276.23980713 84.41970062 277.00387573 C 77.45776367 277.95043945 71.99436951 279.00433350 68.27590179 279.79092407 C 66.19936371 280.27832031 66.27508545 280.09826660 68.36453247 279.58621216 C 72.61069489 278.81646729 78.62651825 277.95660400 86.48076630 276.95193481 C 95.82344055 275.89575195 106.64374542 275.41009521 118.86445618 275.78421021 C 132.39842224 277.95242310 147.11787415 281.12167358 162.79261780 285.09951782 C 179.30525208 289.71212769 196.64277649 294.67169189 214.78701782 299.58856201 C 233.51853943 304.26245117 252.52210999 308.50311279 271.63327026 311.97009277 C 290.82418823 313.64334106 309.86764526 315.71527100 328.95288086 316.25253296 C 348.07275391 316.15530396 366.89053345 315.03222656 385.26950073 311.73281860 C 403.40811157 307.70956421 420.77627563 301.54132080 437.47042847 293.04684448 C 454.38763428 284.40960693 470.84689331 274.67074585 487.18972778 264.15640259 C 503.34579468 253.23065186 519.20898438 241.95799255 471.16864014 274.63269043" stroke-width="1.32890129" fill="rgb(10, 36, 39)" opacity="1.0" stroke="rgb(15, 171, 165)" stroke-opacity="0.8846153" stroke-linecap="round" stroke-linejoin="round"/>
    <path d="M 387.85092163 276.36959839 C 379.93362427 280.84268188 372.13900757 285.16000366 364.03445435 288.80178833 C 356.12023926 292.43807983 348.28335571 295.69769287 340.52151489 298.31002808 C 332.83978271 300.40069580 325.18447876 302.24258423 317.82229614 304.19357300 C 310.30294800 305.61077881 302.78768921 306.40042114 295.44702148 307.46356201 C 287.92874146 307.37799072 280.32199097 308.50244141 272.38238525 308.56188965 C 264.40515137 308.87417603 256.37274170 309.39608765 248.33445740 309.22988892 C 240.48104858 309.12100220 232.72889709 309.58847046 224.98323059 308.56716919 C 217.15272522 308.23364258 209.13943481 307.28466797 201.03688049 305.66644287 C 192.89237976 304.23269653 184.77125549 302.03903198 176.63023376 299.43026733 C 168.55072021 296.70401001 160.56602478 293.90838623 152.79818726 290.58547974 C 145.36596680 287.13092041 137.94619751 284.14309692 131.05134583 281.22799683 C 124.70915222 278.73446655 119.04093170 276.35696411 114.63981628 273.75585938 C 112.05371857 270.00677490 110.51644135 265.62738037 110.56489563 260.55978394 C 111.40699768 254.90226746 113.31805420 249.03327942 116.54293060 243.55601501 C 120.06092834 238.33984375 125.25143433 234.20098877 130.47102356 229.80632019 C 136.28614807 226.11572266 142.91075134 223.62805176 149.36408997 220.63507080 C 155.95275879 217.36727905 163.34394836 215.05676270 170.99913025 213.12503052 C 178.81932068 211.16101074 186.99038696 209.71736145 195.16764832 208.46789551 C 203.29183960 206.86329651 211.56579590 206.24617004 220.35484314 206.39099121 C 229.98234558 204.77522278 240.56929016 205.84524536 251.35771179 205.51651001 C 261.70590210 206.01004028 271.32284546 207.22404480 280.37515259 207.63299561 C 288.63815308 208.77066040 295.64556885 210.10377502 301.15411377 209.26890564 C 305.85754395 202.69917297 312.22406006 195.01153564 319.58639526 188.41880798 C 326.50518799 184.31944275 331.93908691 183.61766052 334.81829834 187.04168701 C 334.66683960 194.59909058 334.92779541 204.07722473 337.68121338 212.52525330 C 344.58795166 217.82429504 353.74908447 220.55653381 363.39739990 223.66697693 C 372.46389771 226.89869690 380.40628052 230.19445801 386.91043091 233.77175903 C 392.66314697 236.75531006 397.15716553 240.08547974 401.20547485 242.94583130 C 405.18634033 245.20664978 408.80175781 247.35520935 412.31411743 249.24183655 C 415.75607300 250.73979187 419.06488037 251.94264221 387.85092163 276.36959839" stroke-width="2.00000000" fill="rgb(88, 129, 182)" opacity="1.0" stroke="rgb(0, 0, 0)" stroke-opacity="1.0" stroke-linecap="round" stroke-linejoin="round"/>
    <path d="M 444.56475830 281.76925659 C 442.07614136 281.67694092 439.68551636 281.23751831 437.33929443 280.27453613 C 434.98556519 279.28179932 432.83285522 278.15866089 430.35046387 277.27197266 C 428.06793213 275.49478149 425.63308716 273.43026733 423.53430176 270.81903076 C 421.26068115 268.21884155 419.11727905 265.60745239 417.76336670 262.75384521 C 417.22830200 260.05703735 417.34698486 257.88153076 416.73736572 256.77856445 C 415.29074097 257.22882080 413.15518188 257.57040405 410.88906860 257.18395996 C 408.91052246 257.06088257 407.38034058 257.71701050 406.56576538 257.76986694 C 406.34335327 255.58195496 406.53320312 252.46713257 406.44287109 249.49234009 C 406.48913574 247.99589539 407.47909546 248.45393372 409.73663330 249.64851379 C 412.99584961 249.78620911 416.15847778 249.72000122 418.37435913 249.51377869 C 418.57421875 247.93310547 418.05172729 245.56195068 419.13259888 242.97750854 C 421.32623291 239.28599548 423.89050293 235.24433899 427.27743530 231.51913452 C 431.18707275 228.37181091 435.11422729 225.48727417 438.57879639 222.93472290 C 441.42822266 221.19726562 443.47692871 220.16339111 444.76885986 220.35671997 C 445.43948364 221.62158203 445.46740723 224.10217285 445.69818115 227.31039429 C 445.85638428 230.97372437 445.70208740 234.94410706 445.35720825 238.79513550 C 444.44140625 242.21949768 443.28762817 245.69132996 441.52359009 248.72320557 C 438.80459595 251.42759705 436.18054199 253.78987122 434.85961914 255.35023499 C 436.25982666 255.96142578 438.68518066 257.08172607 440.13830566 260.05624390 C 442.60684204 263.27282715 445.57241821 266.14028931 444.56475830 281.76925659" stroke-width="2.00000000" fill="rgb(79, 122, 171)" opacity="1.0" stroke="rgb(3, 0, 0)" stroke-opacity="1.0" stroke-linecap="round" stroke-linejoin="round"/>
    <path d="M 325.71261597 182.11250305 C 327.30981445 182.25675964 328.90197754 181.72775269 330.69799805 181.02763367 C 332.53622437 181.00376892 334.54522705 181.52923584 336.22082520 182.46478271 C 337.64459229 183.91040039 338.74185181 185.72988892 339.29406738 187.68678284 C 339.44012451 189.55300903 339.30880737 191.54199219 339.26358032 193.54508972 C 338.82150269 195.34197998 338.47845459 197.28753662 338.16870117 199.39694214 C 338.13540649 201.75071716 337.96398926 203.73345947 338.14120483 205.24465942 C 338.26458740 206.38214111 338.65762329 207.01242065 339.10385132 207.43696594 C 338.82513428 207.74353027 337.91165161 207.58926392 336.62240601 207.49116516 C 335.37667847 207.83576965 334.59649658 207.92770386 334.45095825 206.97549438 C 334.18844604 204.85029602 334.22686768 201.85470581 334.50537109 198.53697205 C 334.66979980 194.90029907 335.10046387 191.17077637 335.69268799 188.00561523 C 335.52554321 185.87568665 333.88781738 184.91969299 330.48614502 185.26089478 C 326.13714600 186.06614685 321.56182861 188.21548462 317.09927368 191.22683716 C 312.72271729 194.45027161 308.94833374 198.03257751 305.95980835 201.59390259 C 303.64566040 204.63592529 301.91113281 206.99812317 300.58773804 208.54069519 C 299.39840698 208.96955872 298.56060791 208.50978088 298.37701416 207.49172974 C 298.87106323 205.90217590 299.81192017 204.15226746 301.34841919 202.46218872 C 302.69616699 200.36650085 304.30902100 198.04753113 306.26776123 195.96789551 C 308.09338379 193.74032593 310.27755737 191.75282288 312.63885498 189.90692139 C 315.13168335 188.01017761 317.32424927 185.71733093 325.71261597 182.11250305" stroke-width="1.89798713" fill="rgb(12, 14, 22)" opacity="1.0" stroke="rgb(255, 255, 240)" stroke-opacity="0.22269121" stroke-linecap="round" stroke-linejoin="round"/>
    <path d="M 141.39579773 248.18333435 C 141.41322327 248.18072510 141.39852905 248.18064880 141.40290833 248.18858337 C 141.40400696 248.16986084 141.40136719 248.18890381 141.39921570 248.18449402 C 141.40570068 248.18150330 141.39492798 248.18116760 141.40905762 248.17929077 C 141.39988708 248.18431091 141.39498901 248.18257141 141.40774536 248.18626404 C 141.40139771 248.18014526 141.39859009 248.18444824 141.40341187 248.18730164 C 141.40151978 248.17851257 141.40209961 248.19117737 141.39796448 248.18074036 C 141.40246582 248.18823242 141.40411377 248.18302917 141.39834595 248.19210815 C 141.39793396 248.18498230 141.40591431 248.18394470 141.39613342 248.19337463 C 141.39807129 248.18542480 141.40347290 248.19343567 141.39608765 248.18739319 C 141.39836121 248.18893433 141.39710999 248.19277954 141.39579773 248.18333435" stroke-width="0.17048812" fill="rgb(255, 255, 255)" opacity="1.0" stroke="rgb(134, 137, 139)" stroke-opacity="1.0" stroke-linecap="round" stroke-linejoin="round"/>
    <path d="M 107.18737793 150.19297791 C 106.81186676 151.10957336 106.63001251 151.98440552 106.59874725 152.74890137 C 106.60131836 153.37869263 106.29801941 153.82710266 105.73974609 154.28340149 C 105.28940582 154.92973328 104.82843018 155.65187073 104.28950500 156.31701660 C 103.71212769 156.96968079 103.01968384 157.48196411 102.28063202 157.89187622 C 101.50505829 158.26391602 100.65907288 158.48747253 99.79355621 158.79983521 C 98.93321228 159.02484131 98.11137390 159.16934204 97.27533722 159.05593872 C 96.29520416 158.77857971 95.25466919 158.48764038 94.30432129 158.22558594 C 93.39122772 157.75737000 92.47546387 157.27571106 91.55843353 156.81370544 C 90.79320526 156.29284668 90.25801849 155.62181091 89.87989044 154.79312134 C 89.46500397 153.99884033 89.09606171 153.16201782 88.71487427 152.24577332 C 88.47998047 151.29754639 88.40208435 150.37748718 88.42603302 149.38874817 C 88.53637695 148.39196777 88.61706543 147.39959717 88.87129211 146.45173645 C 89.22586823 145.52641296 89.78401184 144.66699219 90.42360687 143.87458801 C 91.20436859 143.21084595 91.97035217 142.61329651 92.77204895 142.02287292 C 93.62336731 141.60217285 94.55583954 141.32566833 95.49221802 141.07960510 C 96.40219879 140.87113953 97.30973816 140.78334045 98.22862244 140.78471375 C 99.17682648 140.87097168 100.05942535 141.04808044 100.98136902 141.24609375 C 101.80832672 141.56028748 102.68659210 141.90690613 103.45257568 142.40194702 C 104.10353088 142.89631653 104.69839478 143.49571228 105.29872131 144.07720947 C 105.96812439 144.61778259 106.55631256 145.18731689 107.18737793 150.19297791" stroke-width="0.40963477" fill="rgb(251, 255, 254)" opacity="1.0" stroke="rgb(211, 254, 205)" stroke-opacity="0.72136486" stroke-linecap="round" stroke-linejoin="round"/>
    <path d="M 395.27413940 177.26083374 C 395.25683594 177.26094055 395.26928711 177.26351929 395.26702881 177.25061035 C 395.26449585 177.26403809 395.26708984 177.25346375 395.26962280 177.24958801 C 395.26220703 177.26089478 395.27349854 177.25611877 395.26132202 177.24414062 C 395.26928711 177.25651550 395.26675415 177.25675964 395.27374268 177.23980713 C 395.25918579 177.25895691 395.26754761 177.25294495 395.27319336 177.23835754 C 395.26516724 177.25358582 395.27239990 177.24829102 395.26480103 177.24905396 C 395.27282715 177.24548340 395.26513672 177.25488281 395.27117920 177.24343872 C 395.27056885 177.25288391 395.26632690 177.24259949 395.26849365 177.25364685 C 395.27749634 177.24816895 395.26580811 177.24734497 395.26559448 177.24462891 C 395.28756714 177.25511169 395.25305176 177.24089050 395.27413940 177.26083374" stroke-width="0.26455390" fill="rgb(0, 237, 255)" opacity="1.0" stroke="rgb(93, 143, 136)" stroke-opacity="1.0" stroke-linecap="round" stroke-linejoin="round"/>
    <path d="M 389.10440063 144.41784668 C 388.37667847 144.70803833 387.67626953 144.96424866 387.01629639 145.21025085 C 386.39865112 145.40948486 385.76205444 145.53961182 385.08163452 145.61038208 C 384.44757080 145.63291931 383.86859131 145.58305359 383.37545776 145.50767517 C 382.89419556 145.40246582 382.41244507 145.23478699 381.96633911 145.06268311 C 381.58822632 144.87278748 381.30651855 144.67247009 381.12878418 144.48425293 C 380.90286255 144.25169373 380.70678711 143.97212219 380.57110596 143.62641907 C 380.52130127 143.20336914 380.50262451 142.81370544 380.58056641 142.54295349 C 380.72122192 142.36528015 380.94186401 142.12445068 381.21936035 141.81613159 C 381.55621338 141.39894104 381.93502808 140.93339539 382.37640381 140.53012085 C 382.99157715 140.11439514 383.80334473 139.53971863 389.10440063 144.41784668" stroke-width="1.54828584" fill="rgb(255, 255, 255)" opacity="1.0" stroke="rgb(0, 109, 112)" stroke-opacity="0.7115652" stroke-linecap="round" stroke-linejoin="round"/>
    <path d="M 289.22146606 301.50820923 C 284.60260010 301.55166626 280.13839722 301.23034668 276.12081909 301.32043457 C 272.59451294 300.55853271 269.18551636 300.45074463 265.82720947 300.29159546 C 262.65951538 299.51104736 259.34948730 298.88958740 256.48065186 297.72113037 C 253.46224976 296.29336548 250.05053711 295.39846802 246.37092590 294.37960815 C 242.86323547 292.89102173 238.99719238 291.48342896 235.18350220 290.35943604 C 231.85491943 288.30123901 228.55021667 286.27313232 225.23471069 284.54885864 C 222.22337341 283.06677246 220.41987610 280.92300415 219.44000244 278.69741821 C 217.54324341 277.67987061 215.88723755 276.77014160 214.93563843 275.32638550 C 214.48461914 273.35430908 214.53131104 271.17898560 214.42807007 268.79229736 C 214.10250854 266.68243408 214.34941101 265.16970825 215.13412476 264.52151489 C 216.57257080 264.60848999 218.47337341 264.68380737 220.97392273 264.56848145 C 223.81622314 264.92227173 226.58139038 265.68270874 229.50761414 266.48153687 C 232.51109314 266.26828003 235.60105896 267.34332275 238.90464783 269.05517578 C 242.53036499 270.08654785 246.05805969 271.04751587 249.42745972 272.76876831 C 252.76394653 274.16036987 256.09237671 275.74981689 259.43319702 277.23468018 C 262.86962891 278.44592285 266.03781128 279.95053101 269.04598999 281.81951904 C 271.84518433 283.29895020 274.74945068 284.79421997 277.28707886 286.37481689 C 279.59732056 287.87591553 282.23974609 288.98126221 284.35980225 290.50466919 C 286.59329224 292.22982788 288.82376099 294.02389526 290.95480347 295.74429321 C 292.61987305 297.74136353 294.23791504 300.04086304 289.22146606 301.50820923" stroke-width="2.00000000" fill="rgb(86, 126, 183)" opacity="1.0" stroke="rgb(0, 0, 0)" stroke-opacity="1.0" stroke-linecap="round" stroke-linejoin="round"/>
    <path d="M 378.95693970 140.24296570 C 380.15274048 140.28410339 381.33856201 140.53479004 382.29022217 141.18594360 C 383.32962036 141.80746460 384.44924927 142.09179688 385.27301025 142.55342102 C 385.55795288 143.40885925 386.17285156 144.10099792 387.01910400 144.70346069 C 387.45080566 145.60424805 387.93841553 146.68380737 388.37921143 147.62237549 C 388.32348633 148.71589661 388.49450684 149.75468445 388.47174072 150.86102295 C 388.25512695 152.16786194 387.89749146 153.34523010 387.25299072 154.16781616 C 386.71722412 154.96035767 386.71075439 155.83750916 386.84115601 156.39787292 C 386.54840088 156.56687927 385.88925171 156.53382874 385.17654419 156.58567810 C 384.58728027 156.81663513 384.33474731 157.45144653 384.14791870 158.15962219 C 383.35742188 158.30595398 382.09747314 158.54272461 380.74880981 158.57876587 C 379.19064331 158.62855530 377.69799805 158.50749207 376.44577026 158.37786865 C 375.63250732 157.54467773 374.83978271 157.23312378 373.83383179 157.54489136 C 373.07028198 156.96768188 372.50234985 156.17984009 371.64657593 155.50357056 C 370.77569580 154.78799438 370.46484375 153.92724609 370.40631104 153.14984131 C 370.19754028 152.33230591 369.86660767 151.51458740 369.64215088 150.70870972 C 369.53262329 149.87394714 369.44857788 148.76052856 369.82669067 147.69052124 C 370.33343506 147.06286621 370.53625488 146.24124146 370.48171997 145.40470886 C 370.58734131 144.72366333 371.05297852 144.21482849 371.72491455 143.65429688 C 372.53292847 143.19505310 373.28036499 142.62541199 373.86398315 142.31266785 C 374.33941650 141.66618347 374.70074463 140.88769531 378.95693970 140.24296570" stroke-width="2.00000000" fill="rgb(245, 251, 251)" opacity="1.0" stroke="rgb(0, 102, 114)" stroke-opacity="0.8933746" stroke-linecap="round" stroke-linejoin="round"/>
    <path d="M 134.37869263 247.43009949 C 134.58779907 246.40950012 134.77665710 245.28973389 135.13833618 244.24398804 C 135.51196289 243.33111572 135.89791870 242.41984558 136.34344482 241.59570312 C 136.80421448 240.97544861 137.33738708 240.60739136 137.95924377 240.34062195 C 138.53315735 239.82757568 139.00212097 239.38919067 139.49745178 239.13139343 C 140.23027039 239.00785828 141.05010986 238.90463257 141.94622803 238.77180481 C 142.74742126 238.80567932 143.39590454 239.17007446 144.19215393 239.46185303 C 145.00595093 239.95072937 145.78738403 240.43110657 146.54034424 240.76945496 C 147.27177429 241.13787842 147.74694824 241.73161316 148.20494080 242.38694763 C 148.62254333 243.10711670 149.03225708 243.81079102 149.43156433 244.45365906 C 149.72485352 245.17193604 149.85583496 245.89009094 149.84561157 246.59880066 C 149.75099182 247.33924866 149.62286377 248.09532166 149.41404724 248.88803101 C 149.14501953 249.64680481 148.89311218 250.41079712 148.61808777 251.22500610 C 148.33419800 251.95944214 147.84500122 252.62091064 147.32757568 253.25711060 C 146.67773438 253.79388428 146.03538513 254.37582397 145.49154663 254.96070862 C 144.87794495 255.38784790 144.10739136 255.65496826 143.30761719 255.77009583 C 142.56108093 255.83024597 141.83113098 255.80268860 141.05706787 255.74282837 C 140.38453674 255.47671509 139.74888611 255.22602844 139.10806274 254.98777771 C 138.51599121 254.68315125 137.97966003 254.31018066 137.46321106 253.93960571 C 136.99211121 253.41923523 136.54197693 252.81610107 136.07772827 252.20370483 C 135.66209412 251.51676941 135.23245239 250.84388733 134.37869263 247.43009949" stroke-width="0.76508284" fill="rgb(4, 9, 15)" opacity="1.0" stroke="rgb(15, 30, 48)" stroke-opacity="0.836461" stroke-linecap="round" stroke-linejoin="round"/>
    <path d="M 410.56896973 216.20532227 C 410.69848633 214.59994507 410.85025024 213.22758484 411.36013794 211.96409607 C 412.36825562 211.36320496 413.31234741 210.63851929 413.97241211 209.87814331 C 414.79656982 209.66410828 415.81314087 209.65097046 416.86578369 209.74163818 C 417.66262817 210.21920776 418.77740479 210.55169678 419.76925659 210.83049011 C 420.31658936 211.82926941 420.88208008 212.80311584 421.56317139 213.75477600 C 421.88256836 214.82223511 421.85028076 215.95263672 421.79174805 217.18782043 C 421.48025513 218.43644714 421.09945679 219.70103455 420.55920410 220.86671448 C 419.66540527 221.67039490 418.77572632 222.58424377 417.86370850 223.34243774 C 416.77453613 223.49008179 415.54425049 223.48858643 414.34570312 223.01893616 C 412.98440552 222.45529175 411.43124390 221.95420837 410.56896973 216.20532227" stroke-width="2.00000000" fill="rgb(232, 251, 249)" opacity="1.0" stroke="rgb(2, 49, 96)" stroke-opacity="0.98581606" stroke-linecap="round" stroke-linejoin="round"/>
    <path d="M 121.55547333 181.30532837 C 120.79716492 182.05247498 120.17036438 182.77449036 119.37076569 183.37109375 C 118.47537994 183.63795471 117.49768829 184.18199158 116.81694031 184.51173401 C 115.61405945 184.23783875 114.38766479 183.83027649 113.18772125 183.39408875 C 112.29186249 182.62806702 111.52647400 181.69651794 110.92563629 180.76930237 C 110.56812286 179.80426025 110.50061035 178.88171387 110.67701721 177.77035522 C 110.78987885 176.69329834 111.08885956 175.73651123 111.76799011 175.27516174 C 112.48634338 174.95437622 112.92592621 174.41564941 113.33720398 173.71554565 C 113.75335693 173.51660156 114.49334717 173.41955566 115.34806824 173.17439270 C 116.32640076 173.42337036 117.48721313 173.47538757 118.96732330 173.72523499 C 120.64428711 174.45320129 122.48149872 175.29859924 121.55547333 181.30532837" stroke-width="2.00000000" fill="rgb(232, 250, 248)" opacity="1.0" stroke="rgb(0, 100, 108)" stroke-opacity="1.0" stroke-linecap="round" stroke-linejoin="round"/>
    <path d="M 402.56747437 178.95173645 C 402.25946045 180.19850159 401.70394897 181.17211914 401.05126953 182.19569397 C 400.29995728 182.97517395 399.43124390 183.64064026 398.45538330 184.01972961 C 397.72457886 184.18367004 397.19094849 183.99853516 396.53710938 183.67056274 C 395.81423950 183.72314453 394.96279907 183.79077148 393.90188599 183.45646667 C 392.88128662 182.64749146 392.10260010 181.57508850 391.72637939 180.27218628 C 391.53860474 178.70410156 391.51828003 177.19140625 391.72659302 175.94779968 C 392.10675049 175.22944641 392.87225342 174.92341614 393.60641479 174.47666931 C 394.00946045 173.80117798 394.31158447 173.04460144 394.83309937 172.66786194 C 395.74609375 172.66905212 397.20510864 172.83938599 398.61657715 173.34506226 C 400.28866577 173.92428589 402.02011108 174.55120850 402.56747437 178.95173645" stroke-width="2.00000000" fill="rgb(236, 253, 251)" opacity="1.0" stroke="rgb(0, 100, 106)" stroke-opacity="1.0" stroke-linecap="round" stroke-linejoin="round"/>
    <path d="M 139.36677551 243.05732727 C 140.09782410 242.58059692 140.77888489 242.35191345 141.63961792 242.38357544 C 142.36676025 242.50617981 142.82344055 242.65995789 143.12670898 242.82061768 C 143.42959595 242.98014832 143.75337219 243.22253418 143.77937317 243.51783752 C 143.88354492 243.95790100 143.90451050 244.43591309 144.10942078 244.86914062 C 144.38716125 245.25938416 144.58706665 245.57179260 144.42564392 245.89207458 C 144.09989929 246.25701904 143.71684265 246.65446472 143.50987244 247.10221863 C 143.27323914 247.34060669 142.95387268 247.33163452 142.51599121 247.32455444 C 141.95701599 247.39378357 141.35650635 247.41169739 140.87643433 247.61766052 C 140.45344543 247.56410217 139.97770691 247.48330688 139.32220459 247.18963623 C 138.47152710 246.87074280 137.48599243 246.33430481 139.36677551 243.05732727" stroke-width="0.48340079" fill="rgb(252, 255, 254)" opacity="1.0" stroke="rgb(122, 129, 139)" stroke-opacity="0.6048992" stroke-linecap="round" stroke-linejoin="round"/>
  </g>
</svg>
