<svg xmlns="http://www.w3.org/2000/svg" width="384" height="384" viewBox="0 0 384 384">
  <defs/>
  <path fill="rgb(59.215686%, 0%, 0%)" d="M212.645,317.984 C209.984,453.219 218.113,466.828 161.379,434.273 C137.008,364.184 185.027,400.926 189.664,461.785 C192.781,286.207 191.074,254.094 190.258,71.629 C216.125,44.297 223.902,86.086 212.645,317.984"/>
  <path fill="rgb(25.098039%, 86.666667%, 49.803922%)" opacity="0.481" d="M411.051,349.121 C414.242,389.387 414.398,394.699 245.984,410.238 C142.875,395.141 99.617,379.316 209.938,396.738 C213.336,150.855 195.293,180.598 282.797,232.254 C396.152,231 406,233.766 411.051,349.121"/>
  <path fill="rgb(0%, 0%, 1.176471%)" d="M379.16,-14.363 C297.633,146.355 262.68,134.926 207.414,340.984 C200.031,348.43 234.613,305.895 240.535,49.004 C152.48,-51 138.707,-56.242 168.109,-33.152 C496.754,-6.457 482.551,-0.352 379.16,-14.363"/>
  <path fill="rgb(57.647059%, 94.117647%, 69.411765%)" opacity="0.869" d="M411.453,174.273 C426.555,249.07 429.617,257.707 376.184,258.016 C270.672,263.422 258.094,290.449 223.633,247.719 C239.48,146.746 290.801,173.332 383.297,141.203 C407.609,144.281 407.637,154.781 411.453,174.273"/>
  <path fill="rgb(3.529412%, 79.215686%, 76.470588%)" opacity="0.227" d="M191.805,119.586 C180.707,434.055 231.555,439.395 63.586,430.75 C-58.184,389.246 -34.16,369.047 -39.383,64.496 C-100.105,3.898 -115.066,-4.324 124.633,-25.777 C268.512,-8.211 268.613,119.707 191.805,119.586"/>
  <path fill="rgb(0%, 0%, 1.176471%)" d="M190.629,156.02 C193.359,172.383 191.715,219.668 191.062,252.922 C190.441,188.008 204.949,135.141 161.512,139.336 C140.512,180.664 195.023,188.484 105.684,152.164 C213.617,110.805 192.668,183.609 190.629,156.02"/>
  <path fill="rgb(87.45098%, 62.352941%, 2.745098%)" opacity="0.074" d="M189.461,292.512 C194.23,300.047 186.117,304.262 199.457,328.895 C181.141,317.469 193.867,310.02 191.422,320.02 C189.895,305.785 183.578,259.312 191.52,179.055 C197.273,284.016 195.398,308.973 189.461,292.512"/>
  <path fill="rgb(50.980392%, 65.882353%, 59.607843%)" opacity="0.66" d="M-1.277,-13.562 C-1.566,-5.5 -3.246,1.719 -9.875,3.504 C-8.414,13.285 -13.777,9.633 -13.887,2.422 C-10.57,-6.105 -5.887,-10.789 0.516,-12.504 C6.914,-10.789 11.598,-6.105 -1.277,-13.562"/>
  <path fill="rgb(74.901961%, 94.901961%, 95.294118%)" opacity="0.997" d="M275.438,214.945 C222.461,250.559 264.621,205.891 211.488,324.863 C213.781,316.078 211.434,271.98 210.609,115.969 C242.035,75.57 233.617,110.543 238.605,114.855 C303.59,148.918 335.324,165.141 275.438,214.945"/>
  <path fill="rgb(76.078431%, 92.54902%, 98.039216%)" d="M468.922,113.438 C420.754,217.562 395.719,226.129 256.09,283.234 C182.02,133.02 207.379,147.316 286.172,49.68 C263.43,73.398 211.938,31.102 147.875,-2.926 C375.023,-40.891 396.652,-22.863 468.922,113.438"/>
</svg>

