<svg xmlns="http://www.w3.org/2000/svg" width="384" height="384" viewBox="0 0 384 384">
  <defs/>
  <path fill="rgb(3.921569%, 2.352941%, 49.019608%)" d="M218.832,64.891 C175.121,300.461 142.77,270.934 51.273,237.742 C-18.02,208.633 -5.227,196.062 -5.719,88.566 C-88.59,7.035 -129.348,-7.469 164.863,-10.578 C201.312,-26.191 212.262,-28.133 218.832,64.891"/>
  <path fill="rgb(2.352941%, 6.666667%, 19.607843%)" opacity="0.837" d="M147.898,294.297 C144.477,386.887 155.008,395.117 110.277,400.578 C-116.172,393.383 -77.992,378.73 -42.141,268.855 C-43.941,177.137 -46.824,184.219 72.594,196.316 C129.73,133.703 160.535,99.551 147.898,294.297"/>
  <path fill="rgb(0%, 34.509804%, 31.764706%)" d="M397.66,304.066 C400.555,387.094 400.199,394.188 359.355,418.863 C278.93,414.945 292.645,404.504 281.863,324.715 C251.863,281.867 262.141,277.906 352.637,261.508 C399.074,244.777 402.883,248.723 397.66,304.066"/>
  <path fill="rgb(0%, 31.372549%, 34.509804%)" d="M318.895,362.301 C329.594,406.137 331.672,405.344 191.996,418.047 C136.691,455.793 135.344,475.176 146.121,293.508 C141.301,178.73 131.938,148.449 137.586,183.438 C342.594,232.129 319.914,267.645 318.895,362.301"/>
  <path fill="rgb(0.392157%, 0.784314%, 17.647059%)" opacity="0.991" d="M410.125,181.516 C401.039,262.617 393.234,266 290.277,285.168 C242.941,273.434 197.879,303.066 151.109,111.582 C146.996,18.496 143.168,-11.457 261.574,-27.996 C517.855,-4.961 473.426,12.77 410.125,181.516"/>
  <path fill="rgb(0%, 34.901961%, 33.72549%)" opacity="0.899" d="M317.984,304.039 C352.461,344.262 339.805,411.711 283.184,427.629 C224.844,381.207 224.324,366.145 224.008,337.738 C248.086,314.039 260.422,314.355 266.387,299.301 C288.984,300.113 313.137,287.594 317.984,304.039"/>
  <path fill="rgb(0%, 34.509804%, 30.980392%)" opacity="0.429" d="M371.215,297.484 C362.328,366.121 324.156,323.754 298.664,316.332 C253.754,315.477 253.879,319.152 244.508,290.332 C227.496,272.555 231.34,253.746 302.496,232.508 C328.688,282.215 330.652,250.812 371.215,297.484"/>
  <path fill="rgb(5.882353%, 41.176471%, 25.490196%)" opacity="0.625" d="M249.379,376.316 C238.84,412.934 217.629,402.477 189.93,402.461 C181.637,397.559 172.965,398.211 159.816,394.504 C179.508,371.297 185.105,362.52 193.906,295.371 C235.129,335.441 247.316,338.41 249.379,376.316"/>
  <path fill="rgb(17.254902%, 25.882353%, 7.843137%)" opacity="0.36" d="M223.754,294.07 C195.996,367.734 220.129,346.996 212.719,335.316 C186.098,315.715 159.961,319.73 208.672,316.227 C199.887,312.238 193.348,305.488 204.598,321.105 C202.09,244.016 220.594,304.336 223.754,294.07"/>
  <path fill="rgb(16.862745%, 20.784314%, 46.27451%)" opacity="0.501" d="M5.402,-13.645 C-3.691,-12.773 -2.793,4.785 -2.242,18.938 C-3.078,7.863 -10.293,4.633 -15.07,1.879 C-10.918,-5.902 -6.234,-10.586 0.746,-12.535 C7.223,-11.391 10.996,-5.75 5.402,-13.645"/>
  <path fill="rgb(98.823529%, 97.254902%, 65.098039%)" opacity="0.972" d="M307.629,141.66 C296.98,163.145 286.844,176.363 255.027,186.562 C243.078,187.25 263.629,194.973 260.539,143.617 C248.594,124.457 253.582,123.977 287.516,120.023 C295.312,115.34 291.391,122.461 307.629,141.66"/>
  <path fill="rgb(82.352941%, 99.607843%, 85.490196%)" opacity="0.997" d="M197.117,201.422 C189.949,224.59 184.883,223.672 144.738,234.723 C107.449,220.164 81.508,229.125 66.352,201.863 C81.391,163.574 98.996,166.152 156.074,151.738 C163.594,155.473 168.578,170.062 197.117,201.422"/>
  <path fill="rgb(81.568627%, 99.215686%, 88.235294%)" opacity="0.87" d="M95.594,192.656 C115.691,201.5 139.41,207.613 91,203.223 C72.262,200.641 56.188,203.84 77.832,181.07 C156.082,118.125 70.273,188.195 141.965,138.367 C145.836,160.562 218.793,159.336 95.594,192.656"/>
  <path fill="rgb(93.333333%, 100%, 81.176471%)" opacity="0.994" d="M313.691,136.395 C314.773,138.93 302.859,146.547 288.551,160.723 C272.082,155.383 256.496,160.895 257.039,131.895 C275.559,123.492 276.688,116.449 279.453,111.488 C328.273,113.211 321.492,129.359 313.691,136.395"/>
  <path fill="rgb(91.372549%, 100%, 78.431373%)" d="M327.621,115.805 C302.051,150.246 256.164,122.008 339.836,119.293 C241.148,176.801 266.727,134.949 220.152,96.379 C351.758,101.469 334.027,95.727 255.77,86.754 C172.703,106.359 322.684,77.273 327.621,115.805"/>
  <path fill="rgb(16.078431%, 15.294118%, 60.784314%)" opacity="0.46" d="M391.141,127.34 C394.824,151.59 407.168,176.785 366.723,171.262 C293.305,168.707 300.305,159.934 329.273,93.652 C316.617,58.039 295.52,31.172 378.984,-16 C416.492,70.578 392.766,107.215 391.141,127.34"/>
  <path fill="rgb(4.313725%, 1.568627%, 50.196078%)" opacity="0.957" d="M390.219,-3.484 C307.938,60.363 278.957,59.387 251.82,61.758 C233.008,33.191 237.68,17.578 203.227,55 C219.02,-14.574 224.117,-20.234 247.945,-25.625 C302.062,-20.77 350.285,-48.562 390.219,-3.484"/>
  <path fill="rgb(3.137255%, 1.568627%, 50.588235%)" d="M423.367,264.887 C371.57,304.766 359.512,269.652 299.492,275.727 C338.57,275.98 231.648,378.82 171.621,267.742 C244.066,158.859 283.348,175.027 329.027,109.602 C403.359,128.203 409.617,136.312 423.367,264.887"/>
  <path fill="rgb(2.745098%, 2.352941%, 48.235294%)" opacity="0.977" d="M335.996,53.695 C326.422,107.039 339.141,57.652 226.484,92.523 C204.895,94.445 156.258,11.105 202.953,38.719 C234.355,38.699 207.781,15.641 229.691,30.945 C276.852,33.125 317.449,6.73 335.996,53.695"/>
  <path fill="rgb(60.392157%, 98.039216%, 94.901961%)" opacity="0.992" d="M205.164,-23.582 C219.582,-3.422 146.855,30.047 207.641,90.422 C170.859,96.172 139.008,150.699 148.68,78.086 C174.766,-26.875 200.539,-19.805 209.238,-18.852 C230.973,-8.285 242.203,-8.434 205.164,-23.582"/>
  <path fill="rgb(3.921569%, 14.509804%, 48.627451%)" opacity="0.736" d="M30.117,242.102 C29.715,245.152 46.254,264.441 27.332,307.988 C-9.844,261.852 -11.301,253.426 -25.844,247.602 C-5.074,217.348 6.988,214.883 9.754,212.027 C21.68,222.086 25.363,228.527 30.117,242.102"/>
  <path fill="rgb(4.705882%, 6.27451%, 48.235294%)" opacity="0.965" d="M41.426,215.137 C31.945,229.477 34.18,245.617 23.113,249.637 C17.332,229.453 4,234.402 -23.875,224.66 C-7.645,194.258 -11.641,172.938 46.383,164.785 C83.211,172.883 56.594,212.883 41.426,215.137"/>
  <path fill="rgb(7.058824%, 7.843137%, 52.941176%)" opacity="0.992" d="M88.648,250.773 C60.156,262.43 72.336,280.008 60.594,280.41 C13.973,285.891 -2.797,306.52 -30.902,280.863 C-5.227,219.918 6.766,230.125 41.953,245.43 C70.098,224.453 58.547,238.227 88.648,250.773"/>
  <path fill="rgb(1.960784%, 7.058824%, 50.588235%)" opacity="0.738" d="M202.523,248.652 C116.957,286.48 88.871,260.816 82.367,298.984 C55.965,247.586 59.262,225.93 54.059,224.949 C37.777,220.176 34.828,221.695 19.043,210.797 C90.047,265.816 170.715,191.367 202.523,248.652"/>
  <path fill="rgb(4.705882%, 4.705882%, 46.27451%)" opacity="0.996" d="M229.527,277.543 C179.664,399.703 163.523,421.914 16.434,383.652 C99.629,252.863 36.973,470.465 -42.168,381.781 C-3.785,210.715 62.348,307.762 57.469,243 C133.594,217.93 196.125,197.828 229.527,277.543"/>
  <path fill="rgb(67.843137%, 100%, 94.901961%)" d="M230.059,121.656 C227.516,120.848 191.559,141.328 180.238,148.988 C161.73,160.355 156.746,165.773 152.438,133.863 C160.457,130.496 186.375,118.305 184.137,116.289 C222.68,100.398 213.801,81.453 230.059,121.656"/>
  <path fill="rgb(99.607843%, 100%, 29.019608%)" d="M172.422,213.5 C112.188,236.148 49.121,240.914 44.52,244.477 C42.066,244.641 6.449,212.109 147.18,131.605 C191.219,118.871 73.32,164.945 71.312,203.598 C71.297,222.711 98.586,231.41 172.422,213.5"/>
  <path fill="rgb(61.176471%, 99.215686%, 94.117647%)" opacity="0.958" d="M263.641,195.242 C258.578,200.469 245.957,209.008 217.797,221.555 C159.598,221.168 150.723,221.906 182.418,217.254 C185.078,159.848 210.664,169.617 241.578,144.172 C249.758,138.227 266.453,143.227 263.641,195.242"/>
  <path fill="rgb(51.372549%, 100%, 92.941176%)" d="M238.41,118.344 C258.289,142.387 268.191,166.566 242.898,148.035 C220.129,110.445 214.289,126.094 215.477,123.598 C222.809,125.695 153.039,40.254 210.758,89.234 C226.805,103.539 220.602,97.262 238.41,118.344"/>
  <path fill="rgb(67.45098%, 99.607843%, 94.901961%)" d="M180.305,177.809 C247.703,142.703 260.34,206.035 175.77,200.609 C152.352,158.699 149.027,163.836 143.402,130.879 C135.523,49.801 159.863,14.629 152.77,119.324 C156.098,129.941 155.805,133.203 180.305,177.809"/>
  <path fill="rgb(98.823529%, 91.372549%, 25.490196%)" d="M334.168,111.379 C321.484,130.871 300.031,146.023 237.594,184.945 C273.52,159.77 302.578,144.805 309.621,120.516 C309.258,113.617 301.297,95.641 247.203,86.91 C346.836,65.418 355.199,69.312 334.168,111.379"/>
  <path fill="rgb(4.313725%, 2.352941%, 47.843137%)" d="M248.246,-8.176 C251.656,27.641 225.27,13.504 213.02,57.449 C211.57,110.109 187.707,46.758 96.684,70.645 C169.281,-70.859 211.312,-28.68 232.699,-19.594 C248.223,-16.793 254.07,-12.004 248.246,-8.176"/>
  <path fill="rgb(92.54902%, 100%, 83.529412%)" opacity="0.998" d="M156.871,174.242 C130.277,199.07 149.965,153.324 122.605,169.184 C105.301,161.23 78.195,171.781 98.078,165.145 C127.957,145.617 137.176,139.152 149.328,137.188 C147.508,144.359 144.625,140.047 156.871,174.242"/>
  <path fill="rgb(100%, 100%, 46.27451%)" opacity="0.184" d="M223.555,92.16 C227.883,92.156 221.453,87.055 301.117,104.289 C272.973,98.414 222.402,108.305 234.523,94.785 C227.582,108.016 209.961,91.352 203.215,91.512 C210.859,98.691 224.953,92.605 223.555,92.16"/>
  <path fill="rgb(98.431373%, 94.901961%, 0.392157%)" opacity="0.986" d="M234.93,43.75 C235.371,36.02 236.895,47.242 225.133,53.441 C211.336,50.246 213.727,31.48 232.469,36.668 C225.023,47.645 228.344,38.309 230.117,36.746 C229.977,29.797 236.316,40.648 234.93,43.75"/>
  <path fill="rgb(38.039216%, 52.941176%, 81.960784%)" opacity="0.632" d="M235.469,227.035 C178.453,220.727 211.625,235.211 208.586,222.234 C235.477,240.887 226.402,204.402 214.77,200.039 C189.172,223.906 200.957,224.969 211.824,232.078 C235.867,224.898 238.91,223.613 235.469,227.035"/>
  <path fill="rgb(27.058824%, 65.098039%, 97.254902%)" opacity="0.95" d="M22.844,3.797 C28.047,15.199 13.078,17.266 -2.328,15.043 C-6.34,10.059 -10.512,6.938 -12.211,0.637 C-10.496,-5.762 -5.809,-10.449 4.512,-17.578 C12.242,-17.801 16.887,-12.797 22.844,3.797"/>
  <path fill="rgb(21.176471%, 26.27451%, 92.156863%)" opacity="0.84" d="M-5.867,-0.285 C-4.586,13.852 -3.496,23.754 9.055,16.559 C4.793,0.473 0.293,-5.293 -4.992,-7.938 C-10.672,-6.008 -5.988,-10.691 -5.676,-17.832 C2.234,-13.934 10.938,-6.031 -5.867,-0.285"/>
  <path fill="rgb(0.392157%, 29.803922%, 44.313725%)" opacity="0.127" d="M350.547,395.547 C338.574,399.406 328.402,396.453 311.371,399.434 C303.734,397.938 305.316,393.477 303.125,385.574 C305.215,359.859 316.059,364.75 327.574,367.703 C331.871,345.883 339.398,347.664 350.547,395.547"/>
  <path fill="rgb(49.411765%, 67.058824%, 61.176471%)" opacity="0.761" d="M238.871,215.492 C237.664,232.422 224.543,241.777 246.453,202.695 C235.629,235.129 224.18,226.574 194.074,228.062 C213.805,209.129 231.656,225.836 205.277,220.664 C232.621,208.012 243.336,201.348 238.871,215.492"/>
  <path fill="rgb(5.490196%, 3.921569%, 50.588235%)" d="M244.434,352.508 C187.16,364.527 240.836,336.973 211.688,371.391 C168.727,363.715 169.371,372.992 176.059,353.051 C177.637,276.547 124.219,241.738 207.129,212.32 C245.961,290.492 259.727,296.512 244.434,352.508"/>
  <path fill="rgb(9.019608%, 10.588235%, 47.45098%)" opacity="0.758" d="M246.023,207.844 C240.094,220.105 238.004,216.352 162.164,228.246 C218.43,246.898 235.793,257.609 263.98,205.191 C225.941,219.789 288.605,232.059 252.594,138.785 C285.707,204.504 240.148,222.586 246.023,207.844"/>
  <path fill="rgb(11.764706%, 26.666667%, 37.254902%)" opacity="0.221" d="M390.906,282.129 C394.516,284.16 367.773,273.039 364.176,284.617 C352.578,279.656 352.137,266.617 313.211,274.43 C319.598,288.355 346.109,274.645 358.848,297.887 C358,288.945 387.711,296.27 390.906,282.129"/>
  <path fill="rgb(5.490196%, 68.627451%, 45.490196%)" opacity="0.763" d="M-2.484,-5.379 C10.125,-1.164 7.145,-3.293 -2.625,-2.176 C-8.305,5.746 -12.164,5.918 -12.691,0.555 C-10.953,-5.832 -6.27,-10.516 -6.371,-13.391 C-7.336,-5.004 -6.805,1.387 -2.484,-5.379"/>
  <path fill="rgb(3.529412%, 25.882353%, 54.901961%)" opacity="0.07" d="M319.527,346.051 C318.973,362.434 327.391,363.883 331.137,342.242 C286.344,321.578 288.641,341.766 313.719,348.727 C284.789,347.438 304.172,337.824 282.047,342.332 C287.012,341.965 282.031,348.816 319.527,346.051"/>
  <path fill="rgb(0%, 43.529412%, 71.764706%)" opacity="0.572" d="M4.477,-17.738 C4.363,-8.715 -8.105,-1.066 -13.395,9.07 C-8.141,10.465 -11.453,5.938 -9.719,-3.23 C-11.043,-5.93 -6.355,-10.617 -3.883,-8.559 C-2.062,-3.574 0.984,3.102 4.477,-17.738"/>
  <path fill="rgb(39.607843%, 56.862745%, 24.313725%)" opacity="0.546" d="M10.32,-3.223 C-1.684,-7.285 -5.578,0.883 -9.086,8.648 C-1.445,5.633 -8.082,3.871 -11.562,-0.371 C-10.633,-6.082 -5.949,-10.766 4.094,-17.277 C8.699,-14.418 8.754,-5.543 10.32,-3.223"/>
  <path fill="rgb(100%, 100%, 0%)" d="M76.805,92 C77.594,117.516 50.344,123.844 33.977,113.219 C29.582,98.559 32.129,91.902 34.191,92.207 C39.863,103.496 22.695,84.938 46.055,71.75 C87.078,65.438 71.113,99.031 76.805,92"/>
  <path fill="rgb(18.039216%, 0.392157%, 0.392157%)" opacity="0.994" d="M1.637,14.395 C18.477,14.207 13.176,12.086 11.309,4.543 C-2.43,5.125 -14.461,9.398 -11.535,-3.406 C-11.004,-5.828 -6.32,-10.512 14.617,-9.121 C20.164,-3.566 23.676,7.477 1.637,14.395"/>
  <path fill="rgb(25.098039%, 39.607843%, 20%)" opacity="0.608" d="M9.602,-11.988 C-0.312,-2.688 -2.246,6.008 -13.199,1.242 C-3.508,7.691 -10.43,5.16 -12.562,0.043 C-10.855,-6.332 -6.168,-11.016 2.633,-16.875 C5.18,-13.129 1.602,0.879 9.602,-11.988"/>
  <path fill="rgb(8.627451%, 10.196078%, 53.72549%)" opacity="0.572" d="M239.594,226.668 C224.766,225.094 216.312,227.648 220.949,233.332 C259.98,227.156 233.176,225.922 213.984,227.352 C209.012,231.867 226.391,241.082 238.59,232.34 C238.852,237.559 239.008,225.484 239.594,226.668"/>
  <path fill="rgb(11.372549%, 16.078431%, 94.509804%)" opacity="0.707" d="M8.242,-7.406 C3.859,-3.359 -4.07,-0.531 -8.27,8.988 C-11.188,16.438 -11.418,8.375 -12.535,0.336 C-10.816,-6.082 -6.133,-10.766 -2.984,-9.863 C1.219,-5.508 5.348,-0.094 8.242,-7.406"/>
  <path fill="rgb(1.176471%, 1.176471%, 29.803922%)" opacity="0.969" d="M209.316,86.746 C120.176,27.105 135.16,113.383 144.715,66.711 C175.301,55.059 133.598,89.402 143.781,138.379 C129.742,82.363 168.504,58.012 146.867,74.328 C172.508,70.645 184.262,58.934 209.316,86.746"/>
  <path fill="rgb(5.490196%, 16.470588%, 17.647059%)" opacity="0.823" d="M139.484,122.664 C161.305,171.234 169.496,202.75 188.629,201.98 C188.191,202.527 182.957,204.562 208.121,226.121 C185.82,206.512 178.227,195.285 164.055,174.746 C170.211,186.117 158.711,185.703 139.484,122.664"/>
  <path fill="rgb(7.843137%, 3.137255%, 43.137255%)" opacity="0.223" d="M135.816,35.465 C139.832,74.125 91.621,81.152 65.137,75.227 C12.184,54.754 31.215,70.754 43.773,28.613 C54.246,38.297 41.406,3.707 77.355,18.754 C118.414,16.41 91.918,4.883 135.816,35.465"/>
  <path fill="rgb(65.490196%, 66.666667%, 61.176471%)" opacity="0.622" d="M6.305,-7.375 C3.977,-3.52 -3.609,-0.277 -10.785,1.113 C-7.5,14.301 -10.625,6.871 -12.285,0.297 C-10.57,-6.105 -5.887,-10.789 0.512,-12.504 C6.504,-10.664 7.348,-2.977 6.305,-7.375"/>
  <path fill="rgb(64.705882%, 61.960784%, 9.019608%)" opacity="0.84" d="M2.621,-10.707 C0.426,-4.715 -5.02,-1.113 -12.777,-0.641 C-5.699,10.871 -10.457,6.84 -12.164,0.426 C-10.449,-5.977 -5.766,-10.66 0.633,-12.375 C7.035,-10.66 11.719,-5.977 2.621,-10.707"/>
  <path fill="rgb(78.039216%, 58.039216%, 73.72549%)" opacity="0.993" d="M-9.035,4.785 C5.008,9.707 11.129,13.824 -12.676,20.445 C-7.898,8.938 -14.121,4.203 -14.328,-1.062 C-10.719,-6.316 -6.031,-11 -0.32,-13.469 C4.535,-13.984 8.773,-11.152 -9.035,4.785"/>
  <path fill="rgb(89.019608%, 99.607843%, 78.823529%)" opacity="0.173" d="M277.688,133.977 C239.711,117.879 280.066,120.016 281.051,129.77 C284.711,128.938 267.082,107.555 273.961,109.125 C273.023,112.926 239.984,93.277 276.219,104.691 C276.91,114.617 287.16,120.617 277.688,133.977"/>
  <path fill="rgb(20.784314%, 38.823529%, 43.137255%)" opacity="0.684" d="M8.672,-3.652 C-1.289,-5.672 -4.578,3.766 -7.254,14.711 C-13.191,18.348 -17.039,13.309 -14.699,4.016 C-10.988,-5.809 -6.305,-10.496 -1.539,-11.582 C1.59,-5.812 5.633,-1.129 8.672,-3.652"/>
  <path fill="rgb(2.352941%, 3.137255%, 48.235294%)" opacity="0.989" d="M167.48,63.09 C201.898,72.977 179.938,68.941 158.469,79.559 C168.812,53.32 163.555,96.262 105.613,113.652 C127.488,38.551 155.059,52.945 172.922,52.676 C187.125,67.445 175.762,74.105 167.48,63.09"/>
  <path fill="rgb(30.588235%, 10.588235%, 24.705882%)" opacity="0.93" d="M183.746,224.77 C163.027,227.684 141.906,225.965 162.773,220.73 C178.609,223.242 170.984,226.109 83.832,221.383 C144.133,230.707 170.676,212.023 197.164,211.965 C217.535,220.523 187.793,226.691 183.746,224.77"/>
  <path fill="rgb(0%, 32.941176%, 46.27451%)" d="M3.176,-8.129 C0.828,-3.215 -5.094,1.504 -9.219,5.891 C-2.43,7.504 -8.773,3.496 -12.461,0.113 C-10.812,-6.066 -6.125,-10.754 -1.461,-11.762 C2.031,-6.426 6.977,-1.652 3.176,-8.129"/>
  <path fill="rgb(27.058824%, 42.745098%, 27.45098%)" opacity="0.59" d="M-0.516,-21.848 C0.039,-2.223 -2.035,4.082 -11.184,10.82 C-6.836,12.195 -10.238,6.566 -10.918,-1.676 C-10.512,-6.324 -5.824,-11.008 4.176,-15.996 C11.328,-15.352 14.887,-10.184 -0.516,-21.848"/>
  <path fill="rgb(36.470588%, 88.235294%, 44.313725%)" opacity="0.896" d="M-8.34,-2.02 C-5.211,11.379 1.602,-2.055 7.441,8.656 C1.293,24.672 -7.902,16.109 -12.441,4.496 C-11.023,-5.977 -6.34,-10.664 -4.441,-18.465 C-5.582,-23.805 -3.586,-25.453 -8.34,-2.02"/>
  <path fill="rgb(30.196078%, 36.470588%, 85.490196%)" opacity="0.77" d="M16.336,-12.656 C18.531,11.344 23.891,11.332 -0.266,24.379 C-19.309,20.609 -31.051,20.324 -29.746,11.121 C-10.559,-5.785 -5.875,-10.469 0.453,-13.547 C6.48,-10.492 10.523,-5.371 16.336,-12.656"/>
  <path fill="rgb(41.176471%, 30.196078%, 72.941176%)" opacity="0.685" d="M1.57,-10.484 C-0.176,-2.969 0.426,7.121 -9.715,6.68 C-4.922,9.129 -10.914,6.969 -12.641,0.609 C-10.926,-5.793 -6.242,-10.477 -2.492,-10.734 C1.812,-5.859 6.402,-0.949 1.57,-10.484"/>
  <path fill="rgb(9.019608%, 52.54902%, 26.27451%)" opacity="0.542" d="M324.883,275.59 C330.121,302.105 332.312,287.211 339.395,284.488 C359.98,286.422 349.121,261.82 311.07,278.672 C285.387,304.02 329.438,297.828 327.355,297.848 C334.23,286.613 335.594,282.629 324.883,275.59"/>
  <path fill="rgb(13.333333%, 60.784314%, 76.470588%)" opacity="0.699" d="M-6.648,-0.375 C1.23,2.789 -5.926,3.531 -15.145,5.016 C-12.875,15.469 -16.543,10.621 -13.672,1.949 C-10.934,-6.344 -6.246,-11.027 -0.891,-13.023 C3.176,-15.023 8.68,-16.711 -6.648,-0.375"/>
  <path fill="rgb(0%, 39.215686%, 40%)" opacity="0.958" d="M274.492,328.191 C248.488,331.262 243.781,368.664 245.383,366.18 C251.047,350.359 257.879,355.082 241.047,367.461 C239.488,344.918 239.328,315.148 274.48,298.508 C303.09,292.324 293.879,326.004 274.492,328.191"/>
  <path fill="rgb(21.176471%, 40.784314%, 67.058824%)" opacity="0.637" d="M2.844,-13.355 C-5.773,-10.48 -5.949,4.602 -3.668,14.594 C-18.926,20.926 -22.145,17.902 -22.145,10.375 C-11.062,-6.141 -6.375,-10.824 4.34,-15.867 C12.75,-16.5 19.773,-14.121 2.844,-13.355"/>
  <path fill="rgb(2.352941%, 26.27451%, 36.078431%)" opacity="0.963" d="M8.172,-9.645 C4.176,-4.473 2.91,6.641 -3.734,14.223 C-8.168,13.523 -9.41,5.938 -11.707,-1.277 C-10.449,-6.328 -5.766,-11.012 0.637,-12.727 C7.035,-11.012 12.09,-6.438 8.172,-9.645"/>
  <path fill="rgb(39.607843%, 35.686275%, 64.313725%)" opacity="0.512" d="M14.535,12.289 C13.023,-3.93 30.43,-2.801 9.969,-5.965 C-21.348,5.059 -23.73,-0.117 -21.172,-7.059 C-10.449,-6.371 -5.766,-11.055 1.488,-22.906 C8.703,-20.352 18.426,-9.754 14.535,12.289"/>
  <path fill="rgb(18.823529%, 70.196078%, 47.45098%)" opacity="0.606" d="M11.258,6.449 C18.559,14.902 18.539,8.176 3.227,-4.516 C-14.473,18.543 -14.824,10.277 -15.32,-1.105 C-10.938,-5.812 -6.25,-10.496 -19.574,1.883 C-16.508,7.488 -11.922,10.23 11.258,6.449"/>
  <path fill="rgb(0%, 55.294118%, 26.666667%)" opacity="0.62" d="M6.168,-13.418 C2.801,-7.457 -1.906,-6.109 -5.242,16.332 C-16.227,19.77 -20.246,16.082 -15.855,4.672 C-10.535,-6.008 -5.852,-10.691 0.57,-12.414 C8.828,-11.508 16.727,-10.641 6.168,-13.418"/>
  <path fill="rgb(2.352941%, 83.137255%, 87.45098%)" opacity="0.702" d="M-1.52,-11.148 C-0.031,2.797 -1.551,13.539 -8.641,12.793 C-0.797,6.289 -8.152,3.156 -12.336,0.395 C-10.66,-5.875 -5.973,-10.559 0.379,-12.262 C4.176,-9.176 6.332,-1.039 -1.52,-11.148"/>
  <path fill="rgb(29.019608%, 40%, 50.980392%)" opacity="0.645" d="M1.062,-14.207 C0.309,-3.418 -6.008,0.652 -14.102,7.324 C-10.82,15.777 -13.043,8.754 -12.707,0.785 C-10.539,-6.234 -5.852,-10.918 1.07,-13.285 C9.758,-14.309 12.359,-7.75 1.062,-14.207"/>
  <path fill="rgb(10.980392%, 9.019608%, 52.54902%)" opacity="0.927" d="M31.289,-16.816 C32.746,18.539 40.02,31.84 2.918,25.074 C-15.738,19.09 -23.59,17.793 -25.941,12.727 C-10.629,-5.918 -5.945,-10.602 0.422,-12.309 C4.551,-9.496 6.387,-1.148 31.289,-16.816"/>
  <path fill="rgb(0%, 7.843137%, 58.039216%)" opacity="0.023" d="M13.16,-19.062 C36.957,-4.133 14.656,10.105 31.695,2.312 C4.305,-1.297 3.324,-12.996 6.883,-21.691 C-10.824,-5.816 -6.137,-10.504 -32.32,2.188 C-25.781,0.238 -18.406,2.828 13.16,-19.062"/>
  <path fill="rgb(2.352941%, 29.803922%, 42.352941%)" opacity="0.091" d="M305.621,350.703 C341.75,352.277 325.449,329 324.148,321.449 C313.723,327.941 304.613,336.738 310.816,332.238 C290.758,326.371 295.477,326.207 298.359,328.441 C297.957,335.332 299.574,343.121 305.621,350.703"/>
  <path fill="rgb(12.156863%, 34.117647%, 31.764706%)" opacity="0.513" d="M8.301,-13.48 C-5.211,-9.391 -4.465,3.164 -10.398,3.859 C-0.766,7.273 -4.566,1.027 -11.336,-3.281 C-10.883,-5.848 -6.195,-10.531 3.578,-14.48 C11.418,-15.273 16.273,-10.82 8.301,-13.48"/>
  <path fill="rgb(41.568627%, 28.627451%, 78.431373%)" opacity="0.275" d="M253.855,200.688 C221.191,207.438 226.23,201.992 223.98,206.723 C234.113,225.156 233.457,199.977 232.828,225.156 C239.434,221.859 246.805,210.879 251.781,209.523 C225.539,216.387 231.348,213.441 253.855,200.688"/>
</svg>

