<svg xmlns="http://www.w3.org/2000/svg" width="384" height="384" viewBox="0 0 384 384">
  <defs/>
  <path fill="rgb(1.176471%, 50.196078%, 46.27451%)" opacity="0.998" d="M420.488,241.688 C410.797,396.84 408.316,401.879 274.055,414.234 C210.852,427.57 205.406,417.871 199.832,236.301 C181.168,171.461 192.84,169.82 259.605,161.391 C471.094,155.309 462.383,155.633 420.488,241.688"/>
  <path fill="rgb(0%, 0%, 18.039216%)" d="M241.879,296.457 C208.652,435.781 198.73,426.996 49.984,405.547 C-6.312,412.941 -11.508,411.582 -46.738,214.445 C-73.086,166.262 -67.016,168.496 270.629,169.172 C315.527,206.594 285.004,194.574 241.879,296.457"/>
  <path fill="rgb(1.568627%, 51.372549%, 45.098039%)" opacity="0.987" d="M408.812,152.551 C391.309,170.73 379.234,159.008 184.391,151.352 C125.098,199.781 130.32,177.938 150.504,89.617 C173.77,-19.75 184.508,-18.496 337.625,-22.477 C383.734,-75.949 392.395,-94.047 408.812,152.551"/>
  <path fill="rgb(3.921569%, 0%, 4.705882%)" opacity="0.769" d="M188.586,151.16 C198.082,170.539 181.812,168.113 66.914,186.133 C-83.543,192.395 -68.754,164.266 -31.551,69.383 C-10.789,-17.727 -4.836,-19.164 38.844,-38.859 C104.082,-25.273 96.035,-0.234 188.586,151.16"/>
  <path fill="rgb(99.215686%, 74.117647%, 32.941176%)" opacity="0.921" d="M204.996,77.137 C218.965,113.035 208.016,118.766 122.605,179.836 C11.5,151.152 42.18,82.773 53.215,-1.117 C44.949,-11.949 53.57,-7.113 100.281,-12.891 C154.949,-28.395 154.523,-40.234 204.996,77.137"/>
  <path fill="rgb(0%, 50.980392%, 49.019608%)" d="M209.551,91.789 C172.535,85.016 166.23,118.789 156.789,111.809 C84.758,89.277 42.766,118.688 79.578,85.805 C104.215,14.344 102.613,2.785 139.957,-22.102 C187.527,-35.652 179.492,-25.086 209.551,91.789"/>
  <path fill="rgb(0%, 52.54902%, 47.058824%)" d="M141.434,18.52 C157.332,65.188 163.293,86.242 82.949,119.516 C27.059,123.738 5.359,118.121 4.629,25.887 C48.238,-16.91 67.68,-8.559 109.898,-17.121 C122.648,1.023 132.828,13.742 141.434,18.52"/>
  <path fill="rgb(4.705882%, 51.372549%, 50.980392%)" opacity="0.22" d="M123.398,0.926 C119.926,8.602 117.238,16.676 116.074,38.223 C95.707,13.832 81.945,22.84 46.75,8.602 C87.926,-13.457 97.477,-12.816 114.109,-10.215 C120.562,-19.855 124.574,-17.027 123.398,0.926"/>
  <path fill="rgb(0.784314%, 51.372549%, 46.27451%)" opacity="0.76" d="M213.453,23.133 C200.992,99.082 157.629,75.422 139.996,45.953 C117.547,21.266 119.828,13.887 115.148,-20.508 C121.773,-12.309 130.438,-15.207 155.016,-36.609 C161.066,-35.91 174.738,-45.973 213.453,23.133"/>
  <path fill="rgb(7.058824%, 50.196078%, 48.235294%)" opacity="0.031" d="M129.742,46.812 C155.75,50.402 146.902,72.973 120.312,84.688 C12.508,121.941 45.18,125.309 122.336,75.773 C97.762,45.129 96.219,47.531 109.254,35.398 C119.891,36.363 127.73,46.828 129.742,46.812"/>
  <path fill="rgb(17.254902%, 43.137255%, 43.921569%)" opacity="0.59" d="M23.656,60.859 C35.664,103.184 44.105,133.137 9.195,145.031 C-9.785,101.758 -8.094,88.609 -2.258,88.992 C-5.793,51.523 -11.246,38.465 5.777,27.289 C25.703,45.871 34.992,45.641 23.656,60.859"/>
  <path fill="rgb(0%, 52.156863%, 50.980392%)" d="M61.492,69.52 C73.465,114.852 105.492,126.121 30.715,166.102 C-22.23,199.809 4.617,162.289 -16.449,65.176 C1.273,51.164 13.641,47.227 29.555,53.785 C34.43,62.016 50.34,60.426 61.492,69.52"/>
  <path fill="rgb(25.098039%, 29.411765%, 12.54902%)" opacity="0.602" d="M16.703,-3.453 C2.613,-3.566 -4.504,-0.602 -11.34,3.293 C-8.852,15.227 -10.785,7.34 -12.289,0.301 C-10.57,-6.105 -5.887,-10.789 -1.027,-11.863 C3.613,-7.906 16.062,-11.102 16.703,-3.453"/>
  <path fill="rgb(100%, 58.823529%, 25.490196%)" d="M297.211,184.973 C224.309,241.441 16.684,217.766 31.984,184.629 C-5.84,138.785 -11.414,177.355 -28.262,160 C-50.918,154.699 -68.715,155.41 29.102,177.457 C156.203,117.805 246.477,26.535 297.211,184.973"/>
  <path fill="rgb(1.176471%, 52.54902%, 48.235294%)" opacity="0.997" d="M71.66,28.73 C57.777,54.988 57.289,70.359 10.809,83.246 C-21.375,63.227 -22.164,60.262 -20.137,21.98 C-10.73,-5.578 -5.473,-10.695 30.004,-29.195 C75.273,-26.82 79.535,-14.676 71.66,28.73"/>
  <path fill="rgb(3.529412%, 59.215686%, 50.980392%)" opacity="0.893" d="M153.418,302.324 C120.379,350.527 107.922,355.5 48.957,402.082 C9.723,401.121 -4.895,397.242 -4.469,363.789 C57.297,301.816 49.789,274.906 59.383,258.746 C103.047,295.203 133.668,278.219 153.418,302.324"/>
  <path fill="rgb(0.784314%, 54.117647%, 45.490196%)" opacity="0.995" d="M184.852,374.742 C165.781,395.309 148.637,393.309 113.719,410.324 C78.559,400.895 67.855,398.93 58.133,372.707 C43.879,313.156 55.566,319.102 115.477,321.836 C152.594,303.633 159.727,316.625 184.852,374.742"/>
  <path fill="rgb(0.392157%, 51.372549%, 46.27451%)" d="M275.637,307.594 C287.621,421.113 256.469,411.988 179.652,413.121 C127.117,386.332 140.266,364.902 141.742,326.336 C144.684,305.109 144.121,295.895 201.359,283.824 C254.93,280.488 266.855,220.148 275.637,307.594"/>
  <path fill="rgb(2.352941%, 52.156863%, 47.45098%)" opacity="0.986" d="M201.926,289.633 C162.129,308.773 157.141,321.23 138.566,350.41 C122.035,349.988 118.277,329.516 106.25,292.348 C106.73,277.93 94.699,280.297 114.047,287.234 C156.613,291.496 203.582,286.277 201.926,289.633"/>
  <path fill="rgb(1.568627%, 52.156863%, 47.45098%)" d="M70.996,286.027 C66.824,321.977 65.414,343.582 -3.664,364.191 C-29.574,335.543 -20.137,310.738 -27.812,261.254 C-35.93,224.117 -80.215,160.582 29.43,123.148 C4.641,215.422 49.359,225.852 70.996,286.027"/>
</svg>

