<svg xmlns="http://www.w3.org/2000/svg" width="384" height="384" viewBox="0 0 384 384">
  <defs/>
  <path fill="rgb(0%, 20.392157%, 25.098039%)" d="M153.199,226.883 C251.137,161.723 265.062,162.027 239.684,398.418 C-120.918,398.645 -85.352,384.691 -30.867,280.605 C-55.535,137.996 -92.793,127.066 63.695,123.305 C132.465,251.105 76.938,232.504 153.199,226.883"/>
  <path fill="rgb(46.27451%, 81.176471%, 45.098039%)" opacity="0.796" d="M18.723,-8.262 C5.355,-2.535 -7.027,-1.473 -24.273,-3.199 C-9.66,15.992 -11.129,8.426 -12.277,0.633 C-10.559,-5.785 -5.875,-10.469 3.324,-14.938 C10.984,-14.496 17.578,-10.91 18.723,-8.262"/>
  <path fill="rgb(0%, 20%, 29.411765%)" opacity="0.999" d="M456.984,228.23 C461.059,363.539 511.691,399.102 230.609,400.219 C246.887,93.965 269.008,225.43 234.133,302.844 C226.984,251.59 183.066,218.219 224.336,152.465 C397.449,58.863 397.055,81.422 456.984,228.23"/>
  <path fill="rgb(66.666667%, 0%, 0%)" opacity="0.69" d="M419.082,41.902 C398.445,158.629 373.621,141.176 320.324,151.719 C293.039,145.484 359.543,106.086 319.523,171.887 C235.496,209.051 193.578,207.605 176.055,-9.027 C426.23,-26.805 427.816,-13.172 419.082,41.902"/>
  <path fill="rgb(1.568627%, 18.823529%, 23.921569%)" opacity="0.972" d="M89.945,229.199 C79.852,188.621 73.562,237.594 105.211,249.133 C90.852,276.383 59.773,229.324 102.941,181.836 C114.801,156.609 33.809,115.746 108.465,107.328 C100.332,165.715 68.258,201.184 89.945,229.199"/>
  <path fill="rgb(98.823529%, 46.666667%, 1.568627%)" opacity="0.964" d="M331.945,259.453 C337.531,300.793 337.426,294.441 309.676,297.66 C281.418,310.926 290.402,284.492 266.77,283.168 C289.891,204.207 292.141,196.773 319.012,187.07 C330.133,214.977 342.656,231.312 331.945,259.453"/>
  <path fill="rgb(100%, 43.921569%, 0%)" d="M318.484,153.25 C339.008,231.453 325.707,194.039 316.617,218.883 C220.57,224.793 224.004,202.125 230.344,192.363 C248.594,145.336 200.699,120.836 279.711,66.957 C335.168,92.938 332.406,116.297 318.484,153.25"/>
  <path fill="rgb(99.215686%, 45.098039%, 0.784314%)" d="M335,232.496 C348.613,236.945 311.211,214.195 285.59,285.09 C284.719,328.102 218.922,254.973 275.66,223.207 C329.926,173.508 258.633,208.551 314.805,216.375 C322.414,161.844 327.129,191.867 335,232.496"/>
  <path fill="rgb(98.823529%, 42.745098%, 0%)" opacity="0.995" d="M328.566,234.672 C329.531,258.57 337.727,278.961 321.5,264.965 C258.219,349.434 308.516,349.102 230.699,298.508 C397.328,290.055 250.984,257.422 297.988,203.621 C340.66,205.723 325.438,201.66 328.566,234.672"/>
  <path fill="rgb(99.215686%, 48.235294%, 0.392157%)" opacity="0.99" d="M477.531,161.98 C380.68,285.633 318.809,288.02 346.773,290.969 C334.797,295.523 350.414,303.035 294.316,301.016 C290.555,291.246 296.43,244.465 330.723,266.93 C416.836,218.102 298.512,112.613 477.531,161.98"/>
  <path fill="rgb(100%, 100%, 92.156863%)" d="M37.727,223.293 C66.301,242.891 83.328,263.293 41.816,282.781 C16.234,267.102 12.387,246.152 6.887,244.477 C-7.043,212.363 -5.695,172.961 35.906,129.398 C80.723,134.719 52.875,171.719 37.727,223.293"/>
  <path fill="rgb(99.215686%, 99.607843%, 90.196078%)" opacity="0.989" d="M48.098,208.391 C53.734,279.074 106.559,269.988 62.793,283.996 C48.012,235.645 38.977,232.746 -1.086,228.773 C3.238,190.746 -13.898,159.617 68.75,134.02 C125.324,177.758 40.098,163.738 48.098,208.391"/>
  <path fill="rgb(100%, 100%, 92.156863%)" d="M90.426,189.672 C208.281,314.578 189.852,325.262 80.914,304.551 C31.609,289.707 39.328,275.535 23.699,267.84 C4.574,225.324 26.852,233.648 25.055,234.008 C141.383,290.566 51.062,280.352 90.426,189.672"/>
  <path fill="rgb(0%, 21.568627%, 25.098039%)" opacity="0.998" d="M232.094,142.875 C159.891,233.039 139.406,183.953 185.809,130.91 C40.234,29.359 -3.578,66.648 -14.57,19.062 C-4.965,-26.289 10.238,-19.805 94.051,-38.582 C199.121,-74.852 243.98,-122.027 232.094,142.875"/>
  <path fill="rgb(0%, 21.176471%, 26.27451%)" d="M129.773,106.25 C79.684,24.301 133.512,186.445 60.23,130.109 C-76.875,202.867 -58.762,164.758 -33.863,112.078 C-12.75,17.605 -7.082,22.672 17.664,39.812 C93.148,46.484 147.094,29.598 129.773,106.25"/>
  <path fill="rgb(29.411765%, 12.54902%, 19.607843%)" opacity="0.234" d="M14.633,253.723 C6.156,238.16 10.297,263.074 27.523,269.703 C6.273,243.816 -12.078,221.148 -6.66,200.098 C-16.637,221.273 17.465,156.305 7.133,163.363 C-13.84,190.914 6.84,241.137 14.633,253.723"/>
  <path fill="rgb(4.313725%, 32.54902%, 32.156863%)" opacity="0.38" d="M12.605,-12.59 C9.289,1.078 -0.199,1.047 -11.047,9.711 C-7.539,12.934 -12.422,8.379 -14.57,2.535 C-10.66,-5.875 -5.973,-10.559 0.547,-12.312 C10.066,-12.672 16.082,-10.309 12.605,-12.59"/>
  <path fill="rgb(48.627451%, 7.45098%, 0%)" opacity="0.807" d="M201.391,303.133 C157.469,311.555 124.84,312.875 123.672,308.203 C115.051,309.355 94.656,303.961 92.148,303.73 C103.508,309.934 143.711,309.98 171.551,306.602 C149.531,307.641 188.473,265.289 201.391,303.133"/>
  <path fill="rgb(11.764706%, 38.039216%, 19.607843%)" opacity="0.909" d="M4.664,-10.656 C0.914,-3.199 -4.508,1.348 -8.766,4.461 C-9.832,15.68 -11.68,8.906 -12.297,0.34 C-10.57,-6.105 -5.887,-10.789 4.48,-15.859 C11.902,-15.598 17.281,-11.418 4.664,-10.656"/>
  <path fill="rgb(21.568627%, 9.019608%, 36.470588%)" opacity="0.175" d="M107.48,306.879 C92.047,307.457 49.664,290.648 42.262,300.086 C53.609,292.738 49.664,288.984 35.902,280.473 C35.938,291.363 42.945,294.344 33.402,290.555 C45.059,292.375 41.289,304.629 107.48,306.879"/>
  <path fill="rgb(0.784314%, 23.529412%, 19.607843%)" opacity="0.25" d="M431.801,352.535 C393.977,395.5 386.57,400.027 341.84,429.566 C287.238,390.184 304.777,352.965 307.598,328.895 C307.129,323.133 286.609,306.184 373.172,320.414 C410.152,317.77 439.277,303.074 431.801,352.535"/>
  <path fill="rgb(0%, 24.313725%, 23.921569%)" opacity="0.417" d="M347.125,372.242 C350.961,391.184 348.59,397.535 265.938,413.34 C231.207,418.984 228.07,421.051 239.062,384.234 C237.684,287.062 226.242,288.164 263.719,334.824 C346.453,306.176 338.129,294.926 347.125,372.242"/>
  <path fill="rgb(0.392157%, 21.960784%, 27.843137%)" opacity="0.994" d="M348.191,317.996 C343.43,356.426 333.426,339.711 336.629,342.684 C290.008,340.516 254.898,359.309 244.746,307.504 C252.531,310.957 269.414,302.07 314.434,305.93 C343.168,286.906 355.055,274.742 348.191,317.996"/>
  <path fill="rgb(0%, 26.27451%, 16.470588%)" opacity="0.405" d="M7.52,-15.672 C8.09,-5.633 -3.98,-0.348 -10.461,1.316 C-8.422,7.926 -15.469,3.324 -20.965,1.039 C-10.812,-6.066 -6.125,-10.754 0.328,-12.484 C9.555,-12.461 15.238,-10.402 7.52,-15.672"/>
  <path fill="rgb(0%, 19.607843%, 28.235294%)" d="M270.82,161.59 C269.402,189.551 264.297,192.523 228.664,190.594 C216.129,218.289 202.098,212.008 184.648,186.387 C204.398,127.891 185.012,106.531 263.102,101.898 C204.082,144.062 246.895,152.309 270.82,161.59"/>
  <path fill="rgb(3.921569%, 17.647059%, 29.019608%)" d="M182.055,138.98 C159.219,160.047 173.879,159.27 163.359,191.582 C111.66,149.164 182.934,156.773 156.672,156.746 C197.41,136.18 200.09,117.578 157.586,111.133 C80.578,85.52 150.633,85.648 182.055,138.98"/>
  <path fill="rgb(9.019608%, 21.568627%, 41.568627%)" opacity="0.614" d="M3.25,-10.711 C0.82,-4.445 -3.738,0.555 -11.035,1.156 C-10.613,16.098 -12.996,10.109 -12.281,0.254 C-10.512,-6.324 -5.824,-11.008 0.574,-12.723 C6.949,-11.004 9.172,-5.098 3.25,-10.711"/>
  <path fill="rgb(89.019608%, 81.960784%, 85.098039%)" opacity="0.865" d="M168.555,235.527 C170.203,247.254 157.602,251.57 138.379,267.215 C144.227,278.594 143.195,265.031 132.824,242.191 C142.27,216.824 151.219,209.105 168.492,220.754 C156.449,220.715 161.566,240.414 168.555,235.527"/>
  <path fill="rgb(100%, 99.215686%, 92.156863%)" opacity="0.986" d="M171.738,255.844 C171.242,283.953 163.152,298.879 131.969,307.41 C128.578,293.219 121.062,277.824 120.945,280.105 C95.695,252.352 60.977,219.887 115.672,111.797 C176.859,208.875 172.5,219.504 171.738,255.844"/>
  <path fill="rgb(100%, 44.705882%, 0%)" opacity="0.992" d="M373.633,270.031 C379.434,265.902 352.043,293.125 363.531,274.52 C365.586,295.199 291.203,322.691 270.184,299.383 C290.277,185.352 351.316,343.559 359.598,191.266 C418.629,136.926 401.582,251.836 373.633,270.031"/>
  <path fill="rgb(3.137255%, 19.607843%, 21.960784%)" opacity="0.828" d="M408.816,122.82 C399.922,140.656 379.062,116.711 343.223,147.039 C345.102,162.527 339.254,155.273 329.668,143.645 C365.543,132.008 367.695,127.535 383.777,97.742 C398.289,90.324 393.527,97.547 408.816,122.82"/>
  <path fill="rgb(1.960784%, 17.647059%, 32.156863%)" d="M169.438,279.809 C167.129,265.492 165.828,277.945 171.121,294.582 C166.191,289.16 155.809,277.039 171.199,282.527 C160.797,202.633 216.094,211.324 130.34,222.02 C135.703,219.91 166.621,220.855 169.438,279.809"/>
  <path fill="rgb(3.529412%, 20.392157%, 29.019608%)" d="M158.508,299.145 C195.297,290.004 189.367,298.32 202.156,295.523 C172.637,269.543 172.082,270.363 151.496,297.062 C167.605,302.371 187.426,286.227 167.062,248.906 C172.469,264.359 156.59,281.09 158.508,299.145"/>
  <path fill="rgb(0%, 20.784314%, 27.843137%)" d="M400.027,98.727 C385.375,149.055 394.387,166.441 328.691,202.918 C312.277,159.137 303.914,156.98 297.738,83.121 C203.781,158.262 186.188,98.047 234.168,-55.926 C450.199,-5.773 420.461,44.328 400.027,98.727"/>
  <path fill="rgb(100%, 40.392157%, 0%)" opacity="0.98" d="M282.527,115.594 C309.305,121.25 309.93,145.148 299.688,128.867 C300.203,97.094 314.77,101.203 299.387,80.586 C262.781,110.539 335.59,49.469 266.988,128.484 C290.816,31.352 299.336,96.863 282.527,115.594"/>
</svg>

