<svg xmlns="http://www.w3.org/2000/svg" width="384" height="384" viewBox="0 0 384 384">
  <defs/>
  <path fill="rgb(0%, 27.45098%, 23.529412%)" opacity="0.994" d="M267.734,211.438 C321.266,392.336 295.879,415.473 130.867,427.648 C-9.809,418.281 -20.02,417.484 -0.988,286.059 C146.039,308.406 95.117,278.105 230.402,254.273 C176.707,236.148 286.016,290.781 267.734,211.438"/>
  <path fill="rgb(0%, 31.764706%, 23.921569%)" opacity="0.972" d="M405.934,351.562 C412.664,385.871 409.832,390.629 315.613,404.676 C229.809,424.684 226.645,422.547 222.133,335.262 C270.742,184.141 243.254,312.305 299.895,290.84 C345.852,237.828 383.547,251.184 405.934,351.562"/>
  <path fill="rgb(0%, 26.27451%, 23.921569%)" d="M289.809,243.098 C208.008,137.82 143.547,199.488 91.211,222.559 C55.129,265.234 -6.82,275.812 61.059,161.422 C68.953,29.293 124.238,-13.266 365.906,-22.531 C420.367,23.367 416.613,22.91 289.809,243.098"/>
  <path fill="rgb(0%, 29.019608%, 25.098039%)" opacity="0.997" d="M67.004,209.336 C65.973,213.633 79.691,250.535 11.68,339.984 C-49.945,333.07 -28.316,305.449 -40.934,96.059 C-116.629,10.957 -141.922,-8.793 190.156,-4.879 C146.051,212.441 10.531,193.434 67.004,209.336"/>
  <path fill="rgb(100%, 50.588235%, 27.45098%)" d="M411.141,250.836 C404.25,299.113 391.418,309.301 323.84,329.605 C303.77,329.668 277.656,355.184 185.535,315.395 C196.863,85.344 104.238,30.523 345.715,34.348 C477.57,129.949 375.953,274.062 411.141,250.836"/>
</svg>

