<svg xmlns="http://www.w3.org/2000/svg" width="384" height="384" viewBox="0 0 384 384">
  <defs/>
  <path fill="rgb(91.764706%, 98.039216%, 0%)" opacity="0.929" d="M225.23,46.18 C222.008,121.301 207.156,95.258 138.605,70.559 C80.992,66.023 86.047,59.234 89.391,5.5 C69.059,-20.016 72.902,-18.617 133.031,-22.41 C203.891,-42.816 223.797,-63.457 225.23,46.18"/>
  <path fill="rgb(90.980392%, 100%, 0%)" opacity="0.987" d="M95.84,23.902 C88.043,74.887 104.121,137.562 1.656,166.078 C-39.094,145.82 -26.293,125.121 -16.016,83.602 C-10.895,-20.527 -5.316,-21.98 15.582,-25.555 C92.441,-21.246 92.699,-10.883 95.84,23.902"/>
  <path fill="rgb(67.843137%, 43.529412%, 2.745098%)" opacity="0.974" d="M393.129,54.336 C398.035,128.496 405.609,145.32 364.844,150.266 C214.453,150.199 207.547,147.191 211.332,118.957 C212.031,-49.852 216.109,-49.125 253.613,-25.145 C385.277,-28.09 393.453,-32.984 393.129,54.336"/>
  <path fill="rgb(91.764706%, 99.215686%, 3.529412%)" d="M278.238,130.355 C273.254,242.234 270.641,277.496 69.492,345.535 C-106.309,323.191 -99.543,326.949 -36.48,259.445 C31.695,41.836 89.941,46.594 137.699,47.562 C201.688,2.434 222.164,-15.336 278.238,130.355"/>
  <path fill="rgb(0%, 8.235294%, 17.254902%)" opacity="0.967" d="M402.152,305.891 C475.301,384.633 483.492,392.09 180.227,394.34 C77.895,414.379 57.414,421.871 24.906,339.578 C245.383,153.188 262.105,122.441 297.652,69.324 C355.637,81.184 350.973,135.633 402.152,305.891"/>
  <path fill="rgb(74.117647%, 40.784314%, 4.705882%)" opacity="0.974" d="M420.93,153.777 C404.438,178.992 400.082,181.484 367.973,182.227 C348.852,166.777 334.023,169.668 292.73,146.828 C319.613,108.203 313.363,124.25 400.105,104.766 C409.727,106.781 407.77,123.652 420.93,153.777"/>
  <path fill="rgb(75.294118%, 43.137255%, 4.313725%)" opacity="0.544" d="M393.918,174.543 C390.898,179.938 398.895,193.094 404.344,235.34 C364.887,195.516 361.359,178.883 353.277,165.266 C356.066,160.75 362.133,150.273 377.105,120.438 C393.023,156.359 393.574,165.621 393.918,174.543"/>
  <path fill="rgb(89.803922%, 97.647059%, 12.54902%)" d="M308.844,156.145 C290.281,206.746 297.227,229.289 282.328,226.832 C241.465,201.973 236.688,188.922 244.484,194.641 C250.184,176.418 270.105,180.934 275.297,165.598 C291.562,132.363 317.629,129.961 308.844,156.145"/>
  <path fill="rgb(91.764706%, 99.607843%, 5.882353%)" d="M394.156,194.188 C423.977,263.301 455.621,319.555 348.953,422.102 C232.023,308.09 266.652,215.48 295.348,196.074 C298.465,146.328 301.43,134.316 312.914,142.391 C341.641,167.094 350.609,172.113 394.156,194.188"/>
  <path fill="rgb(91.372549%, 99.215686%, 2.352941%)" d="M314.98,232.957 C348.305,329.75 382.664,376.094 324.211,413.078 C100.52,394.574 54.734,406.152 45.488,368.191 C244.844,205.734 242.195,185.09 273.258,163.605 C297.293,168.02 317.773,152.207 314.98,232.957"/>
</svg>

