<svg xmlns="http://www.w3.org/2000/svg" width="384" height="384" viewBox="0 0 384 384">
  <defs/>
  <path fill="rgb(3.137255%, 0%, 0%)" d="M321.535,7.301 C279.547,115.754 247.359,101.43 187.984,118.34 C128.984,106.23 60.371,139.195 104.691,60.012 C142.133,23.355 159.445,9.082 226.074,6.816 C255.637,2.449 302.832,-1.152 321.535,7.301"/>
  <path fill="rgb(0.392157%, 5.882353%, 0%)" d="M329.426,83.859 C266.215,134.105 251.141,121.195 214.758,134.516 C189.082,127.449 200.863,108.418 169.258,54.41 C173.969,46.004 201.141,56.023 254.168,20.258 C254.172,32.426 292.863,48.371 329.426,83.859"/>
  <path fill="rgb(0%, 0%, 0%)" d="M409.766,259.559 C398.586,417.445 390.988,413.785 270.215,414.715 C119.879,480.875 85.238,544.754 114.539,375.457 C230.855,241.898 197.367,201.211 290.477,223.141 C449.316,221.52 442.844,212.734 409.766,259.559"/>
  <path fill="rgb(2.352941%, 0%, 1.568627%)" d="M427.059,188.113 C396.246,246.387 388.656,251.816 359.273,232.902 C177.391,233.441 218.547,166.094 224.555,121.176 C241.789,84.191 214.312,51.242 348.336,65.902 C391.914,71.234 336.293,23.383 427.059,188.113"/>
  <path fill="rgb(0%, 1.176471%, 2.352941%)" opacity="0.684" d="M337.582,214.34 C359.852,297.613 377.266,327.656 11.613,383.777 C-39.078,342.738 -17.402,316.359 11.16,206.594 C87.117,56.621 -35.918,148.227 146.543,60.422 C233.555,55.461 231.777,73.84 337.582,214.34"/>
  <path fill="rgb(0%, 0%, 30.196078%)" opacity="0.092" d="M349.285,274.523 C382.238,290.438 361.723,291.5 233.375,309.266 C221.203,282.027 220.484,299.316 235.047,280.375 C227.023,224.668 231.105,206.383 275.418,194.027 C284.305,194.77 288.168,213.91 349.285,274.523"/>
  <path fill="rgb(3.921569%, 49.019608%, 67.058824%)" opacity="0.934" d="M350.344,108.664 C352.539,205.234 409.449,236.281 332.957,256.785 C202.051,70.582 138.957,150.199 145.129,50.41 C162.297,12.555 172.734,17.797 226.035,16.062 C265.754,11.312 279.965,-14.812 350.344,108.664"/>
  <path fill="rgb(63.921569%, 21.568627%, 21.960784%)" opacity="0.666" d="M399.387,299.293 C365.695,308.648 328.086,304.191 260.016,316.051 C196.281,315.438 202.719,321.227 201.387,290.777 C233.297,296.785 274.004,291.75 343.441,286.047 C367,254.094 366.629,243.5 399.387,299.293"/>
  <path fill="rgb(79.607843%, 28.627451%, 12.54902%)" opacity="0.424" d="M201.355,363.148 C220.184,372.52 198.684,367.41 80.418,389.031 C2.605,294.484 6.07,438.949 1.918,299.93 C69.949,305.484 139.906,305.07 152.508,226.555 C187.922,226.039 202.871,254.934 201.355,363.148"/>
  <path fill="rgb(8.235294%, 43.137255%, 58.039216%)" opacity="0.985" d="M329.035,246.859 C248.727,116.367 225.422,204.762 112.488,231.172 C235.895,163.23 139.465,171.93 86.109,166.117 C109.762,53.539 137.535,22.738 185.445,15.59 C135.824,110.023 218.598,96.898 329.035,246.859"/>
  <path fill="rgb(44.313725%, 92.941176%, 24.313725%)" opacity="0.975" d="M372.816,377.109 C373.574,399.234 358.719,398.094 333.621,416.809 C313.477,412.148 315.797,402.84 306.594,354.23 C291.012,326.715 287.383,305.859 293.492,306.551 C351.559,326.305 347.211,344.461 372.816,377.109"/>
  <path fill="rgb(44.705882%, 97.254902%, 21.176471%)" opacity="0.917" d="M272.574,374.367 C272.594,434.109 261.188,421.285 245.453,413.293 C215.5,400.141 210.984,402.805 202.574,381.789 C181.559,316.203 200.715,325.68 208.082,313.852 C248.602,319.695 257.047,332.031 272.574,374.367"/>
  <path fill="rgb(40.784314%, 91.372549%, 20.784314%)" d="M402.02,344.512 C394.363,387.984 388.461,393.805 365.848,405.723 C334.457,369.121 349.195,342.949 299.926,314.844 C279.211,311.809 309.82,304.766 382.961,300.988 C377.141,267.324 381.543,288.477 402.02,344.512"/>
  <path fill="rgb(43.529412%, 87.058824%, 25.490196%)" opacity="0.987" d="M212.719,383.859 C222.969,399.461 217.102,396.152 191.027,399.223 C143.223,407.762 47.883,473.023 -40.023,345.57 C83.391,327.816 130.316,330.27 194.191,329.832 C210.711,321.488 205.211,317.77 212.719,383.859"/>
  <path fill="rgb(40.784314%, 89.803922%, 23.921569%)" opacity="0.984" d="M317.59,360.281 C320.547,410.438 325.18,420.25 271.938,421.766 C237.984,417.109 250.855,400.609 215.695,337.633 C202.086,307.004 193.723,314.645 251.004,312.273 C346.738,303.207 316.941,304.863 317.59,360.281"/>
  <path fill="rgb(4.705882%, 47.058824%, 61.176471%)" opacity="0.957" d="M406.539,116.52 C383.359,140.305 406.867,173.613 376.441,221.727 C321.23,195.199 341.703,167.555 342.586,135.703 C351.992,115.719 355.473,111.137 368.129,87.789 C392.43,102.508 401.461,103.684 406.539,116.52"/>
  <path fill="rgb(4.705882%, 45.098039%, 59.607843%)" d="M384.844,85.047 C355.277,135.426 343.785,138.977 335.34,155.312 C325.445,125.934 319.312,111.148 282.332,59.469 C258.41,10.566 223.535,6.832 333.965,12.852 C386.48,42.465 373.93,44.895 384.844,85.047"/>
  <path fill="rgb(0.784314%, 44.313725%, 57.647059%)" opacity="0.963" d="M405.008,100.098 C409.418,117.258 402.668,112.43 374.887,115.008 C374.652,119.227 374.242,113.844 376.633,67.797 C363.387,52.695 361.184,69.008 374.195,55.453 C387.645,76.469 401.715,89.398 405.008,100.098"/>
  <path fill="rgb(1.960784%, 45.490196%, 62.745098%)" opacity="0.993" d="M387.863,127.035 C403.539,159.707 438.125,215.707 353.562,277.074 C315.68,183.027 318.621,174.188 320.328,126.191 C326.578,137.953 332.777,122.051 340.52,95.828 C372.883,95.176 379.137,99.336 387.863,127.035"/>
  <path fill="rgb(69.411765%, 92.941176%, 26.27451%)" opacity="0.761" d="M12.559,-12.453 C1.375,-3.039 -6.41,-1.469 -13.543,2 C-2.629,5.668 -10.344,5.234 -13.082,0.438 C-10.719,-6.316 -6.031,-11 8.457,-21.172 C13.355,-18.105 15.484,-10.93 12.559,-12.453"/>
  <path fill="rgb(100%, 62.352941%, 0%)" d="M274.836,187 C260.945,151.449 256.262,162.641 257.465,270.223 C257.188,363.211 192.395,240.289 149.48,244.582 C237.145,190.902 252.578,169.516 261.113,126.02 C257.449,162.934 256.27,186.297 274.836,187"/>
  <path fill="rgb(33.72549%, 90.980392%, 12.54902%)" opacity="0.877" d="M43.09,346.051 C13.367,350.234 13.918,327.59 16.324,388.352 C-12.043,393.289 -4.051,376.191 -15.695,340.719 C-40.957,320.082 -51.285,282.727 26.891,272.219 C50.777,304.961 52.656,337.172 43.09,346.051"/>
  <path fill="rgb(100%, 61.960784%, 0%)" d="M219.203,264.816 C202.715,235.852 242.871,321.734 188.898,324.238 C183.309,303.043 171.836,297.754 164.746,299.402 C131.727,297.309 125.977,242.621 187.18,236.715 C205.266,276.609 225.484,293.438 219.203,264.816"/>
  <path fill="rgb(11.372549%, 63.529412%, 85.098039%)" opacity="0.549" d="M171.688,209.719 C169.871,231.824 154.848,244.363 166.59,239.941 C138.133,253.672 141.887,281.434 137.363,230.668 C151.012,230.266 173.457,193.992 220.605,138.156 C237.211,149.969 205.578,171.258 171.688,209.719"/>
  <path fill="rgb(25.882353%, 59.215686%, 7.843137%)" opacity="0.532" d="M45.551,291.465 C-36.879,266.289 -17.891,297.074 53.316,304.633 C130.633,293.719 63.414,325.082 39.656,284.02 C99.129,297.461 68.004,310.039 29.836,298.914 C81.543,297 119,288.785 45.551,291.465"/>
  <path fill="rgb(2.745098%, 0%, 4.313725%)" opacity="0.589" d="M193.598,10.477 C121.465,24.672 112.047,64.512 76.094,118.289 C92.785,47.461 111.426,88.848 95.457,51.531 C125.508,54.211 112.715,34.207 98.93,39.188 C123.352,28.684 138.359,19.68 193.598,10.477"/>
  <path fill="rgb(3.529412%, 43.529412%, 64.705882%)" opacity="0.986" d="M416.203,254.367 C395.145,274.941 396.422,291.473 397.422,285.273 C358.203,264.066 331.555,277.559 306.633,244.254 C350.859,228.578 358.707,224.773 379.281,225.172 C399.039,228.867 394.281,223.18 416.203,254.367"/>
  <path fill="rgb(0.392157%, 47.058824%, 64.705882%)" opacity="0.941" d="M55.852,303.379 C74.996,260.184 39.336,245.879 46.285,309.613 C5.574,290.504 -29.766,273.781 -15.539,251.898 C38.715,252.758 12.266,223.27 80.828,156.578 C71.168,299.281 29.816,280.031 55.852,303.379"/>
  <path fill="rgb(0%, 44.705882%, 66.27451%)" d="M173.602,244.184 C105.043,303.832 57.746,321.156 64.137,312.176 C56.516,290.359 54.227,274.488 70.797,282.035 C92.68,280.469 83.129,301.887 103.719,155.164 C282.738,61.52 276.094,160.23 173.602,244.184"/>
  <path fill="rgb(60%, 91.764706%, 91.372549%)" opacity="0.652" d="M6.438,-6.496 C1.887,-2.637 -3.293,1.68 -11.766,3.75 C-4.762,9.02 -10.805,6.914 -12.539,0.582 C-10.824,-5.816 -6.137,-10.504 1.332,-13.477 C7.383,-11.426 10.945,-5.547 6.438,-6.496"/>
  <path fill="rgb(2.745098%, 46.666667%, 60%)" opacity="0.998" d="M135.004,25.012 C62.699,147.117 107.199,153.102 65.875,186.824 C35.574,167.359 45.504,143.684 45.898,119.371 C58.109,72.637 45.488,80.07 47.742,67.523 C44.027,86.898 93.059,28.172 135.004,25.012"/>
  <path fill="rgb(0.392157%, 46.666667%, 59.607843%)" opacity="0.558" d="M46.27,176.852 C58.344,267.402 94.531,209.551 51.297,296.035 C47.312,236.766 55.125,212.766 49.312,183.074 C38.652,200.637 21.914,158.77 79.648,167.66 C58.078,205.914 -3.465,273.918 46.27,176.852"/>
  <path fill="rgb(9.019608%, 56.470588%, 55.686275%)" opacity="0.835" d="M11.465,-4.145 C0.496,-4.562 -2.004,2.82 -13.754,6.137 C3.422,6.051 -1.336,5.641 -8.953,2.586 C-10.934,-6.344 -6.246,-11.027 0.121,-12.734 C3.93,-9.453 6.738,-1.988 11.465,-4.145"/>
  <path fill="rgb(3.921569%, 48.627451%, 60%)" opacity="0.631" d="M330.531,78.055 C315.465,65.453 282.746,-22.516 192.707,22.285 C219.098,113.148 262.031,170.676 99.191,135.305 C130.828,-16.129 238.207,19.695 181.391,24.902 C217.797,16.727 260.422,27.25 330.531,78.055"/>
  <path fill="rgb(41.568627%, 89.411765%, 20.392157%)" opacity="0.981" d="M217.355,310.578 C255.742,345.359 89.113,389.551 48.223,373.008 C7.219,351.219 -2.039,367.191 2.371,326.652 C26.543,370.148 39.445,308.625 45.582,331.262 C97.949,315.199 140.836,319.43 217.355,310.578"/>
  <path fill="rgb(9.803922%, 40%, 61.568627%)" opacity="0.313" d="M390.238,92.355 C370.215,93.934 366.203,93.27 357.824,88.348 C363.23,99.137 373.715,83.664 362.734,53.086 C360.34,44 364.219,37.723 371.93,54.023 C379.684,64.34 385.422,63.129 390.238,92.355"/>
  <path fill="rgb(38.431373%, 89.411765%, 17.647059%)" opacity="0.764" d="M44.652,337.223 C45.066,367.637 43.871,376.062 36.301,359.227 C30.129,384.254 -6.676,362.734 -13.684,380.078 C-17.844,303.816 -52.297,280.211 28.781,269.066 C41.914,312.102 42.867,364.027 44.652,337.223"/>
  <path fill="rgb(42.352941%, 5.882353%, 56.470588%)" opacity="0.919" d="M6.766,-10.812 C-5.465,-7.664 -5.094,6.809 -4.305,17.926 C0.344,5.211 -1.809,-1.984 -8.285,-3.777 C-10.539,-6.234 -5.852,-10.918 -0.871,-11.742 C8.859,-14.348 14.477,-10.133 6.766,-10.812"/>
  <path fill="rgb(100%, 100%, 95.686275%)" opacity="0.988" d="M46.168,117.961 C46.301,94.992 46.809,138.949 19.312,159.199 C-49.984,159.609 -14.914,156.383 28.828,124.57 C68.84,91.766 41.254,81.316 46.871,65.223 C75.855,65.297 56.176,106.758 46.168,117.961"/>
  <path fill="rgb(48.235294%, 29.411765%, 9.411765%)" opacity="0.793" d="M5.66,-20.32 C1.504,-6.172 -2.531,5.723 -12.539,10.18 C-10.973,25.766 -16.422,16.906 -15.523,3.945 C-10.66,-5.875 -5.973,-10.559 3.613,-14.281 C12.855,-16.461 16.082,-11.703 5.66,-20.32"/>
  <path fill="rgb(41.176471%, 21.176471%, 38.039216%)" opacity="0.982" d="M215.336,313.223 C191.273,312.332 174.156,317.031 178.078,308.938 C175.328,317.828 160.16,316.543 166.402,305.531 C167.77,296.812 177.652,300.828 191.703,298.465 C231.09,297.578 219.664,314.574 215.336,313.223"/>
  <path fill="rgb(100%, 53.333333%, 0%)" d="M381.035,270.75 C429.641,315.082 420.25,343.219 384.777,288.344 C325.367,291.66 324.898,284.418 308.453,276.289 C284.449,258.125 245.688,203.633 308.223,219.93 C338.301,251.852 361.383,266.957 381.035,270.75"/>
  <path fill="rgb(100%, 46.27451%, 0%)" d="M266.375,197.43 C269.129,217.27 268.977,247.379 324.047,236.027 C292.164,199.633 279.641,192.473 254.02,135.594 C252.375,94.805 256.391,167.863 269.695,211.238 C283.883,203.551 267.219,168.906 266.375,197.43"/>
  <path fill="rgb(0%, 0%, 0.392157%)" d="M50.68,2.375 C14.453,8.617 12.887,11.527 6.68,48.047 C-30.082,50.074 -38.973,49.34 -38.234,36.41 C-10.57,-6.105 -5.887,-10.789 16.586,-26.438 C35.984,-42.496 38.559,-34.75 50.68,2.375"/>
  <path fill="rgb(42.745098%, 78.823529%, 5.098039%)" opacity="0.846" d="M42.324,126.148 C-12.852,296.215 6.047,170.234 60.043,323.676 C-84.426,302.141 -30.562,249.41 -3.078,221.852 C42.055,220.18 29.789,212.316 21.121,174.641 C-10.336,246.004 -11.266,256.852 42.324,126.148"/>
  <path fill="rgb(13.333333%, 22.745098%, 7.058824%)" opacity="0.217" d="M11.961,4.191 C6.598,-3.188 -6.805,13.344 -1.352,17.238 C12.512,8.32 -0.125,0.246 -4.305,-9.496 C-10.535,-6.008 -5.852,-10.691 -6.496,-12.469 C-4.344,-12.031 3.922,3.555 11.961,4.191"/>
  <path fill="rgb(32.54902%, 25.882353%, 36.078431%)" opacity="0.127" d="M14.125,7.254 C6.406,17.266 5.152,22.637 10.996,18.094 C6.809,-1.188 -5.008,-3.25 -7.363,-6.531 C-10.629,-5.918 -5.945,-10.602 -2.418,-9.883 C5.645,-10.254 10.711,-6.176 14.125,7.254"/>
  <path fill="rgb(37.647059%, 89.411765%, 12.156863%)" opacity="0.603" d="M37.477,365.039 C36.055,360.668 37.816,366.898 37.039,368.863 C52.613,356.461 44.594,323.586 40.113,329.344 C28.844,341.992 26.363,315.332 30.285,264.133 C66.836,312.207 62.609,316.336 37.477,365.039"/>
  <path fill="rgb(95.686275%, 42.745098%, 22.352941%)" opacity="0.983" d="M401.684,87.195 C399.594,100.312 387.23,104.324 398.871,84.164 C387.066,78.535 385.633,73.848 379.875,54.52 C371.359,49.738 368.32,40.133 387.922,86.789 C397.059,71.312 401.109,71.305 401.684,87.195"/>
  <path fill="rgb(17.254902%, 32.54902%, 68.627451%)" opacity="0.407" d="M17.16,231.551 C31.738,232.324 40.734,236.004 29.555,249.098 C20.84,242.586 11.621,228.23 22.828,227.258 C12.383,225.145 11.457,217.418 32.109,198.043 C41.934,235.426 22.082,232.113 17.16,231.551"/>
  <path fill="rgb(64.705882%, 69.411765%, 37.647059%)" opacity="0.411" d="M4.355,-11.051 C0.066,-2.688 -4.309,-1.438 -15.223,0.02 C-3.93,7.883 -10.762,6.562 -12.527,0.332 C-10.812,-6.066 -6.125,-10.754 0.75,-14.832 C7.957,-15.219 14.027,-11.582 4.355,-11.051"/>
  <path fill="rgb(0.784314%, 40.392157%, 50.196078%)" opacity="0.212" d="M133.672,273.84 C135.777,260.492 137.707,263.68 121.477,290.914 C82.898,296.891 105.051,296.574 122.441,291.816 C123.719,274.68 132.938,270.855 135.617,269.559 C134.363,272.969 134.629,289.656 133.672,273.84"/>
  <path fill="rgb(0%, 32.941176%, 59.215686%)" opacity="0.835" d="M215.77,195.699 C222.461,188.852 216.238,185.559 214.695,189.457 C211.445,200.207 214.301,203.512 139.809,270.871 C204.965,214.832 226.133,210.141 263.656,128.758 C223.934,139.309 176.062,221.926 215.77,195.699"/>
  <path fill="rgb(62.352941%, 58.431373%, 32.156863%)" opacity="0.005" d="M74.887,310.328 C28.887,312.562 23.129,292.953 36.027,303.117 C83.246,320.301 129.363,291.398 117.473,294.941 C98.457,299.984 102.609,300.93 91.316,294.688 C86.859,324.598 109.344,303.645 74.887,310.328"/>
  <path fill="rgb(4.313725%, 33.333333%, 2.352941%)" opacity="0.944" d="M3.84,-13.609 C2.82,-6.965 -2.035,3.238 -11.949,12.785 C-1.012,5.18 -6.574,0.871 -10.113,-2.465 C-10.461,-5.922 -5.777,-10.605 4.93,-16.242 C11.461,-15.301 12,-9.164 3.84,-13.609"/>
  <path fill="rgb(9.803922%, 42.745098%, 61.568627%)" opacity="0.854" d="M50.102,284.57 C53.41,272.469 58.41,266.012 51.523,287.477 C37.465,271.277 42.988,278.352 27.855,251.688 C35.73,241.777 52.043,255.363 59.129,256.859 C54.102,266.109 55.977,283.082 50.102,284.57"/>
  <path fill="rgb(98.823529%, 11.764706%, 0%)" opacity="0.985" d="M68.258,79.969 C38.004,123.039 11.898,127.934 7.949,142.938 C15.922,134.578 8.043,149.793 -20.289,170.824 C12.871,131.738 20.688,140.348 33.73,115.566 C31.094,128.609 21.488,122.934 68.258,79.969"/>
  <path fill="rgb(12.941176%, 16.470588%, 25.098039%)" opacity="0.427" d="M-3.074,-3.965 C-1.008,3.922 -3.461,7.656 -8.082,7.574 C-1.199,6.887 -7.184,2.812 -12.027,0 C-10.449,-5.977 -5.766,-10.66 -1.824,-12.605 C3.43,-13.477 5.836,-7.77 -3.074,-3.965"/>
  <path fill="rgb(25.490196%, 12.54902%, 1.176471%)" opacity="0.682" d="M44.434,284.41 C49.781,318.105 47.996,344.031 57.391,279.449 C44.543,288.445 59.227,275.133 59.816,280.852 C54.895,330.383 68.484,296.293 86.574,162.141 C60.277,308.773 58.043,311.188 44.434,284.41"/>
  <path fill="rgb(66.27451%, 68.627451%, 47.45098%)" opacity="0.602" d="M-0.91,-13.68 C-2.172,-5.383 -4.973,-0.805 -12.094,2.234 C-1.977,6.777 -10.875,6.328 -12.758,0.469 C-11.043,-5.93 -6.355,-10.617 0.031,-12.328 C5.102,-10.098 6.461,-1.77 -0.91,-13.68"/>
  <path fill="rgb(3.137255%, 45.882353%, 62.352941%)" d="M57.914,174.668 C31.473,189.086 29.234,191.207 55.168,164.023 C66.52,195.078 67.996,217.727 8.027,221.32 C24.754,163.645 28.754,161.203 31.551,152.934 C60.301,145.891 62.723,157.277 57.914,174.668"/>
  <path fill="rgb(64.705882%, 34.509804%, 44.705882%)" opacity="0.864" d="M5.176,-8.773 C2.266,-2.445 -2.84,1.906 -9.078,3.715 C-1.965,6.828 -10.039,5.25 -12.344,0.301 C-10.633,-6.082 -5.949,-10.766 -0.5,-12.078 C2.477,-6.828 6.809,-1.391 5.176,-8.773"/>
  <path fill="rgb(88.235294%, 16.078431%, 21.176471%)" opacity="0.863" d="M160.902,254.648 C142.402,268.566 111.539,284.102 127.562,294.043 C97.238,303.258 65.551,314.297 95.758,304.301 C111.199,296.375 109.824,274.613 136.48,296.016 C80.992,297.734 123.652,289.016 160.902,254.648"/>
  <path fill="rgb(100%, 60.392157%, 0.784314%)" opacity="0.997" d="M166.879,297.023 C174.527,301.328 158.09,297.578 107.293,299.176 C93.16,304.395 80.828,307.359 105.039,297.176 C115.391,286.344 117.48,287.125 144.59,268.156 C167.875,262.441 160.332,269.438 166.879,297.023"/>
  <path fill="rgb(0.784314%, 47.45098%, 57.647059%)" opacity="0.213" d="M51.48,207.344 C51.18,174.328 40.496,183.523 32.074,196.867 C31.105,208.902 37.438,203.445 34.902,216.691 C51.461,182.238 45.98,182.191 30.34,172.168 C4.184,221.871 22.113,256.266 51.48,207.344"/>
  <path fill="rgb(17.647059%, 34.117647%, 72.156863%)" opacity="0.138" d="M44.254,189.176 C38.355,176.891 42.891,226.316 22.977,214.043 C42.309,202.355 32.109,204.016 45.258,189.492 C4.145,254.484 -2.414,221.906 20.316,183.805 C36.758,202.605 47.07,222.066 44.254,189.176"/>
  <path fill="rgb(3.529412%, 12.156863%, 26.666667%)" opacity="0.791" d="M7.074,-4.07 C7.086,-3.348 -8.422,-0.734 -27.629,1.289 C-4.32,9.996 -11.273,6.457 -15.016,2.098 C-10.559,-5.785 -5.875,-10.469 -1.727,-12.957 C1.461,-8.516 6.969,-2.477 7.074,-4.07"/>
  <path fill="rgb(32.54902%, 31.764706%, 60%)" opacity="0.701" d="M5.504,-10.262 C-0.879,-6.859 -6.766,-2.871 -12.797,2.508 C-0.504,5.785 -7.82,2.473 -12.262,0.176 C-10.512,-6.324 -5.824,-11.008 0.574,-12.723 C6.77,-10.949 7.012,-2.586 5.504,-10.262"/>
  <path fill="rgb(20.392157%, 66.666667%, 27.45098%)" opacity="0.238" d="M4.496,-21.484 C4.945,-10.941 -3.871,-1.645 -16.441,3.703 C-7.102,8.535 -11.215,3.371 -13.609,-1.344 C-11.062,-6.141 -6.375,-10.824 0.008,-12.535 C4.281,-9.82 6.441,-1.699 4.496,-21.484"/>
  <path fill="rgb(0.392157%, 46.27451%, 59.607843%)" opacity="0.329" d="M50.133,186.242 C77.59,182.051 72.359,176.551 69.621,214.984 C69.996,175.137 76.25,173.305 73.016,173.414 C59.906,184.816 65.988,175.969 80.781,152.012 C66.426,132.926 40.285,155.914 50.133,186.242"/>
</svg>

