<svg xmlns="http://www.w3.org/2000/svg" width="384" height="384" viewBox="0 0 384 384">
  <defs/>
  <path fill="rgb(31.764706%, 25.098039%, 21.568627%)" opacity="0.964" d="M241.992,22.633 C230.262,68.246 215.945,67.453 40.602,206.605 C-15.016,230.512 -37.742,224.648 -41.785,30.449 C3.188,-108.477 40.52,-57.988 171.578,-23.188 C262.305,-9.293 261.953,2.551 241.992,22.633"/>
  <path fill="rgb(21.960784%, 22.352941%, 24.705882%)" opacity="0.901" d="M430.078,227.59 C398.91,281.371 380.109,274.621 297.031,299.254 C62.789,275.676 65.285,294.02 63.121,217.824 C149.141,64.93 206.531,85.914 250.711,64.973 C305.035,59.398 380.391,23.047 430.078,227.59"/>
  <path fill="rgb(26.666667%, 30.196078%, 32.54902%)" opacity="0.938" d="M392.355,100.574 C399.672,205.422 402.469,222.23 357.27,231.691 C219.141,105.332 214.711,97.293 222.543,56.691 C221.801,9.789 216.316,-8.895 306.812,-22.648 C378.855,-42.496 391.633,-56.82 392.355,100.574"/>
  <path fill="rgb(99.607843%, 98.431373%, 100%)" opacity="0.113" d="M390.023,318.031 C387.09,535.988 355.906,470.578 184.039,412.688 C19.613,469.023 -7.215,524.371 -19.016,225.922 C-21.566,180.203 -16.195,175.953 117.758,160.797 C320.191,226.117 334.887,225.793 390.023,318.031"/>
  <path fill="rgb(32.941176%, 56.078431%, 65.882353%)" opacity="0.444" d="M259.559,83.754 C248.625,103.449 240.082,108.918 124.848,194.809 C59.965,201.492 48.562,211.539 51.199,199.977 C141.039,33.133 181.379,51.598 220.879,52.328 C234.809,33.215 241.832,44.848 259.559,83.754"/>
  <path fill="rgb(29.803922%, 37.254902%, 41.176471%)" opacity="0.985" d="M232.324,365.309 C240.07,416.203 222.414,408.602 184.602,410.457 C146.078,409.531 137.434,407.887 132.816,389.699 C137.105,343.434 139.324,321.793 181.254,301.246 C228.68,311.375 232.285,318.328 232.324,365.309"/>
  <path fill="rgb(29.019608%, 38.039216%, 36.470588%)" d="M183.625,366.938 C154.383,392.461 153.109,399.586 131.074,404.496 C71.008,417.617 47.031,426.215 35.719,382.789 C98.664,348.543 114.824,343.34 169.891,305.875 C205.098,264.883 199.312,290.008 183.625,366.938"/>
  <path fill="rgb(36.470588%, 34.117647%, 38.823529%)" opacity="0.972" d="M384.605,387.59 C372.711,410.84 344.98,401.629 293.359,400.879 C249.09,391.242 256.172,384.992 242.66,343.371 C232.523,309.223 232.137,291.723 249.754,272.789 C291.645,325.23 304.961,334.074 384.605,387.59"/>
  <path fill="rgb(33.72549%, 43.921569%, 44.313725%)" opacity="0.973" d="M285.504,351.312 C307.504,377.312 309.613,395.48 275.508,407.559 C213.09,401.504 214.363,396.238 209.492,351.324 C196.953,300.66 203.566,308.539 244.613,308.59 C266.27,319.613 270.125,317.656 285.504,351.312"/>
  <path fill="rgb(73.333333%, 34.117647%, 27.45098%)" opacity="0.588" d="M255.109,283.328 C244.387,329.246 232.504,329.523 223.902,344.707 C193.742,309.355 112.785,294.164 6.781,344.281 C52.07,172.312 80.051,283.621 266.785,222.73 C263.465,285.199 274.734,288.098 255.109,283.328"/>
  <path fill="rgb(4.313725%, 89.019608%, 98.431373%)" opacity="0.989" d="M283.059,4.285 C222.43,66.086 213.496,76.957 199.223,73.223 C202.109,86.219 190.109,71.984 91.812,89.668 C44.762,-13.609 57.176,-21.965 167.707,-44.633 C282.676,-39.207 301.754,-33.496 283.059,4.285"/>
  <path fill="rgb(46.27451%, 60.392157%, 61.960784%)" opacity="0.619" d="M235.805,79.27 C246.547,117.621 248.301,120.742 233.109,119.742 C163.051,126.156 159.895,121.609 163.355,119.137 C198.887,67.68 221.887,75.355 232.398,72.711 C236.52,64.109 243.969,59.258 235.805,79.27"/>
  <path fill="rgb(1.176471%, 90.588235%, 96.470588%)" opacity="0.994" d="M220.707,68 C234.234,114.531 222.75,132.133 130.102,126.953 C119.934,104.891 143.836,98.371 115.527,79.941 C130.484,43.25 145.918,59.055 185.938,45.895 C195.398,45.461 207.926,54.938 220.707,68"/>
  <path fill="rgb(5.098039%, 87.058824%, 98.039216%)" opacity="0.991" d="M291.973,117.918 C271.094,134.012 264.492,95.52 263.137,133.363 C239.758,107.473 230.984,100.02 219.223,84.441 C212.891,42.648 196.91,6.715 325.109,-25.75 C378.258,69.273 303.492,-2.234 291.973,117.918"/>
  <path fill="rgb(5.490196%, 88.627451%, 96.862745%)" opacity="0.994" d="M286.793,140.133 C260.637,174.887 253.812,213.387 226.766,298.688 C155.289,170.895 189.508,175.41 178.598,118.652 C140.094,118.453 152.66,70.969 183.586,54.203 C225.422,58.992 236.25,71.277 286.793,140.133"/>
  <path fill="rgb(48.627451%, 44.705882%, 36.078431%)" opacity="0.963" d="M148.754,303.297 C0.953,343.242 -8.809,344.273 -14.844,361.613 C-4.016,361.277 -6.543,355.809 -38.883,317.312 C-41.984,312.191 -38.625,306.215 21.324,254.23 C91.094,200.969 147.871,207.156 148.754,303.297"/>
  <path fill="rgb(98.039216%, 100%, 83.137255%)" d="M37.895,-10.309 C30.406,54.234 35.234,52.516 25.445,67.164 C16.266,64.438 10.219,62.418 -23.766,53.68 C22.391,-6.125 13.078,40.141 10.492,32.641 C-57.906,37.051 -58.406,16.758 37.895,-10.309"/>
  <path fill="rgb(7.843137%, 3.137255%, 4.313725%)" opacity="0.913" d="M156.082,300.23 C9.375,364.719 -3.906,367.469 -12.004,385.789 C-12.91,387.996 -10.73,375.02 -6.305,349.254 C-8.473,346.258 -8.445,349.812 -16.863,381.871 C12.664,365.316 89.289,328.926 156.082,300.23"/>
  <path fill="rgb(99.607843%, 98.431373%, 100%)" d="M130.547,163.191 C160.695,180.188 180.738,168.297 130.801,166.598 C96.117,175.715 131.617,188.938 77.086,97.438 C128.594,65.203 128.742,90.469 112.977,83.695 C139.273,86.977 128.641,59.211 130.547,163.191"/>
  <path fill="rgb(97.647059%, 99.607843%, 91.372549%)" opacity="0.507" d="M8.422,-33.121 C4.723,-7.023 7.703,14.93 10.883,7.895 C-4.918,12.484 -17.062,10.234 -18.766,-0.398 C-10.461,-5.922 -5.777,-10.605 7.344,-13.34 C14.371,-10.93 18.977,-6.746 8.422,-33.121"/>
  <path fill="rgb(76.862745%, 100%, 100%)" d="M92.008,68.664 C86.742,235.016 68.641,256.867 79.762,78.027 C83.039,181.578 85.648,149.523 56.359,134.742 C68.395,30.23 60.418,25.176 61.227,40.684 C61.266,225.75 79.133,66.57 92.008,68.664"/>
  <path fill="rgb(100%, 25.882353%, 22.352941%)" opacity="0.998" d="M23.871,157.617 C26.504,152.621 12.734,154.035 33.457,172.836 C41.695,205.711 31.52,205.051 6.039,191.77 C-18.859,144.766 -4.836,145.094 19.309,125.34 C28.531,118.195 31.211,138.762 23.871,157.617"/>
  <path fill="rgb(27.843137%, 41.960784%, 66.666667%)" opacity="0.036" d="M180.035,141.723 C174.707,179.301 174.359,197.75 179.242,131.086 C162.336,213.477 136.195,197.941 151.434,148.711 C150.996,116.715 136.547,126.285 168.309,125.516 C165.82,186.906 152.219,126.75 180.035,141.723"/>
  <path fill="rgb(99.215686%, 63.137255%, 67.843137%)" opacity="0.996" d="M81.074,90.523 C57.16,89.535 205.355,72.344 63.082,61.465 C61.945,172.289 46.625,148.477 52.645,8.852 C55.812,20.473 62.344,16.496 56.145,15.734 C62.824,23.965 62,52.406 81.074,90.523"/>
  <path fill="rgb(89.019608%, 99.607843%, 0.392157%)" opacity="0.995" d="M394.996,90.996 C378.484,93.246 353.199,113.629 327.957,97.867 C274.262,92.82 410.227,92.562 312.012,111.496 C302.688,30.941 294.844,58.512 347.465,41.504 C360.246,131.531 351.754,99.633 394.996,90.996"/>
  <path fill="rgb(47.843137%, 38.039216%, 34.117647%)" opacity="0.81" d="M346.074,342.992 C449.609,339.199 442.047,345.98 346.004,339.32 C320.543,354.875 313.766,327.719 233.633,284.07 C321.711,264.426 291.367,279.09 355.848,266.176 C335.371,215.082 336.738,234.805 346.074,342.992"/>
  <path fill="rgb(12.156863%, 28.235294%, 38.823529%)" d="M83.988,96.992 C86.242,120.238 82.84,144.945 82.27,201.523 C41.309,258.668 55.207,139.734 49.965,135.336 C81.211,87.418 54.023,-3.438 87.98,17.406 C85.441,70.188 88.18,58.168 83.988,96.992"/>
  <path fill="rgb(99.215686%, 98.431373%, 80.784314%)" opacity="0.993" d="M139.133,225.301 C148.48,254.039 114.758,251.633 115.066,229.457 C117.812,227.949 71.082,222.711 85.562,222.488 C58.84,231.219 59.113,238.043 114.73,240.789 C122.312,209.656 146.746,201.316 139.133,225.301"/>
  <path fill="rgb(31.764706%, 30.196078%, 36.078431%)" d="M428.457,339.902 C421.5,370.91 419.16,379.816 390.828,373.633 C365.105,355.164 349.051,352.84 297.73,324.848 C331.289,343.188 335.117,336.66 347.223,336.652 C375.648,338.902 402.438,336.074 428.457,339.902"/>
  <path fill="rgb(39.607843%, 47.843137%, 48.235294%)" opacity="0.412" d="M378.977,6.223 C355.328,39.176 372.324,20.641 354.965,44.59 C290,35.633 297.723,55.793 333.879,44.965 C356.086,33.953 345.633,26.691 343.391,3.035 C376.469,-15.684 402.812,-5.535 378.977,6.223"/>
  <path fill="rgb(100%, 69.411765%, 0%)" d="M364.098,175.219 C363.133,191.137 376.852,185.199 327.828,192.957 C313.195,198.891 315.824,189.062 313.449,149.004 C298.742,101.711 339.418,119.988 349.473,109.145 C356.918,111.098 356.422,123.445 364.098,175.219"/>
  <path fill="rgb(99.607843%, 29.803922%, 23.529412%)" opacity="0.769" d="M32.754,172.414 C38.359,190.617 36.832,174.086 22.453,186.52 C-3.875,182.238 -15.371,195.859 -24.012,165.734 C7.875,162.367 18.395,173.668 19.988,176.703 C14.121,166.387 19.469,157.34 32.754,172.414"/>
  <path fill="rgb(99.215686%, 100%, 98.039216%)" d="M266.066,318.137 C244.676,127.125 282.789,137.969 289.703,217.414 C245.535,188.305 272.438,161.324 263.605,207.426 C267.867,177.645 260.012,139.254 265.219,131.738 C251.141,112.035 285.398,37.801 266.066,318.137"/>
  <path fill="rgb(97.254902%, 99.607843%, 0%)" d="M362.25,309.379 C406.414,247.453 380.809,211.672 421.793,251.211 C385.961,245.328 346.582,247.613 311.168,257.707 C297.227,212.18 320.156,218.391 376.512,212.977 C419.906,214.758 434.918,204.895 362.25,309.379"/>
  <path fill="rgb(23.529412%, 28.235294%, 25.490196%)" d="M147.695,196.012 C9.293,225.047 156.91,316.891 30.105,333.766 C-79.918,327.32 -51.203,279.969 -6.457,192.039 C67.629,199.785 -12.809,128.449 63.047,151.645 C59.938,209.359 34.438,194.953 147.695,196.012"/>
  <path fill="rgb(100%, 0%, 3.921569%)" opacity="0.998" d="M121.461,71.438 C113.082,163.582 129.711,240.477 94.727,132.965 C133.109,102.379 86.125,92.434 103.199,151.023 C108.148,87.551 113.562,27.668 88.383,135.586 C93.672,46.73 82.16,71.125 121.461,71.438"/>
  <path fill="rgb(100%, 0%, 7.058824%)" d="M290.352,211.109 C291.996,269.281 301.586,266.02 270.16,266.121 C266.59,218.762 265.684,177.559 268.875,172.262 C270.16,207.176 265.598,177.766 265.234,142.742 C291.176,130.102 283.105,147.906 290.352,211.109"/>
  <path fill="rgb(100%, 89.411765%, 99.215686%)" opacity="0.998" d="M280.57,164.137 C279.047,195.469 289.242,271.008 279.051,255.883 C276.164,174.609 273.762,171.457 272.164,217.141 C289.766,213.449 271.555,205.828 269.094,165.637 C281.242,132.977 274.867,130.152 280.57,164.137"/>
  <path fill="rgb(80.392157%, 61.176471%, 48.235294%)" opacity="0.799" d="M17.199,112.121 C36.223,93.035 31.742,108.082 25.52,155.223 C6.176,130.938 -7.32,163.777 -24.914,140.461 C-10.703,78.367 7.168,86.684 22.562,98.348 C6.453,107.906 30.535,114.508 17.199,112.121"/>
  <path fill="rgb(98.823529%, 95.294118%, 74.117647%)" opacity="0.969" d="M141.102,187.719 C144.781,234.145 109.852,211.594 121.945,212.031 C100.566,207.445 73.992,199.383 83.191,242.062 C101.711,220.652 69.457,217.582 84.461,180.039 C110.531,171.883 148.363,177.699 141.102,187.719"/>
  <path fill="rgb(100%, 87.45098%, 98.823529%)" d="M280.906,120.844 C283.773,159.625 274.293,134.758 266.461,145.59 C287.602,144.824 282.805,178.25 262.809,112.52 C279.828,189.379 277.352,182.648 267.078,110.094 C290.68,115.496 277.957,102.102 280.906,120.844"/>
  <path fill="rgb(100%, 75.686275%, 79.607843%)" d="M187.984,188.863 C194.176,184.629 192.422,199.219 192.711,263.32 C161.926,269.773 185.145,206.145 178.676,183.773 C188.914,228.125 170.066,230.133 179.543,187.738 C194.395,189.746 173.656,187.254 187.984,188.863"/>
  <path fill="rgb(93.333333%, 89.019608%, 97.647059%)" opacity="0.584" d="M162.684,167.199 C163.285,175.496 170.688,182.711 144.613,175.781 C104.336,196.746 128.09,185.289 120.551,159.324 C187.301,151.93 163.164,182.902 166.359,166.309 C154.324,159.551 171.984,165.625 162.684,167.199"/>
  <path fill="rgb(100%, 100%, 95.686275%)" d="M26.488,160.574 C28.441,157.91 1.844,154.059 8.531,150.902 C12.203,153.027 -16.836,160.32 -28.387,117.898 C14.941,111.543 31.746,128.059 17.043,121.5 C19.938,108.105 39.027,85.398 26.488,160.574"/>
  <path fill="rgb(99.607843%, 100%, 0%)" d="M23.234,270.035 C20.805,296.371 21.414,291.469 -14.336,289.598 C-2.039,292.215 -6.648,277.703 -8.188,275.758 C-12.891,270.715 -7.93,258.125 -2.715,235.297 C30.57,243.336 26.195,233.613 23.234,270.035"/>
  <path fill="rgb(61.176471%, 63.529412%, 70.980392%)" opacity="0.83" d="M243.855,194.246 C266.898,182.863 256.238,179.422 262.707,218.539 C218.148,255.328 250.641,218.121 258.129,201.312 C249.949,193.227 278.688,175.309 248.211,221.34 C241.336,189.535 254.41,185.207 243.855,194.246"/>
  <path fill="rgb(99.607843%, 100%, 88.235294%)" d="M36.516,44.863 C34.871,84.203 33.145,114.293 25.672,115.781 C-37.883,102.379 -25.988,104.852 -4.992,56.5 C45.691,81.59 25.988,87.91 -17.77,58.902 C-20.266,42 11.434,36.129 36.516,44.863"/>
  <path fill="rgb(96.078431%, 91.372549%, 78.431373%)" opacity="0.99" d="M420.566,274.52 C408.98,306.035 397.477,310.199 357.047,301.109 C331.277,301.73 333.672,290.801 347.582,296.879 C342.844,355.965 331.551,255.68 338.785,269.797 C419.125,268.129 423.332,257.227 420.566,274.52"/>
  <path fill="rgb(11.764706%, 70.980392%, 43.921569%)" opacity="0.691" d="M20.57,-2.711 C11.172,-1.562 2.703,-6.246 -6.512,-3.676 C-5.809,10.5 -10.809,6.719 -12.527,0.332 C-10.812,-6.066 -6.125,-10.754 1.434,-15.734 C9.324,-15.055 15.004,-11.039 20.57,-2.711"/>
  <path fill="rgb(45.882353%, 9.019608%, 27.45098%)" opacity="0.724" d="M9.344,-4.961 C3.316,-3.613 -4.797,0.246 -7.43,5.746 C-0.109,4.941 -9.176,3.824 -12.211,0.02 C-10.512,-6.324 -5.824,-11.008 0.574,-12.723 C6.734,-10.941 7.316,-2.625 9.344,-4.961"/>
  <path fill="rgb(14.901961%, 41.568627%, 37.254902%)" opacity="0.057" d="M70.152,8.789 C61.105,10.559 69.152,7.191 62.281,25.84 C55.16,10.258 28.371,7.145 27.719,9.449 C26.137,-14.594 33.965,-8.602 33.633,6.535 C48.16,3.188 64.594,9.262 70.152,8.789"/>
  <path fill="rgb(99.215686%, 100%, 100%)" d="M45.457,319.496 C57.367,85.383 71.578,50.555 46.441,54.93 C34.246,203.039 35.043,232.855 50.398,162.758 C48.445,147.93 64.285,222.441 49.328,125.262 C48.586,167.801 14.707,294.875 45.457,319.496"/>
  <path fill="rgb(62.745098%, 96.862745%, 99.215686%)" opacity="0.972" d="M130.773,86.785 C119.102,55.758 125.125,70.445 129.988,196.699 C148.762,152.594 126.934,55.164 123.469,120.262 C129.492,152.785 137.652,104.02 129.625,79.547 C106.105,56.715 130.727,121.961 130.773,86.785"/>
  <path fill="rgb(100%, 0.392157%, 4.313725%)" opacity="0.983" d="M98.52,165.391 C86.824,98.031 99.941,127.277 119.875,185.836 C72.258,186.438 97.648,188.844 84.93,185.297 C88.891,121.32 87.395,89.422 104.941,91.738 C103.062,139.035 101.914,58.691 98.52,165.391"/>
</svg>

