<svg xmlns="http://www.w3.org/2000/svg" width="384" height="384" viewBox="0 0 384 384">
  <defs/>
  <path fill="rgb(99.607843%, 71.764706%, 0%)" d="M316.965,60.855 C157.176,298.688 158.484,308.527 106.746,329.707 C46.938,324.609 51.695,318.402 65.785,206.988 C45.637,98.738 35.223,43.398 259.145,0.871 C313.012,24.273 330.621,12.75 316.965,60.855"/>
  <path fill="rgb(2.352941%, 49.019608%, 67.45098%)" d="M406.77,329.594 C373.852,467.406 341.961,425.816 235.41,396.762 C154.629,310.309 123.551,311.238 104.266,226.582 C129.359,84.66 141.965,50.434 338.27,39.895 C404.039,18.262 412.188,33.207 406.77,329.594"/>
  <path fill="rgb(100%, 67.058824%, 0%)" d="M69.184,263.473 C87.898,354.145 124.613,368.859 16.352,408.316 C-58.797,376.715 -37.34,350.273 -30.922,257.359 C-24.098,201.785 -0.371,210.414 65.598,200.242 C63.785,221.117 67.938,207.527 69.184,263.473"/>
  <path fill="rgb(0%, 49.803922%, 71.372549%)" d="M228.984,-7.117 C193.785,294.875 84.457,234.457 3.738,219.449 C-9.887,212.172 -10.586,202.734 -13.711,188.18 C-15.82,171.742 -56.324,127.32 -0.391,-16.625 C229.855,-35.75 238.148,-42.355 228.984,-7.117"/>
  <path fill="rgb(0%, 48.627451%, 69.019608%)" d="M338.102,347.918 C295.266,433.777 272.949,425.672 122.109,420.215 C34.523,398.582 11.523,414.754 -56.695,356.031 C33.789,251.004 101.328,291.977 167.293,288.047 C187.258,258.496 245.582,225.074 338.102,347.918"/>
  <path fill="rgb(46.666667%, 18.823529%, 0%)" opacity="0.942" d="M149.664,289.395 C184.234,304.129 160.613,314.496 136.793,313.812 C98.41,315.969 12.48,318.133 -91.387,317.676 C-68.473,295.305 20.258,300.469 164.918,302.965 C181.43,298.398 170.176,286.703 149.664,289.395"/>
  <path fill="rgb(1.960784%, 0%, 0%)" d="M267.402,297.043 C123.062,322.219 189.57,264.75 155.414,281.555 C172.25,279.184 162.41,308.871 154.66,292.039 C77.555,273.309 123.258,246.41 226.258,266.855 C315.844,298.008 322.613,287.141 267.402,297.043"/>
  <path fill="rgb(41.176471%, 21.568627%, 5.490196%)" opacity="0.902" d="M453.461,344.637 C404.645,370.746 263.09,358.605 184.172,365.227 C83.496,357.07 -35.977,381.016 -61.238,342.293 C147.973,341.129 160.723,341.637 151.715,341.266 C162.488,343.363 195.031,336.562 453.461,344.637"/>
  <path fill="rgb(0%, 0%, 0%)" d="M155.859,294.285 C140.57,292.277 137.605,296.215 122.41,276.465 C119.617,286.746 170.211,268.113 137.613,302.227 C109.457,332.422 18.152,255.117 177.258,278.758 C68.469,236.965 182.379,205.996 155.859,294.285"/>
  <path fill="rgb(62.745098%, 12.54902%, 0%)" d="M455.91,301.766 C443.98,313.609 360.445,318.07 216.398,312.812 C158.922,311.934 139.652,319.09 139.637,303.801 C145.32,302.613 177.348,300.074 201.559,305.34 C154.449,304.723 190.551,303.219 455.91,301.766"/>
  <path fill="rgb(67.45098%, 45.098039%, 17.647059%)" opacity="0.851" d="M108.945,351.914 C126.977,344.316 121.344,349.422 165.457,344.035 C241.906,355.34 100.18,352.906 -64.82,351.633 C262.422,342.609 390.133,348.441 437.469,350.691 C159.09,351.477 149.754,352.727 108.945,351.914"/>
  <path fill="rgb(8.627451%, 37.647059%, 54.509804%)" opacity="0.975" d="M398.805,29.516 C404.09,53.566 399,55.863 357.641,63.453 C332.586,21.32 321.008,27.766 322.59,2.562 C333.266,-3.738 342.828,-6.395 353.117,-6.941 C372.547,-21.25 387.801,-26.836 398.805,29.516"/>
  <path fill="rgb(9.411765%, 43.921569%, 60%)" opacity="0.72" d="M412.449,42.523 C413.973,90.141 415.477,102.301 363.754,103.863 C291.07,77.016 290.531,63.949 283.25,5.254 C293.785,-23.352 298.965,-27.934 357.465,-41.285 C372.355,-15.43 383.414,-13.535 412.449,42.523"/>
  <path fill="rgb(40%, 77.254902%, 15.294118%)" opacity="0.779" d="M2.289,-11.383 C-0.812,-5.875 -6.059,-0.949 -11.52,2.328 C-1.301,7.074 -7.352,3.035 -12.16,0.254 C-10.559,-5.785 -5.875,-10.469 0.09,-12.043 C3.066,-7.293 7.406,-1.66 2.289,-11.383"/>
  <path fill="rgb(2.352941%, 50.980392%, 65.490196%)" opacity="0.984" d="M403.535,39.938 C442.82,114.938 442.82,144.098 368.039,224.781 C168.719,187.816 127.738,228.242 95.461,35.492 C168.746,-97.695 224.992,-58.074 327.793,-49.77 C372.977,-10.062 379.98,-4.941 403.535,39.938"/>
  <path fill="rgb(47.843137%, 50.980392%, 23.529412%)" opacity="0.567" d="M4.238,-11.32 C-1.008,-6.02 -3.645,-0.012 -10.805,5.688 C-9.234,13.953 -10.812,7.293 -12.254,0.172 C-10.539,-6.234 -5.852,-10.918 -1.254,-12.004 C2.855,-6.836 7.836,-2.438 4.238,-11.32"/>
  <path fill="rgb(95.294118%, 53.333333%, 0%)" opacity="0.975" d="M159.898,267.008 C157.34,280.996 100.652,275.719 62.289,274.648 C3.426,272.309 -48.719,286.652 -86.332,197.625 C-12.039,197.754 32.52,201.227 155.797,196.543 C160.289,192.008 158.617,188.418 159.898,267.008"/>
  <path fill="rgb(91.764706%, 42.745098%, 13.333333%)" opacity="0.736" d="M182.547,276.246 C136.727,275.957 99.578,281.211 271.012,273.641 C307.473,257.711 140.34,264.129 187.562,264.371 C232.676,258.531 233.777,256.383 241.484,249.637 C232.73,237.281 233.098,235.957 182.547,276.246"/>
  <path fill="rgb(100%, 0%, 0%)" d="M281.027,285.426 C245.977,282.777 218.352,290.23 231.277,279.867 C247.75,285.199 220.051,283.637 143.449,284.773 C158.578,209.023 123.402,247.055 244.652,233.672 C292.113,270.953 277.02,111.547 281.027,285.426"/>
  <path fill="rgb(36.470588%, 33.333333%, 47.058824%)" opacity="0.559" d="M277.273,203.059 C286.516,196.551 200.152,210.75 229.773,204.289 C258.727,191.723 211.098,181.035 140.547,202.242 C219.047,215.109 267.457,206.293 227.066,186.195 C190.719,187.348 234.414,194.363 277.273,203.059"/>
  <path fill="rgb(0%, 50.196078%, 69.019608%)" opacity="0.664" d="M164.199,186.512 C177.832,169.664 174.996,197.23 101.34,195.965 C125.871,162.371 115.891,140.277 87.887,119.574 C98.156,108.754 93.082,87.641 114.762,90.848 C128.898,90.629 139.133,91.84 164.199,186.512"/>
  <path fill="rgb(0%, 50.196078%, 65.098039%)" opacity="0.549" d="M148.922,-12.84 C133.262,84.465 144.035,112.352 84.07,98.449 C9.234,76.242 -5.902,75.613 -18.012,27.809 C1.074,-24.285 21.961,-17.918 66.023,-18.223 C107.008,-19.691 133.73,-31.07 148.922,-12.84"/>
  <path fill="rgb(99.215686%, 100%, 100%)" d="M67.754,119.363 C57.461,147.555 42.168,167.836 3.07,149.652 C-23.629,159.914 -12.27,132.953 -7.09,113.34 C-6.438,104.418 -18.457,83.188 0.66,61.906 C65.703,60.691 73.945,75.328 67.754,119.363"/>
  <path fill="rgb(100%, 100%, 99.215686%)" d="M188.195,123.711 C133.363,138.188 113.703,117.773 106.934,133.68 C87.086,151.41 45.512,147.406 23.273,107.613 C54.496,53.023 53.102,29.598 89.125,36.824 C178.57,74.617 215.684,86.051 188.195,123.711"/>
  <path fill="rgb(23.137255%, 36.078431%, 83.921569%)" opacity="0.741" d="M19.062,-2.441 C3.438,-2.477 -8.656,-4.051 -12.082,-1.117 C-10.508,16.344 -14.109,11.164 -12.398,1.121 C-10.461,-5.922 -5.777,-10.605 4.566,-13.699 C14.332,-17.707 19.043,-13.465 19.062,-2.441"/>
  <path fill="rgb(0%, 0%, 1.568627%)" d="M125.188,198.879 C100.484,208.934 88.469,195.172 85.664,204.227 C78.09,214.289 87.441,201.188 85.656,202.539 C102.848,170.852 65.285,184.77 104.676,170.738 C136.449,176.543 122.691,172.562 125.188,198.879"/>
  <path fill="rgb(38.431373%, 20.392157%, 0%)" opacity="0.996" d="M439.52,340.348 C201.762,336.777 116.258,347.953 199.094,344.719 C170.879,340.637 124.434,351.039 -80.887,347.215 C87.211,343.023 154.473,345.258 81.176,344.875 C125.723,343.172 184.414,355.285 439.52,340.348"/>
  <path fill="rgb(100%, 5.490196%, 1.568627%)" d="M284.086,208.93 C275.523,207.027 285.391,233.789 275.629,243.891 C275.254,203.234 243.648,193 238.512,241.707 C221.543,169.914 264.984,183.195 283.285,206.523 C274.035,212.281 276.562,202.273 284.086,208.93"/>
  <path fill="rgb(0%, 0%, 2.352941%)" d="M66.48,288.066 C8.406,295.125 32.461,274.145 44.152,288.457 C11.527,324.473 -11.668,315.781 -11.848,285.379 C-12.719,269.336 -44.383,284.91 2.258,281.109 C167.051,281.766 193.191,281.492 66.48,288.066"/>
  <path fill="rgb(99.607843%, 0%, 0%)" opacity="0.998" d="M265.527,208.777 C237.004,199.789 256.734,201.539 238.402,217.055 C253.625,198.266 107.918,224.746 143.008,194.598 C140.852,181.469 210.023,192.668 257.789,188.113 C230.887,194.395 244.434,190.387 265.527,208.777"/>
  <path fill="rgb(8.627451%, 23.137255%, 38.823529%)" opacity="0.92" d="M18.395,-4.059 C10.145,-3.617 -5.371,-2.359 -16.07,-2.832 C-6.969,10.793 -12.699,7.836 -12.43,0.617 C-10.57,-6.105 -5.887,-10.789 -3.504,-9.242 C3.16,-7.434 8.777,-4.082 18.395,-4.059"/>
  <path fill="rgb(100%, 70.196078%, 0%)" opacity="0.981" d="M150.543,251.75 C132.109,253.832 94.484,236.062 92.586,281.348 C155.344,283.059 158.266,280.434 137.32,272.145 C141.68,257.719 141.164,258.859 130.473,282.527 C153.031,285.895 152.551,284.035 150.543,251.75"/>
  <path fill="rgb(5.882353%, 56.470588%, 73.333333%)" opacity="0.35" d="M19.164,-15.922 C16.398,2.566 4.598,3.648 -15.371,8.293 C-5.277,10.707 -1.246,-4.016 -2.293,-10.523 C-10.66,-5.875 -5.973,-10.559 0.16,-12.191 C3.047,-7.656 7.051,-1.492 19.164,-15.922"/>
  <path fill="rgb(1.568627%, 0%, 0%)" opacity="0.974" d="M218.441,284.953 C185.07,295.43 193.391,277.203 194.16,289.094 C135.348,278.094 154.418,305.934 165.172,307.379 C172.016,304.891 185.066,285.977 170.172,283.781 C132.562,290.398 149.664,296.887 218.441,284.953"/>
  <path fill="rgb(3.921569%, 29.803922%, 47.45098%)" opacity="0.632" d="M3.082,-10.543 C0.324,-5.457 -5.797,-1.277 -10.055,2.094 C-6.426,11.418 -11.582,7.379 -12.426,0.426 C-10.512,-6.324 -5.824,-11.008 0.574,-12.723 C6.973,-11.008 11.66,-6.324 3.082,-10.543"/>
</svg>

