<svg xmlns="http://www.w3.org/2000/svg" width="384" height="384" viewBox="0 0 384 384">
  <defs/>
  <path fill="rgb(48.627451%, 85.098039%, 76.470588%)" opacity="0.605" d="M227.926,51.984 C238.848,229.328 242.695,233.234 162.301,267.492 C-83.523,270.668 -84.742,269.594 -58.07,221.055 C-13.98,-15.656 -9.438,-21.344 44.848,-31.266 C211.77,-34.883 221.008,-35.125 227.926,51.984"/>
  <path fill="rgb(50.196078%, 84.313725%, 79.607843%)" opacity="0.668" d="M411.211,147.867 C444.922,219.914 451.574,233.121 243.027,239.719 C194.066,219.941 200.102,221.5 211.41,82.652 C200.059,-48.188 197.16,-45.293 309.68,-36.129 C398.359,-13.719 401.969,-7.355 411.211,147.867"/>
  <path fill="rgb(19.215686%, 9.803922%, 20.392157%)" opacity="0.982" d="M280.578,299.68 C299.781,418.527 294.422,404.176 240.039,395.613 C201.266,377.746 209.102,358.176 115.348,329.73 C69.406,250.895 88.684,225.434 253.93,211.77 C362.891,227.961 344.316,238.977 280.578,299.68"/>
  <path fill="rgb(9.019608%, 2.745098%, 9.019608%)" opacity="0.996" d="M398.027,318.223 C396.75,394.719 396.855,392.875 328.574,382.137 C270.094,393.949 251.664,393.301 262.039,278.352 C266.891,231.16 246.781,198.141 286.312,179.418 C474.164,198.406 439.539,225.84 398.027,318.223"/>
  <path fill="rgb(1.960784%, 52.54902%, 47.058824%)" opacity="0.303" d="M231.695,356.125 C222.605,428.09 208.961,424.312 115.371,423.207 C10.645,448.887 -8.238,482.23 -51.324,242.629 C-51.242,208.758 -46.133,216 27.574,224.543 C273.391,227.852 244.918,244.652 231.695,356.125"/>
  <path fill="rgb(67.058824%, 90.980392%, 85.882353%)" opacity="0.956" d="M272.844,5.324 C236.523,103.387 250.816,152.383 165.527,186.051 C83.91,136.906 52.93,192.504 43.578,43.789 C75.152,-25.895 105.848,-25.16 202.664,-48.73 C295.504,-28.039 312.312,-25.895 272.844,5.324"/>
  <path fill="rgb(38.431373%, 61.568627%, 49.803922%)" opacity="0.698" d="M7.324,-9.344 C2.285,-7.219 -4.68,-1.668 -11.629,2.504 C-7.367,11.961 -13.918,8.535 -16.207,3.566 C-10.812,-6.066 -6.125,-10.754 2.703,-13.871 C10.977,-14.844 7.57,-2.355 7.324,-9.344"/>
  <path fill="rgb(0%, 27.843137%, 99.607843%)" d="M268.043,270.852 C272.129,278.348 242.324,276.828 142.383,267.43 C85.832,308.879 72.949,244.898 165.176,223.547 C171.199,144.824 152.812,152.453 122.383,184.957 C276.816,169.613 259.043,189.801 268.043,270.852"/>
  <path fill="rgb(0%, 29.019608%, 99.215686%)" d="M362.895,277.422 C349.938,293.621 365.617,279.406 256.488,275.5 C213.668,267.918 214.891,291.418 211.195,252.898 C204.258,203.582 188.238,167.918 251.914,177.453 C355.977,173.867 341.93,149.48 362.895,277.422"/>
  <path fill="rgb(3.921569%, 54.117647%, 49.019608%)" opacity="0.453" d="M370.219,201.285 C349.223,162.941 285,169.586 246.43,187.605 C217.633,212.98 218.844,221.027 162.305,179.777 C197.988,174.965 217.496,168.145 288.203,174.887 C330.91,166.93 348.512,177.145 370.219,201.285"/>
  <path fill="rgb(75.294118%, 96.078431%, 89.803922%)" opacity="0.981" d="M418.461,352.371 C390.074,384.406 383.488,390.684 341.859,411.902 C315.637,404.266 304.707,400.754 306.473,332.293 C347.855,310.312 304.512,264.301 340.742,313.582 C410.582,312.363 416.227,319.629 418.461,352.371"/>
  <path fill="rgb(69.803922%, 94.509804%, 84.313725%)" opacity="0.998" d="M284.938,348.32 C283.527,396.5 283.383,392.422 247.949,396.434 C224.148,384.445 205.996,376.727 136.152,345.973 C152.941,319.059 172.215,309.207 264.191,306.707 C288.812,275.602 248.332,298.582 284.938,348.32"/>
  <path fill="rgb(0%, 28.235294%, 100%)" d="M356.484,179.039 C409.914,285.758 330.168,251.59 229.605,224.422 C159.539,231.027 172.5,238.508 163.883,164.82 C141.344,161.98 138.16,168.348 192.609,161.199 C281.383,172.207 337.559,172.086 356.484,179.039"/>
  <path fill="rgb(72.156863%, 92.941176%, 87.843137%)" d="M352.344,384.359 C367.102,407.258 352.516,401.449 291.16,417.789 C274.656,421.422 257.738,434.18 260.801,338.707 C272.117,306.77 273.883,355.039 314.91,332.355 C309.074,336.438 350.98,353.758 352.344,384.359"/>
  <path fill="rgb(66.27451%, 94.509804%, 81.568627%)" d="M429.84,291.383 C419.734,328.469 420.348,335.922 353.047,322.91 C359.535,276.719 368.422,288.949 342.012,284.805 C344.391,245.402 355.539,206.516 350.031,160.738 C445.57,169.355 429.875,192.234 429.84,291.383"/>
</svg>

