<svg xmlns="http://www.w3.org/2000/svg" width="384" height="384" viewBox="0 0 384 384">
  <defs/>
  <path fill="rgb(97.254902%, 48.235294%, 20.784314%)" opacity="0.542" d="M284.555,39.891 C262.629,55.195 248.066,68.137 217.113,74.145 C153.168,61.555 152.277,39.355 156.68,18.238 C179.012,-1.047 185.305,-4.473 196.512,-2.559 C213.047,-6.766 234.719,-20.723 284.555,39.891"/>
  <path fill="rgb(44.705882%, 12.156863%, 36.078431%)" opacity="0.673" d="M308.551,120.863 C368.324,220.285 400.465,264.812 385.785,285.363 C-15.508,297.172 59.934,245.742 133.879,119.453 C131.152,-19.789 129.887,-25.551 172.441,-26.891 C191.457,-14.977 182.371,5.141 308.551,120.863"/>
  <path fill="rgb(95.294118%, 45.882353%, 0%)" opacity="0.98" d="M156.82,13.629 C146.789,22.328 133.551,20.219 -6.863,167.324 C-27.16,178.125 -22.797,155.402 -20.383,55.898 C4.891,-85.707 69.254,-33.016 119.91,-10.617 C137.848,-11.625 145.379,-13.703 156.82,13.629"/>
  <path fill="rgb(89.019608%, 46.666667%, 1.176471%)" opacity="0.996" d="M403.27,80.258 C418.301,210.816 432.605,251.98 378.883,223.945 C104.09,221.293 161.207,151.414 183.07,32.285 C221.477,-6.656 231.32,-8.035 256.93,-9.426 C327.164,-42.215 379.961,-93.918 403.27,80.258"/>
  <path fill="rgb(95.294118%, 48.235294%, 0%)" opacity="0.997" d="M218.285,46.633 C263.793,211.203 338.855,253.984 115.914,311.98 C-91.188,283.047 -74.855,251.242 -14.965,175.828 C64.77,-40.59 72.035,-44.098 109.387,-46.074 C174.117,-22.898 201.559,-31.762 218.285,46.633"/>
  <path fill="rgb(80.392157%, 45.882353%, 3.137255%)" opacity="0.992" d="M252.559,334.148 C261.602,388.773 271.836,398.242 43.91,399.895 C-13.633,396.367 -25.961,382.188 -12.996,302.707 C-6.773,219.047 29.723,275.758 140.621,245.828 C129.242,254.402 218.645,185.871 252.559,334.148"/>
  <path fill="rgb(49.019608%, 35.294118%, 33.333333%)" opacity="0.985" d="M426.039,231.918 C280.406,320.605 289.715,342.504 222.809,342.285 C141.66,312.613 139.969,284.582 139.051,252.246 C146.129,187.398 122.289,238.969 132.969,219.762 C379.691,216.895 426.293,214.238 426.039,231.918"/>
  <path fill="rgb(98.431373%, 82.352941%, 0.392157%)" opacity="0.976" d="M423.457,23.934 C389.082,18.824 322.629,12.02 202.758,13.27 C141.465,27.801 149.484,40.188 153.18,11.984 C157.789,-29.73 173.203,-25.34 185.734,-26.129 C229.156,-20.141 300.758,-96.066 423.457,23.934"/>
  <path fill="rgb(94.901961%, 52.941176%, 4.313725%)" opacity="0.964" d="M397.344,332.688 C410.602,389.039 409.199,395.016 278.836,393.949 C191.199,388.922 176.191,389.703 135.133,359.348 C180.102,251.98 190.902,287.609 357.223,279.746 C341.281,173.383 340.926,126.629 397.344,332.688"/>
  <path fill="rgb(94.901961%, 51.764706%, 0%)" opacity="0.993" d="M185.938,27.773 C147.859,32.102 136.055,27.656 140.477,37.16 C95.852,34.605 60.359,23.699 -10.434,28.863 C25.805,-57.48 78.023,-18.789 118.305,-5.215 C144.785,-2.344 165.582,-7.832 185.938,27.773"/>
  <path fill="rgb(74.509804%, 54.117647%, 5.882353%)" opacity="0.311" d="M329.75,162.605 C324.891,171.789 301.133,189.074 266.277,172.523 C253.215,148.238 257.34,150.062 242.512,118.426 C235.152,113.633 235.781,118.469 256.062,120.367 C306.656,119.109 320.156,106.719 329.75,162.605"/>
  <path fill="rgb(83.137255%, 57.647059%, 0%)" opacity="0.259" d="M289.074,163.551 C272.398,168.957 217.984,166.074 222.008,163.066 C227.715,157.141 188.57,153.652 167.629,158.535 C165.016,106.605 168.004,113.359 232.086,116.082 C251.211,105.793 264.078,121.668 289.074,163.551"/>
  <path fill="rgb(37.647059%, 41.960784%, 0%)" opacity="0.736" d="M14.016,-10.684 C4.375,-3.324 -6.75,-2.875 -12.352,-2.621 C-0.844,6.594 -6.309,2.23 -11.773,-0.59 C-10.461,-5.922 -5.777,-10.605 11.266,-21.961 C17.766,-21.406 21.77,-17.16 14.016,-10.684"/>
  <path fill="rgb(67.058824%, 57.647059%, 2.352941%)" opacity="0.377" d="M196.305,152.695 C204.105,176.957 182.016,158.383 117.824,144.82 C102.387,148.98 111.711,186.367 116.973,123.629 C111.398,85.039 115.16,98.824 112.941,140.32 C201.98,132.723 199.594,119.879 196.305,152.695"/>
  <path fill="rgb(96.862745%, 40.784314%, 5.098039%)" opacity="0.154" d="M392.059,111.773 C370.082,186.523 382.762,157.977 374.754,138.195 C301.023,140.492 300.586,123.887 261.367,116.633 C270.27,88.508 278.875,98.07 295.383,108.32 C361.898,113.855 389.484,112.172 392.059,111.773"/>
  <path fill="rgb(0%, 60%, 78.431373%)" opacity="0.979" d="M270.578,354.914 C266.262,469.176 228.371,438.488 180.523,418.234 C99.371,409.234 14.797,472.066 -25.41,370.816 C76.504,368.168 122.117,364.883 147.414,358.734 C169.953,360.484 209.25,352.586 270.578,354.914"/>
  <path fill="rgb(44.313725%, 74.117647%, 6.666667%)" opacity="0.378" d="M113.758,164.102 C112.469,174.234 99.695,188.91 106.977,197.379 C128.223,202.469 108.449,168.531 101.734,158.973 C109.781,170.613 118.066,177.969 101.855,179.375 C94.637,157.367 107.523,172.75 113.758,164.102"/>
  <path fill="rgb(8.235294%, 46.27451%, 92.156863%)" opacity="0.97" d="M240.215,43.07 C257.754,126.16 295.309,98.008 168.859,104.473 C149.336,66.637 117.273,166.184 105.758,30.898 C169.043,34.863 194.555,33.438 215.398,33.301 C217.516,32.547 242.168,28.465 240.215,43.07"/>
  <path fill="rgb(2.745098%, 58.823529%, 73.333333%)" opacity="0.987" d="M396.648,372.238 C386.656,427.602 355.031,404.316 311.93,398.605 C266.84,414.211 228.336,446.133 211.918,356.941 C253.992,360.934 268.277,362.633 286.004,364.422 C344.984,369.855 368.73,371.027 396.648,372.238"/>
  <path fill="rgb(71.764706%, 61.568627%, 13.72549%)" opacity="0.195" d="M342.562,276.418 C254.008,320.164 372.789,372.324 273.023,361.422 C100.922,345.074 153.516,370.449 114.289,316.457 C211.961,306.918 217.297,300.512 263.629,284.715 C286.27,298.727 310.367,300.195 342.562,276.418"/>
  <path fill="rgb(29.803922%, 62.745098%, 59.607843%)" opacity="0.831" d="M378.441,57.434 C400.789,69.465 399.449,78.156 384.504,66.77 C347.352,44.762 415.281,112.559 273.332,102.422 C292.871,18.191 280.73,48.199 291.582,50.039 C373.43,46.254 366.406,43.84 378.441,57.434"/>
  <path fill="rgb(100%, 87.843137%, 8.627451%)" d="M146.555,50.262 C160.25,46.07 161.625,70.363 175.664,103.184 C137.828,102.379 151.961,118.816 131.562,54.047 C126.633,30.961 118.469,52.547 150.523,36.41 C162.605,61.016 161.469,64.543 146.555,50.262"/>
  <path fill="rgb(91.764706%, 61.960784%, 24.313725%)" opacity="0.919" d="M366.652,57.477 C371.574,59.656 374.742,72.594 374.492,96.289 C379.176,104.898 371.906,106.414 317.652,106.156 C313.668,30.871 345.66,33.711 363.316,91.91 C366.422,89.883 348.758,60.043 366.652,57.477"/>
  <path fill="rgb(54.901961%, 74.901961%, 89.411765%)" opacity="0.511" d="M119.809,195.188 C34.691,215.477 79.855,125.48 96.43,200.754 C-11.801,199.953 1.234,211.527 14.742,153.07 C62.621,143.824 81.73,137.305 91.82,136.387 C109.969,136.754 115.793,131.484 119.809,195.188"/>
  <path fill="rgb(90.980392%, 54.901961%, 29.803922%)" opacity="0.473" d="M391.086,70.227 C377.234,75.68 387.5,100.344 388.785,80 C360.664,89.656 374.273,74.289 387.457,84.363 C369.031,101.297 371.168,85.898 381.617,48.426 C405.461,41.117 386.031,52.609 391.086,70.227"/>
  <path fill="rgb(52.156863%, 78.823529%, 62.745098%)" opacity="0.932" d="M59.98,49.109 C68.457,114.809 94.117,104.129 18.652,102.941 C28.168,97.031 33.047,113.676 18.805,60.672 C49.637,49.574 73.887,31.852 75.273,54.422 C91.652,45.754 92.758,48.094 59.98,49.109"/>
  <path fill="rgb(72.941176%, 65.490196%, 32.941176%)" opacity="0.995" d="M316.637,300.727 C309.332,380.496 341.16,366.191 282.297,367.262 C207.949,366.578 210.254,381.09 213.031,323.055 C89.531,329.855 118.887,298.215 156.086,288.199 C228.547,316.953 263.68,313.852 316.637,300.727"/>
  <path fill="rgb(74.509804%, 57.254902%, 0.784314%)" opacity="0.235" d="M115.273,222.945 C125.059,260.691 134.391,260.676 87.203,256.266 C79.219,222.371 81.836,220.469 87.453,222.676 C89.488,176.883 70.625,215.43 106.395,205.77 C102.152,206.566 113.336,209.59 115.273,222.945"/>
  <path fill="rgb(100%, 0%, 69.411765%)" opacity="0.708" d="M94.492,60.012 C100.73,124.426 125.195,96.859 74.086,104.922 C79.641,23.207 22.258,60.113 38.012,30.676 C69.738,51.145 92.773,44.121 70.605,27.691 C90.84,30.285 99.988,22.059 94.492,60.012"/>
  <path fill="rgb(35.686275%, 68.235294%, 69.019608%)" opacity="0.776" d="M315.32,318.957 C311.098,375.27 329.598,366.488 293.234,367.746 C278.414,227.695 297.66,407.102 258.809,359.477 C270.094,292.402 244.527,319.711 340.473,317.027 C398.055,303.078 381.559,322.176 315.32,318.957"/>
  <path fill="rgb(0%, 58.823529%, 63.529412%)" d="M208.141,170.488 C213.723,209.348 227.031,196.223 166.504,198.457 C78.543,196.484 114.484,213.734 97.969,151.316 C99.418,147.203 126.312,147.898 202.824,144.262 C208.418,141.102 202.012,133.406 208.141,170.488"/>
  <path fill="rgb(98.823529%, 98.431373%, 6.27451%)" opacity="0.991" d="M20.332,283.207 C17.297,305.719 18.832,332.488 13.695,371.008 C-32.309,372.188 -3.914,345.219 -44.172,337.527 C-34.566,262.238 -81.891,196.305 11.781,104.75 C14.262,303.199 16.602,289.832 20.332,283.207"/>
  <path fill="rgb(100%, 70.588235%, 0%)" d="M426.609,296.281 C334.855,277.047 299.656,278.012 290.777,284.652 C390.594,290.066 286.551,268.324 -12.625,284.785 C251.621,295.379 342.945,281.285 297.797,288.676 C291.402,302.801 327.316,305.496 426.609,296.281"/>
  <path fill="rgb(47.45098%, 73.72549%, 47.45098%)" opacity="0.132" d="M338.191,360.242 C131.488,344.762 69.148,366.883 105.125,353.145 C121.371,369.746 84.062,352.254 19.875,356.75 C96.363,353.055 137.957,356.277 132.797,354.883 C87.715,366.102 111.859,357.684 338.191,360.242"/>
  <path fill="rgb(0%, 52.156863%, 92.156863%)" d="M109.852,239.594 C114.16,393.379 82.426,369.598 147.91,362.035 C52.352,370.129 68.59,384.23 38.102,304.379 C95.238,278.203 36.961,301.746 81.691,290.754 C106.156,376.488 110.27,386.258 109.852,239.594"/>
  <path fill="rgb(94.901961%, 9.019608%, 30.588235%)" opacity="0.999" d="M211.109,348.602 C221.777,379.328 237.16,365.355 153.285,368.738 C109.992,365.223 102.816,372.238 102.605,361.844 C92.031,289.062 107.328,322.035 185.379,311.703 C201.84,318.316 213.707,295.52 211.109,348.602"/>
  <path fill="rgb(14.117647%, 66.27451%, 15.294118%)" opacity="0.941" d="M13.754,-1.566 C16.809,0.355 11.391,-2.469 -5.473,-4.191 C-10.73,16.152 -12.539,9.703 -12.539,0.375 C-10.812,-6.066 -6.125,-10.754 2.871,-15.621 C5.672,-10.066 10.238,-4.754 13.754,-1.566"/>
  <path fill="rgb(100%, 79.215686%, 0%)" d="M433.156,237.551 C428.168,259.609 475.574,305.633 334.945,370.336 C326.703,215.832 333.855,170.879 337.812,202.309 C333.129,230.629 331.859,187.914 337.207,-12.453 C520.965,76.855 452.777,149.816 433.156,237.551"/>
  <path fill="rgb(80%, 35.294118%, 34.901961%)" opacity="0.006" d="M151.309,353.375 C122.723,363.102 98.176,373.652 85.363,372.453 C97.566,365.168 88.016,365.602 20.086,361.734 C26.23,345.723 131.129,373.609 137.75,363.363 C99.23,355.574 166.188,350.598 151.309,353.375"/>
  <path fill="rgb(93.72549%, 60.392157%, 29.019608%)" opacity="0.026" d="M348.824,195.461 C369.332,195.02 336.84,196.93 318.695,195.914 C332.152,182.148 303.691,189.75 334.367,186.16 C321.441,163.48 291.844,165.332 337.391,172.039 C370.191,172.508 211.676,183.328 348.824,195.461"/>
  <path fill="rgb(86.666667%, 52.156863%, 0.784314%)" opacity="0.992" d="M287.523,26.137 C188.426,30.066 146,27.98 167.043,33.273 C149.188,46.906 58.473,65.801 -48.844,31.992 C132.539,17.707 190.16,22.477 149.016,34.707 C144.727,20.25 214.383,18.469 287.523,26.137"/>
  <path fill="rgb(63.529412%, 41.960784%, 13.333333%)" opacity="0.455" d="M136.273,212.207 C158.273,206.715 156.566,221.668 151.273,247.895 C115.137,261.988 125.438,229.285 126.535,222.625 C130.969,209.016 136.848,212.84 138.734,205.074 C133.707,207.641 143.57,220.98 136.273,212.207"/>
  <path fill="rgb(85.882353%, 48.627451%, 1.960784%)" opacity="0.015" d="M441.652,37.93 C383.441,42.742 362.98,29.195 366.727,34.492 C366.242,31.047 335.395,30.973 194.012,24.93 C259.586,16.641 335.664,23.055 332.191,29.562 C353.84,32.855 387.879,32.293 441.652,37.93"/>
  <path fill="rgb(99.607843%, 99.607843%, 0%)" opacity="0.999" d="M10.938,6.906 C16.535,23.371 23.621,68.871 6.602,196.711 C-45.473,99.004 -13.316,51.672 -13.785,40.289 C-10.465,31.672 -5.738,29.953 3.309,37.938 C-8.418,29.758 -18.578,29.02 10.938,6.906"/>
  <path fill="rgb(100%, 94.901961%, 4.313725%)" opacity="0.982" d="M54.941,333.312 C59.785,323.145 60.258,333.293 73.297,366.723 C37.371,369.836 50.387,375.488 33.852,332.688 C23.988,299.355 20.859,314.445 49.184,301.57 C61.242,332.008 67.734,351.957 54.941,333.312"/>
  <path fill="rgb(76.862745%, 18.431373%, 26.27451%)" opacity="0.58" d="M210.516,321.379 C206.199,371.484 218.145,366.426 209.969,360.48 C195.414,358.941 198.75,380.133 193.652,311.363 C198.82,361.688 217.164,387.848 210.07,320.082 C211.688,324.645 208.156,319.039 210.516,321.379"/>
  <path fill="rgb(54.509804%, 39.215686%, 51.764706%)" opacity="0.449" d="M15.852,-6.145 C13.422,-1.613 2.605,-0.973 -7.906,-4.32 C-7.906,18.402 -11.117,8.969 -12.293,0.32 C-10.57,-6.105 -5.887,-10.789 0.492,-13.086 C4.254,-9.207 9.074,-4.508 15.852,-6.145"/>
  <path fill="rgb(49.803922%, 76.078431%, 20.392157%)" opacity="0.059" d="M112.625,130.812 C117.551,140.461 115.023,158.195 99.25,141.91 C61.242,141.035 87.539,159.695 85.168,135.801 C123.055,106.457 109.66,167.742 101.863,127.098 C98.883,133.863 101.82,126.164 112.625,130.812"/>
  <path fill="rgb(53.333333%, 74.901961%, 77.647059%)" opacity="0.954" d="M321.25,150.305 C332.562,181.465 333.812,195.848 327.734,199.199 C264.645,197.129 261.215,210.523 284.664,171.016 C311.469,128.348 267.773,249.91 251.84,175.188 C313.848,147.789 322.465,148.547 321.25,150.305"/>
  <path fill="rgb(71.764706%, 13.333333%, 30.980392%)" opacity="0.809" d="M8.16,-7.664 C1.672,-4.77 -4.543,-0.059 -10.223,2.594 C-10.438,15.82 -14.27,10.75 -12.516,0.887 C-10.512,-6.324 -5.824,-11.008 0.574,-12.723 C6.965,-11.008 9.195,-5.082 8.16,-7.664"/>
</svg>

