<svg xmlns="http://www.w3.org/2000/svg" width="384" height="384" viewBox="0 0 384 384">
  <defs/>
  <path fill="rgb(37.647059%, 86.666667%, 92.54902%)" opacity="0.819" d="M182.578,93.473 C184.27,166.934 153.52,149.203 3.289,205.773 C-1.891,251.211 -7.848,253.293 -11.355,56.789 C-12.754,-7.078 -7.93,-12.84 38.172,-25.684 C215.031,-17.301 181.656,5.789 182.578,93.473"/>
  <path fill="rgb(28.627451%, 86.27451%, 91.764706%)" opacity="0.752" d="M280.633,369.832 C250.262,516.836 219.359,465.734 103.344,410.418 C-5.215,404.262 -12.262,404.512 -5.383,321.48 C-35.566,258.438 -51.5,244.766 87.902,226.859 C157.789,247.43 188.746,233.637 280.633,369.832"/>
  <path fill="rgb(56.862745%, 0%, 0.392157%)" d="M402.934,100.297 C440.473,175.176 479.484,213.043 369.254,227.844 C236.613,150.27 254.227,117.125 272.824,100.598 C233.68,-19.867 255.027,-27.758 297.875,-11.406 C391.547,-18.594 396.906,-15.949 402.934,100.297"/>
  <path fill="rgb(84.313725%, 0%, 0%)" d="M394.742,231.5 C415.758,291.715 423.293,309.25 401.703,299.66 C143.23,211.23 189.527,111.625 113.352,-38.543 C78.68,-16.934 92.426,-12.125 187.219,14.844 C265.418,11.645 269.871,16.297 394.742,231.5"/>
  <path fill="rgb(40.784314%, 92.156863%, 96.078431%)" d="M401.887,320.211 C368.578,393.676 367.195,401.797 330.965,395.793 C-17.93,370.238 8.07,306.832 -12.77,244.207 C21.059,113.422 93.602,155.496 155.16,122.25 C170.191,112.812 237.484,90.895 401.887,320.211"/>
  <path fill="rgb(47.843137%, 87.058824%, 94.117647%)" opacity="0.999" d="M401.215,351.207 C398.941,383.492 398.949,392.074 358.004,408.469 C322.109,409.734 301.145,420.578 244.02,388.336 C278.34,284.953 267.617,219.215 388.441,161.516 C439.488,286.719 413.551,315.848 401.215,351.207"/>
  <path fill="rgb(0%, 0%, 2.745098%)" d="M319.785,27.477 C226.012,113.988 245.109,157.766 202.91,153.492 C199.883,159.859 207.395,139.949 193.336,137.422 C199.16,129.793 218.09,132.629 227.672,113.426 C253.078,108.781 221.531,66.703 319.785,27.477"/>
  <path fill="rgb(56.862745%, 2.745098%, 0%)" opacity="0.999" d="M203.422,144.562 C217.57,159.227 205.625,159.133 130.445,248.336 C140.934,172.715 201.824,186.527 148.035,152.516 C185.34,137.176 156.703,123.715 175.719,113.711 C223.668,121.195 222.355,120.895 203.422,144.562"/>
  <path fill="rgb(3.137255%, 0%, 1.960784%)" d="M228.508,295.73 C223.629,320.836 207.77,359.113 153.352,351.043 C161.609,383.117 121.699,386.996 64.906,328.879 C146.285,290.855 196.922,294.582 205.98,223.305 C216.645,301.543 261.656,266.781 228.508,295.73"/>
  <path fill="rgb(0%, 0%, 1.568627%)" d="M282.148,109.621 C312.363,262.586 142.305,189.773 123.051,338.93 C147.488,419.469 -34.387,295.562 82.227,285.016 C179.918,229.551 137.316,257.234 169.691,215.629 C248.031,172.301 131.781,317.453 282.148,109.621"/>
  <path fill="rgb(44.313725%, 87.843137%, 94.509804%)" opacity="0.952" d="M397.312,76.684 C410.078,100.195 415.816,108.148 384.961,104.586 C354.949,104.711 360.113,97.074 355.441,65.816 C339.246,43.57 317.121,53.707 344.422,53.102 C397.641,40.977 391.047,57.996 397.312,76.684"/>
  <path fill="rgb(83.921569%, 8.235294%, 0%)" d="M204.66,321.742 C99.406,276.395 157.352,289.469 119.285,302.355 C100.629,297.605 113.43,276.691 56.473,290.855 C55.004,226.105 109.887,247.25 105.367,208.805 C188.699,246.457 260.227,254.512 204.66,321.742"/>
  <path fill="rgb(42.745098%, 88.627451%, 93.333333%)" opacity="0.981" d="M404.328,45.484 C360.133,67.793 335.105,40.496 327.391,66.633 C320.039,18.816 334.719,-4.973 240.996,96.871 C235.062,-112.777 252.164,-42.09 309.184,-25.508 C388.73,-10.16 395.074,-2.973 404.328,45.484"/>
  <path fill="rgb(40.392157%, 92.156863%, 93.72549%)" opacity="0.97" d="M369.383,74.309 C371.582,114.277 367.16,94.223 327.938,112.047 C290.281,151.832 271.504,85.199 336.637,85.367 C350.473,81.793 361.203,79.992 355.023,48.797 C374.383,44.926 368.078,46.832 369.383,74.309"/>
  <path fill="rgb(41.960784%, 90.588235%, 94.117647%)" d="M422.426,141.543 C412.859,172.184 418.656,186.727 329.996,221.656 C223.961,226.551 320.969,156.289 257.383,138.113 C307.473,49.824 309.52,58.258 335.074,90.742 C416.137,75.77 419.34,87.594 422.426,141.543"/>
  <path fill="rgb(76.078431%, 0%, 0%)" d="M285.207,189.059 C267.902,207.664 279.605,211.066 273.848,221.637 C241.199,197.586 226.055,213.996 211.934,213.922 C216.684,167.922 204.5,145.105 296.699,114.188 C317.113,125.82 319.344,163.875 285.207,189.059"/>
  <path fill="rgb(98.823529%, 94.509804%, 95.686275%)" opacity="0.895" d="M231.684,168.871 C219.605,169.254 219.312,174.098 184.762,226.973 C161.707,223.84 182.484,224.57 180.836,189.168 C201.562,166.203 205.602,157.969 249.836,107.414 C327.242,12.539 268.148,94.902 231.684,168.871"/>
  <path fill="rgb(100%, 100%, 93.72549%)" d="M160.008,299.473 C129.41,342.898 139.977,359.949 109.055,346.164 C107.113,338.812 118.172,326.234 120.668,312.137 C117.707,312.312 125.164,293.996 134.379,260.793 C203.059,268.918 145.672,293.031 160.008,299.473"/>
  <path fill="rgb(100%, 30.196078%, 60.392157%)" d="M197.508,255.598 C203.262,245.383 170.105,244.551 206.539,238.832 C207.59,225.359 190.48,214.902 147.254,218.062 C165.543,203.926 186.945,196.133 155.848,221.648 C177.039,230.895 203.164,231.047 197.508,255.598"/>
  <path fill="rgb(76.470588%, 10.196078%, 0%)" d="M274.625,182.586 C267.539,209.051 229.234,200.867 217.234,270.539 C177.355,281.77 166,231.523 196.484,192.586 C222.418,175.691 225.004,161.438 270.902,98.566 C313.004,103.965 317.852,151.918 274.625,182.586"/>
  <path fill="rgb(20.784314%, 74.901961%, 57.647059%)" opacity="0.85" d="M220.383,83.266 C218.527,68.898 211.309,88.422 193.637,89.227 C176.355,97.852 159.445,104.18 117.559,45.504 C131.637,29.645 148.887,43.816 212.594,36.129 C226.93,44.633 220.098,60.82 220.383,83.266"/>
  <path fill="rgb(49.019608%, 89.411765%, 92.156863%)" d="M229.277,9.008 C218.277,38.316 217.676,55.949 205.715,85.859 C137.891,81.652 92.418,125.148 52.418,40.672 C110.625,-53.461 140.273,-37.223 186.879,-35.555 C212.191,-9.203 221,-0.273 229.277,9.008"/>
  <path fill="rgb(48.627451%, 89.019608%, 93.333333%)" d="M240.238,80.676 C247.402,90.414 221.137,73.883 187.414,93.605 C140.113,147.785 76.914,175.125 34.918,77.18 C155.789,48.66 199.18,65.344 230.383,55.07 C236.598,48.586 239,51.812 240.238,80.676"/>
  <path fill="rgb(47.058824%, 90.588235%, 93.333333%)" opacity="0.999" d="M241.18,63.73 C239.398,83.441 243.535,68.148 214.984,67.281 C212.004,54.613 216.328,54.434 214.98,68.23 C214.57,32.734 200.914,12.746 232.84,-22.777 C243.98,-3.48 239.234,13.32 241.18,63.73"/>
  <path fill="rgb(43.921569%, 91.764706%, 92.941176%)" opacity="0.289" d="M241.996,73.461 C240.77,65.957 240.082,69.125 247.121,89.395 C219.367,72.586 208.367,61.801 218.023,56.398 C225.027,66.715 208.133,60.52 228.883,64.715 C244.121,55.512 244.715,60.309 241.996,73.461"/>
  <path fill="rgb(73.333333%, 10.980392%, 0%)" d="M235.184,277.57 C228.625,334.578 221.305,367.598 152.938,377.492 C134.281,329.25 109.719,375.582 133.02,318.926 C154.445,280.965 161.836,285.129 168.91,260.852 C168.965,275.723 182.492,272.09 235.184,277.57"/>
  <path fill="rgb(100%, 100%, 100%)" opacity="0.998" d="M262.496,102.703 C214.41,143.555 203.742,174.762 189.453,181.777 C224.469,178.078 214.27,177.676 218.723,170.746 C211.129,166.418 201.195,160.48 182.531,197.711 C190.602,229.379 196.93,210.68 262.496,102.703"/>
  <path fill="rgb(22.352941%, 16.470588%, 0%)" opacity="0.692" d="M27.516,-1.613 C3.652,-8.07 -7.52,-0.562 -12.988,8.742 C-18.324,24.453 -19.93,18.305 -16.562,5.43 C-10.57,-6.105 -5.887,-10.789 17.879,-13.016 C23.195,-12.352 26.297,-11.672 27.516,-1.613"/>
  <path fill="rgb(69.803922%, 5.882353%, 0%)" opacity="0.989" d="M154.152,262.73 C171.105,274.633 168.621,271.914 135.16,262.152 C113.141,343.418 116.898,346.574 113.891,274.922 C106.305,239.898 127.613,232.414 165.91,225.918 C228.031,275.215 190.938,294.793 154.152,262.73"/>
  <path fill="rgb(83.529412%, 5.490196%, 13.72549%)" opacity="0.933" d="M213.715,190.332 C203.949,250.18 206.176,250.398 161.223,233.734 C145.512,213.133 173.523,232.453 122.234,220.184 C146.195,204.492 131.77,213.465 170.508,213.832 C183.629,173.328 189.922,183.547 213.715,190.332"/>
</svg>

