<svg xmlns="http://www.w3.org/2000/svg" width="384" height="384" viewBox="0 0 384 384">
  <defs/>
  <path fill="rgb(61.960784%, 8.627451%, 34.509804%)" opacity="0.858" d="M351.273,19.785 C346.414,83.137 382.676,157.926 207.777,172.785 C146.594,140.926 144.824,129.57 170.348,119.633 C173.613,-77.781 193.543,-42.812 268.422,-5.629 C341.777,-25.449 351.527,-33.426 351.273,19.785"/>
  <path fill="rgb(59.215686%, 19.607843%, 32.54902%)" opacity="0.953" d="M122.66,203.453 C172.387,216.32 185.473,229.551 141.98,233.93 C-134.695,223.176 -99.562,215.438 -37.355,153.508 C-14.84,5.035 -13.523,-2.777 3.871,-20.855 C47.078,-4.922 28.141,33.281 122.66,203.453"/>
  <path fill="rgb(60%, 25.098039%, 30.980392%)" d="M399.801,285.258 C369.117,585.754 340.285,507.355 159.57,417.332 C12.301,464.23 -7.555,502 -34.812,209.492 C-45.477,189.145 -33.422,171.746 199.582,201.547 C341.723,186.484 386.613,142 399.801,285.258"/>
  <path fill="rgb(59.607843%, 24.313725%, 34.117647%)" opacity="0.981" d="M192.16,90.773 C207.016,183.23 216.262,207.594 126.512,218.582 C-10.574,146.809 24.445,50.227 8.258,-9.918 C5.07,-20.688 8.77,-22.059 124.535,-47.254 C195.375,-86.605 193.492,-109.91 192.16,90.773"/>
  <path fill="rgb(54.117647%, 41.568627%, 8.627451%)" opacity="0.317" d="M402.734,48.953 C444.086,193.227 517.477,260.031 369.449,217.324 C127.289,269.211 88.727,249.133 114.773,197.086 C271.605,-5.742 292.332,-13.723 344.469,-23.605 C388.949,-15.707 395.086,-14.125 402.734,48.953"/>
  <path fill="rgb(60.392157%, 24.705882%, 32.54902%)" opacity="0.999" d="M379.977,-20.191 C450.609,313.066 367.633,249.375 299.824,182.66 C278.547,209.875 289.184,196.926 271.215,191.641 C277.953,200.918 313.117,176.656 288.906,178.164 C358.586,131.484 215.32,49.363 379.977,-20.191"/>
  <path fill="rgb(100%, 64.705882%, 13.333333%)" opacity="0.782" d="M332.098,118.883 C336.586,136.414 323.418,135.754 257.254,146.422 C180.492,159.703 122.102,167.66 125.234,91.406 C185.906,46.371 274.082,73.008 278.703,74.867 C285.762,82.582 310.02,83.828 332.098,118.883"/>
  <path fill="rgb(80%, 0%, 9.803922%)" d="M322.633,175.59 C342.109,203.105 300.711,225.336 259.066,230.242 C197.328,242.219 93.781,230.621 103.785,165.129 C186.41,198.391 374.438,175.348 163.879,187.98 C249.809,157.281 281.277,217.879 322.633,175.59"/>
  <path fill="rgb(58.823529%, 26.27451%, 29.411765%)" opacity="0.796" d="M337.336,5.07 C292.879,96.551 250.73,55.73 155.59,71.258 C91.848,106.754 47.422,110.477 13.383,22.238 C62.641,-58.766 98.863,-41.211 138.031,-36.316 C222.027,-30.188 259.16,-53.469 337.336,5.07"/>
  <path fill="rgb(100%, 67.058824%, 34.509804%)" d="M326.25,237.426 C325.816,325.828 147.527,304.879 130.551,286.277 C166.328,281.465 117.211,318.656 88.113,230.855 C104.129,184.633 103.855,212.348 189.504,237.004 C230.625,315.688 326.105,213.598 326.25,237.426"/>
  <path fill="rgb(99.607843%, 17.647059%, 43.137255%)" opacity="0.972" d="M265.594,167.211 C241.852,216.883 219.715,217.512 147.258,197.66 C82.957,170.723 99.508,156.41 124.84,117.199 C139.965,122.043 151.578,132.234 148.02,124.711 C154.355,144.043 176.258,140.055 265.594,167.211"/>
  <path fill="rgb(100%, 99.607843%, 0.392157%)" d="M329.734,153.664 C344.59,187.742 285.098,203.676 227.902,209.609 C196.238,189.531 187.449,179.91 179.965,173.859 C186.836,93.445 204.508,115.586 244.91,142.777 C306.199,152.594 299.707,130.949 329.734,153.664"/>
  <path fill="rgb(100%, 55.294118%, 4.705882%)" opacity="0.567" d="M184.125,149.867 C154.629,149.559 113.098,146.723 143.176,184.996 C88.688,181.109 116.738,159.469 108.879,172.469 C105.797,112.965 123.891,108.082 130.047,112.285 C169.922,119.383 169.809,108.734 184.125,149.867"/>
  <path fill="rgb(96.470588%, 60.784314%, 32.156863%)" d="M253.918,117.453 C206.613,186.035 211.578,197.812 169.695,192.555 C114.867,181.223 117.242,169.195 98.512,136.664 C99.625,109.664 118.398,95.742 123.152,94.352 C182.012,98.969 212.699,91.43 253.918,117.453"/>
  <path fill="rgb(28.235294%, 88.627451%, 3.529412%)" opacity="0.999" d="M355.633,218.949 C369.898,238.852 364.938,254.797 280.699,252.664 C288.551,262.719 209.285,339.188 150.777,226.18 C271.371,244.555 314.629,213.953 328.145,184.363 C373.66,181.98 367.477,222.004 355.633,218.949"/>
  <path fill="rgb(59.607843%, 26.27451%, 29.411765%)" opacity="0.395" d="M402.309,11.023 C393.238,25.793 369.527,17.551 350.84,41.945 C317.047,44.188 288.75,63.383 281.703,12.77 C292.344,-63.945 304.684,-57.586 325.711,-47.387 C381.719,-9.391 388.934,-7.594 402.309,11.023"/>
  <path fill="rgb(98.431373%, 96.470588%, 93.333333%)" opacity="0.948" d="M315.473,250.605 C304.113,253.434 279.277,268.98 270.176,269.402 C267.59,271.32 271.219,271.52 260.516,278.984 C275.77,264.578 285.82,262.398 277.324,228.078 C275.844,218.59 269.113,245.594 315.473,250.605"/>
  <path fill="rgb(93.72549%, 60.784314%, 35.294118%)" opacity="0.997" d="M328.801,159.031 C208.613,204.508 179.059,162.84 171.168,177.668 C150.816,187.465 152.477,183.395 140.246,175.379 C141.914,153.883 144.051,141.754 182.516,105.465 C309.926,123.09 353.68,92.301 328.801,159.031"/>
  <path fill="rgb(100%, 99.215686%, 0%)" opacity="0.998" d="M287.312,187.574 C247.914,184.645 201.309,187.52 169.766,199.055 C148.473,200.488 145.457,186.312 110.445,172.234 C92.848,134.922 111.543,160.969 138.605,168.215 C162.852,176.445 161.047,179.047 287.312,187.574"/>
  <path fill="rgb(29.019608%, 88.235294%, 0%)" d="M164.66,226.531 C177.371,263.219 186.574,246.277 142.09,274.73 C63.07,254.535 75.262,272.633 72.66,233.828 C39.742,177.613 85.582,167.832 100.711,168.469 C106.332,198.047 115.996,211.34 164.66,226.531"/>
  <path fill="rgb(35.686275%, 80.392157%, 15.686275%)" opacity="0.183" d="M195.258,275.672 C221.047,282.543 219.891,267.492 201.492,260.84 C178.801,272.422 172.004,262.848 191.875,237.066 C198.68,264.676 165.191,258.578 161.633,244.074 C203.363,231.879 195.59,243.898 195.258,275.672"/>
  <path fill="rgb(70.980392%, 25.882353%, 36.078431%)" opacity="0.473" d="M1.273,-0.352 C1.371,-5.363 -6.609,9.922 -0.418,8.73 C-4.184,6.594 -13.035,6.285 -15.66,0.266 C-10.57,-6.105 -5.887,-10.789 -4.543,-8.016 C2.121,-9.672 6.48,-2.184 1.273,-0.352"/>
  <path fill="rgb(29.803922%, 87.843137%, 3.529412%)" opacity="0.89" d="M168.789,245.402 C178.984,262.207 183.727,255.012 176.688,254.496 C158.98,270.367 139.93,271.484 146.176,260.934 C150.57,238.195 151.676,246.613 148.859,228.812 C170.16,224.734 169.434,228.109 168.789,245.402"/>
  <path fill="rgb(100%, 21.960784%, 50.196078%)" d="M289.332,194.902 C274.82,210.148 240.797,200.457 255.484,196.102 C289.113,199.172 286.344,205.395 228.09,210.121 C257.422,185.031 265.445,191.73 279.941,190.41 C269.57,195.531 283.512,190.98 289.332,194.902"/>
  <path fill="rgb(92.54902%, 0%, 43.137255%)" opacity="0.646" d="M298.375,197.566 C309.504,199.184 306.277,194.016 281.586,201.859 C238.473,215.18 235.715,186.891 273.703,188.25 C292.293,189.688 312.754,184.453 311.367,191.09 C268.34,209.422 274.867,182.477 298.375,197.566"/>
  <path fill="rgb(15.294118%, 21.568627%, 12.54902%)" opacity="0.867" d="M2.613,-12.18 C-2.43,-6.449 -3.531,4.07 -1.949,16.32 C-4.805,10 -10.605,6.148 -15.508,3.258 C-10.461,-5.922 -5.777,-10.605 0.492,-12.281 C3.523,-8.301 6.773,-1.133 2.613,-12.18"/>
  <path fill="rgb(37.254902%, 60%, 32.941176%)" opacity="0.249" d="M8.633,-20.988 C3.953,-12.887 2.746,3.012 5.637,17.879 C-7.422,9.258 -15.707,9.23 -18.91,4.277 C-10.512,-6.324 -5.824,-11.008 0.344,-13.734 C8.18,-13.078 12.598,-8.27 8.633,-20.988"/>
  <path fill="rgb(63.529412%, 20.784314%, 43.137255%)" opacity="0.184" d="M73.344,137.078 C72.254,114.898 82.125,114.328 82.328,150.523 C71.402,137.934 67.137,128.637 63.887,107.738 C44.164,71.184 43.086,79.059 72.059,83.258 C79.75,95.648 85.613,99.695 73.344,137.078"/>
  <path fill="rgb(74.117647%, 15.294118%, 43.529412%)" opacity="0.183" d="M316.316,5.918 C317.84,4.992 319.191,19.137 322.641,-1.684 C303.57,0.957 306.07,4.195 301.223,-10.238 C303.273,-7.777 306.711,-13.676 328.82,-4.172 C339.305,-1.062 346.215,3.984 316.316,5.918"/>
  <path fill="rgb(59.215686%, 40.784314%, 51.764706%)" opacity="0.467" d="M11.715,-15.961 C1.793,-8.699 -11.48,7.004 -1.559,20.691 C-4.621,6.504 -13.656,4.738 -14.363,-2.613 C-10.812,-6.066 -6.125,-10.754 -6.762,-6.105 C3.066,-6.254 16.598,-11.441 11.715,-15.961"/>
</svg>

