<svg xmlns="http://www.w3.org/2000/svg" width="384" height="384" viewBox="0 0 384 384">
  <defs/>
  <path fill="rgb(0%, 26.666667%, 41.176471%)" opacity="0.978" d="M314.43,347.465 C328.527,423.004 327.5,436.352 294.062,427.859 C80.859,396.062 77.582,395.617 64.562,369.297 C178.855,207.488 166.566,177.391 238.559,147.699 C271.102,171.758 262.398,195.812 314.43,347.465"/>
  <path fill="rgb(0.784314%, 30.196078%, 35.294118%)" opacity="0.994" d="M363.102,42.922 C237.344,272.254 246.02,288.895 160.695,271.969 C136.492,279.34 131.938,281.633 73.828,85.246 C12.289,-10.719 -30.715,-18.332 95.047,-25.035 C443.949,-10.645 441.461,7.238 363.102,42.922"/>
  <path fill="rgb(3.529412%, 29.019608%, 36.078431%)" opacity="0.996" d="M116.699,184.84 C137.535,349.344 168.324,392.727 69.891,412.516 C-83.312,390.68 -64.824,381.656 -23.457,318.586 C-54.102,58.633 -126.664,-9.094 3.59,-7.09 C203.07,53.793 163.867,102.344 116.699,184.84"/>
  <path fill="rgb(47.45098%, 10.980392%, 8.627451%)" opacity="0.363" d="M194.391,209.625 C145.254,267.902 154.793,286.816 84.578,326.383 C41.348,314.801 52.258,280.715 70.488,224.855 C66.371,156.547 50.816,143.422 113.359,141.746 C203.293,148.113 191.352,159.641 194.391,209.625"/>
  <path fill="rgb(4.705882%, 24.313725%, 45.882353%)" opacity="0.998" d="M399.781,311.48 C423.883,373.871 437.672,384.062 346.223,418.371 C194.176,411.633 237.02,339.449 237.188,165.141 C216.395,43.738 169.094,49.266 418.469,18.211 C468.535,15.496 413.32,85.32 399.781,311.48"/>
  <path fill="rgb(100%, 96.862745%, 2.745098%)" d="M345.426,298.508 C296.012,215.91 251.414,268.809 273.449,293.977 C226.789,292.023 216.113,286.586 221.668,276.23 C225.855,223.508 235.176,229.598 252.363,217.566 C306.301,226.266 367.215,209.145 345.426,298.508"/>
  <path fill="rgb(98.823529%, 95.686275%, 20.784314%)" opacity="0.963" d="M334.082,223.91 C281.809,237.199 280.477,223.504 267.973,222.617 C216.102,239.648 224.48,241.887 191.555,217.434 C204.773,215.762 252.152,215.266 274.977,217.383 C266.961,228.242 302.293,227.027 334.082,223.91"/>
  <path fill="rgb(100%, 100%, 0%)" d="M209.832,230.48 C197.316,284.574 205.434,285.18 126.176,284.301 C56.59,197.332 90.129,310.703 0.332,291.289 C9.191,91.371 7.914,167.211 23.605,217.352 C197.445,216.711 218.715,212.918 209.832,230.48"/>
  <path fill="rgb(100%, 100%, 0%)" d="M266.883,272.922 C261.902,301.57 243.898,290.18 172.363,291.875 C112.109,292.586 112.062,307.293 122.223,265.824 C145.836,208 131.312,219.285 189.141,220.176 C261.746,216.906 267.621,204.922 266.883,272.922"/>
  <path fill="rgb(100%, 98.039216%, 0.392157%)" opacity="0.993" d="M339.578,258.156 C351.512,314.957 307.566,315.105 320.965,242.418 C307.094,222.344 332.246,253.145 321.055,173.562 C366.516,154.859 303.93,199.023 218.168,199.293 C398.363,181.543 299.156,140.352 339.578,258.156"/>
  <path fill="rgb(3.529412%, 28.235294%, 38.823529%)" opacity="0.832" d="M322.539,72.094 C312.242,142.406 314.895,172.07 245.781,183.406 C191.801,167.652 202.57,137.008 212.887,62.617 C211.277,43.672 216.148,41.781 275.18,37.219 C302.574,31.438 295.07,40.043 322.539,72.094"/>
  <path fill="rgb(1.568627%, 29.019608%, 37.647059%)" opacity="0.546" d="M398.789,272.629 C414.648,430.117 373.066,423.742 230.824,441.094 C107.176,469.789 53.254,511.031 50.543,320.656 C132.789,329.883 174.391,312.047 301.562,298.469 C405.207,310.91 392.41,317.664 398.789,272.629"/>
  <path fill="rgb(1.960784%, 30.196078%, 37.254902%)" opacity="0.686" d="M407.328,56.508 C400.812,67.32 408.684,83.062 387.461,168.25 C309.559,138.871 311.969,122.848 310.371,70.367 C339.246,12.23 335.395,-2.328 375.715,-21.461 C401.609,30.477 399.625,42.453 407.328,56.508"/>
  <path fill="rgb(1.960784%, 26.27451%, 37.647059%)" opacity="0.729" d="M419.602,22.059 C387.348,62.867 373.617,64.242 307.953,72.184 C285.023,81.773 274.285,70.926 263.527,1.246 C296.684,-21.242 321.621,-3.938 353.848,-10.609 C360.164,-7.082 369.496,-16.863 419.602,22.059"/>
  <path fill="rgb(1.176471%, 27.45098%, 42.745098%)" opacity="0.72" d="M410,242.719 C325.039,294.699 380.98,162.555 345.727,165.82 C278.434,155.262 207.055,197.762 257.195,155.223 C267.164,58.676 241.238,21.473 298.266,18.859 C381.68,21.859 412.203,23.758 410,242.719"/>
  <path fill="rgb(98.823529%, 70.196078%, 2.745098%)" opacity="0.987" d="M284.625,243.914 C286.148,218.359 310.441,227.922 151.988,224.902 C282.801,214.852 272.527,227.598 273.305,207.656 C108.547,210.875 129.613,208.266 272.227,208.5 C266.758,149.91 283.262,162.148 284.625,243.914"/>
  <path fill="rgb(94.117647%, 97.647059%, 1.960784%)" opacity="0.917" d="M186.125,208.707 C97.52,214.918 57.957,194.402 73.418,234.969 C56.965,219.371 71.316,249.426 68.316,194.672 C-24.141,210.398 -19.199,193.395 253.34,199.145 C13.059,183.035 23.582,223.559 186.125,208.707"/>
  <path fill="rgb(100%, 100%, 0%)" d="M338.723,180.125 C297.758,182.566 95.688,174.664 151.461,177.375 C103.426,178.504 -42,190.391 -1.887,156.191 C88.082,121.887 154.309,178.094 61.355,142.715 C49.145,144.434 334.961,124.449 338.723,180.125"/>
  <path fill="rgb(98.823529%, 29.411765%, 5.098039%)" opacity="0.989" d="M219.82,224.152 C133.551,223.52 158.363,229.945 212.145,218.828 C175.332,224.262 80.449,216.168 -6.941,231.316 C254.668,215.98 224.16,246.867 224.629,174.559 C216.211,185.473 235.105,237.102 219.82,224.152"/>
  <path fill="rgb(1.568627%, 34.509804%, 29.019608%)" opacity="0.248" d="M412.223,249.301 C416.965,293.473 423.434,309.293 384.473,309.301 C335.746,298.145 367.781,309.277 349.984,308.57 C357.051,242.648 349.648,261.168 360.117,258.051 C396.961,242.199 410.293,243.66 412.223,249.301"/>
</svg>

