<svg xmlns="http://www.w3.org/2000/svg" width="384" height="384" viewBox="0 0 384 384">
  <defs/>
  <path fill="rgb(32.941176%, 34.509804%, 39.607843%)" opacity="0.951" d="M225.156,296.328 C184.066,419.98 187.367,429.922 81.73,430.609 C20.777,404.082 15.156,393.492 23.023,326.605 C35.746,247.938 7.77,213.684 206.047,208.863 C235.645,184.543 241.074,192.539 225.156,296.328"/>
  <path fill="rgb(31.764706%, 25.098039%, 23.137255%)" opacity="0.87" d="M428.871,166.863 C414.473,240.738 403.004,246.234 201.961,236.5 C71.34,187.195 60.547,182.422 69.391,125.566 C145.633,-14.055 142.902,-21.23 303.363,-34.727 C380.637,-83.621 391.031,-110.918 428.871,166.863"/>
  <path fill="rgb(38.039216%, 39.215686%, 42.745098%)" opacity="0.996" d="M390.887,247.645 C398.816,511.672 381.402,472.383 230.969,431.023 C133.02,434.84 134.289,433.863 123.273,308.73 C129.809,236.887 93.598,207.578 296.457,172.43 C377.715,183.762 387.098,191.547 390.887,247.645"/>
  <path fill="rgb(0%, 0%, 38.039216%)" d="M183.102,266.84 C110.953,415.637 113.535,423.75 32.781,425.277 C-26.961,387.539 -19.297,371.762 -26.863,259.059 C-69.035,161.004 -112.266,145.164 82.66,149.301 C212.961,173.77 210.301,184.93 183.102,266.84"/>
  <path fill="rgb(0%, 0%, 38.431373%)" d="M226.633,49.188 C221.434,117.812 238.809,139.043 41.301,161.191 C-25.668,158.336 -28.375,160.277 -22.367,114.539 C-7.938,-93.848 6.668,-60.012 120.789,-38.949 C207.812,-46.625 223.629,-54.836 226.633,49.188"/>
  <path fill="rgb(41.568627%, 94.117647%, 100%)" d="M355.191,119.863 C334.906,140.75 356.734,132.926 353.805,164.082 C350.109,201.773 257.703,254.23 216.684,217.668 C205.66,83.484 316.066,82.344 320.82,55.883 C348.777,44.539 356.848,53.402 355.191,119.863"/>
  <path fill="rgb(55.294118%, 97.647059%, 100%)" d="M205.531,132.074 C183.742,270.707 103.402,238.238 62.234,179.492 C33.727,109.188 91.18,142.934 47.477,77.234 C35.473,34.098 28.152,23.703 57.18,7.066 C83.234,9.473 147.016,25.105 205.531,132.074"/>
  <path fill="rgb(45.098039%, 92.54902%, 100%)" d="M377.125,73.031 C364.062,97.535 359.164,113.809 355.934,117.973 C313.605,104.477 328.93,89.785 332.789,63.25 C304.977,48.371 308.652,47.609 358.328,38.418 C377.66,21.629 394.461,41.727 377.125,73.031"/>
  <path fill="rgb(42.745098%, 93.333333%, 100%)" d="M349.215,55.758 C331.414,56.805 341.961,95.699 340.949,126.594 C277.48,143.473 213.883,167.59 217.402,141.117 C288.66,60.379 315.453,50.523 335.965,38.41 C357.5,28.789 360.254,46.812 349.215,55.758"/>
  <path fill="rgb(43.529412%, 92.941176%, 100%)" opacity="0.962" d="M381.164,44.984 C374.281,67.953 376.18,76.254 363.023,94.91 C322.367,66.461 307.984,63.34 313.773,60.652 C313.109,55.609 325.613,46.164 351.668,31.266 C375.168,27.742 383.57,34.879 381.164,44.984"/>
</svg>

