<svg xmlns="http://www.w3.org/2000/svg" width="384" height="384" viewBox="0 0 384 384">
  <defs/>
  <path fill="rgb(88.235294%, 10.196078%, 27.45098%)" opacity="0.585" d="M407.969,337.074 C413.281,390.652 411.285,395.461 207.766,385.812 C123.535,444.16 91.066,475.168 70.301,273.969 C246.719,283.715 353.07,256.578 322.812,203.395 C413.348,159.297 417.289,176.777 407.969,337.074"/>
  <path fill="rgb(83.529412%, 20.784314%, 44.705882%)" opacity="0.615" d="M405.293,86.199 C403.074,143.176 394.246,132.699 296.199,108.477 C216.266,134.75 189.301,181.027 193.215,29.047 C209.191,-28.461 220.887,-27.07 324.375,-22.398 C416.25,-9.012 407.082,0.836 405.293,86.199"/>
  <path fill="rgb(87.843137%, 20%, 11.764706%)" opacity="0.774" d="M440.188,191.184 C378.035,162.633 368.723,264.895 228.133,284.523 C184.918,248.082 303.887,152.438 122.172,175.23 C161.102,18.586 216.867,83.727 272.613,127.73 C416.359,112.688 419.926,94.219 440.188,191.184"/>
  <path fill="rgb(94.901961%, 42.745098%, 53.72549%)" opacity="0.821" d="M95.285,205.285 C211.863,210.418 265.477,151.285 200.5,445.738 C-170.656,399.242 -122.766,377.375 -29.004,182.672 C-23.609,14.676 -36.574,-12.039 56.953,9.191 C201.102,144.883 44.387,96.148 95.285,205.285"/>
  <path fill="rgb(93.333333%, 0.784314%, 1.176471%)" opacity="0.502" d="M275.715,115.668 C264.738,186.145 229.594,213.844 111.051,176.43 C120.48,22.211 59.195,59.004 3.973,-23.625 C-4.297,-42.582 10.758,-29.559 87.93,-12.555 C209.629,-27.625 210.82,-28.754 275.715,115.668"/>
  <path fill="rgb(75.686275%, 0%, 13.333333%)" opacity="0.216" d="M245.676,140.383 C167.004,213.102 138.82,107.777 92.848,138.242 C69.707,224.59 10.027,208.637 -39.961,128.375 C-7.328,-44.594 12.211,-45.918 90.473,-43.086 C152.512,17.152 155.102,30.188 245.676,140.383"/>
  <path fill="rgb(94.117647%, 42.745098%, 52.54902%)" d="M403.461,49.469 C430.84,128.504 452.074,179.16 324.707,223.383 C265.945,141.445 256.09,73.324 268.879,41.16 C284.023,16.621 337.676,28.004 351.293,36.621 C339.355,34.375 375.848,31.438 403.461,49.469"/>
  <path fill="rgb(92.156863%, 41.960784%, 49.803922%)" opacity="0.447" d="M360.395,-8.332 C365.371,50.074 373.703,67.559 313.816,58.98 C277.695,57.199 292.051,39.688 278.324,34.727 C265.473,6.109 273.273,-14.156 294.293,-29.59 C337.188,-18.496 345.945,-18.906 360.395,-8.332"/>
  <path fill="rgb(10.588235%, 83.529412%, 0%)" d="M197.973,67.281 C202.57,99.086 211.34,95.477 159.008,99.309 C121.168,77.316 131.414,54.41 134.934,2.82 C141.379,-11.762 137.746,-24.23 139.418,38.398 C149.551,39.316 175.375,32.309 197.973,67.281"/>
  <path fill="rgb(17.647059%, 3.921569%, 0%)" d="M286.922,185.434 C305.035,266.02 264.43,274.547 185.531,285.051 C86.855,273.02 78.34,247.645 87.723,199.891 C80.844,190.137 85.934,161.047 125.137,211.941 C175.016,199.777 193.809,242.043 286.922,185.434"/>
</svg>

