<svg xmlns="http://www.w3.org/2000/svg" width="384" height="384" viewBox="0 0 384 384">
  <defs/>
  <path fill="rgb(0%, 0%, 2.352941%)" d="M141.074,121.344 C23.707,177.273 45.672,150.816 179.934,333.32 C-82.82,411.836 -51.156,383.289 -27.172,184.445 C-21.031,-50.094 35.004,-89.23 89.977,-0.863 C17.305,103.871 82.383,60.863 141.074,121.344"/>
  <path fill="rgb(72.156863%, 52.156863%, 1.568627%)" opacity="0.092" d="M230.734,12 C225.73,192.012 176.023,154.5 128.734,124.93 C96.598,91.262 92.137,80.609 25.391,71.352 C127.316,57.547 186.309,75.527 133.859,-22.383 C87.395,-14.945 210.168,-54.223 230.734,12"/>
  <path fill="rgb(5.490196%, 0.392157%, 76.862745%)" opacity="0.988" d="M393.953,208.738 C452.336,381.438 493.004,399.812 287.656,380.148 C164.309,371.574 188.32,362.699 313.922,202.242 C378.605,80.434 210.305,142.676 250.844,24.223 C451.742,-45.215 415.699,2.449 393.953,208.738"/>
  <path fill="rgb(80.784314%, 2.745098%, 22.745098%)" opacity="0.806" d="M331.574,60.379 C179.188,202.203 250.996,332.773 26.098,341.23 C93.18,154.543 187.164,225.98 107.121,155.207 C99.348,110.215 100.172,96.52 272.199,-31.781 C340.809,-78.52 330.852,-88.211 331.574,60.379"/>
  <path fill="rgb(28.627451%, 49.019608%, 47.058824%)" d="M292.309,230.965 C329.926,396.715 412.949,413.285 109.289,421.777 C47.797,447.523 37.824,454.414 23.414,359.703 C210.047,101.637 220.523,99.484 255.406,178.227 C313.176,191.008 357.363,146.531 292.309,230.965"/>
  <path fill="rgb(2.352941%, 5.098039%, 88.627451%)" opacity="0.998" d="M383.715,379.953 C315.402,359.152 288.344,252.098 334.66,343.57 C212.34,351.582 331.922,237.289 244.699,250.559 C176.902,122.105 261.484,187.359 326.316,171.023 C413.219,-11.98 377.023,32.617 383.715,379.953"/>
  <path fill="rgb(1.960784%, 6.666667%, 88.235294%)" opacity="0.999" d="M180.766,94.391 C193.09,334.949 148.781,259.98 125.988,200.457 C72.488,106.66 75.391,204.137 23.863,289.254 C10.285,-66.73 -35.949,101.996 146.125,50.199 C220.117,-127.922 141.203,100.941 180.766,94.391"/>
  <path fill="rgb(99.607843%, 92.54902%, 94.509804%)" opacity="0.991" d="M356.477,76.496 C311.98,127.508 360.129,97.699 282.188,106.957 C288.219,63.469 302.277,119.512 260.852,88.781 C266.289,23.543 328.812,50.398 305.262,45.984 C349.5,24.309 285.5,68.703 356.477,76.496"/>
  <path fill="rgb(0%, 9.411765%, 52.54902%)" opacity="0.632" d="M9.398,-8.25 C5.516,-1.824 -0.078,-4.434 -5.68,-4.801 C-7.129,11.715 -12.957,8.785 -15.77,3.84 C-10.461,-5.922 -5.777,-10.605 0.715,-12.348 C10.168,-12.594 16.285,-10.363 9.398,-8.25"/>
  <path fill="rgb(2.352941%, 4.313725%, 89.019608%)" opacity="0.982" d="M302.508,237.812 C296.016,297.191 319.105,313.613 260.289,298.332 C284.805,276.113 258.152,352.891 229.32,239.992 C205.113,212.996 217.227,274.891 230.727,80.309 C302.973,205.836 245.395,211.402 302.508,237.812"/>
  <path fill="rgb(98.039216%, 81.176471%, 0%)" d="M226.891,313.641 C163.148,292.238 173.566,337.68 172.598,400.574 C122.902,394.812 130.258,385.676 129.098,369.109 C130.84,330.523 126.555,309.312 129.648,265.27 C187.426,324.301 220.93,304.871 226.891,313.641"/>
  <path fill="rgb(99.607843%, 72.941176%, 1.568627%)" opacity="0.994" d="M264.047,353.711 C258.656,394.34 263.488,405.684 211.824,400.371 C228.195,296.59 202.918,316.91 220.121,295.277 C191.098,284.473 184.898,271.93 261.188,272.75 C283.289,283.34 273.57,292.082 264.047,353.711"/>
  <path fill="rgb(100%, 76.470588%, 0%)" d="M223.25,283.668 C228.074,299.398 232.391,356.672 217.52,313.312 C126.035,311.32 129.188,332.797 127.125,280.699 C125.273,235.887 121.344,253.773 156.383,260.027 C223.633,259.121 225.578,263.328 223.25,283.668"/>
  <path fill="rgb(100%, 71.372549%, 0%)" opacity="0.999" d="M231.484,188.422 C227.355,261.02 246.895,230.422 187.312,232.82 C170.645,244.469 179.543,271.293 178.531,70.082 C137.07,45.785 262.27,45.797 256.426,73.602 C225.234,104.535 229.191,69.773 231.484,188.422"/>
  <path fill="rgb(100%, 76.862745%, 0%)" opacity="0.647" d="M229.098,288.359 C215.145,326.434 216.824,299.266 219.07,296.754 C203.793,331.023 186.188,298.043 181.879,260.062 C177.34,263.379 178.066,259.824 206.113,266.273 C229.156,261.293 232.211,261.164 229.098,288.359"/>
  <path fill="rgb(100%, 99.215686%, 98.431373%)" opacity="0.999" d="M335.184,72.664 C352.305,97.398 356.297,131.781 313.492,113.715 C294.531,83.953 273.492,138.84 249.023,76.395 C290.426,25.141 309.516,47.32 294.035,46.902 C303.941,25.324 343.945,32.418 335.184,72.664"/>
  <path fill="rgb(100%, 100%, 98.431373%)" d="M370.891,89.945 C376.719,104.762 352.02,106.68 371.801,91.871 C376.5,123.746 317.977,104.324 302.91,78.082 C322.941,43.551 311.359,48.223 326.371,68.301 C357.441,71.062 359.828,67.309 370.891,89.945"/>
  <path fill="rgb(15.294118%, 100%, 0%)" d="M130.477,348.152 C142.016,445.707 160.191,437.941 -24.91,440.793 C-97.23,379.484 2.227,315.789 21.055,418.16 C23.715,369.637 25.453,373.004 63.852,342.75 C139.641,315.352 130.023,315.984 130.477,348.152"/>
  <path fill="rgb(25.098039%, 100%, 0%)" d="M354.383,356.957 C380.582,397.922 390.137,378.293 321.754,387.352 C250.855,416.555 256.297,362.629 235.914,416.371 C240.992,420.156 252.098,375.113 269.219,322.777 C346.195,345.926 345.648,357.922 354.383,356.957"/>
  <path fill="rgb(2.352941%, 5.882353%, 91.764706%)" opacity="0.999" d="M125.359,281 C146.383,349.414 43.586,337.734 102.102,280.617 C89.25,356.762 11.77,371.512 22.262,377.895 C33.777,195.602 41.699,182.352 71.875,202.75 C162.281,225.801 120.602,125.266 125.359,281"/>
  <path fill="rgb(13.333333%, 5.098039%, 9.803922%)" opacity="0.885" d="M213.031,370.734 C206.785,399.113 224.535,403.23 201.137,414.367 C161.402,398.184 166.41,399.258 169.508,382.207 C167.75,342.441 169.211,302.668 197.938,299.148 C228.852,310.137 221.453,336.293 213.031,370.734"/>
  <path fill="rgb(0.784314%, 7.843137%, 92.156863%)" d="M212.922,39.219 C187.789,132.516 224.16,18.398 162.219,63.074 C146.758,-11.895 123.812,43.227 121.469,9.57 C93.863,-13.711 95.375,0.578 148.461,-41.895 C177.27,-33.246 186.227,-40.711 212.922,39.219"/>
  <path fill="rgb(100%, 69.411765%, 2.745098%)" opacity="0.999" d="M278.746,277.754 C275.344,309.613 274.754,312.73 249.043,283.289 C200.758,264.18 204.652,318.07 231.062,172.473 C219.457,294.957 257.188,293.445 247.984,194.676 C322.547,204.316 288.043,199.703 278.746,277.754"/>
  <path fill="rgb(100%, 78.039216%, 0%)" d="M190.859,219.734 C193.898,303.934 226.039,260.133 134.527,274.914 C138.207,281.926 123.672,258.621 118.336,212.785 C175.547,251.926 122.895,195.562 163.598,213.523 C152.34,249.645 154.477,325.27 190.859,219.734"/>
  <path fill="rgb(100%, 97.647059%, 100%)" opacity="0.989" d="M115.457,197.594 C90.492,228.047 83.168,241.543 62.027,240.434 C46.926,232.078 46.879,224.062 49.234,205.73 C45.812,221.387 49.707,187.379 87.609,173.383 C97.016,155.688 102.891,155.684 115.457,197.594"/>
  <path fill="rgb(6.666667%, 16.862745%, 67.058824%)" opacity="0.055" d="M358.383,359.812 C360.996,356.109 365.418,383.727 360.871,409.484 C354.324,406.75 356.754,385.992 362.609,382.457 C378.59,363.574 362.582,359.273 379.805,260.875 C406.961,289.184 392.414,338.223 358.383,359.812"/>
  <path fill="rgb(1.568627%, 5.490196%, 85.490196%)" opacity="0.999" d="M405.812,25.5 C388.539,38.359 408.82,35.824 372.086,78.715 C296.359,53.926 375.496,2.027 250.961,67.297 C154.848,-75.277 272.379,-41.336 372.969,-34.914 C373.367,-11.723 387.203,-17.051 405.812,25.5"/>
  <path fill="rgb(100%, 99.215686%, 98.823529%)" opacity="0.975" d="M154.945,181.168 C156.152,204.27 119.965,207.684 102.863,209.059 C101.281,224.82 89.93,222.523 49.109,222.152 C59.957,186.293 66.18,188.691 91.773,187.527 C120.48,179.945 140.363,159.566 154.945,181.168"/>
  <path fill="rgb(37.647059%, 99.215686%, 0%)" opacity="0.997" d="M43.938,361.875 C45.891,404.242 46.512,407.223 43.145,408.672 C-6.234,390.207 -4.996,379.418 -40.137,387.379 C-32.691,375.352 -2.656,373.039 9.117,372.133 C30.852,365.301 29.938,353.5 43.938,361.875"/>
  <path fill="rgb(5.098039%, 5.098039%, 88.627451%)" opacity="0.629" d="M29.227,28.648 C21.301,40.738 124.949,35.516 33.996,143.305 C16.84,58.777 14.719,31.309 24.039,44.996 C19.801,58.461 24.734,49.16 25.961,18.852 C20.77,19.641 30.527,39.699 29.227,28.648"/>
  <path fill="rgb(0.392157%, 5.098039%, 91.764706%)" d="M317.465,99.941 C400.289,112.391 358.809,208.254 299.031,129.348 C229.59,126.52 242.312,128.191 243.082,68.031 C246.188,80.156 246.348,96.215 281.516,106.582 C324.965,113.465 310.77,87.219 317.465,99.941"/>
  <path fill="rgb(0.784314%, 5.490196%, 94.901961%)" d="M291.418,130.234 C281.496,127.766 276.32,137.738 253.586,179.398 C237.305,137.109 229.266,119.734 227.918,95.477 C248.891,85.613 232.16,81.969 245.645,44.234 C295.594,63.469 211.82,65.191 291.418,130.234"/>
  <path fill="rgb(0.392157%, 20.392157%, 16.470588%)" opacity="0.824" d="M9.59,-11.406 C0.594,-6.969 -6.609,-2.348 -10.871,3.434 C-10.883,16.395 -14.996,11.48 -12.805,1.613 C-10.57,-6.105 -5.887,-10.789 0.789,-12.586 C11.254,-14.309 16.602,-11.07 9.59,-11.406"/>
</svg>

