<svg xmlns="http://www.w3.org/2000/svg" width="384" height="384" viewBox="0 0 384 384">
  <defs/>
  <path fill="rgb(0%, 0%, 3.529412%)" d="M191.719,40.582 C77.082,25.035 165.559,129.414 20,244.066 C-39.148,242.863 -19.258,217.656 -3.828,-0.984 C13.785,-28.918 21.449,-28.02 122.414,-27.309 C190.277,-7.102 211.855,-9.906 191.719,40.582"/>
  <path fill="rgb(85.098039%, 92.54902%, 35.294118%)" opacity="0.736" d="M402.504,335.777 C381.957,445.133 348.02,409.777 79.117,407.414 C2.488,454.203 -5.434,469.453 -43.324,287.234 C-12.066,144.551 96.836,131.27 115.57,182.355 C348.797,148.77 386.977,98.426 402.504,335.777"/>
  <path fill="rgb(40%, 0%, 0.392157%)" d="M249.188,104.137 C186.148,35.148 182.84,125.727 140.027,112.512 C136,142.52 57.973,174.062 57.914,203.668 C132.988,63.457 143.281,20.621 164.93,96.75 C161.488,5.766 159.578,-10.301 249.188,104.137"/>
  <path fill="rgb(0%, 0%, 3.921569%)" d="M398.234,-10.508 C380.961,160.379 342.043,156.406 260.203,110.797 C189.258,72.68 157.184,29.383 109.805,83.906 C107.039,-0.508 117.605,-7.723 200.945,-12.73 C257.523,-16.637 271.938,-19.266 398.234,-10.508"/>
  <path fill="rgb(55.294118%, 29.411765%, 0%)" opacity="0.844" d="M381.902,18.469 C375.348,330.57 378.539,329.711 322.648,238.039 C167.039,260.922 164.797,276.586 117.828,173.531 C196.199,170.43 279.754,152.074 234.305,79.957 C366.762,-8.746 361.141,2.906 381.902,18.469"/>
  <path fill="rgb(20%, 4.313725%, 9.803922%)" d="M189.816,332.586 C161.641,298.062 301.852,383.879 184.641,285.363 C214.523,249.016 238.133,377.043 118.891,302.211 C251.523,302.309 215.465,312.039 184.145,266.648 C205.77,316.078 254.277,323.629 189.816,332.586"/>
  <path fill="rgb(82.745098%, 100%, 9.803922%)" opacity="0.203" d="M340.566,321.68 C309.551,337.449 285.527,321.09 232.496,348.176 C227.305,334.934 233.73,326.816 192.262,296.223 C229.285,302.398 239.25,300.098 254.664,311.68 C198.477,317.75 261.359,299.84 340.566,321.68"/>
  <path fill="rgb(0.784314%, 0%, 9.411765%)" opacity="0.999" d="M207.555,308.793 C229.621,310.078 208.762,331.402 192.695,322.922 C179.359,271.043 194.258,282.047 137.133,284.879 C226.953,215.969 175.984,326.621 191.57,158.355 C242.312,171.77 220.902,269.684 207.555,308.793"/>
  <path fill="rgb(0.392157%, 0%, 10.588235%)" opacity="0.999" d="M333.562,312.684 C314.844,325.234 294.047,338.668 270.555,344.855 C253.84,349.301 196.336,348.953 131.035,350.711 C187.434,268.523 253.363,338.684 338.145,309.047 C303.965,314.938 333.602,316.922 333.562,312.684"/>
  <path fill="rgb(13.333333%, 1.960784%, 10.980392%)" d="M174.574,281.375 C135.281,334.461 250.637,314.465 146.949,313.336 C102.785,347.703 -36.504,313.445 143.527,306.668 C109.57,217.672 136.559,217.262 137.109,174.625 C167.746,138.402 152.273,231.395 174.574,281.375"/>
  <path fill="rgb(88.627451%, 100%, 45.490196%)" d="M77.02,73.73 C123.199,124.328 108.113,113.008 41.555,96.582 C10.098,101.293 -14.289,86.387 -25.121,30.859 C-13.375,-6.125 -8.77,-11.836 27.086,-20.961 C77.156,-7.203 78.121,2 77.02,73.73"/>
  <path fill="rgb(88.235294%, 96.078431%, 51.372549%)" d="M414.953,100.945 C423.953,171.348 435.789,214.867 301.441,163.773 C314.344,157.137 371.879,19.711 235.035,102.605 C242.91,-41.148 225.582,-51.969 278.355,-52.797 C435.988,-6.949 412.934,33.168 414.953,100.945"/>
  <path fill="rgb(89.019608%, 95.294118%, 53.72549%)" d="M73.727,133.559 C100.312,179.961 98.633,59.02 35.02,281.332 C-65.539,235.602 -32.949,189.137 -17.641,104.461 C-24.363,29.504 -33.422,18.812 23.867,26.906 C44.281,60.031 46.414,98.273 73.727,133.559"/>
  <path fill="rgb(90.196078%, 93.72549%, 54.117647%)" d="M409.293,243.852 C399.984,300.457 408.902,322.328 354.273,366.266 C294.855,291.82 224.09,328.828 223.805,234.844 C189.402,167.812 233.301,125.141 289.488,178.711 C391.332,123.812 390.707,163.879 409.293,243.852"/>
  <path fill="rgb(89.411765%, 99.607843%, 46.666667%)" opacity="0.997" d="M198.117,80.797 C200.113,5.215 77.922,28.762 76.004,77.203 C56.195,96.398 55.609,67.832 33.289,23.281 C41.152,-45.328 66.332,-30.453 132.531,-13.367 C194.246,-19.43 335.645,-27.898 198.117,80.797"/>
  <path fill="rgb(0%, 0%, 9.803922%)" d="M283.77,149.75 C270.125,202.637 224.727,197.148 212.781,195.816 C199.34,178.973 214.043,141.812 192.168,187.273 C118.926,183.336 180.711,195.316 225.27,160.891 C244.137,187.887 209.828,157.73 283.77,149.75"/>
  <path fill="rgb(68.235294%, 66.666667%, 29.019608%)" opacity="0.407" d="M20.355,-1.512 C6.754,-8.418 -2.43,-4.902 -6.223,13.898 C-9.168,13.27 -16.449,11.992 -16.168,3.902 C-10.812,-6.066 -6.125,-10.754 15.938,-19.184 C17.199,-14.832 14.113,-0.785 20.355,-1.512"/>
  <path fill="rgb(2.352941%, 0%, 9.411765%)" d="M252.566,131.094 C248.785,170.102 291.621,129.004 199.73,130.637 C311.094,149.676 202.055,174.48 260.855,123.77 C191.621,121.992 168.156,134.066 304.742,105.449 C312.469,105.887 231.234,114.465 252.566,131.094"/>
  <path fill="rgb(87.45098%, 99.607843%, 41.176471%)" opacity="0.946" d="M260.312,119.852 C268.734,135.246 239.738,170.871 258.457,136.027 C223.754,135.445 253.098,136.609 232.176,96.492 C229.93,84.441 238.289,93.738 238.152,69.629 C323.227,65.703 253.805,78.312 260.312,119.852"/>
  <path fill="rgb(87.843137%, 99.607843%, 38.431373%)" opacity="0.999" d="M244.293,197.305 C236.992,202.949 241.898,247.988 224.664,243.25 C208.438,195.211 203.43,197.262 221.809,196.895 C242.625,204.551 234.477,203.148 208.387,193.887 C210.164,202.117 220.062,196.52 244.293,197.305"/>
  <path fill="rgb(88.235294%, 95.294118%, 50.980392%)" d="M323.625,332.238 C327.883,348.57 298.984,347.043 254.691,359.812 C215.461,363.637 243.457,323.148 211.137,334.941 C190.246,308.113 238.637,278.469 247.523,298.688 C280.973,309.117 297.062,314.18 323.625,332.238"/>
  <path fill="rgb(0%, 0%, 6.27451%)" d="M239.633,54.355 C238.203,85.992 233.562,101.422 220.445,99.082 C120.125,127.508 107.344,133.488 188.07,73.824 C215.746,84.598 222.215,36 242.191,46.668 C235.77,44.055 234.195,41.352 239.633,54.355"/>
  <path fill="rgb(0%, 0%, 4.705882%)" d="M189.59,56.281 C190.629,43.754 189.699,53.359 191.098,62.238 C193.332,75.801 150.805,80.246 139.449,29.555 C186.266,19.781 194.871,34.984 179.668,28.578 C192.324,29.52 199.383,32.98 189.59,56.281"/>
  <path fill="rgb(21.176471%, 19.215686%, 21.176471%)" opacity="0.592" d="M-0.895,-13.578 C0.52,-3.039 -2.102,2.676 -7.574,7.535 C-10.754,16.324 -13.723,10.668 -12.379,0.59 C-10.57,-6.105 -5.887,-10.789 0.543,-12.512 C9.504,-12.191 16.066,-10.434 -0.895,-13.578"/>
  <path fill="rgb(89.803922%, 100%, 30.196078%)" d="M188.602,320.238 C198.355,377.367 175.055,370.504 167.859,335.035 C129.871,330.828 134.039,321.641 169.512,336.535 C173.738,298.164 157.398,290.965 181.078,294.148 C189.07,297.078 192.023,299.539 188.602,320.238"/>
  <path fill="rgb(37.254902%, 82.745098%, 0%)" opacity="0.402" d="M21.598,3.891 C5.859,0.305 6.164,5.688 -2.059,25.688 C-12.605,18.062 -14.246,12.953 -13.445,1.312 C-10.461,-5.922 -5.777,-10.605 2.559,-17.707 C13.875,-37.504 23.223,-36.156 21.598,3.891"/>
  <path fill="rgb(78.039216%, 13.72549%, 0.392157%)" opacity="0.998" d="M206.68,254.801 C170.973,248.168 216.312,220.93 156.602,242.848 C195.973,260.59 197.059,248.375 157.25,237.254 C167.613,201.383 162.715,183.055 160.273,253.348 C214.836,231.48 246.629,218.402 206.68,254.801"/>
  <path fill="rgb(87.843137%, 94.509804%, 51.372549%)" d="M354.109,128.133 C336.129,100.18 381.07,168.309 321.887,137.891 C287.707,125.113 302.723,131.074 287.027,122.344 C266.016,112.695 271.703,82.199 301.852,84.676 C332.23,108.395 338.812,105.887 354.109,128.133"/>
  <path fill="rgb(84.313725%, 77.254902%, 26.666667%)" opacity="0.881" d="M228.215,143.812 C275.629,146.383 262.695,147.219 263.227,138.797 C265.68,133.953 266.742,145.156 264.461,133.254 C258.84,137.684 268.023,153.359 248.77,166.176 C250.898,148.141 255.527,160.008 228.215,143.812"/>
  <path fill="rgb(89.803922%, 98.823529%, 40.784314%)" opacity="0.995" d="M238.766,154.848 C262.496,155.469 271.422,166.133 240.086,173.367 C221.754,177.848 211.113,171.129 207.703,158.309 C232.84,150.039 240.184,142.387 236.57,159.277 C231.766,138.832 248.141,160.766 238.766,154.848"/>
</svg>

