<svg xmlns="http://www.w3.org/2000/svg" width="384" height="384" viewBox="0 0 384 384">
  <defs/>
  <path fill="rgb(20.392157%, 61.960784%, 74.117647%)" opacity="0.993" d="M410.75,82.234 C436.734,135.496 455.801,163.734 324.031,148.355 C275.773,145.633 258.008,140.883 263.754,41.469 C275.074,-24.379 269.637,-35.598 311.488,-39.129 C420.488,-8.367 410.598,5.113 410.75,82.234"/>
  <path fill="rgb(0%, 21.176471%, 38.823529%)" opacity="0.984" d="M302.688,352.707 C310.254,478.254 300.305,437.855 165.566,397.031 C20.469,444.711 -19.77,480.062 2.16,377.098 C133.59,230.18 197.82,220.344 270.988,239.375 C248.406,250.352 242.91,250.391 302.688,352.707"/>
  <path fill="rgb(2.745098%, 52.156863%, 69.019608%)" opacity="0.818" d="M397.664,251.777 C449.012,350.879 503.578,385.336 322.16,420.578 C219.445,356.395 202.27,361.094 190.449,208.59 C303.871,178.43 285.34,137.281 309.879,154.902 C420.469,160.605 413.297,170.105 397.664,251.777"/>
  <path fill="rgb(0%, 55.294118%, 70.980392%)" opacity="0.819" d="M192.914,227.43 C167.516,325.469 160.219,319.664 36.641,394.066 C-106.66,371.57 -64.074,335.008 -34.734,140.59 C-83.613,12.066 -126.957,-9.652 79.414,-39.5 C149.812,56.516 152.539,86.691 192.914,227.43"/>
  <path fill="rgb(81.176471%, 38.431373%, 1.176471%)" opacity="0.997" d="M282.715,97.801 C303.598,170.594 312.16,134.438 172.637,184.129 C126.496,198.07 155.418,153.75 114.934,4.492 C51.332,-104.105 70.02,-76.586 141.133,-17.52 C266.695,-14.133 267.746,-11.414 282.715,97.801"/>
  <path fill="rgb(18.823529%, 61.960784%, 72.54902%)" d="M403.496,219.688 C409.41,234.836 405.512,242.273 395.938,226.93 C379.395,213.277 374.328,206.82 345.305,167.902 C323.398,128.215 334.453,139.219 397.668,127.625 C414.32,157.258 398.281,187.234 403.496,219.688"/>
  <path fill="rgb(24.705882%, 62.745098%, 69.411765%)" opacity="0.214" d="M389.246,282.48 C416.281,328.543 469.883,408.598 256.578,410.715 C390.73,301.285 389.543,235.754 204.57,403.734 C299.199,246.375 375.34,280.211 381.523,256.293 C391.355,245.719 379.016,248.082 389.246,282.48"/>
  <path fill="rgb(16.078431%, 61.960784%, 72.54902%)" opacity="0.222" d="M345.398,238.695 C350.523,238.238 341.039,231.227 312.887,244.574 C332.328,359.648 247.641,322.441 236.934,231.227 C286.832,191.688 299.582,228.781 318.625,259.238 C364.484,235.172 348.055,247.887 345.398,238.695"/>
  <path fill="rgb(39.215686%, 56.862745%, 60.784314%)" opacity="0.079" d="M419.074,300.059 C433.117,325.672 441.707,341.277 373.031,381.211 C346.465,331.883 357.156,303.555 354.371,274.07 C351.809,253.512 354.918,243.188 369.117,222.289 C391.434,251.891 389.367,265.676 419.074,300.059"/>
  <path fill="rgb(20%, 65.098039%, 71.764706%)" opacity="0.224" d="M400.434,250.797 C411,260.871 401.996,254.992 358.723,258.645 C359.738,249.629 353.434,235.676 338.566,228.488 C348.707,240.406 362.191,239.746 358.805,225.066 C366.359,223.992 381.824,224.738 400.434,250.797"/>
  <path fill="rgb(21.176471%, 65.882353%, 73.72549%)" d="M153.207,51.562 C199.801,58.664 242.094,74.605 180.84,75.996 C40.039,48.164 96.594,80.406 82.078,53.805 C110.723,-22.18 123.723,-23.949 121.773,-28.844 C152.809,1.68 159.539,6.812 153.207,51.562"/>
  <path fill="rgb(30.588235%, 70.980392%, 59.215686%)" opacity="0.212" d="M-0.801,-14.234 C-7.422,7.098 -5.711,12.363 -12.078,19.16 C-19.656,22.758 -25.395,20.613 -22.477,13.723 C-10.57,-6.105 -5.887,-10.789 -1.77,-12.27 C3.066,-14.719 6.473,-8.703 -0.801,-14.234"/>
  <path fill="rgb(20%, 61.960784%, 69.803922%)" opacity="0.888" d="M161.086,26.871 C163.109,60.406 152.637,92.379 136.617,52.832 C80.039,47.633 35.141,117.422 35.145,-5.332 C36.172,-51.664 79.887,-25.93 133.293,-32.715 C164.449,-17.641 158.293,6.73 161.086,26.871"/>
  <path fill="rgb(40.392157%, 42.352941%, 26.666667%)" opacity="0.451" d="M2.367,-11.113 C-0.309,-4.035 -2.707,1.023 -0.766,7.797 C-4.148,8.594 -9.633,5.184 -12.047,-0.496 C-10.812,-6.066 -6.125,-10.754 0.273,-12.469 C6.766,-10.781 13.984,-7.438 2.367,-11.113"/>
  <path fill="rgb(17.647059%, 65.882353%, 74.901961%)" opacity="0.994" d="M286.262,25.285 C197.68,99.047 277.414,71.875 175.895,84.906 C99.895,58.789 140.988,39.344 142.219,-4.418 C135.352,-18.633 133.48,-29.652 184.219,-43.379 C285.742,-51.996 309.938,-53.551 286.262,25.285"/>
  <path fill="rgb(4.705882%, 72.54902%, 70.196078%)" opacity="0.458" d="M198.68,353.352 C146.633,370.859 143.527,377.992 132.523,393.367 C90.117,383.863 -13.77,362.23 38.621,203.828 C-1.398,310.312 102.449,328.898 100.434,328.008 C208.137,325.703 207.688,315.078 198.68,353.352"/>
  <path fill="rgb(22.745098%, 61.960784%, 71.764706%)" opacity="0.978" d="M323.277,335.52 C341.48,476.16 276.422,443.816 217.52,428.582 C147.109,403.711 137.957,402.266 143.824,402.172 C136.16,382.383 125.852,364.168 124.734,327.309 C264.973,312.605 260.293,295.516 323.277,335.52"/>
  <path fill="rgb(20.392157%, 64.313725%, 71.764706%)" opacity="0.982" d="M174.062,350.32 C160.863,423.203 147.984,419.668 97.953,413.402 C29.895,407.945 2.086,424.473 -29.98,343.031 C-44.043,231.008 -67.688,175.074 59.285,185.742 C-0.383,365.984 118.914,297.043 174.062,350.32"/>
  <path fill="rgb(100%, 96.078431%, 90.980392%)" d="M171.973,325.395 C181.035,364.191 183.734,340.852 182.008,351.574 C181.406,342.738 184.406,328.57 156.727,316.945 C158.641,293.477 176.523,297.352 230.34,293.961 C291.516,285.43 333.938,347.789 171.973,325.395"/>
  <path fill="rgb(18.431373%, 59.607843%, 63.921569%)" opacity="0.98" d="M184.957,347.023 C188.523,359.805 179.949,363.961 172.422,359.809 C164.238,351.695 189.496,347.352 134.027,306.023 C91.59,304.688 42.133,251.242 119.18,295.457 C174.066,317.023 181.902,321.613 184.957,347.023"/>
  <path fill="rgb(95.294118%, 43.921569%, 0%)" opacity="0.98" d="M136.918,301.738 C200.809,313.547 181.949,345.832 107.949,314.863 C63.293,282.434 71.367,252.309 70.02,260.707 C66.641,241.445 88.953,222.137 97.156,238.922 C95.672,256.953 74.793,278.18 136.918,301.738"/>
  <path fill="rgb(88.627451%, 29.803922%, 21.568627%)" opacity="0.03" d="M290.824,190.59 C301.078,224.938 264.375,202.355 239.676,211.266 C261.094,274.578 225.117,236.211 263.918,173.781 C241.973,139.34 196.371,183.945 207.871,151.469 C309.949,162.301 285.059,96.926 290.824,190.59"/>
  <path fill="rgb(76.862745%, 37.647059%, 0%)" d="M215.051,299.957 C190.723,285.582 238.707,319.75 185.625,306.773 C151.039,327.219 152.918,321.688 162.176,306.891 C146.281,271.645 168.207,251.559 184.297,196.941 C295.688,166.789 320.016,356.031 215.051,299.957"/>
  <path fill="rgb(66.27451%, 50.196078%, 0.392157%)" opacity="0.015" d="M281.051,216.219 C286.711,233.668 240.164,217.852 202.91,233.184 C208.773,208.859 204.379,214.199 127.699,186.203 C173.289,206.219 187.617,196.484 219.672,206.672 C269.594,211.203 284.086,234.508 281.051,216.219"/>
  <path fill="rgb(73.72549%, 41.176471%, 5.098039%)" opacity="0.979" d="M266.285,215.262 C276.77,239.918 266.43,233.512 251.438,218.555 C240.809,177.27 176.094,211.477 106.078,184.988 C89.293,172.582 111.383,203.871 209.844,196.113 C261.324,187.137 255.242,164.863 266.285,215.262"/>
</svg>

