<svg xmlns="http://www.w3.org/2000/svg" width="384" height="384" viewBox="0 0 384 384">
  <defs/>
  <path fill="rgb(17.647059%, 6.27451%, 40.784314%)" opacity="0.887" d="M357.602,277.734 C357.25,362.293 400.891,394.824 187.758,417.789 C113.191,465.68 97.188,502.613 76.441,305.512 C71.973,106.133 151.402,136.125 273.457,157.551 C458.57,173.879 415.223,205.727 357.602,277.734"/>
  <path fill="rgb(25.098039%, 18.039216%, 44.313725%)" d="M405.574,272.238 C404.078,378.48 414.793,391.66 380.832,427.762 C295.727,426.238 324,415.426 353.398,329.715 C346.516,197.016 271.254,165.156 350.75,161.621 C458.641,166.586 433.316,184.023 405.574,272.238"/>
  <path fill="rgb(25.490196%, 16.862745%, 43.921569%)" opacity="0.993" d="M408.332,17.426 C398.969,94.406 357.797,78.199 312.992,97.289 C285.477,83.586 280.738,65.93 265.004,-5.102 C248.746,-56.711 257.41,-52.184 296.059,-36.125 C370.906,-15.992 382.57,-18.383 408.332,17.426"/>
  <path fill="rgb(24.705882%, 16.470588%, 44.705882%)" d="M400.355,107.152 C439.203,184.656 460.727,198.809 318.793,203.043 C237.992,182.551 237.961,158.211 263.551,133.281 C314.406,56.648 341.52,50.762 417.598,37.578 C411.539,14.383 404.543,30.797 400.355,107.152"/>
  <path fill="rgb(15.294118%, 5.098039%, 41.568627%)" opacity="0.875" d="M342.957,133.164 C366.484,237.246 405.66,305.18 54.996,328.121 C-12.723,345.625 -20.176,339.691 -28.867,128.613 C-3.84,-137.16 18.965,-87.887 179.078,-36.898 C309.617,-17.859 314.16,7.473 342.957,133.164"/>
  <path fill="rgb(26.666667%, 19.215686%, 45.882353%)" d="M96.645,389.969 C121.016,416.988 103.773,407.984 70.617,404.582 C3.992,398.746 -5.566,398.746 -25.77,378.016 C-23.078,324.961 -10.926,331.699 37.695,331.488 C76.309,317.383 73.426,333.887 96.645,389.969"/>
  <path fill="rgb(29.803922%, 18.823529%, 53.333333%)" opacity="0.974" d="M24.324,329.273 C23.387,326.926 27.105,345.457 -17.574,357.953 C-11.836,358.23 -13.363,349.438 -19.148,325.422 C-12.93,289.73 -9.277,285.395 -17.777,298.598 C3.508,331.27 16.75,337.168 24.324,329.273"/>
  <path fill="rgb(27.843137%, 18.039216%, 50.980392%)" opacity="0.816" d="M73.301,331.355 C89.066,380.875 111.379,388.727 69.438,403.66 C56.074,366.758 63.16,345.539 52.953,349.207 C55.938,303.691 66.465,295.215 63.23,307.602 C76.695,320.359 72.23,319.844 73.301,331.355"/>
  <path fill="rgb(27.843137%, 20%, 48.235294%)" opacity="0.988" d="M81.914,356.246 C69.133,357.34 69.191,345.391 71.793,364.023 C7.477,356.117 1.664,360.738 -8.867,341.539 C50.027,331.68 55.066,331.012 62.488,305.477 C62.559,286.922 86.094,288.77 81.914,356.246"/>
  <path fill="rgb(32.156863%, 27.843137%, 43.137255%)" opacity="0.067" d="M5.434,-21.766 C2.148,-5.988 2.785,0.906 -5.785,24.379 C-17.992,22.914 -17.176,12.348 -15.324,3.059 C-10.57,-6.105 -5.887,-10.789 0.727,-12.566 C10.363,-13.785 14.27,-12.793 5.434,-21.766"/>
  <path fill="rgb(100%, 99.607843%, 4.313725%)" d="M225.711,184.148 C280.082,248.586 213.406,218.09 205.594,249.828 C153.988,241.211 137.488,218.207 156.078,162.77 C181.824,205.746 228.586,153.352 156.531,156.023 C208.312,108.906 221.016,148.664 225.711,184.148"/>
  <path fill="rgb(100%, 100%, 2.352941%)" d="M332.402,167.719 C177.387,244.211 289.949,169.98 237,172.598 C175.648,200.793 194.105,216.586 196.699,159.375 C172.332,111.836 148.359,97.082 213.754,93.059 C262.91,114.336 283.828,117.664 332.402,167.719"/>
  <path fill="rgb(100%, 93.333333%, 21.176471%)" opacity="0.994" d="M347.57,230.215 C278.633,265.441 263.402,262.031 226.777,287.457 C129.852,287.723 214.027,276.789 188.77,262.766 C274.805,255.977 194.312,203.996 242.582,191.043 C368.039,170.422 326.41,138.617 347.57,230.215"/>
  <path fill="rgb(100%, 93.333333%, 16.470588%)" d="M214.461,276.789 C217.516,304.52 134.457,334.07 176.992,271.867 C139.527,266.398 226.266,317.777 107.297,336.457 C122.086,177.898 137.477,237.121 170.582,215.707 C215.105,268.07 217.156,245.363 214.461,276.789"/>
  <path fill="rgb(100%, 96.862745%, 6.666667%)" opacity="0.992" d="M175.793,160.953 C148.246,168.781 184.883,210.605 136.227,203.727 C157.062,181.168 136.512,183.266 153.395,171.695 C175.676,76.965 149.23,169.266 176.262,115.586 C156.234,42.531 306.934,129.266 175.793,160.953"/>
</svg>

