<svg xmlns="http://www.w3.org/2000/svg" width="384" height="384" viewBox="0 0 384 384">
  <defs/>
  <path fill="rgb(10.588235%, 3.137255%, 92.941176%)" opacity="0.99" d="M205.242,135.559 C207.945,203.059 209.316,228.648 59.527,270.945 C-164.793,268.781 -96.219,227.039 -33.949,87.672 C-8.559,-16.348 0.133,-16.598 61.875,-30.16 C122.797,-51.105 137.559,-64.652 205.242,135.559"/>
  <path fill="rgb(22.352941%, 0%, 88.627451%)" opacity="0.997" d="M396.191,36.711 C401.262,108.906 403.652,118.711 342.316,125.34 C281.008,130.062 267.586,129.449 241.75,47.438 C240.305,-42.672 249.375,-43.816 291.68,-34.105 C407.965,-9.195 407.086,-0.527 396.191,36.711"/>
  <path fill="rgb(16.078431%, 99.607843%, 6.666667%)" opacity="0.913" d="M398.871,163.355 C408.961,246.848 411.219,257.676 307.75,268.965 C217.039,274.453 193.199,290.629 173.848,161.551 C169.102,44.012 188.848,62.371 258.168,99.609 C394.711,109.742 403.395,107.785 398.871,163.355"/>
  <path fill="rgb(99.607843%, 0%, 9.411765%)" opacity="0.995" d="M418.777,334.625 C400.465,393.52 394.199,397.684 167.391,418.188 C79.438,496.969 60.477,543.141 52.945,276.25 C129.582,138.75 179.02,130.969 271.41,173.543 C407.438,233.211 415.867,234.848 418.777,334.625"/>
  <path fill="rgb(11.372549%, 50.588235%, 38.823529%)" opacity="0.279" d="M267.406,35.309 C283.801,117.418 304.816,146.648 178.641,168.094 C68.391,144.945 97.055,109.559 93.27,6.992 C124.352,-53.441 160.078,-31.504 174.492,-20.195 C205.73,-13.926 253.246,-48.094 267.406,35.309"/>
  <path fill="rgb(10.196078%, 0%, 98.823529%)" opacity="0.994" d="M404.605,301.023 C404.457,346.801 409.605,363.039 362.547,366.777 C338.25,344.391 328.027,339.641 299.016,306.742 C283.383,253.469 279.574,218.707 353.629,91.426 C477.707,140.398 432.047,212.141 404.605,301.023"/>
  <path fill="rgb(10.588235%, 0%, 99.215686%)" d="M321.32,188.094 C312.758,172.957 323.648,177.219 288.078,255.098 C216.137,185.277 309.988,247.379 229.773,169.07 C280.387,172.43 285.301,141.66 328.418,140.871 C297.516,202.598 304.738,190.758 321.32,188.094"/>
  <path fill="rgb(13.333333%, 0%, 94.901961%)" opacity="0.961" d="M399.984,362.867 C390.074,400.91 376.25,396.801 353.051,394.035 C315.859,402.555 335.004,405.07 345.68,338.656 C341.902,344.594 323.207,320 322.664,347.262 C377.594,351.578 393.926,352.789 399.984,362.867"/>
  <path fill="rgb(8.627451%, 0%, 100%)" d="M338.555,268.035 C339.41,350.523 338.129,345.758 277.113,348.727 C261.527,327.141 231.461,319.168 268.125,298.008 C320.113,271.734 276.852,313.902 258.555,160.688 C388.887,163.918 351.121,194.789 338.555,268.035"/>
  <path fill="rgb(15.294118%, 93.72549%, 9.411765%)" opacity="0.955" d="M352.176,281.371 C273.148,336.945 145.555,303.879 107.758,263.465 C109.371,265.988 63.609,321.566 62.777,292.031 C55.188,265.867 110.723,267.16 139.781,200.074 C219.43,155.133 261.254,241.941 352.176,281.371"/>
  <path fill="rgb(0%, 12.941176%, 73.333333%)" opacity="0.987" d="M249.312,341.789 C145.617,300.379 119.051,349.508 135.762,374.367 C134.34,330.695 116.145,361.52 80.148,352.141 C43.273,420.672 -30.656,409.492 17.094,260.629 C208.266,380.34 251.062,266.766 249.312,341.789"/>
  <path fill="rgb(79.215686%, 16.862745%, 99.607843%)" opacity="0.816" d="M2.43,-12.949 C0.434,-3.449 -0.871,6.859 -10.477,5.227 C-5.773,10.707 -10.559,7.012 -12.273,0.617 C-10.559,-5.785 -5.875,-10.469 0.527,-12.184 C6.926,-10.469 11.609,-5.785 2.43,-12.949"/>
  <path fill="rgb(35.294118%, 68.235294%, 16.470588%)" opacity="0.732" d="M3.25,-13.141 C2.609,-4.09 -6.09,1.125 -12.348,3.266 C-18.961,14.945 -13.227,3.711 -12.316,-0.082 C-10.57,-6.105 -5.887,-10.789 5.605,-17.375 C11.199,-17.027 8.832,-4.008 3.25,-13.141"/>
  <path fill="rgb(40%, 25.098039%, 94.117647%)" opacity="0.792" d="M-3.66,5.719 C-6.273,25.406 -1.414,13.684 -7.832,6.859 C-9.793,13.121 -12.461,5.609 -12.574,0.301 C-10.812,-6.066 -6.125,-10.754 -5.723,-25.621 C2.961,-34.492 5.434,-30.691 -3.66,5.719"/>
  <path fill="rgb(0%, 27.843137%, 53.72549%)" d="M158.27,345.715 C101.438,348.66 96.773,320.918 127.379,401.277 C133.652,369.84 140.199,354.203 137.27,342.918 C128.883,350.688 96.66,362.625 88.613,344.039 C149.648,337.516 165.934,342.973 158.27,345.715"/>
  <path fill="rgb(1.960784%, 2.745098%, 59.215686%)" opacity="0.541" d="M205.273,361.371 C134.012,362.25 148.109,331.488 156.012,402.715 C133.742,389.906 178.441,342.148 115.266,317.824 C125.262,288.547 179.332,336.656 146.418,317.988 C194.289,304.488 167.137,340.562 205.273,361.371"/>
  <path fill="rgb(9.019608%, 3.137255%, 99.607843%)" opacity="0.989" d="M59.129,291.309 C7.941,307.98 17.543,283.41 127.59,334.367 C-12.234,447.855 31.648,472.176 -33.777,282.617 C3.824,174.07 91.152,152.246 95.98,231.473 C139.785,245.957 45.852,293.688 59.129,291.309"/>
  <path fill="rgb(99.215686%, 3.921569%, 17.647059%)" opacity="0.983" d="M173.309,348.793 C159.27,360.59 128.625,361.375 141.309,359.348 C145.035,372.41 132.492,366.359 143.438,338.773 C134.824,322.699 119.363,327.559 146.895,327.891 C181.086,332.375 180.758,323.445 173.309,348.793"/>
  <path fill="rgb(29.803922%, 99.215686%, 3.921569%)" opacity="0.991" d="M122.289,352.707 C121.426,379.414 121.562,390.457 114.996,400.188 C81.766,427.012 64.441,439.75 64.793,361.625 C110.641,372.59 127.203,373.125 120.109,356.391 C132.004,348.188 113.48,349.246 122.289,352.707"/>
  <path fill="rgb(4.705882%, 99.215686%, 8.235294%)" d="M298.312,299.02 C139.754,341.312 191.84,323.145 157.93,316.328 C69.945,325.438 -28.305,269.516 105.559,300.879 C137.293,297.031 110.098,268.293 136.75,270.84 C129.238,284.262 166.113,302.852 298.312,299.02"/>
  <path fill="rgb(43.921569%, 94.509804%, 0%)" opacity="0.992" d="M140.082,342.633 C123.109,324.238 130.828,358.73 117.848,373.168 C40.082,389.695 55.965,414.293 64.512,339.957 C104.734,365.215 123.234,302.641 76.711,354.457 C38.055,323.266 109.211,354.703 140.082,342.633"/>
  <path fill="rgb(36.470588%, 37.647059%, 34.117647%)" opacity="0.565" d="M11.605,-8.105 C-0.707,-2.254 -10.281,11.125 -21.047,10.547 C-9.891,18.609 -16.246,15.191 -17.527,8.449 C-10.461,-5.922 -5.777,-10.605 4.484,-17.285 C8.672,-13.125 12.594,-7.266 11.605,-8.105"/>
  <path fill="rgb(9.803922%, 2.352941%, 99.607843%)" opacity="0.989" d="M414.273,23.301 C339.453,127.621 283.629,95.684 240.379,110.152 C192.438,82.691 227.281,25.418 164.281,159.258 C-3.875,184.688 -14.992,130.371 42.539,-66.391 C311.586,-21.508 342.719,-40.121 414.273,23.301"/>
  <path fill="rgb(16.078431%, 87.058824%, 12.54902%)" opacity="0.976" d="M218.184,34.727 C177.219,67.406 253.531,112.453 108.801,195.32 C162.27,136.414 224.91,73.613 164.816,39.398 C176.082,24.441 185.578,45.027 203.469,25.52 C200.852,45.219 185.637,29.07 218.184,34.727"/>
  <path fill="rgb(11.764706%, 1.568627%, 99.215686%)" opacity="0.993" d="M407.41,104.633 C368.879,146.621 361.027,193.922 257.676,126.965 C212.062,97.926 229.852,102.777 222.082,90.613 C179.613,40.086 220.254,58.648 298.977,45.719 C353.086,-20.438 388.992,-53.938 407.41,104.633"/>
  <path fill="rgb(88.235294%, 49.019608%, 83.921569%)" opacity="0.746" d="M249.422,388.078 C253.438,411.625 214.801,397.234 198.117,393.668 C178.484,408.598 160.391,419.711 157.516,360.09 C189.184,352.891 143.602,394.699 192.625,389.129 C180.551,386.973 203.07,389.207 249.422,388.078"/>
  <path fill="rgb(100%, 4.313725%, 0%)" d="M233.73,342.094 C175.121,313.684 226.559,389.855 140.797,474.113 C124.496,316.922 140.074,352.48 131.977,324.594 C157.801,343.195 117.27,322.406 221.016,328.367 C169.086,378.066 213.875,396.609 233.73,342.094"/>
  <path fill="rgb(1.960784%, 0%, 99.607843%)" opacity="0.975" d="M133.242,349.348 C109.066,346.359 99.84,338.551 147.23,325.453 C113.418,316.023 79.395,309.77 81.625,324.48 C118.539,339.414 123.48,331.914 116.223,345.613 C114.676,334.812 142.227,320.324 133.242,349.348"/>
  <path fill="rgb(20.392157%, 70.588235%, 9.019608%)" opacity="0.512" d="M1.695,-11.172 C-0.91,-4.441 -3.891,2.426 -8.652,9.523 C-11.078,16.512 -13.793,10.805 -12.328,0.402 C-10.512,-6.324 -5.824,-11.008 0.574,-12.723 C6.973,-11.008 11.082,-6.145 1.695,-11.172"/>
  <path fill="rgb(0%, 89.803922%, 26.27451%)" opacity="0.947" d="M242.922,330.992 C255.379,343.004 226.836,365.301 232.91,388.91 C223.5,413.672 202.656,413.223 213.863,363.598 C231.117,300.836 191.254,377.539 280.168,296.387 C285.875,309.07 243.039,294.871 242.922,330.992"/>
  <path fill="rgb(15.294118%, 0%, 92.54902%)" opacity="0.239" d="M33.266,114.117 C63.496,154.984 82.262,194.898 12.332,247.762 C-50.637,167.719 -33.371,143.637 -23.449,127.902 C-16.855,114.91 -14.184,105.793 -7.496,113.125 C12.906,101.875 17.488,103.656 33.266,114.117"/>
  <path fill="rgb(16.078431%, 1.176471%, 91.764706%)" opacity="0.283" d="M30.016,53.672 C21.535,98.25 30.008,128.75 20.402,127.309 C-23.48,122.34 -23.102,113.211 -24.512,100.539 C-13.289,68.059 -38.152,34.262 13.816,-44.344 C73.945,-39.551 38.586,-11.477 30.016,53.672"/>
  <path fill="rgb(9.411765%, 1.176471%, 99.607843%)" opacity="0.768" d="M124.445,120.238 C112.082,115.719 125.23,124.871 121.34,243.367 C-27.617,229.547 17.258,186.516 6.477,116.355 C8.664,86.777 11.785,66.52 32.562,76.711 C55.465,98.695 58.438,82.566 124.445,120.238"/>
  <path fill="rgb(85.490196%, 0%, 100%)" opacity="0.96" d="M288.59,388.742 C276.617,398.84 278.891,406.945 242.555,435.105 C234.43,439.996 226.789,403.75 233.082,372.152 C247.508,297.711 220.344,316.211 291.629,325.086 C315.562,317.891 297.277,332.645 288.59,388.742"/>
  <path fill="rgb(100%, 100%, 0%)" d="M216.039,56.258 C229.098,88.074 228.152,71.918 180.473,76.246 C173.09,69.703 205.195,60.023 163.617,36.199 C201.707,36.754 188.508,52.004 196.516,17.219 C205.75,47.266 254.617,30.449 216.039,56.258"/>
  <path fill="rgb(25.490196%, 82.745098%, 19.607843%)" opacity="0.913" d="M280.969,281.008 C242.816,221.312 155.258,265.094 210.441,263.672 C259.367,298.18 267.422,273.789 244.73,243.633 C229.793,221.426 154.035,169.574 82.758,194.102 C212.223,304.723 268.789,298.754 280.969,281.008"/>
  <path fill="rgb(63.921569%, 27.843137%, 28.235294%)" opacity="0.565" d="M15.516,-4.512 C-4.355,-6.418 -10.77,-0.895 -15.34,-1.66 C-4,8.414 -10.594,6.707 -12.375,0.523 C-10.66,-5.875 -5.973,-10.559 -2.555,-10.121 C6.914,-10.023 13.691,-7.398 15.516,-4.512"/>
  <path fill="rgb(100%, 0%, 40.392157%)" d="M192.48,183.707 C210.523,201.598 207.578,213.879 198.594,208.266 C213.551,180.297 205.402,185.289 199.168,191.746 C199.797,156.414 206.961,125.871 231.938,146.633 C247.32,175.504 213.598,176.445 192.48,183.707"/>
  <path fill="rgb(14.901961%, 95.294118%, 1.568627%)" opacity="0.961" d="M201.242,144.699 C203.227,196.461 253.137,208.223 191.742,226.215 C172.559,211.938 174.352,180.133 154.254,143.949 C159.066,132.59 159.184,136.207 197.941,62.012 C231.441,115.879 286.551,125.359 201.242,144.699"/>
  <path fill="rgb(15.294118%, 93.72549%, 6.27451%)" opacity="0.996" d="M315.863,209.898 C240.637,255.262 239.125,220.66 235.777,219.219 C194.016,239.383 174.262,238.203 207.062,169.758 C264.812,190.039 203.094,74.945 273.973,137.879 C303.277,188.254 201.348,133.508 315.863,209.898"/>
</svg>

