<svg xmlns="http://www.w3.org/2000/svg" width="384" height="384" viewBox="0 0 384 384">
  <defs/>
  <path fill="rgb(54.117647%, 48.627451%, 0%)" opacity="0.994" d="M364.578,349.172 C329.902,544.297 292.562,501.211 170.867,460.605 C-109.715,387.852 -68.551,364.742 -21.402,267.797 C-38.922,186.824 -58.621,165.855 132.855,136.781 C239.07,84.062 305.559,-8.012 364.578,349.172"/>
  <path fill="rgb(12.54902%, 62.745098%, 92.54902%)" opacity="0.985" d="M278.945,12.402 C215.305,66.348 214.812,109.062 145.188,144.395 C99.09,118.902 98.039,103.938 68.648,73.391 C61.547,-22.371 89.441,-26.125 159.16,-23.816 C226.734,-18.449 248.379,-29.547 278.945,12.402"/>
  <path fill="rgb(1.176471%, 66.666667%, 78.431373%)" opacity="0.994" d="M92.129,-13.723 C80.605,62.652 52.91,56.008 -8.121,72.52 C-14.719,86.73 -17.309,76.887 -14.723,31.457 C-13,-6.52 -8.277,-11.883 36.156,-14.211 C80.242,-16.559 97.316,-21.77 92.129,-13.723"/>
  <path fill="rgb(5.882353%, 69.411765%, 84.705882%)" d="M163.02,150.516 C187.957,144.598 162.668,214.281 102.551,234.43 C-37.965,174.918 -37.41,168.359 -53.918,84.191 C-43.91,0.266 -15.578,14.41 80.344,-18.512 C120.629,-9.539 133.086,3.129 163.02,150.516"/>
  <path fill="rgb(37.647059%, 19.215686%, 0%)" d="M435.043,214.188 C465.316,309.879 455.703,304.715 288.629,318.414 C99.781,248.152 120.09,258.816 175.016,218.672 C170.523,46.629 200.711,26.371 316.367,-29.473 C383.184,-59.207 391.918,-66.547 435.043,214.188"/>
  <path fill="rgb(38.039216%, 43.137255%, 32.54902%)" opacity="0.536" d="M3.613,-9.93 C1.305,-4.199 -8.602,-0.691 -12.543,4.371 C-11.113,16.723 -13.594,10.852 -12.359,0.535 C-10.57,-6.105 -5.887,-10.789 6.367,-16.293 C14.195,-18.332 16.641,-12.395 3.613,-9.93"/>
  <path fill="rgb(5.490196%, 67.058824%, 91.372549%)" opacity="0.98" d="M318.984,200.594 C409.707,216.777 315.305,193.41 274.852,305.738 C223.074,330.941 208.887,389.445 230.004,140.441 C209.156,88.719 179.738,69.93 231.59,24.094 C389.793,56.312 394.465,146.516 318.984,200.594"/>
  <path fill="rgb(40.784314%, 24.313725%, 99.607843%)" d="M337.621,9.48 C346.824,34.816 367.137,55.359 308.023,111.531 C262.215,95.605 280.559,55.602 281.121,15.684 C295.641,-27.961 310.488,-20.773 337.328,-16.605 C344.121,-24.156 341.121,-16.625 337.621,9.48"/>
  <path fill="rgb(24.705882%, 53.333333%, 99.607843%)" opacity="0.998" d="M417.652,26.516 C418.441,88.477 416.957,104.465 346.016,117.98 C310.938,37.391 333.676,27.895 315.027,21.422 C306.477,2.742 319.156,-0.211 334.02,-11.625 C350.418,-13.242 373.879,-26.688 417.652,26.516"/>
  <path fill="rgb(15.686275%, 60.784314%, 95.686275%)" opacity="0.995" d="M343.426,8.879 C346.219,114.777 357.594,120.379 248.547,131.266 C217.812,14.383 248.09,-1.352 157.164,162.766 C176.176,-28.059 238.445,-13.055 274.172,-9.488 C329.258,-56.266 343.496,-60.168 343.426,8.879"/>
  <path fill="rgb(26.666667%, 67.843137%, 90.588235%)" opacity="0.173" d="M10.277,-19.504 C14.094,-6.773 -3.363,-7.902 -12.516,9.609 C3.672,43.129 -3.562,36.594 -12.188,26.641 C-10.812,-6.066 -6.125,-10.754 5.215,-17.059 C13.059,-16.23 18.777,-12.781 10.277,-19.504"/>
  <path fill="rgb(1.568627%, 71.372549%, 85.490196%)" d="M188.199,248.695 C157.301,425.887 148.398,331.883 107.781,305.711 C84.613,323.789 71.809,251.461 24.164,255.504 C97.676,214.473 92.355,198.609 121.559,218.633 C148.434,217.582 162.797,157.988 188.199,248.695"/>
  <path fill="rgb(49.803922%, 94.117647%, 92.941176%)" opacity="0.95" d="M51.039,194.242 C48.105,229.594 26.09,219.164 -1.152,243.82 C-25.266,233.496 -9.273,206.855 -13.344,185.41 C-14.098,174.805 -20.105,160.754 -25.082,175.855 C16.957,176.168 39.629,174.914 51.039,194.242"/>
  <path fill="rgb(0%, 72.941176%, 84.313725%)" opacity="0.849" d="M133.52,223.219 C131.672,310.191 102.207,300.992 50.266,286.488 C28.508,268.176 35.613,253.934 12.113,223.039 C22.914,183.492 42.852,192.168 61.898,203.574 C103.816,188.168 113.266,171.176 133.52,223.219"/>
  <path fill="rgb(72.156863%, 100%, 99.215686%)" opacity="0.994" d="M103.121,245.344 C98.961,304.16 82.328,289.547 41.059,294.078 C-0.316,338.82 52.02,312.516 -45.277,304.98 C-18.043,177.887 -10.73,173.988 41.266,180.336 C62.082,189.055 90.852,200.508 103.121,245.344"/>
  <path fill="rgb(36.470588%, 47.843137%, 99.607843%)" opacity="0.992" d="M405.742,146.664 C397.766,160.039 385.891,158.457 360.367,172.66 C342.754,182.496 336.801,175.59 337.695,157.402 C335.891,116.941 343.672,114 391.691,76.098 C423.031,82.793 410.789,107.234 405.742,146.664"/>
  <path fill="rgb(67.45098%, 40.392157%, 50.196078%)" opacity="0.451" d="M3.371,-10.977 C0.582,-4.664 -3.801,-0.746 -13.312,-0.043 C-0.832,6.566 -6.652,2.402 -11.938,-0.211 C-10.461,-5.922 -5.777,-10.605 0.664,-12.332 C9.449,-11.836 16.539,-10.449 3.371,-10.977"/>
  <path fill="rgb(9.803922%, 63.921569%, 92.156863%)" opacity="0.993" d="M383.137,160.941 C380.055,170.91 425.117,217.348 377.035,252.32 C429.164,216.625 342.562,279.961 250.809,248.344 C350.223,160.477 367.375,164.848 395.758,162.406 C400.727,155.441 403.398,164.445 383.137,160.941"/>
  <path fill="rgb(100%, 29.411765%, 0%)" d="M228.133,260.91 C246.918,451.055 220.664,433.496 231.277,379.652 C157.762,499.531 162.266,479.359 166.945,188.031 C181.496,184.617 272.316,175.473 217.676,199.148 C218.117,169.699 229.246,172.195 228.133,260.91"/>
  <path fill="rgb(21.960784%, 57.254902%, 99.607843%)" opacity="0.932" d="M411.383,173.316 C390.707,184.199 383.656,186.285 341,187.438 C321.406,180.02 315.219,175.047 304.328,154.895 C295.738,119.527 302.652,83.902 351.156,69.707 C394.109,71.418 387.16,93.48 411.383,173.316"/>
</svg>

