<svg xmlns="http://www.w3.org/2000/svg" width="384" height="384" viewBox="0 0 384 384">
  <defs/>
  <path fill="rgb(0.392157%, 37.647059%, 51.372549%)" opacity="0.944" d="M167.352,384.305 C151.859,390.625 146.41,396.223 81.902,415.473 C1.5,401.508 -19.289,387.074 -33.523,305.391 C-36.824,207.902 -45.688,191.082 15.688,176.27 C84.969,283.84 86.773,307.594 167.352,384.305"/>
  <path fill="rgb(0.392157%, 43.137255%, 60.784314%)" opacity="0.995" d="M394.367,157.621 C398.184,206.812 407.641,190.262 329.004,158.43 C51.484,153.078 5.973,178.824 -41.746,98.699 C1.129,-144.996 45.445,-74.879 222.129,-29.977 C363.832,-96.867 394.926,-157.883 394.367,157.621"/>
  <path fill="rgb(1.568627%, 42.352941%, 63.137255%)" opacity="0.996" d="M409.969,268.719 C391.398,420.445 385.129,424.09 324.148,430.172 C66.965,400.949 82.637,343.781 -29.324,135.504 C-4.855,56.844 21.266,57.648 284.418,76.879 C387.484,74.164 403.453,42.523 409.969,268.719"/>
  <path fill="rgb(4.313725%, 41.176471%, 60.392157%)" opacity="0.849" d="M262.949,377.543 C262.547,442.406 247.785,428.918 128.461,466.859 C20.309,405.391 49.18,354.441 -29.473,214.727 C-47.77,132.699 -58.723,111.824 -20.512,134.141 C198.086,194.832 214.727,199.051 262.949,377.543"/>
  <path fill="rgb(2.352941%, 43.529412%, 61.176471%)" opacity="0.823" d="M61.605,394.59 C55.523,414.48 30.18,402.316 10.328,395.793 C2.559,393.164 -2.125,388.48 -7.586,374.547 C-23.402,342.105 -46,307.348 5.398,294.348 C58.055,326.699 65.43,334.656 61.605,394.59"/>
  <path fill="rgb(2.352941%, 35.294118%, 65.882353%)" opacity="0.306" d="M437.152,50.125 C362.484,78.512 330.52,58.438 299.914,35.828 C296.93,47.152 302.723,39.145 298.57,36.82 C299.348,23.215 295.168,3.27 307.398,-31.129 C349.711,-17.324 370.68,-25.102 437.152,50.125"/>
  <path fill="rgb(32.156863%, 81.176471%, 94.117647%)" opacity="0.865" d="M353.074,46.352 C362.941,71.684 343.422,49.238 317.527,54.305 C294.477,53.105 301.715,47.598 304.035,38.227 C295.23,41.082 302.781,26.832 304.996,28.84 C311.312,24.945 335.812,13.703 353.074,46.352"/>
  <path fill="rgb(29.411765%, 43.921569%, 29.803922%)" opacity="0.366" d="M3,-12.578 C3.312,-2.926 -4.289,3.195 -8.578,7.242 C-5.605,10.355 -10.867,6.227 -12.758,0.312 C-10.57,-6.105 -5.887,-10.789 0.516,-12.504 C6.914,-10.789 11.598,-6.105 3,-12.578"/>
  <path fill="rgb(27.058824%, 77.254902%, 84.705882%)" opacity="0.982" d="M319.07,53.344 C310.809,52.121 300.512,47.848 297.301,53.891 C258.949,61.945 260.285,47.809 287.273,49.219 C297.016,39.93 301.211,32.34 308.047,26.258 C314.41,17.258 326.164,28.605 319.07,53.344"/>
  <path fill="rgb(23.921569%, 80.392157%, 84.705882%)" opacity="0.99" d="M379.277,63.188 C373.141,101.363 347.902,88.762 310.828,97.074 C259.598,95.867 248.5,84.852 255.516,63.523 C281.734,46.457 313.41,54.227 308.145,40.621 C321.223,29.062 338.668,21.711 379.277,63.188"/>
  <path fill="rgb(0%, 45.098039%, 56.862745%)" opacity="0.32" d="M187.82,305.824 C172.531,421.305 156.285,422.691 68.375,439.512 C27.25,392.203 42.664,358.789 38.863,313.84 C32.855,302.062 30.004,304.09 87.414,279.953 C144.688,265.465 163.918,240.695 187.82,305.824"/>
  <path fill="rgb(1.176471%, 43.137255%, 56.862745%)" opacity="0.376" d="M260.113,365.273 C266.711,374.375 269.512,400.5 257.844,406.555 C235.094,382.57 230.988,366.66 225.207,315.734 C218.25,317.176 224.551,317.078 257.703,315.145 C261.02,338.391 260.5,349.555 260.113,365.273"/>
  <path fill="rgb(0.784314%, 43.921569%, 58.039216%)" opacity="0.555" d="M112.18,280.824 C73.211,337.117 73.574,353.895 19.781,350.578 C22.945,326.035 16.879,328.68 -6.207,315.824 C10.422,267.039 -1.422,281.207 32.18,277.418 C74.988,277.625 102.07,270.672 112.18,280.824"/>
  <path fill="rgb(0.784314%, 44.313725%, 58.039216%)" opacity="0.414" d="M266.539,395.219 C233.344,386.176 222.32,385.582 215.926,389.777 C201.02,397.492 179.227,412.125 146.871,384.512 C144.367,322.09 160.164,311 228.102,307.406 C284.891,308.07 267.555,336.617 266.539,395.219"/>
  <path fill="rgb(5.098039%, 40.392157%, 62.745098%)" opacity="0.415" d="M167.332,289.836 C84.395,319.98 62.766,309.914 14.211,307.508 C-10.738,324.48 -19.941,331.711 -34.285,276.348 C-6.762,259.242 -14.988,236.719 -4.863,216.219 C35.836,249.438 137.488,202.723 167.332,289.836"/>
  <path fill="rgb(99.215686%, 94.901961%, 89.803922%)" opacity="0.982" d="M85.176,199.305 C98.172,227.836 96.82,231.594 35.695,253.746 C2.379,222.199 15.602,172.164 24.328,170.238 C29.969,162.422 38,150.953 63.699,150.227 C88.422,148.129 86.328,160.207 85.176,199.305"/>
  <path fill="rgb(30.980392%, 57.254902%, 50.588235%)" opacity="0.621" d="M115.598,247.043 C44.434,220.77 45.863,227.289 58.496,245.609 C66.949,246.961 66.629,240.113 50.441,224.766 C46.5,234.641 58.688,218.238 14.445,221.289 C22.863,247.742 62.598,258.566 115.598,247.043"/>
  <path fill="rgb(100%, 100%, 94.901961%)" opacity="0.998" d="M160.395,203.691 C137.07,228.441 110.977,209.617 59.777,214.223 C31.781,207.16 28.59,196.844 41.891,159.52 C53.25,146.449 63.859,152.328 97.625,155.227 C104.711,112.91 125.059,121.363 160.395,203.691"/>
  <path fill="rgb(100%, 99.607843%, 96.470588%)" d="M254.148,132.309 C365.887,231.492 315.633,273.254 179.25,260.773 C72.184,205.723 72.18,166.973 87.707,150.25 C105.352,113.957 138.559,95.039 172.879,97.664 C241.711,108.832 182.461,133.211 254.148,132.309"/>
  <path fill="rgb(100%, 99.215686%, 95.686275%)" d="M303.273,258.68 C154.859,293.406 119.016,260.836 106.398,267.004 C73.816,275.16 9.309,254.125 6.922,220.715 C6.566,170.273 41.223,185.156 92.219,171.934 C157.68,183.836 208.82,154.27 303.273,258.68"/>
</svg>

