<svg xmlns="http://www.w3.org/2000/svg" width="384" height="384" viewBox="0 0 384 384">
  <defs/>
  <path fill="rgb(23.137255%, 50.980392%, 70.588235%)" opacity="0.81" d="M277.238,110.227 C312.508,188.078 359.918,228.379 162.613,229.918 C104.371,203.246 134.809,181.227 157.734,97.488 C188.965,27.094 201.82,22.258 201.59,6.918 C240.328,45.914 252.453,50 277.238,110.227"/>
  <path fill="rgb(3.137255%, 28.235294%, 23.921569%)" opacity="0.976" d="M434.695,223.523 C492.133,321.949 537.082,341.281 295.012,339.266 C77.398,322.605 95.473,319.312 119.297,250.496 C258.355,40.559 271.691,29.742 352.977,-28.863 C392.199,-19.871 396.633,-15.008 434.695,223.523"/>
  <path fill="rgb(20.392157%, 28.235294%, 72.156863%)" d="M248.516,16.648 C218.449,85.105 213.82,93.422 195.105,104.508 C138.266,68.246 109.879,69.559 82.961,-3.812 C88.484,-32.152 94.156,-37.012 185.5,-50.723 C235.867,-39.266 239.555,-34.871 248.516,16.648"/>
  <path fill="rgb(19.215686%, 27.45098%, 72.54902%)" opacity="0.996" d="M356.723,-7.512 C317.379,77.133 323.863,102.316 296.375,130.488 C254.734,65.184 259.398,38.402 226.832,-32.434 C206.379,-14.945 216.223,-15.379 282.496,-21.391 C328.043,-19.426 339.117,-20.312 356.723,-7.512"/>
  <path fill="rgb(35.686275%, 14.117647%, 0.392157%)" opacity="0.924" d="M190.988,149.82 C280.359,258.191 362.598,311.777 65.473,318.25 C-66.609,298.105 -57.645,291.883 -31.957,229.262 C-7.918,-80.852 -0.344,-69.445 44.457,-41.152 C163.652,55.234 185.117,55.613 190.988,149.82"/>
  <path fill="rgb(66.27451%, 23.921569%, 45.882353%)" opacity="0.677" d="M9.656,9.59 C22.879,8.172 14.543,10.461 2.348,8.078 C-1.754,4.367 -8.117,2.691 -12.801,-0.34 C-10.719,-6.316 -6.031,-11 2.969,-17.043 C4.297,-11.07 2.648,-1.895 9.656,9.59"/>
  <path fill="rgb(39.215686%, 0%, 66.27451%)" opacity="0.828" d="M7.734,-13.254 C7.566,-0.734 0.094,-6.207 -14.223,-6.309 C-6.266,12.461 -10.664,6.941 -12.375,0.523 C-10.66,-5.875 -5.973,-10.559 4.484,-16.133 C10.688,-14.699 15.734,-10.105 7.734,-13.254"/>
  <path fill="rgb(30.980392%, 30.588235%, 71.372549%)" opacity="0.879" d="M386.652,148.688 C377.039,171.555 423.598,251.273 367.262,179.285 C359.969,139.914 399.785,221.816 336.094,75.52 C306.695,74.5 287.148,35.461 383.285,-17.863 C437.617,67.566 399.441,115.836 386.652,148.688"/>
  <path fill="rgb(28.235294%, 71.764706%, 44.313725%)" opacity="0.99" d="M304.887,129.449 C285.762,166.051 286.312,139.082 276.086,131.508 C270.453,177.355 246.207,161.883 201.223,120.051 C211.82,106.172 211.152,75.781 266.582,-15.488 C308.836,89.18 321.922,100.551 304.887,129.449"/>
  <path fill="rgb(17.647059%, 71.372549%, 49.803922%)" opacity="0.613" d="M298.98,136.742 C277.859,182.984 269.125,209.996 252.023,179.156 C253.832,189.43 245.34,173.445 208.137,129.375 C184.309,108.668 224.035,79.535 215.238,115.109 C245.258,128.402 265.605,124.559 298.98,136.742"/>
  <path fill="rgb(88.627451%, 100%, 99.607843%)" opacity="0.933" d="M151.719,317.488 C125.98,348.699 128.477,371.328 73.531,394.676 C0.406,406.434 -15.902,405.113 -29.637,339.816 C78.773,345.535 33.078,332.402 96.969,313.715 C111.762,326.105 133.746,311.324 151.719,317.488"/>
  <path fill="rgb(98.431373%, 98.039216%, 97.647059%)" opacity="0.966" d="M132.758,319.52 C115.574,328.84 99.637,330.285 85.645,334.965 C55.371,333.738 9.355,326.301 33.113,311.543 C62.188,320.449 98.617,319.391 101.684,332.746 C90.418,312.637 118.27,311.453 132.758,319.52"/>
  <path fill="rgb(94.117647%, 100%, 100%)" opacity="0.999" d="M341.77,338.461 C345.707,471.574 280.66,427.953 128.922,410.094 C47.176,388.18 58.641,366.988 135.152,326.898 C125.578,241.633 108.734,257.949 119.395,293.988 C152.273,308.078 242.613,287.062 341.77,338.461"/>
  <path fill="rgb(17.647059%, 30.980392%, 79.215686%)" opacity="0.789" d="M215.258,86.457 C204.184,109.309 186.707,134.258 186.824,203.508 C-66.859,175.469 -53.988,170.875 -30.113,20.414 C52.73,-54.414 86.273,-20.465 105,-19.996 C106.031,-11.375 96.695,12.035 215.258,86.457"/>
  <path fill="rgb(54.509804%, 78.039216%, 31.764706%)" opacity="0.832" d="M-0.406,-11.371 C0.949,-1.812 -2.516,3.719 -10.668,16.672 C-12.27,17.469 -17.551,14.066 -16.77,5.309 C-10.559,-5.785 -5.875,-10.469 0.223,-12.09 C2.875,-7.254 6.855,-1.086 -0.406,-11.371"/>
  <path fill="rgb(99.607843%, 98.431373%, 100%)" opacity="0.995" d="M193.273,184.484 C132.938,262.398 136.449,235.613 121.52,226.074 C91.199,201.797 116.031,216.586 79.715,189.582 C36.855,216.828 33.746,184.336 85.266,161.445 C126.324,153.973 149.73,175.504 193.273,184.484"/>
  <path fill="rgb(17.254902%, 70.980392%, 39.607843%)" d="M41.398,216.801 C25.777,262.125 19.008,261.355 8.855,243.07 C-17.168,254.566 -25.09,253.484 0.609,260.555 C14.562,262.137 -52.504,215.277 53.805,57.266 C94.25,172.367 11.52,254.77 41.398,216.801"/>
  <path fill="rgb(100%, 99.607843%, 100%)" opacity="0.997" d="M213.625,242.414 C185.406,232.34 163.23,261.184 142.176,239.34 C180.422,237.855 167.008,246.691 151.52,246.441 C91.277,236.512 128.453,157.641 161.125,166.098 C216.48,173.156 200.902,201.355 213.625,242.414"/>
  <path fill="rgb(5.098039%, 58.039216%, 37.647059%)" opacity="0.984" d="M28.957,240.375 C10.336,283.984 44.781,262.379 46.73,298.371 C-16.039,339.723 -19.199,296.812 -28.449,277.164 C-25.078,236.902 -16.055,232.531 23.938,248.664 C11.812,251.141 5.988,247.621 28.957,240.375"/>
  <path fill="rgb(65.882353%, 14.901961%, 0%)" opacity="0.792" d="M244.438,175.555 C267.258,180.219 258.816,168.379 259.285,215.203 C228.672,204.371 227.824,227.625 232.145,179.125 C252.508,183.457 213.512,157.703 260.957,165.703 C264.309,199.711 237.887,184.758 244.438,175.555"/>
  <path fill="rgb(8.235294%, 55.294118%, 7.058824%)" opacity="0.962" d="M212.051,193.867 C159.359,200.367 215.434,217.113 207.824,201.312 C177.867,207.094 212.438,192.43 172.523,171.828 C163.699,171.348 191.109,176.793 211.152,85.289 C263.805,186.348 256.746,135.25 212.051,193.867"/>
  <path fill="rgb(100%, 100%, 100%)" d="M298.926,226.02 C305.438,272.531 253.262,245.656 204.336,229.219 C179.184,234.078 186.059,229.309 177.871,229.352 C166.848,218.355 97.09,173.27 186.895,158.414 C243.215,179.242 252.074,170.73 298.926,226.02"/>
  <path fill="rgb(9.019608%, 23.529412%, 53.333333%)" opacity="0.721" d="M16.867,-10.742 C7.566,-10.445 12.336,22.199 -5.23,37.969 C-13.062,15.352 -12.766,5.348 -17.461,3.043 C-10.57,-6.105 -5.887,-10.789 18.062,-38.207 C20.801,-31.207 18.395,-11.117 16.867,-10.742"/>
  <path fill="rgb(43.921569%, 26.666667%, 0%)" d="M179.176,262.633 C180.59,321.957 182.383,296.676 163.605,312.262 C122.812,323.578 118.918,333.16 105.137,242.523 C128.512,254.285 145.586,263.844 175.812,262.715 C146.871,303.172 128.816,257.879 179.176,262.633"/>
  <path fill="rgb(10.196078%, 74.117647%, 27.45098%)" opacity="0.716" d="M34.777,105.742 C75.613,83.48 79.383,111.902 76.258,112.52 C109.551,153.637 102.43,162.039 62.637,166.992 C53.672,178.359 62.785,133.301 54.09,73.078 C51.703,93.965 44.98,153.223 34.777,105.742"/>
  <path fill="rgb(76.470588%, 63.921569%, 25.098039%)" opacity="0.767" d="M1.992,-13.219 C0.457,-4.84 -4.926,-1.641 -8.188,10.117 C-10.414,15.473 -15.004,11.023 -16.504,4.371 C-10.539,-6.234 -5.852,-10.918 -1.988,-10.836 C2.109,-6.59 6.648,-1.812 1.992,-13.219"/>
  <path fill="rgb(11.764706%, 35.294118%, 5.490196%)" opacity="0.894" d="M94.516,295.367 C69.352,302.523 50.316,318.742 51.828,317.098 C43.191,276.004 51.48,272.816 41.449,278.102 C46.012,311.062 40.32,307.562 -30.273,314.965 C42.242,327.605 36.988,309.543 94.516,295.367"/>
  <path fill="rgb(51.764706%, 21.960784%, 0%)" opacity="0.992" d="M270.531,274.504 C271.941,317.801 282.059,323.703 254.074,311.816 C193.516,313.234 204.746,304.48 197.805,255.848 C223.762,253.281 288.699,259.422 241.812,267.211 C238.871,283.469 265.598,264.566 270.531,274.504"/>
  <path fill="rgb(0%, 46.666667%, 7.843137%)" opacity="0.408" d="M-1.23,-13.711 C1.109,-5.629 -3.793,-0.785 -8.648,5.684 C-10.941,16.34 -15.18,11.531 -13.043,1.672 C-10.812,-6.066 -6.125,-10.754 0.23,-12.457 C3.91,-9.172 6.895,-1.746 -1.23,-13.711"/>
  <path fill="rgb(10.980392%, 14.117647%, 32.156863%)" opacity="0.59" d="M4.008,-13.23 C0.27,-3.684 -4.012,0.164 -11.969,0.812 C-0.297,5.883 -7.578,2.426 -12.188,-0.047 C-10.512,-6.324 -5.824,-11.008 0.574,-12.723 C6.973,-11.008 11.66,-6.324 4.008,-13.23"/>
  <path fill="rgb(5.882353%, 21.568627%, 52.941176%)" opacity="0.754" d="M31.129,-7.789 C26.914,13.777 20.578,13.973 2.145,12.395 C-16.504,18.27 -19.574,9.223 -13.18,0.871 C-10.461,-5.922 -5.777,-10.605 1.137,-12.508 C10.996,-16.797 16.695,-16.531 31.129,-7.789"/>
  <path fill="rgb(0.392157%, 74.509804%, 14.901961%)" opacity="0.52" d="M-3.113,-2.531 C-1.047,6.508 -0.078,5.422 -7.184,5.027 C-0.34,4.363 -8.16,3.586 -12.32,0.43 C-10.629,-5.918 -5.945,-10.602 -2.98,-9.629 C2.141,-6.629 8.059,-3.211 -3.113,-2.531"/>
  <path fill="rgb(95.686275%, 100%, 100%)" d="M248.25,242.293 C208.711,242.887 263.918,247.352 214.223,243.457 C223.918,231.461 167.418,269.539 167.629,215.488 C217.988,211.195 262.34,213.844 201.836,233.438 C217.281,189.348 248.66,217.629 248.25,242.293"/>
  <path fill="rgb(10.196078%, 2.745098%, 64.313725%)" opacity="0.629" d="M11.121,-2.5 C17.23,2.703 7.344,4.82 -3.621,-2.977 C-11.402,16.648 -14.102,10.621 -12.836,0.473 C-11.062,-6.141 -6.375,-10.824 0.934,-13.141 C9.117,-15.473 14.902,-14.969 11.121,-2.5"/>
  <path fill="rgb(56.862745%, 1.960784%, 11.764706%)" opacity="0.712" d="M204.574,256.863 C196.727,240.34 219.152,285.824 200.039,308 C165.875,305.332 176.848,289.012 176.969,262.938 C178.781,253.293 189.301,265.609 182.559,255.512 C188.887,254.633 191.184,249.375 204.574,256.863"/>
</svg>

