<svg xmlns="http://www.w3.org/2000/svg" width="384" height="384" viewBox="0 0 384 384">
  <defs/>
  <path fill="rgb(3.137255%, 17.647059%, 25.098039%)" opacity="0.964" d="M356.898,389.777 C364.742,487.75 332.75,452.285 127.598,417.297 C22.152,451.684 6.551,481.672 5.383,346.176 C60.375,210.508 54.875,207.645 216.137,207.723 C273.633,233.703 276.23,234.328 356.898,389.777"/>
  <path fill="rgb(18.039216%, 24.705882%, 9.411765%)" opacity="0.888" d="M328.668,-23.32 C255.629,208.156 249.105,216.035 182.707,215.898 C70.148,210.527 85.113,204.617 20.98,34.031 C2.758,-18.676 13.793,-17.145 182.418,-15.93 C338.996,-52.32 364.613,-74.148 328.668,-23.32"/>
  <path fill="rgb(2.352941%, 38.039216%, 49.411765%)" d="M145.906,86.867 C128.793,235.129 114.027,239.988 96.211,215.102 C4.168,162.07 -4.676,163.23 -7.375,122.309 C-44.215,31.441 -81.648,-0.598 41.195,-39.508 C149.312,-26.844 128.863,10.734 145.906,86.867"/>
  <path fill="rgb(15.294118%, 25.882353%, 30.980392%)" opacity="0.994" d="M404.539,223.879 C458.824,333.113 525.398,380.012 347.879,409.371 C247.57,342.484 249.684,324.836 248.297,125.992 C245.367,16.309 209.266,-12.719 368.184,-19.426 C515.566,18.613 438.246,92.645 404.539,223.879"/>
  <path fill="rgb(100%, 36.078431%, 0.392157%)" d="M155.348,259.457 C95.117,295.207 89.301,310.941 -15.445,374.766 C-108.594,378.652 -58.742,338.656 -19.062,237.133 C-23.023,169.582 -32.836,152.449 33.492,102.598 C76.828,81.492 83.367,69.195 155.348,259.457"/>
  <path fill="rgb(87.843137%, 88.235294%, 12.941176%)" opacity="0.897" d="M250.031,258.16 C223.602,264.395 199.887,263.004 166.953,264.484 C168.059,283.863 159.441,273.965 156.562,241.688 C142.152,221.785 139.531,213.453 181.289,228.07 C222.672,216.137 231.855,213.945 250.031,258.16"/>
  <path fill="rgb(99.215686%, 100%, 0%)" d="M236.883,184.062 C249.961,282.164 239.742,271.25 150.336,282.293 C134.164,266.824 117.352,259.598 110.746,205.352 C136.414,187.555 150.477,179.426 174.625,163.035 C197.52,169.074 205.945,174.996 236.883,184.062"/>
  <path fill="rgb(100%, 98.823529%, 4.313725%)" d="M269.375,229.613 C267.57,248.727 246.156,264.023 235.828,283.047 C188.434,283.945 182.484,273.594 170.973,252.215 C195.312,197.641 186.586,181.793 232.473,182.473 C262.508,192.312 271.316,212.953 269.375,229.613"/>
  <path fill="rgb(96.078431%, 99.607843%, 0%)" d="M258.895,248.281 C236.535,279.609 225.059,283.969 212.113,274.406 C183.07,251.383 177.094,259.371 182.215,235.785 C194.094,193.098 164.586,171.109 208.352,163.594 C258.113,172.57 256.605,189.293 258.895,248.281"/>
  <path fill="rgb(91.764706%, 98.431373%, 12.156863%)" opacity="0.359" d="M162.43,199.539 C150.832,227.773 156.227,223.168 152.09,259.062 C135.211,248.348 153.488,223.898 143.848,268.125 C162.191,231.207 160.184,242.816 166.148,214.426 C178.02,229.707 185.059,225.566 162.43,199.539"/>
  <path fill="rgb(0%, 37.254902%, 80.392157%)" opacity="0.341" d="M248.367,68.484 C232.59,75.887 238.418,101.699 230.902,118.367 C198.168,95.023 185,94.418 187.746,62.586 C175.844,-1.922 155.613,-30.957 239.109,-41.602 C285.922,21.949 256.137,51.617 248.367,68.484"/>
  <path fill="rgb(5.490196%, 36.470588%, 49.411765%)" opacity="0.992" d="M385.309,124.074 C323.16,157.195 309.859,183.895 270.035,201.598 C169.133,137.445 171.164,124.793 169.707,74.883 C197.77,51.031 180.59,25.008 255.957,-68.184 C330.734,-4.273 333.656,7.332 385.309,124.074"/>
  <path fill="rgb(3.529412%, 36.470588%, 48.235294%)" opacity="0.994" d="M226.402,105.801 C219.672,136.547 227.703,162.629 255.641,167.66 C160.625,137.383 157.969,116.453 75.422,38.363 C71.035,-31.512 95.473,-31.953 211.484,-58.875 C244.402,33.352 225.078,55.047 226.402,105.801"/>
  <path fill="rgb(4.313725%, 35.294118%, 51.372549%)" opacity="0.99" d="M250.324,169.711 C212.738,166.836 147.387,133.723 104.832,234.668 C105.867,151.449 102.309,133.383 81.316,106.625 C66.199,69.633 46.051,53.961 85.387,2.945 C163.316,82.629 177.82,87.371 250.324,169.711"/>
  <path fill="rgb(6.666667%, 35.686275%, 46.666667%)" opacity="0.912" d="M406.602,167.188 C400.566,508.141 345.086,476.469 219.145,453.926 C68.867,421.363 29.828,435.965 -15.902,380.887 C110.867,268.836 162.07,304.043 193.5,289.688 C311.09,330.312 272.074,181.605 406.602,167.188"/>
  <path fill="rgb(14.509804%, 38.039216%, 48.235294%)" opacity="0.906" d="M395.879,114.773 C394.113,134.309 391.75,142.637 385.664,158.691 C355.453,154.637 327.059,158.109 286.582,141.359 C300.449,55.863 305.762,42.535 331.234,42.023 C416.867,60.984 412.672,74.699 395.879,114.773"/>
  <path fill="rgb(12.156863%, 40.784314%, 49.803922%)" opacity="0.997" d="M399.426,129.984 C396.41,157.043 393.785,162.285 361.164,171.695 C346.297,150.484 313.098,166.805 279.383,150.113 C325.09,102.609 355.703,122.883 390.508,123.641 C406.773,129.516 410.637,125.715 399.426,129.984"/>
  <path fill="rgb(12.156863%, 25.098039%, 40%)" opacity="0.591" d="M390.113,9.375 C388.309,29.184 387.172,43.672 393.582,33.938 C358.438,30.266 351.242,26.125 321.062,-11.098 C339.445,-12.383 357.102,-11.926 381.375,-9.832 C395.574,1.867 400.598,6.5 390.113,9.375"/>
  <path fill="rgb(98.431373%, 29.019608%, 1.960784%)" opacity="0.984" d="M453.184,151.453 C436.594,191.109 450.492,188.336 301.93,160.75 C325.07,264.02 218.598,273.34 280.656,227.172 C255.035,122.867 316.953,127.656 364.613,170.57 C382.703,179.16 400.105,177.277 453.184,151.453"/>
  <path fill="rgb(5.098039%, 39.215686%, 51.372549%)" opacity="0.98" d="M406.117,32.879 C414.68,78.676 419.059,90.746 364.012,86.031 C291.633,84.125 300.234,88.457 305.723,-5.312 C313.609,-30.336 335.004,-23.613 371.727,-3.695 C394.09,0.309 397.809,4.34 406.117,32.879"/>
  <path fill="rgb(0.784314%, 31.764706%, 48.627451%)" opacity="0.991" d="M22.52,239.59 C23.492,244.16 32.938,262.023 -9.766,279.125 C-16.059,231.25 -14.188,219.672 -15.457,208.188 C-15.75,199.992 -16.078,190.992 -27.426,199.453 C8.031,211.062 15.273,204.082 22.52,239.59"/>
  <path fill="rgb(99.215686%, 13.72549%, 1.960784%)" opacity="0.33" d="M81.82,221.762 C107.43,262.996 78.129,245.949 54.562,249.184 C53.648,225.594 56.242,214.867 56.254,235.469 C60.137,193.484 49.207,166.504 87.297,186.711 C117.648,188.844 57.098,131.785 81.82,221.762"/>
  <path fill="rgb(1.960784%, 36.078431%, 51.764706%)" d="M100.512,167.355 C38.137,160.883 34.824,216.367 17.051,232.746 C-30.867,227.953 -50.812,234.02 -65.184,211.871 C-27.316,141.66 -47.352,112.105 -17.609,16.449 C87.598,76.828 49.012,146.184 100.512,167.355"/>
  <path fill="rgb(33.72549%, 38.823529%, 44.705882%)" opacity="0.689" d="M1.305,-12.137 C-0.57,-6.75 -3.871,3.375 -4.383,12.43 C-6.41,11.312 -11.527,7.445 -13.699,1.383 C-10.57,-6.105 -5.887,-10.789 0.324,-12.449 C2.793,-7.641 6.602,-1.156 1.305,-12.137"/>
  <path fill="rgb(1.176471%, 34.901961%, 50.196078%)" d="M130.457,260.797 C88.832,270.109 90.34,275.469 28.441,371.918 C-63.367,368.176 -56.469,322.395 -1.602,263.27 C38.391,212.562 47.949,212.715 83.453,177.902 C71.867,220.82 71.875,231.129 130.457,260.797"/>
</svg>

