<svg xmlns="http://www.w3.org/2000/svg" width="384" height="384" viewBox="0 0 384 384">
  <defs/>
  <path fill="rgb(88.235294%, 75.294118%, 0.392157%)" opacity="0.986" d="M373.035,335.926 C356.758,348.375 381.234,335.18 47.738,331.953 C56.191,339.832 25.512,334.234 65.164,335.758 C190.633,316.938 118.016,240.531 305.766,247.32 C285.598,266.5 388.254,225.281 373.035,335.926"/>
  <path fill="rgb(0%, 0%, 0%)" d="M212.168,64.273 C176.281,99.895 196.699,119.41 130.91,205.242 C135.359,111.688 154.449,108.914 183.523,31.688 C177.246,65.656 133.418,-10.129 226.961,-9.312 C270.887,88.812 161.754,-9.031 212.168,64.273"/>
  <path fill="rgb(78.823529%, 0%, 49.411765%)" d="M286.504,130.762 C324.508,153.828 364.898,283.633 208.465,267.789 C72.812,187.98 230.547,156.914 201.02,15.852 C260.191,71.691 261.727,276.777 287.211,71.91 C305.832,8.41 292.816,97.074 286.504,130.762"/>
  <path fill="rgb(98.823529%, 79.607843%, 20%)" opacity="0.07" d="M142.777,168.285 C233.742,214.332 215.668,345.859 7.66,343.855 C-65.461,172.152 -73.832,61.898 44.871,195.672 C12.723,114.434 11.781,108.895 7.645,6.773 C184.441,-29.305 168.262,-40.348 142.777,168.285"/>
  <path fill="rgb(99.607843%, 76.078431%, 0%)" d="M367.465,159.645 C338.184,-18.352 451.301,109.734 359.895,292.793 C223.699,244.973 268.961,185.344 314.797,126.488 C369.02,130.98 328.68,56.086 376.711,46.957 C385.441,135.211 378.188,99.18 367.465,159.645"/>
  <path fill="rgb(0%, 0%, 1.568627%)" d="M127.688,108.012 C111.973,96.039 189.207,150.508 156.855,200.27 C103.504,156.633 87.883,181.078 27.832,46.531 C117.375,112.043 112.469,185.395 142.34,132.707 C112.277,119.984 109.277,97.676 127.688,108.012"/>
  <path fill="rgb(0.392157%, 1.176471%, 0%)" opacity="0.996" d="M16.242,73.254 C-1.535,194.738 31.324,236.582 7.605,174.426 C69.062,114.156 -22.48,210.641 65.316,72.391 C-7.953,186.965 38.41,172.336 24.684,163.812 C51.762,104.68 41.445,25.023 16.242,73.254"/>
  <path fill="rgb(11.372549%, 0%, 9.803922%)" d="M311.289,162.656 C339.508,155.844 226.262,207.738 261.715,231.238 C43.617,224.582 301.566,243.688 287.004,119.246 C287.172,117.473 260.965,156.559 279.898,137.406 C235.672,142.086 291.852,65.254 311.289,162.656"/>
  <path fill="rgb(47.843137%, 0.392157%, 47.058824%)" opacity="0.999" d="M77.227,267.852 C257.926,253.973 274.449,260.48 47.816,279.871 C19.371,224.922 80.906,238.535 69.848,274.531 C281.047,257.168 299.559,249.051 52.047,270.57 C36.566,247.766 73.23,222.602 77.227,267.852"/>
  <path fill="rgb(47.058824%, 12.941176%, 69.803922%)" opacity="0.982" d="M318.051,70.824 C307.578,90.902 281.152,106.703 271.125,78.062 C326.5,51.621 250.281,30.363 288.664,92.883 C254.129,74.074 263.586,61.52 295.852,35.305 C289.875,32.527 316.281,58.195 318.051,70.824"/>
  <path fill="rgb(86.27451%, 93.333333%, 50.196078%)" opacity="0.032" d="M0.52,1.02 C19.145,7.781 29.473,-0.965 17.52,-13.09 C-17.988,8.137 -21.379,2.723 -19.223,-6.195 C-10.512,-6.324 -5.824,-11.008 -6.379,-25.816 C-4.398,-26.797 1.984,-23.59 0.52,1.02"/>
  <path fill="rgb(1.176471%, 2.352941%, 0%)" d="M97.164,86.457 C148.727,102.285 128.918,132.25 105.332,132.082 C109.539,100.543 131.551,83.82 103.996,88.875 C69.461,80.133 116.133,39.137 98.23,43.938 C76.223,82.566 120.152,94.094 97.164,86.457"/>
  <path fill="rgb(0%, 0%, 1.568627%)" d="M8.289,148.117 C9.707,76.512 34.777,247.984 46.531,245.637 C13.344,185.184 27.555,100.176 -45.465,91.676 C-2.93,192.277 28.398,237.863 38.023,187.148 C29.387,174.02 42.934,106.691 8.289,148.117"/>
  <path fill="rgb(0%, 0.392157%, 0.784314%)" d="M369.047,339.07 C389.766,378.727 336.184,377 184.43,378.625 C-9.422,363.383 72.707,340.352 42.645,338.578 C54.379,341.32 44.906,328.648 51.766,345 C98.148,334.777 140.746,314.836 369.047,339.07"/>
  <path fill="rgb(47.45098%, 54.117647%, 23.137255%)" opacity="0.503" d="M18.309,-25.137 C9.02,-7.109 -3.203,-1.73 -14.762,1.203 C-32.383,-3.98 -41.906,1.148 -38.855,0 C-10.461,-5.922 -5.777,-10.605 12.742,-23.734 C22.145,-30.762 30.668,-35.457 18.309,-25.137"/>
  <path fill="rgb(14.117647%, 0%, 42.745098%)" d="M383.785,248.844 C375.512,296.586 395.094,285.758 260.168,263.082 C379.582,277.137 273.148,218.102 330.484,235.539 C340.812,239.977 358.871,246.336 186.633,220.434 C316.016,225.156 358.719,238.969 383.785,248.844"/>
  <path fill="rgb(0%, 0%, 0%)" d="M373.074,59.867 C427.246,132.957 396.699,182.309 369.012,220.594 C348.539,207.816 382.168,245.051 379.598,183.156 C368.844,155.969 374.074,111.789 366.574,59.73 C339.531,124.59 320.367,88.461 373.074,59.867"/>
  <path fill="rgb(100%, 94.509804%, 16.078431%)" d="M182.402,21.957 C250.301,-28.816 173.566,83.023 309.594,225.016 C-12.723,227.945 -22.973,259.078 137.133,183.914 C214.648,105.645 191.836,-12.578 225.582,101.059 C242.062,54.609 206.562,65.266 182.402,21.957"/>
  <path fill="rgb(76.470588%, 84.313725%, 67.058824%)" opacity="0.03" d="M56.898,-3.777 C9.734,16.023 -13.453,7.23 -40.57,4.602 C-11.215,16.758 -14.48,11.414 -12.457,0.816 C-10.57,-6.105 -5.887,-10.789 39.336,-49.395 C52.398,-56.789 63.664,-50.758 56.898,-3.777"/>
  <path fill="rgb(0%, 0%, 1.176471%)" d="M379.059,61.098 C334.496,172.906 315.586,153.375 298.582,176.77 C265.227,158.059 282.602,160.207 297.781,135.359 C300.977,132.715 246.996,128.062 291.004,93.906 C322.723,153.434 276.789,136.16 379.059,61.098"/>
  <path fill="rgb(0%, 0%, 1.568627%)" d="M295.359,167.066 C214.992,49.426 236.242,17.637 200.848,45.953 C241.367,147.051 230.516,162.281 199.285,45.898 C219.828,128.746 233.078,143.871 218.742,114.262 C226.785,98.137 258.699,205.832 295.359,167.066"/>
  <path fill="rgb(1.568627%, 5.882353%, 1.960784%)" opacity="0.964" d="M174.113,221.211 C190.031,217.383 165.672,230.242 105.297,225.773 C191.711,230.25 107.988,218.668 28.469,249.277 C239.82,217.141 267.914,229.992 158.445,217.496 C177.91,220.281 155.188,214.512 174.113,221.211"/>
  <path fill="rgb(100%, 100%, 45.882353%)" d="M102.535,172.41 C165.098,212.09 175.57,227.105 23.43,241.168 C38.035,115.406 53.156,81.535 33.293,73.629 C31.168,157.703 53.098,142.316 37.777,89.977 C54.773,112.27 61.613,142.32 102.535,172.41"/>
  <path fill="rgb(49.411765%, 61.960784%, 44.705882%)" opacity="0.422" d="M19.66,-13.055 C12.754,1.465 4.004,-2.121 -2.602,-4.117 C-0.926,6.086 -8.707,3.289 -12.508,0.273 C-10.812,-6.066 -6.125,-10.754 3.398,-17.176 C14.039,-20.215 17.629,-15.492 19.66,-13.055"/>
  <path fill="rgb(6.27451%, 0%, 18.823529%)" opacity="0.282" d="M155.594,167.867 C150.867,168.164 171.828,156.078 194.168,96.484 C147.875,161.492 157.352,164.176 166.934,148.371 C146.18,195.203 155.641,177.18 190.234,113.125 C169.398,150.238 128.023,219.961 155.594,167.867"/>
</svg>

