<svg xmlns="http://www.w3.org/2000/svg" width="384" height="384" viewBox="0 0 384 384">
  <defs/>
  <path fill="rgb(100%, 100%, 0%)" d="M374.137,158.316 C360.023,286.387 341.52,270.273 214.594,277.406 C45.773,326.957 51.547,309.281 18.98,216.594 C32.395,41.711 68.656,89.434 182.621,-13.766 C308.562,-15.051 305.059,-1.008 374.137,158.316"/>
  <path fill="rgb(100%, 99.215686%, 100%)" d="M414.48,73.898 C441.891,188.621 465.223,231.055 328.227,243.543 C217.184,159.793 173.215,160.789 130.805,84.355 C183.891,-90.371 223.512,-66.109 305.297,-49.664 C379.688,-18.617 389.141,-15.336 414.48,73.898"/>
  <path fill="rgb(100%, 100%, 99.215686%)" d="M238.418,303.352 C178.82,467.539 153.316,434.551 57.871,405.359 C-8.664,390.91 -12.223,382.02 -15.777,338.344 C-36.336,275.219 -74.773,222.477 18.82,164.816 C148.527,198.211 179.918,218.977 238.418,303.352"/>
  <path fill="rgb(100%, 100%, 100%)" d="M241.215,70.188 C212.695,165.773 151.336,178.242 104.984,264.496 C-53.383,186.625 -33,159.664 -14.953,74.062 C-13.445,-16.492 -4.512,-21.434 90.496,-46.695 C193.711,-55.746 221.258,-83.164 241.215,70.188"/>
  <path fill="rgb(100%, 99.607843%, 100%)" d="M416.145,308.012 C390.723,403.496 375.246,406.203 326.859,388.34 C219.574,420.98 188,457.668 190.371,309.758 C194.258,242.934 212.223,270.797 348.902,184.109 C460.574,196.98 440.051,226.203 416.145,308.012"/>
  <path fill="rgb(0%, 0%, 0.784314%)" d="M214.23,30.168 C178.352,78.973 220.219,200.031 187.773,169.238 C189.578,-80.457 209.305,307.383 187.613,43.027 C209.039,241.648 139.027,-6.336 244.012,8.492 C195.949,48.355 171.578,51.066 214.23,30.168"/>
  <path fill="rgb(0%, 0%, 2.352941%)" d="M168.59,184.699 C173.91,206.57 99.062,112.965 -21.555,150.945 C67.285,85.34 178.793,214.164 92.395,98.223 C68.02,10.793 95.547,94.371 77.547,54.469 C65.711,77.852 76.621,133.254 168.59,184.699"/>
  <path fill="rgb(17.254902%, 26.666667%, 38.039216%)" opacity="0.607" d="M271.562,322.879 C224.691,248.344 208.598,238.207 238.414,271.125 C267.18,357.277 249.836,250.184 219.707,244.336 C185.062,242.184 206.961,206.379 188.969,359.387 C247.914,186.164 237.836,293.773 271.562,322.879"/>
  <path fill="rgb(0%, 0%, 1.960784%)" d="M121.215,199.758 C140.664,236.09 177.766,196.703 62.195,241.062 C2.281,298.125 -7.434,250.977 95.32,216.402 C203.594,206.195 105.125,215.871 68.055,210.352 C180.047,228.703 195.027,210.68 121.215,199.758"/>
  <path fill="rgb(0%, 0%, 0.784314%)" d="M316.133,44.488 C353.801,70.484 298.836,27.871 221.18,184.285 C216.016,111.879 249.957,169.098 243.523,4.18 C267.434,112.438 265.715,90.531 285.539,30.801 C274.062,87.727 250.891,72.688 316.133,44.488"/>
  <path fill="rgb(0%, 0%, 1.568627%)" d="M144.086,269.688 C51.09,291.141 54.449,375.059 53.23,303.625 C-51.406,368.812 108.332,252.211 12.406,325.602 C93.617,290.68 58.801,283.613 82.445,287.719 C26.035,297.301 -45.32,275.574 144.086,269.688"/>
  <path fill="rgb(0%, 0%, 0.784314%)" d="M135.617,222.305 C28.258,209.145 15.484,183.422 13.906,198.152 C157.602,236.922 -44.824,185.512 26.488,194.34 C-77.895,128.938 47.07,182.758 64.641,188.246 C-1.102,178.297 183.457,202.41 135.617,222.305"/>
  <path fill="rgb(0%, 0%, 1.960784%)" d="M334.777,203.492 C472.57,227.734 442.012,257.156 360.156,254.383 C251.398,218.137 238.809,229.191 265.008,208.266 C293.266,204.195 308.508,202.238 313.789,208.043 C283.816,203.152 318.215,202.551 334.777,203.492"/>
  <path fill="rgb(0%, 0%, 1.960784%)" d="M109.199,67.73 C179.895,143.004 204.742,224.043 128.465,165.953 C73.148,65.75 44.09,68.211 87.773,53.445 C123.828,94.684 70.797,-44.797 187.734,77.672 C71.906,-10.621 141.055,89.922 109.199,67.73"/>
  <path fill="rgb(0%, 0%, 1.176471%)" d="M154.828,344.82 C232.387,242.387 198.414,348 157.328,394.156 C92.539,345.32 150.93,250.891 129.078,356.395 C140.281,298.199 115.762,268.922 177.867,226.07 C206.688,235.086 105.414,287.238 154.828,344.82"/>
  <path fill="rgb(0%, 0%, 0%)" d="M162.508,32.559 C160.449,87.691 218.211,78.816 191.57,167.16 C170.492,52.625 95.059,18.449 168.324,62.109 C145.266,30.949 190.449,-41.477 212.879,62.496 C184.867,-50.719 156.414,47.926 162.508,32.559"/>
  <path fill="rgb(0%, 0%, 0%)" d="M127.695,319.133 C116.562,320.883 80.578,334.234 107.238,348.504 C76.605,334.16 141.273,322.164 62.91,338.785 C25.086,309.191 61.102,340.137 156.199,260.793 C171.574,199.66 156.719,275.648 127.695,319.133"/>
  <path fill="rgb(0%, 0%, 0.784314%)" opacity="0.999" d="M370.801,164.316 C315.934,194.332 273.449,189.926 310.875,186.148 C291.25,189.145 263.523,207.617 252.684,205.77 C206.312,150.48 245.973,171.609 250.012,194.227 C265.969,198.168 290.527,171.301 370.801,164.316"/>
  <path fill="rgb(0%, 0%, 1.960784%)" d="M333.719,306.672 C377.656,369.34 308.586,373.684 234.664,297.77 C181.652,152.73 255.668,327.688 334.832,335.418 C310.582,251.688 225.641,238.109 251.66,221.742 C358.953,298.367 415.75,332.512 333.719,306.672"/>
  <path fill="rgb(0%, 0%, 3.529412%)" opacity="0.504" d="M390.457,192.094 C361.352,215.727 325.195,229.824 394.938,207.516 C412.789,147.473 279.152,181.77 287.094,189.23 C337.004,173.184 367.992,162.527 341.172,148.848 C243.641,135.59 407.496,86.941 390.457,192.094"/>
</svg>

