<svg xmlns="http://www.w3.org/2000/svg" width="384" height="384" viewBox="0 0 384 384">
  <defs/>
  <path fill="rgb(5.882353%, 42.352941%, 0%)" d="M232.562,186.695 C225.273,225.586 225.477,240.797 38,360.484 C-10.441,346.004 -9.977,337.508 -19.082,193.027 C7.891,35.305 39.379,54.656 152.941,47.633 C225.754,90.746 199.25,129.855 232.562,186.695"/>
  <path fill="rgb(74.509804%, 0%, 2.745098%)" d="M281.766,287.363 C275.473,369.402 433.48,280.332 418.707,296.473 C132.098,383.902 142.746,283.289 86.941,225.809 C165.973,214.441 161.219,205.633 209.008,192.16 C250.016,142.676 273.77,136.289 281.766,287.363"/>
  <path fill="rgb(35.686275%, 78.039216%, 2.745098%)" d="M394.676,292.273 C398.754,452.996 389.062,440.262 95.871,408.484 C13.867,403.969 -1.473,411.875 -34.707,379.609 C-25.227,136.32 21.863,202.867 88.875,230.668 C111.219,306.133 158.605,309.109 394.676,292.273"/>
  <path fill="rgb(0%, 96.862745%, 100%)" opacity="0.233" d="M354.504,42.922 C197.461,161.539 184.012,166.867 154.949,191.262 C90.324,202 -1.594,270.848 -28.18,93.578 C-16.605,-25.293 -9.578,-5.598 117.312,-41.711 C295.996,-28.332 257.668,-57.184 354.504,42.922"/>
  <path fill="rgb(27.843137%, 0%, 7.45098%)" opacity="0.979" d="M447.973,152.883 C358.062,408.277 372.234,290.57 367.93,231.961 C135.934,243.312 176.371,221.504 182.953,156.359 C181.391,93.57 168.332,78.262 210.434,90.605 C330.766,81.488 374.613,0.047 447.973,152.883"/>
  <path fill="rgb(71.764706%, 100%, 100%)" d="M468.605,60.637 C387.34,211.184 436.395,169.137 383.734,194.656 C364.906,122.938 367.734,155.223 338.273,124.41 C301.227,-34.906 195.098,81.348 362.289,-70.34 C395.527,87.246 393.523,-5.633 468.605,60.637"/>
  <path fill="rgb(87.058824%, 3.921569%, 2.745098%)" opacity="0.242" d="M372.598,200.637 C347.164,238.973 431.902,225.93 309.516,215.371 C318.145,359.141 314.93,325.469 311.102,201.742 C296.371,139.125 310.883,159.242 304.121,128.898 C359.152,218.176 338.355,117.043 372.598,200.637"/>
  <path fill="rgb(2.352941%, 56.078431%, 21.960784%)" opacity="0.992" d="M244.484,142.648 C202.672,192.035 235.605,201.285 63.621,230.258 C11.73,247.875 -1.414,184.965 142.383,112.574 C207.738,45.938 36.066,36.312 70.184,54.281 C262.652,82.793 224.359,95.109 244.484,142.648"/>
  <path fill="rgb(32.941176%, 79.607843%, 0%)" opacity="0.989" d="M458.277,298.488 C304.703,366.215 416.133,388.734 331.297,378.723 C180.488,358.242 211.777,366.199 226.879,346.207 C113.078,388.059 128.113,277.441 175.074,310.559 C337.773,302.598 383.25,285.293 458.277,298.488"/>
  <path fill="rgb(74.509804%, 0.392157%, 1.176471%)" opacity="0.871" d="M342.289,178.637 C421.941,240.035 393.496,218.43 277.176,220.469 C296.504,324.52 147.656,290.23 133.785,183.027 C407.492,178.508 288.285,129.113 326.82,80.012 C358.836,168.836 240.441,122.902 342.289,178.637"/>
  <path fill="rgb(76.862745%, 75.686275%, 81.176471%)" opacity="0.923" d="M175.668,161.59 C181.855,193.676 192.496,199.062 142.285,219.527 C123.762,228.391 133.98,196.996 126.234,167.121 C141.027,130.367 138.492,141.473 176.945,138.965 C181.414,124.723 183.094,153.676 175.668,161.59"/>
  <path fill="rgb(76.078431%, 69.803922%, 80.392157%)" opacity="0.981" d="M250.918,130.148 C253.461,180.871 240.062,181.133 228.258,173.562 C183.293,163.699 156.453,188.523 141.023,141.309 C151.098,131.453 184.836,128.23 220.102,127.359 C259.145,123.242 256.387,109.012 250.918,130.148"/>
  <path fill="rgb(71.764706%, 72.54902%, 78.431373%)" d="M247.402,167.531 C236.473,206.148 238.93,194.008 228.316,226.684 C138.66,215.547 123.219,227.539 144.574,201.977 C166.105,150.328 168.098,154.453 215.711,158.031 C241.539,145.629 243.164,142.672 247.402,167.531"/>
  <path fill="rgb(76.470588%, 72.156863%, 78.039216%)" d="M183.746,224.984 C165.152,222.945 145.539,221.141 137.156,227.367 C88.988,218.723 77.754,225.043 86.098,214.098 C110.727,189.145 109.883,164.973 126.953,152.133 C166.684,131.602 184.855,131.855 183.746,224.984"/>
  <path fill="rgb(69.803922%, 74.117647%, 78.823529%)" opacity="0.991" d="M282.961,130.871 C243.008,154.551 251.699,149.777 238.926,196.328 C218.562,189.441 211.523,180.039 217.664,150.523 C209.395,133.211 229.391,137.309 267.551,117.129 C281.762,125.875 294.66,118.945 282.961,130.871"/>
  <path fill="rgb(87.45098%, 100%, 96.470588%)" d="M269.699,85.012 C262.266,126.973 269.371,113.273 262.105,122.863 C194.625,132.883 240.578,133.164 223.629,101.48 C210.637,89.953 219.742,82.863 217.879,92.113 C277.121,103.719 262.117,85.203 269.699,85.012"/>
  <path fill="rgb(27.843137%, 83.137255%, 0%)" opacity="0.4" d="M117.285,316.715 C118.68,358.055 121.68,348.566 104.297,356.898 C39.812,352.562 38.027,360.223 39.438,341.219 C43.629,289.965 33.875,309.941 95.219,305.801 C185.578,293.047 176.883,318.387 117.285,316.715"/>
  <path fill="rgb(74.901961%, 100%, 100%)" d="M248.008,67.156 C250.723,102.352 207.348,102.227 204.504,94.582 C212.793,70.047 182.289,69.512 179.867,77.055 C174.293,47.398 171.465,42.566 216.574,44.957 C234.023,36.301 241.156,30.84 248.008,67.156"/>
  <path fill="rgb(75.294118%, 0%, 0%)" d="M377.621,209.523 C400.59,244.129 444.148,311.984 337.852,298.316 C358.672,109.668 222.629,335.383 247.43,159.324 C338.012,112.914 261.809,123.793 319.566,124.402 C365.969,154.207 366.422,158.688 377.621,209.523"/>
  <path fill="rgb(39.607843%, 78.431373%, 1.176471%)" opacity="0.416" d="M155.934,323.73 C33.668,342.516 42.141,281.914 61.051,354.324 C-14.438,363.562 -20.02,364.871 -30.875,312.891 C-22.23,278.277 -9.727,253.781 24.598,286.91 C80.078,272.176 203.598,287.68 155.934,323.73"/>
  <path fill="rgb(42.352941%, 36.862745%, 30.588235%)" opacity="0.907" d="M74.449,226.766 C78.543,251.562 77.164,248.512 30.453,247.031 C37.695,305.895 15.246,279.453 18.707,264.812 C27.863,239.332 43.309,223.965 65.449,231.555 C29.648,225.082 43.219,220.648 74.449,226.766"/>
  <path fill="rgb(92.54902%, 0.784314%, 0%)" opacity="0.981" d="M205.977,285.023 C103.207,306.004 158.848,290.238 105.887,292.195 C79.023,287.215 96.035,304.793 93.035,241.449 C94.188,211.059 90.5,221.02 105.488,219.129 C150.984,230.207 200.418,210.043 205.977,285.023"/>
  <path fill="rgb(12.54902%, 47.45098%, 27.45098%)" opacity="0.99" d="M182.758,61.172 C188.336,110.117 172.262,51.762 163.242,62.992 C142.723,30.746 130.406,65.891 121.449,51.641 C149.539,37.949 152.633,46.285 160.492,49.379 C158,64.043 164.406,38.152 182.758,61.172"/>
  <path fill="rgb(19.215686%, 46.27451%, 56.862745%)" opacity="0.906" d="M22.809,-1.953 C4.523,-2.586 -6.953,-2.371 -8.488,5.609 C-12.555,18.32 -15.863,13.203 -12.414,1.219 C-10.461,-5.922 -5.777,-10.605 7.746,-18.285 C15.961,-19.273 21.859,-16.156 22.809,-1.953"/>
  <path fill="rgb(15.686275%, 52.941176%, 29.019608%)" opacity="0.975" d="M92.633,218.25 C90.324,251.859 99.383,236.336 67.387,248.992 C62.027,249.016 65.824,256.16 67.047,238.094 C63.922,225.969 41.27,215.895 41.449,220.977 C75.941,224.535 77.73,234.316 92.633,218.25"/>
  <path fill="rgb(26.27451%, 80%, 11.764706%)" opacity="0.375" d="M343.094,370.441 C322.184,419.359 317.246,424.137 311.336,430.027 C227.668,428.832 145.793,494.461 128.094,370.621 C245.234,364.09 282.586,350.973 286.906,355.168 C280.359,358.531 291.027,362.988 343.094,370.441"/>
  <path fill="rgb(96.470588%, 26.27451%, 12.54902%)" opacity="0.944" d="M113.5,378.945 C120.145,424.758 121.387,418.016 108.906,410.461 C113.945,386.762 108.633,348.73 110.5,354.941 C112.629,345.723 106.473,335.707 115.113,340.195 C116.551,343.859 112.012,333.305 113.5,378.945"/>
  <path fill="rgb(21.568627%, 20%, 28.627451%)" d="M249.516,74.906 C306.199,67.938 317.977,67.254 291.789,91.172 C266.559,95.879 282.875,85.422 259.98,103.324 C277.203,112.012 267.508,100.945 257.695,114.793 C245.156,112.855 239.238,91.195 249.516,74.906"/>
  <path fill="rgb(53.72549%, 63.529412%, 17.647059%)" opacity="0.353" d="M411.902,363.816 C369.32,421.496 333.961,401.285 309.551,411.457 C295.379,413.469 285.039,412.961 289.922,354.957 C273.641,356.527 307.262,360.137 331.945,361.746 C380.184,346.82 383.664,373.77 411.902,363.816"/>
  <path fill="rgb(90.588235%, 38.431373%, 10.980392%)" opacity="0.813" d="M429.617,370.695 C390.492,362.414 271.031,362.035 175.602,358.742 C110.746,370.273 107.812,368.734 107.539,357.355 C139.324,357.496 165.348,357.035 170.18,359.5 C149.77,365.164 178.426,370.309 429.617,370.695"/>
  <path fill="rgb(3.529412%, 54.509804%, 22.352941%)" opacity="0.585" d="M206.91,94.695 C225.516,112.34 228.496,119.359 202.527,120.055 C198.887,125.844 194.395,110.633 166.816,119.617 C195.43,79.516 86.949,62.992 170.926,54.926 C188.414,89.449 216.633,99.105 206.91,94.695"/>
  <path fill="rgb(93.333333%, 38.039216%, 17.647059%)" opacity="0.909" d="M114.867,362.25 C99.496,356.426 72.137,353.883 71.039,359.832 C90.059,363.672 71.992,364.773 -61.48,359.703 C-36.094,349.344 50.715,354.5 84.879,360.773 C131.52,353.711 113.645,350.785 114.867,362.25"/>
  <path fill="rgb(50.196078%, 20%, 22.745098%)" opacity="0.812" d="M26.809,207.562 C-9.559,205.562 10.93,232.906 20.137,271.832 C-28.867,275.945 18.191,284.289 -0.008,263.43 C27.617,311.285 47.074,209.309 86.688,218.953 C42.789,259.582 32.785,231.535 26.809,207.562"/>
  <path fill="rgb(70.588235%, 19.607843%, 100%)" opacity="0.858" d="M5.492,-9.082 C0.109,-5.133 -6.172,-1.348 -10.352,5.012 C-10.656,16.172 -14.645,11.199 -12.605,1.191 C-10.57,-6.105 -5.887,-10.789 0.539,-12.512 C9.266,-11.953 16.281,-10.574 5.492,-9.082"/>
  <path fill="rgb(1.568627%, 58.431373%, 20.392157%)" opacity="0.664" d="M19.656,154.301 C21.965,175.16 28.82,173.758 -9.004,167.254 C-8.293,176.414 -8.551,165.316 -27.766,129.77 C-42.914,77.855 15.5,51.043 15.57,86.215 C30.785,124.84 22.781,116.543 19.656,154.301"/>
  <path fill="rgb(50.588235%, 90.588235%, 94.117647%)" opacity="0.222" d="M393.738,14.191 C388.746,46.285 393.5,30.703 393.945,27.051 C381.801,31.133 379.164,24.91 421.461,33.559 C380.812,-19.777 376.379,-12.988 380.5,-5.305 C386.32,-2.996 390.992,1.41 393.738,14.191"/>
  <path fill="rgb(25.098039%, 81.960784%, 1.176471%)" opacity="0.273" d="M387.488,348.516 C401.812,353.895 400.848,357.254 404.742,338.707 C398.562,336.77 384,328.117 377.242,303.691 C395.379,301.363 382.605,319.285 385.809,290.594 C400.938,306.883 389.23,331.344 387.488,348.516"/>
  <path fill="rgb(33.72549%, 26.27451%, 50.196078%)" opacity="0.409" d="M35.965,199.988 C49.062,191.594 18.469,196.301 -8.062,203.766 C5.406,273.246 -6.043,265.492 31.984,201.855 C35.949,172.32 55.102,169.625 30.582,229.781 C54.48,188.156 37.422,161.578 35.965,199.988"/>
  <path fill="rgb(91.372549%, 24.313725%, 11.372549%)" opacity="0.943" d="M223.492,345.973 C224.188,363.176 219.668,399.652 220.594,410.691 C207.922,401.652 217.539,414.98 217.438,338.75 C215.195,343.137 213.125,340.664 223.164,341.797 C220.402,343.629 225.191,333.207 223.492,345.973"/>
  <path fill="rgb(100%, 95.294118%, 97.647059%)" opacity="0.996" d="M294.375,91.324 C285.016,145.035 292.281,117.797 233.051,124.527 C229.703,89.531 243.309,95.184 282.805,90.305 C288.93,92.684 297.516,85.707 306.602,77.086 C342.336,55.609 300.262,85.586 294.375,91.324"/>
  <path fill="rgb(18.431373%, 32.941176%, 16.862745%)" opacity="0.727" d="M43.988,196.582 C53.02,233.266 50.641,241.328 23.809,246.875 C-2.07,206.027 7.199,185.969 2.91,185.246 C18.469,189.09 19.234,188.176 23.805,189.113 C27.367,203.242 27.586,224.242 43.988,196.582"/>
  <path fill="rgb(4.313725%, 53.72549%, 25.490196%)" opacity="0.944" d="M8.508,167.578 C14.164,175.043 28.367,185.117 35.664,199.434 C27.84,225.043 -0.98,228.004 -19.684,195.211 C0.141,172.59 -2.703,175.781 -14.391,169.691 C-10.445,167.391 -13.711,188.422 8.508,167.578"/>
  <path fill="rgb(50.196078%, 31.372549%, 43.137255%)" opacity="0.812" d="M4.652,-10.676 C0.621,-7.246 -4.059,-2.676 -7.523,10.352 C-8.988,23.047 -7.883,14.41 -10.566,3.457 C-10.812,-6.066 -6.125,-10.754 -0.043,-12.371 C2.324,-7.207 6.359,-1.105 4.652,-10.676"/>
  <path fill="rgb(27.843137%, 74.509804%, 30.196078%)" d="M122.012,55.488 C151.074,49.977 127.562,23.449 99.805,64.082 C63.816,27.715 50.496,101.719 -8.246,109.191 C27.762,20.223 60.871,71.332 58.336,54.945 C84.59,35.586 77.973,34.277 122.012,55.488"/>
  <path fill="rgb(16.470588%, 35.686275%, 43.529412%)" opacity="0.774" d="M14.699,-4.973 C8.281,-5.875 -4.73,-3.09 -7.879,5.93 C-4.961,6.98 -11.008,3.613 -12.848,-0.191 C-10.512,-6.324 -5.824,-11.008 -1.297,-11.492 C6.262,-11.73 11.883,-8.445 14.699,-4.973"/>
</svg>

