<svg xmlns="http://www.w3.org/2000/svg" width="384" height="384" viewBox="0 0 384 384">
  <defs/>
  <path fill="rgb(42.352941%, 0%, 5.882353%)" d="M204.125,188.512 C142.82,282.055 144.664,293.504 41.285,290.621 C-10.281,253.336 -6.027,245.242 -17.375,167.051 C-12.117,146.555 0.785,162.145 143.918,158.551 C185.562,122.102 212.406,99.469 204.125,188.512"/>
  <path fill="rgb(13.72549%, 42.352941%, 41.176471%)" opacity="0.944" d="M395.266,309.449 C398.535,407.062 391.391,406.695 242.797,429.047 C179.156,480.129 177.125,499.969 178.598,261.105 C190.828,193.688 200.508,193.68 299.117,199.527 C448.312,221.941 428.129,228.715 395.266,309.449"/>
  <path fill="rgb(100%, 32.54902%, 0.784314%)" d="M384.211,115.914 C416.102,186.676 456.523,226.707 261.336,242.719 C144.277,235.629 156.355,198.383 104.578,114.395 C162.367,-82.16 170.406,-69.699 309.242,-40.227 C402.191,-20.211 410.449,-15.895 384.211,115.914"/>
  <path fill="rgb(8.627451%, 54.509804%, 59.215686%)" opacity="0.998" d="M151.34,-52.809 C111.766,138.734 94.879,130.406 67.203,138.48 C-19.422,164.719 -21.223,176.113 -25.676,91.32 C-36.77,-1.301 -44.492,-9.512 81.895,-13.871 C178.086,-29.359 186.836,-32.824 151.34,-52.809"/>
  <path fill="rgb(0%, 0%, 0%)" opacity="0.584" d="M202.984,203.434 C137.543,387.59 176.641,410.816 167.215,400.359 C-21.227,396.48 -25.055,392.078 -35.719,338.562 C-35.453,204.613 -28.711,204.855 107.344,233.133 C228.836,208.414 205.695,197.887 202.984,203.434"/>
  <path fill="rgb(12.156863%, 0%, 1.960784%)" d="M179.953,288.949 C205.809,289.734 201.574,312.344 170.402,336.402 C138.586,330.395 150.629,312.277 154.195,296.082 C165.445,269.672 156.285,231.375 212.945,202.098 C204.684,210.418 191.449,248.848 179.953,288.949"/>
  <path fill="rgb(11.372549%, 56.078431%, 60%)" opacity="0.993" d="M92.41,259.953 C73.301,320.062 81.289,347.598 40.438,395.613 C-35.137,386.195 -36.695,373.32 -78.777,243.688 C-76.039,183.125 -85.484,154.312 50.402,132.922 C129.848,202.969 101.293,243.598 92.41,259.953"/>
  <path fill="rgb(18.823529%, 56.470588%, 52.54902%)" d="M205.871,279.664 C174.426,358.512 191.508,394.453 157.895,415.426 C79.473,408.324 79.5,400.895 80.801,321.191 C102.047,298.742 108.453,285.867 170.863,238.535 C159.496,303.629 216.156,235.945 205.871,279.664"/>
  <path fill="rgb(16.078431%, 57.254902%, 53.333333%)" opacity="0.959" d="M151.98,347.719 C150.797,432.504 135.949,429.352 101.629,427.215 C33.062,402.461 12.57,409.832 -32.473,362.137 C16.758,326.188 39.051,333.781 85.082,317.363 C143.207,308.699 153.051,304.391 151.98,347.719"/>
  <path fill="rgb(7.45098%, 58.039216%, 60.392157%)" d="M86.012,279.371 C95.77,333.867 91.121,312.316 60.777,323.133 C41.855,326.465 48.949,315.418 37.656,262.676 C30.02,214.203 -32.523,178.234 126.523,151.191 C203.688,191.867 148.332,244.836 86.012,279.371"/>
  <path fill="rgb(0%, 56.078431%, 61.176471%)" opacity="0.974" d="M324.336,104.184 C365.527,127.074 369.328,176.465 319.93,144.742 C190.344,154.668 209.363,126.504 214.105,83.824 C267.762,10.273 266.977,0.496 279.941,15.523 C283.059,49.676 280.031,74.258 324.336,104.184"/>
  <path fill="rgb(5.882353%, 56.078431%, 56.862745%)" opacity="0.976" d="M286.652,39.699 C279.367,101.184 291.816,139.695 274.777,145.426 C205.375,106.766 210.051,84.227 197.574,23.621 C188.918,-19.391 187.227,-28.184 241.168,-23.605 C290.773,-7.391 296.363,-1.531 286.652,39.699"/>
  <path fill="rgb(3.137255%, 55.686275%, 58.823529%)" opacity="0.979" d="M384.566,105.203 C379.195,105.066 368.855,58.234 300.699,52.883 C269.938,49.98 290.695,54.93 273.605,-7.531 C251.34,-12.691 262.59,-14.867 338.227,-31.715 C380.043,-31.637 394.691,-31.168 384.566,105.203"/>
  <path fill="rgb(9.411765%, 55.686275%, 57.647059%)" opacity="0.959" d="M263.641,79.445 C275.441,147.043 285.738,154.84 237.066,143.656 C173.84,127.66 184.461,94.488 125.629,53.41 C129.316,-28.309 130.555,-37.266 201.418,-37.43 C261.453,1.207 256.879,21.062 263.641,79.445"/>
  <path fill="rgb(32.54902%, 65.882353%, 0.392157%)" opacity="0.67" d="M3.328,-10.391 C0.48,-4.84 -5.168,-1.121 -11.434,2.441 C-0.906,5.73 -9.98,5.227 -12.281,0.281 C-10.57,-6.105 -5.887,-10.789 0.516,-12.504 C6.914,-10.789 11.598,-6.105 3.328,-10.391"/>
</svg>

