<svg xmlns="http://www.w3.org/2000/svg" width="384" height="384" viewBox="0 0 384 384">
  <defs/>
  <path fill="rgb(74.117647%, 100%, 97.254902%)" opacity="0.429" d="M20.516,0.324 C9.207,4.742 12.961,7.879 2.922,-1.258 C-11.918,5.305 -16.484,0.848 -13.781,-1.355 C-10.812,-6.066 -6.125,-10.754 -1.008,-11.492 C2.918,-7.656 5.492,-1.004 20.516,0.324"/>
  <path fill="rgb(84.705882%, 20.392157%, 65.882353%)" opacity="0.927" d="M21.844,-7.195 C4.125,-9.582 -6.367,-5.828 -6.457,10.305 C-13.043,16.828 -20.734,17.824 -14.676,4.246 C-10.57,-6.105 -5.887,-10.789 0.734,-12.586 C8,-13.227 14.074,-14.086 21.844,-7.195"/>
  <path fill="rgb(33.333333%, 100%, 98.823529%)" opacity="0.871" d="M432.52,62.594 C419.672,296.781 384.957,261.527 269,163.605 C73.961,37.504 59.504,37.816 41.73,28.785 C94.359,22.762 110.207,23.82 120.727,-0.066 C172.02,-53.957 315.293,-169.043 432.52,62.594"/>
  <path fill="rgb(98.039216%, 92.156863%, 22.352941%)" opacity="0.382" d="M335.648,357.738 C315.559,464.746 299.371,459.523 229.742,440.578 C-143.84,389.473 -102.375,373.711 -35.738,268.582 C-26.266,130.133 -34.887,111.535 2,114.148 C90.555,139.852 234.203,74.832 335.648,357.738"/>
  <path fill="rgb(72.941176%, 92.941176%, 0%)" opacity="0.999" d="M387.512,291.508 C349.328,365.129 319.57,345.078 285.148,334.93 C59.383,139.074 60.992,116.172 44.781,31.238 C-24.793,40.227 -5.566,31.949 43.004,39.605 C199.016,88.012 329.18,-43.609 387.512,291.508"/>
  <path fill="rgb(75.686275%, 90.980392%, 2.745098%)" opacity="0.218" d="M197.988,213.465 C210.332,220.547 226.754,208.27 216.375,225.758 C189.906,235.641 163.066,205.664 154.734,166.211 C149.555,130.738 153.055,125.977 235.062,136.32 C214.043,162.633 188.625,186.082 197.988,213.465"/>
  <path fill="rgb(72.156863%, 94.117647%, 0%)" opacity="0.977" d="M406.262,257.922 C334.84,307.016 292.641,238.844 243.344,117.117 C119.051,108.172 94.098,122.996 120.219,94 C170.094,39.219 173.117,26.699 169.082,80.129 C239.91,101.977 319.109,5.145 406.262,257.922"/>
  <path fill="rgb(46.27451%, 6.666667%, 3.921569%)" opacity="0.922" d="M325.949,182.395 C321.02,218.484 302.906,232.992 264.656,236.699 C220.559,224.75 217.676,203.855 209.793,170.344 C214.645,158.203 202.391,86.273 245.613,109.871 C301.191,128.688 318.477,146.07 325.949,182.395"/>
  <path fill="rgb(38.431373%, 99.607843%, 100%)" d="M175.477,203.645 C208.148,285.164 247.094,260.855 115.562,266.004 C-78.992,271.484 -93.078,286.008 -74.047,132.078 C-6.375,44.648 18.879,49.422 123.527,30.641 C166.512,86.516 149.609,127.684 175.477,203.645"/>
  <path fill="rgb(41.568627%, 100%, 96.862745%)" opacity="0.997" d="M205.656,44.219 C132.188,87.863 175.898,154.891 154.027,153.066 C96.633,136.949 21.086,174.129 -46.707,52.852 C-12.086,-8.543 -2.113,-16.051 81.523,-35.297 C268.184,-32.523 288.09,14.363 205.656,44.219"/>
</svg>

