<svg xmlns="http://www.w3.org/2000/svg" width="384" height="384" viewBox="0 0 384 384">
  <defs/>
  <path fill="rgb(0.784314%, 34.509804%, 28.627451%)" opacity="0.963" d="M292.887,279.785 C321.02,362.309 322.266,390.441 133.867,389.551 C-138.137,333.234 -65.512,295.531 -3.578,106.953 C-23.812,7.152 -32.66,-5.496 28.242,-23.312 C159.68,-29.234 142.75,-7.805 292.887,279.785"/>
  <path fill="rgb(5.098039%, 37.647059%, 27.843137%)" opacity="0.987" d="M415.133,145.156 C434.891,204.367 450.852,219.305 349.445,232.352 C269.715,104.637 253.652,93.289 228.879,-13.18 C228.008,-19.145 238.43,-18.297 359.289,-18.902 C390.594,-25.379 395.371,-23.242 415.133,145.156"/>
  <path fill="rgb(4.705882%, 40.784314%, 26.27451%)" d="M224.438,10.359 C235.203,151.723 251.336,152.383 191.305,164.781 C107.961,121.785 122.293,82.758 72.512,-16.73 C68.441,-18.609 81.281,-16.117 150.73,-29.219 C222.781,-31.617 222.543,-29.445 224.438,10.359"/>
  <path fill="rgb(5.490196%, 35.686275%, 37.254902%)" opacity="0.617" d="M214.762,167.258 C232.582,211.23 249.02,233.453 191.801,267.523 C63.914,211.93 103.074,143.172 93.211,25.871 C43.312,-16.289 51.246,-29.496 56.41,-17.875 C146.625,70.109 182.719,67.387 214.762,167.258"/>
  <path fill="rgb(9.019608%, 35.686275%, 32.54902%)" opacity="0.998" d="M383.809,224.27 C436.707,262.695 450.039,263.211 392.16,341.582 C65.758,309.016 109.801,293.016 192.492,205.199 C215.156,48.961 206.328,17.723 239.566,-25.801 C304.422,15.613 290.609,58.465 383.809,224.27"/>
  <path fill="rgb(5.098039%, 40%, 28.627451%)" opacity="0.98" d="M351.91,333.777 C329.477,549.242 222.438,462.629 128.414,432.75 C49.195,398.551 39.336,400.508 26.352,387.945 C30.91,332.004 41.387,324.309 57.52,295.773 C144.309,341.281 267.801,297.238 351.91,333.777"/>
  <path fill="rgb(10.980392%, 34.117647%, 36.862745%)" opacity="0.24" d="M135.352,84.77 C130.859,131.918 110.094,143.609 98.566,158.18 C73.348,99.988 72.219,71.293 66.93,61.508 C66.273,40.562 60.297,26.422 69.25,40.973 C105.625,52.652 129.941,42.152 135.352,84.77"/>
  <path fill="rgb(83.137255%, 100%, 6.666667%)" opacity="0.942" d="M281.359,139.629 C313.898,82.078 371.453,123.836 323.586,157.809 C255.375,204.254 222.105,171.594 257.391,135.211 C253.512,119.836 249.844,91.227 289.16,97.07 C345.902,146.816 236.328,91.992 281.359,139.629"/>
  <path fill="rgb(6.27451%, 40%, 27.058824%)" opacity="0.483" d="M169.988,66.098 C180.012,95.867 161.551,90.512 118.289,83.109 C70.059,74.723 67.168,60.984 62.438,3.59 C64.254,-23.695 62.281,-25.676 77.031,-4.617 C109.566,13.953 132.922,10.301 169.988,66.098"/>
  <path fill="rgb(5.490196%, 40%, 30.588235%)" opacity="0.996" d="M78.164,377.93 C102.465,392.219 98.84,400.938 37.914,415.652 C-3.75,396.828 -9.855,393.047 -27.957,386.805 C-24.07,303.121 1.891,318.273 45.016,312.848 C57.051,311.34 63.957,339.633 78.164,377.93"/>
  <path fill="rgb(72.156863%, 93.333333%, 0%)" opacity="0.956" d="M248.977,242.941 C147.703,294.094 18.457,282.988 97.039,203.027 C118.965,173.32 99.16,194.141 119.289,171.555 C143.996,148.09 168.289,146.875 176.504,143.203 C210.895,144.055 240.441,119.207 248.977,242.941"/>
  <path fill="rgb(33.72549%, 56.470588%, 15.294118%)" opacity="0.478" d="M8.73,-6.984 C9.324,-1.73 17.605,-5.07 4.277,-7.52 C-14.832,6.41 -18.469,2.035 -18.723,-4.391 C-10.57,-6.105 -5.887,-10.789 1.742,-13.969 C4.199,-8.406 9.395,-4.289 8.73,-6.984"/>
  <path fill="rgb(5.882353%, 40.392157%, 27.45098%)" opacity="0.99" d="M409.129,366.094 C391.07,421.77 376.34,408.293 334.504,403.305 C298.281,400.887 297.852,391.809 293.02,389.641 C285.883,317.309 253.184,312.676 340.199,294.551 C421.738,291.207 420.043,285.945 409.129,366.094"/>
  <path fill="rgb(76.078431%, 96.078431%, 10.980392%)" opacity="0.861" d="M337.973,143.797 C244.688,235.957 316.039,273.191 236.223,275.445 C256.145,149.969 214.984,135.383 164.223,150.203 C172.5,150.906 189.375,145.922 230.672,138.926 C273.492,106.031 230.973,136.223 337.973,143.797"/>
  <path fill="rgb(61.960784%, 100%, 0%)" opacity="0.938" d="M264.129,186.719 C214.68,245.332 222.977,200.359 245.254,221.293 C188.156,276.621 179.656,233.715 54.32,250.633 C82.309,154.926 94.137,174.395 102.156,188.227 C131.727,150.5 231.805,105.797 264.129,186.719"/>
</svg>

