<svg xmlns="http://www.w3.org/2000/svg" width="384" height="384" viewBox="0 0 384 384">
  <defs/>
  <path fill="rgb(100%, 0%, 1.176471%)" d="M387.602,104.055 C366.008,216.484 328.09,200.086 256.371,222.57 C58.016,198.609 72.816,117.719 43.305,-15.531 C49.984,-50.852 78.254,-29.941 273.613,-26.727 C380.023,-104.012 394.672,-157.387 387.602,104.055"/>
  <path fill="rgb(23.921569%, 76.862745%, 16.470588%)" opacity="0.955" d="M390.723,314.027 C396.445,401.086 391.133,403.477 309.625,431.316 C255.449,429.621 256.883,422.098 275.375,347.461 C276.512,253.438 227.035,166.465 389.66,114.227 C458.715,171.348 411.684,232.285 390.723,314.027"/>
  <path fill="rgb(95.294118%, 21.176471%, 25.882353%)" opacity="0.986" d="M133.016,77.684 C93.383,131.102 93.629,149.129 18.121,199.789 C-13.996,185.207 -23.355,183.109 -25.836,73.152 C-17.426,22.293 -26.008,4.832 5.348,-8.293 C153.207,-8.812 129.613,0.582 133.016,77.684"/>
  <path fill="rgb(94.117647%, 1.176471%, 16.078431%)" opacity="0.732" d="M217.465,197.535 C224.367,251.496 212.039,249.34 55.422,387.477 C-143.098,382.52 -108.07,364.527 -55.109,281.848 C52.438,96.164 58.039,86.965 125.598,60.891 C163.695,58.434 214.793,34.766 217.465,197.535"/>
  <path fill="rgb(76.470588%, 0%, 6.666667%)" opacity="0.999" d="M333.395,221.727 C356.457,452.82 360.371,454.719 210.52,464.223 C20.434,453.688 -15.77,507.027 24.539,386.863 C116.645,201.18 142.051,221.512 262.09,174.863 C397.105,217.66 403.398,199.133 333.395,221.727"/>
  <path fill="rgb(4.313725%, 97.254902%, 32.54902%)" opacity="0.971" d="M315.766,238.84 C311.262,244.742 301.801,254.133 264.305,284.039 C243.453,293.59 226.031,273.547 223.953,215.664 C269.098,172.711 251.418,154.262 277.004,193.555 C303.168,211.793 321.133,218.719 315.766,238.84"/>
  <path fill="rgb(10.588235%, 90.588235%, 39.607843%)" opacity="0.988" d="M312.113,247.477 C282.32,268.828 277.125,285.746 244.625,298.945 C152.973,220.438 144.199,238.145 127.637,202.754 C195.66,259.363 149.652,265.48 239.066,194.977 C294.922,202.629 297.141,199.82 312.113,247.477"/>
  <path fill="rgb(1.960784%, 93.72549%, 34.509804%)" d="M228.953,176.535 C196.23,196.566 173.426,208.312 149.285,231.102 C103.32,202.336 82.934,187.965 91.305,156.996 C111.039,153.613 132.262,137.609 344.082,58.559 C310.98,161.203 57.051,170.363 228.953,176.535"/>
  <path fill="rgb(96.470588%, 0%, 13.333333%)" d="M341.035,297.027 C435.191,222.988 395.453,337.652 357.223,352.613 C308.496,339.488 298.934,334.781 305.379,249.613 C324.398,225.781 322.094,235.723 334.16,223.129 C337.77,220.434 335.281,269.363 341.035,297.027"/>
  <path fill="rgb(14.117647%, 77.647059%, 0%)" opacity="0.549" d="M356.27,213.707 C338.844,235.996 351.156,207.484 298.582,196.207 C281.336,218.574 299.055,205.629 259.602,168.055 C257.969,169.086 262.656,182.762 289.355,203.508 C302.109,202.102 278.25,188.789 356.27,213.707"/>
  <path fill="rgb(95.294118%, 100%, 0%)" d="M318.855,315.426 C321.477,315.168 318.672,312.457 238.875,376.691 C184.875,328.477 184.355,378.391 189.934,256.668 C274.988,305.824 215.395,310.711 310.527,240.121 C315.109,243.27 319.227,255.277 318.855,315.426"/>
  <path fill="rgb(95.686275%, 18.039216%, 31.372549%)" opacity="0.992" d="M457.18,69.309 C461.605,84.828 477.555,105.77 373.699,149.617 C281.062,91.75 245.305,81.488 208.266,35.164 C344.5,-31.703 370.547,-12.457 385.492,-6.867 C386.582,-4.066 391.242,0.641 457.18,69.309"/>
  <path fill="rgb(99.607843%, 100%, 0%)" d="M156.605,232.895 C166.387,222.965 165.387,284.25 165.555,326.008 C97.703,285.355 124.418,313.238 117.531,227.859 C121.855,196.887 88.141,190.438 82.09,181.645 C130.898,213.703 119.223,209.812 156.605,232.895"/>
  <path fill="rgb(0.784314%, 94.117647%, 34.901961%)" opacity="0.96" d="M262.863,123.105 C293.316,108.418 269.816,122.598 257.004,153.668 C248.141,152.008 263.543,157.059 186.082,125.559 C268.797,33.281 270.832,100.121 271.961,120.293 C316.695,68.234 270.453,128.934 262.863,123.105"/>
  <path fill="rgb(92.54902%, 23.137255%, 25.490196%)" opacity="0.985" d="M324.062,52.062 C212.41,129.234 178.961,133.457 21.41,245.363 C-44.98,195.344 16.02,76.598 77.66,57.844 C108.055,65.656 99.973,58.531 93.172,-27.723 C250.598,-52.238 289.887,-65.172 324.062,52.062"/>
</svg>

