<svg xmlns="http://www.w3.org/2000/svg" width="384" height="384" viewBox="0 0 384 384">
  <defs/>
  <path fill="rgb(47.843137%, 54.509804%, 51.764706%)" opacity="0.82" d="M413.363,141.719 C414.5,306.297 436.105,337.789 372.77,385.172 C201.184,350.715 214.629,292.098 246.699,170.637 C263.324,137.855 250.301,115.562 375.773,24.262 C457.402,38.461 439.008,56.977 413.363,141.719"/>
  <path fill="rgb(100%, 100%, 38.823529%)" opacity="0.633" d="M190.637,186.531 C201.508,332.5 218.891,390.211 68.863,431.793 C-89.031,379.207 -57.27,347.168 -20.527,239.477 C-38.027,70.391 -67.445,27.73 10.305,-16.504 C191.926,3.527 149.723,61.496 190.637,186.531"/>
  <path fill="rgb(100%, 98.823529%, 59.607843%)" opacity="0.985" d="M272.48,176.488 C242.746,228.109 239.242,232.023 200.266,295.879 C126.973,282.445 111.902,265.945 42.051,107.961 C25.27,4.305 38.504,-10.875 57.535,-2.695 C239.461,127.43 257.547,119.875 272.48,176.488"/>
  <path fill="rgb(56.470588%, 61.960784%, 60.784314%)" opacity="0.997" d="M388.211,377.965 C377.449,464.637 339.555,434.707 153.145,421.84 C36.609,456.18 5.02,484.645 91.613,463.004 C193.633,333.34 192.262,299.594 245.762,219.277 C296.93,220.57 338.172,222.852 388.211,377.965"/>
  <path fill="rgb(100%, 100%, 56.470588%)" d="M378.059,18.297 C292.602,155.688 301.352,168.344 191.938,183.488 C106.254,195.504 69.344,222.207 58.453,-8.375 C97.535,-36.051 119.996,-27.32 306.562,-23.996 C380.707,-42.953 392.746,-53.289 378.059,18.297"/>
  <path fill="rgb(0%, 0%, 5.098039%)" d="M327.863,167.555 C286.828,176.605 209.16,183.41 186.703,185.07 C126.367,180.32 50.438,175.91 64.711,156.969 C98.172,132.145 185.324,148.82 196.395,142.172 C218.43,149.902 333.734,136.117 327.863,167.555"/>
  <path fill="rgb(0%, 0%, 1.176471%)" d="M284.648,50.414 C273.496,111.102 271.484,130.406 254.918,159.73 C172.344,135.422 156.98,134.402 162.023,102.902 C185.73,45.34 198.797,41.383 223.426,37.23 C273.219,32.953 284.77,23.023 284.648,50.414"/>
  <path fill="rgb(100%, 0%, 0.784314%)" d="M273.277,110.75 C288.137,155.652 279.508,155.684 213.973,162.598 C118.688,161.598 95.629,160.215 124.062,114.609 C108.715,55.234 150.219,54.18 138.059,114.062 C172.047,126.133 207.199,117.395 273.277,110.75"/>
  <path fill="rgb(52.156863%, 62.745098%, 49.019608%)" opacity="0.722" d="M22.184,-3.949 C-0.391,-4.16 -8.969,-2.848 -12.793,4.754 C-10.672,16.18 -14.945,11.332 -12.941,1.863 C-10.57,-6.105 -5.887,-10.789 -0.824,-12.199 C9.223,-13.105 17.16,-12.016 22.184,-3.949"/>
  <path fill="rgb(0%, 0%, 1.568627%)" d="M289.355,30.805 C279.395,70.316 279.258,124.957 122.18,122.562 C124.418,138.172 120.242,114.922 86.336,54.363 C135.625,48.031 221.531,37.457 226.145,37.207 C257.066,36.172 303.543,28.859 289.355,30.805"/>
</svg>

