<svg xmlns="http://www.w3.org/2000/svg" width="384" height="384" viewBox="0 0 384 384">
  <defs/>
  <path fill="rgb(0%, 9.411765%, 16.078431%)" d="M400.297,100.867 C406.992,203.387 420.078,228.652 376.398,225.789 C368.289,207.957 329.637,213.188 327.25,184.805 C364.641,121.414 354.566,70.402 351.816,35.113 C444.473,4.027 419.523,32.609 400.297,100.867"/>
  <path fill="rgb(100%, 96.862745%, 96.078431%)" opacity="0.389" d="M255.414,129.711 C284.969,160.832 264.949,134.641 111.918,242.578 C86.18,296.566 -36.715,267.648 -55.457,142.031 C-6.352,-102.949 4.906,-77.477 140.984,-40.766 C275.797,-27.676 257.406,-22.426 255.414,129.711"/>
  <path fill="rgb(1.960784%, 12.54902%, 14.901961%)" opacity="0.994" d="M380.277,76.871 C275.676,40.531 339.441,8.719 290.703,158.574 C187.855,129.746 147.027,168.254 187.605,119.586 C181.277,-32.59 149.762,-26.91 237.938,-12.129 C387.633,-42.812 404.551,-46.211 380.277,76.871"/>
  <path fill="rgb(1.960784%, 10.980392%, 14.117647%)" d="M279.758,279.996 C320.117,404.82 354.848,406.477 0.637,427.938 C-57.477,247.672 -105.281,225.078 99.531,274.508 C215.477,251.547 82.824,67.859 294.961,157.379 C228.457,137.703 172.691,236.871 279.758,279.996"/>
  <path fill="rgb(3.921569%, 11.372549%, 17.647059%)" opacity="0.999" d="M419.832,291.34 C428.637,380.203 447.156,393.461 265.672,420.621 C248.977,448.598 248.832,450.02 243.395,261.246 C213.387,277.359 365.09,295.613 330.48,174.031 C469.934,203.344 450.094,208.965 419.832,291.34"/>
  <path fill="rgb(0%, 9.803922%, 17.254902%)" opacity="0.997" d="M177.738,66.074 C176.055,95.656 181.238,104.711 171.875,99.324 C142.656,120.219 165.34,69.254 121.227,52.387 C128.336,10.168 145.914,19.176 169.691,23.812 C170.695,33.859 173.27,43.27 177.738,66.074"/>
  <path fill="rgb(0%, 2.352941%, 5.098039%)" d="M95.688,152.672 C46.91,160.418 90.312,208.898 77.605,286.645 C85.906,98.562 41.68,222.602 50.262,162.582 C64.43,115.844 61.602,110.25 97.148,72.348 C97.453,76.109 102.926,100.941 95.688,152.672"/>
  <path fill="rgb(0%, 9.803922%, 15.294118%)" d="M160.652,-12.105 C150.418,40.602 186.93,61.891 167.293,60.633 C136.242,59.441 114.898,58.754 55.312,18.574 C108.578,-31.945 129.469,-23.062 155.414,-17.129 C187.523,-13.121 211.309,-18.508 160.652,-12.105"/>
  <path fill="rgb(2.352941%, 8.235294%, 18.039216%)" opacity="0.994" d="M165.699,127.453 C194.742,137.926 178.258,141.824 171.023,126.289 C143.055,210.09 146.855,187.406 155.734,122.309 C148.742,52.242 146.457,82.484 172.328,88.914 C180.629,98.582 154.59,101.535 165.699,127.453"/>
  <path fill="rgb(0%, 12.156863%, 16.470588%)" d="M106.141,33.707 C79.152,35.484 -2.871,47.609 14.488,255.484 C-145.941,241.723 -61.844,138.609 -25.73,42.672 C-7.105,-5.559 0.117,-10.062 67.129,-40.23 C104.59,-45.492 118.312,-46.121 106.141,33.707"/>
  <path fill="rgb(6.27451%, 12.941176%, 16.470588%)" opacity="0.476" d="M388.602,334.453 C398.762,374.5 398.941,386.992 306.641,456.836 C216.246,443.961 220.332,418.699 219.473,299.789 C272.758,279.391 297.137,296.816 330.605,293.047 C347.371,272.344 345.926,287.855 388.602,334.453"/>
  <path fill="rgb(1.568627%, 14.509804%, 16.862745%)" opacity="0.276" d="M411.793,240.219 C401.25,288.047 380.539,275.375 346.988,284.941 C320.953,281.926 307.203,278.156 343.867,281.031 C374.801,269.043 398.289,222.035 331.637,184.012 C393.816,178.809 402.902,198.875 411.793,240.219"/>
  <path fill="rgb(6.666667%, 46.27451%, 25.098039%)" opacity="0.348" d="M4.266,-13.277 C1.402,-6.473 -6.48,-3.191 -18.059,3.879 C-5.789,10.191 -6.523,2.613 -8.66,-4.152 C-10.57,-6.105 -5.887,-10.789 3.105,-15.141 C9.598,-13.652 12.066,-7.395 4.266,-13.277"/>
  <path fill="rgb(0.784314%, 14.117647%, 19.607843%)" opacity="0.299" d="M377.164,298.238 C388.863,339.371 391.895,343.027 355.676,349.004 C329.727,318.395 315.039,319.496 323.457,294.711 C338.664,292.219 351.195,289.711 383.07,285.336 C371.855,274.48 373.816,288.73 377.164,298.238"/>
  <path fill="rgb(1.960784%, 14.117647%, 17.254902%)" opacity="0.529" d="M396.758,301.031 C397.648,331.309 412.105,360.078 417.957,358.105 C359.367,315.734 351.395,302.414 347.047,294.465 C344.961,279.012 347.754,271.078 371.156,248.84 C403.512,258.551 399.996,272.699 396.758,301.031"/>
</svg>

