<svg xmlns="http://www.w3.org/2000/svg" width="384" height="384" viewBox="0 0 384 384">
  <defs/>
  <path fill="rgb(13.72549%, 77.254902%, 89.411765%)" d="M93.371,53.852 C74.305,104.301 83.598,132.398 -8.703,148.16 C-53.668,142.191 -29.062,108.996 -14.539,46.199 C-19.047,-0.625 -21.129,-9.52 41.844,-17.223 C70.863,-16.684 78.738,-8.832 93.371,53.852"/>
  <path fill="rgb(16.078431%, 80%, 90.196078%)" opacity="0.993" d="M205.59,26.352 C180.027,116.836 153.52,82.434 68.789,81.848 C56.324,94.305 52.094,96.211 61.039,42.668 C60.586,-3.516 57.348,-15.973 91.254,-21.406 C169.828,-26.434 188.586,-38.09 205.59,26.352"/>
  <path fill="rgb(12.941176%, 78.431373%, 88.627451%)" opacity="0.994" d="M391.352,41.09 C394.805,155.941 392.898,166.047 361.582,236.219 C236.195,104.051 234.52,88.906 172.402,20.758 C195.551,-32.355 199.633,-39.48 299.926,-36.578 C376.035,-29.602 390.66,-43.004 391.352,41.09"/>
  <path fill="rgb(14.117647%, 78.431373%, 90.980392%)" d="M198.184,121.922 C231.879,185.883 245.203,216.281 82.477,311.418 C-105.582,299.996 -78.598,284.031 -38.426,204.914 C49.887,20.691 82.984,22.34 141.477,24.078 C194.703,10.145 185.816,-12.57 198.184,121.922"/>
  <path fill="rgb(43.529412%, 13.333333%, 0%)" opacity="0.998" d="M372.25,311.762 C447.164,300.035 452.914,327.098 95.879,332.734 C50.484,310.902 68.398,299.953 66.32,212.848 C157.258,-0.664 219.203,52.461 169.539,43.641 C281.953,58.59 264.703,64.965 372.25,311.762"/>
  <path fill="rgb(14.509804%, 79.607843%, 89.803922%)" d="M113.652,283.25 C99.254,320.738 110.16,339.348 83.824,352.594 C68.426,322.734 68.465,306.191 50.52,305.516 C53.91,283.418 42.098,224.758 82.152,170.168 C171.531,214.961 123.074,192.629 113.652,283.25"/>
  <path fill="rgb(11.764706%, 76.862745%, 88.627451%)" opacity="0.997" d="M405.402,349.25 C411.512,385.742 413.441,393.387 283.906,415.91 C204.016,417.172 187.293,411.438 187.895,327.25 C249.617,134.176 308.926,245.512 294.203,129.664 C460.234,135.742 425.016,201.32 405.402,349.25"/>
  <path fill="rgb(7.45098%, 78.039216%, 90.980392%)" d="M162.035,322.52 C162.953,355.609 211.301,376.551 127.855,407.441 C64.574,386.445 78.633,358.562 81.633,344.438 C97.668,296.828 70.426,247.023 125.441,215.785 C136.723,252.379 147.074,274.727 162.035,322.52"/>
  <path fill="rgb(15.686275%, 79.607843%, 87.843137%)" d="M87.844,366.672 C100.121,417.5 106.668,427.859 18.016,429.023 C-20.375,392.227 -19.238,383.289 -29.391,345.387 C-25.742,263.16 -11.488,267.918 30.539,277.082 C65.996,279.73 79.637,294.305 87.844,366.672"/>
  <path fill="rgb(100%, 86.666667%, 27.058824%)" d="M237.348,281.375 C186.27,393.004 206.664,380.473 179.484,374.297 C109.016,424.008 122.191,413.207 176.086,402.91 C147.574,316.234 131.09,257.633 107.133,185.266 C313.938,231.59 283.32,142.199 237.348,281.375"/>
</svg>

