<svg xmlns="http://www.w3.org/2000/svg" width="384" height="384" viewBox="0 0 384 384">
  <defs/>
  <path fill="rgb(57.254902%, 80%, 0%)" d="M358.789,19.43 C339.293,-0.766 403.742,0.199 416.27,238.5 C197.816,253.738 218.223,134.297 220.496,-58.672 C296.02,-53.172 333.832,-101.969 420.461,52.266 C380.68,130.238 405.953,86.16 358.789,19.43"/>
  <path fill="rgb(73.333333%, 70.196078%, 9.411765%)" opacity="0.762" d="M83.551,26.43 C66.781,168.074 102.465,239.207 -14.426,277.422 C-66.281,248.336 -28.809,201.68 -36.348,78.379 C-17.504,58.078 -43.789,19.734 18.496,-16.328 C158.395,-4.508 112.23,10.043 83.551,26.43"/>
  <path fill="rgb(53.333333%, 67.843137%, 0%)" opacity="0.571" d="M102.793,243.34 C113.348,215.703 122.523,275.391 133.711,410.594 C-32.297,411.805 -20.883,400.016 10.34,259.766 C169.473,258.414 89.016,294.711 105.281,177.949 C111.176,201.02 121.309,237.5 102.793,243.34"/>
  <path fill="rgb(65.098039%, 81.176471%, 17.254902%)" opacity="0.963" d="M290.32,0.469 C307.332,231.559 326.457,319.34 194.359,432.832 C-50.566,414.359 23.008,325.719 76.473,79.523 C28.816,19.629 4.98,-9.16 227.004,-6.473 C255.535,72.496 130.867,40.496 290.32,0.469"/>
  <path fill="rgb(26.27451%, 60.392157%, 4.313725%)" opacity="0.991" d="M376.617,290.754 C368.16,330.324 390.879,399.367 353.184,507.652 C182.055,470.301 191.328,360.148 236.402,239.566 C314.684,170.422 256.488,132.043 363.008,93.332 C352.449,287.309 328.629,309.406 376.617,290.754"/>
  <path fill="rgb(37.254902%, 85.490196%, 0%)" opacity="0.248" d="M153.07,144.75 C144.301,166.582 146.988,125.742 148.645,428.586 C179.48,107.363 156.586,-14.027 144.422,304.184 C165.766,142.758 156.516,141.871 176.082,22.402 C141.852,92.766 152.09,103.117 153.07,144.75"/>
  <path fill="rgb(11.764706%, 39.607843%, 23.529412%)" opacity="0.576" d="M129.004,348.594 C120.465,94.105 110.695,135.66 106.066,206.867 C125.5,161.875 130.449,127.5 93.051,140.836 C123.555,147.316 135.055,142.293 148.258,134.82 C152.363,177.156 107.66,124.969 129.004,348.594"/>
  <path fill="rgb(12.941176%, 70.980392%, 1.568627%)" opacity="0.504" d="M170.469,57.523 C186.598,-8.734 165.062,89.93 164.793,148.035 C169.996,8.934 164.953,-8.008 153.965,80.023 C134.277,38.766 154.348,54.426 129.027,-39.387 C143.172,77.426 142.344,73.105 170.469,57.523"/>
  <path fill="rgb(5.882353%, 38.431373%, 0%)" opacity="0.613" d="M107.676,96.625 C103.973,83.168 113.379,90.285 124.461,140.309 C128.516,161.051 111.949,152.543 91.441,57.324 C56.484,60.148 115.523,76.672 90.254,-15.324 C98.621,115.051 116.184,83.512 107.676,96.625"/>
  <path fill="rgb(3.137255%, 3.137255%, 9.411765%)" opacity="0.971" d="M130.68,230.504 C142.672,195.691 136.812,301.391 141.273,416.066 C139.605,276.973 133.551,195.41 141.875,228.258 C129.648,197.719 130.715,183.262 129.742,185.543 C142.812,186.27 126.746,244.977 130.68,230.504"/>
  <path fill="rgb(45.882353%, 3.137255%, 30.196078%)" opacity="0.846" d="M336.512,51.754 C306.168,49.312 301.02,49.688 326.273,112.988 C306.637,39.117 289.574,46.902 313.125,51.887 C338.633,61.887 326.715,53.426 342.238,-36.07 C348.602,10.297 345.066,59.199 336.512,51.754"/>
  <path fill="rgb(57.647059%, 43.137255%, 1.176471%)" opacity="0.415" d="M390.344,111.309 C334.992,175.75 366.309,160.379 375.836,10.086 C376.254,44.211 387.32,-31.223 386.191,12.836 C386.996,223.371 369.703,225.641 354.906,156.422 C361.531,-32.492 376.273,-6.453 390.344,111.309"/>
  <path fill="rgb(63.137255%, 44.705882%, 27.45098%)" opacity="0.234" d="M98.453,135.965 C96.684,148.625 94.082,250.07 110,452.492 C114.551,240.727 110.523,159.176 104.965,228.969 C107.988,245.309 99.836,196.676 77.617,47.254 C88.176,110.312 112.68,254.574 98.453,135.965"/>
  <path fill="rgb(0%, 0%, 3.921569%)" d="M298.406,49.195 C284.023,78.215 301.027,112.309 286.555,152.574 C277.672,85.391 271.902,105.371 266.316,52.18 C249.66,48.508 235.098,-51.246 291.668,-62.773 C303.145,19.266 281.73,74.129 298.406,49.195"/>
  <path fill="rgb(0%, 0%, 3.137255%)" d="M361.523,-12.137 C363.098,26.578 347.148,123.531 368.215,18.086 C353.051,36.074 378.672,108.457 327.988,204.688 C328.402,-25.172 331.254,-31.438 361.336,-13.227 C346.629,45.219 367.117,53.059 361.523,-12.137"/>
  <path fill="rgb(61.176471%, 49.803922%, 1.960784%)" opacity="0.491" d="M110.148,228.418 C101.207,-34.812 83.621,24.621 104.281,391.395 C96.332,117.094 89.59,196.027 88.113,440.473 C98.863,67.828 85.043,141.316 67.191,62.02 C99.605,188.547 91.977,256.656 110.148,228.418"/>
  <path fill="rgb(0%, 4.705882%, 3.137255%)" opacity="0.991" d="M154.867,-45.91 C119.434,-42.82 115.293,93.344 124.453,217.16 C119.98,92.504 121.117,65.988 124.422,110.668 C112.773,112.617 116.738,72.539 128.832,-28.555 C145.086,203.664 129.094,383.555 154.867,-45.91"/>
  <path fill="rgb(0%, 0.392157%, 1.960784%)" d="M199.074,271.633 C196.406,332.281 220.723,435.145 161.934,451.742 C154.219,363.797 156.211,310.738 142.148,296.918 C156.094,346.09 146.207,265.668 161.242,103.211 C213.562,219.273 195.23,323.824 199.074,271.633"/>
  <path fill="rgb(0%, 0%, 1.960784%)" d="M167.859,38.754 C189.219,23.891 175.48,-3.484 187.801,148.32 C150.617,124.805 158.332,141.746 160.406,31.09 C159.664,53.773 193.234,40.121 176.727,-47.617 C155.438,6.762 159.266,55.082 167.859,38.754"/>
  <path fill="rgb(72.941176%, 52.54902%, 0%)" opacity="0.929" d="M198.781,276.543 C182.641,276.586 223.66,269.348 212.012,436.984 C196.098,225.992 236.496,272.445 197.418,278.109 C232.359,244.086 199.48,373.207 188.586,-28.293 C182.512,146.121 222.953,346.199 198.781,276.543"/>
  <path fill="rgb(45.098039%, 75.686275%, 13.333333%)" opacity="0.558" d="M49.57,69.211 C52.805,113.41 71.688,158.777 38.586,158.953 C50.012,105.488 51.023,99.113 48.586,106.918 C12.758,123.094 17.977,111.289 40.715,63.797 C41.828,57.012 33.414,81.078 49.57,69.211"/>
  <path fill="rgb(17.647059%, 54.117647%, 1.176471%)" opacity="0.808" d="M67.234,70.105 C60.262,41.711 47.793,44.496 58.863,73.668 C27.027,80.531 -21.578,76.074 -23.324,30.539 C-10.551,-37.641 64.438,-48.227 82.234,-7.648 C86.266,82.324 82.004,60.754 67.234,70.105"/>
  <path fill="rgb(56.470588%, 80.392157%, 9.411765%)" opacity="0.206" d="M59.012,319.391 C48.996,66.254 31.508,118.391 49.383,412.91 C35.973,186.891 21.195,125.551 42.859,263.23 C32.547,178.766 44.109,152.777 26.941,105.902 C68.609,166.348 51.547,154.742 59.012,319.391"/>
  <path fill="rgb(0%, 0.392157%, 1.960784%)" d="M86.738,-30.754 C7.684,-54.281 36.141,56.914 42.812,166.688 C78.727,111.125 82.883,44.324 38.902,63.371 C44.668,132.32 40.387,118.781 45.645,252.484 C76.84,387.352 90.66,263.234 86.738,-30.754"/>
  <path fill="rgb(2.352941%, 88.235294%, 2.745098%)" opacity="0.663" d="M75.227,83.461 C108.516,71.328 97.477,43.152 53.02,124.285 C-12.551,170.484 17.316,257.504 -13.559,227.203 C-32.188,38.957 -0.082,61.988 25.961,69.48 C31.852,120.645 31.25,116.414 75.227,83.461"/>
  <path fill="rgb(1.568627%, 0%, 5.882353%)" opacity="0.994" d="M355.004,164.473 C350.863,187.762 342.301,185.141 341.84,209.891 C338.984,186.293 325.262,246.988 345.941,322.723 C349.355,176.125 340.449,190.348 355.668,168.098 C354.023,164.355 362.906,210.809 355.004,164.473"/>
  <path fill="rgb(0.784314%, 66.666667%, 8.627451%)" opacity="0.783" d="M2.363,-13.148 C1.824,-5.668 -0.805,4.211 -7.961,2.84 C-4.434,6.168 -10.531,4.34 -15.668,2.078 C-10.66,-5.875 -5.973,-10.559 0.426,-12.273 C6.84,-10.562 13.613,-6.672 2.363,-13.148"/>
  <path fill="rgb(63.137255%, 15.294118%, 82.352941%)" opacity="0.624" d="M4.004,-10.383 C1.875,-3.477 -3.938,-0.691 -12.434,-0.98 C-11.133,16.73 -13.629,10.875 -12.363,0.547 C-10.57,-6.105 -5.887,-10.789 1.012,-12.762 C10.84,-14.266 15.816,-10.367 4.004,-10.383"/>
  <path fill="rgb(72.156863%, 87.058824%, 0.392157%)" opacity="0.794" d="M29.547,25.129 C30.273,19.996 31.801,40.473 33.406,75.078 C6.137,74.785 28.629,83.191 21.457,53.77 C15.852,-19.484 16.598,-22.141 29.758,-58.023 C34.027,-13.398 34.051,5.691 29.547,25.129"/>
  <path fill="rgb(12.156863%, 14.901961%, 14.509804%)" opacity="0.903" d="M12.074,-3.777 C4.48,-2.07 -4.82,-0.633 -3.82,1.988 C3.172,2.039 -3.84,-0.219 -6.273,-6.043 C-10.539,-6.234 -5.852,-10.918 1.566,-14.195 C9.773,-14.754 12.469,-7.117 12.074,-3.777"/>
  <path fill="rgb(10.980392%, 29.803922%, 19.215686%)" opacity="0.364" d="M24.77,-14.414 C7.598,10.703 10.668,-1.273 -2.414,-9.672 C-26.398,13.395 -21.633,11.562 -6.988,12.871 C-14.516,-2.414 -7.82,-9.605 12.441,-24.898 C24.105,-27.848 25.59,-21.125 24.77,-14.414"/>
  <path fill="rgb(0%, 0%, 1.960784%)" d="M246.406,213.207 C184.391,200.668 173.66,246.914 192.621,272.281 C202.422,255.934 192.395,222.129 191.199,230.289 C190.352,262.121 203.105,180.285 177.785,83.531 C134.762,185.301 152.781,241.191 246.406,213.207"/>
  <path fill="rgb(44.313725%, 55.294118%, 0.784314%)" opacity="0.754" d="M48.75,388.133 C47.688,233.098 44.594,275.016 51.742,411.898 C-53.559,397.457 -29.266,360.543 -29.969,331.207 C-31.664,297.945 -105.781,208.477 26.039,159.812 C46.84,379.949 24.652,352.578 48.75,388.133"/>
  <path fill="rgb(4.313725%, 20.392157%, 43.529412%)" opacity="0.875" d="M5.164,-11.945 C-0.684,-4.875 -3.512,1.453 -9.617,3.527 C-10.559,16.074 -12.801,9.949 -12.273,0.23 C-10.512,-6.324 -5.824,-11.008 0.574,-12.723 C7.359,-11.121 16.27,-10.34 5.164,-11.945"/>
  <path fill="rgb(63.921569%, 84.313725%, 10.196078%)" opacity="0.641" d="M29.441,48.684 C31.977,44.402 34.328,61.363 35.016,48.223 C23.145,26.508 33.902,34.422 31.766,-10.934 C39.328,-36.871 41.418,-34.824 33.074,-12.727 C30.473,31.355 39.266,47.383 29.441,48.684"/>
  <path fill="rgb(85.098039%, 81.568627%, 9.019608%)" opacity="0.853" d="M30.375,60.934 C38.082,92.625 36.441,100.672 10.645,81.348 C46.324,63.375 61.164,79.438 49.051,79.816 C34.68,69.473 32.594,50.027 33.66,51.527 C34.543,51.551 33.605,40.941 30.375,60.934"/>
  <path fill="rgb(5.098039%, 0%, 0%)" opacity="0.211" d="M343.793,299.191 C351.359,300.789 345.062,368.184 343.996,458.75 C343.965,264.297 349.027,271.535 360.207,279.402 C364.242,285.57 357.828,271.535 328.109,84.613 C340.797,235.488 346.152,300 343.793,299.191"/>
  <path fill="rgb(0%, 1.176471%, 3.529412%)" d="M74.977,120.195 C81.707,350.414 89.539,417.617 69.531,466.91 C47.402,326.805 34.383,232.672 85.77,243.672 C89.941,464.059 93.402,447.184 82.203,152.496 C79.844,475.773 81.273,324.68 74.977,120.195"/>
  <path fill="rgb(32.156863%, 39.607843%, 0%)" opacity="0.957" d="M40.352,121.809 C18.449,121.121 25.379,108.977 53.777,125.031 C-23.855,129.797 12.691,177.605 9.621,35.742 C10.82,104.652 10.336,202.547 6.078,-35.91 C44.031,134.285 10.215,143.203 40.352,121.809"/>
  <path fill="rgb(0%, 46.666667%, 50.196078%)" opacity="0.618" d="M6.773,-14.484 C0.547,-4.996 -5.293,6.719 -15.566,8.387 C-0.359,6.035 -7.918,2.848 -12.156,0.414 C-10.461,-5.922 -5.777,-10.605 3.066,-13.898 C10.934,-14.633 15.238,-9.824 6.773,-14.484"/>
  <path fill="rgb(62.352941%, 93.333333%, 38.431373%)" opacity="0.782" d="M32.578,1.898 C23.105,12.34 17.82,24.328 6.941,26.711 C-16.805,20.773 -27.746,22.129 -32.023,18.566 C-10.559,-5.785 -5.875,-10.469 5.461,-18.184 C8.199,-13.336 13.652,-8.062 32.578,1.898"/>
  <path fill="rgb(0%, 0%, 2.352941%)" d="M276.328,118.887 C265.148,140.336 286.582,130.43 265.863,287.289 C230.684,225.27 254.262,255.441 230.934,88.973 C219.941,-7.676 225.641,-53.586 258.137,57.984 C266.492,112.945 279.703,144.664 276.328,118.887"/>
  <path fill="rgb(96.078431%, 96.470588%, 12.54902%)" d="M361.859,-7.305 C347.68,105.812 356.344,224.602 347.621,430.785 C332.41,243.852 356.598,153.914 360.402,207.84 C350.621,188.145 368.633,197.164 349.859,148.305 C349.383,228.969 364.746,215.121 361.859,-7.305"/>
  <path fill="rgb(68.235294%, 65.098039%, 2.745098%)" opacity="0.765" d="M377.977,211.352 C370.484,127.539 497.648,352.254 350.402,408.715 C354.086,167.707 350.168,164.285 371.098,192.434 C375.945,160.234 379.023,156.398 374.484,151.336 C368.566,191.91 365.777,181.879 377.977,211.352"/>
</svg>

