<svg xmlns="http://www.w3.org/2000/svg" width="384" height="384" viewBox="0 0 384 384">
  <defs/>
  <path fill="rgb(29.019608%, 72.156863%, 0%)" d="M250.238,18.152 C186.102,144.062 144.227,133.418 67.531,165.895 C57.836,149 63.57,151.16 59.652,104.77 C57.172,20.336 37.836,-10.984 159.984,-28.422 C213.883,-37.023 225.738,-39.902 250.238,18.152"/>
  <path fill="rgb(35.686275%, 6.27451%, 7.058824%)" opacity="0.963" d="M398.301,65.383 C410.66,124.293 458.328,191.742 403.82,193.691 C189.988,193.969 202.934,169.633 162.277,40.195 C190.254,-96.305 210.328,-76.398 300.062,-42.074 C388.137,-24.512 394.551,-23.121 398.301,65.383"/>
  <path fill="rgb(22.352941%, 84.705882%, 100%)" opacity="0.286" d="M394.719,344.754 C395.77,404.332 382.5,411.387 103.742,409.824 C-23.34,405.633 -22.098,391.867 -14.961,243.082 C99.195,87.094 93.801,101.973 271.449,59.832 C398.691,46.312 399.82,-3.645 394.719,344.754"/>
  <path fill="rgb(24.705882%, 64.705882%, 0%)" d="M223.887,36.891 C188.07,142.605 151.848,134.344 -33.789,284.355 C-48.219,302.66 -35.609,275.004 -1.195,238.477 C94.051,106.703 127.426,118.531 225.434,6.738 C229.953,-39.828 232.766,-10.719 223.887,36.891"/>
  <path fill="rgb(10.980392%, 76.078431%, 99.215686%)" opacity="0.989" d="M110.695,14.133 C107.402,108.805 104.047,145.852 -10.789,209.254 C-34.281,182.004 -21.863,156.574 -15.66,67.141 C-17.625,-1.191 -16.645,-9.656 29.508,-36.863 C121.336,-37.645 112.988,-33.129 110.695,14.133"/>
  <path fill="rgb(37.647059%, 3.921569%, 2.352941%)" opacity="0.932" d="M249.961,270.871 C228.32,300.93 222.859,306.848 210.395,319.195 C192.574,343.766 197.449,348 199.207,269.566 C193.695,204.676 191.789,202.465 180.617,55.934 C208.91,210.395 213.371,214.863 249.961,270.871"/>
  <path fill="rgb(50.588235%, 18.431373%, 0.784314%)" d="M295.09,173.535 C176.113,171.781 212.996,213.637 200.918,232.965 C184.785,238.781 200.379,226.062 190.121,152.488 C161.656,125.887 177.016,110.445 155.285,-24.93 C327.555,70.199 84.789,113.027 295.09,173.535"/>
  <path fill="rgb(0%, 15.294118%, 16.470588%)" opacity="0.988" d="M352.742,313.797 C292.645,360.336 255.496,275.004 198.078,304.059 C161.867,344.496 153.645,353.078 118.574,285.168 C158.262,365.621 167.164,338.02 216.621,280.77 C287.734,210.18 277.531,315.352 352.742,313.797"/>
  <path fill="rgb(28.627451%, 18.431373%, 2.352941%)" opacity="0.976" d="M304.191,229.559 C294.836,254.297 218.309,204.785 233.5,273.504 C180.895,282.055 197.113,242.84 194.492,187.789 C195.691,197.047 198.242,215.199 201.461,179.898 C282.836,193.844 258.777,214.348 304.191,229.559"/>
  <path fill="rgb(38.823529%, 15.294118%, 0%)" d="M266.953,370.715 C283.797,428.695 242.438,401.039 184.516,397.746 C132.355,408.668 130.246,409.898 190.68,446.031 C198.301,378.414 193.664,361.473 199.793,268.676 C283.82,255.887 260.145,216.648 266.953,370.715"/>
  <path fill="rgb(18.823529%, 12.156863%, 12.54902%)" opacity="0.641" d="M372.598,30.988 C359.441,63.148 383.906,88.145 361.621,76.742 C310.766,52.16 285.23,72.863 294.191,11.879 C286.082,-12.496 294.559,-15.66 339.512,-14.906 C367.035,-8.676 374.742,3.586 372.598,30.988"/>
  <path fill="rgb(69.803922%, 34.509804%, 0%)" opacity="0.639" d="M259.844,295.09 C274.688,477.102 241.641,446.719 189.539,434.262 C134.102,406.953 135.676,413.176 194.297,407.621 C198.508,329.957 203.465,303.531 182.715,104.18 C290.586,185.211 231.387,291.621 259.844,295.09"/>
  <path fill="rgb(10.980392%, 75.686275%, 100%)" d="M179.418,85.215 C186.531,218.035 205.672,152.246 138.793,205.855 C121.957,140.32 172.93,147.738 51.25,122.887 C111.043,114.41 165.77,70.695 150.305,6.754 C155.941,10.164 161.484,-44.004 179.418,85.215"/>
  <path fill="rgb(2.352941%, 75.686275%, 100%)" d="M380.762,79.898 C321.672,50.602 345.031,99.715 284.922,116.004 C238.27,99.188 185.84,82.422 262.094,95.098 C232.402,2.008 244.988,-20.344 237.184,-37.129 C352.234,-17.688 391.621,-35.285 380.762,79.898"/>
  <path fill="rgb(12.54902%, 52.54902%, 1.960784%)" opacity="0.946" d="M384.988,245.445 C334.355,204.398 439.277,55.297 346.34,93.953 C310.324,134.371 333.008,82.922 371.562,91.258 C389.477,-31.344 337.863,-3.805 347.34,5.121 C428.234,-7.961 388.27,-24.5 384.988,245.445"/>
  <path fill="rgb(70.588235%, 99.607843%, 100%)" opacity="0.192" d="M131.496,230.945 C191.012,317.961 101.324,289.789 114.164,477.52 C-73.438,365.535 -33.852,308.828 -22.16,252.066 C-17.867,207.352 -18.742,190.66 5.277,199.176 C61.117,211.434 66.266,212.523 131.496,230.945"/>
  <path fill="rgb(98.823529%, 68.627451%, 67.45098%)" opacity="0.356" d="M408.336,361 C394.547,389.98 390.48,395.801 399.508,379.066 C373.293,348.777 372.484,342.566 344.496,318.996 C256.898,348.77 253.246,338.594 265.855,163.898 C473.133,212.273 408.473,304.363 408.336,361"/>
  <path fill="rgb(12.156863%, 60.392157%, 2.352941%)" opacity="0.963" d="M369.145,404.652 C374.742,394.551 367.801,397.195 337.727,401.031 C328.395,402.883 335.32,405.27 348.719,400.445 C357.129,357.879 360.625,351.391 361.992,322.883 C366.863,346.52 356.348,365.871 369.145,404.652"/>
  <path fill="rgb(0%, 15.686275%, 0.784314%)" opacity="0.929" d="M27.852,-2.434 C14.953,4.078 9.309,22.277 -4.652,21.281 C-12.164,14.688 -19.102,12.68 -18.207,3.266 C-10.57,-6.105 -5.887,-10.789 10.258,-22.562 C16.051,-20.551 21.977,-16.086 27.852,-2.434"/>
  <path fill="rgb(36.862745%, 87.058824%, 100%)" d="M129.215,181.453 C149.605,247.465 130.598,234.199 42.992,245.211 C1.133,282.289 -11.891,289.414 -25.809,191.121 C53.688,165.004 60.91,231.379 90.82,182.715 C122.141,155.973 28.414,244.246 129.215,181.453"/>
  <path fill="rgb(22.352941%, 88.627451%, 64.313725%)" opacity="0.994" d="M377.457,22.641 C373.855,47.344 373.176,44.508 377.996,41.48 C351.059,27.039 331.906,35.238 312.012,20.555 C316.094,-16.645 320.961,-18.223 366.031,-24.117 C373.117,-31.602 384.348,-31.559 377.457,22.641"/>
  <path fill="rgb(5.490196%, 57.647059%, 0.784314%)" opacity="0.984" d="M409.129,224.094 C403.773,272.527 408.355,287.824 394.82,327.645 C352.055,326.367 370.734,323.094 381.602,246.965 C339.324,150.809 345.887,120.422 373.926,209.188 C360.762,202.289 366.871,180.469 409.129,224.094"/>
  <path fill="rgb(14.901961%, 32.941176%, 1.176471%)" d="M392.191,351.508 C395.824,368.633 396.41,379.91 381.918,400.812 C346.973,393.289 342.355,382.824 353.027,343.977 C362.809,305.043 365.059,282.555 392.949,288.363 C403.352,305.512 394.965,327.391 392.191,351.508"/>
  <path fill="rgb(18.039216%, 72.54902%, 0%)" opacity="0.922" d="M376.473,394.379 C370.945,397.023 356.957,394.684 340.352,399.672 C345.324,379.016 341.875,360.055 347.742,368.836 C339.629,391.223 346.926,378.402 349.184,315.074 C360.453,340.688 359.531,364.613 376.473,394.379"/>
  <path fill="rgb(0%, 45.882353%, 5.490196%)" opacity="0.976" d="M136.375,228.547 C129.078,277.188 115.191,265.973 130.984,209.871 C135.809,272.316 118.684,257.801 119.844,225.977 C114.867,147.48 164.645,189.789 112.777,151.719 C148.391,175.516 161.059,177.797 136.375,228.547"/>
  <path fill="rgb(17.254902%, 49.411765%, 0%)" opacity="0.983" d="M383.652,315.59 C380.738,344.281 387.16,365.633 375.918,408.02 C339.266,393.516 344.988,392.352 352.504,362.586 C347.078,309.926 349.41,304.039 377.242,308.484 C399.871,314.883 401.734,320.25 383.652,315.59"/>
  <path fill="rgb(10.196078%, 52.941176%, 0%)" opacity="0.999" d="M411.191,314.867 C397.43,340.379 384.699,347.91 373.188,336.406 C355.082,329.844 339.062,326.109 366.895,300.027 C390.168,257.543 373.422,232.887 348.875,146.074 C495.781,188.465 458.238,235.391 411.191,314.867"/>
  <path fill="rgb(89.411765%, 87.45098%, 86.666667%)" d="M291.625,189.996 C325.324,111.098 276.102,104.688 271.91,162.508 C236.773,88.535 294.117,201.504 280.832,185.582 C196.496,155.402 249.406,72.34 246.859,90.227 C313.816,46.609 425.043,127.125 291.625,189.996"/>
  <path fill="rgb(34.509804%, 74.509804%, 0%)" opacity="0.984" d="M105.086,17.465 C134.066,-16.484 129.996,52.242 103.547,105.113 C97.457,71.977 104.516,50.34 108.535,23.691 C35.129,66.156 89.531,-2.949 86.781,-31.668 C121.668,-22.344 108.039,-2.371 105.086,17.465"/>
  <path fill="rgb(59.607843%, 33.333333%, 0%)" opacity="0.97" d="M235.23,13.258 C264.348,65.402 213.805,58.293 189.844,147.613 C160.754,58.211 190.883,-0.668 159.516,-18.156 C149.391,-18.691 158.016,-19.34 185.285,-37.184 C196.484,-28.801 208.727,-39.09 235.23,13.258"/>
</svg>

