<svg xmlns="http://www.w3.org/2000/svg" width="384" height="384" viewBox="0 0 384 384">
  <defs/>
  <path fill="rgb(62.352941%, 31.764706%, 0%)" opacity="0.998" d="M438.703,294.125 C449.09,383.117 470.469,392.184 282.844,404.617 C207.977,399.172 214.34,385.113 166.535,251.887 C165.691,77.969 181.676,100.992 261.145,176.059 C414.383,191.258 426.707,182.473 438.703,294.125"/>
  <path fill="rgb(63.137255%, 30.980392%, 0%)" opacity="0.533" d="M424.562,208.062 C440.539,270.91 433.715,270.324 370.551,274.426 C210.746,275.523 151.973,346.621 109.27,136.242 C227.367,96.672 283.215,140.547 377.098,131.879 C382.957,167.465 393.297,168.402 424.562,208.062"/>
  <path fill="rgb(0%, 36.078431%, 43.921569%)" d="M399.164,35.988 C392.531,124.113 394.141,129.031 320.582,159.285 C175.008,200.375 121.262,265.113 70.457,-2.246 C150.426,-97.043 196.34,-64.285 263.598,-52.766 C433.246,-9.484 422.648,-1.945 399.164,35.988"/>
  <path fill="rgb(0%, 36.862745%, 43.921569%)" d="M237.566,159.844 C233.852,428.238 213.723,434.02 140.199,409.664 C0.02,442.07 -23.016,458.043 -16.648,205.074 C28.266,248.43 76.746,310.695 -65.184,171.273 C-20.414,133.559 128.066,127.047 237.566,159.844"/>
  <path fill="rgb(0%, 35.294118%, 45.490196%)" d="M413.547,159.445 C457.367,230.906 433.832,216.141 344.656,217.777 C232.055,199.902 150.293,270.391 98.461,152.559 C158.57,-24.656 178.625,21.758 257.801,85.539 C384.371,96.395 395.305,98.07 413.547,159.445"/>
  <path fill="rgb(90.196078%, 42.745098%, 43.137255%)" opacity="0.431" d="M171.152,413.23 C171.688,420.879 134.289,399.418 97.266,405.105 C67.277,414.352 15.051,449.168 -31.254,355.227 C31.59,326.414 78.648,341.391 119.953,336.184 C138.738,362.949 145.336,370.969 171.152,413.23"/>
  <path fill="rgb(65.098039%, 54.901961%, 40%)" opacity="0.709" d="M5.215,-7.652 C5.938,11.172 12.086,16.898 5.996,17.359 C-8.68,13.863 -16.277,10.855 -19.652,4.883 C-10.57,-6.105 -5.887,-10.789 3.801,-15.703 C11.141,-14.719 17.188,-11.629 5.215,-7.652"/>
  <path fill="rgb(23.137255%, 15.686275%, 13.333333%)" opacity="0.618" d="M228.414,186.781 C205.551,126.77 198.797,160.75 186.711,207.312 C152.609,186.609 138.285,198.395 166.969,173.426 C197.512,154.461 187.961,134.48 206.84,149.98 C200.207,150.723 214.246,148.641 228.414,186.781"/>
  <path fill="rgb(61.176471%, 33.333333%, 0%)" opacity="0.94" d="M410.996,340.145 C301.902,387.352 271.09,360.078 244.176,418.293 C177.766,398.242 184.844,377.875 172.066,340.832 C174.082,310.207 196.594,302.875 268.957,300.113 C272.281,297.734 362.207,270.066 410.996,340.145"/>
  <path fill="rgb(100%, 22.352941%, 0%)" d="M73.383,346.051 C79.156,374.277 19.168,363.777 -31.598,369.559 C-61.82,309.117 -34.414,337.125 43.148,344.793 C19.867,328.801 31.941,448.711 10.09,130.426 C55.219,337.77 -36.184,336.566 73.383,346.051"/>
</svg>

