<svg xmlns="http://www.w3.org/2000/svg" width="384" height="384" viewBox="0 0 384 384">
  <defs/>
  <path fill="rgb(0%, 0%, 1.960784%)" d="M231.879,262.547 C190.609,286.844 230.711,284.648 128.766,232.27 C120.73,333.91 212.781,385.957 51.094,347.285 C7.176,158.328 106.59,186.051 190.344,170.254 C219.777,221.789 292.203,237.305 231.879,262.547"/>
  <path fill="rgb(0%, 0%, 1.176471%)" d="M280.402,252.059 C288.086,367.965 293.371,354.129 206.512,319.277 C81.629,360.039 359.262,413.695 86.215,370.637 C-6.742,193.012 138.57,381.395 205.609,298.75 C243.816,332.613 282.734,344.227 280.402,252.059"/>
  <path fill="rgb(0%, 0%, 1.960784%)" d="M330.965,165.199 C305.586,262.117 204.316,228.84 211.355,317.609 C192.367,291.344 220.828,311.605 158.609,215.902 C156.172,43.426 124.883,27.664 278.727,43.398 C343.566,36.215 394.914,71.129 330.965,165.199"/>
  <path fill="rgb(0%, 0%, 4.313725%)" d="M247.344,48.035 C306.664,49.758 149.27,178.82 -14.109,380.289 C56.383,445.789 -15.582,192.891 75.789,96.879 C272.43,-57.484 328.07,23.184 221.867,-12.449 C224.758,178.309 134.93,2.637 247.344,48.035"/>
  <path fill="rgb(2.352941%, 0%, 3.529412%)" d="M343.766,265.016 C370.02,275.934 352.418,357.5 341.293,327.039 C295.156,368.82 299.969,480.25 179.902,361.75 C335.852,399.676 235.02,172.773 339.781,151.234 C421.984,246.727 345.516,300.645 343.766,265.016"/>
  <path fill="rgb(100%, 89.019608%, 48.627451%)" d="M257.457,243.129 C247.066,253.676 264.727,229.598 205.84,247.445 C186.547,235.828 202.207,261.074 210.75,118.699 C221.363,117.219 239.25,34.598 291.191,158.566 C194.773,122.711 265.258,246.762 257.457,243.129"/>
  <path fill="rgb(1.176471%, 0%, 4.705882%)" opacity="0.985" d="M254.801,56.062 C119.656,27.465 234.84,29.758 167.836,48.762 C123.543,31.004 172.547,50.59 118.363,9.785 C149.109,15.051 134.602,3.617 176.352,33.746 C187.02,-9.027 143.891,-5.578 254.801,56.062"/>
  <path fill="rgb(47.058824%, 68.235294%, 22.745098%)" opacity="0.012" d="M19.758,218.746 C30.938,274.832 42.359,269.477 -6.062,272.262 C-32.262,295.289 -19.547,244.828 18.75,265.535 C16.008,206.945 33.035,214.578 24.02,156.293 C59.258,126.859 14.566,212.59 19.758,218.746"/>
  <path fill="rgb(17.254902%, 2.745098%, 1.568627%)" opacity="0.31" d="M172.887,182.875 C112.312,203.867 85.137,93.113 115.23,220.043 C47.684,86.707 82.738,333.461 90.176,239.781 C132.332,125.258 84.988,48.988 160.355,45.973 C155.562,125.879 58.109,185.605 172.887,182.875"/>
  <path fill="rgb(0%, 0%, 3.529412%)" d="M165.238,142.586 C111.57,127.469 169.062,58.863 105.84,51.922 C14.195,39.625 28.668,119.922 25.645,112.188 C34.605,17.945 141.215,34.301 111.438,30.117 C168.059,49.586 167.195,35.316 165.238,142.586"/>
  <path fill="rgb(98.039216%, 98.823529%, 55.686275%)" opacity="0.315" d="M5.641,-18.316 C2.781,-6.062 -2.488,-0.512 -15.074,4.102 C-15.703,13.91 -19.348,9.629 -14.785,1.695 C-10.461,-5.922 -5.777,-10.605 0.621,-12.32 C6.617,-10.48 7.98,-3.332 5.641,-18.316"/>
  <path fill="rgb(6.27451%, 0%, 1.176471%)" opacity="0.041" d="M345.625,220.27 C379.129,260.461 365.832,268.336 369.355,271.18 C315.875,236.434 353.289,225.734 310.059,169.645 C290.809,136.723 359.836,182.238 357.438,85.137 C372.082,79.09 318.43,167.414 345.625,220.27"/>
  <path fill="rgb(18.823529%, 0%, 2.352941%)" opacity="0.352" d="M128.676,294.199 C124.359,325.027 125.324,298.738 94.082,376.43 C48.762,321.984 21.715,362.566 12.992,287.348 C77.59,215.547 31.68,209.473 89.461,163.27 C143.004,186.184 132.715,215.867 128.676,294.199"/>
  <path fill="rgb(10.196078%, 0%, 2.352941%)" opacity="0.365" d="M307.008,323.688 C312.168,362.184 291.039,408.441 228.621,407.5 C98.23,382.934 76.121,431.074 130.414,304.656 C166.004,376.703 252.195,393.98 273.094,311.754 C283.172,332.488 277.473,302.992 307.008,323.688"/>
  <path fill="rgb(83.137255%, 47.45098%, 0%)" d="M307.359,338.223 C305.145,319.445 314.578,338.531 281.969,402.52 C306.902,325.383 310.969,337.453 290.73,301.383 C281.023,232.953 229.043,190.711 279.117,168.762 C312.137,278.504 253.336,227.848 307.359,338.223"/>
  <path fill="rgb(100%, 96.862745%, 29.411765%)" d="M183.137,178.094 C183.797,127.668 190.434,176.797 194.055,194.398 C163.469,207.332 201.977,126.672 114.676,161.316 C102.832,202.297 149.043,62.758 179.516,97.262 C218.695,150.457 199.898,112.66 183.137,178.094"/>
  <path fill="rgb(39.607843%, 65.098039%, 69.019608%)" opacity="0.667" d="M6.59,-10.984 C-3.148,-7.805 -5.387,-0.281 -9.039,5.242 C-1.348,6.648 -7.891,2.934 -12.188,-0.043 C-10.539,-6.234 -5.852,-10.918 0.551,-12.637 C7.848,-11.227 16.012,-10.191 6.59,-10.984"/>
  <path fill="rgb(100%, 64.705882%, 0%)" d="M287.793,133 C318.938,152.359 336.414,203.684 287.297,252.824 C280.469,144 290.977,149.484 272.77,124.531 C267.633,111.504 257.41,102.715 256.184,106.215 C283.16,132.461 276.906,119.516 287.793,133"/>
  <path fill="rgb(35.294118%, 11.372549%, 3.137255%)" opacity="0.93" d="M111.379,358.789 C132.703,397.496 113.754,401.879 166.645,412.68 C97.574,393.641 84.168,370.23 79.461,336.98 C93.18,297.977 85.453,316.262 135.695,294.531 C150.352,330.344 122.238,294.98 111.379,358.789"/>
  <path fill="rgb(100%, 85.882353%, 51.372549%)" d="M203.223,245.188 C188.707,243.656 173.582,232.555 162.848,240.297 C147.266,253.652 159.168,232.418 158.875,234.164 C170.84,194.562 178.152,157.945 145.816,137.422 C212.297,132.078 208.5,170.492 203.223,245.188"/>
  <path fill="rgb(100%, 62.745098%, 0%)" d="M333.547,78.465 C347.023,101.918 339.977,127.352 321.402,128.656 C291.223,97.75 275.746,91.742 266.051,93.609 C279.703,83.371 286.145,76.582 303.098,72.766 C315.566,71.832 324.77,69.258 333.547,78.465"/>
  <path fill="rgb(45.882353%, 10.196078%, 0.784314%)" opacity="0.718" d="M87.883,247.562 C75.043,276.117 57.918,263.773 47.5,320.504 C46.461,273.66 68.801,305.914 25.918,303.566 C56.664,243.102 55.242,242.816 63.312,209.539 C73.711,235.992 85.766,246.855 87.883,247.562"/>
  <path fill="rgb(38.431373%, 10.588235%, 0.392157%)" opacity="0.978" d="M88.258,195.684 C66.211,208.59 74.895,207.117 62.422,237.727 C46.254,207.156 68.945,289.281 20.129,323.777 C15.707,201.617 0.746,149.355 62.324,58.672 C190.086,16.66 128.543,165.914 88.258,195.684"/>
  <path fill="rgb(95.686275%, 100%, 96.078431%)" d="M44.496,287.07 C55.043,352.582 58.328,318.078 8.602,341.578 C-69.039,365.684 68.922,169.625 12.004,334.715 C5.699,259.477 46.918,288.84 20.508,279.102 C36.336,265.234 41.281,266.953 44.496,287.07"/>
  <path fill="rgb(99.607843%, 83.921569%, 5.098039%)" d="M158.355,186.91 C149.434,211.836 148.59,222.648 133.008,268.652 C116.242,242.152 108.703,232.945 97.992,212.352 C84.176,184.156 103.84,156.008 113.363,145.043 C126.34,183.309 183.289,176.707 158.355,186.91"/>
  <path fill="rgb(1.568627%, 0%, 3.921569%)" opacity="0.728" d="M360.949,97.336 C356.645,68.602 357.812,42.938 257.492,64.656 C238.879,79.32 244.465,75.293 251.586,70.898 C248.797,46.695 248.195,30.066 258.711,46.949 C302.234,36.305 365.766,50.531 360.949,97.336"/>
  <path fill="rgb(97.647059%, 100%, 97.647059%)" d="M49.664,159.77 C30.125,180.785 28.148,181.348 12.488,211.504 C-8.914,197.57 -0.555,184.48 -24.746,173.633 C-13.074,140.93 -17.281,155.453 38.887,112.758 C64.352,135.578 70.453,143.09 49.664,159.77"/>
  <path fill="rgb(0%, 0%, 4.313725%)" opacity="0.999" d="M229.184,24.348 C202.84,66.504 189.012,65.617 188.984,72.965 C177.676,56.844 189.984,53.773 165.43,51.25 C123.949,60.367 152.391,29.594 194.797,31.457 C217.711,-16.016 289.922,-23.953 229.184,24.348"/>
  <path fill="rgb(1.176471%, 0%, 4.313725%)" opacity="0.386" d="M262.086,65.281 C255.336,67.699 251.254,77.562 243.344,80.047 C234.516,73.98 224.77,76.289 219.789,77.191 C212.59,46.496 229.84,26.332 252.156,21.836 C289.023,32.074 267.516,25.324 262.086,65.281"/>
  <path fill="rgb(100%, 88.627451%, 69.019608%)" opacity="0.47" d="M5.234,-15.637 C-1.652,-5.656 -2.309,2.875 -11.957,3.492 C-9.344,9.32 -16.234,2.961 -16.84,-1.352 C-10.66,-5.875 -5.973,-10.559 2.164,-14.742 C8.527,-13.105 13.773,-9.066 5.234,-15.637"/>
  <path fill="rgb(3.529412%, 0%, 5.882353%)" opacity="0.999" d="M340.871,144.914 C361.668,152.488 402.535,182.172 370.379,182.805 C318.715,142.711 347.895,153.527 358.336,108.191 C363.516,79.562 349.973,82.355 361.246,85.621 C359.57,90.32 368.426,118 340.871,144.914"/>
  <path fill="rgb(4.705882%, 3.137255%, 1.568627%)" opacity="0.971" d="M17.254,305.23 C13.094,297.012 15.227,305.66 13.215,302.68 C16.379,306.469 14.133,279.129 12.754,282.625 C21.402,277.461 1.328,256.484 61.055,232.453 C-3.371,305.047 29.121,315.711 17.254,305.23"/>
  <path fill="rgb(99.215686%, 98.823529%, 99.607843%)" d="M287.477,172.125 C272.781,193.859 244.938,195.32 243.723,178.691 C245.816,171.918 242.715,183.934 244.371,180.508 C233.375,178.684 256.375,185.766 283.746,164.004 C285.906,154.355 285.633,143.496 287.477,172.125"/>
  <path fill="rgb(97.647059%, 100%, 94.901961%)" d="M40.789,355.469 C22.324,344.617 31.062,376.242 29.801,404.824 C-5.953,385.637 -8.07,378.168 -42.992,335.922 C-39.168,332.16 -27.418,334.852 32.867,303.785 C69.359,327.875 69.25,370.773 40.789,355.469"/>
  <path fill="rgb(1.176471%, 0%, 2.352941%)" d="M315.535,21.805 C218.895,76.395 195.523,28.422 282.484,12.695 C244.68,-6.004 210.441,11.75 209.914,13.703 C232.664,4.785 239.676,14.387 219.254,6.711 C233.996,-1.258 252.484,6.059 315.535,21.805"/>
  <path fill="rgb(3.921569%, 0%, 0.392157%)" opacity="0.992" d="M119.305,101.309 C165.898,75.863 158.812,106.969 94.449,158.336 C53.113,158.75 47.395,122.797 43.047,92.516 C49.246,76.004 67.465,60.246 92.098,69.348 C51.824,102.879 69.172,162.984 119.305,101.309"/>
  <path fill="rgb(50.196078%, 63.529412%, 69.411765%)" opacity="0.741" d="M-2.727,-12.785 C-2.184,-3.215 -3.078,6.129 -8.824,9.258 C-8.809,12.891 -15.754,10.895 -18.176,5.566 C-10.812,-6.066 -6.125,-10.754 4.984,-16.625 C12.195,-15.945 17.547,-11.727 -2.727,-12.785"/>
  <path fill="rgb(27.45098%, 100%, 7.058824%)" opacity="0.553" d="M-0.637,-16.039 C-0.07,-4.434 -4.648,1.895 -10.512,4.293 C1.082,4.234 -3.594,-0.688 -7.711,-4.453 C-10.512,-6.324 -5.824,-11.008 0.574,-12.723 C6.973,-11.008 11.66,-6.324 -0.637,-16.039"/>
  <path fill="rgb(100%, 100%, 100%)" d="M204.125,323.629 C202.848,351.152 194.781,370.637 170.949,358.449 C149.555,344.332 155.992,333.734 142.941,331.258 C141.766,327.914 144.836,346.465 166.973,336.812 C203.016,322.352 218.215,319.863 204.125,323.629"/>
</svg>

