<svg xmlns="http://www.w3.org/2000/svg" width="384" height="384" viewBox="0 0 384 384">
  <defs/>
  <path fill="rgb(12.54902%, 23.921569%, 70.588235%)" opacity="0.97" d="M404.062,171.863 C459.789,362.793 510.391,387.418 308.48,411.145 C164.027,406.055 168.773,393.207 169.93,349.754 C282.785,133.242 278.77,124.445 385.359,50.523 C442.934,65.734 418.629,95.402 404.062,171.863"/>
  <path fill="rgb(11.764706%, 28.627451%, 72.54902%)" opacity="0.99" d="M387.785,-1.852 C360.168,186.289 308.824,150.684 137.426,206.855 C81.961,210.918 76.004,204.27 112.469,167.727 C121.754,-3.098 110.48,-25.594 176.168,-34.469 C318.93,-22.68 352.375,-46.504 387.785,-1.852"/>
  <path fill="rgb(6.666667%, 19.607843%, 79.215686%)" d="M440.449,150.734 C355.289,302.504 379.812,328.434 165.035,349.887 C91.418,344.949 80.902,324.195 90.082,270.484 C163.527,96 152.863,25.879 366.172,-28.566 C415.418,4.852 407.043,25.711 440.449,150.734"/>
  <path fill="rgb(20.392157%, 6.666667%, 0%)" opacity="0.879" d="M254.699,319.758 C222.738,465.406 212.73,455.703 167.879,426.898 C-93.375,392.617 -62.93,376.715 -27.613,265.625 C-69.418,156.422 -101.977,141.855 76.375,143.121 C162.039,142.969 194.051,112.008 254.699,319.758"/>
  <path fill="rgb(11.764706%, 29.019608%, 72.941176%)" opacity="0.999" d="M143.172,79.277 C134.859,141.418 163.316,151.672 39.723,153.949 C-64,147.332 -50.594,137.773 -17.344,95.355 C-9.391,-39.117 1.727,-29.148 56.445,-14.289 C121.969,-36.172 137.258,-51.891 143.172,79.277"/>
  <path fill="rgb(69.019608%, 99.215686%, 0%)" opacity="0.996" d="M282.098,274.254 C264.684,277.734 231.391,337.406 205.715,273.164 C183.32,288.152 105.727,316.504 -16.285,262.438 C246.777,235.418 184.125,241.312 240.082,189.926 C249.332,225.969 257.816,215.305 282.098,274.254"/>
  <path fill="rgb(99.215686%, 83.921569%, 55.294118%)" opacity="0.989" d="M255.633,272.758 C281.004,273.137 253.926,289.195 231.312,260.453 C281.914,227.324 252.879,223.828 239.809,232.219 C230.34,243.273 231.379,230.848 230.645,235.145 C235.922,237.969 247.934,238.883 255.633,272.758"/>
  <path fill="rgb(100%, 100%, 10.980392%)" opacity="0.888" d="M302.16,188.195 C253.156,278.543 267.828,212.211 246.254,314.527 C220.609,250.84 234.48,224.711 195.406,208.113 C213.762,171.422 227.242,178.031 250.707,176.609 C301.281,95.867 293.094,155.547 302.16,188.195"/>
  <path fill="rgb(83.137255%, 100%, 0%)" d="M295.172,272.379 C286.141,261.398 320.332,258.914 333.477,277.125 C264.074,268.664 254.441,279.941 266.66,266.738 C258.328,252.785 260.32,204.555 286.77,208.102 C312.379,204.418 295.938,233.754 295.172,272.379"/>
  <path fill="rgb(100%, 100%, 74.509804%)" d="M348.285,153.793 C316.16,176.734 316.426,173.48 299.637,195.43 C279.688,198.164 289.02,159.523 271.484,154.047 C281.016,140.039 290.012,136.578 309.266,138.125 C361.293,119.152 378.812,125.82 348.285,153.793"/>
  <path fill="rgb(44.313725%, 100%, 0%)" d="M278.926,194.734 C220.926,248.137 262.203,248.516 180.172,238.438 C140.688,245.605 131.801,255.539 81.574,251.32 C109.648,191.203 136.371,207.539 197.984,171.758 C244.605,139.465 299.086,130.262 278.926,194.734"/>
  <path fill="rgb(50.588235%, 28.235294%, 17.254902%)" opacity="0.96" d="M340.898,322.707 C275.562,440.734 259.402,446.535 140.617,439.984 C109.707,383.414 116.492,364.59 79.133,308.645 C83.531,317.523 93.691,311.527 153.781,298.961 C210.574,292.941 245.543,292.875 340.898,322.707"/>
  <path fill="rgb(12.941176%, 25.882353%, 75.686275%)" d="M325.422,118.746 C202.836,235.289 146.016,209.48 108.242,221.684 C89.328,229.133 79.199,233.762 28.957,151.512 C72.918,136.648 92.594,138.125 214.68,8.508 C302.656,-6.059 317.793,-3.355 325.422,118.746"/>
  <path fill="rgb(12.941176%, 23.529412%, 83.921569%)" opacity="0.994" d="M161.664,221.77 C125.605,229.793 126.719,243.191 119.727,241.301 C115.16,250.441 91.605,256.648 70.594,253.609 C100.699,233.898 79.648,226.102 82.691,196.402 C157.93,203.094 179.227,199.5 161.664,221.77"/>
  <path fill="rgb(56.862745%, 99.215686%, 0%)" d="M326.461,130.758 C348.031,160.055 286.359,152.215 283.094,174.43 C280.621,237.656 255.016,184.41 268.957,151.984 C278.672,143.289 282.426,128.816 301.652,114.457 C303.23,125.75 296.973,143.469 326.461,130.758"/>
  <path fill="rgb(5.490196%, 25.882353%, 66.666667%)" opacity="0.502" d="M11,-23.293 C17.531,-17.543 11.93,9.32 -12.891,28.965 C-27.211,30.824 -31.648,28.016 -25.234,13.707 C-10.812,-6.066 -6.125,-10.754 26.785,-3.113 C31.012,-2.547 32.664,-6.625 11,-23.293"/>
  <path fill="rgb(67.058824%, 100%, 0%)" opacity="0.93" d="M260.387,224.684 C243.75,242.359 247.379,237.785 239.754,244.152 C200.938,257.102 172.578,268.777 169.59,240.895 C225.309,222.664 234.223,220.828 264.176,190.734 C308.777,176.617 282.953,216.367 260.387,224.684"/>
  <path fill="rgb(5.490196%, 3.137255%, 16.470588%)" opacity="0.977" d="M285.141,227.902 C272.34,229.723 271.57,244.891 223.957,276.445 C293.484,291.824 288.23,286.492 280.027,258.332 C280.441,260.773 277.934,245.949 283.508,226.246 C285.188,229.52 282.559,230.793 285.141,227.902"/>
  <path fill="rgb(69.019608%, 92.941176%, 0%)" opacity="0.967" d="M360.336,135.227 C342.277,142.68 334.938,148.422 313.746,152.02 C323.148,134.402 322.84,116.805 298.262,134.297 C295.293,102.223 314.684,110.648 322.441,118.188 C336.43,110.535 370.312,121.266 360.336,135.227"/>
  <path fill="rgb(49.803922%, 27.45098%, 18.039216%)" opacity="0.974" d="M339.082,298.551 C355.684,348.805 306.461,323.055 277.816,310.184 C279.172,310.023 261.211,305.664 274.512,306.133 C273.793,282.18 264.555,279.762 277.238,288.512 C320.992,310.102 316.82,236.461 339.082,298.551"/>
  <path fill="rgb(67.45098%, 22.352941%, 0.784314%)" opacity="0.813" d="M325.688,275.492 C345.438,313.176 268.926,282.852 274.477,309.395 C231.422,311.605 228.188,311.805 225.789,298.613 C256.914,297.676 247.992,266.473 260.102,273.5 C257.246,306.973 256.68,259.734 325.688,275.492"/>
  <path fill="rgb(12.156863%, 34.901961%, 18.823529%)" opacity="0.516" d="M5.629,-8.645 C2.289,-3.309 -2.949,0.645 -10.934,0.77 C-0.91,6.23 -6.66,2.105 -11.957,-0.695 C-10.512,-6.324 -5.824,-11.008 0.574,-12.723 C6.84,-10.973 7.738,-3.281 5.629,-8.645"/>
  <path fill="rgb(14.901961%, 2.745098%, 20.392157%)" opacity="0.541" d="M168.066,291.68 C106.469,312.328 88.418,309.098 87.52,296.074 C62.91,283.766 55.742,291.594 65.949,293.195 C59.117,278.066 65.59,308.766 78.797,289.273 C87.758,298.344 126.699,296.27 168.066,291.68"/>
  <path fill="rgb(20.784314%, 20.784314%, 31.764706%)" opacity="0.613" d="M14.477,-18.367 C3.062,0.016 -6.852,7.391 -30.398,10.422 C-3.938,8.113 -10.496,6.453 -12.285,0.293 C-10.57,-6.105 -5.887,-10.789 8.297,-21.023 C13.352,-18.629 21.477,-16.625 14.477,-18.367"/>
</svg>

