<svg xmlns="http://www.w3.org/2000/svg" width="384" height="384" viewBox="0 0 384 384">
  <defs/>
  <path fill="rgb(12.941176%, 7.058824%, 2.352941%)" opacity="0.976" d="M325.047,354.137 C355.676,398.605 361.961,401.48 251.016,396.219 C51.738,403.773 41.621,401.828 55.246,397.684 C193.109,219.621 200.141,214.523 223.871,215.086 C241.816,201.863 244.277,209.027 325.047,354.137"/>
  <path fill="rgb(3.921569%, 47.058824%, 48.627451%)" opacity="0.972" d="M404.121,130 C404.562,358.121 403.547,370.719 372.062,397.754 C171.773,354.648 205.184,278.164 182.91,204.102 C186.32,45.594 107.672,-1.891 380.895,-11.84 C438.891,14.969 405.645,64.289 404.121,130"/>
  <path fill="rgb(9.019608%, 49.411765%, 46.27451%)" opacity="0.168" d="M252.688,179.984 C252.094,248.828 246.32,244.27 201.613,242.656 C165.18,266.277 154.84,273.406 146.887,196.129 C123.977,17.418 33.484,-24.035 299.871,-42.211 C357.078,27.863 289.23,123.91 252.688,179.984"/>
  <path fill="rgb(5.490196%, 49.803922%, 49.411765%)" d="M362.906,361.715 C376.168,404.238 376.914,416.246 331.41,443.082 C144.297,417.555 214.586,300.281 218.898,215.922 C245.25,235.242 244.656,222.855 265.867,168.832 C265.078,190.871 256.934,216.984 362.906,361.715"/>
  <path fill="rgb(5.882353%, 49.803922%, 49.411765%)" opacity="0.99" d="M241.566,32.426 C192.57,212.086 211.445,297.637 19.453,422.344 C-5.551,408.488 -9.602,402.234 -9.582,187.238 C-14.641,18.25 -22.449,1.906 -1.508,-34.266 C357.184,-37.691 308.836,-28.98 241.566,32.426"/>
  <path fill="rgb(92.941176%, 0%, 0%)" d="M309.66,224.648 C286.414,244.383 264.539,230.48 229.887,246.449 C201.449,249.031 203.656,248.23 198.223,231.469 C223.023,204.449 205.742,166.914 244.141,121.941 C302.059,99.211 320.852,159.035 309.66,224.648"/>
  <path fill="rgb(100%, 42.745098%, 44.705882%)" d="M237.816,132.121 C205.645,186.5 227.703,214.434 222.945,198.227 C145.543,190.379 107.512,184.812 52.953,182.941 C72.879,102.254 120.668,112.738 159.516,114.477 C266.629,119.465 268.391,113.102 237.816,132.121"/>
  <path fill="rgb(100%, 0%, 0%)" d="M314.469,275.902 C354.117,278.41 354.641,287.988 262.203,299.82 C181.738,288.918 195.312,296.941 209.418,254.781 C207.438,217.918 210.355,202.785 254.352,198.699 C324.016,198.402 312.219,172.648 314.469,275.902"/>
  <path fill="rgb(66.27451%, 0%, 0%)" d="M224.055,266.582 C225.695,318.625 254.664,305.188 191.168,303.297 C137.738,292.773 141.375,300.941 91.488,217.359 C21.312,188.199 33.961,197.234 188.051,211.008 C237.59,220.773 217.398,181.637 224.055,266.582"/>
  <path fill="rgb(66.666667%, 0%, 0%)" d="M178.188,275.34 C173.328,314.004 156.953,308.746 103.996,287.59 C106.051,284.113 169.906,296.824 60.512,289.75 C62.113,164.426 51.703,188.121 131.348,242.039 C186.305,212.461 168.922,214.504 178.188,275.34"/>
</svg>

