<svg xmlns="http://www.w3.org/2000/svg" width="384" height="384" viewBox="0 0 384 384">
  <defs/>
  <path fill="rgb(29.803922%, 24.313725%, 4.313725%)" opacity="0.989" d="M394.141,6.453 C406.66,34.773 423.82,63.781 408.664,58.246 C345.469,45.816 330.777,40.996 341.965,14.262 C338.223,-40.117 346.195,-31.539 367.277,-25.812 C387.84,-8.523 392.523,-3.84 394.141,6.453"/>
  <path fill="rgb(98.823529%, 98.431373%, 3.921569%)" opacity="0.934" d="M383.953,32.254 C398.387,73.148 409.559,98.965 384.711,113.645 C296.719,77.562 323.57,13.629 315.57,-2.16 C311.277,-13.039 319.23,-17.477 329.266,-13.746 C355.871,-22.574 370.188,-29.312 383.953,32.254"/>
  <path fill="rgb(100%, 95.686275%, 0.784314%)" opacity="0.987" d="M136.895,17.473 C154.863,142.48 237.098,213.574 9.551,223.09 C-47.32,183.73 -37.258,160.598 -19.215,114.555 C-8.59,-90.961 3.566,-63.656 77.191,-33.586 C137.016,-28.887 137.035,-25.543 136.895,17.473"/>
  <path fill="rgb(100%, 96.078431%, 0%)" opacity="0.998" d="M445.156,136.402 C488.801,251.453 543.445,279.762 349.406,300.855 C121.656,245.746 189.848,188.754 205.727,81.613 C220.781,-63.055 231.625,-46.129 284.074,-26.391 C349.074,-23.984 360.012,-27.598 445.156,136.402"/>
  <path fill="rgb(100%, 96.862745%, 0%)" d="M310.156,222.184 C421.102,311.68 447.152,321.93 206.594,329.355 C-128.258,311.398 -105.258,291.992 -42.793,231.77 C67.582,-51.562 85.074,-40.496 180.332,-30.488 C256.031,-64.539 268.41,-90.461 310.156,222.184"/>
</svg>

