<svg xmlns="http://www.w3.org/2000/svg" width="384" height="384" viewBox="0 0 384 384">
  <defs/>
  <path fill="rgb(0%, 36.862745%, 44.313725%)" opacity="0.808" d="M256.473,62.984 C185.09,142.297 158.059,142.898 109.137,165.902 C6.988,107.832 -11.254,114.422 -17.477,37.395 C-8.977,-19.176 -0.895,-20.02 81.48,-43.977 C183.039,-58.902 194.953,-67.121 256.473,62.984"/>
  <path fill="rgb(1.960784%, 20.392157%, 23.529412%)" opacity="0.987" d="M225.992,208.871 C224.512,272.34 208.895,257.367 100.391,259.078 C-53.102,254.012 -30.582,233.625 7.574,157.387 C6.414,92.531 13.133,94.766 55.605,96.152 C188.156,75.602 227.191,16.102 225.992,208.871"/>
  <path fill="rgb(0%, 52.54902%, 66.27451%)" opacity="0.993" d="M388.281,149.348 C407.465,212.922 408.91,218.777 247.652,201.676 C116.152,163.734 123.684,146.469 164.027,96.121 C150.629,-46.453 149.906,-40.43 239.543,-28.059 C380.008,-63.062 396.219,-87.723 388.281,149.348"/>
  <path fill="rgb(0%, 52.54902%, 74.509804%)" d="M178.375,302.41 C168.473,437.977 156.094,423.531 60.535,403.641 C-0.293,411.574 -9.473,414.965 -33.363,288.879 C-62.312,220.547 -60.078,194.594 79.754,215.078 C172.875,245.832 177.711,245.422 178.375,302.41"/>
  <path fill="rgb(100%, 23.529412%, 0%)" d="M378.551,268.258 C400.641,467.074 392.562,440.418 282.855,394.695 C141.395,412.098 117.215,397.309 170.613,232.066 C36.051,194.164 47.277,188.961 260.684,174.898 C350.359,202.039 362.547,189.078 378.551,268.258"/>
  <path fill="rgb(0%, 56.078431%, 67.45098%)" d="M252.172,87.047 C196.652,13.301 94.242,65.504 109.977,149.008 C18.805,92.816 20.766,74.664 -10.113,9.695 C6.363,-13.973 24.793,-10.555 87.539,-19.57 C174.352,-45.27 266.727,-89.629 252.172,87.047"/>
  <path fill="rgb(0%, 56.470588%, 68.235294%)" opacity="0.817" d="M120.074,99.133 C113.941,96.527 112.41,113.527 119.109,192.395 C13.258,125.688 -3.926,123.789 -15.641,70.891 C-18.754,15.93 -15.578,2.891 13.238,14.254 C78.461,48.789 89.133,54.211 120.074,99.133"/>
  <path fill="rgb(11.764706%, 10.196078%, 14.901961%)" opacity="0.637" d="M4.801,-9.148 C1.785,-3.723 -3.422,1.871 -8.324,5.211 C-0.723,6.004 -9.113,3.777 -12.277,0.27 C-10.57,-6.105 -5.887,-10.789 0.508,-12.504 C6.039,-10.488 7.363,-2.445 4.801,-9.148"/>
  <path fill="rgb(83.529412%, 20.784314%, 18.039216%)" opacity="0.923" d="M182.039,254.121 C129.941,255.219 70.547,134.008 42.621,225.176 C51.484,277.496 -9.891,251.379 -34.941,221.594 C-13.688,90.965 -9.078,84.238 -12.363,95.914 C46.508,133.738 0.348,207.203 182.039,254.121"/>
  <path fill="rgb(98.823529%, 23.921569%, 0%)" d="M278.605,189.273 C179.414,89.715 236.09,283.031 149.684,317.105 C220.758,112.121 89.855,128.332 143.734,220.238 C58.73,130.715 137.52,6.223 252.215,43.047 C258.527,43.062 340.914,77.203 278.605,189.273"/>
  <path fill="rgb(18.823529%, 42.745098%, 49.019608%)" opacity="0.908" d="M361.391,234.348 C371.332,297.297 386.344,288.652 364.996,245.277 C314.141,247.418 266.215,306.188 227.234,187.703 C229.086,242.531 409.98,272.086 346.371,144.336 C404.137,178.453 313.152,228.168 361.391,234.348"/>
  <path fill="rgb(10.980392%, 43.921569%, 41.960784%)" opacity="0.917" d="M285.941,339.859 C219.559,324.602 209.102,328.035 250.324,372.18 C196.086,366.398 142.32,385.047 49.883,289.105 C167.277,384.223 206.605,281.73 203.391,207.406 C205.812,305.18 275.359,272.148 285.941,339.859"/>
  <path fill="rgb(45.882353%, 5.490196%, 0%)" opacity="0.679" d="M385.504,351.242 C386.816,479.703 331.992,436.16 272.836,431.305 C220.945,417.879 212.848,405.438 217.258,362.367 C236.164,334.293 232.645,319.078 252.141,299.223 C290.922,293.32 294.414,435.973 385.504,351.242"/>
  <path fill="rgb(24.705882%, 26.27451%, 74.117647%)" opacity="0.484" d="M396.758,281.789 C381.137,351.992 394.746,329.371 336.766,341.773 C294.75,334.258 318.742,305.254 299.359,278.902 C261.926,249.984 231.293,263.18 357.082,221.309 C403.34,239.469 403.719,254.938 396.758,281.789"/>
  <path fill="rgb(0%, 56.470588%, 63.137255%)" opacity="0.708" d="M233.605,346.859 C225.684,389.281 212.508,383.977 174.867,396.098 C134.492,428.75 63.863,482.07 -24.984,336.484 C51.844,199.906 68.93,328.355 130.863,331.781 C227.031,316.934 237.883,326.48 233.605,346.859"/>
  <path fill="rgb(0.392157%, 56.078431%, 69.411765%)" opacity="0.988" d="M285.074,327.531 C311.145,400.266 418.715,334.34 306.504,404.793 C124.234,413.621 128.043,406.32 112.746,320.094 C152.953,339.219 184.508,316.094 207.035,223.617 C241.594,298.211 275.336,278.988 285.074,327.531"/>
  <path fill="rgb(0%, 49.019608%, 67.058824%)" opacity="0.977" d="M368.945,274.805 C328.91,318.176 379.801,343.715 330.207,353.648 C282.438,339.996 326.336,307.492 273.316,264.707 C230.363,220.895 233.992,210.219 276.312,232.184 C389.305,256.059 356.125,134.488 368.945,274.805"/>
  <path fill="rgb(0%, 54.117647%, 65.490196%)" opacity="0.836" d="M169.887,385.367 C171.441,421.684 168.426,426.52 135.523,420.91 C126.207,391.246 128.289,376.684 79.586,299.945 C54.473,317.992 73.277,348.969 143.098,326.164 C168.555,333.246 166.438,347.738 169.887,385.367"/>
  <path fill="rgb(8.235294%, 54.509804%, 64.705882%)" d="M125.27,199.52 C79.117,225.699 -50.254,191.863 47.34,306.957 C-55.883,334.266 -46.25,260.508 -33.941,173.973 C-43.035,82.113 -39.828,77.043 8.809,74.82 C80.645,81.895 97.301,100.586 125.27,199.52"/>
  <path fill="rgb(5.098039%, 53.333333%, 65.098039%)" opacity="0.992" d="M388.129,335.906 C382.289,385.227 401.785,465.309 312.059,355.816 C362.133,386.246 382.301,280.672 335.285,349.258 C316.828,286.973 296.457,252.844 388.551,183.586 C447.77,209.301 418.336,261.355 388.129,335.906"/>
  <path fill="rgb(0%, 52.941176%, 70.980392%)" opacity="0.998" d="M351.348,140.016 C353.957,164.172 356.777,243.297 262.141,187 C326.336,158.371 364.855,171.953 353.633,152.055 C314.285,109.977 366.371,105.539 332.316,70.328 C349.348,80.645 334.418,82.508 351.348,140.016"/>
  <path fill="rgb(0%, 52.156863%, 74.117647%)" d="M74.617,263.113 C57.273,337.859 128.227,314.227 173.23,218.699 C179.832,422.035 31.309,335.332 105.754,246.562 C80.762,197.289 47.926,193.594 77.75,226.082 C41.391,183.852 94.293,197.617 74.617,263.113"/>
  <path fill="rgb(98.431373%, 98.431373%, 100%)" opacity="0.988" d="M173.059,174.719 C163.469,191.562 148.738,195.82 136.48,189.527 C100.656,163.75 148.148,124.773 130.152,174.617 C147.875,210.781 183.75,145.25 122.621,165.934 C126.914,108.398 196.055,129.98 173.059,174.719"/>
  <path fill="rgb(100%, 23.921569%, 0%)" d="M188.09,180.805 C233.469,317.816 157.156,342.387 124.234,351.812 C74.938,355.672 54.852,317.797 64.957,292.219 C75.957,259.066 111.871,244.414 82.387,307.988 C101.59,368.176 201.363,308.902 188.09,180.805"/>
  <path fill="rgb(33.333333%, 42.745098%, 67.45098%)" opacity="0.445" d="M349.492,80.645 C353.844,84.648 332.762,103.367 333.363,132.105 C384.738,81.465 300.715,38.965 305.277,97.832 C312.723,90.391 314.555,67.965 318.961,78.961 C333.305,65.98 341.652,77.594 349.492,80.645"/>
  <path fill="rgb(98.039216%, 22.745098%, 1.176471%)" opacity="0.982" d="M349.012,108 C337.918,135.965 353.367,132.66 372.039,168.586 C337.188,155.551 333.352,114.371 334.543,127.812 C333.938,106.801 358.039,92.664 322.418,68.816 C346.871,74.484 351.824,87 349.012,108"/>
  <path fill="rgb(94.901961%, 97.647059%, 98.823529%)" opacity="0.977" d="M262.523,148.195 C276.051,185.383 215.902,207.793 211.387,159.688 C252.418,222.93 257.977,126.457 218.141,176.23 C199.961,139.312 243.484,126.824 252.031,137.75 C254.43,138.758 259.441,143.762 262.523,148.195"/>
  <path fill="rgb(99.607843%, 23.529412%, 2.352941%)" opacity="0.99" d="M336.684,76.766 C345.73,84.219 338.156,109.305 342.949,99.484 C353.137,125.363 334.871,37.719 304.02,94.242 C350.562,114.445 282.969,84.578 318.43,72.625 C333.66,61.539 355.914,92.004 336.684,76.766"/>
  <path fill="rgb(100%, 13.72549%, 0%)" d="M370.094,184.336 C374.711,170.41 374.008,197.051 352.223,218.184 C281.57,241.637 253.5,225.301 340.551,200.238 C382.082,166.355 319.77,129.66 349.539,137.738 C378.25,157.848 373.336,190.305 370.094,184.336"/>
  <path fill="rgb(100%, 24.705882%, 0%)" d="M165.844,228.562 C140.809,272.348 110.594,271.434 87.523,290.559 C65.656,281.418 80.789,265.445 112.387,245.828 C134.973,242.688 74.43,216.801 19.492,235.375 C37.258,186.719 114.473,206.922 165.844,228.562"/>
</svg>

