<svg xmlns="http://www.w3.org/2000/svg" width="384" height="384" viewBox="0 0 384 384">
  <defs/>
  <path fill="rgb(67.058824%, 87.45098%, 36.862745%)" opacity="0.579" d="M395.422,239.027 C392.492,441.02 384.605,438.02 356.992,407.727 C209.559,339.047 108.543,391.406 34.941,241.633 C75.938,179.504 103.199,182.168 208.418,201.914 C340.52,209.512 376.57,192.012 395.422,239.027"/>
  <path fill="rgb(74.117647%, 94.117647%, 61.176471%)" opacity="0.871" d="M422.961,108.598 C448.027,220.512 447.746,240.699 353.207,236.5 C153.23,236.914 142.105,232.203 126.719,147.285 C136.703,-72.469 142.023,-74.324 213.82,-54.898 C397.844,-21.941 402.957,-17.648 422.961,108.598"/>
  <path fill="rgb(0%, 0%, 2.745098%)" d="M193.125,329.484 C182.613,403.168 168.629,397.965 101.137,401.312 C14.453,447.219 -10.672,488.273 -0.676,270.824 C-4.062,219.105 2.465,211.895 65.223,233.773 C259.812,231.285 220.164,262.43 193.125,329.484"/>
  <path fill="rgb(79.215686%, 66.666667%, 41.176471%)" d="M189.613,148.359 C193.184,216.176 197.102,230.906 107.711,244.809 C-95.551,230.957 -82.742,225.145 -47.445,133.414 C-22.746,-9.566 -13.668,-26.242 65.172,-2.898 C126.207,-8.48 132.152,-5.098 189.613,148.359"/>
  <path fill="rgb(57.254902%, 20.784314%, 1.568627%)" opacity="0.359" d="M264.062,436.891 C295.602,405.895 277.375,400.992 198.25,417.078 C165.926,414.926 176.203,394.594 105.582,263.551 C91.23,241.168 118.379,247.133 171.859,190.289 C234.773,341.027 223.219,375.551 264.062,436.891"/>
  <path fill="rgb(83.137255%, 91.764706%, 66.27451%)" opacity="0.489" d="M322.98,331.109 C339.809,359.953 339.688,360.078 329.113,348.867 C292.105,323.469 290.328,309.266 271.461,296.551 C264.77,293.281 276.012,297.879 266.23,292.859 C291.941,305.43 303.316,308.965 322.98,331.109"/>
  <path fill="rgb(81.568627%, 92.156863%, 64.313725%)" opacity="0.475" d="M419.844,327.824 C413.445,355.672 413.848,365.488 375.309,356.871 C351.75,330.379 355.574,302.855 361.18,299.645 C360.602,278.219 361.262,261.738 368.746,257.789 C389.383,268.668 395.547,272.441 419.844,327.824"/>
  <path fill="rgb(83.529412%, 95.294118%, 66.666667%)" opacity="0.978" d="M217.922,269.109 C219.125,361.367 219.223,374.262 129.961,466.32 C24.922,462.625 7.461,461.336 5.992,337.242 C105.758,252.684 49.594,291.211 155.699,260.359 C242.422,241.461 203.473,225.199 217.922,269.109"/>
  <path fill="rgb(80%, 94.117647%, 64.313725%)" opacity="0.999" d="M321.781,373.48 C319.145,433.438 299.578,429.996 214.402,419.879 C165.543,397.938 172.004,376.777 180.305,337.297 C192.668,305.148 195.707,288.141 230.961,254.133 C250.016,286.578 244.559,305.941 321.781,373.48"/>
  <path fill="rgb(76.470588%, 99.215686%, 64.705882%)" opacity="0.77" d="M409.754,243.969 C403.535,263.383 401.648,271.137 374.07,265.746 C364.984,277.359 361.145,283.496 363.328,274.191 C372.238,255.859 384.934,242.305 407.156,223.375 C400.199,208.719 402.746,216.285 409.754,243.969"/>
  <path fill="rgb(76.862745%, 100%, 74.509804%)" d="M84.207,253.105 C40.77,265.828 30.789,273.324 8.727,282.953 C-10.934,292.207 -5.074,286.723 -21.25,250.887 C-61.891,172.48 -59.758,164.766 33.812,146.219 C53.668,223.539 64,221.461 84.207,253.105"/>
  <path fill="rgb(72.156863%, 73.72549%, 35.686275%)" opacity="0.765" d="M86.723,251.195 C72.18,245.559 76.66,258.879 73.27,239.004 C65.113,220.18 57.16,211.859 47.379,180.199 C31.98,197.449 46.277,174.305 53.207,199.848 C46.895,213.852 72.18,198.398 86.723,251.195"/>
  <path fill="rgb(81.960784%, 100%, 90.196078%)" opacity="0.516" d="M15.629,281.355 C26.797,272.07 15.949,269.039 1.129,285.777 C-15.941,281.832 -26.973,276.359 -24.508,257.164 C-10.68,252.211 -5.086,245.465 -30.129,273.074 C-9.105,283.145 3.301,282.277 15.629,281.355"/>
  <path fill="rgb(0%, 0%, 5.490196%)" d="M373.156,131.609 C332.746,166.934 336.609,214.258 245.613,243.285 C126.988,266.312 172.422,247.168 305.285,196.691 C328.281,159.371 304.305,187.453 384.262,100.723 C400.59,51.566 396.383,123.426 373.156,131.609"/>
  <path fill="rgb(45.882353%, 100%, 61.960784%)" opacity="0.982" d="M36.523,9.367 C46.555,35.43 39.508,50.727 20.73,48.07 C-16.242,20.176 -20.57,15.742 -23.32,11.23 C-10.57,-6.105 -5.887,-10.789 3.566,-17.52 C12.023,-18.113 17.816,-13.855 36.523,9.367"/>
</svg>

