<svg xmlns="http://www.w3.org/2000/svg" width="384" height="384" viewBox="0 0 384 384">
  <defs/>
  <path fill="rgb(0.392157%, 56.862745%, 37.254902%)" opacity="0.881" d="M416.219,208.512 C390.875,435.645 376.148,431.605 338.828,390.18 C189.828,332.48 179.934,318.715 219.098,309.961 C224.621,266.789 208.703,220.547 370.512,143.016 C406.305,129.441 411.766,131.414 416.219,208.512"/>
  <path fill="rgb(3.529412%, 71.764706%, 35.294118%)" opacity="0.969" d="M309.793,131.988 C296.738,307.266 265.723,302.504 62.121,428.297 C-4.109,415.449 -8.742,415.289 -37.684,191.793 C-14.355,84.395 50.426,126.086 103.188,161.645 C265.691,145.016 272.031,110.965 309.793,131.988"/>
  <path fill="rgb(3.137255%, 71.764706%, 41.568627%)" opacity="0.996" d="M185.824,37.863 C201.16,103.43 239.93,138.895 39.215,200.672 C-14.75,201.461 -17.324,197.508 -17.559,171.789 C-8.188,-78.355 1.488,-58.293 143.633,-51.738 C181.766,-25.352 167.707,10.949 185.824,37.863"/>
  <path fill="rgb(4.705882%, 65.882353%, 42.352941%)" opacity="0.999" d="M357.727,406.836 C328.922,403.238 308.098,398.133 200.629,393.094 C133.586,401.914 107.852,418.32 110.18,434.824 C152.137,286.922 207.27,293.363 218.227,285.129 C245.305,306.238 300.062,276.77 357.727,406.836"/>
  <path fill="rgb(0.392157%, 74.117647%, 33.72549%)" opacity="0.996" d="M390.613,-18.094 C405.285,191.539 420.375,236.055 331.309,279.066 C233.359,91.656 293.219,77.453 198.984,105.887 C172.922,63.613 171.402,-31.418 147.988,-32.91 C341,-21.387 349.535,-26.359 390.613,-18.094"/>
  <path fill="rgb(0.784314%, 0%, 98.039216%)" d="M332.074,323.918 C262.355,300.598 266.766,300.078 250.895,298.438 C205.809,286.07 234.977,300.199 246.227,268.148 C255.766,223.438 284.359,70.176 312.629,146.852 C338.121,271.746 311.055,215.098 332.074,323.918"/>
  <path fill="rgb(73.333333%, 29.803922%, 0%)" d="M265.543,74.902 C324.457,77.074 288.336,29.59 263.176,84.684 C283.078,11.859 258.172,-0.383 250.109,80.156 C256.285,31.816 288.871,49.359 299.074,22.098 C257.625,119.414 275.348,58.375 265.543,74.902"/>
  <path fill="rgb(1.960784%, 0%, 99.607843%)" d="M300.141,127.113 C198.711,173.289 240.285,115.543 190.754,162.988 C257.57,102.66 273.602,75.738 211.375,110.273 C211.832,155.758 175.871,127.062 206.293,93.156 C241.234,70.414 277.176,75.332 300.141,127.113"/>
  <path fill="rgb(0%, 0%, 99.607843%)" d="M338.348,311.809 C356.922,400.426 313.473,412.461 202.934,403.355 C192.891,371.184 188.969,341.113 199.855,319.203 C222.961,247.707 223.906,275.379 282.188,155.531 C291.203,172.988 304.051,218.996 338.348,311.809"/>
  <path fill="rgb(30.196078%, 40.392157%, 40%)" opacity="0.449" d="M3.223,-11.148 C-3.062,-0.441 -8.109,4.027 -17.754,3.613 C-10.535,16.59 -12.609,10.223 -12.219,0.617 C-10.461,-5.922 -5.777,-10.605 9.535,-20.48 C14.402,-17.766 16.77,-11.422 3.223,-11.148"/>
  <path fill="rgb(21.960784%, 18.431373%, 30.980392%)" opacity="0.557" d="M3.328,-10.816 C0.555,-4.008 -3.695,0.578 -11.648,2.062 C-4.125,9.754 -7.688,3.719 -12.047,-0.047 C-10.559,-5.785 -5.875,-10.469 1.008,-12.34 C11.371,-13.992 17.227,-10.977 3.328,-10.816"/>
  <path fill="rgb(11.764706%, 55.686275%, 39.215686%)" opacity="0.81" d="M6.598,-7.82 C2.918,-2.812 -3.035,0.945 -9.613,3.633 C-1.652,7.047 -7.621,2.844 -12.199,0.023 C-10.57,-6.105 -5.887,-10.789 0.41,-12.473 C3.223,-8.176 6.824,-1.391 6.598,-7.82"/>
  <path fill="rgb(22.352941%, 49.803922%, 70.588235%)" opacity="0.209" d="M202.891,381.469 C189.727,399.938 185.285,406.277 169.328,401.215 C125.672,412.328 76.688,444.742 72.852,385.203 C98.613,364.598 109.16,387.906 159.547,377.098 C195.434,388.348 196.191,366.781 202.891,381.469"/>
  <path fill="rgb(0.392157%, 0%, 100%)" d="M301.402,137.277 C296.199,212.129 292.137,196.699 263.438,197.625 C266.328,187 278.895,149.934 259.707,139.152 C256.77,146.801 251.957,143.551 262.199,129.055 C269.906,93.828 289.785,96.402 301.402,137.277"/>
  <path fill="rgb(74.117647%, 14.509804%, 2.745098%)" opacity="0.96" d="M207.164,56.332 C283.742,1.992 225.594,29.305 244.348,83.164 C225.879,11.488 221.891,49.254 214.469,32.152 C225.016,71.898 210.738,66.035 247.043,36.832 C264.844,13.203 256.738,66.641 207.164,56.332"/>
  <path fill="rgb(2.745098%, 70.196078%, 34.117647%)" opacity="0.535" d="M330.797,-20 C311.57,-11.914 312.152,33.035 266.914,89.484 C354.555,-17.152 322.715,-63.605 269.379,88.715 C300,26.98 322.434,-17.699 316.402,-14.379 C325.328,47.656 322.105,-1.785 330.797,-20"/>
  <path fill="rgb(16.470588%, 71.764706%, 46.666667%)" opacity="0.225" d="M11.613,10.027 C14.262,7.34 -6.324,6.766 -27.496,13.934 C-12.887,18.324 -17.18,13.246 -16.18,5.305 C-10.512,-6.324 -5.824,-11.008 9.867,-23.078 C12.695,-21.004 15.945,-9.871 11.613,10.027"/>
  <path fill="rgb(26.27451%, 12.941176%, 20.392157%)" opacity="0.334" d="M258.699,66.871 C247.125,121.934 226.328,112.586 253.316,105.422 C238.754,114.262 268.316,83.188 220.113,122.965 C223.898,68.785 221.734,54.039 227.652,28.863 C211.109,59.02 226.016,173.66 258.699,66.871"/>
  <path fill="rgb(65.098039%, 0%, 71.372549%)" opacity="0.492" d="M222.605,384.125 C259.461,394.176 254.77,387.004 218.492,392.012 C234.348,375.238 216.059,376.328 222.195,388.75 C221.008,370.273 222.809,386.363 225.875,376.727 C229.945,371.402 225.316,375.574 222.605,384.125"/>
  <path fill="rgb(66.27451%, 0%, 49.019608%)" opacity="0.65" d="M252.527,404.836 C288.562,385.047 278.637,370.301 275.602,402.305 C225.055,404.438 214.48,377.73 217.398,379.617 C227.082,365.871 212.461,381.367 221.078,390.348 C210.332,375.508 221.555,383.066 252.527,404.836"/>
  <path fill="rgb(20%, 59.215686%, 61.960784%)" opacity="0.137" d="M120.844,274.637 C153.418,260.32 153.277,261.398 142.449,244.57 C157.543,254 167.887,264.043 152.988,298.562 C2.117,282.07 39.477,219.531 173.402,240.242 C181.395,284.5 150.941,275.91 120.844,274.637"/>
  <path fill="rgb(22.745098%, 54.509804%, 57.647059%)" opacity="0.077" d="M383.797,263.859 C388.93,202.852 399.965,205.062 325.082,242.949 C437.164,200.812 413.566,187.562 309.613,236.102 C393.312,201.469 427.68,170.258 318.312,208.988 C323.887,247.52 348.082,254.688 383.797,263.859"/>
  <path fill="rgb(41.176471%, 28.235294%, 30.980392%)" opacity="0.413" d="M11.867,-5.527 C7.73,-5.871 -5.895,-1.484 -13.328,4.762 C-11.418,16.281 -15.566,11.406 -15.941,3.871 C-10.812,-6.066 -6.125,-10.754 5.582,-17.664 C12.574,-17.055 16.941,-12.793 11.867,-5.527"/>
</svg>

