<svg xmlns="http://www.w3.org/2000/svg" width="384" height="384" viewBox="0 0 384 384">
  <defs/>
  <path fill="rgb(0%, 29.019608%, 0.392157%)" d="M176.473,30.352 C168.703,146.707 176.016,142.117 69.352,145.73 C-1.504,177.762 -7.059,196.066 -9.008,60.445 C-8.57,-32.484 -1.59,-31.801 40.113,-16.422 C205.074,-17.805 197.32,-18.336 176.473,30.352"/>
  <path fill="rgb(89.411765%, 99.607843%, 43.137255%)" d="M386.07,2.055 C342.77,214.352 291.559,208.68 231.75,246.336 C77.898,216.309 103.266,181.801 75.723,121.168 C102.047,29.02 116.594,3.434 303.863,-15.922 C350.188,-53.156 387.727,-84.629 386.07,2.055"/>
  <path fill="rgb(88.627451%, 100%, 42.745098%)" opacity="0.987" d="M192.121,227.133 C197.008,319.457 202.129,296.816 34.117,321.141 C-21,316.527 -24.27,319.762 -4.523,147.004 C33.074,120.695 53.57,99.387 153.227,114.805 C192.926,128.008 197.766,128.324 192.121,227.133"/>
  <path fill="rgb(71.372549%, 85.098039%, 2.745098%)" opacity="0.964" d="M418.195,258.559 C472.008,377.84 505.156,390.684 280.859,398.477 C224.895,384.941 234.836,364.195 247.836,261.098 C272.465,123.039 255.523,62.754 379.605,17.441 C519.559,11.355 464.691,56.73 418.195,258.559"/>
  <path fill="rgb(87.45098%, 100%, 42.745098%)" d="M269.789,300.27 C270.805,395.059 258.285,401.277 206.145,388.07 C-3.188,400.621 -12.586,397.117 -9.891,388.961 C11.754,205.828 40.152,230.316 172.734,202.668 C231.328,153.145 224.449,166.367 269.789,300.27"/>
</svg>

