<svg xmlns="http://www.w3.org/2000/svg" width="384" height="384" viewBox="0 0 384 384">
  <defs/>
  <path fill="rgb(95.294118%, 100%, 3.921569%)" opacity="0.22" d="M410.355,241.707 C392.633,427.125 386.676,426.242 360.902,437.129 C202.23,434.184 202.48,388.332 228.758,309.781 C237.75,239.188 208.871,223.559 356.23,80.598 C438.02,78.391 424.66,97.574 410.355,241.707"/>
  <path fill="rgb(87.058824%, 85.490196%, 45.490196%)" opacity="0.68" d="M340.387,306.352 C333.566,339.477 391.672,393.617 234.391,422.406 C77.238,436.012 65.781,440.746 49.445,353.754 C157.508,224.277 143.441,179.211 390.711,58.234 C466.059,113.73 405.898,180.066 340.387,306.352"/>
  <path fill="rgb(92.54902%, 100%, 58.431373%)" opacity="0.609" d="M294.555,102.875 C94.73,179.492 111.016,222.102 17.418,278.477 C-36.668,286.02 -18.738,191.152 -22.984,239.016 C-21.672,198.992 -61.281,154.281 15.758,-55.746 C316.719,-48.602 315.008,-57.031 294.555,102.875"/>
  <path fill="rgb(75.294118%, 5.098039%, 3.921569%)" opacity="0.993" d="M-2.633,-16.102 C-3.789,-1.691 -2.855,11.254 -6.93,17.184 C-5.91,11.484 -10.547,6.594 -12.254,0.168 C-10.539,-6.234 -5.852,-10.918 0.547,-12.633 C6.949,-10.918 11.633,-6.234 -2.633,-16.102"/>
  <path fill="rgb(99.607843%, 100%, 73.333333%)" d="M400.324,107.82 C223.527,326.754 124.867,297.73 64.887,336.094 C51.168,408.734 31.844,448.234 -32.84,386.918 C3.484,173.145 38.824,190.641 288.59,-42.188 C413.812,-2.242 410.434,6.305 400.324,107.82"/>
  <path fill="rgb(0%, 0%, 1.960784%)" d="M233.852,269.434 C229.305,376.102 218.473,287.789 225.438,269.949 C260.641,279.809 236.953,267.504 98.34,267.652 C288.941,268.352 334.871,305.715 323.359,240.172 C40.832,238.602 95.082,257.594 233.852,269.434"/>
  <path fill="rgb(59.215686%, 89.019608%, 13.333333%)" opacity="0.081" d="M255.625,266.828 C66.906,276.008 126.473,267.586 86.824,262.043 C72.371,286.883 87.91,313.145 110.684,123.613 C124.289,157.484 68.922,269.277 94.035,264.922 C102.816,267.805 144.27,256.32 255.625,266.828"/>
  <path fill="rgb(0%, 0%, 1.568627%)" d="M171.594,297.426 C146.809,285.344 151.812,286.305 149.887,332.055 C127.395,348.281 151.855,281.176 127.113,284.379 C99.148,274.23 80.625,262.289 135.449,262.426 C307.855,249.707 291.555,270.762 171.594,297.426"/>
  <path fill="rgb(69.019608%, 59.607843%, 31.764706%)" opacity="0.745" d="M3.562,-9.418 C2.066,-2.812 -5.133,-1.355 -6.762,6.965 C-0.617,5.867 -8.988,3.832 -12.32,0.414 C-10.629,-5.918 -5.945,-10.602 0.453,-12.316 C6.855,-10.602 11.664,-5.941 3.562,-9.418"/>
  <path fill="rgb(23.137255%, 2.745098%, 13.333333%)" opacity="0.968" d="M65.426,191.105 C67.926,230.199 65.176,251.082 64.852,245.168 C65.438,245.789 65.719,246.516 68.57,248 C84.441,253.926 77.055,232.078 81.594,80.25 C63.117,43.551 71.668,242.758 65.426,191.105"/>
  <path fill="rgb(13.333333%, 34.509804%, 0.784314%)" opacity="0.786" d="M17.621,-6.383 C2.367,-7.699 -1.199,3.516 -13.828,2.629 C4.059,0.051 -5.699,2 -14.754,2.496 C-10.512,-6.324 -5.824,-11.008 -0.246,-19.277 C11.645,-17.062 5.582,-1.324 17.621,-6.383"/>
  <path fill="rgb(35.294118%, 6.27451%, 20.392157%)" opacity="0.804" d="M21.887,254.078 C22.754,258.832 2.379,246.289 -21.098,256.73 C-7.148,253.398 -9.301,245.102 -19.367,255.406 C32.254,260.48 -0.91,200.293 40.258,62.18 C20.102,230.273 20.289,271.082 21.887,254.078"/>
  <path fill="rgb(88.627451%, 100%, 71.764706%)" opacity="0.295" d="M-4.848,19.43 C8.012,16.113 -15.73,18.586 -29.535,15.227 C-1.918,7.359 -6.555,2.555 -10.387,-2.832 C-10.57,-6.105 -5.887,-10.789 0.078,-39.723 C1.598,-36.93 -2.672,-18.016 -4.848,19.43"/>
  <path fill="rgb(28.627451%, 0%, 17.254902%)" d="M334.984,161.023 C322.516,127.512 354.875,191.906 326.16,210.203 C318.543,86.395 316.914,97.219 320.086,54.156 C333.266,35.723 332.168,114.633 327.855,60.867 C333.316,68.996 331.191,92.113 334.984,161.023"/>
  <path fill="rgb(47.843137%, 31.372549%, 21.568627%)" opacity="0.668" d="M9.762,-5.684 C12.074,1.535 5.637,-2.547 -11.363,0.336 C-3.953,7.902 -10.766,6.582 -12.527,0.332 C-10.812,-6.066 -6.125,-10.754 0.27,-12.469 C6.141,-10.582 6.996,-2.766 9.762,-5.684"/>
  <path fill="rgb(58.039216%, 34.117647%, 31.372549%)" opacity="0.703" d="M1.898,-13.25 C2.723,-5.473 -6.586,-1.652 -11.953,5.273 C-0.676,6.273 -7.965,3.137 -12.121,0.297 C-10.461,-5.922 -5.777,-10.605 2.578,-13.738 C9.906,-15.199 11.891,-11.934 1.898,-13.25"/>
  <path fill="rgb(71.764706%, 44.313725%, 57.254902%)" opacity="0.534" d="M6.727,-18.914 C0.133,-2.129 -6.258,3.336 -9.633,15.406 C-15.453,21.117 -16.117,13.527 -12.504,0.977 C-10.66,-5.875 -5.973,-10.559 4.305,-16.492 C14.652,-18.266 20.359,-15.152 6.727,-18.914"/>
  <path fill="rgb(40%, 47.058824%, 21.960784%)" opacity="0.607" d="M-0.062,-7.105 C-0.559,4.23 -1.781,5.289 -8.789,15.348 C-19.352,22.164 -15.625,15.492 -12.438,1.215 C-10.633,-6.082 -5.949,-10.766 0.465,-12.488 C8.676,-11.559 16.148,-10.379 -0.062,-7.105"/>
  <path fill="rgb(0%, 43.137255%, 34.509804%)" opacity="0.996" d="M397.527,48.016 C385.145,76.008 415.094,118.859 336.621,90.145 C341.996,43.973 287.211,134.484 243.523,44.402 C264.57,-65.512 340.426,-8.168 374.988,-4.332 C388.82,-20.879 390.453,-4.352 397.527,48.016"/>
  <path fill="rgb(9.411765%, 60%, 41.568627%)" opacity="0.736" d="M190.324,125.789 C8.59,123.078 111.086,14.016 112.465,96.484 C-12.57,56.398 -17.965,57.812 -12.898,22.148 C0.281,-12.641 15.816,-10.297 -30.496,1.074 C61.289,4.801 160.492,-73.504 190.324,125.789"/>
  <path fill="rgb(34.509804%, 7.058824%, 18.431373%)" opacity="0.99" d="M116.449,124.617 C112.738,145.988 111.363,146.875 107.496,169.332 C101.492,278.234 81.293,251.398 97.344,172.965 C103.531,140.594 100.289,129.18 107.742,111.277 C126.562,108.004 122.035,110.602 116.449,124.617"/>
  <path fill="rgb(0%, 0%, 1.176471%)" d="M289.402,217.48 C197.812,261.105 141.512,210.32 163.336,272.098 C153.145,294.348 89.453,285.414 100.102,266.25 C173.543,242.844 161.586,212.547 222.465,144.562 C250.379,200.766 348.578,160.562 289.402,217.48"/>
</svg>

