<svg xmlns="http://www.w3.org/2000/svg" width="384" height="384" viewBox="0 0 384 384">
  <defs/>
  <path fill="rgb(4.313725%, 7.45098%, 36.862745%)" opacity="0.911" d="M414.855,243.68 C495.215,305.301 535.441,319.477 307.926,347.395 C310.508,174.078 300.051,98.496 259.227,72.055 C264.566,24.195 285.367,19.199 284.926,-9.258 C332.527,43.523 350.699,43.613 414.855,243.68"/>
  <path fill="rgb(0%, 69.411765%, 49.803922%)" d="M403.68,27.805 C404.98,111.383 406.641,123.617 347.828,157.258 C334.266,40.895 303.57,71.926 249.613,32.352 C264.812,-18.441 261.238,-33.453 337.688,-40.102 C389.762,-13.945 395.305,-10.059 403.68,27.805"/>
  <path fill="rgb(100%, 32.941176%, 31.372549%)" opacity="0.35" d="M303.871,238.941 C301.066,513.855 273.68,471.996 193.105,414.52 C-34.211,402.523 -30.898,395.383 -32.676,293.137 C-97.113,182.516 -136.547,175.996 99.438,154.977 C191.246,129.02 212.82,140.977 303.871,238.941"/>
  <path fill="rgb(0%, 66.666667%, 56.078431%)" d="M252.164,26.68 C231.508,50.75 205.355,37.098 18.156,186.457 C2.703,176.031 -7.223,168.473 -10.941,47.902 C0.086,-135.723 52.152,-55.039 191.758,-43.508 C218.43,-38.492 232.625,-44.863 252.164,26.68"/>
  <path fill="rgb(100%, 18.823529%, 18.431373%)" opacity="0.278" d="M273.309,68.289 C281.688,106.488 296.164,140.738 301.254,225.66 C45.605,210.949 26.172,205.047 26.91,187.012 C176.363,32.746 222.09,57.344 281.141,35.828 C233.223,3.301 249.77,-17.395 273.309,68.289"/>
  <path fill="rgb(7.45098%, 8.627451%, 56.470588%)" d="M336.07,326.051 C336.484,357.309 354.211,379.984 335.73,394.703 C287.637,360.801 279.445,354.723 260.781,331.789 C295.207,318.195 305.406,308.133 301.848,307.941 C320.418,316.75 321.211,320.605 336.07,326.051"/>
  <path fill="rgb(48.627451%, 39.607843%, 42.745098%)" opacity="0.706" d="M345.301,406.328 C345.848,402.453 332.824,400.055 269.957,405.5 C173.297,433.531 92.238,502.816 77.047,307.582 C105.73,334.504 187.195,326.922 332.223,333.855 C311.297,343.199 326.316,338.848 345.301,406.328"/>
  <path fill="rgb(0%, 27.843137%, 50.588235%)" opacity="0.434" d="M368.199,313.633 C340.273,319.785 341.168,324.527 305.824,320.492 C292.211,318.867 289.957,316.945 305.824,326.051 C313.969,155.582 225.082,106.559 327.613,95.633 C357.07,243 366.711,280.285 368.199,313.633"/>
  <path fill="rgb(69.019608%, 3.137255%, 5.882353%)" opacity="0.21" d="M330.621,327.312 C327.746,346.316 322.168,356.117 296.461,363.5 C264.434,356.332 209.812,337.008 271.164,320.062 C266.863,230.766 245.688,253.199 261.871,273.918 C274.602,346.246 295.035,326.18 330.621,327.312"/>
  <path fill="rgb(0.392157%, 67.843137%, 50.588235%)" d="M449.656,306.609 C396.484,389.387 392.289,394.977 355.32,407.148 C258.062,382.773 273.453,331.375 308.688,315.184 C355.535,285.5 373.547,302.992 342.988,104.605 C487.469,142.359 458.961,191.152 449.656,306.609"/>
  <path fill="rgb(0%, 66.666667%, 55.686275%)" opacity="0.998" d="M51.465,178.141 C65.309,230.352 115.461,231.246 68.227,277.629 C17.418,281.684 3.746,277.359 -12.219,246.824 C13.27,195.129 27.105,196.332 111.473,75.508 C100.496,98.996 83.711,88.578 51.465,178.141"/>
  <path fill="rgb(0%, 67.45098%, 52.156863%)" opacity="0.995" d="M126.234,242.793 C107.676,357.57 135.523,342.719 109.484,357.988 C40.617,335.453 52.387,318.562 47.543,288.277 C44,246.277 22.863,221.949 73.949,204.637 C81.051,215.117 83.789,218.246 126.234,242.793"/>
  <path fill="rgb(0.392157%, 65.098039%, 53.72549%)" opacity="0.988" d="M314.582,334.965 C283.762,525.473 218.355,485.77 121.52,469.344 C-0.938,402.383 -10.328,397.426 -40.734,307.816 C-31.203,258.023 -22.418,251.391 127.133,237.301 C125.301,331.492 100.086,323.043 314.582,334.965"/>
  <path fill="rgb(24.705882%, 53.72549%, 51.764706%)" opacity="0.123" d="M136.254,76.41 C30.977,174.418 41.195,196.113 7.402,195.238 C-14.555,192.551 -15.719,199.082 13.363,180.574 C42.375,200.723 30.73,202.535 36.93,170.336 C105.43,140.438 113.324,82.977 136.254,76.41"/>
  <path fill="rgb(0%, 65.882353%, 56.862745%)" d="M99.078,147.863 C-2.312,146.141 65.434,221.961 26.098,273.145 C-31.062,275.699 -32.926,263.426 -39.883,203.406 C-32.625,151.195 -25.656,145.484 38.891,125.203 C148.531,113.258 127.434,92.535 99.078,147.863"/>
  <path fill="rgb(36.470588%, 55.686275%, 29.411765%)" opacity="0.221" d="M23.465,-12.184 C11.387,-8.738 -9.879,0.828 -21.23,9.199 C-10.492,16.457 -11.562,8.824 -12.297,0.328 C-10.57,-6.105 -5.887,-10.789 13.789,-26.234 C19.996,-24.668 22.664,-18.121 23.465,-12.184"/>
  <path fill="rgb(40%, 45.882353%, 60%)" opacity="0.605" d="M12.953,-4.617 C7.242,-4.457 -4.609,-1.82 -17.445,0.082 C-10.785,16.172 -12.969,10.078 -12.547,0.398 C-10.812,-6.066 -6.125,-10.754 3.543,-15.57 C11.145,-15.504 15.848,-11.254 12.953,-4.617"/>
  <path fill="rgb(100%, 65.098039%, 63.921569%)" d="M145.895,94.504 C130.465,100.684 125.523,104.969 114.246,121.934 C99.035,126.496 84.875,103.918 80.301,62.105 C99.789,85.641 118.133,74.27 122.617,76.445 C140.773,85.637 138.98,85.105 145.895,94.504"/>
  <path fill="rgb(0%, 66.27451%, 54.117647%)" d="M166.113,82.508 C154.492,94.258 141.086,110.363 134.918,92.371 C116.496,60.133 117.898,80.047 103.008,72.047 C106.438,66.086 103.152,80.68 119.621,73.648 C132.66,78.066 133.035,73.465 166.113,82.508"/>
  <path fill="rgb(12.156863%, 21.568627%, 37.647059%)" opacity="0.901" d="M287.352,48.105 C188.348,142.055 228.926,76.137 318.387,148.336 C228.258,98.004 200.199,85.52 150.59,94.23 C167.16,38.27 237.008,72.367 233.812,-0.387 C270.641,-12.977 266.812,14.281 287.352,48.105"/>
</svg>

