<svg xmlns="http://www.w3.org/2000/svg" width="384" height="384" viewBox="0 0 384 384">
  <defs/>
  <path fill="rgb(6.27451%, 0%, 7.843137%)" d="M300.441,183 C183.344,123.316 264.176,237.016 175.656,263.773 C47.047,244.973 14.918,234.566 -0.637,-10.496 C7.727,-28.988 18.488,-37.055 69.578,35.953 C250.77,108.707 313.387,61.574 300.441,183"/>
  <path fill="rgb(100%, 14.901961%, 20.392157%)" opacity="0.985" d="M105.797,225.926 C78.449,277.887 83.977,300.18 21.789,303.027 C-22.316,291.031 -9.738,277.977 -5.426,151.918 C-88.711,72.551 -117.141,50.285 23.684,35.168 C124.625,129.285 136.57,134.469 105.797,225.926"/>
  <path fill="rgb(95.294118%, 16.862745%, 19.215686%)" d="M103.852,227.883 C52.168,349.598 61.52,383.203 18.336,422.152 C-7.016,401.277 -11.902,397.703 -45.477,277.699 C-50.641,245.988 -46.062,242.887 44.414,235.238 C147.98,226.305 152.812,229.34 103.852,227.883"/>
  <path fill="rgb(31.764706%, 0.784314%, 58.431373%)" opacity="0.564" d="M-0.219,-12.652 C-1.012,-4.66 -5.293,6.738 -9.93,10.738 C-15.445,19.125 -18.824,15.188 -13.73,4.332 C-10.57,-6.105 -5.887,-10.789 0.516,-12.508 C6.207,-11.426 9.645,-12.359 -0.219,-12.652"/>
  <path fill="rgb(93.72549%, 0%, 0.784314%)" opacity="0.826" d="M411.285,155.441 C429.973,208.09 459.359,247.676 365.098,277.965 C99.801,195.477 142.414,196.148 96.238,14.137 C103.324,-95.863 136.199,-54.219 268.527,-27.434 C378.73,-75.398 392.438,-106.703 411.285,155.441"/>
  <path fill="rgb(100%, 17.254902%, 15.294118%)" d="M123.102,7.465 C95.016,54.801 87.078,52.402 42.602,42.008 C22.859,71.344 1.391,75.895 -23.008,37.727 C0.199,-19.543 12.91,-21.379 68.633,-21.219 C107.695,-28.418 125.082,-37.879 123.102,7.465"/>
  <path fill="rgb(98.823529%, 18.823529%, 18.039216%)" d="M115.059,48.156 C91.215,81.902 96.355,100.582 71.281,98.734 C28.922,97.043 21.152,94.117 21.57,57.805 C29.074,19.805 53.859,7.895 72.348,38.043 C111.227,39.652 99,29.652 115.059,48.156"/>
  <path fill="rgb(96.470588%, 21.568627%, 18.431373%)" opacity="0.332" d="M89.266,104.57 C90.352,123.055 72.289,122.867 61.859,117.102 C49.348,121.578 52.168,132.93 53.348,90.758 C42.801,58.539 56.801,45.977 68.281,58.918 C87.836,63.641 92.086,84.551 89.266,104.57"/>
  <path fill="rgb(81.176471%, 0.784314%, 3.137255%)" opacity="0.998" d="M130.191,120.105 C138.188,152.496 142.934,154.859 136.926,147.191 C82.367,150.316 69.125,150.23 48.934,119.801 C70.125,78.793 84.863,71.82 111.879,74.539 C139.344,82.008 147.238,97.906 130.191,120.105"/>
  <path fill="rgb(0%, 100%, 3.137255%)" d="M192.727,177.496 C205.074,221.344 234.891,246.789 213.191,250.047 C116.648,240.156 80.02,228.203 64.387,215.789 C123.102,164.422 125.449,160.613 123.766,149.641 C170.441,172.723 201.812,158.219 192.727,177.496"/>
</svg>

