<svg xmlns="http://www.w3.org/2000/svg" width="384" height="384" viewBox="0 0 384 384">
  <defs/>
  <path fill="rgb(14.117647%, 49.019608%, 46.27451%)" opacity="0.831" d="M293.328,48.77 C250.016,61.457 236.23,73.73 213.992,126.746 C134.73,133.703 177.023,80.562 187.145,5.188 C160.488,-11.875 165.191,-16.715 237.918,-27.836 C256.879,-21.242 273.262,-30.203 293.328,48.77"/>
  <path fill="rgb(18.431373%, 43.529412%, 45.098039%)" opacity="0.866" d="M405.953,53.703 C416.332,117.461 436.547,138.859 387.559,144.566 C309.75,114.77 312.141,98.977 313.949,27.922 C303.34,-10.148 303.934,-24.754 333.637,-30.25 C410.844,-9.043 406.199,0.82 405.953,53.703"/>
  <path fill="rgb(100%, 45.098039%, 0%)" d="M220.762,152.25 C283.723,206.992 329.891,246.188 19.539,274.781 C-49.863,273.484 -37.777,254.25 -10.508,188.734 C-7.051,-111.711 3.07,-83.566 57.664,-23.348 C201.336,-3.559 179.07,25.684 220.762,152.25"/>
  <path fill="rgb(100%, 45.882353%, 61.568627%)" opacity="0.234" d="M386.242,80.449 C383.418,131.34 381.5,128.062 199.02,214.684 C161.297,228.43 165.711,183.246 202.105,90.273 C251.727,-5.715 250.41,-17.344 291.516,-22.215 C381.367,-20.348 375.984,-18.098 386.242,80.449"/>
  <path fill="rgb(49.411765%, 49.803922%, 51.764706%)" opacity="0.907" d="M421.234,267.633 C472.25,376.492 511.18,391.281 210.547,403.867 C152.605,434.258 137.609,443.695 129.684,329.898 C159.738,73.148 191.793,150.152 268.711,134.875 C454.875,97.992 436.105,125.98 421.234,267.633"/>
  <path fill="rgb(47.45098%, 54.901961%, 55.294118%)" opacity="0.993" d="M351.402,49.672 C370.516,119.008 396.973,153.934 257.062,135.312 C332.691,59.922 319.023,41.539 254.75,56.188 C245.059,-13.211 242.293,-33.648 308.914,-30.582 C335.414,-3.133 329.691,12.906 351.402,49.672"/>
  <path fill="rgb(49.019608%, 55.686275%, 56.470588%)" d="M244.613,335.773 C195.984,450.645 185.188,449.406 121.109,452.918 C5.398,435.621 -8.484,459.18 -62.289,195.262 C-4.18,129.566 63.855,124.977 98.402,294.758 C193.812,350.246 218.789,279.656 244.613,335.773"/>
  <path fill="rgb(99.215686%, 98.431373%, 98.039216%)" opacity="0.989" d="M209.457,199.066 C227.879,294.414 209.383,276.168 190.855,317.363 C125.555,290.527 122.832,304.383 111.406,269.645 C131.98,236.891 161.637,163.348 165.184,184.043 C170.605,218.301 218.844,172.648 209.457,199.066"/>
  <path fill="rgb(48.235294%, 68.235294%, 6.27451%)" opacity="0.851" d="M125.766,304.496 C115.375,288.93 145.48,259.121 104.898,331.566 C76.152,305.762 51.449,317.047 49.758,308.738 C88.211,207.305 127,230.793 123.492,276.742 C153.641,246.48 118.094,242.832 125.766,304.496"/>
  <path fill="rgb(42.352941%, 57.254902%, 32.941176%)" opacity="0.658" d="M32.211,8.195 C18.934,10.379 7.25,17.234 2.629,25.297 C-14.391,18.98 -16.871,11.156 -11.793,-0.625 C-10.57,-6.105 -5.887,-10.789 -11.727,-1.652 C-0.637,-3.246 14.879,-9.719 32.211,8.195"/>
  <path fill="rgb(49.411765%, 54.901961%, 56.470588%)" opacity="0.99" d="M115.516,320.484 C110.938,330.922 127.062,365.574 111.777,436.883 C-18.398,389.809 -39.273,385.324 -4.047,270.402 C107.832,240.391 62.496,249.273 90.258,266.883 C92.934,309.273 116.082,337.43 115.516,320.484"/>
  <path fill="rgb(49.411765%, 54.901961%, 56.862745%)" opacity="0.99" d="M115.223,280.078 C105.555,311.91 117.781,314.676 113.68,341.312 C106.516,325.711 113.844,325.582 97.535,250.285 C43.129,186.801 -130.316,96.367 95.699,69.574 C188.34,251.504 109.617,240.59 115.223,280.078"/>
  <path fill="rgb(52.156863%, 54.901961%, 57.647059%)" d="M182.523,302.879 C154.875,364.812 157.258,379.824 118.035,427.449 C70.523,383.215 84.922,369.621 79.395,326.555 C73.828,308.566 101.406,320.043 96.488,314.84 C110.055,319.406 131.668,309.445 182.523,302.879"/>
  <path fill="rgb(49.411765%, 53.333333%, 56.470588%)" opacity="0.852" d="M406.289,52.305 C408.773,80.418 405.184,87.211 354.195,92.914 C343.391,79.633 338.512,64.312 333.676,31.785 C331.812,8.25 326.195,-11.465 351.121,-27.66 C399.895,-3.547 399.129,10.277 406.289,52.305"/>
  <path fill="rgb(35.294118%, 49.019608%, 42.745098%)" opacity="0.522" d="M401.797,117.379 C399.59,124.898 393.352,126.625 386.934,131.066 C382.887,116.543 376.84,92.988 379.297,100.102 C383.355,108.785 376.199,73.645 391.984,65.918 C412.113,65.559 403.012,85.551 401.797,117.379"/>
  <path fill="rgb(48.235294%, 40%, 69.019608%)" opacity="0.581" d="M232.105,5.121 C205.211,41.484 193.035,39.996 167.301,66.785 C170.145,64.719 169.297,41.363 170.73,35.359 C186.785,36.367 190.137,27.398 216.652,-9.379 C225.684,-20.977 231.961,-16.242 232.105,5.121"/>
  <path fill="rgb(50.196078%, 53.72549%, 54.117647%)" opacity="0.957" d="M202.004,37.438 C196.66,61.148 236.449,104.391 163.691,116.23 C134.984,21.836 151.812,61.895 -24.301,100.305 C53.172,-92.379 133.25,-23.551 188.852,-5.887 C200.289,9.508 195.762,24.367 202.004,37.438"/>
  <path fill="rgb(40.392157%, 61.960784%, 45.098039%)" opacity="0.898" d="M231.613,-0.766 C190.219,23.496 178.027,15.477 190.426,45.195 C158.668,48.418 149.082,25.039 176.367,16.109 C181.883,-2.125 177.52,-8.984 182.484,-22.266 C201.25,-2.16 217.793,-3.066 231.613,-0.766"/>
  <path fill="rgb(46.27451%, 54.901961%, 59.215686%)" opacity="0.956" d="M246.605,26.973 C242.441,49.34 249.605,84.48 180.141,172.719 C165.098,118.281 157.922,99.676 145.832,42.879 C163.074,2.062 175.477,2.93 238.113,-31.512 C266.449,-4.895 257.605,18.996 246.605,26.973"/>
  <path fill="rgb(52.156863%, 54.509804%, 52.156863%)" opacity="0.944" d="M195.285,-26.344 C170.867,-1.199 172.484,15.742 153.109,22.48 C133.055,45.816 68.75,129.129 -30.027,58.398 C36.059,-113.613 123.781,-42.867 159.184,-27.176 C192.691,-6.109 203.062,-5.934 195.285,-26.344"/>
</svg>

