<svg xmlns="http://www.w3.org/2000/svg" width="384" height="384" viewBox="0 0 384 384">
  <defs/>
  <path fill="rgb(90.588235%, 31.372549%, 29.019608%)" opacity="0.87" d="M235.426,341.168 C241.254,402.133 229.18,407.477 144.75,403.574 C15.684,413.703 -2.895,421.77 -20.402,357.609 C41.809,221.574 35.059,194.348 172.574,175.547 C228.949,161.566 219.125,186.09 235.426,341.168"/>
  <path fill="rgb(72.54902%, 4.313725%, 42.352941%)" opacity="0.915" d="M429.598,128.047 C464.609,191.156 471.402,202.148 290.594,212.203 C201.918,163.52 177.062,164.742 63.77,67.039 C73.539,-166.578 102.047,-107.922 244.395,-46.988 C390.895,-27.359 398.41,-27.301 429.598,128.047"/>
  <path fill="rgb(100%, 40%, 8.235294%)" opacity="0.955" d="M421.66,244.203 C384.5,355.375 370.152,390.781 229.055,415.016 C206.848,387.016 220.129,352.879 189.125,157.301 C198.926,122.043 185.297,128.992 338.898,206.77 C444.234,186.77 441.875,195.832 421.66,244.203"/>
  <path fill="rgb(11.372549%, 72.54902%, 7.058824%)" d="M398.219,342.441 C398.852,389.383 394.898,395.605 333.906,399.004 C278.758,407.738 254.496,421.234 254.582,411.305 C311.566,336.043 350.391,326.832 442.875,301.656 C414.039,263.688 404.758,286.031 398.219,342.441"/>
  <path fill="rgb(26.27451%, 53.72549%, 100%)" d="M321.656,251.777 C169.047,390.207 233.34,488.996 114.453,508 C-38.199,372.348 -27.445,348.859 -53.301,157.324 C-122.27,24.109 -174.637,5.355 99.707,-12.254 C265.109,43.008 264.559,78.531 321.656,251.777"/>
  <path fill="rgb(76.470588%, 8.627451%, 45.098039%)" d="M304.023,116.602 C164.543,73.27 138.695,110.57 57.23,214.926 C16.375,3.219 39.152,25.57 29.129,14.887 C18.441,-7.316 12.102,-16.578 99.316,-38.23 C209.629,-77.113 287.691,-156.504 304.023,116.602"/>
  <path fill="rgb(76.862745%, 11.372549%, 54.509804%)" opacity="0.71" d="M43.617,75.344 C3.875,102.145 52.441,36.215 50.07,148.441 C-66.664,148.801 -37.371,76.266 -7.984,28.098 C29.57,26.145 26.828,19.707 50.359,-20.438 C55.566,-12.637 52.012,0.137 43.617,75.344"/>
  <path fill="rgb(80.392157%, 8.627451%, 45.490196%)" d="M55.164,-9.129 C31.18,60.473 122.785,128.496 44.598,257.297 C-188.797,220.602 -128.625,157.527 -117.434,128.984 C-11.543,1.062 -9.32,-6.625 -0.406,-22.516 C22.035,-24.059 23.043,-17.344 55.164,-9.129"/>
  <path fill="rgb(75.686275%, 10.980392%, 44.313725%)" opacity="0.271" d="M88.48,29.051 C89.129,73.074 96.641,97.969 53.23,65.359 C24.145,49.848 36.156,49.699 38.504,-2.617 C29.59,-38.422 27.215,-42.371 61.277,-36.02 C87.812,-28.176 86.332,-12.152 88.48,29.051"/>
  <path fill="rgb(100%, 100%, 18.823529%)" d="M332.055,202.082 C286.18,248.23 256.457,93.992 140.18,207.176 C116.789,291.855 58.637,264.418 79.441,246.02 C130.582,108.207 212.531,112.953 219.98,117.719 C187.879,120.891 284.805,76.781 332.055,202.082"/>
</svg>

