<svg xmlns="http://www.w3.org/2000/svg" width="384" height="384" viewBox="0 0 384 384">
  <defs/>
  <path fill="rgb(15.294118%, 99.607843%, 3.137255%)" opacity="0.224" d="M104.344,99.184 C106.148,136.273 94.637,117.754 14.355,119.301 C224.422,103.652 10.004,20.43 10.5,110.199 C119.078,115.996 98.008,116.227 104.34,76.312 C111.918,96.742 110.82,72.719 104.344,99.184"/>
  <path fill="rgb(0%, 8.235294%, 38.039216%)" opacity="0.985" d="M125.242,189.09 C75.797,166.629 205.59,159.746 95.582,214.586 C99.828,194.543 100.438,152.574 100.379,160.059 C94.449,132.543 96.398,151.848 27.184,139.742 C179.77,117.75 107.676,279.797 125.242,189.09"/>
  <path fill="rgb(3.137255%, 15.686275%, 17.647059%)" opacity="0.871" d="M38.113,198.266 C22.16,255.27 56.445,208.289 58.672,272.113 C-24.461,60.281 48.16,275.355 -27.746,429.938 C-66.199,161.031 10.043,137.141 83.281,124.668 C3.273,168.027 49.438,110.637 38.113,198.266"/>
  <path fill="rgb(0%, 59.215686%, 64.705882%)" opacity="0.732" d="M22.41,-2.945 C22.621,3.074 8.594,5.781 -5.754,1.707 C-2.039,7.246 -10.023,5.387 -12.367,0.508 C-10.66,-5.875 -5.973,-10.559 7.133,-18.645 C14.387,-18.672 14.922,-10.625 22.41,-2.945"/>
  <path fill="rgb(0.392157%, 3.921569%, 48.235294%)" opacity="0.97" d="M105.062,87.004 C114.027,56.559 102.484,70.539 47.75,64.48 C21.852,58.371 37.629,58.465 22.758,130.484 C-35.859,103.301 28.52,30.922 12.973,53.477 C45.023,45.234 137.195,40.598 105.062,87.004"/>
  <path fill="rgb(60.392157%, 78.431373%, 4.705882%)" opacity="0.964" d="M335.051,358.816 C328.742,504.586 286.48,444.277 183.191,401.551 C66.344,430.949 34.203,465.891 78.48,372.312 C93.273,268.086 20.684,244.996 174.664,278.535 C253.574,254.086 253.52,271.898 335.051,358.816"/>
  <path fill="rgb(3.921569%, 39.607843%, 100%)" opacity="0.475" d="M350.547,50.555 C300.039,224.238 316.004,256.484 108.25,212.391 C171.516,53.547 162.383,86.359 156.715,94.191 C155.18,83.883 141.777,5.727 221.156,-10.984 C316.121,-72.152 318.504,-103.414 350.547,50.555"/>
  <path fill="rgb(3.921569%, 80.784314%, 46.666667%)" opacity="0.894" d="M399.504,266.715 C338.367,280.586 487.258,233.555 384.336,388.191 C213.574,408.078 289.918,321.039 164.047,225.562 C107.328,53.832 206.719,-104.148 375.773,8.785 C420.676,70.816 463.82,151.906 399.504,266.715"/>
  <path fill="rgb(4.313725%, 1.568627%, 40%)" opacity="0.944" d="M140.422,242.113 C134.836,202.523 152.273,212.098 163.035,292.609 C85.531,266.031 106.191,281.398 120.434,253.902 C136.68,245.422 117.691,234.176 114.723,175.297 C145.266,239.66 125.852,237.727 140.422,242.113"/>
  <path fill="rgb(19.607843%, 62.745098%, 23.921569%)" opacity="0.967" d="M109.133,297.523 C158.988,372.18 130.465,414.59 -96.383,376.434 C12.637,241.312 23.18,236.883 41.777,268.945 C41.215,293.387 23.688,255.32 81.516,250.848 C89.316,305.281 55.711,217.043 109.133,297.523"/>
  <path fill="rgb(41.176471%, 88.627451%, 7.45098%)" opacity="0.683" d="M323.293,288.301 C330.957,319.238 334.672,303.887 293.883,325.715 C298.207,291.324 273.621,298.895 276.473,324.82 C230.777,322.992 247.816,282.68 268.324,273.422 C293.637,251.852 325.164,270.457 323.293,288.301"/>
  <path fill="rgb(18.039216%, 29.019608%, 70.980392%)" opacity="0.975" d="M105.102,229.16 C100.699,233.723 -8.492,202.105 53.957,265.016 C94.348,211.711 95.996,221.922 79.504,239.535 C86.566,211.18 78.141,223.383 58.133,245.805 C76.625,267.602 86.074,241.434 105.102,229.16"/>
  <path fill="rgb(0%, 4.705882%, 45.490196%)" opacity="0.987" d="M37.41,133.805 C31.32,140.297 57.426,186.184 39.84,220.574 C4.547,208.551 39.508,156.309 21.078,186.691 C48.355,184.25 8.934,87.637 -20.832,192.344 C45.348,178.973 36.957,206.668 37.41,133.805"/>
  <path fill="rgb(49.803922%, 80.392157%, 2.352941%)" opacity="0.598" d="M262.414,349.789 C277.141,312.07 367.238,440.414 284.613,423.547 C13.715,410.367 -30.977,344.98 144.051,353.227 C152.125,233.609 222.859,229.707 263.137,292.227 C283.035,265.395 232.449,344.836 262.414,349.789"/>
  <path fill="rgb(16.470588%, 7.058824%, 25.882353%)" opacity="0.667" d="M105.309,66.297 C120.348,100.547 87.422,166.727 103.332,99.484 C111.078,100.285 104.082,72.102 80.109,94.375 C118.906,120.688 92.66,51.324 114.531,91.102 C90.098,166.555 101.785,102.219 105.309,66.297"/>
  <path fill="rgb(19.607843%, 68.235294%, 73.72549%)" opacity="0.906" d="M435.277,120.68 C405.559,176.363 378.727,156.082 365.023,205.09 C280.273,157.191 302.211,132.18 261.34,111.59 C271.156,71.629 276.184,39.508 360.617,29.918 C415.539,33.566 424.266,94.762 435.277,120.68"/>
  <path fill="rgb(22.352941%, 69.411765%, 73.333333%)" opacity="0.961" d="M419.766,225.785 C408.297,250.926 403.039,250.605 377.512,246.465 C353.465,229.672 338.578,237.453 346.293,210.23 C330.434,197.645 330.336,180.09 373.539,172.848 C427.707,168.578 419.812,177.039 419.766,225.785"/>
  <path fill="rgb(74.117647%, 86.27451%, 23.529412%)" opacity="0.954" d="M1.469,-12.832 C-0.945,-6.738 -2.242,4.98 -2.684,13.617 C-5.551,10.781 -10.555,6.996 -12.273,0.617 C-10.559,-5.785 -5.875,-10.469 0.527,-12.184 C6.883,-10.461 10.172,-4.871 1.469,-12.832"/>
  <path fill="rgb(60.392157%, 90.980392%, 100%)" opacity="0.304" d="M32.152,-9.883 C18.242,3.816 4.211,0.926 -13.41,0.156 C-4.156,15.52 -10.559,6.922 -12.285,0.297 C-10.57,-6.105 -5.887,-10.789 6.18,-20.773 C21.312,-23.668 35.785,-31.934 32.152,-9.883"/>
  <path fill="rgb(40.784314%, 77.254902%, 0%)" opacity="0.449" d="M333.809,261.039 C339.305,274.656 337.75,265.824 327.883,277.625 C321.598,242.391 336.801,315.695 326.344,288.574 C303.191,234.949 307.492,214.598 338.652,167.336 C364.445,249.539 344.848,279.902 333.809,261.039"/>
  <path fill="rgb(40%, 19.215686%, 38.431373%)" opacity="0.935" d="M26.562,-1.484 C12.969,-3.879 -0.547,-3.008 -10.641,-0.195 C-11.02,16.863 -14.945,11.77 -13.211,2.668 C-10.461,-5.922 -5.777,-10.605 3.301,-14.117 C15.785,-18.129 20.68,-14.969 26.562,-1.484"/>
  <path fill="rgb(100%, 25.882353%, 23.921569%)" opacity="0.99" d="M214.457,193.969 C162.004,283.246 297.199,311.867 193.539,291.117 C181.441,255.82 177.496,231.742 172.289,201.488 C198.367,181.477 197.816,178.574 233.539,141.051 C244.227,159.281 233.797,169.648 214.457,193.969"/>
  <path fill="rgb(79.215686%, 60.784314%, 4.705882%)" opacity="0.807" d="M412.492,316.676 C380.25,341.727 399.02,348.949 325.492,346.191 C320.398,339.062 339.086,338.109 316.352,307.016 C307.434,304.445 369.082,315.273 390.555,310.145 C411.109,300.562 396.465,286.656 412.492,316.676"/>
  <path fill="rgb(98.823529%, 97.254902%, 99.215686%)" opacity="0.986" d="M149.043,158.738 C158.809,240.613 191,248.578 132.18,246.961 C110.414,182.516 117.941,195.195 135.047,168.316 C145.773,130.535 139.168,145.305 127.887,122.469 C164.434,148.129 158.215,133.379 149.043,158.738"/>
  <path fill="rgb(60.784314%, 72.156863%, 0%)" d="M394.617,352.457 C380.852,379.887 353.645,385.156 303.984,380.758 C291.887,374.684 291.414,379.793 273.566,348.656 C276.094,347.734 270.336,352.477 320.516,341.309 C333.637,302.211 343.738,294.59 394.617,352.457"/>
  <path fill="rgb(74.901961%, 49.019608%, 1.176471%)" opacity="0.896" d="M58.062,346.035 C62.828,381.324 63.938,388.574 6.441,388.695 C-15.094,379.23 -17.797,378.488 -36.289,353.242 C-6.152,353.617 27.703,350.859 21.629,359.391 C-3.082,350.387 19.785,344.762 58.062,346.035"/>
  <path fill="rgb(15.686275%, 71.764706%, 70.588235%)" d="M267.887,12.668 C375.898,-30.949 354.148,-65.148 332.047,168.133 C36.141,236.555 112.059,114.484 107.438,40.934 C108.102,-13.902 151.625,-38.918 132.227,-40.25 C177.219,-21.078 257.047,-38.34 267.887,12.668"/>
  <path fill="rgb(53.72549%, 81.960784%, 1.960784%)" opacity="0.855" d="M215.391,309.82 C167.023,331.891 224.465,352.426 142.434,374.344 C113.652,352.449 98.035,295.094 148.133,309.859 C147.906,288.152 153.07,252.262 158.977,279.344 C177.301,260.23 180.324,254.312 215.391,309.82"/>
  <path fill="rgb(49.803922%, 14.117647%, 25.490196%)" opacity="0.807" d="M2.211,-6.734 C-6.816,-1.477 -6.648,7.625 -2.836,6.062 C1.469,-0.551 -6.512,-1.242 -8.574,-6.734 C-10.512,-6.324 -5.824,-11.008 0.398,-12.477 C9.715,-13.59 12.93,-8.281 2.211,-6.734"/>
  <path fill="rgb(0.784314%, 4.313725%, 54.509804%)" opacity="0.991" d="M95.84,129.25 C27.461,135.566 70.32,148.078 91.297,119.578 C136.746,131.035 28.871,130.062 47.199,138.23 C70.684,164.336 84.078,116.723 65.27,134.551 C-83.617,114.883 129.52,115.875 95.84,129.25"/>
  <path fill="rgb(59.215686%, 70.196078%, 0%)" opacity="0.904" d="M301.379,352.625 C299.203,382.496 289.324,383.559 260.898,387.113 C257.418,370.316 262.844,349.422 250.875,325.363 C245.102,343.262 262.836,347.508 288.012,345.059 C270.84,342.801 290.117,339.137 301.379,352.625"/>
  <path fill="rgb(58.823529%, 72.941176%, 0%)" opacity="0.966" d="M270.965,380.258 C262.043,392.262 272.434,384.641 208.32,402.434 C95.539,421.789 -3.734,432.176 -14.152,348.383 C234.406,338.367 240.43,337.18 235.395,325.723 C268.16,337.949 263.09,354.977 270.965,380.258"/>
  <path fill="rgb(68.235294%, 62.352941%, 14.509804%)" opacity="0.236" d="M253.559,351.922 C258,352.012 253.5,342.578 238.734,338.543 C257.41,347.48 254.18,350.996 223.207,344.422 C232.652,321.398 247.789,318.629 260.234,339.141 C270.273,341.145 274.789,336.035 253.559,351.922"/>
  <path fill="rgb(85.490196%, 94.509804%, 0%)" opacity="0.958" d="M355.836,206.348 C357.672,245.625 344.309,329.129 291.871,280.238 C277.184,247.645 268.176,284.402 290.801,205.902 C317.52,155.16 324.781,157.887 327.875,158.391 C331.805,156.598 345.055,167.77 355.836,206.348"/>
  <path fill="rgb(9.803922%, 0%, 85.490196%)" opacity="0.385" d="M117.113,176.91 C123.289,162.008 111.863,170.055 113.266,167.215 C103.363,162.727 122.68,134.906 119.027,170.594 C112.789,138.887 109.5,149.676 110.176,159.301 C140.461,156.605 145.141,178.52 117.113,176.91"/>
  <path fill="rgb(18.039216%, 69.803922%, 70.980392%)" opacity="0.647" d="M424.828,70.922 C240.52,-42.168 290.039,71.492 285.176,111.566 C225.629,96.258 231.273,81.805 199.07,82.879 C212.18,27.926 243.355,2.957 300.652,-27.578 C354.828,-23.559 388.672,-0.152 424.828,70.922"/>
  <path fill="rgb(0%, 76.470588%, 55.294118%)" opacity="0.975" d="M212.938,105.551 C244.27,130.566 219.77,120.035 160.41,198.727 C142.102,162.957 66.293,163.582 154.113,90.793 C196.023,99.73 189.695,96.688 208.234,84.02 C197.816,82.906 194.684,97.898 212.938,105.551"/>
  <path fill="rgb(19.215686%, 67.45098%, 76.078431%)" opacity="0.839" d="M308.5,121.102 C271.207,173.363 301.086,181.855 226.168,169.215 C210.812,120.707 191.578,137.52 167.551,144.418 C164.996,106.812 130.262,80.266 186.961,64.68 C228.676,88.691 224.312,77.344 308.5,121.102"/>
  <path fill="rgb(0%, 0%, 52.941176%)" d="M144.02,181.586 C131.543,171.082 112.629,184.707 128.645,236.668 C101.43,158.293 109.328,169.191 104.035,152.469 C133.219,145.777 94.395,170.312 102.422,146.543 C150.285,134.203 131.781,181.09 144.02,181.586"/>
  <path fill="rgb(59.607843%, 71.372549%, 0%)" opacity="0.866" d="M400.227,356.57 C401.07,384.598 404.883,401.758 214.832,411.941 C191.379,392.652 227.18,385.48 354.359,366.816 C347.734,303.172 350.672,319.34 341.27,324.164 C400.73,316.25 395.691,312.129 400.227,356.57"/>
  <path fill="rgb(0%, 69.803922%, 36.862745%)" opacity="0.959" d="M46.352,14.129 C43.656,34.523 30.605,41.93 17.227,54.059 C-11.578,68.445 -24.922,61.773 -26.656,54.047 C-10.812,-6.066 -6.125,-10.754 16.383,-31.082 C23.5,-30.902 26.977,-25.941 46.352,14.129"/>
  <path fill="rgb(67.058824%, 65.490196%, 2.352941%)" opacity="0.923" d="M260.75,314.57 C237.965,333.703 278.102,339.719 219.137,335.379 C224.254,331.676 224.82,307.523 207.891,299.379 C205.215,291.648 207.449,293.734 247.305,285.07 C264.277,286.195 246.562,286.691 260.75,314.57"/>
  <path fill="rgb(72.941176%, 94.117647%, 0.784314%)" d="M234.371,153.645 C240.039,216.832 211.898,190.086 183.59,196.785 C150.27,191.027 138.914,172.258 187.215,193.852 C182.215,193.594 149.891,209.453 165.758,160.496 C224.375,104.051 228.824,105.164 234.371,153.645"/>
  <path fill="rgb(80.392157%, 90.196078%, 0%)" d="M234.109,180.016 C228.676,212.828 220.734,229.402 184.855,235.578 C167.758,226.539 141.73,216.914 156.293,158.672 C173.168,146.574 177.207,154.152 205.477,170.789 C206.074,152.07 224.039,152.992 234.109,180.016"/>
  <path fill="rgb(14.509804%, 72.941176%, 69.803922%)" opacity="0.339" d="M255.105,-12.109 C196.301,53.129 251.039,77.402 166.719,93.562 C135.203,64.66 147.965,0.555 205.312,6.152 C173.191,48.832 150.648,14.289 238.008,6.867 C170.625,23.52 218.879,-28.527 255.105,-12.109"/>
  <path fill="rgb(63.921569%, 96.862745%, 68.627451%)" opacity="0.986" d="M128.309,186.594 C129.023,197.262 122.77,211.457 109,196.375 C131.164,228.762 95.629,251.34 105.105,186.598 C113.195,185.465 118.156,215.02 124.363,184.785 C127.293,199.012 107.441,185.695 128.309,186.594"/>
  <path fill="rgb(1.568627%, 69.019608%, 56.078431%)" d="M187.699,231.906 C187.195,288.516 189.855,269.656 165.902,271.781 C158.438,247.633 145.852,237.199 140.996,214.266 C130.199,188.055 127.734,159.215 153.582,170.027 C146.281,219.695 179.816,233.918 187.699,231.906"/>
  <path fill="rgb(17.647059%, 68.235294%, 76.862745%)" d="M284.059,251.25 C279.164,235.117 284.473,272.383 291.359,282.402 C254.969,278.879 265.809,321.746 199.457,297.117 C184.93,223.707 258.68,196.25 273.914,202.512 C291.145,205.406 279.074,242.766 284.059,251.25"/>
  <path fill="rgb(73.333333%, 92.54902%, 93.333333%)" opacity="0.993" d="M119.949,269.488 C147.996,294.598 151.34,270.918 140.664,281.535 C137.223,249.312 138.609,279.031 116.773,295.504 C97.277,235.98 59.945,213.238 86.105,220.273 C144.113,216.816 114.578,248.961 119.949,269.488"/>
  <path fill="rgb(81.568627%, 92.54902%, 0%)" d="M230.414,123.512 C238.312,167.723 239,170.75 191.973,177.262 C143.844,177.809 153.07,164.348 163.375,135.41 C171.688,121.422 172.848,116.289 179.305,112.734 C197.832,76.957 212.027,78.559 230.414,123.512"/>
</svg>

