<svg xmlns="http://www.w3.org/2000/svg" width="384" height="384" viewBox="0 0 384 384">
  <defs/>
  <path fill="rgb(8.627451%, 0%, 17.254902%)" d="M151.828,305.398 C173.641,416.793 195.211,401.469 165.316,389.969 C-28.961,404.145 -31.688,396.934 -23.523,358.82 C-20.82,233.23 -18.289,226.684 12.023,186.246 C101.031,228.289 118.566,236.414 151.828,305.398"/>
  <path fill="rgb(6.666667%, 0%, 23.529412%)" d="M360.082,395.074 C385.055,391.961 373.961,396.184 196.543,415.809 C169.789,438.906 185.215,426.93 81.645,227.828 C102.316,218.875 152.742,261.59 289.07,231.246 C346.648,248.75 332.684,279.918 360.082,395.074"/>
  <path fill="rgb(8.235294%, 0.392157%, 20%)" opacity="0.995" d="M419.82,61.648 C407.984,285.777 395.617,286.488 356.445,276.164 C302.363,305.559 293.754,298.961 273.496,288.145 C307.398,80.152 284.691,102.875 108.938,16.566 C487.969,-63.285 440.266,-46.555 419.82,61.648"/>
  <path fill="rgb(7.843137%, 0%, 16.078431%)" opacity="0.997" d="M415.711,313.871 C403.336,364.711 412.324,382.508 351.484,430.285 C270.137,421.773 285.98,395.621 272.082,285.383 C290.125,255.641 284.98,260.277 362.488,262.035 C421.449,265.176 418.965,268.109 415.711,313.871"/>
  <path fill="rgb(6.666667%, 0%, 31.372549%)" opacity="0.281" d="M138.578,264.344 C202.102,303.562 189.852,300.379 64.672,278.035 C-0.934,249.621 -8.93,254.215 -26.355,46.996 C-87.305,-1.586 -108.977,-9.598 208.742,-43.508 C206.305,75.57 78.496,37.234 138.578,264.344"/>
  <path fill="rgb(8.235294%, 0%, 27.058824%)" d="M99.895,194.469 C120.859,282.109 131.457,200.148 94.418,249.875 C22.848,227.027 22.16,221.648 10.992,211.094 C29.887,149.93 39.434,129.828 50.328,166.555 C110.246,209.02 88.375,176.969 99.895,194.469"/>
  <path fill="rgb(8.235294%, 0%, 12.941176%)" opacity="0.874" d="M106.496,335.008 C112.215,403.422 118.195,401.629 38.168,403.32 C-1.441,376.797 -13.262,368.914 -29.391,321.07 C-43.223,233.332 -50.297,207.129 70.348,183.199 C93.375,268.484 91.184,286.777 106.496,335.008"/>
  <path fill="rgb(8.627451%, 0%, 13.333333%)" d="M216.012,68.105 C156.965,63.832 169,81.867 38.305,157.777 C61.023,44.969 93.504,0.742 -10.09,95.379 C-11.996,-95.793 44.555,-53.742 134.805,-39.027 C175.738,-25.098 182.836,-21.645 216.012,68.105"/>
  <path fill="rgb(0.784314%, 1.176471%, 40.784314%)" opacity="0.458" d="M232.043,70.945 C308.133,130.195 255.195,119.648 155.461,114.781 C91.676,84.426 112.367,118.434 133.812,66.543 C164.504,30.387 158.172,15.336 146.938,-2.215 C148.32,33.691 150.332,37.398 232.043,70.945"/>
  <path fill="rgb(8.627451%, 0%, 13.72549%)" d="M76.688,160.426 C74.883,237.078 87.461,197.766 6.285,209.504 C-13.207,227.238 -19.652,212.707 -50.727,149.738 C-52.586,85.102 -84.613,29.668 82.961,41.379 C-3.242,126.18 181.656,63.391 76.688,160.426"/>
  <path fill="rgb(21.960784%, 29.019608%, 24.705882%)" opacity="0.578" d="M8.891,-9.691 C1.492,-5.352 -4.664,3.793 -9.086,7.273 C-1.559,5.695 -1.969,-2.656 -3.391,-9.367 C-10.559,-5.785 -5.875,-10.469 4.172,-15.867 C11.645,-16.02 16.5,-11.379 8.891,-9.691"/>
  <path fill="rgb(31.372549%, 49.019608%, 18.039216%)" opacity="0.716" d="M-1.184,-15.695 C-1.695,-4.391 -3.809,0.926 -12.535,2.293 C-11.594,17.098 -15.695,12.18 -13.84,3.207 C-10.57,-6.105 -5.887,-10.789 0.512,-12.504 C6.223,-10.562 6.969,-2.371 -1.184,-15.695"/>
  <path fill="rgb(90.196078%, 89.803922%, 93.72549%)" opacity="0.719" d="M260.898,341.164 C142.031,358.352 191.852,320.504 198.066,358.852 C164.852,362.641 160.375,366.344 125.246,344.473 C166.285,282.02 130.312,377.859 166.363,225.055 C174.074,409.895 233.879,271.641 260.898,341.164"/>
  <path fill="rgb(72.941176%, 1.568627%, 33.333333%)" opacity="0.644" d="M1.051,-16.668 C-4.137,-3.355 -6.277,4.039 -3.746,11.898 C-4.695,7.48 -8.559,1.461 -6.723,-6.605 C-10.461,-5.922 -5.777,-10.605 5.184,-16.707 C11.453,-15.082 15.875,-10.145 1.051,-16.668"/>
  <path fill="rgb(83.921569%, 92.941176%, 88.235294%)" opacity="0.848" d="M237.359,312.062 C246.5,333.137 185.137,332.781 207.566,319.758 C210.945,274.188 205.641,252.762 226.203,276.574 C222.844,281.121 216.309,284.441 216.746,205.98 C225.758,233.266 230.879,297.434 237.359,312.062"/>
  <path fill="rgb(0.784314%, 10.980392%, 2.745098%)" d="M197.832,171.137 C193.754,189.367 181.332,204.27 155.859,201.273 C131.48,189.547 127.742,178.066 134.441,148.422 C138.406,147.848 144.141,134.672 158.293,130.715 C173.277,127.852 198.797,140.352 197.832,171.137"/>
  <path fill="rgb(12.941176%, 100%, 98.431373%)" opacity="0.999" d="M196.477,351.414 C295.281,325.609 276.836,365.621 200.617,347.23 C146.559,370.727 130.602,329.543 186.176,323.977 C153.617,311.75 152.254,325.668 165.434,321.965 C184.125,320.594 188.062,316.984 196.477,351.414"/>
  <path fill="rgb(8.627451%, 8.627451%, 7.058824%)" opacity="0.328" d="M16.039,-4.727 C15.699,-1.949 11.531,10.539 -3.711,6.508 C-6.227,9.84 -12.75,6.789 -15.207,1.996 C-10.512,-6.324 -5.824,-11.008 0.574,-12.723 C6.266,-10.781 7.078,-2.109 16.039,-4.727"/>
  <path fill="rgb(14.117647%, 0%, 28.627451%)" opacity="0.57" d="M12.355,-8.586 C-4.004,-12.039 -3.371,-0.52 -9.293,-0.59 C-0.441,3.273 -6.879,-1.473 -10.969,-4.047 C-10.66,-5.875 -5.973,-10.559 5.289,-18.184 C11.941,-16.391 15.68,-11.105 12.355,-8.586"/>
  <path fill="rgb(0%, 90.588235%, 42.352941%)" opacity="0.95" d="M306.277,193.629 C275.238,212.59 278.871,216.98 236.684,213.09 C219.012,172.762 227.5,142.457 249.418,135.758 C256.23,124.785 270.055,144.445 265.117,116.18 C268.352,157.492 309.922,88.871 306.277,193.629"/>
</svg>

