<svg xmlns="http://www.w3.org/2000/svg" width="384" height="384" viewBox="0 0 384 384">
  <defs/>
  <path fill="rgb(44.313725%, 35.686275%, 65.098039%)" opacity="0.799" d="M321.613,4.969 C321.18,133.566 303.344,129.828 112.27,257.23 C52.363,220.168 56.477,212.289 97.121,114.832 C109.93,-51.637 128.953,-32.859 182.164,-0.977 C284.266,-15.641 296.996,-17.742 321.613,4.969"/>
  <path fill="rgb(98.039216%, 95.686275%, 22.352941%)" opacity="0.75" d="M130.422,71.656 C119.191,103.223 139.434,142.273 32.547,283.715 C-133.277,286.852 -82.918,262.676 -29.332,132.816 C-10.359,-27.555 -1.98,-24.293 104.539,-33.664 C142.625,-57.773 133.047,-63.105 130.422,71.656"/>
  <path fill="rgb(1.176471%, 8.627451%, 97.254902%)" d="M401.594,58.582 C408.992,176.246 411.898,192.379 360.082,183.504 C278.789,149.352 254.996,152.078 233.699,89.137 C248.297,-0.605 234.02,-17.066 356.652,-17.02 C416.195,-5.758 408.941,6.992 401.594,58.582"/>
  <path fill="rgb(91.372549%, 64.705882%, 25.490196%)" opacity="0.822" d="M397.625,329.73 C503.195,371.18 536.578,386.484 170.879,393.395 C97.562,358.133 77.668,350.289 124.312,350.469 C294.961,116.742 296.254,125.066 278.117,172.172 C324.098,148.469 353.668,122.461 397.625,329.73"/>
  <path fill="rgb(89.411765%, 41.960784%, 42.745098%)" opacity="0.376" d="M256.141,129.02 C302.148,194.035 358.059,281.277 80.344,342.188 C31.32,359.512 18.836,347.578 16.031,273.703 C263.438,131.641 247.293,101.734 258.16,99.312 C264.066,88.332 267.656,81.383 256.141,129.02"/>
  <path fill="rgb(0%, 7.45098%, 99.607843%)" d="M273.875,96.629 C276.23,134.941 241.773,108.242 199.398,288.188 C93.594,132.723 45.25,132.551 164.836,85.977 C147.484,-23.074 150.375,-37.625 241.293,-24.176 C277.992,-20.055 271.062,-18.875 273.875,96.629"/>
  <path fill="rgb(0%, 19.607843%, 86.666667%)" opacity="0.872" d="M85.402,141.84 C107.09,143.738 58.793,93.289 63.617,164.238 C8.145,92.422 77.625,82.562 74.684,20.082 C10.996,18.27 3.047,29.965 25.297,41.574 C103.027,41.004 92.789,21.707 85.402,141.84"/>
  <path fill="rgb(49.803922%, 5.098039%, 30.980392%)" opacity="0.733" d="M397.16,225.801 C382.496,335.383 421.016,292.898 296.938,273.16 C217.125,250.895 195.023,331.156 219.551,202.508 C251.16,168.016 266.93,212.961 333.098,160.469 C398.875,157.305 409.402,160.629 397.16,225.801"/>
  <path fill="rgb(1.960784%, 17.647059%, 75.686275%)" opacity="0.989" d="M139.453,76.809 C116.832,122.383 67.598,47.27 52.633,106.16 C13.859,150.691 -18.617,138.254 -27.598,63.512 C-5.418,-19.086 8.961,-17.852 72.168,-25.801 C123.805,-26.082 136.301,-26.973 139.453,76.809"/>
  <path fill="rgb(26.666667%, 11.372549%, 58.823529%)" opacity="0.805" d="M415.633,166.445 C397.559,174.852 390.891,180.629 289.707,213.27 C284.43,184.516 247.484,155.199 237.305,155.238 C271.914,109.504 269.352,106.324 245.211,135.441 C277.41,163.516 307.988,139.922 415.633,166.445"/>
  <path fill="rgb(0%, 7.843137%, 100%)" d="M408.648,265.09 C403.258,332.637 387.73,276.863 281.57,285.363 C222.766,275.805 179.211,303.859 206.398,204.145 C306.645,250.926 302.621,220.82 171.234,123.629 C416.012,92.543 413.547,153.75 408.648,265.09"/>
  <path fill="rgb(0%, 8.627451%, 97.254902%)" d="M224.473,69.59 C104.645,120.109 115.414,113.105 70.27,69.711 C50.336,51.215 40.723,49.246 30.988,57.844 C48.828,30.711 51.457,19.758 76.543,-22.473 C127.508,-27.676 176.984,-50.328 224.473,69.59"/>
  <path fill="rgb(0%, 8.235294%, 99.607843%)" d="M88.879,64.746 C87.852,167.422 105.484,159.91 75.492,153.902 C37.086,236.422 18.102,179.539 -21.723,71.449 C6.336,31.199 16.066,36.703 58.824,25.676 C86.68,49.078 100.406,63.387 88.879,64.746"/>
  <path fill="rgb(1.568627%, 9.411765%, 96.862745%)" opacity="0.906" d="M72.031,-15.184 C57.781,22.617 61.07,42.961 26.871,45.688 C-13.422,51.461 -17.785,58.852 -18.895,28.656 C2.035,-17.215 19.457,-13.117 44.324,-10.332 C65.031,-9.148 75.625,-8.547 72.031,-15.184"/>
  <path fill="rgb(20.784314%, 39.215686%, 56.862745%)" opacity="0.065" d="M0.836,-16.262 C2.695,-5.859 -2.07,2.266 -10.574,0.934 C-13.621,17.371 -17.504,10.852 -14.285,3.484 C-10.57,-6.105 -5.887,-10.789 -11.004,-2.672 C-9.227,-0.359 -8.328,0.723 0.836,-16.262"/>
  <path fill="rgb(36.862745%, 1.960784%, 40%)" opacity="0.638" d="M13.191,-14.934 C13.156,-6.707 8.477,-0.395 -0.027,22.695 C-13.23,18.641 -17,11.199 -20.961,7.855 C-11.043,-5.93 -6.355,-10.617 0.297,-12.43 C9.879,-13.281 15.27,-10.105 13.191,-14.934"/>
  <path fill="rgb(49.411765%, 32.54902%, 52.156863%)" opacity="0.477" d="M51.578,151.902 C38.086,161.395 12.285,159.961 1.043,295.254 C10.504,279.457 24.039,232.258 -12.941,181.129 C-12.898,131.801 -24.836,145.668 22.934,142.105 C56.777,185.918 50.164,132.77 51.578,151.902"/>
  <path fill="rgb(49.803922%, 43.921569%, 29.411765%)" opacity="0.534" d="M49.887,203.75 C60.758,197.512 -10.051,250.031 124.59,219.789 C20.848,241.211 0.863,153.199 26.742,142.105 C14.648,145.926 8.816,162.699 55.676,151.637 C36.332,159.461 51.055,132.082 49.887,203.75"/>
  <path fill="rgb(100%, 89.411765%, 57.254902%)" d="M339.043,373.844 C124.539,417.441 99.461,400.137 45.758,396.426 C-1.785,398.422 -9.094,396.418 -35.961,350.93 C-24.852,265.684 -28.816,241.785 19.617,233.312 C161.23,276.336 249.18,223.039 339.043,373.844"/>
  <path fill="rgb(98.039216%, 80.392157%, 0.784314%)" opacity="0.993" d="M283.793,209.48 C297.555,222.766 270.762,238.07 248.719,202.785 C201.09,207.508 217.57,175.785 203.551,176.938 C134.93,172.91 199.52,175.871 258.363,145.887 C259.648,166.676 242.602,146.387 283.793,209.48"/>
  <path fill="rgb(0%, 8.235294%, 100%)" d="M59.344,212.195 C58.699,232.566 37.527,188.371 33.621,241.805 C28.508,297.355 -16.879,275.109 -82.297,244.598 C-41.191,144.094 -54.191,125.375 54.598,121.227 C77.836,141.102 73.629,163.441 59.344,212.195"/>
  <path fill="rgb(100%, 100%, 0%)" d="M136.668,111.363 C152.957,127.258 160.488,128.562 118.18,124.117 C89.551,131.762 95.918,132.75 91.609,121.238 C97.438,67.508 78.207,100.734 122.094,92.652 C164.344,110.898 146.848,96.355 136.668,111.363"/>
  <path fill="rgb(100%, 2.745098%, 0%)" opacity="0.953" d="M243.695,184.793 C256.586,196.34 252.629,184.988 240.383,155.598 C252.156,220.219 255.473,229.887 189.562,183.465 C206.805,124.16 235.809,167.613 257.566,144.734 C241.789,150.59 241.359,178.238 243.695,184.793"/>
  <path fill="rgb(92.54902%, 72.54902%, 33.333333%)" opacity="0.974" d="M411.531,361.203 C369.352,415.895 333.613,395.766 307.254,408.672 C289.336,411.711 242.742,466.086 94.664,365.395 C170.289,289.707 253.652,331.25 290.012,310.484 C366.281,340.25 401.105,321.84 411.531,361.203"/>
  <path fill="rgb(100%, 9.019608%, 0%)" opacity="0.995" d="M288.051,215.543 C303.562,266.258 294.746,251.461 250.652,221.496 C220.145,195.277 250.422,215.746 232.199,186.738 C222.902,143.617 243.227,146.215 259.66,163.754 C268.066,174.727 276.906,184.285 288.051,215.543"/>
  <path fill="rgb(99.607843%, 81.176471%, 43.137255%)" opacity="0.998" d="M167.336,212.793 C177.223,246.102 180.949,296.219 173.461,269.488 C115.492,275.656 103.91,274.965 91.262,207.77 C135.977,180.926 104.5,213.215 127.191,197.375 C147.363,247.395 136.059,206.625 167.336,212.793"/>
  <path fill="rgb(77.254902%, 5.490196%, 78.431373%)" opacity="0.544" d="M4.949,-9.508 C0.359,-4.41 -4.535,2.156 -7.617,7.289 C-5.609,10.668 -10.531,6.781 -12.25,0.395 C-10.535,-6.008 -5.852,-10.691 2.77,-15.105 C9.086,-12.656 14.652,-8.922 4.949,-9.508"/>
  <path fill="rgb(99.215686%, 81.176471%, 41.960784%)" opacity="0.776" d="M82.82,158.855 C144.914,185.453 117.516,194.844 124.836,198.305 C57.09,210.617 60.562,214.562 66.887,204.473 C90.195,191.465 44.633,166.266 108.824,150.707 C81.227,179.613 80.145,191.324 82.82,158.855"/>
  <path fill="rgb(100%, 87.843137%, 53.333333%)" opacity="0.674" d="M152.492,293.836 C141.047,204.105 151.668,230.285 156.309,250.047 C96.844,263.742 116.43,261.07 117.578,249.488 C123.906,240.652 125.324,237.77 165.73,243.879 C145.344,235.605 201.148,246.73 152.492,293.836"/>
  <path fill="rgb(47.843137%, 29.803922%, 10.980392%)" opacity="0.435" d="M155.672,215.852 C101.977,239.312 103.586,197.91 127.781,270.59 C99.523,225.629 124.391,209.555 83.047,233.965 C135.41,167.219 75.605,191.176 111.785,198.219 C153.977,187.969 125.734,197.5 155.672,215.852"/>
  <path fill="rgb(99.215686%, 7.058824%, 1.568627%)" opacity="0.975" d="M218.059,163.938 C214.238,207.281 222.531,191.695 196.078,186.148 C182.766,182.148 171.992,166.613 144.914,160.215 C151.438,156.074 174.93,148.109 201.363,149.145 C240.508,149.535 233.332,153.738 218.059,163.938"/>
  <path fill="rgb(96.470588%, 80.784314%, 37.647059%)" opacity="0.961" d="M130,241.766 C126.234,298.699 136.07,279.242 115.234,287.617 C115.922,268.512 115.812,242.895 67.59,234.656 C66.359,218.055 78.254,226.371 101.75,235.426 C132.758,218.078 130.223,194.297 130,241.766"/>
  <path fill="rgb(98.039216%, 67.45098%, 40.784314%)" opacity="0.161" d="M400.207,401.23 C356.934,409.352 341.02,396.582 338.117,381.625 C335.434,377.555 328.152,392.32 234.473,357.887 C304.23,347.289 330.586,367.539 339.223,367.48 C339.508,390.098 358.18,374.043 400.207,401.23"/>
  <path fill="rgb(100%, 84.705882%, 49.411765%)" opacity="0.984" d="M148.359,226.094 C129.516,232.578 97.703,226.062 118.117,255.395 C111.398,246.762 67.406,256.508 58.047,240.707 C56.453,187.184 70.254,198.23 117.977,178.277 C142.727,162.844 138.117,172.855 148.359,226.094"/>
  <path fill="rgb(98.431373%, 81.176471%, 38.431373%)" opacity="0.938" d="M128.969,245.758 C115.965,226.188 149.062,253.48 109.633,269.965 C85,269.816 17.621,252.898 38.414,220.555 C70.633,233.168 112.035,227.797 120.801,230.484 C137.734,234.145 137.801,230.141 128.969,245.758"/>
  <path fill="rgb(56.862745%, 11.764706%, 36.862745%)" opacity="0.571" d="M3.398,-12.527 C2.492,-1.867 -2.723,2.191 -19.238,1.488 C-2.547,7.141 -10.363,5.934 -12.348,0.312 C-10.633,-6.082 -5.949,-10.766 -2.785,-9.191 C-0.484,-3.254 4.504,0.801 3.398,-12.527"/>
  <path fill="rgb(100%, 80.392157%, 40.784314%)" d="M113.672,145.445 C115.266,147.059 124.383,180.848 115.34,201.82 C70.09,181.906 78.5,173.93 85.684,161.922 C87.453,161.098 82.48,146.371 88.617,161.754 C102.988,137.051 99.086,144.871 113.672,145.445"/>
  <path fill="rgb(64.705882%, 6.27451%, 46.27451%)" opacity="0.799" d="M4.152,-9.23 C-1.469,-6.566 -0.559,6.812 -3.578,13.207 C-13.062,16.891 -17.488,11.305 -12.746,1.531 C-10.512,-6.324 -5.824,-11.008 0.574,-12.723 C6.988,-11.012 13.957,-7.383 4.152,-9.23"/>
  <path fill="rgb(100%, 72.941176%, 7.843137%)" opacity="0.974" d="M209.281,239.449 C221.562,214.258 188.418,267.301 194.773,275.035 C222.852,233.684 209.316,212.312 204.812,255.656 C212.727,243.148 216.848,226.344 230.164,207.234 C217.023,198.035 203.645,257.914 209.281,239.449"/>
  <path fill="rgb(25.098039%, 46.27451%, 49.019608%)" opacity="0.75" d="M5.449,-9.18 C-1.48,-7.441 -4.051,0.969 -10.051,12.898 C-11.641,16.422 -15.781,11.023 -16.117,4.023 C-10.719,-6.316 -6.031,-11 -0.039,-12.547 C2.664,-7.371 6.676,-1.57 5.449,-9.18"/>
  <path fill="rgb(87.45098%, 70.196078%, 26.27451%)" opacity="0.849" d="M181.719,403.543 C103.629,404.039 89.949,398.305 61.277,412.848 C54.309,409.977 35.375,426.492 -35.992,345.648 C-8.664,283.066 16.305,325.941 146.273,332.41 C181.445,323.672 141.965,357.59 181.719,403.543"/>
  <path fill="rgb(41.568627%, 21.176471%, 0.392157%)" opacity="0.747" d="M119.262,256.312 C119.617,257.309 122.91,281.941 115.215,280.977 C90.773,282.125 95.988,292.031 101.691,240.668 C92.793,277.016 94.508,253.293 98.902,242.855 C116.609,233.926 121.168,256.988 119.262,256.312"/>
  <path fill="rgb(9.803922%, 9.019608%, 92.156863%)" opacity="0.139" d="M211.512,253.91 C217.246,268.77 222.402,264.406 219.594,266.141 C201.824,275.707 200.199,245.777 213.77,236.312 C229.316,245.695 221.246,249.695 223,241.609 C213.004,251.773 197.336,278.023 211.512,253.91"/>
  <path fill="rgb(14.509804%, 29.019608%, 73.72549%)" opacity="0.338" d="M15.379,3.316 C-8.664,4.727 -9.594,11.078 -22.875,16.898 C-5.109,10.359 -4.148,0.168 -5.102,-7.84 C-10.656,-6.059 -5.707,-11.062 24.336,0.484 C33.164,1.586 33.785,5.672 15.379,3.316"/>
  <path fill="rgb(0%, 8.235294%, 100%)" opacity="0.437" d="M160.25,219.434 C146.848,232.043 146.164,220.461 144.266,211.027 C143.664,226.02 145.098,210.281 143.363,187.297 C146.062,169.535 119.77,111.66 165.555,133.59 C183.895,143.281 112.887,160.086 160.25,219.434"/>
  <path fill="rgb(42.745098%, 5.098039%, 16.470588%)" opacity="0.874" d="M6.027,-14.066 C5.379,-2.539 -1.457,0.402 -13.043,4.449 C-9.996,15.949 -15.57,11.48 -14.848,3.645 C-11.062,-6.141 -6.375,-10.824 0.023,-12.539 C6.426,-10.824 11.109,-6.141 6.027,-14.066"/>
  <path fill="rgb(94.509804%, 89.019608%, 38.431373%)" opacity="0.813" d="M76.523,157.324 C90.062,159.082 107.949,147.691 107.285,150.852 C95.543,165.938 100.66,154.762 95.27,123.008 C88.438,180.91 103.977,155.789 70.137,162.238 C78.645,157.199 75.754,151.766 76.523,157.324"/>
  <path fill="rgb(35.294118%, 16.862745%, 14.509804%)" opacity="0.667" d="M-3.23,-2.773 C-1.367,20.18 2.555,31.477 -0.605,7.969 C-24.848,8.23 -18.73,2.742 -15.961,-4.344 C-10.629,-5.918 -5.945,-10.602 2.059,-12.984 C11.699,-15.168 16.555,-10.922 -3.23,-2.773"/>
  <path fill="rgb(12.941176%, 64.313725%, 63.529412%)" opacity="0.563" d="M2.457,-11.109 C-3.844,-5.695 -4.164,7.512 -3.953,8.547 C-21.016,10.914 -20.219,8.902 -14.559,4.059 C-10.66,-5.875 -5.973,-10.559 0.602,-12.328 C10.66,-13.16 16.82,-11.023 2.457,-11.109"/>
  <path fill="rgb(1.176471%, 13.333333%, 81.176471%)" opacity="0.793" d="M15.246,-13.441 C12.008,0.609 4.965,19.895 -9.051,27.496 C-20.543,31.129 -17.621,18.883 -14.465,6.535 C-10.461,-5.922 -5.777,-10.605 0.68,-13.5 C4.945,-8.594 11.152,-5.57 15.246,-13.441"/>
</svg>

