<svg xmlns="http://www.w3.org/2000/svg" width="384" height="384" viewBox="0 0 384 384">
  <defs/>
  <path fill="rgb(71.372549%, 83.137255%, 94.509804%)" opacity="0.492" d="M2.727,-13.121 C-0.691,-2.918 -5.426,2.934 -10.477,6.945 C-1.879,6.828 -10.168,5.148 -12.523,0.32 C-10.812,-6.066 -6.125,-10.754 5.816,-17.602 C12.402,-16.262 16.961,-11.465 2.727,-13.121"/>
  <path fill="rgb(21.568627%, 97.647059%, 100%)" opacity="0.462" d="M324.566,348.137 C330.156,429.961 321.32,426.746 233.68,437.133 C75.258,501.773 63.957,531.996 58.18,364.191 C130.23,222.832 116.953,209.348 175.219,204.336 C341.605,224.902 321.766,272.023 324.566,348.137"/>
  <path fill="rgb(10.588235%, 99.607843%, 100%)" opacity="0.35" d="M399.023,341.543 C393.5,399.531 385.742,400.078 351.223,401.172 C315.363,406.219 326.418,402.199 322.656,320.527 C318.734,259.848 321.082,259.895 351.035,286.047 C404.91,296.578 407.641,302.621 399.023,341.543"/>
  <path fill="rgb(56.862745%, 0%, 0%)" d="M389.359,237.211 C403.59,325.664 395.469,334.336 329.031,265 C264.863,289.324 196.617,313.941 132.859,191.004 C162.914,123.211 187.934,108.078 309.824,50.02 C396.816,59.234 381.711,140.727 389.359,237.211"/>
  <path fill="rgb(0%, 48.627451%, 63.529412%)" opacity="0.998" d="M358.094,169.863 C232.797,363.18 162.473,332.246 30.797,380.348 C-123.18,397.324 -81.336,367.055 -55.609,209.25 C-69.594,69.543 -88.348,55.824 61.016,-0.289 C209.793,21.152 247.469,26.539 358.094,169.863"/>
  <path fill="rgb(46.27451%, 56.078431%, 54.509804%)" opacity="0.83" d="M-1,-14.098 C-2.246,-6.777 -4.738,0.324 -11.59,2.949 C-11.195,16.754 -14.332,11.324 -12.441,0.77 C-10.57,-6.105 -5.887,-10.789 0.504,-12.5 C5.547,-10.262 6.605,-1.684 -1,-14.098"/>
  <path fill="rgb(59.215686%, 99.607843%, 100%)" opacity="0.179" d="M394.207,381.004 C353.344,426.578 308.492,410.254 235.594,424.492 C202.957,418.887 205.004,407.43 193.281,360.215 C200.57,320.254 217.676,322.457 299.215,322.168 C319.328,319.246 275.57,396.82 394.207,381.004"/>
  <path fill="rgb(6.666667%, 3.921569%, 0.392157%)" opacity="0.958" d="M70.391,282.395 C53.609,308.18 49.008,324.5 45.234,336.195 C39.109,334.531 34.969,314.301 33.668,310.148 C39.727,299.473 25.359,252.551 84.617,216.848 C107.973,187.648 95.344,246.777 70.391,282.395"/>
  <path fill="rgb(43.529412%, 95.686275%, 94.901961%)" opacity="0.209" d="M5.297,-10.801 C8.875,17.891 14.312,26.793 -4.328,22.797 C-3.867,7.684 -9.797,4.172 -12.773,-0.492 C-10.461,-5.922 -5.777,-10.605 7.633,-18.16 C14.594,-17.16 17.957,-11.383 5.297,-10.801"/>
  <path fill="rgb(100%, 89.803922%, 89.411765%)" d="M216.23,315.32 C236.367,346.238 224.969,365.133 225.773,360.43 C199.629,332.969 195.27,352.336 210.711,306.352 C-2.73,320.914 55.043,215.418 279.445,195.719 C263.391,272.844 177.938,288.332 216.23,315.32"/>
</svg>

