<svg xmlns="http://www.w3.org/2000/svg" viewBox="0 0 512 512" height="512.0px" width="512.0px">
<path id="" fill="#1A1A2E" fill-opacity="1.0"  filling="0" d="M0 0 C171 0 341 0 512 0 C512 171 512 341 512 512 C341 512 171 512 0 512 C0 341 0 171 0 0"></path>
<path id="" fill="#8B4513" fill-opacity="1.0"  filling="0" d="M50 450 C119 317 187 183 256 50 C325 183 393 317 462 450 C325 450 187 450 50 450"></path>
<path id="" fill="#4B0082" fill-opacity="1.0"  filling="0" d="M326 70 C326 78 319 86 305 91 C292 97 275 100 256 100 C237 100 220 97 207 91 C193 86 186 78 186 70 C186 62 193 54 207 49 C220 43 237 40 256 40 C275 40 292 43 305 49 C319 54 326 62 326 70"></path>
<path id="" fill="#FF4500" fill-opacity="1.0"  filling="0" d="M226 70 C235 157 237 250 230 350 C223 450 222 483 226 450 C226 323 226 197 226 70"></path>
<path id="" fill="#FF4500" fill-opacity="1.0"  filling="0" d="M286 70 C275 143 277 220 290 300 C303 380 302 430 286 450 C286 323 286 197 286 70"></path>
<path id="" fill="#A0522D" fill-opacity="1.0"  filling="0" d="M100 400 C107 397 113 393 120 390 C123 397 127 403 130 410 C120 407 110 403 100 400"></path>
<path id="" fill="#A0522D" fill-opacity="1.0"  filling="0" d="M200 300 C207 297 213 293 220 290 C223 297 227 303 230 310 C220 307 210 303 200 300"></path>
<path id="" fill="#A0522D" fill-opacity="1.0"  filling="0" d="M300 350 C307 347 313 343 320 340 C323 347 327 353 330 360 C320 357 310 353 300 350"></path>
<path id="" fill="#A0522D" fill-opacity="1.0"  filling="0" d="M400 400 C407 397 413 393 420 390 C423 397 427 403 430 410 C420 407 410 403 400 400"></path>
<path id="" fill="#FFA500" fill-opacity="1.0"  filling="0" d="M244 100 C244 101 244 102 243 103 C242 104 241 104 240 104 C239 104 238 104 237 103 C236 102 236 101 236 100 C236 99 236 98 237 97 C238 96 239 96 240 96 C241 96 242 96 243 97 C244 98 244 99 244 100"></path>
<path id="" fill="#FFA500" fill-opacity="1.0"  filling="0" d="M223 200 C223 201 223 202 222 202 C222 203 221 203 220 203 C219 203 218 203 218 202 C217 202 217 201 217 200 C217 199 217 198 218 198 C218 197 219 197 220 197 C221 197 222 197 222 198 C223 198 223 199 223 200"></path>
<path id="" fill="#FFA500" fill-opacity="1.0"  filling="0" d="M255 300 C255 301 254 303 254 304 C253 304 251 305 250 305 C249 305 247 304 246 304 C246 303 245 301 245 300 C245 299 246 297 246 296 C247 296 249 295 250 295 C251 295 253 296 254 296 C254 297 255 299 255 300"></path>
<path id="" fill="#FFA500" fill-opacity="1.0"  filling="0" d="M284 150 C284 151 284 152 283 153 C282 154 281 154 280 154 C279 154 278 154 277 153 C276 152 276 151 276 150 C276 149 276 148 277 147 C278 146 279 146 280 146 C281 146 282 146 283 147 C284 148 284 149 284 150"></path>
<path id="" fill="#FFA500" fill-opacity="1.0"  filling="0" d="M263 350 C263 351 263 352 262 352 C262 353 261 353 260 353 C259 353 258 353 258 352 C257 352 257 351 257 350 C257 349 257 348 258 348 C258 347 259 347 260 347 C261 347 262 347 262 348 C263 348 263 349 263 350"></path>
<path id="" fill="#4B4B4B" fill-opacity="0.8"  filling="0" d="M436 40 C436 61 417 82 383 97 C350 112 304 120 256 120 C208 120 162 112 129 97 C95 82 76 61 76 40 C76 19 95 -2 129 -17 C162 -32 208 -40 256 -40 C304 -40 350 -32 383 -17 C417 -2 436 19 436 40"></path>
<path id="" fill="#696969" fill-opacity="0.7"  filling="0" d="M320 30 C320 46 307 61 285 72 C262 84 232 90 200 90 C168 90 138 84 115 72 C93 61 80 46 80 30 C80 14 93 -1 115 -12 C138 -24 168 -30 200 -30 C232 -30 262 -24 285 -12 C307 -1 320 14 320 30"></path>
<path id="" fill="#808080" fill-opacity="0.6"  filling="0" d="M440 50 C440 69 425 86 399 99 C373 113 337 120 300 120 C263 120 227 113 201 99 C175 86 160 69 160 50 C160 31 175 14 201 1 C227 -13 263 -20 300 -20 C337 -20 373 -13 399 1 C425 14 440 31 440 50"></path>
<path id="" fill="#A9A9A9" fill-opacity="0.5"  filling="0" d="M100 20 C167 -7 233 -10 300 10 C367 30 417 40 450 40 C333 33 217 27 100 20"></path></svg>