<svg xmlns="http://www.w3.org/2000/svg" viewBox="0 0 512 512" height="512.0px" width="512.0px">
<path id="" fill="#000033" fill-opacity="1.0"  filling="0" d="M0 0 C171 0 341 0 512 0 C512 171 512 341 512 512 C341 512 171 512 0 512 C0 341 0 171 0 0"></path>
<path id="" fill="#ffffff" fill-opacity="1.0"  filling="0" d="M52 60 C52 61 52 61 51 61 C51 62 51 62 50 62 C49 62 49 62 49 61 C48 61 48 61 48 60 C48 59 48 59 49 59 C49 58 49 58 50 58 C51 58 51 58 51 59 C52 59 52 59 52 60"></path>
<path id="" fill="#ffffff" fill-opacity="1.0"  filling="0" d="M121 40 C121 40 121 41 121 41 C121 41 120 41 120 41 C120 41 119 41 119 41 C119 41 119 40 119 40 C119 40 119 39 119 39 C119 39 120 39 120 39 C120 39 121 39 121 39 C121 39 121 40 121 40"></path>
<path id="" fill="#ffffff" fill-opacity="1.0"  filling="0" d="M202 80 C202 81 202 81 201 81 C201 82 201 82 200 82 C199 82 199 82 199 81 C198 81 198 81 198 80 C198 79 198 79 199 79 C199 78 199 78 200 78 C201 78 201 78 201 79 C202 79 202 79 202 80"></path>
<path id="" fill="#ffffff" fill-opacity="1.0"  filling="0" d="M301 30 C301 30 301 31 301 31 C301 31 300 31 300 31 C300 31 299 31 299 31 C299 31 299 30 299 30 C299 30 299 29 299 29 C299 29 300 29 300 29 C300 29 301 29 301 29 C301 29 301 30 301 30"></path>
<path id="" fill="#ffffff" fill-opacity="1.0"  filling="0" d="M402 70 C402 71 402 71 401 71 C401 72 401 72 400 72 C399 72 399 72 399 71 C398 71 398 71 398 70 C398 69 398 69 399 69 C399 68 399 68 400 68 C401 68 401 68 401 69 C402 69 402 69 402 70"></path>
<path id="" fill="#ffffff" fill-opacity="1.0"  filling="0" d="M481 50 C481 50 481 51 481 51 C481 51 480 51 480 51 C480 51 479 51 479 51 C479 51 479 50 479 50 C479 50 479 49 479 49 C479 49 480 49 480 49 C480 49 481 49 481 49 C481 49 481 50 481 50"></path>
<path id="" fill="#ffffff" fill-opacity="1.0"  filling="0" d="M102 150 C102 151 102 151 101 151 C101 152 101 152 100 152 C99 152 99 152 99 151 C98 151 98 151 98 150 C98 149 98 149 99 149 C99 148 99 148 100 148 C101 148 101 148 101 149 C102 149 102 149 102 150"></path>
<path id="" fill="#ffffff" fill-opacity="1.0"  filling="0" d="M251 120 C251 120 251 121 251 121 C251 121 250 121 250 121 C250 121 249 121 249 121 C249 121 249 120 249 120 C249 120 249 119 249 119 C249 119 250 119 250 119 C250 119 251 119 251 119 C251 119 251 120 251 120"></path>
<path id="" fill="#ffffff" fill-opacity="1.0"  filling="0" d="M352 180 C352 181 352 181 351 181 C351 182 351 182 350 182 C349 182 349 182 349 181 C348 181 348 181 348 180 C348 179 348 179 349 179 C349 178 349 178 350 178 C351 178 351 178 351 179 C352 179 352 179 352 180"></path>
<path id="" fill="#ffffff" fill-opacity="1.0"  filling="0" d="M451 140 C451 140 451 141 451 141 C451 141 450 141 450 141 C450 141 449 141 449 141 C449 141 449 140 449 140 C449 140 449 139 449 139 C449 139 450 139 450 139 C450 139 451 139 451 139 C451 139 451 140 451 140"></path>
<path id="" fill="#ff6600" fill-opacity="1.0"  filling="0" d="M490 100 C490 111 486 121 478 128 C471 136 461 140 450 140 C439 140 429 136 422 128 C414 121 410 111 410 100 C410 89 414 79 422 72 C429 64 439 60 450 60 C461 60 471 64 478 72 C486 79 490 89 490 100"></path>
<path id="" fill="#0066cc" fill-opacity="1.0"  filling="0" d="M0 480 C171 467 341 467 512 480 C341 480 171 480 0 480"></path>
<path id="" fill="#c0c0c0" fill-opacity="1.0"  filling="0" d="M141 175 C201 175 261 175 321 175 C330 175 339 179 346 185 C352 192 356 201 356 210 C356 219 352 228 346 235 C339 241 330 245 321 245 C261 245 201 245 141 245 C132 245 123 241 116 235 C110 228 106 219 106 210 C106 201 110 192 116 185 C123 179 132 175 141 175"></path>
<path id="" fill="#a0a0a0" fill-opacity="1.0"  filling="0" d="M356 175 C373 187 389 198 406 210 C389 222 373 233 356 245 C356 222 356 198 356 175"></path>
<path id="" fill="#a0a0a0" fill-opacity="1.0"  filling="0" d="M202 223 C185 240 168 256 152 273 C185 268 218 263 252 258 C235 246 218 235 202 223"></path>
<path id="" fill="#a0a0a0" fill-opacity="1.0"  filling="0" d="M202 131 C218 148 235 165 252 181 C218 176 185 171 152 166 C168 155 185 143 202 131"></path>
<path id="" fill="#3366ff" fill-opacity="1.0"  filling="0" d="M121 195 C121 199 119 203 117 206 C114 208 110 210 106 210 C102 210 98 208 95 206 C93 203 91 199 91 195 C91 191 93 187 95 184 C98 182 102 180 106 180 C110 180 114 182 117 184 C119 187 121 191 121 195"></path>
<path id="" fill="#3366ff" fill-opacity="1.0"  filling="0" d="M121 210 C121 214 119 218 117 221 C114 223 110 225 106 225 C102 225 98 223 95 221 C93 218 91 214 91 210 C91 206 93 202 95 199 C98 197 102 195 106 195 C110 195 114 197 117 199 C119 202 121 206 121 210"></path>
<path id="" fill="#3366ff" fill-opacity="1.0"  filling="0" d="M121 225 C121 229 119 233 117 236 C114 238 110 240 106 240 C102 240 98 238 95 236 C93 233 91 229 91 225 C91 221 93 217 95 214 C98 212 102 210 106 210 C110 210 114 212 117 214 C119 217 121 221 121 225"></path>
<path id="" fill="#66ccff" fill-opacity="1.0"  filling="0" d="M106 199 C72 196 39 192 6 189 C6 186 6 184 6 181 C40 184 73 188 106 191 C106 194 106 196 106 199"></path>
<path id="" fill="#66ccff" fill-opacity="1.0"  filling="0" d="M106 214 C73 214 39 214 6 214 C6 211 6 209 6 206 C39 206 73 206 106 206 C106 209 106 211 106 214"></path>
<path id="" fill="#66ccff" fill-opacity="1.0"  filling="0" d="M106 229 C73 232 40 236 6 239 C6 236 6 234 6 231 C39 228 72 224 106 221 C106 224 106 226 106 229"></path></svg>