<svg xmlns="http://www.w3.org/2000/svg" viewBox="0 0 512 512" height="512.0px" width="512.0px">
<path id="" fill="#FFD700" fill-opacity="1.0" stroke="#000000" stroke-width="0.0" stroke-opacity="1.0" stroke-linecap="round" stroke-linejoin="round"  filling="0" d="M346.000000 300.000000 C346.000000 318.558044 336.511414 336.374969 319.639618 349.497467 C302.767822 362.619965 279.860321 370.000000 256.000000 370.000000 C232.139664 370.000000 209.232178 362.619965 192.360382 349.497467 C175.488586 336.374969 166.000000 318.558044 166.000000 300.000000 C166.000000 281.441956 175.488586 263.625031 192.360382 250.502533 C209.232178 237.380020 232.139664 230.000000 256.000000 230.000000 C279.860321 230.000000 302.767822 237.380020 319.639618 250.502533 C336.511414 263.625031 346.000000 281.441956 346.000000 300.000000"></path>
<path id="" fill="#FFD700" fill-opacity="1.0" stroke="#000000" stroke-width="0.0" stroke-opacity="1.0" stroke-linecap="round" stroke-linejoin="round"  filling="0" d="M326.000000 200.000000 C326.000000 218.558029 318.619965 236.374954 305.497467 249.497467 C292.374969 262.619965 274.558044 270.000000 256.000000 270.000000 C237.441971 270.000000 219.625046 262.619965 206.502533 249.497467 C193.380020 236.374954 186.000000 218.558029 186.000000 200.000000 C186.000000 181.441971 193.380020 163.625046 206.502533 150.502533 C219.625046 137.380020 237.441971 130.000000 256.000000 130.000000 C274.558044 130.000000 292.374969 137.380020 305.497467 150.502533 C318.619965 163.625046 326.000000 181.441971 326.000000 200.000000"></path>
<path id="" fill="#FFD700" fill-opacity="1.0" stroke="#000000" stroke-width="0.0" stroke-opacity="1.0" stroke-linecap="round" stroke-linejoin="round"  filling="0" d="M186.000000 160.000000 C192.666672 173.333328 199.333328 186.666672 206.000000 200.000000 C212.666672 193.333328 219.333328 186.666672 226.000000 180.000000 C212.666672 173.333328 199.333328 166.666672 186.000000 160.000000"></path>
<path id="" fill="#FFD700" fill-opacity="1.0" stroke="#000000" stroke-width="0.0" stroke-opacity="1.0" stroke-linecap="round" stroke-linejoin="round"  filling="0" d="M286.000000 180.000000 C292.666656 186.666672 299.333344 193.333328 306.000000 200.000000 C312.666656 186.666672 319.333344 173.333328 326.000000 160.000000 C312.666656 166.666672 299.333344 173.333328 286.000000 180.000000"></path>
<path id="" fill="#FFD700" fill-opacity="1.0" stroke="#000000" stroke-width="0.0" stroke-opacity="1.0" stroke-linecap="round" stroke-linejoin="round"  filling="0" d="M206.000000 340.000000 C214.333328 340.000000 222.666672 340.000000 231.000000 340.000000 C231.000000 366.666656 231.000000 393.333344 231.000000 420.000000 C222.666672 420.000000 214.333328 420.000000 206.000000 420.000000 C206.000000 393.333344 206.000000 366.666656 206.000000 340.000000"></path>
<path id="" fill="#FFD700" fill-opacity="1.0" stroke="#000000" stroke-width="0.0" stroke-opacity="1.0" stroke-linecap="round" stroke-linejoin="round"  filling="0" d="M241.000000 340.000000 C249.333328 340.000000 257.666656 340.000000 266.000000 340.000000 C266.000000 366.666656 266.000000 393.333344 266.000000 420.000000 C257.666656 420.000000 249.333328 420.000000 241.000000 420.000000 C241.000000 393.333344 241.000000 366.666656 241.000000 340.000000"></path>
<path id="" fill="#FFD700" fill-opacity="1.0" stroke="#000000" stroke-width="0.0" stroke-opacity="1.0" stroke-linecap="round" stroke-linejoin="round"  filling="0" d="M276.000000 340.000000 C284.333344 340.000000 292.666656 340.000000 301.000000 340.000000 C301.000000 366.666656 301.000000 393.333344 301.000000 420.000000 C292.666656 420.000000 284.333344 420.000000 276.000000 420.000000 C276.000000 393.333344 276.000000 366.666656 276.000000 340.000000"></path>
<path id="" fill="#FFD700" fill-opacity="1.0" stroke="#000000" stroke-width="0.0" stroke-opacity="1.0" stroke-linecap="round" stroke-linejoin="round"  filling="0" d="M311.000000 340.000000 C319.333344 340.000000 327.666656 340.000000 336.000000 340.000000 C336.000000 366.666656 336.000000 393.333344 336.000000 420.000000 C327.666656 420.000000 319.333344 420.000000 311.000000 420.000000 C311.000000 393.333344 311.000000 366.666656 311.000000 340.000000"></path>
<path id="" fill="#FFD700" fill-opacity="1.0" stroke="#000000" stroke-width="0.0" stroke-opacity="1.0" stroke-linecap="round" stroke-linejoin="round"  filling="0" d="M333.226990 295.839996 C350.778320 284.138672 356.878662 272.937317 351.528015 262.235992 C343.786652 246.753998 347.431976 231.496674 362.463989 216.464005 C364.821320 218.821335 367.178680 221.178665 369.536011 223.535995 C357.901337 235.169998 354.880005 246.579330 360.471985 257.764008 C368.454681 273.729340 361.221680 289.194672 338.773010 304.160004 C336.924347 301.386658 335.075653 298.613342 333.226990 295.839996"></path>
<path id="" fill="#000000" fill-opacity="1.0" stroke="#000000" stroke-width="0.0" stroke-opacity="1.0" stroke-linecap="round" stroke-linejoin="round"  filling="0" d="M246.000000 190.000000 C246.000000 192.651154 244.945724 195.196426 243.071075 197.071075 C241.196426 198.945724 238.651154 200.000000 236.000000 200.000000 C233.348846 200.000000 230.803574 198.945724 228.928925 197.071075 C227.054276 195.196426 226.000000 192.651154 226.000000 190.000000 C226.000000 187.348846 227.054276 184.803574 228.928925 182.928925 C230.803574 181.054276 233.348846 180.000000 236.000000 180.000000 C238.651154 180.000000 241.196426 181.054276 243.071075 182.928925 C244.945724 184.803574 246.000000 187.348846 246.000000 190.000000"></path>
<path id="" fill="#000000" fill-opacity="1.0" stroke="#000000" stroke-width="0.0" stroke-opacity="1.0" stroke-linecap="round" stroke-linejoin="round"  filling="0" d="M286.000000 190.000000 C286.000000 192.651154 284.945709 195.196426 283.071075 197.071075 C281.196442 198.945724 278.651154 200.000000 276.000000 200.000000 C273.348846 200.000000 270.803558 198.945724 268.928925 197.071075 C267.054291 195.196426 266.000000 192.651154 266.000000 190.000000 C266.000000 187.348846 267.054291 184.803574 268.928925 182.928925 C270.803558 181.054276 273.348846 180.000000 276.000000 180.000000 C278.651154 180.000000 281.196442 181.054276 283.071075 182.928925 C284.945709 184.803574 286.000000 187.348846 286.000000 190.000000"></path>
<path id="" fill="#000000" fill-opacity="1.0" stroke="#000000" stroke-width="0.0" stroke-opacity="1.0" stroke-linecap="round" stroke-linejoin="round"  filling="0" d="M271.000000 220.000000 C271.000000 222.651154 269.418579 225.196426 266.606598 227.071075 C263.794617 228.945724 259.976715 230.000000 256.000000 230.000000 C252.023285 230.000000 248.205368 228.945724 245.393402 227.071075 C242.581436 225.196426 241.000000 222.651154 241.000000 220.000000 C241.000000 217.348846 242.581436 214.803574 245.393402 212.928925 C248.205368 211.054276 252.023285 210.000000 256.000000 210.000000 C259.976715 210.000000 263.794617 211.054276 266.606598 212.928925 C269.418579 214.803574 271.000000 217.348846 271.000000 220.000000"></path>
<path id="" fill="#dbd6d6" fill-opacity="1.0" stroke="#000000" stroke-width="0.0" stroke-opacity="1.0" stroke-linecap="round" stroke-linejoin="round"  filling="0" d="M206.000000 80.000000 C239.333344 80.000000 272.666656 80.000000 306.000000 80.000000 C306.000000 100.000000 306.000000 120.000000 306.000000 140.000000 C272.666656 140.000000 239.333344 140.000000 206.000000 140.000000 C206.000000 120.000000 206.000000 100.000000 206.000000 80.000000"></path>
<path id="" fill="#dbd6d6" fill-opacity="1.0" stroke="#000000" stroke-width="0.0" stroke-opacity="1.0" stroke-linecap="round" stroke-linejoin="round"  filling="0" d="M316.000000 60.000000 C316.000000 66.627869 309.674255 72.991058 298.426392 77.677673 C287.178528 82.364288 271.906891 85.000000 256.000000 85.000000 C240.093109 85.000000 224.821457 82.364288 213.573593 77.677673 C202.325729 72.991058 196.000000 66.627869 196.000000 60.000000 C196.000000 53.372131 202.325729 47.008942 213.573593 42.322330 C224.821457 37.635719 240.093109 35.000000 256.000000 35.000000 C271.906891 35.000000 287.178528 37.635719 298.426392 42.322330 C309.674255 47.008942 316.000000 53.372131 316.000000 60.000000"></path>
<path id="" fill="#dbd6d6" fill-opacity="1.0" stroke="#000000" stroke-width="0.0" stroke-opacity="1.0" stroke-linecap="round" stroke-linejoin="round"  filling="0" d="M196.000000 140.000000 C236.000000 140.000000 276.000000 140.000000 316.000000 140.000000 C316.000000 143.333328 316.000000 146.666672 316.000000 150.000000 C276.000000 150.000000 236.000000 150.000000 196.000000 150.000000 C196.000000 146.666672 196.000000 143.333328 196.000000 140.000000"></path>
</svg>