<svg xmlns="http://www.w3.org/2000/svg" viewBox="0 0 512 512" height="512.0px" width="512.0px">
<path id="" fill="#8B4513" fill-opacity="1.0" stroke="#000000" stroke-width="0.0" stroke-opacity="1.0" stroke-linecap="round" stroke-linejoin="round"  filling="0" d="M306.000000 150.000000 C306.000000 163.255737 300.728577 175.982117 291.355347 185.355347 C281.982117 194.728577 269.255737 200.000000 256.000000 200.000000 C242.744263 200.000000 230.017883 194.728577 220.644653 185.355347 C211.271423 175.982117 206.000000 163.255737 206.000000 150.000000 C206.000000 136.744263 211.271423 124.017883 220.644653 114.644661 C230.017883 105.271439 242.744263 100.000000 256.000000 100.000000 C269.255737 100.000000 281.982117 105.271439 291.355347 114.644661 C300.728577 124.017883 306.000000 136.744263 306.000000 150.000000"></path>
<path id="" fill="#FFD700" fill-opacity="1.0" stroke="#000000" stroke-width="0.0" stroke-opacity="1.0" stroke-linecap="round" stroke-linejoin="round"  filling="0" d="M271.000000 95.000000 C271.000000 102.953445 269.418579 110.589272 266.606598 116.213203 C263.794617 121.837135 259.976715 125.000000 256.000000 125.000000 C252.023285 125.000000 248.205368 121.837135 245.393402 116.213203 C242.581436 110.589272 241.000000 102.953445 241.000000 95.000000 C241.000000 87.046555 242.581436 79.410728 245.393402 73.786797 C248.205368 68.162865 252.023285 65.000000 256.000000 65.000000 C259.976715 65.000000 263.794617 68.162865 266.606598 73.786797 C269.418579 79.410728 271.000000 87.046555 271.000000 95.000000"></path>
<path id="" fill="#FFD700" fill-opacity="1.0" stroke="#000000" stroke-width="0.0" stroke-opacity="1.0" stroke-linecap="round" stroke-linejoin="round"  filling="0" d="M296.489990 109.869003 C288.205994 124.217003 275.674011 132.492004 268.500000 128.348999 C261.325989 124.207001 262.225006 109.217003 270.510010 94.869003 C278.794006 80.519997 291.325989 72.246002 298.500000 76.388000 C305.674011 80.529999 304.774994 95.519997 296.489990 109.869003"></path>
<path id="" fill="#FFD700" fill-opacity="1.0" stroke="#000000" stroke-width="0.0" stroke-opacity="1.0" stroke-linecap="round" stroke-linejoin="round"  filling="0" d="M311.131012 135.490005 C296.782990 143.774994 281.792999 144.673996 277.651001 137.500000 C273.507996 130.326004 281.782990 117.793999 296.131012 109.510002 C310.480011 101.224998 325.470001 100.325996 329.612000 107.500000 C333.753998 114.674004 325.480011 127.206001 311.131012 135.490005"></path>
<path id="" fill="#FFD700" fill-opacity="1.0" stroke="#000000" stroke-width="0.0" stroke-opacity="1.0" stroke-linecap="round" stroke-linejoin="round"  filling="0" d="M311.000000 165.000000 C294.431000 165.000000 281.000000 158.283997 281.000000 150.000000 C281.000000 141.716003 294.431000 135.000000 311.000000 135.000000 C327.569000 135.000000 341.000000 141.716003 341.000000 150.000000 C341.000000 158.283997 327.569000 165.000000 311.000000 165.000000"></path>
<path id="" fill="#FFD700" fill-opacity="1.0" stroke="#000000" stroke-width="0.0" stroke-opacity="1.0" stroke-linecap="round" stroke-linejoin="round"  filling="0" d="M296.131012 190.490005 C281.782990 182.205994 273.507996 169.673996 277.651001 162.500000 C281.792999 155.326004 296.782990 156.225006 311.131012 164.509995 C325.480011 172.794006 333.753998 185.326004 329.612000 192.500000 C325.470001 199.673996 310.480011 198.774994 296.131012 190.490005"></path>
<path id="" fill="#FFD700" fill-opacity="1.0" stroke="#000000" stroke-width="0.0" stroke-opacity="1.0" stroke-linecap="round" stroke-linejoin="round"  filling="0" d="M270.510010 205.130997 C262.225006 190.783005 261.325989 175.792999 268.500000 171.651001 C275.674011 167.507996 288.205994 175.783005 296.489990 190.130997 C304.774994 204.479996 305.674011 219.470001 298.500000 223.612000 C291.325989 227.753998 278.794006 219.479996 270.510010 205.130997"></path>
<path id="" fill="#FFD700" fill-opacity="1.0" stroke="#000000" stroke-width="0.0" stroke-opacity="1.0" stroke-linecap="round" stroke-linejoin="round"  filling="0" d="M241.000000 205.000000 C241.000000 188.431000 247.716003 175.000000 256.000000 175.000000 C264.283997 175.000000 271.000000 188.431000 271.000000 205.000000 C271.000000 221.569000 264.283997 235.000000 256.000000 235.000000 C247.716003 235.000000 241.000000 221.569000 241.000000 205.000000"></path>
<path id="" fill="#FFD700" fill-opacity="1.0" stroke="#000000" stroke-width="0.0" stroke-opacity="1.0" stroke-linecap="round" stroke-linejoin="round"  filling="0" d="M215.509995 190.130997 C223.794006 175.783005 236.326004 167.507996 243.500000 171.651001 C250.673996 175.792999 249.774994 190.783005 241.490005 205.130997 C233.205994 219.479996 220.673996 227.753998 213.500000 223.612000 C206.326004 219.470001 207.225006 204.479996 215.509995 190.130997"></path>
<path id="" fill="#FFD700" fill-opacity="1.0" stroke="#000000" stroke-width="0.0" stroke-opacity="1.0" stroke-linecap="round" stroke-linejoin="round"  filling="0" d="M200.869003 164.509995 C215.216995 156.225006 230.207001 155.326004 234.348999 162.500000 C238.492004 169.673996 230.216995 182.205994 215.869003 190.490005 C201.520004 198.774994 186.529999 199.673996 182.388000 192.500000 C178.246002 185.326004 186.520004 172.794006 200.869003 164.509995"></path>
<path id="" fill="#FFD700" fill-opacity="1.0" stroke="#000000" stroke-width="0.0" stroke-opacity="1.0" stroke-linecap="round" stroke-linejoin="round"  filling="0" d="M201.000000 135.000000 C217.569000 135.000000 231.000000 141.716003 231.000000 150.000000 C231.000000 158.283997 217.569000 165.000000 201.000000 165.000000 C184.431000 165.000000 171.000000 158.283997 171.000000 150.000000 C171.000000 141.716003 184.431000 135.000000 201.000000 135.000000"></path>
<path id="" fill="#FFD700" fill-opacity="1.0" stroke="#000000" stroke-width="0.0" stroke-opacity="1.0" stroke-linecap="round" stroke-linejoin="round"  filling="0" d="M215.869003 109.510002 C230.216995 117.793999 238.492004 130.326004 234.348999 137.500000 C230.207001 144.673996 215.216995 143.774994 200.869003 135.490005 C186.520004 127.206001 178.246002 114.674004 182.388000 107.500000 C186.529999 100.325996 201.520004 101.224998 215.869003 109.510002"></path>
<path id="" fill="#FFD700" fill-opacity="1.0" stroke="#000000" stroke-width="0.0" stroke-opacity="1.0" stroke-linecap="round" stroke-linejoin="round"  filling="0" d="M241.490005 94.869003 C249.774994 109.217003 250.673996 124.207001 243.500000 128.348999 C236.326004 132.492004 223.794006 124.217003 215.509995 109.869003 C207.225006 95.519997 206.326004 80.529999 213.500000 76.388000 C220.673996 72.246002 233.205994 80.519997 241.490005 94.869003"></path>
<path id="" fill="#228B22" fill-opacity="1.0" stroke="#000000" stroke-width="0.0" stroke-opacity="1.0" stroke-linecap="round" stroke-linejoin="round"  filling="0" d="M246.000000 200.000000 C252.666672 200.000000 259.333344 200.000000 266.000000 200.000000 C266.000000 266.666687 266.000000 333.333313 266.000000 400.000000 C259.333344 400.000000 252.666672 400.000000 246.000000 400.000000 C246.000000 333.333313 246.000000 266.666687 246.000000 200.000000"></path>
<path id="" fill="#228B22" fill-opacity="1.0" stroke="#000000" stroke-width="0.0" stroke-opacity="1.0" stroke-linecap="round" stroke-linejoin="round"  filling="0" d="M246.000000 250.000000 C230.666672 266.666656 215.333328 283.333344 200.000000 300.000000 C215.333328 296.666656 230.666672 293.333344 246.000000 290.000000 C246.000000 276.666656 246.000000 263.333344 246.000000 250.000000"></path>
<path id="" fill="#228B22" fill-opacity="1.0" stroke="#000000" stroke-width="0.0" stroke-opacity="1.0" stroke-linecap="round" stroke-linejoin="round"  filling="0" d="M266.000000 250.000000 C281.333344 266.666656 296.666656 283.333344 312.000000 300.000000 C296.666656 296.666656 281.333344 293.333344 266.000000 290.000000 C266.000000 276.666656 266.000000 263.333344 266.000000 250.000000"></path>
</svg>