<svg xmlns="http://www.w3.org/2000/svg" viewBox="0 0 512 512" height="512.0px" width="512.0px">
<path id="" fill="#D3D3D3" fill-opacity="1.0" stroke="#000000" stroke-width="0.0" stroke-opacity="1.0" stroke-linecap="round" stroke-linejoin="round"  filling="0" d="M356.000000 280.000000 C356.000000 303.860321 345.457153 326.767822 326.710693 343.639618 C307.964233 360.511414 282.511475 370.000000 256.000000 370.000000 C229.488525 370.000000 204.035767 360.511414 185.289322 343.639618 C166.542877 326.767822 156.000000 303.860321 156.000000 280.000000 C156.000000 256.139679 166.542877 233.232178 185.289322 216.360382 C204.035767 199.488586 229.488525 190.000000 256.000000 190.000000 C282.511475 190.000000 307.964233 199.488586 326.710693 216.360382 C345.457153 233.232178 356.000000 256.139679 356.000000 280.000000"></path>
<path id="" fill="#A9A9A9" fill-opacity="1.0" stroke="#000000" stroke-width="0.0" stroke-opacity="1.0" stroke-linecap="round" stroke-linejoin="round"  filling="0" d="M180.000000 240.000000 C230.666672 226.666672 281.333344 226.666672 332.000000 240.000000 C281.333344 260.000000 230.666672 260.000000 180.000000 240.000000"></path>
<path id="" fill="#A9A9A9" fill-opacity="1.0" stroke="#000000" stroke-width="0.0" stroke-opacity="1.0" stroke-linecap="round" stroke-linejoin="round"  filling="0" d="M180.000000 330.000000 C230.666672 316.666656 281.333344 316.666656 332.000000 330.000000 C281.333344 350.000000 230.666672 350.000000 180.000000 330.000000"></path>
<path id="" fill="#D3D3D3" fill-opacity="1.0" stroke="#000000" stroke-width="0.0" stroke-opacity="1.0" stroke-linecap="round" stroke-linejoin="round"  filling="0" d="M326.000000 180.000000 C326.000000 195.906891 318.619965 211.178543 305.497467 222.426407 C292.374969 233.674271 274.558044 240.000000 256.000000 240.000000 C237.441971 240.000000 219.625046 233.674271 206.502533 222.426407 C193.380020 211.178543 186.000000 195.906891 186.000000 180.000000 C186.000000 164.093109 193.380020 148.821457 206.502533 137.573593 C219.625046 126.325729 237.441971 120.000000 256.000000 120.000000 C274.558044 120.000000 292.374969 126.325729 305.497467 137.573593 C318.619965 148.821457 326.000000 164.093109 326.000000 180.000000"></path>
<path id="" fill="#D3D3D3" fill-opacity="1.0" stroke="#000000" stroke-width="0.0" stroke-opacity="1.0" stroke-linecap="round" stroke-linejoin="round"  filling="0" d="M216.000000 130.000000 C222.666672 113.333328 229.333328 96.666672 236.000000 80.000000 C242.666672 96.666672 249.333328 113.333328 256.000000 130.000000 C242.666672 130.000000 229.333328 130.000000 216.000000 130.000000"></path>
<path id="" fill="#D3D3D3" fill-opacity="1.0" stroke="#000000" stroke-width="0.0" stroke-opacity="1.0" stroke-linecap="round" stroke-linejoin="round"  filling="0" d="M256.000000 130.000000 C262.666656 113.333328 269.333344 96.666672 276.000000 80.000000 C282.666656 96.666672 289.333344 113.333328 296.000000 130.000000 C282.666656 130.000000 269.333344 130.000000 256.000000 130.000000"></path>
<path id="" fill="#00FF00" fill-opacity="1.0" stroke="#000000" stroke-width="0.0" stroke-opacity="1.0" stroke-linecap="round" stroke-linejoin="round"  filling="0" d="M246.000000 175.000000 C246.000000 178.181381 244.418564 181.235703 241.606598 183.485275 C238.794632 185.734848 234.976715 187.000000 231.000000 187.000000 C227.023285 187.000000 223.205368 185.734848 220.393402 183.485275 C217.581436 181.235703 216.000000 178.181381 216.000000 175.000000 C216.000000 171.818619 217.581436 168.764297 220.393402 166.514725 C223.205368 164.265152 227.023285 163.000000 231.000000 163.000000 C234.976715 163.000000 238.794632 164.265152 241.606598 166.514725 C244.418564 168.764297 246.000000 171.818619 246.000000 175.000000"></path>
<path id="" fill="#00FF00" fill-opacity="1.0" stroke="#000000" stroke-width="0.0" stroke-opacity="1.0" stroke-linecap="round" stroke-linejoin="round"  filling="0" d="M296.000000 175.000000 C296.000000 178.181381 294.418579 181.235703 291.606598 183.485275 C288.794617 185.734848 284.976715 187.000000 281.000000 187.000000 C277.023285 187.000000 273.205383 185.734848 270.393402 183.485275 C267.581421 181.235703 266.000000 178.181381 266.000000 175.000000 C266.000000 171.818619 267.581421 168.764297 270.393402 166.514725 C273.205383 164.265152 277.023285 163.000000 281.000000 163.000000 C284.976715 163.000000 288.794617 164.265152 291.606598 166.514725 C294.418579 168.764297 296.000000 171.818619 296.000000 175.000000"></path>
<path id="" fill="#000000" fill-opacity="1.0" stroke="#000000" stroke-width="0.0" stroke-opacity="1.0" stroke-linecap="round" stroke-linejoin="round"  filling="0" d="M238.000000 175.000000 C238.000000 176.855804 237.262009 178.637497 235.949753 179.949753 C234.637497 181.262009 232.855804 182.000000 231.000000 182.000000 C229.144196 182.000000 227.362503 181.262009 226.050247 179.949753 C224.737991 178.637497 224.000000 176.855804 224.000000 175.000000 C224.000000 173.144196 224.737991 171.362503 226.050247 170.050247 C227.362503 168.737991 229.144196 168.000000 231.000000 168.000000 C232.855804 168.000000 234.637497 168.737991 235.949753 170.050247 C237.262009 171.362503 238.000000 173.144196 238.000000 175.000000"></path>
<path id="" fill="#000000" fill-opacity="1.0" stroke="#000000" stroke-width="0.0" stroke-opacity="1.0" stroke-linecap="round" stroke-linejoin="round"  filling="0" d="M288.000000 175.000000 C288.000000 176.855804 287.261993 178.637497 285.949738 179.949753 C284.637482 181.262009 282.855804 182.000000 281.000000 182.000000 C279.144196 182.000000 277.362518 181.262009 276.050262 179.949753 C274.738007 178.637497 274.000000 176.855804 274.000000 175.000000 C274.000000 173.144196 274.738007 171.362503 276.050262 170.050247 C277.362518 168.737991 279.144196 168.000000 281.000000 168.000000 C282.855804 168.000000 284.637482 168.737991 285.949738 170.050247 C287.261993 171.362503 288.000000 173.144196 288.000000 175.000000"></path>
<path id="" fill="#FFC0CB" fill-opacity="1.0" stroke="#000000" stroke-width="0.0" stroke-opacity="1.0" stroke-linecap="round" stroke-linejoin="round"  filling="0" d="M256.000000 195.000000 C254.333328 198.333328 252.666672 201.666672 251.000000 205.000000 C254.333328 205.000000 257.666656 205.000000 261.000000 205.000000 C259.333344 201.666672 257.666656 198.333328 256.000000 195.000000"></path>
<path id="" fill="#D3D3D3" fill-opacity="1.0" stroke="#000000" stroke-width="0.0" stroke-opacity="1.0" stroke-linecap="round" stroke-linejoin="round"  filling="0" d="M350.000000 280.000000 C370.000000 300.000000 373.333344 326.666656 360.000000 360.000000 C346.666656 346.666656 343.333344 320.000000 350.000000 280.000000"></path>
<path id="" fill="#A9A9A9" fill-opacity="1.0" stroke="#000000" stroke-width="0.0" stroke-opacity="1.0" stroke-linecap="round" stroke-linejoin="round"  filling="0" d="M246.000000 366.000000 C246.000000 368.651154 243.891418 371.196442 240.142136 373.071075 C236.392853 374.945709 231.302292 376.000000 226.000000 376.000000 C220.697708 376.000000 215.607147 374.945709 211.857864 373.071075 C208.108582 371.196442 206.000000 368.651154 206.000000 366.000000 C206.000000 363.348846 208.108582 360.803558 211.857864 358.928925 C215.607147 357.054291 220.697708 356.000000 226.000000 356.000000 C231.302292 356.000000 236.392853 357.054291 240.142136 358.928925 C243.891418 360.803558 246.000000 363.348846 246.000000 366.000000"></path>
<path id="" fill="#A9A9A9" fill-opacity="1.0" stroke="#000000" stroke-width="0.0" stroke-opacity="1.0" stroke-linecap="round" stroke-linejoin="round"  filling="0" d="M326.000000 366.000000 C326.000000 368.651154 323.891449 371.196442 320.142151 373.071075 C316.392853 374.945709 311.302307 376.000000 306.000000 376.000000 C300.697693 376.000000 295.607147 374.945709 291.857849 373.071075 C288.108551 371.196442 286.000000 368.651154 286.000000 366.000000 C286.000000 363.348846 288.108551 360.803558 291.857849 358.928925 C295.607147 357.054291 300.697693 356.000000 306.000000 356.000000 C311.302307 356.000000 316.392853 357.054291 320.142151 358.928925 C323.891449 360.803558 326.000000 363.348846 326.000000 366.000000"></path>
<path id="" fill="#000000" fill-opacity="1.0" stroke="#000000" stroke-width="2.0" stroke-opacity="1.0" stroke-linecap="round" stroke-linejoin="round"  filling="0" d="M235.804001 200.981003 C219.137329 197.647675 202.470673 194.314331 185.804001 190.981003"></path>
<path id="" fill="#000000" fill-opacity="1.0" stroke="#000000" stroke-width="2.0" stroke-opacity="1.0" stroke-linecap="round" stroke-linejoin="round"  filling="0" d="M236.000000 206.000000 C219.333328 206.000000 202.666672 206.000000 186.000000 206.000000"></path>
<path id="" fill="#000000" fill-opacity="1.0" stroke="#000000" stroke-width="2.0" stroke-opacity="1.0" stroke-linecap="round" stroke-linejoin="round"  filling="0" d="M236.195999 210.981003 C219.529327 214.314331 202.862671 217.647675 186.195999 220.981003"></path>
<path id="" fill="#000000" fill-opacity="1.0" stroke="#000000" stroke-width="2.0" stroke-opacity="1.0" stroke-linecap="round" stroke-linejoin="round"  filling="0" d="M275.803986 199.018997 C292.470642 195.685669 309.137329 192.352325 325.803986 189.018997"></path>
<path id="" fill="#000000" fill-opacity="1.0" stroke="#000000" stroke-width="2.0" stroke-opacity="1.0" stroke-linecap="round" stroke-linejoin="round"  filling="0" d="M276.000000 204.000000 C292.666656 204.000000 309.333344 204.000000 326.000000 204.000000"></path>
<path id="" fill="#000000" fill-opacity="1.0" stroke="#000000" stroke-width="2.0" stroke-opacity="1.0" stroke-linecap="round" stroke-linejoin="round"  filling="0" d="M276.196014 209.018997 C292.862671 212.352325 309.529358 215.685669 326.196014 219.018997"></path>
</svg>