<svg xmlns="http://www.w3.org/2000/svg" viewBox="0 0 512 512" height="512.0px" width="512.0px">
<path id="" fill="#FFFACD" fill-opacity="1.0"  filling="0" d="M0 0 C171 0 341 0 512 0 C512 171 512 341 512 512 C341 512 171 512 0 512 C0 341 0 171 0 0"></path>
<path id="" fill="#FFFFFF" fill-opacity="1.0"  filling="0" d="M120 356 C127 303 133 249 140 196 C160 196 180 196 200 196 C207 249 213 303 220 356 C187 356 153 356 120 356"></path>
<path id="" fill="#FF0000" fill-opacity="1.0"  filling="0" d="M130 196 C157 196 183 196 210 196 C210 203 210 209 210 216 C183 216 157 216 130 216 C130 209 130 203 130 196"></path>
<path id="" fill="#000000" fill-opacity="1.0"  filling="0" d="M177 156 C179 156 181 156 183 156 C183 169 183 183 183 196 C181 196 179 196 177 196 C177 183 177 169 177 156"></path>
<path id="" fill="#FF0000" fill-opacity="1.0"  filling="0" d="M350 256 C373 256 397 256 420 256 C420 289 420 323 420 356 C397 356 373 356 350 356 C350 323 350 289 350 256"></path>
<path id="" fill="#FFD700" fill-opacity="1.0"  filling="0" d="M355 216 C357 216 359 216 361 216 C361 229 361 243 361 256 C359 256 357 256 355 256 C355 243 355 229 355 216"></path>
<path id="" fill="#FFD700" fill-opacity="1.0"  filling="0" d="M365 216 C367 216 369 216 371 216 C371 229 371 243 371 256 C369 256 367 256 365 256 C365 243 365 229 365 216"></path>
<path id="" fill="#FFD700" fill-opacity="1.0"  filling="0" d="M375 216 C377 216 379 216 381 216 C381 229 381 243 381 256 C379 256 377 256 375 256 C375 243 375 229 375 216"></path>
<path id="" fill="#FFD700" fill-opacity="1.0"  filling="0" d="M385 216 C387 216 389 216 391 216 C391 229 391 243 391 256 C389 256 387 256 385 256 C385 243 385 229 385 216"></path>
<path id="" fill="#FFD700" fill-opacity="1.0"  filling="0" d="M395 216 C397 216 399 216 401 216 C401 229 401 243 401 256 C399 256 397 256 395 256 C395 243 395 229 395 216"></path>
<path id="" fill="#FFD700" fill-opacity="1.0"  filling="0" d="M405 216 C407 216 409 216 411 216 C411 229 411 243 411 256 C409 256 407 256 405 256 C405 243 405 229 405 216"></path>
<path id="" fill="#F4A460" fill-opacity="1.0"  filling="0" d="M356 286 C356 299 345 312 327 321 C308 331 283 336 256 336 C229 336 204 331 185 321 C167 312 156 299 156 286 C156 273 167 260 185 251 C204 241 229 236 256 236 C283 236 308 241 327 251 C345 260 356 273 356 286"></path>
<path id="" fill="#8B4513" fill-opacity="1.0"  filling="0" d="M351 266 C351 271 341 276 323 280 C305 284 281 286 256 286 C231 286 207 284 189 280 C171 276 161 271 161 266 C161 261 171 256 189 252 C207 248 231 246 256 246 C281 246 305 248 323 252 C341 256 351 261 351 266"></path>
<path id="" fill="#FFD700" fill-opacity="1.0"  filling="0" d="M161 256 C224 256 288 256 351 256 C348 249 344 243 341 236 C284 236 228 236 171 236 C168 243 164 249 161 256"></path>
<path id="" fill="#00FF00" fill-opacity="1.0"  filling="0" d="M166 246 C206 216 306 216 346 246 C286 246 226 246 166 246"></path>
<path id="" fill="#00FF00" fill-opacity="1.0"  filling="0" d="M163 242 C173 234 187 228 204 224 C220 220 237 218 256 218 C275 218 292 220 308 224 C325 228 339 234 349 242 C347 245 345 247 343 250 C334 243 321 238 305 234 C290 230 274 228 256 228 C238 228 222 230 207 234 C191 238 178 243 169 250 C167 247 165 245 163 242"></path>
<path id="" fill="#F4A460" fill-opacity="1.0"  filling="0" d="M156 246 C223 179 289 179 356 246 C289 246 223 246 156 246"></path>
<path id="" fill="#FFFFFF" fill-opacity="1.0"  filling="0" d="M224 220 C224 221 224 222 223 222 C222 223 221 223 220 223 C219 223 218 223 217 222 C216 222 216 221 216 220 C216 219 216 218 217 218 C218 217 219 217 220 217 C221 217 222 217 223 218 C224 218 224 219 224 220"></path>
<path id="" fill="#FFFFFF" fill-opacity="1.0"  filling="0" d="M254 205 C254 206 254 207 253 207 C252 208 251 208 250 208 C249 208 248 208 247 207 C246 207 246 206 246 205 C246 204 246 203 247 203 C248 202 249 202 250 202 C251 202 252 202 253 203 C254 203 254 204 254 205"></path>
<path id="" fill="#FFFFFF" fill-opacity="1.0"  filling="0" d="M284 210 C284 211 284 212 283 212 C282 213 281 213 280 213 C279 213 278 213 277 212 C276 212 276 211 276 210 C276 209 276 208 277 208 C278 207 279 207 280 207 C281 207 282 207 283 208 C284 208 284 209 284 210"></path>
<path id="" fill="#FFFFFF" fill-opacity="1.0"  filling="0" d="M314 230 C314 231 314 232 313 232 C312 233 311 233 310 233 C309 233 308 233 307 232 C306 232 306 231 306 230 C306 229 306 228 307 228 C308 227 309 227 310 227 C311 227 312 227 313 228 C314 228 314 229 314 230"></path></svg>