<svg xmlns="http://www.w3.org/2000/svg" viewBox="0 0 512 512" height="512.0px" width="512.0px">
<path id="" fill="#FFE135" fill-opacity="1.0" stroke="#000000" stroke-width="0.0" stroke-opacity="1.0" stroke-linecap="round" stroke-linejoin="round"  filling="0" d="M80.000000 300.000000 C126.666672 266.666656 200.000000 246.666672 300.000000 240.000000 C366.666687 240.000000 420.000000 253.333328 460.000000 280.000000 C440.000000 306.666656 420.000000 326.666656 400.000000 340.000000 C333.333313 366.666656 240.000000 366.666656 120.000000 340.000000 C106.666664 326.666656 93.333336 313.333344 80.000000 300.000000"></path>
<path id="" fill="#8B4513" fill-opacity="1.0" stroke="#000000" stroke-width="0.0" stroke-opacity="1.0" stroke-linecap="round" stroke-linejoin="round"  filling="0" d="M445.000000 275.000000 C451.666656 275.000000 458.333344 275.000000 465.000000 275.000000 C465.000000 280.000000 465.000000 285.000000 465.000000 290.000000 C458.333344 290.000000 451.666656 290.000000 445.000000 290.000000 C445.000000 285.000000 445.000000 280.000000 445.000000 275.000000"></path>
<path id="" fill="#8B4513" fill-opacity="1.0" stroke="#000000" stroke-width="0.0" stroke-opacity="1.0" stroke-linecap="round" stroke-linejoin="round"  filling="0" d="M205.000000 290.000000 C205.000000 291.325562 204.472855 292.598206 203.535538 293.535522 C202.598221 294.472839 201.325577 295.000000 200.000000 295.000000 C198.674423 295.000000 197.401779 294.472839 196.464462 293.535522 C195.527145 292.598206 195.000000 291.325562 195.000000 290.000000 C195.000000 288.674438 195.527145 287.401794 196.464462 286.464478 C197.401779 285.527161 198.674423 285.000000 200.000000 285.000000 C201.325577 285.000000 202.598221 285.527161 203.535538 286.464478 C204.472855 287.401794 205.000000 288.674438 205.000000 290.000000"></path>
<path id="" fill="#8B4513" fill-opacity="1.0" stroke="#000000" stroke-width="0.0" stroke-opacity="1.0" stroke-linecap="round" stroke-linejoin="round"  filling="0" d="M304.000000 270.000000 C304.000000 271.060455 303.578278 272.078583 302.828430 272.828430 C302.078583 273.578278 301.060455 274.000000 300.000000 274.000000 C298.939545 274.000000 297.921417 273.578278 297.171570 272.828430 C296.421722 272.078583 296.000000 271.060455 296.000000 270.000000 C296.000000 268.939545 296.421722 267.921417 297.171570 267.171570 C297.921417 266.421722 298.939545 266.000000 300.000000 266.000000 C301.060455 266.000000 302.078583 266.421722 302.828430 267.171570 C303.578278 267.921417 304.000000 268.939545 304.000000 270.000000"></path>
<path id="" fill="#8B4513" fill-opacity="1.0" stroke="#000000" stroke-width="0.0" stroke-opacity="1.0" stroke-linecap="round" stroke-linejoin="round"  filling="0" d="M384.500000 300.000000 C384.500000 301.193024 384.025574 302.338379 383.181976 303.181976 C382.338379 304.025574 381.193024 304.500000 380.000000 304.500000 C378.806976 304.500000 377.661621 304.025574 376.818024 303.181976 C375.974426 302.338379 375.500000 301.193024 375.500000 300.000000 C375.500000 298.806976 375.974426 297.661621 376.818024 296.818024 C377.661621 295.974426 378.806976 295.500000 380.000000 295.500000 C381.193024 295.500000 382.338379 295.974426 383.181976 296.818024 C384.025574 297.661621 384.500000 298.806976 384.500000 300.000000"></path>
</svg>