<svg xmlns="http://www.w3.org/2000/svg" viewBox="0 0 512 512" height="512.0px" width="512.0px">
<path id="" fill="#1E90FF" fill-opacity="1.0" stroke="#000000" stroke-width="0.0" stroke-opacity="1.0" stroke-linecap="round" stroke-linejoin="round"  filling="0" d="M256.000000 256.000000 C205.333328 185.333328 146.666672 160.000000 80.000000 180.000000 C146.666672 220.000000 205.333328 245.333328 256.000000 256.000000"></path>
<path id="" fill="#1E90FF" fill-opacity="1.0" stroke="#000000" stroke-width="0.0" stroke-opacity="1.0" stroke-linecap="round" stroke-linejoin="round"  filling="0" d="M256.000000 256.000000 C306.666656 185.333328 365.333313 160.000000 432.000000 180.000000 C365.333313 220.000000 306.666656 245.333328 256.000000 256.000000"></path>
<path id="" fill="#4169E1" fill-opacity="1.0" stroke="#000000" stroke-width="0.0" stroke-opacity="1.0" stroke-linecap="round" stroke-linejoin="round"  filling="0" d="M256.000000 256.000000 C218.666656 318.666656 176.666672 344.000000 130.000000 332.000000 C190.000000 304.000000 232.000000 278.666656 256.000000 256.000000"></path>
<path id="" fill="#4169E1" fill-opacity="1.0" stroke="#000000" stroke-width="0.0" stroke-opacity="1.0" stroke-linecap="round" stroke-linejoin="round"  filling="0" d="M256.000000 256.000000 C293.333344 318.666656 335.333344 344.000000 382.000000 332.000000 C322.000000 304.000000 280.000000 278.666656 256.000000 256.000000"></path>
<path id="" fill="#000080" fill-opacity="1.0" stroke="#000000" stroke-width="0.0" stroke-opacity="1.0" stroke-linecap="round" stroke-linejoin="round"  filling="0" d="M262.000000 256.000000 C262.000000 271.906891 261.367432 287.178528 260.242645 298.426392 C259.117859 309.674255 257.590698 316.000000 256.000000 316.000000 C254.409317 316.000000 252.882141 309.674255 251.757355 298.426392 C250.632568 287.178528 250.000000 271.906891 250.000000 256.000000 C250.000000 240.093109 250.632568 224.821457 251.757355 213.573593 C252.882141 202.325729 254.409317 196.000000 256.000000 196.000000 C257.590698 196.000000 259.117859 202.325729 260.242645 213.573593 C261.367432 224.821457 262.000000 240.093109 262.000000 256.000000"></path>
<path id="" fill="#000080" fill-opacity="1.0" stroke="#000000" stroke-width="0.0" stroke-opacity="1.0" stroke-linecap="round" stroke-linejoin="round"  filling="0" d="M251.050995 200.315994 C244.321671 180.126663 243.649338 159.935333 249.033997 139.742004 C249.677994 139.914001 250.322006 140.085999 250.966003 140.257996 C245.684677 160.064667 246.345673 179.873337 252.949005 199.684006 C252.316330 199.894669 251.683670 200.105331 251.050995 200.315994"></path>
<path id="" fill="#000080" fill-opacity="1.0" stroke="#000000" stroke-width="0.0" stroke-opacity="1.0" stroke-linecap="round" stroke-linejoin="round"  filling="0" d="M259.050995 199.684006 C265.654999 179.873337 266.316010 160.064667 261.033997 140.257996 C261.678009 140.085999 262.321991 139.914001 262.966003 139.742004 C268.350677 159.934677 267.678345 180.126007 260.949005 200.315994 C260.316345 200.105331 259.683655 199.894669 259.050995 199.684006"></path>
</svg>