<svg xmlns="http://www.w3.org/2000/svg" viewBox="0 0 512 512" height="512.0px" width="512.0px">
<path id="" fill="#FFA500" fill-opacity="1.0" stroke="#000000" stroke-width="0.0" stroke-opacity="1.0" stroke-linecap="round" stroke-linejoin="round"  filling="0" d="M356.000000 300.000000 C356.000000 331.813782 345.457153 362.357086 326.710693 384.852814 C307.964233 407.348541 282.511475 420.000000 256.000000 420.000000 C229.488525 420.000000 204.035767 407.348541 185.289322 384.852814 C166.542877 362.357086 156.000000 331.813782 156.000000 300.000000 C156.000000 268.186218 166.542877 237.642914 185.289322 215.147186 C204.035767 192.651459 229.488525 180.000000 256.000000 180.000000 C282.511475 180.000000 307.964233 192.651459 326.710693 215.147186 C345.457153 237.642914 356.000000 268.186218 356.000000 300.000000"></path>
<path id="" fill="#FFA500" fill-opacity="1.0" stroke="#000000" stroke-width="0.0" stroke-opacity="1.0" stroke-linecap="round" stroke-linejoin="round"  filling="0" d="M336.000000 180.000000 C336.000000 201.209183 327.565704 221.571381 312.568542 236.568542 C297.571381 251.565704 277.209167 260.000000 256.000000 260.000000 C234.790817 260.000000 214.428619 251.565704 199.431458 236.568542 C184.434296 221.571381 176.000000 201.209183 176.000000 180.000000 C176.000000 158.790817 184.434296 138.428619 199.431458 123.431458 C214.428619 108.434303 234.790817 100.000000 256.000000 100.000000 C277.209167 100.000000 297.571381 108.434303 312.568542 123.431458 C327.565704 138.428619 336.000000 158.790817 336.000000 180.000000"></path>
<path id="" fill="#FFA500" fill-opacity="1.0" stroke="#000000" stroke-width="0.0" stroke-opacity="1.0" stroke-linecap="round" stroke-linejoin="round"  filling="0" d="M200.000000 120.000000 C206.666672 103.333328 213.333328 86.666672 220.000000 70.000000 C226.666672 86.666672 233.333328 103.333328 240.000000 120.000000 C226.666672 120.000000 213.333328 120.000000 200.000000 120.000000"></path>
<path id="" fill="#FFA500" fill-opacity="1.0" stroke="#000000" stroke-width="0.0" stroke-opacity="1.0" stroke-linecap="round" stroke-linejoin="round"  filling="0" d="M312.000000 120.000000 C305.333344 103.333328 298.666656 86.666672 292.000000 70.000000 C285.333344 86.666672 278.666656 103.333328 272.000000 120.000000 C285.333344 120.000000 298.666656 120.000000 312.000000 120.000000"></path>
<path id="" fill="#00FF00" fill-opacity="1.0" stroke="#000000" stroke-width="0.0" stroke-opacity="1.0" stroke-linecap="round" stroke-linejoin="round"  filling="0" d="M311.000000 170.000000 C311.000000 173.976715 309.418579 177.794632 306.606598 180.606598 C303.794617 183.418564 299.976715 185.000000 296.000000 185.000000 C292.023285 185.000000 288.205383 183.418564 285.393402 180.606598 C282.581421 177.794632 281.000000 173.976715 281.000000 170.000000 C281.000000 166.023285 282.581421 162.205368 285.393402 159.393402 C288.205383 156.581436 292.023285 155.000000 296.000000 155.000000 C299.976715 155.000000 303.794617 156.581436 306.606598 159.393402 C309.418579 162.205368 311.000000 166.023285 311.000000 170.000000"></path>
<path id="" fill="#000000" fill-opacity="1.0" stroke="#000000" stroke-width="0.0" stroke-opacity="1.0" stroke-linecap="round" stroke-linejoin="round"  filling="0" d="M246.000000 170.000000 C246.000000 176.627869 242.837128 182.991058 237.213196 187.677673 C231.589264 192.364288 223.953445 195.000000 216.000000 195.000000 C208.046555 195.000000 200.410736 192.364288 194.786804 187.677673 C189.162872 182.991058 186.000000 176.627869 186.000000 170.000000 C186.000000 163.372131 189.162872 157.008942 194.786804 152.322327 C200.410736 147.635712 208.046555 145.000000 216.000000 145.000000 C223.953445 145.000000 231.589264 147.635712 237.213196 152.322327 C242.837128 157.008942 246.000000 163.372131 246.000000 170.000000"></path>
<path id="" fill="#000000" fill-opacity="1.0" stroke="#000000" stroke-width="0.0" stroke-opacity="1.0" stroke-linecap="round" stroke-linejoin="round"  filling="0" d="M190.000000 189.000000 C203.333328 189.000000 216.666672 189.000000 230.000000 189.000000 C230.000000 189.666672 230.000000 190.333328 230.000000 191.000000 C216.666672 191.000000 203.333328 191.000000 190.000000 191.000000 C190.000000 190.333328 190.000000 189.666672 190.000000 189.000000"></path>
<path id="" fill="#000000" fill-opacity="1.0" stroke="#000000" stroke-width="0.0" stroke-opacity="1.0" stroke-linecap="round" stroke-linejoin="round"  filling="0" d="M190.000000 199.000000 C203.333328 199.000000 216.666672 199.000000 230.000000 199.000000 C230.000000 199.666672 230.000000 200.333328 230.000000 201.000000 C216.666672 201.000000 203.333328 201.000000 190.000000 201.000000 C190.000000 200.333328 190.000000 199.666672 190.000000 199.000000"></path>
<path id="" fill="#000000" fill-opacity="1.0" stroke="#000000" stroke-width="0.0" stroke-opacity="1.0" stroke-linecap="round" stroke-linejoin="round"  filling="0" d="M190.000000 209.000000 C203.333328 209.000000 216.666672 209.000000 230.000000 209.000000 C230.000000 209.666672 230.000000 210.333328 230.000000 211.000000 C216.666672 211.000000 203.333328 211.000000 190.000000 211.000000 C190.000000 210.333328 190.000000 209.666672 190.000000 209.000000"></path>
<path id="" fill="#000000" fill-opacity="1.0" stroke="#000000" stroke-width="0.0" stroke-opacity="1.0" stroke-linecap="round" stroke-linejoin="round"  filling="0" d="M282.000000 189.000000 C295.333344 189.000000 308.666656 189.000000 322.000000 189.000000 C322.000000 189.666672 322.000000 190.333328 322.000000 191.000000 C308.666656 191.000000 295.333344 191.000000 282.000000 191.000000 C282.000000 190.333328 282.000000 189.666672 282.000000 189.000000"></path>
<path id="" fill="#000000" fill-opacity="1.0" stroke="#000000" stroke-width="0.0" stroke-opacity="1.0" stroke-linecap="round" stroke-linejoin="round"  filling="0" d="M282.000000 199.000000 C295.333344 199.000000 308.666656 199.000000 322.000000 199.000000 C322.000000 199.666672 322.000000 200.333328 322.000000 201.000000 C308.666656 201.000000 295.333344 201.000000 282.000000 201.000000 C282.000000 200.333328 282.000000 199.666672 282.000000 199.000000"></path>
<path id="" fill="#000000" fill-opacity="1.0" stroke="#000000" stroke-width="0.0" stroke-opacity="1.0" stroke-linecap="round" stroke-linejoin="round"  filling="0" d="M282.000000 209.000000 C295.333344 209.000000 308.666656 209.000000 322.000000 209.000000 C322.000000 209.666672 322.000000 210.333328 322.000000 211.000000 C308.666656 211.000000 295.333344 211.000000 282.000000 211.000000 C282.000000 210.333328 282.000000 209.666672 282.000000 209.000000"></path>
<path id="" fill="#FFA500" fill-opacity="1.0" stroke="#000000" stroke-width="0.0" stroke-opacity="1.0" stroke-linecap="round" stroke-linejoin="round"  filling="0" d="M246.000000 410.000000 C246.000000 415.302307 242.837128 420.392853 237.213196 424.142151 C231.589264 427.891449 223.953445 430.000000 216.000000 430.000000 C208.046555 430.000000 200.410736 427.891449 194.786804 424.142151 C189.162872 420.392853 186.000000 415.302307 186.000000 410.000000 C186.000000 404.697693 189.162872 399.607147 194.786804 395.857849 C200.410736 392.108551 208.046555 390.000000 216.000000 390.000000 C223.953445 390.000000 231.589264 392.108551 237.213196 395.857849 C242.837128 399.607147 246.000000 404.697693 246.000000 410.000000"></path>
<path id="" fill="#FFA500" fill-opacity="1.0" stroke="#000000" stroke-width="0.0" stroke-opacity="1.0" stroke-linecap="round" stroke-linejoin="round"  filling="0" d="M326.000000 410.000000 C326.000000 415.302307 322.837128 420.392853 317.213196 424.142151 C311.589264 427.891449 303.953430 430.000000 296.000000 430.000000 C288.046570 430.000000 280.410736 427.891449 274.786804 424.142151 C269.162872 420.392853 266.000000 415.302307 266.000000 410.000000 C266.000000 404.697693 269.162872 399.607147 274.786804 395.857849 C280.410736 392.108551 288.046570 390.000000 296.000000 390.000000 C303.953430 390.000000 311.589264 392.108551 317.213196 395.857849 C322.837128 399.607147 326.000000 404.697693 326.000000 410.000000"></path>
<path id="" fill="#FFA500" fill-opacity="1.0" stroke="#000000" stroke-width="0.0" stroke-opacity="1.0" stroke-linecap="round" stroke-linejoin="round"  filling="0" d="M355.546997 351.679993 C363.248993 356.814667 369.912994 358.819336 375.539001 357.694000 C381.164337 356.569336 386.544647 352.155670 391.679993 344.453003 C397.226654 348.151001 402.773346 351.848999 408.320007 355.546997 C400.122009 367.845001 390.502350 375.097992 379.460999 377.306000 C368.419647 379.514008 356.750336 376.518677 344.453003 368.320007 C348.151001 362.773346 351.848999 357.226654 355.546997 351.679993"></path>
<path id="" fill="#000000" fill-opacity="1.0" stroke="#000000" stroke-width="0.0" stroke-opacity="1.0" stroke-linecap="round" stroke-linejoin="round"  filling="0" d="M176.000000 120.000000 C229.333344 120.000000 282.666656 120.000000 336.000000 120.000000 C309.333344 100.000000 282.666656 80.000000 256.000000 60.000000 C229.333328 80.000000 202.666672 100.000000 176.000000 120.000000"></path>
<path id="" fill="#000000" fill-opacity="1.0" stroke="#000000" stroke-width="0.0" stroke-opacity="1.0" stroke-linecap="round" stroke-linejoin="round"  filling="0" d="M336.000000 120.000000 C336.000000 125.302292 327.565704 130.392853 312.568542 134.142136 C297.571381 137.891418 277.209167 140.000000 256.000000 140.000000 C234.790817 140.000000 214.428619 137.891418 199.431458 134.142136 C184.434296 130.392853 176.000000 125.302292 176.000000 120.000000 C176.000000 114.697708 184.434296 109.607155 199.431458 105.857864 C214.428619 102.108574 234.790817 100.000000 256.000000 100.000000 C277.209167 100.000000 297.571381 102.108574 312.568542 105.857864 C327.565704 109.607155 336.000000 114.697708 336.000000 120.000000"></path>
<path id="" fill="#FFFFFF" fill-opacity="1.0" stroke="#000000" stroke-width="0.0" stroke-opacity="1.0" stroke-linecap="round" stroke-linejoin="round"  filling="0" d="M271.000000 100.000000 C271.000000 103.976723 269.418579 107.794632 266.606598 110.606598 C263.794617 113.418564 259.976715 115.000000 256.000000 115.000000 C252.023285 115.000000 248.205368 113.418564 245.393402 110.606598 C242.581436 107.794632 241.000000 103.976723 241.000000 100.000000 C241.000000 96.023277 242.581436 92.205368 245.393402 89.393402 C248.205368 86.581436 252.023285 85.000000 256.000000 85.000000 C259.976715 85.000000 263.794617 86.581436 266.606598 89.393402 C269.418579 92.205368 271.000000 96.023277 271.000000 100.000000"></path>
<path id="" fill="#000000" fill-opacity="1.0" stroke="#000000" stroke-width="0.0" stroke-opacity="1.0" stroke-linecap="round" stroke-linejoin="round"  filling="0" d="M246.000000 98.500000 C252.666672 98.500000 259.333344 98.500000 266.000000 98.500000 C266.000000 99.500000 266.000000 100.500000 266.000000 101.500000 C259.333344 101.500000 252.666672 101.500000 246.000000 101.500000 C246.000000 100.500000 246.000000 99.500000 246.000000 98.500000"></path>
<path id="" fill="#000000" fill-opacity="1.0" stroke="#000000" stroke-width="0.0" stroke-opacity="1.0" stroke-linecap="round" stroke-linejoin="round"  filling="0" d="M257.500000 90.000000 C257.500000 96.666664 257.500000 103.333336 257.500000 110.000000 C256.500000 110.000000 255.500000 110.000000 254.500000 110.000000 C254.500000 103.333336 254.500000 96.666664 254.500000 90.000000 C255.500000 90.000000 256.500000 90.000000 257.500000 90.000000"></path>
</svg>