<svg xmlns="http://www.w3.org/2000/svg" viewBox="0 0 512 512" height="512.0px" width="512.0px">
<path id="" fill="#8B4513" fill-opacity="1.0" stroke="#000000" stroke-width="0.0" stroke-opacity="1.0" stroke-linecap="round" stroke-linejoin="round"  filling="0" d="M356.000000 256.000000 C356.000000 282.511475 345.457153 307.964233 326.710693 326.710693 C307.964233 345.457153 282.511475 356.000000 256.000000 356.000000 C229.488525 356.000000 204.035767 345.457153 185.289322 326.710693 C166.542877 307.964233 156.000000 282.511475 156.000000 256.000000 C156.000000 229.488525 166.542877 204.035767 185.289322 185.289322 C204.035767 166.542877 229.488525 156.000000 256.000000 156.000000 C282.511475 156.000000 307.964233 166.542877 326.710693 185.289322 C345.457153 204.035767 356.000000 229.488525 356.000000 256.000000"></path>
<path id="" fill="#C8A165" fill-opacity="1.0" stroke="#000000" stroke-width="0.0" stroke-opacity="1.0" stroke-linecap="round" stroke-linejoin="round"  filling="0" d="M291.000000 216.000000 C291.000000 225.279022 287.309998 234.187485 280.748749 240.748734 C274.187500 247.309982 265.279022 251.000000 256.000000 251.000000 C246.720978 251.000000 237.812515 247.309982 231.251266 240.748734 C224.690018 234.187485 221.000000 225.279022 221.000000 216.000000 C221.000000 206.720978 224.690018 197.812515 231.251266 191.251266 C237.812515 184.690018 246.720978 181.000000 256.000000 181.000000 C265.279022 181.000000 274.187500 184.690018 280.748749 191.251266 C287.309998 197.812515 291.000000 206.720978 291.000000 216.000000"></path>
<path id="" fill="#FF4500" fill-opacity="1.0" stroke="#000000" stroke-width="0.0" stroke-opacity="1.0" stroke-linecap="round" stroke-linejoin="round"  filling="0" d="M254.000000 130.000000 C255.666672 130.000000 257.333344 130.000000 259.000000 130.000000 C259.000000 146.666672 259.000000 163.333328 259.000000 180.000000 C257.333344 180.000000 255.666672 180.000000 254.000000 180.000000 C254.000000 163.333328 254.000000 146.666672 254.000000 130.000000"></path>
<path id="" fill="#FF4500" fill-opacity="1.0" stroke="#000000" stroke-width="0.0" stroke-opacity="1.0" stroke-linecap="round" stroke-linejoin="round"  filling="0" d="M254.000000 130.000000 C257.333344 123.333336 260.666656 123.333336 264.000000 130.000000 C260.666656 130.000000 257.333344 130.000000 254.000000 130.000000"></path>
</svg>