<svg xmlns="http://www.w3.org/2000/svg" viewBox="0 0 512 512" height="512.0px" width="512.0px">
<path id="" fill="#FF0000" fill-opacity="1.0"  filling="0" d="M100 250 C207 250 313 250 420 250 C425 250 430 252 434 256 C438 260 440 265 440 270 C440 290 440 310 440 330 C440 335 438 340 434 344 C430 348 425 350 420 350 C313 350 207 350 100 350 C95 350 90 348 86 344 C82 340 80 335 80 330 C80 310 80 290 80 270 C80 265 82 260 86 256 C90 252 95 250 100 250"></path>
<path id="" fill="#FF0000" fill-opacity="1.0"  filling="0" d="M180 250 C231 210 281 210 332 250 C281 250 231 250 180 250"></path>
<path id="" fill="#87CEEB" fill-opacity="1.0"  filling="0" d="M190 250 C212 235 234 220 256 205 C278 220 300 235 322 250 C278 250 234 250 190 250"></path>
<path id="" fill="#87CEEB" fill-opacity="1.0"  filling="0" d="M332 250 C359 250 385 250 412 250 C412 263 412 277 412 290 C385 290 359 290 332 290 C332 277 332 263 332 250"></path>
<path id="" fill="#000000" fill-opacity="1.0"  filling="0" d="M210 350 C210 363 205 376 195 385 C186 395 173 400 160 400 C147 400 134 395 125 385 C115 376 110 363 110 350 C110 337 115 324 125 315 C134 305 147 300 160 300 C173 300 186 305 195 315 C205 324 210 337 210 350"></path>
<path id="" fill="#000000" fill-opacity="1.0"  filling="0" d="M410 350 C410 363 405 376 395 385 C386 395 373 400 360 400 C347 400 334 395 325 385 C315 376 310 363 310 350 C310 337 315 324 325 315 C334 305 347 300 360 300 C373 300 386 305 395 315 C405 324 410 337 410 350"></path>
<path id="" fill="#C0C0C0" fill-opacity="1.0"  filling="0" d="M185 350 C185 357 182 363 178 368 C173 372 167 375 160 375 C153 375 147 372 142 368 C138 363 135 357 135 350 C135 343 138 337 142 332 C147 328 153 325 160 325 C167 325 173 328 178 332 C182 337 185 343 185 350"></path>
<path id="" fill="#C0C0C0" fill-opacity="1.0"  filling="0" d="M385 350 C385 357 382 363 378 368 C373 372 367 375 360 375 C353 375 347 372 342 368 C338 363 335 357 335 350 C335 343 338 337 342 332 C347 328 353 325 360 325 C367 325 373 328 378 332 C382 337 385 343 385 350"></path>
<path id="" fill="#FFFFFF" fill-opacity="1.0"  filling="0" d="M105 280 C105 284 103 288 101 291 C98 293 94 295 90 295 C86 295 82 293 79 291 C77 288 75 284 75 280 C75 276 77 272 79 269 C82 267 86 265 90 265 C94 265 98 267 101 269 C103 272 105 276 105 280"></path>
<path id="" fill="#FF0000" fill-opacity="1.0"  filling="0" d="M430 280 C433 280 437 280 440 280 C440 287 440 293 440 300 C437 300 433 300 430 300 C430 293 430 287 430 280"></path>
<path id="" fill="#C0C0C0" fill-opacity="1.0"  filling="0" d="M300 290 C308 290 317 290 325 290 C325 292 325 293 325 295 C317 295 308 295 300 295 C300 293 300 292 300 290"></path>
<path id="" fill="#808080" fill-opacity="1.0"  filling="0" d="M445 345 C445 346 444 348 444 349 C443 349 441 350 440 350 C439 350 437 349 436 349 C436 348 435 346 435 345 C435 344 436 342 436 341 C437 341 439 340 440 340 C441 340 443 341 444 341 C444 342 445 344 445 345"></path></svg>