<svg xmlns="http://www.w3.org/2000/svg" viewBox="0 0 512 512" height="512.0px" width="512.0px">
<path id="" fill="#B8B8B8" fill-opacity="1.0" stroke="#000000" stroke-width="0.0" stroke-opacity="1.0" stroke-linecap="round" stroke-linejoin="round"  filling="0" d="M56.000000 226.000000 C189.333344 226.000000 322.666656 226.000000 456.000000 226.000000 C456.000000 246.000000 456.000000 266.000000 456.000000 286.000000 C322.666656 286.000000 189.333344 286.000000 56.000000 286.000000 C56.000000 266.000000 56.000000 246.000000 56.000000 226.000000"></path>
<path id="" fill="#A9A9A9" fill-opacity="1.0" stroke="#000000" stroke-width="0.0" stroke-opacity="1.0" stroke-linecap="round" stroke-linejoin="round"  filling="0" d="M36.000000 236.000000 C42.666668 236.000000 49.333332 236.000000 56.000000 236.000000 C56.000000 249.333328 56.000000 262.666656 56.000000 276.000000 C49.333332 276.000000 42.666668 276.000000 36.000000 276.000000 C36.000000 262.666656 36.000000 249.333328 36.000000 236.000000"></path>
<path id="" fill="#4A4A4A" fill-opacity="1.0" stroke="#000000" stroke-width="0.0" stroke-opacity="1.0" stroke-linecap="round" stroke-linejoin="round"  filling="0" d="M72.000000 256.000000 C72.000000 257.590698 71.367424 259.117859 70.242638 260.242645 C69.117851 261.367432 67.590691 262.000000 66.000000 262.000000 C64.409309 262.000000 62.882145 261.367432 61.757359 260.242645 C60.632572 259.117859 60.000000 257.590698 60.000000 256.000000 C60.000000 254.409317 60.632572 252.882141 61.757359 251.757355 C62.882145 250.632568 64.409309 250.000000 66.000000 250.000000 C67.590691 250.000000 69.117851 250.632568 70.242638 251.757355 C71.367424 252.882141 72.000000 254.409317 72.000000 256.000000"></path>
<path id="" fill="#808080" fill-opacity="1.0" stroke="#000000" stroke-width="0.0" stroke-opacity="1.0" stroke-linecap="round" stroke-linejoin="round"  filling="0" d="M107.000000 256.000000 C107.000000 259.037323 105.926003 261.630005 103.778000 263.778015 C101.629997 265.925995 99.037331 267.000000 96.000000 267.000000 C92.962669 267.000000 90.370003 265.925995 88.222000 263.778015 C86.073997 261.630005 85.000000 259.037323 85.000000 256.000000 C85.000000 252.962662 86.073997 250.369995 88.222000 248.222000 C90.370003 246.074005 92.962669 245.000000 96.000000 245.000000 C99.037331 245.000000 101.629997 246.074005 103.778000 248.222000 C105.926003 250.369995 107.000000 252.962662 107.000000 256.000000"></path>
<path id="" fill="#808080" fill-opacity="1.0" stroke="#000000" stroke-width="0.0" stroke-opacity="1.0" stroke-linecap="round" stroke-linejoin="round"  filling="0" d="M105.000000 256.000000 C105.000000 253.514664 104.121330 251.393341 102.363998 249.636002 C100.606667 247.878662 98.485329 247.000000 96.000000 247.000000 C93.514671 247.000000 91.393333 247.878662 89.636002 249.636002 C87.878670 251.393341 87.000000 253.514664 87.000000 256.000000 C87.000000 258.485321 87.878670 260.606659 89.636002 262.364014 C91.393333 264.121338 93.514671 265.000000 96.000000 265.000000 C98.485329 265.000000 100.606667 264.121338 102.363998 262.364014 C104.121330 260.606659 105.000000 258.485321 105.000000 256.000000"></path>
<path id="" fill="#808080" fill-opacity="1.0" stroke="#000000" stroke-width="0.0" stroke-opacity="1.0" stroke-linecap="round" stroke-linejoin="round"  filling="0" d="M147.000000 256.000000 C147.000000 259.037323 145.925995 261.630005 143.778000 263.778015 C141.630005 265.925995 139.037338 267.000000 136.000000 267.000000 C132.962662 267.000000 130.369995 265.925995 128.222000 263.778015 C126.073997 261.630005 125.000000 259.037323 125.000000 256.000000 C125.000000 252.962662 126.073997 250.369995 128.222000 248.222000 C130.369995 246.074005 132.962662 245.000000 136.000000 245.000000 C139.037338 245.000000 141.630005 246.074005 143.778000 248.222000 C145.925995 250.369995 147.000000 252.962662 147.000000 256.000000"></path>
<path id="" fill="#808080" fill-opacity="1.0" stroke="#000000" stroke-width="0.0" stroke-opacity="1.0" stroke-linecap="round" stroke-linejoin="round"  filling="0" d="M145.000000 256.000000 C145.000000 253.514664 144.121338 251.393341 142.363998 249.636002 C140.606659 247.878662 138.485336 247.000000 136.000000 247.000000 C133.514664 247.000000 131.393341 247.878662 129.636002 249.636002 C127.878670 251.393341 127.000000 253.514664 127.000000 256.000000 C127.000000 258.485321 127.878670 260.606659 129.636002 262.364014 C131.393341 264.121338 133.514664 265.000000 136.000000 265.000000 C138.485336 265.000000 140.606659 264.121338 142.363998 262.364014 C144.121338 260.606659 145.000000 258.485321 145.000000 256.000000"></path>
<path id="" fill="#808080" fill-opacity="1.0" stroke="#000000" stroke-width="0.0" stroke-opacity="1.0" stroke-linecap="round" stroke-linejoin="round"  filling="0" d="M187.000000 256.000000 C187.000000 259.037323 185.925995 261.630005 183.778000 263.778015 C181.630005 265.925995 179.037338 267.000000 176.000000 267.000000 C172.962662 267.000000 170.369995 265.925995 168.222000 263.778015 C166.074005 261.630005 165.000000 259.037323 165.000000 256.000000 C165.000000 252.962662 166.074005 250.369995 168.222000 248.222000 C170.369995 246.074005 172.962662 245.000000 176.000000 245.000000 C179.037338 245.000000 181.630005 246.074005 183.778000 248.222000 C185.925995 250.369995 187.000000 252.962662 187.000000 256.000000"></path>
<path id="" fill="#808080" fill-opacity="1.0" stroke="#000000" stroke-width="0.0" stroke-opacity="1.0" stroke-linecap="round" stroke-linejoin="round"  filling="0" d="M185.000000 256.000000 C185.000000 253.514664 184.121338 251.393341 182.363998 249.636002 C180.606659 247.878662 178.485336 247.000000 176.000000 247.000000 C173.514664 247.000000 171.393341 247.878662 169.636002 249.636002 C167.878662 251.393341 167.000000 253.514664 167.000000 256.000000 C167.000000 258.485321 167.878662 260.606659 169.636002 262.364014 C171.393341 264.121338 173.514664 265.000000 176.000000 265.000000 C178.485336 265.000000 180.606659 264.121338 182.363998 262.364014 C184.121338 260.606659 185.000000 258.485321 185.000000 256.000000"></path>
<path id="" fill="#808080" fill-opacity="1.0" stroke="#000000" stroke-width="0.0" stroke-opacity="1.0" stroke-linecap="round" stroke-linejoin="round"  filling="0" d="M227.000000 256.000000 C227.000000 259.037323 225.925995 261.630005 223.778000 263.778015 C221.630005 265.925995 219.037338 267.000000 216.000000 267.000000 C212.962662 267.000000 210.369995 265.925995 208.222000 263.778015 C206.074005 261.630005 205.000000 259.037323 205.000000 256.000000 C205.000000 252.962662 206.074005 250.369995 208.222000 248.222000 C210.369995 246.074005 212.962662 245.000000 216.000000 245.000000 C219.037338 245.000000 221.630005 246.074005 223.778000 248.222000 C225.925995 250.369995 227.000000 252.962662 227.000000 256.000000"></path>
<path id="" fill="#808080" fill-opacity="1.0" stroke="#000000" stroke-width="0.0" stroke-opacity="1.0" stroke-linecap="round" stroke-linejoin="round"  filling="0" d="M225.000000 256.000000 C225.000000 253.514664 224.121338 251.393341 222.363998 249.636002 C220.606659 247.878662 218.485336 247.000000 216.000000 247.000000 C213.514664 247.000000 211.393341 247.878662 209.636002 249.636002 C207.878662 251.393341 207.000000 253.514664 207.000000 256.000000 C207.000000 258.485321 207.878662 260.606659 209.636002 262.364014 C211.393341 264.121338 213.514664 265.000000 216.000000 265.000000 C218.485336 265.000000 220.606659 264.121338 222.363998 262.364014 C224.121338 260.606659 225.000000 258.485321 225.000000 256.000000"></path>
<path id="" fill="#808080" fill-opacity="1.0" stroke="#000000" stroke-width="0.0" stroke-opacity="1.0" stroke-linecap="round" stroke-linejoin="round"  filling="0" d="M267.000000 256.000000 C267.000000 259.037323 265.925995 261.630005 263.778015 263.778015 C261.630005 265.925995 259.037323 267.000000 256.000000 267.000000 C252.962662 267.000000 250.369995 265.925995 248.222000 263.778015 C246.074005 261.630005 245.000000 259.037323 245.000000 256.000000 C245.000000 252.962662 246.074005 250.369995 248.222000 248.222000 C250.369995 246.074005 252.962662 245.000000 256.000000 245.000000 C259.037323 245.000000 261.630005 246.074005 263.778015 248.222000 C265.925995 250.369995 267.000000 252.962662 267.000000 256.000000"></path>
<path id="" fill="#808080" fill-opacity="1.0" stroke="#000000" stroke-width="0.0" stroke-opacity="1.0" stroke-linecap="round" stroke-linejoin="round"  filling="0" d="M265.000000 256.000000 C265.000000 253.514664 264.121338 251.393341 262.364014 249.636002 C260.606659 247.878662 258.485321 247.000000 256.000000 247.000000 C253.514664 247.000000 251.393341 247.878662 249.636002 249.636002 C247.878662 251.393341 247.000000 253.514664 247.000000 256.000000 C247.000000 258.485321 247.878662 260.606659 249.636002 262.364014 C251.393341 264.121338 253.514664 265.000000 256.000000 265.000000 C258.485321 265.000000 260.606659 264.121338 262.364014 262.364014 C264.121338 260.606659 265.000000 258.485321 265.000000 256.000000"></path>
<path id="" fill="#808080" fill-opacity="1.0" stroke="#000000" stroke-width="0.0" stroke-opacity="1.0" stroke-linecap="round" stroke-linejoin="round"  filling="0" d="M307.000000 256.000000 C307.000000 259.037323 305.925995 261.630005 303.778015 263.778015 C301.630005 265.925995 299.037323 267.000000 296.000000 267.000000 C292.962677 267.000000 290.369995 265.925995 288.221985 263.778015 C286.074005 261.630005 285.000000 259.037323 285.000000 256.000000 C285.000000 252.962662 286.074005 250.369995 288.221985 248.222000 C290.369324 246.074005 292.962006 245.000000 296.000000 245.000000 C299.037323 245.000000 301.630005 246.074005 303.778015 248.222000 C305.925995 250.369995 307.000000 252.962662 307.000000 256.000000"></path>
<path id="" fill="#808080" fill-opacity="1.0" stroke="#000000" stroke-width="0.0" stroke-opacity="1.0" stroke-linecap="round" stroke-linejoin="round"  filling="0" d="M305.000000 256.000000 C305.000000 253.514664 304.121338 251.393341 302.364014 249.636002 C300.606659 247.878662 298.485321 247.000000 296.000000 247.000000 C293.514679 247.000000 291.393341 247.878662 289.635986 249.636002 C287.878662 251.393341 287.000000 253.514664 287.000000 256.000000 C287.000000 258.485321 287.878662 260.606659 289.635986 262.364014 C291.393341 264.121338 293.514679 265.000000 296.000000 265.000000 C298.485321 265.000000 300.606659 264.121338 302.364014 262.364014 C304.121338 260.606659 305.000000 258.485321 305.000000 256.000000"></path>
<path id="" fill="#808080" fill-opacity="1.0" stroke="#000000" stroke-width="0.0" stroke-opacity="1.0" stroke-linecap="round" stroke-linejoin="round"  filling="0" d="M347.000000 256.000000 C347.000000 259.037323 345.925995 261.630005 343.778015 263.778015 C341.630005 265.925995 339.037323 267.000000 336.000000 267.000000 C332.962677 267.000000 330.369995 265.925995 328.221985 263.778015 C326.074005 261.630005 325.000000 259.037323 325.000000 256.000000 C325.000000 252.962662 326.074005 250.369995 328.221985 248.222000 C330.369995 246.074005 332.962677 245.000000 336.000000 245.000000 C339.037323 245.000000 341.630005 246.074005 343.778015 248.222000 C345.925995 250.369995 347.000000 252.962662 347.000000 256.000000"></path>
<path id="" fill="#808080" fill-opacity="1.0" stroke="#000000" stroke-width="0.0" stroke-opacity="1.0" stroke-linecap="round" stroke-linejoin="round"  filling="0" d="M345.000000 256.000000 C345.000000 253.514664 344.121338 251.393341 342.364014 249.636002 C340.606659 247.878662 338.485321 247.000000 336.000000 247.000000 C333.514679 247.000000 331.393341 247.878662 329.635986 249.636002 C327.878662 251.393341 327.000000 253.514664 327.000000 256.000000 C327.000000 258.485321 327.878662 260.606659 329.635986 262.364014 C331.393341 264.121338 333.514679 265.000000 336.000000 265.000000 C338.485321 265.000000 340.606659 264.121338 342.364014 262.364014 C344.121338 260.606659 345.000000 258.485321 345.000000 256.000000"></path>
<path id="" fill="#808080" fill-opacity="1.0" stroke="#000000" stroke-width="0.0" stroke-opacity="1.0" stroke-linecap="round" stroke-linejoin="round"  filling="0" d="M387.000000 256.000000 C387.000000 259.037323 385.925995 261.630005 383.778015 263.778015 C381.630005 265.925995 379.037323 267.000000 376.000000 267.000000 C372.962677 267.000000 370.369995 265.925995 368.221985 263.778015 C366.074005 261.630005 365.000000 259.037323 365.000000 256.000000 C365.000000 252.962662 366.074005 250.369995 368.221985 248.222000 C370.369995 246.074005 372.962677 245.000000 376.000000 245.000000 C379.037994 245.000000 381.630676 246.074005 383.778015 248.222000 C385.925995 250.369995 387.000000 252.962662 387.000000 256.000000"></path>
<path id="" fill="#808080" fill-opacity="1.0" stroke="#000000" stroke-width="0.0" stroke-opacity="1.0" stroke-linecap="round" stroke-linejoin="round"  filling="0" d="M385.000000 256.000000 C385.000000 253.514664 384.121338 251.393341 382.364014 249.636002 C380.606659 247.878662 378.485321 247.000000 376.000000 247.000000 C373.514679 247.000000 371.393341 247.878662 369.635986 249.636002 C367.878662 251.393341 367.000000 253.514664 367.000000 256.000000 C367.000000 258.485321 367.878662 260.606659 369.635986 262.364014 C371.393341 264.121338 373.514679 265.000000 376.000000 265.000000 C378.485321 265.000000 380.606659 264.121338 382.364014 262.364014 C384.121338 260.606659 385.000000 258.485321 385.000000 256.000000"></path>
<path id="" fill="#808080" fill-opacity="1.0" stroke="#000000" stroke-width="0.0" stroke-opacity="1.0" stroke-linecap="round" stroke-linejoin="round"  filling="0" d="M427.000000 256.000000 C427.000000 259.037323 425.925995 261.630005 423.778015 263.778015 C421.630005 265.925995 419.037323 267.000000 416.000000 267.000000 C412.962677 267.000000 410.369995 265.925995 408.221985 263.778015 C406.074005 261.630005 405.000000 259.037323 405.000000 256.000000 C405.000000 252.962662 406.074005 250.369995 408.221985 248.222000 C410.369995 246.074005 412.962677 245.000000 416.000000 245.000000 C419.037323 245.000000 421.630005 246.074005 423.778015 248.222000 C425.925995 250.369995 427.000000 252.962662 427.000000 256.000000"></path>
<path id="" fill="#808080" fill-opacity="1.0" stroke="#000000" stroke-width="0.0" stroke-opacity="1.0" stroke-linecap="round" stroke-linejoin="round"  filling="0" d="M425.000000 256.000000 C425.000000 253.514664 424.121338 251.393341 422.364014 249.636002 C420.606659 247.878662 418.485321 247.000000 416.000000 247.000000 C413.514679 247.000000 411.393341 247.878662 409.635986 249.636002 C407.878662 251.393341 407.000000 253.514664 407.000000 256.000000 C407.000000 258.485321 407.878662 260.606659 409.635986 262.364014 C411.393341 264.121338 413.514679 265.000000 416.000000 265.000000 C418.485321 265.000000 420.606659 264.121338 422.364014 262.364014 C424.121338 260.606659 425.000000 258.485321 425.000000 256.000000"></path>
<path id="" fill="#808080" fill-opacity="1.0" stroke="#000000" stroke-width="0.0" stroke-opacity="1.0" stroke-linecap="round" stroke-linejoin="round"  filling="0" d="M97.500000 266.000000 C97.500000 272.666656 97.500000 279.333344 97.500000 286.000000 C96.500000 286.000000 95.500000 286.000000 94.500000 286.000000 C94.500000 279.333344 94.500000 272.666656 94.500000 266.000000 C95.500000 266.000000 96.500000 266.000000 97.500000 266.000000"></path>
<path id="" fill="#808080" fill-opacity="1.0" stroke="#000000" stroke-width="0.0" stroke-opacity="1.0" stroke-linecap="round" stroke-linejoin="round"  filling="0" d="M137.500000 266.000000 C137.500000 272.666656 137.500000 279.333344 137.500000 286.000000 C136.500000 286.000000 135.500000 286.000000 134.500000 286.000000 C134.500000 279.333344 134.500000 272.666656 134.500000 266.000000 C135.500000 266.000000 136.500000 266.000000 137.500000 266.000000"></path>
<path id="" fill="#808080" fill-opacity="1.0" stroke="#000000" stroke-width="0.0" stroke-opacity="1.0" stroke-linecap="round" stroke-linejoin="round"  filling="0" d="M177.500000 266.000000 C177.500000 272.666656 177.500000 279.333344 177.500000 286.000000 C176.500000 286.000000 175.500000 286.000000 174.500000 286.000000 C174.500000 279.333344 174.500000 272.666656 174.500000 266.000000 C175.500000 266.000000 176.500000 266.000000 177.500000 266.000000"></path>
<path id="" fill="#808080" fill-opacity="1.0" stroke="#000000" stroke-width="0.0" stroke-opacity="1.0" stroke-linecap="round" stroke-linejoin="round"  filling="0" d="M217.500000 266.000000 C217.500000 272.666656 217.500000 279.333344 217.500000 286.000000 C216.500000 286.000000 215.500000 286.000000 214.500000 286.000000 C214.500000 279.333344 214.500000 272.666656 214.500000 266.000000 C215.500000 266.000000 216.500000 266.000000 217.500000 266.000000"></path>
<path id="" fill="#808080" fill-opacity="1.0" stroke="#000000" stroke-width="0.0" stroke-opacity="1.0" stroke-linecap="round" stroke-linejoin="round"  filling="0" d="M257.500000 266.000000 C257.500000 272.666656 257.500000 279.333344 257.500000 286.000000 C256.500000 286.000000 255.500000 286.000000 254.500000 286.000000 C254.500000 279.333344 254.500000 272.666656 254.500000 266.000000 C255.500000 266.000000 256.500000 266.000000 257.500000 266.000000"></path>
<path id="" fill="#808080" fill-opacity="1.0" stroke="#000000" stroke-width="0.0" stroke-opacity="1.0" stroke-linecap="round" stroke-linejoin="round"  filling="0" d="M297.500000 266.000000 C297.500000 272.666656 297.500000 279.333344 297.500000 286.000000 C296.500000 286.000000 295.500000 286.000000 294.500000 286.000000 C294.500000 279.333344 294.500000 272.666656 294.500000 266.000000 C295.500000 266.000000 296.500000 266.000000 297.500000 266.000000"></path>
<path id="" fill="#808080" fill-opacity="1.0" stroke="#000000" stroke-width="0.0" stroke-opacity="1.0" stroke-linecap="round" stroke-linejoin="round"  filling="0" d="M337.500000 266.000000 C337.500000 272.666656 337.500000 279.333344 337.500000 286.000000 C336.500000 286.000000 335.500000 286.000000 334.500000 286.000000 C334.500000 279.333344 334.500000 272.666656 334.500000 266.000000 C335.500000 266.000000 336.500000 266.000000 337.500000 266.000000"></path>
<path id="" fill="#808080" fill-opacity="1.0" stroke="#000000" stroke-width="0.0" stroke-opacity="1.0" stroke-linecap="round" stroke-linejoin="round"  filling="0" d="M377.500000 266.000000 C377.500000 272.666656 377.500000 279.333344 377.500000 286.000000 C376.500000 286.000000 375.500000 286.000000 374.500000 286.000000 C374.500000 279.333344 374.500000 272.666656 374.500000 266.000000 C375.500000 266.000000 376.500000 266.000000 377.500000 266.000000"></path>
<path id="" fill="#808080" fill-opacity="1.0" stroke="#000000" stroke-width="0.0" stroke-opacity="1.0" stroke-linecap="round" stroke-linejoin="round"  filling="0" d="M417.500000 266.000000 C417.500000 272.666656 417.500000 279.333344 417.500000 286.000000 C416.500000 286.000000 415.500000 286.000000 414.500000 286.000000 C414.500000 279.333344 414.500000 272.666656 414.500000 266.000000 C415.500000 266.000000 416.500000 266.000000 417.500000 266.000000"></path>
<path id="" fill="#D3D3D3" fill-opacity="1.0" stroke="#000000" stroke-width="0.0" stroke-opacity="1.0" stroke-linecap="round" stroke-linejoin="round"  filling="0" d="M55.974998 225.000000 C189.325012 221.664001 322.674988 221.664001 456.024994 225.000000 C456.008331 225.666672 455.991669 226.333328 455.975006 227.000000 C322.658325 223.666672 189.341675 223.666672 56.025002 227.000000 C56.008335 226.333328 55.991665 225.666672 55.974998 225.000000"></path>
<path id="" fill="#A9A9A9" fill-opacity="1.0" stroke="#000000" stroke-width="0.0" stroke-opacity="1.0" stroke-linecap="round" stroke-linejoin="round"  filling="0" d="M56.025002 285.000000 C189.341675 288.333344 322.658325 288.333344 455.975006 285.000000 C455.991669 285.666656 456.008331 286.333344 456.024994 287.000000 C322.674988 290.335999 189.325012 290.335999 55.974998 287.000000 C55.991665 286.333344 56.008335 285.666656 56.025002 285.000000"></path>
</svg>