<svg xmlns="http://www.w3.org/2000/svg" viewBox="0 0 512 512" height="512.0px" width="512.0px">
<path id="" fill="#000000" fill-opacity="1.0" stroke="#000000" stroke-width="0.0" stroke-opacity="1.0" stroke-linecap="round" stroke-linejoin="round"  filling="0" d="M181.000000 156.000000 C231.000000 156.000000 281.000000 156.000000 331.000000 156.000000 C331.000000 222.666672 331.000000 289.333313 331.000000 356.000000 C281.000000 356.000000 231.000000 356.000000 181.000000 356.000000 C181.000000 289.333313 181.000000 222.666672 181.000000 156.000000"></path>
<path id="" fill="#000000" fill-opacity="1.0" stroke="#000000" stroke-width="0.0" stroke-opacity="1.0" stroke-linecap="round" stroke-linejoin="round"  filling="0" d="M386.000000 356.000000 C386.000000 362.627869 372.294281 368.991058 347.923889 373.677673 C323.553497 378.364288 290.464905 381.000000 256.000000 381.000000 C221.535080 381.000000 188.446487 378.364288 164.076111 373.677673 C139.705734 368.991058 126.000000 362.627869 126.000000 356.000000 C126.000000 349.372131 139.705734 343.008942 164.076111 338.322327 C188.446487 333.635712 221.535080 331.000000 256.000000 331.000000 C290.464905 331.000000 323.553497 333.635712 347.923889 338.322327 C372.294281 343.008942 386.000000 349.372131 386.000000 356.000000"></path>
<path id="" fill="#000000" fill-opacity="1.0" stroke="#000000" stroke-width="0.0" stroke-opacity="1.0" stroke-linecap="round" stroke-linejoin="round"  filling="0" d="M331.000000 156.000000 C331.000000 162.627869 323.092865 168.991058 309.033020 173.677673 C294.973175 178.364288 275.883606 181.000000 256.000000 181.000000 C236.116394 181.000000 217.026825 178.364288 202.966995 173.677673 C188.907166 168.991058 181.000000 162.627869 181.000000 156.000000 C181.000000 149.372131 188.907166 143.008942 202.966995 138.322327 C217.026825 133.635712 236.116394 131.000000 256.000000 131.000000 C275.883606 131.000000 294.973175 133.635712 309.033020 138.322327 C323.092865 143.008942 331.000000 149.372131 331.000000 156.000000"></path>
<path id="" fill="#ff0000" fill-opacity="1.0" stroke="#000000" stroke-width="0.0" stroke-opacity="1.0" stroke-linecap="round" stroke-linejoin="round"  filling="0" d="M181.000000 316.000000 C231.000000 316.000000 281.000000 316.000000 331.000000 316.000000 C331.000000 326.000000 331.000000 336.000000 331.000000 346.000000 C281.000000 346.000000 231.000000 346.000000 181.000000 346.000000 C181.000000 336.000000 181.000000 326.000000 181.000000 316.000000"></path>
<path id="" fill="#d0c9c9" fill-opacity="1.0" stroke="#000000" stroke-width="0.0" stroke-opacity="1.0" stroke-linecap="round" stroke-linejoin="round"  filling="0" d="M241.259995 99.559998 C245.677994 121.651001 242.544006 140.903000 234.259995 142.559998 C225.975998 144.216995 215.677994 127.651001 211.259995 105.559998 C206.841995 83.469002 209.975998 64.217003 218.259995 62.560001 C226.544006 60.903000 236.841995 77.469002 241.259995 99.559998"></path>
<path id="" fill="#d0c9c9" fill-opacity="1.0" stroke="#000000" stroke-width="0.0" stroke-opacity="1.0" stroke-linecap="round" stroke-linejoin="round"  filling="0" d="M310.700012 114.919998 C306.282013 137.011002 295.984009 153.576996 287.700012 151.919998 C279.415985 150.263000 276.282013 131.011002 280.700012 108.919998 C285.118011 86.829002 295.415985 70.263000 303.700012 71.919998 C311.984009 73.577003 315.118011 92.829002 310.700012 114.919998"></path>
</svg>