<svg xmlns="http://www.w3.org/2000/svg" viewBox="0 0 512 512" height="512.0px" width="512.0px">
<path id="" fill="#E6F3FF" fill-opacity="1.0" stroke="#000000" stroke-width="0.0" stroke-opacity="1.0" stroke-linecap="round" stroke-linejoin="round"  filling="0" d="M0.000000 0.000000 C170.666672 0.000000 341.333313 0.000000 512.000000 0.000000 C512.000000 170.666672 512.000000 341.333313 512.000000 512.000000 C341.333313 512.000000 170.666672 512.000000 0.000000 512.000000 C0.000000 341.333313 0.000000 170.666672 0.000000 0.000000"></path>
<path id="" fill="#4A4A4A" fill-opacity="1.0" stroke="#000000" stroke-width="0.0" stroke-opacity="1.0" stroke-linecap="round" stroke-linejoin="round"  filling="0" d="M56.000000 456.000000 C122.666672 389.333313 189.333328 322.666687 256.000000 256.000000 C322.666687 322.666687 389.333313 389.333313 456.000000 456.000000 C322.666656 456.000000 189.333344 456.000000 56.000000 456.000000"></path>
<path id="" fill="#FFFFFF" fill-opacity="1.0" stroke="#000000" stroke-width="0.0" stroke-opacity="1.0" stroke-linecap="round" stroke-linejoin="round"  filling="0" d="M216.000000 296.000000 C229.333328 282.666656 242.666672 269.333344 256.000000 256.000000 C269.333344 269.333344 282.666656 282.666656 296.000000 296.000000 C289.333344 299.333344 282.666656 302.666656 276.000000 306.000000 C262.666656 299.333344 249.333328 292.666656 236.000000 286.000000 C229.333328 289.333344 222.666672 292.666656 216.000000 296.000000"></path>
<path id="" fill="#5A5A5A" fill-opacity="1.0" stroke="#000000" stroke-width="0.0" stroke-opacity="1.0" stroke-linecap="round" stroke-linejoin="round"  filling="0" d="M0.000000 456.000000 C50.000000 396.000000 100.000000 336.000000 150.000000 276.000000 C200.000000 336.000000 250.000000 396.000000 300.000000 456.000000 C200.000000 456.000000 100.000000 456.000000 0.000000 456.000000"></path>
<path id="" fill="#FFFFFF" fill-opacity="1.0" stroke="#000000" stroke-width="0.0" stroke-opacity="1.0" stroke-linecap="round" stroke-linejoin="round"  filling="0" d="M120.000000 306.000000 C130.000000 296.000000 140.000000 286.000000 150.000000 276.000000 C160.000000 286.000000 170.000000 296.000000 180.000000 306.000000 C173.333328 309.333344 166.666672 312.666656 160.000000 316.000000 C153.333328 311.000000 146.666672 306.000000 140.000000 301.000000 C133.333328 302.666656 126.666664 304.333344 120.000000 306.000000"></path>
<path id="" fill="#6A6A6A" fill-opacity="1.0" stroke="#000000" stroke-width="0.0" stroke-opacity="1.0" stroke-linecap="round" stroke-linejoin="round"  filling="0" d="M275.000000 456.000000 C316.666656 402.666656 358.333344 349.333344 400.000000 296.000000 C441.666656 349.333344 483.333344 402.666656 525.000000 456.000000 C441.666656 456.000000 358.333344 456.000000 275.000000 456.000000"></path>
<path id="" fill="#FFFFFF" fill-opacity="1.0" stroke="#000000" stroke-width="0.0" stroke-opacity="1.0" stroke-linecap="round" stroke-linejoin="round"  filling="0" d="M375.000000 316.000000 C383.333344 309.333344 391.666656 302.666656 400.000000 296.000000 C408.333344 302.666656 416.666656 309.333344 425.000000 316.000000 C420.000000 319.333344 415.000000 322.666656 410.000000 326.000000 C403.333344 321.000000 396.666656 316.000000 390.000000 311.000000 C385.000000 312.666656 380.000000 314.333344 375.000000 316.000000"></path>
<path id="" fill="#87CEFA" fill-opacity="1.0" stroke="#000000" stroke-width="0.0" stroke-opacity="1.0" stroke-linecap="round" stroke-linejoin="round"  filling="0" d="M0.000000 492.000000 C85.333336 484.000000 170.666656 485.333344 256.000000 496.000000 C341.333344 506.666656 426.666656 505.333344 512.000000 492.000000 C341.333313 492.000000 170.666672 492.000000 0.000000 492.000000"></path>
<path id="" fill="#5F9EA0" fill-opacity="1.0" stroke="#000000" stroke-width="0.0" stroke-opacity="1.0" stroke-linecap="round" stroke-linejoin="round"  filling="0" d="M-0.093000 491.003998 C85.303009 482.996002 170.708664 484.330658 256.123993 495.007996 C341.372009 505.664001 426.612671 504.332001 511.846008 491.011993 C511.948669 491.670654 512.051331 492.329346 512.153992 492.988007 C426.733337 506.337341 341.307343 507.672028 255.876007 496.992004 C170.606003 486.333344 85.345001 485.001343 0.093000 492.996002 C0.031000 492.332001 -0.031000 491.667999 -0.093000 491.003998"></path>
<path id="" fill="#5F9EA0" fill-opacity="1.0" stroke="#000000" stroke-width="0.0" stroke-opacity="1.0" stroke-linecap="round" stroke-linejoin="round"  filling="0" d="M-0.124000 511.007996 C42.607334 505.666656 85.335999 504.331329 128.061996 507.002014 C170.708008 509.667328 213.354004 511.000000 256.000000 511.000000 C256.000000 511.666656 256.000000 512.333313 256.000000 513.000000 C213.312653 513.000000 170.625336 511.665985 127.938004 508.997986 C85.335999 506.336670 42.731339 507.667999 0.124000 512.992004 C0.041333 512.330688 -0.041333 511.669342 -0.124000 511.007996"></path>
<path id="" fill="#5F9EA0" fill-opacity="1.0" stroke="#000000" stroke-width="0.0" stroke-opacity="1.0" stroke-linecap="round" stroke-linejoin="round"  filling="0" d="M255.876007 511.007996 C298.607330 505.666656 341.335999 504.331329 384.062012 507.002014 C426.708008 509.667328 469.354004 511.000000 512.000000 511.000000 C512.000000 511.666656 512.000000 512.333313 512.000000 513.000000 C469.312653 513.000000 426.625336 511.665985 383.937988 508.997986 C341.335327 506.336670 298.730652 507.667999 256.123993 512.992004 C256.041321 512.330688 255.958664 511.669342 255.876007 511.007996"></path>
</svg>