<svg xmlns="http://www.w3.org/2000/svg" viewBox="0 0 512 512" height="512.0px" width="512.0px">
<path id="" fill="#000033" fill-opacity="1.0" stroke="#000000" stroke-width="0.0" stroke-opacity="1.0" stroke-linecap="round" stroke-linejoin="round"  filling="0" d="M0.000000 0.000000 C170.666672 0.000000 341.333313 0.000000 512.000000 0.000000 C512.000000 170.666672 512.000000 341.333313 512.000000 512.000000 C341.333313 512.000000 170.666672 512.000000 0.000000 512.000000 C0.000000 341.333313 0.000000 170.666672 0.000000 0.000000"></path>
<path id="" fill="#FFFFFF" fill-opacity="1.0" stroke="#000000" stroke-width="0.0" stroke-opacity="1.0" stroke-linecap="round" stroke-linejoin="round"  filling="0" d="M121.500000 80.000000 C121.500000 80.397675 121.341858 80.779465 121.060661 81.060661 C120.779465 81.341858 120.397675 81.500000 120.000000 81.500000 C119.602325 81.500000 119.220535 81.341858 118.939339 81.060661 C118.658142 80.779465 118.500000 80.397675 118.500000 80.000000 C118.500000 79.602325 118.658142 79.220535 118.939339 78.939339 C119.220535 78.658142 119.602325 78.500000 120.000000 78.500000 C120.397675 78.500000 120.779465 78.658142 121.060661 78.939339 C121.341858 79.220535 121.500000 79.602325 121.500000 80.000000"></path>
<path id="" fill="#FFFFFF" fill-opacity="1.0" stroke="#000000" stroke-width="0.0" stroke-opacity="1.0" stroke-linecap="round" stroke-linejoin="round"  filling="0" d="M301.500000 70.000000 C301.500000 70.397675 301.341858 70.779465 301.060669 71.060661 C300.779480 71.341858 300.397675 71.500000 300.000000 71.500000 C299.602325 71.500000 299.220520 71.341858 298.939331 71.060661 C298.658142 70.779465 298.500000 70.397675 298.500000 70.000000 C298.500000 69.602325 298.658142 69.220535 298.939331 68.939339 C299.220520 68.658142 299.602325 68.500000 300.000000 68.500000 C300.397675 68.500000 300.779480 68.658142 301.060669 68.939339 C301.341858 69.220535 301.500000 69.602325 301.500000 70.000000"></path>
<path id="" fill="#FFFFFF" fill-opacity="1.0" stroke="#000000" stroke-width="0.0" stroke-opacity="1.0" stroke-linecap="round" stroke-linejoin="round"  filling="0" d="M481.500000 90.000000 C481.500000 90.397675 481.341858 90.779465 481.060669 91.060661 C480.779480 91.341858 480.397675 91.500000 480.000000 91.500000 C479.602325 91.500000 479.220520 91.341858 478.939331 91.060661 C478.658142 90.779465 478.500000 90.397675 478.500000 90.000000 C478.500000 89.602325 478.658142 89.220535 478.939331 88.939339 C479.220520 88.658142 479.602325 88.500000 480.000000 88.500000 C480.397675 88.500000 480.779480 88.658142 481.060669 88.939339 C481.341858 89.220535 481.500000 89.602325 481.500000 90.000000"></path>
<path id="" fill="#FFFFFF" fill-opacity="1.0" stroke="#000000" stroke-width="0.0" stroke-opacity="1.0" stroke-linecap="round" stroke-linejoin="round"  filling="0" d="M82.500000 150.000000 C82.500000 150.662781 82.236427 151.299103 81.767769 151.767761 C81.299110 152.236420 80.662788 152.500000 80.000000 152.500000 C79.337212 152.500000 78.700890 152.236420 78.232231 151.767761 C77.763573 151.299103 77.500000 150.662781 77.500000 150.000000 C77.500000 149.337219 77.763573 148.700897 78.232231 148.232239 C78.700890 147.763580 79.337212 147.500000 80.000000 147.500000 C80.662788 147.500000 81.299110 147.763580 81.767769 148.232239 C82.236427 148.700897 82.500000 149.337219 82.500000 150.000000"></path>
<path id="" fill="#FFFFFF" fill-opacity="1.0" stroke="#000000" stroke-width="0.0" stroke-opacity="1.0" stroke-linecap="round" stroke-linejoin="round"  filling="0" d="M252.000000 200.000000 C252.000000 200.530228 251.789139 201.039291 251.414215 201.414215 C251.039291 201.789139 250.530228 202.000000 250.000000 202.000000 C249.469772 202.000000 248.960709 201.789139 248.585785 201.414215 C248.210861 201.039291 248.000000 200.530228 248.000000 200.000000 C248.000000 199.469772 248.210861 198.960709 248.585785 198.585785 C248.960709 198.210861 249.469772 198.000000 250.000000 198.000000 C250.530228 198.000000 251.039291 198.210861 251.414215 198.585785 C251.789139 198.960709 252.000000 199.469772 252.000000 200.000000"></path>
<path id="" fill="#FFFFFF" fill-opacity="1.0" stroke="#000000" stroke-width="0.0" stroke-opacity="1.0" stroke-linecap="round" stroke-linejoin="round"  filling="0" d="M422.500000 180.000000 C422.500000 180.662781 422.236420 181.299103 421.767761 181.767761 C421.299103 182.236420 420.662781 182.500000 420.000000 182.500000 C419.337219 182.500000 418.700897 182.236420 418.232239 181.767761 C417.763580 181.299103 417.500000 180.662781 417.500000 180.000000 C417.500000 179.337219 417.763580 178.700897 418.232239 178.232239 C418.700897 177.763580 419.337219 177.500000 420.000000 177.500000 C420.662781 177.500000 421.299103 177.763580 421.767761 178.232239 C422.236420 178.700897 422.500000 179.337219 422.500000 180.000000"></path>
<path id="" fill="#FFFFFF" fill-opacity="1.0" stroke="#000000" stroke-width="0.0" stroke-opacity="1.0" stroke-linecap="round" stroke-linejoin="round"  filling="0" d="M152.000000 350.000000 C152.000000 350.530243 151.789139 351.039276 151.414215 351.414215 C151.039291 351.789154 150.530228 352.000000 150.000000 352.000000 C149.469772 352.000000 148.960709 351.789154 148.585785 351.414215 C148.210861 351.039276 148.000000 350.530243 148.000000 350.000000 C148.000000 349.469757 148.210861 348.960724 148.585785 348.585785 C148.960709 348.210846 149.469772 348.000000 150.000000 348.000000 C150.530228 348.000000 151.039291 348.210846 151.414215 348.585785 C151.789139 348.960724 152.000000 349.469757 152.000000 350.000000"></path>
<path id="" fill="#FFFFFF" fill-opacity="1.0" stroke="#000000" stroke-width="0.0" stroke-opacity="1.0" stroke-linecap="round" stroke-linejoin="round"  filling="0" d="M352.500000 400.000000 C352.500000 400.662781 352.236420 401.299103 351.767761 401.767761 C351.299103 402.236420 350.662781 402.500000 350.000000 402.500000 C349.337219 402.500000 348.700897 402.236420 348.232239 401.767761 C347.763580 401.299103 347.500000 400.662781 347.500000 400.000000 C347.500000 399.337219 347.763580 398.700897 348.232239 398.232239 C348.700897 397.763580 349.337219 397.500000 350.000000 397.500000 C350.662781 397.500000 351.299103 397.763580 351.767761 398.232239 C352.236420 398.700897 352.500000 399.337219 352.500000 400.000000"></path>
<path id="" fill="#FFFFD0" fill-opacity="1.0" stroke="#000000" stroke-width="0.0" stroke-opacity="1.0" stroke-linecap="round" stroke-linejoin="round"  filling="0" d="M184.000000 100.000000 C184.000000 101.060455 183.578293 102.078575 182.828430 102.828430 C182.078568 103.578285 181.060455 104.000000 180.000000 104.000000 C178.939545 104.000000 177.921432 103.578285 177.171570 102.828430 C176.421707 102.078575 176.000000 101.060455 176.000000 100.000000 C176.000000 98.939545 176.421707 97.921425 177.171570 97.171570 C177.921432 96.421715 178.939545 96.000000 180.000000 96.000000 C181.060455 96.000000 182.078568 96.421715 182.828430 97.171570 C183.578293 97.921425 184.000000 98.939545 184.000000 100.000000"></path>
<path id="" fill="#FFFFD0" fill-opacity="1.0" stroke="#000000" stroke-width="0.0" stroke-opacity="1.0" stroke-linecap="round" stroke-linejoin="round"  filling="0" d="M405.000000 300.000000 C405.000000 301.325562 404.472839 302.598206 403.535522 303.535522 C402.598206 304.472839 401.325562 305.000000 400.000000 305.000000 C398.674438 305.000000 397.401794 304.472839 396.464478 303.535522 C395.527161 302.598206 395.000000 301.325562 395.000000 300.000000 C395.000000 298.674438 395.527161 297.401794 396.464478 296.464478 C397.401794 295.527161 398.674438 295.000000 400.000000 295.000000 C401.325562 295.000000 402.598206 295.527161 403.535522 296.464478 C404.472839 297.401794 405.000000 298.674438 405.000000 300.000000"></path>
<path id="" fill="#FFFFD0" fill-opacity="1.0" stroke="#000000" stroke-width="0.0" stroke-opacity="1.0" stroke-linecap="round" stroke-linejoin="round"  filling="0" d="M104.500000 450.000000 C104.500000 451.193024 104.025574 452.338379 103.181984 453.181976 C102.338394 454.025574 101.193016 454.500000 100.000000 454.500000 C98.806984 454.500000 97.661606 454.025574 96.818016 453.181976 C95.974426 452.338379 95.500000 451.193024 95.500000 450.000000 C95.500000 448.806976 95.974426 447.661621 96.818016 446.818024 C97.661606 445.974426 98.806984 445.500000 100.000000 445.500000 C101.193016 445.500000 102.338394 445.974426 103.181984 446.818024 C104.025574 447.661621 104.500000 448.806976 104.500000 450.000000"></path>
<path id="" fill="#FFFFFF" fill-opacity="1.0" stroke="#000000" stroke-width="0.0" stroke-opacity="1.0" stroke-linecap="round" stroke-linejoin="round"  filling="0" d="M53.000000 200.000000 C53.000000 200.795349 52.683712 201.558929 52.121319 202.121323 C51.558926 202.683716 50.795345 203.000000 50.000000 203.000000 C49.204655 203.000000 48.441074 202.683716 47.878681 202.121323 C47.316288 201.558929 47.000000 200.795349 47.000000 200.000000 C47.000000 199.204651 47.316288 198.441071 47.878681 197.878677 C48.441074 197.316284 49.204655 197.000000 50.000000 197.000000 C50.795345 197.000000 51.558926 197.316284 52.121319 197.878677 C52.683712 198.441071 53.000000 199.204651 53.000000 200.000000"></path>
<path id="" fill="#FFFFFF" fill-opacity="1.0" stroke="#000000" stroke-width="0.0" stroke-opacity="1.0" stroke-linecap="round" stroke-linejoin="round"  filling="0" d="M103.000000 220.000000 C103.000000 220.795349 102.683716 221.558929 102.121323 222.121323 C101.558929 222.683716 100.795341 223.000000 100.000000 223.000000 C99.204659 223.000000 98.441071 222.683716 97.878677 222.121323 C97.316284 221.558929 97.000000 220.795349 97.000000 220.000000 C97.000000 219.204651 97.316284 218.441071 97.878677 217.878677 C98.441071 217.316284 99.204659 217.000000 100.000000 217.000000 C100.795341 217.000000 101.558929 217.316284 102.121323 217.878677 C102.683716 218.441071 103.000000 219.204651 103.000000 220.000000"></path>
<path id="" fill="#FFFFFF" fill-opacity="1.0" stroke="#000000" stroke-width="0.0" stroke-opacity="1.0" stroke-linecap="round" stroke-linejoin="round"  filling="0" d="M153.000000 240.000000 C153.000000 240.795349 152.683716 241.558929 152.121323 242.121323 C151.558929 242.683716 150.795349 243.000000 150.000000 243.000000 C149.204651 243.000000 148.441071 242.683716 147.878677 242.121323 C147.316284 241.558929 147.000000 240.795349 147.000000 240.000000 C147.000000 239.204651 147.316284 238.441071 147.878677 237.878677 C148.441071 237.316284 149.204651 237.000000 150.000000 237.000000 C150.795349 237.000000 151.558929 237.316284 152.121323 237.878677 C152.683716 238.441071 153.000000 239.204651 153.000000 240.000000"></path>
<path id="" fill="#FFFFFF" fill-opacity="1.0" stroke="#000000" stroke-width="0.0" stroke-opacity="1.0" stroke-linecap="round" stroke-linejoin="round"  filling="0" d="M203.000000 260.000000 C203.000000 260.795349 202.683716 261.558899 202.121323 262.121307 C201.558929 262.683716 200.795349 263.000000 200.000000 263.000000 C199.204651 263.000000 198.441071 262.683716 197.878677 262.121307 C197.316284 261.558899 197.000000 260.795349 197.000000 260.000000 C197.000000 259.204651 197.316284 258.441101 197.878677 257.878693 C198.441071 257.316284 199.204651 257.000000 200.000000 257.000000 C200.795349 257.000000 201.558929 257.316284 202.121323 257.878693 C202.683716 258.441101 203.000000 259.204651 203.000000 260.000000"></path>
<path id="" fill="#FFFFFF" fill-opacity="1.0" stroke="#000000" stroke-width="0.0" stroke-opacity="1.0" stroke-linecap="round" stroke-linejoin="round"  filling="0" d="M223.000000 300.000000 C223.000000 300.795349 222.683716 301.558899 222.121323 302.121307 C221.558929 302.683716 220.795349 303.000000 220.000000 303.000000 C219.204651 303.000000 218.441071 302.683716 217.878677 302.121307 C217.316284 301.558899 217.000000 300.795349 217.000000 300.000000 C217.000000 299.204651 217.316284 298.441101 217.878677 297.878693 C218.441071 297.316284 219.204651 297.000000 220.000000 297.000000 C220.795349 297.000000 221.558929 297.316284 222.121323 297.878693 C222.683716 298.441101 223.000000 299.204651 223.000000 300.000000"></path>
<path id="" fill="#FFFFFF" fill-opacity="1.0" stroke="#000000" stroke-width="0.0" stroke-opacity="1.0" stroke-linecap="round" stroke-linejoin="round"  filling="0" d="M263.000000 320.000000 C263.000000 320.795349 262.683716 321.558899 262.121307 322.121307 C261.558899 322.683716 260.795349 323.000000 260.000000 323.000000 C259.204651 323.000000 258.441101 322.683716 257.878693 322.121307 C257.316284 321.558899 257.000000 320.795349 257.000000 320.000000 C257.000000 319.204651 257.316284 318.441101 257.878693 317.878693 C258.441101 317.316284 259.204651 317.000000 260.000000 317.000000 C260.795349 317.000000 261.558899 317.316284 262.121307 317.878693 C262.683716 318.441101 263.000000 319.204651 263.000000 320.000000"></path>
<path id="" fill="#FFFFFF" fill-opacity="1.0" stroke="#000000" stroke-width="0.0" stroke-opacity="1.0" stroke-linecap="round" stroke-linejoin="round"  filling="0" d="M303.000000 340.000000 C303.000000 340.795349 302.683716 341.558899 302.121307 342.121307 C301.558899 342.683716 300.795349 343.000000 300.000000 343.000000 C299.204651 343.000000 298.441101 342.683716 297.878693 342.121307 C297.316284 341.558899 297.000000 340.795349 297.000000 340.000000 C297.000000 339.204651 297.316284 338.441101 297.878693 337.878693 C298.441101 337.316284 299.204651 337.000000 300.000000 337.000000 C300.795349 337.000000 301.558899 337.316284 302.121307 337.878693 C302.683716 338.441101 303.000000 339.204651 303.000000 340.000000"></path>
<path id="" fill="#FFFFFF" fill-opacity="1.0" stroke="#000000" stroke-width="0.0" stroke-opacity="1.0" stroke-linecap="round" stroke-linejoin="round"  filling="0" d="M383.000000 400.000000 C383.000000 400.795349 382.683716 401.558899 382.121307 402.121307 C381.558899 402.683716 380.795349 403.000000 380.000000 403.000000 C379.204651 403.000000 378.441101 402.683716 377.878693 402.121307 C377.316284 401.558899 377.000000 400.795349 377.000000 400.000000 C377.000000 399.204651 377.316284 398.441101 377.878693 397.878693 C378.441101 397.316284 379.204651 397.000000 380.000000 397.000000 C380.795349 397.000000 381.558899 397.316284 382.121307 397.878693 C382.683716 398.441101 383.000000 399.204651 383.000000 400.000000"></path>
<path id="" fill="#FFFFFF" fill-opacity="1.0" stroke="#000000" stroke-width="0.0" stroke-opacity="1.0" stroke-linecap="round" stroke-linejoin="round"  filling="0" d="M423.000000 420.000000 C423.000000 420.795349 422.683716 421.558899 422.121307 422.121307 C421.558899 422.683716 420.795349 423.000000 420.000000 423.000000 C419.204651 423.000000 418.441101 422.683716 417.878693 422.121307 C417.316284 421.558899 417.000000 420.795349 417.000000 420.000000 C417.000000 419.204651 417.316284 418.441101 417.878693 417.878693 C418.441101 417.316284 419.204651 417.000000 420.000000 417.000000 C420.795349 417.000000 421.558899 417.316284 422.121307 417.878693 C422.683716 418.441101 423.000000 419.204651 423.000000 420.000000"></path>
<path id="" fill="#FFFFFF" fill-opacity="1.0" stroke="#000000" stroke-width="0.0" stroke-opacity="1.0" stroke-linecap="round" stroke-linejoin="round"  filling="0" d="M463.000000 440.000000 C463.000000 440.795349 462.683716 441.558899 462.121307 442.121307 C461.558899 442.683716 460.795349 443.000000 460.000000 443.000000 C459.204651 443.000000 458.441101 442.683716 457.878693 442.121307 C457.316284 441.558899 457.000000 440.795349 457.000000 440.000000 C457.000000 439.204651 457.316284 438.441101 457.878693 437.878693 C458.441101 437.316284 459.204651 437.000000 460.000000 437.000000 C460.795349 437.000000 461.558899 437.316284 462.121307 437.878693 C462.683716 438.441101 463.000000 439.204651 463.000000 440.000000"></path>
</svg>