<svg xmlns="http://www.w3.org/2000/svg" viewBox="0 0 512 512" height="512.0px" width="512.0px">
<path id="" fill="#ADD8E6" fill-opacity="1.0" stroke="#000000" stroke-width="0.0" stroke-opacity="1.0" stroke-linecap="round" stroke-linejoin="round"  filling="0" d="M0.000000 0.000000 C170.666672 0.000000 341.333313 0.000000 512.000000 0.000000 C512.000000 170.666672 512.000000 341.333313 512.000000 512.000000 C341.333313 512.000000 170.666672 512.000000 0.000000 512.000000 C0.000000 341.333313 0.000000 170.666672 0.000000 0.000000"></path>
<path id="" fill="#800080" fill-opacity="1.0" stroke="#000000" stroke-width="0.0" stroke-opacity="1.0" stroke-linecap="round" stroke-linejoin="round"  filling="0" d="M326.000000 196.000000 C326.000000 219.860336 318.619965 242.767822 305.497467 259.639618 C292.374969 276.511414 274.558044 286.000000 256.000000 286.000000 C237.441971 286.000000 219.625046 276.511414 206.502533 259.639618 C193.380020 242.767822 186.000000 219.860336 186.000000 196.000000 C186.000000 172.139664 193.380020 149.232178 206.502533 132.360382 C219.625046 115.488579 237.441971 106.000000 256.000000 106.000000 C274.558044 106.000000 292.374969 115.488579 305.497467 132.360382 C318.619965 149.232178 326.000000 172.139664 326.000000 196.000000"></path>
<path id="" fill="#FFFFFF" fill-opacity="1.0" stroke="#000000" stroke-width="0.0" stroke-opacity="1.0" stroke-linecap="round" stroke-linejoin="round"  filling="0" d="M246.000000 170.000000 C246.000000 172.651154 244.945724 175.196426 243.071075 177.071075 C241.196426 178.945724 238.651154 180.000000 236.000000 180.000000 C233.348846 180.000000 230.803574 178.945724 228.928925 177.071075 C227.054276 175.196426 226.000000 172.651154 226.000000 170.000000 C226.000000 167.348846 227.054276 164.803574 228.928925 162.928925 C230.803574 161.054276 233.348846 160.000000 236.000000 160.000000 C238.651154 160.000000 241.196426 161.054276 243.071075 162.928925 C244.945724 164.803574 246.000000 167.348846 246.000000 170.000000"></path>
<path id="" fill="#000000" fill-opacity="1.0" stroke="#000000" stroke-width="0.0" stroke-opacity="1.0" stroke-linecap="round" stroke-linejoin="round"  filling="0" d="M241.000000 170.000000 C241.000000 171.325577 240.472855 172.598221 239.535538 173.535538 C238.598221 174.472855 237.325577 175.000000 236.000000 175.000000 C234.674423 175.000000 233.401779 174.472855 232.464462 173.535538 C231.527145 172.598221 231.000000 171.325577 231.000000 170.000000 C231.000000 168.674423 231.527145 167.401779 232.464462 166.464462 C233.401779 165.527145 234.674423 165.000000 236.000000 165.000000 C237.325577 165.000000 238.598221 165.527145 239.535538 166.464462 C240.472855 167.401779 241.000000 168.674423 241.000000 170.000000"></path>
<path id="" fill="#FFFFFF" fill-opacity="1.0" stroke="#000000" stroke-width="0.0" stroke-opacity="1.0" stroke-linecap="round" stroke-linejoin="round"  filling="0" d="M286.000000 170.000000 C286.000000 172.651154 284.945709 175.196426 283.071075 177.071075 C281.196442 178.945724 278.651154 180.000000 276.000000 180.000000 C273.348846 180.000000 270.803558 178.945724 268.928925 177.071075 C267.054291 175.196426 266.000000 172.651154 266.000000 170.000000 C266.000000 167.348846 267.054291 164.803574 268.928925 162.928925 C270.803558 161.054276 273.348846 160.000000 276.000000 160.000000 C278.651154 160.000000 281.196442 161.054276 283.071075 162.928925 C284.945709 164.803574 286.000000 167.348846 286.000000 170.000000"></path>
<path id="" fill="#000000" fill-opacity="1.0" stroke="#000000" stroke-width="0.0" stroke-opacity="1.0" stroke-linecap="round" stroke-linejoin="round"  filling="0" d="M281.000000 170.000000 C281.000000 171.325577 280.472839 172.598221 279.535522 173.535538 C278.598206 174.472855 277.325562 175.000000 276.000000 175.000000 C274.674438 175.000000 273.401794 174.472855 272.464478 173.535538 C271.527161 172.598221 271.000000 171.325577 271.000000 170.000000 C271.000000 168.674423 271.527161 167.401779 272.464478 166.464462 C273.401794 165.527145 274.674438 165.000000 276.000000 165.000000 C277.325562 165.000000 278.598206 165.527145 279.535522 166.464462 C280.472839 167.401779 281.000000 168.674423 281.000000 170.000000"></path>
<path id="" fill="#800080" fill-opacity="1.0" stroke="#000000" stroke-width="0.0" stroke-opacity="1.0" stroke-linecap="round" stroke-linejoin="round"  filling="0" d="M258.777008 248.878998 C222.596329 283.766998 210.952667 323.774323 223.845993 368.901001 C221.281998 369.633667 218.718002 370.366333 216.154007 371.098999 C202.380676 322.891663 214.737000 280.232330 253.223007 243.121002 C255.074341 245.040329 256.925659 246.959671 258.777008 248.878998"></path>
<path id="" fill="#800080" fill-opacity="1.0" stroke="#000000" stroke-width="0.0" stroke-opacity="1.0" stroke-linecap="round" stroke-linejoin="round"  filling="0" d="M257.915009 242.488007 C288.448334 259.142670 307.132996 294.814667 313.968994 349.503998 C311.322998 349.834656 308.677002 350.165344 306.031006 350.496002 C299.533661 298.518677 282.218323 264.857330 254.085007 249.511993 C255.361679 247.170670 256.638336 244.829330 257.915009 242.488007"></path>
<path id="" fill="#800080" fill-opacity="1.0" stroke="#000000" stroke-width="0.0" stroke-opacity="1.0" stroke-linecap="round" stroke-linejoin="round"  filling="0" d="M259.444000 248.035004 C242.604660 276.531677 237.438660 310.300659 243.945999 349.342010 C241.315338 349.780670 238.684662 350.219330 236.054001 350.657990 C229.227997 309.699341 234.728668 274.135010 252.556000 243.964996 C254.852005 245.321671 257.148010 246.678329 259.444000 248.035004"></path>
<path id="" fill="#800080" fill-opacity="1.0" stroke="#000000" stroke-width="0.0" stroke-opacity="1.0" stroke-linecap="round" stroke-linejoin="round"  filling="0" d="M259.907990 245.145004 C269.302673 288.092987 274.000000 333.044647 274.000000 380.000000 C271.333344 380.000000 268.666656 380.000000 266.000000 380.000000 C266.000000 333.622009 261.364014 289.240356 252.091995 246.854996 C254.697327 246.285004 257.302673 245.714996 259.907990 245.145004"></path>
<path id="" fill="#800080" fill-opacity="1.0" stroke="#000000" stroke-width="0.0" stroke-opacity="1.0" stroke-linecap="round" stroke-linejoin="round"  filling="0" d="M256.346985 249.985001 C242.518997 251.187668 232.935669 257.276001 227.597000 268.250000 C221.954330 279.848663 220.742004 296.910004 223.960007 319.433990 C221.320007 319.811340 218.679993 320.188660 216.039993 320.566010 C212.591339 296.423340 214.045670 277.817993 220.403000 264.750000 C227.064331 251.057327 238.814331 243.479004 255.653000 242.014999 C255.884323 244.671661 256.115662 247.328339 256.346985 249.985001"></path>
<path id="" fill="#800080" fill-opacity="1.0" stroke="#000000" stroke-width="0.0" stroke-opacity="1.0" stroke-linecap="round" stroke-linejoin="round"  filling="0" d="M258.527008 242.899002 C295.335022 272.890320 317.145996 311.735321 323.959991 359.433990 C321.320007 359.811340 318.679993 360.188660 316.040009 360.566010 C309.520660 314.931335 288.664978 277.776337 253.473007 249.100998 C255.157669 247.033661 256.842346 244.966339 258.527008 242.899002"></path>
<path id="" fill="#800080" fill-opacity="1.0" stroke="#000000" stroke-width="0.0" stroke-opacity="1.0" stroke-linecap="round" stroke-linejoin="round"  filling="0" d="M257.632996 249.651001 C208.846985 271.477020 187.617996 301.374023 193.945999 339.342010 C191.315338 339.780670 188.684662 340.219330 186.054001 340.657990 C179.048676 298.625977 201.819672 265.856323 254.367004 242.348999 C255.455673 244.783005 256.544342 247.216995 257.632996 249.651001"></path>
<path id="" fill="#800080" fill-opacity="1.0" stroke="#000000" stroke-width="0.0" stroke-opacity="1.0" stroke-linecap="round" stroke-linejoin="round"  filling="0" d="M258.579010 242.942993 C302.023010 279.598328 327.149994 321.761993 333.959991 369.433990 C331.320007 369.811340 328.679993 370.188660 326.040009 370.566010 C319.517334 324.904663 295.311005 284.401672 253.421005 249.057007 C255.140335 247.018997 256.859680 244.981003 258.579010 242.942993"></path>
<path id="" fill="#FFFFFF" fill-opacity="1.0" stroke="#000000" stroke-width="0.0" stroke-opacity="1.0" stroke-linecap="round" stroke-linejoin="round"  filling="0" d="M233.000000 310.000000 C233.000000 310.795349 232.683716 311.558899 232.121323 312.121307 C231.558929 312.683716 230.795349 313.000000 230.000000 313.000000 C229.204651 313.000000 228.441071 312.683716 227.878677 312.121307 C227.316284 311.558899 227.000000 310.795349 227.000000 310.000000 C227.000000 309.204651 227.316284 308.441101 227.878677 307.878693 C228.441071 307.316284 229.204651 307.000000 230.000000 307.000000 C230.795349 307.000000 231.558929 307.316284 232.121323 307.878693 C232.683716 308.441101 233.000000 309.204651 233.000000 310.000000"></path>
<path id="" fill="#FFFFFF" fill-opacity="1.0" stroke="#000000" stroke-width="0.0" stroke-opacity="1.0" stroke-linecap="round" stroke-linejoin="round"  filling="0" d="M219.000000 330.000000 C219.000000 330.795349 218.683716 331.558899 218.121323 332.121307 C217.558929 332.683716 216.795349 333.000000 216.000000 333.000000 C215.204651 333.000000 214.441071 332.683716 213.878677 332.121307 C213.316284 331.558899 213.000000 330.795349 213.000000 330.000000 C213.000000 329.204651 213.316284 328.441101 213.878677 327.878693 C214.441071 327.316284 215.204651 327.000000 216.000000 327.000000 C216.795349 327.000000 217.558929 327.316284 218.121323 327.878693 C218.683716 328.441101 219.000000 329.204651 219.000000 330.000000"></path>
<path id="" fill="#FFFFFF" fill-opacity="1.0" stroke="#000000" stroke-width="0.0" stroke-opacity="1.0" stroke-linecap="round" stroke-linejoin="round"  filling="0" d="M293.000000 310.000000 C293.000000 310.795349 292.683716 311.558899 292.121307 312.121307 C291.558899 312.683716 290.795349 313.000000 290.000000 313.000000 C289.204651 313.000000 288.441101 312.683716 287.878693 312.121307 C287.316284 311.558899 287.000000 310.795349 287.000000 310.000000 C287.000000 309.204651 287.316284 308.441101 287.878693 307.878693 C288.441101 307.316284 289.204651 307.000000 290.000000 307.000000 C290.795349 307.000000 291.558899 307.316284 292.121307 307.878693 C292.683716 308.441101 293.000000 309.204651 293.000000 310.000000"></path>
<path id="" fill="#FFFFFF" fill-opacity="1.0" stroke="#000000" stroke-width="0.0" stroke-opacity="1.0" stroke-linecap="round" stroke-linejoin="round"  filling="0" d="M308.000000 330.000000 C308.000000 330.795349 307.683716 331.558899 307.121307 332.121307 C306.558899 332.683716 305.795349 333.000000 305.000000 333.000000 C304.204651 333.000000 303.441101 332.683716 302.878693 332.121307 C302.316284 331.558899 302.000000 330.795349 302.000000 330.000000 C302.000000 329.204651 302.316284 328.441101 302.878693 327.878693 C303.441101 327.316284 304.204651 327.000000 305.000000 327.000000 C305.795349 327.000000 306.558899 327.316284 307.121307 327.878693 C307.683716 328.441101 308.000000 329.204651 308.000000 330.000000"></path>
<path id="" fill="#FFFFFF" fill-opacity="1.0" stroke="#000000" stroke-width="0.0" stroke-opacity="1.0" stroke-linecap="round" stroke-linejoin="round"  filling="0" d="M247.000000 320.000000 C247.000000 320.795349 246.683716 321.558899 246.121323 322.121307 C245.558929 322.683716 244.795349 323.000000 244.000000 323.000000 C243.204651 323.000000 242.441071 322.683716 241.878677 322.121307 C241.316284 321.558899 241.000000 320.795349 241.000000 320.000000 C241.000000 319.204651 241.316284 318.441101 241.878677 317.878693 C242.441071 317.316284 243.204651 317.000000 244.000000 317.000000 C244.795349 317.000000 245.558929 317.316284 246.121323 317.878693 C246.683716 318.441101 247.000000 319.204651 247.000000 320.000000"></path>
<path id="" fill="#FFFFFF" fill-opacity="1.0" stroke="#000000" stroke-width="0.0" stroke-opacity="1.0" stroke-linecap="round" stroke-linejoin="round"  filling="0" d="M238.000000 340.000000 C238.000000 340.795349 237.683716 341.558899 237.121323 342.121307 C236.558929 342.683716 235.795349 343.000000 235.000000 343.000000 C234.204651 343.000000 233.441071 342.683716 232.878677 342.121307 C232.316284 341.558899 232.000000 340.795349 232.000000 340.000000 C232.000000 339.204651 232.316284 338.441101 232.878677 337.878693 C233.441071 337.316284 234.204651 337.000000 235.000000 337.000000 C235.795349 337.000000 236.558929 337.316284 237.121323 337.878693 C237.683716 338.441101 238.000000 339.204651 238.000000 340.000000"></path>
<path id="" fill="#FFFFFF" fill-opacity="1.0" stroke="#000000" stroke-width="0.0" stroke-opacity="1.0" stroke-linecap="round" stroke-linejoin="round"  filling="0" d="M268.000000 340.000000 C268.000000 340.795349 267.683716 341.558899 267.121307 342.121307 C266.558899 342.683716 265.795349 343.000000 265.000000 343.000000 C264.204651 343.000000 263.441101 342.683716 262.878693 342.121307 C262.316284 341.558899 262.000000 340.795349 262.000000 340.000000 C262.000000 339.204651 262.316284 338.441101 262.878693 337.878693 C263.441101 337.316284 264.204651 337.000000 265.000000 337.000000 C265.795349 337.000000 266.558899 337.316284 267.121307 337.878693 C267.683716 338.441101 268.000000 339.204651 268.000000 340.000000"></path>
<path id="" fill="#E0FFFF" fill-opacity="1.0" stroke="#000000" stroke-width="0.0" stroke-opacity="1.0" stroke-linecap="round" stroke-linejoin="round"  filling="0" d="M86.000000 60.000000 C86.000000 61.590691 85.367424 63.117851 84.242638 64.242638 C83.117851 65.367424 81.590691 66.000000 80.000000 66.000000 C78.409309 66.000000 76.882149 65.367424 75.757362 64.242638 C74.632576 63.117851 74.000000 61.590691 74.000000 60.000000 C74.000000 58.409309 74.632576 56.882145 75.757362 55.757359 C76.882149 54.632572 78.409309 54.000000 80.000000 54.000000 C81.590691 54.000000 83.117851 54.632572 84.242638 55.757359 C85.367424 56.882145 86.000000 58.409309 86.000000 60.000000"></path>
<path id="" fill="#E0FFFF" fill-opacity="1.0" stroke="#000000" stroke-width="0.0" stroke-opacity="1.0" stroke-linecap="round" stroke-linejoin="round"  filling="0" d="M105.000000 100.000000 C105.000000 101.325577 104.472862 102.598213 103.535538 103.535538 C102.598213 104.472862 101.325577 105.000000 100.000000 105.000000 C98.674423 105.000000 97.401787 104.472862 96.464462 103.535538 C95.527138 102.598213 95.000000 101.325577 95.000000 100.000000 C95.000000 98.674423 95.527138 97.401787 96.464462 96.464462 C97.401787 95.527138 98.674423 95.000000 100.000000 95.000000 C101.325577 95.000000 102.598213 95.527138 103.535538 96.464462 C104.472862 97.401787 105.000000 98.674423 105.000000 100.000000"></path>
<path id="" fill="#E0FFFF" fill-opacity="1.0" stroke="#000000" stroke-width="0.0" stroke-opacity="1.0" stroke-linecap="round" stroke-linejoin="round"  filling="0" d="M154.000000 150.000000 C154.000000 151.060455 153.578293 152.078568 152.828430 152.828430 C152.078568 153.578293 151.060455 154.000000 150.000000 154.000000 C148.939545 154.000000 147.921432 153.578293 147.171570 152.828430 C146.421707 152.078568 146.000000 151.060455 146.000000 150.000000 C146.000000 148.939545 146.421707 147.921432 147.171570 147.171570 C147.921432 146.421707 148.939545 146.000000 150.000000 146.000000 C151.060455 146.000000 152.078568 146.421707 152.828430 147.171570 C153.578293 147.921432 154.000000 148.939545 154.000000 150.000000"></path>
<path id="" fill="#E0FFFF" fill-opacity="1.0" stroke="#000000" stroke-width="0.0" stroke-opacity="1.0" stroke-linecap="round" stroke-linejoin="round"  filling="0" d="M125.000000 180.000000 C125.000000 181.325577 124.472862 182.598221 123.535538 183.535538 C122.598213 184.472855 121.325577 185.000000 120.000000 185.000000 C118.674423 185.000000 117.401787 184.472855 116.464462 183.535538 C115.527138 182.598221 115.000000 181.325577 115.000000 180.000000 C115.000000 178.674423 115.527138 177.401779 116.464462 176.464462 C117.401787 175.527145 118.674423 175.000000 120.000000 175.000000 C121.325577 175.000000 122.598213 175.527145 123.535538 176.464462 C124.472862 177.401779 125.000000 178.674423 125.000000 180.000000"></path>
<path id="" fill="#E0FFFF" fill-opacity="1.0" stroke="#000000" stroke-width="0.0" stroke-opacity="1.0" stroke-linecap="round" stroke-linejoin="round"  filling="0" d="M206.000000 50.000000 C206.000000 51.590691 205.367432 53.117855 204.242645 54.242641 C203.117859 55.367428 201.590683 56.000000 200.000000 56.000000 C198.409317 56.000000 196.882141 55.367428 195.757355 54.242641 C194.632568 53.117855 194.000000 51.590691 194.000000 50.000000 C194.000000 48.409309 194.632568 46.882145 195.757355 45.757359 C196.882141 44.632572 198.409317 44.000000 200.000000 44.000000 C201.590683 44.000000 203.117859 44.632572 204.242645 45.757359 C205.367432 46.882145 206.000000 48.409309 206.000000 50.000000"></path>
<path id="" fill="#E0FFFF" fill-opacity="1.0" stroke="#000000" stroke-width="0.0" stroke-opacity="1.0" stroke-linecap="round" stroke-linejoin="round"  filling="0" d="M305.000000 120.000000 C305.000000 121.325577 304.472839 122.598213 303.535522 123.535538 C302.598206 124.472862 301.325562 125.000000 300.000000 125.000000 C298.674438 125.000000 297.401794 124.472862 296.464478 123.535538 C295.527161 122.598213 295.000000 121.325577 295.000000 120.000000 C295.000000 118.674423 295.527161 117.401787 296.464478 116.464462 C297.401794 115.527138 298.674438 115.000000 300.000000 115.000000 C301.325562 115.000000 302.598206 115.527138 303.535522 116.464462 C304.472839 117.401787 305.000000 118.674423 305.000000 120.000000"></path>
<path id="" fill="#E0FFFF" fill-opacity="1.0" stroke="#000000" stroke-width="0.0" stroke-opacity="1.0" stroke-linecap="round" stroke-linejoin="round"  filling="0" d="M354.000000 160.000000 C354.000000 161.060455 353.578278 162.078568 352.828430 162.828430 C352.078583 163.578293 351.060455 164.000000 350.000000 164.000000 C348.939545 164.000000 347.921417 163.578293 347.171570 162.828430 C346.421722 162.078568 346.000000 161.060455 346.000000 160.000000 C346.000000 158.939545 346.421722 157.921432 347.171570 157.171570 C347.921417 156.421707 348.939545 156.000000 350.000000 156.000000 C351.060455 156.000000 352.078583 156.421707 352.828430 157.171570 C353.578278 157.921432 354.000000 158.939545 354.000000 160.000000"></path>
</svg>