<svg xmlns="http://www.w3.org/2000/svg" viewBox="0 0 512 512" height="512.0px" width="512.0px">
<path id="" fill="#8b4513" fill-opacity="1.0" stroke="#000000" stroke-width="0.0" stroke-opacity="1.0" stroke-linecap="round" stroke-linejoin="round"  filling="0" d="M100.000000 380.000000 C200.000000 380.000000 300.000000 380.000000 400.000000 380.000000 C400.000000 386.666656 400.000000 393.333344 400.000000 400.000000 C300.000000 400.000000 200.000000 400.000000 100.000000 400.000000 C100.000000 393.333344 100.000000 386.666656 100.000000 380.000000"></path>
<path id="" fill="#8b4513" fill-opacity="1.0" stroke="#000000" stroke-width="0.0" stroke-opacity="1.0" stroke-linecap="round" stroke-linejoin="round"  filling="0" d="M330.000000 280.000000 C330.000000 306.511475 321.565704 331.964233 306.568542 350.710693 C291.571381 369.457153 271.209167 380.000000 250.000000 380.000000 C228.790817 380.000000 208.428619 369.457153 193.431458 350.710693 C178.434296 331.964233 170.000000 306.511475 170.000000 280.000000 C170.000000 253.488525 178.434296 228.035767 193.431458 209.289322 C208.428619 190.542877 228.790817 180.000000 250.000000 180.000000 C271.209167 180.000000 291.571381 190.542877 306.568542 209.289322 C321.565704 228.035767 330.000000 253.488525 330.000000 280.000000"></path>
<path id="" fill="#6b3e26" fill-opacity="1.0" stroke="#000000" stroke-width="0.0" stroke-opacity="1.0" stroke-linecap="round" stroke-linejoin="round"  filling="0" d="M220.000000 280.000000 C220.000000 303.860321 215.782852 326.767822 208.284271 343.639618 C200.785690 360.511414 190.604584 370.000000 180.000000 370.000000 C169.395416 370.000000 159.214310 360.511414 151.715729 343.639618 C144.217148 326.767822 140.000000 303.860321 140.000000 280.000000 C140.000000 256.139679 144.217148 233.232178 151.715729 216.360382 C159.214310 199.488586 169.395416 190.000000 180.000000 190.000000 C190.604584 190.000000 200.785690 199.488586 208.284271 216.360382 C215.782852 233.232178 220.000000 256.139679 220.000000 280.000000"></path>
<path id="" fill="#6b3e26" fill-opacity="1.0" stroke="#000000" stroke-width="0.0" stroke-opacity="1.0" stroke-linecap="round" stroke-linejoin="round"  filling="0" d="M360.000000 280.000000 C360.000000 303.860321 355.782837 326.767822 348.284271 343.639618 C340.785706 360.511414 330.604584 370.000000 320.000000 370.000000 C309.395416 370.000000 299.214294 360.511414 291.715729 343.639618 C284.217163 326.767822 280.000000 303.860321 280.000000 280.000000 C280.000000 256.139679 284.217163 233.232178 291.715729 216.360382 C299.214294 199.488586 309.395416 190.000000 320.000000 190.000000 C330.604584 190.000000 340.785706 199.488586 348.284271 216.360382 C355.782837 233.232178 360.000000 256.139679 360.000000 280.000000"></path>
<path id="" fill="#8b4513" fill-opacity="1.0" stroke="#000000" stroke-width="0.0" stroke-opacity="1.0" stroke-linecap="round" stroke-linejoin="round"  filling="0" d="M310.000000 190.000000 C310.000000 205.906891 303.674255 221.178543 292.426392 232.426407 C281.178528 243.674271 265.906891 250.000000 250.000000 250.000000 C234.093109 250.000000 218.821457 243.674271 207.573593 232.426407 C196.325729 221.178543 190.000000 205.906891 190.000000 190.000000 C190.000000 174.093109 196.325729 158.821457 207.573593 147.573593 C218.821457 136.325729 234.093109 130.000000 250.000000 130.000000 C265.906891 130.000000 281.178528 136.325729 292.426392 147.573593 C303.674255 158.821457 310.000000 174.093109 310.000000 190.000000"></path>
<path id="" fill="#ffff00" fill-opacity="1.0" stroke="#000000" stroke-width="0.0" stroke-opacity="1.0" stroke-linecap="round" stroke-linejoin="round"  filling="0" d="M255.000000 180.000000 C255.000000 186.627869 252.364288 192.991058 247.677673 197.677673 C242.991058 202.364288 236.627869 205.000000 230.000000 205.000000 C223.372131 205.000000 217.008942 202.364288 212.322327 197.677673 C207.635712 192.991058 205.000000 186.627869 205.000000 180.000000 C205.000000 173.372131 207.635712 167.008942 212.322327 162.322327 C217.008942 157.635712 223.372131 155.000000 230.000000 155.000000 C236.627869 155.000000 242.991058 157.635712 247.677673 162.322327 C252.364288 167.008942 255.000000 173.372131 255.000000 180.000000"></path>
<path id="" fill="#ffff00" fill-opacity="1.0" stroke="#000000" stroke-width="0.0" stroke-opacity="1.0" stroke-linecap="round" stroke-linejoin="round"  filling="0" d="M295.000000 180.000000 C295.000000 186.627869 292.364288 192.991058 287.677673 197.677673 C282.991058 202.364288 276.627869 205.000000 270.000000 205.000000 C263.372131 205.000000 257.008942 202.364288 252.322327 197.677673 C247.635712 192.991058 245.000000 186.627869 245.000000 180.000000 C245.000000 173.372131 247.635712 167.008942 252.322327 162.322327 C257.008942 157.635712 263.372131 155.000000 270.000000 155.000000 C276.627869 155.000000 282.991058 157.635712 287.677673 162.322327 C292.364288 167.008942 295.000000 173.372131 295.000000 180.000000"></path>
<path id="" fill="#000000" fill-opacity="1.0" stroke="#000000" stroke-width="0.0" stroke-opacity="1.0" stroke-linecap="round" stroke-linejoin="round"  filling="0" d="M240.000000 180.000000 C240.000000 182.651154 238.945724 185.196426 237.071075 187.071075 C235.196426 188.945724 232.651154 190.000000 230.000000 190.000000 C227.348846 190.000000 224.803574 188.945724 222.928925 187.071075 C221.054276 185.196426 220.000000 182.651154 220.000000 180.000000 C220.000000 177.348846 221.054276 174.803574 222.928925 172.928925 C224.803574 171.054276 227.348846 170.000000 230.000000 170.000000 C232.651154 170.000000 235.196426 171.054276 237.071075 172.928925 C238.945724 174.803574 240.000000 177.348846 240.000000 180.000000"></path>
<path id="" fill="#000000" fill-opacity="1.0" stroke="#000000" stroke-width="0.0" stroke-opacity="1.0" stroke-linecap="round" stroke-linejoin="round"  filling="0" d="M280.000000 180.000000 C280.000000 182.651154 278.945709 185.196426 277.071075 187.071075 C275.196442 188.945724 272.651154 190.000000 270.000000 190.000000 C267.348846 190.000000 264.803558 188.945724 262.928925 187.071075 C261.054291 185.196426 260.000000 182.651154 260.000000 180.000000 C260.000000 177.348846 261.054291 174.803574 262.928925 172.928925 C264.803558 171.054276 267.348846 170.000000 270.000000 170.000000 C272.651154 170.000000 275.196442 171.054276 277.071075 172.928925 C278.945709 174.803574 280.000000 177.348846 280.000000 180.000000"></path>
<path id="" fill="#8b4513" fill-opacity="1.0" stroke="#000000" stroke-width="0.0" stroke-opacity="1.0" stroke-linecap="round" stroke-linejoin="round"  filling="0" d="M220.000000 140.000000 C223.333328 126.666664 226.666672 113.333336 230.000000 100.000000 C233.333328 113.333336 236.666672 126.666664 240.000000 140.000000 C233.333328 140.000000 226.666672 140.000000 220.000000 140.000000"></path>
<path id="" fill="#8b4513" fill-opacity="1.0" stroke="#000000" stroke-width="0.0" stroke-opacity="1.0" stroke-linecap="round" stroke-linejoin="round"  filling="0" d="M260.000000 140.000000 C263.333344 126.666664 266.666656 113.333336 270.000000 100.000000 C273.333344 113.333336 276.666656 126.666664 280.000000 140.000000 C273.333344 140.000000 266.666656 140.000000 260.000000 140.000000"></path>
<path id="" fill="#ffa500" fill-opacity="1.0" stroke="#000000" stroke-width="0.0" stroke-opacity="1.0" stroke-linecap="round" stroke-linejoin="round"  filling="0" d="M240.000000 200.000000 C246.666672 206.666672 253.333328 206.666672 260.000000 200.000000 C256.666656 206.666672 253.333328 213.333328 250.000000 220.000000 C246.666672 213.333328 243.333328 206.666672 240.000000 200.000000"></path>
<path id="" fill="#6b3e26" fill-opacity="1.0" stroke="#000000" stroke-width="0.0" stroke-opacity="1.0" stroke-linecap="round" stroke-linejoin="round"  filling="0" d="M220.000000 370.000000 C230.000000 376.666656 240.000000 383.333344 250.000000 390.000000 C260.000000 383.333344 270.000000 376.666656 280.000000 370.000000 C260.000000 370.000000 240.000000 370.000000 220.000000 370.000000"></path>
<path id="" fill="#8b4513" fill-opacity="1.0" stroke="#000000" stroke-width="0.0" stroke-opacity="1.0" stroke-linecap="round" stroke-linejoin="round"  filling="0" d="M216.000000 370.000000 C219.333328 370.000000 222.666672 370.000000 226.000000 370.000000 C226.000000 380.000000 226.000000 390.000000 226.000000 400.000000 C222.666672 400.000000 219.333328 400.000000 216.000000 400.000000 C216.000000 390.000000 216.000000 380.000000 216.000000 370.000000"></path>
<path id="" fill="#8b4513" fill-opacity="1.0" stroke="#000000" stroke-width="0.0" stroke-opacity="1.0" stroke-linecap="round" stroke-linejoin="round"  filling="0" d="M274.000000 370.000000 C277.333344 370.000000 280.666656 370.000000 284.000000 370.000000 C284.000000 380.000000 284.000000 390.000000 284.000000 400.000000 C280.666656 400.000000 277.333344 400.000000 274.000000 400.000000 C274.000000 390.000000 274.000000 380.000000 274.000000 370.000000"></path>
</svg>