<svg xmlns="http://www.w3.org/2000/svg" viewBox="0 0 512 512" height="512.0px" width="512.0px">
<path id="" fill="#87CEEB" fill-opacity="1.0" stroke="#000000" stroke-width="0.0" stroke-opacity="1.0" stroke-linecap="round" stroke-linejoin="round"  filling="0" d="M0.000000 0.000000 C170.666672 0.000000 341.333313 0.000000 512.000000 0.000000 C512.000000 170.666672 512.000000 341.333313 512.000000 512.000000 C341.333313 512.000000 170.666672 512.000000 0.000000 512.000000 C0.000000 341.333313 0.000000 170.666672 0.000000 0.000000"></path>
<path id="" fill="#FF0000" fill-opacity="1.0" stroke="#000000" stroke-width="0.0" stroke-opacity="1.0" stroke-linecap="round" stroke-linejoin="round"  filling="0" d="M316.000000 256.000000 C316.000000 263.953430 309.674255 271.589264 298.426392 277.213196 C287.178528 282.837128 271.906891 286.000000 256.000000 286.000000 C240.093109 286.000000 224.821457 282.837128 213.573593 277.213196 C202.325729 271.589264 196.000000 263.953430 196.000000 256.000000 C196.000000 248.046555 202.325729 240.410736 213.573593 234.786804 C224.821457 229.162872 240.093109 226.000000 256.000000 226.000000 C271.906891 226.000000 287.178528 229.162872 298.426392 234.786804 C309.674255 240.410736 316.000000 248.046555 316.000000 256.000000"></path>
<path id="" fill="#0000FF" fill-opacity="1.0" stroke="#000000" stroke-width="0.0" stroke-opacity="1.0" stroke-linecap="round" stroke-linejoin="round"  filling="0" d="M196.000000 256.000000 C169.333328 236.000000 142.666672 216.000000 116.000000 196.000000 C132.666672 202.666672 149.333328 209.333328 166.000000 216.000000 C176.000000 229.333328 186.000000 242.666672 196.000000 256.000000"></path>
<path id="" fill="#0000FF" fill-opacity="1.0" stroke="#000000" stroke-width="0.0" stroke-opacity="1.0" stroke-linecap="round" stroke-linejoin="round"  filling="0" d="M316.000000 256.000000 C342.666656 236.000000 369.333344 216.000000 396.000000 196.000000 C379.333344 202.666672 362.666656 209.333328 346.000000 216.000000 C336.000000 229.333328 326.000000 242.666672 316.000000 256.000000"></path>
<path id="" fill="#FFFF00" fill-opacity="1.0" stroke="#000000" stroke-width="0.0" stroke-opacity="1.0" stroke-linecap="round" stroke-linejoin="round"  filling="0" d="M117.486000 192.285995 C134.152664 198.952667 150.819336 205.619324 167.485992 212.285995 C166.495331 214.761993 165.504669 217.238007 164.514008 219.714005 C147.847336 213.047333 131.180664 206.380676 114.514000 199.714005 C115.504669 197.238007 116.495331 194.761993 117.486000 192.285995"></path>
<path id="" fill="#FFFF00" fill-opacity="1.0" stroke="#000000" stroke-width="0.0" stroke-opacity="1.0" stroke-linecap="round" stroke-linejoin="round"  filling="0" d="M397.485992 199.714005 C380.819336 206.380676 364.152649 213.047333 347.485992 219.714005 C346.495331 217.238007 345.504669 214.761993 344.514008 212.285995 C361.180664 205.619324 377.847351 198.952667 394.514008 192.285995 C395.504669 194.761993 396.495331 197.238007 397.485992 199.714005"></path>
<path id="" fill="#FF0000" fill-opacity="1.0" stroke="#000000" stroke-width="0.0" stroke-opacity="1.0" stroke-linecap="round" stroke-linejoin="round"  filling="0" d="M317.265015 252.205002 C337.355011 258.901672 357.445007 265.598328 377.535004 272.295013 C384.286346 275.670685 391.037659 279.046326 397.789001 282.421997 C404.455658 285.755341 411.122345 289.088654 417.789001 292.421997 C416.596344 294.807343 415.403656 297.192657 414.210999 299.578003 C400.962677 292.953674 387.714325 286.329315 374.466003 279.704987 C354.555664 273.068329 334.645325 266.431671 314.734985 259.795013 C315.578339 257.265015 316.421661 254.735001 317.265015 252.205002"></path>
<path id="" fill="#0000FF" fill-opacity="1.0" stroke="#000000" stroke-width="0.0" stroke-opacity="1.0" stroke-linecap="round" stroke-linejoin="round"  filling="0" d="M376.894012 274.210999 C383.560669 277.544342 390.227356 280.877655 396.894012 284.210999 C403.560669 287.544342 410.227356 290.877655 416.894012 294.210999 C416.298004 295.403656 415.701996 296.596344 415.105988 297.789001 C408.439331 294.455658 401.772644 291.122345 395.105988 287.789001 C388.439331 284.455658 381.772644 281.122345 375.105988 277.789001 C375.701996 276.596344 376.298004 275.403656 376.894012 274.210999"></path>
<path id="" fill="#FF0000" fill-opacity="1.0" stroke="#000000" stroke-width="0.0" stroke-opacity="1.0" stroke-linecap="round" stroke-linejoin="round"  filling="0" d="M240.147995 229.529999 C243.007004 240.199005 234.513000 251.744995 221.175995 255.319000 C207.839996 258.891998 194.710999 253.139999 191.852005 242.470001 C188.992996 231.800995 197.487000 220.255005 210.824005 216.681000 C224.160004 213.108002 237.289001 218.860001 240.147995 229.529999"></path>
<path id="" fill="#FFFF00" fill-opacity="1.0" stroke="#000000" stroke-width="0.0" stroke-opacity="1.0" stroke-linecap="round" stroke-linejoin="round"  filling="0" d="M191.000000 236.000000 C184.333328 239.333328 177.666672 242.666672 171.000000 246.000000 C177.666672 244.000000 184.333328 242.333328 191.000000 241.000000 C191.000000 239.333328 191.000000 237.666672 191.000000 236.000000"></path>
<path id="" fill="#000000" fill-opacity="1.0" stroke="#000000" stroke-width="0.0" stroke-opacity="1.0" stroke-linecap="round" stroke-linejoin="round"  filling="0" d="M216.000000 231.000000 C216.000000 232.325577 215.472855 233.598221 214.535538 234.535538 C213.598221 235.472855 212.325577 236.000000 211.000000 236.000000 C209.674423 236.000000 208.401779 235.472855 207.464462 234.535538 C206.527145 233.598221 206.000000 232.325577 206.000000 231.000000 C206.000000 229.674423 206.527145 228.401779 207.464462 227.464462 C208.401779 226.527145 209.674423 226.000000 211.000000 226.000000 C212.325577 226.000000 213.598221 226.527145 214.535538 227.464462 C215.472855 228.401779 216.000000 229.674423 216.000000 231.000000"></path>
<path id="" fill="#FFFFFF" fill-opacity="1.0" stroke="#000000" stroke-width="0.0" stroke-opacity="1.0" stroke-linecap="round" stroke-linejoin="round"  filling="0" d="M211.000000 229.000000 C211.000000 229.530228 210.789139 230.039291 210.414215 230.414215 C210.039291 230.789139 209.530228 231.000000 209.000000 231.000000 C208.469772 231.000000 207.960709 230.789139 207.585785 230.414215 C207.210861 230.039291 207.000000 229.530228 207.000000 229.000000 C207.000000 228.469772 207.210861 227.960709 207.585785 227.585785 C207.960709 227.210861 208.469772 227.000000 209.000000 227.000000 C209.530228 227.000000 210.039291 227.210861 210.414215 227.585785 C210.789139 227.960709 211.000000 228.469772 211.000000 229.000000"></path>
</svg>