<svg xmlns="http://www.w3.org/2000/svg" viewBox="0 0 512 512" height="512.0px" width="512.0px">
<path id="" fill="#E0E0E0" fill-opacity="1.0" stroke="#000000" stroke-width="0.0" stroke-opacity="1.0" stroke-linecap="round" stroke-linejoin="round"  filling="0" d="M56.000000 280.000000 C189.333344 280.000000 322.666656 280.000000 456.000000 280.000000 C456.000000 306.666656 456.000000 333.333344 456.000000 360.000000 C322.666656 360.000000 189.333344 360.000000 56.000000 360.000000 C56.000000 333.333344 56.000000 306.666656 56.000000 280.000000"></path>
<path id="" fill="#E0E0E0" fill-opacity="1.0" stroke="#000000" stroke-width="0.0" stroke-opacity="1.0" stroke-linecap="round" stroke-linejoin="round"  filling="0" d="M106.000000 230.000000 C206.000000 230.000000 306.000000 230.000000 406.000000 230.000000 C406.000000 246.666672 406.000000 263.333344 406.000000 280.000000 C306.000000 280.000000 206.000000 280.000000 106.000000 280.000000 C106.000000 263.333344 106.000000 246.666672 106.000000 230.000000"></path>
<path id="" fill="#87CEEB" fill-opacity="1.0" stroke="#000000" stroke-width="0.0" stroke-opacity="1.0" stroke-linecap="round" stroke-linejoin="round"  filling="0" d="M106.000000 280.000000 C206.000000 280.000000 306.000000 280.000000 406.000000 280.000000 C399.333344 263.333344 392.666656 246.666672 386.000000 230.000000 C299.333313 230.000000 212.666672 230.000000 126.000000 230.000000 C119.333336 246.666672 112.666664 263.333344 106.000000 280.000000"></path>
<path id="" fill="#333333" fill-opacity="1.0" stroke="#000000" stroke-width="0.0" stroke-opacity="1.0" stroke-linecap="round" stroke-linejoin="round"  filling="0" d="M176.000000 360.000000 C176.000000 370.604584 171.782852 380.785706 164.284271 388.284271 C156.785690 395.782837 146.604584 400.000000 136.000000 400.000000 C125.395409 400.000000 115.214310 395.782837 107.715729 388.284271 C100.217148 380.785706 96.000000 370.604584 96.000000 360.000000 C96.000000 349.395416 100.217148 339.214294 107.715729 331.715729 C115.214310 324.217163 125.395409 320.000000 136.000000 320.000000 C146.604584 320.000000 156.785690 324.217163 164.284271 331.715729 C171.782852 339.214294 176.000000 349.395416 176.000000 360.000000"></path>
<path id="" fill="#333333" fill-opacity="1.0" stroke="#000000" stroke-width="0.0" stroke-opacity="1.0" stroke-linecap="round" stroke-linejoin="round"  filling="0" d="M416.000000 360.000000 C416.000000 370.604584 411.782837 380.785706 404.284271 388.284271 C396.785706 395.782837 386.604584 400.000000 376.000000 400.000000 C365.395416 400.000000 355.214294 395.782837 347.715729 388.284271 C340.217163 380.785706 336.000000 370.604584 336.000000 360.000000 C336.000000 349.395416 340.217163 339.214294 347.715729 331.715729 C355.214294 324.217163 365.395416 320.000000 376.000000 320.000000 C386.604584 320.000000 396.785706 324.217163 404.284271 331.715729 C411.782837 339.214294 416.000000 349.395416 416.000000 360.000000"></path>
<path id="" fill="#333333" fill-opacity="1.0" stroke="#000000" stroke-width="0.0" stroke-opacity="1.0" stroke-linecap="round" stroke-linejoin="round"  filling="0" d="M46.000000 340.000000 C186.000000 340.000000 326.000000 340.000000 466.000000 340.000000 C466.000000 346.666656 466.000000 353.333344 466.000000 360.000000 C326.000000 360.000000 186.000000 360.000000 46.000000 360.000000 C46.000000 353.333344 46.000000 346.666656 46.000000 340.000000"></path>
<path id="" fill="#333333" fill-opacity="1.0" stroke="#000000" stroke-width="0.0" stroke-opacity="1.0" stroke-linecap="round" stroke-linejoin="round"  filling="0" d="M206.000000 220.000000 C239.333344 220.000000 272.666656 220.000000 306.000000 220.000000 C306.000000 226.666672 306.000000 233.333328 306.000000 240.000000 C272.666656 240.000000 239.333344 240.000000 206.000000 240.000000 C206.000000 233.333328 206.000000 226.666672 206.000000 220.000000"></path>
<path id="" fill="#FF0000" fill-opacity="1.0" stroke="#000000" stroke-width="0.0" stroke-opacity="1.0" stroke-linecap="round" stroke-linejoin="round"  filling="0" d="M234.000000 230.000000 C234.000000 232.120911 233.156570 234.157150 231.656860 235.656860 C230.157150 237.156570 228.120911 238.000000 226.000000 238.000000 C223.879089 238.000000 221.842850 237.156570 220.343140 235.656860 C218.843430 234.157150 218.000000 232.120911 218.000000 230.000000 C218.000000 227.879089 218.843430 225.842850 220.343140 224.343140 C221.842850 222.843430 223.879089 222.000000 226.000000 222.000000 C228.120911 222.000000 230.157150 222.843430 231.656860 224.343140 C233.156570 225.842850 234.000000 227.879089 234.000000 230.000000"></path>
<path id="" fill="#0000FF" fill-opacity="1.0" stroke="#000000" stroke-width="0.0" stroke-opacity="1.0" stroke-linecap="round" stroke-linejoin="round"  filling="0" d="M294.000000 230.000000 C294.000000 232.120911 293.156586 234.157150 291.656860 235.656860 C290.157135 237.156570 288.120911 238.000000 286.000000 238.000000 C283.879089 238.000000 281.842865 237.156570 280.343140 235.656860 C278.843414 234.157150 278.000000 232.120911 278.000000 230.000000 C278.000000 227.879089 278.843414 225.842850 280.343140 224.343140 C281.842865 222.843430 283.879089 222.000000 286.000000 222.000000 C288.120911 222.000000 290.157135 222.843430 291.656860 224.343140 C293.156586 225.842850 294.000000 227.879089 294.000000 230.000000"></path>
<path id="" fill="#0000FF" fill-opacity="1.0" stroke="#000000" stroke-width="0.0" stroke-opacity="1.0" stroke-linecap="round" stroke-linejoin="round"  filling="0" d="M186.000000 290.000000 C232.666672 290.000000 279.333344 290.000000 326.000000 290.000000 C326.000000 303.333344 326.000000 316.666656 326.000000 330.000000 C279.333344 330.000000 232.666672 330.000000 186.000000 330.000000 C186.000000 316.666656 186.000000 303.333344 186.000000 290.000000"></path>
<path id="" fill="#E0E0E0" fill-opacity="1.0" stroke="#000000" stroke-width="0.0" stroke-opacity="1.0" stroke-linecap="round" stroke-linejoin="round"  filling="0" d="M196.000000 300.000000 C236.000000 300.000000 276.000000 300.000000 316.000000 300.000000 C316.000000 306.666656 316.000000 313.333344 316.000000 320.000000 C276.000000 320.000000 236.000000 320.000000 196.000000 320.000000 C196.000000 313.333344 196.000000 306.666656 196.000000 300.000000"></path>
</svg>