<svg xmlns="http://www.w3.org/2000/svg" viewBox="0 0 512 512" height="512.0px" width="512.0px">
<path id="" fill="#808080" fill-opacity="1.0" stroke="#000000" stroke-width="0.0" stroke-opacity="1.0" stroke-linecap="round" stroke-linejoin="round"  filling="0" d="M336.000000 280.000000 C336.000000 298.558044 327.565704 316.374969 312.568542 329.497467 C297.571381 342.619965 277.209167 350.000000 256.000000 350.000000 C234.790817 350.000000 214.428619 342.619965 199.431458 329.497467 C184.434296 316.374969 176.000000 298.558044 176.000000 280.000000 C176.000000 261.441956 184.434296 243.625046 199.431458 230.502533 C214.428619 217.380020 234.790817 210.000000 256.000000 210.000000 C277.209167 210.000000 297.571381 217.380020 312.568542 230.502533 C327.565704 243.625046 336.000000 261.441956 336.000000 280.000000"></path>
<path id="" fill="#808080" fill-opacity="1.0" stroke="#000000" stroke-width="0.0" stroke-opacity="1.0" stroke-linecap="round" stroke-linejoin="round"  filling="0" d="M306.000000 200.000000 C306.000000 213.255737 300.728577 225.982117 291.355347 235.355347 C281.982117 244.728577 269.255737 250.000000 256.000000 250.000000 C242.744263 250.000000 230.017883 244.728577 220.644653 235.355347 C211.271423 225.982117 206.000000 213.255737 206.000000 200.000000 C206.000000 186.744263 211.271423 174.017883 220.644653 164.644653 C230.017883 155.271423 242.744263 150.000000 256.000000 150.000000 C269.255737 150.000000 281.982117 155.271423 291.355347 164.644653 C300.728577 174.017883 306.000000 186.744263 306.000000 200.000000"></path>
<path id="" fill="#808080" fill-opacity="1.0" stroke="#000000" stroke-width="0.0" stroke-opacity="1.0" stroke-linecap="round" stroke-linejoin="round"  filling="0" d="M245.000000 120.000000 C245.000000 133.255737 243.418564 145.982117 240.606598 155.355347 C237.794632 164.728577 233.976715 170.000000 230.000000 170.000000 C226.023285 170.000000 222.205368 164.728577 219.393402 155.355347 C216.581436 145.982117 215.000000 133.255737 215.000000 120.000000 C215.000000 106.744263 216.581436 94.017883 219.393402 84.644661 C222.205368 75.271439 226.023285 70.000000 230.000000 70.000000 C233.976715 70.000000 237.794632 75.271439 240.606598 84.644661 C243.418564 94.017883 245.000000 106.744263 245.000000 120.000000"></path>
<path id="" fill="#808080" fill-opacity="1.0" stroke="#000000" stroke-width="0.0" stroke-opacity="1.0" stroke-linecap="round" stroke-linejoin="round"  filling="0" d="M297.000000 120.000000 C297.000000 133.255737 295.418579 145.982117 292.606598 155.355347 C289.794617 164.728577 285.976715 170.000000 282.000000 170.000000 C278.023285 170.000000 274.205383 164.728577 271.393402 155.355347 C268.581421 145.982117 267.000000 133.255737 267.000000 120.000000 C267.000000 106.744263 268.581421 94.017883 271.393402 84.644661 C274.205383 75.271439 278.023285 70.000000 282.000000 70.000000 C285.976715 70.000000 289.794617 75.271439 292.606598 84.644661 C295.418579 94.017883 297.000000 106.744263 297.000000 120.000000"></path>
<path id="" fill="#FFC0CB" fill-opacity="1.0" stroke="#000000" stroke-width="0.0" stroke-opacity="1.0" stroke-linecap="round" stroke-linejoin="round"  filling="0" d="M261.000000 210.000000 C261.000000 211.325577 260.472839 212.598221 259.535522 213.535538 C258.598206 214.472855 257.325562 215.000000 256.000000 215.000000 C254.674423 215.000000 253.401779 214.472855 252.464462 213.535538 C251.527145 212.598221 251.000000 211.325577 251.000000 210.000000 C251.000000 208.674423 251.527145 207.401779 252.464462 206.464462 C253.401779 205.527145 254.674423 205.000000 256.000000 205.000000 C257.325562 205.000000 258.598206 205.527145 259.535522 206.464462 C260.472839 207.401779 261.000000 208.674423 261.000000 210.000000"></path>
<path id="" fill="#808080" fill-opacity="1.0" stroke="#000000" stroke-width="0.0" stroke-opacity="1.0" stroke-linecap="round" stroke-linejoin="round"  filling="0" d="M235.000000 340.000000 C235.000000 342.651154 233.418564 345.196442 230.606598 347.071075 C227.794632 348.945709 223.976715 350.000000 220.000000 350.000000 C216.023285 350.000000 212.205368 348.945709 209.393402 347.071075 C206.581436 345.196442 205.000000 342.651154 205.000000 340.000000 C205.000000 337.348846 206.581436 334.803558 209.393402 332.928925 C212.205368 331.054291 216.023285 330.000000 220.000000 330.000000 C223.976715 330.000000 227.794632 331.054291 230.606598 332.928925 C233.418564 334.803558 235.000000 337.348846 235.000000 340.000000"></path>
<path id="" fill="#808080" fill-opacity="1.0" stroke="#000000" stroke-width="0.0" stroke-opacity="1.0" stroke-linecap="round" stroke-linejoin="round"  filling="0" d="M307.000000 340.000000 C307.000000 342.651154 305.418579 345.196442 302.606598 347.071075 C299.794617 348.945709 295.976715 350.000000 292.000000 350.000000 C288.023285 350.000000 284.205383 348.945709 281.393402 347.071075 C278.581421 345.196442 277.000000 342.651154 277.000000 340.000000 C277.000000 337.348846 278.581421 334.803558 281.393402 332.928925 C284.205383 331.054291 288.023285 330.000000 292.000000 330.000000 C295.976715 330.000000 299.794617 331.054291 302.606598 332.928925 C305.418579 334.803558 307.000000 337.348846 307.000000 340.000000"></path>
<path id="" fill="#808080" fill-opacity="1.0" stroke="#000000" stroke-width="0.0" stroke-opacity="1.0" stroke-linecap="round" stroke-linejoin="round"  filling="0" d="M240.000000 360.000000 C240.000000 363.976715 237.891418 367.794617 234.142136 370.606598 C230.392853 373.418579 225.302292 375.000000 220.000000 375.000000 C214.697708 375.000000 209.607147 373.418579 205.857864 370.606598 C202.108582 367.794617 200.000000 363.976715 200.000000 360.000000 C200.000000 356.023285 202.108582 352.205383 205.857864 349.393402 C209.607147 346.581421 214.697708 345.000000 220.000000 345.000000 C225.302292 345.000000 230.392853 346.581421 234.142136 349.393402 C237.891418 352.205383 240.000000 356.023285 240.000000 360.000000"></path>
<path id="" fill="#808080" fill-opacity="1.0" stroke="#000000" stroke-width="0.0" stroke-opacity="1.0" stroke-linecap="round" stroke-linejoin="round"  filling="0" d="M312.000000 360.000000 C312.000000 363.976715 309.891449 367.794617 306.142151 370.606598 C302.392853 373.418579 297.302307 375.000000 292.000000 375.000000 C286.697693 375.000000 281.607147 373.418579 277.857849 370.606598 C274.108551 367.794617 272.000000 363.976715 272.000000 360.000000 C272.000000 356.023285 274.108551 352.205383 277.857849 349.393402 C281.607147 346.581421 286.697693 345.000000 292.000000 345.000000 C297.302307 345.000000 302.392853 346.581421 306.142151 349.393402 C309.891449 352.205383 312.000000 356.023285 312.000000 360.000000"></path>
<path id="" fill="#000000" fill-opacity="1.0" stroke="#000000" stroke-width="0.0" stroke-opacity="1.0" stroke-linecap="round" stroke-linejoin="round"  filling="0" d="M244.000000 190.000000 C244.000000 192.120911 243.156570 194.157150 241.656860 195.656860 C240.157150 197.156570 238.120911 198.000000 236.000000 198.000000 C233.879089 198.000000 231.842850 197.156570 230.343140 195.656860 C228.843430 194.157150 228.000000 192.120911 228.000000 190.000000 C228.000000 187.879089 228.843430 185.842850 230.343140 184.343140 C231.842850 182.843430 233.879089 182.000000 236.000000 182.000000 C238.120911 182.000000 240.157150 182.843430 241.656860 184.343140 C243.156570 185.842850 244.000000 187.879089 244.000000 190.000000"></path>
<path id="" fill="#000000" fill-opacity="1.0" stroke="#000000" stroke-width="0.0" stroke-opacity="1.0" stroke-linecap="round" stroke-linejoin="round"  filling="0" d="M284.000000 190.000000 C284.000000 192.120911 283.156586 194.157150 281.656860 195.656860 C280.157135 197.156570 278.120911 198.000000 276.000000 198.000000 C273.879089 198.000000 271.842865 197.156570 270.343140 195.656860 C268.843414 194.157150 268.000000 192.120911 268.000000 190.000000 C268.000000 187.879089 268.843414 185.842850 270.343140 184.343140 C271.842865 182.843430 273.879089 182.000000 276.000000 182.000000 C278.120911 182.000000 280.157135 182.843430 281.656860 184.343140 C283.156586 185.842850 284.000000 187.879089 284.000000 190.000000"></path>
<path id="" fill="#000000" fill-opacity="1.0" stroke="#000000" stroke-width="0.0" stroke-opacity="1.0" stroke-linecap="round" stroke-linejoin="round"  filling="0" d="M245.757004 210.970001 C239.090332 209.303329 232.423676 207.636673 225.757004 205.970001 C225.919006 205.323334 226.080994 204.676666 226.242996 204.029999 C232.909668 205.696671 239.576324 207.363327 246.242996 209.029999 C246.080994 209.676666 245.919006 210.323334 245.757004 210.970001"></path>
<path id="" fill="#000000" fill-opacity="1.0" stroke="#000000" stroke-width="0.0" stroke-opacity="1.0" stroke-linecap="round" stroke-linejoin="round"  filling="0" d="M246.000000 211.000000 C239.333328 211.000000 232.666672 211.000000 226.000000 211.000000 C226.000000 210.333328 226.000000 209.666672 226.000000 209.000000 C232.666672 209.000000 239.333328 209.000000 246.000000 209.000000 C246.000000 209.666672 246.000000 210.333328 246.000000 211.000000"></path>
<path id="" fill="#000000" fill-opacity="1.0" stroke="#000000" stroke-width="0.0" stroke-opacity="1.0" stroke-linecap="round" stroke-linejoin="round"  filling="0" d="M246.242996 210.970001 C239.576324 212.636673 232.909668 214.303329 226.242996 215.970001 C226.080994 215.323334 225.919006 214.676666 225.757004 214.029999 C232.423676 212.363327 239.090332 210.696671 245.757004 209.029999 C245.919006 209.676666 246.080994 210.323334 246.242996 210.970001"></path>
<path id="" fill="#000000" fill-opacity="1.0" stroke="#000000" stroke-width="0.0" stroke-opacity="1.0" stroke-linecap="round" stroke-linejoin="round"  filling="0" d="M265.756989 209.029999 C272.423645 207.363327 279.090332 205.696671 285.756989 204.029999 C285.919006 204.676666 286.080994 205.323334 286.243011 205.970001 C279.576355 207.636673 272.909668 209.303329 266.243011 210.970001 C266.080994 210.323334 265.919006 209.676666 265.756989 209.029999"></path>
<path id="" fill="#000000" fill-opacity="1.0" stroke="#000000" stroke-width="0.0" stroke-opacity="1.0" stroke-linecap="round" stroke-linejoin="round"  filling="0" d="M266.000000 209.000000 C272.666656 209.000000 279.333344 209.000000 286.000000 209.000000 C286.000000 209.666672 286.000000 210.333328 286.000000 211.000000 C279.333344 211.000000 272.666656 211.000000 266.000000 211.000000 C266.000000 210.333328 266.000000 209.666672 266.000000 209.000000"></path>
<path id="" fill="#000000" fill-opacity="1.0" stroke="#000000" stroke-width="0.0" stroke-opacity="1.0" stroke-linecap="round" stroke-linejoin="round"  filling="0" d="M266.243011 209.029999 C272.909668 210.696671 279.576355 212.363327 286.243011 214.029999 C286.080994 214.676666 285.919006 215.323334 285.756989 215.970001 C279.090332 214.303329 272.423645 212.636673 265.756989 210.970001 C265.919006 210.323334 266.080994 209.676666 266.243011 209.029999"></path>
<path id="" fill="#FFA500" fill-opacity="1.0" stroke="#000000" stroke-width="0.0" stroke-opacity="1.0" stroke-linecap="round" stroke-linejoin="round"  filling="0" d="M180.000000 400.000000 C186.666672 416.666656 193.333328 433.333344 200.000000 450.000000 C206.666672 433.333344 213.333328 416.666656 220.000000 400.000000 C206.666672 400.000000 193.333328 400.000000 180.000000 400.000000"></path>
<path id="" fill="#00FF00" fill-opacity="1.0" stroke="#000000" stroke-width="0.0" stroke-opacity="1.0" stroke-linecap="round" stroke-linejoin="round"  filling="0" d="M193.507004 400.148987 C192.730667 392.384338 191.954330 384.619659 191.177994 376.855011 C194.118668 378.955688 197.059326 381.056335 200.000000 383.157013 C202.042664 381.697662 204.085342 380.238342 206.128006 378.778992 C206.709335 379.592987 207.290665 380.407013 207.871994 381.221008 C205.248001 383.095001 202.623993 384.968994 200.000000 386.842987 C198.274002 385.610321 196.548004 384.377655 194.822006 383.144989 C195.378998 388.713654 195.936005 394.282349 196.492996 399.851013 C195.497665 399.950348 194.502335 400.049652 193.507004 400.148987"></path>
<path id="" fill="#FFA500" fill-opacity="1.0" stroke="#000000" stroke-width="0.0" stroke-opacity="1.0" stroke-linecap="round" stroke-linejoin="round"  filling="0" d="M240.000000 410.000000 C246.666672 426.666656 253.333328 443.333344 260.000000 460.000000 C266.666656 443.333344 273.333344 426.666656 280.000000 410.000000 C266.666656 410.000000 253.333328 410.000000 240.000000 410.000000"></path>
<path id="" fill="#00FF00" fill-opacity="1.0" stroke="#000000" stroke-width="0.0" stroke-opacity="1.0" stroke-linecap="round" stroke-linejoin="round"  filling="0" d="M253.507004 410.148987 C252.730667 402.384338 251.954330 394.619659 251.177994 386.855011 C254.118668 388.955688 257.059326 391.056335 260.000000 393.157013 C262.042664 391.697662 264.085327 390.238342 266.127991 388.778992 C266.709320 389.592987 267.290680 390.407013 267.872009 391.221008 C265.248016 393.095001 262.623993 394.968994 260.000000 396.842987 C258.273987 395.610321 256.548004 394.377655 254.822006 393.144989 C255.379013 398.713654 255.936005 404.282349 256.493011 409.851013 C255.497681 409.950348 254.502335 410.049652 253.507004 410.148987"></path>
<path id="" fill="#FFA500" fill-opacity="1.0" stroke="#000000" stroke-width="0.0" stroke-opacity="1.0" stroke-linecap="round" stroke-linejoin="round"  filling="0" d="M300.000000 400.000000 C306.666656 416.666656 313.333344 433.333344 320.000000 450.000000 C326.666656 433.333344 333.333344 416.666656 340.000000 400.000000 C326.666656 400.000000 313.333344 400.000000 300.000000 400.000000"></path>
<path id="" fill="#00FF00" fill-opacity="1.0" stroke="#000000" stroke-width="0.0" stroke-opacity="1.0" stroke-linecap="round" stroke-linejoin="round"  filling="0" d="M313.506989 400.148987 C312.730652 392.384338 311.954346 384.619659 311.178009 376.855011 C314.118683 378.955688 317.059326 381.056335 320.000000 383.157013 C322.042664 381.697662 324.085327 380.238342 326.127991 378.778992 C326.709320 379.592987 327.290680 380.407013 327.872009 381.221008 C325.248016 383.095001 322.623993 384.968994 320.000000 386.842987 C318.273987 385.610321 316.548004 384.377655 314.821991 383.144989 C315.378998 388.713654 315.936005 394.282349 316.493011 399.851013 C315.497681 399.950348 314.502319 400.049652 313.506989 400.148987"></path>
</svg>