<svg xmlns="http://www.w3.org/2000/svg" viewBox="0 0 512 512" height="512.0px" width="512.0px">
<path id="" fill="#D0D0D0" fill-opacity="1.0" stroke="#000000" stroke-width="0.0" stroke-opacity="1.0" stroke-linecap="round" stroke-linejoin="round"  filling="0" d="M206.000000 200.000000 C239.333344 200.000000 272.666656 200.000000 306.000000 200.000000 C313.953430 200.000000 321.589264 203.162872 327.213196 208.786804 C332.837128 214.410736 336.000000 222.046555 336.000000 230.000000 C336.000000 276.666656 336.000000 323.333344 336.000000 370.000000 C336.000000 377.953430 332.837128 385.589264 327.213196 391.213196 C321.589264 396.837128 313.953430 400.000000 306.000000 400.000000 C272.666656 400.000000 239.333344 400.000000 206.000000 400.000000 C198.046555 400.000000 190.410736 396.837128 184.786804 391.213196 C179.162872 385.589264 176.000000 377.953430 176.000000 370.000000 C176.000000 323.333344 176.000000 276.666656 176.000000 230.000000 C176.000000 222.046555 179.162872 214.410736 184.786804 208.786804 C190.410736 203.162872 198.046555 200.000000 206.000000 200.000000"></path>
<path id="" fill="#E0E0E0" fill-opacity="1.0" stroke="#000000" stroke-width="0.0" stroke-opacity="1.0" stroke-linecap="round" stroke-linejoin="round"  filling="0" d="M336.000000 160.000000 C336.000000 181.209183 327.565704 201.571381 312.568542 216.568542 C297.571381 231.565704 277.209167 240.000000 256.000000 240.000000 C234.790817 240.000000 214.428619 231.565704 199.431458 216.568542 C184.434296 201.571381 176.000000 181.209183 176.000000 160.000000 C176.000000 138.790817 184.434296 118.428612 199.431458 103.431458 C214.428619 88.434303 234.790817 80.000000 256.000000 80.000000 C277.209167 80.000000 297.571381 88.434303 312.568542 103.431458 C327.565704 118.428612 336.000000 138.790817 336.000000 160.000000"></path>
<path id="" fill="#4FC3F7" fill-opacity="1.0" stroke="#000000" stroke-width="0.0" stroke-opacity="1.0" stroke-linecap="round" stroke-linejoin="round"  filling="0" d="M251.000000 150.000000 C251.000000 156.627869 248.364288 162.991058 243.677673 167.677673 C238.991058 172.364288 232.627869 175.000000 226.000000 175.000000 C219.372131 175.000000 213.008942 172.364288 208.322327 167.677673 C203.635712 162.991058 201.000000 156.627869 201.000000 150.000000 C201.000000 143.372131 203.635712 137.008942 208.322327 132.322327 C213.008942 127.635712 219.372131 125.000000 226.000000 125.000000 C232.627869 125.000000 238.991058 127.635712 243.677673 132.322327 C248.364288 137.008942 251.000000 143.372131 251.000000 150.000000"></path>
<path id="" fill="#4FC3F7" fill-opacity="1.0" stroke="#000000" stroke-width="0.0" stroke-opacity="1.0" stroke-linecap="round" stroke-linejoin="round"  filling="0" d="M311.000000 150.000000 C311.000000 156.627869 308.364288 162.991058 303.677673 167.677673 C298.991058 172.364288 292.627869 175.000000 286.000000 175.000000 C279.372131 175.000000 273.008942 172.364288 268.322327 167.677673 C263.635712 162.991058 261.000000 156.627869 261.000000 150.000000 C261.000000 143.372131 263.635712 137.008942 268.322327 132.322327 C273.008942 127.635712 279.372131 125.000000 286.000000 125.000000 C292.627869 125.000000 298.991058 127.635712 303.677673 132.322327 C308.364288 137.008942 311.000000 143.372131 311.000000 150.000000"></path>
<path id="" fill="#FFFFFF" fill-opacity="1.0" stroke="#000000" stroke-width="0.0" stroke-opacity="1.0" stroke-linecap="round" stroke-linejoin="round"  filling="0" d="M246.000000 140.000000 C246.000000 142.651154 244.945724 145.196426 243.071075 147.071075 C241.196426 148.945724 238.651154 150.000000 236.000000 150.000000 C233.348846 150.000000 230.803574 148.945724 228.928925 147.071075 C227.054276 145.196426 226.000000 142.651154 226.000000 140.000000 C226.000000 137.348846 227.054276 134.803574 228.928925 132.928925 C230.803574 131.054276 233.348846 130.000000 236.000000 130.000000 C238.651154 130.000000 241.196426 131.054276 243.071075 132.928925 C244.945724 134.803574 246.000000 137.348846 246.000000 140.000000"></path>
<path id="" fill="#FFFFFF" fill-opacity="1.0" stroke="#000000" stroke-width="0.0" stroke-opacity="1.0" stroke-linecap="round" stroke-linejoin="round"  filling="0" d="M306.000000 140.000000 C306.000000 142.651154 304.945709 145.196426 303.071075 147.071075 C301.196442 148.945724 298.651154 150.000000 296.000000 150.000000 C293.348846 150.000000 290.803558 148.945724 288.928925 147.071075 C287.054291 145.196426 286.000000 142.651154 286.000000 140.000000 C286.000000 137.348846 287.054291 134.803574 288.928925 132.928925 C290.803558 131.054276 293.348846 130.000000 296.000000 130.000000 C298.651154 130.000000 301.196442 131.054276 303.071075 132.928925 C304.945709 134.803574 306.000000 137.348846 306.000000 140.000000"></path>
<path id="" fill="#A0A0A0" fill-opacity="1.0" stroke="#000000" stroke-width="0.0" stroke-opacity="1.0" stroke-linecap="round" stroke-linejoin="round"  filling="0" d="M237.768005 188.231995 C249.922668 200.386673 262.077332 200.386673 274.231995 188.231995 C275.410675 189.410660 276.589325 190.589340 277.768005 191.768005 C270.613342 198.922668 263.357330 202.500000 256.000000 202.500000 C248.642670 202.500000 241.386673 198.922668 234.231995 191.768005 C235.410660 190.589340 236.589340 189.410660 237.768005 188.231995"></path>
<path id="" fill="#E0E0E0" fill-opacity="1.0" stroke="#000000" stroke-width="0.0" stroke-opacity="1.0" stroke-linecap="round" stroke-linejoin="round"  filling="0" d="M189.416000 256.708008 C177.737335 280.066010 174.782669 303.283997 180.552002 326.362000 C170.850662 328.787323 161.149338 331.212677 151.447998 333.638000 C143.884003 303.382660 147.596008 273.267334 162.584000 243.292007 C171.528000 247.764008 180.472000 252.236008 189.416000 256.708008"></path>
<path id="" fill="#E0E0E0" fill-opacity="1.0" stroke="#000000" stroke-width="0.0" stroke-opacity="1.0" stroke-linecap="round" stroke-linejoin="round"  filling="0" d="M349.415985 243.292007 C364.403992 273.267334 368.115997 303.382660 360.552002 333.638000 C350.850677 331.212677 341.149323 328.787323 331.447998 326.362000 C337.217316 303.283997 334.262665 280.066010 322.584015 256.708008 C331.528015 252.236008 340.471985 247.764008 349.415985 243.292007"></path>
<path id="" fill="#E0E0E0" fill-opacity="1.0" stroke="#000000" stroke-width="0.0" stroke-opacity="1.0" stroke-linecap="round" stroke-linejoin="round"  filling="0" d="M186.000000 340.000000 C186.000000 345.302307 183.891418 350.392853 180.142136 354.142151 C176.392853 357.891449 171.302292 360.000000 166.000000 360.000000 C160.697708 360.000000 155.607147 357.891449 151.857864 354.142151 C148.108582 350.392853 146.000000 345.302307 146.000000 340.000000 C146.000000 334.697693 148.108582 329.607147 151.857864 325.857849 C155.607147 322.108551 160.697708 320.000000 166.000000 320.000000 C171.302292 320.000000 176.392853 322.108551 180.142136 325.857849 C183.891418 329.607147 186.000000 334.697693 186.000000 340.000000"></path>
<path id="" fill="#E0E0E0" fill-opacity="1.0" stroke="#000000" stroke-width="0.0" stroke-opacity="1.0" stroke-linecap="round" stroke-linejoin="round"  filling="0" d="M366.000000 340.000000 C366.000000 345.302307 363.891449 350.392853 360.142151 354.142151 C356.392853 357.891449 351.302307 360.000000 346.000000 360.000000 C340.697693 360.000000 335.607147 357.891449 331.857849 354.142151 C328.108551 350.392853 326.000000 345.302307 326.000000 340.000000 C326.000000 334.697693 328.108551 329.607147 331.857849 325.857849 C335.607147 322.108551 340.697693 320.000000 346.000000 320.000000 C351.302307 320.000000 356.392853 322.108551 360.142151 325.857849 C363.891449 329.607147 366.000000 334.697693 366.000000 340.000000"></path>
<path id="" fill="#E0E0E0" fill-opacity="1.0" stroke="#000000" stroke-width="0.0" stroke-opacity="1.0" stroke-linecap="round" stroke-linejoin="round"  filling="0" d="M206.000000 400.000000 C219.333328 400.000000 232.666672 400.000000 246.000000 400.000000 C246.000000 426.666656 246.000000 453.333344 246.000000 480.000000 C232.666672 480.000000 219.333328 480.000000 206.000000 480.000000 C206.000000 453.333344 206.000000 426.666656 206.000000 400.000000"></path>
<path id="" fill="#E0E0E0" fill-opacity="1.0" stroke="#000000" stroke-width="0.0" stroke-opacity="1.0" stroke-linecap="round" stroke-linejoin="round"  filling="0" d="M266.000000 400.000000 C279.333344 400.000000 292.666656 400.000000 306.000000 400.000000 C306.000000 426.666656 306.000000 453.333344 306.000000 480.000000 C292.666656 480.000000 279.333344 480.000000 266.000000 480.000000 C266.000000 453.333344 266.000000 426.666656 266.000000 400.000000"></path>
<path id="" fill="#C0C0C0" fill-opacity="1.0" stroke="#000000" stroke-width="0.0" stroke-opacity="1.0" stroke-linecap="round" stroke-linejoin="round"  filling="0" d="M256.000000 490.000000 C256.000000 493.976715 252.837128 497.794617 247.213196 500.606598 C241.589264 503.418579 233.953445 505.000000 226.000000 505.000000 C218.046555 505.000000 210.410736 503.418579 204.786804 500.606598 C199.162872 497.794617 196.000000 493.976715 196.000000 490.000000 C196.000000 486.023285 199.162872 482.205383 204.786804 479.393402 C210.410736 476.581421 218.046555 475.000000 226.000000 475.000000 C233.953445 475.000000 241.589264 476.581421 247.213196 479.393402 C252.837128 482.205383 256.000000 486.023285 256.000000 490.000000"></path>
<path id="" fill="#C0C0C0" fill-opacity="1.0" stroke="#000000" stroke-width="0.0" stroke-opacity="1.0" stroke-linecap="round" stroke-linejoin="round"  filling="0" d="M316.000000 490.000000 C316.000000 493.976715 312.837128 497.794617 307.213196 500.606598 C301.589264 503.418579 293.953430 505.000000 286.000000 505.000000 C278.046570 505.000000 270.410736 503.418579 264.786804 500.606598 C259.162872 497.794617 256.000000 493.976715 256.000000 490.000000 C256.000000 486.023285 259.162872 482.205383 264.786804 479.393402 C270.410736 476.581421 278.046570 475.000000 286.000000 475.000000 C293.953430 475.000000 301.589264 476.581421 307.213196 479.393402 C312.837128 482.205383 316.000000 486.023285 316.000000 490.000000"></path>
<path id="" fill="#A0A0A0" fill-opacity="1.0" stroke="#000000" stroke-width="0.0" stroke-opacity="1.0" stroke-linecap="round" stroke-linejoin="round"  filling="0" d="M253.000000 80.000000 C253.000000 66.666664 253.000000 53.333336 253.000000 40.000000 C255.000000 40.000000 257.000000 40.000000 259.000000 40.000000 C259.000000 53.333336 259.000000 66.666664 259.000000 80.000000 C257.000000 80.000000 255.000000 80.000000 253.000000 80.000000"></path>
<path id="" fill="#FF6B6B" fill-opacity="1.0" stroke="#000000" stroke-width="0.0" stroke-opacity="1.0" stroke-linecap="round" stroke-linejoin="round"  filling="0" d="M266.000000 35.000000 C266.000000 37.651146 264.945709 40.196423 263.071075 42.071068 C261.196442 43.945713 258.651154 45.000000 256.000000 45.000000 C253.348846 45.000000 250.803574 43.945713 248.928925 42.071068 C247.054276 40.196423 246.000000 37.651146 246.000000 35.000000 C246.000000 32.348854 247.054276 29.803577 248.928925 27.928932 C250.803574 26.054287 253.348846 25.000000 256.000000 25.000000 C258.651154 25.000000 261.196442 26.054287 263.071075 27.928932 C264.945709 29.803577 266.000000 32.348854 266.000000 35.000000"></path>
</svg>