<svg xmlns="http://www.w3.org/2000/svg" viewBox="0 0 512 512" height="512.0px" width="512.0px">
<path id="" fill="#FF0000" fill-opacity="1.0" stroke="#000000" stroke-width="0.0" stroke-opacity="1.0" stroke-linecap="round" stroke-linejoin="round"  filling="0" d="M36.584000 293.291992 C71.408005 223.643997 106.977333 179.741333 143.292007 161.584000 C163.267334 151.596008 183.382675 149.134003 203.638000 154.197998 C222.992004 159.036667 241.981674 170.768326 260.606995 189.393005 C291.011017 219.797668 320.808685 235.000000 350.000000 235.000000 C379.191315 235.000000 408.988983 219.797668 439.393005 189.393005 C440.857666 187.928665 442.322327 186.464340 443.786987 185.000000 C445.858002 185.000000 447.928986 185.000000 450.000000 185.000000 C472.018677 185.000000 492.845673 199.726669 512.481018 229.179993 C529.890320 255.294006 547.139954 293.986328 564.229980 345.256989 C554.743347 348.419006 545.256653 351.580994 535.770020 354.743011 C519.526672 306.013672 503.442993 269.705994 487.519012 245.820007 C475.942322 228.455338 465.216980 218.428329 455.342987 215.738998 C420.777649 248.579666 385.663330 265.000000 350.000000 265.000000 C312.524658 265.000000 275.655670 246.869003 239.393005 210.606995 C224.684998 195.898331 210.341324 186.796677 196.362000 183.302002 C183.283997 180.032669 170.065994 181.737335 156.707993 188.416000 C126.355995 203.591995 95.258667 243.022659 63.416000 306.708008 C54.472000 302.235992 45.528000 297.764008 36.584000 293.291992"></path>
<path id="" fill="#808080" fill-opacity="1.0" stroke="#000000" stroke-width="0.0" stroke-opacity="1.0" stroke-linecap="round" stroke-linejoin="round"  filling="0" d="M50.000000 300.000000 C55.000000 300.000000 60.000000 300.000000 65.000000 300.000000 C65.000000 370.666687 65.000000 441.333313 65.000000 512.000000 C60.000000 512.000000 55.000000 512.000000 50.000000 512.000000 C50.000000 441.333313 50.000000 370.666687 50.000000 300.000000"></path>
<path id="" fill="#808080" fill-opacity="1.0" stroke="#000000" stroke-width="0.0" stroke-opacity="1.0" stroke-linecap="round" stroke-linejoin="round"  filling="0" d="M150.000000 100.000000 C155.000000 100.000000 160.000000 100.000000 165.000000 100.000000 C165.000000 237.333344 165.000000 374.666656 165.000000 512.000000 C160.000000 512.000000 155.000000 512.000000 150.000000 512.000000 C150.000000 374.666656 150.000000 237.333344 150.000000 100.000000"></path>
<path id="" fill="#808080" fill-opacity="1.0" stroke="#000000" stroke-width="0.0" stroke-opacity="1.0" stroke-linecap="round" stroke-linejoin="round"  filling="0" d="M250.000000 200.000000 C255.000000 200.000000 260.000000 200.000000 265.000000 200.000000 C265.000000 304.000000 265.000000 408.000000 265.000000 512.000000 C260.000000 512.000000 255.000000 512.000000 250.000000 512.000000 C250.000000 408.000000 250.000000 304.000000 250.000000 200.000000"></path>
<path id="" fill="#808080" fill-opacity="1.0" stroke="#000000" stroke-width="0.0" stroke-opacity="1.0" stroke-linecap="round" stroke-linejoin="round"  filling="0" d="M350.000000 100.000000 C355.000000 100.000000 360.000000 100.000000 365.000000 100.000000 C365.000000 237.333344 365.000000 374.666656 365.000000 512.000000 C360.000000 512.000000 355.000000 512.000000 350.000000 512.000000 C350.000000 374.666656 350.000000 237.333344 350.000000 100.000000"></path>
<path id="" fill="#808080" fill-opacity="1.0" stroke="#000000" stroke-width="0.0" stroke-opacity="1.0" stroke-linecap="round" stroke-linejoin="round"  filling="0" d="M450.000000 200.000000 C455.000000 200.000000 460.000000 200.000000 465.000000 200.000000 C465.000000 304.000000 465.000000 408.000000 465.000000 512.000000 C460.000000 512.000000 455.000000 512.000000 450.000000 512.000000 C450.000000 408.000000 450.000000 304.000000 450.000000 200.000000"></path>
<path id="" fill="#FF0000" fill-opacity="1.0" stroke="#000000" stroke-width="0.0" stroke-opacity="1.0" stroke-linecap="round" stroke-linejoin="round"  filling="0" d="M365.000000 200.000000 C365.000000 215.591324 361.985657 230.513992 355.957001 244.768005 C350.136353 258.527985 341.923004 270.710999 331.316986 281.316986 C320.710999 291.923004 308.527985 300.136353 294.768005 305.957001 C280.514008 311.985657 265.591339 315.000000 250.000000 315.000000 C234.408676 315.000000 219.486008 311.985657 205.231995 305.957001 C191.472000 300.136353 179.289001 291.923004 168.682999 281.316986 C158.076996 270.710999 149.863663 258.527985 144.042999 244.768005 C138.014328 230.513992 135.000000 215.591324 135.000000 200.000000 C135.000000 184.408676 138.014328 169.486008 144.042999 155.231995 C149.863663 141.472000 158.076996 129.289001 168.682999 118.682999 C179.289001 108.077003 191.472000 99.863670 205.231995 94.042999 C219.486008 88.014336 234.408676 85.000000 250.000000 85.000000 C265.591339 85.000000 280.514008 88.014336 294.768005 94.042999 C308.527985 99.863670 320.710999 108.077003 331.316986 118.682999 C341.923004 129.289001 350.136353 141.472000 355.957001 155.231995 C361.985657 169.486008 365.000000 184.408676 365.000000 200.000000"></path>
<path id="" fill="#ffffff" fill-opacity="1.0" stroke="#000000" stroke-width="0.0" stroke-opacity="1.0" stroke-linecap="round" stroke-linejoin="round"  filling="0" d="M335.000000 200.000000 C335.000000 176.528000 326.701324 156.493332 310.104004 139.895996 C293.506683 123.298660 273.472015 115.000000 250.000000 115.000000 C226.528000 115.000000 206.493332 123.298660 189.895996 139.895996 C173.298660 156.493332 165.000000 176.528000 165.000000 200.000000 C165.000000 223.472000 173.298660 243.506668 189.895996 260.104004 C206.493332 276.701324 226.528000 285.000000 250.000000 285.000000 C273.472015 285.000000 293.506683 276.701324 310.104004 260.104004 C326.701324 243.506668 335.000000 223.472000 335.000000 200.000000"></path>
<path id="" fill="#FF0000" fill-opacity="1.0" stroke="#000000" stroke-width="0.0" stroke-opacity="1.0" stroke-linecap="round" stroke-linejoin="round"  filling="0" d="M565.000000 200.000000 C565.000000 215.591324 561.985657 230.513992 555.956970 244.768005 C550.136963 258.527985 541.923645 270.710999 531.317017 281.316986 C520.710999 291.923004 508.528015 300.136353 494.768005 305.957001 C480.514008 311.985657 465.591339 315.000000 450.000000 315.000000 C434.408661 315.000000 419.485992 311.985657 405.231995 305.957001 C391.472015 300.136353 379.289001 291.923004 368.683014 281.316986 C358.076355 270.710999 349.863007 258.527985 344.042999 244.768005 C338.014343 230.513992 335.000000 215.591324 335.000000 200.000000 C335.000000 184.408676 338.014343 169.486008 344.042999 155.231995 C349.863647 141.472000 358.076996 129.289001 368.683014 118.682999 C379.289001 108.077003 391.472015 99.863670 405.231995 94.042999 C419.485992 88.014336 434.408661 85.000000 450.000000 85.000000 C465.591339 85.000000 480.514008 88.014336 494.768005 94.042999 C508.528015 99.863670 520.710999 108.077003 531.317017 118.682999 C541.923035 129.289001 550.136353 141.472000 555.956970 155.231995 C561.985657 169.486008 565.000000 184.408676 565.000000 200.000000"></path>
<path id="" fill="#ffffff" fill-opacity="1.0" stroke="#000000" stroke-width="0.0" stroke-opacity="1.0" stroke-linecap="round" stroke-linejoin="round"  filling="0" d="M535.000000 200.000000 C535.000000 176.528000 526.701355 156.493332 510.104004 139.895996 C493.506683 123.298660 473.472015 115.000000 450.000000 115.000000 C426.527985 115.000000 406.493317 123.298660 389.895996 139.895996 C373.298676 156.493332 365.000000 176.528000 365.000000 200.000000 C365.000000 223.472000 373.298676 243.506668 389.895996 260.104004 C406.493317 276.701324 426.527985 285.000000 450.000000 285.000000 C473.472015 285.000000 493.506683 276.701324 510.104004 260.104004 C526.701355 243.506668 535.000000 223.472000 535.000000 200.000000"></path>
<path id="" fill="#C0C0C0" fill-opacity="1.0" stroke="#000000" stroke-width="0.0" stroke-opacity="1.0" stroke-linecap="round" stroke-linejoin="round"  filling="0" d="M130.000000 85.000000 C163.333344 85.000000 196.666656 85.000000 230.000000 85.000000 C230.000000 101.666672 230.000000 118.333328 230.000000 135.000000 C196.666656 135.000000 163.333344 135.000000 130.000000 135.000000 C130.000000 118.333328 130.000000 101.666672 130.000000 85.000000"></path>
<path id="" fill="#A0A0A0" fill-opacity="1.0" stroke="#000000" stroke-width="0.0" stroke-opacity="1.0" stroke-linecap="round" stroke-linejoin="round"  filling="0" d="M130.000000 75.000000 C163.333344 75.000000 196.666656 75.000000 230.000000 75.000000 C230.000000 78.333336 230.000000 81.666664 230.000000 85.000000 C196.666656 85.000000 163.333344 85.000000 130.000000 85.000000 C130.000000 81.666664 130.000000 78.333336 130.000000 75.000000"></path>
<path id="" fill="#000000" fill-opacity="1.0" stroke="#000000" stroke-width="0.0" stroke-opacity="1.0" stroke-linecap="round" stroke-linejoin="round"  filling="0" d="M155.000000 135.000000 C155.000000 137.651154 153.945724 140.196426 152.071075 142.071075 C150.196426 143.945724 147.651154 145.000000 145.000000 145.000000 C142.348846 145.000000 139.803574 143.945724 137.928925 142.071075 C136.054276 140.196426 135.000000 137.651154 135.000000 135.000000 C135.000000 132.348846 136.054276 129.803574 137.928925 127.928932 C139.803574 126.054291 142.348846 125.000000 145.000000 125.000000 C147.651154 125.000000 150.196426 126.054291 152.071075 127.928932 C153.945724 129.803574 155.000000 132.348846 155.000000 135.000000"></path>
<path id="" fill="#000000" fill-opacity="1.0" stroke="#000000" stroke-width="0.0" stroke-opacity="1.0" stroke-linecap="round" stroke-linejoin="round"  filling="0" d="M225.000000 135.000000 C225.000000 137.651154 223.945724 140.196426 222.071075 142.071075 C220.196426 143.945724 217.651154 145.000000 215.000000 145.000000 C212.348846 145.000000 209.803574 143.945724 207.928925 142.071075 C206.054276 140.196426 205.000000 137.651154 205.000000 135.000000 C205.000000 132.348846 206.054276 129.803574 207.928925 127.928932 C209.803574 126.054291 212.348846 125.000000 215.000000 125.000000 C217.651154 125.000000 220.196426 126.054291 222.071075 127.928932 C223.945724 129.803574 225.000000 132.348846 225.000000 135.000000"></path>
<path id="" fill="#808080" fill-opacity="1.0" stroke="#000000" stroke-width="0.0" stroke-opacity="1.0" stroke-linecap="round" stroke-linejoin="round"  filling="0" d="M140.000000 90.000000 C148.333328 90.000000 156.666672 90.000000 165.000000 90.000000 C165.000000 96.666664 165.000000 103.333336 165.000000 110.000000 C156.666672 110.000000 148.333328 110.000000 140.000000 110.000000 C140.000000 103.333336 140.000000 96.666664 140.000000 90.000000"></path>
<path id="" fill="#808080" fill-opacity="1.0" stroke="#000000" stroke-width="0.0" stroke-opacity="1.0" stroke-linecap="round" stroke-linejoin="round"  filling="0" d="M170.000000 90.000000 C178.333328 90.000000 186.666672 90.000000 195.000000 90.000000 C195.000000 96.666664 195.000000 103.333336 195.000000 110.000000 C186.666672 110.000000 178.333328 110.000000 170.000000 110.000000 C170.000000 103.333336 170.000000 96.666664 170.000000 90.000000"></path>
<path id="" fill="#808080" fill-opacity="1.0" stroke="#000000" stroke-width="0.0" stroke-opacity="1.0" stroke-linecap="round" stroke-linejoin="round"  filling="0" d="M200.000000 90.000000 C208.333328 90.000000 216.666672 90.000000 225.000000 90.000000 C225.000000 96.666664 225.000000 103.333336 225.000000 110.000000 C216.666672 110.000000 208.333328 110.000000 200.000000 110.000000 C200.000000 103.333336 200.000000 96.666664 200.000000 90.000000"></path>
<path id="" fill="#000000" fill-opacity="1.0" stroke="#000000" stroke-width="0.0" stroke-opacity="1.0" stroke-linecap="round" stroke-linejoin="round"  filling="0" d="M140.000000 93.000000 C148.333328 93.000000 156.666672 93.000000 165.000000 93.000000 C165.000000 94.333336 165.000000 95.666664 165.000000 97.000000 C156.666672 97.000000 148.333328 97.000000 140.000000 97.000000 C140.000000 95.666664 140.000000 94.333336 140.000000 93.000000"></path>
<path id="" fill="#000000" fill-opacity="1.0" stroke="#000000" stroke-width="0.0" stroke-opacity="1.0" stroke-linecap="round" stroke-linejoin="round"  filling="0" d="M170.000000 93.000000 C178.333328 93.000000 186.666672 93.000000 195.000000 93.000000 C195.000000 94.333336 195.000000 95.666664 195.000000 97.000000 C186.666672 97.000000 178.333328 97.000000 170.000000 97.000000 C170.000000 95.666664 170.000000 94.333336 170.000000 93.000000"></path>
<path id="" fill="#000000" fill-opacity="1.0" stroke="#000000" stroke-width="0.0" stroke-opacity="1.0" stroke-linecap="round" stroke-linejoin="round"  filling="0" d="M200.000000 93.000000 C208.333328 93.000000 216.666672 93.000000 225.000000 93.000000 C225.000000 94.333336 225.000000 95.666664 225.000000 97.000000 C216.666672 97.000000 208.333328 97.000000 200.000000 97.000000 C200.000000 95.666664 200.000000 94.333336 200.000000 93.000000"></path>
</svg>