<svg xmlns="http://www.w3.org/2000/svg" viewBox="0 0 512 512" height="512.0px" width="512.0px">
<path id="" fill="#C0C0C0" fill-opacity="1.0" stroke="#000000" stroke-width="0.0" stroke-opacity="1.0" stroke-linecap="round" stroke-linejoin="round"  filling="0" d="M248.000000 66.000000 C253.333328 66.000000 258.666656 66.000000 264.000000 66.000000 C267.333344 159.333344 270.666656 252.666656 274.000000 346.000000 C262.000000 346.000000 250.000000 346.000000 238.000000 346.000000 C241.333328 252.666656 244.666672 159.333344 248.000000 66.000000"></path>
<path id="" fill="#FFD700" fill-opacity="1.0" stroke="#000000" stroke-width="0.0" stroke-opacity="1.0" stroke-linecap="round" stroke-linejoin="round"  filling="0" d="M228.000000 346.000000 C246.666672 346.000000 265.333344 346.000000 284.000000 346.000000 C284.000000 350.000000 284.000000 354.000000 284.000000 358.000000 C265.333344 358.000000 246.666672 358.000000 228.000000 358.000000 C228.000000 354.000000 228.000000 350.000000 228.000000 346.000000"></path>
<path id="" fill="#8B4513" fill-opacity="1.0" stroke="#000000" stroke-width="0.0" stroke-opacity="1.0" stroke-linecap="round" stroke-linejoin="round"  filling="0" d="M250.000000 358.000000 C254.000000 358.000000 258.000000 358.000000 262.000000 358.000000 C262.000000 381.333344 262.000000 404.666656 262.000000 428.000000 C258.000000 428.000000 254.000000 428.000000 250.000000 428.000000 C250.000000 404.666656 250.000000 381.333344 250.000000 358.000000"></path>
<path id="" fill="#FFD700" fill-opacity="1.0" stroke="#000000" stroke-width="0.0" stroke-opacity="1.0" stroke-linecap="round" stroke-linejoin="round"  filling="0" d="M266.000000 438.000000 C266.000000 440.651154 264.945709 443.196442 263.071075 445.071075 C261.196442 446.945709 258.651154 448.000000 256.000000 448.000000 C253.348846 448.000000 250.803574 446.945709 248.928925 445.071075 C247.054276 443.196442 246.000000 440.651154 246.000000 438.000000 C246.000000 435.348846 247.054276 432.803558 248.928925 430.928925 C250.803574 429.054291 253.348846 428.000000 256.000000 428.000000 C258.651154 428.000000 261.196442 429.054291 263.071075 430.928925 C264.945709 432.803558 266.000000 435.348846 266.000000 438.000000"></path>
<path id="" fill="#FF0000" fill-opacity="1.0" stroke="#000000" stroke-width="0.0" stroke-opacity="1.0" stroke-linecap="round" stroke-linejoin="round"  filling="0" d="M261.000000 438.000000 C261.000000 439.325562 260.472839 440.598206 259.535522 441.535522 C258.598206 442.472839 257.325562 443.000000 256.000000 443.000000 C254.674423 443.000000 253.401779 442.472839 252.464462 441.535522 C251.527145 440.598206 251.000000 439.325562 251.000000 438.000000 C251.000000 436.674438 251.527145 435.401794 252.464462 434.464478 C253.401779 433.527161 254.674423 433.000000 256.000000 433.000000 C257.325562 433.000000 258.598206 433.527161 259.535522 434.464478 C260.472839 435.401794 261.000000 436.674438 261.000000 438.000000"></path>
<path id="" fill="#000000" fill-opacity="1.0" stroke="#000000" stroke-width="0.0" stroke-opacity="1.0" stroke-linecap="round" stroke-linejoin="round"  filling="0" d="M233.000000 348.500000 C236.333328 348.500000 239.666672 348.500000 243.000000 348.500000 C243.000000 348.833344 243.000000 349.166656 243.000000 349.500000 C239.666672 349.500000 236.333328 349.500000 233.000000 349.500000 C233.000000 349.166656 233.000000 348.833344 233.000000 348.500000"></path>
<path id="" fill="#000000" fill-opacity="1.0" stroke="#000000" stroke-width="0.0" stroke-opacity="1.0" stroke-linecap="round" stroke-linejoin="round"  filling="0" d="M233.000000 351.500000 C236.333328 351.500000 239.666672 351.500000 243.000000 351.500000 C243.000000 351.833344 243.000000 352.166656 243.000000 352.500000 C239.666672 352.500000 236.333328 352.500000 233.000000 352.500000 C233.000000 352.166656 233.000000 351.833344 233.000000 351.500000"></path>
<path id="" fill="#000000" fill-opacity="1.0" stroke="#000000" stroke-width="0.0" stroke-opacity="1.0" stroke-linecap="round" stroke-linejoin="round"  filling="0" d="M233.000000 354.500000 C236.333328 354.500000 239.666672 354.500000 243.000000 354.500000 C243.000000 354.833344 243.000000 355.166656 243.000000 355.500000 C239.666672 355.500000 236.333328 355.500000 233.000000 355.500000 C233.000000 355.166656 233.000000 354.833344 233.000000 354.500000"></path>
<path id="" fill="#000000" fill-opacity="1.0" stroke="#000000" stroke-width="0.0" stroke-opacity="1.0" stroke-linecap="round" stroke-linejoin="round"  filling="0" d="M269.000000 348.500000 C272.333344 348.500000 275.666656 348.500000 279.000000 348.500000 C279.000000 348.833344 279.000000 349.166656 279.000000 349.500000 C275.666656 349.500000 272.333344 349.500000 269.000000 349.500000 C269.000000 349.166656 269.000000 348.833344 269.000000 348.500000"></path>
<path id="" fill="#000000" fill-opacity="1.0" stroke="#000000" stroke-width="0.0" stroke-opacity="1.0" stroke-linecap="round" stroke-linejoin="round"  filling="0" d="M269.000000 351.500000 C272.333344 351.500000 275.666656 351.500000 279.000000 351.500000 C279.000000 351.833344 279.000000 352.166656 279.000000 352.500000 C275.666656 352.500000 272.333344 352.500000 269.000000 352.500000 C269.000000 352.166656 269.000000 351.833344 269.000000 351.500000"></path>
<path id="" fill="#000000" fill-opacity="1.0" stroke="#000000" stroke-width="0.0" stroke-opacity="1.0" stroke-linecap="round" stroke-linejoin="round"  filling="0" d="M269.000000 354.500000 C272.333344 354.500000 275.666656 354.500000 279.000000 354.500000 C279.000000 354.833344 279.000000 355.166656 279.000000 355.500000 C275.666656 355.500000 272.333344 355.500000 269.000000 355.500000 C269.000000 355.166656 269.000000 354.833344 269.000000 354.500000"></path>
</svg>