<svg xmlns="http://www.w3.org/2000/svg" viewBox="0 0 512 512" height="512.0px" width="512.0px">
<path id="" fill="#5db3ec" fill-opacity="1.0" stroke="#000000" stroke-width="0.0" stroke-opacity="1.0" stroke-linecap="round" stroke-linejoin="round"  filling="0" d="M0.000000 0.000000 C170.666672 0.000000 341.333313 0.000000 512.000000 0.000000 C512.000000 170.666672 512.000000 341.333313 512.000000 512.000000 C341.333313 512.000000 170.666672 512.000000 0.000000 512.000000 C0.000000 341.333313 0.000000 170.666672 0.000000 0.000000"></path>
<path id="" fill="#1E90FF" fill-opacity="1.0" stroke="#000000" stroke-width="0.0" stroke-opacity="1.0" stroke-linecap="round" stroke-linejoin="round"  filling="0" d="M0.910000 97.670998 C85.636673 130.767670 170.363327 130.767670 255.089996 97.670998 C341.308655 63.992332 427.458313 80.778664 513.539001 148.029999 C512.513000 149.343338 511.487000 150.656662 510.460999 151.970001 C425.876343 85.887329 341.359344 69.340332 256.910004 102.329002 C170.970001 135.899658 85.029999 135.899658 -0.910000 102.329002 C-0.303333 100.776337 0.303333 99.223663 0.910000 97.670998"></path>
<path id="" fill="#1E90FF" fill-opacity="1.0" stroke="#000000" stroke-width="0.0" stroke-opacity="1.0" stroke-linecap="round" stroke-linejoin="round"  filling="0" d="M-0.910000 297.670990 C85.029999 264.100342 170.970001 264.100342 256.910004 297.670990 C341.359344 330.659668 425.876343 314.112671 510.460999 248.029999 C511.487000 249.343338 512.513000 250.656662 513.539001 251.970001 C427.457642 319.221985 341.307983 336.008331 255.089996 302.329010 C170.363327 269.231659 85.636673 269.231659 0.910000 302.329010 C0.303333 300.776337 -0.303333 299.223663 -0.910000 297.670990"></path>
<path id="" fill="#4682B4" fill-opacity="1.0" stroke="#000000" stroke-width="0.0" stroke-opacity="1.0" stroke-linecap="round" stroke-linejoin="round"  filling="0" d="M406.000000 256.000000 C406.000000 269.255737 390.185669 281.982117 362.066010 291.355347 C333.946350 300.728577 295.767212 306.000000 256.000000 306.000000 C216.232788 306.000000 178.053665 300.728577 149.933990 291.355347 C121.814323 281.982117 106.000000 269.255737 106.000000 256.000000 C106.000000 242.744263 121.814323 230.017883 149.933990 220.644653 C178.053665 211.271423 216.232788 206.000000 256.000000 206.000000 C295.767212 206.000000 333.946350 211.271423 362.066010 220.644653 C390.185669 230.017883 406.000000 242.744263 406.000000 256.000000"></path>
<path id="" fill="#4682B4" fill-opacity="1.0" stroke="#000000" stroke-width="0.0" stroke-opacity="1.0" stroke-linecap="round" stroke-linejoin="round"  filling="0" d="M406.000000 256.000000 C419.333344 246.000000 432.666656 236.000000 446.000000 226.000000 C446.000000 246.000000 446.000000 266.000000 446.000000 286.000000 C432.666656 276.000000 419.333344 266.000000 406.000000 256.000000"></path>
<path id="" fill="#4682B4" fill-opacity="1.0" stroke="#000000" stroke-width="0.0" stroke-opacity="1.0" stroke-linecap="round" stroke-linejoin="round"  filling="0" d="M306.000000 206.000000 C312.666656 196.000000 319.333344 186.000000 326.000000 176.000000 C332.666656 186.000000 339.333344 196.000000 346.000000 206.000000 C332.666656 206.000000 319.333344 206.000000 306.000000 206.000000"></path>
<path id="" fill="#000000" fill-opacity="1.0" stroke="#000000" stroke-width="0.0" stroke-opacity="1.0" stroke-linecap="round" stroke-linejoin="round"  filling="0" d="M151.000000 246.000000 C151.000000 247.325577 150.472855 248.598221 149.535538 249.535538 C148.598221 250.472855 147.325577 251.000000 146.000000 251.000000 C144.674423 251.000000 143.401779 250.472855 142.464462 249.535538 C141.527145 248.598221 141.000000 247.325577 141.000000 246.000000 C141.000000 244.674423 141.527145 243.401779 142.464462 242.464462 C143.401779 241.527145 144.674423 241.000000 146.000000 241.000000 C147.325577 241.000000 148.598221 241.527145 149.535538 242.464462 C150.472855 243.401779 151.000000 244.674423 151.000000 246.000000"></path>
<path id="" fill="#FFFFFF" fill-opacity="1.0" stroke="#000000" stroke-width="0.0" stroke-opacity="1.0" stroke-linecap="round" stroke-linejoin="round"  filling="0" d="M108.000000 150.000000 C108.000000 152.120911 107.156570 154.157150 105.656853 155.656860 C104.157135 157.156570 102.120918 158.000000 100.000000 158.000000 C97.879082 158.000000 95.842865 157.156570 94.343147 155.656860 C92.843430 154.157150 92.000000 152.120911 92.000000 150.000000 C92.000000 147.879089 92.843430 145.842850 94.343147 144.343140 C95.842865 142.843430 97.879082 142.000000 100.000000 142.000000 C102.120918 142.000000 104.157135 142.843430 105.656853 144.343140 C107.156570 145.842850 108.000000 147.879089 108.000000 150.000000"></path>
<path id="" fill="#FFFFFF" fill-opacity="1.0" stroke="#000000" stroke-width="0.0" stroke-opacity="1.0" stroke-linecap="round" stroke-linejoin="round"  filling="0" d="M125.000000 180.000000 C125.000000 181.325577 124.472862 182.598221 123.535538 183.535538 C122.598213 184.472855 121.325577 185.000000 120.000000 185.000000 C118.674423 185.000000 117.401787 184.472855 116.464462 183.535538 C115.527138 182.598221 115.000000 181.325577 115.000000 180.000000 C115.000000 178.674423 115.527138 177.401779 116.464462 176.464462 C117.401787 175.527145 118.674423 175.000000 120.000000 175.000000 C121.325577 175.000000 122.598213 175.527145 123.535538 176.464462 C124.472862 177.401779 125.000000 178.674423 125.000000 180.000000"></path>
<path id="" fill="#FFFFFF" fill-opacity="1.0" stroke="#000000" stroke-width="0.0" stroke-opacity="1.0" stroke-linecap="round" stroke-linejoin="round"  filling="0" d="M426.000000 220.000000 C426.000000 221.590683 425.367432 223.117859 424.242645 224.242645 C423.117859 225.367432 421.590698 226.000000 420.000000 226.000000 C418.409302 226.000000 416.882141 225.367432 415.757355 224.242645 C414.632568 223.117859 414.000000 221.590683 414.000000 220.000000 C414.000000 218.409317 414.632568 216.882141 415.757355 215.757355 C416.882141 214.632568 418.409302 214.000000 420.000000 214.000000 C421.590698 214.000000 423.117859 214.632568 424.242645 215.757355 C425.367432 216.882141 426.000000 218.409317 426.000000 220.000000"></path>
<path id="" fill="#FFFFFF" fill-opacity="1.0" stroke="#000000" stroke-width="0.0" stroke-opacity="1.0" stroke-linecap="round" stroke-linejoin="round"  filling="0" d="M404.000000 180.000000 C404.000000 181.060455 403.578278 182.078568 402.828430 182.828430 C402.078583 183.578293 401.060455 184.000000 400.000000 184.000000 C398.939545 184.000000 397.921417 183.578293 397.171570 182.828430 C396.421722 182.078568 396.000000 181.060455 396.000000 180.000000 C396.000000 178.939545 396.421722 177.921432 397.171570 177.171570 C397.921417 176.421707 398.939545 176.000000 400.000000 176.000000 C401.060455 176.000000 402.078583 176.421707 402.828430 177.171570 C403.578278 177.921432 404.000000 178.939545 404.000000 180.000000"></path>
<path id="" fill="#FFFFFF" fill-opacity="1.0" stroke="#000000" stroke-width="0.0" stroke-opacity="1.0" stroke-linecap="round" stroke-linejoin="round"  filling="0" d="M387.000000 150.000000 C387.000000 151.855804 386.261993 153.637497 384.949738 154.949753 C383.637482 156.262009 381.855804 157.000000 380.000000 157.000000 C378.144196 157.000000 376.362518 156.262009 375.050262 154.949753 C373.738007 153.637497 373.000000 151.855804 373.000000 150.000000 C373.000000 148.144196 373.738007 146.362503 375.050262 145.050247 C376.362518 143.737991 378.144196 143.000000 380.000000 143.000000 C381.855804 143.000000 383.637482 143.737991 384.949738 145.050247 C386.261993 146.362503 387.000000 148.144196 387.000000 150.000000"></path>
</svg>