<svg xmlns="http://www.w3.org/2000/svg" viewBox="0 0 512 512" height="512.0px" width="512.0px">
<path id="" fill="#87CEEB" fill-opacity="1.0" stroke="#000000" stroke-width="0.0" stroke-opacity="1.0" stroke-linecap="round" stroke-linejoin="round"  filling="0" d="M0.000000 0.000000 C170.666672 0.000000 341.333313 0.000000 512.000000 0.000000 C512.000000 170.666672 512.000000 341.333313 512.000000 512.000000 C341.333313 512.000000 170.666672 512.000000 0.000000 512.000000 C0.000000 341.333313 0.000000 170.666672 0.000000 0.000000"></path>
<path id="" fill="#FFFFFF" fill-opacity="1.0" stroke="#000000" stroke-width="0.0" stroke-opacity="1.0" stroke-linecap="round" stroke-linejoin="round"  filling="0" d="M140.000000 100.000000 C140.000000 110.604591 135.782852 120.785690 128.284271 128.284271 C120.785690 135.782852 110.604591 140.000000 100.000000 140.000000 C89.395409 140.000000 79.214310 135.782852 71.715729 128.284271 C64.217148 120.785690 60.000000 110.604591 60.000000 100.000000 C60.000000 89.395409 64.217148 79.214310 71.715729 71.715729 C79.214310 64.217148 89.395409 60.000000 100.000000 60.000000 C110.604591 60.000000 120.785690 64.217148 128.284271 71.715729 C135.782852 79.214310 140.000000 89.395409 140.000000 100.000000"></path>
<path id="" fill="#FFFFFF" fill-opacity="1.0" stroke="#000000" stroke-width="0.0" stroke-opacity="1.0" stroke-linecap="round" stroke-linejoin="round"  filling="0" d="M165.000000 90.000000 C165.000000 99.279015 161.309982 108.187477 154.748734 114.748734 C148.187485 121.309990 139.279022 125.000000 130.000000 125.000000 C120.720985 125.000000 111.812523 121.309990 105.251266 114.748734 C98.690010 108.187477 95.000000 99.279015 95.000000 90.000000 C95.000000 80.720985 98.690010 71.812523 105.251266 65.251266 C111.812523 58.690010 120.720985 55.000000 130.000000 55.000000 C139.279022 55.000000 148.187485 58.690010 154.748734 65.251266 C161.309982 71.812523 165.000000 80.720985 165.000000 90.000000"></path>
<path id="" fill="#FFFFFF" fill-opacity="1.0" stroke="#000000" stroke-width="0.0" stroke-opacity="1.0" stroke-linecap="round" stroke-linejoin="round"  filling="0" d="M100.000000 110.000000 C100.000000 117.953445 96.837135 125.589264 91.213203 131.213196 C85.589272 136.837128 77.953445 140.000000 70.000000 140.000000 C62.046555 140.000000 54.410728 136.837128 48.786797 131.213196 C43.162865 125.589264 40.000000 117.953445 40.000000 110.000000 C40.000000 102.046555 43.162865 94.410728 48.786797 88.786797 C54.410728 83.162865 62.046555 80.000000 70.000000 80.000000 C77.953445 80.000000 85.589272 83.162865 91.213203 88.786797 C96.837135 94.410728 100.000000 102.046555 100.000000 110.000000"></path>
<path id="" fill="#FFFFFF" fill-opacity="1.0" stroke="#000000" stroke-width="0.0" stroke-opacity="1.0" stroke-linecap="round" stroke-linejoin="round"  filling="0" d="M445.000000 150.000000 C445.000000 161.930161 440.255707 173.383911 431.819794 181.819809 C423.383881 190.255707 411.930176 195.000000 400.000000 195.000000 C388.069824 195.000000 376.616119 190.255707 368.180206 181.819809 C359.744293 173.383911 355.000000 161.930161 355.000000 150.000000 C355.000000 138.069839 359.744293 126.616089 368.180206 118.180191 C376.616119 109.744293 388.069824 105.000000 400.000000 105.000000 C411.930176 105.000000 423.383881 109.744293 431.819794 118.180191 C440.255707 126.616089 445.000000 138.069839 445.000000 150.000000"></path>
<path id="" fill="#FFFFFF" fill-opacity="1.0" stroke="#000000" stroke-width="0.0" stroke-opacity="1.0" stroke-linecap="round" stroke-linejoin="round"  filling="0" d="M470.000000 140.000000 C470.000000 150.604584 465.782837 160.785690 458.284271 168.284271 C450.785706 175.782852 440.604584 180.000000 430.000000 180.000000 C419.395416 180.000000 409.214294 175.782852 401.715729 168.284271 C394.217163 160.785690 390.000000 150.604584 390.000000 140.000000 C390.000000 129.395416 394.217163 119.214310 401.715729 111.715729 C409.214294 104.217148 419.395416 100.000000 430.000000 100.000000 C440.604584 100.000000 450.785706 104.217148 458.284271 111.715729 C465.782837 119.214310 470.000000 129.395416 470.000000 140.000000"></path>
<path id="" fill="#FFFFFF" fill-opacity="1.0" stroke="#000000" stroke-width="0.0" stroke-opacity="1.0" stroke-linecap="round" stroke-linejoin="round"  filling="0" d="M405.000000 160.000000 C405.000000 169.279022 401.309998 178.187485 394.748749 184.748734 C388.187500 191.309982 379.279022 195.000000 370.000000 195.000000 C360.720978 195.000000 351.812500 191.309982 345.251251 184.748734 C338.690002 178.187485 335.000000 169.279022 335.000000 160.000000 C335.000000 150.720978 338.690002 141.812515 345.251251 135.251266 C351.812500 128.690018 360.720978 125.000000 370.000000 125.000000 C379.279022 125.000000 388.187500 128.690018 394.748749 135.251266 C401.309998 141.812515 405.000000 150.720978 405.000000 160.000000"></path>
<path id="" fill="#FFFFFF" fill-opacity="1.0" stroke="#000000" stroke-width="0.0" stroke-opacity="1.0" stroke-linecap="round" stroke-linejoin="round"  filling="0" d="M225.000000 80.000000 C225.000000 86.627869 222.364288 92.991058 217.677673 97.677673 C212.991058 102.364288 206.627869 105.000000 200.000000 105.000000 C193.372131 105.000000 187.008942 102.364288 182.322327 97.677673 C177.635712 92.991058 175.000000 86.627869 175.000000 80.000000 C175.000000 73.372131 177.635712 67.008942 182.322327 62.322330 C187.008942 57.635719 193.372131 55.000000 200.000000 55.000000 C206.627869 55.000000 212.991058 57.635719 217.677673 62.322330 C222.364288 67.008942 225.000000 73.372131 225.000000 80.000000"></path>
<path id="" fill="#FFFFFF" fill-opacity="1.0" stroke="#000000" stroke-width="0.0" stroke-opacity="1.0" stroke-linecap="round" stroke-linejoin="round"  filling="0" d="M320.000000 50.000000 C320.000000 55.302296 317.891449 60.392845 314.142151 64.142136 C310.392853 67.891426 305.302307 70.000000 300.000000 70.000000 C294.697693 70.000000 289.607147 67.891426 285.857849 64.142136 C282.108551 60.392845 280.000000 55.302296 280.000000 50.000000 C280.000000 44.697704 282.108551 39.607155 285.857849 35.857864 C289.607147 32.108574 294.697693 30.000000 300.000000 30.000000 C305.302307 30.000000 310.392853 32.108574 314.142151 35.857864 C317.891449 39.607155 320.000000 44.697704 320.000000 50.000000"></path>
<path id="" fill="#FFFFFF" fill-opacity="1.0" stroke="#000000" stroke-width="0.0" stroke-opacity="1.0" stroke-linecap="round" stroke-linejoin="round"  filling="0" d="M465.000000 70.000000 C465.000000 73.976723 463.418579 77.794632 460.606598 80.606598 C457.794617 83.418564 453.976715 85.000000 450.000000 85.000000 C446.023285 85.000000 442.205383 83.418564 439.393402 80.606598 C436.581421 77.794632 435.000000 73.976723 435.000000 70.000000 C435.000000 66.023277 436.581421 62.205364 439.393402 59.393398 C442.205383 56.581432 446.023285 55.000000 450.000000 55.000000 C453.976715 55.000000 457.794617 56.581432 460.606598 59.393398 C463.418579 62.205364 465.000000 66.023277 465.000000 70.000000"></path>
<path id="" fill="#FFFFFF" fill-opacity="1.0" stroke="#000000" stroke-width="0.0" stroke-opacity="1.0" stroke-linecap="round" stroke-linejoin="round"  filling="0" d="M406.000000 256.000000 C406.000000 263.953430 390.185669 271.589264 362.066010 277.213196 C333.946350 282.837128 295.767212 286.000000 256.000000 286.000000 C216.232788 286.000000 178.053665 282.837128 149.933990 277.213196 C121.814323 271.589264 106.000000 263.953430 106.000000 256.000000 C106.000000 248.046555 121.814323 240.410736 149.933990 234.786804 C178.053665 229.162872 216.232788 226.000000 256.000000 226.000000 C295.767212 226.000000 333.946350 229.162872 362.066010 234.786804 C390.185669 240.410736 406.000000 248.046555 406.000000 256.000000"></path>
<path id="" fill="#FFFFFF" fill-opacity="1.0" stroke="#000000" stroke-width="0.0" stroke-opacity="1.0" stroke-linecap="round" stroke-linejoin="round"  filling="0" d="M106.000000 256.000000 C116.000000 251.000000 126.000000 246.000000 136.000000 241.000000 C136.000000 251.000000 136.000000 261.000000 136.000000 271.000000 C126.000000 266.000000 116.000000 261.000000 106.000000 256.000000"></path>
<path id="" fill="#FFFFFF" fill-opacity="1.0" stroke="#000000" stroke-width="0.0" stroke-opacity="1.0" stroke-linecap="round" stroke-linejoin="round"  filling="0" d="M186.000000 256.000000 C206.000000 256.000000 226.000000 256.000000 246.000000 256.000000 C226.000000 272.666656 206.000000 289.333344 186.000000 306.000000 C186.000000 289.333344 186.000000 272.666656 186.000000 256.000000"></path>
<path id="" fill="#FFFFFF" fill-opacity="1.0" stroke="#000000" stroke-width="0.0" stroke-opacity="1.0" stroke-linecap="round" stroke-linejoin="round"  filling="0" d="M266.000000 256.000000 C286.000000 256.000000 306.000000 256.000000 326.000000 256.000000 C326.000000 239.333328 326.000000 222.666672 326.000000 206.000000 C306.000000 222.666672 286.000000 239.333328 266.000000 256.000000"></path>
<path id="" fill="#FFFFFF" fill-opacity="1.0" stroke="#000000" stroke-width="0.0" stroke-opacity="1.0" stroke-linecap="round" stroke-linejoin="round"  filling="0" d="M406.000000 256.000000 C422.666656 242.666672 439.333344 229.333328 456.000000 216.000000 C456.000000 229.333328 456.000000 242.666672 456.000000 256.000000 C439.333344 256.000000 422.666656 256.000000 406.000000 256.000000"></path>
<path id="" fill="#FFFFFF" fill-opacity="1.0" stroke="#000000" stroke-width="0.0" stroke-opacity="1.0" stroke-linecap="round" stroke-linejoin="round"  filling="0" d="M386.000000 246.000000 C412.666656 246.000000 439.333344 246.000000 466.000000 246.000000 C466.000000 252.666672 466.000000 259.333344 466.000000 266.000000 C439.333344 266.000000 412.666656 266.000000 386.000000 266.000000 C386.000000 259.333344 386.000000 252.666672 386.000000 246.000000"></path>
<path id="" fill="#000000" fill-opacity="1.0" stroke="#000000" stroke-width="0.0" stroke-opacity="1.0" stroke-linecap="round" stroke-linejoin="round"  filling="0" d="M136.000000 246.000000 C139.333328 246.000000 142.666672 246.000000 146.000000 246.000000 C146.000000 247.666672 146.000000 249.333328 146.000000 251.000000 C142.666672 251.000000 139.333328 251.000000 136.000000 251.000000 C136.000000 249.333328 136.000000 247.666672 136.000000 246.000000"></path>
<path id="" fill="#000000" fill-opacity="1.0" stroke="#000000" stroke-width="0.0" stroke-opacity="1.0" stroke-linecap="round" stroke-linejoin="round"  filling="0" d="M148.000000 246.000000 C151.333328 246.000000 154.666672 246.000000 158.000000 246.000000 C158.000000 247.666672 158.000000 249.333328 158.000000 251.000000 C154.666672 251.000000 151.333328 251.000000 148.000000 251.000000 C148.000000 249.333328 148.000000 247.666672 148.000000 246.000000"></path>
<path id="" fill="#000000" fill-opacity="1.0" stroke="#000000" stroke-width="0.0" stroke-opacity="1.0" stroke-linecap="round" stroke-linejoin="round"  filling="0" d="M160.000000 246.000000 C163.333328 246.000000 166.666672 246.000000 170.000000 246.000000 C170.000000 247.666672 170.000000 249.333328 170.000000 251.000000 C166.666672 251.000000 163.333328 251.000000 160.000000 251.000000 C160.000000 249.333328 160.000000 247.666672 160.000000 246.000000"></path>
<path id="" fill="#000000" fill-opacity="1.0" stroke="#000000" stroke-width="0.0" stroke-opacity="1.0" stroke-linecap="round" stroke-linejoin="round"  filling="0" d="M182.000000 251.000000 C182.000000 251.530228 181.789139 252.039291 181.414215 252.414215 C181.039291 252.789139 180.530228 253.000000 180.000000 253.000000 C179.469772 253.000000 178.960709 252.789139 178.585785 252.414215 C178.210861 252.039291 178.000000 251.530228 178.000000 251.000000 C178.000000 250.469772 178.210861 249.960709 178.585785 249.585785 C178.960709 249.210861 179.469772 249.000000 180.000000 249.000000 C180.530228 249.000000 181.039291 249.210861 181.414215 249.585785 C181.789139 249.960709 182.000000 250.469772 182.000000 251.000000"></path>
<path id="" fill="#000000" fill-opacity="1.0" stroke="#000000" stroke-width="0.0" stroke-opacity="1.0" stroke-linecap="round" stroke-linejoin="round"  filling="0" d="M202.000000 251.000000 C202.000000 251.530228 201.789139 252.039291 201.414215 252.414215 C201.039291 252.789139 200.530228 253.000000 200.000000 253.000000 C199.469772 253.000000 198.960709 252.789139 198.585785 252.414215 C198.210861 252.039291 198.000000 251.530228 198.000000 251.000000 C198.000000 250.469772 198.210861 249.960709 198.585785 249.585785 C198.960709 249.210861 199.469772 249.000000 200.000000 249.000000 C200.530228 249.000000 201.039291 249.210861 201.414215 249.585785 C201.789139 249.960709 202.000000 250.469772 202.000000 251.000000"></path>
<path id="" fill="#000000" fill-opacity="1.0" stroke="#000000" stroke-width="0.0" stroke-opacity="1.0" stroke-linecap="round" stroke-linejoin="round"  filling="0" d="M222.000000 251.000000 C222.000000 251.530228 221.789139 252.039291 221.414215 252.414215 C221.039291 252.789139 220.530228 253.000000 220.000000 253.000000 C219.469772 253.000000 218.960709 252.789139 218.585785 252.414215 C218.210861 252.039291 218.000000 251.530228 218.000000 251.000000 C218.000000 250.469772 218.210861 249.960709 218.585785 249.585785 C218.960709 249.210861 219.469772 249.000000 220.000000 249.000000 C220.530228 249.000000 221.039291 249.210861 221.414215 249.585785 C221.789139 249.960709 222.000000 250.469772 222.000000 251.000000"></path>
<path id="" fill="#000000" fill-opacity="1.0" stroke="#000000" stroke-width="0.0" stroke-opacity="1.0" stroke-linecap="round" stroke-linejoin="round"  filling="0" d="M242.000000 251.000000 C242.000000 251.530228 241.789139 252.039291 241.414215 252.414215 C241.039291 252.789139 240.530228 253.000000 240.000000 253.000000 C239.469772 253.000000 238.960709 252.789139 238.585785 252.414215 C238.210861 252.039291 238.000000 251.530228 238.000000 251.000000 C238.000000 250.469772 238.210861 249.960709 238.585785 249.585785 C238.960709 249.210861 239.469772 249.000000 240.000000 249.000000 C240.530228 249.000000 241.039291 249.210861 241.414215 249.585785 C241.789139 249.960709 242.000000 250.469772 242.000000 251.000000"></path>
<path id="" fill="#000000" fill-opacity="1.0" stroke="#000000" stroke-width="0.0" stroke-opacity="1.0" stroke-linecap="round" stroke-linejoin="round"  filling="0" d="M262.000000 251.000000 C262.000000 251.530228 261.789154 252.039291 261.414215 252.414215 C261.039276 252.789139 260.530243 253.000000 260.000000 253.000000 C259.469757 253.000000 258.960724 252.789139 258.585785 252.414215 C258.210846 252.039291 258.000000 251.530228 258.000000 251.000000 C258.000000 250.469772 258.210846 249.960709 258.585785 249.585785 C258.960724 249.210861 259.469757 249.000000 260.000000 249.000000 C260.530243 249.000000 261.039276 249.210861 261.414215 249.585785 C261.789154 249.960709 262.000000 250.469772 262.000000 251.000000"></path>
<path id="" fill="#000000" fill-opacity="1.0" stroke="#000000" stroke-width="0.0" stroke-opacity="1.0" stroke-linecap="round" stroke-linejoin="round"  filling="0" d="M282.000000 251.000000 C282.000000 251.530228 281.789154 252.039291 281.414215 252.414215 C281.039276 252.789139 280.530243 253.000000 280.000000 253.000000 C279.469757 253.000000 278.960724 252.789139 278.585785 252.414215 C278.210846 252.039291 278.000000 251.530228 278.000000 251.000000 C278.000000 250.469772 278.210846 249.960709 278.585785 249.585785 C278.960724 249.210861 279.469757 249.000000 280.000000 249.000000 C280.530243 249.000000 281.039276 249.210861 281.414215 249.585785 C281.789154 249.960709 282.000000 250.469772 282.000000 251.000000"></path>
<path id="" fill="#000000" fill-opacity="1.0" stroke="#000000" stroke-width="0.0" stroke-opacity="1.0" stroke-linecap="round" stroke-linejoin="round"  filling="0" d="M302.000000 251.000000 C302.000000 251.530228 301.789154 252.039291 301.414215 252.414215 C301.039276 252.789139 300.530243 253.000000 300.000000 253.000000 C299.469757 253.000000 298.960724 252.789139 298.585785 252.414215 C298.210846 252.039291 298.000000 251.530228 298.000000 251.000000 C298.000000 250.469772 298.210846 249.960709 298.585785 249.585785 C298.960724 249.210861 299.469757 249.000000 300.000000 249.000000 C300.530243 249.000000 301.039276 249.210861 301.414215 249.585785 C301.789154 249.960709 302.000000 250.469772 302.000000 251.000000"></path>
<path id="" fill="#000000" fill-opacity="1.0" stroke="#000000" stroke-width="0.0" stroke-opacity="1.0" stroke-linecap="round" stroke-linejoin="round"  filling="0" d="M322.000000 251.000000 C322.000000 251.530228 321.789154 252.039291 321.414215 252.414215 C321.039276 252.789139 320.530243 253.000000 320.000000 253.000000 C319.469757 253.000000 318.960724 252.789139 318.585785 252.414215 C318.210846 252.039291 318.000000 251.530228 318.000000 251.000000 C318.000000 250.469772 318.210846 249.960709 318.585785 249.585785 C318.960724 249.210861 319.469757 249.000000 320.000000 249.000000 C320.530243 249.000000 321.039276 249.210861 321.414215 249.585785 C321.789154 249.960709 322.000000 250.469772 322.000000 251.000000"></path>
<path id="" fill="#000000" fill-opacity="1.0" stroke="#000000" stroke-width="0.0" stroke-opacity="1.0" stroke-linecap="round" stroke-linejoin="round"  filling="0" d="M342.000000 251.000000 C342.000000 251.530228 341.789154 252.039291 341.414215 252.414215 C341.039276 252.789139 340.530243 253.000000 340.000000 253.000000 C339.469757 253.000000 338.960724 252.789139 338.585785 252.414215 C338.210846 252.039291 338.000000 251.530228 338.000000 251.000000 C338.000000 250.469772 338.210846 249.960709 338.585785 249.585785 C338.960724 249.210861 339.469757 249.000000 340.000000 249.000000 C340.530243 249.000000 341.039276 249.210861 341.414215 249.585785 C341.789154 249.960709 342.000000 250.469772 342.000000 251.000000"></path>
</svg>