<svg xmlns="http://www.w3.org/2000/svg" width="384" height="384" viewBox="0 0 384 384">
  <defs/>
  <path fill="rgb(15.686275%, 30.980392%, 17.647059%)" opacity="0.546" d="M351.312,-59.733 Q392.65,-14.664 405.723,42.825 Q417.502,94.626 404.616,148.612 Q392.927,197.585 363.192,239.465 Q333.421,281.393 292.285,306.828 Q245.786,335.578 195.433,336.663 Q138.321,337.894 90.049,303.524 Q-3.238,237.103 -33.875,55.462 Q-36.166,41.88 -33.085,28.455 Q-30.004,15.031 -22.02,3.807 Q-14.036,-7.417 -2.364,-14.731 Q9.307,-22.045 22.889,-24.336 Q36.471,-26.627 49.896,-23.546 Q63.321,-20.465 74.545,-12.481 Q85.769,-4.497 93.083,7.175 Q100.397,18.846 102.688,32.428 Q114.405,101.898 135.992,145.464 Q151.888,177.544 170.375,190.707 Q191.928,206.052 219.453,189.034 Q236.735,178.348 250.269,159.287 Q264.455,139.307 269.909,116.459 Q281.283,68.804 249.251,33.881 Q239.94,23.73 235.223,10.79 Q230.506,-2.151 231.1,-15.912 Q231.694,-29.673 237.509,-42.16 Q243.324,-54.646 253.474,-63.956 Q263.625,-73.267 276.566,-77.984 Q289.507,-82.701 303.268,-82.107 Q317.029,-81.513 329.515,-75.698 Q342.001,-69.883 351.312,-59.733 Z"/>
  <path fill="rgb(91.372549%, 87.45098%, 31.372549%)" opacity="0.828" d="M288.645,315.481 Q243.691,308.234 217.973,332.24 Q191.301,357.137 188.99,412.088 Q188.835,415.766 185.158,415.611 Q183.319,415.534 182.439,414.576 Q181.558,413.618 181.635,411.779 Q184.073,353.814 212.95,326.859 Q241.304,300.393 289.816,308.214 Q293.45,308.8 292.864,312.434 Q292.278,316.067 288.645,315.481 Z"/>
  <path fill="rgb(62.745098%, 89.411765%, 94.509804%)" opacity="0.029" d="M340.799,117.082 Q346.324,124.878 347.959,128.416 Q348.962,130.586 348.4,131.682 Q347.652,133.139 346.006,132.603 Q345.463,132.426 344.812,131.923 Q339.136,127.536 332.894,115.013 Q332.135,113.49 333.659,112.73 Q335.182,111.971 335.942,113.495 Q336.92,115.457 337.875,117.202 Q338.074,116.927 338.426,116.678 Q339.12,116.185 339.714,116.287 Q340.307,116.388 340.799,117.082 Z"/>
  <path fill="rgb(82.352941%, 7.058824%, 13.333333%)" opacity="0.991" d="M286.119,44.842 Q300.874,72.082 302.293,101.264 Q303.686,129.901 292.156,155.887 Q281.462,179.988 261.636,197.378 Q241.74,214.83 216.879,221.868 Q188.394,229.932 160.565,222.47 Q129.76,214.209 108.511,189.431 Q72.866,147.865 78.002,75.206 Q78.984,61.321 85.205,48.868 Q91.425,36.415 101.938,27.291 Q112.45,18.167 125.654,13.76 Q138.858,9.353 152.743,10.334 Q166.629,11.316 179.081,17.537 Q181.979,18.984 184.696,20.664 Q187.841,18.488 191.256,16.638 Q203.496,10.009 217.341,8.568 Q231.186,7.126 244.529,11.093 Q257.872,15.06 268.681,23.831 Q279.49,32.602 286.119,44.842 Z"/>
  <path fill="rgb(1.960784%, 20.392157%, 11.372549%)" opacity="0.45" d="M402.851,290.055 Q398.459,293.066 394.199,296.004 Q395.682,296.483 397.145,297.072 Q405.229,300.325 411.453,306.425 Q417.677,312.524 421.093,320.541 Q424.509,328.558 424.597,337.272 Q424.685,345.986 421.432,354.071 Q418.179,362.155 412.079,368.379 Q405.98,374.603 397.963,378.019 Q297.005,421.037 255.919,428.554 Q216.326,435.798 196.111,414.647 Q185.723,403.778 183.366,388.883 Q181.683,378.253 184.623,367.453 Q187.646,356.346 195.852,345.054 Q223.86,306.512 353.313,217.781 Q360.501,212.854 369.027,211.053 Q377.554,209.252 386.12,210.851 Q394.687,212.45 401.989,217.205 Q409.292,221.961 414.219,229.149 Q419.146,236.337 420.947,244.863 Q422.748,253.389 421.149,261.956 Q419.55,270.523 414.795,277.825 Q410.039,285.128 402.851,290.055 Z"/>
</svg>

