<svg xmlns="http://www.w3.org/2000/svg" width="384" height="384" viewBox="0 0 384 384">
  <defs/>
  <path fill="rgb(9.803922%, 96.470588%, 100%)" opacity="0.642" d="M174.059,226.909 Q172.199,226.85 169.343,226.833 Q161.728,226.787 137.757,227.233 Q87.883,228.161 69.748,227.389 Q63.645,227.13 59.514,222.631 Q55.382,218.132 55.642,212.029 Q55.902,205.927 60.4,201.795 Q64.899,197.663 71.002,197.923 Q88.236,198.656 137.208,197.745 Q161.541,197.293 169.519,197.34 Q176.379,197.381 179.603,197.709 Q183.947,198.151 186.948,199.797 Q190.721,201.865 192.82,205.569 Q196.769,212.538 193.121,219.673 Q190.679,224.452 185.569,226.718 Q179.985,229.195 174.286,226.998 Q174.172,226.954 174.059,226.909 Z"/>
  <path fill="rgb(100%, 55.294118%, 10.588235%)" opacity="0.708" d="M242.818,330.579 Q247.218,336.245 249.178,343.758 Q252.981,358.344 245.357,371.347 Q237.734,384.35 223.148,388.154 Q187.239,397.519 143.185,385.3 Q100.106,373.351 80.323,350.215 Q72.324,340.86 69.128,330.172 Q64.509,314.726 70.258,299.981 Q79.04,277.454 107.834,267.713 Q144.894,255.176 230.263,261.031 Q245.302,262.062 255.206,273.425 Q265.11,284.788 264.079,299.826 Q263.047,314.864 251.684,324.768 Q247.501,328.415 242.818,330.579 Z"/>
  <path fill="rgb(100%, 29.411765%, 100%)" opacity="0.076" d="M171.594,140.866 Q173.53,135.104 174.867,130.181 Q168.544,131.875 162.576,128.859 Q150.874,122.944 147.427,112.12 Q143.991,101.329 150.03,90.955 Q159.226,75.159 178.174,73.627 Q189.039,72.748 197.697,78.52 Q207.029,84.741 210.635,96.712 Q216.637,116.635 204.75,152.009 Q202.442,158.875 195.955,162.099 Q189.468,165.323 182.601,163.016 Q175.734,160.708 172.51,154.221 Q169.286,147.733 171.594,140.866 Z"/>
  <path fill="rgb(60.784314%, 52.941176%, 56.470588%)" opacity="0.008" d="M331.939,25.419 Q332.098,25.547 332.27,25.686 Q332.974,26.252 333.043,26.887 Q333.111,27.523 332.545,28.227 Q331.412,29.635 330.004,28.502 Q327.284,26.314 326.039,25.235 Q325.911,25.124 325.846,25.062 Q325.672,24.899 325.553,24.717 Q325.032,23.926 325.385,23.048 Q326.02,21.467 327.636,22.008 Q327.853,22.08 328.05,22.207 Q328.184,22.293 328.6,22.625 Q329.426,23.283 331.517,24.997 Q331.77,25.204 331.939,25.419 Z"/>
  <path fill="rgb(100%, 0%, 100%)" opacity="0.18" d="M153.193,203.725 Q128.713,188.517 107.442,178.421 Q117.36,185.151 122.206,196.929 Q128.807,212.975 122.13,228.989 Q115.452,245.002 99.407,251.604 Q83.361,258.206 67.347,251.528 Q8.769,227.101 -18.355,191.513 Q-34.282,170.615 -36.67,148.63 Q-39.879,119.095 -19.923,98.132 Q10.614,66.055 73.527,78.569 Q127.893,89.383 197.401,132.564 Q212.139,141.72 216.086,158.615 Q220.033,175.511 210.877,190.249 Q201.722,204.986 184.826,208.934 Q167.931,212.881 153.193,203.725 Z"/>
  <path fill="rgb(62.745098%, 42.745098%, 89.411765%)" opacity="0.086" d="M83.779,201.393 Q83.648,199.612 83.213,195.191 Q81.28,175.539 82.028,162.963 Q83.366,140.447 92.171,123.279 Q116.834,75.187 198.418,69.037 Q200.952,68.846 201.143,71.379 Q201.334,73.913 198.8,74.104 Q120.056,80.04 96.692,125.597 Q88.375,141.815 87.1,163.264 Q86.376,175.441 88.27,194.693 Q88.711,199.178 88.846,201.022 Q89.032,203.555 86.498,203.741 Q85.231,203.834 84.551,203.247 Q83.871,202.659 83.779,201.393 Z"/>
  <path fill="rgb(0%, 100%, 81.568627%)" d="M219.409,217.474 Q223.756,162.728 224.79,105.801 Q225.243,80.854 227.843,77.703 Q231.601,73.147 236.157,76.905 Q238.435,78.784 238.634,80.863 Q238.802,82.609 237.502,84.496 Q237.478,84.618 237.451,84.778 Q237.222,86.131 237.064,88.882 Q236.841,92.775 236.6,106.016 Q235.559,163.305 231.184,218.409 Q230.951,221.353 229.362,222.708 Q227.773,224.063 224.829,223.829 Q221.886,223.595 220.531,222.007 Q219.176,220.418 219.409,217.474 Z"/>
  <path fill="rgb(0%, 41.176471%, 17.254902%)" opacity="0.527" d="M89.108,351.613 Q87.169,367.334 84.554,386.743 Q84.228,389.166 82.853,390.215 Q81.478,391.263 79.054,390.937 Q74.207,390.284 74.86,385.437 Q81.876,333.363 83.987,308.146 Q84.271,302.972 84.512,300.063 Q84.66,298.289 84.952,297.549 Q86.391,293.905 90.259,294.51 Q93.567,295.027 94.284,298.3 Q94.385,298.763 94.397,299.253 Q94.402,299.446 94.394,299.701 Q94.384,300.004 94.352,300.538 Q94.128,304.238 93.748,308.796 Q93.747,308.818 93.745,308.84 Q92.843,325.366 92.515,346.922 Q92.454,350.961 89.108,351.613 Z"/>
  <path fill="rgb(40%, 97.647059%, 100%)" opacity="0.95" d="M73.265,396.315 Q62.986,282.052 62.525,241.675 Q57.907,230.154 61.569,217.756 Q65.92,203.023 79.415,195.683 Q81.616,194.486 83.85,193.599 Q92.175,189.387 102.327,189.91 Q117.516,190.692 127.816,201.907 Q138.559,213.605 137.888,230.766 Q137.703,235.504 136.55,239.905 Q136.49,271.274 147.141,389.669 Q148.517,404.969 138.672,416.762 Q128.826,428.554 113.526,429.93 Q98.226,431.306 86.434,421.461 Q74.642,411.615 73.265,396.315 Z"/>
  <path fill="rgb(5.098039%, 65.882353%, 53.72549%)" opacity="0.826" d="M399.55,117.467 Q367.87,257.821 358.395,347.272 Q357.213,358.426 356.436,368.267 Q363.17,392.164 363.558,416.384 Q364.004,444.272 353.936,462.739 Q343.895,481.154 325.363,490.045 Q308.33,498.217 289.637,495.646 Q273.364,493.407 260.209,483.461 Q241.877,469.601 235.51,445.098 Q230.241,424.824 231.493,386.682 Q230.188,383.987 228.679,381.244 Q222.749,370.463 221.397,358.233 Q220.044,346.004 223.475,334.187 Q226.905,322.371 234.596,312.767 Q236.41,310.502 238.396,308.442 Q249.899,218.586 278.872,90.228 Q281.581,78.226 288.677,68.174 Q295.773,58.122 306.175,51.551 Q316.578,44.98 328.703,42.889 Q340.828,40.799 352.831,43.508 Q364.833,46.217 374.885,53.313 Q384.936,60.409 391.508,70.812 Q398.079,81.214 400.169,93.34 Q402.259,105.465 399.55,117.467 Z"/>
  <path fill="rgb(56.862745%, 30.980392%, 52.54902%)" d="M287.885,172.066 Q284.298,52.302 301.418,-14.51 Q311.211,-52.728 328.972,-69.231 Q348.817,-87.67 374.015,-82.582 Q394.209,-78.505 407.963,-59.684 Q434.891,-22.836 442.694,93.685 Q451.224,221.058 436.14,412.954 Q434.798,430.026 421.778,441.148 Q408.758,452.271 391.686,450.929 Q374.615,449.587 363.492,436.567 Q352.37,423.547 353.712,406.475 Q363.083,287.255 363.102,194.575 Q361.397,196.948 359.302,199.172 Q347.561,211.638 330.445,212.151 Q313.328,212.663 300.863,200.923 Q288.397,189.182 287.885,172.066 Z"/>
  <path fill="rgb(87.843137%, 44.705882%, 99.607843%)" opacity="0.078" d="M119.628,122.811 Q118.121,96.762 123.781,89.631 Q129.12,82.905 140.292,88.081 Q140.871,88.349 141.333,88.554 Q141.341,88.492 141.349,88.428 Q141.697,85.59 143.29,84.346 Q144.884,83.102 147.721,83.45 Q153.396,84.148 152.698,89.822 Q151.532,99.312 144.695,100.536 Q141.29,101.146 135.485,98.456 Q133.379,97.48 132.427,97.2 Q129.857,101.641 131.044,122.15 Q131.374,127.858 125.666,128.188 Q119.958,128.519 119.628,122.811 Z"/>
  <path fill="rgb(99.215686%, 65.490196%, 100%)" opacity="0.043" d="M-32.029,112.62 Q-21.83,93.42 -9.141,81.087 Q4.708,67.627 16.363,67.73 Q31.081,67.86 35.296,87.014 Q39.208,104.792 32.921,138.7 Q32.397,141.526 30.722,142.677 Q29.047,143.828 26.222,143.304 Q20.57,142.256 21.618,136.604 Q27.48,104.987 24.069,89.485 Q21.822,79.274 16.262,79.225 Q9.332,79.164 -1.129,89.331 Q-12.524,100.407 -21.877,118.013 Q-23.225,120.551 -25.168,121.146 Q-27.112,121.741 -29.65,120.393 Q-34.726,117.696 -32.029,112.62 Z"/>
  <path fill="rgb(96.078431%, 41.960784%, 50.588235%)" opacity="0.786" d="M244.547,307.006 Q243.164,315.78 241.648,325.74 Q240.971,330.188 237.348,332.854 Q233.724,335.521 229.276,334.844 Q224.828,334.167 222.161,330.543 Q219.495,326.919 220.172,322.471 Q227.205,276.266 231.462,255.026 Q233.512,244.798 235.018,239.926 Q236.038,236.627 237.194,234.674 Q238.877,231.829 241.527,230.282 Q248.568,226.173 254.638,231.609 Q258.719,235.264 259.144,244.584 Q259.362,249.389 259.151,257.763 Q258.794,271.921 257.199,296.979 Q256.914,301.469 253.537,304.442 Q250.16,307.415 245.67,307.129 Q245.096,307.093 244.547,307.006 Z"/>
  <path fill="rgb(100%, 0.392157%, 100%)" opacity="0.022" d="M14.253,310.589 Q14.716,337.835 14.324,367.99 Q14.159,380.684 14.374,384.801 Q16.455,386.143 17.388,388.047 Q18.934,391.205 17.323,395.91 Q14.101,405.319 4.692,402.097 Q-3.952,399.137 -5.262,388.578 Q-5.782,384.386 -5.566,367.731 Q-5.178,337.875 -5.636,310.927 Q-5.72,305.955 -3.276,303.426 Q-0.833,300.898 4.14,300.814 Q14.084,300.645 14.253,310.589 Z"/>
  <path fill="rgb(23.921569%, 100%, 100%)" opacity="0.85" d="M233.654,14.418 Q234.807,13.271 237.105,13.349 Q239.332,13.425 240.408,14.576 Q241.484,15.728 241.409,17.956 Q239.893,62.556 238.308,84.713 Q237.583,94.846 236.892,99.387 Q236.493,102.013 235.99,103.233 Q234.862,105.974 232.166,106.33 Q228.648,106.795 227.199,103.338 Q224.322,96.477 225.507,17.293 Q225.541,15.064 226.672,13.966 Q227.803,12.868 230.032,12.902 Q232.585,12.94 233.654,14.418 Z"/>
  <path fill="rgb(43.529412%, 0%, 38.823529%)" opacity="0.335" d="M288.685,13.122 Q274.736,90.12 264.286,119.082 Q255.108,144.515 242.407,212.517 Q240.844,220.887 233.819,225.7 Q226.795,230.514 218.425,228.95 Q210.054,227.387 205.241,220.362 Q200.428,213.338 201.991,204.968 Q215.304,133.692 225.612,105.127 Q234.894,79.404 248.229,5.793 Q249.747,-2.586 256.745,-7.438 Q263.743,-12.289 272.122,-10.771 Q280.5,-9.253 285.352,-2.255 Q290.203,4.743 288.685,13.122 Z"/>
  <path fill="rgb(84.313725%, 16.078431%, 43.137255%)" opacity="0.993" d="M258.372,321.96 Q253.839,384.356 249.97,412.692 Q248.159,425.959 246.46,431.417 Q244.279,438.422 239.145,441.044 Q230.418,445.503 223.916,438.069 Q222.007,435.887 221.009,432.78 Q215.673,416.181 221.033,328.198 Q221.339,323.168 225.112,319.828 Q228.886,316.488 233.916,316.794 Q234.358,316.821 234.788,316.875 Q235.811,314.012 238.282,311.875 Q242.094,308.579 247.12,308.945 Q252.146,309.31 255.441,313.122 Q258.737,316.934 258.372,321.96 Z"/>
</svg>

