<svg xmlns="http://www.w3.org/2000/svg" width="384" height="384" viewBox="0 0 384 384">
  <defs/>
  <path fill="rgb(100%, 50.588235%, 92.156863%)" opacity="0.417" d="M121.563,204.346 Q107.505,226.892 101.644,234.65 Q100.335,236.382 99.571,236.888 Q98.672,237.483 97.612,237.533 Q94.417,237.683 93.711,234.563 Q93.446,233.393 93.909,232.211 Q94.085,231.761 94.471,231.084 Q95.792,228.767 99.399,223.612 Q100.25,222.396 101.243,221.987 Q106.649,213.906 115.117,200.326 Q117.126,197.103 120.35,199.113 Q123.573,201.122 121.563,204.346 Z"/>
  <path fill="rgb(60%, 57.647059%, 57.254902%)" opacity="0.201" d="M179.3,349.887 Q156.806,348.048 155.41,345.882 Q154.491,344.457 155.718,343.252 Q156.142,342.835 156.869,342.572 Q157.682,342.279 159.21,342.051 Q161.663,341.684 165.753,341.469 Q167.624,341.371 167.723,343.242 Q167.772,344.177 167.329,344.669 Q167.129,344.892 166.828,345.024 Q171.753,345.51 179.606,346.152 Q181.473,346.305 181.321,348.172 Q181.168,350.04 179.3,349.887 Z"/>
  <path fill="rgb(100%, 4.313725%, 50.588235%)" opacity="0.137" d="M197.621,80.57 Q192.328,87.202 183.508,97.496 Q169.74,113.567 169.721,117.362 Q169.699,121.599 185.995,127.768 Q189.262,129.005 188.025,132.272 Q186.788,135.539 183.521,134.302 Q162.686,126.415 162.734,117.325 Q162.766,110.967 178.202,92.95 Q186.942,82.748 192.16,76.211 Q194.34,73.481 197.07,75.66 Q198.435,76.75 198.573,77.977 Q198.711,79.205 197.621,80.57 Z"/>
  <path fill="rgb(30.980392%, 100%, 61.960784%)" opacity="0.08" d="M47.056,215.608 Q47.064,214.049 47.162,211.828 Q46.468,212.744 45.533,213.991 Q33.384,230.196 18.973,246.702 Q17.834,248.008 16.528,246.868 Q15.876,246.298 15.834,245.687 Q15.793,245.076 16.363,244.423 Q30.689,228.013 42.76,211.912 Q46.816,206.501 47.863,206.079 Q49.39,205.463 50.288,206.808 Q50.648,207.346 50.719,208.23 Q50.773,208.908 50.665,211.106 Q50.531,213.838 50.522,215.626 Q50.513,217.359 48.78,217.35 Q47.914,217.346 47.483,216.91 Q47.052,216.475 47.056,215.608 Z"/>
  <path fill="rgb(0%, 100%, 65.490196%)" opacity="0.536" d="M126.733,395.953 Q116.608,383.645 98.525,382.569 Q82.228,381.6 62.363,389.266 Q58.128,390.9 53.979,389.061 Q49.829,387.222 48.195,382.988 Q46.561,378.753 48.4,374.604 Q50.239,370.454 54.473,368.82 Q78.778,359.441 99.826,360.693 Q127.458,362.336 143.658,382.031 Q146.541,385.537 146.101,390.054 Q145.662,394.572 142.156,397.455 Q138.651,400.338 134.133,399.898 Q129.616,399.458 126.733,395.953 Z"/>
  <path fill="rgb(52.54902%, 58.431373%, 40.784314%)" opacity="0.072" d="M177.424,143.189 Q173.531,149.458 151.445,158.692 Q144.193,161.724 137.285,164.128 Q134.581,165.069 133.032,165.522 Q132.243,165.753 131.875,165.814 Q130.936,165.97 130.342,165.375 Q129.221,164.252 130.349,163.115 Q130.503,162.96 130.716,162.829 Q131.395,162.413 131.941,162.548 Q132.037,162.521 132.144,162.489 Q133.617,162.058 136.246,161.143 Q143.064,158.771 150.226,155.776 Q171.379,146.932 174.74,141.522 Q175.573,140.18 176.916,141.013 Q178.258,141.847 177.424,143.189 Z"/>
  <path fill="rgb(47.45098%, 44.705882%, 50.196078%)" opacity="0.645" d="M325.881,75.226 Q278.763,126.47 244.138,156.563 Q240.71,159.542 237.507,159.317 Q234.303,159.093 231.324,155.665 Q225.366,148.81 232.221,142.851 Q266.079,113.426 312.509,62.93 Q318.657,56.244 325.343,62.392 Q332.029,68.54 325.881,75.226 Z"/>
</svg>

