<svg xmlns="http://www.w3.org/2000/svg" width="384" height="384" viewBox="0 0 384 384">
  <defs/>
  <path fill="rgb(25.882353%, 65.490196%, 95.294118%)" opacity="0.234" d="M113.276,193.328 Q122.756,202.196 124.732,213.218 Q127.631,215.826 125.362,219.911 Q125.287,220.045 125.208,220.188 Q124.98,224.851 123.218,229.124 Q121.895,232.332 120.111,234.034 Q117.639,236.391 114.553,235.881 Q109.894,235.111 109.457,230.186 Q109.099,226.144 113.952,216.863 Q113.398,209.175 105.427,201.719 Q103.329,199.757 103.262,197.727 Q103.194,195.697 105.156,193.599 Q109.081,189.404 113.276,193.328 Z"/>
  <path fill="rgb(100%, 0%, 46.27451%)" opacity="0.185" d="M242.294,306.138 Q247.362,341.677 259.213,357.809 Q260.385,359.404 260.069,360.261 Q259.567,361.619 257.999,361.182 Q257.735,361.109 257.116,360.869 Q255.731,360.333 256.267,358.948 Q256.286,358.9 256.306,358.854 Q244.418,342.071 239.354,306.557 Q239.144,305.087 240.615,304.878 Q242.085,304.668 242.294,306.138 Z"/>
  <path fill="rgb(29.019608%, 58.823529%, 0%)" opacity="0.529" d="M131.893,119.244 Q141.724,124.965 143.719,129.282 Q145.167,132.416 143.141,134.672 Q141.656,136.325 138.736,136.552 Q133.931,136.925 128.541,133.984 Q122.277,130.565 120.015,124.753 Q118.996,122.135 121.614,121.116 Q124.232,120.097 125.251,122.715 Q126.769,126.616 131.233,129.052 Q135.105,131.165 138.216,130.956 Q136.369,128.349 129.068,124.1 Q126.639,122.687 128.052,120.259 Q129.465,117.831 131.893,119.244 Z"/>
  <path fill="rgb(97.254902%, 45.098039%, 42.745098%)" opacity="0.567" d="M217.739,19.229 Q217.042,19.585 216.354,19.919 Q217.996,20.404 219.724,20.959 Q221.474,21.522 222.068,22.679 Q222.662,23.836 222.099,25.587 Q220.973,29.088 217.472,27.963 Q209.42,25.374 203.576,24.466 Q202.714,24.644 201.869,24.778 Q193.992,26.03 192.27,22.638 Q190.545,19.239 194.042,17.415 Q194.878,16.978 196.099,16.795 Q198.005,16.508 200.997,16.751 Q202.099,16.841 203.278,16.994 Q208.376,15.751 214.393,12.677 Q217.669,11.004 219.342,14.28 Q221.015,17.556 217.739,19.229 Z"/>
  <path fill="rgb(0%, 40.784314%, 78.039216%)" opacity="0.177" d="M102.436,188.778 Q70.895,177.35 55.781,191.115 Q42.962,202.79 47.298,223.739 Q51.624,244.643 67.859,250.419 Q86.84,257.171 110.137,234.515 Q111.743,232.953 113.305,234.559 Q114.086,235.362 114.075,236.154 Q114.064,236.946 113.261,237.727 Q87.965,262.327 66.358,254.64 Q47.747,248.019 42.91,224.647 Q38.057,201.197 52.764,187.803 Q69.878,172.215 103.962,184.566 Q106.069,185.329 105.305,187.435 Q104.924,188.488 104.207,188.824 Q103.489,189.16 102.436,188.778 Z"/>
  <path fill="rgb(100%, 44.313725%, 0%)" opacity="0.865" d="M181.557,298.46 Q198.303,303.28 208.52,313.354 Q220.081,324.754 221.69,340.372 Q223.023,353.315 217.013,365.736 Q212.026,376.042 203.2,383.489 Q193.297,391.843 181.669,393.979 Q164.594,397.115 151.497,386.524 Q130.752,369.748 136.941,328.769 Q138.584,317.896 147.433,311.369 Q149.98,309.491 152.695,308.289 Q156.012,303.702 161.367,300.741 Q170.99,295.419 181.557,298.46 Z"/>
  <path fill="rgb(81.176471%, 26.27451%, 100%)" opacity="0.1" d="M234.31,176.808 Q221.058,175.627 204.778,178.211 Q220.318,179.099 242.108,179.012 Q247.878,178.989 251.974,183.052 Q256.071,187.116 256.094,192.886 Q256.117,198.656 252.053,202.752 Q247.99,206.848 242.22,206.871 Q189.271,207.083 168.241,201.312 Q154.084,197.428 149.735,188.821 Q145.926,181.283 149.621,173.547 Q151.771,169.046 156.446,165.454 Q167.21,157.182 192.163,152.18 Q216.677,147.266 236.784,149.059 Q242.531,149.571 246.233,153.998 Q249.934,158.424 249.422,164.171 Q248.909,169.918 244.483,173.619 Q240.057,177.321 234.31,176.808 Z"/>
  <path fill="rgb(23.529412%, 65.490196%, 62.745098%)" opacity="0.177" d="M242.173,185.255 Q263.411,186.97 284.898,187.022 Q294.335,187.044 295.826,188.236 Q297.489,189.564 296.942,191.631 Q296.695,192.567 295.849,193.554 Q295.156,194.362 292.687,196.563 Q270.11,216.684 258.506,249.255 Q257.591,251.824 255.022,250.908 Q252.454,249.993 253.369,247.425 Q265.441,213.54 289.058,192.492 Q289.062,192.489 289.065,192.485 Q287.378,192.481 284.885,192.475 Q263.184,192.423 241.734,190.691 Q239.016,190.471 239.235,187.753 Q239.345,186.394 240.079,185.77 Q240.814,185.145 242.173,185.255 Z"/>
  <path fill="rgb(21.960784%, 30.980392%, 91.764706%)" opacity="0.487" d="M205.277,126.145 Q208.09,122.116 210.428,119.478 Q208.353,116.556 206.518,111.33 Q206.16,110.309 206.491,109.62 Q206.822,108.931 207.842,108.572 Q209.883,107.856 210.599,109.897 Q212.105,114.184 213.505,116.437 Q214.892,115.292 216.051,114.815 Q218.911,113.638 220.409,115.759 Q221.476,117.27 220.793,119.43 Q220.203,121.296 218.692,122.351 Q216.71,123.734 214.381,122.883 Q213.94,122.721 213.507,122.474 Q211.473,124.827 208.824,128.621 Q207.586,130.395 205.813,129.156 Q204.039,127.918 205.277,126.145 Z"/>
  <path fill="rgb(45.882353%, 21.176471%, 64.313725%)" opacity="0.255" d="M332.973,31.446 Q335.445,30.638 337.331,31.034 Q338.493,30.987 339.719,30.999 Q350.538,31.099 358.368,36.705 Q368.758,44.144 371.471,59.646 Q372.743,66.911 365.479,68.182 Q361.846,68.818 359.712,67.32 Q357.579,65.822 356.943,62.189 Q354.088,45.882 339.582,45.748 Q337.804,45.731 336.35,45.874 Q333.39,46.854 331.728,47.176 Q330.935,47.329 330.26,47.362 Q323.381,47.692 322.458,40.971 Q321.647,35.067 327.643,32.809 Q330.06,31.899 332.973,31.446 Z"/>
  <path fill="rgb(63.137255%, 54.901961%, 63.921569%)" opacity="0.252" d="M155.709,170.453 Q159.718,177.578 163.015,179.699 Q164.797,180.845 164.555,182.623 Q164.321,184.351 162.359,185.02 Q159.025,186.157 154.074,190.98 Q152.117,192.886 150.211,190.929 Q148.306,188.973 150.262,187.067 Q153.853,183.569 156.939,181.643 Q153.994,178.545 150.948,173.133 Q149.608,170.752 151.989,169.413 Q154.369,168.073 155.709,170.453 Z"/>
  <path fill="rgb(75.686275%, 9.803922%, 100%)" opacity="0.102" d="M198.933,112.583 Q196.669,113.691 192.094,115.906 Q184.388,119.637 178.744,122.503 Q197.818,123.401 230.76,122.069 Q236.465,121.838 240.663,125.71 Q244.861,129.581 245.091,135.287 Q245.322,140.993 241.45,145.19 Q237.579,149.388 231.873,149.619 Q187.227,151.424 165.848,149.204 Q136.849,146.193 134.776,130.284 Q133.057,117.1 152.626,105.293 Q160.281,100.674 180.078,91.089 Q184.602,88.899 186.817,87.815 Q191.947,85.306 197.348,87.159 Q202.749,89.012 205.259,94.141 Q207.768,99.271 205.915,104.672 Q204.063,110.074 198.933,112.583 Z"/>
  <path fill="rgb(96.862745%, 97.254902%, 99.607843%)" opacity="0.03" d="M208.383,163.557 Q208.471,163.018 209.039,162.504 Q209.058,162.487 209.078,162.469 Q210.342,160.635 211.466,160.078 Q213.035,159.302 214.233,160.377 Q215.027,161.089 215.147,162.357 Q215.367,164.685 213.783,165.964 Q212.328,167.137 210.748,166.398 Q210.628,166.626 210.503,166.87 Q209.716,168.408 208.177,167.621 Q206.639,166.833 207.426,165.294 Q207.914,164.343 208.383,163.557 Z"/>
  <path fill="rgb(100%, 55.294118%, 14.117647%)" opacity="0.604" d="M160.864,387.874 Q139.472,373.181 134.422,358.202 Q126.075,333.44 152.921,302.235 Q158.171,296.132 164.273,301.382 Q170.376,306.632 165.126,312.734 Q144.26,336.988 149.678,353.059 Q153.013,362.95 169.979,374.603 Q173.297,376.882 173.817,379.68 Q174.336,382.478 172.057,385.796 Q167.5,392.431 160.864,387.874 Z"/>
  <path fill="rgb(38.823529%, 8.627451%, 100%)" opacity="0.157" d="M9.876,100.415 Q4.922,100.89 0.329,108.117 Q-3.691,114.442 -7.398,115.612 Q-13.296,117.472 -23.678,111.119 Q-24.977,110.325 -24.182,109.025 Q-23.387,107.726 -22.088,108.521 Q-12.889,114.149 -8.314,112.707 Q-5.666,111.871 -2.242,106.483 Q3.149,98 9.585,97.382 Q11.101,97.237 11.247,98.753 Q11.319,99.511 10.977,99.926 Q10.634,100.342 9.876,100.415 Z"/>
  <path fill="rgb(44.705882%, 52.54902%, 34.117647%)" opacity="0.123" d="M38.28,131.193 Q28.841,141.503 23.707,150.506 Q21.945,153.596 21.39,155.348 Q21.599,155.555 21.769,155.883 Q22.119,156.557 21.957,157.069 Q21.794,157.58 21.121,157.93 Q20.444,158.28 19.811,158.208 Q18.77,158.089 18.346,157.114 Q17.984,156.28 18.368,154.865 Q18.953,152.713 21.07,149.002 Q26.372,139.704 36.041,129.143 Q36.553,128.583 37.089,128.56 Q37.625,128.536 38.185,129.048 Q39.305,130.073 38.28,131.193 Z"/>
  <path fill="rgb(14.901961%, 27.843137%, 100%)" opacity="0.234" d="M206.406,85.696 Q214.215,70.56 220.825,56.801 Q231.943,18.169 241.787,-5.249 Q246.009,-15.294 249.065,-20.061 Q252.275,-25.067 256.442,-26.991 Q260.366,-28.803 264.581,-28.082 Q269.903,-27.172 273.183,-22.861 Q275.886,-19.308 276.097,-14.551 Q276.488,-5.723 265.31,22.438 Q257.315,42.577 245.774,66.718 Q245.414,67.627 244.945,68.448 Q238.175,82.538 230.211,97.976 Q227.667,102.906 222.383,104.594 Q217.099,106.281 212.169,103.738 Q207.239,101.195 205.551,95.91 Q203.863,90.626 206.406,85.696 Z"/>
  <path fill="rgb(3.137255%, 63.137255%, 43.921569%)" opacity="0.111" d="M283.951,396.8 Q283.269,396.335 281.765,395.453 Q265.591,385.962 255.953,367.3 Q238.71,333.908 235.468,267.425 Q235.297,263.909 238.813,263.738 Q242.329,263.566 242.5,267.083 Q245.668,332.038 262.209,364.069 Q270.911,380.921 285.328,389.38 Q292.194,393.409 290.919,397.66 Q289.907,401.032 286.536,400.02 Q283.785,399.195 283.951,396.8 Z"/>
  <path fill="rgb(60.392157%, 30.588235%, 54.901961%)" opacity="0.105" d="M153.889,95.991 Q154.706,54.261 159.469,23.237 Q163.477,-2.865 168.853,-13.736 Q171.666,-19.424 174.766,-19.507 Q178.337,-19.602 179.655,-13.441 Q181.95,-2.716 178.457,23.337 Q178.32,24.36 177.739,24.803 Q177.159,25.246 176.136,25.109 Q174.089,24.835 174.364,22.788 Q177.762,-2.553 175.617,-12.577 Q175.22,-14.432 174.7,-15.243 L174.876,-15.378 Q174.264,-15.362 172.555,-11.905 Q167.462,-1.607 163.551,23.864 Q158.829,54.616 158.018,96.072 Q157.977,98.136 155.913,98.096 Q154.88,98.076 154.374,97.549 Q153.868,97.023 153.889,95.991 Z"/>
</svg>

