<svg xmlns="http://www.w3.org/2000/svg" width="384" height="384" viewBox="0 0 384 384">
  <defs/>
  <path fill="rgb(55.294118%, 58.431373%, 58.823529%)" opacity="0.097" d="M273.46,283.476 Q297.133,281.534 317.329,272.102 Q333.254,264.665 342.666,255.04 Q344.048,253.627 345.069,252.381 Q341.216,254.302 335.86,258.111 Q332.273,260.662 329.721,257.075 Q327.17,253.487 330.757,250.936 Q347.641,238.929 353.76,243.025 Q358.392,246.126 355.339,252.652 Q353.526,256.527 348.961,261.196 Q338.429,271.965 321.054,280.079 Q299.427,290.179 274.18,292.25 Q269.793,292.61 269.433,288.223 Q269.073,283.836 273.46,283.476 Z"/>
  <path fill="rgb(47.45098%, 68.235294%, 58.039216%)" opacity="0.005" d="M353.22,103.82 Q353.039,103.78 352.7,103.704 Q350,103.101 349.339,102.532 Q347.856,101.254 349.071,99.671 Q349.508,99.102 350.589,98.472 Q352.073,97.608 352.938,99.093 Q353.327,99.761 353.24,100.304 Q353.372,100.334 353.448,100.351 Q353.794,100.428 353.976,100.469 Q354.814,100.658 355.138,101.171 Q355.463,101.684 355.274,102.522 Q354.896,104.198 353.22,103.82 Z"/>
  <path fill="rgb(59.215686%, 20%, 7.058824%)" opacity="0.568" d="M252.197,150.327 Q254.309,149.811 256.441,149.249 Q289.419,140.562 308.897,124.602 Q316.945,118.008 327.298,119.036 Q337.652,120.064 344.246,128.112 Q350.84,136.16 349.812,146.513 Q348.784,156.867 340.736,163.461 Q312.795,186.354 269.239,197.828 Q234.444,206.995 203.033,206.287 Q187.587,205.938 177.859,202.813 Q168.569,199.828 162.893,193.753 Q157.003,187.447 155.698,179.092 Q154.307,170.187 158.542,162.067 Q164.923,149.834 185.301,142.674 Q199.427,137.711 223.507,133.133 Q233.729,131.189 242.33,137.042 Q249.722,142.072 252.197,150.327 Z"/>
  <path fill="rgb(32.54902%, 21.176471%, 17.647059%)" opacity="0.45" d="M83.886,123.744 Q63.863,128.796 54.85,136.053 Q48.988,140.773 49.971,144.803 Q51.416,150.729 62.798,157.549 Q76.955,166.032 101.908,172.398 Q106.052,173.455 107.596,176.056 Q109.14,178.658 108.082,182.802 Q107.025,186.947 104.424,188.491 Q101.823,190.034 97.678,188.977 Q39.512,174.138 33.348,148.856 Q29.79,134.265 44.119,122.727 Q56.048,113.121 79.7,107.154 Q87.995,105.061 90.088,113.357 Q92.181,121.652 83.886,123.744 Z"/>
  <path fill="rgb(61.960784%, 5.490196%, 93.333333%)" opacity="0.599" d="M161.704,96.614 Q124.335,107.985 107.886,124.61 Q96.857,135.757 96.646,147.548 Q96.615,149.265 96.814,150.782 Q99.401,155.944 98.969,158.234 Q98.546,160.473 96.542,161.488 Q94.325,162.61 92.16,161.339 Q91.131,160.735 90.376,159.579 Q89.642,158.456 89.042,156.698 Q88.552,155.264 88.241,153.72 Q85.404,148.473 80.033,140.924 Q77.44,137.281 81.084,134.689 Q84.727,132.097 87.319,135.74 Q88.237,137.03 89.083,138.252 Q92.074,127.877 101.529,118.32 Q119.568,100.088 159.101,88.058 Q163.378,86.757 164.68,91.034 Q165.331,93.173 164.587,94.568 Q163.843,95.963 161.704,96.614 Z"/>
  <path fill="rgb(33.72549%, 39.607843%, 42.352941%)" opacity="0.138" d="M58,247.955 Q76.036,229.088 101.062,228.037 Q113.876,227.499 140.188,233.625 Q170.954,240.789 191.218,241.463 Q226.509,242.637 266.872,230.303 Q277.106,227.176 286.555,232.201 Q296.003,237.227 299.13,247.462 Q302.258,257.696 297.232,267.145 Q292.207,276.593 281.972,279.72 Q233.386,294.567 189.5,293.107 Q164.172,292.265 128.47,283.952 Q109.012,279.421 103.23,279.664 Q99.003,279.842 95.351,283.662 Q87.956,291.397 77.257,291.638 Q66.558,291.879 58.823,284.484 Q51.087,277.089 50.846,266.39 Q50.605,255.691 58,247.955 Z"/>
  <path fill="rgb(0%, 9.803922%, 14.509804%)" opacity="0.121" d="M123.674,283.739 Q61.292,250.469 41.969,205.572 Q34.76,188.824 33.251,169.655 Q32.388,158.692 33.522,140.641 Q33.802,136.176 33.895,134.156 Q34.071,130.321 37.906,130.497 Q39.824,130.585 40.739,131.587 Q41.654,132.59 41.566,134.508 Q41.47,136.593 41.186,141.123 Q40.085,158.631 40.906,169.052 Q42.316,186.955 49.022,202.536 Q67.281,244.96 127.287,276.964 Q130.675,278.771 128.868,282.158 Q127.965,283.852 126.666,284.248 Q125.368,284.643 123.674,283.739 Z"/>
  <path fill="rgb(85.098039%, 19.215686%, 0%)" opacity="0.36" d="M108.514,95.037 Q141.363,72.321 174.227,82.822 Q201.411,91.507 214.064,115.984 Q220.346,128.137 219.213,139.239 Q217.547,155.549 202.776,161.602 Q180.752,170.627 139.265,144.192 Q133.602,140.583 132.149,134.027 Q130.696,127.471 134.304,121.808 Q137.913,116.145 144.469,114.692 Q151.025,113.239 156.688,116.847 Q172.642,127.013 183.452,130.275 Q184.396,130.56 185.217,130.788 Q178.718,118.295 164.359,113.707 Q146.687,108.061 126.955,121.705 Q121.432,125.525 114.826,124.32 Q108.219,123.115 104.4,117.592 Q100.581,112.069 101.786,105.462 Q102.991,98.856 108.514,95.037 Z"/>
  <path fill="rgb(15.686275%, 27.45098%, 31.372549%)" opacity="0.554" d="M225.88,207.299 Q155.71,208.055 113.628,196.581 Q74.713,185.972 64.339,166.272 Q54.267,147.146 72.514,125.215 Q89.799,104.44 127.852,87.053 Q129.228,86.424 130.23,86.798 Q131.233,87.171 131.861,88.547 Q133.119,91.299 130.367,92.557 Q93.569,109.37 77.166,129.085 Q61.507,147.906 69.693,163.452 Q78.842,180.826 115.219,190.743 Q156.488,201.994 225.815,201.248 Q228.841,201.215 228.873,204.241 Q228.889,205.754 228.141,206.518 Q227.393,207.283 225.88,207.299 Z"/>
  <path fill="rgb(100%, 0%, 0%)" opacity="0.341" d="M243.867,143.717 Q203.99,95.713 187.802,92.715 Q183.516,91.921 180.604,97.529 Q175.004,108.311 173.804,135.282 Q173.583,140.248 170.99,142.621 Q168.396,144.994 163.429,144.773 Q153.496,144.331 153.938,134.398 Q155.333,103.041 162.956,88.363 Q172.656,69.686 191.423,73.161 Q214.688,77.469 259.164,131.01 Q265.518,138.658 257.869,145.012 Q250.221,151.365 243.867,143.717 Z"/>
</svg>

