<svg xmlns="http://www.w3.org/2000/svg" width="384" height="384" viewBox="0 0 384 384">
  <defs/>
  <path fill="rgb(3.529412%, 3.529412%, 3.137255%)" opacity="0.955" d="M320.288,280.706 Q287.665,244.822 260.868,211.126 Q253.106,201.366 250.825,199.203 Q250.17,199.499 249.016,200.061 Q234.714,207.036 215.28,208.608 Q181.266,211.359 122.866,201.067 Q116.143,199.882 117.327,193.159 Q117.92,189.797 119.897,188.413 Q121.874,187.028 125.236,187.62 Q181.911,197.608 214.179,194.998 Q231.045,193.634 243.032,187.789 Q251.824,183.501 257.577,187.192 Q261.053,189.422 271.555,202.628 Q298.071,235.971 330.391,271.521 Q334.984,276.572 329.932,281.165 Q324.881,285.757 320.288,280.706 Z"/>
  <path fill="rgb(0%, 1.960784%, 1.568627%)" opacity="0.958" d="M101.176,121.112 Q103.918,121.373 106.832,121.623 Q110.338,121.923 110.038,125.429 Q109.737,128.935 106.231,128.635 Q69.839,125.519 66.544,122.026 Q64.245,119.589 66.463,117.118 Q67.287,116.2 68.599,115.924 Q69.375,115.761 70.661,115.789 Q72.793,115.836 76.641,116.345 Q86.03,117.586 100.057,120.738 Q100.687,120.88 101.176,121.112 Z"/>
  <path fill="rgb(2.745098%, 0%, 0%)" opacity="0.323" d="M76.456,-34.186 Q79.863,-38.757 84.325,-42.475 Q91.779,-48.686 101.043,-51.572 Q110.306,-54.458 119.969,-53.579 Q129.632,-52.7 138.223,-48.19 Q146.814,-43.68 153.025,-36.226 Q159.237,-28.772 162.123,-19.508 Q165.008,-10.245 164.13,-0.582 Q153.071,121.008 121.379,206.102 Q87.056,298.259 38.807,311.035 Q12.315,318.049 -10.152,303.088 Q-26.883,291.946 -35.39,271.092 Q-45.479,246.359 -43.865,205.07 Q-40.739,125.09 2.246,-8.965 Q5.208,-18.204 11.481,-25.606 Q17.754,-33.009 26.382,-37.447 Q35.01,-41.885 44.68,-42.684 Q54.35,-43.483 63.59,-40.52 Q70.543,-38.29 76.456,-34.186 Z"/>
  <path fill="rgb(6.666667%, 8.627451%, 7.45098%)" opacity="0.972" d="M229.122,203.638 Q173.853,200.043 160.239,204.148 Q155.31,205.635 154.413,208.308 Q153.757,210.266 154.602,216.525 Q156.275,228.92 153.476,236.85 Q148.716,250.338 130.908,262.493 Q128.279,264.288 126.484,261.658 Q125.586,260.343 125.795,259.237 Q126.003,258.131 127.318,257.234 Q143.405,246.253 147.471,234.73 Q149.759,228.249 148.291,217.377 Q147.247,209.648 148.376,206.283 Q150.32,200.488 158.401,198.051 Q173.117,193.614 229.535,197.284 Q232.712,197.49 232.505,200.668 Q232.402,202.256 231.556,202.999 Q230.71,203.742 229.122,203.638 Z"/>
  <path fill="rgb(6.27451%, 6.27451%, 6.27451%)" opacity="0.906" d="M174.457,94.315 Q182.539,87.53 192.41,91.315 Q196.855,93.02 200.164,96.862 Q202.608,99.699 204.815,104.352 Q207.577,110.177 210.947,120.64 Q217.227,140.137 222.205,163.054 Q228.14,190.374 225.796,199.31 Q224.274,205.118 219.953,208.859 Q211.903,215.831 201.885,212.047 Q195.79,209.745 191.29,202.942 Q187.299,196.909 181.188,182.405 Q178.422,175.839 181.109,169.241 Q182.968,164.674 186.686,161.943 Q182.81,145.486 178.204,131.186 Q176.032,124.444 174.441,120.681 Q173.333,119.727 172.342,118.547 Q167.761,113.091 168.381,105.993 Q169,98.896 174.457,94.315 Z M186.661,124.671 Q191.932,124.559 196.575,120.662 Q192.156,124.371 186.661,124.671 Z"/>
  <path fill="rgb(0%, 0.784314%, 0%)" opacity="0.818" d="M248.591,167.487 Q264.756,158.087 282.237,154.532 Q282.279,153.756 282.626,152.844 Q284.059,149.076 287.828,150.509 Q291.003,151.716 293.996,152.814 Q297.405,152.507 300.862,152.411 Q321.938,151.829 336.05,158.278 Q343.033,161.47 343.698,165.38 Q344.398,169.504 340.126,171.139 Q338.119,171.907 334.736,171.819 Q321.898,171.487 292.968,161.02 Q271.828,163.303 252.644,174.458 Q250.901,175.471 249.523,175.107 Q248.145,174.742 247.132,172.999 Q245.105,169.514 248.591,167.487 Z"/>
  <path fill="rgb(1.568627%, 0.392157%, 0.784314%)" opacity="0.978" d="M82.622,80.956 Q116.644,94.938 156.97,129.329 Q152.541,120.889 144.706,106.573 Q134.683,88.261 128.27,76.426 Q127.305,74.645 127.713,73.272 Q128.121,71.899 129.902,70.934 Q133.464,69.004 135.394,72.566 Q141.797,84.383 151.813,102.683 Q169.523,135.042 170.55,139.139 Q170.923,140.628 170.725,141.815 Q170.206,144.93 167.173,145.529 Q164.987,145.961 162.135,144.044 Q160.041,142.636 152.827,136.447 Q112.836,102.132 79.542,88.45 Q75.795,86.91 77.335,83.163 Q78.875,79.416 82.622,80.956 Z"/>
  <path fill="rgb(44.313725%, 55.294118%, 65.490196%)" opacity="0.05" d="M1.127,384.429 Q-20.247,353.679 -21.863,330.087 Q-23.847,301.114 0.097,284.383 Q30.052,263.452 111.277,266.991 Q120.45,267.391 126.654,274.16 Q132.858,280.929 132.458,290.102 Q132.058,299.275 125.289,305.478 Q118.52,311.682 109.348,311.282 Q43.131,308.397 25.49,320.723 Q15.627,327.615 37.529,359.126 Q42.77,366.665 41.144,375.702 Q39.519,384.738 31.98,389.979 Q24.44,395.219 15.404,393.594 Q6.367,391.968 1.127,384.429 Z"/>
  <path fill="rgb(70.588235%, 75.686275%, 65.490196%)" opacity="0.014" d="M143.728,57.391 Q131.121,54.874 126.133,53.051 Q123.529,52.099 122.757,51.114 Q121.595,49.632 122.768,48.242 Q123.32,47.588 124.407,47.296 Q130.39,45.689 145.97,49.125 Q146.901,49.33 147.265,49.899 Q147.628,50.467 147.422,51.399 Q147.011,53.263 145.148,52.852 Q136.532,50.952 131.223,50.639 Q136.085,51.972 144.475,53.648 Q145.411,53.835 145.786,54.396 Q146.16,54.958 145.973,55.893 Q145.599,57.765 143.728,57.391 Z"/>
  <path fill="rgb(3.529412%, 2.745098%, 2.352941%)" opacity="0.991" d="M204.666,210.975 Q212.389,227.033 219.593,240.796 Q239.722,265.921 250.786,284.483 Q255.37,292.172 257.016,296.538 Q258.024,299.21 257.882,300.884 Q257.649,303.644 255.244,304.704 Q253.315,305.554 251.242,304.541 Q246.106,302.033 232.759,280.492 Q223.321,265.262 212.813,245.234 Q212.307,244.605 211.795,243.97 Q210.59,242.476 210.669,241.12 Q204.23,228.678 197.397,214.471 Q195.649,210.836 199.283,209.088 Q202.918,207.34 204.666,210.975 Z"/>
  <path fill="rgb(9.019608%, 5.882353%, 10.196078%)" opacity="0.136" d="M72.165,289.686 Q74.761,289.438 77.338,289.184 Q74.937,281.552 74.971,273.445 Q75.014,263.108 79.009,253.573 Q83.005,244.039 90.345,236.759 Q97.685,229.48 107.252,225.563 Q266.456,160.389 365.889,149.711 Q415.16,144.42 444.712,154.349 Q469.599,162.711 482.892,181.638 Q500.776,207.1 491.703,237.65 Q475.315,292.831 360.457,335.398 Q247.107,377.407 82.038,393.158 Q71.747,394.14 61.864,391.109 Q51.981,388.078 44.009,381.495 Q36.038,374.913 31.193,365.781 Q26.348,356.649 25.366,346.359 Q24.384,336.068 27.415,326.184 Q30.446,316.301 37.028,308.33 Q43.61,300.359 52.742,295.513 Q61.874,290.668 72.165,289.686 Z"/>
  <path fill="rgb(0.784314%, 0.784314%, 0.784314%)" d="M139.073,192.165 Q134.968,189.979 131.525,186.322 Q123.319,177.606 123.68,165.641 Q124.041,153.676 132.756,145.47 Q167.295,112.953 199.57,121.198 Q215.979,125.39 226.596,139.062 Q235.225,150.176 237.605,164.589 Q239.976,178.954 235.395,191.922 Q229.357,209.016 214.044,216.988 Q184.345,232.451 147.177,202.398 Q141.765,198.022 139.073,192.165 Z"/>
  <path fill="rgb(0.392157%, 0.392157%, 0%)" d="M73.441,112.586 Q101.372,119.17 107.036,121.094 Q113.169,123.177 118.543,128.181 Q126.144,135.258 137.11,142.554 Q138.505,143.482 138.738,144.644 Q138.971,145.805 138.043,147.2 Q136.187,149.989 133.398,148.133 Q121.977,140.534 113.977,133.085 Q109.654,129.06 104.881,127.439 Q99.522,125.618 71.903,119.109 Q68.642,118.34 69.411,115.079 Q69.795,113.448 70.802,112.825 Q71.81,112.202 73.441,112.586 Z"/>
  <path fill="rgb(1.568627%, 0.784314%, 0.784314%)" opacity="0.973" d="M278.227,78.4 Q236.085,124.6 229.173,137.904 Q229.096,138.053 229.023,138.197 Q229.056,138.208 229.098,138.223 Q242.487,142.85 246.487,152.582 Q252.064,166.15 242.232,193.41 Q239.177,201.881 230.707,198.826 Q226.472,197.298 225.118,194.417 Q223.764,191.536 225.291,187.301 Q232.767,166.573 229.83,159.428 Q228.921,157.215 223.216,155.244 Q214.94,152.384 212.098,147.939 Q207.446,140.662 213.192,129.601 Q221.191,114.205 264.922,66.264 Q267.956,62.938 271.136,62.791 Q274.316,62.645 277.642,65.679 Q284.295,71.748 278.227,78.4 Z"/>
  <path fill="rgb(15.686275%, 15.686275%, 16.470588%)" d="M113.433,320.725 Q115.473,303.135 118.033,272.981 Q118.506,267.411 118.596,266.595 Q118.623,266.343 118.65,266.164 Q118.691,265.891 118.75,265.64 Q118.876,265.105 119.096,264.606 Q119.586,263.499 120.477,262.68 Q124.066,259.376 127.943,262.338 Q130.338,264.167 130.223,267.478 Q130.199,268.151 130.084,270.184 Q130.023,271.264 129.772,272.132 Q129.701,272.97 129.616,273.965 Q127.041,304.297 124.981,322.064 Q124.646,324.951 123.035,326.227 Q121.424,327.503 118.537,327.168 Q112.764,326.499 113.433,320.725 Z"/>
  <path fill="rgb(88.627451%, 95.294118%, 95.294118%)" opacity="0.072" d="M251.06,406.665 Q224.2,385.841 214.578,370.538 Q203.894,353.545 207.556,336.544 Q212.114,315.388 233.988,306.619 Q253.089,298.962 294.282,302.643 Q330.891,305.915 392.803,317.947 Q406.17,320.545 413.786,331.834 Q421.401,343.123 418.803,356.491 Q416.205,369.858 404.916,377.473 Q393.627,385.088 380.26,382.491 Q332.99,373.304 302.221,369.596 Q303.354,372.885 303.819,376.555 Q305.529,390.065 297.185,400.827 Q288.841,411.589 275.331,413.299 Q261.822,415.009 251.06,406.665 Z"/>
  <path fill="rgb(0%, 0%, 0%)" opacity="0.989" d="M125.775,174.088 Q104.473,163.183 82.685,161.278 Q58.474,170.119 46.904,170.499 Q43.814,170.601 41.916,169.965 Q37.876,168.611 38.11,164.815 Q38.355,160.835 45.015,157.872 Q57.661,152.246 77.669,152.987 Q79.626,153.06 81.579,153.199 Q84.837,151.99 88.339,150.625 Q90.194,149.902 91.483,150.468 Q92.773,151.034 93.496,152.889 Q93.893,153.907 93.901,154.754 Q111.844,158.008 129.405,166.998 Q132.95,168.813 131.135,172.358 Q129.32,175.903 125.775,174.088 Z"/>
</svg>

