<svg xmlns="http://www.w3.org/2000/svg" width="384" height="384" viewBox="0 0 384 384">
  <defs/>
  <path fill="rgb(14.117647%, 42.352941%, 4.313725%)" opacity="0.897" d="M76.448,274.556 Q79.419,259.41 79.46,250.819 Q78.85,250.014 78.315,249.162 Q74.114,242.473 75.694,235.619 Q77.274,228.771 83.453,225.919 Q91.22,222.335 97.994,227.849 Q101.755,230.91 103.563,236.481 Q110.783,238.524 125.198,236.829 Q130.53,236.203 134.744,239.53 Q138.958,242.858 139.585,248.19 Q140.211,253.523 136.884,257.736 Q133.556,261.95 128.224,262.577 Q114.76,264.159 104.53,262.913 Q103.672,270.45 101.888,279.546 Q100.855,284.814 96.398,287.809 Q91.942,290.804 86.673,289.771 Q81.404,288.737 78.41,284.281 Q75.415,279.825 76.448,274.556 Z"/>
  <path fill="rgb(47.45098%, 69.411765%, 51.764706%)" opacity="0.388" d="M236.889,390.987 Q219.921,315.824 229.375,274.137 Q235.121,248.804 250.755,236.138 Q261.353,227.551 274.559,226.092 Q286.818,224.738 298.672,229.903 Q330.826,243.912 344.84,294.811 Q358.255,343.534 347.198,403.362 Q344.762,416.546 333.717,424.145 Q322.672,431.744 309.489,429.308 Q296.306,426.871 288.707,415.826 Q287.139,413.548 285.999,411.179 Q281.373,414.125 275.588,415.431 Q262.511,418.383 251.176,411.224 Q239.842,404.064 236.889,390.987 Z"/>
  <path fill="rgb(22.745098%, 1.568627%, 3.529412%)" opacity="0.982" d="M49.373,122.374 Q33.52,120.386 25.741,117.147 Q23.909,116.384 22.39,115.512 Q17.927,117.129 12.874,118.876 Q8.786,120.29 6.035,118.952 Q3.284,117.615 1.87,113.527 Q-0.957,105.35 7.219,102.523 Q11.944,100.889 16.047,99.43 Q19.638,91.235 35.929,86.387 Q42.209,84.518 46.605,84.292 Q50.996,84.067 53.863,85.891 Q58.947,89.127 57.991,95.036 Q57.503,98.059 55.164,100.434 Q53.357,102.27 48.443,104.795 Q49.929,105.004 51.526,105.205 Q55.818,105.743 57.695,108.158 Q59.572,110.573 59.034,114.866 Q58.495,119.158 56.08,121.035 Q53.665,122.912 49.373,122.374 Z"/>
  <path fill="rgb(18.039216%, 40.784314%, 8.235294%)" opacity="0.766" d="M280.073,72.836 Q279.552,72.164 279.048,71.523 Q278.939,71.948 278.785,72.361 Q276.82,77.638 271.206,77.799 Q266.998,77.919 264.258,74.486 Q263.475,73.505 262.387,71.513 Q259.964,67.077 246.316,38.781 Q242.719,31.323 250.176,27.726 Q253.905,25.927 256.669,26.893 Q259.432,27.858 261.231,31.586 Q264.272,37.891 266.74,42.981 Q269.172,42.274 272.211,43.022 Q275.359,43.796 278.875,46.719 Q284.189,51.134 293.153,62.68 Q295.692,65.95 295.327,68.854 Q294.961,71.759 291.691,74.298 Q285.151,79.376 280.073,72.836 Z"/>
  <path fill="rgb(21.960784%, 31.372549%, 21.176471%)" d="M115.81,227.816 Q106.32,246.609 91.34,250.963 Q79.993,254.261 68.357,248.942 Q64.101,246.997 61.191,244.473 Q56.604,240.494 58.261,236.879 Q60.326,232.375 67.294,235.347 Q71.579,237.174 78.512,241.818 Q79.911,242.755 80.352,243.881 Q84.758,244.322 89.048,243.075 Q100.598,239.719 108.479,224.114 Q110.33,220.448 113.996,222.299 Q115.829,223.225 116.282,224.604 Q116.736,225.983 115.81,227.816 Z"/>
  <path fill="rgb(83.137255%, 0%, 7.058824%)" opacity="0.765" d="M62.037,364.585 Q62.207,383.176 43.147,388.276 Q30.015,391.789 13.328,387.758 Q6.484,386.104 2.371,383.782 Q-0.322,382.261 -1.619,380.446 Q-4.639,376.22 -1.418,372.392 Q3.439,366.618 34.028,370.165 Q39.253,370.771 38.647,375.997 Q38.456,377.641 37.808,378.707 Q39.145,378.456 40.428,378.113 Q51.613,375.12 51.517,364.681 Q51.493,362.051 52.796,360.724 Q54.099,359.397 56.729,359.373 Q61.989,359.325 62.037,364.585 Z"/>
  <path fill="rgb(73.333333%, 73.72549%, 79.215686%)" opacity="0.005" d="M281.472,144.298 Q279.804,147.757 277.735,148.265 Q276.618,148.539 275.678,148.089 Q275.202,148.124 274.845,147.937 Q274.272,147.636 274,146.763 Q273.911,146.479 273.833,146.243 Q273.198,145.194 273.243,144.354 Q273.28,143.673 273.747,143.182 Q274.768,142.107 276.035,142.88 Q276.43,143.121 276.681,143.54 Q276.8,143.737 276.93,144.055 Q277.015,144.261 277.112,144.53 Q277.504,144.104 278.177,142.709 Q278.971,141.062 280.619,141.856 Q281.443,142.254 281.656,142.864 Q281.869,143.475 281.472,144.298 Z M276.882,144.704 L276.863,144.712 Q276.872,144.71 276.882,144.706 L276.882,144.704 Z"/>
  <path fill="rgb(59.607843%, 0%, 8.627451%)" opacity="0.994" d="M402.411,149.283 Q397.06,152.721 392.277,155.538 Q397.312,175.013 392.362,209.774 Q391.266,217.469 385.05,222.135 Q378.834,226.801 371.14,225.705 Q363.445,224.61 358.779,218.394 Q354.113,212.178 355.209,204.484 Q358.712,179.881 356.73,168.223 Q354.222,167.897 351.909,166.991 Q344.462,164.075 341.249,156.848 Q337.775,149.033 341.282,141.174 Q345.971,130.667 358.564,128.71 Q361.438,128.264 364.206,128.408 Q370.609,125.108 382.128,117.709 Q388.668,113.508 396.262,115.162 Q403.856,116.816 408.057,123.355 Q412.258,129.894 410.604,137.488 Q408.95,145.083 402.411,149.283 Z"/>
  <path fill="rgb(57.647059%, 100%, 48.627451%)" opacity="0.012" d="M119.666,99.117 Q119.119,102.952 118.269,105.89 Q119.934,105.835 121.813,106.122 Q123.887,106.439 123.57,108.512 Q123.253,110.586 121.179,110.269 Q118.294,109.828 116.248,110.394 Q114.147,110.975 113.342,109.354 Q112.888,108.44 113.458,107.019 Q114.766,103.76 115.513,98.524 Q115.661,97.486 116.255,97.041 Q116.848,96.596 117.886,96.744 Q119.963,97.04 119.666,99.117 Z"/>
  <path fill="rgb(87.45098%, 94.117647%, 90.196078%)" opacity="0.077" d="M281.783,316.491 Q284.821,317.994 289.873,320.005 Q297.416,323.007 300.78,325.736 Q305.941,329.923 310.267,338.756 Q312.171,342.644 308.283,344.548 Q304.395,346.452 302.491,342.564 Q299.004,335.444 295.325,332.459 Q292.987,330.562 286.672,328.049 Q281.296,325.909 277.944,324.251 Q274.064,322.332 275.983,318.452 Q277.903,314.572 281.783,316.491 Z"/>
  <path fill="rgb(44.705882%, 39.215686%, 37.254902%)" d="M260.29,262.762 Q272.855,283.564 290.965,291.867 Q297.913,295.052 303.597,295.256 Q307.426,295.392 308.801,294.317 Q309.032,294.137 308.958,293.092 Q308.664,288.932 303.956,282.228 Q289.985,262.331 249.125,237.339 Q240.637,232.148 245.829,223.66 Q251.02,215.172 259.508,220.364 Q303.895,247.512 320.242,270.793 Q328.123,282.017 328.808,291.686 Q329.63,303.291 321.059,309.993 Q306.901,321.064 282.672,309.956 Q258.991,299.099 243.257,273.05 Q238.113,264.534 246.629,259.39 Q255.146,254.246 260.29,262.762 Z"/>
  <path fill="rgb(42.745098%, 0%, 0%)" opacity="0.922" d="M329.112,343.729 Q345.695,301.975 371.542,293.102 Q387.648,287.572 402.26,295.308 Q414.469,301.772 420.56,315.138 Q425.981,327.03 424.565,340.252 Q423.025,354.633 413.835,365.836 Q394.351,389.587 353.61,386.247 Q343.569,385.423 337.05,377.741 Q332.721,372.638 331.63,366.495 Q330.351,364.581 329.385,362.344 Q325.393,353.093 329.112,343.729 Z"/>
  <path fill="rgb(65.490196%, 1.568627%, 4.705882%)" opacity="0.97" d="M182.21,191.571 Q143.127,158.407 141.321,141.92 Q140.091,130.697 150.107,123.786 Q154.259,120.922 164.412,117.253 Q174.637,113.557 178.006,110.968 Q186.05,104.787 192.231,112.831 Q198.412,120.874 190.369,127.055 Q184.499,131.566 171.308,136.333 Q163.623,139.11 161.63,140.485 Q163.851,149.384 195.337,176.101 Q203.072,182.664 196.508,190.399 Q189.945,198.134 182.21,191.571 Z"/>
  <path fill="rgb(21.176471%, 3.921569%, 5.882353%)" opacity="0.981" d="M72.391,101.118 Q75.867,90.504 78.831,85.646 Q80.55,82.828 82.377,81.589 Q86.256,78.958 89.671,81.796 Q95.016,86.239 91.111,102.769 Q87.248,119.121 78.09,127.02 Q65.048,138.271 47.987,126.833 Q44.017,124.172 46.678,120.202 Q48.009,118.217 49.667,117.89 Q51.325,117.563 53.31,118.893 Q64.32,126.274 71.847,119.782 Q77.038,115.304 80.102,106.493 Q78.436,108.127 75.446,107.148 Q70.904,105.66 72.391,101.118 Z"/>
  <path fill="rgb(72.156863%, 0%, 7.843137%)" opacity="0.992" d="M-24.549,133.277 Q-20.5,132.249 -12.585,130.157 Q10.163,124.144 19.518,122.842 Q50.289,118.559 62.155,139.06 Q73.28,158.281 56.114,186.85 Q45.542,204.446 19.774,235.066 Q12.449,243.769 1.116,244.744 Q-10.218,245.719 -18.921,238.395 Q-27.625,231.07 -28.6,219.737 Q-29.575,208.404 -22.25,199.7 Q-16.376,192.72 -11.46,186.618 Q-22.245,189.198 -31.83,183.496 Q-41.606,177.68 -44.406,166.655 Q-47.207,155.63 -41.391,145.853 Q-35.575,136.077 -24.549,133.277 Z"/>
  <path fill="rgb(23.529412%, 0%, 0.784314%)" opacity="0.893" d="M147.437,270.998 Q146.592,289.351 138.637,300.558 Q130.4,312.163 116.351,314.728 Q95.827,318.476 73.709,303.085 Q64.47,296.655 59.221,289.214 Q50.753,277.21 55.162,266.291 Q63.564,245.48 108.009,256.99 Q113.752,258.477 116.761,263.59 Q118.736,266.945 118.775,270.572 Q118.801,270.133 118.821,269.682 Q119.094,263.755 123.477,259.757 Q127.861,255.76 133.787,256.032 Q139.714,256.305 143.711,260.688 Q147.709,265.072 147.437,270.998 Z M118.574,273.088 Q118.46,273.763 118.283,274.446 Q116.796,280.189 111.683,283.199 Q106.571,286.208 100.827,284.721 Q98.935,284.231 97.167,283.811 Q105.051,287.672 111.206,286.548 Q117.308,285.434 118.574,273.088 Z"/>
  <path fill="rgb(89.019608%, 19.607843%, 25.882353%)" opacity="0.897" d="M65.45,343.204 Q68.613,355.108 65.919,363.305 Q63.101,371.878 55.154,375.052 Q48.704,377.629 41.375,375.535 Q34.613,373.603 30.183,368.606 Q24.607,362.318 25.536,354.483 Q26.962,342.472 43.107,334.776 Q41.539,331.573 39.577,327.998 Q37.416,324.06 38.305,321.011 Q39.193,317.961 43.131,315.8 Q51.007,311.478 55.329,319.354 Q58.529,325.185 60.864,330.469 Q64,331.834 65.431,336.441 Q66.685,340.477 65.45,343.204 Z M49.148,351.854 Q47.064,352.986 45.561,354.186 Q43.466,355.859 43.379,356.6 L43.626,356.686 Q44.583,357.765 46.312,358.259 Q48.462,358.874 48.85,357.694 Q49.618,355.357 49.148,351.854 Z"/>
  <path fill="rgb(21.568627%, 0%, 3.137255%)" opacity="0.958" d="M61.806,91.063 Q59.834,88.441 59.996,85.958 Q60.185,83.067 63.264,80.365 Q95.258,52.291 106.96,65.459 Q115.862,75.477 104.142,99.71 Q93.479,121.759 80.529,127.266 Q69.295,132.045 61.918,122.679 Q56.388,115.658 55.197,99.745 Q54.622,92.065 61.806,91.063 Z M71.537,98.521 Q72.295,108.643 74.441,112.042 Q81.583,108.718 89.39,92.576 Q92.934,85.248 93.967,79.599 Q94.091,78.92 94.167,78.323 Q94.037,78.38 93.901,78.44 Q86.643,81.651 74.072,92.682 Q72.346,94.196 70.68,94.802 Q71.375,96.352 71.537,98.521 Z"/>
  <path fill="rgb(13.333333%, 37.647059%, 0%)" opacity="0.922" d="M221.609,126.783 Q222.831,127.045 224.083,127.298 Q229.035,128.3 231.828,132.51 Q234.621,136.72 233.62,141.672 Q232.618,146.624 228.408,149.418 Q224.198,152.211 219.246,151.209 Q196.104,146.528 180.638,138.781 Q163.616,130.254 160.726,119.879 Q157.607,108.677 167.599,102.536 Q172.827,99.323 181.171,99.376 Q194.605,99.462 216.439,107.447 Q221.184,109.182 223.313,113.764 Q225.441,118.346 223.706,123.091 Q222.937,125.194 221.609,126.783 Z"/>
  <path fill="rgb(96.862745%, 100%, 98.431373%)" opacity="0.004" d="M112.23,25.105 Q112.559,25.683 112.23,26.56 Q110.756,30.496 107.193,29.813 Q104.601,29.316 103.041,26.786 Q100.957,23.406 103.753,21.665 Q106.074,20.22 111.62,22.108 Q112.433,22.384 112.702,22.929 Q112.97,23.475 112.693,24.288 Q112.516,24.807 112.23,25.105 Z M105.736,24.503 Q105.791,24.697 105.967,24.983 Q106.733,26.225 107.84,26.437 Q108.555,26.574 109.012,25.354 Q109.097,25.126 109.203,24.943 Q106.617,24.182 105.736,24.503 Z"/>
  <path fill="rgb(92.54902%, 29.019608%, 36.078431%)" opacity="0.972" d="M9.79,336.556 Q9.047,335.006 8.209,333.352 Q4.841,326.705 11.488,323.338 Q14.811,321.654 17.315,322.474 Q19.818,323.294 21.502,326.617 Q33.623,350.541 29.038,362.342 Q26.313,369.356 19.209,371.176 Q13.915,372.533 7.988,370.305 Q-5.272,365.321 -5.729,353.745 Q-6.205,341.697 9.79,336.556 Z M15.09,350.515 Q11.375,351.629 9.619,353.066 Q9.343,353.292 9.201,353.446 Q9.571,354.981 13.231,356.356 Q14.48,356.825 15.207,356.785 Q15.982,354.565 15.09,350.515 Z"/>
  <path fill="rgb(21.960784%, 1.568627%, 3.529412%)" opacity="0.753" d="M267.687,71.075 Q286.204,95.573 298.134,97.537 Q303.09,98.353 307.234,92.218 Q308.97,89.647 310.155,87.018 Q309.675,86.218 309.291,85.319 Q307.195,80.414 309.181,75.463 Q314.455,62.316 323.914,61.794 Q331.271,61.389 335.582,67.443 Q337.366,69.948 338.014,73.169 Q338.586,76.011 338.289,79.703 Q337.141,93.954 328.577,106.633 Q315.194,126.447 293.95,122.95 Q271.864,119.314 247.141,86.605 Q243.924,82.35 244.659,77.066 Q245.394,71.783 249.649,68.567 Q253.904,65.35 259.188,66.085 Q264.471,66.819 267.687,71.075 Z"/>
  <path fill="rgb(22.745098%, 0%, 2.745098%)" opacity="0.958" d="M41.192,82.256 Q38.508,84.585 35.159,90.614 Q32.334,95.701 26.739,97.3 Q21.144,98.899 16.058,96.073 Q10.971,93.248 9.372,87.653 Q7.773,82.058 10.599,76.972 Q21.371,57.579 36.551,53.679 Q50.027,50.216 61.504,58.913 Q65.724,62.111 68.244,66.093 Q70.113,69.046 70.749,72.118 Q72.875,82.376 64.131,87.719 Q55.4,93.054 45.418,85.776 Q43.467,84.353 41.192,82.256 Z"/>
  <path fill="rgb(81.176471%, 20.784314%, 25.490196%)" opacity="0.776" d="M167.223,332.703 Q153.663,353.148 162.389,359.292 Q173.311,366.982 199.6,362.707 Q225.602,358.479 234.81,348.433 Q235.842,347.306 236.091,346.624 Q234.646,343.189 224.912,338.536 Q220.797,336.569 219.278,332.268 Q217.759,327.968 219.726,323.853 Q221.693,319.738 225.994,318.22 Q230.294,316.701 234.409,318.668 Q251.984,327.069 256.561,338.503 Q261.795,351.581 251.044,363.312 Q236.675,378.989 203.134,384.443 Q167.978,390.159 149.711,377.298 Q136.981,368.335 136.932,352.879 Q136.886,338.602 148.871,320.532 Q151.392,316.731 155.862,315.826 Q160.332,314.921 164.133,317.441 Q167.933,319.962 168.838,324.432 Q169.743,328.902 167.223,332.703 Z"/>
  <path fill="rgb(92.941176%, 29.411765%, 39.215686%)" opacity="0.673" d="M195.281,331.879 Q196.103,333.876 196.929,335.792 Q197.488,333.134 199.868,330.326 Q203.257,326.326 206.952,326.021 Q210.647,325.716 214.647,329.106 Q235.144,346.477 241.887,364.909 Q249.766,386.449 236.399,395.548 Q222.521,404.994 204.729,387.538 Q189.296,372.396 175.891,339.871 Q171.896,330.176 181.59,326.18 Q186.438,324.182 189.86,325.607 Q193.283,327.032 195.281,331.879 Z M201.262,345.253 Q210.172,363.498 219.416,372.568 Q221.522,374.635 223.281,375.872 Q222.95,374.189 222.191,372.114 Q217.38,358.961 201.262,345.253 Z"/>
  <path fill="rgb(18.823529%, 59.215686%, 0.784314%)" opacity="0.685" d="M297.227,42.624 Q304.732,44.034 316.083,45.145 Q320.929,45.619 324.02,49.381 Q327.111,53.143 326.636,57.989 Q326.162,62.835 322.4,65.926 Q318.638,69.017 313.792,68.543 Q291.551,66.365 280.806,62.684 Q264.035,56.939 266.142,44.302 Q267.818,34.25 279.492,31.614 Q284.075,30.58 287.993,31.745 Q292.62,33.121 295.184,37.032 Q296.936,39.703 297.227,42.624 Z"/>
  <path fill="rgb(10.588235%, 35.294118%, 0%)" opacity="0.816" d="M95.951,262.111 Q83.192,267.253 69.331,254.889 Q58.415,245.153 53.996,232.758 Q51.706,226.334 53.319,222.654 Q55.95,216.647 63.622,219.868 Q74.696,224.517 98.482,252.148 Q100.942,255.005 98.308,257.481 Q98.791,258.991 98.321,260.095 Q97.776,261.375 95.951,262.111 Z M90.929,255.445 Q69.608,230.916 60.576,227.124 Q60.55,227.113 60.53,227.105 Q60.731,228.213 61.409,230.115 Q65.153,240.617 74.57,249.016 Q83.51,256.991 90.929,255.445 Z"/>
  <path fill="rgb(74.901961%, 5.490196%, 10.588235%)" opacity="0.752" d="M210.051,134.301 Q217.759,144.574 221.221,157.241 Q222.764,156.598 224.499,156.235 Q231.45,154.778 237.395,158.663 Q243.34,162.548 244.797,169.499 Q246.253,176.45 242.368,182.395 Q231.735,198.666 221.137,215.817 Q215.424,225.062 213.119,227.174 Q208.903,231.034 203.301,231.668 Q195.763,232.52 190.049,227.534 Q186.185,224.161 184.79,219.211 Q183.641,215.135 184.517,210.642 Q184.767,209.361 185.616,206.281 Q195.179,171.618 182.621,154.879 Q178.359,149.198 179.362,142.168 Q180.366,135.137 186.047,130.875 Q191.728,126.613 198.758,127.616 Q205.789,128.62 210.051,134.301 Z"/>
  <path fill="rgb(17.254902%, 49.411765%, 12.941176%)" opacity="0.753" d="M37.823,70.419 Q13.168,56.133 2.667,60.757 Q-3.051,63.275 -3.434,74.318 Q-3.943,88.97 4.7,100.108 Q11.961,109.466 21.662,107.671 Q28.749,106.36 34.688,110.444 Q40.627,114.528 41.938,121.615 Q43.25,128.702 39.166,134.641 Q35.082,140.58 27.994,141.892 Q-2.543,147.542 -22.795,121.443 Q-39.16,100.353 -38.215,73.111 Q-37.726,59.033 -31.829,48.061 Q-24.69,34.777 -11.358,28.907 Q15.322,17.159 55.271,40.308 Q61.507,43.921 63.362,50.886 Q65.216,57.851 61.603,64.087 Q57.989,70.324 51.024,72.178 Q44.059,74.033 37.823,70.419 Z"/>
  <path fill="rgb(63.137255%, 83.921569%, 58.431373%)" opacity="0.012" d="M267.407,172.44 Q265,162.347 266.92,159.515 Q268.296,157.485 270.575,158.467 Q271.903,159.04 272.762,160.47 Q273.229,161.246 273.074,161.867 Q272.919,162.488 272.143,162.954 Q270.592,163.886 269.66,162.335 Q269.653,162.324 269.647,162.315 Q269.257,164.59 270.929,171.6 Q271.139,172.48 270.803,173.025 Q270.468,173.57 269.588,173.78 Q267.827,174.2 267.407,172.44 Z"/>
  <path fill="rgb(71.764706%, 0%, 3.529412%)" opacity="0.845" d="M193.395,217.479 Q159.078,202.724 143.965,181.325 Q136.976,171.43 135.467,161.707 Q133.744,150.61 139.28,142.59 Q145.317,133.843 156.641,132.949 Q166.246,132.19 177.109,137.831 Q199.294,149.352 220.405,183.415 Q222.888,187.422 221.81,192.011 Q220.733,196.601 216.726,199.084 Q212.719,201.568 208.129,200.49 Q207.556,200.356 207.016,200.176 Q207.882,201.353 208.463,202.809 Q210.208,207.188 208.346,211.519 Q206.484,215.85 202.105,217.596 Q197.726,219.341 193.395,217.479 Z M201.615,196.234 Q201.324,195.837 201.056,195.406 Q183.245,166.666 166.619,158.032 Q161.54,155.395 158.434,155.64 Q158.106,155.666 157.918,155.711 Q157.675,156.382 157.96,158.215 Q158.65,162.661 162.557,168.194 Q173.812,184.129 201.615,196.234 Z"/>
  <path fill="rgb(10.196078%, 40.392157%, 0%)" opacity="0.745" d="M78.979,66.702 Q63.892,61.388 52.911,59.938 Q45.769,65.715 38.616,67.683 Q30.895,69.807 24.891,66.987 Q20.403,64.879 18.209,60.645 Q15.743,55.891 17.167,50.648 Q20.684,37.692 40.981,36.357 Q42.548,36.254 44.183,36.231 Q45.601,34.605 47.098,32.697 Q50.06,28.92 54.825,28.344 Q59.59,27.769 63.366,30.731 Q67.142,33.693 67.718,38.458 Q67.764,38.837 67.787,39.211 Q76.609,41.298 86.677,44.845 Q91.204,46.439 93.278,50.767 Q95.351,55.096 93.757,59.623 Q92.163,64.15 87.834,66.223 Q83.506,68.297 78.979,66.702 Z"/>
  <path fill="rgb(72.54902%, 3.921569%, 4.313725%)" opacity="0.848" d="M212.345,175.625 Q215.17,148.139 225.238,136.833 Q231.306,130.018 238.745,130.407 Q246.691,130.822 251.037,138.654 Q257.728,150.709 251.193,171.219 Q243.966,193.9 222.46,217.124 Q216.695,223.349 210.47,217.585 Q207.357,214.702 207.242,211.705 Q207.127,208.707 210.009,205.595 Q228.946,185.146 235.025,166.068 Q238.572,154.936 237.078,149.138 Q231.339,156.788 229.225,177.359 Q228.358,185.799 219.918,184.932 Q211.478,184.065 212.345,175.625 Z"/>
  <path fill="rgb(47.058824%, 0%, 1.568627%)" opacity="0.898" d="M384.258,113.317 Q377.073,121.762 365.99,133.99 Q350.582,150.989 350.262,155.01 Q349.895,159.634 362.642,184.092 Q376.36,210.413 385.856,230.815 Q387.834,235.064 386.227,239.468 Q384.621,243.871 380.372,245.848 Q376.123,247.826 371.72,246.22 Q367.317,244.613 365.339,240.364 Q356.058,220.422 342.574,194.551 Q334.033,178.163 331.546,172.166 Q327.058,161.34 327.703,153.218 Q328.382,144.672 334.833,135.674 Q338.289,130.855 349.222,118.792 Q360.068,106.826 367.023,98.652 Q370.06,95.082 374.732,94.706 Q379.403,94.329 382.973,97.367 Q386.543,100.404 386.919,105.075 Q387.296,109.747 384.258,113.317 Z"/>
  <path fill="rgb(69.019608%, 0%, 2.745098%)" opacity="0.875" d="M209.224,233.669 Q208.499,234.352 207.155,235.625 Q201.098,241.363 198.62,243.14 Q191.964,247.913 185.591,246.011 Q180.381,244.456 176.022,237.933 Q174.128,235.1 169.378,226.405 Q156.459,202.76 143.207,182.969 Q138.024,175.227 145.766,170.043 Q153.507,164.86 158.691,172.601 Q172.409,193.089 185.731,217.471 Q188.776,223.044 190.391,225.767 Q191.974,224.339 194.34,222.097 Q195.706,220.803 196.448,220.104 Q203.23,213.716 209.618,220.499 Q216.006,227.281 209.224,233.669 Z"/>
</svg>

