<svg xmlns="http://www.w3.org/2000/svg" width="384" height="384" viewBox="0 0 384 384">
  <defs/>
  <path fill="rgb(86.666667%, 87.058824%, 92.54902%)" opacity="0.021" d="M127.668,224.171 Q126.062,221.904 127.239,220.08 Q127.298,219.988 127.366,219.899 Q123.912,217.59 113.888,212.097 Q111.873,210.993 112.977,208.978 Q114.081,206.963 116.096,208.067 Q128.361,214.788 131.263,217.035 Q133.523,218.786 133.258,220.545 Q133.076,221.754 131.895,222.465 Q132.252,223.74 130.871,224.719 Q129.933,225.383 129.132,225.246 Q128.332,225.109 127.668,224.171 Z"/>
  <path fill="rgb(45.490196%, 57.647059%, 46.666667%)" opacity="0.024" d="M109.677,345.269 Q109.3,346.462 109.045,348.487 Q108.828,350.211 107.103,349.994 Q106.241,349.886 105.864,349.4 Q105.487,348.915 105.596,348.053 Q105.941,345.31 106.542,343.702 Q106.842,342.897 107.197,342.508 Q107.549,342.121 108.032,341.978 Q109.406,341.57 110.085,342.833 Q110.398,343.415 110.257,344.143 Q110.108,344.914 109.677,345.269 Z"/>
  <path fill="rgb(65.098039%, 89.019608%, 41.568627%)" d="M232.94,167.912 Q232.696,167.78 232.24,167.534 Q209.481,155.245 193.103,153.592 Q182.829,152.555 175.583,155.647 Q166.638,159.463 159.159,171.063 Q149.837,185.519 133.023,189.15 Q116.21,192.781 101.753,183.459 Q87.297,174.138 83.666,157.324 Q80.036,140.511 89.357,126.054 Q110.632,93.06 142.991,79.255 Q169.9,67.774 201.443,70.958 Q234.336,74.278 271.701,94.453 Q272.134,94.687 272.341,94.799 Q287.483,102.959 292.421,119.436 Q297.358,135.914 289.197,151.056 Q281.037,166.198 264.56,171.135 Q248.082,176.072 232.94,167.912 Z"/>
  <path fill="rgb(86.666667%, 20%, 0%)" opacity="0.595" d="M292.934,376.512 Q235.569,382.855 186.865,380.59 Q162.489,379.457 133.502,375.289 Q133.516,375.349 133.529,375.408 Q138.776,399.163 141.909,416.048 Q143.934,426.964 137.647,436.115 Q131.36,445.266 120.444,447.291 Q109.528,449.317 100.377,443.03 Q91.226,436.743 89.201,425.827 Q86.234,409.837 81.183,386.97 Q77.233,369.084 76.379,362.63 Q73.986,344.552 81.657,333.23 Q91.757,318.324 112.658,318.701 Q118.719,318.81 134.144,321.187 Q164.7,325.895 189.355,327.041 Q233.858,329.11 287.043,323.23 Q298.078,322.01 306.744,328.95 Q315.409,335.89 316.629,346.926 Q317.85,357.961 310.909,366.626 Q303.969,375.292 292.934,376.512 Z"/>
  <path fill="rgb(76.078431%, 100%, 21.568627%)" opacity="0.862" d="M303.364,167.573 Q292.089,164.221 283.353,158.475 Q277.264,154.47 263.052,150.591 Q234.488,142.795 162.36,130.209 Q154.099,128.767 149.277,121.907 Q144.455,115.046 145.897,106.786 Q147.338,98.525 154.199,93.703 Q161.059,88.881 169.32,90.322 Q243.318,103.235 273.713,111.53 Q294.137,117.105 305.605,124.649 Q309.351,127.113 314.901,128.763 Q322.939,131.152 326.933,138.525 Q330.927,145.899 328.538,153.937 Q326.149,161.974 318.775,165.969 Q311.402,169.963 303.364,167.573 Z"/>
  <path fill="rgb(33.72549%, 69.019608%, 6.666667%)" opacity="0.863" d="M58.223,173.462 Q68.822,174.037 74.023,174.849 Q86.468,176.795 87.486,185.969 Q87.555,186.594 87.571,187.195 Q88.345,187.233 89.143,187.271 Q93.681,187.487 96.737,190.849 Q99.793,194.21 99.577,198.748 Q99.361,203.286 95.999,206.342 Q92.637,209.398 88.099,209.182 Q72.319,208.431 64.284,207.435 Q53.597,206.109 49.894,202.177 Q45.546,197.56 47.082,191.477 Q47.359,190.378 47.821,189.384 Q46.512,186.862 46.677,183.82 Q46.923,179.284 50.304,176.25 Q53.686,173.216 58.223,173.462 Z"/>
  <path fill="rgb(0%, 92.941176%, 100%)" opacity="0.017" d="M317.009,95.305 Q322.702,93.076 327.816,90.936 Q316.414,89.809 302.523,89.098 Q260.635,86.954 209.056,89.378 Q195.722,90.004 185.851,81.019 Q175.979,72.034 175.353,58.7 Q174.726,45.367 183.711,35.495 Q192.697,25.624 206.03,24.997 Q331.878,19.083 384.653,36.213 Q406.019,43.149 416.444,55.656 Q425.876,66.971 426.336,81.179 Q426.763,94.377 419.124,106.345 Q403.643,130.602 340.506,155.32 Q328.077,160.187 315.847,154.839 Q303.616,149.491 298.75,137.061 Q293.884,124.631 299.232,112.401 Q304.58,100.171 317.009,95.305 Z"/>
  <path fill="rgb(70.588235%, 83.921569%, 68.627451%)" opacity="0.017" d="M356.9,12.21 Q355.76,12.005 354.222,12.121 Q351.15,12.353 350.573,9.983 Q350.29,8.823 350.588,3.167 Q350.636,2.265 351.11,1.839 Q351.585,1.412 352.486,1.459 Q354.288,1.555 354.193,3.357 Q353.991,7.188 354.027,8.516 Q355.976,8.377 357.538,8.657 Q358.426,8.817 358.79,9.34 Q359.155,9.864 358.995,10.753 Q358.676,12.529 356.9,12.21 Z"/>
  <path fill="rgb(50.980392%, 57.647059%, 63.921569%)" opacity="0.913" d="M265.734,240.063 Q301.627,173.173 322.467,153.056 Q332.174,143.685 342.704,139.391 Q365.185,130.225 385.466,142.205 Q408.338,155.716 411.007,188.459 Q412.904,211.736 404.877,263.076 Q400.423,291.564 387.937,357.402 Q383.818,379.123 381.832,389.773 Q378.579,407.225 363.938,417.265 Q349.296,427.305 331.844,424.051 Q314.392,420.798 304.352,406.156 Q294.312,391.515 297.566,374.063 Q299.578,363.273 303.72,341.431 Q307.679,320.555 310.924,302.574 Q296.587,305.258 283.235,298.094 Q267.592,289.7 262.466,272.703 Q257.34,255.706 265.734,240.063 Z"/>
  <path fill="rgb(55.294118%, 61.568627%, 67.843137%)" opacity="0.987" d="M145.769,312.353 Q132.289,311.646 127.709,314.48 L127.923,314.736 Q125.981,320.5 127.905,330.521 Q130.6,344.563 139.754,358.003 Q161.992,390.652 202.992,395.337 Q264.11,402.321 345.116,344.416 Q356.716,336.124 370.605,332.903 Q384.495,329.681 398.56,332.02 Q412.625,334.359 424.725,341.903 Q436.824,349.446 445.116,361.046 Q453.407,372.645 456.629,386.535 Q459.85,400.425 457.511,414.49 Q455.172,428.555 447.628,440.654 Q440.085,452.754 428.485,461.045 Q302.62,551.016 186.717,537.773 Q133.295,531.669 88.894,503.835 Q48.285,478.377 21.265,438.708 Q-4.597,400.738 -12.888,357.548 Q-21.923,310.483 -7.939,268.971 Q8.717,219.523 52.266,192.573 Q94.996,166.129 153.278,169.187 Q167.517,169.933 180.386,176.072 Q193.255,182.211 202.795,192.808 Q212.336,203.404 217.094,216.845 Q221.853,230.286 221.106,244.524 Q220.36,258.763 214.221,271.632 Q208.082,284.501 197.485,294.041 Q186.889,303.582 173.448,308.341 Q160.007,313.099 145.769,312.353 Z"/>
  <path fill="rgb(84.705882%, 96.078431%, 83.921569%)" d="M42.525,186.39 Q74.853,179.88 127.482,171.503 Q141.6,169.255 150.969,167.651 Q128.047,164.523 82.063,159.71 Q78.466,159.333 76.856,157.346 Q75.246,155.36 75.623,151.763 Q76.376,144.569 83.569,145.322 Q132.588,150.453 153.887,153.53 Q178.633,157.105 183.184,161.12 Q188.226,165.569 185.162,171.28 Q183.694,174.018 180.142,175.708 Q176.755,177.32 169.15,178.984 Q160.197,180.944 129.756,185.789 Q77.419,194.12 45.381,200.571 Q41.836,201.285 39.706,199.87 Q37.576,198.454 36.862,194.908 Q36.148,191.363 37.564,189.233 Q38.98,187.104 42.525,186.39 Z"/>
  <path fill="rgb(63.137255%, 75.686275%, 40.784314%)" opacity="0.843" d="M295.036,164.712 Q276.833,154.409 269.475,149.572 Q265.725,147.106 264.285,145.705 Q262.679,144.142 262.442,142.401 Q262.089,139.815 264.148,138.228 Q265.225,137.398 266.671,137.261 Q270.001,136.945 296.24,147.105 Q312.789,153.512 322.38,156.819 Q319.252,154.632 315.227,151.966 Q311.671,149.61 314.027,146.055 Q315.204,144.277 316.682,143.977 Q318.16,143.677 319.937,144.855 Q335.298,155.031 338.996,159.336 Q340.403,160.974 340.807,162.498 Q341.764,166.108 338.656,168.038 Q336.438,169.414 331.941,168.558 Q325.081,167.252 299.704,157.574 Q302.81,159.635 300.848,163.101 Q298.748,166.812 295.036,164.712 Z"/>
  <path fill="rgb(80%, 85.882353%, 85.882353%)" opacity="0.826" d="M264.564,244.635 Q265.424,246.195 266.328,247.744 Q271.419,256.471 275.837,260.652 Q276.098,260.9 276.312,261.095 Q286.499,262.777 293.679,270.757 Q302.13,280.151 301.463,292.769 Q300.797,305.388 291.403,313.839 Q282.009,322.29 269.391,321.624 Q237.823,319.956 213.63,278.491 Q196.798,249.643 190.451,217.611 Q186.972,200.05 188.606,187.092 Q189.921,176.662 194.595,168.706 Q202.338,155.526 216.628,151.425 Q237.014,145.575 259.057,162.478 Q272.887,173.084 290.595,195.082 Q298.519,204.925 297.161,217.488 Q295.804,230.051 285.961,237.974 Q276.515,245.578 264.564,244.635 Z"/>
  <path fill="rgb(85.098039%, 91.372549%, 90.588235%)" opacity="0.004" d="M366.94,366.825 Q373.193,373.164 373.778,378.951 Q373.964,380.786 373.18,382.003 Q372.189,383.543 370.146,383.643 Q367.185,383.787 361.61,380.332 Q359.946,379.301 360.977,377.637 Q362.008,375.973 363.672,377.004 Q368.211,379.818 369.955,379.733 L369.884,379.345 Q369.438,374.931 364.154,369.574 Q362.779,368.18 364.173,366.806 Q365.566,365.432 366.94,366.825 Z"/>
  <path fill="rgb(67.058824%, 100%, 0%)" opacity="0.553" d="M146.954,134.18 Q157.351,109.264 160.412,97.083 Q138.149,114.978 62.631,202.797 Q59.807,206.081 56.753,206.311 Q53.698,206.541 50.414,203.717 Q43.846,198.069 49.494,191.5 Q131.665,95.944 153.289,80.756 Q162.784,74.087 169.459,75.514 Q179.782,77.721 178.952,91.146 Q178.129,104.46 162.944,140.852 Q159.608,148.847 151.613,145.511 Q143.618,142.175 146.954,134.18 Z"/>
</svg>

