<svg xmlns="http://www.w3.org/2000/svg" width="384" height="384" viewBox="0 0 384 384">
  <defs/>
  <path fill="rgb(9.411765%, 5.098039%, 1.960784%)" d="M182.557,206.79 Q166.576,194.937 158.072,187.303 Q144.694,175.294 147.431,167.338 Q150.298,159 160.251,160.548 Q163.387,161.035 167.919,162.846 Q175.8,165.993 186.09,172.09 Q212.412,187.684 219.528,200.468 Q222.752,206.26 221.877,211.667 Q220.754,218.607 213.974,222.231 Q205.558,226.729 185.811,225.025 Q176.474,224.219 177.28,214.882 Q177.683,210.213 180.219,208.08 Q181.221,207.237 182.557,206.79 Z"/>
  <path fill="rgb(0.392157%, 23.137255%, 66.666667%)" opacity="0.356" d="M303.871,391.879 Q288.616,401.783 277.059,408.497 Q263.108,416.602 247.512,412.468 Q231.916,408.335 223.812,394.384 Q215.707,380.433 219.84,364.837 Q223.974,349.241 237.925,341.136 Q261.761,327.288 305.487,296.648 Q333.041,277.34 343.632,271.028 Q354.431,264.591 362.601,261.772 Q388.46,252.851 407.223,268.899 Q427.076,285.878 420.562,314.211 Q418.318,323.974 411.718,337.703 Q401.248,359.479 374.52,402.318 Q365.979,416.007 350.261,419.647 Q334.542,423.287 320.854,414.747 Q307.777,406.588 303.871,391.879 Z"/>
  <path fill="rgb(0%, 7.058824%, 3.529412%)" opacity="0.908" d="M140.117,110.407 Q160.665,127.517 170.166,137.076 Q174.439,141.376 175.972,143.701 Q177.246,145.634 177.177,147.246 Q177.076,149.566 175.037,150.619 Q173.854,151.23 172.403,151.033 Q163.969,149.891 130.934,120.101 Q128.232,117.664 130.669,114.962 Q131.887,113.611 133.172,113.544 Q133.559,113.524 133.953,113.621 Q133.798,112.31 134.993,110.875 Q137.321,108.079 140.117,110.407 Z"/>
  <path fill="rgb(5.098039%, 20.784314%, 56.078431%)" opacity="0.206" d="M77.127,173.692 Q112.669,175.421 117.371,205.937 Q118.778,215.066 116.922,222.88 Q115.971,226.882 114.108,227.389 Q112.147,227.923 111.19,226.072 Q110.908,225.524 110.823,224.747 Q110.718,223.773 110.875,222.072 Q110.983,220.892 111.627,220.356 Q112.047,220.007 112.694,219.932 Q113.785,213.785 112.687,206.658 Q108.574,179.967 76.897,178.426 Q74.53,178.31 74.645,175.943 Q74.702,174.76 75.323,174.197 Q75.943,173.634 77.127,173.692 Z"/>
  <path fill="rgb(14.117647%, 7.058824%, 0%)" opacity="0.978" d="M201.877,174.406 Q182.961,158.748 147.617,131.865 Q140.151,126.186 145.83,118.719 Q148.67,114.986 151.956,114.539 Q155.243,114.092 158.976,116.932 Q196.006,145.097 215.311,161.173 Q225.427,169.598 227.152,172.342 Q229.367,175.866 228.433,179.782 Q227.229,184.831 222.32,186.529 Q220.152,187.28 217.845,186.962 Q215.854,186.687 213.469,185.41 Q211.203,184.197 206.553,181.106 Q202.141,178.173 201.877,174.406 Z"/>
  <path fill="rgb(32.156863%, 16.862745%, 7.058824%)" d="M237.577,168.417 Q239.473,167.469 240.907,166.57 Q234.444,158.891 237.899,154.542 Q241.337,150.214 247.605,153.848 Q253.538,157.287 252.291,163.394 Q251.01,169.67 240.766,174.794 Q237.578,176.388 235.984,173.2 Q234.389,170.012 237.577,168.417 Z"/>
  <path fill="rgb(70.196078%, 95.294118%, 82.745098%)" opacity="0.057" d="M275.902,119.478 Q256.525,124.303 248.776,123.871 Q241.73,123.479 238.519,118.081 Q237.672,116.658 224.498,119.494 Q219.156,120.645 218.006,115.303 Q217.431,112.632 218.479,111.009 Q219.526,109.385 222.197,108.81 Q234.565,106.148 240.008,107.045 Q245.176,107.896 247.911,112.493 Q249.306,114.838 273.262,108.873 Q275.913,108.213 277.569,109.209 Q279.225,110.204 279.885,112.856 Q281.205,118.158 275.902,119.478 Z"/>
  <path fill="rgb(16.862745%, 40.392157%, 72.941176%)" opacity="0.275" d="M296.384,335.671 Q279.563,333.981 275.011,328.247 Q270.789,322.928 276.561,317.704 Q281.884,312.886 286.438,315.166 Q291.847,317.874 286.845,328.455 Q286.117,329.995 284.577,329.267 Q283.037,328.539 283.765,326.999 Q287.343,319.429 284.913,318.212 Q282.443,316.976 278.847,320.23 Q275.442,323.311 277.679,326.129 Q281.336,330.736 296.725,332.282 Q298.42,332.452 298.25,334.147 Q298.079,335.842 296.384,335.671 Z"/>
  <path fill="rgb(53.72549%, 76.078431%, 79.607843%)" opacity="0.023" d="M316.775,14.729 Q322.253,15.321 330.317,15.964 Q331.304,16.042 331.758,16.575 Q332.213,17.108 332.134,18.095 Q331.977,20.068 330.003,19.911 Q304.065,17.845 304.094,14.849 Q304.113,12.876 306.8,12.627 Q307.793,12.535 309.278,12.581 Q312.746,12.688 315.258,13.318 Q316.219,13.558 316.579,14.159 Q316.73,14.412 316.775,14.729 Z"/>
  <path fill="rgb(27.45098%, 60.784314%, 50.980392%)" opacity="0.006" d="M11.37,360.818 Q11.787,354.332 14.302,346.777 Q11.854,347.51 10.942,344.977 Q10.461,343.642 10.888,342.734 Q11.316,341.825 12.651,341.344 Q18.299,339.311 20.105,341.528 Q21.507,343.25 19.877,348.016 Q17.421,355.197 17.036,361.182 Q16.854,364.015 14.021,363.833 Q12.604,363.742 11.942,362.988 Q11.279,362.235 11.37,360.818 Z"/>
  <path fill="rgb(12.54902%, 7.843137%, 3.921569%)" opacity="0.978" d="M84.003,100.293 Q111.91,120.618 143.57,144.328 Q147.367,144.694 150.428,147.316 Q168.398,162.704 169.703,166.036 Q173.043,174.567 165.999,180.41 Q161.083,184.489 154.868,182.959 Q153.155,182.537 151.552,181.638 Q150.853,181.246 149.942,180.621 Q148.924,179.924 146.896,178.429 Q144.435,176.615 135.878,170.189 Q100.148,143.354 69.106,120.746 Q64.87,117.661 64.056,112.484 Q63.243,107.307 66.328,103.071 Q69.413,98.835 74.59,98.021 Q79.767,97.207 84.003,100.293 Z"/>
  <path fill="rgb(63.137255%, 69.019608%, 55.294118%)" opacity="0.418" d="M206.367,118.412 Q205.896,119.366 205.203,120.769 Q208.267,120.378 210.803,122.315 Q213.613,124.462 211.466,127.272 Q209.32,130.082 206.51,127.935 Q205.344,127.045 200.986,131.061 Q199.743,132.207 199.128,132.536 Q198.082,133.095 196.949,132.972 Q194.328,132.687 193.805,130.092 Q193.589,129.018 194.039,127.736 Q194.46,126.541 198.212,118.951 Q199.355,116.64 200.024,115.283 Q201.588,112.112 204.76,113.676 Q207.931,115.241 206.367,118.412 Z"/>
  <path fill="rgb(86.666667%, 95.294118%, 93.333333%)" opacity="0.211" d="M211.727,146.341 Q218.558,151.508 228.156,158.373 Q230.876,160.319 231.263,162.651 Q231.65,164.983 229.705,167.703 Q225.814,173.142 220.375,169.252 Q184.829,143.826 182.183,135.571 Q181.014,131.926 182.975,128.923 Q184.954,125.892 188.775,125.533 Q191.473,125.28 195.496,126.731 Q201.598,128.932 211.38,134.806 Q217.113,138.249 213.671,143.982 Q212.776,145.471 211.727,146.341 Z"/>
  <path fill="rgb(36.862745%, 40.392157%, 48.235294%)" opacity="0.423" d="M228.664,243.295 Q239.559,264.617 243.145,273.688 Q248.696,287.733 246.087,295.664 Q242.695,305.973 228.731,307.937 Q222.866,308.761 205.605,308.501 Q186.174,308.209 173.577,308.688 Q163.451,309.074 163.065,298.948 Q162.68,288.822 172.806,288.437 Q185.94,287.937 205.91,288.237 Q221.6,288.473 225.909,287.867 Q226.361,287.804 226.735,287.741 Q225.295,281.241 210.617,252.517 Q206.006,243.494 215.03,238.883 Q224.053,234.272 228.664,243.295 Z"/>
  <path fill="rgb(15.294118%, 7.058824%, 1.960784%)" opacity="0.549" d="M160.409,326.098 Q161.201,332.01 152.821,352.369 Q139.278,385.269 130.709,414.509 Q130.061,416.723 128.629,417.505 Q127.198,418.288 124.984,417.639 Q120.556,416.341 121.853,411.913 Q130.558,382.207 144.287,348.856 Q151.726,330.784 151.263,327.324 Q150.65,322.75 155.223,322.138 Q157.51,321.831 158.807,322.821 Q160.103,323.812 160.409,326.098 Z"/>
  <path fill="rgb(7.45098%, 4.705882%, 0.392157%)" opacity="0.984" d="M83.414,79.958 Q83.548,78.883 84.128,77.647 Q86.492,72.603 91.536,74.968 Q111.455,84.305 125.364,94.624 Q138.515,104.382 139.365,110.087 Q140.164,115.444 135.097,117.107 Q132.881,117.834 129.96,117.027 Q126.369,116.035 120.395,112.451 Q106.732,104.255 85.287,85.857 Q82.054,83.083 83.414,79.958 Z"/>
  <path fill="rgb(63.529412%, 66.27451%, 100%)" opacity="0.041" d="M15.744,162.182 Q15.916,163.644 15.344,164.705 Q14.528,166.217 12.201,166.913 Q7.546,168.305 6.154,163.65 Q2.925,152.853 4.136,140.449 Q5.175,129.797 8.409,124.424 Q9.508,122.598 10.894,121.658 Q14.186,119.424 17.342,121.644 Q20.162,123.628 20.493,129.377 Q21.017,138.471 16.99,159.387 Q16.642,161.191 15.744,162.182 Z"/>
  <path fill="rgb(29.411765%, 62.352941%, 100%)" opacity="0.095" d="M210.827,-6.762 Q264.932,-3.318 379.031,-0.887 Q391.852,-0.614 400.725,8.645 Q409.598,17.904 409.325,30.726 Q409.052,43.547 399.792,52.42 Q390.533,61.293 377.712,61.02 Q191.523,57.053 155.482,49.492 Q137.792,45.781 128.65,37.649 Q116.393,26.745 116.861,10.802 Q117.227,-1.678 125.912,-11.711 Q135.232,-22.48 167.347,-36.606 Q179.086,-41.769 191.037,-37.12 Q202.989,-32.47 208.153,-20.731 Q211.208,-13.784 210.827,-6.762 Z"/>
  <path fill="rgb(67.843137%, 91.372549%, 82.352941%)" opacity="0.082" d="M0.244,355.879 Q-0.448,356.011 -1.878,356.474 Q-5.774,357.735 -7.322,356.975 Q-10.31,355.508 -7.969,349.536 Q-7.306,347.844 -5.614,348.507 Q-4.768,348.839 -4.511,349.428 Q-4.254,350.017 -4.585,350.863 Q-5.322,352.741 -5.395,353.699 Q-4.765,353.588 -2.997,353.016 Q-0.437,352.187 0.693,352.191 Q2.103,352.195 2.963,353.035 Q3.905,353.956 3.86,355.545 Q3.807,357.361 1.991,357.309 Q1.082,357.283 0.641,356.815 Q0.314,356.469 0.244,355.879 Z"/>
  <path fill="rgb(78.431373%, 100%, 100%)" opacity="0.096" d="M62.947,8.469 Q56.94,7.643 53.581,7.62 Q53.309,8.083 52.905,8.293 Q52.262,8.628 51.284,8.319 Q50.443,8.053 49.978,7.712 Q49.247,7.176 49.075,6.341 Q48.803,5.019 49.894,4.185 Q50.711,3.561 52.877,3.522 Q56.597,3.456 63.506,4.406 Q64.522,4.546 64.96,5.123 Q65.398,5.701 65.258,6.717 Q64.979,8.748 62.947,8.469 Z"/>
  <path fill="rgb(16.862745%, 5.882353%, 1.960784%)" opacity="0.384" d="M134.213,140.997 Q136.528,133.605 137.879,127.629 Q125.769,121.628 126.533,110.321 Q127.254,99.626 136.405,96.48 Q141.903,94.59 146.277,98.164 Q150.082,101.274 151.156,107.787 Q153.177,120.049 145.506,144.535 Q143.737,150.181 138.09,148.412 Q132.444,146.643 134.213,140.997 Z M139.755,114.67 Q139.835,111.871 139.479,109.711 Q139.348,108.918 139.218,108.385 Q138.464,109.284 138.34,111.118 Q138.211,113.035 139.755,114.67 Z"/>
  <path fill="rgb(88.235294%, 90.588235%, 92.941176%)" opacity="0.016" d="M226.901,57.855 Q224.543,60.26 221.74,59.636 Q221.173,59.509 220.449,60.311 Q219.13,61.772 217.669,60.453 Q216.939,59.793 216.903,59.098 Q216.868,58.403 217.527,57.673 Q219.789,55.168 222.595,55.793 Q223.264,55.942 224.091,55.098 Q224.78,54.396 225.476,54.389 Q226.172,54.382 226.874,55.071 Q228.28,56.45 226.901,57.855 Z"/>
  <path fill="rgb(16.470588%, 37.254902%, 75.686275%)" opacity="0.364" d="M68.445,182.749 Q68.875,182.303 69.315,181.864 Q78.146,173.049 89.678,168.285 Q101.209,163.521 113.686,163.532 Q126.163,163.543 137.686,168.329 Q149.209,173.114 158.023,181.944 Q166.838,190.775 171.602,202.306 Q176.366,213.838 176.355,226.315 Q176.343,238.792 171.558,250.315 Q157.916,283.166 139.063,332.983 Q124.544,371.349 118.773,383.426 Q111.016,399.658 101.757,409.523 Q88,424.181 69.271,429.067 Q38.977,436.971 13.724,418.247 Q-4.693,404.592 -12.929,378.919 Q-16.086,369.077 -19.029,353.54 Q-22.173,336.941 -29.86,284.082 Q-34.127,254.742 -36.688,237.613 Q-38.534,225.273 -35.516,213.166 Q-32.499,201.06 -25.078,191.029 Q-17.657,180.999 -6.963,174.572 Q3.731,168.145 16.071,166.3 Q28.411,164.455 40.517,167.472 Q52.624,170.49 62.654,177.91 Q65.718,180.177 68.445,182.749 Z"/>
  <path fill="rgb(76.470588%, 98.431373%, 69.019608%)" opacity="0.009" d="M369.59,337.645 Q370.877,331.957 374.897,332.08 Q376.903,332.142 378.03,333.987 Q379.022,335.611 378.826,338.07 Q378.689,339.779 376.981,339.642 Q375.272,339.506 375.409,337.797 Q375.517,336.448 375.105,335.774 Q374.944,335.511 374.792,335.507 Q373.597,335.47 372.934,338.402 Q372.555,340.073 370.884,339.695 Q369.212,339.317 369.59,337.645 Z"/>
  <path fill="rgb(29.019608%, 75.686275%, 100%)" opacity="0.063" d="M116.611,18.981 Q134.816,17.049 154.91,14.477 Q255.541,1.597 360.512,-22.507 Q374.949,-25.823 387.502,-17.958 Q400.056,-10.093 403.371,4.344 Q406.686,18.781 398.821,31.334 Q390.957,43.887 376.519,47.203 Q268.115,72.095 163.991,85.423 Q70.395,97.402 13.274,96.231 Q-17.387,95.602 -32.986,90.452 Q-53.135,83.799 -60.702,67.133 Q-67.501,52.158 -61.455,36.718 Q-57.923,27.697 -50.251,20.592 Q-28.379,0.333 73.471,-22.952 Q87.911,-26.254 100.457,-18.377 Q113.003,-10.501 116.304,3.94 Q118.087,11.736 116.611,18.981 Z"/>
  <path fill="rgb(9.803922%, 3.137255%, 1.176471%)" opacity="0.721" d="M209.56,217.837 Q242.184,241.379 262.595,256.348 Q270.791,262.36 274.871,265.418 Q276.761,266.835 277.5,267.419 Q278.038,267.844 278.25,268.086 Q278.496,268.368 278.655,268.701 Q278.987,269.398 278.893,270.163 Q278.685,271.847 277.067,272.357 Q276.045,272.68 275.067,272.193 Q274.893,272.106 274.654,271.953 Q267.425,267.332 191.519,211.318 Q189.396,209.752 190.963,207.629 Q192.53,205.506 194.653,207.072 Q201.892,212.414 208.506,217.289 Q209.013,217.443 209.56,217.837 Z"/>
  <path fill="rgb(80%, 100%, 77.254902%)" opacity="0.069" d="M352.092,241.564 Q349.26,249.287 344.811,248.422 Q341.318,247.743 332.447,257.777 Q330.467,260.016 328.227,258.036 Q325.988,256.056 327.968,253.817 Q338.576,241.818 345.293,242.458 Q345.726,241.559 346.479,239.506 Q347.508,236.7 350.314,237.729 Q353.121,238.758 352.092,241.564 Z"/>
  <path fill="rgb(34.117647%, 35.294118%, 34.117647%)" opacity="0.436" d="M232.089,198.627 Q214.373,190.96 202.687,179.683 Q202.55,179.774 202.387,179.857 Q201.622,180.244 201.047,180.055 Q200.471,179.866 200.084,179.101 Q198.708,176.38 197.519,174.174 Q195.494,171.782 193.704,169.249 Q191.935,166.748 191.355,165.307 Q190.54,163.283 192.129,162.538 Q193.387,161.949 194.662,163.325 Q196.742,165.57 200.351,172.213 Q212.491,186.411 233.45,195.482 Q235.023,196.163 234.342,197.735 Q234.002,198.522 233.439,198.745 Q232.875,198.967 232.089,198.627 Z"/>
  <path fill="rgb(77.254902%, 77.647059%, 77.254902%)" opacity="0.901" d="M210.757,209.976 Q228.446,218.392 238.439,219.438 Q242.118,219.822 243.433,219.122 L243.337,219.048 Q242.748,214.241 231.281,203.854 Q217.449,191.324 192.46,175.898 Q190.701,174.812 190.364,173.389 Q190.027,171.966 191.113,170.206 Q193.286,166.687 196.805,168.859 Q249.506,201.392 251.548,218.042 Q252.253,223.797 247.32,226.424 Q243.772,228.312 237.579,227.665 Q226.174,226.472 207.204,217.446 Q203.469,215.669 205.246,211.934 Q207.023,208.199 210.757,209.976 Z"/>
  <path fill="rgb(55.686275%, 63.921569%, 89.411765%)" opacity="0.048" d="M168.372,4.028 Q180.245,7.709 181.404,12.656 Q182.667,18.042 176.513,20.088 Q173.878,20.964 169.235,21.117 Q147.886,21.823 103.876,10.678 Q99.127,9.476 100.33,4.727 Q100.931,2.353 102.419,1.467 Q103.906,0.58 106.281,1.181 Q142.538,10.363 162.402,11.266 Q161.485,9.702 162.243,7.257 Q162.969,4.917 164.501,4.11 Q166.033,3.303 168.372,4.028 Z"/>
  <path fill="rgb(51.764706%, 62.352941%, 60%)" opacity="0.009" d="M17.167,168.779 Q16.828,165.274 16.062,162.611 Q15.261,159.826 15.32,156.079 Q15.346,154.363 17.062,154.39 Q17.92,154.403 18.342,154.839 Q18.764,155.274 18.751,156.132 Q18.7,159.368 19.36,161.663 Q20.213,164.629 20.583,168.448 Q20.665,169.302 20.28,169.77 Q19.894,170.238 19.04,170.321 Q17.333,170.486 17.167,168.779 Z"/>
  <path fill="rgb(7.058824%, 3.529412%, 1.176471%)" opacity="0.984" d="M313.034,283.531 Q293.454,266.097 241.249,229.14 Q228.599,220.185 221.185,214.927 Q215.851,211.145 214.755,204.699 Q213.658,198.253 217.44,192.919 Q221.223,187.586 227.669,186.489 Q234.114,185.392 239.448,189.175 Q246.842,194.418 259.49,203.372 Q313.133,241.347 334.029,259.953 Q338.912,264.301 339.29,270.829 Q339.669,277.356 335.32,282.24 Q330.972,287.123 324.445,287.501 Q317.917,287.88 313.034,283.531 Z"/>
  <path fill="rgb(100%, 26.666667%, 0%)" opacity="0.524" d="M239.286,416.967 Q201.754,396.003 182.918,383.148 Q161.379,368.447 156.405,357.327 Q153.254,350.281 154.31,343.019 Q155.567,334.386 162.079,328.413 Q168.306,322.701 178.521,320.986 Q185.294,319.849 202.027,320.031 Q213.042,320.151 217.801,319.882 Q226.791,319.374 233.507,325.372 Q240.223,331.369 240.731,340.359 Q241.239,349.349 235.242,356.065 Q232.483,359.155 229.091,360.931 Q242.425,368.921 260.487,379.01 Q268.349,383.401 270.802,392.064 Q273.256,400.728 268.865,408.589 Q264.475,416.45 255.811,418.904 Q247.147,421.358 239.286,416.967 Z"/>
  <path fill="rgb(15.294118%, 57.254902%, 100%)" opacity="0.109" d="M197.694,53.984 Q247.613,62.215 281.829,57.123 Q297.361,54.812 312.801,48.095 Q378.534,19.499 410.634,74.7 Q422.618,95.309 420.056,121.77 Q419.574,126.745 417.782,137.959 Q412.405,171.61 410.112,205.091 Q409.171,218.833 403.042,231.169 Q396.914,243.504 386.532,252.556 Q376.149,261.607 363.093,265.996 Q350.037,270.385 336.295,269.444 Q322.554,268.503 310.218,262.374 Q297.882,256.246 288.831,245.864 Q279.78,235.481 275.391,222.425 Q271.234,210.06 271.858,197.079 Q227.764,199.305 175.165,190.633 Q161.574,188.392 149.876,181.121 Q138.177,173.85 130.152,162.656 Q122.126,151.461 118.996,138.048 Q115.865,124.634 118.106,111.044 Q120.346,97.453 127.617,85.755 Q134.888,74.056 146.083,66.031 Q157.277,58.005 170.69,54.874 Q184.104,51.744 197.694,53.984 Z"/>
  <path fill="rgb(15.686275%, 12.941176%, 9.411765%)" opacity="0.799" d="M106.189,67.092 Q134.318,87.544 148.855,105.129 Q166.446,126.407 158.105,138.77 Q148.762,152.621 123.163,139.058 Q103.291,128.529 76.291,103.949 Q72.708,100.686 72.48,95.845 Q72.253,91.004 75.516,87.42 Q78.779,83.836 83.62,83.609 Q88.461,83.382 92.045,86.645 Q109.621,102.646 123.407,111.901 Q111.515,99.897 92.428,86.018 Q88.508,83.168 87.752,78.381 Q86.995,73.594 89.845,69.674 Q92.696,65.754 97.483,64.998 Q102.27,64.241 106.189,67.092 Z"/>
  <path fill="rgb(16.078431%, 13.333333%, 12.156863%)" opacity="0.79" d="M249.967,219.535 Q196.064,178.214 155.663,166.347 Q152.985,165.56 151.962,165.181 Q144.444,162.397 143.767,155.186 Q143.002,147.034 151.124,143.367 Q152.121,142.917 154.687,141.984 Q158.105,140.742 160.446,139.792 Q164.69,138.069 168.91,139.852 Q173.13,141.635 174.853,145.879 Q175.651,147.844 175.697,149.804 Q214.954,164.824 263.424,201.981 Q267.059,204.768 267.66,209.309 Q268.26,213.851 265.473,217.486 Q262.686,221.122 258.144,221.722 Q253.602,222.322 249.967,219.535 Z"/>
  <path fill="rgb(66.666667%, 89.411765%, 100%)" opacity="0.092" d="M173.617,14.106 Q138.278,6.977 123.449,13.425 Q113.973,17.545 117.515,26.492 Q121.912,37.603 137.842,45.579 Q155.876,54.608 175.562,51.551 Q180.445,50.792 181.203,55.675 Q181.582,58.117 180.551,59.527 Q179.52,60.937 177.079,61.317 Q154.273,64.859 133.417,54.416 Q114.112,44.75 108.325,30.13 Q105.176,22.174 107.868,15.399 Q110.739,8.174 119.508,4.361 Q137.187,-3.325 175.571,4.418 Q180.415,5.395 179.438,10.239 Q178.949,12.661 177.494,13.627 Q176.039,14.594 173.617,14.106 Z"/>
  <path fill="rgb(61.960784%, 76.470588%, 96.862745%)" opacity="0.288" d="M103.041,143.605 Q118.889,159.054 132.277,175.537 Q144.581,190.686 147.787,197.869 Q149.747,202.259 148.978,206.081 Q147.572,213.072 140.641,214.606 Q137.205,215.367 133.75,213.965 Q130.092,212.482 123.859,206.537 Q112.004,195.231 88.178,167.047 Q84.778,163.025 85.089,159.313 Q85.228,157.652 86.111,156.053 Q82.108,149.988 88.144,143.795 Q95.497,136.252 103.041,143.605 Z"/>
  <path fill="rgb(10.196078%, 3.137255%, 7.45098%)" opacity="0.361" d="M144.17,312.731 Q144.923,312.911 146.265,313.24 Q152.155,314.685 153.078,314.084 Q154.241,313.326 157.563,305.492 Q162.321,294.271 166.884,285.159 Q167.889,283.153 169.895,284.157 Q171.902,285.162 170.897,287.169 Q166.398,296.154 161.696,307.244 Q157.839,316.339 155.528,317.845 Q152.975,319.507 145.196,317.6 Q143.865,317.273 143.126,317.097 Q142.035,316.836 141.62,316.16 Q141.205,315.483 141.466,314.392 Q141.988,312.209 144.17,312.731 Z"/>
  <path fill="rgb(41.960784%, 39.215686%, 27.843137%)" opacity="0.447" d="M98.397,67.923 Q97.48,65.832 96.108,62.219 Q94.572,58.175 93.881,57.149 Q93.368,57.431 92.5,58.206 Q87.998,62.222 63.284,96.754 Q57.064,105.445 53.518,110.386 Q52.661,111.581 51.635,111.749 Q50.609,111.918 49.414,111.061 Q47.026,109.346 48.74,106.957 Q52.278,102.027 58.502,93.331 Q83.596,58.268 88.585,53.817 Q93.784,49.18 97.52,52.441 Q99.263,53.962 101.606,60.131 Q102.925,63.606 103.783,65.562 Q104.964,68.255 102.271,69.435 Q99.577,70.616 98.397,67.923 Z"/>
  <path fill="rgb(29.803922%, 19.215686%, 18.823529%)" opacity="0.364" d="M220.211,287.448 Q234.274,304.273 238.839,314.676 Q241.46,313.958 244.756,313.47 Q247.904,313.004 248.37,316.151 Q248.603,317.725 247.933,318.628 Q247.263,319.531 245.689,319.765 Q242.857,320.184 240.777,320.669 Q241.264,323.438 240.654,325.471 Q239.508,329.294 235.745,329.645 Q232.792,329.92 230.57,327.74 Q228.003,325.221 228.918,321.869 Q229.69,319.045 232.945,317.066 Q228.774,307.615 215.328,291.529 Q213.288,289.088 215.729,287.047 Q218.17,285.007 220.211,287.448 Z M235.147,323.31 Q235.089,323.427 235.057,323.545 L235.154,323.309 L235.147,323.31 Z"/>
  <path fill="rgb(86.666667%, 91.372549%, 100%)" opacity="0.16" d="M345.625,69.158 Q343.076,46.617 337.045,30.564 Q332.002,17.14 340.949,9.492 Q351.282,0.658 363.995,10.46 Q378.81,21.882 402.722,30.595 Q409.116,32.925 411.99,39.093 Q414.863,45.262 412.534,51.656 Q410.204,58.049 404.035,60.923 Q397.867,63.797 391.473,61.467 Q383.881,58.701 376.977,55.649 Q377.705,60.437 378.274,65.467 Q379.038,72.229 374.798,77.551 Q370.557,82.873 363.795,83.637 Q357.033,84.402 351.711,80.161 Q346.389,75.92 345.625,69.158 Z"/>
  <path fill="rgb(11.372549%, 34.901961%, 100%)" opacity="0.034" d="M52.295,134.157 Q60.286,130.349 69.124,128.897 Q78.085,127.424 85.463,132.719 Q92.841,138.014 94.314,146.975 Q95.787,155.937 90.492,163.315 Q85.197,170.693 76.236,172.166 Q69.564,173.262 63.456,179.548 Q59.323,183.8 56.17,185.731 Q49.176,190.014 41.274,189.16 Q31.451,188.098 25.321,180.115 Q20.601,173.967 17.529,155.27 Q16.057,146.308 21.352,138.93 Q26.648,131.552 35.609,130.08 Q44.571,128.608 51.949,133.903 Q52.124,134.029 52.295,134.157 Z"/>
  <path fill="rgb(36.862745%, 49.803922%, 62.352941%)" opacity="0.025" d="M88.38,5.182 Q88.954,4.858 89.868,4.939 Q97.816,5.648 99.01,6.964 Q99.901,7.946 99.557,9.202 Q99.316,10.086 98.512,10.613 Q97.991,10.955 97.149,11.142 Q96.097,11.376 94.363,11.456 Q90.422,11.64 87.686,11.037 Q85.578,10.573 84.694,9.512 Q82.809,7.249 85.392,5.096 Q87.013,3.745 88.38,5.182 Z"/>
  <path fill="rgb(9.019608%, 27.843137%, 5.490196%)" opacity="0.026" d="M179.726,237.715 Q178.689,254.771 171.655,273.696 Q170.927,275.653 170.464,277.002 Q177.53,277.712 200.607,277.559 Q212.456,277.48 219.572,277.467 Q227.3,277.452 227.315,285.181 Q227.329,292.91 219.6,292.924 Q212.523,292.937 200.71,293.016 Q167.97,293.234 162.049,290.9 Q153.749,287.63 154.215,279.001 Q154.388,275.784 157.166,268.311 Q163.4,251.539 164.297,236.777 Q164.532,232.92 166.578,231.109 Q168.624,229.297 172.481,229.532 Q180.195,230.001 179.726,237.715 Z"/>
</svg>

