<svg xmlns="http://www.w3.org/2000/svg" width="384" height="384" viewBox="0 0 384 384">
  <defs/>
  <path fill="rgb(100%, 30.588235%, 0%)" opacity="0.922" d="M235.134,240.133 Q205.763,241.541 194.125,234.512 Q185.923,229.559 181.508,215.161 Q177.143,200.929 168.727,193.918 Q153.156,180.945 114.093,173.441 Q111.354,172.915 110.248,171.283 Q109.142,169.651 109.668,166.913 Q110.72,161.436 116.197,162.488 Q158.085,170.535 175.866,185.348 Q186.833,194.485 192.171,211.891 Q195.337,222.214 199.891,224.965 Q208.622,230.238 234.6,228.992 Q240.17,228.725 240.438,234.295 Q240.705,239.866 235.134,240.133 Z"/>
  <path fill="rgb(39.607843%, 54.117647%, 28.235294%)" opacity="0.792" d="M208.485,388.5 Q194.067,389.925 175.188,391.847 Q145.133,394.906 126.914,396.745 Q120.949,397.347 116.306,393.554 Q111.662,389.762 111.06,383.797 Q110.458,377.832 114.25,373.188 Q118.043,368.545 124.008,367.943 Q142.203,366.107 172.257,363.048 Q245.548,355.588 253.911,355.449 Q256.349,355.408 258.038,355.612 Q260.29,355.885 262.239,356.671 Q271.529,360.42 271.468,370.349 Q271.401,381.211 258.8,385.248 Q254.975,386.474 239.26,390.449 Q229.636,392.884 224.094,394.317 Q218.29,395.819 213.124,392.777 Q210.229,391.072 208.485,388.5 Z"/>
  <path fill="rgb(54.509804%, 52.941176%, 50.196078%)" opacity="0.894" d="M15.425,90.877 Q18.761,89.97 21.81,89.328 Q18.799,78.677 17.815,63.211 Q17.514,58.478 20.648,54.918 Q23.782,51.359 28.516,51.058 Q33.249,50.757 36.808,53.891 Q40.368,57.025 40.669,61.758 Q41.757,78.867 45.463,87.609 Q46.367,89.743 47.193,90.822 L47.164,90.838 Q55.462,97.573 49.528,106.283 Q44.82,113.193 36.654,110.778 Q33.231,109.766 21.434,112.974 Q16.858,114.219 12.742,111.863 Q8.626,109.507 7.381,104.931 Q6.137,100.354 8.492,96.238 Q10.848,92.122 15.425,90.877 Z"/>
  <path fill="rgb(65.098039%, 37.647059%, 61.568627%)" opacity="0.202" d="M-11.832,41.647 Q-7.038,-16.162 2.959,-35.98 Q7.197,-44.383 13.418,-49.269 Q24.041,-57.612 36.977,-55.102 Q51.717,-52.243 61.675,-35.103 Q79.842,-3.836 96.279,91.642 Q97.98,101.527 92.194,109.72 Q86.407,117.913 76.522,119.615 Q66.637,121.316 58.444,115.53 Q50.251,109.743 48.549,99.858 Q42.607,65.341 36.849,40.789 Q36.639,43.171 36.434,45.65 Q35.605,55.646 27.95,62.128 Q20.295,68.61 10.299,67.781 Q0.303,66.952 -6.179,59.298 Q-12.661,51.643 -11.832,41.647 Z"/>
  <path fill="rgb(14.509804%, 6.27451%, 44.705882%)" opacity="0.572" d="M142.489,189.543 Q142.416,189.576 142.336,189.613 Q138.926,191.2 133.123,196.866 Q115.819,213.76 86.736,257.914 Q84.056,261.981 79.989,259.302 Q77.955,257.962 77.608,256.276 Q77.261,254.589 78.6,252.555 Q108.262,207.523 126.318,189.895 Q133.31,183.069 138.226,180.781 Q144.686,177.775 148.185,181.715 Q151.419,185.356 147.778,188.591 Q145.016,191.044 142.489,189.543 Z"/>
  <path fill="rgb(33.333333%, 54.509804%, 31.372549%)" opacity="0.734" d="M45.225,394.779 Q-11.422,382.711 -27.087,385.985 Q-28.072,386.191 -28.705,386.388 Q-28.525,388.586 -26.472,393.982 Q-24.4,399.428 -26.786,404.745 Q-29.172,410.061 -34.619,412.134 Q-40.065,414.206 -45.382,411.82 Q-50.698,409.434 -52.77,403.987 Q-59.002,387.606 -55.367,376.548 Q-50.637,362.163 -32.844,358.444 Q-11.367,353.954 51.088,367.26 Q56.787,368.474 59.959,373.363 Q63.13,378.252 61.916,383.951 Q60.702,389.651 55.813,392.822 Q50.924,395.994 45.225,394.779 Z"/>
  <path fill="rgb(30.588235%, 37.254902%, 23.137255%)" opacity="0.755" d="M238.008,149.803 Q231.501,154.772 225.963,152.764 Q221.572,151.173 219.458,145.77 Q219.237,146.532 219.014,147.3 Q217.434,152.759 211.974,151.179 Q206.514,149.598 208.095,144.138 Q214.762,121.114 216.677,117.676 Q219.547,112.528 224.458,114.521 Q227.725,115.846 228.307,119.941 Q228.516,121.417 228.552,126.12 Q228.636,137.292 229.85,141.076 Q229.929,141.322 230.006,141.531 Q230.493,141.238 231.109,140.768 Q235.627,137.318 239.076,141.836 Q240.801,144.094 240.534,146.086 Q240.267,148.078 238.008,149.803 Z"/>
  <path fill="rgb(26.27451%, 24.705882%, 16.862745%)" opacity="0.662" d="M262.522,232.805 Q259.358,195.508 263.355,172.23 Q267.348,148.976 279.21,136.174 Q278.948,133.365 279.239,130.388 Q280.393,118.598 289.545,111.076 Q298.697,103.555 310.487,104.708 Q322.277,105.862 329.799,115.014 Q336.082,122.659 343.243,131.034 Q349.276,138.09 351.087,141.556 Q353.209,145.615 353.985,150.074 Q356.679,165.544 345.129,176.147 Q333.879,186.474 319.539,183.07 Q317.062,199.036 319.517,227.969 Q320.518,239.773 312.88,248.827 Q305.242,257.882 293.438,258.884 Q281.634,259.885 272.579,252.247 Q263.524,244.609 262.522,232.805 Z"/>
  <path fill="rgb(52.941176%, 56.078431%, 47.058824%)" opacity="0.945" d="M158.785,111.302 Q167.36,141.734 143.472,158.009 Q126.243,169.747 101.632,167.98 Q90.7,167.195 83.031,163.514 Q70.836,157.661 70.155,146.598 Q68.979,127.479 109.068,113.697 Q113.721,112.097 118.142,114.256 Q122.563,116.415 124.163,121.068 Q125.762,125.721 123.603,130.142 Q121.444,134.563 116.792,136.163 Q105.413,140.075 98.97,143.771 Q100.959,144.114 103.334,144.285 Q119.699,145.46 130.096,138.376 Q139.858,131.725 135.919,117.745 Q134.584,113.009 136.989,108.717 Q139.394,104.425 144.13,103.09 Q148.866,101.756 153.158,104.161 Q157.45,106.566 158.785,111.302 Z"/>
  <path fill="rgb(20.392157%, 67.843137%, 94.509804%)" opacity="0.102" d="M105.153,309.219 Q103.717,309.581 101.988,310.093 Q99.033,310.968 97.348,311.705 Q97.776,312.321 97.519,313.349 Q97.278,314.312 96.676,314.673 Q96.075,315.033 95.112,314.793 Q92.244,314.075 92,312.133 Q91.774,310.336 93.966,308.985 Q96.019,307.72 100.862,306.287 Q104.652,305.165 107.191,304.705 Q107.781,304.599 108.099,304.587 Q109.318,304.542 109.941,305.508 Q110.859,306.931 109.597,308.076 Q109.393,308.261 109.131,308.397 Q108.62,308.665 106.606,309.234 Q105.738,309.48 105.153,309.219 Z"/>
  <path fill="rgb(34.117647%, 24.705882%, 31.372549%)" opacity="0.405" d="M369.882,90.473 Q349.501,83.552 330.397,78.112 Q330.82,85.543 328.777,92.78 Q326.354,101.361 320.831,108.363 Q315.308,115.364 307.526,119.719 Q299.745,124.074 290.889,125.119 Q192.709,136.71 135.193,115.572 Q101.969,103.363 86.937,80.903 Q75.899,64.41 76.198,45.406 Q76.499,26.295 88.158,10.171 Q117.573,-30.508 203.032,-31.505 Q286.653,-32.48 398.712,5.574 Q407.156,8.441 413.86,14.321 Q420.564,20.202 424.507,28.2 Q428.45,36.198 429.032,45.097 Q429.614,53.995 426.747,62.439 Q423.879,70.883 417.999,77.586 Q412.118,84.29 404.12,88.233 Q396.122,92.176 387.224,92.759 Q378.325,93.341 369.882,90.473 Z"/>
  <path fill="rgb(41.960784%, 66.27451%, 83.921569%)" opacity="0.853" d="M49.903,300.45 Q51.289,297.915 52.918,295.071 Q73.212,259.659 114.467,205.65 Q119.778,198.698 127.344,194.307 Q134.911,189.916 143.582,188.755 Q152.253,187.595 160.708,189.84 Q169.164,192.086 176.116,197.397 Q183.068,202.707 187.459,210.274 Q191.849,217.841 193.01,226.512 Q194.171,235.183 191.925,243.638 Q189.68,252.093 184.369,259.046 Q146.641,308.436 129.238,338.806 Q126.845,342.982 125.849,344.87 Q125.319,346.157 124.796,347.312 Q121.459,354.673 116.22,360.15 Q111.413,365.174 105.294,368.471 Q97.359,372.746 88.381,373.555 Q72.816,374.959 59.855,366.226 Q43.337,355.096 40.805,335.34 Q40.138,330.135 40.713,324.917 Q41.216,320.36 42.655,315.971 Q43.208,314.284 43.934,312.529 Q44.382,311.444 44.937,310.226 Q46.824,304.983 49.903,300.45 Z"/>
  <path fill="rgb(51.764706%, 31.764706%, 0%)" opacity="0.501" d="M234.924,292.882 Q284.531,328.057 299.051,331.857 Q299.841,331.516 300.841,331.538 Q301.669,331.556 302.311,331.931 Q303.75,332.773 303.266,334.236 Q302.71,335.917 300.033,335.547 Q299.619,336.421 299.524,338.564 Q299.448,340.268 297.745,340.192 Q296.893,340.154 296.486,339.709 Q296.079,339.264 296.117,338.413 Q296.215,336.211 296.722,334.715 Q280.596,329.448 232.951,295.665 Q231.56,294.678 232.546,293.287 Q233.533,291.896 234.924,292.882 Z"/>
  <path fill="rgb(32.941176%, 29.411765%, 27.843137%)" opacity="0.591" d="M191.699,171.043 Q184.611,185.705 189.581,191.761 Q194.194,197.383 205.511,197.256 Q210.723,197.197 214.698,195.624 Q216.365,194.965 217.165,194.398 Q215.836,191.385 210.593,186.874 Q206.194,183.089 205.76,177.303 Q205.325,171.516 209.11,167.117 Q212.895,162.717 218.682,162.283 Q224.469,161.849 228.868,165.634 Q240.493,175.636 243.979,186.139 Q248.143,198.686 241.145,209.275 Q230.754,224.994 205.826,225.274 Q181.064,225.553 167.92,209.536 Q151.588,189.635 166.473,158.847 Q168.998,153.623 174.479,151.714 Q179.959,149.806 185.184,152.332 Q190.409,154.858 192.317,160.338 Q194.225,165.819 191.699,171.043 Z"/>
  <path fill="rgb(36.862745%, 36.078431%, 32.156863%)" opacity="0.66" d="M80.421,77.188 Q80.676,77.136 80.925,77.084 Q80.932,76.74 80.958,76.402 Q81.557,68.624 88.94,66.607 Q93.804,65.278 98.447,67.809 Q104.633,71.181 104.428,77.705 Q104.304,81.655 101.509,84.718 Q109.458,94.515 128.345,109.826 Q134.499,114.815 129.51,120.97 Q127.015,124.047 124.229,124.338 Q121.444,124.629 118.366,122.135 Q95.986,103.992 87.075,91.921 Q85.4,92.347 83.564,92.718 Q75.798,94.29 74.227,86.525 Q72.656,78.759 80.421,77.188 Z"/>
  <path fill="rgb(47.058824%, 43.921569%, 42.745098%)" opacity="0.548" d="M231.778,140.665 Q237.255,108.967 255.759,87.863 Q275.736,65.08 297.214,68.14 Q311.412,70.163 318.614,82.956 Q324.4,93.234 323.506,108.571 Q321.857,136.87 297.83,181.264 Q294.475,187.464 287.718,189.475 Q280.962,191.486 274.763,188.131 Q268.564,184.775 266.553,178.019 Q264.542,171.263 267.897,165.064 Q288.319,127.33 289.528,106.591 Q289.641,104.644 289.597,103.196 Q285.559,105.503 281.351,110.302 Q269.163,124.203 265.316,146.461 Q264.116,153.407 258.355,157.469 Q252.595,161.532 245.649,160.332 Q238.703,159.131 234.64,153.371 Q230.577,147.611 231.778,140.665 Z"/>
  <path fill="rgb(74.901961%, 81.960784%, 66.27451%)" opacity="0.192" d="M265.962,278.047 Q276.468,277.801 279.37,278.418 Q280.583,278.676 281.217,279.288 Q282.242,280.279 281.908,281.641 Q281.695,282.51 280.936,283.088 Q280.096,283.727 277.873,284.212 Q267.478,286.48 256.038,285.619 Q253.748,285.446 253.92,283.156 Q254.093,280.865 256.384,281.037 Q260.174,281.323 263.837,281.245 Q263.73,280.871 263.719,280.398 Q263.665,278.101 265.962,278.047 Z"/>
  <path fill="rgb(84.705882%, 62.352941%, 52.941176%)" d="M256.581,234.206 Q252.713,360.277 216.878,416.431 Q196.273,448.721 165.525,459.903 Q135.699,470.749 104.798,459.496 Q81.664,451.071 63.612,432.1 Q46.165,413.765 39.575,392.235 Q34.979,377.217 36.681,362.835 Q39.241,341.211 54.467,326.372 Q79.627,301.851 121.302,310.89 Q130.876,312.966 138.926,318.548 Q143.935,322.022 147.879,326.523 Q156.303,290.748 158.13,231.185 Q158.431,221.394 162.455,212.462 Q166.48,203.531 173.616,196.82 Q180.752,190.109 189.913,186.639 Q199.074,183.17 208.866,183.47 Q218.657,183.77 227.588,187.795 Q236.52,191.82 243.231,198.956 Q249.942,206.092 253.412,215.253 Q256.881,224.414 256.581,234.206 Z"/>
  <path fill="rgb(29.803922%, 32.941176%, 28.627451%)" opacity="0.38" d="M322.177,117.094 Q312.09,109.163 294.035,105.692 Q276.785,102.376 263.597,105.014 Q258.242,106.085 255.739,107.833 Q255.498,108.001 255.339,108.131 Q255.647,109.169 257.491,111.522 Q261.709,116.907 271.421,123.656 Q280.03,129.64 274.047,138.249 Q268.064,146.858 259.454,140.875 Q233.212,122.637 234.362,106.249 Q235.555,89.239 259.484,84.453 Q276.705,81.008 297.994,85.101 Q321.047,89.533 335.136,100.61 Q339.257,103.849 339.698,107.53 Q340.138,111.21 336.898,115.331 Q330.419,123.573 322.177,117.094 Z"/>
  <path fill="rgb(24.313725%, 25.490196%, 100%)" opacity="0.412" d="M2.444,190.063 Q64.955,170.174 75.526,170.152 Q79.269,170.144 80.634,171.835 Q82.065,173.607 80.78,176.634 Q79.53,179.582 72.218,188.788 Q67.418,194.832 64.85,198.3 Q64.366,198.954 63.798,199.039 Q63.229,199.123 62.575,198.639 Q61.268,197.671 62.236,196.364 Q64.836,192.852 69.67,186.765 Q76.707,177.904 77.786,175.363 Q78.308,174.133 78.102,173.878 Q77.717,173.401 75.533,173.405 Q65.464,173.426 3.431,193.163 Q1.881,193.657 1.387,192.107 Q1.141,191.331 1.405,190.821 Q1.669,190.31 2.444,190.063 Z"/>
  <path fill="rgb(75.294118%, 64.705882%, 76.862745%)" opacity="0.361" d="M-7.38,-14.544 Q150.835,-12.555 234.522,2.472 Q242.5,3.904 244.996,4.211 Q249.558,2.937 271.627,-5.823 Q295.651,-15.358 313.253,-22.062 Q322.426,-25.556 332.237,-25.273 Q342.048,-24.991 351.004,-20.975 Q359.96,-16.96 366.698,-9.822 Q373.436,-2.685 376.929,6.487 Q380.423,15.66 380.14,25.471 Q379.858,35.282 375.842,44.238 Q371.827,53.195 364.689,59.932 Q357.552,66.67 348.38,70.164 Q331.419,76.624 308.035,85.905 Q273.987,99.419 260.914,101.664 Q244.367,104.506 217.08,99.607 Q141.43,86.023 -8.62,84.137 Q-18.435,84.014 -27.455,80.144 Q-36.475,76.274 -43.327,69.247 Q-50.18,62.22 -53.822,53.106 Q-57.464,43.991 -57.34,34.177 Q-57.217,24.362 -53.347,15.342 Q-49.478,6.322 -42.451,-0.531 Q-35.423,-7.383 -26.309,-11.025 Q-17.194,-14.667 -7.38,-14.544 Z"/>
  <path fill="rgb(34.901961%, 51.764706%, 19.215686%)" opacity="0.767" d="M412.198,292.374 Q406.068,365.435 398.86,397.344 Q393.657,420.378 385.205,433.62 Q375.393,448.995 359.905,456.005 Q337.261,466.254 314.467,455.776 Q295.723,447.16 282.511,423.989 Q275.932,412.45 268.256,393.331 Q259.565,371.683 238.115,308.762 Q235.724,301.745 234.496,298.15 Q231.307,288.803 231.936,278.947 Q232.566,269.092 236.919,260.227 Q241.273,251.363 248.687,244.839 Q256.102,238.315 265.448,235.125 Q274.795,231.935 284.65,232.565 Q294.506,233.195 303.371,237.548 Q312.235,241.902 318.759,249.316 Q321.877,252.86 324.234,256.845 Q327.119,253.308 330.673,250.303 Q338.216,243.928 347.624,240.925 Q357.032,237.922 366.874,238.747 Q376.715,239.573 385.491,244.102 Q394.267,248.631 400.642,256.173 Q407.017,263.716 410.02,273.124 Q413.024,282.532 412.198,292.374 Z"/>
  <path fill="rgb(49.411765%, 64.313725%, 49.019608%)" d="M57.984,400.246 Q49.181,399.773 44.966,399.215 Q41.475,398.753 39.226,397.92 Q32.988,395.607 30.408,389.722 Q27.176,382.347 31.564,375.587 Q33.518,372.577 36.663,370.736 Q41.536,367.883 65.911,366.274 Q106.022,363.625 231.82,359.102 Q237.947,358.882 242.435,363.059 Q246.924,367.235 247.144,373.363 Q247.364,379.49 243.188,383.978 Q239.011,388.467 232.883,388.687 Q110.017,393.104 69.469,395.709 Q69.086,396.102 68.668,396.478 Q64.106,400.574 57.984,400.246 Z"/>
  <path fill="rgb(37.254902%, 34.509804%, 33.72549%)" opacity="0.886" d="M368.625,91.88 Q366.046,101.351 364.011,109.079 Q367.79,103.26 372.411,96.081 Q379.611,84.898 383.622,78.7 Q386.366,74.46 389.857,73.712 Q393.349,72.964 397.589,75.708 Q406.069,81.195 400.581,89.675 Q396.578,95.861 389.397,107.016 Q371.871,134.239 366.141,142.398 Q361.437,149.095 358.436,152.399 Q351.948,159.543 345.23,158.352 Q335.288,156.59 335.797,144.165 Q335.976,139.778 337.672,131.649 Q340.329,118.913 349.133,86.573 Q351.786,76.828 361.532,79.481 Q371.278,82.134 368.625,91.88 Z"/>
  <path fill="rgb(70.196078%, 57.254902%, 72.156863%)" opacity="0.076" d="M285.835,47.365 Q284.407,46.621 283.022,45.899 Q282.545,47.129 281.583,48.431 Q277.086,54.522 270.995,50.025 Q265.666,46.09 255.781,38.938 Q243.696,30.195 239.991,27.301 Q236.743,24.764 235.339,23.299 Q233.42,21.296 232.849,19.099 Q231.604,14.3 235.387,11.155 Q237.628,9.293 240.644,9.337 Q245.814,9.414 292.837,33.939 Q299.55,37.441 296.049,44.154 Q294.298,47.51 291.745,48.313 Q289.191,49.116 285.835,47.365 Z"/>
  <path fill="rgb(83.529412%, 71.372549%, 59.607843%)" opacity="0.155" d="M257.203,362.49 Q258.545,354.004 257.096,353.252 Q251.315,350.253 224.489,358.764 Q221.884,359.591 220.168,358.702 Q218.453,357.812 217.626,355.208 Q215.973,349.998 221.183,348.345 Q252.327,338.464 262.13,343.549 Q267.989,346.588 268.745,353.772 Q269.106,357.206 268,364.198 Q267.146,369.596 261.748,368.742 Q256.349,367.888 257.203,362.49 Z"/>
  <path fill="rgb(100%, 16.862745%, 0%)" opacity="0.382" d="M250.19,346.587 Q244.789,332.032 230.303,301.864 Q229.439,300.065 231.238,299.201 Q233.037,298.338 233.9,300.136 Q254.594,343.233 257.015,355.164 Q257.225,356.202 257.213,356.838 Q257.201,357.441 256.99,357.908 Q256.356,359.308 254.851,359.151 Q253.388,359 252.293,356.549 Q250.475,352.483 250.131,347.445 Q250.097,346.961 250.19,346.587 Z"/>
  <path fill="rgb(44.313725%, 50.196078%, 38.823529%)" opacity="0.833" d="M261.449,213.148 Q260.186,222.887 257.76,233.227 Q295.199,223.91 332.581,217.495 Q340.852,216.076 347.703,220.92 Q354.555,225.764 355.974,234.035 Q357.393,242.305 352.549,249.156 Q347.704,256.008 339.434,257.427 Q298.472,264.457 257.405,275.122 Q246.223,278.026 242.301,278.8 Q231.223,280.987 223.836,277.877 Q214.429,273.916 211.258,264.244 Q209.495,258.866 210.399,252.663 Q210.93,249.024 213.518,241.044 Q219.283,223.266 221.27,207.938 Q222.348,199.617 228.995,194.496 Q235.642,189.374 243.964,190.453 Q252.285,191.532 257.407,198.179 Q262.528,204.826 261.449,213.148 Z"/>
  <path fill="rgb(9.019608%, 8.235294%, 4.705882%)" opacity="0.652" d="M390.571,115.469 Q387.394,201.295 390.528,221.296 Q390.553,221.456 390.579,221.614 Q399.357,217.799 406.089,218.782 Q416.435,220.292 414.925,230.639 Q414.17,235.813 411.206,238.022 Q408.241,240.231 403.068,239.476 Q401.856,239.299 397.398,241.499 Q387.54,246.362 381.035,243.639 Q372.288,239.978 369.867,224.533 Q366.42,202.539 369.672,114.695 Q370.059,104.246 380.508,104.633 Q385.733,104.826 388.248,107.535 Q390.764,110.244 390.571,115.469 Z"/>
  <path fill="rgb(76.862745%, 73.333333%, 78.431373%)" opacity="0.099" d="M153.486,41.233 Q157.338,40.889 163.41,39.522 Q164.241,39.335 164.472,39.29 Q164.885,39.211 165.183,39.23 Q166.182,39.295 166.749,40.112 Q167.796,41.624 166.408,42.836 Q166.167,43.046 165.847,43.19 Q165.526,43.334 162.686,44.294 L162.575,44.331 Q161.503,44.693 160.823,44.266 Q156.778,45.061 153.85,45.322 Q152.828,45.413 152.271,44.948 Q151.715,44.482 151.623,43.46 Q151.441,41.415 153.486,41.233 Z"/>
  <path fill="rgb(44.313725%, 44.705882%, 40.784314%)" opacity="0.898" d="M309.345,170.311 Q282.652,170.516 275.437,181.563 Q270.934,188.458 270.001,208.83 Q269.402,221.916 267.643,227.942 Q264.754,237.842 257.489,243.811 Q247.308,252.176 233.862,249.954 Q222.585,248.091 207.748,235.928 Q196.923,227.055 178.465,208.598 Q171.118,201.25 171.118,190.859 Q171.118,180.469 178.465,173.121 Q185.812,165.774 196.203,165.774 Q206.594,165.774 213.941,173.121 Q218.52,177.7 222.513,181.573 Q225.726,165.926 233.432,154.127 Q255.361,120.554 308.96,120.142 Q319.35,120.062 326.754,127.353 Q334.157,134.643 334.237,145.034 Q334.317,155.424 327.026,162.828 Q319.735,170.231 309.345,170.311 Z"/>
  <path fill="rgb(49.803922%, 51.764706%, 40.784314%)" opacity="0.539" d="M241.18,190.542 Q250.029,179.546 259.924,176.555 Q270.725,173.29 280.191,179.436 Q294.743,188.883 296.563,210.895 Q298.547,234.882 282.047,244.767 Q263.432,255.92 233.236,237.014 Q229.337,234.573 228.307,230.09 Q227.276,225.607 229.717,221.708 Q232.158,217.81 236.641,216.779 Q241.123,215.748 245.022,218.189 Q263.688,229.876 270.633,225.715 Q275.273,222.935 274.429,212.725 Q273.507,201.576 268.098,198.064 Q265.166,196.161 258.484,204.466 Q255.6,208.049 251.027,208.544 Q246.454,209.039 242.87,206.156 Q239.287,203.272 238.792,198.699 Q238.297,194.126 241.18,190.542 Z"/>
  <path fill="rgb(71.764706%, 64.705882%, 74.901961%)" opacity="0.345" d="M78.964,0.401 Q139.296,-5.761 145.842,-4.664 Q150.661,-3.857 152.147,0.624 Q154.466,7.622 147.482,10.381 Q146.396,10.81 144.496,11.149 Q141.862,11.618 136.519,12.223 Q124.195,13.619 105.013,14.972 Q101.655,15.209 99.655,13.881 Q90.955,14.731 80.536,15.795 Q72.839,16.581 72.053,8.884 Q71.66,5.035 73.388,2.914 Q75.115,0.794 78.964,0.401 Z"/>
  <path fill="rgb(100%, 34.117647%, 1.568627%)" opacity="0.857" d="M72.933,161.008 Q74.8,161.067 77.842,161.128 Q86.565,161.302 88.427,163.602 Q91.194,167.021 85.846,173.919 Q57.078,211.023 48.736,289.721 Q48.504,291.905 47.296,292.881 Q46.088,293.858 43.904,293.626 Q39.536,293.163 39.999,288.795 Q48.453,209.033 77.85,169.916 Q77.753,169.914 77.667,169.912 Q74.573,169.85 72.653,169.789 Q68.262,169.649 68.402,165.258 Q68.543,160.868 72.933,161.008 Z"/>
  <path fill="rgb(30.196078%, 25.490196%, 45.490196%)" opacity="0.563" d="M-18.486,206.5 Q20.455,177.521 58.616,156.665 Q57.769,153.035 59.161,149.331 Q61.043,144.322 65.916,142.111 Q70.789,139.9 75.798,141.782 Q81.632,143.974 83.807,145.128 Q94.872,150.999 92.104,161.898 Q90.559,167.979 83.346,172.493 Q81.105,173.895 74.342,177.529 Q36.142,198.053 -3.061,227.227 Q-7.354,230.421 -12.648,229.645 Q-17.943,228.868 -21.137,224.576 Q-24.332,220.283 -23.555,214.989 Q-22.779,209.694 -18.486,206.5 Z"/>
  <path fill="rgb(41.960784%, 43.137255%, 39.215686%)" opacity="0.962" d="M389.579,246.062 Q377.146,247.724 362.688,252.724 Q355.058,255.363 351.192,255.91 Q344.364,256.876 338.351,254.683 Q329.03,251.284 324.694,242.254 Q321.277,235.139 322.194,224.166 Q322.523,220.224 324.095,209.072 Q329.142,173.277 331.511,139.344 Q332.15,130.194 339.072,124.176 Q345.994,118.158 355.144,118.797 Q364.294,119.436 370.312,126.357 Q376.331,133.279 375.692,142.429 Q373.563,172.914 369.378,204.766 Q376.702,203.101 383.711,202.165 Q392.802,200.949 400.09,206.519 Q407.378,212.088 408.593,221.179 Q409.809,230.271 404.239,237.559 Q398.67,244.847 389.579,246.062 Z"/>
  <path fill="rgb(14.509804%, 33.333333%, 69.803922%)" opacity="0.452" d="M-22.854,335.561 Q-26.054,334.058 -28.483,331.107 Q-32.815,325.844 -32.157,319.06 Q-31.498,312.275 -26.236,307.943 Q-20.973,303.611 -14.188,304.269 Q54.708,310.953 54.457,338.583 Q54.382,346.915 48.005,352.451 Q44.218,355.738 38.859,357.056 Q32.554,358.606 23.783,357.389 Q7.33,355.106 -14.851,344.186 Q-20.561,341.374 -22.854,335.561 Z"/>
  <path fill="rgb(49.411765%, 47.843137%, 46.27451%)" opacity="0.927" d="M76.947,96.754 Q79.313,94.317 81.824,91.826 Q88.056,85.641 96.836,85.675 Q105.615,85.709 111.799,91.941 Q117.984,98.173 117.95,106.953 Q117.916,115.732 111.684,121.917 Q95.252,138.222 87.117,150.284 Q85.787,152.969 84.536,155.304 Q81.876,160.266 79.955,162.687 Q76.046,167.613 70.284,169.672 Q61.373,172.858 53.051,168.362 Q44.54,163.765 42.429,154.319 Q41.363,149.552 42.487,144.757 Q43.126,142.034 44.666,138.962 Q46.968,134.371 50.112,129.463 Q53.898,121.593 58.645,109.962 Q61.963,101.834 70.057,98.432 Q73.499,96.986 76.947,96.754 Z"/>
  <path fill="rgb(45.098039%, 43.529412%, 40.784314%)" opacity="0.852" d="M302.854,245.613 Q306.655,223.656 304.775,200.567 Q302.511,172.741 308.899,145.099 Q310.069,140.033 314.479,137.279 Q318.889,134.525 323.955,135.695 Q329.021,136.866 331.776,141.276 Q334.53,145.686 333.359,150.752 Q327.85,174.593 329.798,198.53 Q331.936,224.797 327.592,249.895 Q326.705,255.018 322.455,258.014 Q318.205,261.01 313.082,260.123 Q307.958,259.236 304.963,254.986 Q301.967,250.736 302.854,245.613 Z"/>
  <path fill="rgb(40.784314%, 40%, 38.823529%)" opacity="0.511" d="M314.891,55.164 Q345.11,101.72 330.815,120.359 Q320.943,133.231 297.942,125.929 Q279.529,120.083 250.206,100.47 Q246.194,97.787 245.255,93.053 Q244.315,88.319 246.999,84.307 Q249.682,80.296 254.416,79.356 Q259.15,78.417 263.162,81.1 Q289.734,98.873 304.994,103.718 Q309.412,105.121 312.07,105.228 Q311.98,101.97 310.273,96.813 Q306.251,84.655 295.344,67.852 Q292.716,63.803 293.721,59.083 Q294.725,54.362 298.773,51.734 Q302.822,49.107 307.542,50.111 Q312.263,51.116 314.891,55.164 Z"/>
  <path fill="rgb(50.980392%, 85.490196%, 100%)" opacity="0.17" d="M65.853,292.834 Q65.474,289.239 69.623,286.98 Q72.559,285.381 74.826,286.05 Q77.093,286.719 78.692,289.655 Q82.327,296.33 86.029,300.704 Q86.858,301.205 87.628,301.71 Q90.359,303.501 91.912,305.083 Q93.092,306.285 93.704,307.523 Q94.633,309.402 94.412,311.422 Q93.921,315.919 89.583,317.208 Q83.777,318.932 76.682,310.771 Q72.089,308.331 65.476,305.883 Q62.341,304.723 61.354,302.575 Q60.367,300.428 61.527,297.293 Q62.949,293.451 65.853,292.834 Z"/>
  <path fill="rgb(48.627451%, 47.058824%, 45.882353%)" opacity="0.92" d="M111.899,125.967 Q186.903,119.449 212.499,126.557 Q231.538,131.844 236.663,146.669 Q236.666,146.679 236.67,146.689 Q237.902,148.58 238.802,150.797 Q242.346,159.52 238.683,168.194 Q235.02,176.868 226.297,180.412 Q216.653,184.329 209.21,182.691 Q197.333,180.077 192.886,169 Q171.274,166.441 115.835,171.259 Q106.455,172.074 99.246,166.018 Q92.037,159.962 91.221,150.581 Q90.406,141.201 96.462,133.992 Q102.519,126.783 111.899,125.967 Z"/>
  <path fill="rgb(32.156863%, 34.117647%, 28.235294%)" opacity="0.611" d="M110.444,85.49 Q102.599,79.78 97.908,75.195 Q92.684,83.923 75.559,93.57 Q71.966,95.594 69.942,92.001 Q67.918,88.408 71.511,86.384 Q84.98,78.796 89.858,72.027 Q92.046,68.989 91.935,67.382 Q91.833,67.06 91.783,66.75 Q91.637,65.843 91.885,64.964 Q92.635,62.308 95.375,61.987 Q97.238,61.768 98.628,63.029 Q99.283,63.623 99.647,64.449 Q99.724,64.623 99.79,64.812 Q99.995,65.17 100.634,65.981 Q104.639,71.063 115.298,78.822 Q118.632,81.249 116.205,84.583 Q114.992,86.25 113.551,86.477 Q112.111,86.704 110.444,85.49 Z"/>
  <path fill="rgb(54.509804%, 69.803922%, 80.392157%)" opacity="0.302" d="M80.125,250.097 Q109.725,209.649 146.13,188.45 Q144.141,187.487 141.296,186.148 Q139.381,185.247 138.341,184.755 Q132.515,182.002 135.268,176.177 Q136.645,173.264 138.789,172.496 Q140.934,171.728 143.847,173.104 Q144.876,173.591 146.783,174.488 Q161.012,181.184 162.683,185.145 Q165.068,190.801 159.455,195.28 Q157.881,196.536 152.959,199.386 Q118.676,219.238 90.524,257.708 Q86.719,262.907 81.519,259.102 Q78.919,257.199 78.571,254.948 Q78.222,252.697 80.125,250.097 Z"/>
  <path fill="rgb(100%, 35.294118%, 6.666667%)" d="M164.965,179.433 Q217.764,238.374 235.018,293.567 Q235.061,293.705 235.101,293.832 Q236.387,294.891 236.25,297.213 Q236.103,299.714 234.203,300.841 Q231.06,302.706 228.85,299.747 Q228.524,299.311 228.275,298.738 Q228.027,298.165 227.34,295.967 Q210.606,242.441 158.973,184.801 Q156.289,181.805 159.285,179.121 Q162.281,176.437 164.965,179.433 Z"/>
  <path fill="rgb(63.529412%, 57.647059%, 60%)" opacity="0.442" d="M99.953,85.603 Q95.411,83.651 91.359,81.756 Q89.43,94.12 76.249,107.808 Q73.466,110.698 70.629,110.752 Q67.793,110.805 64.903,108.022 Q59.123,102.456 64.689,96.676 Q79.314,81.489 74.097,72.109 Q73.584,71.185 73.34,70.575 Q72.483,68.432 72.827,66.214 Q73.909,59.242 80.976,59.372 Q83.172,59.413 86.421,61.242 Q94.494,65.789 106.29,70.858 Q113.662,74.027 110.493,81.399 Q107.325,88.771 99.953,85.603 Z"/>
  <path fill="rgb(98.431373%, 53.72549%, 38.039216%)" d="M155.482,324.014 Q127.647,319.524 99.265,318.265 Q99.17,318.261 99.05,318.256 Q80.111,318.751 77.157,318.141 Q74.852,317.665 74.601,315.418 Q74.292,312.645 77.099,312.022 Q77.549,311.922 78.421,311.864 Q79.917,311.766 82.726,311.743 Q89.754,311.684 99.229,312.098 Q105.843,311.915 114.522,311.601 Q161.414,309.907 233.261,304.678 Q236.333,304.454 236.556,307.526 Q236.78,310.598 233.708,310.822 Q183.937,314.445 146.103,316.374 Q151.292,317.098 156.463,317.932 Q159.504,318.422 159.013,321.463 Q158.768,322.984 157.885,323.621 Q157.003,324.259 155.482,324.014 Z"/>
  <path fill="rgb(67.45098%, 56.470588%, 71.372549%)" opacity="0.163" d="M333.748,97.954 Q330.249,93.48 328.882,89.135 Q318.413,87.431 304.233,84.752 Q299.004,83.764 296.005,79.369 Q293.006,74.973 293.994,69.744 Q294.982,64.515 299.377,61.517 Q303.773,58.518 309.002,59.506 Q336.378,64.677 348.878,66.025 Q350.971,66.251 352.35,66.715 Q357.251,68.362 359.647,72.937 Q363.64,80.56 358.111,87.155 Q357.437,87.958 356.664,88.628 Q356.806,90.067 356.619,91.598 Q355.973,96.88 351.782,100.158 Q347.59,103.436 342.308,102.791 Q337.026,102.145 333.748,97.954 Z"/>
  <path fill="rgb(100%, 59.607843%, 33.333333%)" d="M29.908,172.645 Q62.126,164.472 90.491,165.371 Q91.266,163.711 93.326,164.252 Q96.89,165.186 99.925,165.93 Q104.206,166.305 108.396,166.896 Q113.242,167.58 115.739,168.331 Q117.677,168.913 118.267,169.988 Q119.23,171.741 117.773,173.108 Q117.241,173.607 116.486,173.779 Q116.003,173.889 115.293,173.876 Q110.977,173.797 99.124,170.916 Q67.746,168.242 31.147,177.527 Q29.926,177.836 29.161,177.381 Q28.396,176.926 28.087,175.705 Q27.467,173.264 29.908,172.645 Z"/>
  <path fill="rgb(67.843137%, 62.745098%, 68.627451%)" opacity="0.142" d="M292.377,16.687 Q329.406,17.155 342.816,22.524 Q353.978,26.993 353.766,36.094 Q353.591,43.63 344.45,49.563 Q319.375,65.839 235.407,78.088 Q231.026,78.727 228.515,76.856 Q226.004,74.985 225.365,70.603 Q224.087,61.839 232.85,60.561 Q305.649,49.941 330.324,37.277 Q318.221,34.728 292.154,34.399 Q287.726,34.343 285.54,32.101 Q283.354,29.859 283.41,25.431 Q283.522,16.575 292.377,16.687 Z"/>
  <path fill="rgb(25.098039%, 19.215686%, 22.745098%)" opacity="0.553" d="M240.925,279.367 Q238.906,284.192 235.389,284.344 Q232.26,284.479 229.459,280.555 Q226.984,277.087 220.549,262.655 Q207.388,233.138 196.619,216.599 Q177.683,187.517 153.837,173.281 Q151.013,171.595 152.699,168.771 Q153.542,167.359 154.67,167.074 Q155.797,166.79 157.21,167.633 Q182.363,182.65 202.132,213.009 Q213.184,229.983 226.557,259.976 Q232.723,273.804 234.814,276.734 L234.856,276.828 Q236.126,273.794 239.16,275.064 Q242.195,276.333 240.925,279.367 Z"/>
  <path fill="rgb(100%, 50.980392%, 38.431373%)" opacity="0.496" d="M1.189,355.566 Q27.918,355.46 32.432,357.392 Q35.468,358.692 35.3,361.352 Q44.705,360.777 62.861,359.319 Q64.627,359.177 65.581,359.989 Q66.535,360.802 66.677,362.568 Q66.961,366.1 63.428,366.384 Q33.172,368.814 26.76,368.813 Q24.885,368.813 23.961,368.622 Q22.51,368.324 21.651,367.328 Q19.708,365.078 21.327,362.934 Q14.182,362.602 1.217,362.653 Q-0.555,362.66 -1.444,361.778 Q-2.334,360.895 -2.341,359.123 Q-2.355,355.58 1.189,355.566 Z"/>
  <path fill="rgb(39.215686%, 39.215686%, 40.392157%)" opacity="0.665" d="M249.206,130.879 Q244.671,166.697 242.184,187.391 Q241.443,193.561 241.022,197.237 Q240.98,197.605 240.945,197.914 Q240.902,198.312 240.856,198.723 Q240.828,198.974 240.818,199.055 Q240.8,199.191 240.774,199.322 Q240.669,199.862 240.431,200.359 Q239.693,201.9 238.097,202.513 Q234.181,204.015 232.586,200.135 Q232.299,199.437 232.268,198.682 Q232.258,198.44 232.275,198.197 Q232.28,198.128 232.288,198.047 Q232.293,197.997 232.304,197.898 Q232.343,197.537 232.42,196.861 Q232.938,192.069 233.266,187.516 Q233.534,183.799 233.534,181.748 Q233.534,181.541 233.531,181.362 Q232.902,180.215 233.152,178.402 Q233.445,176.275 234.655,175.358 Q234.829,175.226 235.022,175.119 Q237.276,156.725 240.685,129.8 Q240.954,127.67 242.154,126.74 Q243.354,125.81 245.485,126.079 Q249.745,126.619 249.206,130.879 Z"/>
  <path fill="rgb(79.215686%, 69.019608%, 80.392157%)" opacity="0.136" d="M81.468,0.778 Q143.996,1.924 173.564,22.255 Q201.109,41.196 196.796,71.075 Q193.224,95.823 171.187,112.884 Q147.707,131.062 125.809,122.77 Q116.27,119.158 119.882,109.618 Q121.688,104.848 124.976,103.366 Q128.264,101.885 133.034,103.691 Q144.25,107.938 158.698,96.753 Q174.211,84.742 176.604,68.161 Q179.106,50.825 162.004,39.066 Q137.49,22.21 81.094,21.176 Q70.895,20.989 71.082,10.79 Q71.176,5.69 73.772,3.187 Q76.369,0.684 81.468,0.778 Z"/>
  <path fill="rgb(65.490196%, 63.921569%, 61.960784%)" opacity="0.881" d="M-0.017,113.865 Q1.045,114.146 2.067,114.404 Q10.739,100.276 27.088,101.625 Q38.024,102.527 46.134,110.905 Q54.324,119.365 54.794,130.457 Q55.421,145.256 43.468,153.626 Q43.563,153.954 43.661,154.288 Q46.173,162.828 41.91,170.643 Q37.647,178.458 29.107,180.97 Q20.566,183.482 12.751,179.219 Q4.936,174.956 2.424,166.416 Q1.145,162.064 0.171,158.001 Q-5.166,156.967 -11.022,155.416 Q-19.627,153.137 -24.101,145.44 Q-28.574,137.744 -26.295,129.138 Q-24.016,120.533 -16.319,116.059 Q-8.623,111.586 -0.017,113.865 Z"/>
  <path fill="rgb(5.882353%, 88.235294%, 100%)" opacity="0.037" d="M-5.386,276.461 Q8.802,277.955 20.895,278.509 Q41.558,274.745 54.543,274.723 Q61.855,274.71 66.103,276.224 Q69.669,277.494 72.31,279.975 Q79.607,286.827 77.002,296.443 Q74.779,304.65 66.305,308.023 Q48.841,314.976 -8.802,308.906 Q-15.521,308.199 -19.773,302.947 Q-24.024,297.695 -23.316,290.975 Q-22.609,284.256 -17.357,280.005 Q-12.105,275.754 -5.386,276.461 Z"/>
  <path fill="rgb(96.862745%, 59.607843%, 40%)" opacity="0.077" d="M106.227,327.03 Q114.56,325.781 120.019,327.025 Q122.811,327.661 124.261,328.926 Q127.021,331.335 125.178,334.283 Q121.05,340.884 92.465,338.007 Q91.01,337.861 90.356,337.06 Q89.702,336.26 89.848,334.805 Q90.141,331.895 93.051,332.188 Q106.122,333.504 114.198,332.573 Q115.22,332.455 116.069,332.333 Q112.328,332.029 107.094,332.814 Q105.648,333.031 104.816,332.416 Q103.985,331.801 103.768,330.355 Q103.335,327.463 106.227,327.03 Z"/>
  <path fill="rgb(87.45098%, 63.529412%, 52.54902%)" opacity="0.903" d="M55.661,315.184 Q53.289,350.847 49.882,358.668 Q48.036,362.907 44.455,362.397 Q41.432,361.966 40.169,358.08 Q38.989,354.448 38.532,345.997 Q37.5,326.922 40.212,300.782 Q43.522,268.886 51.258,242.394 Q52.364,238.605 56.153,239.711 Q58.048,240.264 58.718,241.488 Q59.389,242.712 58.836,244.606 Q51.3,270.412 48.064,301.597 Q46.135,320.188 46.141,335.029 Q46.997,326.496 47.784,314.66 Q47.915,312.691 48.965,311.772 Q50.015,310.853 51.985,310.984 Q53.954,311.115 54.873,312.165 Q55.792,313.215 55.661,315.184 Z"/>
  <path fill="rgb(75.294118%, 63.137255%, 78.039216%)" opacity="0.148" d="M374.769,14.404 Q376.792,21.626 369.366,24.052 Q365.494,25.317 362.926,24.014 Q360.357,22.71 359.092,18.838 Q356.37,10.504 355.569,6.533 Q353.819,-2.149 358.203,-6.313 Q363.607,-11.446 372.474,-6.772 Q376.552,-4.622 384.096,1.045 Q387.353,3.492 387.758,6.343 Q388.163,9.195 385.717,12.451 Q380.997,18.734 374.769,14.404 Z"/>
</svg>

