<svg xmlns="http://www.w3.org/2000/svg" width="384" height="384" viewBox="0 0 384 384">
  <defs/>
  <path fill="rgb(29.411765%, 23.137255%, 19.607843%)" opacity="0.972" d="M263.538,210.594 Q263.981,212.197 263.945,213.522 Q263.821,218.135 260.356,221.066 Q257.72,223.295 253.985,223.578 Q250.557,223.836 245.172,222.209 Q227.123,216.753 156.783,180.337 Q148.743,176.175 152.905,168.134 Q154.986,164.114 158.037,163.145 Q161.088,162.175 165.108,164.257 Q216.375,190.798 238.589,200.334 Q238.301,196.594 240.502,193.446 Q244.579,187.616 253.866,189.018 Q258.973,189.789 267.921,193.036 Q272.176,194.581 273.532,197.48 Q274.887,200.38 273.343,204.636 Q270.591,212.217 263.538,210.594 Z"/>
  <path fill="rgb(65.490196%, 93.333333%, 92.54902%)" opacity="0.12" d="M377.651,364.426 Q377.756,358.436 377.895,349.473 Q378.115,335.334 378.299,333.1 Q378.766,327.462 383.227,327.338 Q385.306,327.28 386.824,328.844 Q389.081,326.678 392.281,328.702 Q396.27,331.225 393.747,335.215 Q390.888,339.736 387.503,340.19 Q387.424,343.879 387.335,349.619 Q387.195,358.611 387.091,364.59 Q387.009,369.31 382.289,369.228 Q377.569,369.145 377.651,364.426 Z"/>
  <path fill="rgb(52.941176%, 38.039216%, 1.568627%)" opacity="0.947" d="M70.404,86.314 Q70.379,86.349 70.348,86.391 Q69.835,87.086 68.922,88.553 Q66.747,92.046 63.509,97.94 Q54.876,113.656 44.937,134.922 Q43.913,137.113 41.722,136.089 Q40.627,135.577 40.335,134.774 Q40.043,133.97 40.555,132.875 Q50.561,111.465 59.27,95.611 Q62.571,89.602 64.816,85.997 Q65.829,84.369 66.455,83.52 Q66.836,83.004 67.125,82.715 Q67.468,82.372 67.849,82.173 Q69.75,81.184 70.994,82.903 Q72.412,84.862 70.453,86.279 Q70.429,86.297 70.404,86.314 Z"/>
  <path fill="rgb(20%, 17.647059%, 15.294118%)" opacity="0.983" d="M133.246,183.344 Q151.375,190.672 176.403,200.327 Q202.328,210.328 226.22,219.635 Q229.58,220.944 230.606,223.279 Q231.631,225.613 230.322,228.974 Q227.704,235.694 220.984,233.076 Q197.113,223.777 171.211,213.786 Q146.075,204.089 127.84,196.718 Q121.153,194.015 123.856,187.328 Q126.559,180.641 133.246,183.344 Z"/>
  <path fill="rgb(21.960784%, 20.784314%, 20.392157%)" opacity="0.922" d="M96.113,119.625 Q85.266,138.006 71.656,157.394 Q64.815,167.139 64.948,168.158 Q64.962,168.266 72.007,169.093 Q113.94,174.013 160.273,201.101 Q161.285,201.693 161.495,202.495 Q161.705,203.296 161.114,204.308 Q159.931,206.332 157.907,205.149 Q112.42,178.556 71.46,173.75 Q60.783,172.497 60.298,168.762 Q59.931,165.937 67.818,154.7 Q81.322,135.464 92.075,117.242 Q92.67,116.233 93.473,116.026 Q94.276,115.819 95.285,116.415 Q97.304,117.606 96.113,119.625 Z"/>
  <path fill="rgb(7.843137%, 0%, 0%)" opacity="0.9" d="M85.366,155.823 Q91.342,166.281 84.973,174.258 Q83.835,175.683 83.851,175.83 Q83.899,176.272 86.295,177.55 Q92.518,180.868 123.884,190.929 Q124.83,191.232 125.151,191.857 Q125.473,192.481 125.169,193.427 Q124.562,195.319 122.671,194.712 Q90.964,184.542 84.426,181.056 Q80.172,178.789 79.9,176.254 Q79.71,174.481 81.868,171.778 Q86.554,165.91 81.916,157.794 Q81.423,156.932 81.608,156.254 Q81.792,155.577 82.655,155.084 Q84.38,154.098 85.366,155.823 Z"/>
  <path fill="rgb(0%, 1.960784%, 7.843137%)" opacity="0.566" d="M119.545,97.27 Q126.789,101.057 133.796,104.979 Q136.233,95.071 145.297,85.822 Q148.683,82.367 152.103,82.333 Q155.524,82.298 158.979,85.684 Q165.889,92.456 159.117,99.366 Q150.304,108.358 153.02,116.881 Q153.721,119.082 153.834,120.504 Q154.195,125.027 151.157,128.247 Q147.518,132.104 142.192,131.211 Q139.8,130.809 133.846,127.312 Q122.552,120.677 110.58,114.417 Q102.006,109.935 106.489,101.361 Q110.972,92.787 119.545,97.27 Z"/>
  <path fill="rgb(62.352941%, 67.45098%, 74.509804%)" opacity="0.154" d="M373.954,335.706 Q372.259,336.033 370.094,334.956 Q365.091,332.467 367.58,327.465 Q369.8,323.001 373.773,314.632 Q377.83,306.087 379.27,303.394 Q380.584,300.934 381.505,299.768 Q382.756,298.184 384.348,297.543 Q386.867,296.529 389.242,297.788 Q391.162,298.807 391.966,300.88 Q393.422,304.634 384.967,337.58 Q383.578,342.992 378.166,341.603 Q373.221,340.334 373.954,335.706 Z"/>
  <path fill="rgb(5.490196%, 30.196078%, 36.470588%)" opacity="0.053" d="M-2.087,202.73 Q33.311,215.546 84.659,234.496 Q148.151,257.928 169.577,264.687 Q198.729,273.883 234.084,280.464 Q236.066,280.832 235.697,282.814 Q235.328,284.796 233.346,284.427 Q197.75,277.802 168.364,268.532 Q146.845,261.744 83.263,238.278 Q31.926,219.332 -3.46,206.521 Q-5.355,205.834 -4.669,203.939 Q-4.326,202.991 -3.68,202.689 Q-3.035,202.386 -2.087,202.73 Z"/>
  <path fill="rgb(51.372549%, 45.490196%, 29.411765%)" opacity="0.644" d="M64.348,102.592 Q90.302,108.552 95.725,112.34 Q99.005,114.632 97.282,117.125 Q96.573,118.151 94.106,119.402 Q93.594,119.662 93.27,119.843 Q93.315,120.463 92.684,121.07 Q92.106,121.627 91.539,121.617 Q90.971,121.606 90.414,121.028 Q89.581,120.163 89.818,119.072 Q89.983,118.316 90.688,117.714 Q91.204,117.274 92.653,116.539 Q94.057,115.827 94.489,115.457 Q94.304,115.265 93.886,114.973 Q88.975,111.542 63.629,105.721 Q62.064,105.362 62.424,103.797 Q62.783,102.232 64.348,102.592 Z"/>
  <path fill="rgb(26.666667%, 21.176471%, 17.254902%)" d="M147.717,191.456 Q122.922,177.303 104.72,171.087 Q93.703,167.325 74.966,163.911 Q54.296,160.145 40.054,155.759 Q16.133,148.394 -15.278,133.309 Q-18.818,131.609 -19.737,128.99 Q-20.657,126.37 -18.957,122.831 Q-15.558,115.753 -8.48,119.152 Q21.875,133.729 44.676,140.75 Q58.028,144.861 77.781,148.461 Q97.671,152.085 109.795,156.225 Q129.411,162.923 155.502,177.817 Q162.322,181.71 158.429,188.53 Q154.536,195.349 147.717,191.456 Z"/>
  <path fill="rgb(27.45098%, 25.882353%, 23.921569%)" opacity="0.552" d="M71.303,84.338 Q51.471,79.78 39.642,80.578 Q34.804,80.905 32.434,79.173 Q30.588,77.823 28.226,73.048 Q24.859,66.24 20.936,59.75 Q19.531,57.427 19.991,55.563 Q20.45,53.7 22.773,52.295 Q27.419,49.486 30.228,54.133 Q34.389,61.015 37.959,68.235 Q38.418,69.161 38.723,69.757 Q38.815,69.751 38.911,69.744 Q52.34,68.838 73.736,73.756 Q79.027,74.972 77.811,80.263 Q76.595,85.554 71.303,84.338 Z"/>
  <path fill="rgb(50.588235%, 73.333333%, 86.27451%)" opacity="0.01" d="M258.844,175.712 Q259.204,162.502 262.093,157.405 Q267.506,147.854 279.963,152.378 Q292.354,156.878 343.056,197.146 Q348.527,201.491 344.182,206.962 Q339.837,212.433 334.366,208.088 Q285.445,169.235 275.193,165.512 Q274.413,165.228 273.918,165.088 Q273.038,167.823 272.812,176.093 Q272.622,183.077 265.638,182.886 Q262.146,182.791 260.447,180.998 Q258.749,179.204 258.844,175.712 Z"/>
  <path fill="rgb(83.529412%, 86.27451%, 83.529412%)" opacity="0.022" d="M217.163,-6.43 Q220.171,-2.646 217.529,1.255 Q215.67,4 208.876,8.81 Q208.133,9.336 207.499,9.227 Q206.864,9.119 206.339,8.376 Q205.287,6.89 206.772,5.839 Q213.027,1.411 214.515,-0.786 Q215.657,-2.474 214.313,-4.164 Q213.747,-4.876 213.82,-5.516 Q213.893,-6.155 214.605,-6.722 Q216.03,-7.855 217.163,-6.43 Z"/>
  <path fill="rgb(62.745098%, 75.686275%, 65.490196%)" opacity="0.018" d="M226.588,-10.076 Q226.873,-2.946 225.847,6.36 Q225.551,9.044 225.497,10.323 Q227.859,10.199 235.783,8.665 Q240.336,7.783 241.218,12.337 Q241.659,14.614 240.741,15.973 Q239.822,17.332 237.546,17.773 Q223.82,20.429 220.107,18.4 Q215.466,15.863 216.626,5.344 Q217.576,-3.271 217.318,-9.705 Q217.133,-14.34 221.768,-14.525 Q224.085,-14.618 225.29,-13.506 Q226.495,-12.393 226.588,-10.076 Z"/>
  <path fill="rgb(19.215686%, 22.745098%, 29.803922%)" opacity="0.484" d="M42.952,82.374 Q47.15,81.266 51.294,83.073 Q56.212,85.217 58.173,90.211 Q60.134,95.205 57.99,100.123 Q46.225,127.102 35.451,141.524 Q18.969,163.59 4.81,153.255 Q-13.728,139.724 18.436,75.308 Q20.832,70.508 25.921,68.809 Q31.01,67.109 35.809,69.506 Q40.609,71.902 42.309,76.991 Q43.221,79.724 42.952,82.374 Z"/>
  <path fill="rgb(43.529412%, 40.784314%, 40.784314%)" opacity="0.377" d="M113.095,80.711 Q111.369,67.112 108.435,65.877 L108.224,66.163 Q106.557,67.037 104.571,69.557 Q99.673,75.773 98.266,83.674 Q97.197,89.678 98.933,90.801 Q101.761,92.631 102.26,94.96 Q102.759,97.288 100.929,100.116 Q97.27,105.772 91.614,102.113 Q82.365,96.128 85.002,81.313 Q87.001,70.087 93.989,61.219 Q103.48,49.174 113.662,53.46 Q123.756,57.709 126.46,79.015 Q127.308,85.698 120.626,86.546 Q113.943,87.394 113.095,80.711 Z"/>
  <path fill="rgb(52.54902%, 69.803922%, 60.392157%)" opacity="0.023" d="M392.258,369.838 Q393.496,371.33 393.846,373.979 Q394.754,380.845 387.888,381.752 Q335.086,388.734 330.262,377.848 Q327.905,372.528 332.634,368.724 Q334.2,367.464 336.745,366.616 Q340.374,365.408 346.893,364.651 Q361.523,362.953 385.593,363.806 Q391.923,364.03 392.258,369.838 Z"/>
  <path fill="rgb(52.54902%, 43.921569%, 36.078431%)" opacity="0.207" d="M96.327,228.908 Q109.021,227.11 114.886,221.27 Q118.326,217.843 121.555,209.33 Q121.672,209.022 121.729,208.872 Q122.889,205.819 125.941,206.979 Q128.993,208.139 127.834,211.191 Q127.778,211.338 127.661,211.645 Q123.932,221.476 119.494,225.897 Q112.089,233.271 97.243,235.374 Q94.01,235.831 93.552,232.598 Q93.094,229.366 96.327,228.908 Z"/>
  <path fill="rgb(35.686275%, 30.196078%, 30.196078%)" d="M219.839,220.953 Q224.119,221.74 230.81,222.67 Q233.926,223.103 235.019,225.065 Q243.935,227.794 254.518,231.65 Q259.704,233.539 257.815,238.725 Q255.925,243.911 250.74,242.022 Q231.087,234.862 217.6,231.764 Q216.845,231.624 216.158,231.487 Q215.385,231.333 214.918,231.224 Q214.593,231.149 214.364,231.08 Q213.605,230.854 212.956,230.445 Q211.268,229.379 210.651,227.482 Q209.053,222.569 213.851,220.649 Q214.922,220.22 216.083,220.256 Q216.815,220.279 218.923,220.746 Q219.378,220.847 219.839,220.953 Z"/>
  <path fill="rgb(45.882353%, 39.607843%, 43.529412%)" opacity="0.266" d="M100.662,56.732 Q88.302,55.053 82.827,58.236 Q79.276,60.301 78.674,65.266 Q77.709,73.226 84.542,90.589 Q85.889,94.01 86.26,95.209 Q86.743,96.769 86.77,97.951 Q86.817,100.045 85.681,101.702 Q83.56,104.798 79.818,104.289 Q76.648,103.857 68.233,94.007 Q64.394,89.513 68.888,85.674 Q69.439,85.203 69.981,84.857 Q65.966,71.866 66.939,63.843 Q68.249,53.039 76.886,48.018 Q85.87,42.794 102.252,45.018 Q108.109,45.814 107.314,51.67 Q106.518,57.527 100.662,56.732 Z"/>
</svg>

