<svg xmlns="http://www.w3.org/2000/svg" width="384" height="384" viewBox="0 0 384 384">
  <defs/>
  <path fill="rgb(7.058824%, 5.882353%, 9.019608%)" opacity="0.666" d="M330.556,71.296 Q306.93,90.837 277.452,112.032 Q263.294,122.211 258.84,126.129 Q252.704,131.527 250.17,136.799 Q246.261,144.933 244.559,181.013 Q240.646,263.995 228.315,354.047 Q227.557,359.581 222.024,358.823 Q219.257,358.444 218.063,356.871 Q216.869,355.298 217.248,352.531 Q229.511,262.972 233.401,180.487 Q234.434,158.591 235.298,151.059 Q236.669,139.103 240.103,131.96 Q243.621,124.641 251.462,117.742 Q256.327,113.462 270.931,102.962 Q300.102,81.988 323.436,62.688 Q325.588,60.908 327.554,61.094 Q329.52,61.28 331.3,63.432 Q334.86,67.736 330.556,71.296 Z"/>
  <path fill="rgb(1.960784%, 5.882353%, 16.078431%)" opacity="0.172" d="M251.032,158.675 Q246.394,208.752 244.79,278.087 Q243.709,324.783 240.99,340.147 Q236.389,366.148 220.394,376.741 Q205.523,386.59 172.346,387.419 Q151.668,387.935 88.266,384.382 Q73.508,383.555 65.526,383.121 Q56.014,382.604 56.531,373.092 Q56.79,368.336 59.297,366.088 Q61.804,363.839 66.56,364.098 Q74.536,364.531 89.332,365.36 Q151.963,368.87 171.87,368.373 Q199.571,367.681 209.874,360.857 Q219.053,354.778 222.23,336.828 Q224.696,322.891 225.743,277.646 Q227.363,207.651 232.062,156.918 Q232.94,147.433 242.425,148.312 Q247.168,148.751 249.32,151.342 Q251.471,153.933 251.032,158.675 Z"/>
  <path fill="rgb(0%, 100%, 92.54902%)" opacity="0.204" d="M152.613,201.69 Q153.705,211.278 150.59,227.586 Q148.838,236.756 149.189,239.211 Q149.266,239.75 150.384,240.105 Q163.358,244.234 222.732,229.672 Q232.06,227.385 234.347,236.712 Q235.491,241.376 233.731,244.28 Q231.971,247.184 227.307,248.328 Q162.684,264.177 144.559,258.409 Q131.957,254.399 130.174,241.93 Q129.37,236.301 131.723,223.982 Q134.289,210.546 133.528,203.864 Q132.441,194.322 141.983,193.235 Q151.526,192.148 152.613,201.69 Z"/>
  <path fill="rgb(60.392157%, 59.215686%, 61.176471%)" opacity="0.671" d="M54.738,24.867 Q84.242,46.668 112.898,74.258 Q113.852,75.178 114.705,75.994 Q123.346,73.759 145.013,67.384 Q174.94,58.578 195.375,52.902 Q205.95,49.965 216.845,51.299 Q227.74,52.632 237.295,58.034 Q246.85,63.435 253.611,72.082 Q260.371,80.728 263.309,91.304 Q266.246,101.88 264.912,112.775 Q263.578,123.669 258.177,133.224 Q252.776,142.78 244.129,149.54 Q235.482,156.301 224.907,159.238 Q205.284,164.688 176.166,173.256 Q148.192,181.487 137.863,183.956 Q116.116,189.155 100.188,187.986 Q77.715,186.336 58.574,173.004 Q50.501,167.381 36.353,153.759 Q12.876,131.155 -10.847,113.625 Q-19.675,107.102 -25.334,97.698 Q-30.994,88.293 -32.623,77.439 Q-34.253,66.584 -31.605,55.933 Q-28.957,45.281 -22.434,36.453 Q-15.911,27.626 -6.506,21.966 Q2.898,16.307 13.753,14.677 Q24.607,13.048 35.259,15.696 Q45.911,18.344 54.738,24.867 Z"/>
</svg>

