<svg xmlns="http://www.w3.org/2000/svg" width="384" height="384" viewBox="0 0 384 384">
  <defs/>
  <path fill="rgb(43.137255%, 45.098039%, 48.627451%)" opacity="0.83" d="M202.857,196.218 Q200.746,223.58 202.788,251.161 Q203.465,260.304 203.326,264.199 Q202.797,279.097 193.125,287.976 Q183.351,296.949 168.362,296.069 Q164.467,295.841 155.469,294.297 Q121.547,288.479 83.569,289.275 Q72.409,289.509 64.352,281.783 Q56.295,274.057 56.061,262.897 Q55.827,251.737 63.553,243.68 Q71.279,235.623 82.439,235.389 Q116.584,234.673 148.142,238.717 Q147.324,215.333 149.119,192.071 Q149.978,180.942 158.455,173.679 Q166.932,166.417 178.062,167.276 Q189.191,168.134 196.454,176.611 Q203.716,185.088 202.857,196.218 Z"/>
  <path fill="rgb(44.705882%, 32.156863%, 33.333333%)" opacity="0.674" d="M227.744,71.268 Q259.996,73.673 343.76,74.253 Q355.094,74.331 363.054,82.401 Q371.013,90.472 370.935,101.806 Q370.857,113.141 362.786,121.101 Q354.716,129.06 343.381,128.982 Q236.524,128.243 207.962,124.256 Q196.707,122.685 190.305,117.591 Q183.693,112.329 181.168,104.296 Q176.879,90.654 185.603,79.318 Q191.316,71.894 200.491,69.438 Q204.005,68.497 208.138,68.374 Q218.579,68.063 227.744,71.268 Z M209.558,122.887 L209.767,123.081 Q209.906,123.076 210.046,123.07 Q209.802,122.981 209.558,122.887 Z"/>
  <path fill="rgb(59.607843%, 58.039216%, 50.588235%)" opacity="0.596" d="M226.143,27.713 Q225.227,55.291 227.474,71.071 Q227.625,70.441 227.774,69.783 Q231.468,53.532 228.435,37.408 Q227.431,32.071 230.495,27.587 Q233.56,23.103 238.897,22.099 Q244.234,21.095 248.718,24.159 Q253.202,27.224 254.206,32.561 Q258.245,54.035 253.345,75.595 Q248.256,97.985 236.96,105.87 Q225.958,113.551 215.365,106.112 Q208.369,101.199 204.699,89.472 Q198.512,69.696 199.935,26.842 Q200.115,21.414 204.081,17.704 Q208.046,13.993 213.474,14.173 Q218.902,14.353 222.613,18.319 Q226.324,22.285 226.143,27.713 Z"/>
  <path fill="rgb(100%, 41.568627%, 6.27451%)" opacity="0.538" d="M82.224,191.599 Q81.961,218.045 81.728,228.35 Q81.628,232.804 81.524,234.387 Q81.034,241.914 74.726,244.933 Q69.687,247.345 64.615,245.003 Q61.749,243.679 59.916,241.107 Q58.785,239.52 58.217,237.648 Q57.941,236.74 57.804,235.77 Q57.729,235.233 57.684,234.58 Q57.564,232.8 57.509,227.562 Q57.486,225.396 57.527,224.819 Q57.632,223.319 58.094,221.921 Q58.274,211.265 58.471,191.362 Q58.52,186.443 62.033,182.999 Q65.546,179.555 70.466,179.604 Q75.385,179.653 78.829,183.166 Q82.273,186.679 82.224,191.599 Z"/>
  <path fill="rgb(19.215686%, 47.843137%, 43.921569%)" opacity="0.155" d="M268.591,386.562 Q264.902,386.588 261.631,386.614 Q259.126,392.763 251.587,391.161 Q248.466,390.497 246.673,388.971 Q244.026,388.469 237.906,387.77 Q233.935,387.317 232.819,387.051 Q229.258,386.2 227.248,383.351 Q224.423,379.347 226.204,374.783 Q227.298,371.982 229.849,370.375 Q231.181,369.536 232.762,369.169 Q233.915,368.902 236.031,368.799 Q240.571,368.578 268.464,368.383 Q277.554,368.32 277.617,377.409 Q277.68,386.499 268.591,386.562 Z"/>
  <path fill="rgb(100%, 93.333333%, 77.254902%)" opacity="0.996" d="M215.734,35.256 Q210.887,136.696 214.297,200.586 Q217.283,256.537 225.094,268.307 Q229.034,263.638 233.538,248.433 Q244.086,212.826 252.105,138.571 Q252.717,132.903 258.386,133.515 Q261.22,133.821 262.484,135.391 Q263.748,136.961 263.442,139.796 Q255.312,215.076 244.472,251.672 Q239.202,269.461 233.59,275.916 Q229.383,280.755 224.345,280.438 Q219.316,280.121 215.714,274.794 Q206.077,260.542 202.91,201.194 Q199.469,136.728 204.344,34.712 Q204.616,29.017 210.311,29.289 Q213.159,29.425 214.515,30.917 Q215.87,32.409 215.734,35.256 Z"/>
  <path fill="rgb(53.333333%, 54.509804%, 56.862745%)" opacity="0.626" d="M151.912,158.12 Q151.905,158.163 151.897,158.217 Q148.764,178.301 151.13,232.75 Q151.721,246.348 142.523,256.381 Q133.325,266.414 119.727,267.005 Q106.129,267.596 96.096,258.398 Q86.062,249.2 85.472,235.602 Q82.823,174.627 86.962,148.09 Q92.919,109.895 120.714,102.648 Q133.885,99.214 145.626,106.099 Q157.367,112.985 160.801,126.155 Q164.235,139.326 157.35,151.067 Q154.998,155.079 151.912,158.12 Z"/>
  <path fill="rgb(50.980392%, 48.627451%, 19.215686%)" opacity="0.349" d="M358.77,119.119 Q358.577,142.875 358.362,176.465 Q358.342,179.479 355.328,179.459 Q353.821,179.45 353.073,178.691 Q352.324,177.933 352.334,176.426 Q352.977,75.773 353.427,63.323 Q353.494,61.473 353.581,60.908 Q353.724,59.981 354.278,59.318 Q355.336,58.053 356.97,58.257 Q358.312,58.423 359.083,59.537 Q359.408,60.006 359.548,60.577 Q359.64,60.952 359.688,61.65 Q359.812,63.457 359.938,70.289 Q360.172,83 360.463,116.271 Q360.476,117.777 359.729,118.538 Q359.348,118.925 358.77,119.119 Z"/>
  <path fill="rgb(3.529412%, 5.490196%, 15.686275%)" opacity="0.408" d="M290.192,358.747 Q299.252,358.688 305.319,342.472 Q310.746,327.966 311.409,308.581 Q307.703,310.487 303.435,309.671 Q298.329,308.694 295.409,304.392 Q292.489,300.091 293.466,294.985 Q296.867,277.213 300.999,268.92 Q304.085,262.726 308.555,259.907 Q317.426,254.315 325.7,260.759 Q336.101,268.86 336.579,300.055 Q337.027,329.352 328.828,351.267 Q316.703,383.677 290.355,383.847 Q285.156,383.881 281.457,380.229 Q277.757,376.576 277.723,371.378 Q277.69,366.18 281.342,362.48 Q284.994,358.78 290.192,358.747 Z"/>
  <path fill="rgb(35.686275%, 28.627451%, 23.137255%)" opacity="0.68" d="M361.078,11.366 Q361.422,11.563 361.691,11.962 Q361.866,12.222 361.944,12.532 Q362.006,12.781 362.012,13.168 Q362.024,13.993 361.817,18.049 Q361.521,23.866 359.473,60.07 Q358.496,77.348 357.919,87.563 Q357.87,88.433 357.411,88.843 Q356.951,89.254 356.082,89.204 Q354.342,89.106 354.44,87.367 Q354.999,77.457 355.994,59.874 Q358.041,23.68 358.337,17.871 Q358.408,16.473 358.453,15.483 Q358.259,15.215 358.125,14.831 Q358.033,14.566 357.983,14.18 Q357.913,13.639 357.88,12.537 Q357.827,10.795 359.569,10.743 Q360.439,10.716 360.888,11.139 Q360.995,11.24 361.078,11.366 Z"/>
  <path fill="rgb(86.27451%, 96.078431%, 95.686275%)" opacity="0.012" d="M6.467,291.373 Q5.618,287.89 5.492,284.811 Q5.415,282.932 7.294,282.855 Q8.234,282.817 8.723,283.267 Q9.212,283.718 9.25,284.657 Q9.391,288.104 10.585,292.217 Q10.931,293.407 10.999,293.856 Q11.329,296.019 9.47,296.514 Q8.313,296.822 5.068,294.854 Q4.264,294.366 4.106,293.721 Q3.947,293.075 4.435,292.271 Q5.237,290.948 6.467,291.373 Z"/>
  <path fill="rgb(45.882353%, 36.862745%, 41.176471%)" opacity="0.797" d="M63.929,241.227 Q66.234,286.928 62.46,333.892 Q60.803,354.506 62.609,356.532 Q64.282,358.409 83.492,357.86 Q139.391,356.262 198.717,365.466 Q203.919,366.273 203.112,371.475 Q202.708,374.076 201.206,375.175 Q199.704,376.273 197.103,375.87 Q138.729,366.813 83.793,368.384 Q70.847,368.754 66.516,368.366 Q58.407,367.64 54.75,363.537 Q51.194,359.548 50.985,351.208 Q50.872,346.659 51.966,333.049 Q55.685,286.771 53.415,241.757 Q53.149,236.5 58.407,236.235 Q61.035,236.102 62.416,237.35 Q63.797,238.598 63.929,241.227 Z"/>
  <path fill="rgb(14.117647%, 7.058824%, 40.392157%)" opacity="0.538" d="M340.988,208.801 Q340.936,201.215 324.022,198.444 Q320.328,197.838 319.319,197.426 Q317.645,196.741 317.623,195.305 Q317.603,194.027 319.107,193.046 Q321.941,191.196 341.619,185.037 Q343.223,184.536 343.724,186.139 Q343.975,186.94 343.7,187.467 Q343.425,187.993 342.623,188.244 Q327.913,192.848 323.022,194.864 Q323.704,194.987 324.565,195.128 Q344.276,198.358 344.348,208.777 Q344.36,210.457 342.68,210.469 Q341.84,210.475 341.417,210.058 Q340.994,209.641 340.988,208.801 Z"/>
  <path fill="rgb(29.803922%, 38.823529%, 45.882353%)" opacity="0.412" d="M214.528,128.463 Q329.362,132.313 359.137,130.505 Q349.918,127.915 326.436,122.42 Q321.102,121.172 318.36,120.527 Q316.486,120.086 315.769,118.928 Q315.052,117.77 315.493,115.895 Q316.375,112.146 320.124,113.028 Q322.872,113.674 328.192,114.919 Q356.455,121.532 364.455,124.041 Q371.474,126.242 373.519,128.176 Q374.845,129.429 375.102,131.04 Q375.461,133.278 373.822,134.955 Q372.452,136.357 369.353,137.068 Q353.013,140.814 214.269,136.162 Q210.42,136.033 210.549,132.183 Q210.678,128.334 214.528,128.463 Z"/>
  <path fill="rgb(55.294118%, 50.980392%, 0%)" opacity="0.177" d="M332.805,141.279 Q333.454,180.73 335.495,192.242 Q338.977,192.926 341.425,196.191 Q344.189,199.878 345.529,209.42 Q348.252,228.818 348.926,291.34 Q349.013,299.332 341.02,299.419 Q337.023,299.462 335.004,297.485 Q332.984,295.508 332.941,291.512 Q332.278,230.02 329.698,211.643 Q329.413,209.615 329.193,208.285 Q326.425,207.783 324.247,205.663 Q321.135,202.635 319.798,195.279 Q317.496,182.61 316.82,141.542 Q316.689,133.55 324.681,133.418 Q332.673,133.287 332.805,141.279 Z"/>
  <path fill="rgb(61.176471%, 82.352941%, 49.019608%)" opacity="0.775" d="M336.118,258.904 Q332.806,263.932 326.971,272.934 Q315.102,291.246 310.596,297.107 Q299.962,310.938 289.489,310.897 Q275.137,310.84 269.701,291.386 Q267.03,281.826 264.325,259.669 Q263.624,253.926 267.19,249.369 Q270.755,244.811 276.499,244.11 Q282.242,243.409 286.799,246.975 Q291.357,250.54 292.058,256.284 Q293.168,265.375 294.206,271.891 Q297.956,266.333 303.526,257.738 Q309.42,248.646 312.788,243.533 Q315.971,238.701 321.639,237.536 Q327.307,236.37 332.139,239.554 Q336.97,242.737 338.136,248.405 Q339.302,254.072 336.118,258.904 Z"/>
  <path fill="rgb(54.509804%, 70.196078%, 43.529412%)" opacity="0.498" d="M251.777,373.335 Q238.213,371.253 234.118,369.256 Q230.732,367.604 231.752,365.127 Q232.407,363.535 235.378,362.666 Q244.542,359.986 267.742,360.757 Q269.723,360.823 269.657,362.804 Q269.592,364.786 267.61,364.72 Q246.025,364.003 237.26,366.261 Q241.517,367.748 252.379,369.415 Q254.339,369.716 254.038,371.676 Q253.737,373.636 251.777,373.335 Z"/>
  <path fill="rgb(56.862745%, 21.176471%, 38.039216%)" opacity="0.435" d="M80.915,33.439 Q83.167,80.657 81.157,85.649 Q78.068,93.321 69.88,93.961 Q61.436,94.622 57.272,87.192 Q56.223,85.321 55.719,82.982 Q55.397,81.488 55.211,79.553 Q54.971,77.063 55.159,75.318 Q55.355,73.501 55.98,71.876 Q55.972,71.389 55.963,70.873 Q55.743,58.998 54.585,34.694 Q54.325,29.241 57.997,25.201 Q61.669,21.161 67.122,20.901 Q72.576,20.641 76.616,24.313 Q80.655,27.985 80.915,33.439 Z"/>
  <path fill="rgb(41.568627%, 34.901961%, 27.843137%)" d="M198.99,176.946 Q166.186,181.998 100.258,184.494 Q81.406,185.208 65.331,185.513 Q59.958,185.615 59.407,185.585 Q59.216,185.575 59.033,185.546 Q58.297,185.431 57.669,185.03 Q54.782,183.185 56.523,180.234 Q57.152,179.169 58.307,178.725 Q58.812,178.531 59.373,178.493 Q59.482,178.486 59.678,178.479 Q59.992,178.468 60.645,178.454 Q62.132,178.42 64.83,178.376 Q65.219,178.37 65.566,178.407 Q81.42,178.103 99.99,177.4 Q165.509,174.919 197.909,169.929 Q201.417,169.389 201.958,172.897 Q202.498,176.406 198.99,176.946 Z"/>
  <path fill="rgb(83.529412%, 71.372549%, 44.705882%)" opacity="0.151" d="M292.857,40.593 Q291.482,39.456 289.061,37.72 Q282.901,33.302 281.158,30.43 Q278.115,25.414 280.854,20.576 Q282.79,17.157 287.543,15.285 Q298.844,10.833 351.202,9.443 Q354.975,9.343 356.911,11.179 Q358.847,13.015 358.947,16.788 Q359.148,24.333 351.603,24.533 Q315.228,25.499 300.747,27.62 Q305.821,31.624 307.597,34.655 Q313.686,45.041 302.105,52.517 Q298.935,54.564 296.326,54.002 Q293.717,53.44 291.67,50.269 Q287.947,44.501 292.857,40.593 Z"/>
  <path fill="rgb(70.588235%, 62.745098%, 71.372549%)" opacity="0.441" d="M304.218,383.385 Q307.522,383.246 313.988,382.97 Q355.154,381.213 366.838,381.38 Q376.779,381.523 379.599,382.842 Q381.903,383.92 382.392,386.13 Q382.953,388.659 380.873,390.585 Q379.429,391.923 375.72,393.296 Q372.034,394.66 370.669,390.974 Q370.339,390.082 370.305,389.327 Q368.718,389.27 366.725,389.241 Q355.265,389.076 314.323,390.825 Q307.846,391.101 304.548,391.24 Q300.621,391.405 300.456,387.478 Q300.29,383.551 304.218,383.385 Z"/>
  <path fill="rgb(32.54902%, 35.686275%, 38.823529%)" opacity="0.976" d="M405.629,385.103 Q371.267,390.023 268.758,391.736 Q175.618,393.293 121.551,396.236 Q115.007,396.592 110.128,392.217 Q105.249,387.841 104.893,381.297 Q104.537,374.754 108.912,369.874 Q113.288,364.995 119.832,364.639 Q174.493,361.664 268.229,360.098 Q368.75,358.418 401.144,353.78 Q407.632,352.851 412.876,356.781 Q418.12,360.712 419.049,367.199 Q419.977,373.686 416.047,378.93 Q412.116,384.174 405.629,385.103 Z"/>
  <path fill="rgb(4.705882%, 7.843137%, 12.156863%)" opacity="0.693" d="M368.299,15.324 Q-11.395,17.042 -49.009,14.262 Q-56.866,13.682 -60.058,12.35 Q-65.441,10.104 -67.362,4.81 Q-70.699,-4.385 -62.554,-10.008 Q-60.104,-11.699 -56.185,-12.567 Q-49.447,-14.06 -25.454,-16.081 Q11.605,-19.203 126.414,-26.304 Q131.57,-26.623 135.442,-23.203 Q139.313,-19.782 139.632,-14.625 Q139.822,-11.566 138.695,-8.96 Q230.996,-9 368.186,-9.621 Q373.352,-9.644 377.022,-6.008 Q380.691,-2.371 380.715,2.795 Q380.738,7.961 377.101,11.631 Q373.465,15.301 368.299,15.324 Z"/>
  <path fill="rgb(63.529412%, 51.764706%, 50.980392%)" d="M174.828,119.049 Q152.082,116.287 124.343,117.272 Q123.464,117.323 122.638,117.369 Q120.804,117.471 119.716,117.514 Q118.971,117.543 118.444,117.546 Q116.073,117.562 113.8,117.123 Q110.943,116.57 108.312,115.33 Q103.867,113.236 100.653,109.521 Q92.729,100.362 95.711,88.623 Q99.06,75.438 112.205,71.919 Q113.756,71.503 115.364,71.303 Q116.926,71.108 121.307,70.94 Q121.719,70.924 122.131,70.909 Q133.175,70.247 153.142,68.603 Q160.608,67.988 166.708,71.627 Q173.727,72.162 180.422,72.975 Q189.965,74.134 195.893,81.7 Q201.821,89.267 200.662,98.809 Q199.503,108.351 191.936,114.279 Q184.37,120.207 174.828,119.049 Z"/>
  <path fill="rgb(100%, 92.156863%, 72.941176%)" opacity="0.972" d="M350.666,24.405 Q350.316,45.26 351.564,109.351 Q353.293,198.149 351.751,217.876 Q351.211,224.791 344.296,224.251 Q340.838,223.981 339.244,222.117 Q337.651,220.253 337.921,216.796 Q339.409,197.742 337.694,109.621 Q336.442,45.278 336.795,24.173 Q336.853,20.705 338.616,19 Q340.379,17.296 343.847,17.354 Q350.782,17.47 350.666,24.405 Z"/>
  <path fill="rgb(36.078431%, 38.431373%, 41.176471%)" opacity="0.663" d="M87.179,353.715 Q88.096,328.537 87.283,295.635 Q86.992,283.874 95.103,275.353 Q103.214,266.831 114.974,266.541 Q126.735,266.25 135.257,274.361 Q143.778,282.472 144.069,294.232 Q146.608,397.034 131.729,438.551 Q122.223,465.076 103.339,473.069 Q90.75,478.397 77.508,474.559 Q67.943,471.787 59.755,464.425 Q48.845,454.615 41.514,437.956 Q34.929,422.991 33.397,407.763 Q31.305,386.979 39.763,372.535 Q46.34,361.302 57.878,356.008 Q68.903,350.95 82.022,352.613 Q84.72,352.955 87.179,353.715 Z"/>
  <path fill="rgb(28.235294%, 23.137255%, 35.686275%)" opacity="0.271" d="M292.238,25.986 Q345.463,23.244 362.016,28.183 Q369.283,30.352 373.421,34.843 Q382.436,44.628 376.124,56.328 Q371.996,63.981 359.82,68.881 Q343.357,75.508 322.23,77.183 Q288.975,79.821 282.288,61.176 Q281.045,57.711 281.306,54.319 Q276.821,49.871 276.49,43.445 Q276.135,36.568 280.748,31.454 Q285.361,26.34 292.238,25.986 Z"/>
  <path fill="rgb(99.607843%, 91.372549%, 72.941176%)" opacity="0.794" d="M363.743,354.473 Q357.046,236.572 349.537,198.567 Q347.044,211.779 344.46,237.261 Q344.127,240.549 342.316,242.027 Q340.505,243.505 337.216,243.171 Q330.639,242.504 331.306,235.927 Q335.966,189.963 341.312,179.866 Q344.097,174.604 348.772,174.16 Q353.984,173.664 357.242,178.998 Q359.98,183.48 362.347,195.195 Q370.126,233.698 376.944,353.723 Q377.319,360.323 370.719,360.698 Q364.118,361.073 363.743,354.473 Z"/>
  <path fill="rgb(100%, 23.137255%, 14.509804%)" opacity="0.285" d="M258.762,27.853 Q272.298,25.099 282.586,29.991 Q294.571,35.691 296.245,47.485 Q298.181,61.131 285.544,68.416 Q275.98,73.929 261.275,71.711 Q255.821,70.888 252.546,66.449 Q249.271,62.011 250.094,56.557 Q250.593,53.249 252.422,50.743 Q249.256,47.919 248.369,43.558 Q247.269,38.153 250.313,33.553 Q253.357,28.953 258.762,27.853 Z"/>
  <path fill="rgb(10.196078%, 30.588235%, 26.27451%)" opacity="0.183" d="M48.846,158.206 Q48.654,167.186 47.644,182.802 Q43.84,241.589 45.167,359.647 Q45.187,361.451 44.295,362.363 Q43.403,363.275 41.599,363.296 Q37.991,363.336 37.951,359.728 Q36.621,241.396 40.443,182.336 Q41.443,166.876 41.631,158.052 Q41.669,156.248 42.59,155.366 Q43.511,154.483 45.315,154.522 Q48.923,154.598 48.846,158.206 Z"/>
  <path fill="rgb(53.333333%, 28.627451%, 34.117647%)" opacity="0.186" d="M202.307,344.61 Q206.1,271.565 212.712,190.019 Q213.989,174.27 214.715,163.62 Q208.775,165.387 203.342,166.36 Q179.541,170.624 153.186,164.424 Q143.897,162.239 138.875,154.126 Q133.852,146.013 136.037,136.725 Q138.222,127.436 146.335,122.414 Q154.448,117.391 163.736,119.576 Q180.806,123.592 195.217,121.01 Q203.288,119.564 214.858,114.479 Q226.414,109.4 233.32,109.285 Q245.154,109.087 253.155,117.478 Q258.809,123.407 260.668,132.473 Q262.77,142.728 258.634,193.742 Q252.076,274.623 248.318,346.999 Q247.823,356.528 240.735,362.917 Q233.647,369.305 224.118,368.81 Q214.589,368.315 208.201,361.227 Q201.812,354.139 202.307,344.61 Z"/>
  <path fill="rgb(75.294118%, 26.666667%, 0%)" opacity="0.189" d="M211.422,66.814 Q212.894,57.053 214.427,48.406 Q213.86,48.052 213.283,47.622 Q209.452,44.769 208.963,41.427 Q208.475,38.086 211.327,34.255 Q216.397,27.449 220.177,20.746 Q221.179,16.702 222.203,13.072 Q224.452,5.103 226.49,0.364 Q230.66,-9.333 238.051,-8.892 Q247.218,-8.346 247.353,1.354 Q247.379,3.246 246.86,5.763 Q245.966,10.091 243.669,15.874 Q241.317,21.796 238.139,27.725 Q234.058,44.829 230.313,69.663 Q229.6,74.386 226.883,76.391 Q224.165,78.396 219.443,77.684 Q209.997,76.259 211.422,66.814 Z"/>
  <path fill="rgb(87.45098%, 49.019608%, 50.980392%)" opacity="0.685" d="M127.171,173.447 Q113.875,171.523 100.518,172.82 Q95.803,173.277 93.714,173.103 Q86.999,172.544 83.773,167.209 Q81.244,163.026 81.926,149.413 Q82.528,137.412 82.587,128.064 Q82.618,123.274 85.028,120.894 Q87.438,118.514 92.229,118.544 Q101.81,118.605 101.749,128.186 Q101.687,137.952 101.064,150.373 Q100.975,152.153 100.915,153.548 Q115.447,152.389 129.915,154.483 Q139.397,155.855 138.025,165.337 Q136.653,174.819 127.171,173.447 Z"/>
  <path fill="rgb(59.607843%, 52.54902%, 50.588235%)" opacity="0.246" d="M138.084,179.17 Q158.859,179.617 168.362,175.097 Q169.355,174.624 170.036,174.204 Q168.186,172.925 165.117,172.046 Q155.386,169.26 142.089,172.511 Q137.29,173.684 134.305,171.872 Q131.319,170.059 130.145,165.261 Q127.799,155.664 137.396,153.317 Q155.785,148.821 170.556,153.051 Q186.912,157.734 190.219,169.766 Q194.306,184.637 176.849,192.94 Q163.117,199.472 137.659,198.924 Q127.781,198.712 127.994,188.834 Q128.206,178.957 138.084,179.17 Z"/>
  <path fill="rgb(33.72549%, 35.686275%, 39.215686%)" opacity="0.993" d="M347.285,419.327 Q347.865,350.323 348.579,242.907 Q349.758,65.403 351.455,26.29 Q352.738,-3.265 355.451,-17.401 Q358.788,-34.797 367.417,-43.756 Q373.202,-49.762 381.54,-49.919 Q389.878,-50.075 395.885,-44.29 Q401.891,-38.505 402.048,-30.167 Q402.204,-21.829 396.419,-15.822 L396.631,-15.913 Q395.788,-13.941 394.996,-9.814 Q392.839,1.427 391.684,28.036 Q390.019,66.41 388.844,243.175 Q388.131,350.631 387.551,419.665 Q387.481,428.004 381.534,433.852 Q375.588,439.699 367.249,439.629 Q358.91,439.559 353.062,433.613 Q347.215,427.666 347.285,419.327 Z"/>
  <path fill="rgb(35.686275%, 36.862745%, 40.784314%)" opacity="0.565" d="M212.391,309.334 Q215.469,397.444 235.664,450.057 Q240.443,462.507 245.256,470.42 Q248.005,457.639 247.875,437.427 Q247.446,370.633 216.605,264.199 Q213.851,254.696 218.624,246.029 Q223.396,237.362 232.899,234.609 Q242.402,231.855 251.069,236.628 Q259.735,241.4 262.489,250.903 Q295.174,363.701 295.646,437.12 Q296.146,514.959 258.595,525.618 Q235.424,532.195 215.34,510.03 Q201.762,495.045 191.065,467.176 Q168.005,407.1 164.648,311.002 Q164.303,301.114 171.05,293.878 Q177.798,286.642 187.686,286.297 Q197.573,285.951 204.809,292.699 Q212.045,299.446 212.391,309.334 Z"/>
  <path fill="rgb(34.509804%, 54.117647%, 0%)" opacity="0.01" d="M107.632,191.893 Q80.118,192.352 62.376,193.507 Q51.6,195.17 43.978,195.941 Q39.57,196.387 37.989,196.322 Q36.55,196.263 35.448,195.67 Q33.708,194.734 33.04,192.883 Q32.082,190.23 33.809,187.996 Q34.656,186.9 35.975,186.35 Q36.785,186.013 38.4,185.733 Q46.657,184.3 61.178,183.337 Q66.25,182.551 72.046,181.562 Q74.947,181.067 76.464,182.525 Q90.071,181.952 107.462,181.662 Q112.577,181.576 112.663,186.692 Q112.705,189.25 111.448,190.55 Q110.19,191.851 107.632,191.893 Z"/>
  <path fill="rgb(99.215686%, 80%, 41.176471%)" opacity="0.576" d="M154.701,290.124 Q154.479,286.153 154.545,280.129 Q154.572,277.688 154.643,276.637 Q154.682,276.061 154.76,275.612 Q155.077,273.799 156.205,272.385 Q157.979,270.16 160.8,269.794 Q164.232,269.348 166.68,271.794 Q167.927,273.04 168.444,274.733 Q168.738,275.696 168.805,277.288 Q169.208,286.844 168.665,352.16 Q168.607,359.192 161.574,359.134 Q158.058,359.105 156.315,357.332 Q154.571,355.559 154.6,352.043 Q154.945,310.551 154.912,291.806 Q154.752,291.026 154.701,290.124 Z"/>
  <path fill="rgb(38.823529%, 54.901961%, 58.431373%)" opacity="0.77" d="M322.492,227.047 Q322.147,216.751 324.094,204.237 Q324.6,200.98 324.708,199.51 Q320.651,198.78 302.828,198.891 Q259.145,199.164 217.347,197.007 Q211.286,196.694 211.598,190.633 Q211.911,184.571 217.973,184.883 Q259.419,187.022 302.753,186.751 Q326.019,186.606 330.642,188.697 Q336.164,191.195 336.799,197.3 Q337.063,199.843 336.089,206.103 Q334.319,217.487 334.625,226.641 Q334.828,232.707 328.762,232.91 Q322.695,233.113 322.492,227.047 Z"/>
  <path fill="rgb(62.352941%, 47.843137%, 43.921569%)" opacity="0.469" d="M192.25,69.82 Q161.859,69.149 141.19,69.006 Q141.245,69.386 141.292,69.768 Q143.673,89.226 125.689,104.118 Q113.591,114.137 89.283,123.324 Q79.829,126.898 70.617,122.74 Q61.405,118.581 57.832,109.127 Q54.258,99.673 58.417,90.461 Q62.575,81.249 72.029,77.676 Q77.814,75.489 82.295,73.48 Q72.684,67.195 69.249,61.136 Q63.559,51.097 67.165,40.307 Q70.26,31.044 78.969,26.003 Q84.64,22.721 93.494,21.527 Q110.706,19.207 193.328,21.031 Q203.432,21.254 210.419,28.557 Q217.407,35.86 217.184,45.964 Q216.96,56.069 209.658,63.056 Q202.355,70.043 192.25,69.82 Z"/>
  <path fill="rgb(53.333333%, 54.509804%, 58.039216%)" opacity="0.974" d="M85.835,249.169 Q86.153,257.643 85.569,267.912 Q86.958,267.828 88.571,267.725 Q133.523,264.834 183.614,267.843 Q190.056,268.23 194.337,273.058 Q198.619,277.887 198.232,284.329 Q197.845,290.771 193.016,295.052 Q188.187,299.334 181.745,298.947 Q133.589,296.054 90.571,298.82 Q80.907,299.442 77.429,299.411 Q68.679,299.332 63.254,295.946 Q55.045,290.821 54.016,280.328 Q53.701,277.107 54.225,269.795 Q55.014,258.779 54.697,250.338 Q54.454,243.89 58.843,239.158 Q63.232,234.427 69.681,234.185 Q76.13,233.943 80.861,238.332 Q85.593,242.72 85.835,249.169 Z"/>
  <path fill="rgb(69.411765%, 37.647059%, 0%)" opacity="0.243" d="M43.938,225.387 Q44.059,224.267 44.17,223.272 Q43.688,221.608 43.362,219.36 Q39.929,195.696 41.315,33.58 Q41.359,28.369 45.075,24.716 Q48.791,21.063 54.002,21.108 Q59.213,21.152 62.866,24.868 Q66.519,28.584 66.474,33.795 Q65.224,180.123 67.749,210.945 Q69.056,212.768 69.651,214.977 Q70.021,216.349 70.076,217.771 Q70.134,219.271 69.792,221.135 Q69.76,221.31 69.726,221.481 Q69.441,223.575 68.953,228.09 Q68.393,233.271 64.334,236.538 Q60.274,239.806 55.094,239.246 Q49.913,238.686 46.645,234.627 Q43.378,230.567 43.938,225.387 Z"/>
</svg>

