<svg xmlns="http://www.w3.org/2000/svg" width="384" height="384" viewBox="0 0 384 384">
  <defs/>
  <path fill="rgb(43.921569%, 59.215686%, 67.45098%)" opacity="0.019" d="M223.424,231.509 Q223.131,231.475 222.84,231.442 Q222.059,233.423 219.174,234.09 Q211.175,235.94 204.575,235.22 Q195.941,234.278 194.843,229.172 Q193.849,224.547 198.737,222.285 Q200.858,221.303 204.438,220.903 Q211.792,220.083 224.584,221.577 Q229.55,222.157 228.97,227.123 Q228.39,232.089 223.424,231.509 Z"/>
  <path fill="rgb(100%, 22.352941%, 5.098039%)" opacity="0.742" d="M253.403,387.11 Q238.061,374.995 236.916,364.511 Q236.022,356.317 243.901,347.552 Q245.384,345.903 245.899,345.182 Q245.837,345.057 245.756,344.91 Q244.629,342.853 241.485,339.831 Q234.451,333.071 241.212,326.036 Q247.972,319.002 255.007,325.762 Q273.634,343.664 258.413,360.597 Q256.982,362.189 256.455,362.918 Q257.473,365.461 265.496,371.796 Q273.153,377.842 267.106,385.5 Q261.06,393.157 253.403,387.11 Z"/>
  <path fill="rgb(76.078431%, 77.647059%, 96.862745%)" opacity="0.038" d="M381.598,122.238 Q381.131,123.619 381.521,124.744 Q381.933,125.932 383.491,126.277 Q385.284,126.675 384.887,128.468 Q384.489,130.261 382.696,129.863 Q379.135,129.073 378.051,125.947 Q377.221,123.556 378.178,120.891 Q379.228,117.969 381.319,117.547 Q382.955,117.216 384.07,118.609 Q384.822,119.548 385.145,121.29 Q385.481,123.095 383.675,123.431 Q382.773,123.598 382.237,123.231 Q381.788,122.923 381.598,122.238 Z"/>
  <path fill="rgb(64.705882%, 49.803922%, 36.078431%)" opacity="0.079" d="M275.498,43.676 Q274.276,42.874 274.346,41.687 Q274.417,40.457 275.709,39.905 Q276.686,39.488 278.228,39.524 Q280.347,39.572 280.994,40.68 Q281.878,42.193 280.271,43.277 Q279.721,43.647 278.646,43.996 Q277.706,44.301 277.143,43.866 Q276.963,43.972 276.769,44.013 Q276.193,44.132 275.498,43.676 Z"/>
  <path fill="rgb(25.098039%, 65.098039%, 94.509804%)" opacity="0.172" d="M73.981,177.024 Q102.961,177.451 113.724,196.046 Q123.17,212.365 114.53,231.811 Q105.817,251.423 86.819,255.396 Q65.017,259.956 42.584,238.623 Q40.422,236.567 42.478,234.405 Q43.507,233.324 44.561,233.297 Q45.616,233.271 46.697,234.299 Q66.861,253.474 85.597,249.555 Q101.604,246.207 109.077,229.388 Q116.482,212.722 108.56,199.036 Q99.491,183.368 73.894,182.991 Q72.402,182.969 71.667,182.212 Q70.932,181.456 70.954,179.964 Q70.998,176.98 73.981,177.024 Z"/>
  <path fill="rgb(0%, 0%, 93.72549%)" opacity="0.864" d="M218.629,354.473 Q210.199,364.539 200.47,363.752 Q197.75,363.532 196.722,364.03 Q194.937,364.896 193.159,368.611 Q188.674,377.982 181.727,413.161 Q181.395,414.845 179.71,414.512 Q178.026,414.18 178.359,412.496 Q185.39,376.891 190.062,367.129 Q193.593,359.751 200.746,360.33 Q208.706,360.973 215.997,352.269 Q217.099,350.953 218.415,352.055 Q219.731,353.157 218.629,354.473 Z"/>
  <path fill="rgb(81.176471%, 78.823529%, 63.529412%)" opacity="0.274" d="M24.831,150.781 Q23.857,150.016 24.012,148.882 Q24.082,148.366 24.406,147.923 Q22.941,147.866 20.791,147.843 Q19.171,147.825 19.189,146.205 Q19.197,145.395 19.606,144.995 Q20.016,144.594 20.826,144.603 Q27.516,144.674 28.85,145.311 Q29.956,145.839 30.001,146.949 Q30.037,147.841 29.285,148.504 Q28.92,148.826 27.919,149.348 Q27.708,149.459 27.541,149.549 Q27.499,150.008 27.105,150.509 Q26.104,151.783 24.831,150.781 Z"/>
  <path fill="rgb(76.078431%, 75.294118%, 94.901961%)" opacity="0.03" d="M279.712,210.062 Q260.196,210.381 251.032,207.618 Q244.042,205.511 240.713,200.961 Q235.288,193.545 240.099,185.377 Q246.875,173.873 276.591,166.855 Q306.251,159.85 323.21,166.361 Q337.245,171.749 339.212,185.039 Q340.967,196.903 330.867,212.438 Q328.305,216.378 323.708,217.352 Q319.111,218.327 315.171,215.765 Q311.232,213.204 310.257,208.607 Q309.283,204.01 311.844,200.07 Q317.208,191.821 316.776,188.433 Q316.308,188.016 315.078,187.543 Q305.224,183.76 284.27,188.375 Q285.966,189.162 287.418,190.567 Q290.794,193.835 290.871,198.534 Q290.947,203.232 287.679,206.609 Q284.411,209.986 279.712,210.062 Z"/>
  <path fill="rgb(88.627451%, 83.921569%, 99.215686%)" opacity="0.045" d="M99.82,65.432 Q125.862,94.008 128.849,112.722 Q130.194,121.147 127.094,128.48 Q129.902,129.41 133.609,130.59 Q138.325,132.092 140.598,136.488 Q142.872,140.885 141.371,145.601 Q139.869,150.317 135.473,152.591 Q131.076,154.864 126.36,153.363 Q108.364,147.634 103.884,144.2 Q95.675,137.908 98.758,128.646 Q99.835,125.412 103.293,121.704 Q105.674,119.15 105.25,116.489 Q103.388,104.827 82.156,81.529 Q78.823,77.871 79.052,72.927 Q79.281,67.982 82.94,64.649 Q86.598,61.315 91.542,61.544 Q96.486,61.774 99.82,65.432 Z"/>
  <path fill="rgb(99.607843%, 43.137255%, 27.058824%)" opacity="0.972" d="M159.531,335.534 Q156.587,332.057 154.274,328.079 Q150.523,321.629 152.431,314.417 Q154.339,307.204 160.789,303.453 Q167.238,299.703 174.451,301.611 Q181.663,303.519 185.414,309.968 Q188.8,315.792 198.195,319.196 Q228.09,316.909 240.981,318.395 Q246.824,319.068 250.664,320.901 Q257.564,324.193 260.285,331.04 Q264.688,342.117 256.33,350.774 Q250.804,356.498 238.332,358.244 Q218.347,361.041 197.692,356.448 Q195.978,356.067 194.32,355.641 Q187.197,356.257 179.027,357.078 Q171.603,357.824 165.827,353.102 Q160.051,348.38 159.305,340.957 Q159.021,338.125 159.531,335.534 Z"/>
  <path fill="rgb(94.117647%, 72.156863%, 100%)" opacity="0.038" d="M1.025,34.36 Q4.531,36.039 8.889,38.242 Q3.359,29.364 -0.26,23.424 Q-2.191,20.255 -1.571,17.705 Q-0.952,15.155 2.217,13.225 Q8.555,9.363 12.416,15.701 Q16.274,22.033 22.346,31.772 Q33.936,50.36 33.215,54.793 Q32.064,61.874 24.727,61.606 Q22.658,61.531 19.911,60.411 Q17.594,59.466 10.427,55.726 Q1.003,50.806 -5.384,47.749 Q-12.078,44.545 -8.874,37.85 Q-7.272,34.503 -4.797,33.631 Q-2.322,32.758 1.025,34.36 Z"/>
  <path fill="rgb(81.568627%, 99.607843%, 80.784314%)" opacity="0.005" d="M14.662,294.07 L14.302,294.266 Q6.081,297.564 0.116,285.667 Q-0.673,284.095 0.899,283.307 Q1.685,282.913 2.275,283.109 Q2.865,283.305 3.259,284.091 Q7.774,293.096 12.993,291.002 Q14.165,290.532 14.791,290.555 Q16.549,290.62 16.484,292.377 Q16.451,293.256 15.996,293.679 Q15.54,294.102 14.662,294.07 Z"/>
  <path fill="rgb(0%, 100%, 100%)" opacity="0.028" d="M386.958,363.915 Q375.077,362.153 355.585,358.864 Q326.396,353.939 319.881,353.87 Q317.573,360.788 315.906,378.848 Q314.922,389.504 306.692,396.343 Q298.461,403.183 287.805,402.199 Q277.149,401.215 270.309,392.985 Q263.47,384.754 264.453,374.098 Q266.675,350.037 270.89,337.444 Q277.769,316.892 294.133,308.302 Q307.383,301.346 328.16,302.814 Q338.146,303.52 364.181,307.913 Q383.168,311.116 394.542,312.803 Q405.127,314.374 411.502,322.97 Q417.877,331.566 416.306,342.151 Q414.735,352.737 406.14,359.111 Q397.544,365.486 386.958,363.915 Z"/>
  <path fill="rgb(91.372549%, 67.45098%, 48.627451%)" opacity="0.008" d="M131.912,119.88 Q131.477,120.924 130.848,121.414 Q129.771,122.253 128.53,121.676 Q127.753,121.315 126.605,119.738 Q125.207,117.816 124.377,117.508 Q123.099,117.034 120.945,119.162 Q119.728,120.365 118.525,119.148 Q117.323,117.931 118.54,116.729 Q122.245,113.067 125.567,114.3 Q127.36,114.966 129.359,117.707 Q129.989,117.227 130.989,117.643 Q132.569,118.3 131.912,119.88 Z"/>
  <path fill="rgb(71.372549%, 45.098039%, 38.431373%)" opacity="0.031" d="M80.728,139.907 Q80.95,139.558 81.43,139.275 Q82.14,138.858 82.704,139.004 Q83.268,139.15 83.686,139.86 Q87.895,147.017 85.313,150.646 Q83.009,153.885 78.139,152.473 Q73.224,151.048 73.211,147.171 Q73.196,142.942 80.728,139.907 Z M81.695,143.071 Q76.499,145.208 76.505,147.159 Q76.51,148.571 79.056,149.308 Q81.68,150.069 82.628,148.736 Q83.768,147.134 81.695,143.071 Z"/>
  <path fill="rgb(10.196078%, 89.411765%, 100%)" opacity="0.01" d="M15.067,311.026 Q-3.207,301.361 -17.623,288.158 Q-21.139,284.938 -22.099,284.398 Q-22.551,284.504 -23.44,284.924 Q-29.868,287.961 -32.905,281.533 Q-34.423,278.319 -33.575,275.952 Q-32.727,273.586 -29.513,272.068 Q-22.643,268.823 -16.917,271.142 Q-13.75,272.425 -8.02,277.673 Q5.052,289.645 21.714,298.458 Q27.999,301.782 24.675,308.066 Q23.013,311.208 20.611,311.948 Q18.209,312.688 15.067,311.026 Z"/>
  <path fill="rgb(72.54902%, 84.705882%, 80%)" opacity="0.006" d="M89.223,352.952 Q82.268,352.663 81.123,355.056 Q80.389,356.593 81.869,360.117 Q82.56,361.763 80.914,362.455 Q80.091,362.801 79.507,362.562 Q78.922,362.323 78.576,361.5 Q76.476,356.498 77.902,353.516 Q80.063,348.997 89.371,349.384 Q90.263,349.421 90.691,349.886 Q91.118,350.35 91.081,351.242 Q91.007,353.026 89.223,352.952 Z"/>
  <path fill="rgb(92.156863%, 94.901961%, 85.490196%)" opacity="0.04" d="M76.916,87.757 Q71.888,85.067 66.667,86.332 Q62.102,87.437 60.625,90.423 Q59.327,93.047 62.237,95.447 Q66.648,99.084 77.958,100.262 Q78.941,100.365 79.38,100.907 Q79.82,101.449 79.718,102.431 Q79.514,104.395 77.549,104.191 Q65.054,102.889 59.724,98.494 Q54.398,94.102 57.084,88.672 Q59.38,84.032 65.737,82.493 Q72.423,80.874 78.779,84.274 Q80.52,85.206 79.589,86.947 Q78.657,88.688 76.916,87.757 Z"/>
  <path fill="rgb(99.607843%, 90.588235%, 89.411765%)" opacity="0.073" d="M284.738,160.347 Q305.143,159.307 310.624,158.266 Q309.947,153.393 313.331,149.407 Q314.774,147.707 316.346,147.579 Q317.917,147.451 319.617,148.894 Q323.016,151.78 320.13,155.179 Q319.205,156.269 319.585,157.637 Q320.505,160.951 319.256,163.153 Q317.766,165.779 313.31,166.814 Q307.759,168.103 285.192,169.254 Q282.965,169.368 281.795,168.311 Q280.625,167.255 280.511,165.028 Q280.284,160.574 284.738,160.347 Z"/>
  <path fill="rgb(82.745098%, 57.647059%, 98.039216%)" opacity="0.032" d="M293.689,72.455 Q267.85,89.854 253.646,87.179 Q233.948,83.469 232.204,57.649 Q232.144,56.757 232.084,56.018 Q230.571,56.025 228.525,56.212 Q219.811,57.007 213.088,51.408 Q206.364,45.809 205.569,37.095 Q204.774,28.382 210.374,21.658 Q215.973,14.935 224.686,14.14 Q252.529,11.599 265.583,27.883 Q268.697,31.769 270.733,36.995 Q277.728,32.599 285.938,34.201 Q294.525,35.878 299.412,43.135 Q304.299,50.393 302.623,58.981 Q300.946,67.568 293.689,72.455 Z"/>
  <path fill="rgb(99.215686%, 43.137255%, 29.411765%)" opacity="0.959" d="M219.764,363.309 Q206.386,369.32 196.643,371.773 Q197.023,384.253 193.01,403.728 Q192.003,408.613 187.836,411.356 Q183.67,414.099 178.784,413.092 Q173.899,412.085 171.156,407.918 Q168.413,403.752 169.42,398.866 Q173.656,378.31 172.303,369.142 Q170.752,367.645 169.762,365.674 Q167.343,360.857 169.218,355.846 Q171.516,349.705 177.924,348.224 Q182.882,347.079 186.816,349.238 Q194.428,348.288 209.893,341.339 Q214.443,339.295 219.106,341.067 Q223.769,342.839 225.813,347.389 Q227.857,351.939 226.086,356.602 Q224.314,361.265 219.764,363.309 Z"/>
  <path fill="rgb(65.490196%, 78.039216%, 92.54902%)" opacity="0.287" d="M265.852,371.734 Q259.012,382.287 259.299,387.101 Q259.416,389.061 261.84,389.531 Q264.852,390.114 269.657,389.005 Q271.068,388.68 272.179,388.31 Q273.232,387.159 275.38,387.463 Q277.471,387.759 278.277,389.692 Q279.204,391.913 277.529,393.661 Q277.062,394.149 276.378,394.499 Q275.883,394.751 275.078,395.041 Q273.411,395.641 271.301,396.128 Q264.984,397.586 260.449,396.707 Q252.458,395.158 252.003,387.537 Q251.572,380.326 259.718,367.758 Q261.706,364.691 264.773,366.679 Q267.84,368.667 265.852,371.734 Z M271.326,390.129 Q271.203,390.547 271.202,390.987 Q271.218,390.784 271.249,390.57 Q271.281,390.341 271.326,390.129 Z"/>
  <path fill="rgb(83.137255%, 58.823529%, 100%)" opacity="0.028" d="M355.912,60.448 Q300.975,50.311 276.118,40.868 Q259.442,34.533 250.264,25.138 Q247.112,24.609 239.166,24.317 Q231.222,24.025 225.811,18.201 Q220.399,12.377 220.691,4.432 Q220.983,-3.513 226.807,-8.924 Q232.631,-14.335 240.576,-14.043 Q255.918,-13.48 263.285,-11.129 Q271.226,-8.595 277.628,-1.784 Q287.583,8.806 362.877,22.7 Q370.695,24.143 375.203,30.691 Q379.711,37.239 378.269,45.057 Q376.826,52.875 370.278,57.383 Q363.73,61.891 355.912,60.448 Z"/>
  <path fill="rgb(90.588235%, 67.45098%, 98.039216%)" opacity="0.025" d="M175.463,47.126 Q164.733,55.538 163.335,62.187 Q162.578,65.786 165.279,72.423 Q168.082,79.31 167.712,83.409 Q167.098,90.219 159.591,96.484 Q156.599,98.981 154.102,95.989 Q151.605,92.997 154.597,90.5 Q159.625,86.304 159.949,82.709 Q160.149,80.495 158.06,75.361 Q154.46,66.515 155.708,60.583 Q157.69,51.156 170.654,40.992 Q172.187,39.789 173.555,39.955 Q174.923,40.12 176.126,41.654 Q178.53,44.721 175.463,47.126 Z"/>
  <path fill="rgb(43.529412%, 84.313725%, 73.333333%)" opacity="0.029" d="M332.175,382.653 Q331.237,378.295 330.3,372.559 Q330.282,372.451 330.265,372.35 Q318.041,373.279 304.556,371.718 Q296.807,370.821 297.704,363.072 Q298.601,355.323 306.35,356.22 Q318.841,357.666 329.959,356.723 Q338.018,356.04 341.465,359.219 Q344.364,361.892 345.696,370.042 Q346.571,375.393 347.427,379.371 Q349.068,386.997 341.442,388.638 Q333.816,390.279 332.175,382.653 Z"/>
  <path fill="rgb(99.607843%, 99.215686%, 99.607843%)" opacity="0.227" d="M19.243,41.622 Q16.628,36.571 13.44,31.304 Q12.558,29.846 14.016,28.964 Q14.745,28.523 15.33,28.667 Q15.915,28.81 16.356,29.539 Q20.158,35.821 23.166,41.813 Q24.984,45.434 23.643,46.337 Q22.279,47.257 21.194,45.818 Q21.036,45.609 20.792,45.224 Q20.326,44.491 19.484,43.031 Q19.059,42.293 19.215,41.711 Q19.227,41.666 19.243,41.622 Z"/>
  <path fill="rgb(77.254902%, 53.333333%, 45.882353%)" opacity="0.058" d="M195.478,10.232 Q198.243,10.941 199.648,11.048 Q199.341,9.666 198.09,5.479 Q189.465,-23.405 193.932,-53.065 Q194.161,-54.592 195.04,-55.24 Q195.918,-55.888 197.444,-55.658 Q200.497,-55.199 200.037,-52.146 Q195.776,-23.85 204.007,3.712 Q206.502,12.068 205.227,14.543 Q203.15,18.574 193.944,16.213 Q190.953,15.446 191.721,12.456 Q192.104,10.96 193.043,10.405 Q193.983,9.849 195.478,10.232 Z"/>
  <path fill="rgb(11.372549%, 63.137255%, 86.27451%)" opacity="0.014" d="M55.507,369.586 Q46.866,289.313 73.478,226.939 Q96.252,173.562 133.783,152.23 Q156.731,139.187 176.889,144.991 Q192.036,149.353 200.312,162.621 Q207.143,173.573 207.029,187.841 Q206.729,225.662 154.623,285.78 Q146.217,295.479 133.414,296.393 Q125.227,296.978 118.31,293.751 Q113.096,325.513 117.126,362.953 Q118.5,375.715 110.447,385.71 Q102.394,395.705 89.633,397.079 Q76.871,398.453 66.876,390.4 Q56.881,382.348 55.507,369.586 Z"/>
  <path fill="rgb(100%, 98.823529%, 78.823529%)" opacity="0.032" d="M34.339,79.073 Q31.639,72.74 34.778,68.036 Q36.513,65.437 41.873,61.956 Q46.88,58.705 47.588,56.792 Q48.721,53.726 43.718,48.016 Q43.027,47.227 43.075,46.486 Q43.124,45.746 43.914,45.054 Q45.492,43.671 46.876,45.25 Q53.525,52.838 51.525,58.248 Q50.335,61.467 44.159,65.477 Q39.524,68.486 38.27,70.366 Q36.391,73.182 38.2,77.427 Q39.023,79.358 37.093,80.181 Q36.127,80.592 35.439,80.315 Q34.75,80.038 34.339,79.073 Z"/>
  <path fill="rgb(56.078431%, 79.215686%, 67.843137%)" opacity="0.104" d="M185.356,174.528 Q185.542,175.506 185.493,175.986 Q185.413,176.765 184.994,177.175 Q184.999,178.234 183.738,178.614 Q182.105,179.106 181.613,177.473 Q180.583,174.057 180.609,173.445 Q180.654,172.355 181.627,171.917 Q182.725,171.422 183.581,172.296 Q183.783,172.501 183.976,172.846 Q184.034,172.949 184.13,173.139 Q185.118,173.282 185.356,174.528 Z"/>
  <path fill="rgb(75.686275%, 88.235294%, 69.019608%)" opacity="0.004" d="M254.059,231.835 Q247.293,234.291 243.467,234.409 Q238.15,234.574 237.543,230.709 Q237.109,227.943 240.034,225.334 Q242.387,223.235 245.392,222.55 Q248.162,221.919 248.794,224.689 Q249.425,227.459 246.655,228.091 Q246.101,228.217 245.586,228.437 Q248.192,227.919 252.121,226.493 Q254.791,225.524 255.761,228.195 Q256.73,230.865 254.059,231.835 Z"/>
  <path fill="rgb(67.058824%, 50.980392%, 43.529412%)" opacity="0.135" d="M252.088,46.684 Q251.201,46.294 250.814,45.66 Q250.148,45.674 249.547,44.956 Q249.007,44.309 249.06,43.716 Q249.113,43.122 249.759,42.582 Q250.076,42.318 250.594,41.883 Q252.342,40.421 252.627,40.224 Q253.105,39.893 253.612,39.87 Q254.402,39.833 254.938,40.414 Q255.43,40.948 255.382,41.675 Q255.359,42.035 255.187,42.37 Q255.094,42.551 254.806,42.947 Q254.324,43.608 254.103,44.016 Q254.807,44.683 254.309,45.818 Q253.97,46.589 253.415,46.806 Q252.86,47.022 252.088,46.684 Z"/>
  <path fill="rgb(92.941176%, 63.529412%, 82.352941%)" opacity="0.035" d="M311.754,152.011 Q311.415,154.647 310.403,156.166 Q308.278,159.359 304.614,158.489 Q302.551,158 299.488,154.848 Q297.809,153.119 297.054,152.578 Q296.889,152.809 296.701,153.132 Q295.236,155.646 293.93,161.303 Q292.919,165.678 288.545,164.668 Q286.357,164.163 285.516,162.816 Q284.675,161.47 285.18,159.283 Q288.566,144.617 295.512,143.429 Q299.666,142.718 304.745,147.43 Q305.946,146.736 307.874,146.984 Q312.328,147.558 311.754,152.011 Z"/>
  <path fill="rgb(72.941176%, 51.764706%, 76.078431%)" opacity="0.051" d="M361.368,161.045 Q358.857,164.377 359.153,166.568 Q359.346,167.996 360.868,168.323 Q366.377,169.506 370.589,161.157 Q371.318,159.711 372.765,160.441 Q373.488,160.805 373.667,161.349 Q373.846,161.893 373.481,162.616 Q368.143,173.199 360.188,171.49 Q356.44,170.686 355.943,167.002 Q355.469,163.492 358.781,159.096 Q359.755,157.802 361.049,158.777 Q362.343,159.751 361.368,161.045 Z"/>
  <path fill="rgb(52.941176%, 56.862745%, 41.960784%)" opacity="0.022" d="M239.618,229.749 Q250.831,228.462 253.334,229.365 Q254.44,229.764 255.063,230.717 Q256.65,233.142 254.469,235.069 Q253.782,235.676 252.717,235.926 Q251.944,236.108 250.429,236.247 Q247.148,236.549 241.236,236.636 Q240.261,236.65 239.569,236.373 Q237.031,236.288 236.702,233.421 Q236.324,230.127 239.618,229.749 Z"/>
  <path fill="rgb(97.647059%, 43.137255%, 28.235294%)" opacity="0.894" d="M167.061,362.677 Q156.427,350.359 155.211,336.638 Q154.157,324.735 159.787,317.601 Q164.147,312.077 170.043,313.239 Q176.49,314.509 177.963,322.188 Q179.562,330.522 174.186,347.052 Q175.935,349.971 178.431,352.862 Q183.339,358.547 177.654,363.455 Q174.811,365.909 172.163,365.714 Q169.515,365.52 167.061,362.677 Z"/>
  <path fill="rgb(77.647059%, 76.470588%, 67.058824%)" opacity="0.033" d="M255.252,179.33 Q244.396,173.759 241.244,170.929 Q238.576,168.534 235.802,162.445 Q232.646,155.52 229.217,149.689 Q228.783,148.95 228.935,148.364 Q229.087,147.777 229.826,147.342 Q231.304,146.473 232.173,147.951 Q235.693,153.936 238.922,161.023 Q241.4,166.46 243.535,168.377 Q246.357,170.911 256.818,176.279 Q258.344,177.062 257.561,178.588 Q256.778,180.113 255.252,179.33 Z"/>
  <path fill="rgb(98.431373%, 41.568627%, 19.215686%)" d="M170.885,316.653 Q163.84,325.964 140.036,313.951 Q137.857,312.852 137.317,311.213 Q136.777,309.574 137.877,307.395 Q140.076,303.037 144.433,305.236 Q154.639,310.386 160.181,310.993 Q162.721,311.27 163.103,310.76 Q164.061,309.475 162.351,303.652 Q162.087,302.751 162.01,302.367 Q161.549,300.039 162.952,298.251 Q165.711,294.737 169.473,297.167 Q170.1,297.573 170.603,298.164 Q171.066,298.71 172.803,301.635 Q175.406,306.019 177.713,309.797 Q180.256,313.962 176.09,316.506 Q174.007,317.777 172.33,317.372 Q171.565,317.187 170.885,316.653 Z"/>
  <path fill="rgb(77.254902%, 36.470588%, 56.470588%)" opacity="0.024" d="M321.62,216.298 Q322.168,215.839 323.174,215.817 Q329.564,215.678 330.714,218.455 Q332.039,221.655 327.587,223.653 Q324.266,225.143 321.355,224.142 Q317.249,222.729 317.411,217.608 Q317.447,216.478 318.03,215.93 Q318.613,215.383 319.744,215.419 Q321.104,215.462 321.62,216.298 Z"/>
  <path fill="rgb(100%, 100%, 96.862745%)" opacity="0.111" d="M128.266,83.11 Q124.52,89.382 122.277,90.913 Q120.496,92.128 119.106,91.101 Q118.066,90.333 118.034,88.656 Q117.989,86.288 119.319,84.334 Q120.24,82.983 121.515,82.801 Q122.87,82.607 123.875,83.687 Q124.552,82.638 125.32,81.351 Q126.2,79.879 127.672,80.758 Q128.409,81.198 128.557,81.785 Q128.705,82.373 128.266,83.11 Z"/>
  <path fill="rgb(42.352941%, 58.823529%, 47.058824%)" opacity="0.009" d="M109.539,292.908 Q109.387,293.531 109.258,294.079 Q109.068,295.493 108.81,296.811 Q108.638,297.683 108.504,298.038 Q108.321,298.523 107.945,298.823 Q107.384,299.272 106.672,299.187 Q105.879,299.091 105.442,298.421 Q105.214,298.069 105.17,297.643 Q105.144,297.381 105.198,296.965 Q105.342,295.86 105.9,293.466 Q106.482,289.01 106.339,283.478 Q106.295,281.774 107.999,281.729 Q109.703,281.685 109.747,283.389 Q109.864,287.89 109.518,291.745 Q109.708,292.218 109.539,292.908 Z"/>
</svg>

