<svg xmlns="http://www.w3.org/2000/svg" width="384" height="384" viewBox="0 0 384 384">
  <defs/>
  <path fill="rgb(37.647059%, 59.607843%, 84.313725%)" opacity="0.923" d="M324.446,165.493 Q325.767,175.082 325.833,182.708 Q327.441,182.771 329.132,182.907 Q334.272,183.323 337.613,187.251 Q340.953,191.179 340.538,196.319 Q340.123,201.459 336.194,204.8 Q332.266,208.141 327.126,207.726 Q319.632,207.12 317.428,208.235 Q308.452,212.778 302.052,205.491 Q296.964,199.699 299.987,192.178 Q302.222,186.62 299.78,168.89 Q299.077,163.781 302.191,159.672 Q305.306,155.562 310.415,154.858 Q315.523,154.155 319.633,157.27 Q323.743,160.384 324.446,165.493 Z"/>
  <path fill="rgb(100%, 40%, 25.882353%)" opacity="0.352" d="M53.181,256.83 Q49.858,304.505 52.418,349.738 Q53.233,364.128 54.187,373.769 Q54.773,365.536 55.143,354.332 Q57.034,297.07 52.791,183.974 Q52.694,181.405 53.931,180.072 Q55.167,178.739 57.737,178.642 Q62.876,178.45 63.069,183.588 Q67.325,297.047 65.423,354.672 Q64.629,378.696 62.81,389.801 Q61.872,395.526 60.528,398.096 Q59.058,400.906 56.485,401.669 Q52.83,402.755 50.163,399.681 Q44.579,393.244 42.15,350.319 Q39.553,304.437 42.921,256.115 Q43.278,250.985 48.408,251.343 Q50.973,251.521 52.166,252.893 Q53.36,254.265 53.181,256.83 Z"/>
  <path fill="rgb(23.137255%, 22.352941%, 51.764706%)" opacity="0.026" d="M291.766,108.604 Q227.027,90.568 161.248,98.186 Q156.973,98.681 153.376,99.19 Q153.518,100.016 153.536,100.97 Q153.671,108.201 146.44,108.336 Q135.384,108.543 130.5,107.239 Q125.135,105.806 123.561,101.641 Q121.291,95.636 127.203,91.614 Q134.374,86.737 159.584,83.817 Q228.179,75.874 295.648,94.67 Q299.131,95.64 300.388,97.867 Q301.644,100.094 300.674,103.578 Q298.733,110.544 291.766,108.604 Z"/>
  <path fill="rgb(67.45098%, 63.921569%, 77.254902%)" opacity="0.019" d="M121.232,26.911 Q147.158,29.863 160.528,33.369 Q167.533,35.206 170.54,37.169 Q173.199,38.907 173.769,41.334 Q174.574,44.768 171.516,47.162 Q161.782,54.787 75.584,53.73 Q71.288,53.677 71.341,49.381 Q71.367,47.233 72.454,46.172 Q73.541,45.111 75.689,45.138 Q143.105,45.964 160.71,42.337 Q159.627,42.016 158.349,41.681 Q145.574,38.331 120.26,35.448 Q115.991,34.962 116.477,30.694 Q116.72,28.559 117.909,27.613 Q119.098,26.668 121.232,26.911 Z"/>
  <path fill="rgb(0%, 54.901961%, 90.588235%)" opacity="0.531" d="M238.016,162.895 Q188.92,170.44 154.028,176.287 Q189.329,175.785 238.423,174.232 Q243.885,174.059 247.869,177.799 Q251.853,181.539 252.026,187.001 Q252.199,192.463 248.459,196.447 Q244.719,200.431 239.257,200.604 Q136.704,203.848 93.38,202.527 Q71.527,201.861 62.547,199.921 Q53.926,198.057 50.165,193.025 Q44.687,185.697 49.093,177.66 Q51.051,174.089 54.955,171.618 Q70.157,161.995 234.008,136.816 Q239.409,135.986 243.815,139.218 Q248.221,142.451 249.051,147.852 Q249.881,153.253 246.649,157.659 Q243.417,162.065 238.016,162.895 Z"/>
  <path fill="rgb(30.588235%, 29.019608%, 35.294118%)" opacity="0.749" d="M266.519,358.02 Q269.183,354.376 273.668,352.647 Q279.913,350.24 286.031,352.953 Q290.709,355.027 293.217,359.167 Q315.76,357.953 342.375,356.67 Q349.059,356.348 354.014,360.847 Q358.969,365.346 359.291,372.031 Q359.613,378.716 355.114,383.67 Q350.615,388.625 343.93,388.947 Q295.552,391.278 260.825,393.372 Q252.775,395.142 242.49,396.615 Q213.67,400.743 188.052,401.021 Q182.949,401.076 180.11,400.827 Q176.625,400.522 173.999,399.44 Q162.855,394.85 163.89,382.946 Q164.684,373.814 173.015,369.686 Q177.475,367.477 195.731,365.725 Q217.393,363.647 256.229,361.279 Q259.082,360.595 261.459,359.875 Q264.725,358.886 266.519,358.02 Z"/>
  <path fill="rgb(41.960784%, 36.470588%, 13.72549%)" opacity="0.298" d="M255.819,153.973 Q249.052,188.071 237.779,197.637 Q230.761,203.592 222.037,203.173 Q213.121,202.745 206.832,195.968 Q201.135,189.828 199.208,179.318 Q196.117,162.464 202.146,146.098 Q211.245,121.398 234.514,118.601 Q242.381,117.655 248.613,122.55 Q254.844,127.444 255.79,135.311 Q256.317,139.7 255.028,143.579 Q256.909,148.48 255.819,153.973 Z"/>
  <path fill="rgb(100%, 78.039216%, 0%)" opacity="0.48" d="M252.738,141.114 Q268.794,143.301 293.121,144.036 Q317.178,144.762 325.491,148.247 Q338.86,153.852 344.242,172.232 Q349.133,188.937 350.833,228.83 Q351.953,255.103 352.855,336.604 Q352.952,345.381 353.005,350.113 Q353.06,355.032 348.141,355.087 Q343.222,355.142 343.167,350.223 Q343.115,345.6 343.017,336.713 Q342.117,255.367 341.004,229.249 Q339.355,190.553 334.8,174.996 Q330.735,161.114 321.687,157.321 Q315.057,154.541 292.824,153.87 Q267.979,153.119 251.41,150.862 Q246.536,150.199 247.2,145.324 Q247.864,140.45 252.738,141.114 Z"/>
  <path fill="rgb(100%, 100%, 45.490196%)" opacity="0.827" d="M254.93,105.639 Q276.224,107.319 300.487,116.701 Q321.708,124.906 330.076,132.358 Q333.23,135.167 334.127,138.134 Q335.263,141.891 333.246,145.138 Q331.557,147.856 328.32,148.883 Q323.799,150.318 313.213,147.632 Q291.644,142.159 243.887,121.757 Q240.389,120.263 239.387,117.767 Q238.386,115.271 239.88,111.773 Q242.635,105.324 248.796,107.361 Q250.854,105.318 254.93,105.639 Z"/>
  <path fill="rgb(41.960784%, 42.745098%, 49.019608%)" d="M247.077,383.041 Q223.848,371.394 225.044,351.142 Q226.058,333.98 242.711,323.997 Q260.217,313.503 275.838,322.768 Q292.839,332.85 293.822,361.931 Q293.975,366.467 290.876,369.782 Q287.777,373.098 283.241,373.251 Q278.705,373.404 275.39,370.306 Q272.074,367.207 271.921,362.671 Q271.343,345.579 264.66,341.616 Q260.277,339.016 253.978,342.793 Q247.251,346.825 246.92,352.433 Q246.575,358.275 256.899,363.452 Q260.956,365.486 262.387,369.793 Q263.817,374.1 261.783,378.157 Q259.749,382.214 255.441,383.644 Q251.134,385.075 247.077,383.041 Z"/>
  <path fill="rgb(88.627451%, 87.843137%, 61.960784%)" opacity="0.47" d="M83.759,332.715 Q82.439,331.364 82.77,328.73 Q83.068,326.365 84.399,325.331 Q85.73,324.297 88.094,324.595 Q97.561,325.784 121.167,324.909 Q126.439,324.713 127.598,324.739 Q128.407,324.757 128.965,324.87 Q131.13,325.306 132.222,327.166 Q133.904,330.031 131.804,332.61 Q131.178,333.38 130.286,333.848 Q129.41,334.307 127.347,334.662 Q123.657,335.295 93.18,339.339 Q90.451,339.701 88.764,339.925 Q86.401,340.238 85.063,339.214 Q83.725,338.189 83.411,335.826 Q83.162,333.947 83.759,332.715 Z"/>
  <path fill="rgb(98.039216%, 100%, 84.313725%)" opacity="0.649" d="M204.324,159.958 Q205.068,145.888 205.288,142.377 Q205.308,142.058 205.32,141.898 Q205.327,141.805 205.332,141.752 Q205.338,141.683 205.347,141.625 Q205.38,141.417 205.458,141.225 Q205.591,140.9 205.838,140.651 Q206.893,139.585 208.114,140.454 Q208.697,140.869 208.827,141.573 Q208.868,141.796 208.83,142.614 Q208.766,144.004 208.601,147.035 Q207.399,169.191 206.127,185.5 Q205.253,196.712 204.585,201.325 Q204.14,204.4 203.543,205.152 Q202.405,206.586 200.961,205.52 Q200.429,205.127 200.185,204.371 Q199.986,203.755 199.848,202.456 Q198.731,191.957 199.709,124.576 Q199.734,122.812 201.498,122.838 Q203.262,122.863 203.237,124.627 Q202.681,162.955 202.799,182.762 Q203.572,172.536 204.32,160.123 Q204.32,160.042 204.324,159.958 Z"/>
  <path fill="rgb(100%, 100%, 55.294118%)" opacity="0.928" d="M193.814,131.118 Q157.977,131.037 103.112,130.829 Q97.426,130.808 93.42,126.772 Q89.415,122.736 89.436,117.049 Q89.458,111.363 93.494,107.358 Q97.53,103.352 103.216,103.374 Q180.422,103.667 219.712,103.71 Q230.361,103.599 241.679,103.552 Q250.182,103.517 255.963,103.532 Q258.45,103.539 259.613,103.554 Q260.452,103.564 260.9,103.591 Q262.144,103.664 263.332,103.948 Q266.992,104.823 269.693,107.44 Q277.123,114.637 272.254,123.763 Q270.13,127.744 266.058,129.688 Q264.022,130.661 261.776,130.932 Q261.132,131.01 260.379,131.033 Q255.04,131.197 220.133,131.162 Q208.342,131.285 197.382,131.487 Q195.512,131.522 193.814,131.118 Z"/>
</svg>

