<svg xmlns="http://www.w3.org/2000/svg" width="384" height="384" viewBox="0 0 384 384">
  <defs/>
  <path fill="rgb(23.921569%, 0%, 36.862745%)" opacity="0.505" d="M177.888,195.715 Q138.216,195.274 115.115,215.306 Q89.121,237.846 78.376,290.185 Q77.823,292.881 76.198,293.952 Q74.573,295.024 71.877,294.47 Q66.485,293.363 67.592,287.971 Q79.088,231.975 107.902,206.989 Q134.16,184.219 178.01,184.707 Q183.515,184.768 183.453,190.272 Q183.392,195.776 177.888,195.715 Z"/>
  <path fill="rgb(21.960784%, 57.254902%, 70.980392%)" opacity="0.486" d="M67.304,76.939 Q89.467,79.354 96.99,84.735 Q103.509,89.398 101.978,96.168 Q100.868,101.075 95.261,104.504 Q87.859,109.03 74.522,110.705 Q60.633,112.45 48.669,109.891 Q45.093,109.126 43.687,106.956 Q42.281,104.785 43.046,101.208 Q44.576,94.055 51.729,95.585 Q61.269,97.626 72.699,96.19 Q78.463,95.465 82.476,94.232 Q76.507,92.658 65.719,91.483 Q58.448,90.69 59.24,83.419 Q60.032,76.147 67.304,76.939 Z"/>
  <path fill="rgb(54.509804%, 6.666667%, 16.862745%)" opacity="0.78" d="M63.405,114.07 Q87.733,111.736 104.92,119.622 Q116.231,124.812 139.953,144.104 Q165.659,165.009 185.087,178.281 Q186.492,179.24 186.714,180.422 Q186.937,181.604 185.977,183.009 Q184.058,185.818 181.249,183.899 Q161.586,170.467 135.66,149.383 Q112.608,130.637 102.083,125.807 Q86.56,118.684 64.055,120.844 Q60.669,121.169 60.344,117.782 Q60.181,116.089 60.947,115.161 Q61.712,114.233 63.405,114.07 Z"/>
</svg>

