<svg xmlns="http://www.w3.org/2000/svg" width="384" height="384" viewBox="0 0 384 384">
  <defs/>
  <path fill="rgb(0%, 94.509804%, 74.901961%)" opacity="0.62" d="M82.984,162.869 Q80.692,157.439 78.892,155.335 Q76.855,158.294 74.492,169.468 Q70.571,188.004 66.05,242.484 Q64.028,266.852 63.022,274.987 Q62.198,281.656 61.36,284.825 Q60.739,287.176 59.853,288.466 Q58.69,290.159 56.87,290.712 Q54.196,291.523 51.994,289.705 Q46.662,285.305 39.495,195.929 Q39.113,191.169 43.872,190.788 Q46.252,190.597 47.537,191.691 Q48.822,192.786 49.013,195.165 Q52.551,239.273 54.851,261.074 Q55.576,253.233 56.533,241.694 Q61.104,186.616 65.149,167.492 Q68.797,150.245 74.424,146.517 Q79.865,142.911 85.116,148.023 Q88.455,151.274 91.782,159.155 Q92.71,161.354 92.075,162.918 Q91.439,164.482 89.24,165.411 Q84.841,167.267 82.984,162.869 Z"/>
  <path fill="rgb(0%, 57.647059%, 38.823529%)" opacity="0.345" d="M163.116,230.392 Q169.624,339.325 165.388,395.107 Q163.505,419.902 159.303,430.513 Q152.379,448.001 135.793,447.489 Q120.412,447.014 113.733,430.766 Q105.189,409.983 106.359,351.004 Q107.709,282.937 122.61,208.264 Q124.355,199.518 131.773,194.569 Q139.191,189.619 147.936,191.364 Q156.681,193.109 161.631,200.527 Q166.58,207.944 164.835,216.69 Q163.758,222.086 162.756,227.444 Q163.025,228.875 163.116,230.392 Z"/>
  <path fill="rgb(57.254902%, 44.313725%, 61.960784%)" opacity="0.007" d="M35.327,99.335 Q39.148,99.07 44.484,99.196 Q47.296,99.262 47.23,102.074 Q47.197,103.48 46.477,104.166 Q45.758,104.853 44.352,104.82 Q36.688,104.64 32.565,105.284 Q31.366,105.471 30.578,105.123 Q28.084,104.022 29.095,101.489 Q29.325,100.914 29.784,100.473 Q29.917,100.346 30.142,100.17 Q30.555,99.848 30.801,99.5 Q32.426,97.204 34.722,98.829 Q35.069,99.074 35.327,99.335 Z"/>
  <path fill="rgb(54.901961%, 14.117647%, 52.941176%)" opacity="0.687" d="M330.766,342.457 Q329.998,282.019 333.553,216.874 Q335.206,186.578 335.22,172.253 Q335.241,149.656 332.436,124.811 Q332.351,124.058 332.685,123.639 Q333.019,123.22 333.771,123.135 Q335.277,122.965 335.447,124.471 Q338.272,149.487 338.25,172.256 Q338.237,186.662 336.579,217.039 Q333.029,282.083 333.796,342.418 Q333.816,343.933 332.301,343.953 Q330.785,343.972 330.766,342.457 Z"/>
  <path fill="rgb(0%, 69.019608%, 23.137255%)" opacity="0.369" d="M177.143,112.459 Q182.688,215.08 182.95,316.81 Q183.078,366.348 186.055,376.198 Q187.704,381.652 191.835,386.3 Q195.178,390.061 206.62,399.793 Q219.736,410.948 228.505,419.07 Q232.011,422.318 232.194,427.094 Q232.377,431.869 229.129,435.376 Q225.882,438.882 221.106,439.065 Q216.33,439.248 212.823,436.001 Q204.413,428.211 191.669,417.372 Q178.999,406.596 174.586,401.631 Q167.083,393.189 163.965,382.876 Q160.009,369.789 159.873,316.87 Q159.612,215.733 154.099,113.705 Q153.841,108.932 157.034,105.375 Q160.226,101.818 164.999,101.56 Q169.771,101.302 173.328,104.495 Q176.885,107.687 177.143,112.459 Z"/>
  <path fill="rgb(0%, 99.607843%, 52.54902%)" opacity="0.452" d="M92.733,396.615 Q92.817,397.991 92.902,399.37 Q93.555,409.932 82.993,410.585 Q72.431,411.239 71.778,400.677 Q64.742,286.921 68.024,215.67 Q69.415,185.469 72.537,168.631 Q76.942,144.879 89.269,144.837 Q101.388,144.796 106.429,168.175 Q110.012,184.79 112.237,214.398 Q117.482,284.195 113.524,393.235 Q113.141,403.811 102.565,403.427 Q97.278,403.235 94.73,400.495 Q93.299,398.957 92.733,396.615 Z M92.415,391.338 Q96.261,284.246 91.132,215.984 Q90.59,208.766 89.971,202.401 Q89.515,209.058 89.166,216.644 Q86.052,284.236 92.415,391.338 Z"/>
  <path fill="rgb(76.862745%, 64.705882%, 78.823529%)" opacity="0.014" d="M98.825,122.945 Q96.737,123.077 96,122.587 Q95.253,122.09 95.005,121.229 Q94.672,120.07 95.39,119.101 Q95.791,118.559 96.417,118.298 Q96.639,118.205 96.891,118.152 Q97.039,118.121 97.248,118.093 Q97.546,118.055 98.018,118.014 Q100.795,117.775 103.392,117.856 Q107.983,117.999 109.303,119.633 Q111.107,121.867 108.7,124.113 Q107.585,125.152 105.01,126.369 Q102.806,127.41 101.764,125.205 Q101.244,124.103 101.534,123.292 Q101.646,122.981 101.877,122.712 Q100.824,122.717 99.736,122.779 Q99.338,122.913 98.825,122.945 Z"/>
  <path fill="rgb(20%, 42.352941%, 32.156863%)" opacity="0.722" d="M276.138,262.078 Q272.079,290.138 271.496,312.865 Q270.806,339.725 273.009,409.185 Q273.16,413.962 269.89,417.447 Q266.619,420.932 261.842,421.083 Q257.065,421.234 253.581,417.964 Q250.096,414.693 249.944,409.917 Q247.721,339.795 248.427,312.273 Q249.046,288.183 253.3,258.774 Q253.984,254.044 257.812,251.183 Q261.641,248.322 266.371,249.007 Q271.101,249.691 273.961,253.519 Q276.822,257.348 276.138,262.078 Z"/>
  <path fill="rgb(4.313725%, 100%, 0%)" opacity="0.363" d="M223.708,33.486 Q223.077,31.651 223.307,29.931 Q223.766,26.497 227.659,23.522 Q235.446,17.572 241.396,25.358 Q253.746,41.52 252.359,69.711 Q251.242,92.419 243.359,108.32 Q238.316,118.493 231.258,120.202 Q223.881,121.989 218.937,115.874 Q216.384,112.717 215.192,107.367 Q211.412,90.399 218.532,41.342 Q219.236,36.493 222.012,34.421 Q222.781,33.847 223.708,33.486 Z"/>
  <path fill="rgb(39.607843%, 66.666667%, 0%)" opacity="0.499" d="M295.631,149.941 Q294.722,302.666 299.313,389.107 Q299.773,397.787 300.278,405.512 Q302.852,347.139 299.712,266.136 Q299.536,261.613 301.71,259.264 Q303.884,256.914 308.407,256.739 Q317.453,256.388 317.804,265.434 Q321.189,352.739 317.985,414.248 Q316.589,441.055 314.164,455.572 Q312.869,463.33 311.235,467.363 Q309.829,470.834 307.652,472.81 Q301.983,477.957 295.539,474.025 Q275.669,461.9 277.525,149.833 Q277.579,140.78 286.632,140.834 Q291.158,140.861 293.408,143.137 Q295.658,145.414 295.631,149.941 Z"/>
  <path fill="rgb(0%, 65.098039%, 0%)" opacity="0.299" d="M191.544,369.976 Q203.067,236.611 219.067,162.717 Q225.917,131.08 232.765,115.02 Q236.585,106.064 240.768,101.427 Q250.163,91.014 261.519,96.382 Q272.812,101.72 275.341,125.744 Q277.252,143.894 275.595,172.816 Q271.72,240.46 251.71,329.786 Q250.469,335.327 245.673,338.368 Q240.877,341.409 235.335,340.167 Q229.794,338.926 226.753,334.13 Q223.713,329.334 224.954,323.792 Q244.473,236.654 248.22,171.248 Q248.705,162.794 248.867,155.42 Q247.38,161.524 245.865,168.52 Q230.234,240.708 218.862,372.336 Q218.373,377.994 214.027,381.649 Q209.681,385.304 204.023,384.815 Q198.365,384.326 194.71,379.98 Q191.056,375.634 191.544,369.976 Z"/>
  <path fill="rgb(50.196078%, 83.921569%, 52.941176%)" opacity="0.033" d="M3.068,161.095 Q0.825,165.522 -2.155,166.13 Q-5.058,166.723 -7.024,164.025 Q-8.677,161.756 -8.176,159.432 Q-7.829,157.821 -6.468,157.102 Q-5.167,156.414 -3.409,156.893 Q-2.453,157.153 -2.105,157.761 Q-1.757,158.369 -2.018,159.325 Q-2.516,161.156 -4.291,160.757 Q-4.195,161.177 -3.82,161.691 Q-3.355,162.33 -2.947,162.247 Q-1.844,162.022 -0.467,159.304 Q-0.019,158.42 0.647,158.202 Q1.313,157.984 2.196,158.432 Q3.964,159.327 3.068,161.095 Z"/>
  <path fill="rgb(18.039216%, 100%, 39.215686%)" opacity="0.585" d="M338.585,147.272 Q341.874,129.96 339.831,119.795 Q339.089,116.101 337.826,114.388 Q337.529,113.985 337.303,113.821 Q335.87,114.25 334.853,120.365 Q333.212,130.233 337.103,144.952 Q337.999,148.34 334.611,149.236 Q331.223,150.131 330.327,146.743 Q326.051,130.569 327.94,119.215 Q329.902,107.415 336.847,106.81 Q344.241,106.165 346.703,118.414 Q349.016,129.923 345.47,148.58 Q344.816,152.023 341.373,151.369 Q339.652,151.041 338.955,150.017 Q338.257,148.993 338.585,147.272 Z"/>
  <path fill="rgb(100%, 39.215686%, 91.764706%)" opacity="0.038" d="M96.51,150.543 Q71.582,147.355 62.479,157.59 Q62.475,157.594 62.471,157.599 Q61.744,160.191 60.927,161.636 Q60.224,162.878 59.283,163.471 Q57.638,164.509 55.891,163.746 Q54.268,163.037 53.828,161.278 Q53.072,158.256 56.346,154.117 Q56.71,153.416 57.258,153.029 Q57.281,153.004 57.299,152.983 Q68.833,140.016 97.389,143.668 Q99.108,143.887 99.857,144.857 Q100.607,145.826 100.387,147.545 Q99.947,150.983 96.51,150.543 Z"/>
  <path fill="rgb(5.882353%, 100%, 67.058824%)" opacity="0.702" d="M40.818,420.288 Q44.659,312.742 41.997,257.156 Q41.867,254.443 42.284,253.266 Q43.329,250.319 46.323,249.42 Q50.722,248.098 53.249,251.935 Q53.823,252.806 54.08,253.822 Q54.156,254.123 54.207,254.451 Q54.234,254.626 54.266,254.894 Q54.294,255.135 54.381,255.921 Q54.804,259.772 55.246,263.211 Q55.563,265.682 54.753,267.283 Q56.649,322.568 53.143,420.728 Q52.923,426.891 46.76,426.671 Q43.679,426.561 42.193,424.965 Q40.708,423.369 40.818,420.288 Z"/>
  <path fill="rgb(1.176471%, 100%, 54.509804%)" opacity="0.441" d="M352.688,134.578 Q351.771,325.638 340.88,449.449 Q330.978,562.022 315.478,584.607 Q311.833,589.918 306.97,592.369 Q299.042,596.363 291.078,592.561 Q282.813,588.615 278.001,575.907 Q271.691,559.245 267.471,520.202 Q258.288,435.232 260.36,274.65 Q260.438,268.57 264.793,264.326 Q269.148,260.082 275.229,260.161 Q281.309,260.239 285.553,264.594 Q289.797,268.949 289.718,275.029 Q287.669,433.838 296.662,517.047 Q298.146,530.779 299.806,541.16 Q306.067,510.151 311.632,446.877 Q322.416,324.279 323.328,134.437 Q323.357,128.357 327.677,124.078 Q331.998,119.798 338.078,119.828 Q344.159,119.857 348.438,124.177 Q352.717,128.498 352.688,134.578 Z"/>
  <path fill="rgb(63.921569%, 0%, 41.176471%)" opacity="0.403" d="M236.087,163.556 Q236.582,133.904 238.681,116.989 Q240.806,99.857 241.789,71.536 Q241.914,67.948 243.77,66.217 Q245.626,64.485 249.214,64.61 Q256.389,64.859 256.14,72.034 Q255.135,100.992 252.931,118.757 Q250.927,134.911 250.444,163.796 Q250.385,167.385 248.56,169.15 Q246.735,170.915 243.146,170.855 Q235.967,170.735 236.087,163.556 Z"/>
  <path fill="rgb(35.686275%, 86.27451%, 55.686275%)" opacity="0.516" d="M297.186,107.031 Q298.31,111.888 301.493,121.317 Q309.643,145.456 311.137,166.418 Q313.477,199.245 305.095,253.399 Q303.574,263.227 295.549,269.102 Q287.523,274.976 277.695,273.455 Q267.866,271.934 261.992,263.908 Q256.118,255.883 257.639,246.054 Q265.191,197.255 263.237,169.831 Q262.18,154.997 255.995,136.678 Q252.056,125.011 250.4,117.852 Q248.159,108.162 253.426,99.726 Q258.693,91.289 268.382,89.048 Q278.072,86.807 286.509,92.074 Q294.945,97.341 297.186,107.031 Z"/>
  <path fill="rgb(58.039216%, 45.098039%, 0%)" opacity="0.779" d="M219.005,24.869 Q223.763,21.755 228.947,21.483 Q229.787,21.439 230.23,21.837 Q230.672,22.235 230.717,23.076 Q230.805,24.757 229.124,24.845 Q223.181,25.158 217.724,30.129 Q215.689,32.721 214.768,33.507 Q214.524,33.716 214.295,33.833 Q213.863,34.052 213.393,34.024 Q212.038,33.941 211.818,32.601 Q211.7,31.879 212.242,31.086 Q212.711,30.401 213.662,29.4 Q214.453,28.567 215.257,27.822 Q216.052,26.799 217.049,25.462 Q217.903,24.317 219.005,24.869 Z"/>
  <path fill="rgb(33.72549%, 89.803922%, 65.490196%)" opacity="0.683" d="M330.522,345.558 Q330.782,344.41 331.013,343.293 Q331.169,332.067 332.118,326.674 Q332.333,325.456 332.639,324.897 Q333.502,323.32 335.122,323.885 Q336.114,324.231 336.456,325.34 Q336.788,326.418 336.692,329.437 Q336.487,335.919 334.886,343.769 Q334.658,362.235 336.586,396.857 Q336.694,398.798 334.753,398.907 Q332.811,399.015 332.703,397.073 Q330.958,365.745 330.983,347.436 Q330.234,346.823 330.522,345.558 Z"/>
  <path fill="rgb(65.490196%, 41.568627%, 75.686275%)" opacity="0.725" d="M221.037,351.296 Q221.23,344.335 221.74,340.745 Q222.454,335.717 226.514,332.666 Q230.575,329.616 235.603,330.33 Q240.631,331.044 243.681,335.104 Q246.732,339.165 246.018,344.193 Q245.313,349.153 245.464,366.137 Q245.522,372.752 245.47,375.172 Q245.245,385.618 238.978,389.297 Q232.985,392.814 226.859,389.521 Q224.197,388.091 222.453,385.565 Q221.4,384.04 220.696,382.06 Q220.116,380.429 219.487,377.624 Q218.451,373.008 216.729,362.865 Q215.879,357.858 218.818,353.717 Q219.81,352.319 221.037,351.296 Z"/>
  <path fill="rgb(72.54902%, 61.176471%, 97.647059%)" opacity="0.018" d="M103.098,93.878 Q112.924,98.035 118.511,105.242 Q120.192,107.41 119.715,109.127 Q118.94,111.92 115.259,111.158 Q111.542,110.388 101.807,105.001 Q99.657,103.812 100.846,101.662 Q102.036,99.513 104.186,100.702 Q107.937,102.778 110.649,104.102 Q106.698,100.736 101.183,98.403 Q98.921,97.446 99.878,95.183 Q100.835,92.921 103.098,93.878 Z"/>
  <path fill="rgb(69.803922%, 100%, 13.72549%)" opacity="0.753" d="M234.002,39.97 Q232.45,44.65 230.169,50.479 Q227.584,57.084 227.188,64.037 Q226.703,72.534 226.951,117 Q227.251,170.858 227.253,214.527 Q227.253,219.529 223.716,223.067 Q220.179,226.604 215.176,226.604 Q210.174,226.605 206.636,223.067 Q203.099,219.53 203.099,214.528 Q203.097,170.944 202.797,117.134 Q202.546,71.912 203.073,62.662 Q203.689,51.867 207.676,41.678 Q209.724,36.441 211.076,32.366 Q212.651,27.618 217.122,25.374 Q221.593,23.13 226.341,24.705 Q231.089,26.28 233.333,30.751 Q235.577,35.222 234.002,39.97 Z"/>
</svg>

