<svg xmlns="http://www.w3.org/2000/svg" width="384" height="384" viewBox="0 0 384 384">
  <defs/>
  <path fill="rgb(0%, 0.784314%, 2.745098%)" opacity="0.436" d="M404.814,390.384 Q166.562,400.024 24.778,401.562 Q-36.591,402.227 -71.553,401.218 Q-89.417,400.703 -100.43,399.719 Q-126.598,397.382 -143.233,386.954 Q-155.216,379.442 -163.591,368.141 Q-179.768,346.31 -178,319.224 Q-176.435,295.257 -161.075,276.735 Q-153.683,267.821 -143.873,261.514 Q-132.5,254.203 -117.812,250.672 Q-108.416,248.413 -92.441,246.525 Q-66.145,243.416 -16.789,240.328 Q94.398,233.37 268.267,229.268 Q282.913,228.922 296.576,234.208 Q307.965,238.613 317.225,246.372 Q356.49,244.916 398.858,243.202 Q413.497,242.61 427.247,247.665 Q440.998,252.719 451.767,262.651 Q462.537,272.583 468.686,285.88 Q474.834,299.177 475.427,313.816 Q476.019,328.454 470.964,342.204 Q465.91,355.955 455.978,366.724 Q446.046,377.494 432.749,383.643 Q419.452,389.791 404.814,390.384 Z"/>
  <path fill="rgb(10.196078%, 9.019608%, 8.235294%)" opacity="0.821" d="M126.43,143.707 Q135.463,130.562 150.5,116.392 Q151.791,115.176 152.774,114.22 Q146.628,113.993 132.227,114.214 Q94.579,114.791 62.741,114.219 Q58.334,114.14 58.413,109.733 Q58.453,107.53 59.575,106.448 Q60.696,105.366 62.899,105.406 Q94.59,105.975 132.092,105.4 Q157.301,105.013 160.878,106.653 Q164.237,108.193 164.47,111.544 Q164.629,113.832 162.914,116.227 Q161.634,118.013 156.546,122.808 Q142.194,136.332 133.695,148.699 Q131.199,152.332 127.566,149.836 Q123.934,147.339 126.43,143.707 Z"/>
  <path fill="rgb(47.45098%, 58.039216%, 39.607843%)" opacity="0.01" d="M62.809,38.389 Q60.113,38.066 56.601,34.419 Q54.791,32.54 56.671,30.73 Q57.61,29.825 58.533,29.842 Q59.455,29.86 60.36,30.8 Q62.019,32.523 62.792,33.011 Q62.837,32.946 62.883,32.888 Q64.009,31.467 65.727,31.999 Q67.026,32.401 67.456,33.711 Q67.579,34.085 67.663,35.096 Q67.751,36.161 67.842,37.058 Q67.973,38.356 67.39,39.071 Q66.806,39.785 65.508,39.916 Q63.357,40.133 62.809,38.389 Z"/>
  <path fill="rgb(27.45098%, 30.588235%, 30.980392%)" opacity="0.234" d="M253.593,124.799 Q245.019,168.029 246.246,176.927 Q246.91,181.737 250.141,186.13 Q252.797,189.743 262.423,199.333 Q277.522,214.375 288.165,226.61 Q294.208,233.556 287.261,239.599 Q280.315,245.641 274.272,238.695 Q264.061,226.955 249.428,212.377 Q238.801,201.79 235.307,197.04 Q229.307,188.883 228.005,179.443 Q226.356,167.48 235.532,121.217 Q236.427,116.701 239.133,114.891 Q241.838,113.081 246.354,113.977 Q255.385,115.768 253.593,124.799 Z"/>
  <path fill="rgb(74.901961%, 81.176471%, 81.960784%)" opacity="0.006" d="M254.118,385.235 Q251.461,386.467 249.272,387.245 Q250.13,388.486 250.867,390.116 Q251.576,391.682 250.009,392.391 Q248.443,393.099 247.735,391.533 Q246.794,389.452 245.725,388.275 Q244.459,388.541 243.432,388.576 Q241.561,388.638 240.57,387.879 Q238.824,386.541 240.082,384.743 Q241.7,382.431 245.151,383.754 Q245.906,384.044 246.604,384.513 Q249.123,383.762 252.671,382.116 Q254.231,381.393 254.954,382.953 Q255.677,384.512 254.118,385.235 Z"/>
  <path fill="rgb(11.764706%, 9.019608%, 8.235294%)" opacity="0.842" d="M212.592,192.198 Q210.19,155.339 200.98,140.068 Q194.935,130.044 185.898,130.986 Q171.978,132.438 145.26,158.942 Q136.297,167.834 132.474,168.121 Q128.346,168.43 125.719,165.278 Q123.921,163.12 123.837,160.209 Q123.784,158.35 124.567,155.951 Q125.451,153.24 128.114,147.63 Q131.402,140.7 138.331,143.989 Q138.425,144.033 138.516,144.078 Q148.52,134.419 155.491,129.122 Q171.334,117.082 184.308,115.729 Q203.038,113.776 214.116,132.147 Q225.254,150.615 227.9,191.2 Q228.149,195.027 226.361,197.065 Q224.572,199.104 220.745,199.353 Q213.091,199.852 212.592,192.198 Z"/>
  <path fill="rgb(2.745098%, 0%, 2.352941%)" opacity="0.623" d="M159.741,222.217 Q125.544,192.594 128.717,174.018 Q126.472,173.957 120.528,174.181 Q90.618,175.308 54.363,174.457 Q51.535,174.391 51.601,171.563 Q51.634,170.148 52.358,169.458 Q53.082,168.767 54.496,168.801 Q90.578,169.647 120.315,168.527 Q129.549,168.179 131.337,168.633 Q135.315,169.642 134.341,174.715 Q131.376,190.159 163.446,217.94 Q164.515,218.866 164.587,219.864 Q164.658,220.861 163.732,221.931 Q161.88,224.069 159.741,222.217 Z"/>
  <path fill="rgb(4.313725%, 1.960784%, 1.568627%)" opacity="0.758" d="M202.431,96.427 Q233.48,134.384 234.26,165.96 Q234.658,182.097 227.179,194.674 Q219.919,206.883 207.089,212.948 Q195.169,218.583 181.849,217.315 Q168.332,216.029 157.464,208.001 Q133.004,189.933 136.946,154.223 Q137.89,145.664 144.611,140.28 Q151.331,134.895 159.89,135.84 Q168.449,136.785 173.834,143.505 Q179.218,150.225 178.273,158.785 Q176.957,170.708 182.168,174.557 Q185.62,177.107 189.319,175.358 Q192.86,173.684 192.694,166.987 Q192.267,149.67 170.248,122.753 Q164.796,116.087 165.654,107.519 Q166.512,98.951 173.177,93.498 Q179.842,88.046 188.411,88.904 Q196.979,89.762 202.431,96.427 Z"/>
  <path fill="rgb(0%, 29.803922%, 73.333333%)" opacity="0.126" d="M111.8,306.755 Q246.869,307.289 335.113,306.755 Q355.385,306.632 360.067,306.744 Q360.988,306.766 361.438,307.237 Q361.888,307.709 361.866,308.63 Q361.822,310.472 359.98,310.428 Q355.353,310.318 335.135,310.44 Q246.872,310.975 111.786,310.44 Q109.943,310.433 109.95,308.59 Q109.954,307.669 110.416,307.21 Q110.879,306.751 111.8,306.755 Z"/>
  <path fill="rgb(29.411765%, 25.490196%, 28.235294%)" opacity="0.446" d="M248.994,129.046 Q249.315,132.566 249.685,135.858 Q251.326,135.84 252.583,136.527 Q254.826,137.752 255.845,141.221 Q260.585,157.372 261.273,167.613 Q261.621,172.788 260.753,175.828 Q259.797,179.17 257.275,180.919 Q252.965,183.907 248.41,181.064 Q238.661,174.979 234.592,130.36 Q234.263,126.759 235.9,124.795 Q237.536,122.83 241.136,122.502 Q248.337,121.845 248.994,129.046 Z"/>
  <path fill="rgb(20.784314%, 20.392157%, 19.215686%)" opacity="0.663" d="M60.306,119.932 L60.761,119.931 L60.987,119.93 L61.212,119.929 L61.437,119.929 L61.662,119.928 L62.108,119.926 Q86.691,119.846 97.639,119.674 Q99.281,112.273 110.703,106.761 Q114.779,104.794 117.801,105.849 Q120.822,106.904 122.789,110.98 Q126.711,119.108 118.621,123.042 Q121.749,128.17 117.527,133.386 Q114.559,137.054 106.524,137.536 Q100.374,137.905 62.168,138.031 L61.721,138.032 L61.497,138.033 L61.272,138.034 L61.046,138.034 L60.82,138.035 L60.593,138.036 L60.366,138.036 Q51.314,138.066 51.284,129.014 Q51.269,124.488 53.525,122.218 Q55.78,119.947 60.306,119.932 Z"/>
  <path fill="rgb(82.745098%, 81.176471%, 97.647059%)" opacity="0.021" d="M265.925,116.673 Q268.328,129.756 266.276,136.986 Q264.672,142.641 260.356,144.364 Q255.823,146.172 249.937,142.807 Q246.111,140.619 248.299,136.793 Q249.392,134.879 250.896,134.47 Q252.4,134.06 254.313,135.154 Q256.506,136.408 257.088,136.176 Q257.375,136.061 257.795,134.58 Q259.286,129.327 257.255,118.265 Q256.458,113.93 260.794,113.133 Q265.129,112.337 265.925,116.673 Z"/>
</svg>

