<svg xmlns="http://www.w3.org/2000/svg" width="384" height="384" viewBox="0 0 384 384">
  <defs/>
  <path fill="rgb(40.392157%, 77.647059%, 95.294118%)" opacity="0.281" d="M229.504,234.955 Q291.817,221.322 321.831,213.054 Q351.894,204.772 387.176,191.514 Q389.281,190.723 390.728,191.38 Q392.176,192.037 392.967,194.141 Q394.549,198.35 390.34,199.932 Q354.676,213.333 324.219,221.724 Q293.974,230.055 231.426,243.74 Q227.033,244.701 226.072,240.309 Q225.111,235.916 229.504,234.955 Z"/>
  <path fill="rgb(9.803922%, 100%, 100%)" opacity="0.253" d="M54.672,394.447 Q43.39,397.236 34.534,397.065 Q34.342,397.463 34.101,397.829 Q32.257,400.639 27.603,401.605 Q18.295,403.536 16.364,394.228 Q16.093,392.921 15.805,391.766 Q11.778,388.849 9.918,384.43 Q7.11,377.756 11.19,372.662 Q14.761,368.202 20.464,368.919 Q23.746,369.332 26.46,371.651 Q28.955,373.783 30.911,377.696 Q37.932,379.001 50.109,375.99 Q59.338,373.709 61.619,382.937 Q62.76,387.552 61.023,390.429 Q59.286,393.306 54.672,394.447 Z"/>
  <path fill="rgb(52.54902%, 50.588235%, 56.078431%)" opacity="0.562" d="M275.991,82.265 Q252.988,100.843 243.572,122.215 Q241.71,126.44 240.607,127.896 Q237.715,131.71 233.229,130.952 Q229.682,130.353 217.219,120.853 Q187.983,98.568 155.205,77.562 Q153.201,76.278 152.842,74.634 Q152.482,72.99 153.766,70.986 Q156.334,66.979 160.342,69.547 Q193.445,90.762 222.99,113.282 Q231,119.388 233.658,120.996 Q234.126,120.043 234.86,118.376 Q245.209,94.889 270.009,74.86 Q271.861,73.364 273.534,73.542 Q275.208,73.72 276.703,75.572 Q279.694,79.275 275.991,82.265 Z"/>
  <path fill="rgb(56.470588%, 32.941176%, 67.843137%)" opacity="0.014" d="M117.069,27.578 Q118.47,27.641 118.933,27.691 Q119.256,27.726 119.521,27.792 Q120.469,28.027 121.16,28.701 Q123.156,30.649 121.729,33.045 Q121.145,34.025 120.096,34.48 Q119.477,34.75 118.621,34.794 Q118.064,34.823 115.53,34.848 Q114.598,36.091 112.456,35.94 Q107.505,35.593 105.879,35.341 Q102.062,34.75 102.228,31.483 Q102.387,28.377 105.975,28.013 Q107.588,27.849 114.701,27.786 Q115.044,27.783 115.351,27.78 Q116.077,27.533 117.069,27.578 Z"/>
  <path fill="rgb(0%, 79.607843%, 100%)" opacity="0.151" d="M394.534,184.517 Q341.594,194.555 275.722,210.502 Q243.248,218.364 230.222,220.841 Q209.755,224.735 193.808,224.864 Q162.511,225.117 108.414,207.494 Q104.791,206.314 105.971,202.691 Q106.561,200.879 107.762,200.269 Q108.962,199.658 110.774,200.248 Q163.691,217.486 193.747,217.243 Q209.006,217.12 228.798,213.355 Q241.638,210.912 273.929,203.095 Q339.987,187.103 393.114,177.03 Q394.986,176.675 396.1,177.433 Q397.213,178.192 397.568,180.064 Q398.278,183.807 394.534,184.517 Z"/>
  <path fill="rgb(38.039216%, 65.490196%, 72.941176%)" opacity="0.806" d="M399.06,425.278 Q376.515,407.923 359.775,400.588 Q344.983,394.106 330.072,393.654 Q315.345,393.208 293.12,398.404 Q277.576,402.038 237.6,414.139 Q187.612,429.272 154.995,437.904 Q143.552,440.932 133.319,434.982 Q123.086,429.032 120.057,417.589 Q117.029,406.146 122.979,395.913 Q128.929,385.679 140.372,382.651 Q172.016,374.276 221.04,359.436 Q262.775,346.802 280.108,342.749 Q309.608,335.852 331.803,336.525 Q357.781,337.312 382.714,348.238 Q405.848,358.375 433.924,379.988 Q443.304,387.208 444.831,398.947 Q446.358,410.685 439.137,420.065 Q431.917,429.445 420.179,430.972 Q408.44,432.499 399.06,425.278 Z"/>
  <path fill="rgb(29.411765%, 29.019608%, 33.333333%)" opacity="0.999" d="M113.877,160.405 Q95.057,150.135 87.011,143.522 Q84.835,141.733 83.111,139.878 Q58.141,135.756 15.744,126.455 Q8.962,124.967 5.219,119.119 Q1.475,113.272 2.963,106.49 Q4.451,99.708 10.299,95.965 Q16.146,92.221 22.928,93.709 Q66.504,103.269 90.862,107.174 Q95.842,107.972 97.719,108.58 Q105.253,111.017 108.354,117.669 Q113.976,122.268 129.936,130.978 Q136.031,134.304 137.988,140.965 Q139.946,147.626 136.62,153.721 Q133.294,159.816 126.633,161.773 Q119.971,163.731 113.877,160.405 Z"/>
  <path fill="rgb(6.666667%, 6.666667%, 12.54902%)" opacity="0.788" d="M255.127,156.472 Q253.668,161.733 250.926,168.947 Q272.167,163.894 321.179,148.944 Q327.54,147.003 333.41,150.129 Q339.28,153.255 341.22,159.617 Q343.161,165.978 340.035,171.848 Q336.909,177.718 330.548,179.658 Q253.564,203.14 237.8,203.619 Q229.064,203.884 223.169,200.482 Q213.818,195.084 213.208,184.069 Q212.839,177.415 218.454,163.735 Q222.571,153.704 224.185,147.887 Q225.963,141.479 231.752,138.205 Q237.54,134.931 243.949,136.709 Q250.357,138.486 253.631,144.275 Q256.905,150.064 255.127,156.472 Z"/>
  <path fill="rgb(27.45098%, 25.098039%, 29.019608%)" opacity="0.878" d="M342.519,95.064 Q329.685,115.969 294.482,144.923 Q280.875,156.115 272.137,161.474 Q266.503,164.929 263.054,165.331 Q259.899,165.698 257.23,164.275 Q252.761,161.89 252.305,156.81 Q251.995,153.347 254.232,149.635 Q258.099,143.22 264.102,145.426 Q271.527,140.671 283.133,131.125 Q316.025,104.071 327.294,85.717 Q329.631,81.911 332.702,81.176 Q335.774,80.441 339.58,82.778 Q347.193,87.452 342.519,95.064 Z"/>
  <path fill="rgb(61.960784%, 54.509804%, 72.156863%)" opacity="0.189" d="M-3.115,299.233 Q2.591,301.168 4.198,306.868 Q5.026,309.806 4.88,316.81 Q4.679,326.469 6.323,331.587 Q9.113,340.271 18.263,346.802 Q19.706,347.832 19.912,349.068 Q20.118,350.304 19.089,351.747 Q17.029,354.633 14.143,352.573 Q3.082,344.677 -0.427,333.756 Q-2.435,327.508 -2.209,316.662 Q-2.009,307.095 -5.393,305.947 Q-8.75,304.808 -7.611,301.451 Q-6.472,298.094 -3.115,299.233 Z"/>
  <path fill="rgb(23.921569%, 54.509804%, 71.764706%)" opacity="0.858" d="M-4.15,235.585 Q93.433,266.301 196.497,264.597 Q236.459,263.936 281.921,258.361 Q308.986,255.041 358.381,246.923 Q414.321,237.73 439.165,235.674 Q449.017,234.859 456.561,241.249 Q464.105,247.64 464.92,257.493 Q465.735,267.346 459.345,274.889 Q452.954,282.433 443.101,283.248 Q420.17,285.146 366.122,294.028 Q315.766,302.304 287.732,305.742 Q239.768,311.625 197.286,312.327 Q86.483,314.159 -18.483,281.119 Q-27.913,278.15 -32.483,269.383 Q-37.052,260.615 -34.083,251.185 Q-31.115,241.755 -22.348,237.185 Q-13.58,232.616 -4.15,235.585 Z"/>
  <path fill="rgb(43.529412%, 57.647059%, 71.372549%)" opacity="0.709" d="M-65.723,290.453 Q33.104,296.581 100.483,305.772 Q163.682,314.393 175.254,323.863 Q184.641,331.546 183.363,343.162 Q182.098,354.659 171.412,360.164 Q166.124,362.889 157.089,363.805 Q144.66,365.064 119.584,364.096 Q62.61,361.896 -36.741,349.831 Q-45.172,348.807 -50.41,342.122 Q-53.962,337.588 -54.634,332.252 Q-61.37,331.81 -68.261,331.383 Q-76.738,330.857 -82.36,324.492 Q-87.982,318.126 -87.457,309.649 Q-86.931,301.172 -80.566,295.55 Q-74.2,289.928 -65.723,290.453 Z"/>
  <path fill="rgb(20.784314%, 20.392157%, 24.705882%)" opacity="0.971" d="M234.457,205.33 Q233.082,205.562 230.445,206.008 Q207.593,209.879 196.812,210.247 Q180.135,210.817 159.597,206.323 Q132.23,200.333 10.372,159.215 Q-14.736,150.743 -28.735,146.03 Q-36.637,143.37 -40.343,135.901 Q-44.05,128.432 -41.389,120.531 Q-38.729,112.629 -31.26,108.922 Q-23.792,105.216 -15.89,107.876 Q-1.874,112.595 23.243,121.07 Q143.002,161.48 168.204,166.996 Q183.807,170.411 195.436,170.013 Q203.526,169.737 223.723,166.316 Q226.384,165.865 227.777,165.631 Q235.999,164.247 242.791,169.083 Q249.584,173.919 250.967,182.141 Q252.35,190.363 247.515,197.155 Q242.679,203.947 234.457,205.33 Z"/>
  <path fill="rgb(24.313725%, 26.666667%, 27.843137%)" opacity="0.877" d="M259.492,124.676 Q246.73,137.254 237.407,147.61 Q234.758,150.552 231.816,147.903 Q230.345,146.579 230.271,145.181 Q230.198,143.783 231.522,142.312 Q245.643,126.627 267.434,106.014 Q270.532,103.084 272.008,101.763 Q273.132,100.757 273.784,100.468 Q274.538,100.133 275.36,100.125 Q278.714,100.092 279.3,103.394 Q279.573,104.931 278.719,106.253 Q278.542,106.527 278.291,106.812 Q278.108,107.02 277.761,107.376 Q274.735,110.479 260.675,123.789 Q260.08,124.353 259.492,124.676 Z"/>
  <path fill="rgb(31.764706%, 32.156863%, 35.294118%)" opacity="0.857" d="M105.838,76.104 Q177.969,119.034 211.988,137.258 Q198.239,126.438 176.768,110.546 Q171.922,106.959 175.509,102.112 Q177.303,99.689 179.411,99.374 Q181.519,99.059 183.943,100.853 Q232.19,136.564 242.7,147.717 Q246.054,151.276 246.786,153.866 Q248.024,158.246 244.64,161.006 Q242.5,162.751 239.375,162.557 Q235.282,162.303 224.618,157.255 Q195.245,143.351 99.67,86.467 Q94.488,83.383 97.572,78.201 Q100.656,73.02 105.838,76.104 Z"/>
  <path fill="rgb(46.27451%, 74.901961%, 86.666667%)" opacity="0.437" d="M163.203,290.004 Q138.551,286.084 100.758,277.796 Q60.915,269.058 54.707,271.849 Q53.981,272.175 53.456,271.976 Q52.93,271.776 52.604,271.051 Q51.952,269.6 53.403,268.948 Q58.369,266.716 71.178,268.616 Q79.111,269.792 101.439,274.689 Q139.142,282.956 163.703,286.863 Q165.274,287.113 165.024,288.683 Q164.899,289.469 164.444,289.799 Q163.989,290.129 163.203,290.004 Z"/>
  <path fill="rgb(22.745098%, 22.352941%, 27.843137%)" opacity="0.808" d="M-26.912,84.51 Q-13.901,76.946 -0.826,67.199 Q4.675,63.098 7.12,61.679 Q13.519,57.968 19.828,58.42 Q27.359,58.959 39.504,69.451 Q60.963,87.988 88.323,105.25 Q93.317,108.402 94.621,114.162 Q95.924,119.922 92.773,124.916 Q89.622,129.911 83.862,131.215 Q78.102,132.518 73.107,129.367 Q43.939,110.964 20.863,91.029 Q19.277,89.659 18.1,88.667 Q17.256,89.285 16.217,90.06 Q1.837,100.78 -12.58,109.162 Q-17.686,112.13 -23.395,110.619 Q-29.104,109.107 -32.072,104.002 Q-35.04,98.896 -33.529,93.187 Q-32.018,87.478 -26.912,84.51 Z"/>
  <path fill="rgb(44.313725%, 15.294118%, 27.843137%)" d="M324.446,154.501 Q341.51,143.865 347.486,143.799 Q349.322,143.779 350.41,144.699 Q351.611,145.717 351.578,147.456 Q351.537,149.61 349.399,152.749 Q345.211,158.898 338.565,163.107 Q330.004,168.527 326.264,163.708 Q325.111,162.222 326.597,161.069 Q327.34,160.492 328,160.575 Q328.659,160.659 329.236,161.402 Q330.88,163.52 336.552,159.929 Q342.54,156.137 346.29,150.631 Q347.797,148.418 347.817,147.384 L347.527,147.561 Q342.605,147.615 326.436,157.694 Q324.84,158.689 323.845,157.093 Q323.348,156.295 323.498,155.647 Q323.648,154.999 324.446,154.501 Z"/>
  <path fill="rgb(56.862745%, 69.019608%, 79.215686%)" opacity="0.883" d="M-52.3,442.591 Q-89.256,423.714 -87.552,390.596 Q-85.607,352.8 -39.846,341.477 Q-20.111,336.594 79.772,324.019 Q229.489,305.17 350.699,287.787 Q359.823,286.478 368.754,288.761 Q377.685,291.044 385.063,296.571 Q392.44,302.098 397.141,310.027 Q401.842,317.957 403.151,327.081 Q404.459,336.206 402.176,345.137 Q399.894,354.068 394.367,361.446 Q388.84,368.823 380.91,373.524 Q372.981,378.225 363.856,379.534 Q241.858,397.03 91.35,415.978 Q35.122,423.057 7.239,427.19 Q3.724,432.43 -1.157,436.59 Q-8.173,442.57 -16.942,445.409 Q-25.712,448.249 -34.901,447.517 Q-44.09,446.784 -52.3,442.591 Z"/>
  <path fill="rgb(20%, 22.352941%, 34.509804%)" opacity="0.379" d="M179.006,96.476 Q142.341,128.789 126.787,127.272 Q116.822,126.3 115.744,116.528 Q115.184,111.453 118.554,104.628 Q123.895,93.812 140.053,75.537 Q143.125,72.064 146.397,71.863 Q149.669,71.662 153.142,74.733 Q160.089,80.875 153.947,87.822 Q147.219,95.431 142.697,101.36 Q153.495,94.239 166.744,82.563 Q173.701,76.432 179.832,83.389 Q182.897,86.867 182.691,90.139 Q182.484,93.411 179.006,96.476 Z"/>
  <path fill="rgb(26.666667%, 23.137255%, 29.411765%)" opacity="0.728" d="M330.239,83.733 Q318.44,77.213 308.798,69.428 Q307.921,68.72 307.333,68.265 Q306.994,68.836 306.516,69.676 Q295.395,89.223 270.633,111.959 Q269.354,113.133 268.128,113.081 Q266.902,113.028 265.728,111.75 Q263.381,109.193 265.938,106.846 Q289.899,84.845 300.483,66.244 Q303.427,61.068 305.996,60.645 Q308.465,60.238 313.159,64.027 Q322.329,71.431 333.597,77.657 Q336.635,79.336 334.956,82.374 Q334.117,83.893 332.937,84.233 Q331.758,84.573 330.239,83.733 Z"/>
  <path fill="rgb(49.803922%, 35.686275%, 91.372549%)" opacity="0.066" d="M19.165,355.888 Q56.801,359.964 99.764,359.726 Q112.556,359.655 122.325,359.226 Q123.226,359.187 123.936,359.152 Q124.246,359.034 124.665,359.017 Q125.88,358.966 126.386,358.962 Q126.889,358.958 127.187,359.061 Q128.288,359.442 128.317,360.605 Q128.345,361.717 127.329,362.177 Q127.135,362.265 126.914,362.305 Q126.816,362.323 126.671,362.338 Q125.771,362.431 122.472,362.576 Q112.638,363.007 99.783,363.079 Q56.63,363.318 18.804,359.221 Q17.137,359.041 17.318,357.374 Q17.408,356.541 17.87,356.169 Q18.332,355.798 19.165,355.888 Z"/>
  <path fill="rgb(92.54902%, 91.372549%, 96.470588%)" opacity="0.025" d="M77.332,355.22 Q75.552,350.271 76.429,348.197 Q77.109,346.589 78.815,346.518 Q79.881,346.475 81.091,347.182 Q83.039,348.32 84.429,350.496 Q86.218,353.298 85.175,355.314 Q84.782,356.073 84.206,356.257 Q83.63,356.44 82.87,356.047 Q81.351,355.26 82.137,353.741 Q82.91,352.249 79.512,350.223 Q79.595,351.403 80.551,354.062 Q81.13,355.671 79.52,356.25 Q77.911,356.829 77.332,355.22 Z"/>
  <path fill="rgb(53.333333%, 60.784314%, 50.980392%)" opacity="0.005" d="M126.562,14.753 Q130.808,17.669 132.162,20.463 Q132.997,22.184 132.652,23.708 Q132.217,25.633 130.331,26.382 Q124.761,28.595 116.925,19.45 Q116.122,18.513 116.189,17.642 Q116.256,16.772 117.194,15.968 Q119.069,14.362 120.676,16.237 Q124.863,21.124 127.195,21.797 Q126.162,20.471 123.766,18.825 Q121.73,17.427 123.128,15.391 Q123.827,14.373 124.686,14.214 Q125.544,14.054 126.562,14.753 Z"/>
  <path fill="rgb(28.235294%, 75.294118%, 93.72549%)" opacity="0.131" d="M-12.633,164.008 Q11.332,170.485 47.898,180.336 Q137.784,204.553 192.053,221.231 Q201.021,223.987 205.414,232.278 Q209.807,240.568 207.051,249.537 Q204.294,258.506 196.004,262.898 Q187.713,267.291 178.744,264.535 Q125.234,248.09 36.112,224.079 Q-0.48,214.221 -24.453,207.742 Q-33.51,205.294 -38.184,197.159 Q-42.858,189.023 -40.41,179.965 Q-37.962,170.908 -29.827,166.234 Q-21.691,161.56 -12.633,164.008 Z"/>
  <path fill="rgb(50.196078%, 63.921569%, 72.941176%)" opacity="0.075" d="M188.868,270.638 Q169.76,252.446 172.59,235.556 Q175.884,215.895 205.636,206.31 Q233.383,197.371 376.547,175.015 Q385.551,173.609 392.913,178.982 Q400.274,184.355 401.68,193.359 Q403.086,202.364 397.713,209.725 Q392.341,217.087 383.336,218.493 Q256.392,238.315 224.58,246.633 Q225.935,250.12 226.035,254.163 Q226.258,263.274 219.974,269.875 Q213.69,276.475 204.579,276.699 Q195.468,276.922 188.868,270.638 Z"/>
  <path fill="rgb(100%, 100%, 97.647059%)" opacity="0.786" d="M101.003,103.282 Q150.932,78.268 175.169,75.081 Q181.062,74.306 183.429,75.769 Q185.27,76.907 185.216,79.022 Q185.175,80.634 183.837,82.633 Q179.069,89.756 156.087,104.73 Q155.304,105.24 154.657,105.104 Q154.011,104.967 153.5,104.184 Q152.48,102.618 154.046,101.598 Q176.388,87.041 180.731,80.554 Q181.466,79.456 181.479,78.926 L181.464,78.949 Q180.229,78.186 175.657,78.787 Q152.044,81.893 102.677,106.624 Q101.006,107.461 100.169,105.79 Q99.332,104.119 101.003,103.282 Z"/>
  <path fill="rgb(15.294118%, 10.196078%, 19.215686%)" opacity="0.314" d="M149.978,181.859 Q163.154,169.288 166.725,170.326 Q170.141,171.32 168.929,176.29 Q168.532,177.917 166.972,182.182 Q163.802,190.848 163.93,193.624 Q163.975,194.589 164.226,194.695 Q165.369,195.177 168.828,193.949 Q171.434,193.023 172.36,195.629 Q172.823,196.932 172.402,197.815 Q171.982,198.698 170.679,199.161 Q165.197,201.107 162.077,199.791 Q158.611,198.33 158.406,193.88 Q158.226,189.992 161.778,180.282 Q162.365,178.677 162.768,177.503 Q159.932,180.005 153.796,185.86 Q151.795,187.769 149.886,185.768 Q147.977,183.768 149.978,181.859 Z"/>
  <path fill="rgb(49.411765%, 18.039216%, 69.019608%)" opacity="0.01" d="M126.504,24.088 Q128.569,23.986 130.492,23.898 Q130.749,23.687 131.036,23.536 Q132.428,22.806 134.55,23.468 Q134.919,23.583 135.305,23.687 Q146.353,23.23 151.668,23.295 Q155.235,23.338 156.443,23.807 Q157.509,24.22 158.246,25.059 Q160.395,27.505 158.735,30.304 Q157.852,31.791 156.108,32.356 Q155.442,32.572 154.333,32.725 Q142.446,34.361 134.44,32.62 Q130.968,32.769 126.941,32.967 Q124.721,33.076 123.557,32.021 Q122.392,30.965 122.283,28.746 Q122.065,24.306 126.504,24.088 Z"/>
  <path fill="rgb(23.921569%, 22.352941%, 28.627451%)" opacity="0.716" d="M394.34,125.456 Q378.466,130.522 350.212,139.895 Q307.888,153.934 293.282,157.782 Q267.287,164.63 259.209,159.03 Q251.689,153.816 254.998,143.42 Q257.02,137.066 264.229,127.346 Q277.127,109.956 312.255,74.51 Q314.931,71.809 317.62,71.797 Q320.309,71.785 323.009,74.462 Q328.411,79.815 323.058,85.216 Q288.696,119.89 276.446,136.407 Q271.52,143.048 269.915,146.892 Q281.073,146.805 345.423,125.458 Q373.76,116.059 389.715,110.966 Q396.96,108.654 399.272,115.899 Q401.584,123.143 394.34,125.456 Z"/>
  <path fill="rgb(21.960784%, 22.745098%, 25.882353%)" opacity="0.996" d="M383.363,129.365 Q383.79,131.098 384.597,134.315 Q388.181,148.619 388.43,153.534 Q388.835,161.508 383.946,165.929 Q379.384,170.054 367.04,173.531 Q359.033,175.787 333.841,181.197 Q305.509,187.282 286.564,191.724 Q285.669,191.933 285.117,191.591 Q284.564,191.248 284.355,190.353 Q283.935,188.563 285.725,188.144 Q304.703,183.695 333.069,177.602 Q358.147,172.216 366.044,169.992 Q377.557,166.749 381.479,163.202 Q385.074,159.951 384.758,153.721 Q384.526,149.165 381.03,135.209 Q380.224,131.991 379.793,130.245 Q379.353,128.46 381.138,128.02 Q382.923,127.58 383.363,129.365 Z"/>
  <path fill="rgb(45.490196%, 73.333333%, 74.901961%)" opacity="0.249" d="M55.965,213.901 Q109.988,227.171 158.337,234.67 Q169.983,236.477 171.14,238.472 Q172.821,241.37 170.188,243.492 Q169.55,244.006 168.649,244.3 Q167.924,244.535 166.589,244.754 Q165.148,244.99 160.185,245.595 Q155.388,246.179 152.364,246.575 Q150.481,246.822 149.416,246.004 Q148.351,245.185 148.104,243.302 Q147.904,241.77 148.408,240.78 Q103.628,233.433 54.152,221.279 Q52.308,220.826 51.612,219.677 Q50.916,218.528 51.369,216.684 Q52.276,212.994 55.965,213.901 Z"/>
  <path fill="rgb(33.333333%, 61.568627%, 73.72549%)" opacity="0.939" d="M240.134,274.405 Q279.379,274.353 318.934,282.866 Q337.265,286.812 346.983,287.394 Q362.648,288.333 383.79,284.514 Q389.359,283.508 394.008,286.734 Q398.656,289.96 399.662,295.528 Q400.668,301.097 397.442,305.746 Q394.216,310.395 388.647,311.401 Q364.282,315.802 345.349,314.668 Q333.552,313.961 313.185,309.577 Q276.49,301.679 240.171,301.728 Q234.512,301.735 230.505,297.739 Q226.499,293.743 226.491,288.085 Q226.484,282.426 230.48,278.419 Q234.476,274.413 240.134,274.405 Z"/>
  <path fill="rgb(26.27451%, 25.490196%, 29.803922%)" d="M353.494,108.409 Q340.873,131.537 308.569,152.643 Q280.667,170.872 255.77,177.393 Q243.418,180.629 236.683,178.927 Q231.441,177.602 229.37,173.495 Q227.317,169.421 229.261,164.1 Q235.075,148.18 282.269,113.927 Q284.551,112.271 286.521,112.584 Q288.49,112.897 290.147,115.179 Q293.46,119.744 288.895,123.057 Q244.489,155.286 239.857,167.97 L239.446,167.99 Q243.368,168.981 252.912,166.481 Q276.034,160.424 302.399,143.199 Q332.329,123.644 343.592,103.005 Q344.943,100.53 346.856,99.967 Q348.769,99.405 351.245,100.756 Q356.196,103.458 353.494,108.409 Z"/>
  <path fill="rgb(34.117647%, 70.196078%, 77.647059%)" opacity="0.78" d="M-25.59,190.073 Q-21.032,191.754 -10.753,195.717 Q29.267,211.146 57.105,219.126 Q105.894,233.113 157.567,238.653 Q166.701,239.632 172.467,246.783 Q178.233,253.933 177.254,263.067 Q176.274,272.201 169.124,277.967 Q161.973,283.733 152.839,282.754 Q97.355,276.806 44.882,261.763 Q15.15,253.239 -26.708,237.102 Q-36.686,233.255 -40.941,231.685 Q-49.559,228.506 -53.405,220.164 Q-57.251,211.822 -54.072,203.204 Q-50.893,194.586 -42.551,190.739 Q-34.209,186.893 -25.59,190.073 Z"/>
  <path fill="rgb(35.686275%, 62.745098%, 73.333333%)" opacity="0.058" d="M15.06,381.642 Q9.522,346.769 0.408,292.838 Q-9.076,236.717 -11.343,218.649 Q-15.132,188.451 -11.556,175.244 Q-5.069,151.283 20.214,151.971 Q29.665,152.228 54.731,159.725 Q83.718,168.395 103.341,172.337 Q111.01,173.878 115.343,180.39 Q119.676,186.902 118.136,194.571 Q116.595,202.24 110.083,206.574 Q103.57,210.907 95.901,209.366 Q74.568,205.08 43.909,195.911 Q30.995,192.048 24.502,190.597 Q24.736,210.129 37.649,286.545 Q46.794,340.66 52.362,375.718 Q53.589,383.443 48.994,389.773 Q44.398,396.104 36.673,397.331 Q28.948,398.557 22.617,393.962 Q16.287,389.367 15.06,381.642 Z"/>
  <path fill="rgb(25.098039%, 23.921569%, 29.411765%)" opacity="0.925" d="M238.692,154.713 Q183.849,150.606 146.283,134.172 Q123.685,124.287 91.616,100.355 Q70.388,84.513 58.019,77.413 Q55.165,75.774 54.557,73.527 Q53.949,71.28 55.587,68.426 Q58.865,62.716 64.574,65.994 Q77.629,73.488 99.491,89.803 Q130.348,112.83 151.56,122.11 Q187.07,137.644 239.675,141.584 Q246.24,142.075 245.749,148.64 Q245.503,151.923 243.739,153.441 Q241.974,154.959 238.692,154.713 Z"/>
  <path fill="rgb(13.333333%, 30.196078%, 23.921569%)" opacity="0.312" d="M331.199,281.073 Q330.848,280.176 331.519,279.404 Q332.25,278.563 333.884,278.956 Q335.452,279.332 335.076,280.9 Q334.917,281.56 334.548,281.875 Q334.362,282.259 333.948,282.545 Q333.498,282.856 332.873,282.881 Q331.261,282.945 331.197,281.334 Q331.192,281.198 331.199,281.073 Z"/>
  <path fill="rgb(24.313725%, 23.529412%, 28.627451%)" opacity="0.999" d="M266.954,191.712 Q220.281,176.39 185.324,167.002 Q186.895,170.251 185.367,175.118 Q182.215,185.165 172.168,182.012 Q136.327,170.765 119.865,161.915 Q109.718,156.459 107.238,150.897 Q103.052,141.506 111.715,135.954 Q115.046,133.819 120.338,133.459 Q150.737,131.393 273.523,171.702 Q283.527,174.987 280.243,184.992 Q276.959,194.996 266.954,191.712 Z"/>
  <path fill="rgb(74.901961%, 78.823529%, 79.607843%)" opacity="0.009" d="M100.62,43.401 Q101.738,37.467 106.113,31.612 Q103.886,31.877 100.576,32.318 Q99.625,32.445 99.135,32.51 Q96.328,32.883 95.955,30.077 Q95.768,28.673 96.377,27.878 Q96.985,27.083 98.388,26.896 Q98.879,26.831 99.827,26.705 Q109.833,25.371 111.485,25.629 Q113.164,25.892 113.985,27.11 Q114.994,28.608 114.189,30.381 Q113.824,31.185 112.324,32.922 Q107.25,38.8 106.185,44.45 Q105.66,47.233 102.878,46.708 Q100.095,46.184 100.62,43.401 Z"/>
  <path fill="rgb(44.313725%, 74.117647%, 81.960784%)" opacity="0.816" d="M174.436,238.377 Q277.183,233.677 357.136,210.133 Q419.298,191.828 445.29,170.358 Q436.061,169.107 422.036,169.566 Q394.113,170.481 354.351,178.486 Q344.653,180.439 336.415,174.962 Q328.177,169.486 326.225,159.788 Q324.272,150.09 329.749,141.853 Q335.225,133.615 344.923,131.662 Q433.603,113.807 471.403,127.747 Q483.609,132.248 490.974,140.242 Q500.638,150.73 500.702,164.669 Q500.796,184.833 479.765,203.693 Q446.356,233.652 370.628,255.952 Q285.135,281.127 176.619,286.091 Q166.737,286.544 159.43,279.876 Q152.122,273.208 151.67,263.326 Q151.218,253.444 157.886,246.137 Q164.554,238.829 174.436,238.377 Z"/>
  <path fill="rgb(25.490196%, 50.980392%, 63.137255%)" opacity="0.609" d="M108.846,297.11 Q105.959,296.432 103.125,295.775 Q103.104,296.086 103.069,296.411 Q102.22,304.081 94.55,303.233 Q38.309,297.014 -1.204,287.83 Q-39.468,278.935 -41.921,269.887 Q-44.173,261.583 -34.995,258.906 Q-32.03,258.042 -26.873,257.966 Q-17.375,257.828 0.247,260.127 Q42.124,265.592 112.373,282.085 Q116.129,282.967 117.567,285.286 Q119.004,287.605 118.122,291.361 Q116.358,298.874 108.846,297.11 Z"/>
  <path fill="rgb(72.54902%, 73.72549%, 96.470588%)" opacity="0.031" d="M161.068,70.613 Q158.764,70.136 157.223,68.788 Q154.499,66.405 154.158,61.299 Q153.476,51.086 163.689,50.405 Q201.381,47.888 212.98,51.14 Q216.447,52.113 218.739,53.925 Q224.672,58.618 222.841,65.759 Q221.254,71.949 212.387,76.067 Q201.409,81.166 170.011,88.888 Q165.041,90.111 161.945,88.237 Q158.849,86.363 157.627,81.394 Q155.769,73.837 161.068,70.613 Z"/>
</svg>

