<svg xmlns="http://www.w3.org/2000/svg" width="384" height="384" viewBox="0 0 384 384">
  <defs/>
  <path fill="rgb(50.980392%, 42.352941%, 48.235294%)" opacity="0.266" d="M274.227,221.209 Q283.654,222.141 288.415,219.089 Q291.409,217.169 290.276,214.972 Q288.415,211.363 280.105,209.613 Q269.175,207.31 252.211,210.053 Q250.798,210.281 249.977,209.689 Q249.156,209.097 248.928,207.684 Q248.471,204.857 251.297,204.4 Q269.313,201.487 281.286,204.01 Q292.257,206.321 295.365,212.347 Q298.888,219.177 291.505,223.909 Q285.07,228.034 273.664,226.908 Q270.815,226.626 271.096,223.777 Q271.378,220.928 274.227,221.209 Z"/>
  <path fill="rgb(0.784314%, 0%, 0%)" opacity="0.465" d="M156.358,275.04 Q139.787,366.394 124.499,408.347 Q112.632,440.913 96.016,454.806 Q86.19,463.022 74.325,466.238 Q58.466,470.536 42.929,465.266 Q22.497,458.336 10.333,437.4 Q-8.173,405.547 -17.745,297.698 Q-27.29,190.163 -31.142,-3.511 Q-31.332,-13.091 -27.842,-22.016 Q-24.352,-30.94 -17.712,-37.849 Q-11.072,-44.758 -2.294,-48.601 Q6.485,-52.443 16.065,-52.634 Q25.646,-52.824 34.57,-49.334 Q43.495,-45.844 50.404,-39.204 Q57.313,-32.564 61.156,-23.786 Q64.998,-15.007 65.189,-5.427 Q68.052,138.532 74.04,233.238 Q77.415,229.688 81.519,226.844 Q89.396,221.386 98.761,219.358 Q108.127,217.33 117.555,219.04 Q126.984,220.751 135.04,225.939 Q143.097,231.127 148.555,239.004 Q154.012,246.88 156.04,256.245 Q158.068,265.611 156.358,275.04 Z"/>
  <path fill="rgb(0%, 34.117647%, 69.019608%)" opacity="0.647" d="M311.05,140.896 Q263.276,100.31 249.489,96.564 Q244.326,95.161 241.539,98.094 Q239.281,100.471 235.195,109.976 Q225.364,132.85 212.112,144.645 Q210.827,145.788 209.612,145.718 Q208.398,145.647 207.254,144.362 Q204.966,141.792 207.536,139.504 Q219.645,128.726 228.872,107.259 Q233.444,96.623 236.55,93.354 Q242.166,87.442 251.293,89.922 Q266.562,94.072 315.505,135.651 Q318.128,137.879 315.9,140.501 Q314.786,141.813 313.573,141.911 Q312.361,142.01 311.05,140.896 Z"/>
  <path fill="rgb(3.529412%, 12.54902%, 14.509804%)" opacity="0.389" d="M249.479,82.862 Q280.399,53.306 297.527,42.53 Q318.869,29.103 328.164,39.87 Q335.382,48.23 331.211,73.305 Q328.023,92.468 317.033,130.054 Q316.07,133.346 313.943,134.51 Q311.816,135.675 308.524,134.712 Q301.941,132.787 303.866,126.204 Q324.286,56.37 317.78,48.835 Q317.601,48.627 316.117,48.891 Q312.025,49.617 304.833,54.142 Q288.877,64.18 258.958,92.779 Q254,97.518 249.26,92.56 Q246.891,90.081 246.945,87.656 Q247,85.232 249.479,82.862 Z"/>
  <path fill="rgb(0%, 2.352941%, 7.843137%)" opacity="0.454" d="M322.392,179.569 Q251.641,198.789 206.361,220.043 Q167.285,238.385 165.958,247.605 Q165.722,249.24 171.724,250.249 Q181.326,251.863 200.858,249.239 Q246.959,243.047 328.654,216.527 Q332.26,215.356 333.43,218.962 Q334.016,220.765 333.407,221.959 Q332.798,223.154 330.995,223.739 Q248.65,250.471 201.868,256.755 Q181.2,259.531 170.468,257.727 Q157.162,255.491 158.452,246.524 Q160.361,233.258 203.139,213.178 Q249.016,191.645 320.405,172.251 Q322.234,171.754 323.397,172.421 Q324.56,173.087 325.057,174.916 Q326.051,178.575 322.392,179.569 Z"/>
  <path fill="rgb(7.45098%, 40.392157%, 44.313725%)" opacity="0.403" d="M134.095,343.904 Q128.808,350.729 121.5,370.124 Q111.404,396.922 112.679,417.182 Q112.758,418.437 112.17,419.105 Q111.582,419.772 110.326,419.851 Q107.815,420.009 107.657,417.498 Q106.314,396.16 116.792,368.35 Q124.366,348.246 130.116,340.823 Q130.887,339.828 131.769,339.716 Q132.652,339.604 133.646,340.374 Q135.635,341.915 134.095,343.904 Z"/>
  <path fill="rgb(0%, 10.196078%, 11.372549%)" opacity="0.709" d="M204.937,212.97 Q156.481,203.746 116.357,199.962 Q98.45,198.272 92.008,195.411 Q85.738,192.625 68.462,178.797 Q63.018,174.441 59.785,171.878 Q55.494,168.475 58.896,164.184 Q60.597,162.038 62.52,161.816 Q64.444,161.593 66.59,163.294 Q69.841,165.872 75.306,170.246 Q91.478,183.19 96.456,185.401 Q101.261,187.536 117.386,189.057 Q158.023,192.89 206.985,202.21 Q212.365,203.234 211.341,208.614 Q210.317,213.994 204.937,212.97 Z"/>
  <path fill="rgb(72.156863%, 99.607843%, 63.921569%)" opacity="0.011" d="M59.153,325.676 Q59.002,323.368 58.143,322.044 Q57.709,322.128 57.352,321.998 Q56.756,321.782 56.376,320.971 Q55.978,320.12 56.168,319.354 Q56.565,317.755 58.233,317.87 Q59.341,317.945 60.403,319.118 Q62.466,321.397 62.73,325.442 Q62.847,327.23 61.058,327.347 Q60.164,327.406 59.688,326.988 Q59.211,326.57 59.153,325.676 Z"/>
  <path fill="rgb(14.509804%, 38.039216%, 46.666667%)" opacity="0.441" d="M153.929,289.239 Q152.838,287.152 151.366,284.775 Q149.715,282.108 150.671,280.699 Q151.856,278.951 155.022,280.284 Q179.165,290.448 228.5,281.582 Q230.848,281.16 231.27,283.508 Q231.692,285.856 229.344,286.278 Q183.065,294.594 157.828,286.407 Q157.996,286.72 158.157,287.027 Q158.71,288.084 158.458,288.889 Q158.206,289.694 157.149,290.247 Q155.035,291.352 153.929,289.239 Z"/>
  <path fill="rgb(0%, 25.098039%, 64.705882%)" opacity="0.926" d="M136.183,337.522 Q146.123,349.178 150.442,350.917 Q151.637,351.398 151.953,352.568 Q152.579,354.886 150.266,355.535 Q150.015,355.605 149.75,355.621 Q149.668,355.626 149.559,355.627 Q147.643,355.635 144.761,359.842 Q138.007,369.703 133.162,395.648 Q132.94,396.838 132.233,397.322 Q131.527,397.806 130.337,397.584 Q127.956,397.139 128.401,394.759 Q134.887,360.026 144.334,352.726 Q139.567,348.956 132.497,340.665 Q130.926,338.823 132.768,337.251 Q133.69,336.465 134.543,336.533 Q135.397,336.601 136.183,337.522 Z"/>
  <path fill="rgb(3.529412%, 29.411765%, 65.882353%)" opacity="0.679" d="M235.309,159.657 Q238.75,156.276 239.516,154.001 L239.796,154.145 Q239.198,153.086 235.035,153.23 Q229.802,153.411 227.777,156.334 Q225.404,159.759 229.552,167.515 Q231.48,171.12 230.642,173.886 Q229.804,176.652 226.2,178.58 Q218.991,182.436 215.135,175.227 Q206.273,158.66 214.338,147.021 Q221.036,137.355 234.468,136.889 Q248.556,136.401 254.035,146.109 Q260.595,157.733 246.769,171.319 Q240.938,177.049 235.208,171.218 Q229.478,165.387 235.309,159.657 Z"/>
  <path fill="rgb(16.078431%, 30.588235%, 54.117647%)" opacity="0.512" d="M132.968,168.604 Q116.842,142.782 124.313,128.874 Q128.552,120.983 138.051,119.575 Q145.059,118.536 153.133,121.585 Q169.753,127.86 177.937,143.747 Q187.909,163.104 176.982,184.05 Q174.834,188.169 171.701,189.154 Q168.568,190.139 164.45,187.99 Q156.213,183.694 160.51,175.457 Q166.982,163.051 161.421,152.256 Q156.507,142.718 146.57,138.966 Q143.011,137.622 140.775,137.954 L140.68,137.667 Q140.12,138.709 141.03,142.421 Q142.649,149.031 148.727,158.763 Q153.648,166.642 145.768,171.563 Q137.889,176.484 132.968,168.604 Z"/>
</svg>

