<svg xmlns="http://www.w3.org/2000/svg" width="384" height="384" viewBox="0 0 384 384">
  <defs/>
  <path fill="rgb(46.27451%, 70.588235%, 37.647059%)" opacity="0.536" d="M298.424,350.029 Q299.291,349.26 299.979,348.63 Q299.866,348.19 300.048,347.676 Q300.191,347.276 300.566,346.904 Q301.296,346.179 302.483,345.528 Q303.402,345.024 304.076,345.128 Q304.914,345.259 305.292,346.008 Q305.578,346.575 305.406,347.208 Q305.298,347.606 304.964,348.054 Q304.111,349.193 300.513,352.385 Q299.336,353.429 298.291,352.252 Q297.247,351.074 298.424,350.029 Z"/>
  <path fill="rgb(99.607843%, 25.098039%, 17.647059%)" opacity="0.105" d="M123.264,106.365 Q126.795,107.076 130.526,106.657 Q130.933,106.611 131.083,106.604 Q131.377,106.59 131.622,106.644 Q132.208,106.776 132.573,107.243 Q133.245,108.103 132.712,109.058 Q132.436,109.555 131.195,110.171 Q124.441,113.524 115.053,119.817 Q113.698,120.726 112.789,119.37 Q111.88,118.014 113.236,117.105 Q119.579,112.853 124.769,109.905 Q123.687,109.78 122.619,109.565 Q121.019,109.243 121.341,107.643 Q121.663,106.043 123.264,106.365 Z"/>
  <path fill="rgb(80.784314%, 56.862745%, 43.921569%)" opacity="0.022" d="M313.333,34.449 Q334.744,32.167 347.398,32.447 Q352.612,32.562 355.535,33.121 Q361.057,34.175 360.6,37.996 Q360.074,42.393 348.635,42.733 Q338.418,43.037 326.055,40.718 Q325.293,40.576 324.734,40.294 Q319.718,40.714 314.065,41.317 Q312.348,41.5 311.398,40.733 Q310.448,39.966 310.265,38.249 Q309.899,34.815 313.333,34.449 Z"/>
  <path fill="rgb(23.921569%, 41.960784%, 60.392157%)" opacity="0.125" d="M248.521,375.437 Q226.464,375.493 205.609,370.533 Q205.716,370.766 205.832,371.017 Q207.92,375.539 209.221,378.483 Q210.278,380.877 209.61,382.602 Q208.942,384.328 206.548,385.385 Q201.761,387.5 199.646,382.712 Q198.381,379.849 196.329,375.406 Q191.702,365.385 193.249,362.141 Q195.211,358.029 200.682,358.71 Q202.146,358.893 206.265,359.919 Q226.743,365.025 248.495,364.97 Q253.728,364.956 253.741,370.19 Q253.755,375.423 248.521,375.437 Z"/>
  <path fill="rgb(100%, 65.490196%, 68.235294%)" opacity="0.341" d="M173.646,120.572 Q191.98,130.373 226.989,125.388 Q230.65,124.866 232.742,126.436 Q234.833,128.007 235.355,131.668 Q236.397,138.991 229.074,140.034 Q185.985,146.17 162.998,131.469 Q152.706,124.887 152.787,117.654 Q152.835,113.346 156.243,110.864 Q158.867,108.954 162.363,109.225 Q165.966,109.505 170.379,112.338 Q175.58,115.676 173.646,120.572 Z"/>
  <path fill="rgb(12.54902%, 95.294118%, 100%)" opacity="0.128" d="M210.734,102.158 Q225.966,108.178 230.823,115.453 Q233.098,118.861 232.591,121.948 Q232.082,125.042 229.057,126.8 Q223.101,130.261 212.973,126.658 Q201.549,122.595 191.176,111.014 Q190.084,109.795 191.303,108.703 Q192.522,107.611 193.613,108.83 Q203.431,119.791 214.069,123.575 Q222.768,126.669 227.412,123.971 Q229.103,122.988 229.362,121.417 Q229.66,119.604 228.102,117.27 Q223.812,110.845 209.531,105.201 Q208.01,104.6 208.611,103.078 Q208.912,102.317 209.443,102.087 Q209.973,101.857 210.734,102.158 Z"/>
  <path fill="rgb(85.882353%, 55.686275%, 82.745098%)" opacity="0.53" d="M153.023,312.338 Q149.924,313.315 147.593,314.274 Q144.85,316.819 142.19,317.815 Q141.324,318.139 140.626,318.02 Q139.409,317.812 138.979,316.679 Q138.65,315.809 139.076,314.938 Q139.522,314.026 141.175,312.974 Q142.89,311.882 145.412,310.8 Q149.366,306.89 153.825,298.811 Q154.803,297.038 156.576,298.016 Q158.349,298.995 157.371,300.767 Q154.995,305.072 152.676,308.329 Q153.886,308.342 154.345,309.797 Q154.65,310.763 154.319,311.398 Q153.989,312.033 153.023,312.338 Z"/>
  <path fill="rgb(58.431373%, 51.372549%, 51.372549%)" opacity="0.41" d="M154.262,280.451 Q168.427,284.482 186.147,290.206 Q200.634,294.886 202.793,294.645 Q203.449,294.572 206.681,289.553 Q214.622,277.224 224.223,267.048 Q228.211,262.822 232.437,266.809 Q234.55,268.803 234.609,270.856 Q234.669,272.91 232.675,275.023 Q223.81,284.418 216.451,295.845 Q210.227,305.508 204.082,306.194 Q199.439,306.712 182.575,301.264 Q165.049,295.603 151.082,291.627 Q145.493,290.037 147.084,284.449 Q147.879,281.655 149.673,280.655 Q151.468,279.656 154.262,280.451 Z"/>
  <path fill="rgb(71.764706%, 100%, 45.882353%)" opacity="0.027" d="M370.545,359.795 Q369.541,359.462 368.481,359.124 Q367.905,358.941 367.756,358.865 Q366.858,358.409 366.844,357.408 Q366.826,356.078 368.121,355.772 Q368.318,355.726 368.522,355.728 Q368.66,355.729 368.818,355.755 Q368.882,355.766 369.061,355.8 Q373.621,356.683 373.965,355.767 Q374.546,354.216 376.097,354.797 Q377.648,355.378 377.066,356.929 Q376.137,359.409 372.268,359.455 Q371.681,360.171 370.545,359.795 Z"/>
  <path fill="rgb(91.764706%, 32.54902%, 20.392157%)" opacity="0.05" d="M196.584,143.654 Q206.357,143.179 211.005,145.742 Q216.058,148.529 214.684,153.467 Q213.748,156.831 209.378,158.86 Q195.472,165.317 149.453,162.746 Q144.339,162.461 144.625,157.347 Q144.91,152.234 150.024,152.519 Q178.044,154.084 192.813,152.405 Q191.823,151.199 191.717,149.018 Q191.468,143.903 196.584,143.654 Z"/>
</svg>

