<svg xmlns="http://www.w3.org/2000/svg" width="384" height="384" viewBox="0 0 384 384">
  <defs/>
  <path fill="rgb(40.784314%, 20%, 0%)" opacity="0.652" d="M106.465,216.9 Q106.661,209.023 109.77,205.616 Q113.342,201.701 118.452,204.041 Q122.134,205.727 124.713,210.071 Q127.344,214.503 127.284,219.235 Q127.123,232.047 110.214,234.264 Q90.977,236.787 52.534,223.063 Q49.48,221.972 50.57,218.917 Q51.116,217.39 52.152,216.899 Q53.188,216.408 54.716,216.953 Q91.685,230.152 109.371,227.833 Q120.707,226.346 120.798,219.153 Q120.884,212.29 115.751,209.939 Q114.944,209.569 114.562,209.988 Q113.085,211.606 112.95,217.061 Q112.869,220.304 109.626,220.223 Q108.005,220.183 107.215,219.352 Q106.424,218.521 106.465,216.9 Z"/>
  <path fill="rgb(2.352941%, 0.392157%, 9.019608%)" opacity="0.411" d="M55.154,159.305 Q68.673,334.212 60.479,381.072 Q57.001,400.965 47.646,412.753 Q36.211,427.163 18.563,430.107 Q1.716,432.917 -13.363,423.915 Q-30.295,413.806 -45.112,382.545 Q-52.664,366.611 -46.737,350.004 Q-40.811,333.397 -24.877,325.845 Q-23.083,324.995 -21.28,324.315 Q-21.559,271.604 -29.732,165.866 Q-31.091,148.286 -19.62,134.894 Q-8.15,121.502 9.43,120.143 Q27.011,118.784 40.403,130.255 Q53.795,141.725 55.154,159.305 Z"/>
  <path fill="rgb(31.764706%, 1.568627%, 0%)" opacity="0.768" d="M263.547,157.839 Q290.129,104.977 297.122,85.247 Q304.333,64.901 300.985,60.425 Q297.513,55.784 298.339,50.048 Q299.165,44.312 303.806,40.84 Q308.446,37.368 314.182,38.195 Q319.919,39.021 323.39,43.661 Q335.712,60.13 323.497,94.595 Q315.918,115.98 288.547,170.411 Q285.943,175.588 280.441,177.408 Q274.939,179.229 269.761,176.625 Q264.584,174.021 262.763,168.519 Q260.943,163.017 263.547,157.839 Z"/>
  <path fill="rgb(50.196078%, 50.196078%, 48.627451%)" opacity="0.004" d="M37.573,45.142 Q38.439,53.595 34.957,54.117 Q32.261,54.521 30.667,51.259 Q29.915,49.722 31.452,48.971 Q32.988,48.22 33.74,49.757 Q34.233,50.766 34.45,50.734 L34.183,50.444 Q34.52,48.905 34.17,45.491 Q33.995,43.789 35.697,43.615 Q37.398,43.44 37.573,45.142 Z"/>
  <path fill="rgb(6.666667%, 8.235294%, 0%)" opacity="0.722" d="M75.162,306.713 Q57.659,239.747 50.612,220.956 Q49.512,218.024 49.098,213.534 Q47.465,195.832 42.72,161.813 Q42.384,159.403 44.793,159.067 Q45.997,158.899 46.684,159.418 Q47.37,159.936 47.538,161.141 Q52.3,195.272 53.943,213.088 Q54.297,216.927 55.167,219.247 Q62.302,238.274 79.869,305.483 Q80.177,306.659 79.742,307.401 Q79.308,308.144 78.131,308.451 Q75.777,309.066 75.162,306.713 Z"/>
  <path fill="rgb(75.686275%, 63.137255%, 0%)" d="M73.68,63.355 Q74.103,77.977 78.342,102.32 Q84.09,135.337 92.136,156.888 Q96.359,168.198 100.289,173.341 Q101.754,175.258 102.79,175.871 Q105.787,174.994 107.826,176.02 Q110.013,177.119 111.099,180.405 Q113.272,186.977 106.7,189.15 Q91.305,194.24 79.167,161.73 Q70.672,138.976 64.703,104.695 Q59.036,72.147 59.91,55.355 Q60.635,41.428 68.775,40.605 Q76.107,39.864 82.504,53.54 Q83.97,56.675 83.136,58.976 Q82.302,61.276 79.167,62.742 Q75.997,64.225 73.68,63.355 Z"/>
  <path fill="rgb(5.098039%, 8.235294%, 11.764706%)" opacity="0.965" d="M299.933,174.251 Q321.417,153.168 333.674,153.916 Q340.524,154.334 342.207,160.483 Q343.381,164.769 340.405,169.218 Q336.928,174.419 327.764,179.826 Q305.167,193.159 263.791,199.881 Q209.026,208.778 133.76,203.175 Q126.284,202.618 126.841,195.143 Q127.119,191.405 129.127,189.675 Q131.135,187.945 134.873,188.224 Q208.371,193.695 261.387,185.082 Q282.509,181.651 298.111,176.533 Q298.773,175.39 299.933,174.251 Z"/>
  <path fill="rgb(39.607843%, 43.921569%, 45.490196%)" opacity="0.263" d="M42.554,135.561 Q49.242,139.84 54.59,140.654 Q58.73,141.284 59.143,144.631 Q59.418,146.864 57.085,149.163 Q54.852,151.363 52.861,153.958 Q51.573,155.637 50.09,155.833 Q48.607,156.028 46.928,154.74 Q43.571,152.165 46.147,148.807 Q46.69,148.099 47.249,147.415 Q42.807,145.769 37.993,142.689 Q34.429,140.409 36.709,136.845 Q37.849,135.062 39.31,134.741 Q40.772,134.42 42.554,135.561 Z"/>
  <path fill="rgb(9.019608%, 37.254902%, 34.901961%)" opacity="0.635" d="M400.166,279.772 Q291.351,315.973 180.002,313.81 Q142.491,313.082 112.146,308.076 Q99.845,306.046 91.474,303.712 Q86.027,302.193 82.066,300.43 Q76.821,298.095 72.633,294.703 Q66.122,289.431 62.39,282.015 Q53.43,264.204 62.888,246.675 Q70.368,232.811 85.461,228.296 Q100.214,223.884 113.793,230.931 Q117.926,231.936 124.527,233.025 Q149.456,237.137 181.479,237.759 Q279.751,239.667 376.154,207.596 Q391.102,202.622 405.189,209.676 Q419.275,216.73 424.248,231.678 Q429.221,246.626 422.168,260.712 Q415.114,274.799 400.166,279.772 Z M132.401,252.579 Q132.607,253.201 132.797,253.836 Q137.311,268.93 129.831,282.794 Q137.933,267.777 132.401,252.579 Z"/>
  <path fill="rgb(87.843137%, 54.901961%, 0%)" d="M205.224,41.763 Q198.378,54.179 190.013,54.96 Q181.43,55.762 178.232,46.872 Q175.197,38.436 181.389,32.937 Q187.93,27.13 200.609,31.338 Q204.227,32.539 204.005,35.666 Q207.34,37.927 205.224,41.763 Z M187.742,40.092 Q186.392,41.291 187.235,43.633 Q187.923,45.546 189.124,45.434 Q191.854,45.179 195.314,39.74 Q189.764,38.297 187.742,40.092 Z"/>
  <path fill="rgb(56.470588%, 68.235294%, 31.372549%)" opacity="0.012" d="M5.029,288.365 Q-2.531,282.099 -3.1,276.306 Q-3.752,269.661 2.89,268.876 Q8.506,268.213 14.676,273.628 Q21.564,279.672 26.112,291.247 Q26.966,293.422 24.792,294.276 Q23.705,294.703 22.948,294.373 Q22.19,294.043 21.763,292.956 Q17.63,282.436 11.595,277.139 Q6.988,273.097 3.438,273.516 Q1.345,273.764 1.55,275.85 Q1.93,279.729 8.01,284.768 Q8.909,285.513 8.986,286.335 Q9.063,287.158 8.318,288.057 Q6.828,289.856 5.029,288.365 Z"/>
  <path fill="rgb(52.156863%, 50.588235%, 59.607843%)" opacity="0.468" d="M115.587,394.413 Q114.793,392.229 113.944,389.886 Q91.245,402.133 57.117,392.299 Q45.869,389.058 40.207,378.813 Q34.546,368.567 37.787,357.32 Q41.028,346.072 51.273,340.411 Q61.519,334.749 72.766,337.99 Q82.317,340.742 86.984,339.812 L87.277,339.87 Q89.071,337.878 90.681,327.902 Q91.962,319.97 94.011,315.584 Q97.105,308.962 102.81,304.621 Q114.97,295.366 129.427,300.306 Q139.844,303.866 145.721,314.021 Q148.574,318.951 157.703,344.52 Q164.153,362.587 168.702,375.095 Q172.703,386.095 167.753,396.703 Q162.804,407.31 151.804,411.311 Q140.803,415.312 130.196,410.363 Q119.588,405.413 115.587,394.413 Z"/>
  <path fill="rgb(5.098039%, 7.058824%, 8.627451%)" d="M145.412,185.371 Q152.529,183.524 156.678,183.225 Q159.731,183.005 161.807,183.735 Q167.349,185.685 167.406,191.448 Q167.446,195.623 163.998,198.233 Q158.842,202.135 142.787,202.651 Q95.95,204.157 46.853,172.079 Q40.129,167.686 44.522,160.963 Q46.719,157.601 49.498,157.018 Q52.277,156.435 55.639,158.632 Q100.496,187.939 142.271,186.596 Q142.316,186.595 142.371,186.593 Q143.636,185.831 145.412,185.371 Z"/>
  <path fill="rgb(0%, 9.019608%, 65.882353%)" d="M68.441,67.535 Q106.688,108.147 128.408,120.711 Q135.187,124.632 137.697,129.089 Q139.621,132.505 144.064,146.808 Q150.015,165.965 155.611,182.503 Q156.759,185.892 155.637,188.161 Q154.516,190.429 151.126,191.576 Q144.347,193.871 142.053,187.091 Q136.398,170.384 130.394,151.054 Q126.402,138.204 125.225,136.114 Q124.634,135.064 121.241,133.102 Q97.706,119.487 58.02,77.348 Q53.113,72.138 58.324,67.231 Q63.534,62.324 68.441,67.535 Z"/>
  <path fill="rgb(32.54902%, 88.235294%, 58.823529%)" opacity="0.757" d="M283.052,301.113 Q232.573,303.502 132.757,300.181 Q123.819,299.884 124.116,290.945 Q124.265,286.475 126.574,284.315 Q128.883,282.155 133.352,282.303 Q239.042,285.82 288.554,282.911 Q290.884,282.774 292.832,282.634 Q298.639,281.649 301.645,281.719 Q302.548,281.74 303.384,281.913 Q305.565,282.365 307.277,283.772 Q310.438,286.37 310.542,290.459 Q310.634,294.115 308.14,296.792 Q306.138,298.938 303.051,299.547 Q302.11,299.732 300.349,299.928 Q298.069,300.181 294.87,300.42 Q292.511,300.854 289.393,301.517 Q285.562,302.333 283.052,301.113 Z"/>
  <path fill="rgb(100%, 97.647059%, 1.960784%)" opacity="0.666" d="M317.927,307.533 Q318.398,321.653 317.829,328.379 Q316.852,339.914 309.59,340.127 Q307.598,340.186 305.868,339.205 Q305.783,339.319 305.692,339.428 Q304.162,341.252 300.807,341.546 Q294.097,342.134 293.509,335.424 Q292.54,324.357 292.434,318.89 Q292.282,311.05 295.175,308.445 Q298.738,305.238 303.032,307.398 Q303.805,307.787 304.476,308.354 Q304.47,308.176 304.463,307.982 Q304.239,301.251 310.971,301.026 Q317.703,300.801 317.927,307.533 Z"/>
  <path fill="rgb(0%, 46.666667%, 47.058824%)" d="M200.862,61.855 Q202.998,83.313 196.988,99.442 Q193.425,109.006 183.749,122.171 Q174.752,134.412 173.5,141.905 Q171.326,154.906 181.133,177.167 Q184.536,184.893 176.81,188.297 Q172.947,189.999 170.164,188.918 Q167.382,187.837 165.68,183.974 Q153.84,157.098 156.845,139.121 Q158.761,127.656 170.142,112.171 Q178.424,100.903 181.165,93.546 Q185.807,81.088 184.06,63.528 Q183.223,55.126 191.625,54.29 Q195.826,53.872 198.135,55.763 Q200.444,57.655 200.862,61.855 Z"/>
  <path fill="rgb(24.313725%, 25.098039%, 27.843137%)" opacity="0.869" d="M316.918,146.311 Q322.697,151.763 331.955,153.606 Q339.626,155.134 341.964,159.054 Q344.844,163.882 343.112,176.627 Q340.68,194.522 316.505,290.944 Q315.546,294.769 311.721,293.81 Q309.808,293.331 309.091,292.134 Q308.374,290.938 308.854,289.025 Q332.922,193.028 335.296,175.564 Q336.656,165.554 335.19,163.095 Q334.647,162.186 330.415,161.343 Q318.932,159.056 311.504,152.049 Q308.636,149.342 311.342,146.473 Q314.049,143.604 316.918,146.311 Z"/>
  <path fill="rgb(1.568627%, 0%, 10.588235%)" opacity="0.327" d="M179.134,74.579 Q178.724,79.363 177.272,84.038 Q174.626,92.556 168.921,99.413 Q163.217,106.27 155.322,110.422 Q147.428,114.574 138.546,115.389 Q20.126,126.252 -48.397,119.894 Q-82.176,116.76 -100.84,109.085 Q-118.587,101.787 -128.081,88.524 Q-137.26,75.702 -137.456,60.189 Q-137.645,45.287 -129.419,32.488 Q-116.55,12.467 -82.023,2.152 Q-58.63,-4.837 -22.935,-9.237 Q56.89,-19.074 170.956,-13.885 Q179.866,-13.48 187.943,-9.695 Q196.02,-5.911 202.034,0.676 Q208.048,7.263 211.083,15.65 Q214.119,24.038 213.713,32.948 Q213.308,41.858 209.524,49.935 Q205.739,58.012 199.152,64.026 Q192.565,70.04 184.178,73.076 Q181.679,73.98 179.134,74.579 Z"/>
</svg>

