<svg xmlns="http://www.w3.org/2000/svg" width="384" height="384" viewBox="0 0 384 384">
  <defs/>
  <path fill="rgb(0%, 1.960784%, 5.098039%)" opacity="0.701" d="M375.691,135.955 Q343.906,166.908 318.784,178.817 Q303.944,185.851 284.513,187.901 Q276.353,188.762 273.046,189.882 Q268.118,191.55 263.845,196.002 Q252.826,207.483 236.564,248.412 Q234.363,253.953 228.822,251.752 Q223.281,249.55 225.483,244.01 Q242.606,200.911 255.242,187.745 Q261.533,181.19 269.223,178.587 Q273.785,177.043 283.261,176.043 Q300.673,174.206 313.676,168.042 Q337.008,156.982 367.372,127.412 Q369.507,125.333 371.615,125.361 Q373.723,125.388 375.803,127.524 Q379.962,131.795 375.691,135.955 Z"/>
  <path fill="rgb(0%, 0%, 1.568627%)" opacity="0.643" d="M198.664,382.605 Q205.792,386.89 213.422,375.905 Q217.914,369.438 219.956,361.55 Q221.609,355.167 220.804,352.579 Q219.112,347.133 221.766,342.085 Q224.42,337.036 229.866,335.344 Q235.313,333.651 240.361,336.305 Q245.409,338.959 247.102,344.405 Q250.233,354.48 246.616,368.453 Q243.34,381.105 236.04,391.615 Q227.131,404.442 215.282,409.156 Q199.699,415.358 184.477,406.208 Q179.588,403.269 178.21,397.735 Q176.831,392.201 179.769,387.313 Q182.707,382.424 188.241,381.046 Q193.776,379.667 198.664,382.605 Z"/>
  <path fill="rgb(21.568627%, 20.784314%, 21.568627%)" opacity="0.585" d="M50.98,131.686 Q42.776,129.018 31.729,127.519 Q20.694,126.022 14.15,123.71 Q2.28,119.516 -6.31,110.919 Q-18.129,99.09 -20.933,82.491 Q-23.342,68.235 -17.801,51.588 Q-16.219,46.838 -11.522,35.112 Q0.885,4.143 10.355,-24.92 Q13.377,-34.195 19.719,-41.608 Q26.06,-49.021 34.756,-53.442 Q43.452,-57.864 53.177,-58.621 Q62.903,-59.378 72.178,-56.356 Q81.453,-53.334 88.866,-46.992 Q96.278,-40.651 100.7,-31.955 Q105.121,-23.259 105.879,-13.534 Q106.636,-3.808 103.614,5.467 Q97.663,23.73 90.7,42.584 Q94.552,44.813 98.003,47.761 Q105.419,54.098 109.846,62.791 Q114.273,71.484 115.036,81.209 Q115.8,90.934 112.783,100.211 Q109.767,109.488 103.43,116.905 Q97.093,124.322 88.4,128.749 Q79.708,133.175 69.982,133.939 Q60.257,134.702 50.98,131.686 Z"/>
  <path fill="rgb(3.137255%, 0.392157%, 0%)" opacity="0.626" d="M138.104,117.93 Q118.953,65.217 115.06,38.024 Q111.104,10.393 123.42,4.074 Q133.266,-0.978 150.302,9.877 Q156.084,13.561 165.532,21.168 Q164.976,20.237 164.397,19.273 Q162.571,16.233 163.178,13.8 Q163.785,11.368 166.825,9.542 Q172.904,5.89 176.556,11.969 Q185.108,26.206 188.572,33.268 Q193.72,43.765 190.016,48.362 Q185.012,54.572 175.368,47.535 Q172.558,45.485 165.001,39.119 Q135.169,13.989 129.895,16.694 Q129.217,17.042 128.67,19.823 Q127.578,25.375 129.101,36.014 Q132.786,61.753 151.435,113.086 Q153.857,119.752 147.191,122.174 Q140.525,124.595 138.104,117.93 Z"/>
  <path fill="rgb(2.745098%, 0.784314%, 0%)" opacity="0.806" d="M331.19,83.72 Q292.03,108.785 275.447,125.67 Q265.016,136.29 252.688,157.581 Q233.308,191.052 208.816,220.133 Q166.486,270.392 84.22,344.111 Q80.819,347.158 77.595,346.982 Q74.371,346.805 71.323,343.404 Q65.228,336.602 72.03,330.507 Q153.341,257.643 194.844,208.366 Q218.304,180.511 236.88,148.428 Q250.365,125.138 262.415,112.87 Q280.444,94.513 321.342,68.335 Q325.188,65.873 328.342,66.565 Q331.496,67.257 333.958,71.103 Q338.882,78.796 331.19,83.72 Z"/>
  <path fill="rgb(42.745098%, 43.529412%, 46.27451%)" opacity="0.864" d="M157.273,147.565 Q140.461,133.563 123.37,122.135 Q116.574,117.591 112.003,114.904 Q113.894,116.885 116.358,119.299 Q134.018,136.603 176.221,171.396 Q177.578,172.515 177.697,173.752 Q177.816,174.99 176.698,176.346 Q174.461,179.06 171.748,176.823 Q129.311,141.838 111.436,124.322 Q103.513,116.559 100.879,112.621 Q99.088,109.944 99.211,107.969 Q99.354,105.665 101.337,104.564 Q102.56,103.885 104.176,104.014 Q109.565,104.445 127.279,116.289 Q144.678,127.922 161.774,142.161 Q164.476,144.412 162.225,147.114 Q159.975,149.816 157.273,147.565 Z"/>
  <path fill="rgb(4.313725%, 3.921569%, 2.352941%)" opacity="0.72" d="M53.931,296.261 Q162.61,226.997 170.761,207.176 Q171.718,204.849 171.073,203.752 Q169.953,201.846 165.373,199.729 Q157.645,196.158 129.541,190.167 Q91.432,182.044 70.49,174.711 Q33.754,161.847 9.197,141.172 Q3.728,136.568 8.332,131.099 Q10.634,128.365 13.153,128.149 Q15.671,127.932 18.405,130.235 Q40.955,149.22 75.215,161.217 Q95.3,168.25 132.522,176.184 Q162.191,182.508 171.371,186.751 Q190.906,195.78 183.984,212.613 Q178.465,226.035 149.262,248.623 Q121.088,270.414 61.616,308.318 Q58.601,310.239 56.134,309.692 Q53.666,309.145 51.745,306.131 Q47.903,300.103 53.931,296.261 Z"/>
  <path fill="rgb(19.607843%, 17.254902%, 15.686275%)" opacity="0.748" d="M203.26,1.225 Q186.563,45.724 185.78,93.211 Q185.061,136.812 197.049,153.18 Q201.525,159.292 206.733,157.976 Q213.993,156.141 223.059,142.887 Q246.117,109.179 269.569,18.071 Q270.169,15.742 271.633,14.878 Q273.097,14.013 275.425,14.612 Q280.083,15.811 278.884,20.468 Q255.01,113.214 230.998,148.317 Q219.877,164.574 209.09,167.3 Q197.597,170.205 189.29,158.863 Q175.391,139.887 176.164,93.052 Q176.974,43.902 194.255,-2.154 Q195.945,-6.657 200.447,-4.967 Q202.699,-4.123 203.402,-2.575 Q204.105,-1.027 203.26,1.225 Z"/>
  <path fill="rgb(15.294118%, 14.901961%, 18.431373%)" opacity="0.999" d="M238.91,339.017 Q235.615,342.618 232.477,346.678 Q229.292,350.798 225.954,350.349 Q220.424,349.605 221.105,343.739 Q221.16,343.27 221.375,342.098 Q227.673,307.848 201.364,253.637 Q198.93,248.622 203.945,246.188 Q206.453,244.971 208.315,245.616 Q210.177,246.262 211.394,248.769 Q234.147,295.651 233.722,329.468 Q236.077,328.87 238.56,331.141 Q242.673,334.904 238.91,339.017 Z"/>
  <path fill="rgb(2.352941%, 0%, 0%)" opacity="0.71" d="M325.021,52.832 Q280.477,90.873 237.18,130.255 Q219.878,145.993 217.356,147.229 Q216.243,147.775 215.206,147.777 Q212.657,147.782 211.667,145.46 Q210.989,143.869 211.804,141.5 Q212.361,139.88 215.073,134.264 Q230.251,102.826 233.296,78.395 Q238.868,33.695 210.758,-0.503 Q208.531,-3.213 211.241,-5.441 Q212.596,-6.555 213.831,-6.434 Q215.065,-6.313 216.179,-4.958 Q246.204,31.57 240.259,79.263 Q237.267,103.267 223.271,133.35 Q227.076,129.961 232.459,125.065 Q275.836,85.61 320.464,47.496 Q321.798,46.357 323.034,46.454 Q324.271,46.552 325.41,47.886 Q327.688,50.554 325.021,52.832 Z"/>
  <path fill="rgb(56.862745%, 72.54902%, 54.901961%)" opacity="0.02" d="M5.253,259.71 Q14.737,270.82 18.114,277.822 Q19.87,281.464 19.985,284.149 Q20.194,289.008 16.187,290.844 Q11.503,292.99 4.973,287.964 Q-0.246,283.948 -3.909,277.636 Q-6.404,273.336 -2.104,270.841 Q-0.519,269.921 0.82,269.925 Q-0.635,268.125 -2.308,266.165 Q-3.922,264.275 -3.784,262.523 Q-3.645,260.77 -1.755,259.157 Q2.026,255.929 5.253,259.71 Z"/>
  <path fill="rgb(0%, 0%, 2.352941%)" opacity="0.881" d="M233.889,240.481 Q251.827,286.417 269.436,316.806 Q272.564,322.202 275.453,326.767 Q275.662,326.915 275.873,327.072 Q292.342,339.355 297.713,349.583 Q299.49,352.968 299.662,356 Q299.877,359.774 297.857,362.807 Q295.038,367.041 289.929,367.523 Q283.938,368.089 277.006,361.581 Q266.083,351.326 251.951,326.938 Q233.566,295.21 215.064,247.832 Q211.389,238.42 220.801,234.744 Q230.213,231.068 233.889,240.481 Z"/>
  <path fill="rgb(0%, 0%, 1.960784%)" opacity="0.986" d="M68.441,54.644 Q60.756,64.246 68.529,71.415 Q74.61,77.024 99.362,88.039 Q125.092,99.49 137.707,107.344 Q159.654,121.007 170.499,137.999 Q172.617,141.318 169.298,143.436 Q167.638,144.495 166.279,144.195 Q164.92,143.895 163.861,142.236 Q153.977,126.749 133.545,114.029 Q121.392,106.464 96.16,95.234 Q70.224,83.692 63.19,77.204 Q50.02,65.057 62.293,49.723 Q64.754,46.649 67.828,49.11 Q70.902,51.57 68.441,54.644 Z"/>
  <path fill="rgb(2.745098%, 2.745098%, 1.960784%)" opacity="0.932" d="M137.733,163.038 Q125.259,152.494 105.907,143.674 Q103.75,143.853 101.053,142.957 Q74.351,134.087 68.509,130.831 Q67.003,129.992 65.964,129.011 Q63.859,127.023 63.171,124.271 Q61.419,117.26 67.687,113.65 Q71.01,111.736 75.791,112.694 Q79.118,113.36 85.3,115.391 Q126.992,129.089 149.994,148.533 Q157.246,154.663 151.116,161.916 Q144.985,169.168 137.733,163.038 Z"/>
</svg>

