<svg xmlns="http://www.w3.org/2000/svg" width="384" height="384" viewBox="0 0 384 384">
  <defs/>
  <path fill="rgb(41.568627%, 0%, 9.019608%)" opacity="0.942" d="M222.854,264.494 Q216.661,243.006 198.666,227.975 Q187.98,219.048 167.625,209.317 Q160.112,205.725 157.244,203.963 Q143.626,195.599 145.734,182.111 Q147.651,169.843 162.179,164.573 Q167.593,162.609 178.505,160.244 Q185.936,158.633 192.33,162.748 Q198.723,166.863 200.334,174.294 Q201.509,179.711 199.641,184.576 Q213.051,192.154 222.203,199.799 Q248.825,222.037 258.131,254.327 Q260.237,261.633 256.559,268.288 Q252.882,274.943 245.576,277.049 Q238.27,279.155 231.614,275.477 Q224.959,271.8 222.854,264.494 Z"/>
  <path fill="rgb(97.254902%, 33.72549%, 37.647059%)" opacity="0.494" d="M184.016,375.685 Q145.009,364.324 125.681,359.434 Q120.874,358.451 116.961,357.495 Q103.466,354.199 98.832,343.4 Q96.107,337.049 97.272,330.236 Q98.524,322.914 103.771,317.657 Q108.443,312.976 114.877,311.434 Q117.859,310.72 120.934,310.797 Q122.296,310.831 123.681,311.024 Q124.454,311.132 125.36,311.309 Q126.336,311.5 127.831,311.841 Q131.4,312.655 135.995,313.809 Q138.739,314.36 141.876,314.934 Q169.748,320.039 191.97,320.058 Q218.861,320.082 226.921,313.436 Q234.394,307.274 244.035,308.201 Q253.676,309.128 259.838,316.601 Q266,324.074 265.072,333.715 Q264.145,343.356 256.672,349.518 Q240.114,363.171 210.112,366.17 Q207.071,370.843 201.806,373.732 Q193.316,378.393 184.016,375.685 Z"/>
  <path fill="rgb(85.490196%, 0%, 0%)" d="M90.909,84.056 Q100.534,86.923 106.203,88.57 Q108.46,89.196 110.341,89.728 Q111.903,90.17 112.642,90.388 Q118.717,92.181 122.585,96.851 Q128.035,103.432 127.005,111.913 Q125.688,122.771 115.806,127.462 Q111.619,129.45 106.984,129.379 Q105.49,129.356 104.015,129.11 Q103.423,129.011 102.834,128.876 Q102.554,128.812 102.261,128.736 Q102.066,128.686 101.807,128.615 Q99.603,128.014 95.427,126.802 Q92.757,126.062 89.531,125.182 Q41.127,111.976 -22.439,96.966 Q-30.446,95.076 -34.77,88.077 Q-39.095,81.079 -37.205,73.073 Q-35.314,65.066 -28.316,60.741 Q-21.317,56.417 -13.311,58.307 Q42.288,71.436 86.522,83.229 Q88.69,83.394 90.909,84.056 Z"/>
  <path fill="rgb(58.431373%, 96.862745%, 52.54902%)" opacity="0.025" d="M101.137,50.959 Q100.908,50.111 101.791,49.335 Q102.449,48.756 103.068,48.796 Q103.66,48.833 104.215,49.436 Q104.545,49.552 104.835,49.812 Q105.676,50.569 105.341,51.648 Q105.11,52.387 104.408,52.719 Q104.195,52.82 103.968,52.863 Q103.642,53.203 102.545,55.29 Q101.728,56.842 100.175,56.025 Q98.623,55.208 99.44,53.656 Q100.322,51.98 101.137,50.959 Z"/>
  <path fill="rgb(7.058824%, 10.588235%, 15.686275%)" opacity="0.818" d="M119.523,246.554 Q114.744,245.258 108.437,243.402 Q59.08,228.877 -21.386,198.13 Q-23.654,197.264 -24.355,195.696 Q-25.056,194.129 -24.189,191.86 Q-22.455,187.324 -17.919,189.057 Q62.19,219.668 111.179,234.084 Q122.882,237.528 129.068,238.968 Q129.168,238.988 129.262,239.008 Q129.556,239.07 129.823,239.139 L129.83,239.14 L129.853,239.145 Q129.846,239.144 129.84,239.143 Q131.011,239.444 131.653,239.869 Q133.298,240.957 133.719,242.883 Q134.654,247.157 130.5,248.531 Q129.633,248.818 128.72,248.771 Q128.479,248.758 128.238,248.721 Q128.134,248.706 128.02,248.684 Q127.927,248.666 127.796,248.638 Q127.555,248.586 127.195,248.504 Q127.087,248.479 126.984,248.455 Q124.97,248.039 122.146,247.568 Q120.508,247.294 119.523,246.554 Z"/>
  <path fill="rgb(95.686275%, 80%, 92.54902%)" opacity="0.088" d="M171.834,374.1 Q176.474,401.387 171.335,405.923 Q170.12,406.996 168.594,406.853 Q167.158,406.718 166.167,405.556 Q165.071,404.271 164.907,402.089 Q164.586,397.793 167.605,393.778 Q167.873,393.421 168.155,393.161 Q167.97,385.954 166.119,375.072 Q165.876,373.643 166.469,372.807 Q167.062,371.971 168.491,371.729 Q171.348,371.243 171.834,374.1 Z"/>
  <path fill="rgb(38.431373%, 3.137255%, 7.843137%)" opacity="0.935" d="M283.422,166.705 Q289.969,170.933 294.269,178.166 Q301.648,190.579 298.088,204.574 Q294.528,218.569 282.115,225.948 Q269.702,233.327 255.707,229.768 Q130.706,197.973 61.046,175.299 Q28.21,164.61 10.591,156.786 Q0.082,152.119 -6.29,147.834 Q-26.573,134.195 -25.357,112.708 Q-23.25,75.464 26.298,76.951 Q44.203,77.488 76.448,82.172 Q143.782,91.954 259.513,117.175 Q273.623,120.25 281.425,132.401 Q289.228,144.552 286.153,158.662 Q285.213,162.979 283.422,166.705 Z"/>
  <path fill="rgb(76.470588%, 0%, 6.666667%)" d="M-15.572,116.125 Q39.689,132.966 82.355,143.364 Q97.117,146.465 104.44,148.259 Q106.926,148.868 108.123,149.285 Q113.457,151.144 116.768,155.622 Q120.285,160.379 120.293,166.294 Q120.305,174.282 114.387,179.649 Q110.363,183.297 104.989,184.111 Q103.056,184.404 101.085,184.277 Q99.923,184.202 98.466,183.94 Q95.823,183.465 89.219,181.954 Q81.994,180.302 74.387,178.452 Q67.985,177.109 60.113,175.506 Q57.114,174.895 54.654,173.487 Q18.181,164.023 -26.061,150.539 Q-33.188,148.367 -36.692,141.791 Q-40.196,135.215 -38.024,128.088 Q-35.852,120.96 -29.276,117.456 Q-22.7,113.953 -15.572,116.125 Z"/>
  <path fill="rgb(63.137255%, 12.156863%, 19.215686%)" opacity="0.782" d="M249.598,172.514 Q256.698,160.204 269.163,138.898 Q271.533,134.847 273.732,131.066 Q213.525,124.6 171.041,118.109 Q92.632,106.128 11.012,86.489 Q-2.951,83.129 -14.565,74.681 Q-26.18,66.234 -33.677,53.985 Q-41.175,41.736 -43.414,27.551 Q-45.653,13.365 -42.293,-0.598 Q-38.934,-14.561 -30.486,-26.175 Q-22.039,-37.789 -9.79,-45.286 Q2.459,-52.784 16.645,-55.023 Q30.83,-57.262 44.793,-53.903 Q120.477,-35.691 192.851,-24.633 Q234.201,-18.315 295.106,-11.872 Q345.419,-6.55 363.518,-2.367 Q421.745,11.09 439.228,56.985 Q453.894,95.486 430.525,145.457 Q422.176,163.308 393.799,211.814 Q381.56,232.734 374.683,244.658 Q367.508,257.098 356.118,265.846 Q344.729,274.593 330.858,278.317 Q316.988,282.04 302.749,280.172 Q288.51,278.304 276.069,271.129 Q263.629,263.953 254.881,252.564 Q246.133,241.174 242.41,227.304 Q238.687,213.433 240.555,199.194 Q242.423,184.955 249.598,172.514 Z"/>
  <path fill="rgb(67.843137%, 67.843137%, 72.54902%)" opacity="0.525" d="M261.585,355.12 Q268.703,338.874 264.95,331.669 Q260.34,322.821 231.263,301.244 Q224.936,296.55 229.631,290.224 Q234.325,283.897 240.652,288.592 Q272.638,312.328 278.922,324.389 Q283.333,332.855 282.057,342.541 Q281.094,349.853 276.016,361.443 Q272.855,368.658 265.639,365.497 Q258.424,362.335 261.585,355.12 Z"/>
  <path fill="rgb(73.72549%, 75.686275%, 77.254902%)" opacity="0.025" d="M210.455,64.534 Q219.869,58.179 222.447,53.346 Q222.944,52.416 223.135,51.786 Q222.812,51.442 222.558,51.112 Q221.836,50.171 221.638,49.239 Q221.032,46.392 223.712,45.475 Q226.185,44.629 228.01,47.133 Q228.624,47.974 228.94,48.911 Q231.193,50.588 235.979,52.995 Q237.325,53.673 237.66,54.684 Q237.994,55.696 237.317,57.042 Q235.963,59.734 233.271,58.38 Q230.303,56.887 228.092,55.538 Q227.938,55.858 227.765,56.183 Q224.482,62.337 213.827,69.529 Q212.578,70.372 211.532,70.169 Q210.486,69.966 209.643,68.717 Q207.957,66.219 210.455,64.534 Z"/>
  <path fill="rgb(26.27451%, 3.137255%, 3.921569%)" opacity="0.178" d="M233.032,314.659 Q231.412,318.29 230.611,319.679 Q230.017,320.709 229.482,321.2 Q228.788,321.836 227.931,321.937 Q226.533,322.101 225.645,320.982 Q224.677,319.763 225.125,311.098 Q227.043,274.013 221.692,241.872 Q221.308,239.568 223.612,239.184 Q225.917,238.8 226.301,241.105 Q231.735,273.747 229.791,311.339 Q229.784,311.477 229.783,311.502 Q230.62,311.025 231.851,311.574 Q233.984,312.526 233.032,314.659 Z"/>
  <path fill="rgb(100%, 35.686275%, 45.098039%)" opacity="0.727" d="M253.629,338.583 Q257.66,342.328 258.581,347.997 Q263.3,377.052 203.785,386.952 Q163.747,393.611 126.599,391.16 Q106.704,389.848 98.244,385.009 Q92.866,381.932 90.13,376.991 Q85.694,368.981 89.305,360.508 Q92.59,352.797 102.941,347.619 Q128.711,334.729 234.856,317.825 Q241.672,316.739 247.26,320.792 Q252.847,324.844 253.933,331.66 Q254.512,335.296 253.629,338.583 Z"/>
  <path fill="rgb(18.039216%, 33.333333%, 34.509804%)" opacity="0.82" d="M175.968,191.853 Q77.463,166.636 2.84,146.121 Q-27.357,137.82 -34.132,135.575 Q-35.177,135.229 -35.791,134.978 Q-36.565,134.662 -37.185,134.283 Q-38.684,133.364 -39.652,131.926 Q-41.558,129.092 -40.796,125.765 Q-39.992,122.26 -36.814,120.569 Q-34.156,119.155 -29.424,120.155 Q-25.216,121.044 -13.494,123.963 Q-10.27,124.766 -8.747,126.592 Q-1.92,128.501 7.009,130.956 Q81.498,151.434 179.868,176.616 Q187.487,178.566 185.537,186.185 Q183.586,193.803 175.968,191.853 Z"/>
  <path fill="rgb(16.862745%, 0%, 3.921569%)" d="M142.483,145.287 Q132.373,144.503 125.716,141.601 Q109.253,134.426 111.248,116.377 Q111.672,112.538 115.51,112.963 Q119.348,113.387 118.924,117.225 Q117.555,129.619 128.802,134.521 Q135.496,137.438 147.12,137.803 Q148.37,137.842 148.786,137.876 Q149.458,137.931 149.957,138.086 Q151.517,138.571 152.274,139.985 Q153.825,142.884 151.211,144.904 Q150.323,145.59 146.299,146.419 Q143.661,146.963 142.483,145.287 Z"/>
  <path fill="rgb(84.705882%, 5.098039%, 14.117647%)" opacity="0.962" d="M179.832,170.062 Q180.569,170.804 180.198,172.185 Q179.904,173.276 179.212,173.674 Q178.52,174.073 177.429,173.78 Q138.694,163.361 136.114,162.341 Q135.725,162.187 135.472,162.029 Q134.933,161.692 134.64,161.158 Q134.127,160.222 134.516,159.231 Q134.835,158.416 135.622,158.023 Q136.32,157.674 137.545,157.836 Q138.631,157.979 141.547,158.552 Q145.246,159.277 158.632,162.082 Q171.077,164.69 178.559,166.237 Q180.772,166.694 180.314,168.907 Q180.166,169.625 179.832,170.062 Z"/>
  <path fill="rgb(19.215686%, 21.568627%, 26.666667%)" opacity="0.766" d="M216.059,251.78 Q204.134,266.674 155.677,256.778 Q121.419,249.782 61.576,229.092 Q56.227,227.242 58.076,221.893 Q59.001,219.218 60.801,218.343 Q62.601,217.468 65.275,218.393 Q192.946,262.535 207.222,244.705 Q210.76,240.286 215.178,243.824 Q219.597,247.361 216.059,251.78 Z"/>
</svg>

