<svg xmlns="http://www.w3.org/2000/svg" width="384" height="384" viewBox="0 0 384 384">
  <defs/>
  <path fill="rgb(100%, 9.803922%, 10.588235%)" opacity="0.794" d="M60.015,240.413 Q62.698,302.447 60.59,350.325 Q60.185,359.533 60.37,362.277 Q60.847,362.217 61.533,362.117 Q66.678,361.366 70.721,361.547 Q72.537,361.629 73.405,362.577 Q74.272,363.526 74.191,365.342 Q74.028,368.975 70.396,368.812 Q67.043,368.662 62.582,369.312 Q55.189,370.39 53.599,365.54 Q52.755,362.966 53.325,350.005 Q55.419,302.444 52.75,240.727 Q52.672,238.911 53.541,237.964 Q54.409,237.016 56.226,236.938 Q59.858,236.781 60.015,240.413 Z"/>
  <path fill="rgb(3.921569%, 0%, 11.764706%)" opacity="0.455" d="M-63.08,153.852 Q-43.492,139.481 -19.782,122.526 Q-23.431,122.382 -27.096,121.779 Q-38.653,119.878 -48.604,113.699 Q-58.554,107.52 -65.382,98.004 Q-72.21,88.487 -74.877,77.082 Q-77.544,65.677 -75.643,54.119 Q-73.742,42.561 -67.563,32.611 Q-61.383,22.661 -51.867,15.833 Q-42.35,9.004 -30.945,6.338 Q86.391,-21.096 128.544,-29.404 Q158.751,-35.358 176.696,-37.256 Q206.73,-40.434 225.472,-33.191 Q238.649,-28.099 248.305,-18.321 Q262.226,-4.223 265.445,15.277 Q269.494,39.804 255.093,62.026 Q246.25,75.672 226.023,92.12 Q207.387,107.274 140.872,153.486 Q58.543,210.684 6.588,248.804 Q-2.856,255.733 -14.232,258.521 Q-25.609,261.308 -37.186,259.53 Q-48.763,257.752 -58.778,251.679 Q-68.793,245.605 -75.722,236.162 Q-82.651,226.718 -85.439,215.342 Q-88.226,203.966 -86.448,192.389 Q-84.67,180.811 -78.597,170.796 Q-72.523,160.781 -63.08,153.852 Z"/>
  <path fill="rgb(10.196078%, 48.627451%, 75.686275%)" opacity="0.579" d="M111.301,196.213 Q81.734,196.326 70.633,196.886 Q69.345,199.137 66.714,200.305 Q60.222,203.187 57.34,196.695 Q57.296,196.597 57.254,196.499 Q52.332,192.057 56.379,186.66 Q58.683,183.587 65.705,182.974 Q75.197,182.144 111.246,182.006 Q118.35,181.979 118.377,189.082 Q118.404,196.186 111.301,196.213 Z"/>
  <path fill="rgb(23.921569%, 23.921569%, 32.941176%)" opacity="0.518" d="M77.7,360.816 Q132.082,362.093 170.438,355.393 Q193.153,351.425 229.384,339.661 Q270.045,326.458 297.876,321.342 Q343.814,312.896 405.584,313.088 Q419.86,313.132 429.924,323.259 Q439.988,333.385 439.944,347.662 Q439.899,361.939 429.773,372.002 Q419.646,382.066 405.369,382.022 Q349.992,381.85 310.341,389.139 Q286.996,393.431 250.673,405.226 Q209.811,418.494 182.3,423.299 Q137.254,431.167 76.082,429.731 Q61.809,429.396 51.953,419.067 Q42.098,408.737 42.433,394.464 Q42.768,380.192 53.097,370.336 Q63.427,360.481 77.7,360.816 Z"/>
  <path fill="rgb(100%, 48.235294%, 10.588235%)" opacity="0.731" d="M201.31,102.712 Q243.516,100.528 270.531,107.229 Q292.168,112.595 300.165,122.297 Q303.987,126.934 303.539,131.38 Q302.994,136.779 297.594,138.215 Q288.373,140.666 277.656,128.482 Q276.315,126.958 276.407,125.526 Q276.499,124.094 278.022,122.753 Q281.07,120.072 283.751,123.12 Q291.113,131.489 295.468,130.38 Q295.432,129.318 293.901,127.461 Q287.61,119.828 268.577,115.108 Q242.732,108.697 201.729,110.819 Q197.676,111.029 197.466,106.975 Q197.361,104.949 198.322,103.883 Q199.283,102.817 201.31,102.712 Z"/>
  <path fill="rgb(86.27451%, 74.509804%, 85.490196%)" opacity="0.008" d="M379.302,167.086 L379.047,167.339 Q377.251,169.127 376.255,170.159 Q377.454,170.705 378.283,171.588 Q378.905,172.25 378.885,172.893 Q378.864,173.536 378.202,174.158 Q376.876,175.402 375.631,174.077 Q375.029,173.435 373.754,173.141 Q372.613,172.879 372.119,172.372 Q370.904,171.124 372.045,169.44 Q372.594,168.63 376.482,164.761 L376.737,164.508 Q378.026,163.225 379.309,164.514 Q379.95,165.159 379.948,165.802 Q379.947,166.445 379.302,167.086 Z"/>
  <path fill="rgb(55.686275%, 96.078431%, 89.019608%)" d="M205.188,70.311 Q237.494,86.669 244.954,82.521 Q248.244,80.692 247.028,64.957 Q245.659,47.244 249.082,39.825 Q255.35,26.238 276.659,27.476 Q279.003,27.612 280.107,28.852 Q281.211,30.093 281.075,32.437 Q280.802,37.124 276.114,36.852 Q261.196,35.985 257.61,43.759 Q255.212,48.958 256.392,64.234 Q257.167,74.26 256.638,78.6 Q255.57,87.364 249.518,90.729 Q237.701,97.3 200.945,78.689 Q196.756,76.568 198.877,72.379 Q200.998,68.189 205.188,70.311 Z"/>
  <path fill="rgb(67.843137%, 74.901961%, 38.431373%)" opacity="0.22" d="M64.648,236.245 Q66.331,235.626 68.545,235.466 Q73.494,235.11 76.146,237.406 Q78.799,239.702 79.155,244.651 Q84.708,321.765 78.626,360.595 Q75.864,378.229 70.629,385.779 Q66.262,392.079 59.831,392.812 Q52.916,393.601 47.607,387.844 Q36.23,375.506 34.753,334.577 Q33.128,289.567 45.662,238.674 Q48.035,229.039 57.67,231.412 Q62.487,232.599 64.303,235.601 Q64.492,235.913 64.648,236.245 Z M54.585,333.861 Q55.194,350.728 57.924,362.656 Q57.978,362.893 58.032,363.125 Q58.541,360.576 59.02,357.524 Q64.06,325.349 60.5,263.59 Q53.383,300.576 54.585,333.861 Z"/>
  <path fill="rgb(10.588235%, 21.568627%, 43.921569%)" opacity="0.74" d="M82.539,351.118 Q81.376,349.654 80.72,347.742 Q79.224,343.375 81.253,339.23 Q92.17,316.927 110.564,319.055 Q125.603,320.794 133.092,336.313 Q136.483,343.339 135.997,350.211 Q135.336,359.559 128.146,364.923 Q115.417,374.418 89.244,363.708 Q84.972,361.96 83.188,357.703 Q81.809,354.415 82.539,351.118 Z M103.371,345.184 Q108.498,346.849 112.164,347.077 Q112.891,347.122 113.487,347.106 Q113.309,346.599 113.02,345.999 Q110.861,341.525 108.003,341.194 Q106.015,340.964 103.371,345.184 Z"/>
  <path fill="rgb(100%, 89.019608%, 0%)" opacity="0.623" d="M286.137,137.713 Q273.208,140.859 269.386,148.03 Q267.092,152.335 266.836,162.893 Q266.657,170.297 265.698,173.708 Q262.943,183.499 253.454,185.185 Q243.073,187.03 241.229,176.649 Q239.808,168.657 245.635,165.725 Q245.707,164.407 245.756,162.384 Q246.132,146.828 250.777,138.112 Q259.042,122.603 281.152,117.224 Q286.275,115.978 289.459,117.916 Q292.643,119.854 293.889,124.976 Q296.381,135.221 286.137,137.713 Z"/>
</svg>

