<svg xmlns="http://www.w3.org/2000/svg" width="384" height="384" viewBox="0 0 384 384">
  <defs/>
  <path fill="rgb(6.27451%, 47.058824%, 68.235294%)" opacity="0.139" d="M225.699,363.686 Q195.447,373.448 178.383,372.642 Q160.683,371.807 152.656,359.625 Q145.874,349.333 144.799,327.713 Q144.144,314.548 145.704,280.036 Q147.941,230.567 146.996,200.392 Q146.885,196.845 150.432,196.734 Q152.205,196.679 153.12,197.538 Q154.034,198.397 154.09,200.17 Q155.044,230.617 152.795,280.356 Q151.249,314.532 151.888,327.36 Q152.867,347.045 158.582,355.719 Q164.624,364.888 178.718,365.553 Q194.494,366.297 223.52,356.931 Q226.897,355.842 227.987,359.219 Q229.077,362.596 225.699,363.686 Z"/>
  <path fill="rgb(82.745098%, 55.686275%, 77.254902%)" opacity="0.031" d="M319.755,107.054 Q357.843,107.357 366.294,108.422 Q369.135,108.78 370.125,109.791 Q371.712,111.412 370.699,113.423 Q370.226,114.36 369.237,114.878 Q368.641,115.19 367.667,115.404 Q365.231,115.94 358.151,116.449 Q317.998,119.335 286.907,117.586 Q283.86,117.415 284.031,114.368 Q284.117,112.844 284.921,112.125 Q285.726,111.406 287.25,111.492 Q301.28,112.281 317.202,112.113 Q316.668,111.365 316.679,110.081 Q316.703,107.029 319.755,107.054 Z"/>
  <path fill="rgb(41.568627%, 41.568627%, 34.901961%)" opacity="0.311" d="M89.331,68.583 Q65.14,74.602 55.885,77.279 Q61.191,77.414 76.524,77.303 Q103.466,77.107 120.899,77.403 Q123.239,77.442 123.199,79.782 Q123.179,80.952 122.584,81.527 Q121.99,82.102 120.82,82.082 Q103.443,81.787 76.558,81.983 Q59.838,82.104 54.9,81.931 Q50.936,81.792 49.096,81.439 Q47.769,81.184 47.029,80.709 Q44.855,79.315 46.014,77.107 Q47.566,74.152 88.201,64.042 Q90.471,63.477 91.036,65.748 Q91.601,68.018 89.331,68.583 Z"/>
  <path fill="rgb(89.803922%, 56.862745%, 15.294118%)" opacity="0.059" d="M100.079,225.894 Q54.068,227.545 34.843,227.366 Q27.741,227.301 25.282,226.982 Q22.834,226.664 22.448,225.043 Q21.987,223.108 23.954,222.351 Q24.309,222.214 24.832,222.118 Q26.28,221.851 26.936,222.733 Q29.439,222.924 34.884,222.974 Q54.009,223.152 99.921,221.505 Q102.116,221.426 102.195,223.621 Q102.234,224.718 101.705,225.286 Q101.176,225.855 100.079,225.894 Z"/>
  <path fill="rgb(25.882353%, 25.882353%, 39.215686%)" opacity="0.176" d="M124.113,96.758 Q124.51,191.839 122.033,247.061 Q119.971,293.034 119.318,350.402 Q119.16,364.332 109.197,374.07 Q99.235,383.809 85.305,383.65 Q71.375,383.492 61.637,373.53 Q51.898,363.567 52.057,349.637 Q52.722,291.144 54.835,244.047 Q57.238,190.471 56.848,97.039 Q56.79,83.108 66.599,73.216 Q76.409,63.324 90.34,63.266 Q104.271,63.208 114.163,73.017 Q124.055,82.827 124.113,96.758 Z"/>
  <path fill="rgb(100%, 41.176471%, 40%)" opacity="0.323" d="M163.663,181.56 Q166.595,183.296 172.499,186.612 Q183.226,192.636 187.546,195.661 Q196.576,201.984 199.074,208.687 Q205.937,227.097 171.617,240.27 Q161.878,244.008 158.14,234.269 Q154.402,224.531 164.141,220.793 Q173.611,217.158 177.766,214.243 Q173.994,211.379 162.283,204.802 Q156.171,201.369 153.032,199.511 Q144.057,194.195 149.372,185.22 Q154.688,176.244 163.663,181.56 Z"/>
  <path fill="rgb(32.941176%, 0%, 74.509804%)" opacity="0.017" d="M3.606,44.712 Q21.582,62.126 33.037,76.135 Q45.318,73.167 61.27,71.856 Q71.918,70.981 80.066,77.892 Q88.214,84.802 89.089,95.45 Q89.964,106.098 83.054,114.246 Q76.143,122.394 65.495,123.269 Q58.829,123.817 53.42,124.609 Q52.151,131.343 47.725,137.142 Q40.343,146.813 28.126,148.275 Q20.339,149.206 12.751,146.202 Q-0.776,140.847 -6.271,127.605 Q-10.699,116.933 -7.994,107.114 Q-16.791,96.775 -32.286,81.764 Q-39.96,74.33 -40.13,63.648 Q-40.299,52.966 -32.866,45.292 Q-25.432,37.618 -14.75,37.449 Q-4.067,37.279 3.606,44.712 Z"/>
  <path fill="rgb(71.764706%, 12.54902%, 14.117647%)" opacity="0.849" d="M52.239,356.876 Q53.946,298.657 55.002,279.607 Q55.489,270.828 56.167,270.029 Q56.948,269.108 58.075,269.512 Q58.733,269.748 59.056,270.389 Q59.201,270.676 59.276,271.094 Q59.354,271.526 59.414,272.372 Q59.519,273.868 59.588,276.868 Q60.277,306.643 58.886,358.354 Q58.84,360.057 57.138,360.011 Q56.287,359.988 55.872,359.551 Q55.458,359.114 55.481,358.263 Q55.488,358.005 55.494,357.772 Q55.131,358.664 53.892,358.628 Q53.04,358.603 52.627,358.165 Q52.214,357.727 52.239,356.876 Z"/>
  <path fill="rgb(50.588235%, 26.666667%, 99.215686%)" opacity="0.037" d="M391.029,78.697 Q270.177,82.317 154.11,97.383 Q134.071,99.984 127.559,100.547 Q120.479,101.159 115.509,100.921 Q93.11,99.849 81.057,82.767 Q73.745,72.405 73.416,59.726 Q73.174,50.405 76.916,41.796 Q80.237,34.155 86.409,27.972 Q90.498,23.877 96.946,19.544 Q101.956,16.177 117.689,6.837 Q149.389,-11.983 172.365,-26.891 Q186.67,-36.173 203.348,-32.621 Q220.027,-29.069 229.309,-14.764 Q235.55,-5.145 235.989,5.547 Q311.357,-1.291 388.564,-3.603 Q405.609,-4.114 418.023,7.578 Q430.436,19.269 430.947,36.314 Q431.458,53.359 419.766,65.773 Q408.074,78.186 391.029,78.697 Z"/>
</svg>

