<svg xmlns="http://www.w3.org/2000/svg" width="384" height="384" viewBox="0 0 384 384">
  <defs/>
  <path fill="rgb(70.588235%, 99.607843%, 52.54902%)" opacity="0.015" d="M3.605,215.21 Q-1.395,216.361 -3.173,219.501 Q-2.583,225.291 -3.587,226.824 Q-4.485,228.194 -5.938,227.61 Q-6.713,227.298 -7.124,226.403 Q-7.55,225.476 -7.593,223.997 Q-7.869,214.316 2.832,211.853 Q3.672,211.66 4.188,211.983 Q4.704,212.306 4.897,213.145 Q5.283,214.823 3.605,215.21 Z"/>
  <path fill="rgb(47.45098%, 52.941176%, 58.039216%)" opacity="0.838" d="M392.146,393.994 Q328.319,392.859 276.874,389.094 Q275.967,392.896 274.403,396.56 Q270.787,405.031 264.204,411.473 Q257.621,417.916 249.074,421.348 Q240.527,424.781 231.317,424.682 Q222.106,424.582 213.635,420.966 Q205.164,417.349 198.722,410.767 Q192.28,404.184 188.847,395.637 Q184.072,383.748 172.067,374.097 Q167.384,370.334 164.767,367.612 Q155.241,357.706 152.404,344.626 Q148.011,324.375 160.087,307.563 Q168.779,295.463 182.933,290.615 Q193.34,287.05 206.184,288.454 Q208.642,288.723 214.988,289.624 Q284.223,299.449 393.792,301.397 Q403.001,301.561 411.447,305.236 Q419.892,308.912 426.289,315.54 Q432.685,322.167 436.058,330.738 Q439.431,339.309 439.267,348.518 Q439.103,357.728 435.428,366.173 Q431.752,374.619 425.125,381.015 Q418.497,387.411 409.926,390.784 Q401.355,394.157 392.146,393.994 Z"/>
  <path fill="rgb(100%, 90.196078%, 0.784314%)" opacity="0.652" d="M84.538,87.863 Q90.039,88.651 94.206,88.924 Q93.573,86.081 93.392,83.98 Q92.313,71.432 100.822,63.487 Q112.55,52.537 142.239,59.164 Q149.837,60.86 154.011,67.432 Q158.184,74.004 156.488,81.602 Q154.792,89.201 148.22,93.374 Q141.734,97.493 134.248,95.895 Q134.25,95.923 134.252,95.947 Q135.123,108.575 126.951,117.02 Q114.296,130.096 79.212,125.074 Q71.505,123.971 66.836,117.742 Q62.166,111.512 63.269,103.806 Q64.372,96.099 70.602,91.429 Q76.831,86.76 84.538,87.863 Z"/>
  <path fill="rgb(100%, 82.745098%, 0%)" opacity="0.592" d="M80.307,57.391 Q94.593,48.892 117.721,54.323 Q110.269,48.219 103.811,42.852 Q101.85,41.222 101.684,39.427 Q101.519,37.631 103.148,35.67 Q106.408,31.748 110.33,35.008 Q120.916,43.806 134.192,54.598 Q144.333,62.841 145.455,64.204 Q146.182,65.087 146.519,66.052 Q148.017,70.345 144.001,72.409 Q141.999,73.439 139.438,72.629 Q138.48,72.325 135.364,71.002 Q101.535,56.63 85.521,66.156 Q81.139,68.763 78.531,64.381 Q75.924,59.998 80.307,57.391 Z"/>
  <path fill="rgb(56.078431%, 60.784314%, 64.313725%)" opacity="0.995" d="M444.797,121.472 Q442.707,140.91 439.583,173.892 Q433.957,233.311 429.366,254.934 Q418.992,303.795 389.326,329.398 Q360.67,354.129 310.916,359.041 Q288.371,361.267 226.114,360.933 Q104.112,360.278 5.457,366.991 Q-7.846,367.896 -20.483,363.642 Q-33.119,359.387 -43.166,350.621 Q-53.212,341.854 -59.139,329.911 Q-65.066,317.967 -65.972,304.664 Q-66.877,291.361 -62.622,278.724 Q-58.368,266.088 -49.601,256.041 Q-40.835,245.995 -28.891,240.068 Q-16.947,234.141 -3.644,233.235 Q99.915,226.189 226.833,226.87 Q282.128,227.166 297.744,225.625 Q298.146,225.585 298.536,225.545 Q301.467,210.347 306.115,161.254 Q309.319,127.426 311.5,107.138 Q312.926,93.881 319.316,82.178 Q325.706,70.476 336.089,62.11 Q346.471,53.743 359.265,49.987 Q372.058,46.231 385.315,47.656 Q398.573,49.082 410.275,55.472 Q421.977,61.863 430.344,72.245 Q438.71,82.627 442.466,95.421 Q446.222,108.214 444.797,121.472 Z"/>
  <path fill="rgb(19.215686%, 29.019608%, 10.196078%)" opacity="0.486" d="M157.836,421.001 Q151.568,413.939 152.165,402.928 Q151.622,402.475 150.877,401.94 Q135.057,390.584 81.393,378.98 Q73.159,377.2 68.596,370.119 Q64.032,363.037 65.813,354.803 Q67.593,346.569 74.674,342.006 Q81.756,337.443 89.99,339.223 Q151.913,352.613 174.598,368.897 Q193.592,382.532 192.914,402.903 Q193.53,405.668 193.349,408.709 Q192.848,417.118 186.548,422.71 Q180.248,428.303 171.838,427.802 Q163.429,427.301 157.836,421.001 Z"/>
  <path fill="rgb(100%, 90.588235%, 21.960784%)" opacity="0.656" d="M51.765,202.487 Q76.098,135.406 110.198,88.07 Q139.335,47.621 169.638,28.986 Q204.363,7.631 224.504,23.588 Q236.851,33.371 235.261,51.27 Q234.129,64.013 225.203,79.544 Q221.502,85.984 214.331,87.92 Q207.161,89.857 200.721,86.156 Q194.282,82.455 192.345,75.284 Q190.409,68.114 194.11,61.674 Q196.31,57.846 197.625,54.756 Q193.501,56.412 188.424,59.534 Q164.237,74.408 139.296,109.031 Q108.111,152.322 85.477,214.716 Q82.945,221.698 76.217,224.844 Q69.489,227.991 62.507,225.458 Q55.524,222.925 52.378,216.197 Q49.232,209.469 51.765,202.487 Z"/>
  <path fill="rgb(100%, 89.803922%, 28.235294%)" opacity="0.853" d="M64.756,207.333 Q69.548,186.227 70.829,173.311 Q71.841,163.111 77.655,156.12 Q85.395,146.812 97.44,145.632 Q111.129,144.291 120.949,153.923 Q125.996,158.873 128.256,165.587 Q129.008,167.822 129.414,170.213 Q129.534,170.919 129.678,172.019 Q131.044,182.49 138.102,191.571 Q154.093,212.145 194.113,218.451 Q206.166,220.35 213.347,230.216 Q220.527,240.082 218.627,252.136 Q216.728,264.19 206.862,271.37 Q196.996,278.55 184.942,276.651 Q133.75,268.585 104.146,241.371 Q96.009,244.638 86.962,242.584 Q75.062,239.882 68.559,229.557 Q62.055,219.233 64.756,207.333 Z"/>
  <path fill="rgb(29.019608%, 38.823529%, 56.078431%)" opacity="0.832" d="M122.467,172.032 Q113.711,118.394 143.936,94.257 Q156.627,84.123 174.056,81.59 Q190.432,79.21 207.033,84.007 Q223.708,88.826 235.781,99.497 Q248.72,110.934 253.06,126.342 Q263.367,162.925 223.424,204.817 Q222.688,205.59 221.933,205.608 Q221.178,205.626 220.405,204.889 Q218.86,203.416 220.333,201.87 Q258.595,161.74 248.949,127.5 Q244.949,113.302 232.952,102.697 Q221.599,92.662 205.848,88.111 Q190.133,83.57 174.67,85.817 Q158.387,88.183 146.602,97.594 Q118.329,120.173 126.682,171.343 Q127.026,173.451 124.918,173.795 Q122.811,174.139 122.467,172.032 Z"/>
  <path fill="rgb(32.156863%, 64.313725%, 12.941176%)" opacity="0.74" d="M143.403,356.401 Q100.075,376.336 82.398,360.734 Q70.44,350.179 74.973,333.172 Q77.679,323.023 86.125,313.721 Q94.291,304.729 104.951,299.723 Q118.004,293.594 131.142,295.274 Q162.443,299.277 175.985,341.573 Q178.259,348.674 174.845,355.304 Q171.432,361.934 164.33,364.208 Q157.228,366.482 150.598,363.068 Q145.913,360.656 143.403,356.401 Z"/>
  <path fill="rgb(72.54902%, 66.27451%, 41.568627%)" opacity="0.331" d="M127.963,39.158 Q139.379,-23.234 173.632,-49.185 Q192.747,-63.667 215.605,-64.567 Q236.714,-65.399 255.905,-54.417 Q272.687,-44.813 284.521,-28.053 Q295.966,-11.841 300.563,7.998 Q310.865,52.456 285.163,93.506 Q276.811,106.844 261.474,110.371 Q246.137,113.897 232.799,105.546 Q219.46,97.194 215.934,81.857 Q212.408,66.52 220.759,53.182 Q229.718,38.873 226.539,25.151 Q224.314,15.552 218.833,11.945 Q215.677,14.745 212.293,21.47 Q206.25,33.476 202.709,52.834 Q199.876,68.314 186.927,77.258 Q173.978,86.201 158.498,83.369 Q143.018,80.536 134.074,67.588 Q125.131,54.639 127.963,39.158 Z"/>
  <path fill="rgb(67.45098%, 49.019608%, 83.529412%)" opacity="0.038" d="M383.394,287.955 Q383.176,289.23 383.107,291.324 Q382.85,299.161 385.016,307.799 Q385.475,309.628 383.646,310.086 Q381.818,310.545 381.359,308.716 Q379.064,299.566 379.339,291.2 Q379.441,288.114 379.87,286.387 Q380.184,285.124 380.832,284.594 Q382.274,283.412 383.551,284.769 Q383.954,285.198 384.133,285.885 Q384.517,287.362 383.394,287.955 Z"/>
  <path fill="rgb(64.313725%, 81.960784%, 23.137255%)" opacity="0.815" d="M310.258,307.16 Q233.619,311.403 209.567,333.086 Q201.503,340.356 199.246,350.122 Q197.88,356.036 198.419,367.224 Q198.997,379.206 196.281,383.718 Q194.639,386.447 192.454,386.99 Q190.268,387.533 187.54,385.891 Q182.083,382.606 185.367,377.149 Q186.087,375.953 185.695,367.838 Q185.071,354.887 186.835,347.254 Q189.994,333.581 201.037,323.625 Q228.427,298.932 309.554,294.441 Q315.914,294.089 316.266,300.449 Q316.618,306.808 310.258,307.16 Z"/>
  <path fill="rgb(23.921569%, 47.843137%, 87.843137%)" opacity="0.977" d="M317.318,169.603 Q304.647,173.579 304.307,175.777 Q304.217,176.363 309.05,179.78 Q318.24,186.278 316.934,191.643 Q315.175,198.869 293.913,206.1 Q290.954,207.106 289.947,204.147 Q289.444,202.667 289.933,201.676 Q290.421,200.685 291.9,200.182 Q309.914,194.056 310.861,190.165 Q311.162,188.929 305.441,184.884 Q297.448,179.232 298.13,174.821 Q299.065,168.779 315.447,163.639 Q318.429,162.704 319.365,165.686 Q319.833,167.177 319.321,168.156 Q318.809,169.135 317.318,169.603 Z"/>
  <path fill="rgb(67.058824%, 59.607843%, 49.803922%)" opacity="0.53" d="M189.841,12.399 Q259.322,-41.003 295.453,-57.603 Q323.7,-70.579 345.326,-67.506 Q365.569,-64.628 378.845,-49.914 Q390.349,-37.162 393.046,-18.867 Q397.816,13.495 367.36,82.558 Q343.136,137.491 288.81,237.246 Q284.619,244.941 277.802,250.447 Q270.985,255.953 262.58,258.432 Q254.174,260.91 245.461,259.983 Q236.747,259.056 229.051,254.865 Q221.356,250.674 215.849,243.857 Q210.343,237.04 207.865,228.634 Q205.387,220.229 206.314,211.515 Q207.241,202.802 211.432,195.106 Q261.571,103.04 284.576,51.871 Q266.44,64.652 243.534,82.257 Q236.586,87.597 228.123,89.872 Q219.661,92.147 210.972,91.01 Q202.283,89.873 194.691,85.498 Q187.098,81.122 181.758,74.174 Q176.418,67.227 174.143,58.764 Q171.869,50.302 173.006,41.613 Q174.143,32.924 178.518,25.331 Q182.893,17.739 189.841,12.399 Z"/>
  <path fill="rgb(26.666667%, 41.568627%, 74.509804%)" opacity="0.689" d="M325.964,128.466 Q314.24,141.73 304.181,148.233 Q312.685,152.215 321.651,161.458 Q322.269,162.096 322.26,162.724 Q322.25,163.352 321.612,163.971 Q320.337,165.208 319.099,163.933 Q309.965,154.515 301.525,150.94 Q298.966,149.856 299.08,148.332 Q299.166,147.178 301.431,145.769 Q311.41,139.564 323.301,126.112 Q324.478,124.781 325.81,125.958 Q326.475,126.546 326.514,127.173 Q326.553,127.8 325.964,128.466 Z"/>
</svg>

