<svg xmlns="http://www.w3.org/2000/svg" width="384" height="384" viewBox="0 0 384 384">
  <defs/>
  <path fill="rgb(61.960784%, 65.882353%, 61.176471%)" opacity="0.431" d="M105.2,37.728 Q107.406,34.394 110.68,35.515 Q111.924,35.942 112.48,36.813 Q113.394,38.247 112.118,39.254 Q111.386,39.832 110.31,39.575 Q109.326,39.34 109.078,38.653 Q108.526,38.775 107.995,39.577 Q107.533,40.276 106.952,40.394 Q106.372,40.512 105.673,40.05 Q104.276,39.125 105.2,37.728 Z"/>
  <path fill="rgb(13.333333%, 27.058824%, 54.509804%)" opacity="0.377" d="M75.99,219.476 Q80.94,219.861 81.637,220.009 Q82.93,220.285 83.345,221.489 Q83.886,223.059 82.541,224.033 Q82.214,224.27 81.823,224.38 Q81.62,224.436 81.398,224.458 Q81.182,224.478 80.791,224.471 Q80.223,224.461 79.216,224.404 Q76.797,224.269 75.224,224.085 Q74.089,223.952 73.606,223.766 Q72.76,223.441 72.357,222.673 Q71.74,221.498 72.467,220.386 Q72.798,219.88 73.345,219.6 Q73.792,219.371 74.508,219.289 Q75.385,219.189 75.955,219.474 Q75.971,219.475 75.99,219.476 Z"/>
  <path fill="rgb(67.058824%, 62.745098%, 60.392157%)" opacity="0.347" d="M51.596,152.225 Q53.798,152.358 55.228,152.267 Q53.884,151.763 51.734,151.859 Q50.553,151.912 49.936,151.348 Q49.318,150.783 49.266,149.602 Q49.16,147.238 51.523,147.133 Q58.184,146.835 60.884,150.955 Q61.908,152.52 61.304,154.11 Q60.747,155.573 58.987,156.292 Q56.602,157.267 51.31,156.947 Q50.13,156.876 49.575,156.25 Q49.02,155.624 49.092,154.443 Q49.235,152.082 51.596,152.225 Z"/>
  <path fill="rgb(37.647059%, 53.72549%, 30.196078%)" opacity="0.554" d="M291.29,30.278 Q289.372,30.584 287.846,30.911 Q287.252,32.106 286.203,33.017 Q283.713,35.18 280.949,34.48 Q278.644,33.897 278.697,31.767 Q278.736,30.14 280.61,28.968 Q281.955,28.126 284.375,27.42 Q284.39,26.889 284.31,26.27 Q284.04,24.166 286.144,23.896 Q287.196,23.761 287.79,24.22 Q288.383,24.678 288.518,25.73 Q288.564,26.091 288.59,26.44 Q289.559,26.258 290.624,26.089 Q292.719,25.755 293.052,27.85 Q293.385,29.945 291.29,30.278 Z"/>
</svg>

