<svg xmlns="http://www.w3.org/2000/svg" width="384" height="384" viewBox="0 0 384 384">
  <defs/>
  <path fill="rgb(0%, 7.45098%, 27.058824%)" opacity="0.411" d="M212.343,258.325 Q254.71,305.934 242.133,339.203 Q236.946,352.925 223.101,360.949 Q210.42,368.298 194.483,368.757 Q178.495,369.218 165.535,362.552 Q151.325,355.245 145.538,341.575 Q131.538,308.506 171.613,256.568 Q173.123,254.61 175.081,256.12 Q176.06,256.876 176.171,257.743 Q176.283,258.61 175.528,259.589 Q137.218,309.239 150.092,339.647 Q155.18,351.666 167.797,358.155 Q179.625,364.238 194.341,363.814 Q209.025,363.39 220.621,356.67 Q232.942,349.529 237.507,337.455 Q249.026,306.984 208.649,261.613 Q207.005,259.765 208.852,258.122 Q210.699,256.478 212.343,258.325 Z"/>
</svg>

