<svg xmlns="http://www.w3.org/2000/svg" width="384" height="384" viewBox="0 0 384 384">
  <defs/>
  <path fill="rgb(0%, 27.843137%, 54.509804%)" opacity="0.728" d="M217.192,145.37 Q225.165,146.012 231.338,149.475 Q239.111,153.834 243.335,161.638 Q250.833,175.493 243.894,189.64 Q239.092,199.433 229.037,204.094 Q223.752,206.544 215.222,207.714 Q202.73,209.427 188.3,209.075 Q167.842,208.577 154.219,203.449 Q141.657,198.72 134.073,189.835 Q122.282,176.02 125.025,157.926 Q126.915,145.46 137.066,137.981 Q147.217,130.502 159.683,132.392 Q172.15,134.282 179.628,144.433 Q180.819,146.049 181.772,147.724 Q185.127,148.1 189.782,148.214 Q196.421,148.375 202.141,147.916 Q209.044,144.713 217.192,145.37 Z"/>
  <path fill="rgb(100%, 1.568627%, 60%)" opacity="0.999" d="M115.708,340.534 Q137.338,340.798 153.255,347.01 Q162.653,350.678 174.708,359.124 Q181.638,363.98 184.807,365.253 Q189.252,367.039 194.783,366.264 Q210.922,364.004 248.711,338.932 Q256.212,333.956 261.189,341.457 Q266.165,348.958 258.664,353.935 Q217.469,381.267 197.28,384.094 Q186.995,385.535 178.095,381.959 Q173.003,379.914 164.377,373.869 Q154.093,366.664 146.71,363.782 Q133.843,358.761 115.488,358.537 Q106.487,358.427 106.596,349.425 Q106.651,344.925 108.929,342.702 Q111.207,340.479 115.708,340.534 Z"/>
  <path fill="rgb(48.627451%, 100%, 0%)" opacity="0.352" d="M47.824,314.648 Q17.406,241.147 48.565,177.637 Q62.441,149.353 87.009,128.34 Q110.233,108.475 139.577,98.013 Q168.919,87.552 199.709,88.162 Q232.216,88.806 261.413,101.728 Q326.763,130.653 353.571,206.674 Q356.498,214.975 356.026,223.764 Q355.554,232.554 351.754,240.493 Q347.954,248.432 341.406,254.314 Q334.857,260.195 326.556,263.122 Q318.255,266.049 309.466,265.577 Q300.677,265.105 292.737,261.305 Q284.798,257.505 278.917,250.956 Q273.036,244.408 270.109,236.107 Q256.006,196.117 225.593,182.656 Q198.873,170.829 169.298,181.374 Q140.223,191.739 128.018,216.618 Q114.465,244.24 129.598,280.806 Q132.964,288.938 132.961,297.74 Q132.958,306.542 129.587,314.673 Q126.216,322.804 119.991,329.026 Q113.765,335.248 105.632,338.613 Q97.499,341.979 88.697,341.977 Q79.895,341.974 71.765,338.603 Q63.634,335.232 57.412,329.006 Q51.19,322.781 47.824,314.648 Z"/>
  <path fill="rgb(34.509804%, 99.215686%, 100%)" opacity="0.004" d="M30.273,32.124 Q27.02,39.438 26.867,42.796 Q26.861,42.933 26.856,43.048 Q28.17,42.072 29.741,39.206 Q32.048,35 32.809,29.837 Q32.934,28.991 33.419,28.631 Q33.904,28.27 34.749,28.395 Q36.44,28.644 36.191,30.335 Q34.262,43.411 27.793,46.457 Q25.756,47.416 24.4,46.013 Q23.348,44.924 23.452,42.64 Q23.635,38.638 27.149,30.735 Q27.844,29.173 29.405,29.868 Q30.967,30.563 30.273,32.124 Z"/>
  <path fill="rgb(43.921569%, 80.392157%, 43.137255%)" opacity="0.806" d="M187.066,163.417 Q236.062,188.174 259.963,201.672 Q290.268,218.788 300.355,230.808 Q310.41,242.788 312.416,257.545 Q314.291,271.346 308.761,284.074 Q303.714,295.692 293.664,303.535 Q279.743,314.399 259.094,314.986 Q249.755,315.251 224.975,312.72 Q179.396,308.064 161.035,310.443 Q160.608,313.267 159.839,316.067 Q157.301,325.304 151.422,332.866 Q145.542,340.429 137.217,345.166 Q128.891,349.903 119.386,351.093 Q109.881,352.283 100.644,349.745 Q91.407,347.207 83.845,341.328 Q76.282,335.449 71.545,327.123 Q66.808,318.797 65.618,309.292 Q60.269,266.578 89.858,239.539 Q102.235,228.229 119.72,221.8 Q119.658,221.617 119.598,221.434 Q116.607,212.334 117.326,202.782 Q118.046,193.23 122.366,184.68 Q126.686,176.131 133.949,169.885 Q141.212,163.639 150.312,160.649 Q159.412,157.658 168.964,158.377 Q178.516,159.097 187.066,163.417 Z"/>
  <path fill="rgb(45.882353%, 30.588235%, 99.215686%)" opacity="0.019" d="M118.191,387.478 Q84.096,385.759 55.073,389.198 Q51.539,389.617 48.844,390.019 Q48.459,390.523 48.003,390.952 Q45.228,393.566 39.838,393.405 Q32.447,393.184 28.992,389.315 Q24.002,383.727 27.386,377.047 Q28.777,374.3 31.467,372.586 Q33.062,371.569 35.355,370.847 Q40.6,369.193 52.535,367.778 Q83.365,364.125 119.278,365.936 Q130.049,366.479 129.506,377.25 Q128.962,388.022 118.191,387.478 Z"/>
  <path fill="rgb(31.764706%, 64.313725%, 45.490196%)" d="M208.041,169.377 Q201.647,166.173 204.51,156.604 Q206.322,150.549 211.238,143.783 Q224.191,125.956 237.382,128.176 Q254.33,131.027 255.969,168.793 Q256.188,173.836 251.145,174.055 Q248.623,174.164 247.308,172.958 Q245.992,171.752 245.883,169.231 Q245.374,157.508 243.673,150.192 Q217.197,173.965 208.041,169.377 Z M239.46,140.379 Q237.793,138.482 235.707,138.131 Q228.682,136.949 219.405,149.717 Q215.501,155.091 214.182,159.498 Q214.178,159.511 214.174,159.524 Q215.965,158.785 218.429,157.271 Q226.567,152.273 239.46,140.379 Z"/>
  <path fill="rgb(1.960784%, 73.72549%, 26.27451%)" opacity="0.105" d="M340.382,223.622 Q338.674,179.085 320.138,162.531 Q317.431,160.113 315.376,159.006 Q313.44,158.626 312.181,158.142 Q311.331,157.816 310.671,157.386 Q309.669,156.733 308.983,155.79 Q306.288,152.085 309.039,148.436 Q311.464,145.219 315.838,146.161 Q317.399,146.497 319.02,147.172 Q319.379,147.224 319.784,147.278 Q323.686,147.793 324.758,150.478 Q326.508,151.749 328.32,153.368 Q350.75,173.398 352.657,223.151 Q352.893,229.289 346.755,229.525 Q340.617,229.76 340.382,223.622 Z"/>
  <path fill="rgb(4.313725%, 30.196078%, 65.882353%)" opacity="0.051" d="M303.563,138.232 Q273.278,113.326 238.295,102.387 Q228.289,99.259 219.167,97.529 Q199.596,99.732 189.038,98.772 Q185.408,98.442 183.529,97.623 Q181.089,96.56 180.253,94.35 Q178.884,90.73 182.02,88.225 Q184.814,85.992 193.539,85.6 Q205.654,85.056 219.537,87.545 Q231.469,86.145 246.94,83.55 Q249.378,83.141 250.801,84.156 Q252.225,85.17 252.633,87.608 Q253.451,92.484 248.576,93.301 Q246.481,93.653 244.447,93.982 Q279.455,105.604 309.843,130.596 Q313.662,133.736 310.521,137.554 Q307.381,141.372 303.563,138.232 Z"/>
  <path fill="rgb(54.509804%, 85.882353%, 48.235294%)" opacity="0.929" d="M163.942,396.125 Q54.603,375.477 52.127,312.508 Q50.256,264.908 111.835,207.372 Q116.185,203.307 122.136,203.509 Q128.087,203.711 132.152,208.061 Q136.217,212.412 136.015,218.363 Q135.813,224.313 131.462,228.378 Q79.5,276.929 80.854,311.379 Q82.43,351.475 169.277,367.875 Q175.127,368.98 178.483,373.898 Q181.839,378.817 180.734,384.667 Q179.629,390.518 174.711,393.874 Q169.793,397.23 163.942,396.125 Z"/>
  <path fill="rgb(74.509804%, 100%, 53.333333%)" opacity="0.54" d="M350.185,212.392 Q363.593,267.128 337.768,317.827 Q317.588,357.444 281.306,382.46 Q265.612,393.28 251.777,397.402 Q229.813,403.944 217.285,391.992 Q193.098,368.914 240.246,318.066 Q246.001,311.859 254.459,311.54 Q262.918,311.221 269.125,316.976 Q275.332,322.731 275.651,331.19 Q275.716,332.905 275.531,334.527 Q291.12,319.358 301.35,299.276 Q320.283,262.106 310.487,222.116 Q308.473,213.895 312.863,206.657 Q317.252,199.419 325.474,197.405 Q333.695,195.391 340.933,199.781 Q348.171,204.17 350.185,212.392 Z"/>
</svg>

