<svg xmlns="http://www.w3.org/2000/svg" width="384" height="384" viewBox="0 0 384 384">
  <defs/>
  <path fill="rgb(46.666667%, 96.862745%, 100%)" opacity="0.065" d="M160.054,365.243 Q155.735,364.358 153.578,364.354 Q153.033,364.702 152.324,364.827 Q151.743,364.929 151.237,364.778 Q149.731,364.329 149.956,362.827 Q150.158,361.481 151.928,361.159 Q151.974,360.953 152.017,360.639 Q152.378,357.986 149.973,352.416 Q149.315,350.892 150.838,350.235 Q151.6,349.906 152.145,350.122 Q152.691,350.338 153.019,351.1 Q155.791,357.518 155.305,361.087 Q155.302,361.11 155.298,361.134 Q157.524,361.337 160.72,361.992 Q162.345,362.325 162.012,363.95 Q161.679,365.576 160.054,365.243 Z"/>
  <path fill="rgb(74.117647%, 57.647059%, 68.627451%)" opacity="0.463" d="M145.162,101.077 Q164.421,103.409 165.141,106.789 Q165.821,109.981 160.356,111.535 Q158.383,112.097 152.428,113.377 Q142.231,115.568 136.83,117.138 Q134.191,117.906 133.424,115.267 Q133.041,113.948 133.508,113.096 Q133.976,112.245 135.295,111.862 Q140.885,110.237 151.273,108.004 Q152.137,107.818 152.91,107.649 Q149.452,107.132 144.502,106.532 Q141.774,106.202 142.104,103.474 Q142.269,102.11 143.034,101.511 Q143.798,100.912 145.162,101.077 Z"/>
  <path fill="rgb(35.686275%, 61.568627%, 30.196078%)" opacity="0.581" d="M160.549,39.919 Q161.179,39.774 162.297,39.599 Q163.52,39.408 163.964,40.283 Q165.035,40.593 165.24,41.165 Q165.775,42.654 164.292,43.261 Q164.116,43.333 163.899,43.376 Q163.702,43.415 163.401,43.444 Q162.905,43.492 162.223,43.512 Q160.209,43.573 159.57,43.228 Q158.664,42.738 158.676,41.726 Q158.685,40.989 159.211,40.514 Q159.596,39.925 160.549,39.919 Z"/>
  <path fill="rgb(44.313725%, 47.058824%, 48.235294%)" opacity="0.204" d="M335.349,215.768 Q335.563,215.749 335.76,215.799 Q336.331,215.943 336.758,216.658 Q337.555,217.993 337.797,218.611 Q338.114,219.424 337.869,220.087 Q337.424,221.286 336.144,221.199 Q335.716,221.17 335.317,220.935 Q334.643,220.537 333.121,218.707 Q331.783,217.099 331.416,216.461 Q331.265,216.2 331.203,215.945 Q330.989,215.066 331.598,214.406 Q332.377,213.561 333.451,213.987 Q333.815,214.132 334.224,214.54 Q334.583,214.898 335.349,215.768 Z"/>
  <path fill="rgb(36.470588%, 70.980392%, 47.843137%)" opacity="0.161" d="M295.256,158.968 Q294.859,138.335 294.933,134.634 Q294.953,133.6 295.079,133.257 Q295.294,132.665 295.849,132.383 Q297.064,131.765 297.852,132.882 Q298.043,133.154 298.122,133.51 Q298.159,133.68 298.192,133.975 Q298.257,134.559 298.405,136.719 Q298.474,137.718 298.517,138.289 Q298.692,138.65 298.673,139.192 Q298.664,139.457 298.643,139.61 Q298.604,139.906 298.481,140.152 Q298.318,140.479 298.09,140.685 Q298.162,146.923 298.392,158.907 Q298.423,160.476 296.854,160.506 Q296.07,160.521 295.671,160.136 Q295.271,159.752 295.256,158.968 Z"/>
  <path fill="rgb(87.058824%, 73.333333%, 87.843137%)" opacity="0.097" d="M372.659,178.299 Q372.7,179.513 372.697,180.879 Q372.694,182.583 370.989,182.58 Q370.136,182.578 369.711,182.151 Q369.286,181.724 369.287,180.872 Q369.29,179.577 369.252,178.44 Q367.8,175.825 367.425,173.334 Q366.93,170.038 368.698,169.304 Q370.339,168.623 371.342,170.449 Q371.76,171.211 372.055,172.567 Q372.493,174.585 372.632,177.634 Q372.726,177.988 372.659,178.299 Z"/>
  <path fill="rgb(0%, 100%, 80.784314%)" opacity="0.57" d="M243.488,93.122 Q261.421,105.544 267.739,115.625 Q270.848,120.585 270.542,124.365 Q270.124,129.536 264.927,130.663 Q257.589,132.253 245.56,123.458 Q232.4,113.836 220.103,95.945 Q218.001,92.888 221.059,90.786 Q224.116,88.685 226.218,91.742 Q237.799,108.592 249.94,117.468 Q259.041,124.123 263.146,123.45 Q263.052,122.118 261.452,119.566 Q255.943,110.776 239.262,99.222 Q236.212,97.109 238.325,94.059 Q239.381,92.534 240.672,92.3 Q241.963,92.066 243.488,93.122 Z"/>
  <path fill="rgb(58.823529%, 51.372549%, 47.843137%)" opacity="0.457" d="M53.748,328.357 Q53.45,319.82 53.529,315.975 Q53.546,315.115 53.59,314.684 Q53.677,313.822 54.053,313.165 Q54.926,311.64 56.67,311.465 Q58.664,311.265 59.808,312.916 Q60.185,313.461 60.342,314.134 Q60.502,314.816 60.614,317.379 Q61.267,332.294 60.91,372.511 Q60.88,375.905 57.486,375.875 Q55.788,375.86 54.947,375.004 Q54.106,374.148 54.121,372.45 Q54.359,345.616 54.148,330.146 Q53.786,329.426 53.748,328.357 Z"/>
</svg>

