<svg xmlns="http://www.w3.org/2000/svg" width="384" height="384" viewBox="0 0 384 384">
  <defs/>
  <path fill="rgb(45.098039%, 59.215686%, 44.705882%)" opacity="0.01" d="M343.409,346.943 Q346.368,349.911 345.863,351.374 Q345.382,352.768 343.854,352.66 Q343.423,352.63 342.905,352.42 Q342.265,352.16 341.297,351.556 Q336.629,348.646 332.627,344.377 Q331.395,343.062 332.709,341.83 Q334.024,340.598 335.256,341.912 Q337.914,344.747 340.877,346.922 Q342.145,345.675 343.409,346.943 Z"/>
  <path fill="rgb(3.529412%, 15.294118%, 26.27451%)" opacity="0.427" d="M308.932,123.422 Q373.352,191.092 410.739,283.166 Q444.612,366.585 440.459,425.022 Q436.991,473.825 403.841,493.419 Q379.446,507.838 351.068,499.716 Q333.552,494.703 316.71,480.605 Q269.07,440.732 206.257,306.982 Q201.759,297.405 201.269,286.836 Q200.778,276.267 204.37,266.315 Q207.961,256.363 215.088,248.543 Q222.215,240.723 231.792,236.225 Q241.368,231.728 251.937,231.237 Q256.626,231.02 261.194,231.606 Q247.532,213.214 231.881,196.773 Q224.586,189.11 220.779,179.238 Q216.971,169.367 217.231,158.79 Q217.492,148.212 221.78,138.54 Q226.068,128.868 233.731,121.572 Q241.394,114.277 251.266,110.47 Q261.137,106.663 271.714,106.923 Q282.292,107.183 291.964,111.471 Q301.636,115.759 308.932,123.422 Z"/>
  <path fill="rgb(84.705882%, 72.156863%, 98.431373%)" opacity="0.024" d="M51.437,106.317 Q54.257,107.057 55.859,107.802 Q58.871,107.245 65.646,106.751 Q67.93,106.585 68.096,108.869 Q68.179,110.011 67.65,110.623 Q67.121,111.236 65.979,111.319 Q60.36,111.728 57.576,112.154 Q57.062,112.744 56.231,112.978 Q55.43,113.204 54.536,113.089 Q53.906,113.007 53.427,112.74 Q52.717,112.343 52.392,111.619 Q52.322,111.464 52.273,111.31 Q51.414,111.046 50.274,110.746 Q48.059,110.164 48.641,107.949 Q49.223,105.735 51.437,106.317 Z"/>
  <path fill="rgb(57.254902%, 99.607843%, 67.45098%)" opacity="0.007" d="M248.106,23.025 Q247.397,21.438 247.691,19.472 Q248.038,17.154 249.426,16.569 Q251.145,15.845 252.066,17.621 Q252.417,18.3 252.544,19.507 Q252.788,21.84 252.306,26.463 Q252.216,27.333 251.735,27.722 Q251.255,28.112 250.385,28.021 Q248.645,27.84 248.826,26.1 Q248.942,24.99 249.014,24.035 Q248.454,23.806 248.106,23.025 Z"/>
  <path fill="rgb(65.490196%, 65.098039%, 55.294118%)" opacity="0.024" d="M290.042,281.159 Q288.9,280.915 287.675,280.77 Q287.369,280.834 286.984,280.807 Q285.171,280.682 284.695,280.59 Q284.535,280.558 284.399,280.511 Q284.147,280.423 283.935,280.27 Q282.734,279.402 283.379,278.071 Q283.84,277.119 284.962,277.067 Q285.201,277.056 285.663,277.077 Q288.367,277.201 290.778,277.716 Q292.5,278.084 292.132,279.805 Q291.764,281.527 290.042,281.159 Z"/>
  <path fill="rgb(0%, 8.235294%, 64.313725%)" opacity="0.596" d="M194.577,155.759 Q208.551,152.436 217.273,153.553 Q229.182,155.077 229.573,163.841 Q230.179,177.396 197.367,189.028 Q161.617,201.702 105.708,204.008 Q99.911,204.247 99.671,198.45 Q99.552,195.551 100.941,194.042 Q102.331,192.533 105.23,192.414 Q109.921,192.22 114.462,191.953 Q161.067,163.725 194.577,155.759 Z M142.188,189.458 Q171.871,185.755 193.49,178.091 Q206.547,173.462 213.564,168.382 Q215.878,166.707 217.107,165.28 Q216.538,165.158 215.799,165.063 Q209.177,164.215 197.261,167.048 Q173.465,172.706 142.188,189.458 Z"/>
  <path fill="rgb(0.784314%, 17.647059%, 32.156863%)" opacity="0.482" d="M174.677,-49.688 Q170.192,16.582 169.541,68.743 Q169.154,99.768 170.343,150.015 Q171.806,211.837 170.765,252.689 Q169.058,319.687 160.753,411.754 Q159.219,428.756 151.296,443.877 Q143.372,458.998 130.265,469.936 Q117.158,480.873 100.863,485.963 Q84.569,491.052 67.566,489.519 Q50.564,487.985 35.443,480.061 Q20.322,472.138 9.385,459.031 Q-1.553,445.924 -6.643,429.629 Q-11.732,413.334 -10.198,396.332 Q-2.39,309.78 -0.824,248.318 Q0.109,211.682 -1.254,154.075 Q-2.516,100.728 -2.091,66.602 Q-1.381,9.71 3.424,-61.28 Q4.577,-78.312 12.16,-93.607 Q19.743,-108.902 32.602,-120.13 Q45.461,-131.358 61.638,-136.811 Q77.814,-142.264 94.847,-141.111 Q111.879,-139.958 127.173,-132.375 Q142.468,-124.792 153.696,-111.933 Q164.925,-99.074 170.377,-82.898 Q175.83,-66.721 174.677,-49.688 Z"/>
  <path fill="rgb(100%, 77.647059%, 56.862745%)" opacity="0.888" d="M55.37,196.749 Q76.901,170.216 86.142,148.105 Q88.092,143.439 89.271,139.489 Q89.102,133.311 89.968,129.06 Q91.248,122.774 95.489,119.267 Q100.291,115.297 106.455,116.007 Q112.433,116.696 116.2,121.424 Q118.597,124.434 119.309,128.436 Q120.325,134.14 118.307,142.695 Q119.802,159.836 129.108,185.322 Q131.154,190.926 128.638,196.335 Q126.122,201.745 120.518,203.791 Q114.914,205.837 109.505,203.322 Q104.095,200.806 102.049,195.202 Q100.286,190.374 98.765,185.768 Q89.955,199.845 77.739,214.9 Q73.98,219.532 68.046,220.15 Q62.112,220.768 57.479,217.009 Q52.847,213.249 52.229,207.315 Q51.611,201.381 55.37,196.749 Z"/>
  <path fill="rgb(94.117647%, 66.27451%, 44.705882%)" d="M137.432,390.015 Q148.852,354.379 162.837,301.494 Q169.515,276.241 171.877,269.446 Q175.249,259.742 180.28,255.171 Q185.907,250.057 193.364,249.486 Q202.989,248.749 210.01,255.463 Q214.779,260.024 216.66,267.216 Q219.315,277.364 220.224,367.72 Q220.311,376.446 220.357,380.929 Q220.446,389.651 214.342,395.882 Q208.238,402.112 199.516,402.201 Q190.794,402.29 184.564,396.186 Q182.447,394.112 181.04,391.736 Q179.261,397.488 177.537,402.868 Q174.875,411.174 167.12,415.165 Q159.364,419.156 151.058,416.494 Q142.752,413.832 138.761,406.077 Q134.77,398.321 137.432,390.015 Z"/>
  <path fill="rgb(41.176471%, 36.862745%, 51.372549%)" opacity="0.01" d="M106.298,73.808 Q106.542,73.79 106.794,73.766 Q108.95,73.56 109.156,75.716 Q109.362,77.872 107.206,78.078 Q99.02,78.861 96.167,74.285 Q95.179,72.701 95.9,71.173 Q96.547,69.801 98.339,69.279 Q100.861,68.543 106.014,69.533 Q108.141,69.942 107.732,72.069 Q107.444,73.571 106.298,73.808 Z M105.197,73.787 Q102.901,73.346 101.413,73.287 Q102.958,73.965 105.653,73.847 Q105.436,73.833 105.197,73.787 Z"/>
  <path fill="rgb(50.196078%, 77.254902%, 63.137255%)" opacity="0.036" d="M284.482,159.887 Q284.352,159.851 284.245,159.814 Q283.969,159.719 283.742,159.568 Q282.69,158.867 282.849,157.617 Q283.044,156.07 284.592,155.857 Q284.996,155.801 285.449,155.911 Q285.697,155.971 285.947,156.069 Q287.728,156.426 294.592,156.566 Q295.608,156.587 296.106,157.105 Q296.603,157.624 296.582,158.639 Q296.541,160.671 294.509,160.629 Q290.701,160.551 288.236,160.376 L288.235,160.377 Q287.853,160.985 286.862,161.211 Q284.987,161.64 284.482,159.887 Z"/>
  <path fill="rgb(48.627451%, 64.705882%, 76.078431%)" opacity="0.047" d="M296.165,348.275 Q305.461,346.096 309.261,346.281 Q312.164,346.422 313.283,348.121 Q314.779,350.391 312.668,352.774 Q308.452,357.534 299.652,359.022 Q296.837,359.498 296.361,356.683 Q296.022,354.678 297.353,353.86 Q294.675,354.427 294.037,351.706 Q293.386,348.927 296.165,348.275 Z"/>
  <path fill="rgb(20%, 2.352941%, 3.921569%)" opacity="0.992" d="M138.509,406.483 Q144.75,394.342 149.629,379.415 Q151.862,372.582 153.258,369.885 Q157.231,362.209 164.708,360.238 Q170.238,358.781 177.834,361.076 Q181.382,362.149 190.101,365.627 Q194.967,367.568 197.035,372.382 Q199.103,377.195 197.162,382.061 Q195.221,386.928 190.407,388.996 Q185.594,391.064 180.728,389.123 Q176.576,387.467 173.933,386.483 Q173.807,386.865 173.674,387.274 Q168.169,404.115 161.007,418.048 Q158.612,422.708 153.623,424.309 Q148.635,425.91 143.975,423.515 Q139.316,421.12 137.715,416.131 Q136.113,411.143 138.509,406.483 Z"/>
  <path fill="rgb(95.294118%, 90.980392%, 93.72549%)" opacity="0.011" d="M116.964,-0.575 Q117.113,-3.785 117.129,-5.744 Q117.072,-5.522 117.016,-5.287 Q113.564,9.183 120.23,16.239 Q121.515,17.598 120.155,18.883 Q119.476,19.525 118.815,19.506 Q118.154,19.487 117.512,18.808 Q109.456,10.282 113.378,-6.155 Q114.01,-8.804 114.85,-10.334 Q115.389,-11.315 116.032,-11.811 Q117.363,-12.836 118.738,-12.051 Q121.176,-10.661 120.7,-0.402 Q120.657,0.532 120.168,0.978 Q119.679,1.423 118.745,1.38 Q116.877,1.293 116.964,-0.575 Z"/>
</svg>

