<svg xmlns="http://www.w3.org/2000/svg" width="384" height="384" viewBox="0 0 384 384">
  <defs/>
  <path fill="rgb(29.411765%, 25.490196%, 28.627451%)" opacity="0.835" d="M259.946,241.177 Q207.02,246.208 177.469,245.115 Q153.124,244.215 104.194,236.708 Q101.408,236.28 101.835,233.494 Q102.049,232.102 102.852,231.512 Q103.656,230.923 105.049,231.136 Q153.658,238.595 177.677,239.483 Q206.856,240.561 259.413,235.566 Q262.219,235.299 262.485,238.104 Q262.752,240.91 259.946,241.177 Z"/>
  <path fill="rgb(55.686275%, 96.862745%, 78.431373%)" opacity="0.029" d="M278.321,371.538 Q276.022,371.209 275.076,370.37 Q274.132,369.534 274.284,368.36 Q274.401,367.462 275.192,366.757 Q276.964,365.176 282.205,364.385 Q295.674,362.35 308.36,367.71 Q309.951,368.382 309.279,369.973 Q308.607,371.564 307.015,370.892 Q295.227,365.912 282.721,367.801 Q280.893,368.077 279.668,368.401 Q280.447,368.882 280.276,370.073 Q280.031,371.783 278.321,371.538 Z"/>
  <path fill="rgb(32.54902%, 40.392157%, 47.45098%)" opacity="0.901" d="M334.002,117.266 Q330.782,118.641 323.916,123.656 Q290.994,147.704 222.531,173.846 Q217.595,175.731 212.772,173.573 Q207.949,171.416 206.064,166.48 Q204.179,161.544 206.337,156.721 Q208.494,151.898 213.43,150.013 Q278.703,125.089 308.869,103.055 Q318.085,96.323 323.983,93.804 Q328.842,91.729 333.745,93.698 Q338.648,95.667 340.723,100.526 Q342.798,105.385 340.829,110.288 Q338.861,115.191 334.002,117.266 Z"/>
  <path fill="rgb(21.960784%, 26.666667%, 22.745098%)" opacity="0.267" d="M142.562,247.246 Q132.681,242.585 89.389,233.854 Q64.613,228.858 47.731,225.335 Q45.683,224.908 44.872,223.67 Q44.062,222.432 44.489,220.383 Q45.344,216.287 49.441,217.142 Q66.299,220.66 91.044,225.65 Q135.333,234.581 146.133,239.676 Q149.918,241.461 148.133,245.246 Q147.24,247.139 145.847,247.639 Q144.455,248.139 142.562,247.246 Z"/>
  <path fill="rgb(42.745098%, 81.568627%, 63.921569%)" opacity="0.069" d="M239.104,384.294 Q203.476,384.628 142.776,381.104 Q112.585,379.351 99.557,379.007 Q91.375,378.791 91.591,370.608 Q91.699,366.517 93.799,364.525 Q95.898,362.534 99.989,362.642 Q113.275,362.993 143.725,364.76 Q203.874,368.252 238.951,367.924 Q247.136,367.848 247.212,376.033 Q247.289,384.218 239.104,384.294 Z"/>
</svg>

