<svg xmlns="http://www.w3.org/2000/svg" width="384" height="384" viewBox="0 0 384 384">
  <defs/>
  <path fill="rgb(28.627451%, 29.019608%, 72.941176%)" opacity="0.282" d="M112.489,170.407 Q121.207,200.603 129.528,227.129 Q136.647,249.822 143.689,281.727 Q144.766,286.608 139.886,287.685 Q137.446,288.224 135.956,287.273 Q134.467,286.322 133.928,283.882 Q126.979,252.4 119.99,230.121 Q111.635,203.485 102.886,173.179 Q101.499,168.377 106.301,166.991 Q111.103,165.605 112.489,170.407 Z"/>
  <path fill="rgb(10.980392%, 51.764706%, 58.039216%)" opacity="0.989" d="M106.685,111.694 Q118.811,115.89 121.526,118.391 Q122.457,119.249 122.836,120.326 Q123.993,123.611 121,125.378 Q119.498,126.265 117.296,125.876 Q115.235,125.512 111.779,124.092 Q89.391,114.893 68.013,91.898 Q65.228,88.903 68.223,86.118 Q69.721,84.726 71.166,84.778 Q72.611,84.831 74.003,86.329 Q89.06,102.524 104.436,111.374 Q105.426,111.258 106.685,111.694 Z"/>
</svg>

