<svg xmlns="http://www.w3.org/2000/svg" width="384" height="384" viewBox="0 0 384 384">
  <defs/>
  <path fill="rgb(0%, 85.490196%, 85.882353%)" opacity="0.086" d="M109.23,187.109 Q117.694,200.208 114.64,213.125 Q111.784,225.206 100.796,231.183 Q89.605,237.269 76.849,233.048 Q62.943,228.447 52.894,212.756 Q51.781,211.019 52.093,209.595 Q52.406,208.17 54.143,207.058 Q57.616,204.833 59.841,208.307 Q68.312,221.534 79.44,225.216 Q88.803,228.314 96.854,223.935 Q104.604,219.72 106.612,211.227 Q108.856,201.732 102.301,191.586 Q101.182,189.854 101.488,188.428 Q101.795,187.002 103.527,185.883 Q106.992,183.644 109.23,187.109 Z"/>
  <path fill="rgb(90.588235%, 99.215686%, 89.411765%)" opacity="0.027" d="M258.948,346.81 Q259.445,345.848 259.9,344.954 Q259.259,344.215 259.84,343.084 Q262.687,337.543 263.86,335.588 Q264.697,334.192 265.441,333.946 Q266.406,333.626 267.177,334.282 Q267.703,334.728 267.799,335.419 Q267.847,335.763 267.767,336.147 Q267.709,336.424 267.551,336.862 Q266.283,340.388 262.115,348.448 Q261.296,350.031 259.712,349.212 Q258.129,348.393 258.948,346.81 Z"/>
  <path fill="rgb(50.980392%, 31.764706%, 17.254902%)" opacity="0.907" d="M238.855,120.284 Q238.999,91.441 227.813,86.504 Q219.752,82.945 205.001,90.913 Q198.384,94.488 193.865,97.921 Q193.249,98.491 192.665,99.023 Q190.588,100.919 189.459,101.846 Q188.636,102.523 188.043,102.843 Q184.285,104.871 181.24,101.905 Q177.679,98.437 180.583,94.379 Q180.889,93.953 181.323,93.518 Q183.529,91.311 186.369,89.111 Q191.815,84.055 199.98,75.903 Q202.024,73.862 204.067,73.863 Q206.11,73.865 208.152,75.909 Q208.464,76.222 208.728,76.535 Q222.462,71.509 232.479,75.931 Q250.593,83.926 250.411,120.341 Q250.382,126.12 244.604,126.091 Q238.826,126.062 238.855,120.284 Z"/>
  <path fill="rgb(50.588235%, 100%, 45.490196%)" opacity="0.127" d="M15.893,25.253 Q10.316,29.072 6.099,32.034 Q8.479,38.346 5.239,45.335 Q1.601,53.181 -20.928,68.538 Q-26.509,72.343 -33.147,71.086 Q-39.784,69.83 -43.589,64.248 Q-47.393,58.666 -46.137,52.029 Q-44.881,45.392 -39.299,41.587 Q-38.169,40.817 -37.11,40.086 Q-39.314,32.922 -35.189,25.75 Q-30.397,17.418 -2.534,-1.66 Q3.04,-5.476 9.68,-4.233 Q16.32,-2.99 20.136,2.584 Q23.952,8.158 22.71,14.797 Q21.467,21.437 15.893,25.253 Z"/>
  <path fill="rgb(37.647059%, 100%, 55.686275%)" opacity="0.105" d="M40.14,219.071 Q37.773,218.008 33.895,216.955 Q19.121,212.943 7.398,214.391 Q7.171,214.419 6.954,214.449 Q16.506,224.443 52.145,242.183 Q56.116,244.16 57.113,247.134 Q58.11,250.107 56.133,254.078 Q52.18,262.02 44.238,258.067 Q0.022,236.057 -9.621,222.163 Q-17.106,211.375 -9.596,203.131 Q-4.955,198.038 5.223,196.781 Q20.407,194.907 38.544,199.832 Q47.46,202.253 52.346,205.627 Q56.345,208.388 57.938,212.03 Q60.533,217.967 56.803,223.383 Q54.287,227.037 51.202,227.605 Q48.118,228.174 44.464,225.658 Q40.235,222.746 40.14,219.071 Z"/>
  <path fill="rgb(58.039216%, 100%, 67.058824%)" opacity="0.183" d="M372.164,377.853 Q376.785,381.438 379.351,387.525 Q384.029,398.619 377.74,408.951 Q375.235,413.068 371.244,415.997 Q367.921,418.436 363.663,419.951 Q356.261,422.585 348.93,421.835 Q345.967,421.532 343.27,420.68 Q342.449,420.833 341.579,421 Q314.61,426.179 260.239,441.713 Q251.012,444.349 242.624,439.689 Q234.236,435.029 231.599,425.802 Q228.963,416.575 233.624,408.186 Q238.284,399.798 247.511,397.162 Q303.855,381.064 332.84,375.498 Q333.343,375.401 333.831,375.309 Q333.947,375.164 334.066,375.016 Q340.093,367.549 349.635,366.53 Q359.177,365.512 366.644,371.539 Q370.091,374.321 372.164,377.853 Z"/>
  <path fill="rgb(22.352941%, 18.823529%, 10.980392%)" opacity="0.62" d="M-2.103,125.105 Q32.146,131.21 51.542,132.994 Q51.574,132.976 51.605,132.958 Q60.675,127.849 71.915,129.343 Q79.478,130.349 85.662,133.984 Q92.244,137.853 96,144.106 Q100.04,150.831 99.934,158.624 Q99.812,167.605 94.362,174.787 Q86.574,185.051 71.157,186.551 Q64.417,187.206 53.882,186.526 Q31.165,185.06 -11.436,177.466 Q-22.281,175.533 -28.582,166.498 Q-34.883,157.463 -32.95,146.618 Q-31.017,135.774 -21.982,129.473 Q-12.947,123.172 -2.103,125.105 Z"/>
  <path fill="rgb(42.745098%, 44.313725%, 40.392157%)" opacity="0.986" d="M-60.182,181.316 Q-14.338,186.306 26.711,187.373 Q76.412,188.666 236.336,188.295 Q241.373,188.283 241.385,193.32 Q241.391,195.839 240.135,197.101 Q238.878,198.364 236.359,198.369 Q76.293,198.741 26.449,197.445 Q-15.015,196.366 -61.272,191.332 Q-63.776,191.06 -64.891,189.671 Q-66.007,188.283 -65.734,185.779 Q-65.189,180.771 -60.182,181.316 Z"/>
  <path fill="rgb(30.980392%, 45.882353%, 18.823529%)" opacity="0.57" d="M367.311,24.01 Q343.179,45.914 326.024,64.333 Q345.294,56.054 369.845,43.731 Q382.98,37.139 396.93,41.764 Q410.879,46.39 417.472,59.525 Q424.065,72.66 419.439,86.609 Q414.813,100.559 401.678,107.152 Q334.894,140.673 297.749,148.871 Q274.28,154.051 258.011,149.877 Q244.337,146.369 235.172,136.832 Q224.973,126.217 222.998,111.264 Q219.273,83.055 251.598,42.038 Q276.051,11.011 319.619,-28.534 Q330.501,-38.411 345.18,-37.701 Q359.86,-36.99 369.737,-26.108 Q379.614,-15.225 378.904,-0.546 Q378.193,14.133 367.311,24.01 Z"/>
  <path fill="rgb(40.392157%, 100%, 47.058824%)" opacity="0.108" d="M19.452,299.735 Q35.288,297.158 45.717,294.251 Q45.086,293.418 44.59,292.663 Q39.579,285.046 39.62,276.498 Q39.692,261.591 52.448,253.512 Q60.68,248.298 74.79,248.288 Q83.195,248.282 98.109,249.791 Q108.662,250.858 115.37,259.076 Q122.078,267.293 121.01,277.847 Q119.943,288.401 111.725,295.108 Q109.326,297.067 106.727,298.363 Q107.066,306.823 102.941,315.186 Q95.638,329.992 74.329,338.611 Q57.433,345.445 27.681,350.288 Q17.211,351.992 8.602,345.794 Q-0.006,339.596 -1.71,329.126 Q-3.414,318.656 2.784,310.048 Q8.982,301.439 19.452,299.735 Z"/>
  <path fill="rgb(18.823529%, 98.039216%, 3.137255%)" opacity="0.074" d="M298.967,-7.94 Q286.386,5.437 268.701,23.795 Q247.233,46.081 243.543,51.803 Q240.329,56.787 237.844,70.723 Q237.297,73.789 236.983,75.502 Q235.454,83.849 227.107,82.319 Q222.934,81.554 221.229,79.085 Q219.525,76.616 220.29,72.443 Q220.596,70.772 221.136,67.744 Q224.219,50.453 229.28,42.605 Q233.865,35.495 256.478,12.021 Q274.093,-6.265 286.604,-19.567 Q292.417,-25.749 298.599,-19.935 Q304.78,-14.122 298.967,-7.94 Z"/>
  <path fill="rgb(64.705882%, 81.568627%, 62.352941%)" opacity="0.033" d="M159.517,268.563 Q157.226,278.258 155.365,285.113 Q157.11,286.589 155.724,288.749 Q154.101,291.28 152.845,293.709 Q151.347,298.322 150.254,300.259 Q150.02,300.675 149.751,300.969 Q149.219,301.551 148.488,301.796 Q146.211,302.557 145.019,300.473 Q144.401,299.391 144.782,297.907 Q145.045,296.882 145.756,295.165 Q146.543,293.264 147.538,291.315 Q150.008,283.522 153.858,267.226 Q154.527,264.397 157.356,265.066 Q160.185,265.734 159.517,268.563 Z"/>
  <path fill="rgb(50.588235%, 50.588235%, 49.019608%)" opacity="0.628" d="M424.148,198.509 Q408.659,197.723 362.15,198.325 Q268.608,199.536 178.752,198.245 Q171.279,198.138 166.071,192.778 Q160.862,187.417 160.97,179.944 Q161.077,172.471 166.437,167.262 Q171.798,162.054 179.271,162.161 Q268.635,163.445 361.683,162.24 Q409.341,161.623 425.978,162.468 Q433.442,162.847 438.452,168.393 Q443.462,173.939 443.083,181.403 Q442.704,188.868 437.158,193.878 Q431.612,198.888 424.148,198.509 Z"/>
  <path fill="rgb(58.431373%, 65.490196%, 53.72549%)" opacity="0.894" d="M401.484,67.927 Q383.867,74.345 375.939,80.476 Q377.315,82.097 379.387,84.273 Q384.689,89.84 387.037,94.007 Q390.85,100.772 391.262,108.391 Q392.294,127.439 376.099,137.494 Q365.229,144.244 352.012,141.722 Q346.657,140.701 323.647,132.067 Q293.496,120.754 268.108,111.593 Q255.675,107.107 250.056,95.144 Q244.437,83.181 248.922,70.748 Q253.408,58.315 265.372,52.696 Q277.335,47.077 289.768,51.563 Q301.079,55.644 313.308,60.142 Q325.322,27.75 379.641,7.963 Q392.06,3.44 404.04,9.022 Q416.02,14.605 420.544,27.024 Q425.068,39.443 419.486,51.423 Q413.903,63.403 401.484,67.927 Z"/>
  <path fill="rgb(47.058824%, 42.352941%, 35.294118%)" opacity="0.872" d="M421.403,176.995 Q374.553,184.139 332.211,185.936 Q303.909,187.138 233.073,186.848 Q154.691,186.526 97.363,187.126 Q87.326,187.231 80.155,180.208 Q72.983,173.185 72.878,163.148 Q72.773,153.111 79.796,145.94 Q86.819,138.768 96.856,138.663 Q154.537,138.06 233.272,138.383 Q302.979,138.669 330.155,137.515 Q369.858,135.829 414.097,129.083 Q424.02,127.57 432.106,133.517 Q440.193,139.463 441.706,149.386 Q443.219,159.309 437.272,167.395 Q431.326,175.482 421.403,176.995 Z"/>
  <path fill="rgb(43.529412%, 97.254902%, 52.54902%)" opacity="0.123" d="M40.682,275.334 Q39.731,276.137 38.078,277.533 Q20.577,292.315 16.548,294.07 Q11.357,296.332 6.591,294.347 Q0.605,291.855 -0.547,285.168 Q-0.997,282.558 -0.3,276.865 Q1.031,265.989 -0.451,258.776 Q-3.1,245.883 -14.336,234.945 Q-17.564,231.802 -17.624,227.298 Q-17.684,222.794 -14.542,219.566 Q-11.4,216.339 -6.896,216.278 Q-2.392,216.218 0.836,219.36 Q16.86,234.96 20.854,254.399 Q21.656,258.302 21.93,262.699 Q22.952,261.839 24.044,260.917 Q25.758,259.469 26.654,258.713 Q30.096,255.808 34.584,256.187 Q39.073,256.567 41.978,260.009 Q44.884,263.451 44.504,267.94 Q44.125,272.428 40.682,275.334 Z"/>
  <path fill="rgb(67.058824%, 92.156863%, 59.215686%)" opacity="0.336" d="M92.396,408.459 Q99.514,402.19 103.691,398.064 L103.688,398.062 Q99.679,396.229 101.089,392.052 Q101.455,390.969 102.268,390.152 Q102.631,389.787 103.09,389.478 Q103.406,389.266 103.855,389.022 Q105.548,388.105 107.719,387.305 Q108.198,387.129 108.655,386.979 Q115.017,383.88 128.245,376.848 Q132.553,374.557 134.844,378.866 Q135.989,381.02 135.484,382.67 Q134.98,384.32 132.826,385.465 Q124.756,389.754 119.137,392.633 Q119.04,393.527 118.69,394.485 Q116.632,400.118 98.846,415.783 Q95.184,419.008 91.959,415.346 Q88.734,411.684 92.396,408.459 Z"/>
  <path fill="rgb(98.039216%, 87.843137%, 69.803922%)" opacity="0.776" d="M136.069,73.846 Q191.307,64.271 209.856,73.539 Q221.255,79.235 220.26,90.359 Q219.55,98.289 211.786,106.118 Q197.041,120.985 178.113,122.566 Q166.589,123.528 159.668,117.119 Q151.906,109.932 152.869,96.006 Q153.421,88.012 161.416,88.564 Q165.413,88.84 167.274,90.977 Q169.134,93.114 168.858,97.111 Q168.424,103.384 170.557,105.359 Q172.295,106.968 176.779,106.594 Q189.821,105.505 200.406,94.832 Q204.083,91.124 204.294,88.953 Q203.922,88.491 202.692,87.877 Q188.855,80.963 138.806,89.638 Q134.858,90.322 132.542,88.691 Q130.226,87.059 129.542,83.111 Q128.173,75.215 136.069,73.846 Z"/>
  <path fill="rgb(14.117647%, 41.176471%, 7.45098%)" opacity="0.37" d="M61.935,160.806 Q78.776,154.309 84.788,153.604 Q91.253,152.846 93.487,157.669 Q96.883,157.666 106.216,154.919 Q110.657,153.612 111.964,158.052 Q112.617,160.273 111.834,161.71 Q111.051,163.146 108.83,163.8 Q97.026,167.275 92.178,166.876 Q87.579,166.497 85.642,162.827 Q80.661,163.505 65.268,169.444 Q63.108,170.277 61.612,169.614 Q60.116,168.95 59.283,166.791 Q57.617,162.473 61.935,160.806 Z"/>
</svg>

