<svg xmlns="http://www.w3.org/2000/svg" width="384" height="384" viewBox="0 0 384 384">
  <defs/>
  <path fill="rgb(66.666667%, 50.980392%, 88.235294%)" opacity="0.537" d="M31.593,232.072 Q32.21,232.409 32.382,232.901 Q32.572,233.446 32.218,234.182 Q30.542,237.657 25.617,237.217 Q24.277,237.097 23.721,236.217 Q22.821,234.79 24.328,233.535 Q25.571,232.5 29.598,231.196 Q30.375,230.944 30.89,231.207 Q31.344,231.439 31.593,232.072 Z"/>
  <path fill="rgb(54.509804%, 53.72549%, 53.333333%)" opacity="0.252" d="M356.463,352.06 Q356.393,352.17 356.308,352.305 Q356.02,352.764 355.899,352.928 Q355.611,353.318 355.251,353.504 Q354.753,353.762 354.205,353.66 Q353.406,353.51 353.051,352.777 Q352.842,352.345 352.899,351.847 Q352.958,351.331 353.967,348.762 Q354.552,347.272 356.043,347.858 Q357.202,348.313 357.105,349.317 Q357.213,349.461 357.304,349.639 Q357.502,350.027 357.503,350.515 Q357.507,351.808 356.463,352.06 Z"/>
  <path fill="rgb(42.352941%, 39.607843%, 38.823529%)" opacity="0.19" d="M146.43,127.466 Q149.185,125.699 152.182,122.065 Q153.71,120.211 155.564,121.74 Q157.418,123.269 155.889,125.123 Q145.649,137.539 138.457,132.794 Q136.85,131.734 136.41,130.008 Q135.931,128.133 137.041,126.485 Q139.04,123.518 144.4,123.74 Q146.801,123.839 146.701,126.24 Q146.671,126.968 146.43,127.466 Z M144.202,128.541 Q142.075,128.453 141.323,128.902 Q142.328,129.344 144.34,128.552 Q144.349,128.549 144.357,128.545 Q144.281,128.545 144.202,128.541 Z"/>
  <path fill="rgb(62.745098%, 61.176471%, 60%)" opacity="0.207" d="M387.392,101.166 Q388.077,102.345 389.289,104.407 Q392.037,109.082 392.847,110.725 Q395.953,117.024 393.052,121.613 Q389.487,127.252 381.64,125.459 Q379.934,125.069 375.114,123.509 Q357.493,117.808 340.885,114.778 Q332.568,113.261 334.085,104.944 Q335.602,96.626 343.92,98.144 Q357.287,100.582 371.211,104.625 Q371.257,100.764 375.834,98.104 Q379.489,95.98 382.379,96.746 Q385.268,97.511 387.392,101.166 Z"/>
</svg>

