<svg xmlns="http://www.w3.org/2000/svg" width="384" height="384" viewBox="0 0 384 384">
  <defs/>
  <path fill="rgb(21.960784%, 30.196078%, 34.117647%)" opacity="0.689" d="M169.098,201.164 Q172.176,177.138 174.821,169.286 Q177.775,160.518 184.582,160.876 Q190.952,161.211 193.298,169.332 Q195.249,176.088 197.369,203.384 Q197.616,203.391 197.871,203.408 Q201.704,203.655 203.497,205.696 Q205.289,207.736 205.042,211.57 Q203.777,231.133 202.743,239.304 Q202.18,243.757 201.528,245.807 Q200.448,249.207 197.795,250.828 Q193.482,253.464 189.29,250.634 Q187.547,249.458 186.548,247.498 Q184.806,244.08 182.899,216.25 Q182.603,211.931 182.316,208.035 Q180.131,210.323 175.743,209.761 Q168.122,208.785 169.098,201.164 Z"/>
  <path fill="rgb(60%, 100%, 28.235294%)" opacity="0.042" d="M314.545,368.802 Q314.592,370.179 314.462,371.61 Q313.69,380.071 307.161,385.507 Q300.632,390.944 292.172,390.172 Q231.159,384.606 218.194,362.123 Q212.739,352.665 214.883,342.165 Q216.573,333.889 222.845,327.006 Q231.043,318.008 246.147,312.407 Q276.346,301.209 306.157,308.915 Q324.247,313.592 336.405,325.175 Q350.607,338.704 354.409,359.3 Q355.951,367.655 351.134,374.653 Q346.317,381.652 337.962,383.194 Q329.607,384.736 322.609,379.919 Q316.495,375.711 314.545,368.802 Z M301.326,350.519 Q298.841,349.395 295.89,348.632 Q286.672,346.249 277.234,347.03 Q285.524,348.373 295.899,349.32 Q298.789,349.583 301.326,350.519 Z"/>
  <path fill="rgb(100%, 46.27451%, 100%)" opacity="0.045" d="M385.261,37.825 Q319.918,27.176 281.297,26.065 Q274.447,25.868 269.079,25.992 Q261.639,28.759 254.908,29.15 Q250.351,29.414 246.795,28.392 Q240.114,26.471 236.701,20.665 Q232.993,14.359 235.145,7.367 Q236.47,3.063 239.812,-0.032 Q245.172,-4.996 261.428,-6.393 Q270.013,-10.967 275.256,-20.869 Q278.429,-26.863 284.912,-28.857 Q291.395,-30.852 297.389,-27.678 Q303.383,-24.504 305.377,-18.022 Q307.351,-11.604 304.261,-5.666 Q338.604,-2.959 390.528,5.503 Q397.222,6.594 401.184,12.099 Q405.146,17.604 404.056,24.298 Q402.965,30.992 397.46,34.954 Q391.955,38.916 385.261,37.825 Z"/>
  <path fill="rgb(1.568627%, 60%, 99.215686%)" opacity="0.275" d="M54.421,193.393 Q79.717,177.401 97.835,187.045 Q113.523,195.396 115.091,215.468 Q116.671,235.697 101.994,245.267 Q85.012,256.339 55.843,242.694 Q54.431,242.033 55.092,240.621 Q55.422,239.914 55.94,239.727 Q56.458,239.539 57.165,239.869 Q84.762,252.78 100.291,242.655 Q113.418,234.096 111.982,215.711 Q110.548,197.344 96.37,189.797 Q79.852,181.005 56.087,196.029 Q55.428,196.445 54.89,196.324 Q54.353,196.203 53.936,195.544 Q53.103,194.226 54.421,193.393 Z"/>
  <path fill="rgb(0%, 98.823529%, 94.117647%)" opacity="0.321" d="M153.87,322.479 Q146.617,364.221 139.585,391.183 Q142.089,392.47 143.743,396.061 Q147.511,404.238 139.334,408.005 Q136.272,409.416 133.208,412.715 Q132.316,413.676 131.778,414.141 Q129.785,415.861 127.293,416.306 Q122.489,417.164 119.132,413.63 Q117.012,411.4 116.683,408.321 Q116.457,406.204 117.811,401.903 Q126.697,373.677 136.13,319.396 Q137.671,310.526 146.541,312.067 Q150.977,312.838 152.809,315.441 Q154.641,318.044 153.87,322.479 Z"/>
  <path fill="rgb(100%, 63.921569%, 100%)" opacity="0.05" d="M140.499,179.768 Q74.427,151.669 43.361,124.776 Q28.119,111.581 22.579,99.333 Q14.145,80.683 25.978,67.039 Q42.472,48.021 85.609,59.773 Q124.82,70.455 169,101.818 Q175.139,106.176 176.399,113.6 Q177.658,121.024 173.3,127.164 Q168.941,133.303 161.517,134.563 Q154.094,135.822 147.954,131.464 Q109.037,103.837 76.053,94.851 Q67.817,92.607 61.493,92.003 Q63.885,94.456 67.156,97.288 Q93.907,120.446 154.727,146.311 Q161.656,149.257 164.473,156.241 Q167.289,163.224 164.342,170.153 Q161.395,177.082 154.412,179.898 Q147.428,182.714 140.499,179.768 Z"/>
  <path fill="rgb(77.254902%, 42.352941%, 39.607843%)" opacity="0.478" d="M166.525,211.868 Q154.525,214.541 149.202,204.756 Q145.325,197.629 149.336,186.257 Q155.111,169.878 168.11,156.361 Q175.874,148.288 182.868,147.146 Q190.56,145.891 195.631,151.535 Q199.203,155.509 199.864,162.124 Q201.609,179.59 182.032,232.484 Q180.159,237.545 176.692,239.139 Q173.225,240.733 168.164,238.86 Q158.043,235.114 161.789,224.992 Q164.354,218.061 166.525,211.868 Z M173.419,190.764 Q175.082,185.139 176.197,180.539 Q173.247,184.939 171.192,189.635 Q172.39,190.014 173.419,190.764 Z"/>
  <path fill="rgb(42.352941%, 52.156863%, 100%)" opacity="0.026" d="M19.802,120.057 Q9.014,119.565 2.356,114.355 Q-4.753,108.793 -2.507,103.014 Q0.063,96.397 10.097,99.933 Q19.04,103.084 31.368,114.405 Q32.685,115.614 32.739,116.878 Q32.793,118.141 31.583,119.458 Q29.164,122.092 26.53,119.673 Q24.987,118.256 23.514,116.984 Q23.366,118.516 22.522,119.286 Q21.588,120.138 19.802,120.057 Z M18.324,112.787 Q12.335,108.305 7.72,106.679 Q5.428,105.871 4.162,105.999 Q4.429,106.896 6.763,108.722 Q11.095,112.111 18.324,112.787 Z"/>
  <path fill="rgb(80%, 100%, 83.529412%)" opacity="0.112" d="M82.737,353.106 Q98.818,332.2 110.004,324.519 Q117.836,319.141 127.064,318.477 Q128.957,318.341 129.859,317.387 Q133.038,314.023 136.31,313.931 Q139.582,313.839 142.945,317.019 Q149.673,323.378 143.313,330.106 Q137.466,336.291 128.394,336.944 Q124.175,337.248 120.485,339.782 Q111.71,345.808 97.412,364.395 Q91.767,371.732 84.43,366.088 Q80.761,363.265 80.338,360.02 Q79.914,356.774 82.737,353.106 Z"/>
  <path fill="rgb(4.705882%, 74.509804%, 98.431373%)" opacity="0.107" d="M144.049,405.912 Q141.567,341.77 145.224,272.502 Q145.632,264.78 145.826,259.452 Q143.182,260.111 140.025,257.916 Q137.065,255.858 136.614,253.349 Q136.163,250.84 138.221,247.881 Q142.794,241.303 145.525,239.186 Q149.51,236.095 153.749,237.391 Q158.098,238.719 159.586,243.64 Q160.95,248.151 159.624,273.263 Q156.001,341.872 158.458,405.354 Q158.737,412.559 151.533,412.837 Q147.931,412.977 146.06,411.245 Q144.189,409.514 144.049,405.912 Z"/>
  <path fill="rgb(10.980392%, 30.196078%, 40.784314%)" opacity="0.501" d="M12.929,389.455 Q9.9,388.618 6.935,387.44 Q-3.686,383.218 -11.884,375.254 Q-20.081,367.289 -24.607,356.794 Q-29.132,346.299 -29.297,334.871 Q-32.339,123.8 4.115,-28.628 Q19.771,-94.092 40.256,-135.555 Q68.944,-193.621 110.301,-202.736 Q130.606,-207.212 149.824,-199.843 Q166.574,-193.42 178.763,-179.178 Q193.361,-162.121 199.997,-134.345 Q209.495,-94.591 204.845,-25.517 Q194.441,129.032 121.091,383.083 Q117.92,394.064 110.789,402.996 Q103.658,411.927 93.652,417.45 Q83.645,422.973 72.287,424.246 Q60.929,425.519 49.948,422.349 Q38.967,419.178 30.036,412.047 Q21.104,404.916 15.581,394.909 Q14.103,392.231 12.929,389.455 Z"/>
  <path fill="rgb(100%, 75.686275%, 89.019608%)" opacity="0.025" d="M16.275,166.746 Q16.162,166.031 16.066,165.979 Q9.121,162.183 -1.098,148.607 Q-3.381,145.575 -0.349,143.292 Q1.167,142.151 2.496,142.338 Q3.824,142.526 4.966,144.042 Q14.2,156.309 19.706,159.319 Q23.079,161.162 23.772,165.566 Q24.362,169.315 20.614,169.905 Q18.739,170.2 17.654,169.411 Q16.57,168.621 16.275,166.746 Z"/>
  <path fill="rgb(71.372549%, 87.843137%, 100%)" opacity="0.067" d="M358.487,92.31 Q367.871,96.17 369.464,101.238 Q371.167,106.654 365.131,110.023 Q360.427,112.648 354.287,112.07 Q347.317,111.413 343.296,106.74 Q341.517,104.673 343.584,102.894 Q345.652,101.115 347.431,103.182 Q350.018,106.188 354.799,106.639 Q359.25,107.058 362.473,105.26 Q364.632,104.054 364.261,102.873 Q363.434,100.243 356.412,97.354 Q355.151,96.836 354.779,95.946 Q354.408,95.056 354.927,93.795 Q355.964,91.272 358.487,92.31 Z"/>
  <path fill="rgb(56.470588%, 74.509804%, 95.686275%)" opacity="0.018" d="M95.789,150.442 Q88.175,143.527 86.324,133.399 Q84.758,124.832 87.627,118.987 Q89.292,115.594 92.013,115.004 Q95.385,114.272 97.772,117.866 Q101.437,123.383 102.041,139.419 Q102.095,140.854 101.405,141.598 Q100.714,142.342 99.28,142.396 Q96.411,142.504 96.303,139.635 Q95.761,125.251 93.004,121.065 Q92.911,121.253 92.781,121.516 Q90.747,125.662 91.972,132.367 Q93.473,140.583 99.649,146.191 Q100.712,147.156 100.76,148.17 Q100.809,149.184 99.844,150.247 Q97.914,152.372 95.789,150.442 Z"/>
  <path fill="rgb(45.882353%, 72.156863%, 64.313725%)" opacity="0.401" d="M121.54,408.549 Q115.475,390.628 110.175,384.99 Q103.597,377.994 104.276,369.725 Q104.619,365.544 108.082,358.756 Q111.283,352.479 113.932,346.504 Q116.718,340.217 123.134,337.742 Q129.549,335.266 135.836,338.053 Q142.123,340.839 144.598,347.255 Q147.073,353.67 144.287,359.957 Q142.234,364.591 139.903,369.354 Q146.935,380.009 152.991,397.905 Q155.196,404.418 152.148,410.583 Q149.101,416.748 142.588,418.952 Q136.074,421.156 129.909,418.109 Q123.745,415.062 121.54,408.549 Z"/>
  <path fill="rgb(52.156863%, 66.27451%, 78.039216%)" opacity="0.353" d="M188.895,37.373 Q190.118,35.797 192.164,33.123 Q195.522,28.735 196.773,27.273 Q203.079,19.904 211.024,20.46 Q225.232,21.455 225.278,36.988 Q225.283,38.813 224.901,43.674 Q221.452,87.605 234.186,138.256 Q235.673,144.174 232.541,149.41 Q229.408,154.647 223.49,156.135 Q217.572,157.623 212.336,154.49 Q207.099,151.357 205.611,145.439 Q194.323,100.537 194.716,59.974 Q193.048,59.239 191.506,58.042 Q186.684,54.302 185.92,48.248 Q185.155,42.194 188.895,37.373 Z"/>
  <path fill="rgb(58.823529%, 78.431373%, 86.666667%)" opacity="0.028" d="M287.865,160.791 Q287.405,162.453 286.597,163.457 Q284.437,166.14 281.348,164.866 Q279.074,163.927 277.927,160.456 Q276.491,156.108 276.443,150.372 Q276.377,142.304 280.264,139.985 Q285.841,136.659 292.803,146.484 Q293.97,148.13 293.73,149.536 Q293.49,150.942 291.844,152.108 Q288.553,154.441 286.22,151.149 Q285.303,149.854 284.538,148.951 Q284.506,149.578 284.512,150.305 Q284.537,153.376 285.035,155.822 Q285.044,155.824 285.053,155.827 Q286.997,156.365 287.7,157.606 Q288.403,158.847 287.865,160.791 Z"/>
  <path fill="rgb(61.568627%, 55.686275%, 92.54902%)" opacity="0.051" d="M244.249,61.645 Q155.041,67.006 143.582,41.512 Q137.02,26.913 149.646,15.077 Q155.438,9.648 166.018,5.594 Q184.28,-1.402 215.961,-4.778 Q223.462,-5.577 229.332,-0.838 Q235.201,3.901 236.001,11.402 Q236.8,18.904 232.061,24.773 Q231.612,25.329 231.138,25.84 Q236.416,25.625 242.064,25.285 Q249.594,24.833 255.239,29.837 Q260.884,34.842 261.336,42.372 Q261.789,49.903 256.784,55.547 Q251.779,61.192 244.249,61.645 Z"/>
  <path fill="rgb(7.843137%, 27.058824%, 37.647059%)" opacity="0.545" d="M423.439,422.071 Q423.64,442.649 419.912,457.66 Q410.848,494.155 379.777,512.839 Q359.4,525.092 335.644,525.158 Q313.651,525.219 294.286,514.71 Q274.99,504.238 262.749,485.587 Q251.698,468.751 246.165,441.529 Q242.86,425.273 240.049,400.716 Q225.901,277.126 226.171,-3.797 Q226.187,-20.773 232.698,-36.451 Q239.21,-52.128 251.225,-64.121 Q263.241,-76.113 278.931,-82.595 Q294.621,-89.076 311.597,-89.06 Q328.574,-89.044 344.251,-82.532 Q359.929,-76.021 371.922,-64.005 Q383.914,-51.99 390.396,-36.299 Q396.877,-20.609 396.861,-3.633 Q396.608,260.477 408.968,375.326 Q413.427,381.97 416.623,389.476 Q423.273,405.096 423.439,422.071 Z"/>
  <path fill="rgb(93.72549%, 55.294118%, 71.372549%)" opacity="0.012" d="M234.98,365.486 Q240.179,365.142 245.512,363.801 Q247.516,363.297 248.77,364.047 Q250.023,364.797 250.527,366.801 Q251.031,368.805 250.281,370.059 Q249.531,371.313 247.527,371.816 Q233.608,375.317 220.36,372.857 Q209.268,370.798 203.74,366.016 Q199.836,362.64 200.83,358.957 Q201.95,354.808 207.713,354.541 Q215.477,354.182 232.406,360.855 Q235.875,362.222 234.98,365.486 Z"/>
  <path fill="rgb(91.372549%, 82.745098%, 100%)" opacity="0.011" d="M302.977,78.146 Q302.883,77.885 302.719,77.422 Q302.606,77.105 302.52,76.87 Q301.764,76.834 299.836,76.763 Q283.648,76.164 261.021,72.287 Q259.131,71.963 258.348,70.856 Q257.565,69.75 257.889,67.86 Q258.537,64.081 262.316,64.729 Q284.44,68.52 300.12,69.1 Q304.922,69.277 306.465,70.057 Q308.631,71.151 309.946,74.86 Q310.101,75.298 310.187,75.534 Q310.84,77.336 310.265,78.564 Q309.69,79.792 307.888,80.445 Q304.283,81.75 302.977,78.146 Z"/>
  <path fill="rgb(28.627451%, 62.745098%, 84.705882%)" opacity="0.055" d="M227.441,73.622 Q231.603,60.532 230.524,53.624 Q230.133,51.123 229.149,50.21 Q228.519,49.625 227.42,49.875 Q223.335,50.803 217.924,58.82 Q211.433,68.438 206.489,84.003 Q205.771,86.261 203.513,85.543 Q202.384,85.185 201.999,84.441 Q201.614,83.697 201.972,82.568 Q207.123,66.353 213.996,56.169 Q220.456,46.598 226.37,45.254 Q229.91,44.45 232.373,46.737 Q234.562,48.769 235.206,52.893 Q236.457,60.904 231.957,75.058 Q231.598,76.187 230.854,76.572 Q230.11,76.957 228.981,76.598 Q226.723,75.88 227.441,73.622 Z"/>
  <path fill="rgb(17.647059%, 78.431373%, 63.921569%)" opacity="0.13" d="M383.267,374.468 Q387.786,373.919 392.794,373.294 Q398.918,372.529 399.683,378.653 Q400.447,384.777 394.323,385.542 Q348.977,391.204 341.276,390.726 Q338.91,390.579 337.397,389.841 Q334.271,388.316 333.769,384.971 Q333.285,381.75 335.666,379.375 Q337.421,377.623 342.841,375.849 Q351.577,372.991 375.583,367.311 Q381.589,365.89 383.01,371.895 Q383.344,373.308 383.267,374.468 Z"/>
  <path fill="rgb(38.039216%, 74.509804%, 80%)" opacity="0.034" d="M325.533,318.315 Q341.404,329.237 342.709,332.661 Q344.237,336.67 339.624,338.723 Q337.96,339.464 332.561,340.727 Q323.351,342.88 317.435,345.07 Q314.783,346.052 313.801,343.4 Q312.819,340.748 315.471,339.766 Q321.719,337.453 331.273,335.219 Q335.218,334.296 336.741,333.778 Q334.165,331.122 322.326,322.974 Q319.997,321.371 321.6,319.041 Q323.203,316.711 325.533,318.315 Z"/>
  <path fill="rgb(64.313725%, 82.352941%, 83.921569%)" opacity="0.144" d="M214.526,45.188 Q214.785,44.564 214.917,44.242 Q209.583,39.819 209.871,25.687 Q209.903,24.152 210.686,23.4 Q211.469,22.648 213.004,22.68 Q216.074,22.742 216.012,25.813 Q215.78,37.143 218.899,39.564 Q222.384,42.268 220.2,47.539 Q219.613,48.957 218.61,49.373 Q217.607,49.788 216.188,49.2 Q214.77,48.613 214.354,47.61 Q213.939,46.607 214.526,45.188 Z"/>
  <path fill="rgb(57.647059%, 98.039216%, 100%)" opacity="0.551" d="M146.595,206.218 Q202.991,196.462 225.386,187.118 Q234.385,183.364 236.328,180.436 Q236.635,179.974 236.591,179.839 Q236.427,179.342 235.282,178.586 Q227.712,173.584 201.932,172.598 Q174.719,171.558 145.802,176.072 Q144.233,176.317 143.326,175.655 Q142.419,174.993 142.174,173.423 Q141.684,170.285 144.823,169.795 Q174.347,165.187 202.174,166.251 Q229.731,167.304 238.784,173.285 Q241.77,175.258 242.624,177.852 Q243.634,180.918 241.62,183.95 Q238.61,188.484 227.832,192.981 Q204.778,202.599 147.678,212.477 Q144.548,213.019 144.007,209.889 Q143.466,206.759 146.595,206.218 Z"/>
  <path fill="rgb(100%, 72.156863%, 49.019608%)" opacity="0.416" d="M65.056,198.908 Q55.893,212.291 58.452,222.585 Q60.567,231.091 69.793,235.277 Q79.181,239.536 89.252,236.729 Q99.955,233.746 104.894,223.884 Q106.081,221.515 107.859,220.924 Q109.637,220.333 112.006,221.519 Q116.745,223.893 114.371,228.631 Q107.327,242.694 92.098,246.939 Q78.312,250.782 65.414,244.929 Q51.518,238.624 48.166,225.142 Q44.459,210.23 56.311,192.92 Q59.305,188.547 63.678,191.541 Q68.05,194.535 65.056,198.908 Z"/>
</svg>

