<svg xmlns="http://www.w3.org/2000/svg" width="384" height="384" viewBox="0 0 384 384">
  <defs/>
  <path fill="rgb(100%, 95.294118%, 20%)" opacity="0.038" d="M162.465,176.447 Q170.436,180.97 180.094,188.053 Q186.442,192.707 187.22,192.585 Q188.549,192.377 193.56,184.6 Q196.179,180.535 200.244,183.154 Q204.309,185.773 201.69,189.838 Q194.331,201.26 188.718,202.14 Q183.967,202.885 174.375,195.852 Q165.171,189.103 157.691,184.858 Q153.486,182.471 155.872,178.266 Q158.259,174.06 162.465,176.447 Z"/>
  <path fill="rgb(74.117647%, 73.72549%, 53.333333%)" opacity="0.11" d="M5.289,334.75 Q6.159,342.082 9.314,344.561 Q11.112,345.974 15.672,346.436 Q20.985,346.973 22.891,349.076 Q25.803,352.288 24.801,360.864 Q24.605,362.544 22.925,362.348 Q22.085,362.25 21.714,361.781 Q21.343,361.312 21.441,360.472 Q22.264,353.422 20.384,351.348 Q19.351,350.208 15.331,349.802 Q9.794,349.242 7.223,347.221 Q2.965,343.875 1.93,335.149 Q1.83,334.309 2.2,333.839 Q2.57,333.369 3.41,333.269 Q5.09,333.07 5.289,334.75 Z"/>
  <path fill="rgb(0%, 19.607843%, 16.862745%)" opacity="0.274" d="M138.227,119.418 Q78.243,95.169 57.62,88.554 Q28.106,79.088 5.789,79.17 Q-1.681,79.197 -1.709,71.727 Q-1.722,67.992 0.138,66.117 Q1.999,64.243 5.734,64.229 Q30.417,64.138 62.183,74.327 Q83.331,81.11 143.827,105.566 Q150.753,108.366 147.953,115.292 Q145.153,122.218 138.227,119.418 Z"/>
  <path fill="rgb(32.941176%, 53.333333%, 34.117647%)" opacity="0.414" d="M127.085,99.369 Q160.022,111.398 171.068,118.513 Q180.785,124.771 197.07,143.482 Q199.692,146.495 201.12,148.127 Q207.755,155.707 200.174,162.342 Q192.594,168.977 185.958,161.397 Q184.509,159.741 181.871,156.71 Q167.467,140.159 160.158,135.452 Q151,129.554 120.173,118.295 Q110.71,114.839 114.166,105.376 Q117.622,95.913 127.085,99.369 Z"/>
  <path fill="rgb(54.509804%, 100%, 52.941176%)" opacity="0.72" d="M115.654,126.555 Q172.56,156.799 197.454,164.013 Q207.752,166.997 210.35,165.56 Q210.717,165.356 210.632,164.725 Q210.427,163.219 208.638,160.599 Q207.48,158.904 209.175,157.747 Q210.869,156.59 212.026,158.284 Q214.364,161.706 214.698,164.173 Q215.161,167.587 212.337,169.15 Q208.247,171.414 196.312,167.955 Q171.01,160.622 113.728,130.179 Q111.916,129.216 112.879,127.404 Q113.842,125.592 115.654,126.555 Z"/>
  <path fill="rgb(100%, 92.54902%, 100%)" opacity="0.139" d="M168.7,100.291 Q168.937,98.759 171.889,98.322 Q173.074,98.147 173.592,97.992 Q173.619,96.894 174.926,96.582 Q176.578,96.187 176.973,97.84 Q177.511,100.093 175.05,101.08 Q174.224,101.411 172.387,101.683 Q171.932,101.751 171.662,101.799 Q171.563,101.917 171.443,102.005 Q170.958,102.36 170.119,102.23 Q168.44,101.969 168.7,100.291 Z"/>
  <path fill="rgb(84.313725%, 75.294118%, 56.470588%)" opacity="0.066" d="M136.57,309.815 Q146.656,307.166 148.902,306.955 Q151.099,306.749 151.761,308.062 Q152.194,308.92 151.627,310.36 Q151.137,311.604 151.905,312.205 Q154.59,314.306 165.38,315.241 Q166.178,315.31 166.542,315.743 Q166.907,316.177 166.837,316.974 Q166.699,318.569 165.104,318.431 Q153.366,317.415 149.932,314.728 Q147.711,312.99 148.31,310.274 Q145.559,310.765 137.383,312.912 Q135.835,313.319 135.428,311.77 Q135.021,310.221 136.57,309.815 Z"/>
  <path fill="rgb(63.137255%, 74.509804%, 73.72549%)" opacity="0.012" d="M162.057,41.097 Q150.256,12.231 158.872,3.483 Q165.347,-3.092 173.895,4.932 Q179.447,10.143 184.834,21.671 Q186.091,24.359 185.375,26.332 Q184.659,28.304 181.97,29.561 Q176.593,32.074 174.08,26.697 Q170.513,19.064 167.293,15.214 Q167.336,16.172 167.466,17.286 Q168.387,25.212 173.045,36.606 Q175.291,42.1 169.797,44.346 Q167.05,45.468 165.115,44.656 Q163.18,43.844 162.057,41.097 Z"/>
  <path fill="rgb(91.764706%, 89.411765%, 70.196078%)" opacity="0.072" d="M37.013,244.708 Q20.888,249.4 -0.581,254.109 Q-7.773,255.686 -10.398,256.4 Q-6.126,257.73 5.766,260.838 Q16.45,263.63 23.241,265.469 Q24.262,265.746 24.634,266.395 Q25.007,267.044 24.73,268.065 Q24.177,270.108 22.134,269.554 Q15.364,267.721 4.696,264.933 Q-15.224,259.727 -16.449,257.607 Q-17.735,255.381 -15.336,253.8 Q-14.382,253.171 -12.323,252.549 Q-9.948,251.83 -1.487,249.975 Q19.842,245.297 35.831,240.644 Q36.847,240.348 37.502,240.708 Q38.158,241.069 38.454,242.085 Q39.045,244.116 37.013,244.708 Z"/>
  <path fill="rgb(69.803922%, 74.901961%, 52.941176%)" opacity="0.068" d="M171.427,335.085 Q177.546,341.972 184.545,345.063 Q190.673,347.77 195.883,350.802 Q196.61,351.226 196.762,351.802 Q196.915,352.377 196.491,353.105 Q195.644,354.561 194.188,353.714 Q189.141,350.776 183.184,348.145 Q175.515,344.758 168.909,337.322 Q168.349,336.692 168.385,336.098 Q168.42,335.503 169.049,334.944 Q170.309,333.825 171.427,335.085 Z"/>
  <path fill="rgb(45.098039%, 77.254902%, 47.843137%)" opacity="0.009" d="M277.439,135.165 Q278.332,136.05 282.151,137.022 Q286.652,138.168 288.014,139.611 Q290.636,142.388 287.462,147.286 Q286.983,148.024 286.374,148.154 Q285.766,148.284 285.027,147.805 Q283.55,146.848 284.507,145.371 Q286.177,142.794 285.454,142.028 Q284.793,141.328 281.283,140.434 Q276.533,139.225 274.959,137.663 Q274.335,137.044 274.332,136.421 Q274.33,135.799 274.95,135.174 Q276.19,133.925 277.439,135.165 Z"/>
  <path fill="rgb(52.941176%, 72.54902%, 29.411765%)" opacity="0.687" d="M9.368,121.204 Q1.316,123.178 1.099,125.248 Q0.931,126.846 5.107,129.706 Q9.815,132.929 14.743,133.94 Q15.2,134.033 15.565,134.09 Q15.666,133.78 15.834,133.511 Q16.516,132.411 18.299,131.994 Q20.081,131.577 21.181,132.259 Q22.281,132.942 22.698,134.725 Q23.833,139.578 19.132,141.102 Q16.843,141.844 13.273,141.112 Q6.897,139.805 0.971,135.747 Q-6.807,130.422 -6.183,124.483 Q-5.428,117.292 7.625,114.093 Q9.402,113.657 10.509,114.328 Q11.616,114.999 12.052,116.777 Q12.923,120.333 9.368,121.204 Z"/>
  <path fill="rgb(95.294118%, 99.607843%, 84.705882%)" opacity="0.032" d="M8.701,265.225 Q8.202,265.273 7.415,265.435 Q5.119,265.906 -2.473,268.371 Q-7.449,269.986 -10.187,270.822 Q-11.853,271.331 -12.361,269.665 Q-12.616,268.832 -12.326,268.288 Q-12.037,267.745 -11.204,267.49 Q-8.498,266.664 -3.548,265.057 Q4.228,262.533 6.714,262.022 Q8.955,261.562 10.144,261.834 Q11.285,262.096 11.837,262.968 Q12.406,263.866 12.123,265.041 Q11.919,265.887 11.394,266.209 Q10.869,266.53 10.022,266.326 Q8.902,266.057 8.701,265.225 Z"/>
  <path fill="rgb(79.215686%, 73.72549%, 62.352941%)" opacity="0.097" d="M142.556,341.027 Q144.847,343.864 152.129,347.511 Q161.875,352.393 165.501,357.435 Q166.507,358.835 165.108,359.841 Q163.708,360.847 162.702,359.448 Q159.572,355.095 150.585,350.593 Q142.635,346.611 139.874,343.192 Q139.333,342.522 139.397,341.916 Q139.462,341.31 140.132,340.768 Q141.473,339.686 142.556,341.027 Z"/>
  <path fill="rgb(36.470588%, 40.392157%, 32.156863%)" opacity="0.515" d="M157.224,140.811 Q157.22,133.511 161.956,128.974 Q166.84,124.294 174.431,124.774 Q183.628,125.357 197.751,134.725 Q227.825,154.674 277.995,210.495 Q281.607,214.514 281.403,218.329 Q281.2,222.145 277.181,225.756 Q269.143,232.98 261.919,224.943 Q213.588,171.166 185.804,152.736 Q180.537,149.243 177.152,147.656 Q174.571,151.608 168.037,151.612 Q157.23,151.618 157.224,140.811 Z"/>
</svg>

