<svg xmlns="http://www.w3.org/2000/svg" width="384" height="384" viewBox="0 0 384 384">
  <defs/>
  <path fill="rgb(15.686275%, 56.862745%, 70.588235%)" opacity="0.26" d="M178.273,114.155 Q175.749,112.288 174.381,109.206 Q172.273,104.459 174.139,99.612 Q176.005,94.766 180.752,92.658 Q186.828,89.96 190.917,83.417 Q190.994,83.295 191.043,83.218 Q191.197,82.977 191.357,82.75 Q191.802,82.118 192.319,81.546 Q194.207,79.461 196.804,78.381 Q205.197,74.893 211.123,81.784 Q214.423,85.622 214.134,90.675 Q213.979,93.385 212.652,95.916 Q208.99,102.9 202.452,120.304 Q200.626,125.166 195.896,127.312 Q191.167,129.458 186.306,127.632 Q181.444,125.805 179.298,121.076 Q177.743,117.65 178.273,114.155 Z"/>
  <path fill="rgb(5.882353%, 0%, 5.882353%)" opacity="0.305" d="M109.697,-3.761 Q108.346,51.617 107.307,178.701 Q106.205,313.431 105.235,404.705 Q105.091,418.183 99.801,430.58 Q94.511,442.977 84.879,452.406 Q75.248,461.835 62.741,466.861 Q50.234,471.886 36.756,471.743 Q23.278,471.599 10.881,466.309 Q-1.516,461.019 -10.945,451.387 Q-20.374,441.755 -25.4,429.249 Q-30.425,416.742 -30.282,403.264 Q-29.313,312.158 -28.213,177.593 Q-26.59,-20.907 -23.855,-53.391 Q-22.443,-70.153 -19.608,-81.048 Q-9.606,-119.475 24.48,-132.862 Q51.596,-143.512 78.525,-131.715 Q89.854,-126.752 99.489,-117.938 Q104.732,-113.141 111.986,-104.343 Q114.502,-101.291 115.477,-100.21 Q124.504,-90.2 129.014,-77.498 Q133.523,-64.796 132.828,-51.336 Q132.133,-37.875 126.34,-25.704 Q120.547,-13.534 110.538,-4.507 Q110.12,-4.13 109.697,-3.761 Z"/>
  <path fill="rgb(0%, 96.078431%, 100%)" opacity="0.178" d="M151.237,371.793 Q158.002,374.285 168.254,377.816 Q176.233,380.563 178.53,381.519 Q180.699,382.422 181.819,383.225 Q186.272,386.419 183.533,390.674 Q181.855,393.28 175.142,394.118 Q172.072,394.502 161.853,395.366 Q116.548,399.195 73.913,405.678 Q69.114,406.408 68.384,401.609 Q68.019,399.209 69.037,397.827 Q70.054,396.444 72.454,396.079 Q115.408,389.548 161.035,385.691 Q161.232,385.674 161.263,385.671 Q153.431,382.949 147.88,380.903 Q145.602,380.064 144.883,378.505 Q144.164,376.947 145.003,374.669 Q146.682,370.114 151.237,371.793 Z"/>
  <path fill="rgb(20.392157%, 28.235294%, 39.215686%)" opacity="0.536" d="M127.08,5.533 Q152.461,5.986 193.725,6.024 Q249.633,6.076 267.712,8.074 Q296.248,11.226 308.022,23.282 Q319.826,35.369 321.851,63.579 Q323.131,81.42 320.856,136.303 Q319.365,172.297 318.779,194.007 Q318.639,199.172 313.474,199.033 Q310.891,198.963 309.635,197.637 Q308.378,196.31 308.448,193.728 Q309.036,171.942 310.531,135.875 Q312.781,81.576 311.543,64.319 Q309.789,39.883 300.629,30.503 Q291.438,21.092 266.578,18.346 Q249.059,16.41 193.715,16.359 Q152.364,16.32 126.896,15.866 Q121.73,15.773 121.822,10.607 Q121.868,8.024 123.183,6.755 Q124.497,5.487 127.08,5.533 Z"/>
  <path fill="rgb(81.176471%, 77.254902%, 78.823529%)" opacity="0.005" d="M351.728,204.115 Q355.234,202.936 359.809,204.945 Q361.683,205.768 362.846,206.826 Q365.456,209.199 363.982,211.772 Q360.926,217.111 328.115,205.68 Q325.295,204.697 326.278,201.877 Q326.769,200.467 327.72,200.007 Q328.67,199.548 330.08,200.039 Q341.943,204.173 349.645,206.155 Q349.882,204.735 351.728,204.115 Z"/>
</svg>

