<svg xmlns="http://www.w3.org/2000/svg" width="384" height="384" viewBox="0 0 384 384">
  <defs/>
  <path fill="rgb(60%, 100%, 100%)" opacity="0.014" d="M190.035,228.946 Q189.312,227.31 187.788,223.592 Q187.17,222.082 186.637,220.824 Q186.564,220.935 186.477,221.034 Q185.859,221.733 184.542,221.814 Q181.907,221.977 181.745,219.342 Q181.435,214.333 181.946,212.472 Q182.64,209.945 184.9,209.854 Q186.544,209.789 187.823,211.392 Q189.204,213.124 192.673,221.59 Q194.169,225.241 194.863,226.812 Q195.93,229.226 193.516,230.293 Q192.309,230.827 191.439,230.49 Q190.569,230.153 190.035,228.946 Z"/>
  <path fill="rgb(0%, 53.72549%, 100%)" opacity="0.316" d="M199.461,374.606 Q178.838,371.299 151.624,368.031 Q125.886,364.941 122.464,361.549 Q119.333,358.448 121.461,352.94 Q122.55,350.123 127.41,342.012 Q137.285,325.532 143.338,312.087 Q144.412,309.702 146.796,310.776 Q147.989,311.312 148.316,312.177 Q148.644,313.042 148.107,314.234 Q141.928,327.958 131.897,344.7 Q124.816,356.517 126.145,357.834 Q128.292,359.962 152.248,362.838 Q179.564,366.118 200.289,369.441 Q202.871,369.855 202.457,372.438 Q202.25,373.729 201.501,374.271 Q200.752,374.813 199.461,374.606 Z"/>
  <path fill="rgb(4.313725%, 0%, 0%)" opacity="0.622" d="M252.079,372.489 Q355.37,310.388 370.519,229.813 Q381.509,171.36 347.593,105.016 Q338.962,88.133 328.497,72.906 Q318.171,62.325 310.539,53.732 Q301.456,43.506 297.284,37.081 Q284.073,16.739 291.693,-4.785 Q296.159,-17.4 306.721,-25.609 Q316.486,-33.198 328.755,-34.827 Q340.17,-36.341 351.017,-32.265 Q357.065,-29.992 362.575,-26.002 Q374.587,-17.302 392.438,6.004 Q395.598,10.13 398.646,14.351 Q412.396,28.187 431.347,45.99 Q437.949,52.192 441.675,60.449 Q445.4,68.705 445.683,77.758 Q445.958,86.567 442.933,94.825 Q473.97,172.474 460.026,246.641 Q437.325,367.382 299.007,450.543 Q291.244,455.21 282.286,456.551 Q273.328,457.892 264.538,455.703 Q255.749,453.514 248.466,448.128 Q241.183,442.742 236.516,434.98 Q231.849,427.217 230.508,418.258 Q229.166,409.3 231.355,400.511 Q233.544,391.721 238.93,384.439 Q244.316,377.156 252.079,372.489 Z"/>
</svg>

