<svg xmlns="http://www.w3.org/2000/svg" width="384" height="384" viewBox="0 0 384 384">
  <defs/>
  <path fill="rgb(41.568627%, 64.313725%, 100%)" opacity="0.032" d="M43.772,346.215 Q42.865,346.21 41.871,346.208 Q5.05,346.116 -6.981,340.112 Q-9.127,339.041 -9.665,337.433 Q-10.202,335.825 -9.132,333.679 Q-6.99,329.387 -2.698,331.529 Q7.322,336.528 41.895,336.615 Q54.485,336.646 56.942,337.457 Q61.22,338.868 60.849,342.984 Q60.6,345.749 57.729,347.471 Q55.671,348.704 50.125,350.52 Q45.566,352.011 44.074,347.453 Q43.862,346.803 43.772,346.215 Z"/>
  <path fill="rgb(21.176471%, 17.647059%, 14.509804%)" opacity="0.732" d="M319.946,71.355 Q289.89,119.883 280.641,126.465 Q270.596,133.614 262.115,125.642 Q258.773,122.5 252.934,111.721 Q247.353,101.417 243.352,95.489 Q238.819,88.775 245.534,84.242 Q248.891,81.976 251.703,82.522 Q254.515,83.067 256.781,86.425 Q261.224,93.006 267.181,104.004 Q270.485,110.105 272.157,112.516 Q279.609,105.712 306.171,62.824 Q310.437,55.937 317.324,60.203 Q320.768,62.335 321.423,65.124 Q322.079,67.912 319.946,71.355 Z"/>
  <path fill="rgb(66.666667%, 93.333333%, 35.294118%)" opacity="0.009" d="M216.622,48.093 Q216.549,41.248 219.954,40.266 L220.065,40.263 Q220.384,39.225 219.928,35.571 Q219.822,34.723 220.193,34.246 Q220.565,33.768 221.413,33.662 Q223.11,33.45 223.322,35.147 Q224.251,42.586 220.902,43.552 Q219.997,43.813 220.042,48.056 Q220.061,49.766 218.35,49.784 Q217.495,49.794 217.063,49.371 Q216.631,48.948 216.622,48.093 Z"/>
  <path fill="rgb(0%, 60.392157%, 90.980392%)" opacity="0.287" d="M347.955,415.649 Q320.769,403.425 262.729,391.954 Q225.156,384.529 141.602,372.186 Q55.127,359.411 18.511,351.793 Q-52.847,336.949 -84.854,314.499 Q-96.291,306.477 -103.788,294.689 Q-111.284,282.9 -113.699,269.14 Q-116.114,255.38 -113.079,241.744 Q-110.045,228.107 -102.023,216.67 Q-94,205.232 -82.212,197.736 Q-70.424,190.239 -56.664,187.824 Q-42.904,185.409 -29.267,188.444 Q-15.63,191.479 -4.193,199.501 Q12.343,211.099 162.131,233.228 Q249.051,246.068 289.962,254.153 Q363.742,268.734 405.561,287.539 Q418.302,293.268 427.881,303.437 Q437.46,313.606 442.419,326.667 Q447.377,339.727 446.96,353.691 Q446.542,367.655 440.813,380.397 Q435.084,393.138 424.915,402.717 Q414.746,412.296 401.685,417.254 Q388.624,422.213 374.66,421.796 Q360.696,421.378 347.955,415.649 Z"/>
  <path fill="rgb(34.117647%, 31.372549%, 32.941176%)" opacity="0.61" d="M327.917,119.806 Q311.247,131.54 304.077,141.296 Q300.506,146.155 298.389,152.992 Q295.881,161.089 291.815,164.889 Q286.475,169.879 275.349,171.736 Q261.944,173.973 197.202,175.323 Q192.568,175.42 189.224,172.212 Q185.879,169.004 185.782,164.37 Q185.686,159.736 188.894,156.392 Q192.102,153.047 196.736,152.95 Q259.858,151.634 271.665,149.663 Q275.311,149.055 276.251,148.69 Q276.508,148.003 277.013,146.372 Q280.244,135.937 286.045,128.044 Q295.379,115.344 315.036,101.507 Q318.826,98.839 323.392,99.633 Q327.958,100.426 330.626,104.216 Q333.294,108.006 332.5,112.572 Q331.707,117.138 327.917,119.806 Z"/>
  <path fill="rgb(33.333333%, 30.980392%, 29.803922%)" opacity="0.354" d="M53.184,165.313 Q89.289,174.406 127.431,188.738 Q150.238,197.308 161.814,199.564 Q179.476,203.006 206.732,201.665 Q210.743,201.467 210.941,205.478 Q211.04,207.484 210.086,208.536 Q209.133,209.588 207.127,209.687 Q178.897,211.077 160.277,207.448 Q148.042,205.063 124.606,196.257 Q86.888,182.084 51.222,173.102 Q47.328,172.121 48.309,168.226 Q48.799,166.279 50.018,165.551 Q51.237,164.822 53.184,165.313 Z"/>
  <path fill="rgb(46.666667%, 43.921569%, 40.392157%)" opacity="0.807" d="M25.766,57.558 Q39.354,81.459 50.965,95.219 Q51.235,95.385 51.503,95.553 Q65.467,104.279 64.209,109.883 Q63.454,113.249 59.988,113.548 Q58.717,113.658 57.37,113.116 Q56.026,112.575 54.265,111.23 Q50.733,108.534 45.989,103.155 Q45.544,102.651 45.097,102.132 Q31.605,94.142 11.918,89.332 Q7.57,88.27 8.633,83.922 Q9.164,81.748 10.516,80.927 Q11.869,80.106 14.043,80.637 Q24.411,83.17 33.232,86.569 Q25.902,75.91 17.984,61.982 Q16.878,60.036 17.298,58.51 Q17.718,56.985 19.663,55.879 Q21.608,54.773 23.134,55.192 Q24.66,55.612 25.766,57.558 Z"/>
</svg>

