<svg xmlns="http://www.w3.org/2000/svg" width="384" height="384" viewBox="0 0 384 384">
  <defs/>
  <path fill="rgb(68.627451%, 60%, 52.54902%)" opacity="0.416" d="M337.257,207.738 Q305.793,212.061 276.384,218.61 Q264.985,221.148 262.686,220.24 Q259.894,219.135 259.677,216.183 Q259.571,214.728 260.35,213.081 Q260.902,211.915 263.037,208.762 Q266.73,203.309 268.984,199.222 Q269.966,197.441 271.349,197.041 Q272.731,196.642 274.512,197.624 Q278.075,199.59 276.11,203.153 Q274.079,206.834 271.027,211.455 Q272.571,211.121 274.615,210.666 Q304.353,204.045 336.149,199.676 Q338.165,199.399 339.311,200.268 Q340.458,201.138 340.734,203.153 Q341.288,207.184 337.257,207.738 Z"/>
  <path fill="rgb(3.529412%, 70.980392%, 76.470588%)" opacity="0.311" d="M283.774,335.108 Q284.717,339.218 280.492,340.364 Q267.712,343.83 258.684,343.005 Q248.035,342.032 247.363,335.735 Q246.618,328.747 257.831,327.223 Q266.729,326.013 280.473,328.882 Q284.926,329.812 283.997,334.266 Q283.903,334.714 283.774,335.108 Z"/>
  <path fill="rgb(0%, 65.882353%, 65.098039%)" opacity="0.467" d="M319.52,141.804 Q296.02,133.447 283.107,134.034 Q275.417,134.384 264.208,139.907 Q251.639,146.1 241.471,148.117 Q224.399,151.504 198.695,148.771 Q194.721,148.348 195.143,144.374 Q195.566,140.4 199.54,140.823 Q224.036,143.428 239.916,140.277 Q249.051,138.465 260.675,132.738 Q273.383,126.476 282.743,126.05 Q297.222,125.391 322.199,134.274 Q324.081,134.943 324.688,136.219 Q325.294,137.496 324.625,139.378 Q323.286,143.143 319.52,141.804 Z"/>
  <path fill="rgb(56.078431%, 40.392157%, 72.54902%)" opacity="0.034" d="M256.209,87.758 Q250.656,86.591 247.635,85.473 Q246.07,84.893 245.356,84.349 Q244.498,83.697 244.358,82.785 Q244.121,81.243 245.589,80.521 Q248.3,79.188 265.275,82.718 Q267.163,83.11 266.771,84.998 Q266.574,85.942 266.004,86.316 Q265.434,86.69 264.49,86.493 Q261.199,85.809 258.531,85.301 Q258.607,85.722 258.492,86.268 Q258.294,87.211 257.723,87.584 Q257.152,87.956 256.209,87.758 Z"/>
  <path fill="rgb(3.529412%, 70.196078%, 66.27451%)" opacity="0.079" d="M396.188,173.372 Q363.569,172.531 342.343,175.317 Q328.912,177.079 305.697,183.063 Q282.041,189.16 264.675,192.496 Q263.782,192.667 263.251,192.307 Q262.719,191.946 262.547,191.054 Q262.204,189.269 263.989,188.926 Q281.245,185.612 304.79,179.543 Q328.219,173.504 341.87,171.713 Q363.378,168.89 396.281,169.738 Q397.19,169.761 397.632,170.227 Q398.075,170.693 398.051,171.602 Q398.004,173.418 396.188,173.372 Z"/>
  <path fill="rgb(100%, 49.019608%, 23.529412%)" opacity="0.547" d="M349.278,401.357 Q338.075,400.248 325.394,399.641 Q313.585,399.076 308.677,397.146 Q303.973,395.296 293.904,387.399 Q289.398,383.865 286.463,381.618 Q282.576,378.643 281.931,373.791 Q281.286,368.939 284.261,365.053 Q287.236,361.166 292.088,360.521 Q296.94,359.876 300.826,362.851 Q303.872,365.182 308.489,368.804 Q315.838,374.568 317.325,375.152 Q318.607,375.656 326.524,376.035 Q339.804,376.671 351.605,377.839 Q356.476,378.321 359.579,382.106 Q362.682,385.891 362.2,390.761 Q361.718,395.632 357.933,398.735 Q354.148,401.839 349.278,401.357 Z"/>
  <path fill="rgb(14.901961%, 65.098039%, 62.745098%)" opacity="0.246" d="M278.194,149.186 Q269.318,154.385 265.042,155.024 Q263.396,155.27 262.143,154.824 Q258.65,153.583 259.326,149.971 Q259.741,147.753 262.581,145.797 Q274.22,137.78 296.556,138.579 Q298.532,138.65 299.484,139.673 Q300.437,140.697 300.366,142.673 Q300.225,146.625 296.273,146.483 Q287.028,146.152 280.032,147.412 Q279.525,148.406 278.194,149.186 Z"/>
  <path fill="rgb(40%, 24.705882%, 18.823529%)" opacity="0.858" d="M236.005,180.663 Q218.95,180.186 205.595,181.003 Q204.808,181.051 204.064,181.102 Q199.695,181.803 196.757,182.108 Q195.28,182.261 194.365,182.285 Q193.309,182.313 192.423,182.172 Q188.702,181.583 186.597,178.5 Q183.118,173.406 186.815,168.465 Q187.924,166.982 189.551,166.079 Q192.929,164.202 204.601,163.54 Q216.811,161.417 233.178,157.451 Q241.551,155.421 243.581,163.795 Q244.05,165.731 243.963,167.329 Q244.942,169.308 244.859,172.292 Q244.738,176.598 242.525,178.691 Q240.311,180.784 236.005,180.663 Z"/>
  <path fill="rgb(58.823529%, 46.27451%, 42.745098%)" opacity="0.772" d="M188.652,139.363 Q187.74,139.496 186.962,139.623 Q185.129,141.176 182.358,142.102 Q178.882,143.265 175.211,142.308 Q173.037,141.741 171.236,140.531 Q168.803,139.81 164.705,138.847 Q149.915,135.369 119.926,130.261 Q115.072,129.434 112.225,125.417 Q109.377,121.401 110.204,116.547 Q111.031,111.693 115.048,108.846 Q119.064,105.999 123.918,106.825 Q161.186,113.174 176.47,117.617 Q179.724,116.642 185.215,115.84 Q190.087,115.128 194.035,118.07 Q197.983,121.011 198.695,125.883 Q199.407,130.755 196.465,134.703 Q193.524,138.651 188.652,139.363 Z"/>
  <path fill="rgb(0%, 74.509804%, 96.470588%)" opacity="0.459" d="M255.181,343.67 Q205.473,336.005 185.237,329.709 Q172.674,325.799 167.332,320.17 Q165.218,317.942 159.981,316.891 Q150.004,314.886 118.854,312.998 Q114.126,312.711 114.413,307.983 Q114.699,303.255 119.427,303.542 Q151.229,305.47 161.847,307.603 Q170.024,309.245 174.203,313.649 Q177.846,317.487 188.052,320.663 Q207.614,326.75 256.624,334.307 Q261.306,335.029 260.584,339.71 Q259.862,344.391 255.181,343.67 Z"/>
  <path fill="rgb(0%, 69.803922%, 78.431373%)" opacity="0.596" d="M59.289,289.371 Q58.576,286.187 57.244,281.246 Q55.678,275.432 55.328,272.665 Q53.357,257.084 66.115,249.762 Q73.827,245.337 84.279,247.551 Q86.887,248.104 93.563,250.042 Q148.501,265.993 231.056,270.782 Q239.516,271.273 245.152,277.602 Q250.787,283.932 250.296,292.392 Q249.805,300.852 243.476,306.488 Q237.147,312.123 228.686,311.632 Q152.685,307.223 97.813,293.553 Q97.254,294.717 96.534,295.853 Q91.996,303.01 83.727,304.863 Q75.457,306.716 68.3,302.178 Q61.142,297.641 59.289,289.371 Z"/>
  <path fill="rgb(0%, 84.705882%, 70.196078%)" opacity="0.255" d="M391.227,330.454 Q386.945,331.223 382.3,332.003 Q393.25,337.526 402.949,343.975 Q411.36,349.568 405.767,357.98 Q400.174,366.392 391.762,360.798 Q373.928,348.94 351.132,340.453 Q346.558,338.75 345.033,338.005 Q342.42,336.73 340.83,334.949 Q338.195,331.998 338.12,328.113 Q338.032,323.574 341.329,320.382 Q344.407,317.402 359.148,315.204 Q375.049,312.833 387.656,310.569 Q397.599,308.784 399.384,318.727 Q401.169,328.669 391.227,330.454 Z"/>
  <path fill="rgb(23.529412%, 8.627451%, 3.529412%)" opacity="0.73" d="M180.141,204.146 Q174.572,203.681 165.78,202.971 Q146.985,201.452 141.605,200.572 Q136.121,199.675 123.46,196.028 Q97.367,188.51 65.835,180.587 Q63.06,179.889 62.02,178.153 Q60.981,176.416 61.679,173.64 Q63.074,168.088 68.625,169.483 Q100.348,177.454 126.63,185.026 Q138.638,188.486 143.453,189.274 Q148.372,190.078 166.702,191.559 Q175.502,192.27 181.094,192.737 Q186.798,193.213 186.322,198.918 Q185.845,204.622 180.141,204.146 Z"/>
  <path fill="rgb(4.313725%, 77.647059%, 98.039216%)" opacity="0.225" d="M201.458,128.678 Q233.594,134.298 247.92,130.693 Q250.638,130.009 251.689,129.427 Q251.612,129.34 251.521,129.242 Q245.506,122.74 225.105,119.072 Q199.603,114.488 167.19,118.769 Q164.253,119.157 162.59,117.883 Q160.927,116.608 160.539,113.671 Q159.763,107.796 165.638,107.02 Q199.882,102.496 227.202,107.408 Q251.511,111.778 260.221,121.194 Q266.325,127.793 262.765,134.482 Q259.879,139.905 250.812,142.187 Q234.038,146.407 199.417,140.353 Q193.579,139.332 194.6,133.495 Q195.621,127.658 201.458,128.678 Z"/>
  <path fill="rgb(47.058824%, 40.784314%, 38.823529%)" opacity="0.697" d="M72.244,134.854 Q79.304,134.174 85.195,133.47 Q72.726,131.978 55.567,130.606 Q50.665,130.213 48.41,127.566 Q46.155,124.919 46.547,120.016 Q47.331,110.212 57.136,110.996 Q97.443,114.221 113.858,118.312 Q123.105,120.616 126.987,124.043 Q131.767,128.263 131.137,134.191 Q130.617,139.097 126.369,142.507 Q116.608,150.343 74.131,154.435 Q69.235,154.907 66.552,152.695 Q63.868,150.483 63.397,145.588 Q62.453,135.797 72.244,134.854 Z"/>
  <path fill="rgb(0%, 70.980392%, 78.823529%)" opacity="0.752" d="M254.709,258.926 Q254.166,259.002 252.967,259.171 Q185.203,268.748 121.367,252.224 Q116.461,250.954 113.89,246.586 Q111.319,242.219 112.589,237.313 Q113.859,232.407 118.226,229.835 Q122.593,227.264 127.5,228.534 Q186.611,243.836 249.543,234.942 Q250.767,234.769 251.322,234.691 Q256.341,233.99 260.386,237.043 Q264.431,240.096 265.133,245.115 Q265.835,250.134 262.781,254.179 Q259.729,258.224 254.709,258.926 Z"/>
  <path fill="rgb(36.470588%, 42.745098%, 54.509804%)" opacity="0.426" d="M38,336.164 Q45.767,336.059 50.152,335.728 Q49.992,334.638 50.297,333.509 Q51.478,329.147 58.988,328.541 Q68.734,327.755 106.158,329.859 Q108.742,330.005 109.961,331.369 Q111.181,332.734 111.035,335.318 Q110.745,340.486 105.577,340.196 Q75.112,338.483 63.701,338.693 Q63.683,340.014 63.007,341.319 Q61.977,343.309 59.623,344.36 Q55.315,346.284 38.14,346.516 Q35.552,346.551 34.241,345.274 Q32.929,343.998 32.894,341.41 Q32.825,336.234 38,336.164 Z"/>
  <path fill="rgb(47.058824%, 36.862745%, 28.627451%)" opacity="0.714" d="M85.43,109.436 Q95.217,108.988 103.845,108.366 Q103.435,108.176 103.079,107.913 Q101.307,106.609 100.84,103.532 Q99.905,97.38 106.058,96.445 Q130.254,92.769 146.58,93.455 Q154.077,93.77 158.363,95.049 Q167.586,97.8 165.661,105.13 Q162.183,118.38 86,121.869 Q82.891,122.011 81.266,120.528 Q79.641,119.045 79.498,115.937 Q79.356,112.829 80.839,111.203 Q82.322,109.578 85.43,109.436 Z"/>
  <path fill="rgb(0%, 70.196078%, 70.980392%)" opacity="0.458" d="M250.484,152.256 Q259.455,151.73 273.789,150.964 Q303.628,149.37 319.117,147.63 Q340.812,145.192 388.527,137.392 Q395.813,136.201 401.806,140.511 Q407.8,144.82 408.991,152.105 Q410.182,159.391 405.872,165.384 Q401.563,171.378 394.277,172.569 Q345.68,180.513 323.097,183.05 Q306.571,184.907 275.69,186.557 Q261.448,187.318 252.57,187.838 Q245.201,188.27 239.685,183.365 Q234.168,178.459 233.736,171.09 Q233.304,163.72 238.21,158.204 Q243.115,152.688 250.484,152.256 Z"/>
  <path fill="rgb(38.823529%, 52.54902%, 82.745098%)" opacity="0.272" d="M185.499,81.14 Q162.35,80.991 154.462,80.834 Q149.992,80.744 149.158,80.613 Q148.468,80.505 147.915,80.176 Q145.159,78.54 146.767,75.773 Q147.363,74.748 148.491,74.345 Q148.95,74.181 149.661,74.118 Q150.343,74.057 151.95,73.995 Q162.29,73.596 237.452,72.575 Q240.674,72.531 240.718,75.753 Q240.74,77.364 239.945,78.181 Q239.151,78.997 237.54,79.019 Q207.908,79.421 188.372,79.727 Q188.191,80.084 187.921,80.35 Q187.11,81.151 185.499,81.14 Z"/>
  <path fill="rgb(11.372549%, 76.862745%, 78.039216%)" opacity="0.32" d="M343.356,327.735 Q355.66,326.767 365.501,326.947 Q366.379,325.811 367.652,326.662 Q367.922,326.842 368.191,327.02 Q375.568,327.284 381.458,328.241 Q393.593,330.212 394.99,334.146 Q395.504,335.594 394.529,336.768 Q393.832,337.606 392.46,338.016 Q390.125,338.713 386.294,338.152 Q377.456,336.857 367.171,330.261 Q356.87,329.956 343.613,330.999 Q341.981,331.128 341.852,329.496 Q341.724,327.863 343.356,327.735 Z M374.4,330.672 Q380.976,334.063 386.769,334.912 Q389.883,335.368 391.523,334.878 Q391.601,334.855 391.667,334.833 Q390.156,332.971 380.933,331.473 Q377.877,330.976 374.4,330.672 Z"/>
  <path fill="rgb(48.627451%, 47.058824%, 54.901961%)" opacity="0.59" d="M83.599,385.992 Q77.698,386.463 74.183,386.881 Q72.847,387.352 71.381,387.628 Q69.582,387.966 67.842,387.974 Q66.069,387.982 64.424,387.625 Q61.271,386.942 58.714,385.015 Q57.496,384.097 56.528,383.003 Q54.872,382.647 52.86,382.256 Q32.901,378.374 -12.629,373.119 Q-18.575,372.432 -22.293,367.743 Q-26.012,363.054 -25.325,357.109 Q-24.639,351.164 -19.95,347.445 Q-15.261,343.727 -9.316,344.413 Q37.322,349.796 58.376,353.891 Q67.292,355.625 71.906,357.219 Q72.804,357.529 73.638,357.873 Q76.945,357.535 81.3,357.188 Q87.265,356.711 91.82,360.593 Q96.375,364.475 96.852,370.44 Q97.328,376.406 93.446,380.961 Q89.564,385.516 83.599,385.992 Z"/>
  <path fill="rgb(67.843137%, 80.392157%, 94.901961%)" opacity="0.096" d="M93.625,15.256 Q78.236,19.388 71.494,24.415 Q69.963,25.557 68.945,25.285 Q67.836,24.989 67.219,23.148 Q67.125,22.867 67.07,22.709 Q66.494,21.045 68.158,20.469 Q68.991,20.181 69.551,20.453 Q69.912,20.628 70.16,21.036 Q77.494,15.94 92.711,11.854 Q93.562,11.625 94.101,11.936 Q94.64,12.248 94.869,13.098 Q95.326,14.799 93.625,15.256 Z"/>
  <path fill="rgb(45.490196%, 34.509804%, 30.588235%)" opacity="0.688" d="M93.204,137.962 Q76.686,139.324 63.272,139.164 Q73.574,144.625 85.449,152.228 Q89.104,154.568 86.764,158.223 Q85.594,160.05 84.095,160.379 Q82.597,160.708 80.769,159.538 Q54.208,142.531 36.215,136.763 Q31.935,135.391 32.926,131.437 Q33.925,127.45 38.373,128.302 Q58.337,132.128 92.491,129.312 Q96.816,128.955 97.173,133.28 Q97.351,135.443 96.359,136.613 Q95.367,137.783 93.204,137.962 Z"/>
  <path fill="rgb(32.156863%, 81.960784%, 81.568627%)" opacity="0.483" d="M402.513,147.174 Q402.465,146.915 402.415,146.69 Q398.609,146.823 386.399,149.869 Q359.618,156.551 340.75,157.505 Q307.413,159.19 273.29,148.022 Q268.896,146.584 266.806,142.46 Q264.716,138.336 266.154,133.942 Q267.592,129.548 271.716,127.458 Q275.839,125.368 280.233,126.806 Q310.422,136.686 339.623,135.21 Q356.322,134.366 380.995,128.21 Q398.491,123.844 405.327,124.476 Q421.286,125.953 424.463,143.108 Q425.306,147.654 422.686,151.464 Q420.067,155.274 415.521,156.116 Q410.975,156.958 407.165,154.339 Q403.355,151.72 402.513,147.174 Z"/>
  <path fill="rgb(48.235294%, 38.039216%, 31.372549%)" opacity="0.587" d="M262.628,377.052 Q296.493,373.723 302.278,367.385 Q302.135,366.611 302.193,365.89 Q302.514,361.875 306.426,361.557 Q311.017,361.183 311.675,366.197 Q311.719,366.534 311.73,366.871 Q311.975,367.223 312.293,367.643 Q314.974,371.19 311.427,373.871 Q309.125,375.611 307.188,374.728 Q296.914,382.616 263.497,385.901 Q259.073,386.336 258.638,381.912 Q258.203,377.487 262.628,377.052 Z"/>
  <path fill="rgb(18.039216%, 66.666667%, 65.882353%)" opacity="0.494" d="M285.977,332.475 Q293.68,333.851 308.24,330.34 Q324.041,326.53 334.305,327.094 Q351.615,328.044 371.955,339.004 Q374.873,340.576 373.301,343.494 Q371.729,346.413 368.81,344.84 Q349.773,334.582 333.942,333.713 Q324.65,333.203 309.794,336.785 Q293.883,340.622 284.812,339.002 Q281.549,338.419 282.131,335.156 Q282.714,331.892 285.977,332.475 Z"/>
  <path fill="rgb(37.647059%, 22.352941%, 18.431373%)" opacity="0.55" d="M0.058,57.585 Q5.017,58.877 13.417,61.039 Q39.302,67.7 42.224,70.783 Q45.864,74.623 44.305,79.565 Q43.215,83.022 39.86,84.843 Q38.016,85.844 34.811,86.461 Q32.006,87.001 22.374,88.146 Q-0.677,90.888 -17.563,93.932 Q-25.838,95.424 -27.33,87.148 Q-28.076,83.01 -26.38,80.569 Q-24.684,78.127 -20.547,77.381 Q-12.061,75.851 -2.104,74.4 Q-3.212,74.113 -4.183,73.86 Q-12.32,71.74 -10.2,63.603 Q-9.14,59.534 -6.575,58.03 Q-4.011,56.525 0.058,57.585 Z"/>
  <path fill="rgb(0%, 72.156863%, 75.686275%)" opacity="0.466" d="M262.7,212.961 Q288.026,213.679 308.453,208.769 Q320.643,205.838 340.599,197.654 Q372.021,184.767 394.935,183.325 Q400.044,183.003 402.76,185.397 Q405.475,187.791 405.796,192.9 Q406.439,203.118 396.221,203.761 Q376.671,204.991 348.369,216.599 Q326.958,225.38 313.239,228.678 Q290.166,234.225 262.12,233.43 Q251.886,233.139 252.176,222.905 Q252.321,217.788 254.952,215.302 Q257.583,212.816 262.7,212.961 Z"/>
  <path fill="rgb(0%, 80.784314%, 86.666667%)" opacity="0.317" d="M-8.177,209.344 Q16.326,207.964 35.447,210.957 Q47.165,212.792 66.997,218.633 Q91.441,225.832 109.331,228.548 Q139.969,233.2 183.925,232.439 Q191.17,232.314 191.295,239.558 Q191.358,243.18 189.578,245.023 Q187.798,246.865 184.176,246.928 Q139,247.71 107.156,242.875 Q88.292,240.011 62.903,232.533 Q43.984,226.962 33.205,225.274 Q15.605,222.518 -7.362,223.812 Q-10.979,224.016 -12.889,222.309 Q-14.8,220.603 -15.003,216.986 Q-15.411,209.752 -8.177,209.344 Z"/>
  <path fill="rgb(38.823529%, 52.156863%, 86.666667%)" opacity="0.438" d="M262.893,117.57 Q262.7,118.234 262.201,118.954 Q256.995,126.456 254.742,127.764 Q252.413,129.117 250.424,127.601 Q248.736,126.316 248.975,124.017 Q249.108,122.732 250.01,120.814 Q255.973,108.137 263.047,110.79 Q264.677,111.402 265.187,112.523 Q265.696,113.644 265.085,115.274 Q264.353,117.224 262.893,117.57 Z"/>
  <path fill="rgb(0%, 76.470588%, 83.529412%)" opacity="0.376" d="M186.797,198.224 Q220.186,190.774 243.27,189.304 Q257.318,188.409 277.097,189.826 Q297.745,191.306 312.917,189.844 Q338.78,187.351 381.053,176.226 Q385.501,175.055 389.474,177.373 Q393.447,179.69 394.618,184.139 Q395.789,188.587 393.471,192.56 Q391.153,196.533 386.705,197.704 Q342.697,209.286 315.048,211.951 Q298.019,213.592 275.509,211.979 Q257.23,210.669 244.682,211.468 Q223.329,212.828 191.633,219.901 Q187.144,220.902 183.261,218.436 Q179.378,215.97 178.377,211.481 Q177.375,206.991 179.841,203.109 Q182.307,199.226 186.797,198.224 Z"/>
  <path fill="rgb(36.078431%, 87.058824%, 88.235294%)" opacity="0.244" d="M326.116,178.505 Q339.074,176.242 349.885,174.399 Q357.915,173.031 359.284,181.061 Q359.969,185.076 358.303,187.426 Q356.638,189.776 352.623,190.46 Q334.922,193.477 311.445,197.624 Q303.048,199.107 300.76,199.497 Q298.909,199.812 298.148,199.919 Q297.071,200.071 296.253,200.037 Q291.414,199.833 289.273,195.505 Q286.513,189.926 291.171,185.794 Q291.993,185.065 292.98,184.578 Q293.669,184.238 294.472,184.008 Q295.795,183.629 316.678,179.246 Q319.291,178.698 320.901,178.36 Q323.978,177.714 326.116,178.505 Z"/>
  <path fill="rgb(87.45098%, 66.666667%, 49.411765%)" opacity="0.789" d="M128.692,77.487 Q135.304,78.599 143.484,79.928 Q151.747,81.27 156.094,81.982 Q159.398,82.523 160.78,84.446 Q162.161,86.368 161.62,89.672 Q160.537,96.28 153.929,95.198 Q149.59,94.487 141.337,93.147 Q103.455,86.993 97.523,85.106 Q89.195,82.455 91.171,75.712 Q92.566,70.954 99.562,70.172 Q105.25,69.535 122.123,69.726 Q125.47,69.764 127.125,71.457 Q128.78,73.15 128.743,76.498 Q128.737,77.012 128.692,77.487 Z"/>
  <path fill="rgb(43.921569%, 33.333333%, 29.411765%)" opacity="0.6" d="M200.179,136.433 Q216.587,145.936 217.69,158.172 Q219.121,174.035 198.477,181.332 Q168.764,191.833 85.493,186.131 Q80.279,185.774 76.845,181.834 Q73.411,177.895 73.768,172.681 Q74.125,167.467 78.064,164.033 Q82.004,160.598 87.217,160.955 Q161.628,166.051 187.633,158.328 Q187.58,158.298 187.532,158.27 Q183.01,155.651 181.664,150.601 Q180.318,145.551 182.937,141.028 Q185.556,136.506 190.606,135.16 Q195.656,133.814 200.179,136.433 Z"/>
  <path fill="rgb(0%, 64.705882%, 88.235294%)" opacity="0.166" d="M-16.265,167.403 Q55.381,182.032 70.173,182.194 Q66.386,179.302 57.841,174.296 Q54.756,172.489 56.563,169.404 Q58.371,166.319 61.456,168.126 Q74.776,175.929 77.993,179.652 Q81.914,184.19 78.213,187.457 Q76.135,189.292 70.833,189.345 Q56.177,189.493 -17.696,174.409 Q-21.199,173.694 -20.484,170.191 Q-20.126,168.439 -19.071,167.742 Q-18.017,167.045 -16.265,167.403 Z"/>
  <path fill="rgb(52.54902%, 19.607843%, 2.745098%)" opacity="0.616" d="M257.621,226.537 Q247.896,225.782 232.511,216.404 Q221.013,209.396 215.305,208.493 Q206.473,207.095 195.504,214.625 Q191.216,217.568 186.103,216.617 Q180.99,215.666 178.047,211.379 Q175.104,207.091 176.055,201.978 Q177.006,196.865 181.293,193.922 Q200.514,180.729 219.23,183.691 Q229.842,185.37 245.58,194.962 Q255.833,201.212 259.566,201.502 Q264.751,201.905 268.133,205.856 Q271.514,209.807 271.111,214.992 Q270.709,220.177 266.758,223.558 Q262.806,226.94 257.621,226.537 Z"/>
  <path fill="rgb(38.823529%, 81.568627%, 85.882353%)" opacity="0.907" d="M218.697,261.13 Q307.514,272.478 342.435,270.416 Q354.714,269.691 361.714,267.301 Q365.475,266.016 372.051,262.062 Q385.025,254.262 396.62,250.689 Q405.142,248.062 413.025,252.231 Q420.908,256.399 423.534,264.921 Q426.161,273.443 421.992,281.326 Q417.823,289.209 409.302,291.835 Q402.717,293.865 394.236,298.963 Q383.73,305.279 375.631,308.045 Q363.094,312.328 344.973,313.398 Q306.041,315.696 213.24,303.839 Q204.395,302.709 198.94,295.655 Q193.484,288.601 194.614,279.756 Q195.744,270.911 202.798,265.455 Q209.852,260 218.697,261.13 Z"/>
  <path fill="rgb(41.568627%, 30.196078%, 25.490196%)" opacity="0.636" d="M167.352,128.335 Q180.139,130.587 185.806,131.937 Q189.473,132.811 191.612,133.66 Q194.212,134.693 196.139,136.257 Q198.947,138.536 200.362,141.802 Q202.993,147.879 200.076,153.817 Q196.197,161.716 183.065,162.641 Q179.635,162.883 169.635,163.243 Q125.763,164.823 106.599,169.442 Q100.911,170.813 95.92,167.761 Q90.929,164.709 89.558,159.021 Q88.187,153.333 91.239,148.342 Q94.291,143.351 99.979,141.98 Q117.884,137.663 152.316,135.75 Q153.834,132.754 156.798,130.678 Q161.59,127.321 167.352,128.335 Z"/>
  <path fill="rgb(2.745098%, 67.058824%, 72.941176%)" opacity="0.662" d="M264.405,227.761 Q274.361,226.052 293.731,223.919 Q322.523,220.749 338.969,217.002 Q366.552,210.716 395.929,197.162 Q402.323,194.212 408.93,196.647 Q415.537,199.082 418.487,205.476 Q421.437,211.869 419.002,218.476 Q416.567,225.083 410.173,228.033 Q377.569,243.077 346.523,250.151 Q328.18,254.331 297.452,257.714 Q279.102,259.735 270.158,261.27 Q263.218,262.462 257.468,258.397 Q251.718,254.332 250.527,247.392 Q249.335,240.452 253.4,234.702 Q257.465,228.953 264.405,227.761 Z"/>
  <path fill="rgb(23.137255%, 31.764706%, 46.27451%)" opacity="0.784" d="M-1.87,157.664 Q46.387,160.889 66.533,159.776 Q70.766,158.702 73.216,158.942 Q73.86,159.006 74.378,159.233 Q75.511,159.732 76.009,160.848 Q76.856,162.744 75.443,164.275 Q74.689,165.092 73.233,165.393 Q71.847,165.679 68.902,165.887 Q68.224,165.935 67.511,165.978 Q67.418,166.003 67.323,166.029 Q66.158,166.347 65.32,166.092 Q44.517,167.026 -2.286,163.898 Q-3.845,163.794 -4.572,162.963 Q-5.299,162.131 -5.195,160.573 Q-4.987,157.456 -1.87,157.664 Z"/>
  <path fill="rgb(44.313725%, 37.254902%, 35.686275%)" opacity="0.774" d="M47.622,87.63 Q47.865,87.9 48.323,88.269 Q49.92,89.555 52.714,90.871 Q59.303,93.976 67.5,95.179 Q84.43,97.663 86.549,91.189 Q89.18,83.153 97.217,85.784 Q101.235,87.099 102.587,89.766 Q103.938,92.433 102.623,96.451 Q99.007,107.495 86.208,111.12 Q77.144,113.687 65.045,111.912 Q54.364,110.345 45.505,106.171 Q34.491,100.981 31.882,93.82 Q28.988,85.874 36.934,82.98 Q40.907,81.533 43.617,82.796 Q46.188,83.994 47.622,87.63 Z"/>
  <path fill="rgb(18.039216%, 74.901961%, 78.823529%)" opacity="0.5" d="M348.898,246.149 Q366.696,245.952 386.635,245.224 Q392.774,245 397.274,249.183 Q401.774,253.366 401.999,259.506 Q402.223,265.645 398.04,270.146 Q393.857,274.646 387.717,274.87 Q332.6,276.882 293.094,274.915 Q258.564,273.195 248.451,269.058 Q236.326,264.099 237.815,252.214 Q239.105,241.909 250.249,238.684 Q255.775,237.085 267.662,236.664 Q293.106,235.76 337.76,239.545 Q343.882,240.063 347.844,244.759 Q348.418,245.439 348.898,246.149 Z"/>
  <path fill="rgb(48.235294%, 39.215686%, 36.862745%)" opacity="0.775" d="M82.62,185.539 Q71.092,182.43 52.635,178.281 Q27.654,172.666 15.367,168.024 Q-4.022,160.699 -25.755,145.736 Q-31.775,141.592 -33.101,134.405 Q-34.427,127.217 -30.283,121.198 Q-26.139,115.178 -18.951,113.852 Q-11.764,112.526 -5.745,116.67 Q12.459,129.203 27.839,135.013 Q37.809,138.78 60.374,143.852 Q79.56,148.165 91.81,151.469 Q98.866,153.372 102.51,159.707 Q106.153,166.043 104.25,173.099 Q102.347,180.155 96.012,183.799 Q89.676,187.442 82.62,185.539 Z"/>
  <path fill="rgb(18.039216%, 47.058824%, 81.176471%)" opacity="0.554" d="M399.175,118.88 Q374.727,119.612 337.088,119.244 Q278.28,118.669 212.159,119.349 Q202.935,119.444 196.346,112.989 Q189.757,106.535 189.662,97.311 Q189.567,88.088 196.022,81.499 Q202.477,74.909 211.701,74.815 Q278.268,74.13 337.524,74.709 Q374.277,75.069 397.841,74.363 Q407.061,74.086 413.775,80.41 Q420.49,86.734 420.766,95.954 Q421.043,105.174 414.719,111.889 Q408.395,118.603 399.175,118.88 Z"/>
  <path fill="rgb(20.784314%, 50.196078%, 27.843137%)" opacity="0.23" d="M141.968,189.938 Q159.07,198.209 170.257,201.605 Q178.752,204.184 191.626,213.504 Q193.882,215.137 194.193,217.081 Q194.505,219.026 192.872,221.282 Q189.605,225.794 185.093,222.528 Q173.731,214.302 167.021,212.266 Q155.003,208.617 137.118,199.968 Q132.103,197.543 134.528,192.528 Q136.953,187.513 141.968,189.938 Z"/>
  <path fill="rgb(0%, 60%, 67.843137%)" opacity="0.226" d="M284.483,271.95 Q310.255,260.734 323.334,262.2 Q332.259,263.201 334.369,269.813 Q336.442,276.311 330.156,281.958 Q320.995,290.187 302.572,290.538 Q280.692,290.955 256.792,278.471 Q250.517,275.193 253.795,268.917 Q257.073,262.642 263.348,265.92 Q272.886,270.902 281.907,273.514 Q282.928,272.627 284.483,271.95 Z"/>
  <path fill="rgb(52.54902%, 47.058824%, 47.45098%)" opacity="0.92" d="M27.468,97.877 Q-8.205,97.264 -50.705,94.062 Q-53.338,93.864 -54.555,92.448 Q-55.772,91.033 -55.574,88.4 Q-55.177,83.135 -49.912,83.532 Q-7.717,86.711 27.649,87.318 Q32.929,87.409 32.838,92.688 Q32.792,95.328 31.45,96.625 Q30.107,97.922 27.468,97.877 Z"/>
  <path fill="rgb(34.901961%, 65.882353%, 78.823529%)" opacity="0.198" d="M71.836,340.719 Q91.662,324.398 110.69,305.109 Q122.76,292.874 129.542,288.471 Q139.223,282.186 157.666,276.68 Q160.79,275.748 162.819,276.843 Q164.848,277.939 165.781,281.064 Q167.646,287.314 161.397,289.179 Q144.752,294.148 136.645,299.411 Q131.051,303.043 119.976,314.27 Q100.473,334.04 80.125,350.789 Q77.608,352.862 75.313,352.639 Q73.018,352.417 70.945,349.899 Q66.8,344.864 71.836,340.719 Z"/>
  <path fill="rgb(58.039216%, 50.588235%, 47.45098%)" opacity="0.84" d="M68.573,113.465 Q42.96,134.519 25.444,133.52 Q22.855,133.372 20.475,132.854 Q13.564,135.96 6.311,133.46 Q-1.269,130.846 -4.78,123.638 Q-8.292,116.43 -5.679,108.85 Q-1.878,97.828 1.008,94.139 Q5.848,87.952 13.397,86.63 Q23.601,84.844 30.938,92.282 Q31.126,92.473 31.311,92.672 Q36.59,89.64 43.99,83.558 Q50.184,78.467 58.163,79.247 Q66.143,80.026 71.235,86.22 Q76.326,92.414 75.546,100.394 Q74.767,108.374 68.573,113.465 Z"/>
  <path fill="rgb(31.764706%, 22.352941%, 20.392157%)" opacity="0.725" d="M176.189,210.385 Q175.928,210.192 175.454,209.854 Q169.082,205.318 167.546,199.948 Q165.082,191.332 171.819,185.132 Q174.586,182.585 179.051,181.012 Q188.887,177.547 227.548,173.676 Q233.054,173.125 237.337,176.629 Q241.62,180.132 242.171,185.638 Q242.723,191.144 239.219,195.427 Q235.716,199.71 230.21,200.261 Q210.339,202.25 199.463,203.878 Q198.562,209.227 194.158,212.435 Q189.686,215.693 184.219,214.834 Q179.316,214.063 176.189,210.385 Z"/>
  <path fill="rgb(90.980392%, 63.921569%, 47.843137%)" opacity="0.489" d="M234.916,381.872 Q240.064,375.258 248.859,361.529 Q252.56,355.752 258.338,359.453 Q260.487,360.83 261.324,362.493 Q275.68,355.651 292.005,354.835 Q298.858,354.492 299.201,361.345 Q299.372,364.771 297.744,366.57 Q296.117,368.369 292.69,368.54 Q266.567,369.847 246.204,389.964 Q245.708,390.454 245.281,390.891 Q244.512,391.865 243.813,392.701 Q242.698,394.033 241.995,394.62 Q239.157,396.988 235.651,395.985 Q229.35,394.182 230.857,387.798 Q231.058,386.949 231.468,386.164 Q231.79,385.547 232.33,384.841 Q233.309,383.56 234.916,381.872 Z"/>
  <path fill="rgb(47.45098%, 72.156863%, 89.019608%)" opacity="0.09" d="M227.878,26.813 Q287.818,26.269 331.235,18.791 Q354.297,11.894 363.739,10.647 Q371.409,9.633 376.579,13.496 Q381.246,16.983 382.404,22.685 Q383.503,28.098 380.879,32.968 Q379.092,36.285 375.921,38.449 Q374.363,39.511 372.327,40.344 Q368.634,41.854 360.627,43.777 Q349.987,46.333 338.262,48.403 Q336.648,48.891 334.953,49.41 Q331.705,50.404 328.591,50.001 Q285.258,56.677 228.154,57.195 Q221.861,57.252 217.371,52.843 Q212.882,48.434 212.825,42.142 Q212.767,35.849 217.176,31.36 Q221.585,26.87 227.878,26.813 Z"/>
</svg>

