<svg xmlns="http://www.w3.org/2000/svg" width="384" height="384" viewBox="0 0 384 384">
  <defs/>
  <path fill="rgb(35.686275%, 30.588235%, 27.45098%)" opacity="0.889" d="M217.09,78.247 Q218.566,88.499 222.249,94.326 Q222.785,95.174 223.243,95.744 Q223.703,96.114 224.116,96.491 Q224.567,96.904 224.872,97.316 Q225.503,98.17 225.677,99.192 Q226.073,101.521 224.319,103.1 Q222.877,104.396 220.947,104.169 Q219.473,103.996 218.089,102.727 Q217.784,102.447 217.479,102.127 Q214.997,100.441 208.842,98.236 Q195.865,93.586 174.874,90.796 Q172.756,90.514 171.837,89.314 Q170.919,88.114 171.2,85.995 Q171.764,81.758 176.001,82.321 Q198.197,85.272 210.849,89.582 Q209.428,85.021 208.629,79.464 Q208.02,75.234 212.251,74.625 Q214.366,74.32 215.576,75.226 Q216.786,76.131 217.09,78.247 Z"/>
  <path fill="rgb(32.941176%, 35.686275%, 41.960784%)" opacity="0.446" d="M161.224,184.138 Q148.93,151.217 132.64,129.627 Q124.569,118.93 112.689,108.587 Q105.808,102.596 102.26,98.552 Q93.408,88.463 89.595,76.158 Q85.162,61.855 88.09,47.233 Q91.363,30.883 102.786,18.687 Q117.375,3.111 140.961,-0.274 Q144.939,-0.844 154.378,-1.66 Q237.666,-8.861 359.261,-44.361 Q370.258,-47.572 381.647,-46.33 Q393.036,-45.088 403.082,-39.582 Q413.129,-34.076 420.304,-25.144 Q427.479,-16.213 430.689,-5.216 Q433.9,5.782 432.658,17.17 Q431.416,28.559 425.91,38.606 Q420.404,48.652 411.473,55.827 Q402.541,63.002 391.544,66.213 Q314.345,88.752 249.996,100.941 Q260.607,121.003 269.135,143.839 Q273.143,154.571 272.739,166.02 Q272.335,177.47 267.58,187.893 Q262.825,198.316 254.443,206.126 Q246.062,213.936 235.329,217.944 Q224.597,221.952 213.148,221.548 Q201.698,221.143 191.275,216.389 Q180.852,211.634 173.042,203.252 Q165.232,194.87 161.224,184.138 Z"/>
  <path fill="rgb(93.72549%, 83.529412%, 72.941176%)" opacity="0.012" d="M257.063,223.754 Q255.953,223.566 254.463,223.414 Q244.202,222.365 236.198,225.44 Q235.274,225.795 234.636,225.51 Q233.997,225.226 233.642,224.303 Q232.933,222.457 234.779,221.747 Q243.664,218.334 254.865,219.479 Q258.62,219.863 260.502,220.527 Q261.113,220.742 261.476,221.021 Q262.251,221.616 262.305,222.555 Q262.385,223.941 261.099,224.527 Q260.377,224.856 258.688,224.696 Q257.449,224.578 257.063,223.754 Z"/>
  <path fill="rgb(72.156863%, 71.764706%, 74.901961%)" d="M185.374,222.622 Q205.737,198.674 217.757,199.42 Q227.554,200.029 227.923,211.694 Q228.166,219.376 223.288,232.462 Q222.215,235.34 220.239,236.243 Q218.264,237.146 215.385,236.073 Q209.629,233.927 211.775,228.171 Q215.809,217.349 215.642,212.083 Q215.638,211.948 215.633,211.826 Q209.381,213.356 194.735,230.581 Q190.756,235.261 186.075,231.282 Q183.735,229.292 183.56,227.127 Q183.385,224.962 185.374,222.622 Z"/>
</svg>

