<svg xmlns="http://www.w3.org/2000/svg" width="384" height="384" viewBox="0 0 384 384">
  <defs/>
  <path fill="rgb(0%, 77.647059%, 100%)" opacity="0.298" d="M124.809,179.082 Q111.587,205.078 99.578,226.942 Q101.525,229.03 99.466,231.389 Q97.826,233.267 95.475,236.083 Q94.088,237.744 93.668,238.204 Q93.114,238.813 92.668,239.119 Q90.441,240.644 88.411,238.938 Q86.738,237.531 87.282,235.359 Q87.498,234.497 90.647,228.826 Q103.884,204.984 118.652,175.95 Q120.218,172.871 123.297,174.437 Q126.375,176.003 124.809,179.082 Z"/>
  <path fill="rgb(0%, 30.980392%, 36.862745%)" opacity="0.52" d="M138.636,169.468 Q106.062,148.031 86.71,136.558 Q85.343,137.419 83.667,137.883 Q79.23,139.112 75.224,136.844 Q63.964,130.47 57.524,124.726 Q52.169,119.948 51.351,115.162 Q50.458,109.929 53.785,105.867 Q56.6,102.429 61.088,101.735 Q64.05,101.277 67.625,102.276 Q83.873,106.816 150.856,150.899 Q154.702,153.43 155.632,157.939 Q156.562,162.448 154.031,166.294 Q151.5,170.14 146.991,171.069 Q142.482,171.999 138.636,169.468 Z"/>
  <path fill="rgb(0%, 100%, 48.235294%)" opacity="0.441" d="M93.34,378.17 Q84.834,383.451 73.627,391.565 Q68.115,395.556 61.396,394.481 Q54.676,393.405 50.685,387.893 Q46.694,382.381 47.769,375.661 Q48.845,368.941 54.357,364.95 Q78.835,347.227 93.594,340.719 Q113.727,331.841 122.641,345.468 Q130.368,357.281 117.003,375.294 Q112.948,380.759 106.216,381.756 Q99.484,382.753 94.019,378.698 Q93.67,378.44 93.34,378.17 Z"/>
  <path fill="rgb(44.705882%, 100%, 100%)" opacity="0.18" d="M313.317,116.026 Q322.053,120.537 334.837,127.214 Q353.224,136.816 356.125,137.85 Q356.232,137.888 356.331,137.921 Q356.319,137.814 356.305,137.693 Q355.794,133.186 357.12,130.254 Q357.505,129.404 358.122,129.172 Q358.739,128.939 359.589,129.323 Q361.29,130.092 360.52,131.793 Q359.618,133.787 360.013,137.273 Q360.312,139.908 359.514,140.911 Q358.208,142.553 354.873,141.365 Q351.726,140.244 333.109,130.522 Q320.332,123.849 311.605,119.342 Q309.947,118.485 310.803,116.827 Q311.231,115.998 311.86,115.798 Q312.488,115.598 313.317,116.026 Z"/>
  <path fill="rgb(78.039216%, 33.72549%, 26.27451%)" opacity="0.914" d="M274.652,134.663 Q283.497,138.168 286.545,144.509 Q289.535,150.728 286.419,157.598 Q281.127,169.264 267.479,172.374 Q260.325,174.003 254.832,171.08 Q248.364,167.638 246.61,159.263 Q243.258,143.262 258.927,110.472 Q261.478,105.134 266.817,107.685 Q269.486,108.96 270.183,110.933 Q270.88,112.905 269.604,115.575 Q255.661,144.753 258.192,156.837 Q258.812,159.793 260.392,160.634 Q261.994,161.486 264.85,160.835 Q272.775,159.03 275.642,152.71 Q276.475,150.874 275.88,149.636 Q274.836,147.465 270.293,145.665 Q264.792,143.485 266.972,137.984 Q269.151,132.484 274.652,134.663 Z"/>
  <path fill="rgb(0%, 42.352941%, 9.803922%)" opacity="0.543" d="M133.705,132.089 Q132.594,130.643 131.68,129.562 Q131.351,131.041 130.925,133.153 Q127.522,150.043 122.414,159.847 Q113.141,177.648 94.649,186.466 Q89.659,188.846 87.28,183.856 Q86.09,181.361 86.742,179.519 Q87.395,177.677 89.89,176.487 Q105.044,169.26 112.609,154.738 Q116.992,146.324 120.087,130.969 Q122.462,119.183 126.267,116.926 Q132.956,112.958 142.475,125.356 Q145.841,129.741 141.456,133.108 Q137.072,136.474 133.705,132.089 Z"/>
  <path fill="rgb(100%, 25.882353%, 0%)" opacity="0.384" d="M212.56,361.063 Q223.278,371.095 236.554,382.399 Q243.513,388.323 244.244,397.434 Q244.976,406.544 239.051,413.503 Q233.126,420.462 224.015,421.194 Q214.905,421.925 207.946,416 Q136.591,355.249 132.761,327.217 Q131.561,318.441 135.321,311.069 Q140.137,301.628 150.417,298.388 Q160.402,295.241 173.4,299.827 Q189.752,305.596 214.702,324.185 Q222.031,329.645 223.353,338.689 Q224.674,347.732 219.214,355.062 Q216.372,358.876 212.56,361.063 Z"/>
  <path fill="rgb(52.156863%, 18.431373%, 34.901961%)" opacity="0.397" d="M240.686,240.753 Q250.894,256.685 258.719,268.036 Q260.561,268.3 262.299,270.265 Q273.478,282.902 279.103,291.214 Q281.746,295.121 282.343,297.14 Q282.879,298.955 282.428,300.638 Q281.115,305.54 276.06,304.946 Q274.029,304.708 271.966,302.943 Q260.893,293.468 231.064,246.919 Q227.982,242.108 232.792,239.025 Q237.603,235.943 240.686,240.753 Z"/>
  <path fill="rgb(100%, 10.588235%, 27.45098%)" opacity="0.385" d="M130.149,105.235 Q177.057,114.491 177.711,134.083 Q177.981,142.181 170.396,152.284 Q166.266,157.786 155.253,169.03 Q138.152,186.49 134.483,194.791 Q133.459,197.109 131.787,197.756 Q130.116,198.402 127.799,197.378 Q123.163,195.329 125.212,190.693 Q129.625,180.711 148.011,161.938 Q167.824,141.709 167.58,134.421 Q167.195,122.877 128.187,115.179 Q125.701,114.689 124.703,113.2 Q123.705,111.712 124.196,109.226 Q125.177,104.254 130.149,105.235 Z"/>
</svg>

