<svg xmlns="http://www.w3.org/2000/svg" width="384" height="384" viewBox="0 0 384 384">
  <defs/>
  <path fill="rgb(50.980392%, 47.45098%, 32.54902%)" opacity="0.41" d="M2.85,87.399 Q77.452,135.398 131.957,193.222 Q175.482,239.397 195.874,279.598 Q204.266,296.142 205.884,306.68 Q206.716,312.101 205.55,315.397 Q204.015,319.733 199.721,320.148 Q185.848,321.488 153.688,276.525 Q152.861,275.369 153.026,274.377 Q153.19,273.386 154.346,272.559 Q155.502,271.732 156.494,271.897 Q157.485,272.062 158.312,273.218 Q173.715,294.753 185.38,305.736 Q195.095,314.883 199.174,314.49 Q199.864,314.423 200.191,313.5 Q200.881,311.552 200.265,307.542 Q198.785,297.903 190.804,282.169 Q170.783,242.7 127.82,197.121 Q73.792,139.803 -0.225,92.179 Q-1.421,91.41 -1.634,90.428 Q-1.847,89.446 -1.078,88.251 Q0.46,85.861 2.85,87.399 Z"/>
  <path fill="rgb(19.607843%, 65.098039%, 43.137255%)" opacity="0.487" d="M316.487,400.659 Q285.724,365.107 271.605,345.574 Q264.623,335.915 262.032,330.542 Q260.409,327.176 260.241,324.821 Q259.82,318.905 265.288,317.694 Q276.665,315.173 354.242,388.318 Q358.111,391.966 354.463,395.836 Q350.815,399.705 346.946,396.057 Q309.949,361.174 288.149,343.326 Q281.618,337.979 276.77,334.43 Q278.308,336.693 280.224,339.344 Q294.071,358.499 324.529,393.7 Q328.009,397.722 323.987,401.201 Q319.966,404.681 316.487,400.659 Z"/>
  <path fill="rgb(4.705882%, 80.392157%, 98.039216%)" opacity="0.651" d="M184.892,219.733 Q209.036,222.739 217.851,206.718 Q225.12,193.507 222.191,169.779 Q220.323,154.647 216.13,143.652 Q215.301,144.294 213.885,144.493 Q211.937,144.768 210.826,143.931 Q209.715,143.095 209.44,141.147 Q207.976,130.762 211.468,128.594 Q214.963,126.422 218.142,130.249 Q219.415,131.782 220.819,134.67 Q227.476,148.37 230,168.815 Q233.241,195.069 224.745,210.51 Q213.359,231.207 183.92,227.541 Q180.016,227.055 180.502,223.151 Q180.745,221.199 181.843,220.344 Q182.94,219.49 184.892,219.733 Z"/>
  <path fill="rgb(0%, 100%, 77.647059%)" opacity="0.69" d="M176.869,36.171 Q191.23,36.779 193.453,45.03 Q195.338,52.023 188.189,58.242 Q180.902,64.581 174.315,61.245 Q166.821,57.449 168.11,42.469 Q168.39,39.208 171.652,39.488 Q172.772,39.585 173.475,40.033 Q173.443,39.69 173.46,39.303 Q173.598,36.032 176.869,36.171 Z M174.642,42.183 Q174.672,42.578 174.633,43.031 Q173.723,53.606 177.273,55.404 Q179.929,56.749 183.892,53.302 Q187.95,49.772 187.131,46.734 Q186.157,43.117 176.592,42.712 Q175.385,42.661 174.642,42.183 Z"/>
  <path fill="rgb(49.019608%, 46.27451%, 33.72549%)" opacity="0.468" d="M177.861,284.793 Q151.507,251.24 126.471,226.493 Q109.113,209.335 61.399,167.287 Q24.683,134.93 0.453,113.174 Q-1.744,111.201 0.228,109.004 Q1.215,107.905 2.257,107.849 Q3.3,107.793 4.399,108.779 Q28.612,130.52 65.304,162.856 Q113.145,205.016 130.623,222.293 Q155.922,247.3 182.506,281.145 Q184.33,283.467 182.008,285.291 Q179.685,287.115 177.861,284.793 Z"/>
  <path fill="rgb(38.431373%, 86.666667%, 37.647059%)" opacity="0.531" d="M399.393,360.892 Q402.955,363.487 404.431,365.037 Q406.341,367.043 407.381,369.481 Q409.484,374.41 407.829,379.488 Q405.494,386.657 398.238,388.742 Q393.586,390.079 388.66,388.215 Q386.538,387.412 378.49,383.275 Q374.269,381.106 370.773,379.371 Q366.714,382.925 361.223,382.811 Q355.361,382.69 351.302,378.46 Q340.232,366.922 340.897,358.417 Q341.491,350.823 347.915,346.787 Q351.66,344.434 356.344,344.371 Q359.949,344.322 364.608,345.791 Q372.062,348.142 391.431,358.098 Q391.506,358.137 391.558,358.163 Q395.782,358.261 399.393,360.892 Z"/>
  <path fill="rgb(0%, 90.588235%, 100%)" d="M144.806,119.226 Q147.676,120.027 147.219,123.351 Q145.445,136.27 137.537,136.974 Q131.118,137.546 126.401,130.204 Q121.591,122.718 125.163,117.209 Q129.376,110.711 142.224,114.49 Q145.883,115.566 144.807,119.224 L144.806,119.226 Z M131.562,121.358 Q130.669,122.737 132.818,126.081 Q135.04,129.539 136.861,129.377 Q138.716,129.212 139.663,122.313 Q139.706,122.002 139.771,121.719 Q132.658,119.669 131.562,121.358 Z"/>
  <path fill="rgb(60%, 54.117647%, 50.196078%)" opacity="0.389" d="M107.576,72.324 Q126.177,117.165 160.749,179.888 Q170.59,197.743 172.703,202.42 Q175.193,207.935 174.319,211.001 Q173.348,214.409 170.026,215.526 Q167.855,216.256 165.556,215.498 Q163.92,214.959 161.927,213.428 Q155.343,208.373 101.431,149.418 Q56.12,99.869 24.101,65.202 Q19.833,60.581 24.455,56.312 Q26.765,54.178 28.987,54.267 Q31.21,54.355 33.344,56.666 Q65.384,91.356 110.715,140.927 Q132.3,164.531 146.062,179.274 Q113.818,120.209 95.955,77.145 Q93.545,71.334 99.355,68.924 Q105.166,66.514 107.576,72.324 Z"/>
  <path fill="rgb(36.078431%, 100%, 100%)" d="M336.271,116.601 Q346.469,118.947 347.961,126.713 Q349.233,133.339 343.783,138.453 Q337.753,144.111 331.398,140.66 Q325.028,137.201 324.188,125.275 Q323.882,120.924 328.233,120.618 Q329.821,120.506 330.87,121.015 Q330.904,120.477 331.042,119.874 Q331.531,117.748 332.838,116.93 Q334.146,116.112 336.271,116.601 Z M332.886,124.611 Q332.888,124.637 332.89,124.663 Q333.394,131.818 335.561,132.994 Q336.379,133.439 337.814,132.091 Q339.76,130.266 339.394,128.358 Q338.974,126.174 334.315,125.102 Q333.506,124.916 332.886,124.611 Z"/>
  <path fill="rgb(89.803922%, 25.882353%, 75.294118%)" opacity="0.8" d="M220.179,395.59 Q223.117,369.506 223.265,352.763 Q222.656,353.991 222.033,355.288 Q210.323,379.644 196.325,422.017 Q194.385,427.89 188.86,430.672 Q183.334,433.453 177.46,431.513 Q171.586,429.573 168.805,424.047 Q166.023,418.522 167.964,412.648 Q199.483,317.231 221.932,307.473 Q229.171,304.327 236.247,306.808 Q242.681,309.064 246.676,315.332 Q251.039,322.179 252.398,335.014 Q254.657,356.35 249.86,398.933 Q249.168,405.081 244.331,408.938 Q239.495,412.795 233.348,412.102 Q227.201,411.41 223.344,406.574 Q219.486,401.737 220.179,395.59 Z"/>
  <path fill="rgb(0%, 71.372549%, 58.039216%)" opacity="0.331" d="M259.432,26.181 Q262.914,14.333 265.413,-3.95 Q265.73,-6.269 267.048,-7.27 Q268.366,-8.271 270.685,-7.954 Q275.323,-7.321 274.689,-2.683 Q269.288,36.844 258.51,49.635 Q253.102,56.053 246.635,55.711 Q240.936,55.41 236.707,50.098 Q233.275,45.786 232.187,39.993 Q230.996,33.652 233.328,28.89 Q236.349,22.72 243.565,22.051 Q250.177,21.439 259.432,26.181 Z M255.42,34.646 Q248.41,31.005 244.429,31.374 Q242.446,31.557 241.736,33.007 Q239.197,38.193 244.032,44.267 Q245.637,46.283 247.129,46.362 Q248.945,46.458 251.35,43.603 Q254.004,40.453 256.313,35.046 Q255.879,34.884 255.42,34.646 Z"/>
  <path fill="rgb(23.921569%, 56.862745%, 53.333333%)" opacity="0.707" d="M293.021,311.273 Q300.383,314.095 302.134,314.924 Q306.017,316.761 307.575,320.101 L307.71,319.989 Q310.051,322.055 316.37,326.081 Q335.511,338.277 385.78,364.912 Q392.841,368.653 389.1,375.714 Q385.359,382.775 378.298,379.034 Q327.463,352.1 307.782,339.559 Q297.958,333.299 294.495,329.02 Q292.595,328.226 287.3,326.196 Q279.838,323.335 282.699,315.874 Q285.559,308.413 293.021,311.273 Z M293.673,327.895 Q293.325,327.358 293.091,326.856 Q293.361,327.435 293.673,327.895 Z"/>
  <path fill="rgb(69.411765%, 67.843137%, 41.176471%)" opacity="0.123" d="M-16.678,309.498 Q-25.893,287.957 -24.356,276.346 Q-22.767,264.344 -10.767,261.784 Q-2.097,259.935 13.519,263.48 Q22.551,265.53 42.359,271.768 Q54.874,275.709 60.801,277.37 Q64.325,278.358 63.337,281.883 Q62.349,285.407 58.824,284.419 Q52.786,282.726 40.16,278.75 Q1.646,266.622 -9.24,268.944 Q-16.188,270.426 -17.099,277.307 Q-18.372,286.926 -9.947,306.619 Q-9.227,308.302 -9.709,309.503 Q-10.19,310.704 -11.873,311.424 Q-15.238,312.863 -16.678,309.498 Z"/>
  <path fill="rgb(70.588235%, 67.45098%, 56.862745%)" opacity="0.42" d="M2.639,122.841 Q40.871,156.528 43.272,168.519 Q43.759,170.95 42.614,172.64 Q41.311,174.566 38.662,174.671 Q35.645,174.791 30.061,172.071 Q18.973,166.67 -2.587,150.515 Q-5.086,148.642 -3.214,146.143 Q-2.278,144.894 -1.185,144.737 Q-0.092,144.58 1.158,145.517 Q22.242,161.315 32.796,166.456 Q35.15,167.603 36.636,168.084 Q32.338,157.334 -1.49,127.527 Q-2.662,126.494 -2.731,125.393 Q-2.801,124.291 -1.769,123.119 Q0.296,120.776 2.639,122.841 Z"/>
  <path fill="rgb(67.45098%, 63.921569%, 57.647059%)" opacity="0.469" d="M393.374,40.408 Q370.959,51.875 353.195,73.176 Q342.287,86.256 324.171,116.079 Q306.348,145.419 295.203,159.442 Q276.309,183.215 252.988,198.18 Q250.206,199.965 247.923,199.466 Q245.64,198.968 243.855,196.187 Q240.286,190.624 245.848,187.055 Q267.324,173.274 284.854,151.217 Q295.482,137.845 312.873,109.216 Q331.502,78.549 343.043,64.71 Q362.536,41.335 387.353,28.639 Q393.237,25.629 396.248,31.513 Q397.753,34.455 397.034,36.679 Q396.316,38.903 393.374,40.408 Z"/>
  <path fill="rgb(34.509804%, 47.843137%, 23.921569%)" opacity="0.222" d="M149.236,235.319 Q121.253,147.055 120.426,88.786 Q120.062,63.086 125.467,47.904 Q128.848,38.408 134.626,32.875 Q143.42,24.453 154.968,26.003 Q182.784,29.734 195.906,92.566 Q209.07,155.601 202.382,250.415 Q201.875,257.596 196.438,262.317 Q191.002,267.037 183.82,266.53 Q176.638,266.023 171.918,260.587 Q167.198,255.15 167.704,247.968 Q167.725,247.678 167.747,247.369 Q162.64,248.005 157.803,245.497 Q151.412,242.182 149.236,235.319 Z M169.824,181.426 Q169.213,134.799 161.877,99.673 Q158.983,85.817 155.435,75.884 Q155.089,81.462 155.186,88.294 Q155.733,126.887 169.824,181.426 Z"/>
  <path fill="rgb(67.45098%, 65.490196%, 56.862745%)" opacity="0.66" d="M187.502,242.341 Q178.336,259.945 173.913,266.515 Q167.723,275.71 161.912,277.388 Q155.781,279.158 148.04,273.665 Q143.696,270.582 132.105,259.584 Q107.364,236.109 86.156,220.151 Q48.387,191.73 -1.233,166.439 Q-2.925,165.577 -3.34,164.299 Q-3.755,163.022 -2.893,161.33 Q-1.167,157.945 2.217,159.67 Q52.427,185.261 90.725,214.079 Q112.28,230.299 137.335,254.072 Q155.519,271.326 159.804,270.088 Q165.317,268.496 180.763,238.831 Q181.641,237.147 182.922,236.743 Q184.203,236.339 185.887,237.216 Q189.257,238.971 187.502,242.341 Z"/>
  <path fill="rgb(52.156863%, 91.372549%, 33.72549%)" opacity="0.458" d="M222.018,215.377 Q221.174,264.462 218.78,290.581 Q216.092,319.907 209.999,336.213 Q203.316,354.096 189.67,364.85 Q181.841,371.02 162.89,379.893 Q127.53,396.45 100.83,418.111 Q94.728,423.061 86.913,422.246 Q79.097,421.432 74.147,415.33 Q69.197,409.228 70.011,401.413 Q70.826,393.597 76.928,388.647 Q107.236,364.061 146.802,345.534 Q161.793,338.515 166.187,335.052 Q171.494,330.87 174.46,322.933 Q182.599,301.153 184.084,214.725 Q184.219,206.869 189.87,201.409 Q195.52,195.949 203.377,196.084 Q211.233,196.219 216.693,201.87 Q222.153,207.52 222.018,215.377 Z"/>
  <path fill="rgb(16.470588%, 20.392157%, 0%)" opacity="0.285" d="M258.92,35.924 Q261.819,115.301 254.524,169.003 Q251.348,192.384 246.727,205.662 Q240.122,224.641 228.385,223.817 Q216.963,223.015 211.876,203.059 Q208.053,188.063 206.36,160.91 Q202.429,97.853 210.499,-9.437 Q210.866,-14.312 213.487,-16.566 Q216.108,-18.821 220.984,-18.454 Q230.734,-17.721 230.001,-7.97 Q222.032,97.979 225.879,159.693 Q227.224,181.257 229.867,194.041 Q232.839,183.344 235.145,166.371 Q242.214,114.334 239.376,36.638 Q239.198,31.752 241.552,29.22 Q243.906,26.688 248.792,26.509 Q258.564,26.152 258.92,35.924 Z"/>
  <path fill="rgb(59.607843%, 72.941176%, 49.019608%)" opacity="0.28" d="M349.953,109.728 Q350.593,122.661 347.403,140.798 Q347.337,141.174 347.277,141.524 Q354.857,135.901 372.307,121.583 Q383.037,112.778 389.524,107.491 Q391.661,105.749 393.601,105.947 Q395.54,106.144 397.282,108.282 Q400.767,112.556 396.492,116.04 Q390.021,121.314 379.303,130.109 Q351.173,153.19 346.188,155.252 Q342.294,156.863 339.274,155.333 Q335.85,153.598 335.421,149.208 Q335.173,146.667 336.541,138.888 Q339.516,121.97 338.937,110.273 Q338.801,107.519 340.11,106.073 Q341.419,104.628 344.173,104.492 Q349.681,104.22 349.953,109.728 Z"/>
  <path fill="rgb(59.607843%, 59.607843%, 49.803922%)" opacity="0.479" d="M185.481,183.404 Q192.767,100.078 185.193,38.832 Q179.75,-5.18 170.96,-17.791 Q169.134,-11.942 168.879,0.446 Q168.023,42.019 185.71,116.283 Q186.508,119.634 185.231,121.708 Q183.955,123.783 180.604,124.581 Q173.902,126.177 172.306,119.475 Q154.211,43.497 155.103,0.162 Q155.489,-18.574 159.778,-26.722 Q163.036,-32.913 168.618,-33.746 Q174.243,-34.586 179.081,-29.57 Q192.315,-15.849 198.868,37.141 Q206.621,99.83 199.207,184.604 Q198.607,191.467 191.744,190.867 Q184.88,190.267 185.481,183.404 Z"/>
  <path fill="rgb(34.509804%, 58.431373%, 19.215686%)" opacity="0.564" d="M-22.729,412.208 Q-5.466,397.392 50.094,370.312 Q106.202,342.966 130.413,325.851 Q170.287,297.665 181.137,265.616 Q183.665,258.147 191.134,260.676 Q194.868,261.94 196.103,264.439 Q197.339,266.939 196.074,270.673 Q183.579,307.582 139.516,338.729 Q114.261,356.582 57.004,384.488 Q3.266,410.679 -12.458,424.175 Q-18.442,429.31 -23.577,423.327 Q-26.145,420.335 -25.933,417.555 Q-25.721,414.776 -22.729,412.208 Z"/>
</svg>

