<svg xmlns="http://www.w3.org/2000/svg" width="384" height="384" viewBox="0 0 384 384">
  <defs/>
  <path fill="rgb(100%, 0%, 5.098039%)" opacity="0.591" d="M154.375,319.133 Q214.996,318.254 241.731,323.338 Q258.4,326.508 265.573,333.777 Q276.147,344.494 270.778,358.209 Q267.761,365.914 259.751,370.824 Q246.234,379.108 213.592,381.993 Q180.384,384.927 147.045,380.508 Q138.652,379.395 133.504,372.674 Q128.356,365.953 129.469,357.56 Q130.391,350.601 135.17,345.873 Q134.281,343.052 134.235,339.867 Q134.112,331.402 140.011,325.329 Q145.91,319.256 154.375,319.133 Z"/>
  <path fill="rgb(100%, 0%, 5.882353%)" opacity="0.521" d="M83.366,157.258 Q67.873,109.276 77.126,73.509 Q86.053,39.003 115.877,20.059 Q141.065,4.061 176.199,2.462 Q207.772,1.026 238.897,11.36 Q270.982,22.013 291.732,41.645 Q316.663,65.232 317.971,94.921 Q320.862,160.558 208.609,214.846 Q200.764,218.641 192.534,215.776 Q184.303,212.912 180.509,205.066 Q176.715,197.221 179.579,188.991 Q182.444,180.76 190.289,176.966 Q238.558,153.622 260.526,129.489 Q276.597,111.834 275.934,96.773 Q275.375,84.095 262.814,72.211 Q248.853,59.002 225.637,51.294 Q201.904,43.414 178.111,44.497 Q154.169,45.586 138.438,55.578 Q102.186,78.604 123.408,144.328 Q126.086,152.621 122.115,160.379 Q118.144,168.136 109.851,170.814 Q101.558,173.492 93.801,169.521 Q86.043,165.551 83.366,157.258 Z"/>
  <path fill="rgb(100%, 8.235294%, 26.666667%)" opacity="0.186" d="M137.583,365.161 Q139.564,374.178 132.048,391.582 Q127.566,401.961 126.263,407.53 Q124.2,416.344 126.076,424.402 Q127.909,432.272 120.039,434.104 Q112.17,435.936 110.338,428.067 Q107.606,416.335 110.528,403.848 Q112.16,396.877 117.213,385.175 Q122.662,372.556 121.8,368.628 Q120.066,360.736 127.958,359.003 Q131.904,358.136 134.31,359.676 Q136.716,361.215 137.583,365.161 Z"/>
  <path fill="rgb(97.254902%, 40%, 48.627451%)" opacity="0.978" d="M177.742,215.694 Q163.765,186.171 167.01,165.222 Q168.672,154.497 174.687,147.741 Q181.913,139.624 192.177,139.801 Q201.962,139.97 209.276,147.754 Q215.453,154.328 217.932,164.794 Q222.972,186.07 211.588,216.292 Q209.636,221.475 204.59,223.76 Q199.544,226.045 194.361,224.092 Q193.279,223.685 192.323,223.143 Q188.874,223.832 185.328,222.565 Q180.112,220.701 177.742,215.694 Z"/>
  <path fill="rgb(23.529412%, 56.078431%, 76.862745%)" opacity="0.006" d="M305.46,180.977 Q305.857,188.375 306.463,194.413 Q306.749,192.565 307.011,190.591 Q310.149,166.943 306.728,140.114 Q305.949,134.009 309.715,129.142 Q313.481,124.276 319.586,123.497 Q325.69,122.719 330.557,126.485 Q335.424,130.251 336.202,136.355 Q340.112,167.02 336.466,194.5 Q332.973,220.823 324.097,233.85 Q316.719,244.679 306.082,245.225 Q293.692,245.861 286.228,233.252 Q277.741,218.911 275.79,182.57 Q275.46,176.425 279.572,171.847 Q283.684,167.268 289.829,166.938 Q295.974,166.609 300.552,170.72 Q305.13,174.832 305.46,180.977 Z"/>
</svg>

