<svg xmlns="http://www.w3.org/2000/svg" width="384" height="384" viewBox="0 0 384 384">
  <defs/>
  <path fill="rgb(63.529412%, 14.509804%, 45.882353%)" opacity="0.239" d="M397.202,116.44 Q381.574,176.798 395.112,233.396 Q396.969,241.157 398.814,246.831 Q402.959,249.379 404.544,254.144 Q407.564,263.225 406.737,268.1 Q405.177,277.292 396.279,279.51 Q389.12,281.294 383.44,276.302 Q381.135,274.277 379.134,270.73 Q373.272,260.343 368.357,239.796 Q353.225,176.535 370.571,109.544 Q371.999,104.029 376.909,101.139 Q381.819,98.248 387.335,99.677 Q392.85,101.105 395.74,106.015 Q398.631,110.925 397.202,116.44 Z"/>
  <path fill="rgb(2.745098%, 69.411765%, 13.72549%)" opacity="0.623" d="M153.548,310.15 Q146.991,319.57 140.342,327.679 Q144.098,326.621 146.539,327.96 Q149.024,329.323 150.145,333.171 Q152.388,340.867 144.692,343.11 Q127.281,348.185 115.237,353.36 Q103.588,363.081 96.643,364.832 Q88.875,366.79 86.16,359.935 Q84.096,354.725 88.581,350.231 Q91.254,347.553 97.422,344.173 Q101.61,341.878 106.649,339.625 Q107.222,339.13 107.815,338.608 Q124.247,324.182 140.389,300.991 Q144.969,294.412 151.548,298.991 Q154.838,301.281 155.338,304.071 Q155.838,306.86 153.548,310.15 Z"/>
  <path fill="rgb(86.666667%, 58.039216%, 89.803922%)" opacity="0.157" d="M300.761,110.477 Q317.169,92.189 324.676,85.889 Q329.321,81.991 332.417,81.634 Q338.215,80.964 339.778,86.515 Q340.384,88.667 339.636,91.362 Q336.954,101.017 315.042,131.024 Q313.231,133.504 311.085,133.839 Q308.94,134.173 306.46,132.362 Q301.5,128.74 305.122,123.78 Q306.292,122.178 307.405,120.64 Q304.433,122.023 301.231,119.149 Q298.945,117.099 298.828,114.93 Q298.71,112.762 300.761,110.477 Z"/>
  <path fill="rgb(100%, 83.921569%, 100%)" opacity="0.077" d="M60.897,59.204 Q77.533,54.539 81.865,56.187 Q85.932,57.733 83.808,65.216 Q81.111,74.718 86.836,78.622 Q98.411,86.514 141.061,85.088 Q142.012,85.056 142.503,85.515 Q142.994,85.975 143.025,86.925 Q143.089,88.825 141.189,88.889 Q97.296,90.357 84.693,81.764 Q76.704,76.316 80.15,64.177 Q81.322,60.049 80.513,59.741 Q77.353,58.539 61.924,62.866 Q60.093,63.379 59.579,61.549 Q59.066,59.718 60.897,59.204 Z"/>
  <path fill="rgb(84.313725%, 8.235294%, 87.843137%)" opacity="0.318" d="M318.04,176.052 Q325.068,177.915 328.243,183.91 Q331.942,190.896 328.223,198.215 Q326.768,201.076 322.527,205.47 Q316.173,212.053 315.567,215.78 Q314.622,221.589 309.847,225.029 Q305.072,228.468 299.263,227.524 Q293.454,226.579 290.014,221.804 Q286.575,217.029 287.519,211.22 Q289.408,199.605 300.354,187.578 Q300.474,186.866 300.665,186.144 Q302.174,180.455 307.263,177.499 Q312.352,174.544 318.04,176.052 Z"/>
  <path fill="rgb(41.568627%, 76.078431%, 36.078431%)" opacity="0.838" d="M376.397,356.286 Q311.852,372.237 279.975,388.166 Q264.788,395.755 252.42,407.478 Q241.039,418.265 232.099,423.48 Q217.977,431.717 198.282,435.074 Q166.908,440.42 82.24,436.596 Q65.71,435.849 54.549,423.632 Q43.388,411.415 44.135,394.885 Q44.882,378.354 57.098,367.194 Q69.315,356.033 85.846,356.779 Q161.943,360.217 184.86,356.312 Q190.253,355.393 191.842,354.466 Q192.79,353.912 197.457,349.489 Q218.447,329.594 244.26,316.695 Q284.073,296.801 357.228,278.722 Q373.292,274.752 387.458,283.304 Q401.625,291.856 405.595,307.92 Q409.564,323.984 401.013,338.15 Q392.461,352.316 376.397,356.286 Z"/>
  <path fill="rgb(94.901961%, 26.27451%, 100%)" opacity="0.193" d="M278.368,146.827 Q294.285,169.524 297.866,180.984 Q316.915,180.559 370.465,201.398 Q373.135,202.437 373.951,204.292 Q374.766,206.146 373.727,208.816 Q371.649,214.157 366.309,212.079 Q326.496,196.586 306.569,193.173 Q300.311,192.102 297.025,192.392 Q296.76,192.415 296.55,192.443 Q295.424,193.336 293.78,193.597 Q290.323,194.148 288.251,191.327 Q286.992,189.614 287.153,187.49 Q287.202,186.846 287.387,186.239 Q287.297,185.664 287.05,184.813 Q284.255,175.183 268.984,153.408 Q267.339,151.062 267.689,149.066 Q268.04,147.071 270.386,145.425 Q275.077,142.135 278.368,146.827 Z M289.499,183.186 Q288.463,183.876 287.911,185.028 Q288.431,184.115 289.264,183.382 Q289.378,183.282 289.499,183.186 Z"/>
  <path fill="rgb(25.882353%, 100%, 18.823529%)" opacity="0.27" d="M8.917,95.221 Q10.142,105.539 16.222,122.061 Q24.089,143.442 22.146,155.636 Q19.137,174.524 -4.075,193.468 Q-8.308,196.922 -13.743,196.371 Q-19.178,195.821 -22.632,191.589 Q-26.086,187.356 -25.535,181.921 Q-24.985,176.486 -20.753,173.032 Q-5.33,160.445 -3.902,151.486 Q-3.043,146.09 -8.533,131.17 Q-15.684,111.733 -17.276,98.333 Q-17.92,92.909 -14.54,88.617 Q-11.16,84.326 -5.736,83.681 Q-0.311,83.037 3.981,86.417 Q8.272,89.797 8.917,95.221 Z"/>
  <path fill="rgb(54.509804%, 44.313725%, 47.45098%)" opacity="0.872" d="M85.095,362.842 Q87.052,340.047 85.848,303.832 Q85.206,284.545 85.922,279.003 Q86.626,273.553 88.944,271.203 Q92.603,267.493 97.942,270.428 Q99.812,271.456 100.234,272.905 Q100.655,274.353 99.627,276.224 Q97.807,279.535 94.666,278.303 Q94.53,278.993 94.388,280.096 Q93.761,284.953 94.379,303.548 Q95.6,340.271 93.6,363.572 Q93.235,367.824 88.983,367.459 Q86.857,367.277 85.885,366.123 Q84.913,364.968 85.095,362.842 Z"/>
  <path fill="rgb(28.627451%, 100%, 20%)" opacity="0.183" d="M249.858,76.575 Q239.959,73.053 225.907,74.288 Q222.566,74.581 220.823,74.554 Q214.371,74.454 209.048,71.317 Q197.71,64.636 197.775,51.495 Q197.814,43.478 202.872,37.188 Q206.123,33.145 216.271,27.604 Q239.328,15.014 265.118,-1.09 Q273.111,-6.082 282.293,-3.959 Q291.474,-1.836 296.465,6.157 Q301.457,14.15 299.334,23.332 Q297.211,32.513 289.218,37.504 Q283.378,41.151 277.664,44.63 Q277.853,44.998 278.033,45.377 Q282.078,53.889 278.919,62.767 Q275.76,71.645 267.248,75.69 Q258.736,79.734 249.858,76.575 Z"/>
  <path fill="rgb(100%, 86.666667%, 49.803922%)" d="M356.51,302.091 Q358.726,303.384 359.177,303.154 Q359.376,303.053 359.49,301.453 Q359.909,295.566 355.605,285.807 Q351.16,275.729 346.091,272.062 Q344.08,270.608 342.704,270.902 Q341.035,271.258 339.366,274.199 Q337.768,277.014 334.953,275.417 Q333.546,274.618 333.241,273.515 Q332.937,272.412 333.736,271.004 Q336.84,265.535 341.353,264.571 Q345.543,263.677 349.885,266.817 Q356.375,271.512 361.527,283.194 Q366.48,294.424 365.947,301.913 Q365.574,307.161 362.115,308.923 Q358.516,310.755 353.248,307.683 Q350.452,306.052 352.083,303.256 Q353.714,300.46 356.51,302.091 Z"/>
  <path fill="rgb(100%, 57.254902%, 100%)" d="M236.148,354.476 Q235.461,356.061 234.236,357.513 Q229.312,363.349 214.708,362.735 Q209.841,362.531 207.509,359.995 Q205.177,357.459 205.382,352.591 Q205.782,343.071 215.1,343.252 Q215.265,336.966 222.229,334.332 Q227.067,332.502 239.952,335.363 Q249.464,337.475 247.352,346.987 Q245.287,356.287 236.148,354.476 Z"/>
  <path fill="rgb(16.078431%, 92.156863%, 32.941176%)" opacity="0.193" d="M265.81,104.367 Q249.166,119.692 240.583,146.554 Q237.995,154.655 236.127,157.217 Q232.97,161.548 228.057,161.624 Q224.01,161.686 220.305,158.482 Q215.437,154.274 194.82,120.88 Q190.954,114.618 188.809,111.15 Q184.701,104.513 191.338,100.406 Q194.656,98.353 197.342,98.985 Q200.029,99.617 202.082,102.936 Q204.238,106.42 208.103,112.679 Q220.312,132.455 226.036,140.808 Q235.873,110.712 255.237,92.883 Q260.979,87.597 266.265,93.338 Q271.552,99.08 265.81,104.367 Z"/>
  <path fill="rgb(86.27451%, 58.039216%, 87.45098%)" opacity="0.347" d="M387.799,82.994 Q413.45,133.921 403.6,157.126 Q400.078,165.424 392.742,169.236 Q384.853,173.335 376.093,170.698 Q363.612,166.94 357.27,152.521 Q354.567,146.376 357.001,140.12 Q359.435,133.864 365.58,131.161 Q368.705,129.786 371.858,129.74 Q368.253,116.245 358.85,97.576 Q355.83,91.58 357.934,85.206 Q360.038,78.831 366.033,75.811 Q372.029,72.791 378.404,74.895 Q384.779,76.999 387.799,82.994 Z"/>
  <path fill="rgb(40.784314%, 88.627451%, 36.862745%)" opacity="0.311" d="M312.128,163.505 Q338.158,160.015 344.288,152.049 Q345.119,150.968 345.799,150.246 Q347.768,148.154 350.249,146.819 Q360.016,141.566 368.769,148.348 Q375.315,153.419 375.455,162.723 Q375.566,170.104 378.792,182.119 Q380.615,188.908 377.103,194.997 Q373.592,201.086 366.803,202.909 Q360.014,204.732 353.925,201.221 Q347.836,197.709 346.013,190.92 Q345.914,190.553 345.818,190.188 Q333.476,194.887 316.638,197.144 Q309.671,198.078 304.084,193.812 Q298.497,189.546 297.563,182.579 Q296.629,175.612 300.895,170.025 Q305.161,164.439 312.128,163.505 Z"/>
  <path fill="rgb(52.941176%, 90.588235%, 34.509804%)" opacity="0.664" d="M180.025,322.949 Q189.416,310.03 186.855,299.582 Q186.765,299.214 186.664,298.853 Q185.892,302.429 184.023,305.894 Q178.916,315.359 168.613,318.441 Q158.309,321.523 148.844,316.417 Q139.379,311.311 136.297,301.008 Q130.805,282.648 133.134,268.267 Q136.188,249.411 150.87,239.691 Q163.769,231.151 180.539,233.379 Q193.102,235.048 205.023,242.584 Q230.258,258.536 237.289,287.219 Q245.587,321.069 222.03,353.48 Q215.706,362.18 205.084,363.86 Q194.461,365.54 185.762,359.217 Q177.063,352.894 175.382,342.271 Q173.702,331.649 180.025,322.949 Z"/>
  <path fill="rgb(51.372549%, 81.176471%, 46.27451%)" opacity="0.92" d="M410.243,275.59 Q396.684,353.406 382.16,389.02 Q374.988,406.606 366.789,415.069 Q360.036,422.04 351.725,424.277 Q339.715,427.511 329.305,420.796 Q317.861,413.413 314.71,397.252 Q312.703,386.955 314.504,375.945 Q316.666,362.729 323.697,353.457 Q333.514,340.512 348.623,338.964 Q356.101,310.556 363.609,267.465 Q365.292,257.807 373.311,252.167 Q381.33,246.528 390.988,248.211 Q400.647,249.893 406.286,257.913 Q411.925,265.932 410.243,275.59 Z"/>
  <path fill="rgb(42.352941%, 100%, 38.039216%)" opacity="0.286" d="M173.087,96.201 Q201.284,74.922 231.509,73.74 Q258.431,72.687 277.744,86.866 Q287.612,94.111 292.422,103.695 Q299.222,117.243 294.256,130.419 Q284.945,155.119 248.132,153.331 Q238.866,152.881 232.632,146.01 Q226.399,139.14 226.849,129.874 Q227.154,123.592 230.41,118.704 Q215.57,120.258 200.069,131.955 Q192.664,137.543 183.477,136.259 Q174.289,134.974 168.701,127.569 Q163.113,120.164 164.398,110.977 Q165.682,101.789 173.087,96.201 Z"/>
  <path fill="rgb(87.45098%, 69.019608%, 100%)" opacity="0.109" d="M150.72,104.289 Q168.075,126.436 175.686,148.666 Q177.425,147.406 178.519,146.621 Q186.445,140.938 192.129,148.863 Q197.812,156.789 189.887,162.472 Q188.6,163.395 186.37,165.013 Q175.884,172.619 170.931,172.429 Q163.995,172.163 160.709,165.389 Q159.861,163.641 158.616,159.354 Q152.443,138.112 135.366,116.32 Q129.351,108.644 137.027,102.628 Q144.704,96.612 150.72,104.289 Z"/>
  <path fill="rgb(100%, 74.901961%, 100%)" opacity="0.071" d="M147.917,47.517 Q124.176,44.67 111.892,41.265 Q105.221,39.416 101.891,37.313 Q94.487,32.638 97.964,26.022 Q103.282,15.905 168.935,12.421 Q172.017,12.257 173.64,13.716 Q175.264,15.176 175.427,18.259 Q175.754,24.424 169.589,24.751 Q138.759,26.388 122.077,29.114 Q119.55,29.527 117.422,29.953 Q128.71,32.777 149.387,35.257 Q155.518,35.992 154.783,42.122 Q154.415,45.187 152.699,46.536 Q150.982,47.884 147.917,47.517 Z"/>
  <path fill="rgb(52.941176%, 81.568627%, 47.058824%)" opacity="0.946" d="M-7.044,371.847 Q15.749,366.628 54.321,357.75 Q107.7,345.465 115.702,343.767 Q121.663,342.502 124.775,343.251 Q127.481,343.902 129.701,345.576 Q135.469,349.927 134.988,357.135 Q134.558,363.568 129.25,367.242 Q127.958,368.136 126.455,368.729 Q125.832,368.974 125.011,369.226 Q124.15,369.49 122.526,369.932 Q116.803,371.49 97.689,376.311 Q94.715,377.061 91.931,376.524 Q78.904,379.505 60.313,383.784 Q21.715,392.667 -1.081,397.887 Q-6.474,399.122 -11.161,396.182 Q-15.848,393.242 -17.083,387.849 Q-18.318,382.456 -15.377,377.769 Q-12.437,373.082 -7.044,371.847 Z"/>
  <path fill="rgb(100%, 53.333333%, 93.72549%)" opacity="0.879" d="M220.421,373.253 Q216.46,365.383 215.573,361.013 Q214.817,357.292 215.827,354.384 Q217.647,349.145 223.113,348.171 Q228.227,347.26 240.491,354.751 Q245.51,357.817 248.363,359.419 Q247.394,354.81 244.609,347.327 Q241.798,339.772 249.353,336.961 Q256.908,334.149 259.719,341.705 Q264.762,355.256 264.991,362.681 Q265.36,374.64 255.693,376.876 Q249.397,378.332 236.023,370.821 Q235.796,374.539 231.245,376.829 Q224.045,380.454 220.421,373.253 Z"/>
  <path fill="rgb(95.294118%, 46.27451%, 100%)" opacity="0.054" d="M174.076,14.699 Q145.985,16.46 117.467,20.085 Q113.387,20.603 112.171,20.73 Q110.987,20.854 110.28,20.87 Q109.287,20.891 108.42,20.732 Q106.632,20.403 105.185,19.341 Q100.336,15.781 102.59,10.207 Q104.074,6.536 115.021,3.322 Q127.215,-0.259 137.04,-3.331 Q144.22,-5.577 146.583,1.38 Q159.892,0.146 173.112,-0.683 Q180.802,-1.165 181.285,6.526 Q181.526,10.371 179.723,12.414 Q177.921,14.458 174.076,14.699 Z"/>
  <path fill="rgb(40%, 72.941176%, 20.784314%)" opacity="0.279" d="M309.959,-0.874 Q298.05,30.5 295.923,66.169 Q294.627,87.889 297.241,131.252 Q299.155,163.006 299.219,179.758 Q299.239,184.837 294.16,184.856 Q291.621,184.866 290.346,183.601 Q289.072,182.336 289.062,179.797 Q288.999,163.332 287.102,131.863 Q284.452,87.893 285.784,65.564 Q288.004,28.347 300.463,-4.478 Q302.265,-9.226 307.013,-7.424 Q309.387,-6.523 310.124,-4.885 Q310.86,-3.248 309.959,-0.874 Z"/>
  <path fill="rgb(100%, 72.54902%, 100%)" opacity="0.149" d="M79.82,108.429 Q125.613,97.501 152.187,85.346 Q159.391,82.051 163.417,82.865 Q174.064,85.016 172.116,97.72 Q169.362,115.675 187.833,143.567 Q193.762,152.52 184.808,158.45 Q180.331,161.414 176.611,160.658 Q172.89,159.902 169.925,155.425 Q153.144,130.084 150.706,109.329 Q124.379,119.877 84.805,129.321 Q79.583,130.567 76.348,128.579 Q73.113,126.591 71.867,121.368 Q69.374,110.922 79.82,108.429 Z"/>
  <path fill="rgb(50.588235%, 80.784314%, 46.27451%)" d="M288.174,365.242 Q306.545,365.24 322.439,364.747 Q322.079,363.039 322.131,361.174 Q322.298,355.123 326.695,350.963 Q331.092,346.803 337.143,346.97 Q373.681,347.983 389.989,351.256 Q401.403,353.548 406.107,358.612 Q409.884,362.679 410.355,368.075 Q410.865,373.919 407.356,378.74 Q404.403,382.799 398.835,385.175 Q377.087,394.457 288.178,394.469 Q282.125,394.47 277.844,390.19 Q273.563,385.911 273.562,379.857 Q273.562,373.804 277.841,369.524 Q282.121,365.243 288.174,365.242 Z"/>
  <path fill="rgb(90.588235%, 95.294118%, 21.176471%)" opacity="0.453" d="M129.514,324.971 Q144.057,315.951 162.705,304.071 Q182.481,291.473 188.566,288.754 Q197.001,284.985 210.14,284.283 Q221.883,283.655 233.882,281.87 Q243.314,280.467 250.976,286.144 Q258.637,291.821 260.04,301.253 Q261.444,310.685 255.766,318.347 Q250.089,326.008 240.657,327.412 Q226.51,329.516 212.599,330.26 Q207.987,330.507 207.348,330.792 Q204.359,332.127 187.444,342.904 Q168.56,354.934 153.783,364.099 Q145.679,369.125 136.395,366.949 Q127.111,364.773 122.085,356.669 Q117.058,348.566 119.234,339.282 Q121.411,329.997 129.514,324.971 Z"/>
  <path fill="rgb(100%, 80%, 100%)" opacity="0.082" d="M212.891,49.047 Q197.01,49.842 176.659,49.312 Q162.158,48.935 161.613,49.713 Q160.96,50.646 165.672,65.436 Q167.118,69.976 167.929,72.585 Q169.255,76.846 164.993,78.172 Q162.862,78.834 161.466,78.1 Q160.069,77.366 159.407,75.235 Q158.605,72.659 157.168,68.146 Q153.958,58.071 153.254,54.686 Q151.876,48.061 154.301,44.595 Q156.813,41.006 163.469,40.419 Q166.779,40.127 176.891,40.39 Q196.903,40.911 212.445,40.133 Q216.902,39.91 217.125,44.367 Q217.237,46.595 216.178,47.765 Q215.12,48.935 212.891,49.047 Z"/>
  <path fill="rgb(0%, 100%, 100%)" opacity="0.858" d="M164.682,214.499 Q147.237,236.398 140.558,239.151 Q132.707,242.387 127.916,235.429 Q126.365,233.176 124.49,227.253 Q121.224,216.933 117.015,212.353 Q112.103,207.009 117.448,202.097 Q120.12,199.641 122.684,199.749 Q125.248,199.857 127.704,202.53 Q134.093,209.481 138.331,222.872 Q138.351,222.935 138.372,223 Q143.143,218.237 153.326,205.454 Q157.849,199.776 163.527,204.299 Q169.204,208.822 164.682,214.499 Z"/>
  <path fill="rgb(59.607843%, 26.27451%, 43.137255%)" opacity="0.405" d="M109.045,322.744 Q115.055,235.563 137.105,209.652 Q148.423,196.351 162.975,198.081 Q174.166,199.411 182.417,209.045 Q185.594,212.754 185.217,217.624 Q184.84,222.493 181.131,225.67 Q177.421,228.847 172.552,228.471 Q167.682,228.094 164.505,224.385 Q162.242,221.742 160.191,221.498 Q158.191,221.261 155.064,224.935 Q138.048,244.932 132.572,324.366 Q132.236,329.238 128.553,332.446 Q124.87,335.654 119.998,335.318 Q115.125,334.982 111.917,331.299 Q108.709,327.616 109.045,322.744 Z"/>
  <path fill="rgb(99.607843%, 76.470588%, 100%)" opacity="0.086" d="M129.382,67.356 Q91.099,68.362 63.859,71.125 Q59.049,71.613 58.201,71.386 Q57.024,71.071 56.43,70.046 Q55.501,68.443 56.608,66.934 Q57.019,66.373 57.783,65.941 Q58.199,65.706 59.568,65.072 Q65.893,62.141 70.3,59.06 Q72.581,57.465 74.175,59.746 Q75.769,62.026 73.489,63.62 Q72.642,64.212 71.735,64.797 Q96.488,62.653 129.236,61.793 Q130.626,61.756 131.34,62.433 Q132.053,63.11 132.09,64.501 Q132.163,67.282 129.382,67.356 Z"/>
  <path fill="rgb(24.705882%, 84.313725%, 7.058824%)" opacity="0.293" d="M237.312,213.125 Q231.26,201.259 228.145,193.252 Q219.027,169.816 232.715,155.104 Q243.642,143.36 259.543,145.534 Q267.054,146.562 273.299,150.961 Q277.291,153.774 280.461,157.848 Q282.824,160.884 285.108,165.152 Q288.691,171.843 292.062,181.181 Q300.724,205.178 303.219,232.464 Q306.586,269.292 297.514,304.122 Q294.303,316.447 283.318,322.892 Q272.333,329.337 260.007,326.127 Q247.682,322.917 241.237,311.931 Q234.792,300.946 238.002,288.621 Q244.365,264.19 241.977,238.063 Q240.841,225.637 237.984,214.378 Q237.638,213.763 237.312,213.125 Z"/>
  <path fill="rgb(17.254902%, 96.862745%, 100%)" opacity="0.812" d="M55.652,205.019 Q57.245,206.533 58.165,208.204 Q63.492,217.878 54.569,225.456 Q50.888,228.583 43.433,231.1 Q38.89,232.633 34.594,230.506 Q30.297,228.378 28.764,223.835 Q27.4,219.795 28.932,215.949 Q24.276,211.268 26.772,204.234 Q29.215,197.344 37.589,196.102 Q39.761,195.78 43.746,195.601 Q48.536,195.386 52.075,198.62 Q54.996,201.29 55.652,205.019 Z"/>
  <path fill="rgb(92.941176%, 70.588235%, 100%)" opacity="0.152" d="M146.496,145.993 Q146.589,151.333 144.358,157.694 Q143.666,159.665 143.629,160.194 Q143.871,160.336 144.446,160.487 Q147.294,161.233 167.176,161.486 Q197.226,161.868 222.966,162.778 Q224.973,162.849 224.902,164.856 Q224.866,165.86 224.347,166.344 Q223.827,166.828 222.824,166.792 Q197.129,165.884 167.125,165.502 Q146.752,165.243 143.428,164.373 Q140.005,163.476 139.649,160.844 Q139.468,159.499 140.567,156.364 Q142.56,150.683 142.48,146.062 Q142.445,144.054 144.453,144.019 Q146.462,143.984 146.496,145.993 Z"/>
  <path fill="rgb(61.176471%, 18.039216%, 54.117647%)" opacity="0.239" d="M138.813,118.714 Q180.634,122.587 207.34,141.099 Q236.656,161.419 234.968,187.555 Q233.837,205.058 218.979,214.534 Q207.3,221.982 190.528,220.934 Q161.924,219.147 122.946,193.01 Q115.059,187.722 113.222,178.404 Q111.384,169.087 116.673,161.2 Q118.164,158.976 119.976,157.234 Q119.51,156.729 119.062,156.19 Q112.995,148.885 113.87,139.429 Q114.746,129.973 122.052,123.906 Q129.357,117.838 138.813,118.714 Z"/>
  <path fill="rgb(75.294118%, 39.215686%, 49.803922%)" opacity="0.642" d="M153.61,236.61 Q147.001,223.276 144.958,214.398 Q141.49,216.153 136.586,217.413 Q132.998,218.335 132.076,214.746 Q131.154,211.158 134.742,210.236 Q141.34,208.54 144.133,206.219 Q144.521,202.284 147.127,201.11 Q150.137,199.755 152.038,202.464 Q152.932,203.737 152.823,205.447 Q152.71,207.234 151.542,209.002 Q151.616,209.788 151.777,210.737 Q153.19,219.077 160.249,233.32 Q161.895,236.639 158.575,238.285 Q156.915,239.107 155.674,238.689 Q154.433,238.27 153.61,236.61 Z"/>
  <path fill="rgb(97.254902%, 74.509804%, 90.588235%)" opacity="0.142" d="M55.217,326.318 Q37.894,326.998 26.745,325.909 Q18.978,325.151 -6.606,329.695 Q-11.003,330.476 -13.591,328.668 Q-16.18,326.861 -16.961,322.464 Q-18.523,313.671 -9.73,312.11 Q18.271,307.136 28.481,308.133 Q38.414,309.103 54.517,308.471 Q63.44,308.121 63.791,317.044 Q63.966,321.506 61.823,323.825 Q59.679,326.143 55.217,326.318 Z"/>
  <path fill="rgb(84.705882%, 75.686275%, 90.196078%)" opacity="0.371" d="M85.275,137.131 Q160.631,137.407 172.333,141.248 Q178.789,143.366 178.287,148.379 Q177.925,151.997 172.959,154.821 Q167.962,157.664 152.258,162.968 Q150.049,163.714 148.572,162.983 Q147.094,162.251 146.348,160.043 Q144.856,155.625 149.274,154.133 Q158.374,151.06 163.482,148.969 Q145.53,146.677 85.241,146.455 Q80.578,146.438 80.595,141.776 Q80.604,139.445 81.774,138.283 Q82.944,137.122 85.275,137.131 Z"/>
  <path fill="rgb(67.058824%, 95.294118%, 100%)" opacity="0.977" d="M55.847,255.43 Q56.391,255.828 57.451,256.407 Q63.353,259.631 76.362,261.612 Q86.322,263.129 97.764,263.532 Q100.162,263.616 101.952,263.629 Q103.55,263.347 105.514,263.487 Q106.6,263.564 107.446,263.758 Q108.593,264.021 109.637,264.536 Q111.482,265.448 112.807,267.019 Q116.447,271.338 114.549,276.657 Q112.64,282.008 107.006,283.04 Q105.977,283.228 104.169,283.263 Q101.368,283.317 97.074,283.166 Q84.491,282.723 73.404,281.034 Q56.973,278.532 48.033,273.649 Q41.049,269.834 38.038,264.277 Q34.005,256.835 37.459,248.515 Q39.342,243.979 42.551,242.653 Q45.761,241.326 50.297,243.209 Q59.058,246.845 55.847,255.43 Z"/>
  <path fill="rgb(72.941176%, 57.647059%, 60.392157%)" opacity="0.52" d="M54.523,356.382 Q51.627,241.679 61.672,177.961 Q58.293,179.3 55.816,175.714 Q54.291,173.507 54.632,171.64 Q54.973,169.774 57.181,168.249 Q59.348,166.752 62.244,164.328 Q64.099,162.776 64.918,162.277 Q66.528,161.296 68.198,161.268 Q72.053,161.203 73.557,164.789 Q74.43,166.872 73.122,174.473 Q62.259,237.6 65.251,356.111 Q65.386,361.475 60.022,361.61 Q57.34,361.678 55.965,360.371 Q54.59,359.064 54.523,356.382 Z"/>
  <path fill="rgb(98.039216%, 98.823529%, 99.607843%)" opacity="0.061" d="M222.22,92.674 Q223.099,92.148 223.85,92.693 Q225.42,93.274 224.854,94.875 Q224.567,95.687 224.018,95.949 Q223.753,96.076 223.426,96.074 Q221.465,97.592 220.715,98.014 Q220.314,98.239 219.967,98.302 Q218.879,98.497 218.235,97.617 Q217.641,96.806 218.052,95.871 Q218.24,95.443 218.806,94.912 Q220.748,93.09 222.22,92.674 Z"/>
  <path fill="rgb(0%, 50.196078%, 58.039216%)" opacity="0.419" d="M40.371,236.438 Q39.765,256.312 41.394,268.758 Q50.346,263.867 56.108,264.035 Q62.39,264.218 64.356,269.629 Q65.839,273.713 64.104,279.42 Q62.525,284.614 59.165,288.547 Q55.229,293.154 50.777,293.528 Q45.282,293.99 41.518,288.003 Q33.741,275.633 34.941,236.273 Q35.024,233.558 37.739,233.641 Q39.096,233.682 39.754,234.382 Q40.412,235.081 40.371,236.438 Z M42.289,274.227 Q43.715,281.291 46.117,285.111 Q48.121,288.3 50.322,288.115 Q52.549,287.928 55.035,285.018 Q61.442,277.52 59.25,271.483 Q58.544,269.54 55.95,269.465 Q51.524,269.336 43.543,273.776 Q42.874,274.148 42.289,274.227 Z"/>
</svg>

