<svg xmlns="http://www.w3.org/2000/svg" width="384" height="384" viewBox="0 0 384 384">
  <defs/>
  <path fill="rgb(12.54902%, 19.215686%, 31.764706%)" opacity="0.738" d="M236.885,25.049 Q164.426,4.009 122.887,41.974 Q108.783,54.865 101.737,71.223 Q99.196,77.125 98.488,81.464 Q98.431,81.813 98.393,82.09 Q99.892,86.803 98.479,91.87 Q96.539,98.826 90.249,102.372 Q83.96,105.919 77.005,103.979 Q70.049,102.039 66.503,95.749 Q58.969,82.388 69.717,57.432 Q79.728,34.188 99.367,16.239 Q124.227,-6.483 158.129,-13.831 Q198.146,-22.504 246.607,-8.432 Q253.541,-6.419 257.021,-0.092 Q260.5,6.235 258.487,13.17 Q256.473,20.104 250.146,23.583 Q243.819,27.063 236.885,25.049 Z"/>
  <path fill="rgb(0%, 0%, 33.333333%)" d="M277.535,222.764 Q276.852,192.51 294.524,182.851 Q302.044,178.741 310.918,179.921 Q319.348,181.042 326.265,186.53 Q342.395,199.329 337.606,220.666 Q332.072,245.318 297.779,268.034 Q294.964,269.898 293.099,267.083 Q291.235,264.268 294.05,262.404 Q326.078,241.189 331.017,219.187 Q334.878,201.985 322.067,191.82 Q309.883,182.152 297.763,188.776 Q283.696,196.465 284.286,222.611 Q284.362,225.987 280.986,226.063 Q277.611,226.139 277.535,222.764 Z"/>
  <path fill="rgb(0%, 81.960784%, 52.54902%)" opacity="0.738" d="M165.416,113.692 Q165.766,113.81 166.14,114.01 Q168.77,115.416 167.365,118.046 Q152.654,145.57 137.962,143.526 Q125.29,141.762 121.835,123.628 Q118.41,105.649 129.16,98.58 Q141.838,90.244 165.24,109.194 Q167.558,111.071 165.681,113.389 Q165.55,113.551 165.416,113.692 Z M161.487,113.829 Q141.472,97.623 132.437,103.564 Q125.014,108.445 127.694,122.512 Q130.348,136.444 138.784,137.618 Q149.355,139.089 162.104,115.235 Q162.33,114.812 162.587,114.494 Q162.05,114.286 161.487,113.829 Z"/>
  <path fill="rgb(12.156863%, 30.980392%, 41.176471%)" opacity="0.242" d="M158.688,223.41 Q230.226,219.473 243.497,213.532 Q243.825,213.385 244.098,213.248 Q244.43,210.602 244.385,202.605 Q244.268,181.728 246.957,166.867 Q251.606,141.172 265.611,114.004 Q269.496,106.468 277.571,103.886 Q285.647,101.304 293.184,105.189 Q300.72,109.074 303.302,117.15 Q305.883,125.225 301.999,132.762 Q290.8,154.487 287.241,174.155 Q285.227,185.288 285.322,202.376 Q285.416,219.213 282.719,227.262 Q277.37,243.22 260.225,250.896 Q247.842,256.44 223.135,259.466 Q202.42,262.003 160.937,264.286 Q152.471,264.752 146.156,259.095 Q139.84,253.438 139.374,244.972 Q138.909,236.507 144.565,230.191 Q150.222,223.875 158.688,223.41 Z"/>
  <path fill="rgb(32.54902%, 38.431373%, 47.058824%)" opacity="0.82" d="M-5.519,243.622 Q-9.878,222.436 -12.595,204.182 Q-31.16,79.474 0.5,-8.99 Q5.23,-22.206 14.657,-32.605 Q24.085,-43.005 36.774,-49.006 Q49.464,-55.007 63.484,-55.694 Q77.504,-56.382 90.72,-51.652 Q103.936,-46.922 114.336,-37.495 Q124.736,-28.068 130.737,-15.378 Q136.737,-2.688 137.425,11.332 Q138.113,25.352 133.383,38.568 Q113.65,93.704 127.003,183.4 Q135.23,238.671 163.016,331.68 Q175.076,372.048 177.932,386.506 Q182.217,408.196 179.213,425.034 Q173.972,454.408 150.711,471.874 Q122.436,493.105 87.693,484.069 Q67.435,478.8 47.562,460.992 Q37.653,452.113 23.831,436.841 Q1.452,412.115 -43.545,356.598 Q-52.383,345.693 -56.376,332.236 Q-60.369,318.779 -58.907,304.819 Q-57.446,290.858 -50.754,278.519 Q-44.061,266.18 -33.157,257.342 Q-22.252,248.503 -8.795,244.511 Q-7.161,244.026 -5.519,243.622 Z"/>
  <path fill="rgb(0.784314%, 3.137255%, 5.882353%)" opacity="0.982" d="M93.496,304.66 Q108.912,325.341 100.808,341.675 Q93.776,355.85 76.398,357.334 Q58.151,358.892 51.782,344.321 Q44.834,328.427 61.059,302.309 Q63.563,298.278 67.594,300.782 Q69.609,302.034 69.991,303.667 Q70.373,305.301 69.121,307.317 Q55.529,329.197 60.478,340.519 Q64.123,348.857 75.591,347.878 Q87.648,346.848 92.306,337.457 Q97.821,326.342 85.887,310.332 Q84.469,308.43 84.711,306.77 Q84.953,305.11 86.855,303.692 Q90.66,300.855 93.496,304.66 Z"/>
  <path fill="rgb(36.470588%, 41.960784%, 50.980392%)" opacity="0.904" d="M179.646,356.283 Q300.321,201.446 300.567,126.238 Q300.632,106.304 289.705,86.806 Q280.466,70.32 249.607,33.829 Q227.543,7.738 216.363,-7.065 Q195.929,-34.119 182.242,-59.905 Q174.238,-74.982 172.614,-91.974 Q170.989,-108.966 175.991,-125.287 Q180.993,-141.607 191.86,-154.771 Q202.726,-167.935 217.803,-175.938 Q232.88,-183.942 249.873,-185.566 Q266.865,-187.19 283.185,-182.189 Q299.505,-177.187 312.669,-166.32 Q325.833,-155.453 333.837,-140.376 Q345.261,-118.855 380.66,-76.995 Q422.143,-27.941 439.426,2.899 Q472.408,61.752 472.196,126.799 Q471.968,196.511 433.198,278.48 Q395.09,359.048 315.018,461.788 Q304.525,475.251 289.678,483.674 Q274.832,492.097 257.892,494.198 Q240.952,496.298 224.498,491.756 Q208.043,487.214 194.58,476.721 Q181.116,466.228 172.693,451.381 Q164.27,436.535 162.169,419.595 Q160.069,402.655 164.611,386.201 Q169.153,369.746 179.646,356.283 Z"/>
  <path fill="rgb(25.882353%, 24.705882%, 22.745098%)" opacity="0.447" d="M87.796,259.279 Q87.234,352.258 85.089,357.239 Q83.51,360.903 80.029,362.776 Q71.941,367.126 66.025,360.087 Q64.201,357.916 63.551,354.994 Q63.303,353.876 63.144,352.176 Q62.959,350.193 62.818,346.937 Q62.703,344.256 62.679,342.403 Q62.654,340.481 62.905,339.225 Q63.475,336.381 64.705,334.426 Q64.957,313.112 65.283,259.143 Q65.311,254.48 68.628,251.203 Q71.944,247.926 76.607,247.954 Q81.27,247.983 84.547,251.299 Q87.824,254.616 87.796,259.279 Z"/>
  <path fill="rgb(0%, 3.137255%, 5.098039%)" opacity="0.609" d="M132.607,94.539 Q110.422,101.851 104.756,125.566 Q99.109,149.206 113.4,171.414 Q129.366,196.226 162.371,203.568 Q202.063,212.398 256.466,192.539 Q258.22,191.899 259.417,192.456 Q260.614,193.013 261.254,194.766 Q262.534,198.274 259.027,199.555 Q202.573,220.163 160.749,210.858 Q124.747,202.849 107.119,175.455 Q91.105,150.568 97.492,123.831 Q104.126,96.063 130.268,87.446 Q133.815,86.277 134.984,89.823 Q135.569,91.596 134.974,92.775 Q134.38,93.954 132.607,94.539 Z"/>
  <path fill="rgb(28.627451%, 72.54902%, 72.941176%)" opacity="0.031" d="M182.688,141.535 Q187.034,141.868 189.95,142.009 Q190.487,142.035 190.792,142.119 Q191.514,142.317 192.042,142.849 Q193.476,144.293 192.551,146.106 Q192.111,146.968 191.233,147.376 Q190.795,147.58 190.314,147.626 Q190.211,147.636 190.104,147.638 Q190.06,147.639 190.002,147.639 Q189.963,147.639 189.84,147.638 Q175.102,147.529 164.739,151.135 Q156.403,154.036 153.865,158.837 Q150.81,164.615 156.18,173.924 Q156.882,175.141 156.624,176.101 Q156.367,177.06 155.15,177.762 Q152.716,179.166 151.312,176.732 Q144.392,164.733 148.897,156.21 Q152.469,149.456 162.892,145.828 Q170.554,143.162 180.259,142.36 Q181.009,141.406 182.688,141.535 Z"/>
  <path fill="rgb(65.490196%, 70.196078%, 71.764706%)" opacity="0.964" d="M144.615,333.401 Q140.234,298.503 139.668,272.725 Q139.187,250.85 141.479,245.429 Q142.028,244.13 142.918,243.358 Q145.045,241.512 147.549,242.72 Q149.486,243.655 150.441,246.616 Q151.543,250.033 152.279,257.868 Q154.027,276.456 153.124,309.099 Q153.071,311.022 152.083,311.957 Q151.325,312.674 150.018,312.81 Q150.969,322.226 152.252,332.443 Q152.492,334.352 151.657,335.426 Q150.822,336.501 148.913,336.74 Q145.095,337.22 144.615,333.401 Z"/>
  <path fill="rgb(100%, 37.254902%, 37.647059%)" d="M225.901,321.026 Q227.865,320.835 229.835,320.622 Q238.224,319.717 244.795,325.009 Q251.367,330.301 252.272,338.69 Q253.177,347.079 247.885,353.651 Q242.593,360.223 234.204,361.128 Q195.874,365.263 158.741,362.197 Q155.447,361.925 153.288,361.572 Q139.686,359.343 135.762,347.355 Q133.339,339.952 136.455,332.813 Q138.424,328.3 142.239,325.166 Q145.085,322.828 148.632,321.579 Q150.726,320.841 153.269,320.445 Q155.631,320.076 159.528,319.83 Q174.581,318.878 217.153,319.075 Q221.927,319.098 225.901,321.026 Z"/>
  <path fill="rgb(0%, 12.941176%, 7.45098%)" opacity="0.693" d="M258.504,190.905 Q285.641,154.911 280.74,128.324 Q276.919,107.596 256.797,99.603 Q248.475,96.297 240.636,96.966 Q233.168,97.604 229.277,101.608 Q219.611,111.552 236.55,134.402 Q237.65,135.885 237.458,137.177 Q237.266,138.469 235.782,139.569 Q232.814,141.769 230.614,138.801 Q209.935,110.907 223.979,96.458 Q229.792,90.477 240.007,89.605 Q249.583,88.787 259.525,92.737 Q283.444,102.239 288.006,126.985 Q293.496,156.766 264.403,195.353 Q263.291,196.828 261.997,197.009 Q260.704,197.191 259.229,196.079 Q256.28,193.855 258.504,190.905 Z"/>
</svg>

