<?xml version="1.0" ?>
<svg xmlns="http://www.w3.org/2000/svg" version="1.1" width="512" height="512" viewBox="0 0 512 512">
  <defs/>
  <g>
    <path d="M 422.31011963 315.85839844 C 415.74011230 322.25683594 408.70166016 327.94729614 401.12850952 332.70947266 C 393.32165527 336.91583252 385.17065430 340.56042480 376.78338623 343.70407104 C 368.29110718 346.54098511 359.68020630 349.02127075 351.01199341 351.06198120 C 342.16549683 352.74707031 333.07086182 354.09136963 323.91870117 355.22305298 C 314.67028809 356.29284668 305.30007935 357.22018433 295.68115234 357.75537109 C 286.03540039 358.31167603 276.34301758 358.47601318 266.39440918 357.89425659 C 256.15881348 357.48117065 245.93081665 357.22985840 235.61521912 356.42922974 C 225.07507324 355.44183350 214.48716736 354.48663330 204.00584412 353.47308350 C 193.55320740 352.01809692 183.12666321 350.41271973 172.78967285 348.76434326 C 162.62181091 346.89187622 152.65310669 344.77090454 143.09144592 342.19577026 C 133.92088318 339.52850342 125.21732330 336.43826294 117.17190552 332.95916748 C 109.77793884 329.23452759 103.29112244 325.09567261 97.66230774 320.73913574 C 92.93022156 316.27218628 89.35105896 311.65527344 87.14565277 306.96823120 C 86.35910034 302.42666626 86.87322235 298.16757202 88.61514282 294.35717773 C 91.73194122 291.16369629 96.21869659 288.77865601 101.77709198 286.98779297 C 107.86418152 284.56512451 114.21417236 281.19204712 120.87193298 277.02639771 C 128.15379333 272.86981201 136.04641724 269.20767212 144.67582703 266.10897827 C 153.73910522 263.12991333 163.04925537 260.40582275 172.74363708 258.19137573 C 182.66412354 256.06137085 192.71374512 254.33004761 203.03890991 253.09985352 C 213.40235901 251.84637451 223.82765198 250.53442383 234.19636536 249.21359253 C 244.58630371 247.88877869 254.83322144 246.24726868 264.93905640 244.50956726 C 275.09237671 243.06138611 285.01058960 241.63877869 294.73074341 240.30331421 C 304.40127563 239.03785706 313.97229004 238.08872986 323.31872559 237.51675415 C 332.41305542 237.19177246 341.27001953 237.26794434 349.92218018 237.49090576 C 358.30395508 237.84875488 366.26220703 238.64323425 373.84185791 239.59619141 C 381.08929443 240.77375793 387.85787964 242.42851257 394.27728271 244.37890625 C 400.31942749 246.42761230 405.94970703 248.70571899 411.15325928 251.38589478 C 416.10952759 254.12936401 420.61807251 257.15341187 424.71472168 260.49719238 C 428.82968140 263.85693359 432.80102539 267.26007080 436.72579956 270.67752075 C 440.60586548 274.16931152 444.59609985 277.73611450 422.31011963 315.85839844" stroke-width="2.00000000" fill="rgb(255, 237, 33)" opacity="1.0" stroke="rgb(211, 170, 0)" stroke-opacity="0.80566597" stroke-linecap="round" stroke-linejoin="round"/>
    <path d="M 459.92391968 285.31521606 C 457.73046875 285.13739014 455.64999390 285.30358887 453.58987427 285.53753662 C 451.47543335 285.63613892 449.40225220 286.00793457 447.43222046 286.52786255 C 445.53649902 287.17724609 443.67230225 287.70532227 441.85455322 288.19320679 C 440.20666504 288.90530396 438.67532349 289.74713135 437.23333740 290.69049072 C 436.16052246 291.78228760 435.18145752 292.68563843 434.16622925 293.34268188 C 433.09414673 293.70614624 431.98538208 293.66320801 430.94638062 293.23950195 C 429.93054199 292.49197388 428.86819458 291.45468140 427.86093140 290.18798828 C 426.98626709 288.68124390 426.26162720 287.07235718 425.64395142 285.29910278 C 425.17926025 283.40258789 424.84774780 281.39834595 424.65631104 279.42492676 C 424.68994141 277.53350830 424.95849609 275.74084473 425.43051147 274.00662231 C 426.00100708 272.41906738 426.67120361 271.00073242 427.55184937 269.79565430 C 428.66882324 268.81768799 429.95050049 268.19030762 431.29498291 267.69528198 C 432.55175781 267.08108521 433.87988281 266.62377930 435.34899902 266.62506104 C 436.99566650 266.91159058 438.75765991 266.98150635 440.63217163 266.93051147 C 442.56445312 266.79446411 444.28283691 266.52529907 445.79830933 265.88458252 C 447.32165527 265.15502930 448.71478271 264.53854370 449.73977661 263.75518799 C 450.40957642 262.87866211 451.05718994 262.34915161 451.78732300 262.28646851 C 452.50711060 262.65478516 453.18301392 263.42379761 453.83160400 264.46014404 C 454.50421143 265.69580078 455.20260620 267.06039429 455.82873535 268.52694702 C 456.41418457 269.96206665 457.03448486 271.41998291 459.92391968 285.31521606" stroke-width="2.00000000" fill="rgb(177, 219, 72)" opacity="1.0" stroke="rgb(160, 163, 19)" stroke-opacity="0.8299918" stroke-linecap="round" stroke-linejoin="round"/>
    <path d="M 79.69050598 288.96987915 C 81.77876282 288.75372314 83.96615601 288.67974854 85.97003937 288.81637573 C 87.79058075 288.81573486 89.52952576 288.68981934 91.09072876 288.49084473 C 92.40429688 288.29016113 93.45488739 288.11270142 94.27196503 287.99197388 C 94.76951599 287.94100952 94.90909576 288.02273560 94.75587463 288.26864624 C 94.30384064 288.64697266 93.61015320 289.11904907 92.78092957 289.72943115 C 91.83345795 290.46185303 90.82948303 291.28274536 89.83034515 292.14834595 C 88.91348267 293.07360840 88.24914551 294.21105957 87.84651184 295.47717285 C 87.71427917 296.93435669 87.72843170 298.55941772 87.71587372 300.23043823 C 87.75840759 301.91918945 88.00484467 303.69256592 88.34151459 305.49697876 C 88.66406250 307.20678711 89.07654572 308.88424683 89.59719849 310.46316528 C 90.18451691 311.90036011 90.75830078 313.24072266 91.30213165 314.41085815 C 91.76840973 315.36517334 92.04224396 316.12875366 92.15731812 316.63317871 C 92.12624359 316.87615967 91.88122559 316.88931274 91.40758514 316.62420654 C 90.83039093 316.04638672 90.13949585 315.30462646 89.30040741 314.45062256 C 88.40470886 313.51519775 87.52032471 312.45086670 86.57572174 311.30737305 C 85.57931519 310.21444702 84.67386627 308.91854858 83.85090637 307.47283936 C 83.03759766 306.04281616 82.24442291 304.65551758 81.42848969 303.23345947 C 80.67227173 301.81973267 80.03529358 300.27883911 79.47922516 298.77139282 C 79.01535034 297.23593140 78.58882141 295.73983765 78.33601379 294.13992310 C 78.19133759 292.53628540 78.11034393 290.92968750 79.69050598 288.96987915" stroke-width="0.73574287" fill="rgb(89, 45, 15)" opacity="1.0" stroke="rgb(89, 54, 24)" stroke-opacity="0.4623874" stroke-linecap="round" stroke-linejoin="round"/>
    <path d="M 460.07913208 284.81259155 C 458.59786987 282.06652832 457.28060913 279.35903931 456.18316650 276.68246460 C 455.26452637 274.06372070 454.46276855 271.54702759 453.81378174 269.21331787 C 453.06051636 267.10662842 452.36883545 265.24713135 451.87939453 263.62145996 C 451.49694824 262.31741333 451.37374878 261.28869629 451.48348999 260.58956909 C 451.83468628 260.21481323 452.46038818 260.07400513 453.09707642 260.19030762 C 453.68386841 260.70858765 454.38739014 261.46911621 455.15789795 262.49459839 C 455.89929199 263.80465698 456.64498901 265.32522583 457.42517090 267.06915283 C 458.08889771 269.03942871 458.85369873 271.12948608 459.69842529 273.32446289 C 460.46200562 275.61270142 461.11276245 278.01962280 461.70632935 280.47573853 C 462.20245361 282.89489746 462.58355713 285.35830688 460.07913208 284.81259155" stroke-width="0.86527121" fill="rgb(50, 135, 12)" opacity="1.0" stroke="rgb(44, 134, 0)" stroke-opacity="0.36309516" stroke-linecap="round" stroke-linejoin="round"/>
  </g>
</svg>
