<?xml version="1.0" ?>
<svg xmlns="http://www.w3.org/2000/svg" version="1.1" width="512" height="512" viewBox="0 0 512 512">
  <defs/>
  <g>
    <path d="M 424.22668457 299.30700684 C 415.93115234 303.91787720 407.68511963 308.28823853 399.11962891 312.28634644 C 390.43823242 315.78109741 381.44595337 318.65679932 372.23840332 321.37255859 C 362.94641113 323.94015503 353.42843628 326.19299316 343.66992188 328.04135132 C 333.77352905 329.77032471 323.67446899 331.28747559 313.47406006 332.61782837 C 303.00079346 333.65298462 292.34640503 334.56723022 281.59075928 335.43585205 C 270.70837402 335.77090454 259.64245605 335.73910522 248.34976196 335.71603394 C 236.96415710 335.64810181 225.55995178 335.22140503 213.98265076 334.12289429 C 202.26475525 333.01110840 190.55339050 331.73297119 178.76568604 329.92825317 C 166.94827271 328.00537109 155.33845520 325.65362549 143.86511230 322.88333130 C 132.64167786 319.93521118 121.75545502 316.70281982 111.40906525 312.77819824 C 101.69861603 308.52902222 92.70928192 303.48498535 84.62335968 298.11553955 C 77.10078430 292.69290161 70.72747803 286.88507080 65.77119446 280.41909790 C 61.80016327 273.64361572 59.14012146 266.56890869 57.87041855 259.51971436 C 57.61991882 252.47781372 58.75278854 245.65055847 61.12255478 238.89669800 C 64.64105988 232.38446045 69.43255615 226.30334473 75.51923370 220.63964844 C 82.35404968 215.13371277 90.12187958 210.05799866 98.80973053 205.55781555 C 107.87805939 201.20976257 117.58139038 197.56825256 127.79611969 194.41859436 C 138.32106018 191.33377075 149.05186462 188.39930725 160.03500366 185.89337158 C 171.22698975 183.75761414 182.59892273 181.98661804 194.01829529 180.84370422 C 205.57687378 179.87362671 217.09832764 178.64497375 228.57447815 177.48046875 C 240.01814270 176.91389465 251.45941162 176.61485291 262.86541748 176.41154480 C 274.12103271 176.47444153 285.20095825 176.98483276 296.22943115 178.28172302 C 307.10586548 179.68666077 317.85955811 180.91168213 328.44937134 182.15776062 C 338.88714600 183.79995728 349.09167480 185.66981506 358.98953247 187.64564514 C 368.74505615 189.89279175 378.06460571 192.43788147 386.91674805 195.36495972 C 395.63912964 198.36099243 403.96716309 201.59584045 411.74755859 205.24455261 C 419.18112183 208.84350586 426.02905273 213.02459717 432.26818848 217.79521179 C 438.13891602 222.76138306 443.65399170 227.96777344 448.99002075 233.12828064 C 454.26840210 238.31434631 459.54269409 243.51310730 464.84945679 248.70823669 C 470.10522461 253.91131592 475.31823730 259.13247681 424.22668457 299.30700684" stroke-width="1.64619148" fill="rgb(254, 238, 10)" opacity="1.0" stroke="rgb(242, 230, 0)" stroke-opacity="0.36361793" stroke-linecap="round" stroke-linejoin="round"/>
    <path d="M 297.28591919 231.32588196 C 294.60983276 232.02839661 291.98535156 232.75128174 289.35131836 233.22477722 C 286.52432251 233.23500061 283.61685181 233.06434631 280.62591553 233.10333252 C 277.52896118 233.22023010 274.34750366 233.35821533 271.04129028 233.22120667 C 267.63769531 233.19465637 264.14843750 233.23643494 260.57122803 233.27923584 C 256.96273804 233.31518555 253.30148315 233.33493042 249.59048462 233.31962585 C 245.84916687 233.16842651 242.07501221 233.04908752 238.36433411 233.26947021 C 234.64860535 233.23126221 230.96322632 233.01679993 227.42037964 233.04351807 C 223.97579956 233.02952576 220.59713745 233.03918457 217.51283264 232.95983887 C 214.84794617 232.29418945 212.32447815 231.33204651 209.96649170 230.34700012 C 207.93595886 229.37718201 206.21258545 228.28465271 205.10592651 226.60392761 C 204.66906738 224.53161621 204.53472900 222.12403870 204.47918701 219.48318481 C 204.39730835 216.68196106 204.44810486 213.74717712 204.56314087 210.66380310 C 204.50942993 207.52279663 204.30888367 204.28302002 204.40307617 200.94047546 C 204.69242859 197.59471130 204.97711182 194.44157410 205.36459351 191.48907471 C 205.76020813 188.62065125 206.36260986 185.95271301 207.42593384 183.66108704 C 209.28688049 181.93110657 211.69952393 180.70852661 214.46247864 179.77592468 C 217.36253357 178.87477112 220.25764465 177.97972107 223.13624573 177.57174683 C 226.20376587 177.53355408 229.53967285 177.56745911 233.01791382 177.48446655 C 236.52661133 177.40374756 239.86341858 177.50306702 243.04841614 177.47158813 C 246.16743469 176.20954895 249.14772034 174.53453064 252.34580994 173.71444702 C 255.90367126 173.64775085 259.33383179 174.17198181 262.23086548 175.34014893 C 264.71881104 176.83659363 266.99719238 177.71870422 269.84994507 177.49594116 C 273.35992432 177.27058411 277.29025269 177.34251404 281.15640259 177.53739929 C 284.59970093 177.40521240 287.57861328 177.42407227 290.26885986 178.32205200 C 292.66818237 179.53765869 294.75289917 181.07876587 296.40939331 182.92108154 C 297.67684937 185.12544250 298.71279907 187.67614746 299.58709717 190.44883728 C 300.22250366 193.40864563 300.69613647 196.61820984 301.08145142 200.10437012 C 301.33084106 203.79736328 301.43041992 207.63684082 301.50839233 211.55575562 C 301.60614014 215.53775024 301.80798340 219.62962341 302.19515991 223.73870850 C 302.67868042 227.80891418 303.15115356 231.89921570 297.28591919 231.32588196" stroke-width="1.94756567" fill="rgb(252, 206, 1)" opacity="1.0" stroke="rgb(140, 128, 32)" stroke-opacity="0.6389226" stroke-linecap="round" stroke-linejoin="round"/>
    <path d="M 215.47796631 232.51831055 C 215.13272095 232.76028442 214.64270020 233.09439087 214.10783386 233.45709229 C 213.55273438 233.52352905 213.00236511 233.33352661 212.38978577 233.03886414 C 211.67048645 232.89132690 210.86575317 232.68684387 210.04687500 232.50146484 C 209.30841064 232.21427917 208.57508850 231.85176086 207.83390808 231.11898804 C 207.08126831 230.24830627 206.33465576 229.16574097 205.59880066 228.05197144 C 205.36473083 226.64047241 205.19235229 224.91764832 204.81124878 222.99645996 C 204.76690674 220.90571594 204.67456055 218.67453003 204.43609619 216.29479980 C 204.21154785 213.82151794 204.14332581 211.21560669 204.11634827 208.47496033 C 204.39482117 205.66627502 204.39704895 202.77580261 204.47184753 199.85580444 C 204.49674988 196.97537231 204.63890076 194.20321655 204.70880127 191.51933289 C 204.78700256 188.96740723 205.16253662 186.61865234 205.48272705 184.62318420 C 205.66905212 182.70211792 205.89532471 180.98266602 206.46629333 179.55838013 C 207.35632324 178.29377747 208.52317810 177.55770874 209.85314941 176.95542908 C 210.97932434 176.45191956 212.22061157 176.52522278 213.54415894 176.73477173 C 214.63977051 177.15516663 215.58114624 177.55989075 216.09741211 178.28112793 C 216.45268250 179.34515381 216.27241516 180.72213745 215.97505188 182.51608276 C 215.91654968 184.55798340 215.85893250 186.78060913 215.73643494 189.35070801 C 215.59120178 192.09252930 215.48786926 194.84271240 215.44328308 197.67587280 C 215.52247620 200.70944214 215.52124023 203.91258240 215.42124939 207.12648010 C 215.31301880 210.17326355 215.45802307 213.18212891 215.47796631 232.51831055" stroke-width="1.88880074" fill="rgb(253, 225, 5)" opacity="1.0" stroke="rgb(111, 107, 7)" stroke-opacity="0.65340614" stroke-linecap="round" stroke-linejoin="round"/>
    <path d="M 303.76196289 227.32586670 C 303.00732422 228.38374329 302.45068359 229.50917053 301.58053589 230.65953064 C 300.28323364 231.62554932 298.96563721 232.59057617 297.65512085 233.24272156 C 296.60507202 233.56127930 295.57650757 233.42012024 294.72735596 233.37803650 C 294.04968262 233.56190491 293.53256226 233.68261719 293.29473877 233.25617981 C 293.20971680 232.39350891 293.18807983 231.19772339 293.32574463 229.57388306 C 293.58056641 227.74237061 293.80319214 225.65180969 293.98382568 223.27630615 C 294.21429443 220.69642639 294.21459961 218.09355164 294.19720459 215.27975464 C 294.21923828 212.22032166 294.23742676 209.04248047 294.15567017 205.95498657 C 294.21585083 202.87597656 294.18313599 199.77239990 294.10278320 196.71008301 C 294.18496704 193.77313232 294.10614014 190.96192932 293.75732422 188.31680298 C 293.88848877 185.72000122 293.77279663 183.39978027 293.45126343 181.41798401 C 293.13772583 179.67814636 293.09799194 178.30503845 293.29394531 177.57112122 C 294.02243042 177.41377258 294.77529907 177.28663635 295.51715088 176.67483521 C 296.58917236 176.45686340 297.86209106 176.38813782 299.28152466 176.53504944 C 300.60656738 177.06761169 301.85189819 177.79583740 302.87008667 178.70751953 C 303.32861328 180.09274292 303.53292847 181.76286316 303.86633301 183.52210999 C 304.16592407 185.75331116 304.47332764 188.20246887 304.43637085 190.80567932 C 304.50122070 193.69528198 304.51699829 196.75070190 304.79031372 199.92639160 C 304.77316284 203.29220581 304.78033447 206.90759277 304.85885620 210.70521545 C 304.88833618 214.52510071 304.99575806 218.29060364 303.76196289 227.32586670" stroke-width="1.95089066" fill="rgb(250, 226, 5)" opacity="1.0" stroke="rgb(105, 105, 9)" stroke-opacity="0.67715204" stroke-linecap="round" stroke-linejoin="round"/>
    <path d="M 156.23095703 241.48219299 C 157.38096619 241.93710327 158.47702026 242.34373474 159.66893005 242.65560913 C 160.86203003 243.14653015 161.89872742 243.82969666 162.84945679 244.63142395 C 163.76522827 245.53958130 164.74345398 246.50947571 165.67782593 247.45681763 C 166.47393799 248.36344910 167.15304565 249.43130493 167.56327820 250.68269348 C 167.81124878 252.02470398 168.20854187 253.38372803 168.47985840 254.64636230 C 168.59695435 255.90493774 168.41867065 257.19860840 167.90066528 258.53656006 C 167.56915283 259.84695435 167.17218018 261.14810181 166.49160767 262.41677856 C 165.74264526 263.69079590 164.90904236 264.87048340 163.97702026 265.94284058 C 162.90283203 266.88787842 161.73574829 267.69564819 160.37321472 268.19848633 C 159.05735779 268.50820923 157.84910583 268.88772583 156.62149048 269.27334595 C 155.38996887 269.52951050 154.18267822 269.51666260 153.03350830 269.29934692 C 151.95529175 268.75958252 150.73634338 268.20736694 149.50808716 267.55300903 C 148.28593445 266.74664307 147.15391541 265.81835938 146.15119934 264.76800537 C 145.23843384 263.56039429 144.35104370 262.31854248 143.61309814 261.02954102 C 143.10459900 259.73986816 142.75068665 258.37850952 142.49676514 256.92895508 C 142.39071655 255.50863647 142.40362549 254.16967773 142.54734802 252.83163452 C 142.96231079 251.54000854 143.38513184 250.32809448 143.84159851 249.19674683 C 144.29414368 248.10926819 144.81155396 247.02990723 145.58319092 246.13301086 C 146.52014160 245.38287354 147.39088440 244.70587158 148.34844971 243.97087097 C 149.35908508 243.20878601 150.27204895 242.49267578 156.23095703 241.48219299" stroke-width="1.89607644" fill="rgb(127, 202, 233)" opacity="1.0" stroke="rgb(145, 191, 156)" stroke-opacity="0.7190408" stroke-linecap="round" stroke-linejoin="round"/>
    <path d="M 268.33917236 260.26477051 C 267.64123535 261.49087524 267.02426147 262.74938965 266.29605103 263.95126343 C 265.31341553 265.09832764 264.30062866 266.11291504 263.26504517 266.98306274 C 262.14364624 267.70632935 260.89205933 268.21438599 259.58566284 268.66128540 C 258.40579224 269.13592529 257.36328125 269.40292358 256.28497314 269.30230713 C 255.18502808 268.83032227 253.91943359 268.57305908 252.65792847 268.60861206 C 251.49723816 268.32028198 250.41590881 267.66763306 249.43144226 266.76928711 C 248.43164062 265.77865601 247.35159302 264.79196167 246.37622070 263.66232300 C 245.67916870 262.46041870 244.90478516 261.20260620 244.21084595 259.94375610 C 243.80438232 258.61605835 243.53071594 257.25939941 243.46479797 255.81718445 C 243.44955444 254.31266785 243.44201660 252.83915710 243.56185913 251.39653015 C 244.13583374 250.02070618 244.89730835 248.60345459 245.54170227 247.23927307 C 246.51678467 246.08268738 247.68652344 245.12951660 248.80784607 244.21936035 C 250.09504700 243.73320007 251.30499268 243.17420959 252.43186951 242.51162720 C 253.63122559 242.12568665 254.82626343 241.87277222 255.97149658 241.70469666 C 257.10821533 241.73129272 258.23565674 241.94569397 259.26129150 242.35379028 C 260.24050903 242.89332581 261.29498291 243.28742981 262.36950684 243.57310486 C 263.27465820 244.07708740 263.99810791 244.67593384 264.63235474 245.44593811 C 265.36035156 246.28517151 266.02926636 247.19017029 266.57974243 248.07598877 C 267.19036865 249.01448059 267.62655640 250.06648254 267.95581055 251.11073303 C 268.38699341 252.08761597 268.80026245 253.05592346 268.33917236 260.26477051" stroke-width="1.88980746" fill="rgb(125, 202, 238)" opacity="1.0" stroke="rgb(146, 194, 154)" stroke-opacity="0.7395504" stroke-linecap="round" stroke-linejoin="round"/>
    <path d="M 343.66162109 260.96441650 C 343.50738525 259.70755005 343.13729858 258.56192017 342.74200439 257.44256592 C 342.46542358 256.29138184 342.41995239 255.18667603 342.52908325 254.05017090 C 342.98773193 252.95230103 343.35659790 251.72868347 343.62091064 250.42770386 C 344.19860840 249.12144470 344.99942017 247.96456909 345.80667114 246.78578186 C 346.83367920 245.72692871 347.93063354 244.76867676 349.08828735 243.96824646 C 350.19848633 243.27195740 351.48886108 242.73564148 352.89404297 242.34657288 C 354.17834473 241.88385010 355.45449829 241.61158752 356.83197021 241.49560547 C 358.19451904 241.48870850 359.51446533 241.78918457 360.77798462 242.33456421 C 361.94290161 243.05407715 363.16540527 243.80247498 364.36441040 244.55964661 C 365.51937866 245.47825623 366.58615112 246.58706665 367.43176270 247.76489258 C 368.13479614 248.98756409 368.68753052 250.27560425 369.13259888 251.66421509 C 369.56140137 253.03637695 369.67788696 254.42050171 369.62670898 255.78372192 C 369.55072021 257.09161377 369.15939331 258.38357544 368.72146606 259.64511108 C 368.62673950 260.92327881 368.29983521 262.21316528 367.68954468 263.37393188 C 366.90994263 264.36816406 365.99807739 265.31683350 365.10034180 266.31213379 C 364.15402222 267.21566772 363.09194946 267.83300781 361.97854614 268.34420776 C 360.78695679 268.55505371 359.57971191 268.79159546 358.41854858 269.18783569 C 357.32263184 269.54513550 356.12579346 269.62762451 354.89636230 269.45587158 C 353.72808838 268.92007446 352.47061157 268.50988770 351.10122681 268.10418701 C 349.74542236 267.53768921 348.36395264 267.03039551 343.66162109 260.96441650" stroke-width="1.89338577" fill="rgb(128, 202, 235)" opacity="1.0" stroke="rgb(153, 195, 150)" stroke-opacity="0.7044084" stroke-linecap="round" stroke-linejoin="round"/>
    <path d="M 264.07678223 174.47865295 C 263.38439941 174.62734985 262.44552612 174.69427490 261.47006226 174.47486877 C 260.46289062 174.42614746 259.57464600 174.26000977 258.52059937 174.10798645 C 257.37570190 174.42411804 256.01657104 174.55570984 254.36918640 174.27066040 C 252.71929932 174.27145386 251.13632202 174.36264038 249.56893921 174.41923523 C 248.10810852 174.43533325 247.08970642 174.31239319 246.65449524 174.35458374 C 246.60076904 173.51007080 246.63450623 171.91760254 246.64947510 169.70986938 C 246.77993774 166.98315430 247.03105164 163.83624268 246.99237061 160.24601746 C 247.27465820 156.39599609 247.28916931 152.32006836 247.47871399 147.96276855 C 247.48567200 143.45429993 247.86007690 138.93659973 248.03558350 134.33671570 C 248.27090454 129.93319702 248.18133545 125.54132843 248.29100037 121.39029694 C 248.41122437 117.54604340 248.75520325 114.01664734 248.53721619 110.98651886 C 248.78421021 108.08757019 249.01194763 105.44407654 249.37937927 103.26693726 C 250.26100159 101.35179901 251.43905640 100.01525879 253.11940002 99.43772888 C 254.83326721 98.97815704 256.50137329 98.88111115 258.12634277 99.54082489 C 259.78182983 100.74891663 260.91918945 102.64794159 261.52661133 105.04280853 C 261.57693481 107.34778595 261.71685791 109.59391785 261.89263916 111.93780518 C 261.66891479 114.39198303 261.98245239 116.99979401 262.20724487 120.00669861 C 262.26531982 123.39868927 262.27359009 127.02451324 262.61270142 130.77792358 C 262.68563843 134.58135986 262.91748047 138.28079224 262.84976196 142.10276794 C 262.90646362 145.89738464 263.35327148 149.57952881 264.07678223 174.47865295" stroke-width="1.88376784" fill="rgb(87, 91, 118)" opacity="1.0" stroke="rgb(0, 9, 10)" stroke-opacity="0.83367616" stroke-linecap="round" stroke-linejoin="round"/>
    <path d="M 460.86624146 236.00883484 C 462.70150757 236.80688477 464.28259277 237.81137085 465.57656860 239.17811584 C 466.67584229 240.85397339 467.73400879 242.80020142 468.32238770 244.97706604 C 468.67971802 247.49060059 468.91464233 249.86524963 469.05514526 252.04928589 C 469.10845947 254.33839417 468.98126221 256.68841553 469.09277344 258.90374756 C 468.79916382 260.97836304 468.34732056 262.87237549 468.06832886 264.67822266 C 467.50787354 266.32400513 466.89028931 267.94424438 466.18222046 269.44882202 C 465.27429199 270.67648315 464.18338013 271.76947021 462.96017456 272.73471069 C 461.45285034 273.50091553 459.84881592 274.06069946 458.00765991 274.22378540 C 455.89315796 274.29098511 453.73794556 274.41665649 451.70266724 274.20886230 C 449.80957031 273.97659302 447.99929810 274.31723022 446.27807617 274.20416260 C 444.77120972 273.33334351 443.37582397 272.49069214 441.72540283 271.74761963 C 440.39453125 270.73858643 439.23449707 269.46478271 438.58267212 267.84201050 C 437.81845093 266.00936890 437.17575073 264.08770752 436.67706299 262.01028442 C 436.32150269 259.55279541 436.19540405 256.96328735 436.19839478 254.41731262 C 436.22229004 252.04997253 436.58026123 249.82806396 436.84716797 247.66929626 C 437.57116699 245.88940430 438.12869263 244.37249756 438.68002319 242.70977783 C 439.52355957 241.23036194 440.48788452 239.79750061 441.42456055 238.59393311 C 442.60992432 237.84014893 443.64395142 237.14523315 444.60064697 236.31561279 C 446.03527832 235.99896240 447.81286621 235.89523315 449.55947876 236.10974121 C 451.43682861 235.97842407 453.42047119 235.58267212 460.86624146 236.00883484" stroke-width="0.75994122" fill="rgb(7, 24, 22)" opacity="1.0" stroke="rgb(55, 55, 63)" stroke-opacity="0.6065354" stroke-linecap="round" stroke-linejoin="round"/>
    <path d="M 442.12728882 238.98164368 C 443.34649658 238.25904846 444.63229370 237.88635254 446.02770996 237.83926392 C 447.54522705 237.68627930 449.11486816 237.57247925 450.66229248 237.52738953 C 452.28704834 237.43682861 453.96072388 237.41938782 455.60745239 237.51902771 C 457.18978882 237.37605286 458.68521118 237.49072266 460.05847168 237.74272156 C 461.29690552 238.02282715 462.45986938 238.74913025 463.59436035 239.52050781 C 464.49816895 240.38912964 465.30938721 241.40808105 466.03924561 242.68679810 C 466.44686890 244.13699341 466.72634888 245.79795837 466.94134521 247.62240601 C 467.20678711 249.55238342 467.32565308 251.53866577 467.34606934 253.55505371 C 467.29058838 255.63088989 467.27807617 257.73696899 467.22183228 259.88027954 C 467.05969238 261.94778442 466.78817749 263.89782715 466.39263916 265.68209839 C 465.85372925 267.36682129 465.04028320 268.77371216 464.07556152 270.00021362 C 462.99124146 271.15142822 461.74096680 272.02447510 460.27526855 272.57278442 C 458.62609863 272.91116333 456.83755493 272.91510010 454.98104858 272.97805786 C 453.08911133 273.04681396 451.17489624 273.01812744 449.26425171 273.01879883 C 447.36526489 272.95837402 445.61022949 272.73910522 444.11346436 272.28836060 C 442.71664429 271.31179810 441.22955322 270.29028320 439.96072388 269.06555176 C 438.89431763 267.51916504 438.38174438 265.47808838 438.00436401 263.34558105 C 437.84432983 261.15737915 437.61166382 258.86029053 437.31085205 256.54849243 C 437.38534546 254.23828125 437.65084839 251.78944397 437.76370239 249.25563049 C 438.05215454 246.66601562 438.34124756 244.07116699 442.12728882 238.98164368" stroke-width="0.45753404" fill="rgb(100, 98, 120)" opacity="1.0" stroke="rgb(88, 84, 77)" stroke-opacity="0.7293503" stroke-linecap="round" stroke-linejoin="round"/>
  </g>
</svg>
