<svg xmlns="http://www.w3.org/2000/svg" viewBox="0 0 512 512">
  <defs>
    <radialGradient id="furGradient" cx="50%" cy="50%" r="50%" fx="50%" fy="50%">
      <stop offset="0%" style="stop-color:#8B4513"/>
      <stop offset="100%" style="stop-color:#654321"/>
    </radialGradient>
  </defs>
  
  <!-- First Squirrel -->
  <g transform="translate(150, 200) scale(0.8)">
    <ellipse cx="100" cy="200" rx="70" ry="90" fill="url(#furGradient)"/> <!-- Body -->
    <circle cx="100" cy="100" r="60" fill="url(#furGradient)"/> <!-- Head -->
    <path d="M 60 90 Q 100 40, 140 90" stroke="#654321" stroke-width="8" fill="none"/> <!-- Ear -->
    <circle cx="80" cy="90" r="10" fill="black"/> <!-- Eye -->
    <path d="M 90 110 Q 100 120, 110 110" stroke="black" stroke-width="3" fill="none"/> <!-- Nose -->
    <path d="M 30 180 Q 0 130, 40 100" stroke="#654321" stroke-width="12" fill="url(#furGradient)"/> <!-- Front leg -->
    <path d="M 170 180 Q 200 130, 160 100" stroke="#654321" stroke-width="12" fill="url(#furGradient)"/> <!-- Back leg -->
    <path d="M 140 220 Q 180 180, 200 220 Q 180 240, 140 220" fill="#8B4513"/> <!-- Tail -->
  </g>
  
  <!-- Second Squirrel -->
  <g transform="translate(300, 220) scale(0.75) rotate(15)">
    <ellipse cx="100" cy="200" rx="70" ry="90" fill="url(#furGradient)"/> <!-- Body -->
    <circle cx="100" cy="100" r="60" fill="url(#furGradient)"/> <!-- Head -->
    <path d="M 60 90 Q 100 40, 140 90" stroke="#654321" stroke-width="8" fill="none"/> <!-- Ear -->
    <circle cx="80" cy="90" r="10" fill="black"/> <!-- Eye -->
    <path d="M 90 110 Q 100 120, 110 110" stroke="black" stroke-width="3" fill="none"/> <!-- Nose -->
    <path d="M 30 180 Q 0 130, 40 100" stroke="#654321" stroke-width="12" fill="url(#furGradient)"/> <!-- Front leg -->
    <path d="M 170 180 Q 200 130, 160 100" stroke="#654321" stroke-width="12" fill="url(#furGradient)"/> <!-- Back leg -->
    <path d="M 140 220 Q 180 180, 200 220 Q 180 240, 140 220" fill="#8B4513"/> <!-- Tail -->
  </g>
</svg>