<svg xmlns="http://www.w3.org/2000/svg" viewBox="0 0 512 512">
  <path d="M256 80c-70 0-128 58-128 128 0 140 128 224 128 224s128-84 128-224c0-70-58-128-128-128z" fill="#ff4136"/>
  <path d="M256 80c-70 0-128 58-128 128 0 20 5 40 13 60 25-90 107-156 205-156 7 0 14 0 21 1-26-20-58-33-94-33z" fill="#ff725c"/>
  <path d="M384 208c0-70-58-128-128-128v352s128-84 128-224z" fill="#e60000"/>
  <path d="M256 50l30 30h-60z" fill="#3d9970"/>
  <circle cx="200" cy="250" r="20" fill="#ffdc00"/>
  <circle cx="300" cy="230" r="20" fill="#ffdc00"/>
  <circle cx="250" cy="300" r="20" fill="#ffdc00"/>
</svg>