<svg xmlns="http://www.w3.org/2000/svg" viewBox="0 0 512 512">
  <!-- Bookshelf -->
  <rect x="50" y="50" width="412" height="412" fill="#8B4513" />
  <rect x="60" y="60" width="392" height="392" fill="#D2691E" />
  
  <!-- Shelves -->
  <rect x="60" y="170" width="392" height="10" fill="#8B4513" />
  <rect x="60" y="290" width="392" height="10" fill="#8B4513" />
  <rect x="60" y="410" width="392" height="10" fill="#8B4513" />
  
  <!-- Books -->
  <rect x="70" y="80" width="30" height="80" fill="#FF0000" />
  <rect x="105" y="80" width="40" height="80" fill="#0000FF" />
  <rect x="150" y="80" width="25" height="80" fill="#008000" />
  <rect x="180" y="80" width="35" height="80" fill="#FFA500" />
  
  <rect x="70" y="190" width="45" height="90" fill="#800080" />
  <rect x="120" y="190" width="30" height="90" fill="#FFFF00" />
  <rect x="155" y="190" width="40" height="90" fill="#00FFFF" />
  
  <rect x="70" y="310" width="50" height="90" fill="#FF00FF" />
  <rect x="125" y="310" width="35" height="90" fill="#008080" />
  <rect x="165" y="310" width="40" height="90" fill="#800000" />
  <rect x="210" y="310" width="30" height="90" fill="#808000" />
</svg>