<svg xmlns="http://www.w3.org/2000/svg" viewBox="0 0 512 512">
  <defs>
    <linearGradient id="woodGradient" x1="0%" y1="0%" x2="100%" y2="0%">
      <stop offset="0%" style="stop-color:#8B4513;stop-opacity:1" />
      <stop offset="100%" style="stop-color:#D2691E;stop-opacity:1" />
    </linearGradient>
  </defs>
  
  <!-- Violin body -->
  <path d="M156 96 Q136 256 156 416 Q256 448 356 416 Q376 256 356 96 Q256 64 156 96 Z" fill="url(#woodGradient)" />
  
  <!-- Violin neck -->
  <rect x="240" y="32" width="32" height="96" fill="url(#woodGradient)" />
  
  <!-- Violin scroll -->
  <path d="M256 16 Q240 0 224 16 Q240 32 256 16 Z" fill="url(#woodGradient)" />
  
  <!-- F-holes -->
  <path d="M200 240 Q190 256 200 272 M312 240 Q322 256 312 272" fill="none" stroke="black" stroke-width="2" />
  
  <!-- Strings -->
  <line x1="256" y1="96" x2="256" y2="416" stroke="black" stroke-width="1" />
  <line x1="248" y1="96" x2="248" y2="416" stroke="black" stroke-width="1" />
  <line x1="264" y1="96" x2="264" y2="416" stroke="black" stroke-width="1" />
  <line x1="240" y1="96" x2="240" y2="416" stroke="black" stroke-width="1" />
  
  <!-- Bridge -->
  <rect x="240" y="256" width="32" height="8" fill="#8B4513" />
  
  <!-- Bow -->
  <path d="M96 448 Q256 480 416 448" fill="none" stroke="#8B4513" stroke-width="8" />
  <rect x="80" y="444" width="32" height="8" fill="#8B4513" />
</svg>