<svg xmlns="http://www.w3.org/2000/svg" viewBox="0 0 512 512">
  <defs>
    <radialGradient id="lavaGlow" cx="50%" cy="50%" r="50%" fx="50%" fy="50%">
      <stop offset="0%" style="stop-color:rgb(255,200,0);stop-opacity:1" />
      <stop offset="100%" style="stop-color:rgb(255,0,0);stop-opacity:0" />
    </radialGradient>
  </defs>
  
  <!-- Sky -->
  <rect x="0" y="0" width="512" height="512" fill="#333333" />
  
  <!-- Volcano -->
  <path d="M100,512 L256,100 L412,512 Z" fill="#4d3319" />
  
  <!-- Lava flow -->
  <path d="M236,150 Q256,50 276,150 T316,250 T256,400 T196,250 T236,150 Z" fill="#ff4500" />
  
  <!-- Eruption glow -->
  <circle cx="256" cy="150" r="100" fill="url(#lavaGlow)" opacity="0.7" />
  
  <!-- Lava particles -->
  <g fill="#ff6600">
    <circle cx="230" cy="100" r="8" />
    <circle cx="280" cy="80" r="6" />
    <circle cx="260" cy="60" r="10" />
    <circle cx="220" cy="70" r="7" />
    <circle cx="290" cy="110" r="9" />
  </g>
  
  <!-- Smoke -->
  <g fill="#999999" opacity="0.6">
    <path d="M220,80 Q240,40 260,80 T300,40 T260,10 T220,80 Z" />
    <path d="M200,60 Q220,20 240,60 T280,20 T240,0 T200,60 Z" transform="translate(20, -10)" />
  </g>
</svg>