<svg xmlns="http://www.w3.org/2000/svg" viewBox="0 0 512 512">
  <rect width="100%" height="100%" fill="#87CEEB"/>
  
  <!-- Mountains -->
  <polygon points="0,200 100,100 200,180 300,80 400,150 512,120 512,512 0,512" fill="#8B4513"/>
  
  <!-- Waterfall -->
  <path d="M250,0 Q270,100 250,200 Q230,300 250,400 L270,400 Q290,300 270,200 Q250,100 270,0 Z" fill="#E0FFFF"/>
  
  <!-- River -->
  <path d="M0,400 Q128,380 256,400 Q384,420 512,400 L512,512 L0,512 Z" fill="#4169E1"/>
  
  <!-- Foam -->
  <ellipse cx="260" cy="400" rx="30" ry="10" fill="#FFFFFF" opacity="0.7"/>
  <ellipse cx="240" cy="420" rx="25" ry="8" fill="#FFFFFF" opacity="0.6"/>
  <ellipse cx="280" cy="430" rx="20" ry="6" fill="#FFFFFF" opacity="0.5"/>
</svg>