<svg xmlns="http://www.w3.org/2000/svg" viewBox="0 0 512 512">
  <rect width="512" height="512" fill="#87CEEB"/>
  <rect width="512" height="150" y="362" fill="#F4A460"/>
  
  <!-- Cactus Building 1 -->
  <rect x="50" y="200" width="80" height="280" fill="#2E8B57"/>
  <rect x="70" y="150" width="40" height="50" fill="#2E8B57"/>
  <rect x="20" y="250" width="40" height="60" fill="#2E8B57"/>
  <rect x="120" y="280" width="40" height="60" fill="#2E8B57"/>
  
  <!-- Cactus Building 2 -->
  <rect x="200" y="150" width="100" height="330" fill="#3CB371"/>
  <rect x="220" y="100" width="60" height="50" fill="#3CB371"/>
  <rect x="170" y="200" width="50" height="80" fill="#3CB371"/>
  <rect x="280" y="230" width="50" height="80" fill="#3CB371"/>
  
  <!-- Cactus Building 3 -->
  <rect x="350" y="220" width="70" height="260" fill="#228B22"/>
  <rect x="370" y="170" width="30" height="50" fill="#228B22"/>
  <rect x="320" y="270" width="40" height="60" fill="#228B22"/>
  <rect x="410" y="300" width="40" height="60" fill="#228B22"/>
  
  <!-- Windows -->
  <circle cx="90" cy="240" r="10" fill="#FFD700"/>
  <circle cx="90" cy="290" r="10" fill="#FFD700"/>
  <circle cx="90" cy="340" r="10" fill="#FFD700"/>
  <circle cx="250" cy="200" r="15" fill="#FFD700"/>
  <circle cx="250" cy="260" r="15" fill="#FFD700"/>
  <circle cx="250" cy="320" r="15" fill="#FFD700"/>
  <circle cx="385" cy="270" r="10" fill="#FFD700"/>
  <circle cx="385" cy="320" r="10" fill="#FFD700"/>
  <circle cx="385" cy="370" r="10" fill="#FFD700"/>
  
  <!-- Sun -->
  <circle cx="450" cy="80" r="40" fill="#FFD700"/>
</svg>