<svg xmlns="http://www.w3.org/2000/svg" viewBox="0 0 512 512">
  <g fill="#808080">
    <!-- Body -->
    <ellipse cx="256" cy="356" rx="120" ry="100"/>
    
    <!-- Head -->
    <circle cx="256" cy="186" r="80"/>
    
    <!-- Ears -->
    <polygon points="196,126 216,66 256,106"/>
    <polygon points="316,126 296,66 256,106"/>
    
    <!-- Eyes -->
    <ellipse cx="226" cy="176" rx="15" ry="20"/>
    <ellipse cx="286" cy="176" rx="15" ry="20"/>
    
    <!-- Nose -->
    <polygon points="256,206 246,216 266,216" fill="#FFC0CB"/>
    
    <!-- Mouth -->
    <path d="M236 226 Q256 236 276 226" fill="none" stroke="#000" stroke-width="2"/>
    
    <!-- Whiskers -->
    <line x1="206" y1="216" x2="156" y2="206" stroke="#000" stroke-width="2"/>
    <line x1="206" y1="226" x2="156" y2="226" stroke="#000" stroke-width="2"/>
    <line x1="206" y1="236" x2="156" y2="246" stroke="#000" stroke-width="2"/>
    <line x1="306" y1="216" x2="356" y2="206" stroke="#000" stroke-width="2"/>
    <line x1="306" y1="226" x2="356" y2="226" stroke="#000" stroke-width="2"/>
    <line x1="306" y1="236" x2="356" y2="246" stroke="#000" stroke-width="2"/>
    
    <!-- Front Paws -->
    <ellipse cx="206" cy="446" rx="30" ry="20"/>
    <ellipse cx="306" cy="446" rx="30" ry="20"/>
    
    <!-- Tail -->
    <path d="M376 356 Q426 306 446 356" fill="none" stroke="#808080" stroke-width="20" stroke-linecap="round"/>
  </g>
</svg>