<svg viewBox="0 0 512 512" xmlns="http://www.w3.org/2000/svg">
  <rect width="100%" height="100%" fill="#87CEEB"/>
  
  <!-- Tree trunk -->
  <rect x="240" y="450" width="32" height="62" fill="#8B4513"/>
  
  <!-- Tree -->
  <polygon points="256,50 150,450 362,450" fill="#228B22"/>
  <polygon points="256,100 180,400 332,400" fill="#32CD32"/>
  <polygon points="256,150 210,350 302,350" fill="#3CB371"/>
  
  <!-- Lights -->
  <circle cx="220" cy="380" r="8" fill="red"/>
  <circle cx="280" cy="400" r="8" fill="yellow"/>
  <circle cx="240" cy="330" r="8" fill="blue"/>
  <circle cx="290" cy="290" r="8" fill="purple"/>
  <circle cx="210" cy="270" r="8" fill="orange"/>
  <circle cx="260" cy="220" r="8" fill="pink"/>
  <circle cx="230" cy="180" r="8" fill="cyan"/>
  <circle cx="270" cy="140" r="8" fill="lime"/>
  <circle cx="250" cy="100" r="8" fill="magenta"/>
  
  <!-- Star -->
  <polygon points="256,20 269,50 300,50 275,70 285,100 256,80 227,100 237,70 212,50 243,50" fill="gold"/>
</svg>