<svg xmlns="http://www.w3.org/2000/svg" viewBox="0 0 512 512">
  <rect width="512" height="512" fill="#87CEEB"/>
  
  <!-- Snow-covered ground -->
  <rect x="0" y="400" width="512" height="112" fill="#FFFFFF"/>
  
  <!-- Trees -->
  <polygon points="50,400 100,300 150,400" fill="#2E8B57"/>
  <polygon points="130,400 180,280 230,400" fill="#228B22"/>
  <polygon points="350,400 400,280 450,400" fill="#228B22"/>
  <polygon points="400,400 450,320 500,400" fill="#2E8B57"/>
  
  <!-- Cottage -->
  <rect x="200" y="300" width="160" height="120" fill="#8B4513"/>
  <polygon points="200,300 280,220 360,300" fill="#A52A2A"/>
  <rect x="250" y="350" width="40" height="70" fill="#4B0082"/>
  <rect x="310" y="320" width="30" height="30" fill="#ADD8E6"/>
  
  <!-- Chimney -->
  <rect x="320" y="240" width="20" height="40" fill="#696969"/>
  
  <!-- Smoke -->
  <circle cx="330" cy="220" r="10" fill="#D3D3D3" opacity="0.7"/>
  <circle cx="340" cy="200" r="8" fill="#D3D3D3" opacity="0.5"/>
  <circle cx="350" cy="180" r="6" fill="#D3D3D3" opacity="0.3"/>
  
  <!-- Snowflakes -->
  <circle cx="100" cy="100" r="3" fill="#FFFFFF"/>
  <circle cx="200" cy="150" r="3" fill="#FFFFFF"/>
  <circle cx="400" cy="80" r="3" fill="#FFFFFF"/>
  <circle cx="450" cy="200" r="3" fill="#FFFFFF"/>
  <circle cx="50" cy="250" r="3" fill="#FFFFFF"/>
</svg>