<svg xmlns="http://www.w3.org/2000/svg" viewBox="0 0 512 512">
  <path d="M256 80C149.1 80 62 167.1 62 274v74c0 16.6 13.4 30 30 30h20c16.6 0 30-13.4 30-30v-74c0-62.8 51.2-114 114-114s114 51.2 114 114v74c0 16.6 13.4 30 30 30h20c16.6 0 30-13.4 30-30v-74c0-106.9-87.1-194-194-194z" fill="#333"/>
  <path d="M142 348c0 33.1-26.9 60-60 60s-60-26.9-60-60 26.9-60 60-60 60 26.9 60 60zM490 348c0 33.1-26.9 60-60 60s-60-26.9-60-60 26.9-60 60-60 60 26.9 60 60z" fill="#333"/>
  <path d="M112 348c0 16.6-13.4 30-30 30s-30-13.4-30-30 13.4-30 30-30 30 13.4 30 30zM460 348c0 16.6-13.4 30-30 30s-30-13.4-30-30 13.4-30 30-30 30 13.4 30 30z" fill="#666"/>
</svg>