<svg xmlns="http://www.w3.org/2000/svg" viewBox="0 0 512 512">
  <defs>
    <radialGradient id="sky" cx="50%" cy="50%" r="50%">
      <stop offset="0%" stop-color="#87CEEB"/>
      <stop offset="100%" stop-color="#1E90FF"/>
    </radialGradient>
  </defs>
  
  <!-- Sky -->
  <rect x="0" y="0" width="512" height="512" fill="url(#sky)"/>
  
  <!-- Sun -->
  <circle cx="430" cy="80" r="40" fill="#FFD700"/>
  
  <!-- Ocean -->
  <path d="M0 300 Q 256 280 512 300 L512 512 L0 512 Z" fill="#00CED1"/>
  
  <!-- Island -->
  <ellipse cx="256" cy="380" rx="180" ry="70" fill="#F4A460"/>
  
  <!-- Palm tree 1 -->
  <line x1="180" y1="380" x2="160" y2="280" stroke="#8B4513" stroke-width="10"/>
  <path d="M160 280 C 140 260 130 270 120 290 M160 280 C 180 260 190 270 200 290 M160 280 C 150 250 160 240 180 250 M160 280 C 170 250 160 240 140 250" fill="none" stroke="#228B22" stroke-width="5"/>
  
  <!-- Palm tree 2 -->
  <line x1="330" y1="370" x2="350" y2="260" stroke="#8B4513" stroke-width="10"/>
  <path d="M350 260 C 330 240 320 250 310 270 M350 260 C 370 240 380 250 390 270 M350 260 C 340 230 350 220 370 230 M350 260 C 360 230 350 220 330 230" fill="none" stroke="#228B22" stroke-width="5"/>
</svg>