<svg xmlns="http://www.w3.org/2000/svg" viewBox="0 0 512 512">
  <rect width="512" height="512" fill="#1a4d2e" />
  
  <!-- Jungle background -->
  <path d="M0 0 L512 0 L512 512 L0 512 Z" fill="#2d6a4f" />
  <path d="M0 100 Q128 150 256 100 T512 100 L512 512 L0 512 Z" fill="#40916c" />
  <path d="M0 200 Q128 250 256 200 T512 200 L512 512 L0 512 Z" fill="#52b788" />
  
  <!-- Ruined temple -->
  <rect x="156" y="150" width="200" height="250" fill="#d6ccc2" />
  <rect x="181" y="175" width="150" height="200" fill="#5c4033" />
  <rect x="206" y="200" width="100" height="150" fill="#1a120b" />
  
  <!-- Temple details -->
  <rect x="131" y="125" width="250" height="25" fill="#d6ccc2" />
  <path d="M156 150 L256 50 L356 150 Z" fill="#d6ccc2" />
  <rect x="231" y="350" width="50" height="100" fill="#5c4033" />
  
  <!-- Cracks and vines -->
  <path d="M156 150 L186 200 M356 150 L326 200" stroke="#5c4033" stroke-width="3" />
  <path d="M256 50 L256 150 M206 175 L256 225 M306 175 L256 225" stroke="#5c4033" stroke-width="3" />
  <path d="M156 250 Q206 200 256 250 T356 250" fill="none" stroke="#2d6a4f" stroke-width="5" />
  <path d="M131 300 Q181 250 231 300 T331 300" fill="none" stroke="#2d6a4f" stroke-width="5" />
  
  <!-- Trees -->
  <path d="M50 512 L100 362 L150 512 Z" fill="#2d6a4f" />
  <path d="M400 512 L450 312 L500 512 Z" fill="#2d6a4f" />
</svg>