<svg xmlns="http://www.w3.org/2000/svg" viewBox="0 0 512 512">
  <rect width="100%" height="100%" fill="#87CEEB"/>
  
  <!-- Tree trunk -->
  <path d="M200 512V200 C200 100 250 50 300 50 S400 100 400 200 V512" fill="#8B4513"/>
  
  <!-- Tree leaves -->
  <circle cx="300" cy="150" r="100" fill="#90EE90"/>
  <circle cx="200" cy="200" r="80" fill="#90EE90"/>
  <circle cx="400" cy="200" r="80" fill="#90EE90"/>
  <circle cx="300" cy="250" r="90" fill="#90EE90"/>
  
  <!-- Koala body -->
  <ellipse cx="300" cy="350" rx="60" ry="70" fill="#A9A9A9"/>
  
  <!-- Koala head -->
  <circle cx="300" cy="270" r="50" fill="#A9A9A9"/>
  
  <!-- Koala ears -->
  <circle cx="260" cy="240" r="20" fill="#696969"/>
  <circle cx="340" cy="240" r="20" fill="#696969"/>
  
  <!-- Koala eyes -->
  <circle cx="285" cy="265" r="10" fill="black"/>
  <circle cx="315" cy="265" r="10" fill="black"/>
  
  <!-- Koala nose -->
  <ellipse cx="300" cy="285" rx="15" ry="10" fill="#4B0082"/>
  
  <!-- Koala arms -->
  <path d="M250 330 Q220 300 200 320" stroke="#A9A9A9" stroke-width="20" fill="none"/>
  <path d="M350 330 Q380 300 400 320" stroke="#A9A9A9" stroke-width="20" fill="none"/>
</svg>