<svg xmlns="http://www.w3.org/2000/svg" viewBox="0 0 512 512">
  <rect width="100%" height="100%" fill="#000033"/>
  
  <g fill="#FFFFFF">
    <circle cx="50" cy="60" r="1.5"/>
    <circle cx="120" cy="30" r="2"/>
    <circle cx="200" cy="70" r="1"/>
    <circle cx="280" cy="40" r="1.5"/>
    <circle cx="360" cy="80" r="1"/>
    <circle cx="440" cy="50" r="2"/>
    <circle cx="480" cy="90" r="1.5"/>
    
    <circle cx="30" cy="150" r="1"/>
    <circle cx="100" cy="180" r="1.5"/>
    <circle cx="180" cy="130" r="2"/>
    <circle cx="260" cy="170" r="1"/>
    <circle cx="340" cy="140" r="1.5"/>
    <circle cx="420" cy="160" r="1"/>
    <circle cx="490" cy="190" r="2"/>
    
    <circle cx="70" cy="250" r="1.5"/>
    <circle cx="150" cy="220" r="1"/>
    <circle cx="230" cy="270" r="2"/>
    <circle cx="310" cy="240" r="1"/>
    <circle cx="390" cy="280" r="1.5"/>
    <circle cx="460" cy="230" r="1"/>
    
    <circle cx="40" cy="340" r="2"/>
    <circle cx="120" cy="310" r="1"/>
    <circle cx="200" cy="350" r="1.5"/>
    <circle cx="280" cy="320" r="1"/>
    <circle cx="360" cy="360" r="2"/>
    <circle cx="440" cy="330" r="1.5"/>
    
    <circle cx="80" cy="430" r="1"/>
    <circle cx="160" cy="400" r="1.5"/>
    <circle cx="240" cy="440" r="2"/>
    <circle cx="320" cy="410" r="1"/>
    <circle cx="400" cy="450" r="1.5"/>
    <circle cx="470" cy="420" r="1"/>
    
    <circle cx="30" cy="480" r="1.5"/>
    <circle cx="110" cy="500" r="1"/>
    <circle cx="190" cy="470" r="2"/>
    <circle cx="270" cy="490" r="1"/>
    <circle cx="350" cy="460" r="1.5"/>
    <circle cx="430" cy="500" r="1"/>
    <circle cx="500" cy="480" r="2"/>
  </g>
</svg>