<svg xmlns="http://www.w3.org/2000/svg" viewBox="0 0 512 512">
  <rect width="100%" height="100%" fill="#001833"/>
  <circle cx="456" cy="56" r="32" fill="#f0f0f0" opacity="0.8"/>
  <path d="M256 160 C180 120 100 180 80 240 C60 300 80 360 120 400 C160 440 220 460 256 460 C292 460 352 440 392 400 C432 360 452 300 432 240 C412 180 332 120 256 160 Z" fill="#000000"/>
  <path d="M256 160 C220 140 180 160 160 200 C140 240 160 280 200 300 C240 320 272 300 256 260 C240 220 220 180 256 160 Z" fill="#000000"/>
  <path d="M256 160 C292 140 332 160 352 200 C372 240 352 280 312 300 C272 320 240 300 256 260 C272 220 292 180 256 160 Z" fill="#000000"/>
  <ellipse cx="216" cy="260" rx="8" ry="12" fill="#001833"/>
  <ellipse cx="296" cy="260" rx="8" ry="12" fill="#001833"/>
</svg>