<svg xmlns="http://www.w3.org/2000/svg" viewBox="0 0 512 512">
  <rect width="100%" height="100%" fill="#87CEEB"/>
  
  <!-- Pig body -->
  <ellipse cx="256" cy="280" rx="160" ry="140" fill="#FFC0CB"/>
  
  <!-- Pig head -->
  <circle cx="256" cy="200" r="100" fill="#FFC0CB"/>
  
  <!-- Pig ears -->
  <path d="M176 160 Q196 120 216 160" fill="#FFB6C1" stroke="#FF69B4" stroke-width="4"/>
  <path d="M336 160 Q316 120 296 160" fill="#FFB6C1" stroke="#FF69B4" stroke-width="4"/>
  
  <!-- Pig snout -->
  <ellipse cx="256" cy="220" rx="40" ry="30" fill="#FFB6C1"/>
  <circle cx="246" cy="220" r="10" fill="#000"/>
  <circle cx="266" cy="220" r="10" fill="#000"/>
  
  <!-- Pig eyes -->
  <circle cx="226" cy="180" r="15" fill="#000"/>
  <circle cx="286" cy="180" r="15" fill="#000"/>
  
  <!-- Backpack -->
  <rect x="176" y="240" width="160" height="180" rx="20" fill="#4169E1"/>
  <rect x="196" y="260" width="120" height="20" fill="#6495ED"/>
  <circle cx="256" cy="300" r="20" fill="#6495ED"/>
  
  <!-- Backpack straps -->
  <path d="M176 280 Q216 200 256 280" fill="none" stroke="#4169E1" stroke-width="20"/>
  <path d="M336 280 Q296 200 256 280" fill="none" stroke="#4169E1" stroke-width="20"/>
</svg>