<svg xmlns="http://www.w3.org/2000/svg" viewBox="0 0 512 512">
  <defs>
    <linearGradient id="bellGradient" x1="0%" y1="0%" x2="100%" y2="100%">
      <stop offset="0%" style="stop-color:#FFD700"/>
      <stop offset="100%" style="stop-color:#FFA500"/>
    </linearGradient>
  </defs>
  
  <!-- Bell -->
  <path fill="url(#bellGradient)" d="M256 80 Q156 80 156 220 V360 Q156 400 196 400 H316 Q356 400 356 360 V220 Q356 80 256 80 Z"/>
  
  <!-- Bell Bottom -->
  <ellipse cx="256" cy="400" rx="80" ry="20" fill="#FFD700"/>
  
  <!-- Bell Clapper -->
  <path fill="#4A4A4A" d="M256 380 Q256 420 256 460 Q266 470 276 460 Q276 420 276 380 Z"/>
  
  <!-- Red Ribbon -->
  <path fill="#FF0000" d="M226 170 Q256 140 286 170 Q296 180 296 190 Q296 200 286 210 Q271 225 256 210 Q241 225 226 210 Q216 200 216 190 Q216 180 226 170 Z"/>
  <rect x="246" y="190" width="20" height="100" fill="#FF0000"/>
</svg>