<svg xmlns="http://www.w3.org/2000/svg" viewBox="0 0 512 512">
  <rect width="512" height="512" fill="#87CEEB"/>
  <rect y="400" width="512" height="112" fill="#8B4513"/>
  
  <!-- Plants -->
  <path d="M50 400 Q75 350 100 400" stroke="#228B22" stroke-width="8" fill="none"/>
  <path d="M150 400 Q175 320 200 400" stroke="#228B22" stroke-width="8" fill="none"/>
  <path d="M250 400 Q275 330 300 400" stroke="#228B22" stroke-width="8" fill="none"/>
  
  <!-- Robot -->
  <rect x="350" y="300" width="100" height="120" fill="#A9A9A9"/>
  <rect x="370" y="340" width="60" height="40" fill="#4682B4"/>
  <circle cx="400" cy="320" r="20" fill="#FFD700"/>
  <rect x="340" y="420" width="30" height="60" fill="#A9A9A9"/>
  <rect x="430" y="420" width="30" height="60" fill="#A9A9A9"/>
  
  <!-- Watering can -->
  <path d="M320 380 Q300 360 320 340 L380 340 Q400 360 380 380 Z" fill="#4682B4"/>
  <path d="M350 340 L350 300 Q360 290 370 300 L370 340" fill="#4682B4"/>
  
  <!-- Water drops -->
  <circle cx="330" cy="390" r="5" fill="#1E90FF"/>
  <circle cx="340" cy="410" r="5" fill="#1E90FF"/>
  <circle cx="350" cy="430" r="5" fill="#1E90FF"/>
</svg>