<svg viewBox="0 0 512 512" xmlns="http://www.w3.org/2000/svg">
  <defs>
    <radialGradient id="sharkGradient" cx="50%" cy="50%" r="50%" fx="25%" fy="25%">
      <stop offset="0%" stop-color="#a0c8ff"/>
      <stop offset="100%" stop-color="#4080ff"/>
    </radialGradient>
  </defs>
  
  <!-- Shark body -->
  <path d="M100 256 C100 150 200 100 300 100 C400 100 450 200 450 256 C450 312 400 412 300 412 C200 412 100 362 100 256 Z" fill="url(#sharkGradient)"/>
  
  <!-- Shark fin -->
  <path d="M300 100 L350 50 L350 150 Z" fill="#4080ff"/>
  
  <!-- Shark tail -->
  <path d="M450 256 L500 200 L500 312 Z" fill="#4080ff"/>
  
  <!-- Shark eye -->
  <circle cx="200" cy="220" r="15" fill="white"/>
  <circle cx="200" cy="220" r="7" fill="black"/>
  
  <!-- Shark gill slits -->
  <path d="M250 270 Q270 280 250 290 M270 260 Q290 270 270 280 M290 250 Q310 260 290 270" stroke="white" stroke-width="5" fill="none"/>
  
  <!-- Balloon string -->
  <path d="M300 412 Q310 462 300 512" stroke="gray" stroke-width="3" fill="none"/>
</svg>