<svg width="512" height="512" viewBox="0 0 512 512" xmlns="http://www.w3.org/2000/svg">
  <!-- Bookshelf Frame -->
  <rect x="100" y="50" width="312" height="412" fill="#8B4513" stroke="#654321" stroke-width="4"/>
  
  <!-- Shelves -->
  <line x1="100" y1="150" x2="412" y2="150" stroke="#654321" stroke-width="4"/>
  <line x1="100" y1="256" x2="412" y2="256" stroke="#654321" stroke-width="4"/>
  <line x1="100" y1="362" x2="412" y2="362" stroke="#654321" stroke-width="4"/>
  
  <!-- Books on First Shelf -->
  <rect x="110" y="110" width="60" height="30" fill="#FF5733"/>
  <rect x="180" y="110" width="60" height="30" fill="#33FF57"/>
  <rect x="250" y="110" width="60" height="30" fill="#3357FF"/>
  <rect x="320" y="110" width="60" height="30" fill="#F1C40F"/>
  
  <!-- Books on Second Shelf -->
  <rect x="110" y="216" width="60" height="30" fill="#FF33A6"/>
  <rect x="180" y="216" width="60" height="30" fill="#A633FF"/>
  <rect x="250" y="216" width="60" height="30" fill="#33FFF5"/>
  <rect x="320" y="216" width="60" height="30" fill="#FF8C33"/>
  
  <!-- Books on Third Shelf -->
  <rect x="110" y="322" width="60" height="30" fill="#FFD433"/>
  <rect x="180" y="322" width="60" height="30" fill="#FF33F6"/>
  <rect x="250" y="322" width="60" height="30" fill="#33FF57"/>
  <rect x="320" y="322" width="60" height="30" fill="#8E44AD"/>
</svg>