<svg width="512" height="512" viewBox="0 0 512 512" xmlns="http://www.w3.org/2000/svg">
  <!-- Background -->
  <rect width="512" height="512" fill="#001d3d"/>
  
  <!-- Full Moon -->
  <circle cx="400" cy="112" r="60" fill="#f0e68c"/>
  
  <!-- Hill -->
  <path d="M0,400 C150,300 350,500 512,400 L512,512 L0,512 Z" fill="#2e8b57"/>
  
  <!-- Wolf Silhouette -->
  <g transform="translate(256, 350) scale(1.2)">
    <!-- Body -->
    <path d="M-40,0 Q-50,-30 -20,-30 Q-10,-40 0,-30 Q10,-40 20,-30 Q50,-30 40,0 Q35,10 25,10 Q15,10 5,5 Q-5,10 -15,10 Q-25,10 -40,0 Z" fill="#000"/>
    <!-- Head -->
    <circle cx="25" cy="-25" r="10" fill="#000"/>
    <!-- Ears -->
    <polygon points="20,-30 22,-35 18,-35" fill="#000"/>
    <polygon points="30,-30 32,-35 28,-35" fill="#000"/>
    <!-- Legs -->
    <rect x="-30" y="0" width="5" height="15" fill="#000"/>
    <rect x="-15" y="0" width="5" height="15" fill="#000"/>
    <rect x="10" y="0" width="5" height="15" fill="#000"/>
    <rect x="25" y="0" width="5" height="15" fill="#000"/>
    <!-- Tail -->
    <path d="M-40,0 Q-50,5 -45,15 Q-40,5 -40,0 Z" fill="#000"/>
    <!-- Howling Mouth -->
    <path d="M25,-25 Q28,-28 25,-31 Q22,-28 25,-25 Z" fill="#ff4500"/>
  </g>
  
  <!-- Stars -->
  <g fill="#fff">
    <circle cx="100" cy="80" r="2"/>
    <circle cx="150" cy="150" r="2"/>
    <circle cx="200" cy="60" r="2"/>
    <circle cx="300" cy="120" r="2"/>
    <circle cx="350" cy="80" r="2"/>
    <circle cx="420" cy="160" r="2"/>
    <circle cx="480" cy="90" r="2"/>
  </g>
</svg>