<svg width="512" height="512" viewBox="0 0 512 512" xmlns="http://www.w3.org/2000/svg">
  <!-- Background -->
  <rect width="512" height="512" fill="#FFFFFF"/>

  <!-- Cat Face -->
  <circle cx="256" cy="256" r="200" fill="#FFD700" stroke="#000000" stroke-width="4"/>

  <!-- Left Ear -->
  <polygon points="156,116 206,196 106,196" fill="#FFD700" stroke="#000000" stroke-width="4"/>

  <!-- Right Ear -->
  <polygon points="356,116 306,196 406,196" fill="#FFD700" stroke="#000000" stroke-width="4"/>

  <!-- Left Eye -->
  <circle cx="196" cy="256" r="30" fill="#FFFFFF" stroke="#000000" stroke-width="2"/>
  <circle cx="196" cy="256" r="10" fill="#000000"/>

  <!-- Right Eye -->
  <circle cx="316" cy="256" r="30" fill="#FFFFFF" stroke="#000000" stroke-width="2"/>
  <circle cx="316" cy="256" r="10" fill="#000000"/>

  <!-- Nose -->
  <polygon points="256,316 246,336 266,336" fill="#000000"/>

  <!-- Mouth -->
  <path d="M246,336 C246,356 266,356 266,336" stroke="#000000" stroke-width="2" fill="none"/>

  <!-- Whiskers Left -->
  <line x1="206" y1="326" x2="146" y2="306" stroke="#000000" stroke-width="2"/>
  <line x1="206" y1="336" x2="146" y2="336" stroke="#000000" stroke-width="2"/>
  <line x1="206" y1="346" x2="146" y2="366" stroke="#000000" stroke-width="2"/>

  <!-- Whiskers Right -->
  <line x1="306" y1="326" x2="366" y2="306" stroke="#000000" stroke-width="2"/>
  <line x1="306" y1="336" x2="366" y2="336" stroke="#000000" stroke-width="2"/>
  <line x1="306" y1="346" x2="366" y2="366" stroke="#000000" stroke-width="2"/>
</svg>