<svg width="512" height="512" viewBox="0 0 512 512" xmlns="http://www.w3.org/2000/svg">
  <!-- Body -->
  <ellipse cx="256" cy="320" rx="100" ry="60" fill="#A0D8EF"/>
  
  <!-- Head -->
  <circle cx="256" cy="200" r="50" fill="#A0D8EF"/>
  
  <!-- Ears -->
  <polygon points="220,180 240,150 260,180" fill="#A0D8EF"/>
  <polygon points="300,180 280,150 260,180" fill="#A0D8EF"/>
  
  <!-- Eyes -->
  <circle cx="245" cy="195" r="5" fill="#000"/>
  <circle cx="267" cy="195" r="5" fill="#000"/>
  
  <!-- Nose -->
  <polygon points="256,205 251,210 261,210" fill="#000"/>
  
  <!-- Mouth -->
  <path d="M251,210 Q256,215 261,210" stroke="#000" stroke-width="2" fill="none"/>
  
  <!-- Whiskers -->
  <line x1="230" y1="210" x2="210" y2="205" stroke="#000" stroke-width="2"/>
  <line x1="230" y1="215" x2="210" y2="215" stroke="#000" stroke-width="2"/>
  <line x1="230" y1="220" x2="210" y2="225" stroke="#000" stroke-width="2"/>
  
  <!-- Tail -->
  <path d="M356 320 Q400 300 356 280" stroke="#A0D8EF" stroke-width="10" fill="none" stroke-linecap="round"/>
  
  <!-- Front Legs -->
  <line x1="220" y1="320" x2="220" y2="380" stroke="#A0D8EF" stroke-width="20" stroke-linecap="round"/>
  <line x1="292" y1="320" x2="292" y2="380" stroke="#A0D8EF" stroke-width="20" stroke-linecap="round"/>
  
  <!-- Paws -->
  <ellipse cx="220" cy="380" rx="20" ry="10" fill="#A0D8EF"/>
  <ellipse cx="292" cy="380" rx="20" ry="10" fill="#A0D8EF"/>
</svg>