<svg xmlns="http://www.w3.org/2000/svg" viewBox="0 0 512 512">
  <!-- Background -->
  <rect width="512" height="512" fill="#e0f7fa"/>
  
  <!-- Bamboo Stalks -->
  <!-- Stalk 1 -->
  <rect x="120" y="100" width="20" height="350" fill="#4CAF50" />
  <!-- Nodes for Stalk 1 -->
  <circle cx="130" cy="150" r="10" fill="#388E3C"/>
  <circle cx="130" cy="250" r="10" fill="#388E3C"/>
  <circle cx="130" cy="350" r="10" fill="#388E3C"/>
  
  <!-- Leaves for Stalk 1 -->
  <path d="M130,100 Q110,80 130,60 Q150,80 130,100" fill="#2E7D32"/>
  <path d="M130,100 Q150,80 130,60 Q110,80 130,100" fill="#2E7D32"/>
  
  <!-- Stalk 2 -->
  <rect x="240" y="120" width="20" height="330" fill="#4CAF50" />
  <!-- Nodes for Stalk 2 -->
  <circle cx="250" cy="170" r="10" fill="#388E3C"/>
  <circle cx="250" cy="270" r="10" fill="#388E3C"/>
  <circle cx="250" cy="370" r="10" fill="#388E3C"/>
  
  <!-- Leaves for Stalk 2 -->
  <path d="M250,120 Q230,100 250,80 Q270,100 250,120" fill="#2E7D32"/>
  <path d="M250,120 Q270,100 250,80 Q230,100 250,120" fill="#2E7D32"/>
  
  <!-- Stalk 3 -->
  <rect x="360" y="80" width="20" height="370" fill="#4CAF50" />
  <!-- Nodes for Stalk 3 -->
  <circle cx="370" cy="130" r="10" fill="#388E3C"/>
  <circle cx="370" cy="230" r="10" fill="#388E3C"/>
  <circle cx="370" cy="330" r="10" fill="#388E3C"/>
  
  <!-- Leaves for Stalk 3 -->
  <path d="M370,80 Q350,60 370,40 Q390,60 370,80" fill="#2E7D32"/>
  <path d="M370,80 Q390,60 370,40 Q350,60 370,80" fill="#2E7D32"/>
  
  <!-- Additional Details (optional) -->
  <!-- Ground -->
  <rect y="450" width="512" height="62" fill="#a5d6a7"/>
</svg>