<svg xmlns="http://www.w3.org/2000/svg" viewBox="0 0 512 512">
  <!-- Leaf -->
  <path d="M256,50 C100,150 100,362 256,462 C412,362 412,150 256,50 Z" fill="#4CAF50"/>
  
  <!-- Ladybug Body -->
  <circle cx="256" cy="200" r="50" fill="#FF0000" stroke="#000" stroke-width="4"/>
  
  <!-- Ladybug Head -->
  <circle cx="256" cy="150" r="30" fill="#FF0000" stroke="#000" stroke-width="4"/>
  
  <!-- Ladybug Spots -->
  <circle cx="236" cy="180" r="5" fill="#000"/>
  <circle cx="276" cy="180" r="5" fill="#000"/>
  <circle cx="236" cy="220" r="5" fill="#000"/>
  <circle cx="276" cy="220" r="5" fill="#000"/>
  <circle cx="256" cy="200" r="5" fill="#000"/>
  
  <!-- Ladybug Antennae -->
  <line x1="246" y1="140" x2="236" y2="120" stroke="#000" stroke-width="2"/>
  <line x1="266" y1="140" x2="276" y2="120" stroke="#000" stroke-width="2"/>
  
  <!-- Leaf Veins -->
  <line x1="256" y1="50" x2="256" y2="462" stroke="#2E7D32" stroke-width="2"/>
  <line x1="256" y1="50" x2="356" y2="150" stroke="#2E7D32" stroke-width="2"/>
  <line x1="256" y1="50" x2="156" y2="150" stroke="#2E7D32" stroke-width="2"/>
  <line x1="256" y1="462" x2="356" y2="362" stroke="#2E7D32" stroke-width="2"/>
  <line x1="256" y1="462" x2="156" y2="362" stroke="#2E7D32" stroke-width="2"/>
</svg>