<svg width="512" height="512" viewBox="0 0 512 512" xmlns="http://www.w3.org/2000/svg">
  <!-- Sky Background -->
  <rect width="512" height="512" fill="#87CEEB" />

  <!-- Ground -->
  <rect y="400" width="512" height="112" fill="#228B22" />

  <!-- Trees on the left -->
  <polygon points="100,400 70,300 130,300" fill="#2E8B57" />
  <rect x="90" y="300" width="20" height="100" fill="#8B4513" />

  <polygon points="150,400 120,280 180,280" fill="#2E8B57" />
  <rect x="140" y="280" width="20" height="120" fill="#8B4513" />

  <!-- Trees on the right -->
  <polygon points="400,400 370,300 430,300" fill="#2E8B57" />
  <rect x="390" y="300" width="20" height="100" fill="#8B4513" />

  <polygon points="450,400 420,280 480,280" fill="#2E8B57" />
  <rect x="440" y="280" width="20" height="120" fill="#8B4513" />

  <!-- Grand Piano -->
  <rect x="200" y="300" width="112" height="20" fill="#000000" />
  <rect x="200" y="320" width="112" height="10" fill="#000000" />
  <ellipse cx="256" cy="330" rx="56" ry="10" fill="#000000" />
  <rect x="220" y="330" width="72" height="80" fill="#000000" />
  <rect x="240" y="410" width="32" height="10" fill="#000000" />

  <!-- Piano Keys -->
  <rect x="222" y="330" width="28" height="80" fill="#FFFFFF" />
  <rect x="262" y="330" width="28" height="80" fill="#FFFFFF" />
  <rect x="302" y="330" width="28" height="80" fill="#FFFFFF" />

  <!-- Piano Pedals -->
  <ellipse cx="256" cy="420" rx="20" ry="5" fill="#696969" />
</svg>