<svg width="512" height="512" viewBox="0 0 512 512" xmlns="http://www.w3.org/2000/svg">
  <!-- Background -->
  <rect width="512" height="512" fill="#e0f7fa"/>

  <!-- Ground -->
  <rect y="400" width="512" height="112" fill="#8bc34a"/>

  <!-- Sun -->
  <circle cx="80" cy="80" r="50" fill="#ffeb3b"/>

  <!-- Robot Body -->
  <rect x="220" y="250" width="72" height="100" fill="#757575" stroke="#424242" stroke-width="4"/>

  <!-- Robot Head -->
  <rect x="235" y="200" width="42" height="50" fill="#9e9e9e" stroke="#424242" stroke-width="4"/>
  <!-- Eyes -->
  <circle cx="250" cy="220" r="5" fill="#000"/>
  <circle cx="270" cy="220" r="5" fill="#000"/>

  <!-- Robot Arms -->
  <line x1="220" y1="260" x2="180" y2="300" stroke="#424242" stroke-width="8" stroke-linecap="round"/>
  <line x1="292" y1="260" x2="332" y2="300" stroke="#424242" stroke-width="8" stroke-linecap="round"/>

  <!-- Robot Legs -->
  <line x1="240" y1="350" x2="240" y2="400" stroke="#424242" stroke-width="8" stroke-linecap="round"/>
  <line x1="272" y1="350" x2="272" y2="400" stroke="#424242" stroke-width="8" stroke-linecap="round"/>

  <!-- Watering Can -->
  <path d="M332,300 Q340,280 360,280 Q380,280 380,300 Q380,320 360,320 Q350,320 350,310" fill="#64b5f6" stroke="#424242" stroke-width="2"/>
  <path d="M360,280 L380,270" stroke="#424242" stroke-width="4" stroke-linecap="round"/>

  <!-- Plants -->
  <!-- Plant 1 -->
  <rect x="150" y="350" width="10" height="50" fill="#6d4c41"/>
  <circle cx="155" cy="340" r="15" fill="#4caf50"/>

  <!-- Plant 2 -->
  <rect x="190" y="360" width="10" height="40" fill="#6d4c41"/>
  <circle cx="195" cy="350" r="12" fill="#81c784"/>

  <!-- Plant 3 -->
  <rect x="230" y="350" width="10" height="50" fill="#6d4c41"/>
  <circle cx="235" cy="340" r="15" fill="#4caf50"/>

  <!-- Plant 4 -->
  <rect x="270" y="360" width="10" height="40" fill="#6d4c41"/>
  <circle cx="275" cy="350" r="12" fill="#81c784"/>

  <!-- Plant 5 -->
  <rect x="310" y="350" width="10" height="50" fill="#6d4c41"/>
  <circle cx="315" cy="340" r="15" fill="#4caf50"/>
</svg>