<svg xmlns="http://www.w3.org/2000/svg" width="384" height="384" viewBox="0 0 384 384">
  <defs/>
  <path fill="rgb(92.941176%, 0%, 0%)" opacity="0.999" d="M137.828,381.258 C127.715,378.516 121.199,374.742 110.398,365.316 C98.742,354.004 90,340.461 79.027,318.344 C63.598,286.973 65.312,261.945 76.457,229.715 C88.113,195.773 97.371,160.801 107.312,126.344 C110.227,116.402 115.543,106.457 124.625,101.656 C134.566,96.512 146.738,98.57 157.711,100.801 C188.738,106.973 220.281,115.715 251.824,119.656 C272.055,122.055 300.168,116.398 315.426,133.543 C323.996,140.914 336.168,166.629 339.254,183.773 C341.996,193.543 343.023,205.031 343.023,222.172 C342.168,260.402 334.965,294.344 319.879,325.715 C309.25,347.484 297.938,361.887 286.449,371.316 C269.137,384.344 255.934,385.715 230.219,376.117 C214.789,369.945 212.047,369.43 200.047,369.262 C191.305,370.289 183.074,372.863 174.676,376.805 C159.941,382.629 147.258,384.172 137.828,381.258"/>
  <path fill="rgb(2.745098%, 77.647059%, 1.960784%)" opacity="0.993" d="M-1.371,240.172 C-1.199,186.172 -1.027,185.656 3.602,173.484 C12.859,147.941 26.402,130.797 48.516,116.914 C64.285,107.312 86.914,96.516 98.914,93.258 C106.285,90.859 106.629,91.371 110.227,95.656 C112.457,97.887 116.055,105.258 118.113,112.285 C122.055,122.742 122.57,126.855 123.086,152.57 C121.887,179.141 121.371,182.398 117.086,194.57 C106.973,223.883 91.543,243.77 63.602,264.512 C44.574,278.57 29.316,286.625 12.516,290.91 C5.145,292.797 -0.855,294.168 -1.027,294.34 C-1.543,294.516 -1.543,270.172 -1.371,240.172"/>
  <path fill="rgb(3.529412%, 1.176471%, 2.352941%)" d="M175.715,168.688 C170.742,163.543 168.516,152.059 167.484,123.43 C166.797,106.973 166.285,90 160.797,74.402 C158.227,67.203 154.281,61.031 149.824,54.859 C145.883,49.203 131.824,39.773 136.969,31.547 C138.684,28.805 141.77,27.262 145.027,26.574 C148.113,25.719 151.371,25.547 154.457,24.688 C161.145,22.629 173.656,12.172 178.801,22.457 C180.688,26.059 180.172,30.516 179.316,34.629 C176.059,50.398 176.918,67.027 180.004,82.801 C183.434,100.629 188.746,118.285 187.375,136.629 C187.375,161.828 185.145,170.742 180.348,170.57 C178.801,170.914 176.57,169.887 175.715,168.688"/>
  <path fill="rgb(2.352941%, 77.254902%, 1.176471%)" opacity="0.991" d="M225.602,134.059 C210,129.773 194.402,121.371 186.344,113.145 C182.914,109.543 180,106.457 179.145,105.945 C178.629,100.633 191.316,74.402 198.688,66.004 C212.059,48.52 241.375,28.805 266.746,21.945 C283.203,16.801 315.773,17.145 341.832,22.973 C352.977,25.203 367.031,27.258 373.547,26.914 L385.375,26.742 L385.031,32.398 C384.859,40.285 374.402,64.969 364.973,79.027 C349.031,103.371 322.629,122.57 291.773,132.855 C273.43,139.199 244.113,139.715 225.602,134.059"/>
</svg>

