<svg xmlns="http://www.w3.org/2000/svg" width="384" height="384" viewBox="0 0 384 384">
  <defs/>
  <path fill="rgb(0%, 91.372549%, 80%)" opacity="0.983" d="M154.457,56.914 C150.172,55.199 148.801,46.629 146.227,7.715 L145.371,-1.715 L168,-1.199 L169.199,11.828 C169.543,19.199 170.914,31.543 171.77,39.43 C173.484,52.457 173.141,54 170.055,56.23 C165.941,59.312 160.457,59.484 154.457,56.914"/>
  <path fill="rgb(80%, 0%, 90.980392%)" opacity="0.998" d="M106.113,304.801 C100.113,301.371 99.77,301.887 108.684,270.688 C112.453,258.516 119.828,232.801 124.969,213.258 C130.625,193.371 137.656,167.488 141.254,155.828 C144.855,143.656 147.77,131.828 148.625,129.086 L150.168,124.801 L83.824,124.285 C41.996,125.141 16.625,124.801 14.91,122.742 C11.996,120.855 11.48,118.629 12.168,111.43 C11.824,100.457 16.625,93.945 26.055,91.715 L32.91,90.859 L34.453,79.031 C36,54.344 38.742,51.43 74.059,53.145 C94.289,54.516 102.172,54.688 115.031,51.086 C129.43,48 133.031,48.172 141.945,49.543 C168.516,57.086 171.602,55.543 175.887,38.914 C177.602,33.258 180.859,22.113 182.914,13.371 L187.887,-1.715 L199.715,-1.371 C205.715,-1.371 210.688,-1.027 211.027,-0.855 C211.027,-0.168 208.285,9.43 205.371,21.086 C195.602,53.828 195.43,50.914 203.141,52.629 C206.742,53.828 214.969,54.688 221.484,54 C236.57,54.344 239.484,57.43 241.027,76.973 L241.883,90.688 L248.738,91.715 C252.168,92.742 256.281,95.656 258.34,98.402 C262.453,103.887 265.027,119.145 262.109,121.547 C261.594,123.777 243.766,125.148 218.395,124.461 L175.707,124.461 L172.449,139.203 C162.164,171.262 134.906,266.574 128.391,292.461 L123.762,308.062 L117.418,307.719 C114,307.199 108.688,306 106.113,304.801"/>
  <path fill="rgb(98.431373%, 83.137255%, 0%)" opacity="0.976" d="M75.941,383.312 C72.172,383.141 68.914,372.855 69.598,364.969 C70.453,361.539 69.941,354.168 68.227,348.684 C65.484,340.797 65.141,337.371 66.34,325.883 C69.254,314.398 69.254,311.652 66.512,305.652 C64.797,301.539 63.254,293.48 62.57,286.109 C63.77,279.422 62.57,269.652 60.684,265.195 C59.484,260.566 58.285,251.996 57.598,246.168 C58.969,238.797 57.426,231.082 52.969,220.109 C47.484,205.023 47.141,203.137 47.996,183.254 C49.367,169.195 48.168,159.082 45.254,150.684 C44.055,143.484 43.195,134.914 43.539,130.969 L44.227,124.625 L95.996,124.281 L147.938,124.281 L148.109,128.566 C146.223,134.738 129.254,194.738 113.309,253.367 C109.879,265.023 97.367,288.168 106.793,298.453 C109.707,301.539 113.992,303.426 118.105,302.738 C130.793,300.508 132.336,279.254 134.734,269.824 C147.422,222.34 167.477,152.055 172.105,135.254 L176.219,124.109 L230.734,124.625 L228.336,148.625 C228.68,181.367 226.965,194.91 220.621,209.996 C215.309,221.824 215.137,223.195 216.852,241.023 C217.539,257.652 216.852,261.594 213.422,270.852 C209.137,279.082 207.422,284.566 209.309,303.082 C208.621,321.254 207.422,327.426 204.164,335.824 C201.078,344.395 200.051,348.34 201.934,357.766 C203.133,372.336 200.219,382.109 194.391,383.309 C190.285,385.199 81.602,385.543 75.941,383.312"/>
  <path fill="rgb(96.078431%, 98.431373%, 99.607843%)" opacity="0.824" d="M170.059,34.457 C169.371,26.742 168.344,16.457 167.828,11.312 L166.629,1.715 L176.23,1.543 C181.203,1.371 185.488,1.887 185.488,2.742 C185.316,4.801 174.344,42.684 172.801,45.43 C171.941,46.801 170.914,42 170.059,34.457"/>
  <path fill="rgb(96.078431%, 54.509804%, 9.411765%)" opacity="0.982" d="M77.145,166.629 C72.859,161.828 72,157.715 73.887,151.371 C75.258,146.742 77.145,145.543 81.773,144.684 C86.574,143.828 88.629,144.34 92.059,147.426 C97.715,152.57 98.23,163.195 92.574,166.625 C87.602,170.57 80.57,170.23 77.145,166.629"/>
  <path fill="rgb(53.72549%, 3.137255%, 85.882353%)" opacity="0.981" d="M70.801,223.543 C63.258,216.344 67.199,205.027 78,203.828 C87.258,202.629 95.145,215.484 89.312,222.684 C86.23,226.801 75.086,226.973 70.801,223.543"/>
  <path fill="rgb(55.294118%, 2.745098%, 88.627451%)" opacity="0.985" d="M173.484,238.113 C166.285,230.398 170.742,219.258 181.199,219.086 C184.629,218.742 188.742,219.773 190.285,221.316 C194.227,224.23 194.742,235.375 191.656,238.801 C188.23,242.742 176.914,242.23 173.484,238.113"/>
  <path fill="rgb(54.509804%, 3.137255%, 88.235294%)" opacity="0.985" d="M154.457,284.398 C147.602,277.199 152.398,264.168 161.828,264.34 C168.344,263.996 174.516,269.652 174.855,275.824 C175.027,286.285 161.484,291.941 154.457,284.398"/>
  <path fill="rgb(53.333333%, 0.392157%, 90.588235%)" opacity="0.985" d="M180.516,352.285 C172.973,345.086 178.285,330.684 188.23,330.344 C193.543,330.172 194.574,335.828 191.145,343.199 C189.43,346.113 189.602,347.828 191.316,349.543 C192.516,350.742 193.547,352.457 193.547,353.484 C193.887,356.398 184.113,355.371 180.516,352.285"/>
  <path fill="rgb(54.901961%, 1.960784%, 87.843137%)" opacity="0.989" d="M121.027,362.398 C116.055,357.598 116.227,350.398 121.199,345.426 C126.684,340.453 133.199,340.625 138,345.941 C143.145,351.426 142.973,359.828 137.484,363.254 C131.656,367.199 125.484,366.855 121.027,362.398"/>
  <path fill="rgb(61.960784%, 16.470588%, 64.705882%)" opacity="0.99" d="M182.914,354.344 C182.398,353.488 184.457,353.145 187.715,353.828 C193.199,354.516 194.742,352.973 191.145,349.371 C189.773,347.656 189.945,345.941 191.316,343.371 C194.574,337.543 194.059,332.227 190.289,331.199 C187.031,330.344 187.203,330.344 190.633,330.684 C194.574,331.199 194.918,332.055 194.402,343.199 C194.059,355.027 194.059,355.371 189.09,355.715 C186.344,355.887 183.43,355.371 182.914,354.344"/>
</svg>

