<svg xmlns="http://www.w3.org/2000/svg" width="384" height="384" viewBox="0 0 384 384">
  <defs/>
  <path fill="rgb(0.392157%, 9.803922%, 20.784314%)" opacity="0.994" d="M132.688,329.656 C134.918,325.371 140.918,315.086 146.059,306.344 C150.859,298.113 161.316,278.742 169.887,264 C177.945,249.77 189.945,226.629 196.801,213.258 C203.316,199.887 210,187.199 211.887,184.629 C215.656,180.344 217.199,180.344 244.285,180.688 C269.484,180.859 272.57,181.031 272.57,178.457 C273.086,176.57 276,164.227 278.742,150.516 C281.484,136.457 286.973,111.773 290.914,95.145 C295.027,78.516 299.828,58.117 301.199,49.375 L303.941,34.805 L297.598,30.176 C291.598,23.488 289.539,15.777 291.941,5.488 L293.312,-1.539 L324.168,-1.367 C349.195,-1.367 354.855,-1.023 355.883,0.52 C356.055,6.176 354.168,15.262 350.227,19.547 C345.254,24.859 337.539,27.434 332.914,33.262 C327.086,40.461 325.887,51.434 324,60.176 C320.398,76.117 316.801,92.062 313.371,107.832 C308.227,130.977 302.059,154.289 298.285,177.773 C297.77,181.375 298.285,181.031 321.43,180.859 C343.371,181.031 344.742,181.031 349.543,184.801 C357.941,192.688 356.742,199.543 337.715,247.199 C321.43,292.629 309.086,318.344 304.629,318.172 C301.887,317.656 291.258,328.629 288.344,334.113 C286.457,336.855 286.457,337.027 282.172,334.457 C273.602,327.941 256.973,333.258 246.344,333.941 C232.629,334.797 218.914,335.312 205.199,335.141 C193.371,335.141 181.199,333.426 169.371,333.941 C161.484,334.285 153.941,336 145.715,336.512 L128.398,337.715 L132.688,329.656"/>
  <path fill="rgb(84.313725%, 47.45098%, 0%)" opacity="0.99" d="M-0.855,374.23 C-1.027,365.145 0,362.574 7.375,350.059 C18.688,331.543 38.23,306.344 42.52,305.316 C47.664,303.773 60.863,308.918 64.633,313.547 C66.176,315.777 68.918,319.891 70.461,322.977 C72.348,326.746 76.633,329.832 81.773,332.234 C89.66,335.664 92.918,335.836 134.402,335.664 L178.801,335.148 L194.23,341.148 C214.629,348.863 229.887,349.035 239.832,341.836 C272.23,319.551 270.348,318.691 271.031,354.863 L271.375,383.836 L-1.195,384.523 L-0.855,374.23"/>
  <path fill="rgb(2.352941%, 18.039216%, 29.019608%)" opacity="0.93" d="M330,24 C333.77,11.484 335.828,10.285 339.086,17.828 C340.457,21.258 342.855,24 344.23,24.172 C346.973,24.516 331.375,32.914 328.461,33.086 C327.43,33.258 328.285,28.973 330,24"/>
  <path fill="rgb(48.627451%, 24.313725%, 1.960784%)" d="M107.145,335.484 C84.688,334.969 77.145,332.398 71.316,324.512 C69.43,321.77 66.004,317.656 63.773,314.57 C58.629,308.914 58.973,308.398 66.516,311.312 C69.086,312.684 75.602,313.543 80.574,313.883 C87.945,313.539 91.547,314.738 97.719,319.195 C102.004,322.281 107.488,324.68 109.891,324.68 C117.605,324.508 126.004,319.367 131.66,311.309 C135.09,307.367 138.176,304.453 138.859,304.965 C139.203,305.309 138.344,309.25 136.801,313.195 C135.258,317.309 134.402,321.254 134.914,322.281 C135.941,324.168 131.484,334.281 129.258,335.48 C128.57,336 118.629,335.828 107.145,335.484"/>
  <path fill="rgb(53.72549%, 26.666667%, 0.784314%)" d="M268.285,381.43 C266.914,377.828 266.914,348.859 268.113,338.574 C268.969,332.23 269.828,330.516 272.742,330.516 C275.656,330.859 285.598,335.145 287.828,337.543 C289.715,339.773 306.516,351.258 307.715,351.258 C308.23,351.258 314.402,347.488 321.43,342.859 C332.574,335.145 333.773,333.602 336,326.059 C337.371,321.43 338.742,314.23 339.258,310.117 C339.773,305.145 341.316,301.887 343.715,300.176 C347.145,297.945 348,298.117 353.828,304.461 C357.598,307.719 364.285,315.434 368.914,321.434 C373.027,327.434 377.656,332.234 379.027,332.234 C382.629,332.062 383.656,337.719 384.512,361.207 L385.367,384.18 L327.426,384.352 C276.172,384.172 269.312,384 268.285,381.43"/>
  <path fill="rgb(3.529412%, 38.039216%, 46.666667%)" opacity="0.945" d="M209.312,346.973 C206.055,346.285 198.34,343.887 192.34,341.145 C186.168,338.574 177.598,336.172 173.141,335.66 L165.082,334.805 L182.566,299.492 C192.168,280.293 201.594,259.551 202.965,254.062 C204.508,248.062 206.906,242.406 208.277,241.035 C212.391,237.949 295.02,237.605 306.164,240.863 C310.449,242.062 314.906,244.293 315.934,244.977 C316.961,246.348 310.277,261.949 297.246,288.52 C280.273,324.176 277.016,330.176 274.102,330.004 C271.871,329.316 269.645,328.117 268.445,327.09 C265.531,324.859 259.875,326.918 246.332,336.52 C229.027,349.027 224.398,350.059 209.312,346.973"/>
  <path fill="rgb(85.098039%, 47.45098%, 0%)" opacity="0.985" d="M101.312,322.801 L97.371,319.371 L105.602,315.602 C110.23,313.543 117.773,307.543 122.059,302.746 C131.828,291.945 138,288.516 147.945,288.688 L155.316,288.859 L151.715,296.574 C140.059,319.203 128.57,332.918 136.285,314.574 C141.77,302.23 138.516,301.031 130.457,312.859 C122.57,323.484 108.344,328.629 101.312,322.801"/>
  <path fill="rgb(85.490196%, 45.490196%, 0%)" opacity="0.987" d="M298.113,346.113 C294.344,343.199 289.883,340.113 288.344,339.258 C286.113,337.887 286.801,336.344 291.086,330.344 C294.172,326.23 299.145,321.258 302.23,319.543 C305.66,317.656 310.117,312.172 313.375,305.828 C316.633,299.828 320.746,294.172 323.145,292.629 C329.832,288.172 338.574,289.715 347.145,296.914 C347.832,297.258 346.117,298.801 344.23,300.172 C341.66,301.887 340.117,305.316 339.602,310.113 C338.914,314.398 337.371,321.77 336,326.227 C333.77,333.941 332.398,335.656 320.57,343.199 C313.543,348 307.199,351.77 306.512,351.598 C305.656,351.77 301.887,349.371 298.113,346.113"/>
</svg>

