<svg xmlns="http://www.w3.org/2000/svg" width="384" height="384" viewBox="0 0 384 384">
  <defs/>
  <path fill="rgb(18.039216%, 17.254902%, 20%)" opacity="0.999" d="M295.027,322.113 C282.855,327.426 266.914,323.656 254.055,323.312 C238.625,322.797 223.027,321.426 207.598,320.398 C202.625,320.055 196.969,321.254 191.996,321.598 C181.711,322.113 170.055,322.453 160.797,317.312 C155.824,314.57 152.738,309.254 150.855,303.941 C146.398,291.941 146.742,278.742 146.914,265.883 C148.285,196.797 148.629,127.711 148.113,58.625 C148.113,52.109 148.285,44.738 153.258,40.281 C157.543,36.512 163.715,36.512 169.199,36.512 C199.199,36.855 229.199,37.199 259.027,34.625 C266.914,33.938 274.797,33.082 282.684,34.109 C290.57,35.137 298.453,38.566 303.082,44.91 C307.711,51.082 308.738,59.141 309.598,66.68 C316.797,134.223 312.512,202.449 314.57,270.336 C314.914,282.852 315.426,296.051 310.113,307.363 C307.027,313.715 301.543,319.371 295.027,322.113 Z"/>
  <path fill="rgb(1.568627%, 95.294118%, 98.039216%)" opacity="0.908" d="M2.398,276 C-0.516,273.258 -0.344,264 0,136.629 L0.344,0 L228.516,-0.344 L228.516,18.172 C228.859,35.316 228.688,36.172 224.746,37.543 C222.859,38.059 208.117,38.059 191.832,37.371 C172.289,36.684 160.977,37.027 157.719,38.059 C148.461,41.488 147.262,47.145 148.289,98.402 C147.945,174.688 147.09,275.145 146.574,276.344 C145.547,276.344 113.832,276.859 75.602,277.371 C7.887,279.77 5.828,279.77 2.398,276"/>
  <path fill="rgb(78.039216%, 81.568627%, 82.352941%)" opacity="0.834" d="M227.828,354.344 C225.43,352.457 223.543,350.059 222.344,346.801 C219.945,339.945 220.973,329.828 226.457,324.688 C233.312,318.344 247.199,322.457 255.602,323.66 C273.43,326.059 298.289,326.746 307.715,307.375 C308.742,305.145 309.602,302.746 311.145,300.688 C315.43,295.203 323.832,295.375 330.688,296.059 C334.289,296.402 338.574,297.086 340.629,300 C342.172,302.23 342.172,305.145 342.172,308.059 C342,323.66 340.629,341.66 328.113,350.914 C319.715,357.258 308.398,357.77 297.941,358.113 C286.629,358.457 274.113,359.484 262.285,359.656 C252,359.828 236.914,361.543 227.828,354.344 Z"/>
  <path fill="rgb(79.607843%, 79.215686%, 80%)" opacity="0.966" d="M217.543,304.113 C216.516,302.742 215.484,298.801 215.484,295.027 C215.656,289.371 216.684,288.172 223.027,285.77 C231.77,282.168 242.57,284.055 245.312,289.371 C246.168,291.77 246.855,296.227 246.512,299.656 L245.824,306 L233.137,306.172 C224.57,306.516 219.086,305.656 217.543,304.113"/>
  <path fill="rgb(96.862745%, 98.431373%, 96.470588%)" opacity="0.992" d="M277.199,260.059 C263.828,261.773 250.629,262.117 237.086,263.488 C215.316,265.719 193.199,265.375 171.602,261.43 C158.402,258.859 160.973,250.457 160.973,239.488 C160.973,232.633 161.145,225.945 161.145,219.09 C159.258,190.633 160.457,161.66 161.66,133.031 C162.176,121.031 161.488,108.004 163.375,96.004 C166.461,77.148 186.688,81.773 201.262,81.262 C226.805,80.574 252.176,79.891 277.719,79.031 C285.949,78.859 292.117,81.262 294.691,89.832 C295.891,93.773 295.891,97.891 295.891,102.004 C296.062,127.031 297.605,151.891 298.461,176.918 C299.148,195.605 297.434,214.289 300.52,232.805 C304.113,253.715 295.543,257.828 277.199,260.059 Z"/>
  <path fill="rgb(96.078431%, 97.647059%, 97.254902%)" opacity="0.986" d="M209.828,62.914 C202.285,60.516 206.914,58.457 221.656,56.914 C242.914,55.199 254.227,55.715 254.227,58.113 C254.227,59.141 248.227,60.512 241.027,60.684 C233.312,61.371 224.227,62.398 220.285,62.742 C216.344,63.258 211.543,63.258 209.828,62.914"/>
  <path fill="rgb(67.058824%, 66.666667%, 67.45098%)" opacity="0.86" d="M209.828,355.715 C200.059,350.402 187.199,342.859 181.199,333.086 C177.086,326.398 178.285,322.973 186.172,321.602 C198.172,319.543 211.371,319.887 223.543,319.715 C231.086,319.543 231.086,331.887 231.258,336.859 C231.43,342.172 232.457,349.715 230.23,354.516 C226.629,362.398 216.688,359.484 209.828,355.715"/>
  <path fill="rgb(4.705882%, 91.372549%, 88.627451%)" opacity="0.995" d="M184.801,226.973 C179.316,225.945 178.113,218.574 178.629,196.285 L178.629,177.086 L204.516,175.543 L230.23,175.371 L229.543,153.086 C230.398,124.285 230.742,124.113 256.285,125.145 C283.543,124.457 282.344,123.086 282,150.688 C282.172,172.629 282.172,174.516 278.742,176.402 C276.855,177.43 267.086,178.117 253.715,178.973 C241.887,178.457 231.602,178.457 230.742,178.973 C230.055,179.488 229.371,190.629 229.715,203.316 L229.027,226.973 L208.629,228 C197.484,227.312 186.855,227.484 184.801,226.973"/>
</svg>

