<svg xmlns="http://www.w3.org/2000/svg" width="384" height="384" viewBox="0 0 384 384">
  <defs/>
  <path fill="rgb(9.019608%, 9.411765%, 53.333333%)" opacity="0.991" d="M388.801,81.941 C388.457,74.914 387.945,67.883 387.43,60.855 C387.258,58.285 388.285,37.027 384.516,36.168 C381.602,35.48 378.172,45.598 376.973,47.48 C371.828,55.195 361.887,63.422 352.285,64.281 C342.344,65.309 341.484,65.137 342.172,70.625 C342.172,88.797 327.086,104.395 306.688,107.824 C299.832,107.824 298.801,107.824 296.574,116.395 C294.176,123.766 290.746,130.281 285.602,136.109 C281.145,141.254 273.258,145.195 270.516,151.711 C268.117,157.195 269.488,164.566 268.629,170.398 C267.258,179.828 263.828,189.086 259.199,197.484 C251.828,210.684 241.715,222.172 230.914,232.969 C214.629,249.082 198,262.625 175.027,267.77 C170.398,268.797 167.484,266.055 165.941,272.227 C163.199,282.512 155.828,290.227 146.742,295.371 C139.371,299.484 131.312,301.027 123.086,301.887 C122.23,302.059 120,317.488 119.484,319.199 C117.941,324.172 115.027,329.141 111.598,333.258 C104.57,341.828 94.453,347.656 83.312,348.516 C83.312,348.516 76.285,348.859 76.285,348.859 L76.973,349.547 C72.344,347.316 68.914,349.031 67.887,355.547 C65.316,366.691 58.973,374.918 49.371,380.574 L40.629,385.031 C40.629,385.031 84.859,387.09 84.859,387.09 C118.289,387.945 151.715,388.289 185.145,388.805 C246.859,389.66 308.402,388.461 370.117,387.09 C371.66,387.09 388.289,387.945 388.973,386.574 C388.973,383.832 388.973,381.262 388.973,378.516 C388.973,348.688 389.145,318.859 389.145,288.859 C389.316,247.375 389.316,205.715 389.488,164.23 C390,136.801 390.172,109.371 388.801,81.941 Z"/>
  <path fill="rgb(9.019608%, 7.058824%, 44.705882%)" d="M273.77,-2.23 C233.484,-2.402 193.199,-5.832 152.914,-6.172 C106.457,-6.516 60,-6 13.371,-6 C12.516,-6 -4.285,-6.516 -4.285,-6.516 C-4.457,7.371 -4.801,21.258 -5.145,35.145 C-5.316,45.945 -5.66,56.574 -5.832,67.375 C-6.348,88.117 -3.773,108.688 -4.117,129.434 C-4.289,142.461 -4.461,155.664 -4.633,168.691 C-3.605,191.664 -1.203,214.633 -0.863,237.605 C-0.691,250.293 -1.207,262.977 -3.094,275.492 C-4.809,286.293 -8.578,305.836 6.336,309.605 C23.48,313.891 29.48,300.863 37.535,289.719 C41.137,284.918 44.906,280.289 49.191,276.176 C53.992,271.719 59.133,267.605 64.449,263.832 C69.25,260.402 73.535,261.262 77.82,259.031 C82.621,256.461 82.621,249.602 83.133,244.801 C83.82,238.801 85.363,233.145 87.59,227.656 C91.875,217.715 100.789,202.801 112.789,201.598 C119.305,197.996 119.305,191.141 109.188,179.996 C105.246,174.168 99.586,166.969 97.703,163.195 C90.504,147.594 87.074,123.594 92.391,105.938 C94.277,101.309 92.906,98.738 90.16,95.824 C83.988,88.797 85.359,72.168 93.59,67.367 C100.961,63.082 112.445,64.969 118.961,69.938 C120.676,71.996 126.676,72.68 131.988,71.996 C156.844,68.566 179.816,87.254 199.531,98.91 C204.332,94.453 203.816,89.309 205.875,83.824 C208.617,77.137 214.961,70.109 221.305,66.852 C227.648,63.594 236.734,63.766 243.59,63.25 C252.676,62.395 255.246,63.422 255.934,53.82 C257.648,33.762 279.078,23.133 297.078,22.793 C298.621,22.793 300.336,22.793 301.707,22.105 C305.309,20.391 312.508,0.676 308.906,-2.41 C303.934,-6.523 290.906,-2.754 285.078,-2.754 C281.484,-2.23 277.543,-2.23 273.77,-2.23 Z"/>
  <path fill="rgb(84.313725%, 85.098039%, 85.098039%)" opacity="0.737" d="M172.457,225.43 C147.43,217.543 137.312,194.23 147.258,168.859 C159.773,137.832 194.059,126.516 215.488,146.059 C229.547,159.258 233.66,177.773 227.316,197.66 C220.629,218.57 193.887,232.457 172.457,225.43"/>
  <path fill="rgb(94.901961%, 84.705882%, 43.921569%)" opacity="0.884" d="M75.086,213.258 C72.855,207.602 72.516,201.258 76.801,197.145 C78.688,195.43 83.316,191.145 85.715,191.488 C88.113,191.832 92.23,196.461 94.113,198.004 C98.914,201.945 103.371,204.52 98.742,210.859 C97.715,212.402 96.512,213.945 95.484,215.488 C92.914,218.746 88.797,225.945 83.656,224.574 C82.801,224.402 82.113,223.719 81.426,223.031 C79.199,220.801 76.629,217.199 75.086,213.258 Z"/>
  <path fill="rgb(95.294118%, 82.352941%, 38.431373%)" opacity="0.842" d="M198.855,78.172 C197.141,76.285 195.254,74.23 193.543,72.172 C191.828,70.113 191.484,69.773 193.027,67.371 C195.426,63.258 196.969,58.285 200.398,54.684 C202.629,52.453 211.199,59.484 213.254,60.855 C214.625,61.883 222.168,65.484 222.34,67.371 C222.34,67.715 220.281,70.285 217.367,73.027 C214.625,75.77 211.195,79.883 209.652,81.77 C206.914,85.887 206.742,85.715 198.855,78.172"/>
  <path fill="rgb(99.215686%, 91.372549%, 14.509804%)" opacity="0.831" d="M266.57,83.828 C261.77,79.371 262.969,75.258 268.801,72.855 C273.945,70.797 283.887,74.398 284.742,80.398 C285.941,88.801 270.688,87.77 266.57,83.828"/>
  <path fill="rgb(96.078431%, 60%, 0%)" opacity="0.966" d="M312.855,254.23 C305.312,245.832 269.656,213.773 261.086,207.773 C250.457,200.746 250.285,196.117 258.172,186.344 C261.602,182.23 266.402,175.199 268.113,170.742 C269.656,165.598 272.055,162.172 274.113,162.855 C276.684,162.168 284.57,168 298.801,181.711 C304.285,187.711 319.199,199.711 331.199,209.312 C343.371,218.914 353.312,227.312 352.629,228.684 C352.457,230.055 348.172,232.969 343.027,235.539 C334.285,238.797 331.883,240.852 327.941,249.598 C325.371,255.254 321.77,259.883 320.398,260.227 C318.516,260.57 315.258,257.828 312.855,254.23"/>
  <path fill="rgb(95.686275%, 57.254902%, 0%)" opacity="0.974" d="M217.543,323.656 C205.027,307.199 191.312,290.227 187.199,285.258 C180.855,277.715 177.77,272.57 185.484,265.027 C191.656,258.855 208.797,243.258 217.371,250.113 C225.258,256.457 231.43,266.398 237.602,274.113 C248.402,288.172 261.945,303.086 267.258,307.715 C271.715,312.688 276,318 276,319.715 C275.828,321.945 272.57,324.344 265.715,326.57 C256.973,329.828 255.086,331.543 249.43,341.656 C247.199,345.77 246.688,353.141 241.371,351.77 C238.285,350.914 235.371,346.285 233.484,343.883 C228,337.027 222.855,330.344 217.543,323.656"/>
  <path fill="rgb(92.941176%, 75.686275%, 7.843137%)" opacity="0.973" d="M355.027,280.801 C353.312,280.457 351.598,278.23 350.914,275.656 C350.398,269.312 357.602,267.941 361.199,273.77 C363.77,278.398 361.715,280.457 355.027,280.801"/>
  <path fill="rgb(86.666667%, 88.627451%, 89.803922%)" opacity="0.981" d="M180.516,335.656 C187.031,333.77 193.203,343.027 188.23,348.172 C180.172,356.23 169.027,338.914 180.516,335.656 Z"/>
  <path fill="rgb(29.411765%, 27.843137%, 26.666667%)" opacity="0.979" d="M99.941,166.973 C96,158.059 103.883,138 117.77,123.086 C124.113,115.887 125.656,114.516 128.227,116.914 C135.77,121.543 135.941,123.602 124.457,136.285 C118.801,142.973 111.086,153.598 107.145,159.598 C102,167.145 100.285,169.027 99.941,166.973"/>
  <path fill="rgb(30.980392%, 29.411765%, 27.843137%)" opacity="0.987" d="M178.285,85.027 C176.398,83.656 173.828,81.77 171.086,81.426 C165.941,80.738 162,85.027 158.23,87.941 C152.059,92.398 145.031,94.969 138.688,99.086 C134.059,102.172 128.23,107.145 131.145,113.316 C132.688,116.402 137.832,119.145 141.258,118.461 C145.027,117.605 147.773,114.176 150.516,111.605 C157.715,105.09 165.945,99.434 173.66,93.434 C176.398,91.199 182.914,88.457 178.285,85.027 Z"/>
  <path fill="rgb(30.588235%, 27.843137%, 27.843137%)" opacity="0.995" d="M222.172,186.688 C219.602,198.859 210.859,213.43 199.543,219.43 C190.285,224.402 173.484,219.945 165.086,215.145 C157.715,211.031 152.23,204.516 150.688,196.117 C147.773,179.316 153.773,160.805 167.488,150.688 C181.203,140.574 202.461,141.258 214.117,153.773 C222.172,162.516 224.742,175.199 222.172,186.688 Z"/>
  <path fill="rgb(94.901961%, 80.392157%, 16.078431%)" opacity="0.954" d="M122.398,69.602 C120.168,67.203 114.168,65.832 111.941,65.488 C107.312,64.633 102.684,64.801 98.055,64.973 C94.285,65.145 91.027,65.488 88.285,68.402 C85.887,71.145 84.855,74.918 84.516,78.516 C84.344,81.945 85.031,85.543 86.059,88.973 C87.086,92.402 87.43,96.344 89.316,99.43 C92.402,104.574 100.973,92.402 102.859,90.172 C107.66,84.516 113.145,78.172 119.488,74.23 C120.688,73.543 122.918,72.688 122.918,70.973 C123.086,70.629 122.742,70.113 122.398,69.602 Z"/>
  <path fill="rgb(97.647059%, 98.039216%, 94.901961%)" opacity="0.726" d="M84,188.398 C82.973,180.168 75.602,179.656 68.57,178.969 C57.086,177.941 56.398,187.367 59.656,196.797 C62.742,205.539 72.512,208.281 80.227,203.652 C83.145,201.77 84.688,194.23 84,188.398 Z"/>
  <path fill="rgb(94.117647%, 75.294118%, 7.058824%)" opacity="0.988" d="M22.285,45.086 C18.172,38.57 28.973,38.059 29.141,33.086 C29.312,29.316 33.941,28.801 35.656,32.23 C36.684,33.602 39.086,34.117 41.828,33.773 C45.77,34.117 46.113,35.145 44.059,41.316 C44.059,43.203 45.43,51.258 41.66,50.23 C40.805,50.059 40.117,49.375 39.262,48.859 C36.348,46.973 35.832,50.574 34.461,52.289 C31.547,55.891 28.633,51.09 26.746,49.031 C25.371,47.312 23.312,46.801 22.285,45.086 Z"/>
  <path fill="rgb(98.431373%, 90.588235%, 9.803922%)" opacity="0.835" d="M94.801,289.715 L89.316,285.945 L95.488,279.773 C99.773,274.461 100.973,274.117 100.801,277.543 C100.973,280.113 102.688,282.516 104.742,283.543 C109.543,285.086 109.887,289.027 105.258,288.855 C103.199,289.371 101.316,290.398 100.801,291.77 C100.457,293.312 97.715,292.285 94.801,289.715"/>
  <path fill="rgb(1.568627%, 75.294118%, 81.176471%)" opacity="0.972" d="M348.688,134.57 C333.602,134.398 319.543,150.684 324.516,165.598 C328.457,177.082 337.371,185.828 350.059,186.684 C364.801,187.711 380.23,175.371 379.887,160.113 C379.543,143.828 363.43,134.742 348.688,134.57 Z"/>
  <path fill="rgb(78.823529%, 85.490196%, 92.941176%)" opacity="0.722" d="M199.887,54.516 C199.031,51.43 198.172,48.344 194.914,47.316 C190.457,45.773 185.656,46.289 181.371,47.488 C179.141,48.176 176.398,49.375 175.715,51.945 C174.859,55.203 176.914,58.633 178.457,61.203 C179.828,63.434 181.887,67.719 184.113,68.918 C184.801,69.262 185.484,69.434 186.344,69.434 C190.629,69.777 195.602,69.605 199.031,66.691 C202.113,63.602 201.086,58.457 199.887,54.516 Z"/>
</svg>

