<svg xmlns="http://www.w3.org/2000/svg" width="384" height="384" viewBox="0 0 384 384">
  <defs/>
  <path fill="rgb(52.156863%, 12.156863%, 1.568627%)" opacity="0.991" d="M159.77,266.398 C134.227,274.457 105.941,272.742 96.168,243.941 C93.938,237.254 94.453,230.055 95.824,223.199 C99.938,203.484 113.824,184.285 133.539,179.828 C127.367,161.828 135.082,140.398 150.34,129.086 C165.598,117.773 187.539,116.742 204.684,125.484 C218.055,132.172 228.855,145.371 229.711,160.285 C243.941,142.113 271.539,135.941 292.281,146.227 C313.023,156.512 324.68,182.227 318.852,204.512 C315.938,215.996 308.395,226.453 297.594,231.254 C282.508,237.77 265.023,232.109 250.965,223.539 C236.906,215.141 224.223,203.824 208.793,198.512 C205.535,197.312 201.594,196.625 198.852,198.684 C196.281,200.57 195.594,204.168 195.422,207.426 C194.734,220.797 197.652,235.195 191.137,246.855 C184.285,258.172 171.43,262.801 159.77,266.398 Z"/>
  <path fill="rgb(97.647059%, 89.803922%, 6.27451%)" opacity="0.952" d="M106.801,267.602 C106.285,266.914 94.973,265.887 81.258,265.031 C54.516,263.488 45.258,260.918 43.887,253.719 C41.145,243.434 50.402,235.031 56.402,228.176 C63.945,219.434 73.203,212.062 80.746,203.148 C86.059,196.977 94.805,190.293 103.203,196.461 C107.832,199.891 98.918,213.434 97.547,217.547 C94.289,226.805 93.777,237.605 97.719,246.691 C101.488,255.434 110.406,257.664 115.719,265.719 C113.488,266.062 111.262,266.574 109.031,266.918"/>
  <path fill="rgb(1.960784%, 8.627451%, 94.901961%)" opacity="0.99" d="M268.113,369.086 C262.969,372.855 254.227,375.43 251.141,376.457 C235.199,381.258 219.598,381.941 202.969,380.742 C178.453,379.027 153.254,379.715 129.598,372.512 C127.027,371.824 124.625,370.797 122.742,368.91 C114.172,360.168 135.43,355.539 128.742,347.996 C126.855,345.766 123.941,344.91 121.027,344.055 C80.227,331.711 44.227,303.941 21.77,267.77 C17.484,260.914 13.539,252.684 16.285,244.969 C18.855,237.426 27.258,232.969 35.141,232.113 C39.082,231.598 43.711,232.113 45.77,235.543 C48.684,240.344 44.055,246.344 44.398,251.828 C45.086,260.059 55.543,262.973 63.941,263.656 C157.199,271.543 254.227,272.227 340.285,235.543 C345.086,233.484 349.887,231.258 355.027,231.086 C360.172,230.914 365.828,233.145 367.883,237.941 C369.941,242.742 368.055,248.227 365.824,253.027 C346.625,293.656 310.625,325.883 268.109,340.457 C263.652,342 257.996,344.57 257.996,349.371 C257.996,356.742 266.395,355.027 269.996,358.801 C273.77,362.742 271.887,366.172 268.113,369.086 Z"/>
  <path fill="rgb(94.509804%, 29.803922%, 0.392157%)" opacity="0.945" d="M191.828,122.914 C190.113,119.828 192.855,117.086 197.312,117.258 C200.227,117.258 203.141,121.027 203.141,124.629 C202.973,126.344 193.027,124.801 191.828,122.914"/>
  <path fill="rgb(72.54902%, 43.137255%, 33.72549%)" opacity="0.995" d="M266.914,198.172 C265.199,194.57 266.914,190.457 270.516,190.113 C275.488,189.77 279.43,194.227 276.859,197.484 C275.66,199.027 273.43,200.398 271.547,200.57 C269.484,200.742 267.43,199.715 266.914,198.172"/>
  <path fill="rgb(70.980392%, 40.784314%, 28.235294%)" opacity="0.985" d="M173.828,157.543 C172.457,154.285 176.227,148.629 180,148.801 C181.371,148.973 183.43,150.172 184.801,151.887 C186.859,154.285 186.859,155.488 184.973,157.715 C181.371,161.312 175.199,161.312 173.828,157.543"/>
  <path fill="rgb(73.72549%, 43.529412%, 31.372549%)" opacity="0.985" d="M276.855,169.715 C275.141,167.656 274.969,165.945 276.512,163.715 C279.426,159.43 285.426,159.258 288.684,162.859 C290.914,165.602 290.57,166.629 286.625,169.375 C281.312,173.828 279.941,173.656 276.855,169.715"/>
  <path fill="rgb(71.372549%, 37.254902%, 27.843137%)" opacity="0.984" d="M130.629,235.199 C130.973,230.227 135.941,223.027 139.199,222.855 C140.914,222.855 143.484,225.086 145.199,227.828 C149.656,234.344 146.742,238.629 137.656,239.141 C131.828,239.145 130.801,238.801 130.629,235.199"/>
  <path fill="rgb(76.862745%, 42.352941%, 30.588235%)" opacity="0.988" d="M157.027,206.914 C154.113,205.715 154.285,201.941 157.371,199.027 C160.457,196.629 165.086,198.855 164.398,203.141 C164.398,206.914 160.629,208.801 157.027,206.914"/>
  <path fill="rgb(92.54902%, 56.862745%, 0.392157%)" opacity="0.917" d="M79.199,234.172 C74.055,234.344 73.199,230.23 77.484,228 C81.941,225.086 85.027,226.457 84,230.57 C83.656,232.973 81.43,234.516 79.199,234.172"/>
  <path fill="rgb(97.254902%, 89.019608%, 7.058824%)" opacity="0.979" d="M296.398,267.258 C276.855,271.027 255.254,274.801 235.371,273.945 C210.344,272.918 185.484,273.09 160.629,270.516 C159.086,270.344 157.371,270.172 156.172,268.973 C155.145,267.945 154.801,266.402 154.973,265.031 C155.316,262.801 156.859,260.918 158.574,259.547 C160.461,258.176 162.688,257.488 164.746,256.805 C174.176,253.719 188.574,251.832 192.688,241.375 C196.457,231.773 197.145,217.719 191.145,208.977 C187.543,203.664 184.973,200.918 192,196.977 C198.516,193.375 206.742,188.918 214.285,192.004 C219.77,194.062 220.629,198.859 223.715,203.148 C228.688,210.004 235.887,211.891 243.945,212.75 C252.004,213.605 259.203,217.207 265.547,222.352 C268.977,225.094 271.547,228.867 275.488,230.75 C290.059,237.949 300.516,230.234 310.973,220.465 C314.402,217.207 317.145,202.637 323.145,204.008 C331.543,206.238 331.203,217.723 334.117,223.551 C335.832,226.98 339.262,228.863 340.805,232.293 C343.891,238.809 344.062,246.691 339.949,252.863 C335.32,260.062 328.977,260.062 321.434,261.949 C313.027,264 304.629,265.715 296.398,267.258 Z"/>
  <path fill="rgb(96.862745%, 32.156863%, 4.705882%)" opacity="0.992" d="M260.914,257.145 C259.371,254.23 263.145,252.344 278.742,248.23 C293.312,243.945 296.227,244.289 294.172,249.258 C291.602,255.086 263.484,261.602 260.914,257.145"/>
  <path fill="rgb(93.72549%, 40%, 7.058824%)" d="M323.484,226.973 C326.227,232.973 323.484,245.316 321.086,248.402 C316.973,253.547 315.258,249.602 314.914,244.973 C314.57,241.371 311.656,221.488 320.227,223.715 C321.77,224.23 322.801,225.43 323.484,226.973 Z"/>
  <path fill="rgb(93.72549%, 33.333333%, 5.098039%)" opacity="0.993" d="M216.516,257.484 C211.371,250.969 213.773,241.883 223.543,245.484 C226.801,246.684 230.23,248.398 232.629,250.969 C243.258,262.285 221.484,264.688 216.516,257.484"/>
  <path fill="rgb(94.901961%, 37.254902%, 2.745098%)" d="M199.027,238.457 C199.027,232.113 203.656,226.285 207.77,222 C210.34,219.258 214.285,212.57 218.742,212.57 C223.371,212.742 222.512,217.027 221.141,220.457 C218.91,226.629 211.883,239.312 204.684,241.027 C200.059,242.398 199.371,241.887 199.027,238.457"/>
  <path fill="rgb(72.941176%, 25.490196%, 9.411765%)" opacity="0.975" d="M249.941,240.516 C245.312,236.402 246.684,234.344 253.883,234.516 C259.195,234.344 260.398,235.203 259.711,238.117 C258.855,242.742 253.543,244.113 249.941,240.516"/>
</svg>

