<svg xmlns="http://www.w3.org/2000/svg" width="384" height="384" viewBox="0 0 384 384">
  <defs/>
  <path fill="rgb(0%, 0%, 0.392157%)" d="M157.371,372.172 C154.801,367.027 154.285,365.316 163.027,344.23 C165.086,337.715 167.656,331.031 169.371,329.316 C171.941,329.488 171.602,324.859 169.715,315.602 C173.656,296.059 174.516,277.371 175.887,273.945 C178.629,271.887 181.199,269.832 183.945,269.832 C186.004,271.203 188.918,268.977 190.289,264.859 C193.375,259.031 198.688,255.258 210.688,249.43 L216,246.859 L211.543,242.402 C206.914,239.316 207.086,230.918 210.516,226.117 C213.773,224.059 209.145,222.516 184.973,216.688 C159.43,210.516 150.688,207.086 148.117,202.117 C146.23,198.516 145.887,199.203 139.547,201.602 C131.316,204.688 107.148,216.172 100.633,222.172 C93.945,225.941 88.289,226.629 85.547,222.688 C84.52,220.801 83.148,220.457 83.66,221.316 C83.488,221.66 82.461,224.402 81.43,228.172 C76.801,235.199 44.742,251.656 35.316,251.656 C30.172,250.629 28.117,249.086 28.117,246.344 C26.918,237.43 28.973,234.344 49.203,224.574 C69.262,212.746 73.375,211.203 79.891,214.973 C82.805,217.031 83.832,217.031 84.176,212.402 C84.348,209.66 92.062,205.887 100.633,200.574 C108.348,195.602 118.805,190.805 121.719,186.859 C132.004,179.316 145.547,180.688 146.746,189.09 C145.719,194.234 146.918,194.918 152.23,191.66 C158.402,189.09 173.145,193.203 194.918,202.633 C202.805,206.918 209.832,210.004 210.176,210.176 C211.891,207.434 206.746,197.32 198.691,192.348 C193.547,188.578 188.75,182.918 187.035,179.148 C187.207,175.207 179.664,168.004 172.121,161.664 C160.293,148.977 159.949,148.465 159.777,140.234 C162.176,133.035 161.664,132.176 155.148,130.465 C149.492,127.723 133.891,105.094 129.434,94.809 C126.52,87.094 128.918,85.551 139.719,87.266 C148.805,87.953 149.832,88.293 155.148,96.867 C157.207,102.18 161.836,108.695 165.777,110.238 C170.406,114.523 170.922,116.238 171.434,123.781 C168.691,130.297 168.863,130.98 174.863,134.238 C178.293,136.809 183.094,145.211 187.891,154.297 C191.492,162.695 196.633,171.953 199.891,174.184 C201.949,177.613 205.719,182.582 208.121,185.156 L210.52,191.844 L211.375,180.359 C213.945,170.246 213.605,169.047 207.09,154.473 C203.832,145.559 201.262,136.301 201.434,133.215 C202.461,131.156 201.949,128.07 200.234,127.043 C193.207,113.328 190.977,106.473 190.977,94.812 C190.633,87.441 191.492,82.125 193.891,80.07 C195.949,78.527 194.578,74.242 194.746,64.301 C194.402,53.156 194.746,50.414 199.719,45.102 C202.805,41.672 204.348,36.016 204.004,32.414 C204.004,23.5 208.117,18.871 216.348,19.898 C223.719,18.871 224.918,21.27 226.289,33.27 C227.145,38.582 215.832,61.383 210.348,70.469 C206.406,74.07 206.062,74.582 208.977,75.953 C211.547,76.809 211.719,82.641 212.578,93.953 C211.207,103.039 211.723,112.809 213.434,116.066 C214.461,120.18 214.289,122.41 213.605,124.297 C211.547,125.84 211.207,127.211 213.09,127.898 C214.633,129.098 216.004,137.156 216.859,145.727 C217.375,154.297 218.574,161.496 219.09,161.84 C219.262,162.527 220.633,161.496 221.148,159.441 C224.234,154.129 233.32,146.07 239.32,143.672 C253.035,138.016 272.578,141.785 282.348,152.242 C288.691,158.242 295.375,170.242 296.918,177.27 C297.262,180.871 297.605,183.441 298.289,183.098 C299.66,182.41 312.176,166.641 314.059,159.613 C315.43,155.844 319.203,149.5 321.945,144.871 C325.203,140.586 327.945,135.441 327.43,133.043 C326.742,126.016 331.543,120.188 337.199,120.871 C340.969,121.043 340.801,120.355 338.914,116.758 C339.086,111.785 340.457,106.473 347.828,93.445 C353.312,83.676 358.285,74.59 360.516,74.418 C366.688,71.848 372.172,73.219 373.887,79.047 C375.773,83.848 375.258,87.105 367.031,99.277 C355.375,121.391 354.859,121.391 349.887,124.477 C344.402,125.164 343.543,126.707 348.344,130.82 C350.23,133.906 349.715,136.82 345.258,144.02 C342.172,148.992 338.57,154.305 336.516,155.504 C332.746,155.676 330.688,157.391 331.371,159.961 C332.227,163.047 330.516,168.531 325.199,171.273 C309.77,191.672 304.285,196.129 301.371,195.445 C299.312,196.816 297.941,212.93 298.973,211.902 C299.488,211.559 308.059,204.703 317.66,196.301 C331.031,182.586 334.633,180.016 340.289,179.672 C343.891,180.188 347.316,181.559 348.348,183.613 C351.777,186.527 352.117,196.129 349.035,197.156 C346.977,194.926 337.891,201.613 326.922,208.812 C315.949,216.355 304.637,223.211 301.035,224.242 C297.266,225.957 295.551,227.5 295.723,230.07 C295.035,233.328 295.379,232.984 299.664,231.441 C302.406,230.926 312.863,229.555 323.492,228.012 C342.18,228.184 343.035,228.355 346.293,232.125 C347.32,236.926 348.008,236.754 350.406,233.496 C356.406,230.066 363.605,235.211 375.434,250.469 C385.547,262.297 385.547,262.812 385.035,273.613 C385.207,279.957 384.691,285.098 383.664,285.27 C382.293,285.441 379.551,284.414 377.32,282.355 C375.434,279.785 372.348,278.07 370.465,278.07 C368.578,277.555 365.836,274.301 363.777,271.383 C362.922,267.781 357.949,259.211 351.777,253.039 L344.062,240.012 L337.207,242.926 C331.379,244.125 326.062,243.953 312.691,243.098 C302.75,241.555 293.836,241.211 292.977,241.383 C292.121,242.238 291.777,244.469 291.262,247.039 C290.574,250.641 291.605,251.152 296.918,250.125 C304.633,251.324 324.004,264.695 325.203,270.012 C325.719,273.613 327.09,274.812 332.746,274.984 C340.805,277.043 345.945,280.984 345.602,286.297 C344.574,289.039 345.945,291.781 348.344,293.668 C350.402,296.238 351.773,302.41 350.742,310.297 C351.598,321.098 351.77,323.668 356.914,325.727 C361.715,330.699 361.371,332.07 365.312,351.785 C367.711,362.07 367.543,365.672 365.828,369.27 C362.57,375.441 356.398,375.785 352.801,370.125 C351.945,367.211 349.543,359.152 346.801,352.469 C343.371,345.781 341.316,336.867 340.801,333.613 C342.344,329.5 341.656,325.555 339.43,325.383 C338.23,323.668 337.715,319.039 337.199,315.441 C337.371,309.785 337.543,307.555 332.914,306.184 C328.113,304.125 327.43,302.242 326.742,296.754 C327.258,292.984 326.227,287.84 324.172,284.926 C324.172,279.098 322.801,278.238 315.602,277.211 C310.457,277.555 306.859,275.668 304.629,272.926 C303.602,270.184 300.172,264.695 295.887,262.125 L289.715,256.125 L285.945,268.297 C278.574,283.383 269.66,290.926 257.832,292.984 C242.746,295.043 232.461,286.984 221.145,264.871 L217.203,254.414 L214.461,260.07 C211.719,265.383 199.891,274.641 196.117,274.812 C194.574,274.469 193.887,278.242 194.918,286.641 C194.062,305.496 191.148,326.242 187.547,328.812 C183.434,330.184 183.777,332.582 185.148,338.07 C184.121,343.898 182.75,348.871 177.434,359.84 C169.371,377.484 163.715,379.887 157.371,372.172"/>
  <path fill="rgb(0%, 0%, 0%)" d="M103.543,348.688 C101.828,346.973 100.629,343.543 100.457,341.66 C99.941,337.375 113.145,314.402 119.145,308.059 C124.117,305.145 125.145,303.086 123.43,298.801 C122.574,293.828 123.43,290.57 128.402,282.516 C132.859,277.887 139.547,265.715 143.66,256.117 C151.031,240.516 154.633,236.23 162.348,233.66 C175.035,228.859 196.461,225.945 201.777,228.516 C205.379,231.258 206.062,238.457 202.977,241.371 C200.746,242.914 180.691,245.141 171.09,246.172 C167.832,245.484 165.262,246.172 165.09,246.859 C165.262,247.887 163.891,250.461 162.176,253.031 C159.945,254.918 157.031,262.633 155.832,269.145 C154.117,276.172 151.719,282.516 150.004,283.715 C147.945,284.402 145.547,288.859 145.375,293.316 C143.316,298.117 141.262,301.547 138.52,302.23 C134.75,303.945 134.918,304.973 136.633,312 C136.977,319.371 135.434,321.258 128.746,329.484 C124.977,334.629 121.547,340.629 121.203,342.855 C117.77,352.973 108,355.887 103.543,348.688"/>
  <path fill="rgb(0%, 0%, 0%)" opacity="0.997" d="M369.43,211.027 C351.945,196.797 348.688,191.141 355.543,185.828 C359.656,182.398 360.688,182.57 374.398,189.086 L388.797,195.43 L388.625,209.488 C388.625,217.203 387.598,223.547 386.91,223.547 C385.887,223.715 378.172,218.059 369.43,211.027"/>
  <path fill="rgb(98.431373%, 98.823529%, 99.215686%)" opacity="0.994" d="M268.113,201.086 C264.172,197.484 263.141,194.742 262.969,187.199 C262.969,173.312 268.453,169.371 277.199,177.941 C283.543,183.77 284.398,197.484 279.086,202.113 C274.629,206.398 273.602,206.57 268.113,201.086"/>
</svg>

