<svg xmlns="http://www.w3.org/2000/svg" width="384" height="384" viewBox="0 0 384 384">
  <defs/>
  <path fill="rgb(0%, 0%, 1.960784%)" d="M-1.887,384.516 C-1.887,382.973 4.457,376.629 8.055,374.402 C10.285,373.715 12,371.828 12,370.629 C12.172,369.258 12.855,368.059 13.543,367.543 C19.887,367.887 127.371,262.629 202.801,181.199 C221.828,161.484 237.773,145.371 238.457,145.371 C241.199,145.543 259.715,164.059 262.973,169.543 L266.23,175.027 L218.059,226.113 C158.398,290.059 71.312,378.855 68.57,378.344 C67.715,378.344 64.969,380.059 62.57,382.113 C58.285,385.027 55.027,385.371 28.113,385.371 C11.656,385.371 -1.887,385.027 -1.887,384.516"/>
  <path fill="rgb(5.490196%, 1.568627%, 0.784314%)" opacity="0.982" d="M275.656,132.516 C264.512,120.344 263.141,123.086 289.027,95.145 C296.914,86.914 307.199,80.746 313.199,70.801 C316.285,65.488 316.285,62.059 312,57.773 C306,51.945 300.344,45.258 293.312,40.461 C289.883,38.062 285.941,37.375 282.34,35.66 C279.254,34.117 281.141,30.688 283.027,29.488 C285.598,27.773 291.086,27.945 294,27.945 C304.801,27.773 314.57,36.176 325.027,34.461 C326.57,34.289 328.113,32.918 329.656,32.746 C331.543,32.402 332.742,34.633 334.969,33.09 C336.684,31.891 337.367,29.66 337.883,27.605 C339.941,19.375 341.141,10.121 347.652,4.633 C357.082,-3.254 371.48,1.719 383.652,-0.852 C385.195,10.293 385.711,21.605 385.023,32.918 C384.68,38.746 383.652,45.09 379.195,48.688 C374.566,52.289 367.883,51.602 362.223,52.801 C359.309,53.488 355.879,56.059 357.25,58.801 C357.766,59.828 358.965,60.516 359.309,61.715 C359.824,63.773 357.078,65.145 356.223,67.199 C355.367,69.258 356.566,71.312 357.766,73.199 C362.738,81.258 369.078,88.801 370.281,98.398 C370.969,103.371 372.34,111.941 369.594,116.227 C367.023,120.34 362.395,116.914 360.164,114.168 C357.594,110.91 358.105,106.797 356.395,103.023 C355.023,100.109 336.68,77.996 334.281,80.566 C334.281,80.566 317.824,98.395 317.824,98.395 C308.738,107.996 296.738,120.852 291.426,127.023 L281.484,137.996 L275.656,132.516"/>
  <path fill="rgb(17.254902%, 8.627451%, 1.176471%)" opacity="0.973" d="M265.371,177.258 C262.285,172.801 251.828,162 242.398,152.57 C232.797,143.312 225.086,134.398 225.086,133.027 C225.258,131.484 226.629,129.086 228.516,127.371 C230.402,125.656 231.258,123.086 231.086,120.516 C230.57,117.602 231.43,115.887 234.688,114.172 C237.086,113.145 239.316,111.43 239.316,110.402 C239.316,109.375 240.004,108.859 240.859,109.375 C241.715,109.891 245.316,109.203 248.746,107.66 C252.516,106.289 256.461,105.602 257.832,106.461 C259.031,107.148 266.062,115.203 273.262,123.773 C288.691,142.629 291.949,145.715 298.117,150.004 C303.945,153.945 303.945,158.918 298.117,164.918 C295.375,167.488 294.004,169.891 295.203,170.574 C297.434,171.945 289.891,181.031 287.488,180.004 C286.461,179.66 284.402,180.52 283.203,182.062 C279.086,187.199 271.715,185.145 265.371,177.258"/>
  <path fill="rgb(0%, 0%, 1.960784%)" opacity="0.995" d="M285.941,217.887 C285.941,209.145 286.969,205.543 289.199,202.629 C291.941,199.543 292.457,198.344 290.742,196.801 C289.715,195.602 288.855,190.457 288.855,185.488 C288.684,170.918 297.254,164.918 309.086,171.258 C313.027,173.316 315.773,173.488 321.086,171.945 C329.145,169.887 346.113,171.602 345.941,174.688 C345.941,181.543 338.227,192 328.629,198.688 C316.801,206.574 310.457,212.918 305.145,222.172 C301.887,227.656 300.172,228.516 293.488,228.344 L285.773,229.031 L285.941,217.887"/>
  <path fill="rgb(0.392157%, 0.392157%, 1.960784%)" d="M213.43,118.629 C211.887,117.086 210.516,115.027 210.688,114 C210.688,112.973 209.316,113.312 207.602,115.027 C203.832,118.113 198.172,118.629 184.801,116.742 C176.914,115.371 176.402,115.199 177.773,110.914 C179.316,103.887 182.746,100.629 199.203,90.516 C214.461,81.945 223.203,72.172 223.031,65.316 C223.203,62.746 224.059,62.402 228.516,63.43 C231.43,63.773 235.543,63.602 237.258,62.574 C240.516,60.688 240.859,61.547 242.059,68.746 C243.086,74.918 242.574,78.516 239.828,84.348 C237.598,88.289 236.398,92.234 237.43,92.746 C241.031,95.145 242.914,102.176 241.887,108.176 C241.031,112.977 239.488,115.203 233.828,117.945 C225.258,122.059 217.027,122.398 213.43,118.629"/>
</svg>

