<svg xmlns="http://www.w3.org/2000/svg" width="384" height="384" viewBox="0 0 384 384">
  <defs/>
  <path fill="rgb(2.745098%, 76.862745%, 90.588235%)" opacity="0.939" d="M10.113,109.371 C2.227,106.113 0.684,101.828 0.684,83.656 C0.684,68.227 1.199,66.344 7.027,55.027 C17.828,34.113 37.027,21.086 58.113,21.086 C67.883,21.086 78,22.973 83.484,32.059 C87.254,38.402 83.141,45.773 89.828,50.23 C102,58.117 118.113,54 130.113,61.543 C140.055,67.887 155.141,74.57 154.969,88.629 C155.312,101.828 147.941,104.059 137.484,106.801 C127.543,109.371 119.484,110.742 108.855,111.258 C96,111.773 83.141,111.773 70.285,111.773 C57.258,111.773 44.398,111.602 31.371,111.258 C24.855,110.914 16.457,111.602 10.113,109.371"/>
  <path fill="rgb(92.941176%, 86.27451%, 24.313725%)" opacity="0.832" d="M184.629,57.941 C182.914,56.055 181.371,52.285 181.199,49.711 C181.715,44.566 187.543,38.398 192.172,38.566 C198.172,38.738 202.973,44.051 202.801,50.566 C202.457,60.516 191.484,65.145 184.629,57.941"/>
  <path fill="rgb(0.784314%, 0.392157%, 1.568627%)" d="M143.312,375.43 C166.797,308.914 175.199,290.059 174,284.059 C171.77,277.887 172.457,273.258 174.172,268.457 C178.285,261.602 182.742,258 191.484,257.145 C200.57,258.172 200.914,252 192.684,236.914 C186.512,226.113 186.168,224.57 180.168,224.227 C171.598,222.684 165.082,220.285 159.426,215.484 C154.113,211.371 146.738,196.285 146.227,189.598 C145.883,184.797 144.168,183.77 141.082,188.227 C139.195,189.941 135.426,190.113 129.938,187.539 C124.109,184.797 119.824,183.082 117.594,176.395 C124.621,170.91 131.48,165.25 138.508,159.766 C145.707,154.109 156.164,148.109 161.48,140.566 C163.539,140.223 166.109,142.281 168.336,145.023 C171.938,149.309 173.137,150.168 172.105,153.766 C171.762,154.793 170.734,155.996 170.047,156.68 C174.504,160.449 181.359,158.566 186.504,159.594 C191.305,160.621 195.418,163.023 199.191,166.281 C208.793,174.68 213.762,187.711 217.535,199.539 C219.766,208.625 223.363,215.48 228.848,218.91 C233.82,224.738 234.676,227.48 234.848,235.023 C235.02,239.824 233.648,243.254 231.246,247.195 C229.703,249.594 228.504,252.852 229.875,255.426 C232.789,261.082 247.188,256.453 252.676,262.453 C256.617,266.055 258.848,276.852 256.961,284.738 C254.902,292.797 260.562,302.223 263.133,309.594 C266.219,318.852 268.789,328.449 271.531,337.879 L285.93,384.852 L276.16,386.051 C270.504,386.223 266.047,386.051 264.504,386.395 C264.16,385.707 257.648,364.453 250.445,340.965 C242.387,315.938 236.73,295.707 235.359,293.992 C235.531,293.305 233.473,292.449 230.902,292.277 C227.988,292.277 228.844,293.82 228.332,339.25 L228.504,385.879 L204.848,386.051 L204.504,340.449 C204.16,296.391 205.191,294.336 201.246,295.535 C195.762,295.363 197.305,295.707 178.102,348.848 L163.703,385.535 L140.047,385.535 L143.312,375.43"/>
  <path fill="rgb(5.490196%, 78.431373%, 92.156863%)" opacity="0.953" d="M276.855,257.828 C268.969,252.516 267.426,248.398 268.113,233.656 C268.457,222.172 269.312,220.113 273.77,215.312 C277.883,210.855 282.684,207.082 288.512,205.543 C293.141,204.344 296.398,205.371 300.34,202.629 C309.426,195.941 312.168,182.398 325.539,181.027 C333.254,180.34 341.48,181.371 349.023,181.715 C365.48,181.887 380.223,182.57 381.938,182.914 C384.508,183.77 385.023,187.199 385.023,220.285 L385.195,256.629 L380.91,258.859 C377.652,260.059 361.195,260.746 329.48,260.918 C286.113,261.086 282.344,260.914 276.855,257.828"/>
  <path fill="rgb(0.392157%, 0.392157%, 1.568627%)" opacity="0.999" d="M67.715,284.57 C62.059,279.258 62.57,270.855 68.742,264.855 C71.656,262.285 75.43,259.883 77.484,260.227 C83.141,260.914 89.828,253.539 90.512,248.398 C91.367,241.711 84.855,236.227 87.082,229.199 C88.109,225.77 111.254,208.113 114.852,207.598 C115.367,207.426 116.223,210.855 116.223,215.141 C116.223,220.797 117.422,224.742 120.508,228.168 C122.223,230.91 128.395,239.141 133.023,245.996 C138.168,253.023 143.652,259.367 145.879,259.711 C152.051,262.281 149.82,266.055 138.164,272.91 C133.535,275.652 127.363,280.453 121.707,279.766 C114.508,278.91 113.477,269.824 106.793,268.109 C105.25,268.109 99.422,273.082 93.594,278.91 C85.535,288.68 82.449,289.711 76.965,289.195 C73.027,289.371 69.602,287.484 67.715,284.57"/>
  <path fill="rgb(88.235294%, 89.803922%, 29.019608%)" opacity="0.902" d="M45.941,176.059 C39.598,172.289 37.371,168 37.543,159.086 C38.059,142.629 54.344,135.43 65.484,146.57 C74.227,156.172 70.629,173.312 58.797,177.258 C51.602,179.484 51.77,179.828 45.941,176.059"/>
  <path fill="rgb(42.352941%, 90.588235%, 99.215686%)" opacity="0.776" d="M1.715,85.027 C1.543,71.484 0.859,66.172 0.172,73.543 C-0.344,80.742 -0.344,92.059 0.344,98.57 C1.027,104.742 1.543,98.742 1.715,85.027"/>
  <path fill="rgb(0%, 0%, 85.882353%)" opacity="0.99" d="M216.855,198.516 C212.742,184.801 206.055,170.059 192.855,163.031 C186.168,159.43 181.199,159.43 188.055,152.059 C192.34,147.602 198.168,144.859 203.141,141.258 C216.855,131.145 226.453,123.43 225.254,121.027 C225.941,117.598 246.34,101.828 254.398,100.797 C257.312,100.453 271.543,89.312 286.969,77.484 C302.227,65.828 315.941,56.398 316.453,55.715 C320.223,56.23 339.598,79.543 348.34,94.113 L357.598,109.883 L353.656,113.824 C351.086,115.539 336.684,126.34 321.258,137.652 C305.656,148.797 292.629,158.566 292.113,159.254 C291.77,163.023 271.543,177.426 267.941,177.254 C266.055,176.398 258,182.055 249.426,188.566 C231.254,202.109 222.34,208.625 220.797,208.625 C219.941,208.629 218.398,204 216.855,198.516 C217.371,200.57 215.312,197.145 216.855,198.516 Z"/>
  <path fill="rgb(0.392157%, 0%, 90.196078%)" opacity="0.993" d="M143.145,258.855 C141.773,258.34 137.488,252.855 133.203,247.199 C129.09,241.199 123.602,233.656 120.516,230.57 C116.914,226.285 115.715,223.027 115.371,217.027 C115.543,209.828 116.227,208.969 125.656,201.941 C131.312,197.656 137.656,192.172 139.543,189.086 C144.172,183.43 146.059,185.316 148.285,196.113 C149.656,206.055 157.371,214.801 165.941,219.77 C170.227,222.34 189.598,223.199 189.941,229.883 C190.113,233.312 180.684,238.453 178.457,240.168 C170.742,245.824 158.914,257.652 149.145,259.539 C146.914,259.543 144.344,259.371 143.145,258.855"/>
  <path fill="rgb(0.784314%, 0.392157%, 1.568627%)" d="M351.941,104.914 C345.598,91.543 333.086,73.199 324,64.801 C314.059,55.715 313.715,50.23 320.742,43.715 C323.484,40.629 327.086,39.258 331.715,39.086 C337.543,38.742 339.773,40.285 350.23,51.258 C365.488,68.059 376.801,86.23 376.801,95.828 C376.285,102 375.258,104.059 370.973,107.828 C368.059,110.227 363.602,112.457 361.031,112.629 C356.914,112.801 355.371,111.258 351.941,104.914"/>
  <path fill="rgb(4.313725%, 78.039216%, 91.372549%)" opacity="0.954" d="M70.801,373.199 C50.57,373.199 30.688,370.457 10.629,366.344 C7.199,365.656 4.973,365.828 2.57,362.914 C-4.973,353.312 -0.688,327.602 -0.688,316.801 C-0.688,316.801 -0.859,274.457 -0.859,274.457 L3.598,270.516 C7.883,267.258 9.77,266.914 21.77,267.43 C36.512,268.285 49.371,271.371 61.027,280.629 C72.684,289.715 73.199,304.973 76.629,318.172 C78.172,324.344 80.23,330.859 85.027,335.316 C91.027,340.973 99.598,340.117 104.914,346.461 C110.742,353.66 110.914,362.402 105.086,368.062 C101.145,372.855 100.457,372.855 70.801,373.199 Z"/>
  <path fill="rgb(92.941176%, 86.27451%, 24.313725%)" opacity="0.832" d="M337.543,305.312 C333.43,301.027 335.145,292.797 340.457,290.398 C348.855,286.797 356.227,297.941 349.199,304.629 C345.941,308.059 340.801,308.398 337.543,305.312"/>
</svg>

