<svg xmlns="http://www.w3.org/2000/svg" width="384" height="384" viewBox="0 0 384 384">
  <defs/>
  <path fill="rgb(1.176471%, 45.098039%, 49.019608%)" opacity="0.996" d="M-6.172,262.629 L-6.172,134.23 L1.199,131.145 C58.285,117.43 77.312,110.746 106.285,94.457 C130.113,80.742 150.344,67.199 181.199,43.715 C209.484,20.059 210.512,19.543 234.684,34.629 C266.57,57.258 274.285,59.656 288.855,52.629 C292.969,51.258 300,46.457 304.285,42.516 C308.914,38.402 313.371,35.145 314.914,34.801 C315.941,34.801 324.855,42.688 334.801,52.457 C345.086,61.887 360.859,74.398 369.945,80.059 L386.402,90 L386.918,390.688 L-5.652,391.375 L-6.172,262.629"/>
  <path fill="rgb(98.039216%, 78.039216%, 0%)" opacity="0.98" d="M96.516,91.027 C96.516,72.684 109.887,59.141 129.602,57.598 C137.316,57.254 143.145,58.113 147.773,60.512 L155.145,63.426 L150.344,66.512 C144,71.312 113.145,90.855 104.23,95.312 L96.344,99.254 L96.516,91.027"/>
  <path fill="rgb(94.901961%, 65.490196%, 3.137255%)" opacity="0.982" d="M265.027,161.484 C266.742,149.484 267.426,147.77 271.371,147.426 C273.43,147.254 274.973,149.312 275.141,152.57 C275.656,162.34 273.082,168.512 268.625,168.684 C265.199,169.027 264.344,167.828 265.027,161.484"/>
  <path fill="rgb(94.509804%, 69.019608%, 7.058824%)" opacity="0.99" d="M106.457,161.484 C101.312,155.141 101.145,149.312 106.457,148.285 C108.855,147.941 110.742,149.828 112.629,155.312 C116.059,166.113 112.457,169.715 106.457,161.484"/>
  <path fill="rgb(94.509804%, 66.666667%, 3.529412%)" opacity="0.993" d="M5.484,304.457 C4.457,303.77 3.941,301.715 3.941,300.516 C3.941,297.086 43.027,280.801 50.398,281.145 L56.227,281.316 L50.914,283.375 C48,284.746 37.543,290.062 27.258,295.547 C7.199,306.855 7.543,306.688 5.484,304.457"/>
  <path fill="rgb(92.156863%, 64.705882%, 5.098039%)" opacity="0.987" d="M352.285,300 C330,287.656 334.113,285.77 360.172,295.543 C368.914,298.801 371.828,301.027 371.828,304.285 C371.828,309.258 368.742,308.742 352.285,300"/>
  <path fill="rgb(99.215686%, 99.607843%, 98.823529%)" opacity="0.996" d="M176.914,314.059 C158.059,309.43 130.973,303.43 73.199,290.059 C60.172,286.973 47.656,283.887 45.77,283.715 C43.199,282.344 45.254,279.086 57.598,264.344 C81.941,232.629 98.91,202.629 108.512,174.344 C110.57,168 112.797,162.688 113.312,162.516 C114.34,163.031 121.883,166.117 130.113,169.715 C156.684,180.344 170.914,183.602 194.914,182.914 C214.113,181.543 244.801,174.855 258.855,168.855 C261.77,168.168 262.625,168.512 260.914,174 C252.172,216.172 209.484,318.688 201.258,319.887 C198.172,319.027 187.887,316.801 176.914,314.059"/>
  <path fill="rgb(24.313725%, 17.254902%, 20.392157%)" opacity="0.96" d="M203.656,328.457 C210.172,317.484 213.258,316.457 213.426,325.199 C213.254,330 204.34,338.914 200.055,339.086 C199.027,339.086 200.398,334.285 203.656,328.457"/>
  <path fill="rgb(21.960784%, 17.254902%, 20.784314%)" opacity="0.991" d="M225.258,331.199 C221.656,329.141 220.457,327.086 220.457,323.312 C220.629,318.34 221.145,318.168 235.199,316.625 C249.43,314.738 249.598,314.91 253.027,319.367 C258.684,326.738 257.312,329.652 246.512,332.395 C235.371,335.145 231.602,334.973 225.258,331.199"/>
  <path fill="rgb(24.705882%, 18.823529%, 21.960784%)" opacity="0.936" d="M160.285,328.973 L155.828,324.344 L161.656,318.859 C168.512,312.172 169.199,312.004 185.312,316.117 C200.055,319.887 203.141,322.461 198.855,328.973 C196.113,333.43 194.742,333.602 180.168,333.43 C166.457,333.43 164.23,332.914 160.285,328.973"/>
  <path fill="rgb(23.921569%, 18.431373%, 21.960784%)" opacity="0.967" d="M117.258,322.113 C110.059,319.027 109.887,315.086 116.57,307.543 L121.715,301.371 L134.742,304.457 C141.77,306.172 148.457,307.887 150,309.086 C152.914,310.801 152.742,315.941 149.312,320.57 C147.254,323.828 144.684,324.684 134.914,324.512 C128.23,324.688 120.516,323.484 117.258,322.113"/>
  <path fill="rgb(23.921569%, 18.039216%, 21.960784%)" opacity="0.967" d="M71.312,309.941 C69.598,305.656 68.742,305.312 60.855,306.512 C46.457,308.227 29.484,299.141 38.055,294.168 C39.941,293.141 42.855,290.738 44.742,288.684 C49.199,284.227 51.598,284.398 79.715,291.254 C100.629,296.398 103.371,297.77 105.43,301.711 C108.344,307.883 106.801,311.652 101.316,313.023 C95.488,314.566 91.547,312.852 90.344,307.539 C89.828,305.141 88.457,303.77 87.43,304.281 C86.574,304.797 86.23,306.512 86.742,307.883 C87.941,311.312 84.172,314.055 78.344,314.055 C74.742,314.23 72.855,313.027 71.312,309.941"/>
  <path fill="rgb(97.254902%, 27.843137%, 7.058824%)" opacity="0.993" d="M210.688,317.484 C210.859,315.598 209.832,314.055 208.801,313.715 C207.43,313.371 210,305.828 215.656,295.371 C233.484,260.398 251.828,211.887 258.512,183.77 C260.398,175.539 263.141,166.969 264.855,165.77 C268.797,159.77 272.227,162 275.141,172.285 C276.855,178.113 282.684,191.656 288.168,202.457 C300.855,224.742 301.195,224.398 281.652,225.602 C275.996,224.746 271.367,225.43 270.68,225.602 C270.164,225.773 271.535,228.859 274.281,231.602 C276.512,234.688 280.109,241.371 283.195,246.859 C285.594,252.344 290.223,258.172 293.309,260.059 C298.965,264.344 305.309,275.316 309.078,288.859 C311.648,298.801 311.137,300.516 305.137,303.602 C302.906,304.801 301.023,307.371 301.023,309.258 C301.023,314.059 298.109,313.887 296.395,309.086 C295.707,306.344 294.508,305.656 291.766,306.344 C289.535,307.031 273.766,310.285 257.309,313.031 C224.059,319.371 210.855,320.742 210.688,317.484"/>
  <path fill="rgb(91.764706%, 65.882353%, 5.882353%)" d="M180.688,355.715 C180.516,350.742 208.289,310.113 211.887,310.113 C214.973,310.285 214.285,312.512 208.285,323.484 C204.344,330.512 198.172,341.312 194.742,347.141 C190.801,354.34 187.371,358.113 184.801,358.113 C182.57,358.113 180.688,357.086 180.688,355.715"/>
  <path fill="rgb(96.078431%, 88.627451%, 78.431373%)" opacity="0.983" d="M309.43,291.258 C307.715,280.629 298.973,263.145 292.973,259.027 C289.887,256.969 284.574,249.77 281.145,242.914 C277.543,236.059 273.945,230.059 272.914,229.543 C268.629,226.629 271.887,225.43 284.059,225.258 C291.086,223.887 298.629,222.859 301.031,222.688 C305.488,222.344 306.344,223.375 309.773,235.715 C314.059,252.688 317.66,258.344 323.488,258.172 C329.832,258 334.289,262.801 338.23,274.801 C345.258,294 345.43,293.316 332.918,294.688 C326.402,295.203 319.203,295.887 315.945,296.23 C311.312,297.602 310.973,297.43 309.43,291.258"/>
  <path fill="rgb(24.705882%, 13.333333%, 16.862745%)" opacity="0.898" d="M268.629,323.828 C263.484,321.77 261.43,318.855 261.43,314.57 C261.258,310.801 291.945,303.258 295.371,306 C297.77,308.059 298.457,316.457 296.227,319.371 C292.113,325.027 277.543,327.258 268.629,323.828"/>
  <path fill="rgb(26.27451%, 17.647059%, 21.176471%)" opacity="0.903" d="M300.516,311.145 C300.516,303.602 300.859,303.258 308.746,299.488 C321.945,293.145 343.031,295.887 344.574,303.945 C345.262,307.203 333.09,312.688 326.23,312.516 C324.172,312.516 321.086,313.203 319.203,314.059 C317.488,315.086 312.348,316.457 308.059,317.488 L300.516,319.031 L300.516,311.145"/>
  <path fill="rgb(95.294118%, 62.745098%, 3.137255%)" opacity="0.989" d="M303.258,331.715 C296.059,323.484 295.199,321.602 296.402,315.258 C297.773,306.516 299.145,304.801 299.145,310.973 C298.973,314.23 302.402,319.543 308.23,325.031 C314.574,331.031 317.316,335.488 316.289,337.547 C314.57,342.516 312,341.484 303.258,331.715"/>
</svg>

