<svg xmlns="http://www.w3.org/2000/svg" width="384" height="384" viewBox="0 0 384 384">
  <defs/>
  <path fill="rgb(34.901961%, 63.137255%, 1.176471%)" d="M393.602,208.629 C393.945,214.973 394.117,216.344 389.145,219.602 C386.574,221.316 383.488,220.973 381.086,223.031 C378,225.773 377.316,230.402 373.371,232.801 C369.086,235.543 363.602,235.543 358.457,235.371 C350.059,235.199 308.57,240.172 308.398,224.059 C308.398,222.172 307.371,216.344 305.656,211.031 C299.312,189.09 309.77,164.918 330.684,152.574 C343.199,145.203 362.914,145.547 370.797,153.09 C382.629,165.43 392.57,189.602 393.602,208.629 Z"/>
  <path fill="rgb(1.176471%, 80%, 97.254902%)" opacity="0.992" d="M123.258,372.855 C112.113,352.625 102.172,345.426 85.199,346.285 C73.371,346.113 59.141,339.43 46.457,327.941 C23.828,308.914 25.887,294 51.258,285.254 C61.027,282.684 69.773,281.141 104.402,280.969 C127.547,280.797 148.973,279.082 152.574,277.883 C173.832,272.055 180.344,250.969 167.145,229.539 C159.773,217.883 153.086,213.254 138.859,210.852 C124.801,209.824 112.801,203.996 98.402,193.879 C87.09,186.164 79.887,177.422 80.23,173.137 C79.375,167.992 87.086,162.852 99.43,158.566 C113.145,154.965 117.086,153.082 161.488,150.336 C196.633,148.105 220.117,145.707 229.719,140.566 C235.891,138.68 241.891,131.824 240.863,128.395 C240.863,124.793 233.836,120.164 224.062,118.109 C210.176,113.137 260.75,114.852 278.75,118.625 L297.438,120.34 L303.609,114.512 C311.668,107.484 320.238,105.77 328.125,108.168 C334.641,109.367 335.152,109.367 330.867,116.227 C328.469,119.312 326.066,124.797 325.039,128.57 C324.012,132.512 320.754,139.543 318.523,145.027 C313.379,153.598 312.523,154.285 304.465,155.312 C288.523,156.512 274.637,167.312 269.664,181.371 C268.465,184.457 266.578,187.027 265.035,187.371 C258.52,187.027 233.836,196.457 229.551,200.398 C223.207,206.742 222.695,214.629 228.18,220.969 C233.664,225.082 235.035,225.598 266.922,228.684 C291.438,230.914 302.406,235.199 307.035,242.055 C308.406,244.453 310.293,253.027 311.148,261.598 C313.207,280.797 318.004,289.367 326.75,290.742 C330.18,292.457 340.465,293.828 349.723,294.512 C358.465,296.227 370.293,298.969 375.781,301.367 L385.211,305.996 L385.383,385.023 L130.285,385.715 L123.258,372.855"/>
  <path fill="rgb(32.54902%, 87.058824%, 0%)" opacity="0.987" d="M289.027,220.457 C269.828,218.742 260.398,215.484 260.742,210.172 C260.742,205.371 266.742,186.516 271.199,177.773 C277.715,164.23 291.77,155.316 306.344,155.145 C309.773,155.316 313.543,153.43 316.457,150.172 C327.77,138.516 333.086,134.57 337.543,135.773 C340.973,136.629 342.855,135.602 346.973,130.289 C356.402,117.773 374.742,112.977 384.516,120.52 C389.316,124.121 389.316,124.461 389.488,148.805 C389.488,151.719 391.719,169.203 388.461,171.434 C383.316,175.035 366.859,157.203 363.773,154.633 C362.918,153.777 361.715,152.918 360.516,153.09 C359.316,153.09 358.285,154.117 357.43,154.805 C354,157.203 349.543,157.547 345.773,159.605 C341.488,161.836 338.746,166.121 336.172,170.406 C327.602,184.977 323.145,200.406 316.629,215.836 C313.887,222.18 314.914,221.664 308.742,222.18 C302.23,222.516 295.199,220.973 289.027,220.457"/>
  <path fill="rgb(97.254902%, 100%, 97.254902%)" opacity="0.991" d="M179.312,352.801 C171.77,346.973 181.199,340.113 195.77,340.285 C205.027,340.285 216.855,345.43 215.828,348.684 C213.602,355.543 186.688,358.629 179.312,352.801"/>
  <path fill="rgb(97.647059%, 100%, 97.254902%)" opacity="0.995" d="M130.113,315.258 C126,313.371 122.398,312.172 122.227,312.172 C121.883,312.172 121.711,310.629 121.539,308.57 C121.711,303.086 127.367,300.855 140.227,300.512 C153.254,300.855 160.969,303.598 161.141,308.398 C161.145,315.77 142.457,319.715 130.113,315.258"/>
  <path fill="rgb(94.117647%, 99.607843%, 97.254902%)" opacity="0.991" d="M253.027,348.516 C245.828,345.43 247.371,340.973 256.629,338.402 C266.57,335.66 278.059,337.887 279.258,342.688 C280.113,348.344 262.285,352.113 253.027,348.516"/>
  <path fill="rgb(94.509804%, 99.607843%, 97.254902%)" d="M324.172,355.199 C319.199,352.113 320.059,350.055 326.57,347.656 C334.629,345.086 345.426,345.086 349.543,348.172 C352.629,350.402 352.973,350.742 349.715,353.145 C345.941,356.57 328.629,357.941 324.172,355.199"/>
  <path fill="rgb(10.980392%, 81.176471%, 0%)" d="M316.629,146.742 C318.859,143.828 321.602,138.172 322.973,134.227 C328.117,115.883 335.145,108.168 348.344,105.77 C355.543,104.227 355.887,103.711 358.457,93.598 C360.688,85.199 362.57,81.941 368.227,77.312 C372.34,73.883 377.484,71.484 380.398,71.484 L385.711,71.484 L386.738,126.684 L382.109,122.914 C372.168,115.543 353.652,120.684 344.566,133.543 C340.281,138.855 338.395,139.887 334.965,139.027 C331.879,138.34 329.309,139.199 325.535,143.141 C322.793,145.711 319.02,148.797 317.137,149.996 C313.543,152.059 313.543,151.887 316.629,146.742"/>
  <path fill="rgb(3.137255%, 70.196078%, 0.392157%)" d="M352.973,268.457 L347.488,266.059 L348.344,254.402 C350.23,237.602 362.402,217.547 374.402,212.574 C384.516,207.773 384.172,207.43 384.344,240.859 L384,271.203 L371.484,271.547 C364.285,271.371 356.059,270.344 352.973,268.457"/>
  <path fill="rgb(33.333333%, 85.882353%, 0%)" opacity="0.997" d="M164.398,127.887 C162.512,123.945 157.543,121.715 149.656,121.715 C145.199,121.543 144.344,120.344 141.598,111.773 C138.684,102.516 131.828,93.945 127.199,93.945 C126,93.773 122.914,95.316 120.684,97.203 C117.77,99.262 114.684,100.117 110.742,99.602 C103.715,98.402 103.543,97.203 109.887,91.371 C113.828,87.941 116.742,86.227 122.059,86.57 C129.086,86.57 129.43,86.57 130.457,80.398 C132.855,65.484 145.199,55.027 160.113,55.371 C170.227,55.371 184.113,63.43 190.457,72.855 C196.457,81.254 208.973,110.742 210,118.797 C210.688,123.77 210,124.453 205.027,127.711 C200.227,130.453 195.941,131.312 182.914,131.48 C168.172,131.312 165.941,131.312 164.398,127.887"/>
  <path fill="rgb(31.764706%, 86.666667%, 0%)" opacity="0.999" d="M-1.199,190.457 L-0.516,113.145 L4.457,108.344 C11.312,101.828 19.887,101.656 25.199,107.828 C27.258,110.227 28.969,113.141 28.969,114 C29.141,115.027 29.996,115.715 30.684,115.715 C32.914,115.715 33.254,125.484 31.539,132.859 C28.969,137.832 29.48,138.172 36.168,139.031 C47.652,140.746 49.711,143.145 56.566,169.375 C58.625,177.773 62.051,185.66 64.797,187.547 C67.027,190.117 71.141,195.262 73.367,199.375 L77.652,207.262 L87.422,205.891 C94.793,205.035 98.395,205.719 102.68,207.949 C113.652,214.121 121.023,228.691 121.023,244.465 C121.023,254.578 116.223,258.695 103.711,260.406 C79.023,263.148 53.48,264.176 28.453,264.691 C23.141,264.863 4.625,267.605 0.684,264.348 C-1.031,262.977 -0.516,260.234 -1.031,258.176 C-5.312,237.086 -1.199,211.371 -1.199,190.457"/>
  <path fill="rgb(33.72549%, 87.45098%, 0%)" d="M-1.027,345.77 C-0.684,304.797 -0.855,306 8.574,306.512 C21.43,305.312 36.516,315.254 42.859,328.113 C45.602,333.941 46.973,334.969 53.316,335.312 C57.602,336.512 64.461,338.914 68.402,341.656 C73.715,345.258 78.688,346.285 86.574,345.426 C103.719,345.77 114.344,354.34 125.66,376.969 L129.602,384.512 L-0.855,384.684 L-1.027,345.77"/>
  <path fill="rgb(28.627451%, 87.058824%, 0%)" opacity="0.995" d="M345.43,104.23 C345.43,99.773 350.23,89.145 355.371,82.289 C362.742,72.52 384.172,64.977 384.516,72.348 C384.516,74.062 382.629,74.918 379.371,74.918 C376.629,74.918 371.484,77.316 367.543,80.574 C362.059,84.859 360,88.117 357.941,96.004 C355.711,104.918 354.512,106.117 350.57,106.805 C346.629,106.973 345.258,106.629 345.43,104.23"/>
  <path fill="rgb(64.705882%, 86.666667%, 94.117647%)" opacity="0.728" d="M212.914,117.77 C207.77,114.34 205.199,105.77 203.484,100.625 C200.742,92.055 195.426,84.168 193.715,75.254 C192.859,70.969 193.543,69.941 199.371,67.711 C205.887,64.969 211.027,65.652 216.172,69.941 C218.914,72.34 219.773,72.34 225.086,69.941 C228.344,68.227 232.113,67.027 233.484,67.027 C238.629,67.027 246.172,75.258 251.828,87.598 C256.801,97.711 258.684,100.113 262.457,100.969 C268.973,102.34 272.914,107.312 271.715,112.453 L270.688,116.566 C270.688,116.566 243.773,115.367 243.773,115.367 C238.461,115.195 232.117,114.168 226.801,115.023 C224.059,115.539 219.602,118.965 217.887,118.965 C216,119.484 214.285,118.801 212.914,117.77 Z"/>
  <path fill="rgb(1.960784%, 71.764706%, 0%)" d="M49.715,149.656 C46.457,144 40.457,140.57 33.258,140.742 C29.316,140.914 29.316,140.57 30.344,135.086 C32.742,127.371 32.742,118.113 30.516,118.113 C29.828,118.113 28.973,117.426 28.801,116.398 C28.973,115.543 27.086,112.629 25.031,110.227 C20.059,104.227 11.488,104.227 5.316,110.227 C2.746,112.797 0.516,114.684 0.004,114.512 C-0.34,114.512 -0.852,106.797 -0.852,97.027 C-0.508,83.141 -0.336,77.828 2.918,72.855 C9.773,59.312 21.945,56.57 31.031,65.656 C35.145,70.629 42.688,87.426 43.203,92.227 C43.031,96.512 46.461,94.457 49.203,87.254 C53.66,78.855 63.262,69.77 69.434,67.883 C80.062,65.996 89.832,73.027 97.891,89.141 C100.289,93.77 104.406,98.398 106.461,99.598 C108.859,100.625 110.918,102.512 110.918,103.711 C110.746,104.91 114.176,113.141 117.945,122.055 C121.887,130.969 125.66,140.227 126.516,142.969 L128.059,147.426 L96.344,149.996 C79.371,152.395 62.059,154.109 58.457,154.797 C53.145,155.484 52.113,154.629 49.715,149.656"/>
  <path fill="rgb(0.392157%, 77.647059%, 0%)" d="M-0.516,266.914 C-0.344,266.059 0.34,264.855 1.027,265.027 C1.883,265.027 4.797,261.086 8.57,256.629 C16.285,245.656 16.629,237.43 10.113,224.57 L5.656,215.828 L25.199,214.973 C44.055,214.973 44.57,214.973 49.543,220.117 C52.457,222.859 54.855,226.633 54.855,228.516 C54.855,231.258 56.57,232.457 62.227,232.973 C76.285,234.859 83.312,246.172 77.996,258 C76.281,262.113 74.738,262.801 62.395,263.656 C55.023,264 42.508,265.199 34.625,266.227 C15.941,269.145 -0.688,269.145 -0.516,266.914"/>
  <path fill="rgb(0%, 47.45098%, 1.568627%)" opacity="0.994" d="M97.199,89.484 C89.145,73.199 79.543,66.344 69.258,69.43 C63.086,70.629 53.656,79.715 49.715,87.945 L45.945,95.145 L44.23,86.746 C41.145,66.004 59.66,28.461 75.086,25.719 C88.113,22.461 99.086,34.805 109.027,65.488 L115.715,87.258 L109.887,92.402 C106.801,95.316 103.715,97.887 103.031,97.887 C102.344,97.715 99.602,93.941 97.199,89.484"/>
  <path fill="rgb(27.843137%, 62.352941%, 0.392157%)" d="M124.801,144.688 C124.285,143.316 120.516,133.715 116.23,123.258 C114.516,118.973 112.629,114.688 111.086,110.23 C110.23,108 107.316,104.23 107.145,102.172 C106.457,95.484 116.914,98.914 121.031,95.484 C123.43,93.598 126.516,92.055 127.887,92.227 C132.688,92.227 139.887,100.625 142.629,110.227 C145.543,119.656 146.23,120.168 152.059,120.34 C164.059,121.027 169.371,126.855 167.66,137.824 C166.805,143.652 158.918,145.883 140.059,146.395 C128.23,147.258 125.484,147.086 124.801,144.688"/>
  <path fill="rgb(2.352941%, 64.313725%, 1.568627%)" opacity="0.919" d="M47.828,74.914 C48.684,63.258 55.371,45.941 59.656,44.398 C62.57,43.543 53.656,79.371 50.055,83.312 C47.145,85.887 46.973,85.027 47.828,74.914"/>
</svg>

