<svg xmlns="http://www.w3.org/2000/svg" width="384" height="384" viewBox="0 0 384 384">
  <defs/>
  <path fill="rgb(8.627451%, 74.509804%, 79.607843%)" opacity="0.972" d="M76.629,216.516 C74.57,214.117 73.027,211.371 72.859,209.66 C73.031,203.66 65.488,196.805 59.66,197.316 C56.574,197.316 51.43,199.375 47.832,201.773 C40.633,206.918 39.434,206.402 35.316,198.688 C33.086,194.402 32.402,194.059 31.031,196.629 C28.633,199.027 13.203,202.629 4.633,203.145 L-1.195,202.801 L-1.543,121.715 L14.57,108 C31.883,91.371 40.629,87.086 53.656,86.742 C70.285,86.227 83.656,94.629 92.227,110.742 C96.512,122.227 100.969,125.312 111.598,125.312 C118.969,125.141 123.598,123.77 137.656,116.055 C152.742,108.168 155.484,107.484 163.371,107.484 C172.457,108.34 179.828,111.598 193.715,122.227 C201.258,128.055 212.742,129.426 222.344,125.996 C226.629,124.969 234.859,118.625 240.859,110.91 C247.547,104.566 255.773,97.883 258.688,95.996 C261.086,93.254 266.23,87.426 269.316,82.281 C289.203,58.797 320.746,51.426 348.688,64.109 C363.086,71.309 371.145,77.652 376.801,86.91 C381.258,94.109 381.945,95.824 382.285,110.395 C382.457,119.309 382.973,127.195 383.828,127.539 C384.684,128.227 385.371,142.797 385.371,165.598 C385.371,202.453 385.199,202.625 381.602,202.625 C379.543,202.625 374.914,205.539 370.801,209.824 C360,222.168 357.258,222.34 344.914,210.512 C336.172,200.055 334.801,199.199 328.113,199.199 C321.426,199.027 320.227,199.715 312.172,208.457 C307.371,213.77 301.371,218.398 298.629,219.086 C294.344,219.941 292.285,219.086 283.199,210 C274.969,199.543 272.742,199.371 266.227,198.688 C260.227,199.203 258.168,200.402 248.742,208.629 C240,216.688 237.598,218.57 232.629,218.742 C228.344,217.887 226.113,215.656 222.172,210.172 C210,188.914 174,195.086 159.258,210.688 C147.773,220.973 142.457,220.801 134.742,211.031 C128.055,202.461 121.715,199.203 114,198.859 C109.887,199.203 106.457,201.258 99.086,208.801 C87.602,220.457 81.77,221.656 76.629,216.516"/>
  <path fill="rgb(11.372549%, 76.470588%, 81.568627%)" opacity="0.986" d="M-1.715,348.172 L-1.199,312.172 L6.516,308.23 C12.688,304.973 16.285,304.289 24,304.973 C35.312,306 42.344,309.258 52.801,319.203 C66.688,331.891 73.031,333.262 87.086,326.23 C96.855,320.918 98.059,320.918 105.43,324.688 C108.344,326.23 120.172,329.66 131.66,332.402 C195.43,347.832 294.516,340.461 319.375,318.688 C321.09,317.145 324.004,313.031 325.891,309.43 C329.832,301.715 332.406,301.887 350.234,311.145 C363.434,317.66 367.719,318.172 376.805,314.402 C380.062,313.031 383.148,311.832 383.492,311.832 C383.836,311.832 384.18,328.289 384.18,348.004 L384.18,384.348 L-2.059,384 L-1.715,348.172"/>
  <path fill="rgb(98.039216%, 99.607843%, 98.823529%)" opacity="0.737" d="M-0.516,249.43 L0,204 L9.258,202.629 C14.23,202.113 21.43,200.914 24.516,200.398 L30,199.199 L30.688,213.77 C31.375,229.539 34.973,237.941 46.801,254.055 C53.488,262.285 67.371,287.824 67.371,290.91 C67.371,293.141 54.855,291.426 44.398,287.996 C27.086,282.34 16.113,283.367 4.113,291.426 L-0.859,294.684 L-0.516,249.43"/>
  <path fill="rgb(7.843137%, 14.901961%, 34.901961%)" opacity="0.996" d="M156.855,326.914 C128.742,324.344 98.914,316.629 86.398,307.887 C76.629,301.715 67.883,290.914 60.34,275.145 C57.254,266.574 50.91,255.773 45.941,251.145 C31.371,233.145 27.77,219.602 31.371,201.258 L32.57,193.027 L35.484,198.512 C36.512,201.254 42.172,205.539 47.656,207.77 C60.172,212.742 63.426,217.027 66.172,234.168 C68.402,251.312 72,257.312 80.914,262.797 C87.258,266.398 89.312,267.082 104.398,267.082 C123.426,265.023 144.684,259.367 156.34,253.023 C166.625,247.539 170.738,237.938 173.312,216.508 C174.855,207.422 177.598,197.82 179.312,195.422 C183.082,189.422 192.34,182.051 197.141,182.051 C200.227,181.707 199.883,183.078 198.855,202.793 C197.828,220.105 197.828,223.879 200.57,229.023 C206.227,239.48 210.34,241.539 236.742,242.395 C263.312,244.109 283.027,248.566 296.914,256.281 C314.57,265.023 329.145,283.711 328.629,296.223 C329.484,301.535 327.773,301.879 318.859,298.965 C315.43,295.535 305.145,294.508 290.574,295.363 C268.973,293.648 267.602,294.336 250.973,299.648 C240.859,302.734 223.031,309.078 212.059,315.934 C193.203,326.562 190.457,326.906 177.602,327.246 C169.887,327.258 160.629,327.43 156.855,326.914"/>
  <path fill="rgb(95.686275%, 91.764706%, 92.156863%)" opacity="0.914" d="M166.801,338.059 C131.145,334.117 90.172,320.23 79.031,308.059 C75.602,304.289 76.461,304.457 86.23,309.602 C106.117,320.23 136.973,326.746 169.715,327.602 L187.887,328.117 L209.656,317.488 C221.484,311.145 239.656,303.773 249.941,300.516 C267.941,294.516 269.141,294.516 290.398,295.543 C308.914,296.57 323.484,299.145 328.797,302.914 C328.969,303.258 328.109,305.828 326.566,308.742 C318.336,324.855 293.652,334.457 251.652,338.57 C234.688,339.941 180.855,340.113 166.801,338.059"/>
  <path fill="rgb(96.470588%, 95.686275%, 93.72549%)" opacity="0.965" d="M230.57,289.199 C227.656,283.371 232.969,276.855 238.457,279.43 C240.688,280.457 242.742,283.371 242.914,286.117 C243.602,293.145 233.484,295.887 230.57,289.199"/>
  <path fill="rgb(81.176471%, 71.372549%, 64.705882%)" d="M293.656,304.285 C293.141,304.113 292.629,304.113 292.285,303.598 C294.855,303.254 308.742,296.91 309.086,302.398 C309.258,304.629 298.801,305.656 293.656,304.285"/>
  <path fill="rgb(35.686275%, 89.019608%, 91.372549%)" opacity="0.868" d="M66.688,330 C64.801,328.973 59.316,324.688 55.031,320.57 C44.059,310.457 37.031,307.027 25.031,306.172 C16.801,305.484 13.375,306.172 6.688,309.773 L-1.711,314.059 L-1.711,303.945 C-1.711,294.859 -1.367,293.145 3.262,289.203 C6.348,286.805 12.52,283.891 17.492,282.516 C25.035,280.801 27.949,280.973 37.551,283.371 C43.551,285.086 52.809,286.973 57.949,287.484 C66.008,288.512 67.891,289.543 72.863,295.715 C76.293,299.316 80.234,304.801 82.121,307.543 C83.836,310.285 89.32,314.742 94.637,317.828 C99.609,320.57 102.523,323.141 101.152,323.141 C99.781,322.969 94.465,325.199 89.84,327.598 C80.57,332.398 72.344,333.086 66.688,330"/>
  <path fill="rgb(40%, 90.196078%, 92.54902%)" opacity="0.942" d="M354.344,313.543 C350.23,311.145 342.688,307.887 337.371,306.516 C327.602,303.602 327.77,303.773 328.457,297.086 C328.801,290.57 329.312,290.23 336.688,288.688 C355.543,284.402 384.344,294.688 385.543,306.516 C386.23,311.316 385.543,312.172 378.855,315.086 C368.57,319.199 362.914,318.688 354.344,313.543"/>
</svg>

