<svg xmlns="http://www.w3.org/2000/svg" width="384" height="384" viewBox="0 0 384 384">
  <defs/>
  <path fill="rgb(0%, 82.745098%, 89.019608%)" opacity="0.987" d="M275.656,68.914 C272.398,64.973 271.371,57.258 273.258,51.77 C274.973,46.457 274.457,45.941 266.742,37.883 C256.285,28.281 254.227,23.996 254.57,15.941 L254.398,9.426 L262.457,9.082 C274.285,9.254 290.227,17.141 299.828,27.598 C303.598,32.398 307.027,37.711 307.371,39.426 C307.027,43.883 309.941,43.539 310.801,38.738 C314.059,26.051 337.887,9.766 354,9.254 L362.059,9.77 L362.059,18.168 C362.059,25.883 361.203,27.254 351.945,35.824 C345.43,42.852 342.859,46.453 343.887,47.824 C346.801,52.625 345.945,64.625 342.859,68.055 C334.289,75.77 317.66,69.254 312.172,55.883 C309.602,48.34 308.059,48.34 305.656,55.367 C302.055,64.109 292.629,71.309 284.398,71.309 C280.801,71.484 276.855,70.285 275.656,68.914"/>
  <path fill="rgb(2.745098%, 0.392157%, 75.294118%)" opacity="0.998" d="M242.398,380.742 C222,369.598 215.656,349.543 214.969,303.77 C214.969,297.77 213.082,286.797 217.539,281.828 C220.109,278.914 224.738,277.715 227.824,274.285 C236.738,264.172 252.512,249.43 238.797,236.914 C238.797,236.914 234.855,233.312 234.855,233.312 L247.711,221.656 C264.684,207.258 292.453,187.543 314.398,174 C332.742,162.516 371.484,143.145 379.543,141.602 L384.344,140.23 L384.172,188.746 C384.859,215.145 384.172,239.145 383.145,241.891 C382.457,244.805 381.086,248.918 381.086,251.832 C378.344,264.688 361.887,275.832 341.828,277.891 C335.484,277.203 331.199,278.062 331.027,279.605 C331.371,281.32 333.941,283.891 337.371,286.633 C344.914,293.488 351.258,307.375 350.914,317.148 C351.086,328.293 346.113,335.836 334.629,341.492 L324.859,345.262 L325.203,356.746 C325.547,373.891 324.176,375.773 302.574,375.09 C285.43,374.234 285.09,374.746 281.316,379.891 C278.23,385.035 277.547,384.863 263.832,385.035 C252.344,384.688 248.742,384 242.398,380.742"/>
  <path fill="rgb(2.352941%, 0%, 75.294118%)" opacity="0.994" d="M37.543,366.855 C33.773,363.598 33.258,353.141 37.027,349.883 C38.57,348.34 44.742,345.77 51.77,344.055 C71.656,340.285 85.199,329.656 88.797,317.824 C91.539,311.652 86.227,302.395 77.484,298.797 C72.34,297.77 68.742,294.855 68.57,292.797 C67.543,291.082 69.598,285.77 73.027,280.453 C79.715,272.738 80.742,270.684 79.715,259.195 C79.199,236.223 90.688,220.797 112.113,214.109 C117.598,213.254 121.543,211.879 121.883,211.195 C121.367,210.34 116.91,207.594 111.941,205.195 C101.141,199.023 90.684,188.738 88.285,181.539 C84.172,170.055 85.371,161.309 95.656,141.77 L103.887,123.082 L103.543,104.227 C103.199,89.828 104.398,83.312 107.145,76.457 C115.199,56.742 129.086,46.113 147.43,45.941 C160.973,46.969 169.371,50.227 182.059,62.227 C197.828,77.656 216.859,123.254 224.402,159.77 C227.66,174.855 230.402,207.77 230.23,223.199 C230.918,232.457 230.574,232.457 222.859,235.715 C208.629,242.059 199.887,265.199 209.488,278.742 L214.117,283.543 L204.859,293.312 C189.945,311.141 159.945,340.457 152.059,342.855 C141.773,347.656 129.43,348.34 116.914,344.398 C91.543,337.371 73.371,342 57.258,360.684 C47.484,370.801 42.516,371.656 37.543,366.855"/>
  <path fill="rgb(3.137255%, 1.176471%, 74.901961%)" opacity="0.987" d="M305.828,168.855 C302.742,166.457 303.598,157.199 307.543,152.914 C314.398,145.199 326.059,146.742 326.742,154.973 C327.258,162.172 310.801,173.145 305.828,168.855"/>
  <path fill="rgb(3.137255%, 0.784314%, 76.470588%)" opacity="0.989" d="M226.113,129.43 C220.969,124.117 220.113,114.172 224.57,109.715 C228.34,105.43 230.227,105.602 236.055,111.086 C239.484,114.172 241.027,117.773 241.367,122.23 C241.371,133.371 234,136.801 226.113,129.43"/>
  <path fill="rgb(0%, 96.862745%, 84.313725%)" opacity="0.991" d="M254.059,351.941 C242.402,346.969 238.457,337.711 231.602,298.113 L227.145,274.285 L230.574,270.684 L234.516,266.742 L241.543,270.512 C247.715,273.598 251.828,274.113 268.113,273.941 C286.113,273.77 287.828,273.941 298.629,279.254 C323.484,290.91 332.398,309.426 320.059,323.824 C315.258,329.48 313.887,329.996 305.488,330.168 C296.23,329.996 296.059,330.34 287.66,339.77 C275.145,354.516 266.57,357.43 254.059,351.941"/>
  <path fill="rgb(0%, 95.686275%, 83.921569%)" opacity="0.99" d="M257.145,259.715 C250.629,257.828 243.258,252.859 243.086,250.113 C243.258,244.969 284.742,210.855 306.344,198.344 C335.316,181.543 357.258,179.828 366.859,193.887 C369.773,197.145 368.574,207.602 364.461,213.773 C361.891,217.543 360.52,223.031 360.52,229.031 C360.176,246.688 349.719,256.289 326.234,259.887 C312.855,261.941 264,262.113 257.145,259.715"/>
  <path fill="rgb(1.568627%, 1.176471%, 6.27451%)" d="M207.602,279.086 C203.145,273.773 203.66,256.285 208.457,247.715 C219.77,228 244.801,228.172 243.941,248.23 C243.254,258.859 231.086,274.973 219.254,280.801 C212.398,284.059 211.543,283.887 207.602,279.086"/>
  <path fill="rgb(0%, 96.078431%, 84.313725%)" opacity="0.991" d="M119.828,315.43 L113.484,309.086 L114.684,294.855 C116.055,281.141 115.883,280.797 110.57,272.398 C107.312,267.254 104.57,260.398 103.883,255.941 C103.367,248.914 103.883,247.371 109.367,242.055 C121.367,230.055 137.652,229.711 164.055,241.199 C173.312,245.141 185.996,249.598 192.512,251.484 C207.082,255.086 207.598,256.797 200.91,270 C195.426,281.656 170.395,305.656 153.938,315.086 C145.707,320.398 141.25,321.602 134.738,321.43 C127.199,321.43 125.145,320.742 119.828,315.43"/>
  <path fill="rgb(1.568627%, 96.862745%, 84.313725%)" opacity="0.995" d="M190.457,233.484 C183.43,229.371 167.312,220.457 155.145,213.941 C124.117,197.141 116.402,190.113 111.945,174 C108.176,161.484 118.461,146.914 133.887,143.145 C139.887,141.602 142.457,139.887 144.344,135.945 C147.602,129.773 156.344,125.832 166.973,125.832 C185.316,125.832 194.23,136.977 204.859,172.805 C208.973,187.547 212.574,235.035 209.66,238.461 C206.742,242.059 205.027,241.543 190.457,233.484"/>
</svg>

