<svg xmlns="http://www.w3.org/2000/svg" width="384" height="384" viewBox="0 0 384 384">
  <defs/>
  <path fill="rgb(7.843137%, 44.705882%, 16.078431%)" opacity="0.986" d="M277.715,159.258 L277.371,150.172 L268.285,149.656 C245.828,146.055 233.484,133.199 223.887,101.828 C219.258,86.914 216.859,60 220.285,49.543 C222.684,40.973 230.398,32.914 236.742,33.773 C243.258,32.918 251.484,40.801 254.055,49.375 C255.254,52.977 256.969,66.688 257.484,80.062 C257.312,94.461 257.656,105.09 259.883,108.004 C262.113,113.316 274.797,120.859 276.512,118.633 C276.855,117.434 276.168,109.031 275.141,99.262 C273.77,89.32 272.91,70.805 272.91,57.777 C274.969,32.578 277.883,24.691 285.766,15.434 C289.707,11.492 291.594,10.977 299.137,12.176 C307.367,10.977 308.738,11.832 312.68,16.117 C320.395,25.719 322.621,33.09 322.449,74.402 L320.734,112.973 L325.363,111.773 C328.105,111.773 332.391,109.887 334.621,108.344 C338.734,105.602 339.25,103.887 338.906,89.145 C339.762,71.488 343.191,63.773 351.422,59.488 C358.277,56.402 364.793,58.801 368.223,64.973 C371.824,71.828 371.824,101.145 368.223,113.316 C362.91,131.145 348.164,142.629 327.938,141.43 C321.082,140.742 320.566,141.258 320.051,147.773 C319.879,151.375 319.363,157.715 319.535,161.488 L318.68,169.031 L278.91,169.031 L277.715,159.258"/>
  <path fill="rgb(95.294118%, 2.745098%, 19.215686%)" opacity="0.95" d="M43.887,134.914 C44.059,133.715 42,130.113 39.086,126.855 C34.629,122.398 33.941,121.027 36.172,119.656 C38.059,118.801 40.113,118.113 41.828,118.113 C43.199,118.285 45.941,116.055 48,113.312 C51.43,108.512 51.77,108.34 54.516,112.113 C55.887,114.344 58.285,116.055 60.172,116.227 C61.887,116.055 64.801,117.254 67.199,118.625 C70.457,121.195 70.113,121.367 66.344,125.996 C64.285,128.91 62.574,132.168 62.23,133.711 C62.746,135.77 60.172,136.281 53.66,136.625 C48.172,136.629 44.059,135.941 43.887,134.914"/>
  <path fill="rgb(10.196078%, 29.019608%, 18.823529%)" opacity="0.988" d="M123.602,284.914 C120.172,282.516 118.117,278.059 117.43,271.715 C118.457,266.914 114.859,256.973 112.285,249.43 C110.57,241.543 108.855,231.945 109.715,227.145 C109.543,222.688 107.656,212.059 106.973,202.801 C106.973,193.887 103.371,176.914 104.402,164.914 C102.344,146.059 102,126.855 104.57,108 C106.801,91.543 110.055,68.57 124.113,58.113 C130.285,53.656 131.484,48.684 139.715,48.855 C143.828,49.027 147.602,49.883 151.887,49.371 C156.859,48.684 161.828,46.457 166.973,48 C174,50.23 182.059,58.113 185.145,64.801 C186.172,67.031 186.859,69.258 187.715,71.488 C188.914,74.059 190.457,76.461 191.656,78.859 C198.512,91.547 198.684,106.117 199.887,120.172 C201.086,134.402 201.43,148.801 201.945,163.027 C200.23,188.398 201.602,204.684 199.375,210.172 C197.145,214.457 197.145,220.629 198.688,223.543 C199.203,226.801 198.688,234.344 198,240.344 C196.113,246 194.059,255.773 195.258,262.457 C194.402,270.855 192.172,277.199 189.086,282 L184.457,289.371 C168.172,289.371 151.887,289.371 135.602,289.543 C129.086,289.543 126.688,288.688 123.602,284.914"/>
  <path fill="rgb(0.784314%, 56.078431%, 11.764706%)" opacity="0.987" d="M20.059,343.027 L20.402,328.457 L13.203,326.059 C3.262,321.43 -1.195,313.543 -0.855,298.801 C-0.512,290.402 -0.168,285.773 2.059,284.402 C8.914,278.746 15.945,286.117 16.289,298.973 C15.945,305.828 18.176,312.172 20.23,310.973 C20.059,310.285 20.746,292.629 20.402,271.203 L21.09,232.805 L13.031,230.406 C2.574,224.578 -1.539,216.008 -0.684,200.062 C-0.168,190.805 0.859,188.75 4.289,186.691 C7.719,184.293 8.402,184.293 12.348,186.863 C14.234,188.406 15.949,193.719 17.148,199.035 C17.664,212.062 18.176,215.32 20.406,215.664 C21.434,215.148 21.949,211.207 21.605,206.406 C21.605,186.008 23.492,156.863 28.121,150.348 C33.949,140.406 41.32,135.434 52.977,136.633 C61.207,136.117 62.062,136.977 68.746,142.117 C72.348,145.547 75.945,151.887 77.145,155.832 C80.746,163.547 83.488,207.09 84.172,259.375 C84.688,286.461 84.172,297.09 85.543,296.402 C88.113,295.547 89.828,291.945 90.688,279.773 C93.086,271.543 97.887,268.461 103.031,271.543 C105.09,273.602 106.289,277.715 105.945,285.773 C105.43,295.031 104.574,297.773 101.316,302.746 C98.574,305.66 94.117,308.746 91.203,309.434 L84.859,310.633 L84.344,333.605 L83.828,357.434 L21.598,357.434 L20.059,343.027"/>
  <path fill="rgb(23.137255%, 59.607843%, 0.784314%)" opacity="0.984" d="M223.715,386.398 C220.629,371.828 217.715,357.254 215.145,342.512 C214.973,341.484 214.801,340.453 215.145,339.598 C215.488,338.57 216.344,337.711 217.375,337.883 C212.23,326.57 214.289,314.227 214.805,302.398 C215.32,287.484 216.004,272.57 217.035,257.828 C217.551,250.113 216.52,241.199 218.922,234 C220.121,230.398 221.664,225.086 224.578,222.516 C228.52,218.914 236.234,219.602 241.723,218.746 C244.98,218.23 248.41,217.547 251.492,218.746 C255.434,220.289 257.836,224.23 259.551,228.176 C266.406,243.945 269.664,261.777 270.352,278.746 C270.18,298.117 270.695,302.918 269.152,303.773 C266.41,302.918 266.238,302.918 268.98,303.43 C270.18,305.66 270.523,309.945 268.98,330.859 C267.953,344.402 266.066,357.945 264.352,360.859 C263.664,365.145 262.465,372.688 261.438,378.344 L259.379,388.629 L241.723,388.629 C228.688,388.457 223.027,387.77 223.715,386.398"/>
  <path fill="rgb(95.294118%, 83.529412%, 2.352941%)" opacity="0.992" d="M130.457,117.941 C124.629,103.711 128.742,91.371 136.973,99.086 C139.887,101.828 140.059,103.199 138.344,111.43 C135.258,123.941 133.371,125.656 130.457,117.941"/>
  <path fill="rgb(95.686275%, 84.705882%, 2.352941%)" opacity="0.992" d="M169.199,142.285 C165.941,129.77 167.312,124.285 173.484,124.285 C177.426,124.457 178.629,125.312 179.141,130.457 C179.484,135.602 174.34,151.199 172.113,151.027 C171.77,151.199 170.57,147.258 169.199,142.285"/>
  <path fill="rgb(96.078431%, 86.27451%, 2.745098%)" opacity="0.996" d="M131.484,187.199 C127.543,176.57 128.398,169.371 133.715,168.344 C139.715,167.145 141.43,172.113 139.371,183.43 C136.801,195.602 134.398,196.801 131.484,187.199"/>
  <path fill="rgb(58.039216%, 20%, 5.098039%)" opacity="0.996" d="M274.285,226.457 C274.113,224.059 271.199,212.914 268.629,199.887 C265.715,188.059 262.285,176.059 261.43,173.488 L260.914,168.688 L298.801,168.516 C335.828,168 337.199,168 337.543,171.43 C337.027,173.828 336.172,177.086 335.145,178.629 C333.945,180.516 331.031,192.859 328.457,205.371 L323.656,229.887 L299.312,229.715 C275.484,230.398 274.973,230.398 274.285,226.457"/>
  <path fill="rgb(48.235294%, 47.843137%, 47.843137%)" opacity="0.959" d="M131.484,383.312 C131.484,378.684 121.027,317.312 119.484,315.082 C118.629,313.539 118.457,306.512 119.312,299.652 C119.828,289.711 120.684,287.309 123.082,287.137 C124.625,287.309 139.195,287.48 155.48,287.48 C177.082,287.652 185.309,287.309 185.48,285.766 C185.48,284.051 185.824,284.223 187.367,285.766 C191.652,289.195 192.34,309.422 188.223,342.164 C186.336,359.137 184.109,375.934 184.109,378.852 L182.91,384.508 L157.195,384.164 C143.145,384.344 131.656,383.828 131.484,383.312"/>
  <path fill="rgb(94.509804%, 84.313725%, 3.921569%)" opacity="0.988" d="M166.629,230.57 C163.371,220.969 163.543,217.715 167.484,214.113 C173.828,208.629 177.254,213.426 175.883,224.055 C173.484,237.602 169.887,240.344 166.629,230.57"/>
  <path fill="rgb(98.039216%, 99.607843%, 97.647059%)" opacity="0.758" d="M17.656,297.602 C16.457,286.289 11.828,280.973 5.312,282.516 L0.34,283.887 L-0.688,216.344 L2.914,222 C5.145,225.602 9.43,228.855 13.371,230.398 L20.227,232.969 L20.055,267.254 C19.543,306.344 19.371,310.629 17.656,297.602"/>
  <path fill="rgb(78.431373%, 26.27451%, 4.313725%)" opacity="0.999" d="M25.715,375.258 C25.199,370.113 23.656,366 22.457,365.488 C21.086,365.145 19.887,362.746 19.887,360.516 L20.059,356.23 L84.688,356.402 L84.688,360.859 C84.688,363.258 84,365.316 82.973,365.316 C81.945,365.316 80.742,369.602 80.23,374.918 L78.859,384.52 L27.09,384.348 L25.715,375.258"/>
  <path fill="rgb(92.156863%, 83.921569%, 0%)" opacity="0.975" d="M141.43,280.973 C138,270.172 139.543,264.344 145.887,264.344 C150,264.688 151.371,265.715 151.715,270.688 C152.57,277.031 148.285,288.688 145.543,288.688 C144.516,288.516 142.629,285.086 141.43,280.973"/>
  <path fill="rgb(2.745098%, 52.156863%, 11.372549%)" opacity="0.989" d="M296.23,331.027 C286.289,319.371 283.887,296.742 290.918,280.113 C299.832,260.055 311.316,250.457 325.891,249.941 C336.863,250.629 342.863,253.371 351.777,262.969 C360.863,273.598 365.148,284.738 366.52,299.484 C367.035,313.199 364.633,322.113 358.977,329.312 L355.375,333.77 L326.574,333.77 C304.973,333.602 297.602,332.914 296.23,331.027"/>
  <path fill="rgb(58.039216%, 18.431373%, 3.529412%)" opacity="0.981" d="M304.973,382.285 C304.801,380.914 302.059,371.484 299.145,361.371 C296.23,351.258 292.973,342.172 292.117,341.141 C291.262,340.113 289.887,337.711 289.375,335.828 C288.52,332.914 291.09,332.742 327.945,333.258 L367.715,333.086 L362.23,347.656 C359.832,355.887 356.574,367.543 355.203,373.543 L352.973,384.516 L329.316,384.344 C312.344,384.344 305.484,383.828 304.973,382.285"/>
</svg>

