<svg xmlns="http://www.w3.org/2000/svg" width="384" height="384" viewBox="0 0 384 384">
  <defs/>
  <path fill="rgb(49.411765%, 74.509804%, 84.313725%)" opacity="0.905" d="M162.344,249.086 C124.285,247.887 91.715,242.57 59.656,220.113 C51.086,214.113 42.172,204.172 46.113,194.57 C48.512,188.57 55.199,185.484 61.199,183.426 C78.684,177.426 97.199,174.855 115.715,175.711 C121.715,176.055 127.715,176.738 133.371,175.023 C145.887,171.594 153.086,158.738 161.656,148.793 C184.629,122.395 225.086,115.535 258.344,126.508 C283.371,134.738 306,152.738 322.629,172.965 C333.602,186.336 364.457,221.309 351.258,239.48 C341.656,252.68 317.488,245.824 303.945,245.137 C289.031,244.449 274.461,245.48 259.547,246.68 C227.312,249.43 194.742,252.516 162.344,249.086"/>
  <path fill="rgb(77.254902%, 78.039216%, 78.823529%)" opacity="0.984" d="M168.172,177.941 C165.258,174.512 165.086,174 169.199,165.77 C175.543,151.883 185.484,145.711 205.027,143.828 L215.484,142.973 L215.484,161.145 C215.656,176.059 214.969,179.488 212.742,180.344 C211.371,180.688 201.43,181.371 190.801,181.371 C173.312,181.371 171.086,181.027 168.172,177.941"/>
  <path fill="rgb(77.254902%, 78.039216%, 79.215686%)" opacity="0.986" d="M238.801,178.801 C237.43,177.086 237.258,172.629 238.113,161.828 C238.969,153.941 240,146.059 240.344,144.855 C242.402,139.199 270.172,148.285 280.285,157.711 C285.77,162.855 286.801,170.738 282.344,176.91 C279.945,180.852 278.402,180.852 260.402,181.195 C246.172,181.027 240.344,180.344 238.801,178.801"/>
  <path fill="rgb(36.078431%, 34.509804%, 34.117647%)" opacity="0.991" d="M144,169.543 C141.086,161.656 154.801,150.688 161.145,156.344 C162,156.859 162.344,160.285 162,163.887 C160.457,173.828 147.086,178.113 144,169.543"/>
  <path fill="rgb(97.647059%, 12.156863%, 14.901961%)" opacity="0.99" d="M319.887,191.656 C318.344,188.742 317.488,184.285 318,181.371 C319.027,176.398 319.715,175.887 327.602,176.742 C335.832,177.258 336.516,177.598 336.516,182.914 C336.688,186 336,190.629 335.488,193.199 C333.258,199.543 323.484,198.516 319.887,191.656"/>
  <path fill="rgb(12.54902%, 12.941176%, 12.941176%)" opacity="0.994" d="M281.828,258.516 C265.887,249.945 258.684,229.715 267.598,218.23 C274.969,208.461 280.113,206.23 293.996,206.23 C304.453,206.746 307.883,207.602 312.512,210.859 C329.141,223.031 325.711,249.773 306.34,258.859 C296.398,263.484 291.602,263.484 281.828,258.516"/>
  <path fill="rgb(10.588235%, 10.980392%, 10.980392%)" opacity="0.996" d="M74.059,258 C58.117,244.457 63.086,214.801 82.629,209.312 C107.828,201.77 127.199,224.57 115.371,246.855 C109.887,257.484 102,262.625 90.344,262.969 C82.113,263.145 79.543,262.457 74.059,258"/>
  <path fill="rgb(93.72549%, 94.509804%, 96.078431%)" opacity="0.969" d="M222.172,162.688 C222.688,142.117 223.027,141.43 227.316,140.746 C232.117,140.059 232.117,141.262 229.547,159.262 C225.945,181.719 225.434,183.605 223.375,183.777 C222.172,183.941 221.656,175.887 222.172,162.688"/>
  <path fill="rgb(60%, 63.921569%, 67.058824%)" opacity="0.839" d="M53.145,244.973 C58.801,243.258 63.602,237.602 66.344,232.973 C70.801,225.258 66,215.828 62.402,208.457 C58.801,200.914 42.344,188.914 35.66,198.855 C31.031,205.883 31.719,217.543 33.09,225.426 C34.633,234.34 36.52,241.711 46.289,244.797 C48.688,245.656 50.914,245.656 53.145,244.973 Z"/>
</svg>

