<svg xmlns="http://www.w3.org/2000/svg" width="384" height="384" viewBox="0 0 384 384">
  <defs/>
  <path fill="rgb(91.372549%, 63.921569%, 14.117647%)" opacity="0.889" d="M211.543,17.145 C210.172,15.773 209.828,13.203 210.855,11.488 C212.398,9.602 213.941,9.258 215.484,11.145 C216.684,12.344 217.199,15.086 216,16.973 C214.801,18.688 213.258,18.855 211.543,17.145"/>
  <path fill="rgb(98.823529%, 0%, 0.784314%)" opacity="0.982" d="M214.113,51.77 C212.398,51.082 211.543,45.941 211.371,34.797 L211.199,19.539 L219.43,19.195 C229.371,18.68 251.316,24.852 255.602,28.965 C257.145,30.508 258.172,33.594 258.172,35.82 C258.344,38.051 261.258,42.848 264.516,46.277 L270.859,52.105 L256.629,52.449 C238.285,49.191 228.859,49.363 222,52.621 C218.914,52.113 215.312,52.113 214.113,51.77"/>
  <path fill="rgb(98.823529%, 0%, 1.176471%)" opacity="0.984" d="M314.742,166.457 C313.027,165.258 312.344,160.285 312.512,148.629 L313.027,132.688 L323.141,132.688 C337.371,133.375 355.371,140.574 355.883,146.23 C356.055,148.461 359.824,153.945 364.113,158.23 C373.371,167.316 371.312,168.688 351.426,165.945 C338.398,163.031 334.625,163.203 322.113,167.316 C319.199,167.312 315.941,167.312 314.742,166.457"/>
  <path fill="rgb(5.882353%, 6.666667%, 12.54902%)" opacity="0.991" d="M65.484,339.941 C63.086,330.855 56.57,250.113 55.883,238.285 C56.398,236.055 53.996,233.484 49.539,231.77 C40.625,226.113 37.883,218.398 38.055,203.656 C38.398,193.371 39.082,192 43.027,191.312 C49.199,190.285 47.828,194.57 51.258,198 C54.688,201.43 62.57,204.855 66.859,204.855 C70.461,205.711 74.574,204.34 75.602,202.797 C76.629,201.426 78.344,200.398 79.543,200.566 C81.086,201.766 81.258,200.223 80.23,196.797 C81.945,188.738 83.316,185.996 88.801,186.34 C96.859,185.484 101.828,192.684 102.688,206.227 C102.859,215.141 101.488,218.227 97.887,223.539 L93.258,229.539 L97.371,244.625 C99.602,253.539 102,260.738 102.684,260.91 C102.168,261.938 104.57,261.426 106.797,260.395 C111.254,260.223 110.738,258.336 109.367,248.738 L110.055,236.566 L131.996,235.711 L133.195,247.367 C133.539,257.48 133.195,257.824 138.168,257.48 L143.312,257.309 L142.969,219.594 C143.996,185.48 145.711,182.395 140.055,180.336 C133.883,172.449 132.855,167.648 133.027,153.766 C132.855,138.336 134.57,135.766 143.656,136.621 C149.656,135.934 151.027,136.793 151.371,146.223 C151.371,156.852 150.855,157.879 158.059,157.367 C165.945,159.426 168,156.168 167.316,145.539 C167.66,136.797 170.059,133.883 176.23,135.254 C184.629,134.227 186.344,135.598 187.203,146.398 C187.547,156.684 189.434,160.285 192.176,157.883 C192.863,156.855 194.062,145.711 194.746,132.684 L196.117,109.883 L188.918,105.082 L183.09,97.195 L181.719,83.137 C183.262,70.621 184.117,69.422 188.234,69.594 C191.836,68.566 193.379,70.109 196.293,76.449 C201.777,89.992 205.379,89.305 204.523,72.508 C205.211,67.363 206.582,67.363 213.609,67.707 C221.324,67.879 221.668,67.707 222.352,75.422 C222.867,88.277 226.637,88.277 229.379,75.766 C231.094,69.078 232.465,69.078 237.266,69.078 C240.867,68.734 242.578,69.934 244.293,73.363 C248.062,85.707 246.352,101.305 237.266,107.133 C231.438,109.703 231.438,109.703 232.98,121.703 C233.324,131.305 233.836,136.102 236.238,137.133 C239.84,138.16 239.668,141.59 240.867,153.59 C240.695,167.305 240.012,168.848 236.066,175.02 L230.754,180.504 L231.953,209.988 C232.641,226.273 233.324,244.102 233.668,249.246 L234.012,257.477 L246.355,257.133 L246.699,250.277 C246.699,236.391 247.043,235.191 259.043,236.562 L270.355,237.418 L270.871,248.391 L270.699,259.535 L277.043,259.535 L281.672,260.051 L288.527,233.137 L284.926,230.566 C278.41,225.422 274.984,218.395 274.812,205.367 C275.668,189.082 277.727,182.91 284.07,184.797 C289.555,183.941 290.758,185.141 294.184,195.254 C298.984,209.141 303.953,208.625 305.668,193.539 C307.555,185.824 309.27,184.281 314.582,186.34 C317.324,186.684 318.352,189.254 319.039,195.77 C320.066,210.34 324.523,210 331.383,195.598 C334.469,189.598 335.84,189.598 340.469,190.969 C343.211,190.625 345.613,191.312 345.781,191.996 C346.297,192.512 346.98,197.48 347.496,203.652 C346.809,216.508 343.727,223.367 335.496,230.566 L329.496,235.195 L326.066,279.082 C323.496,303.082 321.438,326.395 320.754,330.168 L319.898,339.426 L300.355,339.254 C289.555,337.539 266.926,337.711 250.125,337.195 L218.238,335.652 L217.383,312.852 C217.555,292.621 217.211,289.367 213.27,282.68 C201.957,263.137 179.5,262.449 168.184,281.48 C164.754,286.281 163.727,290.566 164.414,311.309 L164.242,336.336 L138.871,337.363 C116.242,337.879 103.043,339.078 77.328,342.676 C66.172,344.398 65.484,344.57 65.484,339.941"/>
  <path fill="rgb(98.039216%, 1.568627%, 0.784314%)" opacity="0.969" d="M90.516,169.199 C83.316,167.141 79.715,166.801 73.715,168.684 C62.914,171.77 60.516,169.539 60,154.453 L58.801,143.309 L69.43,142.621 C84.172,142.277 100.629,149.137 100.457,155.992 C99.941,159.078 101.656,163.879 103.199,166.965 C106.285,171.938 106.457,172.277 103.371,172.449 C101.312,172.629 95.484,171.258 90.516,169.199"/>
  <path fill="rgb(83.137255%, 30.588235%, 13.333333%)" opacity="0.922" d="M210.172,44.914 C209.656,28.113 210.344,18 211.199,17.828 C212.57,17.828 213.598,24.684 213.77,34.457 C213.941,44.914 214.969,51.086 216.34,50.914 C217.367,50.914 217.027,52.457 215.141,54 C213.254,56.059 212.742,59.145 213.598,61.543 C214.113,63.941 213.77,67.027 212.91,68.742 C211.715,70.629 210.516,62.57 210.172,44.914"/>
  <path fill="rgb(81.568627%, 30.196078%, 10.980392%)" opacity="0.807" d="M310.285,160.801 C310.629,134.23 311.484,126.344 313.715,124.629 C318.516,121.887 321.43,122.398 318.688,125.484 C314.746,129.086 315.086,164.57 319.031,164.57 C320.402,164.57 319.887,165.77 318.004,166.969 C315.262,168.34 314.062,172.113 314.062,177.426 C314.062,181.883 313.207,187.539 312.348,189.941 C310.973,192.516 310.113,179.656 310.285,160.801"/>
  <path fill="rgb(97.647059%, 70.588235%, 5.098039%)" opacity="0.997" d="M208.113,146.398 C208.457,140.57 209.484,135.941 210.512,135.941 C212.91,135.941 215.484,151.711 213.254,154.969 C210,159.43 207.941,156 208.113,146.398"/>
  <path fill="rgb(53.333333%, 17.254902%, 0%)" opacity="0.881" d="M72,204.172 C70.973,202.973 71.145,198.344 71.828,194.059 C73.199,188.059 74.742,186.859 77.484,188.574 C79.883,190.289 80.57,194.746 79.543,199.375 C77.828,207.086 74.914,209.145 72,204.172"/>
  <path fill="rgb(66.666667%, 32.54902%, 12.941176%)" opacity="0.853" d="M63.602,202.629 C62.914,198.344 61.203,193.199 59.832,191.316 C58.289,188.059 59.145,187.031 63.262,186.172 C68.234,185.484 68.918,186.516 69.949,196.113 C71.312,208.973 66,214.629 63.602,202.629"/>
  <path fill="rgb(60.392157%, 12.156863%, 7.45098%)" opacity="0.963" d="M53.828,206.742 C52.629,204.684 51.43,199.887 50.742,195.941 C50.398,190.285 51.258,188.914 54.344,189.254 C56.742,189.254 58.629,192.684 59.145,196.969 C58.801,201.082 59.145,205.711 59.66,207.598 C60.004,209.312 59.316,210.684 58.117,210.34 C56.742,210.516 54.855,208.629 53.828,206.742"/>
  <path fill="rgb(88.627451%, 69.019608%, 3.137255%)" opacity="0.975" d="M182.059,216.688 C182.914,213.258 182.402,209.832 180.859,208.117 C178.973,205.375 179.145,205.031 182.402,205.031 C184.801,205.203 187.375,203.66 188.402,201.945 C190.289,198.688 190.289,198.688 190.633,201.945 C190.289,204.344 192.004,205.203 195.605,205.375 C200.406,205.203 200.406,205.375 197.492,208.633 C195.434,210.52 194.234,214.461 194.406,217.375 C194.234,222.004 193.719,222.52 191.32,220.461 C188.922,218.402 187.551,218.23 186.008,219.773 C182.398,223.715 181.027,222.516 182.059,216.688"/>
  <path fill="rgb(55.686275%, 19.607843%, 0.392157%)" opacity="0.965" d="M163.199,313.543 C163.199,287.484 164.57,281.484 173.484,273.258 C184.629,262.801 201.77,265.715 211.199,279.773 C216.172,286.801 216.512,288.172 217.027,311.832 L217.715,336.688 L163.199,337.031 L163.199,313.543"/>
  <path fill="rgb(0%, 62.352941%, 1.176471%)" opacity="0.995" d="M-1.887,379.887 C-1.887,368.914 50.227,345.258 85.715,340.801 C128.23,334.973 194.23,334.113 295.543,338.57 C339.602,339.77 354.516,343.199 370.113,353.828 C384.172,362.914 384,363.086 384,373.543 L384,384 L-2.059,384 L-1.887,379.887"/>
</svg>

