<svg xmlns="http://www.w3.org/2000/svg" width="384" height="384" viewBox="0 0 384 384">
  <defs/>
  <path fill="rgb(93.333333%, 72.941176%, 0%)" opacity="0.992" d="M127.715,351.43 C127.371,319.371 128.059,318 123.602,308.402 C119.316,299.316 118.629,296.918 119.488,285.09 C120.688,277.719 120.176,266.062 119.316,259.031 C117.602,247.887 118.117,236.23 115.887,225.262 C114.172,217.203 113.656,204.348 106.457,199.031 C102.516,196.117 95.828,197.145 90.855,196.633 C82.113,195.777 63.77,194.746 61.883,183.434 C59.824,170.578 58.797,162.863 61.711,159.777 C67.195,156.176 66.684,154.633 60.855,152.578 C58.113,151.551 54,148.637 51.426,146.578 C47.312,141.605 47.656,139.379 54.34,131.492 C56.57,128.578 55.539,127.207 48.512,123.094 C43.367,117.094 43.539,115.723 43.711,109.379 C45.426,97.207 59.824,82.465 86.91,64.121 C95.48,57.777 105.254,52.465 115.023,48.18 C125.652,43.551 134.566,36.18 145.023,31.035 C150.508,28.293 156.336,25.891 162.508,25.891 C171.938,25.891 180.336,31.375 189.078,35.148 C194.906,37.719 201.594,38.75 207.422,41.492 C212.223,43.723 216.508,47.148 221.652,49.035 C237.766,55.551 250.965,64.121 273.082,82.293 C290.055,96.18 291.598,98.922 292.281,108.008 C292.109,113.32 291.082,115.895 285.938,121.035 C282.508,124.293 278.566,126.691 277.879,126.863 C274.965,126.52 275.992,130.293 280.793,135.094 C286.277,140.922 284.562,144.352 283.023,150.523 C280.965,158.922 279.766,167.152 278.395,175.379 C277.023,183.609 270.852,184.293 263.309,184.98 C246.68,186.352 246.508,186.18 249.938,192.008 C251.824,194.75 252.68,199.379 252.508,202.121 C251.652,207.094 251.309,207.777 240.68,208.809 C231.766,207.781 230.395,228.867 241.023,227.152 C244.281,227.668 249.594,229.039 254.395,230.754 C263.652,235.555 279.766,250.297 283.195,257.84 C284.223,261.27 287.824,266.754 291.766,270.184 C298.793,277.383 308.051,295.727 307.879,301.898 C307.023,304.297 309.938,309.098 314.223,312.012 C321.422,321.098 325.023,333.781 324.508,348.184 C324.164,354.355 325.023,359.328 326.051,358.984 C326.395,358.469 329.48,355.383 332.051,350.926 C338.906,343.383 340.449,343.383 344.566,347.84 C346.281,349.211 350.91,351.609 355.539,352.641 L362.91,354.184 L355.711,363.441 C346.969,373.043 337.023,378.012 328.109,378.355 C322.965,378.355 321.254,378.871 320.223,381.613 C319.367,385.215 318.164,385.215 271.535,385.043 C235.02,385.387 198.68,385.559 161.992,385.215 L128.906,385.215 L127.715,351.43"/>
  <path fill="rgb(97.647059%, 76.078431%, 0%)" opacity="0.978" d="M370.801,320.059 C369.602,318.859 364.801,317.488 360.172,317.66 L351.773,317.488 L351.602,301.547 C351.43,285.262 349.543,277.031 338.914,246.52 C332.398,227.664 330.684,212.578 333.602,199.035 C336.172,187.891 345.086,169.723 348.172,169.723 C349.027,170.066 351.602,170.238 353.316,170.41 C355.031,170.41 357.602,173.324 358.801,176.582 C360.344,179.496 362.742,183.438 364.629,184.641 C367.543,187.039 367.543,187.383 362.914,194.41 C355.371,205.211 356.227,214.469 367.199,243.098 C378.855,273.27 382.629,292.469 380.227,309.098 C378.688,321.77 375.77,325.027 370.801,320.059"/>
  <path fill="rgb(34.117647%, 12.54902%, 12.54902%)" opacity="0.991" d="M55.027,76.285 C53.656,61.027 53.828,10.973 55.371,3.77 C56.227,-0.688 57.43,-1.887 61.371,-1.715 C66.684,-1.543 128.227,38.57 128.398,42 C128.398,43.199 125.484,45.258 121.711,46.457 C107.145,50.914 86.57,63.941 61.715,84 L56.23,88.285 L55.027,76.285"/>
  <path fill="rgb(34.117647%, 13.333333%, 12.54902%)" opacity="0.991" d="M271.199,81.086 C257.828,69.258 233.656,53.656 220.285,48.688 C213.258,45.773 207.598,43.031 207.598,42.344 C207.426,40.113 222.855,28.973 248.91,12.688 C276,-4.801 280.285,-5.828 282.344,7.199 C284.23,16.969 283.031,81.77 280.801,85.543 C279.43,87.602 277.887,86.914 271.199,81.086"/>
  <path fill="rgb(3.137255%, 2.352941%, 5.098039%)" opacity="0.971" d="M160.457,132.172 C156.855,127.715 153.43,123.602 152.227,123.086 C147.941,120.172 171.598,118.113 181.371,120.688 C185.141,121.887 185.656,122.402 183.258,123.945 C181.887,124.973 178.113,128.918 175.199,133.031 C172.629,136.801 169.371,140.059 168.344,139.887 C167.828,140.059 164.059,136.629 160.457,132.172"/>
  <path fill="rgb(0.784314%, 0.784314%, 1.960784%)" opacity="0.993" d="M110.23,115.715 C102,113.656 97.031,110.402 92.059,103.715 C85.371,94.801 85.371,90.859 92.059,89.316 C105.602,86.23 148.117,88.629 147.773,92.574 C147.773,94.633 143.488,101.832 139.715,105.945 C132.516,114.172 120.516,117.941 110.23,115.715"/>
  <path fill="rgb(0.784314%, 0.784314%, 1.960784%)" opacity="0.993" d="M205.199,113.484 C198.512,109.883 188.742,98.742 188.742,94.285 C188.742,88.629 242.914,84.684 248.227,90.172 C252.855,94.973 241.883,109.543 229.539,114.688 C220.457,118.285 214.285,117.941 205.199,113.484"/>
  <path fill="rgb(2.745098%, 2.352941%, 2.745098%)" opacity="0.996" d="M362.914,183.602 C359.828,180.516 357.77,177.086 357.77,176.23 C357.598,175.203 355.371,172.973 352.969,170.918 L348.168,167.488 L357.254,158.574 C366.855,149.66 377.141,144.859 382.109,146.402 C384.168,147.43 384.68,151.031 384.68,165.09 L384.508,182.746 L368.047,189.605 L362.914,183.602"/>
  <path fill="rgb(49.803922%, 27.058824%, 3.529412%)" d="M352.629,351.602 C349.027,350.574 344.398,348.172 342.688,346.973 C340.973,345.773 339.258,344.574 338.746,344.402 C338.574,344.23 340.805,338.746 343.719,332.402 C346.805,326.059 349.547,319.375 349.891,317.66 C352.121,310.633 376.633,315.262 376.633,322.289 C376.805,327.602 365.148,351.602 362.062,352.805 C360.344,353.484 356.23,352.973 352.629,351.602"/>
</svg>

