<svg xmlns="http://www.w3.org/2000/svg" width="384" height="384" viewBox="0 0 384 384">
  <defs/>
  <path fill="rgb(0.392157%, 0%, 0.392157%)" d="M313.543,150.172 C311.828,151.715 289.199,146.914 285.43,146.742 C270,146.227 254.574,141.258 239.145,139.715 C222,138 203.66,140.23 186.172,139.543 C164.914,138.688 143.656,136.113 125.316,123.941 C114.172,116.57 107.484,105.77 101.656,93.77 C90.855,71.141 74.055,24.512 110.055,15.254 C114.855,14.055 119.824,13.883 124.797,13.883 C131.652,13.711 138.512,14.398 144.855,11.652 C150.512,9.082 155.141,5.824 161.484,3.938 C175.883,-0.348 191.141,-1.207 206.055,0.508 C242.055,5.82 269.656,19.879 292.969,51.766 C297.77,58.281 298.625,57.25 306.168,55.367 C310.625,54.512 323.996,53.137 336.512,52.453 C358.625,52.625 358.453,52.109 357.941,55.711 C358.113,65.312 343.711,95.824 331.543,110.566 C328.285,114.168 323.312,124.281 320.57,132.68 C317.312,141.77 314.742,149.145 313.543,150.172 Z"/>
  <path fill="rgb(59.215686%, 47.45098%, 52.941176%)" opacity="0.904" d="M60.516,103.543 C57.086,96 52.801,76.113 53.145,69.602 C52.801,61.031 55.203,59.66 63.43,63.945 C73.543,68.918 101.316,89.66 102.516,92.746 C106.973,105.262 86.059,108.516 77.66,109.203 L63.09,110.574 L60.516,103.543"/>
  <path fill="rgb(5.490196%, 0.784314%, 4.705882%)" opacity="0.964" d="M147.941,243.941 L137.141,243.426 L142.285,237.254 C147.941,229.883 147.086,223.711 139.887,213.426 C133.543,204.34 134.402,201.77 143.145,202.969 C146.402,204.34 153.773,205.199 159.086,205.711 C169.371,206.227 172.801,210.34 167.484,214.625 C154.797,220.281 151.883,226.625 157.371,237.77 C158.398,242.055 158.914,244.797 158.398,246.168 C157.715,245.484 153.43,244.629 147.941,243.941"/>
  <path fill="rgb(0%, 3.529412%, 0%)" opacity="0.994" d="M235.543,179.484 C225.773,190.285 214.285,196.457 199.887,193.371 C194.574,192.172 174.172,195.086 174.344,186.172 C174.516,179.484 182.914,169.027 187.715,164.742 C197.828,155.656 197.656,155.312 238.113,170.398 L242.57,171.941 C242.57,172.113 235.543,179.484 235.543,179.484 Z"/>
  <path fill="rgb(0%, 3.529412%, 0.392157%)" opacity="0.991" d="M107.828,186.855 C99.086,183.426 92.059,171.426 90.516,156.684 L89.66,146.742 L103.547,147.258 C125.316,149.145 133.375,155.656 136.805,174 C136.977,179.828 137.492,185.312 137.32,186.344 C136.113,187.887 112.457,188.57 107.828,186.855"/>
  <path fill="rgb(2.352941%, 2.745098%, 2.745098%)" d="M10.113,247.371 C11.656,242.742 18.684,239.828 35.828,235.027 C48.516,230.914 58.801,227.828 58.801,228.34 C58.629,232.797 51.602,241.539 47.145,242.91 C39.258,244.109 17.66,249.082 11.66,251.824 C6.855,252.516 6.855,252.172 10.113,247.371"/>
  <path fill="rgb(59.607843%, 24.313725%, 0%)" opacity="0.991" d="M192.855,378.688 C196.625,371.145 194.398,361.715 187.711,360.516 C164.227,354 140.227,345.258 131.652,341.316 C126.68,338.402 116.566,330.688 109.539,324.344 C102.684,317.828 94.625,311.488 91.367,310.629 C86.055,308.398 86.055,307.371 87.254,302.57 C88.109,300 89.312,294.855 89.312,291.086 C90.34,271.027 94.625,258.855 102.855,253.715 C106.285,250.801 108.168,251.145 116.398,256.801 C121.883,260.23 129.254,265.199 132.512,268.801 C142.625,279.602 169.199,280.457 182.398,282.688 C196.629,285.086 206.57,285.773 220.969,283.715 C230.055,282.516 239.312,281.316 248.57,280.457 C252.684,280.113 258.512,280.801 262.285,279.258 C265.371,278.059 267.43,275.316 270.516,273.773 C275.828,271.031 281.145,268.461 286.629,265.715 C291.773,263.145 300.859,258.688 306.688,261.43 C312.688,264.344 315.258,276.688 317.316,282.516 C321.086,292.973 322.289,302.059 319.547,312.859 C315.777,327.945 300.176,332.746 289.719,342.004 C284.746,346.289 279.949,352.633 280.633,359.66 C281.32,368.746 292.117,371.66 294.52,380.23 L296.234,384.172 L190.293,384.344 L192.855,378.688"/>
  <path fill="rgb(92.941176%, 70.980392%, 25.490196%)" opacity="0.994" d="M177.43,102.688 L167.145,97.543 L167.488,84.855 C167.488,78.168 168.004,72.512 161.832,68.914 C155.488,65.312 142.289,62.059 135.262,62.57 C131.66,62.914 129.262,64.969 125.832,65.312 C117.434,66.512 113.832,61.199 111.262,54 C109.375,48.855 113.832,39.77 118.977,38.398 C125.664,36.684 131.832,37.199 136.289,43.543 C138.176,46.285 137.488,50.914 139.031,52.973 C143.316,58.801 156.688,57.086 163.203,58.973 C171.773,61.031 179.145,62.402 179.488,62.059 C179.832,61.543 180.688,54.688 181.031,46.289 C181.031,30.688 183.43,28.117 192.176,23.488 C207.605,15.945 238.117,28.289 241.891,44.059 C243.262,49.887 241.891,53.316 231.434,65.145 C226.121,69.43 219.434,81.258 215.832,90.688 L208.289,106.629 L198.004,107.145 C190.457,107.312 184.629,105.941 177.43,102.688"/>
  <path fill="rgb(87.45098%, 65.882353%, 19.215686%)" opacity="0.995" d="M268.457,116.23 C265.887,114.516 263.312,111.43 262.629,108.688 C262.457,106.289 258.688,102.172 254.23,99.945 C250.117,97.547 247.203,94.461 247.375,93.43 C247.375,91.199 248.23,91.371 255.605,94.457 C261.777,97.715 261.777,97.715 266.578,93.258 C274.465,85.887 280.465,85.199 287.148,90.859 C289.547,94.117 291.777,98.402 291.777,100.461 C292.293,106.289 287.664,113.832 282.52,116.23 C276.516,119.145 274.973,119.145 268.457,116.23"/>
  <path fill="rgb(90.980392%, 0%, 3.529412%)" opacity="0.997" d="M312.688,204.688 C307.887,203.832 303.086,201.258 301.375,199.887 C299.66,198 295.375,196.117 292.117,196.285 C286.805,195.086 275.66,190.457 269.66,185.828 C258.859,181.027 220.805,163.027 198.859,156.684 C194.402,155.312 189.773,153.254 188.402,151.371 C187.031,150.684 181.375,149.828 177.09,148.801 C169.719,146.742 167.66,145.543 168.691,141.945 C167.492,138.516 168.176,137.66 180.691,137.316 C208.461,133.887 246.691,135.43 282.348,144.172 C293.492,146.23 309.262,144.344 318.52,152.23 C328.461,160.801 326.406,173.316 326.062,185.316 C326.914,210.172 328.629,208.457 312.688,204.688"/>
  <path fill="rgb(23.137255%, 80.784314%, 43.137255%)" opacity="0.993" d="M104.742,177.086 C105.43,174 106.629,168.172 107.141,164.398 C107.996,158.57 109.199,157.027 111.941,156.855 C114.855,156.855 115.543,157.883 114.684,160.625 C113.996,162.684 112.453,167.996 111.082,172.625 C108.516,182.059 102.344,186.344 104.742,177.086"/>
  <path fill="rgb(2.352941%, 2.745098%, 2.745098%)" d="M361.199,226.973 C355.887,224.914 343.027,223.031 332.742,222.172 C315.258,221.484 313.887,220.973 314.57,217.027 C315.086,213.426 317.141,212.57 337.199,210 C363.77,206.914 370.801,207.77 368.742,214.629 C367.543,217.887 368.742,219.941 371.828,221.484 C376.113,224.055 376.973,230.742 372.855,230.742 C372.172,230.914 366.688,229.199 361.199,226.973"/>
  <path fill="rgb(2.352941%, 3.137255%, 3.529412%)" opacity="0.998" d="M18.855,284.398 C18.684,284.055 18.684,283.543 18.512,283.199 C17.141,276.512 31.883,268.969 36.34,266.227 C42.684,260.914 44.57,259.883 45.254,262.797 C48.512,267.941 49.023,268.453 37.883,276.684 C35.145,278.742 22.113,293.484 18.855,284.398 Z"/>
  <path fill="rgb(4.705882%, 5.098039%, 5.490196%)" opacity="0.983" d="M48.344,263.484 C47.316,261.77 47.656,259.371 48.344,257.656 C52.457,254.227 77.828,241.887 87.43,238.629 C96,235.887 96.859,236.23 98.059,238.973 C98.402,240.516 98.746,241.887 98.914,242.402 C98.57,242.746 91.887,245.316 84,249.09 C76.113,252.52 65.484,258.004 60,261.434 C54.516,264.863 49.715,267.434 49.543,267.434 C49.027,266.914 48.344,265.199 48.344,263.484"/>
  <path fill="rgb(4.705882%, 5.490196%, 5.882353%)" opacity="0.976" d="M63.086,230.059 C58.801,223.715 61.371,222 74.742,222.172 C82.973,221.484 85.199,222.516 85.887,225.941 C87.43,231.254 86.402,231.77 75.258,233.656 C67.715,235.027 66,234.688 63.086,230.059"/>
  <path fill="rgb(0.392157%, 0%, 0.392157%)" d="M26.23,382.973 C26.23,376.285 36.344,350.059 43.031,341.316 C49.203,331.203 64.117,319.203 78.004,312.688 C84.859,307.887 86.402,307.887 92.062,310.289 C95.492,311.488 103.547,317.488 109.547,324.176 C115.547,330.176 123.945,337.203 128.234,339.777 C137.148,344.75 166.121,354.863 181.035,358.121 C186.18,359.32 191.836,361.207 192.52,362.922 C195.434,366.523 195.434,374.066 192.863,379.723 L190.977,384.352 L108.52,384.523 C36.516,384.855 25.715,384.855 26.23,382.973"/>
  <path fill="rgb(69.411765%, 71.764706%, 72.54902%)" opacity="0.855" d="M292.801,222.855 C293.828,221.141 294.859,219.426 296.059,217.711 C299.488,212.227 300.859,204.855 304.629,199.711 C309.773,192.684 317.656,194.738 320.57,203.141 C321.941,207.082 321.77,211.539 321.426,215.656 C319.195,236.055 307.195,269.828 285.082,275.828 C276.852,278.059 265.195,280.629 260.738,271.371 C256.969,263.656 262.109,256.973 268.109,252.344 C278.57,244.457 285.941,234 292.801,222.855 Z"/>
  <path fill="rgb(0.784314%, 0%, 0.392157%)" d="M294.688,381.602 C294.859,380.059 289.543,373.031 282.859,365.832 C275.832,358.805 270.004,352.461 270.004,351.602 C270.004,350.746 277.375,346.289 286.805,342.344 C295.891,338.059 306.52,331.031 310.805,326.742 C319.719,316.801 323.832,318.172 336.176,330.855 C346.289,341.312 352.461,353.312 357.434,371.828 L361.035,384.344 L327.777,384.516 C298.973,384.516 294.688,384.344 294.688,381.602"/>
  <path fill="rgb(1.960784%, 1.960784%, 3.529412%)" opacity="0.969" d="M185.828,82.801 C184.457,79.715 181.715,76.113 179.828,74.57 C176.398,72.172 176.742,71.828 183.598,68.055 C187.883,66.512 192.512,62.91 193.883,60.34 C196.281,57.082 197.484,56.91 201.77,58.797 C206.914,60.34 207.426,61.195 207.426,72.34 L208.625,84.684 L201.082,84.684 C196.969,85.199 192.512,86.227 190.797,87.254 C188.57,88.285 187.543,87.086 185.828,82.801"/>
  <path fill="rgb(96.470588%, 95.294118%, 86.27451%)" opacity="0.995" d="M238.285,94.801 C235.371,92.57 229.027,89.828 224.398,88.629 C216.684,87.086 216.512,86.23 218.227,82.285 L219.426,78 L227.996,81.43 C232.797,83.66 240.34,86.059 244.625,86.059 C250.625,87.602 251.824,88.973 250.797,92.574 C250.113,97.887 246,98.742 238.285,94.801"/>
  <path fill="rgb(12.54902%, 71.764706%, 30.588235%)" opacity="0.993" d="M216.172,171.941 C223.371,177.598 201.086,181.883 197.484,182.398 C195.254,182.57 192.172,182.055 192,179.828 C191.828,178.285 193.371,177.086 194.914,176.227 C199.199,173.828 208.973,168.168 214.113,170.57 C214.801,171.086 215.656,171.602 216.172,171.941 Z"/>
</svg>

