<svg xmlns="http://www.w3.org/2000/svg" width="384" height="384" viewBox="0 0 384 384">
  <defs/>
  <path fill="rgb(95.294118%, 92.156863%, 0%)" opacity="0.974" d="M332.57,33.43 C327.258,33.602 321.086,34.973 316.969,34.973 C310.453,34.973 303.941,34.629 297.77,32.402 C291.598,30.172 283.711,29.66 277.371,30.516 C266.914,31.887 255.77,27.945 242.398,25.887 C234.168,23.656 225.77,20.574 217.199,19.543 C207.598,18.344 198.344,20.914 188.914,18 C181.027,15.602 172.973,15.941 164.914,16.457 C153.258,17.312 146.059,20.227 145.199,32.742 C144.344,36.172 143.828,41.656 141.598,45.258 C135.082,59.145 124.625,70.457 115.883,82.973 C113.824,85.887 111.426,88.973 109.711,92.23 C107.996,95.66 107.824,95.832 104.91,98.746 C99.938,103.547 98.055,110.059 95.48,116.059 C84,143.828 70.973,171.086 55.199,196.801 C44.742,213.773 34.113,230.742 22.969,247.371 C16.625,256.973 10.969,266.398 6.34,277.027 C2.91,284.914 -1.547,293.312 -1.891,302.227 C-2.578,317.484 21.938,309.254 29.824,309.082 C55.367,308.738 75.082,330.684 100.453,331.883 C115.539,332.57 122.566,324.34 130.625,313.367 C139.367,301.711 150.855,292.797 162.512,284.055 C171.77,277.199 180.34,269.656 188.57,261.426 C200.57,249.426 209.141,234.855 220.629,222.684 C233.145,209.312 243.941,193.883 254.914,179.312 C278.227,148.625 300.684,117.254 320.742,84.34 C325.371,76.453 328.973,68.227 332.914,60.168 C335.656,54.34 341.656,50.566 343.371,44.398 C344.398,40.629 343.199,36 339.77,34.457 C337.887,33.602 335.312,33.258 332.57,33.43 Z"/>
  <path fill="rgb(96.470588%, 60.784314%, 7.843137%)" opacity="0.965" d="M124.801,328.457 C124.801,328.457 123.086,322.973 123.086,322.973 C119.828,324.344 116.57,325.371 113.145,326.402 C103.543,329.66 85.031,328.461 77.316,321.258 C73.203,318.344 68.23,317.145 63.602,317.656 C58.629,317.656 54.344,315.77 48.859,312 C45.945,310.113 43.031,307.887 39.602,307.371 C35.66,306.684 31.887,307.543 27.945,307.027 C21.602,306 15.258,304.457 8.918,302.914 C5.66,302.059 2.402,300.855 -0.852,300.344 C-4.453,299.656 -4.453,299.316 -4.793,302.914 C-5.48,309.602 -3.594,317.145 -2.906,323.828 C-2.391,330.172 -3.25,341.484 0.695,346.973 C4.465,352.285 12.352,353.828 18.352,355.031 C21.438,355.547 24.523,356.23 27.609,356.059 C29.152,356.059 33.781,354.688 35.152,355.371 C36.867,356.227 38.922,357.43 40.809,358.973 C46.637,363.945 49.551,364.801 59.324,364.801 C66.523,364.801 70.297,364.629 76.637,369.086 C85.723,375.258 92.578,378.344 103.723,378.172 C117.953,378 117.094,379.027 118.465,361.715 C119.152,357.086 121.207,350.059 123.094,346.285 C127.199,338.23 127.543,335.828 124.801,328.457 Z"/>
  <path fill="rgb(79.215686%, 30.588235%, 5.882353%)" opacity="0.968" d="M193.371,53.312 C189.77,51.254 186.344,41.828 189.258,41.828 C191.488,41.656 199.027,49.887 199.199,52.801 C199.371,54.855 196.629,55.371 193.371,53.312"/>
  <path fill="rgb(47.843137%, 14.509804%, 5.490196%)" opacity="0.994" d="M228.688,92.23 C222.516,85.715 220.629,77.488 224.059,69.43 C227.488,61.031 233.145,57.773 246.688,57.258 C258.344,56.742 261.773,59.316 263.832,69.086 C266.062,76.801 262.289,82.285 250.633,89.484 C240.172,96.344 233.484,96.855 228.688,92.23"/>
  <path fill="rgb(48.235294%, 14.117647%, 5.490196%)" opacity="0.993" d="M154.629,121.715 C148.629,118.285 146.57,106.973 150.172,96.516 C152.57,89.828 156.688,87.602 165.602,87.258 C174.516,87.258 180.344,91.715 182.402,100.113 C185.312,112.285 166.285,129.43 154.629,121.715"/>
  <path fill="rgb(78.823529%, 39.607843%, 5.490196%)" opacity="0.99" d="M117.43,365.828 C118.285,358.801 121.199,352.113 122.742,345.258 C124.285,338.57 122.227,331.715 123.598,325.199 C124.453,321.258 128.742,319.027 129.254,314.742 C132.855,307.027 139.539,301.027 145.711,295.199 C150.168,291.086 155.312,287.656 159.254,283.027 C164.398,276.855 167.312,269.141 172.109,262.629 C176.91,255.941 183.082,250.457 187.711,243.773 C192.168,237.43 193.883,229.375 198.684,223.203 C203.656,216.859 211.371,214.461 216.684,208.973 C221.312,204.172 224.398,197.828 228.34,192.516 C233.484,185.66 238.453,178.629 243.254,171.43 C246.684,166.285 249.082,160.285 253.195,155.488 C257.137,150.859 264.34,149.316 266.738,143.66 C267.938,140.746 267.594,137.316 268.281,134.23 C269.824,125.832 276.512,122.746 281.48,116.918 C284.738,112.977 286.281,108.004 289.539,104.23 C294.34,98.574 301.195,94.117 305.824,87.945 C310.453,81.773 313.195,74.23 318.512,68.402 C323.141,63.43 327.082,57.945 330.512,52.289 C333.426,47.316 335.312,39.434 342.34,39.434 C353.996,39.605 361.027,55.891 361.367,65.492 C360.168,84.691 350.223,102.348 337.711,116.406 C329.141,126.176 320.227,135.262 313.023,146.062 C307.367,154.461 307.023,166.805 299.652,173.832 C297.082,176.402 293.48,178.117 291.422,181.031 C288.68,184.801 288.852,189.945 286.793,194.23 C284.734,198.859 280.105,202.117 274.965,202.629 C269.48,203.145 267.078,205.715 266.223,211.371 C265.707,214.801 265.879,218.57 264.336,221.656 C260.906,229.027 251.137,230.57 248.395,238.285 C246.508,243.258 248.395,248.914 246.336,253.715 C244.277,258.516 239.648,260.914 236.223,264.516 C232.453,268.629 230.91,274.117 227.48,278.574 C220.965,287.316 209.652,291.602 204.168,300.516 C202.281,303.43 201.254,306.859 198.855,309.43 C194.914,313.715 188.742,314.574 183.77,317.316 C182.57,318.004 181.371,318.688 180.512,319.887 C177.254,325.031 177.77,330.688 175.711,336.344 C173.824,341.488 168.684,343.715 164.91,346.973 C159.938,351.43 161.824,360 155.824,363.773 C151.023,366.859 145.367,363.945 140.055,364.461 C134.398,364.977 129.082,368.062 125.996,373.031 C123.426,374.746 120.512,376.289 118.453,376.801 C116.059,377.484 116.57,375.43 117.43,365.828"/>
  <path fill="rgb(46.27451%, 12.941176%, 5.882353%)" opacity="0.989" d="M189.258,166.801 C185.316,162.172 181.543,153.43 183.086,147.258 C184.801,140.402 192.688,133.027 197.656,128.23 C199.027,126.859 200.398,125.66 202.113,124.801 C215.656,118.113 224.742,133.031 224.57,144.172 C224.398,156.172 220.285,161.828 207.258,166.285 C197.312,169.715 192,169.887 189.258,166.801"/>
  <path fill="rgb(46.666667%, 13.333333%, 5.882353%)" opacity="0.988" d="M118.457,182.57 C111.602,186 101.312,192.684 98.227,180.855 C95.312,169.715 97.715,152.059 106.973,144.344 C113.488,138.859 115.887,137.656 122.574,138 C133.547,138 136.461,142.113 136.461,156.516 C136.629,170.23 133.027,175.199 118.457,182.57 Z"/>
  <path fill="rgb(63.137255%, 44.313725%, 34.509804%)" opacity="0.991" d="M151.199,223.027 C139.199,211.715 150.855,194.914 171.086,194.398 C187.715,194.227 193.543,204.512 182.398,215.484 C170.059,227.484 158.742,230.059 151.199,223.027"/>
  <path fill="rgb(50.196078%, 17.254902%, 5.490196%)" opacity="0.994" d="M97.027,267.086 C106.285,261.086 114.855,252.344 112.457,240.516 C110.059,228 104.059,227.316 93.258,225.086 C84.172,223.199 73.371,225.602 68.742,234.516 C64.629,242.574 66.684,252.688 74.742,261.086 C79.887,266.57 90.516,271.199 97.027,267.086 Z"/>
  <path fill="rgb(79.215686%, 36.862745%, 9.411765%)" opacity="0.99" d="M68.57,359.828 C66.684,357.77 61.715,350.227 57.426,342.344 C53.312,334.629 48.168,326.402 46.453,324.172 C44.055,321.773 43.195,319.887 44.223,320.059 C47.48,320.059 49.535,322.973 57.25,337.031 C61.707,344.746 67.879,353.832 70.793,357.262 C76.973,363.258 74.398,365.656 68.57,359.828"/>
</svg>

