<svg xmlns="http://www.w3.org/2000/svg" width="384" height="384" viewBox="0 0 384 384">
  <defs/>
  <path fill="rgb(0%, 71.372549%, 0%)" opacity="0.99" d="M122.758,359.477 C54.348,356.527 13.078,345.398 14.715,331.129 C14.789,327.348 16.309,325.488 32.18,319.812 C51.469,312.977 67.465,302.199 80.117,289.234 C87.34,281.039 96.578,267.938 96.809,265.32 C96.828,264.969 91.039,264.738 84.035,264.641 C68.883,262.996 54.887,257.594 55.715,251.957 C54.984,249.797 61.977,245.047 70.652,241.465 C96.996,226.449 119.277,205.078 129,186.137 C131.172,181.445 133.129,177.262 133.055,177.184 C132.844,177.121 128.086,175.699 122.152,174.879 C110.125,171.043 102.98,166.145 103.047,160.625 C103.18,156.824 105.848,155.141 125.84,140.973 C142.586,128.305 163.441,103.164 179.312,76.523 C184.062,68.598 187.961,64.633 192.992,61.836 C200.449,57.66 200.465,57.672 206.477,60.949 C215.09,65.277 217.023,67.02 227.52,85.969 C240.793,107.535 257.148,126.273 277.359,143.367 C287.098,150.562 294.383,157.703 293.473,159.562 C292.656,164.281 280.273,168.945 269.488,169.883 C263.223,170.422 259.48,170.391 258.555,171.039 C259.309,172.84 263.469,180.473 268.469,189.012 C279.02,207.895 299.645,229.051 318.965,241.457 C334.039,250.195 335.68,255.012 327.344,259.043 C321.203,261.918 305.316,264.551 297.445,264.375 C289.941,263.996 290.316,265.77 297.309,276.445 C308.289,292.738 327.762,307.578 356.395,318.75 C379.117,326.512 379.957,332.996 364.414,342.668 C354.883,348.137 334.078,352.625 307.059,356.492 C283.184,361.121 181.578,360.176 122.758,359.477"/>
  <path fill="rgb(97.647059%, 81.960784%, 0%)" opacity="0.985" d="M213,65.961 L201.375,58.367 L190.434,64.215 C174.336,72.957 174.16,72.914 176.027,54.965 L177.453,39.863 L169.824,31.961 L162.562,24.195 L168.379,21.805 C171.723,20.98 177.824,19.27 181.988,18.23 C187.758,17.074 190.969,14.465 196.062,7.57 C199.906,2.57 203.609,-1.344 204.875,-1.371 C205.613,-1.102 209.434,2.922 212.852,7.977 C218.352,16.27 220.375,18.047 231.172,21.504 C237.805,23.918 243.191,26.598 243.309,27.164 C243.309,28.008 239.863,31.062 236.195,34.504 L228.988,40.02 L228.496,56.18 C228.441,65.246 227.602,72.648 226.285,72.906 C225.309,73.398 219.191,70.188 213,65.961"/>
  <path fill="rgb(92.156863%, 72.941176%, 3.529412%)" opacity="0.992" d="M166.598,121.559 C165.777,120.871 165.246,117.828 165.141,114.895 C165.348,111.066 166.527,109.938 170.453,109.93 C173.227,110.09 176.211,111.66 176.918,113.629 C179.246,119.664 171.035,125.75 166.598,121.559"/>
  <path fill="rgb(89.803922%, 70.980392%, 3.921569%)" opacity="0.967" d="M189.004,120.035 C185.965,114.625 188.207,108.219 192.977,108.297 C196.004,108.578 197.863,110.555 198.48,114.391 C199.668,121.633 192.195,125.93 189.004,120.035"/>
  <path fill="rgb(79.215686%, 61.568627%, 3.137255%)" opacity="0.985" d="M250.801,135.945 C248.086,133.02 249.316,130.172 253.18,130.617 C255.039,130.68 256.734,132.641 256.668,134.527 C256.102,138.438 253.254,139.164 250.801,135.945"/>
  <path fill="rgb(43.137255%, 2.745098%, 95.686275%)" opacity="0.992" d="M167.078,177.562 C151.883,166.199 160.23,142.074 179.316,142.656 C193.504,142.789 202.875,155.359 198.434,167.797 C194.105,179.66 176.828,185.031 167.078,177.562"/>
  <path fill="rgb(87.843137%, 1.568627%, 94.901961%)" opacity="0.989" d="M228.242,212.305 C221.543,204.309 221.23,195.328 227.41,187.227 C232,182.855 234.035,181.688 240.402,181.758 C249.934,181.609 254.227,184.312 258.016,191.207 C261.926,199.707 261.199,206.195 254.988,212.203 C246.938,219.633 235.805,219.598 228.242,212.305"/>
  <path fill="rgb(94.901961%, 0%, 1.568627%)" opacity="0.997" d="M128.684,259.25 C118.211,247.449 124.258,229.629 139.523,227.23 C161.359,223.668 174.66,246.742 158.562,260.809 C153.82,264.723 150.891,265.594 143.422,265.539 C135.188,265.199 133.262,264.324 128.684,259.25"/>
  <path fill="rgb(85.490196%, 69.803922%, 4.705882%)" opacity="0.98" d="M285.859,241.406 C285.273,239.988 285.918,237.875 287.426,236.91 C291.184,233.93 295.289,237.266 294.461,242.164 C293.953,246.148 287.656,245.77 285.859,241.406"/>
  <path fill="rgb(94.901961%, 0%, 1.568627%)" opacity="0.996" d="M210.48,273.422 C204.312,269.82 200.578,263.676 200.523,256.379 C200.691,247.188 203.199,242.832 210.031,239.375 C218.906,234.945 227.84,235.988 234.617,242.121 C239.715,246.965 240.703,248.98 240.695,256.422 C240.418,263.965 239.543,266.027 234.207,270.496 C227.621,276.215 217.938,277.406 210.48,273.422"/>
  <path fill="rgb(43.137255%, 2.745098%, 96.078431%)" opacity="0.993" d="M252.719,330.195 C244.965,322.023 245.305,311.445 253.473,302.809 C259.066,298.301 261.719,297.215 267.949,297.371 C278.395,297.516 287.711,306.609 287.438,316.539 C287.406,322.016 286.125,324.809 281.418,329.57 C275.875,334.602 273.695,335.535 266.371,335.734 C259.445,335.336 256.777,334.363 252.719,330.195"/>
  <path fill="rgb(81.176471%, 64.313725%, 4.705882%)" opacity="0.982" d="M219.812,323.211 C219.707,320.883 220.914,319.43 222.734,319.875 C227.789,321.168 228.973,327.004 224.34,327.422 C221.957,327.578 219.977,325.629 219.812,323.211"/>
  <path fill="rgb(84.313725%, 49.803922%, 2.745098%)" opacity="0.993" d="M75.805,334.016 C73.828,329.906 75.527,325.02 78.848,324.816 C82.93,324.477 87.102,329.57 85.988,333.223 C84.852,337.195 77.41,337.84 75.805,334.016"/>
  <path fill="rgb(17.647059%, 64.705882%, 17.647059%)" opacity="0.978" d="M340.652,339.152 C335.184,332.773 343.621,322.781 349.559,328.812 C352.668,331.98 352.793,332.141 349.52,336.766 C345.828,342.988 343.762,343.316 340.652,339.152"/>
  <path fill="rgb(81.176471%, 41.568627%, 5.098039%)" opacity="0.987" d="M303.656,333.375 C301.621,330.449 303.852,326.504 307.938,326.305 C309.852,326.164 311.277,328.004 311.508,330.594 C312.102,335.312 306.535,337.434 303.656,333.375"/>
  <path fill="rgb(88.235294%, 1.176471%, 95.686275%)" opacity="0.994" d="M153.145,330.074 C147.418,324.328 146.012,314.82 149.586,307.66 C152.062,303.227 160.77,298.605 167.156,298.547 C173.398,298.602 182.281,303.227 184.5,307.66 C188.348,314.875 186.898,324.395 181.309,330.156 C176.676,334.504 174.141,335.449 167.059,335.367 C160.113,335.59 157.602,334.574 153.145,330.074"/>
  <path fill="rgb(56.470588%, 65.490196%, 7.058824%)" d="M124.695,342.398 C123.113,339.895 126.512,336.652 128.508,338.801 C130.508,340.586 129.406,344.09 127.297,343.977 C126.43,344.047 125.227,343.25 124.695,342.398"/>
  <path fill="rgb(0.784314%, 0.392157%, 1.176471%)" opacity="0.996" d="M162.574,371.992 L162.527,359.867 L223.266,359.715 L223.238,383.965 L162.5,384.211 L162.574,371.992"/>
</svg>

