<svg xmlns="http://www.w3.org/2000/svg" width="384" height="384" viewBox="0 0 384 384">
  <defs/>
  <path fill="rgb(2.745098%, 2.745098%, 3.137255%)" opacity="0.994" d="M268.801,91.715 C259.887,86.914 260.059,80.57 270.172,68.059 C274.801,62.746 280.457,54.344 282.859,49.543 C289.715,38.57 295.031,36.344 302.574,41.145 C312.516,46.629 313.719,49.887 307.203,57.602 C303.262,61.031 295.719,70.973 289.719,79.887 C284.406,89.488 278.574,96.688 277.031,95.488 C275.828,95.312 271.887,93.77 268.801,91.715"/>
  <path fill="rgb(1.176471%, 1.176471%, 1.568627%)" opacity="0.992" d="M309.941,144.688 C306.172,139.375 306,131.832 309.254,127.543 C310.797,126 315.426,123.258 319.195,120.855 C323.137,119.141 326.738,116.914 327.594,115.883 C328.281,115.195 334.281,111.254 340.621,107.141 C354.336,98.91 359.992,100.285 364.277,109.883 C365.992,113.141 366.336,116.91 366.164,119.824 C363.422,123.254 321.422,149.48 317.137,149.996 C314.57,148.285 311.312,146.742 309.941,144.688"/>
  <path fill="rgb(3.921569%, 3.921569%, 2.745098%)" opacity="0.986" d="M190.457,228.344 C181.371,223.371 176.57,215.145 177.086,204.516 C178.629,193.543 183.086,186.859 192,181.715 L199.027,179.316 L198.855,152.23 C199.199,137.488 199.371,121.031 198,116.059 C195.43,107.316 196.457,104.059 199.371,92.059 C204.344,73.887 204.855,73.715 198.172,74.574 C188.059,74.059 187.199,70.633 186.859,45.262 C187.203,33.09 187.547,21.434 189.258,19.891 C192.344,15.09 195.945,14.234 204,18.348 C207.258,20.746 213.258,21.949 217.027,20.746 L222.855,20.574 L222.855,29.316 C221.828,34.117 222,44.402 222.855,53.66 C225.941,72.176 225.426,74.23 213.086,74.918 C203.828,73.891 205.027,72.859 209.145,86.574 C212.914,94.805 212.23,103.375 210.688,138.688 C211.031,170.918 210.344,181.543 212.059,180.688 C218.746,182.23 217.715,184.629 224.574,181.715 C228.688,180 232.461,177.773 236.574,176.23 C241.375,174.344 254.574,168.688 259.203,173.832 C264.348,179.488 242.574,192.004 239.145,193.375 C232.973,195.773 230.574,194.574 228.859,201.945 C227.488,207.945 229.031,214.289 225.258,219.773 C218.23,230.57 202.285,234.344 190.457,228.344"/>
  <path fill="rgb(1.960784%, 1.960784%, 2.352941%)" opacity="0.996" d="M331.887,212.742 C327.258,210.855 324,205.543 324.344,199.543 C324.688,189.086 324.516,188.742 352.801,189.602 C383.145,189.602 384.344,190.629 383.145,205.887 L383.316,214.973 L359.66,215.316 C346.801,215.145 334.113,214.113 331.887,212.742"/>
  <path fill="rgb(0%, 0%, 0.392157%)" d="M36.688,335.312 C37.887,306.855 38.574,279.082 39.43,274.285 L40.285,265.199 L33.598,264.512 C25.883,263.141 23.828,261.254 22.113,253.027 C20.055,243.258 22.285,238.285 32.742,238.629 L43.371,238.973 L40.801,208.285 L40.629,177.598 L33.258,176.57 C22.973,174.684 21.945,172.629 22.801,165.258 C22.285,155.828 25.715,153.43 39.086,152.23 L50.23,152.059 L48.172,129.945 C52.629,124.117 56.914,118.289 61.371,112.633 C65.141,107.832 70.113,102.863 73.371,97.719 C76.801,92.406 74.398,83.488 78.684,78.863 C82.453,74.922 90.855,75.434 94.453,79.719 C96.512,82.289 96.684,86.062 96.684,89.488 C96.684,94.117 95.828,99.945 97.711,104.059 C99.598,108.172 104.055,112.117 106.453,116.23 C113.824,126.172 115.195,127.715 114.684,140.059 L115.199,154.289 C115.199,154.289 128.055,156.859 128.055,156.859 C136.285,158.23 146.742,159.773 150.34,168.516 C150.855,169.543 151.027,170.746 151.027,171.945 C150,179.488 138.855,175.547 134.742,179.488 C129.43,184.461 131.828,197.145 132,203.316 C131.656,213.773 131.145,227.145 130.629,233.316 L129.43,242.746 L137.66,243.09 C149.145,244.977 151.031,247.375 151.031,256.805 C150.688,264.52 149.66,264.863 145.203,266.406 C142.461,266.922 139.375,267.094 137.832,267.094 C135.262,268.293 134.062,286.121 134.746,306.863 C135.773,316.805 137.488,339.094 138.176,356.062 L137.832,386.918 L36.52,386.918 L36.688,335.312"/>
  <path fill="rgb(48.235294%, 47.058824%, 49.019608%)" opacity="0.965" d="M198.516,206.742 C196.973,202.285 199.887,199.199 204.516,199.715 C209.828,200.23 211.715,204 208.285,207.945 C204.516,211.371 199.543,211.199 198.516,206.742"/>
  <path fill="rgb(26.666667%, 27.058824%, 27.843137%)" opacity="0.969" d="M268.801,179.828 C254.742,179.656 255.773,171.258 262.457,161.484 L268.285,152.57 L283.543,152.055 L298.285,151.199 L288.516,165.77 L278.746,179.656 C278.742,179.656 268.801,179.828 268.801,179.828 Z"/>
  <path fill="rgb(1.176471%, 1.176471%, 1.176471%)" opacity="0.992" d="M331.027,294.516 C319.715,288.172 309.258,280.973 308.57,277.887 C307.027,273.258 307.199,272.23 311.484,267.602 C318.34,258.172 320.914,257.145 333.941,266.746 C340.285,271.719 350.914,278.23 357.941,280.461 C369.426,286.805 370.285,290.574 364.969,301.375 C360.172,310.629 353.484,309.77 331.027,294.516"/>
  <path fill="rgb(3.529412%, 3.529412%, 3.921569%)" opacity="0.992" d="M277.887,358.457 C267.086,347.828 256.285,328.113 258.172,321.941 C258.344,317.141 266.914,311.484 272.402,313.199 C274.801,313.199 278.918,317.312 281.832,321.43 C284.746,325.715 291.773,334.801 297.773,341.66 C311.316,354.516 312.004,359.316 302.918,364.117 C292.973,371.145 288.516,370.457 277.887,358.457"/>
  <path fill="rgb(98.823529%, 89.411765%, 1.176471%)" opacity="0.995" d="M82.285,240.516 L61.715,239.656 L60.344,233.484 C58.285,225.086 60,202.969 63.258,196.629 C66.688,189.941 69.086,189.258 84.172,189.43 C97.543,189.258 104.914,192.172 109.371,198.688 C112.973,202.801 113.484,228.172 110.742,237.43 C109.199,242.23 109.715,242.059 82.285,240.516"/>
  <path fill="rgb(0.784314%, 0.784314%, 1.176471%)" opacity="0.997" d="M190.973,376.801 C191.488,371.488 190.629,360.859 189.086,353.145 C187.371,341.832 187.543,338.402 189.941,333.43 C192.172,328.973 193.371,328.285 202.285,328.117 C219.086,327.945 219.43,327.945 218.57,359.316 L218.914,386.402 L191.484,386.23 L190.973,376.801"/>
  <path fill="rgb(99.215686%, 89.803922%, 1.568627%)" opacity="0.994" d="M85.887,339.086 C75.086,337.715 68.742,333.602 62.914,325.027 C54.172,312.34 56.398,292.285 67.715,282.512 C72.688,278.398 74.914,277.883 87.602,278.227 C101.66,278.398 102.172,278.57 108.172,284.055 L114,290.227 L114.516,309.77 C114.344,320.57 113.828,332.055 112.973,334.969 C112.457,340.453 111.602,340.625 103.715,340.281 C99.602,340.113 91.371,339.602 85.887,339.086"/>
  <path fill="rgb(1.568627%, 1.568627%, 1.960784%)" opacity="0.987" d="M122.57,76.629 C109.199,61.199 105.941,56.914 106.457,51.773 C106.973,46.973 108.172,45.258 112.801,43.375 C123.945,36.688 127.543,37.547 141.086,56.574 C161.145,80.742 162.516,85.715 152.742,91.887 C141.602,99.086 139.027,98.059 122.57,76.629"/>
</svg>

