<svg xmlns="http://www.w3.org/2000/svg" width="384" height="384" viewBox="0 0 384 384">
  <defs/>
  <path fill="rgb(1.960784%, 67.843137%, 94.901961%)" opacity="0.959" d="M40.457,79.371 C30.516,72.516 26.227,64.285 26.914,54 C27.77,42.855 32.914,34.973 42.344,30.344 C56.059,23.488 69.945,27.258 79.031,40.629 C84.688,49.199 84.859,62.742 79.031,71.316 C70.801,83.484 52.285,87.258 40.457,79.371"/>
  <path fill="rgb(95.686275%, 52.156863%, 0%)" opacity="0.97" d="M179.312,132 C177.598,131.656 176.055,131.312 174.512,130.629 C167.141,126.688 163.027,109.543 162.855,101.828 C163.883,93.598 169.371,82.285 177.086,74.227 C184.457,67.371 184.457,66.512 182.23,60.168 C178.629,49.539 185.66,36.684 195.258,32.055 C201.086,29.312 208.457,28.797 214.801,30.34 C221.488,31.883 227.656,37.195 224.059,43.711 C222,47.48 220.629,46.109 220.973,51.426 C221.316,57.082 223.715,62.055 222,67.883 C219.77,75.598 215.145,78.168 217.715,86.738 C219.945,94.109 220.285,101.48 219.773,109.023 C218.918,118.793 224.746,125.48 222.859,135.422 C222.688,136.621 222.172,137.992 220.973,138.68 C220.285,139.023 219.258,139.023 218.574,138.852 C206.059,137.48 193.887,133.707 181.203,132.164 C180.516,132.172 180,132.172 179.312,132 Z"/>
  <path fill="rgb(97.647059%, 98.823529%, 96.470588%)" opacity="0.809" d="M153.43,153.77 C142.801,148.797 142.629,143.656 153.086,144.168 C159.602,144.512 160.629,145.539 161.484,151.195 C162,154.625 162.172,157.195 161.828,157.711 C161.828,157.715 157.715,156 153.43,153.77"/>
  <path fill="rgb(0%, 1.568627%, 14.901961%)" opacity="0.995" d="M119.828,331.027 C120.684,335.141 123.941,341.312 119.484,344.398 C114.855,347.656 105.77,343.543 102.512,340.457 C93.77,332.57 83.141,323.656 76.625,314.059 C71.312,306.172 66.168,298.289 61.195,290.059 C58.281,285.258 55.367,279.945 55.883,274.117 C56.57,263.145 68.91,256.289 71.312,245.66 C69.254,240.004 58.285,200.574 52.625,201.262 C51.77,201.434 51.082,201.949 50.566,202.461 C40.625,211.547 41.48,229.203 36.168,240.859 C29.141,256.461 12.168,266.918 -4.977,266.23 C-5.148,241.203 -5.148,216 -5.32,190.973 C1.367,193.371 9.25,192.859 15.594,189.43 C23.48,185.145 29.137,176.742 37.707,174 C46.965,171.086 56.734,175.371 65.477,179.656 C73.875,167.828 87.078,158.398 101.648,158.227 C124.105,158.227 141.078,178.969 162.848,184.113 C176.391,187.199 191.133,183.77 201.762,174.855 C221.133,158.914 223.703,130.797 235.531,108.512 C247.875,85.027 271.875,68.055 298.102,63.941 C306.332,62.57 314.902,62.57 322.617,59.312 C323.988,58.797 325.359,57.941 326.902,58.113 C331.703,58.629 331.188,65.656 330.332,70.285 C328.961,77.484 330.16,85.371 333.59,91.887 C337.359,99.086 343.359,104.574 348.504,110.914 C353.477,117.258 357.762,125.145 356.219,133.027 C354.848,140.914 345.59,147.598 338.391,143.828 C336.16,142.629 334.449,140.57 332.734,138.855 C324.504,129.941 314.391,122.914 303.25,118.285 C301.707,117.598 299.992,117.086 298.277,117.43 C295.191,118.117 293.648,121.543 292.793,124.629 C286.793,144.516 281.648,164.914 277.707,185.316 C276.68,190.117 276.508,196.289 280.793,198.688 C282.68,199.715 285.078,199.715 287.137,199.543 C296.395,198.688 305.309,196.457 314.566,196.457 C323.824,196.457 333.594,199.027 339.422,206.227 C342.68,210.34 344.395,215.312 345.938,220.285 C348.852,229.371 351.422,238.457 353.996,247.715 C356.227,255.602 358.109,264.688 353.824,271.715 C346.109,268.285 341.137,260.914 338.055,253.027 C334.969,245.141 333.426,236.914 330.168,229.199 C327.938,223.543 324.34,217.887 318.684,216 C314.055,214.457 309.082,215.656 304.625,217.199 C292.625,221.141 281.312,227.656 271.711,235.887 C262.797,243.602 255.082,253.031 244.625,258.344 C241.883,259.715 238.969,260.914 235.883,260.574 C230.91,260.23 226.969,256.461 222.512,254.574 C214.625,251.316 205.711,253.547 197.312,254.746 C171.426,258.688 145.027,253.375 119.312,247.891 C110.398,256.461 102.684,266.234 96.34,276.691 C94.109,280.461 92.055,284.406 91.883,288.691 C91.711,295.207 97.367,298.633 101.996,302.062 C111.941,309.602 117.602,319.199 119.828,331.027 Z"/>
  <path fill="rgb(0.392157%, 7.058824%, 30.980392%)" opacity="0.994" d="M206.398,66.172 C200.914,63.941 196.969,54.688 198.684,48.688 C199.711,43.203 207.082,39.258 215.656,39.258 C219.941,39.258 222.172,40.457 223.371,44.23 C229.715,61.027 220.113,73.371 206.398,66.172"/>
  <path fill="rgb(1.176471%, 39.215686%, 35.686275%)" opacity="0.982" d="M135.602,141.43 C133.887,139.543 133.031,132.859 132.859,121.887 L132,105.258 L163.199,105.086 L164.914,112.457 C165.43,116.742 168.172,122.227 170.914,124.457 L175.543,129.43 L178.285,124.973 L181.887,121.371 L186.859,126.344 C189.945,128.574 196.117,132.172 200.402,133.887 C210.004,137.316 210.004,137.656 206.23,142.457 C203.832,145.715 203.488,145.715 199.715,143.656 C192.172,138.684 179.484,132.684 176.742,132.684 C175.543,132.34 173.312,135.082 172.113,138.168 L169.027,144.34 L153.426,145.027 C140.914,144.688 137.656,144 135.602,141.43"/>
  <path fill="rgb(0.784314%, 40%, 36.078431%)" opacity="0.993" d="M182.398,107.145 C178.457,105.945 177.941,104.914 178.113,96.688 C178.457,75.086 196.457,72.859 198.172,94.457 C198.855,104.742 192.344,110.059 182.398,107.145"/>
  <path fill="rgb(97.254902%, 98.431373%, 96.078431%)" opacity="0.883" d="M204.172,151.371 C202.285,147.77 202.457,145.887 204.859,142.285 C207.945,137.656 208.461,137.656 213.602,140.398 C219.602,143.656 219.258,142.969 217.203,149.828 C215.828,156.516 207.77,157.371 204.172,151.371"/>
  <path fill="rgb(97.647059%, 96.078431%, 89.019608%)" opacity="0.986" d="M125.312,138.688 C121.199,134.23 120.168,130.973 118.625,115.203 C116.91,94.461 119.996,80.746 129.598,70.805 L134.398,64.117 L133.543,83.66 C132.688,94.285 132.855,111.941 133.371,123.43 C133.371,134.23 132.684,143.316 132.172,143.316 C130.801,143.484 128.059,140.914 125.312,138.688"/>
  <path fill="rgb(2.352941%, 39.607843%, 36.470588%)" opacity="0.986" d="M149.145,93.43 L134.059,93.258 L134.402,77.316 C133.715,55.203 134.402,54.004 160.633,54.516 L181.203,55.031 L182.574,61.203 C184.633,66.516 184.117,67.375 177.43,74.23 C173.316,78.516 169.031,84.688 167.488,87.945 C166.117,91.203 164.574,93.945 164.059,93.602 C164.059,93.77 157.199,93.43 149.145,93.43"/>
  <path fill="rgb(71.764706%, 24.313725%, 0.784314%)" opacity="0.974" d="M213.941,141.258 C207.598,138.516 211.711,136.113 222,136.113 C231.43,136.285 232.285,136.629 228.172,139.543 C223.543,142.801 219.086,143.484 213.941,141.258"/>
  <path fill="rgb(16.470588%, 40.784314%, 27.843137%)" d="M133.027,99.258 C132.855,94.457 133.027,94.457 149.141,94.629 C165.254,94.457 165.426,94.457 164.91,99.602 C165.426,104.574 165.082,104.574 148.797,104.574 C132.688,104.23 132.516,104.23 133.027,99.258"/>
  <path fill="rgb(96.078431%, 56.078431%, 0%)" opacity="0.979" d="M181.715,245.145 C178.285,243.773 177.258,242.914 177.258,238.973 C185.828,201.258 187.199,194.23 184.457,186.516 C182.57,182.402 176.57,173.145 170.57,165.602 C167.656,161.832 159.258,153.43 160.113,147.945 C160.457,146.059 161.312,145.887 162.684,144.688 C165.598,142.457 168.855,139.887 171.77,137.488 C173.484,136.117 174.855,132.688 177.254,132.688 C181.195,132.688 200.398,143.145 201.941,146.059 C204.34,152.402 210.512,180.859 210.512,187.887 C210.168,192 208.113,200.742 205.539,207.773 C198.684,225.602 194.395,239.316 194.227,242.918 C193.371,246.516 188.059,247.715 181.715,245.145"/>
  <path fill="rgb(85.490196%, 64.313725%, 28.235294%)" opacity="0.881" d="M343.543,279.77 C340.285,273.941 339.086,264.168 341.656,264 C342.855,264 349.027,267.602 353.656,271.027 C354.512,271.715 349.887,285.258 348.512,285.426 C347.484,285.43 345.602,283.027 343.543,279.77"/>
  <path fill="rgb(22.745098%, 70.980392%, 73.333333%)" opacity="0.992" d="M-0.344,324.172 L-0.172,265.887 L7.027,264.172 C17.141,261.602 20.227,262.285 28.629,267.43 C35.484,271.543 42,278.402 45.258,285.773 C51.945,300.859 64.629,316.289 80.914,321.258 C91.027,324.344 105.258,326.742 115.887,325.715 C125.316,324.859 130.117,316.113 134.402,308.914 C139.547,300.344 146.059,293.484 153.258,286.973 C160.973,279.945 168.688,273.086 176.57,266.23 C186.684,257.316 198.172,252.172 211.715,252.688 C223.887,253.203 234,258.859 241.887,268.117 C248.914,276.688 253.543,283.375 263.145,289.547 C274.973,297.09 282.688,307.375 288.859,319.719 C292.629,327.262 295.203,333.605 300.004,340.289 C309.605,353.316 307.375,368.23 307.031,383.316 L-0.512,383.832 L-0.344,324.172"/>
  <path fill="rgb(11.764706%, 28.235294%, 47.843137%)" opacity="0.992" d="M220.113,64.457 C223.715,59.145 224.055,51.086 221.141,43.715 C218.742,37.715 221.141,36.688 225.941,42 C232.285,49.371 228.512,68.914 220.285,69.086 C217.543,69.086 217.715,68.57 220.113,64.457"/>
  <path fill="rgb(50.980392%, 3.921569%, 2.745098%)" opacity="0.974" d="M182.398,213.77 C182.055,212.742 172.629,210.34 161.484,208.113 C150.34,205.715 139.543,202.801 137.141,201.258 C132.168,198 130.969,191.828 133.027,181.715 C136.457,168 135.941,168.172 155.141,173.145 C164.57,175.887 173.996,177.773 176.227,177.773 C181.027,177.945 186.34,187.375 185.828,195.945 C185.828,203.484 183.258,215.828 182.398,213.77"/>
  <path fill="rgb(42.745098%, 3.921569%, 3.529412%)" opacity="0.964" d="M204.516,211.199 C204.859,209.828 206.574,204 208.457,198.172 C211.371,188.402 210.516,179.828 205.199,157.715 L203.828,153.773 L207.941,157.543 C215.484,165.43 219.254,195.43 213.941,205.543 C210.855,211.715 202.457,216.688 204.516,211.199"/>
  <path fill="rgb(5.882353%, 60%, 72.156863%)" opacity="0.99" d="M306.516,381.941 C304.801,376.629 308.23,370.457 306.172,365.312 C304.457,361.199 298.801,358.285 295.715,355.371 C286.113,346.457 277.715,336.344 270.859,325.199 C266.402,318 262.461,310.285 259.375,302.227 C257.832,298.457 255.434,293.656 255.09,289.539 C254.746,285.254 256.117,284.566 259.719,281.652 C278.406,266.738 306.004,267.766 325.547,284.223 C331.719,289.195 336.348,296.566 339.605,303.766 C343.207,311.309 342.691,316.621 348.691,322.965 C354.176,328.965 359.664,334.793 365.148,340.793 C369.949,345.938 376.461,349.023 380.918,354.336 C385.375,358.449 385.719,360.164 385.719,371.82 L385.547,384.508 L346.461,384.508 C313.715,384.516 307.543,384.344 306.516,381.941"/>
  <path fill="rgb(0.392157%, 21.960784%, 25.490196%)" opacity="0.986" d="M153.258,173.828 C146.059,171.941 139.199,169.199 138.344,168.344 C137.488,167.488 138.688,163.371 140.574,159.086 C144.516,150.172 147.262,149.828 158.574,155.316 C164.746,157.375 178.633,173.316 178.289,177.43 C178.973,179.484 166.113,177.43 153.258,173.828"/>
  <path fill="rgb(83.137255%, 68.235294%, 40.784314%)" opacity="0.983" d="M84.172,332.398 C80.742,330 80.059,328.797 82.629,321.426 C85.543,314.055 86.23,313.539 89.656,315.941 C93.086,317.312 93.77,319.027 92.227,325.199 C90.172,334.973 88.457,336.344 84.172,332.398"/>
</svg>

