<svg xmlns="http://www.w3.org/2000/svg" width="384" height="384" viewBox="0 0 384 384">
  <defs/>
  <path fill="rgb(4.705882%, 47.058824%, 61.960784%)" opacity="0.994" d="M382.285,69.258 C375.77,44.23 367.715,31.371 352.285,22.629 C349.027,20.742 339.77,14.398 331.715,8.398 L317.145,-2.402 L351.945,-2.402 C370.801,-2.402 386.746,-1.887 387.258,-1.715 C387.945,-1.199 387.43,17.656 386.742,40.113 C385.027,79.199 385.027,80.398 382.285,69.258"/>
  <path fill="rgb(33.333333%, 13.72549%, 3.529412%)" d="M169.027,358.113 C148.969,355.371 125.484,347.484 110.57,339.258 C94.113,330.344 68.57,312 58.801,302.742 C43.199,286.113 26.23,264.855 25.887,260.742 C26.23,257.828 26.23,257.484 25.199,260.055 C22.969,261.77 12,237.082 9.258,225.082 C3.773,200.566 7.199,172.453 19.715,150.684 C24.688,139.883 32.059,130.969 50.57,111.426 C63.598,96.512 75.426,85.367 76.285,84.684 C77.312,84.855 78.684,86.742 81.941,88.453 C84.512,91.883 80.055,97.883 69.598,107.48 C56.055,116.738 32.055,142.453 27.082,152.738 L22.629,161.145 L21.773,195.43 C20.402,230.059 21.43,230.574 26.059,240 C31.887,253.371 41.488,259.715 75.086,270.344 L102.344,279.086 L125.316,280.457 C155.488,278.742 162.516,278.059 189.086,265.371 C202.973,258.516 208.973,255.43 213.43,249.258 C217.887,242.57 220.285,241.715 224.23,242.23 C231.945,244.117 254.918,229.031 272.918,211.887 C286.289,198.516 303.434,175.543 310.289,160.457 C313.375,154.457 319.375,145.371 323.145,140.742 C326.746,135.941 332.059,128.914 334.117,124.457 C335.145,119.656 343.547,109.715 352.805,102.855 L366.52,88.457 L367.375,65.828 C367.547,39.941 366.004,38.227 352.805,27.258 C348.691,25.715 339.09,19.027 332.746,12.172 C318.516,-4.629 323.832,-4.973 344.23,9.773 C375.086,33.086 373.031,30.516 379.887,52.973 L385.031,66.516 L384.859,214.629 L381.258,226.973 C374.402,245.828 363.258,267.945 352.285,284.914 C324.516,324.172 287.828,348.344 243.086,356.914 C221.484,361.199 188.742,361.715 169.027,358.113"/>
  <path fill="rgb(2.745098%, 48.627451%, 63.921569%)" opacity="0.985" d="M-0.344,157.027 L0.344,0 L30.172,0.172 L24,7.027 C17.828,14.059 13.715,23.484 15.086,27.941 C15.258,28.969 26.23,39.941 39.43,51.426 C52.457,63.254 66.172,75.426 69.773,78.684 L76.289,84.34 L56.57,104.23 C46.457,115.371 34.629,128.57 30.855,133.199 C20.059,147.941 10.801,166.285 8.57,178.973 C6.512,191.488 7.543,216.344 10.629,230.059 C15.602,250.289 34.629,278.574 60,303.602 L70.973,314.059 L0,314.574 L-0.344,157.027"/>
  <path fill="rgb(97.254902%, 97.647059%, 96.862745%)" opacity="0.818" d="M98.23,277.199 C80.746,271.887 48.172,260.227 42.688,257.141 C34.457,251.996 27.602,243.082 24.344,233.141 C21.773,225.941 21.602,219.426 21.945,193.199 C22.461,165.258 23.145,161.312 26.059,155.141 C32.059,143.656 48,125.484 63.43,112.625 C71.488,106.109 79.543,98.227 81.602,95.141 L85.371,90.168 L90.344,95.652 C93.258,98.566 97.031,100.965 99.258,100.797 C102.859,101.141 104.059,102.168 105.086,107.312 C105.602,111.77 109.027,116.57 115.715,123.598 L125.656,133.883 L121.715,144.516 C119.484,150.688 117.945,159.43 117.773,164.746 C117.945,170.059 116.574,177.434 115.203,181.031 C112.633,187.203 112.633,193.547 115.375,201.43 C116.402,204.688 115.719,205.031 107.832,204.516 C97.375,203.66 91.203,208.457 93.09,215.828 C94.633,222.344 98.062,225.598 108.348,230.059 C116.234,233.66 119.66,234.172 139.375,234.516 C160.977,234.344 162.348,233.828 174.859,228.688 C194.402,220.629 215.488,204.859 238.461,182.23 C259.547,161.66 262.117,157.543 259.375,146.574 C258.52,141.602 259.031,141.262 266.746,139.375 C286.461,133.719 314.059,96.688 314.059,75.605 C314.059,57.777 290.059,47.664 274.289,58.977 L269.145,61.715 L269.145,57.258 C269.316,51.602 261.43,42.688 252.859,38.914 C244.973,35.145 226.289,34.285 220.801,37.543 C216.859,39.602 212.57,49.027 212.57,54.855 C212.57,58.797 212.055,59.141 198,58.457 C184.457,59.145 183.086,59.312 178.801,63.43 C176.059,66.172 172.285,68.402 170.914,68.574 C166.973,68.23 155.312,74.059 152.57,77.488 C150.684,79.887 150,79.719 145.715,77.316 C141.43,74.918 139.543,74.746 132.688,76.801 C123.258,78.859 122.059,78.688 120.172,71.656 C120,68.914 117.602,64.457 115.887,61.887 L112.117,57.258 L118.805,51.602 C128.406,43.371 153.434,26.574 164.406,20.746 C169.379,18.688 184.977,12.688 199.207,7.891 L224.406,-0.34 L320.578,0.516 L328.637,8.914 C333.094,14.059 341.836,21.602 348.18,26.227 C364.465,36.512 367.895,43.027 367.723,66.34 C367.551,78.168 366.867,85.711 365.324,88.625 C363.609,91.195 356.926,98.055 350.238,104.227 C342.18,110.742 336.352,118.113 333.438,123.941 C331.039,128.742 326.238,136.285 322.637,140.398 C319.207,144.855 312.867,154.457 309.094,161.484 C294.18,189.941 271.551,215.141 246.352,231.941 C232.98,240.684 230.066,242.055 225.266,241.027 C220.809,240.172 219.094,240.684 216.523,243.598 C206.922,255.426 185.668,267.941 162.695,275.484 C149.312,279.602 109.715,280.801 98.23,277.199"/>
  <path fill="rgb(2.352941%, 47.45098%, 63.529412%)" opacity="0.975" d="M349.027,307.715 L334.113,306.859 L340.457,299.316 C355.371,281.488 370.973,254.059 380.227,230.059 L385.371,216.516 L385.199,263.145 L384.684,309.258 L374.398,309.086 C368.57,308.914 357.086,308.23 349.027,307.715"/>
  <path fill="rgb(62.745098%, 70.588235%, 65.490196%)" opacity="0.975" d="M199.199,207.941 C195.941,206.055 191.312,197.656 191.312,193.543 C191.141,189.43 197.484,182.059 203.656,178.801 C208.629,176.23 215.312,163.715 215.312,156.516 C215.312,154.973 208.285,148.457 199.543,141.945 C172.973,121.715 164.398,114.859 156.688,107.832 C149.145,100.977 148.801,100.805 149.316,90.859 C149.66,85.375 150.688,79.715 152.059,78.344 C154.629,74.914 166.117,69.086 170.059,69.086 C171.602,69.086 175.203,67.027 177.945,64.457 C182.402,60 183.773,59.656 197.316,59.312 C211.375,59.828 211.887,59.484 211.887,55.543 C211.715,49.543 216.172,40.113 220.117,38.23 C225.773,34.973 244.461,36 252.348,39.602 C260.918,43.203 268.633,52.117 268.805,57.945 L268.805,62.23 L273.434,58.973 C289.375,47.828 313.203,57.945 313.203,75.773 C313.203,96.688 285.773,133.887 266.402,139.375 L258.688,141.605 L259.031,150.691 C258.859,158.406 258.344,160.977 253.887,166.633 C245.828,176.234 207.945,210.004 205.199,210.004 C203.656,210 200.914,208.973 199.199,207.941"/>
  <path fill="rgb(55.686275%, 90.196078%, 4.313725%)" opacity="0.986" d="M187.371,183.258 C178.113,176.742 138,142.973 121.715,128.57 C110.23,117.258 107.656,113.828 106.457,107.656 C105.086,101.141 104.398,100.113 100.285,100.285 C96.855,100.285 93.941,98.57 91.027,94.629 C88.797,91.371 85.883,88.973 84.34,89.656 C81.082,89.141 14.738,29.656 14.398,26.57 C14.398,21.77 19.711,11.141 26.227,4.457 C30.855,-0.344 33.254,-1.371 39.598,-1.371 C47.141,-1.715 47.828,-1.027 74.742,24.688 C89.828,39.773 105.258,54.344 109.543,57.258 C114.172,61.027 117.773,65.828 119.656,70.801 C122.398,78.688 122.57,78.859 128.742,78 C132.172,77.484 136.457,76.457 138.512,75.941 C140.742,75.254 143.484,76.113 146.398,78.172 C150,81.43 150.512,83.145 150.34,91.543 L149.652,101.312 L166.625,115.711 C175.711,123.941 190.625,135.598 199.711,142.109 C209.141,149.137 215.48,155.137 215.48,157.023 C215.48,161.652 208.793,175.879 206.395,175.711 C205.539,176.055 202.109,178.625 198.68,181.539 L193.367,188.055 L187.371,183.258"/>
  <path fill="rgb(3.921569%, 48.627451%, 63.137255%)" opacity="0.995" d="M98.57,47.828 C94.801,44.398 80.914,31.199 67.883,18.516 L43.883,-4.285 L127.539,-4.457 L211.023,-4.457 L192.508,1.715 C173.652,7.887 147.594,23.484 119.992,45.258 C113.477,50.402 107.477,54.516 106.793,54.344 C106.285,54.344 102.516,51.086 98.57,47.828"/>
  <path fill="rgb(70.980392%, 77.647059%, 74.509804%)" opacity="0.845" d="M113.828,231.941 C101.828,227.828 95.656,223.711 93.598,218.055 C89.996,208.453 97.027,202.625 110.398,203.996 C116.055,204.852 116.57,204.34 115.543,201.254 C112.629,193.195 112.629,186.512 115.199,180.34 C116.742,176.738 117.941,169.027 117.941,163.711 C117.941,157.539 119.484,149.141 122.227,141.598 C124.457,134.742 126.34,130.453 126.512,131.312 C126.512,132.684 139.711,144 172.113,171.082 C173.656,172.281 176.398,174.684 178.457,176.395 C180.344,178.109 184.457,180.68 187.199,182.051 C190.285,183.938 192.512,186.336 192.855,188.906 C193.711,196.965 197.312,203.305 202.457,206.391 L207.602,209.648 L196.973,216.504 C177.43,229.359 165.43,233.477 142.801,234.16 C126.516,235.027 121.027,234.688 113.828,231.941"/>
  <path fill="rgb(44.705882%, 20.784314%, 5.490196%)" d="M104.57,54.855 C102.512,52.457 104.398,50.57 113.312,43.371 C132.344,28.973 160.285,11.484 170.57,7.715 C184.969,2.402 210.512,-3.086 219.426,-2.57 C226.281,-2.398 223.883,-1.199 201.598,6.344 C187.367,10.973 172.113,16.629 167.312,18.859 C155.141,24.859 121.371,47.145 116.055,52.801 C110.742,58.285 107.656,58.801 104.57,54.855"/>
</svg>

