<svg xmlns="http://www.w3.org/2000/svg" width="384" height="384" viewBox="0 0 384 384">
  <defs/>
  <path fill="rgb(3.137255%, 2.352941%, 80%)" d="M75.43,312.855 C73.199,307.371 69.773,299.484 67.887,294.512 C58.973,271.711 53.145,244.969 49.887,220.797 C48.344,208.281 46.285,200.566 34.973,195.082 C23.828,189.598 12.688,181.711 13.543,167.652 C14.059,157.539 21.258,148.965 29.484,142.965 C35.141,138.68 42,135.25 49.027,136.109 C59.312,137.309 66,147.422 69.086,157.367 C70.973,163.711 71.828,170.566 70.457,177.082 C69.086,183.598 64.973,189.77 59.145,192.684 C57.773,193.371 56.402,193.883 55.375,195.082 C53.832,196.969 54.348,200.055 55.891,201.938 C58.289,205.023 62.578,206.91 65.492,209.309 C89.492,229.539 111.434,252.336 129.434,278.051 C131.664,281.309 134.234,284.738 137.664,286.621 C153.949,295.707 163.895,261.594 169.035,251.992 C176.234,238.965 185.148,227.137 192.348,213.934 C197.492,204.332 202.289,185.133 215.32,184.789 C225.434,184.617 228.176,195.762 230.922,203.305 C236.234,217.535 247.035,228.16 251.836,242.906 C255.605,254.906 261.438,266.391 270.691,275.137 C288.004,291.25 304.633,257.137 313.891,247.023 C327.434,232.281 340.805,217.539 354.348,202.793 C355.547,201.422 356.918,199.879 357.262,198.164 C357.949,194.906 355.375,191.992 353.492,189.422 C346.293,179.82 343.891,166.277 348.863,155.309 C353.836,144.336 366.691,137.137 378.52,139.879 C380.918,140.395 383.492,141.594 385.035,143.648 C386.75,146.047 386.75,149.305 386.75,152.219 C386.406,163.191 386.234,174.16 385.895,184.961 C385.895,186.676 385.723,188.562 385.039,190.273 C384.184,192.16 382.809,193.531 381.438,194.902 C374.922,202.445 373.723,213.074 372.352,223.016 C368.238,254.387 360.008,285.074 348.008,314.387 C347.492,315.758 346.809,317.301 345.438,317.988 C344.41,318.676 343.039,318.504 341.836,318.504 C311.32,317.305 280.637,314.391 250.121,314.047 C219.434,313.703 188.75,316.445 158.062,317.816 C133.891,318.844 106.805,315.758 83.32,321.758 C79.199,323.828 78.688,322.629 75.43,312.855"/>
  <path fill="rgb(1.960784%, 1.176471%, 87.058824%)" opacity="0.988" d="M202.973,172.285 C194.914,167.656 188.742,155.141 190.285,146.742 C191.141,138.684 200.398,127.887 206.57,127.715 C222.172,127.027 237.086,137.316 237.426,149.145 C237.941,162 226.113,175.203 214.113,175.543 C211.543,176.059 206.398,174.172 202.973,172.285"/>
  <path fill="rgb(91.764706%, 82.745098%, 3.921569%)" opacity="0.999" d="M195.941,114.688 C186,111.602 180.172,105.258 172.797,89.488 C164.055,70.633 168.168,54.688 185.312,41.488 C201.941,28.633 224.57,32.402 238.285,47.66 C252.344,63.262 255.598,75.945 249.598,91.203 C240.516,111.941 217.371,122.23 195.941,114.688"/>
  <path fill="rgb(82.352941%, 67.843137%, 3.137255%)" opacity="0.983" d="M140.398,289.371 C150.34,292.113 158.398,280.629 161.141,269.656 C167.312,245.141 158.227,217.371 138.512,201.258 C137.312,200.23 135.77,199.199 134.227,199.027 C131.484,198.855 129.254,201.086 127.711,203.312 C118.797,215.656 114.34,231.254 115.711,246.512 C116.91,260.57 122.91,275.484 133.367,285.254 C135.77,287.484 138.172,288.688 140.398,289.371 Z"/>
  <path fill="rgb(74.901961%, 49.019608%, 5.490196%)" opacity="0.982" d="M283.199,282.516 C271.715,289.371 264.344,276.172 260.742,264.688 C257.484,254.402 257.141,243.43 259.715,233.488 C261.773,225.773 276.688,192.516 286.457,192.176 C297.086,191.832 305.312,225.605 307.199,232.977 C312,251.32 298.969,270.863 284.742,281.32 C284.23,282 283.715,282.344 283.199,282.516 Z"/>
  <path fill="rgb(88.235294%, 93.72549%, 4.313725%)" opacity="0.99" d="M205.887,280.457 C193.543,276.344 190.973,265.715 198.688,252.172 C206.918,238.285 218.402,237.258 226.801,249.773 C232.801,258.172 231.773,275.488 225.43,279.945 C222.516,282.172 211.543,282.172 205.887,280.457"/>
  <path fill="rgb(87.843137%, 91.372549%, 4.313725%)" opacity="0.993" d="M74.059,283.371 C65.145,274.457 65.316,262.973 74.574,255.602 C78.688,252.516 80.059,252.172 85.375,253.543 C95.66,257.312 102.004,280.113 93.773,284.57 C87.77,288.172 79.027,287.656 74.059,283.371"/>
  <path fill="rgb(89.019608%, 93.72549%, 4.313725%)" opacity="0.991" d="M329.145,286.457 C328.457,284.914 327.602,279.43 327.43,274.113 C327.945,266.398 328.629,263.828 332.914,259.371 C345.941,246.516 359.312,259.027 354.172,278.57 C351.602,288.512 350.059,289.715 338.914,289.883 C332.57,289.715 329.828,288.688 329.145,286.457"/>
  <path fill="rgb(91.764706%, 82.745098%, 3.921569%)" opacity="0.999" d="M83.145,377.145 C82.801,361.031 79.031,345.258 78.859,329.145 C78.859,324 79.715,322.117 82.289,320.914 C83.832,320.227 105.773,319.371 130.633,318 C155.66,318.344 177.09,317.145 178.461,315.602 C179.488,315.258 196.633,314.402 216.52,314.059 L252.348,313.543 L251.148,318.855 C250.461,321.941 250.121,335.828 250.121,349.711 L250.121,375.598 L185.664,375.254 C150.008,374.566 112.465,375.082 101.664,376.109 C101.656,376.113 83.145,377.145 83.145,377.145 Z"/>
  <path fill="rgb(80.392157%, 63.921569%, 4.705882%)" d="M339.941,378.172 C334.969,377.656 311.484,376.973 288.34,376.973 L245.652,376.973 L245.48,350.574 C245.48,317.832 246.508,312.176 251.824,313.887 C253.883,314.742 269.996,316.117 287.996,314.574 C305.309,314.402 327.766,316.805 338.055,317.832 C342.512,318.348 352.113,315.434 355.711,318.859 C361.195,324.004 358.453,335.66 357.77,342.004 C356.742,351.773 358.285,362.746 355.371,372.176 C352.801,380.57 348.688,379.199 339.941,378.172"/>
  <path fill="rgb(75.686275%, 0.392157%, 72.941176%)" opacity="0.994" d="M204.516,358.113 C201.086,356.914 196.629,348.172 196.285,342 C196.285,338.57 198,334.457 201.43,330.855 C207.773,323.656 215.316,322.969 222.859,329.141 C227.832,332.742 228.688,334.969 229.031,341.312 C229.203,351.77 223.375,358.797 213.945,359.141 C210,359.145 205.887,358.801 204.516,358.113"/>
  <path fill="rgb(81.176471%, 0%, 88.627451%)" opacity="0.996" d="M146.57,351.941 C142.285,347.828 143.828,338.914 149.141,335.312 C153.77,332.57 154.625,332.57 159.082,335.484 C162.34,337.715 164.055,340.797 164.055,344.227 C163.883,351.082 160.797,354.512 154.113,354.168 C151.371,354.344 147.941,353.312 146.57,351.941"/>
  <path fill="rgb(69.803922%, 5.098039%, 21.568627%)" opacity="0.995" d="M91.199,354.516 C85.543,349.031 85.371,344.23 90.855,337.887 C96.512,331.031 104.227,331.199 110.055,338.059 C120.855,350.742 102.855,366.688 91.199,354.516"/>
  <path fill="rgb(80.392157%, 0.784314%, 69.411765%)" opacity="0.993" d="M285.941,350.914 C282,345.258 282.34,339.43 286.457,335.656 C294.172,329.141 305.656,334.285 305.656,344.398 C305.656,354.172 291.77,358.973 285.941,350.914"/>
  <path fill="rgb(75.686275%, 10.196078%, 21.568627%)" d="M345.602,347.656 C345.945,341.141 346.973,335.312 347.316,334.457 C348.859,331.543 356.918,340.629 358.289,346.113 C359.66,352.457 356.918,355.883 349.375,357.77 L344.402,358.969 L345.602,347.656"/>
  <path fill="rgb(0.784314%, 0%, 60.392157%)" opacity="0.982" d="M103.027,382.801 C98.742,380.402 94.797,378.859 93.941,378.859 C91.543,374.918 124.285,371.145 207.086,374.574 C338.742,373.719 367.715,375.43 316.801,382.973 C289.199,385.199 112.629,385.543 103.027,382.801"/>
</svg>

