<svg xmlns="http://www.w3.org/2000/svg" width="384" height="384" viewBox="0 0 384 384">
  <defs/>
  <path fill="rgb(3.529412%, 1.568627%, 99.215686%)" opacity="0.985" d="M354.344,294 C338.059,292.801 333.086,290.398 314.23,275.145 C302.402,265.715 284.918,252.172 276.172,245.66 C274.973,244.973 275.316,243.773 277.543,242.402 C279.258,241.547 280.629,239.145 280.629,237.43 C280.629,235.715 282.344,233.316 284.742,232.457 C287.828,231.086 288.855,229.199 288.684,223.887 C288.512,217.371 288.855,217.199 295.539,216 C301.367,214.801 304.969,216 319.023,223.543 C328.281,228.172 339.422,234.688 344.051,238.285 C348.68,241.887 354.336,244.801 356.906,244.801 C360.848,244.629 361.535,245.828 362.734,252 C363.762,256.113 364.793,259.371 365.992,259.371 C367.02,259.543 368.734,260.742 369.934,262.113 C371.133,263.656 375.418,265.883 379.363,266.914 L386.734,269.484 L387.422,282.855 L387.938,296.055 L378.168,295.539 C372.516,295.199 361.887,294.344 354.344,294"/>
  <path fill="rgb(3.529412%, 1.960784%, 99.215686%)" opacity="0.991" d="M321.941,219.258 L300.172,218.914 L294.688,213.086 L289.375,207.086 L293.832,203.316 C298.117,199.887 298.289,199.375 296.062,195.602 C294.52,193.371 291.949,190.973 290.234,190.457 C286.121,189.258 286.121,187.371 290.062,183.602 C296.918,177.258 377.492,160.801 381.605,164.574 C383.32,165.945 384.176,176.402 384.691,193.375 L385.379,220.117 L364.465,219.945 C353.312,219.77 333.941,219.43 321.941,219.258"/>
  <path fill="rgb(95.294118%, 94.509804%, 0.784314%)" opacity="0.985" d="M241.543,253.715 C241.199,252.344 241.199,251.316 240.344,250.113 C239.145,251.141 238.629,253.027 237.43,254.398 C236.059,255.941 233.828,256.797 232.117,255.77 C230.746,255.082 230.059,253.539 229.547,252 C228.52,248.914 228.52,245.484 229.203,242.23 C227.145,245.66 224.402,248.918 221.145,251.316 C219.43,252.688 216.859,253.887 215.145,252.344 C214.289,251.656 214.117,250.629 213.945,249.602 C213.258,246.172 213.09,242.574 213.602,239.145 C213.258,241.031 206.746,246.516 204.344,246.516 C201.602,246.516 200.23,241.031 202.113,237.086 C204.684,234.344 204.172,233.656 201.086,234.855 C199.371,235.371 196.113,237.086 193.715,237.598 C189.602,237.941 189.43,237.598 190.629,233.312 C191.316,229.543 191.656,228.34 189.258,228.512 C183.602,228.684 182.742,223.199 186.172,219.941 C189.258,217.199 192.172,214.285 195.258,211.543 C191.488,211.715 187.715,211.371 184.113,210.855 C182.742,210.684 181.199,210.34 180.512,209.312 C178.797,206.914 182.227,199.199 182.227,195.941 C182.227,194.57 182.055,193.027 181.199,192 C180.684,191.484 180,190.973 179.656,190.457 C178.457,188.398 180.855,186 182.914,185.145 C185.145,184.117 187.887,182.914 187.715,180.516 C187.715,179.316 186.688,178.117 187.027,176.746 C187.715,173.66 193.715,175.031 194.57,171.945 C195.086,170.402 193.715,169.031 193.543,167.316 C193.199,164.918 196.113,162.859 198.516,163.031 C201.086,163.203 203.145,164.746 205.203,166.289 C206.402,164.574 205.719,162.348 205.375,160.461 C205.031,158.402 205.031,156.004 206.918,155.148 C209.488,153.949 213.773,157.035 214.977,154.293 C215.32,153.438 214.977,152.578 214.977,151.723 C214.805,149.492 216.176,146.922 218.406,146.238 C221.32,145.383 227.492,154.297 227.492,148.125 C227.32,144.355 229.551,144.523 235.207,148.641 L239.492,152.242 L240.52,148.812 C242.062,144.527 243.777,144.527 246.863,148.125 C248.578,150.523 249.262,150.355 251.32,147.27 C253.551,144.527 254.234,144.527 255.777,146.926 C256.293,148.812 257.32,151.727 257.664,153.441 C257.492,157.043 258.18,157.043 262.465,156.184 C266.922,155.668 268.121,156.012 268.293,158.414 C268.293,160.645 269.492,160.473 273.777,159.441 C279.262,158.926 279.434,159.098 279.09,164.926 C277.891,170.07 278.234,170.754 284.574,172.641 C297.09,175.727 300.004,181.211 292.289,185.328 C290.746,186.016 289.719,186.527 289.375,188.07 C292.633,189.441 296.402,189.098 299.316,191.672 C301.887,193.902 302.402,198.359 299.66,200.242 C298.633,200.93 297.262,201.098 296.059,201.27 C292.289,201.613 288.516,201.613 284.746,201.098 C291.434,203.84 297.434,207.953 302.23,213.098 C302.746,213.613 303.086,214.125 303.258,214.641 C303.43,215.668 302.402,216.699 301.543,217.211 C297.258,219.953 292.801,219.27 288.344,219.27 C288.688,220.984 289.715,222.184 290.914,223.555 C291.77,226.125 292.973,229.383 292.457,230.582 C292.629,234.867 288,236.926 285.086,234.352 C282,231.266 280.285,231.609 282.516,236.066 C285.773,243.094 280.973,247.379 274.457,242.582 C272.227,239.324 271.887,239.668 271.887,245.496 C270,252.012 265.543,252.695 263.145,246.352 C262.629,241.723 259.543,243.609 259.715,248.75 C259.199,251.492 258.516,252.18 253.887,251.492 C249.773,250.293 248.742,250.465 248.742,253.891 C247.199,260.57 243.602,260.23 241.543,253.715"/>
  <path fill="rgb(3.529412%, 1.568627%, 99.215686%)" opacity="0.986" d="M181.887,366 C179.316,364.457 176.23,360.172 174.859,357.086 C171.258,349.199 171.09,333.258 174.172,325.371 C177.086,320.398 179.316,307.199 178.457,307.027 C177.941,307.199 174.688,309.941 171.43,313.883 C156.344,327.254 130.457,334.625 124.117,327.082 C115.719,319.367 119.316,303.77 136.289,278.738 C148.117,259.539 160.461,249.082 180.176,237.594 C188.406,232.109 189.434,231.594 190.805,234.336 C191.32,236.223 193.891,237.766 196.289,237.594 C199.203,236.566 201.262,238.281 202.117,241.363 C203.832,245.133 205.203,246.164 207.773,245.305 C210.172,244.617 212.574,245.305 213.43,248.906 C216.688,253.363 219.945,253.707 223.543,249.594 C226.285,245.992 228.344,246.68 229.027,251.137 C229.715,253.195 231.941,255.25 234.172,255.766 C237.43,256.453 237.602,257.824 237.43,269.824 C237.43,305.137 225.773,335.996 203.316,360.168 C193.543,371.312 188.742,372.172 181.887,366"/>
  <path fill="rgb(3.137255%, 1.568627%, 99.215686%)" opacity="0.985" d="M284.914,361.715 C282,358.801 277.887,352.973 275.656,348.859 C274.113,344.059 271.371,340.117 269.141,339.258 C262.113,337.715 254.57,318.688 250.797,295.715 C250.109,287.656 248.227,279.945 246.34,278.402 C245.484,276.172 244.109,270.688 243.426,266.402 C242.398,259.375 242.57,258.344 245.996,257.66 C247.883,257.145 249.598,255.602 249.082,253.719 C249.254,251.832 250.969,250.977 253.711,251.66 C256.281,251.488 258.684,250.461 259.195,249.43 C259.883,247.543 261.254,247.715 263.309,249.086 C264.852,251.316 266.051,251.484 269.48,249.773 C273.594,246.344 273.594,246.516 294.508,286.973 C307.707,312.344 311.652,322.285 311.992,329.145 C313.363,346.973 303.934,366.859 294.164,366.344 C292.457,366.688 288,364.457 284.914,361.715"/>
  <path fill="rgb(3.137255%, 1.176471%, 99.607843%)" opacity="0.981" d="M95.828,227.656 C83.484,224.57 70.457,219.086 68.914,216.172 C65.656,211.371 67.199,202.629 72.172,196.973 C76.629,191.828 78.516,190.973 85.887,190.801 C93.773,191.828 94.801,191.488 96.344,186.172 C97.543,179.145 100.113,177.43 103.715,179.316 C105.258,180.859 116.23,182.059 128.23,181.887 C161.488,183.602 178.461,185.656 180.344,189.258 C182.574,191.656 183.258,195.43 182.914,201.773 C181.715,210.688 181.715,211.203 187.027,213.086 C192.512,214.973 192.512,215.484 188.742,218.57 C186.855,220.457 184.973,222.855 185.656,224.227 C185.484,227.656 177.77,228.512 140.398,230.914 C112.113,231.086 103.199,230.398 95.828,227.656"/>
  <path fill="rgb(38.039216%, 0%, 10.588235%)" opacity="0.996" d="M229.027,222.855 C213.77,214.457 210.855,200.227 222,189.086 C240.688,169.887 265.715,181.371 264.688,208.457 C264.344,216.688 261.258,220.801 252.688,224.398 C242.914,228 237.941,227.828 229.027,222.855"/>
  <path fill="rgb(3.529412%, 1.568627%, 99.215686%)" opacity="0.987" d="M175.887,165.941 C154.629,155.484 138.855,144.516 138.855,140.059 C139.027,137.316 134.57,130.973 128.57,125.488 C122.914,119.832 118.801,113.316 118.969,111.09 C118.969,109.031 116.57,105.434 113.484,102.691 C109.199,98.234 108.512,96.004 108.172,88.977 C108.516,81.434 109.199,79.207 112.973,76.633 C119.66,71.32 126.516,70.461 136.801,73.203 C156,78.855 183.43,103.543 203.828,135.086 C216,154.285 217.543,157.199 213.258,155.656 C209.656,154.457 204.859,158.055 205.199,161.828 C205.199,164.57 204.172,164.914 200.227,164.059 C195.254,163.203 194.57,163.715 194.227,168.344 C194.57,174.172 192.688,173.656 175.887,165.941"/>
  <path fill="rgb(3.529412%, 1.568627%, 99.215686%)" opacity="0.987" d="M279.086,164.059 C278.398,161.66 276.344,160.457 273.941,160.801 C271.883,161.316 268.969,160.113 267.598,157.715 C265.883,156.516 263.141,155.316 261.082,156.172 C255.938,155.656 256.797,149.145 263.824,133.887 C281.48,99.086 313.539,61.199 329.824,57.773 C337.539,56.059 343.367,58.289 346.109,64.117 C352.453,75.262 348.34,95.316 335.48,114.004 C328.793,125.316 285.938,168.348 281.996,168.004 C280.629,167.828 279.086,166.113 279.086,164.059"/>
  <path fill="rgb(3.137255%, 1.568627%, 99.215686%)" opacity="0.983" d="M219.602,147.602 C216.516,144.688 213.773,139.887 213.086,137.145 C209.316,123.773 206.742,111.43 206.23,97.375 C205.887,87.945 207.086,79.203 208.289,69.945 C209.316,61.203 208.977,52.801 212.918,44.746 C218.574,33.434 228.176,24.004 234.52,24.516 C243.777,24.516 255.777,40.457 259.719,59.145 C262.805,72.344 262.289,110.914 258.691,129.258 C255.777,146.402 253.035,150.344 246.004,148.629 C243.434,147.602 241.031,148.113 240.348,149.484 C239.148,151.199 237.949,151.027 234.348,148.629 C230.062,147.086 228.691,146.914 226.977,149.656 C225.43,152.57 224.914,151.887 219.602,147.602"/>
</svg>

