<svg xmlns="http://www.w3.org/2000/svg" width="384" height="384" viewBox="0 0 384 384">
  <defs/>
  <path fill="rgb(99.607843%, 25.882353%, 96.862745%)" opacity="0.99" d="M377.828,157.371 C375.258,144.684 370.801,132.172 366.516,120.172 C363.258,110.742 359.316,102.859 353.828,94.801 C349.027,87.773 347.828,79.371 341.484,73.031 C334.797,66.516 330.172,58.289 322.285,53.145 C314.055,47.66 304.457,44.746 295.199,41.66 C286.969,38.918 274.629,34.461 267.77,32.059 C250.969,25.031 229.027,24.859 208.285,32.23 C196.113,36.344 191.312,37.031 183.258,36.344 C168.859,35.316 155.656,41.828 144.859,50.914 C124.289,68.227 100.629,83.484 86.059,106.457 C80.23,115.543 77.145,125.145 73.543,135.258 C65.145,158.059 49.887,182.23 50.742,207.43 C50.914,210 51.086,212.574 51.43,215.145 C52.285,223.031 53.316,230.746 53.488,238.629 C53.66,250.285 53.316,262.113 58.289,272.914 C63.602,284.059 74.23,290.398 82.805,298.629 C87.949,303.43 92.234,309.086 97.035,314.398 C102.008,319.883 107.836,323.141 113.32,327.941 C124.977,337.711 137.492,351.598 151.035,358.629 C162.18,364.285 178.805,358.973 190.121,356.23 C199.035,354.172 207.777,353.316 216.691,356.059 C224.922,358.629 232.633,363.773 241.719,363.258 C252.004,362.742 260.406,355.371 267.949,349.199 C276.691,342.172 285.605,338.227 296.75,336.684 C310.465,334.797 324.863,334.625 338.406,330.512 C352.293,326.055 360.348,315.426 363.777,301.711 C368.406,283.367 371.664,264.512 373.891,245.824 C375.262,233.824 376.289,221.824 376.461,209.652 C376.633,200.395 378.691,192.508 379.547,183.422 C380.398,174.688 379.543,165.941 377.828,157.371 Z"/>
  <path fill="rgb(95.686275%, 79.607843%, 0%)" d="M152.059,64.457 C150.516,61.543 152.059,60.172 167.145,55.027 C180.688,50.57 185.66,50.742 181.375,56.227 C177.77,59.312 153.258,66.855 152.059,64.457"/>
  <path fill="rgb(98.431373%, 81.960784%, 81.176471%)" d="M296.914,101.312 C297.086,96.34 307.715,73.543 309.941,73.543 C313.371,73.715 312,80.23 306,92.57 C300.344,104.742 296.914,108 296.914,101.312"/>
  <path fill="rgb(96.470588%, 83.921569%, 0%)" opacity="0.991" d="M241.715,107.656 C229.371,98.055 229.199,97.543 231.602,95.141 C233.316,93.254 235.543,93.77 240.344,98.227 C243.945,101.312 249.258,104.742 252,106.457 C254.398,108.688 255.258,110.57 254.398,111.941 C252.172,115.371 251.312,115.371 241.715,107.656"/>
  <path fill="rgb(96.078431%, 84.705882%, 0%)" d="M258.516,85.715 C254.914,72.516 252.859,60.516 255.945,61.199 C257.66,60.172 259.203,62.055 260.574,65.141 C260.574,68.227 261.945,73.371 263.66,76.969 C266.23,86.055 265.719,92.227 262.633,92.055 C262.113,92.742 259.715,89.484 258.516,85.715"/>
  <path fill="rgb(1.960784%, 79.215686%, 87.843137%)" opacity="0.994" d="M327.43,118.973 C317.66,116.574 312.172,111.945 319.887,110.914 C327.773,111.086 345.945,115.371 344.742,117.258 C343.887,120.344 338.398,121.199 327.43,118.973"/>
  <path fill="rgb(100%, 56.470588%, 97.254902%)" opacity="0.985" d="M106.285,150.688 C100.629,141.086 99.598,135.43 102,127.203 C104.57,118.113 111.43,117.77 116.57,126.855 C121.715,135.77 122.398,143.141 118.969,150.855 C115.371,159.43 111.602,159.43 106.285,150.688"/>
  <path fill="rgb(100%, 57.254902%, 98.431373%)" opacity="0.982" d="M148.285,103.027 C145.027,98.914 147.43,94.797 154.629,91.883 C161.316,88.797 180.172,87.941 184.113,90.512 C188.398,92.91 186,98.57 179.141,101.824 C170.914,106.113 151.543,106.801 148.285,103.027"/>
  <path fill="rgb(95.294118%, 83.137255%, 0%)" d="M326.398,155.312 C315.426,152.57 312.684,150.855 314.914,148.625 C316.457,146.227 320.742,147.426 338.914,151.539 C341.484,152.738 343.371,154.281 342.684,155.141 C343.371,157.715 335.312,158.23 326.398,155.312"/>
  <path fill="rgb(94.901961%, 76.470588%, 0%)" opacity="0.999" d="M82.973,205.543 C81.086,203.656 93.602,176.059 96,176.57 C99.941,176.742 99.941,178.629 93.941,192.855 C88.973,205.543 85.715,209.656 82.973,205.543"/>
  <path fill="rgb(99.215686%, 99.607843%, 98.431373%)" opacity="0.999" d="M230.742,248.398 C210.684,238.285 203.141,224.055 208.629,207.426 C210.859,200.57 213.086,198.512 223.371,193.195 C234,187.883 237.77,187.023 256.973,186.168 L278.402,185.141 L278.402,195.941 C278.402,201.77 279.43,210 280.461,213.941 C282.348,221.484 282.348,221.484 265.719,237.941 C256.461,246.855 247.203,254.055 245.488,253.883 C243.77,253.887 236.914,251.312 230.742,248.398"/>
  <path fill="rgb(100%, 49.019608%, 94.117647%)" opacity="0.982" d="M314.23,316.973 C314.23,316.457 316.801,309.945 320.23,302.23 C324.344,292.117 326.746,288.516 328.973,289.031 C334.457,289.719 333.773,293.145 326.23,304.801 C319.543,315.43 314.23,320.398 314.23,316.973"/>
  <path fill="rgb(100%, 52.156863%, 98.039216%)" opacity="0.987" d="M273.086,315.77 C266.914,311.312 266.23,299.312 271.543,294.168 C277.371,289.023 286.457,287.312 294.344,289.883 C306.688,293.824 307.715,307.539 296.23,314.398 C288.688,319.199 278.57,319.887 273.086,315.77"/>
  <path fill="rgb(96.862745%, 78.823529%, 0%)" d="M130.801,238.113 C129.945,237.258 126.516,235.883 124.285,235.715 C121.543,235.371 119.656,234 119.828,232.973 C119.828,230.742 123.258,230.23 132,231.43 C145.371,233.66 148.113,235.031 146.059,238.285 C145.199,241.027 135.086,240 130.801,238.113"/>
  <path fill="rgb(0%, 80.392157%, 88.235294%)" opacity="0.999" d="M144.516,200.398 C136.973,191.828 132.859,183.941 138.516,185.312 C140.402,185.484 159.773,205.711 159.43,206.742 C158.398,211.543 152.23,208.629 144.516,200.398"/>
  <path fill="rgb(0.392157%, 79.215686%, 79.215686%)" opacity="0.99" d="M88.113,248.398 C78.855,242.398 76.285,239.656 81.086,238.629 C83.316,238.457 101.145,250.113 100.801,252 C100.801,255.43 97.715,255.43 88.113,248.398"/>
  <path fill="rgb(1.176471%, 77.254902%, 88.627451%)" opacity="0.998" d="M273.77,261.602 C271.711,257.488 277.027,255.945 290.742,256.801 C299.141,257.488 304.113,258.516 304.457,260.57 C306,264.172 275.828,264.855 273.77,261.602"/>
  <path fill="rgb(100%, 48.627451%, 97.254902%)" opacity="0.982" d="M143.828,298.457 C121.371,286.973 125.484,260.398 148.113,268.285 C163.027,273.43 171.086,288.172 163.371,296.227 C159.77,300 149.484,301.371 143.828,298.457"/>
  <path fill="rgb(98.823529%, 0%, 93.333333%)" d="M349.371,271.887 C350.742,256.973 350.57,243.602 357.602,230.23 C362.914,219.945 362.914,216.688 358.117,196.629 C355.887,185.828 361.887,178.457 361.887,167.316 C361.887,159.258 358.801,152.402 354.172,145.887 C349.199,138.688 348.859,132.344 352.973,114.344 C356.059,101.316 348,85.543 339.43,76.113 C335.828,72.172 329.488,66.855 330.859,60.855 C341.832,62.57 352.117,71.656 359.145,79.711 C364.117,85.367 368.23,91.711 372.172,98.227 C375.43,103.539 379.715,107.656 382.801,112.797 C388.457,122.566 385.199,135.426 385.031,146.055 C385.031,175.199 384.859,204.34 384.859,233.656 C384.859,243.77 384.859,254.055 384.859,264.172 C384.859,274.113 380.746,282.688 377.66,291.773 C375.602,298.117 366.348,323.66 356.746,319.543 C343.199,313.887 348.516,282.688 349.371,271.887 Z"/>
  <path fill="rgb(95.686275%, 76.470588%, 0%)" d="M216.688,316.973 C216.344,313.715 233.316,298.629 236.918,298.801 C241.891,299.488 239.832,302.914 230.23,311.828 C219.602,320.23 216.688,321.43 216.688,316.973"/>
  <path fill="rgb(0%, 75.294118%, 82.352941%)" d="M191.828,327.602 C190.801,325.203 189.598,320.402 189.086,316.289 C188.398,311.832 187.371,306.004 187.027,302.918 C186.855,299.148 187.027,297.605 189.086,297.773 C192.516,297.43 198.855,326.746 196.457,329.145 C194.742,330.172 193.371,329.484 191.828,327.602"/>
  <path fill="rgb(88.235294%, 46.27451%, 1.568627%)" opacity="0.979" d="M382.629,276 C380.059,276.688 367.199,292.801 364.801,298.285 C364.629,302.914 363.43,307.715 361.887,312 C361.199,312.344 360.344,313.027 359.316,313.887 C357.258,315.945 351.258,320.23 346.117,322.973 C343.031,324.688 340.289,326.402 338.574,327.773 C337.031,327.773 334.117,328.629 330.688,330.344 C325.715,332.059 315.945,334.285 308.574,334.973 C280.973,338.402 278.059,339.945 267.262,348.688 C249.605,363.086 238.977,365.488 223.031,357.773 C213.773,353.66 203.145,353.145 193.375,354.516 C184.117,355.715 175.719,360 166.289,356.914 C157.031,353.828 149.832,346.457 143.145,339.43 C132.688,328.117 123.602,309.602 107.145,306.344 C92.746,302.914 85.715,294.172 76.629,283.199 C75.43,281.828 74.23,280.285 72.516,279.43 C70.801,278.574 68.574,278.742 67.371,280.285 C66.684,281.141 66.516,282.344 66.516,283.543 C66.172,290.23 68.746,296.742 72.344,302.398 C87.43,326.398 109.371,350.055 132.172,367.027 C144,375.941 156.859,380.57 171.258,382.969 C187.887,385.711 204.688,383.484 220.973,380.055 C235.715,376.797 250.285,370.453 265.543,370.285 C277.371,370.113 286.801,369.941 296.57,363.086 C306.684,356.059 319.543,351.602 327.426,341.656 C328.453,340.113 335.484,337.371 343.027,335.141 C355.371,331.371 356.914,330.34 371.484,317.656 L384.855,302.398 L384.855,289.543 C385.027,282 384.344,276.344 382.629,276 Z"/>
  <path fill="rgb(63.529412%, 37.254902%, 2.352941%)" d="M235.887,385.371 C225.43,385.371 214.973,388.457 205.371,382.973 C204.684,382.629 204.172,382.285 203.828,381.602 C202.629,379.543 205.027,377.145 207.258,376.117 C212.402,373.887 217.887,373.203 223.371,372.348 C235.027,370.633 246.172,367.035 258.172,367.891 C273.43,368.918 277.027,368.234 292.113,362.746 C306.855,357.09 323.141,347.316 328.629,340.461 C329.828,339.09 337.199,336.004 345.086,333.773 C358.457,329.66 360.172,328.461 374.23,313.375 L389.66,298.461 L389.832,304.633 C390.004,311.66 382.117,325.891 371.66,337.547 C366.004,344.234 357.43,349.891 333.945,362.746 C306.004,376.977 302.402,378.348 288.344,380.059 C279.602,381.086 271.371,382.801 269.488,384 C267.43,384.855 252.516,385.543 235.887,385.371 Z"/>
  <path fill="rgb(75.294118%, 39.607843%, 0%)" opacity="0.97" d="M388.629,83.312 C388.113,81.254 387.258,79.199 385.887,77.484 C379.887,69.598 370.801,65.484 363.086,59.828 C354.688,53.484 347.484,47.141 337.715,42.855 C327.773,38.398 316.801,36.34 307.199,31.371 C297.77,26.57 288.512,25.715 277.887,25.199 C267.43,24.684 257.656,22.285 247.199,23.141 C245.656,23.312 243.77,23.656 242.914,25.027 C242.059,26.398 242.914,28.285 244.113,29.312 C248.914,33.082 258.512,34.797 264.344,36.34 C274.113,39.082 284.23,40.797 294,43.027 C309.086,46.457 322.285,55.027 335.484,63.086 C343.027,67.715 348.34,75.086 354,81.773 C359.145,87.945 364.113,94.289 369.602,100.117 C372.859,103.719 378.344,113.832 384,113.316 C384.855,113.145 387.77,98.746 387.941,97.375 C388.973,92.914 389.656,87.941 388.629,83.312 Z M346.801,50.398 C346.973,50.57 346.973,50.57 347.145,50.742 C346.973,50.57 346.629,50.398 346.457,50.398 C346.629,50.398 346.629,50.398 346.801,50.398 Z"/>
  <path fill="rgb(0.392157%, 84.313725%, 81.568627%)" opacity="0.993" d="M162.855,144.344 C162.684,141.086 183.77,123.773 187.711,124.113 C193.367,125.828 189.426,131.828 178.797,138.855 C168.344,148.113 164.398,149.484 162.855,144.344"/>
  <path fill="rgb(98.823529%, 81.568627%, 0%)" d="M354.344,250.113 C345.602,245.312 343.715,243.258 346.629,240.172 C348.172,238.457 371.484,249.941 371.145,252.688 C370.801,256.113 364.457,255.258 354.344,250.113"/>
  <path fill="rgb(65.490196%, 38.039216%, 1.568627%)" opacity="0.991" d="M271.371,185.656 C271.715,183.086 271.199,180 270,176.57 C267.086,168 261.258,159.77 252.516,157.715 C237.945,154.457 222.859,154.629 208.117,158.742 C201.773,160.457 197.832,164.57 193.203,169.543 C179.145,184.973 173.488,206.57 180.859,226.457 C184.461,236.227 186.688,239.828 193.547,247.715 C200.234,253.027 206.402,256.801 212.234,258.688 C219.09,261.086 232.805,264.344 239.664,260.059 C243.777,257.316 243.777,250.117 239.492,247.543 C235.035,244.801 229.035,244.113 225.605,240.172 C223.719,238.113 222.863,235.199 222.176,232.457 C218.574,218.227 217.203,202.629 233.66,197.312 C242.918,194.398 251.145,192.168 260.918,192.684 C267.43,193.027 270.688,190.285 271.371,185.656 Z"/>
  <path fill="rgb(89.411765%, 61.176471%, 21.568627%)" opacity="0.947" d="M292.457,182.23 C292.285,180.344 292.113,178.801 291.77,178.117 C286.285,167.145 271.199,162.688 260.227,159.773 C253.539,157.887 250.285,157.031 247.711,163.887 C246.512,167.316 245.652,171.086 246.34,174.688 C247.367,179.316 250.797,182.918 254.91,185.316 C258.852,187.715 263.309,189.258 267.598,191.316 C277.539,196.117 273.254,205.547 275.656,213.945 C279.258,226.461 288.344,215.66 290.398,208.117 C292.629,199.887 293.145,190.457 292.457,182.23 Z"/>
</svg>

