<svg xmlns="http://www.w3.org/2000/svg" width="384" height="384" viewBox="0 0 384 384">
  <defs/>
  <path fill="rgb(0.784314%, 38.431373%, 22.352941%)" opacity="0.989" d="M1.199,326.398 C-0.859,324 -0.344,305.141 -0.344,252 L-0.172,181.543 L5.145,181.715 C14.23,183.258 15.43,189.945 21.602,194.742 C27.258,199.199 32.914,197.828 39.773,198.684 C49.543,199.883 57.086,208.113 66.516,210.34 C71.488,211.539 76.629,210.855 81.773,211.539 C98.059,213.254 97.543,231.77 116.402,232.109 C137.316,232.625 168.344,233.824 187.887,225.594 C203.316,219.078 222.516,204.336 235.543,193.535 C246.516,184.277 249.602,161.992 253.371,147.766 C254.914,142.109 255.77,136.453 257.484,130.793 C260.398,120.68 272.742,105.766 268.285,97.363 C263.656,88.277 252,83.992 247.715,73.535 C242.059,59.992 241.887,43.879 248.402,30.508 C250.461,26.223 253.375,21.938 257.488,19.535 C262.461,16.621 268.633,16.621 274.461,16.621 C295.375,16.965 319.203,10.449 334.805,28.105 L340.633,34.277 L350.062,31.191 C370.121,22.449 380.406,32.219 381.949,57.762 C380.922,75.074 379.719,76.789 356.922,79.191 C335.664,81.934 321.094,80.219 303.438,73.707 C297.953,70.277 292.125,68.395 292.637,69.078 C290.922,69.934 299.152,82.621 305.324,88.105 C321.609,101.305 339.266,108.336 359.496,106.621 C371.84,104.223 372.184,104.391 372.184,109.363 C372.699,116.391 366.527,125.477 360.871,126.676 C352.984,129.418 337.043,126.676 319.559,121.363 C310.988,118.277 303.617,115.707 303.273,115.707 C303.102,116.051 303.617,117.938 305.16,119.648 C310.988,129.59 314.93,142.793 315.445,161.648 L315.102,180.676 L324.359,183.934 C337.215,189.762 349.047,201.418 353.672,212.047 C359.844,228.332 360.359,239.816 350.758,267.074 C348.359,271.016 349.043,271.531 354.699,270.676 C364.469,269.82 373.727,272.562 377.156,277.531 C381.27,286.617 377.672,289.016 361.555,288.332 L348.184,288.504 L348.699,291.762 C353.844,309.418 352.129,319.191 343.727,319.875 C337.383,319.359 333.441,311.645 331.555,298.961 C331.383,293.816 330.699,289.359 331.039,288.676 C330.352,288.332 325.727,291.074 320.41,294.504 C309.609,302.391 303.438,303.246 301.039,296.734 C297.953,286.277 311.496,271.535 323.152,271.707 C326.754,272.051 326.754,269.648 328.98,255.594 C330.867,243.938 328.98,236.051 323.836,229.707 C319.723,224.906 306.691,217.191 305.148,218.051 C305.148,218.223 302.406,225.422 298.977,233.309 C277.719,268.965 247.891,299.48 206.062,309.422 C189.777,314.051 166.805,314.223 153.605,310.449 C148.805,308.051 136.977,305.137 127.547,306.336 C107.488,304.277 94.289,299.82 77.832,289.707 C61.375,279.938 48.348,269.648 33.262,253.707 L20.918,240.508 L15.434,243.766 C4.977,251.137 2.746,255.766 1.891,270.68 C2.062,278.051 3.777,284.223 4.805,285.766 C4.461,287.48 7.547,286.793 12.52,284.738 C22.977,281.824 30.176,284.223 32.234,291.254 C30.348,295.711 28.633,296.91 20.062,299.996 C14.75,301.367 9.605,303.426 8.578,304.109 C7.891,304.797 9.266,309.254 11.664,313.711 C14.062,318.512 14.406,324.168 13.035,326.738 C11.828,331.715 4.801,331.027 1.199,326.398"/>
  <path fill="rgb(36.078431%, 83.137255%, 87.058824%)" opacity="0.719" d="M26.914,153.086 C23.828,151.715 20.914,149.828 20.398,148.801 C19.711,147.945 17.656,146.742 15.77,146.914 C13.883,146.914 9.598,145.543 6.168,144.172 L0.168,141.086 L-0.859,66 L7.027,63.602 C23.141,58.801 39.426,64.629 49.199,78.859 C53.141,84.516 54.172,88.461 54.855,98.402 C55.543,106.461 56.57,111.09 58.113,112.117 C61.543,113.832 66,124.633 66,130.633 C66,134.234 67.027,135.605 69.086,135.605 C73.887,135.605 86.059,141.949 88.457,145.891 C92.914,152.578 89.145,153.605 59.828,154.461 C40.457,154.801 31.027,154.629 26.914,153.086"/>
  <path fill="rgb(97.254902%, 23.529412%, 0%)" opacity="0.986" d="M137.656,247.371 C136.113,239.484 129.258,234.172 121.199,234.172 C114,234.172 109.027,237.43 104.398,245.828 C102.684,248.742 102.34,248.57 99.426,243.43 C96.684,238.801 96.34,231.086 96.34,190.801 L96.855,144 L101.484,138.688 C104.055,135.773 108.684,132.344 112.285,131.832 C130.973,126.348 191.141,127.891 203.828,134.23 C215.656,140.23 216.344,141.43 216.516,191.832 C217.371,216.859 217.543,238.977 216.688,241.203 C215.66,243.262 212.918,245.832 210.516,246.859 C206.574,248.574 205.543,248.23 200.914,243.43 C193.027,234.516 181.199,236.059 175.887,246.344 L172.973,251.656 L156,251.484 C139.199,252 138.688,251.828 137.656,247.371"/>
  <path fill="rgb(1.960784%, 1.960784%, 2.352941%)" opacity="0.998" d="M222.344,146.059 C222.859,144.688 225.602,138.172 228.516,131.316 C233.828,115.715 232.973,105.602 226.629,96.172 C219.773,88.801 211.371,90.344 190.629,99.941 C181.543,104.914 172.973,107.828 170.742,105.426 C168,104.055 177.086,97.711 190.801,87.941 C215.656,70.797 220.801,66.34 217.543,60 C213.086,53.484 203.656,51.43 187.543,50.398 C170.57,51.941 169.715,50.742 181.887,43.027 C185.656,39.258 192.516,37.883 207.258,36.512 C228.516,35.824 234.344,33.77 233.828,26.91 C233.484,20.395 222.855,11.824 207.086,6.34 L191.656,0.34 L203.312,-1.031 C211.711,-1.719 218.914,-0.516 235.711,4.453 C259.367,10.969 266.738,14.566 275.824,23.141 C281.652,28.285 281.824,28.797 278.91,30.512 C271.367,35.141 261.766,30.168 256.797,39.082 C254.566,43.023 254.738,48.34 257.312,52.281 C259.371,55.539 263.312,58.797 261.77,62.395 C261.426,63.422 260.57,64.281 259.883,64.965 C253.539,72.508 255.082,84.336 262.797,90.336 L257.652,95.992 C250.625,103.535 243.254,114.68 234.168,133.535 C226.113,147.602 222.172,151.715 222.344,146.059"/>
  <path fill="rgb(96.862745%, 70.196078%, 65.098039%)" opacity="0.939" d="M336,104.914 C332.398,102.172 329.312,92.227 329.145,85.543 C329.145,75.258 350.402,81.602 354.859,85.715 C371.312,100.113 350.57,116.57 336,104.914 Z"/>
  <path fill="rgb(40%, 80%, 82.352941%)" opacity="0.853" d="M49.887,376.629 C49.199,372.172 49.031,362.398 49.543,355.027 C51.086,331.027 63.086,310.969 80.914,302.055 L90.172,297.254 L100.285,301.195 C106.801,303.766 116.57,305.309 128.742,306.34 C138.855,306.855 147.598,307.711 147.941,308.055 C148.113,308.398 151.199,312.684 154.457,317.141 C157.543,321.77 162,330.512 164.227,336.168 C166.625,343.023 168.855,346.453 170.398,345.938 C177.426,343.367 188.227,343.707 194.227,346.281 C203.312,350.566 206.914,368.223 204.855,377.309 C203.141,385.195 202.285,383.48 194.398,383.652 C178.285,383.996 162.34,383.824 146.227,383.824 C115.027,383.996 83.828,384.168 52.625,384.168 C52.109,384.168 51.598,384.168 51.082,384.168 L49.887,376.629"/>
  <path fill="rgb(0.784314%, 38.823529%, 80.784314%)" opacity="0.997" d="M168,195.77 C165.602,193.539 164.742,188.914 164.742,176.914 C164.57,157.543 165.43,156.684 183.258,156.855 C200.402,156.34 202.113,158.055 202.457,176.914 C202.457,196.973 201.258,198.344 184.113,198.172 C174.516,198.516 170.059,198 168,195.77"/>
  <path fill="rgb(1.176471%, 0.784314%, 1.176471%)" d="M114.516,262.973 C103.715,258.516 102.172,245.488 110.746,237.086 C115.891,232.629 117.602,231.941 123.262,232.801 C139.719,236.059 143.148,255.43 128.234,262.457 C122.57,265.543 120,265.543 114.516,262.973"/>
  <path fill="rgb(20.784314%, 21.960784%, 21.568627%)" opacity="0.977" d="M178.113,257.656 C173.141,252.172 172.801,252.172 153.086,251.656 L133.027,250.969 L153.086,250.453 L173.316,250.281 L176.402,244.453 C182.402,234.34 195.602,233.141 201.258,242.566 C202.973,245.137 205.199,247.711 206.23,248.566 C207.43,249.422 207.258,250.109 205.887,250.109 C204.688,250.109 203.488,251.824 203.488,253.711 C203.488,258.684 196.633,262.969 189.258,262.969 C184.629,263.145 181.543,261.602 178.113,257.656"/>
  <path fill="rgb(96.470588%, 9.803922%, 38.039216%)" opacity="0.984" d="M319.371,97.371 C313.371,93.77 306.344,88.629 303.941,86.57 C297.941,80.57 292.113,71.828 293.484,70.629 C294,70.113 298.457,71.316 303.426,73.543 C308.227,75.773 316.281,78.172 320.738,78.855 L329.137,80.398 L331.707,92.398 C333.766,100.797 333.938,104.57 332.395,104.398 C331.199,104.398 325.371,101.312 319.371,97.371"/>
  <path fill="rgb(37.254902%, 67.45098%, 80.392157%)" opacity="0.977" d="M199.715,378.172 C192.344,365.656 198.688,345.773 213.602,336.859 C225.945,329.145 243.258,336.688 247.543,351.43 C248.914,354.859 251.312,359.316 253.715,361.543 C258.688,366.172 260.402,372.855 258,379.027 L256.285,383.828 L230.055,384.172 L203.484,384.172 L199.715,378.172"/>
  <path fill="rgb(1.176471%, 58.431373%, 76.862745%)" opacity="0.999" d="M152.23,175.715 C152.059,157.887 136.117,149.656 119.488,155.145 C109.203,158.402 108.859,173.832 110.402,182.402 C112.973,196.801 120.688,196.461 133.887,196.461 C151.199,196.457 152.398,195.086 152.23,175.715 Z"/>
</svg>

