<svg xmlns="http://www.w3.org/2000/svg" width="384" height="384" viewBox="0 0 384 384">
  <defs/>
  <path fill="rgb(4.705882%, 3.137255%, 7.058824%)" opacity="0.998" d="M350.914,90.516 C350.059,72.172 349.199,70.285 344.57,61.887 C339.598,54.859 339.086,52.973 341.141,50.574 C343.027,48.176 342.684,47.66 339.77,45.602 C336.684,43.031 336.855,42.859 341.312,42.688 C346.113,42.688 347.656,41.488 352.285,34.801 C354.344,32.059 355.199,33.086 362.57,43.715 C370.285,54.344 371.484,56.57 373.027,68.23 C373.371,79.031 372.684,82.117 368.742,91.375 C364.801,99.434 354.344,110.23 350.57,110.402 C350.23,110.059 349.715,101.312 350.914,90.516"/>
  <path fill="rgb(90.980392%, 0%, 92.156863%)" opacity="0.986" d="M83.312,380.914 C89.312,358.629 92.742,335.484 94.457,312.516 C95.656,296.23 93.602,276.344 107.656,264.859 C121.199,253.715 134.227,241.375 146.742,229.031 C155.312,220.461 170.742,209.488 175.715,198.004 C177.258,194.574 135.945,172.805 131.484,170.746 C122.227,166.289 112.285,163.203 102,161.488 C91.371,159.773 81.941,161.832 71.484,161.145 C66.34,160.801 61.027,158.914 57.598,155.145 C55.027,152.402 53.484,148.801 50.57,146.574 C43.883,141.43 16.629,153.43 20.055,139.031 C22.797,127.203 35.312,121.203 46.453,116.574 C58.625,111.602 70.797,106.633 82.797,101.66 C107.312,91.719 131.996,81.602 157.883,76.633 C183.77,71.66 211.539,72.004 235.883,82.633 C260.227,93.262 280.453,114.863 284.738,140.918 C286.109,148.977 285.938,157.203 288.852,164.746 C291.766,172.289 299.137,179.145 307.023,177.945 C316.109,176.574 320.91,165.945 320.91,156.688 C320.738,141.602 312.512,127.715 303.082,115.887 C293.652,104.059 282.852,93.086 276.34,79.371 C268.797,63.77 267.77,44.914 274.625,28.973 C281.48,13.031 296.91,0.859 314.227,-1.027 C325.883,-2.227 338.398,1.371 346.285,10.117 C354.172,18.859 356.227,32.746 349.887,42.688 C346.973,47.145 342.172,50.746 336.859,50.574 C334.461,50.574 332.23,49.719 330.004,48.688 C321.945,44.918 315.434,38.23 311.488,30.344 C310.801,28.801 309.945,26.914 308.23,26.23 C306.344,25.375 304.289,26.23 302.746,27.43 C295.891,32.059 292.633,40.801 292.977,49.199 C293.32,57.598 296.578,65.312 300.691,72.512 C308.578,86.57 319.207,98.91 328.633,112.113 C338.062,125.312 346.289,139.715 348.52,155.828 C350.75,171.77 345.949,189.598 333.09,199.371 C317.832,210.855 296.574,208.629 277.891,204.684 C260.578,200.914 239.32,195.426 221.66,202.625 C210.516,207.082 211.203,223.539 210.004,233.824 C207.945,250.281 206.746,266.91 206.574,283.539 C206.23,317.48 209.832,351.254 217.375,384.34 C212.918,388.625 205.031,385.367 202.117,379.883 C199.203,374.398 199.719,368.055 199.719,361.883 C199.891,337.367 183.09,312.512 188.062,287.824 C190.977,273.426 193.035,258.852 194.234,244.109 C194.75,236.738 195.262,229.367 195.434,221.996 C195.605,214.109 197.664,209.996 188.918,209.48 C181.547,209.652 180.859,209.996 153.09,238.625 C111.434,281.48 110.402,284.738 99.262,360.168 L94.117,385.711 C94.117,385.711 88.117,385.711 88.117,385.711 C85.199,385.543 82.801,385.027 83.312,380.914"/>
  <path fill="rgb(7.058824%, 1.568627%, 0.784314%)" opacity="0.999" d="M332.398,24.344 C331.199,22.113 331.371,19.543 332.914,18.688 C334.457,17.316 337.027,18.344 338.227,20.746 C339.598,22.805 339.082,25.375 337.539,26.402 C336.172,27.602 333.602,26.57 332.398,24.344"/>
  <path fill="rgb(53.333333%, 82.745098%, 80.784314%)" opacity="0.656" d="M301.887,355.199 C302.059,344.742 301.199,334.285 301.543,323.828 C301.715,320.57 301.027,311.656 303.258,308.914 C309.945,301.027 328.973,305.312 337.543,305.656 C352.973,306.172 368.57,306.172 384,306 C384.172,306 384,377.656 383.828,385.199 L301.371,384.684 L301.887,355.199"/>
</svg>

