<svg xmlns="http://www.w3.org/2000/svg" width="384" height="384" viewBox="0 0 384 384">
  <defs/>
  <path fill="rgb(69.411765%, 10.980392%, 0.392157%)" opacity="0.99" d="M327.086,192.855 C313.715,180.684 315.941,165.941 315.258,149.828 C314.742,137.828 314.57,125.828 313.371,114 C311.656,97.199 301.027,75.941 309.258,59.656 C313.027,52.285 325.199,49.199 331.887,44.742 C338.742,40.285 346.457,40.285 354,43.371 C360.516,46.113 362.914,53.656 366.516,59.141 C374.746,71.656 383.145,85.027 385.203,100.113 C387.773,118.801 384.348,140.742 382.633,159.426 C381.777,168.34 381.262,177.77 377.832,186.168 C369.602,205.543 340.973,205.543 327.086,192.855 Z"/>
  <path fill="rgb(0.392157%, 0%, 1.568627%)" opacity="0.992" d="M93.941,233.828 C85.883,226.629 97.027,216.684 108,220.973 C114.855,223.715 115.715,228.859 110.059,233.828 C104.742,238.285 98.398,238.285 93.941,233.828"/>
  <path fill="rgb(85.490196%, 15.294118%, 0%)" opacity="0.989" d="M123.602,296.57 C120.344,299.312 117.086,301.715 112.973,298.113 C103.715,289.715 92.402,273.77 92.914,260.57 C93.258,254.57 93.941,252.684 95.484,251.312 C100.629,252 116.055,244.113 124.969,235.371 C136.797,223.543 153.598,221.484 162.168,206.398 C163.195,204.684 163.883,202.629 163.195,200.914 C162.68,199.887 161.652,199.027 160.625,198.516 C144.168,188.574 129.426,194.402 117.938,209.316 C109.879,219.773 106.793,221.488 99.422,221.316 C92.395,222.688 91.363,222.004 87.25,217.547 C86.223,214.289 80.906,208.117 76.621,203.488 C68.734,197.145 66.508,196.289 60.336,195.945 C56.734,195.945 52.965,197.145 49.707,198.344 C45.766,199.887 41.137,204 37.191,204.688 C27.59,206.574 29.133,192.344 29.305,187.031 C29.648,177.43 29.82,167.66 29.82,158.059 C29.82,146.914 30.336,135.602 31.363,124.457 C31.707,120.855 31.02,116.398 32.906,112.973 C33.422,111.945 34.449,111.258 35.477,111.086 C36.164,111.086 36.676,111.258 37.191,111.43 C47.82,115.199 58.961,112.629 69.934,113.488 C79.191,114.176 87.078,121.719 96.332,120.688 C104.562,119.832 111.59,114.344 119.645,112.973 C132.672,110.574 145.703,110.914 158.73,110.059 C163.359,109.887 163.359,112.457 164.043,116.23 C166.441,128.402 166.785,141.773 166.785,154.289 C165.758,168.52 165.414,180.004 165.586,180.348 C166.785,179.832 171.93,178.461 177.07,176.578 C197.469,171.605 209.469,170.234 225.07,174.18 C234.156,175.379 242.383,176.75 243.586,178.637 C245.301,180.008 250.785,186.008 255.586,192.695 C260.559,198.867 266.043,205.039 267.93,206.754 C272.73,211.555 275.129,220.812 275.301,227.496 C275.473,234.523 271.871,240.523 270.328,247.039 C268.441,255.438 269.984,265.895 265.184,273.27 C260.555,280.297 253.355,277.555 246.668,276.012 C236.727,273.613 226.781,271.727 216.496,271.555 C200.727,271.383 185.809,278.07 170.555,280.984 C160.785,282.871 150.84,283.898 141.242,286.984 C136.613,288.527 132.156,290.414 128.043,293.156 C126.344,294 124.973,295.199 123.602,296.57 Z"/>
  <path fill="rgb(0%, 0%, 1.568627%)" d="M15.43,321.941 C14.742,321.254 13.887,316.457 13.887,311.484 C13.715,302.57 19.371,296.227 26.23,291.086 C32.918,286.113 39.602,280.629 47.316,277.199 C57.086,272.742 68.059,273.598 78.516,273.77 C87.602,273.941 99.43,270.34 107.66,274.969 C115.203,279.426 115.031,289.199 113.66,296.91 C113.316,299.141 112.633,301.539 111.262,303.426 C108.52,307.195 104.574,305.824 100.633,306.168 C92.062,306.855 84.348,302.398 76.117,301.195 C68.23,299.996 58.633,302.223 51.09,304.625 C44.062,306.855 40.117,311.312 34.117,315.254 C30.688,317.828 19.371,327.258 15.43,321.941"/>
  <path fill="rgb(90.980392%, 15.294118%, 0%)" opacity="0.977" d="M302.398,54.516 C302.742,50.402 302.914,46.285 303.254,42.172 C303.598,37.715 303.941,32.914 307.023,29.656 C313.023,23.312 327.766,27.598 335.48,29.828 C343.195,32.227 360.168,36.344 356.738,47.484 C351.082,65.484 329.652,70.629 317.137,82.113 C312.68,86.227 307.023,87.941 305.48,80.398 C303.77,71.828 301.887,63.086 302.398,54.516 Z"/>
  <path fill="rgb(1.176471%, 0.392157%, 2.352941%)" opacity="0.987" d="M62.914,190.285 C57.941,184.973 57.602,182.57 63.43,178.973 C67.371,176.059 68.914,176.23 73.715,177.945 C78.688,180.004 84.344,186.344 82.457,187.715 C72.172,195.602 68.57,196.113 62.914,190.285"/>
  <path fill="rgb(1.568627%, 0%, 1.568627%)" opacity="0.987" d="M118.629,190.285 C114,187.027 115.543,181.027 121.887,177.77 C132.859,172.457 142.457,181.027 135.43,189.082 C131.484,193.371 123.602,194.059 118.629,190.285"/>
  <path fill="rgb(1.960784%, 0.784314%, 2.352941%)" d="M36.516,111.941 C36.172,109.711 35.66,107.656 35.145,105.426 C34.117,100.453 32.059,94.969 33.602,89.996 C34.457,86.91 36.859,86.566 39.602,86.227 C47.488,85.371 55.543,90.684 61.371,95.312 C68.398,100.969 73.887,108.512 76.285,117.254 C78,123.77 70.457,126.168 65.828,128.566 C62.227,130.453 58.801,132.508 55.543,135.082 C52.973,137.141 49.715,142.109 46.113,142.109 C44.227,142.109 42.684,141.082 41.484,139.539 C38.398,135.426 38.914,129.77 38.398,124.969 C37.887,120.688 37.371,116.23 36.516,111.941 Z"/>
  <path fill="rgb(1.960784%, 0.392157%, 1.568627%)" d="M158.059,128.57 C158.23,132.684 157.715,136.969 157.203,141.086 C156.859,144 157.031,147.773 153.434,147.258 C149.492,146.57 145.035,143.488 141.434,141.602 C137.492,139.543 133.719,137.316 130.121,134.914 C126.52,132.684 122.406,129.941 120.18,126.172 C118.293,122.742 119.836,119.316 120.352,115.715 C121.551,107.145 127.895,101.145 134.582,96.344 C139.383,92.742 150.695,84.344 157.211,87.602 C160.297,88.629 160.641,90 160.469,96.344 C160.113,106.973 157.715,117.43 158.059,128.57 Z"/>
  <path fill="rgb(41.176471%, 5.490196%, 1.176471%)" d="M283.543,244.113 C278.914,242.742 271.543,241.199 270.855,235.371 C270.512,233.141 271.199,230.914 271.199,228.684 C271.543,221.484 267.77,214.797 266.055,207.77 C265.883,206.914 265.711,206.055 265.883,205.199 C266.738,202.113 274.453,200.57 277.027,199.371 C288,193.715 298.285,186.684 307.199,177.941 C310.457,174.684 313.543,168.855 317.484,166.285 C323.312,162.516 330.855,164.398 337.199,163.027 C348,160.629 358.629,157.883 369.598,155.828 C372.512,155.312 381.082,152.059 383.828,153.941 C388.285,157.199 384.516,168.34 383.141,172.113 C379.539,182.227 374.91,192.172 370.453,201.941 C366.852,209.828 363.082,217.711 357.426,224.227 C350.227,232.625 340.113,237.941 329.484,241.371 C315.77,245.656 297.258,251.145 283.543,244.113"/>
  <path fill="rgb(0.392157%, 0%, 1.568627%)" d="M234,361.715 C231.43,357.43 231.602,347.484 234.516,337.027 C236.574,331.715 237.945,322.457 237.945,316.629 C238.117,304.629 234.859,298.457 224.918,294.344 C217.375,290.23 204.52,279.945 201.945,275.316 C200.23,272.23 203.145,270.516 204.176,268.117 C205.547,265.203 205.031,262.461 209.32,261.773 C214.977,260.746 220.805,262.801 226.293,264.859 C238.293,269.316 250.293,273.773 262.293,278.059 C269.836,280.629 268.637,288.688 268.637,295.715 C268.809,321.773 259.207,349.027 246.008,359.656 C238.629,365.484 235.371,366 234,361.715"/>
  <path fill="rgb(0.784314%, 0.392157%, 1.960784%)" d="M101.656,362.57 C100.801,362.227 100.285,358.801 99.77,355.371 C100.113,349.027 99.941,348.172 107.141,346.457 C121.539,345.258 127.371,333.43 126.855,307.371 C126.34,300.855 124.625,291.941 130.113,287.141 C134.914,282.855 166.285,271.883 162,284.91 C160.973,287.48 158.57,297.598 156.688,307.711 C149.832,336.855 138,357.082 124.117,362.398 C117.258,364.629 103.199,365.145 101.656,362.57"/>
</svg>

