<svg xmlns="http://www.w3.org/2000/svg" width="384" height="384" viewBox="0 0 384 384">
  <defs/>
  <path fill="rgb(65.098039%, 91.764706%, 0.784314%)" opacity="0.982" d="M87.941,292.457 C67.199,286.973 45.77,267.941 35.656,245.828 C15.086,201.086 26.227,145.199 66.172,93.43 C86.57,67.371 129.258,27.086 163.199,2.742 L172.969,-4.113 L255.254,-3.086 L255.941,0.855 C256.285,3.254 256.969,17.312 257.312,32.398 C258.168,58.797 257.828,60.512 253.027,74.398 C248.742,86.914 248.227,92.055 247.883,112.457 C246.34,166.113 235.367,203.145 209.824,239.312 C198.512,255.082 187.883,264.512 176.223,269.828 C170.738,272.059 161.992,276.684 156.164,280.113 C150.508,283.543 140.395,288 134.223,289.715 C121.199,294 97.371,295.027 87.941,292.457"/>
  <path fill="rgb(34.117647%, 78.431373%, 20.392157%)" opacity="0.978" d="M162.344,378.688 C158.574,371.488 159.086,361.031 163.371,355.375 C169.027,348.176 190.973,338.746 202.285,338.574 L211.715,339.09 L211.715,331.547 C211.887,322.977 216,316.461 224.23,312.004 C231.086,308.574 249.945,302.746 254.574,302.746 C257.66,302.918 259.031,301.203 260.23,295.891 C262.461,288.176 271.543,279.434 279.602,277.719 C282.516,277.031 290.23,277.547 296.914,278.574 C308.227,281.145 309.43,280.805 312.855,277.375 C319.711,271.375 324,270.004 336.168,270.004 C349.539,270.176 360.512,274.289 365.141,280.805 C368.57,285.777 368.742,298.289 365.312,304.805 C362.57,310.289 353.141,318.691 349.883,318.691 C348.684,318.52 346.113,320.234 344.398,322.121 C341.484,325.379 341.484,326.062 343.883,337.379 C345.77,344.066 346.797,351.266 346.797,353.492 C346.969,359.664 340.797,368.75 335.996,369.949 C331.195,371.148 317.996,368.062 316.453,365.492 C315.938,364.465 314.395,363.777 313.367,363.777 C311.996,363.777 311.309,367.207 311.48,373.547 L311.309,383.832 L268.453,384.176 C242.055,384.176 216.168,384.348 189.938,384.004 L165.25,384.004 L162.344,378.688"/>
  <path fill="rgb(0%, 58.039216%, 0.392157%)" d="M131.828,312.688 C121.715,310.629 108.344,304.289 103.887,299.488 L99.773,295.031 L111.773,293.832 C127.715,292.633 142.289,288.004 154.629,280.289 C160.285,276.688 169.715,271.547 175.199,268.977 C181.199,266.578 189.086,261.09 193.199,256.805 C201.43,248.746 216.344,226.977 223.371,212.574 C236.57,186.344 244.285,149.832 244.113,111.262 C243.941,92.062 244.801,86.918 248.398,76.633 C253.199,63.262 253.371,58.117 250.629,21.605 L249.773,-2.223 L260.059,-1.535 C269.66,-1.02 270,-0.508 276.172,7.551 C289.715,25.035 295.887,55.551 297.086,106.121 C296.23,144.18 294.516,155.492 284.57,191.148 C267.086,248.578 242.57,283.719 206.398,300.863 C181.199,312.344 152.742,316.973 131.828,312.688"/>
  <path fill="rgb(35.686275%, 10.196078%, 3.137255%)" opacity="0.991" d="M117.258,221.312 C98.742,217.027 84.688,205.711 77.488,189.254 C72.344,178.109 72.516,158.91 77.488,145.195 C91.203,109.539 138.344,77.652 174.516,79.539 L184.457,80.055 L190.113,93.082 C204.172,125.652 207.77,158.055 199.715,178.797 C194.23,192.855 178.801,209.312 165.086,215.652 C147.602,223.715 133.371,225.43 117.258,221.312"/>
  <path fill="rgb(13.72549%, 73.333333%, 5.490196%)" opacity="0.984" d="M307.543,342.516 C307.371,340.117 315.941,327.945 317.312,327.945 C318,327.945 319.711,330.344 321.082,333.09 C322.969,337.031 322.969,339.09 321.082,340.977 C318.855,343.715 307.543,344.914 307.543,342.516"/>
  <path fill="rgb(15.686275%, 74.509804%, 10.588235%)" d="M207.258,378 C201.945,374.059 196.801,370.801 196.285,370.457 C195.43,370.457 192.855,368.914 190.285,367.371 L185.484,364.285 L195.254,361.371 C200.738,359.656 208.797,358.457 213.426,358.629 L221.484,358.801 L224.227,368.402 C225.77,373.715 227.141,379.887 227.141,381.945 C226.973,387.941 218.57,386.398 207.258,378"/>
  <path fill="rgb(51.764706%, 30.980392%, 13.333333%)" opacity="0.979" d="M95.656,172.801 C87.941,169.199 83.828,163.887 82.801,155.656 C81.43,145.715 85.371,139.199 99.602,127.715 C115.031,115.027 123.258,111.43 129.602,114.688 C134.059,116.746 134.059,116.746 132.516,137.832 C130.457,166.289 128.402,171.945 119.488,174.176 C110.059,176.398 102.516,176.059 95.656,172.801"/>
</svg>

