<svg xmlns="http://www.w3.org/2000/svg" width="384" height="384" viewBox="0 0 384 384">
  <defs/>
  <path fill="rgb(97.647059%, 54.117647%, 0.392157%)" opacity="0.99" d="M115.887,383.828 C109.031,384 100.973,386.57 94.457,383.656 C87.086,380.398 82.629,372.855 80.398,365.656 C73.711,345.086 75.77,321.258 86.055,302.227 C93.254,289.027 99.77,275.484 105.426,261.426 C117.426,231.77 127.027,201.77 137.141,171.254 C140.227,161.824 145.199,153.082 150.168,144.34 C153.77,137.824 161.824,127.883 159.598,119.824 C158.398,115.883 154.625,112.969 150.512,112.109 C142.969,110.395 134.91,113.48 127.367,111.082 C118.281,108.34 111.254,101.141 105.082,94.281 C94.453,82.625 88.625,69.766 88.109,59.652 L88.625,52.965 L98.395,52.449 C109.707,52.449 132.68,55.363 140.223,57.25 C142.965,58.277 148.793,61.879 152.395,65.309 C159.938,74.395 166.109,78.68 172.109,78.508 C179.652,78.164 185.309,73.023 190.965,68.566 C191.652,68.051 192.336,67.539 193.023,67.711 C193.879,67.883 194.395,68.566 194.738,69.254 C196.797,73.195 197.309,80.91 202.109,82.625 C203.996,83.312 205.879,83.141 207.766,82.969 C214.965,82.453 222.164,80.91 229.367,81.082 C249.938,81.426 259.883,100.797 272.91,113.48 C281.141,121.539 283.883,130.625 283.539,141.938 C283.367,148.109 283.539,155.137 286.969,160.625 C290.055,165.598 296.227,167.652 298.969,172.969 C301.199,177.082 300.512,182.055 298.453,186.34 C293.309,196.453 281.48,205.539 269.996,205.883 C259.711,206.055 249.254,205.711 239.141,204.34 C229.711,202.969 218.398,194.91 210.855,204.855 C207.254,209.656 206.398,215.828 205.711,221.656 C200.055,264 186.34,304.457 181.023,346.629 C178.793,364.285 168.68,375.43 151.367,380.398 C139.199,384.172 128.059,383.656 115.887,383.828 Z"/>
  <path fill="rgb(1.960784%, 0.392157%, 1.176471%)" d="M197.828,126.516 C199.027,129.086 202.113,129.602 206.914,129.945 C216.172,130.973 225.602,131.832 234.855,132.516 C239.828,132.859 252.168,135.945 256.457,131.488 C265.199,122.402 244.801,103.031 236.398,101.488 C225.941,99.773 214.457,99.43 205.883,106.801 C201.77,110.23 198.168,114.859 197.484,120.344 C196.973,123.258 197.145,125.312 197.828,126.516 Z"/>
  <path fill="rgb(54.509804%, 15.686275%, 1.176471%)" opacity="0.995" d="M337.027,233.145 C351.086,240.859 370.285,231.258 372,215.145 C373.199,204.688 367.199,194.746 364.285,184.629 C362.742,179.145 361.887,172.973 358.113,168.516 C355.027,164.914 350.57,162.859 346.457,160.457 C331.371,151.543 320.914,135.43 319.027,118.113 C318,108 319.199,96.512 312.34,89.141 C306.34,82.625 296.227,81.598 289.539,75.77 C283.883,70.797 281.48,62.57 275.141,58.285 C268.113,53.484 258.855,55.199 250.453,56.57 C242.055,57.941 232.453,58.629 226.281,52.801 C222.34,48.859 220.969,43.031 218.738,37.887 C216.508,32.742 211.883,27.602 206.223,28.285 C200.566,28.973 197.48,35.141 195.938,40.629 C192.68,52.629 192.508,65.316 195.422,77.316 C195.938,79.547 196.621,81.773 198.336,83.316 C201.422,86.059 206.051,85.203 209.992,84.516 C224.223,82.457 239.137,85.715 250.965,93.602 C262.793,101.488 271.879,114 275.309,127.887 C279.594,144.688 276.508,163.371 283.879,179.145 C287.82,187.715 295.191,192.859 300.508,200.402 C310.109,213.945 314.566,223.375 330.508,230.574"/>
  <path fill="rgb(54.117647%, 18.431373%, 2.352941%)" opacity="0.999" d="M240.172,180.855 C230.57,179.828 226.973,177.77 224.059,170.398 C222.172,166.113 222,163.883 223.715,159.426 C227.656,149.141 239.828,149.656 251.316,160.797 C257.66,166.797 258.516,168.684 258.172,174.684 C257.484,182.398 255.602,183.086 240.172,180.855"/>
  <path fill="rgb(49.803922%, 15.686275%, 1.960784%)" opacity="0.996" d="M193.887,193.027 C183.945,185.656 176.914,158.914 182.914,151.715 C186.172,147.602 192.684,147.773 196.113,151.543 C200.227,156.172 202.969,167.312 203.312,180.516 C203.312,194.914 200.742,198.344 193.887,193.027"/>
  <path fill="rgb(0.392157%, 0%, 0.392157%)" d="M46.801,383.828 C45.945,382.629 49.371,375.086 55.031,367.371 C59.832,358.801 67.375,345.086 71.488,336.684 C75.602,327.77 79.719,320.57 80.918,320.227 C81.605,320.742 85.891,323.484 89.832,327.254 C102.52,339.77 104.574,356.91 96.176,376.797 L92.062,385.195 L70.121,385.711 C57.602,385.715 47.484,385.027 46.801,383.828"/>
  <path fill="rgb(0.392157%, 0%, 0%)" d="M113.484,383.656 C112.969,383.141 112.285,377.141 111.941,370.457 C111.77,355.543 116.227,346.113 125.828,339.941 C152.398,321.77 183.598,346.629 175.027,379.711 L174,384.168 L144,384.684 C128.059,384.688 114.172,384.344 113.484,383.656"/>
  <path fill="rgb(0.784314%, 0%, 0.784314%)" d="M178.285,318.516 C169.543,314.23 161.141,304.285 158.914,294.688 C154.629,277.543 157.715,260.23 166.113,256.117 C171.086,253.887 185.828,257.66 192.512,263.145 L196.797,266.059 L190.969,293.66 C187.711,308.746 185.141,321.43 184.969,321.773 C185.145,321.602 182.059,320.398 178.285,318.516"/>
  <path fill="rgb(0.392157%, 0%, 0.392157%)" d="M95.656,315.77 C83.312,309.598 83.484,310.113 94.285,285.254 C99.258,272.566 105.43,256.969 107.484,250.109 C111.086,238.453 111.426,237.594 116.227,239.652 C132.512,243.766 143.996,260.91 144.512,281.824 C143.824,292.281 142.969,295.883 139.027,302.738 C132.684,312.852 124.457,318.168 112.113,319.195 C105.258,319.715 101.312,319.027 95.656,315.77"/>
  <path fill="rgb(0.784314%, 0%, 0.784314%)" d="M179.484,246.172 C177.598,245.316 173.656,242.742 171.086,240.172 C167.145,236.742 166.113,233.656 166.457,226.629 C166.113,214.457 170.57,207.602 180,206.23 C188.23,205.887 208.113,211.031 208.285,213.602 C207.941,219.945 201.941,244.629 200.57,246.344 C197.145,247.715 184.457,248.059 179.484,246.172"/>
  <path fill="rgb(0.392157%, 0.392157%, 0.784314%)" d="M121.027,227.145 C118.797,226.289 116.914,224.914 116.914,224.574 C117.086,223.203 135.086,176.23 135.77,175.375 C137.656,174.004 158.57,181.891 160.285,184.805 C164.398,192.863 156.344,217.203 147.086,224.918 C142.801,227.832 139.715,229.203 133.199,229.031 C128.914,228.855 123.258,228.172 121.027,227.145"/>
  <path fill="rgb(1.960784%, 0.392157%, 1.176471%)" d="M145.543,162.688 C141.43,161.316 141.941,160.629 152.059,137.145 C161.488,114 163.371,112.457 168.859,123.602 C174.688,135.086 172.461,151.371 163.887,158.746 C160.113,162.172 149.145,164.398 145.543,162.688"/>
  <path fill="rgb(0.392157%, 0.392157%, 0.784314%)" opacity="0.996" d="M138.516,104.57 C125.488,101.312 116.402,92.398 104.059,70.629 L98.746,62.23 L115.203,63.086 C124.289,63.773 133.719,64.973 136.633,65.656 C144.004,68.742 179.148,104.742 175.891,105.77 C171.086,107.656 147.77,106.973 138.516,104.57"/>
  <path fill="rgb(0.392157%, 0.784314%, 1.176471%)" d="M280.801,21.086 C280.629,25.543 278.23,29.828 272.059,32.23 C260.574,36.859 243.773,30.516 246,16.117 C247.371,7.719 254.57,4.289 262.457,3.945 C272.398,3.258 280.973,12.516 280.801,21.086 Z"/>
  <path fill="rgb(1.176471%, 0.784314%, 0.784314%)" d="M202.629,32.57 C198.516,35.141 197.484,36 194.059,35.141 C188.914,33.941 184.629,29.484 181.543,25.371 C178.285,20.914 178.113,20.059 182.398,14.398 C185.828,9.77 191.828,6 197.656,5.312 C200.742,4.969 211.887,3.77 213.941,6.168 C216,8.566 215.656,29.312 212.227,29.312 C210.855,29.484 206.57,30.688 202.629,32.57 Z"/>
  <path fill="rgb(69.803922%, 18.431373%, 0%)" opacity="0.967" d="M264,57.941 C261.43,55.027 256.629,30.684 258.344,28.969 C259.031,28.281 262.801,28.453 267.086,29.656 C274.113,31.199 275.316,32.055 279.258,42.172 C281.656,48.516 283.199,54.859 282.344,56.57 C280.973,60.855 268.285,61.887 264,57.941"/>
  <path fill="rgb(97.254902%, 56.078431%, 0%)" opacity="0.947" d="M311.312,114.516 C309.254,107.145 311.312,96 315.941,89.828 C322.457,81.77 323.141,87.086 317.656,104.227 C313.543,118.801 312.516,119.656 311.312,114.516"/>
  <path fill="rgb(0.392157%, 0%, 1.176471%)" opacity="0.994" d="M323.656,181.543 C314.398,172.801 313.199,170.398 315.258,168.688 C323.145,163.715 336,169.887 340.457,181.203 C346.113,195.258 338.742,195.43 323.656,181.543"/>
</svg>

