<svg xmlns="http://www.w3.org/2000/svg" width="384" height="384" viewBox="0 0 384 384">
  <defs/>
  <path fill="rgb(5.490196%, 82.745098%, 87.058824%)" opacity="0.915" d="M218.57,-1.199 C241.715,-1.199 265.027,-1.027 288.172,-0.684 C309.258,-0.34 330.344,-1.199 351.602,-0.855 C351.602,-0.855 384.516,-0.168 384.516,-0.168 C384.516,-0.168 384.516,58.805 384.516,58.805 C384.516,75.434 384.859,91.891 384.172,108.52 C383.656,118.289 385.371,128.406 381.602,137.832 C368.914,170.23 322.117,172.117 290.914,171.945 C254.742,171.773 218.059,172.461 182.398,166.973 C154.285,162.859 127.027,155.145 99.086,150.172 C79.543,146.742 59.484,146.059 39.941,142.973 C32.742,141.945 0.684,139.715 0.34,130.117 C0,114.516 -1.371,98.57 -1.027,82.629 C-0.684,67.543 1.371,52.629 1.371,37.543 C1.543,26.57 1.543,15.43 0.516,4.457 C0,-0.855 1.371,-4.285 8.23,-4.113 C45.945,-2.742 83.832,-0.172 121.543,-0.684 C153.941,-1.027 186.344,-1.199 218.57,-1.199 Z"/>
  <path fill="rgb(72.941176%, 56.862745%, 23.529412%)" opacity="0.921" d="M303.086,320.57 C299.656,320.227 296.742,318.855 296.57,317.828 C296.227,316.629 295.543,307.199 295.543,296.914 L294,277.887 L315.77,278.23 C327.426,278.918 340.969,279.773 345.941,280.117 L354.684,281.145 L355.199,299.832 L355.199,318.859 L339.941,319.203 C331.543,318.859 321.254,319.719 316.797,320.574 C312.344,320.742 306.172,321.086 303.086,320.57"/>
  <path fill="rgb(1.176471%, 3.137255%, 21.960784%)" opacity="0.995" d="M100.457,333.086 C97.887,331.543 93.941,330.172 92.227,329.316 C89.656,324.516 87.598,319.031 85.539,314.059 C83.996,310.457 75.938,296.402 79.367,293.145 C80.223,292.289 81.426,292.117 82.625,291.945 C86.566,291.602 90.34,293.145 93.598,295.375 C98.398,298.461 101.828,300.859 107.141,302.746 C112.625,304.633 118.113,306.348 123.77,307.375 C130.457,308.574 137.484,308.746 144.34,308.918 C151.195,309.09 158.227,309.262 165.082,308.746 C172.281,308.402 178.969,306.516 185.996,305.316 C188.91,304.801 191.996,303.43 195.082,303.602 C199.195,303.773 199.711,308.059 200.395,311.66 C200.738,313.203 200.91,314.918 200.738,316.461 C200.395,319.719 198.508,322.805 196.109,324.859 C190.109,330.004 181.539,330.859 173.824,331.715 C146.742,334.457 106.285,335.312 100.457,333.086"/>
  <path fill="rgb(98.823529%, 26.666667%, 23.921569%)" opacity="0.997" d="M161.145,68.398 C155.832,67.883 151.375,66.684 151.715,65.656 C151.715,65.141 151.199,62.742 150.516,60.684 C149.316,58.113 151.371,58.113 176.914,58.797 C192.172,59.996 205.027,59.484 205.199,59.484 C205.543,61.027 205.027,63.086 203.828,64.797 C202.285,68.738 200.742,69.598 186.684,69.77 C177.77,68.742 166.457,68.398 161.145,68.398"/>
  <path fill="rgb(67.058824%, 65.490196%, 65.882353%)" opacity="0.954" d="M259.715,89.312 C260.059,75.426 260.57,62.055 259.543,48.168 C259.371,46.625 259.371,44.91 260.23,43.539 C262.973,39.598 276.859,44.227 280.629,44.738 C283.371,45.254 286.457,45.766 288.344,47.824 C290.914,50.566 290.742,55.195 288.688,58.453 C283.203,67.367 279.258,66.34 289.203,74.566 C296.918,80.91 297.09,92.395 295.891,102.336 C295.375,106.449 294.691,110.566 294.004,114.852 C293.66,116.91 293.148,118.965 292.117,120.68 C290.23,123.594 286.973,124.965 283.719,126.164 C279.262,127.707 264.176,134.051 260.062,130.965 C256.805,128.395 258.52,120.164 258.691,116.395 C259.027,107.312 259.371,98.398 259.715,89.312"/>
  <path fill="rgb(3.921569%, 16.862745%, 32.941176%)" opacity="0.999" d="M226.801,150.516 C222,146.402 200.57,116.914 216.344,116.574 C232.113,116.23 243.945,127.719 258.344,131.66 C274.973,136.117 293.316,134.746 310.113,132.176 C312.172,131.832 314.742,131.66 315.941,133.375 C317.141,135.262 315.77,137.66 314.398,139.547 C292.457,166.629 252,179.145 226.801,150.516"/>
  <path fill="rgb(76.470588%, 67.45098%, 50.588235%)" opacity="0.704" d="M343.715,264.688 C343.715,263.66 343.543,262.629 343.543,261.602 C342.855,250.457 342.855,238.973 338.57,228.516 C335.484,221.316 330,220.457 322.801,220.457 C310.629,220.285 308.914,224.914 307.199,235.715 C306.172,242.059 305.656,248.914 305.484,255.602 C305.312,261.945 304.285,269.145 307.199,275.145 C310.113,281.316 322.457,281.488 328.285,282 C332.398,282.344 337.027,281.656 339.941,278.914 C341.828,277.027 343.027,274.457 343.371,271.715 C343.887,269.484 343.887,267.086 343.715,264.688 Z"/>
  <path fill="rgb(72.54902%, 49.411765%, 21.176471%)" opacity="0.987" d="M321.43,239.828 C320.23,237.941 324.859,236.059 327.086,237.77 C327.773,238.113 328.285,239.656 327.773,240.34 C326.398,242.059 322.801,242.059 321.43,239.828"/>
  <path fill="rgb(88.235294%, 76.470588%, 52.941176%)" opacity="0.82" d="M171.941,248.914 C171.941,245.312 171.941,241.715 171.941,238.285 C171.941,235.887 171.941,233.312 171.941,230.914 C171.941,227.656 171.426,226.457 167.656,227.312 C166.457,227.656 165.258,228 164.227,228.684 C161.141,231.082 162.168,241.027 162.168,244.625 C161.996,253.539 162.168,262.281 162.34,271.195 C162.34,274.965 162.34,278.738 162.512,282.508 C162.512,287.992 162.684,293.48 162.684,298.965 C162.684,301.195 161.484,305.82 164.57,306.852 C168.512,308.051 169.371,300.164 169.715,297.594 C172.113,281.484 172.113,265.027 171.941,248.914 Z"/>
  <path fill="rgb(99.607843%, 29.411765%, 0%)" opacity="0.979" d="M137.828,311.656 C136.973,311.141 131.484,310.113 125.656,309.086 C116.742,307.371 115.371,306.172 114.855,302.398 L113.484,297.426 L141.426,297.941 C156.855,298.797 170.055,299.484 171.082,300.172 C172.109,301.543 173.312,304.457 172.969,307.371 L172.797,313.027 L156.512,313.199 C147.258,312.688 138.855,312 137.828,311.656"/>
  <path fill="rgb(19.215686%, 43.137255%, 54.901961%)" opacity="0.997" d="M106.285,338.742 C101.484,337.543 96,334.973 94.457,333.258 C91.543,330 91.715,330.344 96.688,332.059 C104.574,335.316 139.031,335.145 163.031,331.887 C190.117,329.145 193.719,329.488 180.688,335.828 C170.918,340.973 169.543,341.484 143.145,341.141 C126.516,340.973 111.602,340.113 106.285,338.742"/>
  <path fill="rgb(97.254902%, 98.431373%, 98.039216%)" opacity="0.972" d="M156.855,54.344 C156.684,51.258 158.055,50.574 166.113,50.574 C180,50.574 182.055,49.887 178.969,43.031 C178.281,39.43 178.281,33.773 179.141,29.66 C181.027,22.633 181.371,22.973 183.598,37.031 C184.113,45.09 185.828,53.145 186.512,55.203 C187.539,58.117 186.34,58.289 172.113,58.461 C157.887,58.457 156.855,57.941 156.855,54.344"/>
  <path fill="rgb(1.960784%, 15.294118%, 30.980392%)" opacity="0.99" d="M264.516,370.629 C252.344,354.516 249.258,337.199 245.488,318 C243.602,308.57 251.832,313.027 256.289,315.258 C287.145,330.859 324.348,342 358.977,332.23 C361.719,331.375 364.633,330.516 367.375,331.203 C376.977,333.09 371.145,347.832 368.746,353.316 C360.176,372.344 340.633,376.117 321.602,376.973 C310.457,377.488 299.316,377.66 288.344,377.316 C279.258,376.973 270.688,378.172 264.516,370.629"/>
  <path fill="rgb(8.627451%, 83.921569%, 87.45098%)" opacity="0.944" d="M253.027,361.199 C254.398,357.43 253.027,353.312 252.34,349.199 C251.312,343.199 248.57,333.598 243.598,329.484 C235.539,322.797 210.34,326.742 200.91,328.969 C189.598,331.711 178.969,336.855 167.652,339.598 C156.168,342.34 144.168,341.996 132.508,341.656 C123.594,341.484 114.68,341.141 106.109,338.398 C90.68,333.426 88.281,320.57 77.824,310.285 C70.625,303.086 60.512,298.629 50.738,296.398 C42.508,294.512 33.938,294.168 25.367,294.34 C19.711,294.512 8.395,292.969 3.598,295.883 C-2.918,299.652 -0.859,309.77 -0.859,316.113 C-0.859,316.113 -1.031,333.941 -1.031,333.941 L-1.547,333.77 L-1.547,384.512 C-1.547,384.512 53.652,384.34 53.652,384.34 C83.996,384.512 114.508,385.539 144.852,384.855 C174.164,384.168 200.223,378.684 228.508,371.484 C234.68,369.941 246.68,369.254 250.965,364.113 C252.172,363.258 252.688,362.23 253.027,361.199 Z"/>
</svg>

