<svg xmlns="http://www.w3.org/2000/svg" width="384" height="384" viewBox="0 0 384 384">
  <defs/>
  <path fill="rgb(1.960784%, 0%, 94.509804%)" opacity="0.995" d="M294.688,364.973 C223.715,352.801 138.344,306.859 66.344,242.059 C29.656,208.973 13.543,181.371 27.086,173.145 C34.801,167.488 57.941,169.375 78.688,176.402 C94.973,182.059 109.203,186.859 122.402,198.516 C135.602,210.172 146.402,224.23 159.09,236.574 C190.461,267.262 241.203,292.805 286.117,291.09 C296.746,290.746 307.203,285.09 317.832,287.66 C333.773,291.43 356.23,314.574 360.859,330.004 C364.801,337.891 365.488,349.375 362.918,355.203 C361.719,357.09 357.262,360.176 353.148,362.574 C342.516,367.543 314.742,368.398 294.688,364.973"/>
  <path fill="rgb(0.784314%, 0%, 95.294118%)" opacity="0.996" d="M279.941,275.312 C263.312,270.855 256.969,267.598 247.543,258 C239.484,249.43 230.914,244.973 222.855,244.973 C217.371,244.973 201.941,236.402 186,224.742 C170.742,212.914 152.914,196.801 152.742,194.398 C152.914,193.199 164.742,182.914 179.828,171.77 C194.227,160.285 207.086,150.168 208.457,149.312 C209.828,148.285 213.941,145.199 217.371,142.113 C221.828,139.371 225.258,136.801 225.77,135.941 C226.285,135.426 231.426,131.312 236.914,126.855 C242.914,122.742 249.258,118.285 250.285,116.914 C252.172,115.887 264.516,106.113 277.543,95.484 C291.258,85.371 302.742,76.113 303.773,75.77 C304.289,74.914 301.887,70.113 297.258,65.484 C289.543,53.312 289.715,43.027 296.742,34.797 C309.598,19.883 330.344,21.254 346.973,38.566 C361.371,53.137 363.258,69.766 352.117,81.422 C345.945,87.078 344.918,87.594 334.289,88.965 L322.805,87.594 L322.289,101.824 C321.434,109.539 321.09,125.652 320.746,137.48 C318.176,182.223 314.059,264.336 313.031,271.879 L311.145,279.25 L301.887,279.078 C296.914,278.742 287.145,277.027 279.941,275.312"/>
  <path fill="rgb(96.862745%, 55.686275%, 3.137255%)" opacity="0.995" d="M179.145,268.113 C157.031,253.883 125.316,226.801 125.145,222.172 C125.316,221.316 128.402,217.199 132,213.258 C135.602,209.145 141.941,201.602 146.398,196.457 L153.77,187.199 L164.055,197.141 C176.742,209.312 200.055,226.969 211.711,233.312 C216.34,235.883 220.281,238.457 220.281,238.969 C220.281,239.824 218.395,241.027 215.996,241.367 C210.852,242.566 201.254,250.281 198.34,255.766 C197.312,257.652 195.426,263.48 194.398,268.109 L192.34,276.68 L179.145,268.113"/>
  <path fill="rgb(98.039216%, 0%, 1.568627%)" d="M211.027,298.457 C199.371,291.941 192.512,280.973 192.684,268.801 C192.855,252.344 207.598,238.629 223.883,238.801 C234.684,239.316 244.797,244.457 252.34,253.887 C257.652,260.402 258.684,263.656 258.684,269.488 C258.512,279.258 254.914,286.973 247.027,294.344 C241.371,299.656 239.312,300.344 228.34,300.859 C219.602,301.371 214.973,300.688 211.027,298.457"/>
  <path fill="rgb(96.470588%, 53.72549%, 2.352941%)" opacity="0.993" d="M278.059,314.398 C264.516,310.797 242.059,301.027 242.059,298.797 C242.059,298.109 244.289,295.195 247.203,292.453 C253.891,285.938 258.516,273.598 257.145,265.883 L256.117,259.711 L264.176,263.141 C275.148,267.77 290.062,271.199 304.805,272.742 C319.203,274.113 319.203,273.941 310.977,299.484 L305.145,317.145 L298.117,317.66 C294.172,317.656 285.258,316.285 278.059,314.398"/>
</svg>

