<svg xmlns="http://www.w3.org/2000/svg" width="384" height="384" viewBox="0 0 384 384">
  <defs/>
  <path fill="rgb(4.313725%, 94.509804%, 55.686275%)" opacity="0.992" d="M214.457,312 C187.371,286.801 183.77,253.371 204.344,217.715 C222.516,187.199 256.113,169.199 283.715,175.371 C299.656,179.141 310.973,188.742 310.973,198.684 C310.973,201.426 310.117,201.941 306.172,201.082 C303.43,200.227 295.371,199.367 288.172,199.539 C276.688,199.367 273.258,200.566 263.145,205.367 C239.66,217.023 223.203,243.426 223.203,269.48 C223.375,283.711 226.117,293.996 232.461,302.395 L236.402,307.879 L232.633,314.395 C230.574,317.996 228.176,321.082 226.977,321.422 C225.602,321.602 220.285,317.312 214.457,312"/>
  <path fill="rgb(3.921569%, 3.529412%, 98.431373%)" d="M190.801,381.086 C198.172,369.773 231.945,314.398 234.172,309.773 C236.742,305.145 236.914,304.801 233.656,302.574 C229.027,298.289 223.027,279.262 223.027,269.145 C222.684,251.488 233.828,228.172 247.715,215.66 C262.285,203.145 283.027,196.805 298.801,200.23 C302.742,201.258 309.43,204.516 314.23,207.773 C325.543,216.516 326.918,211.375 333.773,200.918 C342.344,188.23 359.66,169.031 362.918,153.945 C367.031,135.43 344.746,134.574 332.062,135.773 C315.777,137.488 300.004,142.461 285.09,149.145 C267.09,157.375 245.148,168.344 230.746,182.059 C223.891,188.574 219.602,196.457 212.402,202.973 C198.004,216 189.43,229.543 178.289,244.629 C177.434,246.859 173.316,251.828 170.23,256.629 L163.203,264.172 C158.574,256.801 149.488,246.859 147.602,238.629 C144.344,224.398 165.602,211.199 173.66,201.086 C183.602,188.914 193.719,176.914 204.859,165.941 C247.375,125.312 297.602,101.312 339.09,100.285 C370.805,99.598 384.859,127.027 384.52,154.457 C384.52,154.457 384.863,174.855 384.863,175.027 C385.035,184.629 375.262,194.227 369.777,201.086 C362.062,210.688 355.379,220.801 348.008,230.742 C340.465,240 340.121,240.855 340.465,252 C340.121,283.027 323.492,311.656 297.609,323.312 C288.352,327.941 285.438,328.625 272.066,329.656 C258.695,328.801 254.922,328.113 249.266,325.199 L243.094,320.914 L239.152,326.059 C236.238,328.117 226.98,342.688 218.238,358.117 C202.297,384.859 201.609,385.547 195.609,385.203 C189.602,385.371 189.258,385.371 190.801,381.086"/>
  <path fill="rgb(1.960784%, 94.901961%, 55.294118%)" opacity="0.984" d="M167.828,337.027 C157.543,331.543 153.941,327.086 135.77,299.828 C108.855,257.312 93.77,235.543 86.57,228.855 C78.855,221.484 77.656,215.484 81.941,206.742 C85.711,199.543 92.742,195.598 102.34,195.258 C110.055,195.086 111.598,195.773 117.941,201.773 C121.543,205.715 129.426,215.488 135.086,223.887 C140.57,231.945 146.059,239.656 147.086,240.688 C152.742,246.688 177.43,289.031 186.516,307.887 C191.488,319.031 193.203,331.031 190.285,335.488 C188.398,338.059 181.715,341.145 178.285,341.145 C176.398,341.484 171.77,339.602 167.828,337.027"/>
  <path fill="rgb(2.745098%, 1.176471%, 98.823529%)" opacity="0.991" d="M119.145,352.973 C107.832,346.117 49.715,264 49.887,254.742 C50.23,244.457 73.887,224.055 84.344,226.801 C88.113,228.516 99.43,244.113 125.145,283.371 C137.145,302.57 150.344,322.113 154.289,326.914 L161.316,335.145 L155.66,339.945 C152.574,342.859 147.773,345.773 145.031,347.316 C142.633,348.516 138.344,350.918 136.289,352.801 C131.145,356.57 126.344,356.742 119.145,352.973"/>
</svg>

