<svg xmlns="http://www.w3.org/2000/svg" width="384" height="384" viewBox="0 0 384 384">
  <defs/>
  <path fill="rgb(90.196078%, 27.058824%, 78.431373%)" opacity="0.954" d="M123.602,122.059 C116.402,105.43 123.773,86.402 126.516,69.43 C130.973,42.344 147.77,14.57 173.484,1.715 C181.371,-1.887 183.77,-2.227 211.027,-1.887 C236.055,-1.543 265.543,2.914 284.914,20.227 C306.684,39.77 301.543,68.57 290.914,92.57 C283.715,108.855 277.543,127.371 265.199,140.914 C256.629,150.344 244.113,155.145 231.598,156.172 C209.312,158.23 183.941,154.973 162.34,149.145 C147.426,145.031 130.453,137.66 123.77,122.574 C123.77,122.398 123.602,122.23 123.602,122.059 Z"/>
  <path fill="rgb(79.215686%, 10.980392%, 64.705882%)" d="M306,146.398 C282.172,155.656 252.172,162.512 255.43,140.57 C257.488,126.34 268.973,110.57 278.742,100.457 C288.855,90.172 289.715,75.086 289.715,61.027 C289.715,56.742 290.914,50.57 290.059,46.285 C289.031,41.484 284.402,38.398 281.66,34.457 C277.375,28.285 273.43,22.113 268.461,16.285 C265.203,12.516 263.488,11.312 259.203,9.598 C255.602,8.055 252.348,7.883 249.945,4.113 C249.43,3.258 249.09,2.227 249.43,1.371 C249.945,0.516 250.973,0.172 252,0.172 C261.602,-1.199 273.941,-2.059 283.715,-0.344 C292.629,1.371 300,10.285 306.855,16.113 C315.941,23.828 324.855,33.426 330.512,44.055 C337.199,56.91 349.027,93.082 348.855,100.453 C348.684,114.34 343.711,125.824 332.227,133.711 C328.801,136.113 318.344,141.602 306,146.398 Z"/>
  <path fill="rgb(92.54902%, 68.627451%, 4.313725%)" opacity="0.983" d="M199.887,204.344 C180,202.973 160.285,200.23 140.23,199.031 C137.316,198.859 134.059,198.516 131.832,196.633 C129.09,194.402 128.402,190.805 128.062,187.375 C126.52,175.375 126.176,163.203 127.035,151.031 C127.379,147.43 127.723,143.488 130.293,140.918 C133.723,137.148 139.723,137.316 144.523,139.031 C149.324,140.746 153.609,143.66 158.582,144.688 C168.867,147.086 178.812,141.43 188.926,138.344 C200.41,134.914 212.926,134.742 224.41,138.344 C231.438,140.402 237.953,143.828 244.809,146.059 C262.809,152.059 283.039,150.516 299.836,142.289 C307.207,138.688 314.234,133.719 322.293,133.031 C330.691,132.176 339.438,136.461 343.895,143.66 C345.438,146.059 346.465,148.633 348.18,150.859 C352.465,156.688 360.523,159.09 364.637,164.918 C368.578,170.574 368.406,178.289 366.008,184.633 C362.406,194.234 353.664,201.434 343.895,204.348 C331.207,208.117 321.266,201.605 308.922,200.062 C293.152,198.176 277.551,203.148 262.121,204.52 C241.199,206.57 220.629,205.715 199.887,204.344"/>
  <path fill="rgb(49.803922%, 21.176471%, 4.705882%)" opacity="0.992" d="M236.23,381.43 C235.715,379.371 235.887,367.199 236.574,354.172 C237.43,341.316 239.145,316.629 240.176,299.316 C241.203,282.172 242.746,262.289 243.434,255.43 C244.461,248.402 244.977,239.316 244.977,235.199 L244.977,227.656 L225.434,226.629 C212.746,225.773 200.062,224.059 189.434,221.145 C180.52,218.746 171.434,217.031 169.375,217.543 C165.945,217.887 165.262,217.027 163.375,208.973 C162.688,206.23 159.09,198.859 164.23,198.172 C167.316,197.828 172.289,200.914 175.375,201.602 C180.176,202.801 185.145,203.316 189.945,203.832 C199.887,204.688 209.832,204.52 219.602,204.859 C232.801,205.375 246,206.059 259.203,205.203 C271.891,204.348 284.23,199.375 296.918,199.375 C307.719,199.375 307.547,199.375 300.52,222.004 C284.75,272.574 269.148,322.977 253.547,373.547 C252.691,376.633 251.66,379.719 249.605,382.117 C246.855,385.715 237.602,387.602 236.23,381.43"/>
  <path fill="rgb(67.058824%, 33.333333%, 3.529412%)" opacity="0.939" d="M214.113,378.172 C194.742,325.887 181.883,271.027 166.801,217.371 C176.57,216.855 186.344,219.941 195.945,222.172 C212.402,226.113 229.547,227.828 246.516,227.656 C241.543,280.801 236.402,333.941 237.258,387.258 C230.57,387.258 223.715,387.43 217.027,387.43 C216,384.344 214.973,381.258 214.113,378.172"/>
</svg>

