<svg xmlns="http://www.w3.org/2000/svg" width="384" height="384" viewBox="0 0 384 384">
  <defs/>
  <path fill="rgb(27.45098%, 70.980392%, 18.039216%)" opacity="0.985" d="M-3.602,259.371 C-3.258,235.371 -3.086,211.543 -2.574,187.543 C-2.402,183.086 -0.176,132.688 0.684,132.855 C5.312,134.227 2.742,128.57 4.113,127.027 C6,124.969 9.77,123.77 12.172,122.055 C18,117.941 22.801,112.453 29.484,109.711 C35.312,107.312 41.828,107.312 48.172,107.48 C67.543,107.652 86.742,107.824 106.113,108.168 C112.629,108.168 120.512,106.969 126.684,108.684 C134.227,110.742 139.711,115.371 147.77,116.227 C153.254,116.914 159.77,118.625 161.484,119.656 C163.543,120.512 166.969,121.371 169.027,120.855 C173.312,120.512 181.371,124.285 185.656,129.426 C188.742,132.684 189.426,134.227 180.172,136.969 C138.859,141.254 92.914,173.312 74.059,209.312 C67.371,222.168 67.887,224.742 66.172,241.199 C63.086,270.855 78.344,298.113 106.973,308.914 C115.543,314.059 118.629,314.227 134.574,313.887 C155.66,313.371 168.004,309.773 193.887,296.402 C199.371,293.316 209.145,286.801 209.488,294.172 C209.66,296.742 206.574,302.742 206.402,306.172 C206.059,312.859 206.059,319.715 205.375,326.402 C204.688,333.258 203.488,340.289 199.891,346.117 C195.434,353.145 188.062,357.773 181.719,363.262 C175.719,368.406 170.574,374.746 164.062,379.203 C153.605,386.402 138.348,385.203 125.832,385.375 C108.004,385.719 90.348,385.547 72.52,385.547 L0.348,386.574 L-3.602,259.371"/>
  <path fill="rgb(96.078431%, 99.607843%, 97.254902%)" opacity="0.968" d="M212.398,134.914 C207.77,130.801 200.227,124.801 195.426,121.715 L186.684,115.199 L197.312,116.914 C203.828,118.285 208.457,118.113 209.312,116.914 C210,115.715 215.484,115.715 224.398,116.57 C231.941,118.285 238.797,118.113 240.168,117.426 C241.195,116.57 244.797,115.539 248.398,115.883 C253.027,115.711 254.57,116.57 253.543,118.625 C252.688,120.34 252.855,125.652 253.887,131.141 L255.086,140.91 L247.199,138.68 C240.855,136.965 236.57,137.309 229.543,139.535 L220.285,142.449 L212.398,134.914"/>
  <path fill="rgb(1.176471%, 0.784314%, 1.568627%)" opacity="0.995" d="M258.855,225.43 C255.426,224.23 254.055,220.973 251.828,210.516 C247.027,184.801 233.828,159.773 219.43,148.629 C211.199,141.43 214.457,138.859 230.914,141.086 C241.715,140.742 245.145,141.941 261.086,151.543 C282.344,167.312 288.516,174.688 287.484,194.059 C286.457,209.66 283.543,218.746 274.629,224.23 C267.602,227.828 265.027,228.172 258.855,225.43"/>
  <path fill="rgb(14.901961%, 58.431373%, 13.333333%)" d="M194.059,136.973 C190.629,137.488 185.66,134.574 183.602,130.457 C177.602,124.973 170.574,122.57 166.629,123.77 C165.602,124.625 163.543,124.285 162.344,123.254 C161.316,122.566 156.344,120.684 150.344,118.797 C141.258,117.082 139.543,116.055 125.316,100.625 C117.086,90 103.543,79.199 93.43,72 C83.488,65.828 71.145,56.23 65.828,49.887 C61.715,44.574 55.543,41.488 51.086,36 C46.801,30.855 43.543,25.027 39.941,19.543 C33.941,9.941 28.969,1.199 28.969,0.688 C28.969,-1.199 81.598,-2.398 201.254,-5.312 C319.883,-2.914 373.539,-1.543 372.684,0.859 C372.684,1.715 371.828,8.574 370.453,15.945 C368.395,23.316 366.684,31.887 367.367,35.488 C370.797,41.145 370.969,42.859 364.109,44.746 C355.879,52.461 347.652,65.832 344.223,75.945 C341.824,85.887 340.281,87.43 331.023,88.117 C320.395,88.289 310.625,90.176 307.539,93.602 C306.168,95.488 304.453,100.117 303.426,104.23 C302.738,108.688 300.855,111.43 299.141,112.117 C289.027,106.461 283.027,106.461 272.742,111.09 C262.973,115.547 253.027,114.691 242.57,116.062 C236.055,117.777 225.77,113.832 220.285,116.234 C214.973,118.633 213.598,131.492 210.172,137.32 C207.43,141.43 198.344,137.656 194.059,136.973"/>
  <path fill="rgb(98.823529%, 1.960784%, 1.568627%)" opacity="0.993" d="M116.059,312.855 C110.23,312.684 109.543,312.512 115.371,302.055 C117.77,297.941 119.656,290.91 120.172,282.168 C121.199,270.34 120.516,267.77 116.059,257.996 C108.688,240.684 93.602,230.055 75.945,230.91 C64.801,230.566 64.973,228.68 73.203,211.539 C93.602,169.371 150.172,133.715 190.629,136.629 C196.629,137.656 205.887,139.543 210.859,140.398 C220.461,144.168 235.203,156.512 241.715,168.168 C249.258,180.168 255.43,201.598 256.629,219.598 C257.145,234.34 256.801,236.398 253.027,245.656 C242.055,270.344 205.027,296.57 164.227,309.258 C150.688,314.23 126,315.941 116.059,312.855"/>
  <path fill="rgb(1.176471%, 0.392157%, 1.568627%)" d="M98.398,305.145 C86.227,297.602 75.598,285.945 69.941,273.945 C65.828,265.715 65.312,260.746 64.969,248.23 C64.797,231.086 65.484,229.715 78.512,230.059 C103.199,229.715 123.941,255.602 121.027,283.031 C120,294.516 113.141,309.773 109.199,310.289 C107.656,310.285 102.855,308.23 98.398,305.145"/>
  <path fill="rgb(32.54902%, 23.921569%, 27.058824%)" opacity="0.987" d="M42.688,302.059 C39.773,297.773 39.945,297.773 49.203,296.746 C57.773,295.547 59.66,294.348 66.516,286.805 C72.859,279.434 74.23,278.574 75.945,281.32 C77.488,283.891 76.633,285.949 71.145,292.121 C58.285,306.688 48.855,310.113 42.688,302.059"/>
  <path fill="rgb(20.392157%, 16.470588%, 14.901961%)" d="M277.887,151.887 C276.344,147.773 279.43,142.285 284.574,139.199 C287.316,138.172 292.633,135.086 296.746,133.027 C309.262,126.855 319.375,125.141 331.547,127.883 C346.461,130.797 342.176,134.055 320.746,135.941 C307.547,135.941 302.059,136.797 299.832,139.027 C297.602,140.742 295.203,142.113 294.004,142.113 C292.461,142.113 291.773,143.484 292.289,145.715 C291.773,149.484 285.434,155.145 281.145,154.629 C280.285,154.457 278.742,153.43 277.887,151.887"/>
  <path fill="rgb(18.431373%, 18.431373%, 19.607843%)" opacity="0.987" d="M254.23,185.145 C245.832,175.375 250.461,164.059 263.488,161.66 C267.773,160.633 269.66,161.488 274.289,165.773 C280.977,172.801 281.145,180.516 275.145,186.344 C268.801,192.855 260.059,192.172 254.23,185.145"/>
  <path fill="rgb(13.333333%, 12.54902%, 13.333333%)" opacity="0.973" d="M283.887,174.855 C280.801,168.168 276.516,163.883 265.199,155.312 C251.656,146.398 247.887,144.855 239.656,143.656 C233.484,143.141 228.172,143.656 225.941,144.855 C223.543,146.055 222,146.398 220.797,144.855 C219.254,142.797 233.996,136.113 241.367,136.285 C251.137,136.285 261.938,142.457 274.797,153.941 C286.969,166.113 292.109,175.711 289.027,179.828 C288.855,182.398 287.484,181.371 283.887,174.855"/>
  <path fill="rgb(32.54902%, 25.882353%, 25.098039%)" d="M252.516,113.145 C252.344,106.457 256.457,98.402 263.145,92.23 C269.832,86.23 274.629,85.203 278.402,89.316 C281.488,92.746 281.488,92.746 272.746,96.688 C266.402,99.773 258.688,111.945 260.918,115.375 C261.773,116.062 260.23,117.262 257.488,117.605 C253.715,117.77 252.855,117.258 252.516,113.145"/>
  <path fill="rgb(1.176471%, 0.392157%, 1.568627%)" opacity="0.988" d="M171.77,284.059 C159.598,277.371 155.141,267.086 160.113,256.629 C163.715,249.086 168.172,246.516 177.598,246.516 C186.684,246.688 194.055,251.66 196.969,260.23 C202.629,275.656 185.656,291.602 171.77,284.059"/>
  <path fill="rgb(1.176471%, 0.392157%, 1.568627%)" opacity="0.988" d="M219.086,243.43 C213.773,239.828 209.316,231.773 209.484,224.914 C209.484,212.914 223.883,203.828 235.543,208.457 C244.973,212.398 248.914,218.059 248.914,227.484 C249.086,234.512 247.887,236.398 242.914,241.027 C236.23,247.371 225.941,248.398 219.086,243.43"/>
  <path fill="rgb(1.176471%, 0.392157%, 1.568627%)" opacity="0.988" d="M127.543,195.258 C111.602,183.086 120.172,158.914 140.23,159.773 C155.145,160.629 164.059,174.172 158.059,186.859 C153.086,197.828 136.629,202.285 127.543,195.258"/>
  <path fill="rgb(94.901961%, 30.588235%, 14.509804%)" opacity="0.854" d="M164.398,223.543 C153.77,215.145 148.457,207.086 153.254,192.344 C154.109,189.602 158.91,180.344 161.996,180.172 C163.539,180.172 170.227,177.258 176.566,173.828 C185.48,169.027 191.48,167.312 201.594,166.113 C208.965,165.426 214.621,165.426 213.938,166.113 C212.91,166.969 214.965,168.855 217.879,170.57 C224.906,174.172 231.422,186.512 231.766,196.801 C232.109,203.145 231.422,205.199 229.367,205.371 C220.281,205.715 209.48,216.684 209.996,225.43 C210.34,228.516 208.969,228.859 192.34,230.059 L173.996,231.43 L164.398,223.543"/>
  <path fill="rgb(16.078431%, 59.215686%, 13.72549%)" d="M385.887,387.602 C364.973,387.602 344.059,387.602 322.973,387.773 C311.66,387.773 300.344,387.945 289.031,387.773 C272.746,387.43 260.23,373.887 250.117,361.715 C247.547,358.457 245.316,354.859 243.262,351.258 C229.719,327.773 207.09,294.688 231.777,270.688 C239.492,263.145 247.547,255.086 252.176,245.145 C255.777,237.086 254.406,224.746 262.805,219.602 C265.035,218.23 268.805,218.23 271.375,217.203 C278.062,214.805 284.402,211.031 291.262,208.805 C298.977,206.234 303.949,200.234 311.66,202.633 C314.918,202.633 316.805,203.488 317.66,204.691 C317.66,206.234 322.805,207.949 328.633,209.148 C333.777,210.52 338.402,212.578 338.062,213.777 C337.891,214.977 341.32,217.547 346.121,219.949 C357.605,226.465 369.094,240.691 377.664,258.863 L385.035,275.148 C385.199,275.145 385.887,387.602 385.887,387.602 Z"/>
  <path fill="rgb(19.607843%, 16.470588%, 18.431373%)" opacity="0.979" d="M254.742,133.027 C255.258,130.285 254.57,126.855 253.371,125.312 C250.629,122.398 253.887,114.168 258.344,113.484 C263.145,112.457 265.715,116.055 265.199,123.941 C264.684,130.457 259.887,138.512 256.457,138 C255.258,138.344 254.742,135.602 254.742,133.027"/>
  <path fill="rgb(32.156863%, 25.098039%, 26.27451%)" d="M283.543,247.027 C281.145,243.941 272.914,228.172 271.199,223.543 C270.172,220.801 270.855,219.602 273.941,217.715 C277.543,216 278.055,216.859 280.797,223.199 C284.566,232.285 289.539,233.484 295.027,226.113 C298.285,221.828 298.457,219.426 297.426,210.512 C296.738,204.684 294.855,197.484 292.969,194.227 C291.426,190.797 290.57,186.855 291.082,185.656 C292.797,181.199 298.281,186.684 303.426,197.484 C309.941,212.742 305.996,230.57 292.625,243.086 C285.602,249.77 285.941,249.77 283.543,247.027"/>
</svg>

