<svg xmlns="http://www.w3.org/2000/svg" width="384" height="384" viewBox="0 0 384 384">
  <defs/>
  <path fill="rgb(96.862745%, 89.019608%, 0%)" opacity="0.987" d="M154.457,365.145 C144.855,368.23 133.027,372.516 123.086,372.859 C112.113,373.203 100.801,370.973 90.688,366.859 C62.746,355.547 44.23,318.004 48.344,288.688 C51.945,262.973 64.113,239.316 79.543,218.574 C97.371,194.574 119.656,174.344 141.258,153.773 C172.801,123.43 204.344,90.855 245.145,74.059 C251.316,71.488 258.344,69.43 264.516,72.172 C267.773,73.715 270.344,76.457 273.258,78.859 C280.629,84.688 290.059,87.258 299.316,89.145 C302.918,89.832 306.516,90.516 309.602,92.746 C313.715,95.832 315.602,101.145 316.457,106.289 C318.516,116.918 318,128.059 316.973,138.859 C311.828,192.516 291.602,244.801 259.371,287.832 C233.312,322.457 196.113,352.113 154.457,365.145 Z"/>
  <path fill="rgb(50.980392%, 50.196078%, 52.941176%)" d="M49.371,380.23 C49.543,377.66 51.77,375.258 55.543,373.203 C59.145,371.832 62.57,369.773 63.602,368.746 C64.629,367.891 69.602,365.832 74.574,364.289 C83.488,361.719 84.004,361.719 93.262,366.004 C125.32,381.09 166.117,363.945 194.234,347.316 C221.664,331.031 244.805,307.887 263.148,281.66 C295.207,236.23 313.891,181.547 316.121,126.004 C316.637,113.488 315.777,99.434 306.52,91.031 C305.148,89.832 303.434,88.461 303.262,86.574 C303.09,85.203 303.605,83.66 304.289,82.289 C314.23,60.859 324.859,38.918 343.031,23.832 C352.461,16.117 364.801,10.289 376.801,12.348 C379.199,12.691 381.602,13.547 383.145,15.434 C384.688,17.32 385.031,19.891 385.031,22.289 C384.859,36.52 375.09,48.859 364.973,58.977 C354.855,69.086 343.543,79.199 338.57,92.57 C332.398,109.199 337.199,127.371 340.113,144.855 C347.484,190.625 339.941,238.797 319.027,280.113 C294.684,327.941 244.113,382.457 186.855,384.684 C167.484,385.371 147.941,384.168 128.57,384.168 L48.855,383.996 L49.371,380.23"/>
  <path fill="rgb(20.392157%, 72.156863%, 1.176471%)" opacity="0.992" d="M14.059,373.543 C12.859,372.172 12,367.199 12.344,362.57 L13.031,353.828 L24.176,351.941 C30.52,350.742 37.891,348.684 40.461,347.141 C49.375,342.684 52.805,333.426 60.52,328.113 C69.605,332.914 77.148,343.371 81.949,352.285 C87.777,363.258 91.035,361.027 49.551,371.312 C26.742,376.801 16.973,377.484 14.059,373.543"/>
  <path fill="rgb(17.254902%, 74.117647%, 1.960784%)" d="M279.602,85.543 C274.457,83.656 269.66,80.57 268.117,77.656 C265.375,73.199 265.547,72.855 270.859,66.344 C273.773,62.402 279.43,54.516 283.031,48.344 C304.289,15.258 327.602,-2.398 349.719,-2.227 C356.234,-2.227 356.574,-2.055 354.348,1.375 C353.32,3.434 352.805,7.375 353.32,10.461 C353.664,13.719 353.148,15.605 351.605,15.945 C347.836,16.801 318.348,51.773 314.75,59.316 C313.379,63.602 309.438,71.66 306.52,77.488 C301.375,87.258 300.348,88.289 294.691,88.289 C291.258,88.801 284.398,87.43 279.602,85.543"/>
  <path fill="rgb(60%, 93.72549%, 23.529412%)" d="M351.258,17.828 C348.172,14.398 348.688,6 352.113,2.059 C356.055,-2.914 364.285,-1.027 364.801,4.801 C365.656,15.77 356.742,24.172 351.258,17.828"/>
</svg>

