<svg xmlns="http://www.w3.org/2000/svg" width="384" height="384" viewBox="0 0 384 384">
  <defs/>
  <path fill="rgb(84.313725%, 0%, 0.784314%)" opacity="0.999" d="M238.801,301.371 C230.914,297.43 221.145,291.941 216.859,289.027 C200.059,277.883 186.688,273.086 166.289,273.77 C157.031,274.113 92.918,280.457 91.031,272.57 C90.516,270.34 91.375,268.113 91.719,265.883 C93.949,253.539 81.949,244.797 71.488,241.711 C59.145,237.941 47.145,238.969 40.633,225.082 C39.605,223.023 38.918,220.625 39.262,218.395 C39.949,214.793 43.031,212.395 45.777,210.164 C51.605,205.707 62.234,201.934 58.465,193.879 C55.035,186.68 49.895,180.508 44.406,174.68 C40.121,170.051 31.891,164.051 29.664,158.051 C25.551,147.078 40.293,136.449 38.406,123.938 C36.863,113.309 33.434,103.195 31.891,92.566 C31.547,89.652 31.203,86.566 32.746,84.168 C38.574,74.566 68.23,96.855 74.918,99.77 C77.832,101.141 81.09,102.512 84.176,101.828 C87.605,101.141 90.004,98.059 92.918,96 C102.348,89.312 107.316,103.887 110.574,110.398 C114.344,118.285 135.09,157.371 146.746,134.914 C150.516,127.543 144.688,117.602 142.289,110.57 C135.945,91.715 133.719,71.141 139.375,51.941 C141.434,44.742 154.117,56.398 157.375,57.598 C166.117,60.684 170.574,53.484 173.832,46.285 C176.574,40.457 184.461,31.199 195.773,21.77 C199.715,18.512 202.629,13.711 206.918,10.625 C213.945,5.48 214.977,6.684 219.605,12.34 C229.035,23.996 237.949,39.426 241.035,54.34 C242.75,67.883 246.691,70.109 261.434,66.684 C267.605,64.969 268.121,65.656 269.492,70.113 C273.434,85.027 267.949,101.312 262.637,115.199 C258.523,126 246.008,144.172 253.379,155.484 C256.121,159.086 260.234,159.77 264.352,158.055 C267.094,157.027 269.324,154.969 271.551,153.082 C285.949,140.566 294.695,122.91 315.609,130.453 C323.152,133.195 328.637,131.48 336.867,128.91 C343.895,127.367 353.152,125.652 357.266,125.309 C363.609,125.48 364.809,126.164 364.465,129.078 C364.293,141.594 358.98,153.25 354.18,164.391 C351.438,170.906 340.293,188.562 348.008,194.906 C353.836,199.707 362.922,201.078 369.609,204.848 C370.297,205.191 370.98,205.703 371.324,206.391 C371.84,207.418 371.152,208.621 370.469,209.648 C367.039,214.621 362.238,218.562 357.441,222.164 C345.613,230.906 333.27,238.793 320.586,246.508 C314.758,250.109 307.043,253.535 303.957,259.879 C298.984,269.648 306.188,272.395 310.473,279.766 C312.188,282.68 312.703,286.453 310.988,289.195 C309.617,291.426 307.387,292.625 304.988,293.824 C293.332,299.652 280.988,303.766 268.133,306.34 C257.312,308.914 249.258,306 238.801,301.371"/>
  <path fill="rgb(97.647059%, 2.352941%, 25.882353%)" opacity="0.998" d="M186.516,377.312 C180.688,364.625 179.488,355.199 178.801,309.77 C178.285,271.027 178.285,266.742 181.031,266.742 C183.602,266.742 183.945,269.484 183.773,284.055 C183.43,309.082 186.344,346.453 189.43,355.199 C190.801,359.312 193.887,365.828 196.457,369.598 C199.199,373.367 201.086,378.512 201.086,380.742 C201.086,384.172 200.059,385.027 195.602,385.027 C191.312,385.027 189.602,383.656 186.516,377.312"/>
</svg>

