<svg xmlns="http://www.w3.org/2000/svg" width="384" height="384" viewBox="0 0 384 384">
  <defs/>
  <path fill="rgb(96.862745%, 77.254902%, 16.470588%)" opacity="0.962" d="M211.199,78.688 C208.113,75.773 205.027,71.145 204.512,68.746 C203.996,66.004 203.141,61.719 202.797,59.66 C200.398,47.66 232.109,36.004 240.855,45.602 C243.086,48.172 244.457,53.145 244.969,60.172 C245.656,70.457 245.484,71.145 239.312,77.316 C233.828,82.801 231.77,83.66 224.914,83.832 C218.059,83.828 215.484,82.801 211.199,78.688"/>
  <path fill="rgb(9.019608%, 30.980392%, 38.039216%)" opacity="0.995" d="M128.398,223.715 C118.457,209.484 100.969,221.145 87.254,217.371 C81.941,215.828 76.797,213.258 71.312,213.941 C61.027,215.141 53.484,221.312 42.512,221.828 C29.996,222.516 17.484,221.484 5.312,218.57 C3.941,218.227 2.398,217.883 1.371,216.684 C0.516,215.656 0.344,214.285 0,212.914 C-1.543,202.457 -2.914,191.312 1.543,181.887 C3.941,176.742 8.059,172.629 12,168.516 C45.941,133.031 77.312,94.801 105.43,54.516 C117.945,67.715 130.285,80.746 142.801,93.945 C147.602,99.09 152.742,105.09 151.715,112.117 C151.371,114.348 150.344,116.918 151.887,118.805 C154.117,121.547 158.402,118.977 160.801,116.406 C167.316,109.379 173.656,102.52 180.172,95.492 C195.602,106.805 198,130.805 214.113,141.262 C225.086,148.289 240,147.09 251.141,153.949 C253.027,144.691 255.082,135.262 260.398,127.551 C265.711,119.836 274.969,113.836 284.227,115.551 C291.082,116.75 298.285,121.895 304.457,118.293 C309.77,115.207 310.801,106.98 316.629,104.922 C330,128.066 343.371,151.379 356.742,174.523 C360.172,180.352 365.484,187.211 372,185.496 C374.398,184.98 376.457,183.266 378.855,183.438 C383.828,183.609 385.371,190.465 385.371,195.438 C385.371,203.668 385.199,211.895 385.199,220.293 C365.141,220.465 344.914,219.777 325.027,220.637 C304.969,221.492 286.457,220.98 267.426,213.609 C267.254,218.754 260.91,220.809 255.941,221.496 C238.797,223.727 221.312,223.895 204.172,222.184 C198.516,221.668 192.344,220.641 188.23,216.527 C187.203,215.5 186.344,214.297 184.973,213.957 C183.602,213.613 182.23,214.129 181.031,214.473 C171.43,217.73 160.801,217.73 151.203,214.473 C146.23,222 136.973,236.742 128.398,223.715"/>
  <path fill="rgb(9.019608%, 52.156863%, 63.529412%)" opacity="0.997" d="M-0.688,376.973 C-0.859,366 3.426,356.914 8.57,356.914 C11.656,356.914 13.199,355.543 14.227,352.285 C15.082,349.371 20.742,342 26.227,335.312 C31.883,328.625 37.539,321.426 38.742,319.371 C39.77,316.973 42,315.086 43.715,315.43 C48.344,315.602 62.57,297.773 69.945,282.859 C73.375,275.488 77.316,268.289 78.688,266.746 C93.945,249.773 109.203,278.574 115.715,288.516 C119.145,293.828 124.285,301.371 130.285,303.945 C137.312,306.859 136.801,303.945 139.543,297.602 C141.773,292.801 145.199,287.316 147.086,285.43 C150.172,282.344 150.855,282.859 156.516,286.629 C165.258,292.457 171.43,303.941 177.773,312 C179.488,314.059 181.203,316.285 183.43,317.484 C189.086,320.57 196.457,317.484 202.285,316.113 C213.086,312.684 212.398,312.684 215.484,319.543 C219.254,327.258 232.797,333.602 238.969,330.688 C248.57,326.059 248.738,332.574 246.168,339.773 C243.598,346.801 238.453,372.172 229.539,372.172 C227.996,372.172 224.91,374.914 222.684,378.344 C222.684,378.344 218.57,384.344 218.57,384.344 C178.969,384.172 136.285,388.285 97.715,379.199 C95.145,378.512 92.402,378 89.828,378.855 C88.285,379.371 86.914,380.57 85.543,381.426 C74.23,389.312 60.688,384.512 48.172,384.512 C31.887,384.512 15.773,384.512 -0.516,384.512 L-0.688,376.973"/>
  <path fill="rgb(96.862745%, 100%, 100%)" opacity="0.725" d="M86.914,382.973 C86.914,382.117 88.113,380.574 89.484,379.371 C91.371,377.828 93.426,377.656 99.254,380.059 C103.367,381.43 107.996,383.145 110.055,383.66 C112.113,384.176 107.484,384.516 100.285,384.516 C92.742,384.344 86.742,383.828 86.914,382.973"/>
  <path fill="rgb(9.803922%, 34.509804%, 41.568627%)" opacity="0.995" d="M220.801,378 C223.031,374.914 226.285,372.172 227.656,372 C232.457,372 235.199,367.543 238.457,355.199 C241.199,344.742 246.688,332.914 249.941,330.512 C250.629,329.996 255.77,323.312 261.598,315.941 C276.684,295.543 278.227,294.172 284.91,294.34 C292.625,294.512 300.512,296.57 308.223,295.883 C311.309,295.539 316.621,292.113 318.852,292.281 C322.965,292.453 325.023,296.395 327.594,300.34 C339.938,319.711 346.109,356.57 373.363,359.824 L383.82,361.023 L384.852,384.336 L217.023,384.336 L220.801,378"/>
</svg>

