<svg xmlns="http://www.w3.org/2000/svg" width="384" height="384" viewBox="0 0 384 384">
  <defs/>
  <path fill="rgb(0.392157%, 6.27451%, 83.529412%)" opacity="0.982" d="M192.859,99.469 C173.035,92.145 165.832,69.895 177.246,52.145 C191.148,30.539 223.652,31.961 235.137,54.984 C239.043,61.742 238.57,77.113 234.371,84.719 C227.02,98.543 207.844,105.426 192.859,99.469"/>
  <path fill="rgb(1.960784%, 5.098039%, 81.568627%)" opacity="0.983" d="M136.492,41.703 C133.266,38.699 133.098,31.73 136.215,28.652 C139.832,24.746 149.141,25.441 151.629,29.809 C154.277,35.07 154.02,36.867 150.969,40.902 C147.305,44.73 139.902,45.137 136.492,41.703"/>
  <path fill="rgb(2.352941%, 2.745098%, 76.078431%)" opacity="0.983" d="M272.492,43.73 C266.758,38.441 270.125,28.258 278.035,27.832 C282.477,27.465 289.082,32.457 288.961,36.605 C289.883,43.332 277.848,48.395 272.492,43.73"/>
  <path fill="rgb(0%, 9.803922%, 88.235294%)" opacity="0.986" d="M321.133,68.93 C311.996,64.129 315.844,54.684 328.453,50.754 C333.262,49.434 336.387,47.262 337.871,43.828 C344.785,30.203 361.172,29.426 368.059,42.023 C369.66,45.227 371.91,47.461 373.566,47.297 C375.027,47.203 378.18,48.191 380.574,49.402 C384.816,50.918 385.133,52.219 385.266,60.82 L385.242,70.406 L355.621,70.469 C335.16,70.77 324.148,70.398 321.133,68.93"/>
  <path fill="rgb(0.784314%, 0%, 48.627451%)" opacity="0.997" d="M67.691,144.328 C46.445,138 31.227,118.062 31.758,96.773 C31.43,76.73 47.797,55.07 67.539,49.59 C86.211,43.875 105.566,49.309 119.488,63.926 C142.344,87.805 135.762,126.121 106.051,140.934 C94.727,146.547 78.129,147.961 67.691,144.328"/>
  <path fill="rgb(0%, 9.019608%, 87.843137%)" opacity="0.996" d="M81.781,288.984 C76.445,283.074 66.988,282.27 59.773,287.336 C55.176,290.945 50.457,291.699 41.344,291.391 C30.969,290.871 28.727,289.762 25.418,285.473 C18.828,279.68 19.051,270.305 25.266,262.379 C30.375,256.582 41.496,253.141 52.066,253.352 C56.391,253.848 58.75,252.539 62.512,247.684 C65.184,244.215 70.906,239.305 75.867,236.645 C81.711,234.832 85.32,232.047 85.227,230.246 C84.648,223.699 92.789,209.043 100.457,201.75 C104.676,197.531 113.137,191.395 119.668,188.867 C130.047,184.285 132.648,183.25 147.445,182.488 C163.312,183.488 164.793,184.082 177.789,189.652 C202.102,201.836 215.375,221.695 213.184,243.438 C211.082,252.82 211.758,254.055 217.473,257.336 C219.148,260.77 225.031,262.977 229.523,262.68 C239.438,266.148 245.613,272.613 245.035,279.781 C244.73,288.816 240.543,291.57 216.34,291.77 C196.766,291.426 193.801,291.047 189.902,287.199 C183.805,282.109 177,282.289 169.309,287.734 C163.16,292.254 162.68,291.242 124.332,291.574 C87.664,291.984 85.109,292.031 81.781,288.984"/>
  <path fill="rgb(81.568627%, 0%, 96.470588%)" opacity="0.99" d="M276.578,212.918 C260.754,207.039 245.152,192.02 241.172,179.043 C239.641,175.207 238.656,166.035 238.375,158.766 C239.133,142.391 243.262,132.656 254.992,119.531 C266.957,107.297 274.656,103.82 292.191,102.309 C304.926,101.871 307.957,102.562 316.434,106.344 C329.719,112.449 339.578,121.875 345.945,134.613 C350.223,143.562 351.227,147.605 351.172,158.277 C351.348,165.094 350.18,174.508 348.18,179.113 C344.406,190.707 332.07,204 318.77,210.266 C309.66,214.699 305.934,215.754 295.316,215.938 C288.594,215.469 280.082,214.387 276.578,212.918"/>
  <path fill="rgb(1.960784%, 9.019608%, 88.235294%)" opacity="0.983" d="M39.828,202.789 C32.445,198.418 32.52,186.32 39.664,181.762 C44.574,178.797 54.148,180.684 56.816,185 C60.785,191.141 60.316,195.223 54.719,200.785 C49.645,205.516 45.316,206.195 39.828,202.789"/>
  <path fill="rgb(0.784314%, 0%, 50.588235%)" opacity="0.998" d="M118.527,382.863 C119.859,380.055 124.035,377.223 128.223,375.324 C134.879,373.773 136.938,371.957 138.164,366.898 C139.25,363.43 143.762,356.461 148.902,351.488 C159.559,341.066 172.711,336.301 184.609,338.082 C192.613,338.23 206.672,345.789 210.945,349.191 C214.195,353.676 214.902,353.109 217.102,346.34 C220.156,338.48 225.516,329.562 232.223,322.012 C249.363,303.949 272.957,299.441 295.055,310.336 C300.789,313.172 305.641,315.199 306.551,314.727 C306.719,312.965 307.707,307.18 309.641,301.715 C317.309,265.871 345.246,238.367 374.309,238.52 L384.098,239.012 L384.48,384.535 L250.461,384.395 C135,384.48 117.125,385.023 118.527,382.863"/>
  <path fill="rgb(2.352941%, 7.45098%, 85.490196%)" opacity="0.985" d="M278.559,262.867 C275.129,259.883 275.211,252.164 278.699,249.258 C280.328,247.883 284.227,246.945 287.504,247.059 C294.551,247.879 298.715,256.547 294.414,261.902 C291.465,265.953 282.066,266.637 278.559,262.867"/>
  <path fill="rgb(96.470588%, 53.333333%, 1.960784%)" opacity="0.993" d="M89.176,110.227 C83.535,106.902 80.941,102.867 80.98,96.281 C81.078,88.637 86.133,83.004 93.836,81.754 C98.887,80.852 100.887,81.723 105.879,86.184 C112.75,93.793 112.613,100.391 105.633,107.852 C99.402,113.098 95.301,113.723 89.176,110.227"/>
  <path fill="rgb(0.784314%, 8.627451%, 89.019608%)" opacity="0.976" d="M175.387,151.203 C169.941,145.387 170.84,136.816 177.109,132.324 C180.184,130.535 183.996,129 185.922,129.414 C191.984,129.121 198.914,136.594 198.508,142.707 C198.508,149.215 190.383,155.941 183.59,155.172 C181.055,155.281 177.098,153.609 175.387,151.203"/>
  <path fill="rgb(99.215686%, 61.960784%, 40.784314%)" opacity="0.953" d="M161.82,235.34 C160.145,230.594 163,226.254 167.883,226.57 C171.809,226.652 174.926,233.621 172.555,237.312 C170.188,240.797 163.398,239.809 161.82,235.34"/>
  <path fill="rgb(96.470588%, 85.882353%, 30.196078%)" opacity="0.99" d="M104.988,261.75 C100.594,256.84 100.758,254.762 105.613,250.246 C109,247.277 110.293,247.074 114.465,249.25 C120.82,251.824 121.562,260.211 115.676,263.328 C110.113,266.227 108.578,265.852 104.988,261.75"/>
  <path fill="rgb(59.607843%, 15.294118%, 100%)" opacity="0.859" d="M58.129,287.449 C61.023,285.07 65.844,283.473 70.641,283.441 C75.246,283.59 80.121,285.332 82.938,287.938 L87.781,291.602 L53.023,291.34 L58.129,287.449"/>
  <path fill="rgb(63.137255%, 16.078431%, 100%)" opacity="0.861" d="M167.832,287.562 C173.309,282.926 185.551,282.438 190.871,286.703 C192.531,288.059 194.152,289.867 194.18,290.828 C194.172,291.344 186.957,291.703 178.703,291.559 L162.918,291.207 L167.832,287.562"/>
  <path fill="rgb(98.039216%, 53.333333%, 29.411765%)" opacity="0.963" d="M360.598,271.676 C358.289,267.16 360.496,260.457 364.238,261.164 C365.699,261.402 368.266,263.484 369.75,265.363 C371.875,268.246 371.828,269.891 369.684,271.73 C364.926,275.562 362.758,275.355 360.598,271.676"/>
  <path fill="rgb(98.039216%, 51.764706%, 10.980392%)" opacity="0.976" d="M351.324,308.273 C347.242,302.938 350.23,296.754 356.531,297.098 C360.078,297.305 362.293,298.859 362.582,301.594 C363.324,305.762 358.824,312.191 355.652,311.742 C354.816,311.801 352.789,310.059 351.324,308.273"/>
  <path fill="rgb(0%, 9.803922%, 88.627451%)" opacity="0.988" d="M40.383,347.359 C34.496,341.152 37.883,334.758 49.305,330.977 C51.969,330.934 56.199,327.992 58.812,324.387 C65.695,317.539 74.148,317.293 80.777,323.594 C82.914,326.297 84.664,329.34 84.746,330.559 C85.164,330.969 87.918,332.441 91.422,332.484 C98.578,334.34 103.477,338.77 102.473,343.223 C103.301,349.777 99.777,351.414 71.203,351.598 C46.539,351.078 42.641,350.543 40.383,347.359"/>
  <path fill="rgb(97.647059%, 48.235294%, 9.411765%)" opacity="0.987" d="M247.965,343.898 C244.414,342.285 245.27,334.758 249.457,333.176 C251.008,332.617 254.27,333.551 255.926,335.715 C258.555,338.66 258.77,340.105 256.371,342.527 C253.18,346.07 252.164,346.141 247.965,343.898"/>
  <path fill="rgb(4.313725%, 11.372549%, 87.058824%)" opacity="0.986" d="M275.465,361.66 C269.074,358.602 268.148,349.059 273.965,345.18 C279.543,341.207 283.973,341.473 288.445,345.871 C293.121,350.676 292.891,354.402 287.395,359.746 C282.176,364.945 281.844,364.941 275.465,361.66"/>
  <path fill="rgb(96.078431%, 55.686275%, 3.529412%)" opacity="0.993" d="M326.426,359.781 C319.875,351.133 322.148,341.613 331.441,336.609 C338.016,333.664 341.445,334.316 347.492,339.836 C353.57,346.75 354.328,352.988 348.777,359.812 C345.832,363.484 343.383,364.555 337.656,364.656 C331.918,364.648 329.703,363.461 326.426,359.781"/>
</svg>

