<svg xmlns="http://www.w3.org/2000/svg" width="384" height="384" viewBox="0 0 384 384">
  <defs/>
  <path fill="rgb(1.176471%, 66.27451%, 69.019608%)" opacity="0.995" d="M-0.855,334.113 L-0.855,284.055 L3.258,285.598 C5.316,286.285 12.172,289.711 19.027,293.312 C37.543,303.426 45.598,302.227 65.656,285.254 C76.629,275.484 93.941,266.566 100.801,266.566 C111.258,266.395 118.973,270.508 128.57,280.453 C137.484,290.223 138.855,290.738 145.883,291.082 C149.996,290.738 161.484,288.852 171.254,286.281 C189.082,282.512 189.254,282.34 196.625,273.082 C205.367,263.312 212.738,259.367 221.996,259.539 C231.254,259.711 236.055,261.938 247.883,273.254 C268.281,292.109 279.77,293.141 297.598,276.512 C311.656,264.168 319.027,261.254 331.883,260.91 C345.082,261.254 350.57,263.996 358.453,275.141 C365.309,284.57 371.141,287.996 379.883,286.625 L385.367,286.109 L385.539,383.652 C379.023,383.652 371.824,384.852 365.309,383.824 C356.223,382.281 349.023,379.367 339.422,379.711 C296.051,380.91 252.68,386.055 209.309,384.168 C184.281,383.141 159.594,379.711 134.566,378.684 C89.309,376.969 44.566,384.512 -0.691,384.34 L-0.855,334.113"/>
  <path fill="rgb(1.176471%, 3.529412%, 45.098039%)" d="M0.516,121.543 C-0.34,121.199 -0.684,92.742 -0.34,58.801 L0,-2.57 L71.312,-2.055 L142.113,-1.711 L137.312,2.402 C134.57,4.973 123.254,10.461 111.77,14.918 C64.797,32.918 46.969,49.203 32.227,88.805 C22.801,113.828 20.57,117.602 14.742,120.516 C9.77,123.086 2.398,123.941 0.516,121.543"/>
  <path fill="rgb(1.568627%, 3.529412%, 45.490196%)" d="M132.344,138.344 C111.77,126.855 105.77,98.742 120,79.027 C124.973,72.512 132.172,68.055 138.855,67.543 C142.113,67.371 152.227,72 162.168,78 C183.77,91.199 192.684,92.398 229.883,91.543 C251.996,92.059 256.969,90.855 259.195,88.629 C261.938,86.059 261.594,86.059 259.539,81.773 C255.77,76.801 251.141,74.23 232.625,68.402 C213.938,62.574 209.141,58.289 208.797,47.66 C208.625,38.402 215.484,32.059 225.082,31.547 C231.938,31.719 234.852,33.945 243.77,46.461 C246,50.402 252.168,55.203 257.484,57.262 C265.199,61.031 269.656,62.406 289.199,63.605 C302.398,63.434 316.457,65.148 320.914,65.836 C328.457,67.035 336.172,65.148 335.312,61.895 C335.484,57.781 327.082,51.781 315.598,49.379 C299.141,43.551 291.082,32.578 298.285,24.523 C300,22.465 304.113,21.266 307.715,21.094 C313.199,20.922 316.113,22.809 324,31.035 C328.801,36.863 336.344,42.008 339.77,43.723 C349.883,47.836 374.914,45.781 380.227,40.293 C382.797,38.406 380.398,33.094 375.426,31.551 C373.027,30.523 368.055,29.152 363.77,28.98 C355.711,27.609 345.598,19.379 342.512,10.637 C337.539,-1.191 337.711,-0.848 362.398,-0.164 L384.168,-0.336 L384.168,71.32 C384.34,110.578 384.168,142.633 383.824,143.492 C381.938,143.492 379.367,141.777 376.453,139.551 C372.852,137.32 367.883,129.781 362.223,116.238 C353.824,94.469 345.422,87.266 334.793,85.895 C324.508,83.152 309.594,88.465 302.906,97.207 C300.508,98.922 293.477,108.352 287.992,118.637 C278.734,133.207 274.965,136.637 268.621,140.066 C264.68,141.781 259.707,143.152 258.508,142.809 C253.195,142.98 245.48,136.98 237.766,124.809 C227.652,109.207 218.566,104.578 205.707,106.121 C192.68,107.664 187.879,110.578 177.938,124.637 C167.652,137.324 157.195,143.324 147.082,142.637 C144,142.629 137.484,140.742 132.344,138.344"/>
  <path fill="rgb(0%, 69.019608%, 71.764706%)" opacity="0.986" d="M26.398,261.086 C18.512,258.172 13.027,253.371 6.168,242.742 L-0.348,232.113 L-0.52,201.598 C-0.688,173.145 -0.688,170.914 2.398,171.43 C25.027,178.801 26.055,178.801 31.883,165.945 C37.711,153.43 42.168,148.801 50.227,144.859 C59.656,140.918 68.055,140.746 83.828,143.832 C97.543,147.262 103.715,151.031 108.344,160.461 C111.43,168.004 118.457,172.117 129.602,173.488 C142.289,175.887 148.457,174.004 160.289,162.344 C184.117,140.059 202.977,137.656 217.719,155.828 C224.918,164.742 230.746,167.656 250.633,173.141 C268.805,178.625 273.605,178.113 293.832,166.453 C325.547,150.34 336.859,150.512 360.176,165.426 C366.691,169.883 373.891,173.656 376.461,174.168 C378.859,174.684 381.773,175.195 383.148,175.539 C384.52,176.055 385.207,181.539 385.035,195.77 L385.035,215.312 L379.723,210.855 C374.066,205.711 365.836,203.656 354.695,204.512 C342.867,205.367 335.668,211.027 323.496,229.711 C310.98,250.281 304.641,255.598 296.066,255.598 C282.695,255.941 272.41,246.512 261.953,223.199 C258.352,213.941 252.695,204.344 249.953,202.285 C240.012,193.715 222.867,192.516 206.41,199.199 C198.695,202.801 195.098,207.77 192.352,222 C188.066,245.312 179.836,254.23 166.809,252 C157.039,249.941 152.75,247.027 136.809,225.941 C121.207,204.512 111.609,197.312 100.465,197.484 C85.895,197.656 80.234,203.141 71.32,228.684 C64.977,246.34 59.148,254.914 51.777,258.684 C45.086,261.43 32.398,262.973 26.398,261.086"/>
  <path fill="rgb(16.078431%, 37.647059%, 44.313725%)" d="M253.199,382.113 C253.199,378.344 262.969,368.055 268.969,365.484 C272.227,364.113 274.113,361.883 274.113,360 C274.113,348.344 285.941,337.887 297.086,339.602 C300,339.945 304.973,338.914 308.57,337.203 C316.285,333.262 321.426,333.09 328.113,336.516 C334.969,339.945 336.855,344.059 336.855,355.203 L337.027,364.461 L344.398,363.945 C351.254,363.258 352.629,363.945 356.57,368.918 C359.141,371.832 361.371,375.434 361.371,376.633 C361.371,377.832 362.059,380.062 362.398,381.777 C363.426,384.176 357.941,384.52 308.227,384.691 C261.086,384.855 253.199,384.344 253.199,382.113"/>
  <path fill="rgb(15.686275%, 36.862745%, 43.529412%)" d="M38.742,379.887 C38.742,374.059 42.855,365.828 46.629,364.629 C48.344,363.941 49.027,361.199 49.027,357.43 C49.027,349.371 56.914,340.973 63.941,340.801 C66.684,340.801 72,338.914 75.77,336.516 C84.168,331.371 91.199,331.031 98.227,335.316 C101.312,337.031 107.656,338.746 112.797,339.258 C120.855,340.113 123.082,341.145 127.883,346.285 C130.969,349.715 133.539,354.172 133.539,356.055 C133.539,358.113 136.109,361.199 140.738,363.941 C144.34,366.34 148.969,370.629 150.508,373.371 C153.078,377.828 154.109,378.344 158.566,377.656 C161.309,376.969 168.168,376.629 173.652,376.629 C182.395,376.629 183.938,376.113 183.938,373.371 C183.766,371.828 185.137,368.57 186.508,366.516 C188.566,363.258 190.793,362.746 195.422,363.086 C202.277,363.773 206.906,368.398 209.652,377.828 L211.367,383.484 L38.738,384 L38.742,379.887"/>
  <path fill="rgb(20%, 61.176471%, 61.176471%)" opacity="0.962" d="M362.398,189.77 C358.629,186.684 360.34,183.598 365.656,183.254 C368.914,183.254 370.457,184.625 369.598,187.195 C367.887,191.656 365.145,192.516 362.398,189.77"/>
</svg>

