<svg xmlns="http://www.w3.org/2000/svg" width="384" height="384" viewBox="0 0 384 384">
  <defs/>
  <path fill="rgb(0%, 63.529412%, 3.921569%)" opacity="0.997" d="M133.523,54.949 C112.727,49.719 85.883,32.57 72.32,15.203 C68.324,10.25 65.277,5.547 65.277,4.922 C65.191,2.008 84.473,0.414 112.883,-0.012 C138.23,-0.227 141.355,0.285 155.578,5.086 C175.785,11.477 207.391,27.039 207.664,30.434 C207.527,34.223 186.969,47.496 174.336,51.887 C159.867,57.055 146.422,57.973 133.523,54.949"/>
  <path fill="rgb(97.647059%, 36.470588%, 0%)" opacity="0.991" d="M84.574,379.281 C52.379,362.176 31.668,326.336 31.527,288.355 C31.816,269.352 34.109,254.691 40.703,235.824 L46.27,220.613 L42.066,217.754 C39.805,216.461 33.383,211.254 28.047,205.902 C17.152,195.707 8.535,180.594 2.383,159.957 C-2.723,142.191 -2.512,114.137 3.25,97.977 C8.859,80.926 14.703,69.883 24.996,57.336 C38.766,40.086 53.836,29.602 71.164,24.957 C78.387,22.789 78.855,23.008 85.062,28.504 C101.234,43.137 118.547,52.152 137.41,56.07 C149.836,58.117 158.16,57.324 173.195,52.395 L182.914,48.879 L189.484,55.887 C202.625,70.348 214.93,103.574 214.961,124.652 C214.602,132.691 216.27,133.215 224.371,127.996 L229.898,124.641 L233.59,128.504 C235.676,130.551 241.551,134.098 247.031,136.812 C255.344,140.375 259.148,141.215 271.41,141.305 C284.066,141.141 287.273,140.488 297.211,135.723 C303.426,132.641 311.828,127.516 315.578,123.762 C319.809,120.266 324.227,117.75 325.359,117.941 C329.309,117.746 345.617,126.113 354.516,133.066 C364.867,140.902 371.656,148.52 379.707,162.559 L385.066,171.469 L385.16,303.52 L376.637,312.176 C366.305,323.117 354.801,329.023 333.668,334.723 C311.508,340.523 290.184,341.488 270.473,338.133 C262.078,336.488 254.977,335.469 254.988,335.793 C254.961,335.633 251.387,341.039 247.098,347.68 C236.457,362.582 225.594,372.141 210.145,379.359 L197.633,384.969 L146.223,385.133 L94.773,384.754 L84.574,379.281"/>
  <path fill="rgb(27.45098%, 68.235294%, 45.882353%)" opacity="0.915" d="M82.41,0.422 C86.152,-0.316 92.043,-0.688 95.113,-0.34 C97.996,0.727 94.906,1.332 87.867,1.359 C80.938,1.738 78.492,1.363 82.41,0.422"/>
  <path fill="rgb(0.392157%, 67.058824%, 3.921569%)" opacity="0.999" d="M252.211,138.531 C241.27,134.699 231.758,128.211 231.676,124.672 C231.781,119.625 239.176,107.504 246.859,99.469 C262.848,83.68 291.934,73.898 324.945,73.754 C340.926,73.859 345.266,74.383 346.004,76.242 C347.953,81.137 334.102,104.477 322.258,116.902 C306.82,132.453 291.551,140.023 273.844,140.852 C264.574,141.438 258.457,140.715 252.211,138.531"/>
  <path fill="rgb(99.215686%, 65.882353%, 23.921569%)" opacity="0.925" d="M212.742,180.66 C222.727,171.102 227.062,170.68 226.711,179.316 C226.547,182.305 223.777,184.941 220.484,185.738 C202.93,189.805 202.84,189.801 212.742,180.66"/>
  <path fill="rgb(0%, 64.705882%, 3.921569%)" opacity="0.993" d="M143.008,200.387 C128.98,197.496 115.883,191.879 101.227,182.418 C89.273,175.012 73.715,161.621 73.66,159.117 C73.68,156.895 94.141,150.75 113.707,146.789 C157.363,138.176 188.176,144.352 211.094,166.035 L220.621,174.797 L213.16,181.441 C199.258,194.383 177.379,203.266 160.293,202.855 C156.859,202.875 149.023,201.625 143.008,200.387"/>
</svg>

