<svg xmlns="http://www.w3.org/2000/svg" width="384" height="384" viewBox="0 0 384 384">
  <defs/>
  <path fill="rgb(0%, 0%, 0%)" d="M220.457,188.914 C217.027,181.887 203.312,168 196.801,164.398 C194.059,163.199 190.113,158.914 188.059,154.969 C186,150.168 182.746,147.082 178.629,145.367 C175.027,144.168 170.57,140.223 168.172,136.109 C162.172,125.996 154.801,122.051 143.145,122.223 C138.172,122.223 131.145,122.738 128.059,124.109 C119.66,126.68 109.715,135.254 105.43,144.68 L100.629,152.738 L97.715,145.371 C91.371,130.113 81.43,123.43 64.457,123.602 C52.113,123.945 42.855,127.031 32.742,135.43 C31.371,136.285 30.512,136.973 28.973,136.973 C29.488,126.516 50.059,110.402 57.945,103.371 C73.203,89.656 91.547,80.398 106.289,66.344 L113.832,59.488 L117.773,65.145 C121.203,72.172 129.258,77.66 149.488,87.258 C167.488,96.688 168.859,95.828 165.258,75.086 C162.516,54.172 163.887,51.602 171.086,61.371 C176.059,69.941 176.23,70.113 184.285,68.227 C188.914,68.398 193.199,67.883 193.715,67.027 C194.23,66.684 195.773,61.715 196.629,56.227 C199.543,46.797 199.887,46.797 202.629,51.598 C203.656,54.684 205.027,62.055 205.887,68.742 C206.914,86.227 207.773,86.742 216.859,75.77 C229.887,61.371 237.258,48.34 236.918,39.426 L236.918,30.684 L274.805,31.883 C302.234,31.027 315.949,32.398 325.719,34.797 C338.918,37.711 356.918,44.91 358.805,48.34 C359.492,49.367 354.52,49.539 346.977,49.367 C330.004,47.996 317.832,51.426 308.918,59.652 C300.52,68.223 297.09,78.168 296.746,95.48 L297.262,109.879 L292.289,105.594 C280.461,94.109 260.746,91.707 245.66,100.449 C233.488,107.477 229.375,113.648 230.23,127.02 C230.059,142.789 228.688,163.363 225.945,179.648 L223.715,195.078 L220.457,188.914"/>
  <path fill="rgb(100%, 80.784314%, 16.078431%)" d="M178.285,97.027 C173.828,92.914 176.055,89.141 180.684,92.742 C185.312,96.512 188.055,96.512 190.797,92.398 C193.711,88.457 196.625,88.285 196.797,92.055 C197.145,98.398 183.941,102 178.285,97.027"/>
</svg>

