<svg xmlns="http://www.w3.org/2000/svg" width="384" height="384" viewBox="0 0 384 384">
  <defs/>
  <path fill="rgb(74.509804%, 27.843137%, 0%)" opacity="0.995" d="M158.742,193.199 C148.629,190.629 143.312,188.227 138.855,184.457 C134.914,180.688 135.254,171.43 134.227,166.285 C133.199,160.629 132.512,152.227 127.199,148.801 C124.969,147.258 122.227,147.086 119.484,146.914 C104.227,146.227 89.828,149.828 75.598,141.941 C74.227,141.254 72.855,140.398 72.168,139.027 C68.227,133.027 80.91,126.512 83.996,122.914 C88.969,117.258 93.598,111.258 97.539,104.914 C102.684,98.914 109.367,91.887 112.969,88.973 C121.367,82.457 131.484,78.344 141.598,75.602 C150.168,73.371 163.027,69.43 171.941,71.316 C176.914,72.344 179.656,77.316 184.113,79.375 C189.941,82.117 197.484,81.605 203.656,81.605 C208.801,81.605 213.941,81.262 218.742,79.719 C222.172,78.691 225.77,76.977 228.344,74.406 C229.715,73.035 230.059,70.465 231.258,69.605 C234.344,67.375 242.402,69.09 245.828,69.09 C283.027,69.262 325.543,85.375 331.027,102.004 C333.426,107.66 330.34,132.691 325.371,141.605 C318.344,157.207 303.258,166.121 287.484,170.918 C270.684,176.062 252,175.375 235.883,182.062 C221.824,187.891 207.082,190.977 191.996,192.176 C181.371,193.199 169.027,195.086 158.742,193.199"/>
  <path fill="rgb(98.039216%, 97.254902%, 74.901961%)" opacity="0.905" d="M130.801,207.602 C108,195.258 88.973,181.543 84.516,173.316 C81.773,169.203 69.602,154.461 78.688,150.516 C84.688,147.945 94.289,149.316 100.457,149.316 C113.312,149.145 126.516,148.801 129.258,147.945 C133.543,146.574 134.402,147.09 135.602,150.859 C136.117,153.43 135.945,162.172 134.574,170.059 C132.688,183.43 132.688,185.66 136.289,195.43 C138.52,201.086 140.746,207.43 141.434,209.145 C143.656,213.602 141.77,213.086 130.801,207.602"/>
  <path fill="rgb(83.137255%, 40.784314%, 0%)" opacity="0.999" d="M156.688,357.77 C143.66,354.168 131.832,343.711 137.316,328.969 C139.203,323.656 144.004,319.199 149.66,318.512 C153.43,317.996 157.031,319.027 160.805,319.711 C167.66,321.082 174.691,321.77 181.719,321.426 C186.691,321.254 192.004,320.57 196.633,322.281 C201.777,324.168 205.719,328.453 207.945,333.426 C210.516,339.254 210.688,346.453 207.09,351.941 C202.977,358.285 195.09,360.855 187.547,361.027 C177.602,361.199 166.285,360.172 156.688,357.77"/>
  <path fill="rgb(59.215686%, 20%, 7.843137%)" opacity="0.862" d="M214.285,117.941 C210.516,111.254 216.172,103.711 224.742,103.883 C228.512,104.055 231.258,108.34 231.43,113.484 C231.258,123.602 219.43,126.688 214.285,117.941"/>
  <path fill="rgb(0%, 12.54902%, 37.647059%)" opacity="0.986" d="M241.027,126.688 C232.285,121.031 227.828,114 226.797,106.457 L226.625,100.973 L221.824,104.574 C213.594,109.887 203.652,110.402 193.367,105.773 C185.137,101.488 181.711,97.375 178.281,88.289 C173.137,76.805 179.652,60.004 191.824,56.059 C201.766,52.973 212.566,52.289 222.168,57.773 C228.168,61.375 232.797,69.773 232.281,76.973 C231.938,82.629 232.797,87.086 232.797,87.086 C232.109,86.57 236.227,84 240.34,78.855 C253.883,74.398 262.109,75.77 272.227,86.227 C289.027,104.398 280.285,125.828 254.742,128.57 C248.398,129.77 244.973,129.43 241.027,126.688"/>
  <path fill="rgb(98.039216%, 58.039216%, 0%)" opacity="0.955" d="M77.484,150 C73.883,149.656 69.941,149.312 68.914,145.371 C68.227,142.801 69.086,137.828 72,136.973 C74.914,136.285 78.855,138.344 81.602,139.203 C90.859,141.773 101.145,140.918 110.574,141.262 C117.602,141.434 126.344,135.777 133.031,138.863 C136.117,140.234 138.344,144.52 135.773,147.434 C133.203,150.348 125.488,150.348 122.059,150.691 C107.312,152.398 92.23,151.715 77.484,150"/>
  <path fill="rgb(98.431373%, 92.54902%, 65.490196%)" opacity="0.892" d="M228.688,182.742 C233.488,180.684 237.773,176.742 242.574,175.543 C249.773,173.828 257.66,173.656 265.031,172.801 C277.887,171.258 288.688,171.086 300.344,164.23 C310.285,158.402 319.715,150.172 325.031,139.715 C328.461,132.516 329.66,127.027 330.516,114.172 C330.516,111.773 329.488,104.742 331.715,103.371 C334.801,101.312 340.285,107.484 342,109.371 C359.145,127.543 362.23,143.656 352.629,161.312 C349.199,168.512 331.027,185.312 318.344,192 C310.285,196.457 302.059,200.914 293.828,205.199 C286.113,209.141 281.312,214.801 272.57,217.199 C252.172,222.684 231.086,228.344 210.34,224.57 C205.711,223.715 199.027,221.828 199.883,216 C200.57,211.543 204.684,205.371 206.738,201.258 C211.715,192.172 219.602,187.027 228.688,182.742 Z"/>
  <path fill="rgb(35.686275%, 9.411765%, 5.098039%)" opacity="0.989" d="M138.344,211.027 C133.031,209.141 123.258,203.828 116.742,199.371 C111.086,195.43 104.398,192.684 99.43,188.059 C94.801,183.602 91.543,177.945 87.086,173.316 C82.457,168.516 74.398,162.859 74.398,173.832 C74.398,182.23 78.684,190.117 83.312,196.805 C87.254,202.461 92.914,211.547 99.254,214.805 C104.227,217.375 111.426,221.832 115.195,225.09 C120.34,229.203 126.852,231.777 131.824,236.062 C135.766,239.32 141.082,244.977 146.91,242.234 C147.766,241.891 148.453,241.207 148.969,240.691 C154.453,235.547 157.199,230.75 154.281,223.207 C151.715,217.199 144.172,213.086 138.344,211.027 Z"/>
  <path fill="rgb(62.745098%, 19.215686%, 4.313725%)" opacity="0.93" d="M65.312,250.801 C60.168,242.23 62.398,241.031 77.656,243.945 C91.543,246.344 94.801,249.43 91.371,255.09 C88.113,259.547 82.801,262.977 78.516,262.117 C74.398,261.43 68.57,256.285 65.312,250.801"/>
  <path fill="rgb(26.27451%, 6.27451%, 3.137255%)" opacity="0.995" d="M196.113,231.77 C196.457,226.285 198.344,222.512 204.172,221.141 C207.773,220.285 211.543,220.797 215.145,221.312 C235.715,223.371 256.629,219.426 276,212.055 C295.371,204.684 313.199,194.055 330.344,182.398 C332.742,180.684 335.316,178.969 338.23,178.457 C341.145,177.941 344.574,179.145 345.773,181.715 C347.316,185.145 344.574,188.914 342.172,191.656 C338.742,195.426 335.316,199.199 332.059,202.969 C323.828,212.055 315.258,221.141 304.801,227.656 C291.602,235.887 276.172,239.484 260.914,241.199 C245.484,242.914 230.059,242.914 214.629,244.457 C210.516,244.801 206.398,245.312 202.457,244.113 C196.457,242.57 195.602,237.086 196.113,231.77"/>
  <path fill="rgb(97.254902%, 58.039216%, 0.392157%)" d="M185.312,220.285 C173.141,220.285 159.598,219.086 147.941,216.344 C139.883,214.457 136.629,202.629 134.742,195.086 C134.055,192.172 133.715,189.258 133.199,186.344 C132.855,184.629 131.484,181.543 131.656,179.828 C132.684,172.113 144,182.742 147.086,184.285 C162.172,191.828 177.43,192.855 193.887,190.457 C199.031,189.77 209.828,185.828 214.629,188.57 C220.285,191.656 216.172,205.199 214.113,209.828 C211.543,215.484 208.113,220.457 201.77,220.629 C196.285,220.801 190.801,220.457 185.312,220.285 Z"/>
  <path fill="rgb(98.431373%, 88.627451%, 61.960784%)" opacity="0.985" d="M359.145,241.199 C362.402,226.801 359.488,209.312 351.945,197.312 C349.031,192.512 347.832,189.082 342.004,192.684 C337.891,195.254 334.805,199.883 331.719,203.312 C326.062,209.312 319.891,215.141 313.375,220.113 C308.402,223.883 302.918,229.027 296.746,230.398 C279.434,234.684 261.602,237.254 243.945,239.141 C234.176,240.168 224.059,240.512 214.117,240.855 C207.945,241.199 201.773,241.199 195.602,241.027 C191.832,240.855 184.117,242.742 184.117,247.543 C184.117,250.285 186.859,252.516 187.203,255.43 C187.719,260.059 187.203,264.859 187.375,269.316 C187.719,275.832 187.547,283.203 185.316,289.375 C184.117,292.977 179.66,297.773 181.203,301.719 C182.918,306.004 188.574,304.461 192.004,304.461 C200.062,304.633 207.945,304.805 216.004,304.633 C249.773,304.289 289.547,306.176 318.52,285.605 C325.035,280.977 329.492,274.633 335.492,269.664 C341.492,264.863 348.348,262.465 352.977,255.777 C354.52,253.547 355.719,250.977 356.746,248.406 C357.77,246.344 358.457,243.941 359.145,241.199 Z"/>
  <path fill="rgb(96.470588%, 56.078431%, 0.784314%)" d="M174.344,304.801 C171.602,304.285 162.172,301.371 153.602,298.285 C137.832,292.801 137.488,292.457 136.457,285.598 C135.941,281.656 136.629,274.969 137.656,270.512 C138.684,266.398 139.199,256.969 138.855,249.941 L138,237.426 L147.43,238.797 C152.402,239.652 166.801,240.684 179.316,241.027 L201.773,241.715 L199.543,247.027 C198,250.113 197.484,258.855 199.027,268.457 C199.543,283.715 198.855,285.77 193.199,295.715 C187.543,306.855 187.199,307.027 174.344,304.801"/>
  <path fill="rgb(29.411765%, 8.627451%, 4.705882%)" opacity="0.996" d="M278.059,322.285 C261.773,326.914 244.457,328.457 227.488,327.43 C219.258,326.914 183.945,325.031 186.516,312.172 C186.859,310.113 187.543,308.059 188.23,306.172 C189.086,304.113 190.117,302.059 192.172,301.199 C197.828,298.801 207.941,301.715 213.941,302.227 C251.141,305.141 297.941,303.254 326.914,275.828 C329.484,273.43 332.398,271.371 334.801,268.801 C337.887,265.371 340.113,259.031 344.57,263.656 C347.656,266.742 346.629,270.855 345.598,274.969 C344.398,280.113 341.656,283.367 338.055,286.797 C334.285,290.566 331.367,295.027 327.426,298.797 C317.484,308.23 295.543,318.855 278.059,322.285 Z"/>
  <path fill="rgb(59.215686%, 17.254902%, 0.392157%)" opacity="0.983" d="M174.855,242.57 C166.457,242.57 156.168,243.258 147.941,241.715 C139.711,240.172 139.711,224.57 140.742,217.887 C140.914,216.859 141.086,215.828 141.77,214.973 C143.828,212.574 156.512,217.203 159.77,217.715 C167.656,218.914 175.539,219.43 183.426,219.773 C186.512,219.945 189.426,220.117 192.512,220.289 C195.082,220.461 199.711,219.434 202.281,220.461 C207.426,222.691 205.883,230.23 204.68,234.348 C203.309,239.148 203.137,241.891 198.164,242.234 C190.285,242.914 182.398,242.57 174.855,242.57 Z"/>
  <path fill="rgb(98.431373%, 80%, 14.117647%)" d="M277.371,260.914 C274.973,257.828 279.258,248.742 283.027,248.57 C284.914,248.57 286.113,251.828 285.941,255.598 C285.941,262.629 282,265.371 277.371,260.914"/>
  <path fill="rgb(98.431373%, 96.862745%, 72.941176%)" opacity="0.962" d="M145.027,290.23 C142.113,291.602 137.828,289.203 134.742,288 C123.43,283.887 112.629,278.23 101.484,273.43 C89.312,268.285 60.684,258 61.883,241.715 C61.367,234.172 63.77,226.973 66.684,220.285 C70.113,212.914 72.855,205.543 77.312,198.516 C81.426,191.828 94.625,207.602 97.199,210.516 C105.258,219.602 113.656,224.23 124.969,229.031 C130.281,231.262 135.941,233.145 140.398,236.918 C146.742,242.23 146.57,250.805 146.914,258.348 C147.086,264.863 147.43,271.375 147.258,277.891 C147.258,280.805 148.629,285.434 147.258,288.176 C146.57,289.199 145.887,289.887 145.027,290.23 Z"/>
  <path fill="rgb(1.568627%, 14.901961%, 34.509804%)" opacity="0.991" d="M54.516,298.285 C46.801,289.887 44.746,278.227 49.031,266.227 C51.262,262.457 54.004,260.055 63.09,255.941 C69.434,253.199 75.605,250.285 77.32,250.629 C82.977,250.285 97.035,260.57 99.262,267.602 C102.52,278.059 101.32,288.688 96.52,293.145 C90.348,298.801 80.234,302.914 69.777,302.402 C62.059,302.23 59.145,301.199 54.516,298.285"/>
  <path fill="rgb(89.019608%, 45.882353%, 0%)" opacity="0.935" d="M172.457,271.199 C170.742,267.77 176.914,261.941 181.371,263.656 C183.086,264.344 184.285,266.742 183.941,268.457 C182.742,273.086 174.688,274.973 172.457,271.199"/>
  <path fill="rgb(63.137255%, 18.823529%, 0.392157%)" opacity="0.993" d="M150.688,315.258 C149.66,313.887 148.801,312.172 148.289,310.285 C147.09,306.344 146.402,302.055 146.402,297.941 C146.23,288.34 156.516,294.172 162.004,295.027 C166.805,295.715 171.605,296.57 176.402,297.258 C180.859,297.945 187.715,297.773 191.66,299.656 C196.461,302.055 195.43,312.684 196.117,317.484 C196.805,322.797 194.059,327.086 188.746,328.457 C180.688,330.516 170.918,328.113 163.719,324.688 C158.742,322.113 153.77,319.543 150.688,315.258 Z"/>
  <path fill="rgb(97.647059%, 76.470588%, 18.431373%)" opacity="0.909" d="M87.941,237.258 C83.312,232.285 80.398,225.086 79.543,218.402 C79.027,213.258 80.398,201.773 88.457,205.031 C93.602,207.09 96,211.719 100.285,214.801 C105.086,218.23 110.742,221.145 115.715,224.402 C121.027,227.832 133.027,230.574 121.887,237.43 C119.316,238.973 116.402,239.66 113.656,240.516 C106.629,242.059 93.258,242.742 87.941,237.258"/>
  <path fill="rgb(36.078431%, 10.196078%, 5.882353%)" opacity="0.994" d="M129.43,305.656 C122.059,303.086 115.031,298.969 109.031,294 C106.117,291.43 103.203,288.688 101.316,285.258 C98.746,280.973 95.316,268.113 104.402,271.027 C109.547,272.742 114.516,275.141 119.488,277.543 C122.746,279.086 125.832,280.801 129.09,282.172 C133.375,283.887 137.832,285.258 141.945,287.316 C146.059,289.375 150.004,292.461 151.887,296.574 C153.43,300.176 153.43,307.203 149.488,309.602 C145.547,312 137.488,308.914 133.887,307.031"/>
</svg>

