<svg xmlns="http://www.w3.org/2000/svg" width="384" height="384" viewBox="0 0 384 384">
  <defs/>
  <path fill="rgb(93.333333%, 60.784314%, 24.313725%)" opacity="0.988" d="M157.887,382.629 C143.828,378.344 126.172,365.316 117.773,353.145 C88.801,310.973 71.145,250.289 90.172,200.914 C96.172,185.312 109.199,178.113 123.602,171.086 C140.914,162.688 157.715,154.457 174.344,144.855 C198.344,131.312 230.574,118.797 258.172,126.168 C279.43,132 287.145,149.145 299.828,165.086 C312,180.344 322.973,196.801 330.344,214.973 C337.199,231.602 339.945,249.43 335.488,266.914 C332.746,277.887 326.059,286.457 322.289,296.914 C309.434,332.227 278.574,361.027 245.145,376.801 C219.258,388.973 185.145,390.855 157.887,382.629"/>
  <path fill="rgb(0.392157%, 48.235294%, 0.392157%)" opacity="0.995" d="M127.199,191.656 C121.543,186.684 112.801,187.199 105.941,185.828 C97.027,183.941 88.285,181.199 79.711,177.941 C62.055,171.254 42.512,161.484 29.48,147.598 C26.223,144.168 23.309,138.512 26.566,134.91 C28.965,132.34 33.254,132.68 36.68,133.539 C63.43,139.199 78.688,129.77 101.145,116.914 C128.23,101.484 163.887,93.086 192.344,109.371 C199.543,113.484 206.23,119.141 214.457,120.684 C207.43,94.453 221.484,65.828 243.43,49.883 C265.371,33.941 293.488,28.797 320.574,28.797 C322.805,28.797 325.203,28.969 326.402,30.684 C327.773,32.57 326.746,35.141 325.887,37.371 C319.371,51.43 312.344,65.312 304.457,78.684 C296.742,91.711 288.344,104.57 276.516,113.996 C260.914,126.34 240,131.48 220.457,128.055 C225.086,128.91 206.227,163.539 204.172,166.113 C194.23,178.113 181.887,186.512 166.285,188.227 C160.113,189.086 130.285,194.742 127.199,191.656"/>
  <path fill="rgb(90.588235%, 33.333333%, 26.27451%)" opacity="0.998" d="M307.371,383.828 C288.684,387.258 270,388.801 250.973,389.141 C241.887,389.312 232.285,389.312 224.574,384.512 C223.203,383.312 224.918,381.426 226.461,380.57 C236.918,374.914 248.062,374.742 258.176,368.227 C267.262,362.227 276.004,355.711 283.891,348.168 C300.176,332.91 313.375,314.398 322.289,293.824 C330.859,273.938 334.805,251.652 330.859,230.395 C327.09,209.824 316.289,191.137 304.801,173.48 C294.344,157.539 283.715,146.566 267.602,136.625 C247.371,124.281 262.457,113.48 280.457,115.711 C313.887,119.824 343.715,141.598 361.715,169.883 C379.715,198.34 386.742,232.625 385.887,266.398 C385.199,291.941 380.23,317.656 367.199,339.598 C353.828,361.715 332.398,379.371 307.371,383.828 Z"/>
  <path fill="rgb(95.686275%, 67.058824%, 47.058824%)" opacity="0.659" d="M382.113,297.77 C382.801,294.855 383.828,294.168 384.172,296.57 C384.516,298.629 383.828,301.027 382.973,301.715 C381.941,302.398 381.43,300.516 382.113,297.77"/>
</svg>

