<svg xmlns="http://www.w3.org/2000/svg" width="384" height="384" viewBox="0 0 384 384">
  <defs/>
  <path fill="rgb(4.705882%, 0%, 56.862745%)" opacity="0.989" d="M215.145,23.312 C209.832,21.77 208.629,17.656 212.914,12.684 C217.715,6.684 224.914,3.082 234.172,1.711 C241.887,1.195 242.57,1.367 243.258,5.48 C245.316,12.68 241.887,18.168 233.656,20.738 C224.914,24 220.457,24.516 215.145,23.312"/>
  <path fill="rgb(0%, 49.803922%, 51.372549%)" opacity="0.994" d="M1.371,382.801 C-0.516,382.801 -1.027,375.086 -1.027,352.629 C-0.512,318.344 -0.512,284.059 -1.027,249.602 C-0.684,222.172 -0.684,219.43 3.086,214.801 C6.516,208.801 21.43,201.43 28.457,201.602 C33.086,201.945 33.602,198 28.973,195.602 C24.344,189.945 27.602,181.371 38.402,174.516 C46.633,168.172 60.004,163.543 67.031,163.031 C71.488,164.059 73.031,163.031 75.09,157.031 C81.262,146.402 96.52,134.746 109.375,132.516 C112.633,131.66 116.062,129.43 117.09,126.172 C123.77,114.855 156,102.516 176.57,104.398 C185.312,103.883 185.656,104.227 187.883,111.254 C189.254,115.883 191.652,119.996 193.367,121.195 C197.48,124.109 199.883,131.824 199.711,141.426 C200.055,149.312 199.539,150.168 190.281,158.57 C177.766,171.086 176.395,174.172 176.051,190.113 C175.535,203.484 177.25,210.512 181.707,210.344 C183.594,210.859 190.965,231.945 190.965,238.629 C190.965,240.859 192.336,245.828 193.707,249.602 C195.938,255.945 195.766,256.629 193.02,259.887 C190.961,261.086 188.391,262.457 186.164,262.801 C185.477,263.488 188.223,267.258 193.363,272.402 C198.508,277.887 205.363,286.461 208.793,291.945 C212.223,298.117 218.562,306.516 222.852,310.461 C232.109,319.891 233.48,326.574 231.25,337.891 C230.562,346.461 224.906,352.289 217.363,351.434 C212.051,351.605 212.391,352.289 217.535,363.777 C220.965,374.578 220.965,380.578 218.562,383.32 C216.848,384.52 202.621,385.207 166.105,385.035 C119.992,385.207 115.191,384.691 113.133,382.121 C107.82,376.809 91.875,345.094 90.504,338.578 C89.816,329.32 87.934,328.465 85.359,335.664 C81.246,341.836 76.102,348.52 64.102,362.75 C55.359,372.352 54.844,374.406 56.043,379.207 L56.559,385.035 L29.988,384.863 C15.086,384.688 2.398,383.828 1.371,382.801"/>
  <path fill="rgb(44.705882%, 41.568627%, 77.254902%)" opacity="0.878" d="M232.973,-0.688 C235.715,-1.887 239.316,-1.543 240.344,-0.344 C241.887,0.855 239.488,1.887 235.199,1.543 C231.086,1.543 229.543,0 232.973,-0.688"/>
  <path fill="rgb(0%, 0%, 99.607843%)" opacity="0.998" d="M177.258,209.312 C176.23,208.797 175.543,201.426 175.887,192.855 C175.543,174.168 177.086,170.57 190.285,158.57 L199.887,149.484 L199.715,140.227 C198.688,129.598 197.145,124.969 191.484,120.34 C188.227,117.254 184.969,106.797 186,104.57 C187.199,103.883 192.516,102.34 198.688,100.969 C206.23,99.77 211.543,97.539 213.945,94.625 C218.746,89.824 220.633,88.625 215.488,55.539 C216.516,47.309 217.203,44.566 219.773,39.598 C222.688,37.367 224.574,34.113 224.402,33.426 C224.402,30.512 233.145,24.855 239.66,24.512 C249.602,22.625 257.488,26.91 262.973,39.082 C268.801,51.598 269.316,52.453 264,50.566 C261.941,48.336 259.027,48.336 252.516,50.738 C247.715,52.797 242.23,53.652 239.828,52.625 C237.258,51.082 235.199,51.082 235.543,51.598 C235.371,53.828 241.715,66.168 249.258,75.941 C253.027,81.77 258,91.199 260.914,97.199 C265.199,106.801 265.887,109.371 266.57,126 C265.371,143.484 264.855,144.344 258.855,157.371 C251.828,172.113 241.883,182.398 227.828,191.656 C214.457,200.914 209.141,203.141 193.887,207.598 C179.656,211.371 178.629,211.199 177.258,209.312"/>
  <path fill="rgb(97.254902%, 25.490196%, 0%)" d="M72.344,185.312 C68.059,182.914 68.23,174 72.516,170.227 C75.258,167.484 98.914,161.656 105.945,161.656 C109.375,161.656 99.43,179.312 93.773,184.113 C88.629,187.887 77.656,188.57 72.344,185.312"/>
  <path fill="rgb(99.607843%, 35.686275%, 0.392157%)" opacity="0.997" d="M28.457,240.344 C23.828,224.402 30.688,216.172 55.371,209.488 C63.77,207.09 71.484,205.547 72.172,206.059 C74.059,207.945 67.371,236.914 64.285,240.172 C60.344,244.285 49.715,247.199 39.086,247.199 C30.688,247.715 30.516,247.715 28.457,240.344"/>
  <path fill="rgb(96.470588%, 34.509804%, 0%)" opacity="0.969" d="M190.629,233.484 C182.57,214.797 182.059,209.141 188.398,207.598 C198.168,205.027 199.199,207.082 199.543,228.684 C200.23,239.656 199.715,248.914 198.516,248.914 C197.828,248.914 194.23,242.059 190.629,233.484"/>
  <path fill="rgb(97.647059%, 33.333333%, 0%)" opacity="0.998" d="M95.312,230.742 C90.168,224.57 90.512,212.227 95.656,206.055 C97.887,203.824 99.598,200.398 99.598,198.684 C99.426,196.285 101.141,195.941 109.027,196.797 C117.941,197.141 118.797,197.484 120,202.969 C120.688,206.055 122.23,209.824 122.914,211.539 C125.828,217.023 124.629,220.797 119.484,225.938 C105.941,237.086 100.457,238.285 95.312,230.742"/>
  <path fill="rgb(90.980392%, 32.54902%, 0%)" opacity="0.991" d="M141.941,208.973 C133.883,199.543 134.227,195.945 144.172,187.031 C148.973,182.402 153.602,178.801 154.285,178.633 C154.973,178.633 158.914,182.918 162.855,188.062 C170.398,199.375 170.055,202.633 160.457,209.492 C153.258,214.973 146.742,214.973 141.941,208.973"/>
  <path fill="rgb(22.745098%, 46.666667%, 36.862745%)" opacity="0.942" d="M193.199,249.086 C191.656,246.688 190.457,242.059 190.113,238.801 L190.285,232.629 L193.543,239.828 C198,248.57 197.656,256.113 193.199,249.086"/>
  <path fill="rgb(95.686275%, 43.921569%, 0%)" opacity="0.993" d="M0.688,322.113 C0.172,321.598 -0.512,311.656 -0.512,300 L-0.684,279.086 L8.746,276 C13.891,274.629 19.375,271.887 21.434,270 C24.176,266.742 34.289,263.484 35.832,265.027 C36.176,265.543 35.316,269.312 33.773,273.426 C32.23,277.711 30.859,285.941 30.859,291.941 C31.203,308.055 27.43,314.227 14.059,318.855 C3.086,323.656 2.398,323.656 0.688,322.113"/>
  <path fill="rgb(35.294118%, 16.862745%, 0.784314%)" d="M198,256.457 C192.172,255.086 192,251.656 196.113,246.855 C197.312,244.797 200.055,243.941 205.715,244.457 C209.484,246 221.316,248.059 232.457,248.57 C252,251.484 254.742,253.199 253.887,257.312 C254.398,259.371 206.57,258.855 198,256.457"/>
  <path fill="rgb(95.686275%, 45.882353%, 0%)" opacity="0.998" d="M78.516,310.285 C68.746,299.312 68.746,280.457 78.516,276 C81.258,274.801 84.516,271.371 85.887,268.801 C87.43,265.887 90,263.316 92.23,262.629 C94.117,262.285 95.66,260.398 95.488,258 C95.832,255.43 98.746,252.688 102.176,252.516 C102.52,252.344 102.863,255.258 103.031,258.859 C102.859,262.461 105.09,270.516 108.004,276.859 C116.746,296.574 116.918,297.945 110.062,305.316 C97.543,318.344 87.086,320.059 78.516,310.285"/>
  <path fill="rgb(94.509804%, 45.882353%, 0%)" opacity="0.992" d="M134.398,276.516 C127.543,267.086 127.711,260.402 134.742,250.629 C137.656,246.172 141.086,240.172 142.113,237.258 C144.172,230.742 147.941,230.059 150.684,235.543 C151.883,237.43 156.684,243.43 161.828,248.398 C170.914,258.855 178.113,275.484 174.684,278.742 C172.113,281.484 160.453,283.715 148.969,284.055 C139.199,284.398 138.688,284.059 134.398,276.516"/>
  <path fill="rgb(98.431373%, 39.215686%, 0.392157%)" d="M56.059,380.57 C54.516,374.57 56.23,370.801 63.945,362.398 C72.859,352.969 80.918,342.34 84.688,335.141 L87.945,328.797 L90.859,338.738 C92.23,344.051 97.887,356.051 103.203,365.309 L112.289,382.453 L106.461,383.824 C103.547,384.512 91.031,384.852 79.031,385.023 C57.258,384.855 57.086,384.855 56.059,380.57"/>
  <path fill="rgb(99.215686%, 46.666667%, 0.392157%)" opacity="0.996" d="M157.543,368.57 C154.113,367.371 151.715,364.285 150.855,361.371 C150.512,356.914 149.312,355.371 145.371,355.199 C141.602,354.512 139.715,352.629 139.199,349.543 C137.484,343.715 139.887,331.887 144.172,326.742 C145.715,324.512 147.941,318 148.801,312.172 C150.688,301.543 154.113,298.629 156.688,305.484 C156.859,307.715 164.059,315.77 172.629,323.141 C184.113,332.398 189.086,338.227 189.773,343.199 C192.344,351.258 191.145,355.199 186.004,355.371 C182.918,355.371 182.746,355.887 184.633,357.77 C185.832,359.141 186.52,362.57 186.348,365.484 C185.832,370.113 185.492,370.285 174.176,370.629 C166.285,371.484 160.629,370.629 157.543,368.57"/>
  <path fill="rgb(50.588235%, 61.176471%, 10.196078%)" opacity="0.994" d="M238.801,42 C233.316,37.543 234.688,33.77 241.371,33.258 C246.855,33.258 257.828,40.113 255.941,42.859 C254.23,46.113 243.77,45.77 238.801,42"/>
  <path fill="rgb(70.980392%, 30.588235%, 6.666667%)" d="M100.285,223.027 C98.914,220.797 100.457,213.941 102.855,213.77 C104.914,213.941 105.254,222.168 103.027,223.711 C102.344,224.23 101.145,223.887 100.285,223.027"/>
  <path fill="rgb(51.764706%, 42.745098%, 19.215686%)" opacity="0.923" d="M103.715,384 C103.887,383.312 107.145,382.629 110.57,382.285 C114.172,382.113 116.742,383.828 115.883,385.715 C115.027,387.945 111.77,388.629 108.855,387.602 C105.77,386.398 103.371,384.688 103.715,384"/>
</svg>

