<svg xmlns="http://www.w3.org/2000/svg" width="384" height="384" viewBox="0 0 384 384">
  <defs/>
  <path fill="rgb(67.45098%, 85.882353%, 0%)" opacity="0.985" d="M92.359,376.746 C80.863,361.086 70.699,329.543 70.715,310.109 C70.98,291.777 77.895,270.883 91.934,247.691 C95.75,241.246 102.969,225.449 107.836,212.203 C126.918,162.281 140.785,143.156 163.004,135.875 C168.613,134.105 170.668,134.121 177.035,136.637 C181.289,138.242 185.566,140.426 186.594,141.859 C190.367,146.387 202.535,146.926 210.152,143.043 C224.043,135.375 239.703,140.605 256.512,158.137 C264.188,166.297 268.504,173.477 277.852,193.227 C284.445,206.945 296.422,228.043 304.883,240.297 C313.23,252.426 322.727,268.07 326.039,274.508 C342.402,307.211 342.754,343.125 327.156,372.949 L321.098,384.891 L98.43,384.895 L92.359,376.746"/>
  <path fill="rgb(0%, 60.392157%, 0%)" opacity="0.993" d="M248.52,123.633 C231.32,118.262 218.859,108.008 213.707,95.371 C209.957,86.398 210.484,68.473 215.039,56.781 C217.875,49.383 221.816,43.758 230.328,35.055 C248.469,17.18 264.219,12.746 309.359,13.184 C323.504,13.199 340.898,12.332 348.188,11.195 C371.742,7.801 375.082,12.516 366.637,37.176 C352.773,78.309 333.59,104.434 307.742,117.238 C290.938,125.746 263.988,128.645 248.52,123.633"/>
  <path fill="rgb(19.607843%, 7.058824%, 1.960784%)" d="M189.441,146.207 C185.938,144.551 185.652,142.949 185.465,118.609 C185.594,80.254 180.961,65.406 160.512,40.785 C148.414,26.199 146.773,18.684 153.883,13.75 C163.473,6.973 174.535,12.609 186.27,29.699 C201.824,53.496 206.637,74.375 206.738,119.324 L206.465,148.098 L199.832,148.047 C196.234,148.035 191.559,147.176 189.441,146.207"/>
</svg>

