<svg xmlns="http://www.w3.org/2000/svg" width="384" height="384" viewBox="0 0 384 384">
  <defs/>
  <path fill="rgb(0%, 0%, 0.392157%)" opacity="0.998" d="M204,362.742 C200.398,358.457 193.371,343.027 190.113,332.055 C187.199,322.453 186,313.711 182.742,273.426 L184.973,225.77 L175.031,234.855 C169.203,240.855 162.004,250.797 156.688,261.426 C145.203,283.367 134.574,299.141 127.031,304.969 C120.004,311.656 118.633,309.426 118.117,291.082 C118.633,269.652 124.633,249.254 138.516,223.367 C144.516,212.395 151.203,203.824 166.801,186.68 C187.543,170.051 191.145,166.281 196.629,151.879 C206.23,133.023 213.602,121.363 226.629,109.879 C236.059,101.648 236.57,101.992 237.773,89.137 C239.316,71.992 241.543,68.223 250.629,58.449 C261.43,47.992 270.859,43.535 285.086,42.336 C300.855,41.137 314.57,45.938 324.516,54.852 C328.973,60.336 330.172,62.91 331.031,67.707 C331.031,72.336 328.633,73.707 321.602,76.621 C317.145,78.852 313.543,81.078 313.031,82.277 C312.859,83.133 315.43,86.734 319.031,90.848 C323.66,95.648 326.746,97.535 330.344,97.363 L335.488,97.363 L332.574,103.879 C328.289,113.992 328.973,119.48 337.887,132.852 C341.316,139.707 345.258,146.566 344.914,153.25 C342,151.363 341.145,146.562 337.887,141.938 C328.117,124.453 322.117,118.625 300.172,114.508 C283.715,110.738 268.973,110.395 258.688,114.852 C246.516,118.621 228.172,136.965 220.973,150.508 C208.457,179.48 198.172,251.652 203.66,293.652 C206.23,325.195 214.973,341.48 231.773,352.281 L239.145,357.766 L230.23,362.395 C220.973,365.484 206.398,365.484 204,362.742"/>
  <path fill="rgb(50.196078%, 85.098039%, 89.803922%)" opacity="0.894" d="M31.199,265.715 C17.484,258.516 14.57,257.828 7.543,258.516 L-0.855,259.203 L-0.855,252.348 C-0.855,248.234 0,244.805 1.715,243.434 C3.258,242.578 4.801,239.148 5.316,236.406 C5.832,233.492 7.375,229.035 8.574,226.293 C10.805,222.18 10.805,220.98 8.574,217.723 C3.262,210.18 5.316,202.465 15.602,188.922 L25.203,176.578 L22.973,168.008 C20.574,158.75 27.258,142.809 39.258,149.664 C42.172,151.207 45.086,152.578 45.945,152.75 C48.344,152.75 52.461,135.605 53.316,119.836 C54.688,102.523 56.059,98.066 67.203,77.492 C71.832,69.094 77.145,58.805 79.203,55.207 C85.203,43.723 97.375,42.52 104.918,52.809 C106.633,55.207 110.402,65.324 112.977,75.094 C115.719,85.035 120.691,100.809 124.121,110.238 C131.836,131.668 132.863,150.867 126.691,158.41 C124.805,160.98 121.719,163.039 119.836,162.867 C115.723,162.867 115.723,165.266 119.148,194.066 C121.719,216.523 123.949,226.297 127.719,234.008 C129.605,237.777 129.605,239.492 127.203,246.523 C124.289,254.41 124.289,254.582 116.746,254.582 C111.602,254.582 102.004,257.324 87.434,263.496 C73.891,268.98 62.062,272.582 56.234,273.098 C47.828,273.602 45.602,273.086 31.199,265.715"/>
  <path fill="rgb(1.568627%, 65.490196%, 82.352941%)" d="M367.543,384.688 C363.602,384.688 356.914,385.715 353.312,383.66 C348.684,381.09 344.57,371.832 342.512,367.375 C336.855,355.375 335.484,341.66 342.684,330.004 C347.312,322.289 351.426,311.832 353.484,301.891 C354.684,296.918 354.855,296.918 369.598,297.09 L384.512,297.262 L383.824,385.031 C383.828,384.855 367.543,384.688 367.543,384.688 Z"/>
  <path fill="rgb(98.823529%, 99.607843%, 98.823529%)" opacity="0.96" d="M244.457,359.145 C228.855,354.516 213.258,338.402 208.285,321.773 C200.227,295.715 199.371,250.801 206.398,208.973 C211.199,181.203 216.168,161.828 221.656,150.344 C227.484,138 242.055,123.43 254.57,117.773 C262.969,113.488 266.742,112.801 280.113,112.629 C302.57,113.145 317.828,117.941 327.426,128.398 C340.625,142.629 347.656,163.027 352.625,202.629 C356.566,233.145 355.883,294.688 351.426,309.602 C346.969,324.859 340.453,336 330.34,345.258 C322.969,351.945 318.855,354.172 309.254,356.57 C296.059,360.172 251.828,361.887 244.457,359.145"/>
  <path fill="rgb(0%, 65.882353%, 82.352941%)" opacity="0.986" d="M-9.258,353.828 L-8.742,321.77 L3.773,320.227 C14.23,318.855 19.715,319.199 36.344,322.457 C60.344,327.258 85.715,327.258 110.059,326.57 C122.574,326.227 135.258,325.543 147.773,324 C155.145,323.145 162.344,320.059 169.887,320.059 C176.742,320.059 181.887,323.145 188.23,324.859 C188.574,324.688 189.258,326.918 190.117,329.66 C190.633,332.402 194.23,340.805 197.66,348.348 C201.262,355.547 205.203,364.805 206.23,368.578 C207.43,372.18 210.172,377.664 212.402,380.578 L216.344,386.234 L-9.598,385.891 L-9.258,353.828"/>
  <path fill="rgb(86.27451%, 16.078431%, 0%)" opacity="0.979" d="M319.027,91.543 C315.426,87.602 312.172,83.484 312.34,82.457 C312.34,81.43 316.797,78.344 322.453,75.602 C330.684,70.973 333.082,70.457 340.969,72 C353.824,74.23 362.738,78.516 368.055,84.688 C370.453,87.773 372.512,90.859 372.512,91.543 C372.512,92.23 364.113,93.773 353.824,94.801 C343.539,96.172 332.91,97.371 330.34,97.543 C326.914,98.398 324.344,97.027 319.027,91.543"/>
  <path fill="rgb(98.431373%, 99.607843%, 98.823529%)" opacity="0.992" d="M282.344,82.285 C276.516,78.172 276.688,69.086 282.344,65.312 C288.344,61.199 291.086,61.543 296.742,66.684 C302.055,72.512 302.227,76.285 297.43,81.426 C292.973,85.887 288.172,86.059 282.344,82.285"/>
  <path fill="rgb(73.333333%, 96.862745%, 99.215686%)" opacity="0.937" d="M133.715,231.941 C129.086,243.086 126.516,230.398 124.973,224.914 C122.23,214.629 119.488,204.172 116.914,193.887 C115.199,187.031 113.484,180.172 113.484,172.973 C113.656,160.457 119.656,150 124.629,138.859 C128.398,130.461 129.773,122.059 135.43,114.344 C141.945,105.43 150.516,98.742 155.828,98.742 C161.484,98.742 163.715,105.598 164.398,125.141 C164.914,141.082 165.941,146.055 170.742,157.711 C173.828,165.082 176.227,172.797 176.055,174.34 C176.055,176.055 170.742,182.738 164.227,189.082 C152.57,201.086 138.172,221.312 133.715,231.941 Z"/>
  <path fill="rgb(0.784314%, 40.784314%, 56.862745%)" opacity="0.999" d="M342.855,367.543 C339.77,366.516 333.086,363.086 328.285,360.172 L319.027,354.344 L327.598,347.828 C338.91,338.57 339.254,338.57 338.055,345.43 C336.34,354 339.77,352.629 346.969,341.66 C353.484,332.402 357.941,329.145 361.027,331.031 C363.941,332.574 363.258,335.316 356.742,349.719 C353.484,357.262 350.57,364.289 350.742,365.488 C350.914,368.398 348.344,369.086 342.855,367.543"/>
  <path fill="rgb(59.215686%, 69.019608%, 70.980392%)" d="M354.516,256.285 C354.344,233.484 353.66,213.086 352.973,211.199 C352.285,209.312 359.488,218.57 368.742,231.258 L385.887,254.742 L386.059,296.742 L370.457,297.43 L354.855,297.945 L354.516,256.285"/>
  <path fill="rgb(96.862745%, 59.215686%, 0.784314%)" opacity="0.997" d="M307.887,380.398 C297.258,375.598 285.945,366.168 285.773,362.055 C285.773,360.684 288.004,359.656 290.918,359.656 C293.66,359.656 300.859,358.285 306.688,356.914 C317.316,354.172 317.832,354.172 324.859,357.77 C328.973,360 333.602,362.742 334.973,364.113 C336.516,365.312 342.344,367.543 347.828,369.426 C353.312,371.141 358.973,373.711 360.344,375.082 C362.402,376.969 361.715,377.824 354.344,381.254 C341.656,386.914 321.086,386.57 307.887,380.398"/>
  <path fill="rgb(0.392157%, 30.980392%, 44.705882%)" opacity="0.993" d="M262.973,384.855 C263.828,380.398 258.859,375.77 247.203,370.797 C242.402,368.566 238.289,365.484 237.602,363.77 C237.086,361.027 241.031,360.512 260.914,360.34 L284.57,360.168 L289.715,367.195 C292.629,370.965 300.516,376.965 307.715,380.566 L320.23,386.91 L290.918,388.109 C264.172,388.801 261.941,388.629 262.973,384.855"/>
  <path fill="rgb(73.72549%, 96.862745%, 99.215686%)" opacity="0.982" d="M43.199,324.172 C31.371,320.57 15.086,319.887 5.312,321.941 L-1.031,323.656 L-1.203,291.598 C-1.547,256.285 -1.891,257.484 9.598,257.312 C13.199,257.312 21.941,260.398 30.855,265.027 C44.914,272.398 47.141,272.914 55.883,272.055 C61.711,271.539 73.711,267.77 87.082,262.113 C101.141,256.285 111.426,253.199 116.055,253.027 C119.996,253.027 123.426,253.371 123.77,253.883 C123.426,254.398 122.398,259.195 121.027,264.684 C118.285,274.453 117.77,297.254 120.512,304.797 C120.855,306.512 122.055,308.398 122.91,308.566 C126.512,308.566 140.566,291.766 147.766,277.879 C166.281,245.82 170.91,238.277 177.078,232.277 L183.078,226.105 L185.648,269.477 C186.336,292.961 185.992,314.906 187.02,317.992 C188.734,324.336 187.707,324.68 178.961,321.078 C173.477,318.68 171.934,318.508 165.074,321.766 C154.113,327.43 58.629,328.457 43.199,324.172"/>
  <path fill="rgb(0.392157%, 0.392157%, 0.784314%)" d="M370.113,236.57 L354.684,215.484 L351.77,194.227 C350.227,182.227 348,169.883 346.625,166.625 C345.598,163.023 344.738,159.426 344.738,158.395 C345.254,157.367 351.254,162.68 358.625,170.051 C366.855,176.566 376.109,184.449 379.367,187.195 L385.195,192.34 L385.023,224.91 L385.023,257.48 L370.113,236.57"/>
  <path fill="rgb(96.862745%, 60.784314%, 0%)" opacity="0.984" d="M213.77,380.914 C210.34,376.973 204.168,366.344 204.168,364.113 C203.996,363.598 208.453,363.086 213.77,363.086 C218.914,362.914 226.457,361.887 230.398,360.344 C240.512,356.742 243.941,356.914 245.828,361.887 C246.855,364.285 251.828,368.742 257.656,371.828 C274.969,381.77 269.828,384.855 235.715,384.855 C218.914,384.855 217.027,384.688 213.77,380.914"/>
</svg>

