<svg xmlns="http://www.w3.org/2000/svg" width="384" height="384" viewBox="0 0 384 384">
  <defs/>
  <path fill="rgb(33.333333%, 32.941176%, 32.54902%)" opacity="0.977" d="M256.801,151.887 C256.457,127.199 254.914,103.887 252.172,79.543 C252,77.312 251.656,75.086 252.344,73.027 C254.574,66.172 283.543,70.285 290.914,70.285 L295.887,77.484 C303.602,88.629 305.145,91.883 307.199,102.512 C309.941,118.281 316.801,133.711 322.801,148.453 C328.285,161.996 335.828,174.34 340.113,188.566 C340.457,189.594 340.801,190.625 340.457,191.652 C340.113,192.852 338.914,193.711 337.887,194.395 C328.117,200.395 314.23,203.309 303.086,205.539 C294.344,207.082 280.973,208.969 272.914,209.309 L258.172,210.336 L256.801,151.887"/>
  <path fill="rgb(93.333333%, 0%, 0%)" opacity="0.996" d="M147.43,385.199 C137.66,385.543 124.285,387.086 114.859,384.684 C102.688,381.598 110.059,360.168 112.461,352.625 C117.434,335.996 118.633,320.055 121.547,302.91 C122.746,296.223 122.746,284.223 126.691,278.395 C131.492,271.367 147.949,279.25 155.664,281.137 C166.121,283.707 177.094,286.449 185.32,293.48 C192.52,299.652 194.234,306.852 193.719,315.938 C192.52,333.594 196.117,354.168 191.148,371.137 C185.145,391.027 162.688,384.688 147.43,385.199 Z"/>
  <path fill="rgb(96.862745%, 0.784314%, 0%)" opacity="0.985" d="M48.688,360.172 C44.402,346.973 41.832,331.027 30.859,321.602 C21.945,313.887 11.488,316.629 0.859,318.859 C-1.371,314.059 1.715,308.746 4.629,304.289 C18.688,283.891 32.742,263.316 46.629,242.918 C48.172,240.688 50.059,238.117 52.801,237.773 C55.031,237.43 57.086,238.629 58.973,239.66 C70.973,246.688 81.773,255.602 91.203,265.719 C96.516,271.547 101.66,279.605 98.23,286.633"/>
  <path fill="rgb(64.313725%, 0%, 0%)" opacity="0.997" d="M362.23,193.199 C361.031,184.801 358.461,184.113 344.402,190.629 C331.715,199.543 326.918,200.742 301.715,205.027 C287.316,208.113 269.316,209.484 241.199,210 L224.055,210.688 C213.426,210.516 202.113,210 194.742,209.66 L176.055,208.289 C175.199,208.117 174.168,207.945 173.312,207.773 C162.684,206.746 151.027,205.887 140.742,202.629 C133.199,200.398 131.141,192 124.629,188.914 C118.113,186 105.086,190.801 98.23,192.684 C81.258,197.141 66,204.512 50.746,213.082 C34.461,222.168 48.688,238.109 57.09,247.023 C66.691,257.309 75.262,268.453 85.203,278.566 C102.004,295.711 126.176,283.711 145.203,295.195 C158.746,303.426 170.918,321.082 188.059,321.254 C202.457,321.426 198,300.855 198.344,291.082 C198.172,296.055 256.285,292.109 261.086,291.77 C294.172,289.883 327.941,288 359.656,278.055 C360.172,277.883 360.512,277.711 361.027,277.711 C376.285,272.738 378.34,270.34 378.172,260.227 C378.688,256.285 370.457,225.258 362.23,193.199 Z"/>
  <path fill="rgb(54.509804%, 55.294118%, 54.509804%)" opacity="0.946" d="M143.484,204.172 C135.941,202.629 134.055,201.258 129.254,193.715 C126.168,188.742 121.539,182.914 118.969,180.688 C114.855,177.086 114.684,176.23 116.738,173.832 C123.082,166.805 137.137,135.773 139.367,122.746 C142.969,103.719 152.055,85.203 161.996,76.805 C167.652,71.492 169.023,70.977 181.195,71.32 L194.051,71.148 L193.023,75.949 C192.336,78.52 190.453,85.207 188.566,90.691 C186.852,96.176 179.137,124.293 171.938,153.09 C157.199,211.715 159.258,207.602 143.484,204.172"/>
  <path fill="rgb(49.411765%, 50.196078%, 49.411765%)" opacity="0.848" d="M214.285,209.145 C214.285,202.457 220.457,97.031 221.484,84 C221.484,84 222.684,68.398 222.855,68.398 C230.055,68.398 237.426,68.57 244.625,68.57 C248.91,68.57 252.855,67.543 255.254,71.484 C260.566,80.742 258.168,94.797 259.023,105.086 C260.051,120.344 259.879,135.773 260.051,151.027 L260.906,209.312 L249.762,210.34 C231.086,212.23 214.457,211.715 214.285,209.145"/>
  <path fill="rgb(92.54902%, 0%, 0%)" opacity="0.999" d="M102.172,233.656 C92.742,235.371 76.801,229.199 68.742,226.285 C62.914,224.055 49.199,221.312 47.312,214.457 C46.285,210.516 54.684,200.914 56.742,197.828 C63.43,187.543 69.941,175.715 78.344,166.801 C86.23,159.258 105.773,166.113 120.859,182.23 C131.488,193.887 129.09,200.574 120.344,213.43 C116.23,219.43 111.258,230.914 103.887,233.316 C103.371,233.484 102.855,233.484 102.172,233.656 Z"/>
  <path fill="rgb(54.901961%, 39.607843%, 0%)" opacity="0.986" d="M198.688,71.656 C195.258,72.855 191.145,71.141 189.258,68.055 C187.027,64.113 189.43,51.941 189.945,46.969 C190.461,40.113 191.488,32.57 194.23,26.227 C201.43,9.77 213.773,0.855 230.059,0.684 C241.887,0.684 251.145,4.797 258.859,13.883 C261.945,17.141 265.375,22.453 265.887,26.91 C266.574,34.797 274.285,80.91 254.23,72.68 C257.488,72.68 260.574,73.535 263.66,72.68"/>
  <path fill="rgb(95.686275%, 85.882353%, 5.882353%)" opacity="0.989" d="M205.371,60.344 C203.312,59.316 203.312,56.059 204.684,44.574 C206.914,27.43 210.34,19.031 216.512,14.918 C222.684,10.805 227.996,12.688 229.539,19.719 C231.254,26.918 229.023,56.234 226.625,59.488 C224.57,62.23 209.312,62.742 205.371,60.344"/>
</svg>

