<svg xmlns="http://www.w3.org/2000/svg" width="384" height="384" viewBox="0 0 384 384">
  <defs/>
  <path fill="rgb(94.117647%, 9.411765%, 2.352941%)" opacity="0.987" d="M267.086,158.059 C263.484,152.746 263.484,139.031 266.914,134.574 C270.516,129.773 281.484,128.23 298.285,129.773 C315.77,131.145 316.973,132.344 316.973,147.086 C316.457,156.172 316.285,157.371 312.344,157.199 C310.113,157.027 307.199,158.398 305.656,160.285 C303.426,162.172 298.285,162.684 286.457,162.516 C271.887,162.688 270,162.172 267.086,158.059"/>
  <path fill="rgb(1.568627%, 3.137255%, 97.254902%)" opacity="0.987" d="M121.887,307.371 C111.258,305.828 99.773,305.656 89.316,302.742 C81.43,300.512 73.715,295.715 69.773,288.512 C62.574,275.824 68.059,260.055 73.715,246.512 C75.602,242.055 77.656,237.426 81.43,234.684 C84.688,232.285 88.801,231.598 92.742,231.082 C105.941,229.023 119.141,226.969 132.344,224.91 C135.773,224.395 139.371,223.711 142.629,222.34 C147.258,220.109 150.859,216.34 154.285,212.398 C165.086,199.711 175.027,185.828 189.43,177.426 C203.66,169.027 220.629,166.969 237.086,164.91 C257.656,162.512 278.398,160.109 299.145,158.91 C302.402,158.738 305.832,158.566 308.914,159.766 C312,160.965 314.57,163.195 317.312,164.738 C331.371,172.969 349.883,164.395 365.484,169.195 C384.172,175.023 383.656,197.309 384.512,213.426 C385.711,236.738 387.426,256.797 375.598,278.055 C370.969,286.285 364.969,293.996 356.742,298.453 C345.941,304.281 332.914,303.766 320.57,303.426 C272.227,301.883 224.57,306.34 176.398,308.055 C157.887,308.742 139.887,306.855 121.887,307.371"/>
  <path fill="rgb(0.784314%, 2.352941%, 98.431373%)" opacity="0.983" d="M315.941,148.285 C315.941,140.57 315.254,136.285 314.055,134.914 C308.742,131.484 313.199,130.457 327.77,130.973 C341.141,130.973 344.055,131.66 346.969,134.914 C353.484,141.258 350.57,154.801 341.824,158.57 C339.594,159.77 332.055,160.457 325.711,159.941 L314.055,159.426 L315.941,148.285"/>
  <path fill="rgb(98.823529%, 99.607843%, 96.862745%)" opacity="0.995" d="M297.086,261.258 C296.398,254.23 296.57,248.23 297.258,247.199 C297.945,246.684 309.945,245.484 323.828,245.312 L348.684,244.113 L348.34,257.828 C348.512,274.113 350.57,272.57 319.539,273.43 L297.938,274.285 L297.086,261.258"/>
  <path fill="rgb(0.392157%, 99.607843%, 85.490196%)" opacity="0.999" d="M165.602,223.887 C160.973,218.742 184.973,192.859 200.23,185.488 C211.543,180.344 232.117,177.602 258.688,177.945 C288,177.43 289.203,179.145 277.203,205.031 C271.891,216.859 268.973,221.66 266.402,222.688 C260.914,223.199 166.629,224.57 165.602,223.887"/>
  <path fill="rgb(0.392157%, 99.607843%, 86.27451%)" opacity="0.996" d="M282.688,218.57 C285.258,206.398 292.457,184.801 294.516,182.914 C295.715,181.887 301.371,180.516 306.688,180.516 L316.289,179.66 L321.602,193.375 C324.688,200.574 327.258,210.348 327.945,214.633 L327.773,222.691 L304.801,223.547 L281.316,224.574 L282.688,218.57"/>
  <path fill="rgb(0%, 99.215686%, 85.490196%)" opacity="0.996" d="M344.398,220.629 C343.543,218.914 342.168,214.629 340.969,211.199 C340.113,207.77 337.199,199.371 334.797,193.027 L330.168,180.684 L344.227,180.684 C355.539,180.684 358.969,181.371 362.57,184.453 C370.285,190.453 385.883,211.023 385.199,214.109 C384.684,217.711 375.258,220.109 355.715,222.168 C347.656,223.371 345.941,223.027 344.398,220.629"/>
  <path fill="rgb(95.686275%, 67.45098%, 0.392157%)" opacity="0.992" d="M67.027,268.113 C67.027,266.57 67.883,264.172 68.914,261.941 C70.457,258.512 73.027,258.172 89.484,258.34 C107.656,258.168 107.828,257.652 106.797,262.453 C106.281,265.023 105.77,267.254 105.77,268.109 C105.43,270.172 66.855,270.516 67.027,268.113"/>
  <path fill="rgb(10.196078%, 11.372549%, 25.882353%)" d="M235.543,331.027 C223.887,324.512 216,314.227 220.457,300.684 C224.742,287.141 235.715,280.969 244.801,270.512 C249.086,265.539 252.344,258.34 260.57,260.57 C292.629,269.141 285.086,332.398 253.027,335.312 C246.688,335.828 242.742,334.629 235.543,331.027"/>
  <path fill="rgb(45.882353%, 48.627451%, 41.176471%)" d="M119.484,269.656 C105.086,269.828 102.855,268.285 104.398,260.742 C103.027,257.656 116.914,256.973 118.285,256.973 C122.57,256.629 127.715,255.602 131.828,256.973 C136.285,258.172 138.684,265.371 135.258,268.285 C131.828,271.027 123.43,269.656 119.484,269.656 Z"/>
  <path fill="rgb(96.862745%, 74.509804%, 0%)" opacity="0.999" d="M165.941,264.688 C166.797,259.375 166.797,259.375 192.34,259.375 L217.883,259.375 L217.883,270.348 L164.91,269.832 L165.941,264.688"/>
  <path fill="rgb(8.627451%, 9.803922%, 23.921569%)" d="M366.688,325.371 C352.973,315.602 348,301.543 357.773,287.141 C361.031,282.34 375.602,252.855 382.629,258.512 C388.113,262.797 384.344,287.996 384.344,293.484 C384.344,293.484 384.344,329.312 384.344,329.312 L378.172,330 C375.086,329.828 369.941,327.941 366.688,325.371"/>
  <path fill="rgb(7.058824%, 5.882353%, 11.764706%)" opacity="0.988" d="M112.113,332.914 C107.312,329.484 76.801,305.312 96.684,303.77 C104.055,303.254 111.941,304.113 119.312,304.457 C127.711,304.801 135.941,305.145 144.34,305.484 C146.91,305.656 154.453,304.797 156.684,306.512 C157.711,306.684 157.539,311.484 155.141,316.453 C150.684,329.996 145.199,334.797 129.941,335.141 C122.57,335.312 115.543,334.801 112.113,332.914"/>
  <path fill="rgb(51.764706%, 52.54902%, 51.372549%)" opacity="0.975" d="M255.941,314.059 C249.77,309.43 246.34,300.688 248.227,294 C250.625,284.398 256.625,278.059 262.797,278.398 C267.426,278.742 268.797,279.941 270.855,285.254 C274.113,293.996 273.426,303.082 269.141,311.141 C265.371,318 261.77,318.855 255.941,314.059"/>
  <path fill="rgb(28.235294%, 29.019608%, 34.117647%)" d="M170.742,260.914 C171.598,264.855 170.398,269.484 166.973,270.516 C162.859,271.715 156.172,269.488 151.887,269.316 C139.371,269.316 136.285,268.629 135.43,265.375 C134.574,263.145 134.742,260.574 135.602,260.062 C138,257.828 169.543,258.855 170.742,260.914 Z"/>
</svg>

