<svg xmlns="http://www.w3.org/2000/svg" width="384" height="384" viewBox="0 0 384 384">
  <defs/>
  <path fill="rgb(72.54902%, 12.156863%, 46.27451%)" opacity="0.984" d="M329.312,216.855 C334.113,207.426 335.141,203.828 334.797,190.113 C334.625,170.57 328.625,151.027 318.168,136.969 C314.227,131.484 311.48,126.34 312.168,125.824 C313.023,125.137 320.398,124.281 329.312,123.766 C344.914,123.422 344.914,122.738 354,129.594 C359.828,133.879 365.145,140.395 369.086,147.938 C374.742,159.082 374.914,160.109 374.914,181.367 C374.398,200.223 373.887,204.34 369.941,211.539 C363.77,223.883 356.57,227.48 338.57,227.652 L323.656,227.652 L329.312,216.855"/>
  <path fill="rgb(94.901961%, 54.509804%, 3.137255%)" opacity="0.986" d="M358.113,274.629 C361.199,263.656 356.227,246.172 353.828,238.113 C351.941,231.598 349.199,225.086 344.57,219.941 C334.457,208.969 316.285,210 303.426,204.512 C301.027,203.484 298.625,202.113 296.055,202.453 C293.312,202.797 291.082,204.852 289.883,207.426 C288.34,211.195 288.855,215.312 289.367,219.254 C291.766,236.398 294.34,253.539 296.738,270.684 C297.082,273.598 297.594,276.684 299.48,279.082 C302.395,282.852 307.711,283.711 312.168,284.227 C323.312,285.598 345.426,290.055 354.684,280.797 C356.23,279.43 357.43,277.199 358.113,274.629 Z"/>
  <path fill="rgb(97.254902%, 81.568627%, 23.921569%)" d="M293.828,317.312 C311.828,319.027 331.543,326.742 349.371,321.082 C349.887,320.91 350.57,320.738 350.914,320.227 C351.258,319.711 351.258,318.855 351.258,318.168 C349.887,306.684 347.145,295.539 343.027,284.738 C342.512,283.367 341.828,281.996 340.629,281.137 C339.773,280.621 338.742,280.449 337.715,280.449 C320.402,278.734 303.086,275.992 285.773,277.879 C266.574,279.594 265.543,280.793 273.43,293.48 C277.199,299.309 279.602,305.652 282.344,311.996 C284.059,315.938 286.801,316.625 290.742,316.797 C291.77,317.145 292.801,317.312 293.828,317.312 Z"/>
  <path fill="rgb(77.647059%, 6.666667%, 34.509804%)" opacity="0.988" d="M86.914,361.715 C80.227,360 51.086,344.57 69.086,338.914 C73.027,337.543 78.172,338.398 79.715,333.43 C80.742,330.172 80.402,326.574 79.887,323.316 C78.516,315.43 75.773,307.547 70.629,301.203 C65.828,295.375 61.715,290.918 63.43,283.203 C64.801,277.203 67.887,271.375 70.801,265.891 C74.402,258.863 82.113,255.262 89.828,256.289 C100.801,257.832 111.43,260.574 122.398,261.602 C130.113,262.457 133.711,263.488 138.168,269.832 C149.312,282.52 153.254,302.746 151.711,330.348 C149.652,345.777 147.77,349.203 142.453,357.605 L135.598,367.035 L114.172,366.855 C102.688,364.285 90.172,362.742 86.914,361.715"/>
  <path fill="rgb(1.960784%, 6.666667%, 92.54902%)" d="M271.887,366.855 C271.887,365.828 273.773,359.828 275.828,353.656 C278.742,345.77 279.941,337.543 279.43,327.086 L279.086,311.656 L327.43,311.484 C362.059,309.77 376.285,309.941 378.344,311.656 C385.199,318.172 380.402,347.484 370.629,358.457 L364.113,365.656 L317.828,367.027 C292.801,367.715 271.887,367.715 271.887,366.855"/>
  <path fill="rgb(1.960784%, 3.529412%, 96.470588%)" opacity="0.989" d="M374.57,173.145 C373.371,151.715 373.883,147.258 377.312,144.688 C379.711,142.973 382.113,141.602 382.969,141.602 C384.168,141.602 385.367,154.117 386.227,169.715 L387.082,198.172 L374.227,198.516 L374.57,173.145"/>
  <path fill="rgb(1.960784%, 6.27451%, 92.156863%)" opacity="0.999" d="M144.855,353.145 C148.797,345.086 150.512,339.258 151.711,325.543 L151.539,308.742 L184.109,309.43 C201.766,308.574 217.539,307.715 219.254,306.172 C221.312,305.484 227.824,304.457 233.652,303.941 C250.281,301.711 252.168,304.113 252.168,326.57 C251.824,346.113 248.91,355.543 241.195,359.484 C238.453,360.855 218.91,361.883 188.223,362.742 L140.23,363.43 L144.855,353.145"/>
  <path fill="rgb(1.568627%, 5.490196%, 92.156863%)" opacity="0.996" d="M294.855,205.027 C285.941,203.828 271.543,203.828 262.457,203.484 L245.484,203.141 L250.629,193.199 C254.742,186.512 256.113,181.199 256.629,170.398 C257.145,157.199 256.801,156.684 260.742,157.371 C262.801,157.715 277.715,158.914 293.312,159.941 C314.398,159.941 322.457,160.457 324.34,162.684 C331.539,169.539 329.824,196.113 321.598,202.113 C318.684,204.684 315.082,206.227 313.199,205.715 C310.973,206.059 302.57,205.715 294.855,205.027"/>
  <path fill="rgb(1.960784%, 5.490196%, 89.803922%)" opacity="0.994" d="M165.941,186.516 C142.629,174.688 123.598,162.172 113.656,151.203 C104.742,142.289 98.57,133.547 83.312,104.746 C77.656,91.891 68.055,77.316 56.57,68.746 C50.398,64.289 41.828,64.805 34.285,63.945 C25.543,63.09 16.801,62.23 8.055,61.715 C1.367,61.199 -1.887,62.914 -3.258,56.23 C-4.285,50.574 -3.945,44.402 -3.945,38.746 L-4.457,16.973 L12.172,15.602 C50.059,15.258 85.543,32.402 107.316,60.859 C112.117,66.172 120.516,81.09 126.688,93.773 C140.23,119.145 147.945,126.688 169.203,136.973 C175.547,140.574 186.688,145.371 193.031,144.516 C210.176,149.488 215.316,157.371 210.859,177.258 C208.461,190.629 204.172,194.57 192.344,194.402 C184.629,195.43 179.828,194.23 165.941,186.516"/>
  <path fill="rgb(81.568627%, 4.705882%, 28.235294%)" opacity="0.982" d="M333.43,209.656 C330.688,215.484 327.086,220.969 319.887,219.598 C316.457,218.91 314.574,217.027 311.828,215.141 C308.398,212.742 304.285,211.371 300.855,208.797 C300,208.109 298.969,207.254 298.457,206.227 C296.398,201.082 310.285,202.969 312.688,202.797 C315.086,202.625 317.66,202.281 319.887,201.082 C327.945,196.625 329.316,183.77 328.629,175.711 C328.113,171.082 327.43,166.453 323.145,164.398 C317.316,161.484 309.43,160.969 303.086,160.457 C300.688,160.285 290.742,161.145 289.715,158.059 C289.199,156.688 289.371,152.574 289.887,147.945 C290.914,138.004 299.316,126.176 310.285,126.688 C320.055,127.203 328.285,145.543 331.715,153.602 C336.172,163.715 338.914,175.031 338.402,186 C337.887,198.344 337.027,201.77 333.43,209.656 Z"/>
  <path fill="rgb(96.078431%, 61.960784%, 4.313725%)" opacity="0.995" d="M192.344,259.543 C184.801,258.172 177.945,256.457 176.574,255.086 C172.461,251.316 166.973,196.113 170.574,196.113 C171.09,196.113 174.176,197.828 177.09,200.055 C181.547,203.141 187.203,203.996 206.234,205.027 L229.719,206.227 L229.203,226.285 C228.688,238.285 227.145,249.258 225.262,254.227 C222.52,261.082 221.66,261.254 213.605,261.426 C208.801,261.258 199.027,260.059 192.344,259.543"/>
  <path fill="rgb(96.470588%, 73.333333%, 14.901961%)" d="M306.516,261.258 C306.516,266.57 307.543,282 297.43,276 C294.344,274.113 293.488,270.344 292.973,266.742 C291.43,257.312 290.402,248.055 289.371,238.629 C288.516,229.887 285.941,220.973 287.656,212.059 C288,210.344 288.855,208.117 290.57,207.773 C292.457,207.43 294.172,209.145 295.199,210.859 C304.285,225.43 306.688,244.629 306.516,261.258 Z"/>
  <path fill="rgb(1.568627%, 5.490196%, 90.980392%)" opacity="0.991" d="M73.543,343.371 C51.43,338.059 31.371,327.43 10.457,311.484 L-2.23,301.543 L-0.516,221.145 L7.543,239.316 C25.027,276.344 46.285,293.316 83.656,296.402 C98.055,298.289 103.027,303.258 103.715,315.258 C105.258,340.801 95.484,350.398 73.543,343.371"/>
  <path fill="rgb(96.862745%, 56.862745%, 0%)" opacity="0.962" d="M58.457,373.543 C59.145,361.887 62.57,343.543 64.285,343.199 C64.973,343.371 69.43,346.285 73.543,350.227 C85.199,359.828 90.688,361.027 116.23,362.055 C134.402,362.57 137.832,362.91 137.488,365.312 C136.461,366.684 136.117,371.484 135.602,375.598 L136.117,383.828 L58.801,384 L58.457,373.543"/>
  <path fill="rgb(80.392157%, 5.098039%, 29.019608%)" d="M384.855,321.941 C384.855,335.312 384.34,348.684 384,361.883 C383.828,367.883 385.027,371.652 378.344,371.312 C374.23,371.141 369.945,370.457 366,369.426 C358.629,367.539 351.43,363.254 359.828,356.738 C371.141,347.996 375.941,323.996 371.141,314.395 C368.055,310.793 366.684,310.453 349.711,311.137 C329.48,311.309 330.168,311.137 334.969,297.078 C339.426,285.25 348.168,272.562 353.141,269.477 C359.312,266.734 369.254,267.418 377.996,270.164 L384.852,271.879 C385.027,272.059 384.855,321.941 384.855,321.941 Z"/>
  <path fill="rgb(82.352941%, 5.490196%, 30.588235%)" opacity="0.986" d="M227.145,364.113 L220.117,359.141 L226.117,356.91 C229.719,357.426 234.176,354.34 236.23,351.598 C240.859,346.113 243.258,324.684 241.375,314.57 C239.832,303.086 232.805,301.715 207.434,309.258 L201.777,308.914 L203.148,298.629 C205.035,285.941 209.836,275.828 216.348,270 C222.176,264.855 223.035,263.656 242.062,265.543 C248.062,265.543 256.461,264.855 262.121,267.258 C267.434,269.488 271.891,276.172 275.148,280.801 C285.949,296.57 286.805,311.828 287.836,330 C285.605,344.914 280.465,358.629 274.293,363.43 C269.492,367.887 267.777,368.23 251.148,367.887 C235.543,368.23 232.113,367.887 227.145,364.113"/>
  <path fill="rgb(80%, 3.529412%, 23.921569%)" opacity="0.997" d="M181.887,206.398 C178.629,204.168 176.742,201.086 176.574,198.168 C176.059,193.023 176.746,192.168 185.66,193.367 C197.832,194.566 202.117,190.969 205.719,179.824 C208.977,168.68 208.805,160.969 205.891,153.426 C203.148,146.57 202.633,146.398 187.547,143.656 C180.52,142.113 174.348,139.887 173.832,139.027 C171.773,137.312 175.719,128.398 180.52,123.086 C186.176,117.43 195.949,115.371 212.75,115.199 C228.691,114.855 233.664,116.914 242.062,126 C252.348,138.516 255.605,146.059 256.977,166.113 C258.176,183.941 250.633,207.77 231.09,212.055 C217.543,215.145 193.371,216.172 181.887,206.398"/>
  <path fill="rgb(96.078431%, 61.176471%, 4.705882%)" opacity="0.987" d="M222.516,265.027 C221.316,263.656 216.859,264 215.488,263.828 C212.574,263.484 209.66,263.312 206.574,263.141 C200.746,262.797 195.09,262.625 189.262,262.113 C176.918,261.086 164.406,260.227 152.062,260.57 C148.977,260.742 145.719,260.742 142.633,261.086 C140.402,261.258 137.32,260.914 135.434,262.457 C132.691,264.516 139.203,271.715 140.578,273.77 C142.637,277.027 144.691,280.285 146.234,283.883 C148.465,288.855 149.148,294.855 150.004,300.168 L151.547,309.254 C156.52,309.426 161.66,309.598 166.633,309.77 C171.09,309.77 175.375,309.426 179.832,309.598 C186.52,309.941 193.031,309.77 199.719,309.254 C201.262,309.082 202.977,308.91 204.176,307.883 C206.062,306.168 207.09,299.824 207.777,297.254 C208.805,292.797 209.492,288.34 210.691,284.055 C211.547,280.797 212.75,277.539 214.461,274.625 C216.348,271.539 219.434,269.652 221.832,267.254 C222.176,266.738 222.688,266.227 222.348,265.711 C222.688,265.199 222.516,265.199 222.516,265.027 Z"/>
  <path fill="rgb(97.254902%, 72.156863%, 11.764706%)" opacity="0.981" d="M218.23,371.656 C215.145,358.629 215.832,355.715 220.801,359.312 C228.344,365.484 236.059,367.711 250.285,367.711 L264.855,367.711 L264.168,384.34 L220.969,383.996 L218.23,371.656"/>
  <path fill="rgb(96.862745%, 83.137255%, 30.588235%)" opacity="0.998" d="M182.914,255.258 C183.086,254.23 182.914,252.516 181.887,250.113 C180.344,246.684 179.656,243.941 178.973,240.344 C177.602,232.629 176.742,225.086 176.23,217.371 C175.887,212.914 176.746,208.457 178.117,204.172 C179.145,200.402 180.516,196.629 178.289,193.027 C178.117,192.684 177.773,192.34 177.434,192 C174.176,189.602 170.406,187.887 166.633,186.172 C164.918,185.484 156.863,181.199 155.32,182.059 C152.406,183.773 154.293,190.457 154.633,192.859 C156.863,206.402 157.375,220.289 158.402,234.004 C158.746,240.176 160.117,247.547 164.746,252.176 C167.312,254.57 181.543,261.43 182.914,255.258 Z"/>
  <path fill="rgb(96.862745%, 83.137255%, 28.235294%)" opacity="0.993" d="M200.059,372.855 C198.688,358.797 199.543,358.113 212.23,357.598 C216.516,356.91 217.375,358.285 219.773,366.855 C221.145,372.168 223.031,378.34 223.715,380.742 C225.086,384.512 224.57,384.855 212.57,385.543 L200.742,386.059 L200.059,372.855"/>
</svg>

