<svg xmlns="http://www.w3.org/2000/svg" width="384" height="384" viewBox="0 0 384 384">
  <defs/>
  <path fill="rgb(3.921569%, 13.72549%, 93.72549%)" d="M-6.855,138.855 L-6,-4.629 L386.398,-5.145 L386.914,272.398 C380.57,270.855 374.398,271.027 368.398,268.797 C358.797,265.195 349.027,259.883 339.086,257.484 C336,256.285 332.914,255.086 329.828,253.883 C309.77,246.168 289.715,238.453 269.828,230.738 C264.516,228.68 259.027,226.625 253.371,226.281 C248.227,225.938 243.086,226.969 238.113,227.996 C209.656,233.996 181.371,241.195 153.258,249.082 C130.457,255.598 108.344,265.195 84.859,267.082 C61.031,269.652 11.66,275.48 2.746,277.023 L-5.484,278.223 L-6.855,138.855"/>
  <path fill="rgb(100%, 3.529412%, 16.470588%)" d="M283.027,89.484 C280.113,87.941 276.684,85.027 275.656,82.629 C274.285,78.688 273.086,78.516 260.742,78.516 C253.371,79.203 246,80.23 244.285,81.602 C240.684,82.457 240.855,81.086 240.855,67.715 L240.512,52.457 L246.34,52.113 C249.598,52.285 257.312,53.312 262.969,54.855 C268.969,56.57 276.684,57.426 279.426,56.914 C282.34,55.887 287.484,55.887 290.91,56.398 C296.91,57.941 296.738,58.113 292.281,59.828 C289.195,60.344 287.48,62.227 287.309,66 C286.453,72.344 288.852,75.43 298.965,78.855 C307.535,82.457 311.82,87.254 309.594,90.34 C308.23,93.258 288.516,92.914 283.027,89.484"/>
  <path fill="rgb(96.078431%, 91.372549%, 3.137255%)" opacity="0.993" d="M88.801,129.43 C80.059,125.145 76.801,121.715 72,110.742 C69.086,102.855 68.742,100.113 69.43,84.512 C70.285,67.027 69.43,66.512 76.801,57.082 C81.773,52.625 86.742,46.969 89.316,45.938 C95.145,41.48 107.832,36.336 118.629,34.793 C127.371,33.422 129.086,33.422 136.973,36.68 C141.602,38.395 146.742,42.852 149.145,46.109 C156.859,56.051 162.859,86.738 159.258,99.766 C156.172,108.68 140.742,127.195 132.688,130.965 C124.285,135.086 98.059,134.398 88.801,129.43"/>
  <path fill="rgb(94.117647%, 81.960784%, 52.54902%)" opacity="0.98" d="M-1.371,330.344 L-1.543,275.488 L17.312,272.746 C27.598,271.375 52.457,268.289 72.855,266.059 C103.371,262.973 110.398,262.629 111.77,260.059 C112.113,257.316 114.512,254.402 117.082,252.344 C124.281,245.828 126.852,240.516 126.34,232.113 C126.34,224.914 127.027,223.371 132.684,218.398 C138.855,212.398 148.625,210.855 159.082,214.797 C163.023,216.855 165.598,217.027 166.625,215.824 C167.652,214.625 169.883,205.539 171.082,195.426 C172.969,185.141 174.852,176.055 175.883,174.684 C176.91,173.656 178.113,166.797 178.453,159.77 L179.141,146.398 L202.285,146.227 L203.656,156.684 C202.969,168.168 204.512,170.742 210.855,170.914 C217.543,170.398 219.254,168.172 221.312,153.258 C223.199,145.887 225.941,133.887 227.828,126.516 C228.855,118.629 230.57,110.402 230.914,108.172 C231.941,106.285 233.656,105.086 235.199,105.43 C236.742,104.914 239.141,104.23 240,103.199 C241.199,100.969 242.398,101.141 243.086,102.855 C243.602,104.398 246.516,105.426 249.773,105.598 C260.574,106.285 261.258,112.285 259.887,121.367 C258.172,131.996 262.629,137.652 264,147.766 C265.543,155.652 267.43,164.051 268.457,165.594 C270.688,169.195 270.344,173.652 271.199,177.594 C272.227,181.707 274.113,184.793 276.684,188.223 C283.199,197.137 291.941,203.992 301.539,209.48 C306.34,212.223 311.996,215.652 317.309,217.023 C321.938,218.223 327.25,216.68 330.68,220.793 C336.508,227.648 337.535,242.395 337.367,250.965 C337.883,260.051 338.566,262.965 347.137,266.734 C353.652,269.648 360.852,271.707 368.051,270.848 C374.906,270.16 378.68,268.105 385.879,270.332 C385.879,276.16 385.879,282.16 385.879,287.988 C385.879,320.559 386.051,353.301 386.051,385.875 L-0.52,385.875 L-1.371,330.344"/>
  <path fill="rgb(94.509804%, 82.352941%, 49.411765%)" opacity="0.881" d="M239.312,86.57 C239.141,82.113 248.57,78.684 262.457,78.172 C273.258,77.828 275.828,78.516 276,81.086 C276,84 274.457,84.344 265.715,83.316 C258.859,82.461 253.371,83.316 248.23,86.059 C239.484,89.656 239.484,89.656 239.312,86.57"/>
  <path fill="rgb(89.411765%, 69.019608%, 37.254902%)" opacity="0.97" d="M281.145,236.23 C265.715,228.859 266.574,228.172 292.801,227.145 C306.688,226.629 318,227.145 318,227.832 C318.172,230.918 306.688,237.434 298.457,238.977 C292.285,240.344 288,239.656 281.145,236.23"/>
  <path fill="rgb(87.45098%, 68.235294%, 35.294118%)" opacity="0.964" d="M276.172,213.43 C275.484,206.742 273.941,198 272.914,193.543 C271.887,189.258 270.684,182.57 270.344,178.629 C269.316,171.941 269.656,170.914 272.574,170.742 C277.031,170.914 281.316,159.43 279.773,151.887 L278.918,146.402 L290.574,146.23 C303.262,145.715 303.773,146.059 303.945,160.973 C303.773,166.285 305.488,176.059 307.887,181.887 C310.117,187.887 311.656,197.316 311.828,202.973 C311.828,214.285 313.887,217.031 321.598,216.859 C324.34,217.031 325.711,217.715 324.684,217.887 C323.484,218.23 322.625,219.945 322.625,221.316 C322.453,223.375 318.512,223.887 300.168,224.402 L277.539,224.918 L276.172,213.43"/>
  <path fill="rgb(90.588235%, 70.980392%, 38.431373%)" opacity="0.964" d="M171.258,219.602 C171.602,212.402 177.258,208.973 188.57,209.316 C196.969,209.488 200.055,210.516 203.828,214.801 C206.742,217.543 208.973,220.973 208.973,222.172 C208.973,223.371 201.773,224.23 189.945,223.887 C172.973,223.715 171.258,223.199 171.258,219.602"/>
  <path fill="rgb(91.764706%, 68.627451%, 37.647059%)" opacity="0.977" d="M207.43,202.113 C205.371,196.629 208.117,189.77 213.086,188.227 C220.113,186.168 223.715,188.398 223.887,193.883 C223.887,201.77 210,208.801 207.43,202.113"/>
  <path fill="rgb(91.372549%, 68.627451%, 39.215686%)" opacity="0.962" d="M241.715,195.602 C239.145,193.031 237.086,189.43 236.914,187.371 C236.914,181.887 246.684,172.285 252.516,172.285 C258.688,172.285 268.629,182.055 268.801,187.715 C268.801,199.027 250.457,204.344 241.715,195.602"/>
  <path fill="rgb(91.764706%, 69.803922%, 38.431373%)" opacity="0.966" d="M193.887,184.801 C192.172,182.23 192.344,181.031 195.086,178.457 C201.602,172.629 213.602,176.57 208.973,183.43 C205.887,188.059 197.145,188.914 193.887,184.801"/>
  <path fill="rgb(90.196078%, 70.588235%, 38.039216%)" d="M248.914,141.77 C245.145,136.457 244.973,126.684 248.227,126.34 C248.914,126.512 251.656,125.652 254.227,124.625 C261.082,122.566 264.168,130.625 260.055,140.227 C256.801,148.801 253.715,149.312 248.914,141.77"/>
  <path fill="rgb(69.803922%, 54.117647%, 31.372549%)" opacity="0.986" d="M237.258,240.855 C236.402,240.34 235.371,234.512 235.199,228.512 C234.684,215.484 238.285,212.57 242.398,222.855 C246.512,232.625 246.34,241.883 242.227,242.227 C240.172,242.059 237.77,241.543 237.258,240.855"/>
  <path fill="rgb(69.411765%, 46.27451%, 18.823529%)" opacity="0.905" d="M342.855,282.344 C342.855,279.43 341.828,273.945 340.797,270.172 C339.254,266.57 337.539,256.285 336.855,247.543 C336.168,237.086 334.625,229.027 332.055,223.887 C330.168,219.773 328.797,216 329.312,215.656 C329.828,215.141 332.57,214.457 335.312,213.941 C339.426,213.086 341.828,213.77 346.457,217.543 C354.516,224.23 357.602,230.742 357.602,242.059 C357.258,249.43 357.773,252.344 359.832,253.203 C363.09,254.23 370.117,267.262 368.918,269.488 C368.23,270.344 369.605,273.09 371.316,275.66 C378.344,284.23 375.773,286.461 358.289,286.973 L343.031,287.316 L342.855,282.344"/>
</svg>

