<svg xmlns="http://www.w3.org/2000/svg" width="384" height="384" viewBox="0 0 384 384">
  <defs/>
  <path fill="rgb(1.568627%, 69.019608%, 86.27451%)" opacity="0.976" d="M223.543,141.77 C220.801,141.426 217.715,140.398 216.688,139.711 C215.832,139.023 211.375,138.168 207.086,137.141 C189.086,134.398 168,121.711 146.059,100.285 C129.602,82.801 119.316,67.371 111.43,47.656 C106.629,36 100.457,11.656 100.629,4.629 L100.629,-0.172 L357.77,0 L357.254,4.973 C357.598,20.402 343.023,54.172 327.77,73.543 C305.484,102.516 266.742,130.457 238.457,137.828 C234.172,138.684 230.227,140.227 230.059,140.914 C229.199,141.941 226.457,141.602 223.543,141.77"/>
  <path fill="rgb(0%, 6.27451%, 11.764706%)" opacity="0.999" d="M289.543,352.113 C273.941,350.227 258,343.715 243.43,338.055 C224.742,330.855 214.117,316.453 199.031,303.598 C195.602,300.684 192.176,297.77 188.23,295.883 C184.801,294.168 180.859,293.141 177.086,292.453 C167.656,290.738 154.629,288.684 145.371,292.453 C138.172,295.367 131.312,299.652 123.941,302.395 C110.398,307.539 95.141,315.082 80.57,316.625 C73.715,317.824 60.512,319.023 47.141,318.34 C28.113,316.969 23.828,316.281 16.625,312.34 C11.996,310.109 6.512,306.168 4.969,303.082 L2.055,297.77 L7.027,292.625 C15.258,283.539 27.258,276.855 36.684,268.281 C46.625,259.367 56.742,250.625 68.398,243.766 C88.285,232.281 109.711,222.164 132.168,217.023 L139.367,215.48 L141.938,198.68 C145.367,179.309 155.309,147.594 160.453,141.422 L164.566,136.621 L171.938,147.594 C180.508,161.137 186.508,172.965 193.023,189.766 C196.453,201.422 196.965,203.309 201.082,202.281 C219.938,197.48 242.227,199.539 261.082,202.797 C277.711,205.711 315.082,222.34 324.852,201.77 C334.109,182.227 345.422,160.625 366.336,151.371 C372.68,148.801 379.191,146.57 381.422,146.398 C384.68,146.398 384.508,147.426 379.023,152.398 C359.137,174.684 354.168,206.227 365.652,232.285 C369.594,238.801 374.738,248.055 378.508,253.371 C384.68,259.715 385.363,261.43 383.48,263.312 C378.852,265.027 369.594,263.312 356.223,257.484 C350.566,254.742 344.91,252 339.766,248.57 C333.078,243.941 331.707,240.34 323.309,241.543 C316.109,242.57 308.566,246 302.738,250.285 C295.711,255.598 291.082,264 284.738,270.344 C277.023,276.859 268.969,284.914 263.309,293.316 C257.137,302.574 259.707,306.172 269.309,310.117 C284.051,316.289 299.309,324.176 310.965,335.488 C317.48,341.832 321.938,348.176 321.766,349.887 C321.258,353.312 305.312,354.855 289.543,352.113"/>
  <path fill="rgb(0%, 54.509804%, 78.039216%)" opacity="0.976" d="M245.145,150.855 C247.887,155.828 251.488,169.199 244.629,170.398 C243.941,170.57 243.086,170.398 242.23,170.398 C235.715,169.371 229.375,168.512 222.859,167.484 C219.945,166.969 217.031,166.629 214.289,165.254 C211.547,163.883 209.488,161.484 209.145,158.566 C208.457,153.082 218.23,140.566 223.715,139.367 C230.402,137.824 240.688,144.512 244.629,149.824 C244.629,150 244.801,150.516 245.145,150.855 Z"/>
  <path fill="rgb(12.156863%, 27.843137%, 35.686275%)" opacity="0.973" d="M171.43,355.199 C153.43,366.344 134.914,376.285 114.172,381.43 C102.172,384.344 75.086,390.172 66.859,377.316 C78.004,374.918 89.832,376.289 101.145,373.887 C111.43,371.656 121.375,368.402 130.801,363.602 C147.086,355.371 162.344,342.688 170.57,326.059 C173.484,320.059 175.883,313.715 175.543,307.031 C175.199,300.859 169.371,294.688 169.199,289.375 C168.855,276.176 189.43,289.891 194.742,292.633 C202.801,296.746 214.113,304.289 217.715,313.031 C222.172,324.004 211.715,328.633 204,333.773 C193.371,340.801 182.57,348.172 171.43,355.199 Z"/>
  <path fill="rgb(11.372549%, 28.235294%, 36.862745%)" opacity="0.981" d="M235.027,294.855 C228.34,294.168 223.371,290.398 218.57,282.168 C215.484,277.023 215.484,276.34 217.715,274.625 C220.629,272.566 229.715,272.055 234.859,274.109 C237.258,274.965 239.832,277.711 241.375,280.797 C243.605,286.969 244.289,296.055 242.402,295.539 C241.543,295.543 238.113,295.027 235.027,294.855"/>
  <path fill="rgb(99.215686%, 14.117647%, 7.058824%)" opacity="0.966" d="M162,318.855 C160.801,318.512 160.457,315.426 160.629,312.512 C160.801,309.426 160.285,304.281 158.914,301.367 C156,294.68 155.828,294.852 164.57,292.797 C171.258,291.598 171.598,291.598 173.828,298.625 C174.855,302.395 175.887,308.566 175.543,312.34 C175.199,317.996 174.516,318.684 169.543,319.195 C166.629,319.371 163.027,319.199 162,318.855"/>
  <path fill="rgb(52.156863%, 60.392157%, 65.098039%)" opacity="0.998" d="M93.258,287.484 C90.688,285.254 91.199,276.512 94.973,275.312 C106.629,271.887 102,297.086 93.258,287.484"/>
  <path fill="rgb(98.039216%, 98.823529%, 98.039216%)" opacity="0.891" d="M374.57,248.059 C362.227,230.746 358.801,219.43 359.484,201.086 C360.34,183.773 365.141,169.887 374.57,157.543 L381.77,148.285 L382.285,176.398 C383.141,192 383.828,217.543 384,232.969 L384.172,261.254 L374.57,248.059"/>
  <path fill="rgb(76.470588%, 87.45098%, 94.117647%)" d="M236.23,165.258 C235.375,164.059 234.172,163.027 232.801,162.688 C220.457,158.574 218.402,175.715 218.402,182.918 C218.574,192.004 223.547,206.402 234.172,194.574 C236.57,192.004 236.914,188.059 237.086,184.633 C237.258,181.719 237.43,178.805 237.602,175.891 C237.773,173.32 237.945,170.746 237.258,168.348 C237.258,167.145 236.742,166.113 236.23,165.258 Z"/>
  <path fill="rgb(36.862745%, 0.392157%, 1.960784%)" opacity="0.998" d="M75.43,357.77 C75.258,352.113 80.059,341.828 82.457,337.027 C85.027,332.055 87.77,320.227 96,324 C98.57,325.199 101.145,327.941 103.715,326.742 C106.973,325.199 105.086,321.086 105.773,318.512 C106.117,316.797 107.316,315.254 109.031,314.91 C109.887,314.738 110.918,314.91 111.773,315.254 C114.344,316.109 116.574,317.652 118.973,318.684 C121.371,319.711 124.285,320.227 126.688,318.855 C133.031,315.254 131.66,303.426 142.457,308.57 C151.715,312.855 167.312,337.027 147.258,333.598 C143.828,333.082 139.715,333.082 138,335.996 C136.801,338.055 137.484,340.625 137.828,343.023 C138.172,345.422 137.828,348.336 135.77,349.367 C130.625,351.766 127.371,341.824 122.398,345.938 C118.797,348.852 121.883,356.566 116.742,359.48 C111.77,362.395 105.43,355.195 100.457,354.336 C93.941,353.137 89.145,355.363 83.484,358.105 C81.258,359.145 75.43,363.77 75.43,357.77"/>
  <path fill="rgb(100%, 12.156863%, 5.490196%)" opacity="0.965" d="M56.059,339.77 C52.289,336 49.371,332.398 49.887,332.055 C50.23,331.539 54.344,331.711 58.801,332.398 C66.172,333.086 67.031,333.941 67.543,339.941 C68.742,348.688 64.801,348.516 56.059,339.77"/>
</svg>

