<svg xmlns="http://www.w3.org/2000/svg" width="384" height="384" viewBox="0 0 384 384">
  <defs/>
  <path fill="rgb(1.176471%, 0.784314%, 1.176471%)" d="M222.855,292.801 C216,297.086 203.828,307.031 195.426,306.516 C189.254,306.172 180.34,297.945 175.539,294.344 C169.711,289.715 164.227,284.574 158.738,279.43 C147.938,268.973 135.082,261.43 124.969,249.945 C105.082,227.488 90.684,200.23 81.77,171.602 C67.711,126.172 66.512,77.66 70.113,30.344 C70.285,28.801 70.457,27.086 71.141,25.715 C73.027,22.457 77.656,22.285 81.598,22.457 C89.141,22.629 96.684,21.941 104.227,20.57 C123.082,16.801 140.398,8.227 158.914,3.086 C185.828,-4.285 214.801,-3.77 241.715,4.113 C264.344,10.801 286.285,22.801 309.945,22.285 C315.773,22.113 322.973,21.941 325.547,27.086 C326.574,29.145 326.574,31.543 326.574,33.773 C326.402,47.316 326.23,61.031 326.059,74.574 C325.371,113.832 323.828,153.773 309.945,190.461 C299.316,218.746 281.316,244.117 259.375,264.691 C248.23,275.484 235.887,284.742 222.855,292.801 Z"/>
  <path fill="rgb(97.647059%, 98.039216%, 98.039216%)" opacity="0.997" d="M177.258,270.172 C137.656,244.285 117.945,217.199 102.344,167.656 C92.742,136.629 92.402,134.742 91.199,116.742 C90.172,93.598 89.828,43.543 91.715,40.801 C93.43,40.285 99.773,39.086 108.344,37.887 C134.914,32.914 154.629,27.43 176.914,16.117 L200.227,4.973 L206.914,8.574 C257.656,31.203 254.742,31.887 282,36.004 C294.516,38.746 304.973,40.633 306.172,41.316 C308.059,44.574 307.199,50.574 307.199,54.172 C307.371,62.402 307.199,70.629 307.027,78.859 C306.684,87.43 306.34,95.832 305.656,104.402 C301.715,149.832 294.684,192.344 265.887,229.375 C262.117,235.547 253.371,244.633 246.688,249.945 C232.973,262.461 203.316,281.66 199.203,283.203 C196.801,281.656 187.371,277.027 177.258,270.172"/>
  <path fill="rgb(3.137255%, 2.745098%, 4.705882%)" opacity="0.944" d="M183.941,126.172 C182.398,123.258 178.969,121.371 171.941,119.828 C160.113,116.914 157.371,115.199 160.113,112.285 C161.312,110.914 165.258,110.227 171.086,110.57 C178.973,111.258 180.172,112.113 183.086,117.426 C184.973,120.855 186,125.141 185.828,126.855 C185.484,129.77 184.973,129.258 183.941,126.172"/>
  <path fill="rgb(0.784314%, 0.392157%, 0.784314%)" opacity="0.866" d="M212.742,246 C210.344,249.43 208.113,253.027 206.227,256.973 C205.539,258.344 204.855,259.715 203.656,260.574 C200.742,262.633 196.457,260.23 194.742,256.973 C193.199,253.715 193.027,249.945 191.828,246.516 C190.629,243.086 186.855,240 183.598,241.371 C181.539,242.059 180.34,244.285 178.285,244.973 C174.855,246.344 171.086,242.742 170.398,239.145 C169.543,235.543 170.398,231.773 170.227,228 C170.055,224.23 167.996,220.113 164.227,219.602 C161.312,219.258 158.742,221.145 156.168,222.516 C153.598,223.887 149.824,224.23 148.281,221.66 C147.766,220.633 147.766,219.43 147.594,218.402 C147.422,208.973 147.422,199.375 147.25,189.945 C143.992,188.574 142.277,193.375 139.879,195.945 C136.109,200.059 128.566,197.66 125.992,192.688 C123.422,187.715 124.277,181.715 125.992,176.574 C127.707,171.43 129.934,166.117 129.934,160.461 C129.934,159.262 129.762,158.062 129.246,157.203 C127.359,154.461 122.902,156.004 120.504,158.23 C118.105,160.629 115.875,163.887 112.445,163.887 C109.188,150.344 113.816,135.773 122.387,124.801 C125.301,121.031 128.73,117.43 129.414,112.801 C130.613,104.402 122.898,98.402 119.812,91.543 C114.328,79.543 122.383,64.801 135.07,62.23 C140.555,61.031 146.215,61.887 151.699,62.918 C153.414,63.262 164.727,64.633 165.07,65.66 C162.5,58.973 162.5,51.43 165.07,44.746 C165.414,44.059 165.758,43.203 166.613,43.031 C167.301,42.859 167.984,43.203 168.672,43.547 C175.188,47.488 180.5,53.66 187.527,56.746 C189.242,57.434 191.297,57.945 192.672,56.746 C193.527,56.059 193.871,54.859 194.043,53.66 C195.93,44.402 194.898,34.461 198.844,25.891 C199.359,24.863 199.871,23.832 200.902,23.492 C201.59,23.32 202.273,23.492 202.961,23.836 C206.902,25.551 209.133,29.836 210.332,33.949 C211.531,38.062 212.047,42.52 214.273,46.293 C216.504,50.062 220.961,52.98 224.902,51.438 C228.16,50.238 229.875,46.809 232.102,44.238 C236.043,39.609 242.043,36.867 248.215,37.039 C247.359,42.867 246.672,48.695 245.816,54.523 C245.645,55.895 245.473,57.266 245.816,58.637 C246.672,61.035 249.586,62.406 252.16,62.406 C254.73,62.406 257.305,61.551 259.875,61.207 C267.762,60.18 275.988,63.949 280.105,70.809 C284.219,77.496 283.875,86.75 279.25,93.094 C276.68,96.695 273.078,99.438 271.707,103.551 C269.309,110.75 274.793,117.949 279.25,124.293 C282.852,129.438 301.02,164.578 291.078,168.18 C289.191,168.867 286.965,168.008 285.422,166.637 C281.48,163.207 276.852,160.121 274.621,167.492 C272.906,172.977 273.594,179.664 274.105,185.148 C274.449,188.406 274.621,191.836 273.418,194.75 C271.359,200.062 265.531,198.863 261.418,201.777 C256.273,205.207 254.73,211.379 253.875,217.207 C253.188,221.664 250.273,230.578 246.16,232.977 C239.305,236.918 241.703,228.004 237.246,225.949 C230.398,222.688 216.172,241.199 212.742,246 Z"/>
  <path fill="rgb(97.254902%, 98.039216%, 98.039216%)" opacity="0.996" d="M183.941,219.086 C178.285,217.027 176.742,215.145 176.398,210.344 C176.055,207.602 175.371,204.859 175.543,204.516 C175.715,204.516 181.887,202.285 189.602,199.543 L202.801,194.914 L216.172,199.715 C229.371,204 231.086,205.543 228.344,211.887 C225.258,220.629 198.172,224.914 183.941,219.086"/>
  <path fill="rgb(73.72549%, 58.039216%, 16.078431%)" opacity="0.996" d="M239.828,166.629 C240,165.602 236.059,158.742 231.258,151.199 C224.23,140.398 222.688,136.801 221.656,132.344 C223.887,125.316 226.457,122.742 233.141,120 C236.055,118.801 240.168,118.801 242.742,116.57 C244.113,115.371 244.801,112.969 243.598,111.598 C242.57,110.57 240.855,110.398 239.484,110.398 C214.629,110.57 189.941,110.914 165.086,111.086 C162.516,111.086 158.914,112.457 159.773,114.855 C160.117,115.711 160.973,116.227 161.832,116.742 C165.602,118.629 169.719,119.484 173.66,121.027 C177.602,122.57 181.375,125.312 182.574,129.426 C183.773,133.539 181.887,137.824 179.832,141.598 C175.375,150.34 170.062,158.57 164.062,166.285 C158.062,158.914 152.234,151.543 147.949,143.141 C138.348,123.77 143.664,106.113 158.062,91.199 C163.891,85.199 171.605,75.598 180.863,76.113 C186.008,76.457 190.293,80.055 195.262,81.941 C209.66,87.598 221.832,71.828 235.203,80.398 C244.973,86.57 252.859,98.227 257.145,108.855 C260.574,117.598 261.602,127.543 259.031,136.797 C256.461,145.711 248.746,152.055 245.66,160.797 C242.23,168.172 240.172,170.059 239.828,166.629"/>
  <path fill="rgb(90.196078%, 82.352941%, 65.490196%)" d="M189.086,160.285 C179.828,160.285 180,160.285 178.973,153.77 C178.285,149.828 179.145,144.34 181.543,139.711 C185.656,130.625 185.656,127.711 181.887,118.625 C179.145,111.426 178.285,111.426 162.344,111.598 C157.199,110.91 158.402,107.484 163.887,106.453 C166.117,106.281 172.457,103.883 178.285,101.652 C183.086,99.766 191.312,94.625 195.43,100.453 C198.172,104.395 197.145,114.168 204.172,111.598 C208.285,110.055 208.629,103.711 211.887,101.141 C215.488,98.227 219.43,98.57 223.715,99.941 C228,101.141 244.113,104.57 245.828,109.371 C246.172,110.57 244.801,111.258 243.258,111.258 C241.543,110.742 236.57,111.086 232.285,111.602 C224.742,112.289 224.57,112.801 222.684,120.516 C220.969,127.887 220.969,132.688 222.512,139.887 C223.711,145.199 223.539,151.887 220.453,156.688 C217.023,162.172 212.738,161.145 206.738,162.516 C202.113,161.828 193.887,161.145 189.086,160.285"/>
  <path fill="rgb(93.72549%, 89.019608%, 79.607843%)" opacity="0.988" d="M173.312,195.941 C169.543,191.484 165.598,182.742 164.227,175.883 C162.512,167.652 169.539,156.168 173.828,149.484 C174.684,148.113 176.227,146.57 177.77,146.914 C178.625,147.086 179.141,147.77 179.656,148.457 C184.457,154.973 186.512,163.715 191.828,169.715 C195.086,173.484 201.77,176.57 201.941,182.57 C202.113,186.34 200.227,188.227 192.512,191.656 C178.629,197.828 175.199,198.688 173.312,195.941"/>
  <path fill="rgb(93.72549%, 90.980392%, 84.313725%)" d="M218.23,194.059 C207.602,189.945 202.629,186 202.629,181.715 C202.801,175.715 213.773,171.773 217.027,167.828 C220.113,164.059 221.312,157.887 220.969,153.086 C220.625,148.457 218.055,144.172 224.055,141.258 C225.426,140.57 239.656,165.945 240.34,169.027 C241.539,175.027 234.34,194.227 230.055,196.113 C228.344,197.312 224.398,196.629 218.23,194.059"/>
</svg>

