<svg viewBox="0 0 512 512" xmlns="http://www.w3.org/2000/svg">
  <g transform="translate(50, 50) scale(0.8)">
    <!-- Violin Body -->
    <path d="M312 256c0 48.523-39.477 88-88 88s-88-39.477-88-88c0-7.18 1.085-14.058 3.07-20.574-31.244-9.14-55.07-38.06-55.07-72.426 0-41.355 33.645-75 75-75 34.366 0 63.286 23.826 72.426 55.07C241.942 169.085 248.82 168 256 168s14.058 1.085 20.574 3.07C299.814 164.826 328.734 141 363.1 141c41.355 0 75 33.645 75 75 0 34.366-23.826 63.286-55.07 72.426 1.985 6.516 3.07 13.394 3.07 20.574z" fill="#8f6132" />
    <!-- F-hole -->
    <ellipse cx="236" cy="256" rx="8" ry="20" fill="black" />
    <ellipse cx="276" cy="256" rx="8" ry="20" fill="black" />
    <!-- Violin Neck -->
    <rect x="240" y="88" width="32" height="80" fill="#5b3c1c" />
    <!-- Violin Pegbox -->
    <rect x="240" y="32" width="32" height="40" fill="#3f2c18" />
    <!-- Bow -->
    <line x1="440" y1="440" x2="60" y2="60" stroke="#2b2b2b" stroke-width="6" />
    <line x1="440" y1="60" x2="60" y2="440" stroke="#2b2b2b" stroke-width="2" />
  </g>
</svg>