<svg viewBox="0 0 512 512" xmlns="http://www.w3.org/2000/svg">
  <!-- Full Moon -->
  <circle cx="400" cy="100" r="60" fill="#FDB813" />
  
  <!-- Hill -->
  <path d="M0 512 L256 256 L512 512 Z" fill="#3B5323" />

  <!-- Wolf -->
  <path d="M220 260 Q230 250, 240 260 L250 290 L240 280 Q230 290, 220 270 L210 290 Q200 280, 210 270 L220 260 Z" fill="#2F4F4F"/>
  <path d="M230 260 Q225 255, 220 270 L215 280 L220 265 Q225 260, 230 260 Z" fill="#2B2B2B"/>

  <!-- Wolf Howling Details -->
  <circle cx="230" cy="250" r="10" fill="#2B2B2B" />

  <!-- Stars in the sky -->
  <circle cx="50" cy="50" r="3" fill="#FFFFFF" />
  <circle cx="120" cy="80" r="2" fill="#FFFFFF" />
  <circle cx="75" cy="150" r="4" fill="#FFFFFF" />
  <circle cx="300" cy="40" r="3" fill="#FFFFFF" />
  <circle cx="480" cy="120" r="2" fill="#FFFFFF" />
  <circle cx="420" cy="200" r="2" fill="#FFFFFF" />
  <circle cx="390" cy="50" r="3" fill="#FFFFFF" />
</svg>