<svg xmlns="http://www.w3.org/2000/svg" viewBox="0 0 512 512">
  <!-- Bun Top -->
  <ellipse cx="256" cy="128" rx="180" ry="80" fill="#f4a460" />
  <!-- Sesame Seeds -->
  <circle cx="210" cy="112" r="5" fill="#fff8dc" />
  <circle cx="250" cy="115" r="5" fill="#fff8dc" />
  <circle cx="300" cy="110" r="5" fill="#fff8dc" />
  <!-- Lettuce -->
  <path d="M76 160c20 10 40 20 60 20s40-10 60-10 40 10 60 20 40-10 60-10 40 10 60 0c20-10 40-10 60 0v10h-480v-10c20-10 40-10 60 0" fill="#98fb98" />
  <!-- Tomato -->
  <circle cx="256" cy="210" r="70" fill="#ff6347" />
  <!-- Cheese -->
  <path d="M80 280h352l-10 30h-332l-10-30z" fill="#ffda44" />
  <!-- Patty -->
  <rect x="80" y="310" width="352" height="40" rx="20" fill="#8b4513" />
  <!-- Bun Bottom -->
  <ellipse cx="256" cy="380" rx="180" ry="40" fill="#f4a460" />
</svg>