<svg viewBox="0 0 512 512" xmlns="http://www.w3.org/2000/svg">
  <path d="M360.303 60.421c-6.58 0-13.11 0.958-19.418 2.275-35.68-5.957-67.114-27.086-82.588-59.299-1.493 26.381-7.558 51.924-21.15 73.264a107.151 107.151 0 0 0-1.574 2.633c-25.615 43.654-85.835 62.193-130.675 82.453-45.016 20.357-89.575 43.833-111.016 89.136 20.327 39.82 36.273 68.799 44.533 82.003 40.857-42.599 91.762-53.962 137.14-55.418 55.54-32.306 111.66-62.861 172.56-56.381 28.937 25.994 60.208 44.017 95.493 47.71 14.823-34.593 10.985-76.654-1.332-114.997-23.595-74.89-79.926-128.611-151.73-136.067-4.268-0.677-8.54-0.973-12.815-1.292zm-31.67 93.459c35.824 22.346 60.778 55.172 73.56 93.143-40.049-0.865-78.207-21.272-122.29-41.086-3.822-1.7-7.641-3.413-11.47-5.07 28.73-14.958 46.679-31.61 60.2-47.068zm-78.88 167.32-0.887 0.006c-53.007 0.818-97.068 14.313-123.763 40.324 6.839 11.428 16.399 24.85 27.415 38.642 57.294-13.863 102.549-45.872 141.86-79.079-13.323-0.655-27.256-0.638-41.62 0.107zm25.954 1.527c-27.384 25.3-61 51.485-102.11 66.275-5.732 6.078-8.879 9.384-13.81 18.78 56.737 42.297 142.506 19.139 168.81-49.967 25.702-10.951 49.607-23.908 67.99-38.35 0.656 0.048 1.312 0.102 1.968 0.15 49.76 28.608 101.43 53.8 158.49 38.936 15.297-10.49 29.024-22.32 41.652-35.25 6.968-7.704 9.012-13.489 7.04-17.047-18.863-10.53-37.845-20.798-56.81-30.92-66.388 2.083-117.46 29.24-165.86 56.087-28.762-30.374-68.554-43.618-105.03-42.761zM342.668 292c19.294 0 34.916 15.622 34.916 34.916s-15.622 34.915-34.915 34.915-34.916-15.621-34.916-34.915S323.375 292 342.668 292zm-173.332 56.254c19.294 0 34.916 15.621 34.916 34.915s-15.622 34.916-34.915 34.916-34.916-15.622-34.916-34.916 15.621-34.915 34.915-34.915z" />
</svg>