<svg viewBox="0 0 512 512" xmlns="http://www.w3.org/2000/svg">
  <g transform="translate(256,256) scale(0.5) translate(-256,-256)" fill="#ff6f00">
    <path d="M437.5,108.7c2.7-1.2,4.9-3.3,6.5-5.6c1.5-2.4,2.5-5.2,2.8-8.2c0.3-3.1-0.3-6-1.7-8.9c-3.3-7.2-11.7-11.3-19.5-9.6
      c-0.4,0.1-0.8,0.2-1.2,0.2c2.2-1.4,4.3-2.8,6.4-4.5c3.6-2.6,6.2-6.1,8.2-9.8c3.1-6.3,3-13.6-0.2-19.7c-3.1-6.1-9.1-10.6-16.1-11.6
      c-7.1-1-13.9,2.1-18.2,7.7c-3.2,4.1-7.1,9-11.3,13.5c-4.4,4.6-8.9,9.2-13.4,13.5c-7.1-5.9-15.2-10.4-23.9-13.1
      c-19.2-6.2-39.2-8.6-59.2-7c-7.2,0.6-14.6,1.5-21.9,2.7c-7.2,1.2-14.5,2.6-21.6,4.4c-11.3,2.8-22.1,6.5-32.7,10.8
      c-21.2,8.7-41.7,19.7-60.7,32.8c-5.4-6-12.2-10.6-19.6-13.2c-7.3-2.6-14.8-4.1-22.3-4.4c-15,.3-29.8,6-41.7,16.7
      c-11.8,10.6-20.6,25.4-24.3,41.5c-1.9,8.3-1.7,17.2,0.3,25.6c2,8.5,5.8,16.5,11.1,23.6c0.2,0.4,0.5,0.7,0.7,1h-0.5
      c-7-0.2-14.2,2.7-19.6,7.7c-5.4,5-9.3,11.9-10.6,19.5c-0.6,3.7-0.4,7.4,0.2,11L4.5,278.8c-4.2,2.7-8.4,7.1-11.1,11.1
      c-2.9,4.5-5.1,9.5-6.4,14.8c-1.2,5.2-1.7,10.7-1.4,16c0.3,5.2,1.1,10.5,2.6,15.5c3.1,10.1,9.4,19.1,17.9,26.1
      c6.3,5.1,13.2,8.8,20.8,11c3.8,3.3,8.1,6,12.8,8c3.6,1.5,7.3,2.7,11.2,3.6c9.2,2.1,19,2.1,28.1-0.8c2.6-0.8,5-1.9,7.4-3
      c2.2-1,4.4-2.1,6.6-3.4l34.5-20.9c5.4,14.5,15.2,27,28.3,35.5c12.6,8.1,28,11.7,43.4,10.2c10.3-1,19.9-4.5,28.6-10
      c24.2-15,52.1-23.6,80.5-25.1c11-.6,21.9,0.1,32.7,1.6c8,1.1,16.3,2.3,24.1,3.8c6.2,1.1,12.4,2.3,18.5,3.8c5.7-2,11-4.9,15.6-8.4
      c4.3-3.1,8.1-6.9,11.1-11.3c5.4-8.3,9.1-18.3,10.2-28.3c1.3-11.5-0.7-23.4-5.7-33.7l29.8-52.8c4.7,0.5,9.4,0.7,14.1,0.9
      c7.1,0.3,14.2-1.2,20.6-4.3c-0.9,1.2-1.5,2.5-1.9,4c-5.4,17.5-4.7,36.2,1.6,53.4c3.1,8.5,7.4,16.7,12.8,24.2
      c5.4,7.6,11.7,14.4,18.9,20.3c5.5,4.6,11.3,8.8,17.4,12.2c7.9,4.4,16.2,7.8,24.8,10c4.3,1.1,8.8,1.8,13.2,2l0.2,0h0
      l0.4-0.1h2c0.2,7.5-1.8,14.7-5.7,20.9c-3.9,6.1-9.5,11-16.3,14.1c-6.5,3-13.8,4.3-21,3.7c-4-5.2-9.2-9.6-15.2-12.7l-53.4-18.7
      c-8.3-3-16.1-7.5-23-13.1c-5.9-5-10.2-11.1-12.5-18.2c-2.2-7-2.3-14.4-0.3-21.3c2-7.1,4.8-13.9,7.2-20.8h-0.1h-0.1
      c-0.3-0.8-0.3-1.6-0.2-2.4c0.1-0.9,0.1-1.9,0.5-2.7c0.2-0.4,0.3-0.8,0.5-1.2c0.3-0.8,0.8-1.5,1.5-1.9c1-0.5,2.3-0.4,3.3,0.1
      c1.1,0.5,1.9,1.6,2.6,2.8c0.6,1.1,1.3,2.3,1.8,3.5s0.9,2.5,1.6,3.5c0.7,1,1.5,1.6,2.5,2.1c1.2,0.6,2.6,0.7,4,0.3
      c3.5-1.1,6.5-4.3,8.4-8c3.8-6.9,6.9-14.3,9.8-21.7c-0.7-1.4-1.4-2.8-2.3-4.1c-4.1-6-11.8-8.6-18-6.2c-3.2,1.3-6,4-7.6,6.8
      c-0.6,1-1.1,2.1-1.5,3.2c0.6-0.2,1.4-0.5,1.9-0.7c1.4-0.3,2.6-0.3,3.9,0.2c1.3,0.5,2.5,1.6,3.4,2.9c1.9,2.4,2.3,5.6,1.4,8.4
      c-0.3,1.1-0.7,1.9-1,2.9c0,0.2-0.1,0.4-0.1,0.5c-3-1.4-6.2-2.8-9.3-4.1c-2.5-1-4.8-1.2-7.4-0.9s-4.8,0.7-7.5,1
      c-2.6,0.3-5.2,0.3-7.8,1.2c-2.2,0.7-4.2,1.7-6.1,2.9c-2.3,1.5-4.3,3.4-6.1,5.4c-1.6,1.8-3,3.7-4.2,5.7c-4.5,6.5-7.5,14.1-9.4,22
      c-2.2,8.5-3,17.3-3.9,25.9c-0.7,6.7-1.3,13.4-2.3,19.7c-2,13.1-6.3,25.5-15.1,36c-1.3,1.6-2.6,3.3-3.8,5.1c-1.2,1.5-2.5,3.2-3.7,4.7
      l-1,1.2l-2.5,3.1H372.7c-8.5,0-17.3,1-25.7,1.7c-10.3,0.9-20.4,2.9-29.9,6.3c-22.3,8-43.4,21.2-61.6,38
      c-10.2,9.7-17,23.2-18.6,37.1c-0.8,7-0.5,14.2,1.1,21.1H86.8c-8.1,0-16-2.4-22.6-6.9c-6.7-4.5-12.1-11-15-18.8
      c-2.8-7.7-3.6-15.9-2.6-24c1-8.1,3.4-15.8,6.6-22.9c1.6-3.4,3.5-6.6,5.8-9.6c2.3-3,4.9-5.7,7.9-8.2c3.2-2.8,6.7-4.9,10.5-6.2
      c-0.5,2.2-1,4.4-1.4,6.7c-1.8,8.6-3.1,17.5-4.2,26.4c-0.5,4.6-0.7,9.3-0.9,13.9c0.2,4.6,0.6,9.2,0.8,13.8c3.1,3.9,6.5,7.5,10,11
      c5.3,5.1,10.8,9.7,16.6,13.7c3.5,2.4,7,4.7,10.6,6.8l1.1,0.7c5,2.9,10,5.5,15,7.8c17.4,7.7,36.1,13.7,54.8,17.5c4.7,2.1,9.6,3.9,14.5,5.4
      c5.2,1.8,10.5,3,15.9,4c6.5,1.1,13-0.2,18.4-3.3c5.4-3.1,9.5-7.5,12.6-12.4c4.4-7.1,8.4-14.6,12-22.5c1.9-4.2,3.5-8.4,4.8-12.6
      c1.3-4.2,1.8-8.6,2.4-12.9c0.2-1.5,0.5-3,0.7-4.7c0.2-2.7,0.2-5.4,0.3-8.1c0.4-3.6,0.1-7.3,0.1-10.9c-0.1-7.2-1-14.3-2.5-21.2
      c-1.6-7.3-3.7-14.6-6.2-21.5c0.1-0.5,0.3-1,0.4-1.4c0.3-1,0.5-2.1,1.2-3.1c0.6-1.1,1.5-1.9,2.8-2.2c1.3-0.4,2.8-0.1,3.9,0.6
      c1,0.6,1.9,1.4,2.6,2.3c0.5,0.9,1,1.9,1.4,2.9c0.3,1,0.8,1.8,1.2,2.6c5.2-1.5,10.2-3.1,15-5c6.3-2.7,12.6-6.2,17.6-11.2
      c16.1-16.2,27-36.3,31.6-58.2c2.2-10.9,3.5-22,7-32.7c0.6-1.8,1.3-3.6,2-5.4l49.8,27.5c1-0.5,1.9-1.1,2.8-1.8c8.5-5.8,16.4-12.6,23.5-20.4
      c13.6-15.1,23.7-32.6,27.2-52.2c1-5.7,1.2-11.6,0.2-17.4c0.7-0.1,1.5-0.3,2.2-0.5c0.3-0.1,0.7-0.2,1-0.4C438.1,119.1,438.3,113.7,437.5,108.7
      z"/>
  </g>
</svg>