<svg width="512" height="512" viewBox="0 0 512 512" xmlns="http://www.w3.org/2000/svg">
  <circle cx="256" cy="256" r="250" fill="#87CEEB" />
  <path d="M156 400 C140 380, 140 360, 160 350 S 200 340, 210 350 C230 360, 230 380, 210 400 Z" fill="#8B4513" />
  <circle cx="200" cy="280" r="30" fill="#8B4513" />
  <circle cx="312" cy="280" r="30" fill="#8B4513" />
  <ellipse cx="256" cy="220" rx="120" ry="80" fill="#8B4513" />
  <ellipse cx="256" cy="220" rx="100" ry="60" fill="#A0522D" />
  <path d="M246 200 C240 190, 270 190, 266 200" fill="#000" />
  <circle cx="230" cy="210" r="10" fill="#000" />
  <circle cx="282" cy="210" r="10" fill="#000" />
  <path d="M246 240 C245 250, 265 250, 266 240" fill="#000" />
  <path d="M306 320 C310 310, 350 330, 360 310 Q 370 300, 365 320 C360 340, 320 340, 306 320 Z" fill="#8B4513" />
  <circle cx="344" cy="292" r="12" fill="#000" />
</svg>