<svg viewBox="0 0 512 512" xmlns="http://www.w3.org/2000/svg">
  <!-- Moon surface -->
  <ellipse cx="256" cy="460" rx="220" ry="60" fill="lightgrey" />

  <!-- Astronaut body -->
  <rect x="210" y="180" width="90" height="150" rx="20" ry="20" fill="white" stroke="black" stroke-width="4"/>
  
  <!-- Helmet -->
  <circle cx="255" cy="140" r="55" fill="white" stroke="black" stroke-width="4"/>
  <circle cx="255" cy="140" r="45" fill="skyblue" />
  <path d="M210,140 a45,45 0 0,0 90,0" fill="none" stroke="black" stroke-width="4" />
  
  <!-- Arms -->
  <rect x="180" y="200" width="30" height="100" rx="15" ry="15" fill="white" stroke="black" stroke-width="4"/>
  <rect x="300" y="200" width="30" height="100" rx="15" ry="15" fill="white" stroke="black" stroke-width="4"/>
  
  <!-- Legs -->
  <rect x="210" y="330" width="30" height="100" rx="15" ry="15" fill="white" stroke="black" stroke-width="4"/>
  <rect x="270" y="330" width="30" height="100" rx="15" ry="15" fill="white" stroke="black" stroke-width="4"/>
  
  <!-- Backpack -->
  <rect x="190" y="190" width="20" height="80" fill="white" stroke="black" stroke-width="4"/>
  <rect x="300" y="190" width="20" height="80" fill="white" stroke="black" stroke-width="4"/>
  
  <!-- Moon craters -->
  <circle cx="130" cy="460" r="20" fill="darkgrey" />
  <circle cx="370" cy="470" r="30" fill="darkgrey" />
  <circle cx="270" cy="450" r="15" fill="darkgrey" />
</svg>