<svg viewBox="0 0 512 512" xmlns="http://www.w3.org/2000/svg">
  <!-- Center of the sunflower -->
  <circle cx="256" cy="256" r="60" fill="#8B4513" />
  <!-- Petals -->
  <g fill="#FFD700">
    <polygon points="256,10 276,140 236,140" transform="rotate(0, 256, 256)" />
    <polygon points="256,10 276,140 236,140" transform="rotate(30, 256, 256)" />
    <polygon points="256,10 276,140 236,140" transform="rotate(60, 256, 256)" />
    <polygon points="256,10 276,140 236,140" transform="rotate(90, 256, 256)" />
    <polygon points="256,10 276,140 236,140" transform="rotate(120, 256, 256)" />
    <polygon points="256,10 276,140 236,140" transform="rotate(150, 256, 256)" />
    <polygon points="256,10 276,140 236,140" transform="rotate(180, 256, 256)" />
    <polygon points="256,10 276,140 236,140" transform="rotate(210, 256, 256)" />
    <polygon points="256,10 276,140 236,140" transform="rotate(240, 256, 256)" />
    <polygon points="256,10 276,140 236,140" transform="rotate(270, 256, 256)" />
    <polygon points="256,10 276,140 236,140" transform="rotate(300, 256, 256)" />
    <polygon points="256,10 276,140 236,140" transform="rotate(330, 256, 256)" />
  </g>
</svg>