<svg viewBox="0 0 512 512" xmlns="http://www.w3.org/2000/svg">
  <path d="M256 512c-28.7-71.9 110.7-101.4 130.5-173.3 6.4-22.9 5.7-47.4 13.1-69.6 6-26 13.4-51.9 22.3-77.2 9.8-23.8 24.8-44.8 43.6-61.2-4.5-6.3-2.9-14.6 4-19.3 19.3-50-18.1-115 7.2-171.3 2.9-.1 5.8 1.5 6.8 4.4 1 2.7-.3 5.8-1.2 8.6-19.7 55.3-17.8 122.5-1 179.7.2 2.7-.1 5.3-1 7.8-1 2.3-4.2 4-5.4 7.1-6.4 24-9 49.1-7.8 74 1.3 38.9 7.1 78.8-9.3 116.4-30.2 55.6-95.7 67.1-139.9 88.4zm-195-448C57 5 84-10 112 0c26.9 9.7 44 36.2 56 60.7 11.3 23.4 13.6 50.5 16 76.6 6.7 14.6 18 26.8 34.3 29.4 35.9 5.6 69.4 19.5 98 38.4 25.8 16.7 50.4 34.7 78.3 48.8 22.8 11.8 41.4 30.3 57.2 50.2 8.5 10.5 15.7 21.8 22.5 33.2 5.2 8.5 8.7 17.8 11.4 27.3 1 3.6 1 7.3 2 10.9 3.9 14.2 9.9 27.4 17.4 41.1 19.3 34.5 68.4 50 106.8 31.5 23.9-11.3 39.9-32.8 55.8-51.3 16.8-19.8 34-39.7 52.4-58 19.4-19.6 39.7-38 61.4-54.9 14.9-11.6 32.4-18 51-18.2 12.2-.9 24.6.6 36.3 3.6 17.7 4.6 34.8 13.9 50.1 25.4 13.7 10.6 23 27.3 37.8 38.4 14.1 10.4 33.4 11.9 51.2 8 12.3-2.5 24.5-6.8 36.6-11.9 10.7 63.6 49.8 123.3 101.2 163.5 13.7 10.7 27.1 22.4 41.4 32.4 14.4 10.1 30.1 19.5 46.8 24.2 15 8.7 32 4 46.8 10.2 12.1 5 21.2-2.1 34.5-2.7h2.7c9.4.2 18.6.8 27.8 2.6 15.5 2.8 29.1 .3 43.2-4 13.6-4.1 27.2-8.9 41.1-9.3 6.8-.3 13.5 7.4 20.3 5.6 6.6-2.2 6.5-10.9 9.6-16.3 6.2 70.8-22.9 142.9-72.4 194.1-49.4 51.4-116.8 82.6-182.1 111.6-39.7 15.6-81 29.3-121.2 44.2-53.2 15.7-102.6.9-156.4 28.2-35.6 13.4-68.8 11.2-105.6 1.9-17.4-4.4-34.3-13.4-51.4-21.6-12.5-6.7-24.7-13.6-37.1-20.2-13.2-7.3-25.9-16.3-37.6-26.6-15.3-12.9-24.6-32.8-34.2-50-15-26.9-27.3-55.7-35.4-85.9-3.9-14.9-8.1-29.5-13.3-43.9-8.1-22.3-42.3-97.4-36.2-115.7z" fill="#FFD700" stroke="#000" stroke-width="4"/>
</svg>