<svg viewBox="0 0 512 512" xmlns="http://www.w3.org/2000/svg">
  <path d="M256 32C132.288 32 32 132.288 32 256v48c0 35.346 28.654 64 64 64h16c17.673 0 32-14.327 32-32v-96c0-17.673-14.327-32-32-32h-16c-11.598 0-22.063 3.447-31.28 9.28C85.416 162.75 161.454 96 256 96s170.584 66.75 191.28 160.28C422.063 272.553 411.598 272 400 272h-16c-17.673 0-32 14.327-32 32v96c0 17.673 14.327 32 32 32h16c35.346 0 64-28.654 64-64v-48c0-123.712-100.288-224-224-224zm-144 320c-8.837 0-16-7.163-16-16v-96c0-8.837 7.163-16 16-16 8.837 0 16 7.163 16 16v96c0 8.837-7.163 16-16 16zm304 0c-8.837 0-16-7.163-16-16v-96c0-8.837 7.163-16 16-16 8.837 0 16 7.163 16 16v96c0 8.837-7.163 16-16 16z" fill="black"/>
</svg>