<svg viewBox="0 0 512 512" xmlns="http://www.w3.org/2000/svg">
  <circle cx="256" cy="256" r="200" fill="#FFC107"/>
  <path d="M256 56c-110.5 0-200 89.5-200 200s89.5 200 200 200 200-89.5 200-200S366.5 56 256 56zm0 360c-88.4 0-160-71.6-160-160s71.6-160 160-160 160 71.6 160 160-71.6 160-160 160z" fill="#FF9800"/>
  <path d="M256 316c-49.7 0-90-40.3-90-90s40.3-90 90-90 90 40.3 90 90-40.3 90-90 90zm0-150c-33.1 0-60 26.9-60 60s26.9 60 60 60 60-26.9 60-60-26.9-60-60-60z" fill="#795548"/>
  <circle cx="215" cy="226" r="15" fill="#000"/>
  <circle cx="297" cy="226" r="15" fill="#000"/>
  <path d="M256 296c-22.1 0-40 14.3-40 32h80c0-17.7-17.9-32-40-32z" fill="#795548"/>
</svg>