<svg viewBox="0 0 512 512" xmlns="http://www.w3.org/2000/svg">
  <path fill="red" d="M256,16c-8.837,0-16,7.163-16,16v27.314l-11.314-11.314c-6.247-6.247-16.379-6.247-22.626,0L133.386,97.314
    c-6.247,6.247-6.247,16.379,0,22.626L144,130.554l-17.892,5.964c-8.721,2.908-14.484,11.306-13.694,20.724
    c0.11,1.307,0.392,2.588,0.84,3.824l24,62.028L98.872,239.896c-6.2,5.565-7.525,15.102-3.086,22
    c1.158,1.79,2.735,3.34,4.586,4.514l32,32c6.229,6.229,16.37,6.247,22.61,0.04l0,0.04L176,272.554l0,93.932
    c0,7.828,5.036,14.687,12.632,17.384l15.14,5.312c7.273,2.544,14.756,0.376,20-5.152c4.566-4.688,7.154-10.94,7.756-17.532
    l1.668-29.872c0.464-8.271-1.276-16.47-4.852-23.458l-0.864-1.692c-1.4-2.704-3.703-4.964-6.812-6.718l-40-24
    c-7.697-4.616-10.68-14.192-7.072-22.004l26.312-56.434l31.654,0.104c4.365,0.019,8.587-1.608,11.74-4.636
    l41.812-38.404c5.315-4.892,12.702-4.892,18.016,0L315.174,216.7c3.153,3.029,7.375,4.655,11.74,4.636l31.654-0.104
    L414.88,66.562l-0.24-0.52c-3.608-7.812-0.624-17.388,7.072-22.004l40-24c0,0,0.033-0.020,0.104-0.060l58.168-31.008
    C498.852,4.176,504,0,504,0H360.066c0,0,6.074,7.214,4.268,14.878L325.2,152.008c-1.468,6.382-6.688,11.068-13.3,12.192
    l-88,15.376c-6.612,1.124-12.832-2.094-15.544-7.844l-44-94c-0.992-2.108-2.832-3.732-5.04-4.36L283.75,16H256L256,16z"/>
</svg>