<svg viewBox="0 0 512 512" xmlns="http://www.w3.org/2000/svg">
  <rect width="512" height="512" fill="black" />
  <!-- Stars -->
  <circle cx="50" cy="50" r="1.5" fill="white" />
  <circle cx="100" cy="80" r="2" fill="white" />
  <circle cx="150" cy="120" r="1.5" fill="white" />
  <circle cx="200" cy="60" r="1" fill="white" />
  <circle cx="250" cy="100" r="2.5" fill="white" />
  <circle cx="300" cy="50" r="1.5" fill="white" />
  <circle cx="350" cy="150" r="2" fill="white" />
  <circle cx="400" cy="80" r="1.5" fill="white" />
  <circle cx="450" cy="130" r="2" fill="white" />
  <circle cx="500" cy="90" r="1" fill="white" />
  <circle cx="50" cy="250" r="2" fill="white" />
  <circle cx="100" cy="280" r="1.5" fill="white" />
  <circle cx="150" cy="300" r="2" fill="white" />
  <circle cx="200" cy="250" r="1" fill="white" />
  <circle cx="250" cy="280" r="1.5" fill="white" />
  <circle cx="300" cy="270" r="2" fill="white" />
  <circle cx="350" cy="300" r="1.5" fill="white" />
  <circle cx="400" cy="250" r="2.5" fill="white" />
  <circle cx="450" cy="310" r="1.5" fill="white" />
  <circle cx="500" cy="290" r="1" fill="white" />
  <circle cx="50" cy="450" r="1.5" fill="white" />
  <circle cx="100" cy="490" r="2" fill="white" />
  <circle cx="150" cy="460" r="1" fill="white" />
  <circle cx="200" cy="420" r="1.5" fill="white" />
  <circle cx="250" cy="470" r="2" fill="white" />
  <circle cx="300" cy="440" r="1.5" fill="white" />
  <circle cx="350" cy="490" r="1" fill="white" />
  <circle cx="400" cy="450" r="2" fill="white" />
  <circle cx="450" cy="410" r="1.5" fill="white" />
  <circle cx="500" cy="470" r="2.5" fill="white" />
</svg>