<svg viewBox="0 0 512 512" xmlns="http://www.w3.org/2000/svg">
  <g fill="none" stroke="none">
    <!-- Background circle -->
    <circle cx="256" cy="256" r="200" fill="#e6f7ff"/>
    <!-- Peacock body -->
    <ellipse cx="256" cy="350" rx="20" ry="50" fill="#006400"/>
    <circle cx="256" cy="300" r="20" fill="#006400"/>
    <!-- Peacock head -->
    <circle cx="256" cy="280" r="15" fill="#006400"/>
    <!-- Peacock beak -->
    <polygon points="256,280 246,270 256,265" fill="#ffcc00"/>
    <!-- Feathers -->
    <path d="M256 300 Q150 250 100 100" stroke="#0099cc" stroke-width="20"/>
    <path d="M256 300 Q200 250 160 80" stroke="#ff99cc" stroke-width="20"/>
    <path d="M256 300 Q220 250 220 70" stroke="#cc99ff" stroke-width="20"/>
    <path d="M256 300 Q256 250 256 60" stroke="#99ccff" stroke-width="20"/>
    <path d="M256 300 Q292 250 292 70" stroke="#cc99ff" stroke-width="20"/>
    <path d="M256 300 Q312 250 352 80" stroke="#ff99cc" stroke-width="20"/>
    <path d="M256 300 Q350 250 400 100" stroke="#0099cc" stroke-width="20"/>
  </g>
</svg>