<svg width="512" height="512" viewBox="0 0 512 512" xmlns="http://www.w3.org/2000/svg">
  <path d="M256.69,85.254c-97.125,0-176,78.875-176,176s78.875,176,176,176,176-78.875,176-176S353.815,85.254,256.69,85.254Zm0,15c62.136,0,114.936,26.22,150.466,67.892-7.27-17.315-9.61-30.775-8.093-46.523,2.073-23.69,24.154-26.174,54.341-32.234,10.704-15.707,21.601-24.612,32.657-26.306,4.823-10.915-1.295-23.159-12.825-18.831C428.297,90.027,342.606,222.301,256.69,222.301,157.7,222.301,85.254,294.747,85.254,393.736c-26.174-54.341-32.234-76.422-32.234-100.112,0-97.125,78.874-176,176-176S353.815,85.254,256.69,85.254Z" fill="#03A9F4"/>
  <path d="M323.577,200.611l53.872-53.872c8.899,8.899,17.798,19.273,26.614,30.903l-80.486,80.486-91.681-66.544c-11.631-8.899-22.682-18.707-34.39-27.89,11.707,8.196,22.9,18.167,34.39,27.89l96.441,69.977ZM379.269,266.343l19.273,26.637-38.546,38.547L227.86,186.208l-11.707,8.899,80.486,80.486c7.353,8.899,14.512,17.007,20.347,25.11,5.835,8.102,11.789,16.211,17.637,24.319l23.303,23.303-.955.955L186.208,159.571,198.6,146.179Z" fill="#0288D1"/>
</svg>