<?xml version="1.0" ?>
<svg xmlns="http://www.w3.org/2000/svg" version="1.1" width="512" height="512" viewBox="0 0 512 512">
  <defs/>
  <g>
    <path d="M 407.38656616 428.93533325 C 405.46475220 435.38098145 402.71627808 441.30178833 398.73629761 446.41479492 C 393.98898315 451.09228516 387.82620239 454.44085693 380.00949097 456.09130859 C 370.62084961 456.76452637 359.68478394 456.63037109 347.37731934 456.43991089 C 333.82943726 456.52218628 319.20288086 456.55566406 303.68695068 456.50292969 C 287.43771362 456.37561035 270.64617920 456.41140747 253.49176025 456.35916138 C 236.22613525 456.40924072 219.08541870 456.43060303 202.33129883 456.51974487 C 186.14378357 456.39144897 170.87649536 456.40542603 156.75042725 456.35494995 C 144.12286377 456.85223389 133.20356750 456.51898193 123.95881653 453.74847412 C 116.12136078 449.40423584 110.62884521 442.95339966 107.58171844 434.11648560 C 106.26136017 423.65655518 106.66037750 411.46255493 106.87434387 397.63623047 C 106.81768036 382.35397339 106.76486206 365.82452393 106.83748627 348.10049438 C 106.83904266 329.51376343 106.78366089 310.21185303 106.82527161 290.29058838 C 106.77344513 270.01229858 106.80356598 249.56124878 106.86938477 229.16593933 C 106.75390625 209.04991150 106.72131348 189.32203674 106.84994507 170.25790405 C 106.80648041 152.08508301 106.84052277 134.96423340 106.85169220 119.08348846 C 106.81873322 104.72161865 106.68315887 92.08008575 107.01175690 81.32930756 C 108.82007599 72.70632935 112.74371338 66.40649414 118.88425446 61.94035721 C 126.01508331 58.21683502 134.89422607 57.00618744 145.83489990 57.43593979 C 158.59011841 57.53387451 172.97871399 57.52992249 188.67272949 57.63594437 C 205.58625793 57.66799164 223.26588440 57.62121582 241.50704956 57.53431320 C 260.06643677 57.53474426 278.73773193 57.55776978 297.08139038 57.54711914 C 314.87295532 57.55995560 331.84973145 57.60442352 347.78890991 57.62595749 C 362.24417114 57.48635864 375.03890991 57.41345978 385.86026001 58.63045502 C 394.51754761 61.63367844 400.55743408 67.10572815 404.59631348 74.67997742 C 407.45806885 83.13200378 407.72692871 93.16190338 407.17922974 104.90751648 C 407.30868530 118.17367554 407.33761597 132.77265930 407.19924927 148.47802734 C 407.17111206 165.04878235 407.14767456 182.34429932 407.01525879 200.25949097 C 407.08584595 218.60644531 406.93872070 237.18293762 406.68795776 255.94403076 C 406.96197510 274.80770874 407.39895630 293.70306396 407.36019897 312.57012939 C 407.22293091 331.48672485 407.43136597 350.42178345 407.38656616 428.93533325" stroke-width="0.71789402" fill="rgb(26, 21, 19)" opacity="1.0" stroke="rgb(43, 45, 46)" stroke-opacity="0.48688594" stroke-linecap="round" stroke-linejoin="round"/>
    <path d="M 382.74118042 402.47210693 C 373.33645630 402.75112915 363.88150024 402.93240356 354.26376343 402.96176147 C 344.35656738 403.00512695 334.19796753 402.97732544 323.62414551 402.93075562 C 312.63452148 402.93402100 301.27380371 402.91061401 289.44958496 402.91754150 C 277.21765137 402.94186401 264.62890625 402.98083496 251.73817444 402.98065186 C 238.61141968 402.95422363 225.37821960 402.87756348 212.16374207 402.81311035 C 199.15724182 402.80831909 186.51582336 402.83926392 174.51832581 403.01571655 C 163.39924622 403.25265503 153.38926697 403.30664062 144.80902100 402.64523315 C 137.86665344 400.58886719 132.89778137 396.62338257 129.81530762 390.55422974 C 128.51281738 382.40274048 128.29071045 372.44332886 128.53890991 360.86077881 C 128.74929810 347.89639282 128.87351990 333.74661255 128.89151001 318.57614136 C 128.86026001 302.65081787 128.83703613 286.11041260 128.83624268 269.15875244 C 128.87442017 252.01222229 128.83047485 234.81274414 128.82199097 217.71008301 C 128.80368042 200.88374329 128.79455566 184.43278503 128.82501221 168.59413147 C 128.81703186 153.52847290 128.73545837 139.29449463 128.54635620 126.23661804 C 128.27651978 114.47473907 128.22373962 104.15881348 128.89640808 95.60931396 C 130.91496277 88.88266754 134.69432068 84.27165222 140.42738342 81.59490204 C 148.04942322 80.54349518 157.36572266 80.48820496 168.09226990 80.75381470 C 180.05348206 80.91144562 193.03204346 80.97737885 206.79313660 80.97936249 C 221.17910767 81.03087616 235.96051025 81.11209106 250.93438721 81.16171265 C 266.04290771 81.13253021 280.90145874 81.03998566 295.56866455 80.93405914 C 309.68121338 80.94439697 323.15060425 80.93156433 335.71643066 80.91278839 C 347.24639893 80.79791260 357.43612671 80.71392059 366.17318726 81.12079620 C 373.21405029 82.59482574 378.37734985 85.55578613 381.72177124 90.34034729 C 383.29721069 96.90518188 383.69552612 105.10248566 383.52093506 114.71131897 C 383.29327393 125.46086121 383.14596558 137.22827148 383.07360840 149.83525085 C 383.01962280 163.10343933 383.05340576 176.99609375 383.05023193 191.26991272 C 383.08566284 205.91607666 383.10247803 220.82670593 383.06848145 235.87712097 C 383.08224487 251.10586548 383.09048462 266.42538452 383.10406494 281.79473877 C 383.14523315 297.20590210 383.16830444 312.61828613 383.15802002 328.05227661 C 383.23834229 343.46682739 383.30413818 358.89862061 382.74118042 402.47210693" stroke-width="0.83233821" fill="rgb(46, 50, 60)" opacity="1.0" stroke="rgb(25, 30, 36)" stroke-opacity="0.92322737" stroke-linecap="round" stroke-linejoin="round"/>
    <path d="M 244.05784607 424.57092285 C 244.57777405 423.83102417 244.98991394 423.06427002 245.42832947 422.26855469 C 245.80845642 421.45877075 246.29833984 420.73477173 246.96992493 420.08874512 C 247.64672852 419.40298462 248.47795105 418.80578613 249.32463074 418.25964355 C 250.29017639 417.86105347 251.33078003 417.49774170 252.28022766 417.03869629 C 253.16572571 416.62091064 254.22494507 416.49517822 255.39120483 416.54049683 C 256.55270386 416.68460083 257.78448486 416.82788086 259.12545776 417.10766602 C 260.41906738 417.60083008 261.61953735 418.24130249 262.85092163 419.02307129 C 263.88314819 419.97769165 264.79592896 420.95678711 265.60336304 421.95932007 C 266.28311157 423.08059692 266.78125000 424.07986450 267.04452515 425.13485718 C 267.15628052 426.28277588 267.11846924 427.44592285 267.09930420 428.61495972 C 267.13998413 429.75198364 266.99166870 430.83166504 266.53894043 431.91867065 C 265.95297241 433.09567261 265.30911255 434.29998779 264.61047363 435.52929688 C 263.81887817 436.69454956 262.89102173 437.65826416 261.93704224 438.48416138 C 260.81704712 439.09426880 259.76391602 439.54519653 258.73736572 439.95520020 C 257.71182251 440.17968750 256.62265015 440.29483032 255.51307678 440.32809448 C 254.36408997 440.26925659 253.29823303 440.15747070 252.18994141 439.95733643 C 251.20172119 439.59259033 250.21415710 439.08642578 249.23947144 438.44094849 C 248.30604553 437.82263184 247.41261292 437.10733032 246.67826843 436.17495728 C 246.02934265 435.11395264 245.38803101 434.05273438 244.76257324 432.92498779 C 244.13586426 431.79724121 243.47644043 430.75399780 244.05784607 424.57092285" stroke-width="0.00000000" fill="rgb(114, 116, 117)" opacity="1.0" stroke="rgb(0, 0, 0)" stroke-opacity="0.0" stroke-linecap="round" stroke-linejoin="round"/>
    <path d="M 263.97918701 73.31683350 C 260.67718506 73.47648621 257.36404419 73.39672089 254.02421570 73.32770538 C 250.70970154 73.45550537 247.46224976 73.43097687 244.29269409 73.36520386 C 241.28742981 73.31180573 238.54396057 73.33045197 236.09109497 73.14600372 C 233.87260437 73.17935944 231.94880676 73.26519775 230.36587524 73.02071381 C 229.23347473 72.22735596 228.34176636 71.15814972 227.52688599 70.00095367 C 226.87036133 68.87520599 226.33377075 67.92465210 226.09332275 67.14639282 C 226.21556091 66.65235138 226.70257568 66.42921448 227.65324402 66.36741638 C 229.01780701 66.38115692 230.73925781 66.31726074 232.73542786 66.42843628 C 235.08070374 66.54645538 237.63999939 66.55803680 240.40159607 66.49727631 C 243.28507996 66.55815125 246.33850098 66.56256104 249.46484375 66.51477814 C 252.63194275 66.61167145 255.73162842 66.62196350 258.84133911 66.59953308 C 261.92623901 66.67562103 264.95666504 66.70998383 267.82333374 66.71267700 C 270.52999878 66.62419128 273.01495361 66.65464783 275.39724731 66.65955353 C 277.51260376 66.63749695 279.43930054 66.50612640 281.08773804 66.53919983 C 282.55783081 66.66748810 283.73437500 66.70127869 284.59051514 66.66241455 C 285.08865356 66.64701843 285.31793213 66.90005493 285.33145142 67.33629608 C 285.12576294 67.85257721 284.75531006 68.47949219 284.24636841 69.21413422 C 283.73962402 70.01696777 283.22451782 70.75803375 282.67349243 71.49736786 C 281.97006226 72.02656555 281.28234863 72.46952057 280.78381348 72.92798615 C 280.35351562 73.23473358 279.90686035 73.39939880 263.97918701 73.31683350" stroke-width="0.45313680" fill="rgb(249, 252, 250)" opacity="1.0" stroke="rgb(168, 171, 171)" stroke-opacity="0.6988181" stroke-linecap="round" stroke-linejoin="round"/>
    <path d="M 416.00939941 195.34999084 C 414.69845581 197.15870667 413.30230713 198.73797607 411.75460815 199.98857117 C 410.25161743 200.86395264 408.84484863 200.95712280 407.70401001 200.03549194 C 406.72994995 198.14569092 405.80081177 195.83128357 405.05664062 193.25112915 C 404.84243774 190.41004944 404.89080811 187.55447388 404.96011353 184.90586853 C 405.07150269 182.56956482 405.02993774 180.74836731 404.52899170 179.54290771 C 403.41610718 178.97851562 401.74423218 178.94294739 399.67898560 179.16253662 C 397.37780762 179.35986328 395.06335449 179.48564148 392.98928833 179.51182556 C 391.34130859 179.34007263 390.25445557 179.16612244 389.76553345 178.92137146 C 389.89990234 178.71411133 390.63055420 178.62977600 391.92694092 178.66290283 C 393.65661621 178.77644348 395.79016113 178.99421692 398.15774536 179.23274231 C 400.53805542 179.38113403 402.57241821 179.35865784 404.09851074 178.96739197 C 404.84643555 177.78979492 405.03530884 175.88293457 405.00186157 173.50997925 C 405.01647949 170.89729309 404.97329712 168.03836060 404.93453979 165.17088318 C 405.36767578 162.47331238 406.29843140 160.03497314 407.12042236 157.87176514 C 407.59399414 156.14634705 408.14807129 155.14387512 409.05969238 154.93513489 C 410.28649902 155.24514771 411.59838867 155.97528076 412.93969727 156.97579956 C 414.20962524 158.11099243 415.24057007 159.44039917 415.83285522 161.09259033 C 416.05368042 163.16033936 416.11285400 165.45513916 415.95007324 167.88969421 C 416.05117798 170.45466614 416.17990112 173.12455750 416.11459351 175.84291077 C 416.06784058 178.51419067 416.11276245 181.23376465 416.00939941 195.34999084" stroke-width="0.62778300" fill="rgb(77, 80, 78)" opacity="1.0" stroke="rgb(0, 0, 0)" stroke-opacity="0.46160075" stroke-linecap="round" stroke-linejoin="round"/>
    <path d="M 414.37307739 227.80978394 C 415.00469971 228.96752930 415.42111206 230.24562073 415.66064453 231.68884277 C 415.77789307 233.21775818 415.90579224 234.78059387 415.96105957 236.44084167 C 415.95318604 238.23887634 416.01123047 240.12368774 416.00323486 242.01708984 C 415.92227173 243.99259949 415.99224854 246.00416565 416.01300049 248.02473450 C 415.99154663 250.00022888 415.72238159 251.84620667 415.07595825 253.44717407 C 413.90841675 254.79179382 412.46578979 255.88565063 411.04953003 256.81094360 C 409.80191040 257.40206909 408.72058105 257.43814087 407.83721924 256.71545410 C 407.19015503 255.12930298 406.66415405 253.10092163 405.97790527 250.85656738 C 404.94964600 248.79698181 403.71545410 247.15179443 402.22903442 246.11349487 C 400.54776001 245.79545593 398.67477417 246.05976868 396.79803467 246.95433044 C 395.06512451 248.26791382 393.38635254 249.70135498 391.96176147 250.87870789 C 390.88458252 251.38487244 390.10617065 251.11112976 389.64221191 250.09529114 C 389.42016602 248.58432007 389.37707520 246.69029236 389.41906738 244.73283386 C 389.53259277 242.84857178 389.87176514 241.24481201 390.38256836 240.12658691 C 391.01031494 239.65306091 391.86734009 239.92474365 392.91040039 240.95208740 C 394.27841187 242.45623779 396.05618286 244.01995850 398.14083862 245.38600159 C 400.38098145 246.26489258 402.36517334 246.59486389 403.89584351 246.29627991 C 404.76229858 245.09399414 405.03652954 243.00614929 404.96328735 240.13737488 C 404.86471558 236.69055176 405.22335815 232.88583374 406.07983398 228.98110962 C 406.83773804 225.05177307 407.46292114 221.25321960 414.37307739 227.80978394" stroke-width="0.47502640" fill="rgb(72, 69, 69)" opacity="1.0" stroke="rgb(0, 0, 0)" stroke-opacity="0.44426823" stroke-linecap="round" stroke-linejoin="round"/>
    <path d="M 389.57928467 313.19909668 C 389.47482300 309.19171143 389.41574097 305.17169189 389.37731934 301.20907593 C 389.37777710 297.41287231 389.39645386 293.77685547 389.42636108 290.33770752 C 389.46997070 287.20269775 389.46075439 284.28747559 389.41754150 281.64035034 C 389.39593506 279.33843994 389.39425659 277.36322021 389.53985596 275.77536011 C 389.97247314 274.57031250 390.66763306 273.82733154 391.65435791 273.41574097 C 392.93109131 273.35089111 394.41949463 273.48596191 396.08456421 273.62789917 C 397.82086182 273.69003296 399.61813354 273.52154541 401.38439941 273.04791260 C 403.08966064 272.42443848 404.62866211 271.71640015 405.84414673 270.72161865 C 406.58306885 269.47799683 407.08456421 268.16336060 407.63714600 267.11486816 C 408.51840210 266.63580322 409.58312988 266.59045410 410.84875488 266.85189819 C 412.18295288 267.39801025 413.50079346 268.14007568 414.63598633 269.06710815 C 415.44732666 270.34591675 415.93435669 271.95733643 416.11486816 273.96224976 C 416.09683228 276.25939941 415.98333740 278.79849243 416.05810547 281.51803589 C 416.08868408 284.31158447 416.06512451 287.01907349 415.95773315 289.67013550 C 415.90420532 292.11285400 415.40722656 294.16616821 414.37866211 295.85977173 C 413.03631592 297.31588745 411.59149170 298.32543945 410.14831543 298.80984497 C 408.73281860 298.72879028 407.53286743 297.78936768 406.46075439 296.02224731 C 405.50900269 293.58679199 404.97106934 290.56179810 404.91937256 286.96972656 C 405.06869507 282.96453857 405.04217529 278.56201172 404.43145752 274.02999878 C 402.98751831 269.31958008 401.13442993 264.58959961 389.57928467 313.19909668" stroke-width="0.60377496" fill="rgb(66, 60, 60)" opacity="1.0" stroke="rgb(1, 0, 0)" stroke-opacity="0.42692447" stroke-linecap="round" stroke-linejoin="round"/>
    <path d="M 475.82800293 522.73638916 C 464.14730835 522.54571533 452.41497803 522.33843994 440.69775391 522.11749268 C 428.97305298 521.98150635 417.23489380 521.78344727 405.48916626 521.63378906 C 393.69558716 521.46240234 381.88842773 521.35241699 370.02578735 521.28863525 C 358.09704590 521.22375488 346.09439087 521.17907715 334.05050659 521.21350098 C 321.85903931 521.25183105 309.58831787 521.35424805 297.15310669 521.47381592 C 284.64773560 521.62792969 272.00991821 521.82305908 259.15985107 522.02380371 C 246.24606323 522.24127197 233.20721436 522.42889404 220.03419495 522.68310547 C 206.80438232 522.85150146 193.47984314 522.99584961 180.13215637 523.10174561 C 166.79766846 523.16748047 153.56944275 523.11328125 140.49816895 523.04687500 C 127.57615662 522.79376221 114.96722412 522.47351074 102.77584076 522.06445312 C 90.99623108 521.49108887 79.86428070 520.71527100 69.47811890 519.80627441 C 59.81905365 518.72637939 51.11434937 517.48376465 43.47044754 515.98181152 C 37.11331558 514.28594971 32.12773514 512.36956787 28.59183884 510.24032593 C 26.65415955 508.00024414 26.37375259 505.74478149 27.73627281 503.58148193 C 30.62041664 501.64437866 34.87226868 500.13885498 40.32852173 499.14236450 C 46.88479614 498.90515137 54.46213150 498.95193481 62.84448242 498.91931152 C 71.92199707 498.81625366 81.63573456 499.35848999 91.85765839 500.42797852 C 102.61737061 501.10977173 113.81394196 501.18630981 125.35425568 500.93432617 C 137.24055481 500.15133667 149.32231140 499.28100586 161.66801453 498.90966797 C 174.32589722 499.01525879 187.15830994 499.08843994 200.12944031 499.01058960 C 213.14236450 498.95471191 226.16358948 498.94012451 239.19673157 498.93502808 C 252.17999268 499.07174683 265.01379395 499.06158447 277.68942261 498.76495361 C 290.27728271 497.90359497 302.71157837 497.83239746 315.02719116 497.97863770 C 327.13708496 497.86343384 339.07852173 498.04293823 350.91235352 498.79541016 C 362.57052612 499.08520508 373.99548340 499.15518188 385.26654053 498.77386475 C 396.48492432 497.99447632 407.53430176 497.75869751 418.37582397 497.95834351 C 428.99765015 497.90286255 439.49810791 497.86337280 449.82919312 498.35137939 C 459.76834106 499.54718018 469.44296265 501.30868530 478.85659790 503.67251587 C 487.88162231 506.92562866 496.62899780 510.68197632 505.27066040 514.61376953 C 513.97131348 518.49707031 522.71105957 522.37316895 475.82800293 522.73638916" stroke-width="1.45458102" fill="rgb(255, 255, 255)" opacity="1.0" stroke="rgb(255, 255, 255)" stroke-opacity="0.0" stroke-linecap="round" stroke-linejoin="round"/>
    <path d="M 509.99871826 451.09625244 C 511.98382568 456.48904419 513.02581787 461.79626465 512.99737549 466.77484131 C 512.28002930 471.12399292 511.05865479 474.48229980 509.33233643 476.28628540 C 507.09173584 476.34936523 505.18603516 474.07324219 504.00833130 469.36416626 C 504.00079346 462.16436768 504.03265381 452.57476807 503.98928833 440.88659668 C 504.06192017 427.33590698 504.04196167 412.21533203 504.04312134 395.63427734 C 504.00952148 377.88912964 503.86059570 359.11676025 503.96493530 339.70709229 C 503.99963379 319.77957153 503.90444946 299.70538330 504.03958130 279.58697510 C 504.23355103 259.78460693 503.48327637 240.40422058 502.06921387 221.68952942 C 501.95031738 203.76161194 502.06924438 186.82658386 501.92056274 170.99955750 C 502.13046265 156.46218872 503.21551514 143.27307129 504.01116943 131.27597046 C 504.10275269 120.53191376 503.96881104 111.28196716 503.91918945 103.64013672 C 503.56280518 97.58145142 503.07522583 93.17581940 502.84677124 90.54370880 C 502.78997803 89.71690369 502.79461670 90.54070282 503.05187988 93.02172852 C 503.35372925 97.15986633 504.15762329 103.03936005 504.88769531 110.50829315 C 505.44973755 119.53017426 506.18496704 129.77886963 506.94396973 141.24363708 C 507.32412720 153.93804932 507.02520752 167.57511902 506.04415894 182.03253174 C 505.74252319 197.40394592 505.79602051 213.34954834 507.09533691 229.69171143 C 509.02648926 246.61387634 510.14077759 263.93984985 510.04705811 281.49560547 C 509.94396973 299.39944458 510.00204468 317.57476807 509.98785400 335.87640381 C 509.99111938 354.20263672 510.00949097 372.51535034 509.99871826 451.09625244" stroke-width="0.00000000" fill="rgb(255, 255, 255)" opacity="1.0" stroke="rgb(255, 255, 255)" stroke-opacity="0.0" stroke-linecap="round" stroke-linejoin="round"/>
  </g>
</svg>
