<?xml version="1.0" ?>
<svg xmlns="http://www.w3.org/2000/svg" version="1.1" width="512" height="512" viewBox="0 0 512 512">
  <defs/>
  <g>
    <path d="M 630.41064453 477.61434937 C 605.85650635 485.76623535 581.27612305 493.90756226 556.68188477 502.05764771 C 532.06726074 510.15805054 507.39450073 518.16998291 482.64962769 526.01562500 C 457.87252808 533.61395264 432.98461914 540.93750000 407.99862671 547.93200684 C 382.90722656 554.51989746 357.67657471 560.58056641 332.38305664 566.02117920 C 307.06079102 570.73339844 281.73355103 574.59179688 256.50845337 577.54364014 C 231.37916565 579.47875977 206.45681763 580.32690430 181.83930969 579.95812988 C 157.63899231 578.28704834 133.98324585 575.19836426 111.01445007 570.58441162 C 88.90953827 564.29919434 67.76470947 556.32122803 47.80368423 546.46417236 C 29.12804222 534.71661377 11.93593407 521.00103760 -3.68907928 505.26119995 C -17.70343399 487.54415894 -30.11077499 467.99151611 -40.92972565 446.82568359 C -50.22766113 424.27465820 -58.08372116 400.56234741 -64.61343384 375.95181274 C -69.81809235 350.63391113 -73.80115509 324.82797241 -76.61653137 298.72787476 C -78.34961700 272.58474731 -78.97692871 246.52726746 -78.46409607 220.72082520 C -76.84503937 195.31610107 -74.09457397 170.46867371 -70.18656921 146.35966492 C -65.02728271 123.14987183 -58.62697983 101.01377869 -51.05703354 80.01371765 C -42.23722839 60.14598846 -32.02270126 41.56709290 -20.34762001 24.36837387 C -7.19591188 8.63949966 7.59999609 -5.38368940 24.10992241 -17.81074905 C 42.03905487 -28.71753883 61.35954285 -38.23751831 81.97250366 -46.47391129 C 103.72696686 -53.54333496 126.45014191 -59.48107529 150.15800476 -64.28479767 C 174.70962524 -67.89934540 199.87379456 -70.48468018 225.49639893 -72.01749420 C 251.45785522 -72.57952881 277.61761475 -72.16017914 303.76589966 -70.78833771 C 329.74218750 -68.35327911 355.35717773 -64.81858826 380.33529663 -60.04767227 C 404.47192383 -53.96162415 427.67263794 -46.50922012 449.80368042 -37.68417740 C 470.65939331 -27.37884521 489.98330688 -15.41903877 507.55807495 -1.72463489 C 523.15435791 13.86120033 536.87957764 31.20969963 548.90924072 50.15357208 C 559.42803955 70.54482269 568.62310791 92.17996216 576.61712646 114.86914825 C 583.57897949 138.50971985 589.56018066 163.02565002 594.68969727 188.23173523 C 599.21801758 213.98365784 603.29217529 240.18139648 607.01611328 266.66540527 C 610.53540039 293.35491943 613.86853027 320.22250366 617.03656006 347.16186523 C 620.14843750 374.20520020 623.21356201 401.23959351 630.41064453 477.61434937" stroke-width="2.00000000" fill="rgb(2, 2, 2)" opacity="1.0" stroke="rgb(2, 2, 0)" stroke-opacity="1.0" stroke-linecap="round" stroke-linejoin="round"/>
    <path d="M 409.14859009 509.31088257 C 400.33950806 518.08630371 391.08828735 526.37225342 381.51303101 534.17590332 C 371.61181641 541.49346924 361.40579224 548.32128906 351.01147461 554.68902588 C 340.42929077 560.57586670 329.57302856 565.86468506 318.50119019 570.57171631 C 307.31329346 574.74188232 296.01043701 578.28839111 284.49041748 581.12359619 C 272.77774048 583.25219727 260.97485352 584.64715576 249.06216431 585.25152588 C 237.08374023 585.04376221 225.14276123 584.05419922 213.23388672 582.30670166 C 201.36636353 579.72015381 189.61183167 576.28240967 178.08976746 572.03149414 C 166.83309937 566.94793701 155.93315125 561.08099365 145.48786926 554.41845703 C 135.59767151 546.99908447 126.27636719 538.83917236 117.63765717 529.93811035 C 109.81066895 520.36016846 102.84714508 510.06726074 96.78130341 499.21954346 C 91.14849091 488.13079834 86.56653595 476.62359619 82.95036316 464.71508789 C 79.63457489 452.67703247 77.30341339 440.45474243 76.65255737 427.91067505 C 76.11964417 415.12579346 76.38982391 402.44616699 78.56993866 389.72344971 C 80.86479950 376.95648193 84.44396973 364.41574097 89.01035309 352.21228027 C 93.83342743 340.25253296 99.86810303 329.04788208 106.83646393 318.49935913 C 113.79724121 308.16802979 121.77526855 298.90856934 130.32188416 290.33383179 C 138.79438782 282.05935669 148.16687012 275.00372314 157.78485107 268.34643555 C 167.63102722 262.20773315 177.99328613 257.09188843 188.76440430 252.74110413 C 199.69839478 248.66784668 210.80828857 245.29823303 222.24264526 242.89692688 C 233.78884888 240.82971191 245.46520996 239.70382690 257.22894287 239.64804077 C 269.03634644 239.85740662 280.76638794 241.02824402 292.41430664 243.21893311 C 304.13070679 245.72706604 315.59930420 249.35258484 326.81652832 253.97697449 C 337.94375610 259.24594116 348.69091797 265.27871704 358.78863525 272.49539185 C 369.00753784 279.70556641 378.50994873 287.65051270 386.74124146 297.08239746 C 395.12075806 306.64361572 402.85839844 316.77090454 409.79885864 327.37289429 C 416.19149780 338.13644409 421.39797974 349.35928345 425.58639526 360.99487305 C 429.35949707 372.75778198 432.16671753 384.63351440 433.94906616 396.72521973 C 435.22799683 408.66397095 435.48709106 420.54718018 434.40078735 432.44223022 C 433.24221802 444.21981812 430.92620850 455.88513184 427.50540161 467.44604492 C 423.78146362 479.11535645 420.33761597 490.91442871 409.14859009 509.31088257" stroke-width="1.14899647" fill="rgb(3, 191, 216)" opacity="1.0" stroke="rgb(20, 101, 114)" stroke-opacity="0.9743547" stroke-linecap="round" stroke-linejoin="round"/>
    <path d="M 382.91354370 443.57742310 C 374.90133667 444.40283203 366.92477417 445.23107910 359.01034546 446.04983521 C 351.08364868 446.95608521 343.09646606 447.62332153 335.08740234 447.63671875 C 327.08880615 447.68600464 319.10665894 447.69375610 311.21612549 447.76086426 C 303.53677368 447.69564819 296.11843872 447.76528931 289.10302734 447.59622192 C 282.66009521 447.04034424 276.67230225 447.99288940 270.74209595 450.47753906 C 264.27334595 453.03720093 257.70257568 455.46606445 250.86227417 456.51269531 C 243.72682190 456.10266113 236.65576172 457.33432007 229.34298706 459.61987305 C 221.49185181 460.42391968 213.37503052 459.74969482 205.09352112 457.72729492 C 196.93280029 454.42791748 189.19520569 450.01879883 182.12016296 444.72784424 C 176.00537109 438.41262817 170.22019958 431.76852417 164.73843384 425.18487549 C 160.24400330 418.31661987 157.22665405 410.70996094 154.68618774 402.71215820 C 152.09938049 394.51748657 149.76933289 386.30853271 148.14025879 378.08413696 C 146.66493225 369.87469482 145.64129639 361.72760010 145.28346252 353.66262817 C 145.20127869 345.92785645 145.31591797 338.83898926 145.46105957 332.61199951 C 145.77540588 327.38928223 146.18110657 323.42752075 146.60690308 320.85745239 C 147.75056458 320.01947021 149.78289795 320.52853394 152.84010315 321.69445801 C 156.76441956 323.01156616 161.38874817 324.49414062 166.63356018 326.25512695 C 172.08447266 328.57348633 177.85839844 330.74658203 184.10025024 332.11209106 C 190.78881836 332.60238647 197.82521057 332.40966797 205.19741821 331.73022461 C 212.88511658 330.73867798 220.76690674 329.54269409 228.71136475 328.22686768 C 236.70710754 326.95925903 244.78373718 326.01065063 252.84571838 325.46984863 C 260.81314087 325.36676025 268.62286377 325.31634521 276.35913086 325.38226318 C 283.88632202 325.75448608 291.13946533 326.31262207 298.13684082 326.95172119 C 304.90158081 327.53466797 311.40979004 328.44409180 317.60812378 330.05911255 C 323.52059937 332.30462646 329.17974854 334.97286987 334.65368652 338.11911011 C 339.96426392 341.66714478 345.04418945 345.57705688 349.95974731 349.84677124 C 354.74060059 354.39553833 359.42849731 359.14031982 364.01046753 364.08163452 C 368.49951172 369.20892334 372.92712402 374.43795776 377.29092407 379.74124146 C 381.62417603 385.11303711 385.96871948 390.55850220 390.26345825 396.03384399 C 394.56552124 401.48785400 398.86486816 406.95922852 382.91354370 443.57742310" stroke-width="1.76884389" fill="rgb(13, 151, 62)" opacity="1.0" stroke="rgb(5, 164, 117)" stroke-opacity="0.83909047" stroke-linecap="round" stroke-linejoin="round"/>
    <path d="M 428.07974243 428.56005859 C 422.49923706 431.94952393 417.02233887 435.49331665 411.74813843 439.22354126 C 406.55099487 442.55352783 401.52224731 445.85702515 396.87652588 449.18411255 C 392.60278320 452.27813721 388.30920410 454.72589111 383.91421509 456.23471069 C 379.63848877 457.34576416 375.81167603 458.42471313 372.54418945 459.78091431 C 369.87619019 461.27587891 367.73431396 462.31243896 365.82858276 462.19235229 C 364.27487183 460.64785767 362.58630371 458.21133423 360.63934326 455.14468384 C 358.19821167 451.59744263 355.66610718 447.50585938 353.17150879 442.88937378 C 350.77163696 437.84994507 348.42663574 432.45739746 346.28024292 426.60894775 C 344.15945435 420.43673706 342.03991699 414.08065796 339.95843506 407.56063843 C 337.88763428 400.90231323 335.83071899 394.09884644 333.76605225 387.18890381 C 331.72515869 380.28573608 329.72763062 373.45169067 327.75958252 366.69863892 C 325.74935913 359.90750122 323.71304321 353.19287109 321.68875122 346.67135620 C 319.54132080 340.36901855 317.13568115 334.26391602 314.49847412 328.49270630 C 311.59362793 323.09906006 309.25061035 317.63885498 307.38610840 312.12915039 C 305.68014526 306.82135010 304.06930542 301.81387329 302.34973145 297.12719727 C 300.97396851 292.83517456 299.76239014 289.13519287 298.59909058 286.12081909 C 297.50509644 283.86691284 297.04620361 282.26245117 297.39559937 281.29257202 C 298.42587280 281.06570435 300.09729004 281.57928467 302.50421143 282.62219238 C 305.61056519 284.03997803 309.28427124 285.83956909 313.37893677 288.07119751 C 317.91281128 290.66561890 322.77728271 293.45941162 327.94192505 296.17211914 C 333.22979736 298.98593140 338.42559814 301.74142456 343.44979858 304.27566528 C 347.55288696 307.60775757 351.11666870 311.61508179 354.83477783 315.40356445 C 359.14895630 318.53060913 363.53497314 321.76724243 367.82403564 325.23535156 C 371.34347534 329.53399658 374.46911621 334.39279175 377.81948853 339.34033203 C 381.18878174 344.24908447 384.69110107 349.21716309 388.05316162 354.23513794 C 391.37292480 359.18215942 394.61276245 364.01837158 397.82766724 368.91940308 C 401.04791260 373.62356567 404.16305542 378.21856689 407.30825806 382.68457031 C 410.38113403 387.12536621 413.39849854 391.39370728 416.55712891 395.44421387 C 419.49514771 399.38082886 422.34814453 403.06637573 425.05456543 406.32357788 C 427.76428223 409.01547241 430.01773071 411.43536377 428.07974243 428.56005859" stroke-width="1.76462305" fill="rgb(13, 150, 60)" opacity="1.0" stroke="rgb(10, 149, 61)" stroke-opacity="0.5207025" stroke-linecap="round" stroke-linejoin="round"/>
    <path d="M 267.22857666 366.68060303 C 266.09518433 368.74328613 264.51547241 370.65322876 262.45715332 372.03503418 C 260.07940674 372.84234619 257.43908691 373.29995728 254.55766296 373.54162598 C 251.55436707 373.74517822 248.63110352 374.28939819 245.76252747 375.12026978 C 242.87321472 376.13278198 240.04570007 376.88174438 236.98443604 377.39169312 C 233.93312073 377.91653442 230.66683960 378.26272583 227.38208008 378.55996704 C 224.14956665 378.50689697 220.76618958 378.56515503 217.19650269 378.72250366 C 213.49539185 378.48587036 209.75529480 378.14614868 206.03323364 377.78912354 C 202.23948669 377.42025757 198.52204895 376.78033447 194.99671936 375.75213623 C 191.38812256 375.10806274 187.86268616 373.95806885 184.57333374 372.64837646 C 181.22669983 371.46383667 178.09049988 370.04431152 175.25050354 368.36318970 C 172.44923401 366.71130371 170.00422668 364.83276367 167.89208984 362.69152832 C 165.85362244 360.56527710 164.09365845 358.44070435 162.87976074 356.02014160 C 162.14395142 353.47454834 161.70256042 350.94509888 161.57487488 348.48318481 C 161.87203979 346.02154541 162.40525818 343.57647705 163.33006287 341.35531616 C 164.77044678 339.23416138 166.17265320 337.20956421 167.86109924 335.27120972 C 169.75918579 333.57287598 171.77404785 331.82382202 174.02731323 330.33529663 C 176.74145508 329.10351562 179.74409485 327.98532104 182.82934570 326.70648193 C 186.09872437 325.63925171 189.36514282 324.39114380 192.68656921 323.34014893 C 196.23104858 322.63385010 199.73915100 321.95709229 203.25099182 321.47073364 C 206.74670410 320.94250488 210.24667358 320.57958984 213.77893066 320.44281006 C 217.34185791 320.36157227 220.91934204 320.34576416 224.50106812 320.40908813 C 228.06375122 320.57351685 231.56114197 320.83612061 235.03495789 321.25717163 C 238.58111572 321.65701294 241.95117188 322.26062012 245.36883545 323.07827759 C 248.64160156 323.93222046 251.94346619 324.77188110 255.21749878 325.57540894 C 258.35183716 326.70925903 261.16409302 328.16918945 263.90628052 329.77890015 C 266.82080078 331.15237427 269.15231323 332.94778442 271.38201904 334.90237427 C 273.50036621 336.90243530 275.10720825 339.17871094 276.62966919 341.58804321 C 277.83428955 344.05154419 278.45071411 346.53622437 278.56686401 349.04571533 C 278.28436279 351.67861938 277.49600220 354.31652832 276.37805176 357.09423828 C 274.82702637 359.99411011 273.25701904 363.06579590 267.22857666 366.68060303" stroke-width="1.01630378" fill="rgb(250, 252, 252)" opacity="1.0" stroke="rgb(233, 252, 253)" stroke-opacity="0.5680952" stroke-linecap="round" stroke-linejoin="round"/>
    <path d="M 355.59036255 420.25817871 C 352.95223999 421.87246704 350.12918091 423.23837280 347.19186401 424.47933960 C 344.27194214 425.84078979 341.38592529 427.08895874 338.31475830 427.88708496 C 335.11227417 428.89419556 332.03958130 429.79626465 328.78558350 430.50714111 C 325.39865112 431.15435791 321.97729492 431.63735962 318.49545288 432.33221436 C 314.81558228 432.65148926 310.94869995 433.03417969 307.05187988 433.23117065 C 303.18798828 433.19891357 299.30148315 433.44168091 295.22366333 433.32000732 C 290.99313354 432.89447021 286.69577026 432.46405029 282.32720947 432.23181152 C 277.94058228 431.54016113 273.50234985 430.81936646 269.08123779 429.84268188 C 264.64285278 428.70217896 260.37435913 427.48370361 256.21362305 426.00033569 C 252.31558228 424.16699219 248.53367615 422.30096436 245.03929138 420.21408081 C 241.83781433 418.05725098 239.03359985 415.79809570 236.67927551 413.31964111 C 234.51025391 411.06915283 233.01098633 408.62924194 231.87556458 406.12493896 C 231.10800171 403.69577026 230.43572998 401.33697510 230.21434021 398.94958496 C 230.52279663 396.07116699 230.92784119 393.02761841 232.07089233 390.16113281 C 233.69740295 387.32699585 235.61090088 384.70526123 238.15541077 382.52694702 C 240.99929810 380.31283569 244.05236816 378.24053955 247.24391174 376.25173950 C 250.68443298 374.68377686 254.28219604 373.27856445 257.83438110 371.74612427 C 261.33981323 370.45147705 264.99066162 369.50622559 268.79223633 368.75122070 C 272.58920288 367.59082031 276.43838501 366.86740112 280.49472046 366.37902832 C 284.59637451 365.95306396 288.79815674 365.58694458 292.82220459 365.35488892 C 296.78656006 365.10510254 300.78643799 365.32110596 304.76614380 365.17218018 C 308.71563721 365.38088989 312.56286621 365.72650146 316.23272705 366.03494263 C 319.79449463 366.66876221 323.31732178 367.45449829 327.11679077 367.70947266 C 331.00445557 368.93945312 334.98150635 370.16082764 339.20422363 371.24530029 C 343.16439819 372.67453003 346.98941040 374.40240479 350.46594238 376.24179077 C 353.85678101 378.25366211 357.02200317 380.09527588 359.82235718 382.18325806 C 362.30996704 384.37802124 364.40679932 386.69845581 366.30560303 389.10162354 C 367.74395752 391.66284180 368.64578247 394.22000122 369.10006714 396.97012329 C 369.27990723 399.84292603 368.96343994 402.98773193 368.25881958 406.24130249 C 366.68685913 409.76950073 365.35971069 413.67953491 355.59036255 420.25817871" stroke-width="0.99755853" fill="rgb(253, 252, 251)" opacity="1.0" stroke="rgb(206, 232, 220)" stroke-opacity="0.6341736" stroke-linecap="round" stroke-linejoin="round"/>
    <path d="M 227.51651001 472.97027588 C 226.66239929 475.84960938 225.24444580 478.34481812 223.13301086 480.42358398 C 220.86293030 482.58407593 218.25718689 484.43865967 215.25872803 485.97982788 C 212.20492554 487.67019653 208.82385254 489.15243530 205.22358704 490.30264282 C 201.36842346 491.35632324 197.39418030 492.29000854 193.23815918 492.87738037 C 188.93058777 493.17791748 184.42994690 493.49234009 179.82051086 493.52850342 C 175.13432312 493.28723145 170.40290833 492.99331665 165.72048950 492.25863647 C 161.05339050 491.15539551 156.40081787 490.07901001 151.98826599 488.76934814 C 147.79067993 487.10818481 144.01104736 485.10800171 140.68382263 482.82260132 C 137.67071533 480.59970093 135.33427429 478.11776733 133.70938110 475.53750610 C 132.48986816 473.17733765 132.15307617 470.59567261 132.16291809 467.97778320 C 132.32620239 465.51052856 133.09855652 463.36410522 134.54508972 461.19497681 C 136.16502380 458.91101074 138.28593445 456.93420410 140.77729797 455.02270508 C 143.66896057 453.22872925 146.87031555 451.61203003 150.40240479 450.27062988 C 154.10861206 448.96258545 157.97013855 447.90502930 162.06056213 447.07406616 C 166.27334595 446.31304932 170.52160645 445.66333008 174.85183716 445.51257324 C 179.23121643 445.27484131 183.67631531 445.43057251 188.15402222 445.82009888 C 192.58489990 446.36709595 196.90100098 446.90930176 201.05935669 447.79403687 C 205.18846130 448.92196655 209.01559448 450.27038574 212.73947144 451.73419189 C 216.08020020 453.52285767 219.25965881 455.72024536 222.50259399 458.03842163 C 225.51504517 461.14474487 228.54159546 464.55044556 227.51651001 472.97027588" stroke-width="1.05727172" fill="rgb(251, 253, 252)" opacity="1.0" stroke="rgb(217, 253, 240)" stroke-opacity="0.6540975" stroke-linecap="round" stroke-linejoin="round"/>
    <path d="M 332.22326660 219.84428406 C 328.10546875 219.85136414 323.90130615 219.77839661 319.56649780 219.66511536 C 315.08624268 219.71791077 310.41821289 219.67982483 305.49661255 219.57711792 C 300.38467407 219.62619019 295.18875122 219.61701965 289.72671509 219.69046021 C 284.04013062 219.59426880 278.15374756 219.55020142 272.02880859 219.50151062 C 265.73818970 219.67622375 259.27249146 219.42825317 252.65470886 219.66624451 C 245.81861877 219.53532410 238.93241882 219.53530884 232.14071655 219.55636597 C 225.52825928 219.63699341 219.00544739 219.59666443 212.70610046 219.63294983 C 206.77694702 219.70626831 201.21920776 219.86285400 196.09033203 219.55525208 C 191.41967773 219.68031311 187.31665039 219.48286438 183.72956848 219.68150330 C 180.81655884 219.63230896 178.64566040 219.87316895 177.25048828 219.32550049 C 176.31001282 217.87322998 176.33038330 215.19992065 177.24700928 211.43624878 C 176.83154297 206.55703735 176.39750671 200.62214661 176.71704102 194.04083252 C 177.53736877 187.16651917 178.12303162 180.36322021 177.15786743 173.87979126 C 177.62730408 167.59884644 178.18283081 161.86859131 178.15852356 156.43472290 C 177.83616638 151.38151550 177.42132568 147.14540100 176.41120911 143.97792053 C 176.26142883 141.37443542 177.41687012 139.51853943 179.60652161 138.36506653 C 182.79768372 138.31117249 186.67454529 138.21972656 191.27624512 138.40240479 C 196.35903931 138.14918518 201.82426453 137.95550537 207.43646240 138.36407471 C 213.31336975 138.11091614 219.59635925 138.35823059 226.28689575 138.35351562 C 233.35786438 138.13890076 240.77085876 138.39680481 248.26965332 138.48811340 C 255.88323975 138.41423035 263.58178711 138.43225098 271.16995239 138.23077393 C 278.60015869 138.25910950 285.76193237 138.37162781 292.66998291 138.29170227 C 299.21627808 138.26269531 305.31640625 138.33343506 310.93780518 138.50350952 C 315.90078735 138.19218445 320.28823853 138.09136963 324.23776245 138.42993164 C 327.49423218 138.54806519 330.27999878 138.28240967 332.57312012 138.77424622 C 334.60324097 140.29034424 335.66458130 142.41920471 335.35101318 145.33242798 C 334.22494507 149.06385803 333.61373901 153.57185364 333.96594238 158.83039856 C 334.87454224 164.72503662 335.22991943 171.22444153 334.42837524 178.35119629 C 334.45989990 186.13836670 334.62481689 194.37112427 334.85031128 202.81059265 C 335.71319580 211.29046631 337.28619385 219.47897339 332.22326660 219.84428406" stroke-width="2.00000000" fill="rgb(164, 195, 212)" opacity="1.0" stroke="rgb(48, 64, 66)" stroke-opacity="0.839559" stroke-linecap="round" stroke-linejoin="round"/>
    <path d="M 111.93001556 172.66165161 C 107.90980530 172.49949646 103.90857697 172.55400085 99.97107697 172.53913879 C 96.20031738 172.76473999 92.67643738 172.73817444 89.40850067 172.60050964 C 86.67239380 172.45663452 84.32655334 172.57385254 82.35959625 172.59371948 C 80.82148743 172.64794922 79.91381073 172.80043030 79.50391388 172.63104248 C 79.34146118 171.23200989 79.47961426 169.22424316 79.19471741 166.74603271 C 79.44696045 163.78123474 79.22827148 160.62130737 79.42183685 157.58283997 C 79.13130188 154.74186707 79.40673065 152.44812012 79.63932037 150.82101440 C 81.54984283 150.36753845 84.77890015 150.79196167 89.32307434 150.57188416 C 94.52774048 150.67228699 100.18736267 150.81370544 106.25611115 150.60958862 C 112.68292236 150.57392883 119.44348145 150.65415955 126.37910461 150.55841064 C 133.10514832 150.63937378 139.63919067 150.65733337 145.82719421 150.75016785 C 151.69729614 150.58895874 157.06556702 150.63618469 161.88525391 150.64164734 C 165.98204041 150.72740173 169.46075439 150.77940369 172.32772827 150.39964294 C 174.46247864 150.73458862 176.21049500 151.31091309 177.12463379 152.80506897 C 177.40190125 155.29116821 177.40849304 158.28424072 177.47886658 161.65093994 C 177.55502319 165.02505493 177.74099731 167.96804810 177.70031738 170.09402466 C 176.68330383 171.17648315 175.71530151 172.06288147 174.74073792 172.86360168 C 173.50802612 172.60009766 171.78088379 172.42628479 169.94157410 172.87074280 C 168.11323547 172.51069641 166.24391174 172.53044128 164.26660156 172.72373962 C 162.02664185 172.76414490 159.72094727 172.54064941 111.93001556 172.66165161" stroke-width="2.00000000" fill="rgb(17, 121, 184)" opacity="1.0" stroke="rgb(198, 233, 255)" stroke-opacity="0.82610387" stroke-linecap="round" stroke-linejoin="round"/>
    <path d="M 128.17922974 206.72882080 C 122.91781616 206.42506409 117.64231873 206.71104431 112.54032898 206.64996338 C 107.50358582 206.59364319 102.75652313 206.75454712 98.18430328 206.64285278 C 93.77218628 206.76281738 89.85916901 206.59915161 86.30590057 206.79635620 C 83.19870758 206.75358582 80.88800812 206.46292114 79.51318359 206.64489746 C 79.20243073 206.02481079 79.29101562 204.63844299 79.52443695 202.72204590 C 79.43192291 200.11494446 79.52757263 197.37486267 79.34727478 194.89086914 C 79.53299713 192.48069763 79.40505219 190.25463867 79.44134521 188.77867126 C 80.83466339 188.57333374 83.17049408 188.33686829 86.19491577 188.74964905 C 89.96143341 188.73025513 94.56900024 188.48092651 99.55066681 188.81356812 C 104.70170593 188.63360596 110.05690002 188.88304138 115.56132507 188.61926270 C 121.22504425 188.92004395 127.13879395 188.71578979 133.25799561 188.65126038 C 139.46080017 188.87281799 145.70182800 188.72976685 151.77226257 188.73742676 C 157.61271667 188.74258423 162.90727234 188.93171692 167.50041199 188.68234253 C 171.38674927 188.89587402 174.59086609 188.77253723 176.73519897 188.66647339 C 177.70555115 189.49832153 177.88262939 190.73088074 177.58164978 192.69802856 C 177.55499268 195.30316162 177.62710571 198.15406799 177.66239929 201.00422668 C 177.56488037 203.69046021 177.51654053 205.71566772 177.07763672 206.72805786 C 176.04882812 206.62171936 174.69863892 206.38395691 172.79519653 206.73277283 C 170.11956787 206.64247131 166.77302551 206.57978821 162.95748901 206.54673767 C 158.99592590 206.86933899 155.03268433 206.50524902 128.17922974 206.72882080" stroke-width="2.00000000" fill="rgb(14, 117, 180)" opacity="1.0" stroke="rgb(242, 250, 248)" stroke-opacity="1.0" stroke-linecap="round" stroke-linejoin="round"/>
    <path d="M 430.56228638 172.70156860 C 425.29364014 172.69836426 420.23703003 172.60633850 415.30633545 172.68092346 C 410.29226685 172.56539917 405.12792969 172.50779724 400.06011963 172.56660461 C 395.09387207 172.55558777 390.18435669 172.53492737 385.28436279 172.67797852 C 380.48486328 172.41853333 375.58367920 172.59336853 370.57293701 172.64294434 C 365.64068604 172.48582458 360.95156860 172.49073792 356.57958984 172.66740417 C 352.14575195 172.47802734 348.03765869 172.47224426 344.52499390 172.60649109 C 341.36260986 172.48141479 338.70318604 172.49969482 336.82315063 172.62394714 C 335.60519409 171.42111206 334.16024780 170.02053833 334.32891846 167.84373474 C 334.58013916 164.90301514 334.52899170 161.68406677 334.22506714 158.46922302 C 334.45208740 155.54431152 334.41836548 153.13693237 334.26898193 151.55012512 C 335.09179688 151.34173584 336.97640991 151.38879395 339.85632324 151.40280151 C 343.50094604 151.34091187 347.67337036 151.39018250 352.26037598 151.46456909 C 357.18988037 151.33067322 362.31524658 151.41593933 367.51806641 151.50558472 C 372.75036621 151.43389893 378.10211182 151.36555481 383.58886719 151.46736145 C 389.29217529 151.46107483 395.08114624 151.28912354 400.74960327 151.38308716 C 406.00225830 151.38940430 410.85702515 151.55456543 415.30371094 151.44099426 C 418.98443604 151.62170410 422.13757324 151.32449341 425.05844116 151.46754456 C 427.47482300 151.10946655 429.11843872 151.51167297 430.10147095 151.99275208 C 431.32858276 151.37066650 431.56457520 150.94535828 430.73007202 151.46897888 C 430.09774780 152.13548279 430.76147461 153.41069031 430.56228638 172.70156860" stroke-width="2.00000000" fill="rgb(13, 116, 182)" opacity="1.0" stroke="rgb(169, 210, 234)" stroke-opacity="0.997555" stroke-linecap="round" stroke-linejoin="round"/>
    <path d="M 430.69085693 206.66970825 C 426.08419800 206.73373413 421.37145996 206.53787231 416.57516479 206.76562500 C 411.50823975 206.58752441 406.36425781 206.67236328 401.20590210 206.64045715 C 395.89880371 206.55757141 390.61724854 206.91168213 385.67517090 206.60217285 C 381.00659180 206.69801331 376.24877930 206.42953491 371.21926880 206.75859070 C 365.73968506 206.66107178 360.41726685 206.60238647 355.42984009 206.68917847 C 350.97372437 206.45468140 347.06085205 206.55625916 343.85961914 206.66801453 C 341.30850220 206.46986389 339.02563477 206.72080994 336.87774658 206.65728760 C 335.05209351 206.16944885 334.25164795 204.89149475 334.26553345 202.82128906 C 334.43145752 200.33488464 334.59274292 197.47331238 334.39718628 194.51521301 C 334.37426758 191.75544739 334.12301636 189.87686157 334.17459106 188.74082947 C 335.25003052 188.53039551 337.14617920 188.64466858 339.72119141 188.52247620 C 343.06619263 188.70791626 347.01675415 188.53689575 351.35437012 188.57894897 C 355.97424316 188.66348267 360.97479248 188.79341125 366.19216919 188.65852356 C 371.73254395 188.78767395 377.19540405 188.45976257 382.51803589 188.61470032 C 387.92413330 188.57836914 393.27929688 188.56077576 398.49176025 188.62959290 C 403.33737183 188.72940063 407.76535034 188.49894714 411.71395874 188.83624268 C 415.42794800 188.42182922 419.00595093 188.49250793 422.07220459 188.73818970 C 424.60140991 188.46260071 426.68212891 188.58587646 428.29602051 188.64622498 C 429.43850708 188.73068237 430.19030762 188.56221008 430.66247559 188.38029480 C 430.67175293 188.15103149 430.73699951 188.30606079 430.69085693 206.66970825" stroke-width="2.00000000" fill="rgb(12, 115, 179)" opacity="1.0" stroke="rgb(240, 251, 251)" stroke-opacity="1.0" stroke-linecap="round" stroke-linejoin="round"/>
    <path d="M 198.02363586 193.11944580 C 196.80709839 192.01618958 195.54809570 191.01521301 194.23767090 190.09017944 C 193.28259277 188.88992310 192.56716919 187.41476440 191.88929749 185.90180969 C 191.42875671 184.30541992 191.09455872 182.56900024 190.77070618 180.94241333 C 190.80816650 179.26190186 191.00302124 177.64244080 191.18243408 176.12489319 C 191.60783386 174.62771606 192.18939209 173.21864319 192.88127136 171.92709351 C 193.86611938 170.80761719 194.90844727 169.66551208 195.91819763 168.43273926 C 197.02268982 167.51878357 198.26812744 166.67970276 199.52627563 165.79978943 C 200.80541992 165.23686218 202.25239563 164.65969849 203.81668091 164.36839294 C 205.43386841 164.20513916 207.24127197 164.20513916 209.07165527 164.34039307 C 210.80787659 164.79072571 212.33341980 165.51672363 213.93060303 166.35112000 C 215.45779419 167.30999756 216.73545837 168.43566895 217.98672485 169.62661743 C 218.81434631 171.04960632 219.70710754 172.50863647 220.48434448 173.95799255 C 220.79277039 175.52780151 221.15194702 177.16096497 221.59213257 178.68089294 C 221.67272949 180.18968201 221.58197021 181.70381165 221.38043213 183.22016907 C 220.82383728 184.74191284 220.28254700 186.12466431 219.69752502 187.52566528 C 218.99499512 188.92655945 218.25282288 190.22526550 217.37400818 191.32846069 C 216.45008850 192.38021851 215.34460449 193.23152161 214.12608337 193.86735535 C 213.03771973 194.65007019 211.93338013 195.26657104 210.69682312 195.65594482 C 209.36306763 195.74549866 207.90759277 195.69587708 206.33683777 195.67927551 C 204.79084778 195.90229797 203.25175476 196.00184631 198.02363586 193.11944580" stroke-width="1.67311597" fill="rgb(227, 126, 4)" opacity="1.0" stroke="rgb(213, 163, 94)" stroke-opacity="0.7145328" stroke-linecap="round" stroke-linejoin="round"/>
    <path d="M 299.46563721 164.79078674 C 301.17071533 164.48406982 302.83236694 164.32400513 304.51162720 164.40440369 C 306.10946655 164.35527039 307.63174438 164.70466614 309.18777466 165.32202148 C 310.47961426 166.00682068 311.76562500 166.88858032 313.05169678 167.98799133 C 314.14932251 169.24723816 315.31759644 170.50561523 316.53805542 171.73771667 C 317.40802002 173.03042603 318.14083862 174.49533081 318.64315796 176.04020691 C 318.70999146 177.66296387 318.80841064 179.27661133 318.90246582 180.78839111 C 318.84222412 182.23893738 318.80673218 183.65007019 318.64172363 185.17158508 C 318.24252319 186.50314331 317.61199951 187.55940247 316.72207642 188.57728577 C 315.89721680 189.73085022 315.20251465 191.04869080 314.52737427 192.16754150 C 313.65704346 193.23841858 312.40985107 193.98411560 310.96859741 194.72280884 C 309.43231201 195.38876343 308.01406860 196.03587341 306.41098022 196.45310974 C 304.77069092 196.56651306 303.12994385 196.62565613 301.59649658 196.53843689 C 300.23678589 196.03234863 298.75192261 195.57743835 297.20709229 195.28616333 C 295.70578003 194.50946045 294.26379395 193.53741455 292.83160400 192.47364807 C 291.71765137 190.98764038 290.63592529 189.60836792 289.78851318 188.24653625 C 289.30804443 186.80792236 288.91043091 185.36901855 288.43774414 184.16448975 C 288.18835449 182.79878235 287.96749878 181.34220886 287.77499390 179.87010193 C 288.01647949 178.40635681 288.39630127 176.91517639 288.71337891 175.45373535 C 289.26574707 173.83261108 289.95120239 172.25363159 290.78677368 170.74548340 C 291.91830444 169.24255371 293.08795166 167.75047302 299.46563721 164.79078674" stroke-width="1.70437002" fill="rgb(227, 127, 3)" opacity="1.0" stroke="rgb(216, 169, 100)" stroke-opacity="0.71586466" stroke-linecap="round" stroke-linejoin="round"/>
    <path d="M 258.01724243 128.56813049 C 257.79409790 130.63766479 257.98638916 132.94432068 257.99472046 135.04446411 C 257.61453247 136.83094788 257.45181274 138.26126099 257.56423950 139.63772583 C 257.92172241 141.02856445 257.96502686 142.27960205 257.60992432 143.18548584 C 256.94198608 143.66166687 256.03585815 143.82580566 254.94329834 143.86834717 C 253.89697266 143.90048218 253.12808228 143.70425415 252.81932068 143.10774231 C 253.11373901 142.04206848 253.46348572 140.55313110 253.59721375 138.72973633 C 253.37820435 136.61367798 253.25018311 134.21537781 253.36135864 131.68812561 C 253.30935669 129.11666870 253.21997070 126.50061798 253.37625122 123.74542236 C 253.29003906 120.89418030 253.32098389 117.94509888 253.33332825 114.95395660 C 253.38792419 112.03544617 253.23736572 109.25960541 253.27880859 106.55155945 C 253.31813049 103.92090607 253.28561401 101.53604126 253.19708252 99.47437286 C 253.56233215 97.70822144 253.51261902 96.13308716 253.19905090 94.71984100 C 253.27465820 93.32463074 253.39782715 92.28866577 253.62767029 91.34043121 C 254.05944824 90.47377014 254.52389526 90.19159698 255.37812805 90.38697052 C 256.36550903 90.41654205 257.16275024 90.82655334 257.67727661 91.78540802 C 258.03442383 93.00485229 258.06488037 94.51591492 257.74258423 96.28047943 C 257.80105591 98.14115143 257.87399292 100.15216064 257.79202271 102.36694336 C 257.98309326 104.53703308 258.06323242 106.67127991 257.87503052 108.73064423 C 257.91552734 110.73014069 257.80078125 112.72148132 257.89477539 114.78009796 C 257.82351685 116.92041779 257.83465576 119.07161713 258.01724243 128.56813049" stroke-width="0.76703250" fill="rgb(212, 213, 210)" opacity="1.0" stroke="rgb(187, 185, 173)" stroke-opacity="0.7276129" stroke-linecap="round" stroke-linejoin="round"/>
    <path d="M 183.44891357 290.43670654 C 182.17672729 290.57357788 180.92358398 290.64056396 179.67158508 290.62475586 C 178.41934204 290.66302490 177.22222900 290.71936035 176.20820618 290.77899170 C 175.36843872 290.86480713 174.63290405 290.83520508 174.06558228 290.67312622 C 173.68717957 290.34445190 173.47171021 289.81518555 173.32344055 289.18161011 C 173.27081299 288.46115112 173.32725525 287.69741821 173.52172852 286.88928223 C 173.93746948 286.06887817 174.48820496 285.23849487 175.21766663 284.47637939 C 176.33369446 283.84884644 177.57421875 283.15695190 178.88967896 282.36129761 C 180.33697510 281.68029785 181.96479797 280.90713501 183.66078186 280.00192261 C 185.38189697 279.03549194 187.22883606 278.11138916 189.06901550 277.11291504 C 190.86061096 276.08972168 192.64709473 275.06103516 194.47932434 274.16839600 C 196.27963257 273.50491333 198.13430786 272.98211670 199.90016174 272.54644775 C 201.57853699 272.38067627 203.13568115 272.00509644 204.57408142 271.53567505 C 205.96473694 271.35852051 207.30844116 271.35699463 208.47471619 271.43743896 C 209.44960022 271.43261719 210.23733521 271.47262573 210.70503235 271.65570068 C 210.85519409 272.03079224 210.69818115 272.54095459 210.30055237 273.10696411 C 209.60011292 273.62362671 208.65336609 274.23687744 207.49288940 274.87008667 C 206.13961792 275.47460938 204.61029053 276.20947266 202.96376038 277.13555908 C 201.08505249 277.90954590 199.11869812 278.72628784 196.98774719 279.57162476 C 194.64141846 280.29098511 192.18251038 281.01708984 189.64608765 281.73269653 C 187.08460999 282.65609741 184.37002563 283.58895874 183.44891357 290.43670654" stroke-width="1.83656597" fill="rgb(1, 166, 83)" opacity="1.0" stroke="rgb(2, 177, 145)" stroke-opacity="0.9257829" stroke-linecap="round" stroke-linejoin="round"/>
    <path d="M 163.81445312 299.90383911 C 164.51499939 299.34735107 165.16958618 298.88580322 165.82864380 298.51455688 C 166.59727478 298.37115479 167.48869324 298.41506958 168.31268311 298.54916382 C 169.02275085 298.75881958 169.62789917 299.15621948 170.07635498 299.63122559 C 170.37487793 300.21472168 170.59510803 300.82928467 170.69580078 301.47723389 C 170.73385620 302.09280396 170.60877991 302.66342163 170.23449707 303.16986084 C 169.65628052 303.62860107 168.95440674 304.07821655 168.22297668 304.60952759 C 167.58163452 305.19927979 166.97761536 305.84494019 166.35929871 306.49212646 C 165.65538025 306.93746948 164.95626831 307.30764771 164.25608826 307.48831177 C 163.54779053 307.35418701 162.78758240 306.88339233 162.05148315 306.22717285 C 161.30577087 305.46078491 160.43957520 304.63735962 163.81445312 299.90383911" stroke-width="1.88243401" fill="rgb(0, 169, 118)" opacity="1.0" stroke="rgb(4, 175, 144)" stroke-opacity="0.5592374" stroke-linecap="round" stroke-linejoin="round"/>
    <path d="M 351.70617676 503.69479370 C 352.42446899 503.57913208 353.11447144 503.44338989 353.78439331 503.37109375 C 354.45593262 503.38461304 355.11938477 503.40698242 355.67852783 503.58511353 C 356.11169434 503.89834595 356.47213745 504.25613403 356.82376099 504.68176270 C 357.11572266 505.15313721 357.33432007 505.70666504 357.50198364 506.21325684 C 357.56469727 506.70465088 357.62130737 507.21237183 357.62805176 507.69030762 C 357.46047974 508.04867554 357.15216064 508.29241943 356.77377319 508.39126587 C 356.28549194 508.45880127 355.63629150 508.56997681 354.88922119 508.62731934 C 354.06951904 508.61138916 353.16534424 508.60375977 352.21646118 508.66995239 C 351.23260498 508.67575073 350.19207764 508.71520996 349.11746216 508.66555786 C 348.05325317 508.59207153 346.96121216 508.50726318 351.70617676 503.69479370" stroke-width="1.69339168" fill="rgb(0, 170, 109)" opacity="1.0" stroke="rgb(9, 182, 163)" stroke-opacity="0.7109584" stroke-linecap="round" stroke-linejoin="round"/>
    <path d="M 50.74127197 181.34521484 C 51.21640015 181.48492432 51.64460754 181.60202026 52.01605606 181.67045593 C 52.44447708 181.89884949 52.69157410 182.18319702 52.75477982 182.56993103 C 52.74508667 183.02662659 52.76079178 183.45591736 52.63474655 183.83662415 C 52.51778793 184.19644165 52.26572418 184.45553589 52.12525177 184.72988892 C 51.76573944 184.90901184 51.52043533 185.01777649 51.32878876 184.89869690 C 51.14005661 184.73547363 51.06138611 184.69433594 50.96025848 184.73762512 C 50.67755890 184.85530090 50.25553513 184.89288330 49.99945450 184.90328979 C 49.95159149 184.64303589 50.01033020 184.40756226 49.93109894 184.32113647 C 49.65958786 184.04093933 49.31341553 183.44456482 49.10852432 183.02111816 C 48.92837906 182.86503601 48.92319870 182.27282715 50.74127197 181.34521484" stroke-width="0.57932138" fill="rgb(248, 247, 247)" opacity="1.0" stroke="rgb(160, 161, 159)" stroke-opacity="0.81364894" stroke-linecap="round" stroke-linejoin="round"/>
    <path d="M 456.60812378 345.22515869 C 456.81933594 344.78295898 456.91925049 344.36230469 457.21884155 344.05316162 C 457.56927490 343.87817383 457.95565796 343.55670166 458.15478516 343.24295044 C 458.25732422 343.08456421 458.64318848 343.01107788 459.19927979 343.07241821 C 459.68847656 343.18707275 460.05950928 343.37603760 460.28768921 343.65130615 C 460.37945557 344.08016968 460.55435181 344.48709106 460.77447510 344.82226562 C 460.94149780 345.24063110 460.81460571 345.52740479 460.47198486 345.91348267 C 460.24276733 346.43014526 459.93936157 346.85397339 459.61499023 347.15747070 C 459.55444336 347.26046753 459.29339600 347.14910889 458.91567993 347.05450439 C 458.72103882 346.89303589 458.59591675 346.74050903 458.34896851 346.77655029 C 457.95535278 346.80853271 457.67898560 346.92160034 456.60812378 345.22515869" stroke-width="0.38171837" fill="rgb(252, 252, 252)" opacity="1.0" stroke="rgb(143, 143, 141)" stroke-opacity="0.8296753" stroke-linecap="round" stroke-linejoin="round"/>
    <path d="M 37.02426910 170.13180542 C 37.41199875 169.66487122 37.83572769 169.30702209 38.36939621 169.11251831 C 38.71898270 168.99293518 39.18666458 168.94749451 39.52835083 168.88642883 C 39.71395874 168.92559814 39.70210266 169.07853699 39.62334061 169.38623047 C 39.65789795 169.69895935 39.82076263 169.81311035 40.11277771 169.84046936 C 40.49399567 169.98822021 40.57915878 170.47134399 40.76182175 170.66993713 C 41.07050705 170.46923828 41.00035095 170.21350098 40.77561188 170.10716248 C 40.70886230 170.44255066 40.51395035 170.86653137 40.38735580 171.41572571 C 40.31203079 171.80857849 40.34956360 172.14076233 40.29050446 172.40728760 C 40.14234924 172.29365540 39.73024750 172.23600769 38.98423767 172.36323547 C 38.21002579 172.51068115 37.45240402 172.44638062 37.02426910 170.13180542" stroke-width="0.39180505" fill="rgb(251, 250, 250)" opacity="1.0" stroke="rgb(127, 126, 124)" stroke-opacity="0.7199856" stroke-linecap="round" stroke-linejoin="round"/>
    <path d="M 348.83181763 90.93331146 C 349.28598022 90.87152863 349.77038574 90.75022125 350.14166260 90.58489990 C 350.35876465 90.47705841 350.51989746 90.43222046 350.74053955 90.56268311 C 351.08499146 90.74457550 351.47750854 90.95475769 351.61938477 91.22891235 C 351.89382935 91.42831421 352.14596558 91.53996277 352.25527954 91.84349823 C 352.18676758 92.18834686 352.19201660 92.66208649 352.25646973 93.05648041 C 352.21545410 93.38459015 351.98611450 93.83011627 351.88375854 94.15111542 C 351.71221924 94.34002686 351.64013672 94.45009613 351.67932129 94.43991089 C 351.71102905 94.33689880 351.63800049 94.21385193 351.23638916 94.19455719 C 350.69149780 94.20688629 350.22811890 94.09747314 349.85870361 94.05796814 C 349.43869019 94.00534058 348.87429810 93.96723175 348.83181763 90.93331146" stroke-width="0.49837086" fill="rgb(239, 238, 234)" opacity="1.0" stroke="rgb(140, 137, 132)" stroke-opacity="0.81305206" stroke-linecap="round" stroke-linejoin="round"/>
    <path d="M 52.19183350 255.59811401 C 52.06061554 255.36785889 52.07355118 255.16815186 51.85003662 255.03652954 C 51.55014801 254.86305237 51.31343842 254.68981934 51.17527008 254.48756409 C 51.18123245 254.21051025 51.23725510 254.00245667 51.26277542 253.79074097 C 51.26723862 253.56672668 51.25049591 253.33695984 51.19644165 253.13742065 C 51.35660553 253.00509644 51.57674408 252.87977600 51.72343445 252.51077271 C 52.28192520 252.25624084 52.73403931 252.18199158 53.12070847 252.25485229 C 53.49504852 252.34082031 53.81541443 252.34486389 53.82872391 252.46434021 C 53.98586655 252.57321167 54.26011658 252.82917786 54.25996780 253.15109253 C 54.29931641 253.56887817 54.60780334 253.99404907 54.99429321 254.43505859 C 55.00588608 254.75958252 54.81979370 254.95072937 52.19183350 255.59811401" stroke-width="0.56360406" fill="rgb(244, 243, 241)" opacity="1.0" stroke="rgb(134, 134, 130)" stroke-opacity="0.6053795" stroke-linecap="round" stroke-linejoin="round"/>
    <path d="M 85.07511139 121.99623108 C 84.86312866 121.52500916 84.72595978 120.98823547 84.60787964 120.47042084 C 84.69431305 120.18865967 84.93544006 119.83871460 85.13304901 119.63494873 C 85.14704895 119.34638214 85.23329926 119.18785095 85.39713287 119.22309113 C 85.48825073 119.27799988 85.72943115 119.25883484 86.14825439 119.16683960 C 86.77069855 119.17547607 87.16563416 119.33416748 87.21130371 119.58739471 C 87.50344086 119.71156311 87.59593201 119.83859253 87.68202972 119.85132599 C 88.04377747 119.66812897 88.35940552 119.77777863 88.36779785 119.93279266 C 88.32398224 120.06853485 88.51448822 120.20441437 88.61634827 120.49475861 C 88.66083527 120.76158905 88.58181000 120.99058533 88.30889130 121.57123566 C 88.07994080 122.39604950 87.59334564 123.04644775 85.07511139 121.99623108" stroke-width="0.49837473" fill="rgb(248, 248, 248)" opacity="1.0" stroke="rgb(130, 127, 124)" stroke-opacity="0.57844704" stroke-linecap="round" stroke-linejoin="round"/>
  </g>
</svg>
