<?xml version="1.0" ?>
<svg xmlns="http://www.w3.org/2000/svg" version="1.1" width="512" height="512" viewBox="0 0 512 512">
  <defs/>
  <g>
    <path d="M 321.41452026 314.29376221 C 318.80770874 316.05130005 316.24066162 317.59069824 313.46984863 319.01083374 C 310.56387329 320.07406616 307.80499268 321.21597290 304.79623413 321.89215088 C 301.64605713 322.20605469 298.45040894 322.32620239 295.21405029 321.96011353 C 292.14697266 321.58386230 289.29263306 320.63473511 286.43142700 319.42669678 C 283.56304932 318.45291138 281.00936890 317.07617188 278.64614868 315.46435547 C 276.42034912 313.83282471 274.48669434 311.95764160 272.52532959 310.16781616 C 270.97207642 308.03091431 269.18670654 306.21093750 267.27395630 304.53524780 C 266.29153442 302.06973267 264.91860962 299.80047607 263.19833374 297.65997314 C 262.23770142 295.06771851 261.53903198 292.18466187 260.97033691 289.21942139 C 259.86578369 286.51837158 259.60632324 283.60647583 259.72744751 280.41131592 C 259.68865967 277.21853638 259.73117065 273.94619751 260.12667847 270.54510498 C 260.90615845 267.36257935 261.65859985 264.14761353 262.43469238 260.94256592 C 263.30331421 257.88159180 264.59393311 255.11381531 266.30429077 252.61596680 C 268.10327148 250.10208130 270.03228760 247.79508972 272.07131958 245.77464294 C 274.46237183 244.43185425 276.61941528 242.70297241 278.84771729 241.02278137 C 281.03332520 239.21067810 283.37426758 237.67018127 285.89465332 236.42489624 C 288.60223389 235.44096375 291.43008423 234.70631409 294.31762695 234.26660156 C 297.27197266 234.06829834 300.27526855 234.06736755 303.25180054 234.33097839 C 306.14413452 234.85353088 308.99258423 235.59529114 311.73254395 236.62960815 C 314.31649780 237.96774292 316.73928833 239.55419922 319.05249023 241.43652344 C 321.69616699 242.98582458 324.13320923 244.77450562 326.46856689 246.49612427 C 328.55667114 248.33137512 330.42651367 250.33657837 332.09616089 252.46122742 C 333.56674194 254.84265137 334.77499390 257.41473389 335.72967529 260.15148926 C 336.82632446 262.83810425 337.51818848 265.69570923 338.32238770 268.44775391 C 338.64175415 271.27969360 339.10119629 273.83544922 339.26422119 276.57406616 C 339.34420776 279.51943970 339.32766724 282.43395996 339.26916504 285.27941895 C 338.62887573 288.01586914 337.96380615 290.87908936 337.19363403 293.53234863 C 336.26837158 296.16763306 335.12792969 298.48272705 333.93811035 300.79769897 C 332.86105347 303.15429688 331.54782104 305.11645508 329.87762451 306.80743408 C 328.07992554 308.23254395 326.47094727 309.81982422 321.41452026 314.29376221" stroke-width="0.73251301" fill="rgb(2, 2, 3)" opacity="1.0" stroke="rgb(0, 0, 0)" stroke-opacity="0.49906352" stroke-linecap="round" stroke-linejoin="round"/>
    <path d="M 303.59582520 238.64070129 C 300.21542358 238.92878723 296.73068237 239.14781189 293.18722534 239.39164734 C 289.78640747 239.59591675 286.62866211 239.74455261 283.66473389 239.80464172 C 280.85531616 239.70062256 278.33450317 239.60276794 276.27340698 239.37222290 C 274.75457764 238.75999451 273.56658936 237.53469849 272.33200073 236.11718750 C 271.13302612 234.59799194 270.29534912 232.56402588 269.33108521 230.27091980 C 268.40493774 227.80241394 268.19201660 225.04946899 268.21682739 222.10304260 C 268.78155518 219.02043152 269.51522827 215.80746460 270.45944214 212.81736755 C 272.29595947 210.24201965 274.18728638 207.47863770 275.96643066 204.73410034 C 278.40554810 202.48854065 280.53845215 200.03479004 282.80017090 197.73507690 C 285.20007324 195.66142273 287.54598999 193.85308838 290.41275024 192.81948853 C 293.55313110 191.94906616 296.35778809 190.93948364 299.08682251 190.81416321 C 302.08874512 190.87571716 304.81454468 191.31370544 307.59320068 192.09143066 C 310.18536377 192.91848755 312.84429932 194.21165466 315.55493164 195.86431885 C 318.21853638 198.11929321 320.84704590 200.71871948 323.55648804 203.32406616 C 325.80718994 205.99200439 327.90139771 208.51722717 329.65142822 210.82015991 C 330.16256714 213.56727600 330.74508667 216.14570618 331.79019165 218.70426941 C 332.57376099 220.95091248 332.63330078 223.26296997 332.05926514 225.73829651 C 331.66043091 228.24836731 331.04205322 230.62062073 330.14108276 232.76478577 C 329.14129639 234.64619446 327.63897705 236.26654053 326.00616455 237.75781250 C 324.31793213 239.33221436 322.67749023 240.91882324 303.59582520 238.64070129" stroke-width="0.63552928" fill="rgb(3, 2, 3)" opacity="1.0" stroke="rgb(0, 0, 0)" stroke-opacity="0.45573255" stroke-linecap="round" stroke-linejoin="round"/>
    <path d="M 292.50198364 266.06130981 C 292.51135254 265.99563599 292.47918701 265.89559937 292.48764038 265.81155396 C 292.47180176 265.73593140 292.47042847 265.64300537 292.45724487 265.56857300 C 292.46112061 265.49206543 292.45773315 265.41296387 292.45828247 265.35418701 C 292.47140503 265.29397583 292.47546387 265.22637939 292.49172974 265.18075562 C 292.51678467 265.14990234 292.54519653 265.11444092 292.57232666 265.08438110 C 292.60501099 265.07107544 292.65884399 265.07153320 292.70144653 265.06198120 C 292.74835205 265.08013916 292.81665039 265.08694458 292.87469482 265.11010742 C 292.93222046 265.13650513 293.00128174 265.16406250 293.07815552 265.20086670 C 293.14395142 265.24111938 293.21667480 265.26846313 293.29418945 265.31811523 C 293.36547852 265.35443115 293.44097900 265.39233398 292.50198364 266.06130981" stroke-width="2.00000000" fill="rgb(0, 0, 1)" opacity="1.0" stroke="rgb(2, 0, 1)" stroke-opacity="0.9956568" stroke-linecap="round" stroke-linejoin="round"/>
    <path d="M 268.70382690 210.96467590 C 265.56738281 207.31166077 262.06478882 203.74288940 258.05255127 200.44491577 C 254.01300049 196.79005432 249.58403015 193.22596741 245.02134705 189.35423279 C 240.34193420 185.21522522 235.48547363 180.85015869 230.22540283 176.58964539 C 225.01698303 171.96658325 219.18762207 167.81033325 213.43121338 163.48260498 C 207.60424805 159.41334534 202.28082275 154.86172485 196.81103516 150.59268188 C 190.58694458 147.40959167 183.64451599 145.33628845 176.95164490 142.64752197 C 170.46553040 139.89874268 164.30734253 137.44334412 159.01789856 134.70710754 C 154.44880676 132.22784424 150.53295898 130.63839722 147.89306641 129.15335083 C 146.86756897 127.50405884 147.50961304 126.45019531 149.93080139 126.38679504 C 153.60122681 127.67711639 158.29959106 130.01443481 164.17868042 132.45666504 C 170.82740784 134.88789368 177.65118408 137.78628540 184.35693359 140.34877014 C 190.26608276 142.50149536 194.04516602 144.37792969 196.77117920 143.04026794 C 199.02450562 144.68055725 201.74664307 147.78030396 205.36380005 151.19096375 C 209.74053955 154.65100098 214.64328003 158.31353760 219.92408752 161.93446350 C 225.18977356 165.76269531 230.44564819 169.72526550 235.51527405 173.89384460 C 240.48634338 177.99105835 245.28614807 182.05816650 249.94306946 185.96388245 C 254.50865173 189.65103149 258.74307251 193.42623901 262.67153931 197.24604797 C 266.53662109 200.81738281 270.31301880 204.05439758 273.42492676 207.58175659 C 276.87631226 210.44725037 280.55230713 212.72964478 284.38446045 214.46313477 C 288.49282837 215.68354797 292.76733398 216.44889832 268.70382690 210.96467590" stroke-width="0.69360036" fill="rgb(6, 9, 10)" opacity="1.0" stroke="rgb(0, 5, 3)" stroke-opacity="0.46243852" stroke-linecap="round" stroke-linejoin="round"/>
    <path d="M 377.54104614 161.89350891 C 382.27136230 158.26498413 387.16934204 154.77314758 391.59509277 151.05072021 C 396.06692505 148.07872009 399.67697144 145.36361694 402.16009521 142.86016846 C 405.37680054 143.72717285 409.02679443 142.55690002 413.94882202 139.91664124 C 420.21664429 137.53451538 426.84729004 134.87368774 433.22332764 132.27664185 C 438.83908081 129.74220276 443.56072998 127.63319397 446.91296387 126.18386841 C 448.89614868 126.21157074 449.73553467 127.28884888 449.23416138 128.75674438 C 447.08853149 130.09945679 443.60943604 131.44348145 439.37597656 133.58119202 C 434.23922729 136.14776611 428.71249390 138.91659546 422.51464844 141.46589661 C 416.18499756 143.97383118 410.07647705 146.60452271 403.93740845 148.21083069 C 398.69009399 151.47589111 393.99847412 155.73890686 388.73431396 159.60972595 C 383.36697388 163.65184021 377.90362549 167.75625610 372.65454102 172.16200256 C 367.36816406 176.48051453 362.34335327 180.99623108 357.45458984 185.39436340 C 352.89709473 189.79747009 348.19143677 193.53129578 343.98559570 197.33862305 C 340.17822266 200.94848633 336.61904907 203.94979858 333.50570679 206.28788757 C 331.33941650 208.48793030 329.65451050 209.68646240 328.38250732 209.71008301 C 327.31082153 208.49290466 327.06341553 206.83337402 327.69515991 204.90165710 C 329.32272339 203.14942932 331.62915039 201.33439636 334.21356201 198.98509216 C 337.36169434 196.48361206 340.45584106 193.20471191 344.09396362 189.82350159 C 348.00253296 186.30589294 352.17907715 182.68559265 356.52026367 179.01084900 C 360.87472534 175.05781555 365.21340942 170.96734619 377.54104614 161.89350891" stroke-width="0.74439353" fill="rgb(6, 6, 8)" opacity="1.0" stroke="rgb(3, 8, 5)" stroke-opacity="0.4943411" stroke-linecap="round" stroke-linejoin="round"/>
    <path d="M 264.95654297 224.00898743 C 260.06863403 222.49009705 255.19366455 220.63822937 250.37802124 219.00880432 C 245.26855469 217.97959900 240.15367126 217.52301025 234.78738403 217.19982910 C 229.11900330 216.77015686 223.33111572 216.06452942 217.56945801 215.12617493 C 211.46386719 213.88304138 205.14053345 212.73892212 198.66304016 211.61718750 C 191.86616516 210.00796509 184.64366150 208.97019958 177.37065125 207.25270081 C 169.71678162 205.87525940 162.68037415 204.00338745 156.63963318 202.32432556 C 151.99798584 203.29988098 148.49343872 200.76388550 144.34542847 200.99542236 C 138.03526306 201.69366455 130.92204285 201.15649414 123.65790558 201.35078430 C 116.91982269 201.27032471 111.28957367 201.41387939 107.51244354 201.45843506 C 106.02480316 200.62770081 106.02861023 199.25964355 107.15792847 197.97990417 C 110.06491089 197.73109436 114.22477722 197.84457397 119.30773163 197.68807983 C 125.15100098 197.47024536 131.29220581 197.14447021 137.25558472 196.92764282 C 142.77003479 197.08697510 147.67007446 196.16801453 152.01333618 194.83555603 C 156.24688721 196.72993469 161.60615540 198.27516174 167.65002441 199.78848267 C 174.21345520 201.25962830 181.15287781 202.39598083 188.06570435 204.11701965 C 195.18957520 205.50921631 202.25224304 206.94195557 209.46888733 208.50926208 C 216.76014709 209.61172485 224.03419495 210.60133362 231.19897461 211.28324890 C 238.06907654 211.83946228 244.56977844 212.64883423 250.59863281 212.90379333 C 255.88015747 213.86546326 260.37966919 216.24096680 264.95416260 219.11012268 C 269.68173218 221.80137634 274.09896851 224.95849609 264.95654297 224.00898743" stroke-width="0.71319747" fill="rgb(5, 4, 7)" opacity="1.0" stroke="rgb(6, 9, 8)" stroke-opacity="0.47298154" stroke-linecap="round" stroke-linejoin="round"/>
    <path d="M 473.67675781 201.21401978 C 466.42224121 201.47850037 459.43505859 200.90414429 453.25842285 200.95515442 C 448.06793213 202.53507996 442.65954590 202.40040588 437.03695679 202.58815002 C 431.51022339 204.29457092 425.58895874 205.93730164 419.08264160 207.34078979 C 412.41024780 209.18278503 405.25378418 210.39270020 398.01000977 212.00692749 C 390.75598145 213.88420105 383.52621460 215.14910889 376.14196777 215.86883545 C 369.06625366 216.52842712 362.42105103 217.05125427 356.23565674 217.61822510 C 350.94464111 218.02725220 346.66027832 219.07072449 342.95129395 221.08239746 C 339.18222046 222.39814758 336.10223389 223.65597534 333.82104492 223.89843750 C 332.27529907 223.02133179 331.75256348 221.46412659 332.46301270 219.89555359 C 334.57867432 219.01701355 337.44180298 218.11117554 340.50271606 216.34449768 C 343.97109985 214.26948547 347.59158325 212.35409546 352.05816650 212.22578430 C 357.58264160 211.81782532 364.19015503 211.17861938 371.42648315 211.04103088 C 378.97186279 210.48994446 386.73507690 209.41020203 394.31469727 207.27201843 C 402.08541870 205.54417419 409.66397095 203.96223450 417.07388306 202.11602783 C 424.09960938 200.50891113 430.52343750 198.80644226 436.23074341 197.52235413 C 440.90170288 196.13212585 444.03802490 194.33352661 446.00534058 193.94230652 C 446.87979126 195.83598328 448.59863281 196.62234497 452.41192627 196.45252991 C 457.98669434 196.54949951 464.50915527 196.89323425 471.58712769 197.49964905 C 478.59121704 197.69140625 484.71374512 197.58515930 489.19955444 197.86009216 C 491.41000366 200.66925049 493.46569824 202.50271606 473.67675781 201.21401978" stroke-width="0.72421092" fill="rgb(5, 8, 7)" opacity="1.0" stroke="rgb(0, 1, 0)" stroke-opacity="0.47105843" stroke-linecap="round" stroke-linejoin="round"/>
    <path d="M 279.94158936 276.67810059 C 273.19403076 278.96112061 266.46173096 281.20178223 259.58294678 283.40417480 C 252.68888855 285.53741455 245.65780640 287.15805054 238.59056091 289.24868774 C 231.10459900 290.60592651 223.34049988 291.39990234 215.24604797 292.35183716 C 207.03941345 293.36907959 198.68377686 294.36386108 190.16262817 295.44152832 C 181.67095947 296.69644165 173.33583069 297.11093140 165.36984253 298.24728394 C 158.12977600 300.70767212 151.05311584 300.44216919 144.50358582 303.03475952 C 137.15496826 305.43795776 129.78427124 307.32846069 122.95921326 309.17272949 C 116.96431732 310.61523438 112.28201294 312.04898071 108.86724854 312.57611084 C 107.04968262 312.07015991 106.82120514 310.36102295 107.97804260 308.67004395 C 110.99717712 307.80798340 115.43254089 306.94430542 120.91398621 305.40539551 C 127.31439972 303.47763062 134.28646851 301.58862305 141.31077576 299.04837036 C 148.45780945 296.85906982 154.84989929 294.63308716 159.82962036 292.09747314 C 164.48817444 293.37991333 169.35525513 292.54464722 175.09808350 291.86947632 C 181.14141846 291.44647217 187.28208923 290.24060059 193.55287170 289.33966064 C 199.89457703 288.66708374 206.20121765 287.72494507 212.49356079 287.01565552 C 218.59471130 286.03717041 224.82101440 285.04278564 230.92243958 284.12939453 C 236.94668579 283.31851196 242.88345337 282.12768555 248.58721924 280.49166870 C 254.51341248 279.69067383 260.37454224 278.85256958 266.29647827 278.13754272 C 272.25469971 277.53494263 278.23309326 276.95187378 284.18789673 276.36709595 C 290.11923218 275.80761719 296.08963013 275.30944824 279.94158936 276.67810059" stroke-width="0.71800148" fill="rgb(6, 5, 5)" opacity="1.0" stroke="rgb(0, 1, 0)" stroke-opacity="0.44682074" stroke-linecap="round" stroke-linejoin="round"/>
    <path d="M 346.76385498 280.12210083 C 352.27230835 280.91415405 357.80551147 282.24490356 363.36032104 283.89715576 C 369.17370605 285.05706787 375.31076050 285.99319458 381.56976318 286.66156006 C 387.72924805 287.65429688 393.86538696 288.68670654 399.99749756 289.12188721 C 405.88537598 289.74649048 411.31311035 290.99075317 416.77990723 291.19876099 C 422.28921509 292.05654907 427.44720459 292.89724731 432.17385864 292.30978394 C 437.03955078 293.10131836 441.20733643 292.96810913 444.63769531 295.62139893 C 449.55792236 297.42553711 455.34841919 299.01309204 461.42712402 300.88229370 C 467.47543335 302.74465942 473.23049927 304.66510010 478.42324829 306.15765381 C 482.87249756 307.42126465 486.40390015 308.15783691 488.82232666 308.52838135 C 489.76882935 309.70281982 489.69641113 311.57632446 488.28231812 312.36672974 C 485.53488159 312.10504150 481.10842896 310.90631104 475.44097900 309.57342529 C 468.94561768 307.78390503 461.97555542 305.33322144 454.70217896 303.36843872 C 447.87322998 301.37408447 442.55084229 299.62734985 438.09649658 300.87948608 C 434.08096313 299.23916626 429.90402222 297.76211548 424.85955811 298.01806641 C 419.39309692 297.27993774 413.38577271 296.60153198 407.24951172 295.88607788 C 401.06494141 295.09875488 394.86791992 294.23193359 388.55749512 293.62490845 C 382.28829956 292.64892578 375.80917358 291.90481567 369.40579224 291.14913940 C 363.04299927 289.81448364 356.45913696 288.61453247 350.33239746 286.70626831 C 344.08270264 285.14993286 337.76684570 283.47686768 331.65966797 281.32083130 C 325.69659424 278.63116455 319.74557495 275.98013306 346.76385498 280.12210083" stroke-width="0.77985156" fill="rgb(6, 5, 6)" opacity="1.0" stroke="rgb(0, 4, 2)" stroke-opacity="0.43807322" stroke-linecap="round" stroke-linejoin="round"/>
    <path d="M 268.65975952 301.72668457 C 265.53015137 305.54626465 262.14263916 309.14505005 258.25476074 312.35879517 C 254.15156555 315.57922363 249.96752930 318.89318848 245.35578918 321.90759277 C 240.36198425 324.86843872 235.38796997 328.21652222 229.89509583 331.23217773 C 224.28280640 334.25054932 218.89396667 338.02072144 213.00364685 341.55111694 C 206.85719299 345.11718750 200.91197205 349.20220947 195.04541016 353.14544678 C 189.26435852 356.38369751 183.17910767 358.67224121 177.07952881 360.82836914 C 171.15158081 362.96438599 165.45324707 365.21154785 160.30158997 367.26065063 C 155.70256042 369.05252075 152.12821960 370.52078247 149.34585571 371.03466797 C 147.95294189 370.71862793 147.61141968 369.47644043 148.16496277 368.11874390 C 149.90022278 367.50210571 152.44137573 366.63143921 155.66813660 365.33163452 C 159.57946777 363.84060669 163.80697632 362.07116699 168.39411926 359.88949585 C 173.39006042 358.22692871 178.33506775 355.86743164 183.48197937 353.76391602 C 188.66465759 351.57388306 193.49037170 348.91842651 197.67373657 345.37716675 C 202.25428772 342.37283325 207.05496216 339.69476318 211.87918091 336.82879639 C 216.71762085 333.90850830 221.57929993 331.03460693 226.26858521 328.05773926 C 231.04202271 325.37463379 235.46514893 322.20166016 239.93707275 319.22247314 C 244.37207031 316.22418213 248.66233826 313.17245483 252.91673279 310.15692139 C 257.21105957 307.30511475 261.12936401 304.05349731 265.19064331 301.07418823 C 269.31478882 298.20046997 273.49124146 295.34725952 277.54980469 292.33752441 C 281.47915649 289.22244263 285.32498169 286.11138916 268.65975952 301.72668457" stroke-width="0.71329343" fill="rgb(7, 5, 7)" opacity="1.0" stroke="rgb(0, 1, 0)" stroke-opacity="0.47298032" stroke-linecap="round" stroke-linejoin="round"/>
    <path d="M 333.97586060 302.13879395 C 337.41925049 303.57919312 340.57861328 306.06259155 343.94723511 308.98947144 C 347.71081543 311.90267944 351.51068115 315.13900757 355.57330322 318.35073853 C 359.91741943 321.42498779 364.42596436 324.57888794 369.25256348 327.47543335 C 374.31103516 330.50534058 379.51525879 333.42007446 384.70901489 336.70080566 C 389.90759277 339.93191528 395.33682251 342.88302612 400.36392212 346.42114258 C 405.31942749 349.85839844 409.94729614 353.22683716 415.46853638 354.83966064 C 421.42501831 356.73760986 427.30178833 359.06201172 432.96752930 361.65750122 C 438.36557007 363.78833008 443.10305786 365.67568970 446.91149902 367.19702148 C 449.52230835 368.14968872 450.44970703 369.23559570 450.03128052 370.60659790 C 448.76385498 371.23617554 446.69519043 370.84939575 443.54043579 369.62982178 C 439.53610229 368.04031372 434.91461182 366.26632690 429.61679077 364.49377441 C 424.11489868 362.37094116 418.40435791 360.30020142 412.73635864 358.40783691 C 407.42733765 356.63931274 402.61828613 353.61962891 397.73297119 350.15048218 C 392.37686157 346.95407104 386.88385010 343.67089844 381.54241943 340.35488892 C 376.31286621 337.09588623 371.28610229 333.98776245 366.26333618 331.16741943 C 361.47225952 328.37506104 356.90148926 325.71353149 352.70999146 322.67016602 C 348.50170898 319.95651245 344.73141479 316.89886475 341.28732300 313.44302368 C 337.49154663 310.32876587 333.96716309 306.99566650 330.80181885 303.31021118 C 327.56222534 299.70797729 324.29730225 296.10833740 320.86380005 292.64852905 C 317.29061890 289.40487671 313.74096680 286.17068481 333.97586060 302.13879395" stroke-width="0.66953439" fill="rgb(6, 4, 2)" opacity="1.0" stroke="rgb(0, 0, 0)" stroke-opacity="0.49060592" stroke-linecap="round" stroke-linejoin="round"/>
    <path d="M 290.67175293 206.21104431 C 290.68154907 206.21443176 290.67407227 206.21290588 290.67153931 206.20695496 C 290.68026733 206.22636414 290.67227173 206.19628906 290.67050171 206.22583008 C 290.68151855 206.19367981 290.66937256 206.22677612 290.67309570 206.19589233 C 290.67303467 206.22178650 290.67340088 206.20373535 290.67282104 206.21122742 C 290.66998291 206.20861816 290.67297363 206.20991516 290.67593384 206.20904541 C 290.67224121 206.20646667 290.66140747 206.20700073 290.68768311 206.20718384 C 290.66955566 206.21286011 290.66925049 206.20367432 290.67425537 206.19998169 C 290.67300415 206.21467590 290.66970825 206.20761108 290.68341064 206.19110107 C 290.66714478 206.21580505 290.67666626 206.20471191 290.67834473 206.19825745 C 290.67089844 206.20849609 290.68188477 206.19944763 290.67175293 206.21104431" stroke-width="2.00000000" fill="rgb(0, 12, 0)" opacity="1.0" stroke="rgb(0, 0, 1)" stroke-opacity="1.0" stroke-linecap="round" stroke-linejoin="round"/>
    <path d="M 304.60772705 215.34846497 C 304.62167358 215.32963562 304.60998535 215.35273743 304.61489868 215.32691956 C 304.61968994 215.34103394 304.60772705 215.33969116 304.61874390 215.33621216 C 304.61163330 215.33195496 304.61236572 215.33845520 304.61236572 215.33364868 C 304.62066650 215.33134460 304.61013794 215.33724976 304.60794067 215.32659912 C 304.62341309 215.33532715 304.61746216 215.33056641 304.60537720 215.33178711 C 304.61987305 215.32890320 304.61819458 215.33164978 304.61306763 215.33807373 C 304.61465454 215.32293701 304.62298584 215.33395386 304.61358643 215.34124756 C 304.61370850 215.32502747 304.61752319 215.33981323 304.62039185 215.33500671 C 304.61770630 215.33206177 304.61669922 215.34799194 304.61495972 215.33248901 C 304.62539673 215.34588623 304.61614990 215.33876038 304.60772705 215.34846497" stroke-width="2.00000000" fill="rgb(0, 10, 0)" opacity="1.0" stroke="rgb(2, 1, 2)" stroke-opacity="1.0" stroke-linecap="round" stroke-linejoin="round"/>
    <path d="M 309.44152832 209.77047729 C 309.44284058 209.77400208 309.44326782 209.76480103 309.44192505 209.77638245 C 309.44445801 209.77098083 309.44485474 209.77049255 309.43817139 209.77593994 C 309.44848633 209.76998901 309.44247437 209.76893616 309.44946289 209.77865601 C 309.44314575 209.76713562 309.43688965 209.77052307 309.46102905 209.77909851 C 309.44152832 209.77441406 309.43301392 209.76815796 309.46252441 209.77546692 C 309.43972778 209.78289795 309.43585205 209.76679993 309.46035767 209.77560425 C 309.43386841 209.77711487 309.44564819 209.78924561 309.45193481 209.76997375 C 309.44204712 209.77145386 309.44760132 209.78912354 309.44415283 209.77854919 C 309.44561768 209.78163147 309.44140625 209.78930664 309.45269775 209.77900696 C 309.43652344 209.79072571 309.45269775 209.78344727 309.44152832 209.77047729" stroke-width="2.00000000" fill="rgb(0, 0, 0)" opacity="1.0" stroke="rgb(1, 0, 1)" stroke-opacity="1.0" stroke-linecap="round" stroke-linejoin="round"/>
    <path d="M 295.39837646 221.07896423 C 295.40493774 221.08685303 295.40173340 221.08155823 295.39477539 221.07940674 C 295.40353394 221.08059692 295.39764404 221.08570862 295.39849854 221.07945251 C 295.39727783 221.08351135 295.39532471 221.08708191 295.40145874 221.07554626 C 295.39227295 221.07940674 295.39810181 221.08433533 295.39337158 221.08145142 C 295.39910889 221.07859802 295.39099121 221.07431030 295.39721680 221.07437134 C 295.39114380 221.08303833 295.40060425 221.07948303 295.38986206 221.06706238 C 295.39071655 221.07936096 295.40191650 221.07673645 295.38977051 221.06442261 C 295.39971924 221.08074951 295.39321899 221.06631470 295.38912964 221.07524109 C 295.40625000 221.06636047 295.39132690 221.06935120 295.39025879 221.06127930 C 295.40353394 221.07316589 295.38754272 221.05824280 295.39837646 221.07896423" stroke-width="2.00000000" fill="rgb(0, 0, 13)" opacity="1.0" stroke="rgb(2, 1, 2)" stroke-opacity="0.9741294" stroke-linecap="round" stroke-linejoin="round"/>
    <path d="M 311.99948120 223.05746460 C 312.02020264 223.06475830 312.00015259 223.05506897 312.01342773 223.07043457 C 312.01287842 223.05711365 312.00680542 223.06642151 312.01385498 223.06192017 C 312.01016235 223.06660461 312.01147461 223.05702209 312.01043701 223.07000732 C 312.00875854 223.06161499 312.01507568 223.07104492 312.00659180 223.06059265 C 312.01553345 223.06585693 312.00747681 223.06942749 312.01351929 223.06024170 C 312.00726318 223.06909180 312.01461792 223.07073975 312.00283813 223.06419373 C 312.01385498 223.06394958 312.00494385 223.06698608 312.00161743 223.07363892 C 312.01797485 223.06509399 311.99908447 223.06753540 312.01095581 223.07034302 C 312.00622559 223.06639099 311.98733521 223.07049561 312.00982666 223.06648254 C 312.01821899 223.07380676 311.97668457 223.06719971 311.99948120 223.05746460" stroke-width="2.00000000" fill="rgb(46, 0, 17)" opacity="1.0" stroke="rgb(2, 1, 2)" stroke-opacity="0.95119584" stroke-linecap="round" stroke-linejoin="round"/>
    <path d="M 273.77911377 176.42683411 C 274.75158691 179.96246338 276.31845093 183.33874512 277.72705078 186.61291504 C 278.82656860 189.91287231 280.27307129 192.90379333 281.30432129 195.51802063 C 281.92791748 197.98193359 281.99990845 200.19892883 281.62945557 201.79809570 C 280.81826782 202.54093933 279.64782715 202.41183472 278.25854492 201.44174194 C 276.79583740 199.10253906 275.03979492 196.07435608 273.74822998 192.08300781 C 272.28063965 187.21269226 270.81066895 181.90757751 268.65704346 176.39651489 C 266.56378174 170.64727783 265.14978027 164.43836975 263.08142090 158.08656311 C 260.83175659 151.59063721 258.99493408 144.87001038 256.90805054 138.07571411 C 254.60208130 131.29649353 252.36160278 124.53644562 250.71868896 117.66740417 C 248.94430542 111.18480682 246.92866516 104.94631958 245.29450989 98.85891724 C 243.63333130 93.16645813 241.97917175 88.01423645 240.39402771 83.54953766 C 239.04991150 79.75142670 237.55044556 76.95186615 236.97010803 74.65604401 C 236.95907593 72.99343872 237.71435547 72.21096802 238.87886047 72.14530945 C 239.71376038 72.90397644 240.35646057 74.57620239 241.00820923 77.12200165 C 241.70083618 80.16230011 242.83135986 83.67733002 243.98367310 87.67890167 C 245.25659180 92.21720123 246.77714539 97.10373688 248.44380188 102.34422302 C 250.13598633 107.74884033 251.68113708 113.46355438 253.78411865 118.76358795 C 255.13636780 124.16222382 256.87774658 129.16743469 259.04809570 134.01292419 C 260.64505005 138.87905884 262.47442627 143.66621399 264.36968994 148.52481079 C 266.06958008 153.45440674 267.78207397 158.38510132 273.77911377 176.42683411" stroke-width="0.78974837" fill="rgb(6, 8, 8)" opacity="1.0" stroke="rgb(2, 6, 3)" stroke-opacity="0.44732454" stroke-linecap="round" stroke-linejoin="round"/>
    <path d="M 347.87802124 126.49533081 C 345.82122803 132.88191223 343.81658936 139.26184082 342.08575439 145.65330505 C 340.53259277 151.85733032 338.40740967 158.09768677 336.61688232 164.01942444 C 334.94183350 169.93849182 333.28979492 175.60549927 331.52511597 180.85606384 C 329.63488770 185.76776123 328.01553345 190.26568604 326.26864624 194.19448853 C 324.88388062 197.54733276 323.55136108 200.16467285 322.22656250 201.81648254 C 320.73812866 202.49818420 319.40722656 202.30607605 318.56253052 201.23011780 C 318.39065552 199.46759033 319.03170776 197.26686096 320.48818970 194.46711731 C 322.04281616 191.00907898 323.94329834 187.07446289 325.72039795 182.49684143 C 327.72161865 177.56845093 329.67599487 172.32423401 331.33566284 166.50041199 C 333.29150391 160.49066162 335.33737183 154.20553589 337.21942139 147.78572083 C 339.56863403 141.38357544 342.01931763 135.15556335 344.46795654 128.90078735 C 346.63769531 122.82781219 348.05535889 116.66283417 349.94601440 110.67308044 C 351.55767822 104.81286621 353.28604126 99.17493439 355.00216675 93.74340820 C 356.55072021 88.61214447 357.88497925 83.91339111 358.87710571 79.77799225 C 359.63439941 76.35575104 360.37741089 73.73806763 361.39428711 72.19402313 C 362.56063843 71.60921478 363.46026611 71.97247314 363.77087402 73.19235992 C 363.33007812 75.31127930 362.49514771 78.04070282 361.02215576 81.11124420 C 359.90701294 84.68405914 358.77493286 88.84371948 357.17727661 92.82402802 C 356.43130493 96.88815308 354.98309326 101.09643555 353.70919800 105.31733704 C 352.59188843 109.72322083 351.43862915 114.18788147 347.87802124 126.49533081" stroke-width="0.74978763" fill="rgb(6, 9, 8)" opacity="1.0" stroke="rgb(2, 4, 1)" stroke-opacity="0.46337104" stroke-linecap="round" stroke-linejoin="round"/>
    <path d="M 356.65588379 424.70544434 C 356.50424194 426.09329224 356.22790527 427.29779053 355.73736572 428.18444824 C 354.99768066 428.42977905 354.04699707 427.94125366 353.28778076 426.78665161 C 352.92388916 424.74664307 352.57513428 422.13922119 352.44445801 419.30950928 C 352.02169800 416.14813232 351.46530151 412.83740234 351.80355835 409.36492920 C 351.24401855 405.49621582 350.60314941 401.20635986 350.45849609 396.70758057 C 350.03634644 392.04602051 349.58010864 387.30584717 348.82791138 382.48507690 C 348.69387817 377.67367554 348.09918213 372.90643311 347.63772583 368.15557861 C 347.30923462 363.34332275 347.13973999 358.33465576 346.54574585 353.43524170 C 344.22213745 348.49777222 341.45184326 343.31756592 339.33715820 337.63827515 C 337.01773071 332.09017944 334.75634766 326.75146484 332.40612793 321.87149048 C 330.51666260 317.31753540 328.64385986 313.52658081 327.38800049 310.40646362 C 327.06726074 308.10934448 327.56237793 306.72573853 328.56375122 306.31417847 C 329.60192871 307.25692749 330.84292603 309.17596436 332.41738892 311.86688232 C 334.39752197 314.94244385 336.15682983 318.68624878 338.24902344 322.70880127 C 340.31234741 327.04745483 342.67642212 331.50115967 344.17706299 336.26907349 C 346.33840942 340.90512085 348.36044312 345.46801758 350.06307983 349.71520996 C 350.63061523 353.68630981 350.72509766 357.65594482 350.53576660 361.89288330 C 350.82461548 366.65753174 351.14309692 371.76373291 351.50671387 377.21179199 C 351.90863037 382.93435669 352.33801270 388.99380493 352.97906494 395.14169312 C 353.75131226 401.43276978 353.71554565 407.99987793 356.65588379 424.70544434" stroke-width="0.66333067" fill="rgb(6, 7, 8)" opacity="1.0" stroke="rgb(8, 9, 7)" stroke-opacity="0.48020303" stroke-linecap="round" stroke-linejoin="round"/>
    <path d="M 263.80886841 317.84765625 C 264.99926758 315.51254272 266.19027710 313.25436401 267.24386597 311.29388428 C 267.81600952 309.46453857 268.47552490 308.13137817 269.54354858 307.53222656 C 270.72753906 307.64852905 271.76531982 308.10595703 272.27075195 308.91101074 C 272.17370605 310.34466553 271.33422852 312.33898926 270.42584229 314.88891602 C 269.05157471 317.88305664 267.54016113 321.54415894 265.83880615 325.41430664 C 263.91540527 329.69735718 262.10839844 334.29696655 260.10183716 339.06207275 C 258.14996338 343.96099854 256.49560547 348.83663940 253.91090393 353.09854126 C 253.28961182 358.19180298 252.83416748 363.68576050 252.40463257 369.58001709 C 251.50225830 375.55010986 250.97512817 381.70108032 250.29249573 387.73178101 C 249.73056030 393.57656860 249.37168884 399.33111572 248.50550842 404.59710693 C 248.30909729 409.74359131 247.78436279 414.39474487 247.15464783 418.51696777 C 246.72613525 422.11633301 246.38133240 425.13400269 245.95198059 427.20553589 C 245.22746277 428.49978638 244.55882263 428.88427734 243.70573425 428.55422974 C 242.85769653 427.91287231 242.58596802 426.51834106 242.95581055 424.44104004 C 243.40309143 421.60815430 243.95246887 418.21786499 245.10134888 414.34558105 C 245.40521240 409.75726318 246.26692200 404.66552734 246.78092957 399.46356201 C 247.14869690 394.13876343 247.51835632 388.81039429 247.85066223 383.55780029 C 248.53041077 378.20471191 248.95014954 372.82391357 249.18016052 367.49343872 C 249.42544556 362.16763306 249.64375305 356.99755859 250.27189636 352.17449951 C 251.33412170 347.54351807 252.49928284 343.05560303 263.80886841 317.84765625" stroke-width="0.70469058" fill="rgb(4, 4, 7)" opacity="1.0" stroke="rgb(0, 0, 0)" stroke-opacity="0.48613778" stroke-linecap="round" stroke-linejoin="round"/>
  </g>
</svg>
