<?xml version="1.0" ?>
<svg xmlns="http://www.w3.org/2000/svg" version="1.1" width="512" height="512" viewBox="0 0 512 512">
  <defs/>
  <g>
    <path d="M 534.26812744 327.67388916 C 513.53637695 333.73294067 492.90386963 339.91741943 472.37411499 346.24377441 C 451.84741211 352.65811157 431.18811035 359.08370972 410.50650024 365.47210693 C 389.82406616 371.63388062 369.10659790 377.46261597 348.25610352 382.87060547 C 327.21310425 387.89791870 306.07220459 392.43692017 284.92089844 396.34768677 C 263.71691895 399.62518311 242.45753479 402.20797729 221.22634888 404.00204468 C 200.12794495 404.92443848 179.27783203 404.87643433 158.73251343 403.83618164 C 138.47294617 401.78881836 118.68883514 398.62127686 99.52707672 394.18988037 C 81.11811066 388.42086792 63.56773758 381.31838989 46.98799896 372.82183838 C 31.59506607 362.84698486 17.48937607 351.29589844 4.82728577 338.16912842 C -6.25844431 323.42599487 -15.73823643 307.17999268 -23.67068291 289.60272217 C -30.17473030 270.91934204 -35.28492355 251.30397034 -39.06085587 230.94157410 C -41.62255478 210.05281067 -42.94382477 188.86706543 -43.09468460 167.54577637 C -42.16303635 146.31369019 -40.18648148 125.36149597 -37.20243835 104.78768921 C -33.15107727 84.77255249 -28.04366112 65.49326324 -21.85095406 47.06728363 C -14.58706665 29.67804337 -6.21436167 13.42210770 3.32085156 -1.63594878 C 14.05767632 -15.38076210 25.93829346 -27.83168030 38.90334320 -39.03395844 C 52.90915298 -48.99056244 67.93530273 -57.74388504 83.85333252 -65.26454926 C 100.59794617 -71.64979553 118.12653351 -76.97991180 136.44895935 -81.29070282 C 155.50878906 -84.65258789 175.23860168 -87.05290222 195.54428101 -88.56727600 C 216.31410217 -89.27733612 237.44570923 -89.15832520 258.89813232 -88.32103729 C 280.57006836 -86.73108673 302.29635620 -84.43075562 323.93084717 -81.35823822 C 345.40585327 -77.50660706 366.53439331 -72.89379120 387.23419189 -67.52384186 C 407.32415771 -61.37089920 426.66705322 -54.36302948 445.14184570 -46.41382599 C 462.53765869 -37.43013763 478.71133423 -27.37228203 493.50070190 -16.16713905 C 506.79095459 -3.73316836 518.50549316 9.95366669 528.67474365 24.88890839 C 537.37286377 40.95895386 544.71697998 58.05171585 550.88385010 76.04717255 C 556.01501465 94.84654999 560.24645996 114.27387238 563.78771973 134.18592834 C 566.75292969 154.50332642 569.20098877 175.14631653 571.28741455 196.08691406 C 573.06585693 217.25057983 574.65344238 238.52545166 576.16088867 259.86047363 C 577.62725830 281.21563721 579.06677246 302.59396362 534.26812744 327.67388916" stroke-width="2.00000000" fill="rgb(1, 39, 96)" opacity="1.0" stroke="rgb(0, 48, 105)" stroke-opacity="1.0" stroke-linecap="round" stroke-linejoin="round"/>
    <path d="M 47.14024353 44.43934631 C 47.12670898 44.45775986 47.13705063 44.45721436 47.14142990 44.43638229 C 47.13243103 44.45042419 47.13411713 44.46127319 47.14875031 44.43952942 C 47.12847519 44.45037842 47.13800812 44.45774460 47.15291595 44.44372559 C 47.12731552 44.44993591 47.14680481 44.44967651 47.14314270 44.44850540 C 47.13693619 44.44998932 47.14772415 44.44586945 47.13684464 44.44986343 C 47.13844299 44.44554901 47.15224075 44.45079041 47.14036942 44.44560623 C 47.13488388 44.44763947 47.15568161 44.44821167 47.13891983 44.44699860 C 47.14074326 44.44253540 47.14701462 44.44676971 47.14568710 44.45283508 C 47.13924408 44.44863510 47.15057755 44.43530655 47.14331055 44.45211792 C 47.14424896 44.44611359 47.14696884 44.44384384 47.14024353 44.43934631" stroke-width="0.00000000" fill="rgb(255, 240, 255)" opacity="1.0" stroke="rgb(255, 122, 234)" stroke-opacity="1.0" stroke-linecap="round" stroke-linejoin="round"/>
    <path d="M 147.05958557 29.49132347 C 147.06086731 29.49508858 147.05319214 29.48793030 147.06581116 29.49517250 C 147.05798340 29.49459648 147.04962158 29.48582840 147.06204224 29.49867821 C 147.05853271 29.49064445 147.05598450 29.49298477 147.04904175 29.48752594 C 147.06602478 29.49507904 147.04888916 29.49467659 147.06112671 29.48219490 C 147.04963684 29.48873901 147.05470276 29.49909401 147.05958557 29.48846626 C 147.04679871 29.48481560 147.05854797 29.49327087 147.05758667 29.48596573 C 147.04547119 29.48634529 147.05865479 29.49707985 147.05625916 29.48350143 C 147.04603577 29.49110222 147.05720520 29.48708725 147.05676270 29.48225975 C 147.04367065 29.49370193 147.06227112 29.47899437 147.05223083 29.49068832 C 147.04977417 29.48556328 147.05578613 29.48613739 147.05958557 29.49132347" stroke-width="0.00000000" fill="rgb(0, 255, 154)" opacity="1.0" stroke="rgb(0, 0, 133)" stroke-opacity="1.0" stroke-linecap="round" stroke-linejoin="round"/>
    <path d="M 240.57427979 65.11328888 C 240.56736755 65.12686920 240.55966187 65.11537170 240.57431030 65.12495422 C 240.57398987 65.11795044 240.56347656 65.12757874 240.56878662 65.12117004 C 240.57101440 65.12047577 240.56689453 65.12542725 240.57455444 65.11831665 C 240.56018066 65.12099457 240.58323669 65.12451935 240.56695557 65.11833191 C 240.55876160 65.12664032 240.58151245 65.12319183 240.57214355 65.10997009 C 240.56413269 65.12526703 240.57061768 65.12613678 240.57147217 65.10903931 C 240.56822205 65.11227417 240.57337952 65.12514496 240.57283020 65.11564636 C 240.56977844 65.11266327 240.57107544 65.11914825 240.57481384 65.10806274 C 240.57009888 65.12068176 240.57414246 65.10427094 240.57344055 65.11495972 C 240.57365417 65.11424255 240.57351685 65.10601044 240.57427979 65.11328888" stroke-width="0.00000000" fill="rgb(0, 0, 0)" opacity="1.0" stroke="rgb(73, 137, 57)" stroke-opacity="1.0" stroke-linecap="round" stroke-linejoin="round"/>
    <path d="M 359.58108521 47.67390442 C 359.51971436 47.66374207 359.45544434 47.64274597 359.39270020 47.62466431 C 359.30615234 47.60158157 359.24972534 47.58715820 359.19314575 47.54800415 C 359.10971069 47.53842926 359.03402710 47.48975372 358.97113037 47.44474792 C 358.88208008 47.39324951 358.80227661 47.32255554 358.76599121 47.23978043 C 358.72940063 47.14990616 358.72326660 47.04524612 358.73074341 46.90196991 C 358.78170776 46.78205872 358.85409546 46.61397934 358.94177246 46.44428253 C 359.03991699 46.24486542 359.15777588 46.04254532 359.28744507 45.82164383 C 359.39968872 45.59041595 359.51922607 45.32794189 359.65878296 45.09374619 C 359.77606201 44.82057190 359.92465210 44.55691528 360.08941650 44.29164886 C 360.21078491 44.03089142 360.37908936 43.75185394 359.58108521 47.67390442" stroke-width="0.25804624" fill="rgb(0, 0, 0)" opacity="1.0" stroke="rgb(0, 0, 62)" stroke-opacity="0.39761186" stroke-linecap="round" stroke-linejoin="round"/>
    <path d="M 461.58572388 69.40182495 C 461.56939697 69.42090607 461.57199097 69.42374420 461.56829834 69.45211029 C 461.55831909 69.45288086 461.56588745 69.47514343 461.55477905 69.48020935 C 461.53598022 69.48068237 461.54187012 69.48394775 461.52761841 69.48820496 C 461.51217651 69.49107361 461.51043701 69.49035645 461.50601196 69.51435089 C 461.49160767 69.49692535 461.48278809 69.50713348 461.48291016 69.51545715 C 461.46221924 69.50708771 461.47659302 69.51307678 461.46752930 69.52096558 C 461.45001221 69.51271057 461.46850586 69.51652527 461.46536255 69.52776337 C 461.44274902 69.51090240 461.45971680 69.52366638 461.45791626 69.50964355 C 461.44598389 69.51309967 461.45202637 69.49495697 461.44439697 69.48905182 C 461.45108032 69.49716187 461.45382690 69.47573853 461.58572388 69.40182495" stroke-width="0.91923118" fill="rgb(44, 8, 77)" opacity="1.0" stroke="rgb(9, 0, 59)" stroke-opacity="0.3715585" stroke-linecap="round" stroke-linejoin="round"/>
    <path d="M 95.05615997 76.93193054 C 95.07122040 76.92734528 95.06256866 76.92712402 95.05905914 76.92464447 C 95.07246399 76.92597198 95.06590271 76.91882324 95.07045746 76.91936493 C 95.06360626 76.92152405 95.07633209 76.91726685 95.07275391 76.90885162 C 95.06998444 76.92027283 95.06930542 76.91482544 95.08007050 76.90583038 C 95.07123566 76.91865540 95.08090210 76.90835571 95.07493591 76.91225433 C 95.08071136 76.90915680 95.08007050 76.91397095 95.08578491 76.90814209 C 95.08210754 76.91862488 95.08615112 76.90481567 95.09128571 76.92176819 C 95.08231354 76.90692902 95.09708405 76.91801453 95.09793854 76.91503143 C 95.08619690 76.91851807 95.10063934 76.91680145 95.10256195 76.92059326 C 95.09591675 76.92066956 95.10527802 76.92377472 95.05615997 76.93193054" stroke-width="0.00000000" fill="rgb(0, 0, 0)" opacity="1.0" stroke="rgb(0, 97, 0)" stroke-opacity="1.0" stroke-linecap="round" stroke-linejoin="round"/>
    <path d="M 197.13038635 138.02458191 C 197.12379456 138.04185486 197.13735962 138.02528381 197.13560486 138.03338623 C 197.13858032 138.03433228 197.14726257 138.03601074 197.14280701 138.03059387 C 197.15254211 138.03175354 197.14756775 138.04209900 197.15791321 138.03437805 C 197.15826416 138.03073120 197.15661621 138.04348755 197.17398071 138.03755188 C 197.16162109 138.03662109 197.17071533 138.04435730 197.16815186 138.04519653 C 197.18319702 138.04397583 197.18260193 138.05317688 197.17410278 138.04811096 C 197.19442749 138.05581665 197.19258118 138.06440735 197.18994141 138.06559753 C 197.20533752 138.06588745 197.20677185 138.08142090 197.21040344 138.07832336 C 197.21900940 138.08256531 197.22285461 138.09890747 197.22441101 138.10000610 C 197.23396301 138.08927917 197.23886108 138.12416077 197.13038635 138.02458191" stroke-width="0.00000000" fill="rgb(0, 0, 37)" opacity="1.0" stroke="rgb(0, 125, 119)" stroke-opacity="0.6264002" stroke-linecap="round" stroke-linejoin="round"/>
    <path d="M 307.93209839 85.81180573 C 307.88983154 85.82211304 307.87316895 85.84300995 307.81054688 85.85562134 C 307.77243042 85.85829163 307.75216675 85.88087463 307.70486450 85.89282227 C 307.66616821 85.89248657 307.65048218 85.91852570 307.61486816 85.91207123 C 307.58474731 85.93257904 307.57354736 85.93440247 307.54861450 85.93413544 C 307.54067993 85.94715118 307.54083252 85.94656372 307.52719116 85.93395996 C 307.52853394 85.94374847 307.55685425 85.93846893 307.54901123 85.92347717 C 307.56661987 85.92571259 307.60159302 85.91696930 307.61706543 85.89627075 C 307.64129639 85.89452362 307.68469238 85.88647461 307.70059204 85.85936737 C 307.73675537 85.85581207 307.78448486 85.84302521 307.80621338 85.82092285 C 307.84255981 85.81642914 307.88543701 85.79334259 307.93209839 85.81180573" stroke-width="0.00000000" fill="rgb(0, 0, 51)" opacity="1.0" stroke="rgb(0, 0, 202)" stroke-opacity="0.5091968" stroke-linecap="round" stroke-linejoin="round"/>
    <path d="M 398.30441284 117.27082062 C 398.85290527 117.78457642 399.31698608 118.09616089 399.61959839 118.31784821 C 399.80255127 118.64682007 399.78002930 119.09804535 399.72665405 119.43491364 C 399.64828491 119.59128571 399.62054443 119.55952454 399.66040039 119.45110321 C 399.75238037 119.36261749 399.90466309 119.44614410 400.07907104 119.58513641 C 400.27825928 119.79594421 400.46377563 119.80543518 400.42364502 119.67037964 C 400.22988892 119.55445099 400.14239502 119.66430664 400.25146484 119.81871033 C 400.42739868 119.82366943 400.59942627 119.69541168 400.73400879 119.63559723 C 400.87191772 119.64575958 401.14920044 119.58321381 401.51263428 119.57036591 C 401.91500854 119.66528320 402.36557007 119.69344330 402.75021362 119.78421783 C 403.14697266 119.97469330 403.55703735 120.27833557 398.30441284 117.27082062" stroke-width="1.86711586" fill="rgb(86, 151, 147)" opacity="1.0" stroke="rgb(18, 3, 23)" stroke-opacity="0.4347376" stroke-linecap="round" stroke-linejoin="round"/>
    <path d="M 65.68115997 202.98188782 C 65.66530609 202.96032715 65.67591858 202.97631836 65.67551422 202.97024536 C 65.67089844 202.97354126 65.66807556 202.96995544 65.67903137 202.97457886 C 65.66575623 202.97854614 65.67587280 202.96124268 65.66928864 202.98588562 C 65.66905212 202.97340393 65.67216492 202.97099304 65.67221069 202.97656250 C 65.66835785 202.97987366 65.67079926 202.97364807 65.67541504 202.97250366 C 65.66304779 202.98526001 65.67561340 202.96705627 65.66814423 202.98561096 C 65.67095184 202.97126770 65.66709137 202.97642517 65.67639923 202.97601318 C 65.66371155 202.97843933 65.67372894 202.97015381 65.67151642 202.98464966 C 65.66366577 202.96281433 65.67362213 202.97921753 65.67115784 202.98233032 C 65.66218567 202.96226501 65.67745209 202.98463440 65.68115997 202.98188782" stroke-width="0.00000000" fill="rgb(0, 0, 0)" opacity="1.0" stroke="rgb(0, 102, 94)" stroke-opacity="1.0" stroke-linecap="round" stroke-linejoin="round"/>
    <path d="M 176.91763306 68.93097687 C 176.90182495 68.93952179 176.91343689 68.92472839 176.89747620 68.92821503 C 176.90112305 68.92602539 176.89192200 68.91405487 176.89521790 68.93111420 C 176.89385986 68.91407776 176.88237000 68.91207123 176.89637756 68.92402649 C 176.88887024 68.91342926 176.89051819 68.91767120 176.89340210 68.91994476 C 176.90837097 68.91974640 176.88748169 68.92742157 176.91418457 68.92452240 C 176.92431641 68.93917084 176.90402222 68.93943024 176.94532776 68.95015717 C 176.93537903 68.95289612 176.95179749 68.96564484 176.96258545 68.97699738 C 176.97360229 68.98315430 176.98490906 68.99394226 177.00709534 69.00764465 C 177.00523376 69.01696014 177.03311157 69.02670288 177.03372192 69.03820801 C 177.05690002 69.05563354 177.06152344 69.05673981 176.91763306 68.93097687" stroke-width="0.00000000" fill="rgb(0, 0, 0)" opacity="1.0" stroke="rgb(9, 18, 173)" stroke-opacity="0.27955046" stroke-linecap="round" stroke-linejoin="round"/>
    <path d="M 329.76254272 176.81512451 C 329.87445068 176.69137573 329.90057373 176.53402710 329.95785522 176.36219788 C 329.94668579 176.19293213 329.85427856 176.02879333 329.74105835 175.92251587 C 329.63265991 175.81761169 329.56594849 175.76437378 329.54724121 175.73117065 C 329.69754028 175.68220520 329.90264893 175.61318970 330.07302856 175.57516479 C 330.19851685 175.64294434 330.27352905 175.74459839 330.25317383 175.78572083 C 330.23645020 175.71974182 330.22445679 175.61605835 330.25411987 175.46760559 C 330.19796753 175.35447693 330.01995850 175.28399658 329.83035278 175.22685242 C 329.76721191 175.19174194 329.73107910 175.22761536 329.61749268 175.34368896 C 329.60104370 175.50111389 329.64114380 175.61795044 329.76907349 175.82527161 C 329.93624878 176.07385254 330.15884399 176.28138733 329.76254272 176.81512451" stroke-width="0.64786929" fill="rgb(129, 192, 243)" opacity="1.0" stroke="rgb(111, 176, 189)" stroke-opacity="0.61041206" stroke-linecap="round" stroke-linejoin="round"/>
    <path d="M 431.23303223 230.83670044 C 431.22760010 230.82127380 431.26589966 230.80015564 431.28063965 230.78189087 C 431.28750610 230.76264954 431.29638672 230.74159241 431.31958008 230.72607422 C 431.31198120 230.69509888 431.31234741 230.68368530 431.30770874 230.65177917 C 431.29953003 230.63511658 431.28628540 230.62493896 431.28509521 230.59820557 C 431.27700806 230.60877991 431.26620483 230.58934021 431.27368164 230.60768127 C 431.27883911 230.59754944 431.28152466 230.62162781 431.29962158 230.63557434 C 431.32113647 230.62672424 431.33581543 230.64634705 431.36361694 230.63957214 C 431.38769531 230.63229370 431.39633179 230.63386536 431.42227173 230.60089111 C 431.42190552 230.58714294 431.43630981 230.58839417 431.43624878 230.55419922 C 431.45498657 230.53964233 431.43826294 230.52874756 431.23303223 230.83670044" stroke-width="1.98805916" fill="rgb(0, 0, 219)" opacity="1.0" stroke="rgb(0, 39, 98)" stroke-opacity="0.8239918" stroke-linecap="round" stroke-linejoin="round"/>
    <path d="M 510.53305054 514.94842529 C 493.80178833 515.50610352 477.08517456 516.06317139 460.31661987 516.65344238 C 443.52160645 517.29034424 426.69866943 517.96014404 409.78704834 518.73693848 C 392.73965454 519.58630371 375.54772949 520.60699463 358.23358154 521.76782227 C 340.70327759 523.06109619 322.97500610 524.50451660 304.99392700 526.09844971 C 286.79318237 527.84375000 268.37728882 529.70318604 249.76095581 531.59466553 C 230.96337891 533.50976562 212.01493835 535.35937500 192.96229553 537.04779053 C 173.87817383 538.52374268 154.80921936 539.71118164 135.88731384 540.47882080 C 117.18518066 540.66363525 98.79454041 540.15490723 80.88905334 538.82208252 C 63.63637543 536.53649902 47.17751694 533.13690186 31.63790703 528.47509766 C 17.17014885 522.41540527 3.98824239 514.79479980 -7.67502880 505.50708008 C -17.76393700 494.65631104 -26.35288239 482.55575562 -33.47216034 469.47506714 C -39.15125275 455.60971069 -43.32436752 441.18301392 -45.98023224 426.49914551 C -47.18086624 411.98034668 -46.87473297 397.94845581 -44.98902893 384.66735840 C -41.47078323 372.35668945 -36.23962021 361.22979736 -29.19630623 351.72265625 C -20.29118538 344.22586060 -9.48857307 339.02194214 3.44776917 336.37326050 C 18.62996674 336.37927246 35.48843765 336.58502197 53.67496872 336.58834839 C 72.61341095 336.54919434 91.75553894 336.71139526 110.59496307 335.54116821 C 128.66279602 334.65631104 145.89329529 337.15466309 162.66769409 341.30871582 C 179.63804626 341.82968140 196.57167053 341.82354736 213.70223999 341.95410156 C 230.99574280 342.25329590 248.33650208 342.51089478 265.66720581 342.41314697 C 282.98254395 342.20788574 300.06146240 342.03723145 316.86791992 341.76934814 C 333.37863159 341.36117554 349.22308350 341.61022949 363.72137451 340.57595825 C 376.75704956 335.68579102 390.73348999 335.57519531 406.66000366 336.60046387 C 423.98794556 336.33795166 441.78622437 336.46771240 459.52554321 336.59390259 C 476.70172119 336.43740845 492.73138428 336.48513794 507.03726196 336.53240967 C 519.30474854 338.51312256 529.66979980 342.92944336 538.32336426 349.46347046 C 545.48394775 357.74768066 551.40600586 367.59838867 556.29168701 378.73443604 C 560.30419922 390.90866089 563.66467285 403.96395874 566.55981445 417.65399170 C 569.13928223 431.79034424 571.48211670 446.22573853 573.67364502 460.91430664 C 575.81378174 475.72787476 578.02026367 490.57507324 510.53305054 514.94842529" stroke-width="1.71129787" fill="rgb(45, 136, 59)" opacity="1.0" stroke="rgb(3, 37, 19)" stroke-opacity="0.6673667" stroke-linecap="round" stroke-linejoin="round"/>
    <path d="M 348.93676758 320.62136841 C 341.97174072 320.53399658 334.93536377 320.41375732 327.84027100 320.42233276 C 320.78817749 320.42858887 313.92645264 320.54635620 307.25192261 320.61630249 C 300.80453491 321.03439331 294.41580200 321.54913330 288.06469727 321.55838013 C 281.55447388 322.23226929 275.01208496 323.22937012 268.18588257 324.07879639 C 261.12197876 324.17764282 253.82307434 323.84231567 246.31100464 323.43579102 C 238.74719238 322.87155151 231.08154297 322.09329224 223.07542419 321.56475830 C 214.89149475 321.25134277 206.89033508 320.52127075 199.08972168 320.44113159 C 191.38406372 320.46325684 183.85559082 320.35021973 176.87428284 320.46466064 C 170.70646667 320.51690674 165.43363953 320.51461792 161.03340149 320.56188965 C 157.70426941 320.73321533 155.74862671 320.55694580 155.08432007 319.74749756 C 155.72863770 318.85067749 157.19392395 317.87854004 159.01947021 315.74938965 C 161.36079407 312.51397705 164.28536987 308.62063599 167.76936340 304.09933472 C 171.14886475 298.70233154 175.10099792 292.96603394 179.22016907 286.98590088 C 183.60038757 280.63088989 188.01811218 274.10107422 192.83271790 267.50085449 C 197.49015808 260.63665771 201.97471619 253.57649231 207.02584839 246.73849487 C 211.81512451 239.82594299 216.45346069 232.98603821 221.26054382 226.18650818 C 225.89404297 219.54867554 230.08558655 212.94044495 234.37014771 206.68473816 C 238.19869995 200.64045715 241.67448425 194.97674561 244.93553162 189.91471863 C 247.64042664 185.39099121 249.82542419 181.67979431 251.89799500 178.78018188 C 254.11608887 177.02305603 256.30917358 176.56587219 258.42361450 177.35107422 C 260.64938354 179.05767822 262.98199463 181.78434753 265.27413940 185.32069397 C 268.17944336 189.38233948 271.39599609 193.95408630 274.59725952 199.06607056 C 278.17153931 204.40771484 281.89294434 210.20260620 285.90124512 215.95237732 C 290.01089478 221.85914612 293.89471436 228.09040833 298.15417480 234.00091553 C 302.25280762 240.05212402 306.13122559 246.15058899 309.97158813 252.18243408 C 314.12213135 257.86444092 318.00524902 263.50744629 321.54229736 269.30761719 C 325.07095337 274.96475220 328.78588867 280.20892334 332.25393677 285.57342529 C 335.79147339 290.73611450 339.17788696 295.82913208 342.48794556 300.75729370 C 345.68984985 305.67684937 348.99960327 310.16854858 352.04321289 314.83840942 C 355.66690063 318.63809204 359.25802612 322.89144897 348.93676758 320.62136841" stroke-width="2.00000000" fill="rgb(10, 156, 22)" opacity="1.0" stroke="rgb(3, 1, 0)" stroke-opacity="1.0" stroke-linecap="round" stroke-linejoin="round"/>
    <path d="M 348.42153931 337.20043945 C 340.22637939 337.68307495 332.01373291 337.62860107 323.78097534 337.70941162 C 315.57836914 338.10647583 307.38647461 338.48724365 298.91149902 338.28262329 C 289.99887085 338.29519653 280.77294922 338.50936890 271.31872559 338.58267212 C 261.75796509 338.68481445 252.13746643 338.69134521 242.61308289 338.61212158 C 233.32106018 338.55981445 224.36947632 338.49621582 215.81869507 338.13504028 C 207.68470764 338.14923096 200.10272217 338.36489868 192.92811584 337.74118042 C 186.23474121 338.01602173 179.92492676 337.60299683 174.13337708 337.63031006 C 168.82859802 337.75802612 164.19570923 337.63351440 160.72311401 336.94018555 C 158.49324036 335.19729614 157.44071960 332.75637817 157.55874634 330.18518066 C 158.82344055 327.81048584 161.14628601 325.82629395 164.49958801 324.54083252 C 168.98541260 324.40405273 174.39701843 324.68173218 180.57974243 324.45755005 C 187.44027710 324.76055908 194.68013000 324.62554932 202.20913696 324.62619019 C 209.67790222 325.27963257 217.08869934 325.75781250 224.73341370 325.84774780 C 232.73899841 326.84863281 241.26593018 327.01980591 249.65000916 327.63592529 C 257.92697144 328.18325806 266.05496216 328.14459229 274.01785278 327.55679321 C 281.85989380 326.32736206 289.57006836 325.96881104 297.32714844 325.46664429 C 305.03820801 325.41625977 312.49911499 324.66354370 319.77468872 324.72305298 C 326.84408569 324.50173950 333.16461182 324.69400024 338.48376465 324.55230713 C 342.80783081 324.62011719 346.16360474 324.65362549 347.93664551 324.20330811 C 347.92465210 324.62487793 347.02539062 324.80523682 348.42153931 337.20043945" stroke-width="2.00000000" fill="rgb(243, 162, 83)" opacity="1.0" stroke="rgb(8, 1, 0)" stroke-opacity="0.9946352" stroke-linecap="round" stroke-linejoin="round"/>
    <path d="M 278.61380005 322.84277344 C 274.18054199 323.16461182 269.86914062 323.71163940 265.78164673 324.58889771 C 261.97433472 325.37496948 258.47052002 325.95730591 255.08616638 326.24114990 C 251.73574829 326.26571655 248.48464966 326.11947632 245.41909790 325.99758911 C 242.72119141 326.04397583 240.50389099 326.21191406 238.75181580 326.45684814 C 237.45947266 326.44915771 236.68153381 326.11065674 236.64385986 325.39410400 C 237.39625549 324.31643677 238.54109192 322.74081421 239.58798218 320.61767578 C 240.51510620 317.71105957 241.63217163 314.19802856 242.82312012 309.92355347 C 244.08171082 304.94796753 245.39472961 299.41418457 246.75418091 293.33395386 C 248.14968872 286.48333740 249.39892578 279.01016235 250.25718689 270.97204590 C 251.36912537 262.44390869 252.03407288 253.46109009 252.31962585 244.23008728 C 252.48017883 234.95945740 252.67144775 225.75387573 252.68934631 216.78036499 C 252.68470764 208.24601746 252.69412231 200.36134338 253.11450195 193.34083557 C 253.34646606 187.60035706 253.23390198 183.17056274 253.58749390 180.19537354 C 254.82760620 179.00660706 256.02664185 179.75582886 256.77194214 182.44935608 C 256.94055176 187.01890564 256.89739990 193.31541443 256.94714355 201.00419617 C 257.20977783 209.61781311 257.34417725 218.85713196 257.28939819 228.54266357 C 257.25653076 238.38757324 257.94277954 248.12573242 259.27044678 257.69915771 C 260.78436279 267.03726196 262.61203003 275.97055054 264.12213135 284.59289551 C 265.43185425 292.87979126 266.70129395 300.96939087 268.20578003 308.89181519 C 269.76367188 316.47045898 271.38195801 323.83648682 278.61380005 322.84277344" stroke-width="1.02872396" fill="rgb(3, 5, 1)" opacity="1.0" stroke="rgb(25, 25, 19)" stroke-opacity="0.5086751" stroke-linecap="round" stroke-linejoin="round"/>
    <path d="M 271.39947510 336.65173340 C 267.63684082 337.06033325 264.00927734 337.43777466 260.52590942 337.93518066 C 257.22476196 338.36642456 254.11236572 338.39956665 251.25044250 338.33020020 C 248.70263672 338.23086548 246.57978821 338.65023804 244.94535828 338.95318604 C 243.48840332 338.21646118 242.03067017 336.81027222 241.04634094 334.99063110 C 240.49986267 332.75283813 240.38775635 330.02783203 241.20080566 326.75946045 C 242.83526611 322.72540283 244.44769287 317.71615601 246.30946350 312.12945557 C 247.77900696 305.63037109 249.81301880 298.62612915 250.92173767 291.14590454 C 252.40068054 283.49984741 253.70175171 275.62707520 254.65040588 267.69921875 C 255.17684937 260.22692871 255.23849487 252.83026123 255.41229248 245.65495300 C 255.60377502 238.92518616 255.55482483 232.59646606 255.59208679 226.67308044 C 255.51588440 221.16369629 255.52555847 216.21318054 255.49784851 211.97372437 C 255.51493835 208.46401978 255.46440125 205.45851135 255.54200745 202.98884583 C 255.56449890 201.15699768 255.50083923 200.25611877 255.52162170 200.03668213 C 255.49984741 200.46813965 255.49816895 201.39025879 255.54170227 202.98612976 C 255.59829712 205.34870911 255.52976990 208.34669495 255.56663513 211.82424927 C 255.53793335 215.92225647 255.53866577 220.64437866 255.46963501 225.93228149 C 255.58470154 231.68592834 255.49826050 237.78402710 255.38534546 244.38133240 C 255.29943848 251.39263916 254.97433472 258.66271973 255.48040771 266.27627563 C 256.37109375 274.49072266 257.35568237 283.09310913 259.10345459 292.01721191 C 260.89346313 301.34558105 261.61840820 311.12939453 271.39947510 336.65173340" stroke-width="0.83534908" fill="rgb(241, 162, 85)" opacity="1.0" stroke="rgb(255, 122, 148)" stroke-opacity="0.07448792" stroke-linecap="round" stroke-linejoin="round"/>
    <path d="M 258.69085693 253.71336365 C 258.96804810 252.77818298 258.75259399 251.65806580 258.47659302 250.38577271 C 258.40234375 249.11248779 258.26870728 248.02565002 258.28057861 247.19009399 C 258.58126831 246.50212097 259.01123047 246.06695557 259.36383057 246.18266296 C 259.55429077 246.76820374 259.85342407 247.76020813 260.25598145 249.27058411 C 260.74151611 250.99436951 261.30014038 253.12541199 261.97592163 255.45896912 C 262.57833862 258.06381226 263.27990723 260.94409180 264.14648438 264.09463501 C 264.89660645 267.50283813 265.60101318 270.99978638 266.47372437 274.65701294 C 267.51422119 278.54306030 268.39016724 282.54409790 269.23788452 286.51950073 C 269.84063721 290.58129883 270.67947388 294.58743286 271.46011353 298.58322144 C 272.32681274 302.34527588 273.06607056 305.93762207 273.50082397 309.34039307 C 274.19009399 312.46725464 274.87753296 315.13607788 275.49554443 317.30093384 C 275.93328857 319.13281250 276.33001709 320.44525146 276.59072876 321.28619385 C 276.31219482 321.74798584 275.47271729 321.89340210 274.31069946 322.10806274 C 273.13394165 322.54302979 272.03408813 322.41708374 271.16387939 322.06088257 C 270.86929321 320.97753906 270.50189209 319.30249023 269.76452637 317.46371460 C 269.12704468 315.03625488 268.41232300 312.28662109 267.80026245 309.52304077 C 266.85906982 306.80514526 266.21002197 303.85998535 265.77563477 300.73553467 C 265.01928711 297.47857666 264.27578735 294.05422974 263.85140991 290.59335327 C 263.23089600 287.28451538 262.38873291 283.90213013 262.10974121 280.41983032 C 261.56365967 277.12341309 260.82733154 273.66323853 258.69085693 253.71336365" stroke-width="0.61195922" fill="rgb(145, 208, 91)" opacity="1.0" stroke="rgb(131, 199, 82)" stroke-opacity="0.5311732" stroke-linecap="round" stroke-linejoin="round"/>
    <path d="M 132.42442322 356.56204224 C 130.53259277 356.58776855 129.09300232 356.66149902 128.48442078 356.51083374 C 128.45266724 355.90420532 129.10871887 355.24230957 130.21429443 353.81491089 C 130.92817688 351.94860840 132.66027832 349.99023438 134.37362671 347.38870239 C 136.54824829 344.51666260 139.05230713 341.67056274 141.30862427 338.58486938 C 143.59892273 335.44430542 145.97322083 332.49877930 148.04005432 329.71206665 C 149.69583130 327.04071045 151.46565247 325.09960938 153.05999756 323.64065552 C 154.80676270 322.81668091 156.03710938 323.00964355 156.51766968 324.09957886 C 155.56129456 325.23168945 154.00527954 326.97534180 152.56771851 329.57696533 C 151.02497864 332.51052856 148.41390991 335.17761230 146.03479004 338.34921265 C 143.79797363 341.67330933 141.16284180 344.77563477 132.42442322 356.56204224" stroke-width="2.00000000" fill="rgb(223, 228, 227)" opacity="1.0" stroke="rgb(0, 0, 1)" stroke-opacity="1.0" stroke-linecap="round" stroke-linejoin="round"/>
    <path d="M 360.75738525 326.96377563 C 363.49035645 328.47763062 364.57641602 331.51171875 366.73403931 334.21478271 C 368.91006470 337.10577393 371.04360962 340.16397095 373.53939819 342.82672119 C 375.95916748 345.68359375 377.80764771 348.79489136 379.75341797 351.33505249 C 381.66043091 353.35473633 382.84115601 355.16891479 383.79928589 355.95504761 C 383.64630127 356.40567017 382.37527466 356.67391968 380.53186035 356.64236450 C 378.76672363 355.20892334 376.80908203 353.06378174 374.93029785 350.31240845 C 372.32614136 347.78387451 370.14282227 344.52349854 367.72003174 341.20614624 C 365.48837280 337.72448730 362.87811279 334.78778076 360.12173462 332.18377686 C 358.10250854 329.18524170 356.28646851 326.71902466 355.45233154 324.94281006 C 357.00512695 323.29733276 359.14749146 321.31103516 360.75738525 326.96377563" stroke-width="2.00000000" fill="rgb(228, 230, 228)" opacity="1.0" stroke="rgb(0, 0, 0)" stroke-opacity="1.0" stroke-linecap="round" stroke-linejoin="round"/>
    <path d="M 131.73242188 334.73455811 C 130.16516113 334.50942993 128.60905457 334.35784912 127.00488281 334.37866211 C 125.35346222 334.50784302 123.70660400 334.49499512 122.16213226 334.38903809 C 120.69918823 334.35836792 119.28221130 334.31698608 117.88594055 334.09738159 C 116.60140991 333.67941284 115.48390961 333.21755981 114.48432922 332.97521973 C 113.54360962 332.96847534 112.74742126 332.88589478 112.33378601 332.54534912 C 112.36901093 331.93652344 112.66145325 331.16793823 113.24684143 330.42706299 C 114.12104034 329.73956299 115.25753021 329.13488770 116.66336823 328.69384766 C 118.29240417 328.53616333 119.98019409 328.56442261 121.58695984 328.23031616 C 122.91632843 327.14993286 124.01601410 325.46627808 125.21035767 323.40719604 C 126.33663177 320.94058228 127.52469635 318.51818848 131.73242188 334.73455811" stroke-width="2.00000000" fill="rgb(3, 43, 59)" opacity="1.0" stroke="rgb(6, 93, 71)" stroke-opacity="0.4946942" stroke-linecap="round" stroke-linejoin="round"/>
    <path d="M 311.83016968 452.35885620 C 309.56954956 452.50424194 307.23504639 451.87258911 304.81594849 452.37307739 C 302.06393433 452.62774658 299.02200317 452.35699463 295.90786743 452.20803833 C 293.13363647 452.35940552 290.95254517 452.47055054 289.56237793 452.42428589 C 289.13946533 452.53921509 289.49014282 451.93872070 290.18771362 451.16500854 C 290.93786621 449.75567627 292.11785889 448.48175049 293.78811646 447.65548706 C 294.74578857 445.66717529 296.45193481 444.21923828 298.21279907 442.69967651 C 300.03115845 441.38400269 301.55569458 440.41162109 303.05676270 440.66195679 C 304.49841309 441.40606689 306.03491211 442.34201050 307.41323853 443.52798462 C 309.13421631 444.70669556 311.02432251 446.01507568 312.64541626 447.90811157 C 314.22131348 450.14593506 316.02297974 451.00500488 311.83016968 452.35885620" stroke-width="2.00000000" fill="rgb(232, 217, 132)" opacity="1.0" stroke="rgb(0, 0, 0)" stroke-opacity="1.0" stroke-linecap="round" stroke-linejoin="round"/>
    <path d="M 405.64398193 472.63284302 C 403.47796631 472.69754028 401.47659302 472.55447388 399.42666626 472.80001831 C 396.88223267 472.60733032 394.53561401 472.51486206 392.61621094 472.86111450 C 391.24554443 472.52212524 390.60226440 472.92514038 389.90914917 473.26785278 C 389.23989868 473.07241821 388.92654419 473.22164917 388.52304077 473.07769775 C 388.94738770 472.84976196 389.53610229 472.02435303 390.22976685 470.92437744 C 391.19311523 469.86026001 392.46481323 469.07629395 393.35003662 468.00329590 C 394.44262695 467.06594849 395.23999023 466.15206909 395.92605591 465.72201538 C 396.59970093 465.99575806 397.36785889 466.70996094 398.57720947 467.27593994 C 399.54421997 468.26123047 400.37503052 469.26330566 401.61242676 469.56311035 C 402.39895630 470.71792603 403.08474731 472.31918335 405.64398193 472.63284302" stroke-width="2.00000000" fill="rgb(227, 225, 123)" opacity="1.0" stroke="rgb(2, 0, 1)" stroke-opacity="1.0" stroke-linecap="round" stroke-linejoin="round"/>
    <path d="M 103.14366150 437.25894165 C 105.18519592 437.57888794 106.62585449 439.10592651 108.35264587 440.52288818 C 109.44106293 441.68850708 109.86535645 443.10476685 110.47440338 444.07150269 C 109.86138916 444.53762817 108.95095062 445.36145020 107.79946899 445.55227661 C 105.90368652 445.25033569 103.56969452 445.61465454 101.20134735 445.33172607 C 98.68910217 445.45773315 96.31257629 445.45059204 94.15118408 445.58029175 C 92.30759430 445.46798706 90.68533325 445.53967285 89.59618378 445.86932373 C 88.69574738 445.95800781 88.25440979 445.74310303 88.35793304 444.95773315 C 88.94483948 443.78308105 89.90050507 442.58798218 91.43758392 441.79415894 C 92.59848022 440.26019287 94.17060089 438.70675659 95.80423737 436.99114990 C 97.78436279 435.45712280 99.52056122 433.78039551 103.14366150 437.25894165" stroke-width="2.00000000" fill="rgb(229, 219, 125)" opacity="1.0" stroke="rgb(0, 0, 0)" stroke-opacity="1.0" stroke-linecap="round" stroke-linejoin="round"/>
    <path d="M 202.40724182 458.83840942 C 202.36408997 457.79736328 202.61959839 457.37896729 203.44125366 457.60757446 C 204.61277771 457.15774536 205.50729370 457.41522217 206.27215576 458.20159912 C 207.39825439 458.85415649 208.47389221 459.80126953 209.34051514 461.22628784 C 210.95686340 462.26895142 211.98608398 463.47235107 212.26000977 464.66183472 C 211.89408875 464.89178467 211.78607178 464.17926025 211.51995850 463.36947632 C 210.16920471 463.45291138 208.41021729 463.57476807 206.53343201 463.49554443 C 204.58250427 463.58868408 202.73388672 463.62707520 200.90031433 463.46231079 C 199.25863647 463.53768921 198.55265808 463.86117554 198.29246521 463.82723999 C 198.57901001 463.03735352 198.83253479 462.55426025 198.58573914 461.81304932 C 198.61585999 461.70056152 198.76815796 462.25549316 202.40724182 458.83840942" stroke-width="2.00000000" fill="rgb(239, 234, 144)" opacity="1.0" stroke="rgb(0, 0, 0)" stroke-opacity="1.0" stroke-linecap="round" stroke-linejoin="round"/>
    <path d="M 452.97879028 298.84283447 C 450.14517212 302.78637695 447.46646118 306.85458374 445.00900269 310.83825684 C 442.63842773 314.76016235 440.60250854 318.52722168 438.76501465 322.15280151 C 437.16860962 325.43551636 435.87423706 328.47247314 434.62518311 331.01739502 C 433.73712158 333.12017822 433.01226807 334.68246460 432.47073364 335.46633911 C 432.28219604 335.46865845 432.26254272 334.78207397 432.30615234 333.49655151 C 432.70654297 331.68231201 433.59780884 329.43853760 434.78140259 326.92913818 C 436.28512573 324.08596802 437.68847656 320.86865234 439.53070068 317.40145874 C 441.55395508 313.66339111 443.81250000 309.79315186 446.27862549 306.02429199 C 448.72399902 302.18606567 451.56842041 298.57211304 455.04959106 295.37936401 C 458.68896484 292.14144897 462.36001587 288.89660645 452.97879028 298.84283447" stroke-width="0.73374355" fill="rgb(57, 177, 206)" opacity="1.0" stroke="rgb(17, 108, 147)" stroke-opacity="1.0" stroke-linecap="round" stroke-linejoin="round"/>
    <path d="M 476.07589722 298.05105591 C 472.32876587 301.43798828 468.95648193 305.12069702 465.84906006 308.92779541 C 463.01782227 312.78619385 460.30834961 316.43118286 457.94430542 320.03088379 C 455.76980591 323.39846802 454.07785034 326.60153198 452.75323486 329.45523071 C 451.30426025 331.83901978 450.29705811 333.78082275 449.61593628 335.04522705 C 449.11764526 335.71185303 449.09777832 335.65908813 449.14758301 334.66195679 C 449.51562500 333.11575317 450.23199463 330.99893188 451.35061646 328.70413208 C 452.55117798 326.04345703 454.17645264 323.15493774 456.11987305 320.17419434 C 457.83087158 316.89047241 460.02581787 313.64639282 462.65597534 310.65661621 C 465.05505371 307.34774780 467.67425537 304.15429688 470.67733765 301.20666504 C 473.96704102 298.37509155 477.20770264 295.42163086 476.07589722 298.05105591" stroke-width="0.67894375" fill="rgb(66, 190, 218)" opacity="1.0" stroke="rgb(17, 107, 148)" stroke-opacity="0.9684527" stroke-linecap="round" stroke-linejoin="round"/>
    <path d="M 28.55238342 335.01156616 C 28.74680901 333.55233765 29.12654114 332.13140869 29.83876419 330.71179199 C 30.71133232 329.24639893 31.63744926 327.73757935 32.65858459 326.04501343 C 33.82719803 324.30303955 35.23832703 322.49499512 36.55433273 320.48663330 C 38.01858521 318.44564819 39.68442535 316.40731812 41.26909637 314.18771362 C 42.85639954 311.90979004 44.58815002 309.72732544 46.27043915 307.49835205 C 48.04784393 305.49249268 49.60398483 303.50271606 51.08656693 301.85580444 C 52.44908142 300.58682251 53.67795181 299.77304077 54.58705521 299.25140381 C 54.89986801 299.20864868 54.67377472 299.47848511 54.09069061 300.15649414 C 53.08469009 301.01715088 52.14635849 302.36053467 50.89464951 303.70858765 C 49.35697937 305.07446289 47.89533234 306.53042603 28.55238342 335.01156616" stroke-width="0.65108502" fill="rgb(66, 168, 208)" opacity="1.0" stroke="rgb(26, 128, 170)" stroke-opacity="0.6182248" stroke-linecap="round" stroke-linejoin="round"/>
    <path d="M 49.93899536 335.22732544 C 50.12790298 333.52655029 50.64215469 331.97961426 51.41052628 330.45886230 C 52.43451309 328.78417969 53.23416138 327.01300049 54.07490540 325.13388062 C 55.24602127 323.25115967 56.58330917 321.42968750 57.94215775 319.35140991 C 59.05789566 317.08804321 60.64657593 315.14340210 62.43351746 313.13195801 C 63.98241043 310.72775269 65.78737640 308.56558228 67.63014984 306.43890381 C 69.43696594 304.54107666 71.16580200 302.96023560 72.69834137 301.68984985 C 74.03791046 300.66784668 75.03457642 300.29949951 75.47237396 300.31674194 C 75.38638306 300.61575317 74.84949493 301.35412598 73.63285065 302.39953613 C 72.10290527 303.60134888 70.50827789 305.40332031 68.73360443 307.62045288 C 66.66703033 309.97549438 63.59651566 311.81903076 49.93899536 335.22732544" stroke-width="0.64725369" fill="rgb(62, 175, 207)" opacity="1.0" stroke="rgb(27, 135, 169)" stroke-opacity="0.67608887" stroke-linecap="round" stroke-linejoin="round"/>
    <path d="M 255.41249084 180.33183289 C 255.38792419 179.28991699 255.14318848 178.40383911 254.61364746 177.75784302 C 254.08357239 177.22764587 253.45527649 176.79153442 252.70845032 176.60595703 C 251.97447205 176.68074036 251.21430969 176.86146545 250.48359680 177.11215210 C 249.72438049 177.50640869 249.01284790 178.00735474 248.48928833 178.49855042 C 248.17359924 178.82893372 248.09317017 178.86439514 248.16111755 178.50419617 C 248.41471863 177.80255127 249.02085876 177.08651733 249.83969116 176.42071533 C 250.35786438 175.62545776 250.41271973 174.64324951 250.32980347 173.44970703 C 250.30363464 172.06007385 250.02867126 170.59303284 250.06642151 169.26666260 C 250.37600708 168.10861206 250.98239136 166.94442749 251.34701538 165.71749878 C 251.78953552 164.69120789 252.51919556 164.01760864 253.32943726 163.52346802 C 254.11532593 163.25508118 254.82032776 163.20878601 255.50177002 163.03674316 C 256.05706787 162.66949463 256.56445312 162.36199951 257.13067627 162.46737671 C 257.84344482 163.02439880 258.71920776 163.56987000 259.62805176 164.10176086 C 260.44195557 164.90727234 260.88613892 165.95159912 261.06671143 167.08439636 C 261.37716675 168.31213379 261.72201538 169.66798401 261.79724121 171.05831909 C 261.74261475 172.50538635 261.77737427 173.86184692 261.92016602 175.03573608 C 262.34713745 176.03660583 262.77905273 176.86004639 262.96527100 177.48646545 C 262.70449829 177.74096680 262.18692017 177.56756592 261.50759888 177.07556152 C 260.58441162 176.61070251 259.46508789 176.20025635 258.22888184 175.69033813 C 257.00781250 175.34178162 255.53324890 175.19706726 255.41249084 180.33183289" stroke-width="1.83732414" fill="rgb(4, 2, 3)" opacity="1.0" stroke="rgb(4, 0, 6)" stroke-opacity="0.87788004" stroke-linecap="round" stroke-linejoin="round"/>
    <path d="M 159.84126282 323.07073975 C 160.87820435 324.23406982 161.69485474 325.28198242 162.42636108 326.29953003 C 162.56402588 327.67361450 162.43429565 329.13909912 162.28971863 330.46307373 C 162.60197449 331.92535400 162.41447449 333.42974854 162.29974365 334.82461548 C 162.27153015 336.26571655 162.14051819 337.59030151 161.90388489 338.51849365 C 161.51083374 339.07205200 161.16273499 339.32577515 160.65690613 339.31723022 C 159.90666199 339.49310303 158.95376587 339.52954102 157.89242554 339.35498047 C 156.89553833 339.37228394 155.78182983 339.39865112 154.57638550 339.23242188 C 153.40809631 339.29391479 152.41662598 339.35562134 151.60255432 339.43682861 C 150.86291504 339.22821045 150.36811829 339.09054565 150.03585815 339.24917603 C 149.72624207 339.56127930 149.31584167 339.83200073 159.84126282 323.07073975" stroke-width="2.00000000" fill="rgb(3, 27, 51)" opacity="1.0" stroke="rgb(2, 6, 6)" stroke-opacity="0.95065916" stroke-linecap="round" stroke-linejoin="round"/>
    <path d="M 481.80609131 329.25378418 C 483.86837769 327.15029907 485.83288574 324.99166870 487.76412964 322.90176392 C 489.67318726 320.86090088 491.53137207 319.06732178 493.12200928 317.30624390 C 494.83331299 315.86376953 496.39923096 314.68392944 497.70727539 313.60299683 C 498.80691528 312.87911987 499.76010132 312.44335938 500.35327148 312.21746826 C 500.55670166 312.22122192 500.33959961 312.57302856 499.78469849 313.12954712 C 499.07199097 313.99255371 498.00192261 315.02270508 496.63226318 316.21868896 C 495.09225464 317.57373047 493.43966675 319.10104370 491.79003906 320.86895752 C 490.03417969 322.75741577 488.04699707 324.56021118 486.09359741 326.51757812 C 484.23889160 328.68829346 482.27545166 330.82485962 480.11254883 332.76971436 C 478.00268555 334.78863525 475.66223145 336.57562256 481.80609131 329.25378418" stroke-width="0.68764120" fill="rgb(54, 156, 192)" opacity="1.0" stroke="rgb(16, 107, 145)" stroke-opacity="0.6867985" stroke-linecap="round" stroke-linejoin="round"/>
    <path d="M 370.32849121 332.36172485 C 370.83618164 330.16055298 371.47442627 327.91741943 371.74359131 325.87942505 C 371.71676636 323.89077759 371.57379150 321.90386963 371.70410156 320.15643311 C 372.05090332 318.42251587 372.26290894 316.93994141 372.31219482 315.56289673 C 372.40188599 314.55441284 372.70761108 313.97882080 373.03820801 314.02127075 C 373.21115112 314.32601929 373.37896729 315.06594849 373.67199707 315.99426270 C 374.26220703 317.21499634 374.74871826 318.94003296 375.43649292 320.77581787 C 375.54769897 322.96743774 375.62731934 325.43136597 375.31765747 327.94265747 C 374.70822144 330.39910889 374.52395630 332.71112061 374.15045166 334.68444824 C 373.98239136 335.98373413 374.66763306 336.76043701 375.58068848 337.71411133 C 376.06439209 339.76916504 376.21340942 342.14804077 370.32849121 332.36172485" stroke-width="1.37458515" fill="rgb(101, 181, 106)" opacity="1.0" stroke="rgb(14, 66, 41)" stroke-opacity="0.6354646" stroke-linecap="round" stroke-linejoin="round"/>
    <path d="M 117.33708954 322.60623169 C 117.88143921 324.29885864 117.95490265 325.86801147 117.14264679 327.49606323 C 116.63497162 329.23165894 116.13138580 330.85601807 115.43395233 332.01470947 C 114.36815643 332.66885376 113.26222992 332.80468750 112.49189758 332.58242798 C 112.45095062 331.54769897 112.10764313 330.22436523 111.63455200 328.70083618 C 111.65683746 326.92385864 111.47769165 325.05908203 110.98678589 323.24182129 C 110.51921082 321.44741821 110.16540527 319.60995483 109.89276123 318.13061523 C 109.56894684 317.01434326 109.48709106 316.41659546 109.71959686 316.50881958 C 110.21446228 317.29022217 110.69759369 318.58090210 111.62063599 320.10162354 C 112.55735016 321.74456787 113.12742615 323.50616455 113.48015594 325.35711670 C 113.40942383 327.11697388 112.90859985 328.75811768 117.33708954 322.60623169" stroke-width="0.87903631" fill="rgb(129, 197, 112)" opacity="1.0" stroke="rgb(104, 196, 49)" stroke-opacity="0.3173764" stroke-linecap="round" stroke-linejoin="round"/>
    <path d="M 427.67120361 217.61567688 C 428.10833740 216.74790955 428.32846069 215.95483398 428.72668457 215.62487793 C 429.49160767 215.59573364 430.32995605 215.24771118 431.28121948 214.76762390 C 432.16137695 214.70141602 433.02178955 214.87989807 433.90353394 215.20457458 C 434.87860107 215.50796509 435.43957520 215.70422363 435.82073975 215.87167358 C 435.92041016 216.09082031 435.66104126 216.79997253 435.36132812 217.68359375 C 435.86035156 218.38583374 436.05255127 219.15081787 435.71356201 220.02731323 C 435.03723145 220.69200134 434.25094604 221.29591370 433.49560547 221.80732727 C 432.63772583 221.83804321 431.81228638 221.80780029 430.71817017 222.08900452 C 430.08419800 222.01365662 429.43276978 221.59259033 428.88397217 221.21826172 C 428.25744629 220.92701721 427.50494385 220.72735596 427.67120361 217.61567688" stroke-width="2.00000000" fill="rgb(235, 238, 242)" opacity="1.0" stroke="rgb(27, 0, 7)" stroke-opacity="0.35230947" stroke-linecap="round" stroke-linejoin="round"/>
    <path d="M 46.48841476 49.51212311 C 46.08731842 49.07085037 45.33452606 49.02276993 44.61484146 49.23838425 C 44.05330276 48.93259811 43.68420410 48.31142426 43.43412781 47.55240631 C 43.21900177 46.96850586 43.23355865 46.21588516 43.47447586 45.33559799 C 43.63488007 44.58195114 43.99544525 44.04332352 44.66934586 43.56679916 C 45.54111862 43.17964935 46.45192337 42.83273697 47.33329391 42.74414444 C 48.12505341 42.81738281 48.75341415 43.05058289 49.34362411 43.09165192 C 49.84989166 43.15292358 50.42398834 43.65548325 50.84738541 43.95602798 C 51.04257584 44.44644547 51.21544266 44.84931946 51.41286087 45.36446381 C 51.30027008 45.83136368 51.19107437 46.52998734 50.98509979 47.49697495 C 50.35562515 48.54305649 49.62448883 49.75550842 46.48841476 49.51212311" stroke-width="0.60665041" fill="rgb(236, 239, 239)" opacity="1.0" stroke="rgb(186, 173, 157)" stroke-opacity="0.5987725" stroke-linecap="round" stroke-linejoin="round"/>
    <path d="M 25.56658936 314.41732788 C 25.18626976 315.35189819 24.65574455 316.14028931 23.93906212 316.92221069 C 22.96416283 317.60363770 22.21176720 318.57559204 21.53193474 319.67565918 C 20.68222046 320.88375854 19.62992668 321.88668823 18.68583488 323.01104736 C 17.79974747 324.40313721 16.96113205 325.70339966 15.97733879 327.07748413 C 15.05377579 328.44317627 14.12667084 329.72967529 13.27827263 330.92868042 C 12.39461040 331.96694946 11.55165958 332.77871704 10.87749290 333.45687866 C 10.55387306 334.20111084 10.28225899 334.36016846 10.07204819 333.98043823 C 10.38040257 333.37567139 10.94980621 332.46209717 11.57602787 331.18188477 C 12.52369976 329.54293823 13.75732613 327.77871704 15.24024010 326.01406860 C 16.59727478 323.85241699 17.74899864 321.41522217 25.56658936 314.41732788" stroke-width="0.68359280" fill="rgb(56, 172, 206)" opacity="1.0" stroke="rgb(32, 145, 185)" stroke-opacity="0.6267397" stroke-linecap="round" stroke-linejoin="round"/>
    <path d="M 385.40155029 331.55014038 C 386.10681152 329.76263428 387.14053345 328.10159302 388.31372070 326.44134521 C 389.46389771 324.93457031 390.47042847 323.48284912 391.49142456 322.30947876 C 392.31924438 321.05740356 393.30050659 320.16192627 394.08230591 319.51187134 C 394.80236816 319.38903809 395.53778076 319.47039795 396.09008789 319.50976562 C 396.36114502 319.55770874 396.32995605 319.72436523 396.05285645 319.99114990 C 395.74328613 320.61096191 395.09884644 321.38537598 394.22271729 322.22879028 C 393.47586060 323.30343628 392.74142456 324.37051392 391.79244995 325.36206055 C 390.94946289 326.69229126 390.18554688 328.14004517 389.16424561 329.44058228 C 388.09799194 330.57876587 387.49185181 331.98672485 386.76177979 333.43594360 C 385.25195312 334.51431274 383.49432373 335.50854492 385.40155029 331.55014038" stroke-width="0.99262148" fill="rgb(106, 197, 109)" opacity="1.0" stroke="rgb(53, 143, 21)" stroke-opacity="0.39331326" stroke-linecap="round" stroke-linejoin="round"/>
    <path d="M 246.12416077 68.39836121 C 245.09083557 68.51254272 244.00715637 68.88299561 243.22949219 69.21555328 C 242.51110840 69.30175781 241.81617737 69.40179443 240.95721436 69.39788818 C 240.78924561 69.07078552 240.54548645 68.70711517 240.23840332 68.13859558 C 239.74356079 67.52692413 239.17610168 66.91294098 238.71827698 66.27557373 C 239.12541199 65.37387848 239.36224365 64.58618927 239.70878601 63.76267242 C 240.56863403 63.39681625 241.78599548 63.01145172 242.82398987 62.64384460 C 243.97370911 62.64653015 245.20465088 62.97658920 246.24859619 63.43952942 C 246.58699036 64.24537659 247.18811035 64.50317383 247.58348083 64.52408600 C 247.60641479 65.09596252 247.32948303 65.36251068 247.02789307 65.62146759 C 247.35784912 65.86443329 247.74229431 66.27542114 246.12416077 68.39836121" stroke-width="2.00000000" fill="rgb(226, 234, 245)" opacity="1.0" stroke="rgb(29, 1, 14)" stroke-opacity="0.32076895" stroke-linecap="round" stroke-linejoin="round"/>
    <path d="M 458.77133179 65.27486420 C 458.79098511 65.20484924 458.79656982 65.14672089 458.83029175 65.07324219 C 458.82678223 65.00326538 458.85415649 64.95230103 458.87512207 64.88350677 C 458.88214111 64.81694031 458.91296387 64.76897430 458.93792725 64.71828461 C 458.95642090 64.65931702 458.98516846 64.62249756 459.02755737 64.58975220 C 459.05035400 64.54228973 459.09725952 64.52568817 459.13339233 64.51282501 C 459.18435669 64.48281860 459.23217773 64.49139404 459.27914429 64.48432922 C 459.34490967 64.48518372 459.39422607 64.49484253 459.45477295 64.51615143 C 459.53115845 64.52737427 459.57598877 64.55136108 459.65332031 64.57362366 C 459.73159790 64.60274506 459.77212524 64.62379456 459.86593628 64.65151978 C 459.92230225 64.69194794 459.99401855 64.70163727 458.77133179 65.27486420" stroke-width="0.19736020" fill="rgb(171, 255, 255)" opacity="1.0" stroke="rgb(255, 255, 255)" stroke-opacity="1.0" stroke-linecap="round" stroke-linejoin="round"/>
    <path d="M 10.57412720 319.51962280 C 12.09107685 318.59161377 13.32403183 317.47756958 14.24890614 316.30456543 C 15.04431534 315.60531616 15.68987560 315.47805786 15.86516094 315.74554443 C 15.47150040 316.50555420 14.58312988 317.42462158 13.38141918 318.44638062 C 12.42335129 320.14004517 11.52004337 322.03619385 10.39053535 323.74600220 C 9.29423046 325.47277832 8.33500290 326.89739990 7.61648417 328.50000000 C 6.89348650 329.82846069 6.38857031 330.89135742 5.91096592 331.84667969 C 5.39723206 332.52862549 4.91495085 333.12268066 4.63372517 333.58740234 C 4.51567173 333.99499512 4.32264853 334.34213257 4.16810513 334.59594727 C 3.99320555 334.65667725 3.80387950 334.66751099 3.41790819 334.56784058 C 2.78972387 334.29220581 1.99819589 333.90347290 10.57412720 319.51962280" stroke-width="1.96058893" fill="rgb(23, 106, 158)" opacity="1.0" stroke="rgb(1, 38, 89)" stroke-opacity="0.9272973" stroke-linecap="round" stroke-linejoin="round"/>
    <path d="M 122.50026703 333.16683960 C 122.11885071 332.90130615 121.78375244 332.83120728 121.48085785 332.61526489 C 121.31307220 332.13977051 121.25925446 331.61343384 121.44618988 331.10598755 C 121.72373962 330.39178467 122.17163849 329.60961914 122.64182281 328.78845215 C 122.74514771 327.82025146 123.20062256 326.99285889 123.67601013 326.38223267 C 124.08660126 325.71105957 124.49803925 324.83901978 124.83787537 323.96075439 C 125.32191467 323.20043945 125.63751221 322.47930908 125.86616516 321.82601929 C 126.04167938 321.21176147 126.28057861 320.72933960 126.56149292 320.44131470 C 126.75019073 320.31640625 126.87760162 320.20001221 126.95957184 320.08432007 C 127.08295441 320.12390137 127.38330841 320.10565186 127.73500824 320.12091064 C 128.25192261 320.36544800 128.80545044 320.71911621 122.50026703 333.16683960" stroke-width="0.77827084" fill="rgb(117, 193, 107)" opacity="1.0" stroke="rgb(65, 136, 78)" stroke-opacity="0.9974944" stroke-linecap="round" stroke-linejoin="round"/>
    <path d="M 357.54275513 40.09075165 C 358.80337524 40.80880356 359.80978394 41.46773148 360.40185547 42.15026855 C 360.64300537 43.02405167 360.77160645 44.01123047 360.66442871 45.04367447 C 360.60516357 46.02095413 360.59530640 46.82370377 360.40081787 47.43025970 C 359.99911499 47.95645142 359.47225952 48.55027771 358.86016846 49.05514526 C 358.31860352 49.36919785 357.78533936 49.50588226 357.12014771 49.43221283 C 356.23666382 49.32815552 355.32409668 49.42561340 354.42724609 49.47346497 C 353.50854492 49.41363907 352.70190430 49.29847717 352.09164429 49.11117935 C 351.66479492 48.63464737 351.28829956 47.91012573 351.01126099 46.83983231 C 351.01211548 45.59400558 351.21142578 44.30413818 351.70422363 43.00456238 C 352.26864624 41.75955963 352.92514038 40.77046967 357.54275513 40.09075165" stroke-width="1.52920628" fill="rgb(8, 29, 65)" opacity="1.0" stroke="rgb(40, 18, 69)" stroke-opacity="0.14129864" stroke-linecap="round" stroke-linejoin="round"/>
    <path d="M 377.45904541 331.95208740 C 378.38024902 330.14385986 379.37829590 328.46481323 380.31259155 326.76007080 C 381.35440063 325.19604492 382.14129639 323.66363525 382.86688232 322.27636719 C 383.68661499 321.25827026 384.45553589 320.56072998 385.23495483 319.98495483 C 385.60147095 319.31561279 385.76062012 318.62908936 385.93115234 318.24551392 C 386.26528931 318.17028809 386.49838257 318.31072998 386.53903198 318.60797119 C 386.46704102 319.08401489 386.49948120 319.78405762 386.32775879 320.63354492 C 385.70892334 321.69381714 385.21026611 322.93130493 384.70773315 324.28637695 C 383.87457275 325.61843872 383.22085571 326.89801025 382.68597412 328.47445679 C 381.92932129 329.88491821 381.09057617 331.28012085 380.33984375 332.66513062 C 378.93518066 333.54473877 377.43026733 334.27575684 377.45904541 331.95208740" stroke-width="1.48276079" fill="rgb(109, 187, 110)" opacity="1.0" stroke="rgb(27, 82, 0)" stroke-opacity="0.27525964" stroke-linecap="round" stroke-linejoin="round"/>
    <path d="M 458.74179077 68.00705719 C 457.89019775 67.50462341 457.22653198 67.03947449 456.79852295 66.58821106 C 456.61251831 65.99424744 456.51068115 65.71015167 456.52066040 65.14273834 C 456.28112793 64.46907806 456.35021973 64.05503845 456.43676758 63.61017227 C 456.75091553 63.32234955 457.11151123 63.33429337 457.43246460 63.43070221 C 457.58282471 63.14142227 457.52728271 62.81017685 457.69042969 62.57030869 C 458.09939575 62.50498581 458.70355225 62.57294083 459.42059326 62.43441010 C 460.20590210 62.21337509 461.11444092 62.25143433 461.97747803 62.46392441 C 462.73159790 62.74432755 463.31372070 63.35440445 463.67187500 63.87677002 C 463.72634888 64.44123077 463.64736938 65.06361389 463.54968262 65.77175140 C 463.42251587 66.50273895 463.33435059 67.50969696 458.74179077 68.00705719" stroke-width="2.00000000" fill="rgb(225, 231, 248)" opacity="1.0" stroke="rgb(32, 1, 11)" stroke-opacity="0.29902738" stroke-linecap="round" stroke-linejoin="round"/>
    <path d="M 253.68424988 166.80120850 C 254.24845886 166.47386169 254.39544678 165.98631287 254.36820984 165.67036438 C 254.56382751 165.51422119 254.90176392 165.27166748 255.23913574 165.03295898 C 255.84259033 165.12422180 256.32061768 165.42169189 256.75067139 165.93113708 C 257.34802246 166.17779541 257.90539551 166.56135559 258.17333984 167.03051758 C 258.44155884 167.68377686 258.53591919 168.45654297 258.80413818 169.22494507 C 258.75311279 169.90681458 258.42984009 170.44827271 258.19610596 170.97630310 C 258.10961914 171.55101013 258.08993530 172.17018127 258.01708984 172.35086060 C 257.67443848 172.37141418 257.14294434 172.22720337 256.47280884 172.08262634 C 255.87055969 172.15632629 255.19233704 172.23619080 254.22302246 172.46932983 C 253.12977600 172.54685974 251.78601074 172.32325745 253.68424988 166.80120850" stroke-width="0.79223782" fill="rgb(239, 239, 110)" opacity="1.0" stroke="rgb(114, 121, 68)" stroke-opacity="0.59314805" stroke-linecap="round" stroke-linejoin="round"/>
    <path d="M 149.49914551 30.56590843 C 149.36531067 31.29806709 148.95277405 31.65824890 148.35626221 31.49596596 C 147.72192383 31.60261345 146.93556213 31.70675850 146.12525940 31.72567749 C 145.29890442 31.46656990 144.69335938 30.98050880 144.26292419 30.50668526 C 143.84333801 29.78545380 143.49281311 29.14546776 143.55169678 28.61221123 C 143.78163147 28.43785477 144.06910706 28.49990845 144.30778503 28.06161118 C 144.82839966 27.41324043 145.57084656 26.91876602 146.37269592 26.53857231 C 147.11122131 26.23057938 148.03630066 26.27061462 148.77043152 26.64846039 C 149.22154236 27.43525314 149.63244629 27.84185791 150.07540894 27.44863892 C 149.83312988 27.28467369 149.54786682 27.87714958 150.06214905 28.27149963 C 150.38977051 28.43290520 151.00709534 29.09974480 149.49914551 30.56590843" stroke-width="2.00000000" fill="rgb(226, 231, 234)" opacity="1.0" stroke="rgb(40, 18, 6)" stroke-opacity="0.3125467" stroke-linecap="round" stroke-linejoin="round"/>
    <path d="M 511.46749878 325.90948486 C 509.87033081 326.67529297 508.51815796 327.60781860 507.24130249 328.84027100 C 505.84152222 329.84097290 504.45877075 330.76684570 503.19604492 331.65881348 C 502.25378418 332.73226929 501.24017334 333.41622925 500.25012207 333.84738159 C 499.37844849 334.06436157 498.63543701 334.23605347 498.23376465 334.45266724 C 498.06805420 334.44375610 498.12255859 334.26260376 498.41455078 334.00872803 C 498.87908936 333.56109619 499.50885010 332.92050171 500.16018677 332.19259644 C 501.01812744 331.52566528 501.99850464 330.80917358 503.18255615 330.19882202 C 504.33200073 329.56008911 505.59506226 328.90530396 506.81219482 328.05743408 C 507.94506836 326.99502563 509.23977661 326.15954590 510.59014893 325.31909180 C 511.74890137 324.12356567 512.88342285 322.98168945 511.46749878 325.90948486" stroke-width="0.51740575" fill="rgb(54, 136, 182)" opacity="1.0" stroke="rgb(39, 164, 196)" stroke-opacity="0.42731613" stroke-linecap="round" stroke-linejoin="round"/>
    <path d="M 400.26733398 328.90191650 C 399.61080933 329.60040283 398.75692749 330.02487183 398.07449341 330.68865967 C 397.65985107 331.48287964 397.20495605 332.28723145 396.50784302 332.87261963 C 396.01678467 333.49124146 395.71185303 334.18572998 395.26556396 334.53897095 C 394.81527710 334.66955566 394.34222412 334.68246460 394.03002930 334.66290283 C 393.79870605 334.44216919 393.58221436 333.95935059 393.50408936 333.42996216 C 393.90292358 333.01812744 394.29092407 332.48422241 394.80609131 331.97113037 C 395.54632568 331.63946533 396.09555054 331.06335449 396.60800171 330.11437988 C 397.04122925 329.11251831 397.78601074 328.26113892 398.86767578 327.40066528 C 399.89544678 326.48565674 401.13116455 325.48117065 402.56805420 324.55267334 C 403.80477905 323.55773926 405.04199219 322.13183594 400.26733398 328.90191650" stroke-width="1.33428574" fill="rgb(96, 177, 148)" opacity="1.0" stroke="rgb(19, 85, 72)" stroke-opacity="0.60515463" stroke-linecap="round" stroke-linejoin="round"/>
    <path d="M 126.53519440 232.93511963 C 126.43758392 232.53030396 126.29596710 232.07868958 126.07080078 231.58177185 C 125.77411652 231.21885681 125.46102905 230.73538208 125.41068268 230.18037415 C 125.51584625 229.91816711 126.00128937 229.78759766 126.51163483 229.27560425 C 126.87769318 228.68203735 127.49992371 228.09980774 128.30659485 227.75521851 C 129.39137268 227.76861572 130.43157959 227.57211304 131.20216370 227.76509094 C 131.83480835 228.50659180 132.39437866 229.64158630 132.85179138 230.33995056 C 132.56776428 231.35031128 132.36857605 232.10678101 132.32247925 232.67791748 C 131.95176697 233.19256592 131.28514099 233.54313660 130.44152832 233.68325806 C 129.71574402 233.72380066 129.30383301 233.59312439 128.97239685 233.78492737 C 129.06045532 233.91897583 129.33714294 234.29373169 126.53519440 232.93511963" stroke-width="1.94884777" fill="rgb(218, 221, 239)" opacity="1.0" stroke="rgb(44, 0, 0)" stroke-opacity="0.26068744" stroke-linecap="round" stroke-linejoin="round"/>
    <path d="M 74.24983978 324.32843018 C 74.97393036 323.95886230 75.64091492 323.68655396 76.34941101 323.56484985 C 76.95230103 323.61926270 77.13055420 323.68017578 76.88639832 323.85177612 C 76.43844604 324.12298584 75.89097595 324.61328125 75.21911621 325.03466797 C 74.60446167 325.64315796 73.90460968 326.38330078 73.02147675 327.07479858 C 72.46475983 328.03405762 71.73571777 329.04431152 70.84349823 330.02780151 C 70.08877563 330.78036499 69.30320740 331.41458130 68.73109436 332.24316406 C 68.44055939 333.01980591 68.11439514 333.69976807 67.53747559 334.15255737 C 67.14080811 334.40032959 66.99378967 334.35250854 67.09642792 334.02856445 C 67.39305115 333.33496094 67.82946014 332.47851562 68.49712372 331.63439941 C 68.98223877 330.58502197 69.42541504 329.32772827 74.24983978 324.32843018" stroke-width="0.50935715" fill="rgb(75, 161, 193)" opacity="1.0" stroke="rgb(59, 172, 196)" stroke-opacity="0.51692325" stroke-linecap="round" stroke-linejoin="round"/>
    <path d="M 403.93966675 114.64918518 C 404.39666748 115.09555054 404.63531494 115.49497986 404.93307495 115.98690796 C 405.05609131 116.59436035 405.16333008 117.26391602 405.11840820 117.67304993 C 404.76379395 118.27510834 404.47833252 118.77048492 404.21420288 119.07910919 C 403.97201538 119.23539734 403.33966064 119.32444763 402.65863037 119.34626770 C 401.82656860 119.34210968 400.96780396 119.39160919 400.42401123 119.32354736 C 400.26162720 119.01896667 400.19720459 118.91077423 399.84289551 118.74909210 C 399.50704956 118.44984436 399.42880249 117.90364075 399.41220093 117.57231903 C 399.22622681 117.41378784 399.10195923 117.14940643 399.33825684 116.93929291 C 399.54559326 116.71781158 399.71563721 116.46540833 399.80508423 115.88459015 C 399.69149780 115.33523560 399.58386230 114.87593079 403.93966675 114.64918518" stroke-width="0.65256679" fill="rgb(246, 252, 255)" opacity="1.0" stroke="rgb(136, 143, 151)" stroke-opacity="0.8603445" stroke-linecap="round" stroke-linejoin="round"/>
    <path d="M 353.04498291 45.16262817 C 353.40365601 44.68121338 353.63854980 44.23395157 353.90530396 43.87501526 C 354.19940186 43.59456253 354.63354492 43.43952179 355.23178101 43.14763641 C 355.77227783 42.91532898 356.23944092 42.98622513 356.69390869 43.02998734 C 356.99325562 43.30164337 357.25656128 43.45285797 357.75683594 43.65008163 C 358.07196045 44.10528564 358.32095337 44.43937302 358.40960693 44.79191589 C 358.36111450 45.07886124 358.38021851 45.54494095 358.35052490 45.97025681 C 358.05651855 46.42576599 357.77316284 46.89286423 357.48687744 47.24151611 C 357.04379272 47.22408295 356.63104248 47.31870651 356.16394043 47.37095261 C 355.61724854 47.52000427 355.17938232 47.41167068 354.77346802 47.10215378 C 354.21841431 47.00728989 353.63430786 46.97195435 353.04498291 45.16262817" stroke-width="0.81783873" fill="rgb(243, 248, 255)" opacity="1.0" stroke="rgb(107, 125, 151)" stroke-opacity="0.86951095" stroke-linecap="round" stroke-linejoin="round"/>
    <path d="M 112.24957275 176.28028870 C 112.25965881 176.28323364 112.24887848 176.28199768 112.25926971 176.27908325 C 112.25252533 176.28833008 112.25202942 176.28266907 112.26016998 176.27758789 C 112.24944305 176.29350281 112.25872040 176.28324890 112.25680542 176.27784729 C 112.25206757 176.29423523 112.24684143 176.28341675 112.27754974 176.28480530 C 112.24450684 176.28498840 112.25707245 176.29322815 112.26065826 176.27874756 C 112.25155640 176.29174805 112.25777435 176.28187561 112.26144409 176.28898621 C 112.25366974 176.28822327 112.26041412 176.28564453 112.25588226 176.27934265 C 112.25549316 176.29798889 112.26223755 176.28175354 112.25431061 176.27680969 C 112.25755310 176.29508972 112.25545502 176.28144836 112.25608063 176.28520203 C 112.25880432 176.28471375 112.25335693 176.28334045 112.24957275 176.28028870" stroke-width="0.00000000" fill="rgb(0, 5, 190)" opacity="1.0" stroke="rgb(139, 179, 144)" stroke-opacity="1.0" stroke-linecap="round" stroke-linejoin="round"/>
    <path d="M 475.42337036 327.38867188 C 474.64041138 328.03112793 474.06161499 328.80328369 473.53976440 329.63012695 C 473.15261841 330.36938477 472.69369507 331.04025269 472.16302490 331.73800659 C 471.53872681 332.29632568 470.94485474 332.92657471 470.62875366 333.72381592 C 470.36911011 334.35580444 470.09710693 334.92153931 469.91946411 335.28280640 C 469.49502563 335.42922974 469.25869751 335.29821777 469.32427979 335.03897095 C 469.50326538 334.61514282 469.55383301 334.03582764 469.64675903 333.25579834 C 470.04812622 332.34613037 470.71163940 331.39633179 471.35671997 330.49362183 C 472.03900146 329.52774048 472.79833984 328.45822144 473.61703491 327.17697144 C 474.61819458 326.05624390 475.74438477 325.05780029 476.96994019 324.08435059 C 478.25738525 323.04525757 479.54205322 321.92926025 475.42337036 327.38867188" stroke-width="0.63828439" fill="rgb(62, 166, 187)" opacity="1.0" stroke="rgb(13, 104, 133)" stroke-opacity="0.9033018" stroke-linecap="round" stroke-linejoin="round"/>
    <path d="M 129.28013611 333.35729980 C 129.09413147 333.29995728 128.79240417 333.31619263 128.45365906 333.44610596 C 128.27275085 333.28268433 128.17515564 332.79846191 128.09355164 332.32202148 C 128.31483459 331.76278687 128.50030518 331.27859497 128.79319763 330.73803711 C 129.10823059 330.14663696 129.44400024 329.43347168 129.81527710 328.56503296 C 130.33535767 327.81848145 130.91694641 327.25463867 131.34840393 326.68649292 C 131.68711853 326.10339355 132.03274536 325.55227661 132.50833130 325.23498535 C 133.18165588 325.35430908 133.76644897 325.15817261 134.05421448 324.76284790 C 134.32246399 324.61572266 134.61369324 324.64727783 134.77732849 324.70510864 C 134.65266418 324.98849487 134.56964111 325.51327515 134.32609558 326.05541992 C 134.17391968 326.63421631 134.27044678 327.32192993 129.28013611 333.35729980" stroke-width="0.89676386" fill="rgb(101, 193, 110)" opacity="1.0" stroke="rgb(27, 99, 70)" stroke-opacity="0.79615784" stroke-linecap="round" stroke-linejoin="round"/>
    <path d="M 94.26277924 98.83215332 C 94.91943359 98.56794739 95.54348755 98.32710266 96.22719574 98.24361420 C 96.92901611 98.16806793 97.57810211 98.08554840 98.14815521 98.29160309 C 98.67076111 98.44531250 99.15957642 98.56291199 99.34156799 98.84765625 C 99.20815277 99.36648560 99.52054596 100.02702332 99.93022919 100.49085999 C 99.86323547 100.90140533 99.57715607 101.47158813 99.27964783 102.02359009 C 98.78449249 102.46109772 98.29592896 102.83042908 97.63605499 103.06463623 C 96.79579926 102.98268890 95.89086914 103.07498932 95.33856201 103.30597687 C 94.95083618 103.05694580 94.54135895 102.79835510 94.34833527 102.57456207 C 94.13007355 102.23774719 94.02428436 101.90052032 93.87258911 101.56128693 C 93.60619354 101.26748657 93.03073120 100.98348236 94.26277924 98.83215332" stroke-width="0.56083292" fill="rgb(241, 247, 250)" opacity="1.0" stroke="rgb(168, 157, 156)" stroke-opacity="0.6079982" stroke-linecap="round" stroke-linejoin="round"/>
    <path d="M 416.81759644 331.44522095 C 417.11380005 330.75094604 417.51306152 330.07772827 417.88647461 329.38928223 C 418.57315063 328.72497559 419.01089478 328.04794312 419.37548828 327.28030396 C 419.89532471 326.81680298 420.47747803 326.33578491 421.06323242 325.95626831 C 421.57659912 325.80722046 421.87268066 325.52334595 422.01382446 325.33587646 C 422.11553955 325.34359741 422.14642334 325.46920776 422.06967163 325.71557617 C 421.86566162 325.97634888 421.52749634 326.32382202 421.14367676 326.59179688 C 420.79852295 327.01831055 420.56384277 327.56579590 420.22769165 328.09686279 C 419.68103027 328.63607788 419.17266846 329.30902100 418.66799927 330.01702881 C 418.08337402 330.66101074 417.47015381 331.32519531 416.78161621 332.14508057 C 416.13970947 332.88763428 415.48721313 333.65133667 416.81759644 331.44522095" stroke-width="0.75221282" fill="rgb(78, 166, 197)" opacity="1.0" stroke="rgb(71, 202, 216)" stroke-opacity="0.6117981" stroke-linecap="round" stroke-linejoin="round"/>
    <path d="M 83.61206055 335.26797485 C 83.59910583 334.53948975 83.90724945 333.98413086 84.24008179 333.51812744 C 84.18109131 332.99130249 83.99876404 332.45458984 84.17302704 331.99737549 C 84.46163940 331.51049805 84.68319702 331.00585938 85.07738495 330.53250122 C 85.53083038 329.96548462 85.89570618 329.32351685 86.06286621 328.67129517 C 86.36417389 328.14648438 86.86835480 327.68869019 87.26226044 327.18557739 C 87.77404022 326.84521484 88.28037262 326.41946411 88.60694885 325.92709351 C 88.94519806 325.49453735 89.30394745 325.19445801 89.65883636 325.03823853 C 90.05488586 325.00863647 90.45420074 325.15921021 90.72216797 325.23236084 C 90.81632996 325.14154053 90.81492615 325.01800537 90.71931458 324.99273682 C 90.52992249 324.87069702 90.51781464 324.80944824 83.61206055 335.26797485" stroke-width="0.58005673" fill="rgb(56, 164, 195)" opacity="1.0" stroke="rgb(39, 182, 202)" stroke-opacity="0.47879335" stroke-linecap="round" stroke-linejoin="round"/>
    <path d="M 172.94767761 79.01484680 C 172.76251221 78.46852112 172.45045471 77.59054565 172.34904480 76.99597931 C 172.61938477 76.56020355 173.01495361 76.29636383 173.58000183 76.03517914 C 173.82772827 75.81937408 174.08256531 75.75397491 174.48327637 75.57672119 C 174.82264709 75.56153107 174.87875366 75.57133484 175.14884949 75.68201447 C 175.57623291 75.75215149 175.81855774 75.88080597 175.97142029 76.00314331 C 176.08401489 75.95720673 176.16061401 76.09083557 176.28414917 76.18569183 C 176.27619934 76.43180084 176.25210571 76.70117950 176.19860840 77.00982666 C 176.15275574 77.44283295 176.25848389 77.90824127 176.27888489 78.27712250 C 176.15548706 78.52692413 175.89199829 78.73809814 175.47456360 78.94480133 C 175.01811218 79.30944061 174.68745422 79.70267487 172.94767761 79.01484680" stroke-width="0.58555949" fill="rgb(227, 231, 246)" opacity="1.0" stroke="rgb(180, 178, 181)" stroke-opacity="0.5863946" stroke-linecap="round" stroke-linejoin="round"/>
    <path d="M 329.23382568 177.41339111 C 328.33187866 177.55108643 327.72888184 177.38275146 327.12307739 176.97845459 C 326.64254761 176.75112915 326.22988892 176.51577759 325.89425659 176.25207520 C 325.85772705 175.71275330 325.87695312 175.37899780 326.15124512 175.02217102 C 326.56268311 174.48898315 327.12411499 174.03056335 327.60913086 173.63240051 C 328.05813599 173.62515259 328.60131836 173.67651367 329.17425537 173.73480225 C 329.88156128 173.94627380 330.38262939 174.69927979 330.57925415 175.31779480 C 330.60562134 175.66935730 330.68234253 175.57321167 330.50997925 175.54698181 C 330.13507080 175.75407410 330.14730835 175.89186096 330.35629272 175.82194519 C 330.49752808 175.75695801 330.32327271 175.51571655 330.20516968 175.57339478 C 330.26736450 175.89477539 330.83587646 176.28300476 329.23382568 177.41339111" stroke-width="0.63274336" fill="rgb(221, 231, 241)" opacity="1.0" stroke="rgb(174, 177, 184)" stroke-opacity="0.6817916" stroke-linecap="round" stroke-linejoin="round"/>
    <path d="M 113.28726196 180.52975464 C 112.29110718 180.56764221 111.27729034 180.72059631 110.26190948 180.82940674 C 109.59757996 180.48764038 108.91407776 180.13700867 108.41690826 179.95713806 C 108.18397522 179.76385498 108.11658478 179.52163696 108.32987976 179.30403137 C 108.47734833 179.14118958 108.58435059 178.68150330 108.58212280 178.26013184 C 108.47541809 177.84445190 108.42697144 177.59164429 108.91874695 177.24250793 C 109.42530823 177.13423157 109.92535400 176.98597717 110.41117859 176.58062744 C 110.95976257 176.51852417 111.43169403 176.72218323 111.97257996 176.99465942 C 112.45174408 177.21583557 112.84850311 177.36477661 113.09284210 177.65361023 C 113.24503326 177.83952332 113.29070282 178.28866577 113.35205841 178.76670837 C 113.47270966 179.46946716 113.43497467 179.81413269 113.28726196 180.52975464" stroke-width="2.00000000" fill="rgb(211, 226, 236)" opacity="1.0" stroke="rgb(37, 8, 0)" stroke-opacity="0.22011964" stroke-linecap="round" stroke-linejoin="round"/>
    <path d="M 108.40490723 331.81600952 C 108.08880615 332.13470459 107.69258881 332.52334595 107.33258820 332.93685913 C 106.96588135 333.21765137 106.59138489 333.41650391 106.27661133 333.60806274 C 105.99916077 333.72457886 105.83174133 333.80578613 105.65704346 333.70727539 C 105.55470276 333.43499756 105.50148773 333.07019043 105.50599670 332.62799072 C 105.49839020 332.12872314 105.46308136 331.62420654 105.38352203 331.06375122 C 105.44082642 330.50021362 105.53099823 329.87356567 105.66731262 329.26199341 C 105.86215210 328.77883911 106.05707550 328.29156494 106.15111542 327.75997925 C 106.28284454 327.29046631 106.42319489 326.97155762 106.66883850 326.76800537 C 107.04827881 326.67330933 107.50578308 326.60617065 107.96564484 326.54602051 C 108.41363525 326.55871582 108.94676208 326.58459473 108.40490723 331.81600952" stroke-width="2.00000000" fill="rgb(49, 109, 66)" opacity="1.0" stroke="rgb(2, 44, 68)" stroke-opacity="1.0" stroke-linecap="round" stroke-linejoin="round"/>
  </g>
</svg>
