<?xml version="1.0" ?>
<svg xmlns="http://www.w3.org/2000/svg" version="1.1" width="512" height="512" viewBox="0 0 512 512">
  <defs/>
  <g>
    <path d="M 454.80029297 298.50848389 C 447.65856934 298.60919189 440.52310181 298.60342407 433.33987427 298.65481567 C 426.03390503 298.60928345 418.54736328 298.50064087 410.94223022 298.53887939 C 403.11761475 298.55575562 395.05343628 298.60095215 386.85012817 298.61285400 C 378.43933105 298.66772461 369.75045776 298.68362427 360.94445801 298.63653564 C 351.97521973 298.63800049 342.94708252 298.62219238 333.88088989 298.69293213 C 324.87506104 298.69042969 315.92764282 298.67315674 307.26995850 298.65093994 C 298.91198730 298.64715576 290.90078735 298.63769531 283.42599487 298.60830688 C 276.64624023 298.58944702 270.62512207 298.63803101 265.49395752 298.73437500 C 261.42324829 298.99179077 258.48724365 298.74957275 256.75006104 297.39273071 C 256.25048828 294.49185181 256.37338257 290.22015381 256.51000977 284.62084961 C 256.50100708 277.85107422 256.51016235 270.00646973 256.50909424 261.26831055 C 256.49099731 251.72341919 256.43493652 241.56596375 256.43270874 230.91317749 C 256.48220825 219.82948303 256.47677612 208.55809021 256.45977783 197.18721008 C 256.42535400 185.81333923 256.44851685 174.61590576 256.46746826 163.70675659 C 256.46026611 153.23364258 256.48297119 143.34429932 256.47604370 134.10969543 C 256.42990112 125.68717957 256.43841553 118.20053101 256.45214844 111.80632782 C 256.35409546 106.60723877 256.37548828 102.68800354 257.10687256 100.17272949 C 258.96856689 99.14133453 261.97250366 99.28266907 266.07800293 100.13948059 C 271.26089478 101.15506744 277.34390259 102.41133881 284.23754883 103.86508942 C 291.69320679 105.47138214 299.67608643 107.40628052 307.98168945 109.80219269 C 316.44421387 112.49875641 325.03051758 115.57677460 333.68585205 118.86296844 C 342.15042114 122.54331970 350.35955811 126.76665497 358.30383301 131.24066162 C 366.06845093 135.93420410 373.44168091 140.98948669 380.42034912 146.27397156 C 387.10559082 151.70111084 393.42425537 157.36341858 399.31378174 163.21244812 C 405.01580811 169.07757568 410.27346802 175.13064575 415.12338257 181.35137939 C 419.72146606 187.63632202 423.94326782 194.15292358 427.66796875 200.91609192 C 431.27844238 207.78379822 434.74401855 214.62925720 437.94076538 221.66865540 C 440.97064209 228.80747986 443.76980591 235.98432922 446.21981812 243.33857727 C 448.41442871 250.77374268 450.21105957 258.31973267 451.58569336 266.01971436 C 453.05398560 273.77917480 454.63455200 281.48641968 454.80029297 298.50848389" stroke-width="1.78841162" fill="rgb(254, 79, 58)" opacity="1.0" stroke="rgb(160, 107, 0)" stroke-opacity="0.39315778" stroke-linecap="round" stroke-linejoin="round"/>
    <path d="M 474.15737915 276.90945435 C 474.18478394 281.65881348 474.43307495 286.22332764 474.84356689 290.36645508 C 475.20458984 293.89028931 475.27236938 296.64755249 474.56369019 298.41677856 C 472.59231567 299.03308105 469.86819458 299.04602051 466.77536011 298.97805786 C 463.65954590 299.14614868 460.88104248 299.07040405 458.87091064 298.16345215 C 457.97103882 295.83874512 457.69812012 292.20907593 457.70834351 287.46487427 C 457.37356567 281.87170410 456.54864502 275.42044067 455.34655762 268.22204590 C 453.85516357 260.52908325 452.06320190 252.47248840 449.83483887 244.08418274 C 447.14059448 235.54573059 443.89239502 226.90621948 440.12014771 218.34992981 C 436.03414917 209.76457214 431.61618042 201.21653748 426.87091064 192.88880920 C 421.68374634 184.77938843 416.01376343 177.00910950 409.89630127 169.60646057 C 403.31619263 162.50602722 396.36047363 155.72569275 389.13919067 149.21910095 C 381.64144897 143.04597473 373.76519775 137.23114014 365.60733032 131.87969971 C 357.23648071 126.85183716 348.67709351 122.20374298 339.92633057 118.04833221 C 330.98428345 114.34716797 322.13146973 111.00171661 313.29138184 108.00521851 C 304.59744263 105.44523621 296.23690796 103.24787903 288.26348877 101.28131104 C 280.85256958 99.62143707 274.08779907 98.39241791 268.18969727 97.39432526 C 263.19976807 96.74904633 259.35476685 96.20504761 256.90524292 95.15399933 C 256.02789307 93.08315277 256.01455688 90.33834076 256.13952637 87.37865448 C 256.03216553 84.55462646 256.20239258 82.21530151 257.26745605 80.62948608 C 259.75976562 80.13261414 263.55673218 80.40454865 268.53405762 80.97279358 C 274.61782837 81.71516418 281.48846436 82.80934906 289.06271362 84.21388245 C 297.20968628 85.85646820 305.70989990 87.82366943 314.42614746 90.13216400 C 323.30902100 92.74059296 332.20175171 95.75259399 340.98904419 99.15118408 C 349.68505859 102.79705811 358.10772705 106.79001617 366.31738281 111.05354309 C 374.30972290 115.58526611 381.85974121 120.51278687 389.19329834 125.60750580 C 396.30126953 130.89234924 403.21173096 136.31871033 409.77069092 142.18580627 C 416.14871216 148.25193787 422.23706055 154.73550415 428.12503052 161.66841125 C 433.74826050 169.07690430 439.05780029 177.11123657 444.19186401 185.67243958 C 449.25027466 194.67338562 453.92721558 204.39935303 458.15469360 214.70904541 C 462.68356323 225.35874939 467.81604004 235.88850403 474.15737915 276.90945435" stroke-width="1.32807624" fill="rgb(75, 142, 76)" opacity="1.0" stroke="rgb(47, 154, 0)" stroke-opacity="0.27131164" stroke-linecap="round" stroke-linejoin="round"/>
    <path d="M 278.47567749 153.38591003 C 278.15136719 153.44088745 277.82107544 153.51353455 277.48016357 153.55862427 C 277.15267944 153.61721802 276.80374146 153.66041565 276.51599121 153.68052673 C 276.23907471 153.68473816 276.03170776 153.63070679 275.75283813 153.54330444 C 275.54592896 153.43325806 275.37234497 153.28759766 275.17938232 153.09304810 C 275.04727173 152.91476440 274.94122314 152.69512939 274.82086182 152.43293762 C 274.78094482 152.22393799 274.73736572 151.94371033 274.75558472 151.72023010 C 274.82321167 151.44442749 274.93072510 151.22624207 275.06130981 150.98864746 C 275.28588867 150.78192139 275.52636719 150.55950928 275.76049805 150.37350464 C 276.02474976 150.18049622 276.33508301 149.97282410 276.62622070 149.76705933 C 276.90710449 149.60412598 277.22387695 149.36546326 278.47567749 153.38591003" stroke-width="1.51283991" fill="rgb(99, 10, 4)" opacity="1.0" stroke="rgb(173, 110, 128)" stroke-opacity="0.18244334" stroke-linecap="round" stroke-linejoin="round"/>
    <path d="M 320.99450684 174.74700928 C 321.49139404 175.37876892 321.91397095 175.95181274 322.28027344 176.56430054 C 322.57281494 177.21891785 322.72052002 177.84571838 322.68591309 178.51141357 C 322.60333252 179.17440796 322.29800415 179.83190918 322.01577759 180.51112366 C 321.62640381 181.12876892 321.19143677 181.74208069 320.66128540 182.18688965 C 320.11306763 182.58943176 319.47106934 182.86021423 318.88882446 183.08113098 C 318.32708740 183.21031189 317.78125000 183.26498413 317.30511475 183.11354065 C 316.87933350 182.80393982 316.53787231 182.40586853 316.27835083 181.89160156 C 316.07620239 181.38064575 316.02239990 180.75502014 316.09826660 180.08534241 C 316.32797241 179.36778259 316.66021729 178.58639526 317.04586792 177.80993652 C 317.45898438 176.91487122 317.80844116 176.00764465 320.99450684 174.74700928" stroke-width="0.91105205" fill="rgb(25, 3, 3)" opacity="1.0" stroke="rgb(78, 24, 26)" stroke-opacity="0.70589745" stroke-linecap="round" stroke-linejoin="round"/>
    <path d="M 359.74835205 216.66038513 C 359.52185059 216.57379150 359.32119751 216.49766541 359.11398315 216.38322449 C 358.91305542 216.33953857 358.69335938 216.20013428 358.53991699 216.12995911 C 358.34805298 216.01815796 358.18395996 215.90249634 358.05288696 215.79963684 C 357.93350220 215.65663147 357.80981445 215.55178833 357.76312256 215.42521667 C 357.68017578 215.29475403 357.67333984 215.18962097 357.66406250 215.08294678 C 357.71951294 214.96350098 357.77688599 214.90524292 357.88253784 214.81060791 C 357.99899292 214.73776245 358.16189575 214.71846008 358.32891846 214.68482971 C 358.52029419 214.68611145 358.78726196 214.71531677 359.01431274 214.77850342 C 359.26657104 214.79821777 359.59497070 214.85749817 359.88711548 214.91744995 C 360.17337036 214.94291687 360.51632690 214.97407532 359.74835205 216.66038513" stroke-width="1.39635038" fill="rgb(176, 0, 0)" opacity="1.0" stroke="rgb(140, 117, 136)" stroke-opacity="0.23873155" stroke-linecap="round" stroke-linejoin="round"/>
    <path d="M 392.70202637 258.37744141 C 392.72888184 258.34039307 392.70742798 258.36096191 392.70724487 258.36740112 C 392.71087646 258.34512329 392.70962524 258.36529541 392.71237183 258.35757446 C 392.70074463 258.36114502 392.72167969 258.35327148 392.68185425 258.36535645 C 392.71609497 258.35467529 392.71627808 258.36077881 392.69714355 258.35501099 C 392.70312500 258.35943604 392.71688843 258.35726929 392.69635010 258.35983276 C 392.71343994 258.35742188 392.68469238 258.35397339 392.73425293 258.36096191 C 392.69174194 258.35244751 392.70965576 258.35885620 392.72009277 258.35031128 C 392.69683838 258.35821533 392.71047974 258.35314941 392.71417236 258.35821533 C 392.71603394 258.33679199 392.70745850 258.37042236 392.70855713 258.35772705 C 392.72293091 258.32778931 392.70523071 258.37847900 392.70202637 258.37744141" stroke-width="0.18439931" fill="rgb(255, 177, 93)" opacity="1.0" stroke="rgb(255, 214, 232)" stroke-opacity="1.0" stroke-linecap="round" stroke-linejoin="round"/>
    <path d="M 298.32424927 199.39624023 C 298.34841919 199.38726807 298.34423828 199.40025330 298.33935547 199.38151550 C 298.33596802 199.39366150 298.35559082 199.41371155 298.32946777 199.37602234 C 298.35317993 199.37449646 298.34439087 199.42886353 298.34478760 199.38249207 C 298.35040283 199.39268494 298.34536743 199.40522766 298.34890747 199.39109802 C 298.34896851 199.39349365 298.35348511 199.40699768 298.35107422 199.39064026 C 298.35516357 199.40205383 298.35083008 199.40995789 298.35711670 199.38217163 C 298.34622192 199.40214539 298.36129761 199.41630554 298.33975220 199.38024902 C 298.35769653 199.40754700 298.32852173 199.40505981 298.36380005 199.38598633 C 298.36047363 199.41079712 298.33306885 199.38905334 298.35061646 199.39895630 C 298.35015869 199.40382385 298.33874512 199.39086914 298.32424927 199.39624023" stroke-width="0.31015646" fill="rgb(255, 177, 0)" opacity="1.0" stroke="rgb(198, 134, 142)" stroke-opacity="1.0" stroke-linecap="round" stroke-linejoin="round"/>
    <path d="M 344.60971069 239.12124634 C 344.64083862 239.93334961 344.55801392 240.67329407 344.32031250 241.38389587 C 343.90585327 242.06080627 343.36563110 242.66775513 342.71829224 243.17388916 C 341.91339111 243.59954834 341.05862427 244.01811218 340.10440063 244.37145996 C 339.19412231 244.66940308 338.22555542 244.83837891 337.36697388 244.93328857 C 336.52243042 244.90994263 335.76898193 244.75161743 335.09991455 244.44200134 C 334.55920410 243.94248962 334.12075806 243.32798767 333.83758545 242.67935181 C 333.73049927 242.00224304 333.78567505 241.30004883 334.10906982 240.65499878 C 334.59713745 240.04614258 335.23663330 239.44087219 336.03619385 238.86059570 C 337.00750732 238.42073059 338.08380127 237.98727417 339.23983765 237.46043396 C 340.42205811 236.98497009 341.65344238 236.55099487 344.60971069 239.12124634" stroke-width="0.95027810" fill="rgb(21, 4, 1)" opacity="1.0" stroke="rgb(99, 35, 38)" stroke-opacity="0.5902234" stroke-linecap="round" stroke-linejoin="round"/>
    <path d="M 370.80221558 194.21955872 C 370.78698730 194.25274658 370.86874390 194.31076050 370.86874390 194.29194641 C 370.92626953 194.38415527 370.93640137 194.39038086 370.98944092 194.43072510 C 370.99594116 194.47174072 371.04333496 194.49069214 371.04837036 194.55737305 C 371.08523560 194.55224609 371.08181763 194.61331177 371.11602783 194.64047241 C 371.10168457 194.66786194 371.11459351 194.70590210 371.11914062 194.73554993 C 371.09246826 194.75900269 371.08264160 194.78578186 371.10827637 194.83201599 C 371.02270508 194.85049438 371.03173828 194.87365723 370.99179077 194.89816284 C 370.97073364 194.95252991 370.91833496 194.95547485 370.90194702 194.97549438 C 370.84884644 195.02702332 370.81268311 195.03407288 370.77893066 195.05758667 C 370.72888184 195.09756470 370.69888306 195.10894775 370.80221558 194.21955872" stroke-width="0.13239281" fill="rgb(141, 0, 0)" opacity="1.0" stroke="rgb(255, 6, 0)" stroke-opacity="1.0" stroke-linecap="round" stroke-linejoin="round"/>
    <path d="M 306.87225342 272.70663452 C 306.89221191 272.69165039 306.88287354 272.69653320 306.88055420 272.70495605 C 306.88284302 272.66253662 306.89773560 272.72610474 306.87380981 272.67889404 C 306.88891602 272.69497681 306.89276123 272.68209839 306.87280273 272.70614624 C 306.89944458 272.67160034 306.86962891 272.69696045 306.90533447 272.68554688 C 306.87542725 272.68310547 306.88031006 272.68283081 306.88668823 272.69671631 C 306.88265991 272.67211914 306.88406372 272.69210815 306.88476562 272.67623901 C 306.88256836 272.70779419 306.87921143 272.67172241 306.89294434 272.67846680 C 306.85317993 272.70385742 306.89230347 272.69949341 306.88177490 272.67236328 C 306.87930298 272.69580078 306.87014771 272.69528198 306.88275146 272.69421387 C 306.89025879 272.69418335 306.85165405 272.70028687 306.87225342 272.70663452" stroke-width="0.00000000" fill="rgb(0, 0, 0)" opacity="1.0" stroke="rgb(39, 0, 0)" stroke-opacity="1.0" stroke-linecap="round" stroke-linejoin="round"/>
    <path d="M 350.97705078 161.14178467 C 350.57379150 160.97296143 350.17773438 160.78474426 349.82226562 160.57801819 C 349.46530151 160.37655640 349.14706421 160.16847229 348.78744507 159.95027161 C 348.51553345 159.75248718 348.21414185 159.53633118 347.98190308 159.34375000 C 347.76861572 159.11048889 347.60110474 158.91644287 347.47238159 158.72894287 C 347.35809326 158.55038452 347.32662964 158.39477539 347.30761719 158.28297424 C 347.34332275 158.17654419 347.43203735 158.09024048 347.60113525 158.04205322 C 347.73989868 157.97697449 347.96005249 157.96681213 348.19168091 158.01788330 C 348.43078613 158.05603027 348.72210693 158.17132568 349.00347900 158.26409912 C 349.31307983 158.36860657 349.63842773 158.46771240 349.96691895 158.56590271 C 350.30203247 158.61611938 350.64245605 158.67948914 350.97705078 161.14178467" stroke-width="1.25960290" fill="rgb(138, 16, 4)" opacity="1.0" stroke="rgb(100, 107, 150)" stroke-opacity="0.15621686" stroke-linecap="round" stroke-linejoin="round"/>
    <path d="M 329.88128662 214.13685608 C 329.22604370 214.15365601 328.59548950 214.15910339 327.98724365 214.08860779 C 327.49014282 213.90316772 327.05728149 213.64860535 326.74661255 213.21078491 C 326.54934692 212.69793701 326.44827271 212.14492798 326.44900513 211.47244263 C 326.58139038 210.78045654 326.78720093 210.06031799 327.11373901 209.30508423 C 327.47442627 208.51174927 327.92376709 207.75355530 328.43487549 207.02684021 C 329.00155640 206.36341858 329.62213135 205.80621338 330.24792480 205.31983948 C 330.89938354 204.96925354 331.52108765 204.73400879 332.07189941 204.63592529 C 332.58004761 204.77812195 333.02359009 205.09478760 333.34429932 205.61560059 C 333.58731079 206.29745483 333.69485474 207.09922791 333.77340698 208.03987122 C 333.81134033 209.06869507 333.93899536 210.06533813 329.88128662 214.13685608" stroke-width="0.94772738" fill="rgb(24, 2, 5)" opacity="1.0" stroke="rgb(94, 26, 27)" stroke-opacity="0.7076364" stroke-linecap="round" stroke-linejoin="round"/>
    <path d="M 374.70632935 230.71160889 C 375.52410889 230.07237244 376.39227295 229.43220520 377.24096680 228.92965698 C 378.04113770 228.56213379 378.83615112 228.23127747 379.54025269 228.07707214 C 380.20782471 228.07420349 380.78558350 228.25457764 381.31948853 228.55082703 C 381.74871826 228.95045471 382.13922119 229.35952759 382.44036865 229.80621338 C 382.56295776 230.35200500 382.46343994 230.88819885 382.29373169 231.49511719 C 382.04766846 232.11355591 381.73941040 232.73410034 381.38476562 233.37951660 C 380.93411255 233.96626282 380.35650635 234.47950745 379.78207397 234.90769958 C 379.10174561 235.30146790 378.43283081 235.59118652 377.71395874 235.75558472 C 376.98544312 235.77636719 376.18386841 235.68232727 375.38705444 235.45469666 C 374.49597168 235.16241455 373.60198975 234.77595520 374.70632935 230.71160889" stroke-width="0.95670927" fill="rgb(20, 5, 5)" opacity="1.0" stroke="rgb(79, 19, 22)" stroke-opacity="0.6493959" stroke-linecap="round" stroke-linejoin="round"/>
    <path d="M 401.93399048 281.20089722 C 401.94705200 281.15762329 401.93331909 281.18615723 401.93917847 281.17916870 C 401.95214844 281.17630005 401.95513916 281.17260742 401.91702271 281.18341064 C 401.96578979 281.18203735 401.94403076 281.18319702 401.93832397 281.17114258 C 401.95614624 281.19256592 401.93966675 281.18753052 401.95187378 281.17153931 C 401.94338989 281.19387817 401.95266724 281.18698120 401.94219971 281.17214966 C 401.95919800 281.20999146 401.93453979 281.15216064 401.95657349 281.19534302 C 401.94561768 281.18066406 401.94604492 281.17013550 401.93582153 281.18249512 C 401.94586182 281.18194580 401.96472168 281.17745972 401.92083740 281.17611694 C 401.95343018 281.16406250 401.94503784 281.19992065 401.93063354 281.15347290 C 401.94351196 281.18356323 401.93576050 281.16793823 401.93399048 281.20089722" stroke-width="0.11028762" fill="rgb(0, 0, 0)" opacity="1.0" stroke="rgb(226, 120, 148)" stroke-opacity="1.0" stroke-linecap="round" stroke-linejoin="round"/>
    <path d="M 287.48083496 227.49328613 C 287.77386475 227.14051819 288.10476685 226.76985168 288.40039062 226.44372559 C 288.75393677 226.12881470 289.09320068 225.93704224 289.45288086 225.75746155 C 289.86309814 225.58781433 290.21548462 225.47874451 290.65048218 225.32916260 C 290.93939209 225.18704224 291.26641846 225.04583740 291.58044434 224.94282532 C 291.84765625 224.79777527 292.05349731 224.69752502 292.28234863 224.62594604 C 292.40835571 224.63793945 292.52426147 224.68339539 292.61178589 224.82044983 C 292.64456177 225.00959778 292.69262695 225.26925659 292.77511597 225.55865479 C 292.82632446 225.85841370 292.89251709 226.23233032 293.02206421 226.59661865 C 293.08996582 226.96905518 293.19458008 227.34152222 293.32760620 227.75802612 C 293.42050171 228.11935425 293.56280518 228.50579834 287.48083496 227.49328613" stroke-width="1.22813618" fill="rgb(128, 31, 18)" opacity="1.0" stroke="rgb(147, 149, 147)" stroke-opacity="0.17239477" stroke-linecap="round" stroke-linejoin="round"/>
    <path d="M 423.94976807 287.24026489 C 423.94796753 287.13330078 423.89324951 287.05407715 423.85885620 286.93255615 C 423.84600830 286.86325073 423.77838135 286.77816772 423.77749634 286.66860962 C 423.73101807 286.59613037 423.71160889 286.52990723 423.66110229 286.44088745 C 423.66198730 286.38546753 423.65664673 286.28619385 423.63604736 286.25793457 C 423.62225342 286.18188477 423.66116333 286.15512085 423.65216064 286.09204102 C 423.67510986 286.08151245 423.72875977 286.04254150 423.72640991 286.02957153 C 423.76568604 286.01708984 423.78979492 286.00048828 423.82891846 286.01614380 C 423.85025024 285.98471069 423.86862183 286.01300049 423.91595459 286.02157593 C 423.92285156 285.99819946 423.95507812 286.02169800 423.97970581 286.04110718 C 423.99130249 286.00143433 424.02188110 286.05685425 423.94976807 287.24026489" stroke-width="0.00000000" fill="rgb(235, 0, 0)" opacity="1.0" stroke="rgb(200, 0, 0)" stroke-opacity="1.0" stroke-linecap="round" stroke-linejoin="round"/>
    <path d="M 270.13003540 180.07629395 C 270.12426758 180.07040405 270.13058472 180.08377075 270.12786865 180.06719971 C 270.11538696 180.08027649 270.13882446 180.07080078 270.11605835 180.07720947 C 270.14038086 180.06832886 270.10827637 180.07255554 270.12475586 180.07952881 C 270.13833618 180.06439209 270.11318970 180.06286621 270.12463379 180.10676575 C 270.14312744 180.04937744 270.11077881 180.07028198 270.12521362 180.07984924 C 270.14025879 180.06015015 270.11502075 180.08383179 270.13366699 180.06101990 C 270.12106323 180.06675720 270.12701416 180.08454895 270.13375854 180.05067444 C 270.11416626 180.09286499 270.14651489 180.04904175 270.11462402 180.09022522 C 270.12142944 180.05055237 270.13247681 180.09562683 270.12896729 180.05226135 C 270.12097168 180.05728149 270.13381958 180.08038330 270.13003540 180.07629395" stroke-width="0.00000000" fill="rgb(255, 160, 148)" opacity="1.0" stroke="rgb(211, 109, 77)" stroke-opacity="1.0" stroke-linecap="round" stroke-linejoin="round"/>
    <path d="M 416.85021973 283.88116455 C 418.05392456 284.07272339 419.20169067 284.25399780 420.33343506 284.38336182 C 421.31414795 284.66149902 422.25421143 285.00723267 422.91680908 285.57598877 C 423.55145264 286.25155640 424.06069946 287.03085327 424.37347412 287.74499512 C 424.49258423 288.50747681 424.47399902 289.21151733 424.24813843 289.86123657 C 423.91839600 290.45419312 423.41802979 290.94079590 422.73257446 291.37936401 C 421.93762207 291.64935303 421.02709961 291.79180908 420.16073608 291.88500977 C 419.16528320 291.87728882 418.19671631 291.72473145 417.25656128 291.48135376 C 416.29693604 291.11700439 415.38543701 290.64880371 414.61956787 290.00250244 C 413.94564819 289.21844482 413.40545654 288.30468750 412.99185181 287.31417847 C 412.63879395 286.11254883 412.23956299 284.93539429 416.85021973 283.88116455" stroke-width="0.80261725" fill="rgb(22, 6, 5)" opacity="1.0" stroke="rgb(41, 19, 29)" stroke-opacity="0.52377987" stroke-linecap="round" stroke-linejoin="round"/>
    <path d="M 313.54598999 271.02590942 C 312.61029053 271.88055420 311.64944458 272.69668579 310.66156006 273.44140625 C 309.68243408 274.14215088 308.74496460 274.76907349 307.86404419 275.25878906 C 307.03939819 275.63397217 306.25241089 275.80532837 305.46652222 275.81243896 C 304.87145996 275.74664307 304.33261108 275.50326538 303.86651611 275.18289185 C 303.50946045 274.69342041 303.28613281 274.14013672 303.15179443 273.55197144 C 303.22985840 272.92727661 303.43920898 272.25234985 303.80001831 271.53189087 C 304.26565552 270.85406494 304.89855957 270.16500854 305.63833618 269.46188354 C 306.43829346 268.76638794 307.28231812 268.03176880 308.19894409 267.41644287 C 309.21704102 266.83779907 310.26425171 266.44064331 311.42898560 266.25234985 C 312.68734741 266.12973022 314.04254150 265.99865723 313.54598999 271.02590942" stroke-width="0.99717677" fill="rgb(18, 3, 5)" opacity="1.0" stroke="rgb(96, 48, 48)" stroke-opacity="0.5718929" stroke-linecap="round" stroke-linejoin="round"/>
    <path d="M 293.51583862 231.74951172 C 292.70684814 232.55024719 291.90591431 233.36216736 291.16772461 234.10525513 C 290.47128296 234.81765747 289.82192993 235.44465637 289.19522095 235.91938782 C 288.57171631 236.20283508 287.94192505 236.31942749 287.35339355 236.23135376 C 286.75177002 235.97016907 286.26684570 235.68824768 285.86569214 235.31599426 C 285.56988525 234.82598877 285.41397095 234.25158691 285.46356201 233.59516907 C 285.58624268 232.89810181 285.78237915 232.11584473 286.09020996 231.34625244 C 286.43481445 230.58787537 286.91094971 229.80198669 287.45446777 229.09382629 C 288.05636597 228.41229248 288.77944946 227.82939148 289.44796753 227.26770020 C 290.25189209 226.79425049 291.17175293 226.48976135 292.14410400 226.21749878 C 293.18597412 225.98036194 294.26135254 225.80035400 293.51583862 231.74951172" stroke-width="0.93321222" fill="rgb(16, 5, 4)" opacity="1.0" stroke="rgb(22, 0, 2)" stroke-opacity="0.51697165" stroke-linecap="round" stroke-linejoin="round"/>
    <path d="M 373.09649658 268.34722900 C 372.00692749 268.66973877 370.89340210 268.95352173 369.83834839 269.28121948 C 368.78713989 269.51885986 367.75872803 269.60150146 366.86297607 269.57324219 C 366.01403809 269.40896606 365.18228149 269.11224365 364.53668213 268.79913330 C 363.90805054 268.44134521 363.46679688 268.00225830 363.17813110 267.49758911 C 363.05300903 266.90884399 363.08374023 266.34033203 363.20852661 265.76373291 C 363.41397095 265.20446777 363.76504517 264.64355469 364.20111084 264.21594238 C 364.79486084 263.83975220 365.48171997 263.61105347 366.24816895 263.38424683 C 367.18096924 263.20181274 368.12899780 263.08261108 369.10229492 262.96447754 C 370.12930298 263.00778198 371.22402954 263.17330933 372.35372925 263.42910767 C 373.49752808 263.67483521 374.74658203 263.94253540 373.09649658 268.34722900" stroke-width="0.97207612" fill="rgb(25, 2, 4)" opacity="1.0" stroke="rgb(80, 26, 32)" stroke-opacity="0.6034951" stroke-linecap="round" stroke-linejoin="round"/>
    <path d="M 269.75149536 186.25003052 C 269.18521118 186.36488342 268.72219849 186.52458191 268.20062256 186.53839111 C 267.75463867 186.43037415 267.34588623 186.16447449 267.02035522 185.71821594 C 266.62612915 185.22462463 266.35586548 184.60931396 266.15362549 183.86753845 C 266.03631592 183.01589966 266.01348877 182.12365723 266.02639771 181.16548157 C 266.10684204 180.22644043 266.30267334 179.27571106 266.67129517 178.40185547 C 267.09625244 177.56802368 267.62200928 176.85072327 268.23498535 176.18858337 C 268.86880493 175.68840027 269.52441406 175.24154663 270.12393188 174.95883179 C 270.60992432 174.82995605 271.01492310 174.95013428 271.33483887 175.36817932 C 271.55667114 175.98153687 271.81365967 176.85667419 272.15750122 177.86045837 C 272.49298096 178.94247437 272.91885376 180.10289001 269.75149536 186.25003052" stroke-width="0.90406781" fill="rgb(17, 2, 3)" opacity="1.0" stroke="rgb(74, 23, 24)" stroke-opacity="0.75283766" stroke-linecap="round" stroke-linejoin="round"/>
    <path d="M 404.01364136 284.35733032 C 402.79660034 284.70245361 401.64398193 285.04977417 400.47070312 285.28552246 C 399.33276367 285.35238647 398.29641724 285.22717285 397.31158447 284.96841431 C 396.39593506 284.56097412 395.57537842 284.13156128 394.83731079 283.61453247 C 394.20223999 283.10211182 393.70220947 282.63601685 393.40768433 282.05374146 C 393.23742676 281.43365479 393.27041626 280.83001709 393.56518555 280.26275635 C 394.01339722 279.78762817 394.61441040 279.37435913 395.39788818 279.02200317 C 396.25683594 278.77215576 397.21878052 278.54959106 398.23962402 278.39215088 C 399.19659424 278.30258179 400.20492554 278.33627319 401.24020386 278.47271729 C 402.22830200 278.77691650 403.17468262 279.26763916 404.14007568 279.89224243 C 405.09277344 280.56781006 406.10745239 281.32885742 404.01364136 284.35733032" stroke-width="0.86307347" fill="rgb(18, 1, 1)" opacity="1.0" stroke="rgb(99, 45, 50)" stroke-opacity="0.57449436" stroke-linecap="round" stroke-linejoin="round"/>
    <path d="M 387.33517456 256.13519287 C 388.36874390 255.62934875 389.41094971 255.21481323 390.44726562 254.83920288 C 391.46948242 254.60366821 392.47244263 254.50424194 393.39791870 254.51261902 C 394.21975708 254.58525085 394.98556519 254.66789246 395.66329956 254.85580444 C 396.20489502 255.13928223 396.51547241 255.48393250 396.65902710 256.01058960 C 396.69067383 256.58761597 396.64859009 257.28540039 396.47906494 258.04107666 C 396.14016724 258.83172607 395.68835449 259.53430176 395.14971924 260.21655273 C 394.45040894 260.71926880 393.61679077 261.04617310 392.68060303 261.24942017 C 391.66018677 261.40576172 390.64608765 261.54919434 389.61654663 261.65426636 C 388.53958130 261.49707031 387.47552490 261.13308716 386.38650513 260.67294312 C 385.28308105 260.13018799 384.10968018 259.60870361 387.33517456 256.13519287" stroke-width="0.95122200" fill="rgb(19, 1, 1)" opacity="1.0" stroke="rgb(119, 45, 53)" stroke-opacity="0.5848496" stroke-linecap="round" stroke-linejoin="round"/>
    <path d="M 352.72009277 219.49481201 C 353.64334106 218.68962097 354.49157715 217.87965393 355.30432129 217.11814880 C 356.08505249 216.47184753 356.80706787 215.93673706 357.59185791 215.56784058 C 358.41500854 215.37187195 359.18624878 215.33854675 359.85650635 215.39314270 C 360.48599243 215.54899597 361.03945923 215.79244995 361.45935059 216.12724304 C 361.68774414 216.50730896 361.85409546 216.97621155 361.83731079 217.46331787 C 361.69082642 218.03652954 361.45275879 218.62832642 361.17416382 219.25694275 C 360.73764038 219.84387207 360.22601318 220.46009827 359.63247681 221.00930786 C 358.92950439 221.47044373 358.14273071 221.86134338 357.35025024 222.20645142 C 356.48895264 222.42425537 355.62854004 222.50334167 354.68920898 222.49905396 C 353.71856689 222.48414612 352.75927734 222.44784546 352.72009277 219.49481201" stroke-width="0.94329071" fill="rgb(17, 2, 5)" opacity="1.0" stroke="rgb(50, 6, 6)" stroke-opacity="0.7051748" stroke-linecap="round" stroke-linejoin="round"/>
    <path d="M 281.12634277 146.80012512 C 280.92474365 147.68524170 280.69039917 148.55856323 280.47927856 149.34300232 C 280.21188354 150.04624939 279.80606079 150.65657043 279.36233521 151.12831116 C 278.84872437 151.53372192 278.31832886 151.80285645 277.78994751 151.99504089 C 277.25570679 152.09075928 276.71032715 152.05702209 276.23031616 151.93344116 C 275.78408813 151.70376587 275.42749023 151.35693359 275.14965820 150.93952942 C 274.94436646 150.43075562 274.81552124 149.87098694 274.83172607 149.22257996 C 274.94067383 148.55067444 275.14300537 147.85084534 275.44491577 147.11793518 C 275.75045776 146.39608765 276.11975098 145.70286560 276.58508301 145.07186890 C 277.07928467 144.50447083 277.72225952 144.07666016 278.45220947 143.72575378 C 279.32955933 143.42247009 280.16265869 143.15010071 281.12634277 146.80012512" stroke-width="1.03767502" fill="rgb(20, 6, 5)" opacity="1.0" stroke="rgb(26, 0, 0)" stroke-opacity="0.61112773" stroke-linecap="round" stroke-linejoin="round"/>
    <path d="M 297.25369263 195.55113220 C 297.92065430 195.15522766 298.58309937 194.78408813 299.16217041 194.61700439 C 299.81152344 194.65003967 300.33074951 194.89836121 300.85040283 195.24475098 C 301.19839478 195.73107910 301.47708130 196.32102966 301.61853027 197.02232361 C 301.72720337 197.77616882 301.66943359 198.53520203 301.55969238 199.38301086 C 301.34997559 200.15499878 301.07897949 200.94859314 300.67263794 201.67509460 C 300.22332764 202.35734558 299.60244751 202.98654175 299.02047729 203.55867004 C 298.37500000 204.04125977 297.75204468 204.45983887 297.18435669 204.74450684 C 296.60974121 204.86486816 296.10583496 204.82501221 295.56307983 204.59767151 C 295.18630981 204.10394287 294.78103638 203.47575378 294.43051147 202.64859009 C 294.02456665 201.68170166 293.61880493 200.68127441 297.25369263 195.55113220" stroke-width="0.79018706" fill="rgb(25, 4, 4)" opacity="1.0" stroke="rgb(95, 28, 29)" stroke-opacity="0.69005954" stroke-linecap="round" stroke-linejoin="round"/>
    <path d="M 343.41299438 162.72689819 C 343.97756958 162.01570129 344.53826904 161.27104187 345.05444336 160.61167908 C 345.60089111 160.00700378 346.09613037 159.51237488 346.67288208 159.22393799 C 347.25598145 159.07536316 347.88464355 159.05117798 348.43997192 159.23515320 C 349.01995850 159.50331116 349.47686768 159.88519287 349.84997559 160.39379883 C 350.17108154 160.96069336 350.31143188 161.57025146 350.31207275 162.19985962 C 350.22366333 162.89630127 349.96478271 163.57089233 349.62695312 164.23762512 C 349.15414429 164.88993835 348.58679199 165.47090149 347.95333862 166.01809692 C 347.30624390 166.57130432 346.69665527 167.12704468 346.09655762 167.53953552 C 345.41183472 167.76931763 344.71124268 167.78698730 343.91979980 167.65832520 C 343.09780884 167.41484070 342.20062256 167.19096375 343.41299438 162.72689819" stroke-width="0.93655509" fill="rgb(29, 6, 3)" opacity="1.0" stroke="rgb(0, 4, 18)" stroke-opacity="0.37412718" stroke-linecap="round" stroke-linejoin="round"/>
    <path d="M 372.52325439 197.22065735 C 371.91244507 197.26553345 371.38610840 197.28475952 370.85211182 197.25653076 C 370.35174561 197.17335510 369.90795898 196.97741699 369.51251221 196.70520020 C 369.18508911 196.37500000 368.95501709 195.95541382 368.79400635 195.50013733 C 368.76525879 194.96585083 368.87622070 194.34539795 368.98217773 193.72654724 C 369.17984009 192.99938965 369.47204590 192.34951782 369.88717651 191.66546631 C 370.47149658 191.02311707 371.09289551 190.44512939 371.76989746 189.94869995 C 372.47033691 189.48031616 373.08581543 189.05407715 373.69506836 188.77177429 C 374.26412964 188.66471863 374.72393799 188.73265076 375.14968872 189.08670044 C 375.46017456 189.57185364 375.68954468 190.24458313 375.93109131 191.07511902 C 376.21005249 192.00637817 376.57925415 192.91345215 372.52325439 197.22065735" stroke-width="0.92853093" fill="rgb(22, 2, 5)" opacity="1.0" stroke="rgb(108, 48, 47)" stroke-opacity="0.6168217" stroke-linecap="round" stroke-linejoin="round"/>
  </g>
</svg>
