<?xml version="1.0" ?>
<svg xmlns="http://www.w3.org/2000/svg" version="1.1" width="512" height="512" viewBox="0 0 512 512">
  <defs/>
  <g>
    <path d="M 364.16363525 353.02902222 C 358.39422607 355.68923950 352.48583984 357.94845581 346.41812134 359.81808472 C 340.35900879 361.50177002 334.20721436 362.81781006 328.08862305 363.99984741 C 321.80541992 365.18365479 315.64093018 366.17712402 309.47140503 366.83966064 C 303.18762207 367.63424683 296.95474243 368.35635376 290.75305176 368.55471802 C 284.42828369 368.76376343 277.98855591 369.31298828 271.50253296 369.49118042 C 264.96621704 369.66781616 258.26809692 369.88635254 251.49034119 369.86871338 C 244.67019653 369.55404663 237.81748962 369.40435791 230.89855957 369.16207886 C 223.91128540 368.76977539 216.91467285 368.33108521 209.99626160 367.47201538 C 203.11506653 366.66522217 196.17381287 365.80596924 189.34609985 364.77835083 C 182.75654602 363.57513428 176.37712097 361.99627686 170.16667175 360.55172729 C 164.30932617 359.06539917 158.78970337 357.35501099 153.89724731 355.31051636 C 149.57292175 353.14761353 145.78393555 350.70852661 142.84970093 348.07821655 C 140.63423157 345.24707031 139.38206482 342.11444092 138.97413635 338.81176758 C 138.86540222 335.62869263 139.67366028 332.68371582 141.34677124 329.95529175 C 144.00830078 327.54943848 147.46138000 325.49761963 151.52813721 323.50146484 C 155.98651123 321.22586060 160.83709717 319.01614380 166.11186218 316.96563721 C 171.75471497 315.07031250 177.69383240 313.31549072 183.82461548 311.69338989 C 190.05581665 310.18853760 196.42655945 308.85534668 202.89576721 307.66241455 C 209.44390869 306.57168579 215.95877075 305.58575439 222.41918945 304.78829956 C 228.86585999 304.09918213 235.29939270 303.59655762 241.71476746 303.19094849 C 248.04847717 302.96459961 254.37380981 302.80035400 260.67041016 302.79248047 C 266.89337158 302.93670654 273.08380127 303.25415039 279.25646973 303.68475342 C 285.43823242 304.29104614 291.56570435 305.02560425 297.66427612 305.92291260 C 303.75323486 306.92199707 309.79788208 308.01150513 315.73977661 309.27545166 C 321.57928467 310.69168091 327.30386353 312.17071533 332.93511963 313.68347168 C 338.46496582 315.25415039 343.77224731 316.86761475 348.78979492 318.47915649 C 353.57440186 320.06353760 358.12268066 321.69387817 362.36288452 323.34576416 C 366.14669800 325.13595581 369.47738647 327.12933350 372.11297607 329.31826782 C 374.14572144 331.67172241 375.17227173 334.31277466 375.28738403 337.44140625 C 375.40121460 341.14517212 375.57000732 344.93630981 364.16363525 353.02902222" stroke-width="1.25415826" fill="rgb(248, 185, 81)" opacity="1.0" stroke="rgb(210, 137, 0)" stroke-opacity="0.26310462" stroke-linecap="round" stroke-linejoin="round"/>
    <path d="M 364.08633423 311.46694946 C 362.89208984 315.33016968 360.83312988 318.39047241 357.53881836 320.49008179 C 352.51730347 321.88876343 346.65420532 323.53131104 340.14334106 325.15048218 C 332.87847900 326.71017456 325.29876709 327.94369507 317.50015259 328.81030273 C 309.63156128 329.80398560 301.81500244 330.60546875 294.10678101 331.22503662 C 286.51333618 331.82916260 278.99777222 332.17565918 271.64120483 332.33264160 C 264.42425537 332.41317749 257.28482056 332.42584229 250.21597290 332.35006714 C 243.24539185 332.17401123 236.32527161 331.96658325 229.39373779 331.44705200 C 222.51290894 331.01791382 215.71542358 330.67529297 208.91180420 330.30151367 C 202.17184448 329.98226929 195.59016418 329.13284302 189.11322021 328.15270996 C 182.73358154 327.26327515 176.56335449 326.19125366 170.80541992 325.01263428 C 165.50039673 323.76971436 160.55720520 322.48135376 156.37550354 321.40081787 C 153.25318909 319.80783081 150.90370178 317.68676758 149.18226624 315.24633789 C 148.07556152 312.47406006 147.62855530 309.49279785 147.99334717 306.61895752 C 149.03706360 303.46099854 150.82890320 301.01181030 153.10566711 299.04071045 C 155.10527039 297.77645874 157.15159607 297.97390747 159.73587036 299.15695190 C 163.22209167 300.06240845 167.32571411 300.97442627 171.71505737 301.93856812 C 176.34837341 302.79269409 180.93948364 304.03265381 185.39819336 306.04376221 C 190.09556580 307.60446167 195.05854797 308.46118164 200.32507324 308.71044922 C 205.93850708 308.39434814 211.89443970 307.63107300 218.15451050 306.47183228 C 224.64669800 305.03454590 231.39111328 303.45837402 238.42512512 301.77835083 C 245.70616150 300.10440063 253.20225525 298.45098877 260.90682983 296.88323975 C 268.76458740 295.47155762 276.67572021 294.23303223 284.53948975 293.16946411 C 292.32125854 292.27835083 299.99261475 291.64022827 307.49667358 291.34103394 C 314.65292358 291.28030396 321.31106567 291.37200928 327.43212891 291.55245972 C 332.86120605 291.88937378 337.33068848 292.53002930 340.78228760 293.35037231 C 343.01766968 293.97103882 343.79678345 295.08624268 343.25427246 296.58334351 C 341.51550293 298.55465698 339.04824829 300.38528442 336.86663818 301.94854736 C 335.61608887 303.33453369 335.81533813 304.09750366 337.57113647 303.94302368 C 340.85290527 303.28210449 345.29385376 301.75335693 350.66394043 300.01528931 C 356.31658936 297.80972290 362.47967529 295.55108643 364.08633423 311.46694946" stroke-width="0.75264186" fill="rgb(160, 112, 20)" opacity="1.0" stroke="rgb(168, 105, 48)" stroke-opacity="0.42385712" stroke-linecap="round" stroke-linejoin="round"/>
    <path d="M 315.45043945 323.95324707 C 308.32150269 321.37875366 301.07287598 319.34521484 293.83801270 317.62753296 C 286.81671143 315.96386719 280.09182739 314.34066772 273.82156372 312.70758057 C 268.14389038 311.14743042 262.75170898 310.92507935 257.45065308 312.48782349 C 251.79798889 314.72225952 245.66508484 316.92764282 239.45945740 319.05117798 C 233.39553833 321.42712402 227.44869995 324.05529785 221.68391418 326.14498901 C 216.80526733 328.22219849 213.49784851 330.34460449 210.91772461 329.86108398 C 207.58283997 326.48779297 203.21121216 321.83395386 198.39816284 317.15069580 C 193.35313416 312.70465088 188.44795227 308.19448853 184.32818604 303.42871094 C 180.01380920 299.92208862 175.54341125 297.53573608 171.67707825 295.44000244 C 168.62878418 293.79888916 166.59686279 292.75912476 166.09436035 292.19778442 C 167.32084656 291.39361572 170.28276062 290.46981812 174.68016052 289.45568848 C 180.27262878 288.37689209 186.86698914 287.51693726 194.28997803 286.90267944 C 202.43585205 286.51272583 211.07875061 286.37609863 219.94490051 286.67687988 C 228.86315918 287.68884277 237.53810120 289.47067261 245.65850830 292.02981567 C 252.77392578 295.39828491 258.35964966 299.54437256 262.96975708 303.34500122 C 268.67214966 303.86706543 274.79165649 304.13088989 280.90777588 304.58166504 C 287.09304810 304.79223633 293.39401245 304.77810669 299.67211914 304.76858521 C 305.79391479 304.92968750 311.75613403 304.85824585 317.59219360 304.62506104 C 323.18051147 304.26501465 328.42382812 303.52197266 333.40689087 302.27722168 C 338.16052246 300.78192139 342.55752563 299.17526245 315.45043945 323.95324707" stroke-width="2.00000000" fill="rgb(252, 221, 7)" opacity="1.0" stroke="rgb(104, 206, 3)" stroke-opacity="0.22195725" stroke-linecap="round" stroke-linejoin="round"/>
    <path d="M 351.40380859 290.28829956 C 346.80233765 291.37786865 342.22848511 292.52539062 337.45944214 293.17306519 C 332.86245728 293.74288940 328.21832275 294.50006104 323.49496460 295.62197876 C 318.72070312 296.53567505 313.90841675 297.30786133 308.91543579 297.91735840 C 303.91806030 298.31915283 298.93814087 298.57629395 293.91894531 298.86172485 C 288.73074341 299.17526245 283.54232788 299.35226440 278.40002441 299.21981812 C 273.15374756 299.24197388 267.80764771 299.16198730 262.43429565 298.86523438 C 257.02606201 298.41223145 251.48368835 298.48257446 245.79437256 298.38790894 C 239.92050171 297.89852905 233.97361755 297.51437378 228.08523560 296.89389038 C 222.12638855 296.30807495 216.10902405 295.74844360 210.33563232 295.06820679 C 204.64099121 294.14321899 198.95796204 293.75131226 193.49989319 292.75057983 C 188.20082092 291.96386719 182.96075439 291.08370972 178.03768921 290.45605469 C 173.52449036 290.79672241 169.32824707 291.35815430 165.75639343 291.56558228 C 163.05346680 292.05541992 161.00086975 291.46414185 159.63342285 290.33483887 C 159.06626892 288.39294434 158.71406555 286.04663086 158.59417725 283.28417969 C 158.52641296 280.45266724 158.97012329 277.61596680 160.10882568 274.95913696 C 161.96362305 272.63964844 164.52626038 270.56848145 167.70639038 268.71206665 C 171.47756958 267.12567139 175.71160889 265.74975586 180.41677856 264.52667236 C 185.47570801 263.51879883 190.80383301 262.73486328 196.33070374 262.06207275 C 201.96990967 261.42001343 207.70321655 260.86694336 213.52178955 260.42199707 C 219.41999817 260.11990356 225.30027771 259.91958618 231.16075134 259.75656128 C 237.04125977 259.63241577 242.92329407 259.57077026 248.80311584 259.57226562 C 254.68159485 259.62030029 260.57650757 259.66729736 266.51245117 259.74191284 C 272.42681885 259.82583618 278.31079102 260.00567627 284.19317627 260.37246704 C 290.04537964 260.82907104 295.89984131 261.33584595 301.75439453 261.95639038 C 307.59777832 262.73367310 313.30880737 263.65322876 318.92968750 264.64364624 C 324.38516235 265.69436646 329.69491577 266.85968018 334.72854614 268.10250854 C 339.42260742 269.37539673 343.72689819 270.61309814 347.60659790 271.72192383 C 350.93899536 272.57318115 353.58825684 273.32049561 355.23010254 274.56838989 C 355.70974731 276.60592651 355.91122437 279.13040161 356.26242065 282.24548340 C 355.94192505 285.56268311 356.09591675 289.13778687 351.40380859 290.28829956" stroke-width="2.00000000" fill="rgb(205, 34, 26)" opacity="1.0" stroke="rgb(134, 249, 83)" stroke-opacity="0.21390778" stroke-linecap="round" stroke-linejoin="round"/>
    <path d="M 361.61401367 253.45890808 C 354.77636719 256.68054199 347.81738281 259.72677612 340.61169434 262.34863281 C 333.04992676 264.37231445 325.17700195 265.95663452 316.91213989 267.11016846 C 308.30120850 267.78909302 299.48413086 268.14089966 290.65911865 268.36172485 C 281.87765503 268.54907227 273.31387329 268.84957886 265.28695679 269.33477783 C 257.94046021 270.28915405 251.45358276 271.94158936 246.19227600 274.58053589 C 242.58178711 278.56838989 239.24499512 282.03906250 235.31407166 284.10665894 C 231.25505066 284.89120483 227.58042908 283.61975098 224.73747253 280.87246704 C 222.61061096 277.65695190 220.48265076 275.83221436 217.76803589 276.48171997 C 214.19396973 279.16595459 210.04182434 281.93206787 205.54594421 283.60308838 C 201.62440491 283.46826172 198.61955261 281.16632080 196.38101196 277.14999390 C 193.46864319 272.85369873 188.95794678 269.47247314 182.97457886 267.16717529 C 176.04180908 265.56710815 168.89546204 264.11477661 162.07897949 262.34606934 C 155.97592163 259.93078613 151.02326965 256.46505737 147.46205139 251.80192566 C 144.12548828 246.99218750 141.84321594 242.10760498 141.16957092 236.73356628 C 141.14268494 231.27870178 142.22335815 226.12036133 144.71778870 221.10751343 C 147.90122986 216.00865173 152.00891113 211.54223633 156.55502319 207.25669861 C 161.64167786 203.37882996 166.89970398 199.86705017 172.61845398 196.72882080 C 178.52104187 193.88713074 184.56942749 191.42268372 190.72212219 189.06503296 C 197.00914001 186.83111572 203.32888794 184.91323853 209.77313232 183.36193848 C 216.33190918 181.98451233 222.90090942 180.86798096 229.53021240 180.15901184 C 236.16848755 179.43832397 242.84045410 178.84091187 249.46655273 178.59561157 C 256.13720703 178.45188904 262.82031250 178.40728760 269.34298706 178.45103455 C 275.70678711 178.54942322 282.06506348 179.16960144 288.41647339 179.99655151 C 294.63040161 180.88909912 300.64529419 181.91854858 306.65689087 183.39981079 C 312.54046631 184.71745300 318.22897339 186.11381531 323.77713013 188.14782715 C 329.13696289 190.36291504 334.36700439 192.58253479 339.33319092 195.17939758 C 344.22604370 197.75740051 348.74255371 200.53768921 352.93054199 203.69633484 C 356.92675781 206.75675964 360.49926758 210.11636353 363.77877808 213.85754395 C 366.72842407 217.95524597 368.89599609 222.48892212 370.30151367 227.77079773 C 371.60592651 233.43168640 373.05038452 239.14678955 361.61401367 253.45890808" stroke-width="1.21155488" fill="rgb(246, 183, 75)" opacity="1.0" stroke="rgb(201, 137, 0)" stroke-opacity="0.24764898" stroke-linecap="round" stroke-linejoin="round"/>
    <path d="M 349.13354492 282.91143799 C 334.58413696 279.63513184 325.75338745 273.33764648 319.41409302 275.12927246 C 311.00833130 284.74276733 301.18414307 285.64544678 292.71850586 277.28414917 C 286.37780762 276.61557007 280.35922241 283.12167358 271.78494263 287.83203125 C 262.76925659 287.92346191 256.30377197 281.91366577 251.19984436 274.25161743 C 244.46702576 274.39843750 235.64289856 277.22817993 224.49707031 276.73519897 C 212.06706238 276.76596069 200.45986938 275.44207764 190.94436646 273.08038330 C 183.99877930 278.22140503 177.41996765 283.54605103 169.81814575 284.41381836 C 163.12550354 283.26922607 160.14369202 279.33532715 161.16584778 273.82263184 C 162.81895447 268.40524292 161.22927856 265.56802368 156.04280090 266.01190186 C 149.44511414 268.34667969 143.36015320 268.77465820 139.60197449 265.74423218 C 139.20951843 261.34414673 142.91398621 257.34042358 149.00102234 255.23954773 C 155.77069092 257.63839722 164.19282532 261.36071777 174.93743896 263.92105103 C 187.56950378 266.27081299 201.70755005 267.41741943 217.09243774 267.56585693 C 233.23103333 267.76281738 249.65705872 267.86248779 266.01821899 267.71157837 C 281.96920776 267.41906738 297.18734741 266.54556274 311.54534912 265.48535156 C 324.75082397 264.39089966 336.34753418 262.40072632 346.02444458 259.47036743 C 353.80899048 255.90835571 360.10681152 253.81851196 365.50302124 254.49078369 C 369.92501831 256.22219849 372.51776123 258.59143066 372.50469971 261.49990845 C 370.41372681 264.60784912 366.81631470 266.23596191 361.99307251 265.55343628 C 356.88714600 263.76046753 353.03552246 261.36401367 349.13354492 282.91143799" stroke-width="1.85691249" fill="rgb(165, 210, 104)" opacity="1.0" stroke="rgb(109, 146, 61)" stroke-opacity="0.60773283" stroke-linecap="round" stroke-linejoin="round"/>
    <path d="M 283.58392334 219.39459229 C 285.03976440 219.71902466 286.52020264 220.21908569 287.90985107 220.76922607 C 289.27578735 221.01008606 290.59631348 221.16656494 291.86877441 221.39950562 C 292.98263550 221.56098938 293.80282593 221.63410950 294.55831909 221.62309265 C 295.11688232 221.88171387 295.51727295 222.23406982 295.75177002 222.64379883 C 295.78326416 223.12988281 295.64627075 223.63584900 295.43014526 224.08906555 C 295.07766724 224.42286682 294.58462524 224.61805725 294.00631714 224.79917908 C 293.21682739 224.79585266 292.27822876 224.70886230 291.35870361 224.65672302 C 290.36807251 224.54313660 289.24011230 224.26069641 288.09445190 223.88305664 C 286.84814453 223.57740784 285.46612549 223.36613464 283.94503784 223.09741211 C 282.46270752 222.66845703 281.00390625 222.09939575 283.58392334 219.39459229" stroke-width="0.98328310" fill="rgb(250, 249, 234)" opacity="1.0" stroke="rgb(229, 213, 165)" stroke-opacity="0.6207153" stroke-linecap="round" stroke-linejoin="round"/>
    <path d="M 226.74012756 187.06387329 C 227.67279053 186.99592590 228.52458191 186.91467285 229.29319763 186.80555725 C 230.08663940 186.58248901 230.84941101 186.53511047 231.57220459 186.71551514 C 232.20353699 186.95793152 232.72842407 187.15690613 233.15672302 187.34248352 C 233.47518921 187.52383423 233.60644531 187.68518066 233.61451721 187.86460876 C 233.37905884 188.10444641 233.00224304 188.31213379 232.53404236 188.56072998 C 231.92860413 188.80717468 231.19004822 188.96743774 230.52006531 188.98342896 C 229.80285645 188.97428894 229.05447388 189.05094910 228.31909180 189.19747925 C 227.61502075 189.67355347 226.84202576 190.04586792 226.02757263 190.32708740 C 225.37255859 190.51304626 224.71359253 190.37219238 224.01858521 189.99064636 C 223.32461548 189.54501343 222.55101013 189.01676941 226.74012756 187.06387329" stroke-width="0.78576589" fill="rgb(253, 249, 226)" opacity="1.0" stroke="rgb(241, 245, 221)" stroke-opacity="0.6432772" stroke-linecap="round" stroke-linejoin="round"/>
    <path d="M 277.48080444 188.75164795 C 277.89248657 189.07447815 278.43527222 189.36228943 278.93255615 189.61361694 C 279.22225952 190.00813293 279.43106079 190.41654968 279.73263550 190.69136047 C 280.10540771 190.76600647 280.42230225 190.79396057 280.66674805 190.90527344 C 280.76519775 191.09693909 280.68997192 191.24253845 280.44949341 191.39704895 C 280.13113403 191.53361511 279.78137207 191.72436523 279.37796021 191.85870361 C 278.89868164 191.97637939 278.31402588 192.07025146 277.56945801 192.20478821 C 276.85168457 192.17840576 276.13052368 192.13232422 275.40426636 192.13880920 C 274.65789795 192.01112366 273.84844971 191.91734314 272.95263672 191.77832031 C 272.01116943 191.67907715 271.24908447 191.43803406 270.75115967 190.82972717 C 270.25323486 190.01451111 269.63214111 188.98390198 277.48080444 188.75164795" stroke-width="0.87946576" fill="rgb(252, 250, 240)" opacity="1.0" stroke="rgb(241, 226, 199)" stroke-opacity="0.6981344" stroke-linecap="round" stroke-linejoin="round"/>
    <path d="M 331.81018066 209.40153503 C 332.74746704 209.77098083 333.67346191 210.13165283 334.60693359 210.45658875 C 335.50369263 210.69419861 336.28506470 211.03013611 336.97305298 211.45864868 C 337.61935425 211.88862610 338.07812500 212.29800415 338.41030884 212.64189148 C 338.63031006 212.91877747 338.50454712 213.30908203 338.10668945 213.63949585 C 337.68301392 213.90093994 337.22625732 214.14886475 336.71673584 214.35371399 C 336.09576416 214.41552734 335.45889282 214.37957764 334.77630615 214.32463074 C 334.05749512 214.03117371 333.31881714 213.74266052 332.52334595 213.56225586 C 331.80090332 213.20889282 331.10302734 212.97463989 330.44183350 212.69398499 C 329.86343384 212.19979858 329.46148682 211.54696655 329.24884033 210.81651306 C 329.02804565 210.09098816 328.74917603 209.38929749 331.81018066 209.40153503" stroke-width="0.94577539" fill="rgb(251, 245, 221)" opacity="1.0" stroke="rgb(236, 222, 178)" stroke-opacity="0.56441206" stroke-linecap="round" stroke-linejoin="round"/>
    <path d="M 257.48226929 198.87052917 C 256.83688354 198.73994446 256.24481201 198.73602295 255.71237183 198.67428589 C 255.33267212 198.40997314 255.03967285 198.01467896 254.75611877 197.63000488 C 254.52685547 197.30314636 254.23768616 196.99142456 254.00769043 196.65777588 C 253.90998840 196.37023926 254.04444885 196.14363098 254.28770447 195.98855591 C 254.58956909 195.80296326 255.02301025 195.74287415 255.49406433 195.71031189 C 256.02954102 195.64248657 256.60848999 195.55580139 257.22778320 195.50186157 C 257.78839111 195.34614563 258.34945679 195.14994812 258.95953369 195.14973450 C 259.62338257 195.20756531 260.27593994 195.27621460 260.85421753 195.33647156 C 261.35986328 195.47344971 261.89596558 195.66604614 262.42831421 196.01850891 C 262.87265015 196.50224304 263.25247192 197.05921936 257.48226929 198.87052917" stroke-width="0.94173145" fill="rgb(252, 247, 225)" opacity="1.0" stroke="rgb(246, 243, 213)" stroke-opacity="0.5945672" stroke-linecap="round" stroke-linejoin="round"/>
    <path d="M 312.27972412 213.05509949 C 311.69509888 212.61296082 311.02172852 212.34637451 310.28643799 212.08375549 C 309.55984497 211.64828491 308.98486328 211.32720947 308.54129028 210.98558044 C 308.09381104 210.47816467 307.74996948 209.92092896 307.51443481 209.47116089 C 307.36660767 209.19830322 307.41442871 208.92588806 307.70855713 208.61056519 C 308.06353760 208.26300049 308.43005371 208.02476501 308.93801880 207.99601746 C 309.52597046 208.07920837 310.16455078 208.24499512 310.79495239 208.65423584 C 311.49774170 209.03010559 312.24594116 209.35276794 313.03195190 209.69813538 C 313.86264038 210.07951355 314.58874512 210.42808533 315.10202026 210.78907776 C 315.44104004 211.19406128 315.64495850 211.80580139 315.62457275 212.45028687 C 315.73553467 213.03671265 315.79589844 213.64918518 312.27972412 213.05509949" stroke-width="0.98094493" fill="rgb(252, 251, 241)" opacity="1.0" stroke="rgb(229, 221, 198)" stroke-opacity="0.534461" stroke-linecap="round" stroke-linejoin="round"/>
    <path d="M 192.27642822 209.29559326 C 192.73626709 209.32868958 193.19836426 209.40145874 193.57868958 209.44624329 C 193.94252014 209.49345398 194.31236267 209.55676270 194.63150024 209.65036011 C 194.79861450 209.82685852 194.79197693 210.04513550 194.71717834 210.35899353 C 194.67169189 210.73837280 194.51658630 211.05592346 194.31874084 211.35221863 C 193.87416077 211.54981995 193.42854309 211.78181458 193.05108643 212.15014648 C 192.62263489 212.53871155 192.24845886 212.94523621 191.86105347 213.37231445 C 191.37007141 213.58537292 190.82707214 213.63809204 190.22990417 213.61256409 C 189.60395813 213.62562561 189.00996399 213.60525513 188.53312683 213.58778381 C 188.10214233 213.47482300 187.69979858 213.14640808 187.34629822 212.59202576 C 187.03643799 211.95741272 186.74406433 211.33520508 192.27642822 209.29559326" stroke-width="1.04183173" fill="rgb(252, 246, 222)" opacity="1.0" stroke="rgb(239, 218, 173)" stroke-opacity="0.57799995" stroke-linecap="round" stroke-linejoin="round"/>
    <path d="M 271.16705322 181.64274597 C 271.17868042 182.06872559 271.16342163 182.46051025 271.12368774 182.78965759 C 270.98699951 183.14080811 270.79956055 183.49176025 270.47683716 183.80870056 C 270.11123657 184.04286194 269.74691772 184.24928284 269.32986450 184.46438599 C 268.85601807 184.64033508 268.36340332 184.63813782 267.85510254 184.52856445 C 267.30526733 184.53330994 266.72961426 184.58587646 266.11917114 184.55448914 C 265.57397461 184.38122559 265.05404663 184.25999451 264.51925659 184.18374634 C 264.07839966 184.05271912 263.69467163 183.82009888 263.39538574 183.56726074 C 263.16302490 183.31704712 263.10040283 182.97865295 263.09381104 182.70205688 C 263.28280640 182.35156250 263.66024780 182.04562378 264.14199829 181.65724182 C 264.83807373 181.33641052 265.43154907 180.79331970 271.16705322 181.64274597" stroke-width="0.81279600" fill="rgb(249, 249, 231)" opacity="1.0" stroke="rgb(226, 209, 204)" stroke-opacity="0.39708623" stroke-linecap="round" stroke-linejoin="round"/>
    <path d="M 245.64402771 190.81381226 C 245.29400635 190.66757202 244.92630005 190.60420227 244.47219849 190.53077698 C 244.04077148 190.30264282 243.70411682 190.06660461 243.47326660 189.81526184 C 243.30458069 189.54559326 243.14338684 189.23635864 243.09182739 188.97888184 C 243.17306519 188.71784973 243.40982056 188.50381470 243.77780151 188.32373047 C 244.23374939 188.14311218 244.77235413 188.01219177 245.35116577 187.86309814 C 245.95416260 187.75524902 246.58917236 187.73367310 247.19223022 187.84349060 C 247.76066589 188.00349426 248.29455566 188.09109497 248.88253784 188.12091064 C 249.44998169 188.13781738 250.04006958 188.24580383 250.62205505 188.39291382 C 251.09977722 188.56254578 251.44079590 188.75842285 251.60218811 189.17848206 C 251.56614685 189.82629395 251.55978394 190.62989807 245.64402771 190.81381226" stroke-width="0.87874800" fill="rgb(255, 254, 241)" opacity="1.0" stroke="rgb(234, 242, 240)" stroke-opacity="0.52727664" stroke-linecap="round" stroke-linejoin="round"/>
    <path d="M 239.93852234 210.61834717 C 240.06274414 210.88475037 240.16084290 211.15173340 240.22518921 211.43429565 C 240.25737000 211.72160339 240.21932983 211.96754456 240.11720276 212.27822876 C 239.96667480 212.59835815 239.74996948 212.89503479 239.44976807 213.14894104 C 239.12025452 213.42835999 238.78591919 213.65936279 238.43605042 213.89727783 C 238.08349609 214.06585693 237.56713867 214.12213135 237.06271362 214.20196533 C 236.53450012 214.19908142 235.96484375 214.21479797 235.38891602 214.32164001 C 234.83801270 214.35455322 234.26542664 214.13832092 233.65979004 213.81881714 C 233.06965637 213.67311096 232.55406189 213.65342712 232.04020691 213.49003601 C 231.70066833 213.23138428 231.58592224 212.86369324 231.73554993 212.34439087 C 232.14135742 211.57728577 232.60142517 210.64733887 239.93852234 210.61834717" stroke-width="0.89232677" fill="rgb(252, 249, 230)" opacity="1.0" stroke="rgb(240, 227, 181)" stroke-opacity="0.62979037" stroke-linecap="round" stroke-linejoin="round"/>
    <path d="M 314.64913940 224.60290527 C 315.05459595 224.90902710 315.52960205 225.22076416 316.07760620 225.42602539 C 316.56582642 225.40258789 317.09060669 225.41186523 317.51574707 225.49598694 C 317.90084839 225.65621948 318.24832153 225.91418457 318.53723145 226.18089294 C 318.73721313 226.57302856 318.93557739 226.93496704 318.93771362 227.28115845 C 318.82409668 227.67277527 318.53109741 228.00822449 318.14898682 228.32208252 C 317.72970581 228.66983032 317.34524536 229.03163147 316.87890625 229.31378174 C 316.25726318 229.46405029 315.62442017 229.44758606 314.94119263 229.33905029 C 314.22164917 229.15007019 313.48477173 228.86982727 312.76361084 228.46340942 C 312.14349365 227.85467529 311.53952026 227.25860596 310.93972778 226.57321167 C 310.53778076 225.62057495 310.23120117 224.52796936 314.64913940 224.60290527" stroke-width="1.00029278" fill="rgb(251, 243, 221)" opacity="1.0" stroke="rgb(225, 207, 161)" stroke-opacity="0.48286512" stroke-linecap="round" stroke-linejoin="round"/>
    <path d="M 238.26455688 194.43933105 C 238.45007324 194.60699463 238.65844727 194.74902344 238.94865417 194.88478088 C 239.21281433 195.02592468 239.38334656 195.13456726 239.44993591 195.34909058 C 239.36363220 195.61473083 239.23208618 195.89888000 239.08854675 196.24127197 C 238.90892029 196.58918762 238.61485291 196.80880737 238.21968079 196.96771240 C 237.79658508 197.11752319 237.41052246 197.33100891 236.97445679 197.54109192 C 236.51939392 197.70640564 236.05740356 197.71279907 235.55883789 197.69778442 C 235.09611511 197.79583740 234.74078369 198.02734375 234.33218384 198.11056519 C 233.87396240 197.98066711 233.40715027 197.83221436 232.92904663 197.67912292 C 232.58616638 197.31983948 232.23783875 196.81939697 231.94096375 196.19468689 C 231.79095459 195.46134949 231.64973450 194.70892334 238.26455688 194.43933105" stroke-width="0.80184323" fill="rgb(252, 250, 222)" opacity="1.0" stroke="rgb(242, 236, 197)" stroke-opacity="0.63988787" stroke-linecap="round" stroke-linejoin="round"/>
    <path d="M 209.00730896 194.86610413 C 208.49342346 194.65321350 208.00350952 194.46704102 207.56411743 194.30491638 C 207.13929749 194.23805237 206.83782959 194.08483887 206.66743469 193.90573120 C 206.57386780 193.65336609 206.61352539 193.29841614 206.75875854 193.00465393 C 207.01274109 192.69837952 207.36575317 192.37921143 207.85423279 192.13148499 C 208.36691284 191.82109070 208.89895630 191.52047729 209.46766663 191.23585510 C 210.09333801 191.08718872 210.72006226 190.96043396 211.27458191 190.81695557 C 211.80850220 190.84497070 212.26426697 190.98852539 212.72543335 191.30955505 C 213.23167419 191.60539246 213.55471802 191.98875427 213.63172913 192.39305115 C 213.60826111 192.75746155 213.43951416 193.16685486 213.21070862 193.57472229 C 212.94570923 194.02738953 212.56942749 194.51063538 209.00730896 194.86610413" stroke-width="0.82405943" fill="rgb(250, 245, 221)" opacity="1.0" stroke="rgb(238, 245, 217)" stroke-opacity="0.53573346" stroke-linecap="round" stroke-linejoin="round"/>
    <path d="M 257.38922119 222.75917053 C 257.06094360 222.38722229 256.65145874 222.08473206 256.17047119 221.78904724 C 255.74789429 221.52809143 255.50172424 221.28042603 255.44384766 221.06398010 C 255.47386169 220.81269836 255.66256714 220.61485291 255.98944092 220.38841248 C 256.36749268 220.07991028 256.85406494 219.80252075 257.29275513 219.48864746 C 257.79956055 219.31068420 258.35195923 219.09573364 258.92294312 218.98017883 C 259.56704712 219.00849915 260.30126953 219.06767273 261.05923462 219.10533142 C 261.74172974 219.21337891 262.30569458 219.41192627 262.72372437 219.61505127 C 263.07113647 219.78729248 263.33795166 220.04212952 263.40188599 220.32783508 C 263.26257324 220.66990662 262.94277954 221.08329773 262.57385254 221.54496765 C 262.18173218 222.05694580 261.75146484 222.71037292 257.38922119 222.75917053" stroke-width="0.98607635" fill="rgb(253, 252, 237)" opacity="1.0" stroke="rgb(234, 221, 188)" stroke-opacity="0.49590546" stroke-linecap="round" stroke-linejoin="round"/>
    <path d="M 217.46014404 229.98265076 C 216.93598938 229.72050476 216.42919922 229.43035889 215.96147156 229.15528870 C 215.58908081 228.80873108 215.24775696 228.45755005 214.91342163 228.10925293 C 214.72868347 227.77580261 214.64773560 227.40185547 214.63153076 227.07502747 C 214.77273560 226.69093323 214.96789551 226.25756836 215.20606995 225.82905579 C 215.43457031 225.39219666 215.72358704 225.00425720 216.00308228 224.60008240 C 216.43826294 224.25637817 216.83627319 223.94775391 217.25477600 223.72792053 C 217.78424072 223.64759827 218.35679626 223.55123901 218.85203552 223.43711853 C 219.20094299 223.25584412 219.48823547 223.24343872 219.78594971 223.42839050 C 219.96632385 223.80648804 220.05761719 224.29899597 220.28868103 224.95814514 C 220.45913696 225.65292358 220.69985962 226.30270386 217.46014404 229.98265076" stroke-width="1.03653693" fill="rgb(251, 248, 228)" opacity="1.0" stroke="rgb(230, 214, 162)" stroke-opacity="0.521463" stroke-linecap="round" stroke-linejoin="round"/>
    <path d="M 285.74407959 205.22370911 C 286.24734497 205.40153503 286.64559937 205.45683289 287.07757568 205.52540588 C 287.51049805 205.78361511 287.95593262 206.10722351 288.38430786 206.39700317 C 288.73272705 206.61578369 288.96609497 206.85028076 289.05389404 207.13409424 C 289.05007935 207.47732544 288.97207642 207.81111145 288.86981201 208.16760254 C 288.64663696 208.45184326 288.24526978 208.62132263 287.79901123 208.82185364 C 287.32327271 209.06872559 286.84912109 209.28524780 286.38092041 209.34220886 C 285.93695068 209.32940674 285.46655273 209.14154053 285.01446533 208.89672852 C 284.58819580 208.68286133 284.22146606 208.46420288 283.81661987 208.23234558 C 283.59176636 207.81224060 283.48532104 207.34330750 283.35641479 206.86492920 C 283.23196411 206.51129150 283.16421509 206.20861816 285.74407959 205.22370911" stroke-width="1.02475297" fill="rgb(251, 255, 245)" opacity="1.0" stroke="rgb(237, 229, 193)" stroke-opacity="0.68886095" stroke-linecap="round" stroke-linejoin="round"/>
    <path d="M 196.06835938 196.61199951 C 195.80172729 197.09011841 195.61050415 197.51699829 195.44787598 197.83100891 C 195.16921997 198.15043640 194.74865723 198.42935181 194.31602478 198.72428894 C 193.97610474 199.02862549 193.68849182 199.46717834 193.34454346 199.81805420 C 192.94895935 200.07882690 192.59988403 200.32987976 192.23315430 200.51638794 C 191.83741760 200.61399841 191.35902405 200.61476135 190.92823792 200.43295288 C 190.53395081 200.06488037 190.23200989 199.72146606 189.89663696 199.57528687 C 189.53736877 199.43997192 189.27050781 199.19735718 189.15354919 198.97935486 C 189.24559021 198.73889160 189.41804504 198.41444397 189.78968811 198.05415344 C 190.24443054 197.64968872 190.80043030 197.32508850 191.29858398 196.82324219 C 191.98191833 196.23629761 192.62591553 195.55429077 196.06835938 196.61199951" stroke-width="0.99026948" fill="rgb(249, 247, 232)" opacity="1.0" stroke="rgb(235, 219, 182)" stroke-opacity="0.47832757" stroke-linecap="round" stroke-linejoin="round"/>
    <path d="M 212.57858276 211.22621155 C 212.88633728 211.53024292 213.20893860 211.82633972 213.45237732 212.06382751 C 213.55410767 212.28411865 213.55349731 212.56219482 213.48242188 212.82766724 C 213.28479004 213.07437134 212.99813843 213.28514099 212.70362854 213.48005676 C 212.32699585 213.56872559 211.92353821 213.62713623 211.49760437 213.69850159 C 211.03063965 213.81820679 210.48963928 213.89517212 209.94171143 213.96823120 C 209.44989014 214.00950623 208.95736694 213.98908997 208.45935059 213.87051392 C 208.01632690 213.72587585 207.63699341 213.56983948 207.34910583 213.40032959 C 207.28330994 213.12712097 207.24081421 212.81811523 207.20178223 212.47764587 C 207.38688660 212.09654236 207.69102478 211.71697998 208.05143738 211.28579712 C 208.49203491 210.86322021 208.88641357 210.30758667 212.57858276 211.22621155" stroke-width="0.90003866" fill="rgb(252, 246, 224)" opacity="1.0" stroke="rgb(236, 235, 207)" stroke-opacity="0.5726007" stroke-linecap="round" stroke-linejoin="round"/>
    <path d="M 209.63488770 202.13208008 C 209.56506348 202.27209473 209.51408386 202.53254700 209.42037964 202.67274475 C 209.31079102 202.79197693 209.12297058 202.91273499 208.87246704 203.08447266 C 208.57704163 203.29609680 208.22517395 203.45957947 207.85089111 203.58621216 C 207.44931030 203.71661377 206.99308777 203.86360168 206.52729797 203.96128845 C 206.08242798 203.98403931 205.56414795 203.89068604 205.03219604 203.70826721 C 204.55256653 203.58474731 204.09197998 203.34683228 203.59451294 202.97203064 C 203.11395264 202.62297058 202.75534058 202.37094116 202.57203674 202.22520447 C 202.66178894 202.01257324 202.96713257 201.72824097 203.39961243 201.50234985 C 203.99070740 201.35885620 204.73631287 201.12728882 205.64762878 200.92012024 C 206.61540222 200.72874451 207.66108704 200.42411804 209.63488770 202.13208008" stroke-width="0.91808063" fill="rgb(252, 245, 196)" opacity="1.0" stroke="rgb(237, 226, 170)" stroke-opacity="0.5245781" stroke-linecap="round" stroke-linejoin="round"/>
    <path d="M 265.06311035 211.07991028 C 264.77014160 210.83166504 264.42773438 210.56959534 264.07260132 210.45976257 C 263.78948975 210.43493652 263.49725342 210.35195923 263.27911377 210.20138550 C 263.26577759 209.97274780 263.32385254 209.77444458 263.47140503 209.61207581 C 263.75576782 209.46678162 264.14282227 209.24038696 264.57199097 208.97064209 C 265.06518555 208.76901245 265.59689331 208.61445618 266.12655640 208.47354126 C 266.63192749 208.39659119 267.16744995 208.31556702 267.76986694 208.23291016 C 268.29769897 208.20611572 268.76123047 208.19895935 269.14654541 208.12669373 C 269.40243530 208.00605774 269.66021729 207.98764038 269.81173706 208.16682434 C 269.89990234 208.47291565 269.91101074 208.90486145 269.87417603 209.38665771 C 269.78921509 209.94419861 269.72085571 210.55879211 265.06311035 211.07991028" stroke-width="0.96114367" fill="rgb(250, 248, 224)" opacity="1.0" stroke="rgb(246, 250, 230)" stroke-opacity="0.56311744" stroke-linecap="round" stroke-linejoin="round"/>
    <path d="M 297.42990112 191.11112976 C 297.24765015 190.65658569 297.07635498 190.24177551 297.02722168 189.80259705 C 297.06607056 189.32772827 297.23355103 188.94091797 297.47689819 188.63949585 C 297.81167603 188.47857666 298.17431641 188.41596985 298.63720703 188.35571289 C 299.14614868 188.33990479 299.68035889 188.33229065 300.21957397 188.27380371 C 300.69866943 188.27348328 301.16397095 188.32667542 301.60089111 188.41368103 C 302.07284546 188.47286987 302.51000977 188.48162842 302.90435791 188.65583801 C 303.17831421 188.81794739 303.34536743 189.04483032 303.41632080 189.29602051 C 303.47937012 189.55766296 303.40441895 189.86950684 303.24310303 190.23332214 C 302.95635986 190.60137939 302.52609253 190.85980225 301.97970581 191.21835327 C 301.47088623 191.64355469 301.07522583 192.09623718 297.42990112 191.11112976" stroke-width="1.01742566" fill="rgb(254, 251, 242)" opacity="1.0" stroke="rgb(223, 219, 217)" stroke-opacity="0.41597664" stroke-linecap="round" stroke-linejoin="round"/>
    <path d="M 291.78201294 185.76071167 C 291.67504883 185.31834412 291.48245239 184.89891052 291.22964478 184.63941956 C 290.94973755 184.50617981 290.74160767 184.31907654 290.66027832 184.08702087 C 290.77069092 183.92878723 290.96951294 183.76992798 291.19598389 183.52896118 C 291.41101074 183.20811462 291.60534668 182.85997009 291.85482788 182.63323975 C 292.20962524 182.44526672 292.63375854 182.30123901 293.11251831 182.18818665 C 293.59942627 182.08976746 294.09118652 182.06867981 294.51773071 182.12965393 C 294.93072510 182.20533752 295.28460693 182.27658081 295.48184204 182.38177490 C 295.54364014 182.57252502 295.61163330 182.70193481 295.73269653 182.93922424 C 295.83059692 183.33891296 295.89004517 183.87692261 295.90014648 184.43045044 C 295.79479980 184.96293640 295.67462158 185.49079895 291.78201294 185.76071167" stroke-width="0.97462696" fill="rgb(251, 254, 242)" opacity="1.0" stroke="rgb(230, 220, 191)" stroke-opacity="0.54081595" stroke-linecap="round" stroke-linejoin="round"/>
    <path d="M 317.77114868 195.84170532 C 317.24978638 195.72550964 316.80606079 195.58581543 316.42218018 195.42518616 C 316.08883667 195.15014648 315.75698853 194.77748108 315.37045288 194.44200134 C 315.03366089 194.23200989 314.70223999 194.01921082 314.48342896 193.70269775 C 314.33117676 193.34376526 314.34997559 193.04814148 314.56811523 192.80516052 C 314.88598633 192.47857666 315.27844238 192.17799377 315.68872070 192.01800537 C 316.11441040 191.93312073 316.59414673 191.85186768 317.09698486 191.68344116 C 317.50021362 191.61607361 317.75680542 191.82786560 318.10610962 192.16061401 C 318.52954102 192.41680908 318.95690918 192.55151367 319.30642700 192.60360718 C 319.57522583 192.82272339 319.75500488 193.30610657 319.81112671 193.95315552 C 319.94244385 194.52571106 320.07632446 195.01681519 317.77114868 195.84170532" stroke-width="0.88826621" fill="rgb(253, 249, 230)" opacity="1.0" stroke="rgb(233, 222, 185)" stroke-opacity="0.5358319" stroke-linecap="round" stroke-linejoin="round"/>
  </g>
</svg>
