<?xml version="1.0" ?>
<svg xmlns="http://www.w3.org/2000/svg" version="1.1" width="512" height="512" viewBox="0 0 512 512">
  <defs/>
  <g>
    <path d="M 407.84197998 400.28463745 C 395.49322510 400.29583740 383.13635254 400.28524780 370.73446655 400.26135254 C 358.21475220 400.19848633 345.45742798 400.29309082 332.46105957 400.19769287 C 319.23165894 400.20413208 305.73510742 400.26391602 291.97344971 400.28204346 C 277.95285034 400.29992676 263.78939819 400.34851074 249.47074890 400.26245117 C 235.02803040 400.20031738 220.59022522 400.34045410 206.26850891 400.19934082 C 192.21360779 400.17507935 178.52040100 400.24227905 165.28414917 400.26544189 C 152.69555664 400.26550293 141.06860352 400.13562012 130.58549500 400.23660278 C 121.36853027 400.19345093 113.62442017 400.26940918 107.67831421 400.33538818 C 103.94965363 400.38275146 102.32339478 399.37991333 102.65389252 397.26031494 C 105.02904510 394.43444824 109.00292206 390.65505981 114.23067474 385.67074585 C 120.56977844 379.66046143 127.69165039 372.37487793 135.53382874 364.27288818 C 144.26847839 355.61480713 153.51603699 346.35714722 163.32649231 336.82052612 C 173.51501465 326.94653320 184.07705688 316.95977783 194.65809631 306.67352295 C 205.14932251 296.11569214 215.58848572 285.49279785 226.10511780 274.99057007 C 236.44888306 264.48428345 246.66783142 254.08624268 257.33261108 244.36819458 C 267.85739136 234.72067261 277.94937134 224.82386780 287.52853394 214.61061096 C 297.18469238 204.68070984 306.81573486 194.99169922 316.43096924 185.58668518 C 325.72235107 176.23635864 334.71926880 167.10577393 343.51266479 158.40538025 C 351.83920288 150.05865479 359.79577637 142.40843201 366.98019409 135.24984741 C 373.21923828 128.68551636 378.84237671 123.26798248 383.49722290 119.09696960 C 386.78625488 115.97851562 389.10830688 114.62548828 390.81970215 115.60747528 C 391.81817627 118.58467102 392.24746704 123.41473389 392.49588013 129.97425842 C 393.16717529 137.96037292 394.09811401 147.21304321 394.92810059 157.62719727 C 395.85406494 168.87971497 396.63870239 180.87483215 397.55532837 193.51512146 C 398.48623657 206.60572815 399.34164429 219.95256042 400.42098999 233.32904053 C 401.45007324 246.74598694 402.39062500 260.14300537 403.22927856 273.43508911 C 403.99929810 286.54028320 404.73883057 299.31707764 405.80465698 311.78070068 C 406.53652954 323.96844482 407.44470215 335.80145264 408.37103271 347.30590820 C 409.01605225 358.53503418 410.02468872 369.49658203 410.77551270 380.16421509 C 411.79071045 390.60589600 413.23870850 400.75061035 407.84197998 400.28463745" stroke-width="1.16237354" fill="rgb(251, 214, 69)" opacity="1.0" stroke="rgb(222, 167, 21)" stroke-opacity="0.19278717" stroke-linecap="round" stroke-linejoin="round"/>
    <path d="M 198.15869141 327.74032593 C 196.86270142 329.82705688 195.43539429 331.83657837 193.69355774 333.54104614 C 191.76457214 335.01818848 189.76031494 336.44049072 187.80427551 337.76477051 C 185.88389587 338.68368530 183.96658325 339.19470215 181.93751526 339.56384277 C 179.78924561 339.58587646 177.71975708 339.66680908 175.78504944 339.54129028 C 173.87098694 339.01538086 171.98925781 338.42651367 170.23667908 337.90341187 C 168.51817322 337.10150146 166.92274475 336.03686523 165.58209229 334.81719971 C 164.56217957 333.12411499 163.55146790 331.30401611 162.40328979 329.39697266 C 161.51593018 327.39480591 160.69772339 325.45617676 160.06944275 323.55123901 C 159.95178223 321.53088379 159.99862671 319.40359497 159.99949646 317.28799438 C 160.01708984 315.26696777 160.35353088 313.38085938 161.03550720 311.61242676 C 162.02310181 309.86737061 163.08451843 308.10507202 164.18579102 306.39096069 C 165.50372314 304.89337158 166.94979858 303.47195435 168.61819458 302.32592773 C 170.44641113 301.44659424 172.36727905 300.71182251 174.30012512 300.17269897 C 176.25770569 299.94076538 178.25250244 299.95211792 180.22291565 300.09197998 C 182.10400391 300.29418945 183.92089844 300.80532837 185.67398071 301.46447754 C 187.33839417 302.18484497 188.89653015 303.05798340 190.46827698 304.03869629 C 191.95143127 305.00201416 193.25810242 305.97244263 194.33634949 307.15316772 C 195.02944946 308.61227417 195.63632202 310.19430542 196.38343811 311.83868408 C 197.51672363 313.28805542 198.30918884 314.82394409 198.99404907 316.61920166 C 199.73358154 318.51928711 200.66424561 320.50750732 198.15869141 327.74032593" stroke-width="2.00000000" fill="rgb(253, 254, 252)" opacity="1.0" stroke="rgb(169, 121, 218)" stroke-opacity="0.11638111" stroke-linecap="round" stroke-linejoin="round"/>
    <path d="M 303.70153809 253.71943665 C 303.70755005 255.67694092 303.47219849 257.69412231 302.97698975 259.59378052 C 302.04397583 261.31771851 300.98489380 263.09140015 299.88473511 264.98242188 C 298.59140015 266.68453979 296.97744751 268.26101685 295.32882690 269.85452271 C 293.46871948 271.27487183 291.31823730 272.34408569 289.00512695 273.30062866 C 286.69979858 274.21005249 284.45339966 274.76324463 281.93869019 274.92852783 C 279.32827759 274.74249268 276.97686768 274.69299316 274.75213623 274.66744995 C 272.44546509 274.38095093 270.39797974 273.62796021 268.48965454 272.49569702 C 266.52847290 271.23001099 264.55221558 270.03506470 262.64221191 268.65426636 C 260.88989258 266.72702026 259.25131226 264.54635620 257.81091309 262.26776123 C 256.77966309 259.79125977 255.78501892 257.14849854 254.79396057 254.55403137 C 254.51000977 252.05088806 254.35501099 249.52764893 254.23414612 246.98530579 C 254.84594727 244.67221069 255.92628479 242.55986023 257.16305542 240.24731445 C 258.20901489 237.89941406 259.19995117 235.47619629 260.35046387 233.23413086 C 262.02041626 231.31896973 264.03860474 229.71598816 266.21417236 228.39842224 C 268.40701294 227.27816772 270.46957397 226.18766785 272.48291016 225.13253784 C 274.73693848 224.93914795 277.11288452 225.05090332 279.49887085 225.53518677 C 281.88378906 225.73524475 284.26660156 225.62927246 286.70452881 225.83876038 C 289.22418213 226.71520996 291.82534790 228.04193115 294.45718384 229.73495483 C 296.93801880 231.60989380 299.08178711 233.77375793 300.56909180 236.58384705 C 302.26190186 239.20503235 304.27182007 241.62117004 303.70153809 253.71943665" stroke-width="2.00000000" fill="rgb(254, 255, 251)" opacity="1.0" stroke="rgb(116, 25, 143)" stroke-opacity="0.15315019" stroke-linecap="round" stroke-linejoin="round"/>
    <path d="M 357.72698975 347.45123291 C 357.69879150 349.26428223 357.51467896 351.13586426 357.03808594 352.88894653 C 356.73669434 354.57525635 356.36605835 356.28677368 355.74441528 357.84350586 C 354.69506836 358.96517944 353.70758057 360.19973755 352.69955444 361.45834351 C 351.76220703 362.58575439 350.76812744 363.61010742 349.37423706 364.34149170 C 347.58383179 364.91848755 345.57540894 365.68048096 343.57455444 366.43991089 C 341.57946777 366.58840942 339.55151367 366.61029053 337.52603149 366.66513062 C 335.62582397 366.38635254 333.95809937 365.90344238 332.31521606 365.35180664 C 330.72225952 364.64373779 329.26870728 363.70693970 327.98367310 362.66967773 C 326.75488281 361.56893921 325.55880737 360.50021362 324.61276245 359.14544678 C 324.01562500 357.57272339 323.37820435 355.82388306 322.72375488 354.07919312 C 322.30535889 352.45114136 322.27536011 350.77423096 322.27096558 349.03671265 C 322.35733032 347.23123169 322.44061279 345.45742798 322.84573364 343.75851440 C 323.75704956 342.09182739 324.77816772 340.26428223 325.80450439 338.51193237 C 327.32675171 337.23028564 329.02575684 335.92132568 330.70733643 334.72512817 C 332.54202271 334.04571533 334.45352173 333.37133789 336.19799805 332.68008423 C 337.76519775 332.50033569 339.29162598 332.51452637 340.77792358 332.65917969 C 342.23776245 332.84173584 343.68847656 333.09088135 345.20458984 333.34005737 C 346.63858032 333.53295898 348.05816650 334.13800049 349.59066772 334.76708984 C 351.00366211 335.78359985 352.35516357 336.97305298 353.61071777 338.48898315 C 354.92175293 340.19009399 356.27081299 341.89694214 357.72698975 347.45123291" stroke-width="2.00000000" fill="rgb(254, 254, 244)" opacity="1.0" stroke="rgb(179, 114, 33)" stroke-opacity="0.43850037" stroke-linecap="round" stroke-linejoin="round"/>
    <path d="M 240.14297485 192.94194031 C 237.83676147 193.04563904 235.71965027 193.59416199 233.74314880 194.50891113 C 231.81167603 195.39595032 229.77987671 196.03848267 227.76557922 196.37213135 C 225.95130920 196.43658447 224.03131104 196.36170959 222.40788269 196.02011108 C 221.37060547 194.89445496 220.32356262 193.75494385 219.03340149 192.73164368 C 218.04689026 191.45230103 216.99459839 190.38879395 215.98313904 189.50300598 C 215.14207458 188.71186829 214.39088440 188.09959412 213.93444824 187.22790527 C 214.00588989 185.84974670 214.02737427 183.87631226 213.87008667 181.48936462 C 213.93002319 179.11372375 214.31623840 176.80102539 215.18812561 174.58915710 C 216.41261292 172.52976990 217.43542480 170.37463379 218.24285889 168.45504761 C 219.30769348 167.07690430 220.55776978 166.01156616 221.69831848 164.93579102 C 223.07119751 164.22961426 224.59251404 163.88687134 226.24110413 163.78149414 C 228.02033997 163.90959167 229.80874634 164.08334351 231.56817627 164.09277344 C 233.18905640 164.00527954 234.52352905 163.82545471 235.60807800 164.02381897 C 236.35951233 164.93701172 237.40522766 165.06011963 238.63595581 165.01264954 C 239.47390747 165.92759705 240.44564819 167.12391663 241.73965454 168.20471191 C 242.60707092 169.72660828 243.40225220 171.22898865 244.22677612 172.81813049 C 244.94755554 174.60256958 245.63578796 176.43280029 246.08911133 178.37481689 C 245.97180176 180.54064941 246.07682800 182.84306335 245.99499512 184.77796936 C 245.23190308 186.01329041 244.39820862 186.87681580 243.96633911 187.68292236 C 244.38191223 188.72428894 244.81285095 189.39591980 240.14297485 192.94194031" stroke-width="0.61120069" fill="rgb(255, 255, 255)" opacity="1.0" stroke="rgb(255, 255, 255)" stroke-opacity="0.0" stroke-linecap="round" stroke-linejoin="round"/>
    <path d="M 347.32116699 220.24391174 C 345.44769287 219.72990417 343.59918213 219.23214722 341.98773193 218.45338440 C 340.35800171 217.62014771 338.83593750 216.42463684 337.28845215 215.20713806 C 335.73153687 213.89961243 334.25088501 212.57371521 333.14596558 211.01869202 C 332.12521362 209.02937317 331.23193359 206.79939270 330.53482056 204.43371582 C 330.42346191 202.16593933 330.43115234 199.78153992 330.47058105 197.34748840 C 330.59307861 195.09114075 331.04638672 193.04589844 331.81274414 191.07862854 C 333.08044434 189.44638062 334.13790894 187.70704651 335.03137207 186.08294678 C 336.58233643 184.88435364 338.14395142 183.57815552 339.64807129 182.35313416 C 341.44314575 181.30632019 343.27816772 180.48199463 345.16549683 179.77995300 C 347.15310669 179.45616150 349.24737549 179.14576721 351.31677246 178.76686096 C 353.34152222 179.02532959 355.43682861 179.25462341 357.61950684 179.56896973 C 359.74713135 180.28698730 361.64175415 181.25296021 363.44586182 182.43261719 C 365.19458008 183.68327332 366.79598999 185.09211731 368.24542236 186.66090393 C 369.62661743 188.29977417 370.52499390 190.18629456 371.20153809 192.18618774 C 371.75238037 194.26802063 372.21893311 196.32632446 372.37792969 198.45428467 C 372.49499512 200.68312073 372.44549561 202.77020264 372.20190430 204.80720520 C 371.53958130 206.68037415 370.66351318 208.43315125 369.93640137 210.25057983 C 369.05432129 212.00941467 367.81097412 213.57809448 366.15274048 214.94587708 C 364.45251465 216.54504395 362.49362183 217.88356018 360.19296265 218.80929565 C 357.66116333 219.90640259 355.15481567 221.06008911 347.32116699 220.24391174" stroke-width="2.00000000" fill="rgb(254, 255, 249)" opacity="1.0" stroke="rgb(181, 113, 59)" stroke-opacity="0.4715937" stroke-linecap="round" stroke-linejoin="round"/>
    <path d="M 137.98300171 213.42895508 C 138.88537598 212.92211914 139.64105225 212.14331055 140.32586670 211.08953857 C 141.20671082 210.19201660 142.03521729 209.32911682 142.98664856 208.90513611 C 144.07319641 209.14656067 144.80096436 209.00961304 145.31021118 208.20185852 C 146.16281128 207.82792664 147.36952209 207.86785889 148.88464355 207.94541931 C 150.35906982 207.90400696 151.68151855 208.08328247 152.95704651 208.71334839 C 154.28141785 209.14602661 155.58151245 209.72868347 156.89393616 210.22257996 C 157.80418396 211.30728149 158.82838440 212.43713379 159.81201172 213.56730652 C 160.13743591 215.05972290 160.66688538 216.40763855 161.77664185 217.29365540 C 162.37673950 218.11125183 162.38911438 219.26794434 161.83099365 220.53663635 C 161.02578735 221.78430176 160.15066528 222.99797058 159.42741394 224.24810791 C 159.10270691 225.54756165 159.06419373 226.77456665 159.03219604 227.79122925 C 158.33662415 228.53076172 157.36495972 228.82983398 156.33238220 229.28488159 C 155.48532104 230.16784668 154.52888489 231.04302979 153.72113037 231.96090698 C 152.78567505 232.25382996 151.74633789 232.21212769 150.60829163 231.98503113 C 149.37541199 231.70364380 148.20216370 231.36038208 147.02680969 230.72711182 C 146.12284851 229.69670105 145.13018799 228.66889954 144.27053833 227.71104431 C 143.89044189 226.64476013 143.47474670 225.90467834 142.83779907 225.26768494 C 141.99632263 224.63432312 141.26171875 223.83691406 140.56594849 222.98425293 C 139.82333374 222.11926270 139.21954346 221.19685364 138.87539673 220.06701660 C 138.62940979 218.82987976 138.06968689 217.68965149 137.98300171 213.42895508" stroke-width="1.13952911" fill="rgb(255, 255, 255)" opacity="1.0" stroke="rgb(255, 255, 255)" stroke-opacity="0.0" stroke-linecap="round" stroke-linejoin="round"/>
    <path d="M 305.65789795 315.22158813 C 304.03457642 315.38659668 302.43289185 315.43637085 300.78613281 315.70648193 C 299.06060791 315.60943604 297.36413574 315.51544189 295.62387085 315.22204590 C 293.85086060 314.73806763 292.21350098 314.03677368 290.67962646 313.20947266 C 289.25170898 312.27148438 288.02395630 311.12695312 286.93173218 309.87539673 C 286.18270874 308.35961914 285.54693604 306.88684082 284.79306030 305.45864868 C 284.40277100 304.00723267 283.98590088 302.59265137 283.71417236 301.12075806 C 283.79360962 299.60827637 283.76165771 298.01043701 283.69567871 296.29199219 C 284.26330566 294.64947510 284.99960327 293.03979492 285.79019165 291.32022095 C 286.76898193 289.91754150 288.02926636 288.65866089 289.27319336 287.55017090 C 290.73846436 286.61102295 292.22006226 285.64215088 293.68731689 284.91943359 C 295.30880737 284.57171631 296.99691772 284.11090088 298.64968872 283.58374023 C 300.25469971 283.59445190 301.87844849 283.65695190 303.54565430 283.73196411 C 305.07617188 284.35983276 306.60809326 284.96527100 308.15472412 285.48861694 C 309.65567017 285.90802002 310.92926025 286.61431885 312.02838135 287.64834595 C 313.18380737 288.92666626 314.40194702 290.10357666 315.26635742 291.52154541 C 316.07980347 293.16983032 316.68475342 294.92916870 317.28024292 296.58386230 C 317.43463135 298.17306519 317.39437866 299.84533691 317.33221436 301.54647827 C 317.04190063 302.94934082 316.52426147 304.35946655 316.04574585 305.85742188 C 315.36154175 307.19897461 314.36883545 308.41442871 313.40115356 309.73553467 C 312.60012817 311.24829102 311.64559937 312.81686401 305.65789795 315.22158813" stroke-width="2.00000000" fill="rgb(252, 253, 246)" opacity="1.0" stroke="rgb(175, 99, 52)" stroke-opacity="0.45475116" stroke-linecap="round" stroke-linejoin="round"/>
    <path d="M 196.68374634 387.75881958 C 194.66435242 387.58840942 192.61190796 387.30316162 190.59623718 386.76071167 C 188.65400696 386.09481812 186.82876587 385.13265991 185.14094543 383.91830444 C 183.48184204 382.48886108 182.03123474 380.88287354 180.80601501 379.07754517 C 179.66050720 377.16503906 178.66577148 375.21206665 177.77232361 373.41305542 C 177.30012512 371.63208008 177.28938293 369.83251953 177.55882263 367.94430542 C 178.10711670 365.96856689 178.42445374 363.89553833 178.74029541 361.80590820 C 179.45848083 359.83581543 180.24917603 357.91973877 181.01217651 356.05441284 C 182.11141968 354.42364502 183.40966797 353.10012817 184.87979126 351.88336182 C 186.47993469 350.84036255 188.03776550 349.89929199 189.54925537 349.21057129 C 191.19146729 349.10754395 192.91929626 349.37094116 194.68360901 349.52395630 C 196.58393860 349.54071045 198.49720764 349.49795532 200.38929749 349.43692017 C 202.19657898 349.34194946 203.95491028 349.19854736 205.68154907 349.24615479 C 207.31953430 349.81747437 208.87786865 350.79238892 210.31053162 352.10964966 C 211.76811218 353.58767700 213.17852783 355.15417480 214.50776672 356.78414917 C 215.43911743 358.64572144 216.08340454 360.64004517 216.58782959 362.62530518 C 216.79393005 364.75903320 216.84960938 366.93798828 216.85183716 368.97711182 C 216.67782593 370.98434448 216.16876221 372.97225952 215.57341003 374.90640259 C 214.76994324 376.74850464 213.64108276 378.38653564 212.45925903 380.03594971 C 211.08589172 381.63812256 209.46797180 383.05111694 207.64939880 384.26596069 C 205.70910645 385.52679443 203.76477051 386.97994995 196.68374634 387.75881958" stroke-width="2.00000000" fill="rgb(250, 204, 61)" opacity="1.0" stroke="rgb(174, 89, 6)" stroke-opacity="0.67687804" stroke-linecap="round" stroke-linejoin="round"/>
    <path d="M 371.98464966 311.25393677 C 370.45562744 311.84408569 368.87789917 312.20104980 367.22305298 312.48754883 C 365.54318237 312.55435181 363.84317017 312.54678345 362.14743042 312.33441162 C 360.36352539 311.75653076 358.54479980 311.18484497 356.77841187 310.39385986 C 355.19293213 309.39038086 353.64266968 308.28817749 352.30993652 306.97775269 C 351.05651855 305.59298706 350.01077271 304.03036499 349.22485352 302.34082031 C 348.49871826 300.46905518 348.07745361 298.56170654 347.66708374 296.60098267 C 347.49136353 294.69839478 347.33062744 292.77801514 347.30963135 290.92660522 C 347.60995483 289.16152954 348.11126709 287.38281250 349.01904297 285.65774536 C 350.03625488 283.99310303 351.06533813 282.34146118 352.30364990 280.79074097 C 353.74261475 279.43612671 355.38836670 278.45074463 357.35525513 277.72027588 C 359.39810181 276.98831177 361.46481323 276.24102783 363.63021851 275.71984863 C 365.76937866 275.50912476 367.87857056 275.39260864 369.90441895 275.59451294 C 371.85266113 276.24142456 373.64739990 276.94027710 375.34277344 277.67391968 C 376.88778687 278.59716797 378.29397583 279.67535400 379.49078369 280.87243652 C 380.52362061 282.30017090 381.40979004 283.83953857 382.20858765 285.33267212 C 382.91571045 286.89474487 383.72302246 288.53643799 384.38568115 290.13250732 C 384.61224365 291.81335449 384.66156006 293.48806763 384.64376831 295.14065552 C 384.35165405 296.73638916 383.87014771 298.25021362 383.18270874 299.84890747 C 382.70870972 301.43472290 381.85397339 302.93215942 380.71569824 304.35699463 C 379.53875732 305.98339844 378.46658325 307.72521973 371.98464966 311.25393677" stroke-width="2.00000000" fill="rgb(250, 203, 59)" opacity="1.0" stroke="rgb(176, 95, 8)" stroke-opacity="0.78783" stroke-linecap="round" stroke-linejoin="round"/>
    <path d="M 293.65966797 337.56948853 C 295.09649658 339.23583984 296.45291138 340.92337036 297.56686401 342.72366333 C 298.50085449 344.63168335 299.17819214 346.58245850 299.64413452 348.59829712 C 299.97894287 350.64578247 300.07748413 352.68801880 299.92190552 354.71466064 C 299.49789429 356.74499512 298.88934326 358.82495117 298.10845947 360.82669067 C 297.14010620 362.76751709 296.00985718 364.64791870 294.72427368 366.40432739 C 293.26779175 368.02532959 291.62786865 369.50775146 289.83734131 370.83114624 C 287.94290161 371.97021484 285.94479370 372.97528076 283.87585449 373.74014282 C 281.76165771 374.19146729 279.58911133 374.43154907 277.43829346 374.52490234 C 275.31228638 374.45928955 273.22109985 374.09487915 271.17019653 373.47219849 C 269.19085693 372.62124634 267.25006104 371.57992554 265.42098999 370.41644287 C 263.68139648 369.16723633 262.13220215 367.74530029 260.77410889 366.10153198 C 259.65463257 364.33255005 258.70492554 362.47286987 257.97195435 360.52413940 C 257.49130249 358.55368042 257.28735352 356.55838013 257.31134033 354.57424927 C 257.53259277 352.54663086 257.88586426 350.53936768 258.28289795 348.60565186 C 258.93911743 346.75823975 259.85955811 345.01803589 260.91567993 343.36938477 C 262.19564819 341.86584473 263.58688354 340.43304443 265.06326294 339.03848267 C 266.54675293 337.73294067 268.14962769 336.63497925 269.88348389 335.62640381 C 271.66140747 334.77749634 273.53286743 334.06332397 275.50802612 333.58020020 C 277.55459595 333.28363037 279.69869995 333.18945312 281.91821289 333.22128296 C 284.21948242 333.31576538 286.50674438 333.41931152 293.65966797 337.56948853" stroke-width="1.48872387" fill="rgb(240, 192, 54)" opacity="1.0" stroke="rgb(251, 223, 104)" stroke-opacity="0.99504006" stroke-linecap="round" stroke-linejoin="round"/>
    <path d="M 242.52033997 331.23809814 C 241.35485840 331.56900024 240.21841431 331.98645020 239.09063721 332.33343506 C 237.84140015 332.31344604 236.49366760 332.24450684 235.14677429 332.15838623 C 233.88423157 331.82723999 232.61428833 331.32336426 231.34297180 330.82928467 C 230.14830017 330.27230835 229.11412048 329.59902954 228.30346680 328.61859131 C 227.59681702 327.60241699 226.84825134 326.53741455 226.24482727 325.35513306 C 225.74107361 324.23950195 225.38273621 323.08935547 225.20433044 321.82556152 C 225.18377686 320.51043701 225.22640991 319.17715454 225.24943542 317.83087158 C 225.55691528 316.56204224 226.02238464 315.31329346 226.55487061 314.03149414 C 227.21374512 312.84811401 228.07545471 311.74694824 229.06797791 310.67568970 C 230.12600708 309.77319336 231.25965881 308.97625732 232.45582581 308.27838135 C 233.61882019 307.71310425 234.95002747 307.42886353 236.38075256 307.37051392 C 237.72380066 307.28768921 239.03941345 307.25634766 240.44416809 307.18957520 C 241.82723999 307.16430664 243.00502014 307.39532471 244.10046387 307.78720093 C 245.13578796 308.30209351 246.11138916 308.97171021 246.97967529 309.76522827 C 247.73342896 310.67123413 248.49716187 311.56497192 249.18933105 312.51281738 C 249.68887329 313.56994629 250.03221130 314.67709351 250.32978821 315.75415039 C 250.44515991 316.87316895 250.64129639 318.05133057 250.71934509 319.19335938 C 250.70138550 320.28994751 250.47793579 321.44937134 250.18632507 322.59631348 C 249.75505066 323.65057373 249.23229980 324.79696655 248.53135681 325.92114258 C 247.76927185 326.98504639 247.05964661 328.14627075 242.52033997 331.23809814" stroke-width="1.92363119" fill="rgb(249, 205, 61)" opacity="1.0" stroke="rgb(172, 97, 15)" stroke-opacity="0.6628735" stroke-linecap="round" stroke-linejoin="round"/>
    <path d="M 323.84204102 249.33357239 C 325.02096558 248.61674500 326.29132080 248.13349915 327.53921509 247.80946350 C 328.71487427 247.60829163 329.75201416 247.52992249 330.75222778 247.74896240 C 331.68029785 248.12094116 332.42428589 248.78218079 333.06179810 249.54859924 C 333.48318481 250.46546936 333.80029297 251.45108032 333.94772339 252.43022156 C 333.74652100 253.43392944 333.49618530 254.56101990 333.13546753 255.54920959 C 332.54525757 256.46453857 331.88211060 257.21362305 331.03955078 257.89428711 C 330.14205933 258.45541382 329.29843140 258.96160889 328.34017944 259.20468140 C 327.30514526 259.28329468 326.30746460 259.13134766 325.43844604 258.85855103 C 324.62918091 258.38250732 323.98611450 257.55398560 323.41973877 256.53634644 C 322.74661255 255.49163818 322.03573608 254.37521362 323.84204102 249.33357239" stroke-width="2.00000000" fill="rgb(203, 134, 30)" opacity="1.0" stroke="rgb(247, 245, 172)" stroke-opacity="0.49955693" stroke-linecap="round" stroke-linejoin="round"/>
    <path d="M 388.29510498 369.45101929 C 388.60705566 370.87829590 388.89401245 372.25381470 389.14950562 373.51666260 C 389.10894775 374.70095825 388.81036377 375.79986572 388.14715576 376.72982788 C 387.41238403 377.64685059 386.68692017 378.53216553 385.71835327 379.13937378 C 384.76077271 379.64492798 383.74169922 379.98327637 382.73132324 380.12127686 C 381.76770020 380.07208252 380.86056519 379.78292847 380.03656006 379.26452637 C 379.24728394 378.57324219 378.63894653 377.76480103 378.13442993 376.94342041 C 377.93978882 375.98425293 377.86734009 374.97274780 377.73648071 374.01757812 C 377.71737671 373.08407593 377.87063599 372.20205688 378.30990601 371.39764404 C 378.94183350 370.62579346 379.73382568 369.94686890 380.77688599 369.20544434 C 381.87536621 368.29388428 382.99221802 367.41952515 388.29510498 369.45101929" stroke-width="1.96040332" fill="rgb(206, 135, 30)" opacity="1.0" stroke="rgb(253, 237, 137)" stroke-opacity="0.47164702" stroke-linecap="round" stroke-linejoin="round"/>
  </g>
</svg>
