<?xml version="1.0" ?>
<svg xmlns="http://www.w3.org/2000/svg" version="1.1" width="512" height="512" viewBox="0 0 512 512">
  <defs/>
  <g>
    <path d="M 268.05264282 268.76995850 C 270.00994873 272.35687256 271.99713135 275.79876709 273.81765747 279.33209229 C 275.12545776 283.00524902 276.10897827 286.81668091 276.89346313 290.70220947 C 277.38674927 294.61126709 277.61343384 298.52383423 277.53860474 302.47409058 C 277.25918579 306.45330811 276.77151489 310.39385986 275.93234253 314.25598145 C 274.86572266 318.00375366 273.47979736 321.68585205 271.92010498 325.31832886 C 270.15911865 328.83721924 268.13400269 332.15383911 265.79229736 335.20544434 C 263.14425659 338.08740234 260.45901489 340.95962524 257.69302368 343.60131836 C 254.87449646 346.08291626 251.83007812 348.38659668 248.56457520 350.40896606 C 245.28373718 352.25570679 241.90635681 353.99124146 238.40104675 355.46380615 C 234.74989319 356.69845581 230.99887085 357.77160645 227.13673401 358.39904785 C 223.01147461 358.69799805 218.85572815 358.74850464 214.72276306 358.48843384 C 210.51141357 357.64611816 206.23454285 356.70834351 202.02133179 355.41879272 C 197.95640564 353.54675293 193.89022827 351.49600220 189.83607483 349.17419434 C 186.14897156 346.39309692 182.62059021 343.47836304 179.22941589 340.48135376 C 176.34785461 337.18707275 173.85250854 333.71685791 171.50366211 330.17605591 C 169.54370117 326.57675171 167.97996521 322.85870361 166.55245972 319.12109375 C 165.28086853 315.38293457 164.41423035 311.72714233 163.73519897 308.04370117 C 163.33283997 304.22241211 163.17518616 300.31854248 163.19314575 296.55792236 C 163.20028687 292.85614014 163.58239746 289.11358643 164.35708618 285.38403320 C 165.34762573 281.76220703 166.79986572 278.19583130 168.31571960 274.63262939 C 170.05699158 271.29385376 172.01454163 267.97177124 173.97111511 264.80044556 C 176.29351807 261.93246460 178.91313171 259.30957031 181.65606689 256.93087769 C 184.48535156 254.70382690 187.59049988 252.61750793 190.77670288 250.77706909 C 194.08471680 249.10440063 197.66535950 247.66693115 201.29129028 246.39956665 C 205.12901306 245.38368225 209.01412964 244.49281311 212.96417236 243.92613220 C 217.01713562 243.69607544 221.10661316 243.60957336 225.11274719 243.52867126 C 228.95883179 243.99566650 232.68476868 244.79327393 236.35714722 246.08393860 C 240.03984070 247.47181702 243.60771179 248.99082947 247.12258911 250.70613098 C 250.60412598 252.48820496 253.80671692 254.53813171 256.94366455 256.79632568 C 259.89953613 259.30447388 262.81518555 261.83935547 268.05264282 268.76995850" stroke-width="2.00000000" fill="rgb(178, 6, 19)" opacity="1.0" stroke="rgb(30, 4, 0)" stroke-opacity="0.9442617" stroke-linecap="round" stroke-linejoin="round"/>
    <path d="M 377.29788208 315.25579834 C 377.36749268 318.61090088 377.52313232 321.97735596 377.21655273 325.39538574 C 376.54403687 328.92041016 375.79391479 332.65557861 374.91268921 336.38360596 C 373.71038818 340.20950317 372.14068604 343.93972778 370.33502197 347.53482056 C 368.26519775 350.99746704 365.93142700 354.21069336 363.52746582 357.54388428 C 360.94061279 360.64950562 358.04055786 363.47073364 354.92373657 366.15670776 C 351.72082520 368.67495728 348.15261841 370.77313232 344.58630371 372.73272705 C 340.96820068 374.49255371 337.14208984 375.86163330 333.18539429 377.01266479 C 329.33322144 377.99111938 325.48110962 378.52072144 321.60534668 378.60626221 C 317.70532227 378.57180786 313.82708740 378.00830078 309.95278931 377.25537109 C 305.98828125 376.51675415 302.20040894 375.25128174 298.54187012 373.60458374 C 294.81655884 372.00576782 291.42703247 370.01818848 288.11886597 367.68991089 C 285.09249878 365.27792358 282.16189575 362.81542969 279.49722290 360.02001953 C 277.00762939 357.18765259 274.67910767 354.18743896 272.74102783 350.88067627 C 270.81225586 347.58114624 269.04974365 344.06503296 267.59930420 340.50241089 C 266.42517090 336.69488525 265.41162109 332.82885742 264.75579834 328.85156250 C 264.33383179 324.78305054 264.20068359 320.66888428 264.22558594 316.61328125 C 264.37329102 312.65576172 264.76623535 308.69580078 265.48059082 304.76678467 C 266.42285156 301.06106567 267.75430298 297.56314087 269.32519531 294.17034912 C 271.03292847 290.84948730 272.92657471 287.66137695 274.99453735 284.57504272 C 277.43640137 281.82501221 280.10876465 279.30975342 282.71658325 276.87844849 C 285.29394531 274.39089966 288.09548950 272.34906006 291.23602295 270.76269531 C 294.48757935 269.13653564 297.84069824 267.56536865 301.29861450 266.28802490 C 305.04846191 265.36004639 308.86892700 264.38479614 312.76971436 263.57791138 C 316.94067383 263.21859741 321.20645142 263.14779663 325.45596313 263.30065918 C 329.59442139 263.48141479 333.81497192 264.31558228 337.94122314 265.51925659 C 341.81573486 266.97293091 345.68450928 268.75711060 349.44934082 270.61376953 C 352.98431396 272.70843506 356.29348755 275.08447266 359.37429810 277.76553345 C 362.29928589 280.65606689 365.04364014 283.64199829 367.60479736 286.84402466 C 369.72296143 290.37704468 371.56671143 294.16952515 373.36361694 297.98037720 C 374.85931396 301.86633301 376.46289062 305.80480957 377.29788208 315.25579834" stroke-width="2.00000000" fill="rgb(174, 6, 18)" opacity="1.0" stroke="rgb(39, 9, 5)" stroke-opacity="0.94985867" stroke-linecap="round" stroke-linejoin="round"/>
    <path d="M 235.40219116 221.11119080 C 233.16371155 224.55780029 231.12976074 228.00112915 229.14915466 231.54849243 C 227.44348145 235.01875305 226.05348206 238.63616943 225.01994324 242.11515808 C 224.23916626 245.43966675 223.65090942 248.55241394 223.23800659 251.36671448 C 222.76257324 253.68795776 222.13237000 255.47450256 221.33341980 256.61401367 C 220.34854126 257.11566162 219.34205627 256.91207886 218.54010010 256.00720215 C 218.13850403 254.54498291 218.03097534 252.47190857 218.24853516 249.88914490 C 218.75271606 246.76686096 219.44628906 243.36250305 220.46351624 239.72924805 C 221.89456177 235.94779968 223.55509949 232.05064392 225.44070435 228.07458496 C 227.73939514 224.31346130 230.36233521 220.62141418 233.03822327 216.86917114 C 235.87950134 213.26820374 238.76614380 209.77644348 241.91973877 206.49774170 C 245.21179199 203.46455383 248.58857727 200.67076111 251.89205933 197.87586975 C 254.95663452 195.07518005 257.83145142 192.41384888 260.62921143 189.97627258 C 263.21356201 187.68910217 265.50585938 185.57437134 267.53225708 183.65167236 C 269.23657227 182.01107788 270.61853027 180.73011780 271.79187012 179.88108826 C 272.87081909 179.59092712 273.69699097 179.82122803 274.18545532 180.50192261 C 274.27282715 181.44013977 273.90966797 182.67904663 273.04946899 184.11038208 C 271.71057129 185.69125366 269.91262817 187.33038330 267.75384521 189.03170776 C 265.33786011 190.87553406 262.70397949 192.75100708 259.96829224 194.89495850 C 257.15612793 197.23530579 254.29730225 199.67510986 251.57377625 202.39920044 C 248.74746704 205.09448242 245.75885010 207.68797302 235.40219116 221.11119080" stroke-width="0.55886465" fill="rgb(34, 70, 24)" opacity="1.0" stroke="rgb(0, 1, 0)" stroke-opacity="0.44298252" stroke-linecap="round" stroke-linejoin="round"/>
    <path d="M 314.48718262 279.18798828 C 315.21408081 275.29098511 315.56768799 271.34118652 315.35760498 267.31951904 C 314.69906616 263.15560913 313.79837036 258.79119873 312.73544312 254.37657166 C 311.42956543 249.77282715 309.89578247 245.08114624 308.19158936 240.30035400 C 306.23449707 235.45323181 304.01028442 230.53158569 301.52795410 225.58283997 C 299.08480835 220.55825806 296.38604736 215.52073669 293.37991333 210.49156189 C 290.47158813 205.41400146 287.24108887 200.53031921 283.92398071 195.66363525 C 280.62915039 190.97805786 277.27331543 186.46173096 273.54495239 182.50137329 C 269.97836304 178.73875427 266.92486572 174.92433167 264.06396484 171.48605347 C 261.38638306 168.45446777 259.27575684 165.80377197 257.70358276 163.71006775 C 256.92056274 162.27531433 257.18960571 161.32318115 258.44335938 160.68106079 C 260.32815552 160.14166260 262.39550781 159.59225464 264.23712158 159.69685364 C 265.54129028 160.89503479 266.57830811 163.27192688 268.03314209 166.33932495 C 270.21612549 169.85238647 273.00305176 173.71096802 276.17193604 177.91412354 C 279.66497803 182.52400208 283.48266602 187.27465820 287.36511230 192.16438293 C 291.07910156 197.44544983 294.60754395 202.82533264 298.01519775 208.34675598 C 301.38690186 213.83224487 304.51751709 219.38859558 307.32614136 224.94815063 C 309.91558838 230.47166443 312.21658325 236.03962708 314.27896118 241.43881226 C 316.13052368 246.73353577 317.71926880 251.94001770 319.01321411 257.03518677 C 319.85650635 262.07058716 320.38351440 266.93792725 321.00680542 271.61520386 C 322.06707764 276.05081177 323.19604492 280.39086914 314.48718262 279.18798828" stroke-width="0.53277808" fill="rgb(45, 81, 32)" opacity="1.0" stroke="rgb(0, 0, 0)" stroke-opacity="0.44142726" stroke-linecap="round" stroke-linejoin="round"/>
    <path d="M 257.10144043 193.80610657 C 255.70443726 195.13085938 254.32795715 196.41908264 253.03916931 197.61318970 C 251.75234985 198.79504395 250.54556274 199.94178772 249.36114502 200.80621338 C 248.14517212 201.31382751 246.89564514 201.45410156 245.55296326 201.24615479 C 243.98451233 200.94703674 242.23159790 200.84936523 240.42326355 200.78665161 C 238.58728027 200.48805237 236.68791199 200.06289673 234.84681702 199.57194519 C 233.08961487 199.10740662 231.49862671 198.58749390 230.10762024 198.05986023 C 228.95304871 197.64421082 227.97393799 197.56927490 227.37937927 197.42431641 C 227.26596069 197.02055359 227.43557739 196.43879700 227.83822632 195.57313538 C 228.46043396 194.65065002 229.28459167 193.80578613 230.16323853 192.79714966 C 231.09095764 191.64465332 232.09036255 190.38226318 233.20069885 189.02017212 C 234.61557007 187.82388306 236.21846008 186.54544067 237.88937378 185.26420593 C 239.75398254 184.20115662 241.61309814 183.24188232 243.31208801 182.24220276 C 245.16162109 181.53752136 246.88020325 180.96443176 248.51225281 180.73464966 C 250.07417297 180.68266296 251.57638550 180.49375916 253.03582764 180.30656433 C 254.50605774 180.36164856 255.92350769 180.50869751 257.27362061 180.54571533 C 258.48715210 180.86564636 259.64761353 181.17248535 260.85101318 181.41818237 C 261.92123413 181.78048706 262.87115479 182.19343567 263.76800537 182.48706055 C 264.54257202 182.63253784 265.15441895 182.90299988 265.67541504 183.34539795 C 266.16436768 183.89929199 266.62622070 184.49790955 267.00289917 185.16282654 C 267.22598267 185.83572388 267.40182495 186.43446350 257.10144043 193.80610657" stroke-width="2.00000000" fill="rgb(9, 138, 59)" opacity="1.0" stroke="rgb(5, 29, 9)" stroke-opacity="0.97201073" stroke-linecap="round" stroke-linejoin="round"/>
    <path d="M 305.42727661 189.60545349 C 303.33828735 190.05848694 301.26965332 190.39323425 299.16793823 190.49917603 C 297.09552002 190.52127075 295.07995605 190.52659607 293.11682129 190.43048096 C 291.24456787 190.09149170 289.45297241 189.74618530 287.74481201 189.20538330 C 286.36492920 188.52783203 285.11758423 187.56773376 283.94229126 186.38233948 C 282.92828369 185.08078003 281.91964722 183.74363708 280.80789185 182.36570740 C 279.68261719 181.00395203 278.63134766 179.78874207 277.56796265 178.64358521 C 276.55484009 177.60067749 275.66940308 176.66481018 274.98641968 175.84982300 C 274.59271240 175.09083557 274.51159668 174.39717102 274.80554199 173.75503540 C 275.49768066 173.08946228 276.47253418 172.29182434 277.69781494 171.48982239 C 279.22180176 170.80632019 280.85214233 170.14732361 282.66033936 169.69398499 C 284.56414795 169.47840881 286.53152466 169.31835938 288.59442139 169.21620178 C 290.68435669 169.30966187 292.75717163 169.26602173 294.91448975 169.30158997 C 297.01724243 169.56610107 299.07977295 169.91529846 301.10040283 170.55297852 C 303.06671143 171.29957581 305.02664185 172.17868042 306.77911377 173.27229309 C 308.49746704 174.57078552 310.03939819 175.94757080 311.64770508 177.08934021 C 313.01602173 178.37078857 314.26583862 179.62139893 315.29107666 180.88200378 C 316.15087891 182.16999817 316.86575317 183.17021179 317.50259399 184.01307678 C 318.00106812 184.50178528 318.07775879 184.85163879 317.66546631 185.12997437 C 316.97674561 185.19778442 316.14306641 185.40734863 315.28439331 185.81294250 C 314.49151611 186.57876587 313.61920166 187.39627075 305.42727661 189.60545349" stroke-width="2.00000000" fill="rgb(8, 133, 64)" opacity="1.0" stroke="rgb(9, 35, 14)" stroke-opacity="0.95794207" stroke-linecap="round" stroke-linejoin="round"/>
    <path d="M 358.70852661 292.86306763 C 359.35324097 293.86517334 360.00891113 294.88742065 360.50051880 295.95111084 C 360.86218262 297.06973267 361.09606934 298.14624023 361.22778320 299.18112183 C 361.25564575 300.20120239 361.06555176 301.24154663 360.78417969 302.22146606 C 360.47125244 303.19088745 360.15396118 304.16891479 359.83160400 305.09872437 C 359.32147217 305.92135620 358.60864258 306.64743042 357.77429199 307.27099609 C 356.96447754 307.90060425 356.15707397 308.49035645 355.33175659 309.06555176 C 354.42196655 309.50308228 353.54486084 309.79238892 352.61108398 310.02301025 C 351.68759155 310.11376953 350.77655029 310.13906860 349.91000366 310.04345703 C 348.99859619 309.78103638 348.09478760 309.46746826 347.25332642 309.04568481 C 346.49108887 308.45172119 345.69253540 307.83367920 344.91513062 307.14685059 C 344.24771118 306.36306763 343.60345459 305.53436279 343.01058960 304.63836670 C 342.55166626 303.70434570 342.17098999 302.79101562 341.97109985 301.80001831 C 341.85058594 300.78329468 341.88455200 299.71075439 341.90454102 298.65283203 C 341.91268921 297.58703613 342.04760742 296.55184937 342.29260254 295.58078003 C 342.70706177 294.70892334 343.10968018 293.84075928 343.50244141 292.95480347 C 343.98333740 292.18280029 344.59530640 291.54751587 345.23764038 291.05355835 C 345.95684814 290.67163086 346.76800537 290.35867310 347.57745361 290.07846069 C 348.41711426 289.81057739 349.23291016 289.63281250 350.08853149 289.59262085 C 351.03115845 289.64724731 351.95330811 289.70199585 352.92266846 289.86251831 C 353.89715576 290.04498291 354.81900024 290.26464844 358.70852661 292.86306763" stroke-width="0.68166208" fill="rgb(249, 224, 218)" opacity="1.0" stroke="rgb(188, 156, 146)" stroke-opacity="0.64344233" stroke-linecap="round" stroke-linejoin="round"/>
    <path d="M 253.43957520 294.83413696 C 252.44398499 294.92559814 251.39462280 294.96551514 250.37052917 294.87329102 C 249.34580994 294.67575073 248.35801697 294.45318604 247.41333008 294.18048096 C 246.53837585 293.70785522 245.73608398 293.09725952 244.98707581 292.40972900 C 244.23451233 291.81253052 243.57180786 291.07650757 243.05162048 290.21505737 C 242.63365173 289.39669800 242.28430176 288.46936035 241.97395325 287.46774292 C 241.73504639 286.49804688 241.63378906 285.49856567 241.63905334 284.47012329 C 241.62203979 283.37594604 241.68913269 282.35128784 241.85658264 281.36141968 C 242.19084167 280.42974854 242.62413025 279.46246338 243.07751465 278.56454468 C 243.67794800 277.75057983 244.41001892 277.00872803 245.19097900 276.34774780 C 246.03419495 275.74218750 246.95558167 275.18084717 247.91004944 274.73861694 C 248.88900757 274.45114136 249.94114685 274.34094238 251.02697754 274.29959106 C 252.09545898 274.35699463 253.05899048 274.55200195 254.05239868 274.86407471 C 255.01043701 275.19256592 255.87150574 275.66427612 256.64865112 276.30718994 C 257.39636230 277.02597046 258.13784790 277.71243286 258.79016113 278.42260742 C 259.35247803 279.16705322 259.91323853 279.96551514 260.35372925 280.79742432 C 260.67855835 281.66851807 260.80786133 282.58892822 260.85678101 283.53506470 C 260.84295654 284.49188232 260.76110840 285.47842407 260.64648438 286.37887573 C 260.48529053 287.32415771 260.25616455 288.24081421 259.89093018 289.13113403 C 259.45092773 289.90856934 258.95895386 290.78152466 258.34359741 291.62463379 C 257.73208618 292.49832153 257.21835327 293.38949585 253.43957520 294.83413696" stroke-width="0.68099558" fill="rgb(249, 220, 214)" opacity="1.0" stroke="rgb(191, 146, 139)" stroke-opacity="0.65021825" stroke-linecap="round" stroke-linejoin="round"/>
    <path d="M 226.22042847 260.86483765 C 224.30085754 260.74478149 222.40834045 260.59683228 220.52305603 260.44323730 C 218.77761841 260.29306030 217.18377686 260.08633423 215.69909668 259.78381348 C 214.38081360 259.41934204 213.27761841 259.05084229 212.40101624 258.70999146 C 211.77832031 258.28869629 211.44140625 257.95782471 211.42994690 257.69177246 C 211.72886658 257.60369873 212.27175903 257.66427612 213.09837341 257.86663818 C 214.09564209 258.00119019 215.26991272 258.05926514 216.60847473 258.00085449 C 218.07810974 257.97467041 219.63012695 258.14208984 221.23698425 258.39089966 C 222.90615845 258.82226562 224.63757324 259.14242554 226.41038513 259.13351440 C 228.28494263 258.64880371 230.18930054 258.07986450 232.23696899 257.55722046 C 234.41378784 257.20935059 236.56405640 256.95086670 226.22042847 260.86483765" stroke-width="1.30844903" fill="rgb(19, 7, 3)" opacity="1.0" stroke="rgb(39, 14, 9)" stroke-opacity="0.82450753" stroke-linecap="round" stroke-linejoin="round"/>
  </g>
</svg>
