<?xml version="1.0" ?>
<svg xmlns="http://www.w3.org/2000/svg" version="1.1" width="512" height="512" viewBox="0 0 512 512">
  <defs/>
  <g>
    <path d="M 230.32948303 348.18313599 C 224.58345032 346.65753174 219.29664612 344.96743774 214.58155823 341.85687256 C 209.11938477 339.95550537 204.30053711 336.87145996 199.53256226 333.16271973 C 194.53950500 329.44641113 189.87806702 325.27291870 185.39440918 320.65127563 C 181.10943604 315.74133301 177.07270813 310.59384155 173.58029175 305.09289551 C 170.47724915 299.43600464 167.82722473 293.46932983 165.46319580 287.39471436 C 163.51490784 280.99911499 162.00648499 274.22216797 160.76951599 267.37097168 C 160.31681824 260.25738525 160.27835083 252.85237122 160.47813416 245.25099182 C 161.29670715 238.29197693 162.53587341 231.47036743 164.74304199 225.05673218 C 167.11546326 218.58866882 169.39895630 212.15664673 172.99487305 206.22297668 C 176.49880981 200.06321716 180.44549561 194.18898010 185.37792969 188.97814941 C 190.26185608 183.63087463 195.71878052 178.93928528 201.67065430 174.92288208 C 207.47006226 170.93997192 213.82752991 168.24639893 220.22230530 165.50765991 C 226.62815857 163.37568665 233.07968140 161.98936462 239.60163879 160.90806580 C 245.99157715 159.79411316 252.48873901 159.28967285 258.82937622 159.50177002 C 265.28854370 159.76960754 271.71865845 160.45420837 277.87896729 161.93290710 C 283.98907471 163.24653625 289.93478394 165.39381409 295.89608765 167.76617432 C 301.56958008 170.38879395 306.92294312 173.69363403 311.99645996 177.25471497 C 316.91784668 180.88592529 321.28497314 185.15315247 325.43713379 189.73886108 C 329.62841797 194.32844543 333.43786621 199.20750427 336.74072266 204.53465271 C 340.13824463 209.82420349 342.89688110 215.67335510 345.20117188 221.68814087 C 347.59091187 227.62850952 349.02490234 234.02355957 350.16101074 240.68902588 C 350.98104858 247.73217773 351.61865234 254.69238281 351.24246216 261.95239258 C 350.50177002 269.14898682 349.02273560 276.41207886 347.37033081 283.47457886 C 345.18746948 290.25161743 342.21899414 296.44372559 339.22924805 302.46945190 C 336.18737793 308.12207031 332.15646362 313.04486084 328.18313599 318.20086670 C 323.52368164 322.87997437 318.86715698 327.54159546 313.82446289 331.72732544 C 308.75265503 335.79312134 303.14102173 339.08514404 297.22717285 341.84875488 C 291.17468262 344.69927979 285.03604126 347.09289551 278.44265747 348.66018677 C 272.01437378 350.64871216 265.48721313 351.83795166 258.52850342 351.69879150 C 251.40303040 351.59387207 244.22485352 352.14733887 230.32948303 348.18313599" stroke-width="2.00000000" fill="rgb(139, 77, 31)" opacity="1.0" stroke="rgb(30, 0, 1)" stroke-opacity="0.9433247" stroke-linecap="round" stroke-linejoin="round"/>
    <path d="M 289.11386108 198.70060730 C 290.38842773 202.38954163 291.43670654 206.08346558 291.91931152 209.83151245 C 291.97143555 213.70301819 291.67486572 217.63841248 291.02893066 221.37170410 C 290.18331909 225.11004639 288.90362549 228.67195129 287.28817749 231.98005676 C 285.46264648 235.20806885 283.30081177 238.08865356 280.89743042 240.74069214 C 278.18276978 243.08395386 275.20059204 245.01484680 271.99374390 246.70368958 C 268.79058838 248.26502991 265.42010498 249.40562439 261.88867188 250.25953674 C 258.35873413 250.76637268 254.72499084 250.92654419 251.04576111 250.67816162 C 247.36340332 250.11529541 243.84408569 249.19418335 240.41476440 247.84529114 C 237.18305969 246.17375183 234.21711731 244.11013794 231.46981812 241.73301697 C 228.84097290 239.14579773 226.51063538 236.34854126 224.52636719 233.27526855 C 222.76033020 230.04385376 221.40527344 226.63467407 220.66059875 223.02636719 C 220.00016785 219.30039978 219.72151184 215.46905518 219.63215637 211.66748047 C 219.99124146 207.85177612 220.66166687 204.14675903 221.70625305 200.56752014 C 223.07629395 197.15046692 224.89616394 194.02322388 227.03639221 191.15841675 C 229.28639221 188.48809814 231.88293457 186.23457336 234.66935730 184.24711609 C 237.48446655 182.41813660 240.55334473 181.05401611 243.84194946 180.02134705 C 247.20285034 179.17651367 250.59587097 178.33401489 254.12704468 177.83335876 C 257.67678833 178.15945435 261.34063721 178.75326538 265.10025024 179.36077881 C 268.88055420 180.22407532 272.47305298 181.59655762 276.02941895 183.58300781 C 279.77969360 185.88798523 283.62167358 188.15887451 289.11386108 198.70060730" stroke-width="0.15610509" fill="rgb(217, 167, 117)" opacity="1.0" stroke="rgb(160, 130, 124)" stroke-opacity="0.73646235" stroke-linecap="round" stroke-linejoin="round"/>
    <path d="M 255.37980652 138.97030640 C 254.98571777 137.74060059 255.30020142 136.37660217 255.66117859 134.84152222 C 255.61442566 133.20028687 255.83422852 131.57099915 256.03723145 130.09182739 C 256.00350952 128.77812195 256.16320801 127.66091919 256.53338623 127.06915283 C 257.18759155 126.95095062 258.07931519 126.96084595 259.05191040 126.99451447 C 259.81469727 127.30999756 260.37176514 127.97068787 260.75650024 128.91215515 C 260.98599243 130.13281250 261.06591797 131.67774963 260.90765381 133.38108826 C 260.93429565 135.18415833 260.62973022 137.04235840 260.03576660 139.03036499 C 260.13665771 141.44544983 259.96969604 144.05030823 259.64193726 146.70701599 C 259.46060181 149.46609497 259.33111572 152.25268555 259.09170532 155.10087585 C 258.85244751 157.95689392 258.61737061 160.74676514 258.45822144 163.39436340 C 258.42987061 165.92808533 258.15844727 168.28640747 257.88995361 170.43592834 C 257.76043701 172.41249084 257.91314697 174.00708008 257.92535400 175.21844482 C 257.91296387 176.15536499 257.62738037 176.73962402 256.97570801 176.82557678 C 256.01434326 176.77981567 255.00785828 176.74296570 254.14559937 176.81845093 C 253.61286926 176.63691711 253.40750122 176.09802246 253.54199219 175.16383362 C 253.54217529 173.83584595 253.66307068 172.26466370 253.89624023 170.61831665 C 254.07948303 168.90100098 253.79052734 167.06416321 253.63447571 165.13986206 C 253.84306335 163.32875061 253.72169495 161.59580994 253.57263184 159.89259338 C 253.88371277 158.46156311 254.44010925 157.11393738 254.82270813 155.79598999 C 254.80776978 154.40759277 254.58631897 152.89163208 255.37980652 138.97030640" stroke-width="1.56922495" fill="rgb(241, 84, 103)" opacity="1.0" stroke="rgb(92, 1, 9)" stroke-opacity="0.728261" stroke-linecap="round" stroke-linejoin="round"/>
    <path d="M 285.95922852 124.27874756 C 286.02523804 125.25219727 285.89129639 126.20442963 285.90783691 127.17053986 C 286.11407471 128.12431335 286.20492554 128.85523987 285.97943115 129.37290955 C 285.27441406 129.73332214 284.33117676 129.71505737 283.06637573 129.43270874 C 281.43508911 129.54946899 279.63220215 129.62605286 277.76443481 129.83770752 C 275.70605469 129.96023560 273.59634399 130.23753357 271.59472656 130.50236511 C 269.69174194 130.26463318 267.77062988 130.29244995 266.06118774 130.62672424 C 264.41418457 130.52900696 263.04931641 130.50694275 261.98956299 130.52601624 C 261.36901855 130.09635925 261.16821289 129.29698181 261.23410034 128.45486450 C 261.25979614 127.72197723 261.27639771 127.01652527 261.32156372 126.48353577 C 261.29711914 126.62911224 261.21762085 126.90736389 285.95922852 124.27874756" stroke-width="1.66556871" fill="rgb(240, 96, 121)" opacity="1.0" stroke="rgb(112, 61, 71)" stroke-opacity="1.0" stroke-linecap="round" stroke-linejoin="round"/>
    <path d="M 246.68731689 343.69012451 C 246.15551758 342.58789062 245.62068176 341.45831299 245.26153564 340.27545166 C 244.80061340 339.05413818 244.15457153 337.85290527 243.47389221 336.60345459 C 242.93081665 335.15478516 242.38441467 333.63720703 241.86323547 331.98004150 C 241.31121826 330.20062256 240.78807068 328.29714966 240.21110535 326.28652954 C 239.65574646 324.13348389 239.12661743 321.87002563 238.68180847 319.41204834 C 238.26055908 316.84466553 237.79263306 314.19985962 237.33450317 311.44726562 C 237.02957153 308.61624146 236.78381348 305.68331909 236.62025452 302.67446899 C 236.40168762 299.63479614 236.22787476 296.51693726 236.11206055 293.40966797 C 235.97943115 290.32250977 235.90447998 287.18505859 235.87800598 284.05532837 C 235.86944580 280.97985840 235.91358948 277.94967651 235.98664856 275.00488281 C 236.15089417 272.21243286 236.30149841 269.59197998 236.39710999 267.16131592 C 236.48927307 265.00064087 236.65278625 263.23599243 236.95274353 262.00900269 C 237.31060791 261.51815796 237.55519104 261.79800415 237.63603210 262.75930786 C 237.58802795 264.29415894 237.50579834 266.28149414 237.39485168 268.61593628 C 237.32055664 271.17691040 237.29692078 273.86959839 237.29541016 276.70086670 C 237.21115112 279.59866333 237.23117065 282.58297729 237.33288574 285.67578125 C 237.36198425 288.82894897 237.37371826 292.01443481 237.55477905 295.21136475 C 237.81602478 298.48950195 238.01712036 301.76898193 238.20407104 305.10580444 C 238.50103760 308.48159790 238.97590637 311.88742065 239.50437927 315.28390503 C 239.87051392 318.72863770 240.12782288 322.20489502 246.68731689 343.69012451" stroke-width="0.38203886" fill="rgb(66, 12, 0)" opacity="1.0" stroke="rgb(92, 48, 36)" stroke-opacity="0.81455815" stroke-linecap="round" stroke-linejoin="round"/>
    <path d="M 313.82577515 306.95330811 C 312.97903442 303.83795166 312.16864014 300.76803589 311.36392212 297.84750366 C 310.59713745 295.01376343 309.89257812 292.30938721 309.24099731 289.70382690 C 308.64782715 287.12786865 308.09091187 284.64678955 307.58703613 282.19699097 C 307.10443115 279.79357910 306.63281250 277.44689941 306.15527344 275.10891724 C 305.64749146 272.81411743 305.11047363 270.58575439 304.50372314 268.37780762 C 303.90228271 266.31079102 303.29449463 264.30249023 302.75936890 262.33441162 C 302.40011597 260.48187256 302.20941162 258.71588135 302.26315308 257.01989746 C 302.56958008 255.40574646 303.02954102 253.93606567 303.65539551 252.52940369 C 304.41998291 251.27330017 305.27920532 250.14306641 306.27465820 249.16931152 C 307.37780762 248.37203979 308.55676270 247.78056335 309.78616333 247.41403198 C 311.06948853 247.30632019 312.30874634 247.47630310 313.46301270 247.92074585 C 314.53335571 248.67588806 315.46115112 249.70477295 316.22183228 250.99798584 C 316.92102051 252.50706482 317.54742432 254.18444824 318.16345215 255.99578857 C 318.81167603 257.90881348 319.44650269 259.92172241 320.09783936 261.99877930 C 320.75637817 264.14242554 321.37463379 266.35803223 322.00079346 268.60122681 C 322.59466553 270.90121460 323.15838623 273.21096802 323.69735718 275.58007812 C 324.14077759 277.97546387 324.55325317 280.39584351 324.90118408 282.87625122 C 325.21643066 285.42648315 325.53533936 288.00955200 325.91354370 290.64602661 C 326.30609131 293.36157227 326.78042603 296.14392090 327.31454468 298.97558594 C 327.89431763 301.88458252 328.48086548 304.80722046 313.82577515 306.95330811" stroke-width="2.00000000" fill="rgb(147, 82, 32)" opacity="1.0" stroke="rgb(146, 84, 38)" stroke-opacity="1.0" stroke-linecap="round" stroke-linejoin="round"/>
    <path d="M 208.73739624 275.78408813 C 209.56936646 279.68435669 210.25880432 283.63848877 210.66807556 287.63232422 C 211.11343384 291.67260742 211.58757019 295.74197388 212.22183228 299.76660156 C 213.05453491 303.75372314 213.91328430 307.67022705 214.76991272 311.47122192 C 215.76498413 315.12829590 216.95054626 318.51879883 218.08602905 321.66189575 C 219.15367126 324.61331177 220.34236145 327.21200562 221.39628601 329.44653320 C 222.21742249 331.35595703 222.78894043 332.85018921 222.91397095 333.79855347 C 222.59426880 334.19540405 221.84138489 333.94168091 220.92599487 332.90914917 C 219.98129272 331.21493530 218.92402649 328.84783936 217.65061951 325.97598267 C 216.33871460 322.57800293 214.94683838 318.71249390 213.62365723 314.48654175 C 211.98995972 309.95974731 209.84234619 305.34930420 208.73739624 275.78408813" stroke-width="1.89191854" fill="rgb(76, 28, 4)" opacity="1.0" stroke="rgb(144, 92, 51)" stroke-opacity="0.66611135" stroke-linecap="round" stroke-linejoin="round"/>
    <path d="M 245.81402588 309.15463257 C 245.24890137 306.66387939 244.79495239 304.09594727 244.41812134 301.59112549 C 244.12524414 299.11358643 243.95550537 296.64257812 243.83143616 294.16256714 C 243.59213257 291.73110962 243.34625244 289.39144897 243.19674683 287.10290527 C 243.23847961 284.86767578 243.26924133 282.68188477 243.16566467 280.57553101 C 243.12077332 278.55505371 243.18174744 276.62606812 243.35037231 274.74841309 C 243.49865723 272.85391235 243.57548523 270.99008179 243.54327393 269.12414551 C 243.65344238 267.29714966 243.85803223 265.46337891 244.12780762 263.62637329 C 244.25975037 261.79382324 244.43333435 260.02172852 244.78309631 258.46331787 C 245.36943054 257.29193115 246.10255432 256.49325562 246.42417908 256.01742554 C 245.85237122 255.65592957 244.52780151 255.33706665 245.81402588 309.15463257" stroke-width="1.87457967" fill="rgb(75, 27, 6)" opacity="1.0" stroke="rgb(144, 89, 47)" stroke-opacity="0.76727736" stroke-linecap="round" stroke-linejoin="round"/>
    <path d="M 292.36114502 253.32319641 C 293.34625244 256.10397339 294.34570312 258.84106445 295.32827759 261.55795288 C 296.24609375 264.22305298 297.14239502 266.82540894 297.92181396 269.42416382 C 298.57955933 271.97094727 299.13528442 274.50460815 299.53500366 277.00616455 C 299.77847290 279.47274780 299.86151123 281.90673828 299.78433228 284.28659058 C 299.50534058 286.62661743 299.05126953 288.89065552 298.39523315 291.08288574 C 297.55050659 293.18807983 296.55810547 295.15347290 295.41055298 297.03131104 C 294.12149048 298.74499512 292.74365234 300.28488159 291.25793457 301.68353271 C 289.67840576 302.89794922 288.08908081 303.91302490 286.42578125 304.75439453 C 284.70693970 305.37628174 282.98608398 305.80218506 281.26336670 306.01409912 C 279.52136230 306.03030396 277.82794189 305.86715698 276.15090942 305.49868774 C 274.55734253 304.91262817 273.01354980 304.13619995 271.59646606 303.14373779 C 270.26162720 301.95159912 269.06768799 300.60409546 268.01370239 299.06973267 C 267.11111450 297.38488770 266.35052490 295.58694458 265.78930664 293.68405151 C 265.37548828 291.67562866 265.14251709 289.59982300 265.08551025 287.47607422 C 265.18307495 285.27969360 265.42947388 283.07125854 265.80960083 280.83526611 C 266.38253784 278.57931519 267.06036377 276.32592773 267.87051392 274.08068848 C 268.82388306 271.82171631 269.87689209 269.57611084 271.02249146 267.32934570 C 272.25927734 265.08413696 273.55035400 262.83029175 274.90817261 260.59509277 C 276.31027222 258.35659790 277.72442627 256.09945679 279.19781494 253.86653137 C 280.65170288 251.60060120 282.12725830 249.33917236 292.36114502 253.32319641" stroke-width="2.00000000" fill="rgb(147, 82, 32)" opacity="1.0" stroke="rgb(145, 83, 33)" stroke-opacity="0.9980433" stroke-linecap="round" stroke-linejoin="round"/>
    <path d="M 275.36181641 345.09454346 C 274.79037476 343.88562012 274.21301270 342.72518921 273.66751099 341.51651001 C 273.13845825 340.33343506 272.57974243 339.15902710 272.03900146 337.93991089 C 271.47067261 336.74902344 270.88336182 335.53533936 270.35751343 334.29116821 C 270.02008057 333.01199341 269.88381958 331.69964600 269.87567139 330.39025879 C 269.87774658 329.05606079 269.89974976 327.74676514 270.00213623 326.45428467 C 270.17041016 325.14828491 270.49679565 323.89529419 270.90267944 322.68652344 C 271.31201172 321.48715210 271.70748901 320.33151245 272.09066772 319.20611572 C 272.46688843 318.12976074 272.86441040 317.11587524 273.36187744 316.16827393 C 273.89941406 315.31320190 274.52355957 314.54241943 275.20208740 313.86709595 C 275.97634888 313.31127930 276.73828125 312.86254883 277.54544067 312.53363037 C 278.35012817 312.30581665 279.13073730 312.22470093 279.89270020 312.24441528 C 280.62274170 312.36361694 281.30078125 312.64718628 281.91003418 313.02420044 C 282.45394897 313.53643799 282.96844482 314.17956543 283.42007446 314.88964844 C 283.86495972 315.72796631 284.35568237 316.61862183 284.86279297 317.57882690 C 285.38760376 318.62268066 285.79736328 319.73590088 286.01577759 320.91116333 C 286.06860352 322.14639282 286.02883911 323.43865967 285.97702026 324.74929810 C 285.90850830 326.10366821 285.78729248 327.47808838 285.58837891 328.86801147 C 285.33493042 330.30401611 285.07308960 331.76779175 284.76675415 333.26272583 C 284.42858887 334.80111694 284.11221313 336.36709595 283.82751465 337.96429443 C 283.54217529 339.62368774 283.28500366 341.28790283 275.36181641 345.09454346" stroke-width="2.00000000" fill="rgb(147, 83, 32)" opacity="1.0" stroke="rgb(147, 84, 37)" stroke-opacity="0.9547901" stroke-linecap="round" stroke-linejoin="round"/>
    <path d="M 185.85456848 212.28839111 C 186.63580322 211.67959595 187.39602661 211.04301453 188.17369080 210.43103027 C 189.01651001 209.87829590 189.79331970 209.28935242 190.53346252 208.64126587 C 191.30789185 208.07852173 192.07585144 207.52236938 192.78764343 206.93440247 C 193.48153687 206.36322021 194.21305847 205.84309387 194.95242310 205.43431091 C 195.65608215 205.00428772 196.32490540 204.54649353 197.02345276 204.11393738 C 197.68748474 203.70643616 198.35379028 203.34461975 199.01797485 202.96540833 C 199.62310791 202.56590271 200.23262024 202.20370483 200.84580994 201.82324219 C 201.46255493 201.50039673 202.09997559 201.28460693 202.77035522 201.13232422 C 203.38653564 200.87236023 203.92028809 200.53968811 204.40191650 200.18130493 C 204.79768372 199.72151184 205.07893372 199.17272949 185.85456848 212.28839111" stroke-width="0.47361320" fill="rgb(82, 23, 0)" opacity="1.0" stroke="rgb(76, 21, 1)" stroke-opacity="0.78143764" stroke-linecap="round" stroke-linejoin="round"/>
    <path d="M 259.61190796 333.59320068 C 259.62786865 333.55892944 259.65097046 333.54830933 259.67260742 333.53027344 C 259.68090820 333.49981689 259.70242310 333.49066162 259.71636963 333.48251343 C 259.71914673 333.45233154 259.73529053 333.45318604 259.74450684 333.44488525 C 259.74310303 333.43679810 259.76504517 333.43206787 259.75613403 333.43441772 C 259.77093506 333.43698120 259.77273560 333.43548584 259.77368164 333.45507812 C 259.77630615 333.45959473 259.80419922 333.46655273 259.78631592 333.49942017 C 259.77908325 333.50823975 259.80419922 333.53073120 259.80044556 333.56246948 C 259.78152466 333.58798218 259.79608154 333.60815430 259.79736328 333.64611816 C 259.77786255 333.68804932 259.78115845 333.71466064 259.76858521 333.73876953 C 259.76562500 333.79421997 259.75765991 333.82290649 259.61190796 333.59320068" stroke-width="2.00000000" fill="rgb(141, 78, 32)" opacity="1.0" stroke="rgb(150, 84, 31)" stroke-opacity="0.9563951" stroke-linecap="round" stroke-linejoin="round"/>
  </g>
</svg>
