<?xml version="1.0" ?>
<svg xmlns="http://www.w3.org/2000/svg" version="1.1" width="512" height="512" viewBox="0 0 512 512">
  <defs/>
  <g>
    <path d="M 408.61953735 385.49307251 C 399.31890869 395.15844727 389.76776123 404.46914673 379.71960449 413.10659790 C 369.22155762 421.02062988 358.12390137 428.01544189 346.61389160 434.29925537 C 334.87512207 440.13372803 322.78826904 445.07049561 310.25222778 448.96847534 C 297.39855957 452.19091797 284.30264282 454.57995605 271.03701782 456.11343384 C 257.67727661 456.79580688 244.14485168 456.34097290 230.58110046 454.73760986 C 216.97050476 452.42849731 203.51470947 449.19479370 190.19113159 444.84384155 C 177.00450134 439.64321899 164.21311951 433.49075317 151.81227112 426.38858032 C 139.70767212 418.59548950 128.25921631 409.92498779 117.49456024 400.42535400 C 107.33486176 390.23931885 98.07041168 379.27877808 89.67652130 367.62313843 C 81.95804596 355.49929810 75.18154144 342.86813354 69.47615051 329.73892212 C 64.51440430 316.31317139 60.70515060 302.64559937 57.97645187 288.74581909 C 55.97004700 274.77838135 55.25746918 260.77593994 55.79583740 246.82110596 C 57.00092316 232.88853455 59.22666168 219.14677429 62.30482864 205.64752197 C 66.07207489 192.38720703 70.87700653 179.56669617 76.75746918 167.25276184 C 83.08508301 155.29258728 90.23325348 143.84730530 98.18225861 133.02525330 C 106.54420471 122.65478516 115.74761200 113.14667511 125.68473816 104.38970947 C 135.84967041 95.97528076 146.57513428 88.42243958 157.84959412 81.59916687 C 169.48884583 75.47834778 181.60758972 70.16589355 194.07980347 65.66603088 C 206.82369995 61.86310577 219.82022095 58.79317856 233.15023804 56.72574615 C 246.52796936 55.32816315 259.98056030 55.01772308 273.49420166 56.02839279 C 287.10070801 57.89199066 300.58377075 60.58537292 313.90658569 64.04322052 C 326.91531372 68.33345795 339.53158569 73.68283081 351.68640137 80.08702850 C 363.42459106 87.14420319 374.60076904 95.10601044 385.20675659 104.02754974 C 395.61935425 113.17869568 405.42459106 122.90636444 414.18719482 133.62699890 C 422.29205322 144.78465271 429.54623413 156.55397034 435.92218018 168.79685974 C 441.65313721 181.24259949 446.33105469 194.01176453 449.95928955 207.11154175 C 453.01849365 220.24403381 455.08987427 233.47979736 456.08215332 246.82441711 C 456.33663940 260.16848755 455.65820312 273.50866699 454.06149292 286.80786133 C 451.81503296 300.01470947 448.32632446 313.06900024 443.71871948 326.02932739 C 438.79568481 339.09643555 434.05944824 352.48770142 408.61953735 385.49307251" stroke-width="1.14235711" fill="rgb(226, 181, 62)" opacity="1.0" stroke="rgb(213, 175, 18)" stroke-opacity="0.19652762" stroke-linecap="round" stroke-linejoin="round"/>
    <path d="M 364.54733276 410.83346558 C 354.48883057 417.14956665 344.20288086 422.96804810 333.49932861 428.01565552 C 322.51193237 432.51638794 311.20834351 436.28695679 299.58557129 439.32391357 C 287.85623169 441.90093994 275.89739990 443.68557739 263.78695679 444.48526001 C 251.51870728 444.54974365 239.20857239 443.76278687 226.87294006 442.20462036 C 214.56794739 439.98223877 202.37237549 436.76535034 190.32022095 432.63253784 C 178.41365051 427.84005737 166.80932617 422.21826172 155.46734619 415.80868530 C 144.45562744 408.72668457 133.98577881 400.78720093 124.15238190 391.81680298 C 114.94375610 381.99398804 106.34645081 371.40463257 98.48767090 360.09140015 C 91.28054810 348.27825928 84.91491699 335.98358154 79.36732483 323.30096436 C 74.67736053 310.33578491 71.08684540 297.11312866 68.59963226 283.74447632 C 67.03928375 270.36529541 66.77536011 256.92922974 67.56314087 243.54798889 C 69.00685883 230.24180603 71.37224579 217.17840576 74.67624664 204.35742188 C 78.67943573 191.82064819 83.56813812 179.70085144 89.39875031 168.03289795 C 95.85823059 156.76506042 102.92029572 145.99777222 110.61873627 135.73063660 C 118.81043243 126.04770660 127.70762634 117.07455444 137.33683777 109.04503632 C 147.51033020 101.57463074 158.10896301 94.70298004 169.10154724 88.64073944 C 180.47282410 83.25294495 192.16905212 78.69287109 204.12217712 74.81198883 C 216.15548706 71.47231293 228.41651917 69.03600311 240.77296448 67.63543701 C 253.22460938 66.95416260 265.69085693 66.99906921 278.11288452 68.04367065 C 290.49264526 69.96813965 302.78948975 72.88482666 314.85653687 76.66215515 C 326.85726929 80.93387604 338.54910278 86.01345062 349.85858154 92.00683594 C 360.85134888 98.73289490 371.29327393 106.37551880 381.15658569 114.88418579 C 390.66931152 124.02443695 399.73455811 133.73092651 407.98001099 144.17730713 C 415.51715088 155.27667236 422.29177856 166.90379333 428.19604492 179.04164124 C 433.32812500 191.54003906 437.54464722 204.29638672 440.77658081 217.26115417 C 443.21008301 230.33123779 444.67782593 243.40493774 445.35281372 256.34909058 C 445.17886353 269.13073730 443.93673706 281.73358154 441.65765381 294.14807129 C 438.62808228 306.32257080 434.75119019 318.18960571 430.02960205 329.86694336 C 424.68792725 341.38726807 418.43682861 352.48779297 411.26235962 363.29107666 C 403.69531250 374.11111450 396.28091431 385.21929932 364.54733276 410.83346558" stroke-width="1.00008714" fill="rgb(253, 254, 252)" opacity="1.0" stroke="rgb(242, 240, 206)" stroke-opacity="0.83486986" stroke-linecap="round" stroke-linejoin="round"/>
    <path d="M 255.97386169 451.66586304 C 256.32510376 446.03576660 256.54318237 440.30627441 256.95513916 434.57992554 C 257.20159912 428.64773560 257.03463745 422.52923584 257.01644897 416.09042358 C 257.11846924 409.25704956 257.02255249 402.03646851 257.04830933 394.32852173 C 257.10494995 386.15280151 257.14239502 377.41445923 257.10394287 368.09579468 C 257.03576660 358.22103882 257.03540039 347.80258179 257.06762695 336.78927612 C 257.06912231 325.13504028 257.05099487 312.95120239 257.07135010 300.22592163 C 257.19241333 287.07406616 256.86041260 273.48721313 256.03353882 259.47741699 C 255.72079468 245.07186890 255.89013672 230.31211853 256.23593140 215.27171326 C 256.70474243 200.11956787 257.33111572 184.95922852 257.95632935 169.88397217 C 258.32376099 155.00753784 258.34478760 140.52374268 257.91265869 126.56533813 C 256.95941162 113.33020020 255.93670654 101.15464783 255.73156738 90.27538300 C 255.77432251 80.99095154 255.67231750 73.78871155 255.77636719 69.11352539 C 256.16409302 67.39634705 256.54098511 68.77913666 256.84823608 73.11305237 C 257.00186157 79.91945648 257.14886475 88.78041840 256.97311401 99.26222229 C 256.05682373 110.83905792 255.09861755 123.32661438 254.63810730 136.58071899 C 254.57168579 150.39620972 254.84597778 164.67539978 255.24771118 179.38679504 C 255.67790222 194.38287354 256.05007935 209.54225159 256.28649902 224.84590149 C 256.27700806 240.25660706 255.92001343 255.79016113 255.36453247 271.33718872 C 255.32388306 286.97030640 255.35099792 302.66818237 255.48942566 318.36080933 C 255.57319641 334.04577637 254.97587585 349.75192261 255.97386169 451.66586304" stroke-width="0.79933190" fill="rgb(0, 0, 0)" opacity="1.0" stroke="rgb(94, 88, 82)" stroke-opacity="0.9825396" stroke-linecap="round" stroke-linejoin="round"/>
    <path d="M 404.83163452 254.98509216 C 391.39953613 254.74678040 377.91595459 254.43580627 364.37451172 254.42713928 C 350.74230957 254.38438416 337.00527954 254.48257446 323.20086670 254.53436279 C 309.30020142 254.55520630 295.33425903 254.50079346 281.29736328 254.30412292 C 267.22781372 253.93606567 253.19921875 254.23097229 239.14100647 254.66183472 C 225.19213867 254.93133545 211.34078979 255.02093506 197.73812866 254.89007568 C 184.51123047 254.89187622 171.71992493 254.87225342 159.40133667 254.87072754 C 147.72515869 254.83433533 136.84033203 254.96359253 126.82746887 254.86820984 C 117.83821869 254.83418274 109.90087128 254.83493042 103.44728851 254.86373901 C 98.32489777 254.85214233 94.84794617 254.90953064 93.15975189 254.62167358 C 93.39945984 254.39160156 95.44721985 254.41888428 99.13880157 254.41108704 C 104.33027649 254.43441772 110.92121124 254.26019287 118.69476318 254.22244263 C 127.54612732 254.35563660 137.30940247 254.48333740 147.91304016 254.28521729 C 159.12600708 254.35795593 170.96217346 254.43360901 183.29006958 254.41665649 C 195.99768066 254.35903931 209.05554199 254.35202026 222.37829590 254.30963135 C 235.90969849 254.39036560 249.64559937 254.30303955 263.49734497 254.23957825 C 277.49530029 254.74394226 291.58065796 254.93969727 305.70935059 254.82989502 C 319.89505005 254.85076904 334.08569336 254.87251282 348.22399902 254.90765381 C 362.27917480 255.06138611 376.41415405 255.02120972 390.44009399 254.62266541 C 404.46218872 254.35453796 418.51782227 254.22834778 432.60824585 254.52818298 C 446.75399780 254.65151978 460.83792114 254.65553284 404.83163452 254.98509216" stroke-width="1.21251261" fill="rgb(0, 0, 0)" opacity="1.0" stroke="rgb(12, 14, 15)" stroke-opacity="0.94381666" stroke-linecap="round" stroke-linejoin="round"/>
    <path d="M 398.30133057 398.79232788 C 394.64059448 393.69824219 390.40402222 388.95117188 385.81094360 384.09869385 C 380.76190186 379.21142578 375.47262573 374.00631714 369.76779175 368.45721436 C 363.84396362 362.38299561 357.48846436 355.90716553 350.65908813 349.01507568 C 343.36721802 341.67349243 335.51724243 333.98129272 327.22613525 325.78479004 C 318.55566406 317.13946533 309.46609497 308.10751343 299.92651367 298.77474976 C 290.08480835 289.09838867 280.11035156 279.01406860 270.18972778 268.44000244 C 259.99749756 257.81808472 248.70408630 247.86421204 237.57197571 237.18046570 C 226.48161316 225.85498047 215.08010864 214.46479797 203.56866455 203.01737976 C 192.12716675 191.58862305 180.91036987 180.24139404 169.99726868 169.14772034 C 159.44975281 158.60108948 149.56526184 148.69651794 140.54742432 139.75021362 C 132.61268616 132.01492310 126.12545776 125.74576569 121.40209961 121.07095337 C 118.65160370 118.62030029 117.89382172 118.69472504 119.30168152 121.21209717 C 123.03700256 125.49665070 128.96266174 131.15751648 136.50238037 138.20431519 C 145.11656189 146.74829102 154.70306396 156.41377258 165.17436218 166.78395081 C 176.17022705 177.80822754 187.48634338 189.29823303 199.05116272 201.01657104 C 210.80233765 212.74302673 222.63677979 224.33859253 234.14828491 235.97921753 C 245.55902100 247.30429077 257.27825928 257.86709595 268.13278198 269.04534912 C 278.76016235 280.28744507 289.67678833 291.06121826 300.53234863 301.70010376 C 311.13400269 312.41793823 321.67153931 323.05990601 332.37786865 333.42492676 C 342.96209717 343.84658813 352.92587280 354.86172485 398.30133057 398.79232788" stroke-width="0.57008910" fill="rgb(11, 11, 10)" opacity="1.0" stroke="rgb(0, 0, 4)" stroke-opacity="0.45552096" stroke-linecap="round" stroke-linejoin="round"/>
    <path d="M 279.94653320 233.01864624 C 270.89086914 242.70892334 261.07449341 251.71986389 250.83444214 260.63760376 C 241.32283020 270.78332520 231.72666931 281.12097168 221.79002380 291.16159058 C 211.76689148 300.84106445 202.29603577 310.53796387 193.07800293 319.71124268 C 184.48481750 328.38754272 176.45783997 336.24871826 169.26565552 343.32971191 C 163.05300903 349.54168701 157.92887878 354.60650635 153.93260193 358.35809326 C 151.45004272 360.85296631 150.69021606 361.91024780 151.70411682 361.44937134 C 154.17160034 359.17572021 158.03286743 355.28268433 163.23017883 350.01354980 C 169.71649170 343.49713135 177.26556396 335.83761597 185.98036194 327.31558228 C 195.46775818 317.82052612 205.69053650 307.56149292 216.57157898 296.80139160 C 227.36044312 285.09167480 238.45544434 273.17141724 250.00286865 261.51486206 C 262.08914185 250.56707764 274.00491333 239.62103271 285.26425171 228.22492981 C 296.43179321 217.08337402 307.31488037 206.21542358 317.80096436 195.69047546 C 327.89901733 185.75155640 337.28408813 176.29803467 345.92578125 167.45744324 C 353.85641479 159.52209473 360.90258789 152.47184753 366.88409424 146.34144592 C 371.71920776 141.25190735 375.55932617 137.61668396 377.93325806 135.15837097 C 378.78332520 133.96089172 378.09710693 134.20915222 376.17892456 136.01882935 C 372.97375488 139.07693481 368.75424194 143.37792969 363.66967773 148.84919739 C 357.54101562 154.95236206 350.76544189 161.84582520 343.42910767 169.36413574 C 335.49111938 177.23771667 327.29428101 185.52008057 318.80279541 193.93302917 C 310.20239258 202.43743896 301.76745605 211.19348145 279.94653320 233.01864624" stroke-width="1.22144985" fill="rgb(13, 13, 13)" opacity="1.0" stroke="rgb(45, 44, 40)" stroke-opacity="0.9960483" stroke-linecap="round" stroke-linejoin="round"/>
    <path d="M 265.45977783 249.02723694 C 264.46682739 250.82789612 263.49487305 252.63211060 262.31814575 254.26751709 C 260.84066772 255.50466919 259.09793091 256.36093140 257.15634155 256.77728271 C 255.02677917 256.85940552 252.90946960 256.64022827 251.00328064 255.95877075 C 249.38641357 254.61274719 248.25880432 252.56182861 247.55906677 249.83987427 C 247.42556763 246.49444580 247.60391235 242.57572937 247.75541687 238.16232300 C 247.85961914 233.22856140 248.01623535 227.83712769 248.27706909 222.05210876 C 248.61064148 215.80937195 248.94975281 209.26757812 249.24520874 202.53347778 C 249.57984924 195.58856201 250.11982727 188.47364807 250.72013855 181.27073669 C 251.12899780 173.97921753 251.50309753 166.79809570 251.95256042 159.76229858 C 252.44883728 152.85574341 253.00889587 146.22317505 253.50924683 139.91085815 C 253.99749756 134.00862122 254.46774292 128.63517761 254.73410034 123.79661560 C 254.96240234 119.62863922 255.13255310 116.14996338 255.31892395 113.49243164 C 255.77047729 111.80771637 256.49359131 111.02911377 257.23306274 111.07725525 C 257.74804688 112.00423431 258.00683594 113.66606140 258.09548950 116.15498352 C 258.22595215 119.28452301 258.48260498 122.97010040 258.86117554 127.18396759 C 259.40304565 131.81967163 259.78152466 136.93260193 259.92993164 142.43264771 C 260.11523438 148.21318054 260.45001221 154.24732971 260.89004517 160.49302673 C 261.36547852 166.93516541 261.81179810 173.52226257 262.21752930 180.17332458 C 262.56558228 186.89965820 262.85156250 193.67991638 263.18481445 200.53932190 C 263.65588379 207.33499146 264.05075073 214.11906433 265.45977783 249.02723694" stroke-width="0.87640774" fill="rgb(216, 49, 24)" opacity="1.0" stroke="rgb(216, 156, 138)" stroke-opacity="0.7163332" stroke-linecap="round" stroke-linejoin="round"/>
  </g>
</svg>
