<?xml version="1.0" ?>
<svg xmlns="http://www.w3.org/2000/svg" version="1.1" width="512" height="512" viewBox="0 0 512 512">
  <defs/>
  <g>
    <path d="M 131.49282837 255.89984131 C 132.31959534 259.58200073 133.12283325 263.04794312 134.30870056 266.45874023 C 135.46133423 269.96231079 136.75123596 273.06793213 137.81411743 275.94271851 C 138.36924744 278.73492432 138.48324585 281.35513306 138.23971558 283.62985229 C 137.63337708 285.35949707 136.72175598 286.33093262 135.58364868 286.35333252 C 133.99613953 285.68508911 132.10214233 284.68923950 130.20108032 282.92648315 C 127.76967621 281.18469238 125.40758514 278.99246216 123.12621307 276.48547363 C 120.91198730 273.95507812 119.15482330 270.85223389 117.03382874 268.00436401 C 115.41590118 264.91580200 114.11099243 261.52053833 113.04396057 258.08181763 C 111.91625214 254.75112915 111.42015839 251.09889221 110.96833801 247.32119751 C 111.02538300 243.36802673 110.98796844 239.43264771 111.01808929 235.48454285 C 111.69120789 231.69827271 112.38706970 227.73896790 113.42581177 223.97708130 C 114.54039001 220.34878540 115.70295715 216.60337830 117.62098694 213.57867432 C 119.40115356 210.54216003 120.95982361 207.31320190 122.93793488 204.58256531 C 124.84174347 202.14891052 126.31787109 199.78358459 128.20573425 198.29708862 C 129.64305115 196.89648438 131.12547302 196.37216187 132.42048645 196.57333374 C 133.51309204 197.19424438 134.03219604 198.49243164 134.31889343 200.29708862 C 133.93278503 202.62704468 133.67761230 205.71098328 133.76840210 208.82978821 C 133.28645325 211.74911499 132.42265320 214.88287354 132.09507751 218.23718262 C 131.38230896 221.65409851 131.00247192 225.28741455 130.78625488 229.32521057 C 130.43568420 233.67590332 129.79737854 238.07688904 131.49282837 255.89984131" stroke-width="1.43932748" fill="rgb(168, 84, 9)" opacity="1.0" stroke="rgb(57, 17, 0)" stroke-opacity="0.8777726" stroke-linecap="round" stroke-linejoin="round"/>
    <path d="M 312.57949829 136.53202820 C 313.68371582 135.70423889 315.00033569 135.33293152 316.39739990 134.90324402 C 317.74935913 134.20053101 319.10873413 133.95132446 320.14056396 133.64921570 C 320.88699341 133.00791931 321.63058472 132.97021484 322.44744873 133.57080078 C 323.80111694 133.90568542 325.35791016 134.48970032 326.68865967 135.54818726 C 328.04119873 136.59387207 329.36184692 137.69248962 330.20721436 139.08065796 C 331.08432007 140.35629272 332.13604736 141.40017700 333.02072144 142.43542480 C 334.18804932 143.17494202 335.13531494 143.89433289 335.76040649 144.78167725 C 335.95297241 145.88449097 335.81283569 147.04443359 335.38995361 148.22546387 C 334.54934692 149.51031494 333.54525757 150.70225525 332.49432373 151.73280334 C 331.25454712 152.67846680 329.87811279 153.49740601 328.54769897 153.96965027 C 327.34768677 154.08776855 326.24508667 153.96694946 325.32162476 153.53230286 C 324.56530762 152.76052856 323.54800415 151.99223328 322.74597168 151.11097717 C 321.68673706 150.44137573 320.54656982 149.96891785 319.32586670 149.72961426 C 317.98403931 150.01501465 316.66262817 150.07037354 315.44616699 149.71237183 C 314.12707520 149.20126343 312.81362915 149.12927246 311.47491455 149.39788818 C 310.01248169 149.30386353 308.74481201 149.18704224 307.30279541 149.25978088 C 305.86343384 149.49319458 304.53298950 149.33177185 303.41918945 149.03471375 C 302.51562500 148.55175781 301.72537231 148.04876709 301.06747437 147.26068115 C 300.66650391 146.59129333 300.53112793 145.74192810 300.37292480 144.86207581 C 300.10565186 143.92958069 299.94305420 142.92912292 312.57949829 136.53202820" stroke-width="1.45966864" fill="rgb(168, 87, 12)" opacity="1.0" stroke="rgb(49, 5, 0)" stroke-opacity="0.90654975" stroke-linecap="round" stroke-linejoin="round"/>
    <path d="M 335.96865845 336.63842773 C 335.50891113 341.89651489 335.23202515 347.16180420 335.32528687 352.48995972 C 335.34359741 357.78802490 335.42837524 363.05874634 335.41448975 368.28976440 C 335.46444702 373.47277832 335.45721436 378.58697510 335.48818970 383.65328979 C 335.53991699 388.59829712 335.50881958 393.34997559 335.62945557 397.89221191 C 335.59341431 402.20056152 335.59490967 406.20510864 335.58523560 409.80386353 C 335.46005249 412.90454102 334.93521118 415.55197144 333.91555786 417.81433105 C 332.87313843 419.64224243 331.25573730 420.93051147 329.00897217 421.79214478 C 325.95828247 421.82397461 322.25704956 421.74081421 318.33862305 421.61837769 C 314.41043091 421.69836426 310.56671143 421.92337036 306.95004272 421.69995117 C 303.81088257 421.68508911 301.33804321 421.82580566 299.48101807 420.87921143 C 297.67434692 419.59332275 296.61407471 417.53262329 296.14929199 414.78414917 C 295.52929688 411.50158691 295.54608154 407.74124146 295.63122559 403.62063599 C 295.84210205 399.21951294 295.72119141 394.65396118 295.66702271 389.98760986 C 295.72598267 385.30056763 295.78909302 380.51980591 295.67953491 375.84820557 C 295.62701416 371.39898682 295.80780029 367.15231323 295.60723877 363.05441284 C 295.58248901 359.06634521 295.46508789 355.39309692 295.79064941 352.00195312 C 296.75903320 348.86212158 297.98977661 345.87713623 299.50827026 343.06997681 C 301.41131592 340.41430664 303.56173706 337.92340088 305.78149414 335.48086548 C 308.14328003 333.10128784 310.62612915 330.80102539 313.16574097 328.51403809 C 315.63897705 326.22830200 318.01730347 323.92007446 335.96865845 336.63842773" stroke-width="0.79079592" fill="rgb(164, 84, 8)" opacity="1.0" stroke="rgb(0, 0, 0)" stroke-opacity="0.35763997" stroke-linecap="round" stroke-linejoin="round"/>
    <path d="M 355.71365356 321.07962036 C 351.27276611 325.50213623 346.96990967 330.03125000 342.01907349 333.79110718 C 336.97790527 337.48419189 331.69915771 340.67678833 325.70419312 342.98257446 C 319.78704834 345.58294678 313.56179810 347.97341919 307.16775513 350.27822876 C 300.62124634 352.17288208 293.91769409 353.52520752 286.87307739 354.56033325 C 279.45892334 355.01638794 271.99093628 355.57626343 264.40972900 356.17221069 C 256.61105347 356.56613159 248.69142151 356.63439941 240.82386780 356.89215088 C 233.01460266 356.54748535 225.27415466 355.87899780 217.66421509 354.49673462 C 209.99429321 352.95080566 202.62060547 351.05084229 195.47036743 348.89828491 C 188.43841553 346.33074951 181.63714600 343.32781982 175.08636475 339.94348145 C 168.86978149 336.22320557 163.01170349 332.15484619 157.86454773 327.32794189 C 152.95947266 322.42660522 148.88696289 316.94024658 145.22508240 311.19451904 C 142.20832825 305.34585571 139.92953491 299.21688843 138.32218933 293.02368164 C 137.29470825 286.66830444 137.04556274 280.30590820 137.54891968 273.92401123 C 138.86355591 267.63424683 140.66363525 261.56018066 143.08021545 255.53652954 C 146.06010437 249.71423340 149.56036377 244.06976318 153.86462402 238.88897705 C 158.51379395 233.80395508 163.94009399 229.30097961 169.64042664 224.94480896 C 175.47987366 220.77212524 181.83815002 217.34330750 188.44499207 214.29312134 C 195.17976379 211.61903381 202.08378601 209.54531860 209.04806519 207.47978210 C 215.84788513 205.91432190 222.55244446 204.73243713 229.29835510 203.74560547 C 235.64814758 202.91726685 242.28750610 202.68054199 249.06422424 202.55935669 C 255.86172485 202.86442566 262.70712280 202.89936829 269.66754150 203.04347229 C 276.69677734 204.05104065 283.84222412 205.43962097 290.93942261 207.35598755 C 298.24365234 209.18914795 305.43972778 211.73291016 312.55212402 214.57655334 C 319.69104004 217.56146240 326.74603271 220.64315796 333.68386841 223.77149963 C 340.51647949 226.93566895 347.10653687 230.28671265 353.29296875 233.91494751 C 359.07287598 237.77619934 364.39581299 241.81849670 369.07489014 246.07104492 C 372.91937256 250.53799438 375.92089844 255.19183350 378.03167725 260.06573486 C 379.11962891 265.15011597 378.97869873 270.37844849 378.17202759 275.75302124 C 377.17764282 281.33050537 375.28924561 286.90328979 372.92697144 292.76089478 C 370.27410889 298.90783691 367.94485474 305.59844971 355.71365356 321.07962036" stroke-width="1.46450770" fill="rgb(169, 86, 9)" opacity="1.0" stroke="rgb(77, 38, 25)" stroke-opacity="1.0" stroke-linecap="round" stroke-linejoin="round"/>
    <path d="M 433.77600098 238.90695190 C 431.15545654 242.56532288 428.16415405 245.80511475 424.86883545 248.73587036 C 421.85665894 251.79989624 418.24618530 254.15589905 414.65109253 256.56063843 C 410.91622925 259.00643921 406.94104004 261.03939819 402.65017700 262.70700073 C 397.95919800 264.07708740 393.05590820 265.49603271 388.17083740 266.92272949 C 383.28536987 267.84838867 378.20437622 268.31521606 372.97048950 268.43270874 C 367.71908569 267.87136841 362.50912476 267.19952393 357.26150513 266.53897095 C 352.04107666 265.79693604 346.88351440 264.67517090 341.91082764 263.15972900 C 337.32870483 261.45104980 332.77801514 259.70858765 328.24035645 258.23205566 C 323.98004150 256.67477417 320.23828125 254.61820984 317.21279907 251.88490295 C 315.09274292 248.22618103 313.03268433 244.12179565 310.98706055 239.71713257 C 309.15255737 235.05892944 307.87890625 230.23672485 306.88128662 225.39204407 C 305.63058472 220.58558655 304.81054688 215.65652466 304.69311523 210.59373474 C 304.94946289 205.50503540 304.99807739 200.44377136 305.41564941 195.41822815 C 306.29885864 190.54187012 307.08065796 185.75570679 308.55249023 181.21319580 C 310.27505493 176.76766968 312.62362671 172.47979736 315.15350342 168.35305786 C 318.26727295 164.38284302 321.25222778 160.30276489 324.66378784 156.67370605 C 327.50079346 152.66731262 330.50332642 149.17312622 334.02294922 146.07537842 C 337.58596802 143.21026611 341.18301392 140.66188049 345.24182129 138.87586975 C 349.07574463 136.77621460 353.27987671 135.22734070 357.56060791 134.26052856 C 361.96432495 133.48077393 366.11178589 132.84687805 370.58911133 132.14047241 C 375.38272095 132.35418701 380.26977539 132.56140137 385.42834473 133.05178833 C 390.52761841 133.92768860 395.61633301 135.11367798 400.53591919 136.75236511 C 405.34201050 138.33854675 410.00506592 140.30189514 414.56689453 142.12048340 C 418.43344116 144.99180603 422.00469971 148.33503723 425.25070190 152.11360168 C 428.00372314 156.35479736 431.28219604 160.21858215 434.14895630 164.54896545 C 436.88626099 169.17756653 439.63381958 173.70468140 441.58972168 178.61476135 C 443.20669556 183.41226196 443.92129517 188.33750916 444.61892700 193.26342773 C 445.21829224 197.93220520 445.02020264 202.68698120 444.79592896 207.31967163 C 444.82312012 211.54284668 443.87115479 215.79516602 442.62350464 220.15469360 C 441.29086304 224.82489014 440.03524780 229.65919495 433.77600098 238.90695190" stroke-width="1.44433296" fill="rgb(168, 86, 10)" opacity="1.0" stroke="rgb(97, 47, 25)" stroke-opacity="1.0" stroke-linecap="round" stroke-linejoin="round"/>
    <path d="M 323.10174561 344.83862305 C 320.72744751 340.89630127 317.55609131 338.12942505 313.58535767 336.62570190 C 309.38357544 335.94116211 305.45611572 336.35052490 301.97125244 338.30883789 C 298.48504639 340.74114990 296.09912109 343.93942261 295.26263428 347.93380737 C 295.41564941 351.50079346 295.13702393 353.57974243 292.90884399 354.04025269 C 289.21282959 353.80792236 284.94522095 354.34564209 280.15164185 355.96774292 C 274.43273926 356.16607666 267.96051025 356.98641968 260.92089844 357.43704224 C 253.24441528 357.36114502 245.28417969 357.83358765 237.46304321 357.08554077 C 230.24551392 356.70999146 223.39614868 356.71978760 216.72570801 354.61880493 C 209.89070129 352.45352173 202.90847778 350.31491089 195.85931396 348.11734009 C 189.14636230 345.60275269 183.25361633 342.47735596 178.17382812 338.49920654 C 173.52606201 334.34381104 169.53921509 329.80578613 166.29267883 324.88806152 C 163.34561157 319.98129272 161.07388306 314.81430054 159.57875061 309.56838989 C 158.20010376 304.53298950 157.75242615 299.35507202 158.05261230 294.35717773 C 158.70111084 289.52789307 159.97909546 284.77066040 162.00546265 280.37838745 C 164.23957825 275.80465698 167.27247620 271.66079712 170.78742981 267.58190918 C 174.46180725 263.54669189 178.74401855 260.07955933 183.43177795 256.83911133 C 188.26399231 253.65498352 193.41813660 251.06668091 198.83433533 248.62113953 C 204.39373779 246.35916138 209.98783875 244.58956909 215.70698547 242.88035583 C 221.36965942 241.63125610 226.88862610 240.55303955 232.43064880 239.89500427 C 237.90171814 239.02949524 243.32077026 238.75621033 248.69822693 238.99096680 C 254.10029602 238.68589783 259.46499634 238.93574524 264.90371704 239.04383850 C 270.30496216 239.71269226 275.87994385 240.36201477 281.50778198 241.20301819 C 287.20455933 242.29624939 292.89007568 243.88351440 298.58374023 245.69029236 C 304.40112305 247.60957336 310.02975464 249.97860718 315.63537598 252.38777161 C 320.97158813 255.09646606 326.17132568 258.01919556 331.01174927 261.21099854 C 335.65539551 264.63742065 339.77551270 268.53506470 343.52011108 272.77621460 C 347.00775146 277.14068604 350.07556152 281.64395142 352.17446899 286.64288330 C 353.91726685 291.90420532 354.62252808 297.66049194 354.55087280 303.53134155 C 354.18191528 309.49856567 352.63626099 315.49404907 349.51119995 321.30706787 C 345.57171631 327.62664795 341.87484741 334.47387695 323.10174561 344.83862305" stroke-width="1.32909870" fill="rgb(224, 187, 145)" opacity="1.0" stroke="rgb(56, 31, 30)" stroke-opacity="0.7807634" stroke-linecap="round" stroke-linejoin="round"/>
    <path d="M 213.86030579 414.13800049 C 212.92787170 416.62466431 211.97949219 418.78045654 210.28428650 419.89602661 C 207.83132935 420.13253784 205.20785522 420.26303101 202.73612976 420.24844360 C 200.41546631 420.58062744 198.08898926 420.96054077 195.60574341 420.32568359 C 192.96943665 420.29727173 190.28038025 420.30389404 187.60803223 420.38619995 C 185.04241943 420.33544922 182.73416138 420.17065430 180.78636169 419.74734497 C 179.41699219 418.27539062 178.88398743 415.88980103 178.82662964 412.51382446 C 178.81857300 408.11721802 178.69337463 403.01828003 178.67608643 397.51083374 C 178.71490479 391.74322510 178.64453125 385.88699341 178.90327454 379.90991211 C 178.90946960 373.87936401 178.77088928 368.07128906 178.73951721 362.70986938 C 178.97518921 357.80099487 179.13853455 353.45611572 178.84817505 349.69522095 C 178.83216858 346.59609985 178.73751831 344.48645020 178.97232056 343.47396851 C 180.26440430 343.48260498 182.25630188 344.18197632 184.51744080 345.29870605 C 186.66104126 346.31814575 188.46607971 346.61819458 189.67158508 345.59527588 C 190.33111572 343.39199829 191.59031677 341.05841064 194.00677490 339.29522705 C 196.63079834 337.57379150 199.61149597 337.11529541 202.86254883 337.63964844 C 205.97853088 338.06750488 208.29350281 339.52822876 210.36288452 342.07977295 C 212.54096985 344.51025391 213.86213684 347.47094727 213.98912048 351.03381348 C 214.02967834 355.46441650 214.07218933 360.52700806 213.91900635 365.99649048 C 213.96809387 371.92489624 214.10330200 378.04730225 214.00187683 384.25735474 C 213.89028931 390.71984863 214.36837769 397.35784912 213.86030579 414.13800049" stroke-width="1.46558297" fill="rgb(169, 87, 8)" opacity="1.0" stroke="rgb(94, 40, 18)" stroke-opacity="0.9966136" stroke-linecap="round" stroke-linejoin="round"/>
    <path d="M 449.74786377 147.56857300 C 448.93887329 148.29695129 447.89553833 148.73719788 446.69787598 148.65838623 C 445.47848511 148.54521179 444.23632812 148.75756836 442.89010620 149.18383789 C 441.31735229 148.99433899 439.42083740 148.75354004 437.64193726 148.51455688 C 436.07672119 148.77896118 434.27813721 148.70268250 432.46322632 148.27957153 C 430.80130005 148.15580750 429.32864380 148.29780579 427.95181274 148.70445251 C 427.26391602 149.40174866 426.88052368 150.29978943 426.46881104 150.99992371 C 425.78454590 151.27064514 424.87615967 151.17643738 423.74768066 151.12797546 C 422.48147583 151.25006104 421.20071411 151.32783508 420.18542480 151.24812317 C 419.42163086 150.76365662 418.73193359 150.09359741 418.18307495 149.19802856 C 418.03088379 148.17480469 418.08486938 146.91053772 418.25311279 145.66493225 C 418.65185547 144.51005554 419.41192627 143.41128540 420.40374756 142.45553589 C 421.37948608 141.27592468 422.32156372 139.92173767 423.19195557 138.52091980 C 423.98873901 137.10917664 424.97250366 136.02510071 426.03619385 135.10375977 C 427.21734619 134.37712097 428.22625732 133.63734436 428.94506836 133.12321472 C 429.88067627 133.21496582 430.84701538 133.57875061 431.86892700 134.03997803 C 432.99099731 134.36651611 434.24261475 134.64454651 435.69226074 135.02609253 C 436.97149658 135.74772644 438.27896118 136.49993896 439.74896240 137.21415710 C 441.20706177 138.16828918 442.79415894 138.78482056 444.23696899 139.82070923 C 445.68917847 140.89642334 447.26013184 141.87272644 448.80108643 142.75952148 C 450.16162109 143.41133118 451.76937866 144.05296326 449.74786377 147.56857300" stroke-width="1.49381530" fill="rgb(169, 89, 11)" opacity="1.0" stroke="rgb(92, 45, 18)" stroke-opacity="1.0" stroke-linecap="round" stroke-linejoin="round"/>
    <path d="M 363.30902100 187.72467041 C 363.21487427 188.56991577 363.02975464 189.43707275 362.72009277 190.29342651 C 362.41940308 191.14117432 362.13293457 191.99333191 361.83581543 192.79992676 C 361.35461426 193.62138367 360.77139282 194.44476318 360.07702637 195.15281677 C 359.30963135 195.76290894 358.50781250 196.36943054 357.69378662 196.87992859 C 356.91241455 197.20181274 356.03436279 197.40051270 355.15570068 197.44343567 C 354.25866699 197.45141602 353.27301025 197.47894287 352.32971191 197.28602600 C 351.40606689 196.96449280 350.37823486 196.55902100 349.33892822 196.16780090 C 348.47341919 195.64923096 347.75793457 194.93266296 347.02770996 194.15269470 C 346.30163574 193.39900208 345.72512817 192.58834839 345.26425171 191.72601318 C 344.90606689 190.79702759 344.67135620 189.86883545 344.46878052 188.96942139 C 344.48306274 188.03303528 344.44299316 187.04783630 344.45526123 186.11149597 C 344.70565796 185.27874756 344.99725342 184.44871521 345.27554321 183.53210449 C 345.79235840 182.73437500 346.35244751 182.00843811 346.82940674 181.28903198 C 347.34066772 180.59994507 348.06314087 180.15318298 348.84637451 179.74253845 C 349.58834839 179.29795837 350.30398560 178.98396301 351.05450439 178.72792053 C 351.92544556 178.43540955 352.77755737 178.21328735 353.62115479 178.17199707 C 354.50613403 178.25448608 355.43649292 178.41403198 356.34439087 178.72042847 C 357.22692871 179.03475952 358.12228394 179.31898499 359.02142334 179.66007996 C 359.70248413 180.18377686 360.34606934 180.79591370 360.96405029 181.57104492 C 361.56845093 182.33897400 362.19531250 183.08076477 363.30902100 187.72467041" stroke-width="0.15437183" fill="rgb(29, 29, 30)" opacity="1.0" stroke="rgb(2, 12, 66)" stroke-opacity="0.4359132" stroke-linecap="round" stroke-linejoin="round"/>
    <path d="M 407.45901489 191.51969910 C 406.98068237 192.32356262 406.47439575 193.05307007 406.02059937 193.74755859 C 405.46478271 194.42228699 404.86422729 194.99989319 404.25997925 195.48939514 C 403.45297241 195.88670349 402.58172607 196.26179504 401.75311279 196.73712158 C 401.01715088 197.04191589 400.22094727 197.20645142 399.29080200 197.33468628 C 398.45260620 197.23896790 397.64108276 196.91728210 396.75582886 196.70797729 C 395.88003540 196.55809021 395.01422119 196.21730042 394.20288086 195.67942810 C 393.55905151 195.02137756 392.82382202 194.42887878 392.13296509 193.71942139 C 391.61831665 192.84747314 391.11444092 191.95297241 390.73312378 191.11959839 C 390.42028809 190.33915710 390.45639038 189.55960083 390.60266113 188.79000854 C 390.64044189 187.95068359 390.62115479 187.12075806 390.74502563 186.29403687 C 391.19989014 185.45381165 391.58444214 184.49951172 391.96334839 183.55743408 C 392.50186157 182.75344849 393.16268921 181.98860168 393.92340088 181.18142700 C 394.78012085 180.51533508 395.51974487 179.89535522 396.34024048 179.30607605 C 397.40859985 178.98767090 398.48315430 178.72857666 399.52908325 178.50251770 C 400.53347778 178.43049622 401.51434326 178.39215088 402.48141479 178.35528564 C 403.38732910 178.53271484 404.26132202 178.75686646 405.06161499 179.12918091 C 405.74307251 179.61412048 406.32690430 180.23017883 406.94805908 180.90966797 C 407.43304443 181.74514771 407.97930908 182.38192749 408.35586548 183.04690552 C 408.56356812 183.91488647 408.61749268 184.96931458 408.58209229 186.02003479 C 408.87011719 186.87037659 409.15072632 187.63194275 407.45901489 191.51969910" stroke-width="1.12263298" fill="rgb(31, 29, 27)" opacity="1.0" stroke="rgb(157, 121, 111)" stroke-opacity="0.27798668" stroke-linecap="round" stroke-linejoin="round"/>
    <path d="M 365.99630737 211.78515625 C 366.82363892 210.92123413 367.85562134 210.06631470 369.04754639 209.45829773 C 370.26290894 208.97683716 371.59423828 208.50370789 372.98388672 208.09414673 C 374.31094360 207.75762939 375.64428711 207.66645813 377.10144043 207.66195679 C 378.63943481 207.62387085 380.09716797 207.65821838 381.49584961 207.88436890 C 382.95736694 208.15711975 384.41802979 208.34973145 385.83084106 208.61032104 C 387.16610718 208.99732971 388.44290161 209.34906006 389.63708496 209.78994751 C 390.71765137 210.34793091 391.61865234 210.96591187 392.28866577 211.71463013 C 392.72589111 212.69132996 392.98825073 213.81599426 392.95288086 214.99600220 C 392.63458252 216.19848633 392.09298706 217.40571594 391.47384644 218.66908264 C 390.65859985 219.89538574 389.72845459 220.96218872 388.60287476 221.89624023 C 387.35211182 222.84289551 386.01290894 223.64009094 384.65173340 224.12617493 C 383.14135742 224.33558655 381.68463135 224.63136292 380.59753418 225.00923157 C 380.00335693 225.56559753 379.79550171 226.31872559 379.90115356 227.18052673 C 380.19232178 227.96124268 380.43194580 228.59867859 380.33911133 229.11863708 C 379.68112183 229.26889038 378.92098999 229.29716492 378.21075439 229.10249329 C 377.85235596 228.44473267 377.64840698 227.51473999 377.60632324 226.47531128 C 377.61404419 225.61109924 377.18359375 225.17904663 376.12219238 224.98985291 C 374.82077026 224.58601379 373.33584595 224.08624268 371.71218872 223.53651428 C 370.20324707 222.75000000 368.82006836 221.57095337 367.59503174 220.03166199 C 366.57910156 218.07337952 365.43762207 216.08706665 365.99630737 211.78515625" stroke-width="0.68863320" fill="rgb(2, 1, 2)" opacity="1.0" stroke="rgb(50, 25, 28)" stroke-opacity="0.73869264" stroke-linecap="round" stroke-linejoin="round"/>
    <path d="M 379.51644897 231.06503296 C 379.20266724 233.25450134 378.55264282 235.35049438 377.49557495 237.18258667 C 376.06283569 238.57626343 374.50399780 239.59049988 372.75372314 240.27452087 C 370.87460327 240.67208862 369.11730957 240.85621643 367.55078125 240.64685059 C 366.37149048 239.92762756 365.47839355 239.11758423 364.85281372 238.34350586 C 364.91946411 238.07295227 365.40002441 238.33226013 366.17782593 239.00115967 C 367.39291382 239.59135437 368.86477661 239.94502258 370.44207764 240.02256775 C 372.08084106 239.75920105 373.67684937 239.18621826 375.21420288 238.49589539 C 376.62255859 237.65869141 377.62823486 236.71701050 378.53421021 235.84031677 C 379.48895264 235.35375977 380.38034058 235.37332153 381.02947998 235.74581909 C 381.37850952 236.40934753 381.67422485 237.13861084 379.51644897 231.06503296" stroke-width="1.33183575" fill="rgb(0, 3, 9)" opacity="1.0" stroke="rgb(14, 5, 10)" stroke-opacity="1.0" stroke-linecap="round" stroke-linejoin="round"/>
  </g>
</svg>
