<?xml version="1.0" ?>
<svg xmlns="http://www.w3.org/2000/svg" version="1.1" width="512" height="512" viewBox="0 0 512 512">
  <defs/>
  <g>
    <path d="M 432.13192749 286.31036377 C 425.69085693 283.36398315 418.53860474 282.16040039 410.24316406 282.48281860 C 400.80349731 282.35989380 390.39117432 282.42764282 379.36343384 282.36642456 C 367.81076050 282.45440674 356.05960083 282.40185547 344.30395508 282.41317749 C 332.82751465 282.29727173 321.63354492 282.77398682 310.83001709 281.71322632 C 300.10037231 281.50305176 289.48666382 281.58706665 278.92694092 281.57696533 C 268.34246826 281.74740601 257.71206665 281.75198364 246.98170471 281.64376831 C 235.91226196 281.80529785 224.55709839 281.46585083 213.06903076 281.74304199 C 201.55294800 281.63381958 189.91960144 281.66616821 178.16329956 281.64083862 C 166.48524475 281.65856934 154.93598938 281.47924805 143.59928894 281.59365845 C 132.58450317 281.49081421 121.92713928 281.55487061 111.67876434 281.55599976 C 102.05114746 281.55987549 93.12921906 281.69277954 85.09590912 281.87948608 C 77.99224091 281.71731567 71.72941589 281.77017212 66.40723419 281.14630127 C 62.15002060 278.23489380 59.46815491 273.23898315 58.45993423 266.45117188 C 57.61351395 258.70584106 57.26755905 250.57701111 58.27437973 242.61308289 C 58.98786926 235.84794617 61.94970703 231.09298706 66.62676239 227.51969910 C 72.75171661 226.44369507 80.10746002 226.90422058 88.63489532 227.27070618 C 98.16939545 227.51635742 108.54228973 227.31617737 119.55979919 227.32398987 C 131.04801941 227.37107849 142.94607544 227.47486877 155.17031860 227.34049988 C 167.45033264 227.37872314 179.58680725 227.24934387 191.38531494 227.36897278 C 202.60699463 226.37922668 213.67408752 226.66220093 224.69691467 226.59820557 C 235.78826904 226.57659912 246.88629150 226.73449707 258.12817383 226.63314819 C 269.46487427 226.54220581 280.91467285 226.49639893 292.43582153 226.62728882 C 304.08636475 226.48086548 315.85885620 226.57385254 327.61599731 226.49037170 C 339.37811279 226.51713562 351.02728271 226.50999451 362.45074463 226.47698975 C 373.74746704 226.50389099 384.67346191 226.54507446 395.09817505 226.49702454 C 405.06939697 226.52616882 414.42343140 226.43554688 423.02484131 226.20210266 C 430.85357666 227.39535522 437.72943115 229.72827148 443.50216675 233.29075623 C 448.14160156 238.20985413 451.39172363 244.36599731 453.20336914 251.69242859 C 453.49389648 260.33596802 452.61264038 269.84707642 451.12500000 280.27029419 C 449.03216553 290.99725342 447.19869995 301.93011475 432.13192749 286.31036377" stroke-width="2.00000000" fill="rgb(226, 217, 209)" opacity="1.0" stroke="rgb(0, 0, 0)" stroke-opacity="1.0" stroke-linecap="round" stroke-linejoin="round"/>
    <path d="M 55.64127350 271.55490112 C 50.97983170 271.69573975 47.00356674 271.65435791 44.21380234 271.75427246 C 43.40200043 270.71691895 43.49664688 268.39752197 43.43672562 264.71920776 C 43.18905640 259.76715088 42.95941544 254.11708069 43.26686478 248.60560608 C 43.26124573 244.59672546 41.88983154 243.27954102 40.28519821 245.34963989 C 40.04310226 250.57826233 39.99861526 257.22277832 40.31008148 263.61276245 C 40.98896408 268.41320801 40.98042297 271.32440186 39.71027756 272.15673828 C 37.66417694 271.45025635 35.97594833 268.98214722 34.97044373 265.55941772 C 34.23534012 262.12756348 34.32889557 258.78018188 34.46647644 255.73664856 C 33.80208588 253.11631775 33.49740982 250.86201477 33.60021973 248.77897644 C 34.40434265 247.01765442 34.66574097 245.20190430 34.79195786 243.32038879 C 35.26379013 241.53991699 35.65237808 240.15283203 36.43450546 239.14796448 C 37.46232605 238.27651978 38.11359024 237.33047485 38.80204391 236.66006470 C 40.02125931 236.39457703 41.56314850 236.35581970 43.18949127 236.58018494 C 44.84155273 236.50315857 46.51240921 236.40464783 48.18344498 236.46542358 C 49.87204742 236.57704163 51.47818375 236.69171143 52.77350616 236.68257141 C 53.82428741 236.60337830 54.73678970 236.74546814 55.31648636 237.09117126 C 55.43202591 237.87780762 55.41896439 238.96000671 55.35699844 240.21920776 C 55.23247910 241.72891235 55.23103333 243.42280579 55.20254517 245.22116089 C 55.19939804 247.03776550 55.27995682 248.85617065 55.08527374 250.70080566 C 55.08143616 252.56758118 54.82436371 254.43571472 55.64127350 271.55490112" stroke-width="2.00000000" fill="rgb(202, 201, 196)" opacity="1.0" stroke="rgb(0, 0, 0)" stroke-opacity="1.0" stroke-linecap="round" stroke-linejoin="round"/>
    <path d="M 154.76341248 245.63731384 C 155.65591431 249.05331421 156.60673523 252.18551636 157.55319214 254.97311401 C 157.71307373 257.72677612 157.29760742 260.27496338 156.58309937 262.80502319 C 155.52508545 265.18640137 154.02456665 267.11996460 152.16145325 268.87240601 C 150.20297241 270.48638916 148.16850281 271.61761475 145.63601685 272.16641235 C 142.96313477 272.42858887 140.09529114 272.66671753 137.14518738 272.73364258 C 134.26652527 272.21972656 131.44813538 270.93484497 128.96615601 268.85696411 C 126.51956177 266.48452759 124.48427582 263.75933838 123.43000031 260.36849976 C 122.89526367 256.81787109 123.14467621 253.27114868 124.11155701 249.85359192 C 125.50711823 246.67660522 127.24716949 244.02597046 129.17292786 242.22196960 C 130.66357422 241.08766174 130.81697083 240.37858582 129.31422424 240.09072876 C 126.34543610 240.19679260 122.36535645 240.28179932 117.64192200 240.22434998 C 112.45019531 240.19802856 107.08146667 240.22669983 101.77481079 240.43894958 C 96.89223480 240.44641113 92.86916351 239.77104187 90.13326263 238.75369263 C 88.97582245 237.98753357 89.60329437 237.60328674 91.95273590 238.00079346 C 95.69293213 238.07775879 100.49678802 237.91351318 105.96580505 237.88919067 C 111.79642487 237.81883240 117.71810913 237.90533447 123.51622009 237.91992188 C 129.08747864 237.92884827 134.21350098 237.94190979 138.76293945 237.77439880 C 142.58239746 237.69552612 145.60261536 237.74003601 147.71333313 237.74362183 C 148.85047913 238.07127380 148.98851013 238.60684204 148.44113159 239.33839417 C 147.60157776 239.98043823 146.78875732 240.45442200 154.76341248 245.63731384" stroke-width="0.73827630" fill="rgb(30, 14, 13)" opacity="1.0" stroke="rgb(94, 77, 75)" stroke-opacity="0.87149036" stroke-linecap="round" stroke-linejoin="round"/>
    <path d="M 142.85667419 241.61398315 C 144.27757263 242.10432434 145.76376343 242.65367126 147.12550354 243.32247925 C 148.41476440 244.03141785 149.68034363 244.84318542 150.79165649 245.88668823 C 151.74024963 247.13259888 152.59986877 248.38056946 153.36021423 249.73294067 C 153.85136414 251.02844238 154.13275146 252.52919006 154.21708679 254.04417419 C 154.32572937 255.45516968 154.38067627 256.79470825 154.38208008 258.10891724 C 154.07063293 259.37777710 153.68847656 260.49673462 153.21530151 261.58285522 C 152.91578674 262.76483154 152.37455750 263.77783203 151.55126953 264.61172485 C 150.46676636 265.47030640 149.44598389 266.39910889 148.46495056 267.36840820 C 147.12147522 267.96801758 145.83572388 268.58480835 144.45065308 269.23345947 C 142.95985413 269.57876587 141.39735413 269.77182007 139.84439087 269.83932495 C 138.30494690 269.88854980 136.86570740 269.63864136 135.45007324 269.11657715 C 134.11326599 268.51443481 132.75787354 267.86114502 131.65295410 266.87759399 C 130.65695190 265.70675659 129.67669678 264.46002197 128.88119507 263.15029907 C 128.09819031 261.76611328 127.51131439 260.30307007 127.15100861 258.74032593 C 126.98938751 257.15185547 126.85818481 255.52989197 126.79506683 254.00234985 C 127.02809906 252.66261292 127.47625732 251.36380005 127.93130493 250.03070068 C 128.52905273 248.80685425 129.23191833 247.62571716 129.95906067 246.59268188 C 130.61953735 245.64045715 131.52951050 244.79934692 132.43083191 244.07841492 C 133.27130127 243.59713745 134.23002625 243.14459229 135.10429382 242.55136108 C 135.89248657 241.89421082 136.66171265 241.35214233 142.85667419 241.61398315" stroke-width="0.72716331" fill="rgb(234, 228, 222)" opacity="1.0" stroke="rgb(176, 145, 156)" stroke-opacity="0.6309867" stroke-linecap="round" stroke-linejoin="round"/>
    <path d="M 171.63310242 240.00627136 C 167.12406921 240.14984131 162.62413025 240.20088196 158.39132690 240.27407837 C 154.73396301 240.23344421 151.73825073 240.33747864 149.56823730 240.11657715 C 148.37542725 239.63679504 148.07711792 238.92076111 148.68319702 238.16998291 C 150.22460938 237.82734680 152.50494385 237.67417908 155.26948547 237.72892761 C 158.33787537 237.82415771 161.72564697 237.83567810 165.25138855 237.82351685 C 168.72206116 237.87603760 172.01480103 237.92962646 175.17411804 237.84709167 C 178.12875366 237.65521240 180.71907043 237.46401978 183.01577759 237.90501404 C 185.08409119 238.82130432 186.92614746 240.08511353 188.70036316 241.44544983 C 190.55477905 242.73699951 192.29463196 244.16104126 193.73793030 245.69180298 C 194.93280029 247.32710266 195.72166443 249.23339844 196.24336243 251.28141785 C 196.69377136 253.41506958 196.83985901 255.64511108 196.56300354 257.97253418 C 196.12159729 260.24432373 195.35189819 262.45153809 194.21914673 264.63088989 C 192.67355347 266.55120850 190.97607422 268.29904175 189.25605774 269.97283936 C 187.22811890 271.15039062 185.08570862 271.87164307 182.83151245 272.22583008 C 180.57856750 272.24642944 178.37777710 272.39999390 176.39155579 272.22781372 C 174.59362793 272.15853882 172.91395569 271.63742065 171.21723938 270.71322632 C 169.54150391 269.56002808 167.93281555 268.17352295 166.41966248 266.44531250 C 165.03958130 264.49267578 163.71234131 262.27407837 162.74879456 259.96536255 C 162.41314697 257.16674805 162.56230164 254.07809448 163.11515808 250.92134094 C 163.97161865 247.53382874 164.77593994 244.00080872 171.63310242 240.00627136" stroke-width="0.58404011" fill="rgb(22, 9, 11)" opacity="1.0" stroke="rgb(17, 0, 4)" stroke-opacity="0.55587083" stroke-linecap="round" stroke-linejoin="round"/>
    <path d="M 170.55830383 266.60504150 C 169.79772949 265.57232666 169.00105286 264.54476929 168.25035095 263.61672974 C 167.57310486 262.68807983 167.09860229 261.68112183 166.74613953 260.63012695 C 166.37728882 259.62353516 166.13642883 258.60394287 165.98002625 257.51812744 C 165.84133911 256.39224243 165.68119812 255.29415894 165.76084900 254.19444275 C 166.17338562 252.98822021 166.45387268 251.66094971 166.75360107 250.28172302 C 167.24671936 248.91149902 168.01185608 247.65165710 168.90342712 246.38676453 C 169.90846252 245.26634216 170.94551086 244.30215454 172.09503174 243.36563110 C 173.43290710 242.59880066 174.77357483 242.08094788 176.25593567 241.79600525 C 177.89874268 241.66975403 179.48788452 241.48239136 180.96798706 241.41642761 C 182.45915222 241.71794128 183.87231445 242.32402039 185.15408325 242.91552734 C 186.54861450 243.53349304 187.83763123 244.34242249 188.93008423 245.29739380 C 189.92640686 246.47090149 190.90295410 247.60797119 191.79255676 248.81153870 C 192.36466980 250.22404480 192.90525818 251.64710999 193.20426941 253.03738403 C 193.25907898 254.62893677 193.27792358 256.18963623 193.34979248 257.62078857 C 193.00218201 258.91418457 192.55400085 260.14675903 192.11291504 261.32379150 C 191.49743652 262.44607544 190.85409546 263.52331543 190.07769775 264.45806885 C 189.15640259 265.31372070 188.19435120 266.18942261 187.15762329 267.08596802 C 185.91358948 267.76904297 184.67410278 268.42947388 183.34642029 268.96002197 C 181.85028076 269.27047729 180.21037292 269.32644653 178.61708069 269.35165405 C 177.12855530 269.37207031 175.42349243 269.26803589 170.55830383 266.60504150" stroke-width="0.67522550" fill="rgb(232, 229, 218)" opacity="1.0" stroke="rgb(153, 139, 139)" stroke-opacity="0.6608362" stroke-linecap="round" stroke-linejoin="round"/>
    <path d="M 258.14117432 237.24461365 C 254.09442139 238.51678467 249.89952087 239.50616455 245.67997742 239.87876892 C 241.64556885 239.92018127 237.86442566 239.86555481 234.45317078 239.90782166 C 231.43299866 239.90402222 228.88194275 239.64042664 226.87522888 239.50523376 C 225.63729858 239.61015320 225.09342957 240.06486511 225.19836426 240.72695923 C 225.90989685 241.31651306 227.24531555 241.96585083 228.85943604 243.08381653 C 230.45385742 244.63813782 231.94480896 246.62716675 233.37174988 248.89451599 C 234.33670044 251.44769287 234.65185547 254.35594177 234.50737000 257.28189087 C 234.05667114 260.04843140 232.96372986 262.62765503 231.45185852 265.00924683 C 229.73817444 267.11053467 227.78451538 268.88131714 225.76176453 270.33059692 C 223.59333801 271.27178955 221.28509521 271.61752319 218.87435913 271.69677734 C 216.37025452 271.91265869 213.87449646 271.83093262 211.50218201 271.17602539 C 209.23040771 269.99649048 207.10902405 268.55419922 205.25489807 266.55508423 C 203.64508057 264.39227295 202.56471252 261.76455688 201.85273743 259.09588623 C 201.38018799 256.19091797 201.44544983 253.23547363 201.91262817 250.34881592 C 202.76872253 247.66337585 203.94458008 245.34562683 205.44709778 243.45605469 C 207.15678406 242.26316833 208.62884521 241.42146301 209.31063843 240.57495117 C 209.03498840 240.02590942 207.78907776 239.86656189 205.74739075 240.12358093 C 202.98731995 240.11738586 199.70736694 239.99581909 195.89349365 240.09999084 C 191.65887451 240.01573181 187.23690796 239.60528564 182.66423035 238.96295166 C 178.00964355 238.16201782 173.37471008 237.43307495 258.14117432 237.24461365" stroke-width="0.62784255" fill="rgb(26, 10, 13)" opacity="1.0" stroke="rgb(45, 22, 31)" stroke-opacity="0.59758806" stroke-linecap="round" stroke-linejoin="round"/>
    <path d="M 225.09729004 243.29069519 C 225.89657593 244.11791992 226.80218506 244.85101318 227.61366272 245.66860962 C 228.37994385 246.78041077 229.10667419 247.89956665 229.85871887 249.06874084 C 230.42752075 250.32005310 230.92253113 251.64189148 231.20722961 252.97694397 C 231.22410583 254.36888123 231.24671936 255.85371399 231.20246887 257.31356812 C 230.92260742 258.62472534 230.30770874 259.82577515 229.55868530 261.11773682 C 229.08683777 262.41979980 228.37579346 263.57916260 227.37300110 264.52612305 C 226.33403015 265.57473755 225.38778687 266.63406372 224.17907715 267.43469238 C 222.75225830 267.88568115 221.28100586 268.25448608 219.82185364 268.65347290 C 218.35018921 268.87664795 216.88787842 268.89331055 215.51187134 268.84960938 C 214.24122620 268.37243652 212.93753052 267.98434448 211.71879578 267.59005737 C 210.64866638 266.87063599 209.51240540 266.06881714 208.40618896 265.12948608 C 207.55455017 263.98019409 206.77868652 262.69161987 206.04132080 261.42004395 C 205.52648926 260.07049561 205.04733276 258.66903687 204.73838806 257.23416138 C 204.75485229 255.84024048 204.78617859 254.41273499 204.69338989 252.94721985 C 204.89715576 251.53736877 205.38323975 250.27464294 205.89497375 249.09059143 C 206.62519836 247.93501282 207.41548157 246.71502686 208.24133301 245.58325195 C 209.34742737 244.64920044 210.46723938 243.78732300 211.66337585 243.00886536 C 212.86645508 242.33638000 214.09890747 241.79371643 215.42073059 241.34474182 C 216.65037537 241.18927002 217.85639954 241.28443909 219.30093384 241.46485901 C 220.76257324 241.51899719 222.08599854 241.49661255 225.09729004 243.29069519" stroke-width="0.59919363" fill="rgb(236, 231, 222)" opacity="1.0" stroke="rgb(158, 141, 151)" stroke-opacity="0.6879018" stroke-linecap="round" stroke-linejoin="round"/>
    <path d="M 269.96047974 243.82293701 C 271.56369019 245.95095825 272.79190063 248.10928345 273.54629517 250.57437134 C 274.01617432 253.08815002 274.06225586 255.58966064 273.67306519 258.02880859 C 273.34478760 260.37680054 272.44686890 262.55648804 271.14138794 264.53341675 C 269.71279907 266.35513306 268.17361450 268.05886841 266.36898804 269.40942383 C 264.29388428 270.42239380 262.13247681 271.05282593 259.87780762 271.28613281 C 257.52374268 271.41308594 255.14147949 271.38037109 252.75135803 271.22113037 C 250.59938049 270.53701782 248.58491516 269.52505493 246.77146912 268.14724731 C 245.13124084 266.50598145 243.88346863 264.61349487 242.86648560 262.49896240 C 242.07217407 260.31414795 241.58522034 258.06085205 241.50065613 255.69956970 C 241.50384521 253.36669922 241.64427185 251.10734558 242.06051636 248.94036865 C 242.81927490 247.02827454 243.91767883 245.22468567 245.11787415 243.58094788 C 246.56132507 242.30902100 248.18467712 241.14233398 249.96969604 240.02122498 C 251.79518127 238.93350220 253.77857971 238.01675415 256.01834106 237.45272827 C 258.49835205 237.14997864 261.09246826 237.16970825 263.78619385 237.15653992 C 266.54394531 237.11691284 269.33157349 237.06103516 272.07409668 237.11949158 C 274.50115967 237.09231567 276.55953979 237.02101135 278.23190308 237.12342834 C 279.40579224 237.59254456 279.97644043 238.21195984 279.82296753 238.83921814 C 279.02697754 239.24255371 277.64437866 239.42803955 275.77008057 239.45855713 C 273.49551392 239.33798218 270.89947510 239.21212769 268.12341309 239.19541931 C 265.21136475 239.15315247 262.37258911 239.07662964 269.96047974 243.82293701" stroke-width="0.70410454" fill="rgb(21, 11, 10)" opacity="1.0" stroke="rgb(27, 0, 9)" stroke-opacity="0.54590946" stroke-linecap="round" stroke-linejoin="round"/>
    <path d="M 245.14674377 260.22540283 C 244.72964478 259.07305908 244.51968384 257.90744019 244.69790649 256.65383911 C 244.67036438 255.34571838 244.64271545 254.01152039 244.53210449 252.71444702 C 244.73056030 251.46148682 245.15994263 250.12757874 245.62358093 248.76609802 C 246.07423401 247.53324890 246.83489990 246.49543762 247.65515137 245.50904846 C 248.38748169 244.49949646 249.23077393 243.53443909 250.34442139 242.75164795 C 251.55842590 242.13514709 252.83117676 241.58177185 254.12242126 241.10383606 C 255.47738647 240.86538696 256.89520264 240.72370911 258.24032593 240.88516235 C 259.58981323 241.20918274 260.95324707 241.66897583 262.30099487 242.20906067 C 263.52966309 242.84909058 264.66021729 243.65383911 265.84582520 244.36837769 C 266.71191406 245.30996704 267.51281738 246.37171936 268.15075684 247.53044128 C 268.93200684 248.58541870 269.56890869 249.74107361 269.89569092 250.94621277 C 270.20269775 252.21224976 270.26818848 253.47123718 270.28179932 254.78506470 C 270.37496948 256.12252808 270.35079956 257.30853271 270.03976440 258.47747803 C 269.55911255 259.73275757 269.03048706 261.08709717 268.45321655 262.40359497 C 267.62808228 263.58004761 266.77731323 264.65563965 265.67666626 265.61468506 C 264.40075684 266.33773804 263.16989136 266.98147583 261.95709229 267.70916748 C 260.69155884 268.21624756 259.33926392 268.25918579 257.93542480 268.18884277 C 256.61965942 268.48022461 255.35408020 268.32482910 254.06730652 268.02877808 C 252.70182800 267.76907349 251.29516602 267.33013916 250.14346313 266.60153198 C 248.93782043 265.72439575 247.56716919 265.05035400 245.14674377 260.22540283" stroke-width="0.56186694" fill="rgb(234, 226, 218)" opacity="1.0" stroke="rgb(152, 146, 153)" stroke-opacity="0.7150303" stroke-linecap="round" stroke-linejoin="round"/>
    <path d="M 286.64099121 239.20486450 C 284.16345215 239.25543213 281.94207764 239.47688293 280.23092651 239.37483215 C 279.21786499 238.62460327 278.99136353 237.65563965 279.64468384 237.00131226 C 281.31820679 236.87194824 283.73382568 237.03338623 286.88613892 236.85766602 C 290.66171265 236.80233765 294.76968384 236.57807922 299.11529541 236.68415833 C 303.66320801 236.79187012 308.19030762 236.78732300 312.59240723 236.79882812 C 316.66830444 236.69189453 320.28195190 236.67384338 323.27017212 236.73382568 C 325.61734009 236.77519226 327.04580688 236.86260986 327.50122070 237.34596252 C 326.92379761 238.22253418 325.40704346 238.95582581 323.14035034 239.29145813 C 320.20578003 239.32041931 316.81527710 239.27911377 313.33374023 239.12361145 C 310.08474731 239.24993896 307.22103882 239.36363220 305.04080200 239.27569580 C 303.81784058 239.29258728 303.51235962 239.74713135 304.11230469 240.51382446 C 305.57363892 241.35697937 307.31771851 242.71319580 308.99502563 244.67698669 C 310.54263306 246.98356628 311.57510376 249.60868835 311.84997559 252.68807983 C 311.70767212 256.04077148 311.02874756 259.28726196 309.73260498 262.39459229 C 308.10818481 265.16143799 305.88253784 267.32287598 303.18664551 268.88793945 C 300.43502808 270.18771362 297.56100464 270.99133301 294.62457275 271.17163086 C 291.79312134 270.97116089 289.06817627 270.16815186 286.53076172 268.79040527 C 284.39593506 267.03469849 282.54708862 264.79272461 281.10165405 262.24874878 C 279.89089966 259.57595825 279.30966187 256.59979248 279.37524414 253.36083984 C 279.50958252 249.77532959 279.39828491 246.08468628 286.64099121 239.20486450" stroke-width="0.65646660" fill="rgb(26, 13, 13)" opacity="1.0" stroke="rgb(23, 0, 5)" stroke-opacity="0.5480578" stroke-linecap="round" stroke-linejoin="round"/>
    <path d="M 308.21725464 256.14797974 C 307.68325806 257.56570435 307.39355469 259.02432251 306.90505981 260.40731812 C 306.06539917 261.80584717 305.09524536 263.12969971 303.76535034 264.20877075 C 302.43374634 265.36941528 300.97021484 266.38925171 299.42303467 267.12536621 C 297.80032349 267.57199097 296.14532471 267.82061768 294.53375244 267.89688110 C 292.94805908 267.72134399 291.38134766 267.31484985 289.93264771 266.87426758 C 288.60910034 266.32012939 287.57559204 265.51168823 286.64019775 264.42782593 C 285.73818970 263.39910889 284.85748291 262.32357788 284.31204224 261.08871460 C 283.71554565 259.81604004 283.12164307 258.63195801 282.66763306 257.33889771 C 282.75253296 255.97862244 282.72067261 254.65939331 282.50296021 253.34085083 C 282.59902954 252.02087402 282.76724243 250.65161133 282.79327393 249.35507202 C 283.10336304 248.46401978 283.65380859 247.62239075 284.10906982 246.73823547 C 284.47042847 245.88485718 284.88488770 245.12980652 285.43759155 244.49327087 C 286.24472046 243.90310669 287.02722168 243.25250244 287.85202026 242.52722168 C 289.01214600 242.03375244 290.38659668 241.57124329 291.81729126 241.09078979 C 293.34808350 240.70933533 294.83905029 240.39100647 296.18521118 240.23069763 C 297.38186646 240.51730347 298.56427002 240.79998779 299.75076294 240.95814514 C 300.76260376 241.42370605 301.63467407 242.01084900 302.51889038 242.59880066 C 303.49670410 243.27313232 304.38439941 244.03175354 305.14501953 244.90983582 C 305.68905640 245.93664551 306.54162598 246.96983337 307.30325317 248.00535583 C 307.97274780 249.08180237 308.76235962 250.14454651 308.21725464 256.14797974" stroke-width="0.57891238" fill="rgb(236, 228, 218)" opacity="1.0" stroke="rgb(168, 163, 163)" stroke-opacity="0.72636545" stroke-linecap="round" stroke-linejoin="round"/>
    <path d="M 338.27343750 270.43893433 C 335.55621338 270.61447144 332.99392700 270.72497559 330.63052368 270.53588867 C 328.49810791 269.86206055 326.54965210 268.87078857 324.70858765 267.80718994 C 323.10992432 266.50155640 321.71813965 265.03753662 320.64334106 263.29040527 C 319.77767944 261.40731812 319.06521606 259.40298462 318.68328857 257.26257324 C 318.64486694 255.03730774 318.65414429 252.78657532 318.97470093 250.53549194 C 319.55386353 248.32209778 320.33615112 246.31401062 321.37213135 244.50112915 C 322.58328247 242.86308289 323.93081665 241.55683899 325.31536865 240.36895752 C 326.19036865 238.98594666 326.91079712 237.73374939 327.65597534 236.78169250 C 328.86981201 236.46676636 330.46325684 236.39561462 332.35595703 236.37577820 C 334.47824097 236.31655884 336.60049438 236.39085388 338.68325806 236.46150208 C 340.75555420 236.55929565 342.78555298 236.63583374 344.55895996 236.56297302 C 345.93457031 236.63185120 346.89245605 236.86065674 347.47888184 237.41912842 C 347.65625000 238.16658020 347.36944580 238.70549011 346.73703003 239.01425171 C 345.83792114 239.09277344 344.70352173 239.03932190 343.54489136 239.03215027 C 342.63842773 239.10035706 342.16766357 239.34040833 342.29214478 239.81582642 C 342.97665405 240.36428833 344.04901123 241.04745483 345.48425293 241.76060486 C 346.75024414 242.81924438 348.02609253 244.20196533 349.20321655 245.88436890 C 350.27130127 247.71508789 350.96572876 249.85763550 351.35891724 252.19441223 C 351.53234863 254.72395325 351.19155884 257.44616699 350.26809692 260.29678345 C 348.99960327 263.40722656 347.68298340 266.79129028 338.27343750 270.43893433" stroke-width="0.57033253" fill="rgb(13, 7, 8)" opacity="1.0" stroke="rgb(10, 4, 8)" stroke-opacity="0.47748277" stroke-linecap="round" stroke-linejoin="round"/>
    <path d="M 336.52548218 267.28918457 C 335.33065796 267.41278076 334.06488037 267.46466064 332.77392578 267.47952271 C 331.51956177 267.36672974 330.34265137 267.00222778 329.13095093 266.58212280 C 327.94436646 266.14187622 326.89013672 265.53448486 325.84729004 264.83868408 C 324.98919678 264.04217529 324.26449585 263.06915283 323.63992310 261.92459106 C 322.95852661 260.79025269 322.46011353 259.69683838 322.07681274 258.56384277 C 321.90402222 257.34469604 321.80804443 256.05160522 321.61975098 254.72796631 C 321.63159180 253.35014343 321.68493652 252.00799561 321.96105957 250.78720093 C 322.36193848 249.37362671 322.85592651 247.89132690 323.48782349 246.62225342 C 324.05999756 245.36004639 324.95941162 244.20906067 325.97167969 243.21119690 C 327.15560913 242.40260315 328.43161011 241.72856140 329.72195435 241.06301880 C 331.11325073 240.66253662 332.61251831 240.32849121 334.06311035 240.17874146 C 335.45422363 240.15695190 336.83514404 240.34260559 338.04083252 240.74728394 C 339.14443970 241.47985840 340.35983276 242.02586365 341.56372070 242.44432068 C 342.62124634 243.13574219 343.56826782 244.00439453 344.46859741 245.03114319 C 345.28198242 246.12010193 346.08993530 247.29141235 346.78256226 248.50733948 C 347.32046509 249.76519775 347.64312744 251.14332581 347.76931763 252.50521851 C 347.94058228 253.86825562 347.90270996 255.14381409 347.56835938 256.43746948 C 347.24346924 257.77999878 346.91986084 259.13516235 346.52432251 260.41650391 C 345.72708130 261.57958984 344.90228271 262.70605469 343.92852783 263.86395264 C 342.78100586 265.00534058 341.58587646 266.02078247 336.52548218 267.28918457" stroke-width="0.59593105" fill="rgb(229, 222, 214)" opacity="1.0" stroke="rgb(140, 136, 137)" stroke-opacity="0.6956557" stroke-linecap="round" stroke-linejoin="round"/>
    <path d="M 386.70101929 263.68597412 C 385.09768677 265.00460815 383.65582275 266.32528687 382.29000854 267.65280151 C 380.78964233 268.73059082 379.09759521 269.61367798 377.31076050 270.13568115 C 375.28231812 270.42843628 373.07940674 270.63165283 370.76000977 270.69421387 C 368.34533691 270.37121582 365.98785400 269.64553833 363.68045044 268.51782227 C 361.38723755 267.10717773 359.52270508 265.22778320 358.07376099 262.98532104 C 357.02276611 260.45440674 356.27529907 257.78549194 355.96203613 254.95431519 C 355.86169434 252.10221863 356.18704224 249.40336609 356.78906250 246.93959045 C 357.62005615 244.83189392 358.73706055 243.13093567 359.98611450 241.76019287 C 361.24679565 240.82627869 361.94470215 240.01655579 361.99932861 239.32702637 C 361.33157349 238.90385437 359.96258545 238.89234924 358.11599731 239.09004211 C 355.95397949 239.07463074 353.59509277 239.01908875 351.28207397 239.03376770 C 349.21057129 239.14675903 347.60083008 239.15104675 346.50540161 238.75634766 C 346.07366943 238.08691406 346.40417480 237.31321716 347.60629272 236.67814636 C 349.62646484 236.47489929 352.31491089 236.32460022 355.48593140 236.29798889 C 358.89605713 236.42366028 362.35342407 236.55372620 365.82904053 236.84553528 C 369.24349976 236.34472656 372.37600708 236.12351990 375.05038452 236.10031128 C 377.11749268 236.71688843 378.85534668 238.05043030 380.50976562 239.54093933 C 382.21847534 240.85414124 383.98507690 242.05548096 385.59271240 243.37207031 C 386.66366577 245.09512329 387.50033569 246.97456360 388.23144531 249.23297119 C 388.95050049 251.82768250 389.81790161 254.42388916 386.70101929 263.68597412" stroke-width="0.61181974" fill="rgb(13, 9, 8)" opacity="1.0" stroke="rgb(15, 0, 6)" stroke-opacity="0.554975" stroke-linecap="round" stroke-linejoin="round"/>
    <path d="M 385.51574707 253.84365845 C 385.15600586 255.50920105 384.81988525 257.29907227 384.38815308 258.97930908 C 383.81823730 260.45574951 383.04864502 261.79568481 382.12564087 263.00436401 C 381.13931274 264.08770752 380.10083008 264.91070557 378.98348999 265.70257568 C 377.69375610 266.24569702 376.51998901 266.75729370 375.18148804 267.10321045 C 373.71600342 267.18328857 372.23208618 267.24047852 370.79257202 267.10263062 C 369.30847168 266.85217285 367.90454102 266.43811035 366.54101562 265.98135376 C 365.29055786 265.46170044 364.16751099 264.76751709 363.21212769 263.91732788 C 362.40652466 262.82476807 361.56530762 261.73669434 360.76745605 260.76538086 C 360.12582397 259.72888184 359.77398682 258.45333862 359.62219238 257.14181519 C 359.51226807 255.77919006 359.31634521 254.32495117 359.28302002 252.88409424 C 359.43554688 251.40574646 359.76086426 249.84211731 360.11254883 248.33319092 C 360.58975220 246.88804626 361.25393677 245.57318115 362.05117798 244.35906982 C 362.98474121 243.31851196 363.98605347 242.39089966 364.99401855 241.53996277 C 366.21011353 240.87733459 367.48428345 240.46820068 368.79995728 240.04861450 C 370.10028076 239.81465149 371.41232300 239.58183289 372.79183960 239.58293152 C 374.21734619 239.84548950 375.64035034 240.14451599 376.97708130 240.45213318 C 378.20803833 240.90142822 379.28594971 241.50141907 380.40844727 242.16020203 C 381.39468384 242.90306091 382.16714478 243.67605591 382.78359985 244.58990479 C 383.34851074 245.59408569 383.74890137 246.63891602 384.12020874 247.58206177 C 384.60394287 248.40954590 385.05029297 249.27400208 385.51574707 253.84365845" stroke-width="0.60435450" fill="rgb(233, 225, 214)" opacity="1.0" stroke="rgb(159, 155, 157)" stroke-opacity="0.74727285" stroke-linecap="round" stroke-linejoin="round"/>
    <path d="M 430.43768311 278.91848755 C 429.08343506 279.42385864 427.82009888 279.90557861 426.65625000 280.35995483 C 425.60000610 280.84588623 424.66763306 281.41140747 423.85995483 282.05014038 C 423.26153564 282.42169189 422.69415283 282.45611572 422.04183960 282.05462646 C 421.17849731 281.63409424 420.28070068 281.34436035 419.69671631 280.89813232 C 419.61624146 279.88330078 419.75756836 278.43038940 419.76486206 276.68759155 C 419.70867920 274.67297363 419.61071777 272.34591675 419.68139648 269.79159546 C 419.79421997 267.11477661 419.65802002 264.32635498 419.65414429 261.46545410 C 419.82788086 258.69458008 419.91061401 256.09738159 419.65252686 253.75021362 C 420.22485352 251.58729553 420.40591431 249.30920410 420.35086060 246.99028015 C 420.03775024 244.87388611 420.13021851 243.02017212 420.51663208 241.59716797 C 420.70324707 240.85757446 420.63009644 240.61512756 420.26504517 240.48373413 C 420.10314941 240.42942810 420.34890747 240.47465515 420.91375732 240.45922852 C 421.73245239 240.42883301 422.76913452 240.47402954 423.90991211 240.46675110 C 424.97659302 240.92042542 425.97280884 241.59448242 427.09634399 242.40223694 C 428.29116821 243.28894043 429.53829956 244.28669739 430.69064331 245.43113708 C 431.68447876 246.63874817 432.69366455 247.95007324 433.73895264 249.26692200 C 434.74255371 250.68832397 435.66436768 252.23181152 436.50320435 253.75987244 C 437.22778320 255.29173279 437.90936279 256.73788452 438.58090210 258.25897217 C 439.16726685 259.84500122 439.76580811 261.48452759 440.29714966 263.13879395 C 440.79641724 264.78106689 441.18554688 266.40032959 430.43768311 278.91848755" stroke-width="2.00000000" fill="rgb(188, 184, 162)" opacity="1.0" stroke="rgb(0, 0, 0)" stroke-opacity="1.0" stroke-linecap="round" stroke-linejoin="round"/>
    <path d="M 417.05813599 236.09452820 C 417.76974487 232.51245117 417.99572754 229.33287048 418.06503296 226.93501282 C 418.85180664 225.78630066 419.92926025 225.71565247 420.50006104 226.59182739 C 420.25662231 228.24490356 420.16082764 230.35862732 420.34024048 232.73785400 C 420.32989502 235.17196655 420.13287354 237.35215759 420.51080322 239.01448059 C 421.66635132 239.85568237 423.13235474 239.78408813 424.27517700 238.81195068 C 424.59664917 236.73034668 424.52362061 234.02601624 424.37045288 231.08087158 C 424.09173584 228.22264099 423.76785278 225.77479553 424.24667358 223.97554016 C 426.46221924 223.26026917 429.27346802 222.15753174 432.25015259 220.15423584 C 435.02215576 217.59219360 437.51971436 214.95466614 440.23532104 212.99281311 C 443.00476074 211.94586182 445.68579102 212.18923950 448.17562866 213.70463562 C 450.01516724 216.21177673 451.47607422 219.63760376 452.49893188 223.71282959 C 453.46438599 228.00091553 454.15255737 232.50209045 454.45593262 236.91007996 C 454.71011353 240.91137695 454.83352661 244.45130920 454.99481201 247.49925232 C 455.08493042 249.74095154 454.54330444 250.93809509 453.16027832 250.99475098 C 450.95217896 250.10804749 448.07855225 248.48649597 444.60424805 246.43415833 C 440.47509766 244.19067383 435.62091064 242.11305237 430.12902832 240.41741943 C 424.04406738 239.29943848 417.35629272 238.83163452 410.02188110 238.97167969 C 401.96179199 239.12384033 393.32632446 239.13047791 384.26263428 239.22648621 C 374.84384155 239.17291260 365.05392456 238.83061218 355.06823730 238.36668396 C 344.93792725 237.57034302 334.84442139 236.93778992 417.05813599 236.09452820" stroke-width="0.65513051" fill="rgb(14, 9, 9)" opacity="1.0" stroke="rgb(79, 70, 67)" stroke-opacity="0.71267974" stroke-linecap="round" stroke-linejoin="round"/>
    <path d="M 447.23501587 219.50263977 C 448.13742065 222.62861633 448.72387695 226.05822754 449.47973633 229.32818604 C 450.23229980 232.74214172 450.63571167 236.32817078 450.66387939 239.90711975 C 451.06472778 243.62457275 451.15411377 247.53125000 451.26846313 251.59169006 C 451.24319458 255.67253113 451.10269165 259.72177124 450.85467529 263.71542358 C 450.80776978 267.62792969 450.27587891 271.42178345 449.63742065 275.05062866 C 449.42459106 278.38369751 448.96853638 281.49371338 448.35937500 284.20236206 C 447.57806396 286.62634277 446.91635132 288.71331787 446.27938843 290.45388794 C 445.62216187 291.84091187 444.73370361 292.67028809 443.73226929 292.76519775 C 442.20339966 292.22500610 440.31735229 291.20059204 438.55508423 289.52639771 C 436.55899048 287.68713379 434.33370972 286.11975098 432.02297974 284.88735962 C 429.78933716 284.07159424 428.01910400 283.32550049 426.84527588 282.25091553 C 426.59646606 280.45843506 426.64694214 277.88381958 426.70211792 274.64562988 C 426.66192627 270.87161255 426.79251099 266.60485840 426.77874756 262.01934814 C 426.51049805 257.25888062 426.57183838 252.44641113 426.73291016 247.72724915 C 426.83291626 243.19540405 426.79779053 238.88172913 426.65472412 234.89895630 C 426.73767090 231.45085144 426.58834839 228.70854187 426.61865234 226.91494751 C 427.31390381 226.00933838 428.56036377 225.70716858 430.01950073 225.47624207 C 431.58056641 224.77101135 433.19259644 223.79872131 434.92352295 222.55416870 C 436.70196533 221.05557251 438.60302734 219.18016052 440.59713745 217.24414062 C 442.71597290 215.14506531 444.98999023 212.97749329 447.23501587 219.50263977" stroke-width="2.00000000" fill="rgb(239, 234, 227)" opacity="1.0" stroke="rgb(9, 8, 8)" stroke-opacity="1.0" stroke-linecap="round" stroke-linejoin="round"/>
    <path d="M 88.49950409 280.45239258 C 87.04433441 280.73358154 85.65718079 280.69259644 84.37925720 280.47280884 C 83.18784332 280.48327637 81.95275116 280.42831421 80.71445465 280.45437622 C 79.59014893 280.44470215 78.64119720 280.15753174 77.69180298 280.08938599 C 76.63574219 280.43142700 75.28105164 280.54501343 73.75896454 280.27447510 C 72.24394989 280.42398071 70.73000336 280.51828003 69.30438232 280.47354126 C 68.26859283 279.96090698 67.33905792 279.08041382 66.64588165 277.58724976 C 66.70247650 275.23898315 66.48398590 272.20944214 65.67852783 268.97543335 C 65.50347900 265.39434814 65.37821198 261.68759155 65.48714447 257.92684937 C 65.45851135 254.01547241 65.36563110 250.24607849 65.50370789 246.84436035 C 65.34465027 243.88307190 65.56597137 241.30886841 66.34864807 238.80981445 C 66.45124054 236.28894043 66.49182129 233.86289978 66.58765411 231.68222046 C 67.15017700 230.22947693 68.09162140 229.13873291 69.40081787 228.66656494 C 71.26716614 228.88375854 73.51237488 228.83441162 76.06540680 228.59812927 C 78.74504089 228.56323242 81.44892120 228.66970825 83.96327972 228.70684814 C 86.01143646 228.43638611 87.55057526 228.38145447 88.48975372 228.84974670 C 88.72039795 229.56448364 88.55714417 230.90771484 88.48738098 232.66351318 C 88.88520050 234.57199097 88.12467194 236.47196960 87.50570679 238.51260376 C 88.12418365 241.15820312 88.55582428 244.38581848 88.33700562 247.98957825 C 88.05274200 251.70210266 88.11434174 255.45364380 88.35879517 259.25833130 C 88.24794769 263.15078735 88.09922791 267.10540771 88.49950409 280.45239258" stroke-width="2.00000000" fill="rgb(220, 218, 212)" opacity="1.0" stroke="rgb(0, 0, 0)" stroke-opacity="1.0" stroke-linecap="round" stroke-linejoin="round"/>
    <path d="M 96.65030670 262.51885986 C 96.52896118 264.84851074 96.48382568 267.23535156 96.71831512 269.73068237 C 96.67813873 272.13931274 96.59311676 274.40026855 96.64243317 276.36468506 C 96.61354828 278.01229858 96.57425690 279.27395630 96.52957916 280.21786499 C 96.04173279 280.85406494 95.17069244 281.00399780 94.05474091 280.84146118 C 93.03229523 280.76272583 92.21734619 280.74880981 91.69471741 280.61138916 C 91.50112152 279.96234131 91.46170044 278.85324097 91.46855164 277.39657593 C 91.59158325 275.65145874 91.69300842 273.61407471 91.52787018 271.36016846 C 91.61866760 268.96289062 91.65593719 266.43185425 91.56790924 263.84924316 C 91.46524048 261.24157715 91.39175415 258.67337036 91.48644257 256.10568237 C 91.56036377 253.59362793 91.57324219 251.24618530 91.54714203 249.05346680 C 91.58569336 247.02471924 91.40590668 245.22619629 91.36264038 243.67665100 C 91.22798920 242.43392944 91.27104187 241.55267334 91.35131836 241.07026672 C 91.66186523 240.89619446 92.10737610 240.84782410 92.62216187 240.82485962 C 93.21942902 240.78439331 93.89651489 240.67965698 94.56157684 240.60932922 C 95.17819977 240.45922852 95.69812012 240.45843506 96.10295868 240.77339172 C 96.24615479 241.40957642 96.44855499 242.28923035 96.60999298 243.41105652 C 96.61392212 244.68212891 96.50611877 246.20104980 96.47908020 247.93493652 C 96.55586243 249.77651978 96.51858521 251.53083801 96.66179657 253.23461914 C 96.56070709 255.03085327 96.52498627 257.01187134 96.72906494 259.00595093 C 96.62150574 260.96987915 96.07981110 262.98510742 96.65030670 262.51885986" stroke-width="2.00000000" fill="rgb(233, 230, 152)" opacity="1.0" stroke="rgb(30, 5, 0)" stroke-opacity="1.0" stroke-linecap="round" stroke-linejoin="round"/>
  </g>
</svg>
