<?xml version="1.0" ?>
<svg xmlns="http://www.w3.org/2000/svg" version="1.1" width="512" height="512" viewBox="0 0 512 512">
  <defs/>
  <g>
    <path d="M 655.61187744 480.16027832 C 630.24969482 485.57986450 604.94805908 491.03189087 579.64221191 496.46121216 C 554.32806396 501.89837646 528.94842529 507.36428833 503.49322510 512.80200195 C 477.90606689 518.31512451 452.16876221 523.79077148 426.30798340 529.21612549 C 400.30682373 534.49102783 374.20861816 539.51013184 348.08358765 544.18566895 C 321.88925171 548.40551758 295.63873291 552.18536377 269.41751099 555.44403076 C 243.23837280 558.12164307 217.21247864 560.09222412 191.46275330 561.23266602 C 166.16783142 561.31024170 141.39920044 560.29364014 117.28235626 558.01428223 C 93.99742889 554.31762695 71.83132172 548.97222900 50.96277237 541.74743652 C 31.62012291 532.40618896 14.03979301 520.79138184 -1.64561224 506.74462891 C -15.28655434 490.21707153 -27.01566315 471.38385010 -36.91764069 450.50381470 C -45.16535187 427.83593750 -51.96556473 403.76052856 -57.43210220 378.55426025 C -61.70686340 352.47167969 -64.81687164 325.77148438 -66.75371552 298.61190796 C -67.61584473 271.18637085 -67.47724915 243.87138367 -66.35599518 216.86883545 C -64.25507355 190.25357056 -61.04740524 164.25831604 -56.70029068 139.02235413 C -51.19377518 114.59313202 -44.48293304 91.16336060 -36.50313950 68.94008636 C -27.21856499 48.12284088 -16.50284767 28.90792656 -4.27912045 11.38864613 C 9.46192455 -4.40057611 24.71842003 -18.46070099 41.47863388 -30.85743523 C 59.64964676 -41.67947388 79.09748840 -50.88525391 99.67354584 -58.67366791 C 121.29242706 -65.11077881 143.81867981 -70.34674072 167.14558411 -74.28945923 C 191.18357849 -77.07396698 215.75793457 -78.70925140 240.73643494 -79.27860260 C 265.96334839 -78.73346710 291.30645752 -77.12288666 316.57482910 -74.43895721 C 341.59759521 -70.61180115 366.24807739 -65.61043549 390.36022949 -59.40194321 C 413.69384766 -51.92325592 436.15679932 -43.11306381 457.52886963 -32.84037781 C 477.66159058 -21.05624008 496.38656616 -7.66536903 513.56134033 7.46746397 C 529.10375977 24.29490662 543.09698486 42.71588516 555.65942383 62.52512741 C 566.98120117 83.57432556 577.15307617 105.75960541 586.28308105 128.86813354 C 594.56573486 152.72709656 602.13562012 177.29600525 609.03955078 202.38827515 C 615.45520020 227.80606079 621.51525879 253.55415344 627.26171875 279.57254028 C 632.77124023 305.66043091 638.15179443 331.84210205 643.46972656 358.13171387 C 648.72283936 384.43197632 653.95288086 410.67483521 655.61187744 480.16027832" stroke-width="2.00000000" fill="rgb(252, 240, 224)" opacity="1.0" stroke="rgb(253, 216, 173)" stroke-opacity="0.29155725" stroke-linecap="round" stroke-linejoin="round"/>
    <path d="M 478.36508179 516.65270996 C 475.91479492 517.71600342 473.41232300 518.69854736 470.94250488 519.58514404 C 468.55520630 520.37023926 466.18151855 521.05651855 463.75341797 521.48016357 C 461.44555664 521.56323242 459.30093384 521.24517822 457.22262573 520.45257568 C 455.39511108 519.09515381 454.01522827 517.03247070 453.10400391 514.24975586 C 452.81918335 510.65399170 452.89514160 506.21862793 453.06384277 501.01760864 C 453.23159790 494.98104858 453.41442871 488.14736938 453.18936157 480.66195679 C 452.88186646 472.51760864 453.43054199 463.70874023 453.21127319 454.12228394 C 453.31524658 443.81494141 453.28292847 432.98846436 453.40588379 421.85021973 C 453.06777954 410.54794312 453.34271240 399.14770508 453.48443604 387.69351196 C 453.50753784 376.23419189 453.51260376 364.83828735 453.21432495 353.68243408 C 454.21316528 342.96398926 453.97760010 332.28216553 453.77807617 321.46841431 C 453.91494751 310.58914185 454.03628540 299.59774780 453.26300049 288.23004150 C 453.67160034 276.09146118 453.34857178 263.47891235 453.05206299 250.59696960 C 452.63357544 237.71023560 451.78982544 225.16853333 451.28427124 212.96868896 C 450.43984985 201.20054626 449.78225708 190.03167725 448.99371338 179.71173096 C 449.65664673 170.24098206 448.66375732 161.48667908 447.61709595 153.50297546 C 446.97753906 146.64358521 446.09829712 141.05009460 445.75216675 136.99122620 C 448.13595581 133.93659973 452.28811646 132.38136292 457.43923950 131.58523560 C 462.56100464 131.43280029 467.33483887 132.54595947 471.40859985 133.94773865 C 473.89297485 135.42431641 473.90975952 138.53427124 473.28582764 143.88351440 C 473.28033447 151.04893494 473.29138184 159.31495667 473.60681152 167.97283936 C 475.47277832 176.33161926 475.63385010 185.18237305 475.82955933 194.66584778 C 476.27261353 204.64401245 476.64813232 215.13766479 477.62149048 225.78536987 C 477.69207764 236.39036560 478.07867432 246.90147400 478.41079712 257.30374146 C 478.44485474 267.48715210 478.43725586 277.84213257 479.54626465 288.47140503 C 478.22598267 299.48385620 478.49615479 311.26684570 478.63763428 323.52697754 C 478.57971191 335.84683228 478.53289795 347.85083008 479.18096924 359.37704468 C 479.07644653 370.45297241 479.13394165 381.10983276 479.21740723 391.37258911 C 479.29037476 401.41302490 478.78210449 411.10220337 478.13919067 420.72485352 C 478.04739380 430.35208130 478.37240601 439.94128418 478.36508179 516.65270996" stroke-width="1.01092267" fill="rgb(151, 210, 29)" opacity="1.0" stroke="rgb(175, 197, 102)" stroke-opacity="0.82081175" stroke-linecap="round" stroke-linejoin="round"/>
    <path d="M 468.28326416 171.15031433 C 468.90451050 171.30291748 469.51574707 171.46264648 470.10879517 171.61378479 C 470.67803955 171.61480713 471.21560669 171.43013000 471.74932861 171.16166687 C 472.25860596 170.93157959 472.73745728 170.75476074 473.10485840 170.69802856 C 473.36459351 170.84330750 473.48690796 171.16014099 473.50582886 171.58473206 C 473.50140381 171.99615479 473.50460815 172.36866760 473.46829224 172.68391418 C 473.33078003 172.90377808 473.07583618 172.96078491 472.70861816 172.84629822 C 472.19927979 172.66230774 471.62066650 172.49291992 471.02075195 172.26794434 C 470.34793091 172.03047180 469.65237427 171.71005249 468.96847534 171.43748474 C 468.22055054 171.18307495 467.46838379 170.98030090 466.70388794 170.90400696 C 465.91622925 170.87905884 465.13110352 170.94877625 468.28326416 171.15031433" stroke-width="0.48531714" fill="rgb(133, 188, 33)" opacity="1.0" stroke="rgb(71, 102, 8)" stroke-opacity="0.31539613" stroke-linecap="round" stroke-linejoin="round"/>
    <path d="M 470.48159790 253.35928345 C 468.64892578 251.70811462 466.97225952 250.08601379 465.45510864 248.53623962 C 464.19149780 247.04219055 463.17083740 245.63255310 462.37258911 244.31475830 C 461.74792480 243.08383179 461.25015259 241.94876099 460.88082886 240.90000916 C 460.61160278 239.95951843 460.47677612 239.05293274 460.48916626 238.25669861 C 460.62387085 237.53382874 460.90435791 236.88436890 461.29772949 236.33772278 C 461.78408813 235.87217712 462.40597534 235.47776794 463.13406372 235.17304993 C 463.93725586 234.91786194 464.82113647 234.74160767 465.79873657 234.63536072 C 466.83178711 234.61038208 467.94235229 234.63812256 469.08602905 234.72215271 C 470.32022095 234.86830139 471.52465820 235.03591919 472.81857300 235.19337463 C 474.11859131 235.32823181 475.45111084 235.43966675 470.48159790 253.35928345" stroke-width="2.00000000" fill="rgb(155, 215, 27)" opacity="1.0" stroke="rgb(155, 217, 27)" stroke-opacity="0.87067723" stroke-linecap="round" stroke-linejoin="round"/>
    <path d="M 458.22619629 290.51708984 C 459.77368164 290.19155884 461.31707764 289.85424805 462.84552002 289.58187866 C 464.28909302 289.42214966 465.70684814 289.45773315 467.07025146 289.69848633 C 468.26507568 290.17523193 469.34689331 290.86126709 470.26055908 291.68725586 C 470.96725464 292.63323975 471.47100830 293.66827393 471.81600952 294.76589966 C 472.01089478 295.90792847 472.11737061 297.10736084 472.10086060 298.32336426 C 471.94335938 299.54354858 471.70190430 300.76678467 471.37600708 302.00302124 C 470.88107300 303.22116089 470.22213745 304.44699097 469.39889526 305.69226074 C 468.37152100 306.93994141 467.16693115 308.16323853 465.81060791 309.40411377 C 464.28417969 310.61834717 462.63409424 311.79534912 460.89559937 312.96777344 C 459.06936646 314.09234619 457.27926636 315.21139526 458.22619629 290.51708984" stroke-width="2.00000000" fill="rgb(154, 216, 25)" opacity="1.0" stroke="rgb(156, 219, 25)" stroke-opacity="0.8982581" stroke-linecap="round" stroke-linejoin="round"/>
    <path d="M 478.18768311 357.76947021 C 478.27175903 356.78890991 478.47396851 355.92620850 478.76257324 355.23074341 C 478.92456055 354.65747070 478.95690918 354.23474121 479.05548096 353.85296631 C 479.34912109 353.65090942 479.65567017 353.34649658 479.92636108 353.00598145 C 480.08398438 352.81793213 480.01556396 352.54202271 480.07012939 352.23641968 C 480.14379883 351.95397949 480.08352661 351.69491577 480.03897095 351.45623779 C 480.06088257 351.27926636 480.11026001 350.98776245 480.05905151 350.64468384 C 479.86608887 350.42404175 479.62448120 350.28405762 479.44976807 350.19458008 C 479.30615234 350.24163818 479.20016479 350.29870605 479.06079102 350.31344604 C 478.88122559 350.33706665 478.64437866 350.31515503 478.43118286 350.23294067 C 478.31469727 350.07333374 478.32537842 349.88223267 478.18768311 357.76947021" stroke-width="0.96186823" fill="rgb(133, 170, 59)" opacity="1.0" stroke="rgb(124, 162, 52)" stroke-opacity="0.3622047" stroke-linecap="round" stroke-linejoin="round"/>
    <path d="M 473.96716309 445.91265869 C 473.63311768 446.50308228 473.29428101 447.07272339 472.89147949 447.68301392 C 472.45117188 448.31845093 471.95129395 448.96795654 471.37509155 449.62429810 C 470.67791748 450.26602173 469.90231323 450.83020020 469.02688599 451.30429077 C 468.02145386 451.69207764 466.94970703 451.94271851 465.81420898 452.10095215 C 464.63217163 452.12588501 463.43518066 452.03302002 462.28945923 451.79479980 C 461.15274048 451.34963989 460.12933350 450.72601318 459.25656128 449.92297363 C 458.49008179 448.92349243 457.94808960 447.81982422 457.53866577 446.57467651 C 457.30590820 445.26196289 457.21075439 443.89971924 457.16146851 442.48327637 C 457.18350220 441.03842163 457.22399902 439.59399414 457.26162720 438.11599731 C 457.31976318 436.63995361 457.33190918 435.17657471 457.37863159 433.72848511 C 457.42227173 432.28030396 457.46490479 430.87988281 457.56100464 429.49401855 C 457.70223999 428.14294434 457.89999390 426.87713623 458.22592163 425.66363525 C 458.69421387 424.56881714 459.29129028 423.59265137 460.06658936 422.75177002 C 460.96749878 422.05816650 461.97964478 421.52685547 463.07272339 421.21209717 C 464.22994995 420.98852539 465.40066528 420.98965454 466.54583740 421.18499756 C 467.64028931 421.55847168 468.68750000 422.10226440 469.62844849 422.82815552 C 470.48342896 423.69558716 471.23348999 424.63800049 471.87921143 425.63549805 C 472.41812134 426.69342041 472.86547852 427.76522827 473.23895264 428.88229370 C 473.48004150 430.01721191 473.67309570 431.15121460 473.78683472 432.28527832 C 473.83895874 433.41287231 473.90579224 434.53594971 473.96716309 445.91265869" stroke-width="2.00000000" fill="rgb(155, 217, 26)" opacity="1.0" stroke="rgb(154, 217, 27)" stroke-opacity="0.9268523" stroke-linecap="round" stroke-linejoin="round"/>
    <path d="M 371.19729614 485.59912109 C 369.81811523 487.38626099 368.35855103 489.18603516 366.70932007 490.89654541 C 364.88760376 492.48559570 362.88693237 493.91946411 360.63317871 495.14944458 C 358.17172241 496.10202026 355.55020142 496.66119385 352.81390381 496.80612183 C 350.03582764 496.44378662 347.30404663 495.46691895 344.72503662 493.88632202 C 342.53927612 491.60479736 340.85961914 488.49600220 339.91390991 484.55905151 C 339.78698730 479.68988037 339.88265991 473.91894531 339.77822876 467.19400024 C 339.76589966 459.67755127 339.86563110 451.39144897 339.74310303 442.42736816 C 339.68774414 432.90304565 339.72238159 422.85565186 339.61843872 412.32504272 C 339.54583740 401.41409302 339.55313110 390.14807129 339.16650391 378.59646606 C 338.88964844 366.76080322 338.96038818 354.65795898 339.00451660 342.39581299 C 338.84097290 330.03988647 338.87301636 317.51486206 339.50219727 304.76611328 C 339.61260986 291.79144287 339.71362305 278.78463745 339.87957764 265.67929077 C 339.65393066 252.58486938 339.31109619 239.62925720 339.46536255 226.78790283 C 339.44781494 214.18365479 339.66744995 201.87365723 340.78472900 189.89038086 C 340.97152710 178.08291626 341.42404175 166.62603760 341.74911499 155.64964294 C 341.65716553 145.22845459 342.54443359 135.51939392 342.81015015 126.46052551 C 342.71298218 117.97280884 342.39990234 110.33760071 342.17227173 103.87050629 C 341.69827271 99.02704620 341.61239624 95.84756470 343.87878418 93.84902954 C 347.93438721 91.54665375 353.30517578 90.14362335 359.51004028 90.38006592 C 365.97714233 91.47084808 371.67364502 93.30028534 375.34265137 96.08369446 C 375.95257568 100.08209991 374.22119141 105.63860321 373.40115356 113.27395630 C 372.51901245 122.46620941 371.46395874 132.55847168 372.54421997 143.21438599 C 371.31707764 154.43124390 371.02346802 166.40550232 370.27163696 178.75006104 C 369.95144653 191.15219116 370.39883423 203.73916626 370.24328613 216.34829712 C 370.21774292 228.71485901 369.75070190 240.83422852 370.39367676 252.56950378 C 369.42752075 263.79037476 369.63299561 274.98645020 369.88204956 286.23611450 C 369.69906616 297.43298340 369.57229614 308.46569824 370.42816162 319.52685547 C 370.11206055 330.86386108 370.27490234 342.32357788 370.27026367 353.82174683 C 370.38610840 365.44317627 370.46542358 377.17358398 370.19342041 388.93814087 C 370.36947632 400.86569214 371.07550049 412.79684448 371.19729614 485.59912109" stroke-width="0.62567043" fill="rgb(142, 223, 130)" opacity="1.0" stroke="rgb(193, 220, 172)" stroke-opacity="0.8779083" stroke-linecap="round" stroke-linejoin="round"/>
    <path d="M 343.04614258 136.01670837 C 343.19927979 136.87719727 343.57623291 137.36576843 344.37237549 137.33482361 C 345.57968140 136.93847656 346.91967773 136.46434021 348.18771362 135.94158936 C 349.39306641 135.48333740 350.50970459 135.14918518 351.56552124 134.93757629 C 352.52313232 134.88464355 353.48352051 134.79803467 354.48907471 134.67427063 C 355.48028564 134.59796143 356.51275635 134.60281372 357.54971313 134.67251587 C 358.57766724 134.69250488 359.54714966 134.71649170 360.46771240 134.73460388 C 361.42645264 134.87319946 362.34664917 135.07003784 363.21047974 135.28694153 C 364.04003906 135.48011780 364.82739258 135.69233704 365.46063232 135.90104675 C 365.98495483 136.07807922 366.44644165 136.10018921 366.74783325 135.82298279 C 366.81149292 135.24592590 366.82931519 134.50872803 343.04614258 136.01670837" stroke-width="0.62834996" fill="rgb(113, 196, 109)" opacity="1.0" stroke="rgb(0, 132, 9)" stroke-opacity="0.20101896" stroke-linecap="round" stroke-linejoin="round"/>
    <path d="M 339.73931885 193.91880798 C 341.51571655 193.94914246 343.28170776 193.91679382 344.97113037 193.69717407 C 346.56338501 193.35757446 348.08270264 193.04702759 349.47305298 192.85119629 C 350.68234253 192.74522400 351.68603516 192.59942627 352.51071167 192.56886292 C 353.06677246 192.56657410 353.33999634 192.51805115 353.38757324 192.46557617 C 353.19668579 192.46635437 352.72003174 192.54275513 352.02310181 192.63088989 C 351.20388794 192.71896362 350.19171143 192.83969116 348.99487305 192.96765137 C 347.72067261 193.08117676 346.39575195 193.30932617 345.07757568 193.56707764 C 343.77200317 193.71476746 342.62487793 194.02444458 341.80404663 194.78205872 C 341.30850220 196.18331909 341.15869141 198.18305969 341.29779053 200.51713562 C 341.23089600 202.97041321 340.66586304 205.37747192 339.73931885 193.91880798" stroke-width="0.67429709" fill="rgb(106, 162, 89)" opacity="1.0" stroke="rgb(4, 108, 7)" stroke-opacity="0.20937741" stroke-linecap="round" stroke-linejoin="round"/>
    <path d="M 353.51757812 249.49057007 C 351.46939087 249.77108765 349.35336304 250.05143738 347.26229858 250.38378906 C 345.38146973 250.74382019 343.74676514 251.20692444 342.41326904 251.71958923 C 341.46310425 252.46919250 340.88674927 253.30651855 340.54330444 254.01496887 C 340.13095093 254.32933044 339.61550903 254.24082947 339.12564087 253.95507812 C 338.86602783 253.38644409 338.89913940 252.81301880 339.23843384 252.27687073 C 339.94827271 251.94416809 340.95404053 251.62576294 342.21841431 251.25917053 C 343.67572021 250.90295410 345.29934692 250.43719482 347.05801392 249.99975586 C 348.91567993 249.65956116 350.89578247 249.36897278 352.95309448 249.19425964 C 355.04782104 249.13606262 357.16635132 249.13836670 359.31951904 249.31762695 C 361.49218750 249.47929382 363.73385620 249.41328430 353.51757812 249.49057007" stroke-width="0.63311607" fill="rgb(91, 165, 76)" opacity="1.0" stroke="rgb(43, 164, 47)" stroke-opacity="0.4135915" stroke-linecap="round" stroke-linejoin="round"/>
    <path d="M 349.73406982 311.67221069 C 352.10278320 311.48574829 354.47872925 311.34677124 356.84176636 311.33120728 C 359.07208252 311.42663574 361.16857910 311.50750732 363.09646606 311.94015503 C 364.81784058 312.50540161 366.28985596 313.03219604 367.40130615 313.55490112 C 368.06582642 314.34448242 368.35302734 315.20043945 368.36828613 315.89508057 C 368.27694702 316.27639771 367.87957764 316.32308960 367.10745239 316.08990479 C 366.07775879 315.63894653 364.78057861 315.23593140 363.16613770 314.83700562 C 361.24975586 314.61392212 359.07775879 314.40289307 356.66256714 314.30975342 C 354.11749268 314.29602051 351.46060181 314.34057617 348.86306763 314.53948975 C 346.30078125 315.03067017 343.88574219 315.68496704 341.60852051 316.18542480 C 339.62640381 315.72817993 337.79791260 314.67581177 349.73406982 311.67221069" stroke-width="1.75290155" fill="rgb(155, 238, 149)" opacity="1.0" stroke="rgb(0, 107, 15)" stroke-opacity="0.21396162" stroke-linecap="round" stroke-linejoin="round"/>
    <path d="M 342.83157349 373.40454102 C 344.82095337 372.68374634 346.74917603 372.30740356 348.71661377 372.05404663 C 350.65859985 371.77493286 352.40393066 371.47338867 354.02865601 371.33654785 C 355.46414185 371.34817505 356.74151611 371.33584595 357.77612305 371.39477539 C 358.53488159 371.46823120 359.04125977 371.55908203 359.24270630 371.68539429 C 359.13937378 371.75942993 358.72412109 371.70947266 358.07913208 371.65713501 C 357.14578247 371.66326904 355.91436768 371.74758911 354.41625977 371.67129517 C 352.65774536 371.51785278 350.77145386 371.53134155 348.78759766 371.82330322 C 346.75622559 372.27575684 344.76101685 372.95205688 342.95562744 373.65524292 C 341.55520630 374.66998291 340.52886963 375.79025269 339.63858032 376.53173828 C 338.32034302 376.32189941 336.79782104 375.73745728 342.83157349 373.40454102" stroke-width="0.68057489" fill="rgb(89, 160, 71)" opacity="1.0" stroke="rgb(0, 113, 11)" stroke-opacity="0.28227806" stroke-linecap="round" stroke-linejoin="round"/>
    <path d="M 278.33782959 492.78912354 C 278.41693115 497.10809326 278.23007202 501.34609985 278.31149292 505.32525635 C 278.48004150 508.98812866 278.23818970 512.27288818 277.19808960 515.01434326 C 275.21585083 517.21636963 272.63375854 518.88354492 269.60485840 519.96368408 C 266.22760010 520.42736816 262.80505371 520.21441650 259.68716431 519.26275635 C 256.92700195 517.55102539 254.67201233 515.06781006 253.33322144 511.70162964 C 253.04971313 507.54232788 253.14944458 502.46484375 253.28979492 496.56771851 C 253.21156311 490.07131958 253.23356628 482.83825684 253.24105835 475.01736450 C 252.85215759 466.75845337 252.48263550 458.10617065 253.25828552 448.80154419 C 253.15493774 438.71194458 253.24609375 428.11437988 253.19372559 417.19100952 C 253.18043518 406.01034546 253.44035339 394.71188354 253.09793091 383.38674927 C 253.12532043 372.15597534 253.17541504 361.02493286 253.06697083 349.87490845 C 253.08551025 338.74667358 252.65701294 327.72497559 252.98071289 316.69421387 C 252.86636353 305.63336182 252.86383057 294.55468750 252.66236877 283.65628052 C 252.74363708 272.99307251 252.14189148 262.54660034 251.75863647 252.14750671 C 251.54240417 241.85856628 250.71015930 231.77447510 250.48092651 221.87939453 C 250.24555969 212.31817627 250.12203979 203.28366089 249.58938599 194.85877991 C 248.96540833 187.21839905 248.35986328 180.46801758 247.51538086 174.78839111 C 246.95039368 170.18856812 246.92665100 166.90669250 248.86750793 164.80181885 C 252.52674866 162.79902649 257.14916992 161.45283508 262.48599243 161.44421387 C 267.82870483 162.17701721 272.43670654 163.58370972 275.41424561 165.61717224 C 275.48297119 169.00634766 274.97601318 173.77140808 275.07754517 179.90925598 C 275.17309570 187.21551514 275.50582886 195.22779846 275.80392456 203.73751831 C 276.34310913 212.66154480 276.91476440 221.72789001 277.30920410 230.76179504 C 277.42407227 240.11355591 277.76718140 249.76501465 278.65490723 259.78521729 C 278.23522949 270.54421997 278.35525513 281.79971313 278.55554199 293.20489502 C 278.64547729 304.50881958 278.76095581 315.70416260 279.50192261 326.63906860 C 279.44021606 337.20141602 279.28143311 347.57901001 279.36172485 357.85482788 C 279.53884888 367.99264526 279.60186768 378.02850342 278.76489258 388.12765503 C 278.56726074 398.34213257 278.64843750 408.75729370 278.58914185 419.33673096 C 278.44079590 429.93383789 279.16622925 440.57678223 278.33782959 492.78912354" stroke-width="0.99382788" fill="rgb(147, 210, 26)" opacity="1.0" stroke="rgb(181, 203, 108)" stroke-opacity="0.86851895" stroke-linecap="round" stroke-linejoin="round"/>
    <path d="M 252.35079956 228.55860901 C 252.24583435 226.85395813 252.13845825 225.12313843 251.96884155 223.46618652 C 252.07527161 222.01800537 252.30076599 220.67607117 252.08610535 219.37950134 C 251.84077454 218.11680603 251.58595276 216.86009216 251.54267883 215.61593628 C 251.48794556 214.43713379 251.33830261 213.26753235 250.89703369 212.12886047 C 250.37629700 211.02275085 249.95265198 209.96980286 249.71217346 209.15930176 C 249.70909119 208.31486511 249.98524475 207.52970886 250.39093018 206.81784058 C 250.87817383 206.10476685 251.57130432 205.49913025 252.52827454 205.06637573 C 253.71557617 204.71609497 255.10716248 204.34390259 256.64013672 203.96859741 C 258.33087158 203.58786011 260.18209839 203.20228577 262.15542603 202.94380188 C 264.17074585 202.82014465 266.17178345 202.86778259 268.12768555 202.97090149 C 269.94689941 203.11238098 271.59780884 203.34892273 272.95858765 203.72363281 C 273.88888550 204.38366699 274.45614624 205.28172302 274.90722656 206.22137451 C 275.61288452 207.01838684 276.26675415 207.68934631 276.59506226 208.32115173 C 276.43765259 209.00093079 275.83358765 209.75743103 275.32492065 210.68255615 C 275.29208374 211.78094482 275.56781006 212.98379517 275.90429688 214.11459351 C 275.68151855 215.13035583 275.20083618 216.13372803 274.84469604 217.13502502 C 274.80154419 218.29122925 274.83535767 219.61082458 274.99246216 220.93353271 C 275.16098022 222.21372986 275.23406982 223.46260071 275.14746094 224.64649963 C 275.14868164 225.78834534 275.37188721 226.89454651 275.52822876 227.86354065 C 275.81881714 228.52613831 276.04638672 228.98988342 252.35079956 228.55860901" stroke-width="1.72410786" fill="rgb(151, 213, 24)" opacity="1.0" stroke="rgb(133, 183, 31)" stroke-opacity="0.6305511" stroke-linecap="round" stroke-linejoin="round"/>
    <path d="M 253.24214172 255.06668091 C 253.53785706 255.05142212 253.85482788 255.05432129 254.16017151 255.06790161 C 254.42187500 254.99089050 254.61923218 254.87950134 254.75712585 254.80702209 C 254.82788086 254.71411133 254.87997437 254.67864990 254.93901062 254.70892334 C 254.97578430 254.72218323 255.01087952 254.69741821 255.01429749 254.68815613 C 255.04791260 254.69389343 255.06422424 254.66909790 255.03892517 254.64469910 C 255.02626038 254.61734009 254.97648621 254.60421753 254.90109253 254.55662537 C 254.84689331 254.56002808 254.83473206 254.61195374 254.84881592 254.65959167 C 254.92539978 254.73025513 254.98356628 254.81855774 255.02340698 254.86181641 C 255.05647278 254.90272522 255.06025696 254.89949036 255.08724976 254.91477966 C 255.14845276 254.93719482 255.17459106 255.02285767 253.24214172 255.06668091" stroke-width="0.59049827" fill="rgb(166, 192, 49)" opacity="1.0" stroke="rgb(68, 89, 13)" stroke-opacity="0.3542616" stroke-linecap="round" stroke-linejoin="round"/>
    <path d="M 267.97225952 322.60223389 C 268.56158447 322.62582397 269.13619995 322.62335205 269.67227173 322.60345459 C 270.21939087 322.58377075 270.69543457 322.64672852 271.12435913 322.78601074 C 271.51119995 322.95468140 271.79830933 323.10134888 272.01715088 323.17184448 C 272.20608521 323.09515381 272.29461670 322.94296265 272.26577759 322.78100586 C 272.12747192 322.65502930 271.86456299 322.57312012 271.49548340 322.55682373 C 271.04312134 322.57827759 270.51165771 322.62371826 269.93438721 322.67642212 C 269.27081299 322.76376343 268.55368042 322.86944580 267.78854370 322.93713379 C 266.95523071 323.00567627 266.09738159 323.09921265 265.20837402 323.27487183 C 264.27154541 323.50006104 263.32431030 323.71871948 262.30145264 323.81051636 C 261.27258301 323.81680298 260.22360229 323.72390747 267.97225952 322.60223389" stroke-width="0.51533616" fill="rgb(131, 186, 13)" opacity="1.0" stroke="rgb(120, 191, 0)" stroke-opacity="0.84798574" stroke-linecap="round" stroke-linejoin="round"/>
    <path d="M 277.78881836 384.33346558 C 277.90585327 383.99078369 278.02520752 383.68490601 278.18670654 383.31298828 C 278.43734741 382.95916748 278.62643433 382.67141724 278.71295166 382.42224121 C 278.71249390 382.17855835 278.62854004 381.94021606 278.47851562 381.71499634 C 278.34344482 381.52493286 278.18786621 381.37753296 278.00894165 381.22784424 C 277.85992432 381.05227661 277.70190430 380.81967163 277.61230469 380.54611206 C 277.57330322 380.34057617 277.57180786 380.22402954 277.60186768 380.28195190 C 277.65228271 380.47741699 277.83541870 380.67056274 278.14099121 380.83825684 C 278.46163940 380.96112061 278.72781372 380.93673706 279.03997803 380.84991455 C 279.28515625 380.69729614 279.47494507 380.61993408 279.72561646 380.51336670 C 280.02975464 380.53500366 280.42428589 380.50491333 277.78881836 384.33346558" stroke-width="0.90581268" fill="rgb(93, 135, 11)" opacity="1.0" stroke="rgb(95, 145, 30)" stroke-opacity="0.26838836" stroke-linecap="round" stroke-linejoin="round"/>
    <path d="M 271.95550537 448.35528564 C 271.91333008 448.37628174 271.85479736 448.41058350 271.80416870 448.43695068 C 271.74844360 448.44445801 271.69207764 448.46365356 271.67504883 448.46585083 C 271.67428589 448.44866943 271.70565796 448.45001221 271.72448730 448.46041870 C 271.77130127 448.45248413 271.80587769 448.45037842 271.82565308 448.49179077 C 271.82989502 448.48605347 271.84530640 448.48971558 271.83087158 448.47592163 C 271.81967163 448.47442627 271.81997681 448.44815063 271.81997681 448.39651489 C 271.85198975 448.36334229 271.88949585 448.31765747 271.93704224 448.25054932 C 272.02307129 448.18392944 272.10513306 448.16030884 272.19256592 448.13607788 C 272.29855347 448.12689209 272.39605713 448.15502930 272.49258423 448.20922852 C 272.61682129 448.28460693 272.72763062 448.35824585 271.95550537 448.35528564" stroke-width="2.00000000" fill="rgb(112, 246, 0)" opacity="1.0" stroke="rgb(149, 221, 21)" stroke-opacity="0.840101" stroke-linecap="round" stroke-linejoin="round"/>
    <path d="M 168.95930481 510.59396362 C 166.09817505 512.62866211 163.31396484 514.66418457 160.58027649 516.62695312 C 157.81570435 518.44018555 155.13661194 520.00140381 152.58938599 521.25408936 C 150.13800049 522.19537354 147.81135559 522.72186279 145.67286682 522.75122070 C 143.73231506 522.22937012 142.00860596 521.07434082 140.50119019 519.21453857 C 139.28051758 516.64477539 138.41723633 513.30096436 138.04154968 509.11642456 C 138.92776489 503.89501953 138.94990540 497.40823364 138.70520020 489.72418213 C 138.85406494 481.03161621 138.53814697 471.40161133 138.47566223 460.87335205 C 138.45542908 449.72857666 138.28770447 438.13937378 138.09992981 426.21185303 C 138.07101440 414.11889648 138.32489014 401.95541382 137.63174438 389.96774292 C 138.36297607 378.04858398 138.45173645 365.99969482 138.53044128 353.76583862 C 138.65249634 341.33670044 139.08764648 328.69097900 139.04431152 315.83462524 C 138.89096069 302.79873657 139.18811035 289.51913452 139.00007629 276.02206421 C 138.52197266 262.43304443 138.96777344 248.80545044 138.89164734 235.10569763 C 139.44073486 221.64007568 140.41093445 208.46604919 140.65373230 195.59613037 C 140.89683533 183.22299194 141.53425598 171.47445679 141.94189453 160.49769592 C 143.16386414 150.60997009 142.93377686 141.60618591 142.79344177 133.42124939 C 143.09008789 126.23278046 142.53002930 120.30822754 142.33821106 115.74604034 C 144.51974487 112.74930573 148.62144470 111.06033325 153.74345398 109.98921967 C 159.06431580 109.49968719 164.22196960 110.14738464 168.91761780 111.88614655 C 173.09124756 112.96304321 175.79119873 114.46646118 176.45568848 117.31600952 C 175.07672119 121.78910828 174.35667419 128.08494568 173.97563171 136.02050781 C 172.82318115 145.37805176 172.18664551 155.88189697 171.62789917 167.40263367 C 170.18440247 179.87071228 169.58670044 193.11277771 169.11459351 206.74803162 C 169.54682922 220.52847290 169.36853027 234.38879395 169.07258606 248.23759460 C 169.10470581 261.91592407 168.47023010 275.24978638 168.01788330 288.43957520 C 168.16487122 301.55242920 168.27343750 314.31161499 168.14880371 326.57028198 C 168.87554932 338.16036987 169.02607727 349.26016235 168.65643311 360.07873535 C 168.49879456 370.70349121 168.40055847 381.19732666 168.39886475 391.63928223 C 167.92965698 402.07662964 168.00805664 412.67831421 168.05001831 423.35260010 C 168.13861084 433.98770142 167.95872498 444.54913330 168.95930481 510.59396362" stroke-width="0.63157845" fill="rgb(136, 217, 125)" opacity="1.0" stroke="rgb(201, 225, 179)" stroke-opacity="0.9305365" stroke-linecap="round" stroke-linejoin="round"/>
    <path d="M 147.51045227 151.91542053 C 147.46945190 151.07914734 147.42140198 150.27111816 147.35957336 149.47334290 C 147.27668762 148.61019897 147.25158691 147.57212830 147.23422241 146.49856567 C 147.22602844 145.41865540 147.31753540 144.28665161 147.52877808 143.17243958 C 148.01730347 142.16020203 148.80169678 141.37145996 149.85469055 140.78793335 C 151.13690186 140.49998474 152.56390381 140.50457764 154.03779602 140.77639771 C 155.44644165 141.23661804 156.71075439 141.86524963 157.84194946 142.59100342 C 158.79634094 143.41061401 159.62927246 144.27589417 160.33950806 145.15124512 C 160.91337585 146.07807922 161.44610596 146.97731018 161.94291687 147.88307190 C 162.39483643 148.81423950 162.80114746 149.76025391 163.20466614 150.67021179 C 163.60519409 151.53504944 164.00787354 152.32339478 147.51045227 151.91542053" stroke-width="2.00000000" fill="rgb(143, 231, 134)" opacity="1.0" stroke="rgb(145, 231, 137)" stroke-opacity="0.8603829" stroke-linecap="round" stroke-linejoin="round"/>
    <path d="M 140.17068481 218.40936279 C 139.88206482 217.96800232 139.69689941 217.50901794 139.58573914 217.05763245 C 139.49975586 216.70379639 139.54168701 216.49603271 139.69641113 216.37924194 C 139.93553162 216.35195923 140.21397400 216.21871948 140.54376221 215.96017456 C 140.97187805 215.68336487 141.39814758 215.42115784 141.76461792 215.17814636 C 142.14836121 215.02536011 142.53178406 215.00785828 142.92759705 215.07524109 C 143.18292236 215.18890381 143.42327881 215.23352051 143.62869263 215.16145325 C 143.78805542 215.03187561 143.88911438 214.97023010 143.88290405 215.00616455 C 143.76728821 215.13914490 143.49574280 215.29647827 143.14593506 215.43049622 C 142.71292114 215.55616760 142.20872498 215.68133545 141.65701294 215.86024475 C 141.08966064 216.16012573 140.56178284 216.52893066 140.17068481 218.40936279" stroke-width="1.02622747" fill="rgb(70, 126, 29)" opacity="1.0" stroke="rgb(5, 79, 0)" stroke-opacity="0.21342118" stroke-linecap="round" stroke-linejoin="round"/>
    <path d="M 164.84347534 268.18402100 C 164.50839233 270.37713623 164.20890808 272.61901855 164.01324463 274.82907104 C 163.94345093 277.08081055 163.95185852 279.38864136 163.97924805 281.73693848 C 163.99530029 284.12976074 164.00549316 286.56671143 163.98867798 289.03405762 C 163.95025635 291.58468628 163.96620178 294.16546631 163.91835022 296.79391479 C 163.93977356 299.46527100 163.95446777 302.16510010 163.94433594 304.87164307 C 163.93603516 307.59521484 163.94190979 310.32336426 163.95707703 312.95187378 C 163.98147583 315.49987793 164.02793884 317.86880493 164.00794983 319.92877197 C 163.69444275 321.61917114 162.90708923 322.85440063 161.59092712 323.57406616 C 159.76431274 323.84518433 157.61952209 323.92248535 155.28059387 323.98065186 C 152.89407349 324.02911377 150.56802368 324.08044434 148.44058228 324.10229492 C 146.63140869 324.00454712 145.25927734 323.51928711 144.33370972 322.55578613 C 143.95214844 321.08200073 143.92666626 319.19473267 143.99801636 317.01626587 C 144.01744080 314.59304810 143.99259949 312.01675415 143.98782349 309.35855103 C 144.03945923 306.65087891 144.06880188 303.94720459 144.08258057 301.30731201 C 144.05650330 298.72018433 144.03973389 296.19772339 144.03024292 293.76867676 C 144.00730896 291.39230347 144.00224304 289.09185791 144.00579834 286.92037964 C 144.03425598 284.81170654 144.02696228 282.81845093 144.01600647 280.91360474 C 143.99589539 279.06292725 143.98692322 277.27517700 144.00506592 275.54849243 C 143.99142456 273.84954834 143.98390198 272.14193726 143.98654175 270.43966675 C 144.03718567 268.71301270 144.07356262 266.96347046 164.84347534 268.18402100" stroke-width="1.99948180" fill="rgb(145, 231, 132)" opacity="1.0" stroke="rgb(146, 231, 134)" stroke-opacity="0.90619135" stroke-linecap="round" stroke-linejoin="round"/>
    <path d="M 163.56336975 330.42440796 C 160.29727173 330.29498291 157.08769226 330.25991821 153.91021729 330.45156860 C 150.86978149 330.71249390 148.11122131 331.06430054 145.62603760 331.34826660 C 143.41738892 331.75543213 141.68287659 332.38739014 140.40115356 333.14501953 C 139.37846375 333.61654663 138.90104675 333.62686157 138.94114685 333.06994629 C 139.28421021 332.15609741 140.19364929 331.09725952 141.37997437 330.09875488 C 142.89091492 329.35827637 144.62120056 328.69152832 146.68484497 328.19091797 C 148.94241333 327.83862305 151.41912842 327.54202271 154.11326599 327.34460449 C 156.80622864 327.27172852 159.29776001 327.33767700 161.51799011 327.61734009 C 163.47274780 328.11416626 165.08251953 328.94674683 166.31443787 330.28106689 C 167.35733032 332.02081299 168.39901733 333.94354248 163.56336975 330.42440796" stroke-width="1.47078621" fill="rgb(146, 235, 142)" opacity="1.0" stroke="rgb(103, 192, 98)" stroke-opacity="0.8111148" stroke-linecap="round" stroke-linejoin="round"/>
    <path d="M 142.70169067 498.73687744 C 142.72418213 491.88284302 142.78285217 485.03469849 142.78935242 478.33459473 C 142.69949341 471.76675415 142.67346191 465.37359619 142.68841553 459.17599487 C 142.70417786 453.18475342 142.69458008 447.40222168 142.63496399 441.81994629 C 142.63690186 436.43841553 142.66851807 431.22937012 142.66770935 426.21954346 C 142.67085266 421.38970947 142.63005066 416.69573975 142.61938477 412.19027710 C 142.55700684 407.86434937 142.41726685 403.75714111 142.22755432 399.98297119 C 142.07179260 396.57113647 142.29656982 393.71093750 143.07324219 391.50192261 C 144.60189819 390.00723267 146.80270386 389.17831421 149.48634338 388.81881714 C 152.45036316 388.62893677 155.49607849 388.59301758 158.36398315 388.62957764 C 160.83015442 388.84960938 162.75843811 389.53228760 163.92987061 390.97033691 C 164.35679626 393.18405151 164.42903137 396.00692749 164.36878967 399.34326172 C 164.32234192 403.01235962 164.34725952 406.92639160 164.36065674 411.01257324 C 164.29650879 415.15536499 164.25982666 419.33306885 164.29028320 423.52902222 C 164.29968262 427.68234253 164.35275269 431.81130981 164.36116028 435.90618896 C 164.37083435 439.94912720 164.34591675 443.95663452 164.39086914 447.91427612 C 164.34281921 451.80935669 164.34965515 455.69400024 164.35742188 459.57641602 C 164.36848450 463.40368652 164.36401367 467.24966431 164.34597778 471.07400513 C 164.37902832 474.87808228 164.41934204 478.69982910 164.51777649 482.51123047 C 164.66014099 486.31265259 164.76495361 490.08306885 164.99310303 493.79968262 C 165.42671204 497.38369751 165.84555054 500.85931396 142.70169067 498.73687744" stroke-width="1.63429296" fill="rgb(145, 230, 133)" opacity="1.0" stroke="rgb(149, 231, 138)" stroke-opacity="0.9203176" stroke-linecap="round" stroke-linejoin="round"/>
    <path d="M 82.57674408 437.87664795 C 82.87525177 451.11956787 83.03273010 464.02804565 83.19071960 476.33438110 C 83.31997681 487.71801758 83.39569092 498.03506470 83.46186829 507.15762329 C 83.53116608 514.82891846 82.31270599 521.06732178 79.73930359 525.96112061 C 76.18267822 529.48400879 71.95421600 531.66149902 67.30876923 532.53308105 C 62.54537964 532.16412354 58.11965942 530.52221680 54.33400345 527.51458740 C 51.40526199 523.15264893 49.51348495 517.33581543 48.83524704 509.95855713 C 48.94848251 500.97143555 48.88969040 490.56335449 48.84455109 479.01007080 C 48.91899872 466.56811523 48.76622009 453.38110352 48.71566391 439.62725830 C 48.95676041 425.53967285 48.15481949 411.30630493 48.15490723 396.83670044 C 48.46300888 382.06182861 48.42280197 367.29943848 48.22407150 352.71148682 C 49.61991882 338.44253540 49.08995056 324.17037964 48.82969666 310.21011353 C 47.89575577 296.97302246 48.88250351 284.20162964 49.26066589 271.30560303 C 48.82192230 258.18664551 48.84529495 245.02056885 48.51094055 232.07481384 C 46.89920807 219.52403259 47.36989975 206.90779114 47.46100998 194.16827393 C 46.86832428 181.38301086 46.48016357 168.52871704 47.37596130 155.54228210 C 46.50750351 142.22483826 45.82885361 129.06211853 45.36167526 116.60287476 C 46.33361435 105.56670380 44.80152512 95.48706055 43.52404404 86.30395508 C 42.31412506 78.29465485 40.98544693 72.03298187 41.53229904 67.37916565 C 45.10654831 64.29967499 50.61458969 62.58656311 57.19346237 61.95151520 C 63.77098083 61.92461014 69.83963776 63.80188751 74.76274872 67.10251617 C 77.73761749 71.99094391 78.40354156 78.66558838 78.50447083 86.93173981 C 78.82759857 96.26016235 78.97196198 105.84104156 81.98078156 115.35092163 C 81.36392975 126.18651581 81.66361237 137.96780396 81.69599915 149.90998840 C 82.12335205 161.53604126 82.99765015 172.79588318 82.27913666 184.00213623 C 82.38588715 195.60322571 82.34690094 207.67044067 83.64155579 220.19352722 C 82.37001801 233.03364563 82.51663208 246.87091064 82.92182922 261.35113525 C 82.98223877 276.18222046 83.83050537 290.75787354 83.84895325 304.98297119 C 83.49034882 318.92883301 83.39222717 332.30480957 83.35540009 344.67376709 C 85.06779480 355.76257324 84.04313660 366.77258301 84.05619812 377.96627808 C 84.50244904 389.25228882 83.51531219 400.62838745 82.57674408 437.87664795" stroke-width="1.07447064" fill="rgb(151, 212, 27)" opacity="1.0" stroke="rgb(182, 204, 112)" stroke-opacity="0.82534444" stroke-linecap="round" stroke-linejoin="round"/>
    <path d="M 79.23838806 108.35363770 C 79.34517670 109.32987976 79.40021515 110.10552216 79.35335541 110.55496979 C 79.19975281 110.68546295 78.92502594 110.47444153 78.49398041 110.02429962 C 77.84521484 109.56954956 76.99409485 109.28247070 76.02400208 108.97595215 C 74.98471069 108.64345551 73.93448639 108.36422729 72.89733124 108.09828186 C 71.86634827 107.84579468 70.83634949 107.71858978 69.79904938 107.62862396 C 68.80792236 107.60352325 67.82422638 107.57860565 66.91378021 107.53540039 C 66.03027344 107.49787140 65.20553589 107.43625641 64.48386383 107.45169067 C 63.79462051 107.56540680 63.14581299 107.66574097 62.54006958 107.78939056 C 61.95408630 107.79801941 61.41547394 107.79994965 60.83509827 107.72737122 C 60.27689743 107.60577393 59.77164841 107.44288635 79.23838806 108.35363770" stroke-width="0.64476383" fill="rgb(116, 174, 7)" opacity="1.0" stroke="rgb(94, 137, 11)" stroke-opacity="0.38788027" stroke-linecap="round" stroke-linejoin="round"/>
    <path d="M 80.35920715 161.48779297 C 80.46177673 162.98202515 80.58320618 164.30233765 80.52280426 165.32551575 C 80.30868530 165.80125427 79.90493774 165.66186523 79.13217163 165.15692139 C 77.89209747 164.61404419 76.37249756 164.12394714 74.65676880 163.69888306 C 72.76206207 163.30946350 70.72622681 163.05282593 68.69166565 162.93649292 C 66.65609741 162.76719666 64.64732361 162.66297913 62.78192520 162.72285461 C 61.09379578 162.90827942 59.57907867 163.13787842 58.30011368 163.44641113 C 57.30935287 163.67620850 56.68598175 163.68408203 56.34965134 163.29522705 C 56.09120560 162.52619934 56.02879715 161.70545959 56.44991684 161.03996277 C 57.53784180 160.67199707 59.21477509 160.47596741 61.27267456 160.26856995 C 63.49966049 159.72648621 65.77932739 158.96699524 80.35920715 161.48779297" stroke-width="1.71389329" fill="rgb(160, 219, 39)" opacity="1.0" stroke="rgb(85, 136, 0)" stroke-opacity="0.3388483" stroke-linecap="round" stroke-linejoin="round"/>
    <path d="M 75.95613098 237.51460266 C 75.96376801 237.51412964 75.97647095 237.47586060 75.97618866 237.45004272 C 75.98777008 237.44117737 75.99089050 237.43246460 75.99369049 237.41754150 C 75.99468231 237.41256714 76.00715637 237.40530396 76.00164795 237.40603638 C 76.01242828 237.39682007 76.02090454 237.39971924 76.02494812 237.40043640 C 76.02946472 237.39025879 76.04575348 237.39968872 76.04399109 237.39547729 C 76.05696869 237.39410400 76.06568909 237.40585327 76.07225800 237.39588928 C 76.08259583 237.40568542 76.09549713 237.41625977 76.09819794 237.40643311 C 76.11318207 237.42131042 76.11765289 237.44474792 76.12252045 237.45617676 C 76.13127899 237.46696472 76.13333893 237.51869202 76.13179016 237.53822327 C 76.11735535 237.58457947 76.12368011 237.62944031 75.95613098 237.51460266" stroke-width="2.00000000" fill="rgb(57, 255, 137)" opacity="1.0" stroke="rgb(154, 219, 29)" stroke-opacity="1.0" stroke-linecap="round" stroke-linejoin="round"/>
    <path d="M 84.70975494 292.85519409 C 84.87435913 293.99661255 85.02752686 295.14572144 84.90245819 296.21087646 C 84.66141510 297.19027710 84.34918976 297.83172607 84.00221252 297.75744629 C 83.61714172 296.94445801 83.09009552 295.79312134 82.20719910 294.59484863 C 80.83290863 293.52334595 79.14610291 292.62136841 77.36517334 292.10476685 C 75.54513550 291.73858643 73.66582489 291.39331055 71.70436859 291.07611084 C 69.71125793 290.84686279 67.76782990 290.71539307 65.90158844 290.72210693 C 64.19607544 290.80020142 62.64312744 290.97955322 61.33082962 291.08895874 C 60.26307297 291.19009399 59.52681732 291.15698242 59.22850037 290.91583252 C 59.43379974 290.58447266 60.16606903 290.31912231 61.36039734 289.95788574 C 62.85638046 289.19515991 64.48598480 287.88342285 84.70975494 292.85519409" stroke-width="1.25326204" fill="rgb(127, 181, 12)" opacity="1.0" stroke="rgb(150, 203, 35)" stroke-opacity="0.62092745" stroke-linecap="round" stroke-linejoin="round"/>
    <path d="M 56.66395569 345.40054321 C 57.71220016 345.43527222 58.75773621 345.39819336 59.82970047 345.22705078 C 60.87813950 345.03958130 61.92627335 344.84799194 63.01531601 344.67639160 C 64.08641815 344.57931519 65.14116669 344.56530762 66.21749878 344.54315186 C 67.26853943 344.52862549 68.28504944 344.50982666 69.25746918 344.44003296 C 70.19969940 344.39343262 71.11936188 344.33782959 72.09719086 344.36004639 C 73.10270691 344.51190186 74.09990692 344.64389038 75.05767822 344.91784668 C 76.01325226 345.23822021 76.93022919 345.52706909 77.80709076 345.80505371 C 78.59568024 346.12454224 79.26943970 346.42871094 79.80313110 346.66101074 C 80.13073730 346.81060791 80.22172546 346.73123169 80.09332275 346.34799194 C 79.80226898 345.53329468 79.51119995 344.35626221 56.66395569 345.40054321" stroke-width="0.53609556" fill="rgb(120, 181, 7)" opacity="1.0" stroke="rgb(119, 179, 10)" stroke-opacity="0.8144716" stroke-linecap="round" stroke-linejoin="round"/>
    <path d="M 48.16447830 406.57464600 C 48.23460007 405.17630005 48.31319046 403.93704224 48.59016037 403.16241455 C 49.28947449 402.82458496 50.34929276 402.65588379 51.68735504 402.29400635 C 53.17810440 401.49072266 54.94761658 400.74499512 57.05548477 400.12377930 C 59.48381424 399.66998291 62.20430756 399.37796021 65.17683411 399.33895874 C 68.36360168 399.34594727 71.62260437 399.55273438 74.85907745 399.87982178 C 77.88048553 400.44015503 80.38137054 401.19131470 82.12090302 402.30172729 C 82.88230133 403.87094116 83.11634827 405.05920410 82.65826416 405.34356689 C 80.96183777 404.56002808 78.40068054 403.51678467 75.15171051 402.71417236 C 71.58106232 402.10784912 67.81233215 401.97509766 63.87881470 402.20346069 C 59.79040527 402.40820312 55.59951782 402.43438721 48.16447830 406.57464600" stroke-width="1.78948236" fill="rgb(163, 219, 44)" opacity="1.0" stroke="rgb(99, 157, 0)" stroke-opacity="0.45630983" stroke-linecap="round" stroke-linejoin="round"/>
    <path d="M 74.08935547 62.71070099 C 74.20150757 63.92697144 74.64669037 64.89446259 75.69171906 65.44568634 C 76.79101562 66.03974915 77.73666382 67.01827240 78.41479492 68.31273651 C 78.52209473 69.80678558 78.46772766 71.16092682 78.30981445 72.46451569 C 78.16374207 73.47095490 77.87680054 74.11380768 77.60196686 74.50379944 C 77.47208405 74.40599823 77.31490326 73.76351929 77.25632477 72.66316223 C 76.94231415 71.33134460 76.50091553 69.82920837 76.10649109 68.30973816 C 75.24360657 67.26373291 74.06961823 66.58658600 73.07447815 65.52823639 C 72.57033539 63.76048279 71.95373535 61.57450104 71.02439880 59.08340073 C 70.22869110 56.46588516 69.86962128 53.66565323 69.68942261 50.76903152 C 69.61694336 48.05651474 69.94824219 45.52231598 70.68798065 43.14274597 C 71.22681427 40.87588501 72.38452911 38.97449493 73.95518494 37.19216537 C 75.83216858 35.59919739 77.84574890 34.22343826 80.08408356 33.09017944 C 82.43706512 32.13133240 84.59353638 31.28763962 86.96131897 30.74382782 C 89.20632935 30.19668579 91.28717041 29.60254860 93.16252899 29.29678726 C 94.75093079 28.96484184 95.97309875 28.54147339 96.74353027 28.48934937 C 97.02042389 28.82262230 96.82582855 29.43615913 96.47280121 30.22938347 C 95.86312103 31.13742828 94.92994690 32.30669403 93.90422821 33.78168869 C 92.68477631 35.39679718 91.51702881 37.32223129 90.29731750 39.60293961 C 89.12512207 42.16165543 87.76788330 44.88371658 86.01738739 47.60702515 C 84.13150024 50.43235397 82.74264526 53.64403915 74.08935547 62.71070099" stroke-width="0.84599686" fill="rgb(105, 173, 27)" opacity="1.0" stroke="rgb(84, 160, 0)" stroke-opacity="0.38472703" stroke-linecap="round" stroke-linejoin="round"/>
    <path d="M 168.93403625 100.47970581 C 169.04904175 99.26050568 168.99783325 98.09063721 169.01133728 96.77388000 C 169.05075073 95.34963989 169.25883484 93.98147583 169.71318054 92.68061066 C 170.31030273 91.44991302 170.97811890 90.13115692 171.67973328 88.75793457 C 172.81900024 87.59961700 174.04983521 86.57588196 175.43571472 85.62775421 C 176.95199585 84.73075867 178.56045532 83.92301178 180.14640808 83.19087982 C 181.84957886 82.55915833 183.64317322 82.18428040 185.26425171 81.63923645 C 186.85752869 81.00108337 188.53634644 80.79486847 190.24949646 80.50817871 C 191.62126160 79.97088623 192.89025879 79.82184601 194.08489990 80.05349731 C 194.84329224 80.26482391 195.33027649 80.20953369 195.55485535 80.45055389 C 195.31945801 80.66882324 194.86378479 81.06738281 194.25868225 81.59381104 C 193.61082458 82.45453644 192.82374573 83.50508881 191.70947266 84.47054291 C 190.73072815 85.76979828 189.79753113 87.24236298 188.70242310 88.63399506 C 187.80059814 90.32352448 186.96691895 91.94440460 185.97885132 93.45268250 C 184.88092041 94.92991638 183.85281372 96.50882721 182.96350098 98.13071442 C 182.09393311 99.60735321 181.21647644 100.98642731 180.20307922 101.97550964 C 179.31657410 103.05677032 178.56173706 104.16255188 177.53355408 105.04854584 C 176.48793030 106.00078583 175.54107666 106.80149078 174.70193481 107.66220093 C 173.91200256 108.43201447 173.20329285 109.18486023 172.19754028 109.72566223 C 171.61808777 110.75145721 171.25279236 111.98268890 171.00794983 113.32483673 C 170.82464600 114.71228027 170.75865173 116.04351044 168.93403625 100.47970581" stroke-width="0.78082013" fill="rgb(78, 149, 26)" opacity="1.0" stroke="rgb(60, 141, 0)" stroke-opacity="0.4224285" stroke-linecap="round" stroke-linejoin="round"/>
    <path d="M 284.50531006 146.22862244 C 283.31652832 148.09422302 282.24011230 150.09271240 280.91299438 151.89871216 C 279.74670410 153.73526001 278.33709717 155.35916138 276.81173706 156.79031372 C 275.41839600 157.98754883 274.06173706 159.02233887 272.86453247 160.04275513 C 271.71881104 160.74340820 271.37185669 161.68850708 271.53979492 162.81999207 C 271.58361816 163.92979431 271.21676636 164.55049133 270.66406250 164.49713135 C 270.20108032 164.03404236 270.17907715 163.13827515 270.61904907 161.93991089 C 270.95993042 160.60699463 270.95126343 159.01185608 270.88739014 157.07244873 C 270.52780151 155.08110046 270.32260132 153.13206482 270.29440308 151.12033081 C 270.34167480 148.91258240 270.40072632 146.73965454 270.58639526 144.83314514 C 271.16458130 143.11779785 271.85980225 141.59211731 272.73577881 140.25135803 C 273.72088623 139.10076904 274.89904785 138.16307068 276.06182861 137.31434631 C 277.21563721 136.47032166 278.46591187 136.03210449 279.90548706 135.45834351 C 281.16793823 134.66384888 282.58770752 134.19967651 284.15203857 133.84115601 C 285.80981445 133.43861389 287.31347656 132.98820496 288.70449829 132.62277222 C 289.97644043 132.41868591 291.20379639 132.43737793 292.22018433 132.31309509 C 293.07330322 132.07539368 293.65332031 131.92280579 294.04043579 132.09443665 C 294.07254028 132.36534119 293.93106079 132.90542603 293.56515503 133.58847046 C 292.85464478 133.94467163 292.24255371 134.61280823 291.75079346 135.45838928 C 290.80667114 136.25434875 289.99124146 137.17213440 289.37933350 138.30888367 C 288.54598999 139.08264160 287.97808838 139.99798584 284.50531006 146.22862244" stroke-width="0.80272514" fill="rgb(75, 143, 23)" opacity="1.0" stroke="rgb(61, 146, 0)" stroke-opacity="0.42868412" stroke-linecap="round" stroke-linejoin="round"/>
    <path d="M 383.71578979 78.91466522 C 382.70294189 80.67470551 381.68395996 82.22068024 380.50216675 83.73468018 C 379.27633667 85.06562042 377.89614868 86.15117645 376.78277588 87.40891266 C 375.65396118 88.67362213 374.56393433 89.81009674 373.35385132 90.57125092 C 372.46545410 91.51679230 372.08154297 92.47258759 371.95074463 93.43840027 C 371.68002319 93.95056915 371.70733643 93.55220795 371.89694214 92.43447113 C 371.34768677 91.42494965 370.97915649 90.46392822 370.83239746 89.34420013 C 370.78173828 88.17344666 370.32928467 86.87104797 369.93807983 85.49291229 C 369.90670776 83.78561401 369.70788574 81.91526031 369.89932251 80.18265533 C 369.56286621 78.54335785 369.52819824 77.10829163 369.97131348 75.69755554 C 370.35211182 74.02065277 370.86926270 72.35333252 371.56530762 70.97307587 C 372.14215088 69.59047699 373.04629517 68.56240845 374.29098511 67.82895660 C 375.59448242 67.06914520 376.81066895 66.03453827 378.30914307 65.14408875 C 380.00686646 64.44983673 381.79785156 63.92367935 383.76834106 63.34531403 C 385.35116577 62.80675507 386.96844482 62.38988495 388.47207642 62.26702881 C 389.78671265 62.27010345 390.76361084 61.88426590 391.80084229 61.44011307 C 392.83148193 61.26970673 393.68972778 61.39624023 394.31658936 61.39075089 C 394.68457031 61.38652802 394.57568359 61.66005707 394.29046631 62.27859497 C 393.65930176 63.08565140 392.89297485 64.04801178 391.82162476 64.98797607 C 391.02761841 66.28681183 390.20837402 67.66261292 389.27511597 69.02279663 C 388.69198608 70.49358368 388.06387329 71.91677094 383.71578979 78.91466522" stroke-width="0.86326194" fill="rgb(74, 143, 22)" opacity="1.0" stroke="rgb(81, 163, 41)" stroke-opacity="0.42173225" stroke-linecap="round" stroke-linejoin="round"/>
    <path d="M 494.90658569 101.74295807 C 494.22872925 102.68432617 493.40972900 103.63838959 492.37567139 104.39996338 C 491.45364380 105.32824707 490.51068115 106.27256012 489.81164551 107.39444733 C 488.99743652 108.59072876 488.22247314 109.96087646 487.37765503 111.32855225 C 486.35760498 112.77285767 485.60665894 114.39369202 484.68328857 115.94055176 C 483.52108765 117.36819458 482.68756104 118.91271973 481.85119629 120.47904205 C 480.70297241 121.80458832 479.41741943 122.97120667 478.33840942 124.29753876 C 477.29138184 125.69503784 476.07269287 126.91986847 474.59548950 127.79514313 C 473.41259766 128.86816406 472.00238037 129.44372559 470.65704346 130.14746094 C 470.03323364 131.11968994 470.27285767 132.54872131 470.39260864 133.80299377 C 469.54037476 134.12667847 469.17181396 133.73512268 469.62896729 132.74102783 C 470.11843872 131.28338623 470.12536621 129.63539124 469.63296509 127.95378113 C 469.66018677 126.28859711 469.60797119 124.60285950 469.35101318 122.79187012 C 469.48751831 121.01580811 469.43237305 119.45727539 469.49356079 117.72047424 C 469.71582031 115.88230896 470.12023926 114.09235382 470.32501221 112.50267029 C 470.83511353 111.13774109 471.70202637 110.13777924 472.69772339 109.13573456 C 473.51416016 108.04712677 474.62167358 107.16619873 475.81643677 106.39578247 C 477.11007690 106.10421753 478.33938599 105.41208649 479.55352783 104.56334686 C 481.08779907 104.22099304 482.71322632 103.67361450 484.26583862 103.21002197 C 486.06222534 102.90936279 487.68182373 102.53104401 489.25326538 102.11904907 C 490.52908325 101.52107239 491.65710449 101.13423920 494.90658569 101.74295807" stroke-width="0.81063759" fill="rgb(76, 141, 25)" opacity="1.0" stroke="rgb(125, 183, 78)" stroke-opacity="0.5866878" stroke-linecap="round" stroke-linejoin="round"/>
    <path d="M 109.78138733 206.81530762 C 109.99984741 208.11897278 110.32997131 209.45747375 110.74542999 210.81484985 C 111.00099945 212.02514648 111.13752747 213.22846985 111.43208313 214.23751831 C 111.51221466 215.17510986 111.56819916 216.02040100 111.49458313 216.80769348 C 111.36054993 217.46708679 111.34877777 217.90570068 111.49159241 218.13491821 C 111.39912415 218.15260315 110.95362854 218.00796509 110.33638763 217.64964294 C 109.59876251 217.18104553 108.50051880 216.72088623 107.23429108 216.34269714 C 106.04084778 215.59509277 104.78769684 214.85072327 103.32710266 214.12628174 C 101.98545837 213.14842224 100.63300323 211.99972534 99.26118469 210.95829773 C 98.17193604 209.58322144 97.04499817 208.21015930 96.07448578 206.75103760 C 95.23109436 205.22128296 94.41111755 203.57199097 93.75033569 201.89358521 C 93.17199707 200.34149170 92.77839661 198.72554016 92.33352661 197.11427307 C 91.88277435 195.74313354 91.48181915 194.50013733 91.29302979 193.38217163 C 91.07530212 192.40652466 90.90096283 191.62544250 90.70581818 191.05133057 C 90.70161438 190.61560059 90.89339447 190.27847290 91.20803833 190.30238342 C 91.82717896 190.37730408 92.72397614 190.59400940 93.73869324 190.88635254 C 94.91064453 191.47750854 96.25820923 192.06768799 97.68460083 192.38864136 C 98.76380920 193.10807800 99.90908813 193.84365845 101.03017426 194.62033081 C 102.17646790 195.39129639 103.17084503 196.39480591 104.11293793 197.42016602 C 104.91101837 198.41873169 105.65589142 199.43588257 106.35983276 200.48014832 C 107.11489868 201.48796082 107.81027985 202.45303345 109.78138733 206.81530762" stroke-width="0.78553492" fill="rgb(104, 171, 28)" opacity="1.0" stroke="rgb(159, 194, 103)" stroke-opacity="0.7624761" stroke-linecap="round" stroke-linejoin="round"/>
    <path d="M 141.00382996 243.74380493 C 141.00714111 240.86402893 141.02557373 237.97554016 141.12075806 235.15074158 C 141.19747925 232.48492432 141.18429565 229.84542847 141.11915588 227.19747925 C 141.00614929 224.67388916 140.91009521 222.43339539 140.83734131 220.42903137 C 141.00828552 218.76994324 141.47276306 217.34582520 142.41893005 216.22230530 C 143.85528564 215.58004761 145.56340027 215.28788757 147.44224548 215.10507202 C 149.54849243 214.98411560 151.78858948 214.96984863 154.12704468 214.96675110 C 156.52114868 214.94860840 158.82330322 214.92704773 160.88949585 215.11221313 C 162.64515686 215.35610962 163.93328857 215.71881104 164.73213196 216.40461731 C 164.83656311 217.62608337 164.69992065 219.32307434 164.54927063 221.48837280 C 164.49806213 223.94447327 164.49539185 226.63604736 164.53599548 229.55867004 C 164.51507568 232.61112976 164.51167297 235.75794983 164.55976868 238.93760681 C 164.74302673 242.05200195 164.73800659 245.04377747 164.47337341 247.86872864 C 163.97109985 250.51564026 163.52943420 253.03164673 163.17759705 255.30049133 C 162.78314209 257.22662354 162.30409241 258.69641113 161.75819397 259.66339111 C 161.00720215 259.90533447 159.97544861 259.68264771 158.71971130 259.43472290 C 157.24153137 259.33319092 155.57490540 259.26647949 153.80834961 259.26705933 C 151.96163940 259.26754761 150.09432983 259.33248901 148.28271484 259.34643555 C 146.59150696 259.52087402 145.10015869 259.84197998 143.75804138 260.17819214 C 142.59898376 260.46160889 141.70018005 260.89996338 141.15640259 261.48242188 C 140.95339966 262.10720825 140.93362427 262.68457031 141.00382996 243.74380493" stroke-width="1.67274523" fill="rgb(144, 227, 136)" opacity="1.0" stroke="rgb(109, 195, 103)" stroke-opacity="0.6209657" stroke-linecap="round" stroke-linejoin="round"/>
    <path d="M 306.28054810 318.03051758 C 305.36547852 317.68170166 304.54071045 317.31570435 303.91445923 316.81320190 C 303.36297607 316.16867065 302.58831787 315.69155884 301.88174438 315.19869995 C 301.26623535 314.50122070 300.47821045 313.73843384 299.63845825 313.00952148 C 298.92877197 311.94308472 298.15093994 310.77890015 297.27770996 309.77984619 C 296.81292725 308.37176514 296.16433716 307.16799927 295.64120483 305.68927002 C 295.32058716 304.02874756 294.92706299 302.32269287 294.54888916 300.67080688 C 294.33731079 299.05407715 294.19482422 297.60952759 294.03228760 296.30822754 C 294.07501221 295.06161499 294.22033691 293.98452759 294.32583618 293.12179565 C 294.14993286 292.39413452 294.22857666 291.88766479 294.67166138 291.63674927 C 295.07723999 291.47897339 295.38543701 291.61141968 295.88113403 291.95855713 C 296.66055298 292.23275757 297.60952759 292.54919434 298.55078125 293.02117920 C 299.33633423 293.79794312 300.37695312 294.66592407 301.49563599 295.39135742 C 302.39147949 296.20962524 303.30187988 297.15802002 304.10662842 298.22476196 C 304.73175049 299.49520874 305.44955444 300.63082886 306.20156860 301.82113647 C 306.82412720 303.04937744 307.43292236 304.35324097 307.79675293 305.49044800 C 307.83026123 306.69155884 308.01635742 307.75271606 308.44921875 308.84719849 C 308.45327759 310.05972290 308.67404175 311.24447632 308.91079712 312.48641968 C 309.15145874 313.38742065 309.12829590 314.40377808 309.04382324 315.44873047 C 309.31243896 316.31991577 309.39416504 317.28741455 309.21813965 318.31182861 C 309.26419067 319.53247070 309.44177246 320.60336304 306.28054810 318.03051758" stroke-width="0.82294738" fill="rgb(93, 157, 28)" opacity="1.0" stroke="rgb(147, 187, 101)" stroke-opacity="0.76718414" stroke-linecap="round" stroke-linejoin="round"/>
    <path d="M 363.90798950 317.57534790 C 364.51156616 318.68194580 365.09667969 319.81320190 365.55575562 321.01187134 C 365.84561157 322.26486206 365.97631836 323.54351807 365.99432373 324.90658569 C 365.97723389 326.33792114 365.93841553 327.84869385 365.94311523 329.37701416 C 365.96273804 330.95568848 365.98690796 332.61169434 365.99441528 334.32281494 C 365.98971558 336.06100464 365.96008301 337.84518433 365.97988892 339.64004517 C 365.97955322 341.44586182 365.97817993 343.29013062 365.99993896 345.05810547 C 365.96127319 346.79397583 365.81497192 348.47512817 365.52758789 350.06234741 C 365.06100464 351.55938721 364.39236450 352.90985107 363.56106567 354.13021851 C 362.58346558 355.21807861 361.47143555 356.10440063 360.26025391 356.81152344 C 358.97937012 357.36019897 357.61962891 357.69100952 356.21517944 357.85449219 C 354.80526733 357.86975098 353.41232300 357.74176025 352.05410767 357.43670654 C 350.71994019 356.97323608 349.41848755 356.32192993 348.22152710 355.48730469 C 347.12963867 354.49298096 346.14776611 353.31958008 345.32977295 352.00372314 C 344.69674683 350.59185791 344.25717163 349.06072998 344.03540039 347.43011475 C 343.96270752 345.72500610 343.98422241 343.97525024 343.98345947 342.21243286 C 343.99548340 340.42498779 344.01098633 338.60980225 344.00433350 336.81677246 C 343.99359131 335.03869629 343.99761963 333.26977539 344.00140381 331.51727295 C 343.98199463 329.77032471 344.01116943 328.04135132 343.99859619 326.35867310 C 343.99835205 324.72427368 344.00814819 323.06140137 343.96450806 321.44885254 C 343.90530396 319.90368652 343.84967041 318.34341431 363.90798950 317.57534790" stroke-width="2.00000000" fill="rgb(145, 228, 134)" opacity="1.0" stroke="rgb(162, 255, 153)" stroke-opacity="0.20530422" stroke-linecap="round" stroke-linejoin="round"/>
    <path d="M 497.95745850 271.80709839 C 498.63916016 272.77386475 499.49429321 273.47644043 500.39508057 274.05203247 C 501.11718750 274.88241577 501.84667969 275.76281738 502.68075562 276.61489868 C 503.52548218 277.43063354 504.10818481 278.54595947 504.80868530 279.58514404 C 505.44143677 280.63430786 505.93585205 281.76748657 506.53988647 283.11297607 C 506.80407715 284.53735352 507.22760010 285.94909668 507.81646729 287.36941528 C 507.90869141 288.79858398 508.04016113 290.25296021 508.31359863 291.63958740 C 508.51391602 293.03164673 508.59173584 294.20697021 508.65319824 295.21490479 C 508.62036133 296.07614136 508.48327637 296.77267456 508.21414185 297.09158325 C 507.79748535 297.08959961 507.29663086 296.93728638 506.66448975 296.54837036 C 505.81985474 296.17602539 504.88708496 295.71719360 503.89270020 295.07849121 C 502.78671265 294.62390137 501.67675781 293.99139404 500.67199707 293.16040039 C 499.48214722 292.27856445 498.37322998 291.32775879 497.19995117 290.47982788 C 496.34609985 289.47796631 495.69989014 288.28634644 494.90155029 287.13128662 C 494.10641479 286.02456665 493.56671143 284.91433716 493.36856079 283.70181274 C 492.70883179 282.56256104 492.29531860 281.43389893 491.96646118 280.42123413 C 491.66571045 279.29501343 491.42770386 278.16656494 491.32376099 277.11795044 C 490.76635742 276.44927979 490.50515747 275.70773315 490.57369995 274.75967407 C 490.57318115 273.89776611 490.33486938 273.12988281 489.93435669 272.40011597 C 489.92666626 271.53091431 490.12554932 270.69857788 490.32723999 269.97778320 C 490.67767334 269.19494629 490.71411133 268.12918091 497.95745850 271.80709839" stroke-width="0.88371325" fill="rgb(108, 176, 32)" opacity="1.0" stroke="rgb(173, 210, 124)" stroke-opacity="0.69778776" stroke-linecap="round" stroke-linejoin="round"/>
    <path d="M 371.47720337 511.79898071 C 369.26092529 511.85855103 366.99713135 511.68542480 364.74005127 511.56997681 C 362.49478149 511.54638672 360.28082275 511.55877686 358.11352539 511.49148560 C 355.94549561 511.44424438 353.77453613 511.46423340 351.63958740 511.46762085 C 349.60699463 511.47665405 347.71661377 511.63168335 345.93490601 511.78338623 C 344.32846069 511.74145508 342.89529419 511.64471436 341.65060425 511.68692017 C 340.68170166 511.70001221 339.98303223 511.38009644 339.49411011 510.70446777 C 339.07226562 509.88088989 338.81689453 509.06842041 339.07919312 508.14108276 C 339.64996338 507.17846680 339.86383057 505.88531494 339.81491089 504.19165039 C 339.86611938 502.25491333 339.83203125 500.17138672 339.82867432 497.91860962 C 340.07833862 495.66049194 340.00582886 493.49160767 339.94772339 491.34121704 C 339.85302734 489.29556274 339.84817505 487.47662354 340.05398560 485.91152954 C 340.62609863 484.64111328 341.66302490 483.67773438 343.12493896 483.05734253 C 344.85250854 482.67895508 346.85159302 482.50100708 349.11215210 482.43661499 C 351.48751831 482.37524414 353.85095215 482.38000488 356.18829346 482.41360474 C 358.52874756 482.43383789 360.84112549 482.46270752 363.02368164 482.48971558 C 364.96701050 482.62850952 366.69982910 482.93908691 368.19491577 483.41781616 C 369.42388916 484.09396362 370.42062378 485.01296997 371.09942627 486.16287231 C 371.28430176 487.51901245 371.30169678 489.07308960 371.17526245 490.82058716 C 371.23287964 492.69006348 371.15759277 494.70223999 371.13803101 496.81674194 C 371.26715088 499.02716064 370.94134521 501.25924683 371.47720337 511.79898071" stroke-width="0.62454516" fill="rgb(139, 222, 130)" opacity="1.0" stroke="rgb(134, 220, 129)" stroke-opacity="0.45457816" stroke-linecap="round" stroke-linejoin="round"/>
  </g>
</svg>
