<?xml version="1.0" ?>
<svg xmlns="http://www.w3.org/2000/svg" version="1.1" width="512" height="512" viewBox="0 0 512 512">
  <defs/>
  <g>
    <path d="M 591.88610840 421.47555542 C 572.28906250 427.96124268 552.65814209 434.47094727 533.03808594 440.87133789 C 513.37792969 447.23754883 493.71826172 453.47808838 473.99230957 459.48388672 C 454.19171143 465.25332642 434.37170410 470.63925171 414.47933960 475.62438965 C 394.50082397 480.01593018 374.43041992 483.74685669 354.36584473 486.80288696 C 334.23391724 488.96054077 314.09570312 490.19448853 293.94039917 490.46490479 C 273.87316895 489.58593750 253.90510559 487.58456421 234.04684448 484.38015747 C 214.39404297 479.88354492 194.99530029 474.11935425 175.92935181 467.00573730 C 157.23022461 458.57910156 138.94912720 448.74841309 121.20857239 437.68914795 C 104.05524445 425.26168823 87.53569794 411.59017944 71.71936035 396.70727539 C 56.66480255 380.67111206 42.48781204 363.64328003 29.16488838 345.55285645 C 16.78258133 326.61453247 5.45362902 306.94787598 -4.84467936 286.66564941 C -14.08459091 265.80471802 -22.15960503 244.59678650 -29.03918266 223.20169067 C -34.67296219 201.73056030 -38.99347687 180.36412048 -42.05077744 159.24317932 C -43.77266312 138.44563293 -44.02961349 118.19284821 -42.83615494 98.68736267 C -40.11209869 80.04125214 -35.83978653 62.37165833 -29.93166542 45.86446381 C -22.33081055 30.66771889 -13.05406094 16.79979324 -1.96502471 4.49343157 C 11.00601101 -6.13006973 25.78470802 -15.14494133 42.16483688 -22.76880264 C 59.98259735 -29.15183449 79.19874573 -34.45509338 99.60081482 -38.78063965 C 121.03520966 -42.26173782 143.42315674 -45.01465225 166.57907104 -47.09521103 C 190.36241150 -48.61432648 214.58570862 -49.69237518 239.13563538 -50.35432816 C 263.85125732 -50.54909134 288.53787231 -50.27091217 313.16339111 -49.55923080 C 337.47323608 -48.26834488 361.30819702 -46.34139633 384.50326538 -43.71688843 C 406.92514038 -40.30091095 428.46276855 -35.89398193 448.82165527 -30.39314079 C 467.89624023 -23.65597916 485.62884521 -15.51608467 501.76358032 -5.83902311 C 516.16876221 5.62630939 528.76458740 18.90805054 539.80554199 33.85131454 C 549.36181641 50.26722717 557.62457275 68.01483917 564.62664795 87.04939270 C 570.65905762 107.07900238 575.81585693 128.04740906 580.24810791 149.75991821 C 584.05718994 172.15695190 587.41040039 195.03387451 590.40527344 218.25917053 C 593.14465332 241.82208252 595.69250488 265.51889038 598.15954590 289.30325317 C 600.58941650 313.16818237 602.96820068 337.03042603 591.88610840 421.47555542" stroke-width="2.00000000" fill="rgb(9, 26, 66)" opacity="1.0" stroke="rgb(5, 20, 61)" stroke-opacity="1.0" stroke-linecap="round" stroke-linejoin="round"/>
    <path d="M 46.08425140 47.82844925 C 46.06009674 47.79696274 46.06576157 47.81023788 46.09664154 47.81478882 C 46.05850220 47.81029510 46.07503510 47.80883026 46.08297348 47.82455444 C 46.06543732 47.79404449 46.08197021 47.83770752 46.07504654 47.81898499 C 46.07408524 47.81842041 46.07899857 47.81764603 46.07340622 47.82057571 C 46.07565308 47.81491470 46.07759094 47.83056259 46.06915283 47.81146240 C 46.07726288 47.83285141 46.06770706 47.82170486 46.07978439 47.81628799 C 46.06901932 47.83115005 46.05546570 47.82385254 46.08467484 47.82453918 C 46.05732727 47.81941223 46.06448746 47.83082199 46.08456421 47.81982803 C 46.04888916 47.82834244 46.07126999 47.83151627 46.05881882 47.80841827 C 46.06945038 47.84297943 46.05113983 47.80714035 46.08425140 47.82844925" stroke-width="0.24063617" fill="rgb(0, 0, 0)" opacity="1.0" stroke="rgb(0, 0, 0)" stroke-opacity="1.0" stroke-linecap="round" stroke-linejoin="round"/>
    <path d="M 147.83186340 87.59541321 C 147.29273987 87.73747253 146.77326965 87.91741943 146.23092651 88.00633240 C 145.79101562 87.97579956 145.37716675 87.86386871 144.97787476 87.73963928 C 144.56959534 87.49849701 144.17114258 87.20785522 143.75891113 86.86354065 C 143.31202698 86.51083374 142.85717773 86.16264343 142.44186401 85.77614594 C 142.09739685 85.30911255 141.89872742 84.78502655 141.74446106 84.27468109 C 141.59040833 83.81395721 141.51197815 83.38977051 141.42880249 82.99451447 C 141.47488403 82.59508514 141.60255432 82.25835419 141.78604126 82.01904297 C 142.07366943 81.96654510 142.45559692 81.95448303 142.93205261 81.99896240 C 143.46752930 82.13567352 144.11029053 82.31221008 144.83378601 82.56873322 C 145.60710144 82.80845642 146.51548767 82.93206787 147.83186340 87.59541321" stroke-width="1.64971328" fill="rgb(59, 66, 79)" opacity="1.0" stroke="rgb(6, 0, 1)" stroke-opacity="0.50890106" stroke-linecap="round" stroke-linejoin="round"/>
    <path d="M 353.09875488 70.41313934 C 352.80853271 70.68959808 352.58261108 71.03524017 352.40191650 71.27602386 C 352.22079468 71.40405273 351.94372559 71.65454865 351.77673340 72.04714966 C 351.63064575 72.38568878 351.52807617 72.64244843 351.39428711 72.80158234 C 351.25192261 72.85614014 351.02078247 72.89318085 350.83731079 72.93656158 C 350.63803101 72.93242645 350.44177246 72.91011810 350.21002197 72.87079620 C 349.98907471 72.83581543 349.78857422 72.83090210 349.59439087 72.79680634 C 349.48999023 72.62981415 349.46127319 72.45431519 349.41326904 72.26177216 C 349.44580078 71.93228912 349.50241089 71.51722717 349.70388794 71.12834167 C 349.88275146 70.75288391 350.05627441 70.35926056 350.11221313 70.00160217 C 350.09613037 69.64649200 350.00671387 69.18417358 353.09875488 70.41313934" stroke-width="2.00000000" fill="rgb(115, 123, 131)" opacity="1.0" stroke="rgb(13, 2, 0)" stroke-opacity="0.4571639" stroke-linecap="round" stroke-linejoin="round"/>
    <path d="M 196.48529053 62.62143326 C 196.17520142 62.13606262 195.90650940 61.56641388 195.78906250 60.98311615 C 195.71771240 60.36894608 195.50523376 59.80516052 195.25976562 59.26553345 C 195.19891357 58.82811356 195.39903259 58.44709396 195.79879761 58.11115646 C 196.30986023 57.80657578 196.81698608 57.53617477 197.23098755 57.24362564 C 197.76542664 56.96925354 198.51452637 56.77257156 199.32392883 56.62021255 C 200.03216553 56.57485962 200.68107605 56.66614914 201.26359558 56.90864182 C 201.77964783 57.20568848 202.18891907 57.58297729 202.52780151 58.21194839 C 202.84799194 59.05921936 203.14553833 59.99398422 203.37687683 60.90962601 C 203.48921204 61.88638687 203.56541443 62.98628235 203.67298889 63.99256897 C 203.76820374 65.01654053 203.90348816 66.15212250 196.48529053 62.62143326" stroke-width="1.84863758" fill="rgb(8, 12, 33)" opacity="1.0" stroke="rgb(16, 6, 31)" stroke-opacity="0.16727322" stroke-linecap="round" stroke-linejoin="round"/>
    <path d="M 403.35763550 27.36959839 C 403.38528442 27.35873795 403.36727905 27.36641884 403.37359619 27.36507797 C 403.37670898 27.36424446 403.36602783 27.35597992 403.38436890 27.37066078 C 403.35400391 27.36342239 403.38726807 27.36258125 403.36117554 27.36752510 C 403.37771606 27.36040115 403.36038208 27.36173820 403.39068604 27.37608719 C 403.35461426 27.34304237 403.39099121 27.37368584 403.35253906 27.36749268 C 403.37881470 27.36255455 403.37338257 27.35746002 403.38217163 27.38274384 C 403.36187744 27.35385704 403.38467407 27.36476326 403.37277222 27.37502861 C 403.37463379 27.36112595 403.38458252 27.36734772 403.37881470 27.37038422 C 403.37612915 27.36537743 403.38201904 27.37041664 403.39025879 27.36512566 C 403.36837769 27.36774826 403.39831543 27.37466621 403.35763550 27.36959839" stroke-width="0.00000000" fill="rgb(0, 0, 0)" opacity="1.0" stroke="rgb(255, 255, 255)" stroke-opacity="1.0" stroke-linecap="round" stroke-linejoin="round"/>
    <path d="M 590.82153320 458.36352539 C 576.23181152 463.00769043 561.69525146 467.65771484 547.11743164 472.31613159 C 532.48004150 476.98941040 517.78466797 481.59405518 503.00350952 486.17559814 C 488.08673096 490.72586060 473.00015259 495.15402222 457.73333740 499.57028198 C 442.15875244 503.87088013 426.41116333 508.05880737 410.30102539 512.13903809 C 393.88558960 516.06658936 377.13500977 519.84967041 360.03454590 523.47485352 C 342.56414795 526.93072510 324.74310303 530.16479492 306.61471558 533.18267822 C 288.09487915 535.95318604 269.31466675 538.41760254 250.30734253 540.56372070 C 231.07215881 542.31958008 211.73260498 543.65551758 192.28773499 544.47869873 C 172.89617920 544.77307129 153.60455322 544.39294434 134.53083801 543.30639648 C 115.74308777 541.47601318 97.43258667 538.70343018 79.64784241 534.92291260 C 62.53231049 530.09393311 46.21876907 524.14086914 30.90140533 516.86242676 C 16.68773651 508.25830078 3.75572252 498.21591187 -7.80910349 486.68664551 C -17.90925598 473.78155518 -26.65753746 459.59729004 -34.06167221 444.48406982 C -40.24568558 428.65231323 -45.23059464 412.24935913 -49.03671646 395.65914917 C -51.68814087 379.04193115 -53.18590164 362.61749268 -53.55759811 346.61889648 C -52.77776337 331.32186890 -50.79791641 316.92303467 -47.59533691 303.53555298 C -43.09966660 291.49432373 -37.25106812 280.92132568 -29.97199440 272.00665283 C -21.13363075 264.98852539 -10.70418358 260.03558350 1.46005225 257.25103760 C 15.43574524 256.81405640 31.04204750 257.08236694 48.03456497 257.10140991 C 66.21504974 257.00817871 85.42181396 256.95254517 105.44915009 256.98495483 C 126.10073090 257.03009033 147.33392334 257.04928589 168.80718994 257.01763916 C 190.52574158 257.03558350 212.26052856 257.02816772 233.95858765 257.00833130 C 255.45686340 257.06564331 276.77520752 257.05926514 297.70132446 256.99813843 C 318.19699097 257.02615356 338.26232910 257.06170654 357.80511475 257.03039551 C 376.78091431 257.06213379 395.21258545 257.23452759 413.03244019 257.40982056 C 430.22647095 257.48764038 446.90408325 257.44998169 463.00219727 257.21447754 C 478.53790283 256.99987793 493.58517456 256.94595337 508.16973877 256.94616699 C 522.29730225 257.53686523 536.11785889 258.60406494 549.64141846 260.07083130 C 562.95281982 261.85430908 576.14135742 263.91265869 589.25488281 266.02178955 C 602.28582764 268.24499512 615.36755371 270.55206299 590.82153320 458.36352539" stroke-width="0.91736132" fill="rgb(16, 115, 204)" opacity="1.0" stroke="rgb(22, 82, 142)" stroke-opacity="0.60472524" stroke-linecap="round" stroke-linejoin="round"/>
    <path d="M 413.78521729 473.12231445 C 395.72619629 474.38513184 377.75057983 475.74768066 360.00823975 477.13586426 C 342.70928955 478.53759766 325.95175171 479.84594727 310.17031860 481.13406372 C 295.77130127 482.42047119 282.47222900 480.20239258 269.13088989 475.73315430 C 254.71669006 473.22122192 240.05351257 473.79721069 225.38000488 477.89413452 C 210.53546143 482.24539185 195.19989014 482.98922729 179.64459229 479.43762207 C 163.58407593 474.34796143 146.74586487 472.74783325 129.57305908 475.51455688 C 112.66490936 480.74655151 95.76078033 483.19149780 78.81633759 480.65438843 C 62.10334015 475.62493896 45.79216766 473.04107666 30.24723244 474.42825317 C 16.57227135 477.08374023 6.05361843 480.45974731 -0.66254967 481.31314087 C -2.28917480 478.87579346 2.36554527 476.51324463 12.37238693 474.06997681 C 25.42594910 469.98092651 40.81943512 468.57421875 57.55761337 471.24215698 C 74.43899536 476.58489990 91.59796906 479.23287964 109.10186005 476.70928955 C 126.16162109 471.09204102 143.25715637 468.52938843 160.21269226 470.61288452 C 175.94761658 474.89285278 190.56465149 478.34649658 204.87617493 477.87838745 C 218.62229919 475.67816162 231.68226624 471.79983521 244.95997620 469.73059082 C 258.57751465 469.22503662 271.87603760 471.86282349 285.27172852 476.40374756 C 299.85510254 478.31170654 315.76535034 477.13565063 332.94857788 475.26074219 C 351.26641846 473.83126831 370.47128296 472.71105957 390.30078125 471.78811646 C 410.62490845 471.03970337 431.31817627 470.42300415 452.14749146 469.77096558 C 473.04388428 469.19119263 493.99044800 468.65582275 413.78521729 473.12231445" stroke-width="1.79433203" fill="rgb(197, 243, 240)" opacity="1.0" stroke="rgb(20, 111, 141)" stroke-opacity="0.70545316" stroke-linecap="round" stroke-linejoin="round"/>
    <path d="M 397.03143311 500.70254517 C 387.17486572 500.44708252 377.25054932 500.06048584 367.36166382 499.66271973 C 357.48788452 499.37274170 347.54104614 499.11099243 337.61782837 498.90792847 C 327.66900635 498.83352661 317.63024902 498.84399414 307.57351685 499.01049805 C 297.40219116 499.34912109 287.16845703 499.99136353 276.86218262 500.98626709 C 266.43896484 502.29928589 255.85763550 503.85510254 245.15850830 505.59979248 C 234.28208923 507.47918701 223.25535583 509.42749023 211.99317932 511.38708496 C 200.55947876 513.25335693 188.97853088 515.07257080 177.19361877 516.72418213 C 165.25413513 518.18872070 153.20068359 519.44378662 141.04501343 520.35644531 C 128.88392639 521.00518799 116.65258026 521.31524658 104.47080994 521.16052246 C 92.41782379 520.67175293 80.58833313 519.83361816 69.04754639 518.65246582 C 57.89222717 517.14916992 47.31898880 515.30944824 37.35648346 513.23077393 C 28.32023430 510.95654297 20.15111351 508.55880737 13.07245541 506.12231445 C 7.32200861 503.69244385 2.97814655 501.38711548 0.32898036 499.29595947 C -0.52108663 497.51449585 0.59328610 496.10513306 3.60108685 495.07592773 C 8.33386612 493.92935181 14.28548908 492.30718994 21.16279793 490.39407349 C 29.02100563 488.85894775 37.64920044 488.35717773 46.80508041 488.59561157 C 56.33403778 489.45394897 66.09558868 491.54913330 76.06626129 494.12496948 C 86.34673309 495.61056519 96.98561096 495.71240234 107.74189758 494.43896484 C 118.42928314 492.32638550 129.16804504 489.90545654 139.94842529 488.52691650 C 150.83209229 488.07022095 161.61184692 489.12234497 172.09144592 491.78994751 C 182.48553467 494.43286133 193.03633118 495.59347534 203.58932495 495.47494507 C 213.88533020 494.75411987 223.78677368 492.76214600 233.42553711 490.24111938 C 242.91766357 488.69549561 252.27976990 488.45263672 261.39755249 489.05816650 C 270.20431519 490.42550659 278.75082397 492.49395752 287.19003296 494.36700439 C 295.60803223 495.39364624 304.13888550 495.39260864 312.80502319 495.00866699 C 321.65802002 494.91650391 330.62744141 494.98239136 339.69128418 495.24679565 C 348.82733154 495.71600342 358.08837891 496.29513550 367.35992432 496.89126587 C 376.67764282 497.62374878 386.03085327 498.47424316 395.44641113 499.32556152 C 404.81320190 500.19378662 414.23999023 501.10903931 423.64276123 502.02767944 C 433.05203247 502.92181396 442.48828125 503.85623169 397.03143311 500.70254517" stroke-width="0.67464131" fill="rgb(208, 246, 249)" opacity="1.0" stroke="rgb(170, 255, 200)" stroke-opacity="0.5016001" stroke-linecap="round" stroke-linejoin="round"/>
    <path d="M 522.20281982 511.52490234 C 514.05126953 511.91485596 505.92868042 512.25701904 497.80520630 512.59802246 C 489.67962646 512.99377441 481.49600220 513.38348389 473.29510498 513.83935547 C 465.06680298 514.34606934 456.76550293 514.85949707 448.39767456 515.44885254 C 439.97549438 516.13934326 431.50216675 516.78326416 422.94421387 517.57385254 C 414.33819580 518.33764648 405.74484253 519.17315674 397.09188843 520.01562500 C 388.42581177 520.78820801 379.82891846 521.60040283 371.35592651 522.36389160 C 362.97613525 523.04113770 354.77713013 523.56402588 346.86849976 523.97497559 C 339.28436279 524.25134277 332.15383911 524.24841309 325.45288086 524.02368164 C 319.37582397 523.48034668 313.98519897 522.60772705 309.36383057 521.39111328 C 305.66336060 519.76214600 302.94168091 517.63183594 301.36334229 515.01849365 C 300.98843384 511.88949585 301.81253052 508.18591309 303.57379150 503.74575806 C 305.70016479 498.54708862 307.98184204 492.52612305 310.33953857 485.74273682 C 312.82089233 478.31549072 315.52066040 470.38540649 318.43750000 462.10000610 C 321.16403198 453.44338989 324.03112793 444.54116821 327.14398193 435.69570923 C 330.22488403 426.93621826 333.26815796 418.28036499 336.17788696 409.88412476 C 338.79003906 401.92709351 341.27569580 394.57763672 343.56469727 387.85754395 C 345.98059082 382.23794556 348.93084717 377.78253174 352.31356812 374.43774414 C 355.76293945 372.10067749 359.27352905 371.06015015 362.80889893 371.47503662 C 366.20526123 373.58706665 370.10888672 376.36120605 375.26104736 378.50143433 C 381.79888916 379.76889038 389.48092651 380.68991089 397.94888306 381.33801270 C 407.06884766 381.84326172 416.45474243 382.09530640 425.97583008 382.18051147 C 435.32687378 382.09008789 444.33532715 381.91555786 452.76138306 381.57058716 C 460.34991455 381.02957153 466.85437012 380.87402344 472.24047852 382.09463501 C 476.52841187 385.19363403 480.22042847 389.01028442 483.84707642 392.41604614 C 487.59411621 394.72909546 491.48196411 395.28192139 495.30651855 394.26736450 C 499.07861328 392.68099976 502.66760254 392.08624268 505.90356445 393.51547241 C 508.87750244 396.81625366 511.48617554 401.73104858 513.97772217 408.03167725 C 516.39886475 415.38198853 518.68334961 423.60409546 520.86596680 432.41809082 C 523.00518799 441.70019531 525.05969238 451.25473022 527.04528809 461.06729126 C 529.03765869 470.93637085 531.04425049 480.80041504 522.20281982 511.52490234" stroke-width="1.28691638" fill="rgb(134, 68, 28)" opacity="1.0" stroke="rgb(98, 79, 75)" stroke-opacity="0.71864855" stroke-linecap="round" stroke-linejoin="round"/>
    <path d="M 438.85076904 407.29016113 C 433.56353760 407.46228027 428.26217651 407.58285522 423.03497314 407.70114136 C 417.83056641 407.77035522 412.77606201 407.72317505 407.86566162 407.55047607 C 403.16949463 407.16943359 398.73754883 406.56802368 394.69116211 405.62704468 C 391.10232544 404.33758545 387.99703979 402.60937500 385.45181274 400.38641357 C 383.60644531 397.58801270 382.53637695 394.19207764 382.29431152 390.13699341 C 382.40652466 385.36547852 382.55035400 380.02481079 382.56771851 374.08197021 C 382.60684204 367.61056519 382.60400391 360.73849487 382.61749268 353.48532104 C 382.62640381 345.87899780 382.65060425 338.00006104 382.62774658 329.96109009 C 382.65240479 321.71539307 382.60324097 313.34939575 382.58258057 304.92788696 C 382.62768555 296.47515869 382.56649780 288.04058838 382.56863403 279.59298706 C 382.49673462 271.26272583 382.47369385 263.11065674 382.38787842 255.10873413 C 382.31890869 247.30522156 382.13555908 239.75321960 382.12603760 232.57350159 C 382.17776489 225.80271912 382.06213379 219.40826416 382.02734375 213.49934387 C 381.99710083 208.32136536 381.89938354 203.89054871 382.42279053 200.25195312 C 384.57391357 197.56875610 387.61337280 195.24208069 391.28521729 193.03840637 C 395.47583008 190.97029114 400.03405762 189.11930847 404.88204956 187.64483643 C 409.96313477 186.54260254 415.22155762 185.82011414 420.59262085 185.50317383 C 425.96176147 185.59500122 431.24819946 186.15060425 436.37255859 187.09127808 C 441.17709351 188.43750000 445.60760498 190.19429016 449.66336060 192.28135681 C 453.20217896 194.70556641 456.08944702 197.40251160 458.02035522 200.53086853 C 458.42434692 204.51062012 458.13732910 209.30328369 458.29098511 214.80798340 C 458.38458252 221.01342773 458.16998291 227.81756592 458.21185303 234.98948669 C 458.20425415 242.52679443 458.07730103 250.22941589 458.36038208 257.99383545 C 458.56088257 265.88513184 458.40899658 273.74490356 458.40316772 281.63470459 C 458.51651001 289.53924561 458.41339111 297.30761719 458.40756226 304.98660278 C 458.54275513 312.55065918 458.56072998 320.03073120 458.35455322 327.42376709 C 458.38259888 334.64746094 458.47848511 341.73205566 458.40792847 348.70187378 C 458.46426392 355.58557129 458.55645752 362.44213867 458.51107788 369.18130493 C 458.64352417 375.91668701 458.75115967 382.62728882 458.79168701 389.34729004 C 458.80819702 396.06228638 458.74108887 402.74270630 438.85076904 407.29016113" stroke-width="0.52269542" fill="rgb(251, 251, 251)" opacity="1.0" stroke="rgb(233, 233, 225)" stroke-opacity="0.5022489" stroke-linecap="round" stroke-linejoin="round"/>
    <path d="M 456.30874634 198.98373413 C 452.27404785 199.00450134 448.26492310 199.02902222 444.19802856 199.02772522 C 440.07366943 199.02725220 435.91799927 198.99580383 431.73925781 199.01588440 C 427.50796509 199.06234741 423.25552368 199.12762451 419.04269409 199.06246948 C 414.83279419 199.06074524 410.60696411 199.18287659 406.49331665 199.06011963 C 402.53295898 199.07774353 398.76037598 199.13442993 395.18417358 199.08076477 C 391.98791504 198.95588684 389.24313354 198.98236084 386.96597290 199.03207397 C 385.33343506 199.15541077 384.42306519 198.76690674 384.10592651 197.63560486 C 383.97482300 195.69709778 384.01321411 193.06938171 384.09155273 190.06250000 C 384.23660278 186.80461121 384.18753052 183.45835876 384.10635376 180.18257141 C 383.99349976 177.18760681 383.89321899 174.64334106 383.95578003 172.83483887 C 384.51132202 172.01782227 385.77786255 171.82078552 387.72726440 171.87171936 C 390.21731567 171.91545105 393.23901367 172.00349426 396.74731445 172.13072205 C 400.56594849 172.26434326 404.63137817 172.34190369 408.88751221 172.35678101 C 413.28784180 172.32559204 417.70916748 172.32771301 422.11544800 172.35751343 C 426.41241455 172.25640869 430.59729004 171.97471619 434.63842773 171.79504395 C 438.46731567 171.85671997 442.03396606 171.94107056 445.23513794 172.04527283 C 448.06689453 171.99220276 450.54516602 171.87207031 452.67004395 171.78123474 C 454.30514526 171.72499084 455.42156982 172.00599670 456.03421021 172.58828735 C 456.24298096 173.39445496 456.31695557 174.28341675 456.32192993 175.26907349 C 456.31289673 176.36531067 456.01409912 177.53230286 456.30874634 198.98373413" stroke-width="1.12373042" fill="rgb(239, 73, 70)" opacity="1.0" stroke="rgb(191, 12, 0)" stroke-opacity="0.31867436" stroke-linecap="round" stroke-linejoin="round"/>
    <path d="M 437.87661743 144.99652100 C 437.81713867 147.29887390 437.61123657 149.58244324 437.31344604 151.86949158 C 436.91693115 154.06675720 436.42025757 156.25541687 435.96798706 158.40814209 C 435.43316650 160.52069092 434.74459839 162.58026123 434.00076294 164.47322083 C 433.20401001 166.27290344 432.32763672 167.94618225 431.25042725 169.49653625 C 430.06085205 170.91267395 428.79617310 172.11235046 427.42492676 173.05976868 C 425.90493774 173.79869080 424.22998047 174.24641418 422.51538086 174.51591492 C 420.75924683 174.64755249 418.89675903 174.65060425 416.99200439 174.47514343 C 415.09713745 174.14283752 413.27825928 173.61262512 411.54116821 172.88667297 C 409.87527466 171.89088440 408.41207886 170.58146667 407.07702637 169.02799988 C 405.80725098 167.32765198 404.70648193 165.44171143 403.74743652 163.49554443 C 402.88711548 161.50207520 402.20846558 159.41329956 401.64739990 157.25880432 C 401.28280640 155.00482178 401.11495972 152.82980347 400.96179199 150.76542664 C 400.79244995 148.84710693 400.75317383 147.10978699 400.66635132 145.65496826 C 400.91177368 144.55639648 401.53326416 143.74475098 402.53363037 143.15797424 C 403.78616333 142.65107727 405.27636719 142.24719238 406.78860474 141.64785767 C 408.11581421 140.56143188 409.48852539 139.34924316 411.02252197 138.32162476 C 412.82421875 137.55101013 414.74600220 137.02857971 416.80770874 136.80511475 C 419.03518677 136.86604309 421.32565308 137.18109131 423.58963013 137.80769348 C 425.75656128 138.76615906 427.89633179 140.08285522 430.11407471 141.41268921 C 432.37747192 142.43305969 434.78948975 143.21458435 437.87661743 144.99652100" stroke-width="0.58867544" fill="rgb(233, 72, 80)" opacity="1.0" stroke="rgb(255, 65, 26)" stroke-opacity="0.32806274" stroke-linecap="round" stroke-linejoin="round"/>
    <path d="M 469.52346802 59.36157990 C 467.75427246 63.84166718 465.71115112 68.24781799 463.48895264 72.74983978 C 461.32165527 77.41198730 458.94012451 82.12815094 456.43301392 86.93529510 C 453.91104126 91.95349121 451.50274658 97.04275513 448.89154053 102.20560455 C 446.32165527 107.44534302 443.77886963 112.56092072 441.25335693 117.59272003 C 438.71047974 122.29457092 436.43734741 126.77862549 434.48623657 130.99877930 C 432.76638794 134.55895996 431.22116089 137.45617676 429.24795532 139.19479370 C 426.25814819 139.46675110 422.77059937 139.38275146 419.02243042 139.25476074 C 415.16891479 139.26127625 411.60327148 139.27856445 408.81869507 138.75061035 C 407.04754639 136.60543823 405.50558472 133.14880371 403.79687500 129.00799561 C 401.78262329 124.25565338 399.27502441 119.21724701 396.50564575 113.73379517 C 393.60632324 108.03922272 390.84329224 102.06226349 388.10711670 95.97994995 C 385.34936523 90.00784302 382.62747192 84.33685303 379.93521118 78.93606567 C 377.45037842 74.02636719 375.50717163 69.51029968 373.80731201 65.70321655 C 372.38275146 62.70977020 371.50927734 60.61541367 371.43130493 59.39078522 C 372.30700684 59.09627914 374.01174927 59.34375000 376.52923584 59.28623962 C 379.79055786 59.37925339 383.76470947 59.36159897 388.34115601 59.18050766 C 393.46966553 59.12512207 398.99227905 59.22118759 404.81686401 59.30593872 C 411.02850342 59.22986984 417.51806641 59.22590637 424.21655273 59.23937988 C 431.02163696 59.36048889 437.90093994 59.25991821 444.80239868 59.19833755 C 451.79641724 59.22827148 458.85113525 59.44686890 469.52346802 59.36157990" stroke-width="1.96355224" fill="rgb(244, 179, 50)" opacity="1.0" stroke="rgb(54, 12, 0)" stroke-opacity="0.42482063" stroke-linecap="round" stroke-linejoin="round"/>
    <path d="M 406.84353638 257.30050659 C 405.73583984 257.44586182 404.57699585 257.51599121 403.50085449 257.47463989 C 402.47674561 257.48370361 401.62866211 257.43307495 400.95574951 257.41769409 C 400.46655273 257.31979370 400.24438477 257.02847290 400.16976929 256.53317261 C 400.20370483 255.87092590 400.26141357 254.99832153 400.23236084 253.92140198 C 400.21844482 252.72645569 400.18002319 251.39019775 400.22039795 250.00335693 C 400.28402710 248.54855347 400.26394653 247.07794189 400.20666504 245.63838196 C 400.13635254 244.12402344 400.14788818 242.70382690 400.15124512 241.35650635 C 400.13751221 240.14678955 400.15518188 239.05049133 400.13119507 238.09077454 C 400.15631104 237.40092468 400.30273438 237.02546692 400.74850464 236.85238647 C 401.44793701 236.77250671 402.37442017 236.79327393 403.45446777 236.79971313 C 404.54879761 236.79431152 405.71252441 236.83963013 406.88665771 236.82362366 C 408.05419922 236.75271606 409.16778564 236.71688843 410.14648438 236.75907898 C 411.06985474 236.68490601 411.70236206 236.63357544 412.17990112 236.72526550 C 412.40734863 236.98596191 412.49310303 237.52413940 412.40969849 238.17080688 C 412.34158325 239.00685120 412.30221558 240.03648376 412.26235962 241.14854431 C 412.31787109 242.35978699 412.36392212 243.64718628 412.34121704 244.97276306 C 412.31881714 246.35214233 412.29364014 247.76455688 412.29208374 249.12704468 C 412.32986450 250.49821472 412.36953735 251.79771423 412.38992310 253.09423828 C 412.34063721 254.26553345 412.29385376 255.37078857 412.27822876 256.37072754 C 412.44342041 257.26416016 412.77676392 258.09115601 406.84353638 257.30050659" stroke-width="0.99734324" fill="rgb(75, 198, 237)" opacity="1.0" stroke="rgb(149, 219, 235)" stroke-opacity="0.8210582" stroke-linecap="round" stroke-linejoin="round"/>
    <path d="M 436.65005493 257.88748169 C 435.68646240 257.94265747 434.68756104 257.91076660 433.69082642 257.76892090 C 432.70184326 257.69479370 431.69332886 257.72195435 430.71456909 257.75158691 C 429.79379272 257.69744873 428.89108276 257.64688110 427.99545288 257.62680054 C 427.15454102 257.60507202 426.43127441 257.56967163 425.78427124 257.52767944 C 425.26544189 257.50317383 424.83911133 257.35476685 424.62512207 257.05130005 C 424.54995728 256.57257080 424.54370117 255.86430359 424.57946777 255.03036499 C 424.62472534 254.09756470 424.64578247 252.98831177 424.65032959 251.74314880 C 424.67312622 250.42422485 424.65945435 249.08352661 424.67559814 247.70243835 C 424.81149292 246.28132629 424.83746338 244.87573242 424.76467896 243.49824524 C 424.66201782 242.14445496 424.56408691 240.92073059 424.53536987 239.75627136 C 424.60742188 238.76165771 424.70230103 237.96646118 424.89910889 237.35925293 C 425.23120117 237.01426697 425.74838257 236.97091675 426.40170288 237.12434387 C 427.20709229 237.31010437 428.19973755 237.37786865 429.27139282 237.39947510 C 430.43923950 237.40385437 431.64398193 237.46441650 432.68750000 237.46455383 C 433.72695923 237.45559692 434.69796753 237.40534973 435.55215454 237.28619385 C 436.27346802 237.14573669 436.77593994 237.16554260 437.14593506 237.38591003 C 437.29177856 237.81240845 437.32714844 238.48809814 437.20983887 239.28620911 C 437.21743774 240.20315552 437.23529053 241.28572083 437.26965332 242.41777039 C 437.25262451 243.60237122 437.09432983 244.81610107 436.89813232 246.07147217 C 436.88296509 247.31132507 436.96173096 248.58918762 436.65005493 257.88748169" stroke-width="0.98762298" fill="rgb(77, 198, 234)" opacity="1.0" stroke="rgb(152, 221, 234)" stroke-opacity="0.75534725" stroke-linecap="round" stroke-linejoin="round"/>
    <path d="M 400.67141724 310.24255371 C 400.59292603 309.03591919 400.59518433 307.80004883 400.67297363 306.52651978 C 400.59619141 305.34991455 400.48492432 304.12939453 400.49630737 302.89947510 C 400.55410767 301.61145020 400.60189819 300.34094238 400.73101807 299.10876465 C 400.73452759 297.93649292 400.58877563 296.72439575 400.51696777 295.57528687 C 400.58282471 294.50524902 400.71206665 293.55566406 400.69580078 292.65676880 C 400.57403564 291.92486572 400.54223633 291.32897949 400.69647217 290.89245605 C 401.01354980 290.57733154 401.51635742 290.48300171 402.20748901 290.57717896 C 402.97366333 290.66696167 403.88925171 290.63223267 404.94802856 290.52828979 C 406.07559204 290.48736572 407.10513306 290.53335571 408.16986084 290.58111572 C 409.26391602 290.59390259 410.21710205 290.57104492 411.05221558 290.58181763 C 411.73724365 290.69284058 412.24942017 290.92410278 412.49459839 291.28732300 C 412.48947144 292.01736450 412.44180298 292.95034790 412.45541382 293.92208862 C 412.47991943 295.03863525 412.41778564 296.31274414 412.37463379 297.60845947 C 412.41940308 298.94186401 412.45211792 300.22326660 412.47241211 301.51855469 C 412.49319458 302.76123047 412.55709839 303.92816162 412.61251831 304.96246338 C 412.55551147 305.87597656 412.31271362 306.66775513 412.16287231 307.31918335 C 412.09936523 307.89660645 412.16317749 308.39990234 412.29965210 308.79263306 C 412.42755127 309.10009766 412.51858521 309.40634155 412.54534912 309.67712402 C 412.52719116 309.87286377 412.56979370 310.04187012 412.66589355 310.19366455 C 412.68341064 310.38449097 412.58013916 310.58120728 400.67141724 310.24255371" stroke-width="0.93866378" fill="rgb(72, 199, 239)" opacity="1.0" stroke="rgb(101, 196, 221)" stroke-opacity="0.85487473" stroke-linecap="round" stroke-linejoin="round"/>
    <path d="M 424.67822266 310.45111084 C 424.66775513 309.43362427 424.59005737 308.35537720 424.56900024 307.20086670 C 424.68115234 306.13897705 424.80438232 305.04605103 424.76455688 303.93368530 C 424.72503662 302.72286987 424.69918823 301.49459839 424.75372314 300.32119751 C 424.78579712 299.07965088 424.68032837 297.85827637 424.55273438 296.61724854 C 424.52398682 295.41232300 424.62393188 294.34744263 424.83758545 293.37179565 C 424.90640259 292.47348022 424.84768677 291.70355225 424.79522705 291.16867065 C 424.96240234 290.81542969 425.34484863 290.73178101 425.95675659 290.84045410 C 426.71984863 290.90457153 427.57122803 290.78921509 428.52923584 290.62121582 C 429.57327271 290.57226562 430.63555908 290.72180176 431.65090942 290.87115479 C 432.65725708 290.96237183 433.61749268 290.96798706 434.50216675 290.86984253 C 435.26361084 290.70001221 435.87887573 290.55676270 436.24853516 290.62261963 C 436.52642822 290.95425415 436.62243652 291.55953979 436.56826782 292.43255615 C 436.54937744 293.45785522 436.54818726 294.55905151 436.49835205 295.80410767 C 436.49362183 297.14050293 436.52062988 298.50604248 436.48886108 299.86550903 C 436.43884277 301.21615601 436.45184326 302.50738525 436.52713013 303.72808838 C 436.57781982 304.83975220 436.55480957 305.85485840 436.46337891 306.72647095 C 436.43096924 307.55862427 436.37561035 308.20529175 436.36529541 308.75045776 C 436.38772583 309.20657349 436.37869263 309.58984375 436.41384888 309.84075928 C 436.49969482 310.05160522 436.54693604 310.28634644 436.59365845 310.46771240 C 436.61206055 310.58547974 436.59268188 310.62130737 424.67822266 310.45111084" stroke-width="1.00217950" fill="rgb(73, 197, 234)" opacity="1.0" stroke="rgb(107, 199, 222)" stroke-opacity="0.89975786" stroke-linecap="round" stroke-linejoin="round"/>
    <path d="M 407.38180542 362.60299683 C 406.05029297 362.72045898 404.75448608 362.80203247 403.57534790 362.79681396 C 402.48535156 362.75244141 401.55920410 362.75210571 400.85061646 362.75210571 C 400.32229614 362.70776367 400.09210205 362.44372559 400.04592896 361.89001465 C 400.11019897 361.16342163 400.15957642 360.23309326 400.18853760 359.18655396 C 400.19400024 357.97268677 400.19689941 356.66043091 400.21932983 355.28558350 C 400.25680542 353.86694336 400.30477905 352.44940186 400.27191162 351.03710938 C 400.16128540 349.66903687 400.17187500 348.35488892 400.19772339 347.16268921 C 400.09970093 346.05850220 399.96371460 345.12051392 399.88806152 344.27212524 C 399.90982056 343.61511230 400.13067627 343.21362305 400.62515259 343.02914429 C 401.31140137 342.99865723 402.15344238 342.92333984 403.18164062 342.78564453 C 404.31747437 342.75369263 405.48672485 342.75192261 406.68319702 342.74755859 C 407.84793091 342.69265747 408.96789551 342.68652344 410.03045654 342.73211670 C 410.96087646 342.66442871 411.74789429 342.64459229 412.34683228 342.74929810 C 412.74026489 342.99676514 412.87069702 343.43173218 412.81149292 344.03823853 C 412.79815674 344.83123779 412.82858276 345.76095581 412.87808228 346.81985474 C 412.86749268 347.90820312 412.83505249 349.12832642 412.78662109 350.35443115 C 412.79364014 351.61468506 412.81372070 352.89132690 412.72573853 354.13452148 C 412.68975830 355.41091919 412.67529297 356.67236328 412.61898804 357.88623047 C 412.55920410 359.07830811 412.54580688 360.22210693 412.61087036 361.36459351 C 412.74200439 362.40090942 412.90237427 363.47909546 407.38180542 362.60299683" stroke-width="0.99600077" fill="rgb(72, 194, 237)" opacity="1.0" stroke="rgb(139, 215, 230)" stroke-opacity="0.7593883" stroke-linecap="round" stroke-linejoin="round"/>
    <path d="M 430.83871460 363.21646118 C 429.79019165 363.38134766 428.70803833 363.43719482 427.70513916 363.40902710 C 426.77096558 363.35064697 425.99737549 363.24996948 425.36630249 363.05227661 C 424.96563721 362.67080688 424.77069092 362.09643555 424.71237183 361.35949707 C 424.70776367 360.44628906 424.77880859 359.37094116 424.83834839 358.25650024 C 424.81289673 356.97891235 424.74166870 355.65142822 424.67672729 354.29489136 C 424.68963623 352.95492554 424.77670288 351.54602051 424.80908203 350.20877075 C 424.77932739 348.87771606 424.75604248 347.57632446 424.69802856 346.42568970 C 424.71057129 345.35379028 424.74557495 344.45358276 424.84686279 343.73892212 C 425.09771729 343.23895264 425.50747681 342.97644043 426.16015625 342.85098267 C 426.97634888 342.86437988 427.95483398 342.83065796 428.97094727 342.83496094 C 430.08508301 342.79074097 431.21469116 342.78961182 432.38461304 342.80529785 C 433.45410156 342.79232788 434.45681763 342.76104736 435.32250977 342.67510986 C 436.09320068 342.65597534 436.67129517 342.79733276 437.05502319 343.08697510 C 437.17633057 343.55960083 437.15679932 344.22998047 437.14874268 345.03274536 C 437.09280396 345.96844482 437.00717163 347.01065063 437.01110840 348.14660645 C 437.05422974 349.39251709 437.02886963 350.64846802 436.93936157 351.95974731 C 436.94253540 353.24639893 436.99359131 354.53460693 436.95953369 355.79867554 C 436.96759033 357.06103516 436.88534546 358.25311279 436.81668091 359.35400391 C 436.75787354 360.43609619 436.81332397 361.43054199 436.99209595 362.36029053 C 437.24539185 363.15612793 437.54348755 363.96643066 430.83871460 363.21646118" stroke-width="1.09348774" fill="rgb(75, 193, 237)" opacity="1.0" stroke="rgb(143, 218, 233)" stroke-opacity="0.72453517" stroke-linecap="round" stroke-linejoin="round"/>
    <path d="M 296.78149414 514.39996338 C 290.21307373 515.27246094 283.65899658 516.13134766 277.06188965 517.02917480 C 270.41662598 517.88452148 263.69052124 518.74884033 256.98800659 519.66040039 C 250.16299438 520.52404785 243.29121399 521.42431641 236.30195618 522.28698730 C 229.26847839 523.12298584 222.07966614 523.93988037 214.78144836 524.72296143 C 207.36456299 525.46014404 199.79396057 526.11798096 192.08593750 526.76275635 C 184.20048523 527.37445068 176.17993164 527.86132812 167.94192505 528.33374023 C 159.50741577 528.71551514 150.90795898 528.95947266 142.12747192 529.20312500 C 133.11605835 529.31591797 124.02140045 529.32220459 114.76387024 529.22485352 C 105.37370300 529.04571533 95.92967224 528.72589111 86.49480438 528.25427246 C 77.03081512 527.68487549 67.71432495 526.98406982 58.50152206 526.10919189 C 49.59219360 525.05737305 40.94087219 523.87261963 32.77915573 522.55316162 C 25.16759300 521.01123047 18.12784386 519.30139160 11.83761501 517.37951660 C 6.44001818 515.31726074 2.08694053 513.11193848 -1.16977549 510.70370483 C -3.22699356 508.12033081 -4.05096626 505.62728882 -3.61882997 503.42800903 C -1.96768689 501.69515991 0.96094286 500.46362305 4.98832846 499.59982300 C 9.86214733 498.47860718 15.40526962 497.06869507 21.41583252 495.59790039 C 27.79619789 494.12991333 34.59215164 493.37930298 41.70890045 493.17239380 C 49.04559708 493.39181519 56.41307068 494.22021484 63.84127426 495.89886475 C 71.39412689 497.82028198 79.09470367 499.28979492 87.07833099 499.97619629 C 95.20876312 500.22640991 103.30931091 499.80166626 111.42224121 498.53088379 C 119.55727386 496.97961426 127.57412720 495.40356445 135.38197327 493.98040771 C 143.06857300 493.14764404 150.66235352 493.17684937 158.13172913 493.81375122 C 165.41542053 494.96826172 172.54931641 496.44558716 179.59106445 498.06643677 C 186.52593994 499.41436768 193.43927002 500.13372803 200.34065247 500.18792725 C 207.19725037 500.04605103 213.92709351 499.38302612 220.57554626 498.15676880 C 227.27014160 496.65731812 233.91130066 495.27856445 240.48014832 494.02099609 C 247.06343079 493.35797119 253.61235046 493.27944946 260.06091309 493.61935425 C 266.32144165 494.35644531 272.42361450 495.63250732 278.49926758 497.04339600 C 284.53494263 498.24252319 290.36938477 499.17620850 296.04177856 499.66921997 C 301.56985474 499.71328735 307.04721069 499.59231567 296.78149414 514.39996338" stroke-width="0.61874837" fill="rgb(11, 167, 176)" opacity="1.0" stroke="rgb(62, 171, 168)" stroke-opacity="0.6365188" stroke-linecap="round" stroke-linejoin="round"/>
    <path d="M 461.05496216 406.48904419 C 456.65603638 406.46014404 452.22335815 406.49819946 447.71755981 406.63809204 C 443.16067505 406.54336548 438.59320068 406.51675415 434.02587891 406.49090576 C 429.41925049 406.59112549 424.80029297 406.59463501 420.17745972 406.61398315 C 415.58901978 406.59756470 411.11080933 406.52151489 406.78173828 406.57196045 C 402.50915527 406.48474121 398.46658325 406.48144531 394.58807373 406.50445557 C 391.08905029 406.60427856 387.94677734 406.56951904 385.28265381 406.53414917 C 383.13894653 406.59960938 381.54171753 406.57827759 380.55072021 406.16217041 C 380.24429321 405.12768555 380.29086304 403.79724121 380.38134766 402.23422241 C 380.42105103 400.47866821 380.47882080 398.66448975 380.47467041 396.99490356 C 380.36972046 395.62362671 380.32757568 394.60809326 380.76409912 394.03146362 C 382.03265381 394.03723145 383.98220825 394.14703369 386.41738892 394.10684204 C 389.34185791 394.07910156 392.69674683 394.08947754 396.48818970 394.08551025 C 400.48016357 394.03463745 404.64746094 394.02020264 408.94958496 394.05316162 C 413.31536865 394.00268555 417.64245605 393.98379517 421.96823120 394.07006836 C 426.16220093 394.07855225 430.20706177 394.03750610 434.08496094 394.00598145 C 437.73092651 394.07946777 441.16885376 394.10366821 444.31961060 394.03219604 C 447.22921753 393.98449707 449.85372925 394.03744507 452.17596436 394.03646851 C 454.24359131 394.07034302 455.95187378 394.02038574 457.41290283 393.82943726 C 458.67532349 393.61740112 459.67242432 393.53152466 460.47879028 393.56451416 C 461.04702759 393.51486206 461.40740967 393.28216553 461.05496216 406.48904419" stroke-width="1.61464190" fill="rgb(251, 217, 51)" opacity="1.0" stroke="rgb(240, 208, 79)" stroke-opacity="1.0" stroke-linecap="round" stroke-linejoin="round"/>
    <path d="M 436.78973389 149.15440369 C 436.97039795 150.32376099 437.17111206 151.56089783 437.15512085 152.85514832 C 437.08709717 154.19787598 437.16671753 155.53544617 437.25619507 156.88024902 C 437.22003174 158.31150818 437.22711182 159.69093323 437.29022217 161.07312012 C 437.25561523 162.38508606 437.29794312 163.71165466 437.39810181 164.98200989 C 437.42117310 166.18196106 437.46243286 167.36054993 437.45431519 168.45811462 C 437.42810059 169.45857239 437.44158936 170.35504150 437.49575806 171.06036377 C 437.82183838 171.51313782 437.96923828 171.83270264 437.80474854 172.11630249 C 437.28079224 172.21398926 436.51898193 172.14021301 435.56674194 172.10600281 C 434.48059082 172.14231873 433.32775879 172.32865906 432.13076782 172.33105469 C 430.86270142 172.17370605 429.71697998 172.07908630 428.69290161 172.13101196 C 427.79730225 172.25785828 427.10858154 172.24607849 426.73129272 172.00987244 C 426.59124756 171.54493713 426.77685547 170.83215332 426.90747070 169.88961792 C 426.99737549 168.72731018 426.98721313 167.44786072 426.99847412 166.04356384 C 426.98654175 164.59030151 426.81823730 163.07162476 426.67321777 161.64912415 C 426.71392822 160.20404053 426.92309570 158.82788086 426.97161865 157.56512451 C 426.89959717 156.42715454 426.81726074 155.37971497 426.82205200 154.35105896 C 426.75567627 153.46282959 426.77874756 152.69050598 426.89218140 152.05189514 C 426.93606567 151.41949463 426.90740967 150.93101501 426.81829834 150.45822144 C 426.76525879 150.10118103 426.74291992 149.75198364 426.72607422 149.51020813 C 426.71350098 149.29908752 426.72134399 149.18006897 436.78973389 149.15440369" stroke-width="0.62492186" fill="rgb(253, 249, 249)" opacity="1.0" stroke="rgb(219, 212, 210)" stroke-opacity="0.77497596" stroke-linecap="round" stroke-linejoin="round"/>
    <path d="M 409.94650269 172.29664612 C 409.49227905 172.35401917 409.02017212 172.23643494 408.45816040 172.11213684 C 407.78588867 172.23294067 407.03210449 172.32154846 406.34255981 172.28579712 C 405.58303833 172.30125427 404.73507690 172.27685547 403.90582275 172.18072510 C 403.22570801 172.14279175 402.61767578 172.21386719 402.10208130 172.26602173 C 401.65277100 172.28823853 401.29364014 172.14562988 401.13760376 171.83164978 C 401.10214233 171.29556274 401.19027710 170.46371460 401.20498657 169.38238525 C 401.20120239 168.18266296 401.40118408 166.92192078 401.42602539 165.58534241 C 401.35650635 164.17172241 401.32064819 162.62582397 401.19702148 161.06488037 C 401.11795044 159.59761047 401.31369019 158.16256714 401.59216309 156.76647949 C 401.55535889 155.46624756 401.40744019 154.22758484 401.36505127 153.06420898 C 401.30450439 151.94844055 401.29711914 150.89208984 401.35983276 149.88446045 C 401.38458252 149.05317688 401.45074463 148.43528748 401.58511353 148.18330383 C 401.87051392 148.20155334 402.30194092 148.35914612 402.83074951 148.50303650 C 403.58789062 148.60639954 404.40014648 148.76907349 405.21185303 148.91406250 C 406.18249512 149.10604858 407.09439087 149.17311096 407.90496826 149.07884216 C 408.63201904 148.94934082 409.14443970 148.87652588 409.49114990 149.04414368 C 409.66625977 149.44833374 409.77542114 150.01487732 409.91470337 150.79844666 C 409.92730713 151.68914795 409.83120728 152.66976929 409.84829712 153.82882690 C 409.95941162 154.99090576 409.98034668 156.16175842 409.92245483 157.40368652 C 409.92691040 158.73243713 409.93667603 160.10990906 409.94650269 172.29664612" stroke-width="0.65011197" fill="rgb(249, 246, 246)" opacity="1.0" stroke="rgb(203, 155, 154)" stroke-opacity="0.9659642" stroke-linecap="round" stroke-linejoin="round"/>
    <path d="M 48.80824280 48.12507629 C 48.84194183 48.43374634 48.81413269 48.76013565 48.79563904 49.10564804 C 48.72631073 49.44115067 48.64976501 49.68033981 48.56809235 49.90365601 C 48.40522766 50.17090988 48.16810608 50.25740814 47.82649994 50.16203308 C 47.51276398 49.99646378 47.13730621 49.79195404 46.59524536 49.56375504 C 46.06438828 49.29861069 45.60623169 48.99967957 45.08440018 48.72890854 C 44.61241531 48.26496887 44.25903702 47.79393005 43.83934784 47.34604645 C 43.68081665 46.91451645 43.64413071 46.46741867 43.63485718 45.96627045 C 43.63568878 45.47596359 43.64582825 45.13853836 43.76541519 44.92969513 C 44.05876541 44.84902954 44.39795303 44.80615997 44.68675232 44.80141830 C 44.98997498 44.76097870 45.31132126 44.66336441 48.80824280 48.12507629" stroke-width="0.41472200" fill="rgb(255, 255, 255)" opacity="1.0" stroke="rgb(176, 163, 132)" stroke-opacity="0.56995916" stroke-linecap="round" stroke-linejoin="round"/>
    <path d="M 202.20800781 62.11733627 C 202.22201538 62.11775208 202.21194458 62.11475372 202.22828674 62.12453842 C 202.18922424 62.10896683 202.21611023 62.11721039 202.23280334 62.12331009 C 202.20063782 62.10776138 202.21722412 62.11767578 202.21110535 62.11324692 C 202.21092224 62.10357285 202.21157837 62.12622833 202.21041870 62.10339737 C 202.21260071 62.11428452 202.20890808 62.11263657 202.20805359 62.11727905 C 202.20721436 62.10669708 202.21879578 62.11725235 202.21008301 62.11273956 C 202.20657349 62.11444855 202.22370911 62.12014389 202.20910645 62.11116028 C 202.21275330 62.11949158 202.21463013 62.12721634 202.21806335 62.10161972 C 202.20285034 62.10522079 202.23266602 62.13276672 202.22828674 62.12604523 C 202.19161987 62.09991074 202.24349976 62.12327194 202.20800781 62.11733627" stroke-width="0.00000000" fill="rgb(24, 24, 24)" opacity="1.0" stroke="rgb(255, 255, 255)" stroke-opacity="1.0" stroke-linecap="round" stroke-linejoin="round"/>
    <path d="M 357.12084961 79.31211090 C 357.10183716 79.29721069 357.08728027 79.35656738 357.08523560 79.37096405 C 357.04644775 79.39634705 357.05123901 79.41895294 357.02124023 79.44731903 C 357.00158691 79.45744324 356.99740601 79.49323273 356.94985962 79.48744202 C 356.94879150 79.50939178 356.90542603 79.51712799 356.89117432 79.51597595 C 356.85415649 79.52350616 356.83923340 79.48655701 356.80212402 79.50662231 C 356.77896118 79.48339844 356.74206543 79.45682526 356.70971680 79.42948151 C 356.67575073 79.41526794 356.64813232 79.35610199 356.60470581 79.34780884 C 356.57037354 79.30048370 356.53994751 79.24559784 356.49426270 79.21216583 C 356.46444702 79.16952515 356.41632080 79.12740326 356.39840698 79.08203125 C 356.33111572 79.02616119 356.32705688 78.99423981 357.12084961 79.31211090" stroke-width="0.00000000" fill="rgb(10, 22, 68)" opacity="1.0" stroke="rgb(255, 255, 255)" stroke-opacity="1.0" stroke-linecap="round" stroke-linejoin="round"/>
    <path d="M 143.41539001 82.50032043 C 143.94216919 82.83305359 144.56822205 83.16300201 145.12277222 83.28599548 C 145.59597778 83.63768768 146.07528687 83.99828339 146.54615784 84.36515045 C 146.84835815 84.81265259 147.07191467 85.31503296 147.27763367 85.68028259 C 147.38589478 85.94078064 147.21327209 86.19508362 146.95657349 86.55704498 C 146.66984558 86.81076813 146.38160706 86.95562744 146.14520264 87.09025574 C 145.86231995 87.17594910 145.58007812 87.18652344 145.17517090 87.00485992 C 144.63058472 86.67121887 144.16162109 86.28821564 143.75926208 85.93739319 C 143.30632019 85.71739197 142.81282043 85.55435181 142.37577820 85.19125366 C 142.10176086 84.66227722 141.86172485 84.01728058 141.55192566 83.38808441 C 141.24198914 82.76387024 141.00131226 82.01422119 143.41539001 82.50032043" stroke-width="0.27833346" fill="rgb(243, 248, 248)" opacity="1.0" stroke="rgb(255, 255, 255)" stroke-opacity="0.45934522" stroke-linecap="round" stroke-linejoin="round"/>
    <path d="M 391.00097656 35.51752090 C 391.00827026 35.51902390 391.02191162 35.53583908 390.99957275 35.51868820 C 391.02310181 35.53155518 391.03161621 35.55049896 390.99850464 35.53624725 C 391.02987671 35.53924561 391.02612305 35.55056381 391.01800537 35.54615021 C 391.02410889 35.54368973 391.02600098 35.54508972 391.00888062 35.55295944 C 391.02389526 35.53165054 391.01208496 35.52691269 391.00686646 35.53592300 C 390.99780273 35.52531433 390.99353027 35.49846268 390.98693848 35.51336670 C 390.97094727 35.47800064 390.96646118 35.46390533 390.95428467 35.47855759 C 390.94387817 35.42246246 390.92303467 35.43724060 390.93307495 35.42105865 C 390.89022827 35.37742233 390.89877319 35.38470078 390.88848877 35.34965134 C 390.84783936 35.34059906 390.87411499 35.31786346 391.00097656 35.51752090" stroke-width="0.00000000" fill="rgb(0, 0, 255)" opacity="1.0" stroke="rgb(255, 255, 253)" stroke-opacity="1.0" stroke-linecap="round" stroke-linejoin="round"/>
    <path d="M 199.11466980 58.32435989 C 199.70079041 58.80715942 200.28941345 59.19195938 200.80361938 59.57021332 C 201.19682312 60.11546326 201.59632874 60.68888474 202.10729980 61.11384583 C 202.44221497 61.51910782 202.73806763 61.88621521 202.90846252 62.25053406 C 203.01145935 62.62880707 202.81459045 63.00531769 202.62590027 63.24370956 C 202.29696655 63.39417267 201.84498596 63.44149780 201.40850830 63.31597137 C 201.04421997 62.98058701 200.71479797 62.68871307 200.32402039 62.54692078 C 199.93708801 62.39310455 199.42149353 62.23704147 198.97503662 61.89395142 C 198.54566956 61.48688889 198.05259705 61.23597336 197.71932983 60.97010422 C 197.35319519 60.66915512 197.12303162 60.36601639 197.19694519 60.03148651 C 197.22579956 59.55474854 197.21490479 58.94388199 199.11466980 58.32435989" stroke-width="0.68655723" fill="rgb(242, 248, 254)" opacity="1.0" stroke="rgb(76, 82, 94)" stroke-opacity="0.85561687" stroke-linecap="round" stroke-linejoin="round"/>
    <path d="M 351.31088257 73.54032898 C 350.77087402 72.83051300 350.22015381 72.26258850 349.62420654 71.78031921 C 349.07843018 71.29893494 348.64004517 70.92380524 348.32357788 70.50540924 C 348.12335205 69.95167542 348.23443604 69.36998749 348.34829712 68.90647888 C 348.42361450 68.62107849 348.55868530 68.49584198 348.86163330 68.49032593 C 349.28460693 68.43563843 349.70999146 68.62850189 350.11651611 68.79740906 C 350.30596924 68.99374390 350.39926147 69.24076080 350.52014160 69.54576874 C 350.80545044 69.84587097 351.20169067 70.06988525 351.63787842 70.30637360 C 352.09133911 70.63640594 352.49356079 70.98447418 352.91320801 71.41940308 C 353.20965576 71.96090698 353.50384521 72.43746185 353.79797363 72.94487762 C 353.91213989 73.60918427 354.05776978 74.17559814 351.31088257 73.54032898" stroke-width="0.41823703" fill="rgb(238, 242, 244)" opacity="1.0" stroke="rgb(253, 245, 244)" stroke-opacity="0.551847" stroke-linecap="round" stroke-linejoin="round"/>
    <path d="M 399.45556641 26.40137482 C 398.76486206 26.08238602 398.06896973 25.62282181 397.56362915 25.08159065 C 397.04473877 24.66441154 396.49435425 24.35683823 396.06866455 23.91820145 C 395.85180664 23.39255524 395.62292480 22.99929428 395.47009277 22.59149170 C 395.59268188 22.22786903 395.77377319 21.96228600 396.02587891 21.72385025 C 396.30920410 21.59152794 396.63711548 21.54552650 397.02233887 21.63569641 C 397.58074951 21.80978584 398.28268433 21.99968719 398.78845215 22.38400841 C 399.05566406 22.91634941 399.40563965 23.47645569 399.59753418 24.04167366 C 399.90789795 24.44235420 400.20294189 24.89366341 400.34213257 25.37885284 C 400.60516357 25.64384460 401.08029175 25.66971016 401.54064941 25.63701057 C 401.84683228 25.87739563 402.00646973 26.15860748 399.45556641 26.40137482" stroke-width="0.35783520" fill="rgb(234, 237, 240)" opacity="1.0" stroke="rgb(178, 160, 117)" stroke-opacity="0.39529073" stroke-linecap="round" stroke-linejoin="round"/>
  </g>
</svg>
