<?xml version="1.0" ?>
<svg xmlns="http://www.w3.org/2000/svg" version="1.1" width="512" height="512" viewBox="0 0 512 512">
  <defs/>
  <g>
    <path d="M 586.29870605 503.40701294 C 563.36474609 510.04431152 540.40814209 516.62347412 517.49584961 523.18353271 C 494.47497559 529.71301270 471.42514038 536.15130615 448.25576782 542.46942139 C 424.94216919 548.59753418 401.55993652 554.42236328 377.97338867 559.89666748 C 354.24063110 564.96356201 330.46667480 569.47424316 306.56994629 573.35772705 C 282.64678955 576.54412842 258.69168091 578.95800781 234.81214905 580.45135498 C 211.00888062 581.02886963 187.37870789 580.50714111 164.07034302 578.84753418 C 141.16999817 575.87646484 118.82816315 571.62573242 97.21526337 565.93688965 C 76.47159576 558.63964844 56.78930664 549.73333740 38.36634445 539.01196289 C 21.45883751 526.32031250 6.26878738 511.60266113 -7.07171679 494.76773071 C -18.49128151 475.89474487 -28.20771599 455.24935913 -36.37535477 433.05282593 C -43.14754486 409.62548828 -48.73404694 385.23037720 -53.22214890 360.03100586 C -56.56707764 334.23025513 -58.92282867 308.00659180 -60.35803986 281.61416626 C -60.89866638 255.22659302 -60.61013794 229.02288818 -59.45545959 203.18208313 C -57.39417648 177.81257629 -54.33531570 153.07847595 -50.29758835 129.18707275 C -45.18756104 106.20693970 -38.92327118 84.33881378 -31.39757919 63.76544189 C -22.50960732 44.48327255 -12.19130611 26.70646095 -0.24492265 10.61125565 C 13.36130810 -3.81777239 28.71611977 -16.49367523 45.71748734 -27.60025024 C 64.26927948 -37.20341492 84.19180298 -45.42377090 105.45675659 -52.36059570 C 127.94534302 -58.13071442 151.46626282 -62.76128769 175.91819763 -66.40082550 C 201.13418579 -69.02435303 226.81163025 -70.73345947 252.90576172 -71.48183441 C 279.10284424 -71.38970184 305.30517578 -70.29366302 331.10836792 -68.34098053 C 356.39797974 -65.43807220 380.70269775 -61.45357895 403.92315674 -56.32632446 C 425.75579834 -50.02056503 445.90475464 -42.45274734 464.01214600 -33.53143692 C 479.72012329 -23.06859589 492.72167969 -11.00306988 502.83489990 2.74415135 C 509.66540527 18.30830765 513.33709717 35.72883987 514.35125732 54.88945389 C 513.59863281 75.62395477 511.87734985 97.74906158 509.91625977 121.14702606 C 508.20443726 145.67053223 507.08578491 171.03468323 506.63821411 197.09347534 C 506.65289307 223.74166870 507.15420532 250.82339478 508.13623047 278.23452759 C 509.69137573 305.76333618 511.63525391 333.39520264 513.70953369 361.09011841 C 515.82904053 388.87683105 517.84301758 416.66577148 586.29870605 503.40701294" stroke-width="2.00000000" fill="rgb(236, 239, 220)" opacity="1.0" stroke="rgb(153, 158, 98)" stroke-opacity="0.17285104" stroke-linecap="round" stroke-linejoin="round"/>
    <path d="M 167.78997803 255.34765625 C 163.57691956 258.16183472 159.33702087 260.99703979 155.07708740 263.72714233 C 150.63746643 266.46005249 145.97213745 269.14602661 141.16383362 271.64569092 C 136.12855530 274.06280518 130.81884766 276.31661987 125.19335938 278.36462402 C 119.36161804 280.22576904 113.23533630 281.83828735 106.90752411 283.19918823 C 100.24353027 284.25363159 93.46943665 285.03994751 86.54077911 285.44967651 C 79.56201172 285.53875732 72.55252075 285.20541382 65.60659790 284.50439453 C 58.78907013 283.31408691 52.18707657 281.70742798 45.89356232 279.60479736 C 40.04887009 277.04907227 34.71594238 273.95056152 29.99727058 270.32522583 C 26.03046799 266.13836670 22.91713333 261.45248413 20.82431793 256.22937012 C 19.73007202 250.40097046 19.62533760 244.08106995 19.96057701 237.16583252 C 20.15528870 229.81961060 20.23752785 222.06214905 20.22617722 213.98390198 C 20.25888443 205.68763733 20.25412178 197.18405151 20.27777863 188.61111450 C 20.10542297 180.05131531 20.20109749 171.46527100 20.24139786 162.99978638 C 20.23772240 154.67416382 20.23376465 146.54565430 20.28896332 138.62225342 C 20.41819000 131.02862549 20.43430710 123.87094879 20.18823433 117.13731384 C 19.96527481 110.89752960 20.17937851 105.19109344 21.37357903 100.03717804 C 23.59217072 95.40148163 26.67908287 91.24107361 30.60132980 87.55583191 C 35.25412369 84.37458038 40.62692642 81.53058624 46.58759689 79.17711639 C 53.04814911 77.20262146 60.02716064 75.61513519 67.37448883 74.38037872 C 74.94596100 73.48336792 82.67304993 72.87557220 90.60372925 72.59796143 C 98.59325409 72.56221008 106.44296265 72.82621002 114.10195923 73.39034271 C 121.61213684 74.23417664 128.83808899 75.38893890 135.58140564 76.90069580 C 141.78009033 78.83093262 147.46308899 81.12032318 152.59066772 83.85197449 C 157.02377319 87.00962830 160.74938965 90.70903015 163.70466614 94.87806702 C 165.85446167 99.62825775 167.10954285 104.93367004 167.44877625 110.94550323 C 167.27027893 117.60119629 167.27793884 124.82646179 167.20921326 132.54463196 C 167.16921997 140.69493103 167.28216553 149.13865662 167.32722473 157.90058899 C 167.16038513 166.82890320 167.21412659 175.94882202 167.28825378 185.25495911 C 167.19105530 194.65563965 167.16397095 204.16664124 167.36187744 213.70718384 C 167.35856628 223.23316956 167.08723450 232.80540466 167.78997803 255.34765625" stroke-width="2.00000000" fill="rgb(147, 75, 24)" opacity="1.0" stroke="rgb(22, 18, 9)" stroke-opacity="0.97634184" stroke-linecap="round" stroke-linejoin="round"/>
    <path d="M 336.98367310 262.03567505 C 332.44494629 264.34878540 327.86431885 266.63137817 323.24227905 268.88888550 C 318.46206665 271.11151123 313.49038696 273.28890991 308.43365479 275.36642456 C 303.09963989 277.30694580 297.53546143 279.17745972 291.78359985 280.83566284 C 285.83428955 282.29708862 279.68197632 283.53616333 273.28250122 284.50085449 C 266.74136353 285.22204590 260.06222534 285.58483887 253.33474731 285.58657837 C 246.59178162 285.23623657 239.85426331 284.44989014 233.23922729 283.26303101 C 226.78294373 281.64028931 220.65098572 279.52108765 214.88648987 276.86715698 C 209.59054565 273.78494263 204.78030396 270.20971680 200.71643066 266.05493164 C 197.46096802 261.37161255 195.10871887 256.16918945 193.69400024 250.43663025 C 193.34115601 244.15414429 193.54214478 237.39079285 193.68698120 230.16323853 C 193.56112671 222.63258362 193.49925232 214.78868103 193.52014160 206.70175171 C 193.55709839 198.46484375 193.48236084 190.04928589 193.47917175 181.59692383 C 193.46369934 173.13645935 193.56994629 164.72666931 193.44842529 156.40577698 C 193.37263489 148.26535034 193.45732117 140.36099243 193.42738342 132.74899292 C 193.46379089 125.47825623 193.32394409 118.68978119 193.28572083 112.31641388 C 192.86329651 106.43025208 193.17143250 101.01101685 194.47508240 96.13716888 C 196.77154541 91.77617645 199.92036438 87.88971710 203.89964294 84.44138336 C 208.69650269 81.39546204 214.17411804 78.79967499 220.23373413 76.61568451 C 226.78511047 74.79698181 233.80952454 73.35272217 241.18885803 72.27812958 C 248.84104919 71.59852600 256.76376343 71.25100708 264.72814941 71.28688812 C 272.69161987 71.72196960 280.63327026 72.49585724 288.44357300 73.64952850 C 295.96145630 75.12554169 303.17221069 77.00695801 309.98110962 79.26569366 C 316.19424438 81.91242218 321.80847168 84.95251465 326.63998413 88.41893005 C 330.65328979 92.34825897 333.63195801 96.73500061 335.66360474 101.59535217 C 336.48306274 106.98923492 336.53118896 112.87751770 336.33996582 119.15744781 C 336.37631226 125.71662903 336.49682617 132.69245911 336.40563965 139.88348389 C 336.44406128 147.38493347 336.43493652 155.12687683 336.47601318 163.03340149 C 336.44946289 171.15270996 336.44387817 179.39096069 336.45434570 187.75878906 C 336.36309814 196.17684937 336.31982422 204.71296692 336.46051025 213.19163513 C 336.47857666 221.77784729 336.30197144 230.36766052 336.98367310 262.03567505" stroke-width="2.00000000" fill="rgb(149, 79, 28)" opacity="1.0" stroke="rgb(1, 6, 7)" stroke-opacity="0.9933084" stroke-linecap="round" stroke-linejoin="round"/>
    <path d="M 505.49102783 272.82434082 C 501.80181885 275.00115967 498.05346680 277.17584229 494.28155518 279.35052490 C 490.33605957 281.47705078 486.18334961 283.60314941 481.79174805 285.61215210 C 477.31481934 287.62420654 472.51681519 289.51190186 467.43386841 291.26171875 C 462.11053467 292.84729004 456.57604980 294.25888062 450.80346680 295.38040161 C 444.82348633 296.25805664 438.65921021 296.81027222 432.41003418 296.96789551 C 426.12725830 296.76757812 419.71191406 296.28073120 413.29483032 295.47454834 C 407.01080322 294.22589111 400.86376953 292.59106445 394.90310669 290.52636719 C 389.22213745 288.03955078 383.80743408 285.13763428 378.80383301 281.75454712 C 374.27328491 277.91369629 370.34204102 273.53866577 366.98767090 268.65231323 C 364.23477173 263.18041992 362.32675171 257.27401733 361.17852783 250.81939697 C 360.87890625 243.89472961 360.94183350 236.52980042 361.05587769 228.84272766 C 361.03842163 220.80041504 360.94195557 212.52177429 360.95095825 203.94613647 C 360.98474121 195.18363953 360.91204834 186.28021240 360.91064453 177.20553589 C 360.99337769 168.08430481 360.86083984 158.96763611 360.89764404 149.91532898 C 360.90652466 141.07696533 360.86764526 132.50965881 360.84826660 124.38233185 C 360.91659546 116.77759552 360.83862305 109.82207489 360.57946777 103.65544128 C 361.51898193 98.39456940 363.63601685 93.94439697 366.85253906 90.24716187 C 371.06753540 87.12001801 376.13327026 84.59362030 382.07199097 82.50264740 C 388.79684448 80.87780762 396.16271973 79.53174591 403.98922729 78.57234192 C 412.28506470 77.82144165 420.88217163 77.40769196 429.59713745 77.19629669 C 438.37393188 77.30766296 447.14810181 77.71338654 455.68939209 78.41789246 C 463.90512085 79.49140930 471.72653198 81.00279236 479.09609985 82.82427979 C 485.85058594 85.12528229 491.77377319 87.90008545 496.79965210 91.15235901 C 500.88867188 94.86335754 503.89849854 99.20159149 505.63415527 104.13266754 C 505.97583008 109.75784302 505.82968140 115.99226379 505.89288330 122.77803802 C 505.86486816 130.05429077 505.92611694 137.75967407 506.07577515 145.79747009 C 505.88726807 154.15037537 505.88659668 162.86656189 506.01501465 171.79975891 C 505.93939209 180.96391296 506.00964355 190.30679321 506.07247925 199.77032471 C 506.16116333 209.28683472 505.98583984 218.90994263 505.92788696 228.47573853 C 506.23434448 238.00711060 506.37664795 247.54670715 505.49102783 272.82434082" stroke-width="1.76184976" fill="rgb(151, 80, 25)" opacity="1.0" stroke="rgb(27, 17, 12)" stroke-opacity="1.0" stroke-linecap="round" stroke-linejoin="round"/>
    <path d="M 106.08138275 105.46530151 C 99.70269775 105.45199585 93.34074402 105.54795074 86.94220734 105.48339081 C 80.61837769 105.46076965 74.24647522 105.43364716 67.90152740 105.45014191 C 61.66369629 105.47334290 55.60215759 105.39307404 49.67743301 105.37121582 C 43.91979980 105.43276978 38.37284470 105.49485016 33.21666718 105.43335724 C 28.50612831 105.39754486 24.28825760 105.41770172 20.59262848 105.42188263 C 17.49237633 105.23465729 15.17211723 105.19516754 13.79846287 105.06855774 C 13.24513912 104.37882996 13.54998684 102.95493317 14.14345551 100.58753204 C 14.66308975 97.66357422 15.47206116 94.35482025 16.53763580 90.71302795 C 17.85409927 86.89694977 19.03124619 83.04855347 20.30689240 79.22573853 C 21.37570381 75.74839783 22.21040726 72.88177490 23.40644264 71.08692932 C 24.99989510 70.50472260 27.24995422 70.59170532 29.99479675 70.76992798 C 33.14469147 70.89346313 36.69478989 70.87531281 40.62556839 70.75814819 C 44.83873749 70.83568573 49.37294769 70.71948242 54.23480988 70.64977264 C 59.39392853 70.77742767 64.72750092 70.77977753 70.24994659 70.63446045 C 75.84202576 70.76612854 81.50239563 70.67771149 87.26548004 70.75334930 C 93.04651642 70.68659210 98.84804535 70.72235107 104.62191772 70.64364624 C 110.33325958 70.66155243 115.92234802 70.61206818 121.38729095 70.72387695 C 126.73043823 70.65190887 131.83671570 70.65068817 136.78132629 70.73468018 C 141.51249695 70.85292816 145.88569641 70.80582428 149.92160034 70.71343994 C 153.56697083 70.66203308 156.70471191 70.83878326 159.30401611 70.99588776 C 161.39108276 70.81142426 163.02005005 70.58358002 164.20642090 71.15242004 C 164.98487854 73.01441956 165.96180725 75.76184845 167.15737915 79.06458282 C 168.41612244 82.69520569 169.61820984 86.52850342 170.90652466 90.21513367 C 172.05760193 93.85598755 173.28407288 97.15406799 174.07876587 100.00974274 C 174.72143555 102.31040955 175.32785034 103.82036591 175.32240295 104.68318939 C 174.14564514 104.87285614 172.05973816 105.01575470 169.15069580 105.44270325 C 165.50115967 105.56823730 161.31263733 105.58041382 156.53108215 105.50294495 C 151.20277405 105.65917206 145.43618774 105.58542633 139.43441772 105.57224274 C 133.30661011 105.51397705 126.97450256 105.49706268 120.44612885 105.54060364 C 113.94299316 105.54971313 107.50914001 105.47935486 106.08138275 105.46530151" stroke-width="2.00000000" fill="rgb(221, 41, 25)" opacity="1.0" stroke="rgb(0, 0, 0)" stroke-opacity="0.9725052" stroke-linecap="round" stroke-linejoin="round"/>
    <path d="M 298.68209839 98.19582367 C 288.65551758 98.30010986 278.70248413 98.41069794 268.76824951 98.35685730 C 259.00494385 98.35386658 249.31838989 98.37928772 239.89111328 98.27606964 C 230.73303223 98.22638702 222.08229065 98.24828339 213.90686035 98.22596741 C 206.49456787 98.15088654 199.80136108 98.21708679 194.09957886 98.22881317 C 189.55204773 98.22730255 186.32246399 98.10014343 184.51329041 97.46576691 C 184.26107788 96.14359283 184.98655701 93.86093140 186.13806152 90.93244934 C 187.45088196 87.45786285 188.82765198 83.65898132 190.09599304 79.80352783 C 191.14198303 76.06192780 192.19546509 72.96862030 193.64855957 70.87403107 C 196.36553955 70.42107391 200.12133789 70.60768127 204.90354919 70.62396240 C 210.66723633 70.49158478 217.20626831 70.59272003 224.51496887 70.58885956 C 232.28695679 70.62309265 240.53442383 70.65273285 249.18783569 70.54175568 C 258.18664551 70.61470795 267.30010986 70.59674835 276.31390381 70.56072235 C 285.19692993 70.59813690 293.78613281 70.55529785 301.99551392 70.48215485 C 309.61389160 70.58453369 316.61337280 70.54047394 322.76489258 70.64641571 C 327.91268921 70.76268005 331.93441772 70.60842133 334.73999023 70.65382385 C 336.23275757 71.75723267 337.09530640 73.77864838 338.01239014 76.06060791 C 339.23257446 78.64361572 340.30834961 81.51861572 341.33761597 84.41970062 C 342.42156982 87.32036591 343.67114258 90.06375122 344.66302490 92.52928162 C 345.46029663 94.72956848 345.89672852 96.44739532 346.35363770 97.66181946 C 346.89916992 98.23487854 347.62933350 98.33037567 298.68209839 98.19582367" stroke-width="2.00000000" fill="rgb(18, 154, 232)" opacity="1.0" stroke="rgb(6, 12, 24)" stroke-opacity="1.0" stroke-linecap="round" stroke-linejoin="round"/>
    <path d="M 504.95639038 98.75812531 C 495.07809448 98.87378693 485.16616821 98.86251068 475.30316162 98.78749847 C 465.62097168 98.79347992 456.02471924 98.74900818 446.47900391 98.62762451 C 437.03024292 98.66854858 427.65921021 98.72425079 418.44076538 98.67217255 C 409.56237793 98.59312439 400.97506714 98.67134094 392.81378174 98.79149628 C 385.23095703 98.72475433 378.35269165 98.74573517 372.24398804 98.72581482 C 367.05346680 98.67667389 363.07305908 98.56498718 360.42715454 99.47230530 C 359.08682251 101.82361603 358.00875854 103.86026001 356.83984375 104.50331116 C 356.54949951 103.36113739 357.01303101 100.67743683 357.86276245 96.93527985 C 359.24758911 92.43161774 360.76812744 87.43667603 362.49606323 82.46292114 C 363.93988037 77.71673584 365.06677246 73.75000000 366.53765869 71.11507416 C 369.35601807 70.50641632 373.41009521 70.70435333 378.62170410 70.76541138 C 384.79943848 70.66182709 391.70935059 70.80069733 399.19790649 70.70211792 C 407.19207764 70.86801910 415.62301636 70.81884766 424.17977905 70.76148224 C 432.71820068 70.69539642 441.17803955 70.54650879 449.50869751 70.81344604 C 457.48846436 70.75869751 464.99633789 70.56167603 472.02850342 70.74739838 C 478.54782104 70.78824615 484.40899658 70.73041534 489.49053955 70.90444946 C 493.73934937 70.74655151 497.08831787 70.50445557 499.43167114 71.17005920 C 500.91143799 73.52495575 502.18161011 77.10892487 503.58297729 81.67266083 C 505.58007812 86.79949188 507.27954102 92.42065430 508.97799683 98.39501190 C 510.23229980 104.52079773 510.92144775 110.93473816 504.95639038 98.75812531" stroke-width="2.00000000" fill="rgb(248, 199, 4)" opacity="1.0" stroke="rgb(65, 42, 12)" stroke-opacity="1.0" stroke-linecap="round" stroke-linejoin="round"/>
    <path d="M 169.86970520 280.17614746 C 170.21894836 281.48205566 170.40759277 282.63790894 170.19647217 283.73919678 C 169.56845093 284.89044189 168.47084045 286.01034546 167.09149170 287.12258911 C 165.48518372 288.26657104 163.59002686 289.37191772 161.31683350 290.36245728 C 158.65093994 291.32803345 155.70625305 292.27450562 152.56550598 293.24816895 C 149.22543335 294.21347046 145.69573975 295.01177979 141.88568115 295.70065308 C 137.70404053 296.34606934 133.26792908 296.95736694 128.67524719 297.43417358 C 123.86302185 297.46325684 118.82479095 297.25708008 113.59081268 297.29553223 C 108.22266388 297.36938477 102.59996033 297.45928955 96.77097321 297.36172485 C 90.91402435 297.35049438 85.06306458 297.37207031 79.18998718 297.27679443 C 73.26563263 297.40805054 67.30146027 297.45922852 61.45312881 297.34326172 C 55.76959991 297.27490234 50.24072266 297.36611938 44.97745895 297.39675903 C 39.97158051 297.35900879 35.41387558 296.85565186 31.23601151 295.88345337 C 27.51305771 294.47433472 24.32391739 292.72393799 21.74026871 290.70886230 C 19.80215645 288.44284058 18.60234261 285.70196533 18.25823212 282.59341431 C 18.64534378 279.30227661 18.86503410 275.70452881 18.96413231 271.98641968 C 18.99143600 268.27374268 19.09232521 264.62960815 19.34359169 261.16326904 C 19.38640785 258.00085449 19.52926445 255.18885803 19.55944252 252.83428955 C 19.28018379 251.07847595 19.30239296 249.88966370 19.94430161 249.16215515 C 21.37647057 249.06138611 23.53703308 249.17755127 26.42625999 249.20237732 C 29.88223267 249.23806763 33.88948441 249.22842407 38.36352158 249.12292480 C 43.16420364 249.02212524 48.27128983 248.96417236 53.69795609 249.05613708 C 59.27826309 249.35076904 65.01445007 249.85301208 70.88162994 250.34152222 C 76.75904083 250.54884338 82.65219116 250.45298767 88.59979248 250.08642578 C 94.50828552 249.59915161 100.43958282 249.23352051 106.29176331 248.97892761 C 112.11080933 248.88070679 117.82019043 248.86531067 123.41659546 248.86209106 C 128.84606934 248.90397644 134.09655762 248.84936523 139.16316223 248.81430054 C 144.01687622 248.86062622 148.50848389 248.85673523 152.68135071 248.74758911 C 156.50099182 248.83302307 159.87316895 248.84877014 162.76994324 248.90269470 C 165.10699463 248.92097473 166.82537842 248.84077454 167.91351318 248.61099243 C 168.26049805 248.33453369 168.18058777 247.93768311 169.86970520 280.17614746" stroke-width="1.77836239" fill="rgb(200, 123, 72)" opacity="1.0" stroke="rgb(24, 11, 5)" stroke-opacity="0.87858516" stroke-linecap="round" stroke-linejoin="round"/>
    <path d="M 339.44097900 296.80136108 C 334.28326416 296.86221313 329.13104248 296.85653687 323.98413086 296.66226196 C 318.82870483 296.45297241 313.68307495 296.26492310 308.49026489 296.17694092 C 303.26535034 296.21463013 298.04846191 296.35644531 292.88372803 296.64379883 C 287.63858032 297.22259521 282.41519165 297.54858398 277.10272217 297.21081543 C 271.63595581 296.64584351 266.05377197 296.27960205 260.33248901 296.17764282 C 254.50167847 296.15261841 248.63305664 296.14306641 242.66572571 296.13571167 C 236.80949402 296.11743164 231.04458618 296.09133911 225.43292236 296.20703125 C 220.00170898 296.47195435 214.88970947 296.77120972 210.05393982 296.94619751 C 205.66419983 296.75015259 201.76249695 296.70394897 198.42230225 296.74459839 C 195.76165771 296.86431885 193.82839966 297.00045776 192.76257324 296.85711670 C 192.55140686 295.80633545 192.69351196 293.88729858 192.84181213 291.14712524 C 192.86000061 287.79772949 192.81962585 284.13406372 193.10754395 280.18963623 C 193.16905212 275.98397827 193.21369934 271.60980225 193.14384460 267.33123779 C 193.23487854 263.24572754 193.30030823 259.48895264 193.39955139 256.05197144 C 193.29006958 253.12939453 193.24375916 250.84756470 193.53018188 249.41197205 C 194.61903381 248.86294556 196.50987244 248.81324768 199.07478333 248.69653320 C 202.21817017 248.67179871 205.84071350 248.73603821 209.96879578 248.83863831 C 214.50286865 248.78366089 219.44427490 248.69448853 224.66342163 248.61289978 C 230.10540771 248.64952087 235.82626343 248.77354431 241.62159729 248.99354553 C 247.60424805 249.18669128 253.69448853 249.33349609 259.79165649 249.40304565 C 265.91683960 249.39360046 272.00811768 249.36810303 278.09085083 249.24241638 C 284.02160645 249.15626526 289.84420776 249.10899353 295.48385620 249.06669617 C 300.98611450 249.08853149 306.21667480 249.12481689 311.19805908 249.05374146 C 315.81518555 249.06272888 320.08969116 249.08631897 323.90844727 249.12611389 C 327.39791870 249.11480713 330.38067627 249.05010986 332.80651855 249.02734375 C 334.66848755 249.03285217 336.00228882 249.16055298 336.74606323 249.66453552 C 336.99786377 251.04571533 337.09848022 253.07322693 337.17520142 255.66630554 C 337.53274536 258.83752441 337.70498657 262.32473755 337.78750610 266.00772095 C 338.24807739 269.93673706 338.65011597 274.19665527 338.88107300 278.55044556 C 339.20840454 282.87384033 339.21881104 287.18499756 339.44097900 296.80136108" stroke-width="1.81573892" fill="rgb(199, 125, 70)" opacity="1.0" stroke="rgb(38, 18, 10)" stroke-opacity="0.970817" stroke-linecap="round" stroke-linejoin="round"/>
    <path d="M 506.69024658 296.73690796 C 502.09008789 296.77328491 497.37902832 296.77603149 492.73913574 296.72296143 C 488.12393188 296.69094849 483.47183228 296.69018555 478.70370483 296.61886597 C 473.90087891 296.42135620 469.04580688 296.17095947 464.17587280 296.06072998 C 459.31890869 296.10595703 454.34799194 296.24664307 449.27099609 296.44326782 C 444.11413574 296.62512207 438.99145508 296.84530640 433.79013062 296.97424316 C 428.50976562 296.82861328 423.24835205 296.68719482 417.96890259 296.61322021 C 412.61117554 296.79849243 407.29635620 296.97277832 402.16174316 297.06808472 C 397.16781616 297.29919434 392.21166992 297.39120483 387.37936401 297.22833252 C 382.78643799 296.98449707 378.50738525 296.89712524 374.60913086 297.02893066 C 371.03140259 296.87078857 367.77008057 297.08251953 364.94989014 297.25418091 C 362.59240723 297.36108398 360.87326050 297.38101196 359.93179321 296.83666992 C 359.85067749 294.95022583 359.95864868 292.03796387 359.99511719 288.44448853 C 359.75030518 284.26287842 359.60137939 279.62545776 359.90438843 274.69485474 C 360.19146729 269.72143555 360.28872681 264.87420654 360.33627319 260.26840210 C 360.56274414 256.16900635 360.62747192 252.84906006 360.63488770 250.38737488 C 360.96163940 248.90768433 361.95629883 248.46353149 363.71435547 248.73497009 C 366.21072388 248.83044434 369.34457397 248.81037903 373.08108521 248.86903381 C 377.36300659 249.06765747 382.11071777 249.31025696 387.21716309 249.44850159 C 392.63082886 249.38800049 398.29171753 249.31138611 404.20770264 249.22291565 C 410.23367310 249.16697693 416.34490967 249.10876465 422.52145386 249.05221558 C 428.79949951 248.84321594 435.09741211 248.80419922 441.37557983 248.91879272 C 447.56515503 248.93153381 453.64089966 248.90496826 459.64938354 248.85418701 C 465.53152466 248.84616089 471.21047974 248.79850769 476.65493774 248.81907654 C 481.78314209 248.81431580 486.61608887 248.86199951 491.01507568 248.85371399 C 495.06729126 248.78147888 498.57742310 248.74929810 501.49893188 248.64509583 C 503.82626343 248.71511841 505.46697998 248.87390137 506.35415649 249.55055237 C 506.36065674 250.97485352 506.27359009 253.05458069 506.39416504 255.76493835 C 506.56628418 258.85455322 506.67419434 262.20321655 507.00604248 265.66415405 C 506.99465942 269.23898315 507.02648926 272.98034668 507.27484131 276.63366699 C 507.72009277 280.26986694 508.21768188 283.83920288 506.69024658 296.73690796" stroke-width="1.91949618" fill="rgb(199, 124, 73)" opacity="1.0" stroke="rgb(40, 17, 9)" stroke-opacity="0.93526286" stroke-linecap="round" stroke-linejoin="round"/>
    <path d="M 34.18358231 247.63139343 C 35.86516953 247.20832825 37.56459045 246.85806274 39.27223587 246.50309753 C 40.87642670 246.22628784 42.44854736 246.15476990 44.08448792 246.13632202 C 45.79087830 246.15339661 47.45917892 246.27296448 49.09066772 246.47309875 C 50.73060226 246.71267700 52.41476440 246.93287659 54.15378952 247.27999878 C 55.75903320 247.74221802 57.33022690 248.16432190 58.88092041 248.55825806 C 60.37222672 249.05499268 61.70433044 249.45770264 62.88247681 249.83612061 C 63.76676559 250.41720581 64.37406158 251.26577759 64.68864441 252.26121521 C 64.80232239 253.38511658 64.74246216 254.60504150 64.49846649 255.86946106 C 64.16218567 257.05938721 63.65621185 258.23037720 62.94962311 259.42971802 C 62.04763412 260.58023071 61.02996826 261.67843628 60.00257111 262.75631714 C 58.87331772 263.76712036 57.70629501 264.78170776 56.49727631 265.70663452 C 55.23875046 266.57305908 53.94270325 267.32522583 52.64791107 267.99688721 C 51.29796600 268.56237793 49.91281509 268.95120239 48.50943756 269.20672607 C 47.15169525 269.38317871 45.79632950 269.40881348 44.42885590 269.27151489 C 43.01093292 268.99343872 41.68200302 268.59866333 40.35775757 268.07244873 C 39.14231491 267.45040894 37.92930222 266.68695068 36.80249023 265.84707642 C 35.71597290 264.88580322 34.78734207 263.86184692 33.98591995 262.74130249 C 33.27652359 261.56661987 32.59998703 260.27352905 32.08471298 258.94787598 C 31.65574455 257.60797119 31.25999260 256.19839478 30.92643547 254.81405640 C 30.58048630 253.39219666 30.23722458 252.05259705 34.18358231 247.63139343" stroke-width="2.00000000" fill="rgb(195, 29, 22)" opacity="1.0" stroke="rgb(14, 8, 5)" stroke-opacity="0.9020821" stroke-linecap="round" stroke-linejoin="round"/>
    <path d="M 73.59061432 255.22305298 C 74.26111603 254.33624268 74.96263123 253.49743652 75.70423126 252.60391235 C 76.48614502 251.70953369 77.31999969 250.81558228 78.26954651 249.97099304 C 79.27525330 249.17753601 80.31259918 248.48567200 81.50775146 247.85162354 C 82.80418396 247.24282837 84.18799591 246.67687988 85.67824554 246.27554321 C 87.22767639 246.01922607 88.81452942 245.78044128 90.50531006 245.71726990 C 92.26499939 245.83224487 94.06986237 246.03392029 95.84542084 246.28013611 C 97.53646088 246.57411194 99.22518158 247.03953552 100.94390869 247.62057495 C 102.56674194 248.29406738 104.09955597 249.04397583 105.46189117 249.90432739 C 106.60797119 250.85597229 107.44966125 251.88124084 108.09449005 252.98286438 C 108.52277374 254.23538208 108.74544525 255.55615234 108.65695953 256.90728760 C 108.15010834 258.29293823 107.55146027 259.80200195 106.95756531 261.42672729 C 106.49954224 263.13055420 105.94642639 264.76623535 105.17993927 266.40731812 C 104.22197723 267.93377686 103.32909393 269.39694214 102.31084442 270.61553955 C 101.20118713 271.61883545 99.88581085 272.28100586 98.39615631 272.65728760 C 96.82868195 272.83529663 95.17509460 273.03448486 93.53421783 273.32415771 C 91.87482452 273.35739136 90.21103668 273.28173828 88.66970062 273.24707031 C 87.13760376 273.02218628 85.66878510 272.92541504 84.33588409 272.68750000 C 83.09350586 272.16339111 82.03656006 271.60815430 81.13491058 270.82409668 C 80.34751129 269.90402222 79.58806610 269.02239990 78.90294647 268.06930542 C 78.17710876 267.07312012 77.50883484 266.16415405 73.59061432 255.22305298" stroke-width="1.75356293" fill="rgb(8, 176, 129)" opacity="1.0" stroke="rgb(1, 16, 8)" stroke-opacity="0.8326824" stroke-linecap="round" stroke-linejoin="round"/>
    <path d="M 247.40528870 268.09515381 C 246.23371887 269.29840088 245.23300171 270.58483887 244.05102539 271.62631226 C 242.75491333 272.51519775 241.41990662 273.15774536 239.87950134 273.31430054 C 238.14312744 273.40563965 236.35316467 273.51715088 234.61492920 273.60092163 C 232.97775269 273.59695435 231.34138489 273.54757690 229.73841858 273.43286133 C 228.12901306 273.21041870 226.61175537 272.77612305 225.22296143 272.34909058 C 223.87799072 271.73449707 222.55836487 271.04156494 221.38603210 270.13757324 C 220.49201965 268.91799927 219.57704163 267.55184937 218.62750244 266.19561768 C 218.04028320 264.63534546 217.50871277 262.87454224 217.05551147 261.19125366 C 216.48669434 259.62945557 215.90693665 258.09860229 215.46353149 256.71096802 C 215.31675720 255.41571045 215.55032349 254.18438721 216.11231995 253.03657532 C 216.93438721 251.92286682 218.01225281 250.90432739 219.32505798 249.99125671 C 220.85206604 249.16203308 222.54187012 248.44390869 224.34350586 247.87460327 C 226.24757385 247.39868164 228.20639038 247.00918579 230.24308777 246.72946167 C 232.32441711 246.63914490 234.38931274 246.66943359 236.38507080 246.69992065 C 238.41174316 246.85664368 240.36355591 247.08183289 242.17106628 247.46907043 C 243.85963440 247.87426758 245.46047974 248.33555603 246.85197449 248.96751404 C 248.00900269 249.76959229 249.00512695 250.70979309 249.75985718 251.76280212 C 250.32427979 252.97351074 250.58233643 254.34553528 250.75587463 255.74128723 C 250.68647766 257.15948486 250.37684631 258.66033936 249.96966553 260.25991821 C 249.56562805 261.90634155 249.35261536 263.57162476 247.40528870 268.09515381" stroke-width="1.89635432" fill="rgb(248, 209, 9)" opacity="1.0" stroke="rgb(50, 23, 11)" stroke-opacity="0.9773569" stroke-linecap="round" stroke-linejoin="round"/>
    <path d="M 272.36682129 249.97010803 C 273.54336548 249.76568604 274.68823242 249.47947693 275.88623047 249.28242493 C 277.19921875 249.15631104 278.56661987 249.01129150 279.99514771 248.87467957 C 281.50091553 248.73664856 283.07464600 248.68089294 284.61059570 248.71722412 C 286.05398560 248.85006714 287.48629761 249.05407715 288.89257812 249.36129761 C 290.25045776 249.78431702 291.60403442 250.24354553 292.89370728 250.86697388 C 294.12911987 251.51589966 295.21328735 252.26089478 296.29461670 253.08502197 C 297.25448608 253.99301147 298.13412476 255.03521729 298.87377930 256.05480957 C 299.55014038 257.14855957 300.09826660 258.29327393 300.47659302 259.46560669 C 300.77505493 260.78814697 300.90167236 262.06460571 300.80990601 263.34341431 C 300.48101807 264.65469360 300.02026367 266.04095459 299.41644287 267.37765503 C 298.58801270 268.58352661 297.83383179 269.79211426 297.03945923 270.90747070 C 296.08129883 271.67428589 294.88928223 272.24819946 293.53277588 272.62231445 C 291.97836304 273.03839111 290.38208008 273.27359009 288.74594116 273.49603271 C 287.01055908 273.55010986 285.19857788 273.50592041 283.37017822 273.46209717 C 281.65280151 273.24267578 279.96609497 273.01312256 278.32159424 272.65945435 C 276.80300903 272.05480957 275.37731934 271.33193970 274.09289551 270.64328003 C 272.94378662 269.84838867 272.12097168 268.82452393 271.51950073 267.56604004 C 270.77044678 266.47039795 270.11636353 265.42733765 269.60147095 264.27441406 C 269.31338501 263.01693726 269.12393188 261.75830078 269.00048828 260.52520752 C 268.85919189 259.32254028 268.61486816 258.14385986 272.36682129 249.97010803" stroke-width="1.87334979" fill="rgb(247, 210, 10)" opacity="1.0" stroke="rgb(51, 24, 12)" stroke-opacity="1.0" stroke-linecap="round" stroke-linejoin="round"/>
    <path d="M 413.14007568 267.90261841 C 412.01882935 268.94369507 410.93984985 270.03506470 409.73870850 270.97985840 C 408.14929199 271.68820190 406.48971558 272.21005249 404.81643677 272.60678101 C 402.96865845 272.95828247 401.09231567 273.02435303 399.26104736 273.00808716 C 397.41195679 272.98791504 395.61050415 272.89599609 393.91717529 272.64184570 C 392.30007935 272.13818359 390.87301636 271.51162720 389.58489990 270.57598877 C 388.41708374 269.41177368 387.36337280 268.10766602 386.33914185 266.74816895 C 385.55551147 265.24060059 384.95849609 263.67279053 384.34759521 262.18658447 C 383.58700562 260.82965088 382.99313354 259.44488525 382.77020264 258.01846313 C 382.72103882 256.65808105 382.56716919 255.34571838 382.19622803 254.15844727 C 381.73944092 253.07574463 381.46389771 252.13468933 381.61129761 251.23991394 C 382.40615845 250.36471558 383.37185669 249.33544922 384.51898193 248.28417969 C 386.01043701 247.43502808 387.76458740 246.83032227 389.62231445 246.27757263 C 391.61523438 245.86398315 393.72894287 245.78675842 395.96151733 245.84149170 C 398.23165894 245.86872864 400.54202271 245.87947083 402.78759766 245.88235474 C 404.93798828 246.05883789 407.02392578 246.26652527 409.06842041 246.52645874 C 410.94555664 246.91369629 412.52276611 247.40449524 413.88159180 248.04383850 C 414.93670654 248.90740967 415.82617188 249.70210266 416.54602051 250.47927856 C 416.90136719 251.29682922 417.03146362 252.18649292 417.04788208 253.12834167 C 417.09594727 254.12307739 417.29479980 255.07658386 417.44525146 256.07788086 C 417.33947754 257.26565552 417.31396484 258.52017212 413.14007568 267.90261841" stroke-width="1.80212367" fill="rgb(10, 138, 140)" opacity="1.0" stroke="rgb(0, 6, 7)" stroke-opacity="0.87271875" stroke-linecap="round" stroke-linejoin="round"/>
    <path d="M 81.43849945 191.37382507 C 77.31608582 191.36894226 73.27738190 191.42582703 69.33200073 191.38647461 C 65.45503235 191.47279358 61.67163849 191.34611511 58.02809525 191.21310425 C 54.48342514 191.45124817 51.12116623 191.44750977 47.99548340 191.27859497 C 45.12576675 191.28674316 42.69431686 191.26367188 40.76484299 191.19647217 C 39.35846710 191.46507263 38.34474182 191.51008606 37.82019043 190.99453735 C 37.75637054 189.60507202 37.75801086 187.51771545 37.74672699 184.89700317 C 37.72941208 181.65959167 37.69536591 177.92620850 37.82637787 173.87094116 C 37.71669006 169.63848877 37.91702271 165.24940491 37.93416214 160.64506531 C 37.69215012 155.95726013 37.79682922 151.38198853 38.00205612 146.99412537 C 37.73043060 142.89479065 37.72521210 139.24877930 37.89091873 136.11390686 C 37.76934433 133.62097168 37.57278061 131.82501221 37.86647415 130.81527710 C 38.94976807 130.59761047 40.75581741 130.81753540 43.31776047 131.18110657 C 46.51827240 131.28359985 50.12288666 131.16670227 54.02037048 131.08030701 C 58.07849503 130.81307983 62.22265244 130.76173401 66.22292328 131.03511047 C 69.98114777 131.16670227 73.47623444 131.15835571 76.44737244 131.34738159 C 78.72386932 131.25741577 80.37021637 131.12548828 81.29578400 131.15293884 C 81.45767975 132.09944153 81.31398010 133.64709473 81.38829041 135.77598572 C 81.44161224 138.46972656 81.31806183 141.63409424 81.29217529 145.08079529 C 81.28023529 148.71214294 81.44846344 152.56289673 81.45362854 156.58116150 C 81.56787109 160.58634949 81.33789062 164.53637695 81.43849945 191.37382507" stroke-width="2.00000000" fill="rgb(178, 225, 251)" opacity="1.0" stroke="rgb(0, 8, 12)" stroke-opacity="0.92800725" stroke-linecap="round" stroke-linejoin="round"/>
    <path d="M 281.78320312 172.88380432 C 281.49813843 175.30531311 281.58822632 177.71188354 281.78134155 180.17591858 C 281.89974976 182.59584045 281.93334961 184.93238831 281.89929199 187.04634094 C 281.91958618 188.88929749 281.91500854 190.35066223 281.53854370 191.31639099 C 280.41467285 191.68969727 278.72238159 191.64270020 276.49484253 191.56886292 C 273.72802734 191.61848450 270.45938110 191.60499573 266.89422607 191.56838989 C 263.23736572 191.54693604 259.54644775 191.54464722 255.79220581 191.55509949 C 252.06729126 191.48747253 248.60099792 191.51113892 245.60455322 191.58180237 C 243.08709717 191.68511963 241.03813171 191.72775269 239.69653320 191.27775574 C 239.24594116 190.24308777 239.35026550 188.50798035 239.55996704 186.00245667 C 239.50242615 182.92025757 239.49353027 179.34942627 239.46766663 175.31703186 C 239.50852966 171.01252747 239.49426270 166.49380493 239.37126160 161.88049316 C 239.34123230 157.31907654 239.35534668 152.82876587 239.48489380 148.48678589 C 239.43975830 144.43148804 239.33345032 140.75471497 239.42008972 137.50085449 C 239.46818542 134.81898499 239.48268127 132.85215759 239.60444641 131.60093689 C 240.61631775 131.12307739 242.33287048 131.20294189 244.65481567 131.38465881 C 247.53819275 131.36734009 250.77410889 131.29835510 254.31219482 131.27967834 C 258.03186035 131.21084595 261.79263306 131.30410767 265.55661011 131.44152832 C 269.19305420 131.43701172 272.60516357 131.48748779 275.65911865 131.46618652 C 278.25018311 131.46836853 280.21786499 131.41149902 281.46112061 131.45256042 C 281.94683838 131.42433167 281.89111328 131.23957825 281.78320312 172.88380432" stroke-width="1.98738980" fill="rgb(247, 86, 67)" opacity="1.0" stroke="rgb(22, 2, 2)" stroke-opacity="0.86828685" stroke-linecap="round" stroke-linejoin="round"/>
    <path d="M 459.30001831 131.23919678 C 459.34466553 135.99348450 459.35223389 140.72348022 459.28106689 145.47953796 C 459.30889893 150.19827271 459.33676147 154.89942932 459.35235596 159.61279297 C 459.34378052 164.26722717 459.20809937 168.78358459 459.26165771 173.12144470 C 459.40109253 177.20127869 459.37924194 181.01869202 459.34725952 184.46324158 C 459.37631226 187.35740662 459.43136597 189.54507446 459.20718384 191.03492737 C 458.39196777 191.67863464 456.90161133 191.73890686 454.75958252 191.58631897 C 452.06295776 191.56968689 448.88800049 191.59426880 445.29605103 191.53463745 C 441.33190918 191.51780701 437.11111450 191.47903442 432.83648682 191.51637268 C 428.55410767 191.56095886 424.42068481 191.52859497 420.63824463 191.47709656 C 417.30361938 191.56912231 414.65789795 191.76948547 412.85058594 191.64543152 C 412.03491211 190.87553406 411.98825073 189.35798645 412.14303589 187.19982910 C 412.09112549 184.41531372 412.11511230 181.08657837 412.09539795 177.26792908 C 412.17834473 173.13832092 412.16821289 168.74800110 412.08020020 164.23843384 C 412.08657837 159.61439514 412.14468384 155.04080200 412.15597534 150.58514404 C 412.11041260 146.45031738 412.15759277 142.60951233 412.16833496 139.20860291 C 412.17767334 136.25537109 412.10647583 133.88407898 412.07614136 132.22204590 C 412.19686890 131.18710327 412.85913086 130.79209900 413.93780518 130.86209106 C 415.44683838 131.09962463 417.19454956 131.29170227 419.29693604 131.33830261 C 421.56631470 131.29013062 423.99545288 131.22747803 426.43457031 131.28161621 C 428.94863892 131.37364197 431.40255737 131.26942444 459.30001831 131.23919678" stroke-width="1.95528936" fill="rgb(44, 162, 72)" opacity="1.0" stroke="rgb(3, 12, 4)" stroke-opacity="0.9117043" stroke-linecap="round" stroke-linejoin="round"/>
    <path d="M 119.77048492 296.79718018 C 110.92065430 296.91180420 102.00118256 296.91949463 93.17008972 296.86334229 C 84.42699432 296.82208252 75.77316284 296.83056641 67.40856171 296.85726929 C 59.39514542 296.82028198 51.70741653 296.71948242 44.60161209 296.71118164 C 38.16088104 296.86669922 32.43338394 296.93450928 27.50407410 296.88433838 C 23.52516747 296.78787231 20.64549828 297.00869751 18.97040558 296.80761719 C 18.48692703 295.42687988 18.64393044 293.16729736 18.91618156 290.34506226 C 18.90011787 287.40097046 18.84349060 284.69458008 18.90112686 282.61132812 C 19.83831596 281.55160522 21.82664490 281.47329712 24.82429504 281.89160156 C 28.92309570 282.14343262 34.06650925 282.22082520 40.02220917 282.10519409 C 46.67359161 282.06185913 54.02742004 282.17907715 61.97945404 282.22549438 C 70.34286499 282.11227417 78.94043732 282.03018188 87.73967743 282.14672852 C 96.60146332 282.30227661 105.34390259 282.14959717 113.94202423 281.87500000 C 122.16907501 281.82894897 129.86898804 281.93649292 137.03543091 281.87750244 C 143.56130981 282.06600952 149.45672607 282.20523071 154.60653687 282.16674805 C 159.02645874 282.14147949 162.71289062 282.13107300 165.60501099 282.18939209 C 167.78770447 282.23605347 169.23373413 282.14376831 169.99035645 282.36575317 C 170.07566833 283.16735840 169.89875793 284.44781494 169.82225037 286.17767334 C 170.06861877 288.25454712 170.18109131 290.36920166 170.07005310 292.30047607 C 170.09573364 294.11596680 170.15682983 295.61666870 170.21926880 296.60604858 C 170.35136414 296.94293213 170.44064331 296.91760254 119.77048492 296.79718018" stroke-width="2.00000000" fill="rgb(203, 124, 74)" opacity="1.0" stroke="rgb(34, 17, 8)" stroke-opacity="0.9911656" stroke-linecap="round" stroke-linejoin="round"/>
    <path d="M 507.74639893 296.82077026 C 499.81655884 296.89730835 491.87048340 296.86862183 484.00714111 296.91461182 C 476.12646484 296.95367432 468.26181030 297.04226685 460.48287964 297.13143921 C 452.75601196 296.87716675 445.12649536 296.83322144 437.57443237 296.81842041 C 430.03829956 296.87350464 422.62030029 296.83859253 415.39230347 296.94326782 C 408.38323975 296.88510132 401.61987305 296.79031372 395.19900513 296.85351562 C 389.04080200 296.82913208 383.25561523 296.77447510 377.91293335 296.79077148 C 373.07305908 296.78762817 368.79537964 296.80563354 365.23309326 296.71463013 C 362.52020264 296.78512573 360.69204712 296.66262817 359.73638916 295.74911499 C 359.60620117 293.86865234 359.76766968 291.33349609 359.81509399 288.51156616 C 359.86996460 285.82177734 359.84609985 283.58300781 360.55917358 282.13159180 C 362.75479126 281.71322632 366.16445923 281.70422363 370.64767456 281.75137329 C 376.12237549 281.90905762 382.29846191 281.88796997 389.16464233 281.84078979 C 396.58126831 281.80340576 404.31848145 281.84518433 412.27709961 281.88043213 C 420.35961914 281.83334351 428.42645264 281.80709839 436.42324829 281.87408447 C 444.22668457 281.88107300 451.71566772 281.91757202 458.87518311 281.87805176 C 465.66674805 281.80130005 471.96841431 281.80255127 477.82141113 281.90069580 C 483.20278931 282.14370728 488.07946777 282.17483521 492.39266968 282.17565918 C 496.12399292 282.14614868 499.33450317 282.13049316 502.01489258 282.05422974 C 504.17370605 282.13403320 505.79016113 282.24526978 506.86465454 282.16064453 C 507.44021606 281.92001343 507.70404053 281.67657471 507.74639893 296.82077026" stroke-width="2.00000000" fill="rgb(203, 123, 73)" opacity="1.0" stroke="rgb(24, 10, 6)" stroke-opacity="0.93164414" stroke-linecap="round" stroke-linejoin="round"/>
    <path d="M 338.45254517 296.97094727 C 331.48291016 296.85717773 324.51751709 296.86569214 317.58895874 297.08361816 C 310.53744507 297.06213379 303.53262329 297.07205200 296.51879883 297.11022949 C 289.59713745 296.82089233 282.59512329 296.63687134 275.55728149 296.75003052 C 268.50573730 297.05279541 261.50302124 297.12384033 254.49043274 297.15283203 C 247.54222107 297.09228516 240.68666077 296.96749878 234.01524353 297.09667969 C 227.52058411 297.26135254 221.28823853 297.03619385 215.45257568 296.85638428 C 210.05566406 296.82696533 205.19168091 296.83749390 200.88218689 296.86959839 C 197.34786987 296.88214111 194.70394897 296.82308960 193.10733032 296.27484131 C 192.49304199 294.64480591 192.52587891 292.25857544 192.95152283 289.53726196 C 192.91969299 286.80426025 192.73301697 284.38787842 192.73646545 282.69265747 C 193.82431030 281.96585083 195.99217224 281.98574829 199.27523804 282.20843506 C 203.65502930 282.25463867 208.86837769 282.23608398 214.71780396 282.21783447 C 221.18011475 282.26284790 228.04647827 282.20202637 235.22230530 282.24023438 C 242.64674377 282.19683838 250.28729248 282.31072998 257.90567017 282.32067871 C 265.42962646 282.28259277 272.80630493 282.30227661 280.04653931 282.30676270 C 286.96542358 282.28417969 293.65045166 282.27398682 299.92379761 282.31149292 C 305.82180786 282.31475830 311.25311279 282.17135620 316.31576538 282.31649780 C 320.88452148 282.34854126 325.05413818 282.32803345 328.74493408 282.23364258 C 331.94326782 282.37637329 334.62631226 282.41830444 336.86135864 282.27725220 C 338.69732666 281.80349731 340.16314697 281.40109253 338.45254517 296.97094727" stroke-width="2.00000000" fill="rgb(203, 123, 73)" opacity="1.0" stroke="rgb(19, 6, 1)" stroke-opacity="0.89827317" stroke-linecap="round" stroke-linejoin="round"/>
    <path d="M 250.50239563 256.50537109 C 248.26490784 257.32653809 246.06552124 258.21987915 243.93708801 258.98934937 C 241.72882080 259.59817505 239.52043152 260.14068604 237.38151550 260.44342041 C 235.21450806 260.65274048 232.99085999 260.58944702 230.82519531 260.58221436 C 228.83226013 260.66641235 226.86599731 260.55999756 224.88973999 260.31527710 C 223.11560059 259.78652954 221.33190918 259.29525757 219.67503357 258.78079224 C 218.13255310 258.17364502 216.82319641 257.35400391 215.89164734 256.27377319 C 215.40859985 254.94895935 215.07620239 253.65159607 214.73352051 252.39976501 C 214.82292175 251.23040771 215.08502197 250.26971436 215.60859680 249.61119080 C 216.23625183 249.47306824 217.00595093 249.54313660 218.01243591 249.28471375 C 219.07421875 248.24708557 220.32377625 247.00054932 222.15866089 245.85339355 C 224.64620972 244.93821716 227.61297607 244.47917175 230.82333374 244.61819458 C 233.99877930 244.76829529 236.92358398 245.07232666 239.54214478 245.58856201 C 241.52624512 246.27084351 242.74243164 247.01138306 242.91630554 247.77195740 C 241.79698181 248.50006104 239.70176697 249.22894287 237.03753662 249.64674377 C 233.99873352 249.78742981 230.62080383 249.83772278 227.18240356 249.74649048 C 224.04652405 249.43640137 221.36264038 248.76837158 219.29026794 248.18136597 C 218.06263733 248.47665405 217.72451782 249.08358765 218.50527954 249.68974304 C 220.49273682 250.29394531 223.40029907 251.00833130 227.16627502 251.69053650 C 231.57492065 252.08703613 236.50665283 251.81517029 241.79125977 250.70700073 C 247.29804993 249.10520935 253.07180786 247.58061218 250.50239563 256.50537109" stroke-width="2.00000000" fill="rgb(246, 210, 16)" opacity="1.0" stroke="rgb(38, 13, 14)" stroke-opacity="1.0" stroke-linecap="round" stroke-linejoin="round"/>
    <path d="M 273.27069092 250.38346863 C 274.50039673 250.20260620 275.59616089 250.04582214 276.76022339 249.69134521 C 277.88027954 249.25219727 279.03311157 248.97378540 280.30383301 249.06373596 C 281.63531494 249.23078918 282.97247314 249.41900635 284.35644531 249.51417542 C 285.81134033 249.43644714 287.28811646 249.32585144 288.81045532 249.15531921 C 290.32055664 249.24168396 291.83804321 249.39128113 293.32675171 249.48872375 C 294.77926636 249.76129150 296.16406250 250.12010193 297.40884399 250.60217285 C 298.47521973 251.33778381 299.64355469 251.83265686 300.73455811 252.34181213 C 301.72119141 253.17253113 302.50885010 254.02972412 303.12243652 254.89677429 C 303.13623047 255.85667419 302.88403320 256.98825073 302.41079712 258.04437256 C 301.65960693 258.86795044 300.63735962 259.45333862 299.48611450 259.94711304 C 298.22079468 260.41534424 296.76864624 260.77731323 295.24615479 261.03314209 C 293.88424683 261.43984985 292.49743652 261.84307861 291.10690308 262.20007324 C 289.79095459 262.35052490 288.53717041 262.29043579 287.23101807 262.30419922 C 285.94842529 262.44561768 284.61813354 262.46078491 283.23870850 262.42208862 C 281.86059570 262.14776611 280.39373779 261.84109497 278.87658691 261.60440063 C 277.38244629 261.48675537 276.04037476 261.34378052 274.75515747 261.04550171 C 273.52191162 260.55206299 272.36514282 260.04940796 271.22885132 259.59490967 C 270.13079834 259.32641602 269.14773560 258.91912842 268.42196655 258.26922607 C 267.94223022 257.45306396 267.53393555 256.50503540 267.33175659 255.48033142 C 267.08169556 254.42605591 266.85531616 253.58560181 273.27069092 250.38346863" stroke-width="2.00000000" fill="rgb(212, 184, 23)" opacity="1.0" stroke="rgb(31, 12, 12)" stroke-opacity="1.0" stroke-linecap="round" stroke-linejoin="round"/>
    <path d="M 102.18157959 246.89878845 C 103.26302338 247.29229736 104.23529816 247.60786438 105.13098145 247.99807739 C 105.76325226 248.60246277 106.32631683 249.34530640 106.98352051 249.94363403 C 107.66239929 250.43132019 108.21247101 250.92282104 108.52819824 251.51318359 C 108.75707245 252.13558960 108.79512787 252.75444031 108.58836365 253.19577026 C 108.06433868 253.37026978 107.33428192 253.48760986 106.39276886 253.87266541 C 105.39536285 254.59107971 104.17861176 255.26075745 102.87602234 255.91125488 C 101.37214661 256.54339600 99.73516083 257.05133057 98.06694794 257.61996460 C 96.31668091 258.01321411 94.47957611 258.38247681 92.66160583 258.65408325 C 90.77240753 258.73117065 88.87685394 258.83544922 86.99018860 258.86633301 C 85.20360565 258.71170044 83.54570007 258.46987915 81.92882538 258.38330078 C 80.38903046 258.06243896 78.93318176 257.60284424 77.71183014 257.12496948 C 76.59275055 256.62088013 75.64360809 256.08026123 74.85925293 255.38960266 C 74.31061554 254.59420776 73.95088959 253.80612183 73.75898743 253.05627441 C 73.75790405 252.41160583 74.02562714 251.79235840 74.28322601 251.16468811 C 74.38300323 250.44065857 74.51488495 249.71842957 74.81220245 249.16535950 C 75.40943146 248.78128052 76.20611572 248.39878845 77.08317566 247.92350769 C 78.06027222 247.48449707 79.24740601 247.16018677 80.54396820 246.89451599 C 81.95011902 246.62452698 83.40326691 246.40875244 85.08375549 246.26585388 C 86.75601959 246.07502747 88.47408295 245.91072083 90.26259613 245.81207275 C 92.12989044 245.73771667 93.92630005 245.64614868 102.18157959 246.89878845" stroke-width="1.93069768" fill="rgb(11, 133, 169)" opacity="1.0" stroke="rgb(11, 9, 12)" stroke-opacity="0.9609204" stroke-linecap="round" stroke-linejoin="round"/>
    <path d="M 49.50680161 262.96328735 C 51.16477585 262.79254150 52.77120972 262.64694214 54.34902573 262.52310181 C 55.85874939 262.37835693 57.25584412 262.07330322 58.55853653 261.63732910 C 59.74266815 261.27502441 60.80153275 260.91836548 61.78699112 260.44311523 C 62.53565598 259.94952393 63.05955887 259.58822632 63.43541336 259.39959717 C 63.68502808 259.48110962 63.83085632 259.82354736 63.76640320 260.42120361 C 63.59980392 261.20553589 63.35022736 262.15707397 63.01534271 263.24261475 C 62.47105408 264.42391968 61.95584106 265.66705322 61.31706619 266.91131592 C 60.37358856 267.93530273 59.27425385 268.85937500 58.06288910 269.77352905 C 56.79635239 270.52307129 55.43648911 271.08850098 54.00493240 271.52493286 C 52.41337585 271.74075317 50.79977798 271.94592285 49.21824265 272.21557617 C 47.61970139 272.22915649 45.98048782 272.13516235 44.39175034 271.91677856 C 42.82245255 271.64376831 41.36252213 271.28350830 39.92107010 270.69573975 C 38.61135483 269.96731567 37.42066574 269.11819458 36.37350845 268.18798828 C 35.51166153 267.10842896 34.81872177 266.00738525 34.23600388 264.95822144 C 33.67382431 263.99761963 33.34142303 263.04699707 33.08594513 262.19201660 C 32.89035034 261.46817017 32.69664764 260.92514038 32.57019424 260.52062988 C 32.67203140 260.31115723 32.93196487 260.28097534 33.38288116 260.33297729 C 33.93997192 260.47689819 34.62192535 260.72793579 35.37366486 261.06591797 C 36.24903870 261.31723022 37.22636414 261.52127075 38.27093887 261.73251343 C 39.37314606 261.98413086 40.45246506 262.35113525 49.50680161 262.96328735" stroke-width="1.99353933" fill="rgb(213, 26, 19)" opacity="1.0" stroke="rgb(42, 15, 7)" stroke-opacity="0.99384904" stroke-linecap="round" stroke-linejoin="round"/>
    <path d="M 437.05551147 131.40147400 C 435.48007202 131.29020691 433.91497803 131.27951050 432.59649658 131.34629822 C 431.60031128 131.19033813 430.90338135 130.67744446 430.59649658 129.67703247 C 430.68273926 128.31483459 430.85134888 126.62840271 430.74484253 124.62510681 C 430.49618530 122.44537354 430.38348389 120.04829407 430.46835327 117.63310242 C 430.61517334 115.32709503 430.61862183 113.18821716 430.56225586 111.25201416 C 430.34716797 109.78826141 429.55529785 108.90975952 428.08923340 108.45496368 C 425.79589844 108.39682007 422.69882202 108.43595123 418.96499634 108.42988586 C 414.60949707 108.45068359 409.72644043 108.39283752 404.47003174 108.40794373 C 398.85928345 108.39562225 393.05474854 108.38257599 387.21792603 108.42182922 C 381.46697998 108.49349213 375.87304688 108.35387421 370.70849609 108.30201721 C 366.08526611 108.45769501 362.37231445 108.59176636 359.56106567 108.13330841 C 358.02709961 107.09393311 357.70034790 105.79607391 358.85720825 104.83355713 C 361.41540527 104.71604919 365.48989868 104.97315216 371.15228271 105.19874573 C 378.38461304 105.38794708 387.18731689 105.31922913 397.43679810 105.17793274 C 408.88125610 105.38629913 421.33627319 105.50506592 434.64035034 105.34796906 C 448.44738770 105.15892029 462.30456543 105.23427582 475.68896484 105.36279297 C 487.98956299 105.28651428 498.28414917 105.13275146 505.29544067 105.43798065 C 507.70339966 106.68684387 505.23248291 107.94923401 498.23266602 108.40834045 C 487.55899048 108.42564392 474.23815918 108.38629913 459.25833130 108.47129059 C 443.56405640 107.75497437 427.72320557 106.09754181 437.05551147 131.40147400" stroke-width="2.00000000" fill="rgb(41, 24, 18)" opacity="1.0" stroke="rgb(255, 227, 29)" stroke-opacity="0.4227327" stroke-linecap="round" stroke-linejoin="round"/>
    <path d="M 57.96531677 120.96775818 C 58.50443649 121.21832275 58.84513474 121.48841858 59.00127029 121.83307648 C 59.03098679 122.07882690 59.05395889 122.05655670 59.15958023 121.88452148 C 59.24423981 121.63153076 59.16366577 121.50779724 58.83843231 121.59113312 C 58.37720490 121.51245117 58.05569458 121.19023132 57.93767929 120.74306488 C 57.94171906 120.18881226 57.85961914 119.58539581 57.68599701 119.08638763 C 57.61029053 118.70828247 57.70769882 118.35511780 58.09337997 117.94286346 C 58.60535049 117.55141449 58.94145966 117.28454590 59.16381073 117.05528259 C 59.44874573 117.07540131 59.82858658 117.26473999 60.11394119 117.78528595 C 60.10673141 118.41471863 60.05471802 119.00096130 60.13750458 119.55522156 C 60.36992645 120.04419708 60.58451080 120.52323914 57.96531677 120.96775818" stroke-width="1.55932391" fill="rgb(231, 234, 222)" opacity="1.0" stroke="rgb(0, 3, 7)" stroke-opacity="0.68383884" stroke-linecap="round" stroke-linejoin="round"/>
    <path d="M 182.14268494 106.51981354 C 181.23594666 102.83069611 181.04342651 99.90419006 182.13627625 98.56966400 C 186.01252747 99.61736298 192.78594971 100.08641815 202.07922363 99.93006897 C 213.46018982 99.95085907 226.50404358 99.96578217 240.83468628 99.99692535 C 255.97592163 99.99305725 271.44696045 100.04030609 286.75344849 100.18884277 C 301.44134521 100.06754303 315.09533691 99.94100952 327.26705933 99.99787903 C 337.45050049 100.04801941 344.90692139 99.56167603 349.25424194 99.12509918 C 350.51348877 101.08366394 350.70932007 104.07876587 350.15124512 106.40446472 C 347.56195068 106.60317230 343.23327637 106.31003571 337.47705078 106.26065826 C 330.71487427 107.41117859 323.04235840 107.95755768 314.68777466 107.65825653 C 306.03674316 107.62622833 297.25875854 107.63835144 288.59497070 107.65501404 C 280.34884644 107.64165497 272.96337891 107.70246124 266.75064087 107.63595581 C 261.93289185 107.64791107 258.62698364 108.37171936 256.94305420 110.31020355 C 256.81570435 113.51451874 257.50332642 117.61646271 258.38201904 122.26411438 C 258.69824219 127.13385010 259.15490723 131.65773010 260.05004883 135.74140930 C 260.78698730 139.24691772 261.40301514 141.79141235 261.79266357 143.35348511 C 261.88104248 143.92636108 261.71170044 143.33302307 261.30923462 141.57969666 C 260.65951538 138.84594727 259.94671631 135.36474609 259.09408569 131.22595215 C 257.73529053 126.78950500 256.67120361 122.27982330 256.36221313 117.83744049 C 256.68368530 113.65572357 257.23538208 110.30598450 257.62686157 108.30731201 C 257.92333984 108.00519562 258.10717773 109.26544189 182.14268494 106.51981354" stroke-width="0.00000000" fill="rgb(39, 113, 74)" opacity="1.0" stroke="rgb(170, 0, 101)" stroke-opacity="0.40445063" stroke-linecap="round" stroke-linejoin="round"/>
  </g>
</svg>
