<?xml version="1.0" ?>
<svg xmlns="http://www.w3.org/2000/svg" version="1.1" width="512" height="512" viewBox="0 0 512 512">
  <defs/>
  <g>
    <path d="M 449.29278564 304.23080444 C 445.51776123 316.06054688 441.51513672 327.93722534 436.34609985 339.49218750 C 430.71945190 350.65979004 424.50512695 361.52029419 417.24087524 372.02334595 C 409.46820068 382.37203979 400.67715454 391.89892578 391.33383179 401.07763672 C 381.65939331 410.21881104 370.86041260 418.17764282 359.62747192 425.51345825 C 347.42880249 432.70852661 334.96542358 438.74984741 322.20632935 443.86117554 C 308.72717285 448.41256714 294.57562256 451.24575806 281.01541138 453.24893188 C 266.86981201 455.12216187 252.53764343 455.21697998 238.36151123 454.24398804 C 224.32403564 452.65606689 210.48406982 450.13754272 196.73231506 446.31597900 C 183.11848450 441.67562866 170.20907593 436.29922485 157.63032532 429.25894165 C 145.49705505 421.97882080 134.13455200 413.64141846 123.28926086 404.38043213 C 113.09112549 394.42956543 103.34662628 384.11477661 94.58065033 373.13610840 C 86.46872711 361.66180420 79.71401978 349.44766235 73.83986664 336.93218994 C 68.43632507 324.38064575 64.06518555 311.31753540 61.32064819 298.00646973 C 58.57789230 284.91867065 57.52050400 271.57592773 57.32461548 257.81463623 C 57.41207504 244.01887512 58.49161530 230.48052979 60.88611603 217.35551453 C 63.95475006 204.48324585 67.85731506 191.76521301 72.71499634 179.31391907 C 77.90045166 167.35910034 84.26809692 156.19091797 91.13378143 145.23439026 C 98.60775757 134.82843018 106.91186523 125.16429901 115.73645020 115.88672638 C 124.90328217 107.00841522 134.91397095 98.81687164 145.49148560 91.38488007 C 156.57360840 84.32942963 168.23750305 78.11088562 180.67665100 72.92433929 C 193.46287537 67.89712524 206.38807678 64.14990997 220.21630859 61.48789215 C 234.14982605 59.10782242 248.04096985 57.83134460 261.86846924 58.01073456 C 275.77566528 58.72997284 289.80044556 60.88681030 303.97296143 63.55808258 C 317.61541748 67.19047546 330.55267334 72.09999084 343.18701172 78.14868164 C 355.92440796 84.57097626 367.55981445 92.10470581 378.60507202 100.79208374 C 389.55612183 109.55850220 399.20898438 119.52172089 408.27142334 129.89207458 C 416.88671875 140.53039551 424.36224365 151.76556396 430.88095093 163.37008667 C 436.99725342 175.24125671 442.00463867 187.27490234 445.89285278 199.57449341 C 449.65173340 212.41816711 451.94812012 224.96591187 453.64605713 238.02551270 C 454.55587769 251.69232178 456.44851685 265.73699951 449.29278564 304.23080444" stroke-width="1.35178685" fill="rgb(180, 176, 165)" opacity="1.0" stroke="rgb(196, 197, 196)" stroke-opacity="0.10187375" stroke-linecap="round" stroke-linejoin="round"/>
    <path d="M 421.87045288 163.85388184 C 427.99261475 175.28842163 433.22030640 187.11718750 437.36572266 199.27668762 C 441.21841431 211.45188904 443.78100586 223.83633423 445.21585083 236.35070801 C 446.37463379 248.86154175 446.29971313 261.46932983 445.84197998 274.00701904 C 444.79641724 286.50198364 442.71081543 298.80130005 439.34710693 310.85302734 C 435.69689941 322.98873901 430.86547852 334.72958374 425.08306885 346.20260620 C 419.00045776 357.54092407 411.71697998 368.20236206 403.62145996 378.47192383 C 395.14962769 388.46926880 385.62109375 397.56625366 375.30096436 405.89590454 C 364.83416748 414.09652710 353.65286255 421.21206665 341.68115234 427.20449829 C 329.66708374 433.21105957 317.21420288 437.99990845 304.07971191 441.35293579 C 290.91363525 444.65557861 277.52304077 446.86798096 263.84307861 447.56384277 C 250.17828369 447.84622192 236.59912109 446.89260864 223.00051880 444.69427490 C 209.43714905 442.14968872 196.38658142 438.29922485 183.63006592 433.29040527 C 171.11373901 427.91900635 159.14164734 421.56875610 147.84622192 414.31393433 C 136.73890686 406.82958984 126.63681030 398.38427734 117.52872467 388.80630493 C 108.46009827 379.25775146 100.48282623 368.80645752 93.38848114 357.82672119 C 86.60636139 346.74249268 81.12252808 335.12338257 76.44350433 323.12973022 C 71.94980621 311.33187866 68.76345062 299.13858032 66.77188110 286.82983398 C 64.98648071 274.53054810 64.41153717 262.15951538 64.77525330 249.73634338 C 65.26974487 237.32128906 66.82348633 225.07769775 69.63117981 212.88487244 C 72.84717560 200.64944458 77.11441040 188.65209961 82.22775269 176.90293884 C 87.55289459 165.19245911 94.02722931 154.13505554 101.71425629 143.67640686 C 109.80015564 133.34806824 118.71781921 123.66697693 128.49456787 114.70214081 C 138.44256592 105.89912415 149.18302917 98.13178253 160.64768982 91.35971069 C 172.37141418 84.96409607 184.52210999 79.66596222 197.08042908 75.25078583 C 209.64822388 71.44966125 222.57177734 68.81057739 235.60821533 67.37532043 C 248.77847290 66.44346619 261.87124634 66.21363831 275.04690552 67.22269440 C 288.11282349 68.74289703 300.94665527 71.28089142 313.57974243 75.14176178 C 326.08877563 79.46790314 338.26965332 84.71907043 349.93957520 91.22330475 C 361.63235474 98.09886169 372.70285034 106.08261871 383.17840576 115.50008392 C 393.50613403 125.68460846 404.63973999 135.46208191 421.87045288 163.85388184" stroke-width="0.00000000" fill="rgb(231, 241, 254)" opacity="1.0" stroke="rgb(199, 214, 253)" stroke-opacity="0.5226031" stroke-linecap="round" stroke-linejoin="round"/>
    <path d="M 204.00646973 208.53221130 C 200.78028870 209.47122192 197.53987122 210.36538696 194.25831604 211.22024536 C 190.98300171 211.97479248 187.65072632 212.58836365 184.28605652 213.06947327 C 180.90364075 213.39144897 177.46452332 213.58439636 174.03254700 213.63798523 C 170.58905029 213.56268311 167.10649109 213.32723999 163.64637756 212.95117188 C 160.21618652 212.43112183 156.76420593 211.76536560 153.37043762 210.96302795 C 150.03942871 210.01924133 146.75115967 208.88734436 143.55593872 207.59858704 C 140.47584534 206.11705017 137.50512695 204.45146179 134.68093872 202.65409851 C 132.02601624 200.64639282 129.56121826 198.46080017 127.32169342 196.12484741 C 125.31859589 193.64170837 123.56076813 191.00042725 122.08644104 188.27081299 C 120.87727356 185.43168640 120.00098419 182.52476501 119.43747711 179.56399536 C 119.20032501 176.53965759 119.31091309 173.55584717 119.73218536 170.53894043 C 120.47071075 167.60336304 121.56282806 164.70085144 122.92899323 161.92495728 C 124.55364990 159.19665527 126.44937134 156.63540649 128.61454773 154.19606018 C 130.97395325 151.89762878 133.52737427 149.76733398 136.24914551 147.79240417 C 139.11982727 145.93780518 142.10389709 144.29840088 145.18788147 142.76040649 C 148.34519958 141.40789795 151.58283997 140.21011353 154.86824036 139.16059875 C 158.20945740 138.30522156 161.58016968 137.60545349 164.99684143 137.05366516 C 168.42500305 136.69105530 171.85350037 136.48387146 175.31297302 136.43968201 C 178.76480103 136.54489136 182.21238708 136.82675171 185.65675354 137.23233032 C 189.05815125 137.80972290 192.47186279 138.51397705 195.81764221 139.35408020 C 199.12547302 140.33525085 202.40106201 141.47535706 205.59465027 142.75476074 C 208.69294739 144.16889954 211.71618652 145.75010681 214.61663818 147.46835327 C 217.34947205 149.34451294 219.92210388 151.38728333 222.32283020 153.57598877 C 224.49972534 155.91520691 226.46987915 158.35865784 228.20919800 160.94689941 C 229.65600586 163.62326050 230.84580994 166.38662720 231.72218323 169.23413086 C 232.27912903 172.10832214 232.53140259 175.00375366 232.44219971 177.89311218 C 232.03979492 180.72590637 231.30567932 183.51968384 230.28500366 186.19355774 C 228.96333313 188.75979614 227.37626648 191.22193909 225.57522583 193.52868652 C 223.56401062 195.71046448 221.41395569 197.80865479 219.19119263 199.83454895 C 216.90954590 201.80256653 214.63285828 203.79942322 204.00646973 208.53221130" stroke-width="2.00000000" fill="rgb(251, 254, 253)" opacity="1.0" stroke="rgb(247, 253, 253)" stroke-opacity="1.0" stroke-linecap="round" stroke-linejoin="round"/>
  </g>
</svg>
