<?xml version="1.0" ?>
<svg xmlns="http://www.w3.org/2000/svg" version="1.1" width="512" height="512" viewBox="0 0 512 512">
  <defs/>
  <g>
    <path d="M 643.89898682 483.56323242 C 619.67163086 488.83474731 595.47399902 494.12808228 571.24298096 499.42694092 C 546.93548584 504.67788696 522.58593750 509.96505737 498.11926270 515.20404053 C 473.50988770 520.35754395 448.73178101 525.48986816 423.73257446 530.52435303 C 398.56488037 535.40289307 373.15277100 540.10571289 347.56146240 544.54248047 C 321.83065796 548.68188477 295.98794556 552.38000488 270.11489868 555.57214355 C 244.23266602 558.20092773 218.50741577 560.12591553 193.03793335 561.28448486 C 167.94635010 561.46112061 143.41557312 560.55743408 119.55669403 558.39837646 C 96.60661316 554.82000732 74.72430420 549.69500732 54.07590485 542.83770752 C 34.90589905 534.06573486 17.40670586 523.21875000 1.76986873 510.14953613 C -11.76642704 494.64221191 -23.37046242 476.98077393 -33.19335556 457.34292603 C -41.39381409 435.93786621 -48.05959702 413.01205444 -53.38599777 388.77325439 C -57.48210144 363.46646118 -60.37302399 337.27444458 -62.21756744 310.43643188 C -63.09743118 283.19085693 -62.97973251 255.74653625 -61.92644119 228.29753113 C -59.98941803 201.03309631 -57.11682510 174.18153381 -53.23350525 147.90190125 C -48.32879639 122.32042694 -42.38139725 97.67434692 -35.29071426 74.18856049 C -26.92557526 51.94315338 -17.25688362 31.11322975 -6.09233046 11.91605568 C 6.68715143 -5.55015278 21.12053299 -21.22222710 37.12291718 -35.11556244 C 54.54283905 -47.37146378 73.29248047 -57.99955368 93.29408264 -67.07768250 C 114.40153503 -74.63949585 136.49678040 -80.77899170 159.47749329 -85.51994324 C 183.18299866 -88.88869476 207.49073792 -90.96675110 232.22297668 -91.79020691 C 257.27850342 -91.33533478 282.47888184 -89.66466522 307.67263794 -86.77988434 C 332.65353394 -82.67357635 357.30035400 -77.32696533 381.43356323 -70.76127625 C 404.85842896 -62.92401505 427.44540405 -53.80997849 449.00061035 -43.37300491 C 469.32775879 -31.49346924 488.30554199 -18.17084885 505.74288940 -3.36589289 C 521.49902344 13.07425022 535.64276123 30.97843552 548.27386475 50.20406723 C 559.53674316 70.60176849 569.58807373 91.98378754 578.57574463 114.23303986 C 586.61285400 137.18330383 593.86254883 160.72137451 600.45166016 184.75068665 C 606.45935059 209.16612244 612.05541992 233.85459900 617.29919434 258.78964233 C 622.29449463 283.87344360 627.15643311 309.05584717 631.91809082 334.27752686 C 636.63873291 359.52575684 641.38354492 384.74472046 643.89898682 483.56323242" stroke-width="2.00000000" fill="rgb(135, 208, 222)" opacity="1.0" stroke="rgb(84, 197, 219)" stroke-opacity="0.7084631" stroke-linecap="round" stroke-linejoin="round"/>
    <path d="M 466.34963989 524.58380127 C 450.11456299 525.16687012 433.79473877 525.72338867 417.32553101 526.34423828 C 400.64370728 527.02325439 383.64663696 527.74267578 366.28491211 528.59204102 C 348.56661987 529.53656006 330.40982056 530.55133057 311.84265137 531.59478760 C 292.88198853 532.73083496 273.62124634 533.90997314 254.14718628 535.06158447 C 234.44763184 536.13885498 214.66505432 537.11627197 194.98629761 537.95703125 C 175.57693481 538.57843018 156.62283325 538.97021484 138.31552124 539.01269531 C 120.86200714 538.61932373 104.53139496 537.72155762 89.56355286 536.30187988 C 76.32188416 534.27740479 65.04354095 531.50958252 56.08607864 527.95324707 C 49.82923126 523.51000977 46.53964996 518.01324463 46.50295639 511.39804077 C 50.14624786 503.70349121 55.11133957 493.97552490 60.53322983 482.27786255 C 66.60340881 468.98687744 73.19601440 454.28701782 80.28375244 438.50341797 C 87.61208344 421.70526123 95.66529846 404.44625854 104.24696350 386.75918579 C 112.19232178 368.38449097 119.99355316 349.61685181 128.25009155 330.87774658 C 136.36099243 312.07339478 144.23889160 293.19647217 152.29287720 274.54870605 C 160.27255249 256.22143555 167.56423950 238.19117737 175.33149719 221.08793640 C 181.97499084 204.58302307 188.82739258 189.58671570 195.06216431 175.61433411 C 195.70724487 159.88775635 195.30471802 143.26194763 198.55796814 126.64304352 C 208.89447021 110.54553986 220.39443970 94.12619019 230.78437805 78.00357056 C 240.02455139 63.57282639 247.85301208 51.76497269 253.39842224 43.20421219 C 255.84982300 38.69091034 257.17532349 39.80855942 260.44042969 45.74548721 C 266.32751465 55.94510269 274.32904053 69.40836334 284.34799194 85.37167358 C 295.40530396 103.45491791 307.09503174 122.28357697 318.67456055 139.21107483 C 323.23690796 153.79379272 321.00195312 167.68051147 318.02148438 181.00422668 C 320.63433838 193.75112915 326.47116089 206.86349487 332.45297241 221.25802612 C 338.70678711 236.67384338 345.67913818 252.57247925 353.01986694 268.76599121 C 360.23068237 285.24826050 367.74459839 301.70129395 374.92236328 318.31851196 C 382.33355713 334.77789307 389.49685669 351.16952515 396.51498413 367.42837524 C 403.40921021 383.49545288 410.11114502 399.38821411 417.26672363 414.93276978 C 423.97903442 430.57473755 430.88146973 446.00430298 437.64627075 461.44342041 C 444.52691650 476.81106567 451.33642578 492.19281006 466.34963989 524.58380127" stroke-width="0.18654366" fill="rgb(69, 102, 47)" opacity="1.0" stroke="rgb(147, 69, 128)" stroke-opacity="0.7242362" stroke-linecap="round" stroke-linejoin="round"/>
    <path d="M 221.57897949 422.16506958 C 217.25054932 421.81607056 212.94670105 421.46414185 208.67584229 421.10720825 C 204.41937256 420.73608398 200.10755920 420.31036377 195.76409912 419.80471802 C 191.31710815 419.20587158 186.85015869 418.57009888 182.36358643 417.85287476 C 177.77973938 416.95132446 172.99504089 415.89038086 168.05346680 414.79278564 C 163.13673401 413.69754028 158.25598145 412.62121582 153.42272949 411.58834839 C 148.76312256 410.79522705 144.54693604 410.42123413 140.80757141 410.37326050 C 137.76622009 410.52307129 135.33479309 409.35192871 132.85752869 407.07577515 C 130.01214600 404.37561035 126.96279144 401.32391357 123.87447357 398.27404785 C 120.83379364 395.49874878 117.79106140 393.47811890 114.90798187 392.17199707 C 112.37870026 392.02337646 110.27009583 392.53948975 108.76751709 393.57739258 C 107.60373688 393.76522827 107.18087006 392.99035645 107.85314178 391.35775757 C 108.73641968 388.74163818 110.85842896 385.74841309 113.94067383 382.66482544 C 117.45526886 378.86291504 121.06842041 374.33175659 125.15219116 369.60324097 C 129.41101074 364.53558350 133.81689453 359.32931519 138.42864990 354.14559937 C 143.00178528 348.96304321 147.33917236 343.90945435 151.57865906 339.36093140 C 155.24832153 335.23406982 158.20890808 331.93292236 160.52101135 329.87963867 C 161.03674316 327.89236450 160.32925415 326.06488037 159.95913696 324.07049561 C 161.32948303 321.49035645 163.48762512 318.37930298 165.64506531 314.78231812 C 167.89453125 311.18887329 169.90025330 308.00003052 171.60987854 305.66787720 C 172.53892517 303.93041992 173.54501343 304.22308350 174.86322021 305.89553833 C 176.58264160 307.69808960 179.01345825 309.35705566 182.12989807 309.89358521 C 183.42343140 312.22033691 184.62928772 315.25228882 186.07514954 318.78781128 C 187.29614258 322.56732178 188.79763794 326.45559692 190.54452515 330.44970703 C 192.13284302 334.61770630 193.76223755 338.86575317 195.52336121 343.16629028 C 197.19444275 347.50375366 198.71995544 351.78524780 200.36293030 356.12619019 C 202.29197693 360.27536011 203.87629700 364.32254028 205.70639038 368.36911011 C 207.53147888 372.36968994 209.42214966 376.41763306 211.33456421 380.21243286 C 213.56210327 383.92242432 215.65954590 387.82287598 217.55935669 391.59289551 C 219.85932922 395.20700073 221.95439148 398.88983154 224.27394104 402.36138916 C 226.75093079 405.66946411 229.34217834 409.10171509 221.57897949 422.16506958" stroke-width="2.00000000" fill="rgb(117, 174, 62)" opacity="1.0" stroke="rgb(0, 0, 0)" stroke-opacity="1.0" stroke-linecap="round" stroke-linejoin="round"/>
    <path d="M 406.63952637 401.32125854 C 401.73443604 399.67056274 397.00460815 397.49032593 392.50476074 394.97348022 C 387.84982300 392.67883301 383.58511353 389.96463013 379.68991089 386.65039062 C 375.83294678 383.33044434 372.35623169 379.63970947 369.05114746 375.92941284 C 365.75848389 372.43383789 362.61154175 369.18847656 359.74081421 366.44985962 C 357.41101074 363.81927490 355.51214600 361.84567261 353.97604370 360.84741211 C 352.33923340 361.13714600 350.50729370 362.24005127 348.50387573 363.84869385 C 346.26022339 365.73089600 343.69866943 367.55743408 340.80059814 369.09539795 C 337.67501831 370.24813843 334.40567017 371.13687134 331.04760742 371.72378540 C 327.65847778 371.99517822 324.39324951 371.99127197 321.37094116 371.66311646 C 318.56491089 370.91394043 316.01400757 369.81253052 313.80523682 368.43655396 C 311.95773315 366.78134155 310.50909424 364.76556396 309.51907349 362.45141602 C 308.91171265 359.81475830 308.72363281 356.91751099 309.00643921 353.80770874 C 309.67813110 350.47640991 310.62438965 346.88595581 311.79315186 343.01013184 C 313.21298218 338.88897705 314.78466797 334.69778442 316.35098267 330.45462036 C 318.60934448 326.26663208 321.10800171 322.06719971 323.47439575 317.63360596 C 326.00570679 313.25442505 328.61010742 308.88461304 331.06353760 304.47198486 C 333.47103882 300.11175537 335.87750244 295.92330933 338.21807861 291.91467285 C 340.47866821 288.20364380 342.44668579 284.59716797 344.47637939 281.61303711 C 346.23925781 278.82318115 347.76473999 276.56027222 348.72747803 274.98144531 C 349.46652222 274.28396606 350.08361816 274.36398315 350.53979492 275.07821655 C 350.67678833 276.44589233 351.25558472 278.34271240 352.39163208 280.56463623 C 353.80886841 283.26245117 355.25546265 286.50082397 356.69448853 290.19323730 C 358.60714722 294.18872070 360.49255371 298.18731689 362.50320435 302.65682983 C 364.39437866 307.09292603 366.07192993 311.65798950 368.54916382 316.01770020 C 370.61712646 320.57376099 372.35653687 325.38650513 374.46679688 330.07543945 C 376.58395386 334.89160156 378.70477295 339.53567505 380.71096802 344.36676025 C 382.84085083 349.02523804 384.91818237 353.62362671 386.89190674 358.10598755 C 388.81872559 362.64602661 390.49398804 367.10720825 392.58743286 371.41339111 C 394.53588867 375.70883179 396.14682007 379.94665527 398.14898682 384.11251831 C 399.96578979 388.34942627 401.81588745 392.52691650 406.63952637 401.32125854" stroke-width="2.00000000" fill="rgb(149, 198, 71)" opacity="1.0" stroke="rgb(0, 0, 2)" stroke-opacity="1.0" stroke-linecap="round" stroke-linejoin="round"/>
    <path d="M 267.16622925 293.25155640 C 265.02362061 292.15045166 263.00677490 291.21353149 260.76718140 291.13299561 C 259.00375366 291.93878174 257.15286255 293.41296387 254.94023132 295.09371948 C 252.86907959 297.00817871 251.09504700 299.51876831 249.26609802 302.09777832 C 247.33099365 304.44787598 245.47257996 306.47659302 243.13780212 307.40173340 C 240.09318542 307.21936035 236.63217163 305.89535522 232.80125427 303.56561279 C 228.57054138 301.09188843 224.27996826 298.41693115 220.24833679 295.35437012 C 216.44216919 292.44134521 212.79306030 290.27386475 209.32371521 289.23245239 C 206.23081970 289.66809082 203.29302979 291.56112671 199.97071838 294.09750366 C 196.01837158 296.39941406 191.78652954 298.62387085 187.62501526 300.66879272 C 183.65223694 302.19396973 180.40586853 303.89840698 178.25090027 306.07019043 C 176.40890503 307.95935059 174.65643311 307.96081543 173.60302734 306.50524902 C 173.90928650 304.86022949 175.46520996 303.07705688 177.21423340 300.18746948 C 179.48521423 296.42269897 182.14070129 292.13677979 185.05186462 287.30993652 C 188.28562927 282.16891479 191.76097107 276.81976318 195.16146851 271.15942383 C 198.73361206 265.48864746 202.21037292 259.65371704 205.53932190 253.80995178 C 208.93270874 248.04495239 212.33396912 242.54896545 215.47506714 237.03512573 C 218.45849609 231.69569397 221.55432129 226.81993103 224.44563293 222.12249756 C 227.02877808 217.68823242 229.45310974 213.67086792 231.44050598 210.00254822 C 233.24858093 206.83843994 234.87503052 204.17773438 235.93540955 202.13195801 C 236.83692932 200.68861389 237.23039246 199.90440369 237.44589233 199.84414673 C 237.95632935 200.93049622 238.78988647 202.94236755 239.95112610 205.73466492 C 241.60974121 208.86911011 243.43496704 212.72084045 245.56817627 216.94255066 C 247.76022339 221.41923523 250.28172302 226.07366943 252.89843750 230.96345520 C 255.56944275 235.88055420 258.24868774 240.77549744 260.86486816 245.81448364 C 263.44189453 250.76393127 266.16528320 255.54409790 268.80615234 260.25045776 C 271.45550537 264.78231812 274.10797119 269.27163696 276.64498901 273.61013794 C 279.02593994 277.92132568 281.52081299 281.97503662 283.88867188 286.04748535 C 286.00588989 290.14022827 288.40213013 293.90957642 290.54147339 297.76513672 C 292.58511353 301.52047729 294.73785400 305.04373169 296.77804565 308.29635620 C 298.95809937 311.24185181 301.01840210 314.41879272 267.16622925 293.25155640" stroke-width="1.22437465" fill="rgb(191, 217, 87)" opacity="1.0" stroke="rgb(226, 236, 153)" stroke-opacity="0.9953137" stroke-linecap="round" stroke-linejoin="round"/>
    <path d="M 333.23910522 410.29315186 C 328.88113403 407.41027832 324.69595337 404.31790161 320.78088379 400.76983643 C 317.20935059 396.77066040 313.93780518 392.68249512 310.55227661 388.97647095 C 306.57653809 386.49761963 302.57473755 384.16180420 299.01974487 381.56866455 C 295.58764648 379.17120361 292.13925171 377.34460449 288.59808350 375.98931885 C 285.06042480 374.90649414 281.38696289 374.08230591 277.60079956 373.62969971 C 273.72351074 373.56930542 269.63885498 373.53829956 265.27230835 373.55740356 C 260.65792847 373.55816650 256.00643921 373.65274048 251.55500793 373.57589722 C 247.25727844 372.87637329 242.87556458 372.07617188 238.52346802 371.19818115 C 234.24984741 370.21008301 229.94302368 369.32336426 225.72665405 368.53460693 C 221.91809082 367.46350098 218.66448975 365.63690186 215.94540405 363.09197998 C 213.67271423 360.21624756 211.65451050 357.24871826 209.75628662 354.30633545 C 207.99114990 351.36248779 206.50611877 348.61267090 205.45771790 345.88034058 C 204.69866943 343.21875000 204.22364807 340.68386841 204.22143555 338.20501709 C 204.78048706 335.77175903 205.70442200 333.35629272 206.86627197 330.92736816 C 208.18080139 328.49380493 209.77035522 326.19097900 211.89245605 324.15185547 C 214.51907349 322.36865234 217.54855347 320.65332031 220.89186096 318.94335938 C 224.46797180 317.31173706 228.37092590 315.67587280 232.65248108 314.12567139 C 237.13650513 312.65069580 241.64471436 311.43362427 245.72860718 310.51196289 C 248.84533691 308.90655518 251.01084900 306.12988281 252.88652039 302.95172119 C 255.49412537 300.24270630 259.14727783 298.60012817 263.37094116 297.70953369 C 267.16128540 297.48370361 270.71176147 298.97100830 274.24920654 301.50183105 C 278.04983521 304.26306152 282.29537964 306.90399170 286.95550537 309.31311035 C 291.49969482 311.63925171 295.93899536 313.62301636 300.28057861 315.26065063 C 303.88473511 317.06634521 306.17816162 320.05920410 308.10504150 323.60662842 C 310.09902954 327.30303955 312.88983154 330.53283691 316.23822021 333.30944824 C 318.81280518 336.56536865 321.08584595 339.97976685 323.41137695 343.25741577 C 325.51208496 346.61456299 328.02764893 350.01354980 330.91357422 353.14733887 C 333.66979980 356.66455078 336.61611938 360.19207764 339.79861450 363.63757324 C 343.34436035 367.01022339 346.74755859 370.62121582 350.12191772 374.21197510 C 353.48150635 377.69256592 356.74798584 381.03359985 333.23910522 410.29315186" stroke-width="0.71585780" fill="rgb(75, 111, 52)" opacity="1.0" stroke="rgb(42, 55, 28)" stroke-opacity="1.0" stroke-linecap="round" stroke-linejoin="round"/>
    <path d="M 270.17242432 403.30737305 C 264.03448486 408.99093628 257.98025513 414.67843628 251.82351685 420.01309204 C 245.69744873 425.08816528 239.90376282 429.88726807 234.89108276 434.47186279 C 230.75105286 438.63476562 227.21305847 441.59991455 224.20030212 442.66845703 C 221.54989624 441.25564575 218.52865601 438.95513916 214.07032776 437.65353394 C 207.68342590 438.47229004 199.95220947 438.84869385 191.67187500 438.36376953 C 183.46620178 437.43212891 175.65686035 435.77615356 168.29530334 433.72998047 C 161.46121216 431.54510498 155.38865662 429.48818970 150.25773621 427.35601807 C 146.23043823 424.75277710 143.44802856 421.84329224 141.71398926 418.65798950 C 140.92221069 415.61605835 141.24288940 413.01654053 142.98939514 410.86328125 C 146.47691345 408.87033081 150.40196228 406.07116699 154.34297180 402.60577393 C 158.36320496 399.03146362 162.27203369 395.47970581 165.77091980 392.08624268 C 168.73095703 389.27703857 171.38720703 387.78509521 174.08453369 388.00613403 C 177.06669617 389.86538696 180.09654236 393.03451538 183.22770691 397.14816284 C 186.69476318 401.47082520 190.53169250 405.47418213 194.24479675 409.15676880 C 197.62666321 412.24148560 200.85533142 414.17398071 203.97689819 414.43356323 C 206.77702332 412.62393188 209.74304199 409.91381836 213.12164307 407.15344238 C 216.73907471 404.69168091 221.13540649 404.10946655 226.46331787 404.79901123 C 232.64225769 403.61834717 239.69250488 400.98168945 247.46665955 398.19192505 C 255.77394104 396.21310425 264.22045898 393.88165283 272.84667969 390.55981445 C 282.42684937 388.39459229 292.14184570 386.41879272 270.17242432 403.30737305" stroke-width="2.00000000" fill="rgb(69, 102, 46)" opacity="1.0" stroke="rgb(28, 41, 22)" stroke-opacity="1.0" stroke-linecap="round" stroke-linejoin="round"/>
    <path d="M 268.84286499 162.36375427 C 262.28558350 173.57586670 257.29971313 183.58096313 251.59391785 188.33091736 C 246.76287842 186.43174744 242.17549133 179.53063965 237.23129272 172.27575684 C 235.64796448 166.49189758 233.86767578 165.84550476 230.00019836 170.16636658 C 225.39773560 176.91128540 221.34613037 183.86351013 217.07316589 187.26008606 C 213.99174500 185.16540527 211.69459534 179.33071899 209.18473816 172.71298218 C 208.35864258 167.65156555 207.29602051 165.91258240 203.67828369 167.71224976 C 198.12608337 172.02891541 191.09666443 177.09262085 182.49142456 180.24761963 C 174.26608276 183.14494324 166.85287476 183.93443298 162.17074585 183.12837219 C 161.92434692 181.30052185 165.49380493 178.39050293 169.52050781 172.58976746 C 175.10902405 165.89308167 180.24786377 157.67694092 186.25744629 149.82214355 C 192.09796143 142.02375793 196.89300537 133.91307068 202.30500793 126.70053101 C 207.22579956 119.49075317 211.81414795 112.43669891 216.30989075 105.53961182 C 220.84124756 98.94107056 225.06083679 92.37458801 229.35174561 86.09194183 C 233.34719849 79.82067108 237.29843140 73.76654816 241.04270935 67.93380737 C 244.65620422 62.56327438 247.82655334 57.48163605 250.64418030 53.03332901 C 253.03668213 49.11446762 254.87893677 46.32402039 255.91204834 44.61287689 C 256.23098755 44.84617615 256.89065552 46.42826080 258.25253296 48.96705246 C 259.77169800 52.51670074 262.48980713 56.23732376 265.36798096 60.72692871 C 268.16354370 66.01063538 271.65167236 71.38255310 275.02606201 77.19454956 C 278.66680908 83.08400726 282.48028564 89.11169434 286.17190552 95.46730804 C 290.34146118 101.73686218 294.41204834 108.29988861 298.44879150 115.17930603 C 302.76712036 122.17571259 307.33355713 129.23744202 312.19723511 136.30255127 C 317.12448120 143.45156860 322.31140137 150.41952515 327.00933838 157.53642273 C 331.67904663 164.20483398 336.37567139 170.17544556 340.45855713 175.55796814 C 344.71322632 179.32153320 347.57327271 182.20613098 348.61398315 184.22480774 C 347.85540771 185.73832703 345.00225830 185.96804810 341.18215942 184.70117188 C 337.02551270 184.33561707 333.30734253 181.52378845 328.70852661 178.21649170 C 321.30297852 178.24211121 313.59381104 178.95114136 307.65911865 178.72628784 C 305.44909668 173.30778503 303.11785889 173.22520447 300.70330811 180.64082336 C 299.31707764 190.84120178 298.82626343 202.18341064 268.84286499 162.36375427" stroke-width="2.00000000" fill="rgb(249, 248, 249)" opacity="1.0" stroke="rgb(0, 0, 0)" stroke-opacity="1.0" stroke-linecap="round" stroke-linejoin="round"/>
    <path d="M 346.71237183 388.79421997 C 342.75939941 386.99209595 339.12054443 384.61413574 335.73928833 382.36346436 C 332.60110474 380.41430664 329.57296753 379.56210327 326.58523560 379.73315430 C 323.70858765 380.69219971 321.26821899 382.46868896 318.78359985 384.37942505 C 316.65087891 386.20785522 314.49600220 387.33148193 312.01632690 387.23757935 C 309.25662231 385.88558960 306.18780518 383.86184692 302.67654419 381.66796875 C 299.17752075 379.34020996 295.70321655 377.27005005 292.39550781 376.00198364 C 288.95556641 376.28698730 285.94985962 377.65454102 282.98611450 379.39404297 C 280.42819214 380.91427612 278.56134033 382.08917236 277.44869995 382.28485107 C 277.98074341 381.53366089 279.42337036 379.91024780 281.07363892 377.18090820 C 283.35385132 373.83544922 286.32058716 370.01345825 289.45306396 365.71640015 C 292.87649536 361.14611816 296.41592407 356.51763916 299.58447266 351.64605713 C 302.62335205 347.09109497 305.74835205 343.09167480 308.31018066 339.32589722 C 310.50405884 336.36569214 311.99017334 334.17901611 313.07949829 333.43148804 C 314.35620117 334.62319946 316.17645264 337.41488647 318.45718384 341.20245361 C 321.47805786 345.17892456 324.67810059 349.70263672 328.23934937 354.29705811 C 332.11975098 358.62161255 335.38320923 362.96160889 338.41348267 366.55819702 C 340.79580688 369.30062866 343.00753784 370.41592407 345.46139526 369.68646240 C 348.11099243 367.64263916 350.68331909 365.46282959 353.20074463 364.91311646 C 355.79757690 367.56863403 359.01065063 370.81811523 362.37692261 373.85070801 C 364.84530640 375.05661011 366.72790527 374.53695679 346.71237183 388.79421997" stroke-width="2.00000000" fill="rgb(142, 194, 68)" opacity="1.0" stroke="rgb(0, 0, 3)" stroke-opacity="1.0" stroke-linecap="round" stroke-linejoin="round"/>
  </g>
</svg>
