<?xml version="1.0" ?>
<svg xmlns="http://www.w3.org/2000/svg" version="1.1" width="512" height="512" viewBox="0 0 512 512">
  <defs/>
  <g>
    <path d="M 511.54476929 363.82788086 C 491.30709839 371.39978027 471.05062866 379.01541138 450.83905029 386.56188965 C 430.56652832 394.04757690 410.32470703 401.46429443 390.06475830 408.67318726 C 369.81423950 415.61230469 349.55245972 422.25985718 329.35992432 428.48568726 C 309.18615723 434.17822266 289.09045410 439.31072998 269.10693359 443.71798706 C 249.28280640 447.36260986 229.60281372 450.11758423 210.18975830 451.90203857 C 191.05886841 452.60052490 172.24243164 452.21340942 153.83166504 450.53964233 C 135.91104126 447.68481445 118.46858215 443.49929810 101.64202118 437.99111938 C 85.44736481 431.09597778 69.97031403 422.86581421 55.22484207 413.23065186 C 41.31094742 402.27832031 28.25467491 389.98971558 16.05422211 376.42492676 C 4.81472445 361.64920044 -5.47903585 345.74453735 -14.76827049 328.75775146 C -23.06514931 310.90133667 -30.34694672 292.13873291 -36.54865265 272.68737793 C -41.75137711 252.63500977 -45.85404205 232.17004395 -48.89488602 211.42265320 C -50.82601929 190.51989746 -51.65559387 169.67405701 -51.35179520 148.93176270 C -49.85938263 128.57595825 -47.19887924 108.63356018 -43.29109573 89.31916046 C -38.13835144 70.75964355 -31.58479500 53.10026550 -23.71408653 36.46459579 C -14.34658813 20.99578667 -3.50436854 6.77561760 8.90930271 -6.04632330 C 22.89388275 -17.47373962 38.24662399 -27.56685829 54.94754410 -36.46559906 C 72.77404022 -44.14121628 91.72527313 -50.77610397 111.61801910 -56.39019775 C 132.27203369 -61.04893875 153.73565674 -64.84403992 175.76486206 -67.84452820 C 198.25241089 -70.02433777 221.15676880 -71.52214813 244.24264526 -72.30146027 C 267.44952393 -72.40995789 290.61203003 -71.80933380 313.57595825 -70.49741364 C 336.20913696 -68.51197815 358.39837646 -65.78424835 379.97058105 -62.28705978 C 400.88693237 -57.94111633 420.86825562 -52.63810349 439.72137451 -46.34425735 C 457.42562866 -38.98200607 473.75631714 -30.34566879 488.55087280 -20.48640251 C 501.68496704 -9.16871548 513.04071045 3.62113905 522.56231689 17.94896698 C 530.40234375 33.64913559 536.64709473 50.66337204 541.60754395 68.84319305 C 545.36187744 87.94159698 548.06451416 107.92700195 549.96105957 128.60005188 C 551.14147949 149.88977051 551.77893066 171.55599976 552.05352783 193.57722473 C 552.00787354 215.82229614 551.74865723 238.19461060 551.34655762 260.68786621 C 550.87854004 283.21173096 550.39385986 305.77783203 511.54476929 363.82788086" stroke-width="2.00000000" fill="rgb(123, 200, 235)" opacity="1.0" stroke="rgb(63, 185, 232)" stroke-opacity="0.699539" stroke-linecap="round" stroke-linejoin="round"/>
    <path d="M 520.25585938 553.41094971 C 505.35223389 554.50811768 490.42062378 555.65319824 475.49005127 556.73352051 C 460.57556152 557.88684082 445.57012939 558.90716553 430.54248047 560.00885010 C 415.44726562 560.99255371 400.26116943 561.93951416 384.94149780 562.80291748 C 369.50112915 563.60565186 353.91107178 564.32568359 338.19757080 564.93322754 C 322.26736450 565.37957764 306.21527100 565.74420166 289.88549805 565.92730713 C 273.45999146 565.97186279 256.85504150 565.85614014 240.08570862 565.54071045 C 223.25340271 565.04217529 206.28303528 564.31042480 189.36125183 563.33874512 C 172.45135498 562.13861084 155.63557434 560.57281494 138.97637939 558.73028564 C 122.61171722 556.53729248 106.50968170 553.91479492 90.91091919 550.88476562 C 75.83238220 547.33410645 61.43029022 543.34637451 47.86455917 538.67993164 C 35.21305466 533.46899414 23.63969994 527.54455566 13.28087330 520.97137451 C 4.24907684 513.57629395 -3.31963778 505.42788696 -9.37874985 496.53955078 C -13.95433807 487.09674072 -17.04480171 477.15225220 -18.74514580 466.80334473 C -19.00704002 456.26098633 -17.89013481 445.68621826 -15.47435284 435.09646606 C -11.69428444 424.68908691 -6.61659813 414.58306885 -0.25930756 404.89093018 C 7.33484888 395.75338745 16.15055466 387.15045166 26.03857422 379.16589355 C 36.88510513 371.78002930 48.62212372 364.98342896 61.16125488 358.78219604 C 74.39508820 353.22677612 88.27649689 348.23287964 102.71403503 343.81692505 C 117.65293121 339.98797607 132.94902039 336.73828125 148.69432068 333.99468994 C 164.68876648 331.73907471 180.96340942 330.00439453 197.41760254 328.77020264 C 214.02270508 327.96188354 230.68087769 327.63540649 247.45994568 327.69857788 C 264.17330933 328.19467163 280.83920288 329.09506226 297.39120483 330.40597534 C 313.77200317 332.11981201 329.97988892 334.21365356 345.85714722 336.72091675 C 361.51196289 339.62991333 376.76028442 342.91940308 391.67489624 346.65985107 C 406.14154053 350.82537842 420.18896484 355.37335205 433.82116699 360.38916016 C 446.93957520 365.78973389 459.60501099 371.63250732 471.82675171 377.91394043 C 483.55163574 384.55484009 494.86138916 391.62405396 505.70343018 399.11444092 C 516.18450928 406.90237427 526.35540771 415.01794434 536.22979736 423.36318970 C 545.91412354 431.93045044 555.47674561 440.59762573 564.93603516 449.32864380 C 574.34826660 458.08941650 583.78228760 466.85739136 520.25585938 553.41094971" stroke-width="2.00000000" fill="rgb(233, 163, 89)" opacity="1.0" stroke="rgb(216, 143, 52)" stroke-opacity="0.84296346" stroke-linecap="round" stroke-linejoin="round"/>
    <path d="M 596.94653320 325.98272705 C 583.53759766 330.64270020 570.14770508 335.33404541 556.72692871 339.94418335 C 543.25695801 344.59866333 529.74298096 349.15228271 516.12237549 353.61169434 C 502.37698364 357.94351196 488.48880005 362.08181763 474.33984375 366.04745483 C 460.03610229 369.78091431 445.36541748 373.20806885 430.49301147 376.43920898 C 415.23867798 379.39184570 399.63659668 382.04187012 383.72033691 384.43203735 C 367.41531372 386.53918457 350.75073242 388.40393066 333.77005005 390.07125854 C 316.42861938 391.62121582 298.81597900 392.96575928 280.94418335 394.18890381 C 262.83895874 395.38681030 244.60229492 396.52346802 226.29225159 397.73382568 C 207.93281555 399.09771729 189.64671326 400.28475952 171.48509216 400.87762451 C 153.51890564 401.05017090 135.82077026 401.05569458 118.51686096 400.88485718 C 101.75901794 399.83654785 85.64317322 397.41516113 70.19192505 393.73046875 C 55.44854355 388.76232910 41.54689407 382.61694336 28.48022842 375.38848877 C 16.33197784 367.17660522 5.19732094 358.06997681 -4.98674250 348.08007812 C -13.99782848 337.32083130 -21.80071449 325.95486450 -28.38400650 314.12835693 C -33.62934494 301.98669434 -37.48725128 289.68521118 -39.89661407 277.32397461 C -40.77510834 265.02102661 -40.09743881 253.07267761 -37.73674393 241.66023254 C -33.66067505 230.96177673 -27.88606071 221.23097229 -20.24575996 212.63053894 C -10.70658302 205.31808472 0.77653617 199.52265930 13.88875294 194.74186707 C 28.06558800 189.83757019 43.26503372 185.40579224 59.43790054 181.65602112 C 76.25958252 178.24780273 93.74057007 175.70291138 111.73226166 174.51664734 C 130.09939575 173.94723511 148.65243530 174.77760315 167.32348633 176.91157532 C 185.92176819 179.53720093 204.24377441 183.61306763 222.19479370 188.86466980 C 239.81533813 194.64236450 257.05438232 200.73817444 274.12219238 206.57125854 C 290.80432129 211.91020203 307.54275513 215.96798706 324.37005615 218.65466309 C 341.04800415 220.87908936 357.47665405 222.29040527 373.76916504 222.73602295 C 389.91473389 222.85992432 405.91217041 222.06552124 421.56546021 220.62026978 C 436.89862061 218.90484619 451.91049194 216.34544373 466.60055542 213.04963684 C 481.03665161 209.57400513 495.03787231 205.33166504 508.75320435 200.39082336 C 522.48205566 195.41777039 536.17810059 190.48619080 549.81506348 185.56784058 C 563.42218018 180.59791565 577.18103027 175.61408997 596.94653320 325.98272705" stroke-width="1.40098500" fill="rgb(3, 129, 177)" opacity="1.0" stroke="rgb(0, 110, 153)" stroke-opacity="0.8615953" stroke-linecap="round" stroke-linejoin="round"/>
    <path d="M 554.94287109 347.12194824 C 540.73541260 351.85366821 526.49633789 356.58398438 512.23193359 361.24993896 C 497.96951294 365.98468018 483.66107178 370.59732056 469.26705933 375.05474854 C 454.78460693 379.36444092 440.20623779 383.52783203 425.48330688 387.40081787 C 410.55108643 390.86624146 395.47448730 393.83914185 380.14837646 396.34399414 C 364.56335449 398.27218628 348.73684692 399.45532227 332.61596680 399.91409302 C 316.17135620 399.70611572 299.47171021 399.28320312 282.50988770 399.03878784 C 265.35610962 398.93902588 248.03092957 398.96463013 230.61579895 398.94546509 C 213.12867737 398.89685059 195.70010376 398.56964111 178.29971313 398.16601562 C 161.10218811 397.43325806 144.13479614 396.31536865 127.43581390 394.73294067 C 111.19445038 392.66104126 95.41349030 390.03067017 80.21195984 386.82641602 C 65.68787384 382.97610474 51.91660309 378.42434692 38.99218750 373.15176392 C 26.99012184 367.21408081 16.05650520 360.63336182 6.16888571 353.43011475 C -2.50426936 345.65161133 -9.93711662 337.32797241 -16.06385422 328.60559082 C -20.82946014 319.55355835 -24.13154030 310.26614380 -26.00639534 300.92831421 C -26.34331322 291.62066650 -25.06961632 282.52191162 -22.23268509 273.87680054 C -17.74607849 265.77529907 -11.58641243 258.41918945 -3.73919296 252.01338196 C 5.83241940 246.74992371 16.88968849 242.37556458 29.20746040 238.39422607 C 42.38842773 234.38104248 56.38599777 230.60856628 71.15322113 227.38832092 C 86.50117493 224.88838196 102.40684509 223.20169067 118.73069763 222.33346558 C 135.30264282 222.17993164 152.02284241 223.03193665 168.79121399 225.05636597 C 185.57051086 227.99578857 202.23268127 231.96075439 218.71166992 236.83645630 C 235.04452515 242.28210449 251.21423340 248.03750610 267.24938965 253.70672607 C 283.28744507 258.76571655 299.27630615 262.99426270 315.24087524 266.34500122 C 331.07067871 268.98562622 346.72875977 270.86132812 362.16928101 271.96221924 C 377.40948486 272.48129272 392.33181763 272.21655273 406.95864868 271.29293823 C 421.29232788 269.86721802 435.24777222 267.89639282 448.83871460 265.42691040 C 462.01113892 262.37811279 474.70883179 258.51495361 487.10946655 254.33982849 C 499.58154297 251.18345642 511.99810791 248.04196167 524.24877930 244.79083252 C 536.46563721 241.48231506 548.60925293 238.23298645 560.74176025 234.99211121 C 572.88702393 231.74041748 585.00146484 228.57688904 554.94287109 347.12194824" stroke-width="0.95858139" fill="rgb(67, 147, 194)" opacity="1.0" stroke="rgb(225, 140, 198)" stroke-opacity="0.098344326" stroke-linecap="round" stroke-linejoin="round"/>
    <path d="M 527.50128174 396.83932495 C 513.27221680 397.19317627 499.01962280 397.52093506 484.75497437 397.83023071 C 470.50579834 398.29089355 456.23355103 398.75399780 441.92095947 399.37631226 C 427.57855225 400.30578613 413.22387695 400.83334351 398.77359009 400.80645752 C 384.14248657 401.13458252 369.36148071 400.82315063 354.27862549 399.70437622 C 338.72927856 399.17694092 322.87518311 398.67355347 306.66900635 398.07189941 C 290.07565308 397.75344849 273.24169922 397.82687378 256.08010864 398.18634033 C 238.68876648 398.76391602 221.14549255 399.61154175 203.51242065 400.68405151 C 185.73399353 400.91333008 167.93157959 400.82702637 150.25837708 400.78359985 C 132.73231506 400.77905273 115.44926453 400.85836792 98.63863373 400.71356201 C 82.32484436 399.87423706 66.68990326 399.22729492 51.76072693 398.76702881 C 37.80662537 398.49398804 25.01022530 398.06567383 13.47876167 397.07238770 C 3.41456342 394.99813843 -4.99728489 391.49465942 -11.78419304 386.62408447 C -16.92398262 380.53024292 -20.49915886 373.43032837 -22.46414757 365.46081543 C -22.91365242 356.84286499 -21.91856956 347.83947754 -19.41039848 338.65014648 C -15.48613739 329.42700195 -10.15827179 320.38360596 -3.38816762 311.83383179 C 4.69868469 303.81817627 14.04046535 296.51672363 24.58649826 290.02621460 C 36.13059616 284.37557983 48.64487076 279.73297119 62.07066727 276.15451050 C 76.24264526 273.65075684 91.06597137 271.84423828 106.29838562 270.64074707 C 121.88358307 269.90438843 137.69953918 270.02960205 153.68852234 270.93591309 C 169.64566040 272.49386597 185.60508728 274.95858765 201.51460266 278.43621826 C 217.30592346 282.54827881 232.84231567 287.49676514 248.29293823 292.87109375 C 263.64111328 298.17211914 278.99429321 302.99490356 294.38333130 307.21841431 C 309.65667725 311.06924438 324.71466064 314.29370117 339.63299561 316.72552490 C 354.38479614 318.55908203 368.89593506 319.75024414 383.05761719 320.16030884 C 396.83773804 319.66076660 410.34716797 318.60394287 423.50527954 317.15963745 C 436.24829102 315.25265503 448.63507080 312.98168945 460.81326294 310.91952515 C 472.81127930 309.55465698 484.58309937 308.62399292 496.22763062 308.12051392 C 507.74057007 308.07260132 519.13092041 308.31625366 530.35266113 308.69805908 C 541.54852295 309.27142334 552.69824219 309.92880249 563.77832031 310.67361450 C 574.83056641 311.49273682 585.93731689 312.27468872 527.50128174 396.83932495" stroke-width="1.57366228" fill="rgb(95, 207, 223)" opacity="1.0" stroke="rgb(144, 210, 204)" stroke-opacity="0.82089984" stroke-linecap="round" stroke-linejoin="round"/>
    <path d="M 511.23980713 306.73519897 C 499.36859131 310.78356934 487.39059448 314.58593750 475.25650024 317.92742920 C 463.09005737 321.05212402 450.83255005 323.64501953 438.47921753 325.85626221 C 426.08041382 327.84109497 413.57623291 329.18045044 401.08062744 329.99703979 C 388.45245361 330.71279907 375.77386475 330.66650391 362.98788452 329.91540527 C 350.08789062 328.90280151 337.08447266 327.15957642 324.01419067 324.83087158 C 310.75109863 322.13961792 297.31820679 319.11898804 283.87020874 315.59234619 C 270.33563232 311.57604980 256.82678223 306.89138794 243.11715698 302.05761719 C 229.07075500 297.57144165 214.79724121 293.19638062 200.28814697 289.33001709 C 185.51284790 286.08096313 170.53131104 283.65310669 155.40823364 281.99490356 C 140.25831604 280.80676270 125.19985962 280.58514404 110.24805450 281.29791260 C 95.50402832 282.29281616 81.21181488 283.91867065 67.51000214 286.31790161 C 54.37272263 288.64187622 42.12376785 291.41635132 31.02321625 294.81393433 C 21.01800537 297.95608521 12.35843182 300.96685791 5.42743731 303.91708374 C 0.24109620 305.85958862 -3.53817916 306.02993774 -5.82112026 304.45849609 C -6.45034504 301.68798828 -5.20100451 298.37661743 -2.08147788 295.04330444 C 3.05738425 292.25012207 9.96584606 289.73828125 18.25955772 286.98220825 C 27.59309387 284.00177002 38.02420807 281.05795288 49.31441116 278.22064209 C 61.18915558 275.65451050 73.82175446 273.80929565 86.99795532 272.28836060 C 100.44611359 270.84567261 114.12705231 269.82028198 128.01640320 269.47900391 C 142.10475159 269.80923462 156.15809631 270.76571655 170.03004456 272.18948364 C 183.81048584 274.28005981 197.48114014 277.18759155 210.91036987 280.52224731 C 224.10200500 284.24514771 237.03974915 288.56869507 249.93502808 293.02767944 C 262.66888428 297.41876221 275.42071533 301.54483032 288.24435425 305.25875854 C 300.94406128 308.79010010 313.71417236 311.88558960 326.56875610 314.23516846 C 339.44262695 316.30316162 352.33584595 317.86730957 365.28027344 318.83090210 C 378.22528076 319.37405396 391.16577148 319.41107178 404.17141724 318.78381348 C 417.19140625 317.74136353 430.15109253 316.09884644 443.04891968 313.87271118 C 455.97225952 311.18841553 468.83316040 308.02343750 481.50427246 304.46804810 C 494.21264648 300.65911865 506.74865723 296.50186157 519.26593018 292.26681519 C 531.81854248 287.94332886 544.32720947 283.75067139 511.23980713 306.73519897" stroke-width="0.92441589" fill="rgb(251, 255, 255)" opacity="1.0" stroke="rgb(204, 239, 247)" stroke-opacity="0.81790215" stroke-linecap="round" stroke-linejoin="round"/>
    <path d="M 488.81042480 79.75441742 C 487.95413208 84.36206055 486.96035767 88.68812561 485.55966187 92.67611694 C 483.66860962 96.50987244 481.58697510 100.15277100 479.40371704 103.55006409 C 477.19042969 106.62870026 474.50830078 109.30209351 471.33181763 111.56578064 C 467.94647217 113.63471222 464.37249756 115.52735901 460.58374023 117.26620483 C 456.75033569 118.44396210 452.90719604 119.30055237 448.97680664 119.68576813 C 444.96316528 119.33602142 440.96118164 118.46159363 437.03045654 117.23915863 C 433.17910767 115.43392944 429.42813110 113.39132690 425.92068481 111.03813934 C 422.72671509 108.46306610 420.07150269 105.32698822 417.64916992 101.99756622 C 415.38934326 98.59442139 413.46255493 94.92355347 411.94030762 91.24208069 C 410.57839966 87.48194885 409.70071411 83.75868225 409.49768066 79.95119476 C 410.00332642 75.96887970 410.81756592 71.87303925 411.75256348 67.80207825 C 413.35211182 64.00512695 415.10311890 60.27930069 416.96966553 56.61043930 C 419.09823608 53.42369843 421.77719116 50.78878021 424.88586426 48.50002289 C 428.26632690 46.34217834 431.76873779 44.48854446 435.41476440 42.85725021 C 439.16116333 41.55446625 442.94079590 40.44036865 446.60510254 39.92313766 C 450.26376343 40.12639618 453.95321655 40.94155502 457.62756348 41.96882248 C 461.34774780 43.02539825 465.02960205 44.33539581 468.34243774 46.16143036 C 471.56701660 48.27782822 474.81219482 50.39917374 477.72174072 52.48190689 C 479.92135620 55.00782394 481.71588135 57.81869888 483.30966187 60.80928421 C 484.81610107 63.85569382 486.34527588 66.85475922 488.81042480 79.75441742" stroke-width="1.20951295" fill="rgb(251, 212, 0)" opacity="1.0" stroke="rgb(202, 200, 86)" stroke-opacity="0.80599374" stroke-linecap="round" stroke-linejoin="round"/>
    <path d="M 448.65051270 34.21626663 C 448.62448120 34.18954849 448.65472412 34.21634674 448.62008667 34.18991470 C 448.63150024 34.20405960 448.64523315 34.20657349 448.61514282 34.19658661 C 448.62393188 34.19875717 448.64312744 34.22296906 448.61331177 34.18910599 C 448.64111328 34.20101547 448.61883545 34.21023941 448.60760498 34.19814682 C 448.64105225 34.19889450 448.62033081 34.20458603 448.61422729 34.19617844 C 448.63916016 34.20063400 448.62371826 34.20928574 448.61203003 34.18535233 C 448.64126587 34.20653152 448.61462402 34.20439911 448.63775635 34.17774200 C 448.61978149 34.20712280 448.63696289 34.19911957 448.61917114 34.18221283 C 448.63088989 34.20358276 448.63772583 34.18265533 448.61334229 34.19431686 C 448.65185547 34.19292831 448.61431885 34.18805313 448.65051270 34.21626663" stroke-width="0.00000000" fill="rgb(0, 0, 0)" opacity="1.0" stroke="rgb(0, 79, 130)" stroke-opacity="1.0" stroke-linecap="round" stroke-linejoin="round"/>
    <path d="M 488.40374756 80.91799927 C 489.07077026 80.29185486 489.69857788 79.79520416 490.40832520 79.43630981 C 491.19186401 79.19797516 492.03869629 79.03705597 492.92202759 78.98040009 C 493.86596680 79.02375793 494.83816528 79.03482819 495.75860596 79.11527252 C 496.70321655 79.15602875 497.63436890 79.20133972 498.53308105 79.23683167 C 499.43933105 79.26940918 500.27526855 79.27465820 501.06466675 79.29592133 C 501.78775024 79.30165863 502.49072266 79.35630035 503.07931519 79.40530396 C 503.64999390 79.35415649 504.12634277 79.32816315 504.55938721 79.32666779 C 504.90377808 79.31655121 505.24041748 79.36975098 505.46688843 79.49144745 C 505.63433838 79.73255157 505.70370483 80.07036591 505.73425293 80.43556976 C 505.79345703 80.82254791 505.82693481 81.24224091 488.40374756 80.91799927" stroke-width="0.98788673" fill="rgb(226, 208, 122)" opacity="1.0" stroke="rgb(203, 184, 97)" stroke-opacity="0.40806723" stroke-linecap="round" stroke-linejoin="round"/>
    <path d="M 448.56600952 128.65496826 C 448.49014282 128.63528442 448.52560425 128.62701416 448.47634888 128.57472229 C 448.46087646 128.60784912 448.47750854 128.61051941 448.44677734 128.57347107 C 448.45208740 128.58831787 448.43801880 128.59855652 448.44216919 128.56101990 C 448.42163086 128.58056641 448.42071533 128.59074402 448.43344116 128.56916809 C 448.40887451 128.57124329 448.42639160 128.58830261 448.41058350 128.56748962 C 448.42236328 128.58760071 448.40951538 128.57205200 448.40124512 128.57733154 C 448.40505981 128.58428955 448.38699341 128.57875061 448.39605713 128.58586121 C 448.40487671 128.58126831 448.39935303 128.59890747 448.40774536 128.57669067 C 448.40930176 128.60165405 448.43347168 128.57571411 448.42074585 128.58219910 C 448.43313599 128.56602478 448.44097900 128.56425476 448.56600952 128.65496826" stroke-width="1.82141006" fill="rgb(0, 0, 0)" opacity="1.0" stroke="rgb(220, 211, 111)" stroke-opacity="0.33276138" stroke-linecap="round" stroke-linejoin="round"/>
    <path d="M 407.36178589 79.32042694 C 407.59982300 79.74758148 407.83401489 80.16448212 407.86468506 80.55493164 C 407.77392578 80.89287567 407.49774170 81.16693115 407.09075928 81.35723877 C 406.62539673 81.44918823 406.06509399 81.35208893 405.43762207 81.25457764 C 404.71759033 81.20071411 403.95053101 81.18509674 403.04437256 81.10601807 C 402.14404297 81.04702759 401.22924805 81.03991699 400.28259277 81.05590820 C 399.40121460 81.03153992 398.53048706 81.03974152 397.63812256 81.03946686 C 396.76663208 81.09409332 395.94949341 81.24243164 395.20834351 81.27732086 C 394.56176758 81.24169159 393.97265625 81.13808441 393.50070190 80.94260406 C 393.05691528 80.70215607 392.69509888 80.40072632 392.43478394 79.98012543 C 392.13491821 79.55501556 391.86584473 79.19310760 407.36178589 79.32042694" stroke-width="0.89008653" fill="rgb(228, 218, 136)" opacity="1.0" stroke="rgb(232, 179, 39)" stroke-opacity="0.27770287" stroke-linecap="round" stroke-linejoin="round"/>
    <path d="M 487.35238647 41.81616974 C 487.52316284 42.17701721 487.66970825 42.54445267 487.66970825 42.77005005 C 487.59860229 42.99993134 487.41381836 43.26372147 487.04244995 43.43741989 C 486.65679932 43.73300552 486.28698730 44.10746002 485.78848267 44.51210022 C 485.29492188 44.97192764 484.86990356 45.53601837 484.39163208 45.97950363 C 483.87805176 46.38331985 483.33163452 46.79071045 482.88223267 47.36118698 C 482.51300049 48.04021835 482.06045532 48.65924454 481.60830688 49.16068649 C 481.25927734 49.65688705 480.98965454 50.14849854 480.71838379 50.54041290 C 480.42926025 50.86633682 480.12179565 51.00788116 479.78256226 51.03444290 C 479.57632446 50.89201355 479.43594360 50.63452530 479.28890991 50.22116852 C 479.08676147 49.72486877 478.78265381 49.15939331 487.35238647 41.81616974" stroke-width="1.16537523" fill="rgb(227, 221, 101)" opacity="1.0" stroke="rgb(230, 202, 83)" stroke-opacity="0.5788487" stroke-linecap="round" stroke-linejoin="round"/>
    <path d="M 481.58749390 115.16088104 C 481.60934448 115.14865875 481.61752319 115.16009521 481.56741333 115.15824127 C 481.61038208 115.14340973 481.60861206 115.17168427 481.59860229 115.15310669 C 481.60708618 115.15332031 481.60498047 115.15338898 481.59695435 115.17170715 C 481.60437012 115.15371704 481.60482788 115.15022278 481.59332275 115.17678070 C 481.60339355 115.14577484 481.60437012 115.17113495 481.58657837 115.15621948 C 481.60534668 115.15938568 481.59875488 115.16467285 481.59304810 115.15889740 C 481.59906006 115.16395569 481.59063721 115.15695953 481.60931396 115.15755463 C 481.58258057 115.16811371 481.60205078 115.15336609 481.60437012 115.16648865 C 481.58340454 115.16882324 481.61041260 115.14836884 481.60446167 115.16640472 C 481.58020020 115.16531372 481.61254883 115.15494537 481.58749390 115.16088104" stroke-width="0.24156646" fill="rgb(0, 0, 0)" opacity="1.0" stroke="rgb(0, 0, 0)" stroke-opacity="1.0" stroke-linecap="round" stroke-linejoin="round"/>
    <path d="M 403.36209106 97.55543518 C 403.33105469 97.57147217 403.35656738 97.54508209 403.34704590 97.56864929 C 403.33709717 97.56429291 403.34359741 97.55021667 403.33767700 97.56440735 C 403.35379028 97.55798340 403.32974243 97.55521393 403.34313965 97.55979156 C 403.31982422 97.55693817 403.35751343 97.54425049 403.31509399 97.57022858 C 403.34179688 97.54349518 403.33181763 97.55921936 403.33746338 97.54674530 C 403.31918335 97.54859924 403.32693481 97.55648041 403.34069824 97.53859711 C 403.32293701 97.55636597 403.33383179 97.53697968 403.32263184 97.56223297 C 403.32272339 97.52651978 403.33676147 97.55010223 403.30520630 97.53283691 C 403.32705688 97.56073761 403.32254028 97.50881195 403.31701660 97.54374695 C 403.31646729 97.54464722 403.31777954 97.52381897 403.36209106 97.55543518" stroke-width="0.00000000" fill="rgb(211, 221, 224)" opacity="1.0" stroke="rgb(125, 152, 167)" stroke-opacity="0.48452052" stroke-linecap="round" stroke-linejoin="round"/>
    <path d="M 418.45385742 53.30340195 C 418.44802856 53.30696487 418.47842407 53.26635742 418.47366333 53.28591537 C 418.47271729 53.24802780 418.52371216 53.23862457 418.49768066 53.24646759 C 418.51239014 53.21644592 418.53811646 53.21084595 418.52691650 53.21652603 C 418.53347778 53.21287155 418.52435303 53.19079208 418.56066895 53.21249390 C 418.50003052 53.21797943 418.53750610 53.20491409 418.51113892 53.21729660 C 418.51916504 53.23884583 418.49639893 53.23451614 418.49649048 53.24619675 C 418.48797607 53.26845932 418.47494507 53.27042007 418.45584106 53.27407837 C 418.46319580 53.31142426 418.43746948 53.29934311 418.42828369 53.30612946 C 418.44525146 53.33099747 418.40884399 53.34269714 418.40872192 53.33596802 C 418.40249634 53.36353302 418.39294434 53.35342789 418.45385742 53.30340195" stroke-width="0.00000000" fill="rgb(40, 214, 227)" opacity="1.0" stroke="rgb(231, 255, 14)" stroke-opacity="0.0" stroke-linecap="round" stroke-linejoin="round"/>
    <path d="M 102.96930695 295.68154907 C 102.94504547 295.69128418 102.97460175 295.68743896 102.93563843 295.67089844 C 102.97775269 295.70260620 102.93756104 295.67553711 102.96903992 295.68035889 C 102.95519257 295.68496704 102.95837402 295.68347168 102.95198822 295.67361450 C 102.95874023 295.69589233 102.95540619 295.67065430 102.95500946 295.68969727 C 102.95473480 295.67785645 102.95041656 295.68029785 102.94980621 295.67636108 C 102.96906281 295.69100952 102.94011688 295.68310547 102.95330048 295.67279053 C 102.94965363 295.68371582 102.96102142 295.68969727 102.92234802 295.68292236 C 102.96327972 295.67529297 102.94673157 295.69931030 102.93765259 295.68197632 C 102.95714569 295.67312622 102.92952728 295.70773315 102.95150757 295.67950439 C 102.93862152 295.68167114 102.94593811 295.69537354 102.96930695 295.68154907" stroke-width="0.13127156" fill="rgb(255, 255, 255)" opacity="1.0" stroke="rgb(168, 182, 183)" stroke-opacity="1.0" stroke-linecap="round" stroke-linejoin="round"/>
    <path d="M 141.62696838 302.12149048 C 141.67875671 302.10543823 141.63072205 302.12417603 141.65710449 302.09875488 C 141.65118408 302.12512207 141.65853882 302.10647583 141.64312744 302.11090088 C 141.66694641 302.11550903 141.63824463 302.11691284 141.66249084 302.10131836 C 141.65303040 302.12200928 141.64849854 302.12194824 141.65588379 302.10601807 C 141.64523315 302.12258911 141.64916992 302.10815430 141.66268921 302.12524414 C 141.64198303 302.11273193 141.63281250 302.11251831 141.67614746 302.12048340 C 141.64480591 302.11676025 141.64222717 302.11120605 141.65226746 302.13269043 C 141.66836548 302.10491943 141.62208557 302.12533569 141.66474915 302.11801147 C 141.64303589 302.12396240 141.64694214 302.12234497 141.65307617 302.12960815 C 141.64419556 302.11447144 141.65112305 302.12957764 141.62696838 302.12149048" stroke-width="0.00000000" fill="rgb(0, 0, 0)" opacity="1.0" stroke="rgb(0, 0, 0)" stroke-opacity="1.0" stroke-linecap="round" stroke-linejoin="round"/>
    <path d="M 216.55259705 299.92587280 C 216.53765869 299.96798706 216.55824280 299.94976807 216.53822327 299.95294189 C 216.54664612 299.95791626 216.54539490 299.96478271 216.55455017 299.94497681 C 216.52902222 299.96228027 216.57183838 299.94638062 216.54466248 299.95825195 C 216.54026794 299.93640137 216.55920410 299.96255493 216.54229736 299.93835449 C 216.54067993 299.95355225 216.56654358 299.93502808 216.52351379 299.94912720 C 216.55812073 299.95520020 216.54209900 299.94049072 216.53652954 299.95550537 C 216.53285217 299.96722412 216.55215454 299.94293213 216.52067566 299.96752930 C 216.54014587 299.94128418 216.52992249 299.97494507 216.52348328 299.95025635 C 216.52563477 299.94726562 216.52394104 299.96588135 216.51248169 299.95010376 C 216.51792908 299.95193481 216.50633240 299.95486450 216.55259705 299.92587280" stroke-width="0.28324232" fill="rgb(41, 197, 226)" opacity="1.0" stroke="rgb(48, 230, 210)" stroke-opacity="0.19318025" stroke-linecap="round" stroke-linejoin="round"/>
    <path d="M 255.86904907 313.81185913 C 255.88595581 313.79699707 255.88973999 313.81588745 255.90809631 313.80590820 C 255.90892029 313.79058838 255.91961670 313.81005859 255.94126892 313.78652954 C 255.93061829 313.78717041 255.95933533 313.79446411 255.95852661 313.77035522 C 255.98121643 313.76153564 255.98750305 313.77551270 255.99496460 313.74288940 C 256.04888916 313.75198364 256.00750732 313.72949219 256.06842041 313.73031616 C 256.06243896 313.68664551 256.10116577 313.70852661 256.10821533 313.70037842 C 256.15411377 313.64498901 256.15133667 313.67517090 256.19284058 313.66372681 C 256.23025513 313.61001587 256.23651123 313.62664795 256.27624512 313.59588623 C 256.30587769 313.58975220 256.33609009 313.55783081 256.34390259 313.56588745 C 256.41067505 313.52352905 256.39266968 313.53665161 255.86904907 313.81185913" stroke-width="0.42316771" fill="rgb(0, 126, 198)" opacity="1.0" stroke="rgb(94, 210, 220)" stroke-opacity="1.0" stroke-linecap="round" stroke-linejoin="round"/>
    <path d="M 300.04772949 289.77697754 C 300.05563354 289.77276611 300.04415894 289.77899170 300.06399536 289.76229858 C 300.04367065 289.78881836 300.05371094 289.76690674 300.05307007 289.76733398 C 300.05242920 289.78900146 300.04611206 289.78286743 300.06335449 289.76379395 C 300.05001831 289.77746582 300.05465698 289.78631592 300.05468750 289.77447510 C 300.05834961 289.77911377 300.05322266 289.76959229 300.05740356 289.78390503 C 300.04681396 289.78250122 300.06774902 289.77401733 300.04992676 289.76284790 C 300.05203247 289.79440308 300.05895996 289.75781250 300.04977417 289.78100586 C 300.06216431 289.76922607 300.04644775 289.77899170 300.06390381 289.76742554 C 300.05255127 289.77444458 300.04638672 289.77416992 300.06948853 289.77120972 C 300.04299927 289.77182007 300.06808472 289.77142334 300.04772949 289.77697754" stroke-width="0.80000001" fill="rgb(255, 255, 255)" opacity="1.0" stroke="rgb(0, 0, 0)" stroke-opacity="1.0" stroke-linecap="round" stroke-linejoin="round"/>
    <path d="M 350.12481689 299.88885498 C 350.10806274 299.88647461 350.12417603 299.89471436 350.11526489 299.88180542 C 350.10873413 299.89401245 350.13305664 299.89544678 350.10440063 299.88433838 C 350.12179565 299.88571167 350.12802124 299.91101074 350.10317993 299.86022949 C 350.13174438 299.90676880 350.11856079 299.89227295 350.10461426 299.88919067 C 350.12622070 299.88235474 350.12469482 299.90240479 350.10699463 299.88604736 C 350.11608887 299.89111328 350.13424683 299.89123535 350.09008789 299.89016724 C 350.12335205 299.89913940 350.11300659 299.88146973 350.12997437 299.90097046 C 350.10287476 299.89147949 350.12045288 299.88461304 350.11706543 299.90005493 C 350.12011719 299.89251709 350.10888672 299.89123535 350.11761475 299.89138794 C 350.12081909 299.89645386 350.10791016 299.88787842 350.12481689 299.88885498" stroke-width="0.80000001" fill="rgb(255, 255, 255)" opacity="1.0" stroke="rgb(0, 0, 0)" stroke-opacity="1.0" stroke-linecap="round" stroke-linejoin="round"/>
    <path d="M 399.85800171 300.57797241 C 399.85034180 300.56838989 399.86239624 300.57873535 399.83581543 300.57562256 C 399.86975098 300.56332397 399.84176636 300.58532715 399.85644531 300.57778931 C 399.85665894 300.55935669 399.84506226 300.58221436 399.86068726 300.57159424 C 399.84454346 300.57885742 399.85095215 300.56195068 399.86273193 300.59048462 C 399.84085083 300.57022095 399.85882568 300.56741333 399.86212158 300.59048462 C 399.84552002 300.56954956 399.85998535 300.56942749 399.85803223 300.57760620 C 399.84625244 300.57931519 399.87017822 300.57369995 399.85455322 300.56408691 C 399.85137939 300.59161377 399.86227417 300.56475830 399.85665894 300.57614136 C 399.85794067 300.58071899 399.86935425 300.57559204 399.86840820 300.56671143 C 399.83401489 300.58410645 399.90008545 300.55975342 399.85800171 300.57797241" stroke-width="0.24701442" fill="rgb(255, 255, 255)" opacity="1.0" stroke="rgb(115, 130, 131)" stroke-opacity="1.0" stroke-linecap="round" stroke-linejoin="round"/>
    <path d="M 103.76123047 414.31173706 C 102.84069061 414.58645630 101.92237854 414.83755493 100.99750519 415.09890747 C 100.17288971 415.27365112 99.32286072 415.42871094 98.54609680 415.56106567 C 97.81506348 415.61880493 97.14678955 415.65887451 96.51567078 415.66976929 C 95.95824432 415.61248779 95.46338654 415.54888916 95.01200104 415.44555664 C 94.64416504 415.31719971 94.30422974 415.15176392 94.04525757 414.94921875 C 93.85260773 414.77545166 93.67600250 414.49435425 93.61058044 414.23797607 C 93.56681824 413.92984009 93.59133148 413.57049561 93.67604065 413.22396851 C 93.77527618 412.77877808 93.97374725 412.32489014 94.17819214 411.83370972 C 94.42782593 411.28546143 94.74214172 410.69735718 95.07222748 410.09423828 C 95.38772583 409.45181274 95.78224945 408.79199219 103.76123047 414.31173706" stroke-width="2.00000000" fill="rgb(231, 159, 86)" opacity="1.0" stroke="rgb(232, 155, 82)" stroke-opacity="0.899565" stroke-linecap="round" stroke-linejoin="round"/>
    <path d="M 287.54177856 426.39532471 C 282.85073853 426.10418701 278.11895752 425.86325073 273.46737671 425.72900391 C 268.89120483 425.56945801 264.35742188 425.48767090 259.94104004 425.42834473 C 255.61540222 425.34143066 251.40438843 425.25894165 247.32539368 425.14193726 C 243.34042358 424.98178101 239.55508423 424.88247681 235.90547180 424.77371216 C 232.38101196 424.71109009 229.10237122 424.61785889 225.98915100 424.62216187 C 223.08293152 424.56848145 220.41795349 424.46365356 218.00762939 424.38995361 C 215.82205200 424.16052246 213.95262146 423.85659790 212.34440613 423.47244263 C 211.06663513 422.89050293 210.09414673 422.19461060 209.49722290 421.33212280 C 209.22648621 420.33410645 209.30531311 419.22247314 209.75163269 418.00860596 C 210.52943420 416.74243164 211.62779236 415.39627075 213.12097168 414.02517700 C 214.85357666 412.74710083 216.94024658 411.47283936 219.26429749 410.30606079 C 221.83851624 409.15994263 224.61157227 408.09375000 227.54920959 406.94723511 C 230.65487671 405.84271240 233.91000366 404.79705811 237.27680969 403.82266235 C 240.70507812 403.10516357 244.22380066 402.69299316 247.76229858 402.75228882 C 251.31903076 403.15225220 254.88554382 403.68890381 258.44345093 404.27539062 C 261.99856567 404.68585205 265.58493042 404.94793701 269.19918823 405.14346313 C 272.81582642 405.43576050 276.46264648 405.94711304 280.08532715 406.75091553 C 283.71554565 407.82928467 287.37228394 409.10772705 291.04718018 410.53552246 C 294.83029175 412.21887207 298.64212036 414.04904175 302.48928833 415.91943359 C 306.43389893 417.88107300 310.34802246 419.85339355 287.54177856 426.39532471" stroke-width="2.00000000" fill="rgb(231, 154, 83)" opacity="1.0" stroke="rgb(229, 153, 83)" stroke-opacity="0.982947" stroke-linecap="round" stroke-linejoin="round"/>
    <path d="M 403.89544678 431.81887817 C 403.86614990 431.83920288 403.89242554 431.81802368 403.87402344 431.82492065 C 403.87869263 431.83450317 403.88531494 431.82440186 403.87600708 431.81710815 C 403.87426758 431.82983398 403.88308716 431.81735229 403.87887573 431.82522583 C 403.86828613 431.81649780 403.89099121 431.83331299 403.86660767 431.79998779 C 403.87609863 431.84005737 403.88424683 431.80795288 403.86892700 431.82131958 C 403.88391113 431.82681274 403.86306763 431.81362915 403.89559937 431.81851196 C 403.87469482 431.82781982 403.86096191 431.81005859 403.90344238 431.81948853 C 403.86187744 431.82843018 403.88223267 431.81353760 403.89108276 431.80590820 C 403.86791992 431.84036255 403.89044189 431.80685425 403.89993286 431.81863403 C 403.86581421 431.83337402 403.90106201 431.80453491 403.89544678 431.81887817" stroke-width="0.00000000" fill="rgb(0, 0, 0)" opacity="1.0" stroke="rgb(92, 3, 0)" stroke-opacity="0.0012706252" stroke-linecap="round" stroke-linejoin="round"/>
    <path d="M 511.21386719 400.13253784 C 507.98046875 400.85504150 504.74642944 401.40451050 501.63183594 401.54666138 C 498.57803345 400.84756470 495.57534790 399.89205933 492.52270508 399.17593384 C 489.38256836 398.98730469 486.22119141 399.37197876 483.00515747 400.20202637 C 479.76321411 401.15597534 476.37698364 401.77175903 472.81515503 401.57012939 C 468.97564697 400.50714111 464.85186768 399.71923828 460.47167969 399.62393188 C 455.97271729 399.89633179 451.49267578 400.73956299 447.07504272 401.58212280 C 442.77917480 401.69500732 438.77468872 401.15939331 435.05935669 400.31686401 C 431.62448120 400.00506592 428.68978882 400.26040649 426.32171631 400.73858643 C 424.65057373 401.00836182 423.83544922 400.84454346 424.01354980 400.32940674 C 425.24578857 399.66876221 427.18447876 398.97372437 429.70108032 398.36224365 C 432.68026733 398.01409912 435.75305176 398.00582886 438.75811768 398.35791016 C 441.43750000 399.23593140 443.82470703 400.09848022 446.06094360 400.11056519 C 448.07217407 398.82092285 450.25070190 397.01757812 452.99151611 395.41256714 C 456.29119873 394.26196289 459.81680298 393.70983887 463.55020142 393.92431641 C 467.25689697 394.89437866 470.77465820 396.26232910 473.93908691 397.39001465 C 476.71536255 397.41598511 479.29000854 396.35507202 481.84863281 394.96112061 C 484.52392578 394.16290283 487.39138794 394.04855347 490.34906006 394.44522095 C 493.28900146 395.20724487 496.02899170 396.20742798 498.76400757 396.78863525 C 501.54156494 396.35308838 504.46881104 395.53598022 507.57507324 394.88183594 C 510.87826538 394.27233887 514.25231934 393.64282227 511.21386719 400.13253784" stroke-width="0.84034210" fill="rgb(251, 254, 251)" opacity="1.0" stroke="rgb(242, 255, 242)" stroke-opacity="0.6869207" stroke-linecap="round" stroke-linejoin="round"/>
    <path d="M 62.85262299 399.06890869 C 66.85081482 397.73147583 70.78878021 396.68228149 74.65046692 396.16430664 C 78.21659088 396.28329468 81.37030029 396.89071655 84.10197449 397.72598267 C 86.25061035 398.48770142 87.51566315 399.17480469 87.77777100 399.78308105 C 86.98243713 400.16867065 85.21374512 400.27609253 82.56035614 400.14172363 C 79.21466064 399.93777466 75.47115326 399.94882202 71.52568817 400.49337769 C 67.44199371 401.41271973 63.36417007 401.83038330 59.27104568 401.33264160 C 55.21577072 400.16445923 51.09483337 399.52709961 47.00046539 399.69992065 C 43.08086395 400.57656860 39.35466385 401.51895142 35.86799240 401.85699463 C 32.69735336 401.00314331 29.62357712 399.81951904 26.39036560 399.24420166 C 23.06948090 399.38031006 19.78642845 400.14340210 16.59082222 401.17535400 C 13.53616524 401.92504883 10.57847404 401.88449097 7.76289272 401.37759399 C 5.07294798 401.06619263 2.80842924 400.79745483 1.12981331 400.18341064 C 0.19124140 399.16622925 -0.09552515 397.82611084 0.30868757 396.53176880 C 1.35089433 395.48812866 2.87997699 395.00418091 4.76833725 395.21981812 C 6.84679461 395.97470093 8.98904610 396.81817627 11.05482578 397.25958252 C 12.95584679 396.84204102 14.77509499 395.75653076 16.87920380 394.68347168 C 19.35430145 394.08999634 22.03727341 393.92681885 24.92157173 394.24234009 C 27.82612991 394.78503418 30.72667503 395.64773560 33.59778976 396.41104126 C 36.41788101 396.28274536 39.31573486 395.55694580 42.43392181 394.71469116 C 45.86351776 393.99780273 49.37114334 393.11981201 62.85262299 399.06890869" stroke-width="0.65032339" fill="rgb(248, 255, 250)" opacity="1.0" stroke="rgb(233, 255, 235)" stroke-opacity="0.50108457" stroke-linecap="round" stroke-linejoin="round"/>
    <path d="M 56.95087433 382.88616943 C 56.14941406 382.40203857 55.40412521 381.85736084 54.70100021 381.25994873 C 54.08771515 380.65466309 53.56536484 379.98068237 53.03939819 379.24487305 C 52.60628510 378.49795532 52.27678299 377.70718384 52.05302048 376.84704590 C 52.00692749 376.03887939 52.07881165 375.10012817 52.20834351 374.15234375 C 52.41737366 373.16918945 52.70499039 372.16885376 52.98067474 371.15637207 C 53.35983276 370.20278931 53.81117630 369.24615479 54.41194153 368.37789917 C 55.15657043 367.56732178 56.00428391 366.83422852 56.90442276 366.14224243 C 57.84590912 365.46871948 58.89251328 364.87078857 59.88597870 364.34423828 C 60.94629288 363.89584351 61.99955368 363.60284424 63.09152985 363.37374878 C 64.22426605 363.36361694 65.33280182 363.38787842 66.41582489 363.47799683 C 67.47654724 363.72305298 68.46314240 364.11419678 69.41130829 364.52514648 C 70.27558136 365.05133057 71.03708649 365.72305298 71.69803619 366.49807739 C 72.29444885 367.32150269 72.83694458 368.17346191 73.27129364 369.03341675 C 73.45735931 369.92196655 73.52320099 370.81762695 73.49636078 371.79580688 C 73.35918427 372.73608398 73.13847351 373.70700073 72.90634155 374.67050171 C 72.51189423 375.57824707 72.05918884 376.43655396 71.55473328 377.31838989 C 70.99526978 378.14181519 70.42098236 378.88778687 69.87483978 379.68255615 C 69.20131683 380.38430786 68.43167877 380.97384644 67.59186554 381.49005127 C 66.65110016 381.93191528 65.73451996 382.45993042 64.76578522 382.97549438 C 63.79059601 383.47967529 62.84162140 384.03933716 56.95087433 382.88616943" stroke-width="1.12526214" fill="rgb(186, 233, 241)" opacity="1.0" stroke="rgb(181, 240, 246)" stroke-opacity="0.8412459" stroke-linecap="round" stroke-linejoin="round"/>
    <path d="M 313.95248413 370.50128174 C 313.97726440 371.16921997 313.95745850 371.91598511 313.92565918 372.66232300 C 313.78747559 373.35864258 313.60873413 374.06332397 313.45327759 374.74707031 C 313.26089478 375.39901733 312.98458862 376.08355713 312.52716064 376.67858887 C 312.00476074 377.21017456 311.40844727 377.79672241 310.79437256 378.32965088 C 310.14382935 378.77566528 309.43045044 379.20797729 308.68920898 379.65274048 C 307.94189453 380.15258789 307.09957886 380.46463013 306.24838257 380.61483765 C 305.36434937 380.67404175 304.43072510 380.77096558 303.51248169 380.79330444 C 302.52722168 380.68746948 301.58035278 380.55038452 300.72970581 380.28033447 C 299.83636475 379.86425781 299.05215454 379.41030884 298.29959106 378.86340332 C 297.62100220 378.28417969 297.04110718 377.62472534 296.54309082 376.90615845 C 296.16540527 376.06176758 295.94741821 375.19216919 295.77615356 374.27069092 C 295.61935425 373.30047607 295.56808472 372.39303589 295.56826782 371.51669312 C 295.69247437 370.60852051 295.94900513 369.75418091 296.42050171 368.98336792 C 296.93078613 368.20169067 297.53582764 367.50311279 298.12887573 366.83514404 C 298.68630981 366.12863159 299.27053833 365.44784546 299.97177124 364.97341919 C 300.76034546 364.63427734 301.65829468 364.27703857 302.66085815 363.96981812 C 303.60498047 363.68847656 304.53784180 363.40402222 305.48803711 363.16149902 C 306.37683105 363.12805176 307.31527710 363.29501343 308.21853638 363.58383179 C 309.12344360 363.99551392 310.00479126 364.47540283 310.95123291 364.94812012 C 311.88772583 365.38442993 312.82723999 365.86880493 313.95248413 370.50128174" stroke-width="1.64505374" fill="rgb(189, 235, 245)" opacity="1.0" stroke="rgb(118, 171, 171)" stroke-opacity="0.21431099" stroke-linecap="round" stroke-linejoin="round"/>
    <path d="M 390.19360352 298.41143799 C 390.80813599 297.22631836 391.57678223 296.08471680 392.55001831 295.17358398 C 393.70925903 294.50408936 394.93215942 294.01602173 396.24487305 293.71835327 C 397.58319092 293.60916138 398.97314453 293.71844482 400.33489990 293.92391968 C 401.46237183 294.33520508 402.38406372 294.92712402 403.06030273 295.76675415 C 403.36242676 296.84045410 403.53018188 297.94018555 403.58996582 299.07659912 C 403.48013306 300.17440796 403.17687988 301.22973633 402.58822632 302.14508057 C 401.71496582 302.93554688 400.67721558 303.67105103 399.54394531 304.28277588 C 398.35119629 304.78091431 397.09301758 305.17492676 395.76181030 305.37408447 C 394.54568481 305.22384644 393.42373657 304.73413086 392.24002075 303.97915649 C 390.94982910 303.06918335 389.69796753 302.16610718 390.19360352 298.41143799" stroke-width="0.49981096" fill="rgb(216, 237, 214)" opacity="1.0" stroke="rgb(219, 245, 219)" stroke-opacity="0.5998389" stroke-linecap="round" stroke-linejoin="round"/>
    <path d="M 294.03164673 291.45590210 C 293.84277344 290.50695801 293.65588379 289.55899048 293.41976929 288.61499023 C 293.25387573 287.75354004 293.32000732 287.01452637 293.74957275 286.42034912 C 294.32495117 285.83142090 295.02450562 285.45907593 295.89062500 285.18917847 C 296.89389038 285.01962280 297.91156006 284.88635254 298.92434692 285.02514648 C 299.92214966 285.50360107 301.00314331 285.91867065 302.03067017 286.27346802 C 302.77172852 286.62789917 303.26861572 287.28665161 303.67974854 288.06167603 C 303.99206543 288.76531982 304.07394409 289.48699951 303.94515991 290.20593262 C 303.74627686 290.97943115 303.39224243 291.69628906 302.86849976 292.29946899 C 302.15390015 292.77008057 301.33102417 293.19732666 300.43371582 293.62118530 C 299.42486572 294.16226196 298.35620117 294.77734375 294.03164673 291.45590210" stroke-width="1.43025804" fill="rgb(218, 227, 199)" opacity="1.0" stroke="rgb(234, 252, 224)" stroke-opacity="0.773107" stroke-linecap="round" stroke-linejoin="round"/>
    <path d="M 260.98678589 397.34201050 C 264.91918945 395.68554688 268.81909180 394.50268555 272.65399170 394.08532715 C 276.37789917 394.83337402 280.05957031 396.14324951 283.82785034 396.81457520 C 287.80062866 396.09664917 291.92037964 395.00619507 296.09136963 394.50109863 C 300.21438599 395.09988403 304.26889038 396.57330322 308.61743164 397.45162964 C 313.49877930 396.67248535 318.75469971 395.96899414 324.01626587 396.21832275 C 328.90850830 397.50717163 333.20532227 399.53442383 337.08712769 400.72015381 C 340.80102539 399.60171509 344.65231323 397.75753784 348.83529663 396.76467896 C 353.14245605 396.69308472 356.92919922 397.17907715 359.57965088 398.06301880 C 360.62982178 399.04098511 359.72479248 399.68356323 356.94665527 399.80325317 C 352.78607178 399.81491089 347.80520630 400.22009277 342.45214844 401.18905640 C 336.97171021 401.46585083 331.40493774 400.63552856 325.99282837 399.66995239 C 320.66140747 399.61221313 315.49914551 400.58270264 310.68914795 401.48199463 C 306.10726929 400.63977051 301.56658936 399.39074707 297.01226807 399.03976440 C 292.53805542 399.86123657 288.28204346 401.02133179 284.25479126 401.57742310 C 280.35406494 400.67999268 276.49462891 399.45339966 272.55404663 399.16146851 C 268.35140991 399.96325684 263.98782349 401.16998291 259.37335205 401.43740845 C 254.38914490 400.30612183 249.21104431 399.47857666 243.99073792 399.55429077 C 239.16139221 400.48855591 235.10977173 401.50308228 232.22961426 401.81286621 C 231.16471863 401.17068481 232.21942139 399.91424561 234.91906738 397.99209595 C 238.59274292 395.32223511 242.45727539 391.97149658 260.98678589 397.34201050" stroke-width="0.87327492" fill="rgb(248, 254, 250)" opacity="1.0" stroke="rgb(237, 255, 247)" stroke-opacity="0.7030024" stroke-linecap="round" stroke-linejoin="round"/>
    <path d="M 340.70169067 375.29336548 C 341.19857788 374.65261841 341.72360229 374.05987549 342.30123901 373.59536743 C 342.90127563 373.21783447 343.53350830 372.91201782 344.16610718 372.69323730 C 344.85049438 372.49841309 345.42269897 372.44409180 345.97396851 372.55712891 C 346.60229492 372.72744751 347.21060181 372.94384766 347.74639893 373.37161255 C 348.20831299 373.82028198 348.59579468 374.36596680 348.95123291 375.00582886 C 349.15722656 375.64968872 349.22457886 376.30145264 349.14447021 377.02740479 C 348.92181396 377.73284912 348.60934448 378.49450684 348.12677002 379.18750000 C 347.43258667 379.82083130 346.58850098 380.38592529 345.64520264 380.91168213 C 344.54925537 381.25051880 343.39178467 381.38504028 342.12796021 381.32742310 C 340.76300049 381.16299438 339.26989746 381.05386353 340.70169067 375.29336548" stroke-width="1.34938991" fill="rgb(219, 245, 251)" opacity="1.0" stroke="rgb(207, 251, 253)" stroke-opacity="0.7599991" stroke-linecap="round" stroke-linejoin="round"/>
    <path d="M 241.04100037 369.54925537 C 241.74386597 368.91452026 242.43429565 368.29498291 243.16532898 367.80703735 C 243.91653442 367.47042847 244.76396179 367.39059448 245.66252136 367.37512207 C 246.59330750 367.44485474 247.47738647 367.60000610 248.28956604 367.90759277 C 249.00285339 368.40396118 249.65931702 368.96813965 250.22431946 369.61798096 C 250.63079834 370.33541870 250.86122131 371.17526245 250.94688416 372.00863647 C 250.93099976 372.90594482 250.76269531 373.73446655 250.30563354 374.51068115 C 249.75158691 375.22323608 249.10494995 375.91235352 248.38848877 376.52963257 C 247.59921265 377.02957153 246.76429749 377.32800293 245.86424255 377.37313843 C 244.91151428 377.18612671 243.90420532 376.82049561 242.79698181 376.33648682 C 241.66247559 375.75546265 240.43766785 375.21444702 241.04100037 369.54925537" stroke-width="0.77470762" fill="rgb(200, 244, 249)" opacity="1.0" stroke="rgb(159, 215, 212)" stroke-opacity="0.42744908" stroke-linecap="round" stroke-linejoin="round"/>
    <path d="M 49.04407501 299.56222534 C 49.74282455 300.42941284 50.33472824 301.26742554 50.76898575 302.12332153 C 50.96752167 303.00479126 50.94750214 303.87133789 50.87083435 304.73464966 C 50.78701782 305.56066895 50.55575180 306.34375000 50.11804199 306.93850708 C 49.59604645 307.37585449 48.89768982 307.75592041 48.10626984 308.02413940 C 47.26031113 308.37387085 46.39181900 308.66613770 45.57246780 308.75115967 C 44.75469589 308.54620361 43.87722015 308.28921509 43.06211090 307.99261475 C 42.35107040 307.58465576 41.83370590 306.98431396 41.42484665 306.20346069 C 41.17049026 305.31729126 41.04267120 304.36593628 41.01647568 303.36346436 C 41.16984558 302.33731079 41.67769241 301.42303467 42.38394165 300.53649902 C 43.16223526 299.60232544 43.93747711 298.61300659 49.04407501 299.56222534" stroke-width="1.15213954" fill="rgb(236, 244, 206)" opacity="1.0" stroke="rgb(188, 207, 170)" stroke-opacity="0.37280497" stroke-linecap="round" stroke-linejoin="round"/>
    <path d="M 230.25256348 309.69833374 C 230.19018555 310.51882935 230.21841431 311.30621338 230.29766846 312.00732422 C 230.32165527 312.66677856 230.23808289 313.18511963 230.00329590 313.54602051 C 229.61416626 313.71102905 229.04211426 313.77175903 228.31918335 313.85311890 C 227.46989441 313.93240356 226.68138123 313.83364868 225.83425903 313.59921265 C 224.95419312 313.32870483 224.21008301 312.94891357 223.57127380 312.37359619 C 223.01618958 311.67971802 222.53300476 310.94061279 222.24945068 310.26016235 C 222.09626770 309.60824585 222.15054321 308.94158936 222.42739868 308.29678345 C 222.78491211 307.72860718 223.24636841 307.30551147 223.83905029 307.02523804 C 224.54367065 306.94158936 225.44314575 306.94061279 226.39399719 306.99920654 C 227.40736389 307.01562500 228.39900208 307.13027954 230.25256348 309.69833374" stroke-width="1.48877084" fill="rgb(247, 241, 191)" opacity="1.0" stroke="rgb(249, 251, 216)" stroke-opacity="0.799501" stroke-linecap="round" stroke-linejoin="round"/>
    <path d="M 353.95233154 297.09765625 C 354.59802246 297.56060791 355.25869751 298.05307007 355.84603882 298.60470581 C 356.28375244 299.18438721 356.56536865 299.81951904 356.75851440 300.55813599 C 356.87026978 301.31240845 356.87155151 302.03265381 356.70431519 302.75045776 C 356.25177002 303.48434448 355.69253540 304.24899292 355.09246826 304.94229126 C 354.28512573 305.36123657 353.29241943 305.66091919 352.28927612 305.98822021 C 351.27249146 306.13232422 350.35104370 305.99957275 349.46282959 305.62393188 C 348.60995483 305.16485596 347.88098145 304.53753662 347.32086182 303.78506470 C 346.98352051 302.95779419 346.85885620 302.05718994 346.82839966 301.07852173 C 346.87881470 300.09066772 347.19982910 299.17721558 347.80819702 298.24676514 C 348.47286987 297.33087158 349.18041992 296.39135742 353.95233154 297.09765625" stroke-width="0.63173127" fill="rgb(221, 235, 208)" opacity="1.0" stroke="rgb(228, 238, 191)" stroke-opacity="0.5087898" stroke-linecap="round" stroke-linejoin="round"/>
    <path d="M 107.26910400 298.25442505 C 106.40639496 298.82333374 105.44848633 299.29122925 104.37418365 299.53005981 C 103.28716278 299.61456299 102.25059509 299.65151978 101.24746704 299.44891357 C 100.27884674 299.01007080 99.39497375 298.37362671 98.72855377 297.71054077 C 98.27046204 296.94824219 98.08920288 296.12133789 98.09265137 295.20431519 C 98.13526154 294.22933960 98.22992706 293.34347534 98.46793365 292.51086426 C 98.90894318 291.76812744 99.52629852 291.16012573 100.26239777 290.69708252 C 100.96139526 290.25796509 101.73143005 289.89627075 102.47911835 289.58557129 C 103.20980835 289.48013306 103.90617371 289.64630127 104.64745331 289.95343018 C 105.40815735 290.36706543 106.16660309 290.88552856 106.87116241 291.56466675 C 107.64392853 292.30606079 108.54504395 293.05273438 107.26910400 298.25442505" stroke-width="1.04225671" fill="rgb(239, 243, 214)" opacity="1.0" stroke="rgb(197, 214, 177)" stroke-opacity="0.39941925" stroke-linecap="round" stroke-linejoin="round"/>
    <path d="M 145.49377441 298.56646729 C 146.21253967 299.07974243 146.89704895 299.61874390 147.58639526 300.18572998 C 148.16386414 300.73736572 148.54460144 301.33868408 148.70854187 302.08340454 C 148.81692505 302.88455200 148.89236450 303.66882324 148.89468384 304.42193604 C 148.66258240 305.15588379 148.21940613 305.91387939 147.64933777 306.57803345 C 147.05343628 307.12765503 146.32417297 307.66860962 145.49893188 308.06948853 C 144.64749146 308.30017090 143.71003723 308.41384888 142.78829956 308.48565674 C 141.95283508 308.34588623 141.12629700 308.05270386 140.31109619 307.59854126 C 139.53570557 306.96484375 138.88938904 306.26977539 138.51121521 305.32946777 C 138.31289673 304.18521118 138.23774719 302.93609619 138.32298279 301.63421631 C 138.60536194 300.13168335 138.99961853 298.61944580 145.49377441 298.56646729" stroke-width="1.45783639" fill="rgb(238, 240, 210)" opacity="1.0" stroke="rgb(145, 181, 132)" stroke-opacity="0.22530894" stroke-linecap="round" stroke-linejoin="round"/>
    <path d="M 28.42171669 375.30331421 C 28.37903214 375.34286499 28.38563347 375.33786011 28.38029861 375.34414673 C 28.33349037 375.35372925 28.33499908 375.36633301 28.32357788 375.35894775 C 28.30749130 375.39715576 28.28912926 375.37057495 28.28596115 375.38714600 C 28.26430321 375.41006470 28.25182152 375.39624023 28.25287056 375.40960693 C 28.22687340 375.41915894 28.23513794 375.41979980 28.21927834 375.40759277 C 28.20882225 375.44100952 28.20944595 375.42391968 28.20517159 375.42053223 C 28.19454575 375.43075562 28.18688011 375.44378662 28.19065475 375.42495728 C 28.18906593 375.42611694 28.18304253 375.45285034 28.17121124 375.42681885 C 28.18447495 375.43087769 28.16032600 375.44631958 28.17982483 375.44326782 C 28.15375328 375.43698120 28.17352676 375.45172119 28.42171669 375.30331421" stroke-width="0.00000000" fill="rgb(183, 255, 255)" opacity="1.0" stroke="rgb(78, 230, 255)" stroke-opacity="0.5774941" stroke-linecap="round" stroke-linejoin="round"/>
    <path d="M 199.72506714 302.67092896 C 199.36305237 303.21618652 198.99551392 303.75573730 198.53337097 304.21435547 C 198.00473022 304.57318115 197.40875244 304.82104492 196.81745911 304.86260986 C 196.23504639 304.77005005 195.61669922 304.49145508 194.98254395 304.15365601 C 194.31709290 303.83020020 193.77441406 303.42733765 193.29748535 302.96960449 C 192.84654236 302.57592773 192.50611877 302.13577271 192.26152039 301.72201538 C 192.14184570 301.29934692 192.18280029 300.78436279 192.24142456 300.34796143 C 192.42617798 299.90884399 192.70935059 299.60760498 193.06529236 299.34527588 C 193.54479980 299.23129272 194.09042358 299.16613770 194.65258789 299.17037964 C 195.30923462 299.22869873 196.06507874 299.13668823 196.84834290 299.07992554 C 197.65959167 299.07336426 198.48123169 299.15936279 199.72506714 302.67092896" stroke-width="1.76215363" fill="rgb(238, 240, 196)" opacity="1.0" stroke="rgb(255, 254, 217)" stroke-opacity="0.7946499" stroke-linecap="round" stroke-linejoin="round"/>
    <path d="M 449.61407471 369.22601318 C 450.24127197 368.68154907 450.92327881 368.23217773 451.63088989 367.93649292 C 452.41558838 367.82180786 453.26577759 367.88110352 454.04977417 367.96661377 C 454.89135742 368.06890869 455.65191650 368.20986938 456.31048584 368.48568726 C 456.86990356 368.92797852 457.31945801 369.49728394 457.58026123 370.12918091 C 457.81903076 370.83740234 457.90985107 371.60101318 457.86517334 372.36508179 C 457.72296143 373.14816284 457.44470215 373.88784790 457.07644653 374.56332397 C 456.62197876 375.23284912 456.06427002 375.79901123 455.46105957 376.25775146 C 454.82031250 376.65429688 454.14929199 376.80123901 453.38366699 376.72409058 C 452.55709839 376.45385742 451.65060425 375.98553467 450.71334839 375.38211060 C 449.73052979 374.71838379 448.62374878 373.97903442 449.61407471 369.22601318" stroke-width="0.73837435" fill="rgb(201, 242, 250)" opacity="1.0" stroke="rgb(198, 247, 247)" stroke-opacity="0.6318356" stroke-linecap="round" stroke-linejoin="round"/>
    <path d="M 273.91009521 383.03399658 C 273.48690796 382.30224609 273.12045288 381.53970337 272.84353638 380.80053711 C 272.63265991 380.04092407 272.60040283 379.25177002 272.61923218 378.51507568 C 272.74722290 377.77590942 273.01434326 377.06982422 273.39843750 376.45181274 C 273.86947632 375.85122681 274.40747070 375.34567261 274.98135376 375.03796387 C 275.67041016 374.87078857 276.38516235 374.80914307 277.13577271 374.87872314 C 277.89678955 375.03109741 278.69888306 375.27059937 279.40045166 375.54879761 C 279.93682861 375.96823120 280.39230347 376.52221680 280.69345093 377.20797729 C 280.96853638 377.98580933 281.15841675 378.83746338 281.16238403 379.69232178 C 280.91119385 380.52706909 280.42581177 381.42187500 279.79470825 382.35546875 C 279.10552979 383.32498169 278.33944702 384.32565308 273.91009521 383.03399658" stroke-width="0.75597483" fill="rgb(203, 241, 245)" opacity="1.0" stroke="rgb(205, 250, 251)" stroke-opacity="0.6361115" stroke-linecap="round" stroke-linejoin="round"/>
    <path d="M 473.14138794 375.52838135 C 474.25286865 375.38861084 475.32302856 375.23577881 476.35855103 375.12545776 C 477.28295898 375.19839478 478.17788696 375.35852051 478.96252441 375.66677856 C 479.60244751 376.14468384 480.05999756 376.64331055 480.46704102 377.27069092 C 480.75335693 377.91317749 480.91067505 378.58999634 480.92892456 379.30230713 C 480.83865356 380.00616455 480.61120605 380.69381714 480.27774048 381.34664917 C 479.86001587 382.00695801 479.45635986 382.61318970 478.94204712 383.13259888 C 478.35028076 383.48052979 477.66540527 383.63479614 476.92584229 383.73568726 C 476.12939453 383.77319336 475.34378052 383.68933105 474.50473022 383.46954346 C 473.68814087 383.06942749 472.89523315 382.53027344 472.10855103 381.83203125 C 471.28796387 381.00149536 470.45455933 380.10330200 473.14138794 375.52838135" stroke-width="0.78446823" fill="rgb(194, 239, 248)" opacity="1.0" stroke="rgb(184, 242, 242)" stroke-opacity="0.637282" stroke-linecap="round" stroke-linejoin="round"/>
    <path d="M 486.67813110 121.97803497 C 485.40438843 120.65272522 484.11447144 119.29365540 482.80606079 118.02178955 C 481.61636353 116.72815704 480.47027588 115.57916260 479.41409302 114.55979919 C 478.43109131 113.59841156 477.61831665 112.72609711 476.97686768 111.94131470 C 476.54205322 111.32455444 476.36016846 110.79483032 476.38314819 110.44471741 C 476.69763184 110.21695709 477.15106201 110.12574768 477.74142456 110.08228302 C 478.40945435 110.18701935 478.96716309 110.56845093 479.45260620 111.23339081 C 480.02737427 112.07681274 480.75997925 112.88272095 481.60357666 113.76655579 C 482.50341797 114.73955536 483.37295532 115.74518585 484.22088623 116.79188538 C 485.15069580 117.76381683 486.21475220 118.65210724 487.31698608 119.52398682 C 488.39425659 120.39719391 489.50244141 121.23890686 486.67813110 121.97803497" stroke-width="0.95071632" fill="rgb(233, 214, 124)" opacity="1.0" stroke="rgb(220, 186, 108)" stroke-opacity="0.48047125" stroke-linecap="round" stroke-linejoin="round"/>
    <path d="M 412.59237671 121.88191223 C 411.94104004 121.70687103 411.32128906 121.62989044 410.85168457 121.59503937 C 410.49374390 121.47884369 410.41452026 121.19315338 410.49032593 120.86620331 C 410.78729248 120.55007172 411.14895630 120.10478973 411.61126709 119.54380798 C 412.15911865 119.01719666 412.81478882 118.46137238 413.48724365 117.90555573 C 414.16781616 117.29824066 414.78845215 116.70400238 415.39370728 116.05355072 C 415.96600342 115.44232941 416.61001587 114.91140747 417.20306396 114.43824005 C 417.62445068 113.90865326 417.92999268 113.36644745 418.15777588 112.83588409 C 418.44183350 112.41160583 418.77053833 112.05388641 419.26199341 111.81993866 C 419.81478882 111.65142059 420.42684937 111.39495087 421.11941528 111.14768219 C 421.99865723 111.07662201 422.87545776 111.06777191 412.59237671 121.88191223" stroke-width="0.94358951" fill="rgb(234, 216, 98)" opacity="1.0" stroke="rgb(201, 199, 119)" stroke-opacity="0.6824861" stroke-linecap="round" stroke-linejoin="round"/>
    <path d="M 525.21319580 376.59732056 C 525.21484375 376.58447266 525.21533203 376.60113525 525.20355225 376.58767700 C 525.22528076 376.58627319 525.21185303 376.60412598 525.20233154 376.59420776 C 525.22058105 376.59060669 525.20654297 376.59924316 525.20880127 376.59893799 C 525.21636963 376.59130859 525.21166992 376.61224365 525.19006348 376.58331299 C 525.23669434 376.60906982 525.19293213 376.59497070 525.21826172 376.58175659 C 525.20953369 376.60769653 525.22015381 376.59692383 525.22015381 376.58560181 C 525.19189453 376.59887695 525.23291016 376.58499146 525.20288086 376.60070801 C 525.22314453 376.58996582 525.21368408 376.58535767 525.20941162 376.59799194 C 525.22131348 376.59750366 525.21636963 376.57177734 525.21179199 376.59234619 C 525.22955322 376.59585571 525.20788574 376.56768799 525.21319580 376.59732056" stroke-width="0.00000000" fill="rgb(0, 0, 0)" opacity="1.0" stroke="rgb(185, 255, 255)" stroke-opacity="1.0" stroke-linecap="round" stroke-linejoin="round"/>
    <path d="M 489.18731689 93.13344574 C 489.20758057 93.12049103 489.19464111 93.12887573 489.20404053 93.12528229 C 489.18737793 93.12134552 489.20266724 93.12604523 489.20681763 93.12400055 C 489.18167114 93.13211823 489.20385742 93.10224915 489.19686890 93.15048218 C 489.19058228 93.11566162 489.18814087 93.11682129 489.20910645 93.13077545 C 489.19100952 93.12448120 489.18475342 93.12316132 489.20922852 93.12112427 C 489.18914795 93.12581635 489.19049072 93.12528229 489.20547485 93.12270355 C 489.18780518 93.13182831 489.21038818 93.11954498 489.19305420 93.14089203 C 489.20065308 93.10783386 489.19601440 93.13464355 489.19848633 93.13618469 C 489.19244385 93.11189270 489.20574951 93.13471222 489.20159912 93.12688446 C 489.18148804 93.12064362 489.21536255 93.13575745 489.18731689 93.13344574" stroke-width="0.00000000" fill="rgb(0, 0, 0)" opacity="1.0" stroke="rgb(227, 255, 255)" stroke-opacity="1.0" stroke-linecap="round" stroke-linejoin="round"/>
    <path d="M 449.86917114 39.27504730 C 449.43261719 39.32583618 449.01763916 39.40818405 448.66461182 39.36617279 C 448.35919189 39.33189392 448.13360596 39.15297699 448.03036499 38.88979721 C 448.03405762 38.46866226 448.00674438 37.98302078 448.03082275 37.34601212 C 448.07110596 36.66728210 448.12405396 35.86368179 448.20919800 35.04545593 C 448.21926880 34.17020035 448.08889771 33.28850174 447.96871948 32.42338181 C 448.03808594 31.59652138 448.13345337 30.68496323 448.06054688 29.87617302 C 448.00433350 29.02370453 448.08731079 28.32971382 448.20315552 27.69865799 C 448.27539062 27.10798264 448.26049805 26.56295204 448.21887207 26.19528770 C 448.25558472 25.99456596 448.42254639 25.94313812 448.72680664 26.03111649 C 449.20324707 26.13489914 449.65173340 26.16421509 449.86917114 39.27504730" stroke-width="0.76331037" fill="rgb(239, 229, 95)" opacity="1.0" stroke="rgb(244, 209, 0)" stroke-opacity="0.462606" stroke-linecap="round" stroke-linejoin="round"/>
    <path d="M 448.62835693 119.89071655 C 448.63742065 120.71466064 448.60305786 121.48704529 448.66281128 122.33128357 C 448.81991577 123.20192719 448.98974609 124.12547302 449.18942261 125.09799957 C 449.32962036 126.09514618 449.28457642 127.11945343 449.03741455 128.09277344 C 448.71984863 129.06672668 448.37188721 130.04788208 448.15649414 131.08450317 C 448.15264893 132.19531250 448.16656494 133.29586792 448.16946411 134.37684631 C 448.26757812 135.39909363 448.38156128 136.16441345 448.46582031 136.73654175 C 448.59600830 137.00079346 448.74600220 136.95216370 448.95507812 136.58995056 C 449.14416504 135.93325806 449.21524048 135.01156616 449.22726440 133.88444519 C 449.26742554 132.60899353 449.28823853 131.19212341 449.05532837 129.77383423 C 448.55590820 128.38566589 447.99609375 126.94636536 448.62835693 119.89071655" stroke-width="0.98256791" fill="rgb(243, 213, 114)" opacity="1.0" stroke="rgb(255, 196, 56)" stroke-opacity="0.45245478" stroke-linecap="round" stroke-linejoin="round"/>
    <path d="M 418.79977417 91.48457336 C 418.75622559 91.50449371 418.77578735 91.55271149 418.76040649 91.58431244 C 418.74829102 91.63892365 418.74038696 91.65016174 418.74002075 91.69374084 C 418.71972656 91.74291992 418.71026611 91.74153900 418.70236206 91.79351044 C 418.66094971 91.81448364 418.67102051 91.83132172 418.62567139 91.85247040 C 418.62265015 91.87737274 418.57562256 91.87418365 418.56643677 91.89836121 C 418.52349854 91.91056824 418.48815918 91.89434814 418.46072388 91.91269684 C 418.40780640 91.91895294 418.38482666 91.88970947 418.32562256 91.89769745 C 418.28057861 91.90114594 418.24966431 91.86785889 418.20172119 91.87755585 C 418.13281250 91.85361481 418.09649658 91.84626770 418.05847168 91.82493591 C 417.98168945 91.82360840 417.95211792 91.78100586 418.79977417 91.48457336" stroke-width="2.00000000" fill="rgb(255, 255, 0)" opacity="1.0" stroke="rgb(250, 212, 0)" stroke-opacity="1.0" stroke-linecap="round" stroke-linejoin="round"/>
    <path d="M 406.64990234 41.15666580 C 407.20181274 40.91332245 407.68228149 40.86945724 408.23727417 40.84736252 C 408.74343872 41.09745789 409.30761719 41.45373154 409.87097168 41.95737457 C 410.54653931 42.42604828 411.23446655 42.86304855 411.91735840 43.36292267 C 412.54528809 43.98199463 413.14379883 44.59700775 413.66589355 45.25625992 C 414.18890381 45.90010071 414.79995728 46.37588120 415.45251465 46.78842545 C 416.07736206 47.18305969 416.62322998 47.66524124 417.08471680 48.16005707 C 417.52340698 48.68242264 417.93600464 49.24688339 418.35452271 49.73945999 C 418.79776001 50.19658279 419.13714600 50.62700653 419.43157959 51.03244019 C 419.64114380 51.46313095 419.75888062 51.84423065 419.90054321 52.20811462 C 420.00811768 52.57726669 420.11026001 52.95439529 406.64990234 41.15666580" stroke-width="0.84011829" fill="rgb(231, 210, 112)" opacity="1.0" stroke="rgb(255, 185, 16)" stroke-opacity="0.3100512" stroke-linecap="round" stroke-linejoin="round"/>
    <path d="M 335.01544189 387.20440674 C 335.02041626 387.19924927 335.00634766 387.21029663 335.02642822 387.19320679 C 335.00216675 387.20346069 335.02120972 387.21298218 335.00735474 387.19445801 C 335.01480103 387.20898438 335.00588989 387.19958496 335.01412964 387.20550537 C 335.00640869 387.20034790 335.00555420 387.20672607 335.02026367 387.20416260 C 334.98834229 387.19818115 335.02325439 387.21112061 335.00320435 387.20272827 C 335.01254272 387.19311523 334.99551392 387.20550537 335.01177979 387.22421265 C 335.01361084 387.18170166 335.00112915 387.20727539 335.00656128 387.21395874 C 335.01531982 387.20034790 335.01409912 387.19970703 334.99328613 387.20770264 C 335.02792358 387.20175171 335.00543213 387.20233154 335.01043701 387.21185303 C 335.01641846 387.20413208 335.00836182 387.20590210 335.01544189 387.20440674" stroke-width="0.00000000" fill="rgb(0, 0, 0)" opacity="1.0" stroke="rgb(91, 255, 255)" stroke-opacity="1.0" stroke-linecap="round" stroke-linejoin="round"/>
    <path d="M 492.29022217 282.31393433 C 492.62142944 281.77752686 493.02416992 281.37396240 493.47177124 281.08139038 C 493.87576294 280.89733887 494.22119141 280.78240967 494.61605835 280.68389893 C 495.03979492 280.59152222 495.44912720 280.56930542 495.80075073 280.71853638 C 496.05233765 280.96087646 496.32855225 281.18847656 496.64935303 281.49511719 C 497.05105591 281.84466553 497.29736328 282.10064697 497.37527466 282.47708130 C 497.31130981 282.92727661 497.18862915 283.41934204 497.09088135 283.93441772 C 497.01345825 284.38754272 496.80459595 284.76608276 496.42660522 285.02542114 C 495.91876221 285.26187134 495.37628174 285.49090576 494.91751099 285.65118408 C 494.42199707 285.62261963 493.93426514 285.57626343 493.32711792 285.56033325 C 492.74313354 285.39031982 492.17434692 285.28094482 492.29022217 282.31393433" stroke-width="0.38450408" fill="rgb(228, 247, 249)" opacity="1.0" stroke="rgb(231, 253, 225)" stroke-opacity="0.53340715" stroke-linecap="round" stroke-linejoin="round"/>
    <path d="M 330.14059448 384.97775269 C 329.00924683 386.00402832 327.91119385 386.73019409 326.83422852 387.02420044 C 325.80526733 386.94256592 324.94641113 386.45431519 324.48083496 385.67974854 C 324.30905151 384.79574585 324.49182129 383.93804932 325.06445312 383.17773438 C 325.98825073 382.74530029 327.06170654 382.65255737 328.18957520 382.89584351 C 329.10266113 383.61599731 329.77713013 384.60614014 330.39672852 385.45220947 C 331.05853271 385.67132568 331.66314697 385.28884888 332.21408081 384.53955078 C 332.86056519 383.88519287 333.75234985 383.48468018 334.78015137 383.47344971 C 335.71957397 383.87243652 336.50332642 384.56881714 336.89413452 385.42373657 C 336.85162354 386.42572021 336.33688354 387.49066162 335.42977905 388.62744141 C 334.19696045 389.74670410 332.85995483 390.89373779 330.14059448 384.97775269" stroke-width="0.73070431" fill="rgb(211, 245, 249)" opacity="1.0" stroke="rgb(174, 226, 223)" stroke-opacity="0.58714724" stroke-linecap="round" stroke-linejoin="round"/>
  </g>
</svg>
