<?xml version="1.0" ?>
<svg xmlns="http://www.w3.org/2000/svg" version="1.1" width="512" height="512" viewBox="0 0 512 512">
  <defs/>
  <g>
    <path d="M 391.81887817 420.47158813 C 385.22470093 428.93072510 378.81124878 437.39260864 372.65307617 445.72817993 C 366.42443848 453.71630859 359.26031494 460.66473389 351.55325317 466.97714233 C 343.62084961 472.89178467 335.50137329 478.36697388 326.56173706 482.66693115 C 317.14715576 486.82723999 307.39419556 490.57754517 297.14898682 493.90682983 C 286.66531372 496.50061035 275.82562256 498.33810425 264.92846680 499.90039062 C 254.20831299 500.20693970 243.68934631 500.18164062 233.33482361 499.89010620 C 223.18406677 498.36709595 213.19331360 495.71234131 203.55432129 492.07803345 C 193.99832153 488.11727905 184.66755676 483.52838135 175.91674805 478.23159790 C 166.83805847 473.41558838 158.63885498 467.59606934 151.04434204 460.53753662 C 143.34690857 453.30099487 136.38127136 445.39831543 130.23204041 436.61010742 C 124.91210938 427.39926147 119.78414917 417.92938232 115.65422821 407.96676636 C 112.30807495 397.21731567 109.09459686 386.43759155 106.14341736 375.59472656 C 104.03367615 364.99536133 103.67530823 354.42913818 104.16419983 343.85177612 C 106.02816772 333.46273804 108.41433716 322.87448120 110.96053314 312.33630371 C 114.02555084 302.33410645 117.85484314 292.71575928 122.62808990 283.35186768 C 128.48884583 274.76718140 135.21492004 266.64169312 141.89927673 258.54589844 C 148.19589233 250.28160095 154.81530762 242.41633606 161.89489746 235.34756470 C 169.44807434 229.14848328 177.18621826 223.48107910 185.37367249 218.49815369 C 193.82530212 214.21243286 202.66967773 210.16152954 211.88226318 207.16362000 C 221.47421265 205.31196594 231.22613525 203.42143250 241.14898682 202.00453186 C 251.05558777 201.97004700 261.17260742 201.92205811 271.49331665 202.07008362 C 281.66738892 203.82762146 291.84988403 205.29891968 301.98367310 207.10464478 C 311.35351562 211.16551208 320.94531250 215.20028687 330.48364258 219.32485962 C 339.30038452 224.56753540 347.63665771 230.53153992 355.57568359 237.14608765 C 363.40356445 244.33262634 370.31616211 252.23228455 376.35247803 261.11212158 C 382.30664062 270.23788452 387.82336426 279.41098022 392.88281250 288.66653442 C 396.49630737 298.37551880 399.66531372 307.97326660 402.69958496 316.98474121 C 405.20944214 325.69851685 405.51153564 334.62991333 404.83374023 343.87435913 C 405.15283203 353.54452515 405.51306152 363.49472046 404.26300049 373.51321411 C 401.65722656 383.39440918 400.28125000 393.53350830 391.81887817 420.47158813" stroke-width="1.28250897" fill="rgb(255, 255, 255)" opacity="1.0" stroke="rgb(255, 255, 255)" stroke-opacity="0.0" stroke-linecap="round" stroke-linejoin="round"/>
    <path d="M 344.92703247 357.90322876 C 339.64578247 358.72445679 334.35238647 359.33636475 328.97589111 359.28146362 C 323.48587036 359.26705933 317.90771484 359.48898315 312.32479858 359.83984375 C 306.76812744 360.21630859 301.29125977 360.75885010 295.76470947 361.48712158 C 290.18618774 362.14950562 284.51879883 362.77706909 278.81497192 363.45306396 C 273.08193970 364.25396729 267.28448486 364.81549072 261.38577271 364.93188477 C 255.34172058 364.93496704 249.16638184 364.86407471 242.97161865 364.68908691 C 236.73477173 364.44042969 230.39060974 364.27935791 223.99124146 364.17053223 C 217.61929321 363.81896973 211.31347656 363.31903076 205.07810974 362.73220825 C 198.94938660 362.10961914 192.89082336 361.35772705 186.95945740 360.51831055 C 181.21722412 359.69384766 175.75120544 358.79165649 170.63819885 358.01022339 C 166.01991272 357.18225098 162.05227661 355.63830566 158.77554321 353.20315552 C 156.17985535 350.24673462 154.06745911 347.18048096 152.37002563 344.11544800 C 151.13101196 341.08340454 150.48229980 338.12887573 150.51075745 335.24121094 C 151.22354126 332.46469116 152.63334656 329.84619141 154.68405151 327.37322998 C 157.33700562 324.98785400 160.49618530 322.76272583 164.12495422 320.75772095 C 168.15824890 318.88894653 172.54040527 317.10562134 177.19528198 315.42233276 C 182.13404846 313.84896851 187.27349854 312.39608765 192.53993225 311.02227783 C 197.96705627 309.71875000 203.47364807 308.46124268 209.02319336 307.26324463 C 214.62677002 306.16305542 220.22973633 305.09841919 225.80570984 304.09906006 C 231.40524292 303.18405151 236.94317627 302.34738159 242.40109253 301.58935547 C 247.83407593 300.94848633 253.21234131 300.37332153 258.54623413 299.89096069 C 263.81430054 299.57369995 269.02569580 299.41406250 274.15899658 299.34835815 C 279.26351929 299.44155884 284.35794067 299.68362427 289.36126709 300.05661011 C 294.35766602 300.55831909 299.33718872 301.24655151 304.30493164 302.12878418 C 309.29153442 303.08349609 314.36499023 304.15139771 319.35537720 305.49090576 C 324.17739868 307.13513184 328.92208862 309.04284668 333.59924316 311.23141479 C 338.11035156 313.69732666 342.33666992 316.62487793 346.14920044 320.10989380 C 349.54525757 324.11895752 352.68624878 328.51855469 356.08267212 332.89367676 C 359.94555664 337.04800415 364.14596558 341.05947876 368.48840332 344.90383911 C 372.81234741 348.48764038 376.99847412 351.70040894 344.92703247 357.90322876" stroke-width="2.00000000" fill="rgb(248, 202, 84)" opacity="1.0" stroke="rgb(242, 159, 111)" stroke-opacity="0.39051226" stroke-linecap="round" stroke-linejoin="round"/>
    <path d="M 317.29382324 361.73422241 C 311.35830688 362.33520508 305.45770264 362.94631958 299.59552002 363.55105591 C 293.69146729 363.94705200 287.74588013 364.00741577 281.85177612 363.73623657 C 275.93658447 363.46197510 270.06802368 363.21133423 264.24002075 362.97949219 C 258.49414062 362.65139771 252.87434387 362.25506592 247.37612915 361.86007690 C 241.99975586 361.37411499 236.83428955 360.68728638 231.96821594 359.82888794 C 227.35311890 358.90982056 222.99684143 357.87310791 218.95196533 356.65719604 C 215.31658936 355.31011963 212.03500366 353.91091919 209.12715149 352.41708374 C 206.69876099 350.82089233 204.68536377 349.24819946 203.17649841 347.76358032 C 202.17691040 346.31756592 201.66909790 344.94082642 201.73420715 343.85150146 C 202.43222046 343.09219360 203.68399048 342.72271729 205.56340027 342.73788452 C 207.96966553 342.90795898 210.89033508 343.19683838 214.25526428 343.67822266 C 218.09025574 344.33700562 222.19908142 344.94918823 226.48982239 345.91528320 C 230.94984436 346.85055542 235.65193176 348.00463867 240.60282898 349.08319092 C 245.64979553 349.93200684 250.75604248 350.44403076 255.84947205 350.48348999 C 260.96954346 350.03115845 266.19183350 349.16506958 271.46554565 348.04394531 C 276.77218628 347.00561523 282.05978394 346.17556763 287.32302856 345.40408325 C 292.55187988 344.44601440 297.91998291 343.76837158 303.21917725 343.20074463 C 308.39758301 342.59738159 313.53228760 341.70745850 318.67138672 340.66983032 C 323.79556274 339.72009277 328.86145020 338.46289062 333.93106079 336.93130493 C 338.98284912 335.36294556 344.01788330 333.73364258 317.29382324 361.73422241" stroke-width="2.00000000" fill="rgb(163, 118, 59)" opacity="1.0" stroke="rgb(243, 206, 142)" stroke-opacity="0.4761273" stroke-linecap="round" stroke-linejoin="round"/>
    <path d="M 352.85546875 324.52233887 C 349.98898315 320.65472412 346.68710327 317.52362061 342.74618530 315.48712158 C 338.07281494 314.57781982 332.78607178 314.59695435 327.13858032 315.29733276 C 321.17858887 316.47064209 315.00238037 317.95092773 308.73269653 319.50888062 C 302.35610962 321.03665161 295.92294312 322.45675659 289.41046143 323.60662842 C 282.86120605 324.44555664 276.22442627 324.98254395 269.54461670 325.24456787 C 262.74227905 325.34082031 255.81187439 325.39001465 248.71948242 325.32305908 C 241.44657898 325.02749634 234.16738892 324.45297241 226.98025513 323.62686157 C 219.86875916 322.64285278 212.85350037 321.60589600 206.02056885 320.54162598 C 199.46740723 319.64389038 193.34669495 319.17123413 187.72731018 319.33520508 C 182.73068237 320.29421997 178.49365234 322.21936035 174.99661255 325.10061646 C 171.85969543 328.39071655 169.01869202 331.42990112 165.91227722 333.63491821 C 162.41810608 334.14184570 158.88681030 333.38272095 155.68428040 331.61944580 C 153.35577393 328.70846558 151.29258728 325.38571167 149.64851379 321.68600464 C 148.61430359 317.83532715 148.42538452 313.93405151 149.16642761 310.08111572 C 150.47311401 306.47088623 152.85328674 303.45312500 156.05455017 301.00942993 C 159.29885864 298.93862915 163.02645874 297.84353638 166.69767761 297.07067871 C 169.60118103 294.55255127 172.90396118 291.82205200 176.92442322 289.70141602 C 181.66130066 288.20095825 187.03414917 287.19842529 192.76432800 286.55874634 C 198.72494507 286.13949585 204.89581299 285.89248657 211.25537109 285.83547974 C 217.69888306 285.86499023 224.22842407 285.93411255 230.85699463 285.98104858 C 237.50926208 286.03472900 244.18852234 286.12600708 250.84848022 286.28396606 C 257.53793335 286.45056152 264.26132202 286.57318115 271.00921631 286.59671021 C 277.66619873 286.55606079 284.23693848 286.62527466 290.74008179 286.82427979 C 297.25512695 287.07574463 303.69723511 287.32263184 310.02404785 287.58676147 C 316.17407227 287.97418213 322.12911987 288.58139038 327.81771851 289.60491943 C 333.13198853 291.13803101 338.01522827 293.12106323 342.48211670 295.39431763 C 346.75332642 297.27462769 350.84042358 298.53442383 354.28707886 300.60256958 C 357.59652710 302.93783569 359.94573975 305.64517212 361.30963135 309.20748901 C 362.18927002 313.07360840 362.22454834 316.83605957 361.08450317 320.18008423 C 360.44113159 323.01202393 360.70129395 325.65121460 352.85546875 324.52233887" stroke-width="2.00000000" fill="rgb(246, 214, 112)" opacity="1.0" stroke="rgb(171, 111, 74)" stroke-opacity="1.0" stroke-linecap="round" stroke-linejoin="round"/>
    <path d="M 356.12960815 313.40637207 C 348.86813354 317.69305420 341.09667969 320.89019775 332.67364502 322.98950195 C 323.85940552 325.12612915 314.62478638 326.67199707 304.91476440 328.13711548 C 294.98553467 329.38311768 284.89968872 330.15725708 274.53189087 330.70101929 C 264.10247803 330.92031860 253.73771667 330.96307373 243.43627930 330.63833618 C 233.27293396 329.89547729 223.21238708 329.05615234 213.36187744 327.97463989 C 203.97039795 326.98724365 195.16009521 325.51492310 186.90495300 323.70959473 C 179.18898010 322.28488159 172.33316040 320.48330688 166.50334167 318.73849487 C 161.70814514 317.05435181 157.94018555 315.68148804 155.78817749 314.17224121 C 155.64315796 311.53799438 156.60650635 308.49447632 159.03477478 306.29064941 C 162.84194946 305.13040161 167.12911987 304.66278076 171.67164612 304.82092285 C 175.63470459 307.40057373 180.19639587 310.13684082 185.90383911 312.23294067 C 192.33247375 314.52709961 199.54714966 316.43234253 207.40687561 318.14569092 C 215.76005554 319.91403198 224.43916321 321.04464722 233.51393127 321.83810425 C 243.00753784 322.42327881 252.56065369 322.83923340 262.07931519 322.70007324 C 271.64196777 322.52938843 281.05212402 322.07727051 290.14675903 321.04440308 C 299.04296875 319.65243530 307.50497437 317.85189819 315.54760742 315.87149048 C 322.92663574 313.97793579 329.59902954 311.56228638 335.05520630 308.45443726 C 339.61938477 305.75222778 342.82095337 302.86755371 345.17614746 300.83596802 C 348.62026978 302.11724854 352.10522461 304.51080322 355.26141357 306.36483765 C 357.78591919 304.95098877 359.43420410 302.26473999 356.12960815 313.40637207" stroke-width="1.57947266" fill="rgb(199, 134, 48)" opacity="1.0" stroke="rgb(151, 92, 22)" stroke-opacity="1.0" stroke-linecap="round" stroke-linejoin="round"/>
    <path d="M 335.86538696 292.64520264 C 332.48397827 294.69891357 328.90487671 296.28259277 324.90844727 297.37911987 C 320.64736938 297.81433105 316.24948120 298.47146606 311.65994263 299.30740356 C 307.04568481 300.12905884 302.35943604 300.70739746 297.38815308 300.77487183 C 292.24307251 301.31503296 286.98535156 301.67858887 281.64474487 302.24752808 C 276.14410400 302.50708008 270.43499756 302.52276611 264.58703613 302.53854370 C 258.74676514 302.56301880 252.91223145 302.55892944 247.07678223 302.45559692 C 241.24534607 302.62875366 235.35235596 302.36935425 229.39453125 301.71694946 C 223.35632324 301.35156250 217.47541809 300.67324829 211.62522888 299.98800659 C 205.75564575 299.21176147 200.05158997 298.51754761 194.65205383 297.56262207 C 189.50932312 296.52697754 184.87904358 295.34927368 180.84817505 294.12530518 C 177.51220703 292.55264282 174.44009399 291.98004150 171.43510437 292.47277832 C 168.52726746 292.81420898 165.76541138 292.70928955 163.25585938 292.48394775 C 161.83132935 290.77661133 160.92616272 288.08795166 160.36842346 285.10882568 C 159.72320557 282.20709229 160.00086975 279.79476929 161.66935730 277.38809204 C 163.84301758 274.38592529 166.77511597 271.49032593 170.40432739 268.81631470 C 174.40921021 266.09945679 178.71154785 263.46212769 183.28833008 260.93658447 C 188.00537109 258.52777100 192.88557434 256.31909180 197.95065308 254.33535767 C 203.13322449 252.52967834 208.35180664 250.91297913 213.63508606 249.50212097 C 218.95487976 248.25184631 224.24708557 247.17791748 229.48271179 246.30340576 C 234.73699951 245.65797424 239.99563599 245.18469238 245.27369690 244.87675476 C 250.52197266 244.72972107 255.72399902 244.71339417 260.90093994 244.87884521 C 266.11038208 245.22012329 271.39144897 245.75422668 276.76837158 246.48783875 C 282.16424561 247.38313293 287.47869873 248.45222473 292.78268433 249.68634033 C 298.16995239 251.07159424 303.56863403 252.66244507 308.90203857 254.44132996 C 314.16519165 256.26766968 319.34661865 258.14004517 324.40420532 260.15518188 C 329.34689331 262.22817993 334.14099121 264.16201782 338.61407471 265.96951294 C 342.79049683 267.57604980 346.35464478 269.33639526 349.02169800 271.84963989 C 351.71008301 274.00579834 353.56143188 276.34341431 354.21896362 279.20178223 C 353.93771362 282.35186768 352.79208374 285.66506958 350.55633545 288.79812622 C 348.08932495 292.22885132 345.97750854 295.77273560 335.86538696 292.64520264" stroke-width="2.00000000" fill="rgb(246, 210, 112)" opacity="1.0" stroke="rgb(197, 121, 34)" stroke-opacity="0.90852326" stroke-linecap="round" stroke-linejoin="round"/>
    <path d="M 336.29870605 287.92977905 C 330.60510254 290.51934814 324.44644165 292.45666504 317.90164185 293.92538452 C 311.19003296 295.33203125 304.18353271 296.49026489 296.72067261 297.31173706 C 288.98977661 298.34378052 281.03781128 299.18579102 273.03106689 299.42855835 C 264.64382935 299.79904175 256.16763306 299.90130615 247.52995300 299.59558105 C 238.70906067 299.50964355 229.85974121 298.82992554 221.01026917 297.62216187 C 212.33010864 296.54299927 204.06265259 295.21423340 195.92584229 293.56274414 C 188.36155701 291.92974854 181.62979126 290.20584106 175.84042358 287.71557617 C 170.84101868 285.43930054 167.23217773 283.14163208 165.26608276 281.05172729 C 164.86528015 279.73886108 165.93595886 279.24176025 168.53413391 279.38217163 C 172.11857605 279.54809570 176.32125854 279.39157104 180.51164246 279.25485229 C 184.40203857 281.18231201 188.86877441 283.28234863 194.01382446 285.24716187 C 199.64749146 287.23806763 205.95306396 288.92510986 212.85714722 290.20193481 C 220.09991455 291.69512939 227.67163086 292.97418213 235.59266663 293.83679199 C 243.77711487 294.57382202 252.03176880 294.84872437 260.32238770 295.11273193 C 268.62847900 295.06661987 276.88394165 294.54400635 285.01699829 293.52902222 C 292.89700317 292.53311157 300.42977905 291.19647217 307.52795410 289.24185181 C 314.36230469 287.17990112 320.79223633 285.39154053 326.27108765 282.90142822 C 331.17596436 280.43820190 335.03244019 277.64324951 338.13629150 275.27978516 C 341.29983521 274.82852173 344.04763794 275.17388916 346.59536743 276.61624146 C 349.27365112 278.69345093 351.96624756 280.46359253 336.29870605 287.92977905" stroke-width="2.00000000" fill="rgb(220, 150, 49)" opacity="1.0" stroke="rgb(99, 38, 2)" stroke-opacity="0.8574992" stroke-linecap="round" stroke-linejoin="round"/>
    <path d="M 336.57852173 264.21124268 C 331.96725464 264.66668701 327.55575562 265.61630249 323.29290771 267.09774780 C 319.00469971 268.46365356 314.63116455 269.54321289 310.24264526 270.47015381 C 305.86218262 271.35955811 301.39291382 272.10403442 296.90051270 272.48870850 C 292.41189575 272.99011230 287.89907837 273.68368530 283.29391479 274.32537842 C 278.58889771 274.58560181 273.83078003 274.62493896 268.98800659 274.56161499 C 264.02160645 274.66976929 258.94546509 274.69183350 253.75984192 274.60455322 C 248.43244934 274.57608032 243.04362488 274.58386230 237.72517395 274.56335449 C 232.50575256 274.09497070 227.22706604 273.37670898 221.94737244 272.74444580 C 216.66073608 272.36929321 211.56646729 271.58267212 206.43305969 270.31973267 C 201.46484375 269.17816162 196.75358582 268.05242920 192.40785217 266.60018921 C 188.51632690 265.16357422 184.95690918 264.25109863 181.56053162 264.29129028 C 178.34516907 264.72372437 175.54235840 264.74136353 173.25558472 264.18298340 C 171.78033447 262.24121094 170.45101929 259.51467896 169.16624451 256.53701782 C 168.07266235 253.67851257 167.81176758 250.91528320 168.52424622 248.14659119 C 169.47372437 245.43931580 171.51017761 243.26667786 174.34785461 241.38500977 C 177.49749756 239.53608704 181.04647827 237.96083069 185.17785645 236.66027832 C 189.44175720 235.37495422 193.98373413 233.98489380 198.66529846 232.88519287 C 203.55383301 231.61958313 208.68281555 230.62825012 213.75234985 229.82186890 C 218.85688782 228.87957764 224.18147278 228.33547974 229.37405396 227.74348450 C 234.49700928 227.42565918 239.60078430 227.19845581 244.61709595 227.08015442 C 249.51063538 226.86872864 254.28018188 226.82867432 259.04061890 226.68574524 C 263.90060425 227.02784729 268.79855347 227.08815002 273.59851074 227.13656616 C 278.46533203 227.54985046 283.43850708 228.01492310 288.48886108 228.40901184 C 293.34985352 228.88764954 298.12701416 229.52005005 303.00210571 230.37593079 C 307.72717285 231.00205994 312.39620972 231.99580383 317.06124878 233.28120422 C 321.61767578 234.35966492 326.11291504 235.75553894 330.32119751 237.14881897 C 334.19888306 238.61163330 337.70574951 240.21156311 340.63110352 241.98280334 C 343.18185425 243.62600708 344.90222168 245.69903564 345.89468384 248.18878174 C 346.46340942 251.00012207 346.10025024 254.31460571 345.16156006 258.07974243 C 344.05062866 261.94549561 342.84094238 265.87054443 336.57852173 264.21124268" stroke-width="1.95431697" fill="rgb(233, 173, 74)" opacity="1.0" stroke="rgb(186, 127, 59)" stroke-opacity="1.0" stroke-linecap="round" stroke-linejoin="round"/>
    <path d="M 340.06011963 253.74655151 C 334.69351196 257.34878540 329.07553101 260.29711914 322.84991455 262.48236084 C 316.18862915 264.20874023 309.29006958 265.71832275 302.00677490 266.92138672 C 294.49459839 268.08148193 286.92419434 269.00802612 279.31735229 269.68655396 C 271.58047485 270.16885376 263.77954102 270.38653564 256.11413574 270.49963379 C 248.63432312 270.33779907 241.32505798 270.15133667 234.17169189 269.91131592 C 227.28103638 269.32708740 220.68067932 268.68563843 214.43492126 267.81082153 C 208.56304932 266.88092041 202.99394226 265.97238159 197.97364807 264.91201782 C 193.56329346 263.74465942 189.64004517 262.66363525 186.37675476 261.69348145 C 183.82092285 260.78198242 182.04487610 260.26321411 181.08312988 259.77841187 C 181.21470642 258.95538330 182.26689148 258.31387329 184.26591492 258.13623047 C 187.23591614 258.16073608 190.92848206 258.68347168 195.16261292 259.63375854 C 200.09452820 260.42065430 205.59091187 261.24822998 211.49745178 262.39813232 C 217.89466858 263.06469727 224.57771301 263.80862427 231.34860229 264.58181763 C 238.16831970 265.39810181 245.04202271 265.57443237 252.05751038 265.50372314 C 259.15911865 265.49407959 266.21978760 265.46197510 273.10461426 265.30480957 C 279.78384399 264.63009644 286.43493652 264.13854980 292.81750488 263.46902466 C 298.74090576 262.60003662 304.39733887 261.77093506 309.90414429 261.22354126 C 315.12637329 260.26403809 320.13354492 259.09732056 324.88552856 257.92611694 C 329.28897095 256.68383789 333.33279419 255.20259094 336.96997070 253.07835388 C 340.18518066 250.45791626 343.33551025 247.89938354 340.06011963 253.74655151" stroke-width="2.00000000" fill="rgb(223, 142, 48)" opacity="1.0" stroke="rgb(146, 67, 10)" stroke-opacity="0.8343566" stroke-linecap="round" stroke-linejoin="round"/>
    <path d="M 373.42562866 348.81216431 C 365.30880737 352.13467407 356.89389038 354.63516235 348.00582886 356.28082275 C 338.94467163 357.97421265 329.56964111 359.64822388 319.98968506 360.69247437 C 310.06283569 361.64416504 299.89160156 362.69641113 289.69699097 363.49191284 C 279.23696899 363.81890869 268.59573364 363.98440552 257.96762085 364.01339722 C 247.42541504 364.15078735 236.91435242 363.81848145 226.41030884 363.26052856 C 215.90206909 362.76947021 205.67279053 362.21343994 195.86228943 360.94851685 C 186.22373962 359.75250244 177.12721252 358.19213867 168.55039978 356.71826172 C 160.56170654 355.50415039 153.59869385 353.76519775 147.53521729 351.64102173 C 142.54843140 349.91903687 138.75340271 347.61318970 136.18951416 345.20144653 C 135.15177917 342.61984253 135.59298706 340.21127319 137.64129639 337.81787109 C 141.19108582 335.85614014 145.64268494 333.88687134 150.61770630 332.14041138 C 156.49668884 333.02459717 163.31770325 335.03790283 171.23777771 337.05148315 C 180.06521606 339.11019897 189.62977600 341.59893799 199.94668579 343.70593262 C 210.85359192 345.50347900 222.07284546 347.46362305 233.47229004 349.25329590 C 245.03857422 350.60028076 256.75347900 351.17593384 268.46804810 351.03549194 C 280.00640869 350.22842407 291.19360352 348.83007812 301.97177124 346.87350464 C 312.37554932 344.58285522 322.23837280 342.20837402 331.32992554 339.65002441 C 339.56838989 336.76034546 346.92251587 333.87548828 353.62609863 331.84896851 C 359.74588013 331.58200073 365.40652466 333.34597778 371.13647461 336.06753540 C 376.85177612 339.11306763 382.56939697 342.67276001 373.42562866 348.81216431" stroke-width="1.87554336" fill="rgb(240, 156, 98)" opacity="1.0" stroke="rgb(184, 83, 58)" stroke-opacity="1.0" stroke-linecap="round" stroke-linejoin="round"/>
    <path d="M 347.41458130 340.96264648 C 341.08822632 344.09640503 334.33190918 346.45333862 327.18386841 348.35638428 C 319.76394653 350.21026611 311.91192627 351.47277832 303.66198730 352.39276123 C 295.23498535 353.18722534 286.51989746 354.14355469 277.63427734 354.57409668 C 268.76968384 355.16088867 259.86416626 355.43637085 250.74279785 355.37289429 C 241.57785034 355.22399902 232.53599548 354.67791748 223.54188538 354.08206177 C 214.53884888 353.24014282 205.81199646 352.31552124 197.33267212 351.03979492 C 189.27136230 349.49456787 181.87623596 347.73074341 175.20838928 345.31967163 C 169.09806824 343.26565552 164.06991577 340.86245728 160.11546326 337.96682739 C 157.03796387 335.41848755 155.13153076 333.21081543 154.46371460 331.83731079 C 155.49581909 331.41284180 157.62171936 331.14660645 160.48072815 331.25177002 C 163.80174255 333.17736816 167.88917542 335.36511230 173.19146729 337.11190796 C 179.23622131 339.19180298 185.80180359 341.33291626 192.94670105 343.26766968 C 200.56736755 344.74404907 208.72496033 345.53085327 217.02464294 346.52285767 C 225.46621704 347.32464600 234.03140259 347.95175171 242.79594421 348.31039429 C 251.59385681 348.47406006 260.21948242 348.39773560 268.76651001 348.23413086 C 277.40234375 347.65304565 285.96582031 347.47372437 294.33728027 346.58233643 C 302.49700928 345.95864868 310.49880981 345.06530762 318.20394897 343.57763672 C 325.60247803 342.15679932 332.61160278 340.17614746 339.00613403 337.49600220 C 345.16207886 334.77420044 350.56790161 331.52697754 355.31088257 327.79177856 C 361.60107422 326.77154541 368.18307495 325.99417114 347.41458130 340.96264648" stroke-width="2.00000000" fill="rgb(232, 173, 66)" opacity="1.0" stroke="rgb(88, 12, 0)" stroke-opacity="0.77767783" stroke-linecap="round" stroke-linejoin="round"/>
    <path d="M 257.65704346 155.12765503 C 257.69601440 157.92819214 257.28805542 160.66578674 256.60043335 162.99014282 C 255.83277893 164.66920471 254.58352661 165.68415833 253.09597778 166.21578979 C 251.49400330 166.31445312 250.08950806 165.95123291 248.69725037 165.46568298 C 247.53997803 164.84167480 246.58987427 164.15679932 245.87164307 163.14300537 C 245.36950684 162.04046631 244.85485840 161.06648254 244.65275574 159.93983459 C 244.91654968 158.38075256 245.47616577 156.54756165 246.16362000 154.68830872 C 246.99269104 152.89834595 247.91213989 151.23812866 248.65455627 149.52821350 C 249.33537292 147.94314575 249.72016907 146.41209412 249.97412109 144.93725586 C 250.21664429 143.53849792 250.75704956 142.50938416 251.88186646 141.85867310 C 253.06004333 141.25088501 254.18916321 140.51504517 257.65704346 155.12765503" stroke-width="2.00000000" fill="rgb(245, 217, 130)" opacity="1.0" stroke="rgb(170, 95, 0)" stroke-opacity="0.7885679" stroke-linecap="round" stroke-linejoin="round"/>
    <path d="M 224.54573059 241.24266052 C 223.77764893 242.42750549 222.98872375 243.34895325 222.20576477 244.07215881 C 221.57901001 244.48530579 221.35627747 244.88380432 221.81134033 245.36679077 C 222.83544922 245.75703430 224.01637268 246.44515991 225.20333862 247.39393616 C 226.61984253 248.33270264 228.16847229 248.62948608 229.58143616 248.47422791 C 230.43344116 248.68121338 230.68280029 249.21743774 230.60336304 249.48939514 C 230.26516724 249.52803040 229.81129456 249.38449097 229.11633301 249.34870911 C 227.89855957 249.52215576 226.32760620 249.83972168 224.59164429 249.93768311 C 222.58195496 249.84867859 220.27272034 249.46501160 217.89303589 248.67532349 C 215.69845581 247.91375732 213.90582275 246.93881226 212.29536438 245.42063904 C 210.63098145 243.91355896 209.00355530 242.89152527 224.54573059 241.24266052" stroke-width="2.00000000" fill="rgb(248, 239, 190)" opacity="1.0" stroke="rgb(192, 118, 1)" stroke-opacity="0.54267836" stroke-linecap="round" stroke-linejoin="round"/>
  </g>
</svg>
