<svg xmlns="http://www.w3.org/2000/svg" viewBox="0 0 512 512" height="512.0px" width="512.0px">
<path id="" fill="#000000" fill-opacity="1.0" stroke="#000000" stroke-width="0.0" stroke-opacity="1.0" stroke-linecap="round" stroke-linejoin="round"  filling="0" d="M0.000000 0.000000 C170.666672 0.000000 341.333313 0.000000 512.000000 0.000000 C512.000000 170.666672 512.000000 341.333313 512.000000 512.000000 C341.333313 512.000000 170.666672 512.000000 0.000000 512.000000 C0.000000 341.333313 0.000000 170.666672 0.000000 0.000000"></path>
<path id="" fill="#ffffff" fill-opacity="1.0" stroke="#000000" stroke-width="0.0" stroke-opacity="1.0" stroke-linecap="round" stroke-linejoin="round"  filling="0" d="M52.000000 50.000000 C52.000000 50.530228 51.789143 51.039288 51.414215 51.414215 C51.039288 51.789143 50.530228 52.000000 50.000000 52.000000 C49.469772 52.000000 48.960712 51.789143 48.585785 51.414215 C48.210857 51.039288 48.000000 50.530228 48.000000 50.000000 C48.000000 49.469772 48.210857 48.960712 48.585785 48.585785 C48.960712 48.210857 49.469772 48.000000 50.000000 48.000000 C50.530228 48.000000 51.039288 48.210857 51.414215 48.585785 C51.789143 48.960712 52.000000 49.469772 52.000000 50.000000"></path>
<path id="" fill="#ffffff" fill-opacity="1.0" stroke="#000000" stroke-width="0.0" stroke-opacity="1.0" stroke-linecap="round" stroke-linejoin="round"  filling="0" d="M252.000000 30.000000 C252.000000 30.530230 251.789139 31.039284 251.414215 31.414213 C251.039291 31.789143 250.530228 32.000000 250.000000 32.000000 C249.469772 32.000000 248.960709 31.789143 248.585785 31.414213 C248.210861 31.039284 248.000000 30.530230 248.000000 30.000000 C248.000000 29.469770 248.210861 28.960716 248.585785 28.585787 C248.960709 28.210857 249.469772 28.000000 250.000000 28.000000 C250.530228 28.000000 251.039291 28.210857 251.414215 28.585787 C251.789139 28.960716 252.000000 29.469770 252.000000 30.000000"></path>
<path id="" fill="#ffffff" fill-opacity="1.0" stroke="#000000" stroke-width="0.0" stroke-opacity="1.0" stroke-linecap="round" stroke-linejoin="round"  filling="0" d="M452.000000 40.000000 C452.000000 40.530228 451.789154 41.039288 451.414215 41.414215 C451.039276 41.789143 450.530243 42.000000 450.000000 42.000000 C449.469757 42.000000 448.960724 41.789143 448.585785 41.414215 C448.210846 41.039288 448.000000 40.530228 448.000000 40.000000 C448.000000 39.469772 448.210846 38.960712 448.585785 38.585785 C448.960724 38.210857 449.469757 38.000000 450.000000 38.000000 C450.530243 38.000000 451.039276 38.210857 451.414215 38.585785 C451.789154 38.960712 452.000000 39.469772 452.000000 40.000000"></path>
<path id="" fill="#1e90ff" fill-opacity="1.0" stroke="#000000" stroke-width="0.0" stroke-opacity="1.0" stroke-linecap="round" stroke-linejoin="round"  filling="0" d="M460.000000 80.000000 C460.000000 90.604591 455.782837 100.785690 448.284271 108.284271 C440.785706 115.782852 430.604584 120.000000 420.000000 120.000000 C409.395416 120.000000 399.214294 115.782852 391.715729 108.284271 C384.217163 100.785690 380.000000 90.604591 380.000000 80.000000 C380.000000 69.395409 384.217163 59.214306 391.715729 51.715729 C399.214294 44.217152 409.395416 40.000000 420.000000 40.000000 C430.604584 40.000000 440.785706 44.217152 448.284271 51.715729 C455.782837 59.214306 460.000000 69.395409 460.000000 80.000000"></path>
<path id="" fill="#ffffff" fill-opacity="1.0" stroke="#000000" stroke-width="0.0" stroke-opacity="1.0" stroke-linecap="round" stroke-linejoin="round"  filling="0" d="M400.000000 60.000000 C413.333344 46.666664 426.666656 46.666664 440.000000 60.000000 C453.333344 73.333336 453.333344 86.666664 440.000000 100.000000 C426.666656 86.666664 413.333344 73.333336 400.000000 60.000000"></path>
<path id="" fill="#d3d3d3" fill-opacity="1.0" stroke="#000000" stroke-width="0.0" stroke-opacity="1.0" stroke-linecap="round" stroke-linejoin="round"  filling="0" d="M512.000000 440.000000 C512.000000 473.934692 485.010254 506.514191 437.019348 530.509644 C389.028442 554.505066 323.869385 568.000000 256.000000 568.000000 C188.130615 568.000000 122.971573 554.505066 74.980667 530.509644 C26.989765 506.514191 0.000000 473.934692 0.000000 440.000000 C-0.000000 406.065308 26.989765 373.485779 74.980667 349.490326 C122.971573 325.494873 188.130615 312.000000 256.000000 312.000000 C323.869385 312.000000 389.028442 325.494873 437.019348 349.490326 C485.010254 373.485779 512.000000 406.065308 512.000000 440.000000"></path>
<path id="" fill="#c0c0c0" fill-opacity="1.0" stroke="#000000" stroke-width="0.0" stroke-opacity="1.0" stroke-linecap="round" stroke-linejoin="round"  filling="0" d="M130.000000 400.000000 C130.000000 407.953430 126.837135 415.589264 121.213203 421.213196 C115.589272 426.837128 107.953445 430.000000 100.000000 430.000000 C92.046555 430.000000 84.410728 426.837128 78.786797 421.213196 C73.162865 415.589264 70.000000 407.953430 70.000000 400.000000 C70.000000 392.046570 73.162865 384.410736 78.786797 378.786804 C84.410728 373.162872 92.046555 370.000000 100.000000 370.000000 C107.953445 370.000000 115.589272 373.162872 121.213203 378.786804 C126.837135 384.410736 130.000000 392.046570 130.000000 400.000000"></path>
<path id="" fill="#c0c0c0" fill-opacity="1.0" stroke="#000000" stroke-width="0.0" stroke-opacity="1.0" stroke-linecap="round" stroke-linejoin="round"  filling="0" d="M220.000000 450.000000 C220.000000 455.302307 217.891418 460.392853 214.142136 464.142151 C210.392853 467.891449 205.302292 470.000000 200.000000 470.000000 C194.697708 470.000000 189.607147 467.891449 185.857864 464.142151 C182.108582 460.392853 180.000000 455.302307 180.000000 450.000000 C180.000000 444.697693 182.108582 439.607147 185.857864 435.857849 C189.607147 432.108551 194.697708 430.000000 200.000000 430.000000 C205.302292 430.000000 210.392853 432.108551 214.142136 435.857849 C217.891418 439.607147 220.000000 444.697693 220.000000 450.000000"></path>
<path id="" fill="#c0c0c0" fill-opacity="1.0" stroke="#000000" stroke-width="0.0" stroke-opacity="1.0" stroke-linecap="round" stroke-linejoin="round"  filling="0" d="M325.000000 420.000000 C325.000000 426.627869 322.364288 432.991058 317.677673 437.677673 C312.991058 442.364288 306.627869 445.000000 300.000000 445.000000 C293.372131 445.000000 287.008942 442.364288 282.322327 437.677673 C277.635712 432.991058 275.000000 426.627869 275.000000 420.000000 C275.000000 413.372131 277.635712 407.008942 282.322327 402.322327 C287.008942 397.635712 293.372131 395.000000 300.000000 395.000000 C306.627869 395.000000 312.991058 397.635712 317.677673 402.322327 C322.364288 407.008942 325.000000 413.372131 325.000000 420.000000"></path>
<path id="" fill="#c0c0c0" fill-opacity="1.0" stroke="#000000" stroke-width="0.0" stroke-opacity="1.0" stroke-linecap="round" stroke-linejoin="round"  filling="0" d="M415.000000 440.000000 C415.000000 443.976715 413.418579 447.794617 410.606598 450.606598 C407.794617 453.418579 403.976715 455.000000 400.000000 455.000000 C396.023285 455.000000 392.205383 453.418579 389.393402 450.606598 C386.581421 447.794617 385.000000 443.976715 385.000000 440.000000 C385.000000 436.023285 386.581421 432.205383 389.393402 429.393402 C392.205383 426.581421 396.023285 425.000000 400.000000 425.000000 C403.976715 425.000000 407.794617 426.581421 410.606598 429.393402 C413.418579 432.205383 415.000000 436.023285 415.000000 440.000000"></path>
<path id="" fill="#c0c0c0" fill-opacity="1.0" stroke="#000000" stroke-width="0.0" stroke-opacity="1.0" stroke-linecap="round" stroke-linejoin="round"  filling="0" d="M160.000000 350.000000 C160.000000 352.651154 158.945724 355.196442 157.071075 357.071075 C155.196426 358.945709 152.651154 360.000000 150.000000 360.000000 C147.348846 360.000000 144.803574 358.945709 142.928925 357.071075 C141.054276 355.196442 140.000000 352.651154 140.000000 350.000000 C140.000000 347.348846 141.054276 344.803558 142.928925 342.928925 C144.803574 341.054291 147.348846 340.000000 150.000000 340.000000 C152.651154 340.000000 155.196426 341.054291 157.071075 342.928925 C158.945724 344.803558 160.000000 347.348846 160.000000 350.000000"></path>
<path id="" fill="#a9a9a9" fill-opacity="1.0" stroke="#000000" stroke-width="0.0" stroke-opacity="1.0" stroke-linecap="round" stroke-linejoin="round"  filling="0" d="M134.419006 460.000000 C128.042007 471.045990 78.099998 480.000000 22.872000 480.000000 C-32.356998 480.000000 -71.958000 471.045990 -65.581001 460.000000 C-59.203999 448.954010 -9.263000 440.000000 45.966000 440.000000 C101.194000 440.000000 140.796005 448.954010 134.419006 460.000000"></path>
<path id="" fill="#ffffff" fill-opacity="1.0" stroke="#000000" stroke-width="0.0" stroke-opacity="1.0" stroke-linecap="round" stroke-linejoin="round"  filling="0" d="M236.000000 340.000000 C242.666672 340.000000 249.333328 340.000000 256.000000 340.000000 C256.000000 366.666656 256.000000 393.333344 256.000000 420.000000 C249.333328 420.000000 242.666672 420.000000 236.000000 420.000000 C236.000000 393.333344 236.000000 366.666656 236.000000 340.000000"></path>
<path id="" fill="#ffffff" fill-opacity="1.0" stroke="#000000" stroke-width="0.0" stroke-opacity="1.0" stroke-linecap="round" stroke-linejoin="round"  filling="0" d="M276.000000 340.000000 C282.666656 340.000000 289.333344 340.000000 296.000000 340.000000 C296.000000 366.666656 296.000000 393.333344 296.000000 420.000000 C289.333344 420.000000 282.666656 420.000000 276.000000 420.000000 C276.000000 393.333344 276.000000 366.666656 276.000000 340.000000"></path>
<path id="" fill="#ffffff" fill-opacity="1.0" stroke="#000000" stroke-width="0.0" stroke-opacity="1.0" stroke-linecap="round" stroke-linejoin="round"  filling="0" d="M226.000000 270.000000 C252.666672 270.000000 279.333344 270.000000 306.000000 270.000000 C306.000000 293.333344 306.000000 316.666656 306.000000 340.000000 C279.333344 340.000000 252.666672 340.000000 226.000000 340.000000 C226.000000 316.666656 226.000000 293.333344 226.000000 270.000000"></path>
<path id="" fill="#ffffff" fill-opacity="1.0" stroke="#000000" stroke-width="0.0" stroke-opacity="1.0" stroke-linecap="round" stroke-linejoin="round"  filling="0" d="M230.199997 280.200012 C235.533325 284.200012 240.866669 288.200012 246.199997 292.200012 C234.199997 308.200012 222.199997 324.200012 210.199997 340.200012 C204.866669 336.200012 199.533325 332.200012 194.199997 328.200012 C206.199997 312.200012 218.199997 296.200012 230.199997 280.200012"></path>
<path id="" fill="#ffffff" fill-opacity="1.0" stroke="#000000" stroke-width="0.0" stroke-opacity="1.0" stroke-linecap="round" stroke-linejoin="round"  filling="0" d="M269.429993 296.859985 C272.763336 291.526642 276.096649 286.193329 279.429993 280.859985 C295.429993 290.859985 311.429993 300.859985 327.429993 310.859985 C324.096649 316.193329 320.763336 321.526642 317.429993 326.859985 C301.429993 316.859985 285.429993 306.859985 269.429993 296.859985"></path>
<path id="" fill="#ffffff" fill-opacity="1.0" stroke="#000000" stroke-width="0.0" stroke-opacity="1.0" stroke-linecap="round" stroke-linejoin="round"  filling="0" d="M296.000000 250.000000 C296.000000 257.953430 292.837128 265.589264 287.213196 271.213196 C281.589264 276.837128 273.953430 280.000000 266.000000 280.000000 C258.046570 280.000000 250.410736 276.837128 244.786804 271.213196 C239.162872 265.589264 236.000000 257.953430 236.000000 250.000000 C236.000000 242.046555 239.162872 234.410736 244.786804 228.786804 C250.410736 223.162872 258.046570 220.000000 266.000000 220.000000 C273.953430 220.000000 281.589264 223.162872 287.213196 228.786804 C292.837128 234.410736 296.000000 242.046555 296.000000 250.000000"></path>
<path id="" fill="#808080" fill-opacity="1.0" stroke="#000000" stroke-width="0.0" stroke-opacity="1.0" stroke-linecap="round" stroke-linejoin="round"  filling="0" d="M286.000000 245.000000 C286.000000 248.976715 283.891449 252.794632 280.142151 255.606598 C276.392853 258.418579 271.302307 260.000000 266.000000 260.000000 C260.697693 260.000000 255.607147 258.418579 251.857864 255.606598 C248.108582 252.794632 246.000000 248.976715 246.000000 245.000000 C246.000000 241.023285 248.108582 237.205368 251.857864 234.393402 C255.607147 231.581436 260.697693 230.000000 266.000000 230.000000 C271.302307 230.000000 276.392853 231.581436 280.142151 234.393402 C283.891449 237.205368 286.000000 241.023285 286.000000 245.000000"></path>
<path id="" fill="#c0c0c0" fill-opacity="1.0" stroke="#c0c0c0" stroke-width="4.0" stroke-opacity="1.0" stroke-linecap="round" stroke-linejoin="round"  filling="0" d="M350.000000 300.000000 C350.000000 346.666656 350.000000 393.333344 350.000000 440.000000"></path>
<path id="" fill="#ff0000" fill-opacity="1.0" stroke="#000000" stroke-width="0.0" stroke-opacity="1.0" stroke-linecap="round" stroke-linejoin="round"  filling="0" d="M354.000000 300.000000 C370.666656 300.000000 387.333344 300.000000 404.000000 300.000000 C404.000000 310.000000 404.000000 320.000000 404.000000 330.000000 C387.333344 330.000000 370.666656 330.000000 354.000000 330.000000 C354.000000 320.000000 354.000000 310.000000 354.000000 300.000000"></path>
</svg>