<svg xmlns="http://www.w3.org/2000/svg" viewBox="0 0 512 512" height="512.0px" width="512.0px">
<path id="" fill="#808080" fill-opacity="1.0"  filling="0" d="M396 256 C396 280 381 303 355 320 C329 337 293 346 256 346 C219 346 183 337 157 320 C131 303 116 280 116 256 C116 232 131 209 157 192 C183 175 219 166 256 166 C293 166 329 175 355 192 C381 209 396 232 396 256"></path>
<path id="" fill="#808080" fill-opacity="1.0"  filling="0" d="M460 196 C460 217 452 238 437 253 C422 268 401 276 380 276 C359 276 338 268 323 253 C308 238 300 217 300 196 C300 175 308 154 323 139 C338 124 359 116 380 116 C401 116 422 124 437 139 C452 154 460 175 460 196"></path>
<path id="" fill="#757171" fill-opacity="1.0"  filling="0" d="M320 146 C280 113 260 136 260 216 C300 249 320 226 320 146"></path>
<path id="" fill="#757171" fill-opacity="1.0"  filling="0" d="M440 146 C480 113 500 136 500 216 C460 249 440 226 440 146"></path>
<path id="" fill="#dbd3d3" fill-opacity="1.0"  filling="0" d="M356 250 C342 271 328 285 313 293 C309 295 306 294 303 289 C301 285 302 282 307 279 C319 273 331 261 344 242 C347 238 350 237 354 240 C356 241 357 243 358 244 C358 246 358 248 356 250"></path>
<path id="" fill="#dbd3d3" fill-opacity="1.0"  filling="0" d="M416 242 C429 261 441 273 453 279 C458 282 459 285 457 289 C454 294 451 295 447 293 C432 285 418 271 404 250 C402 248 402 246 402 244 C403 243 404 241 406 240 C410 237 413 238 416 242"></path>
<path id="" fill="#808080" fill-opacity="1.0"  filling="0" d="M181 312 C178 345 176 369 176 385 C176 390 176 394 176 397 C179 401 181 405 181 410 C181 416 179 420 175 424 C171 428 167 430 161 430 C153 430 146 426 142 419 C140 416 139 412 138 408 C137 402 136 395 136 385 C136 368 138 342 141 308 C142 303 144 298 148 295 C153 291 157 290 163 290 C168 291 173 293 176 297 C180 302 181 306 181 312"></path>
<path id="" fill="#808080" fill-opacity="1.0"  filling="0" d="M242 352 C239 385 237 409 237 425 C237 430 237 434 237 437 C240 441 242 445 242 450 C242 456 240 460 236 464 C232 468 228 470 222 470 C214 470 207 466 203 459 C201 456 200 452 199 448 C198 442 197 435 197 425 C197 408 199 382 202 348 C203 343 205 338 209 335 C214 331 218 330 224 330 C229 331 234 333 237 337 C241 342 242 346 242 352"></path>
<path id="" fill="#808080" fill-opacity="1.0"  filling="0" d="M336 348 C333 381 331 405 331 421 C331 426 331 430 331 433 C334 437 336 441 336 446 C336 452 334 456 330 460 C326 464 322 466 316 466 C308 466 301 462 297 455 C295 452 294 448 293 444 C292 438 291 431 291 421 C291 404 293 378 296 344 C297 339 299 334 303 331 C308 327 312 326 318 326 C323 327 328 329 331 333 C335 338 336 342 336 348"></path>
<path id="" fill="#808080" fill-opacity="1.0"  filling="0" d="M388 311 C385 344 383 368 383 384 C383 389 383 393 383 396 C386 400 388 404 388 409 C388 415 386 419 382 423 C378 427 374 429 368 429 C360 429 353 425 349 418 C347 415 346 411 345 407 C344 401 343 394 343 384 C343 367 345 341 348 307 C349 302 351 297 355 294 C360 290 364 289 370 289 C375 290 380 292 383 296 C387 301 388 305 388 311"></path>
<path id="" fill="#606060" fill-opacity="1.0"  filling="0" d="M407 215 C380 281 354 348 327 415 C325 418 323 421 319 423 C315 424 311 424 307 423 C304 421 301 419 299 415 C298 411 298 407 299 403 C326 337 352 270 379 203 C381 200 383 197 387 195 C391 194 395 194 399 195 C402 197 405 199 407 203 C408 207 408 211 407 215"></path>
<path id="" fill="#000000" fill-opacity="1.0"  filling="0" d="M368 176 C368 178 367 180 366 182 C364 183 362 184 360 184 C358 184 356 183 354 182 C353 180 352 178 352 176 C352 174 353 172 354 170 C356 169 358 168 360 168 C362 168 364 169 366 170 C367 172 368 174 368 176"></path>
<path id="" fill="#000000" fill-opacity="1.0"  filling="0" d="M408 176 C408 178 407 180 406 182 C404 183 402 184 400 184 C398 184 396 183 394 182 C393 180 392 178 392 176 C392 174 393 172 394 170 C396 169 398 168 400 168 C402 168 404 169 406 170 C407 172 408 174 408 176"></path>
<path id="" fill="#808080" fill-opacity="1.0"  filling="0" d="M131 288 C118 320 114 346 121 364 C128 386 124 405 110 420 C107 422 105 422 102 420 C101 418 101 417 101 416 C101 415 101 414 102 412 C114 401 117 386 111 368 C104 346 108 319 121 284 C122 283 123 282 124 281 C125 281 126 281 128 281 C131 283 132 285 131 288"></path></svg>