<svg xmlns="http://www.w3.org/2000/svg" viewBox="0 0 512 512" height="512.0px" width="512.0px">
<path id="" fill="#8B4513" fill-opacity="1.0" stroke="#000000" stroke-width="0.0" stroke-opacity="1.0" stroke-linecap="round" stroke-linejoin="round"  filling="0" d="M336.000000 306.000000 C336.000000 321.906891 327.565704 337.178528 312.568542 348.426392 C297.571381 359.674255 277.209167 366.000000 256.000000 366.000000 C234.790817 366.000000 214.428619 359.674255 199.431458 348.426392 C184.434296 337.178528 176.000000 321.906891 176.000000 306.000000 C176.000000 290.093109 184.434296 274.821472 199.431458 263.573608 C214.428619 252.325745 234.790817 246.000000 256.000000 246.000000 C277.209167 246.000000 297.571381 252.325745 312.568542 263.573608 C327.565704 274.821472 336.000000 290.093109 336.000000 306.000000"></path>
<path id="" fill="#A0522D" fill-opacity="1.0" stroke="#000000" stroke-width="0.0" stroke-opacity="1.0" stroke-linecap="round" stroke-linejoin="round"  filling="0" d="M326.000000 236.000000 C326.000000 249.255737 318.619965 261.982117 305.497467 271.355347 C292.374969 280.728577 274.558044 286.000000 256.000000 286.000000 C237.441971 286.000000 219.625046 280.728577 206.502533 271.355347 C193.380020 261.982117 186.000000 249.255737 186.000000 236.000000 C186.000000 222.744263 193.380020 210.017883 206.502533 200.644653 C219.625046 191.271423 237.441971 186.000000 256.000000 186.000000 C274.558044 186.000000 292.374969 191.271423 305.497467 200.644653 C318.619965 210.017883 326.000000 222.744263 326.000000 236.000000"></path>
<path id="" fill="#8B4513" fill-opacity="1.0" stroke="#000000" stroke-width="0.0" stroke-opacity="1.0" stroke-linecap="round" stroke-linejoin="round"  filling="0" d="M251.000000 100.000000 C254.333328 100.000000 257.666656 100.000000 261.000000 100.000000 C261.000000 145.333344 261.000000 190.666656 261.000000 236.000000 C257.666656 236.000000 254.333328 236.000000 251.000000 236.000000 C251.000000 190.666656 251.000000 145.333344 251.000000 100.000000"></path>
<path id="" fill="#4A2511" fill-opacity="1.0" stroke="#000000" stroke-width="0.0" stroke-opacity="1.0" stroke-linecap="round" stroke-linejoin="round"  filling="0" d="M287.061005 264.938995 C294.434326 272.312988 294.434326 279.687012 287.061005 287.061005 C286.353668 286.353668 285.646332 285.646332 284.938995 284.938995 C290.898987 278.979675 290.898987 273.020325 284.938995 267.061005 C285.646332 266.353668 286.353668 265.646332 287.061005 264.938995"></path>
<path id="" fill="#4A2511" fill-opacity="1.0" stroke="#000000" stroke-width="0.0" stroke-opacity="1.0" stroke-linecap="round" stroke-linejoin="round"  filling="0" d="M227.061005 267.061005 C221.100998 273.020325 221.100998 278.979675 227.061005 284.938995 C226.353668 285.646332 225.646332 286.353668 224.938995 287.061005 C217.565659 279.687012 217.565659 272.312988 224.938995 264.938995 C225.646332 265.646332 226.353668 266.353668 227.061005 267.061005"></path>
<path id="" fill="#4A2511" fill-opacity="1.0" stroke="#000000" stroke-width="0.0" stroke-opacity="1.0" stroke-linecap="round" stroke-linejoin="round"  filling="0" d="M246.000000 276.000000 C252.666672 276.000000 259.333344 276.000000 266.000000 276.000000 C266.000000 279.333344 266.000000 282.666656 266.000000 286.000000 C259.333344 286.000000 252.666672 286.000000 246.000000 286.000000 C246.000000 282.666656 246.000000 279.333344 246.000000 276.000000"></path>
<path id="" fill="#4A2511" fill-opacity="1.0" stroke="#000000" stroke-width="0.0" stroke-opacity="1.0" stroke-linecap="round" stroke-linejoin="round"  filling="0" d="M246.000000 336.000000 C252.666672 336.000000 259.333344 336.000000 266.000000 336.000000 C266.000000 346.000000 266.000000 356.000000 266.000000 366.000000 C259.333344 366.000000 252.666672 366.000000 246.000000 366.000000 C246.000000 356.000000 246.000000 346.000000 246.000000 336.000000"></path>
<path id="" fill="#4A2511" fill-opacity="1.0" stroke="#000000" stroke-width="0.0" stroke-opacity="1.0" stroke-linecap="round" stroke-linejoin="round"  filling="0" d="M241.000000 105.000000 C243.666672 105.000000 246.333328 105.000000 249.000000 105.000000 C249.000000 106.333336 249.000000 107.666664 249.000000 109.000000 C246.333328 109.000000 243.666672 109.000000 241.000000 109.000000 C241.000000 107.666664 241.000000 106.333336 241.000000 105.000000"></path>
<path id="" fill="#4A2511" fill-opacity="1.0" stroke="#000000" stroke-width="0.0" stroke-opacity="1.0" stroke-linecap="round" stroke-linejoin="round"  filling="0" d="M263.000000 105.000000 C265.666656 105.000000 268.333344 105.000000 271.000000 105.000000 C271.000000 106.333336 271.000000 107.666664 271.000000 109.000000 C268.333344 109.000000 265.666656 109.000000 263.000000 109.000000 C263.000000 107.666664 263.000000 106.333336 263.000000 105.000000"></path>
<path id="" fill="#000000" fill-opacity="1.0" stroke="#000000" stroke-width="0.0" stroke-opacity="1.0" stroke-linecap="round" stroke-linejoin="round"  filling="0" d="M255.500000 286.000000 C255.500000 224.000000 255.500000 162.000000 255.500000 100.000000 C255.833328 100.000000 256.166656 100.000000 256.500000 100.000000 C256.500000 162.000000 256.500000 224.000000 256.500000 286.000000 C256.166656 286.000000 255.833328 286.000000 255.500000 286.000000"></path>
<path id="" fill="#000000" fill-opacity="1.0" stroke="#000000" stroke-width="0.0" stroke-opacity="1.0" stroke-linecap="round" stroke-linejoin="round"  filling="0" d="M251.500000 286.000000 C251.500000 224.000000 251.500000 162.000000 251.500000 100.000000 C251.833328 100.000000 252.166672 100.000000 252.500000 100.000000 C252.500000 162.000000 252.500000 224.000000 252.500000 286.000000 C252.166672 286.000000 251.833328 286.000000 251.500000 286.000000"></path>
<path id="" fill="#000000" fill-opacity="1.0" stroke="#000000" stroke-width="0.0" stroke-opacity="1.0" stroke-linecap="round" stroke-linejoin="round"  filling="0" d="M259.500000 286.000000 C259.500000 224.000000 259.500000 162.000000 259.500000 100.000000 C259.833344 100.000000 260.166656 100.000000 260.500000 100.000000 C260.500000 162.000000 260.500000 224.000000 260.500000 286.000000 C260.166656 286.000000 259.833344 286.000000 259.500000 286.000000"></path>
<path id="" fill="#000000" fill-opacity="1.0" stroke="#000000" stroke-width="0.0" stroke-opacity="1.0" stroke-linecap="round" stroke-linejoin="round"  filling="0" d="M263.500000 286.000000 C263.500000 224.000000 263.500000 162.000000 263.500000 100.000000 C263.833344 100.000000 264.166656 100.000000 264.500000 100.000000 C264.500000 162.000000 264.500000 224.000000 264.500000 286.000000 C264.166656 286.000000 263.833344 286.000000 263.500000 286.000000"></path>
<path id="" fill="#4A2511" fill-opacity="1.0" stroke="#000000" stroke-width="0.0" stroke-opacity="1.0" stroke-linecap="round" stroke-linejoin="round"  filling="0" d="M150.000000 150.000000 C243.969330 184.201996 337.938660 218.403992 431.907990 252.606003 C430.996002 255.112000 430.083984 257.617981 429.171997 260.123993 C335.202667 225.921997 241.233337 191.720001 147.264008 157.518005 C148.176010 155.012009 149.087997 152.505997 150.000000 150.000000"></path>
<path id="" fill="#FFF8DC" fill-opacity="1.0" stroke="#000000" stroke-width="0.0" stroke-opacity="1.0" stroke-linecap="round" stroke-linejoin="round"  filling="0" d="M152.000000 155.000000 C244.716339 188.746002 337.432648 222.492004 430.148987 256.238007 C429.692993 257.490997 429.237000 258.744019 428.781006 259.997009 C336.064667 226.251007 243.348328 192.505005 150.632004 158.759003 C151.087997 157.505997 151.544006 156.253006 152.000000 155.000000"></path>
<path id="" fill="#000000" fill-opacity="1.0" stroke="#000000" stroke-width="0.0" stroke-opacity="1.0" stroke-linecap="round" stroke-linejoin="round"  filling="0" d="M145.000000 145.000000 C150.638000 147.052002 156.276001 149.104004 161.914001 151.156006 C160.432007 155.227997 158.949997 159.300003 157.468002 163.371994 C151.830002 161.319992 146.192001 159.268005 140.554001 157.216003 C142.035995 153.143997 143.518005 149.072006 145.000000 145.000000"></path>
<path id="" fill="#C0C0C0" fill-opacity="1.0" stroke="#000000" stroke-width="0.0" stroke-opacity="1.0" stroke-linecap="round" stroke-linejoin="round"  filling="0" d="M143.000000 143.000000 C144.253006 143.455994 145.505997 143.912003 146.759003 144.367996 C145.847000 146.873993 144.934998 149.380005 144.022995 151.886002 C142.770004 151.430008 141.516998 150.973999 140.264008 150.518005 C141.176010 148.012009 142.087997 145.505997 143.000000 143.000000"></path>
</svg>