<svg xmlns="http://www.w3.org/2000/svg" viewBox="0 0 512 512" height="512.0px" width="512.0px">
<path id="" fill="#D2691E" fill-opacity="1.0" stroke="#000000" stroke-width="0.0" stroke-opacity="1.0" stroke-linecap="round" stroke-linejoin="round"  filling="0" d="M116.000000 256.000000 C116.000000 218.883926 130.760025 183.250076 157.005051 157.005051 C183.250076 130.760025 218.883926 116.000000 256.000000 116.000000 C293.116058 116.000000 328.749908 130.760025 354.994934 157.005051 C381.239960 183.250076 396.000000 218.883926 396.000000 256.000000 C396.000000 293.116058 381.239960 328.749908 354.994934 354.994934 C328.749908 381.239960 293.116058 396.000000 256.000000 396.000000 C218.883926 396.000000 183.250076 381.239960 157.005051 354.994934 C130.760025 328.749908 116.000000 293.116058 116.000000 256.000000"></path>
<path id="" fill="#D2691E" fill-opacity="1.0" stroke="#000000" stroke-width="0.0" stroke-opacity="1.0" stroke-linecap="round" stroke-linejoin="round"  filling="0" d="M216.000000 256.000000 C216.000000 266.604584 220.217148 276.785706 227.715729 284.284271 C235.214310 291.782837 245.395416 296.000000 256.000000 296.000000 C266.604584 296.000000 276.785706 291.782837 284.284271 284.284271 C291.782837 276.785706 296.000000 266.604584 296.000000 256.000000 C296.000000 245.395416 291.782837 235.214310 284.284271 227.715729 C276.785706 220.217148 266.604584 216.000000 256.000000 216.000000 C245.395416 216.000000 235.214310 220.217148 227.715729 227.715729 C220.217148 235.214310 216.000000 245.395416 216.000000 256.000000"></path>
<path id="" fill="#FFFFFF" fill-opacity="1.0" stroke="#000000" stroke-width="0.0" stroke-opacity="1.0" stroke-linecap="round" stroke-linejoin="round"  filling="0" d="M296.000000 256.000000 C296.000000 266.604584 291.782837 276.785706 284.284271 284.284271 C276.785706 291.782837 266.604584 296.000000 256.000000 296.000000 C245.395416 296.000000 235.214310 291.782837 227.715729 284.284271 C220.217148 276.785706 216.000000 266.604584 216.000000 256.000000 C216.000000 245.395416 220.217148 235.214310 227.715729 227.715729 C235.214310 220.217148 245.395416 216.000000 256.000000 216.000000 C266.604584 216.000000 276.785706 220.217148 284.284271 227.715729 C291.782837 235.214310 296.000000 245.395416 296.000000 256.000000"></path>
<path id="" fill="#FF0000" fill-opacity="1.0" stroke="#000000" stroke-width="0.0" stroke-opacity="1.0" stroke-linecap="round" stroke-linejoin="round"  filling="0" d="M184.000000 180.000000 C184.000000 181.060455 183.578293 182.078568 182.828430 182.828430 C182.078568 183.578293 181.060455 184.000000 180.000000 184.000000 C178.939545 184.000000 177.921432 183.578293 177.171570 182.828430 C176.421707 182.078568 176.000000 181.060455 176.000000 180.000000 C176.000000 178.939545 176.421707 177.921432 177.171570 177.171570 C177.921432 176.421707 178.939545 176.000000 180.000000 176.000000 C181.060455 176.000000 182.078568 176.421707 182.828430 177.171570 C183.578293 177.921432 184.000000 178.939545 184.000000 180.000000"></path>
<path id="" fill="#0000FF" fill-opacity="1.0" stroke="#000000" stroke-width="0.0" stroke-opacity="1.0" stroke-linecap="round" stroke-linejoin="round"  filling="0" d="M224.000000 160.000000 C224.000000 161.060455 223.578293 162.078568 222.828430 162.828430 C222.078568 163.578293 221.060455 164.000000 220.000000 164.000000 C218.939545 164.000000 217.921432 163.578293 217.171570 162.828430 C216.421707 162.078568 216.000000 161.060455 216.000000 160.000000 C216.000000 158.939545 216.421707 157.921432 217.171570 157.171570 C217.921432 156.421707 218.939545 156.000000 220.000000 156.000000 C221.060455 156.000000 222.078568 156.421707 222.828430 157.171570 C223.578293 157.921432 224.000000 158.939545 224.000000 160.000000"></path>
<path id="" fill="#FFFF00" fill-opacity="1.0" stroke="#000000" stroke-width="0.0" stroke-opacity="1.0" stroke-linecap="round" stroke-linejoin="round"  filling="0" d="M284.000000 150.000000 C284.000000 151.060455 283.578278 152.078568 282.828430 152.828430 C282.078583 153.578293 281.060455 154.000000 280.000000 154.000000 C278.939545 154.000000 277.921417 153.578293 277.171570 152.828430 C276.421722 152.078568 276.000000 151.060455 276.000000 150.000000 C276.000000 148.939545 276.421722 147.921432 277.171570 147.171570 C277.921417 146.421707 278.939545 146.000000 280.000000 146.000000 C281.060455 146.000000 282.078583 146.421707 282.828430 147.171570 C283.578278 147.921432 284.000000 148.939545 284.000000 150.000000"></path>
<path id="" fill="#00FF00" fill-opacity="1.0" stroke="#000000" stroke-width="0.0" stroke-opacity="1.0" stroke-linecap="round" stroke-linejoin="round"  filling="0" d="M344.000000 170.000000 C344.000000 171.060455 343.578278 172.078568 342.828430 172.828430 C342.078583 173.578293 341.060455 174.000000 340.000000 174.000000 C338.939545 174.000000 337.921417 173.578293 337.171570 172.828430 C336.421722 172.078568 336.000000 171.060455 336.000000 170.000000 C336.000000 168.939545 336.421722 167.921432 337.171570 167.171570 C337.921417 166.421707 338.939545 166.000000 340.000000 166.000000 C341.060455 166.000000 342.078583 166.421707 342.828430 167.171570 C343.578278 167.921432 344.000000 168.939545 344.000000 170.000000"></path>
<path id="" fill="#FF0000" fill-opacity="1.0" stroke="#000000" stroke-width="0.0" stroke-opacity="1.0" stroke-linecap="round" stroke-linejoin="round"  filling="0" d="M364.000000 230.000000 C364.000000 231.060455 363.578278 232.078568 362.828430 232.828430 C362.078583 233.578293 361.060455 234.000000 360.000000 234.000000 C358.939545 234.000000 357.921417 233.578293 357.171570 232.828430 C356.421722 232.078568 356.000000 231.060455 356.000000 230.000000 C356.000000 228.939545 356.421722 227.921432 357.171570 227.171570 C357.921417 226.421707 358.939545 226.000000 360.000000 226.000000 C361.060455 226.000000 362.078583 226.421707 362.828430 227.171570 C363.578278 227.921432 364.000000 228.939545 364.000000 230.000000"></path>
<path id="" fill="#0000FF" fill-opacity="1.0" stroke="#000000" stroke-width="0.0" stroke-opacity="1.0" stroke-linecap="round" stroke-linejoin="round"  filling="0" d="M334.000000 280.000000 C334.000000 281.060455 333.578278 282.078583 332.828430 282.828430 C332.078583 283.578278 331.060455 284.000000 330.000000 284.000000 C328.939545 284.000000 327.921417 283.578278 327.171570 282.828430 C326.421722 282.078583 326.000000 281.060455 326.000000 280.000000 C326.000000 278.939545 326.421722 277.921417 327.171570 277.171570 C327.921417 276.421722 328.939545 276.000000 330.000000 276.000000 C331.060455 276.000000 332.078583 276.421722 332.828430 277.171570 C333.578278 277.921417 334.000000 278.939545 334.000000 280.000000"></path>
<path id="" fill="#FFFF00" fill-opacity="1.0" stroke="#000000" stroke-width="0.0" stroke-opacity="1.0" stroke-linecap="round" stroke-linejoin="round"  filling="0" d="M274.000000 190.000000 C274.000000 191.060455 273.578278 192.078568 272.828430 192.828430 C272.078583 193.578293 271.060455 194.000000 270.000000 194.000000 C268.939545 194.000000 267.921417 193.578293 267.171570 192.828430 C266.421722 192.078568 266.000000 191.060455 266.000000 190.000000 C266.000000 188.939545 266.421722 187.921432 267.171570 187.171570 C267.921417 186.421707 268.939545 186.000000 270.000000 186.000000 C271.060455 186.000000 272.078583 186.421707 272.828430 187.171570 C273.578278 187.921432 274.000000 188.939545 274.000000 190.000000"></path>
<path id="" fill="#00FF00" fill-opacity="1.0" stroke="#000000" stroke-width="0.0" stroke-opacity="1.0" stroke-linecap="round" stroke-linejoin="round"  filling="0" d="M214.000000 210.000000 C214.000000 211.060455 213.578293 212.078568 212.828430 212.828430 C212.078568 213.578293 211.060455 214.000000 210.000000 214.000000 C208.939545 214.000000 207.921432 213.578293 207.171570 212.828430 C206.421707 212.078568 206.000000 211.060455 206.000000 210.000000 C206.000000 208.939545 206.421707 207.921432 207.171570 207.171570 C207.921432 206.421707 208.939545 206.000000 210.000000 206.000000 C211.060455 206.000000 212.078568 206.421707 212.828430 207.171570 C213.578293 207.921432 214.000000 208.939545 214.000000 210.000000"></path>
<path id="" fill="#FF0000" fill-opacity="1.0" stroke="#000000" stroke-width="0.0" stroke-opacity="1.0" stroke-linecap="round" stroke-linejoin="round"  filling="0" d="M194.000000 270.000000 C194.000000 271.060455 193.578293 272.078583 192.828430 272.828430 C192.078568 273.578278 191.060455 274.000000 190.000000 274.000000 C188.939545 274.000000 187.921432 273.578278 187.171570 272.828430 C186.421707 272.078583 186.000000 271.060455 186.000000 270.000000 C186.000000 268.939545 186.421707 267.921417 187.171570 267.171570 C187.921432 266.421722 188.939545 266.000000 190.000000 266.000000 C191.060455 266.000000 192.078568 266.421722 192.828430 267.171570 C193.578293 267.921417 194.000000 268.939545 194.000000 270.000000"></path>
<path id="" fill="#0000FF" fill-opacity="1.0" stroke="#000000" stroke-width="0.0" stroke-opacity="1.0" stroke-linecap="round" stroke-linejoin="round"  filling="0" d="M254.000000 170.000000 C254.000000 171.060455 253.578293 172.078568 252.828430 172.828430 C252.078568 173.578293 251.060455 174.000000 250.000000 174.000000 C248.939545 174.000000 247.921432 173.578293 247.171570 172.828430 C246.421707 172.078568 246.000000 171.060455 246.000000 170.000000 C246.000000 168.939545 246.421707 167.921432 247.171570 167.171570 C247.921432 166.421707 248.939545 166.000000 250.000000 166.000000 C251.060455 166.000000 252.078568 166.421707 252.828430 167.171570 C253.578293 167.921432 254.000000 168.939545 254.000000 170.000000"></path>
<path id="" fill="#FFFF00" fill-opacity="1.0" stroke="#000000" stroke-width="0.0" stroke-opacity="1.0" stroke-linecap="round" stroke-linejoin="round"  filling="0" d="M314.000000 220.000000 C314.000000 221.060455 313.578278 222.078568 312.828430 222.828430 C312.078583 223.578293 311.060455 224.000000 310.000000 224.000000 C308.939545 224.000000 307.921417 223.578293 307.171570 222.828430 C306.421722 222.078568 306.000000 221.060455 306.000000 220.000000 C306.000000 218.939545 306.421722 217.921432 307.171570 217.171570 C307.921417 216.421707 308.939545 216.000000 310.000000 216.000000 C311.060455 216.000000 312.078583 216.421707 312.828430 217.171570 C313.578278 217.921432 314.000000 218.939545 314.000000 220.000000"></path>
</svg>