<svg xmlns="http://www.w3.org/2000/svg" viewBox="0 0 512 512" height="512.0px" width="512.0px">
<path id="" fill="#F4A460" fill-opacity="1.0" stroke="#000000" stroke-width="0.0" stroke-opacity="1.0" stroke-linecap="round" stroke-linejoin="round"  filling="0" d="M376.000000 340.000000 C376.000000 347.953430 363.348541 355.589264 340.852814 361.213196 C318.357086 366.837128 287.813782 370.000000 256.000000 370.000000 C224.186218 370.000000 193.642914 366.837128 171.147186 361.213196 C148.651459 355.589264 136.000000 347.953430 136.000000 340.000000 C136.000000 332.046570 148.651459 324.410736 171.147186 318.786804 C193.642914 313.162872 224.186218 310.000000 256.000000 310.000000 C287.813782 310.000000 318.357086 313.162872 340.852814 318.786804 C363.348541 324.410736 376.000000 332.046570 376.000000 340.000000"></path>
<path id="" fill="#8B4513" fill-opacity="1.0" stroke="#000000" stroke-width="0.0" stroke-opacity="1.0" stroke-linecap="round" stroke-linejoin="round"  filling="0" d="M366.000000 310.000000 C366.000000 315.302307 354.402832 320.392853 333.781738 324.142151 C313.160645 327.891449 285.162628 330.000000 256.000000 330.000000 C226.837372 330.000000 198.839355 327.891449 178.218262 324.142151 C157.597168 320.392853 146.000000 315.302307 146.000000 310.000000 C146.000000 304.697693 157.597168 299.607147 178.218262 295.857849 C198.839355 292.108551 226.837372 290.000000 256.000000 290.000000 C285.162628 290.000000 313.160645 292.108551 333.781738 295.857849 C354.402832 299.607147 366.000000 304.697693 366.000000 310.000000"></path>
<path id="" fill="#FFD700" fill-opacity="1.0" stroke="#000000" stroke-width="0.0" stroke-opacity="1.0" stroke-linecap="round" stroke-linejoin="round"  filling="0" d="M156.000000 300.000000 C189.333344 293.333344 222.666656 293.333344 256.000000 300.000000 C289.333344 306.666656 322.666656 306.666656 356.000000 300.000000 C352.666656 306.666656 349.333344 313.333344 346.000000 320.000000 C316.000000 326.666656 286.000000 326.666656 256.000000 320.000000 C226.000000 326.666656 196.000000 326.666656 166.000000 320.000000 C162.666672 313.333344 159.333328 306.666656 156.000000 300.000000"></path>
<path id="" fill="#FF6347" fill-opacity="1.0" stroke="#000000" stroke-width="0.0" stroke-opacity="1.0" stroke-linecap="round" stroke-linejoin="round"  filling="0" d="M356.000000 285.000000 C356.000000 288.181366 345.457153 291.235718 326.710693 293.485291 C307.964233 295.734863 282.511475 297.000000 256.000000 297.000000 C229.488525 297.000000 204.035767 295.734863 185.289322 293.485291 C166.542877 291.235718 156.000000 288.181366 156.000000 285.000000 C156.000000 281.818634 166.542877 278.764282 185.289322 276.514709 C204.035767 274.265137 229.488525 273.000000 256.000000 273.000000 C282.511475 273.000000 307.964233 274.265137 326.710693 276.514709 C345.457153 278.764282 356.000000 281.818634 356.000000 285.000000"></path>
<path id="" fill="#DEB887" fill-opacity="1.0" stroke="#000000" stroke-width="0.0" stroke-opacity="1.0" stroke-linecap="round" stroke-linejoin="round"  filling="0" d="M371.000000 260.000000 C371.000000 265.302307 358.875702 270.392853 337.317291 274.142151 C315.758881 277.891449 286.488190 280.000000 256.000000 280.000000 C225.511795 280.000000 196.241119 277.891449 174.682709 274.142151 C153.124298 270.392853 141.000000 265.302307 141.000000 260.000000 C141.000000 254.697708 153.124298 249.607147 174.682709 245.857864 C196.241119 242.108582 225.511795 240.000000 256.000000 240.000000 C286.488190 240.000000 315.758881 242.108582 337.317291 245.857864 C358.875702 249.607147 371.000000 254.697708 371.000000 260.000000"></path>
<path id="" fill="#F4A460" fill-opacity="1.0" stroke="#000000" stroke-width="0.0" stroke-opacity="1.0" stroke-linecap="round" stroke-linejoin="round"  filling="0" d="M371.000000 230.000000 C371.000000 243.255737 358.875702 255.982117 337.317291 265.355347 C315.758881 274.728577 286.488190 280.000000 256.000000 280.000000 C225.511795 280.000000 196.241119 274.728577 174.682709 265.355347 C153.124298 255.982117 141.000000 243.255737 141.000000 230.000000 C141.000000 216.744263 153.124298 204.017883 174.682709 194.644653 C196.241119 185.271423 225.511795 180.000000 256.000000 180.000000 C286.488190 180.000000 315.758881 185.271423 337.317291 194.644653 C358.875702 204.017883 371.000000 216.744263 371.000000 230.000000"></path>
</svg>