<svg xmlns="http://www.w3.org/2000/svg" viewBox="0 0 512 512" height="512.0px" width="512.0px">
<path id="" fill="#FF69B4" fill-opacity="1.0"  filling="0" d="M336 280 C336 296 328 311 313 322 C298 334 277 340 256 340 C235 340 214 334 199 322 C184 311 176 296 176 280 C176 264 184 249 199 238 C214 226 235 220 256 220 C277 220 298 226 313 238 C328 249 336 264 336 280"></path>
<path id="" fill="#FF69B4" fill-opacity="1.0"  filling="0" d="M276 224 C289 192 299 159 305 127 C311 99 306 77 289 61 C286 58 285 54 285 50 C285 46 286 42 289 39 C292 36 296 35 300 35 C304 35 308 36 311 39 C334 63 342 94 335 133 C328 167 318 201 304 236 C302 239 300 242 296 244 C292 245 288 245 284 244 C281 242 278 240 276 236 C275 232 275 228 276 224"></path>
<path id="" fill="#FF69B4" fill-opacity="1.0"  filling="0" d="M315 45 C315 49 313 53 309 56 C305 58 300 60 295 60 C290 60 285 58 281 56 C277 53 275 49 275 45 C275 41 277 37 281 34 C285 32 290 30 295 30 C300 30 305 32 309 34 C313 37 315 41 315 45"></path>
<path id="" fill="#FF1493" fill-opacity="1.0"  filling="0" d="M314 36 C325 35 335 35 346 36 C348 36 349 38 349 41 C349 42 348 43 348 43 C347 44 346 44 344 44 C335 43 325 43 316 44 C314 44 313 44 312 43 C312 43 311 42 311 41 C311 38 312 36 314 36"></path>
<path id="" fill="#FF69B4" fill-opacity="1.0"  filling="0" d="M246 330 C246 373 246 417 246 460 C242 460 238 460 234 460 C234 417 234 373 234 330 C238 330 242 330 246 330"></path>
<path id="" fill="#FF69B4" fill-opacity="1.0"  filling="0" d="M286 328 C299 361 312 391 325 417 C327 421 326 424 323 425 C319 427 316 426 315 423 C301 396 288 366 274 332 C273 329 274 326 278 324 C281 323 284 324 286 328"></path>
<path id="" fill="#FF1493" fill-opacity="1.0"  filling="0" d="M250 460 C250 463 249 465 247 467 C245 469 243 470 240 470 C237 470 235 469 233 467 C231 465 230 463 230 460 C230 457 231 455 233 453 C235 451 237 450 240 450 C243 450 245 451 247 453 C249 455 250 457 250 460"></path>
<path id="" fill="#FF1493" fill-opacity="1.0"  filling="0" d="M330 420 C330 423 329 425 327 427 C325 429 323 430 320 430 C317 430 315 429 313 427 C311 425 310 423 310 420 C310 417 311 415 313 413 C315 411 317 410 320 410 C323 410 325 411 327 413 C329 415 330 417 330 420"></path>
<path id="" fill="#000000" fill-opacity="1.0"  filling="0" d="M304 40 C304 41 304 42 303 43 C302 44 301 44 300 44 C299 44 298 44 297 43 C296 42 296 41 296 40 C296 39 296 38 297 37 C298 36 299 36 300 36 C301 36 302 36 303 37 C304 38 304 39 304 40"></path></svg>