<svg xmlns="http://www.w3.org/2000/svg" viewBox="0 0 512 512" height="512.0px" width="512.0px">
<path id="" fill="#00000033" fill-opacity="1.0" stroke="#000000" stroke-width="0.0" stroke-opacity="1.0" stroke-linecap="round" stroke-linejoin="round"  filling="0" d="M396.000000 380.000000 C396.000000 385.302307 381.239960 390.392853 354.994934 394.142151 C328.749908 397.891449 293.116058 400.000000 256.000000 400.000000 C218.883926 400.000000 183.250076 397.891449 157.005051 394.142151 C130.760025 390.392853 116.000000 385.302307 116.000000 380.000000 C116.000000 374.697693 130.760025 369.607147 157.005051 365.857849 C183.250076 362.108551 218.883926 360.000000 256.000000 360.000000 C293.116058 360.000000 328.749908 362.108551 354.994934 365.857849 C381.239960 369.607147 396.000000 374.697693 396.000000 380.000000"></path>
<path id="" fill="#DEB887" fill-opacity="1.0" stroke="#000000" stroke-width="0.0" stroke-opacity="1.0" stroke-linecap="round" stroke-linejoin="round"  filling="0" d="M136.000000 320.000000 C216.000000 320.000000 296.000000 320.000000 376.000000 320.000000 C376.000000 326.666656 376.000000 333.333344 376.000000 340.000000 C296.000000 340.000000 216.000000 340.000000 136.000000 340.000000 C136.000000 333.333344 136.000000 326.666656 136.000000 320.000000"></path>
<path id="" fill="#DEB887" fill-opacity="1.0" stroke="#000000" stroke-width="0.0" stroke-opacity="1.0" stroke-linecap="round" stroke-linejoin="round"  filling="0" d="M146.000000 340.000000 C152.666672 340.000000 159.333328 340.000000 166.000000 340.000000 C166.000000 353.333344 166.000000 366.666656 166.000000 380.000000 C159.333328 380.000000 152.666672 380.000000 146.000000 380.000000 C146.000000 366.666656 146.000000 353.333344 146.000000 340.000000"></path>
<path id="" fill="#DEB887" fill-opacity="1.0" stroke="#000000" stroke-width="0.0" stroke-opacity="1.0" stroke-linecap="round" stroke-linejoin="round"  filling="0" d="M206.000000 340.000000 C212.666672 340.000000 219.333328 340.000000 226.000000 340.000000 C226.000000 353.333344 226.000000 366.666656 226.000000 380.000000 C219.333328 380.000000 212.666672 380.000000 206.000000 380.000000 C206.000000 366.666656 206.000000 353.333344 206.000000 340.000000"></path>
<path id="" fill="#DEB887" fill-opacity="1.0" stroke="#000000" stroke-width="0.0" stroke-opacity="1.0" stroke-linecap="round" stroke-linejoin="round"  filling="0" d="M286.000000 340.000000 C292.666656 340.000000 299.333344 340.000000 306.000000 340.000000 C306.000000 353.333344 306.000000 366.666656 306.000000 380.000000 C299.333344 380.000000 292.666656 380.000000 286.000000 380.000000 C286.000000 366.666656 286.000000 353.333344 286.000000 340.000000"></path>
<path id="" fill="#DEB887" fill-opacity="1.0" stroke="#000000" stroke-width="0.0" stroke-opacity="1.0" stroke-linecap="round" stroke-linejoin="round"  filling="0" d="M346.000000 340.000000 C352.666656 340.000000 359.333344 340.000000 366.000000 340.000000 C366.000000 353.333344 366.000000 366.666656 366.000000 380.000000 C359.333344 380.000000 352.666656 380.000000 346.000000 380.000000 C346.000000 366.666656 346.000000 353.333344 346.000000 340.000000"></path>
<path id="" fill="#006400" fill-opacity="1.0" stroke="#000000" stroke-width="0.0" stroke-opacity="1.0" stroke-linecap="round" stroke-linejoin="round"  filling="0" d="M396.000000 240.000000 C396.000000 269.162628 381.239960 297.160645 354.994934 317.781738 C328.749908 338.402832 293.116058 350.000000 256.000000 350.000000 C218.883926 350.000000 183.250076 338.402832 157.005051 317.781738 C130.760025 297.160645 116.000000 269.162628 116.000000 240.000000 C116.000000 210.837372 130.760025 182.839355 157.005051 162.218262 C183.250076 141.597168 218.883926 130.000000 256.000000 130.000000 C293.116058 130.000000 328.749908 141.597168 354.994934 162.218262 C381.239960 182.839355 396.000000 210.837372 396.000000 240.000000"></path>
<path id="" fill="#98FB98" fill-opacity="1.0" stroke="#000000" stroke-width="0.0" stroke-opacity="1.0" stroke-linecap="round" stroke-linejoin="round"  filling="0" d="M376.000000 240.000000 C376.000000 263.860321 363.348541 286.767822 340.852814 303.639618 C318.357086 320.511414 287.813782 330.000000 256.000000 330.000000 C224.186218 330.000000 193.642914 320.511414 171.147186 303.639618 C148.651459 286.767822 136.000000 263.860321 136.000000 240.000000 C136.000000 216.139664 148.651459 193.232178 171.147186 176.360382 C193.642914 159.488586 224.186218 150.000000 256.000000 150.000000 C287.813782 150.000000 318.357086 159.488586 340.852814 176.360382 C363.348541 193.232178 376.000000 216.139664 376.000000 240.000000"></path>
<path id="" fill="#8B4513" fill-opacity="1.0" stroke="#000000" stroke-width="0.0" stroke-opacity="1.0" stroke-linecap="round" stroke-linejoin="round"  filling="0" d="M306.000000 240.000000 C306.000000 253.255737 300.728577 265.982117 291.355347 275.355347 C281.982117 284.728577 269.255737 290.000000 256.000000 290.000000 C242.744263 290.000000 230.017883 284.728577 220.644653 275.355347 C211.271423 265.982117 206.000000 253.255737 206.000000 240.000000 C206.000000 226.744263 211.271423 214.017883 220.644653 204.644653 C230.017883 195.271423 242.744263 190.000000 256.000000 190.000000 C269.255737 190.000000 281.982117 195.271423 291.355347 204.644653 C300.728577 214.017883 306.000000 226.744263 306.000000 240.000000"></path>
</svg>