<svg xmlns="http://www.w3.org/2000/svg" viewBox="0 0 512 512" height="512.0px" width="512.0px">
<path id="" fill="#87CEEB" fill-opacity="1.0" stroke="#000000" stroke-width="0.0" stroke-opacity="1.0" stroke-linecap="round" stroke-linejoin="round"  filling="0" d="M0.000000 0.000000 C170.666672 0.000000 341.333313 0.000000 512.000000 0.000000 C512.000000 85.333336 512.000000 170.666656 512.000000 256.000000 C341.333313 256.000000 170.666672 256.000000 0.000000 256.000000 C0.000000 170.666656 0.000000 85.333336 0.000000 0.000000"></path>
<path id="" fill="#DEB887" fill-opacity="1.0" stroke="#000000" stroke-width="0.0" stroke-opacity="1.0" stroke-linecap="round" stroke-linejoin="round"  filling="0" d="M0.000000 256.000000 C170.666672 256.000000 341.333313 256.000000 512.000000 256.000000 C512.000000 341.333344 512.000000 426.666656 512.000000 512.000000 C341.333313 512.000000 170.666672 512.000000 0.000000 512.000000 C0.000000 426.666656 0.000000 341.333344 0.000000 256.000000"></path>
<path id="" fill="#808080" fill-opacity="1.0" stroke="#000000" stroke-width="0.0" stroke-opacity="1.0" stroke-linecap="round" stroke-linejoin="round"  filling="0" d="M50.000000 450.000000 C56.666668 453.333344 63.333332 456.666656 70.000000 460.000000 C66.666664 463.333344 63.333332 466.666656 60.000000 470.000000 C53.333332 468.333344 46.666668 466.666656 40.000000 465.000000 C43.333332 460.000000 46.666668 455.000000 50.000000 450.000000"></path>
<path id="" fill="#808080" fill-opacity="1.0" stroke="#000000" stroke-width="0.0" stroke-opacity="1.0" stroke-linecap="round" stroke-linejoin="round"  filling="0" d="M400.000000 480.000000 C406.666656 476.666656 413.333344 473.333344 420.000000 470.000000 C423.333344 476.666656 426.666656 483.333344 430.000000 490.000000 C423.333344 491.666656 416.666656 493.333344 410.000000 495.000000 C406.666656 490.000000 403.333344 485.000000 400.000000 480.000000"></path>
<path id="" fill="#808080" fill-opacity="1.0" stroke="#000000" stroke-width="0.0" stroke-opacity="1.0" stroke-linecap="round" stroke-linejoin="round"  filling="0" d="M210.000000 470.000000 C210.000000 472.651154 208.945724 475.196442 207.071075 477.071075 C205.196426 478.945709 202.651154 480.000000 200.000000 480.000000 C197.348846 480.000000 194.803574 478.945709 192.928925 477.071075 C191.054276 475.196442 190.000000 472.651154 190.000000 470.000000 C190.000000 467.348846 191.054276 464.803558 192.928925 462.928925 C194.803574 461.054291 197.348846 460.000000 200.000000 460.000000 C202.651154 460.000000 205.196426 461.054291 207.071075 462.928925 C208.945724 464.803558 210.000000 467.348846 210.000000 470.000000"></path>
<path id="" fill="#2E8B57" fill-opacity="1.0" stroke="#000000" stroke-width="0.0" stroke-opacity="1.0" stroke-linecap="round" stroke-linejoin="round"  filling="0" d="M216.000000 150.000000 C242.666672 150.000000 269.333344 150.000000 296.000000 150.000000 C296.000000 250.000000 296.000000 350.000000 296.000000 450.000000 C269.333344 450.000000 242.666672 450.000000 216.000000 450.000000 C216.000000 350.000000 216.000000 250.000000 216.000000 150.000000"></path>
<path id="" fill="#2E8B57" fill-opacity="1.0" stroke="#000000" stroke-width="0.0" stroke-opacity="1.0" stroke-linecap="round" stroke-linejoin="round"  filling="0" d="M198.850006 210.289993 C176.197998 172.536667 168.710663 134.466003 176.388000 96.078003 C189.462662 98.692665 202.537338 101.307335 215.612000 103.921997 C209.956009 132.200668 215.802002 160.796661 233.149994 189.710007 C221.716660 196.570007 210.283340 203.429993 198.850006 210.289993"></path>
<path id="" fill="#2E8B57" fill-opacity="1.0" stroke="#000000" stroke-width="0.0" stroke-opacity="1.0" stroke-linecap="round" stroke-linejoin="round"  filling="0" d="M278.850006 169.710007 C296.197998 140.796661 302.044006 112.200668 296.388000 83.921997 C309.462677 81.307335 322.537323 78.692665 335.612000 76.078003 C343.289337 114.466003 335.802002 152.536667 313.149994 190.289993 C301.716675 183.429993 290.283325 176.570007 278.850006 169.710007"></path>
<path id="" fill="#228B22" fill-opacity="1.0" stroke="#000000" stroke-width="0.0" stroke-opacity="1.0" stroke-linecap="round" stroke-linejoin="round"  filling="0" d="M227.000000 150.000000 C227.000000 250.000000 227.000000 350.000000 227.000000 450.000000 C226.333328 450.000000 225.666672 450.000000 225.000000 450.000000 C225.000000 350.000000 225.000000 250.000000 225.000000 150.000000 C225.666672 150.000000 226.333328 150.000000 227.000000 150.000000"></path>
<path id="" fill="#228B22" fill-opacity="1.0" stroke="#000000" stroke-width="0.0" stroke-opacity="1.0" stroke-linecap="round" stroke-linejoin="round"  filling="0" d="M247.000000 150.000000 C247.000000 250.000000 247.000000 350.000000 247.000000 450.000000 C246.333328 450.000000 245.666672 450.000000 245.000000 450.000000 C245.000000 350.000000 245.000000 250.000000 245.000000 150.000000 C245.666672 150.000000 246.333328 150.000000 247.000000 150.000000"></path>
<path id="" fill="#228B22" fill-opacity="1.0" stroke="#000000" stroke-width="0.0" stroke-opacity="1.0" stroke-linecap="round" stroke-linejoin="round"  filling="0" d="M267.000000 150.000000 C267.000000 250.000000 267.000000 350.000000 267.000000 450.000000 C266.333344 450.000000 265.666656 450.000000 265.000000 450.000000 C265.000000 350.000000 265.000000 250.000000 265.000000 150.000000 C265.666656 150.000000 266.333344 150.000000 267.000000 150.000000"></path>
<path id="" fill="#228B22" fill-opacity="1.0" stroke="#000000" stroke-width="0.0" stroke-opacity="1.0" stroke-linecap="round" stroke-linejoin="round"  filling="0" d="M287.000000 150.000000 C287.000000 250.000000 287.000000 350.000000 287.000000 450.000000 C286.333344 450.000000 285.666656 450.000000 285.000000 450.000000 C285.000000 350.000000 285.000000 250.000000 285.000000 150.000000 C285.666656 150.000000 286.333344 150.000000 287.000000 150.000000"></path>
<path id="" fill="#90EE90" fill-opacity="1.0" stroke="#000000" stroke-width="0.0" stroke-opacity="1.0" stroke-linecap="round" stroke-linejoin="round"  filling="0" d="M226.447006 200.893997 C223.113678 202.560669 219.780334 204.227325 216.447006 205.893997 C216.149002 205.298004 215.850998 204.701996 215.552994 204.106003 C218.886322 202.439331 222.219666 200.772675 225.552994 199.106003 C225.850998 199.701996 226.149002 200.298004 226.447006 200.893997"></path>
<path id="" fill="#90EE90" fill-opacity="1.0" stroke="#000000" stroke-width="0.0" stroke-opacity="1.0" stroke-linecap="round" stroke-linejoin="round"  filling="0" d="M226.447006 250.893997 C223.113678 252.560669 219.780334 254.227325 216.447006 255.893997 C216.149002 255.298004 215.850998 254.701996 215.552994 254.106003 C218.886322 252.439331 222.219666 250.772675 225.552994 249.106003 C225.850998 249.701996 226.149002 250.298004 226.447006 250.893997"></path>
<path id="" fill="#90EE90" fill-opacity="1.0" stroke="#000000" stroke-width="0.0" stroke-opacity="1.0" stroke-linecap="round" stroke-linejoin="round"  filling="0" d="M226.447006 300.894012 C223.113678 302.560669 219.780334 304.227356 216.447006 305.894012 C216.149002 305.298004 215.850998 304.701996 215.552994 304.105988 C218.886322 302.439331 222.219666 300.772644 225.552994 299.105988 C225.850998 299.701996 226.149002 300.298004 226.447006 300.894012"></path>
<path id="" fill="#90EE90" fill-opacity="1.0" stroke="#000000" stroke-width="0.0" stroke-opacity="1.0" stroke-linecap="round" stroke-linejoin="round"  filling="0" d="M286.446991 199.106003 C289.780334 200.772675 293.113647 202.439331 296.446991 204.106003 C296.148987 204.701996 295.851013 205.298004 295.553009 205.893997 C292.219666 204.227325 288.886353 202.560669 285.553009 200.893997 C285.851013 200.298004 286.148987 199.701996 286.446991 199.106003"></path>
<path id="" fill="#90EE90" fill-opacity="1.0" stroke="#000000" stroke-width="0.0" stroke-opacity="1.0" stroke-linecap="round" stroke-linejoin="round"  filling="0" d="M286.446991 249.106003 C289.780334 250.772675 293.113647 252.439331 296.446991 254.106003 C296.148987 254.701996 295.851013 255.298004 295.553009 255.893997 C292.219666 254.227325 288.886353 252.560669 285.553009 250.893997 C285.851013 250.298004 286.148987 249.701996 286.446991 249.106003"></path>
<path id="" fill="#90EE90" fill-opacity="1.0" stroke="#000000" stroke-width="0.0" stroke-opacity="1.0" stroke-linecap="round" stroke-linejoin="round"  filling="0" d="M286.446991 299.105988 C289.780334 300.772644 293.113647 302.439331 296.446991 304.105988 C296.148987 304.701996 295.851013 305.298004 295.553009 305.894012 C292.219666 304.227356 288.886353 302.560669 285.553009 300.894012 C285.851013 300.298004 286.148987 299.701996 286.446991 299.105988"></path>
</svg>