<svg xmlns="http://www.w3.org/2000/svg" viewBox="0 0 512 512" height="512.0px" width="512.0px">
<path id="" fill="#A9A9A9" fill-opacity="1.0" stroke="#000000" stroke-width="0.0" stroke-opacity="1.0" stroke-linecap="round" stroke-linejoin="round"  filling="0" d="M126.000000 180.000000 C212.666672 180.000000 299.333313 180.000000 386.000000 180.000000 C386.000000 260.000000 386.000000 340.000000 386.000000 420.000000 C299.333313 420.000000 212.666672 420.000000 126.000000 420.000000 C126.000000 340.000000 126.000000 260.000000 126.000000 180.000000"></path>
<path id="" fill="#808080" fill-opacity="1.0" stroke="#000000" stroke-width="0.0" stroke-opacity="1.0" stroke-linecap="round" stroke-linejoin="round"  filling="0" d="M146.000000 170.000000 C151.333328 170.000000 156.666672 170.000000 162.000000 170.000000 C162.000000 173.333328 162.000000 176.666672 162.000000 180.000000 C156.666672 180.000000 151.333328 180.000000 146.000000 180.000000 C146.000000 176.666672 146.000000 173.333328 146.000000 170.000000"></path>
<path id="" fill="#808080" fill-opacity="1.0" stroke="#000000" stroke-width="0.0" stroke-opacity="1.0" stroke-linecap="round" stroke-linejoin="round"  filling="0" d="M166.000000 170.000000 C171.333328 170.000000 176.666672 170.000000 182.000000 170.000000 C182.000000 173.333328 182.000000 176.666672 182.000000 180.000000 C176.666672 180.000000 171.333328 180.000000 166.000000 180.000000 C166.000000 176.666672 166.000000 173.333328 166.000000 170.000000"></path>
<path id="" fill="#808080" fill-opacity="1.0" stroke="#000000" stroke-width="0.0" stroke-opacity="1.0" stroke-linecap="round" stroke-linejoin="round"  filling="0" d="M186.000000 170.000000 C191.333328 170.000000 196.666672 170.000000 202.000000 170.000000 C202.000000 173.333328 202.000000 176.666672 202.000000 180.000000 C196.666672 180.000000 191.333328 180.000000 186.000000 180.000000 C186.000000 176.666672 186.000000 173.333328 186.000000 170.000000"></path>
<path id="" fill="#808080" fill-opacity="1.0" stroke="#000000" stroke-width="0.0" stroke-opacity="1.0" stroke-linecap="round" stroke-linejoin="round"  filling="0" d="M206.000000 170.000000 C211.333328 170.000000 216.666672 170.000000 222.000000 170.000000 C222.000000 173.333328 222.000000 176.666672 222.000000 180.000000 C216.666672 180.000000 211.333328 180.000000 206.000000 180.000000 C206.000000 176.666672 206.000000 173.333328 206.000000 170.000000"></path>
<path id="" fill="#808080" fill-opacity="1.0" stroke="#000000" stroke-width="0.0" stroke-opacity="1.0" stroke-linecap="round" stroke-linejoin="round"  filling="0" d="M226.000000 170.000000 C231.333328 170.000000 236.666672 170.000000 242.000000 170.000000 C242.000000 173.333328 242.000000 176.666672 242.000000 180.000000 C236.666672 180.000000 231.333328 180.000000 226.000000 180.000000 C226.000000 176.666672 226.000000 173.333328 226.000000 170.000000"></path>
<path id="" fill="#808080" fill-opacity="1.0" stroke="#000000" stroke-width="0.0" stroke-opacity="1.0" stroke-linecap="round" stroke-linejoin="round"  filling="0" d="M246.000000 170.000000 C251.333328 170.000000 256.666656 170.000000 262.000000 170.000000 C262.000000 173.333328 262.000000 176.666672 262.000000 180.000000 C256.666656 180.000000 251.333328 180.000000 246.000000 180.000000 C246.000000 176.666672 246.000000 173.333328 246.000000 170.000000"></path>
<path id="" fill="#808080" fill-opacity="1.0" stroke="#000000" stroke-width="0.0" stroke-opacity="1.0" stroke-linecap="round" stroke-linejoin="round"  filling="0" d="M266.000000 170.000000 C271.333344 170.000000 276.666656 170.000000 282.000000 170.000000 C282.000000 173.333328 282.000000 176.666672 282.000000 180.000000 C276.666656 180.000000 271.333344 180.000000 266.000000 180.000000 C266.000000 176.666672 266.000000 173.333328 266.000000 170.000000"></path>
<path id="" fill="#808080" fill-opacity="1.0" stroke="#000000" stroke-width="0.0" stroke-opacity="1.0" stroke-linecap="round" stroke-linejoin="round"  filling="0" d="M286.000000 170.000000 C291.333344 170.000000 296.666656 170.000000 302.000000 170.000000 C302.000000 173.333328 302.000000 176.666672 302.000000 180.000000 C296.666656 180.000000 291.333344 180.000000 286.000000 180.000000 C286.000000 176.666672 286.000000 173.333328 286.000000 170.000000"></path>
<path id="" fill="#808080" fill-opacity="1.0" stroke="#000000" stroke-width="0.0" stroke-opacity="1.0" stroke-linecap="round" stroke-linejoin="round"  filling="0" d="M306.000000 170.000000 C311.333344 170.000000 316.666656 170.000000 322.000000 170.000000 C322.000000 173.333328 322.000000 176.666672 322.000000 180.000000 C316.666656 180.000000 311.333344 180.000000 306.000000 180.000000 C306.000000 176.666672 306.000000 173.333328 306.000000 170.000000"></path>
<path id="" fill="#808080" fill-opacity="1.0" stroke="#000000" stroke-width="0.0" stroke-opacity="1.0" stroke-linecap="round" stroke-linejoin="round"  filling="0" d="M326.000000 170.000000 C331.333344 170.000000 336.666656 170.000000 342.000000 170.000000 C342.000000 173.333328 342.000000 176.666672 342.000000 180.000000 C336.666656 180.000000 331.333344 180.000000 326.000000 180.000000 C326.000000 176.666672 326.000000 173.333328 326.000000 170.000000"></path>
<path id="" fill="#808080" fill-opacity="1.0" stroke="#000000" stroke-width="0.0" stroke-opacity="1.0" stroke-linecap="round" stroke-linejoin="round"  filling="0" d="M346.000000 170.000000 C351.333344 170.000000 356.666656 170.000000 362.000000 170.000000 C362.000000 173.333328 362.000000 176.666672 362.000000 180.000000 C356.666656 180.000000 351.333344 180.000000 346.000000 180.000000 C346.000000 176.666672 346.000000 173.333328 346.000000 170.000000"></path>
<path id="" fill="#909090" fill-opacity="1.0" stroke="#000000" stroke-width="0.0" stroke-opacity="1.0" stroke-linecap="round" stroke-linejoin="round"  filling="0" d="M96.000000 120.000000 C116.000000 120.000000 136.000000 120.000000 156.000000 120.000000 C156.000000 220.000000 156.000000 320.000000 156.000000 420.000000 C136.000000 420.000000 116.000000 420.000000 96.000000 420.000000 C96.000000 320.000000 96.000000 220.000000 96.000000 120.000000"></path>
<path id="" fill="#909090" fill-opacity="1.0" stroke="#000000" stroke-width="0.0" stroke-opacity="1.0" stroke-linecap="round" stroke-linejoin="round"  filling="0" d="M356.000000 120.000000 C376.000000 120.000000 396.000000 120.000000 416.000000 120.000000 C416.000000 220.000000 416.000000 320.000000 416.000000 420.000000 C396.000000 420.000000 376.000000 420.000000 356.000000 420.000000 C356.000000 320.000000 356.000000 220.000000 356.000000 120.000000"></path>
<path id="" fill="#FF0000" fill-opacity="1.0" stroke="#000000" stroke-width="0.0" stroke-opacity="1.0" stroke-linecap="round" stroke-linejoin="round"  filling="0" d="M96.000000 120.000000 C106.000000 100.000000 116.000000 80.000000 126.000000 60.000000 C136.000000 80.000000 146.000000 100.000000 156.000000 120.000000 C136.000000 120.000000 116.000000 120.000000 96.000000 120.000000"></path>
<path id="" fill="#FF0000" fill-opacity="1.0" stroke="#000000" stroke-width="0.0" stroke-opacity="1.0" stroke-linecap="round" stroke-linejoin="round"  filling="0" d="M356.000000 120.000000 C366.000000 100.000000 376.000000 80.000000 386.000000 60.000000 C396.000000 80.000000 406.000000 100.000000 416.000000 120.000000 C396.000000 120.000000 376.000000 120.000000 356.000000 120.000000"></path>
<path id="" fill="#ADD8E6" fill-opacity="1.0" stroke="#000000" stroke-width="0.0" stroke-opacity="1.0" stroke-linecap="round" stroke-linejoin="round"  filling="0" d="M116.000000 150.000000 C122.666664 150.000000 129.333328 150.000000 136.000000 150.000000 C136.000000 160.000000 136.000000 170.000000 136.000000 180.000000 C129.333328 180.000000 122.666664 180.000000 116.000000 180.000000 C116.000000 170.000000 116.000000 160.000000 116.000000 150.000000"></path>
<path id="" fill="#ADD8E6" fill-opacity="1.0" stroke="#000000" stroke-width="0.0" stroke-opacity="1.0" stroke-linecap="round" stroke-linejoin="round"  filling="0" d="M116.000000 200.000000 C122.666664 200.000000 129.333328 200.000000 136.000000 200.000000 C136.000000 210.000000 136.000000 220.000000 136.000000 230.000000 C129.333328 230.000000 122.666664 230.000000 116.000000 230.000000 C116.000000 220.000000 116.000000 210.000000 116.000000 200.000000"></path>
<path id="" fill="#ADD8E6" fill-opacity="1.0" stroke="#000000" stroke-width="0.0" stroke-opacity="1.0" stroke-linecap="round" stroke-linejoin="round"  filling="0" d="M116.000000 250.000000 C122.666664 250.000000 129.333328 250.000000 136.000000 250.000000 C136.000000 260.000000 136.000000 270.000000 136.000000 280.000000 C129.333328 280.000000 122.666664 280.000000 116.000000 280.000000 C116.000000 270.000000 116.000000 260.000000 116.000000 250.000000"></path>
<path id="" fill="#ADD8E6" fill-opacity="1.0" stroke="#000000" stroke-width="0.0" stroke-opacity="1.0" stroke-linecap="round" stroke-linejoin="round"  filling="0" d="M376.000000 150.000000 C382.666656 150.000000 389.333344 150.000000 396.000000 150.000000 C396.000000 160.000000 396.000000 170.000000 396.000000 180.000000 C389.333344 180.000000 382.666656 180.000000 376.000000 180.000000 C376.000000 170.000000 376.000000 160.000000 376.000000 150.000000"></path>
<path id="" fill="#ADD8E6" fill-opacity="1.0" stroke="#000000" stroke-width="0.0" stroke-opacity="1.0" stroke-linecap="round" stroke-linejoin="round"  filling="0" d="M376.000000 200.000000 C382.666656 200.000000 389.333344 200.000000 396.000000 200.000000 C396.000000 210.000000 396.000000 220.000000 396.000000 230.000000 C389.333344 230.000000 382.666656 230.000000 376.000000 230.000000 C376.000000 220.000000 376.000000 210.000000 376.000000 200.000000"></path>
<path id="" fill="#ADD8E6" fill-opacity="1.0" stroke="#000000" stroke-width="0.0" stroke-opacity="1.0" stroke-linecap="round" stroke-linejoin="round"  filling="0" d="M376.000000 250.000000 C382.666656 250.000000 389.333344 250.000000 396.000000 250.000000 C396.000000 260.000000 396.000000 270.000000 396.000000 280.000000 C389.333344 280.000000 382.666656 280.000000 376.000000 280.000000 C376.000000 270.000000 376.000000 260.000000 376.000000 250.000000"></path>
<path id="" fill="#ADD8E6" fill-opacity="1.0" stroke="#000000" stroke-width="0.0" stroke-opacity="1.0" stroke-linecap="round" stroke-linejoin="round"  filling="0" d="M200.000000 220.000000 C206.666672 220.000000 213.333328 220.000000 220.000000 220.000000 C220.000000 230.000000 220.000000 240.000000 220.000000 250.000000 C213.333328 250.000000 206.666672 250.000000 200.000000 250.000000 C200.000000 240.000000 200.000000 230.000000 200.000000 220.000000"></path>
<path id="" fill="#ADD8E6" fill-opacity="1.0" stroke="#000000" stroke-width="0.0" stroke-opacity="1.0" stroke-linecap="round" stroke-linejoin="round"  filling="0" d="M256.000000 220.000000 C262.666656 220.000000 269.333344 220.000000 276.000000 220.000000 C276.000000 230.000000 276.000000 240.000000 276.000000 250.000000 C269.333344 250.000000 262.666656 250.000000 256.000000 250.000000 C256.000000 240.000000 256.000000 230.000000 256.000000 220.000000"></path>
<path id="" fill="#ADD8E6" fill-opacity="1.0" stroke="#000000" stroke-width="0.0" stroke-opacity="1.0" stroke-linecap="round" stroke-linejoin="round"  filling="0" d="M312.000000 220.000000 C318.666656 220.000000 325.333344 220.000000 332.000000 220.000000 C332.000000 230.000000 332.000000 240.000000 332.000000 250.000000 C325.333344 250.000000 318.666656 250.000000 312.000000 250.000000 C312.000000 240.000000 312.000000 230.000000 312.000000 220.000000"></path>
<path id="" fill="#4B3621" fill-opacity="1.0" stroke="#000000" stroke-width="0.0" stroke-opacity="1.0" stroke-linecap="round" stroke-linejoin="round"  filling="0" d="M236.000000 420.000000 C249.333328 380.000000 262.666656 380.000000 276.000000 420.000000 C262.666656 420.000000 249.333328 420.000000 236.000000 420.000000"></path>
<path id="" fill="#FF0000" fill-opacity="1.0" stroke="#000000" stroke-width="0.0" stroke-opacity="1.0" stroke-linecap="round" stroke-linejoin="round"  filling="0" d="M116.000000 120.000000 C119.333336 113.333336 122.666664 106.666664 126.000000 100.000000 C129.333328 106.666664 132.666672 113.333336 136.000000 120.000000 C129.333328 120.000000 122.666664 120.000000 116.000000 120.000000"></path>
<path id="" fill="#FF0000" fill-opacity="1.0" stroke="#000000" stroke-width="0.0" stroke-opacity="1.0" stroke-linecap="round" stroke-linejoin="round"  filling="0" d="M376.000000 120.000000 C379.333344 113.333336 382.666656 106.666664 386.000000 100.000000 C389.333344 106.666664 392.666656 113.333336 396.000000 120.000000 C389.333344 120.000000 382.666656 120.000000 376.000000 120.000000"></path>
</svg>