<svg xmlns="http://www.w3.org/2000/svg" viewBox="0 0 512 512" height="512.0px" width="512.0px">
<path id="" fill="#008000" fill-opacity="1.0" stroke="#000000" stroke-width="0.0" stroke-opacity="1.0" stroke-linecap="round" stroke-linejoin="round"  filling="0" d="M150.000000 450.000000 C220.666672 450.000000 291.333313 450.000000 362.000000 450.000000 C326.666656 316.666656 291.333344 183.333344 256.000000 50.000000 C220.666656 183.333344 185.333344 316.666656 150.000000 450.000000"></path>
<path id="" fill="#8B4513" fill-opacity="1.0" stroke="#000000" stroke-width="0.0" stroke-opacity="1.0" stroke-linecap="round" stroke-linejoin="round"  filling="0" d="M241.000000 450.000000 C251.000000 450.000000 261.000000 450.000000 271.000000 450.000000 C271.000000 466.666656 271.000000 483.333344 271.000000 500.000000 C261.000000 500.000000 251.000000 500.000000 241.000000 500.000000 C241.000000 483.333344 241.000000 466.666656 241.000000 450.000000"></path>
<path id="" fill="#006400" fill-opacity="1.0" stroke="#000000" stroke-width="0.0" stroke-opacity="1.0" stroke-linecap="round" stroke-linejoin="round"  filling="0" d="M170.000000 400.000000 C193.333328 400.000000 216.666672 400.000000 240.000000 400.000000 C228.333328 373.333344 216.666672 346.666656 205.000000 320.000000 C193.333328 346.666656 181.666672 373.333344 170.000000 400.000000"></path>
<path id="" fill="#006400" fill-opacity="1.0" stroke="#000000" stroke-width="0.0" stroke-opacity="1.0" stroke-linecap="round" stroke-linejoin="round"  filling="0" d="M272.000000 400.000000 C295.333344 400.000000 318.666656 400.000000 342.000000 400.000000 C330.333344 373.333344 318.666656 346.666656 307.000000 320.000000 C295.333344 346.666656 283.666656 373.333344 272.000000 400.000000"></path>
<path id="" fill="#006400" fill-opacity="1.0" stroke="#000000" stroke-width="0.0" stroke-opacity="1.0" stroke-linecap="round" stroke-linejoin="round"  filling="0" d="M190.000000 320.000000 C213.333328 320.000000 236.666672 320.000000 260.000000 320.000000 C248.333328 293.333344 236.666672 266.666656 225.000000 240.000000 C213.333328 266.666656 201.666672 293.333344 190.000000 320.000000"></path>
<path id="" fill="#006400" fill-opacity="1.0" stroke="#000000" stroke-width="0.0" stroke-opacity="1.0" stroke-linecap="round" stroke-linejoin="round"  filling="0" d="M252.000000 320.000000 C275.333344 320.000000 298.666656 320.000000 322.000000 320.000000 C310.333344 293.333344 298.666656 266.666656 287.000000 240.000000 C275.333344 266.666656 263.666656 293.333344 252.000000 320.000000"></path>
<path id="" fill="#006400" fill-opacity="1.0" stroke="#000000" stroke-width="0.0" stroke-opacity="1.0" stroke-linecap="round" stroke-linejoin="round"  filling="0" d="M210.000000 240.000000 C233.333328 240.000000 256.666656 240.000000 280.000000 240.000000 C268.333344 213.333328 256.666656 186.666672 245.000000 160.000000 C233.333328 186.666672 221.666672 213.333328 210.000000 240.000000"></path>
<path id="" fill="#006400" fill-opacity="1.0" stroke="#000000" stroke-width="0.0" stroke-opacity="1.0" stroke-linecap="round" stroke-linejoin="round"  filling="0" d="M232.000000 240.000000 C255.333328 240.000000 278.666656 240.000000 302.000000 240.000000 C290.333344 213.333328 278.666656 186.666672 267.000000 160.000000 C255.333328 186.666672 243.666672 213.333328 232.000000 240.000000"></path>
<path id="" fill="#006400" fill-opacity="1.0" stroke="#000000" stroke-width="0.0" stroke-opacity="1.0" stroke-linecap="round" stroke-linejoin="round"  filling="0" d="M230.000000 160.000000 C247.333328 160.000000 264.666656 160.000000 282.000000 160.000000 C273.333344 140.000000 264.666656 120.000000 256.000000 100.000000 C247.333328 120.000000 238.666672 140.000000 230.000000 160.000000"></path>
<path id="" fill="#FF0000" fill-opacity="1.0" stroke="#000000" stroke-width="0.0" stroke-opacity="1.0" stroke-linecap="round" stroke-linejoin="round"  filling="0" d="M205.000000 420.000000 C205.000000 421.325562 204.472855 422.598206 203.535538 423.535522 C202.598221 424.472839 201.325577 425.000000 200.000000 425.000000 C198.674423 425.000000 197.401779 424.472839 196.464462 423.535522 C195.527145 422.598206 195.000000 421.325562 195.000000 420.000000 C195.000000 418.674438 195.527145 417.401794 196.464462 416.464478 C197.401779 415.527161 198.674423 415.000000 200.000000 415.000000 C201.325577 415.000000 202.598221 415.527161 203.535538 416.464478 C204.472855 417.401794 205.000000 418.674438 205.000000 420.000000"></path>
<path id="" fill="#0000FF" fill-opacity="1.0" stroke="#000000" stroke-width="0.0" stroke-opacity="1.0" stroke-linecap="round" stroke-linejoin="round"  filling="0" d="M317.000000 420.000000 C317.000000 421.325562 316.472839 422.598206 315.535522 423.535522 C314.598206 424.472839 313.325562 425.000000 312.000000 425.000000 C310.674438 425.000000 309.401794 424.472839 308.464478 423.535522 C307.527161 422.598206 307.000000 421.325562 307.000000 420.000000 C307.000000 418.674438 307.527161 417.401794 308.464478 416.464478 C309.401794 415.527161 310.674438 415.000000 312.000000 415.000000 C313.325562 415.000000 314.598206 415.527161 315.535522 416.464478 C316.472839 417.401794 317.000000 418.674438 317.000000 420.000000"></path>
<path id="" fill="#FFFF00" fill-opacity="1.0" stroke="#000000" stroke-width="0.0" stroke-opacity="1.0" stroke-linecap="round" stroke-linejoin="round"  filling="0" d="M225.000000 360.000000 C225.000000 361.325562 224.472855 362.598206 223.535538 363.535522 C222.598221 364.472839 221.325577 365.000000 220.000000 365.000000 C218.674423 365.000000 217.401779 364.472839 216.464462 363.535522 C215.527145 362.598206 215.000000 361.325562 215.000000 360.000000 C215.000000 358.674438 215.527145 357.401794 216.464462 356.464478 C217.401779 355.527161 218.674423 355.000000 220.000000 355.000000 C221.325577 355.000000 222.598221 355.527161 223.535538 356.464478 C224.472855 357.401794 225.000000 358.674438 225.000000 360.000000"></path>
<path id="" fill="#00FF00" fill-opacity="1.0" stroke="#000000" stroke-width="0.0" stroke-opacity="1.0" stroke-linecap="round" stroke-linejoin="round"  filling="0" d="M297.000000 360.000000 C297.000000 361.325562 296.472839 362.598206 295.535522 363.535522 C294.598206 364.472839 293.325562 365.000000 292.000000 365.000000 C290.674438 365.000000 289.401794 364.472839 288.464478 363.535522 C287.527161 362.598206 287.000000 361.325562 287.000000 360.000000 C287.000000 358.674438 287.527161 357.401794 288.464478 356.464478 C289.401794 355.527161 290.674438 355.000000 292.000000 355.000000 C293.325562 355.000000 294.598206 355.527161 295.535522 356.464478 C296.472839 357.401794 297.000000 358.674438 297.000000 360.000000"></path>
<path id="" fill="#FF0000" fill-opacity="1.0" stroke="#000000" stroke-width="0.0" stroke-opacity="1.0" stroke-linecap="round" stroke-linejoin="round"  filling="0" d="M245.000000 300.000000 C245.000000 301.325562 244.472855 302.598206 243.535538 303.535522 C242.598221 304.472839 241.325577 305.000000 240.000000 305.000000 C238.674423 305.000000 237.401779 304.472839 236.464462 303.535522 C235.527145 302.598206 235.000000 301.325562 235.000000 300.000000 C235.000000 298.674438 235.527145 297.401794 236.464462 296.464478 C237.401779 295.527161 238.674423 295.000000 240.000000 295.000000 C241.325577 295.000000 242.598221 295.527161 243.535538 296.464478 C244.472855 297.401794 245.000000 298.674438 245.000000 300.000000"></path>
<path id="" fill="#0000FF" fill-opacity="1.0" stroke="#000000" stroke-width="0.0" stroke-opacity="1.0" stroke-linecap="round" stroke-linejoin="round"  filling="0" d="M277.000000 300.000000 C277.000000 301.325562 276.472839 302.598206 275.535522 303.535522 C274.598206 304.472839 273.325562 305.000000 272.000000 305.000000 C270.674438 305.000000 269.401794 304.472839 268.464478 303.535522 C267.527161 302.598206 267.000000 301.325562 267.000000 300.000000 C267.000000 298.674438 267.527161 297.401794 268.464478 296.464478 C269.401794 295.527161 270.674438 295.000000 272.000000 295.000000 C273.325562 295.000000 274.598206 295.527161 275.535522 296.464478 C276.472839 297.401794 277.000000 298.674438 277.000000 300.000000"></path>
<path id="" fill="#FFFF00" fill-opacity="1.0" stroke="#000000" stroke-width="0.0" stroke-opacity="1.0" stroke-linecap="round" stroke-linejoin="round"  filling="0" d="M261.000000 240.000000 C261.000000 241.325577 260.472839 242.598221 259.535522 243.535538 C258.598206 244.472855 257.325562 245.000000 256.000000 245.000000 C254.674423 245.000000 253.401779 244.472855 252.464462 243.535538 C251.527145 242.598221 251.000000 241.325577 251.000000 240.000000 C251.000000 238.674423 251.527145 237.401779 252.464462 236.464462 C253.401779 235.527145 254.674423 235.000000 256.000000 235.000000 C257.325562 235.000000 258.598206 235.527145 259.535522 236.464462 C260.472839 237.401779 261.000000 238.674423 261.000000 240.000000"></path>
<path id="" fill="#00FF00" fill-opacity="1.0" stroke="#000000" stroke-width="0.0" stroke-opacity="1.0" stroke-linecap="round" stroke-linejoin="round"  filling="0" d="M235.000000 180.000000 C235.000000 181.325577 234.472855 182.598221 233.535538 183.535538 C232.598221 184.472855 231.325577 185.000000 230.000000 185.000000 C228.674423 185.000000 227.401779 184.472855 226.464462 183.535538 C225.527145 182.598221 225.000000 181.325577 225.000000 180.000000 C225.000000 178.674423 225.527145 177.401779 226.464462 176.464462 C227.401779 175.527145 228.674423 175.000000 230.000000 175.000000 C231.325577 175.000000 232.598221 175.527145 233.535538 176.464462 C234.472855 177.401779 235.000000 178.674423 235.000000 180.000000"></path>
<path id="" fill="#FF0000" fill-opacity="1.0" stroke="#000000" stroke-width="0.0" stroke-opacity="1.0" stroke-linecap="round" stroke-linejoin="round"  filling="0" d="M287.000000 180.000000 C287.000000 181.325577 286.472839 182.598221 285.535522 183.535538 C284.598206 184.472855 283.325562 185.000000 282.000000 185.000000 C280.674438 185.000000 279.401794 184.472855 278.464478 183.535538 C277.527161 182.598221 277.000000 181.325577 277.000000 180.000000 C277.000000 178.674423 277.527161 177.401779 278.464478 176.464462 C279.401794 175.527145 280.674438 175.000000 282.000000 175.000000 C283.325562 175.000000 284.598206 175.527145 285.535522 176.464462 C286.472839 177.401779 287.000000 178.674423 287.000000 180.000000"></path>
<path id="" fill="#0000FF" fill-opacity="1.0" stroke="#000000" stroke-width="0.0" stroke-opacity="1.0" stroke-linecap="round" stroke-linejoin="round"  filling="0" d="M261.000000 120.000000 C261.000000 121.325577 260.472839 122.598213 259.535522 123.535538 C258.598206 124.472862 257.325562 125.000000 256.000000 125.000000 C254.674423 125.000000 253.401779 124.472862 252.464462 123.535538 C251.527145 122.598213 251.000000 121.325577 251.000000 120.000000 C251.000000 118.674423 251.527145 117.401787 252.464462 116.464462 C253.401779 115.527138 254.674423 115.000000 256.000000 115.000000 C257.325562 115.000000 258.598206 115.527138 259.535522 116.464462 C260.472839 117.401787 261.000000 118.674423 261.000000 120.000000"></path>
</svg>