<svg xmlns="http://www.w3.org/2000/svg" viewBox="0 0 512 512" height="512.0px" width="512.0px">
<path id="" fill="#4CAF50" fill-opacity="1.0" stroke="#000000" stroke-width="0.0" stroke-opacity="1.0" stroke-linecap="round" stroke-linejoin="round"  filling="0" d="M436.000000 256.000000 C436.000000 274.558044 417.022827 292.374969 383.279236 305.497467 C349.535645 318.619965 303.720673 326.000000 256.000000 326.000000 C208.279343 326.000000 162.464386 318.619965 128.720779 305.497467 C94.977173 292.374969 76.000000 274.558044 76.000000 256.000000 C76.000000 237.441971 94.977173 219.625046 128.720779 206.502533 C162.464386 193.380020 208.279343 186.000000 256.000000 186.000000 C303.720673 186.000000 349.535645 193.380020 383.279236 206.502533 C417.022827 219.625046 436.000000 237.441971 436.000000 256.000000"></path>
<path id="" fill="#4CAF50" fill-opacity="1.0" stroke="#000000" stroke-width="0.0" stroke-opacity="1.0" stroke-linecap="round" stroke-linejoin="round"  filling="0" d="M81.546997 264.320007 C74.270332 269.171326 68.038338 271.950653 62.851002 272.657990 C58.977669 273.186646 55.494999 272.677979 52.403000 271.131989 C49.013668 269.437317 46.500000 266.747009 44.862000 263.061005 C41.145332 254.698334 43.028999 239.290665 50.513000 216.837997 C51.386333 214.218002 53.058002 212.290665 55.528000 211.056000 C57.998001 209.820663 60.542667 209.639664 63.161999 210.513000 C65.781998 211.386337 67.709335 213.057999 68.944000 215.528000 C70.179329 217.998001 70.360329 220.542664 69.487000 223.162003 C66.332329 232.626007 64.297997 240.328995 63.383999 246.270996 C63.017334 248.651657 62.819668 250.576324 62.791000 252.044998 C64.784996 251.210999 67.338997 249.755997 70.453003 247.679993 C72.750336 246.147995 75.252998 245.652664 77.960999 246.194000 C80.668999 246.736008 82.789001 248.155670 84.320999 250.453003 C85.852333 252.750336 86.347328 255.253006 85.806000 257.960999 C85.264000 260.669006 83.844330 262.788666 81.546997 264.320007"></path>
<path id="" fill="#45a049" fill-opacity="1.0" stroke="#000000" stroke-width="0.0" stroke-opacity="1.0" stroke-linecap="round" stroke-linejoin="round"  filling="0" d="M150.000000 310.000000 C156.666672 310.000000 163.333328 310.000000 170.000000 310.000000 C170.000000 323.333344 170.000000 336.666656 170.000000 350.000000 C163.333328 350.000000 156.666672 350.000000 150.000000 350.000000 C150.000000 336.666656 150.000000 323.333344 150.000000 310.000000"></path>
<path id="" fill="#45a049" fill-opacity="1.0" stroke="#000000" stroke-width="0.0" stroke-opacity="1.0" stroke-linecap="round" stroke-linejoin="round"  filling="0" d="M350.000000 310.000000 C356.666656 310.000000 363.333344 310.000000 370.000000 310.000000 C370.000000 323.333344 370.000000 336.666656 370.000000 350.000000 C363.333344 350.000000 356.666656 350.000000 350.000000 350.000000 C350.000000 336.666656 350.000000 323.333344 350.000000 310.000000"></path>
<path id="" fill="#66BB6A" fill-opacity="1.0" stroke="#000000" stroke-width="0.0" stroke-opacity="1.0" stroke-linecap="round" stroke-linejoin="round"  filling="0" d="M256.000000 186.000000 C189.333328 119.333328 166.000000 136.000000 186.000000 236.000000 C232.666672 236.000000 279.333344 236.000000 326.000000 236.000000 C346.000000 136.000000 322.666687 119.333328 256.000000 186.000000"></path>
<path id="" fill="#4CAF50" fill-opacity="1.0" stroke="#000000" stroke-width="0.0" stroke-opacity="1.0" stroke-linecap="round" stroke-linejoin="round"  filling="0" d="M379.613007 222.427994 C408.639008 208.768661 430.970337 209.757004 446.606995 225.393005 C449.535675 228.322342 451.000000 231.858002 451.000000 236.000000 C451.000000 240.141998 449.535675 243.677658 446.606995 246.606995 C443.677673 249.535660 440.141998 251.000000 436.000000 251.000000 C431.858002 251.000000 428.322327 249.535660 425.393005 246.606995 C419.696320 240.909668 408.694336 241.898010 392.386993 249.572006 C388.639008 251.335999 384.816345 251.516342 380.919006 250.113007 C377.021667 248.710342 374.191345 246.134995 372.428009 242.386993 C370.664001 238.638992 370.483673 234.816330 371.886993 230.919006 C373.289673 227.021667 375.864990 224.191330 379.613007 222.427994"></path>
<path id="" fill="#4CAF50" fill-opacity="1.0" stroke="#000000" stroke-width="0.0" stroke-opacity="1.0" stroke-linecap="round" stroke-linejoin="round"  filling="0" d="M486.000000 236.000000 C486.000000 246.604584 481.782837 256.785706 474.284271 264.284271 C466.785706 271.782837 456.604584 276.000000 446.000000 276.000000 C435.395416 276.000000 425.214294 271.782837 417.715729 264.284271 C410.217163 256.785706 406.000000 246.604584 406.000000 236.000000 C406.000000 225.395416 410.217163 215.214310 417.715729 207.715729 C425.214294 200.217148 435.395416 196.000000 446.000000 196.000000 C456.604584 196.000000 466.785706 200.217148 474.284271 207.715729 C481.782837 215.214310 486.000000 225.395416 486.000000 236.000000"></path>
<path id="" fill="#000000" fill-opacity="1.0" stroke="#000000" stroke-width="0.0" stroke-opacity="1.0" stroke-linecap="round" stroke-linejoin="round"  filling="0" d="M462.000000 230.000000 C462.000000 231.590683 461.367432 233.117859 460.242645 234.242645 C459.117859 235.367432 457.590698 236.000000 456.000000 236.000000 C454.409302 236.000000 452.882141 235.367432 451.757355 234.242645 C450.632568 233.117859 450.000000 231.590683 450.000000 230.000000 C450.000000 228.409317 450.632568 226.882141 451.757355 225.757355 C452.882141 224.632568 454.409302 224.000000 456.000000 224.000000 C457.590698 224.000000 459.117859 224.632568 460.242645 225.757355 C461.367432 226.882141 462.000000 228.409317 462.000000 230.000000"></path>
<path id="" fill="#33691E" fill-opacity="1.0" stroke="#000000" stroke-width="0.0" stroke-opacity="1.0" stroke-linecap="round" stroke-linejoin="round"  filling="0" d="M426.000000 200.000000 C429.333344 190.000000 432.666656 180.000000 436.000000 170.000000 C439.333344 180.000000 442.666656 190.000000 446.000000 200.000000 C439.333344 200.000000 432.666656 200.000000 426.000000 200.000000"></path>
<path id="" fill="#FFA000" fill-opacity="1.0" stroke="#000000" stroke-width="0.0" stroke-opacity="1.0" stroke-linecap="round" stroke-linejoin="round"  filling="0" d="M145.000000 216.000000 C151.666672 216.000000 158.333328 216.000000 165.000000 216.000000 C166.325577 216.000000 167.598221 216.527145 168.535538 217.464462 C169.472855 218.401779 170.000000 219.674423 170.000000 221.000000 C170.000000 231.000000 170.000000 241.000000 170.000000 251.000000 C170.000000 252.325577 169.472855 253.598221 168.535538 254.535538 C167.598221 255.472855 166.325577 256.000000 165.000000 256.000000 C158.333328 256.000000 151.666672 256.000000 145.000000 256.000000 C143.674423 256.000000 142.401779 255.472855 141.464462 254.535538 C140.527145 253.598221 140.000000 252.325577 140.000000 251.000000 C140.000000 241.000000 140.000000 231.000000 140.000000 221.000000 C140.000000 219.674423 140.527145 218.401779 141.464462 217.464462 C142.401779 216.527145 143.674423 216.000000 145.000000 216.000000"></path>
<path id="" fill="#FFA000" fill-opacity="1.0" stroke="#000000" stroke-width="0.0" stroke-opacity="1.0" stroke-linecap="round" stroke-linejoin="round"  filling="0" d="M165.000000 206.000000 C165.000000 208.651154 163.945724 211.196426 162.071075 213.071075 C160.196426 214.945724 157.651154 216.000000 155.000000 216.000000 C152.348846 216.000000 149.803574 214.945724 147.928925 213.071075 C146.054276 211.196426 145.000000 208.651154 145.000000 206.000000 C145.000000 203.348846 146.054276 200.803574 147.928925 198.928925 C149.803574 197.054276 152.348846 196.000000 155.000000 196.000000 C157.651154 196.000000 160.196426 197.054276 162.071075 198.928925 C163.945724 200.803574 165.000000 203.348846 165.000000 206.000000"></path>
<path id="" fill="#F57C00" fill-opacity="1.0" stroke="#000000" stroke-width="0.0" stroke-opacity="1.0" stroke-linecap="round" stroke-linejoin="round"  filling="0" d="M195.000000 216.000000 C201.666672 216.000000 208.333328 216.000000 215.000000 216.000000 C216.325577 216.000000 217.598221 216.527145 218.535538 217.464462 C219.472855 218.401779 220.000000 219.674423 220.000000 221.000000 C220.000000 231.000000 220.000000 241.000000 220.000000 251.000000 C220.000000 252.325577 219.472855 253.598221 218.535538 254.535538 C217.598221 255.472855 216.325577 256.000000 215.000000 256.000000 C208.333328 256.000000 201.666672 256.000000 195.000000 256.000000 C193.674423 256.000000 192.401779 255.472855 191.464462 254.535538 C190.527145 253.598221 190.000000 252.325577 190.000000 251.000000 C190.000000 241.000000 190.000000 231.000000 190.000000 221.000000 C190.000000 219.674423 190.527145 218.401779 191.464462 217.464462 C192.401779 216.527145 193.674423 216.000000 195.000000 216.000000"></path>
<path id="" fill="#F57C00" fill-opacity="1.0" stroke="#000000" stroke-width="0.0" stroke-opacity="1.0" stroke-linecap="round" stroke-linejoin="round"  filling="0" d="M215.000000 206.000000 C215.000000 208.651154 213.945724 211.196426 212.071075 213.071075 C210.196426 214.945724 207.651154 216.000000 205.000000 216.000000 C202.348846 216.000000 199.803574 214.945724 197.928925 213.071075 C196.054276 211.196426 195.000000 208.651154 195.000000 206.000000 C195.000000 203.348846 196.054276 200.803574 197.928925 198.928925 C199.803574 197.054276 202.348846 196.000000 205.000000 196.000000 C207.651154 196.000000 210.196426 197.054276 212.071075 198.928925 C213.945724 200.803574 215.000000 203.348846 215.000000 206.000000"></path>
<path id="" fill="#E64A19" fill-opacity="1.0" stroke="#000000" stroke-width="0.0" stroke-opacity="1.0" stroke-linecap="round" stroke-linejoin="round"  filling="0" d="M245.000000 216.000000 C251.666672 216.000000 258.333344 216.000000 265.000000 216.000000 C266.325562 216.000000 267.598206 216.527145 268.535522 217.464462 C269.472839 218.401779 270.000000 219.674423 270.000000 221.000000 C270.000000 231.000000 270.000000 241.000000 270.000000 251.000000 C270.000000 252.325577 269.472839 253.598221 268.535522 254.535538 C267.598206 255.472855 266.325562 256.000000 265.000000 256.000000 C258.333344 256.000000 251.666672 256.000000 245.000000 256.000000 C243.674423 256.000000 242.401779 255.472855 241.464462 254.535538 C240.527145 253.598221 240.000000 252.325577 240.000000 251.000000 C240.000000 241.000000 240.000000 231.000000 240.000000 221.000000 C240.000000 219.674423 240.527145 218.401779 241.464462 217.464462 C242.401779 216.527145 243.674423 216.000000 245.000000 216.000000"></path>
<path id="" fill="#E64A19" fill-opacity="1.0" stroke="#000000" stroke-width="0.0" stroke-opacity="1.0" stroke-linecap="round" stroke-linejoin="round"  filling="0" d="M265.000000 206.000000 C265.000000 208.651154 263.945709 211.196426 262.071075 213.071075 C260.196442 214.945724 257.651154 216.000000 255.000000 216.000000 C252.348846 216.000000 249.803574 214.945724 247.928925 213.071075 C246.054276 211.196426 245.000000 208.651154 245.000000 206.000000 C245.000000 203.348846 246.054276 200.803574 247.928925 198.928925 C249.803574 197.054276 252.348846 196.000000 255.000000 196.000000 C257.651154 196.000000 260.196442 197.054276 262.071075 198.928925 C263.945709 200.803574 265.000000 203.348846 265.000000 206.000000"></path>
<path id="" fill="#5D4037" fill-opacity="1.0" stroke="#000000" stroke-width="0.0" stroke-opacity="1.0" stroke-linecap="round" stroke-linejoin="round"  filling="0" d="M295.000000 216.000000 C301.666656 216.000000 308.333344 216.000000 315.000000 216.000000 C316.325562 216.000000 317.598206 216.527145 318.535522 217.464462 C319.472839 218.401779 320.000000 219.674423 320.000000 221.000000 C320.000000 231.000000 320.000000 241.000000 320.000000 251.000000 C320.000000 252.325577 319.472839 253.598221 318.535522 254.535538 C317.598206 255.472855 316.325562 256.000000 315.000000 256.000000 C308.333344 256.000000 301.666656 256.000000 295.000000 256.000000 C293.674438 256.000000 292.401794 255.472855 291.464478 254.535538 C290.527161 253.598221 290.000000 252.325577 290.000000 251.000000 C290.000000 241.000000 290.000000 231.000000 290.000000 221.000000 C290.000000 219.674423 290.527161 218.401779 291.464478 217.464462 C292.401794 216.527145 293.674438 216.000000 295.000000 216.000000"></path>
<path id="" fill="#5D4037" fill-opacity="1.0" stroke="#000000" stroke-width="0.0" stroke-opacity="1.0" stroke-linecap="round" stroke-linejoin="round"  filling="0" d="M315.000000 206.000000 C315.000000 208.651154 313.945709 211.196426 312.071075 213.071075 C310.196442 214.945724 307.651154 216.000000 305.000000 216.000000 C302.348846 216.000000 299.803558 214.945724 297.928925 213.071075 C296.054291 211.196426 295.000000 208.651154 295.000000 206.000000 C295.000000 203.348846 296.054291 200.803574 297.928925 198.928925 C299.803558 197.054276 302.348846 196.000000 305.000000 196.000000 C307.651154 196.000000 310.196442 197.054276 312.071075 198.928925 C313.945709 200.803574 315.000000 203.348846 315.000000 206.000000"></path>
<path id="" fill="#7B1FA2" fill-opacity="1.0" stroke="#000000" stroke-width="0.0" stroke-opacity="1.0" stroke-linecap="round" stroke-linejoin="round"  filling="0" d="M345.000000 216.000000 C351.666656 216.000000 358.333344 216.000000 365.000000 216.000000 C366.325562 216.000000 367.598206 216.527145 368.535522 217.464462 C369.472839 218.401779 370.000000 219.674423 370.000000 221.000000 C370.000000 231.000000 370.000000 241.000000 370.000000 251.000000 C370.000000 252.325577 369.472839 253.598221 368.535522 254.535538 C367.598206 255.472855 366.325562 256.000000 365.000000 256.000000 C358.333344 256.000000 351.666656 256.000000 345.000000 256.000000 C343.674438 256.000000 342.401794 255.472855 341.464478 254.535538 C340.527161 253.598221 340.000000 252.325577 340.000000 251.000000 C340.000000 241.000000 340.000000 231.000000 340.000000 221.000000 C340.000000 219.674423 340.527161 218.401779 341.464478 217.464462 C342.401794 216.527145 343.674438 216.000000 345.000000 216.000000"></path>
<path id="" fill="#7B1FA2" fill-opacity="1.0" stroke="#000000" stroke-width="0.0" stroke-opacity="1.0" stroke-linecap="round" stroke-linejoin="round"  filling="0" d="M365.000000 206.000000 C365.000000 208.651154 363.945709 211.196426 362.071075 213.071075 C360.196442 214.945724 357.651154 216.000000 355.000000 216.000000 C352.348846 216.000000 349.803558 214.945724 347.928925 213.071075 C346.054291 211.196426 345.000000 208.651154 345.000000 206.000000 C345.000000 203.348846 346.054291 200.803574 347.928925 198.928925 C349.803558 197.054276 352.348846 196.000000 355.000000 196.000000 C357.651154 196.000000 360.196442 197.054276 362.071075 198.928925 C363.945709 200.803574 365.000000 203.348846 365.000000 206.000000"></path>
</svg>