<svg xmlns="http://www.w3.org/2000/svg" viewBox="0 0 512 512" height="512.0px" width="512.0px">
<path id="" fill="#ADD8E6" fill-opacity="1.0" stroke="#000000" stroke-width="0.0" stroke-opacity="1.0" stroke-linecap="round" stroke-linejoin="round"  filling="0" d="M0.000000 0.000000 C170.666672 0.000000 341.333313 0.000000 512.000000 0.000000 C512.000000 170.666672 512.000000 341.333313 512.000000 512.000000 C341.333313 512.000000 170.666672 512.000000 0.000000 512.000000 C0.000000 341.333313 0.000000 170.666672 0.000000 0.000000"></path>
<path id="" fill="#006400" fill-opacity="1.0" stroke="#000000" stroke-width="0.0" stroke-opacity="1.0" stroke-linecap="round" stroke-linejoin="round"  filling="0" d="M406.000000 300.000000 C406.000000 339.767212 390.185669 377.946350 362.066010 406.066010 C333.946350 434.185669 295.767212 450.000000 256.000000 450.000000 C216.232788 450.000000 178.053665 434.185669 149.933990 406.066010 C121.814323 377.946350 106.000000 339.767212 106.000000 300.000000 C106.000000 260.232788 121.814323 222.053665 149.933990 193.933990 C178.053665 165.814316 216.232788 150.000000 256.000000 150.000000 C295.767212 150.000000 333.946350 165.814316 362.066010 193.933990 C390.185669 222.053665 406.000000 260.232788 406.000000 300.000000"></path>
<path id="" fill="#008000" fill-opacity="1.0" stroke="#000000" stroke-width="0.0" stroke-opacity="1.0" stroke-linecap="round" stroke-linejoin="round"  filling="0" d="M396.000000 300.000000 C396.000000 337.116058 381.239960 372.749908 354.994934 398.994934 C328.749908 425.239960 293.116058 440.000000 256.000000 440.000000 C218.883926 440.000000 183.250076 425.239960 157.005051 398.994934 C130.760025 372.749908 116.000000 337.116058 116.000000 300.000000 C116.000000 262.883942 130.760025 227.250076 157.005051 201.005051 C183.250076 174.760025 218.883926 160.000000 256.000000 160.000000 C293.116058 160.000000 328.749908 174.760025 354.994934 201.005051 C381.239960 227.250076 396.000000 262.883942 396.000000 300.000000"></path>
<path id="" fill="#2ecc71" fill-opacity="1.0" stroke="#000000" stroke-width="0.0" stroke-opacity="1.0" stroke-linecap="round" stroke-linejoin="round"  filling="0" d="M306.000000 250.000000 C306.000000 257.953430 300.728577 265.589264 291.355347 271.213196 C281.982117 276.837128 269.255737 280.000000 256.000000 280.000000 C242.744263 280.000000 230.017883 276.837128 220.644653 271.213196 C211.271423 265.589264 206.000000 257.953430 206.000000 250.000000 C206.000000 242.046555 211.271423 234.410736 220.644653 228.786804 C230.017883 223.162872 242.744263 220.000000 256.000000 220.000000 C269.255737 220.000000 281.982117 223.162872 291.355347 228.786804 C300.728577 234.410736 306.000000 242.046555 306.000000 250.000000"></path>
<path id="" fill="#2ecc71" fill-opacity="1.0" stroke="#000000" stroke-width="0.0" stroke-opacity="1.0" stroke-linecap="round" stroke-linejoin="round"  filling="0" d="M321.000000 230.000000 C321.000000 236.627869 318.364288 242.991058 313.677673 247.677673 C308.991058 252.364288 302.627869 255.000000 296.000000 255.000000 C289.372131 255.000000 283.008942 252.364288 278.322327 247.677673 C273.635712 242.991058 271.000000 236.627869 271.000000 230.000000 C271.000000 223.372131 273.635712 217.008942 278.322327 212.322327 C283.008942 207.635712 289.372131 205.000000 296.000000 205.000000 C302.627869 205.000000 308.991058 207.635712 313.677673 212.322327 C318.364288 217.008942 321.000000 223.372131 321.000000 230.000000"></path>
<path id="" fill="#FFFFFF" fill-opacity="1.0" stroke="#000000" stroke-width="0.0" stroke-opacity="1.0" stroke-linecap="round" stroke-linejoin="round"  filling="0" d="M319.000000 220.000000 C319.000000 222.120911 318.156586 224.157150 316.656860 225.656860 C315.157135 227.156570 313.120911 228.000000 311.000000 228.000000 C308.879089 228.000000 306.842865 227.156570 305.343140 225.656860 C303.843414 224.157150 303.000000 222.120911 303.000000 220.000000 C303.000000 217.879089 303.843414 215.842850 305.343140 214.343140 C306.842865 212.843430 308.879089 212.000000 311.000000 212.000000 C313.120911 212.000000 315.157135 212.843430 316.656860 214.343140 C318.156586 215.842850 319.000000 217.879089 319.000000 220.000000"></path>
<path id="" fill="#FFFFFF" fill-opacity="1.0" stroke="#000000" stroke-width="0.0" stroke-opacity="1.0" stroke-linecap="round" stroke-linejoin="round"  filling="0" d="M329.000000 230.000000 C329.000000 232.120911 328.156586 234.157150 326.656860 235.656860 C325.157135 237.156570 323.120911 238.000000 321.000000 238.000000 C318.879089 238.000000 316.842865 237.156570 315.343140 235.656860 C313.843414 234.157150 313.000000 232.120911 313.000000 230.000000 C313.000000 227.879089 313.843414 225.842850 315.343140 224.343140 C316.842865 222.843430 318.879089 222.000000 321.000000 222.000000 C323.120911 222.000000 325.157135 222.843430 326.656860 224.343140 C328.156586 225.842850 329.000000 227.879089 329.000000 230.000000"></path>
<path id="" fill="#000000" fill-opacity="1.0" stroke="#000000" stroke-width="0.0" stroke-opacity="1.0" stroke-linecap="round" stroke-linejoin="round"  filling="0" d="M315.000000 220.000000 C315.000000 221.060455 314.578278 222.078568 313.828430 222.828430 C313.078583 223.578293 312.060455 224.000000 311.000000 224.000000 C309.939545 224.000000 308.921417 223.578293 308.171570 222.828430 C307.421722 222.078568 307.000000 221.060455 307.000000 220.000000 C307.000000 218.939545 307.421722 217.921432 308.171570 217.171570 C308.921417 216.421707 309.939545 216.000000 311.000000 216.000000 C312.060455 216.000000 313.078583 216.421707 313.828430 217.171570 C314.578278 217.921432 315.000000 218.939545 315.000000 220.000000"></path>
<path id="" fill="#000000" fill-opacity="1.0" stroke="#000000" stroke-width="0.0" stroke-opacity="1.0" stroke-linecap="round" stroke-linejoin="round"  filling="0" d="M325.000000 230.000000 C325.000000 231.060455 324.578278 232.078568 323.828430 232.828430 C323.078583 233.578293 322.060455 234.000000 321.000000 234.000000 C319.939545 234.000000 318.921417 233.578293 318.171570 232.828430 C317.421722 232.078568 317.000000 231.060455 317.000000 230.000000 C317.000000 228.939545 317.421722 227.921432 318.171570 227.171570 C318.921417 226.421707 319.939545 226.000000 321.000000 226.000000 C322.060455 226.000000 323.078583 226.421707 323.828430 227.171570 C324.578278 227.921432 325.000000 228.939545 325.000000 230.000000"></path>
<path id="" fill="#2ecc71" fill-opacity="1.0" stroke="#000000" stroke-width="0.0" stroke-opacity="1.0" stroke-linecap="round" stroke-linejoin="round"  filling="0" d="M238.682999 261.342010 C232.463669 273.780670 232.463669 286.219330 238.682999 298.657990 C236.894333 299.552673 235.105667 300.447327 233.317001 301.342010 C226.203003 287.114014 226.203003 272.885986 233.317001 258.657990 C235.105667 259.552673 236.894333 260.447327 238.682999 261.342010"></path>
<path id="" fill="#2ecc71" fill-opacity="1.0" stroke="#000000" stroke-width="0.0" stroke-opacity="1.0" stroke-linecap="round" stroke-linejoin="round"  filling="0" d="M278.683014 258.657990 C285.796997 272.885986 285.796997 287.114014 278.683014 301.342010 C276.894348 300.447327 275.105652 299.552673 273.316986 298.657990 C279.536316 286.219330 279.536316 273.780670 273.316986 261.342010 C275.105652 260.447327 276.894348 259.552673 278.683014 258.657990"></path>
<path id="" fill="#2ecc71" fill-opacity="1.0" stroke="#000000" stroke-width="0.0" stroke-opacity="1.0" stroke-linecap="round" stroke-linejoin="round"  filling="0" d="M218.828003 272.828003 C207.040665 284.615997 207.207336 299.600342 219.328003 317.781006 C217.109329 319.260345 214.890671 320.739655 212.671997 322.218994 C198.125992 300.399658 198.292664 282.050659 213.171997 267.171997 C215.057327 269.057343 216.942673 270.942657 218.828003 272.828003"></path>
<path id="" fill="#2ecc71" fill-opacity="1.0" stroke="#000000" stroke-width="0.0" stroke-opacity="1.0" stroke-linecap="round" stroke-linejoin="round"  filling="0" d="M298.828003 267.171997 C313.707336 282.050659 313.873993 300.399658 299.328003 322.218994 C297.109344 320.739655 294.890656 319.260345 292.671997 317.781006 C304.792664 299.600342 304.959320 284.615997 293.171997 272.828003 C295.057343 270.942657 296.942657 269.057343 298.828003 267.171997"></path>
</svg>