<svg xmlns="http://www.w3.org/2000/svg" viewBox="0 0 512 512" height="512.0px" width="512.0px">
<path id="" fill="#D2B48C" fill-opacity="1.0" stroke="#000000" stroke-width="0.0" stroke-opacity="1.0" stroke-linecap="round" stroke-linejoin="round"  filling="0" d="M356.000000 256.000000 C356.000000 271.906891 345.457153 287.178528 326.710693 298.426392 C307.964233 309.674255 282.511475 316.000000 256.000000 316.000000 C229.488525 316.000000 204.035767 309.674255 185.289322 298.426392 C166.542877 287.178528 156.000000 271.906891 156.000000 256.000000 C156.000000 240.093109 166.542877 224.821457 185.289322 213.573593 C204.035767 202.325729 229.488525 196.000000 256.000000 196.000000 C282.511475 196.000000 307.964233 202.325729 326.710693 213.573593 C345.457153 224.821457 356.000000 240.093109 356.000000 256.000000"></path>
<path id="" fill="#8B4513" fill-opacity="1.0" stroke="#000000" stroke-width="0.0" stroke-opacity="1.0" stroke-linecap="round" stroke-linejoin="round"  filling="0" d="M235.000000 230.000000 C235.000000 235.302292 233.418564 240.392853 230.606598 244.142136 C227.794632 247.891418 223.976715 250.000000 220.000000 250.000000 C216.023285 250.000000 212.205368 247.891418 209.393402 244.142136 C206.581436 240.392853 205.000000 235.302292 205.000000 230.000000 C205.000000 224.697708 206.581436 219.607147 209.393402 215.857864 C212.205368 212.108582 216.023285 210.000000 220.000000 210.000000 C223.976715 210.000000 227.794632 212.108582 230.606598 215.857864 C233.418564 219.607147 235.000000 224.697708 235.000000 230.000000"></path>
<path id="" fill="#8B4513" fill-opacity="1.0" stroke="#000000" stroke-width="0.0" stroke-opacity="1.0" stroke-linecap="round" stroke-linejoin="round"  filling="0" d="M298.000000 270.000000 C298.000000 275.832520 296.102295 281.432129 292.727936 285.556335 C289.353577 289.680542 284.772064 292.000000 280.000000 292.000000 C275.227936 292.000000 270.646423 289.680542 267.272064 285.556335 C263.897705 281.432129 262.000000 275.832520 262.000000 270.000000 C262.000000 264.167480 263.897705 258.567871 267.272064 254.443649 C270.646423 250.319427 275.227936 248.000000 280.000000 248.000000 C284.772064 248.000000 289.353577 250.319427 292.727936 254.443649 C296.102295 258.567871 298.000000 264.167480 298.000000 270.000000"></path>
<path id="" fill="#8B4513" fill-opacity="1.0" stroke="#000000" stroke-width="0.0" stroke-opacity="1.0" stroke-linecap="round" stroke-linejoin="round"  filling="0" d="M322.000000 220.000000 C322.000000 223.976715 320.734863 227.794632 318.485291 230.606598 C316.235718 233.418564 313.181366 235.000000 310.000000 235.000000 C306.818634 235.000000 303.764282 233.418564 301.514709 230.606598 C299.265137 227.794632 298.000000 223.976715 298.000000 220.000000 C298.000000 216.023285 299.265137 212.205368 301.514709 209.393402 C303.764282 206.581436 306.818634 205.000000 310.000000 205.000000 C313.181366 205.000000 316.235718 206.581436 318.485291 209.393402 C320.734863 212.205368 322.000000 216.023285 322.000000 220.000000"></path>
<path id="" fill="#D2B48C" fill-opacity="1.0" stroke="#000000" stroke-width="0.0" stroke-opacity="1.0" stroke-linecap="round" stroke-linejoin="round"  filling="0" d="M196.000000 296.000000 C202.666672 296.000000 209.333328 296.000000 216.000000 296.000000 C216.000000 336.000000 216.000000 376.000000 216.000000 416.000000 C209.333328 416.000000 202.666672 416.000000 196.000000 416.000000 C196.000000 376.000000 196.000000 336.000000 196.000000 296.000000"></path>
<path id="" fill="#D2B48C" fill-opacity="1.0" stroke="#000000" stroke-width="0.0" stroke-opacity="1.0" stroke-linecap="round" stroke-linejoin="round"  filling="0" d="M236.000000 306.000000 C242.666672 306.000000 249.333328 306.000000 256.000000 306.000000 C256.000000 346.000000 256.000000 386.000000 256.000000 426.000000 C249.333328 426.000000 242.666672 426.000000 236.000000 426.000000 C236.000000 386.000000 236.000000 346.000000 236.000000 306.000000"></path>
<path id="" fill="#D2B48C" fill-opacity="1.0" stroke="#000000" stroke-width="0.0" stroke-opacity="1.0" stroke-linecap="round" stroke-linejoin="round"  filling="0" d="M276.000000 306.000000 C282.666656 306.000000 289.333344 306.000000 296.000000 306.000000 C296.000000 346.000000 296.000000 386.000000 296.000000 426.000000 C289.333344 426.000000 282.666656 426.000000 276.000000 426.000000 C276.000000 386.000000 276.000000 346.000000 276.000000 306.000000"></path>
<path id="" fill="#D2B48C" fill-opacity="1.0" stroke="#000000" stroke-width="0.0" stroke-opacity="1.0" stroke-linecap="round" stroke-linejoin="round"  filling="0" d="M316.000000 296.000000 C322.666656 296.000000 329.333344 296.000000 336.000000 296.000000 C336.000000 336.000000 336.000000 376.000000 336.000000 416.000000 C329.333344 416.000000 322.666656 416.000000 316.000000 416.000000 C316.000000 376.000000 316.000000 336.000000 316.000000 296.000000"></path>
<path id="" fill="#D2B48C" fill-opacity="1.0" stroke="#000000" stroke-width="0.0" stroke-opacity="1.0" stroke-linecap="round" stroke-linejoin="round"  filling="0" d="M316.000000 76.000000 C329.333344 76.000000 342.666656 76.000000 356.000000 76.000000 C356.000000 136.000000 356.000000 196.000000 356.000000 256.000000 C342.666656 256.000000 329.333344 256.000000 316.000000 256.000000 C316.000000 196.000000 316.000000 136.000000 316.000000 76.000000"></path>
<path id="" fill="#8B4513" fill-opacity="1.0" stroke="#000000" stroke-width="0.0" stroke-opacity="1.0" stroke-linecap="round" stroke-linejoin="round"  filling="0" d="M346.000000 120.000000 C346.000000 123.976723 344.945709 127.794632 343.071075 130.606598 C341.196442 133.418564 338.651154 135.000000 336.000000 135.000000 C333.348846 135.000000 330.803558 133.418564 328.928925 130.606598 C327.054291 127.794632 326.000000 123.976723 326.000000 120.000000 C326.000000 116.023277 327.054291 112.205368 328.928925 109.393402 C330.803558 106.581436 333.348846 105.000000 336.000000 105.000000 C338.651154 105.000000 341.196442 106.581436 343.071075 109.393402 C344.945709 112.205368 346.000000 116.023277 346.000000 120.000000"></path>
<path id="" fill="#8B4513" fill-opacity="1.0" stroke="#000000" stroke-width="0.0" stroke-opacity="1.0" stroke-linecap="round" stroke-linejoin="round"  filling="0" d="M348.000000 180.000000 C348.000000 184.772064 346.734863 189.353561 344.485291 192.727921 C342.235718 196.102280 339.181366 198.000000 336.000000 198.000000 C332.818634 198.000000 329.764282 196.102280 327.514709 192.727921 C325.265137 189.353561 324.000000 184.772064 324.000000 180.000000 C324.000000 175.227936 325.265137 170.646439 327.514709 167.272079 C329.764282 163.897720 332.818634 162.000000 336.000000 162.000000 C339.181366 162.000000 342.235718 163.897720 344.485291 167.272079 C346.734863 170.646439 348.000000 175.227936 348.000000 180.000000"></path>
<path id="" fill="#D2B48C" fill-opacity="1.0" stroke="#000000" stroke-width="0.0" stroke-opacity="1.0" stroke-linecap="round" stroke-linejoin="round"  filling="0" d="M366.000000 56.000000 C366.000000 61.302296 362.837128 66.392845 357.213196 70.142136 C351.589264 73.891426 343.953430 76.000000 336.000000 76.000000 C328.046570 76.000000 320.410736 73.891426 314.786804 70.142136 C309.162872 66.392845 306.000000 61.302296 306.000000 56.000000 C306.000000 50.697704 309.162872 45.607155 314.786804 41.857864 C320.410736 38.108574 328.046570 36.000000 336.000000 36.000000 C343.953430 36.000000 351.589264 38.108574 357.213196 41.857864 C362.837128 45.607155 366.000000 50.697704 366.000000 56.000000"></path>
<path id="" fill="#8B4513" fill-opacity="1.0" stroke="#000000" stroke-width="0.0" stroke-opacity="1.0" stroke-linecap="round" stroke-linejoin="round"  filling="0" d="M326.000000 36.000000 C327.666656 31.000000 329.333344 26.000000 331.000000 21.000000 C332.666656 26.000000 334.333344 31.000000 336.000000 36.000000 C332.666656 36.000000 329.333344 36.000000 326.000000 36.000000"></path>
<path id="" fill="#8B4513" fill-opacity="1.0" stroke="#000000" stroke-width="0.0" stroke-opacity="1.0" stroke-linecap="round" stroke-linejoin="round"  filling="0" d="M346.000000 36.000000 C347.666656 31.000000 349.333344 26.000000 351.000000 21.000000 C352.666656 26.000000 354.333344 31.000000 356.000000 36.000000 C352.666656 36.000000 349.333344 36.000000 346.000000 36.000000"></path>
<path id="" fill="#000000" fill-opacity="1.0" stroke="#000000" stroke-width="0.0" stroke-opacity="1.0" stroke-linecap="round" stroke-linejoin="round"  filling="0" d="M331.000000 51.000000 C331.000000 52.325573 330.472839 53.598213 329.535522 54.535534 C328.598206 55.472855 327.325562 56.000000 326.000000 56.000000 C324.674438 56.000000 323.401794 55.472855 322.464478 54.535534 C321.527161 53.598213 321.000000 52.325573 321.000000 51.000000 C321.000000 49.674427 321.527161 48.401787 322.464478 47.464466 C323.401794 46.527145 324.674438 46.000000 326.000000 46.000000 C327.325562 46.000000 328.598206 46.527145 329.535522 47.464466 C330.472839 48.401787 331.000000 49.674427 331.000000 51.000000"></path>
<path id="" fill="#000000" fill-opacity="1.0" stroke="#000000" stroke-width="0.0" stroke-opacity="1.0" stroke-linecap="round" stroke-linejoin="round"  filling="0" d="M351.000000 51.000000 C351.000000 52.325573 350.472839 53.598213 349.535522 54.535534 C348.598206 55.472855 347.325562 56.000000 346.000000 56.000000 C344.674438 56.000000 343.401794 55.472855 342.464478 54.535534 C341.527161 53.598213 341.000000 52.325573 341.000000 51.000000 C341.000000 49.674427 341.527161 48.401787 342.464478 47.464466 C343.401794 46.527145 344.674438 46.000000 346.000000 46.000000 C347.325562 46.000000 348.598206 46.527145 349.535522 47.464466 C350.472839 48.401787 351.000000 49.674427 351.000000 51.000000"></path>
<path id="" fill="#D2B48C" fill-opacity="1.0" stroke="#000000" stroke-width="0.0" stroke-opacity="1.0" stroke-linecap="round" stroke-linejoin="round"  filling="0" d="M157.960999 256.391998 C151.294327 289.725342 144.627670 323.058655 137.960999 356.391998 C136.653671 356.130676 135.346329 355.869324 134.039001 355.608002 C140.705673 322.274658 147.372330 288.941345 154.039001 255.608002 C155.346329 255.869339 156.653671 256.130676 157.960999 256.391998"></path>
<path id="" fill="#A0522D" fill-opacity="1.0" stroke="#000000" stroke-width="0.0" stroke-opacity="1.0" stroke-linecap="round" stroke-linejoin="round"  filling="0" d="M146.000000 366.000000 C146.000000 371.302307 144.945724 376.392853 143.071075 380.142151 C141.196426 383.891449 138.651154 386.000000 136.000000 386.000000 C133.348846 386.000000 130.803574 383.891449 128.928925 380.142151 C127.054283 376.392853 126.000000 371.302307 126.000000 366.000000 C126.000000 360.697693 127.054283 355.607147 128.928925 351.857849 C130.803574 348.108551 133.348846 346.000000 136.000000 346.000000 C138.651154 346.000000 141.196426 348.108551 143.071075 351.857849 C144.945724 355.607147 146.000000 360.697693 146.000000 366.000000"></path>
</svg>