<svg xmlns="http://www.w3.org/2000/svg" viewBox="0 0 512 512" height="512.0px" width="512.0px">
<path id="" fill="#228B22" fill-opacity="1.0" stroke="#000000" stroke-width="0.0" stroke-opacity="1.0" stroke-linecap="round" stroke-linejoin="round"  filling="0" d="M100.000000 400.000000 C133.333344 266.666656 185.333328 183.333344 256.000000 150.000000 C326.666687 183.333344 378.666656 266.666656 412.000000 400.000000 C360.000000 433.333344 308.000000 456.666656 256.000000 470.000000 C204.000000 456.666656 152.000000 433.333344 100.000000 400.000000"></path>
<path id="" fill="#006400" fill-opacity="1.0" stroke="#000000" stroke-width="0.0" stroke-opacity="1.0" stroke-linecap="round" stroke-linejoin="round"  filling="0" d="M254.500000 470.000000 C254.500000 363.333313 254.500000 256.666687 254.500000 150.000000 C255.500000 150.000000 256.500000 150.000000 257.500000 150.000000 C257.500000 256.666687 257.500000 363.333313 257.500000 470.000000 C256.500000 470.000000 255.500000 470.000000 254.500000 470.000000"></path>
<path id="" fill="#006400" fill-opacity="1.0" stroke="#000000" stroke-width="0.0" stroke-opacity="1.0" stroke-linecap="round" stroke-linejoin="round"  filling="0" d="M255.485992 310.856995 C222.435333 291.026337 189.397003 287.716675 156.371002 300.928009 C156.123672 300.309326 155.876328 299.690674 155.628998 299.071991 C189.268341 285.615326 222.896667 288.972321 256.514008 309.143005 C256.171326 309.714325 255.828659 310.285675 255.485992 310.856995"></path>
<path id="" fill="#006400" fill-opacity="1.0" stroke="#000000" stroke-width="0.0" stroke-opacity="1.0" stroke-linecap="round" stroke-linejoin="round"  filling="0" d="M255.684006 370.949005 C215.945999 357.703003 176.200333 361.018005 136.447006 380.894012 C136.149002 380.298004 135.850998 379.701996 135.552994 379.105988 C175.800323 358.981995 216.054657 355.630341 256.316010 369.050995 C256.105347 369.683655 255.894669 370.316345 255.684006 370.949005"></path>
<path id="" fill="#006400" fill-opacity="1.0" stroke="#000000" stroke-width="0.0" stroke-opacity="1.0" stroke-linecap="round" stroke-linejoin="round"  filling="0" d="M255.485992 309.143005 C289.102661 288.972321 322.731018 285.615326 356.371002 299.071991 C356.123657 299.690674 355.876343 300.309326 355.628998 300.928009 C322.602997 287.718018 289.564667 291.027679 256.514008 310.856995 C256.171326 310.285675 255.828659 309.714325 255.485992 309.143005"></path>
<path id="" fill="#006400" fill-opacity="1.0" stroke="#000000" stroke-width="0.0" stroke-opacity="1.0" stroke-linecap="round" stroke-linejoin="round"  filling="0" d="M255.684006 369.050995 C295.944672 355.630341 336.199005 358.981995 376.446991 379.105988 C376.148987 379.701996 375.851013 380.298004 375.553009 380.894012 C335.799011 361.018005 296.053345 357.703003 256.316010 370.949005 C256.105347 370.316345 255.894669 369.683655 255.684006 369.050995"></path>
<path id="" fill="#FF0000" fill-opacity="1.0" stroke="#000000" stroke-width="0.0" stroke-opacity="1.0" stroke-linecap="round" stroke-linejoin="round"  filling="0" d="M310.000000 280.000000 C310.000000 286.627869 306.837128 292.991058 301.213196 297.677673 C295.589264 302.364288 287.953430 305.000000 280.000000 305.000000 C272.046570 305.000000 264.410736 302.364288 258.786804 297.677673 C253.162872 292.991058 250.000000 286.627869 250.000000 280.000000 C250.000000 273.372131 253.162872 267.008942 258.786804 262.322327 C264.410736 257.635712 272.046570 255.000000 280.000000 255.000000 C287.953430 255.000000 295.589264 257.635712 301.213196 262.322327 C306.837128 267.008942 310.000000 273.372131 310.000000 280.000000"></path>
<path id="" fill="#000000" fill-opacity="1.0" stroke="#000000" stroke-width="0.0" stroke-opacity="1.0" stroke-linecap="round" stroke-linejoin="round"  filling="0" d="M267.000000 280.000000 C267.000000 283.181366 265.734863 286.235718 263.485291 288.485291 C261.235718 290.734863 258.181366 292.000000 255.000000 292.000000 C251.818619 292.000000 248.764297 290.734863 246.514725 288.485291 C244.265152 286.235718 243.000000 283.181366 243.000000 280.000000 C243.000000 276.818634 244.265152 273.764282 246.514725 271.514709 C248.764297 269.265137 251.818619 268.000000 255.000000 268.000000 C258.181366 268.000000 261.235718 269.265137 263.485291 271.514709 C265.734863 273.764282 267.000000 276.818634 267.000000 280.000000"></path>
<path id="" fill="#000000" fill-opacity="1.0" stroke="#000000" stroke-width="0.0" stroke-opacity="1.0" stroke-linecap="round" stroke-linejoin="round"  filling="0" d="M274.000000 270.000000 C274.000000 271.060455 273.578278 272.078583 272.828430 272.828430 C272.078583 273.578278 271.060455 274.000000 270.000000 274.000000 C268.939545 274.000000 267.921417 273.578278 267.171570 272.828430 C266.421722 272.078583 266.000000 271.060455 266.000000 270.000000 C266.000000 268.939545 266.421722 267.921417 267.171570 267.171570 C267.921417 266.421722 268.939545 266.000000 270.000000 266.000000 C271.060455 266.000000 272.078583 266.421722 272.828430 267.171570 C273.578278 267.921417 274.000000 268.939545 274.000000 270.000000"></path>
<path id="" fill="#000000" fill-opacity="1.0" stroke="#000000" stroke-width="0.0" stroke-opacity="1.0" stroke-linecap="round" stroke-linejoin="round"  filling="0" d="M294.000000 270.000000 C294.000000 271.060455 293.578278 272.078583 292.828430 272.828430 C292.078583 273.578278 291.060455 274.000000 290.000000 274.000000 C288.939545 274.000000 287.921417 273.578278 287.171570 272.828430 C286.421722 272.078583 286.000000 271.060455 286.000000 270.000000 C286.000000 268.939545 286.421722 267.921417 287.171570 267.171570 C287.921417 266.421722 288.939545 266.000000 290.000000 266.000000 C291.060455 266.000000 292.078583 266.421722 292.828430 267.171570 C293.578278 267.921417 294.000000 268.939545 294.000000 270.000000"></path>
<path id="" fill="#000000" fill-opacity="1.0" stroke="#000000" stroke-width="0.0" stroke-opacity="1.0" stroke-linecap="round" stroke-linejoin="round"  filling="0" d="M279.000000 285.000000 C279.000000 286.060455 278.578278 287.078583 277.828430 287.828430 C277.078583 288.578278 276.060455 289.000000 275.000000 289.000000 C273.939545 289.000000 272.921417 288.578278 272.171570 287.828430 C271.421722 287.078583 271.000000 286.060455 271.000000 285.000000 C271.000000 283.939545 271.421722 282.921417 272.171570 282.171570 C272.921417 281.421722 273.939545 281.000000 275.000000 281.000000 C276.060455 281.000000 277.078583 281.421722 277.828430 282.171570 C278.578278 282.921417 279.000000 283.939545 279.000000 285.000000"></path>
<path id="" fill="#000000" fill-opacity="1.0" stroke="#000000" stroke-width="0.0" stroke-opacity="1.0" stroke-linecap="round" stroke-linejoin="round"  filling="0" d="M299.000000 285.000000 C299.000000 286.060455 298.578278 287.078583 297.828430 287.828430 C297.078583 288.578278 296.060455 289.000000 295.000000 289.000000 C293.939545 289.000000 292.921417 288.578278 292.171570 287.828430 C291.421722 287.078583 291.000000 286.060455 291.000000 285.000000 C291.000000 283.939545 291.421722 282.921417 292.171570 282.171570 C292.921417 281.421722 293.939545 281.000000 295.000000 281.000000 C296.060455 281.000000 297.078583 281.421722 297.828430 282.171570 C298.578278 282.921417 299.000000 283.939545 299.000000 285.000000"></path>
<path id="" fill="#000000" fill-opacity="1.0" stroke="#000000" stroke-width="0.0" stroke-opacity="1.0" stroke-linecap="round" stroke-linejoin="round"  filling="0" d="M284.000000 265.000000 C284.000000 266.060455 283.578278 267.078583 282.828430 267.828430 C282.078583 268.578278 281.060455 269.000000 280.000000 269.000000 C278.939545 269.000000 277.921417 268.578278 277.171570 267.828430 C276.421722 267.078583 276.000000 266.060455 276.000000 265.000000 C276.000000 263.939545 276.421722 262.921417 277.171570 262.171570 C277.921417 261.421722 278.939545 261.000000 280.000000 261.000000 C281.060455 261.000000 282.078583 261.421722 282.828430 262.171570 C283.578278 262.921417 284.000000 263.939545 284.000000 265.000000"></path>
<path id="" fill="#000000" fill-opacity="1.0" stroke="#000000" stroke-width="0.0" stroke-opacity="1.0" stroke-linecap="round" stroke-linejoin="round"  filling="0" d="M289.000000 295.000000 C289.000000 296.060455 288.578278 297.078583 287.828430 297.828430 C287.078583 298.578278 286.060455 299.000000 285.000000 299.000000 C283.939545 299.000000 282.921417 298.578278 282.171570 297.828430 C281.421722 297.078583 281.000000 296.060455 281.000000 295.000000 C281.000000 293.939545 281.421722 292.921417 282.171570 292.171570 C282.921417 291.421722 283.939545 291.000000 285.000000 291.000000 C286.060455 291.000000 287.078583 291.421722 287.828430 292.171570 C288.578278 292.921417 289.000000 293.939545 289.000000 295.000000"></path>
<path id="" fill="#000000" fill-opacity="1.0" stroke="#000000" stroke-width="0.0" stroke-opacity="1.0" stroke-linecap="round" stroke-linejoin="round"  filling="0" d="M247.470001 275.529999 C244.136673 272.196655 240.803329 268.863342 237.470001 265.529999 C237.823334 265.176666 238.176666 264.823334 238.529999 264.470001 C241.863327 267.803345 245.196671 271.136658 248.529999 274.470001 C248.176666 274.823334 247.823334 275.176666 247.470001 275.529999"></path>
<path id="" fill="#000000" fill-opacity="1.0" stroke="#000000" stroke-width="0.0" stroke-opacity="1.0" stroke-linecap="round" stroke-linejoin="round"  filling="0" d="M248.529999 285.529999 C245.196671 288.863342 241.863327 292.196655 238.529999 295.529999 C238.176666 295.176666 237.823334 294.823334 237.470001 294.470001 C240.803329 291.136658 244.136673 287.803345 247.470001 284.470001 C247.823334 284.823334 248.176666 285.176666 248.529999 285.529999"></path>
<path id="" fill="#000000" fill-opacity="1.0" stroke="#000000" stroke-width="0.0" stroke-opacity="1.0" stroke-linecap="round" stroke-linejoin="round"  filling="0" d="M260.529999 300.529999 C253.806671 307.253998 247.075012 312.300995 240.335007 315.670990 C240.111664 315.223663 239.888336 314.776337 239.664993 314.329010 C246.259003 311.031677 252.860672 306.078674 259.470001 299.470001 C259.823334 299.823334 260.176666 300.176666 260.529999 300.529999"></path>
<path id="" fill="#000000" fill-opacity="1.0" stroke="#000000" stroke-width="0.0" stroke-opacity="1.0" stroke-linecap="round" stroke-linejoin="round"  filling="0" d="M270.700012 302.269012 C267.358002 310.958344 264.015015 318.647003 260.670990 325.334991 C260.223663 325.111664 259.776337 324.888336 259.329010 324.665009 C262.651672 318.019653 265.975311 310.375000 269.299988 301.730988 C269.766663 301.910339 270.233337 302.089661 270.700012 302.269012"></path>
<path id="" fill="#000000" fill-opacity="1.0" stroke="#000000" stroke-width="0.0" stroke-opacity="1.0" stroke-linecap="round" stroke-linejoin="round"  filling="0" d="M285.700012 301.730988 C289.024689 310.375000 292.348328 318.019653 295.670990 324.665009 C295.223663 324.888336 294.776337 325.111664 294.329010 325.334991 C290.984985 318.647003 287.641998 310.958344 284.299988 302.269012 C284.766663 302.089661 285.233337 301.910339 285.700012 301.730988"></path>
<path id="" fill="#000000" fill-opacity="1.0" stroke="#000000" stroke-width="0.0" stroke-opacity="1.0" stroke-linecap="round" stroke-linejoin="round"  filling="0" d="M295.529999 299.470001 C302.139343 306.078674 308.740997 311.031677 315.334991 314.329010 C315.111664 314.776337 314.888336 315.223663 314.665009 315.670990 C307.924988 312.300995 301.193329 307.253998 294.470001 300.529999 C294.823334 300.176666 295.176666 299.823334 295.529999 299.470001"></path>
<path id="" fill="#000000" fill-opacity="1.0" stroke="#000000" stroke-width="0.0" stroke-opacity="1.0" stroke-linecap="round" stroke-linejoin="round"  filling="0" d="M264.531006 258.585999 C257.959656 253.328003 251.400330 250.044342 244.852997 248.735001 C244.951004 248.244995 245.048996 247.755005 245.147003 247.264999 C251.933670 248.622330 258.707672 252.005325 265.468994 257.414001 C265.156342 257.804657 264.843658 258.195343 264.531006 258.585999"></path>
<path id="" fill="#000000" fill-opacity="1.0" stroke="#000000" stroke-width="0.0" stroke-opacity="1.0" stroke-linecap="round" stroke-linejoin="round"  filling="0" d="M289.531006 257.414001 C296.292999 252.005325 303.067017 248.622330 309.852997 247.264999 C309.950989 247.755005 310.049011 248.244995 310.147003 248.735001 C303.599670 250.044342 297.040314 253.328003 290.468994 258.585999 C290.156342 258.195343 289.843658 257.804657 289.531006 257.414001"></path>
</svg>