<svg xmlns="http://www.w3.org/2000/svg" viewBox="0 0 512 512" height="512.0px" width="512.0px">
<path id="" fill="#D2B48C" fill-opacity="1.0" stroke="#000000" stroke-width="0.0" stroke-opacity="1.0" stroke-linecap="round" stroke-linejoin="round"  filling="0" d="M46.000000 90.000000 C186.000000 90.000000 326.000000 90.000000 466.000000 90.000000 C466.000000 223.333344 466.000000 356.666656 466.000000 490.000000 C326.000000 490.000000 186.000000 490.000000 46.000000 490.000000 C46.000000 356.666656 46.000000 223.333344 46.000000 90.000000"></path>
<path id="" fill="#D2B48C" fill-opacity="1.0" stroke="#000000" stroke-width="0.0" stroke-opacity="1.0" stroke-linecap="round" stroke-linejoin="round"  filling="0" d="M66.000000 110.000000 C66.000000 230.000000 66.000000 350.000000 66.000000 470.000000 C192.666672 470.000000 319.333313 470.000000 446.000000 470.000000 C446.000000 350.000000 446.000000 230.000000 446.000000 110.000000 C319.333313 110.000000 192.666672 110.000000 66.000000 110.000000"></path>
<path id="" fill="#F4A460" fill-opacity="1.0" stroke="#000000" stroke-width="0.0" stroke-opacity="1.0" stroke-linecap="round" stroke-linejoin="round"  filling="0" d="M76.000000 120.000000 C196.000000 120.000000 316.000000 120.000000 436.000000 120.000000 C436.000000 233.333344 436.000000 346.666656 436.000000 460.000000 C316.000000 460.000000 196.000000 460.000000 76.000000 460.000000 C76.000000 346.666656 76.000000 233.333344 76.000000 120.000000"></path>
<path id="" fill="#E6C08D" fill-opacity="1.0" stroke="#000000" stroke-width="0.0" stroke-opacity="1.0" stroke-linecap="round" stroke-linejoin="round"  filling="0" d="M77.212997 115.149002 C90.244331 118.406998 103.275665 121.665001 116.306999 124.922997 C129.640335 123.256332 142.973663 121.589661 156.307007 119.922997 C169.598999 123.245995 182.891006 126.569000 196.182999 129.891998 C209.516327 127.558662 222.849670 125.225334 236.182999 122.891998 C249.496002 126.220329 262.809021 129.548660 276.122009 132.876999 C289.455353 130.210327 302.788666 127.543663 316.122009 124.876999 C329.455353 128.210327 342.788666 131.543671 356.122009 134.876999 C369.011017 132.298996 381.899994 129.720993 394.789001 127.142998 C408.046997 123.165665 421.304993 119.188332 434.562988 115.210999 C435.520996 118.403664 436.479004 121.596336 437.437012 124.789001 C424.028351 128.811661 410.619659 132.834335 397.210999 136.856995 C383.433319 139.612335 369.655670 142.367661 355.877991 145.123001 C342.544647 141.789673 329.211334 138.456329 315.877991 135.123001 C302.544647 137.789673 289.211334 140.456329 275.877991 143.123001 C262.524323 139.784668 249.170670 136.446335 235.817001 133.108002 C222.483673 135.441330 209.150330 137.774673 195.817001 140.108002 C182.442337 136.764328 169.067657 133.420670 155.692993 130.076996 C142.359665 131.743668 129.026337 133.410324 115.693001 135.076996 C102.057671 131.668335 88.422333 128.259659 74.787003 124.850998 C75.595665 121.616997 76.404335 118.383003 77.212997 115.149002"></path>
<path id="" fill="#A9A9A9" fill-opacity="1.0" stroke="#000000" stroke-width="0.0" stroke-opacity="1.0" stroke-linecap="round" stroke-linejoin="round"  filling="0" d="M216.000000 330.000000 C242.666672 330.000000 269.333344 330.000000 296.000000 330.000000 C292.666656 350.000000 289.333344 370.000000 286.000000 390.000000 C266.000000 390.000000 246.000000 390.000000 226.000000 390.000000 C222.666672 370.000000 219.333328 350.000000 216.000000 330.000000"></path>
<path id="" fill="#8B4513" fill-opacity="1.0" stroke="#000000" stroke-width="0.0" stroke-opacity="1.0" stroke-linecap="round" stroke-linejoin="round"  filling="0" d="M275.958008 150.434006 C285.806000 152.170334 295.654022 153.906677 305.502014 155.643005 C293.925354 221.297012 282.348663 286.950989 270.772003 352.605011 C260.924011 350.868347 251.076004 349.131653 241.227997 347.394989 C252.804672 281.741333 264.381348 216.087677 275.958008 150.434006"></path>
<path id="" fill="#404040" fill-opacity="1.0" stroke="#000000" stroke-width="0.0" stroke-opacity="1.0" stroke-linecap="round" stroke-linejoin="round"  filling="0" d="M236.000000 325.000000 C249.333328 325.000000 262.666656 325.000000 276.000000 325.000000 C276.000000 330.000000 276.000000 335.000000 276.000000 340.000000 C262.666656 340.000000 249.333328 340.000000 236.000000 340.000000 C236.000000 335.000000 236.000000 330.000000 236.000000 325.000000"></path>
</svg>