<svg xmlns="http://www.w3.org/2000/svg" viewBox="0 0 512 512" height="512.0px" width="512.0px">
<path id="" fill="#87CEEB" fill-opacity="1.0" stroke="#000000" stroke-width="0.0" stroke-opacity="1.0" stroke-linecap="round" stroke-linejoin="round"  filling="0" d="M0.000000 0.000000 C170.666672 0.000000 341.333313 0.000000 512.000000 0.000000 C512.000000 133.333344 512.000000 266.666656 512.000000 400.000000 C341.333313 400.000000 170.666672 400.000000 0.000000 400.000000 C0.000000 266.666656 0.000000 133.333344 0.000000 0.000000"></path>
<path id="" fill="#F4A460" fill-opacity="1.0" stroke="#000000" stroke-width="0.0" stroke-opacity="1.0" stroke-linecap="round" stroke-linejoin="round"  filling="0" d="M0.000000 400.000000 C170.666672 400.000000 341.333313 400.000000 512.000000 400.000000 C512.000000 437.333344 512.000000 474.666656 512.000000 512.000000 C341.333313 512.000000 170.666672 512.000000 0.000000 512.000000 C0.000000 474.666656 0.000000 437.333344 0.000000 400.000000"></path>
<path id="" fill="#0077BE" fill-opacity="1.0" stroke="#000000" stroke-width="0.0" stroke-opacity="1.0" stroke-linecap="round" stroke-linejoin="round"  filling="0" d="M0.000000 200.000000 C85.333336 166.666656 170.666656 166.666656 256.000000 200.000000 C341.333344 233.333344 426.666656 233.333344 512.000000 200.000000 C512.000000 266.666687 512.000000 333.333313 512.000000 400.000000 C341.333313 400.000000 170.666672 400.000000 0.000000 400.000000 C0.000000 333.333313 0.000000 266.666687 0.000000 200.000000"></path>
<path id="" fill="#4F94CD" fill-opacity="1.0" stroke="#000000" stroke-width="0.0" stroke-opacity="1.0" stroke-linecap="round" stroke-linejoin="round"  filling="0" d="M0.000000 250.000000 C85.333336 216.666656 170.666656 216.666656 256.000000 250.000000 C341.333344 283.333344 426.666656 283.333344 512.000000 250.000000 C512.000000 300.000000 512.000000 350.000000 512.000000 400.000000 C341.333313 400.000000 170.666672 400.000000 0.000000 400.000000 C0.000000 350.000000 0.000000 300.000000 0.000000 250.000000"></path>
<path id="" fill="#87CEEB" fill-opacity="1.0" stroke="#000000" stroke-width="0.0" stroke-opacity="1.0" stroke-linecap="round" stroke-linejoin="round"  filling="0" d="M0.000000 300.000000 C85.333336 266.666656 170.666656 266.666656 256.000000 300.000000 C341.333344 333.333344 426.666656 333.333344 512.000000 300.000000 C512.000000 333.333344 512.000000 366.666656 512.000000 400.000000 C341.333313 400.000000 170.666672 400.000000 0.000000 400.000000 C0.000000 366.666656 0.000000 333.333344 0.000000 300.000000"></path>
<path id="" fill="#FFFFFF" fill-opacity="1.0" stroke="#000000" stroke-width="0.0" stroke-opacity="1.0" stroke-linecap="round" stroke-linejoin="round"  filling="0" d="M-1.819000 295.342987 C84.727005 261.535675 171.272995 261.535675 257.819000 295.342987 C341.939667 328.202332 426.060333 328.202332 510.181000 295.342987 C511.393646 298.447662 512.606323 301.552338 513.818970 304.657013 C427.272980 338.464355 340.726990 338.464355 254.181000 304.657013 C170.060333 271.797668 85.939667 271.797668 1.819000 304.657013 C0.606333 301.552338 -0.606333 298.447662 -1.819000 295.342987"></path>
<path id="" fill="#FFD700" fill-opacity="1.0" stroke="#000000" stroke-width="0.0" stroke-opacity="1.0" stroke-linecap="round" stroke-linejoin="round"  filling="0" d="M490.000000 80.000000 C490.000000 90.604591 485.782837 100.785690 478.284271 108.284271 C470.785706 115.782852 460.604584 120.000000 450.000000 120.000000 C439.395416 120.000000 429.214294 115.782852 421.715729 108.284271 C414.217163 100.785690 410.000000 90.604591 410.000000 80.000000 C410.000000 69.395409 414.217163 59.214306 421.715729 51.715729 C429.214294 44.217152 439.395416 40.000000 450.000000 40.000000 C460.604584 40.000000 470.785706 44.217152 478.284271 51.715729 C485.782837 59.214306 490.000000 69.395409 490.000000 80.000000"></path>
<path id="" fill="#FFFF00" fill-opacity="1.0" stroke="#000000" stroke-width="0.0" stroke-opacity="1.0" stroke-linecap="round" stroke-linejoin="round"  filling="0" d="M449.000000 40.000000 C449.000000 33.333332 449.000000 26.666668 449.000000 20.000000 C449.666656 20.000000 450.333344 20.000000 451.000000 20.000000 C451.000000 26.666668 451.000000 33.333332 451.000000 40.000000 C450.333344 40.000000 449.666656 40.000000 449.000000 40.000000"></path>
<path id="" fill="#FFFF00" fill-opacity="1.0" stroke="#000000" stroke-width="0.0" stroke-opacity="1.0" stroke-linecap="round" stroke-linejoin="round"  filling="0" d="M490.000000 79.000000 C496.666656 79.000000 503.333344 79.000000 510.000000 79.000000 C510.000000 79.666664 510.000000 80.333336 510.000000 81.000000 C503.333344 81.000000 496.666656 81.000000 490.000000 81.000000 C490.000000 80.333336 490.000000 79.666664 490.000000 79.000000"></path>
<path id="" fill="#FFFF00" fill-opacity="1.0" stroke="#000000" stroke-width="0.0" stroke-opacity="1.0" stroke-linecap="round" stroke-linejoin="round"  filling="0" d="M451.000000 120.000000 C451.000000 126.666664 451.000000 133.333328 451.000000 140.000000 C450.333344 140.000000 449.666656 140.000000 449.000000 140.000000 C449.000000 133.333328 449.000000 126.666664 449.000000 120.000000 C449.666656 120.000000 450.333344 120.000000 451.000000 120.000000"></path>
<path id="" fill="#FFFF00" fill-opacity="1.0" stroke="#000000" stroke-width="0.0" stroke-opacity="1.0" stroke-linecap="round" stroke-linejoin="round"  filling="0" d="M410.000000 81.000000 C403.333344 81.000000 396.666656 81.000000 390.000000 81.000000 C390.000000 80.333336 390.000000 79.666664 390.000000 79.000000 C396.666656 79.000000 403.333344 79.000000 410.000000 79.000000 C410.000000 79.666664 410.000000 80.333336 410.000000 81.000000"></path>
<path id="" fill="#FFFF00" fill-opacity="1.0" stroke="#000000" stroke-width="0.0" stroke-opacity="1.0" stroke-linecap="round" stroke-linejoin="round"  filling="0" d="M477.292999 51.292999 C481.959656 46.626331 486.626343 41.959667 491.292999 37.292999 C491.764343 37.764332 492.235657 38.235668 492.707001 38.707001 C488.040344 43.373669 483.373657 48.040333 478.707001 52.707001 C478.235657 52.235668 477.764343 51.764332 477.292999 51.292999"></path>
<path id="" fill="#FFFF00" fill-opacity="1.0" stroke="#000000" stroke-width="0.0" stroke-opacity="1.0" stroke-linecap="round" stroke-linejoin="round"  filling="0" d="M478.707001 107.292999 C483.373657 111.959663 488.040344 116.626335 492.707001 121.292999 C492.235657 121.764336 491.764343 122.235664 491.292999 122.707001 C486.626343 118.040337 481.959656 113.373665 477.292999 108.707001 C477.764343 108.235664 478.235657 107.764336 478.707001 107.292999"></path>
<path id="" fill="#FFFF00" fill-opacity="1.0" stroke="#000000" stroke-width="0.0" stroke-opacity="1.0" stroke-linecap="round" stroke-linejoin="round"  filling="0" d="M422.707001 108.707001 C418.040344 113.373665 413.373657 118.040337 408.707001 122.707001 C408.235657 122.235664 407.764343 121.764336 407.292999 121.292999 C411.959656 116.626335 416.626343 111.959663 421.292999 107.292999 C421.764343 107.764336 422.235657 108.235664 422.707001 108.707001"></path>
<path id="" fill="#FFFF00" fill-opacity="1.0" stroke="#000000" stroke-width="0.0" stroke-opacity="1.0" stroke-linecap="round" stroke-linejoin="round"  filling="0" d="M421.292999 52.707001 C416.626343 48.040333 411.959656 43.373669 407.292999 38.707001 C407.764343 38.235668 408.235657 37.764332 408.707001 37.292999 C413.373657 41.959667 418.040344 46.626331 422.707001 51.292999 C422.235657 51.764332 421.764343 52.235668 421.292999 52.707001"></path>
<path id="" fill="#FFFFFF" fill-opacity="1.0" stroke="#000000" stroke-width="0.0" stroke-opacity="1.0" stroke-linecap="round" stroke-linejoin="round"  filling="0" d="M102.000000 290.000000 C102.000000 290.530243 101.789146 291.039276 101.414215 291.414215 C101.039284 291.789154 100.530228 292.000000 100.000000 292.000000 C99.469772 292.000000 98.960716 291.789154 98.585785 291.414215 C98.210854 291.039276 98.000000 290.530243 98.000000 290.000000 C98.000000 289.469757 98.210854 288.960724 98.585785 288.585785 C98.960716 288.210846 99.469772 288.000000 100.000000 288.000000 C100.530228 288.000000 101.039284 288.210846 101.414215 288.585785 C101.789146 288.960724 102.000000 289.469757 102.000000 290.000000"></path>
<path id="" fill="#FFFFFF" fill-opacity="1.0" stroke="#000000" stroke-width="0.0" stroke-opacity="1.0" stroke-linecap="round" stroke-linejoin="round"  filling="0" d="M152.000000 310.000000 C152.000000 310.530243 151.789139 311.039276 151.414215 311.414215 C151.039291 311.789154 150.530228 312.000000 150.000000 312.000000 C149.469772 312.000000 148.960709 311.789154 148.585785 311.414215 C148.210861 311.039276 148.000000 310.530243 148.000000 310.000000 C148.000000 309.469757 148.210861 308.960724 148.585785 308.585785 C148.960709 308.210846 149.469772 308.000000 150.000000 308.000000 C150.530228 308.000000 151.039291 308.210846 151.414215 308.585785 C151.789139 308.960724 152.000000 309.469757 152.000000 310.000000"></path>
<path id="" fill="#FFFFFF" fill-opacity="1.0" stroke="#000000" stroke-width="0.0" stroke-opacity="1.0" stroke-linecap="round" stroke-linejoin="round"  filling="0" d="M202.000000 295.000000 C202.000000 295.530243 201.789139 296.039276 201.414215 296.414215 C201.039291 296.789154 200.530228 297.000000 200.000000 297.000000 C199.469772 297.000000 198.960709 296.789154 198.585785 296.414215 C198.210861 296.039276 198.000000 295.530243 198.000000 295.000000 C198.000000 294.469757 198.210861 293.960724 198.585785 293.585785 C198.960709 293.210846 199.469772 293.000000 200.000000 293.000000 C200.530228 293.000000 201.039291 293.210846 201.414215 293.585785 C201.789139 293.960724 202.000000 294.469757 202.000000 295.000000"></path>
<path id="" fill="#FFFFFF" fill-opacity="1.0" stroke="#000000" stroke-width="0.0" stroke-opacity="1.0" stroke-linecap="round" stroke-linejoin="round"  filling="0" d="M252.000000 305.000000 C252.000000 305.530243 251.789139 306.039276 251.414215 306.414215 C251.039291 306.789154 250.530228 307.000000 250.000000 307.000000 C249.469772 307.000000 248.960709 306.789154 248.585785 306.414215 C248.210861 306.039276 248.000000 305.530243 248.000000 305.000000 C248.000000 304.469757 248.210861 303.960724 248.585785 303.585785 C248.960709 303.210846 249.469772 303.000000 250.000000 303.000000 C250.530228 303.000000 251.039291 303.210846 251.414215 303.585785 C251.789139 303.960724 252.000000 304.469757 252.000000 305.000000"></path>
<path id="" fill="#FFFFFF" fill-opacity="1.0" stroke="#000000" stroke-width="0.0" stroke-opacity="1.0" stroke-linecap="round" stroke-linejoin="round"  filling="0" d="M302.000000 290.000000 C302.000000 290.530243 301.789154 291.039276 301.414215 291.414215 C301.039276 291.789154 300.530243 292.000000 300.000000 292.000000 C299.469757 292.000000 298.960724 291.789154 298.585785 291.414215 C298.210846 291.039276 298.000000 290.530243 298.000000 290.000000 C298.000000 289.469757 298.210846 288.960724 298.585785 288.585785 C298.960724 288.210846 299.469757 288.000000 300.000000 288.000000 C300.530243 288.000000 301.039276 288.210846 301.414215 288.585785 C301.789154 288.960724 302.000000 289.469757 302.000000 290.000000"></path>
<path id="" fill="#FFFFFF" fill-opacity="1.0" stroke="#000000" stroke-width="0.0" stroke-opacity="1.0" stroke-linecap="round" stroke-linejoin="round"  filling="0" d="M352.000000 300.000000 C352.000000 300.530243 351.789154 301.039276 351.414215 301.414215 C351.039276 301.789154 350.530243 302.000000 350.000000 302.000000 C349.469757 302.000000 348.960724 301.789154 348.585785 301.414215 C348.210846 301.039276 348.000000 300.530243 348.000000 300.000000 C348.000000 299.469757 348.210846 298.960724 348.585785 298.585785 C348.960724 298.210846 349.469757 298.000000 350.000000 298.000000 C350.530243 298.000000 351.039276 298.210846 351.414215 298.585785 C351.789154 298.960724 352.000000 299.469757 352.000000 300.000000"></path>
<path id="" fill="#FFFFFF" fill-opacity="1.0" stroke="#000000" stroke-width="0.0" stroke-opacity="1.0" stroke-linecap="round" stroke-linejoin="round"  filling="0" d="M402.000000 295.000000 C402.000000 295.530243 401.789154 296.039276 401.414215 296.414215 C401.039276 296.789154 400.530243 297.000000 400.000000 297.000000 C399.469757 297.000000 398.960724 296.789154 398.585785 296.414215 C398.210846 296.039276 398.000000 295.530243 398.000000 295.000000 C398.000000 294.469757 398.210846 293.960724 398.585785 293.585785 C398.960724 293.210846 399.469757 293.000000 400.000000 293.000000 C400.530243 293.000000 401.039276 293.210846 401.414215 293.585785 C401.789154 293.960724 402.000000 294.469757 402.000000 295.000000"></path>
<path id="" fill="#D2B48C" fill-opacity="1.0" stroke="#000000" stroke-width="0.0" stroke-opacity="1.0" stroke-linecap="round" stroke-linejoin="round"  filling="0" d="M49.804001 419.019012 C83.268005 412.326355 116.731995 412.326355 150.195999 419.019012 C150.065338 419.673004 149.934662 420.326996 149.804001 420.980988 C116.601334 414.340332 83.398666 414.340332 50.195999 420.980988 C50.065334 420.326996 49.934666 419.673004 49.804001 419.019012"></path>
<path id="" fill="#D2B48C" fill-opacity="1.0" stroke="#000000" stroke-width="0.0" stroke-opacity="1.0" stroke-linecap="round" stroke-linejoin="round"  filling="0" d="M199.804001 429.019012 C233.267334 422.326355 266.731323 422.326355 300.196014 429.019012 C300.065338 429.673004 299.934662 430.326996 299.803986 430.980988 C266.601318 424.341003 233.398666 424.341003 200.195999 430.980988 C200.065338 430.326996 199.934662 429.673004 199.804001 429.019012"></path>
<path id="" fill="#D2B48C" fill-opacity="1.0" stroke="#000000" stroke-width="0.0" stroke-opacity="1.0" stroke-linecap="round" stroke-linejoin="round"  filling="0" d="M349.803986 439.019012 C383.268005 432.326355 416.731995 432.326355 450.196014 439.019012 C450.065338 439.673004 449.934662 440.326996 449.803986 440.980988 C416.601318 434.340332 383.398682 434.340332 350.196014 440.980988 C350.065338 440.326996 349.934662 439.673004 349.803986 439.019012"></path>
</svg>