<svg xmlns="http://www.w3.org/2000/svg" viewBox="0 0 512 512" height="512.0px" width="512.0px">
<path id="" fill="#8FBC8F" fill-opacity="1.0" stroke="#000000" stroke-width="0.0" stroke-opacity="1.0" stroke-linecap="round" stroke-linejoin="round"  filling="0" d="M256.000000 450.000000 C150.000000 450.000000 100.000000 300.000000 180.000000 220.000000 C220.000000 180.000000 292.000000 180.000000 332.000000 220.000000 C412.000000 300.000000 362.000000 450.000000 256.000000 450.000000"></path>
<path id="" fill="#8B4513" fill-opacity="1.0" stroke="#000000" stroke-width="0.0" stroke-opacity="1.0" stroke-linecap="round" stroke-linejoin="round"  filling="0" d="M252.000000 220.000000 C252.000000 206.666672 252.000000 193.333328 252.000000 180.000000 C254.666672 180.000000 257.333344 180.000000 260.000000 180.000000 C260.000000 193.333328 260.000000 206.666672 260.000000 220.000000 C257.333344 220.000000 254.666672 220.000000 252.000000 220.000000"></path>
<path id="" fill="#B0F2B0" fill-opacity="1.0" stroke="#000000" stroke-width="0.0" stroke-opacity="1.0" stroke-linecap="round" stroke-linejoin="round"  filling="0" d="M335.000000 280.000000 C335.000000 290.604584 332.364288 300.785706 327.677673 308.284271 C322.991058 315.782837 316.627869 320.000000 310.000000 320.000000 C303.372131 320.000000 297.008942 315.782837 292.322327 308.284271 C287.635712 300.785706 285.000000 290.604584 285.000000 280.000000 C285.000000 269.395416 287.635712 259.214294 292.322327 251.715729 C297.008942 244.217148 303.372131 240.000000 310.000000 240.000000 C316.627869 240.000000 322.991058 244.217148 327.677673 251.715729 C332.364288 259.214294 335.000000 269.395416 335.000000 280.000000"></path>
</svg>