<svg xmlns="http://www.w3.org/2000/svg" viewBox="0 0 512 512" height="512.0px" width="512.0px">
<path id="" fill="#000000" fill-opacity="1.0" stroke="#000000" stroke-width="0.0" stroke-opacity="1.0" stroke-linecap="round" stroke-linejoin="round"  filling="0" d="M0.000000 0.000000 C170.666672 0.000000 341.333313 0.000000 512.000000 0.000000 C512.000000 170.666672 512.000000 341.333313 512.000000 512.000000 C341.333313 512.000000 170.666672 512.000000 0.000000 512.000000 C0.000000 341.333313 0.000000 170.666672 0.000000 0.000000"></path>
<path id="" fill="#1E90FF" fill-opacity="1.0" stroke="#000000" stroke-width="0.0" stroke-opacity="1.0" stroke-linecap="round" stroke-linejoin="round"  filling="0" d="M436.000000 420.000000 C436.000000 467.720673 417.022827 513.535645 383.279236 547.279236 C349.535645 581.022827 303.720673 600.000000 256.000000 600.000000 C208.279343 600.000000 162.464386 581.022827 128.720779 547.279236 C94.977173 513.535645 76.000000 467.720673 76.000000 420.000000 C76.000000 372.279327 94.977173 326.464355 128.720779 292.720764 C162.464386 258.977173 208.279343 240.000000 256.000000 240.000000 C303.720673 240.000000 349.535645 258.977173 383.279236 292.720764 C417.022827 326.464355 436.000000 372.279327 436.000000 420.000000"></path>
<path id="" fill="#228B22" fill-opacity="1.0" stroke="#000000" stroke-width="0.0" stroke-opacity="1.0" stroke-linecap="round" stroke-linejoin="round"  filling="0" d="M150.000000 320.000000 C183.333344 340.000000 216.666656 343.333344 250.000000 330.000000 C283.333344 316.666656 316.666656 326.666656 350.000000 360.000000 C383.333344 373.333344 393.333344 393.333344 380.000000 420.000000 C366.666656 446.666656 333.333344 456.666656 280.000000 450.000000 C240.000000 463.333344 206.666672 460.000000 180.000000 440.000000 C153.333328 420.000000 143.333328 380.000000 150.000000 320.000000"></path>
<path id="" fill="#228B22" fill-opacity="1.0" stroke="#000000" stroke-width="0.0" stroke-opacity="1.0" stroke-linecap="round" stroke-linejoin="round"  filling="0" d="M300.000000 280.000000 C333.333344 293.333344 360.000000 313.333344 380.000000 340.000000 C400.000000 366.666656 413.333344 386.666656 420.000000 400.000000 C440.000000 413.333344 433.333344 430.000000 400.000000 450.000000 C366.666656 470.000000 350.000000 460.000000 350.000000 420.000000 C330.000000 406.666656 313.333344 360.000000 300.000000 280.000000"></path>
<path id="" fill="#FFFFFF" fill-opacity="1.0" stroke="#000000" stroke-width="0.0" stroke-opacity="1.0" stroke-linecap="round" stroke-linejoin="round"  filling="0" d="M280.000000 350.000000 C280.000000 357.953430 273.674255 365.589264 262.426392 371.213196 C251.178528 376.837128 235.906891 380.000000 220.000000 380.000000 C204.093109 380.000000 188.821457 376.837128 177.573593 371.213196 C166.325729 365.589264 160.000000 357.953430 160.000000 350.000000 C160.000000 342.046570 166.325729 334.410736 177.573593 328.786804 C188.821457 323.162872 204.093109 320.000000 220.000000 320.000000 C235.906891 320.000000 251.178528 323.162872 262.426392 328.786804 C273.674255 334.410736 280.000000 342.046570 280.000000 350.000000"></path>
<path id="" fill="#FFFFFF" fill-opacity="1.0" stroke="#000000" stroke-width="0.0" stroke-opacity="1.0" stroke-linecap="round" stroke-linejoin="round"  filling="0" d="M370.000000 400.000000 C370.000000 409.279022 362.619965 418.187500 349.497467 424.748749 C336.374969 431.309998 318.558044 435.000000 300.000000 435.000000 C281.441956 435.000000 263.625031 431.309998 250.502533 424.748749 C237.380020 418.187500 230.000000 409.279022 230.000000 400.000000 C230.000000 390.720978 237.380020 381.812500 250.502533 375.251251 C263.625031 368.690002 281.441956 365.000000 300.000000 365.000000 C318.558044 365.000000 336.374969 368.690002 349.497467 375.251251 C362.619965 381.812500 370.000000 390.720978 370.000000 400.000000"></path>
<path id="" fill="#FFFFFF" fill-opacity="1.0" stroke="#000000" stroke-width="0.0" stroke-opacity="1.0" stroke-linecap="round" stroke-linejoin="round"  filling="0" d="M230.000000 470.000000 C230.000000 476.627869 224.728577 482.991058 215.355347 487.677673 C205.982117 492.364288 193.255737 495.000000 180.000000 495.000000 C166.744263 495.000000 154.017883 492.364288 144.644653 487.677673 C135.271423 482.991058 130.000000 476.627869 130.000000 470.000000 C130.000000 463.372131 135.271423 457.008942 144.644653 452.322327 C154.017883 447.635712 166.744263 445.000000 180.000000 445.000000 C193.255737 445.000000 205.982117 447.635712 215.355347 452.322327 C224.728577 457.008942 230.000000 463.372131 230.000000 470.000000"></path>
<path id="" fill="#C0C0C0" fill-opacity="1.0" stroke="#000000" stroke-width="0.0" stroke-opacity="1.0" stroke-linecap="round" stroke-linejoin="round"  filling="0" d="M176.000000 140.000000 C229.333344 140.000000 282.666656 140.000000 336.000000 140.000000 C336.000000 166.666672 336.000000 193.333328 336.000000 220.000000 C282.666656 220.000000 229.333344 220.000000 176.000000 220.000000 C176.000000 193.333328 176.000000 166.666672 176.000000 140.000000"></path>
<path id="" fill="#4169E1" fill-opacity="1.0" stroke="#000000" stroke-width="0.0" stroke-opacity="1.0" stroke-linecap="round" stroke-linejoin="round"  filling="0" d="M76.000000 150.000000 C109.333336 150.000000 142.666656 150.000000 176.000000 150.000000 C176.000000 158.333328 176.000000 166.666672 176.000000 175.000000 C142.666656 175.000000 109.333336 175.000000 76.000000 175.000000 C76.000000 166.666672 76.000000 158.333328 76.000000 150.000000"></path>
<path id="" fill="#4169E1" fill-opacity="1.0" stroke="#000000" stroke-width="0.0" stroke-opacity="1.0" stroke-linecap="round" stroke-linejoin="round"  filling="0" d="M76.000000 185.000000 C109.333336 185.000000 142.666656 185.000000 176.000000 185.000000 C176.000000 193.333328 176.000000 201.666672 176.000000 210.000000 C142.666656 210.000000 109.333336 210.000000 76.000000 210.000000 C76.000000 201.666672 76.000000 193.333328 76.000000 185.000000"></path>
<path id="" fill="#4169E1" fill-opacity="1.0" stroke="#000000" stroke-width="0.0" stroke-opacity="1.0" stroke-linecap="round" stroke-linejoin="round"  filling="0" d="M336.000000 150.000000 C369.333344 150.000000 402.666656 150.000000 436.000000 150.000000 C436.000000 158.333328 436.000000 166.666672 436.000000 175.000000 C402.666656 175.000000 369.333344 175.000000 336.000000 175.000000 C336.000000 166.666672 336.000000 158.333328 336.000000 150.000000"></path>
<path id="" fill="#4169E1" fill-opacity="1.0" stroke="#000000" stroke-width="0.0" stroke-opacity="1.0" stroke-linecap="round" stroke-linejoin="round"  filling="0" d="M336.000000 185.000000 C369.333344 185.000000 402.666656 185.000000 436.000000 185.000000 C436.000000 193.333328 436.000000 201.666672 436.000000 210.000000 C402.666656 210.000000 369.333344 210.000000 336.000000 210.000000 C336.000000 201.666672 336.000000 193.333328 336.000000 185.000000"></path>
<path id="" fill="#FF0000" fill-opacity="1.0" stroke="#000000" stroke-width="0.0" stroke-opacity="1.0" stroke-linecap="round" stroke-linejoin="round"  filling="0" d="M221.000000 180.000000 C221.000000 183.976715 219.418564 187.794632 216.606598 190.606598 C213.794632 193.418564 209.976715 195.000000 206.000000 195.000000 C202.023285 195.000000 198.205368 193.418564 195.393402 190.606598 C192.581436 187.794632 191.000000 183.976715 191.000000 180.000000 C191.000000 176.023285 192.581436 172.205368 195.393402 169.393402 C198.205368 166.581436 202.023285 165.000000 206.000000 165.000000 C209.976715 165.000000 213.794632 166.581436 216.606598 169.393402 C219.418564 172.205368 221.000000 176.023285 221.000000 180.000000"></path>
<path id="" fill="#FF0000" fill-opacity="1.0" stroke="#000000" stroke-width="0.0" stroke-opacity="1.0" stroke-linecap="round" stroke-linejoin="round"  filling="0" d="M321.000000 180.000000 C321.000000 183.976715 319.418579 187.794632 316.606598 190.606598 C313.794617 193.418564 309.976715 195.000000 306.000000 195.000000 C302.023285 195.000000 298.205383 193.418564 295.393402 190.606598 C292.581421 187.794632 291.000000 183.976715 291.000000 180.000000 C291.000000 176.023285 292.581421 172.205368 295.393402 169.393402 C298.205383 166.581436 302.023285 165.000000 306.000000 165.000000 C309.976715 165.000000 313.794617 166.581436 316.606598 169.393402 C319.418579 172.205368 321.000000 176.023285 321.000000 180.000000"></path>
<path id="" fill="#C0C0C0" fill-opacity="1.0" stroke="#000000" stroke-width="0.0" stroke-opacity="1.0" stroke-linecap="round" stroke-linejoin="round"  filling="0" d="M253.000000 140.000000 C253.000000 123.333328 253.000000 106.666672 253.000000 90.000000 C255.000000 90.000000 257.000000 90.000000 259.000000 90.000000 C259.000000 106.666672 259.000000 123.333328 259.000000 140.000000 C257.000000 140.000000 255.000000 140.000000 253.000000 140.000000"></path>
</svg>