<svg xmlns="http://www.w3.org/2000/svg" viewBox="0 0 512 512" height="512.0px" width="512.0px">
<path id="" fill="#C0C0C0" fill-opacity="1.0" stroke="#000000" stroke-width="0.0" stroke-opacity="1.0" stroke-linecap="round" stroke-linejoin="round"  filling="0" d="M196.000000 176.000000 C236.000000 169.333328 276.000000 169.333328 316.000000 176.000000 C316.000000 229.333344 316.000000 282.666656 316.000000 336.000000 C276.000000 342.666656 236.000000 342.666656 196.000000 336.000000 C196.000000 282.666656 196.000000 229.333344 196.000000 176.000000"></path>
<path id="" fill="#A9A9A9" fill-opacity="1.0" stroke="#000000" stroke-width="0.0" stroke-opacity="1.0" stroke-linecap="round" stroke-linejoin="round"  filling="0" d="M196.000000 176.000000 C196.000000 229.333344 196.000000 282.666656 196.000000 336.000000 C216.000000 339.333344 236.000000 341.666656 256.000000 343.000000 C256.000000 286.333344 256.000000 229.666672 256.000000 173.000000 C236.000000 171.666672 216.000000 172.666672 196.000000 176.000000"></path>
<path id="" fill="#909090" fill-opacity="1.0" stroke="#000000" stroke-width="0.0" stroke-opacity="1.0" stroke-linecap="round" stroke-linejoin="round"  filling="0" d="M316.000000 336.000000 C316.000000 341.302307 309.674255 346.392853 298.426392 350.142151 C287.178528 353.891449 271.906891 356.000000 256.000000 356.000000 C240.093109 356.000000 224.821457 353.891449 213.573593 350.142151 C202.325729 346.392853 196.000000 341.302307 196.000000 336.000000 C196.000000 330.697693 202.325729 325.607147 213.573593 321.857849 C224.821457 318.108551 240.093109 316.000000 256.000000 316.000000 C271.906891 316.000000 287.178528 318.108551 298.426392 321.857849 C309.674255 325.607147 316.000000 330.697693 316.000000 336.000000"></path>
<path id="" fill="#D3D3D3" fill-opacity="1.0" stroke="#000000" stroke-width="0.0" stroke-opacity="1.0" stroke-linecap="round" stroke-linejoin="round"  filling="0" d="M191.000000 176.000000 C234.333344 169.333328 277.666656 169.333328 321.000000 176.000000 C324.333344 174.333328 327.666656 172.666672 331.000000 171.000000 C281.000000 162.333328 231.000000 162.333328 181.000000 171.000000 C184.333328 172.666672 187.666672 174.333328 191.000000 176.000000"></path>
<path id="" fill="#808080" fill-opacity="1.0" stroke="#000000" stroke-width="0.0" stroke-opacity="1.0" stroke-linecap="round" stroke-linejoin="round"  filling="0" d="M245.000000 158.000000 C252.333328 158.000000 259.666656 158.000000 267.000000 158.000000 C268.060455 158.000000 269.078583 158.421707 269.828430 159.171570 C270.578278 159.921432 271.000000 160.939545 271.000000 162.000000 C271.000000 163.060455 270.578278 164.078568 269.828430 164.828430 C269.078583 165.578293 268.060455 166.000000 267.000000 166.000000 C259.666656 166.000000 252.333328 166.000000 245.000000 166.000000 C243.939545 166.000000 242.921432 165.578293 242.171570 164.828430 C241.421707 164.078568 241.000000 163.060455 241.000000 162.000000 C241.000000 160.939545 241.421707 159.921432 242.171570 159.171570 C242.921432 158.421707 243.939545 158.000000 245.000000 158.000000"></path>
</svg>