<svg xmlns="http://www.w3.org/2000/svg" viewBox="0 0 512 512" height="512.0px" width="512.0px">
<path id="" fill="#FF3B3F" fill-opacity="1.0" stroke="#000000" stroke-width="0.0" stroke-opacity="1.0" stroke-linecap="round" stroke-linejoin="round"  filling="0" d="M256.000000 100.000000 C309.022949 100.000000 359.928467 121.085754 397.421356 158.578644 C434.914246 196.071533 456.000000 246.977051 456.000000 300.000000 C389.333313 300.000000 322.666687 300.000000 256.000000 300.000000 C256.000000 233.333328 256.000000 166.666672 256.000000 100.000000"></path>
<path id="" fill="#4CAF50" fill-opacity="1.0" stroke="#000000" stroke-width="0.0" stroke-opacity="1.0" stroke-linecap="round" stroke-linejoin="round"  filling="0" d="M256.000000 80.000000 C314.325256 80.000000 370.321289 103.194328 411.563477 144.436508 C452.805664 185.678680 476.000000 241.674744 476.000000 300.000000 C469.333344 300.000000 462.666656 300.000000 456.000000 300.000000 C456.000000 246.977051 434.914246 196.071533 397.421356 158.578644 C359.928467 121.085754 309.022949 100.000000 256.000000 100.000000 C256.000000 93.333336 256.000000 86.666664 256.000000 80.000000"></path>
<path id="" fill="#000000" fill-opacity="1.0" stroke="#000000" stroke-width="0.0" stroke-opacity="1.0" stroke-linecap="round" stroke-linejoin="round"  filling="0" d="M283.000000 150.000000 C283.000000 150.795349 282.683716 151.558929 282.121307 152.121323 C281.558899 152.683716 280.795349 153.000000 280.000000 153.000000 C279.204651 153.000000 278.441101 152.683716 277.878693 152.121323 C277.316284 151.558929 277.000000 150.795349 277.000000 150.000000 C277.000000 149.204651 277.316284 148.441071 277.878693 147.878677 C278.441101 147.316284 279.204651 147.000000 280.000000 147.000000 C280.795349 147.000000 281.558899 147.316284 282.121307 147.878677 C282.683716 148.441071 283.000000 149.204651 283.000000 150.000000"></path>
<path id="" fill="#000000" fill-opacity="1.0" stroke="#000000" stroke-width="0.0" stroke-opacity="1.0" stroke-linecap="round" stroke-linejoin="round"  filling="0" d="M323.000000 180.000000 C323.000000 180.795349 322.683716 181.558929 322.121307 182.121323 C321.558899 182.683716 320.795349 183.000000 320.000000 183.000000 C319.204651 183.000000 318.441101 182.683716 317.878693 182.121323 C317.316284 181.558929 317.000000 180.795349 317.000000 180.000000 C317.000000 179.204651 317.316284 178.441071 317.878693 177.878677 C318.441101 177.316284 319.204651 177.000000 320.000000 177.000000 C320.795349 177.000000 321.558899 177.316284 322.121307 177.878677 C322.683716 178.441071 323.000000 179.204651 323.000000 180.000000"></path>
<path id="" fill="#000000" fill-opacity="1.0" stroke="#000000" stroke-width="0.0" stroke-opacity="1.0" stroke-linecap="round" stroke-linejoin="round"  filling="0" d="M363.000000 220.000000 C363.000000 220.795349 362.683716 221.558929 362.121307 222.121323 C361.558899 222.683716 360.795349 223.000000 360.000000 223.000000 C359.204651 223.000000 358.441101 222.683716 357.878693 222.121323 C357.316284 221.558929 357.000000 220.795349 357.000000 220.000000 C357.000000 219.204651 357.316284 218.441071 357.878693 217.878677 C358.441101 217.316284 359.204651 217.000000 360.000000 217.000000 C360.795349 217.000000 361.558899 217.316284 362.121307 217.878677 C362.683716 218.441071 363.000000 219.204651 363.000000 220.000000"></path>
<path id="" fill="#000000" fill-opacity="1.0" stroke="#000000" stroke-width="0.0" stroke-opacity="1.0" stroke-linecap="round" stroke-linejoin="round"  filling="0" d="M393.000000 260.000000 C393.000000 260.795349 392.683716 261.558899 392.121307 262.121307 C391.558899 262.683716 390.795349 263.000000 390.000000 263.000000 C389.204651 263.000000 388.441101 262.683716 387.878693 262.121307 C387.316284 261.558899 387.000000 260.795349 387.000000 260.000000 C387.000000 259.204651 387.316284 258.441101 387.878693 257.878693 C388.441101 257.316284 389.204651 257.000000 390.000000 257.000000 C390.795349 257.000000 391.558899 257.316284 392.121307 257.878693 C392.683716 258.441101 393.000000 259.204651 393.000000 260.000000"></path>
<path id="" fill="#000000" fill-opacity="1.0" stroke="#000000" stroke-width="0.0" stroke-opacity="1.0" stroke-linecap="round" stroke-linejoin="round"  filling="0" d="M303.000000 200.000000 C303.000000 200.795349 302.683716 201.558929 302.121307 202.121323 C301.558899 202.683716 300.795349 203.000000 300.000000 203.000000 C299.204651 203.000000 298.441101 202.683716 297.878693 202.121323 C297.316284 201.558929 297.000000 200.795349 297.000000 200.000000 C297.000000 199.204651 297.316284 198.441071 297.878693 197.878677 C298.441101 197.316284 299.204651 197.000000 300.000000 197.000000 C300.795349 197.000000 301.558899 197.316284 302.121307 197.878677 C302.683716 198.441071 303.000000 199.204651 303.000000 200.000000"></path>
<path id="" fill="#000000" fill-opacity="1.0" stroke="#000000" stroke-width="0.0" stroke-opacity="1.0" stroke-linecap="round" stroke-linejoin="round"  filling="0" d="M343.000000 240.000000 C343.000000 240.795349 342.683716 241.558929 342.121307 242.121323 C341.558899 242.683716 340.795349 243.000000 340.000000 243.000000 C339.204651 243.000000 338.441101 242.683716 337.878693 242.121323 C337.316284 241.558929 337.000000 240.795349 337.000000 240.000000 C337.000000 239.204651 337.316284 238.441071 337.878693 237.878677 C338.441101 237.316284 339.204651 237.000000 340.000000 237.000000 C340.795349 237.000000 341.558899 237.316284 342.121307 237.878677 C342.683716 238.441071 343.000000 239.204651 343.000000 240.000000"></path>
<path id="" fill="#000000" fill-opacity="1.0" stroke="#000000" stroke-width="0.0" stroke-opacity="1.0" stroke-linecap="round" stroke-linejoin="round"  filling="0" d="M373.000000 190.000000 C373.000000 190.795349 372.683716 191.558929 372.121307 192.121323 C371.558899 192.683716 370.795349 193.000000 370.000000 193.000000 C369.204651 193.000000 368.441101 192.683716 367.878693 192.121323 C367.316284 191.558929 367.000000 190.795349 367.000000 190.000000 C367.000000 189.204651 367.316284 188.441071 367.878693 187.878677 C368.441101 187.316284 369.204651 187.000000 370.000000 187.000000 C370.795349 187.000000 371.558899 187.316284 372.121307 187.878677 C372.683716 188.441071 373.000000 189.204651 373.000000 190.000000"></path>
<path id="" fill="#000000" fill-opacity="1.0" stroke="#000000" stroke-width="0.0" stroke-opacity="1.0" stroke-linecap="round" stroke-linejoin="round"  filling="0" d="M313.000000 270.000000 C313.000000 270.795349 312.683716 271.558899 312.121307 272.121307 C311.558899 272.683716 310.795349 273.000000 310.000000 273.000000 C309.204651 273.000000 308.441101 272.683716 307.878693 272.121307 C307.316284 271.558899 307.000000 270.795349 307.000000 270.000000 C307.000000 269.204651 307.316284 268.441101 307.878693 267.878693 C308.441101 267.316284 309.204651 267.000000 310.000000 267.000000 C310.795349 267.000000 311.558899 267.316284 312.121307 267.878693 C312.683716 268.441101 313.000000 269.204651 313.000000 270.000000"></path>
<path id="" fill="#000000" fill-opacity="1.0" stroke="#000000" stroke-width="0.0" stroke-opacity="1.0" stroke-linecap="round" stroke-linejoin="round"  filling="0" d="M353.000000 160.000000 C353.000000 160.795349 352.683716 161.558929 352.121307 162.121323 C351.558899 162.683716 350.795349 163.000000 350.000000 163.000000 C349.204651 163.000000 348.441101 162.683716 347.878693 162.121323 C347.316284 161.558929 347.000000 160.795349 347.000000 160.000000 C347.000000 159.204651 347.316284 158.441071 347.878693 157.878677 C348.441101 157.316284 349.204651 157.000000 350.000000 157.000000 C350.795349 157.000000 351.558899 157.316284 352.121307 157.878677 C352.683716 158.441071 353.000000 159.204651 353.000000 160.000000"></path>
<path id="" fill="#000000" fill-opacity="1.0" stroke="#000000" stroke-width="0.0" stroke-opacity="1.0" stroke-linecap="round" stroke-linejoin="round"  filling="0" d="M333.000000 210.000000 C333.000000 210.795349 332.683716 211.558929 332.121307 212.121323 C331.558899 212.683716 330.795349 213.000000 330.000000 213.000000 C329.204651 213.000000 328.441101 212.683716 327.878693 212.121323 C327.316284 211.558929 327.000000 210.795349 327.000000 210.000000 C327.000000 209.204651 327.316284 208.441071 327.878693 207.878677 C328.441101 207.316284 329.204651 207.000000 330.000000 207.000000 C330.795349 207.000000 331.558899 207.316284 332.121307 207.878677 C332.683716 208.441071 333.000000 209.204651 333.000000 210.000000"></path>
<path id="" fill="#000000" fill-opacity="1.0" stroke="#000000" stroke-width="0.0" stroke-opacity="1.0" stroke-linecap="round" stroke-linejoin="round"  filling="0" d="M383.000000 230.000000 C383.000000 230.795349 382.683716 231.558929 382.121307 232.121323 C381.558899 232.683716 380.795349 233.000000 380.000000 233.000000 C379.204651 233.000000 378.441101 232.683716 377.878693 232.121323 C377.316284 231.558929 377.000000 230.795349 377.000000 230.000000 C377.000000 229.204651 377.316284 228.441071 377.878693 227.878677 C378.441101 227.316284 379.204651 227.000000 380.000000 227.000000 C380.795349 227.000000 381.558899 227.316284 382.121307 227.878677 C382.683716 228.441071 383.000000 229.204651 383.000000 230.000000"></path>
<path id="" fill="#000000" fill-opacity="1.0" stroke="#000000" stroke-width="0.0" stroke-opacity="1.0" stroke-linecap="round" stroke-linejoin="round"  filling="0" d="M403.000000 280.000000 C403.000000 280.795349 402.683716 281.558899 402.121307 282.121307 C401.558899 282.683716 400.795349 283.000000 400.000000 283.000000 C399.204651 283.000000 398.441101 282.683716 397.878693 282.121307 C397.316284 281.558899 397.000000 280.795349 397.000000 280.000000 C397.000000 279.204651 397.316284 278.441101 397.878693 277.878693 C398.441101 277.316284 399.204651 277.000000 400.000000 277.000000 C400.795349 277.000000 401.558899 277.316284 402.121307 277.878693 C402.683716 278.441101 403.000000 279.204651 403.000000 280.000000"></path>
<path id="" fill="#000000" fill-opacity="1.0" stroke="#000000" stroke-width="0.0" stroke-opacity="1.0" stroke-linecap="round" stroke-linejoin="round"  filling="0" d="M293.000000 230.000000 C293.000000 230.795349 292.683716 231.558929 292.121307 232.121323 C291.558899 232.683716 290.795349 233.000000 290.000000 233.000000 C289.204651 233.000000 288.441101 232.683716 287.878693 232.121323 C287.316284 231.558929 287.000000 230.795349 287.000000 230.000000 C287.000000 229.204651 287.316284 228.441071 287.878693 227.878677 C288.441101 227.316284 289.204651 227.000000 290.000000 227.000000 C290.795349 227.000000 291.558899 227.316284 292.121307 227.878677 C292.683716 228.441071 293.000000 229.204651 293.000000 230.000000"></path>
<path id="" fill="#000000" fill-opacity="1.0" stroke="#000000" stroke-width="0.0" stroke-opacity="1.0" stroke-linecap="round" stroke-linejoin="round"  filling="0" d="M423.000000 290.000000 C423.000000 290.795349 422.683716 291.558899 422.121307 292.121307 C421.558899 292.683716 420.795349 293.000000 420.000000 293.000000 C419.204651 293.000000 418.441101 292.683716 417.878693 292.121307 C417.316284 291.558899 417.000000 290.795349 417.000000 290.000000 C417.000000 289.204651 417.316284 288.441101 417.878693 287.878693 C418.441101 287.316284 419.204651 287.000000 420.000000 287.000000 C420.795349 287.000000 421.558899 287.316284 422.121307 287.878693 C422.683716 288.441101 423.000000 289.204651 423.000000 290.000000"></path>
<path id="" fill="#000000" fill-opacity="1.0" stroke="#000000" stroke-width="0.0" stroke-opacity="1.0" stroke-linecap="round" stroke-linejoin="round"  filling="0" d="M273.000000 180.000000 C273.000000 180.795349 272.683716 181.558929 272.121307 182.121323 C271.558899 182.683716 270.795349 183.000000 270.000000 183.000000 C269.204651 183.000000 268.441101 182.683716 267.878693 182.121323 C267.316284 181.558929 267.000000 180.795349 267.000000 180.000000 C267.000000 179.204651 267.316284 178.441071 267.878693 177.878677 C268.441101 177.316284 269.204651 177.000000 270.000000 177.000000 C270.795349 177.000000 271.558899 177.316284 272.121307 177.878677 C272.683716 178.441071 273.000000 179.204651 273.000000 180.000000"></path>
</svg>