<svg xmlns="http://www.w3.org/2000/svg" viewBox="0 0 512 512" height="512.0px" width="512.0px">
<path id="" fill="#FF0000" fill-opacity="1.0" stroke="#000000" stroke-width="0.0" stroke-opacity="1.0" stroke-linecap="round" stroke-linejoin="round"  filling="0" d="M260.000000 240.000000 C313.333344 240.000000 366.666656 240.000000 420.000000 240.000000 C420.000000 260.000000 420.000000 280.000000 420.000000 300.000000 C366.666656 300.000000 313.333344 300.000000 260.000000 300.000000 C260.000000 280.000000 260.000000 260.000000 260.000000 240.000000"></path>
<path id="" fill="#FF0000" fill-opacity="1.0" stroke="#000000" stroke-width="0.0" stroke-opacity="1.0" stroke-linecap="round" stroke-linejoin="round"  filling="0" d="M140.000000 200.000000 C180.000000 200.000000 220.000000 200.000000 260.000000 200.000000 C260.000000 233.333344 260.000000 266.666656 260.000000 300.000000 C220.000000 300.000000 180.000000 300.000000 140.000000 300.000000 C140.000000 266.666656 140.000000 233.333344 140.000000 200.000000"></path>
<path id="" fill="#333333" fill-opacity="1.0" stroke="#000000" stroke-width="0.0" stroke-opacity="1.0" stroke-linecap="round" stroke-linejoin="round"  filling="0" d="M210.000000 320.000000 C210.000000 327.953430 206.837128 335.589264 201.213196 341.213196 C195.589264 346.837128 187.953445 350.000000 180.000000 350.000000 C172.046555 350.000000 164.410736 346.837128 158.786804 341.213196 C153.162872 335.589264 150.000000 327.953430 150.000000 320.000000 C150.000000 312.046570 153.162872 304.410736 158.786804 298.786804 C164.410736 293.162872 172.046555 290.000000 180.000000 290.000000 C187.953445 290.000000 195.589264 293.162872 201.213196 298.786804 C206.837128 304.410736 210.000000 312.046570 210.000000 320.000000"></path>
<path id="" fill="#333333" fill-opacity="1.0" stroke="#000000" stroke-width="0.0" stroke-opacity="1.0" stroke-linecap="round" stroke-linejoin="round"  filling="0" d="M410.000000 320.000000 C410.000000 327.953430 406.837128 335.589264 401.213196 341.213196 C395.589264 346.837128 387.953430 350.000000 380.000000 350.000000 C372.046570 350.000000 364.410736 346.837128 358.786804 341.213196 C353.162872 335.589264 350.000000 327.953430 350.000000 320.000000 C350.000000 312.046570 353.162872 304.410736 358.786804 298.786804 C364.410736 293.162872 372.046570 290.000000 380.000000 290.000000 C387.953430 290.000000 395.589264 293.162872 401.213196 298.786804 C406.837128 304.410736 410.000000 312.046570 410.000000 320.000000"></path>
<path id="" fill="#ADD8E6" fill-opacity="1.0" stroke="#000000" stroke-width="0.0" stroke-opacity="1.0" stroke-linecap="round" stroke-linejoin="round"  filling="0" d="M190.000000 210.000000 C210.000000 210.000000 230.000000 210.000000 250.000000 210.000000 C250.000000 223.333328 250.000000 236.666672 250.000000 250.000000 C230.000000 250.000000 210.000000 250.000000 190.000000 250.000000 C190.000000 236.666672 190.000000 223.333328 190.000000 210.000000"></path>
<path id="" fill="#D2B48C" fill-opacity="1.0" stroke="#000000" stroke-width="0.0" stroke-opacity="1.0" stroke-linecap="round" stroke-linejoin="round"  filling="0" d="M245.000000 230.000000 C245.000000 235.302292 242.364288 240.392853 237.677673 244.142136 C232.991058 247.891418 226.627869 250.000000 220.000000 250.000000 C213.372131 250.000000 207.008942 247.891418 202.322327 244.142136 C197.635712 240.392853 195.000000 235.302292 195.000000 230.000000 C195.000000 224.697708 197.635712 219.607147 202.322327 215.857864 C207.008942 212.108582 213.372131 210.000000 220.000000 210.000000 C226.627869 210.000000 232.991058 212.108582 237.677673 215.857864 C242.364288 219.607147 245.000000 224.697708 245.000000 230.000000"></path>
<path id="" fill="#D2B48C" fill-opacity="1.0" stroke="#000000" stroke-width="0.0" stroke-opacity="1.0" stroke-linecap="round" stroke-linejoin="round"  filling="0" d="M205.000000 215.000000 C210.000000 210.000000 215.000000 205.000000 220.000000 200.000000 C225.000000 205.000000 230.000000 210.000000 235.000000 215.000000 C225.000000 215.000000 215.000000 215.000000 205.000000 215.000000"></path>
<path id="" fill="#000000" fill-opacity="1.0" stroke="#000000" stroke-width="0.0" stroke-opacity="1.0" stroke-linecap="round" stroke-linejoin="round"  filling="0" d="M218.000000 225.000000 C218.000000 225.795349 217.683716 226.558929 217.121323 227.121323 C216.558929 227.683716 215.795349 228.000000 215.000000 228.000000 C214.204651 228.000000 213.441071 227.683716 212.878677 227.121323 C212.316284 226.558929 212.000000 225.795349 212.000000 225.000000 C212.000000 224.204651 212.316284 223.441071 212.878677 222.878677 C213.441071 222.316284 214.204651 222.000000 215.000000 222.000000 C215.795349 222.000000 216.558929 222.316284 217.121323 222.878677 C217.683716 223.441071 218.000000 224.204651 218.000000 225.000000"></path>
<path id="" fill="#000000" fill-opacity="1.0" stroke="#000000" stroke-width="0.0" stroke-opacity="1.0" stroke-linecap="round" stroke-linejoin="round"  filling="0" d="M210.000000 240.000000 C210.000000 242.651154 208.945724 245.196426 207.071075 247.071075 C205.196426 248.945724 202.651154 250.000000 200.000000 250.000000 C197.348846 250.000000 194.803574 248.945724 192.928925 247.071075 C191.054276 245.196426 190.000000 242.651154 190.000000 240.000000 C190.000000 237.348846 191.054276 234.803574 192.928925 232.928925 C194.803574 231.054276 197.348846 230.000000 200.000000 230.000000 C202.651154 230.000000 205.196426 231.054276 207.071075 232.928925 C208.945724 234.803574 210.000000 237.348846 210.000000 240.000000"></path>
<path id="" fill="#8B0000" fill-opacity="1.0" stroke="#000000" stroke-width="0.0" stroke-opacity="1.0" stroke-linecap="round" stroke-linejoin="round"  filling="0" d="M140.000000 280.000000 C180.000000 280.000000 220.000000 280.000000 260.000000 280.000000 C260.000000 286.666656 260.000000 293.333344 260.000000 300.000000 C220.000000 300.000000 180.000000 300.000000 140.000000 300.000000 C140.000000 293.333344 140.000000 286.666656 140.000000 280.000000"></path>
<path id="" fill="#8B0000" fill-opacity="1.0" stroke="#000000" stroke-width="0.0" stroke-opacity="1.0" stroke-linecap="round" stroke-linejoin="round"  filling="0" d="M260.000000 280.000000 C313.333344 280.000000 366.666656 280.000000 420.000000 280.000000 C420.000000 286.666656 420.000000 293.333344 420.000000 300.000000 C366.666656 300.000000 313.333344 300.000000 260.000000 300.000000 C260.000000 293.333344 260.000000 286.666656 260.000000 280.000000"></path>
</svg>