<svg xmlns="http://www.w3.org/2000/svg" viewBox="0 0 512 512" height="512.0px" width="512.0px">
<path id="" fill="#000033" fill-opacity="1.0" stroke="#000000" stroke-width="0.0" stroke-opacity="1.0" stroke-linecap="round" stroke-linejoin="round"  filling="0" d="M-1.000000 0.000000 C169.666672 0.000000 340.333313 0.000000 511.000000 0.000000 C511.000000 170.666672 511.000000 341.333313 511.000000 512.000000 C340.333313 512.000000 169.666672 512.000000 -1.000000 512.000000 C-1.000000 341.333313 -1.000000 170.666672 -1.000000 0.000000"></path>
<path id="" fill="#ffffff" fill-opacity="1.0" stroke="#000000" stroke-width="0.0" stroke-opacity="1.0" stroke-linecap="round" stroke-linejoin="round"  filling="0" d="M52.000000 30.000000 C52.000000 30.530230 51.789143 31.039284 51.414215 31.414213 C51.039288 31.789143 50.530228 32.000000 50.000000 32.000000 C49.469772 32.000000 48.960712 31.789143 48.585785 31.414213 C48.210857 31.039284 48.000000 30.530230 48.000000 30.000000 C48.000000 29.469770 48.210857 28.960716 48.585785 28.585787 C48.960712 28.210857 49.469772 28.000000 50.000000 28.000000 C50.530228 28.000000 51.039288 28.210857 51.414215 28.585787 C51.789143 28.960716 52.000000 29.469770 52.000000 30.000000"></path>
<path id="" fill="#ffffff" fill-opacity="1.0" stroke="#000000" stroke-width="0.0" stroke-opacity="1.0" stroke-linecap="round" stroke-linejoin="round"  filling="0" d="M253.000000 40.000000 C253.000000 40.795345 252.683716 41.558926 252.121323 42.121319 C251.558929 42.683712 250.795349 43.000000 250.000000 43.000000 C249.204651 43.000000 248.441071 42.683712 247.878677 42.121319 C247.316284 41.558926 247.000000 40.795345 247.000000 40.000000 C247.000000 39.204655 247.316284 38.441074 247.878677 37.878681 C248.441071 37.316288 249.204651 37.000000 250.000000 37.000000 C250.795349 37.000000 251.558929 37.316288 252.121323 37.878681 C252.683716 38.441074 253.000000 39.204655 253.000000 40.000000"></path>
<path id="" fill="#ffffff" fill-opacity="1.0" stroke="#000000" stroke-width="0.0" stroke-opacity="1.0" stroke-linecap="round" stroke-linejoin="round"  filling="0" d="M352.000000 90.000000 C352.000000 90.530228 351.789154 91.039284 351.414215 91.414215 C351.039276 91.789146 350.530243 92.000000 350.000000 92.000000 C349.469757 92.000000 348.960724 91.789146 348.585785 91.414215 C348.210846 91.039284 348.000000 90.530228 348.000000 90.000000 C348.000000 89.469772 348.210846 88.960716 348.585785 88.585785 C348.960724 88.210854 349.469757 88.000000 350.000000 88.000000 C350.530243 88.000000 351.039276 88.210854 351.414215 88.585785 C351.789154 88.960716 352.000000 89.469772 352.000000 90.000000"></path>
<path id="" fill="#ffffff" fill-opacity="1.0" stroke="#000000" stroke-width="0.0" stroke-opacity="1.0" stroke-linecap="round" stroke-linejoin="round"  filling="0" d="M102.000000 120.000000 C102.000000 120.530228 101.789146 121.039284 101.414215 121.414215 C101.039284 121.789146 100.530228 122.000000 100.000000 122.000000 C99.469772 122.000000 98.960716 121.789146 98.585785 121.414215 C98.210854 121.039284 98.000000 120.530228 98.000000 120.000000 C98.000000 119.469772 98.210854 118.960716 98.585785 118.585785 C98.960716 118.210854 99.469772 118.000000 100.000000 118.000000 C100.530228 118.000000 101.039284 118.210854 101.414215 118.585785 C101.789146 118.960716 102.000000 119.469772 102.000000 120.000000"></path>
<path id="" fill="#ffffff" fill-opacity="1.0" stroke="#000000" stroke-width="0.0" stroke-opacity="1.0" stroke-linecap="round" stroke-linejoin="round"  filling="0" d="M303.000000 100.000000 C303.000000 100.795341 302.683716 101.558929 302.121307 102.121323 C301.558899 102.683716 300.795349 103.000000 300.000000 103.000000 C299.204651 103.000000 298.441101 102.683716 297.878693 102.121323 C297.316284 101.558929 297.000000 100.795341 297.000000 100.000000 C297.000000 99.204659 297.316284 98.441071 297.878693 97.878677 C298.441101 97.316284 299.204651 97.000000 300.000000 97.000000 C300.795349 97.000000 301.558899 97.316284 302.121307 97.878677 C302.683716 98.441071 303.000000 99.204659 303.000000 100.000000"></path>
<path id="" fill="#ffffff" fill-opacity="1.0" stroke="#000000" stroke-width="0.0" stroke-opacity="1.0" stroke-linecap="round" stroke-linejoin="round"  filling="0" d="M402.000000 130.000000 C402.000000 130.530228 401.789154 131.039291 401.414215 131.414215 C401.039276 131.789139 400.530243 132.000000 400.000000 132.000000 C399.469757 132.000000 398.960724 131.789139 398.585785 131.414215 C398.210846 131.039291 398.000000 130.530228 398.000000 130.000000 C398.000000 129.469772 398.210846 128.960709 398.585785 128.585785 C398.960724 128.210861 399.469757 128.000000 400.000000 128.000000 C400.530243 128.000000 401.039276 128.210861 401.414215 128.585785 C401.789154 128.960709 402.000000 129.469772 402.000000 130.000000"></path>
<path id="" fill="#ffffff" fill-opacity="1.0" stroke="#000000" stroke-width="0.0" stroke-opacity="1.0" stroke-linecap="round" stroke-linejoin="round"  filling="0" d="M32.000000 200.000000 C32.000000 200.530228 31.789143 201.039291 31.414213 201.414215 C31.039284 201.789139 30.530230 202.000000 30.000000 202.000000 C29.469770 202.000000 28.960716 201.789139 28.585787 201.414215 C28.210857 201.039291 28.000000 200.530228 28.000000 200.000000 C28.000000 199.469772 28.210857 198.960709 28.585787 198.585785 C28.960716 198.210861 29.469770 198.000000 30.000000 198.000000 C30.530230 198.000000 31.039284 198.210861 31.414213 198.585785 C31.789143 198.960709 32.000000 199.469772 32.000000 200.000000"></path>
<path id="" fill="#ffffff" fill-opacity="1.0" stroke="#000000" stroke-width="0.0" stroke-opacity="1.0" stroke-linecap="round" stroke-linejoin="round"  filling="0" d="M233.000000 210.000000 C233.000000 210.795349 232.683716 211.558929 232.121323 212.121323 C231.558929 212.683716 230.795349 213.000000 230.000000 213.000000 C229.204651 213.000000 228.441071 212.683716 227.878677 212.121323 C227.316284 211.558929 227.000000 210.795349 227.000000 210.000000 C227.000000 209.204651 227.316284 208.441071 227.878677 207.878677 C228.441071 207.316284 229.204651 207.000000 230.000000 207.000000 C230.795349 207.000000 231.558929 207.316284 232.121323 207.878677 C232.683716 208.441071 233.000000 209.204651 233.000000 210.000000"></path>
<path id="" fill="#ffffff" fill-opacity="1.0" stroke="#000000" stroke-width="0.0" stroke-opacity="1.0" stroke-linecap="round" stroke-linejoin="round"  filling="0" d="M332.000000 260.000000 C332.000000 260.530243 331.789154 261.039276 331.414215 261.414215 C331.039276 261.789154 330.530243 262.000000 330.000000 262.000000 C329.469757 262.000000 328.960724 261.789154 328.585785 261.414215 C328.210846 261.039276 328.000000 260.530243 328.000000 260.000000 C328.000000 259.469757 328.210846 258.960724 328.585785 258.585785 C328.960724 258.210846 329.469757 258.000000 330.000000 258.000000 C330.530243 258.000000 331.039276 258.210846 331.414215 258.585785 C331.789154 258.960724 332.000000 259.469757 332.000000 260.000000"></path>
<path id="" fill="#8b4513" fill-opacity="1.0" stroke="#000000" stroke-width="0.0" stroke-opacity="1.0" stroke-linecap="round" stroke-linejoin="round"  filling="0" d="M150.000000 300.000000 C220.666672 266.666656 291.333313 266.666656 362.000000 300.000000 C334.000000 353.333344 276.666687 380.000000 190.000000 380.000000 C176.666672 353.333344 163.333328 326.666656 150.000000 300.000000"></path>
<path id="" fill="#8b4513" fill-opacity="1.0" stroke="#000000" stroke-width="0.0" stroke-opacity="1.0" stroke-linecap="round" stroke-linejoin="round"  filling="0" d="M353.000000 299.000000 C366.333344 285.666656 379.666656 285.666656 393.000000 299.000000 C406.333344 312.333344 406.333344 325.666656 393.000000 339.000000 C379.666656 345.666656 366.333344 345.666656 353.000000 339.000000 C353.000000 325.666656 353.000000 312.333344 353.000000 299.000000"></path>
<path id="" fill="#8b4513" fill-opacity="1.0" stroke="#000000" stroke-width="0.0" stroke-opacity="1.0" stroke-linecap="round" stroke-linejoin="round"  filling="0" d="M366.000000 290.000000 C369.333344 285.000000 372.666656 280.000000 376.000000 275.000000 C379.333344 280.000000 382.666656 285.000000 386.000000 290.000000 C379.333344 290.000000 372.666656 290.000000 366.000000 290.000000"></path>
<path id="" fill="#000000" fill-opacity="1.0" stroke="#000000" stroke-width="0.0" stroke-opacity="1.0" stroke-linecap="round" stroke-linejoin="round"  filling="0" d="M389.000000 308.000000 C389.000000 309.325562 388.472839 310.598206 387.535522 311.535522 C386.598206 312.472839 385.325562 313.000000 384.000000 313.000000 C382.674438 313.000000 381.401794 312.472839 380.464478 311.535522 C379.527161 310.598206 379.000000 309.325562 379.000000 308.000000 C379.000000 306.674438 379.527161 305.401794 380.464478 304.464478 C381.401794 303.527161 382.674438 303.000000 384.000000 303.000000 C385.325562 303.000000 386.598206 303.527161 387.535522 304.464478 C388.472839 305.401794 389.000000 306.674438 389.000000 308.000000"></path>
<path id="" fill="#8b4513" fill-opacity="1.0" stroke="#000000" stroke-width="0.0" stroke-opacity="1.0" stroke-linecap="round" stroke-linejoin="round"  filling="0" d="M201.806000 369.960999 C195.057999 403.701660 188.285004 430.768646 181.487000 451.161987 C175.162338 449.053986 168.837662 446.946014 162.513000 444.838013 C169.048325 425.231354 175.608658 398.964996 182.194000 366.039001 C188.731339 367.346344 195.268661 368.653656 201.806000 369.960999"></path>
<path id="" fill="#8b4513" fill-opacity="1.0" stroke="#000000" stroke-width="0.0" stroke-opacity="1.0" stroke-linecap="round" stroke-linejoin="round"  filling="0" d="M216.701004 363.575012 C223.406342 390.394989 230.108002 420.549652 236.806000 454.039001 C230.268661 455.346344 223.731339 456.653656 217.194000 457.960999 C210.558670 424.782990 203.927002 394.937653 197.298996 368.424988 C203.766327 366.808319 210.233673 365.191681 216.701004 363.575012"></path>
<path id="" fill="#8b4513" fill-opacity="1.0" stroke="#000000" stroke-width="0.0" stroke-opacity="1.0" stroke-linecap="round" stroke-linejoin="round"  filling="0" d="M308.806000 351.960999 C302.057983 385.701660 295.285004 412.768646 288.487000 433.161987 C282.162323 431.053986 275.837677 428.946014 269.513000 426.838013 C276.048340 407.231354 282.608673 380.964996 289.194000 348.039001 C295.731323 349.346344 302.268677 350.653656 308.806000 351.960999"></path>
<path id="" fill="#8b4513" fill-opacity="1.0" stroke="#000000" stroke-width="0.0" stroke-opacity="1.0" stroke-linecap="round" stroke-linejoin="round"  filling="0" d="M322.700989 346.575012 C329.406342 373.396332 336.108002 403.550995 342.806000 437.039001 C336.268677 438.346344 329.731323 439.653656 323.194000 440.960999 C316.558655 407.783661 309.927002 377.938324 303.299011 351.424988 C309.766327 349.808319 316.233673 348.191681 322.700989 346.575012"></path>
<path id="" fill="#8b4513" fill-opacity="1.0" stroke="#000000" stroke-width="0.0" stroke-opacity="1.0" stroke-linecap="round" stroke-linejoin="round"  filling="0" d="M163.000000 311.500000 C143.270676 337.806000 126.840004 364.090668 113.708000 390.354004 C109.236000 388.118011 104.764000 385.881989 100.292000 383.645996 C113.826668 356.575989 130.729340 329.527313 151.000000 302.500000 C155.000000 305.500000 159.000000 308.500000 163.000000 311.500000"></path>
<path id="" fill="#ffffff" fill-opacity="1.0" stroke="#000000" stroke-width="0.0" stroke-opacity="1.0" stroke-linecap="round" stroke-linejoin="round"  filling="0" d="M240.000000 220.000000 C260.000000 220.000000 280.000000 220.000000 300.000000 220.000000 C300.000000 246.666672 300.000000 273.333344 300.000000 300.000000 C280.000000 300.000000 260.000000 300.000000 240.000000 300.000000 C240.000000 273.333344 240.000000 246.666672 240.000000 220.000000"></path>
<path id="" fill="#c0c0c0" fill-opacity="1.0" stroke="#000000" stroke-width="0.0" stroke-opacity="1.0" stroke-linecap="round" stroke-linejoin="round"  filling="0" d="M250.000000 230.000000 C263.333344 230.000000 276.666656 230.000000 290.000000 230.000000 C290.000000 250.000000 290.000000 270.000000 290.000000 290.000000 C276.666656 290.000000 263.333344 290.000000 250.000000 290.000000 C250.000000 270.000000 250.000000 250.000000 250.000000 230.000000"></path>
<path id="" fill="#ffffff" fill-opacity="1.0" stroke="#000000" stroke-width="0.0" stroke-opacity="1.0" stroke-linecap="round" stroke-linejoin="round"  filling="0" d="M300.000000 200.000000 C300.000000 207.953445 296.837128 215.589264 291.213196 221.213196 C285.589264 226.837128 277.953430 230.000000 270.000000 230.000000 C262.046570 230.000000 254.410736 226.837128 248.786804 221.213196 C243.162872 215.589264 240.000000 207.953445 240.000000 200.000000 C240.000000 192.046555 243.162872 184.410736 248.786804 178.786804 C254.410736 173.162872 262.046570 170.000000 270.000000 170.000000 C277.953430 170.000000 285.589264 173.162872 291.213196 178.786804 C296.837128 184.410736 300.000000 192.046555 300.000000 200.000000"></path>
<path id="" fill="#ffd700" fill-opacity="1.0" stroke="#000000" stroke-width="0.0" stroke-opacity="1.0" stroke-linecap="round" stroke-linejoin="round"  filling="0" d="M250.000000 195.000000 C263.333344 185.000000 276.666656 185.000000 290.000000 195.000000 C286.666656 205.000000 275.000000 210.000000 255.000000 210.000000 C253.333328 205.000000 251.666672 200.000000 250.000000 195.000000"></path>
<path id="" fill="#ffffff" fill-opacity="1.0" stroke="#000000" stroke-width="0.0" stroke-opacity="1.0" stroke-linecap="round" stroke-linejoin="round"  filling="0" d="M243.535995 253.535995 C230.202667 266.869324 216.869324 280.202667 203.535995 293.536011 C201.178665 291.178680 198.821335 288.821320 196.464005 286.463989 C209.797333 273.130676 223.130676 259.797333 236.464005 246.464005 C238.821335 248.821335 241.178665 251.178665 243.535995 253.535995"></path>
<path id="" fill="#ffffff" fill-opacity="1.0" stroke="#000000" stroke-width="0.0" stroke-opacity="1.0" stroke-linecap="round" stroke-linejoin="round"  filling="0" d="M303.536011 246.464005 C316.869354 259.797333 330.202667 273.130676 343.536011 286.463989 C341.178680 288.821320 338.821320 291.178680 336.463989 293.536011 C323.130646 280.202667 309.797333 266.869324 296.463989 253.535995 C298.821320 251.178665 301.178680 248.821335 303.536011 246.464005"></path>
</svg>